<?xml version="1.0" encoding="utf-8" standalone="no"?>
<!DOCTYPE svg PUBLIC "-//W3C//DTD SVG 1.1//EN"
  "http://www.w3.org/Graphics/SVG/1.1/DTD/svg11.dtd">
<!-- Created with matplotlib (http://matplotlib.org/) -->
<svg height="345pt" version="1.1" viewBox="0 0 460 345" width="460pt" xmlns="http://www.w3.org/2000/svg" xmlns:xlink="http://www.w3.org/1999/xlink">
 <defs>
  <style type="text/css">
*{stroke-linecap:butt;stroke-linejoin:round;}
  </style>
 </defs>
 <g id="figure_1">
  <g id="patch_1">
   <path d="M 0 345.6 
L 460.8 345.6 
L 460.8 0 
L 0 0 
z
" style="fill:#ffffff;"/>
  </g>
  <g id="axes_1">
   <g id="patch_2">
    <path d="M 56.12 294.88 
L 399.984 294.88 
L 399.984 6.845228 
L 56.12 6.845228 
z
" style="fill:#ffffff;"/>
   </g>
   <g id="line2d_1">
    <path d="M -1 293.241018 
L 4.578827 293.241018 
L 4.578827 291.602035 
L 23.480305 291.602035 
L 23.480305 289.963053 
L 113.09314 289.963053 
L 113.09314 286.685088 
L 134.428045 286.685088 
L 134.428045 283.407123 
L 142.874796 283.407123 
L 142.874796 280.129158 
L 142.897003 280.129158 
L 142.897003 276.851193 
L 146.46889 276.851193 
L 146.46889 273.573228 
L 148.984932 273.573228 
L 148.984932 271.934246 
L 154.876517 271.934246 
L 154.876517 268.656281 
L 156.184688 268.656281 
L 156.184688 267.017299 
L 163.535851 267.017299 
L 163.535851 262.100351 
L 168.831689 262.100351 
L 168.831689 260.461369 
L 177.079636 260.461369 
L 177.079636 255.544422 
L 182.399673 255.544422 
L 182.399673 250.627474 
L 193.162112 250.627474 
L 193.162112 247.34951 
L 218.519925 247.34951 
L 218.519925 244.071545 
L 238.751365 244.071545 
L 238.751365 240.79358 
L 240.384965 240.79358 
L 240.384965 239.154597 
L 241.36642 239.154597 
L 241.36642 237.515615 
L 243.344537 237.515615 
L 243.344537 235.876633 
L 255.854035 235.876633 
L 255.854035 232.598668 
L 257.549 232.598668 
L 257.549 227.68172 
L 261.372393 227.68172 
L 261.372393 224.403756 
L 261.514262 224.403756 
L 261.514262 219.486808 
L 261.755206 219.486808 
L 261.755206 216.208843 
L 262.009424 216.208843 
L 262.009424 212.930878 
L 270.5262 212.930878 
L 270.5262 208.013931 
L 278.563437 208.013931 
L 278.563437 204.735966 
L 292.320473 204.735966 
L 292.320473 201.458001 
L 292.678662 201.458001 
L 292.678662 198.180037 
L 292.8485 198.180037 
L 292.8485 194.902072 
L 293.384594 194.902072 
L 293.384594 191.624107 
L 293.682993 191.624107 
L 293.682993 188.346142 
L 333.429677 188.346142 
" style="fill:none;stroke:#f5deb3;stroke-linecap:square;stroke-width:6;"/>
   </g>
   <g id="line2d_2">
    <path d="M 0 0 
" style="fill:none;stroke:#f5deb3;stroke-linecap:square;stroke-width:6;"/>
    <defs>
     <path d="M -0 7.778175 
L 7.778175 0 
L 0 -7.778175 
L -7.778175 -0 
z
" id="m32e606cfb7" style="stroke:#f5deb3;stroke-linejoin:miter;stroke-width:1.5;"/>
    </defs>
    <g>
     <use style="fill:#f5deb3;stroke:#f5deb3;stroke-linejoin:miter;stroke-width:1.5;" x="0" xlink:href="#m32e606cfb7" y="0"/>
    </g>
   </g>
   <g id="line2d_3">
    <path d="M 333.429677 188.346142 
L 363.933742 289.176341 
" style="fill:none;stroke:#f5deb3;stroke-linecap:square;stroke-width:6;"/>
    <g>
     <use style="fill:#f5deb3;stroke:#f5deb3;stroke-linejoin:miter;stroke-width:1.5;" x="333.429677" xlink:href="#m32e606cfb7" y="188.346142"/>
     <use style="fill:#f5deb3;stroke:#f5deb3;stroke-linejoin:miter;stroke-width:1.5;" x="363.933742" xlink:href="#m32e606cfb7" y="289.176341"/>
    </g>
   </g>
   <g id="matplotlib.axis_1">
    <g id="xtick_1">
     <g id="line2d_4">
      <path clip-path="url(#pac00b46bfb)" d="M 56.12 294.88 
L 56.12 6.845228 
" style="fill:none;stroke:#b0b0b0;stroke-linecap:square;stroke-width:0.8;"/>
     </g>
     <g id="line2d_5">
      <defs>
       <path d="M 0 0 
L 0 3.5 
" id="m60f833d3bc" style="stroke:#000000;stroke-width:0.8;"/>
      </defs>
      <g>
       <use style="stroke:#000000;stroke-width:0.8;" x="56.12" xlink:href="#m60f833d3bc" y="294.88"/>
      </g>
     </g>
     <g id="text_1">
      <!-- 0 -->
      <defs>
       <path d="M 31.78125 66.40625 
Q 24.171875 66.40625 20.328125 58.90625 
Q 16.5 51.421875 16.5 36.375 
Q 16.5 21.390625 20.328125 13.890625 
Q 24.171875 6.390625 31.78125 6.390625 
Q 39.453125 6.390625 43.28125 13.890625 
Q 47.125 21.390625 47.125 36.375 
Q 47.125 51.421875 43.28125 58.90625 
Q 39.453125 66.40625 31.78125 66.40625 
z
M 31.78125 74.21875 
Q 44.046875 74.21875 50.515625 64.515625 
Q 56.984375 54.828125 56.984375 36.375 
Q 56.984375 17.96875 50.515625 8.265625 
Q 44.046875 -1.421875 31.78125 -1.421875 
Q 19.53125 -1.421875 13.0625 8.265625 
Q 6.59375 17.96875 6.59375 36.375 
Q 6.59375 54.828125 13.0625 64.515625 
Q 19.53125 74.21875 31.78125 74.21875 
z
" id="DejaVuSans-30"/>
      </defs>
      <g transform="translate(49.7575 317.076875)scale(0.2 -0.2)">
       <use xlink:href="#DejaVuSans-30"/>
      </g>
     </g>
    </g>
    <g id="xtick_2">
     <g id="line2d_6">
      <path clip-path="url(#pac00b46bfb)" d="M 135.351336 294.88 
L 135.351336 6.845228 
" style="fill:none;stroke:#b0b0b0;stroke-linecap:square;stroke-width:0.8;"/>
     </g>
     <g id="line2d_7">
      <g>
       <use style="stroke:#000000;stroke-width:0.8;" x="135.351336" xlink:href="#m60f833d3bc" y="294.88"/>
      </g>
     </g>
     <g id="text_2">
      <!-- 2 -->
      <defs>
       <path d="M 19.1875 8.296875 
L 53.609375 8.296875 
L 53.609375 0 
L 7.328125 0 
L 7.328125 8.296875 
Q 12.9375 14.109375 22.625 23.890625 
Q 32.328125 33.6875 34.8125 36.53125 
Q 39.546875 41.84375 41.421875 45.53125 
Q 43.3125 49.21875 43.3125 52.78125 
Q 43.3125 58.59375 39.234375 62.25 
Q 35.15625 65.921875 28.609375 65.921875 
Q 23.96875 65.921875 18.8125 64.3125 
Q 13.671875 62.703125 7.8125 59.421875 
L 7.8125 69.390625 
Q 13.765625 71.78125 18.9375 73 
Q 24.125 74.21875 28.421875 74.21875 
Q 39.75 74.21875 46.484375 68.546875 
Q 53.21875 62.890625 53.21875 53.421875 
Q 53.21875 48.921875 51.53125 44.890625 
Q 49.859375 40.875 45.40625 35.40625 
Q 44.1875 33.984375 37.640625 27.21875 
Q 31.109375 20.453125 19.1875 8.296875 
z
" id="DejaVuSans-32"/>
      </defs>
      <g transform="translate(128.988836 317.076875)scale(0.2 -0.2)">
       <use xlink:href="#DejaVuSans-32"/>
      </g>
     </g>
    </g>
    <g id="xtick_3">
     <g id="line2d_8">
      <path clip-path="url(#pac00b46bfb)" d="M 214.582673 294.88 
L 214.582673 6.845228 
" style="fill:none;stroke:#b0b0b0;stroke-linecap:square;stroke-width:0.8;"/>
     </g>
     <g id="line2d_9">
      <g>
       <use style="stroke:#000000;stroke-width:0.8;" x="214.582673" xlink:href="#m60f833d3bc" y="294.88"/>
      </g>
     </g>
     <g id="text_3">
      <!-- 4 -->
      <defs>
       <path d="M 37.796875 64.3125 
L 12.890625 25.390625 
L 37.796875 25.390625 
z
M 35.203125 72.90625 
L 47.609375 72.90625 
L 47.609375 25.390625 
L 58.015625 25.390625 
L 58.015625 17.1875 
L 47.609375 17.1875 
L 47.609375 0 
L 37.796875 0 
L 37.796875 17.1875 
L 4.890625 17.1875 
L 4.890625 26.703125 
z
" id="DejaVuSans-34"/>
      </defs>
      <g transform="translate(208.220173 317.076875)scale(0.2 -0.2)">
       <use xlink:href="#DejaVuSans-34"/>
      </g>
     </g>
    </g>
    <g id="xtick_4">
     <g id="line2d_10">
      <path clip-path="url(#pac00b46bfb)" d="M 293.814009 294.88 
L 293.814009 6.845228 
" style="fill:none;stroke:#b0b0b0;stroke-linecap:square;stroke-width:0.8;"/>
     </g>
     <g id="line2d_11">
      <g>
       <use style="stroke:#000000;stroke-width:0.8;" x="293.814009" xlink:href="#m60f833d3bc" y="294.88"/>
      </g>
     </g>
     <g id="text_4">
      <!-- 6 -->
      <defs>
       <path d="M 33.015625 40.375 
Q 26.375 40.375 22.484375 35.828125 
Q 18.609375 31.296875 18.609375 23.390625 
Q 18.609375 15.53125 22.484375 10.953125 
Q 26.375 6.390625 33.015625 6.390625 
Q 39.65625 6.390625 43.53125 10.953125 
Q 47.40625 15.53125 47.40625 23.390625 
Q 47.40625 31.296875 43.53125 35.828125 
Q 39.65625 40.375 33.015625 40.375 
z
M 52.59375 71.296875 
L 52.59375 62.3125 
Q 48.875 64.0625 45.09375 64.984375 
Q 41.3125 65.921875 37.59375 65.921875 
Q 27.828125 65.921875 22.671875 59.328125 
Q 17.53125 52.734375 16.796875 39.40625 
Q 19.671875 43.65625 24.015625 45.921875 
Q 28.375 48.1875 33.59375 48.1875 
Q 44.578125 48.1875 50.953125 41.515625 
Q 57.328125 34.859375 57.328125 23.390625 
Q 57.328125 12.15625 50.6875 5.359375 
Q 44.046875 -1.421875 33.015625 -1.421875 
Q 20.359375 -1.421875 13.671875 8.265625 
Q 6.984375 17.96875 6.984375 36.375 
Q 6.984375 53.65625 15.1875 63.9375 
Q 23.390625 74.21875 37.203125 74.21875 
Q 40.921875 74.21875 44.703125 73.484375 
Q 48.484375 72.75 52.59375 71.296875 
z
" id="DejaVuSans-36"/>
      </defs>
      <g transform="translate(287.451509 317.076875)scale(0.2 -0.2)">
       <use xlink:href="#DejaVuSans-36"/>
      </g>
     </g>
    </g>
    <g id="xtick_5">
     <g id="line2d_12">
      <path clip-path="url(#pac00b46bfb)" d="M 373.045346 294.88 
L 373.045346 6.845228 
" style="fill:none;stroke:#b0b0b0;stroke-linecap:square;stroke-width:0.8;"/>
     </g>
     <g id="line2d_13">
      <g>
       <use style="stroke:#000000;stroke-width:0.8;" x="373.045346" xlink:href="#m60f833d3bc" y="294.88"/>
      </g>
     </g>
     <g id="text_5">
      <!-- 8 -->
      <defs>
       <path d="M 31.78125 34.625 
Q 24.75 34.625 20.71875 30.859375 
Q 16.703125 27.09375 16.703125 20.515625 
Q 16.703125 13.921875 20.71875 10.15625 
Q 24.75 6.390625 31.78125 6.390625 
Q 38.8125 6.390625 42.859375 10.171875 
Q 46.921875 13.96875 46.921875 20.515625 
Q 46.921875 27.09375 42.890625 30.859375 
Q 38.875 34.625 31.78125 34.625 
z
M 21.921875 38.8125 
Q 15.578125 40.375 12.03125 44.71875 
Q 8.5 49.078125 8.5 55.328125 
Q 8.5 64.0625 14.71875 69.140625 
Q 20.953125 74.21875 31.78125 74.21875 
Q 42.671875 74.21875 48.875 69.140625 
Q 55.078125 64.0625 55.078125 55.328125 
Q 55.078125 49.078125 51.53125 44.71875 
Q 48 40.375 41.703125 38.8125 
Q 48.828125 37.15625 52.796875 32.3125 
Q 56.78125 27.484375 56.78125 20.515625 
Q 56.78125 9.90625 50.3125 4.234375 
Q 43.84375 -1.421875 31.78125 -1.421875 
Q 19.734375 -1.421875 13.25 4.234375 
Q 6.78125 9.90625 6.78125 20.515625 
Q 6.78125 27.484375 10.78125 32.3125 
Q 14.796875 37.15625 21.921875 38.8125 
z
M 18.3125 54.390625 
Q 18.3125 48.734375 21.84375 45.5625 
Q 25.390625 42.390625 31.78125 42.390625 
Q 38.140625 42.390625 41.71875 45.5625 
Q 45.3125 48.734375 45.3125 54.390625 
Q 45.3125 60.0625 41.71875 63.234375 
Q 38.140625 66.40625 31.78125 66.40625 
Q 25.390625 66.40625 21.84375 63.234375 
Q 18.3125 60.0625 18.3125 54.390625 
z
" id="DejaVuSans-38"/>
      </defs>
      <g transform="translate(366.682846 317.076875)scale(0.2 -0.2)">
       <use xlink:href="#DejaVuSans-38"/>
      </g>
     </g>
    </g>
    <g id="text_6">
     <!-- log10(# f-evals / dimension) -->
     <defs>
      <path d="M 9.421875 75.984375 
L 18.40625 75.984375 
L 18.40625 0 
L 9.421875 0 
z
" id="DejaVuSans-6c"/>
      <path d="M 30.609375 48.390625 
Q 23.390625 48.390625 19.1875 42.75 
Q 14.984375 37.109375 14.984375 27.296875 
Q 14.984375 17.484375 19.15625 11.84375 
Q 23.34375 6.203125 30.609375 6.203125 
Q 37.796875 6.203125 41.984375 11.859375 
Q 46.1875 17.53125 46.1875 27.296875 
Q 46.1875 37.015625 41.984375 42.703125 
Q 37.796875 48.390625 30.609375 48.390625 
z
M 30.609375 56 
Q 42.328125 56 49.015625 48.375 
Q 55.71875 40.765625 55.71875 27.296875 
Q 55.71875 13.875 49.015625 6.21875 
Q 42.328125 -1.421875 30.609375 -1.421875 
Q 18.84375 -1.421875 12.171875 6.21875 
Q 5.515625 13.875 5.515625 27.296875 
Q 5.515625 40.765625 12.171875 48.375 
Q 18.84375 56 30.609375 56 
z
" id="DejaVuSans-6f"/>
      <path d="M 45.40625 27.984375 
Q 45.40625 37.75 41.375 43.109375 
Q 37.359375 48.484375 30.078125 48.484375 
Q 22.859375 48.484375 18.828125 43.109375 
Q 14.796875 37.75 14.796875 27.984375 
Q 14.796875 18.265625 18.828125 12.890625 
Q 22.859375 7.515625 30.078125 7.515625 
Q 37.359375 7.515625 41.375 12.890625 
Q 45.40625 18.265625 45.40625 27.984375 
z
M 54.390625 6.78125 
Q 54.390625 -7.171875 48.1875 -13.984375 
Q 42 -20.796875 29.203125 -20.796875 
Q 24.46875 -20.796875 20.265625 -20.09375 
Q 16.0625 -19.390625 12.109375 -17.921875 
L 12.109375 -9.1875 
Q 16.0625 -11.328125 19.921875 -12.34375 
Q 23.78125 -13.375 27.78125 -13.375 
Q 36.625 -13.375 41.015625 -8.765625 
Q 45.40625 -4.15625 45.40625 5.171875 
L 45.40625 9.625 
Q 42.625 4.78125 38.28125 2.390625 
Q 33.9375 0 27.875 0 
Q 17.828125 0 11.671875 7.65625 
Q 5.515625 15.328125 5.515625 27.984375 
Q 5.515625 40.671875 11.671875 48.328125 
Q 17.828125 56 27.875 56 
Q 33.9375 56 38.28125 53.609375 
Q 42.625 51.21875 45.40625 46.390625 
L 45.40625 54.6875 
L 54.390625 54.6875 
z
" id="DejaVuSans-67"/>
      <path d="M 12.40625 8.296875 
L 28.515625 8.296875 
L 28.515625 63.921875 
L 10.984375 60.40625 
L 10.984375 69.390625 
L 28.421875 72.90625 
L 38.28125 72.90625 
L 38.28125 8.296875 
L 54.390625 8.296875 
L 54.390625 0 
L 12.40625 0 
z
" id="DejaVuSans-31"/>
      <path d="M 31 75.875 
Q 24.46875 64.65625 21.28125 53.65625 
Q 18.109375 42.671875 18.109375 31.390625 
Q 18.109375 20.125 21.3125 9.0625 
Q 24.515625 -2 31 -13.1875 
L 23.1875 -13.1875 
Q 15.875 -1.703125 12.234375 9.375 
Q 8.59375 20.453125 8.59375 31.390625 
Q 8.59375 42.28125 12.203125 53.3125 
Q 15.828125 64.359375 23.1875 75.875 
z
" id="DejaVuSans-28"/>
      <path d="M 51.125 44 
L 36.921875 44 
L 32.8125 27.6875 
L 47.125 27.6875 
z
M 43.796875 71.78125 
L 38.71875 51.515625 
L 52.984375 51.515625 
L 58.109375 71.78125 
L 65.921875 71.78125 
L 60.890625 51.515625 
L 76.125 51.515625 
L 76.125 44 
L 58.984375 44 
L 54.984375 27.6875 
L 70.515625 27.6875 
L 70.515625 20.21875 
L 53.078125 20.21875 
L 48 0 
L 40.1875 0 
L 45.21875 20.21875 
L 30.90625 20.21875 
L 25.875 0 
L 18.015625 0 
L 23.09375 20.21875 
L 7.71875 20.21875 
L 7.71875 27.6875 
L 24.90625 27.6875 
L 29 44 
L 13.28125 44 
L 13.28125 51.515625 
L 30.90625 51.515625 
L 35.890625 71.78125 
z
" id="DejaVuSans-23"/>
      <path id="DejaVuSans-20"/>
      <path d="M 37.109375 75.984375 
L 37.109375 68.5 
L 28.515625 68.5 
Q 23.6875 68.5 21.796875 66.546875 
Q 19.921875 64.59375 19.921875 59.515625 
L 19.921875 54.6875 
L 34.71875 54.6875 
L 34.71875 47.703125 
L 19.921875 47.703125 
L 19.921875 0 
L 10.890625 0 
L 10.890625 47.703125 
L 2.296875 47.703125 
L 2.296875 54.6875 
L 10.890625 54.6875 
L 10.890625 58.5 
Q 10.890625 67.625 15.140625 71.796875 
Q 19.390625 75.984375 28.609375 75.984375 
z
" id="DejaVuSans-66"/>
      <path d="M 4.890625 31.390625 
L 31.203125 31.390625 
L 31.203125 23.390625 
L 4.890625 23.390625 
z
" id="DejaVuSans-2d"/>
      <path d="M 56.203125 29.59375 
L 56.203125 25.203125 
L 14.890625 25.203125 
Q 15.484375 15.921875 20.484375 11.0625 
Q 25.484375 6.203125 34.421875 6.203125 
Q 39.59375 6.203125 44.453125 7.46875 
Q 49.3125 8.734375 54.109375 11.28125 
L 54.109375 2.78125 
Q 49.265625 0.734375 44.1875 -0.34375 
Q 39.109375 -1.421875 33.890625 -1.421875 
Q 20.796875 -1.421875 13.15625 6.1875 
Q 5.515625 13.8125 5.515625 26.8125 
Q 5.515625 40.234375 12.765625 48.109375 
Q 20.015625 56 32.328125 56 
Q 43.359375 56 49.78125 48.890625 
Q 56.203125 41.796875 56.203125 29.59375 
z
M 47.21875 32.234375 
Q 47.125 39.59375 43.09375 43.984375 
Q 39.0625 48.390625 32.421875 48.390625 
Q 24.90625 48.390625 20.390625 44.140625 
Q 15.875 39.890625 15.1875 32.171875 
z
" id="DejaVuSans-65"/>
      <path d="M 2.984375 54.6875 
L 12.5 54.6875 
L 29.59375 8.796875 
L 46.6875 54.6875 
L 56.203125 54.6875 
L 35.6875 0 
L 23.484375 0 
z
" id="DejaVuSans-76"/>
      <path d="M 34.28125 27.484375 
Q 23.390625 27.484375 19.1875 25 
Q 14.984375 22.515625 14.984375 16.5 
Q 14.984375 11.71875 18.140625 8.90625 
Q 21.296875 6.109375 26.703125 6.109375 
Q 34.1875 6.109375 38.703125 11.40625 
Q 43.21875 16.703125 43.21875 25.484375 
L 43.21875 27.484375 
z
M 52.203125 31.203125 
L 52.203125 0 
L 43.21875 0 
L 43.21875 8.296875 
Q 40.140625 3.328125 35.546875 0.953125 
Q 30.953125 -1.421875 24.3125 -1.421875 
Q 15.921875 -1.421875 10.953125 3.296875 
Q 6 8.015625 6 15.921875 
Q 6 25.140625 12.171875 29.828125 
Q 18.359375 34.515625 30.609375 34.515625 
L 43.21875 34.515625 
L 43.21875 35.40625 
Q 43.21875 41.609375 39.140625 45 
Q 35.0625 48.390625 27.6875 48.390625 
Q 23 48.390625 18.546875 47.265625 
Q 14.109375 46.140625 10.015625 43.890625 
L 10.015625 52.203125 
Q 14.9375 54.109375 19.578125 55.046875 
Q 24.21875 56 28.609375 56 
Q 40.484375 56 46.34375 49.84375 
Q 52.203125 43.703125 52.203125 31.203125 
z
" id="DejaVuSans-61"/>
      <path d="M 44.28125 53.078125 
L 44.28125 44.578125 
Q 40.484375 46.53125 36.375 47.5 
Q 32.28125 48.484375 27.875 48.484375 
Q 21.1875 48.484375 17.84375 46.4375 
Q 14.5 44.390625 14.5 40.28125 
Q 14.5 37.15625 16.890625 35.375 
Q 19.28125 33.59375 26.515625 31.984375 
L 29.59375 31.296875 
Q 39.15625 29.25 43.1875 25.515625 
Q 47.21875 21.78125 47.21875 15.09375 
Q 47.21875 7.46875 41.1875 3.015625 
Q 35.15625 -1.421875 24.609375 -1.421875 
Q 20.21875 -1.421875 15.453125 -0.5625 
Q 10.6875 0.296875 5.421875 2 
L 5.421875 11.28125 
Q 10.40625 8.6875 15.234375 7.390625 
Q 20.0625 6.109375 24.8125 6.109375 
Q 31.15625 6.109375 34.5625 8.28125 
Q 37.984375 10.453125 37.984375 14.40625 
Q 37.984375 18.0625 35.515625 20.015625 
Q 33.0625 21.96875 24.703125 23.78125 
L 21.578125 24.515625 
Q 13.234375 26.265625 9.515625 29.90625 
Q 5.8125 33.546875 5.8125 39.890625 
Q 5.8125 47.609375 11.28125 51.796875 
Q 16.75 56 26.8125 56 
Q 31.78125 56 36.171875 55.265625 
Q 40.578125 54.546875 44.28125 53.078125 
z
" id="DejaVuSans-73"/>
      <path d="M 25.390625 72.90625 
L 33.6875 72.90625 
L 8.296875 -9.28125 
L 0 -9.28125 
z
" id="DejaVuSans-2f"/>
      <path d="M 45.40625 46.390625 
L 45.40625 75.984375 
L 54.390625 75.984375 
L 54.390625 0 
L 45.40625 0 
L 45.40625 8.203125 
Q 42.578125 3.328125 38.25 0.953125 
Q 33.9375 -1.421875 27.875 -1.421875 
Q 17.96875 -1.421875 11.734375 6.484375 
Q 5.515625 14.40625 5.515625 27.296875 
Q 5.515625 40.1875 11.734375 48.09375 
Q 17.96875 56 27.875 56 
Q 33.9375 56 38.25 53.625 
Q 42.578125 51.265625 45.40625 46.390625 
z
M 14.796875 27.296875 
Q 14.796875 17.390625 18.875 11.75 
Q 22.953125 6.109375 30.078125 6.109375 
Q 37.203125 6.109375 41.296875 11.75 
Q 45.40625 17.390625 45.40625 27.296875 
Q 45.40625 37.203125 41.296875 42.84375 
Q 37.203125 48.484375 30.078125 48.484375 
Q 22.953125 48.484375 18.875 42.84375 
Q 14.796875 37.203125 14.796875 27.296875 
z
" id="DejaVuSans-64"/>
      <path d="M 9.421875 54.6875 
L 18.40625 54.6875 
L 18.40625 0 
L 9.421875 0 
z
M 9.421875 75.984375 
L 18.40625 75.984375 
L 18.40625 64.59375 
L 9.421875 64.59375 
z
" id="DejaVuSans-69"/>
      <path d="M 52 44.1875 
Q 55.375 50.25 60.0625 53.125 
Q 64.75 56 71.09375 56 
Q 79.640625 56 84.28125 50.015625 
Q 88.921875 44.046875 88.921875 33.015625 
L 88.921875 0 
L 79.890625 0 
L 79.890625 32.71875 
Q 79.890625 40.578125 77.09375 44.375 
Q 74.3125 48.1875 68.609375 48.1875 
Q 61.625 48.1875 57.5625 43.546875 
Q 53.515625 38.921875 53.515625 30.90625 
L 53.515625 0 
L 44.484375 0 
L 44.484375 32.71875 
Q 44.484375 40.625 41.703125 44.40625 
Q 38.921875 48.1875 33.109375 48.1875 
Q 26.21875 48.1875 22.15625 43.53125 
Q 18.109375 38.875 18.109375 30.90625 
L 18.109375 0 
L 9.078125 0 
L 9.078125 54.6875 
L 18.109375 54.6875 
L 18.109375 46.1875 
Q 21.1875 51.21875 25.484375 53.609375 
Q 29.78125 56 35.6875 56 
Q 41.65625 56 45.828125 52.96875 
Q 50 49.953125 52 44.1875 
z
" id="DejaVuSans-6d"/>
      <path d="M 54.890625 33.015625 
L 54.890625 0 
L 45.90625 0 
L 45.90625 32.71875 
Q 45.90625 40.484375 42.875 44.328125 
Q 39.84375 48.1875 33.796875 48.1875 
Q 26.515625 48.1875 22.3125 43.546875 
Q 18.109375 38.921875 18.109375 30.90625 
L 18.109375 0 
L 9.078125 0 
L 9.078125 54.6875 
L 18.109375 54.6875 
L 18.109375 46.1875 
Q 21.34375 51.125 25.703125 53.5625 
Q 30.078125 56 35.796875 56 
Q 45.21875 56 50.046875 50.171875 
Q 54.890625 44.34375 54.890625 33.015625 
z
" id="DejaVuSans-6e"/>
      <path d="M 8.015625 75.875 
L 15.828125 75.875 
Q 23.140625 64.359375 26.78125 53.3125 
Q 30.421875 42.28125 30.421875 31.390625 
Q 30.421875 20.453125 26.78125 9.375 
Q 23.140625 -1.703125 15.828125 -13.1875 
L 8.015625 -13.1875 
Q 14.5 -2 17.703125 9.0625 
Q 20.90625 20.125 20.90625 31.390625 
Q 20.90625 42.671875 17.703125 53.65625 
Q 14.5 64.65625 8.015625 75.875 
z
" id="DejaVuSans-29"/>
     </defs>
     <g transform="translate(107.211219 338.153594)scale(0.17 -0.17)">
      <use xlink:href="#DejaVuSans-6c"/>
      <use x="27.783203" xlink:href="#DejaVuSans-6f"/>
      <use x="88.964844" xlink:href="#DejaVuSans-67"/>
      <use x="152.441406" xlink:href="#DejaVuSans-31"/>
      <use x="216.064453" xlink:href="#DejaVuSans-30"/>
      <use x="279.6875" xlink:href="#DejaVuSans-28"/>
      <use x="318.701172" xlink:href="#DejaVuSans-23"/>
      <use x="402.490234" xlink:href="#DejaVuSans-20"/>
      <use x="434.277344" xlink:href="#DejaVuSans-66"/>
      <use x="469.404297" xlink:href="#DejaVuSans-2d"/>
      <use x="505.488281" xlink:href="#DejaVuSans-65"/>
      <use x="567.011719" xlink:href="#DejaVuSans-76"/>
      <use x="626.191406" xlink:href="#DejaVuSans-61"/>
      <use x="687.470703" xlink:href="#DejaVuSans-6c"/>
      <use x="715.253906" xlink:href="#DejaVuSans-73"/>
      <use x="767.353516" xlink:href="#DejaVuSans-20"/>
      <use x="799.140625" xlink:href="#DejaVuSans-2f"/>
      <use x="832.832031" xlink:href="#DejaVuSans-20"/>
      <use x="864.619141" xlink:href="#DejaVuSans-64"/>
      <use x="928.095703" xlink:href="#DejaVuSans-69"/>
      <use x="955.878906" xlink:href="#DejaVuSans-6d"/>
      <use x="1053.291016" xlink:href="#DejaVuSans-65"/>
      <use x="1114.814453" xlink:href="#DejaVuSans-6e"/>
      <use x="1178.193359" xlink:href="#DejaVuSans-73"/>
      <use x="1230.292969" xlink:href="#DejaVuSans-69"/>
      <use x="1258.076172" xlink:href="#DejaVuSans-6f"/>
      <use x="1319.257812" xlink:href="#DejaVuSans-6e"/>
      <use x="1382.636719" xlink:href="#DejaVuSans-29"/>
     </g>
    </g>
   </g>
   <g id="matplotlib.axis_2">
    <g id="ytick_1">
     <g id="line2d_14">
      <path clip-path="url(#pac00b46bfb)" d="M 56.12 294.88 
L 399.984 294.88 
" style="fill:none;stroke:#b0b0b0;stroke-linecap:square;stroke-width:0.8;"/>
     </g>
     <g id="line2d_15">
      <defs>
       <path d="M 0 0 
L -3.5 0 
" id="m2ab65f0b9e" style="stroke:#000000;stroke-width:0.8;"/>
      </defs>
      <g>
       <use style="stroke:#000000;stroke-width:0.8;" x="56.12" xlink:href="#m2ab65f0b9e" y="294.88"/>
      </g>
     </g>
     <g id="text_7">
      <!-- 0.0 -->
      <defs>
       <path d="M 10.6875 12.40625 
L 21 12.40625 
L 21 0 
L 10.6875 0 
z
" id="DejaVuSans-2e"/>
      </defs>
      <g transform="translate(23.675 300.95875)scale(0.16 -0.16)">
       <use xlink:href="#DejaVuSans-30"/>
       <use x="63.623047" xlink:href="#DejaVuSans-2e"/>
       <use x="95.410156" xlink:href="#DejaVuSans-30"/>
      </g>
     </g>
    </g>
    <g id="ytick_2">
     <g id="line2d_16">
      <path clip-path="url(#pac00b46bfb)" d="M 56.12 237.843411 
L 399.984 237.843411 
" style="fill:none;stroke:#b0b0b0;stroke-linecap:square;stroke-width:0.8;"/>
     </g>
     <g id="line2d_17">
      <g>
       <use style="stroke:#000000;stroke-width:0.8;" x="56.12" xlink:href="#m2ab65f0b9e" y="237.843411"/>
      </g>
     </g>
     <g id="text_8">
      <!-- 0.2 -->
      <g transform="translate(23.675 243.922161)scale(0.16 -0.16)">
       <use xlink:href="#DejaVuSans-30"/>
       <use x="63.623047" xlink:href="#DejaVuSans-2e"/>
       <use x="95.410156" xlink:href="#DejaVuSans-32"/>
      </g>
     </g>
    </g>
    <g id="ytick_3">
     <g id="line2d_18">
      <path clip-path="url(#pac00b46bfb)" d="M 56.12 180.806823 
L 399.984 180.806823 
" style="fill:none;stroke:#b0b0b0;stroke-linecap:square;stroke-width:0.8;"/>
     </g>
     <g id="line2d_19">
      <g>
       <use style="stroke:#000000;stroke-width:0.8;" x="56.12" xlink:href="#m2ab65f0b9e" y="180.806823"/>
      </g>
     </g>
     <g id="text_9">
      <!-- 0.4 -->
      <g transform="translate(23.675 186.885573)scale(0.16 -0.16)">
       <use xlink:href="#DejaVuSans-30"/>
       <use x="63.623047" xlink:href="#DejaVuSans-2e"/>
       <use x="95.410156" xlink:href="#DejaVuSans-34"/>
      </g>
     </g>
    </g>
    <g id="ytick_4">
     <g id="line2d_20">
      <path clip-path="url(#pac00b46bfb)" d="M 56.12 123.770234 
L 399.984 123.770234 
" style="fill:none;stroke:#b0b0b0;stroke-linecap:square;stroke-width:0.8;"/>
     </g>
     <g id="line2d_21">
      <g>
       <use style="stroke:#000000;stroke-width:0.8;" x="56.12" xlink:href="#m2ab65f0b9e" y="123.770234"/>
      </g>
     </g>
     <g id="text_10">
      <!-- 0.6 -->
      <g transform="translate(23.675 129.848984)scale(0.16 -0.16)">
       <use xlink:href="#DejaVuSans-30"/>
       <use x="63.623047" xlink:href="#DejaVuSans-2e"/>
       <use x="95.410156" xlink:href="#DejaVuSans-36"/>
      </g>
     </g>
    </g>
    <g id="ytick_5">
     <g id="line2d_22">
      <path clip-path="url(#pac00b46bfb)" d="M 56.12 66.733646 
L 399.984 66.733646 
" style="fill:none;stroke:#b0b0b0;stroke-linecap:square;stroke-width:0.8;"/>
     </g>
     <g id="line2d_23">
      <g>
       <use style="stroke:#000000;stroke-width:0.8;" x="56.12" xlink:href="#m2ab65f0b9e" y="66.733646"/>
      </g>
     </g>
     <g id="text_11">
      <!-- 0.8 -->
      <g transform="translate(23.675 72.812396)scale(0.16 -0.16)">
       <use xlink:href="#DejaVuSans-30"/>
       <use x="63.623047" xlink:href="#DejaVuSans-2e"/>
       <use x="95.410156" xlink:href="#DejaVuSans-38"/>
      </g>
     </g>
    </g>
    <g id="ytick_6">
     <g id="line2d_24">
      <path clip-path="url(#pac00b46bfb)" d="M 56.12 9.697057 
L 399.984 9.697057 
" style="fill:none;stroke:#b0b0b0;stroke-linecap:square;stroke-width:0.8;"/>
     </g>
     <g id="line2d_25">
      <g>
       <use style="stroke:#000000;stroke-width:0.8;" x="56.12" xlink:href="#m2ab65f0b9e" y="9.697057"/>
      </g>
     </g>
     <g id="text_12">
      <!-- 1.0 -->
      <g transform="translate(23.675 15.775807)scale(0.16 -0.16)">
       <use xlink:href="#DejaVuSans-31"/>
       <use x="63.623047" xlink:href="#DejaVuSans-2e"/>
       <use x="95.410156" xlink:href="#DejaVuSans-30"/>
      </g>
     </g>
    </g>
    <g id="text_13">
     <!-- Fraction of function,target pairs -->
     <defs>
      <path d="M 9.8125 72.90625 
L 51.703125 72.90625 
L 51.703125 64.59375 
L 19.671875 64.59375 
L 19.671875 43.109375 
L 48.578125 43.109375 
L 48.578125 34.8125 
L 19.671875 34.8125 
L 19.671875 0 
L 9.8125 0 
z
" id="DejaVuSans-46"/>
      <path d="M 41.109375 46.296875 
Q 39.59375 47.171875 37.8125 47.578125 
Q 36.03125 48 33.890625 48 
Q 26.265625 48 22.1875 43.046875 
Q 18.109375 38.09375 18.109375 28.8125 
L 18.109375 0 
L 9.078125 0 
L 9.078125 54.6875 
L 18.109375 54.6875 
L 18.109375 46.1875 
Q 20.953125 51.171875 25.484375 53.578125 
Q 30.03125 56 36.53125 56 
Q 37.453125 56 38.578125 55.875 
Q 39.703125 55.765625 41.0625 55.515625 
z
" id="DejaVuSans-72"/>
      <path d="M 48.78125 52.59375 
L 48.78125 44.1875 
Q 44.96875 46.296875 41.140625 47.34375 
Q 37.3125 48.390625 33.40625 48.390625 
Q 24.65625 48.390625 19.8125 42.84375 
Q 14.984375 37.3125 14.984375 27.296875 
Q 14.984375 17.28125 19.8125 11.734375 
Q 24.65625 6.203125 33.40625 6.203125 
Q 37.3125 6.203125 41.140625 7.25 
Q 44.96875 8.296875 48.78125 10.40625 
L 48.78125 2.09375 
Q 45.015625 0.34375 40.984375 -0.53125 
Q 36.96875 -1.421875 32.421875 -1.421875 
Q 20.0625 -1.421875 12.78125 6.34375 
Q 5.515625 14.109375 5.515625 27.296875 
Q 5.515625 40.671875 12.859375 48.328125 
Q 20.21875 56 33.015625 56 
Q 37.15625 56 41.109375 55.140625 
Q 45.0625 54.296875 48.78125 52.59375 
z
" id="DejaVuSans-63"/>
      <path d="M 18.3125 70.21875 
L 18.3125 54.6875 
L 36.8125 54.6875 
L 36.8125 47.703125 
L 18.3125 47.703125 
L 18.3125 18.015625 
Q 18.3125 11.328125 20.140625 9.421875 
Q 21.96875 7.515625 27.59375 7.515625 
L 36.8125 7.515625 
L 36.8125 0 
L 27.59375 0 
Q 17.1875 0 13.234375 3.875 
Q 9.28125 7.765625 9.28125 18.015625 
L 9.28125 47.703125 
L 2.6875 47.703125 
L 2.6875 54.6875 
L 9.28125 54.6875 
L 9.28125 70.21875 
z
" id="DejaVuSans-74"/>
      <path d="M 8.5 21.578125 
L 8.5 54.6875 
L 17.484375 54.6875 
L 17.484375 21.921875 
Q 17.484375 14.15625 20.5 10.265625 
Q 23.53125 6.390625 29.59375 6.390625 
Q 36.859375 6.390625 41.078125 11.03125 
Q 45.3125 15.671875 45.3125 23.6875 
L 45.3125 54.6875 
L 54.296875 54.6875 
L 54.296875 0 
L 45.3125 0 
L 45.3125 8.40625 
Q 42.046875 3.421875 37.71875 1 
Q 33.40625 -1.421875 27.6875 -1.421875 
Q 18.265625 -1.421875 13.375 4.4375 
Q 8.5 10.296875 8.5 21.578125 
z
M 31.109375 56 
z
" id="DejaVuSans-75"/>
      <path d="M 11.71875 12.40625 
L 22.015625 12.40625 
L 22.015625 4 
L 14.015625 -11.625 
L 7.71875 -11.625 
L 11.71875 4 
z
" id="DejaVuSans-2c"/>
      <path d="M 18.109375 8.203125 
L 18.109375 -20.796875 
L 9.078125 -20.796875 
L 9.078125 54.6875 
L 18.109375 54.6875 
L 18.109375 46.390625 
Q 20.953125 51.265625 25.265625 53.625 
Q 29.59375 56 35.59375 56 
Q 45.5625 56 51.78125 48.09375 
Q 58.015625 40.1875 58.015625 27.296875 
Q 58.015625 14.40625 51.78125 6.484375 
Q 45.5625 -1.421875 35.59375 -1.421875 
Q 29.59375 -1.421875 25.265625 0.953125 
Q 20.953125 3.328125 18.109375 8.203125 
z
M 48.6875 27.296875 
Q 48.6875 37.203125 44.609375 42.84375 
Q 40.53125 48.484375 33.40625 48.484375 
Q 26.265625 48.484375 22.1875 42.84375 
Q 18.109375 37.203125 18.109375 27.296875 
Q 18.109375 17.390625 22.1875 11.75 
Q 26.265625 6.109375 33.40625 6.109375 
Q 40.53125 6.109375 44.609375 11.75 
Q 48.6875 17.390625 48.6875 27.296875 
z
" id="DejaVuSans-70"/>
     </defs>
     <g transform="translate(16.139531 286.001989)rotate(-90)scale(0.17 -0.17)">
      <use xlink:href="#DejaVuSans-46"/>
      <use x="57.410156" xlink:href="#DejaVuSans-72"/>
      <use x="98.523438" xlink:href="#DejaVuSans-61"/>
      <use x="159.802734" xlink:href="#DejaVuSans-63"/>
      <use x="214.783203" xlink:href="#DejaVuSans-74"/>
      <use x="253.992188" xlink:href="#DejaVuSans-69"/>
      <use x="281.775391" xlink:href="#DejaVuSans-6f"/>
      <use x="342.957031" xlink:href="#DejaVuSans-6e"/>
      <use x="406.335938" xlink:href="#DejaVuSans-20"/>
      <use x="438.123047" xlink:href="#DejaVuSans-6f"/>
      <use x="499.304688" xlink:href="#DejaVuSans-66"/>
      <use x="534.509766" xlink:href="#DejaVuSans-20"/>
      <use x="566.296875" xlink:href="#DejaVuSans-66"/>
      <use x="601.501953" xlink:href="#DejaVuSans-75"/>
      <use x="664.880859" xlink:href="#DejaVuSans-6e"/>
      <use x="728.259766" xlink:href="#DejaVuSans-63"/>
      <use x="783.240234" xlink:href="#DejaVuSans-74"/>
      <use x="822.449219" xlink:href="#DejaVuSans-69"/>
      <use x="850.232422" xlink:href="#DejaVuSans-6f"/>
      <use x="911.414062" xlink:href="#DejaVuSans-6e"/>
      <use x="974.792969" xlink:href="#DejaVuSans-2c"/>
      <use x="1006.580078" xlink:href="#DejaVuSans-74"/>
      <use x="1045.789062" xlink:href="#DejaVuSans-61"/>
      <use x="1107.068359" xlink:href="#DejaVuSans-72"/>
      <use x="1148.166016" xlink:href="#DejaVuSans-67"/>
      <use x="1211.642578" xlink:href="#DejaVuSans-65"/>
      <use x="1273.166016" xlink:href="#DejaVuSans-74"/>
      <use x="1312.375" xlink:href="#DejaVuSans-20"/>
      <use x="1344.162109" xlink:href="#DejaVuSans-70"/>
      <use x="1407.638672" xlink:href="#DejaVuSans-61"/>
      <use x="1468.917969" xlink:href="#DejaVuSans-69"/>
      <use x="1496.701172" xlink:href="#DejaVuSans-72"/>
      <use x="1537.814453" xlink:href="#DejaVuSans-73"/>
     </g>
    </g>
   </g>
   <g id="line2d_26">
    <defs>
     <path d="M 0 1.5 
C 0.397805 1.5 0.77937 1.341951 1.06066 1.06066 
C 1.341951 0.77937 1.5 0.397805 1.5 0 
C 1.5 -0.397805 1.341951 -0.77937 1.06066 -1.06066 
C 0.77937 -1.341951 0.397805 -1.5 0 -1.5 
C -0.397805 -1.5 -0.77937 -1.341951 -1.06066 -1.06066 
C -1.341951 -0.77937 -1.5 -0.397805 -1.5 0 
C -1.5 0.397805 -1.341951 0.77937 -1.06066 1.06066 
C -0.77937 1.341951 -0.397805 1.5 0 1.5 
z
" id="m7a712ff6fc" style="stroke:#f5deb3;"/>
    </defs>
    <g>
     <use style="fill:#f5deb3;stroke:#f5deb3;" x="293.682993" xlink:href="#m7a712ff6fc" y="188.346142"/>
     <use style="fill:#f5deb3;stroke:#f5deb3;" x="293.682993" xlink:href="#m7a712ff6fc" y="188.346142"/>
    </g>
   </g>
   <g id="line2d_27">
    <g>
     <use style="fill:#f5deb3;stroke:#f5deb3;stroke-linejoin:miter;stroke-width:1.5;" x="182.399673" xlink:href="#m32e606cfb7" y="250.627474"/>
     <use style="fill:#f5deb3;stroke:#f5deb3;stroke-linejoin:miter;stroke-width:1.5;" x="261.372393" xlink:href="#m32e606cfb7" y="227.68172"/>
     <use style="fill:#f5deb3;stroke:#f5deb3;stroke-linejoin:miter;stroke-width:1.5;" x="293.682993" xlink:href="#m32e606cfb7" y="188.346142"/>
     <use style="fill:#f5deb3;stroke:#f5deb3;stroke-linejoin:miter;stroke-width:1.5;" x="293.682993" xlink:href="#m32e606cfb7" y="188.346142"/>
     <use style="fill:#f5deb3;stroke:#f5deb3;stroke-linejoin:miter;stroke-width:1.5;" x="333.429677" xlink:href="#m32e606cfb7" y="188.346142"/>
    </g>
   </g>
   <g id="line2d_28">
    <defs>
     <path d="M 0 1.5 
C 0.397805 1.5 0.77937 1.341951 1.06066 1.06066 
C 1.341951 0.77937 1.5 0.397805 1.5 0 
C 1.5 -0.397805 1.341951 -0.77937 1.06066 -1.06066 
C 0.77937 -1.341951 0.397805 -1.5 0 -1.5 
C -0.397805 -1.5 -0.77937 -1.341951 -1.06066 -1.06066 
C -1.341951 -0.77937 -1.5 -0.397805 -1.5 0 
C -1.5 0.397805 -1.341951 0.77937 -1.06066 1.06066 
C -0.77937 1.341951 -0.397805 1.5 0 1.5 
z
" id="m79f4984ae9" style="stroke:#999999;"/>
    </defs>
    <g>
     <use style="fill:#999999;stroke:#999999;" x="303.41978" xlink:href="#m79f4984ae9" y="258.822387"/>
     <use style="fill:#999999;stroke:#999999;" x="303.41978" xlink:href="#m79f4984ae9" y="258.822387"/>
    </g>
   </g>
   <g id="line2d_29">
    <path d="M -1 286.357291 
L 101.949461 286.357291 
L 101.949461 285.701698 
L 102.4807 285.701698 
L 102.4807 285.5378 
L 105.166024 285.5378 
L 105.166024 285.210004 
L 107.896128 285.210004 
L 107.896128 284.882207 
L 109.744868 284.882207 
L 109.744868 284.554411 
L 109.877725 284.554411 
L 109.877725 284.390512 
L 111.257757 284.390512 
L 111.257757 284.226614 
L 111.551865 284.226614 
L 111.620342 283.898818 
L 111.841029 283.898818 
L 111.841029 283.734919 
L 112.025578 283.734919 
L 112.025578 283.571021 
L 112.599948 283.571021 
L 112.599948 283.407123 
L 113.280321 283.407123 
L 113.388576 282.915428 
L 113.557328 282.915428 
L 113.557328 282.587632 
L 114.362556 282.587632 
L 114.362556 282.423734 
L 114.92153 282.423734 
L 114.92153 282.259835 
L 115.215159 282.259835 
L 115.215159 282.095937 
L 115.558307 282.095937 
L 115.558307 281.768141 
L 116.080315 281.768141 
L 116.185464 281.276446 
L 116.224729 281.276446 
L 116.289973 280.948649 
L 116.445557 280.948649 
L 116.445557 280.784751 
L 117.338374 280.784751 
L 117.44831 280.129158 
L 118.25698 280.129158 
L 118.25698 279.801362 
L 120.188935 279.801362 
L 120.188935 279.637463 
L 120.333689 279.637463 
L 120.333689 279.145769 
L 121.401541 279.145769 
L 121.401541 278.817972 
L 122.056592 278.817972 
L 122.056592 278.654074 
L 122.269514 278.654074 
L 122.269514 278.162379 
L 123.579983 278.162379 
L 123.579983 277.998481 
L 124.141927 277.998481 
L 124.141927 277.834583 
L 125.073449 277.834583 
L 125.073449 277.506786 
L 125.398664 277.506786 
L 125.398664 277.342888 
L 126.280774 277.342888 
L 126.280774 277.015092 
L 128.627282 277.015092 
L 128.627282 276.851193 
L 128.873476 276.851193 
L 128.873476 276.359499 
L 129.041877 276.359499 
L 129.072882 275.867804 
L 129.477001 275.867804 
L 129.477001 275.703906 
L 133.954128 275.703906 
L 133.954128 275.540007 
L 134.671387 275.540007 
L 134.671387 275.376109 
L 135.666718 275.376109 
L 135.666718 275.048313 
L 140.628914 275.048313 
L 140.628914 274.556618 
L 146.522902 274.556618 
L 146.522902 274.228821 
L 147.941285 274.228821 
L 147.941285 274.064923 
L 153.972396 274.064923 
L 153.972396 273.737127 
L 155.004629 273.737127 
L 155.004629 273.573228 
L 160.618797 273.573228 
L 160.618797 273.40933 
L 161.893461 273.40933 
L 161.893461 273.245432 
L 164.998984 273.245432 
L 164.998984 272.917635 
L 165.723602 272.917635 
L 165.723602 272.589839 
L 167.614895 272.589839 
L 167.614895 272.262042 
L 169.055108 272.262042 
L 169.137997 271.770348 
L 171.614467 271.770348 
L 171.614467 271.606449 
L 178.534949 271.606449 
L 178.534949 271.278653 
L 180.972423 271.278653 
L 180.972423 270.786958 
L 181.801894 270.786958 
L 181.801894 270.459162 
L 182.107356 270.459162 
L 182.107356 270.295264 
L 182.382352 270.295264 
L 182.382352 270.131365 
L 187.085834 270.131365 
L 187.085834 269.967467 
L 190.628124 269.967467 
L 190.628124 269.639671 
L 193.115591 269.639671 
L 193.115591 269.475772 
L 194.261393 269.475772 
L 194.261393 269.311874 
L 194.730698 269.311874 
L 194.730698 268.984078 
L 198.749596 268.984078 
L 198.749596 268.820179 
L 198.861616 268.820179 
L 198.861616 268.328485 
L 206.122314 268.328485 
L 206.122314 268.000688 
L 210.020278 268.000688 
L 210.020278 267.672892 
L 213.150394 267.672892 
L 213.150394 267.181197 
L 215.284569 267.181197 
L 215.284569 266.8534 
L 215.907016 266.8534 
L 215.907016 266.689502 
L 224.412471 266.689502 
L 224.412471 266.525604 
L 224.93796 266.525604 
L 225.044925 266.197807 
L 233.512271 266.197807 
L 233.512271 266.033909 
L 239.444152 266.033909 
L 239.444152 265.542215 
L 241.459214 265.542215 
L 241.459214 265.378316 
L 254.206249 265.378316 
L 254.313468 265.05052 
L 254.461522 265.05052 
L 254.461522 264.886622 
L 254.590799 264.886622 
L 254.590807 264.558825 
L 255.321408 264.558825 
L 255.321561 264.06713 
L 255.470278 264.06713 
L 255.470278 263.903232 
L 257.003488 263.903232 
L 257.083487 263.411537 
L 260.818259 263.411537 
L 260.907536 263.083741 
L 266.694818 263.083741 
L 266.694818 262.919843 
L 266.851091 262.919843 
L 266.851108 262.592046 
L 267.626946 262.592046 
L 267.627092 261.936453 
L 268.532453 261.936453 
L 268.532453 261.772555 
L 269.803653 261.772555 
L 269.803653 261.608657 
L 273.482637 261.608657 
L 273.482637 261.444758 
L 274.086788 261.444758 
L 274.086826 261.116962 
L 278.337366 261.116962 
L 278.337366 260.953064 
L 279.987646 260.953064 
L 279.987646 260.789165 
L 282.183325 260.789165 
L 282.183325 260.625267 
L 282.505791 260.625267 
L 282.505791 260.461369 
L 283.45621 260.461369 
L 283.45621 260.297471 
L 285.218041 260.297471 
L 285.218041 260.133572 
L 287.84282 260.133572 
L 287.842829 259.805776 
L 288.811772 259.805776 
L 288.811814 259.314081 
L 293.930059 259.314081 
L 293.930059 259.150183 
L 297.04765 259.150183 
L 297.04765 258.986285 
L 303.41978 258.986285 
L 303.41978 258.822387 
L 333.429677 258.822387 
L 333.429677 258.822387 
" style="fill:none;stroke:#999999;stroke-linecap:square;stroke-width:1.5;"/>
   </g>
   <g id="line2d_30"/>
   <g id="line2d_31">
    <path d="M 0 0 
" style="fill:none;stroke:#999999;stroke-linecap:square;stroke-width:1.5;"/>
   </g>
   <g id="line2d_32">
    <path clip-path="url(#pac00b46bfb)" d="M 254.198745 265.378316 
" style="fill:none;stroke:#999999;stroke-linecap:square;stroke-width:1.5;"/>
    <defs>
     <path d="M -12 12 
L 12 -12 
M -12 -12 
L 12 12 
" id="mecc4319587" style="stroke:#999999;stroke-width:3;"/>
    </defs>
    <g clip-path="url(#pac00b46bfb)">
     <use style="fill:#999999;stroke:#999999;stroke-width:3;" x="254.198745" xlink:href="#mecc4319587" y="265.378316"/>
    </g>
   </g>
   <g id="line2d_33">
    <path clip-path="url(#pac00b46bfb)" d="M 56.12 294.88 
L 56.12 294.88 
L 56.12 294.88 
L 56.12 294.88 
L 399.984 294.88 
" style="fill:none;stroke:#999999;stroke-linecap:square;stroke-width:1.5;"/>
   </g>
   <g id="line2d_34"/>
   <g id="line2d_35">
    <path clip-path="url(#pac00b46bfb)" d="M 0 0 
" style="fill:none;stroke:#999999;stroke-linecap:square;stroke-width:1.5;"/>
   </g>
   <g id="line2d_36">
    <g>
     <use style="fill:#999999;stroke:#999999;" x="296.951914" xlink:href="#m79f4984ae9" y="265.378316"/>
     <use style="fill:#999999;stroke:#999999;" x="296.951914" xlink:href="#m79f4984ae9" y="265.378316"/>
    </g>
   </g>
   <g id="line2d_37">
    <path d="M -1 292.421526 
L 4.578827 292.421526 
L 4.578827 290.618646 
L 11.5548 290.618646 
L 11.5548 290.126951 
L 16.504332 290.126951 
L 16.504332 289.799154 
L 20.343487 289.799154 
L 20.343487 289.143561 
L 32.268991 289.143561 
L 32.268991 288.651867 
L 33.90879 288.651867 
L 33.90879 288.160172 
L 35.405809 288.160172 
L 35.405809 287.996274 
L 36.782933 287.996274 
L 36.782933 287.340681 
L 38.057951 287.340681 
L 38.057951 287.176783 
L 43.312001 287.176783 
L 43.312001 286.848986 
L 44.194496 286.848986 
L 44.194496 286.52119 
L 48.03365 286.52119 
L 48.03365 286.193393 
L 49.357755 286.193393 
L 49.357755 286.029495 
L 54.778682 286.029495 
L 54.778682 285.701698 
L 55.684411 285.701698 
L 55.684411 285.5378 
L 58.524586 285.5378 
L 58.524586 285.373902 
L 60.299856 285.373902 
L 60.299856 285.046105 
L 60.633942 285.046105 
L 60.633942 284.718309 
L 61.90896 284.718309 
L 61.90896 284.390512 
L 73.680159 284.390512 
L 73.680159 284.226614 
L 73.834464 284.226614 
L 73.834464 283.898818 
L 74.289245 283.898818 
L 74.289245 283.571021 
L 77.426063 283.571021 
L 77.426063 283.079327 
L 77.550286 283.079327 
L 77.550286 282.915428 
L 81.99745 282.915428 
L 81.99745 282.587632 
L 87.16071 282.587632 
L 87.16071 281.768141 
L 87.99002 281.768141 
L 87.99002 281.440344 
L 95.692602 281.440344 
L 95.692602 281.276446 
L 97.414525 281.276446 
L 97.414525 281.112548 
L 100.609763 281.112548 
L 100.609763 280.948649 
L 101.585964 280.948649 
L 101.585964 280.784751 
L 103.496364 280.784751 
L 103.496364 280.620853 
L 113.233716 280.620853 
L 113.233716 280.456955 
L 116.067126 280.456955 
L 116.067126 280.129158 
L 120.136941 280.129158 
L 120.136941 279.96526 
L 130.499024 279.96526 
L 130.578676 279.309667 
L 132.895922 279.309667 
L 132.895922 279.145769 
L 133.447579 279.145769 
L 133.447579 278.98187 
L 134.065728 278.98187 
L 134.065728 278.817972 
L 134.568162 278.817972 
L 134.568162 278.654074 
L 135.615966 278.654074 
L 135.615966 278.490176 
L 142.073102 278.490176 
L 142.073102 278.326277 
L 143.335228 278.326277 
L 143.335228 278.162379 
L 172.764716 278.162379 
L 172.764716 277.998481 
L 173.087733 277.998481 
L 173.087733 277.834583 
L 175.420349 277.834583 
L 175.420349 277.342888 
L 176.194058 277.342888 
L 176.194058 277.17899 
L 185.158233 277.17899 
L 185.158233 276.851193 
L 186.48469 276.851193 
L 186.48469 276.687295 
L 187.808166 276.687295 
L 187.808166 276.359499 
L 188.220596 276.359499 
L 188.220596 276.1956 
L 191.17428 276.1956 
L 191.17428 276.031702 
L 199.238545 276.031702 
L 199.238545 275.867804 
L 208.732346 275.867804 
L 208.732346 275.703906 
L 209.276249 275.703906 
L 209.276249 275.212211 
L 209.717867 275.212211 
L 209.717867 274.884414 
L 211.254004 274.884414 
L 211.254004 274.720516 
L 213.690759 274.720516 
L 213.690759 274.556618 
L 220.693167 274.556618 
L 220.693167 274.39272 
L 221.318315 274.39272 
L 221.318315 274.064923 
L 225.538578 274.064923 
L 225.538578 273.901025 
L 228.817743 273.901025 
L 228.817743 273.573228 
L 244.796723 273.573228 
L 244.796723 273.245432 
L 248.753904 273.245432 
L 248.753904 272.917635 
L 254.198397 272.917635 
L 254.282644 271.606449 
L 254.634106 271.606449 
L 254.634106 271.278653 
L 255.38127 271.278653 
L 255.38127 271.114755 
L 255.560783 271.114755 
L 255.560783 270.950857 
L 255.758941 270.950857 
L 255.758941 270.786958 
L 256.492477 270.786958 
L 256.492477 270.62306 
L 257.388011 270.62306 
L 257.388011 270.459162 
L 259.809066 270.459162 
L 259.809066 270.295264 
L 262.057393 270.295264 
L 262.057393 269.803569 
L 263.616094 269.803569 
L 263.616094 269.475772 
L 266.130363 269.475772 
L 266.1573 268.984078 
L 266.744453 268.984078 
L 266.744453 268.820179 
L 267.986895 268.820179 
L 267.986895 268.656281 
L 269.156918 268.656281 
L 269.156918 268.492383 
L 270.498268 268.492383 
L 270.498268 268.164586 
L 273.246303 268.164586 
L 273.246303 267.83679 
L 275.180066 267.83679 
L 275.180066 267.672892 
L 278.052609 267.672892 
L 278.052609 267.508993 
L 278.903895 267.508993 
L 278.903895 267.345095 
L 281.890345 267.345095 
L 281.901894 267.017299 
L 285.098721 267.017299 
L 285.098721 266.8534 
L 285.292637 266.8534 
L 285.292637 266.689502 
L 287.679327 266.689502 
L 287.740397 266.361706 
L 287.906844 266.361706 
L 287.906844 266.197807 
L 290.029932 266.197807 
L 290.029932 266.033909 
L 290.407432 266.033909 
L 290.407432 265.870011 
L 291.474752 265.870011 
L 291.474752 265.706113 
L 296.951594 265.706113 
L 296.951914 265.378316 
L 333.429677 265.378316 
L 333.429677 265.378316 
" style="fill:none;stroke:#999999;stroke-linecap:square;stroke-width:1.5;"/>
   </g>
   <g id="line2d_38"/>
   <g id="line2d_39">
    <path d="M 0 0 
" style="fill:none;stroke:#999999;stroke-linecap:square;stroke-width:1.5;"/>
   </g>
   <g id="line2d_40">
    <path clip-path="url(#pac00b46bfb)" d="M 254.198341 272.917635 
" style="fill:none;stroke:#999999;stroke-linecap:square;stroke-width:1.5;"/>
    <g clip-path="url(#pac00b46bfb)">
     <use style="fill:#999999;stroke:#999999;stroke-width:3;" x="254.198341" xlink:href="#mecc4319587" y="272.917635"/>
    </g>
   </g>
   <g id="line2d_41">
    <g>
     <use style="fill:#999999;stroke:#999999;" x="333.433779" xlink:href="#m79f4984ae9" y="265.378316"/>
     <use style="fill:#999999;stroke:#999999;" x="333.433779" xlink:href="#m79f4984ae9" y="265.378316"/>
    </g>
   </g>
   <g id="line2d_42">
    <path d="M -1 293.732712 
L 4.578827 293.732712 
L 4.578827 292.421526 
L 11.5548 292.421526 
L 11.5548 292.257628 
L 20.343487 292.257628 
L 20.343487 291.929832 
L 26.132446 291.929832 
L 26.132446 291.765933 
L 32.268991 291.765933 
L 32.268991 291.438137 
L 35.405809 291.438137 
L 35.405809 291.11034 
L 40.355341 291.11034 
L 40.355341 290.782544 
L 45.033924 290.782544 
L 45.033924 290.618646 
L 53.82261 290.618646 
L 53.82261 290.454747 
L 55.237506 290.454747 
L 55.237506 290.126951 
L 55.684411 290.126951 
L 55.684411 289.635256 
L 58.524586 289.635256 
L 58.524586 289.143561 
L 60.633942 289.143561 
L 60.633942 288.979663 
L 67.16301 288.979663 
L 67.16301 288.32407 
L 69.289772 288.32407 
L 69.289772 288.160172 
L 69.488674 288.160172 
L 69.488674 287.832376 
L 75.996913 287.832376 
L 75.996913 287.504579 
L 76.920001 287.504579 
L 76.920001 287.012884 
L 77.300936 287.012884 
L 77.300936 286.848986 
L 78.974951 286.848986 
L 78.974951 286.52119 
L 79.645355 286.52119 
L 79.645355 286.357291 
L 98.363214 286.357291 
L 98.47362 285.701698 
L 99.015266 285.701698 
L 99.015266 285.5378 
L 99.574823 285.5378 
L 99.574823 285.373902 
L 104.738082 285.373902 
L 104.738082 285.210004 
L 106.03857 285.210004 
L 106.03857 285.046105 
L 107.003582 285.046105 
L 107.003582 284.882207 
L 107.917329 284.882207 
L 107.917329 284.718309 
L 108.211437 284.718309 
L 108.211437 284.390512 
L 114.565309 284.390512 
L 114.565309 284.062716 
L 115.908066 284.062716 
L 115.908066 283.734919 
L 118.96257 283.734919 
L 118.96257 283.079327 
L 120.199315 283.079327 
L 120.199315 282.915428 
L 126.627048 282.915428 
L 126.627048 282.75153 
L 128.582718 282.75153 
L 128.582718 282.423734 
L 132.057237 282.423734 
L 132.057237 282.259835 
L 134.139727 282.259835 
L 134.139727 282.095937 
L 140.751908 282.095937 
L 140.751908 281.932039 
L 142.924721 281.932039 
L 142.924721 281.440344 
L 148.81664 281.440344 
L 148.81664 281.276446 
L 151.924263 281.276446 
L 151.924263 281.112548 
L 154.014605 281.112548 
L 154.014605 280.784751 
L 154.140617 280.784751 
L 154.140617 280.620853 
L 155.316081 280.620853 
L 155.316081 280.456955 
L 161.056837 280.456955 
L 161.056837 280.293056 
L 164.579332 280.293056 
L 164.579332 280.129158 
L 173.602887 280.129158 
L 173.602887 279.96526 
L 175.424957 279.96526 
L 175.424957 279.801362 
L 179.902874 279.801362 
L 179.902874 279.637463 
L 185.123231 279.637463 
L 185.123231 279.145769 
L 188.267317 279.145769 
L 188.267317 278.98187 
L 193.101655 278.98187 
L 193.101655 278.490176 
L 193.621113 278.490176 
L 193.621113 278.326277 
L 196.40484 278.326277 
L 196.40484 278.162379 
L 201.805977 278.162379 
L 201.805977 277.998481 
L 206.339737 277.998481 
L 206.339737 277.834583 
L 217.10887 277.834583 
L 217.10887 277.670684 
L 217.838259 277.670684 
L 217.838259 277.342888 
L 222.124649 277.342888 
L 222.124649 277.015092 
L 225.47498 277.015092 
L 225.47498 276.851193 
L 234.823063 276.851193 
L 234.823063 276.523397 
L 236.221515 276.523397 
L 236.221515 276.359499 
L 238.146865 276.359499 
L 238.146865 276.031702 
L 245.458483 276.031702 
L 245.458483 275.867804 
L 247.83793 275.867804 
L 247.83793 275.540007 
L 254.503889 275.540007 
L 254.503889 275.376109 
L 267.814887 275.376109 
L 267.847771 275.048313 
L 268.074464 275.048313 
L 268.074464 274.884414 
L 275.767366 274.884414 
L 275.767366 274.556618 
L 277.69904 274.556618 
L 277.69904 274.228821 
L 286.694158 274.228821 
L 286.694158 274.064923 
L 288.332903 274.064923 
L 288.332903 273.737127 
L 292.786886 273.737127 
L 292.786886 273.573228 
L 293.198377 273.573228 
L 293.198377 273.245432 
L 293.814089 273.245432 
L 293.873719 271.934246 
L 294.250776 271.934246 
L 294.323199 271.606449 
L 294.363072 271.606449 
L 294.40877 270.950857 
L 295.48181 270.950857 
L 295.48181 270.786958 
L 298.372167 270.786958 
L 298.372167 270.459162 
L 299.503606 270.459162 
L 299.503606 270.131365 
L 302.545289 270.131365 
L 302.545289 269.967467 
L 303.166664 269.967467 
L 303.166664 269.803569 
L 305.740224 269.803569 
L 305.743346 269.475772 
L 305.995992 269.475772 
L 306.016235 269.147976 
L 308.069013 269.147976 
L 308.069013 268.984078 
L 310.413791 268.984078 
L 310.413791 268.820179 
L 312.916033 268.820179 
L 312.916033 268.492383 
L 313.289573 268.492383 
L 313.289573 268.328485 
L 314.61562 268.328485 
L 314.61562 268.164586 
L 314.828057 268.164586 
L 314.828057 268.000688 
L 315.968252 268.000688 
L 315.968252 267.83679 
L 316.141929 267.83679 
L 316.141929 267.672892 
L 317.665038 267.672892 
L 317.666934 267.345095 
L 317.793735 267.345095 
L 317.793735 267.181197 
L 318.922665 267.181197 
L 318.922665 267.017299 
L 319.109428 267.017299 
L 319.109428 266.8534 
L 321.504189 266.8534 
L 321.607224 266.361706 
L 324.647826 266.361706 
L 324.733727 266.033909 
L 325.489552 266.033909 
L 325.489552 265.870011 
L 327.295403 265.870011 
L 327.298992 265.542215 
L 333.429677 265.542215 
L 333.429677 265.542215 
" style="fill:none;stroke:#999999;stroke-linecap:square;stroke-width:1.5;"/>
   </g>
   <g id="line2d_43"/>
   <g id="line2d_44">
    <path d="M 0 0 
" style="fill:none;stroke:#999999;stroke-linecap:square;stroke-width:1.5;"/>
   </g>
   <g id="line2d_45">
    <path clip-path="url(#pac00b46bfb)" d="M 293.814009 273.245432 
" style="fill:none;stroke:#999999;stroke-linecap:square;stroke-width:1.5;"/>
    <g clip-path="url(#pac00b46bfb)">
     <use style="fill:#999999;stroke:#999999;stroke-width:3;" x="293.814009" xlink:href="#mecc4319587" y="273.245432"/>
    </g>
   </g>
   <g id="line2d_46">
    <g>
     <use style="fill:#999999;stroke:#999999;" x="321.901632" xlink:href="#m79f4984ae9" y="186.70716"/>
     <use style="fill:#999999;stroke:#999999;" x="321.901632" xlink:href="#m79f4984ae9" y="186.70716"/>
    </g>
   </g>
   <g id="line2d_47">
    <path d="M 136.162066 294.88 
L 136.162066 294.716102 
L 136.719194 294.716102 
L 136.754909 293.568814 
L 137.057481 293.568814 
L 137.162329 293.077119 
L 137.381601 293.077119 
L 137.381601 292.749323 
L 137.526244 292.749323 
L 137.526244 292.585425 
L 138.089288 292.585425 
L 138.089288 292.257628 
L 138.209922 292.257628 
L 138.257213 291.765933 
L 138.694801 291.765933 
L 138.701882 291.274239 
L 138.926969 291.274239 
L 138.926969 291.11034 
L 139.156047 291.11034 
L 139.224867 290.290849 
L 139.310506 290.290849 
L 139.395721 289.635256 
L 139.987264 289.635256 
L 140.082274 289.143561 
L 140.176761 289.143561 
L 140.199491 288.651867 
L 140.319138 288.651867 
L 140.370621 288.32407 
L 140.565498 288.32407 
L 140.600406 287.668477 
L 140.877149 287.668477 
L 140.877149 287.504579 
L 141.23833 287.504579 
L 141.247492 286.357291 
L 141.465931 286.357291 
L 141.499061 285.701698 
L 141.583104 285.701698 
L 141.583104 285.210004 
L 141.785517 285.210004 
L 141.785517 285.046105 
L 141.900541 285.046105 
L 141.900541 284.882207 
L 142.139906 284.882207 
L 142.139906 284.554411 
L 142.404558 284.554411 
L 142.461556 283.898818 
L 142.676443 283.898818 
L 142.712932 283.407123 
L 142.941331 283.407123 
L 142.993823 282.587632 
L 143.169468 282.587632 
L 143.213101 282.095937 
L 143.313579 282.095937 
L 143.343339 281.440344 
L 143.515469 281.440344 
L 143.555565 280.948649 
L 143.75729 280.948649 
L 143.836272 280.456955 
L 143.912278 280.456955 
L 143.985346 280.129158 
L 144.295027 280.129158 
L 144.297584 279.473565 
L 144.521159 279.473565 
L 144.619322 278.98187 
L 144.779205 278.98187 
L 144.866017 278.162379 
L 145.053029 278.162379 
L 145.082372 277.342888 
L 145.538045 277.342888 
L 145.592682 276.851193 
L 145.668412 276.851193 
L 145.668412 276.687295 
L 146.187098 276.687295 
L 146.267105 275.703906 
L 146.484661 275.703906 
L 146.484661 275.540007 
L 146.628185 275.540007 
L 146.670565 275.048313 
L 147.326234 275.048313 
L 147.336953 274.228821 
L 147.475694 274.228821 
L 147.475694 274.064923 
L 147.726833 274.064923 
L 147.810433 273.40933 
L 147.904001 273.40933 
L 147.930937 273.081534 
L 148.038261 273.081534 
L 148.038261 272.917635 
L 148.41475 272.917635 
L 148.41475 272.753737 
L 148.577033 272.753737 
L 148.585007 272.262042 
L 148.763462 272.262042 
L 148.763462 272.098144 
L 149.243919 272.098144 
L 149.243919 271.770348 
L 149.425195 271.770348 
L 149.500954 270.950857 
L 149.685166 270.950857 
L 149.754206 270.62306 
L 149.874825 270.62306 
L 149.874825 270.131365 
L 150.160907 270.131365 
L 150.160907 269.967467 
L 150.632696 269.967467 
L 150.632696 269.803569 
L 150.780696 269.803569 
L 150.780696 269.639671 
L 150.903064 269.639671 
L 150.903064 269.475772 
L 151.017647 269.475772 
L 151.017647 269.147976 
L 151.234302 269.147976 
L 151.294002 268.820179 
L 151.591111 268.820179 
L 151.591111 268.656281 
L 152.535418 268.656281 
L 152.54017 268.000688 
L 152.653828 268.000688 
L 152.708808 267.345095 
L 152.85405 267.345095 
L 152.868041 267.017299 
L 152.967205 267.017299 
L 152.967205 266.8534 
L 153.435093 266.8534 
L 153.468139 266.197807 
L 153.602669 266.197807 
L 153.604158 265.214418 
L 153.83633 265.214418 
L 153.83633 264.886622 
L 153.966565 264.886622 
L 153.966565 264.558825 
L 154.195368 264.558825 
L 154.195368 264.394927 
L 154.974409 264.394927 
L 154.974409 264.231029 
L 155.546358 264.231029 
L 155.546358 264.06713 
L 155.995274 264.06713 
L 155.995274 263.739334 
L 156.562386 263.739334 
L 156.562386 263.575436 
L 156.689784 263.575436 
L 156.689784 263.411537 
L 156.941784 263.411537 
L 156.941784 263.083741 
L 157.364523 263.083741 
L 157.364523 262.919843 
L 157.48495 262.919843 
L 157.48495 262.592046 
L 157.981504 262.592046 
L 157.981504 262.100351 
L 158.130922 262.100351 
L 158.169788 261.444758 
L 158.252939 261.444758 
L 158.322115 260.461369 
L 158.936858 260.461369 
L 158.936858 260.297471 
L 159.34477 260.297471 
L 159.34477 260.133572 
L 159.510335 260.133572 
L 159.510335 259.969674 
L 160.369418 259.969674 
L 160.438608 259.47798 
L 160.941566 259.47798 
L 160.941566 259.150183 
L 162.586489 259.150183 
L 162.606793 258.822387 
L 162.800675 258.822387 
L 162.850328 258.49459 
L 163.204175 258.49459 
L 163.304436 257.838997 
L 163.394848 257.838997 
L 163.394848 257.511201 
L 163.811971 257.511201 
L 163.916121 256.691709 
L 164.0732 256.691709 
L 164.117702 256.363913 
L 165.469259 256.363913 
L 165.469259 255.70832 
L 167.578587 255.70832 
L 167.578587 255.380523 
L 167.731222 255.380523 
L 167.731222 255.052727 
L 169.066021 255.052727 
L 169.066021 254.888829 
L 169.2397 254.888829 
L 169.297803 253.741541 
L 169.612443 253.741541 
L 169.612443 253.577643 
L 170.08844 253.577643 
L 170.08844 253.413745 
L 170.499282 253.413745 
L 170.499282 252.758152 
L 171.396185 252.758152 
L 171.446926 252.430355 
L 172.579422 252.430355 
L 172.579422 252.266457 
L 173.517 252.266457 
L 173.517 252.102559 
L 173.743854 252.102559 
L 173.743854 251.774762 
L 174.019644 251.774762 
L 174.019644 251.446966 
L 174.558304 251.446966 
L 174.558304 251.283067 
L 175.259566 251.283067 
L 175.259566 250.955271 
L 176.869123 250.955271 
L 176.869123 250.463576 
L 178.561844 250.463576 
L 178.561844 250.13578 
L 179.520274 250.13578 
L 179.528525 248.988492 
L 179.83948 248.988492 
L 179.83948 248.332899 
L 180.002667 248.332899 
L 180.002667 248.169001 
L 180.587394 248.169001 
L 180.631394 247.513408 
L 181.025132 247.513408 
L 181.025132 247.021713 
L 181.624044 247.021713 
L 181.624044 246.693917 
L 181.924042 246.693917 
L 181.994801 246.038324 
L 182.089738 246.038324 
L 182.089738 245.874425 
L 183.14692 245.874425 
L 183.14692 245.710527 
L 183.42539 245.710527 
L 183.42539 245.546629 
L 183.563214 245.546629 
L 183.563214 245.218832 
L 184.070819 245.218832 
L 184.070819 244.891036 
L 184.38791 244.891036 
L 184.38791 244.563239 
L 184.627287 244.563239 
L 184.679462 243.415952 
L 185.963771 243.415952 
L 185.963771 243.252053 
L 186.346943 243.252053 
L 186.346943 243.088155 
L 186.954764 243.088155 
L 186.954764 242.924257 
L 187.14697 242.924257 
L 187.14697 242.59646 
L 187.961437 242.59646 
L 187.961437 242.432562 
L 188.17215 242.432562 
L 188.17215 242.104766 
L 188.31609 242.104766 
L 188.373409 241.776969 
L 189.263775 241.776969 
L 189.263775 241.613071 
L 189.517655 241.613071 
L 189.517655 241.285275 
L 190.158594 241.285275 
L 190.158594 240.629682 
L 190.678419 240.629682 
L 190.678419 240.301885 
L 191.222504 240.301885 
L 191.222504 240.137987 
L 191.489298 240.137987 
L 191.489298 239.974089 
L 192.324006 239.974089 
L 192.324006 239.646292 
L 192.522513 239.646292 
L 192.522513 239.154597 
L 192.816579 239.154597 
L 192.816579 238.499004 
L 193.399922 238.499004 
L 193.399922 238.00731 
L 194.563385 238.00731 
L 194.563385 237.843411 
L 195.90779 237.843411 
L 195.90779 237.515615 
L 198.003299 237.515615 
L 198.003299 237.187818 
L 198.327524 237.187818 
L 198.327524 237.02392 
L 198.807042 237.02392 
L 198.902218 236.204429 
L 199.021011 236.204429 
L 199.021011 235.712734 
L 199.292083 235.712734 
L 199.400013 234.729345 
L 199.480492 234.729345 
L 199.575318 234.23765 
L 199.959948 234.23765 
L 199.959948 234.073752 
L 201.423393 234.073752 
L 201.423393 233.909854 
L 201.79992 233.909854 
L 201.864718 233.254261 
L 202.6316 233.254261 
L 202.733731 232.762566 
L 203.314576 232.762566 
L 203.314576 232.434769 
L 205.875231 232.434769 
L 205.875231 231.779176 
L 207.273834 231.779176 
L 207.273834 231.615278 
L 207.83616 231.615278 
L 207.83616 231.287482 
L 208.066976 231.287482 
L 208.066976 231.123583 
L 208.62906 231.123583 
L 208.62906 230.959685 
L 210.135849 230.959685 
L 210.135849 230.795787 
L 212.338928 230.795787 
L 212.338928 230.631889 
L 213.177812 230.631889 
L 213.177812 230.46799 
L 214.305169 230.46799 
L 214.305169 230.140194 
L 215.933321 230.140194 
L 215.933321 229.976296 
L 218.643948 229.976296 
L 218.643948 229.648499 
L 219.630817 229.648499 
L 219.630817 229.484601 
L 223.561877 229.484601 
L 223.561877 229.156805 
L 224.488264 229.156805 
L 224.488264 228.829008 
L 225.477675 228.829008 
L 225.477675 228.66511 
L 226.34408 228.66511 
L 226.363436 227.845619 
L 226.650559 227.845619 
L 226.650559 227.353924 
L 229.257204 227.353924 
L 229.257204 226.862229 
L 231.479105 226.862229 
L 231.479105 226.370534 
L 233.305355 226.370534 
L 233.305355 226.206636 
L 233.531241 226.206636 
L 233.531241 225.87884 
L 234.271133 225.87884 
L 234.271133 225.551043 
L 234.399848 225.551043 
L 234.399848 225.223247 
L 236.687901 225.223247 
L 236.687901 225.059348 
L 240.577223 225.059348 
L 240.577223 224.89545 
L 244.037247 224.89545 
L 244.049688 223.748163 
L 245.661573 223.748163 
L 245.66721 223.256468 
L 246.000141 223.256468 
L 246.000141 222.928671 
L 247.601018 222.928671 
L 247.601018 222.600875 
L 248.156164 222.600875 
L 248.156164 222.436977 
L 249.328906 222.436977 
L 249.328906 222.273078 
L 252.840987 222.273078 
L 252.840987 222.10918 
L 253.213213 222.10918 
L 253.213213 221.781384 
L 254.140155 221.781384 
L 254.140155 221.617485 
L 254.332466 221.617485 
L 254.427359 220.634096 
L 254.487938 220.634096 
L 254.594561 219.32291 
L 254.609422 219.32291 
L 254.663818 218.831215 
L 254.722649 218.831215 
L 254.769842 218.011724 
L 254.876374 218.011724 
L 254.876374 217.847826 
L 254.997902 217.847826 
L 255.00085 217.520029 
L 255.323149 217.520029 
L 255.323149 217.028335 
L 255.478162 217.028335 
L 255.478162 216.864436 
L 255.695595 216.864436 
L 255.715061 216.208843 
L 255.813096 216.208843 
L 255.813096 216.044945 
L 255.965402 216.044945 
L 255.965402 215.717149 
L 256.249604 215.717149 
L 256.249604 215.55325 
L 256.877829 215.55325 
L 256.877829 215.225454 
L 257.014549 215.225454 
L 257.014549 214.897657 
L 257.307918 214.897657 
L 257.358971 214.405963 
L 257.461928 214.405963 
L 257.461928 214.242064 
L 257.85205 214.242064 
L 257.85205 214.078166 
L 258.269885 214.078166 
L 258.269885 213.914268 
L 258.671187 213.914268 
L 258.671187 213.75037 
L 258.897116 213.75037 
L 258.927965 212.930878 
L 259.506317 212.930878 
L 259.506317 212.603082 
L 260.641657 212.603082 
L 260.641657 211.783591 
L 261.782779 211.783591 
L 261.782779 211.619693 
L 262.379593 211.619693 
L 262.381726 211.127998 
L 262.508505 211.127998 
L 262.508505 210.9641 
L 262.674554 210.9641 
L 262.674554 210.800201 
L 263.366649 210.800201 
L 263.366649 210.636303 
L 265.458551 210.636303 
L 265.458551 210.472405 
L 265.638331 210.472405 
L 265.638331 210.308507 
L 266.205069 210.308507 
L 266.309728 209.161219 
L 266.353428 209.161219 
L 266.411969 208.669524 
L 266.473969 208.669524 
L 266.473969 208.505626 
L 266.898914 208.505626 
L 266.898914 208.341728 
L 267.5157 208.341728 
L 267.589507 207.850033 
L 267.776637 207.850033 
L 267.776637 207.686135 
L 268.279779 207.686135 
L 268.364794 207.358338 
L 268.981726 207.358338 
L 268.981726 206.866644 
L 269.645389 206.866644 
L 269.645389 206.702745 
L 270.696251 206.702745 
L 270.775863 206.374949 
L 270.878747 206.374949 
L 270.878747 206.047152 
L 272.659159 206.047152 
L 272.659159 205.719356 
L 273.196893 205.719356 
L 273.224375 205.227661 
L 273.488101 205.227661 
L 273.537089 204.899865 
L 273.620391 204.899865 
L 273.620391 204.735966 
L 274.040118 204.735966 
L 274.040118 204.40817 
L 274.199985 204.40817 
L 274.257843 203.752577 
L 274.812667 203.752577 
L 274.812667 203.588679 
L 275.056807 203.588679 
L 275.056807 203.260882 
L 276.955022 203.260882 
L 276.955022 203.096984 
L 277.719918 203.096984 
L 277.719918 202.769187 
L 278.122207 202.769187 
L 278.22138 201.785798 
L 278.797783 201.785798 
L 278.797783 201.6219 
L 278.925093 201.6219 
L 278.925093 201.294103 
L 279.349707 201.294103 
L 279.349707 201.130205 
L 279.900065 201.130205 
L 279.900065 200.966307 
L 280.756097 200.966307 
L 280.756097 200.802409 
L 281.625466 200.802409 
L 281.625466 200.63851 
L 282.004334 200.63851 
L 282.004334 200.474612 
L 282.458828 200.474612 
L 282.458828 199.655121 
L 282.592629 199.655121 
L 282.68396 199.327324 
L 283.38088 199.327324 
L 283.384661 198.671731 
L 283.86609 198.671731 
L 283.86609 198.343935 
L 284.303559 198.343935 
L 284.303559 198.180037 
L 284.806404 198.180037 
L 284.806404 197.524444 
L 285.05244 197.524444 
L 285.121901 197.196647 
L 285.245347 197.196647 
L 285.245347 197.032749 
L 285.501895 197.032749 
L 285.501895 196.868851 
L 286.031627 196.868851 
L 286.031627 196.704952 
L 287.060682 196.704952 
L 287.060682 196.541054 
L 287.720503 196.541054 
L 287.720503 196.377156 
L 288.086758 196.377156 
L 288.183334 196.049359 
L 289.112834 196.049359 
L 289.112834 195.885461 
L 289.43639 195.885461 
L 289.43639 195.721563 
L 289.810927 195.721563 
L 289.810927 195.557665 
L 290.140136 195.557665 
L 290.140136 195.393766 
L 290.735047 195.393766 
L 290.735047 195.229868 
L 290.925085 195.229868 
L 290.925085 195.06597 
L 291.237216 195.06597 
L 291.237216 194.902072 
L 291.381403 194.902072 
L 291.381403 194.574275 
L 291.5235 194.574275 
L 291.5235 194.410377 
L 292.678662 194.410377 
L 292.678662 194.246479 
L 292.8485 194.246479 
L 292.8485 194.082581 
L 293.127883 194.082581 
L 293.149177 193.754784 
L 293.384594 193.754784 
L 293.384594 193.590886 
L 294.424826 193.590886 
L 294.424826 193.426988 
L 294.578346 193.426988 
L 294.578346 193.263089 
L 294.8312 193.263089 
L 294.8312 193.099191 
L 294.948297 193.099191 
L 294.948297 192.935293 
L 295.715392 192.935293 
L 295.715392 192.771395 
L 296.841716 192.771395 
L 296.841716 192.607496 
L 297.190764 192.607496 
L 297.247722 192.2797 
L 297.461336 192.2797 
L 297.461336 192.115802 
L 297.590109 192.115802 
L 297.590109 191.951903 
L 297.901185 191.951903 
L 297.901185 191.624107 
L 298.227258 191.624107 
L 298.227258 191.460209 
L 298.602189 191.460209 
L 298.602189 191.29631 
L 298.799723 191.29631 
L 298.799723 191.132412 
L 299.297342 191.132412 
L 299.297342 190.968514 
L 299.509488 190.968514 
L 299.509488 190.804616 
L 300.152367 190.804616 
L 300.152367 190.640717 
L 301.199593 190.640717 
L 301.199593 190.476819 
L 301.81859 190.476819 
L 301.81859 190.312921 
L 302.6921 190.312921 
L 302.6921 190.149023 
L 303.305322 190.149023 
L 303.305322 189.821226 
L 304.566168 189.821226 
L 304.566168 189.657328 
L 304.788188 189.657328 
L 304.788188 189.49343 
L 305.67413 189.49343 
L 305.67413 189.329531 
L 306.516677 189.329531 
L 306.516677 189.165633 
L 306.716458 189.165633 
L 306.716458 189.001735 
L 306.872513 189.001735 
L 306.947149 188.673939 
L 308.41234 188.673939 
L 308.480599 188.346142 
L 308.593763 188.346142 
L 308.593763 188.182244 
L 309.198942 188.182244 
L 309.198942 188.018346 
L 309.526382 188.018346 
L 309.526382 187.854447 
L 309.88849 187.854447 
L 309.88849 187.690549 
L 310.089562 187.690549 
L 310.089562 187.526651 
L 311.331647 187.526651 
L 311.331647 187.362753 
L 311.74912 187.362753 
L 311.805365 187.034956 
L 314.953968 187.034956 
L 314.953968 186.871058 
L 321.901632 186.871058 
L 321.901632 186.70716 
L 333.429677 186.70716 
L 333.429677 186.70716 
" style="fill:none;stroke:#999999;stroke-linecap:square;stroke-width:1.5;"/>
   </g>
   <g id="line2d_48"/>
   <g id="line2d_49">
    <path d="M 0 0 
" style="fill:none;stroke:#999999;stroke-linecap:square;stroke-width:1.5;"/>
   </g>
   <g id="line2d_50">
    <path clip-path="url(#pac00b46bfb)" d="M 254.198341 221.617485 
" style="fill:none;stroke:#999999;stroke-linecap:square;stroke-width:1.5;"/>
    <g clip-path="url(#pac00b46bfb)">
     <use style="fill:#999999;stroke:#999999;stroke-width:3;" x="254.198341" xlink:href="#mecc4319587" y="221.617485"/>
    </g>
   </g>
   <g id="line2d_51">
    <g>
     <use style="fill:#999999;stroke:#999999;" x="323.656067" xlink:href="#m79f4984ae9" y="258.822387"/>
     <use style="fill:#999999;stroke:#999999;" x="323.656067" xlink:href="#m79f4984ae9" y="258.822387"/>
    </g>
   </g>
   <g id="line2d_52">
    <path d="M 167.46122 294.88 
L 167.46122 294.716102 
L 167.599721 294.716102 
L 167.599721 294.552204 
L 167.92337 294.552204 
L 167.92337 294.224407 
L 168.552332 294.224407 
L 168.552332 294.060509 
L 169.148255 294.060509 
L 169.148255 293.896611 
L 169.472129 293.896611 
L 169.472129 293.568814 
L 170.41655 293.568814 
L 170.41655 293.241018 
L 171.384536 293.241018 
L 171.384536 292.913221 
L 171.505935 292.913221 
L 171.505935 292.585425 
L 171.918564 292.585425 
L 171.918564 292.421526 
L 172.223435 292.421526 
L 172.223435 292.257628 
L 172.438508 292.257628 
L 172.438508 292.09373 
L 172.717231 292.09373 
L 172.717231 291.929832 
L 173.228209 291.929832 
L 173.228209 291.602035 
L 173.921654 291.602035 
L 173.921654 291.274239 
L 174.177977 291.274239 
L 174.177977 290.618646 
L 174.353152 290.618646 
L 174.353152 290.454747 
L 174.836615 290.454747 
L 174.836615 290.290849 
L 175.418673 290.290849 
L 175.418673 290.126951 
L 175.868586 290.126951 
L 175.868586 289.963053 
L 176.09122 289.963053 
L 176.18805 289.471358 
L 176.320158 289.471358 
L 176.320158 289.143561 
L 176.535098 289.143561 
L 176.641569 288.487969 
L 177.043077 288.487969 
L 177.043077 287.832376 
L 178.432924 287.832376 
L 178.543336 287.176783 
L 178.664498 287.176783 
L 178.664498 287.012884 
L 178.86147 287.012884 
L 178.970879 286.52119 
L 179.359423 286.52119 
L 179.395372 286.193393 
L 179.90578 286.193393 
L 179.90578 285.701698 
L 180.665401 285.701698 
L 180.670342 285.373902 
L 180.818219 285.373902 
L 180.848804 284.554411 
L 181.150798 284.554411 
L 181.150798 284.390512 
L 181.560831 284.390512 
L 181.560831 284.062716 
L 182.357177 284.062716 
L 182.431755 283.571021 
L 182.589618 283.571021 
L 182.589618 283.407123 
L 183.552511 283.407123 
L 183.552511 283.079327 
L 184.19076 283.079327 
L 184.19076 282.75153 
L 184.364759 282.75153 
L 184.364759 282.259835 
L 186.323618 282.259835 
L 186.323618 281.768141 
L 186.704381 281.768141 
L 186.704381 281.604242 
L 187.166243 281.604242 
L 187.166243 281.440344 
L 187.76897 281.440344 
L 187.76897 281.276446 
L 187.995962 281.276446 
L 187.995962 280.948649 
L 188.437027 280.948649 
L 188.437027 280.620853 
L 188.730774 280.620853 
L 188.79636 280.129158 
L 188.911111 280.129158 
L 188.911111 279.801362 
L 191.179813 279.801362 
L 191.179813 279.637463 
L 191.451555 279.637463 
L 191.451555 279.473565 
L 192.004076 279.473565 
L 192.004076 279.309667 
L 192.14665 279.309667 
L 192.242098 278.817972 
L 193.682238 278.817972 
L 193.682238 278.490176 
L 193.990063 278.490176 
L 193.990063 278.326277 
L 194.340808 278.326277 
L 194.340808 278.162379 
L 197.563431 278.162379 
L 197.563431 277.998481 
L 198.569008 277.998481 
L 198.569008 277.834583 
L 198.968328 277.834583 
L 198.968328 277.670684 
L 199.145321 277.670684 
L 199.145321 277.015092 
L 200.126977 277.015092 
L 200.126977 276.851193 
L 206.004882 276.851193 
L 206.004882 276.031702 
L 207.526143 276.031702 
L 207.526143 275.703906 
L 209.802745 275.703906 
L 209.802745 275.540007 
L 211.994936 275.540007 
L 211.994936 274.884414 
L 217.502421 274.884414 
L 217.502421 274.720516 
L 245.040396 274.720516 
L 245.040396 274.556618 
L 245.897617 274.556618 
L 245.990891 273.737127 
L 247.092256 273.737127 
L 247.092256 273.40933 
L 254.344412 273.40933 
L 254.448916 272.098144 
L 254.464237 272.098144 
L 254.544456 271.606449 
L 254.659112 271.606449 
L 254.710454 270.950857 
L 254.863621 270.950857 
L 254.863621 270.786958 
L 255.212861 270.786958 
L 255.212861 270.459162 
L 256.125023 270.459162 
L 256.125023 270.295264 
L 261.40614 270.295264 
L 261.40614 270.131365 
L 261.920444 270.131365 
L 261.920444 269.967467 
L 262.147148 269.967467 
L 262.147148 269.803569 
L 262.504964 269.803569 
L 262.504964 269.639671 
L 266.215954 269.639671 
L 266.232999 269.311874 
L 266.355775 269.311874 
L 266.440811 268.984078 
L 266.638584 268.984078 
L 266.685401 268.656281 
L 267.114144 268.656281 
L 267.114144 268.328485 
L 270.102473 268.328485 
L 270.102473 268.164586 
L 270.773676 268.164586 
L 270.773676 268.000688 
L 273.170775 268.000688 
L 273.269183 267.181197 
L 273.444684 267.181197 
L 273.444684 267.017299 
L 276.175645 267.017299 
L 276.175645 266.689502 
L 276.334887 266.689502 
L 276.334887 266.525604 
L 278.085987 266.525604 
L 278.145177 265.706113 
L 278.308646 265.706113 
L 278.308646 265.542215 
L 278.551625 265.542215 
L 278.551625 265.378316 
L 280.328117 265.378316 
L 280.328117 265.214418 
L 281.936363 265.214418 
L 282.015995 264.722723 
L 282.096254 264.722723 
L 282.096254 264.558825 
L 282.291492 264.558825 
L 282.291492 264.394927 
L 283.591843 264.394927 
L 283.591843 264.231029 
L 283.901536 264.231029 
L 283.901536 264.06713 
L 284.026667 264.06713 
L 284.026667 263.903232 
L 285.065215 263.903232 
L 285.131631 263.411537 
L 286.631882 263.411537 
L 286.631882 263.247639 
L 286.825073 263.247639 
L 286.825073 263.083741 
L 287.699182 263.083741 
L 287.768627 262.755944 
L 287.826114 262.755944 
L 287.826114 262.592046 
L 289.063498 262.592046 
L 289.063498 262.26425 
L 289.993859 262.26425 
L 289.993859 262.100351 
L 290.227827 262.100351 
L 290.227827 261.936453 
L 292.072242 261.936453 
L 292.072242 261.772555 
L 292.226344 261.772555 
L 292.226344 261.608657 
L 292.968331 261.608657 
L 293.051501 261.28086 
L 293.877875 261.28086 
L 293.877875 261.116962 
L 294.916287 261.116962 
L 294.916287 260.953064 
L 295.467633 260.953064 
L 295.511878 260.625267 
L 296.970787 260.625267 
L 296.970787 260.461369 
L 300.397451 260.461369 
L 300.397451 260.297471 
L 301.483799 260.297471 
L 301.483799 260.133572 
L 302.027312 260.133572 
L 302.027312 259.969674 
L 303.600317 259.969674 
L 303.600317 259.805776 
L 305.751494 259.805776 
L 305.841152 259.47798 
L 307.408374 259.47798 
L 307.408374 259.314081 
L 310.028091 259.314081 
L 310.028091 259.150183 
L 313.642981 259.150183 
L 313.642981 258.986285 
L 323.656067 258.986285 
L 323.656067 258.822387 
L 333.429677 258.822387 
L 333.429677 258.822387 
" style="fill:none;stroke:#999999;stroke-linecap:square;stroke-width:1.5;"/>
   </g>
   <g id="line2d_53"/>
   <g id="line2d_54">
    <path d="M 0 0 
" style="fill:none;stroke:#999999;stroke-linecap:square;stroke-width:1.5;"/>
   </g>
   <g id="line2d_55">
    <path clip-path="url(#pac00b46bfb)" d="M 254.198345 273.40933 
" style="fill:none;stroke:#999999;stroke-linecap:square;stroke-width:1.5;"/>
    <g clip-path="url(#pac00b46bfb)">
     <use style="fill:#999999;stroke:#999999;stroke-width:3;" x="254.198345" xlink:href="#mecc4319587" y="273.40933"/>
    </g>
   </g>
   <g id="line2d_56">
    <g>
     <use style="fill:#999999;stroke:#999999;" x="309.737136" xlink:href="#m79f4984ae9" y="253.905439"/>
     <use style="fill:#999999;stroke:#999999;" x="309.737136" xlink:href="#m79f4984ae9" y="253.905439"/>
    </g>
   </g>
   <g id="line2d_57">
    <path d="M 142.229538 294.88 
L 142.229538 294.716102 
L 142.415972 294.716102 
L 142.415972 294.552204 
L 143.278343 294.552204 
L 143.278343 294.224407 
L 143.416166 294.224407 
L 143.416166 293.896611 
L 144.096957 293.896611 
L 144.197563 293.568814 
L 144.318029 293.568814 
L 144.414815 292.421526 
L 144.566534 292.421526 
L 144.566534 292.09373 
L 144.76179 292.09373 
L 144.76179 291.765933 
L 145.233186 291.765933 
L 145.233186 291.602035 
L 145.38269 291.602035 
L 145.38269 291.11034 
L 145.717929 291.11034 
L 145.717929 290.946442 
L 146.226005 290.946442 
L 146.29445 290.126951 
L 146.878708 290.126951 
L 146.878708 289.799154 
L 147.281142 289.799154 
L 147.281142 289.635256 
L 147.416066 289.635256 
L 147.452293 289.143561 
L 147.642825 289.143561 
L 147.642825 288.815765 
L 147.885328 288.815765 
L 147.914366 288.487969 
L 148.208192 288.487969 
L 148.257017 288.160172 
L 148.360314 288.160172 
L 148.424812 287.176783 
L 148.592978 287.176783 
L 148.592978 286.848986 
L 148.906861 286.848986 
L 148.988827 286.029495 
L 149.366251 286.029495 
L 149.410003 285.701698 
L 149.685166 285.701698 
L 149.716921 285.210004 
L 149.832241 285.210004 
L 149.943109 284.882207 
L 150.005619 284.882207 
L 150.005619 284.554411 
L 150.182718 284.554411 
L 150.242554 283.898818 
L 150.309397 283.898818 
L 150.38496 283.407123 
L 150.46198 283.407123 
L 150.552884 282.75153 
L 150.763143 282.75153 
L 150.855968 281.932039 
L 151.015917 281.932039 
L 151.015917 281.768141 
L 151.167533 281.768141 
L 151.167533 281.604242 
L 151.316124 281.604242 
L 151.316124 281.440344 
L 151.832091 281.440344 
L 151.832091 281.112548 
L 152.210773 281.112548 
L 152.307367 280.293056 
L 152.769866 280.293056 
L 152.819803 278.817972 
L 153.065801 278.817972 
L 153.065801 278.654074 
L 153.47564 278.654074 
L 153.58032 278.162379 
L 153.712501 278.162379 
L 153.712501 277.998481 
L 153.914005 277.998481 
L 153.914005 277.506786 
L 154.030589 277.506786 
L 154.065411 277.015092 
L 154.416909 277.015092 
L 154.416909 276.687295 
L 154.549886 276.687295 
L 154.549886 276.359499 
L 154.716768 276.359499 
L 154.716768 276.1956 
L 154.884811 276.1956 
L 154.967534 275.212211 
L 155.233668 275.212211 
L 155.233668 275.048313 
L 155.355124 275.048313 
L 155.400785 274.39272 
L 155.734174 274.39272 
L 155.734174 274.228821 
L 155.921264 274.228821 
L 155.921264 273.737127 
L 156.171868 273.737127 
L 156.171868 273.40933 
L 156.408759 273.40933 
L 156.408759 273.245432 
L 156.669862 273.245432 
L 156.669862 272.917635 
L 156.906184 272.917635 
L 156.906184 272.589839 
L 157.203437 272.589839 
L 157.203437 272.098144 
L 157.51107 272.098144 
L 157.577379 271.770348 
L 157.718616 271.770348 
L 157.754914 271.278653 
L 158.217677 271.278653 
L 158.217677 271.114755 
L 158.55369 271.114755 
L 158.55369 270.786958 
L 158.759034 270.786958 
L 158.759034 270.62306 
L 158.923749 270.62306 
L 158.923749 270.459162 
L 159.182979 270.459162 
L 159.182979 270.295264 
L 159.511391 270.295264 
L 159.511391 270.131365 
L 160.449613 270.131365 
L 160.449613 269.967467 
L 160.662316 269.967467 
L 160.721483 269.639671 
L 162.507695 269.639671 
L 162.507695 269.311874 
L 163.508245 269.311874 
L 163.508245 268.984078 
L 164.044009 268.984078 
L 164.044009 268.820179 
L 164.332916 268.820179 
L 164.416507 268.164586 
L 166.864819 268.164586 
L 166.864819 268.000688 
L 167.381859 268.000688 
L 167.381859 267.508993 
L 168.937045 267.508993 
L 168.937045 267.345095 
L 172.121226 267.345095 
L 172.121226 267.017299 
L 173.946318 267.017299 
L 173.946318 266.689502 
L 179.123906 266.689502 
L 179.123906 266.525604 
L 180.657678 266.525604 
L 180.657678 266.197807 
L 181.466459 266.197807 
L 181.466459 266.033909 
L 183.551205 266.033909 
L 183.551205 265.706113 
L 191.106236 265.706113 
L 191.106236 265.214418 
L 193.228906 265.214418 
L 193.228906 264.558825 
L 198.736096 264.558825 
L 198.736096 264.394927 
L 202.758977 264.394927 
L 202.758977 264.231029 
L 204.299861 264.231029 
L 204.299861 264.06713 
L 214.270427 264.06713 
L 214.270427 263.903232 
L 224.693289 263.903232 
L 224.693289 263.411537 
L 229.011445 263.411537 
L 229.011445 263.247639 
L 230.755321 263.247639 
L 230.755321 262.919843 
L 239.7442 262.919843 
L 239.787391 262.592046 
L 246.325978 262.592046 
L 246.325978 262.428148 
L 247.238383 262.428148 
L 247.238383 261.936453 
L 254.240257 261.936453 
L 254.286509 260.625267 
L 254.359725 260.625267 
L 254.447555 260.133572 
L 254.688604 260.133572 
L 254.688604 259.805776 
L 255.119658 259.805776 
L 255.119658 259.641878 
L 260.372033 259.641878 
L 260.385067 259.314081 
L 262.993438 259.314081 
L 262.993438 259.150183 
L 266.342252 259.150183 
L 266.370725 258.822387 
L 266.590672 258.822387 
L 266.590672 258.658488 
L 268.006879 258.658488 
L 268.006879 258.49459 
L 273.136686 258.49459 
L 273.153784 258.166794 
L 273.412441 258.166794 
L 273.412441 258.002895 
L 274.377789 258.002895 
L 274.377789 257.675099 
L 276.39279 257.675099 
L 276.39279 257.511201 
L 278.120049 257.511201 
L 278.120049 257.347302 
L 278.284349 257.347302 
L 278.284349 257.183404 
L 279.016618 257.183404 
L 279.016618 256.691709 
L 279.812502 256.691709 
L 279.812502 256.527811 
L 282.666621 256.527811 
L 282.666621 256.200015 
L 284.043809 256.200015 
L 284.043809 256.036116 
L 285.676173 256.036116 
L 285.676173 255.872218 
L 286.839642 255.872218 
L 286.839642 255.70832 
L 288.236831 255.70832 
L 288.236831 255.544422 
L 290.002221 255.544422 
L 290.002221 255.380523 
L 290.465287 255.380523 
L 290.465287 255.216625 
L 298.631408 255.216625 
L 298.631408 254.888829 
L 303.175934 254.888829 
L 303.175934 254.561032 
L 306.767428 254.561032 
L 306.767428 254.397134 
L 309.04137 254.397134 
L 309.04137 254.069337 
L 309.737136 254.069337 
L 309.737136 253.905439 
L 333.429677 253.905439 
L 333.429677 253.905439 
" style="fill:none;stroke:#999999;stroke-linecap:square;stroke-width:1.5;"/>
   </g>
   <g id="line2d_58"/>
   <g id="line2d_59">
    <path d="M 0 0 
" style="fill:none;stroke:#999999;stroke-linecap:square;stroke-width:1.5;"/>
   </g>
   <g id="line2d_60">
    <path clip-path="url(#pac00b46bfb)" d="M 254.198345 261.936453 
" style="fill:none;stroke:#999999;stroke-linecap:square;stroke-width:1.5;"/>
    <g clip-path="url(#pac00b46bfb)">
     <use style="fill:#999999;stroke:#999999;stroke-width:3;" x="254.198345" xlink:href="#mecc4319587" y="261.936453"/>
    </g>
   </g>
   <g id="line2d_61">
    <path d="M 333.429677 294.88 
L 333.429677 9.697057 
" style="fill:none;stroke:#000000;stroke-linecap:square;stroke-width:1.5;"/>
   </g>
   <g id="patch_3">
    <path d="M 56.12 294.88 
L 56.12 6.845228 
" style="fill:none;stroke:#000000;stroke-linecap:square;stroke-linejoin:miter;stroke-width:0.8;"/>
   </g>
   <g id="patch_4">
    <path d="M 399.984 294.88 
L 399.984 6.845228 
" style="fill:none;stroke:#000000;stroke-linecap:square;stroke-linejoin:miter;stroke-width:0.8;"/>
   </g>
   <g id="patch_5">
    <path d="M 56.12 294.88 
L 399.984 294.88 
" style="fill:none;stroke:#000000;stroke-linecap:square;stroke-linejoin:miter;stroke-width:0.8;"/>
   </g>
   <g id="patch_6">
    <path d="M 56.12 6.845228 
L 399.984 6.845228 
" style="fill:none;stroke:#000000;stroke-linecap:square;stroke-linejoin:miter;stroke-width:0.8;"/>
   </g>
   <g id="text_14">
    <!-- best 2016 -->
    <defs>
     <path d="M 48.6875 27.296875 
Q 48.6875 37.203125 44.609375 42.84375 
Q 40.53125 48.484375 33.40625 48.484375 
Q 26.265625 48.484375 22.1875 42.84375 
Q 18.109375 37.203125 18.109375 27.296875 
Q 18.109375 17.390625 22.1875 11.75 
Q 26.265625 6.109375 33.40625 6.109375 
Q 40.53125 6.109375 44.609375 11.75 
Q 48.6875 17.390625 48.6875 27.296875 
z
M 18.109375 46.390625 
Q 20.953125 51.265625 25.265625 53.625 
Q 29.59375 56 35.59375 56 
Q 45.5625 56 51.78125 48.09375 
Q 58.015625 40.1875 58.015625 27.296875 
Q 58.015625 14.40625 51.78125 6.484375 
Q 45.5625 -1.421875 35.59375 -1.421875 
Q 29.59375 -1.421875 25.265625 0.953125 
Q 20.953125 3.328125 18.109375 8.203125 
L 18.109375 0 
L 9.078125 0 
L 9.078125 75.984375 
L 18.109375 75.984375 
z
" id="DejaVuSans-62"/>
    </defs>
    <g transform="translate(369.479935 293.867279)scale(0.17 -0.17)">
     <use xlink:href="#DejaVuSans-62"/>
     <use x="63.476562" xlink:href="#DejaVuSans-65"/>
     <use x="125" xlink:href="#DejaVuSans-73"/>
     <use x="177.099609" xlink:href="#DejaVuSans-74"/>
     <use x="216.308594" xlink:href="#DejaVuSans-20"/>
     <use x="248.095703" xlink:href="#DejaVuSans-32"/>
     <use x="311.71875" xlink:href="#DejaVuSans-30"/>
     <use x="375.341797" xlink:href="#DejaVuSans-31"/>
     <use x="438.964844" xlink:href="#DejaVuSans-36"/>
    </g>
   </g>
   <g id="text_15">
    <!-- bbob-biobj f46, f47, f50, 40-D -->
    <defs>
     <path d="M 9.421875 54.6875 
L 18.40625 54.6875 
L 18.40625 -0.984375 
Q 18.40625 -11.421875 14.421875 -16.109375 
Q 10.453125 -20.796875 1.609375 -20.796875 
L -1.8125 -20.796875 
L -1.8125 -13.1875 
L 0.59375 -13.1875 
Q 5.71875 -13.1875 7.5625 -10.8125 
Q 9.421875 -8.453125 9.421875 -0.984375 
z
M 9.421875 75.984375 
L 18.40625 75.984375 
L 18.40625 64.59375 
L 9.421875 64.59375 
z
" id="DejaVuSans-6a"/>
     <path d="M 8.203125 72.90625 
L 55.078125 72.90625 
L 55.078125 68.703125 
L 28.609375 0 
L 18.3125 0 
L 43.21875 64.59375 
L 8.203125 64.59375 
z
" id="DejaVuSans-37"/>
     <path d="M 10.796875 72.90625 
L 49.515625 72.90625 
L 49.515625 64.59375 
L 19.828125 64.59375 
L 19.828125 46.734375 
Q 21.96875 47.46875 24.109375 47.828125 
Q 26.265625 48.1875 28.421875 48.1875 
Q 40.625 48.1875 47.75 41.5 
Q 54.890625 34.8125 54.890625 23.390625 
Q 54.890625 11.625 47.5625 5.09375 
Q 40.234375 -1.421875 26.90625 -1.421875 
Q 22.3125 -1.421875 17.546875 -0.640625 
Q 12.796875 0.140625 7.71875 1.703125 
L 7.71875 11.625 
Q 12.109375 9.234375 16.796875 8.0625 
Q 21.484375 6.890625 26.703125 6.890625 
Q 35.15625 6.890625 40.078125 11.328125 
Q 45.015625 15.765625 45.015625 23.390625 
Q 45.015625 31 40.078125 35.4375 
Q 35.15625 39.890625 26.703125 39.890625 
Q 22.75 39.890625 18.8125 39.015625 
Q 14.890625 38.140625 10.796875 36.28125 
z
" id="DejaVuSans-35"/>
     <path d="M 19.671875 64.796875 
L 19.671875 8.109375 
L 31.59375 8.109375 
Q 46.6875 8.109375 53.6875 14.9375 
Q 60.6875 21.78125 60.6875 36.53125 
Q 60.6875 51.171875 53.6875 57.984375 
Q 46.6875 64.796875 31.59375 64.796875 
z
M 9.8125 72.90625 
L 30.078125 72.90625 
Q 51.265625 72.90625 61.171875 64.09375 
Q 71.09375 55.28125 71.09375 36.53125 
Q 71.09375 17.671875 61.125 8.828125 
Q 51.171875 0 30.078125 0 
L 9.8125 0 
z
" id="DejaVuSans-44"/>
    </defs>
    <g transform="translate(59.55864 17.475982)scale(0.102 -0.102)">
     <use xlink:href="#DejaVuSans-62"/>
     <use x="63.476562" xlink:href="#DejaVuSans-62"/>
     <use x="126.953125" xlink:href="#DejaVuSans-6f"/>
     <use x="188.134766" xlink:href="#DejaVuSans-62"/>
     <use x="251.611328" xlink:href="#DejaVuSans-2d"/>
     <use x="287.695312" xlink:href="#DejaVuSans-62"/>
     <use x="351.171875" xlink:href="#DejaVuSans-69"/>
     <use x="378.955078" xlink:href="#DejaVuSans-6f"/>
     <use x="440.136719" xlink:href="#DejaVuSans-62"/>
     <use x="503.613281" xlink:href="#DejaVuSans-6a"/>
     <use x="531.396484" xlink:href="#DejaVuSans-20"/>
     <use x="563.183594" xlink:href="#DejaVuSans-66"/>
     <use x="598.388672" xlink:href="#DejaVuSans-34"/>
     <use x="662.011719" xlink:href="#DejaVuSans-36"/>
     <use x="725.634766" xlink:href="#DejaVuSans-2c"/>
     <use x="757.421875" xlink:href="#DejaVuSans-20"/>
     <use x="789.208984" xlink:href="#DejaVuSans-66"/>
     <use x="824.414062" xlink:href="#DejaVuSans-34"/>
     <use x="888.037109" xlink:href="#DejaVuSans-37"/>
     <use x="951.660156" xlink:href="#DejaVuSans-2c"/>
     <use x="983.447266" xlink:href="#DejaVuSans-20"/>
     <use x="1015.234375" xlink:href="#DejaVuSans-66"/>
     <use x="1050.439453" xlink:href="#DejaVuSans-35"/>
     <use x="1114.0625" xlink:href="#DejaVuSans-30"/>
     <use x="1177.685547" xlink:href="#DejaVuSans-2c"/>
     <use x="1209.472656" xlink:href="#DejaVuSans-20"/>
     <use x="1241.259766" xlink:href="#DejaVuSans-34"/>
     <use x="1304.882812" xlink:href="#DejaVuSans-30"/>
     <use x="1368.505859" xlink:href="#DejaVuSans-2d"/>
     <use x="1404.589844" xlink:href="#DejaVuSans-44"/>
    </g>
    <!-- 58 targets: 1..-1.0e-4 -->
    <defs>
     <path d="M 11.71875 12.40625 
L 22.015625 12.40625 
L 22.015625 0 
L 11.71875 0 
z
M 11.71875 51.703125 
L 22.015625 51.703125 
L 22.015625 39.3125 
L 11.71875 39.3125 
z
" id="DejaVuSans-3a"/>
    </defs>
    <g transform="translate(59.55864 28.89775)scale(0.102 -0.102)">
     <use xlink:href="#DejaVuSans-35"/>
     <use x="63.623047" xlink:href="#DejaVuSans-38"/>
     <use x="127.246094" xlink:href="#DejaVuSans-20"/>
     <use x="159.033203" xlink:href="#DejaVuSans-74"/>
     <use x="198.242188" xlink:href="#DejaVuSans-61"/>
     <use x="259.521484" xlink:href="#DejaVuSans-72"/>
     <use x="300.619141" xlink:href="#DejaVuSans-67"/>
     <use x="364.095703" xlink:href="#DejaVuSans-65"/>
     <use x="425.619141" xlink:href="#DejaVuSans-74"/>
     <use x="464.828125" xlink:href="#DejaVuSans-73"/>
     <use x="516.927734" xlink:href="#DejaVuSans-3a"/>
     <use x="550.619141" xlink:href="#DejaVuSans-20"/>
     <use x="582.40625" xlink:href="#DejaVuSans-31"/>
     <use x="646.029297" xlink:href="#DejaVuSans-2e"/>
     <use x="677.816406" xlink:href="#DejaVuSans-2e"/>
     <use x="709.603516" xlink:href="#DejaVuSans-2d"/>
     <use x="745.6875" xlink:href="#DejaVuSans-31"/>
     <use x="809.310547" xlink:href="#DejaVuSans-2e"/>
     <use x="841.097656" xlink:href="#DejaVuSans-30"/>
     <use x="904.720703" xlink:href="#DejaVuSans-65"/>
     <use x="966.244141" xlink:href="#DejaVuSans-2d"/>
     <use x="1002.328125" xlink:href="#DejaVuSans-34"/>
    </g>
    <!-- 10 instances -->
    <g transform="translate(59.55864 40.319519)scale(0.102 -0.102)">
     <use xlink:href="#DejaVuSans-31"/>
     <use x="63.623047" xlink:href="#DejaVuSans-30"/>
     <use x="127.246094" xlink:href="#DejaVuSans-20"/>
     <use x="159.033203" xlink:href="#DejaVuSans-69"/>
     <use x="186.816406" xlink:href="#DejaVuSans-6e"/>
     <use x="250.195312" xlink:href="#DejaVuSans-73"/>
     <use x="302.294922" xlink:href="#DejaVuSans-74"/>
     <use x="341.503906" xlink:href="#DejaVuSans-61"/>
     <use x="402.783203" xlink:href="#DejaVuSans-6e"/>
     <use x="466.162109" xlink:href="#DejaVuSans-63"/>
     <use x="521.142578" xlink:href="#DejaVuSans-65"/>
     <use x="582.666016" xlink:href="#DejaVuSans-73"/>
    </g>
   </g>
   <g id="text_16">
    <!-- v2.0.778, hv-hash=ff0e71e8cd978373 -->
    <defs>
     <path d="M 54.890625 33.015625 
L 54.890625 0 
L 45.90625 0 
L 45.90625 32.71875 
Q 45.90625 40.484375 42.875 44.328125 
Q 39.84375 48.1875 33.796875 48.1875 
Q 26.515625 48.1875 22.3125 43.546875 
Q 18.109375 38.921875 18.109375 30.90625 
L 18.109375 0 
L 9.078125 0 
L 9.078125 75.984375 
L 18.109375 75.984375 
L 18.109375 46.1875 
Q 21.34375 51.125 25.703125 53.5625 
Q 30.078125 56 35.796875 56 
Q 45.21875 56 50.046875 50.171875 
Q 54.890625 44.34375 54.890625 33.015625 
z
" id="DejaVuSans-68"/>
     <path d="M 10.59375 45.40625 
L 73.1875 45.40625 
L 73.1875 37.203125 
L 10.59375 37.203125 
z
M 10.59375 25.484375 
L 73.1875 25.484375 
L 73.1875 17.1875 
L 10.59375 17.1875 
z
" id="DejaVuSans-3d"/>
     <path d="M 10.984375 1.515625 
L 10.984375 10.5 
Q 14.703125 8.734375 18.5 7.8125 
Q 22.3125 6.890625 25.984375 6.890625 
Q 35.75 6.890625 40.890625 13.453125 
Q 46.046875 20.015625 46.78125 33.40625 
Q 43.953125 29.203125 39.59375 26.953125 
Q 35.25 24.703125 29.984375 24.703125 
Q 19.046875 24.703125 12.671875 31.3125 
Q 6.296875 37.9375 6.296875 49.421875 
Q 6.296875 60.640625 12.9375 67.421875 
Q 19.578125 74.21875 30.609375 74.21875 
Q 43.265625 74.21875 49.921875 64.515625 
Q 56.59375 54.828125 56.59375 36.375 
Q 56.59375 19.140625 48.40625 8.859375 
Q 40.234375 -1.421875 26.421875 -1.421875 
Q 22.703125 -1.421875 18.890625 -0.6875 
Q 15.09375 0.046875 10.984375 1.515625 
z
M 30.609375 32.421875 
Q 37.25 32.421875 41.125 36.953125 
Q 45.015625 41.5 45.015625 49.421875 
Q 45.015625 57.28125 41.125 61.84375 
Q 37.25 66.40625 30.609375 66.40625 
Q 23.96875 66.40625 20.09375 61.84375 
Q 16.21875 57.28125 16.21875 49.421875 
Q 16.21875 41.5 20.09375 36.953125 
Q 23.96875 32.421875 30.609375 32.421875 
z
" id="DejaVuSans-39"/>
     <path d="M 40.578125 39.3125 
Q 47.65625 37.796875 51.625 33 
Q 55.609375 28.21875 55.609375 21.1875 
Q 55.609375 10.40625 48.1875 4.484375 
Q 40.765625 -1.421875 27.09375 -1.421875 
Q 22.515625 -1.421875 17.65625 -0.515625 
Q 12.796875 0.390625 7.625 2.203125 
L 7.625 11.71875 
Q 11.71875 9.328125 16.59375 8.109375 
Q 21.484375 6.890625 26.8125 6.890625 
Q 36.078125 6.890625 40.9375 10.546875 
Q 45.796875 14.203125 45.796875 21.1875 
Q 45.796875 27.640625 41.28125 31.265625 
Q 36.765625 34.90625 28.71875 34.90625 
L 20.21875 34.90625 
L 20.21875 43.015625 
L 29.109375 43.015625 
Q 36.375 43.015625 40.234375 45.921875 
Q 44.09375 48.828125 44.09375 54.296875 
Q 44.09375 59.90625 40.109375 62.90625 
Q 36.140625 65.921875 28.71875 65.921875 
Q 24.65625 65.921875 20.015625 65.03125 
Q 15.375 64.15625 9.8125 62.3125 
L 9.8125 71.09375 
Q 15.4375 72.65625 20.34375 73.4375 
Q 25.25 74.21875 29.59375 74.21875 
Q 40.828125 74.21875 47.359375 69.109375 
Q 53.90625 64.015625 53.90625 55.328125 
Q 53.90625 49.265625 50.4375 45.09375 
Q 46.96875 40.921875 40.578125 39.3125 
z
" id="DejaVuSans-33"/>
    </defs>
    <g style="fill:#808080;" transform="translate(131.294188 289.919965)scale(0.1 -0.1)">
     <use xlink:href="#DejaVuSans-76"/>
     <use x="59.179688" xlink:href="#DejaVuSans-32"/>
     <use x="122.802734" xlink:href="#DejaVuSans-2e"/>
     <use x="154.589844" xlink:href="#DejaVuSans-30"/>
     <use x="218.212891" xlink:href="#DejaVuSans-2e"/>
     <use x="250" xlink:href="#DejaVuSans-37"/>
     <use x="313.623047" xlink:href="#DejaVuSans-37"/>
     <use x="377.246094" xlink:href="#DejaVuSans-38"/>
     <use x="440.869141" xlink:href="#DejaVuSans-2c"/>
     <use x="472.65625" xlink:href="#DejaVuSans-20"/>
     <use x="504.443359" xlink:href="#DejaVuSans-68"/>
     <use x="567.822266" xlink:href="#DejaVuSans-76"/>
     <use x="626.970703" xlink:href="#DejaVuSans-2d"/>
     <use x="663.054688" xlink:href="#DejaVuSans-68"/>
     <use x="726.433594" xlink:href="#DejaVuSans-61"/>
     <use x="787.712891" xlink:href="#DejaVuSans-73"/>
     <use x="839.8125" xlink:href="#DejaVuSans-68"/>
     <use x="903.191406" xlink:href="#DejaVuSans-3d"/>
     <use x="986.980469" xlink:href="#DejaVuSans-66"/>
     <use x="1022.185547" xlink:href="#DejaVuSans-66"/>
     <use x="1057.390625" xlink:href="#DejaVuSans-30"/>
     <use x="1121.013672" xlink:href="#DejaVuSans-65"/>
     <use x="1182.537109" xlink:href="#DejaVuSans-37"/>
     <use x="1246.160156" xlink:href="#DejaVuSans-31"/>
     <use x="1309.783203" xlink:href="#DejaVuSans-65"/>
     <use x="1371.306641" xlink:href="#DejaVuSans-38"/>
     <use x="1434.929688" xlink:href="#DejaVuSans-63"/>
     <use x="1489.910156" xlink:href="#DejaVuSans-64"/>
     <use x="1553.386719" xlink:href="#DejaVuSans-39"/>
     <use x="1617.009766" xlink:href="#DejaVuSans-37"/>
     <use x="1680.632812" xlink:href="#DejaVuSans-38"/>
     <use x="1744.255859" xlink:href="#DejaVuSans-33"/>
     <use x="1807.878906" xlink:href="#DejaVuSans-37"/>
     <use x="1871.501953" xlink:href="#DejaVuSans-33"/>
    </g>
   </g>
  </g>
 </g>
 <defs>
  <clipPath id="pac00b46bfb">
   <rect height="288.034772" width="343.864" x="56.12" y="6.845228"/>
  </clipPath>
 </defs>
</svg>
