<?xml version="1.0" encoding="utf-8" standalone="no"?>
<!DOCTYPE svg PUBLIC "-//W3C//DTD SVG 1.1//EN"
  "http://www.w3.org/Graphics/SVG/1.1/DTD/svg11.dtd">
<!-- Created with matplotlib (http://matplotlib.org/) -->
<svg height="345pt" version="1.1" viewBox="0 0 460 345" width="460pt" xmlns="http://www.w3.org/2000/svg" xmlns:xlink="http://www.w3.org/1999/xlink">
 <defs>
  <style type="text/css">
*{stroke-linecap:butt;stroke-linejoin:round;}
  </style>
 </defs>
 <g id="figure_1">
  <g id="patch_1">
   <path d="M 0 345.6 
L 460.8 345.6 
L 460.8 0 
L 0 0 
z
" style="fill:#ffffff;"/>
  </g>
  <g id="axes_1">
   <g id="patch_2">
    <path d="M 56.66 294.16 
L 399.984 294.16 
L 399.984 24.84 
L 56.66 24.84 
z
" style="fill:#ffffff;"/>
   </g>
   <g id="line2d_1">
    <path d="M 174.742603 294.16 
L 174.742603 288.931501 
L 198.87888 288.931501 
L 198.87888 283.703001 
L 226.637366 283.703001 
L 226.637366 278.474502 
L 226.667111 278.474502 
L 226.667111 273.246003 
L 235.418061 273.246003 
L 235.418061 268.017503 
L 260.942188 268.017503 
L 260.942188 262.789004 
L 295.197122 262.789004 
L 295.197122 257.560505 
L 298.508898 257.560505 
L 298.508898 252.332005 
L 302.561854 252.332005 
L 302.561854 247.103506 
L 309.403006 247.103506 
L 309.403006 241.875007 
L 309.405443 241.875007 
L 309.405443 236.646507 
L 309.408664 236.646507 
L 309.408664 231.418008 
L 316.65617 231.418008 
L 316.65617 226.189509 
L 316.657612 226.189509 
L 316.657612 220.96101 
L 316.660411 220.96101 
L 316.660411 215.73251 
L 328.601537 215.73251 
L 328.601537 210.504011 
L 328.602454 210.504011 
L 328.602454 205.275512 
L 328.60285 205.275512 
L 328.60285 200.047012 
L 328.603561 200.047012 
L 328.603561 194.818513 
L 328.604208 194.818513 
L 328.604208 189.590014 
L 328.604566 189.590014 
L 328.604566 184.361514 
L 328.605002 184.361514 
L 328.605002 179.133015 
L 328.605619 179.133015 
L 328.605619 173.904516 
L 328.606044 173.904516 
L 328.606044 168.676016 
L 328.606331 168.676016 
L 328.606331 163.447517 
L 328.607076 163.447517 
L 328.607076 158.219018 
L 328.607428 158.219018 
L 328.607428 152.990518 
L 328.608122 152.990518 
L 328.608122 147.762019 
L 328.608548 147.762019 
L 328.608548 142.53352 
L 328.608826 142.53352 
L 328.608826 137.30502 
L 328.609693 137.30502 
L 328.609693 132.076521 
L 328.610198 132.076521 
L 328.610198 126.848022 
L 328.610335 126.848022 
L 328.610335 121.619522 
L 328.611011 121.619522 
L 328.611011 116.391023 
L 328.611614 116.391023 
L 328.611614 111.162524 
L 328.612098 111.162524 
L 328.612098 105.934024 
L 328.612727 105.934024 
L 328.612727 100.705525 
L 328.613005 100.705525 
L 328.613005 95.477026 
L 328.613683 95.477026 
L 328.613683 90.248526 
L 328.614122 90.248526 
L 328.614122 85.020027 
L 328.614701 85.020027 
L 328.614701 79.791528 
L 328.615156 79.791528 
L 328.615156 74.563029 
L 328.615844 74.563029 
L 328.615844 69.334529 
L 328.616035 69.334529 
L 328.616035 64.10603 
L 328.616691 64.10603 
L 328.616691 58.877531 
L 328.617272 58.877531 
L 328.617272 53.649031 
L 328.617639 53.649031 
L 328.617639 48.420532 
L 328.618132 48.420532 
L 328.618132 43.192033 
L 328.618691 43.192033 
L 328.618691 37.963533 
L 328.61935 37.963533 
L 328.61935 32.735034 
L 328.619779 32.735034 
L 328.619779 27.506535 
L 333.534194 27.506535 
" style="fill:none;stroke:#f5deb3;stroke-linecap:square;stroke-width:6;"/>
   </g>
   <g id="line2d_2">
    <path d="M 0 0 
" style="fill:none;stroke:#f5deb3;stroke-linecap:square;stroke-width:6;"/>
    <defs>
     <path d="M -0 7.778175 
L 7.778175 0 
L 0 -7.778175 
L -7.778175 -0 
z
" id="m5aaa33aa5a" style="stroke:#f5deb3;stroke-linejoin:miter;stroke-width:1.5;"/>
    </defs>
    <g>
     <use style="fill:#f5deb3;stroke:#f5deb3;stroke-linejoin:miter;stroke-width:1.5;" x="0" xlink:href="#m5aaa33aa5a" y="0"/>
    </g>
   </g>
   <g id="line2d_3">
    <path d="M 333.534194 27.506535 
L 363.990355 32.839604 
" style="fill:none;stroke:#f5deb3;stroke-linecap:square;stroke-width:6;"/>
    <g>
     <use style="fill:#f5deb3;stroke:#f5deb3;stroke-linejoin:miter;stroke-width:1.5;" x="333.534194" xlink:href="#m5aaa33aa5a" y="27.506535"/>
     <use style="fill:#f5deb3;stroke:#f5deb3;stroke-linejoin:miter;stroke-width:1.5;" x="363.990355" xlink:href="#m5aaa33aa5a" y="32.839604"/>
    </g>
   </g>
   <g id="matplotlib.axis_1">
    <g id="xtick_1">
     <g id="line2d_4">
      <path clip-path="url(#p58cfd41e99)" d="M 56.66 294.16 
L 56.66 24.84 
" style="fill:none;stroke:#b0b0b0;stroke-linecap:square;stroke-width:0.8;"/>
     </g>
     <g id="line2d_5">
      <defs>
       <path d="M 0 0 
L 0 3.5 
" id="mb594fd4710" style="stroke:#000000;stroke-width:0.8;"/>
      </defs>
      <g>
       <use style="stroke:#000000;stroke-width:0.8;" x="56.66" xlink:href="#mb594fd4710" y="294.16"/>
      </g>
     </g>
     <g id="text_1">
      <!-- 0 -->
      <defs>
       <path d="M 31.78125 66.40625 
Q 24.171875 66.40625 20.328125 58.90625 
Q 16.5 51.421875 16.5 36.375 
Q 16.5 21.390625 20.328125 13.890625 
Q 24.171875 6.390625 31.78125 6.390625 
Q 39.453125 6.390625 43.28125 13.890625 
Q 47.125 21.390625 47.125 36.375 
Q 47.125 51.421875 43.28125 58.90625 
Q 39.453125 66.40625 31.78125 66.40625 
z
M 31.78125 74.21875 
Q 44.046875 74.21875 50.515625 64.515625 
Q 56.984375 54.828125 56.984375 36.375 
Q 56.984375 17.96875 50.515625 8.265625 
Q 44.046875 -1.421875 31.78125 -1.421875 
Q 19.53125 -1.421875 13.0625 8.265625 
Q 6.59375 17.96875 6.59375 36.375 
Q 6.59375 54.828125 13.0625 64.515625 
Q 19.53125 74.21875 31.78125 74.21875 
z
" id="DejaVuSans-30"/>
      </defs>
      <g transform="translate(50.2975 316.356875)scale(0.2 -0.2)">
       <use xlink:href="#DejaVuSans-30"/>
      </g>
     </g>
    </g>
    <g id="xtick_2">
     <g id="line2d_6">
      <path clip-path="url(#p58cfd41e99)" d="M 135.766912 294.16 
L 135.766912 24.84 
" style="fill:none;stroke:#b0b0b0;stroke-linecap:square;stroke-width:0.8;"/>
     </g>
     <g id="line2d_7">
      <g>
       <use style="stroke:#000000;stroke-width:0.8;" x="135.766912" xlink:href="#mb594fd4710" y="294.16"/>
      </g>
     </g>
     <g id="text_2">
      <!-- 2 -->
      <defs>
       <path d="M 19.1875 8.296875 
L 53.609375 8.296875 
L 53.609375 0 
L 7.328125 0 
L 7.328125 8.296875 
Q 12.9375 14.109375 22.625 23.890625 
Q 32.328125 33.6875 34.8125 36.53125 
Q 39.546875 41.84375 41.421875 45.53125 
Q 43.3125 49.21875 43.3125 52.78125 
Q 43.3125 58.59375 39.234375 62.25 
Q 35.15625 65.921875 28.609375 65.921875 
Q 23.96875 65.921875 18.8125 64.3125 
Q 13.671875 62.703125 7.8125 59.421875 
L 7.8125 69.390625 
Q 13.765625 71.78125 18.9375 73 
Q 24.125 74.21875 28.421875 74.21875 
Q 39.75 74.21875 46.484375 68.546875 
Q 53.21875 62.890625 53.21875 53.421875 
Q 53.21875 48.921875 51.53125 44.890625 
Q 49.859375 40.875 45.40625 35.40625 
Q 44.1875 33.984375 37.640625 27.21875 
Q 31.109375 20.453125 19.1875 8.296875 
z
" id="DejaVuSans-32"/>
      </defs>
      <g transform="translate(129.404412 316.356875)scale(0.2 -0.2)">
       <use xlink:href="#DejaVuSans-32"/>
      </g>
     </g>
    </g>
    <g id="xtick_3">
     <g id="line2d_8">
      <path clip-path="url(#p58cfd41e99)" d="M 214.873825 294.16 
L 214.873825 24.84 
" style="fill:none;stroke:#b0b0b0;stroke-linecap:square;stroke-width:0.8;"/>
     </g>
     <g id="line2d_9">
      <g>
       <use style="stroke:#000000;stroke-width:0.8;" x="214.873825" xlink:href="#mb594fd4710" y="294.16"/>
      </g>
     </g>
     <g id="text_3">
      <!-- 4 -->
      <defs>
       <path d="M 37.796875 64.3125 
L 12.890625 25.390625 
L 37.796875 25.390625 
z
M 35.203125 72.90625 
L 47.609375 72.90625 
L 47.609375 25.390625 
L 58.015625 25.390625 
L 58.015625 17.1875 
L 47.609375 17.1875 
L 47.609375 0 
L 37.796875 0 
L 37.796875 17.1875 
L 4.890625 17.1875 
L 4.890625 26.703125 
z
" id="DejaVuSans-34"/>
      </defs>
      <g transform="translate(208.511325 316.356875)scale(0.2 -0.2)">
       <use xlink:href="#DejaVuSans-34"/>
      </g>
     </g>
    </g>
    <g id="xtick_4">
     <g id="line2d_10">
      <path clip-path="url(#p58cfd41e99)" d="M 293.980737 294.16 
L 293.980737 24.84 
" style="fill:none;stroke:#b0b0b0;stroke-linecap:square;stroke-width:0.8;"/>
     </g>
     <g id="line2d_11">
      <g>
       <use style="stroke:#000000;stroke-width:0.8;" x="293.980737" xlink:href="#mb594fd4710" y="294.16"/>
      </g>
     </g>
     <g id="text_4">
      <!-- 6 -->
      <defs>
       <path d="M 33.015625 40.375 
Q 26.375 40.375 22.484375 35.828125 
Q 18.609375 31.296875 18.609375 23.390625 
Q 18.609375 15.53125 22.484375 10.953125 
Q 26.375 6.390625 33.015625 6.390625 
Q 39.65625 6.390625 43.53125 10.953125 
Q 47.40625 15.53125 47.40625 23.390625 
Q 47.40625 31.296875 43.53125 35.828125 
Q 39.65625 40.375 33.015625 40.375 
z
M 52.59375 71.296875 
L 52.59375 62.3125 
Q 48.875 64.0625 45.09375 64.984375 
Q 41.3125 65.921875 37.59375 65.921875 
Q 27.828125 65.921875 22.671875 59.328125 
Q 17.53125 52.734375 16.796875 39.40625 
Q 19.671875 43.65625 24.015625 45.921875 
Q 28.375 48.1875 33.59375 48.1875 
Q 44.578125 48.1875 50.953125 41.515625 
Q 57.328125 34.859375 57.328125 23.390625 
Q 57.328125 12.15625 50.6875 5.359375 
Q 44.046875 -1.421875 33.015625 -1.421875 
Q 20.359375 -1.421875 13.671875 8.265625 
Q 6.984375 17.96875 6.984375 36.375 
Q 6.984375 53.65625 15.1875 63.9375 
Q 23.390625 74.21875 37.203125 74.21875 
Q 40.921875 74.21875 44.703125 73.484375 
Q 48.484375 72.75 52.59375 71.296875 
z
" id="DejaVuSans-36"/>
      </defs>
      <g transform="translate(287.618237 316.356875)scale(0.2 -0.2)">
       <use xlink:href="#DejaVuSans-36"/>
      </g>
     </g>
    </g>
    <g id="xtick_5">
     <g id="line2d_12">
      <path clip-path="url(#p58cfd41e99)" d="M 373.08765 294.16 
L 373.08765 24.84 
" style="fill:none;stroke:#b0b0b0;stroke-linecap:square;stroke-width:0.8;"/>
     </g>
     <g id="line2d_13">
      <g>
       <use style="stroke:#000000;stroke-width:0.8;" x="373.08765" xlink:href="#mb594fd4710" y="294.16"/>
      </g>
     </g>
     <g id="text_5">
      <!-- 8 -->
      <defs>
       <path d="M 31.78125 34.625 
Q 24.75 34.625 20.71875 30.859375 
Q 16.703125 27.09375 16.703125 20.515625 
Q 16.703125 13.921875 20.71875 10.15625 
Q 24.75 6.390625 31.78125 6.390625 
Q 38.8125 6.390625 42.859375 10.171875 
Q 46.921875 13.96875 46.921875 20.515625 
Q 46.921875 27.09375 42.890625 30.859375 
Q 38.875 34.625 31.78125 34.625 
z
M 21.921875 38.8125 
Q 15.578125 40.375 12.03125 44.71875 
Q 8.5 49.078125 8.5 55.328125 
Q 8.5 64.0625 14.71875 69.140625 
Q 20.953125 74.21875 31.78125 74.21875 
Q 42.671875 74.21875 48.875 69.140625 
Q 55.078125 64.0625 55.078125 55.328125 
Q 55.078125 49.078125 51.53125 44.71875 
Q 48 40.375 41.703125 38.8125 
Q 48.828125 37.15625 52.796875 32.3125 
Q 56.78125 27.484375 56.78125 20.515625 
Q 56.78125 9.90625 50.3125 4.234375 
Q 43.84375 -1.421875 31.78125 -1.421875 
Q 19.734375 -1.421875 13.25 4.234375 
Q 6.78125 9.90625 6.78125 20.515625 
Q 6.78125 27.484375 10.78125 32.3125 
Q 14.796875 37.15625 21.921875 38.8125 
z
M 18.3125 54.390625 
Q 18.3125 48.734375 21.84375 45.5625 
Q 25.390625 42.390625 31.78125 42.390625 
Q 38.140625 42.390625 41.71875 45.5625 
Q 45.3125 48.734375 45.3125 54.390625 
Q 45.3125 60.0625 41.71875 63.234375 
Q 38.140625 66.40625 31.78125 66.40625 
Q 25.390625 66.40625 21.84375 63.234375 
Q 18.3125 60.0625 18.3125 54.390625 
z
" id="DejaVuSans-38"/>
      </defs>
      <g transform="translate(366.72515 316.356875)scale(0.2 -0.2)">
       <use xlink:href="#DejaVuSans-38"/>
      </g>
     </g>
    </g>
    <g id="text_6">
     <!-- log10(# f-evals / dimension) -->
     <defs>
      <path d="M 9.421875 75.984375 
L 18.40625 75.984375 
L 18.40625 0 
L 9.421875 0 
z
" id="DejaVuSans-6c"/>
      <path d="M 30.609375 48.390625 
Q 23.390625 48.390625 19.1875 42.75 
Q 14.984375 37.109375 14.984375 27.296875 
Q 14.984375 17.484375 19.15625 11.84375 
Q 23.34375 6.203125 30.609375 6.203125 
Q 37.796875 6.203125 41.984375 11.859375 
Q 46.1875 17.53125 46.1875 27.296875 
Q 46.1875 37.015625 41.984375 42.703125 
Q 37.796875 48.390625 30.609375 48.390625 
z
M 30.609375 56 
Q 42.328125 56 49.015625 48.375 
Q 55.71875 40.765625 55.71875 27.296875 
Q 55.71875 13.875 49.015625 6.21875 
Q 42.328125 -1.421875 30.609375 -1.421875 
Q 18.84375 -1.421875 12.171875 6.21875 
Q 5.515625 13.875 5.515625 27.296875 
Q 5.515625 40.765625 12.171875 48.375 
Q 18.84375 56 30.609375 56 
z
" id="DejaVuSans-6f"/>
      <path d="M 45.40625 27.984375 
Q 45.40625 37.75 41.375 43.109375 
Q 37.359375 48.484375 30.078125 48.484375 
Q 22.859375 48.484375 18.828125 43.109375 
Q 14.796875 37.75 14.796875 27.984375 
Q 14.796875 18.265625 18.828125 12.890625 
Q 22.859375 7.515625 30.078125 7.515625 
Q 37.359375 7.515625 41.375 12.890625 
Q 45.40625 18.265625 45.40625 27.984375 
z
M 54.390625 6.78125 
Q 54.390625 -7.171875 48.1875 -13.984375 
Q 42 -20.796875 29.203125 -20.796875 
Q 24.46875 -20.796875 20.265625 -20.09375 
Q 16.0625 -19.390625 12.109375 -17.921875 
L 12.109375 -9.1875 
Q 16.0625 -11.328125 19.921875 -12.34375 
Q 23.78125 -13.375 27.78125 -13.375 
Q 36.625 -13.375 41.015625 -8.765625 
Q 45.40625 -4.15625 45.40625 5.171875 
L 45.40625 9.625 
Q 42.625 4.78125 38.28125 2.390625 
Q 33.9375 0 27.875 0 
Q 17.828125 0 11.671875 7.65625 
Q 5.515625 15.328125 5.515625 27.984375 
Q 5.515625 40.671875 11.671875 48.328125 
Q 17.828125 56 27.875 56 
Q 33.9375 56 38.28125 53.609375 
Q 42.625 51.21875 45.40625 46.390625 
L 45.40625 54.6875 
L 54.390625 54.6875 
z
" id="DejaVuSans-67"/>
      <path d="M 12.40625 8.296875 
L 28.515625 8.296875 
L 28.515625 63.921875 
L 10.984375 60.40625 
L 10.984375 69.390625 
L 28.421875 72.90625 
L 38.28125 72.90625 
L 38.28125 8.296875 
L 54.390625 8.296875 
L 54.390625 0 
L 12.40625 0 
z
" id="DejaVuSans-31"/>
      <path d="M 31 75.875 
Q 24.46875 64.65625 21.28125 53.65625 
Q 18.109375 42.671875 18.109375 31.390625 
Q 18.109375 20.125 21.3125 9.0625 
Q 24.515625 -2 31 -13.1875 
L 23.1875 -13.1875 
Q 15.875 -1.703125 12.234375 9.375 
Q 8.59375 20.453125 8.59375 31.390625 
Q 8.59375 42.28125 12.203125 53.3125 
Q 15.828125 64.359375 23.1875 75.875 
z
" id="DejaVuSans-28"/>
      <path d="M 51.125 44 
L 36.921875 44 
L 32.8125 27.6875 
L 47.125 27.6875 
z
M 43.796875 71.78125 
L 38.71875 51.515625 
L 52.984375 51.515625 
L 58.109375 71.78125 
L 65.921875 71.78125 
L 60.890625 51.515625 
L 76.125 51.515625 
L 76.125 44 
L 58.984375 44 
L 54.984375 27.6875 
L 70.515625 27.6875 
L 70.515625 20.21875 
L 53.078125 20.21875 
L 48 0 
L 40.1875 0 
L 45.21875 20.21875 
L 30.90625 20.21875 
L 25.875 0 
L 18.015625 0 
L 23.09375 20.21875 
L 7.71875 20.21875 
L 7.71875 27.6875 
L 24.90625 27.6875 
L 29 44 
L 13.28125 44 
L 13.28125 51.515625 
L 30.90625 51.515625 
L 35.890625 71.78125 
z
" id="DejaVuSans-23"/>
      <path id="DejaVuSans-20"/>
      <path d="M 37.109375 75.984375 
L 37.109375 68.5 
L 28.515625 68.5 
Q 23.6875 68.5 21.796875 66.546875 
Q 19.921875 64.59375 19.921875 59.515625 
L 19.921875 54.6875 
L 34.71875 54.6875 
L 34.71875 47.703125 
L 19.921875 47.703125 
L 19.921875 0 
L 10.890625 0 
L 10.890625 47.703125 
L 2.296875 47.703125 
L 2.296875 54.6875 
L 10.890625 54.6875 
L 10.890625 58.5 
Q 10.890625 67.625 15.140625 71.796875 
Q 19.390625 75.984375 28.609375 75.984375 
z
" id="DejaVuSans-66"/>
      <path d="M 4.890625 31.390625 
L 31.203125 31.390625 
L 31.203125 23.390625 
L 4.890625 23.390625 
z
" id="DejaVuSans-2d"/>
      <path d="M 56.203125 29.59375 
L 56.203125 25.203125 
L 14.890625 25.203125 
Q 15.484375 15.921875 20.484375 11.0625 
Q 25.484375 6.203125 34.421875 6.203125 
Q 39.59375 6.203125 44.453125 7.46875 
Q 49.3125 8.734375 54.109375 11.28125 
L 54.109375 2.78125 
Q 49.265625 0.734375 44.1875 -0.34375 
Q 39.109375 -1.421875 33.890625 -1.421875 
Q 20.796875 -1.421875 13.15625 6.1875 
Q 5.515625 13.8125 5.515625 26.8125 
Q 5.515625 40.234375 12.765625 48.109375 
Q 20.015625 56 32.328125 56 
Q 43.359375 56 49.78125 48.890625 
Q 56.203125 41.796875 56.203125 29.59375 
z
M 47.21875 32.234375 
Q 47.125 39.59375 43.09375 43.984375 
Q 39.0625 48.390625 32.421875 48.390625 
Q 24.90625 48.390625 20.390625 44.140625 
Q 15.875 39.890625 15.1875 32.171875 
z
" id="DejaVuSans-65"/>
      <path d="M 2.984375 54.6875 
L 12.5 54.6875 
L 29.59375 8.796875 
L 46.6875 54.6875 
L 56.203125 54.6875 
L 35.6875 0 
L 23.484375 0 
z
" id="DejaVuSans-76"/>
      <path d="M 34.28125 27.484375 
Q 23.390625 27.484375 19.1875 25 
Q 14.984375 22.515625 14.984375 16.5 
Q 14.984375 11.71875 18.140625 8.90625 
Q 21.296875 6.109375 26.703125 6.109375 
Q 34.1875 6.109375 38.703125 11.40625 
Q 43.21875 16.703125 43.21875 25.484375 
L 43.21875 27.484375 
z
M 52.203125 31.203125 
L 52.203125 0 
L 43.21875 0 
L 43.21875 8.296875 
Q 40.140625 3.328125 35.546875 0.953125 
Q 30.953125 -1.421875 24.3125 -1.421875 
Q 15.921875 -1.421875 10.953125 3.296875 
Q 6 8.015625 6 15.921875 
Q 6 25.140625 12.171875 29.828125 
Q 18.359375 34.515625 30.609375 34.515625 
L 43.21875 34.515625 
L 43.21875 35.40625 
Q 43.21875 41.609375 39.140625 45 
Q 35.0625 48.390625 27.6875 48.390625 
Q 23 48.390625 18.546875 47.265625 
Q 14.109375 46.140625 10.015625 43.890625 
L 10.015625 52.203125 
Q 14.9375 54.109375 19.578125 55.046875 
Q 24.21875 56 28.609375 56 
Q 40.484375 56 46.34375 49.84375 
Q 52.203125 43.703125 52.203125 31.203125 
z
" id="DejaVuSans-61"/>
      <path d="M 44.28125 53.078125 
L 44.28125 44.578125 
Q 40.484375 46.53125 36.375 47.5 
Q 32.28125 48.484375 27.875 48.484375 
Q 21.1875 48.484375 17.84375 46.4375 
Q 14.5 44.390625 14.5 40.28125 
Q 14.5 37.15625 16.890625 35.375 
Q 19.28125 33.59375 26.515625 31.984375 
L 29.59375 31.296875 
Q 39.15625 29.25 43.1875 25.515625 
Q 47.21875 21.78125 47.21875 15.09375 
Q 47.21875 7.46875 41.1875 3.015625 
Q 35.15625 -1.421875 24.609375 -1.421875 
Q 20.21875 -1.421875 15.453125 -0.5625 
Q 10.6875 0.296875 5.421875 2 
L 5.421875 11.28125 
Q 10.40625 8.6875 15.234375 7.390625 
Q 20.0625 6.109375 24.8125 6.109375 
Q 31.15625 6.109375 34.5625 8.28125 
Q 37.984375 10.453125 37.984375 14.40625 
Q 37.984375 18.0625 35.515625 20.015625 
Q 33.0625 21.96875 24.703125 23.78125 
L 21.578125 24.515625 
Q 13.234375 26.265625 9.515625 29.90625 
Q 5.8125 33.546875 5.8125 39.890625 
Q 5.8125 47.609375 11.28125 51.796875 
Q 16.75 56 26.8125 56 
Q 31.78125 56 36.171875 55.265625 
Q 40.578125 54.546875 44.28125 53.078125 
z
" id="DejaVuSans-73"/>
      <path d="M 25.390625 72.90625 
L 33.6875 72.90625 
L 8.296875 -9.28125 
L 0 -9.28125 
z
" id="DejaVuSans-2f"/>
      <path d="M 45.40625 46.390625 
L 45.40625 75.984375 
L 54.390625 75.984375 
L 54.390625 0 
L 45.40625 0 
L 45.40625 8.203125 
Q 42.578125 3.328125 38.25 0.953125 
Q 33.9375 -1.421875 27.875 -1.421875 
Q 17.96875 -1.421875 11.734375 6.484375 
Q 5.515625 14.40625 5.515625 27.296875 
Q 5.515625 40.1875 11.734375 48.09375 
Q 17.96875 56 27.875 56 
Q 33.9375 56 38.25 53.625 
Q 42.578125 51.265625 45.40625 46.390625 
z
M 14.796875 27.296875 
Q 14.796875 17.390625 18.875 11.75 
Q 22.953125 6.109375 30.078125 6.109375 
Q 37.203125 6.109375 41.296875 11.75 
Q 45.40625 17.390625 45.40625 27.296875 
Q 45.40625 37.203125 41.296875 42.84375 
Q 37.203125 48.484375 30.078125 48.484375 
Q 22.953125 48.484375 18.875 42.84375 
Q 14.796875 37.203125 14.796875 27.296875 
z
" id="DejaVuSans-64"/>
      <path d="M 9.421875 54.6875 
L 18.40625 54.6875 
L 18.40625 0 
L 9.421875 0 
z
M 9.421875 75.984375 
L 18.40625 75.984375 
L 18.40625 64.59375 
L 9.421875 64.59375 
z
" id="DejaVuSans-69"/>
      <path d="M 52 44.1875 
Q 55.375 50.25 60.0625 53.125 
Q 64.75 56 71.09375 56 
Q 79.640625 56 84.28125 50.015625 
Q 88.921875 44.046875 88.921875 33.015625 
L 88.921875 0 
L 79.890625 0 
L 79.890625 32.71875 
Q 79.890625 40.578125 77.09375 44.375 
Q 74.3125 48.1875 68.609375 48.1875 
Q 61.625 48.1875 57.5625 43.546875 
Q 53.515625 38.921875 53.515625 30.90625 
L 53.515625 0 
L 44.484375 0 
L 44.484375 32.71875 
Q 44.484375 40.625 41.703125 44.40625 
Q 38.921875 48.1875 33.109375 48.1875 
Q 26.21875 48.1875 22.15625 43.53125 
Q 18.109375 38.875 18.109375 30.90625 
L 18.109375 0 
L 9.078125 0 
L 9.078125 54.6875 
L 18.109375 54.6875 
L 18.109375 46.1875 
Q 21.1875 51.21875 25.484375 53.609375 
Q 29.78125 56 35.6875 56 
Q 41.65625 56 45.828125 52.96875 
Q 50 49.953125 52 44.1875 
z
" id="DejaVuSans-6d"/>
      <path d="M 54.890625 33.015625 
L 54.890625 0 
L 45.90625 0 
L 45.90625 32.71875 
Q 45.90625 40.484375 42.875 44.328125 
Q 39.84375 48.1875 33.796875 48.1875 
Q 26.515625 48.1875 22.3125 43.546875 
Q 18.109375 38.921875 18.109375 30.90625 
L 18.109375 0 
L 9.078125 0 
L 9.078125 54.6875 
L 18.109375 54.6875 
L 18.109375 46.1875 
Q 21.34375 51.125 25.703125 53.5625 
Q 30.078125 56 35.796875 56 
Q 45.21875 56 50.046875 50.171875 
Q 54.890625 44.34375 54.890625 33.015625 
z
" id="DejaVuSans-6e"/>
      <path d="M 8.015625 75.875 
L 15.828125 75.875 
Q 23.140625 64.359375 26.78125 53.3125 
Q 30.421875 42.28125 30.421875 31.390625 
Q 30.421875 20.453125 26.78125 9.375 
Q 23.140625 -1.703125 15.828125 -13.1875 
L 8.015625 -13.1875 
Q 14.5 -2 17.703125 9.0625 
Q 20.90625 20.125 20.90625 31.390625 
Q 20.90625 42.671875 17.703125 53.65625 
Q 14.5 64.65625 8.015625 75.875 
z
" id="DejaVuSans-29"/>
     </defs>
     <g transform="translate(107.481219 337.433594)scale(0.17 -0.17)">
      <use xlink:href="#DejaVuSans-6c"/>
      <use x="27.783203" xlink:href="#DejaVuSans-6f"/>
      <use x="88.964844" xlink:href="#DejaVuSans-67"/>
      <use x="152.441406" xlink:href="#DejaVuSans-31"/>
      <use x="216.064453" xlink:href="#DejaVuSans-30"/>
      <use x="279.6875" xlink:href="#DejaVuSans-28"/>
      <use x="318.701172" xlink:href="#DejaVuSans-23"/>
      <use x="402.490234" xlink:href="#DejaVuSans-20"/>
      <use x="434.277344" xlink:href="#DejaVuSans-66"/>
      <use x="469.404297" xlink:href="#DejaVuSans-2d"/>
      <use x="505.488281" xlink:href="#DejaVuSans-65"/>
      <use x="567.011719" xlink:href="#DejaVuSans-76"/>
      <use x="626.191406" xlink:href="#DejaVuSans-61"/>
      <use x="687.470703" xlink:href="#DejaVuSans-6c"/>
      <use x="715.253906" xlink:href="#DejaVuSans-73"/>
      <use x="767.353516" xlink:href="#DejaVuSans-20"/>
      <use x="799.140625" xlink:href="#DejaVuSans-2f"/>
      <use x="832.832031" xlink:href="#DejaVuSans-20"/>
      <use x="864.619141" xlink:href="#DejaVuSans-64"/>
      <use x="928.095703" xlink:href="#DejaVuSans-69"/>
      <use x="955.878906" xlink:href="#DejaVuSans-6d"/>
      <use x="1053.291016" xlink:href="#DejaVuSans-65"/>
      <use x="1114.814453" xlink:href="#DejaVuSans-6e"/>
      <use x="1178.193359" xlink:href="#DejaVuSans-73"/>
      <use x="1230.292969" xlink:href="#DejaVuSans-69"/>
      <use x="1258.076172" xlink:href="#DejaVuSans-6f"/>
      <use x="1319.257812" xlink:href="#DejaVuSans-6e"/>
      <use x="1382.636719" xlink:href="#DejaVuSans-29"/>
     </g>
    </g>
   </g>
   <g id="matplotlib.axis_2">
    <g id="ytick_1">
     <g id="line2d_14">
      <path clip-path="url(#p58cfd41e99)" d="M 56.66 294.16 
L 399.984 294.16 
" style="fill:none;stroke:#b0b0b0;stroke-linecap:square;stroke-width:0.8;"/>
     </g>
     <g id="line2d_15">
      <defs>
       <path d="M 0 0 
L -3.5 0 
" id="m8513f6ed9a" style="stroke:#000000;stroke-width:0.8;"/>
      </defs>
      <g>
       <use style="stroke:#000000;stroke-width:0.8;" x="56.66" xlink:href="#m8513f6ed9a" y="294.16"/>
      </g>
     </g>
     <g id="text_7">
      <!-- 0.0 -->
      <defs>
       <path d="M 10.6875 12.40625 
L 21 12.40625 
L 21 0 
L 10.6875 0 
z
" id="DejaVuSans-2e"/>
      </defs>
      <g transform="translate(24.215 300.23875)scale(0.16 -0.16)">
       <use xlink:href="#DejaVuSans-30"/>
       <use x="63.623047" xlink:href="#DejaVuSans-2e"/>
       <use x="95.410156" xlink:href="#DejaVuSans-30"/>
      </g>
     </g>
    </g>
    <g id="ytick_2">
     <g id="line2d_16">
      <path clip-path="url(#p58cfd41e99)" d="M 56.66 240.829307 
L 399.984 240.829307 
" style="fill:none;stroke:#b0b0b0;stroke-linecap:square;stroke-width:0.8;"/>
     </g>
     <g id="line2d_17">
      <g>
       <use style="stroke:#000000;stroke-width:0.8;" x="56.66" xlink:href="#m8513f6ed9a" y="240.829307"/>
      </g>
     </g>
     <g id="text_8">
      <!-- 0.2 -->
      <g transform="translate(24.215 246.908057)scale(0.16 -0.16)">
       <use xlink:href="#DejaVuSans-30"/>
       <use x="63.623047" xlink:href="#DejaVuSans-2e"/>
       <use x="95.410156" xlink:href="#DejaVuSans-32"/>
      </g>
     </g>
    </g>
    <g id="ytick_3">
     <g id="line2d_18">
      <path clip-path="url(#p58cfd41e99)" d="M 56.66 187.498614 
L 399.984 187.498614 
" style="fill:none;stroke:#b0b0b0;stroke-linecap:square;stroke-width:0.8;"/>
     </g>
     <g id="line2d_19">
      <g>
       <use style="stroke:#000000;stroke-width:0.8;" x="56.66" xlink:href="#m8513f6ed9a" y="187.498614"/>
      </g>
     </g>
     <g id="text_9">
      <!-- 0.4 -->
      <g transform="translate(24.215 193.577364)scale(0.16 -0.16)">
       <use xlink:href="#DejaVuSans-30"/>
       <use x="63.623047" xlink:href="#DejaVuSans-2e"/>
       <use x="95.410156" xlink:href="#DejaVuSans-34"/>
      </g>
     </g>
    </g>
    <g id="ytick_4">
     <g id="line2d_20">
      <path clip-path="url(#p58cfd41e99)" d="M 56.66 134.167921 
L 399.984 134.167921 
" style="fill:none;stroke:#b0b0b0;stroke-linecap:square;stroke-width:0.8;"/>
     </g>
     <g id="line2d_21">
      <g>
       <use style="stroke:#000000;stroke-width:0.8;" x="56.66" xlink:href="#m8513f6ed9a" y="134.167921"/>
      </g>
     </g>
     <g id="text_10">
      <!-- 0.6 -->
      <g transform="translate(24.215 140.246671)scale(0.16 -0.16)">
       <use xlink:href="#DejaVuSans-30"/>
       <use x="63.623047" xlink:href="#DejaVuSans-2e"/>
       <use x="95.410156" xlink:href="#DejaVuSans-36"/>
      </g>
     </g>
    </g>
    <g id="ytick_5">
     <g id="line2d_22">
      <path clip-path="url(#p58cfd41e99)" d="M 56.66 80.837228 
L 399.984 80.837228 
" style="fill:none;stroke:#b0b0b0;stroke-linecap:square;stroke-width:0.8;"/>
     </g>
     <g id="line2d_23">
      <g>
       <use style="stroke:#000000;stroke-width:0.8;" x="56.66" xlink:href="#m8513f6ed9a" y="80.837228"/>
      </g>
     </g>
     <g id="text_11">
      <!-- 0.8 -->
      <g transform="translate(24.215 86.915978)scale(0.16 -0.16)">
       <use xlink:href="#DejaVuSans-30"/>
       <use x="63.623047" xlink:href="#DejaVuSans-2e"/>
       <use x="95.410156" xlink:href="#DejaVuSans-38"/>
      </g>
     </g>
    </g>
    <g id="ytick_6">
     <g id="line2d_24">
      <path clip-path="url(#p58cfd41e99)" d="M 56.66 27.506535 
L 399.984 27.506535 
" style="fill:none;stroke:#b0b0b0;stroke-linecap:square;stroke-width:0.8;"/>
     </g>
     <g id="line2d_25">
      <g>
       <use style="stroke:#000000;stroke-width:0.8;" x="56.66" xlink:href="#m8513f6ed9a" y="27.506535"/>
      </g>
     </g>
     <g id="text_12">
      <!-- 1.0 -->
      <g transform="translate(24.215 33.585285)scale(0.16 -0.16)">
       <use xlink:href="#DejaVuSans-31"/>
       <use x="63.623047" xlink:href="#DejaVuSans-2e"/>
       <use x="95.410156" xlink:href="#DejaVuSans-30"/>
      </g>
     </g>
    </g>
    <g id="text_13">
     <!-- Fraction of function,target pairs -->
     <defs>
      <path d="M 9.8125 72.90625 
L 51.703125 72.90625 
L 51.703125 64.59375 
L 19.671875 64.59375 
L 19.671875 43.109375 
L 48.578125 43.109375 
L 48.578125 34.8125 
L 19.671875 34.8125 
L 19.671875 0 
L 9.8125 0 
z
" id="DejaVuSans-46"/>
      <path d="M 41.109375 46.296875 
Q 39.59375 47.171875 37.8125 47.578125 
Q 36.03125 48 33.890625 48 
Q 26.265625 48 22.1875 43.046875 
Q 18.109375 38.09375 18.109375 28.8125 
L 18.109375 0 
L 9.078125 0 
L 9.078125 54.6875 
L 18.109375 54.6875 
L 18.109375 46.1875 
Q 20.953125 51.171875 25.484375 53.578125 
Q 30.03125 56 36.53125 56 
Q 37.453125 56 38.578125 55.875 
Q 39.703125 55.765625 41.0625 55.515625 
z
" id="DejaVuSans-72"/>
      <path d="M 48.78125 52.59375 
L 48.78125 44.1875 
Q 44.96875 46.296875 41.140625 47.34375 
Q 37.3125 48.390625 33.40625 48.390625 
Q 24.65625 48.390625 19.8125 42.84375 
Q 14.984375 37.3125 14.984375 27.296875 
Q 14.984375 17.28125 19.8125 11.734375 
Q 24.65625 6.203125 33.40625 6.203125 
Q 37.3125 6.203125 41.140625 7.25 
Q 44.96875 8.296875 48.78125 10.40625 
L 48.78125 2.09375 
Q 45.015625 0.34375 40.984375 -0.53125 
Q 36.96875 -1.421875 32.421875 -1.421875 
Q 20.0625 -1.421875 12.78125 6.34375 
Q 5.515625 14.109375 5.515625 27.296875 
Q 5.515625 40.671875 12.859375 48.328125 
Q 20.21875 56 33.015625 56 
Q 37.15625 56 41.109375 55.140625 
Q 45.0625 54.296875 48.78125 52.59375 
z
" id="DejaVuSans-63"/>
      <path d="M 18.3125 70.21875 
L 18.3125 54.6875 
L 36.8125 54.6875 
L 36.8125 47.703125 
L 18.3125 47.703125 
L 18.3125 18.015625 
Q 18.3125 11.328125 20.140625 9.421875 
Q 21.96875 7.515625 27.59375 7.515625 
L 36.8125 7.515625 
L 36.8125 0 
L 27.59375 0 
Q 17.1875 0 13.234375 3.875 
Q 9.28125 7.765625 9.28125 18.015625 
L 9.28125 47.703125 
L 2.6875 47.703125 
L 2.6875 54.6875 
L 9.28125 54.6875 
L 9.28125 70.21875 
z
" id="DejaVuSans-74"/>
      <path d="M 8.5 21.578125 
L 8.5 54.6875 
L 17.484375 54.6875 
L 17.484375 21.921875 
Q 17.484375 14.15625 20.5 10.265625 
Q 23.53125 6.390625 29.59375 6.390625 
Q 36.859375 6.390625 41.078125 11.03125 
Q 45.3125 15.671875 45.3125 23.6875 
L 45.3125 54.6875 
L 54.296875 54.6875 
L 54.296875 0 
L 45.3125 0 
L 45.3125 8.40625 
Q 42.046875 3.421875 37.71875 1 
Q 33.40625 -1.421875 27.6875 -1.421875 
Q 18.265625 -1.421875 13.375 4.4375 
Q 8.5 10.296875 8.5 21.578125 
z
M 31.109375 56 
z
" id="DejaVuSans-75"/>
      <path d="M 11.71875 12.40625 
L 22.015625 12.40625 
L 22.015625 4 
L 14.015625 -11.625 
L 7.71875 -11.625 
L 11.71875 4 
z
" id="DejaVuSans-2c"/>
      <path d="M 18.109375 8.203125 
L 18.109375 -20.796875 
L 9.078125 -20.796875 
L 9.078125 54.6875 
L 18.109375 54.6875 
L 18.109375 46.390625 
Q 20.953125 51.265625 25.265625 53.625 
Q 29.59375 56 35.59375 56 
Q 45.5625 56 51.78125 48.09375 
Q 58.015625 40.1875 58.015625 27.296875 
Q 58.015625 14.40625 51.78125 6.484375 
Q 45.5625 -1.421875 35.59375 -1.421875 
Q 29.59375 -1.421875 25.265625 0.953125 
Q 20.953125 3.328125 18.109375 8.203125 
z
M 48.6875 27.296875 
Q 48.6875 37.203125 44.609375 42.84375 
Q 40.53125 48.484375 33.40625 48.484375 
Q 26.265625 48.484375 22.1875 42.84375 
Q 18.109375 37.203125 18.109375 27.296875 
Q 18.109375 17.390625 22.1875 11.75 
Q 26.265625 6.109375 33.40625 6.109375 
Q 40.53125 6.109375 44.609375 11.75 
Q 48.6875 17.390625 48.6875 27.296875 
z
" id="DejaVuSans-70"/>
     </defs>
     <g transform="translate(16.679531 294.639375)rotate(-90)scale(0.17 -0.17)">
      <use xlink:href="#DejaVuSans-46"/>
      <use x="57.410156" xlink:href="#DejaVuSans-72"/>
      <use x="98.523438" xlink:href="#DejaVuSans-61"/>
      <use x="159.802734" xlink:href="#DejaVuSans-63"/>
      <use x="214.783203" xlink:href="#DejaVuSans-74"/>
      <use x="253.992188" xlink:href="#DejaVuSans-69"/>
      <use x="281.775391" xlink:href="#DejaVuSans-6f"/>
      <use x="342.957031" xlink:href="#DejaVuSans-6e"/>
      <use x="406.335938" xlink:href="#DejaVuSans-20"/>
      <use x="438.123047" xlink:href="#DejaVuSans-6f"/>
      <use x="499.304688" xlink:href="#DejaVuSans-66"/>
      <use x="534.509766" xlink:href="#DejaVuSans-20"/>
      <use x="566.296875" xlink:href="#DejaVuSans-66"/>
      <use x="601.501953" xlink:href="#DejaVuSans-75"/>
      <use x="664.880859" xlink:href="#DejaVuSans-6e"/>
      <use x="728.259766" xlink:href="#DejaVuSans-63"/>
      <use x="783.240234" xlink:href="#DejaVuSans-74"/>
      <use x="822.449219" xlink:href="#DejaVuSans-69"/>
      <use x="850.232422" xlink:href="#DejaVuSans-6f"/>
      <use x="911.414062" xlink:href="#DejaVuSans-6e"/>
      <use x="974.792969" xlink:href="#DejaVuSans-2c"/>
      <use x="1006.580078" xlink:href="#DejaVuSans-74"/>
      <use x="1045.789062" xlink:href="#DejaVuSans-61"/>
      <use x="1107.068359" xlink:href="#DejaVuSans-72"/>
      <use x="1148.166016" xlink:href="#DejaVuSans-67"/>
      <use x="1211.642578" xlink:href="#DejaVuSans-65"/>
      <use x="1273.166016" xlink:href="#DejaVuSans-74"/>
      <use x="1312.375" xlink:href="#DejaVuSans-20"/>
      <use x="1344.162109" xlink:href="#DejaVuSans-70"/>
      <use x="1407.638672" xlink:href="#DejaVuSans-61"/>
      <use x="1468.917969" xlink:href="#DejaVuSans-69"/>
      <use x="1496.701172" xlink:href="#DejaVuSans-72"/>
      <use x="1537.814453" xlink:href="#DejaVuSans-73"/>
     </g>
    </g>
   </g>
   <g id="line2d_26">
    <defs>
     <path d="M 0 1.5 
C 0.397805 1.5 0.77937 1.341951 1.06066 1.06066 
C 1.341951 0.77937 1.5 0.397805 1.5 0 
C 1.5 -0.397805 1.341951 -0.77937 1.06066 -1.06066 
C 0.77937 -1.341951 0.397805 -1.5 0 -1.5 
C -0.397805 -1.5 -0.77937 -1.341951 -1.06066 -1.06066 
C -1.341951 -0.77937 -1.5 -0.397805 -1.5 0 
C -1.5 0.397805 -1.341951 0.77937 -1.06066 1.06066 
C -0.77937 1.341951 -0.397805 1.5 0 1.5 
z
" id="m60298be533" style="stroke:#f5deb3;"/>
    </defs>
    <g>
     <use style="fill:#f5deb3;stroke:#f5deb3;" x="328.619779" xlink:href="#m60298be533" y="27.506535"/>
     <use style="fill:#f5deb3;stroke:#f5deb3;" x="328.619779" xlink:href="#m60298be533" y="27.506535"/>
    </g>
   </g>
   <g id="line2d_27">
    <g>
     <use style="fill:#f5deb3;stroke:#f5deb3;stroke-linejoin:miter;stroke-width:1.5;" x="309.408664" xlink:href="#m5aaa33aa5a" y="236.646507"/>
     <use style="fill:#f5deb3;stroke:#f5deb3;stroke-linejoin:miter;stroke-width:1.5;" x="328.617272" xlink:href="#m5aaa33aa5a" y="53.649031"/>
     <use style="fill:#f5deb3;stroke:#f5deb3;stroke-linejoin:miter;stroke-width:1.5;" x="328.619779" xlink:href="#m5aaa33aa5a" y="27.506535"/>
     <use style="fill:#f5deb3;stroke:#f5deb3;stroke-linejoin:miter;stroke-width:1.5;" x="333.534194" xlink:href="#m5aaa33aa5a" y="27.506535"/>
    </g>
   </g>
   <g id="line2d_28">
    <defs>
     <path d="M 0 1.5 
C 0.397805 1.5 0.77937 1.341951 1.06066 1.06066 
C 1.341951 0.77937 1.5 0.397805 1.5 0 
C 1.5 -0.397805 1.341951 -0.77937 1.06066 -1.06066 
C 0.77937 -1.341951 0.397805 -1.5 0 -1.5 
C -0.397805 -1.5 -0.77937 -1.341951 -1.06066 -1.06066 
C -1.341951 -0.77937 -1.5 -0.397805 -1.5 0 
C -1.5 0.397805 -1.341951 0.77937 -1.06066 1.06066 
C -0.77937 1.341951 -0.397805 1.5 0 1.5 
z
" id="mcc9a2474c6" style="stroke:#e6e6e6;"/>
    </defs>
    <g>
     <use style="fill:#e6e6e6;stroke:#e6e6e6;" x="262.656171" xlink:href="#mcc9a2474c6" y="288.931501"/>
     <use style="fill:#e6e6e6;stroke:#e6e6e6;" x="262.656171" xlink:href="#mcc9a2474c6" y="288.931501"/>
    </g>
   </g>
   <g id="line2d_29">
    <path d="M 195.059968 294.16 
L 195.059968 293.63715 
L 207.944093 293.63715 
L 207.944093 293.1143 
L 237.092082 293.1143 
L 237.092082 292.0686 
L 245.110487 292.0686 
L 245.110487 291.54575 
L 246.538449 291.54575 
L 246.538449 291.0229 
L 247.206138 291.0229 
L 247.206138 290.50005 
L 251.284789 290.50005 
L 251.284789 289.977201 
L 253.241261 289.977201 
L 253.241261 289.454351 
L 262.656171 289.454351 
L 262.656171 288.931501 
L 333.534194 288.931501 
" style="fill:none;stroke:#e6e6e6;stroke-linecap:square;stroke-width:1.5;"/>
   </g>
   <g id="line2d_30"/>
   <g id="line2d_31">
    <path d="M 0 0 
" style="fill:none;stroke:#e6e6e6;stroke-linecap:square;stroke-width:1.5;"/>
   </g>
   <g id="line2d_32">
    <path clip-path="url(#p58cfd41e99)" d="M 258.260407 289.454351 
" style="fill:none;stroke:#e6e6e6;stroke-linecap:square;stroke-width:1.5;"/>
    <defs>
     <path d="M -12 12 
L 12 -12 
M -12 -12 
L 12 12 
" id="m830561c83c" style="stroke:#e6e6e6;stroke-width:3;"/>
    </defs>
    <g clip-path="url(#p58cfd41e99)">
     <use style="fill:#e6e6e6;stroke:#e6e6e6;stroke-width:3;" x="258.260407" xlink:href="#m830561c83c" y="289.454351"/>
    </g>
   </g>
   <g id="line2d_33">
    <g>
     <use style="fill:#e6e6e6;stroke:#e6e6e6;" x="355.098734" xlink:href="#mcc9a2474c6" y="247.103506"/>
     <use style="fill:#e6e6e6;stroke:#e6e6e6;" x="355.098734" xlink:href="#mcc9a2474c6" y="247.103506"/>
    </g>
   </g>
   <g id="line2d_34">
    <path d="M 195.499072 294.16 
L 195.499072 293.63715 
L 196.183964 293.63715 
L 196.183964 292.59145 
L 197.680938 292.59145 
L 197.680938 292.0686 
L 198.325102 292.0686 
L 198.325102 291.54575 
L 198.883347 291.54575 
L 198.883347 291.0229 
L 199.339148 291.0229 
L 199.339148 289.977201 
L 200.055164 289.977201 
L 200.085968 288.931501 
L 200.858181 288.931501 
L 200.931728 287.362951 
L 201.12193 287.362951 
L 201.12193 286.840101 
L 201.55675 286.840101 
L 201.55675 286.317251 
L 201.760383 286.317251 
L 201.760383 285.794401 
L 201.917406 285.794401 
L 201.917406 285.271551 
L 202.426904 285.271551 
L 202.426904 284.748701 
L 203.147665 284.748701 
L 203.147665 284.225851 
L 203.535653 284.225851 
L 203.535653 283.703001 
L 249.827614 283.703001 
L 249.932443 282.657301 
L 250.048487 282.657301 
L 250.134153 280.043052 
L 250.240333 280.043052 
L 250.240333 279.520202 
L 271.716013 279.520202 
L 271.716013 278.997352 
L 287.532811 278.997352 
L 287.532811 278.474502 
L 288.751146 278.474502 
L 288.807895 277.428802 
L 290.09784 277.428802 
L 290.124531 275.860252 
L 290.283821 275.860252 
L 290.283821 275.337402 
L 291.180867 275.337402 
L 291.180867 274.814553 
L 291.317932 274.814553 
L 291.355293 273.768853 
L 291.491275 273.768853 
L 291.491275 273.246003 
L 295.248915 273.246003 
L 295.276195 271.677453 
L 298.199851 271.677453 
L 298.199851 271.154603 
L 304.097601 271.154603 
L 304.141289 269.586053 
L 304.610547 269.586053 
L 304.688456 268.017503 
L 304.740105 268.017503 
L 304.740105 267.494653 
L 306.550023 267.494653 
L 306.550023 266.971804 
L 308.130982 266.971804 
L 308.130982 266.448954 
L 310.929685 266.448954 
L 310.965616 265.403254 
L 311.28692 265.403254 
L 311.299104 263.834704 
L 311.686959 263.834704 
L 311.686959 263.311854 
L 311.971549 263.311854 
L 311.97634 262.266154 
L 313.308026 262.266154 
L 313.308026 261.743304 
L 316.397089 261.743304 
L 316.397089 261.220454 
L 317.138947 261.220454 
L 317.234258 259.651904 
L 318.142078 259.651904 
L 318.142078 259.129055 
L 318.955848 259.129055 
L 318.955848 258.606205 
L 320.706929 258.606205 
L 320.706929 258.083355 
L 321.13164 258.083355 
L 321.13164 257.560505 
L 322.56484 257.560505 
L 322.56484 257.037655 
L 323.990098 257.037655 
L 324.004604 255.991955 
L 324.328074 255.991955 
L 324.364188 254.423405 
L 324.989888 254.423405 
L 324.989888 253.900555 
L 326.756364 253.900555 
L 326.756364 253.377705 
L 326.921009 253.377705 
L 326.921009 252.854855 
L 329.137607 252.854855 
L 329.137607 252.332005 
L 333.534194 252.332005 
L 333.534194 252.332005 
" style="fill:none;stroke:#e6e6e6;stroke-linecap:square;stroke-width:1.5;"/>
   </g>
   <g id="line2d_35"/>
   <g id="line2d_36">
    <path d="M 0 0 
" style="fill:none;stroke:#e6e6e6;stroke-linecap:square;stroke-width:1.5;"/>
   </g>
   <g id="line2d_37">
    <path clip-path="url(#p58cfd41e99)" d="M 293.986104 273.246003 
" style="fill:none;stroke:#e6e6e6;stroke-linecap:square;stroke-width:1.5;"/>
    <g clip-path="url(#p58cfd41e99)">
     <use style="fill:#e6e6e6;stroke:#e6e6e6;stroke-width:3;" x="293.986104" xlink:href="#m830561c83c" y="273.246003"/>
    </g>
   </g>
   <g id="line2d_38">
    <path clip-path="url(#p58cfd41e99)" d="M 56.66 294.16 
L 56.66 294.16 
L 56.66 294.16 
L 56.66 294.16 
L 399.984 294.16 
" style="fill:none;stroke:#e6e6e6;stroke-linecap:square;stroke-width:1.5;"/>
   </g>
   <g id="line2d_39"/>
   <g id="line2d_40">
    <path clip-path="url(#p58cfd41e99)" d="M 0 0 
" style="fill:none;stroke:#e6e6e6;stroke-linecap:square;stroke-width:1.5;"/>
   </g>
   <g id="line2d_41">
    <path clip-path="url(#p58cfd41e99)" d="M 56.66 294.16 
L 56.66 294.16 
L 56.66 294.16 
L 56.66 294.16 
L 399.984 294.16 
" style="fill:none;stroke:#e6e6e6;stroke-linecap:square;stroke-width:1.5;"/>
   </g>
   <g id="line2d_42"/>
   <g id="line2d_43">
    <path clip-path="url(#p58cfd41e99)" d="M 0 0 
" style="fill:none;stroke:#e6e6e6;stroke-linecap:square;stroke-width:1.5;"/>
   </g>
   <g id="line2d_44">
    <g>
     <use style="fill:#e6e6e6;stroke:#e6e6e6;" x="361.513093" xlink:href="#mcc9a2474c6" y="27.506535"/>
     <use style="fill:#e6e6e6;stroke:#e6e6e6;" x="361.513093" xlink:href="#mcc9a2474c6" y="27.506535"/>
    </g>
   </g>
   <g id="line2d_45">
    <path d="M 176.95525 294.16 
L 176.95525 293.1143 
L 193.382631 293.1143 
L 193.382631 292.59145 
L 194.008238 292.59145 
L 194.008238 291.0229 
L 195.0454 291.0229 
L 195.0454 290.50005 
L 195.518827 290.50005 
L 195.518827 289.977201 
L 196.507619 289.977201 
L 196.507619 289.454351 
L 196.628412 289.454351 
L 196.628412 288.931501 
L 197.011187 288.931501 
L 197.011187 288.408651 
L 203.707458 288.408651 
L 203.792147 287.362951 
L 203.989522 287.362951 
L 203.989522 286.840101 
L 209.651681 286.840101 
L 209.651681 285.794401 
L 212.131138 285.794401 
L 212.131138 285.271551 
L 217.934963 285.271551 
L 217.934963 284.748701 
L 218.211826 284.748701 
L 218.211826 284.225851 
L 226.520982 284.225851 
L 226.520982 283.703001 
L 238.249268 283.703001 
L 238.249268 283.180151 
L 242.099336 283.180151 
L 242.176129 281.611602 
L 244.641839 281.611602 
L 244.680071 279.520202 
L 248.698771 279.520202 
L 248.698771 278.997352 
L 248.837005 278.997352 
L 248.837005 278.474502 
L 249.640833 278.474502 
L 249.640833 277.951652 
L 253.339583 277.951652 
L 253.357079 276.905952 
L 265.668909 276.905952 
L 265.76464 274.814553 
L 265.802611 274.814553 
L 265.802611 274.291703 
L 277.101547 274.291703 
L 277.138392 273.246003 
L 277.399216 273.246003 
L 277.416109 269.586053 
L 278.052151 269.586053 
L 278.055551 268.540353 
L 280.454325 268.540353 
L 280.454325 268.017503 
L 280.690736 268.017503 
L 280.788852 264.880404 
L 282.292529 264.880404 
L 282.370191 261.220454 
L 282.410737 261.220454 
L 282.519298 254.946255 
L 282.525529 254.946255 
L 282.634697 249.717756 
L 282.644233 249.717756 
L 282.665169 247.626356 
L 282.924683 247.626356 
L 282.924683 247.103506 
L 283.227526 247.103506 
L 283.291763 245.012106 
L 283.345274 245.012106 
L 283.345274 244.489256 
L 283.644043 244.489256 
L 283.644043 243.966407 
L 284.308156 243.966407 
L 284.308156 243.443557 
L 287.845642 243.443557 
L 287.845642 242.920707 
L 288.65091 242.920707 
L 288.65091 242.397857 
L 290.912707 242.397857 
L 290.912707 241.875007 
L 291.320351 241.875007 
L 291.320351 241.352157 
L 291.61405 241.352157 
L 291.61405 240.829307 
L 293.210775 240.829307 
L 293.210775 240.306457 
L 293.396879 240.306457 
L 293.396879 239.783607 
L 293.675599 239.783607 
L 293.771911 238.737907 
L 293.833949 238.737907 
L 293.844374 237.692207 
L 294.072475 237.692207 
L 294.072475 237.169357 
L 294.190699 237.169357 
L 294.281721 235.077958 
L 294.308268 235.077958 
L 294.312576 234.032258 
L 294.481297 234.032258 
L 294.481297 233.509408 
L 294.624758 233.509408 
L 294.628 232.463708 
L 294.778494 232.463708 
L 294.799821 230.895158 
L 295.046407 230.895158 
L 295.138759 229.326608 
L 295.160597 229.326608 
L 295.160597 228.803758 
L 295.447395 228.803758 
L 295.447395 228.280909 
L 296.290263 228.280909 
L 296.290263 227.758059 
L 299.196487 227.758059 
L 299.255199 226.189509 
L 299.482063 226.189509 
L 299.482063 225.666659 
L 299.725189 225.666659 
L 299.725189 225.143809 
L 299.894427 225.143809 
L 299.976567 223.575259 
L 300.100213 223.575259 
L 300.173074 222.006709 
L 300.216122 222.006709 
L 300.216122 221.483859 
L 300.402665 221.483859 
L 300.489979 220.43816 
L 300.53537 220.43816 
L 300.53537 219.91531 
L 300.65571 219.91531 
L 300.700532 218.86961 
L 300.768382 218.86961 
L 300.847649 216.77821 
L 300.917003 216.77821 
L 300.960517 214.16396 
L 301.100834 214.16396 
L 301.170918 212.072561 
L 301.232074 212.072561 
L 301.262502 211.026861 
L 301.420255 211.026861 
L 301.468002 209.981161 
L 301.622502 209.981161 
L 301.622502 209.458311 
L 301.739702 209.458311 
L 301.773107 207.889761 
L 301.912152 207.889761 
L 301.912152 207.366911 
L 302.079101 207.366911 
L 302.164046 205.275512 
L 302.485651 205.275512 
L 302.485651 204.752662 
L 302.698961 204.752662 
L 302.698961 204.229812 
L 302.898052 204.229812 
L 302.898052 203.706962 
L 304.493097 203.706962 
L 304.493097 203.184112 
L 304.606403 203.184112 
L 304.606403 202.661262 
L 304.786253 202.661262 
L 304.786253 202.138412 
L 305.040887 202.138412 
L 305.118651 200.569862 
L 305.174421 200.569862 
L 305.20034 199.524162 
L 305.291801 199.524162 
L 305.291801 199.001312 
L 305.421506 199.001312 
L 305.496928 197.955613 
L 305.566885 197.955613 
L 305.566885 197.432763 
L 305.808363 197.432763 
L 305.893101 195.341363 
L 305.947531 195.341363 
L 306.058536 192.204263 
L 306.061684 192.204263 
L 306.165043 189.590014 
L 306.243028 189.590014 
L 306.26208 188.544314 
L 306.401494 188.544314 
L 306.500072 187.498614 
L 306.719714 187.498614 
L 306.771789 186.452914 
L 306.909157 186.452914 
L 306.946245 184.884364 
L 307.030697 184.884364 
L 307.030697 184.361514 
L 309.06116 184.361514 
L 309.06116 183.838664 
L 309.237665 183.838664 
L 309.298264 182.792964 
L 309.513445 182.792964 
L 309.564491 181.224415 
L 309.657929 181.224415 
L 309.701493 179.133015 
L 309.813238 179.133015 
L 309.826745 178.087315 
L 309.987589 178.087315 
L 310.030578 176.518765 
L 310.17225 176.518765 
L 310.248271 174.950215 
L 310.496888 174.950215 
L 310.496888 174.427366 
L 311.533397 174.427366 
L 311.533397 173.904516 
L 312.264217 173.904516 
L 312.264217 173.381666 
L 312.401243 173.381666 
L 312.443835 171.813116 
L 312.514451 171.813116 
L 312.514451 171.290266 
L 312.750981 171.290266 
L 312.80132 169.198866 
L 312.918827 169.198866 
L 313.023547 167.107467 
L 313.038532 167.107467 
L 313.073162 166.061767 
L 313.212547 166.061767 
L 313.296018 164.493217 
L 313.378386 164.493217 
L 313.474077 163.447517 
L 313.500849 163.447517 
L 313.556295 162.401817 
L 313.614612 162.401817 
L 313.614612 161.878967 
L 313.815769 161.878967 
L 313.815769 161.356117 
L 313.948699 161.356117 
L 313.948699 160.833267 
L 314.18962 160.833267 
L 314.18962 160.310417 
L 314.631217 160.310417 
L 314.700592 158.741868 
L 314.75887 158.741868 
L 314.863609 157.696168 
L 314.913223 157.696168 
L 314.960963 156.650468 
L 315.071314 156.650468 
L 315.170854 155.604768 
L 315.288537 155.604768 
L 315.288537 155.081918 
L 315.495726 155.081918 
L 315.580163 152.990518 
L 315.607008 152.990518 
L 315.70643 151.944818 
L 315.745688 151.944818 
L 315.745688 151.421969 
L 315.893962 151.421969 
L 315.893962 150.899119 
L 316.062852 150.899119 
L 316.067571 149.853419 
L 316.603998 149.853419 
L 316.603998 149.330569 
L 316.988297 149.330569 
L 316.988297 148.807719 
L 317.138067 148.807719 
L 317.185722 147.762019 
L 317.375609 147.762019 
L 317.375731 146.716319 
L 317.51692 146.716319 
L 317.622862 145.147769 
L 317.737515 145.147769 
L 317.737515 144.624919 
L 317.930052 144.624919 
L 317.930052 144.10207 
L 318.107129 144.10207 
L 318.174478 143.05637 
L 318.227915 143.05637 
L 318.315572 142.01067 
L 318.555128 142.01067 
L 318.555128 141.48782 
L 318.688745 141.48782 
L 318.688745 140.96497 
L 319.156315 140.96497 
L 319.156315 140.44212 
L 319.415199 140.44212 
L 319.459905 139.39642 
L 319.537116 139.39642 
L 319.584635 137.82787 
L 319.767135 137.82787 
L 319.864115 135.213621 
L 319.914926 135.213621 
L 319.914926 134.690771 
L 320.046216 134.690771 
L 320.046216 134.167921 
L 320.269077 134.167921 
L 320.350783 132.599371 
L 320.615695 132.599371 
L 320.615695 132.076521 
L 320.931218 132.076521 
L 320.931218 131.553671 
L 321.068282 131.553671 
L 321.068282 131.030821 
L 321.358196 131.030821 
L 321.41743 129.985121 
L 321.700788 129.985121 
L 321.769992 128.939421 
L 321.833163 128.939421 
L 321.903428 127.893722 
L 322.062997 127.893722 
L 322.062997 127.370872 
L 322.24882 127.370872 
L 322.24882 126.848022 
L 322.386384 126.848022 
L 322.386384 126.325172 
L 322.757278 126.325172 
L 322.757278 125.802322 
L 322.938428 125.802322 
L 323.043542 124.756622 
L 323.060151 124.756622 
L 323.067551 123.710922 
L 323.64845 123.710922 
L 323.668077 122.665222 
L 323.79422 122.665222 
L 323.8715 121.096672 
L 324.039931 121.096672 
L 324.115503 120.050973 
L 324.171776 120.050973 
L 324.171776 119.528123 
L 324.333199 119.528123 
L 324.419681 117.436723 
L 324.469789 117.436723 
L 324.507009 115.868173 
L 324.647774 115.868173 
L 324.647774 115.345323 
L 324.759807 115.345323 
L 324.793613 114.299623 
L 324.896886 114.299623 
L 325.000047 112.731074 
L 325.050556 112.731074 
L 325.100516 111.685374 
L 325.335224 111.685374 
L 325.335224 111.162524 
L 325.537766 111.162524 
L 325.614739 110.116824 
L 325.698217 110.116824 
L 325.698217 109.593974 
L 325.865531 109.593974 
L 325.96898 107.502574 
L 326.081881 107.502574 
L 326.190592 106.456874 
L 326.333246 106.456874 
L 326.4326 104.365475 
L 326.583664 104.365475 
L 326.61632 102.796925 
L 326.895895 102.796925 
L 326.976551 101.228375 
L 327.144371 101.228375 
L 327.193543 99.659825 
L 327.310774 99.659825 
L 327.311496 98.614125 
L 327.986653 98.614125 
L 328.085546 95.477026 
L 328.165648 95.477026 
L 328.225361 94.431326 
L 328.387795 94.431326 
L 328.387795 93.908476 
L 328.714801 93.908476 
L 328.810491 92.862776 
L 328.830771 92.862776 
L 328.830771 92.339926 
L 328.962663 92.339926 
L 328.962663 91.817076 
L 329.254452 91.817076 
L 329.254452 91.294226 
L 329.415684 91.294226 
L 329.415684 90.771376 
L 329.537218 90.771376 
L 329.622271 89.202827 
L 329.89677 89.202827 
L 329.89677 88.679977 
L 330.037038 88.679977 
L 330.087873 87.634277 
L 330.444423 87.634277 
L 330.521134 86.065727 
L 330.605333 86.065727 
L 330.605333 85.542877 
L 330.757125 85.542877 
L 330.757125 85.020027 
L 330.897393 85.020027 
L 330.897393 84.497177 
L 331.132779 84.497177 
L 331.132779 83.974327 
L 331.443017 83.974327 
L 331.553083 82.405778 
L 331.740763 82.405778 
L 331.831721 80.314378 
L 331.879192 80.314378 
L 331.942226 79.268678 
L 332.037284 79.268678 
L 332.037284 78.745828 
L 332.173317 78.745828 
L 332.173317 78.222978 
L 332.354597 78.222978 
L 332.447916 77.177278 
L 332.814363 77.177278 
L 332.917974 76.131578 
L 333.499991 76.131578 
L 333.499991 75.608728 
L 333.534194 75.608728 
" style="fill:none;stroke:#e6e6e6;stroke-linecap:square;stroke-width:1.5;"/>
   </g>
   <g id="line2d_46"/>
   <g id="line2d_47">
    <path d="M 0 0 
" style="fill:none;stroke:#e6e6e6;stroke-linecap:square;stroke-width:1.5;"/>
   </g>
   <g id="line2d_48">
    <path clip-path="url(#p58cfd41e99)" d="M 282.124369 264.880404 
" style="fill:none;stroke:#e6e6e6;stroke-linecap:square;stroke-width:1.5;"/>
    <g clip-path="url(#p58cfd41e99)">
     <use style="fill:#e6e6e6;stroke:#e6e6e6;stroke-width:3;" x="282.124369" xlink:href="#m830561c83c" y="264.880404"/>
    </g>
   </g>
   <g id="line2d_49">
    <path clip-path="url(#p58cfd41e99)" d="M 56.66 294.16 
L 56.66 294.16 
L 56.66 294.16 
L 56.66 294.16 
L 399.984 294.16 
" style="fill:none;stroke:#e6e6e6;stroke-linecap:square;stroke-width:1.5;"/>
   </g>
   <g id="line2d_50"/>
   <g id="line2d_51">
    <path clip-path="url(#p58cfd41e99)" d="M 0 0 
" style="fill:none;stroke:#e6e6e6;stroke-linecap:square;stroke-width:1.5;"/>
   </g>
   <g id="line2d_52">
    <path clip-path="url(#p58cfd41e99)" d="M 56.66 294.16 
L 56.66 294.16 
L 56.66 294.16 
L 56.66 294.16 
L 399.984 294.16 
" style="fill:none;stroke:#e6e6e6;stroke-linecap:square;stroke-width:1.5;"/>
   </g>
   <g id="line2d_53"/>
   <g id="line2d_54">
    <path clip-path="url(#p58cfd41e99)" d="M 0 0 
" style="fill:none;stroke:#e6e6e6;stroke-linecap:square;stroke-width:1.5;"/>
   </g>
   <g id="line2d_55">
    <path clip-path="url(#p58cfd41e99)" d="M 56.66 294.16 
L 56.66 294.16 
L 56.66 294.16 
L 56.66 294.16 
L 399.984 294.16 
" style="fill:none;stroke:#e6e6e6;stroke-linecap:square;stroke-width:1.5;"/>
   </g>
   <g id="line2d_56"/>
   <g id="line2d_57">
    <path clip-path="url(#p58cfd41e99)" d="M 0 0 
" style="fill:none;stroke:#e6e6e6;stroke-linecap:square;stroke-width:1.5;"/>
   </g>
   <g id="line2d_58">
    <path clip-path="url(#p58cfd41e99)" d="M 56.66 294.16 
L 56.66 294.16 
L 56.66 294.16 
L 56.66 294.16 
L 399.984 294.16 
" style="fill:none;stroke:#e6e6e6;stroke-linecap:square;stroke-width:1.5;"/>
   </g>
   <g id="line2d_59"/>
   <g id="line2d_60">
    <path clip-path="url(#p58cfd41e99)" d="M 0 0 
" style="fill:none;stroke:#e6e6e6;stroke-linecap:square;stroke-width:1.5;"/>
   </g>
   <g id="line2d_61">
    <path clip-path="url(#p58cfd41e99)" d="M 56.66 294.16 
L 56.66 294.16 
L 56.66 294.16 
L 56.66 294.16 
L 399.984 294.16 
" style="fill:none;stroke:#e6e6e6;stroke-linecap:square;stroke-width:1.5;"/>
   </g>
   <g id="line2d_62"/>
   <g id="line2d_63">
    <path clip-path="url(#p58cfd41e99)" d="M 0 0 
" style="fill:none;stroke:#e6e6e6;stroke-linecap:square;stroke-width:1.5;"/>
   </g>
   <g id="line2d_64">
    <path clip-path="url(#p58cfd41e99)" d="M 56.66 294.16 
L 56.66 294.16 
L 56.66 294.16 
L 56.66 294.16 
L 399.984 294.16 
" style="fill:none;stroke:#e6e6e6;stroke-linecap:square;stroke-width:1.5;"/>
   </g>
   <g id="line2d_65"/>
   <g id="line2d_66">
    <path clip-path="url(#p58cfd41e99)" d="M 0 0 
" style="fill:none;stroke:#e6e6e6;stroke-linecap:square;stroke-width:1.5;"/>
   </g>
   <g id="line2d_67">
    <g>
     <use style="fill:#e6e6e6;stroke:#e6e6e6;" x="311.149454" xlink:href="#mcc9a2474c6" y="288.931501"/>
     <use style="fill:#e6e6e6;stroke:#e6e6e6;" x="311.149454" xlink:href="#mcc9a2474c6" y="288.931501"/>
    </g>
   </g>
   <g id="line2d_68">
    <path d="M 267.722546 294.16 
L 267.722546 293.1143 
L 274.237091 293.1143 
L 274.237091 292.59145 
L 278.949104 292.59145 
L 278.949104 291.54575 
L 288.262123 291.54575 
L 288.262123 291.0229 
L 295.878905 291.0229 
L 295.878905 290.50005 
L 302.234212 290.50005 
L 302.234212 289.454351 
L 311.149454 289.454351 
L 311.149454 288.931501 
L 333.534194 288.931501 
" style="fill:none;stroke:#e6e6e6;stroke-linecap:square;stroke-width:1.5;"/>
   </g>
   <g id="line2d_69"/>
   <g id="line2d_70">
    <path d="M 0 0 
" style="fill:none;stroke:#e6e6e6;stroke-linecap:square;stroke-width:1.5;"/>
   </g>
   <g id="line2d_71">
    <path clip-path="url(#p58cfd41e99)" d="M 254.427281 294.16 
" style="fill:none;stroke:#e6e6e6;stroke-linecap:square;stroke-width:1.5;"/>
    <g clip-path="url(#p58cfd41e99)">
     <use style="fill:#e6e6e6;stroke:#e6e6e6;stroke-width:3;" x="254.427281" xlink:href="#m830561c83c" y="294.16"/>
    </g>
   </g>
   <g id="line2d_72">
    <g>
     <use style="fill:#e6e6e6;stroke:#e6e6e6;" x="284.511116" xlink:href="#mcc9a2474c6" y="262.789004"/>
     <use style="fill:#e6e6e6;stroke:#e6e6e6;" x="284.511116" xlink:href="#mcc9a2474c6" y="262.789004"/>
    </g>
   </g>
   <g id="line2d_73">
    <path d="M 148.330892 294.16 
L 148.330892 293.63715 
L 153.087728 293.63715 
L 153.087728 292.59145 
L 154.751424 292.59145 
L 154.751424 292.0686 
L 157.637673 292.0686 
L 157.637673 291.54575 
L 177.978036 291.54575 
L 177.978036 291.0229 
L 179.776274 291.0229 
L 179.776274 290.50005 
L 183.280648 290.50005 
L 183.280648 289.454351 
L 188.959171 289.454351 
L 188.959171 287.885801 
L 189.208745 287.885801 
L 189.208745 287.362951 
L 189.80886 287.362951 
L 189.80886 286.840101 
L 195.397952 286.840101 
L 195.397952 286.317251 
L 196.661423 286.317251 
L 196.661423 285.794401 
L 196.856942 285.794401 
L 196.856942 285.271551 
L 196.873972 285.271551 
L 196.873972 284.748701 
L 197.876112 284.748701 
L 197.876112 284.225851 
L 198.893475 284.225851 
L 198.893475 283.703001 
L 202.499871 283.703001 
L 202.499871 282.657301 
L 202.913025 282.657301 
L 202.913025 282.134452 
L 204.264561 282.134452 
L 204.264561 281.088752 
L 205.339902 281.088752 
L 205.339902 280.565902 
L 206.013842 280.565902 
L 206.013842 280.043052 
L 206.336068 280.043052 
L 206.336068 279.520202 
L 211.750262 279.520202 
L 211.750262 277.951652 
L 220.30415 277.951652 
L 220.30415 277.428802 
L 221.685824 277.428802 
L 221.685824 276.905952 
L 221.685882 276.905952 
L 221.685882 276.383102 
L 221.826929 276.383102 
L 221.826929 275.860252 
L 222.916071 275.860252 
L 222.916071 275.337402 
L 222.916823 275.337402 
L 222.916823 274.814553 
L 222.918437 274.814553 
L 222.918437 274.291703 
L 222.9197 274.291703 
L 222.9197 273.768853 
L 229.557839 273.768853 
L 229.557839 273.246003 
L 230.546896 273.246003 
L 230.546896 272.723153 
L 236.344434 272.723153 
L 236.344434 272.200303 
L 236.392222 272.200303 
L 236.392222 271.677453 
L 236.734473 271.677453 
L 236.734473 271.154603 
L 236.811968 271.154603 
L 236.811968 270.631753 
L 236.920652 270.631753 
L 236.920652 270.108903 
L 240.832037 270.108903 
L 240.832037 269.586053 
L 241.063439 269.586053 
L 241.063439 269.063203 
L 241.121615 269.063203 
L 241.121615 268.540353 
L 241.123515 268.540353 
L 241.123515 268.017503 
L 244.154745 268.017503 
L 244.154745 267.494653 
L 244.427216 267.494653 
L 244.427216 266.971804 
L 244.476049 266.971804 
L 244.476049 266.448954 
L 247.132731 266.448954 
L 247.132731 265.926104 
L 253.743833 265.926104 
L 253.743833 265.403254 
L 262.079708 265.403254 
L 262.079708 264.880404 
L 265.998133 264.880404 
L 265.998133 264.357554 
L 265.998444 264.357554 
L 265.998444 263.834704 
L 272.487928 263.834704 
L 272.487928 263.311854 
L 284.511116 263.311854 
L 284.511116 262.789004 
L 333.534194 262.789004 
" style="fill:none;stroke:#e6e6e6;stroke-linecap:square;stroke-width:1.5;"/>
   </g>
   <g id="line2d_74"/>
   <g id="line2d_75">
    <path d="M 0 0 
" style="fill:none;stroke:#e6e6e6;stroke-linecap:square;stroke-width:1.5;"/>
   </g>
   <g id="line2d_76">
    <path clip-path="url(#p58cfd41e99)" d="M 214.878333 277.951652 
" style="fill:none;stroke:#e6e6e6;stroke-linecap:square;stroke-width:1.5;"/>
    <g clip-path="url(#p58cfd41e99)">
     <use style="fill:#e6e6e6;stroke:#e6e6e6;stroke-width:3;" x="214.878333" xlink:href="#m830561c83c" y="277.951652"/>
    </g>
   </g>
   <g id="line2d_77">
    <path clip-path="url(#p58cfd41e99)" d="M 56.66 294.16 
L 56.66 294.16 
L 56.66 294.16 
L 56.66 294.16 
L 399.984 294.16 
" style="fill:none;stroke:#e6e6e6;stroke-linecap:square;stroke-width:1.5;"/>
   </g>
   <g id="line2d_78"/>
   <g id="line2d_79">
    <path clip-path="url(#p58cfd41e99)" d="M 0 0 
" style="fill:none;stroke:#e6e6e6;stroke-linecap:square;stroke-width:1.5;"/>
   </g>
   <g id="line2d_80">
    <path clip-path="url(#p58cfd41e99)" d="M 56.66 294.16 
L 56.66 294.16 
L 56.66 294.16 
L 56.66 294.16 
L 399.984 294.16 
" style="fill:none;stroke:#e6e6e6;stroke-linecap:square;stroke-width:1.5;"/>
   </g>
   <g id="line2d_81"/>
   <g id="line2d_82">
    <path clip-path="url(#p58cfd41e99)" d="M 0 0 
" style="fill:none;stroke:#e6e6e6;stroke-linecap:square;stroke-width:1.5;"/>
   </g>
   <g id="line2d_83">
    <path clip-path="url(#p58cfd41e99)" d="M 56.66 294.16 
L 56.66 294.16 
L 56.66 294.16 
L 56.66 294.16 
L 399.984 294.16 
" style="fill:none;stroke:#e6e6e6;stroke-linecap:square;stroke-width:1.5;"/>
   </g>
   <g id="line2d_84"/>
   <g id="line2d_85">
    <path clip-path="url(#p58cfd41e99)" d="M 0 0 
" style="fill:none;stroke:#e6e6e6;stroke-linecap:square;stroke-width:1.5;"/>
   </g>
   <g id="line2d_86">
    <path clip-path="url(#p58cfd41e99)" d="M 56.66 294.16 
L 56.66 294.16 
L 56.66 294.16 
L 56.66 294.16 
L 399.984 294.16 
" style="fill:none;stroke:#e6e6e6;stroke-linecap:square;stroke-width:1.5;"/>
   </g>
   <g id="line2d_87"/>
   <g id="line2d_88">
    <path clip-path="url(#p58cfd41e99)" d="M 0 0 
" style="fill:none;stroke:#e6e6e6;stroke-linecap:square;stroke-width:1.5;"/>
   </g>
   <g id="line2d_89">
    <path clip-path="url(#p58cfd41e99)" d="M 56.66 294.16 
L 56.66 294.16 
L 56.66 294.16 
L 56.66 294.16 
L 399.984 294.16 
" style="fill:none;stroke:#e6e6e6;stroke-linecap:square;stroke-width:1.5;"/>
   </g>
   <g id="line2d_90"/>
   <g id="line2d_91">
    <path clip-path="url(#p58cfd41e99)" d="M 0 0 
" style="fill:none;stroke:#e6e6e6;stroke-linecap:square;stroke-width:1.5;"/>
   </g>
   <g id="line2d_92">
    <path clip-path="url(#p58cfd41e99)" d="M 56.66 294.16 
L 56.66 294.16 
L 56.66 294.16 
L 56.66 294.16 
L 399.984 294.16 
" style="fill:none;stroke:#e6e6e6;stroke-linecap:square;stroke-width:1.5;"/>
   </g>
   <g id="line2d_93"/>
   <g id="line2d_94">
    <path clip-path="url(#p58cfd41e99)" d="M 0 0 
" style="fill:none;stroke:#e6e6e6;stroke-linecap:square;stroke-width:1.5;"/>
   </g>
   <g id="line2d_95">
    <path clip-path="url(#p58cfd41e99)" d="M 56.66 294.16 
L 56.66 294.16 
L 56.66 294.16 
L 56.66 294.16 
L 399.984 294.16 
" style="fill:none;stroke:#e6e6e6;stroke-linecap:square;stroke-width:1.5;"/>
   </g>
   <g id="line2d_96"/>
   <g id="line2d_97">
    <path clip-path="url(#p58cfd41e99)" d="M 0 0 
" style="fill:none;stroke:#e6e6e6;stroke-linecap:square;stroke-width:1.5;"/>
   </g>
   <g id="line2d_98">
    <g>
     <use style="fill:#e6e6e6;stroke:#e6e6e6;" x="357.138688" xlink:href="#mcc9a2474c6" y="257.560505"/>
     <use style="fill:#e6e6e6;stroke:#e6e6e6;" x="357.138688" xlink:href="#mcc9a2474c6" y="257.560505"/>
    </g>
   </g>
   <g id="line2d_99">
    <path d="M 168.307831 294.16 
L 168.307831 293.63715 
L 170.811711 293.63715 
L 170.811711 293.1143 
L 172.550859 293.1143 
L 172.550859 292.0686 
L 174.049732 292.0686 
L 174.049732 291.0229 
L 176.452069 291.0229 
L 176.452069 290.50005 
L 178.262257 290.50005 
L 178.262257 289.977201 
L 179.283894 289.977201 
L 179.283894 288.931501 
L 179.289348 288.931501 
L 179.289348 287.885801 
L 179.494335 287.885801 
L 179.494335 286.317251 
L 180.155725 286.317251 
L 180.155725 285.794401 
L 184.954945 285.794401 
L 184.954945 285.271551 
L 205.091245 285.271551 
L 205.091245 284.748701 
L 206.142688 284.748701 
L 206.142688 283.703001 
L 206.862793 283.703001 
L 206.862793 283.180151 
L 207.18387 283.180151 
L 207.18387 282.657301 
L 220.465706 282.657301 
L 220.465706 282.134452 
L 221.569832 282.134452 
L 221.569832 281.611602 
L 240.495064 281.611602 
L 240.495064 280.565902 
L 240.641261 280.565902 
L 240.641261 278.997352 
L 253.738291 278.997352 
L 253.738291 278.474502 
L 266.830309 278.474502 
L 266.830309 277.951652 
L 267.051197 277.951652 
L 267.051197 277.428802 
L 267.07843 277.428802 
L 267.07843 276.383102 
L 267.224199 276.383102 
L 267.224199 275.860252 
L 267.294829 275.860252 
L 267.294829 275.337402 
L 267.335248 275.337402 
L 267.335248 274.814553 
L 267.843868 274.814553 
L 267.843868 274.291703 
L 268.333024 274.291703 
L 268.333024 273.768853 
L 268.76844 273.768853 
L 268.76844 273.246003 
L 268.869567 273.246003 
L 268.869567 272.723153 
L 268.966709 272.723153 
L 268.966709 271.677453 
L 269.321561 271.677453 
L 269.321561 270.108903 
L 269.328806 270.108903 
L 269.328806 269.586053 
L 269.902802 269.586053 
L 269.902802 268.540353 
L 281.943401 268.540353 
L 281.943401 268.017503 
L 282.616765 268.017503 
L 282.616765 267.494653 
L 282.720835 267.494653 
L 282.720835 266.971804 
L 283.362536 266.971804 
L 283.362536 266.448954 
L 284.478826 266.448954 
L 284.478826 265.926104 
L 286.478395 265.926104 
L 286.478395 265.403254 
L 300.821562 265.403254 
L 300.821562 264.880404 
L 301.227821 264.880404 
L 301.227821 264.357554 
L 302.543244 264.357554 
L 302.543244 263.834704 
L 302.544172 263.834704 
L 302.544172 263.311854 
L 309.779659 263.311854 
L 309.779659 262.789004 
L 309.780731 262.789004 
L 309.780731 262.266154 
L 316.208526 262.266154 
L 316.208526 261.743304 
L 323.295354 261.743304 
L 323.295354 261.220454 
L 328.612693 261.220454 
L 328.612693 260.697604 
L 333.534194 260.697604 
" style="fill:none;stroke:#e6e6e6;stroke-linecap:square;stroke-width:1.5;"/>
   </g>
   <g id="line2d_100"/>
   <g id="line2d_101">
    <path d="M 0 0 
" style="fill:none;stroke:#e6e6e6;stroke-linecap:square;stroke-width:1.5;"/>
   </g>
   <g id="line2d_102">
    <path clip-path="url(#p58cfd41e99)" d="M 293.983153 265.403254 
" style="fill:none;stroke:#e6e6e6;stroke-linecap:square;stroke-width:1.5;"/>
    <g clip-path="url(#p58cfd41e99)">
     <use style="fill:#e6e6e6;stroke:#e6e6e6;stroke-width:3;" x="293.983153" xlink:href="#m830561c83c" y="265.403254"/>
    </g>
   </g>
   <g id="line2d_103">
    <defs>
     <path d="M 0 1.5 
C 0.397805 1.5 0.77937 1.341951 1.06066 1.06066 
C 1.341951 0.77937 1.5 0.397805 1.5 0 
C 1.5 -0.397805 1.341951 -0.77937 1.06066 -1.06066 
C 0.77937 -1.341951 0.397805 -1.5 0 -1.5 
C -0.397805 -1.5 -0.77937 -1.341951 -1.06066 -1.06066 
C -1.341951 -0.77937 -1.5 -0.397805 -1.5 0 
C -1.5 0.397805 -1.341951 0.77937 -1.06066 1.06066 
C -0.77937 1.341951 -0.397805 1.5 0 1.5 
z
" id="mb025eee38c" style="stroke:#ff0000;"/>
    </defs>
    <g>
     <use style="fill:#ff0000;stroke:#ff0000;" x="318.25405" xlink:href="#mb025eee38c" y="262.789004"/>
     <use style="fill:#ff0000;stroke:#ff0000;" x="318.25405" xlink:href="#mb025eee38c" y="262.789004"/>
    </g>
   </g>
   <g id="line2d_104">
    <path d="M 154.764218 294.16 
L 154.764218 293.63715 
L 155.760755 293.63715 
L 155.760755 293.1143 
L 159.979475 293.1143 
L 159.979475 292.59145 
L 160.640045 292.59145 
L 160.640045 292.0686 
L 165.800205 292.0686 
L 165.800205 291.54575 
L 170.371737 291.54575 
L 170.371737 291.0229 
L 177.782684 291.0229 
L 177.782684 290.50005 
L 179.161395 290.50005 
L 179.161395 289.977201 
L 180.221712 289.977201 
L 180.221712 289.454351 
L 181.461743 289.454351 
L 181.461743 288.408651 
L 182.155779 288.408651 
L 182.155779 287.885801 
L 190.280844 287.885801 
L 190.280844 287.362951 
L 191.211116 287.362951 
L 191.211116 285.794401 
L 192.516805 285.794401 
L 192.516805 285.271551 
L 195.120153 285.271551 
L 195.120153 284.748701 
L 196.092704 284.748701 
L 196.092704 284.225851 
L 196.181797 284.225851 
L 196.181797 283.180151 
L 198.396079 283.180151 
L 198.396079 282.134452 
L 199.444064 282.134452 
L 199.444064 281.088752 
L 200.604713 281.088752 
L 200.604713 280.565902 
L 203.123596 280.565902 
L 203.123596 280.043052 
L 206.04496 280.043052 
L 206.04496 278.997352 
L 206.290475 278.997352 
L 206.290475 277.951652 
L 206.427735 277.951652 
L 206.427735 276.905952 
L 211.893271 276.905952 
L 211.893271 276.383102 
L 212.102145 276.383102 
L 212.102145 275.860252 
L 254.894685 275.860252 
L 254.894685 275.337402 
L 255.000256 275.337402 
L 255.000256 274.814553 
L 255.016394 274.814553 
L 255.016394 274.291703 
L 255.127082 274.291703 
L 255.127082 273.768853 
L 255.135487 273.768853 
L 255.135487 273.246003 
L 266.630534 273.246003 
L 266.630534 272.723153 
L 266.63085 272.723153 
L 266.63085 272.200303 
L 266.713127 272.200303 
L 266.713127 271.677453 
L 266.85201 271.677453 
L 266.85201 271.154603 
L 266.858742 271.154603 
L 266.858742 270.631753 
L 273.779368 270.631753 
L 273.779368 270.108903 
L 273.783021 270.108903 
L 273.783021 269.586053 
L 278.419176 269.586053 
L 278.419176 269.063203 
L 278.508469 269.063203 
L 278.508469 268.540353 
L 278.509291 268.540353 
L 278.509291 268.017503 
L 282.29128 268.017503 
L 282.29128 267.494653 
L 282.293615 267.494653 
L 282.293615 266.971804 
L 288.010558 266.971804 
L 288.010558 266.448954 
L 288.014735 266.448954 
L 288.014735 265.926104 
L 292.342848 265.926104 
L 292.342848 265.403254 
L 295.759767 265.403254 
L 295.759767 264.880404 
L 297.242805 264.880404 
L 297.242805 264.357554 
L 301.051761 264.357554 
L 301.051761 263.834704 
L 309.090855 263.834704 
L 309.090855 263.311854 
L 318.25405 263.311854 
L 318.25405 262.789004 
L 333.534194 262.789004 
" style="fill:none;stroke:#ff0000;stroke-linecap:square;stroke-width:1.5;"/>
   </g>
   <g id="line2d_105">
    <defs>
     <path d="M 0 -6 
L -5.196152 -3 
L -5.196152 3 
L -0 6 
L 5.196152 3 
L 5.196152 -3 
z
" id="ma4e4177bc5" style="stroke:#ff0000;stroke-linejoin:miter;stroke-width:1.5;"/>
    </defs>
    <g>
     <use style="fill:none;stroke:#ff0000;stroke-linejoin:miter;stroke-width:1.5;" x="212.102145" xlink:href="#ma4e4177bc5" y="276.383102"/>
     <use style="fill:none;stroke:#ff0000;stroke-linejoin:miter;stroke-width:1.5;" x="309.090855" xlink:href="#ma4e4177bc5" y="263.834704"/>
     <use style="fill:none;stroke:#ff0000;stroke-linejoin:miter;stroke-width:1.5;" x="318.25405" xlink:href="#ma4e4177bc5" y="262.789004"/>
     <use style="fill:none;stroke:#ff0000;stroke-linejoin:miter;stroke-width:1.5;" x="333.534194" xlink:href="#ma4e4177bc5" y="262.789004"/>
    </g>
   </g>
   <g id="line2d_106">
    <path d="M 0 0 
" style="fill:none;stroke:#ff0000;stroke-linecap:square;stroke-width:1.5;"/>
    <g>
     <use style="fill:none;stroke:#ff0000;stroke-linejoin:miter;stroke-width:1.5;" x="0" xlink:href="#ma4e4177bc5" y="0"/>
    </g>
   </g>
   <g id="line2d_107">
    <path clip-path="url(#p58cfd41e99)" d="M 254.436035 275.860252 
" style="fill:none;stroke:#ff0000;stroke-linecap:square;stroke-width:1.5;"/>
    <defs>
     <path d="M -12 12 
L 12 -12 
M -12 -12 
L 12 12 
" id="mcba1d05fce" style="stroke:#ff0000;stroke-width:3;"/>
    </defs>
    <g clip-path="url(#p58cfd41e99)">
     <use style="fill:#ff0000;stroke:#ff0000;stroke-width:3;" x="254.436035" xlink:href="#mcba1d05fce" y="275.860252"/>
    </g>
   </g>
   <g id="line2d_108">
    <defs>
     <path d="M 0 1.5 
C 0.397805 1.5 0.77937 1.341951 1.06066 1.06066 
C 1.341951 0.77937 1.5 0.397805 1.5 0 
C 1.5 -0.397805 1.341951 -0.77937 1.06066 -1.06066 
C 0.77937 -1.341951 0.397805 -1.5 0 -1.5 
C -0.397805 -1.5 -0.77937 -1.341951 -1.06066 -1.06066 
C -1.341951 -0.77937 -1.5 -0.397805 -1.5 0 
C -1.5 0.397805 -1.341951 0.77937 -1.06066 1.06066 
C -0.77937 1.341951 -0.397805 1.5 0 1.5 
z
" id="m91485fbd26" style="stroke:#9acd32;"/>
    </defs>
    <g>
     <use style="fill:#9acd32;stroke:#9acd32;" x="312.110041" xlink:href="#m91485fbd26" y="231.418008"/>
     <use style="fill:#9acd32;stroke:#9acd32;" x="312.110041" xlink:href="#m91485fbd26" y="231.418008"/>
    </g>
   </g>
   <g id="line2d_109">
    <path d="M 131.16532 294.16 
L 131.16532 293.63715 
L 159.748202 293.63715 
L 159.76308 291.0229 
L 160.120505 291.0229 
L 160.120505 290.50005 
L 161.202066 290.50005 
L 161.202066 289.454351 
L 162.069737 289.454351 
L 162.069737 288.931501 
L 172.526622 288.931501 
L 172.526622 288.408651 
L 172.89158 288.408651 
L 172.896031 287.362951 
L 173.357127 287.362951 
L 173.357127 286.840101 
L 173.702674 286.840101 
L 173.702674 285.794401 
L 173.933737 285.794401 
L 173.933737 284.748701 
L 174.208529 284.748701 
L 174.208529 284.225851 
L 183.88483 284.225851 
L 183.88483 283.703001 
L 184.375446 283.703001 
L 184.437441 282.134452 
L 184.591332 282.134452 
L 184.647315 280.565902 
L 184.73517 280.565902 
L 184.73517 280.043052 
L 184.861557 280.043052 
L 184.861557 279.520202 
L 195.272591 279.520202 
L 195.272591 278.997352 
L 205.792315 278.997352 
L 205.792315 277.951652 
L 205.951149 277.951652 
L 205.951149 276.905952 
L 206.80883 276.905952 
L 206.80883 276.383102 
L 216.337144 276.383102 
L 216.440749 275.337402 
L 216.632929 275.337402 
L 216.632929 274.814553 
L 216.84195 274.814553 
L 216.84195 274.291703 
L 216.973641 274.291703 
L 216.973641 273.246003 
L 217.162764 273.246003 
L 217.171708 272.200303 
L 217.642712 272.200303 
L 217.642712 271.677453 
L 237.900523 271.677453 
L 237.900523 270.631753 
L 238.287366 270.631753 
L 238.287366 270.108903 
L 254.477517 270.108903 
L 254.582446 268.017503 
L 254.59941 268.017503 
L 254.600906 266.971804 
L 254.714122 266.971804 
L 254.753291 263.834704 
L 254.979904 263.834704 
L 254.979904 263.311854 
L 255.454489 263.311854 
L 255.468378 262.266154 
L 256.111185 262.266154 
L 256.111185 261.743304 
L 256.234456 261.743304 
L 256.234456 261.220454 
L 260.095707 261.220454 
L 260.195048 259.651904 
L 266.370068 259.651904 
L 266.438051 258.606205 
L 266.497358 258.606205 
L 266.497358 258.083355 
L 266.620829 258.083355 
L 266.620829 257.560505 
L 267.276712 257.560505 
L 267.329832 255.469105 
L 269.369937 255.469105 
L 269.408383 253.900555 
L 273.413277 253.900555 
L 273.491143 252.332005 
L 273.616659 252.332005 
L 273.660211 250.240606 
L 273.916781 250.240606 
L 273.916781 249.717756 
L 275.390763 249.717756 
L 275.444468 248.149206 
L 276.988462 248.149206 
L 277.019597 247.103506 
L 278.291804 247.103506 
L 278.299081 246.057806 
L 278.509244 246.057806 
L 278.509244 245.534956 
L 278.679487 245.534956 
L 278.728815 244.489256 
L 282.072599 244.489256 
L 282.072599 243.966407 
L 282.24014 243.966407 
L 282.24014 243.443557 
L 282.407783 243.443557 
L 282.407783 242.920707 
L 283.379883 242.920707 
L 283.402546 241.875007 
L 285.297898 241.875007 
L 285.297898 241.352157 
L 285.511635 241.352157 
L 285.511635 240.829307 
L 290.411061 240.829307 
L 290.411061 240.306457 
L 290.974757 240.306457 
L 290.974757 239.783607 
L 292.275932 239.783607 
L 292.275932 239.260757 
L 292.903254 239.260757 
L 292.903254 238.737907 
L 294.643279 238.737907 
L 294.644252 237.692207 
L 295.192854 237.692207 
L 295.192854 237.169357 
L 296.230265 237.169357 
L 296.230265 236.646507 
L 296.695182 236.646507 
L 296.704799 235.077958 
L 297.274245 235.077958 
L 297.274245 234.555108 
L 297.647426 234.555108 
L 297.647426 234.032258 
L 298.1047 234.032258 
L 298.1047 233.509408 
L 301.759772 233.509408 
L 301.759772 232.986558 
L 302.804875 232.986558 
L 302.804875 232.463708 
L 305.349753 232.463708 
L 305.349753 231.940858 
L 312.110041 231.940858 
L 312.110041 231.418008 
L 333.534194 231.418008 
L 333.534194 231.418008 
" style="fill:none;stroke:#9acd32;stroke-linecap:square;stroke-width:1.5;"/>
   </g>
   <g id="line2d_110">
    <defs>
     <path d="M 0 -6 
L -6 6 
L 6 6 
z
" id="m6c491b1543" style="stroke:#9acd32;stroke-linejoin:miter;stroke-width:1.5;"/>
    </defs>
    <g>
     <use style="fill:none;stroke:#9acd32;stroke-linejoin:miter;stroke-width:1.5;" x="216.84195" xlink:href="#m6c491b1543" y="274.814553"/>
     <use style="fill:none;stroke:#9acd32;stroke-linejoin:miter;stroke-width:1.5;" x="278.728815" xlink:href="#m6c491b1543" y="245.012106"/>
     <use style="fill:none;stroke:#9acd32;stroke-linejoin:miter;stroke-width:1.5;" x="312.110041" xlink:href="#m6c491b1543" y="231.940858"/>
     <use style="fill:none;stroke:#9acd32;stroke-linejoin:miter;stroke-width:1.5;" x="312.110041" xlink:href="#m6c491b1543" y="231.418008"/>
     <use style="fill:none;stroke:#9acd32;stroke-linejoin:miter;stroke-width:1.5;" x="333.534194" xlink:href="#m6c491b1543" y="231.418008"/>
    </g>
   </g>
   <g id="line2d_111">
    <path d="M 0 0 
" style="fill:none;stroke:#9acd32;stroke-linecap:square;stroke-width:1.5;"/>
    <g>
     <use style="fill:none;stroke:#9acd32;stroke-linejoin:miter;stroke-width:1.5;" x="0" xlink:href="#m6c491b1543" y="0"/>
    </g>
   </g>
   <g id="line2d_112">
    <path clip-path="url(#p58cfd41e99)" d="M 254.436748 270.108903 
" style="fill:none;stroke:#9acd32;stroke-linecap:square;stroke-width:1.5;"/>
    <defs>
     <path d="M -12 12 
L 12 -12 
M -12 -12 
L 12 12 
" id="m2a89241ac9" style="stroke:#9acd32;stroke-width:3;"/>
    </defs>
    <g clip-path="url(#p58cfd41e99)">
     <use style="fill:#9acd32;stroke:#9acd32;stroke-width:3;" x="254.436748" xlink:href="#m2a89241ac9" y="270.108903"/>
    </g>
   </g>
   <g id="line2d_113">
    <defs>
     <path d="M 0 1.5 
C 0.397805 1.5 0.77937 1.341951 1.06066 1.06066 
C 1.341951 0.77937 1.5 0.397805 1.5 0 
C 1.5 -0.397805 1.341951 -0.77937 1.06066 -1.06066 
C 0.77937 -1.341951 0.397805 -1.5 0 -1.5 
C -0.397805 -1.5 -0.77937 -1.341951 -1.06066 -1.06066 
C -1.341951 -0.77937 -1.5 -0.397805 -1.5 0 
C -1.5 0.397805 -1.341951 0.77937 -1.06066 1.06066 
C -0.77937 1.341951 -0.397805 1.5 0 1.5 
z
" id="m0d8d5a5a8e" style="stroke:#00bfbf;"/>
    </defs>
    <g>
     <use style="fill:#00bfbf;stroke:#00bfbf;" x="329.91546" xlink:href="#m0d8d5a5a8e" y="241.875007"/>
     <use style="fill:#00bfbf;stroke:#00bfbf;" x="329.91546" xlink:href="#m0d8d5a5a8e" y="241.875007"/>
    </g>
   </g>
   <g id="line2d_114">
    <path d="M 140.283673 294.16 
L 140.283673 293.63715 
L 156.303238 293.63715 
L 156.303238 293.1143 
L 158.282988 293.1143 
L 158.282988 292.0686 
L 161.436865 292.0686 
L 161.436865 291.0229 
L 171.136369 291.0229 
L 171.136369 290.50005 
L 171.999168 290.50005 
L 171.999168 289.977201 
L 172.379969 289.977201 
L 172.379969 289.454351 
L 172.552373 289.454351 
L 172.552373 288.931501 
L 174.50198 288.931501 
L 174.50198 287.885801 
L 175.170701 287.885801 
L 175.170701 286.840101 
L 178.508355 286.840101 
L 178.508355 285.794401 
L 178.972174 285.794401 
L 178.972174 285.271551 
L 186.667358 285.271551 
L 186.667358 284.748701 
L 190.82296 284.748701 
L 190.926451 283.703001 
L 193.223284 283.703001 
L 193.223284 282.657301 
L 193.675284 282.657301 
L 193.675284 282.134452 
L 195.329625 282.134452 
L 195.329625 281.611602 
L 198.111078 281.611602 
L 198.111078 281.088752 
L 198.725534 281.088752 
L 198.833052 279.520202 
L 203.821102 279.520202 
L 203.821102 278.997352 
L 215.318048 278.997352 
L 215.318048 278.474502 
L 215.785519 278.474502 
L 215.785519 277.951652 
L 253.840639 277.951652 
L 253.840639 277.428802 
L 253.973783 277.428802 
L 253.973783 276.905952 
L 254.634887 276.905952 
L 254.654406 274.291703 
L 254.978295 274.291703 
L 254.990746 273.246003 
L 255.293152 273.246003 
L 255.293152 272.723153 
L 256.129781 272.723153 
L 256.164031 271.677453 
L 266.043337 271.677453 
L 266.076858 270.108903 
L 266.592664 270.108903 
L 266.672875 268.540353 
L 266.785243 268.540353 
L 266.823182 266.971804 
L 273.076115 266.971804 
L 273.111691 265.926104 
L 273.364041 265.926104 
L 273.377935 264.880404 
L 273.894952 264.880404 
L 273.894952 264.357554 
L 278.378005 264.357554 
L 278.413609 263.311854 
L 281.942801 263.311854 
L 281.973637 262.266154 
L 282.214957 262.266154 
L 282.26019 261.220454 
L 285.09595 261.220454 
L 285.122323 259.129055 
L 285.359415 259.129055 
L 285.360022 258.083355 
L 287.782249 258.083355 
L 287.795253 257.037655 
L 290.068924 257.037655 
L 290.095237 255.991955 
L 292.112374 255.991955 
L 292.125587 254.946255 
L 292.253988 254.946255 
L 292.279344 253.900555 
L 293.933767 253.900555 
L 293.933767 253.377705 
L 295.573807 253.377705 
L 295.584551 252.332005 
L 297.074883 252.332005 
L 297.083085 250.763456 
L 299.725992 250.763456 
L 299.725992 250.240606 
L 300.92 250.240606 
L 301.013006 249.194906 
L 302.018557 249.194906 
L 302.018557 248.672056 
L 304.051515 248.672056 
L 304.051515 248.149206 
L 304.976556 248.149206 
L 304.977619 247.103506 
L 305.872978 247.103506 
L 305.872978 246.580656 
L 307.500453 246.580656 
L 307.500453 246.057806 
L 308.333899 246.057806 
L 308.333899 245.534956 
L 309.003163 245.534956 
L 309.003163 245.012106 
L 311.033556 245.012106 
L 311.033556 244.489256 
L 311.657333 244.489256 
L 311.657333 243.966407 
L 312.835907 243.966407 
L 312.835907 243.443557 
L 316.446276 243.443557 
L 316.446276 242.920707 
L 319.811763 242.920707 
L 319.811763 242.397857 
L 329.91546 242.397857 
L 329.91546 241.875007 
L 333.534194 241.875007 
L 333.534194 241.875007 
" style="fill:none;stroke:#00bfbf;stroke-linecap:square;stroke-width:1.5;"/>
   </g>
   <g id="line2d_115">
    <defs>
     <path d="M 0 -6 
L -5.706339 -1.854102 
L -3.526712 4.854102 
L 3.526712 4.854102 
L 5.706339 -1.854102 
z
" id="m2d91e95f5d" style="stroke:#00bfbf;stroke-linejoin:miter;stroke-width:1.5;"/>
    </defs>
    <g>
     <use style="fill:none;stroke:#00bfbf;stroke-linejoin:miter;stroke-width:1.5;" x="203.821102" xlink:href="#m2d91e95f5d" y="278.997352"/>
     <use style="fill:none;stroke:#00bfbf;stroke-linejoin:miter;stroke-width:1.5;" x="278.378005" xlink:href="#m2d91e95f5d" y="263.834704"/>
     <use style="fill:none;stroke:#00bfbf;stroke-linejoin:miter;stroke-width:1.5;" x="329.91546" xlink:href="#m2d91e95f5d" y="241.875007"/>
     <use style="fill:none;stroke:#00bfbf;stroke-linejoin:miter;stroke-width:1.5;" x="329.91546" xlink:href="#m2d91e95f5d" y="241.875007"/>
     <use style="fill:none;stroke:#00bfbf;stroke-linejoin:miter;stroke-width:1.5;" x="333.534194" xlink:href="#m2d91e95f5d" y="241.875007"/>
    </g>
   </g>
   <g id="line2d_116">
    <path d="M 0 0 
" style="fill:none;stroke:#00bfbf;stroke-linecap:square;stroke-width:1.5;"/>
    <g>
     <use style="fill:none;stroke:#00bfbf;stroke-linejoin:miter;stroke-width:1.5;" x="0" xlink:href="#m2d91e95f5d" y="0"/>
    </g>
   </g>
   <g id="line2d_117">
    <path clip-path="url(#p58cfd41e99)" d="M 254.433009 276.905952 
" style="fill:none;stroke:#00bfbf;stroke-linecap:square;stroke-width:1.5;"/>
    <defs>
     <path d="M -12 12 
L 12 -12 
M -12 -12 
L 12 12 
" id="mf902e0c59e" style="stroke:#00bfbf;stroke-width:3;"/>
    </defs>
    <g clip-path="url(#p58cfd41e99)">
     <use style="fill:#00bfbf;stroke:#00bfbf;stroke-width:3;" x="254.433009" xlink:href="#mf902e0c59e" y="276.905952"/>
    </g>
   </g>
   <g id="line2d_118">
    <path d="M 333.534194 262.789004 
L 363.990355 288.826931 
" style="fill:none;stroke:#ff0000;stroke-linecap:square;stroke-width:1.5;"/>
    <g>
     <use style="fill:none;stroke:#ff0000;stroke-linejoin:miter;stroke-width:1.5;" x="333.534194" xlink:href="#ma4e4177bc5" y="262.789004"/>
     <use style="fill:none;stroke:#ff0000;stroke-linejoin:miter;stroke-width:1.5;" x="363.990355" xlink:href="#ma4e4177bc5" y="288.826931"/>
    </g>
   </g>
   <g id="line2d_119">
    <path d="M 333.534194 241.875007 
L 363.990355 203.497822 
" style="fill:none;stroke:#00bfbf;stroke-linecap:square;stroke-width:1.5;"/>
    <g>
     <use style="fill:none;stroke:#00bfbf;stroke-linejoin:miter;stroke-width:1.5;" x="333.534194" xlink:href="#m2d91e95f5d" y="241.875007"/>
     <use style="fill:none;stroke:#00bfbf;stroke-linejoin:miter;stroke-width:1.5;" x="363.990355" xlink:href="#m2d91e95f5d" y="203.497822"/>
    </g>
   </g>
   <g id="line2d_120">
    <path d="M 333.534194 231.418008 
L 363.990355 118.168713 
" style="fill:none;stroke:#9acd32;stroke-linecap:square;stroke-width:1.5;"/>
    <g>
     <use style="fill:none;stroke:#9acd32;stroke-linejoin:miter;stroke-width:1.5;" x="333.534194" xlink:href="#m6c491b1543" y="231.418008"/>
     <use style="fill:none;stroke:#9acd32;stroke-linejoin:miter;stroke-width:1.5;" x="363.990355" xlink:href="#m6c491b1543" y="118.168713"/>
    </g>
   </g>
   <g id="line2d_121">
    <path d="M 333.534194 294.16 
L 333.534194 27.506535 
" style="fill:none;stroke:#000000;stroke-linecap:square;stroke-width:1.5;"/>
   </g>
   <g id="patch_3">
    <path d="M 56.66 294.16 
L 56.66 24.84 
" style="fill:none;stroke:#000000;stroke-linecap:square;stroke-linejoin:miter;stroke-width:0.8;"/>
   </g>
   <g id="patch_4">
    <path d="M 399.984 294.16 
L 399.984 24.84 
" style="fill:none;stroke:#000000;stroke-linecap:square;stroke-linejoin:miter;stroke-width:0.8;"/>
   </g>
   <g id="patch_5">
    <path d="M 56.66 294.16 
L 399.984 294.16 
" style="fill:none;stroke:#000000;stroke-linecap:square;stroke-linejoin:miter;stroke-width:0.8;"/>
   </g>
   <g id="patch_6">
    <path d="M 56.66 24.84 
L 399.984 24.84 
" style="fill:none;stroke:#000000;stroke-linecap:square;stroke-linejoin:miter;stroke-width:0.8;"/>
   </g>
   <g id="text_14">
    <!-- CMA-CSA-A -->
    <defs>
     <path d="M 64.40625 67.28125 
L 64.40625 56.890625 
Q 59.421875 61.53125 53.78125 63.8125 
Q 48.140625 66.109375 41.796875 66.109375 
Q 29.296875 66.109375 22.65625 58.46875 
Q 16.015625 50.828125 16.015625 36.375 
Q 16.015625 21.96875 22.65625 14.328125 
Q 29.296875 6.6875 41.796875 6.6875 
Q 48.140625 6.6875 53.78125 8.984375 
Q 59.421875 11.28125 64.40625 15.921875 
L 64.40625 5.609375 
Q 59.234375 2.09375 53.4375 0.328125 
Q 47.65625 -1.421875 41.21875 -1.421875 
Q 24.65625 -1.421875 15.125 8.703125 
Q 5.609375 18.84375 5.609375 36.375 
Q 5.609375 53.953125 15.125 64.078125 
Q 24.65625 74.21875 41.21875 74.21875 
Q 47.75 74.21875 53.53125 72.484375 
Q 59.328125 70.75 64.40625 67.28125 
z
" id="DejaVuSans-43"/>
     <path d="M 9.8125 72.90625 
L 24.515625 72.90625 
L 43.109375 23.296875 
L 61.8125 72.90625 
L 76.515625 72.90625 
L 76.515625 0 
L 66.890625 0 
L 66.890625 64.015625 
L 48.09375 14.015625 
L 38.1875 14.015625 
L 19.390625 64.015625 
L 19.390625 0 
L 9.8125 0 
z
" id="DejaVuSans-4d"/>
     <path d="M 34.1875 63.1875 
L 20.796875 26.90625 
L 47.609375 26.90625 
z
M 28.609375 72.90625 
L 39.796875 72.90625 
L 67.578125 0 
L 57.328125 0 
L 50.6875 18.703125 
L 17.828125 18.703125 
L 11.1875 0 
L 0.78125 0 
z
" id="DejaVuSans-41"/>
     <path d="M 53.515625 70.515625 
L 53.515625 60.890625 
Q 47.90625 63.578125 42.921875 64.890625 
Q 37.9375 66.21875 33.296875 66.21875 
Q 25.25 66.21875 20.875 63.09375 
Q 16.5 59.96875 16.5 54.203125 
Q 16.5 49.359375 19.40625 46.890625 
Q 22.3125 44.4375 30.421875 42.921875 
L 36.375 41.703125 
Q 47.40625 39.59375 52.65625 34.296875 
Q 57.90625 29 57.90625 20.125 
Q 57.90625 9.515625 50.796875 4.046875 
Q 43.703125 -1.421875 29.984375 -1.421875 
Q 24.8125 -1.421875 18.96875 -0.25 
Q 13.140625 0.921875 6.890625 3.21875 
L 6.890625 13.375 
Q 12.890625 10.015625 18.65625 8.296875 
Q 24.421875 6.59375 29.984375 6.59375 
Q 38.421875 6.59375 43.015625 9.90625 
Q 47.609375 13.234375 47.609375 19.390625 
Q 47.609375 24.75 44.3125 27.78125 
Q 41.015625 30.8125 33.5 32.328125 
L 27.484375 33.5 
Q 16.453125 35.6875 11.515625 40.375 
Q 6.59375 45.0625 6.59375 53.421875 
Q 6.59375 63.09375 13.40625 68.65625 
Q 20.21875 74.21875 32.171875 74.21875 
Q 37.3125 74.21875 42.625 73.28125 
Q 47.953125 72.359375 53.515625 70.515625 
z
" id="DejaVuSans-53"/>
    </defs>
    <g transform="translate(369.527839 293.517868)scale(0.17 -0.17)">
     <use xlink:href="#DejaVuSans-43"/>
     <use x="69.824219" xlink:href="#DejaVuSans-4d"/>
     <use x="156.103516" xlink:href="#DejaVuSans-41"/>
     <use x="224.480469" xlink:href="#DejaVuSans-2d"/>
     <use x="260.564453" xlink:href="#DejaVuSans-43"/>
     <use x="330.388672" xlink:href="#DejaVuSans-53"/>
     <use x="393.880859" xlink:href="#DejaVuSans-41"/>
     <use x="462.257812" xlink:href="#DejaVuSans-2d"/>
     <use x="498.310547" xlink:href="#DejaVuSans-41"/>
    </g>
   </g>
   <g id="text_15">
    <!-- CMA-TPA-A -->
    <defs>
     <path d="M -0.296875 72.90625 
L 61.375 72.90625 
L 61.375 64.59375 
L 35.5 64.59375 
L 35.5 0 
L 25.59375 0 
L 25.59375 64.59375 
L -0.296875 64.59375 
z
" id="DejaVuSans-54"/>
     <path d="M 19.671875 64.796875 
L 19.671875 37.40625 
L 32.078125 37.40625 
Q 38.96875 37.40625 42.71875 40.96875 
Q 46.484375 44.53125 46.484375 51.125 
Q 46.484375 57.671875 42.71875 61.234375 
Q 38.96875 64.796875 32.078125 64.796875 
z
M 9.8125 72.90625 
L 32.078125 72.90625 
Q 44.34375 72.90625 50.609375 67.359375 
Q 56.890625 61.8125 56.890625 51.125 
Q 56.890625 40.328125 50.609375 34.8125 
Q 44.34375 29.296875 32.078125 29.296875 
L 19.671875 29.296875 
L 19.671875 0 
L 9.8125 0 
z
" id="DejaVuSans-50"/>
    </defs>
    <g transform="translate(369.527839 208.188759)scale(0.17 -0.17)">
     <use xlink:href="#DejaVuSans-43"/>
     <use x="69.824219" xlink:href="#DejaVuSans-4d"/>
     <use x="156.103516" xlink:href="#DejaVuSans-41"/>
     <use x="224.480469" xlink:href="#DejaVuSans-2d"/>
     <use x="260.423828" xlink:href="#DejaVuSans-54"/>
     <use x="321.507812" xlink:href="#DejaVuSans-50"/>
     <use x="381.716797" xlink:href="#DejaVuSans-41"/>
     <use x="450.09375" xlink:href="#DejaVuSans-2d"/>
     <use x="486.146484" xlink:href="#DejaVuSans-41"/>
    </g>
   </g>
   <g id="text_16">
    <!-- CMA-MSR-A -->
    <defs>
     <path d="M 44.390625 34.1875 
Q 47.5625 33.109375 50.5625 29.59375 
Q 53.5625 26.078125 56.59375 19.921875 
L 66.609375 0 
L 56 0 
L 46.6875 18.703125 
Q 43.0625 26.03125 39.671875 28.421875 
Q 36.28125 30.8125 30.421875 30.8125 
L 19.671875 30.8125 
L 19.671875 0 
L 9.8125 0 
L 9.8125 72.90625 
L 32.078125 72.90625 
Q 44.578125 72.90625 50.734375 67.671875 
Q 56.890625 62.453125 56.890625 51.90625 
Q 56.890625 45.015625 53.6875 40.46875 
Q 50.484375 35.9375 44.390625 34.1875 
z
M 19.671875 64.796875 
L 19.671875 38.921875 
L 32.078125 38.921875 
Q 39.203125 38.921875 42.84375 42.21875 
Q 46.484375 45.515625 46.484375 51.90625 
Q 46.484375 58.296875 42.84375 61.546875 
Q 39.203125 64.796875 32.078125 64.796875 
z
" id="DejaVuSans-52"/>
    </defs>
    <g transform="translate(369.527839 122.85965)scale(0.17 -0.17)">
     <use xlink:href="#DejaVuSans-43"/>
     <use x="69.824219" xlink:href="#DejaVuSans-4d"/>
     <use x="156.103516" xlink:href="#DejaVuSans-41"/>
     <use x="224.480469" xlink:href="#DejaVuSans-2d"/>
     <use x="260.564453" xlink:href="#DejaVuSans-4d"/>
     <use x="346.84375" xlink:href="#DejaVuSans-53"/>
     <use x="410.320312" xlink:href="#DejaVuSans-52"/>
     <use x="479.740234" xlink:href="#DejaVuSans-2d"/>
     <use x="515.792969" xlink:href="#DejaVuSans-41"/>
    </g>
   </g>
   <g id="text_17">
    <!-- best 2009 -->
    <defs>
     <path d="M 48.6875 27.296875 
Q 48.6875 37.203125 44.609375 42.84375 
Q 40.53125 48.484375 33.40625 48.484375 
Q 26.265625 48.484375 22.1875 42.84375 
Q 18.109375 37.203125 18.109375 27.296875 
Q 18.109375 17.390625 22.1875 11.75 
Q 26.265625 6.109375 33.40625 6.109375 
Q 40.53125 6.109375 44.609375 11.75 
Q 48.6875 17.390625 48.6875 27.296875 
z
M 18.109375 46.390625 
Q 20.953125 51.265625 25.265625 53.625 
Q 29.59375 56 35.59375 56 
Q 45.5625 56 51.78125 48.09375 
Q 58.015625 40.1875 58.015625 27.296875 
Q 58.015625 14.40625 51.78125 6.484375 
Q 45.5625 -1.421875 35.59375 -1.421875 
Q 29.59375 -1.421875 25.265625 0.953125 
Q 20.953125 3.328125 18.109375 8.203125 
L 18.109375 0 
L 9.078125 0 
L 9.078125 75.984375 
L 18.109375 75.984375 
z
" id="DejaVuSans-62"/>
     <path d="M 10.984375 1.515625 
L 10.984375 10.5 
Q 14.703125 8.734375 18.5 7.8125 
Q 22.3125 6.890625 25.984375 6.890625 
Q 35.75 6.890625 40.890625 13.453125 
Q 46.046875 20.015625 46.78125 33.40625 
Q 43.953125 29.203125 39.59375 26.953125 
Q 35.25 24.703125 29.984375 24.703125 
Q 19.046875 24.703125 12.671875 31.3125 
Q 6.296875 37.9375 6.296875 49.421875 
Q 6.296875 60.640625 12.9375 67.421875 
Q 19.578125 74.21875 30.609375 74.21875 
Q 43.265625 74.21875 49.921875 64.515625 
Q 56.59375 54.828125 56.59375 36.375 
Q 56.59375 19.140625 48.40625 8.859375 
Q 40.234375 -1.421875 26.421875 -1.421875 
Q 22.703125 -1.421875 18.890625 -0.6875 
Q 15.09375 0.046875 10.984375 1.515625 
z
M 30.609375 32.421875 
Q 37.25 32.421875 41.125 36.953125 
Q 45.015625 41.5 45.015625 49.421875 
Q 45.015625 57.28125 41.125 61.84375 
Q 37.25 66.40625 30.609375 66.40625 
Q 23.96875 66.40625 20.09375 61.84375 
Q 16.21875 57.28125 16.21875 49.421875 
Q 16.21875 41.5 20.09375 36.953125 
Q 23.96875 32.421875 30.609375 32.421875 
z
" id="DejaVuSans-39"/>
    </defs>
    <g transform="translate(369.527839 37.530541)scale(0.17 -0.17)">
     <use xlink:href="#DejaVuSans-62"/>
     <use x="63.476562" xlink:href="#DejaVuSans-65"/>
     <use x="125" xlink:href="#DejaVuSans-73"/>
     <use x="177.099609" xlink:href="#DejaVuSans-74"/>
     <use x="216.308594" xlink:href="#DejaVuSans-20"/>
     <use x="248.095703" xlink:href="#DejaVuSans-32"/>
     <use x="311.71875" xlink:href="#DejaVuSans-30"/>
     <use x="375.341797" xlink:href="#DejaVuSans-30"/>
     <use x="438.964844" xlink:href="#DejaVuSans-39"/>
    </g>
   </g>
   <g id="text_18">
    <!-- bbob f24, 40-D -->
    <defs>
     <path d="M 19.671875 64.796875 
L 19.671875 8.109375 
L 31.59375 8.109375 
Q 46.6875 8.109375 53.6875 14.9375 
Q 60.6875 21.78125 60.6875 36.53125 
Q 60.6875 51.171875 53.6875 57.984375 
Q 46.6875 64.796875 31.59375 64.796875 
z
M 9.8125 72.90625 
L 30.078125 72.90625 
Q 51.265625 72.90625 61.171875 64.09375 
Q 71.09375 55.28125 71.09375 36.53125 
Q 71.09375 17.671875 61.125 8.828125 
Q 51.171875 0 30.078125 0 
L 9.8125 0 
z
" id="DejaVuSans-44"/>
    </defs>
    <g transform="translate(60.09324 35.283606)scale(0.102 -0.102)">
     <use xlink:href="#DejaVuSans-62"/>
     <use x="63.476562" xlink:href="#DejaVuSans-62"/>
     <use x="126.953125" xlink:href="#DejaVuSans-6f"/>
     <use x="188.134766" xlink:href="#DejaVuSans-62"/>
     <use x="251.611328" xlink:href="#DejaVuSans-20"/>
     <use x="283.398438" xlink:href="#DejaVuSans-66"/>
     <use x="318.603516" xlink:href="#DejaVuSans-32"/>
     <use x="382.226562" xlink:href="#DejaVuSans-34"/>
     <use x="445.849609" xlink:href="#DejaVuSans-2c"/>
     <use x="477.636719" xlink:href="#DejaVuSans-20"/>
     <use x="509.423828" xlink:href="#DejaVuSans-34"/>
     <use x="573.046875" xlink:href="#DejaVuSans-30"/>
     <use x="636.669922" xlink:href="#DejaVuSans-2d"/>
     <use x="672.753906" xlink:href="#DejaVuSans-44"/>
    </g>
    <!-- 51 targets: 100..1e-08 -->
    <defs>
     <path d="M 10.796875 72.90625 
L 49.515625 72.90625 
L 49.515625 64.59375 
L 19.828125 64.59375 
L 19.828125 46.734375 
Q 21.96875 47.46875 24.109375 47.828125 
Q 26.265625 48.1875 28.421875 48.1875 
Q 40.625 48.1875 47.75 41.5 
Q 54.890625 34.8125 54.890625 23.390625 
Q 54.890625 11.625 47.5625 5.09375 
Q 40.234375 -1.421875 26.90625 -1.421875 
Q 22.3125 -1.421875 17.546875 -0.640625 
Q 12.796875 0.140625 7.71875 1.703125 
L 7.71875 11.625 
Q 12.109375 9.234375 16.796875 8.0625 
Q 21.484375 6.890625 26.703125 6.890625 
Q 35.15625 6.890625 40.078125 11.328125 
Q 45.015625 15.765625 45.015625 23.390625 
Q 45.015625 31 40.078125 35.4375 
Q 35.15625 39.890625 26.703125 39.890625 
Q 22.75 39.890625 18.8125 39.015625 
Q 14.890625 38.140625 10.796875 36.28125 
z
" id="DejaVuSans-35"/>
     <path d="M 11.71875 12.40625 
L 22.015625 12.40625 
L 22.015625 0 
L 11.71875 0 
z
M 11.71875 51.703125 
L 22.015625 51.703125 
L 22.015625 39.3125 
L 11.71875 39.3125 
z
" id="DejaVuSans-3a"/>
    </defs>
    <g transform="translate(60.09324 46.705375)scale(0.102 -0.102)">
     <use xlink:href="#DejaVuSans-35"/>
     <use x="63.623047" xlink:href="#DejaVuSans-31"/>
     <use x="127.246094" xlink:href="#DejaVuSans-20"/>
     <use x="159.033203" xlink:href="#DejaVuSans-74"/>
     <use x="198.242188" xlink:href="#DejaVuSans-61"/>
     <use x="259.521484" xlink:href="#DejaVuSans-72"/>
     <use x="300.619141" xlink:href="#DejaVuSans-67"/>
     <use x="364.095703" xlink:href="#DejaVuSans-65"/>
     <use x="425.619141" xlink:href="#DejaVuSans-74"/>
     <use x="464.828125" xlink:href="#DejaVuSans-73"/>
     <use x="516.927734" xlink:href="#DejaVuSans-3a"/>
     <use x="550.619141" xlink:href="#DejaVuSans-20"/>
     <use x="582.40625" xlink:href="#DejaVuSans-31"/>
     <use x="646.029297" xlink:href="#DejaVuSans-30"/>
     <use x="709.652344" xlink:href="#DejaVuSans-30"/>
     <use x="773.275391" xlink:href="#DejaVuSans-2e"/>
     <use x="805.0625" xlink:href="#DejaVuSans-2e"/>
     <use x="836.849609" xlink:href="#DejaVuSans-31"/>
     <use x="900.472656" xlink:href="#DejaVuSans-65"/>
     <use x="961.996094" xlink:href="#DejaVuSans-2d"/>
     <use x="998.080078" xlink:href="#DejaVuSans-30"/>
     <use x="1061.703125" xlink:href="#DejaVuSans-38"/>
    </g>
    <!-- 5, 15 instances -->
    <g transform="translate(60.09324 58.127144)scale(0.102 -0.102)">
     <use xlink:href="#DejaVuSans-35"/>
     <use x="63.623047" xlink:href="#DejaVuSans-2c"/>
     <use x="95.410156" xlink:href="#DejaVuSans-20"/>
     <use x="127.197266" xlink:href="#DejaVuSans-31"/>
     <use x="190.820312" xlink:href="#DejaVuSans-35"/>
     <use x="254.443359" xlink:href="#DejaVuSans-20"/>
     <use x="286.230469" xlink:href="#DejaVuSans-69"/>
     <use x="314.013672" xlink:href="#DejaVuSans-6e"/>
     <use x="377.392578" xlink:href="#DejaVuSans-73"/>
     <use x="429.492188" xlink:href="#DejaVuSans-74"/>
     <use x="468.701172" xlink:href="#DejaVuSans-61"/>
     <use x="529.980469" xlink:href="#DejaVuSans-6e"/>
     <use x="593.359375" xlink:href="#DejaVuSans-63"/>
     <use x="648.339844" xlink:href="#DejaVuSans-65"/>
     <use x="709.863281" xlink:href="#DejaVuSans-73"/>
    </g>
   </g>
   <g id="text_19">
    <!-- v2.0.760 -->
    <defs>
     <path d="M 8.203125 72.90625 
L 55.078125 72.90625 
L 55.078125 68.703125 
L 28.609375 0 
L 18.3125 0 
L 43.21875 64.59375 
L 8.203125 64.59375 
z
" id="DejaVuSans-37"/>
    </defs>
    <g style="fill:#808080;" transform="translate(206.27825 289.387113)scale(0.1 -0.1)">
     <use xlink:href="#DejaVuSans-76"/>
     <use x="59.179688" xlink:href="#DejaVuSans-32"/>
     <use x="122.802734" xlink:href="#DejaVuSans-2e"/>
     <use x="154.589844" xlink:href="#DejaVuSans-30"/>
     <use x="218.212891" xlink:href="#DejaVuSans-2e"/>
     <use x="250" xlink:href="#DejaVuSans-37"/>
     <use x="313.623047" xlink:href="#DejaVuSans-36"/>
     <use x="377.246094" xlink:href="#DejaVuSans-30"/>
    </g>
   </g>
   <g id="text_20">
    <!-- 24 Lunacek bi-Rastrigin -->
    <defs>
     <path d="M 9.8125 72.90625 
L 19.671875 72.90625 
L 19.671875 8.296875 
L 55.171875 8.296875 
L 55.171875 0 
L 9.8125 0 
z
" id="DejaVuSans-4c"/>
     <path d="M 9.078125 75.984375 
L 18.109375 75.984375 
L 18.109375 31.109375 
L 44.921875 54.6875 
L 56.390625 54.6875 
L 27.390625 29.109375 
L 57.625 0 
L 45.90625 0 
L 18.109375 26.703125 
L 18.109375 0 
L 9.078125 0 
z
" id="DejaVuSans-6b"/>
    </defs>
    <g transform="translate(110.1345 18.84)scale(0.2 -0.2)">
     <use xlink:href="#DejaVuSans-32"/>
     <use x="63.623047" xlink:href="#DejaVuSans-34"/>
     <use x="127.246094" xlink:href="#DejaVuSans-20"/>
     <use x="159.033203" xlink:href="#DejaVuSans-4c"/>
     <use x="214.730469" xlink:href="#DejaVuSans-75"/>
     <use x="278.109375" xlink:href="#DejaVuSans-6e"/>
     <use x="341.488281" xlink:href="#DejaVuSans-61"/>
     <use x="402.767578" xlink:href="#DejaVuSans-63"/>
     <use x="457.748047" xlink:href="#DejaVuSans-65"/>
     <use x="519.271484" xlink:href="#DejaVuSans-6b"/>
     <use x="577.181641" xlink:href="#DejaVuSans-20"/>
     <use x="608.96875" xlink:href="#DejaVuSans-62"/>
     <use x="672.445312" xlink:href="#DejaVuSans-69"/>
     <use x="700.228516" xlink:href="#DejaVuSans-2d"/>
     <use x="736.3125" xlink:href="#DejaVuSans-52"/>
     <use x="805.763672" xlink:href="#DejaVuSans-61"/>
     <use x="867.042969" xlink:href="#DejaVuSans-73"/>
     <use x="919.142578" xlink:href="#DejaVuSans-74"/>
     <use x="958.351562" xlink:href="#DejaVuSans-72"/>
     <use x="999.464844" xlink:href="#DejaVuSans-69"/>
     <use x="1027.248047" xlink:href="#DejaVuSans-67"/>
     <use x="1090.724609" xlink:href="#DejaVuSans-69"/>
     <use x="1118.507812" xlink:href="#DejaVuSans-6e"/>
    </g>
   </g>
  </g>
 </g>
 <defs>
  <clipPath id="p58cfd41e99">
   <rect height="269.32" width="343.324" x="56.66" y="24.84"/>
  </clipPath>
 </defs>
</svg>
