<?xml version="1.0" encoding="utf-8" standalone="no"?>
<!DOCTYPE svg PUBLIC "-//W3C//DTD SVG 1.1//EN"
  "http://www.w3.org/Graphics/SVG/1.1/DTD/svg11.dtd">
<svg height="345.6pt" version="1.1" viewBox="0 0 460.8 345.6" width="460.8pt" xmlns="http://www.w3.org/2000/svg" xmlns:xlink="http://www.w3.org/1999/xlink">
 <metadata>
  <rdf:RDF xmlns:cc="http://creativecommons.org/ns#" xmlns:dc="http://purl.org/dc/elements/1.1/" xmlns:rdf="http://www.w3.org/1999/02/22-rdf-syntax-ns#">
   <cc:Work>
    <dc:type rdf:resource="http://purl.org/dc/dcmitype/StillImage"/>
    <dc:date>2022-03-29T13:10:09.016371</dc:date>
    <dc:format>image/svg+xml</dc:format>
    <dc:creator>
     <cc:Agent>
      <dc:title>Matplotlib v3.4.3, https://matplotlib.org/</dc:title>
     </cc:Agent>
    </dc:creator>
   </cc:Work>
  </rdf:RDF>
 </metadata>
 <defs>
  <style type="text/css">*{stroke-linecap:butt;stroke-linejoin:round;}</style>
 </defs>
 <g id="figure_1">
  <g id="patch_1">
   <path d="M 0 345.6 
L 460.8 345.6 
L 460.8 0 
L 0 0 
z
" style="fill:#ffffff;"/>
  </g>
  <g id="axes_1">
   <g id="patch_2">
    <path d="M 57.6 298.944 
L 338.688 298.944 
L 338.688 27.648 
L 57.6 27.648 
z
" style="fill:#ffffff;"/>
   </g>
   <g id="line2d_1">
    <path d="M 80.258561 298.944 
L 80.258561 294.312795 
L 86.792945 294.312795 
L 86.792945 285.050384 
L 100.443706 285.050384 
L 100.443706 275.787974 
L 127.378995 275.787974 
L 127.378995 271.156769 
L 143.144465 271.156769 
L 143.144465 257.263153 
L 148.576295 257.263153 
L 148.576295 248.000743 
L 163.946031 248.000743 
L 163.946031 243.369538 
L 164.725213 243.369538 
L 164.725213 234.107127 
L 168.058166 234.107127 
L 168.058166 220.213512 
L 170.890315 220.213512 
L 170.890315 210.951101 
L 172.12622 210.951101 
L 172.12622 201.688691 
L 177.396715 201.688691 
L 177.396715 192.426281 
L 178.98346 192.426281 
L 178.98346 187.795075 
L 179.664896 187.795075 
L 179.664896 173.90146 
L 179.907185 173.90146 
L 179.907185 169.270255 
L 180.564187 169.270255 
L 180.564187 155.376639 
L 181.31353 155.376639 
L 181.31353 146.114229 
L 187.53079 146.114229 
L 187.53079 141.483024 
L 188.069677 141.483024 
L 188.069677 127.589408 
L 196.146232 127.589408 
L 196.146232 122.958203 
L 204.576948 122.958203 
L 204.576948 109.064587 
L 217.495875 109.064587 
L 217.495875 99.802177 
L 252.442552 99.802177 
L 252.442552 90.539766 
L 255.28276 90.539766 
L 255.28276 85.908561 
L 258.223878 85.908561 
L 258.223878 76.646151 
L 261.188307 76.646151 
L 261.188307 62.752535 
L 338.688 62.752535 
" style="fill:none;stroke:#f5deb3;stroke-linecap:square;stroke-width:4;"/>
   </g>
   <g id="line2d_2">
    <defs>
     <path d="M 0 7.778175 
L 7.778175 0 
L 0 -7.778175 
L -7.778175 0 
z
" id="mcb5781524b" style="stroke:#f5deb3;stroke-linejoin:miter;stroke-width:1.5;"/>
    </defs>
    <g>
     <use style="fill:#f5deb3;stroke:#f5deb3;stroke-linejoin:miter;stroke-width:1.5;" x="178.98346" xlink:href="#mcb5781524b" y="187.795075"/>
     <use style="fill:#f5deb3;stroke:#f5deb3;stroke-linejoin:miter;stroke-width:1.5;" x="217.495875" xlink:href="#mcb5781524b" y="109.064587"/>
     <use style="fill:#f5deb3;stroke:#f5deb3;stroke-linejoin:miter;stroke-width:1.5;" x="261.188307" xlink:href="#mcb5781524b" y="62.752535"/>
     <use style="fill:#f5deb3;stroke:#f5deb3;stroke-linejoin:miter;stroke-width:1.5;" x="261.188307" xlink:href="#mcb5781524b" y="62.752535"/>
     <use style="fill:#f5deb3;stroke:#f5deb3;stroke-linejoin:miter;stroke-width:1.5;" x="338.688" xlink:href="#mcb5781524b" y="62.752535"/>
    </g>
   </g>
   <g id="line2d_3">
    <path style="fill:none;stroke:#f5deb3;stroke-linecap:square;stroke-width:4;"/>
    <g/>
   </g>
   <g id="line2d_4">
    <path d="M 338.688 62.752535 
L 369.60768 35.706297 
" style="fill:none;stroke:#f5deb3;stroke-linecap:square;stroke-width:4;"/>
    <g>
     <use style="fill:#f5deb3;stroke:#f5deb3;stroke-linejoin:miter;stroke-width:1.5;" x="338.688" xlink:href="#mcb5781524b" y="62.752535"/>
     <use style="fill:#f5deb3;stroke:#f5deb3;stroke-linejoin:miter;stroke-width:1.5;" x="369.60768" xlink:href="#mcb5781524b" y="35.706297"/>
    </g>
   </g>
   <g id="matplotlib.axis_1">
    <g id="xtick_1">
     <g id="line2d_5">
      <path clip-path="url(#p0d22791a2d)" d="M 57.6 298.944 
L 57.6 27.648 
" style="fill:none;stroke:#b0b0b0;stroke-linecap:square;stroke-width:0.8;"/>
     </g>
     <g id="line2d_6">
      <defs>
       <path d="M 0 0 
L 0 3.5 
" id="m01411ff641" style="stroke:#000000;stroke-width:0.8;"/>
      </defs>
      <g>
       <use style="stroke:#000000;stroke-width:0.8;" x="57.6" xlink:href="#m01411ff641" y="298.944"/>
      </g>
     </g>
     <g id="text_1">
      <!-- 0 -->
      <g transform="translate(51.2375 321.140875)scale(0.2 -0.2)">
       <defs>
        <path d="M 2034 4250 
Q 1547 4250 1301 3770 
Q 1056 3291 1056 2328 
Q 1056 1369 1301 889 
Q 1547 409 2034 409 
Q 2525 409 2770 889 
Q 3016 1369 3016 2328 
Q 3016 3291 2770 3770 
Q 2525 4250 2034 4250 
z
M 2034 4750 
Q 2819 4750 3233 4129 
Q 3647 3509 3647 2328 
Q 3647 1150 3233 529 
Q 2819 -91 2034 -91 
Q 1250 -91 836 529 
Q 422 1150 422 2328 
Q 422 3509 836 4129 
Q 1250 4750 2034 4750 
z
" id="DejaVuSans-30" transform="scale(0.015625)"/>
       </defs>
       <use xlink:href="#DejaVuSans-30"/>
      </g>
     </g>
    </g>
    <g id="xtick_2">
     <g id="line2d_7">
      <path clip-path="url(#p0d22791a2d)" d="M 137.910857 298.944 
L 137.910857 27.648 
" style="fill:none;stroke:#b0b0b0;stroke-linecap:square;stroke-width:0.8;"/>
     </g>
     <g id="line2d_8">
      <g>
       <use style="stroke:#000000;stroke-width:0.8;" x="137.910857" xlink:href="#m01411ff641" y="298.944"/>
      </g>
     </g>
     <g id="text_2">
      <!-- 2 -->
      <g transform="translate(131.548357 321.140875)scale(0.2 -0.2)">
       <defs>
        <path d="M 1228 531 
L 3431 531 
L 3431 0 
L 469 0 
L 469 531 
Q 828 903 1448 1529 
Q 2069 2156 2228 2338 
Q 2531 2678 2651 2914 
Q 2772 3150 2772 3378 
Q 2772 3750 2511 3984 
Q 2250 4219 1831 4219 
Q 1534 4219 1204 4116 
Q 875 4013 500 3803 
L 500 4441 
Q 881 4594 1212 4672 
Q 1544 4750 1819 4750 
Q 2544 4750 2975 4387 
Q 3406 4025 3406 3419 
Q 3406 3131 3298 2873 
Q 3191 2616 2906 2266 
Q 2828 2175 2409 1742 
Q 1991 1309 1228 531 
z
" id="DejaVuSans-32" transform="scale(0.015625)"/>
       </defs>
       <use xlink:href="#DejaVuSans-32"/>
      </g>
     </g>
    </g>
    <g id="xtick_3">
     <g id="line2d_9">
      <path clip-path="url(#p0d22791a2d)" d="M 218.221714 298.944 
L 218.221714 27.648 
" style="fill:none;stroke:#b0b0b0;stroke-linecap:square;stroke-width:0.8;"/>
     </g>
     <g id="line2d_10">
      <g>
       <use style="stroke:#000000;stroke-width:0.8;" x="218.221714" xlink:href="#m01411ff641" y="298.944"/>
      </g>
     </g>
     <g id="text_3">
      <!-- 4 -->
      <g transform="translate(211.859214 321.140875)scale(0.2 -0.2)">
       <defs>
        <path d="M 2419 4116 
L 825 1625 
L 2419 1625 
L 2419 4116 
z
M 2253 4666 
L 3047 4666 
L 3047 1625 
L 3713 1625 
L 3713 1100 
L 3047 1100 
L 3047 0 
L 2419 0 
L 2419 1100 
L 313 1100 
L 313 1709 
L 2253 4666 
z
" id="DejaVuSans-34" transform="scale(0.015625)"/>
       </defs>
       <use xlink:href="#DejaVuSans-34"/>
      </g>
     </g>
    </g>
    <g id="xtick_4">
     <g id="line2d_11">
      <path clip-path="url(#p0d22791a2d)" d="M 298.532571 298.944 
L 298.532571 27.648 
" style="fill:none;stroke:#b0b0b0;stroke-linecap:square;stroke-width:0.8;"/>
     </g>
     <g id="line2d_12">
      <g>
       <use style="stroke:#000000;stroke-width:0.8;" x="298.532571" xlink:href="#m01411ff641" y="298.944"/>
      </g>
     </g>
     <g id="text_4">
      <!-- 6 -->
      <g transform="translate(292.170071 321.140875)scale(0.2 -0.2)">
       <defs>
        <path d="M 2113 2584 
Q 1688 2584 1439 2293 
Q 1191 2003 1191 1497 
Q 1191 994 1439 701 
Q 1688 409 2113 409 
Q 2538 409 2786 701 
Q 3034 994 3034 1497 
Q 3034 2003 2786 2293 
Q 2538 2584 2113 2584 
z
M 3366 4563 
L 3366 3988 
Q 3128 4100 2886 4159 
Q 2644 4219 2406 4219 
Q 1781 4219 1451 3797 
Q 1122 3375 1075 2522 
Q 1259 2794 1537 2939 
Q 1816 3084 2150 3084 
Q 2853 3084 3261 2657 
Q 3669 2231 3669 1497 
Q 3669 778 3244 343 
Q 2819 -91 2113 -91 
Q 1303 -91 875 529 
Q 447 1150 447 2328 
Q 447 3434 972 4092 
Q 1497 4750 2381 4750 
Q 2619 4750 2861 4703 
Q 3103 4656 3366 4563 
z
" id="DejaVuSans-36" transform="scale(0.015625)"/>
       </defs>
       <use xlink:href="#DejaVuSans-36"/>
      </g>
     </g>
    </g>
    <g id="xtick_5">
     <g id="line2d_13">
      <path clip-path="url(#p0d22791a2d)" d="M 97.755429 298.944 
L 97.755429 27.648 
" style="fill:none;stroke:#b0b0b0;stroke-linecap:square;stroke-width:0.8;"/>
     </g>
     <g id="line2d_14">
      <defs>
       <path d="M 0 0 
L 0 2 
" id="m192fa307ab" style="stroke:#000000;stroke-width:0.6;"/>
      </defs>
      <g>
       <use style="stroke:#000000;stroke-width:0.6;" x="97.755429" xlink:href="#m192fa307ab" y="298.944"/>
      </g>
     </g>
    </g>
    <g id="xtick_6">
     <g id="line2d_15">
      <path clip-path="url(#p0d22791a2d)" d="M 178.066286 298.944 
L 178.066286 27.648 
" style="fill:none;stroke:#b0b0b0;stroke-linecap:square;stroke-width:0.8;"/>
     </g>
     <g id="line2d_16">
      <g>
       <use style="stroke:#000000;stroke-width:0.6;" x="178.066286" xlink:href="#m192fa307ab" y="298.944"/>
      </g>
     </g>
    </g>
    <g id="xtick_7">
     <g id="line2d_17">
      <path clip-path="url(#p0d22791a2d)" d="M 258.377143 298.944 
L 258.377143 27.648 
" style="fill:none;stroke:#b0b0b0;stroke-linecap:square;stroke-width:0.8;"/>
     </g>
     <g id="line2d_18">
      <g>
       <use style="stroke:#000000;stroke-width:0.6;" x="258.377143" xlink:href="#m192fa307ab" y="298.944"/>
      </g>
     </g>
    </g>
    <g id="xtick_8">
     <g id="line2d_19">
      <path clip-path="url(#p0d22791a2d)" d="M 338.688 298.944 
L 338.688 27.648 
" style="fill:none;stroke:#b0b0b0;stroke-linecap:square;stroke-width:0.8;"/>
     </g>
     <g id="line2d_20">
      <g>
       <use style="stroke:#000000;stroke-width:0.6;" x="338.688" xlink:href="#m192fa307ab" y="298.944"/>
      </g>
     </g>
    </g>
    <g id="text_5">
     <!-- log10(# f-evals / dimension) -->
     <g transform="translate(77.764078 342.217594)scale(0.17 -0.17)">
      <defs>
       <path d="M 603 4863 
L 1178 4863 
L 1178 0 
L 603 0 
L 603 4863 
z
" id="DejaVuSans-6c" transform="scale(0.015625)"/>
       <path d="M 1959 3097 
Q 1497 3097 1228 2736 
Q 959 2375 959 1747 
Q 959 1119 1226 758 
Q 1494 397 1959 397 
Q 2419 397 2687 759 
Q 2956 1122 2956 1747 
Q 2956 2369 2687 2733 
Q 2419 3097 1959 3097 
z
M 1959 3584 
Q 2709 3584 3137 3096 
Q 3566 2609 3566 1747 
Q 3566 888 3137 398 
Q 2709 -91 1959 -91 
Q 1206 -91 779 398 
Q 353 888 353 1747 
Q 353 2609 779 3096 
Q 1206 3584 1959 3584 
z
" id="DejaVuSans-6f" transform="scale(0.015625)"/>
       <path d="M 2906 1791 
Q 2906 2416 2648 2759 
Q 2391 3103 1925 3103 
Q 1463 3103 1205 2759 
Q 947 2416 947 1791 
Q 947 1169 1205 825 
Q 1463 481 1925 481 
Q 2391 481 2648 825 
Q 2906 1169 2906 1791 
z
M 3481 434 
Q 3481 -459 3084 -895 
Q 2688 -1331 1869 -1331 
Q 1566 -1331 1297 -1286 
Q 1028 -1241 775 -1147 
L 775 -588 
Q 1028 -725 1275 -790 
Q 1522 -856 1778 -856 
Q 2344 -856 2625 -561 
Q 2906 -266 2906 331 
L 2906 616 
Q 2728 306 2450 153 
Q 2172 0 1784 0 
Q 1141 0 747 490 
Q 353 981 353 1791 
Q 353 2603 747 3093 
Q 1141 3584 1784 3584 
Q 2172 3584 2450 3431 
Q 2728 3278 2906 2969 
L 2906 3500 
L 3481 3500 
L 3481 434 
z
" id="DejaVuSans-67" transform="scale(0.015625)"/>
       <path d="M 794 531 
L 1825 531 
L 1825 4091 
L 703 3866 
L 703 4441 
L 1819 4666 
L 2450 4666 
L 2450 531 
L 3481 531 
L 3481 0 
L 794 0 
L 794 531 
z
" id="DejaVuSans-31" transform="scale(0.015625)"/>
       <path d="M 1984 4856 
Q 1566 4138 1362 3434 
Q 1159 2731 1159 2009 
Q 1159 1288 1364 580 
Q 1569 -128 1984 -844 
L 1484 -844 
Q 1016 -109 783 600 
Q 550 1309 550 2009 
Q 550 2706 781 3412 
Q 1013 4119 1484 4856 
L 1984 4856 
z
" id="DejaVuSans-28" transform="scale(0.015625)"/>
       <path d="M 3272 2816 
L 2363 2816 
L 2100 1772 
L 3016 1772 
L 3272 2816 
z
M 2803 4594 
L 2478 3297 
L 3391 3297 
L 3719 4594 
L 4219 4594 
L 3897 3297 
L 4872 3297 
L 4872 2816 
L 3775 2816 
L 3519 1772 
L 4513 1772 
L 4513 1294 
L 3397 1294 
L 3072 0 
L 2572 0 
L 2894 1294 
L 1978 1294 
L 1656 0 
L 1153 0 
L 1478 1294 
L 494 1294 
L 494 1772 
L 1594 1772 
L 1856 2816 
L 850 2816 
L 850 3297 
L 1978 3297 
L 2297 4594 
L 2803 4594 
z
" id="DejaVuSans-23" transform="scale(0.015625)"/>
       <path id="DejaVuSans-20" transform="scale(0.015625)"/>
       <path d="M 2375 4863 
L 2375 4384 
L 1825 4384 
Q 1516 4384 1395 4259 
Q 1275 4134 1275 3809 
L 1275 3500 
L 2222 3500 
L 2222 3053 
L 1275 3053 
L 1275 0 
L 697 0 
L 697 3053 
L 147 3053 
L 147 3500 
L 697 3500 
L 697 3744 
Q 697 4328 969 4595 
Q 1241 4863 1831 4863 
L 2375 4863 
z
" id="DejaVuSans-66" transform="scale(0.015625)"/>
       <path d="M 313 2009 
L 1997 2009 
L 1997 1497 
L 313 1497 
L 313 2009 
z
" id="DejaVuSans-2d" transform="scale(0.015625)"/>
       <path d="M 3597 1894 
L 3597 1613 
L 953 1613 
Q 991 1019 1311 708 
Q 1631 397 2203 397 
Q 2534 397 2845 478 
Q 3156 559 3463 722 
L 3463 178 
Q 3153 47 2828 -22 
Q 2503 -91 2169 -91 
Q 1331 -91 842 396 
Q 353 884 353 1716 
Q 353 2575 817 3079 
Q 1281 3584 2069 3584 
Q 2775 3584 3186 3129 
Q 3597 2675 3597 1894 
z
M 3022 2063 
Q 3016 2534 2758 2815 
Q 2500 3097 2075 3097 
Q 1594 3097 1305 2825 
Q 1016 2553 972 2059 
L 3022 2063 
z
" id="DejaVuSans-65" transform="scale(0.015625)"/>
       <path d="M 191 3500 
L 800 3500 
L 1894 563 
L 2988 3500 
L 3597 3500 
L 2284 0 
L 1503 0 
L 191 3500 
z
" id="DejaVuSans-76" transform="scale(0.015625)"/>
       <path d="M 2194 1759 
Q 1497 1759 1228 1600 
Q 959 1441 959 1056 
Q 959 750 1161 570 
Q 1363 391 1709 391 
Q 2188 391 2477 730 
Q 2766 1069 2766 1631 
L 2766 1759 
L 2194 1759 
z
M 3341 1997 
L 3341 0 
L 2766 0 
L 2766 531 
Q 2569 213 2275 61 
Q 1981 -91 1556 -91 
Q 1019 -91 701 211 
Q 384 513 384 1019 
Q 384 1609 779 1909 
Q 1175 2209 1959 2209 
L 2766 2209 
L 2766 2266 
Q 2766 2663 2505 2880 
Q 2244 3097 1772 3097 
Q 1472 3097 1187 3025 
Q 903 2953 641 2809 
L 641 3341 
Q 956 3463 1253 3523 
Q 1550 3584 1831 3584 
Q 2591 3584 2966 3190 
Q 3341 2797 3341 1997 
z
" id="DejaVuSans-61" transform="scale(0.015625)"/>
       <path d="M 2834 3397 
L 2834 2853 
Q 2591 2978 2328 3040 
Q 2066 3103 1784 3103 
Q 1356 3103 1142 2972 
Q 928 2841 928 2578 
Q 928 2378 1081 2264 
Q 1234 2150 1697 2047 
L 1894 2003 
Q 2506 1872 2764 1633 
Q 3022 1394 3022 966 
Q 3022 478 2636 193 
Q 2250 -91 1575 -91 
Q 1294 -91 989 -36 
Q 684 19 347 128 
L 347 722 
Q 666 556 975 473 
Q 1284 391 1588 391 
Q 1994 391 2212 530 
Q 2431 669 2431 922 
Q 2431 1156 2273 1281 
Q 2116 1406 1581 1522 
L 1381 1569 
Q 847 1681 609 1914 
Q 372 2147 372 2553 
Q 372 3047 722 3315 
Q 1072 3584 1716 3584 
Q 2034 3584 2315 3537 
Q 2597 3491 2834 3397 
z
" id="DejaVuSans-73" transform="scale(0.015625)"/>
       <path d="M 1625 4666 
L 2156 4666 
L 531 -594 
L 0 -594 
L 1625 4666 
z
" id="DejaVuSans-2f" transform="scale(0.015625)"/>
       <path d="M 2906 2969 
L 2906 4863 
L 3481 4863 
L 3481 0 
L 2906 0 
L 2906 525 
Q 2725 213 2448 61 
Q 2172 -91 1784 -91 
Q 1150 -91 751 415 
Q 353 922 353 1747 
Q 353 2572 751 3078 
Q 1150 3584 1784 3584 
Q 2172 3584 2448 3432 
Q 2725 3281 2906 2969 
z
M 947 1747 
Q 947 1113 1208 752 
Q 1469 391 1925 391 
Q 2381 391 2643 752 
Q 2906 1113 2906 1747 
Q 2906 2381 2643 2742 
Q 2381 3103 1925 3103 
Q 1469 3103 1208 2742 
Q 947 2381 947 1747 
z
" id="DejaVuSans-64" transform="scale(0.015625)"/>
       <path d="M 603 3500 
L 1178 3500 
L 1178 0 
L 603 0 
L 603 3500 
z
M 603 4863 
L 1178 4863 
L 1178 4134 
L 603 4134 
L 603 4863 
z
" id="DejaVuSans-69" transform="scale(0.015625)"/>
       <path d="M 3328 2828 
Q 3544 3216 3844 3400 
Q 4144 3584 4550 3584 
Q 5097 3584 5394 3201 
Q 5691 2819 5691 2113 
L 5691 0 
L 5113 0 
L 5113 2094 
Q 5113 2597 4934 2840 
Q 4756 3084 4391 3084 
Q 3944 3084 3684 2787 
Q 3425 2491 3425 1978 
L 3425 0 
L 2847 0 
L 2847 2094 
Q 2847 2600 2669 2842 
Q 2491 3084 2119 3084 
Q 1678 3084 1418 2786 
Q 1159 2488 1159 1978 
L 1159 0 
L 581 0 
L 581 3500 
L 1159 3500 
L 1159 2956 
Q 1356 3278 1631 3431 
Q 1906 3584 2284 3584 
Q 2666 3584 2933 3390 
Q 3200 3197 3328 2828 
z
" id="DejaVuSans-6d" transform="scale(0.015625)"/>
       <path d="M 3513 2113 
L 3513 0 
L 2938 0 
L 2938 2094 
Q 2938 2591 2744 2837 
Q 2550 3084 2163 3084 
Q 1697 3084 1428 2787 
Q 1159 2491 1159 1978 
L 1159 0 
L 581 0 
L 581 3500 
L 1159 3500 
L 1159 2956 
Q 1366 3272 1645 3428 
Q 1925 3584 2291 3584 
Q 2894 3584 3203 3211 
Q 3513 2838 3513 2113 
z
" id="DejaVuSans-6e" transform="scale(0.015625)"/>
       <path d="M 513 4856 
L 1013 4856 
Q 1481 4119 1714 3412 
Q 1947 2706 1947 2009 
Q 1947 1309 1714 600 
Q 1481 -109 1013 -844 
L 513 -844 
Q 928 -128 1133 580 
Q 1338 1288 1338 2009 
Q 1338 2731 1133 3434 
Q 928 4138 513 4856 
z
" id="DejaVuSans-29" transform="scale(0.015625)"/>
      </defs>
      <use xlink:href="#DejaVuSans-6c"/>
      <use x="27.783203" xlink:href="#DejaVuSans-6f"/>
      <use x="88.964844" xlink:href="#DejaVuSans-67"/>
      <use x="152.441406" xlink:href="#DejaVuSans-31"/>
      <use x="216.064453" xlink:href="#DejaVuSans-30"/>
      <use x="279.6875" xlink:href="#DejaVuSans-28"/>
      <use x="318.701172" xlink:href="#DejaVuSans-23"/>
      <use x="402.490234" xlink:href="#DejaVuSans-20"/>
      <use x="434.277344" xlink:href="#DejaVuSans-66"/>
      <use x="463.982422" xlink:href="#DejaVuSans-2d"/>
      <use x="500.066406" xlink:href="#DejaVuSans-65"/>
      <use x="561.589844" xlink:href="#DejaVuSans-76"/>
      <use x="620.769531" xlink:href="#DejaVuSans-61"/>
      <use x="682.048828" xlink:href="#DejaVuSans-6c"/>
      <use x="709.832031" xlink:href="#DejaVuSans-73"/>
      <use x="761.931641" xlink:href="#DejaVuSans-20"/>
      <use x="793.71875" xlink:href="#DejaVuSans-2f"/>
      <use x="827.410156" xlink:href="#DejaVuSans-20"/>
      <use x="859.197266" xlink:href="#DejaVuSans-64"/>
      <use x="922.673828" xlink:href="#DejaVuSans-69"/>
      <use x="950.457031" xlink:href="#DejaVuSans-6d"/>
      <use x="1047.869141" xlink:href="#DejaVuSans-65"/>
      <use x="1109.392578" xlink:href="#DejaVuSans-6e"/>
      <use x="1172.771484" xlink:href="#DejaVuSans-73"/>
      <use x="1224.871094" xlink:href="#DejaVuSans-69"/>
      <use x="1252.654297" xlink:href="#DejaVuSans-6f"/>
      <use x="1313.835938" xlink:href="#DejaVuSans-6e"/>
      <use x="1377.214844" xlink:href="#DejaVuSans-29"/>
     </g>
    </g>
   </g>
   <g id="matplotlib.axis_2">
    <g id="ytick_1">
     <g id="line2d_21">
      <path clip-path="url(#p0d22791a2d)" d="M 57.6 298.944 
L 338.688 298.944 
" style="fill:none;stroke:#b0b0b0;stroke-linecap:square;stroke-width:0.8;"/>
     </g>
     <g id="line2d_22">
      <defs>
       <path d="M 0 0 
L -3.5 0 
" id="mce79a70ba4" style="stroke:#000000;stroke-width:0.8;"/>
      </defs>
      <g>
       <use style="stroke:#000000;stroke-width:0.8;" x="57.6" xlink:href="#mce79a70ba4" y="298.944"/>
      </g>
     </g>
     <g id="text_6">
      <!-- 0.0 -->
      <g transform="translate(25.155 305.02275)scale(0.16 -0.16)">
       <defs>
        <path d="M 684 794 
L 1344 794 
L 1344 0 
L 684 0 
L 684 794 
z
" id="DejaVuSans-2e" transform="scale(0.015625)"/>
       </defs>
       <use xlink:href="#DejaVuSans-30"/>
       <use x="63.623047" xlink:href="#DejaVuSans-2e"/>
       <use x="95.410156" xlink:href="#DejaVuSans-30"/>
      </g>
     </g>
    </g>
    <g id="ytick_2">
     <g id="line2d_23">
      <path clip-path="url(#p0d22791a2d)" d="M 57.6 245.22202 
L 338.688 245.22202 
" style="fill:none;stroke:#b0b0b0;stroke-linecap:square;stroke-width:0.8;"/>
     </g>
     <g id="line2d_24">
      <g>
       <use style="stroke:#000000;stroke-width:0.8;" x="57.6" xlink:href="#mce79a70ba4" y="245.22202"/>
      </g>
     </g>
     <g id="text_7">
      <!-- 0.2 -->
      <g transform="translate(25.155 251.30077)scale(0.16 -0.16)">
       <use xlink:href="#DejaVuSans-30"/>
       <use x="63.623047" xlink:href="#DejaVuSans-2e"/>
       <use x="95.410156" xlink:href="#DejaVuSans-32"/>
      </g>
     </g>
    </g>
    <g id="ytick_3">
     <g id="line2d_25">
      <path clip-path="url(#p0d22791a2d)" d="M 57.6 191.50004 
L 338.688 191.50004 
" style="fill:none;stroke:#b0b0b0;stroke-linecap:square;stroke-width:0.8;"/>
     </g>
     <g id="line2d_26">
      <g>
       <use style="stroke:#000000;stroke-width:0.8;" x="57.6" xlink:href="#mce79a70ba4" y="191.50004"/>
      </g>
     </g>
     <g id="text_8">
      <!-- 0.4 -->
      <g transform="translate(25.155 197.57879)scale(0.16 -0.16)">
       <use xlink:href="#DejaVuSans-30"/>
       <use x="63.623047" xlink:href="#DejaVuSans-2e"/>
       <use x="95.410156" xlink:href="#DejaVuSans-34"/>
      </g>
     </g>
    </g>
    <g id="ytick_4">
     <g id="line2d_27">
      <path clip-path="url(#p0d22791a2d)" d="M 57.6 137.778059 
L 338.688 137.778059 
" style="fill:none;stroke:#b0b0b0;stroke-linecap:square;stroke-width:0.8;"/>
     </g>
     <g id="line2d_28">
      <g>
       <use style="stroke:#000000;stroke-width:0.8;" x="57.6" xlink:href="#mce79a70ba4" y="137.778059"/>
      </g>
     </g>
     <g id="text_9">
      <!-- 0.6 -->
      <g transform="translate(25.155 143.856809)scale(0.16 -0.16)">
       <use xlink:href="#DejaVuSans-30"/>
       <use x="63.623047" xlink:href="#DejaVuSans-2e"/>
       <use x="95.410156" xlink:href="#DejaVuSans-36"/>
      </g>
     </g>
    </g>
    <g id="ytick_5">
     <g id="line2d_29">
      <path clip-path="url(#p0d22791a2d)" d="M 57.6 84.056079 
L 338.688 84.056079 
" style="fill:none;stroke:#b0b0b0;stroke-linecap:square;stroke-width:0.8;"/>
     </g>
     <g id="line2d_30">
      <g>
       <use style="stroke:#000000;stroke-width:0.8;" x="57.6" xlink:href="#mce79a70ba4" y="84.056079"/>
      </g>
     </g>
     <g id="text_10">
      <!-- 0.8 -->
      <g transform="translate(25.155 90.134829)scale(0.16 -0.16)">
       <defs>
        <path d="M 2034 2216 
Q 1584 2216 1326 1975 
Q 1069 1734 1069 1313 
Q 1069 891 1326 650 
Q 1584 409 2034 409 
Q 2484 409 2743 651 
Q 3003 894 3003 1313 
Q 3003 1734 2745 1975 
Q 2488 2216 2034 2216 
z
M 1403 2484 
Q 997 2584 770 2862 
Q 544 3141 544 3541 
Q 544 4100 942 4425 
Q 1341 4750 2034 4750 
Q 2731 4750 3128 4425 
Q 3525 4100 3525 3541 
Q 3525 3141 3298 2862 
Q 3072 2584 2669 2484 
Q 3125 2378 3379 2068 
Q 3634 1759 3634 1313 
Q 3634 634 3220 271 
Q 2806 -91 2034 -91 
Q 1263 -91 848 271 
Q 434 634 434 1313 
Q 434 1759 690 2068 
Q 947 2378 1403 2484 
z
M 1172 3481 
Q 1172 3119 1398 2916 
Q 1625 2713 2034 2713 
Q 2441 2713 2670 2916 
Q 2900 3119 2900 3481 
Q 2900 3844 2670 4047 
Q 2441 4250 2034 4250 
Q 1625 4250 1398 4047 
Q 1172 3844 1172 3481 
z
" id="DejaVuSans-38" transform="scale(0.015625)"/>
       </defs>
       <use xlink:href="#DejaVuSans-30"/>
       <use x="63.623047" xlink:href="#DejaVuSans-2e"/>
       <use x="95.410156" xlink:href="#DejaVuSans-38"/>
      </g>
     </g>
    </g>
    <g id="ytick_6">
     <g id="line2d_31">
      <path clip-path="url(#p0d22791a2d)" d="M 57.6 30.334099 
L 338.688 30.334099 
" style="fill:none;stroke:#b0b0b0;stroke-linecap:square;stroke-width:0.8;"/>
     </g>
     <g id="line2d_32">
      <g>
       <use style="stroke:#000000;stroke-width:0.8;" x="57.6" xlink:href="#mce79a70ba4" y="30.334099"/>
      </g>
     </g>
     <g id="text_11">
      <!-- 1.0 -->
      <g transform="translate(25.155 36.412849)scale(0.16 -0.16)">
       <use xlink:href="#DejaVuSans-31"/>
       <use x="63.623047" xlink:href="#DejaVuSans-2e"/>
       <use x="95.410156" xlink:href="#DejaVuSans-30"/>
      </g>
     </g>
    </g>
    <g id="text_12">
     <!-- Fraction of function,target pairs -->
     <g transform="translate(17.619531 297.681)rotate(-90)scale(0.17 -0.17)">
      <defs>
       <path d="M 628 4666 
L 3309 4666 
L 3309 4134 
L 1259 4134 
L 1259 2759 
L 3109 2759 
L 3109 2228 
L 1259 2228 
L 1259 0 
L 628 0 
L 628 4666 
z
" id="DejaVuSans-46" transform="scale(0.015625)"/>
       <path d="M 2631 2963 
Q 2534 3019 2420 3045 
Q 2306 3072 2169 3072 
Q 1681 3072 1420 2755 
Q 1159 2438 1159 1844 
L 1159 0 
L 581 0 
L 581 3500 
L 1159 3500 
L 1159 2956 
Q 1341 3275 1631 3429 
Q 1922 3584 2338 3584 
Q 2397 3584 2469 3576 
Q 2541 3569 2628 3553 
L 2631 2963 
z
" id="DejaVuSans-72" transform="scale(0.015625)"/>
       <path d="M 3122 3366 
L 3122 2828 
Q 2878 2963 2633 3030 
Q 2388 3097 2138 3097 
Q 1578 3097 1268 2742 
Q 959 2388 959 1747 
Q 959 1106 1268 751 
Q 1578 397 2138 397 
Q 2388 397 2633 464 
Q 2878 531 3122 666 
L 3122 134 
Q 2881 22 2623 -34 
Q 2366 -91 2075 -91 
Q 1284 -91 818 406 
Q 353 903 353 1747 
Q 353 2603 823 3093 
Q 1294 3584 2113 3584 
Q 2378 3584 2631 3529 
Q 2884 3475 3122 3366 
z
" id="DejaVuSans-63" transform="scale(0.015625)"/>
       <path d="M 1172 4494 
L 1172 3500 
L 2356 3500 
L 2356 3053 
L 1172 3053 
L 1172 1153 
Q 1172 725 1289 603 
Q 1406 481 1766 481 
L 2356 481 
L 2356 0 
L 1766 0 
Q 1100 0 847 248 
Q 594 497 594 1153 
L 594 3053 
L 172 3053 
L 172 3500 
L 594 3500 
L 594 4494 
L 1172 4494 
z
" id="DejaVuSans-74" transform="scale(0.015625)"/>
       <path d="M 544 1381 
L 544 3500 
L 1119 3500 
L 1119 1403 
Q 1119 906 1312 657 
Q 1506 409 1894 409 
Q 2359 409 2629 706 
Q 2900 1003 2900 1516 
L 2900 3500 
L 3475 3500 
L 3475 0 
L 2900 0 
L 2900 538 
Q 2691 219 2414 64 
Q 2138 -91 1772 -91 
Q 1169 -91 856 284 
Q 544 659 544 1381 
z
M 1991 3584 
L 1991 3584 
z
" id="DejaVuSans-75" transform="scale(0.015625)"/>
       <path d="M 750 794 
L 1409 794 
L 1409 256 
L 897 -744 
L 494 -744 
L 750 256 
L 750 794 
z
" id="DejaVuSans-2c" transform="scale(0.015625)"/>
       <path d="M 1159 525 
L 1159 -1331 
L 581 -1331 
L 581 3500 
L 1159 3500 
L 1159 2969 
Q 1341 3281 1617 3432 
Q 1894 3584 2278 3584 
Q 2916 3584 3314 3078 
Q 3713 2572 3713 1747 
Q 3713 922 3314 415 
Q 2916 -91 2278 -91 
Q 1894 -91 1617 61 
Q 1341 213 1159 525 
z
M 3116 1747 
Q 3116 2381 2855 2742 
Q 2594 3103 2138 3103 
Q 1681 3103 1420 2742 
Q 1159 2381 1159 1747 
Q 1159 1113 1420 752 
Q 1681 391 2138 391 
Q 2594 391 2855 752 
Q 3116 1113 3116 1747 
z
" id="DejaVuSans-70" transform="scale(0.015625)"/>
      </defs>
      <use xlink:href="#DejaVuSans-46"/>
      <use x="50.269531" xlink:href="#DejaVuSans-72"/>
      <use x="91.382812" xlink:href="#DejaVuSans-61"/>
      <use x="152.662109" xlink:href="#DejaVuSans-63"/>
      <use x="207.642578" xlink:href="#DejaVuSans-74"/>
      <use x="246.851562" xlink:href="#DejaVuSans-69"/>
      <use x="274.634766" xlink:href="#DejaVuSans-6f"/>
      <use x="335.816406" xlink:href="#DejaVuSans-6e"/>
      <use x="399.195312" xlink:href="#DejaVuSans-20"/>
      <use x="430.982422" xlink:href="#DejaVuSans-6f"/>
      <use x="492.164062" xlink:href="#DejaVuSans-66"/>
      <use x="527.369141" xlink:href="#DejaVuSans-20"/>
      <use x="559.15625" xlink:href="#DejaVuSans-66"/>
      <use x="594.361328" xlink:href="#DejaVuSans-75"/>
      <use x="657.740234" xlink:href="#DejaVuSans-6e"/>
      <use x="721.119141" xlink:href="#DejaVuSans-63"/>
      <use x="776.099609" xlink:href="#DejaVuSans-74"/>
      <use x="815.308594" xlink:href="#DejaVuSans-69"/>
      <use x="843.091797" xlink:href="#DejaVuSans-6f"/>
      <use x="904.273438" xlink:href="#DejaVuSans-6e"/>
      <use x="967.652344" xlink:href="#DejaVuSans-2c"/>
      <use x="999.439453" xlink:href="#DejaVuSans-74"/>
      <use x="1038.648438" xlink:href="#DejaVuSans-61"/>
      <use x="1099.927734" xlink:href="#DejaVuSans-72"/>
      <use x="1139.291016" xlink:href="#DejaVuSans-67"/>
      <use x="1202.767578" xlink:href="#DejaVuSans-65"/>
      <use x="1264.291016" xlink:href="#DejaVuSans-74"/>
      <use x="1303.5" xlink:href="#DejaVuSans-20"/>
      <use x="1335.287109" xlink:href="#DejaVuSans-70"/>
      <use x="1398.763672" xlink:href="#DejaVuSans-61"/>
      <use x="1460.042969" xlink:href="#DejaVuSans-69"/>
      <use x="1487.826172" xlink:href="#DejaVuSans-72"/>
      <use x="1528.939453" xlink:href="#DejaVuSans-73"/>
     </g>
    </g>
   </g>
   <g id="line2d_33">
    <defs>
     <path d="M 0 1.5 
C 0.397805 1.5 0.77937 1.341951 1.06066 1.06066 
C 1.341951 0.77937 1.5 0.397805 1.5 0 
C 1.5 -0.397805 1.341951 -0.77937 1.06066 -1.06066 
C 0.77937 -1.341951 0.397805 -1.5 0 -1.5 
C -0.397805 -1.5 -0.77937 -1.341951 -1.06066 -1.06066 
C -1.341951 -0.77937 -1.5 -0.397805 -1.5 0 
C -1.5 0.397805 -1.341951 0.77937 -1.06066 1.06066 
C -0.77937 1.341951 -0.397805 1.5 0 1.5 
z
" id="m2e8996bae6" style="stroke:#f5deb3;"/>
    </defs>
    <g>
     <use style="fill:#f5deb3;stroke:#f5deb3;" x="261.188307" xlink:href="#m2e8996bae6" y="62.752535"/>
     <use style="fill:#f5deb3;stroke:#f5deb3;" x="261.188307" xlink:href="#m2e8996bae6" y="62.752535"/>
    </g>
   </g>
   <g id="line2d_34">
    <defs>
     <path d="M 0 1.5 
C 0.397805 1.5 0.77937 1.341951 1.06066 1.06066 
C 1.341951 0.77937 1.5 0.397805 1.5 0 
C 1.5 -0.397805 1.341951 -0.77937 1.06066 -1.06066 
C 0.77937 -1.341951 0.397805 -1.5 0 -1.5 
C -0.397805 -1.5 -0.77937 -1.341951 -1.06066 -1.06066 
C -1.341951 -0.77937 -1.5 -0.397805 -1.5 0 
C -1.5 0.397805 -1.341951 0.77937 -1.06066 1.06066 
C -0.77937 1.341951 -0.397805 1.5 0 1.5 
z
" id="m4677bedf1a" style="stroke:#000080;"/>
    </defs>
    <g>
     <use style="fill:#000080;stroke:#000080;" x="232.877984" xlink:href="#m4677bedf1a" y="159.544724"/>
     <use style="fill:#000080;stroke:#000080;" x="232.877984" xlink:href="#m4677bedf1a" y="159.544724"/>
    </g>
   </g>
   <g id="line2d_35">
    <path d="M 38.440992 298.944 
L 38.440992 292.923433 
L 66.508432 292.923433 
L 66.508432 291.070951 
L 69.687988 291.070951 
L 69.687988 290.14471 
L 72.376266 290.14471 
L 72.376266 285.976625 
L 74.704957 285.976625 
L 74.704957 285.513505 
L 76.759008 285.513505 
L 76.759008 283.197902 
L 78.59642 283.197902 
L 78.59642 280.419179 
L 80.258561 280.419179 
L 80.258561 278.566697 
L 81.775977 278.566697 
L 81.775977 275.324854 
L 83.171864 275.324854 
L 83.171864 272.08301 
L 84.464254 272.08301 
L 84.464254 271.619889 
L 85.66744 271.619889 
L 85.66744 270.693648 
L 86.792945 270.693648 
L 86.792945 268.378046 
L 87.850195 268.378046 
L 87.850195 265.599323 
L 88.846997 265.599323 
L 88.846997 259.115635 
L 89.78989 259.115635 
L 89.78989 256.336912 
L 90.684409 256.336912 
L 90.684409 254.48443 
L 91.535274 254.48443 
L 91.535274 251.242587 
L 92.34655 251.242587 
L 92.34655 248.463863 
L 93.121756 248.463863 
L 93.121756 247.537622 
L 94.575872 247.537622 
L 94.575872 247.074502 
L 95.259853 247.074502 
L 95.259853 246.611381 
L 95.918017 246.611381 
L 95.918017 244.295779 
L 96.552242 244.295779 
L 96.552242 243.369538 
L 97.16421 243.369538 
L 97.16421 242.443297 
L 97.755429 242.443297 
L 97.755429 239.664574 
L 99.938184 239.664574 
L 99.938184 238.275212 
L 100.443706 238.275212 
L 100.443706 236.42273 
L 101.877879 236.42273 
L 101.877879 235.959609 
L 102.772397 235.959609 
L 102.772397 235.496489 
L 103.203018 235.496489 
L 103.203018 234.107127 
L 103.623262 234.107127 
L 103.623262 233.180886 
L 104.434538 233.180886 
L 104.434538 232.717766 
L 105.951954 232.717766 
L 105.951954 232.254645 
L 106.311539 232.254645 
L 106.311539 230.865284 
L 108.006005 230.865284 
L 108.006005 229.939043 
L 110.131676 229.939043 
L 110.131676 229.475922 
L 110.415248 229.475922 
L 110.415248 229.012802 
L 111.505558 229.012802 
L 111.505558 228.086561 
L 112.531694 228.086561 
L 112.531694 227.62344 
L 113.500792 227.62344 
L 113.500792 226.234079 
L 117.297733 226.234079 
L 117.297733 225.307837 
L 117.672786 225.307837 
L 117.672786 223.918476 
L 118.751849 223.918476 
L 118.751849 222.992235 
L 119.43583 222.992235 
L 119.43583 222.529114 
L 119.768017 222.529114 
L 119.768017 222.065994 
L 119.931767 222.065994 
L 119.931767 220.213512 
L 120.728219 220.213512 
L 120.728219 219.287271 
L 121.785469 219.287271 
L 121.785469 218.82415 
L 122.076131 218.82415 
L 122.076131 218.36103 
L 123.855796 218.36103 
L 123.855796 217.434789 
L 125.938745 217.434789 
L 125.938745 216.971668 
L 126.50685 216.971668 
L 126.50685 216.508548 
L 126.839037 216.508548 
L 126.839037 216.045427 
L 128.005624 216.045427 
L 128.005624 215.119186 
L 128.807571 215.119186 
L 128.905271 212.803583 
L 129.002426 212.803583 
L 129.002426 212.340463 
L 129.385722 212.340463 
L 129.385722 211.414222 
L 130.036864 211.414222 
L 130.036864 210.02486 
L 131.355321 210.02486 
L 131.355321 209.56174 
L 133.428175 209.56174 
L 133.428175 209.098619 
L 134.591225 209.098619 
L 134.591225 208.635499 
L 134.870259 208.635499 
L 134.870259 208.172378 
L 135.548916 208.172378 
L 135.548916 206.783017 
L 135.878591 206.783017 
L 135.878591 206.319896 
L 138.706272 206.319896 
L 138.706272 205.856776 
L 140.79731 205.856776 
L 140.79731 205.393655 
L 145.888018 205.393655 
L 145.888018 204.930535 
L 149.557321 204.930535 
L 149.557321 204.467414 
L 151.042412 204.467414 
L 151.042412 204.004294 
L 152.001148 204.004294 
L 152.001148 203.078053 
L 156.776762 203.078053 
L 156.776762 202.151812 
L 156.972711 202.151812 
L 156.972711 201.688691 
L 160.346039 201.688691 
L 160.346039 201.225571 
L 162.317821 201.225571 
L 162.317821 200.76245 
L 164.76265 200.76245 
L 164.76265 199.836209 
L 169.331381 199.836209 
L 169.331381 199.373088 
L 173.613646 199.373088 
L 173.613646 198.909968 
L 177.177886 198.909968 
L 177.177886 198.446847 
L 178.176386 198.446847 
L 178.176386 197.520606 
L 179.980262 197.520606 
L 180.084129 191.036919 
L 180.228512 191.036919 
L 180.228512 190.573799 
L 180.51374 190.573799 
L 180.51374 190.110678 
L 185.862228 190.110678 
L 185.862228 189.647558 
L 187.615046 189.647558 
L 187.615046 188.721316 
L 191.156727 188.721316 
L 191.156727 187.795075 
L 193.229368 187.795075 
L 193.268311 185.479473 
L 193.626854 185.479473 
L 193.626854 185.016352 
L 194.233072 185.016352 
L 194.233072 184.553232 
L 194.792209 184.553232 
L 194.792209 183.626991 
L 195.392188 183.626991 
L 195.465219 182.237629 
L 195.527269 182.237629 
L 195.527269 181.311388 
L 195.739557 181.311388 
L 195.739557 180.848268 
L 196.383727 180.848268 
L 196.383727 180.385147 
L 196.678119 180.385147 
L 196.678119 179.458906 
L 196.841309 179.458906 
L 196.841309 178.995786 
L 198.50273 178.995786 
L 198.50273 178.532665 
L 198.713944 178.532665 
L 198.769011 176.680183 
L 199.842007 176.680183 
L 199.842007 176.217062 
L 200.340141 176.217062 
L 200.374144 174.827701 
L 201.043747 174.827701 
L 201.043747 174.36458 
L 201.289516 174.36458 
L 201.382894 172.975219 
L 201.474255 172.975219 
L 201.474255 172.512098 
L 202.749279 172.512098 
L 202.749279 172.048978 
L 204.287269 172.048978 
L 204.34018 170.659616 
L 205.877235 170.659616 
L 205.877235 170.196496 
L 206.703306 170.196496 
L 206.703306 169.270255 
L 207.133434 169.270255 
L 207.133434 168.344014 
L 208.003893 168.344014 
L 208.003893 167.417773 
L 209.239494 167.417773 
L 209.295835 166.028411 
L 210.111474 166.028411 
L 210.111474 165.10217 
L 210.978066 165.10217 
L 210.978066 164.63905 
L 212.123209 164.63905 
L 212.123209 164.175929 
L 213.730762 164.175929 
L 213.730762 163.712808 
L 215.035878 163.712808 
L 215.035878 162.786567 
L 217.89725 162.786567 
L 217.89725 162.323447 
L 225.579087 162.323447 
L 225.579087 161.860326 
L 226.839643 161.860326 
L 226.839643 160.934085 
L 227.634791 160.934085 
L 227.634791 160.470965 
L 228.412119 160.470965 
L 228.412119 160.007844 
L 232.877984 160.007844 
L 232.877984 159.544724 
L 338.688 159.544724 
L 338.688 159.544724 
" style="fill:none;stroke:#000080;stroke-linecap:square;stroke-width:1.5;"/>
   </g>
   <g id="line2d_36">
    <defs>
     <path d="M 0 6 
C 1.591219 6 3.117479 5.367802 4.242641 4.242641 
C 5.367802 3.117479 6 1.591219 6 0 
C 6 -1.591219 5.367802 -3.117479 4.242641 -4.242641 
C 3.117479 -5.367802 1.591219 -6 0 -6 
C -1.591219 -6 -3.117479 -5.367802 -4.242641 -4.242641 
C -5.367802 -3.117479 -6 -1.591219 -6 0 
C -6 1.591219 -5.367802 3.117479 -4.242641 4.242641 
C -3.117479 5.367802 -1.591219 6 0 6 
z
" id="me8e9c7b767" style="stroke:#000080;stroke-width:1.5;"/>
    </defs>
    <g>
     <use style="fill-opacity:0;stroke:#000080;stroke-width:1.5;" x="117.672786" xlink:href="#me8e9c7b767" y="225.307837"/>
     <use style="fill-opacity:0;stroke:#000080;stroke-width:1.5;" x="162.317821" xlink:href="#me8e9c7b767" y="201.225571"/>
     <use style="fill-opacity:0;stroke:#000080;stroke-width:1.5;" x="232.877984" xlink:href="#me8e9c7b767" y="160.007844"/>
     <use style="fill-opacity:0;stroke:#000080;stroke-width:1.5;" x="232.877984" xlink:href="#me8e9c7b767" y="159.544724"/>
     <use style="fill-opacity:0;stroke:#000080;stroke-width:1.5;" x="232.877984" xlink:href="#me8e9c7b767" y="159.544724"/>
     <use style="fill-opacity:0;stroke:#000080;stroke-width:1.5;" x="338.688" xlink:href="#me8e9c7b767" y="159.544724"/>
    </g>
   </g>
   <g id="line2d_37">
    <path style="fill:none;stroke:#000080;stroke-linecap:square;stroke-width:1.5;"/>
    <g/>
   </g>
   <g id="line2d_38">
    <path clip-path="url(#p0d22791a2d)" d="M 234.882464 159.544724 
" style="fill:none;stroke:#000080;stroke-linecap:square;stroke-width:1.5;"/>
    <defs>
     <path d="M -12 12 
L 12 -12 
M -12 -12 
L 12 12 
" id="m016bdd0973" style="stroke:#000080;"/>
    </defs>
    <g clip-path="url(#p0d22791a2d)">
     <use style="fill:#000080;stroke:#000080;" x="234.882464" xlink:href="#m016bdd0973" y="159.544724"/>
    </g>
   </g>
   <g id="line2d_39">
    <defs>
     <path d="M 0 1.5 
C 0.397805 1.5 0.77937 1.341951 1.06066 1.06066 
C 1.341951 0.77937 1.5 0.397805 1.5 0 
C 1.5 -0.397805 1.341951 -0.77937 1.06066 -1.06066 
C 0.77937 -1.341951 0.397805 -1.5 0 -1.5 
C -0.397805 -1.5 -0.77937 -1.341951 -1.06066 -1.06066 
C -1.341951 -0.77937 -1.5 -0.397805 -1.5 0 
C -1.5 0.397805 -1.341951 0.77937 -1.06066 1.06066 
C -0.77937 1.341951 -0.397805 1.5 0 1.5 
z
" id="ma08a4609ed" style="stroke:#ff00ff;"/>
    </defs>
    <g>
     <use style="fill:#ff00ff;stroke:#ff00ff;" x="233.363096" xlink:href="#ma08a4609ed" y="170.196496"/>
     <use style="fill:#ff00ff;stroke:#ff00ff;" x="233.363096" xlink:href="#ma08a4609ed" y="170.196496"/>
    </g>
   </g>
   <g id="line2d_40">
    <path d="M 66.508432 298.944 
L 66.508432 292.923433 
L 114.193835 292.923433 
L 114.193835 291.070951 
L 115.711251 291.070951 
L 115.711251 290.607831 
L 117.297733 290.607831 
L 117.297733 289.68159 
L 118.039942 289.68159 
L 118.039942 287.365987 
L 120.093994 287.365987 
L 120.093994 286.902867 
L 120.883236 286.902867 
L 120.883236 286.439746 
L 122.643312 286.439746 
L 122.643312 284.124143 
L 122.782271 284.124143 
L 122.782271 282.734782 
L 123.056911 282.734782 
L 123.056911 280.419179 
L 124.241922 280.419179 
L 124.241922 279.492938 
L 124.619683 279.492938 
L 124.619683 278.103577 
L 124.743806 278.103577 
L 124.743806 275.787974 
L 126.729009 275.787974 
L 126.729009 275.324854 
L 127.272333 275.324854 
L 127.272333 271.156769 
L 127.48501 271.156769 
L 127.48501 270.693648 
L 127.695124 270.693648 
L 127.695124 269.767407 
L 128.310692 269.767407 
L 128.310692 266.988684 
L 128.905271 266.988684 
L 129.002426 262.357479 
L 130.839837 262.357479 
L 130.839837 261.431238 
L 131.60746 261.431238 
L 131.60746 260.968117 
L 131.856005 260.968117 
L 131.938072 257.263153 
L 132.101058 257.263153 
L 132.101058 255.873792 
L 133.124876 255.873792 
L 133.124876 255.410671 
L 134.450015 255.410671 
L 134.450015 254.48443 
L 134.661403 254.48443 
L 134.661403 253.095069 
L 135.144899 253.095069 
L 135.144899 252.168828 
L 137.319638 252.168828 
L 137.319638 251.705707 
L 137.558536 251.705707 
L 137.617753 249.390104 
L 137.852629 249.390104 
L 137.852629 248.926984 
L 138.650644 248.926984 
L 138.650644 242.443297 
L 140.993259 242.443297 
L 140.993259 241.980176 
L 142.664255 241.980176 
L 142.664255 240.127694 
L 143.40093 240.127694 
L 143.40093 239.201453 
L 143.527762 239.201453 
L 143.527762 237.812091 
L 144.629556 237.812091 
L 144.629556 236.42273 
L 147.198794 236.42273 
L 147.198794 235.959609 
L 147.86833 235.959609 
L 147.86833 235.033368 
L 149.073705 235.033368 
L 149.073705 234.570248 
L 150.258492 234.570248 
L 150.258492 234.107127 
L 150.654857 234.107127 
L 150.654857 233.180886 
L 150.766468 233.180886 
L 150.822008 231.328404 
L 150.904986 231.328404 
L 150.987572 228.549681 
L 151.660987 228.549681 
L 151.660987 228.086561 
L 152.410901 228.086561 
L 152.486669 227.16032 
L 152.909913 227.16032 
L 152.959038 224.381596 
L 153.347132 224.381596 
L 153.347132 223.455355 
L 153.537988 223.455355 
L 153.537988 222.992235 
L 155.657823 222.992235 
L 155.657823 222.529114 
L 156.052535 222.529114 
L 156.052535 222.065994 
L 156.598505 222.065994 
L 156.598505 221.139753 
L 157.358125 221.139753 
L 157.358125 220.676632 
L 157.641697 220.676632 
L 157.641697 219.750391 
L 158.086033 219.750391 
L 158.086033 219.287271 
L 158.412011 219.287271 
L 158.412011 218.36103 
L 159.758143 218.36103 
L 159.758143 217.897909 
L 161.940898 217.897909 
L 161.940898 215.582307 
L 162.896128 215.582307 
L 162.992975 214.192945 
L 163.07556 214.192945 
L 163.07556 213.266704 
L 163.696049 213.266704 
L 163.696049 212.803583 
L 165.59035 212.803583 
L 165.59035 212.340463 
L 165.779524 212.340463 
L 165.779524 211.877342 
L 169.283352 211.877342 
L 169.283352 211.414222 
L 169.673338 211.414222 
L 169.748427 210.02486 
L 170.017944 210.02486 
L 170.017944 209.56174 
L 170.508968 209.56174 
L 170.508968 208.635499 
L 170.916612 208.635499 
L 170.925369 207.246137 
L 171.082245 207.246137 
L 171.082245 206.783017 
L 172.175184 206.783017 
L 172.175184 206.319896 
L 172.288901 206.319896 
L 172.288901 205.856776 
L 172.409924 205.856776 
L 172.409924 205.393655 
L 177.588952 205.393655 
L 177.588952 204.930535 
L 177.849864 204.930535 
L 177.943781 203.078053 
L 183.946572 203.078053 
L 183.946572 202.614932 
L 185.917903 202.614932 
L 185.917903 201.688691 
L 186.859237 201.688691 
L 186.859237 200.76245 
L 186.985178 200.76245 
L 186.985178 200.299329 
L 188.582872 200.299329 
L 188.681193 198.909968 
L 188.766378 198.909968 
L 188.766378 198.446847 
L 189.247514 198.446847 
L 189.329983 197.520606 
L 192.877395 197.520606 
L 192.877395 196.594365 
L 193.10956 196.594365 
L 193.10956 196.131245 
L 193.239112 196.131245 
L 193.239112 195.668124 
L 193.473751 195.668124 
L 193.473751 195.205004 
L 193.588704 195.205004 
L 193.588704 193.815642 
L 195.013579 193.815642 
L 195.013579 193.352522 
L 195.327494 193.352522 
L 195.327494 192.889401 
L 196.710081 192.889401 
L 196.710081 192.426281 
L 197.190381 192.426281 
L 197.190381 191.96316 
L 197.903685 191.96316 
L 197.903685 191.036919 
L 198.063237 191.036919 
L 198.063237 190.573799 
L 201.204893 190.573799 
L 201.204893 187.795075 
L 204.576948 187.795075 
L 204.576948 187.331955 
L 204.722524 187.331955 
L 204.722524 186.868834 
L 208.387121 186.868834 
L 208.387121 185.942593 
L 208.912452 185.942593 
L 208.912452 185.016352 
L 209.903855 185.016352 
L 209.903855 184.553232 
L 210.017747 184.553232 
L 210.017747 183.16387 
L 210.399688 183.16387 
L 210.399688 182.70075 
L 210.735979 182.70075 
L 210.735979 182.237629 
L 211.005344 182.237629 
L 211.005344 181.774509 
L 212.731792 181.774509 
L 212.731792 181.311388 
L 217.298413 181.311388 
L 217.298413 180.385147 
L 220.25405 180.385147 
L 220.280416 178.995786 
L 220.485834 178.995786 
L 220.485834 178.532665 
L 223.122324 178.532665 
L 223.122324 178.069545 
L 223.393206 178.069545 
L 223.393206 176.680183 
L 223.815435 176.680183 
L 223.815435 176.217062 
L 224.838884 176.217062 
L 224.838884 175.290821 
L 225.020899 175.290821 
L 225.020899 174.36458 
L 227.101871 174.36458 
L 227.101871 173.90146 
L 228.952937 173.90146 
L 228.952937 172.975219 
L 229.94314 172.975219 
L 229.94314 172.512098 
L 232.290744 172.512098 
L 232.290744 172.048978 
L 232.792485 172.048978 
L 232.792485 171.585857 
L 233.189011 171.585857 
L 233.189011 171.122737 
L 233.363096 171.122737 
L 233.363096 170.196496 
L 338.688 170.196496 
L 338.688 170.196496 
" style="fill:none;stroke:#ff00ff;stroke-linecap:square;stroke-width:1.5;"/>
   </g>
   <g id="line2d_41">
    <defs>
     <path d="M 0 8.485281 
L 5.091169 0 
L 0 -8.485281 
L -5.091169 0 
z
" id="m8b31e62a0a" style="stroke:#ff00ff;stroke-linejoin:miter;stroke-width:1.5;"/>
    </defs>
    <g>
     <use style="fill-opacity:0;stroke:#ff00ff;stroke-linejoin:miter;stroke-width:1.5;" x="165.779524" xlink:href="#m8b31e62a0a" y="211.877342"/>
     <use style="fill-opacity:0;stroke:#ff00ff;stroke-linejoin:miter;stroke-width:1.5;" x="223.122324" xlink:href="#m8b31e62a0a" y="178.069545"/>
     <use style="fill-opacity:0;stroke:#ff00ff;stroke-linejoin:miter;stroke-width:1.5;" x="233.363096" xlink:href="#m8b31e62a0a" y="170.196496"/>
     <use style="fill-opacity:0;stroke:#ff00ff;stroke-linejoin:miter;stroke-width:1.5;" x="233.363096" xlink:href="#m8b31e62a0a" y="170.196496"/>
     <use style="fill-opacity:0;stroke:#ff00ff;stroke-linejoin:miter;stroke-width:1.5;" x="338.688" xlink:href="#m8b31e62a0a" y="170.196496"/>
    </g>
   </g>
   <g id="line2d_42">
    <path style="fill:none;stroke:#ff00ff;stroke-linecap:square;stroke-width:1.5;"/>
    <g/>
   </g>
   <g id="line2d_43">
    <path clip-path="url(#p0d22791a2d)" d="M 234.201631 170.196496 
" style="fill:none;stroke:#ff00ff;stroke-linecap:square;stroke-width:1.5;"/>
    <defs>
     <path d="M -12 12 
L 12 -12 
M -12 -12 
L 12 12 
" id="mae57eaa7ab" style="stroke:#ff00ff;"/>
    </defs>
    <g clip-path="url(#p0d22791a2d)">
     <use style="fill:#ff00ff;stroke:#ff00ff;" x="234.201631" xlink:href="#mae57eaa7ab" y="170.196496"/>
    </g>
   </g>
   <g id="line2d_44">
    <path d="M 338.688 170.196496 
L 369.60768 293.571802 
" style="fill:none;stroke:#ff00ff;stroke-linecap:square;stroke-width:1.5;"/>
    <g>
     <use style="fill-opacity:0;stroke:#ff00ff;stroke-linejoin:miter;stroke-width:1.5;" x="338.688" xlink:href="#m8b31e62a0a" y="170.196496"/>
     <use style="fill-opacity:0;stroke:#ff00ff;stroke-linejoin:miter;stroke-width:1.5;" x="369.60768" xlink:href="#m8b31e62a0a" y="293.571802"/>
    </g>
   </g>
   <g id="line2d_45">
    <path d="M 338.688 159.544724 
L 369.60768 164.63905 
" style="fill:none;stroke:#000080;stroke-linecap:square;stroke-width:1.5;"/>
    <g>
     <use style="fill-opacity:0;stroke:#000080;stroke-width:1.5;" x="338.688" xlink:href="#me8e9c7b767" y="159.544724"/>
     <use style="fill-opacity:0;stroke:#000080;stroke-width:1.5;" x="369.60768" xlink:href="#me8e9c7b767" y="164.63905"/>
    </g>
   </g>
   <g id="line2d_46">
    <path d="M 338.688 298.944 
L 338.688 30.334099 
" style="fill:none;stroke:#000000;stroke-linecap:square;stroke-width:1.5;"/>
   </g>
   <g id="patch_3">
    <path d="M 57.6 298.944 
L 57.6 27.648 
" style="fill:none;stroke:#000000;stroke-linecap:square;stroke-linejoin:miter;stroke-width:0.8;"/>
   </g>
   <g id="patch_4">
    <path d="M 338.688 298.944 
L 338.688 27.648 
" style="fill:none;stroke:#000000;stroke-linecap:square;stroke-linejoin:miter;stroke-width:0.8;"/>
   </g>
   <g id="patch_5">
    <path d="M 57.6 298.944 
L 338.688 298.944 
" style="fill:none;stroke:#000000;stroke-linecap:square;stroke-linejoin:miter;stroke-width:0.8;"/>
   </g>
   <g id="patch_6">
    <path d="M 57.6 27.648 
L 338.688 27.648 
" style="fill:none;stroke:#000000;stroke-linecap:square;stroke-linejoin:miter;stroke-width:0.8;"/>
   </g>
   <g id="text_13">
    <!-- MultiGLOD -->
    <g transform="translate(375.22944 298.262739)scale(0.17 -0.17)">
     <defs>
      <path d="M 628 4666 
L 1569 4666 
L 2759 1491 
L 3956 4666 
L 4897 4666 
L 4897 0 
L 4281 0 
L 4281 4097 
L 3078 897 
L 2444 897 
L 1241 4097 
L 1241 0 
L 628 0 
L 628 4666 
z
" id="DejaVuSans-4d" transform="scale(0.015625)"/>
      <path d="M 3809 666 
L 3809 1919 
L 2778 1919 
L 2778 2438 
L 4434 2438 
L 4434 434 
Q 4069 175 3628 42 
Q 3188 -91 2688 -91 
Q 1594 -91 976 548 
Q 359 1188 359 2328 
Q 359 3472 976 4111 
Q 1594 4750 2688 4750 
Q 3144 4750 3555 4637 
Q 3966 4525 4313 4306 
L 4313 3634 
Q 3963 3931 3569 4081 
Q 3175 4231 2741 4231 
Q 1884 4231 1454 3753 
Q 1025 3275 1025 2328 
Q 1025 1384 1454 906 
Q 1884 428 2741 428 
Q 3075 428 3337 486 
Q 3600 544 3809 666 
z
" id="DejaVuSans-47" transform="scale(0.015625)"/>
      <path d="M 628 4666 
L 1259 4666 
L 1259 531 
L 3531 531 
L 3531 0 
L 628 0 
L 628 4666 
z
" id="DejaVuSans-4c" transform="scale(0.015625)"/>
      <path d="M 2522 4238 
Q 1834 4238 1429 3725 
Q 1025 3213 1025 2328 
Q 1025 1447 1429 934 
Q 1834 422 2522 422 
Q 3209 422 3611 934 
Q 4013 1447 4013 2328 
Q 4013 3213 3611 3725 
Q 3209 4238 2522 4238 
z
M 2522 4750 
Q 3503 4750 4090 4092 
Q 4678 3434 4678 2328 
Q 4678 1225 4090 567 
Q 3503 -91 2522 -91 
Q 1538 -91 948 565 
Q 359 1222 359 2328 
Q 359 3434 948 4092 
Q 1538 4750 2522 4750 
z
" id="DejaVuSans-4f" transform="scale(0.015625)"/>
      <path d="M 1259 4147 
L 1259 519 
L 2022 519 
Q 2988 519 3436 956 
Q 3884 1394 3884 2338 
Q 3884 3275 3436 3711 
Q 2988 4147 2022 4147 
L 1259 4147 
z
M 628 4666 
L 1925 4666 
Q 3281 4666 3915 4102 
Q 4550 3538 4550 2338 
Q 4550 1131 3912 565 
Q 3275 0 1925 0 
L 628 0 
L 628 4666 
z
" id="DejaVuSans-44" transform="scale(0.015625)"/>
     </defs>
     <use xlink:href="#DejaVuSans-4d"/>
     <use x="86.279297" xlink:href="#DejaVuSans-75"/>
     <use x="149.658203" xlink:href="#DejaVuSans-6c"/>
     <use x="177.441406" xlink:href="#DejaVuSans-74"/>
     <use x="216.650391" xlink:href="#DejaVuSans-69"/>
     <use x="244.433594" xlink:href="#DejaVuSans-47"/>
     <use x="321.923828" xlink:href="#DejaVuSans-4c"/>
     <use x="374.011719" xlink:href="#DejaVuSans-4f"/>
     <use x="452.722656" xlink:href="#DejaVuSans-44"/>
    </g>
   </g>
   <g id="text_14">
    <!-- DMS Brock -->
    <g transform="translate(375.22944 169.329987)scale(0.17 -0.17)">
     <defs>
      <path d="M 3425 4513 
L 3425 3897 
Q 3066 4069 2747 4153 
Q 2428 4238 2131 4238 
Q 1616 4238 1336 4038 
Q 1056 3838 1056 3469 
Q 1056 3159 1242 3001 
Q 1428 2844 1947 2747 
L 2328 2669 
Q 3034 2534 3370 2195 
Q 3706 1856 3706 1288 
Q 3706 609 3251 259 
Q 2797 -91 1919 -91 
Q 1588 -91 1214 -16 
Q 841 59 441 206 
L 441 856 
Q 825 641 1194 531 
Q 1563 422 1919 422 
Q 2459 422 2753 634 
Q 3047 847 3047 1241 
Q 3047 1584 2836 1778 
Q 2625 1972 2144 2069 
L 1759 2144 
Q 1053 2284 737 2584 
Q 422 2884 422 3419 
Q 422 4038 858 4394 
Q 1294 4750 2059 4750 
Q 2388 4750 2728 4690 
Q 3069 4631 3425 4513 
z
" id="DejaVuSans-53" transform="scale(0.015625)"/>
      <path d="M 1259 2228 
L 1259 519 
L 2272 519 
Q 2781 519 3026 730 
Q 3272 941 3272 1375 
Q 3272 1813 3026 2020 
Q 2781 2228 2272 2228 
L 1259 2228 
z
M 1259 4147 
L 1259 2741 
L 2194 2741 
Q 2656 2741 2882 2914 
Q 3109 3088 3109 3444 
Q 3109 3797 2882 3972 
Q 2656 4147 2194 4147 
L 1259 4147 
z
M 628 4666 
L 2241 4666 
Q 2963 4666 3353 4366 
Q 3744 4066 3744 3513 
Q 3744 3084 3544 2831 
Q 3344 2578 2956 2516 
Q 3422 2416 3680 2098 
Q 3938 1781 3938 1306 
Q 3938 681 3513 340 
Q 3088 0 2303 0 
L 628 0 
L 628 4666 
z
" id="DejaVuSans-42" transform="scale(0.015625)"/>
      <path d="M 581 4863 
L 1159 4863 
L 1159 1991 
L 2875 3500 
L 3609 3500 
L 1753 1863 
L 3688 0 
L 2938 0 
L 1159 1709 
L 1159 0 
L 581 0 
L 581 4863 
z
" id="DejaVuSans-6b" transform="scale(0.015625)"/>
     </defs>
     <use xlink:href="#DejaVuSans-44"/>
     <use x="77.001953" xlink:href="#DejaVuSans-4d"/>
     <use x="163.28125" xlink:href="#DejaVuSans-53"/>
     <use x="226.757812" xlink:href="#DejaVuSans-20"/>
     <use x="258.544922" xlink:href="#DejaVuSans-42"/>
     <use x="327.148438" xlink:href="#DejaVuSans-72"/>
     <use x="366.011719" xlink:href="#DejaVuSans-6f"/>
     <use x="427.193359" xlink:href="#DejaVuSans-63"/>
     <use x="482.173828" xlink:href="#DejaVuSans-6b"/>
    </g>
   </g>
   <g id="text_15">
    <!-- best 2016 -->
    <g transform="translate(375.22944 40.397235)scale(0.17 -0.17)">
     <defs>
      <path d="M 3116 1747 
Q 3116 2381 2855 2742 
Q 2594 3103 2138 3103 
Q 1681 3103 1420 2742 
Q 1159 2381 1159 1747 
Q 1159 1113 1420 752 
Q 1681 391 2138 391 
Q 2594 391 2855 752 
Q 3116 1113 3116 1747 
z
M 1159 2969 
Q 1341 3281 1617 3432 
Q 1894 3584 2278 3584 
Q 2916 3584 3314 3078 
Q 3713 2572 3713 1747 
Q 3713 922 3314 415 
Q 2916 -91 2278 -91 
Q 1894 -91 1617 61 
Q 1341 213 1159 525 
L 1159 0 
L 581 0 
L 581 4863 
L 1159 4863 
L 1159 2969 
z
" id="DejaVuSans-62" transform="scale(0.015625)"/>
     </defs>
     <use xlink:href="#DejaVuSans-62"/>
     <use x="63.476562" xlink:href="#DejaVuSans-65"/>
     <use x="125" xlink:href="#DejaVuSans-73"/>
     <use x="177.099609" xlink:href="#DejaVuSans-74"/>
     <use x="216.308594" xlink:href="#DejaVuSans-20"/>
     <use x="248.095703" xlink:href="#DejaVuSans-32"/>
     <use x="311.71875" xlink:href="#DejaVuSans-30"/>
     <use x="375.341797" xlink:href="#DejaVuSans-31"/>
     <use x="438.964844" xlink:href="#DejaVuSans-36"/>
    </g>
   </g>
   <g id="text_16">
    <!-- bbob-biobj f33, 3-D -->
    <g transform="translate(60.41088 38.111366)scale(0.102 -0.102)">
     <defs>
      <path d="M 603 3500 
L 1178 3500 
L 1178 -63 
Q 1178 -731 923 -1031 
Q 669 -1331 103 -1331 
L -116 -1331 
L -116 -844 
L 38 -844 
Q 366 -844 484 -692 
Q 603 -541 603 -63 
L 603 3500 
z
M 603 4863 
L 1178 4863 
L 1178 4134 
L 603 4134 
L 603 4863 
z
" id="DejaVuSans-6a" transform="scale(0.015625)"/>
      <path d="M 2597 2516 
Q 3050 2419 3304 2112 
Q 3559 1806 3559 1356 
Q 3559 666 3084 287 
Q 2609 -91 1734 -91 
Q 1441 -91 1130 -33 
Q 819 25 488 141 
L 488 750 
Q 750 597 1062 519 
Q 1375 441 1716 441 
Q 2309 441 2620 675 
Q 2931 909 2931 1356 
Q 2931 1769 2642 2001 
Q 2353 2234 1838 2234 
L 1294 2234 
L 1294 2753 
L 1863 2753 
Q 2328 2753 2575 2939 
Q 2822 3125 2822 3475 
Q 2822 3834 2567 4026 
Q 2313 4219 1838 4219 
Q 1578 4219 1281 4162 
Q 984 4106 628 3988 
L 628 4550 
Q 988 4650 1302 4700 
Q 1616 4750 1894 4750 
Q 2613 4750 3031 4423 
Q 3450 4097 3450 3541 
Q 3450 3153 3228 2886 
Q 3006 2619 2597 2516 
z
" id="DejaVuSans-33" transform="scale(0.015625)"/>
     </defs>
     <use xlink:href="#DejaVuSans-62"/>
     <use x="63.476562" xlink:href="#DejaVuSans-62"/>
     <use x="126.953125" xlink:href="#DejaVuSans-6f"/>
     <use x="188.134766" xlink:href="#DejaVuSans-62"/>
     <use x="251.611328" xlink:href="#DejaVuSans-2d"/>
     <use x="287.695312" xlink:href="#DejaVuSans-62"/>
     <use x="351.171875" xlink:href="#DejaVuSans-69"/>
     <use x="378.955078" xlink:href="#DejaVuSans-6f"/>
     <use x="440.136719" xlink:href="#DejaVuSans-62"/>
     <use x="503.613281" xlink:href="#DejaVuSans-6a"/>
     <use x="531.396484" xlink:href="#DejaVuSans-20"/>
     <use x="563.183594" xlink:href="#DejaVuSans-66"/>
     <use x="598.388672" xlink:href="#DejaVuSans-33"/>
     <use x="662.011719" xlink:href="#DejaVuSans-33"/>
     <use x="725.634766" xlink:href="#DejaVuSans-2c"/>
     <use x="757.421875" xlink:href="#DejaVuSans-20"/>
     <use x="789.208984" xlink:href="#DejaVuSans-33"/>
     <use x="852.832031" xlink:href="#DejaVuSans-2d"/>
     <use x="888.916016" xlink:href="#DejaVuSans-44"/>
    </g>
    <!-- 58 targets: 1..-1.0e-4 -->
    <g transform="translate(60.41088 49.533135)scale(0.102 -0.102)">
     <defs>
      <path d="M 691 4666 
L 3169 4666 
L 3169 4134 
L 1269 4134 
L 1269 2991 
Q 1406 3038 1543 3061 
Q 1681 3084 1819 3084 
Q 2600 3084 3056 2656 
Q 3513 2228 3513 1497 
Q 3513 744 3044 326 
Q 2575 -91 1722 -91 
Q 1428 -91 1123 -41 
Q 819 9 494 109 
L 494 744 
Q 775 591 1075 516 
Q 1375 441 1709 441 
Q 2250 441 2565 725 
Q 2881 1009 2881 1497 
Q 2881 1984 2565 2268 
Q 2250 2553 1709 2553 
Q 1456 2553 1204 2497 
Q 953 2441 691 2322 
L 691 4666 
z
" id="DejaVuSans-35" transform="scale(0.015625)"/>
      <path d="M 750 794 
L 1409 794 
L 1409 0 
L 750 0 
L 750 794 
z
M 750 3309 
L 1409 3309 
L 1409 2516 
L 750 2516 
L 750 3309 
z
" id="DejaVuSans-3a" transform="scale(0.015625)"/>
     </defs>
     <use xlink:href="#DejaVuSans-35"/>
     <use x="63.623047" xlink:href="#DejaVuSans-38"/>
     <use x="127.246094" xlink:href="#DejaVuSans-20"/>
     <use x="159.033203" xlink:href="#DejaVuSans-74"/>
     <use x="198.242188" xlink:href="#DejaVuSans-61"/>
     <use x="259.521484" xlink:href="#DejaVuSans-72"/>
     <use x="298.884766" xlink:href="#DejaVuSans-67"/>
     <use x="362.361328" xlink:href="#DejaVuSans-65"/>
     <use x="423.884766" xlink:href="#DejaVuSans-74"/>
     <use x="463.09375" xlink:href="#DejaVuSans-73"/>
     <use x="515.193359" xlink:href="#DejaVuSans-3a"/>
     <use x="548.884766" xlink:href="#DejaVuSans-20"/>
     <use x="580.671875" xlink:href="#DejaVuSans-31"/>
     <use x="644.294922" xlink:href="#DejaVuSans-2e"/>
     <use x="676.082031" xlink:href="#DejaVuSans-2e"/>
     <use x="707.869141" xlink:href="#DejaVuSans-2d"/>
     <use x="743.953125" xlink:href="#DejaVuSans-31"/>
     <use x="807.576172" xlink:href="#DejaVuSans-2e"/>
     <use x="839.363281" xlink:href="#DejaVuSans-30"/>
     <use x="902.986328" xlink:href="#DejaVuSans-65"/>
     <use x="964.509766" xlink:href="#DejaVuSans-2d"/>
     <use x="1000.59375" xlink:href="#DejaVuSans-34"/>
    </g>
    <!-- 10 instances -->
    <g transform="translate(60.41088 60.954904)scale(0.102 -0.102)">
     <use xlink:href="#DejaVuSans-31"/>
     <use x="63.623047" xlink:href="#DejaVuSans-30"/>
     <use x="127.246094" xlink:href="#DejaVuSans-20"/>
     <use x="159.033203" xlink:href="#DejaVuSans-69"/>
     <use x="186.816406" xlink:href="#DejaVuSans-6e"/>
     <use x="250.195312" xlink:href="#DejaVuSans-73"/>
     <use x="302.294922" xlink:href="#DejaVuSans-74"/>
     <use x="341.503906" xlink:href="#DejaVuSans-61"/>
     <use x="402.783203" xlink:href="#DejaVuSans-6e"/>
     <use x="466.162109" xlink:href="#DejaVuSans-63"/>
     <use x="521.142578" xlink:href="#DejaVuSans-65"/>
     <use x="582.666016" xlink:href="#DejaVuSans-73"/>
    </g>
   </g>
   <g id="text_17">
    <!-- v2.4.1.1, hv-hash=ff0e71e8cd978373 -->
    <g style="fill:#808080;" transform="translate(103.108062 294.151352)scale(0.1 -0.1)">
     <defs>
      <path d="M 3513 2113 
L 3513 0 
L 2938 0 
L 2938 2094 
Q 2938 2591 2744 2837 
Q 2550 3084 2163 3084 
Q 1697 3084 1428 2787 
Q 1159 2491 1159 1978 
L 1159 0 
L 581 0 
L 581 4863 
L 1159 4863 
L 1159 2956 
Q 1366 3272 1645 3428 
Q 1925 3584 2291 3584 
Q 2894 3584 3203 3211 
Q 3513 2838 3513 2113 
z
" id="DejaVuSans-68" transform="scale(0.015625)"/>
      <path d="M 678 2906 
L 4684 2906 
L 4684 2381 
L 678 2381 
L 678 2906 
z
M 678 1631 
L 4684 1631 
L 4684 1100 
L 678 1100 
L 678 1631 
z
" id="DejaVuSans-3d" transform="scale(0.015625)"/>
      <path d="M 525 4666 
L 3525 4666 
L 3525 4397 
L 1831 0 
L 1172 0 
L 2766 4134 
L 525 4134 
L 525 4666 
z
" id="DejaVuSans-37" transform="scale(0.015625)"/>
      <path d="M 703 97 
L 703 672 
Q 941 559 1184 500 
Q 1428 441 1663 441 
Q 2288 441 2617 861 
Q 2947 1281 2994 2138 
Q 2813 1869 2534 1725 
Q 2256 1581 1919 1581 
Q 1219 1581 811 2004 
Q 403 2428 403 3163 
Q 403 3881 828 4315 
Q 1253 4750 1959 4750 
Q 2769 4750 3195 4129 
Q 3622 3509 3622 2328 
Q 3622 1225 3098 567 
Q 2575 -91 1691 -91 
Q 1453 -91 1209 -44 
Q 966 3 703 97 
z
M 1959 2075 
Q 2384 2075 2632 2365 
Q 2881 2656 2881 3163 
Q 2881 3666 2632 3958 
Q 2384 4250 1959 4250 
Q 1534 4250 1286 3958 
Q 1038 3666 1038 3163 
Q 1038 2656 1286 2365 
Q 1534 2075 1959 2075 
z
" id="DejaVuSans-39" transform="scale(0.015625)"/>
     </defs>
     <use xlink:href="#DejaVuSans-76"/>
     <use x="59.179688" xlink:href="#DejaVuSans-32"/>
     <use x="122.802734" xlink:href="#DejaVuSans-2e"/>
     <use x="154.589844" xlink:href="#DejaVuSans-34"/>
     <use x="218.212891" xlink:href="#DejaVuSans-2e"/>
     <use x="250" xlink:href="#DejaVuSans-31"/>
     <use x="313.623047" xlink:href="#DejaVuSans-2e"/>
     <use x="345.410156" xlink:href="#DejaVuSans-31"/>
     <use x="409.033203" xlink:href="#DejaVuSans-2c"/>
     <use x="440.820312" xlink:href="#DejaVuSans-20"/>
     <use x="472.607422" xlink:href="#DejaVuSans-68"/>
     <use x="535.986328" xlink:href="#DejaVuSans-76"/>
     <use x="592.541016" xlink:href="#DejaVuSans-2d"/>
     <use x="628.625" xlink:href="#DejaVuSans-68"/>
     <use x="692.003906" xlink:href="#DejaVuSans-61"/>
     <use x="753.283203" xlink:href="#DejaVuSans-73"/>
     <use x="805.382812" xlink:href="#DejaVuSans-68"/>
     <use x="868.761719" xlink:href="#DejaVuSans-3d"/>
     <use x="952.550781" xlink:href="#DejaVuSans-66"/>
     <use x="987.755859" xlink:href="#DejaVuSans-66"/>
     <use x="1022.960938" xlink:href="#DejaVuSans-30"/>
     <use x="1086.583984" xlink:href="#DejaVuSans-65"/>
     <use x="1148.107422" xlink:href="#DejaVuSans-37"/>
     <use x="1211.730469" xlink:href="#DejaVuSans-31"/>
     <use x="1275.353516" xlink:href="#DejaVuSans-65"/>
     <use x="1336.876953" xlink:href="#DejaVuSans-38"/>
     <use x="1400.5" xlink:href="#DejaVuSans-63"/>
     <use x="1455.480469" xlink:href="#DejaVuSans-64"/>
     <use x="1518.957031" xlink:href="#DejaVuSans-39"/>
     <use x="1582.580078" xlink:href="#DejaVuSans-37"/>
     <use x="1646.203125" xlink:href="#DejaVuSans-38"/>
     <use x="1709.826172" xlink:href="#DejaVuSans-33"/>
     <use x="1773.449219" xlink:href="#DejaVuSans-37"/>
     <use x="1837.072266" xlink:href="#DejaVuSans-33"/>
    </g>
   </g>
   <g id="text_18">
    <!-- 33 Rosenbrock/Schwefel -->
    <g transform="translate(75.945562 21.648)scale(0.2 -0.2)">
     <defs>
      <path d="M 2841 2188 
Q 3044 2119 3236 1894 
Q 3428 1669 3622 1275 
L 4263 0 
L 3584 0 
L 2988 1197 
Q 2756 1666 2539 1819 
Q 2322 1972 1947 1972 
L 1259 1972 
L 1259 0 
L 628 0 
L 628 4666 
L 2053 4666 
Q 2853 4666 3247 4331 
Q 3641 3997 3641 3322 
Q 3641 2881 3436 2590 
Q 3231 2300 2841 2188 
z
M 1259 4147 
L 1259 2491 
L 2053 2491 
Q 2509 2491 2742 2702 
Q 2975 2913 2975 3322 
Q 2975 3731 2742 3939 
Q 2509 4147 2053 4147 
L 1259 4147 
z
" id="DejaVuSans-52" transform="scale(0.015625)"/>
      <path d="M 269 3500 
L 844 3500 
L 1563 769 
L 2278 3500 
L 2956 3500 
L 3675 769 
L 4391 3500 
L 4966 3500 
L 4050 0 
L 3372 0 
L 2619 2869 
L 1863 0 
L 1184 0 
L 269 3500 
z
" id="DejaVuSans-77" transform="scale(0.015625)"/>
     </defs>
     <use xlink:href="#DejaVuSans-33"/>
     <use x="63.623047" xlink:href="#DejaVuSans-33"/>
     <use x="127.246094" xlink:href="#DejaVuSans-20"/>
     <use x="159.033203" xlink:href="#DejaVuSans-52"/>
     <use x="224.015625" xlink:href="#DejaVuSans-6f"/>
     <use x="285.197266" xlink:href="#DejaVuSans-73"/>
     <use x="337.296875" xlink:href="#DejaVuSans-65"/>
     <use x="398.820312" xlink:href="#DejaVuSans-6e"/>
     <use x="462.199219" xlink:href="#DejaVuSans-62"/>
     <use x="525.675781" xlink:href="#DejaVuSans-72"/>
     <use x="564.539062" xlink:href="#DejaVuSans-6f"/>
     <use x="625.720703" xlink:href="#DejaVuSans-63"/>
     <use x="680.701172" xlink:href="#DejaVuSans-6b"/>
     <use x="738.611328" xlink:href="#DejaVuSans-2f"/>
     <use x="772.302734" xlink:href="#DejaVuSans-53"/>
     <use x="835.779297" xlink:href="#DejaVuSans-63"/>
     <use x="890.759766" xlink:href="#DejaVuSans-68"/>
     <use x="954.138672" xlink:href="#DejaVuSans-77"/>
     <use x="1035.925781" xlink:href="#DejaVuSans-65"/>
     <use x="1097.449219" xlink:href="#DejaVuSans-66"/>
     <use x="1132.654297" xlink:href="#DejaVuSans-65"/>
     <use x="1194.177734" xlink:href="#DejaVuSans-6c"/>
    </g>
   </g>
  </g>
 </g>
 <defs>
  <clipPath id="p0d22791a2d">
   <rect height="271.296" width="281.088" x="57.6" y="27.648"/>
  </clipPath>
 </defs>
</svg>
