<?xml version="1.0" encoding="utf-8" standalone="no"?>
<!DOCTYPE svg PUBLIC "-//W3C//DTD SVG 1.1//EN"
  "http://www.w3.org/Graphics/SVG/1.1/DTD/svg11.dtd">
<svg height="345.6pt" version="1.1" viewBox="0 0 460.8 345.6" width="460.8pt" xmlns="http://www.w3.org/2000/svg" xmlns:xlink="http://www.w3.org/1999/xlink">
 <metadata>
  <rdf:RDF xmlns:cc="http://creativecommons.org/ns#" xmlns:dc="http://purl.org/dc/elements/1.1/" xmlns:rdf="http://www.w3.org/1999/02/22-rdf-syntax-ns#">
   <cc:Work>
    <dc:type rdf:resource="http://purl.org/dc/dcmitype/StillImage"/>
    <dc:date>2022-03-29T13:10:38.341332</dc:date>
    <dc:format>image/svg+xml</dc:format>
    <dc:creator>
     <cc:Agent>
      <dc:title>Matplotlib v3.4.3, https://matplotlib.org/</dc:title>
     </cc:Agent>
    </dc:creator>
   </cc:Work>
  </rdf:RDF>
 </metadata>
 <defs>
  <style type="text/css">*{stroke-linecap:butt;stroke-linejoin:round;}</style>
 </defs>
 <g id="figure_1">
  <g id="patch_1">
   <path d="M 0 345.6 
L 460.8 345.6 
L 460.8 0 
L 0 0 
z
" style="fill:#ffffff;"/>
  </g>
  <g id="axes_1">
   <g id="patch_2">
    <path d="M 57.6 298.944 
L 338.688 298.944 
L 338.688 27.648 
L 57.6 27.648 
z
" style="fill:#ffffff;"/>
   </g>
   <g id="line2d_1">
    <path d="M 64.67102 298.944 
L 64.67102 294.312795 
L 73.579452 294.312795 
L 73.579452 285.050384 
L 99.41757 285.050384 
L 99.41757 275.787974 
L 116.621333 275.787974 
L 116.621333 271.156769 
L 128.411207 271.156769 
L 128.411207 257.263153 
L 140.499195 257.263153 
L 140.499195 248.000743 
L 144.570138 248.000743 
L 144.570138 243.369538 
L 151.581536 243.369538 
L 151.581536 234.107127 
L 159.201253 234.107127 
L 159.201253 220.213512 
L 162.065021 220.213512 
L 162.065021 210.951101 
L 168.125111 210.951101 
L 168.125111 201.688691 
L 174.774759 201.688691 
L 174.774759 192.426281 
L 179.254351 192.426281 
L 179.254351 187.795075 
L 182.768707 187.795075 
L 182.768707 173.90146 
L 191.203315 173.90146 
L 191.203315 169.270255 
L 203.733136 169.270255 
L 203.733136 155.376639 
L 217.070147 155.376639 
L 217.070147 146.114229 
L 219.075901 146.114229 
L 219.075901 141.483024 
L 220.715837 141.483024 
L 220.715837 127.589408 
L 222.606976 127.589408 
L 222.606976 122.958203 
L 225.031524 122.958203 
L 225.031524 109.064587 
L 228.20872 109.064587 
L 228.20872 99.802177 
L 232.364917 99.802177 
L 232.364917 90.539766 
L 236.70934 90.539766 
L 236.70934 85.908561 
L 241.995027 85.908561 
L 241.995027 76.646151 
L 251.508418 76.646151 
L 251.508418 62.752535 
L 338.688 62.752535 
" style="fill:none;stroke:#f5deb3;stroke-linecap:square;stroke-width:4;"/>
   </g>
   <g id="line2d_2">
    <defs>
     <path d="M 0 7.778175 
L 7.778175 0 
L 0 -7.778175 
L -7.778175 0 
z
" id="m58e1cbb048" style="stroke:#f5deb3;stroke-linejoin:miter;stroke-width:1.5;"/>
    </defs>
    <g>
     <use style="fill:#f5deb3;stroke:#f5deb3;stroke-linejoin:miter;stroke-width:1.5;" x="151.581536" xlink:href="#m58e1cbb048" y="234.107127"/>
     <use style="fill:#f5deb3;stroke:#f5deb3;stroke-linejoin:miter;stroke-width:1.5;" x="222.606976" xlink:href="#m58e1cbb048" y="122.958203"/>
     <use style="fill:#f5deb3;stroke:#f5deb3;stroke-linejoin:miter;stroke-width:1.5;" x="251.508418" xlink:href="#m58e1cbb048" y="62.752535"/>
     <use style="fill:#f5deb3;stroke:#f5deb3;stroke-linejoin:miter;stroke-width:1.5;" x="251.508418" xlink:href="#m58e1cbb048" y="62.752535"/>
     <use style="fill:#f5deb3;stroke:#f5deb3;stroke-linejoin:miter;stroke-width:1.5;" x="338.688" xlink:href="#m58e1cbb048" y="62.752535"/>
    </g>
   </g>
   <g id="line2d_3">
    <path style="fill:none;stroke:#f5deb3;stroke-linecap:square;stroke-width:4;"/>
    <g/>
   </g>
   <g id="line2d_4">
    <path d="M 338.688 62.752535 
L 369.60768 35.706297 
" style="fill:none;stroke:#f5deb3;stroke-linecap:square;stroke-width:4;"/>
    <g>
     <use style="fill:#f5deb3;stroke:#f5deb3;stroke-linejoin:miter;stroke-width:1.5;" x="338.688" xlink:href="#m58e1cbb048" y="62.752535"/>
     <use style="fill:#f5deb3;stroke:#f5deb3;stroke-linejoin:miter;stroke-width:1.5;" x="369.60768" xlink:href="#m58e1cbb048" y="35.706297"/>
    </g>
   </g>
   <g id="matplotlib.axis_1">
    <g id="xtick_1">
     <g id="line2d_5">
      <path clip-path="url(#pba340175ce)" d="M 57.6 298.944 
L 57.6 27.648 
" style="fill:none;stroke:#b0b0b0;stroke-linecap:square;stroke-width:0.8;"/>
     </g>
     <g id="line2d_6">
      <defs>
       <path d="M 0 0 
L 0 3.5 
" id="m88b44bd275" style="stroke:#000000;stroke-width:0.8;"/>
      </defs>
      <g>
       <use style="stroke:#000000;stroke-width:0.8;" x="57.6" xlink:href="#m88b44bd275" y="298.944"/>
      </g>
     </g>
     <g id="text_1">
      <!-- 0 -->
      <g transform="translate(51.2375 321.140875)scale(0.2 -0.2)">
       <defs>
        <path d="M 2034 4250 
Q 1547 4250 1301 3770 
Q 1056 3291 1056 2328 
Q 1056 1369 1301 889 
Q 1547 409 2034 409 
Q 2525 409 2770 889 
Q 3016 1369 3016 2328 
Q 3016 3291 2770 3770 
Q 2525 4250 2034 4250 
z
M 2034 4750 
Q 2819 4750 3233 4129 
Q 3647 3509 3647 2328 
Q 3647 1150 3233 529 
Q 2819 -91 2034 -91 
Q 1250 -91 836 529 
Q 422 1150 422 2328 
Q 422 3509 836 4129 
Q 1250 4750 2034 4750 
z
" id="DejaVuSans-30" transform="scale(0.015625)"/>
       </defs>
       <use xlink:href="#DejaVuSans-30"/>
      </g>
     </g>
    </g>
    <g id="xtick_2">
     <g id="line2d_7">
      <path clip-path="url(#pba340175ce)" d="M 137.910857 298.944 
L 137.910857 27.648 
" style="fill:none;stroke:#b0b0b0;stroke-linecap:square;stroke-width:0.8;"/>
     </g>
     <g id="line2d_8">
      <g>
       <use style="stroke:#000000;stroke-width:0.8;" x="137.910857" xlink:href="#m88b44bd275" y="298.944"/>
      </g>
     </g>
     <g id="text_2">
      <!-- 2 -->
      <g transform="translate(131.548357 321.140875)scale(0.2 -0.2)">
       <defs>
        <path d="M 1228 531 
L 3431 531 
L 3431 0 
L 469 0 
L 469 531 
Q 828 903 1448 1529 
Q 2069 2156 2228 2338 
Q 2531 2678 2651 2914 
Q 2772 3150 2772 3378 
Q 2772 3750 2511 3984 
Q 2250 4219 1831 4219 
Q 1534 4219 1204 4116 
Q 875 4013 500 3803 
L 500 4441 
Q 881 4594 1212 4672 
Q 1544 4750 1819 4750 
Q 2544 4750 2975 4387 
Q 3406 4025 3406 3419 
Q 3406 3131 3298 2873 
Q 3191 2616 2906 2266 
Q 2828 2175 2409 1742 
Q 1991 1309 1228 531 
z
" id="DejaVuSans-32" transform="scale(0.015625)"/>
       </defs>
       <use xlink:href="#DejaVuSans-32"/>
      </g>
     </g>
    </g>
    <g id="xtick_3">
     <g id="line2d_9">
      <path clip-path="url(#pba340175ce)" d="M 218.221714 298.944 
L 218.221714 27.648 
" style="fill:none;stroke:#b0b0b0;stroke-linecap:square;stroke-width:0.8;"/>
     </g>
     <g id="line2d_10">
      <g>
       <use style="stroke:#000000;stroke-width:0.8;" x="218.221714" xlink:href="#m88b44bd275" y="298.944"/>
      </g>
     </g>
     <g id="text_3">
      <!-- 4 -->
      <g transform="translate(211.859214 321.140875)scale(0.2 -0.2)">
       <defs>
        <path d="M 2419 4116 
L 825 1625 
L 2419 1625 
L 2419 4116 
z
M 2253 4666 
L 3047 4666 
L 3047 1625 
L 3713 1625 
L 3713 1100 
L 3047 1100 
L 3047 0 
L 2419 0 
L 2419 1100 
L 313 1100 
L 313 1709 
L 2253 4666 
z
" id="DejaVuSans-34" transform="scale(0.015625)"/>
       </defs>
       <use xlink:href="#DejaVuSans-34"/>
      </g>
     </g>
    </g>
    <g id="xtick_4">
     <g id="line2d_11">
      <path clip-path="url(#pba340175ce)" d="M 298.532571 298.944 
L 298.532571 27.648 
" style="fill:none;stroke:#b0b0b0;stroke-linecap:square;stroke-width:0.8;"/>
     </g>
     <g id="line2d_12">
      <g>
       <use style="stroke:#000000;stroke-width:0.8;" x="298.532571" xlink:href="#m88b44bd275" y="298.944"/>
      </g>
     </g>
     <g id="text_4">
      <!-- 6 -->
      <g transform="translate(292.170071 321.140875)scale(0.2 -0.2)">
       <defs>
        <path d="M 2113 2584 
Q 1688 2584 1439 2293 
Q 1191 2003 1191 1497 
Q 1191 994 1439 701 
Q 1688 409 2113 409 
Q 2538 409 2786 701 
Q 3034 994 3034 1497 
Q 3034 2003 2786 2293 
Q 2538 2584 2113 2584 
z
M 3366 4563 
L 3366 3988 
Q 3128 4100 2886 4159 
Q 2644 4219 2406 4219 
Q 1781 4219 1451 3797 
Q 1122 3375 1075 2522 
Q 1259 2794 1537 2939 
Q 1816 3084 2150 3084 
Q 2853 3084 3261 2657 
Q 3669 2231 3669 1497 
Q 3669 778 3244 343 
Q 2819 -91 2113 -91 
Q 1303 -91 875 529 
Q 447 1150 447 2328 
Q 447 3434 972 4092 
Q 1497 4750 2381 4750 
Q 2619 4750 2861 4703 
Q 3103 4656 3366 4563 
z
" id="DejaVuSans-36" transform="scale(0.015625)"/>
       </defs>
       <use xlink:href="#DejaVuSans-36"/>
      </g>
     </g>
    </g>
    <g id="xtick_5">
     <g id="line2d_13">
      <path clip-path="url(#pba340175ce)" d="M 97.755429 298.944 
L 97.755429 27.648 
" style="fill:none;stroke:#b0b0b0;stroke-linecap:square;stroke-width:0.8;"/>
     </g>
     <g id="line2d_14">
      <defs>
       <path d="M 0 0 
L 0 2 
" id="mac2092a4bc" style="stroke:#000000;stroke-width:0.6;"/>
      </defs>
      <g>
       <use style="stroke:#000000;stroke-width:0.6;" x="97.755429" xlink:href="#mac2092a4bc" y="298.944"/>
      </g>
     </g>
    </g>
    <g id="xtick_6">
     <g id="line2d_15">
      <path clip-path="url(#pba340175ce)" d="M 178.066286 298.944 
L 178.066286 27.648 
" style="fill:none;stroke:#b0b0b0;stroke-linecap:square;stroke-width:0.8;"/>
     </g>
     <g id="line2d_16">
      <g>
       <use style="stroke:#000000;stroke-width:0.6;" x="178.066286" xlink:href="#mac2092a4bc" y="298.944"/>
      </g>
     </g>
    </g>
    <g id="xtick_7">
     <g id="line2d_17">
      <path clip-path="url(#pba340175ce)" d="M 258.377143 298.944 
L 258.377143 27.648 
" style="fill:none;stroke:#b0b0b0;stroke-linecap:square;stroke-width:0.8;"/>
     </g>
     <g id="line2d_18">
      <g>
       <use style="stroke:#000000;stroke-width:0.6;" x="258.377143" xlink:href="#mac2092a4bc" y="298.944"/>
      </g>
     </g>
    </g>
    <g id="xtick_8">
     <g id="line2d_19">
      <path clip-path="url(#pba340175ce)" d="M 338.688 298.944 
L 338.688 27.648 
" style="fill:none;stroke:#b0b0b0;stroke-linecap:square;stroke-width:0.8;"/>
     </g>
     <g id="line2d_20">
      <g>
       <use style="stroke:#000000;stroke-width:0.6;" x="338.688" xlink:href="#mac2092a4bc" y="298.944"/>
      </g>
     </g>
    </g>
    <g id="text_5">
     <!-- log10(# f-evals / dimension) -->
     <g transform="translate(77.764078 342.217594)scale(0.17 -0.17)">
      <defs>
       <path d="M 603 4863 
L 1178 4863 
L 1178 0 
L 603 0 
L 603 4863 
z
" id="DejaVuSans-6c" transform="scale(0.015625)"/>
       <path d="M 1959 3097 
Q 1497 3097 1228 2736 
Q 959 2375 959 1747 
Q 959 1119 1226 758 
Q 1494 397 1959 397 
Q 2419 397 2687 759 
Q 2956 1122 2956 1747 
Q 2956 2369 2687 2733 
Q 2419 3097 1959 3097 
z
M 1959 3584 
Q 2709 3584 3137 3096 
Q 3566 2609 3566 1747 
Q 3566 888 3137 398 
Q 2709 -91 1959 -91 
Q 1206 -91 779 398 
Q 353 888 353 1747 
Q 353 2609 779 3096 
Q 1206 3584 1959 3584 
z
" id="DejaVuSans-6f" transform="scale(0.015625)"/>
       <path d="M 2906 1791 
Q 2906 2416 2648 2759 
Q 2391 3103 1925 3103 
Q 1463 3103 1205 2759 
Q 947 2416 947 1791 
Q 947 1169 1205 825 
Q 1463 481 1925 481 
Q 2391 481 2648 825 
Q 2906 1169 2906 1791 
z
M 3481 434 
Q 3481 -459 3084 -895 
Q 2688 -1331 1869 -1331 
Q 1566 -1331 1297 -1286 
Q 1028 -1241 775 -1147 
L 775 -588 
Q 1028 -725 1275 -790 
Q 1522 -856 1778 -856 
Q 2344 -856 2625 -561 
Q 2906 -266 2906 331 
L 2906 616 
Q 2728 306 2450 153 
Q 2172 0 1784 0 
Q 1141 0 747 490 
Q 353 981 353 1791 
Q 353 2603 747 3093 
Q 1141 3584 1784 3584 
Q 2172 3584 2450 3431 
Q 2728 3278 2906 2969 
L 2906 3500 
L 3481 3500 
L 3481 434 
z
" id="DejaVuSans-67" transform="scale(0.015625)"/>
       <path d="M 794 531 
L 1825 531 
L 1825 4091 
L 703 3866 
L 703 4441 
L 1819 4666 
L 2450 4666 
L 2450 531 
L 3481 531 
L 3481 0 
L 794 0 
L 794 531 
z
" id="DejaVuSans-31" transform="scale(0.015625)"/>
       <path d="M 1984 4856 
Q 1566 4138 1362 3434 
Q 1159 2731 1159 2009 
Q 1159 1288 1364 580 
Q 1569 -128 1984 -844 
L 1484 -844 
Q 1016 -109 783 600 
Q 550 1309 550 2009 
Q 550 2706 781 3412 
Q 1013 4119 1484 4856 
L 1984 4856 
z
" id="DejaVuSans-28" transform="scale(0.015625)"/>
       <path d="M 3272 2816 
L 2363 2816 
L 2100 1772 
L 3016 1772 
L 3272 2816 
z
M 2803 4594 
L 2478 3297 
L 3391 3297 
L 3719 4594 
L 4219 4594 
L 3897 3297 
L 4872 3297 
L 4872 2816 
L 3775 2816 
L 3519 1772 
L 4513 1772 
L 4513 1294 
L 3397 1294 
L 3072 0 
L 2572 0 
L 2894 1294 
L 1978 1294 
L 1656 0 
L 1153 0 
L 1478 1294 
L 494 1294 
L 494 1772 
L 1594 1772 
L 1856 2816 
L 850 2816 
L 850 3297 
L 1978 3297 
L 2297 4594 
L 2803 4594 
z
" id="DejaVuSans-23" transform="scale(0.015625)"/>
       <path id="DejaVuSans-20" transform="scale(0.015625)"/>
       <path d="M 2375 4863 
L 2375 4384 
L 1825 4384 
Q 1516 4384 1395 4259 
Q 1275 4134 1275 3809 
L 1275 3500 
L 2222 3500 
L 2222 3053 
L 1275 3053 
L 1275 0 
L 697 0 
L 697 3053 
L 147 3053 
L 147 3500 
L 697 3500 
L 697 3744 
Q 697 4328 969 4595 
Q 1241 4863 1831 4863 
L 2375 4863 
z
" id="DejaVuSans-66" transform="scale(0.015625)"/>
       <path d="M 313 2009 
L 1997 2009 
L 1997 1497 
L 313 1497 
L 313 2009 
z
" id="DejaVuSans-2d" transform="scale(0.015625)"/>
       <path d="M 3597 1894 
L 3597 1613 
L 953 1613 
Q 991 1019 1311 708 
Q 1631 397 2203 397 
Q 2534 397 2845 478 
Q 3156 559 3463 722 
L 3463 178 
Q 3153 47 2828 -22 
Q 2503 -91 2169 -91 
Q 1331 -91 842 396 
Q 353 884 353 1716 
Q 353 2575 817 3079 
Q 1281 3584 2069 3584 
Q 2775 3584 3186 3129 
Q 3597 2675 3597 1894 
z
M 3022 2063 
Q 3016 2534 2758 2815 
Q 2500 3097 2075 3097 
Q 1594 3097 1305 2825 
Q 1016 2553 972 2059 
L 3022 2063 
z
" id="DejaVuSans-65" transform="scale(0.015625)"/>
       <path d="M 191 3500 
L 800 3500 
L 1894 563 
L 2988 3500 
L 3597 3500 
L 2284 0 
L 1503 0 
L 191 3500 
z
" id="DejaVuSans-76" transform="scale(0.015625)"/>
       <path d="M 2194 1759 
Q 1497 1759 1228 1600 
Q 959 1441 959 1056 
Q 959 750 1161 570 
Q 1363 391 1709 391 
Q 2188 391 2477 730 
Q 2766 1069 2766 1631 
L 2766 1759 
L 2194 1759 
z
M 3341 1997 
L 3341 0 
L 2766 0 
L 2766 531 
Q 2569 213 2275 61 
Q 1981 -91 1556 -91 
Q 1019 -91 701 211 
Q 384 513 384 1019 
Q 384 1609 779 1909 
Q 1175 2209 1959 2209 
L 2766 2209 
L 2766 2266 
Q 2766 2663 2505 2880 
Q 2244 3097 1772 3097 
Q 1472 3097 1187 3025 
Q 903 2953 641 2809 
L 641 3341 
Q 956 3463 1253 3523 
Q 1550 3584 1831 3584 
Q 2591 3584 2966 3190 
Q 3341 2797 3341 1997 
z
" id="DejaVuSans-61" transform="scale(0.015625)"/>
       <path d="M 2834 3397 
L 2834 2853 
Q 2591 2978 2328 3040 
Q 2066 3103 1784 3103 
Q 1356 3103 1142 2972 
Q 928 2841 928 2578 
Q 928 2378 1081 2264 
Q 1234 2150 1697 2047 
L 1894 2003 
Q 2506 1872 2764 1633 
Q 3022 1394 3022 966 
Q 3022 478 2636 193 
Q 2250 -91 1575 -91 
Q 1294 -91 989 -36 
Q 684 19 347 128 
L 347 722 
Q 666 556 975 473 
Q 1284 391 1588 391 
Q 1994 391 2212 530 
Q 2431 669 2431 922 
Q 2431 1156 2273 1281 
Q 2116 1406 1581 1522 
L 1381 1569 
Q 847 1681 609 1914 
Q 372 2147 372 2553 
Q 372 3047 722 3315 
Q 1072 3584 1716 3584 
Q 2034 3584 2315 3537 
Q 2597 3491 2834 3397 
z
" id="DejaVuSans-73" transform="scale(0.015625)"/>
       <path d="M 1625 4666 
L 2156 4666 
L 531 -594 
L 0 -594 
L 1625 4666 
z
" id="DejaVuSans-2f" transform="scale(0.015625)"/>
       <path d="M 2906 2969 
L 2906 4863 
L 3481 4863 
L 3481 0 
L 2906 0 
L 2906 525 
Q 2725 213 2448 61 
Q 2172 -91 1784 -91 
Q 1150 -91 751 415 
Q 353 922 353 1747 
Q 353 2572 751 3078 
Q 1150 3584 1784 3584 
Q 2172 3584 2448 3432 
Q 2725 3281 2906 2969 
z
M 947 1747 
Q 947 1113 1208 752 
Q 1469 391 1925 391 
Q 2381 391 2643 752 
Q 2906 1113 2906 1747 
Q 2906 2381 2643 2742 
Q 2381 3103 1925 3103 
Q 1469 3103 1208 2742 
Q 947 2381 947 1747 
z
" id="DejaVuSans-64" transform="scale(0.015625)"/>
       <path d="M 603 3500 
L 1178 3500 
L 1178 0 
L 603 0 
L 603 3500 
z
M 603 4863 
L 1178 4863 
L 1178 4134 
L 603 4134 
L 603 4863 
z
" id="DejaVuSans-69" transform="scale(0.015625)"/>
       <path d="M 3328 2828 
Q 3544 3216 3844 3400 
Q 4144 3584 4550 3584 
Q 5097 3584 5394 3201 
Q 5691 2819 5691 2113 
L 5691 0 
L 5113 0 
L 5113 2094 
Q 5113 2597 4934 2840 
Q 4756 3084 4391 3084 
Q 3944 3084 3684 2787 
Q 3425 2491 3425 1978 
L 3425 0 
L 2847 0 
L 2847 2094 
Q 2847 2600 2669 2842 
Q 2491 3084 2119 3084 
Q 1678 3084 1418 2786 
Q 1159 2488 1159 1978 
L 1159 0 
L 581 0 
L 581 3500 
L 1159 3500 
L 1159 2956 
Q 1356 3278 1631 3431 
Q 1906 3584 2284 3584 
Q 2666 3584 2933 3390 
Q 3200 3197 3328 2828 
z
" id="DejaVuSans-6d" transform="scale(0.015625)"/>
       <path d="M 3513 2113 
L 3513 0 
L 2938 0 
L 2938 2094 
Q 2938 2591 2744 2837 
Q 2550 3084 2163 3084 
Q 1697 3084 1428 2787 
Q 1159 2491 1159 1978 
L 1159 0 
L 581 0 
L 581 3500 
L 1159 3500 
L 1159 2956 
Q 1366 3272 1645 3428 
Q 1925 3584 2291 3584 
Q 2894 3584 3203 3211 
Q 3513 2838 3513 2113 
z
" id="DejaVuSans-6e" transform="scale(0.015625)"/>
       <path d="M 513 4856 
L 1013 4856 
Q 1481 4119 1714 3412 
Q 1947 2706 1947 2009 
Q 1947 1309 1714 600 
Q 1481 -109 1013 -844 
L 513 -844 
Q 928 -128 1133 580 
Q 1338 1288 1338 2009 
Q 1338 2731 1133 3434 
Q 928 4138 513 4856 
z
" id="DejaVuSans-29" transform="scale(0.015625)"/>
      </defs>
      <use xlink:href="#DejaVuSans-6c"/>
      <use x="27.783203" xlink:href="#DejaVuSans-6f"/>
      <use x="88.964844" xlink:href="#DejaVuSans-67"/>
      <use x="152.441406" xlink:href="#DejaVuSans-31"/>
      <use x="216.064453" xlink:href="#DejaVuSans-30"/>
      <use x="279.6875" xlink:href="#DejaVuSans-28"/>
      <use x="318.701172" xlink:href="#DejaVuSans-23"/>
      <use x="402.490234" xlink:href="#DejaVuSans-20"/>
      <use x="434.277344" xlink:href="#DejaVuSans-66"/>
      <use x="463.982422" xlink:href="#DejaVuSans-2d"/>
      <use x="500.066406" xlink:href="#DejaVuSans-65"/>
      <use x="561.589844" xlink:href="#DejaVuSans-76"/>
      <use x="620.769531" xlink:href="#DejaVuSans-61"/>
      <use x="682.048828" xlink:href="#DejaVuSans-6c"/>
      <use x="709.832031" xlink:href="#DejaVuSans-73"/>
      <use x="761.931641" xlink:href="#DejaVuSans-20"/>
      <use x="793.71875" xlink:href="#DejaVuSans-2f"/>
      <use x="827.410156" xlink:href="#DejaVuSans-20"/>
      <use x="859.197266" xlink:href="#DejaVuSans-64"/>
      <use x="922.673828" xlink:href="#DejaVuSans-69"/>
      <use x="950.457031" xlink:href="#DejaVuSans-6d"/>
      <use x="1047.869141" xlink:href="#DejaVuSans-65"/>
      <use x="1109.392578" xlink:href="#DejaVuSans-6e"/>
      <use x="1172.771484" xlink:href="#DejaVuSans-73"/>
      <use x="1224.871094" xlink:href="#DejaVuSans-69"/>
      <use x="1252.654297" xlink:href="#DejaVuSans-6f"/>
      <use x="1313.835938" xlink:href="#DejaVuSans-6e"/>
      <use x="1377.214844" xlink:href="#DejaVuSans-29"/>
     </g>
    </g>
   </g>
   <g id="matplotlib.axis_2">
    <g id="ytick_1">
     <g id="line2d_21">
      <path clip-path="url(#pba340175ce)" d="M 57.6 298.944 
L 338.688 298.944 
" style="fill:none;stroke:#b0b0b0;stroke-linecap:square;stroke-width:0.8;"/>
     </g>
     <g id="line2d_22">
      <defs>
       <path d="M 0 0 
L -3.5 0 
" id="m619a314b58" style="stroke:#000000;stroke-width:0.8;"/>
      </defs>
      <g>
       <use style="stroke:#000000;stroke-width:0.8;" x="57.6" xlink:href="#m619a314b58" y="298.944"/>
      </g>
     </g>
     <g id="text_6">
      <!-- 0.0 -->
      <g transform="translate(25.155 305.02275)scale(0.16 -0.16)">
       <defs>
        <path d="M 684 794 
L 1344 794 
L 1344 0 
L 684 0 
L 684 794 
z
" id="DejaVuSans-2e" transform="scale(0.015625)"/>
       </defs>
       <use xlink:href="#DejaVuSans-30"/>
       <use x="63.623047" xlink:href="#DejaVuSans-2e"/>
       <use x="95.410156" xlink:href="#DejaVuSans-30"/>
      </g>
     </g>
    </g>
    <g id="ytick_2">
     <g id="line2d_23">
      <path clip-path="url(#pba340175ce)" d="M 57.6 245.22202 
L 338.688 245.22202 
" style="fill:none;stroke:#b0b0b0;stroke-linecap:square;stroke-width:0.8;"/>
     </g>
     <g id="line2d_24">
      <g>
       <use style="stroke:#000000;stroke-width:0.8;" x="57.6" xlink:href="#m619a314b58" y="245.22202"/>
      </g>
     </g>
     <g id="text_7">
      <!-- 0.2 -->
      <g transform="translate(25.155 251.30077)scale(0.16 -0.16)">
       <use xlink:href="#DejaVuSans-30"/>
       <use x="63.623047" xlink:href="#DejaVuSans-2e"/>
       <use x="95.410156" xlink:href="#DejaVuSans-32"/>
      </g>
     </g>
    </g>
    <g id="ytick_3">
     <g id="line2d_25">
      <path clip-path="url(#pba340175ce)" d="M 57.6 191.50004 
L 338.688 191.50004 
" style="fill:none;stroke:#b0b0b0;stroke-linecap:square;stroke-width:0.8;"/>
     </g>
     <g id="line2d_26">
      <g>
       <use style="stroke:#000000;stroke-width:0.8;" x="57.6" xlink:href="#m619a314b58" y="191.50004"/>
      </g>
     </g>
     <g id="text_8">
      <!-- 0.4 -->
      <g transform="translate(25.155 197.57879)scale(0.16 -0.16)">
       <use xlink:href="#DejaVuSans-30"/>
       <use x="63.623047" xlink:href="#DejaVuSans-2e"/>
       <use x="95.410156" xlink:href="#DejaVuSans-34"/>
      </g>
     </g>
    </g>
    <g id="ytick_4">
     <g id="line2d_27">
      <path clip-path="url(#pba340175ce)" d="M 57.6 137.778059 
L 338.688 137.778059 
" style="fill:none;stroke:#b0b0b0;stroke-linecap:square;stroke-width:0.8;"/>
     </g>
     <g id="line2d_28">
      <g>
       <use style="stroke:#000000;stroke-width:0.8;" x="57.6" xlink:href="#m619a314b58" y="137.778059"/>
      </g>
     </g>
     <g id="text_9">
      <!-- 0.6 -->
      <g transform="translate(25.155 143.856809)scale(0.16 -0.16)">
       <use xlink:href="#DejaVuSans-30"/>
       <use x="63.623047" xlink:href="#DejaVuSans-2e"/>
       <use x="95.410156" xlink:href="#DejaVuSans-36"/>
      </g>
     </g>
    </g>
    <g id="ytick_5">
     <g id="line2d_29">
      <path clip-path="url(#pba340175ce)" d="M 57.6 84.056079 
L 338.688 84.056079 
" style="fill:none;stroke:#b0b0b0;stroke-linecap:square;stroke-width:0.8;"/>
     </g>
     <g id="line2d_30">
      <g>
       <use style="stroke:#000000;stroke-width:0.8;" x="57.6" xlink:href="#m619a314b58" y="84.056079"/>
      </g>
     </g>
     <g id="text_10">
      <!-- 0.8 -->
      <g transform="translate(25.155 90.134829)scale(0.16 -0.16)">
       <defs>
        <path d="M 2034 2216 
Q 1584 2216 1326 1975 
Q 1069 1734 1069 1313 
Q 1069 891 1326 650 
Q 1584 409 2034 409 
Q 2484 409 2743 651 
Q 3003 894 3003 1313 
Q 3003 1734 2745 1975 
Q 2488 2216 2034 2216 
z
M 1403 2484 
Q 997 2584 770 2862 
Q 544 3141 544 3541 
Q 544 4100 942 4425 
Q 1341 4750 2034 4750 
Q 2731 4750 3128 4425 
Q 3525 4100 3525 3541 
Q 3525 3141 3298 2862 
Q 3072 2584 2669 2484 
Q 3125 2378 3379 2068 
Q 3634 1759 3634 1313 
Q 3634 634 3220 271 
Q 2806 -91 2034 -91 
Q 1263 -91 848 271 
Q 434 634 434 1313 
Q 434 1759 690 2068 
Q 947 2378 1403 2484 
z
M 1172 3481 
Q 1172 3119 1398 2916 
Q 1625 2713 2034 2713 
Q 2441 2713 2670 2916 
Q 2900 3119 2900 3481 
Q 2900 3844 2670 4047 
Q 2441 4250 2034 4250 
Q 1625 4250 1398 4047 
Q 1172 3844 1172 3481 
z
" id="DejaVuSans-38" transform="scale(0.015625)"/>
       </defs>
       <use xlink:href="#DejaVuSans-30"/>
       <use x="63.623047" xlink:href="#DejaVuSans-2e"/>
       <use x="95.410156" xlink:href="#DejaVuSans-38"/>
      </g>
     </g>
    </g>
    <g id="ytick_6">
     <g id="line2d_31">
      <path clip-path="url(#pba340175ce)" d="M 57.6 30.334099 
L 338.688 30.334099 
" style="fill:none;stroke:#b0b0b0;stroke-linecap:square;stroke-width:0.8;"/>
     </g>
     <g id="line2d_32">
      <g>
       <use style="stroke:#000000;stroke-width:0.8;" x="57.6" xlink:href="#m619a314b58" y="30.334099"/>
      </g>
     </g>
     <g id="text_11">
      <!-- 1.0 -->
      <g transform="translate(25.155 36.412849)scale(0.16 -0.16)">
       <use xlink:href="#DejaVuSans-31"/>
       <use x="63.623047" xlink:href="#DejaVuSans-2e"/>
       <use x="95.410156" xlink:href="#DejaVuSans-30"/>
      </g>
     </g>
    </g>
    <g id="text_12">
     <!-- Fraction of function,target pairs -->
     <g transform="translate(17.619531 297.681)rotate(-90)scale(0.17 -0.17)">
      <defs>
       <path d="M 628 4666 
L 3309 4666 
L 3309 4134 
L 1259 4134 
L 1259 2759 
L 3109 2759 
L 3109 2228 
L 1259 2228 
L 1259 0 
L 628 0 
L 628 4666 
z
" id="DejaVuSans-46" transform="scale(0.015625)"/>
       <path d="M 2631 2963 
Q 2534 3019 2420 3045 
Q 2306 3072 2169 3072 
Q 1681 3072 1420 2755 
Q 1159 2438 1159 1844 
L 1159 0 
L 581 0 
L 581 3500 
L 1159 3500 
L 1159 2956 
Q 1341 3275 1631 3429 
Q 1922 3584 2338 3584 
Q 2397 3584 2469 3576 
Q 2541 3569 2628 3553 
L 2631 2963 
z
" id="DejaVuSans-72" transform="scale(0.015625)"/>
       <path d="M 3122 3366 
L 3122 2828 
Q 2878 2963 2633 3030 
Q 2388 3097 2138 3097 
Q 1578 3097 1268 2742 
Q 959 2388 959 1747 
Q 959 1106 1268 751 
Q 1578 397 2138 397 
Q 2388 397 2633 464 
Q 2878 531 3122 666 
L 3122 134 
Q 2881 22 2623 -34 
Q 2366 -91 2075 -91 
Q 1284 -91 818 406 
Q 353 903 353 1747 
Q 353 2603 823 3093 
Q 1294 3584 2113 3584 
Q 2378 3584 2631 3529 
Q 2884 3475 3122 3366 
z
" id="DejaVuSans-63" transform="scale(0.015625)"/>
       <path d="M 1172 4494 
L 1172 3500 
L 2356 3500 
L 2356 3053 
L 1172 3053 
L 1172 1153 
Q 1172 725 1289 603 
Q 1406 481 1766 481 
L 2356 481 
L 2356 0 
L 1766 0 
Q 1100 0 847 248 
Q 594 497 594 1153 
L 594 3053 
L 172 3053 
L 172 3500 
L 594 3500 
L 594 4494 
L 1172 4494 
z
" id="DejaVuSans-74" transform="scale(0.015625)"/>
       <path d="M 544 1381 
L 544 3500 
L 1119 3500 
L 1119 1403 
Q 1119 906 1312 657 
Q 1506 409 1894 409 
Q 2359 409 2629 706 
Q 2900 1003 2900 1516 
L 2900 3500 
L 3475 3500 
L 3475 0 
L 2900 0 
L 2900 538 
Q 2691 219 2414 64 
Q 2138 -91 1772 -91 
Q 1169 -91 856 284 
Q 544 659 544 1381 
z
M 1991 3584 
L 1991 3584 
z
" id="DejaVuSans-75" transform="scale(0.015625)"/>
       <path d="M 750 794 
L 1409 794 
L 1409 256 
L 897 -744 
L 494 -744 
L 750 256 
L 750 794 
z
" id="DejaVuSans-2c" transform="scale(0.015625)"/>
       <path d="M 1159 525 
L 1159 -1331 
L 581 -1331 
L 581 3500 
L 1159 3500 
L 1159 2969 
Q 1341 3281 1617 3432 
Q 1894 3584 2278 3584 
Q 2916 3584 3314 3078 
Q 3713 2572 3713 1747 
Q 3713 922 3314 415 
Q 2916 -91 2278 -91 
Q 1894 -91 1617 61 
Q 1341 213 1159 525 
z
M 3116 1747 
Q 3116 2381 2855 2742 
Q 2594 3103 2138 3103 
Q 1681 3103 1420 2742 
Q 1159 2381 1159 1747 
Q 1159 1113 1420 752 
Q 1681 391 2138 391 
Q 2594 391 2855 752 
Q 3116 1113 3116 1747 
z
" id="DejaVuSans-70" transform="scale(0.015625)"/>
      </defs>
      <use xlink:href="#DejaVuSans-46"/>
      <use x="50.269531" xlink:href="#DejaVuSans-72"/>
      <use x="91.382812" xlink:href="#DejaVuSans-61"/>
      <use x="152.662109" xlink:href="#DejaVuSans-63"/>
      <use x="207.642578" xlink:href="#DejaVuSans-74"/>
      <use x="246.851562" xlink:href="#DejaVuSans-69"/>
      <use x="274.634766" xlink:href="#DejaVuSans-6f"/>
      <use x="335.816406" xlink:href="#DejaVuSans-6e"/>
      <use x="399.195312" xlink:href="#DejaVuSans-20"/>
      <use x="430.982422" xlink:href="#DejaVuSans-6f"/>
      <use x="492.164062" xlink:href="#DejaVuSans-66"/>
      <use x="527.369141" xlink:href="#DejaVuSans-20"/>
      <use x="559.15625" xlink:href="#DejaVuSans-66"/>
      <use x="594.361328" xlink:href="#DejaVuSans-75"/>
      <use x="657.740234" xlink:href="#DejaVuSans-6e"/>
      <use x="721.119141" xlink:href="#DejaVuSans-63"/>
      <use x="776.099609" xlink:href="#DejaVuSans-74"/>
      <use x="815.308594" xlink:href="#DejaVuSans-69"/>
      <use x="843.091797" xlink:href="#DejaVuSans-6f"/>
      <use x="904.273438" xlink:href="#DejaVuSans-6e"/>
      <use x="967.652344" xlink:href="#DejaVuSans-2c"/>
      <use x="999.439453" xlink:href="#DejaVuSans-74"/>
      <use x="1038.648438" xlink:href="#DejaVuSans-61"/>
      <use x="1099.927734" xlink:href="#DejaVuSans-72"/>
      <use x="1139.291016" xlink:href="#DejaVuSans-67"/>
      <use x="1202.767578" xlink:href="#DejaVuSans-65"/>
      <use x="1264.291016" xlink:href="#DejaVuSans-74"/>
      <use x="1303.5" xlink:href="#DejaVuSans-20"/>
      <use x="1335.287109" xlink:href="#DejaVuSans-70"/>
      <use x="1398.763672" xlink:href="#DejaVuSans-61"/>
      <use x="1460.042969" xlink:href="#DejaVuSans-69"/>
      <use x="1487.826172" xlink:href="#DejaVuSans-72"/>
      <use x="1528.939453" xlink:href="#DejaVuSans-73"/>
     </g>
    </g>
   </g>
   <g id="line2d_33">
    <defs>
     <path d="M 0 1.5 
C 0.397805 1.5 0.77937 1.341951 1.06066 1.06066 
C 1.341951 0.77937 1.5 0.397805 1.5 0 
C 1.5 -0.397805 1.341951 -0.77937 1.06066 -1.06066 
C 0.77937 -1.341951 0.397805 -1.5 0 -1.5 
C -0.397805 -1.5 -0.77937 -1.341951 -1.06066 -1.06066 
C -1.341951 -0.77937 -1.5 -0.397805 -1.5 0 
C -1.5 0.397805 -1.341951 0.77937 -1.06066 1.06066 
C -0.77937 1.341951 -0.397805 1.5 0 1.5 
z
" id="m12623cc165" style="stroke:#f5deb3;"/>
    </defs>
    <g>
     <use style="fill:#f5deb3;stroke:#f5deb3;" x="251.508418" xlink:href="#m12623cc165" y="62.752535"/>
     <use style="fill:#f5deb3;stroke:#f5deb3;" x="251.508418" xlink:href="#m12623cc165" y="62.752535"/>
    </g>
   </g>
   <g id="line2d_34">
    <defs>
     <path d="M 0 1.5 
C 0.397805 1.5 0.77937 1.341951 1.06066 1.06066 
C 1.341951 0.77937 1.5 0.397805 1.5 0 
C 1.5 -0.397805 1.341951 -0.77937 1.06066 -1.06066 
C 0.77937 -1.341951 0.397805 -1.5 0 -1.5 
C -0.397805 -1.5 -0.77937 -1.341951 -1.06066 -1.06066 
C -1.341951 -0.77937 -1.5 -0.397805 -1.5 0 
C -1.5 0.397805 -1.341951 0.77937 -1.06066 1.06066 
C -0.77937 1.341951 -0.397805 1.5 0 1.5 
z
" id="m4816494233" style="stroke:#000080;"/>
    </defs>
    <g>
     <use style="fill:#000080;stroke:#000080;" x="212.858356" xlink:href="#m4816494233" y="191.036919"/>
     <use style="fill:#000080;stroke:#000080;" x="212.858356" xlink:href="#m4816494233" y="191.036919"/>
    </g>
   </g>
   <g id="line2d_35">
    <path d="M 45.512012 298.944 
L 45.512012 293.849674 
L 73.579452 293.849674 
L 73.579452 290.607831 
L 76.759008 290.607831 
L 76.759008 288.755349 
L 79.447285 288.755349 
L 79.447285 287.365987 
L 83.830028 287.365987 
L 83.830028 283.661023 
L 85.66744 283.661023 
L 85.66744 282.734782 
L 87.329581 282.734782 
L 87.329581 281.34542 
L 88.846997 281.34542 
L 88.846997 276.714215 
L 90.242884 276.714215 
L 90.242884 273.935492 
L 92.73846 273.935492 
L 92.73846 273.009251 
L 93.863965 273.009251 
L 93.863965 271.619889 
L 96.86091 271.619889 
L 96.86091 271.156769 
L 97.755429 271.156769 
L 97.755429 270.693648 
L 99.41757 270.693648 
L 99.41757 267.451805 
L 100.192776 267.451805 
L 100.192776 266.525564 
L 101.646892 266.525564 
L 101.646892 265.599323 
L 103.623262 265.599323 
L 103.623262 263.746841 
L 104.23523 263.746841 
L 104.23523 262.8206 
L 105.398279 262.8206 
L 105.398279 261.431238 
L 107.009204 261.431238 
L 107.009204 260.968117 
L 109.401893 260.968117 
L 109.401893 260.041876 
L 111.104637 260.041876 
L 111.104637 258.652515 
L 111.505558 258.652515 
L 111.505558 258.189394 
L 112.655818 258.189394 
L 112.655818 257.263153 
L 113.73488 257.263153 
L 113.73488 256.336912 
L 114.418861 256.336912 
L 114.418861 254.947551 
L 115.397021 254.947551 
L 115.397021 253.558189 
L 116.019919 253.558189 
L 116.019919 251.705707 
L 116.323218 251.705707 
L 116.323218 251.242587 
L 117.486268 251.242587 
L 117.486268 250.779466 
L 118.838828 250.779466 
L 118.838828 250.316346 
L 119.602714 250.316346 
L 119.602714 249.853225 
L 120.571812 249.853225 
L 120.571812 248.926984 
L 121.712041 248.926984 
L 121.712041 248.000743 
L 123.790603 248.000743 
L 123.790603 247.537622 
L 124.557288 247.537622 
L 124.557288 246.611381 
L 127.799239 246.611381 
L 127.799239 245.68514 
L 127.954256 245.68514 
L 127.954256 244.758899 
L 128.560901 244.758899 
L 128.560901 244.295779 
L 128.709321 244.295779 
L 128.709321 243.832658 
L 129.002426 243.832658 
L 129.002426 242.906417 
L 129.574256 242.906417 
L 129.574256 241.980176 
L 133.352844 241.980176 
L 133.352844 241.053935 
L 134.12805 241.053935 
L 134.12805 240.590815 
L 134.870259 240.590815 
L 134.870259 240.127694 
L 135.381712 240.127694 
L 135.381712 239.664574 
L 135.582166 239.664574 
L 135.582166 238.738333 
L 137.198951 238.738333 
L 137.198951 237.348971 
L 137.910857 237.348971 
L 137.910857 236.88585 
L 142.351634 236.88585 
L 142.351634 236.42273 
L 143.964547 236.42273 
L 143.964547 235.959609 
L 148.112924 235.959609 
L 148.112924 235.033368 
L 148.306159 235.033368 
L 148.306159 234.107127 
L 149.867558 234.107127 
L 149.867558 233.644007 
L 150.556607 233.644007 
L 150.556607 233.180886 
L 158.652556 233.180886 
L 158.652556 232.717766 
L 158.83738 232.717766 
L 158.83738 231.791525 
L 159.175513 231.791525 
L 159.175513 230.865284 
L 159.431225 230.865284 
L 159.431225 230.402163 
L 159.658204 230.402163 
L 159.658204 229.939043 
L 160.346039 229.939043 
L 160.346039 229.475922 
L 161.555647 229.475922 
L 161.555647 227.16032 
L 161.977497 227.16032 
L 161.977497 226.234079 
L 162.152109 226.234079 
L 162.152109 225.770958 
L 162.281931 225.770958 
L 162.367945 224.844717 
L 164.712717 224.844717 
L 164.712717 224.381596 
L 166.391896 224.381596 
L 166.391896 223.455355 
L 170.885928 223.455355 
L 170.885928 222.992235 
L 173.55351 222.992235 
L 173.55351 222.529114 
L 175.405599 222.529114 
L 175.405599 222.065994 
L 176.112223 222.065994 
L 176.112223 221.139753 
L 180.220807 221.139753 
L 180.220807 220.676632 
L 182.561055 220.676632 
L 182.561055 219.750391 
L 183.312807 219.750391 
L 183.312807 219.287271 
L 186.180872 219.287271 
L 186.180872 218.82415 
L 189.28727 218.82415 
L 189.28727 217.897909 
L 190.779466 217.897909 
L 190.779466 217.434789 
L 192.610567 217.434789 
L 192.610567 216.971668 
L 193.856369 216.971668 
L 193.856369 216.045427 
L 196.376609 216.045427 
L 196.376609 215.582307 
L 196.819506 215.582307 
L 196.819506 215.119186 
L 196.955821 215.119186 
L 196.955821 214.656066 
L 197.315165 214.656066 
L 197.315165 214.192945 
L 197.607643 214.192945 
L 197.607643 213.266704 
L 198.233234 213.266704 
L 198.326258 211.877342 
L 198.613131 211.877342 
L 198.613131 210.951101 
L 198.826556 210.951101 
L 198.826556 210.487981 
L 200.811826 210.487981 
L 200.811826 210.02486 
L 200.962612 210.02486 
L 200.962612 209.56174 
L 202.170177 209.56174 
L 202.170177 209.098619 
L 202.305366 209.098619 
L 202.305366 208.635499 
L 203.088975 208.635499 
L 203.088975 207.709258 
L 205.100983 207.709258 
L 205.100983 207.246137 
L 206.041052 207.246137 
L 206.118023 203.541173 
L 206.56775 203.541173 
L 206.56775 202.614932 
L 206.956333 202.614932 
L 206.956333 201.688691 
L 208.853863 201.688691 
L 208.932763 197.520606 
L 209.046761 197.520606 
L 209.046761 197.057486 
L 209.369868 197.057486 
L 209.369868 196.594365 
L 210.229078 196.594365 
L 210.263517 194.278763 
L 212.089778 194.278763 
L 212.089778 193.815642 
L 212.350567 193.815642 
L 212.350567 192.889401 
L 212.613527 192.889401 
L 212.715459 191.50004 
L 212.858356 191.50004 
L 212.858356 191.036919 
L 338.688 191.036919 
L 338.688 191.036919 
" style="fill:none;stroke:#000080;stroke-linecap:square;stroke-width:1.5;"/>
   </g>
   <g id="line2d_36">
    <defs>
     <path d="M 0 6 
C 1.591219 6 3.117479 5.367802 4.242641 4.242641 
C 5.367802 3.117479 6 1.591219 6 0 
C 6 -1.591219 5.367802 -3.117479 4.242641 -4.242641 
C 3.117479 -5.367802 1.591219 -6 0 -6 
C -1.591219 -6 -3.117479 -5.367802 -4.242641 -4.242641 
C -5.367802 -3.117479 -6 -1.591219 -6 0 
C -6 1.591219 -5.367802 3.117479 -4.242641 4.242641 
C -3.117479 5.367802 -1.591219 6 0 6 
z
" id="m6de9ac61c8" style="stroke:#000080;stroke-width:1.5;"/>
    </defs>
    <g>
     <use style="fill-opacity:0;stroke:#000080;stroke-width:1.5;" x="105.398279" xlink:href="#m6de9ac61c8" y="261.431238"/>
     <use style="fill-opacity:0;stroke:#000080;stroke-width:1.5;" x="182.561055" xlink:href="#m6de9ac61c8" y="220.676632"/>
     <use style="fill-opacity:0;stroke:#000080;stroke-width:1.5;" x="212.858356" xlink:href="#m6de9ac61c8" y="191.50004"/>
     <use style="fill-opacity:0;stroke:#000080;stroke-width:1.5;" x="212.858356" xlink:href="#m6de9ac61c8" y="191.036919"/>
     <use style="fill-opacity:0;stroke:#000080;stroke-width:1.5;" x="212.858356" xlink:href="#m6de9ac61c8" y="191.036919"/>
     <use style="fill-opacity:0;stroke:#000080;stroke-width:1.5;" x="338.688" xlink:href="#m6de9ac61c8" y="191.036919"/>
    </g>
   </g>
   <g id="line2d_37">
    <path style="fill:none;stroke:#000080;stroke-linecap:square;stroke-width:1.5;"/>
    <g/>
   </g>
   <g id="line2d_38">
    <path clip-path="url(#pba340175ce)" d="M 235.820449 191.036919 
" style="fill:none;stroke:#000080;stroke-linecap:square;stroke-width:1.5;"/>
    <defs>
     <path d="M -12 12 
L 12 -12 
M -12 -12 
L 12 12 
" id="mca3998ea35" style="stroke:#000080;"/>
    </defs>
    <g clip-path="url(#pba340175ce)">
     <use style="fill:#000080;stroke:#000080;" x="235.820449" xlink:href="#mca3998ea35" y="191.036919"/>
    </g>
   </g>
   <g id="line2d_39">
    <defs>
     <path d="M 0 1.5 
C 0.397805 1.5 0.77937 1.341951 1.06066 1.06066 
C 1.341951 0.77937 1.5 0.397805 1.5 0 
C 1.5 -0.397805 1.341951 -0.77937 1.06066 -1.06066 
C 0.77937 -1.341951 0.397805 -1.5 0 -1.5 
C -0.397805 -1.5 -0.77937 -1.341951 -1.06066 -1.06066 
C -1.341951 -0.77937 -1.5 -0.397805 -1.5 0 
C -1.5 0.397805 -1.341951 0.77937 -1.06066 1.06066 
C -0.77937 1.341951 -0.397805 1.5 0 1.5 
z
" id="mc00275497a" style="stroke:#ff00ff;"/>
    </defs>
    <g>
     <use style="fill:#ff00ff;stroke:#ff00ff;" x="234.173241" xlink:href="#mc00275497a" y="163.249688"/>
     <use style="fill:#ff00ff;stroke:#ff00ff;" x="234.173241" xlink:href="#mc00275497a" y="163.249688"/>
    </g>
   </g>
   <g id="line2d_40">
    <path d="M 69.687988 298.944 
L 69.687988 298.480879 
L 76.759008 298.480879 
L 76.759008 297.554638 
L 91.535274 297.554638 
L 91.535274 294.775915 
L 104.23523 294.775915 
L 104.23523 293.849674 
L 105.398279 293.849674 
L 105.398279 292.923433 
L 108.483824 292.923433 
L 108.483824 291.534072 
L 113.382559 291.534072 
L 113.382559 289.68159 
L 114.080224 289.68159 
L 114.080224 286.439746 
L 114.751048 286.439746 
L 114.751048 284.587264 
L 117.202696 284.587264 
L 117.202696 283.661023 
L 117.765302 283.661023 
L 117.765302 282.734782 
L 120.093994 282.734782 
L 120.093994 282.271661 
L 120.8059 282.271661 
L 120.8059 281.808541 
L 122.573415 281.808541 
L 122.573415 279.956059 
L 123.394238 279.956059 
L 123.394238 279.029818 
L 123.790603 279.029818 
L 123.790603 278.566697 
L 124.178158 278.566697 
L 124.178158 278.103577 
L 124.743806 278.103577 
L 124.743806 275.787974 
L 125.470548 275.787974 
L 125.470548 275.324854 
L 127.165014 275.324854 
L 127.165014 274.398612 
L 128.107907 274.398612 
L 128.107907 273.472371 
L 128.856489 273.472371 
L 128.856489 273.009251 
L 130.263646 273.009251 
L 130.263646 271.619889 
L 131.056477 271.619889 
L 131.056477 271.156769 
L 131.439773 271.156769 
L 131.439773 270.230528 
L 131.565689 270.230528 
L 131.565689 269.767407 
L 131.690703 269.767407 
L 131.690703 269.304287 
L 132.659801 269.304287 
L 132.659801 267.914925 
L 132.777237 267.914925 
L 132.777237 266.525564 
L 133.124876 266.525564 
L 133.124876 265.599323 
L 133.57787 265.599323 
L 133.57787 265.136202 
L 133.689303 265.136202 
L 133.689303 264.673082 
L 134.343353 264.673082 
L 134.343353 264.209961 
L 134.870259 264.209961 
L 134.870259 263.746841 
L 135.381712 263.746841 
L 135.381712 262.8206 
L 136.456742 262.8206 
L 136.456742 262.357479 
L 137.558536 262.357479 
L 137.647286 257.726274 
L 138.256201 257.726274 
L 138.256201 256.336912 
L 138.594838 256.336912 
L 138.594838 255.873792 
L 138.761723 255.873792 
L 138.761723 255.410671 
L 139.253002 255.410671 
L 139.253002 254.947551 
L 139.652088 254.947551 
L 139.652088 254.48443 
L 139.8092 254.48443 
L 139.8092 253.095069 
L 140.042245 253.095069 
L 140.11924 251.705707 
L 141.235139 251.705707 
L 141.235139 250.779466 
L 141.45 250.779466 
L 141.45 249.853225 
L 141.591783 249.853225 
L 141.591783 248.926984 
L 141.732423 248.926984 
L 141.732423 248.000743 
L 142.818488 248.000743 
L 142.818488 247.537622 
L 144.209312 247.537622 
L 144.209312 246.611381 
L 145.777292 246.611381 
L 145.888018 245.22202 
L 146.696785 245.22202 
L 146.696785 244.758899 
L 146.906268 244.758899 
L 146.906268 243.832658 
L 147.96658 243.832658 
L 147.96658 242.906417 
L 148.592055 242.906417 
L 148.592055 242.443297 
L 149.955193 242.443297 
L 149.955193 241.980176 
L 151.621307 241.980176 
L 151.621307 241.053935 
L 151.779487 241.053935 
L 151.779487 240.127694 
L 152.736878 240.127694 
L 152.736878 239.664574 
L 152.922207 239.664574 
L 152.922207 238.738333 
L 153.105587 238.738333 
L 153.214697 237.348971 
L 154.269814 237.348971 
L 154.269814 236.88585 
L 155.296925 236.88585 
L 155.296925 235.959609 
L 157.557108 235.959609 
L 157.557108 235.033368 
L 158.492562 235.033368 
L 158.492562 234.107127 
L 159.481921 234.107127 
L 159.481921 233.644007 
L 159.733212 233.644007 
L 159.733212 232.717766 
L 160.656397 232.717766 
L 160.727241 229.475922 
L 160.891432 229.475922 
L 160.891432 229.012802 
L 161.578106 229.012802 
L 161.578106 228.086561 
L 161.911563 228.086561 
L 161.911563 227.62344 
L 162.453536 227.62344 
L 162.453536 227.16032 
L 162.833584 227.16032 
L 162.833584 226.697199 
L 163.768781 226.697199 
L 163.808326 224.381596 
L 164.675172 224.381596 
L 164.675172 223.455355 
L 164.824867 223.455355 
L 164.824867 222.992235 
L 165.120455 222.992235 
L 165.120455 222.065994 
L 165.820633 222.065994 
L 165.820633 221.602873 
L 165.960849 221.602873 
L 165.978297 220.213512 
L 167.223287 220.213512 
L 167.223287 219.750391 
L 167.892273 219.750391 
L 167.892273 219.287271 
L 168.701418 219.287271 
L 168.701418 218.36103 
L 169.403177 218.36103 
L 169.431813 216.971668 
L 170.473066 216.971668 
L 170.473066 216.045427 
L 170.620687 216.045427 
L 170.620687 215.119186 
L 172.720707 215.119186 
L 172.720707 214.656066 
L 174.816832 214.656066 
L 174.816832 214.192945 
L 175.385274 214.192945 
L 175.385274 213.729825 
L 175.807212 213.729825 
L 175.807212 213.266704 
L 176.67839 213.266704 
L 176.67839 212.803583 
L 178.640929 212.803583 
L 178.640929 212.340463 
L 179.424571 212.340463 
L 179.424571 211.414222 
L 179.720498 211.414222 
L 179.775924 209.56174 
L 180.351324 209.56174 
L 180.351324 208.635499 
L 181.245843 208.635499 
L 181.253107 207.246137 
L 181.47683 207.246137 
L 181.584061 206.319896 
L 183.157214 206.319896 
L 183.209233 205.393655 
L 183.409353 205.393655 
L 183.409353 204.930535 
L 183.695823 204.930535 
L 183.695823 204.467414 
L 184.236667 204.467414 
L 184.236667 203.541173 
L 185.230068 203.541173 
L 185.230068 203.078053 
L 185.68662 203.078053 
L 185.731624 201.225571 
L 187.134425 201.225571 
L 187.134425 200.76245 
L 187.635207 200.76245 
L 187.635207 200.299329 
L 190.813084 200.299329 
L 190.813084 196.131245 
L 191.075585 196.131245 
L 191.075585 195.668124 
L 191.24432 195.668124 
L 191.24432 195.205004 
L 191.725016 195.205004 
L 191.732983 193.815642 
L 192.500396 193.815642 
L 192.500396 193.352522 
L 195.45557 193.352522 
L 195.45557 192.889401 
L 196.38881 192.889401 
L 196.38881 192.426281 
L 196.60097 192.426281 
L 196.60097 191.96316 
L 196.881869 191.96316 
L 196.881869 191.50004 
L 198.483811 191.50004 
L 198.483811 191.036919 
L 199.126243 191.036919 
L 199.126243 190.110678 
L 200.271123 190.110678 
L 200.271123 189.184437 
L 202.163609 189.184437 
L 202.163609 188.258196 
L 202.570501 188.258196 
L 202.570501 187.331955 
L 202.704756 187.331955 
L 202.704756 186.405714 
L 203.235794 186.405714 
L 203.235794 185.942593 
L 204.552142 185.942593 
L 204.552142 185.479473 
L 206.126749 185.479473 
L 206.126749 185.016352 
L 206.255375 185.016352 
L 206.255375 184.553232 
L 206.455117 184.553232 
L 206.455117 184.090111 
L 207.312014 184.090111 
L 207.312014 183.16387 
L 207.703671 183.16387 
L 207.703671 182.70075 
L 208.953546 182.70075 
L 208.953546 181.774509 
L 209.107158 181.774509 
L 209.107158 180.848268 
L 210.380104 180.848268 
L 210.461934 179.922027 
L 211.594497 179.922027 
L 211.594497 178.995786 
L 211.724072 178.995786 
L 211.724072 178.532665 
L 212.483148 178.532665 
L 212.483148 178.069545 
L 213.069358 178.069545 
L 213.164007 177.143304 
L 214.02458 177.143304 
L 214.02458 176.217062 
L 216.908251 176.217062 
L 217.01884 175.290821 
L 217.146362 175.290821 
L 217.146362 174.827701 
L 219.864027 174.827701 
L 219.943206 173.90146 
L 220.365444 173.90146 
L 220.365444 172.975219 
L 220.638578 172.975219 
L 220.638578 172.512098 
L 221.88286 172.512098 
L 221.88286 172.048978 
L 222.573718 172.048978 
L 222.573718 171.585857 
L 223.344523 171.585857 
L 223.344523 171.122737 
L 223.614134 171.122737 
L 223.614134 170.659616 
L 226.849924 170.659616 
L 226.888692 169.733375 
L 227.159245 169.733375 
L 227.159245 169.270255 
L 227.411256 169.270255 
L 227.411256 167.880893 
L 227.602232 167.880893 
L 227.602232 166.954652 
L 229.15208 166.954652 
L 229.15208 166.491532 
L 229.285747 166.491532 
L 229.285747 166.028411 
L 231.387457 166.028411 
L 231.387457 165.565291 
L 231.553881 165.565291 
L 231.553881 164.63905 
L 232.860416 164.63905 
L 232.860416 164.175929 
L 234.173241 164.175929 
L 234.173241 163.249688 
L 338.688 163.249688 
L 338.688 163.249688 
" style="fill:none;stroke:#ff00ff;stroke-linecap:square;stroke-width:1.5;"/>
   </g>
   <g id="line2d_41">
    <defs>
     <path d="M 0 8.485281 
L 5.091169 0 
L 0 -8.485281 
L -5.091169 0 
z
" id="m4b54948ed1" style="stroke:#ff00ff;stroke-linejoin:miter;stroke-width:1.5;"/>
    </defs>
    <g>
     <use style="fill-opacity:0;stroke:#ff00ff;stroke-linejoin:miter;stroke-width:1.5;" x="117.765302" xlink:href="#m4b54948ed1" y="283.661023"/>
     <use style="fill-opacity:0;stroke:#ff00ff;stroke-linejoin:miter;stroke-width:1.5;" x="185.230068" xlink:href="#m4b54948ed1" y="203.541173"/>
     <use style="fill-opacity:0;stroke:#ff00ff;stroke-linejoin:miter;stroke-width:1.5;" x="234.173241" xlink:href="#m4b54948ed1" y="164.175929"/>
     <use style="fill-opacity:0;stroke:#ff00ff;stroke-linejoin:miter;stroke-width:1.5;" x="234.173241" xlink:href="#m4b54948ed1" y="163.249688"/>
     <use style="fill-opacity:0;stroke:#ff00ff;stroke-linejoin:miter;stroke-width:1.5;" x="338.688" xlink:href="#m4b54948ed1" y="163.249688"/>
    </g>
   </g>
   <g id="line2d_42">
    <path style="fill:none;stroke:#ff00ff;stroke-linecap:square;stroke-width:1.5;"/>
    <g/>
   </g>
   <g id="line2d_43">
    <path clip-path="url(#pba340175ce)" d="M 234.201515 163.249688 
" style="fill:none;stroke:#ff00ff;stroke-linecap:square;stroke-width:1.5;"/>
    <defs>
     <path d="M -12 12 
L 12 -12 
M -12 -12 
L 12 12 
" id="m742d40eced" style="stroke:#ff00ff;"/>
    </defs>
    <g clip-path="url(#pba340175ce)">
     <use style="fill:#ff00ff;stroke:#ff00ff;" x="234.201515" xlink:href="#m742d40eced" y="163.249688"/>
    </g>
   </g>
   <g id="line2d_44">
    <path d="M 338.688 191.036919 
L 369.60768 293.571802 
" style="fill:none;stroke:#000080;stroke-linecap:square;stroke-width:1.5;"/>
    <g>
     <use style="fill-opacity:0;stroke:#000080;stroke-width:1.5;" x="338.688" xlink:href="#m6de9ac61c8" y="191.036919"/>
     <use style="fill-opacity:0;stroke:#000080;stroke-width:1.5;" x="369.60768" xlink:href="#m6de9ac61c8" y="293.571802"/>
    </g>
   </g>
   <g id="line2d_45">
    <path d="M 338.688 163.249688 
L 369.60768 164.63905 
" style="fill:none;stroke:#ff00ff;stroke-linecap:square;stroke-width:1.5;"/>
    <g>
     <use style="fill-opacity:0;stroke:#ff00ff;stroke-linejoin:miter;stroke-width:1.5;" x="338.688" xlink:href="#m4b54948ed1" y="163.249688"/>
     <use style="fill-opacity:0;stroke:#ff00ff;stroke-linejoin:miter;stroke-width:1.5;" x="369.60768" xlink:href="#m4b54948ed1" y="164.63905"/>
    </g>
   </g>
   <g id="line2d_46">
    <path d="M 338.688 298.944 
L 338.688 30.334099 
" style="fill:none;stroke:#000000;stroke-linecap:square;stroke-width:1.5;"/>
   </g>
   <g id="patch_3">
    <path d="M 57.6 298.944 
L 57.6 27.648 
" style="fill:none;stroke:#000000;stroke-linecap:square;stroke-linejoin:miter;stroke-width:0.8;"/>
   </g>
   <g id="patch_4">
    <path d="M 338.688 298.944 
L 338.688 27.648 
" style="fill:none;stroke:#000000;stroke-linecap:square;stroke-linejoin:miter;stroke-width:0.8;"/>
   </g>
   <g id="patch_5">
    <path d="M 57.6 298.944 
L 338.688 298.944 
" style="fill:none;stroke:#000000;stroke-linecap:square;stroke-linejoin:miter;stroke-width:0.8;"/>
   </g>
   <g id="patch_6">
    <path d="M 57.6 27.648 
L 338.688 27.648 
" style="fill:none;stroke:#000000;stroke-linecap:square;stroke-linejoin:miter;stroke-width:0.8;"/>
   </g>
   <g id="text_13">
    <!-- DMS Brock -->
    <g transform="translate(375.22944 298.262739)scale(0.17 -0.17)">
     <defs>
      <path d="M 1259 4147 
L 1259 519 
L 2022 519 
Q 2988 519 3436 956 
Q 3884 1394 3884 2338 
Q 3884 3275 3436 3711 
Q 2988 4147 2022 4147 
L 1259 4147 
z
M 628 4666 
L 1925 4666 
Q 3281 4666 3915 4102 
Q 4550 3538 4550 2338 
Q 4550 1131 3912 565 
Q 3275 0 1925 0 
L 628 0 
L 628 4666 
z
" id="DejaVuSans-44" transform="scale(0.015625)"/>
      <path d="M 628 4666 
L 1569 4666 
L 2759 1491 
L 3956 4666 
L 4897 4666 
L 4897 0 
L 4281 0 
L 4281 4097 
L 3078 897 
L 2444 897 
L 1241 4097 
L 1241 0 
L 628 0 
L 628 4666 
z
" id="DejaVuSans-4d" transform="scale(0.015625)"/>
      <path d="M 3425 4513 
L 3425 3897 
Q 3066 4069 2747 4153 
Q 2428 4238 2131 4238 
Q 1616 4238 1336 4038 
Q 1056 3838 1056 3469 
Q 1056 3159 1242 3001 
Q 1428 2844 1947 2747 
L 2328 2669 
Q 3034 2534 3370 2195 
Q 3706 1856 3706 1288 
Q 3706 609 3251 259 
Q 2797 -91 1919 -91 
Q 1588 -91 1214 -16 
Q 841 59 441 206 
L 441 856 
Q 825 641 1194 531 
Q 1563 422 1919 422 
Q 2459 422 2753 634 
Q 3047 847 3047 1241 
Q 3047 1584 2836 1778 
Q 2625 1972 2144 2069 
L 1759 2144 
Q 1053 2284 737 2584 
Q 422 2884 422 3419 
Q 422 4038 858 4394 
Q 1294 4750 2059 4750 
Q 2388 4750 2728 4690 
Q 3069 4631 3425 4513 
z
" id="DejaVuSans-53" transform="scale(0.015625)"/>
      <path d="M 1259 2228 
L 1259 519 
L 2272 519 
Q 2781 519 3026 730 
Q 3272 941 3272 1375 
Q 3272 1813 3026 2020 
Q 2781 2228 2272 2228 
L 1259 2228 
z
M 1259 4147 
L 1259 2741 
L 2194 2741 
Q 2656 2741 2882 2914 
Q 3109 3088 3109 3444 
Q 3109 3797 2882 3972 
Q 2656 4147 2194 4147 
L 1259 4147 
z
M 628 4666 
L 2241 4666 
Q 2963 4666 3353 4366 
Q 3744 4066 3744 3513 
Q 3744 3084 3544 2831 
Q 3344 2578 2956 2516 
Q 3422 2416 3680 2098 
Q 3938 1781 3938 1306 
Q 3938 681 3513 340 
Q 3088 0 2303 0 
L 628 0 
L 628 4666 
z
" id="DejaVuSans-42" transform="scale(0.015625)"/>
      <path d="M 581 4863 
L 1159 4863 
L 1159 1991 
L 2875 3500 
L 3609 3500 
L 1753 1863 
L 3688 0 
L 2938 0 
L 1159 1709 
L 1159 0 
L 581 0 
L 581 4863 
z
" id="DejaVuSans-6b" transform="scale(0.015625)"/>
     </defs>
     <use xlink:href="#DejaVuSans-44"/>
     <use x="77.001953" xlink:href="#DejaVuSans-4d"/>
     <use x="163.28125" xlink:href="#DejaVuSans-53"/>
     <use x="226.757812" xlink:href="#DejaVuSans-20"/>
     <use x="258.544922" xlink:href="#DejaVuSans-42"/>
     <use x="327.148438" xlink:href="#DejaVuSans-72"/>
     <use x="366.011719" xlink:href="#DejaVuSans-6f"/>
     <use x="427.193359" xlink:href="#DejaVuSans-63"/>
     <use x="482.173828" xlink:href="#DejaVuSans-6b"/>
    </g>
   </g>
   <g id="text_14">
    <!-- MultiGLOD -->
    <g transform="translate(375.22944 169.329987)scale(0.17 -0.17)">
     <defs>
      <path d="M 3809 666 
L 3809 1919 
L 2778 1919 
L 2778 2438 
L 4434 2438 
L 4434 434 
Q 4069 175 3628 42 
Q 3188 -91 2688 -91 
Q 1594 -91 976 548 
Q 359 1188 359 2328 
Q 359 3472 976 4111 
Q 1594 4750 2688 4750 
Q 3144 4750 3555 4637 
Q 3966 4525 4313 4306 
L 4313 3634 
Q 3963 3931 3569 4081 
Q 3175 4231 2741 4231 
Q 1884 4231 1454 3753 
Q 1025 3275 1025 2328 
Q 1025 1384 1454 906 
Q 1884 428 2741 428 
Q 3075 428 3337 486 
Q 3600 544 3809 666 
z
" id="DejaVuSans-47" transform="scale(0.015625)"/>
      <path d="M 628 4666 
L 1259 4666 
L 1259 531 
L 3531 531 
L 3531 0 
L 628 0 
L 628 4666 
z
" id="DejaVuSans-4c" transform="scale(0.015625)"/>
      <path d="M 2522 4238 
Q 1834 4238 1429 3725 
Q 1025 3213 1025 2328 
Q 1025 1447 1429 934 
Q 1834 422 2522 422 
Q 3209 422 3611 934 
Q 4013 1447 4013 2328 
Q 4013 3213 3611 3725 
Q 3209 4238 2522 4238 
z
M 2522 4750 
Q 3503 4750 4090 4092 
Q 4678 3434 4678 2328 
Q 4678 1225 4090 567 
Q 3503 -91 2522 -91 
Q 1538 -91 948 565 
Q 359 1222 359 2328 
Q 359 3434 948 4092 
Q 1538 4750 2522 4750 
z
" id="DejaVuSans-4f" transform="scale(0.015625)"/>
     </defs>
     <use xlink:href="#DejaVuSans-4d"/>
     <use x="86.279297" xlink:href="#DejaVuSans-75"/>
     <use x="149.658203" xlink:href="#DejaVuSans-6c"/>
     <use x="177.441406" xlink:href="#DejaVuSans-74"/>
     <use x="216.650391" xlink:href="#DejaVuSans-69"/>
     <use x="244.433594" xlink:href="#DejaVuSans-47"/>
     <use x="321.923828" xlink:href="#DejaVuSans-4c"/>
     <use x="374.011719" xlink:href="#DejaVuSans-4f"/>
     <use x="452.722656" xlink:href="#DejaVuSans-44"/>
    </g>
   </g>
   <g id="text_15">
    <!-- best 2016 -->
    <g transform="translate(375.22944 40.397235)scale(0.17 -0.17)">
     <defs>
      <path d="M 3116 1747 
Q 3116 2381 2855 2742 
Q 2594 3103 2138 3103 
Q 1681 3103 1420 2742 
Q 1159 2381 1159 1747 
Q 1159 1113 1420 752 
Q 1681 391 2138 391 
Q 2594 391 2855 752 
Q 3116 1113 3116 1747 
z
M 1159 2969 
Q 1341 3281 1617 3432 
Q 1894 3584 2278 3584 
Q 2916 3584 3314 3078 
Q 3713 2572 3713 1747 
Q 3713 922 3314 415 
Q 2916 -91 2278 -91 
Q 1894 -91 1617 61 
Q 1341 213 1159 525 
L 1159 0 
L 581 0 
L 581 4863 
L 1159 4863 
L 1159 2969 
z
" id="DejaVuSans-62" transform="scale(0.015625)"/>
     </defs>
     <use xlink:href="#DejaVuSans-62"/>
     <use x="63.476562" xlink:href="#DejaVuSans-65"/>
     <use x="125" xlink:href="#DejaVuSans-73"/>
     <use x="177.099609" xlink:href="#DejaVuSans-74"/>
     <use x="216.308594" xlink:href="#DejaVuSans-20"/>
     <use x="248.095703" xlink:href="#DejaVuSans-32"/>
     <use x="311.71875" xlink:href="#DejaVuSans-30"/>
     <use x="375.341797" xlink:href="#DejaVuSans-31"/>
     <use x="438.964844" xlink:href="#DejaVuSans-36"/>
    </g>
   </g>
   <g id="text_16">
    <!-- bbob-biobj f45, 2-D -->
    <g transform="translate(60.41088 38.111366)scale(0.102 -0.102)">
     <defs>
      <path d="M 603 3500 
L 1178 3500 
L 1178 -63 
Q 1178 -731 923 -1031 
Q 669 -1331 103 -1331 
L -116 -1331 
L -116 -844 
L 38 -844 
Q 366 -844 484 -692 
Q 603 -541 603 -63 
L 603 3500 
z
M 603 4863 
L 1178 4863 
L 1178 4134 
L 603 4134 
L 603 4863 
z
" id="DejaVuSans-6a" transform="scale(0.015625)"/>
      <path d="M 691 4666 
L 3169 4666 
L 3169 4134 
L 1269 4134 
L 1269 2991 
Q 1406 3038 1543 3061 
Q 1681 3084 1819 3084 
Q 2600 3084 3056 2656 
Q 3513 2228 3513 1497 
Q 3513 744 3044 326 
Q 2575 -91 1722 -91 
Q 1428 -91 1123 -41 
Q 819 9 494 109 
L 494 744 
Q 775 591 1075 516 
Q 1375 441 1709 441 
Q 2250 441 2565 725 
Q 2881 1009 2881 1497 
Q 2881 1984 2565 2268 
Q 2250 2553 1709 2553 
Q 1456 2553 1204 2497 
Q 953 2441 691 2322 
L 691 4666 
z
" id="DejaVuSans-35" transform="scale(0.015625)"/>
     </defs>
     <use xlink:href="#DejaVuSans-62"/>
     <use x="63.476562" xlink:href="#DejaVuSans-62"/>
     <use x="126.953125" xlink:href="#DejaVuSans-6f"/>
     <use x="188.134766" xlink:href="#DejaVuSans-62"/>
     <use x="251.611328" xlink:href="#DejaVuSans-2d"/>
     <use x="287.695312" xlink:href="#DejaVuSans-62"/>
     <use x="351.171875" xlink:href="#DejaVuSans-69"/>
     <use x="378.955078" xlink:href="#DejaVuSans-6f"/>
     <use x="440.136719" xlink:href="#DejaVuSans-62"/>
     <use x="503.613281" xlink:href="#DejaVuSans-6a"/>
     <use x="531.396484" xlink:href="#DejaVuSans-20"/>
     <use x="563.183594" xlink:href="#DejaVuSans-66"/>
     <use x="598.388672" xlink:href="#DejaVuSans-34"/>
     <use x="662.011719" xlink:href="#DejaVuSans-35"/>
     <use x="725.634766" xlink:href="#DejaVuSans-2c"/>
     <use x="757.421875" xlink:href="#DejaVuSans-20"/>
     <use x="789.208984" xlink:href="#DejaVuSans-32"/>
     <use x="852.832031" xlink:href="#DejaVuSans-2d"/>
     <use x="888.916016" xlink:href="#DejaVuSans-44"/>
    </g>
    <!-- 58 targets: 1..-1.0e-4 -->
    <g transform="translate(60.41088 49.533135)scale(0.102 -0.102)">
     <defs>
      <path d="M 750 794 
L 1409 794 
L 1409 0 
L 750 0 
L 750 794 
z
M 750 3309 
L 1409 3309 
L 1409 2516 
L 750 2516 
L 750 3309 
z
" id="DejaVuSans-3a" transform="scale(0.015625)"/>
     </defs>
     <use xlink:href="#DejaVuSans-35"/>
     <use x="63.623047" xlink:href="#DejaVuSans-38"/>
     <use x="127.246094" xlink:href="#DejaVuSans-20"/>
     <use x="159.033203" xlink:href="#DejaVuSans-74"/>
     <use x="198.242188" xlink:href="#DejaVuSans-61"/>
     <use x="259.521484" xlink:href="#DejaVuSans-72"/>
     <use x="298.884766" xlink:href="#DejaVuSans-67"/>
     <use x="362.361328" xlink:href="#DejaVuSans-65"/>
     <use x="423.884766" xlink:href="#DejaVuSans-74"/>
     <use x="463.09375" xlink:href="#DejaVuSans-73"/>
     <use x="515.193359" xlink:href="#DejaVuSans-3a"/>
     <use x="548.884766" xlink:href="#DejaVuSans-20"/>
     <use x="580.671875" xlink:href="#DejaVuSans-31"/>
     <use x="644.294922" xlink:href="#DejaVuSans-2e"/>
     <use x="676.082031" xlink:href="#DejaVuSans-2e"/>
     <use x="707.869141" xlink:href="#DejaVuSans-2d"/>
     <use x="743.953125" xlink:href="#DejaVuSans-31"/>
     <use x="807.576172" xlink:href="#DejaVuSans-2e"/>
     <use x="839.363281" xlink:href="#DejaVuSans-30"/>
     <use x="902.986328" xlink:href="#DejaVuSans-65"/>
     <use x="964.509766" xlink:href="#DejaVuSans-2d"/>
     <use x="1000.59375" xlink:href="#DejaVuSans-34"/>
    </g>
    <!-- 10 instances -->
    <g transform="translate(60.41088 60.954904)scale(0.102 -0.102)">
     <use xlink:href="#DejaVuSans-31"/>
     <use x="63.623047" xlink:href="#DejaVuSans-30"/>
     <use x="127.246094" xlink:href="#DejaVuSans-20"/>
     <use x="159.033203" xlink:href="#DejaVuSans-69"/>
     <use x="186.816406" xlink:href="#DejaVuSans-6e"/>
     <use x="250.195312" xlink:href="#DejaVuSans-73"/>
     <use x="302.294922" xlink:href="#DejaVuSans-74"/>
     <use x="341.503906" xlink:href="#DejaVuSans-61"/>
     <use x="402.783203" xlink:href="#DejaVuSans-6e"/>
     <use x="466.162109" xlink:href="#DejaVuSans-63"/>
     <use x="521.142578" xlink:href="#DejaVuSans-65"/>
     <use x="582.666016" xlink:href="#DejaVuSans-73"/>
    </g>
   </g>
   <g id="text_17">
    <!-- v2.4.1.1, hv-hash=ff0e71e8cd978373 -->
    <g style="fill:#808080;" transform="translate(103.108062 294.151352)scale(0.1 -0.1)">
     <defs>
      <path d="M 3513 2113 
L 3513 0 
L 2938 0 
L 2938 2094 
Q 2938 2591 2744 2837 
Q 2550 3084 2163 3084 
Q 1697 3084 1428 2787 
Q 1159 2491 1159 1978 
L 1159 0 
L 581 0 
L 581 4863 
L 1159 4863 
L 1159 2956 
Q 1366 3272 1645 3428 
Q 1925 3584 2291 3584 
Q 2894 3584 3203 3211 
Q 3513 2838 3513 2113 
z
" id="DejaVuSans-68" transform="scale(0.015625)"/>
      <path d="M 678 2906 
L 4684 2906 
L 4684 2381 
L 678 2381 
L 678 2906 
z
M 678 1631 
L 4684 1631 
L 4684 1100 
L 678 1100 
L 678 1631 
z
" id="DejaVuSans-3d" transform="scale(0.015625)"/>
      <path d="M 525 4666 
L 3525 4666 
L 3525 4397 
L 1831 0 
L 1172 0 
L 2766 4134 
L 525 4134 
L 525 4666 
z
" id="DejaVuSans-37" transform="scale(0.015625)"/>
      <path d="M 703 97 
L 703 672 
Q 941 559 1184 500 
Q 1428 441 1663 441 
Q 2288 441 2617 861 
Q 2947 1281 2994 2138 
Q 2813 1869 2534 1725 
Q 2256 1581 1919 1581 
Q 1219 1581 811 2004 
Q 403 2428 403 3163 
Q 403 3881 828 4315 
Q 1253 4750 1959 4750 
Q 2769 4750 3195 4129 
Q 3622 3509 3622 2328 
Q 3622 1225 3098 567 
Q 2575 -91 1691 -91 
Q 1453 -91 1209 -44 
Q 966 3 703 97 
z
M 1959 2075 
Q 2384 2075 2632 2365 
Q 2881 2656 2881 3163 
Q 2881 3666 2632 3958 
Q 2384 4250 1959 4250 
Q 1534 4250 1286 3958 
Q 1038 3666 1038 3163 
Q 1038 2656 1286 2365 
Q 1534 2075 1959 2075 
z
" id="DejaVuSans-39" transform="scale(0.015625)"/>
      <path d="M 2597 2516 
Q 3050 2419 3304 2112 
Q 3559 1806 3559 1356 
Q 3559 666 3084 287 
Q 2609 -91 1734 -91 
Q 1441 -91 1130 -33 
Q 819 25 488 141 
L 488 750 
Q 750 597 1062 519 
Q 1375 441 1716 441 
Q 2309 441 2620 675 
Q 2931 909 2931 1356 
Q 2931 1769 2642 2001 
Q 2353 2234 1838 2234 
L 1294 2234 
L 1294 2753 
L 1863 2753 
Q 2328 2753 2575 2939 
Q 2822 3125 2822 3475 
Q 2822 3834 2567 4026 
Q 2313 4219 1838 4219 
Q 1578 4219 1281 4162 
Q 984 4106 628 3988 
L 628 4550 
Q 988 4650 1302 4700 
Q 1616 4750 1894 4750 
Q 2613 4750 3031 4423 
Q 3450 4097 3450 3541 
Q 3450 3153 3228 2886 
Q 3006 2619 2597 2516 
z
" id="DejaVuSans-33" transform="scale(0.015625)"/>
     </defs>
     <use xlink:href="#DejaVuSans-76"/>
     <use x="59.179688" xlink:href="#DejaVuSans-32"/>
     <use x="122.802734" xlink:href="#DejaVuSans-2e"/>
     <use x="154.589844" xlink:href="#DejaVuSans-34"/>
     <use x="218.212891" xlink:href="#DejaVuSans-2e"/>
     <use x="250" xlink:href="#DejaVuSans-31"/>
     <use x="313.623047" xlink:href="#DejaVuSans-2e"/>
     <use x="345.410156" xlink:href="#DejaVuSans-31"/>
     <use x="409.033203" xlink:href="#DejaVuSans-2c"/>
     <use x="440.820312" xlink:href="#DejaVuSans-20"/>
     <use x="472.607422" xlink:href="#DejaVuSans-68"/>
     <use x="535.986328" xlink:href="#DejaVuSans-76"/>
     <use x="592.541016" xlink:href="#DejaVuSans-2d"/>
     <use x="628.625" xlink:href="#DejaVuSans-68"/>
     <use x="692.003906" xlink:href="#DejaVuSans-61"/>
     <use x="753.283203" xlink:href="#DejaVuSans-73"/>
     <use x="805.382812" xlink:href="#DejaVuSans-68"/>
     <use x="868.761719" xlink:href="#DejaVuSans-3d"/>
     <use x="952.550781" xlink:href="#DejaVuSans-66"/>
     <use x="987.755859" xlink:href="#DejaVuSans-66"/>
     <use x="1022.960938" xlink:href="#DejaVuSans-30"/>
     <use x="1086.583984" xlink:href="#DejaVuSans-65"/>
     <use x="1148.107422" xlink:href="#DejaVuSans-37"/>
     <use x="1211.730469" xlink:href="#DejaVuSans-31"/>
     <use x="1275.353516" xlink:href="#DejaVuSans-65"/>
     <use x="1336.876953" xlink:href="#DejaVuSans-38"/>
     <use x="1400.5" xlink:href="#DejaVuSans-63"/>
     <use x="1455.480469" xlink:href="#DejaVuSans-64"/>
     <use x="1518.957031" xlink:href="#DejaVuSans-39"/>
     <use x="1582.580078" xlink:href="#DejaVuSans-37"/>
     <use x="1646.203125" xlink:href="#DejaVuSans-38"/>
     <use x="1709.826172" xlink:href="#DejaVuSans-33"/>
     <use x="1773.449219" xlink:href="#DejaVuSans-37"/>
     <use x="1837.072266" xlink:href="#DejaVuSans-33"/>
    </g>
   </g>
   <g id="text_18">
    <!-- 45 Diff. Powers/Gallagher 101 -->
    <g transform="translate(49.508062 21.648)scale(0.2 -0.2)">
     <defs>
      <path d="M 1259 4147 
L 1259 2394 
L 2053 2394 
Q 2494 2394 2734 2622 
Q 2975 2850 2975 3272 
Q 2975 3691 2734 3919 
Q 2494 4147 2053 4147 
L 1259 4147 
z
M 628 4666 
L 2053 4666 
Q 2838 4666 3239 4311 
Q 3641 3956 3641 3272 
Q 3641 2581 3239 2228 
Q 2838 1875 2053 1875 
L 1259 1875 
L 1259 0 
L 628 0 
L 628 4666 
z
" id="DejaVuSans-50" transform="scale(0.015625)"/>
      <path d="M 269 3500 
L 844 3500 
L 1563 769 
L 2278 3500 
L 2956 3500 
L 3675 769 
L 4391 3500 
L 4966 3500 
L 4050 0 
L 3372 0 
L 2619 2869 
L 1863 0 
L 1184 0 
L 269 3500 
z
" id="DejaVuSans-77" transform="scale(0.015625)"/>
     </defs>
     <use xlink:href="#DejaVuSans-34"/>
     <use x="63.623047" xlink:href="#DejaVuSans-35"/>
     <use x="127.246094" xlink:href="#DejaVuSans-20"/>
     <use x="159.033203" xlink:href="#DejaVuSans-44"/>
     <use x="236.035156" xlink:href="#DejaVuSans-69"/>
     <use x="263.818359" xlink:href="#DejaVuSans-66"/>
     <use x="299.023438" xlink:href="#DejaVuSans-66"/>
     <use x="326.978516" xlink:href="#DejaVuSans-2e"/>
     <use x="358.765625" xlink:href="#DejaVuSans-20"/>
     <use x="390.552734" xlink:href="#DejaVuSans-50"/>
     <use x="447.230469" xlink:href="#DejaVuSans-6f"/>
     <use x="508.412109" xlink:href="#DejaVuSans-77"/>
     <use x="590.199219" xlink:href="#DejaVuSans-65"/>
     <use x="651.722656" xlink:href="#DejaVuSans-72"/>
     <use x="692.835938" xlink:href="#DejaVuSans-73"/>
     <use x="744.935547" xlink:href="#DejaVuSans-2f"/>
     <use x="778.626953" xlink:href="#DejaVuSans-47"/>
     <use x="856.117188" xlink:href="#DejaVuSans-61"/>
     <use x="917.396484" xlink:href="#DejaVuSans-6c"/>
     <use x="945.179688" xlink:href="#DejaVuSans-6c"/>
     <use x="972.962891" xlink:href="#DejaVuSans-61"/>
     <use x="1034.242188" xlink:href="#DejaVuSans-67"/>
     <use x="1097.71875" xlink:href="#DejaVuSans-68"/>
     <use x="1161.097656" xlink:href="#DejaVuSans-65"/>
     <use x="1222.621094" xlink:href="#DejaVuSans-72"/>
     <use x="1263.734375" xlink:href="#DejaVuSans-20"/>
     <use x="1295.521484" xlink:href="#DejaVuSans-31"/>
     <use x="1359.144531" xlink:href="#DejaVuSans-30"/>
     <use x="1422.767578" xlink:href="#DejaVuSans-31"/>
    </g>
   </g>
  </g>
 </g>
 <defs>
  <clipPath id="pba340175ce">
   <rect height="271.296" width="281.088" x="57.6" y="27.648"/>
  </clipPath>
 </defs>
</svg>
