<?xml version="1.0" encoding="utf-8" standalone="no"?>
<!DOCTYPE svg PUBLIC "-//W3C//DTD SVG 1.1//EN"
  "http://www.w3.org/Graphics/SVG/1.1/DTD/svg11.dtd">
<svg height="345.6pt" version="1.1" viewBox="0 0 460.8 345.6" width="460.8pt" xmlns="http://www.w3.org/2000/svg" xmlns:xlink="http://www.w3.org/1999/xlink">
 <metadata>
  <rdf:RDF xmlns:cc="http://creativecommons.org/ns#" xmlns:dc="http://purl.org/dc/elements/1.1/" xmlns:rdf="http://www.w3.org/1999/02/22-rdf-syntax-ns#">
   <cc:Work>
    <dc:type rdf:resource="http://purl.org/dc/dcmitype/StillImage"/>
    <dc:date>2022-03-29T13:10:29.077927</dc:date>
    <dc:format>image/svg+xml</dc:format>
    <dc:creator>
     <cc:Agent>
      <dc:title>Matplotlib v3.4.3, https://matplotlib.org/</dc:title>
     </cc:Agent>
    </dc:creator>
   </cc:Work>
  </rdf:RDF>
 </metadata>
 <defs>
  <style type="text/css">*{stroke-linecap:butt;stroke-linejoin:round;}</style>
 </defs>
 <g id="figure_1">
  <g id="patch_1">
   <path d="M 0 345.6 
L 460.8 345.6 
L 460.8 0 
L 0 0 
z
" style="fill:#ffffff;"/>
  </g>
  <g id="axes_1">
   <g id="patch_2">
    <path d="M 57.6 298.944 
L 338.688 298.944 
L 338.688 27.648 
L 57.6 27.648 
z
" style="fill:#ffffff;"/>
   </g>
   <g id="line2d_1">
    <path d="M 62.616969 298.944 
L 62.616969 294.312795 
L 69.687988 294.312795 
L 69.687988 285.050384 
L 74.704957 285.050384 
L 74.704957 275.787974 
L 88.846997 275.787974 
L 88.846997 271.156769 
L 96.552242 271.156769 
L 96.552242 257.263153 
L 108.326001 257.263153 
L 108.326001 248.000743 
L 115.291007 248.000743 
L 115.291007 243.369538 
L 120.571812 243.369538 
L 120.571812 234.107127 
L 127.590383 234.107127 
L 127.590383 220.213512 
L 136.519813 220.213512 
L 136.519813 210.951101 
L 145.212864 210.951101 
L 145.212864 201.688691 
L 151.634543 201.688691 
L 151.634543 192.426281 
L 157.660438 192.426281 
L 157.660438 187.795075 
L 164.024234 187.795075 
L 164.024234 173.90146 
L 171.116915 173.90146 
L 171.116915 169.270255 
L 184.745395 169.270255 
L 184.745395 155.376639 
L 193.733706 155.376639 
L 193.733706 146.114229 
L 202.539096 146.114229 
L 202.539096 141.483024 
L 208.173303 141.483024 
L 208.173303 127.589408 
L 214.879565 127.589408 
L 214.879565 122.958203 
L 221.980133 122.958203 
L 221.980133 109.064587 
L 229.761728 109.064587 
L 229.761728 99.802177 
L 238.582539 99.802177 
L 238.582539 90.539766 
L 244.158901 90.539766 
L 244.158901 85.908561 
L 250.108386 85.908561 
L 250.108386 76.646151 
L 256.53172 76.646151 
L 256.53172 62.752535 
L 338.688 62.752535 
" style="fill:none;stroke:#f5deb3;stroke-linecap:square;stroke-width:4;"/>
   </g>
   <g id="line2d_2">
    <defs>
     <path d="M 0 7.778175 
L 7.778175 0 
L 0 -7.778175 
L -7.778175 0 
z
" id="me3d05a05b8" style="stroke:#f5deb3;stroke-linejoin:miter;stroke-width:1.5;"/>
    </defs>
    <g>
     <use style="fill:#f5deb3;stroke:#f5deb3;stroke-linejoin:miter;stroke-width:1.5;" x="127.590383" xlink:href="#me3d05a05b8" y="220.213512"/>
     <use style="fill:#f5deb3;stroke:#f5deb3;stroke-linejoin:miter;stroke-width:1.5;" x="184.745395" xlink:href="#me3d05a05b8" y="155.376639"/>
     <use style="fill:#f5deb3;stroke:#f5deb3;stroke-linejoin:miter;stroke-width:1.5;" x="244.158901" xlink:href="#me3d05a05b8" y="85.908561"/>
     <use style="fill:#f5deb3;stroke:#f5deb3;stroke-linejoin:miter;stroke-width:1.5;" x="256.53172" xlink:href="#me3d05a05b8" y="62.752535"/>
     <use style="fill:#f5deb3;stroke:#f5deb3;stroke-linejoin:miter;stroke-width:1.5;" x="338.688" xlink:href="#me3d05a05b8" y="62.752535"/>
    </g>
   </g>
   <g id="line2d_3">
    <path style="fill:none;stroke:#f5deb3;stroke-linecap:square;stroke-width:4;"/>
    <g/>
   </g>
   <g id="line2d_4">
    <path d="M 338.688 62.752535 
L 369.60768 35.706297 
" style="fill:none;stroke:#f5deb3;stroke-linecap:square;stroke-width:4;"/>
    <g>
     <use style="fill:#f5deb3;stroke:#f5deb3;stroke-linejoin:miter;stroke-width:1.5;" x="338.688" xlink:href="#me3d05a05b8" y="62.752535"/>
     <use style="fill:#f5deb3;stroke:#f5deb3;stroke-linejoin:miter;stroke-width:1.5;" x="369.60768" xlink:href="#me3d05a05b8" y="35.706297"/>
    </g>
   </g>
   <g id="matplotlib.axis_1">
    <g id="xtick_1">
     <g id="line2d_5">
      <path clip-path="url(#p1cad2e4aec)" d="M 57.6 298.944 
L 57.6 27.648 
" style="fill:none;stroke:#b0b0b0;stroke-linecap:square;stroke-width:0.8;"/>
     </g>
     <g id="line2d_6">
      <defs>
       <path d="M 0 0 
L 0 3.5 
" id="m91349485a4" style="stroke:#000000;stroke-width:0.8;"/>
      </defs>
      <g>
       <use style="stroke:#000000;stroke-width:0.8;" x="57.6" xlink:href="#m91349485a4" y="298.944"/>
      </g>
     </g>
     <g id="text_1">
      <!-- 0 -->
      <g transform="translate(51.2375 321.140875)scale(0.2 -0.2)">
       <defs>
        <path d="M 2034 4250 
Q 1547 4250 1301 3770 
Q 1056 3291 1056 2328 
Q 1056 1369 1301 889 
Q 1547 409 2034 409 
Q 2525 409 2770 889 
Q 3016 1369 3016 2328 
Q 3016 3291 2770 3770 
Q 2525 4250 2034 4250 
z
M 2034 4750 
Q 2819 4750 3233 4129 
Q 3647 3509 3647 2328 
Q 3647 1150 3233 529 
Q 2819 -91 2034 -91 
Q 1250 -91 836 529 
Q 422 1150 422 2328 
Q 422 3509 836 4129 
Q 1250 4750 2034 4750 
z
" id="DejaVuSans-30" transform="scale(0.015625)"/>
       </defs>
       <use xlink:href="#DejaVuSans-30"/>
      </g>
     </g>
    </g>
    <g id="xtick_2">
     <g id="line2d_7">
      <path clip-path="url(#p1cad2e4aec)" d="M 137.910857 298.944 
L 137.910857 27.648 
" style="fill:none;stroke:#b0b0b0;stroke-linecap:square;stroke-width:0.8;"/>
     </g>
     <g id="line2d_8">
      <g>
       <use style="stroke:#000000;stroke-width:0.8;" x="137.910857" xlink:href="#m91349485a4" y="298.944"/>
      </g>
     </g>
     <g id="text_2">
      <!-- 2 -->
      <g transform="translate(131.548357 321.140875)scale(0.2 -0.2)">
       <defs>
        <path d="M 1228 531 
L 3431 531 
L 3431 0 
L 469 0 
L 469 531 
Q 828 903 1448 1529 
Q 2069 2156 2228 2338 
Q 2531 2678 2651 2914 
Q 2772 3150 2772 3378 
Q 2772 3750 2511 3984 
Q 2250 4219 1831 4219 
Q 1534 4219 1204 4116 
Q 875 4013 500 3803 
L 500 4441 
Q 881 4594 1212 4672 
Q 1544 4750 1819 4750 
Q 2544 4750 2975 4387 
Q 3406 4025 3406 3419 
Q 3406 3131 3298 2873 
Q 3191 2616 2906 2266 
Q 2828 2175 2409 1742 
Q 1991 1309 1228 531 
z
" id="DejaVuSans-32" transform="scale(0.015625)"/>
       </defs>
       <use xlink:href="#DejaVuSans-32"/>
      </g>
     </g>
    </g>
    <g id="xtick_3">
     <g id="line2d_9">
      <path clip-path="url(#p1cad2e4aec)" d="M 218.221714 298.944 
L 218.221714 27.648 
" style="fill:none;stroke:#b0b0b0;stroke-linecap:square;stroke-width:0.8;"/>
     </g>
     <g id="line2d_10">
      <g>
       <use style="stroke:#000000;stroke-width:0.8;" x="218.221714" xlink:href="#m91349485a4" y="298.944"/>
      </g>
     </g>
     <g id="text_3">
      <!-- 4 -->
      <g transform="translate(211.859214 321.140875)scale(0.2 -0.2)">
       <defs>
        <path d="M 2419 4116 
L 825 1625 
L 2419 1625 
L 2419 4116 
z
M 2253 4666 
L 3047 4666 
L 3047 1625 
L 3713 1625 
L 3713 1100 
L 3047 1100 
L 3047 0 
L 2419 0 
L 2419 1100 
L 313 1100 
L 313 1709 
L 2253 4666 
z
" id="DejaVuSans-34" transform="scale(0.015625)"/>
       </defs>
       <use xlink:href="#DejaVuSans-34"/>
      </g>
     </g>
    </g>
    <g id="xtick_4">
     <g id="line2d_11">
      <path clip-path="url(#p1cad2e4aec)" d="M 298.532571 298.944 
L 298.532571 27.648 
" style="fill:none;stroke:#b0b0b0;stroke-linecap:square;stroke-width:0.8;"/>
     </g>
     <g id="line2d_12">
      <g>
       <use style="stroke:#000000;stroke-width:0.8;" x="298.532571" xlink:href="#m91349485a4" y="298.944"/>
      </g>
     </g>
     <g id="text_4">
      <!-- 6 -->
      <g transform="translate(292.170071 321.140875)scale(0.2 -0.2)">
       <defs>
        <path d="M 2113 2584 
Q 1688 2584 1439 2293 
Q 1191 2003 1191 1497 
Q 1191 994 1439 701 
Q 1688 409 2113 409 
Q 2538 409 2786 701 
Q 3034 994 3034 1497 
Q 3034 2003 2786 2293 
Q 2538 2584 2113 2584 
z
M 3366 4563 
L 3366 3988 
Q 3128 4100 2886 4159 
Q 2644 4219 2406 4219 
Q 1781 4219 1451 3797 
Q 1122 3375 1075 2522 
Q 1259 2794 1537 2939 
Q 1816 3084 2150 3084 
Q 2853 3084 3261 2657 
Q 3669 2231 3669 1497 
Q 3669 778 3244 343 
Q 2819 -91 2113 -91 
Q 1303 -91 875 529 
Q 447 1150 447 2328 
Q 447 3434 972 4092 
Q 1497 4750 2381 4750 
Q 2619 4750 2861 4703 
Q 3103 4656 3366 4563 
z
" id="DejaVuSans-36" transform="scale(0.015625)"/>
       </defs>
       <use xlink:href="#DejaVuSans-36"/>
      </g>
     </g>
    </g>
    <g id="xtick_5">
     <g id="line2d_13">
      <path clip-path="url(#p1cad2e4aec)" d="M 97.755429 298.944 
L 97.755429 27.648 
" style="fill:none;stroke:#b0b0b0;stroke-linecap:square;stroke-width:0.8;"/>
     </g>
     <g id="line2d_14">
      <defs>
       <path d="M 0 0 
L 0 2 
" id="mb12d52ce59" style="stroke:#000000;stroke-width:0.6;"/>
      </defs>
      <g>
       <use style="stroke:#000000;stroke-width:0.6;" x="97.755429" xlink:href="#mb12d52ce59" y="298.944"/>
      </g>
     </g>
    </g>
    <g id="xtick_6">
     <g id="line2d_15">
      <path clip-path="url(#p1cad2e4aec)" d="M 178.066286 298.944 
L 178.066286 27.648 
" style="fill:none;stroke:#b0b0b0;stroke-linecap:square;stroke-width:0.8;"/>
     </g>
     <g id="line2d_16">
      <g>
       <use style="stroke:#000000;stroke-width:0.6;" x="178.066286" xlink:href="#mb12d52ce59" y="298.944"/>
      </g>
     </g>
    </g>
    <g id="xtick_7">
     <g id="line2d_17">
      <path clip-path="url(#p1cad2e4aec)" d="M 258.377143 298.944 
L 258.377143 27.648 
" style="fill:none;stroke:#b0b0b0;stroke-linecap:square;stroke-width:0.8;"/>
     </g>
     <g id="line2d_18">
      <g>
       <use style="stroke:#000000;stroke-width:0.6;" x="258.377143" xlink:href="#mb12d52ce59" y="298.944"/>
      </g>
     </g>
    </g>
    <g id="xtick_8">
     <g id="line2d_19">
      <path clip-path="url(#p1cad2e4aec)" d="M 338.688 298.944 
L 338.688 27.648 
" style="fill:none;stroke:#b0b0b0;stroke-linecap:square;stroke-width:0.8;"/>
     </g>
     <g id="line2d_20">
      <g>
       <use style="stroke:#000000;stroke-width:0.6;" x="338.688" xlink:href="#mb12d52ce59" y="298.944"/>
      </g>
     </g>
    </g>
    <g id="text_5">
     <!-- log10(# f-evals / dimension) -->
     <g transform="translate(77.764078 342.217594)scale(0.17 -0.17)">
      <defs>
       <path d="M 603 4863 
L 1178 4863 
L 1178 0 
L 603 0 
L 603 4863 
z
" id="DejaVuSans-6c" transform="scale(0.015625)"/>
       <path d="M 1959 3097 
Q 1497 3097 1228 2736 
Q 959 2375 959 1747 
Q 959 1119 1226 758 
Q 1494 397 1959 397 
Q 2419 397 2687 759 
Q 2956 1122 2956 1747 
Q 2956 2369 2687 2733 
Q 2419 3097 1959 3097 
z
M 1959 3584 
Q 2709 3584 3137 3096 
Q 3566 2609 3566 1747 
Q 3566 888 3137 398 
Q 2709 -91 1959 -91 
Q 1206 -91 779 398 
Q 353 888 353 1747 
Q 353 2609 779 3096 
Q 1206 3584 1959 3584 
z
" id="DejaVuSans-6f" transform="scale(0.015625)"/>
       <path d="M 2906 1791 
Q 2906 2416 2648 2759 
Q 2391 3103 1925 3103 
Q 1463 3103 1205 2759 
Q 947 2416 947 1791 
Q 947 1169 1205 825 
Q 1463 481 1925 481 
Q 2391 481 2648 825 
Q 2906 1169 2906 1791 
z
M 3481 434 
Q 3481 -459 3084 -895 
Q 2688 -1331 1869 -1331 
Q 1566 -1331 1297 -1286 
Q 1028 -1241 775 -1147 
L 775 -588 
Q 1028 -725 1275 -790 
Q 1522 -856 1778 -856 
Q 2344 -856 2625 -561 
Q 2906 -266 2906 331 
L 2906 616 
Q 2728 306 2450 153 
Q 2172 0 1784 0 
Q 1141 0 747 490 
Q 353 981 353 1791 
Q 353 2603 747 3093 
Q 1141 3584 1784 3584 
Q 2172 3584 2450 3431 
Q 2728 3278 2906 2969 
L 2906 3500 
L 3481 3500 
L 3481 434 
z
" id="DejaVuSans-67" transform="scale(0.015625)"/>
       <path d="M 794 531 
L 1825 531 
L 1825 4091 
L 703 3866 
L 703 4441 
L 1819 4666 
L 2450 4666 
L 2450 531 
L 3481 531 
L 3481 0 
L 794 0 
L 794 531 
z
" id="DejaVuSans-31" transform="scale(0.015625)"/>
       <path d="M 1984 4856 
Q 1566 4138 1362 3434 
Q 1159 2731 1159 2009 
Q 1159 1288 1364 580 
Q 1569 -128 1984 -844 
L 1484 -844 
Q 1016 -109 783 600 
Q 550 1309 550 2009 
Q 550 2706 781 3412 
Q 1013 4119 1484 4856 
L 1984 4856 
z
" id="DejaVuSans-28" transform="scale(0.015625)"/>
       <path d="M 3272 2816 
L 2363 2816 
L 2100 1772 
L 3016 1772 
L 3272 2816 
z
M 2803 4594 
L 2478 3297 
L 3391 3297 
L 3719 4594 
L 4219 4594 
L 3897 3297 
L 4872 3297 
L 4872 2816 
L 3775 2816 
L 3519 1772 
L 4513 1772 
L 4513 1294 
L 3397 1294 
L 3072 0 
L 2572 0 
L 2894 1294 
L 1978 1294 
L 1656 0 
L 1153 0 
L 1478 1294 
L 494 1294 
L 494 1772 
L 1594 1772 
L 1856 2816 
L 850 2816 
L 850 3297 
L 1978 3297 
L 2297 4594 
L 2803 4594 
z
" id="DejaVuSans-23" transform="scale(0.015625)"/>
       <path id="DejaVuSans-20" transform="scale(0.015625)"/>
       <path d="M 2375 4863 
L 2375 4384 
L 1825 4384 
Q 1516 4384 1395 4259 
Q 1275 4134 1275 3809 
L 1275 3500 
L 2222 3500 
L 2222 3053 
L 1275 3053 
L 1275 0 
L 697 0 
L 697 3053 
L 147 3053 
L 147 3500 
L 697 3500 
L 697 3744 
Q 697 4328 969 4595 
Q 1241 4863 1831 4863 
L 2375 4863 
z
" id="DejaVuSans-66" transform="scale(0.015625)"/>
       <path d="M 313 2009 
L 1997 2009 
L 1997 1497 
L 313 1497 
L 313 2009 
z
" id="DejaVuSans-2d" transform="scale(0.015625)"/>
       <path d="M 3597 1894 
L 3597 1613 
L 953 1613 
Q 991 1019 1311 708 
Q 1631 397 2203 397 
Q 2534 397 2845 478 
Q 3156 559 3463 722 
L 3463 178 
Q 3153 47 2828 -22 
Q 2503 -91 2169 -91 
Q 1331 -91 842 396 
Q 353 884 353 1716 
Q 353 2575 817 3079 
Q 1281 3584 2069 3584 
Q 2775 3584 3186 3129 
Q 3597 2675 3597 1894 
z
M 3022 2063 
Q 3016 2534 2758 2815 
Q 2500 3097 2075 3097 
Q 1594 3097 1305 2825 
Q 1016 2553 972 2059 
L 3022 2063 
z
" id="DejaVuSans-65" transform="scale(0.015625)"/>
       <path d="M 191 3500 
L 800 3500 
L 1894 563 
L 2988 3500 
L 3597 3500 
L 2284 0 
L 1503 0 
L 191 3500 
z
" id="DejaVuSans-76" transform="scale(0.015625)"/>
       <path d="M 2194 1759 
Q 1497 1759 1228 1600 
Q 959 1441 959 1056 
Q 959 750 1161 570 
Q 1363 391 1709 391 
Q 2188 391 2477 730 
Q 2766 1069 2766 1631 
L 2766 1759 
L 2194 1759 
z
M 3341 1997 
L 3341 0 
L 2766 0 
L 2766 531 
Q 2569 213 2275 61 
Q 1981 -91 1556 -91 
Q 1019 -91 701 211 
Q 384 513 384 1019 
Q 384 1609 779 1909 
Q 1175 2209 1959 2209 
L 2766 2209 
L 2766 2266 
Q 2766 2663 2505 2880 
Q 2244 3097 1772 3097 
Q 1472 3097 1187 3025 
Q 903 2953 641 2809 
L 641 3341 
Q 956 3463 1253 3523 
Q 1550 3584 1831 3584 
Q 2591 3584 2966 3190 
Q 3341 2797 3341 1997 
z
" id="DejaVuSans-61" transform="scale(0.015625)"/>
       <path d="M 2834 3397 
L 2834 2853 
Q 2591 2978 2328 3040 
Q 2066 3103 1784 3103 
Q 1356 3103 1142 2972 
Q 928 2841 928 2578 
Q 928 2378 1081 2264 
Q 1234 2150 1697 2047 
L 1894 2003 
Q 2506 1872 2764 1633 
Q 3022 1394 3022 966 
Q 3022 478 2636 193 
Q 2250 -91 1575 -91 
Q 1294 -91 989 -36 
Q 684 19 347 128 
L 347 722 
Q 666 556 975 473 
Q 1284 391 1588 391 
Q 1994 391 2212 530 
Q 2431 669 2431 922 
Q 2431 1156 2273 1281 
Q 2116 1406 1581 1522 
L 1381 1569 
Q 847 1681 609 1914 
Q 372 2147 372 2553 
Q 372 3047 722 3315 
Q 1072 3584 1716 3584 
Q 2034 3584 2315 3537 
Q 2597 3491 2834 3397 
z
" id="DejaVuSans-73" transform="scale(0.015625)"/>
       <path d="M 1625 4666 
L 2156 4666 
L 531 -594 
L 0 -594 
L 1625 4666 
z
" id="DejaVuSans-2f" transform="scale(0.015625)"/>
       <path d="M 2906 2969 
L 2906 4863 
L 3481 4863 
L 3481 0 
L 2906 0 
L 2906 525 
Q 2725 213 2448 61 
Q 2172 -91 1784 -91 
Q 1150 -91 751 415 
Q 353 922 353 1747 
Q 353 2572 751 3078 
Q 1150 3584 1784 3584 
Q 2172 3584 2448 3432 
Q 2725 3281 2906 2969 
z
M 947 1747 
Q 947 1113 1208 752 
Q 1469 391 1925 391 
Q 2381 391 2643 752 
Q 2906 1113 2906 1747 
Q 2906 2381 2643 2742 
Q 2381 3103 1925 3103 
Q 1469 3103 1208 2742 
Q 947 2381 947 1747 
z
" id="DejaVuSans-64" transform="scale(0.015625)"/>
       <path d="M 603 3500 
L 1178 3500 
L 1178 0 
L 603 0 
L 603 3500 
z
M 603 4863 
L 1178 4863 
L 1178 4134 
L 603 4134 
L 603 4863 
z
" id="DejaVuSans-69" transform="scale(0.015625)"/>
       <path d="M 3328 2828 
Q 3544 3216 3844 3400 
Q 4144 3584 4550 3584 
Q 5097 3584 5394 3201 
Q 5691 2819 5691 2113 
L 5691 0 
L 5113 0 
L 5113 2094 
Q 5113 2597 4934 2840 
Q 4756 3084 4391 3084 
Q 3944 3084 3684 2787 
Q 3425 2491 3425 1978 
L 3425 0 
L 2847 0 
L 2847 2094 
Q 2847 2600 2669 2842 
Q 2491 3084 2119 3084 
Q 1678 3084 1418 2786 
Q 1159 2488 1159 1978 
L 1159 0 
L 581 0 
L 581 3500 
L 1159 3500 
L 1159 2956 
Q 1356 3278 1631 3431 
Q 1906 3584 2284 3584 
Q 2666 3584 2933 3390 
Q 3200 3197 3328 2828 
z
" id="DejaVuSans-6d" transform="scale(0.015625)"/>
       <path d="M 3513 2113 
L 3513 0 
L 2938 0 
L 2938 2094 
Q 2938 2591 2744 2837 
Q 2550 3084 2163 3084 
Q 1697 3084 1428 2787 
Q 1159 2491 1159 1978 
L 1159 0 
L 581 0 
L 581 3500 
L 1159 3500 
L 1159 2956 
Q 1366 3272 1645 3428 
Q 1925 3584 2291 3584 
Q 2894 3584 3203 3211 
Q 3513 2838 3513 2113 
z
" id="DejaVuSans-6e" transform="scale(0.015625)"/>
       <path d="M 513 4856 
L 1013 4856 
Q 1481 4119 1714 3412 
Q 1947 2706 1947 2009 
Q 1947 1309 1714 600 
Q 1481 -109 1013 -844 
L 513 -844 
Q 928 -128 1133 580 
Q 1338 1288 1338 2009 
Q 1338 2731 1133 3434 
Q 928 4138 513 4856 
z
" id="DejaVuSans-29" transform="scale(0.015625)"/>
      </defs>
      <use xlink:href="#DejaVuSans-6c"/>
      <use x="27.783203" xlink:href="#DejaVuSans-6f"/>
      <use x="88.964844" xlink:href="#DejaVuSans-67"/>
      <use x="152.441406" xlink:href="#DejaVuSans-31"/>
      <use x="216.064453" xlink:href="#DejaVuSans-30"/>
      <use x="279.6875" xlink:href="#DejaVuSans-28"/>
      <use x="318.701172" xlink:href="#DejaVuSans-23"/>
      <use x="402.490234" xlink:href="#DejaVuSans-20"/>
      <use x="434.277344" xlink:href="#DejaVuSans-66"/>
      <use x="463.982422" xlink:href="#DejaVuSans-2d"/>
      <use x="500.066406" xlink:href="#DejaVuSans-65"/>
      <use x="561.589844" xlink:href="#DejaVuSans-76"/>
      <use x="620.769531" xlink:href="#DejaVuSans-61"/>
      <use x="682.048828" xlink:href="#DejaVuSans-6c"/>
      <use x="709.832031" xlink:href="#DejaVuSans-73"/>
      <use x="761.931641" xlink:href="#DejaVuSans-20"/>
      <use x="793.71875" xlink:href="#DejaVuSans-2f"/>
      <use x="827.410156" xlink:href="#DejaVuSans-20"/>
      <use x="859.197266" xlink:href="#DejaVuSans-64"/>
      <use x="922.673828" xlink:href="#DejaVuSans-69"/>
      <use x="950.457031" xlink:href="#DejaVuSans-6d"/>
      <use x="1047.869141" xlink:href="#DejaVuSans-65"/>
      <use x="1109.392578" xlink:href="#DejaVuSans-6e"/>
      <use x="1172.771484" xlink:href="#DejaVuSans-73"/>
      <use x="1224.871094" xlink:href="#DejaVuSans-69"/>
      <use x="1252.654297" xlink:href="#DejaVuSans-6f"/>
      <use x="1313.835938" xlink:href="#DejaVuSans-6e"/>
      <use x="1377.214844" xlink:href="#DejaVuSans-29"/>
     </g>
    </g>
   </g>
   <g id="matplotlib.axis_2">
    <g id="ytick_1">
     <g id="line2d_21">
      <path clip-path="url(#p1cad2e4aec)" d="M 57.6 298.944 
L 338.688 298.944 
" style="fill:none;stroke:#b0b0b0;stroke-linecap:square;stroke-width:0.8;"/>
     </g>
     <g id="line2d_22">
      <defs>
       <path d="M 0 0 
L -3.5 0 
" id="m4a04a2396f" style="stroke:#000000;stroke-width:0.8;"/>
      </defs>
      <g>
       <use style="stroke:#000000;stroke-width:0.8;" x="57.6" xlink:href="#m4a04a2396f" y="298.944"/>
      </g>
     </g>
     <g id="text_6">
      <!-- 0.0 -->
      <g transform="translate(25.155 305.02275)scale(0.16 -0.16)">
       <defs>
        <path d="M 684 794 
L 1344 794 
L 1344 0 
L 684 0 
L 684 794 
z
" id="DejaVuSans-2e" transform="scale(0.015625)"/>
       </defs>
       <use xlink:href="#DejaVuSans-30"/>
       <use x="63.623047" xlink:href="#DejaVuSans-2e"/>
       <use x="95.410156" xlink:href="#DejaVuSans-30"/>
      </g>
     </g>
    </g>
    <g id="ytick_2">
     <g id="line2d_23">
      <path clip-path="url(#p1cad2e4aec)" d="M 57.6 245.22202 
L 338.688 245.22202 
" style="fill:none;stroke:#b0b0b0;stroke-linecap:square;stroke-width:0.8;"/>
     </g>
     <g id="line2d_24">
      <g>
       <use style="stroke:#000000;stroke-width:0.8;" x="57.6" xlink:href="#m4a04a2396f" y="245.22202"/>
      </g>
     </g>
     <g id="text_7">
      <!-- 0.2 -->
      <g transform="translate(25.155 251.30077)scale(0.16 -0.16)">
       <use xlink:href="#DejaVuSans-30"/>
       <use x="63.623047" xlink:href="#DejaVuSans-2e"/>
       <use x="95.410156" xlink:href="#DejaVuSans-32"/>
      </g>
     </g>
    </g>
    <g id="ytick_3">
     <g id="line2d_25">
      <path clip-path="url(#p1cad2e4aec)" d="M 57.6 191.50004 
L 338.688 191.50004 
" style="fill:none;stroke:#b0b0b0;stroke-linecap:square;stroke-width:0.8;"/>
     </g>
     <g id="line2d_26">
      <g>
       <use style="stroke:#000000;stroke-width:0.8;" x="57.6" xlink:href="#m4a04a2396f" y="191.50004"/>
      </g>
     </g>
     <g id="text_8">
      <!-- 0.4 -->
      <g transform="translate(25.155 197.57879)scale(0.16 -0.16)">
       <use xlink:href="#DejaVuSans-30"/>
       <use x="63.623047" xlink:href="#DejaVuSans-2e"/>
       <use x="95.410156" xlink:href="#DejaVuSans-34"/>
      </g>
     </g>
    </g>
    <g id="ytick_4">
     <g id="line2d_27">
      <path clip-path="url(#p1cad2e4aec)" d="M 57.6 137.778059 
L 338.688 137.778059 
" style="fill:none;stroke:#b0b0b0;stroke-linecap:square;stroke-width:0.8;"/>
     </g>
     <g id="line2d_28">
      <g>
       <use style="stroke:#000000;stroke-width:0.8;" x="57.6" xlink:href="#m4a04a2396f" y="137.778059"/>
      </g>
     </g>
     <g id="text_9">
      <!-- 0.6 -->
      <g transform="translate(25.155 143.856809)scale(0.16 -0.16)">
       <use xlink:href="#DejaVuSans-30"/>
       <use x="63.623047" xlink:href="#DejaVuSans-2e"/>
       <use x="95.410156" xlink:href="#DejaVuSans-36"/>
      </g>
     </g>
    </g>
    <g id="ytick_5">
     <g id="line2d_29">
      <path clip-path="url(#p1cad2e4aec)" d="M 57.6 84.056079 
L 338.688 84.056079 
" style="fill:none;stroke:#b0b0b0;stroke-linecap:square;stroke-width:0.8;"/>
     </g>
     <g id="line2d_30">
      <g>
       <use style="stroke:#000000;stroke-width:0.8;" x="57.6" xlink:href="#m4a04a2396f" y="84.056079"/>
      </g>
     </g>
     <g id="text_10">
      <!-- 0.8 -->
      <g transform="translate(25.155 90.134829)scale(0.16 -0.16)">
       <defs>
        <path d="M 2034 2216 
Q 1584 2216 1326 1975 
Q 1069 1734 1069 1313 
Q 1069 891 1326 650 
Q 1584 409 2034 409 
Q 2484 409 2743 651 
Q 3003 894 3003 1313 
Q 3003 1734 2745 1975 
Q 2488 2216 2034 2216 
z
M 1403 2484 
Q 997 2584 770 2862 
Q 544 3141 544 3541 
Q 544 4100 942 4425 
Q 1341 4750 2034 4750 
Q 2731 4750 3128 4425 
Q 3525 4100 3525 3541 
Q 3525 3141 3298 2862 
Q 3072 2584 2669 2484 
Q 3125 2378 3379 2068 
Q 3634 1759 3634 1313 
Q 3634 634 3220 271 
Q 2806 -91 2034 -91 
Q 1263 -91 848 271 
Q 434 634 434 1313 
Q 434 1759 690 2068 
Q 947 2378 1403 2484 
z
M 1172 3481 
Q 1172 3119 1398 2916 
Q 1625 2713 2034 2713 
Q 2441 2713 2670 2916 
Q 2900 3119 2900 3481 
Q 2900 3844 2670 4047 
Q 2441 4250 2034 4250 
Q 1625 4250 1398 4047 
Q 1172 3844 1172 3481 
z
" id="DejaVuSans-38" transform="scale(0.015625)"/>
       </defs>
       <use xlink:href="#DejaVuSans-30"/>
       <use x="63.623047" xlink:href="#DejaVuSans-2e"/>
       <use x="95.410156" xlink:href="#DejaVuSans-38"/>
      </g>
     </g>
    </g>
    <g id="ytick_6">
     <g id="line2d_31">
      <path clip-path="url(#p1cad2e4aec)" d="M 57.6 30.334099 
L 338.688 30.334099 
" style="fill:none;stroke:#b0b0b0;stroke-linecap:square;stroke-width:0.8;"/>
     </g>
     <g id="line2d_32">
      <g>
       <use style="stroke:#000000;stroke-width:0.8;" x="57.6" xlink:href="#m4a04a2396f" y="30.334099"/>
      </g>
     </g>
     <g id="text_11">
      <!-- 1.0 -->
      <g transform="translate(25.155 36.412849)scale(0.16 -0.16)">
       <use xlink:href="#DejaVuSans-31"/>
       <use x="63.623047" xlink:href="#DejaVuSans-2e"/>
       <use x="95.410156" xlink:href="#DejaVuSans-30"/>
      </g>
     </g>
    </g>
    <g id="text_12">
     <!-- Fraction of function,target pairs -->
     <g transform="translate(17.619531 297.681)rotate(-90)scale(0.17 -0.17)">
      <defs>
       <path d="M 628 4666 
L 3309 4666 
L 3309 4134 
L 1259 4134 
L 1259 2759 
L 3109 2759 
L 3109 2228 
L 1259 2228 
L 1259 0 
L 628 0 
L 628 4666 
z
" id="DejaVuSans-46" transform="scale(0.015625)"/>
       <path d="M 2631 2963 
Q 2534 3019 2420 3045 
Q 2306 3072 2169 3072 
Q 1681 3072 1420 2755 
Q 1159 2438 1159 1844 
L 1159 0 
L 581 0 
L 581 3500 
L 1159 3500 
L 1159 2956 
Q 1341 3275 1631 3429 
Q 1922 3584 2338 3584 
Q 2397 3584 2469 3576 
Q 2541 3569 2628 3553 
L 2631 2963 
z
" id="DejaVuSans-72" transform="scale(0.015625)"/>
       <path d="M 3122 3366 
L 3122 2828 
Q 2878 2963 2633 3030 
Q 2388 3097 2138 3097 
Q 1578 3097 1268 2742 
Q 959 2388 959 1747 
Q 959 1106 1268 751 
Q 1578 397 2138 397 
Q 2388 397 2633 464 
Q 2878 531 3122 666 
L 3122 134 
Q 2881 22 2623 -34 
Q 2366 -91 2075 -91 
Q 1284 -91 818 406 
Q 353 903 353 1747 
Q 353 2603 823 3093 
Q 1294 3584 2113 3584 
Q 2378 3584 2631 3529 
Q 2884 3475 3122 3366 
z
" id="DejaVuSans-63" transform="scale(0.015625)"/>
       <path d="M 1172 4494 
L 1172 3500 
L 2356 3500 
L 2356 3053 
L 1172 3053 
L 1172 1153 
Q 1172 725 1289 603 
Q 1406 481 1766 481 
L 2356 481 
L 2356 0 
L 1766 0 
Q 1100 0 847 248 
Q 594 497 594 1153 
L 594 3053 
L 172 3053 
L 172 3500 
L 594 3500 
L 594 4494 
L 1172 4494 
z
" id="DejaVuSans-74" transform="scale(0.015625)"/>
       <path d="M 544 1381 
L 544 3500 
L 1119 3500 
L 1119 1403 
Q 1119 906 1312 657 
Q 1506 409 1894 409 
Q 2359 409 2629 706 
Q 2900 1003 2900 1516 
L 2900 3500 
L 3475 3500 
L 3475 0 
L 2900 0 
L 2900 538 
Q 2691 219 2414 64 
Q 2138 -91 1772 -91 
Q 1169 -91 856 284 
Q 544 659 544 1381 
z
M 1991 3584 
L 1991 3584 
z
" id="DejaVuSans-75" transform="scale(0.015625)"/>
       <path d="M 750 794 
L 1409 794 
L 1409 256 
L 897 -744 
L 494 -744 
L 750 256 
L 750 794 
z
" id="DejaVuSans-2c" transform="scale(0.015625)"/>
       <path d="M 1159 525 
L 1159 -1331 
L 581 -1331 
L 581 3500 
L 1159 3500 
L 1159 2969 
Q 1341 3281 1617 3432 
Q 1894 3584 2278 3584 
Q 2916 3584 3314 3078 
Q 3713 2572 3713 1747 
Q 3713 922 3314 415 
Q 2916 -91 2278 -91 
Q 1894 -91 1617 61 
Q 1341 213 1159 525 
z
M 3116 1747 
Q 3116 2381 2855 2742 
Q 2594 3103 2138 3103 
Q 1681 3103 1420 2742 
Q 1159 2381 1159 1747 
Q 1159 1113 1420 752 
Q 1681 391 2138 391 
Q 2594 391 2855 752 
Q 3116 1113 3116 1747 
z
" id="DejaVuSans-70" transform="scale(0.015625)"/>
      </defs>
      <use xlink:href="#DejaVuSans-46"/>
      <use x="50.269531" xlink:href="#DejaVuSans-72"/>
      <use x="91.382812" xlink:href="#DejaVuSans-61"/>
      <use x="152.662109" xlink:href="#DejaVuSans-63"/>
      <use x="207.642578" xlink:href="#DejaVuSans-74"/>
      <use x="246.851562" xlink:href="#DejaVuSans-69"/>
      <use x="274.634766" xlink:href="#DejaVuSans-6f"/>
      <use x="335.816406" xlink:href="#DejaVuSans-6e"/>
      <use x="399.195312" xlink:href="#DejaVuSans-20"/>
      <use x="430.982422" xlink:href="#DejaVuSans-6f"/>
      <use x="492.164062" xlink:href="#DejaVuSans-66"/>
      <use x="527.369141" xlink:href="#DejaVuSans-20"/>
      <use x="559.15625" xlink:href="#DejaVuSans-66"/>
      <use x="594.361328" xlink:href="#DejaVuSans-75"/>
      <use x="657.740234" xlink:href="#DejaVuSans-6e"/>
      <use x="721.119141" xlink:href="#DejaVuSans-63"/>
      <use x="776.099609" xlink:href="#DejaVuSans-74"/>
      <use x="815.308594" xlink:href="#DejaVuSans-69"/>
      <use x="843.091797" xlink:href="#DejaVuSans-6f"/>
      <use x="904.273438" xlink:href="#DejaVuSans-6e"/>
      <use x="967.652344" xlink:href="#DejaVuSans-2c"/>
      <use x="999.439453" xlink:href="#DejaVuSans-74"/>
      <use x="1038.648438" xlink:href="#DejaVuSans-61"/>
      <use x="1099.927734" xlink:href="#DejaVuSans-72"/>
      <use x="1139.291016" xlink:href="#DejaVuSans-67"/>
      <use x="1202.767578" xlink:href="#DejaVuSans-65"/>
      <use x="1264.291016" xlink:href="#DejaVuSans-74"/>
      <use x="1303.5" xlink:href="#DejaVuSans-20"/>
      <use x="1335.287109" xlink:href="#DejaVuSans-70"/>
      <use x="1398.763672" xlink:href="#DejaVuSans-61"/>
      <use x="1460.042969" xlink:href="#DejaVuSans-69"/>
      <use x="1487.826172" xlink:href="#DejaVuSans-72"/>
      <use x="1528.939453" xlink:href="#DejaVuSans-73"/>
     </g>
    </g>
   </g>
   <g id="line2d_33">
    <defs>
     <path d="M 0 1.5 
C 0.397805 1.5 0.77937 1.341951 1.06066 1.06066 
C 1.341951 0.77937 1.5 0.397805 1.5 0 
C 1.5 -0.397805 1.341951 -0.77937 1.06066 -1.06066 
C 0.77937 -1.341951 0.397805 -1.5 0 -1.5 
C -0.397805 -1.5 -0.77937 -1.341951 -1.06066 -1.06066 
C -1.341951 -0.77937 -1.5 -0.397805 -1.5 0 
C -1.5 0.397805 -1.341951 0.77937 -1.06066 1.06066 
C -0.77937 1.341951 -0.397805 1.5 0 1.5 
z
" id="mce939b587c" style="stroke:#f5deb3;"/>
    </defs>
    <g>
     <use style="fill:#f5deb3;stroke:#f5deb3;" x="256.53172" xlink:href="#mce939b587c" y="62.752535"/>
     <use style="fill:#f5deb3;stroke:#f5deb3;" x="256.53172" xlink:href="#mce939b587c" y="62.752535"/>
    </g>
   </g>
   <g id="line2d_34">
    <defs>
     <path d="M 0 1.5 
C 0.397805 1.5 0.77937 1.341951 1.06066 1.06066 
C 1.341951 0.77937 1.5 0.397805 1.5 0 
C 1.5 -0.397805 1.341951 -0.77937 1.06066 -1.06066 
C 0.77937 -1.341951 0.397805 -1.5 0 -1.5 
C -0.397805 -1.5 -0.77937 -1.341951 -1.06066 -1.06066 
C -1.341951 -0.77937 -1.5 -0.397805 -1.5 0 
C -1.5 0.397805 -1.341951 0.77937 -1.06066 1.06066 
C -0.77937 1.341951 -0.397805 1.5 0 1.5 
z
" id="ma9a7d21e90" style="stroke:#000080;"/>
    </defs>
    <g>
     <use style="fill:#000080;stroke:#000080;" x="234.087324" xlink:href="#ma9a7d21e90" y="109.990828"/>
     <use style="fill:#000080;stroke:#000080;" x="234.087324" xlink:href="#ma9a7d21e90" y="109.990828"/>
    </g>
   </g>
   <g id="line2d_35">
    <path d="M 38.440992 298.944 
L 38.440992 286.902867 
L 66.508432 286.902867 
L 66.508432 285.513505 
L 69.687988 285.513505 
L 69.687988 283.661023 
L 74.704957 283.661023 
L 74.704957 283.197902 
L 76.759008 283.197902 
L 76.759008 282.734782 
L 78.59642 282.734782 
L 78.59642 282.271661 
L 80.258561 282.271661 
L 80.258561 280.419179 
L 81.775977 280.419179 
L 81.775977 279.492938 
L 86.792945 279.492938 
L 86.792945 277.177336 
L 87.850195 277.177336 
L 87.850195 276.251095 
L 88.846997 276.251095 
L 88.846997 274.861733 
L 89.78989 274.861733 
L 89.78989 274.398612 
L 90.684409 274.398612 
L 90.684409 273.472371 
L 91.535274 273.472371 
L 91.535274 272.54613 
L 92.34655 272.54613 
L 92.34655 270.693648 
L 93.121756 270.693648 
L 93.121756 269.767407 
L 93.863965 269.767407 
L 93.863965 269.304287 
L 94.575872 269.304287 
L 94.575872 267.914925 
L 95.259853 267.914925 
L 95.259853 266.988684 
L 95.918017 266.988684 
L 95.918017 265.599323 
L 97.16421 265.599323 
L 97.16421 265.136202 
L 98.32726 265.136202 
L 98.32726 264.673082 
L 98.880934 264.673082 
L 98.880934 264.209961 
L 99.41757 264.209961 
L 99.41757 263.746841 
L 99.938184 263.746841 
L 99.938184 263.28372 
L 100.934985 263.28372 
L 100.934985 262.357479 
L 101.412804 262.357479 
L 101.412804 261.894358 
L 101.877879 261.894358 
L 101.877879 261.431238 
L 102.772397 261.431238 
L 102.772397 259.578756 
L 103.203018 259.578756 
L 103.203018 258.189394 
L 104.033617 258.189394 
L 104.033617 257.726274 
L 104.434538 257.726274 
L 104.434538 256.800033 
L 105.209745 256.800033 
L 105.209745 255.873792 
L 105.584798 255.873792 
L 105.584798 254.947551 
L 105.951954 254.947551 
L 105.951954 253.558189 
L 107.009204 253.558189 
L 107.009204 253.095069 
L 107.347841 253.095069 
L 107.347841 252.631948 
L 107.680028 252.631948 
L 107.680028 251.705707 
L 108.640231 251.705707 
L 108.640231 251.242587 
L 109.550313 251.242587 
L 109.550313 250.779466 
L 109.843417 250.779466 
L 109.843417 249.390104 
L 110.131676 249.390104 
L 110.131676 248.926984 
L 110.694282 248.926984 
L 110.694282 248.000743 
L 111.767808 248.000743 
L 111.767808 247.074502 
L 113.965867 247.074502 
L 113.965867 246.611381 
L 115.291007 246.611381 
L 115.291007 246.148261 
L 117.486268 246.148261 
L 117.486268 244.758899 
L 118.039942 244.758899 
L 118.039942 244.295779 
L 118.399528 244.295779 
L 118.399528 243.369538 
L 119.267333 243.369538 
L 119.267333 242.443297 
L 120.41399 242.443297 
L 120.41399 241.980176 
L 121.340187 241.980176 
L 121.340187 241.517056 
L 122.076131 241.517056 
L 122.076131 240.590815 
L 123.725164 240.590815 
L 123.725164 240.127694 
L 124.619683 240.127694 
L 124.619683 239.664574 
L 124.743806 239.664574 
L 124.743806 237.812091 
L 124.867052 237.812091 
L 124.867052 237.348971 
L 125.110962 237.348971 
L 125.110962 236.88585 
L 125.822869 236.88585 
L 125.822869 236.42273 
L 125.938745 236.42273 
L 125.938745 235.496489 
L 126.168212 235.496489 
L 126.168212 235.033368 
L 126.281824 235.033368 
L 126.281824 234.570248 
L 126.3947 234.570248 
L 126.3947 233.644007 
L 126.948374 233.644007 
L 126.948374 232.717766 
L 127.165014 232.717766 
L 127.165014 231.791525 
L 129.480244 231.791525 
L 129.480244 230.865284 
L 129.945319 230.865284 
L 129.945319 229.012802 
L 130.218525 229.012802 
L 130.30865 227.62344 
L 130.487516 227.62344 
L 130.487516 227.16032 
L 130.664567 227.16032 
L 130.664567 226.697199 
L 131.938072 226.697199 
L 131.938072 225.770958 
L 132.501978 225.770958 
L 132.501978 224.844717 
L 132.659801 224.844717 
L 132.659801 223.918476 
L 134.450015 223.918476 
L 134.450015 222.992235 
L 135.00812 222.992235 
L 135.00812 222.065994 
L 135.212889 222.065994 
L 135.212889 221.139753 
L 135.348078 221.139753 
L 135.348078 220.676632 
L 135.747468 220.676632 
L 135.747468 219.750391 
L 136.707671 219.750391 
L 136.707671 218.82415 
L 137.499118 218.82415 
L 137.499118 217.897909 
L 137.910857 217.897909 
L 137.910857 216.971668 
L 138.256201 216.971668 
L 138.256201 216.508548 
L 138.927025 216.508548 
L 138.927025 215.582307 
L 139.413734 215.582307 
L 139.413734 215.119186 
L 140.944478 215.119186 
L 140.944478 214.656066 
L 141.090414 214.656066 
L 141.090414 213.729825 
L 141.33096 213.729825 
L 141.33096 212.803583 
L 142.664255 212.803583 
L 142.664255 211.877342 
L 144.589967 211.877342 
L 144.629556 210.487981 
L 144.826168 210.487981 
L 144.826168 209.56174 
L 145.097753 209.56174 
L 145.097753 208.635499 
L 145.516164 208.635499 
L 145.591172 207.246137 
L 145.924771 207.246137 
L 145.924771 206.783017 
L 146.749392 206.783017 
L 146.749392 206.319896 
L 147.027314 206.319896 
L 147.027314 205.393655 
L 147.50327 205.393655 
L 147.50327 204.930535 
L 147.802521 204.930535 
L 147.802521 204.467414 
L 148.417899 204.467414 
L 148.417899 203.541173 
L 148.857832 203.541173 
L 148.857832 203.078053 
L 149.165411 203.078053 
L 149.165411 202.614932 
L 149.882194 202.614932 
L 149.940618 201.688691 
L 150.114722 201.688691 
L 150.143571 200.299329 
L 150.229833 200.299329 
L 150.229833 199.836209 
L 151.923236 199.836209 
L 151.923236 199.373088 
L 152.283884 199.373088 
L 152.283884 198.909968 
L 152.410901 198.909968 
L 152.410901 198.446847 
L 153.323128 198.446847 
L 153.323128 197.520606 
L 153.890309 197.520606 
L 153.890309 197.057486 
L 154.098334 197.057486 
L 154.098334 196.131245 
L 155.488919 196.131245 
L 155.488919 195.668124 
L 155.887428 195.668124 
L 155.887428 195.205004 
L 156.277034 195.205004 
L 156.378132 193.815642 
L 157.415209 193.815642 
L 157.415209 192.889401 
L 157.697862 192.889401 
L 157.697862 192.426281 
L 157.920731 192.426281 
L 157.920731 191.50004 
L 158.501489 191.50004 
L 158.501489 191.036919 
L 159.641491 191.036919 
L 159.641491 190.110678 
L 159.774744 190.110678 
L 159.774744 189.184437 
L 160.537682 189.184437 
L 160.537682 188.258196 
L 160.69579 188.258196 
L 160.69579 187.331955 
L 161.131018 187.331955 
L 161.131018 186.868834 
L 161.600536 186.868834 
L 161.600536 186.405714 
L 162.014019 186.405714 
L 162.072295 185.479473 
L 162.20271 185.479473 
L 162.20271 184.553232 
L 162.71483 184.553232 
L 162.71483 184.090111 
L 163.549667 184.090111 
L 163.549667 183.626991 
L 163.696049 183.626991 
L 163.696049 183.16387 
L 164.282408 183.16387 
L 164.282408 182.70075 
L 164.66264 182.70075 
L 164.66264 182.237629 
L 164.775111 182.237629 
L 164.775111 181.774509 
L 166.186323 181.774509 
L 166.186323 181.311388 
L 166.7626 181.311388 
L 166.7626 180.385147 
L 167.651004 180.385147 
L 167.651004 179.458906 
L 168.894283 179.458906 
L 168.982583 177.606424 
L 169.767149 177.606424 
L 169.767149 177.143304 
L 171.056197 177.143304 
L 171.056197 176.680183 
L 171.391826 176.680183 
L 171.391826 176.217062 
L 171.887604 176.217062 
L 171.887604 175.753942 
L 172.554051 175.753942 
L 172.554051 175.290821 
L 172.665332 175.290821 
L 172.728604 173.90146 
L 172.807372 173.90146 
L 172.877961 172.512098 
L 173.763084 172.512098 
L 173.763084 172.048978 
L 173.874327 172.048978 
L 173.874327 171.585857 
L 174.189349 171.585857 
L 174.189349 171.122737 
L 174.377103 171.122737 
L 174.377103 170.659616 
L 175.510238 170.659616 
L 175.510238 169.733375 
L 175.922628 169.733375 
L 175.9292 168.344014 
L 176.066647 168.344014 
L 176.066647 167.880893 
L 176.875552 167.880893 
L 176.968661 166.954652 
L 177.348323 166.954652 
L 177.348323 166.028411 
L 177.961335 166.028411 
L 177.961335 165.565291 
L 178.643741 165.565291 
L 178.716697 163.712808 
L 178.806073 163.712808 
L 178.806073 163.249688 
L 179.643667 163.249688 
L 179.643667 162.323447 
L 179.860045 162.323447 
L 179.860045 161.860326 
L 180.320702 161.860326 
L 180.330916 160.934085 
L 180.447941 160.934085 
L 180.447941 160.470965 
L 180.609464 160.470965 
L 180.609464 160.007844 
L 180.754563 160.007844 
L 180.754563 159.544724 
L 181.274884 159.544724 
L 181.303877 158.155362 
L 181.66228 158.155362 
L 181.66228 157.229121 
L 181.920505 157.229121 
L 181.925165 156.30288 
L 182.556562 156.30288 
L 182.556562 155.376639 
L 182.686389 155.376639 
L 182.686389 154.913519 
L 183.700032 154.913519 
L 183.700032 154.450398 
L 184.177395 154.450398 
L 184.177395 153.987278 
L 184.368791 153.987278 
L 184.368791 153.524157 
L 184.852082 153.524157 
L 184.852082 153.061037 
L 185.53576 153.061037 
L 185.618894 152.134795 
L 185.656552 152.134795 
L 185.656552 151.671675 
L 185.977095 151.671675 
L 185.977095 151.208554 
L 186.834642 151.208554 
L 186.834642 150.282313 
L 188.435946 150.282313 
L 188.435946 149.819193 
L 188.662206 149.819193 
L 188.662206 149.356072 
L 189.226069 149.356072 
L 189.226069 148.892952 
L 190.473953 148.892952 
L 190.525245 147.04047 
L 192.13324 147.04047 
L 192.13324 146.577349 
L 192.589094 146.577349 
L 192.589094 146.114229 
L 192.855003 146.114229 
L 192.855003 145.651108 
L 192.976567 145.651108 
L 192.976567 145.187988 
L 193.138977 145.187988 
L 193.138977 144.724867 
L 193.619708 144.724867 
L 193.619708 143.798626 
L 194.956292 143.798626 
L 194.956292 143.335506 
L 195.245203 143.335506 
L 195.245203 142.409265 
L 195.59761 142.409265 
L 195.59761 141.946144 
L 196.577859 141.946144 
L 196.640088 140.093662 
L 196.813555 140.093662 
L 196.918391 139.167421 
L 197.343095 139.167421 
L 197.343095 138.24118 
L 198.412455 138.24118 
L 198.412455 137.778059 
L 199.576497 137.778059 
L 199.576497 137.314939 
L 199.898617 137.314939 
L 199.898617 136.851818 
L 200.131441 136.851818 
L 200.131441 136.388698 
L 200.67563 136.388698 
L 200.702637 134.999336 
L 200.837048 134.999336 
L 200.837048 134.536216 
L 201.067082 134.536216 
L 201.067082 134.073095 
L 201.881042 134.073095 
L 201.909209 132.220613 
L 203.008495 132.220613 
L 203.008495 131.757493 
L 203.876637 131.757493 
L 203.876637 131.294372 
L 204.130175 131.294372 
L 204.130175 130.831252 
L 205.174225 130.831252 
L 205.174225 129.905011 
L 205.35022 129.905011 
L 205.35022 128.97877 
L 206.087159 128.97877 
L 206.087159 128.515649 
L 207.310384 128.515649 
L 207.310384 127.589408 
L 207.973579 127.589408 
L 207.973579 127.126287 
L 209.256999 127.126287 
L 209.256999 126.663167 
L 209.585334 126.663167 
L 209.585334 126.200046 
L 209.921642 126.200046 
L 209.921642 125.736926 
L 210.747583 125.736926 
L 210.757397 124.347564 
L 210.98687 124.347564 
L 210.98687 123.884444 
L 212.056283 123.884444 
L 212.056283 123.421323 
L 213.447967 123.421323 
L 213.54705 122.495082 
L 215.775034 122.495082 
L 215.775034 122.031962 
L 216.148906 122.031962 
L 216.148906 121.105721 
L 217.006067 121.105721 
L 217.006067 120.6426 
L 221.04549 120.6426 
L 221.04549 119.716359 
L 222.320284 119.716359 
L 222.320284 118.790118 
L 222.794028 118.790118 
L 222.794028 117.863877 
L 223.625438 117.863877 
L 223.625438 117.400757 
L 225.366984 117.400757 
L 225.366984 116.937636 
L 226.981278 116.937636 
L 226.981278 116.474516 
L 227.278791 116.474516 
L 227.278791 115.548274 
L 228.220847 115.548274 
L 228.220847 114.622033 
L 228.34198 114.622033 
L 228.34198 113.695792 
L 230.26809 113.695792 
L 230.26809 113.232672 
L 230.784787 113.232672 
L 230.784787 112.306431 
L 232.055142 112.306431 
L 232.055142 111.84331 
L 233.062386 111.84331 
L 233.062386 110.917069 
L 234.087324 110.917069 
L 234.087324 109.990828 
L 338.688 109.990828 
L 338.688 109.990828 
" style="fill:none;stroke:#000080;stroke-linecap:square;stroke-width:1.5;"/>
   </g>
   <g id="line2d_36">
    <defs>
     <path d="M 0 6 
C 1.591219 6 3.117479 5.367802 4.242641 4.242641 
C 5.367802 3.117479 6 1.591219 6 0 
C 6 -1.591219 5.367802 -3.117479 4.242641 -4.242641 
C 3.117479 -5.367802 1.591219 -6 0 -6 
C -1.591219 -6 -3.117479 -5.367802 -4.242641 -4.242641 
C -5.367802 -3.117479 -6 -1.591219 -6 0 
C -6 1.591219 -5.367802 3.117479 -4.242641 4.242641 
C -3.117479 5.367802 -1.591219 6 0 6 
z
" id="m2cb509965b" style="stroke:#000080;stroke-width:1.5;"/>
    </defs>
    <g>
     <use style="fill-opacity:0;stroke:#000080;stroke-width:1.5;" x="91.535274" xlink:href="#m2cb509965b" y="273.472371"/>
     <use style="fill-opacity:0;stroke:#000080;stroke-width:1.5;" x="144.826168" xlink:href="#m2cb509965b" y="210.487981"/>
     <use style="fill-opacity:0;stroke:#000080;stroke-width:1.5;" x="192.589094" xlink:href="#m2cb509965b" y="146.577349"/>
     <use style="fill-opacity:0;stroke:#000080;stroke-width:1.5;" x="234.087324" xlink:href="#m2cb509965b" y="110.917069"/>
     <use style="fill-opacity:0;stroke:#000080;stroke-width:1.5;" x="234.087324" xlink:href="#m2cb509965b" y="109.990828"/>
     <use style="fill-opacity:0;stroke:#000080;stroke-width:1.5;" x="338.688" xlink:href="#m2cb509965b" y="109.990828"/>
    </g>
   </g>
   <g id="line2d_37">
    <path style="fill:none;stroke:#000080;stroke-linecap:square;stroke-width:1.5;"/>
    <g/>
   </g>
   <g id="line2d_38">
    <path clip-path="url(#p1cad2e4aec)" d="M 234.201631 109.990828 
" style="fill:none;stroke:#000080;stroke-linecap:square;stroke-width:1.5;"/>
    <defs>
     <path d="M -12 12 
L 12 -12 
M -12 -12 
L 12 12 
" id="m2fa4d76379" style="stroke:#000080;"/>
    </defs>
    <g clip-path="url(#p1cad2e4aec)">
     <use style="fill:#000080;stroke:#000080;" x="234.201631" xlink:href="#m2fa4d76379" y="109.990828"/>
    </g>
   </g>
   <g id="line2d_39">
    <defs>
     <path d="M 0 1.5 
C 0.397805 1.5 0.77937 1.341951 1.06066 1.06066 
C 1.341951 0.77937 1.5 0.397805 1.5 0 
C 1.5 -0.397805 1.341951 -0.77937 1.06066 -1.06066 
C 0.77937 -1.341951 0.397805 -1.5 0 -1.5 
C -0.397805 -1.5 -0.77937 -1.341951 -1.06066 -1.06066 
C -1.341951 -0.77937 -1.5 -0.397805 -1.5 0 
C -1.5 0.397805 -1.341951 0.77937 -1.06066 1.06066 
C -0.77937 1.341951 -0.397805 1.5 0 1.5 
z
" id="mbd8a9431e5" style="stroke:#ff00ff;"/>
    </defs>
    <g>
     <use style="fill:#ff00ff;stroke:#ff00ff;" x="233.264498" xlink:href="#mbd8a9431e5" y="178.069545"/>
     <use style="fill:#ff00ff;stroke:#ff00ff;" x="233.264498" xlink:href="#mbd8a9431e5" y="178.069545"/>
    </g>
   </g>
   <g id="line2d_40">
    <path d="M 66.508432 298.944 
L 66.508432 291.070951 
L 69.687988 291.070951 
L 69.687988 289.68159 
L 83.171864 289.68159 
L 83.171864 286.902867 
L 106.66386 286.902867 
L 106.66386 286.439746 
L 108.006005 286.439746 
L 108.006005 285.976625 
L 110.968922 285.976625 
L 110.968922 285.050384 
L 112.026172 285.050384 
L 112.026172 284.587264 
L 112.280765 284.587264 
L 112.280765 284.124143 
L 113.022974 284.124143 
L 113.022974 283.661023 
L 114.418861 283.661023 
L 114.418861 282.271661 
L 114.860386 282.271661 
L 114.860386 281.808541 
L 115.077025 281.808541 
L 115.077025 281.34542 
L 118.925375 281.34542 
L 118.925375 280.8823 
L 119.097192 280.8823 
L 119.097192 280.419179 
L 119.768017 280.419179 
L 119.768017 279.956059 
L 120.254726 279.956059 
L 120.254726 279.492938 
L 120.41399 279.492938 
L 120.41399 278.103577 
L 121.489881 278.103577 
L 121.489881 277.177336 
L 121.785469 277.177336 
L 121.785469 276.714215 
L 122.219665 276.714215 
L 122.219665 275.787974 
L 123.056911 275.787974 
L 123.056911 273.472371 
L 123.725164 273.472371 
L 123.725164 272.54613 
L 123.855796 272.54613 
L 123.855796 272.08301 
L 123.985457 272.08301 
L 123.985457 271.156769 
L 125.588781 271.156769 
L 125.588781 270.230528 
L 126.839037 270.230528 
L 126.839037 269.767407 
L 127.165014 269.767407 
L 127.165014 268.378046 
L 127.590383 268.378046 
L 127.695124 266.988684 
L 128.107907 266.988684 
L 128.107907 266.525564 
L 128.411207 266.525564 
L 128.411207 264.209961 
L 129.574256 264.209961 
L 129.574256 263.746841 
L 129.853291 263.746841 
L 129.853291 261.894358 
L 130.036864 261.894358 
L 130.127931 260.968117 
L 130.576266 260.968117 
L 130.576266 260.504997 
L 130.926816 260.504997 
L 130.926816 260.041876 
L 132.422528 260.041876 
L 132.422528 259.578756 
L 133.124876 259.578756 
L 133.124876 258.652515 
L 134.091907 258.652515 
L 134.091907 258.189394 
L 134.236034 258.189394 
L 134.236034 257.726274 
L 134.7313 257.726274 
L 134.7313 256.800033 
L 135.00812 256.800033 
L 135.00812 256.336912 
L 135.747468 256.336912 
L 135.747468 255.873792 
L 135.943785 255.873792 
L 135.943785 254.947551 
L 136.32991 254.947551 
L 136.32991 254.48443 
L 136.456742 254.48443 
L 136.519813 253.558189 
L 137.558536 253.558189 
L 137.558536 253.095069 
L 138.313099 253.095069 
L 138.313099 252.168828 
L 139.090775 252.168828 
L 139.090775 250.779466 
L 139.625765 250.779466 
L 139.625765 250.316346 
L 141.283115 250.316346 
L 141.283115 249.853225 
L 141.521035 249.853225 
L 141.521035 248.926984 
L 142.033307 248.926984 
L 142.124852 247.537622 
L 142.306513 247.537622 
L 142.396639 245.68514 
L 143.485587 245.68514 
L 143.485587 244.758899 
L 145.403044 244.758899 
L 145.403044 244.295779 
L 145.740226 244.295779 
L 145.740226 243.369538 
L 146.179895 243.369538 
L 146.179895 242.906417 
L 146.819289 242.906417 
L 146.819289 242.443297 
L 147.402367 242.443297 
L 147.402367 241.980176 
L 148.54473 241.980176 
L 148.54473 241.517056 
L 149.195872 241.517056 
L 149.195872 241.053935 
L 149.347388 241.053935 
L 149.347388 240.127694 
L 151.44831 240.127694 
L 151.44831 239.201453 
L 155.189341 239.201453 
L 155.210911 237.812091 
L 156.236431 237.812091 
L 156.277034 235.033368 
L 156.418408 235.033368 
L 156.418408 234.570248 
L 156.677955 234.570248 
L 156.677955 233.644007 
L 156.953214 233.644007 
L 156.953214 232.717766 
L 158.749613 232.717766 
L 158.749613 231.791525 
L 159.557689 231.791525 
L 159.574482 230.865284 
L 160.821253 230.865284 
L 160.821253 230.402163 
L 161.314269 230.402163 
L 161.314269 229.939043 
L 163.52292 229.939043 
L 163.52292 229.012802 
L 164.243924 229.012802 
L 164.243924 228.086561 
L 164.675172 228.086561 
L 164.675172 227.16032 
L 164.923954 227.16032 
L 164.923954 226.234079 
L 165.338904 226.234079 
L 165.338904 225.307837 
L 165.53081 225.307837 
L 165.53081 224.844717 
L 166.862349 224.844717 
L 166.862349 224.381596 
L 167.212459 224.381596 
L 167.212459 223.455355 
L 168.354881 223.455355 
L 168.354881 222.992235 
L 169.292968 222.992235 
L 169.292968 222.065994 
L 172.003206 222.065994 
L 172.003206 221.602873 
L 173.837325 221.602873 
L 173.837325 221.139753 
L 174.942445 221.139753 
L 174.942445 220.213512 
L 176.209486 220.213512 
L 176.209486 219.287271 
L 176.656344 219.287271 
L 176.656344 218.36103 
L 178.55918 218.36103 
L 178.55918 217.434789 
L 178.988975 217.434789 
L 178.988975 216.508548 
L 179.359921 216.508548 
L 179.359921 215.582307 
L 181.827047 215.582307 
L 181.850459 214.192945 
L 182.735382 214.192945 
L 182.735382 213.266704 
L 183.687402 213.266704 
L 183.687402 212.803583 
L 185.090739 212.803583 
L 185.090739 212.340463 
L 185.854792 212.340463 
L 185.854792 211.414222 
L 186.414741 211.414222 
L 186.414741 210.487981 
L 187.931557 210.487981 
L 187.931557 209.56174 
L 188.926157 209.56174 
L 188.926157 208.635499 
L 190.192018 208.635499 
L 190.192018 208.172378 
L 190.304763 208.172378 
L 190.304763 207.246137 
L 190.661291 207.246137 
L 190.661291 206.319896 
L 191.317886 206.319896 
L 191.317886 205.393655 
L 193.548079 205.393655 
L 193.548079 204.467414 
L 195.331815 204.467414 
L 195.331815 204.004294 
L 197.400739 204.004294 
L 197.400739 203.541173 
L 197.697456 203.541173 
L 197.697456 203.078053 
L 198.547692 203.078053 
L 198.547692 202.614932 
L 200.576779 202.614932 
L 200.576779 201.688691 
L 202.003756 201.688691 
L 202.003756 201.225571 
L 202.167988 201.225571 
L 202.167988 200.76245 
L 203.457458 200.76245 
L 203.457458 200.299329 
L 203.911008 200.299329 
L 203.911008 199.836209 
L 204.210846 199.836209 
L 204.210846 199.373088 
L 204.790464 199.373088 
L 204.790464 198.909968 
L 206.697679 198.909968 
L 206.697679 197.983727 
L 207.026616 197.983727 
L 207.026616 197.520606 
L 207.991355 197.520606 
L 207.991355 197.057486 
L 208.758108 197.057486 
L 208.758108 196.594365 
L 209.903855 196.594365 
L 210.007508 195.668124 
L 210.303839 195.668124 
L 210.303839 195.205004 
L 212.015671 195.205004 
L 212.015671 194.741883 
L 213.238816 194.741883 
L 213.238816 193.815642 
L 214.311348 193.815642 
L 214.311348 192.889401 
L 214.607071 192.889401 
L 214.607071 191.96316 
L 216.240971 191.96316 
L 216.240971 191.036919 
L 217.239473 191.036919 
L 217.239473 190.110678 
L 217.35471 190.110678 
L 217.35471 189.647558 
L 217.850402 189.647558 
L 217.850402 189.184437 
L 218.427442 189.184437 
L 218.427442 188.721316 
L 218.658573 188.721316 
L 218.658573 188.258196 
L 219.550937 188.258196 
L 219.550937 187.795075 
L 220.773934 187.795075 
L 220.773934 186.868834 
L 221.766076 186.868834 
L 221.766076 186.405714 
L 222.273346 186.405714 
L 222.273346 185.942593 
L 224.392096 185.942593 
L 224.392096 185.016352 
L 224.891705 185.016352 
L 224.891705 184.553232 
L 226.584211 184.553232 
L 226.584211 184.090111 
L 226.732924 184.090111 
L 226.732924 183.626991 
L 227.673037 183.626991 
L 227.673037 182.70075 
L 228.066172 182.70075 
L 228.066172 182.237629 
L 230.224624 182.237629 
L 230.24214 180.848268 
L 231.803511 180.848268 
L 231.847477 179.458906 
L 232.139614 179.458906 
L 232.139614 178.995786 
L 233.226426 178.995786 
L 233.264498 178.069545 
L 338.688 178.069545 
L 338.688 178.069545 
" style="fill:none;stroke:#ff00ff;stroke-linecap:square;stroke-width:1.5;"/>
   </g>
   <g id="line2d_41">
    <defs>
     <path d="M 0 8.485281 
L 5.091169 0 
L 0 -8.485281 
L -5.091169 0 
z
" id="m027a43eedb" style="stroke:#ff00ff;stroke-linejoin:miter;stroke-width:1.5;"/>
    </defs>
    <g>
     <use style="fill-opacity:0;stroke:#ff00ff;stroke-linejoin:miter;stroke-width:1.5;" x="115.077025" xlink:href="#m027a43eedb" y="281.34542"/>
     <use style="fill-opacity:0;stroke:#ff00ff;stroke-linejoin:miter;stroke-width:1.5;" x="188.926157" xlink:href="#m027a43eedb" y="209.56174"/>
     <use style="fill-opacity:0;stroke:#ff00ff;stroke-linejoin:miter;stroke-width:1.5;" x="233.264498" xlink:href="#m027a43eedb" y="178.532665"/>
     <use style="fill-opacity:0;stroke:#ff00ff;stroke-linejoin:miter;stroke-width:1.5;" x="233.264498" xlink:href="#m027a43eedb" y="178.069545"/>
     <use style="fill-opacity:0;stroke:#ff00ff;stroke-linejoin:miter;stroke-width:1.5;" x="338.688" xlink:href="#m027a43eedb" y="178.069545"/>
    </g>
   </g>
   <g id="line2d_42">
    <path style="fill:none;stroke:#ff00ff;stroke-linecap:square;stroke-width:1.5;"/>
    <g/>
   </g>
   <g id="line2d_43">
    <path clip-path="url(#p1cad2e4aec)" d="M 234.201863 178.069545 
" style="fill:none;stroke:#ff00ff;stroke-linecap:square;stroke-width:1.5;"/>
    <defs>
     <path d="M -12 12 
L 12 -12 
M -12 -12 
L 12 12 
" id="mb12be30614" style="stroke:#ff00ff;"/>
    </defs>
    <g clip-path="url(#p1cad2e4aec)">
     <use style="fill:#ff00ff;stroke:#ff00ff;" x="234.201863" xlink:href="#mb12be30614" y="178.069545"/>
    </g>
   </g>
   <g id="line2d_44">
    <path d="M 338.688 178.069545 
L 369.60768 293.571802 
" style="fill:none;stroke:#ff00ff;stroke-linecap:square;stroke-width:1.5;"/>
    <g>
     <use style="fill-opacity:0;stroke:#ff00ff;stroke-linejoin:miter;stroke-width:1.5;" x="338.688" xlink:href="#m027a43eedb" y="178.069545"/>
     <use style="fill-opacity:0;stroke:#ff00ff;stroke-linejoin:miter;stroke-width:1.5;" x="369.60768" xlink:href="#m027a43eedb" y="293.571802"/>
    </g>
   </g>
   <g id="line2d_45">
    <path d="M 338.688 109.990828 
L 369.60768 164.63905 
" style="fill:none;stroke:#000080;stroke-linecap:square;stroke-width:1.5;"/>
    <g>
     <use style="fill-opacity:0;stroke:#000080;stroke-width:1.5;" x="338.688" xlink:href="#m2cb509965b" y="109.990828"/>
     <use style="fill-opacity:0;stroke:#000080;stroke-width:1.5;" x="369.60768" xlink:href="#m2cb509965b" y="164.63905"/>
    </g>
   </g>
   <g id="line2d_46">
    <path d="M 338.688 298.944 
L 338.688 30.334099 
" style="fill:none;stroke:#000000;stroke-linecap:square;stroke-width:1.5;"/>
   </g>
   <g id="patch_3">
    <path d="M 57.6 298.944 
L 57.6 27.648 
" style="fill:none;stroke:#000000;stroke-linecap:square;stroke-linejoin:miter;stroke-width:0.8;"/>
   </g>
   <g id="patch_4">
    <path d="M 338.688 298.944 
L 338.688 27.648 
" style="fill:none;stroke:#000000;stroke-linecap:square;stroke-linejoin:miter;stroke-width:0.8;"/>
   </g>
   <g id="patch_5">
    <path d="M 57.6 298.944 
L 338.688 298.944 
" style="fill:none;stroke:#000000;stroke-linecap:square;stroke-linejoin:miter;stroke-width:0.8;"/>
   </g>
   <g id="patch_6">
    <path d="M 57.6 27.648 
L 338.688 27.648 
" style="fill:none;stroke:#000000;stroke-linecap:square;stroke-linejoin:miter;stroke-width:0.8;"/>
   </g>
   <g id="text_13">
    <!-- MultiGLOD -->
    <g transform="translate(375.22944 298.262739)scale(0.17 -0.17)">
     <defs>
      <path d="M 628 4666 
L 1569 4666 
L 2759 1491 
L 3956 4666 
L 4897 4666 
L 4897 0 
L 4281 0 
L 4281 4097 
L 3078 897 
L 2444 897 
L 1241 4097 
L 1241 0 
L 628 0 
L 628 4666 
z
" id="DejaVuSans-4d" transform="scale(0.015625)"/>
      <path d="M 3809 666 
L 3809 1919 
L 2778 1919 
L 2778 2438 
L 4434 2438 
L 4434 434 
Q 4069 175 3628 42 
Q 3188 -91 2688 -91 
Q 1594 -91 976 548 
Q 359 1188 359 2328 
Q 359 3472 976 4111 
Q 1594 4750 2688 4750 
Q 3144 4750 3555 4637 
Q 3966 4525 4313 4306 
L 4313 3634 
Q 3963 3931 3569 4081 
Q 3175 4231 2741 4231 
Q 1884 4231 1454 3753 
Q 1025 3275 1025 2328 
Q 1025 1384 1454 906 
Q 1884 428 2741 428 
Q 3075 428 3337 486 
Q 3600 544 3809 666 
z
" id="DejaVuSans-47" transform="scale(0.015625)"/>
      <path d="M 628 4666 
L 1259 4666 
L 1259 531 
L 3531 531 
L 3531 0 
L 628 0 
L 628 4666 
z
" id="DejaVuSans-4c" transform="scale(0.015625)"/>
      <path d="M 2522 4238 
Q 1834 4238 1429 3725 
Q 1025 3213 1025 2328 
Q 1025 1447 1429 934 
Q 1834 422 2522 422 
Q 3209 422 3611 934 
Q 4013 1447 4013 2328 
Q 4013 3213 3611 3725 
Q 3209 4238 2522 4238 
z
M 2522 4750 
Q 3503 4750 4090 4092 
Q 4678 3434 4678 2328 
Q 4678 1225 4090 567 
Q 3503 -91 2522 -91 
Q 1538 -91 948 565 
Q 359 1222 359 2328 
Q 359 3434 948 4092 
Q 1538 4750 2522 4750 
z
" id="DejaVuSans-4f" transform="scale(0.015625)"/>
      <path d="M 1259 4147 
L 1259 519 
L 2022 519 
Q 2988 519 3436 956 
Q 3884 1394 3884 2338 
Q 3884 3275 3436 3711 
Q 2988 4147 2022 4147 
L 1259 4147 
z
M 628 4666 
L 1925 4666 
Q 3281 4666 3915 4102 
Q 4550 3538 4550 2338 
Q 4550 1131 3912 565 
Q 3275 0 1925 0 
L 628 0 
L 628 4666 
z
" id="DejaVuSans-44" transform="scale(0.015625)"/>
     </defs>
     <use xlink:href="#DejaVuSans-4d"/>
     <use x="86.279297" xlink:href="#DejaVuSans-75"/>
     <use x="149.658203" xlink:href="#DejaVuSans-6c"/>
     <use x="177.441406" xlink:href="#DejaVuSans-74"/>
     <use x="216.650391" xlink:href="#DejaVuSans-69"/>
     <use x="244.433594" xlink:href="#DejaVuSans-47"/>
     <use x="321.923828" xlink:href="#DejaVuSans-4c"/>
     <use x="374.011719" xlink:href="#DejaVuSans-4f"/>
     <use x="452.722656" xlink:href="#DejaVuSans-44"/>
    </g>
   </g>
   <g id="text_14">
    <!-- DMS Brock -->
    <g transform="translate(375.22944 169.329987)scale(0.17 -0.17)">
     <defs>
      <path d="M 3425 4513 
L 3425 3897 
Q 3066 4069 2747 4153 
Q 2428 4238 2131 4238 
Q 1616 4238 1336 4038 
Q 1056 3838 1056 3469 
Q 1056 3159 1242 3001 
Q 1428 2844 1947 2747 
L 2328 2669 
Q 3034 2534 3370 2195 
Q 3706 1856 3706 1288 
Q 3706 609 3251 259 
Q 2797 -91 1919 -91 
Q 1588 -91 1214 -16 
Q 841 59 441 206 
L 441 856 
Q 825 641 1194 531 
Q 1563 422 1919 422 
Q 2459 422 2753 634 
Q 3047 847 3047 1241 
Q 3047 1584 2836 1778 
Q 2625 1972 2144 2069 
L 1759 2144 
Q 1053 2284 737 2584 
Q 422 2884 422 3419 
Q 422 4038 858 4394 
Q 1294 4750 2059 4750 
Q 2388 4750 2728 4690 
Q 3069 4631 3425 4513 
z
" id="DejaVuSans-53" transform="scale(0.015625)"/>
      <path d="M 1259 2228 
L 1259 519 
L 2272 519 
Q 2781 519 3026 730 
Q 3272 941 3272 1375 
Q 3272 1813 3026 2020 
Q 2781 2228 2272 2228 
L 1259 2228 
z
M 1259 4147 
L 1259 2741 
L 2194 2741 
Q 2656 2741 2882 2914 
Q 3109 3088 3109 3444 
Q 3109 3797 2882 3972 
Q 2656 4147 2194 4147 
L 1259 4147 
z
M 628 4666 
L 2241 4666 
Q 2963 4666 3353 4366 
Q 3744 4066 3744 3513 
Q 3744 3084 3544 2831 
Q 3344 2578 2956 2516 
Q 3422 2416 3680 2098 
Q 3938 1781 3938 1306 
Q 3938 681 3513 340 
Q 3088 0 2303 0 
L 628 0 
L 628 4666 
z
" id="DejaVuSans-42" transform="scale(0.015625)"/>
      <path d="M 581 4863 
L 1159 4863 
L 1159 1991 
L 2875 3500 
L 3609 3500 
L 1753 1863 
L 3688 0 
L 2938 0 
L 1159 1709 
L 1159 0 
L 581 0 
L 581 4863 
z
" id="DejaVuSans-6b" transform="scale(0.015625)"/>
     </defs>
     <use xlink:href="#DejaVuSans-44"/>
     <use x="77.001953" xlink:href="#DejaVuSans-4d"/>
     <use x="163.28125" xlink:href="#DejaVuSans-53"/>
     <use x="226.757812" xlink:href="#DejaVuSans-20"/>
     <use x="258.544922" xlink:href="#DejaVuSans-42"/>
     <use x="327.148438" xlink:href="#DejaVuSans-72"/>
     <use x="366.011719" xlink:href="#DejaVuSans-6f"/>
     <use x="427.193359" xlink:href="#DejaVuSans-63"/>
     <use x="482.173828" xlink:href="#DejaVuSans-6b"/>
    </g>
   </g>
   <g id="text_15">
    <!-- best 2016 -->
    <g transform="translate(375.22944 40.397235)scale(0.17 -0.17)">
     <defs>
      <path d="M 3116 1747 
Q 3116 2381 2855 2742 
Q 2594 3103 2138 3103 
Q 1681 3103 1420 2742 
Q 1159 2381 1159 1747 
Q 1159 1113 1420 752 
Q 1681 391 2138 391 
Q 2594 391 2855 752 
Q 3116 1113 3116 1747 
z
M 1159 2969 
Q 1341 3281 1617 3432 
Q 1894 3584 2278 3584 
Q 2916 3584 3314 3078 
Q 3713 2572 3713 1747 
Q 3713 922 3314 415 
Q 2916 -91 2278 -91 
Q 1894 -91 1617 61 
Q 1341 213 1159 525 
L 1159 0 
L 581 0 
L 581 4863 
L 1159 4863 
L 1159 2969 
z
" id="DejaVuSans-62" transform="scale(0.015625)"/>
     </defs>
     <use xlink:href="#DejaVuSans-62"/>
     <use x="63.476562" xlink:href="#DejaVuSans-65"/>
     <use x="125" xlink:href="#DejaVuSans-73"/>
     <use x="177.099609" xlink:href="#DejaVuSans-74"/>
     <use x="216.308594" xlink:href="#DejaVuSans-20"/>
     <use x="248.095703" xlink:href="#DejaVuSans-32"/>
     <use x="311.71875" xlink:href="#DejaVuSans-30"/>
     <use x="375.341797" xlink:href="#DejaVuSans-31"/>
     <use x="438.964844" xlink:href="#DejaVuSans-36"/>
    </g>
   </g>
   <g id="text_16">
    <!-- bbob-biobj f41, 3-D -->
    <g transform="translate(60.41088 38.111366)scale(0.102 -0.102)">
     <defs>
      <path d="M 603 3500 
L 1178 3500 
L 1178 -63 
Q 1178 -731 923 -1031 
Q 669 -1331 103 -1331 
L -116 -1331 
L -116 -844 
L 38 -844 
Q 366 -844 484 -692 
Q 603 -541 603 -63 
L 603 3500 
z
M 603 4863 
L 1178 4863 
L 1178 4134 
L 603 4134 
L 603 4863 
z
" id="DejaVuSans-6a" transform="scale(0.015625)"/>
      <path d="M 2597 2516 
Q 3050 2419 3304 2112 
Q 3559 1806 3559 1356 
Q 3559 666 3084 287 
Q 2609 -91 1734 -91 
Q 1441 -91 1130 -33 
Q 819 25 488 141 
L 488 750 
Q 750 597 1062 519 
Q 1375 441 1716 441 
Q 2309 441 2620 675 
Q 2931 909 2931 1356 
Q 2931 1769 2642 2001 
Q 2353 2234 1838 2234 
L 1294 2234 
L 1294 2753 
L 1863 2753 
Q 2328 2753 2575 2939 
Q 2822 3125 2822 3475 
Q 2822 3834 2567 4026 
Q 2313 4219 1838 4219 
Q 1578 4219 1281 4162 
Q 984 4106 628 3988 
L 628 4550 
Q 988 4650 1302 4700 
Q 1616 4750 1894 4750 
Q 2613 4750 3031 4423 
Q 3450 4097 3450 3541 
Q 3450 3153 3228 2886 
Q 3006 2619 2597 2516 
z
" id="DejaVuSans-33" transform="scale(0.015625)"/>
     </defs>
     <use xlink:href="#DejaVuSans-62"/>
     <use x="63.476562" xlink:href="#DejaVuSans-62"/>
     <use x="126.953125" xlink:href="#DejaVuSans-6f"/>
     <use x="188.134766" xlink:href="#DejaVuSans-62"/>
     <use x="251.611328" xlink:href="#DejaVuSans-2d"/>
     <use x="287.695312" xlink:href="#DejaVuSans-62"/>
     <use x="351.171875" xlink:href="#DejaVuSans-69"/>
     <use x="378.955078" xlink:href="#DejaVuSans-6f"/>
     <use x="440.136719" xlink:href="#DejaVuSans-62"/>
     <use x="503.613281" xlink:href="#DejaVuSans-6a"/>
     <use x="531.396484" xlink:href="#DejaVuSans-20"/>
     <use x="563.183594" xlink:href="#DejaVuSans-66"/>
     <use x="598.388672" xlink:href="#DejaVuSans-34"/>
     <use x="662.011719" xlink:href="#DejaVuSans-31"/>
     <use x="725.634766" xlink:href="#DejaVuSans-2c"/>
     <use x="757.421875" xlink:href="#DejaVuSans-20"/>
     <use x="789.208984" xlink:href="#DejaVuSans-33"/>
     <use x="852.832031" xlink:href="#DejaVuSans-2d"/>
     <use x="888.916016" xlink:href="#DejaVuSans-44"/>
    </g>
    <!-- 58 targets: 1..-1.0e-4 -->
    <g transform="translate(60.41088 49.533135)scale(0.102 -0.102)">
     <defs>
      <path d="M 691 4666 
L 3169 4666 
L 3169 4134 
L 1269 4134 
L 1269 2991 
Q 1406 3038 1543 3061 
Q 1681 3084 1819 3084 
Q 2600 3084 3056 2656 
Q 3513 2228 3513 1497 
Q 3513 744 3044 326 
Q 2575 -91 1722 -91 
Q 1428 -91 1123 -41 
Q 819 9 494 109 
L 494 744 
Q 775 591 1075 516 
Q 1375 441 1709 441 
Q 2250 441 2565 725 
Q 2881 1009 2881 1497 
Q 2881 1984 2565 2268 
Q 2250 2553 1709 2553 
Q 1456 2553 1204 2497 
Q 953 2441 691 2322 
L 691 4666 
z
" id="DejaVuSans-35" transform="scale(0.015625)"/>
      <path d="M 750 794 
L 1409 794 
L 1409 0 
L 750 0 
L 750 794 
z
M 750 3309 
L 1409 3309 
L 1409 2516 
L 750 2516 
L 750 3309 
z
" id="DejaVuSans-3a" transform="scale(0.015625)"/>
     </defs>
     <use xlink:href="#DejaVuSans-35"/>
     <use x="63.623047" xlink:href="#DejaVuSans-38"/>
     <use x="127.246094" xlink:href="#DejaVuSans-20"/>
     <use x="159.033203" xlink:href="#DejaVuSans-74"/>
     <use x="198.242188" xlink:href="#DejaVuSans-61"/>
     <use x="259.521484" xlink:href="#DejaVuSans-72"/>
     <use x="298.884766" xlink:href="#DejaVuSans-67"/>
     <use x="362.361328" xlink:href="#DejaVuSans-65"/>
     <use x="423.884766" xlink:href="#DejaVuSans-74"/>
     <use x="463.09375" xlink:href="#DejaVuSans-73"/>
     <use x="515.193359" xlink:href="#DejaVuSans-3a"/>
     <use x="548.884766" xlink:href="#DejaVuSans-20"/>
     <use x="580.671875" xlink:href="#DejaVuSans-31"/>
     <use x="644.294922" xlink:href="#DejaVuSans-2e"/>
     <use x="676.082031" xlink:href="#DejaVuSans-2e"/>
     <use x="707.869141" xlink:href="#DejaVuSans-2d"/>
     <use x="743.953125" xlink:href="#DejaVuSans-31"/>
     <use x="807.576172" xlink:href="#DejaVuSans-2e"/>
     <use x="839.363281" xlink:href="#DejaVuSans-30"/>
     <use x="902.986328" xlink:href="#DejaVuSans-65"/>
     <use x="964.509766" xlink:href="#DejaVuSans-2d"/>
     <use x="1000.59375" xlink:href="#DejaVuSans-34"/>
    </g>
    <!-- 10 instances -->
    <g transform="translate(60.41088 60.954904)scale(0.102 -0.102)">
     <use xlink:href="#DejaVuSans-31"/>
     <use x="63.623047" xlink:href="#DejaVuSans-30"/>
     <use x="127.246094" xlink:href="#DejaVuSans-20"/>
     <use x="159.033203" xlink:href="#DejaVuSans-69"/>
     <use x="186.816406" xlink:href="#DejaVuSans-6e"/>
     <use x="250.195312" xlink:href="#DejaVuSans-73"/>
     <use x="302.294922" xlink:href="#DejaVuSans-74"/>
     <use x="341.503906" xlink:href="#DejaVuSans-61"/>
     <use x="402.783203" xlink:href="#DejaVuSans-6e"/>
     <use x="466.162109" xlink:href="#DejaVuSans-63"/>
     <use x="521.142578" xlink:href="#DejaVuSans-65"/>
     <use x="582.666016" xlink:href="#DejaVuSans-73"/>
    </g>
   </g>
   <g id="text_17">
    <!-- v2.4.1.1, hv-hash=ff0e71e8cd978373 -->
    <g style="fill:#808080;" transform="translate(103.108062 294.151352)scale(0.1 -0.1)">
     <defs>
      <path d="M 3513 2113 
L 3513 0 
L 2938 0 
L 2938 2094 
Q 2938 2591 2744 2837 
Q 2550 3084 2163 3084 
Q 1697 3084 1428 2787 
Q 1159 2491 1159 1978 
L 1159 0 
L 581 0 
L 581 4863 
L 1159 4863 
L 1159 2956 
Q 1366 3272 1645 3428 
Q 1925 3584 2291 3584 
Q 2894 3584 3203 3211 
Q 3513 2838 3513 2113 
z
" id="DejaVuSans-68" transform="scale(0.015625)"/>
      <path d="M 678 2906 
L 4684 2906 
L 4684 2381 
L 678 2381 
L 678 2906 
z
M 678 1631 
L 4684 1631 
L 4684 1100 
L 678 1100 
L 678 1631 
z
" id="DejaVuSans-3d" transform="scale(0.015625)"/>
      <path d="M 525 4666 
L 3525 4666 
L 3525 4397 
L 1831 0 
L 1172 0 
L 2766 4134 
L 525 4134 
L 525 4666 
z
" id="DejaVuSans-37" transform="scale(0.015625)"/>
      <path d="M 703 97 
L 703 672 
Q 941 559 1184 500 
Q 1428 441 1663 441 
Q 2288 441 2617 861 
Q 2947 1281 2994 2138 
Q 2813 1869 2534 1725 
Q 2256 1581 1919 1581 
Q 1219 1581 811 2004 
Q 403 2428 403 3163 
Q 403 3881 828 4315 
Q 1253 4750 1959 4750 
Q 2769 4750 3195 4129 
Q 3622 3509 3622 2328 
Q 3622 1225 3098 567 
Q 2575 -91 1691 -91 
Q 1453 -91 1209 -44 
Q 966 3 703 97 
z
M 1959 2075 
Q 2384 2075 2632 2365 
Q 2881 2656 2881 3163 
Q 2881 3666 2632 3958 
Q 2384 4250 1959 4250 
Q 1534 4250 1286 3958 
Q 1038 3666 1038 3163 
Q 1038 2656 1286 2365 
Q 1534 2075 1959 2075 
z
" id="DejaVuSans-39" transform="scale(0.015625)"/>
     </defs>
     <use xlink:href="#DejaVuSans-76"/>
     <use x="59.179688" xlink:href="#DejaVuSans-32"/>
     <use x="122.802734" xlink:href="#DejaVuSans-2e"/>
     <use x="154.589844" xlink:href="#DejaVuSans-34"/>
     <use x="218.212891" xlink:href="#DejaVuSans-2e"/>
     <use x="250" xlink:href="#DejaVuSans-31"/>
     <use x="313.623047" xlink:href="#DejaVuSans-2e"/>
     <use x="345.410156" xlink:href="#DejaVuSans-31"/>
     <use x="409.033203" xlink:href="#DejaVuSans-2c"/>
     <use x="440.820312" xlink:href="#DejaVuSans-20"/>
     <use x="472.607422" xlink:href="#DejaVuSans-68"/>
     <use x="535.986328" xlink:href="#DejaVuSans-76"/>
     <use x="592.541016" xlink:href="#DejaVuSans-2d"/>
     <use x="628.625" xlink:href="#DejaVuSans-68"/>
     <use x="692.003906" xlink:href="#DejaVuSans-61"/>
     <use x="753.283203" xlink:href="#DejaVuSans-73"/>
     <use x="805.382812" xlink:href="#DejaVuSans-68"/>
     <use x="868.761719" xlink:href="#DejaVuSans-3d"/>
     <use x="952.550781" xlink:href="#DejaVuSans-66"/>
     <use x="987.755859" xlink:href="#DejaVuSans-66"/>
     <use x="1022.960938" xlink:href="#DejaVuSans-30"/>
     <use x="1086.583984" xlink:href="#DejaVuSans-65"/>
     <use x="1148.107422" xlink:href="#DejaVuSans-37"/>
     <use x="1211.730469" xlink:href="#DejaVuSans-31"/>
     <use x="1275.353516" xlink:href="#DejaVuSans-65"/>
     <use x="1336.876953" xlink:href="#DejaVuSans-38"/>
     <use x="1400.5" xlink:href="#DejaVuSans-63"/>
     <use x="1455.480469" xlink:href="#DejaVuSans-64"/>
     <use x="1518.957031" xlink:href="#DejaVuSans-39"/>
     <use x="1582.580078" xlink:href="#DejaVuSans-37"/>
     <use x="1646.203125" xlink:href="#DejaVuSans-38"/>
     <use x="1709.826172" xlink:href="#DejaVuSans-33"/>
     <use x="1773.449219" xlink:href="#DejaVuSans-37"/>
     <use x="1837.072266" xlink:href="#DejaVuSans-33"/>
    </g>
   </g>
   <g id="text_18">
    <!-- 41 Diff. Powers/Diff. Powers -->
    <g transform="translate(61.697125 21.648)scale(0.2 -0.2)">
     <defs>
      <path d="M 1259 4147 
L 1259 2394 
L 2053 2394 
Q 2494 2394 2734 2622 
Q 2975 2850 2975 3272 
Q 2975 3691 2734 3919 
Q 2494 4147 2053 4147 
L 1259 4147 
z
M 628 4666 
L 2053 4666 
Q 2838 4666 3239 4311 
Q 3641 3956 3641 3272 
Q 3641 2581 3239 2228 
Q 2838 1875 2053 1875 
L 1259 1875 
L 1259 0 
L 628 0 
L 628 4666 
z
" id="DejaVuSans-50" transform="scale(0.015625)"/>
      <path d="M 269 3500 
L 844 3500 
L 1563 769 
L 2278 3500 
L 2956 3500 
L 3675 769 
L 4391 3500 
L 4966 3500 
L 4050 0 
L 3372 0 
L 2619 2869 
L 1863 0 
L 1184 0 
L 269 3500 
z
" id="DejaVuSans-77" transform="scale(0.015625)"/>
     </defs>
     <use xlink:href="#DejaVuSans-34"/>
     <use x="63.623047" xlink:href="#DejaVuSans-31"/>
     <use x="127.246094" xlink:href="#DejaVuSans-20"/>
     <use x="159.033203" xlink:href="#DejaVuSans-44"/>
     <use x="236.035156" xlink:href="#DejaVuSans-69"/>
     <use x="263.818359" xlink:href="#DejaVuSans-66"/>
     <use x="299.023438" xlink:href="#DejaVuSans-66"/>
     <use x="326.978516" xlink:href="#DejaVuSans-2e"/>
     <use x="358.765625" xlink:href="#DejaVuSans-20"/>
     <use x="390.552734" xlink:href="#DejaVuSans-50"/>
     <use x="447.230469" xlink:href="#DejaVuSans-6f"/>
     <use x="508.412109" xlink:href="#DejaVuSans-77"/>
     <use x="590.199219" xlink:href="#DejaVuSans-65"/>
     <use x="651.722656" xlink:href="#DejaVuSans-72"/>
     <use x="692.835938" xlink:href="#DejaVuSans-73"/>
     <use x="744.935547" xlink:href="#DejaVuSans-2f"/>
     <use x="778.626953" xlink:href="#DejaVuSans-44"/>
     <use x="855.628906" xlink:href="#DejaVuSans-69"/>
     <use x="883.412109" xlink:href="#DejaVuSans-66"/>
     <use x="918.617188" xlink:href="#DejaVuSans-66"/>
     <use x="946.572266" xlink:href="#DejaVuSans-2e"/>
     <use x="978.359375" xlink:href="#DejaVuSans-20"/>
     <use x="1010.146484" xlink:href="#DejaVuSans-50"/>
     <use x="1066.824219" xlink:href="#DejaVuSans-6f"/>
     <use x="1128.005859" xlink:href="#DejaVuSans-77"/>
     <use x="1209.792969" xlink:href="#DejaVuSans-65"/>
     <use x="1271.316406" xlink:href="#DejaVuSans-72"/>
     <use x="1312.429688" xlink:href="#DejaVuSans-73"/>
    </g>
   </g>
  </g>
 </g>
 <defs>
  <clipPath id="p1cad2e4aec">
   <rect height="271.296" width="281.088" x="57.6" y="27.648"/>
  </clipPath>
 </defs>
</svg>
