<?xml version="1.0" encoding="utf-8" standalone="no"?>
<!DOCTYPE svg PUBLIC "-//W3C//DTD SVG 1.1//EN"
  "http://www.w3.org/Graphics/SVG/1.1/DTD/svg11.dtd">
<svg height="345.6pt" version="1.1" viewBox="0 0 460.8 345.6" width="460.8pt" xmlns="http://www.w3.org/2000/svg" xmlns:xlink="http://www.w3.org/1999/xlink">
 <metadata>
  <rdf:RDF xmlns:cc="http://creativecommons.org/ns#" xmlns:dc="http://purl.org/dc/elements/1.1/" xmlns:rdf="http://www.w3.org/1999/02/22-rdf-syntax-ns#">
   <cc:Work>
    <dc:type rdf:resource="http://purl.org/dc/dcmitype/StillImage"/>
    <dc:date>2022-03-29T13:09:05.270389</dc:date>
    <dc:format>image/svg+xml</dc:format>
    <dc:creator>
     <cc:Agent>
      <dc:title>Matplotlib v3.4.3, https://matplotlib.org/</dc:title>
     </cc:Agent>
    </dc:creator>
   </cc:Work>
  </rdf:RDF>
 </metadata>
 <defs>
  <style type="text/css">*{stroke-linecap:butt;stroke-linejoin:round;}</style>
 </defs>
 <g id="figure_1">
  <g id="patch_1">
   <path d="M 0 345.6 
L 460.8 345.6 
L 460.8 0 
L 0 0 
z
" style="fill:#ffffff;"/>
  </g>
  <g id="axes_1">
   <g id="patch_2">
    <path d="M 57.6 298.944 
L 338.688 298.944 
L 338.688 27.648 
L 57.6 27.648 
z
" style="fill:#ffffff;"/>
   </g>
   <g id="line2d_1">
    <path d="M 48.691568 298.944 
L 48.691568 294.312795 
L 65.796525 294.312795 
L 65.796525 285.050384 
L 81.775977 285.050384 
L 81.775977 275.787974 
L 92.504372 275.787974 
L 92.504372 271.156769 
L 98.100772 271.156769 
L 98.100772 257.263153 
L 104.355088 257.263153 
L 104.355088 248.000743 
L 110.694282 248.000743 
L 110.694282 243.369538 
L 118.994305 243.369538 
L 118.994305 234.107127 
L 127.100304 234.107127 
L 127.100304 220.213512 
L 135.240011 220.213512 
L 135.240011 210.951101 
L 143.47714 210.951101 
L 143.47714 201.688691 
L 149.232356 201.688691 
L 149.232356 192.426281 
L 155.128803 192.426281 
L 155.128803 187.795075 
L 161.329454 187.795075 
L 161.329454 173.90146 
L 167.442734 173.90146 
L 167.442734 169.270255 
L 174.069872 169.270255 
L 174.069872 155.376639 
L 187.138572 155.376639 
L 187.138572 146.114229 
L 195.839286 146.114229 
L 195.839286 141.483024 
L 202.648196 141.483024 
L 202.648196 127.589408 
L 210.404421 127.589408 
L 210.404421 122.958203 
L 217.748681 122.958203 
L 217.748681 109.064587 
L 224.79005 109.064587 
L 224.79005 99.802177 
L 233.003559 99.802177 
L 233.003559 90.539766 
L 241.841316 90.539766 
L 241.841316 85.908561 
L 249.592497 85.908561 
L 249.592497 76.646151 
L 255.83396 76.646151 
L 255.83396 62.752535 
L 338.688 62.752535 
" style="fill:none;stroke:#f5deb3;stroke-linecap:square;stroke-width:4;"/>
   </g>
   <g id="line2d_2">
    <defs>
     <path d="M 0 7.778175 
L 7.778175 0 
L 0 -7.778175 
L -7.778175 0 
z
" id="m17b84fda4a" style="stroke:#f5deb3;stroke-linejoin:miter;stroke-width:1.5;"/>
    </defs>
    <g>
     <use style="fill:#f5deb3;stroke:#f5deb3;stroke-linejoin:miter;stroke-width:1.5;" x="110.694282" xlink:href="#m17b84fda4a" y="243.369538"/>
     <use style="fill:#f5deb3;stroke:#f5deb3;stroke-linejoin:miter;stroke-width:1.5;" x="174.069872" xlink:href="#m17b84fda4a" y="155.376639"/>
     <use style="fill:#f5deb3;stroke:#f5deb3;stroke-linejoin:miter;stroke-width:1.5;" x="224.79005" xlink:href="#m17b84fda4a" y="99.802177"/>
     <use style="fill:#f5deb3;stroke:#f5deb3;stroke-linejoin:miter;stroke-width:1.5;" x="255.83396" xlink:href="#m17b84fda4a" y="62.752535"/>
     <use style="fill:#f5deb3;stroke:#f5deb3;stroke-linejoin:miter;stroke-width:1.5;" x="255.83396" xlink:href="#m17b84fda4a" y="62.752535"/>
     <use style="fill:#f5deb3;stroke:#f5deb3;stroke-linejoin:miter;stroke-width:1.5;" x="338.688" xlink:href="#m17b84fda4a" y="62.752535"/>
    </g>
   </g>
   <g id="line2d_3">
    <path style="fill:none;stroke:#f5deb3;stroke-linecap:square;stroke-width:4;"/>
    <g/>
   </g>
   <g id="line2d_4">
    <path d="M 338.688 62.752535 
L 369.60768 35.706297 
" style="fill:none;stroke:#f5deb3;stroke-linecap:square;stroke-width:4;"/>
    <g>
     <use style="fill:#f5deb3;stroke:#f5deb3;stroke-linejoin:miter;stroke-width:1.5;" x="338.688" xlink:href="#m17b84fda4a" y="62.752535"/>
     <use style="fill:#f5deb3;stroke:#f5deb3;stroke-linejoin:miter;stroke-width:1.5;" x="369.60768" xlink:href="#m17b84fda4a" y="35.706297"/>
    </g>
   </g>
   <g id="matplotlib.axis_1">
    <g id="xtick_1">
     <g id="line2d_5">
      <path clip-path="url(#p02c60c4b5a)" d="M 57.6 298.944 
L 57.6 27.648 
" style="fill:none;stroke:#b0b0b0;stroke-linecap:square;stroke-width:0.8;"/>
     </g>
     <g id="line2d_6">
      <defs>
       <path d="M 0 0 
L 0 3.5 
" id="m8908cfe9d5" style="stroke:#000000;stroke-width:0.8;"/>
      </defs>
      <g>
       <use style="stroke:#000000;stroke-width:0.8;" x="57.6" xlink:href="#m8908cfe9d5" y="298.944"/>
      </g>
     </g>
     <g id="text_1">
      <!-- 0 -->
      <g transform="translate(51.2375 321.140875)scale(0.2 -0.2)">
       <defs>
        <path d="M 2034 4250 
Q 1547 4250 1301 3770 
Q 1056 3291 1056 2328 
Q 1056 1369 1301 889 
Q 1547 409 2034 409 
Q 2525 409 2770 889 
Q 3016 1369 3016 2328 
Q 3016 3291 2770 3770 
Q 2525 4250 2034 4250 
z
M 2034 4750 
Q 2819 4750 3233 4129 
Q 3647 3509 3647 2328 
Q 3647 1150 3233 529 
Q 2819 -91 2034 -91 
Q 1250 -91 836 529 
Q 422 1150 422 2328 
Q 422 3509 836 4129 
Q 1250 4750 2034 4750 
z
" id="DejaVuSans-30" transform="scale(0.015625)"/>
       </defs>
       <use xlink:href="#DejaVuSans-30"/>
      </g>
     </g>
    </g>
    <g id="xtick_2">
     <g id="line2d_7">
      <path clip-path="url(#p02c60c4b5a)" d="M 137.910857 298.944 
L 137.910857 27.648 
" style="fill:none;stroke:#b0b0b0;stroke-linecap:square;stroke-width:0.8;"/>
     </g>
     <g id="line2d_8">
      <g>
       <use style="stroke:#000000;stroke-width:0.8;" x="137.910857" xlink:href="#m8908cfe9d5" y="298.944"/>
      </g>
     </g>
     <g id="text_2">
      <!-- 2 -->
      <g transform="translate(131.548357 321.140875)scale(0.2 -0.2)">
       <defs>
        <path d="M 1228 531 
L 3431 531 
L 3431 0 
L 469 0 
L 469 531 
Q 828 903 1448 1529 
Q 2069 2156 2228 2338 
Q 2531 2678 2651 2914 
Q 2772 3150 2772 3378 
Q 2772 3750 2511 3984 
Q 2250 4219 1831 4219 
Q 1534 4219 1204 4116 
Q 875 4013 500 3803 
L 500 4441 
Q 881 4594 1212 4672 
Q 1544 4750 1819 4750 
Q 2544 4750 2975 4387 
Q 3406 4025 3406 3419 
Q 3406 3131 3298 2873 
Q 3191 2616 2906 2266 
Q 2828 2175 2409 1742 
Q 1991 1309 1228 531 
z
" id="DejaVuSans-32" transform="scale(0.015625)"/>
       </defs>
       <use xlink:href="#DejaVuSans-32"/>
      </g>
     </g>
    </g>
    <g id="xtick_3">
     <g id="line2d_9">
      <path clip-path="url(#p02c60c4b5a)" d="M 218.221714 298.944 
L 218.221714 27.648 
" style="fill:none;stroke:#b0b0b0;stroke-linecap:square;stroke-width:0.8;"/>
     </g>
     <g id="line2d_10">
      <g>
       <use style="stroke:#000000;stroke-width:0.8;" x="218.221714" xlink:href="#m8908cfe9d5" y="298.944"/>
      </g>
     </g>
     <g id="text_3">
      <!-- 4 -->
      <g transform="translate(211.859214 321.140875)scale(0.2 -0.2)">
       <defs>
        <path d="M 2419 4116 
L 825 1625 
L 2419 1625 
L 2419 4116 
z
M 2253 4666 
L 3047 4666 
L 3047 1625 
L 3713 1625 
L 3713 1100 
L 3047 1100 
L 3047 0 
L 2419 0 
L 2419 1100 
L 313 1100 
L 313 1709 
L 2253 4666 
z
" id="DejaVuSans-34" transform="scale(0.015625)"/>
       </defs>
       <use xlink:href="#DejaVuSans-34"/>
      </g>
     </g>
    </g>
    <g id="xtick_4">
     <g id="line2d_11">
      <path clip-path="url(#p02c60c4b5a)" d="M 298.532571 298.944 
L 298.532571 27.648 
" style="fill:none;stroke:#b0b0b0;stroke-linecap:square;stroke-width:0.8;"/>
     </g>
     <g id="line2d_12">
      <g>
       <use style="stroke:#000000;stroke-width:0.8;" x="298.532571" xlink:href="#m8908cfe9d5" y="298.944"/>
      </g>
     </g>
     <g id="text_4">
      <!-- 6 -->
      <g transform="translate(292.170071 321.140875)scale(0.2 -0.2)">
       <defs>
        <path d="M 2113 2584 
Q 1688 2584 1439 2293 
Q 1191 2003 1191 1497 
Q 1191 994 1439 701 
Q 1688 409 2113 409 
Q 2538 409 2786 701 
Q 3034 994 3034 1497 
Q 3034 2003 2786 2293 
Q 2538 2584 2113 2584 
z
M 3366 4563 
L 3366 3988 
Q 3128 4100 2886 4159 
Q 2644 4219 2406 4219 
Q 1781 4219 1451 3797 
Q 1122 3375 1075 2522 
Q 1259 2794 1537 2939 
Q 1816 3084 2150 3084 
Q 2853 3084 3261 2657 
Q 3669 2231 3669 1497 
Q 3669 778 3244 343 
Q 2819 -91 2113 -91 
Q 1303 -91 875 529 
Q 447 1150 447 2328 
Q 447 3434 972 4092 
Q 1497 4750 2381 4750 
Q 2619 4750 2861 4703 
Q 3103 4656 3366 4563 
z
" id="DejaVuSans-36" transform="scale(0.015625)"/>
       </defs>
       <use xlink:href="#DejaVuSans-36"/>
      </g>
     </g>
    </g>
    <g id="xtick_5">
     <g id="line2d_13">
      <path clip-path="url(#p02c60c4b5a)" d="M 97.755429 298.944 
L 97.755429 27.648 
" style="fill:none;stroke:#b0b0b0;stroke-linecap:square;stroke-width:0.8;"/>
     </g>
     <g id="line2d_14">
      <defs>
       <path d="M 0 0 
L 0 2 
" id="m12b1544e89" style="stroke:#000000;stroke-width:0.6;"/>
      </defs>
      <g>
       <use style="stroke:#000000;stroke-width:0.6;" x="97.755429" xlink:href="#m12b1544e89" y="298.944"/>
      </g>
     </g>
    </g>
    <g id="xtick_6">
     <g id="line2d_15">
      <path clip-path="url(#p02c60c4b5a)" d="M 178.066286 298.944 
L 178.066286 27.648 
" style="fill:none;stroke:#b0b0b0;stroke-linecap:square;stroke-width:0.8;"/>
     </g>
     <g id="line2d_16">
      <g>
       <use style="stroke:#000000;stroke-width:0.6;" x="178.066286" xlink:href="#m12b1544e89" y="298.944"/>
      </g>
     </g>
    </g>
    <g id="xtick_7">
     <g id="line2d_17">
      <path clip-path="url(#p02c60c4b5a)" d="M 258.377143 298.944 
L 258.377143 27.648 
" style="fill:none;stroke:#b0b0b0;stroke-linecap:square;stroke-width:0.8;"/>
     </g>
     <g id="line2d_18">
      <g>
       <use style="stroke:#000000;stroke-width:0.6;" x="258.377143" xlink:href="#m12b1544e89" y="298.944"/>
      </g>
     </g>
    </g>
    <g id="xtick_8">
     <g id="line2d_19">
      <path clip-path="url(#p02c60c4b5a)" d="M 338.688 298.944 
L 338.688 27.648 
" style="fill:none;stroke:#b0b0b0;stroke-linecap:square;stroke-width:0.8;"/>
     </g>
     <g id="line2d_20">
      <g>
       <use style="stroke:#000000;stroke-width:0.6;" x="338.688" xlink:href="#m12b1544e89" y="298.944"/>
      </g>
     </g>
    </g>
    <g id="text_5">
     <!-- log10(# f-evals / dimension) -->
     <g transform="translate(77.764078 342.217594)scale(0.17 -0.17)">
      <defs>
       <path d="M 603 4863 
L 1178 4863 
L 1178 0 
L 603 0 
L 603 4863 
z
" id="DejaVuSans-6c" transform="scale(0.015625)"/>
       <path d="M 1959 3097 
Q 1497 3097 1228 2736 
Q 959 2375 959 1747 
Q 959 1119 1226 758 
Q 1494 397 1959 397 
Q 2419 397 2687 759 
Q 2956 1122 2956 1747 
Q 2956 2369 2687 2733 
Q 2419 3097 1959 3097 
z
M 1959 3584 
Q 2709 3584 3137 3096 
Q 3566 2609 3566 1747 
Q 3566 888 3137 398 
Q 2709 -91 1959 -91 
Q 1206 -91 779 398 
Q 353 888 353 1747 
Q 353 2609 779 3096 
Q 1206 3584 1959 3584 
z
" id="DejaVuSans-6f" transform="scale(0.015625)"/>
       <path d="M 2906 1791 
Q 2906 2416 2648 2759 
Q 2391 3103 1925 3103 
Q 1463 3103 1205 2759 
Q 947 2416 947 1791 
Q 947 1169 1205 825 
Q 1463 481 1925 481 
Q 2391 481 2648 825 
Q 2906 1169 2906 1791 
z
M 3481 434 
Q 3481 -459 3084 -895 
Q 2688 -1331 1869 -1331 
Q 1566 -1331 1297 -1286 
Q 1028 -1241 775 -1147 
L 775 -588 
Q 1028 -725 1275 -790 
Q 1522 -856 1778 -856 
Q 2344 -856 2625 -561 
Q 2906 -266 2906 331 
L 2906 616 
Q 2728 306 2450 153 
Q 2172 0 1784 0 
Q 1141 0 747 490 
Q 353 981 353 1791 
Q 353 2603 747 3093 
Q 1141 3584 1784 3584 
Q 2172 3584 2450 3431 
Q 2728 3278 2906 2969 
L 2906 3500 
L 3481 3500 
L 3481 434 
z
" id="DejaVuSans-67" transform="scale(0.015625)"/>
       <path d="M 794 531 
L 1825 531 
L 1825 4091 
L 703 3866 
L 703 4441 
L 1819 4666 
L 2450 4666 
L 2450 531 
L 3481 531 
L 3481 0 
L 794 0 
L 794 531 
z
" id="DejaVuSans-31" transform="scale(0.015625)"/>
       <path d="M 1984 4856 
Q 1566 4138 1362 3434 
Q 1159 2731 1159 2009 
Q 1159 1288 1364 580 
Q 1569 -128 1984 -844 
L 1484 -844 
Q 1016 -109 783 600 
Q 550 1309 550 2009 
Q 550 2706 781 3412 
Q 1013 4119 1484 4856 
L 1984 4856 
z
" id="DejaVuSans-28" transform="scale(0.015625)"/>
       <path d="M 3272 2816 
L 2363 2816 
L 2100 1772 
L 3016 1772 
L 3272 2816 
z
M 2803 4594 
L 2478 3297 
L 3391 3297 
L 3719 4594 
L 4219 4594 
L 3897 3297 
L 4872 3297 
L 4872 2816 
L 3775 2816 
L 3519 1772 
L 4513 1772 
L 4513 1294 
L 3397 1294 
L 3072 0 
L 2572 0 
L 2894 1294 
L 1978 1294 
L 1656 0 
L 1153 0 
L 1478 1294 
L 494 1294 
L 494 1772 
L 1594 1772 
L 1856 2816 
L 850 2816 
L 850 3297 
L 1978 3297 
L 2297 4594 
L 2803 4594 
z
" id="DejaVuSans-23" transform="scale(0.015625)"/>
       <path id="DejaVuSans-20" transform="scale(0.015625)"/>
       <path d="M 2375 4863 
L 2375 4384 
L 1825 4384 
Q 1516 4384 1395 4259 
Q 1275 4134 1275 3809 
L 1275 3500 
L 2222 3500 
L 2222 3053 
L 1275 3053 
L 1275 0 
L 697 0 
L 697 3053 
L 147 3053 
L 147 3500 
L 697 3500 
L 697 3744 
Q 697 4328 969 4595 
Q 1241 4863 1831 4863 
L 2375 4863 
z
" id="DejaVuSans-66" transform="scale(0.015625)"/>
       <path d="M 313 2009 
L 1997 2009 
L 1997 1497 
L 313 1497 
L 313 2009 
z
" id="DejaVuSans-2d" transform="scale(0.015625)"/>
       <path d="M 3597 1894 
L 3597 1613 
L 953 1613 
Q 991 1019 1311 708 
Q 1631 397 2203 397 
Q 2534 397 2845 478 
Q 3156 559 3463 722 
L 3463 178 
Q 3153 47 2828 -22 
Q 2503 -91 2169 -91 
Q 1331 -91 842 396 
Q 353 884 353 1716 
Q 353 2575 817 3079 
Q 1281 3584 2069 3584 
Q 2775 3584 3186 3129 
Q 3597 2675 3597 1894 
z
M 3022 2063 
Q 3016 2534 2758 2815 
Q 2500 3097 2075 3097 
Q 1594 3097 1305 2825 
Q 1016 2553 972 2059 
L 3022 2063 
z
" id="DejaVuSans-65" transform="scale(0.015625)"/>
       <path d="M 191 3500 
L 800 3500 
L 1894 563 
L 2988 3500 
L 3597 3500 
L 2284 0 
L 1503 0 
L 191 3500 
z
" id="DejaVuSans-76" transform="scale(0.015625)"/>
       <path d="M 2194 1759 
Q 1497 1759 1228 1600 
Q 959 1441 959 1056 
Q 959 750 1161 570 
Q 1363 391 1709 391 
Q 2188 391 2477 730 
Q 2766 1069 2766 1631 
L 2766 1759 
L 2194 1759 
z
M 3341 1997 
L 3341 0 
L 2766 0 
L 2766 531 
Q 2569 213 2275 61 
Q 1981 -91 1556 -91 
Q 1019 -91 701 211 
Q 384 513 384 1019 
Q 384 1609 779 1909 
Q 1175 2209 1959 2209 
L 2766 2209 
L 2766 2266 
Q 2766 2663 2505 2880 
Q 2244 3097 1772 3097 
Q 1472 3097 1187 3025 
Q 903 2953 641 2809 
L 641 3341 
Q 956 3463 1253 3523 
Q 1550 3584 1831 3584 
Q 2591 3584 2966 3190 
Q 3341 2797 3341 1997 
z
" id="DejaVuSans-61" transform="scale(0.015625)"/>
       <path d="M 2834 3397 
L 2834 2853 
Q 2591 2978 2328 3040 
Q 2066 3103 1784 3103 
Q 1356 3103 1142 2972 
Q 928 2841 928 2578 
Q 928 2378 1081 2264 
Q 1234 2150 1697 2047 
L 1894 2003 
Q 2506 1872 2764 1633 
Q 3022 1394 3022 966 
Q 3022 478 2636 193 
Q 2250 -91 1575 -91 
Q 1294 -91 989 -36 
Q 684 19 347 128 
L 347 722 
Q 666 556 975 473 
Q 1284 391 1588 391 
Q 1994 391 2212 530 
Q 2431 669 2431 922 
Q 2431 1156 2273 1281 
Q 2116 1406 1581 1522 
L 1381 1569 
Q 847 1681 609 1914 
Q 372 2147 372 2553 
Q 372 3047 722 3315 
Q 1072 3584 1716 3584 
Q 2034 3584 2315 3537 
Q 2597 3491 2834 3397 
z
" id="DejaVuSans-73" transform="scale(0.015625)"/>
       <path d="M 1625 4666 
L 2156 4666 
L 531 -594 
L 0 -594 
L 1625 4666 
z
" id="DejaVuSans-2f" transform="scale(0.015625)"/>
       <path d="M 2906 2969 
L 2906 4863 
L 3481 4863 
L 3481 0 
L 2906 0 
L 2906 525 
Q 2725 213 2448 61 
Q 2172 -91 1784 -91 
Q 1150 -91 751 415 
Q 353 922 353 1747 
Q 353 2572 751 3078 
Q 1150 3584 1784 3584 
Q 2172 3584 2448 3432 
Q 2725 3281 2906 2969 
z
M 947 1747 
Q 947 1113 1208 752 
Q 1469 391 1925 391 
Q 2381 391 2643 752 
Q 2906 1113 2906 1747 
Q 2906 2381 2643 2742 
Q 2381 3103 1925 3103 
Q 1469 3103 1208 2742 
Q 947 2381 947 1747 
z
" id="DejaVuSans-64" transform="scale(0.015625)"/>
       <path d="M 603 3500 
L 1178 3500 
L 1178 0 
L 603 0 
L 603 3500 
z
M 603 4863 
L 1178 4863 
L 1178 4134 
L 603 4134 
L 603 4863 
z
" id="DejaVuSans-69" transform="scale(0.015625)"/>
       <path d="M 3328 2828 
Q 3544 3216 3844 3400 
Q 4144 3584 4550 3584 
Q 5097 3584 5394 3201 
Q 5691 2819 5691 2113 
L 5691 0 
L 5113 0 
L 5113 2094 
Q 5113 2597 4934 2840 
Q 4756 3084 4391 3084 
Q 3944 3084 3684 2787 
Q 3425 2491 3425 1978 
L 3425 0 
L 2847 0 
L 2847 2094 
Q 2847 2600 2669 2842 
Q 2491 3084 2119 3084 
Q 1678 3084 1418 2786 
Q 1159 2488 1159 1978 
L 1159 0 
L 581 0 
L 581 3500 
L 1159 3500 
L 1159 2956 
Q 1356 3278 1631 3431 
Q 1906 3584 2284 3584 
Q 2666 3584 2933 3390 
Q 3200 3197 3328 2828 
z
" id="DejaVuSans-6d" transform="scale(0.015625)"/>
       <path d="M 3513 2113 
L 3513 0 
L 2938 0 
L 2938 2094 
Q 2938 2591 2744 2837 
Q 2550 3084 2163 3084 
Q 1697 3084 1428 2787 
Q 1159 2491 1159 1978 
L 1159 0 
L 581 0 
L 581 3500 
L 1159 3500 
L 1159 2956 
Q 1366 3272 1645 3428 
Q 1925 3584 2291 3584 
Q 2894 3584 3203 3211 
Q 3513 2838 3513 2113 
z
" id="DejaVuSans-6e" transform="scale(0.015625)"/>
       <path d="M 513 4856 
L 1013 4856 
Q 1481 4119 1714 3412 
Q 1947 2706 1947 2009 
Q 1947 1309 1714 600 
Q 1481 -109 1013 -844 
L 513 -844 
Q 928 -128 1133 580 
Q 1338 1288 1338 2009 
Q 1338 2731 1133 3434 
Q 928 4138 513 4856 
z
" id="DejaVuSans-29" transform="scale(0.015625)"/>
      </defs>
      <use xlink:href="#DejaVuSans-6c"/>
      <use x="27.783203" xlink:href="#DejaVuSans-6f"/>
      <use x="88.964844" xlink:href="#DejaVuSans-67"/>
      <use x="152.441406" xlink:href="#DejaVuSans-31"/>
      <use x="216.064453" xlink:href="#DejaVuSans-30"/>
      <use x="279.6875" xlink:href="#DejaVuSans-28"/>
      <use x="318.701172" xlink:href="#DejaVuSans-23"/>
      <use x="402.490234" xlink:href="#DejaVuSans-20"/>
      <use x="434.277344" xlink:href="#DejaVuSans-66"/>
      <use x="463.982422" xlink:href="#DejaVuSans-2d"/>
      <use x="500.066406" xlink:href="#DejaVuSans-65"/>
      <use x="561.589844" xlink:href="#DejaVuSans-76"/>
      <use x="620.769531" xlink:href="#DejaVuSans-61"/>
      <use x="682.048828" xlink:href="#DejaVuSans-6c"/>
      <use x="709.832031" xlink:href="#DejaVuSans-73"/>
      <use x="761.931641" xlink:href="#DejaVuSans-20"/>
      <use x="793.71875" xlink:href="#DejaVuSans-2f"/>
      <use x="827.410156" xlink:href="#DejaVuSans-20"/>
      <use x="859.197266" xlink:href="#DejaVuSans-64"/>
      <use x="922.673828" xlink:href="#DejaVuSans-69"/>
      <use x="950.457031" xlink:href="#DejaVuSans-6d"/>
      <use x="1047.869141" xlink:href="#DejaVuSans-65"/>
      <use x="1109.392578" xlink:href="#DejaVuSans-6e"/>
      <use x="1172.771484" xlink:href="#DejaVuSans-73"/>
      <use x="1224.871094" xlink:href="#DejaVuSans-69"/>
      <use x="1252.654297" xlink:href="#DejaVuSans-6f"/>
      <use x="1313.835938" xlink:href="#DejaVuSans-6e"/>
      <use x="1377.214844" xlink:href="#DejaVuSans-29"/>
     </g>
    </g>
   </g>
   <g id="matplotlib.axis_2">
    <g id="ytick_1">
     <g id="line2d_21">
      <path clip-path="url(#p02c60c4b5a)" d="M 57.6 298.944 
L 338.688 298.944 
" style="fill:none;stroke:#b0b0b0;stroke-linecap:square;stroke-width:0.8;"/>
     </g>
     <g id="line2d_22">
      <defs>
       <path d="M 0 0 
L -3.5 0 
" id="mc5842be26b" style="stroke:#000000;stroke-width:0.8;"/>
      </defs>
      <g>
       <use style="stroke:#000000;stroke-width:0.8;" x="57.6" xlink:href="#mc5842be26b" y="298.944"/>
      </g>
     </g>
     <g id="text_6">
      <!-- 0.0 -->
      <g transform="translate(25.155 305.02275)scale(0.16 -0.16)">
       <defs>
        <path d="M 684 794 
L 1344 794 
L 1344 0 
L 684 0 
L 684 794 
z
" id="DejaVuSans-2e" transform="scale(0.015625)"/>
       </defs>
       <use xlink:href="#DejaVuSans-30"/>
       <use x="63.623047" xlink:href="#DejaVuSans-2e"/>
       <use x="95.410156" xlink:href="#DejaVuSans-30"/>
      </g>
     </g>
    </g>
    <g id="ytick_2">
     <g id="line2d_23">
      <path clip-path="url(#p02c60c4b5a)" d="M 57.6 245.22202 
L 338.688 245.22202 
" style="fill:none;stroke:#b0b0b0;stroke-linecap:square;stroke-width:0.8;"/>
     </g>
     <g id="line2d_24">
      <g>
       <use style="stroke:#000000;stroke-width:0.8;" x="57.6" xlink:href="#mc5842be26b" y="245.22202"/>
      </g>
     </g>
     <g id="text_7">
      <!-- 0.2 -->
      <g transform="translate(25.155 251.30077)scale(0.16 -0.16)">
       <use xlink:href="#DejaVuSans-30"/>
       <use x="63.623047" xlink:href="#DejaVuSans-2e"/>
       <use x="95.410156" xlink:href="#DejaVuSans-32"/>
      </g>
     </g>
    </g>
    <g id="ytick_3">
     <g id="line2d_25">
      <path clip-path="url(#p02c60c4b5a)" d="M 57.6 191.50004 
L 338.688 191.50004 
" style="fill:none;stroke:#b0b0b0;stroke-linecap:square;stroke-width:0.8;"/>
     </g>
     <g id="line2d_26">
      <g>
       <use style="stroke:#000000;stroke-width:0.8;" x="57.6" xlink:href="#mc5842be26b" y="191.50004"/>
      </g>
     </g>
     <g id="text_8">
      <!-- 0.4 -->
      <g transform="translate(25.155 197.57879)scale(0.16 -0.16)">
       <use xlink:href="#DejaVuSans-30"/>
       <use x="63.623047" xlink:href="#DejaVuSans-2e"/>
       <use x="95.410156" xlink:href="#DejaVuSans-34"/>
      </g>
     </g>
    </g>
    <g id="ytick_4">
     <g id="line2d_27">
      <path clip-path="url(#p02c60c4b5a)" d="M 57.6 137.778059 
L 338.688 137.778059 
" style="fill:none;stroke:#b0b0b0;stroke-linecap:square;stroke-width:0.8;"/>
     </g>
     <g id="line2d_28">
      <g>
       <use style="stroke:#000000;stroke-width:0.8;" x="57.6" xlink:href="#mc5842be26b" y="137.778059"/>
      </g>
     </g>
     <g id="text_9">
      <!-- 0.6 -->
      <g transform="translate(25.155 143.856809)scale(0.16 -0.16)">
       <use xlink:href="#DejaVuSans-30"/>
       <use x="63.623047" xlink:href="#DejaVuSans-2e"/>
       <use x="95.410156" xlink:href="#DejaVuSans-36"/>
      </g>
     </g>
    </g>
    <g id="ytick_5">
     <g id="line2d_29">
      <path clip-path="url(#p02c60c4b5a)" d="M 57.6 84.056079 
L 338.688 84.056079 
" style="fill:none;stroke:#b0b0b0;stroke-linecap:square;stroke-width:0.8;"/>
     </g>
     <g id="line2d_30">
      <g>
       <use style="stroke:#000000;stroke-width:0.8;" x="57.6" xlink:href="#mc5842be26b" y="84.056079"/>
      </g>
     </g>
     <g id="text_10">
      <!-- 0.8 -->
      <g transform="translate(25.155 90.134829)scale(0.16 -0.16)">
       <defs>
        <path d="M 2034 2216 
Q 1584 2216 1326 1975 
Q 1069 1734 1069 1313 
Q 1069 891 1326 650 
Q 1584 409 2034 409 
Q 2484 409 2743 651 
Q 3003 894 3003 1313 
Q 3003 1734 2745 1975 
Q 2488 2216 2034 2216 
z
M 1403 2484 
Q 997 2584 770 2862 
Q 544 3141 544 3541 
Q 544 4100 942 4425 
Q 1341 4750 2034 4750 
Q 2731 4750 3128 4425 
Q 3525 4100 3525 3541 
Q 3525 3141 3298 2862 
Q 3072 2584 2669 2484 
Q 3125 2378 3379 2068 
Q 3634 1759 3634 1313 
Q 3634 634 3220 271 
Q 2806 -91 2034 -91 
Q 1263 -91 848 271 
Q 434 634 434 1313 
Q 434 1759 690 2068 
Q 947 2378 1403 2484 
z
M 1172 3481 
Q 1172 3119 1398 2916 
Q 1625 2713 2034 2713 
Q 2441 2713 2670 2916 
Q 2900 3119 2900 3481 
Q 2900 3844 2670 4047 
Q 2441 4250 2034 4250 
Q 1625 4250 1398 4047 
Q 1172 3844 1172 3481 
z
" id="DejaVuSans-38" transform="scale(0.015625)"/>
       </defs>
       <use xlink:href="#DejaVuSans-30"/>
       <use x="63.623047" xlink:href="#DejaVuSans-2e"/>
       <use x="95.410156" xlink:href="#DejaVuSans-38"/>
      </g>
     </g>
    </g>
    <g id="ytick_6">
     <g id="line2d_31">
      <path clip-path="url(#p02c60c4b5a)" d="M 57.6 30.334099 
L 338.688 30.334099 
" style="fill:none;stroke:#b0b0b0;stroke-linecap:square;stroke-width:0.8;"/>
     </g>
     <g id="line2d_32">
      <g>
       <use style="stroke:#000000;stroke-width:0.8;" x="57.6" xlink:href="#mc5842be26b" y="30.334099"/>
      </g>
     </g>
     <g id="text_11">
      <!-- 1.0 -->
      <g transform="translate(25.155 36.412849)scale(0.16 -0.16)">
       <use xlink:href="#DejaVuSans-31"/>
       <use x="63.623047" xlink:href="#DejaVuSans-2e"/>
       <use x="95.410156" xlink:href="#DejaVuSans-30"/>
      </g>
     </g>
    </g>
    <g id="text_12">
     <!-- Fraction of function,target pairs -->
     <g transform="translate(17.619531 297.681)rotate(-90)scale(0.17 -0.17)">
      <defs>
       <path d="M 628 4666 
L 3309 4666 
L 3309 4134 
L 1259 4134 
L 1259 2759 
L 3109 2759 
L 3109 2228 
L 1259 2228 
L 1259 0 
L 628 0 
L 628 4666 
z
" id="DejaVuSans-46" transform="scale(0.015625)"/>
       <path d="M 2631 2963 
Q 2534 3019 2420 3045 
Q 2306 3072 2169 3072 
Q 1681 3072 1420 2755 
Q 1159 2438 1159 1844 
L 1159 0 
L 581 0 
L 581 3500 
L 1159 3500 
L 1159 2956 
Q 1341 3275 1631 3429 
Q 1922 3584 2338 3584 
Q 2397 3584 2469 3576 
Q 2541 3569 2628 3553 
L 2631 2963 
z
" id="DejaVuSans-72" transform="scale(0.015625)"/>
       <path d="M 3122 3366 
L 3122 2828 
Q 2878 2963 2633 3030 
Q 2388 3097 2138 3097 
Q 1578 3097 1268 2742 
Q 959 2388 959 1747 
Q 959 1106 1268 751 
Q 1578 397 2138 397 
Q 2388 397 2633 464 
Q 2878 531 3122 666 
L 3122 134 
Q 2881 22 2623 -34 
Q 2366 -91 2075 -91 
Q 1284 -91 818 406 
Q 353 903 353 1747 
Q 353 2603 823 3093 
Q 1294 3584 2113 3584 
Q 2378 3584 2631 3529 
Q 2884 3475 3122 3366 
z
" id="DejaVuSans-63" transform="scale(0.015625)"/>
       <path d="M 1172 4494 
L 1172 3500 
L 2356 3500 
L 2356 3053 
L 1172 3053 
L 1172 1153 
Q 1172 725 1289 603 
Q 1406 481 1766 481 
L 2356 481 
L 2356 0 
L 1766 0 
Q 1100 0 847 248 
Q 594 497 594 1153 
L 594 3053 
L 172 3053 
L 172 3500 
L 594 3500 
L 594 4494 
L 1172 4494 
z
" id="DejaVuSans-74" transform="scale(0.015625)"/>
       <path d="M 544 1381 
L 544 3500 
L 1119 3500 
L 1119 1403 
Q 1119 906 1312 657 
Q 1506 409 1894 409 
Q 2359 409 2629 706 
Q 2900 1003 2900 1516 
L 2900 3500 
L 3475 3500 
L 3475 0 
L 2900 0 
L 2900 538 
Q 2691 219 2414 64 
Q 2138 -91 1772 -91 
Q 1169 -91 856 284 
Q 544 659 544 1381 
z
M 1991 3584 
L 1991 3584 
z
" id="DejaVuSans-75" transform="scale(0.015625)"/>
       <path d="M 750 794 
L 1409 794 
L 1409 256 
L 897 -744 
L 494 -744 
L 750 256 
L 750 794 
z
" id="DejaVuSans-2c" transform="scale(0.015625)"/>
       <path d="M 1159 525 
L 1159 -1331 
L 581 -1331 
L 581 3500 
L 1159 3500 
L 1159 2969 
Q 1341 3281 1617 3432 
Q 1894 3584 2278 3584 
Q 2916 3584 3314 3078 
Q 3713 2572 3713 1747 
Q 3713 922 3314 415 
Q 2916 -91 2278 -91 
Q 1894 -91 1617 61 
Q 1341 213 1159 525 
z
M 3116 1747 
Q 3116 2381 2855 2742 
Q 2594 3103 2138 3103 
Q 1681 3103 1420 2742 
Q 1159 2381 1159 1747 
Q 1159 1113 1420 752 
Q 1681 391 2138 391 
Q 2594 391 2855 752 
Q 3116 1113 3116 1747 
z
" id="DejaVuSans-70" transform="scale(0.015625)"/>
      </defs>
      <use xlink:href="#DejaVuSans-46"/>
      <use x="50.269531" xlink:href="#DejaVuSans-72"/>
      <use x="91.382812" xlink:href="#DejaVuSans-61"/>
      <use x="152.662109" xlink:href="#DejaVuSans-63"/>
      <use x="207.642578" xlink:href="#DejaVuSans-74"/>
      <use x="246.851562" xlink:href="#DejaVuSans-69"/>
      <use x="274.634766" xlink:href="#DejaVuSans-6f"/>
      <use x="335.816406" xlink:href="#DejaVuSans-6e"/>
      <use x="399.195312" xlink:href="#DejaVuSans-20"/>
      <use x="430.982422" xlink:href="#DejaVuSans-6f"/>
      <use x="492.164062" xlink:href="#DejaVuSans-66"/>
      <use x="527.369141" xlink:href="#DejaVuSans-20"/>
      <use x="559.15625" xlink:href="#DejaVuSans-66"/>
      <use x="594.361328" xlink:href="#DejaVuSans-75"/>
      <use x="657.740234" xlink:href="#DejaVuSans-6e"/>
      <use x="721.119141" xlink:href="#DejaVuSans-63"/>
      <use x="776.099609" xlink:href="#DejaVuSans-74"/>
      <use x="815.308594" xlink:href="#DejaVuSans-69"/>
      <use x="843.091797" xlink:href="#DejaVuSans-6f"/>
      <use x="904.273438" xlink:href="#DejaVuSans-6e"/>
      <use x="967.652344" xlink:href="#DejaVuSans-2c"/>
      <use x="999.439453" xlink:href="#DejaVuSans-74"/>
      <use x="1038.648438" xlink:href="#DejaVuSans-61"/>
      <use x="1099.927734" xlink:href="#DejaVuSans-72"/>
      <use x="1139.291016" xlink:href="#DejaVuSans-67"/>
      <use x="1202.767578" xlink:href="#DejaVuSans-65"/>
      <use x="1264.291016" xlink:href="#DejaVuSans-74"/>
      <use x="1303.5" xlink:href="#DejaVuSans-20"/>
      <use x="1335.287109" xlink:href="#DejaVuSans-70"/>
      <use x="1398.763672" xlink:href="#DejaVuSans-61"/>
      <use x="1460.042969" xlink:href="#DejaVuSans-69"/>
      <use x="1487.826172" xlink:href="#DejaVuSans-72"/>
      <use x="1528.939453" xlink:href="#DejaVuSans-73"/>
     </g>
    </g>
   </g>
   <g id="line2d_33">
    <defs>
     <path d="M 0 1.5 
C 0.397805 1.5 0.77937 1.341951 1.06066 1.06066 
C 1.341951 0.77937 1.5 0.397805 1.5 0 
C 1.5 -0.397805 1.341951 -0.77937 1.06066 -1.06066 
C 0.77937 -1.341951 0.397805 -1.5 0 -1.5 
C -0.397805 -1.5 -0.77937 -1.341951 -1.06066 -1.06066 
C -1.341951 -0.77937 -1.5 -0.397805 -1.5 0 
C -1.5 0.397805 -1.341951 0.77937 -1.06066 1.06066 
C -0.77937 1.341951 -0.397805 1.5 0 1.5 
z
" id="m407fd986c5" style="stroke:#f5deb3;"/>
    </defs>
    <g>
     <use style="fill:#f5deb3;stroke:#f5deb3;" x="255.83396" xlink:href="#m407fd986c5" y="62.752535"/>
     <use style="fill:#f5deb3;stroke:#f5deb3;" x="255.83396" xlink:href="#m407fd986c5" y="62.752535"/>
    </g>
   </g>
   <g id="line2d_34">
    <defs>
     <path d="M 0 1.5 
C 0.397805 1.5 0.77937 1.341951 1.06066 1.06066 
C 1.341951 0.77937 1.5 0.397805 1.5 0 
C 1.5 -0.397805 1.341951 -0.77937 1.06066 -1.06066 
C 0.77937 -1.341951 0.397805 -1.5 0 -1.5 
C -0.397805 -1.5 -0.77937 -1.341951 -1.06066 -1.06066 
C -1.341951 -0.77937 -1.5 -0.397805 -1.5 0 
C -1.5 0.397805 -1.341951 0.77937 -1.06066 1.06066 
C -0.77937 1.341951 -0.397805 1.5 0 1.5 
z
" id="me7d23de9e5" style="stroke:#000080;"/>
    </defs>
    <g>
     <use style="fill:#000080;stroke:#000080;" x="234.093829" xlink:href="#me7d23de9e5" y="99.802177"/>
     <use style="fill:#000080;stroke:#000080;" x="234.093829" xlink:href="#me7d23de9e5" y="99.802177"/>
    </g>
   </g>
   <g id="line2d_35">
    <path d="M 29.53256 298.944 
L 29.53256 289.218469 
L 63.467834 289.218469 
L 63.467834 287.365987 
L 69.687988 287.365987 
L 69.687988 286.439746 
L 72.867545 286.439746 
L 72.867545 285.976625 
L 75.555822 285.976625 
L 75.555822 285.513505 
L 77.884514 285.513505 
L 77.884514 285.050384 
L 78.941764 285.050384 
L 78.941764 284.124143 
L 79.938565 284.124143 
L 79.938565 283.661023 
L 81.775977 283.661023 
L 81.775977 282.271661 
L 85.66744 282.271661 
L 85.66744 281.808541 
L 86.351421 281.808541 
L 86.351421 280.8823 
L 87.009585 280.8823 
L 87.009585 280.419179 
L 88.255778 280.419179 
L 88.255778 279.492938 
L 90.509138 279.492938 
L 90.509138 278.566697 
L 93.422441 278.566697 
L 93.422441 277.640456 
L 94.294587 277.640456 
L 94.294587 277.177336 
L 94.714831 277.177336 
L 94.714831 276.714215 
L 95.125186 276.714215 
L 95.125186 276.251095 
L 95.526106 276.251095 
L 95.526106 275.787974 
L 96.676366 275.787974 
L 96.676366 274.861733 
L 97.403108 274.861733 
L 97.403108 274.398612 
L 97.755429 274.398612 
L 97.755429 273.935492 
L 98.43941 273.935492 
L 98.43941 273.472371 
L 98.771596 273.472371 
L 98.771596 273.009251 
L 99.41757 273.009251 
L 99.41757 271.619889 
L 99.731799 271.619889 
L 99.731799 271.156769 
L 100.040467 271.156769 
L 100.040467 270.693648 
L 100.641881 270.693648 
L 100.641881 269.767407 
L 101.223245 269.767407 
L 101.223245 268.841166 
L 103.870632 268.841166 
L 103.870632 268.378046 
L 104.114542 268.378046 
L 104.114542 267.914925 
L 104.826449 267.914925 
L 104.826449 267.451805 
L 105.057436 267.451805 
L 105.057436 266.988684 
L 105.732589 266.988684 
L 105.732589 266.062443 
L 105.951954 266.062443 
L 105.951954 265.136202 
L 106.168594 265.136202 
L 106.168594 264.209961 
L 107.009204 264.209961 
L 107.009204 263.28372 
L 108.389302 263.28372 
L 108.389302 262.8206 
L 108.948899 262.8206 
L 108.948899 261.431238 
L 109.668146 261.431238 
L 109.668146 260.968117 
L 109.843417 260.968117 
L 109.843417 260.504997 
L 110.859585 260.504997 
L 110.859585 260.041876 
L 111.346294 260.041876 
L 111.346294 259.578756 
L 112.128456 259.578756 
L 112.128456 259.115635 
L 113.873839 259.115635 
L 113.873839 258.189394 
L 114.0117 258.189394 
L 114.0117 256.800033 
L 115.835374 256.800033 
L 115.835374 256.336912 
L 116.443076 256.336912 
L 116.443076 255.873792 
L 116.797786 255.873792 
L 116.797786 255.410671 
L 116.914437 255.410671 
L 116.914437 254.947551 
L 117.930605 254.947551 
L 118.039942 254.02131 
L 118.148599 254.02131 
L 118.148599 253.558189 
L 118.681952 253.558189 
L 118.681952 252.631948 
L 119.199476 252.631948 
L 119.199476 251.705707 
L 119.502775 251.705707 
L 119.502775 250.316346 
L 119.702083 250.316346 
L 119.702083 249.853225 
L 119.996839 249.853225 
L 119.996839 249.390104 
L 120.190611 249.390104 
L 120.190611 248.926984 
L 120.759333 248.926984 
L 120.759333 248.463863 
L 124.292765 248.463863 
L 124.292765 248.000743 
L 124.519744 248.000743 
L 124.519744 247.537622 
L 125.183475 247.537622 
L 125.183475 247.074502 
L 125.822869 247.074502 
L 125.822869 246.611381 
L 126.030894 246.611381 
L 126.030894 245.68514 
L 126.304457 245.68514 
L 126.304457 244.758899 
L 127.100304 244.758899 
L 127.100304 243.832658 
L 128.411207 243.832658 
L 128.411207 243.369538 
L 129.908566 243.369538 
L 129.963666 241.980176 
L 130.127931 241.980176 
L 130.127931 241.053935 
L 131.590764 241.053935 
L 131.590764 240.127694 
L 131.839545 240.127694 
L 131.839545 239.201453 
L 133.032848 239.201453 
L 133.032848 238.275212 
L 133.443203 238.275212 
L 133.443203 237.348971 
L 134.745246 237.348971 
L 134.745246 236.88585 
L 135.035562 236.88585 
L 135.076644 235.959609 
L 135.158519 235.959609 
L 135.158519 235.033368 
L 135.280614 235.033368 
L 135.321124 233.180886 
L 135.839358 233.180886 
L 135.839358 231.328404 
L 136.034648 231.328404 
L 136.034648 230.865284 
L 136.418789 230.865284 
L 136.494612 229.939043 
L 136.86886 229.939043 
L 136.86886 229.475922 
L 137.343676 229.475922 
L 137.343676 228.549681 
L 137.770782 228.549681 
L 137.770782 228.086561 
L 138.01518 228.086561 
L 138.01518 227.16032 
L 139.477614 227.16032 
L 139.572998 225.770958 
L 140.103868 225.770958 
L 140.103868 224.844717 
L 140.226464 224.844717 
L 140.226464 223.918476 
L 140.767727 223.918476 
L 140.767727 223.455355 
L 141.177393 223.455355 
L 141.177393 222.992235 
L 141.605898 222.992235 
L 141.605898 222.065994 
L 142.566605 222.065994 
L 142.566605 221.139753 
L 142.699628 221.139753 
L 142.699628 220.213512 
L 143.092717 220.213512 
L 143.092717 219.287271 
L 143.273169 219.287271 
L 143.273169 218.36103 
L 144.747789 218.36103 
L 144.747789 217.434789 
L 146.280909 217.434789 
L 146.280909 216.508548 
L 146.559258 216.508548 
L 146.559258 216.045427 
L 146.791364 216.045427 
L 146.791364 215.582307 
L 147.144103 215.582307 
L 147.144103 214.656066 
L 147.327999 214.656066 
L 147.409112 213.729825 
L 147.769524 213.729825 
L 147.769524 212.803583 
L 148.200145 212.803583 
L 148.200145 211.877342 
L 148.468742 211.877342 
L 148.468742 210.951101 
L 149.305096 210.951101 
L 149.305096 210.02486 
L 149.539426 210.02486 
L 149.539426 209.56174 
L 149.770648 209.56174 
L 149.770648 208.635499 
L 150.120495 208.635499 
L 150.120495 207.709258 
L 150.258492 207.709258 
L 150.292822 206.783017 
L 150.54816 206.783017 
L 150.54816 205.856776 
L 151.276281 205.856776 
L 151.292481 204.467414 
L 152.114793 204.467414 
L 152.207228 203.078053 
L 152.436193 203.078053 
L 152.436193 202.151812 
L 153.047115 202.151812 
L 153.047115 201.688691 
L 153.736164 201.688691 
L 153.792374 200.299329 
L 154.412564 200.299329 
L 154.46664 199.373088 
L 155.232454 199.373088 
L 155.232454 198.909968 
L 155.34833 198.909968 
L 155.34833 198.446847 
L 156.260804 198.446847 
L 156.260804 197.983727 
L 156.976607 197.983727 
L 157.058236 196.594365 
L 157.460743 196.594365 
L 157.460743 196.131245 
L 157.61918 196.131245 
L 157.61918 195.668124 
L 158.184468 195.668124 
L 158.184468 194.278763 
L 159.07735 194.278763 
L 159.07735 193.815642 
L 159.797958 193.815642 
L 159.797958 193.352522 
L 160.461277 193.352522 
L 160.461277 192.889401 
L 160.793103 192.889401 
L 160.793103 192.426281 
L 162.016937 192.426281 
L 162.016937 191.96316 
L 162.191157 191.96316 
L 162.191157 191.50004 
L 162.372234 191.50004 
L 162.372234 190.573799 
L 163.299319 190.573799 
L 163.299319 190.110678 
L 163.517565 190.110678 
L 163.517565 189.184437 
L 163.804376 189.184437 
L 163.804376 188.721316 
L 164.607388 188.721316 
L 164.607388 188.258196 
L 165.076435 188.258196 
L 165.076435 187.331955 
L 165.244578 187.331955 
L 165.244578 186.868834 
L 165.490206 186.868834 
L 165.59035 185.942593 
L 165.689922 185.942593 
L 165.689922 185.016352 
L 166.20699 185.016352 
L 166.20699 184.553232 
L 166.58834 184.553232 
L 166.58834 184.090111 
L 167.442734 184.090111 
L 167.442734 183.16387 
L 167.873511 183.16387 
L 167.892273 181.774509 
L 168.078792 181.774509 
L 168.078792 180.848268 
L 168.72825 180.848268 
L 168.72825 180.385147 
L 169.047054 180.385147 
L 169.047054 179.922027 
L 169.267955 179.922027 
L 169.267955 178.995786 
L 169.763406 178.995786 
L 169.763406 178.532665 
L 169.87534 178.532665 
L 169.87534 177.606424 
L 171.07183 177.606424 
L 171.07183 177.143304 
L 171.391826 177.143304 
L 171.391826 176.680183 
L 171.655755 176.680183 
L 171.655755 176.217062 
L 171.910786 176.217062 
L 171.910786 175.753942 
L 172.434028 175.753942 
L 172.434028 175.290821 
L 172.61137 175.290821 
L 172.649478 173.438339 
L 173.937789 173.438339 
L 173.937789 172.975219 
L 175.025688 172.975219 
L 175.054729 172.048978 
L 175.358815 172.048978 
L 175.358815 171.585857 
L 176.092705 171.585857 
L 176.092705 171.122737 
L 176.286908 171.122737 
L 176.317781 170.196496 
L 177.310727 170.196496 
L 177.310727 169.733375 
L 177.653356 169.733375 
L 177.653356 169.270255 
L 178.312182 169.270255 
L 178.312182 168.807134 
L 178.591926 168.807134 
L 178.591926 168.344014 
L 178.873915 168.344014 
L 178.930433 166.954652 
L 179.046221 166.954652 
L 179.046221 166.491532 
L 179.820138 166.491532 
L 179.820138 165.565291 
L 181.710459 165.565291 
L 181.735911 164.63905 
L 181.993985 164.63905 
L 181.993985 164.175929 
L 182.406736 164.175929 
L 182.439337 162.323447 
L 183.299894 162.323447 
L 183.374658 160.934085 
L 184.210939 160.934085 
L 184.210939 160.470965 
L 184.924415 160.470965 
L 184.924415 160.007844 
L 185.044047 160.007844 
L 185.044047 159.081603 
L 185.555446 159.081603 
L 185.555446 158.618483 
L 185.727129 158.618483 
L 185.821287 156.30288 
L 186.701937 156.30288 
L 186.754999 154.450398 
L 188.285832 154.450398 
L 188.394199 153.524157 
L 188.620362 153.524157 
L 188.620362 153.061037 
L 189.426011 153.061037 
L 189.426011 152.597916 
L 189.574478 152.597916 
L 189.574478 152.134795 
L 189.700225 152.134795 
L 189.700225 151.208554 
L 190.054586 151.208554 
L 190.054586 150.745434 
L 190.730605 150.745434 
L 190.730605 149.819193 
L 190.90353 149.819193 
L 190.90353 149.356072 
L 191.472181 149.356072 
L 191.498034 148.429831 
L 191.81483 148.429831 
L 191.81483 147.966711 
L 191.930191 147.966711 
L 191.930191 147.50359 
L 192.941425 147.50359 
L 192.941425 147.04047 
L 193.155624 147.04047 
L 193.155624 146.577349 
L 193.28435 146.577349 
L 193.329471 145.187988 
L 194.796664 145.187988 
L 194.796664 144.261747 
L 195.819134 144.261747 
L 195.819134 143.798626 
L 196.308734 143.798626 
L 196.308734 143.335506 
L 196.560555 143.335506 
L 196.560555 142.872385 
L 196.75035 142.872385 
L 196.762293 141.946144 
L 197.306488 141.946144 
L 197.306488 141.483024 
L 198.789926 141.483024 
L 198.789926 140.556783 
L 198.992809 140.556783 
L 199.078743 139.630541 
L 199.672749 139.630541 
L 199.73226 138.7043 
L 200.315488 138.7043 
L 200.315488 138.24118 
L 200.569742 138.24118 
L 200.569742 137.778059 
L 200.728334 137.778059 
L 200.728334 136.851818 
L 201.960092 136.851818 
L 202.052013 135.462457 
L 202.132048 135.462457 
L 202.132048 134.536216 
L 202.702633 134.536216 
L 202.702633 133.609975 
L 203.38057 133.609975 
L 203.38057 132.683734 
L 204.022117 132.683734 
L 204.022117 132.220613 
L 204.248193 132.220613 
L 204.248193 131.757493 
L 205.343896 131.757493 
L 205.350463 130.831252 
L 205.914714 130.831252 
L 205.914714 130.368131 
L 206.103704 130.368131 
L 206.103704 129.905011 
L 206.823072 129.905011 
L 206.823072 129.44189 
L 207.062148 129.44189 
L 207.118936 128.052529 
L 208.357466 128.052529 
L 208.357466 127.589408 
L 208.498131 127.589408 
L 208.498131 127.126287 
L 208.697391 127.126287 
L 208.697391 126.200046 
L 209.46089 126.200046 
L 209.46089 125.736926 
L 210.285523 125.736926 
L 210.285523 125.273805 
L 210.720971 125.273805 
L 210.720971 124.810685 
L 210.886946 124.810685 
L 210.886946 124.347564 
L 211.004465 124.347564 
L 211.004465 123.884444 
L 211.510394 123.884444 
L 211.524226 122.495082 
L 211.865 122.495082 
L 211.865 122.031962 
L 212.221398 122.031962 
L 212.221398 121.105721 
L 212.950379 121.105721 
L 212.950379 120.6426 
L 214.527934 120.6426 
L 214.527934 119.716359 
L 214.85716 119.716359 
L 214.85716 119.253239 
L 215.871085 119.253239 
L 215.871085 118.790118 
L 216.921596 118.790118 
L 216.921596 118.326998 
L 217.681536 118.326998 
L 217.684414 116.937636 
L 217.873664 116.937636 
L 217.873664 116.474516 
L 218.13465 116.474516 
L 218.13465 116.011395 
L 218.402491 116.011395 
L 218.402491 115.085154 
L 219.062612 115.085154 
L 219.062612 114.158913 
L 219.202309 114.158913 
L 219.202309 113.695792 
L 220.115677 113.695792 
L 220.115677 112.769551 
L 220.477663 112.769551 
L 220.477663 112.306431 
L 220.953187 112.306431 
L 220.953187 111.84331 
L 221.451192 111.84331 
L 221.488539 109.990828 
L 221.840681 109.990828 
L 221.840681 109.064587 
L 222.280072 109.064587 
L 222.280072 108.138346 
L 223.075563 108.138346 
L 223.075563 107.675226 
L 224.116185 107.675226 
L 224.116185 107.212105 
L 224.346495 107.212105 
L 224.346495 106.748985 
L 224.752436 106.748985 
L 224.752436 105.822744 
L 225.713598 105.822744 
L 225.713598 105.359623 
L 226.456129 105.359623 
L 226.456129 104.896503 
L 226.845245 104.896503 
L 226.845245 103.970262 
L 227.498658 103.970262 
L 227.498658 103.507141 
L 228.119575 103.507141 
L 228.198881 102.117779 
L 229.3742 102.117779 
L 229.3742 101.191538 
L 231.479024 101.191538 
L 231.479024 100.728418 
L 231.769809 100.728418 
L 231.769809 100.265297 
L 234.093829 100.265297 
L 234.093829 99.802177 
L 338.688 99.802177 
L 338.688 99.802177 
" style="fill:none;stroke:#000080;stroke-linecap:square;stroke-width:1.5;"/>
   </g>
   <g id="line2d_36">
    <defs>
     <path d="M 0 6 
C 1.591219 6 3.117479 5.367802 4.242641 4.242641 
C 5.367802 3.117479 6 1.591219 6 0 
C 6 -1.591219 5.367802 -3.117479 4.242641 -4.242641 
C 3.117479 -5.367802 1.591219 -6 0 -6 
C -1.591219 -6 -3.117479 -5.367802 -4.242641 -4.242641 
C -5.367802 -3.117479 -6 -1.591219 -6 0 
C -6 1.591219 -5.367802 3.117479 -4.242641 4.242641 
C -3.117479 5.367802 -1.591219 6 0 6 
z
" id="mc4e9447960" style="stroke:#000080;stroke-width:1.5;"/>
    </defs>
    <g>
     <use style="fill-opacity:0;stroke:#000080;stroke-width:1.5;" x="105.057436" xlink:href="#mc4e9447960" y="267.451805"/>
     <use style="fill-opacity:0;stroke:#000080;stroke-width:1.5;" x="156.976607" xlink:href="#mc4e9447960" y="197.983727"/>
     <use style="fill-opacity:0;stroke:#000080;stroke-width:1.5;" x="206.823072" xlink:href="#mc4e9447960" y="129.905011"/>
     <use style="fill-opacity:0;stroke:#000080;stroke-width:1.5;" x="234.093829" xlink:href="#mc4e9447960" y="99.802177"/>
     <use style="fill-opacity:0;stroke:#000080;stroke-width:1.5;" x="234.093829" xlink:href="#mc4e9447960" y="99.802177"/>
     <use style="fill-opacity:0;stroke:#000080;stroke-width:1.5;" x="338.688" xlink:href="#mc4e9447960" y="99.802177"/>
    </g>
   </g>
   <g id="line2d_37">
    <path style="fill:none;stroke:#000080;stroke-linecap:square;stroke-width:1.5;"/>
    <g/>
   </g>
   <g id="line2d_38">
    <path clip-path="url(#p02c60c4b5a)" d="M 234.201584 99.802177 
" style="fill:none;stroke:#000080;stroke-linecap:square;stroke-width:1.5;"/>
    <defs>
     <path d="M -12 12 
L 12 -12 
M -12 -12 
L 12 12 
" id="mc56f9238c0" style="stroke:#000080;"/>
    </defs>
    <g clip-path="url(#p02c60c4b5a)">
     <use style="fill:#000080;stroke:#000080;" x="234.201584" xlink:href="#mc56f9238c0" y="99.802177"/>
    </g>
   </g>
   <g id="line2d_39">
    <defs>
     <path d="M 0 1.5 
C 0.397805 1.5 0.77937 1.341951 1.06066 1.06066 
C 1.341951 0.77937 1.5 0.397805 1.5 0 
C 1.5 -0.397805 1.341951 -0.77937 1.06066 -1.06066 
C 0.77937 -1.341951 0.397805 -1.5 0 -1.5 
C -0.397805 -1.5 -0.77937 -1.341951 -1.06066 -1.06066 
C -1.341951 -0.77937 -1.5 -0.397805 -1.5 0 
C -1.5 0.397805 -1.341951 0.77937 -1.06066 1.06066 
C -0.77937 1.341951 -0.397805 1.5 0 1.5 
z
" id="mbd7499c643" style="stroke:#ff00ff;"/>
    </defs>
    <g>
     <use style="fill:#ff00ff;stroke:#ff00ff;" x="234.081471" xlink:href="#mbd7499c643" y="204.467414"/>
     <use style="fill:#ff00ff;stroke:#ff00ff;" x="234.081471" xlink:href="#mbd7499c643" y="204.467414"/>
    </g>
   </g>
   <g id="line2d_40">
    <path d="M 63.467834 298.944 
L 63.467834 289.218469 
L 100.040467 289.218469 
L 100.040467 288.755349 
L 100.641881 288.755349 
L 100.641881 288.292228 
L 101.223245 288.292228 
L 101.223245 287.829108 
L 102.330873 287.829108 
L 102.330873 287.365987 
L 102.597126 287.365987 
L 102.597126 286.439746 
L 105.285403 286.439746 
L 105.285403 285.976625 
L 105.951954 285.976625 
L 105.951954 285.050384 
L 107.811151 285.050384 
L 107.811151 284.587264 
L 109.668146 284.587264 
L 109.668146 284.124143 
L 112.877038 284.124143 
L 112.877038 283.197902 
L 113.022974 283.197902 
L 113.022974 281.808541 
L 115.958621 281.808541 
L 115.958621 281.34542 
L 117.820578 281.34542 
L 117.820578 280.8823 
L 119.097192 280.8823 
L 119.097192 279.956059 
L 120.093994 279.956059 
L 120.093994 279.492938 
L 120.759333 279.492938 
L 120.759333 279.029818 
L 123.029641 279.029818 
L 123.029641 278.566697 
L 123.985457 278.566697 
L 123.985457 278.103577 
L 125.255688 278.103577 
L 125.255688 277.640456 
L 125.399222 277.640456 
L 125.399222 276.714215 
L 126.304457 276.714215 
L 126.372183 274.861733 
L 130.127931 274.861733 
L 130.127931 274.398612 
L 130.61164 274.398612 
L 130.61164 273.935492 
L 133.124876 273.935492 
L 133.124876 273.009251 
L 133.622529 273.009251 
L 133.622529 272.08301 
L 135.076644 272.08301 
L 135.076644 271.619889 
L 135.321124 271.619889 
L 135.321124 271.156769 
L 135.482227 271.156769 
L 135.482227 270.693648 
L 136.942755 270.693648 
L 136.942755 269.767407 
L 137.70032 269.767407 
L 137.70032 268.841166 
L 139.02546 268.841166 
L 139.02546 268.378046 
L 139.155847 268.378046 
L 139.155847 267.914925 
L 140.103868 267.914925 
L 140.103868 267.451805 
L 140.88576 267.451805 
L 140.973763 266.062443 
L 142.051655 266.062443 
L 142.051655 265.599323 
L 142.351634 265.599323 
L 142.351634 265.136202 
L 143.40093 265.136202 
L 143.40093 264.673082 
L 144.294175 264.673082 
L 144.342484 262.8206 
L 146.40993 262.8206 
L 146.40993 262.357479 
L 146.622867 262.357479 
L 146.622867 261.894358 
L 146.978997 261.894358 
L 146.978997 261.431238 
L 147.429332 261.431238 
L 147.429332 260.504997 
L 148.468742 260.504997 
L 148.468742 260.041876 
L 148.845415 260.041876 
L 148.845415 259.578756 
L 149.467659 259.578756 
L 149.467659 259.115635 
L 150.480434 259.115635 
L 150.480434 258.652515 
L 151.146137 258.652515 
L 151.146137 258.189394 
L 152.421022 258.189394 
L 152.421022 257.726274 
L 153.509492 257.726274 
L 153.509492 257.263153 
L 153.904255 257.263153 
L 153.904255 256.336912 
L 154.56087 256.336912 
L 154.641235 255.410671 
L 156.027868 255.410671 
L 156.027868 254.48443 
L 157.069866 254.48443 
L 157.174189 253.558189 
L 157.641697 253.558189 
L 157.641697 253.095069 
L 159.486982 253.095069 
L 159.486982 252.631948 
L 159.847601 252.631948 
L 159.847601 252.168828 
L 160.093714 252.168828 
L 160.093714 251.705707 
L 160.422949 251.705707 
L 160.422949 250.779466 
L 161.347658 250.779466 
L 161.347658 250.316346 
L 161.7078 250.316346 
L 161.7078 249.853225 
L 161.981883 249.853225 
L 161.981883 249.390104 
L 162.55145 249.390104 
L 162.559939 247.537622 
L 163.930348 247.537622 
L 163.930348 247.074502 
L 164.148635 247.074502 
L 164.148635 246.148261 
L 165.047026 246.148261 
L 165.047026 245.68514 
L 167.640438 245.68514 
L 167.640438 244.758899 
L 169.497498 244.758899 
L 169.497498 244.295779 
L 170.058475 244.295779 
L 170.058475 243.832658 
L 170.809423 243.832658 
L 170.809423 242.906417 
L 171.35599 242.906417 
L 171.35599 242.443297 
L 172.186589 242.443297 
L 172.186589 241.980176 
L 172.734918 241.980176 
L 172.739653 240.590815 
L 173.188276 240.590815 
L 173.188276 239.664574 
L 173.458374 239.664574 
L 173.458374 239.201453 
L 173.616647 239.201453 
L 173.616647 238.275212 
L 175.289425 238.275212 
L 175.289425 237.812091 
L 175.55729 237.812091 
L 175.55729 236.88585 
L 177.068663 236.88585 
L 177.068663 235.959609 
L 179.807517 235.959609 
L 179.807517 235.033368 
L 180.039542 235.033368 
L 180.039542 234.107127 
L 180.191499 234.107127 
L 180.191499 233.180886 
L 181.350166 233.180886 
L 181.350166 232.717766 
L 182.024587 232.717766 
L 182.024587 231.791525 
L 184.284347 231.791525 
L 184.284347 230.865284 
L 184.618101 230.865284 
L 184.618101 230.402163 
L 185.276265 230.402163 
L 185.276265 229.475922 
L 186.535339 229.475922 
L 186.535339 228.549681 
L 187.356952 228.549681 
L 187.356952 228.086561 
L 188.041484 228.086561 
L 188.041484 227.16032 
L 188.176787 227.16032 
L 188.176787 226.234079 
L 189.06222 226.234079 
L 189.06222 225.770958 
L 190.427661 225.770958 
L 190.427661 224.844717 
L 190.801325 224.844717 
L 190.801325 223.918476 
L 194.45116 223.918476 
L 194.45116 223.455355 
L 195.168191 223.455355 
L 195.168191 222.992235 
L 197.819613 222.992235 
L 197.819613 222.529114 
L 203.171842 222.529114 
L 203.171842 221.602873 
L 205.103573 221.602873 
L 205.103573 220.676632 
L 205.686477 220.676632 
L 205.686477 219.750391 
L 210.927267 219.750391 
L 210.927267 218.82415 
L 211.190759 218.82415 
L 211.190759 217.897909 
L 217.093604 217.897909 
L 217.093604 216.971668 
L 217.839472 216.971668 
L 217.839472 216.508548 
L 219.252025 216.508548 
L 219.252025 216.045427 
L 219.86482 216.045427 
L 219.86482 215.582307 
L 222.113177 215.582307 
L 222.113177 214.656066 
L 222.727261 214.656066 
L 222.727261 213.729825 
L 225.246167 213.729825 
L 225.246167 212.803583 
L 226.535776 212.803583 
L 226.584858 210.951101 
L 226.993094 210.951101 
L 226.993094 210.487981 
L 227.783178 210.487981 
L 227.783178 209.56174 
L 228.346469 209.56174 
L 228.346469 209.098619 
L 228.60029 209.098619 
L 228.60029 208.172378 
L 228.809464 208.172378 
L 228.809464 207.246137 
L 230.34211 207.246137 
L 230.34211 206.783017 
L 230.511524 206.783017 
L 230.571068 204.930535 
L 234.081471 204.930535 
L 234.081471 204.467414 
L 338.688 204.467414 
L 338.688 204.467414 
" style="fill:none;stroke:#ff00ff;stroke-linecap:square;stroke-width:1.5;"/>
   </g>
   <g id="line2d_41">
    <defs>
     <path d="M 0 8.485281 
L 5.091169 0 
L 0 -8.485281 
L -5.091169 0 
z
" id="mf28bc978c9" style="stroke:#ff00ff;stroke-linejoin:miter;stroke-width:1.5;"/>
    </defs>
    <g>
     <use style="fill-opacity:0;stroke:#ff00ff;stroke-linejoin:miter;stroke-width:1.5;" x="139.155847" xlink:href="#mf28bc978c9" y="268.378046"/>
     <use style="fill-opacity:0;stroke:#ff00ff;stroke-linejoin:miter;stroke-width:1.5;" x="189.06222" xlink:href="#mf28bc978c9" y="225.770958"/>
     <use style="fill-opacity:0;stroke:#ff00ff;stroke-linejoin:miter;stroke-width:1.5;" x="234.081471" xlink:href="#mf28bc978c9" y="204.930535"/>
     <use style="fill-opacity:0;stroke:#ff00ff;stroke-linejoin:miter;stroke-width:1.5;" x="234.081471" xlink:href="#mf28bc978c9" y="204.467414"/>
     <use style="fill-opacity:0;stroke:#ff00ff;stroke-linejoin:miter;stroke-width:1.5;" x="338.688" xlink:href="#mf28bc978c9" y="204.467414"/>
    </g>
   </g>
   <g id="line2d_42">
    <path style="fill:none;stroke:#ff00ff;stroke-linecap:square;stroke-width:1.5;"/>
    <g/>
   </g>
   <g id="line2d_43">
    <path clip-path="url(#p02c60c4b5a)" d="M 234.201166 204.467414 
" style="fill:none;stroke:#ff00ff;stroke-linecap:square;stroke-width:1.5;"/>
    <defs>
     <path d="M -12 12 
L 12 -12 
M -12 -12 
L 12 12 
" id="m635313f12e" style="stroke:#ff00ff;"/>
    </defs>
    <g clip-path="url(#p02c60c4b5a)">
     <use style="fill:#ff00ff;stroke:#ff00ff;" x="234.201166" xlink:href="#m635313f12e" y="204.467414"/>
    </g>
   </g>
   <g id="line2d_44">
    <path d="M 338.688 204.467414 
L 369.60768 293.571802 
" style="fill:none;stroke:#ff00ff;stroke-linecap:square;stroke-width:1.5;"/>
    <g>
     <use style="fill-opacity:0;stroke:#ff00ff;stroke-linejoin:miter;stroke-width:1.5;" x="338.688" xlink:href="#mf28bc978c9" y="204.467414"/>
     <use style="fill-opacity:0;stroke:#ff00ff;stroke-linejoin:miter;stroke-width:1.5;" x="369.60768" xlink:href="#mf28bc978c9" y="293.571802"/>
    </g>
   </g>
   <g id="line2d_45">
    <path d="M 338.688 99.802177 
L 369.60768 164.63905 
" style="fill:none;stroke:#000080;stroke-linecap:square;stroke-width:1.5;"/>
    <g>
     <use style="fill-opacity:0;stroke:#000080;stroke-width:1.5;" x="338.688" xlink:href="#mc4e9447960" y="99.802177"/>
     <use style="fill-opacity:0;stroke:#000080;stroke-width:1.5;" x="369.60768" xlink:href="#mc4e9447960" y="164.63905"/>
    </g>
   </g>
   <g id="line2d_46">
    <path d="M 338.688 298.944 
L 338.688 30.334099 
" style="fill:none;stroke:#000000;stroke-linecap:square;stroke-width:1.5;"/>
   </g>
   <g id="patch_3">
    <path d="M 57.6 298.944 
L 57.6 27.648 
" style="fill:none;stroke:#000000;stroke-linecap:square;stroke-linejoin:miter;stroke-width:0.8;"/>
   </g>
   <g id="patch_4">
    <path d="M 338.688 298.944 
L 338.688 27.648 
" style="fill:none;stroke:#000000;stroke-linecap:square;stroke-linejoin:miter;stroke-width:0.8;"/>
   </g>
   <g id="patch_5">
    <path d="M 57.6 298.944 
L 338.688 298.944 
" style="fill:none;stroke:#000000;stroke-linecap:square;stroke-linejoin:miter;stroke-width:0.8;"/>
   </g>
   <g id="patch_6">
    <path d="M 57.6 27.648 
L 338.688 27.648 
" style="fill:none;stroke:#000000;stroke-linecap:square;stroke-linejoin:miter;stroke-width:0.8;"/>
   </g>
   <g id="text_13">
    <!-- MultiGLOD -->
    <g transform="translate(375.22944 298.262739)scale(0.17 -0.17)">
     <defs>
      <path d="M 628 4666 
L 1569 4666 
L 2759 1491 
L 3956 4666 
L 4897 4666 
L 4897 0 
L 4281 0 
L 4281 4097 
L 3078 897 
L 2444 897 
L 1241 4097 
L 1241 0 
L 628 0 
L 628 4666 
z
" id="DejaVuSans-4d" transform="scale(0.015625)"/>
      <path d="M 3809 666 
L 3809 1919 
L 2778 1919 
L 2778 2438 
L 4434 2438 
L 4434 434 
Q 4069 175 3628 42 
Q 3188 -91 2688 -91 
Q 1594 -91 976 548 
Q 359 1188 359 2328 
Q 359 3472 976 4111 
Q 1594 4750 2688 4750 
Q 3144 4750 3555 4637 
Q 3966 4525 4313 4306 
L 4313 3634 
Q 3963 3931 3569 4081 
Q 3175 4231 2741 4231 
Q 1884 4231 1454 3753 
Q 1025 3275 1025 2328 
Q 1025 1384 1454 906 
Q 1884 428 2741 428 
Q 3075 428 3337 486 
Q 3600 544 3809 666 
z
" id="DejaVuSans-47" transform="scale(0.015625)"/>
      <path d="M 628 4666 
L 1259 4666 
L 1259 531 
L 3531 531 
L 3531 0 
L 628 0 
L 628 4666 
z
" id="DejaVuSans-4c" transform="scale(0.015625)"/>
      <path d="M 2522 4238 
Q 1834 4238 1429 3725 
Q 1025 3213 1025 2328 
Q 1025 1447 1429 934 
Q 1834 422 2522 422 
Q 3209 422 3611 934 
Q 4013 1447 4013 2328 
Q 4013 3213 3611 3725 
Q 3209 4238 2522 4238 
z
M 2522 4750 
Q 3503 4750 4090 4092 
Q 4678 3434 4678 2328 
Q 4678 1225 4090 567 
Q 3503 -91 2522 -91 
Q 1538 -91 948 565 
Q 359 1222 359 2328 
Q 359 3434 948 4092 
Q 1538 4750 2522 4750 
z
" id="DejaVuSans-4f" transform="scale(0.015625)"/>
      <path d="M 1259 4147 
L 1259 519 
L 2022 519 
Q 2988 519 3436 956 
Q 3884 1394 3884 2338 
Q 3884 3275 3436 3711 
Q 2988 4147 2022 4147 
L 1259 4147 
z
M 628 4666 
L 1925 4666 
Q 3281 4666 3915 4102 
Q 4550 3538 4550 2338 
Q 4550 1131 3912 565 
Q 3275 0 1925 0 
L 628 0 
L 628 4666 
z
" id="DejaVuSans-44" transform="scale(0.015625)"/>
     </defs>
     <use xlink:href="#DejaVuSans-4d"/>
     <use x="86.279297" xlink:href="#DejaVuSans-75"/>
     <use x="149.658203" xlink:href="#DejaVuSans-6c"/>
     <use x="177.441406" xlink:href="#DejaVuSans-74"/>
     <use x="216.650391" xlink:href="#DejaVuSans-69"/>
     <use x="244.433594" xlink:href="#DejaVuSans-47"/>
     <use x="321.923828" xlink:href="#DejaVuSans-4c"/>
     <use x="374.011719" xlink:href="#DejaVuSans-4f"/>
     <use x="452.722656" xlink:href="#DejaVuSans-44"/>
    </g>
   </g>
   <g id="text_14">
    <!-- DMS Brock -->
    <g transform="translate(375.22944 169.329987)scale(0.17 -0.17)">
     <defs>
      <path d="M 3425 4513 
L 3425 3897 
Q 3066 4069 2747 4153 
Q 2428 4238 2131 4238 
Q 1616 4238 1336 4038 
Q 1056 3838 1056 3469 
Q 1056 3159 1242 3001 
Q 1428 2844 1947 2747 
L 2328 2669 
Q 3034 2534 3370 2195 
Q 3706 1856 3706 1288 
Q 3706 609 3251 259 
Q 2797 -91 1919 -91 
Q 1588 -91 1214 -16 
Q 841 59 441 206 
L 441 856 
Q 825 641 1194 531 
Q 1563 422 1919 422 
Q 2459 422 2753 634 
Q 3047 847 3047 1241 
Q 3047 1584 2836 1778 
Q 2625 1972 2144 2069 
L 1759 2144 
Q 1053 2284 737 2584 
Q 422 2884 422 3419 
Q 422 4038 858 4394 
Q 1294 4750 2059 4750 
Q 2388 4750 2728 4690 
Q 3069 4631 3425 4513 
z
" id="DejaVuSans-53" transform="scale(0.015625)"/>
      <path d="M 1259 2228 
L 1259 519 
L 2272 519 
Q 2781 519 3026 730 
Q 3272 941 3272 1375 
Q 3272 1813 3026 2020 
Q 2781 2228 2272 2228 
L 1259 2228 
z
M 1259 4147 
L 1259 2741 
L 2194 2741 
Q 2656 2741 2882 2914 
Q 3109 3088 3109 3444 
Q 3109 3797 2882 3972 
Q 2656 4147 2194 4147 
L 1259 4147 
z
M 628 4666 
L 2241 4666 
Q 2963 4666 3353 4366 
Q 3744 4066 3744 3513 
Q 3744 3084 3544 2831 
Q 3344 2578 2956 2516 
Q 3422 2416 3680 2098 
Q 3938 1781 3938 1306 
Q 3938 681 3513 340 
Q 3088 0 2303 0 
L 628 0 
L 628 4666 
z
" id="DejaVuSans-42" transform="scale(0.015625)"/>
      <path d="M 581 4863 
L 1159 4863 
L 1159 1991 
L 2875 3500 
L 3609 3500 
L 1753 1863 
L 3688 0 
L 2938 0 
L 1159 1709 
L 1159 0 
L 581 0 
L 581 4863 
z
" id="DejaVuSans-6b" transform="scale(0.015625)"/>
     </defs>
     <use xlink:href="#DejaVuSans-44"/>
     <use x="77.001953" xlink:href="#DejaVuSans-4d"/>
     <use x="163.28125" xlink:href="#DejaVuSans-53"/>
     <use x="226.757812" xlink:href="#DejaVuSans-20"/>
     <use x="258.544922" xlink:href="#DejaVuSans-42"/>
     <use x="327.148438" xlink:href="#DejaVuSans-72"/>
     <use x="366.011719" xlink:href="#DejaVuSans-6f"/>
     <use x="427.193359" xlink:href="#DejaVuSans-63"/>
     <use x="482.173828" xlink:href="#DejaVuSans-6b"/>
    </g>
   </g>
   <g id="text_15">
    <!-- best 2016 -->
    <g transform="translate(375.22944 40.397235)scale(0.17 -0.17)">
     <defs>
      <path d="M 3116 1747 
Q 3116 2381 2855 2742 
Q 2594 3103 2138 3103 
Q 1681 3103 1420 2742 
Q 1159 2381 1159 1747 
Q 1159 1113 1420 752 
Q 1681 391 2138 391 
Q 2594 391 2855 752 
Q 3116 1113 3116 1747 
z
M 1159 2969 
Q 1341 3281 1617 3432 
Q 1894 3584 2278 3584 
Q 2916 3584 3314 3078 
Q 3713 2572 3713 1747 
Q 3713 922 3314 415 
Q 2916 -91 2278 -91 
Q 1894 -91 1617 61 
Q 1341 213 1159 525 
L 1159 0 
L 581 0 
L 581 4863 
L 1159 4863 
L 1159 2969 
z
" id="DejaVuSans-62" transform="scale(0.015625)"/>
     </defs>
     <use xlink:href="#DejaVuSans-62"/>
     <use x="63.476562" xlink:href="#DejaVuSans-65"/>
     <use x="125" xlink:href="#DejaVuSans-73"/>
     <use x="177.099609" xlink:href="#DejaVuSans-74"/>
     <use x="216.308594" xlink:href="#DejaVuSans-20"/>
     <use x="248.095703" xlink:href="#DejaVuSans-32"/>
     <use x="311.71875" xlink:href="#DejaVuSans-30"/>
     <use x="375.341797" xlink:href="#DejaVuSans-31"/>
     <use x="438.964844" xlink:href="#DejaVuSans-36"/>
    </g>
   </g>
   <g id="text_16">
    <!-- bbob-biobj f6, 5-D -->
    <g transform="translate(60.41088 38.111366)scale(0.102 -0.102)">
     <defs>
      <path d="M 603 3500 
L 1178 3500 
L 1178 -63 
Q 1178 -731 923 -1031 
Q 669 -1331 103 -1331 
L -116 -1331 
L -116 -844 
L 38 -844 
Q 366 -844 484 -692 
Q 603 -541 603 -63 
L 603 3500 
z
M 603 4863 
L 1178 4863 
L 1178 4134 
L 603 4134 
L 603 4863 
z
" id="DejaVuSans-6a" transform="scale(0.015625)"/>
      <path d="M 691 4666 
L 3169 4666 
L 3169 4134 
L 1269 4134 
L 1269 2991 
Q 1406 3038 1543 3061 
Q 1681 3084 1819 3084 
Q 2600 3084 3056 2656 
Q 3513 2228 3513 1497 
Q 3513 744 3044 326 
Q 2575 -91 1722 -91 
Q 1428 -91 1123 -41 
Q 819 9 494 109 
L 494 744 
Q 775 591 1075 516 
Q 1375 441 1709 441 
Q 2250 441 2565 725 
Q 2881 1009 2881 1497 
Q 2881 1984 2565 2268 
Q 2250 2553 1709 2553 
Q 1456 2553 1204 2497 
Q 953 2441 691 2322 
L 691 4666 
z
" id="DejaVuSans-35" transform="scale(0.015625)"/>
     </defs>
     <use xlink:href="#DejaVuSans-62"/>
     <use x="63.476562" xlink:href="#DejaVuSans-62"/>
     <use x="126.953125" xlink:href="#DejaVuSans-6f"/>
     <use x="188.134766" xlink:href="#DejaVuSans-62"/>
     <use x="251.611328" xlink:href="#DejaVuSans-2d"/>
     <use x="287.695312" xlink:href="#DejaVuSans-62"/>
     <use x="351.171875" xlink:href="#DejaVuSans-69"/>
     <use x="378.955078" xlink:href="#DejaVuSans-6f"/>
     <use x="440.136719" xlink:href="#DejaVuSans-62"/>
     <use x="503.613281" xlink:href="#DejaVuSans-6a"/>
     <use x="531.396484" xlink:href="#DejaVuSans-20"/>
     <use x="563.183594" xlink:href="#DejaVuSans-66"/>
     <use x="598.388672" xlink:href="#DejaVuSans-36"/>
     <use x="662.011719" xlink:href="#DejaVuSans-2c"/>
     <use x="693.798828" xlink:href="#DejaVuSans-20"/>
     <use x="725.585938" xlink:href="#DejaVuSans-35"/>
     <use x="789.208984" xlink:href="#DejaVuSans-2d"/>
     <use x="825.292969" xlink:href="#DejaVuSans-44"/>
    </g>
    <!-- 58 targets: 1..-1.0e-4 -->
    <g transform="translate(60.41088 49.533135)scale(0.102 -0.102)">
     <defs>
      <path d="M 750 794 
L 1409 794 
L 1409 0 
L 750 0 
L 750 794 
z
M 750 3309 
L 1409 3309 
L 1409 2516 
L 750 2516 
L 750 3309 
z
" id="DejaVuSans-3a" transform="scale(0.015625)"/>
     </defs>
     <use xlink:href="#DejaVuSans-35"/>
     <use x="63.623047" xlink:href="#DejaVuSans-38"/>
     <use x="127.246094" xlink:href="#DejaVuSans-20"/>
     <use x="159.033203" xlink:href="#DejaVuSans-74"/>
     <use x="198.242188" xlink:href="#DejaVuSans-61"/>
     <use x="259.521484" xlink:href="#DejaVuSans-72"/>
     <use x="298.884766" xlink:href="#DejaVuSans-67"/>
     <use x="362.361328" xlink:href="#DejaVuSans-65"/>
     <use x="423.884766" xlink:href="#DejaVuSans-74"/>
     <use x="463.09375" xlink:href="#DejaVuSans-73"/>
     <use x="515.193359" xlink:href="#DejaVuSans-3a"/>
     <use x="548.884766" xlink:href="#DejaVuSans-20"/>
     <use x="580.671875" xlink:href="#DejaVuSans-31"/>
     <use x="644.294922" xlink:href="#DejaVuSans-2e"/>
     <use x="676.082031" xlink:href="#DejaVuSans-2e"/>
     <use x="707.869141" xlink:href="#DejaVuSans-2d"/>
     <use x="743.953125" xlink:href="#DejaVuSans-31"/>
     <use x="807.576172" xlink:href="#DejaVuSans-2e"/>
     <use x="839.363281" xlink:href="#DejaVuSans-30"/>
     <use x="902.986328" xlink:href="#DejaVuSans-65"/>
     <use x="964.509766" xlink:href="#DejaVuSans-2d"/>
     <use x="1000.59375" xlink:href="#DejaVuSans-34"/>
    </g>
    <!-- 10 instances -->
    <g transform="translate(60.41088 60.954904)scale(0.102 -0.102)">
     <use xlink:href="#DejaVuSans-31"/>
     <use x="63.623047" xlink:href="#DejaVuSans-30"/>
     <use x="127.246094" xlink:href="#DejaVuSans-20"/>
     <use x="159.033203" xlink:href="#DejaVuSans-69"/>
     <use x="186.816406" xlink:href="#DejaVuSans-6e"/>
     <use x="250.195312" xlink:href="#DejaVuSans-73"/>
     <use x="302.294922" xlink:href="#DejaVuSans-74"/>
     <use x="341.503906" xlink:href="#DejaVuSans-61"/>
     <use x="402.783203" xlink:href="#DejaVuSans-6e"/>
     <use x="466.162109" xlink:href="#DejaVuSans-63"/>
     <use x="521.142578" xlink:href="#DejaVuSans-65"/>
     <use x="582.666016" xlink:href="#DejaVuSans-73"/>
    </g>
   </g>
   <g id="text_17">
    <!-- v2.4.1.1, hv-hash=ff0e71e8cd978373 -->
    <g style="fill:#808080;" transform="translate(103.108062 294.151352)scale(0.1 -0.1)">
     <defs>
      <path d="M 3513 2113 
L 3513 0 
L 2938 0 
L 2938 2094 
Q 2938 2591 2744 2837 
Q 2550 3084 2163 3084 
Q 1697 3084 1428 2787 
Q 1159 2491 1159 1978 
L 1159 0 
L 581 0 
L 581 4863 
L 1159 4863 
L 1159 2956 
Q 1366 3272 1645 3428 
Q 1925 3584 2291 3584 
Q 2894 3584 3203 3211 
Q 3513 2838 3513 2113 
z
" id="DejaVuSans-68" transform="scale(0.015625)"/>
      <path d="M 678 2906 
L 4684 2906 
L 4684 2381 
L 678 2381 
L 678 2906 
z
M 678 1631 
L 4684 1631 
L 4684 1100 
L 678 1100 
L 678 1631 
z
" id="DejaVuSans-3d" transform="scale(0.015625)"/>
      <path d="M 525 4666 
L 3525 4666 
L 3525 4397 
L 1831 0 
L 1172 0 
L 2766 4134 
L 525 4134 
L 525 4666 
z
" id="DejaVuSans-37" transform="scale(0.015625)"/>
      <path d="M 703 97 
L 703 672 
Q 941 559 1184 500 
Q 1428 441 1663 441 
Q 2288 441 2617 861 
Q 2947 1281 2994 2138 
Q 2813 1869 2534 1725 
Q 2256 1581 1919 1581 
Q 1219 1581 811 2004 
Q 403 2428 403 3163 
Q 403 3881 828 4315 
Q 1253 4750 1959 4750 
Q 2769 4750 3195 4129 
Q 3622 3509 3622 2328 
Q 3622 1225 3098 567 
Q 2575 -91 1691 -91 
Q 1453 -91 1209 -44 
Q 966 3 703 97 
z
M 1959 2075 
Q 2384 2075 2632 2365 
Q 2881 2656 2881 3163 
Q 2881 3666 2632 3958 
Q 2384 4250 1959 4250 
Q 1534 4250 1286 3958 
Q 1038 3666 1038 3163 
Q 1038 2656 1286 2365 
Q 1534 2075 1959 2075 
z
" id="DejaVuSans-39" transform="scale(0.015625)"/>
      <path d="M 2597 2516 
Q 3050 2419 3304 2112 
Q 3559 1806 3559 1356 
Q 3559 666 3084 287 
Q 2609 -91 1734 -91 
Q 1441 -91 1130 -33 
Q 819 25 488 141 
L 488 750 
Q 750 597 1062 519 
Q 1375 441 1716 441 
Q 2309 441 2620 675 
Q 2931 909 2931 1356 
Q 2931 1769 2642 2001 
Q 2353 2234 1838 2234 
L 1294 2234 
L 1294 2753 
L 1863 2753 
Q 2328 2753 2575 2939 
Q 2822 3125 2822 3475 
Q 2822 3834 2567 4026 
Q 2313 4219 1838 4219 
Q 1578 4219 1281 4162 
Q 984 4106 628 3988 
L 628 4550 
Q 988 4650 1302 4700 
Q 1616 4750 1894 4750 
Q 2613 4750 3031 4423 
Q 3450 4097 3450 3541 
Q 3450 3153 3228 2886 
Q 3006 2619 2597 2516 
z
" id="DejaVuSans-33" transform="scale(0.015625)"/>
     </defs>
     <use xlink:href="#DejaVuSans-76"/>
     <use x="59.179688" xlink:href="#DejaVuSans-32"/>
     <use x="122.802734" xlink:href="#DejaVuSans-2e"/>
     <use x="154.589844" xlink:href="#DejaVuSans-34"/>
     <use x="218.212891" xlink:href="#DejaVuSans-2e"/>
     <use x="250" xlink:href="#DejaVuSans-31"/>
     <use x="313.623047" xlink:href="#DejaVuSans-2e"/>
     <use x="345.410156" xlink:href="#DejaVuSans-31"/>
     <use x="409.033203" xlink:href="#DejaVuSans-2c"/>
     <use x="440.820312" xlink:href="#DejaVuSans-20"/>
     <use x="472.607422" xlink:href="#DejaVuSans-68"/>
     <use x="535.986328" xlink:href="#DejaVuSans-76"/>
     <use x="592.541016" xlink:href="#DejaVuSans-2d"/>
     <use x="628.625" xlink:href="#DejaVuSans-68"/>
     <use x="692.003906" xlink:href="#DejaVuSans-61"/>
     <use x="753.283203" xlink:href="#DejaVuSans-73"/>
     <use x="805.382812" xlink:href="#DejaVuSans-68"/>
     <use x="868.761719" xlink:href="#DejaVuSans-3d"/>
     <use x="952.550781" xlink:href="#DejaVuSans-66"/>
     <use x="987.755859" xlink:href="#DejaVuSans-66"/>
     <use x="1022.960938" xlink:href="#DejaVuSans-30"/>
     <use x="1086.583984" xlink:href="#DejaVuSans-65"/>
     <use x="1148.107422" xlink:href="#DejaVuSans-37"/>
     <use x="1211.730469" xlink:href="#DejaVuSans-31"/>
     <use x="1275.353516" xlink:href="#DejaVuSans-65"/>
     <use x="1336.876953" xlink:href="#DejaVuSans-38"/>
     <use x="1400.5" xlink:href="#DejaVuSans-63"/>
     <use x="1455.480469" xlink:href="#DejaVuSans-64"/>
     <use x="1518.957031" xlink:href="#DejaVuSans-39"/>
     <use x="1582.580078" xlink:href="#DejaVuSans-37"/>
     <use x="1646.203125" xlink:href="#DejaVuSans-38"/>
     <use x="1709.826172" xlink:href="#DejaVuSans-33"/>
     <use x="1773.449219" xlink:href="#DejaVuSans-37"/>
     <use x="1837.072266" xlink:href="#DejaVuSans-33"/>
    </g>
   </g>
   <g id="text_18">
    <!-- 6 Sphere/Different Powers -->
    <g transform="translate(67.423687 21.648)scale(0.2 -0.2)">
     <defs>
      <path d="M 1259 4147 
L 1259 2394 
L 2053 2394 
Q 2494 2394 2734 2622 
Q 2975 2850 2975 3272 
Q 2975 3691 2734 3919 
Q 2494 4147 2053 4147 
L 1259 4147 
z
M 628 4666 
L 2053 4666 
Q 2838 4666 3239 4311 
Q 3641 3956 3641 3272 
Q 3641 2581 3239 2228 
Q 2838 1875 2053 1875 
L 1259 1875 
L 1259 0 
L 628 0 
L 628 4666 
z
" id="DejaVuSans-50" transform="scale(0.015625)"/>
      <path d="M 269 3500 
L 844 3500 
L 1563 769 
L 2278 3500 
L 2956 3500 
L 3675 769 
L 4391 3500 
L 4966 3500 
L 4050 0 
L 3372 0 
L 2619 2869 
L 1863 0 
L 1184 0 
L 269 3500 
z
" id="DejaVuSans-77" transform="scale(0.015625)"/>
     </defs>
     <use xlink:href="#DejaVuSans-36"/>
     <use x="63.623047" xlink:href="#DejaVuSans-20"/>
     <use x="95.410156" xlink:href="#DejaVuSans-53"/>
     <use x="158.886719" xlink:href="#DejaVuSans-70"/>
     <use x="222.363281" xlink:href="#DejaVuSans-68"/>
     <use x="285.742188" xlink:href="#DejaVuSans-65"/>
     <use x="347.265625" xlink:href="#DejaVuSans-72"/>
     <use x="386.128906" xlink:href="#DejaVuSans-65"/>
     <use x="447.652344" xlink:href="#DejaVuSans-2f"/>
     <use x="481.34375" xlink:href="#DejaVuSans-44"/>
     <use x="558.345703" xlink:href="#DejaVuSans-69"/>
     <use x="586.128906" xlink:href="#DejaVuSans-66"/>
     <use x="621.333984" xlink:href="#DejaVuSans-66"/>
     <use x="656.539062" xlink:href="#DejaVuSans-65"/>
     <use x="718.0625" xlink:href="#DejaVuSans-72"/>
     <use x="756.925781" xlink:href="#DejaVuSans-65"/>
     <use x="818.449219" xlink:href="#DejaVuSans-6e"/>
     <use x="881.828125" xlink:href="#DejaVuSans-74"/>
     <use x="921.037109" xlink:href="#DejaVuSans-20"/>
     <use x="952.824219" xlink:href="#DejaVuSans-50"/>
     <use x="1009.501953" xlink:href="#DejaVuSans-6f"/>
     <use x="1070.683594" xlink:href="#DejaVuSans-77"/>
     <use x="1152.470703" xlink:href="#DejaVuSans-65"/>
     <use x="1213.994141" xlink:href="#DejaVuSans-72"/>
     <use x="1255.107422" xlink:href="#DejaVuSans-73"/>
    </g>
   </g>
  </g>
 </g>
 <defs>
  <clipPath id="p02c60c4b5a">
   <rect height="271.296" width="281.088" x="57.6" y="27.648"/>
  </clipPath>
 </defs>
</svg>
