<?xml version="1.0" encoding="utf-8" standalone="no"?>
<!DOCTYPE svg PUBLIC "-//W3C//DTD SVG 1.1//EN"
  "http://www.w3.org/Graphics/SVG/1.1/DTD/svg11.dtd">
<svg height="345.6pt" version="1.1" viewBox="0 0 460.8 345.6" width="460.8pt" xmlns="http://www.w3.org/2000/svg" xmlns:xlink="http://www.w3.org/1999/xlink">
 <metadata>
  <rdf:RDF xmlns:cc="http://creativecommons.org/ns#" xmlns:dc="http://purl.org/dc/elements/1.1/" xmlns:rdf="http://www.w3.org/1999/02/22-rdf-syntax-ns#">
   <cc:Work>
    <dc:type rdf:resource="http://purl.org/dc/dcmitype/StillImage"/>
    <dc:date>2022-03-29T13:02:57.573394</dc:date>
    <dc:format>image/svg+xml</dc:format>
    <dc:creator>
     <cc:Agent>
      <dc:title>Matplotlib v3.4.3, https://matplotlib.org/</dc:title>
     </cc:Agent>
    </dc:creator>
   </cc:Work>
  </rdf:RDF>
 </metadata>
 <defs>
  <style type="text/css">*{stroke-linecap:butt;stroke-linejoin:round;}</style>
 </defs>
 <g id="figure_1">
  <g id="patch_1">
   <path d="M 0 345.6 
L 460.8 345.6 
L 460.8 0 
L 0 0 
z
" style="fill:#ffffff;"/>
  </g>
  <g id="axes_1">
   <g id="patch_2">
    <path d="M 57.6 298.944 
L 338.688 298.944 
L 338.688 3.456 
L 57.6 3.456 
z
" style="fill:#ffffff;"/>
   </g>
   <g id="matplotlib.axis_1">
    <g id="xtick_1">
     <g id="line2d_1">
      <path clip-path="url(#p8995198d1c)" d="M 57.6 298.944 
L 57.6 3.456 
" style="fill:none;stroke:#b0b0b0;stroke-linecap:square;stroke-width:0.8;"/>
     </g>
     <g id="line2d_2">
      <defs>
       <path d="M 0 0 
L 0 3.5 
" id="mb843d360ec" style="stroke:#000000;stroke-width:0.8;"/>
      </defs>
      <g>
       <use style="stroke:#000000;stroke-width:0.8;" x="57.6" xlink:href="#mb843d360ec" y="298.944"/>
      </g>
     </g>
     <g id="text_1">
      <!-- 0 -->
      <g transform="translate(51.2375 321.140875)scale(0.2 -0.2)">
       <defs>
        <path d="M 2034 4250 
Q 1547 4250 1301 3770 
Q 1056 3291 1056 2328 
Q 1056 1369 1301 889 
Q 1547 409 2034 409 
Q 2525 409 2770 889 
Q 3016 1369 3016 2328 
Q 3016 3291 2770 3770 
Q 2525 4250 2034 4250 
z
M 2034 4750 
Q 2819 4750 3233 4129 
Q 3647 3509 3647 2328 
Q 3647 1150 3233 529 
Q 2819 -91 2034 -91 
Q 1250 -91 836 529 
Q 422 1150 422 2328 
Q 422 3509 836 4129 
Q 1250 4750 2034 4750 
z
" id="DejaVuSans-30" transform="scale(0.015625)"/>
       </defs>
       <use xlink:href="#DejaVuSans-30"/>
      </g>
     </g>
    </g>
    <g id="xtick_2">
     <g id="line2d_3">
      <path clip-path="url(#p8995198d1c)" d="M 137.910857 298.944 
L 137.910857 3.456 
" style="fill:none;stroke:#b0b0b0;stroke-linecap:square;stroke-width:0.8;"/>
     </g>
     <g id="line2d_4">
      <g>
       <use style="stroke:#000000;stroke-width:0.8;" x="137.910857" xlink:href="#mb843d360ec" y="298.944"/>
      </g>
     </g>
     <g id="text_2">
      <!-- 2 -->
      <g transform="translate(131.548357 321.140875)scale(0.2 -0.2)">
       <defs>
        <path d="M 1228 531 
L 3431 531 
L 3431 0 
L 469 0 
L 469 531 
Q 828 903 1448 1529 
Q 2069 2156 2228 2338 
Q 2531 2678 2651 2914 
Q 2772 3150 2772 3378 
Q 2772 3750 2511 3984 
Q 2250 4219 1831 4219 
Q 1534 4219 1204 4116 
Q 875 4013 500 3803 
L 500 4441 
Q 881 4594 1212 4672 
Q 1544 4750 1819 4750 
Q 2544 4750 2975 4387 
Q 3406 4025 3406 3419 
Q 3406 3131 3298 2873 
Q 3191 2616 2906 2266 
Q 2828 2175 2409 1742 
Q 1991 1309 1228 531 
z
" id="DejaVuSans-32" transform="scale(0.015625)"/>
       </defs>
       <use xlink:href="#DejaVuSans-32"/>
      </g>
     </g>
    </g>
    <g id="xtick_3">
     <g id="line2d_5">
      <path clip-path="url(#p8995198d1c)" d="M 218.221714 298.944 
L 218.221714 3.456 
" style="fill:none;stroke:#b0b0b0;stroke-linecap:square;stroke-width:0.8;"/>
     </g>
     <g id="line2d_6">
      <g>
       <use style="stroke:#000000;stroke-width:0.8;" x="218.221714" xlink:href="#mb843d360ec" y="298.944"/>
      </g>
     </g>
     <g id="text_3">
      <!-- 4 -->
      <g transform="translate(211.859214 321.140875)scale(0.2 -0.2)">
       <defs>
        <path d="M 2419 4116 
L 825 1625 
L 2419 1625 
L 2419 4116 
z
M 2253 4666 
L 3047 4666 
L 3047 1625 
L 3713 1625 
L 3713 1100 
L 3047 1100 
L 3047 0 
L 2419 0 
L 2419 1100 
L 313 1100 
L 313 1709 
L 2253 4666 
z
" id="DejaVuSans-34" transform="scale(0.015625)"/>
       </defs>
       <use xlink:href="#DejaVuSans-34"/>
      </g>
     </g>
    </g>
    <g id="xtick_4">
     <g id="line2d_7">
      <path clip-path="url(#p8995198d1c)" d="M 298.532571 298.944 
L 298.532571 3.456 
" style="fill:none;stroke:#b0b0b0;stroke-linecap:square;stroke-width:0.8;"/>
     </g>
     <g id="line2d_8">
      <g>
       <use style="stroke:#000000;stroke-width:0.8;" x="298.532571" xlink:href="#mb843d360ec" y="298.944"/>
      </g>
     </g>
     <g id="text_4">
      <!-- 6 -->
      <g transform="translate(292.170071 321.140875)scale(0.2 -0.2)">
       <defs>
        <path d="M 2113 2584 
Q 1688 2584 1439 2293 
Q 1191 2003 1191 1497 
Q 1191 994 1439 701 
Q 1688 409 2113 409 
Q 2538 409 2786 701 
Q 3034 994 3034 1497 
Q 3034 2003 2786 2293 
Q 2538 2584 2113 2584 
z
M 3366 4563 
L 3366 3988 
Q 3128 4100 2886 4159 
Q 2644 4219 2406 4219 
Q 1781 4219 1451 3797 
Q 1122 3375 1075 2522 
Q 1259 2794 1537 2939 
Q 1816 3084 2150 3084 
Q 2853 3084 3261 2657 
Q 3669 2231 3669 1497 
Q 3669 778 3244 343 
Q 2819 -91 2113 -91 
Q 1303 -91 875 529 
Q 447 1150 447 2328 
Q 447 3434 972 4092 
Q 1497 4750 2381 4750 
Q 2619 4750 2861 4703 
Q 3103 4656 3366 4563 
z
" id="DejaVuSans-36" transform="scale(0.015625)"/>
       </defs>
       <use xlink:href="#DejaVuSans-36"/>
      </g>
     </g>
    </g>
    <g id="xtick_5">
     <g id="line2d_9">
      <path clip-path="url(#p8995198d1c)" d="M 97.755429 298.944 
L 97.755429 3.456 
" style="fill:none;stroke:#b0b0b0;stroke-linecap:square;stroke-width:0.8;"/>
     </g>
     <g id="line2d_10">
      <defs>
       <path d="M 0 0 
L 0 2 
" id="mb97f830339" style="stroke:#000000;stroke-width:0.6;"/>
      </defs>
      <g>
       <use style="stroke:#000000;stroke-width:0.6;" x="97.755429" xlink:href="#mb97f830339" y="298.944"/>
      </g>
     </g>
    </g>
    <g id="xtick_6">
     <g id="line2d_11">
      <path clip-path="url(#p8995198d1c)" d="M 178.066286 298.944 
L 178.066286 3.456 
" style="fill:none;stroke:#b0b0b0;stroke-linecap:square;stroke-width:0.8;"/>
     </g>
     <g id="line2d_12">
      <g>
       <use style="stroke:#000000;stroke-width:0.6;" x="178.066286" xlink:href="#mb97f830339" y="298.944"/>
      </g>
     </g>
    </g>
    <g id="xtick_7">
     <g id="line2d_13">
      <path clip-path="url(#p8995198d1c)" d="M 258.377143 298.944 
L 258.377143 3.456 
" style="fill:none;stroke:#b0b0b0;stroke-linecap:square;stroke-width:0.8;"/>
     </g>
     <g id="line2d_14">
      <g>
       <use style="stroke:#000000;stroke-width:0.6;" x="258.377143" xlink:href="#mb97f830339" y="298.944"/>
      </g>
     </g>
    </g>
    <g id="xtick_8">
     <g id="line2d_15">
      <path clip-path="url(#p8995198d1c)" d="M 338.688 298.944 
L 338.688 3.456 
" style="fill:none;stroke:#b0b0b0;stroke-linecap:square;stroke-width:0.8;"/>
     </g>
     <g id="line2d_16">
      <g>
       <use style="stroke:#000000;stroke-width:0.6;" x="338.688" xlink:href="#mb97f830339" y="298.944"/>
      </g>
     </g>
    </g>
    <g id="text_5">
     <!-- log10(# f-evals / dimension) -->
     <g transform="translate(77.764078 342.217594)scale(0.17 -0.17)">
      <defs>
       <path d="M 603 4863 
L 1178 4863 
L 1178 0 
L 603 0 
L 603 4863 
z
" id="DejaVuSans-6c" transform="scale(0.015625)"/>
       <path d="M 1959 3097 
Q 1497 3097 1228 2736 
Q 959 2375 959 1747 
Q 959 1119 1226 758 
Q 1494 397 1959 397 
Q 2419 397 2687 759 
Q 2956 1122 2956 1747 
Q 2956 2369 2687 2733 
Q 2419 3097 1959 3097 
z
M 1959 3584 
Q 2709 3584 3137 3096 
Q 3566 2609 3566 1747 
Q 3566 888 3137 398 
Q 2709 -91 1959 -91 
Q 1206 -91 779 398 
Q 353 888 353 1747 
Q 353 2609 779 3096 
Q 1206 3584 1959 3584 
z
" id="DejaVuSans-6f" transform="scale(0.015625)"/>
       <path d="M 2906 1791 
Q 2906 2416 2648 2759 
Q 2391 3103 1925 3103 
Q 1463 3103 1205 2759 
Q 947 2416 947 1791 
Q 947 1169 1205 825 
Q 1463 481 1925 481 
Q 2391 481 2648 825 
Q 2906 1169 2906 1791 
z
M 3481 434 
Q 3481 -459 3084 -895 
Q 2688 -1331 1869 -1331 
Q 1566 -1331 1297 -1286 
Q 1028 -1241 775 -1147 
L 775 -588 
Q 1028 -725 1275 -790 
Q 1522 -856 1778 -856 
Q 2344 -856 2625 -561 
Q 2906 -266 2906 331 
L 2906 616 
Q 2728 306 2450 153 
Q 2172 0 1784 0 
Q 1141 0 747 490 
Q 353 981 353 1791 
Q 353 2603 747 3093 
Q 1141 3584 1784 3584 
Q 2172 3584 2450 3431 
Q 2728 3278 2906 2969 
L 2906 3500 
L 3481 3500 
L 3481 434 
z
" id="DejaVuSans-67" transform="scale(0.015625)"/>
       <path d="M 794 531 
L 1825 531 
L 1825 4091 
L 703 3866 
L 703 4441 
L 1819 4666 
L 2450 4666 
L 2450 531 
L 3481 531 
L 3481 0 
L 794 0 
L 794 531 
z
" id="DejaVuSans-31" transform="scale(0.015625)"/>
       <path d="M 1984 4856 
Q 1566 4138 1362 3434 
Q 1159 2731 1159 2009 
Q 1159 1288 1364 580 
Q 1569 -128 1984 -844 
L 1484 -844 
Q 1016 -109 783 600 
Q 550 1309 550 2009 
Q 550 2706 781 3412 
Q 1013 4119 1484 4856 
L 1984 4856 
z
" id="DejaVuSans-28" transform="scale(0.015625)"/>
       <path d="M 3272 2816 
L 2363 2816 
L 2100 1772 
L 3016 1772 
L 3272 2816 
z
M 2803 4594 
L 2478 3297 
L 3391 3297 
L 3719 4594 
L 4219 4594 
L 3897 3297 
L 4872 3297 
L 4872 2816 
L 3775 2816 
L 3519 1772 
L 4513 1772 
L 4513 1294 
L 3397 1294 
L 3072 0 
L 2572 0 
L 2894 1294 
L 1978 1294 
L 1656 0 
L 1153 0 
L 1478 1294 
L 494 1294 
L 494 1772 
L 1594 1772 
L 1856 2816 
L 850 2816 
L 850 3297 
L 1978 3297 
L 2297 4594 
L 2803 4594 
z
" id="DejaVuSans-23" transform="scale(0.015625)"/>
       <path id="DejaVuSans-20" transform="scale(0.015625)"/>
       <path d="M 2375 4863 
L 2375 4384 
L 1825 4384 
Q 1516 4384 1395 4259 
Q 1275 4134 1275 3809 
L 1275 3500 
L 2222 3500 
L 2222 3053 
L 1275 3053 
L 1275 0 
L 697 0 
L 697 3053 
L 147 3053 
L 147 3500 
L 697 3500 
L 697 3744 
Q 697 4328 969 4595 
Q 1241 4863 1831 4863 
L 2375 4863 
z
" id="DejaVuSans-66" transform="scale(0.015625)"/>
       <path d="M 313 2009 
L 1997 2009 
L 1997 1497 
L 313 1497 
L 313 2009 
z
" id="DejaVuSans-2d" transform="scale(0.015625)"/>
       <path d="M 3597 1894 
L 3597 1613 
L 953 1613 
Q 991 1019 1311 708 
Q 1631 397 2203 397 
Q 2534 397 2845 478 
Q 3156 559 3463 722 
L 3463 178 
Q 3153 47 2828 -22 
Q 2503 -91 2169 -91 
Q 1331 -91 842 396 
Q 353 884 353 1716 
Q 353 2575 817 3079 
Q 1281 3584 2069 3584 
Q 2775 3584 3186 3129 
Q 3597 2675 3597 1894 
z
M 3022 2063 
Q 3016 2534 2758 2815 
Q 2500 3097 2075 3097 
Q 1594 3097 1305 2825 
Q 1016 2553 972 2059 
L 3022 2063 
z
" id="DejaVuSans-65" transform="scale(0.015625)"/>
       <path d="M 191 3500 
L 800 3500 
L 1894 563 
L 2988 3500 
L 3597 3500 
L 2284 0 
L 1503 0 
L 191 3500 
z
" id="DejaVuSans-76" transform="scale(0.015625)"/>
       <path d="M 2194 1759 
Q 1497 1759 1228 1600 
Q 959 1441 959 1056 
Q 959 750 1161 570 
Q 1363 391 1709 391 
Q 2188 391 2477 730 
Q 2766 1069 2766 1631 
L 2766 1759 
L 2194 1759 
z
M 3341 1997 
L 3341 0 
L 2766 0 
L 2766 531 
Q 2569 213 2275 61 
Q 1981 -91 1556 -91 
Q 1019 -91 701 211 
Q 384 513 384 1019 
Q 384 1609 779 1909 
Q 1175 2209 1959 2209 
L 2766 2209 
L 2766 2266 
Q 2766 2663 2505 2880 
Q 2244 3097 1772 3097 
Q 1472 3097 1187 3025 
Q 903 2953 641 2809 
L 641 3341 
Q 956 3463 1253 3523 
Q 1550 3584 1831 3584 
Q 2591 3584 2966 3190 
Q 3341 2797 3341 1997 
z
" id="DejaVuSans-61" transform="scale(0.015625)"/>
       <path d="M 2834 3397 
L 2834 2853 
Q 2591 2978 2328 3040 
Q 2066 3103 1784 3103 
Q 1356 3103 1142 2972 
Q 928 2841 928 2578 
Q 928 2378 1081 2264 
Q 1234 2150 1697 2047 
L 1894 2003 
Q 2506 1872 2764 1633 
Q 3022 1394 3022 966 
Q 3022 478 2636 193 
Q 2250 -91 1575 -91 
Q 1294 -91 989 -36 
Q 684 19 347 128 
L 347 722 
Q 666 556 975 473 
Q 1284 391 1588 391 
Q 1994 391 2212 530 
Q 2431 669 2431 922 
Q 2431 1156 2273 1281 
Q 2116 1406 1581 1522 
L 1381 1569 
Q 847 1681 609 1914 
Q 372 2147 372 2553 
Q 372 3047 722 3315 
Q 1072 3584 1716 3584 
Q 2034 3584 2315 3537 
Q 2597 3491 2834 3397 
z
" id="DejaVuSans-73" transform="scale(0.015625)"/>
       <path d="M 1625 4666 
L 2156 4666 
L 531 -594 
L 0 -594 
L 1625 4666 
z
" id="DejaVuSans-2f" transform="scale(0.015625)"/>
       <path d="M 2906 2969 
L 2906 4863 
L 3481 4863 
L 3481 0 
L 2906 0 
L 2906 525 
Q 2725 213 2448 61 
Q 2172 -91 1784 -91 
Q 1150 -91 751 415 
Q 353 922 353 1747 
Q 353 2572 751 3078 
Q 1150 3584 1784 3584 
Q 2172 3584 2448 3432 
Q 2725 3281 2906 2969 
z
M 947 1747 
Q 947 1113 1208 752 
Q 1469 391 1925 391 
Q 2381 391 2643 752 
Q 2906 1113 2906 1747 
Q 2906 2381 2643 2742 
Q 2381 3103 1925 3103 
Q 1469 3103 1208 2742 
Q 947 2381 947 1747 
z
" id="DejaVuSans-64" transform="scale(0.015625)"/>
       <path d="M 603 3500 
L 1178 3500 
L 1178 0 
L 603 0 
L 603 3500 
z
M 603 4863 
L 1178 4863 
L 1178 4134 
L 603 4134 
L 603 4863 
z
" id="DejaVuSans-69" transform="scale(0.015625)"/>
       <path d="M 3328 2828 
Q 3544 3216 3844 3400 
Q 4144 3584 4550 3584 
Q 5097 3584 5394 3201 
Q 5691 2819 5691 2113 
L 5691 0 
L 5113 0 
L 5113 2094 
Q 5113 2597 4934 2840 
Q 4756 3084 4391 3084 
Q 3944 3084 3684 2787 
Q 3425 2491 3425 1978 
L 3425 0 
L 2847 0 
L 2847 2094 
Q 2847 2600 2669 2842 
Q 2491 3084 2119 3084 
Q 1678 3084 1418 2786 
Q 1159 2488 1159 1978 
L 1159 0 
L 581 0 
L 581 3500 
L 1159 3500 
L 1159 2956 
Q 1356 3278 1631 3431 
Q 1906 3584 2284 3584 
Q 2666 3584 2933 3390 
Q 3200 3197 3328 2828 
z
" id="DejaVuSans-6d" transform="scale(0.015625)"/>
       <path d="M 3513 2113 
L 3513 0 
L 2938 0 
L 2938 2094 
Q 2938 2591 2744 2837 
Q 2550 3084 2163 3084 
Q 1697 3084 1428 2787 
Q 1159 2491 1159 1978 
L 1159 0 
L 581 0 
L 581 3500 
L 1159 3500 
L 1159 2956 
Q 1366 3272 1645 3428 
Q 1925 3584 2291 3584 
Q 2894 3584 3203 3211 
Q 3513 2838 3513 2113 
z
" id="DejaVuSans-6e" transform="scale(0.015625)"/>
       <path d="M 513 4856 
L 1013 4856 
Q 1481 4119 1714 3412 
Q 1947 2706 1947 2009 
Q 1947 1309 1714 600 
Q 1481 -109 1013 -844 
L 513 -844 
Q 928 -128 1133 580 
Q 1338 1288 1338 2009 
Q 1338 2731 1133 3434 
Q 928 4138 513 4856 
z
" id="DejaVuSans-29" transform="scale(0.015625)"/>
      </defs>
      <use xlink:href="#DejaVuSans-6c"/>
      <use x="27.783203" xlink:href="#DejaVuSans-6f"/>
      <use x="88.964844" xlink:href="#DejaVuSans-67"/>
      <use x="152.441406" xlink:href="#DejaVuSans-31"/>
      <use x="216.064453" xlink:href="#DejaVuSans-30"/>
      <use x="279.6875" xlink:href="#DejaVuSans-28"/>
      <use x="318.701172" xlink:href="#DejaVuSans-23"/>
      <use x="402.490234" xlink:href="#DejaVuSans-20"/>
      <use x="434.277344" xlink:href="#DejaVuSans-66"/>
      <use x="463.982422" xlink:href="#DejaVuSans-2d"/>
      <use x="500.066406" xlink:href="#DejaVuSans-65"/>
      <use x="561.589844" xlink:href="#DejaVuSans-76"/>
      <use x="620.769531" xlink:href="#DejaVuSans-61"/>
      <use x="682.048828" xlink:href="#DejaVuSans-6c"/>
      <use x="709.832031" xlink:href="#DejaVuSans-73"/>
      <use x="761.931641" xlink:href="#DejaVuSans-20"/>
      <use x="793.71875" xlink:href="#DejaVuSans-2f"/>
      <use x="827.410156" xlink:href="#DejaVuSans-20"/>
      <use x="859.197266" xlink:href="#DejaVuSans-64"/>
      <use x="922.673828" xlink:href="#DejaVuSans-69"/>
      <use x="950.457031" xlink:href="#DejaVuSans-6d"/>
      <use x="1047.869141" xlink:href="#DejaVuSans-65"/>
      <use x="1109.392578" xlink:href="#DejaVuSans-6e"/>
      <use x="1172.771484" xlink:href="#DejaVuSans-73"/>
      <use x="1224.871094" xlink:href="#DejaVuSans-69"/>
      <use x="1252.654297" xlink:href="#DejaVuSans-6f"/>
      <use x="1313.835938" xlink:href="#DejaVuSans-6e"/>
      <use x="1377.214844" xlink:href="#DejaVuSans-29"/>
     </g>
    </g>
   </g>
   <g id="matplotlib.axis_2">
    <g id="ytick_1">
     <g id="line2d_17">
      <path clip-path="url(#p8995198d1c)" d="M 57.6 298.944 
L 338.688 298.944 
" style="fill:none;stroke:#b0b0b0;stroke-linecap:square;stroke-width:0.8;"/>
     </g>
     <g id="line2d_18">
      <defs>
       <path d="M 0 0 
L -3.5 0 
" id="maa3fba12be" style="stroke:#000000;stroke-width:0.8;"/>
      </defs>
      <g>
       <use style="stroke:#000000;stroke-width:0.8;" x="57.6" xlink:href="#maa3fba12be" y="298.944"/>
      </g>
     </g>
     <g id="text_6">
      <!-- 0.0 -->
      <g transform="translate(25.155 305.02275)scale(0.16 -0.16)">
       <defs>
        <path d="M 684 794 
L 1344 794 
L 1344 0 
L 684 0 
L 684 794 
z
" id="DejaVuSans-2e" transform="scale(0.015625)"/>
       </defs>
       <use xlink:href="#DejaVuSans-30"/>
       <use x="63.623047" xlink:href="#DejaVuSans-2e"/>
       <use x="95.410156" xlink:href="#DejaVuSans-30"/>
      </g>
     </g>
    </g>
    <g id="ytick_2">
     <g id="line2d_19">
      <path clip-path="url(#p8995198d1c)" d="M 57.6 240.431525 
L 338.688 240.431525 
" style="fill:none;stroke:#b0b0b0;stroke-linecap:square;stroke-width:0.8;"/>
     </g>
     <g id="line2d_20">
      <g>
       <use style="stroke:#000000;stroke-width:0.8;" x="57.6" xlink:href="#maa3fba12be" y="240.431525"/>
      </g>
     </g>
     <g id="text_7">
      <!-- 0.2 -->
      <g transform="translate(25.155 246.510275)scale(0.16 -0.16)">
       <use xlink:href="#DejaVuSans-30"/>
       <use x="63.623047" xlink:href="#DejaVuSans-2e"/>
       <use x="95.410156" xlink:href="#DejaVuSans-32"/>
      </g>
     </g>
    </g>
    <g id="ytick_3">
     <g id="line2d_21">
      <path clip-path="url(#p8995198d1c)" d="M 57.6 181.91905 
L 338.688 181.91905 
" style="fill:none;stroke:#b0b0b0;stroke-linecap:square;stroke-width:0.8;"/>
     </g>
     <g id="line2d_22">
      <g>
       <use style="stroke:#000000;stroke-width:0.8;" x="57.6" xlink:href="#maa3fba12be" y="181.91905"/>
      </g>
     </g>
     <g id="text_8">
      <!-- 0.4 -->
      <g transform="translate(25.155 187.9978)scale(0.16 -0.16)">
       <use xlink:href="#DejaVuSans-30"/>
       <use x="63.623047" xlink:href="#DejaVuSans-2e"/>
       <use x="95.410156" xlink:href="#DejaVuSans-34"/>
      </g>
     </g>
    </g>
    <g id="ytick_4">
     <g id="line2d_23">
      <path clip-path="url(#p8995198d1c)" d="M 57.6 123.406574 
L 338.688 123.406574 
" style="fill:none;stroke:#b0b0b0;stroke-linecap:square;stroke-width:0.8;"/>
     </g>
     <g id="line2d_24">
      <g>
       <use style="stroke:#000000;stroke-width:0.8;" x="57.6" xlink:href="#maa3fba12be" y="123.406574"/>
      </g>
     </g>
     <g id="text_9">
      <!-- 0.6 -->
      <g transform="translate(25.155 129.485324)scale(0.16 -0.16)">
       <use xlink:href="#DejaVuSans-30"/>
       <use x="63.623047" xlink:href="#DejaVuSans-2e"/>
       <use x="95.410156" xlink:href="#DejaVuSans-36"/>
      </g>
     </g>
    </g>
    <g id="ytick_5">
     <g id="line2d_25">
      <path clip-path="url(#p8995198d1c)" d="M 57.6 64.894099 
L 338.688 64.894099 
" style="fill:none;stroke:#b0b0b0;stroke-linecap:square;stroke-width:0.8;"/>
     </g>
     <g id="line2d_26">
      <g>
       <use style="stroke:#000000;stroke-width:0.8;" x="57.6" xlink:href="#maa3fba12be" y="64.894099"/>
      </g>
     </g>
     <g id="text_10">
      <!-- 0.8 -->
      <g transform="translate(25.155 70.972849)scale(0.16 -0.16)">
       <defs>
        <path d="M 2034 2216 
Q 1584 2216 1326 1975 
Q 1069 1734 1069 1313 
Q 1069 891 1326 650 
Q 1584 409 2034 409 
Q 2484 409 2743 651 
Q 3003 894 3003 1313 
Q 3003 1734 2745 1975 
Q 2488 2216 2034 2216 
z
M 1403 2484 
Q 997 2584 770 2862 
Q 544 3141 544 3541 
Q 544 4100 942 4425 
Q 1341 4750 2034 4750 
Q 2731 4750 3128 4425 
Q 3525 4100 3525 3541 
Q 3525 3141 3298 2862 
Q 3072 2584 2669 2484 
Q 3125 2378 3379 2068 
Q 3634 1759 3634 1313 
Q 3634 634 3220 271 
Q 2806 -91 2034 -91 
Q 1263 -91 848 271 
Q 434 634 434 1313 
Q 434 1759 690 2068 
Q 947 2378 1403 2484 
z
M 1172 3481 
Q 1172 3119 1398 2916 
Q 1625 2713 2034 2713 
Q 2441 2713 2670 2916 
Q 2900 3119 2900 3481 
Q 2900 3844 2670 4047 
Q 2441 4250 2034 4250 
Q 1625 4250 1398 4047 
Q 1172 3844 1172 3481 
z
" id="DejaVuSans-38" transform="scale(0.015625)"/>
       </defs>
       <use xlink:href="#DejaVuSans-30"/>
       <use x="63.623047" xlink:href="#DejaVuSans-2e"/>
       <use x="95.410156" xlink:href="#DejaVuSans-38"/>
      </g>
     </g>
    </g>
    <g id="ytick_6">
     <g id="line2d_27">
      <path clip-path="url(#p8995198d1c)" d="M 57.6 6.381624 
L 338.688 6.381624 
" style="fill:none;stroke:#b0b0b0;stroke-linecap:square;stroke-width:0.8;"/>
     </g>
     <g id="line2d_28">
      <g>
       <use style="stroke:#000000;stroke-width:0.8;" x="57.6" xlink:href="#maa3fba12be" y="6.381624"/>
      </g>
     </g>
     <g id="text_11">
      <!-- 1.0 -->
      <g transform="translate(25.155 12.460374)scale(0.16 -0.16)">
       <use xlink:href="#DejaVuSans-31"/>
       <use x="63.623047" xlink:href="#DejaVuSans-2e"/>
       <use x="95.410156" xlink:href="#DejaVuSans-30"/>
      </g>
     </g>
    </g>
    <g id="text_12">
     <!-- Fraction of function,target pairs -->
     <g transform="translate(17.619531 285.585)rotate(-90)scale(0.17 -0.17)">
      <defs>
       <path d="M 628 4666 
L 3309 4666 
L 3309 4134 
L 1259 4134 
L 1259 2759 
L 3109 2759 
L 3109 2228 
L 1259 2228 
L 1259 0 
L 628 0 
L 628 4666 
z
" id="DejaVuSans-46" transform="scale(0.015625)"/>
       <path d="M 2631 2963 
Q 2534 3019 2420 3045 
Q 2306 3072 2169 3072 
Q 1681 3072 1420 2755 
Q 1159 2438 1159 1844 
L 1159 0 
L 581 0 
L 581 3500 
L 1159 3500 
L 1159 2956 
Q 1341 3275 1631 3429 
Q 1922 3584 2338 3584 
Q 2397 3584 2469 3576 
Q 2541 3569 2628 3553 
L 2631 2963 
z
" id="DejaVuSans-72" transform="scale(0.015625)"/>
       <path d="M 3122 3366 
L 3122 2828 
Q 2878 2963 2633 3030 
Q 2388 3097 2138 3097 
Q 1578 3097 1268 2742 
Q 959 2388 959 1747 
Q 959 1106 1268 751 
Q 1578 397 2138 397 
Q 2388 397 2633 464 
Q 2878 531 3122 666 
L 3122 134 
Q 2881 22 2623 -34 
Q 2366 -91 2075 -91 
Q 1284 -91 818 406 
Q 353 903 353 1747 
Q 353 2603 823 3093 
Q 1294 3584 2113 3584 
Q 2378 3584 2631 3529 
Q 2884 3475 3122 3366 
z
" id="DejaVuSans-63" transform="scale(0.015625)"/>
       <path d="M 1172 4494 
L 1172 3500 
L 2356 3500 
L 2356 3053 
L 1172 3053 
L 1172 1153 
Q 1172 725 1289 603 
Q 1406 481 1766 481 
L 2356 481 
L 2356 0 
L 1766 0 
Q 1100 0 847 248 
Q 594 497 594 1153 
L 594 3053 
L 172 3053 
L 172 3500 
L 594 3500 
L 594 4494 
L 1172 4494 
z
" id="DejaVuSans-74" transform="scale(0.015625)"/>
       <path d="M 544 1381 
L 544 3500 
L 1119 3500 
L 1119 1403 
Q 1119 906 1312 657 
Q 1506 409 1894 409 
Q 2359 409 2629 706 
Q 2900 1003 2900 1516 
L 2900 3500 
L 3475 3500 
L 3475 0 
L 2900 0 
L 2900 538 
Q 2691 219 2414 64 
Q 2138 -91 1772 -91 
Q 1169 -91 856 284 
Q 544 659 544 1381 
z
M 1991 3584 
L 1991 3584 
z
" id="DejaVuSans-75" transform="scale(0.015625)"/>
       <path d="M 750 794 
L 1409 794 
L 1409 256 
L 897 -744 
L 494 -744 
L 750 256 
L 750 794 
z
" id="DejaVuSans-2c" transform="scale(0.015625)"/>
       <path d="M 1159 525 
L 1159 -1331 
L 581 -1331 
L 581 3500 
L 1159 3500 
L 1159 2969 
Q 1341 3281 1617 3432 
Q 1894 3584 2278 3584 
Q 2916 3584 3314 3078 
Q 3713 2572 3713 1747 
Q 3713 922 3314 415 
Q 2916 -91 2278 -91 
Q 1894 -91 1617 61 
Q 1341 213 1159 525 
z
M 3116 1747 
Q 3116 2381 2855 2742 
Q 2594 3103 2138 3103 
Q 1681 3103 1420 2742 
Q 1159 2381 1159 1747 
Q 1159 1113 1420 752 
Q 1681 391 2138 391 
Q 2594 391 2855 752 
Q 3116 1113 3116 1747 
z
" id="DejaVuSans-70" transform="scale(0.015625)"/>
      </defs>
      <use xlink:href="#DejaVuSans-46"/>
      <use x="50.269531" xlink:href="#DejaVuSans-72"/>
      <use x="91.382812" xlink:href="#DejaVuSans-61"/>
      <use x="152.662109" xlink:href="#DejaVuSans-63"/>
      <use x="207.642578" xlink:href="#DejaVuSans-74"/>
      <use x="246.851562" xlink:href="#DejaVuSans-69"/>
      <use x="274.634766" xlink:href="#DejaVuSans-6f"/>
      <use x="335.816406" xlink:href="#DejaVuSans-6e"/>
      <use x="399.195312" xlink:href="#DejaVuSans-20"/>
      <use x="430.982422" xlink:href="#DejaVuSans-6f"/>
      <use x="492.164062" xlink:href="#DejaVuSans-66"/>
      <use x="527.369141" xlink:href="#DejaVuSans-20"/>
      <use x="559.15625" xlink:href="#DejaVuSans-66"/>
      <use x="594.361328" xlink:href="#DejaVuSans-75"/>
      <use x="657.740234" xlink:href="#DejaVuSans-6e"/>
      <use x="721.119141" xlink:href="#DejaVuSans-63"/>
      <use x="776.099609" xlink:href="#DejaVuSans-74"/>
      <use x="815.308594" xlink:href="#DejaVuSans-69"/>
      <use x="843.091797" xlink:href="#DejaVuSans-6f"/>
      <use x="904.273438" xlink:href="#DejaVuSans-6e"/>
      <use x="967.652344" xlink:href="#DejaVuSans-2c"/>
      <use x="999.439453" xlink:href="#DejaVuSans-74"/>
      <use x="1038.648438" xlink:href="#DejaVuSans-61"/>
      <use x="1099.927734" xlink:href="#DejaVuSans-72"/>
      <use x="1139.291016" xlink:href="#DejaVuSans-67"/>
      <use x="1202.767578" xlink:href="#DejaVuSans-65"/>
      <use x="1264.291016" xlink:href="#DejaVuSans-74"/>
      <use x="1303.5" xlink:href="#DejaVuSans-20"/>
      <use x="1335.287109" xlink:href="#DejaVuSans-70"/>
      <use x="1398.763672" xlink:href="#DejaVuSans-61"/>
      <use x="1460.042969" xlink:href="#DejaVuSans-69"/>
      <use x="1487.826172" xlink:href="#DejaVuSans-72"/>
      <use x="1528.939453" xlink:href="#DejaVuSans-73"/>
     </g>
    </g>
   </g>
   <g id="line2d_29">
    <defs>
     <path d="M 0 1.5 
C 0.397805 1.5 0.77937 1.341951 1.06066 1.06066 
C 1.341951 0.77937 1.5 0.397805 1.5 0 
C 1.5 -0.397805 1.341951 -0.77937 1.06066 -1.06066 
C 0.77937 -1.341951 0.397805 -1.5 0 -1.5 
C -0.397805 -1.5 -0.77937 -1.341951 -1.06066 -1.06066 
C -1.341951 -0.77937 -1.5 -0.397805 -1.5 0 
C -1.5 0.397805 -1.341951 0.77937 -1.06066 1.06066 
C -0.77937 1.341951 -0.397805 1.5 0 1.5 
z
" id="m10f66b2e14" style="stroke:#ff00ff;"/>
    </defs>
    <g>
     <use style="fill:#ff00ff;stroke:#ff00ff;" x="288.448216" xlink:href="#m10f66b2e14" y="250.757256"/>
     <use style="fill:#ff00ff;stroke:#ff00ff;" x="288.448216" xlink:href="#m10f66b2e14" y="250.757256"/>
    </g>
   </g>
   <g id="line2d_30">
    <path d="M 103.98539 298.944 
L 103.98539 298.82927 
L 105.808307 298.82927 
L 105.808307 298.714539 
L 108.723724 298.714539 
L 108.723724 298.599809 
L 110.833859 298.599809 
L 110.833859 298.485079 
L 111.584648 298.485079 
L 111.584648 298.370348 
L 112.356423 298.370348 
L 112.356423 298.255618 
L 115.613661 298.255618 
L 115.613661 298.140888 
L 115.916353 298.140888 
L 115.916353 298.026157 
L 117.330874 298.026157 
L 117.330874 297.911427 
L 117.524901 297.911427 
L 117.524901 297.796697 
L 118.848586 297.796697 
L 118.848586 297.681966 
L 119.167577 297.681966 
L 119.240858 297.452506 
L 119.587136 297.452506 
L 119.587136 297.337775 
L 119.822429 297.337775 
L 119.822429 297.223045 
L 120.904444 297.223045 
L 120.904444 297.108315 
L 123.228077 297.108315 
L 123.228077 296.993584 
L 123.354102 296.993584 
L 123.37669 296.764123 
L 124.512695 296.764123 
L 124.512695 296.649393 
L 125.008479 296.649393 
L 125.008479 296.534663 
L 125.419312 296.534663 
L 125.419312 296.419932 
L 125.638788 296.419932 
L 125.638788 296.305202 
L 126.378519 296.305202 
L 126.378519 296.190472 
L 126.822577 296.190472 
L 126.822577 296.075741 
L 126.994636 296.075741 
L 126.994636 295.961011 
L 127.241546 295.961011 
L 127.241546 295.846281 
L 127.648723 295.846281 
L 127.703607 295.61682 
L 127.824524 295.61682 
L 127.824524 295.50209 
L 128.08686 295.50209 
L 128.08686 295.387359 
L 128.418722 295.387359 
L 128.418722 295.272629 
L 129.055027 295.272629 
L 129.055027 295.157899 
L 130.063094 295.157899 
L 130.064804 294.928438 
L 131.712488 294.928438 
L 131.712488 294.813708 
L 132.098523 294.813708 
L 132.098523 294.698977 
L 132.517825 294.698977 
L 132.517825 294.584247 
L 133.637854 294.584247 
L 133.637854 294.469517 
L 134.669281 294.469517 
L 134.669281 294.354786 
L 135.370368 294.354786 
L 135.39179 294.125326 
L 135.905513 294.125326 
L 135.905513 294.010595 
L 136.061331 294.010595 
L 136.061331 293.895865 
L 136.221773 293.895865 
L 136.221773 293.781135 
L 136.709617 293.781135 
L 136.709617 293.666404 
L 137.517336 293.666404 
L 137.5552 293.436944 
L 138.564419 293.436944 
L 138.564419 293.322213 
L 138.717029 293.322213 
L 138.717029 293.207483 
L 138.837336 293.207483 
L 138.857995 292.978022 
L 139.143665 292.978022 
L 139.143665 292.863292 
L 139.805289 292.863292 
L 139.805289 292.748561 
L 141.20629 292.748561 
L 141.20629 292.633831 
L 141.574123 292.633831 
L 141.574123 292.519101 
L 142.326268 292.519101 
L 142.326268 292.40437 
L 142.640725 292.40437 
L 142.640725 292.28964 
L 143.175119 292.28964 
L 143.175119 292.17491 
L 143.307597 292.17491 
L 143.307597 292.060179 
L 143.420014 292.060179 
L 143.420014 291.945449 
L 143.81369 291.945449 
L 143.81369 291.830719 
L 144.029898 291.830719 
L 144.029898 291.715988 
L 144.288127 291.715988 
L 144.288127 291.601258 
L 144.57832 291.601258 
L 144.635487 291.257067 
L 144.884966 291.257067 
L 144.884966 291.142337 
L 145.12372 291.142337 
L 145.12372 291.027606 
L 145.512875 291.027606 
L 145.539638 290.798146 
L 145.883188 290.798146 
L 145.883188 290.683415 
L 146.363673 290.683415 
L 146.401894 290.453955 
L 146.882175 290.453955 
L 146.882175 290.339224 
L 147.165273 290.339224 
L 147.165273 290.224494 
L 147.46718 290.224494 
L 147.46718 290.109764 
L 147.946974 290.109764 
L 147.946974 289.995033 
L 148.126278 289.995033 
L 148.167488 289.765573 
L 148.279716 289.765573 
L 148.364313 289.536112 
L 148.561901 289.536112 
L 148.634538 289.306651 
L 148.784172 289.306651 
L 148.886124 289.07719 
L 149.0601 289.07719 
L 149.0601 288.96246 
L 149.212984 288.96246 
L 149.212984 288.84773 
L 149.471591 288.84773 
L 149.471591 288.732999 
L 149.610341 288.732999 
L 149.714237 288.388808 
L 149.825777 288.388808 
L 149.825777 288.274078 
L 150.160497 288.274078 
L 150.160497 288.159348 
L 150.732537 288.159348 
L 150.732537 288.044617 
L 150.860607 288.044617 
L 150.94237 287.815157 
L 151.183856 287.815157 
L 151.183856 287.700426 
L 151.59845 287.700426 
L 151.607894 287.470966 
L 151.942585 287.470966 
L 151.942585 287.356235 
L 152.306338 287.356235 
L 152.386839 287.012044 
L 152.465077 287.012044 
L 152.465077 286.897314 
L 152.745726 286.897314 
L 152.807999 286.667853 
L 152.886684 286.667853 
L 152.908837 286.438393 
L 153.42686 286.438393 
L 153.430889 286.208932 
L 153.64576 286.208932 
L 153.750233 285.864741 
L 153.965137 285.864741 
L 154.014989 285.63528 
L 154.139643 285.63528 
L 154.139643 285.52055 
L 154.295817 285.52055 
L 154.295817 285.405819 
L 154.456513 285.405819 
L 154.467061 285.176359 
L 154.605702 285.176359 
L 154.667942 284.946898 
L 154.997139 284.946898 
L 154.997139 284.832168 
L 155.191229 284.832168 
L 155.223974 284.602707 
L 155.722052 284.602707 
L 155.722052 284.487977 
L 155.970693 284.487977 
L 155.970693 284.373246 
L 156.270696 284.373246 
L 156.352282 283.914325 
L 156.708645 283.914325 
L 156.811827 283.570134 
L 156.884683 283.570134 
L 156.9034 283.225943 
L 157.315188 283.225943 
L 157.42518 282.881752 
L 157.511826 282.881752 
L 157.573353 282.537561 
L 157.679979 282.537561 
L 157.727626 282.3081 
L 157.793627 282.3081 
L 157.845483 281.963909 
L 158.152401 281.963909 
L 158.152401 281.849179 
L 158.273875 281.849179 
L 158.273875 281.734448 
L 158.516655 281.734448 
L 158.532364 281.504988 
L 158.69034 281.504988 
L 158.69034 281.390257 
L 158.85346 281.390257 
L 158.85346 281.275527 
L 158.999461 281.275527 
L 158.999461 281.160797 
L 159.284329 281.160797 
L 159.284329 281.046066 
L 159.470527 281.046066 
L 159.470527 280.931336 
L 159.913468 280.931336 
L 159.913468 280.816606 
L 160.15866 280.816606 
L 160.265159 280.587145 
L 160.31892 280.587145 
L 160.424148 280.357684 
L 160.457987 280.357684 
L 160.543339 280.013493 
L 160.738431 280.013493 
L 160.746967 279.784033 
L 161.148663 279.784033 
L 161.148663 279.669302 
L 161.416603 279.669302 
L 161.416603 279.554572 
L 161.942638 279.554572 
L 161.942638 279.439842 
L 162.133911 279.439842 
L 162.214165 279.210381 
L 162.303743 279.210381 
L 162.388846 278.98092 
L 162.743283 278.98092 
L 162.743283 278.86619 
L 162.984867 278.86619 
L 163.059762 278.636729 
L 163.168687 278.636729 
L 163.258856 278.407268 
L 163.509279 278.407268 
L 163.509279 278.292538 
L 163.959987 278.292538 
L 164.037153 278.063077 
L 164.096747 278.063077 
L 164.096747 277.948347 
L 164.33191 277.948347 
L 164.33191 277.833617 
L 164.576232 277.833617 
L 164.576232 277.718886 
L 164.88044 277.718886 
L 164.966127 277.489426 
L 165.019641 277.489426 
L 165.076205 277.259965 
L 165.286362 277.259965 
L 165.286362 277.145235 
L 165.828111 277.145235 
L 165.932022 276.915774 
L 166.153119 276.915774 
L 166.263483 276.686313 
L 166.331333 276.686313 
L 166.331333 276.571583 
L 166.525921 276.571583 
L 166.551042 276.227392 
L 166.715019 276.227392 
L 166.819818 275.997931 
L 167.232216 275.997931 
L 167.234244 275.768471 
L 167.568352 275.768471 
L 167.568352 275.65374 
L 167.784901 275.65374 
L 167.810825 275.42428 
L 167.99394 275.42428 
L 167.99394 275.309549 
L 168.20741 275.309549 
L 168.20741 275.194819 
L 168.427962 275.194819 
L 168.427962 275.080089 
L 168.590861 275.080089 
L 168.590861 274.965358 
L 169.197773 274.965358 
L 169.253146 274.735897 
L 169.379696 274.735897 
L 169.488231 274.391706 
L 169.670869 274.391706 
L 169.670869 274.276976 
L 169.830128 274.276976 
L 169.830128 274.162246 
L 169.97807 274.162246 
L 169.97807 274.047515 
L 170.333867 274.047515 
L 170.333867 273.932785 
L 170.984036 273.932785 
L 171.00333 273.703324 
L 171.73883 273.703324 
L 171.73883 273.588594 
L 171.877556 273.588594 
L 171.890141 273.359133 
L 172.406305 273.359133 
L 172.409622 273.014942 
L 172.523823 273.014942 
L 172.523823 272.900212 
L 173.257774 272.900212 
L 173.257774 272.785482 
L 173.787014 272.785482 
L 173.787014 272.670751 
L 173.974211 272.670751 
L 174.032 272.441291 
L 174.493297 272.441291 
L 174.579638 272.21183 
L 174.61913 272.21183 
L 174.61913 272.0971 
L 174.793573 272.0971 
L 174.793573 271.982369 
L 174.924836 271.982369 
L 174.924836 271.867639 
L 175.075314 271.867639 
L 175.075314 271.752909 
L 175.311139 271.752909 
L 175.311139 271.638178 
L 175.45593 271.638178 
L 175.45593 271.523448 
L 175.75266 271.523448 
L 175.75266 271.408718 
L 176.003621 271.408718 
L 176.053114 271.179257 
L 176.117952 271.179257 
L 176.119293 270.949796 
L 176.29801 270.949796 
L 176.29801 270.835066 
L 176.443959 270.835066 
L 176.443959 270.720335 
L 176.699975 270.720335 
L 176.725653 270.490875 
L 176.847405 270.490875 
L 176.951125 270.261414 
L 177.28031 270.261414 
L 177.319716 270.031953 
L 177.851335 270.031953 
L 177.916869 269.802493 
L 177.984237 269.802493 
L 177.984237 269.687762 
L 178.196051 269.687762 
L 178.202433 269.458302 
L 178.605775 269.458302 
L 178.605775 269.343571 
L 178.815646 269.343571 
L 178.815646 269.228841 
L 179.490489 269.228841 
L 179.490489 269.114111 
L 179.689045 269.114111 
L 179.744372 268.88465 
L 179.810969 268.88465 
L 179.810969 268.76992 
L 179.969027 268.76992 
L 179.97655 268.540459 
L 180.38132 268.540459 
L 180.450857 268.310998 
L 180.820241 268.310998 
L 180.820241 268.196268 
L 181.469389 268.196268 
L 181.469389 268.081538 
L 181.60436 268.081538 
L 181.690371 267.852077 
L 181.725222 267.852077 
L 181.775871 267.507886 
L 182.022068 267.507886 
L 182.131966 267.048964 
L 182.206138 267.048964 
L 182.252925 266.819504 
L 182.481358 266.819504 
L 182.538129 266.590043 
L 182.93719 266.590043 
L 182.93719 266.475313 
L 183.345773 266.475313 
L 183.345773 266.360582 
L 183.697717 266.360582 
L 183.709629 266.131122 
L 183.925164 266.131122 
L 183.925164 266.016391 
L 184.405709 266.016391 
L 184.405709 265.901661 
L 184.520661 265.901661 
L 184.520661 265.786931 
L 185.116148 265.786931 
L 185.116148 265.6722 
L 186.151623 265.6722 
L 186.151623 265.55747 
L 186.594926 265.55747 
L 186.594926 265.44274 
L 186.827565 265.44274 
L 186.827565 265.328009 
L 187.020849 265.328009 
L 187.020849 265.213279 
L 187.427634 265.213279 
L 187.427634 265.098549 
L 187.917023 265.098549 
L 188.020556 264.869088 
L 188.313471 264.869088 
L 188.313471 264.754358 
L 188.713896 264.754358 
L 188.734187 264.524897 
L 189.699665 264.524897 
L 189.699665 264.410167 
L 190.338373 264.410167 
L 190.338373 264.295436 
L 192.166518 264.295436 
L 192.166518 264.180706 
L 192.475178 264.180706 
L 192.475178 264.065976 
L 192.992212 264.065976 
L 192.992212 263.951245 
L 193.775349 263.951245 
L 193.775349 263.836515 
L 195.417367 263.836515 
L 195.417367 263.721785 
L 196.834523 263.721785 
L 196.888871 263.492324 
L 197.445271 263.492324 
L 197.516662 263.262863 
L 198.530126 263.262863 
L 198.530126 263.148133 
L 199.273725 263.148133 
L 199.273725 263.033402 
L 201.231016 263.033402 
L 201.231016 262.918672 
L 203.377583 262.918672 
L 203.377583 262.803942 
L 203.998554 262.803942 
L 204.091366 262.574481 
L 206.664822 262.574481 
L 206.664822 262.459751 
L 211.830268 262.459751 
L 211.830268 262.34502 
L 218.914099 262.34502 
L 218.914099 262.23029 
L 219.100294 262.23029 
L 219.206286 261.886099 
L 219.276163 261.886099 
L 219.276163 261.771369 
L 219.47682 261.771369 
L 219.587661 261.541908 
L 219.59418 261.541908 
L 219.59418 261.427178 
L 219.763985 261.427178 
L 219.763985 261.312447 
L 219.891909 261.312447 
L 219.891909 261.197717 
L 220.06568 261.197717 
L 220.152988 260.853526 
L 220.236862 260.853526 
L 220.308821 260.394605 
L 220.411447 260.394605 
L 220.411447 260.279874 
L 220.565369 260.279874 
L 220.656313 260.050414 
L 220.699136 260.050414 
L 220.699136 259.820953 
L 221.32633 259.820953 
L 221.32633 259.706222 
L 221.907511 259.706222 
L 221.907511 259.591492 
L 222.848177 259.591492 
L 222.864839 259.247301 
L 224.421545 259.247301 
L 224.421545 259.132571 
L 225.471577 259.132571 
L 225.471577 259.01784 
L 230.808941 259.01784 
L 230.808941 258.78838 
L 230.933002 258.78838 
L 230.933002 258.673649 
L 231.154406 258.673649 
L 231.256449 258.444189 
L 231.308839 258.444189 
L 231.384465 258.099998 
L 231.520876 258.099998 
L 231.520876 257.870537 
L 231.709153 257.870537 
L 231.709153 257.755807 
L 235.499071 257.755807 
L 235.499071 257.641076 
L 237.712055 257.641076 
L 237.737966 257.411616 
L 237.850828 257.411616 
L 237.850828 257.296885 
L 238.017296 257.296885 
L 238.099642 256.608503 
L 238.197448 256.608503 
L 238.197448 256.493773 
L 240.145877 256.493773 
L 240.145877 256.379043 
L 242.751074 256.379043 
L 242.825162 256.149582 
L 242.937973 256.149582 
L 243.013795 255.805391 
L 243.674359 255.805391 
L 243.674359 255.69066 
L 245.955271 255.69066 
L 245.955271 255.57593 
L 246.591972 255.57593 
L 246.591972 255.4612 
L 246.722713 255.4612 
L 246.813604 255.117009 
L 249.705353 255.117009 
L 249.789908 254.772818 
L 249.898828 254.772818 
L 249.906842 254.543357 
L 250.67318 254.543357 
L 250.67318 254.428627 
L 251.375294 254.428627 
L 251.375294 254.199166 
L 252.337366 254.199166 
L 252.43278 253.740245 
L 252.511713 253.740245 
L 252.511713 253.625514 
L 254.67556 253.625514 
L 254.70073 253.396054 
L 254.87365 253.396054 
L 254.87365 253.281323 
L 255.574633 253.281323 
L 255.574633 253.166593 
L 256.860578 253.166593 
L 256.885019 252.822402 
L 258.529214 252.822402 
L 258.529214 252.707672 
L 260.279633 252.707672 
L 260.3223 252.36348 
L 261.738667 252.36348 
L 261.738667 252.24875 
L 265.59389 252.24875 
L 265.59389 252.13402 
L 268.766533 252.13402 
L 268.766533 252.019289 
L 269.707596 252.019289 
L 269.735029 251.789829 
L 273.708219 251.789829 
L 273.708219 251.560368 
L 274.456655 251.560368 
L 274.456655 251.445638 
L 275.16088 251.445638 
L 275.16088 251.330907 
L 276.444705 251.330907 
L 276.444705 251.216177 
L 279.277297 251.216177 
L 279.277297 251.101447 
L 282.631416 251.101447 
L 282.631416 250.986716 
L 283.463618 250.986716 
L 283.463618 250.871986 
L 288.448216 250.871986 
L 288.448216 250.757256 
L 338.688 250.757256 
L 338.688 250.757256 
" style="fill:none;stroke:#ff00ff;stroke-linecap:square;stroke-width:1.5;"/>
   </g>
   <g id="line2d_31">
    <defs>
     <path d="M 0 8.485281 
L 5.091169 0 
L 0 -8.485281 
L -5.091169 0 
z
" id="m442696d183" style="stroke:#ff00ff;stroke-linejoin:miter;stroke-width:1.5;"/>
    </defs>
    <g>
     <use style="fill-opacity:0;stroke:#ff00ff;stroke-linejoin:miter;stroke-width:1.5;" x="151.607894" xlink:href="#m442696d183" y="287.585696"/>
     <use style="fill-opacity:0;stroke:#ff00ff;stroke-linejoin:miter;stroke-width:1.5;" x="172.523823" xlink:href="#m442696d183" y="273.014942"/>
     <use style="fill-opacity:0;stroke:#ff00ff;stroke-linejoin:miter;stroke-width:1.5;" x="252.511713" xlink:href="#m442696d183" y="253.625514"/>
     <use style="fill-opacity:0;stroke:#ff00ff;stroke-linejoin:miter;stroke-width:1.5;" x="288.448216" xlink:href="#m442696d183" y="250.757256"/>
     <use style="fill-opacity:0;stroke:#ff00ff;stroke-linejoin:miter;stroke-width:1.5;" x="338.688" xlink:href="#m442696d183" y="250.757256"/>
    </g>
   </g>
   <g id="line2d_32">
    <path style="fill:none;stroke:#ff00ff;stroke-linecap:square;stroke-width:1.5;"/>
    <g/>
   </g>
   <g id="line2d_33">
    <path clip-path="url(#p8995198d1c)" d="M 218.221725 262.34502 
" style="fill:none;stroke:#ff00ff;stroke-linecap:square;stroke-width:1.5;"/>
    <defs>
     <path d="M -12 12 
L 12 -12 
M -12 -12 
L 12 12 
" id="mb384ac8970" style="stroke:#ff00ff;"/>
    </defs>
    <g clip-path="url(#p8995198d1c)">
     <use style="fill:#ff00ff;stroke:#ff00ff;" x="218.221725" xlink:href="#mb384ac8970" y="262.34502"/>
    </g>
   </g>
   <g id="line2d_34">
    <path clip-path="url(#p8995198d1c)" d="M 57.6 298.944 
L 57.6 298.944 
L 57.6 298.944 
L 57.6 298.944 
L 338.688 298.944 
" style="fill:none;stroke:#ff7500;stroke-linecap:square;stroke-width:1.5;"/>
   </g>
   <g id="line2d_35">
    <defs>
     <path d="M 0 -6 
L -1.347084 -1.854102 
L -5.706339 -1.854102 
L -2.179628 0.708204 
L -3.526712 4.854102 
L -0 2.291796 
L 3.526712 4.854102 
L 2.179628 0.708204 
L 5.706339 -1.854102 
L 1.347084 -1.854102 
z
" id="m411a56246a" style="stroke:#ff7500;stroke-linejoin:bevel;stroke-width:1.5;"/>
    </defs>
    <g clip-path="url(#p8995198d1c)">
     <use style="fill-opacity:0;stroke:#ff7500;stroke-linejoin:bevel;stroke-width:1.5;" x="57.6" xlink:href="#m411a56246a" y="298.944"/>
    </g>
   </g>
   <g id="line2d_36">
    <path clip-path="url(#p8995198d1c)" style="fill:none;stroke:#ff7500;stroke-linecap:square;stroke-width:1.5;"/>
    <g clip-path="url(#p8995198d1c)">
     <use style="fill-opacity:0;stroke:#ff7500;stroke-linejoin:bevel;stroke-width:1.5;" x="-1" xlink:href="#m411a56246a" y="591.506376"/>
     <use style="fill-opacity:0;stroke:#ff7500;stroke-linejoin:bevel;stroke-width:1.5;" x="338.688" xlink:href="#m411a56246a" y="591.506376"/>
    </g>
   </g>
   <g id="line2d_37">
    <path d="M 338.688 298.944 
L 369.60768 293.092752 
" style="fill:none;stroke:#ff7500;stroke-linecap:square;stroke-width:1.5;"/>
    <g>
     <use style="fill-opacity:0;stroke:#ff7500;stroke-linejoin:bevel;stroke-width:1.5;" x="338.688" xlink:href="#m411a56246a" y="298.944"/>
     <use style="fill-opacity:0;stroke:#ff7500;stroke-linejoin:bevel;stroke-width:1.5;" x="369.60768" xlink:href="#m411a56246a" y="293.092752"/>
    </g>
   </g>
   <g id="line2d_38">
    <path d="M 338.688 250.757256 
L 369.60768 12.232871 
" style="fill:none;stroke:#ff00ff;stroke-linecap:square;stroke-width:1.5;"/>
    <g>
     <use style="fill-opacity:0;stroke:#ff00ff;stroke-linejoin:miter;stroke-width:1.5;" x="338.688" xlink:href="#m442696d183" y="250.757256"/>
     <use style="fill-opacity:0;stroke:#ff00ff;stroke-linejoin:miter;stroke-width:1.5;" x="369.60768" xlink:href="#m442696d183" y="12.232871"/>
    </g>
   </g>
   <g id="line2d_39">
    <path d="M 338.688 298.944 
L 338.688 6.381624 
" style="fill:none;stroke:#000000;stroke-linecap:square;stroke-width:1.5;"/>
   </g>
   <g id="patch_3">
    <path d="M 57.6 298.944 
L 57.6 3.456 
" style="fill:none;stroke:#000000;stroke-linecap:square;stroke-linejoin:miter;stroke-width:0.8;"/>
   </g>
   <g id="patch_4">
    <path d="M 338.688 298.944 
L 338.688 3.456 
" style="fill:none;stroke:#000000;stroke-linecap:square;stroke-linejoin:miter;stroke-width:0.8;"/>
   </g>
   <g id="patch_5">
    <path d="M 57.6 298.944 
L 338.688 298.944 
" style="fill:none;stroke:#000000;stroke-linecap:square;stroke-linejoin:miter;stroke-width:0.8;"/>
   </g>
   <g id="patch_6">
    <path d="M 57.6 3.456 
L 338.688 3.456 
" style="fill:none;stroke:#000000;stroke-linecap:square;stroke-linejoin:miter;stroke-width:0.8;"/>
   </g>
   <g id="text_13">
    <!-- RANDOMSEA -->
    <g transform="translate(375.22944 297.78369)scale(0.17 -0.17)">
     <defs>
      <path d="M 2841 2188 
Q 3044 2119 3236 1894 
Q 3428 1669 3622 1275 
L 4263 0 
L 3584 0 
L 2988 1197 
Q 2756 1666 2539 1819 
Q 2322 1972 1947 1972 
L 1259 1972 
L 1259 0 
L 628 0 
L 628 4666 
L 2053 4666 
Q 2853 4666 3247 4331 
Q 3641 3997 3641 3322 
Q 3641 2881 3436 2590 
Q 3231 2300 2841 2188 
z
M 1259 4147 
L 1259 2491 
L 2053 2491 
Q 2509 2491 2742 2702 
Q 2975 2913 2975 3322 
Q 2975 3731 2742 3939 
Q 2509 4147 2053 4147 
L 1259 4147 
z
" id="DejaVuSans-52" transform="scale(0.015625)"/>
      <path d="M 2188 4044 
L 1331 1722 
L 3047 1722 
L 2188 4044 
z
M 1831 4666 
L 2547 4666 
L 4325 0 
L 3669 0 
L 3244 1197 
L 1141 1197 
L 716 0 
L 50 0 
L 1831 4666 
z
" id="DejaVuSans-41" transform="scale(0.015625)"/>
      <path d="M 628 4666 
L 1478 4666 
L 3547 763 
L 3547 4666 
L 4159 4666 
L 4159 0 
L 3309 0 
L 1241 3903 
L 1241 0 
L 628 0 
L 628 4666 
z
" id="DejaVuSans-4e" transform="scale(0.015625)"/>
      <path d="M 1259 4147 
L 1259 519 
L 2022 519 
Q 2988 519 3436 956 
Q 3884 1394 3884 2338 
Q 3884 3275 3436 3711 
Q 2988 4147 2022 4147 
L 1259 4147 
z
M 628 4666 
L 1925 4666 
Q 3281 4666 3915 4102 
Q 4550 3538 4550 2338 
Q 4550 1131 3912 565 
Q 3275 0 1925 0 
L 628 0 
L 628 4666 
z
" id="DejaVuSans-44" transform="scale(0.015625)"/>
      <path d="M 2522 4238 
Q 1834 4238 1429 3725 
Q 1025 3213 1025 2328 
Q 1025 1447 1429 934 
Q 1834 422 2522 422 
Q 3209 422 3611 934 
Q 4013 1447 4013 2328 
Q 4013 3213 3611 3725 
Q 3209 4238 2522 4238 
z
M 2522 4750 
Q 3503 4750 4090 4092 
Q 4678 3434 4678 2328 
Q 4678 1225 4090 567 
Q 3503 -91 2522 -91 
Q 1538 -91 948 565 
Q 359 1222 359 2328 
Q 359 3434 948 4092 
Q 1538 4750 2522 4750 
z
" id="DejaVuSans-4f" transform="scale(0.015625)"/>
      <path d="M 628 4666 
L 1569 4666 
L 2759 1491 
L 3956 4666 
L 4897 4666 
L 4897 0 
L 4281 0 
L 4281 4097 
L 3078 897 
L 2444 897 
L 1241 4097 
L 1241 0 
L 628 0 
L 628 4666 
z
" id="DejaVuSans-4d" transform="scale(0.015625)"/>
      <path d="M 3425 4513 
L 3425 3897 
Q 3066 4069 2747 4153 
Q 2428 4238 2131 4238 
Q 1616 4238 1336 4038 
Q 1056 3838 1056 3469 
Q 1056 3159 1242 3001 
Q 1428 2844 1947 2747 
L 2328 2669 
Q 3034 2534 3370 2195 
Q 3706 1856 3706 1288 
Q 3706 609 3251 259 
Q 2797 -91 1919 -91 
Q 1588 -91 1214 -16 
Q 841 59 441 206 
L 441 856 
Q 825 641 1194 531 
Q 1563 422 1919 422 
Q 2459 422 2753 634 
Q 3047 847 3047 1241 
Q 3047 1584 2836 1778 
Q 2625 1972 2144 2069 
L 1759 2144 
Q 1053 2284 737 2584 
Q 422 2884 422 3419 
Q 422 4038 858 4394 
Q 1294 4750 2059 4750 
Q 2388 4750 2728 4690 
Q 3069 4631 3425 4513 
z
" id="DejaVuSans-53" transform="scale(0.015625)"/>
      <path d="M 628 4666 
L 3578 4666 
L 3578 4134 
L 1259 4134 
L 1259 2753 
L 3481 2753 
L 3481 2222 
L 1259 2222 
L 1259 531 
L 3634 531 
L 3634 0 
L 628 0 
L 628 4666 
z
" id="DejaVuSans-45" transform="scale(0.015625)"/>
     </defs>
     <use xlink:href="#DejaVuSans-52"/>
     <use x="65.482422" xlink:href="#DejaVuSans-41"/>
     <use x="133.890625" xlink:href="#DejaVuSans-4e"/>
     <use x="208.695312" xlink:href="#DejaVuSans-44"/>
     <use x="285.697266" xlink:href="#DejaVuSans-4f"/>
     <use x="364.408203" xlink:href="#DejaVuSans-4d"/>
     <use x="450.6875" xlink:href="#DejaVuSans-53"/>
     <use x="514.164062" xlink:href="#DejaVuSans-45"/>
     <use x="577.347656" xlink:href="#DejaVuSans-41"/>
    </g>
   </g>
   <g id="text_14">
    <!-- DE-scipy -->
    <g transform="translate(375.22944 16.923809)scale(0.17 -0.17)">
     <defs>
      <path d="M 2059 -325 
Q 1816 -950 1584 -1140 
Q 1353 -1331 966 -1331 
L 506 -1331 
L 506 -850 
L 844 -850 
Q 1081 -850 1212 -737 
Q 1344 -625 1503 -206 
L 1606 56 
L 191 3500 
L 800 3500 
L 1894 763 
L 2988 3500 
L 3597 3500 
L 2059 -325 
z
" id="DejaVuSans-79" transform="scale(0.015625)"/>
     </defs>
     <use xlink:href="#DejaVuSans-44"/>
     <use x="77.001953" xlink:href="#DejaVuSans-45"/>
     <use x="140.185547" xlink:href="#DejaVuSans-2d"/>
     <use x="176.269531" xlink:href="#DejaVuSans-73"/>
     <use x="228.369141" xlink:href="#DejaVuSans-63"/>
     <use x="283.349609" xlink:href="#DejaVuSans-69"/>
     <use x="311.132812" xlink:href="#DejaVuSans-70"/>
     <use x="374.609375" xlink:href="#DejaVuSans-79"/>
    </g>
   </g>
   <g id="text_15">
    <!-- bbob-mixint f1-f5, 160-D -->
    <g transform="translate(60.41088 14.161286)scale(0.102 -0.102)">
     <defs>
      <path d="M 3116 1747 
Q 3116 2381 2855 2742 
Q 2594 3103 2138 3103 
Q 1681 3103 1420 2742 
Q 1159 2381 1159 1747 
Q 1159 1113 1420 752 
Q 1681 391 2138 391 
Q 2594 391 2855 752 
Q 3116 1113 3116 1747 
z
M 1159 2969 
Q 1341 3281 1617 3432 
Q 1894 3584 2278 3584 
Q 2916 3584 3314 3078 
Q 3713 2572 3713 1747 
Q 3713 922 3314 415 
Q 2916 -91 2278 -91 
Q 1894 -91 1617 61 
Q 1341 213 1159 525 
L 1159 0 
L 581 0 
L 581 4863 
L 1159 4863 
L 1159 2969 
z
" id="DejaVuSans-62" transform="scale(0.015625)"/>
      <path d="M 3513 3500 
L 2247 1797 
L 3578 0 
L 2900 0 
L 1881 1375 
L 863 0 
L 184 0 
L 1544 1831 
L 300 3500 
L 978 3500 
L 1906 2253 
L 2834 3500 
L 3513 3500 
z
" id="DejaVuSans-78" transform="scale(0.015625)"/>
      <path d="M 691 4666 
L 3169 4666 
L 3169 4134 
L 1269 4134 
L 1269 2991 
Q 1406 3038 1543 3061 
Q 1681 3084 1819 3084 
Q 2600 3084 3056 2656 
Q 3513 2228 3513 1497 
Q 3513 744 3044 326 
Q 2575 -91 1722 -91 
Q 1428 -91 1123 -41 
Q 819 9 494 109 
L 494 744 
Q 775 591 1075 516 
Q 1375 441 1709 441 
Q 2250 441 2565 725 
Q 2881 1009 2881 1497 
Q 2881 1984 2565 2268 
Q 2250 2553 1709 2553 
Q 1456 2553 1204 2497 
Q 953 2441 691 2322 
L 691 4666 
z
" id="DejaVuSans-35" transform="scale(0.015625)"/>
     </defs>
     <use xlink:href="#DejaVuSans-62"/>
     <use x="63.476562" xlink:href="#DejaVuSans-62"/>
     <use x="126.953125" xlink:href="#DejaVuSans-6f"/>
     <use x="188.134766" xlink:href="#DejaVuSans-62"/>
     <use x="251.611328" xlink:href="#DejaVuSans-2d"/>
     <use x="287.695312" xlink:href="#DejaVuSans-6d"/>
     <use x="385.107422" xlink:href="#DejaVuSans-69"/>
     <use x="412.890625" xlink:href="#DejaVuSans-78"/>
     <use x="472.070312" xlink:href="#DejaVuSans-69"/>
     <use x="499.853516" xlink:href="#DejaVuSans-6e"/>
     <use x="563.232422" xlink:href="#DejaVuSans-74"/>
     <use x="602.441406" xlink:href="#DejaVuSans-20"/>
     <use x="634.228516" xlink:href="#DejaVuSans-66"/>
     <use x="669.433594" xlink:href="#DejaVuSans-31"/>
     <use x="733.056641" xlink:href="#DejaVuSans-2d"/>
     <use x="769.140625" xlink:href="#DejaVuSans-66"/>
     <use x="804.345703" xlink:href="#DejaVuSans-35"/>
     <use x="867.96875" xlink:href="#DejaVuSans-2c"/>
     <use x="899.755859" xlink:href="#DejaVuSans-20"/>
     <use x="931.542969" xlink:href="#DejaVuSans-31"/>
     <use x="995.166016" xlink:href="#DejaVuSans-36"/>
     <use x="1058.789062" xlink:href="#DejaVuSans-30"/>
     <use x="1122.412109" xlink:href="#DejaVuSans-2d"/>
     <use x="1158.496094" xlink:href="#DejaVuSans-44"/>
    </g>
    <!-- 51 targets: 100..1e-08 -->
    <g transform="translate(60.41088 25.583055)scale(0.102 -0.102)">
     <defs>
      <path d="M 750 794 
L 1409 794 
L 1409 0 
L 750 0 
L 750 794 
z
M 750 3309 
L 1409 3309 
L 1409 2516 
L 750 2516 
L 750 3309 
z
" id="DejaVuSans-3a" transform="scale(0.015625)"/>
     </defs>
     <use xlink:href="#DejaVuSans-35"/>
     <use x="63.623047" xlink:href="#DejaVuSans-31"/>
     <use x="127.246094" xlink:href="#DejaVuSans-20"/>
     <use x="159.033203" xlink:href="#DejaVuSans-74"/>
     <use x="198.242188" xlink:href="#DejaVuSans-61"/>
     <use x="259.521484" xlink:href="#DejaVuSans-72"/>
     <use x="298.884766" xlink:href="#DejaVuSans-67"/>
     <use x="362.361328" xlink:href="#DejaVuSans-65"/>
     <use x="423.884766" xlink:href="#DejaVuSans-74"/>
     <use x="463.09375" xlink:href="#DejaVuSans-73"/>
     <use x="515.193359" xlink:href="#DejaVuSans-3a"/>
     <use x="548.884766" xlink:href="#DejaVuSans-20"/>
     <use x="580.671875" xlink:href="#DejaVuSans-31"/>
     <use x="644.294922" xlink:href="#DejaVuSans-30"/>
     <use x="707.917969" xlink:href="#DejaVuSans-30"/>
     <use x="771.541016" xlink:href="#DejaVuSans-2e"/>
     <use x="803.328125" xlink:href="#DejaVuSans-2e"/>
     <use x="835.115234" xlink:href="#DejaVuSans-31"/>
     <use x="898.738281" xlink:href="#DejaVuSans-65"/>
     <use x="960.261719" xlink:href="#DejaVuSans-2d"/>
     <use x="996.345703" xlink:href="#DejaVuSans-30"/>
     <use x="1059.96875" xlink:href="#DejaVuSans-38"/>
    </g>
    <!-- 15 instances -->
    <g transform="translate(60.41088 37.004824)scale(0.102 -0.102)">
     <use xlink:href="#DejaVuSans-31"/>
     <use x="63.623047" xlink:href="#DejaVuSans-35"/>
     <use x="127.246094" xlink:href="#DejaVuSans-20"/>
     <use x="159.033203" xlink:href="#DejaVuSans-69"/>
     <use x="186.816406" xlink:href="#DejaVuSans-6e"/>
     <use x="250.195312" xlink:href="#DejaVuSans-73"/>
     <use x="302.294922" xlink:href="#DejaVuSans-74"/>
     <use x="341.503906" xlink:href="#DejaVuSans-61"/>
     <use x="402.783203" xlink:href="#DejaVuSans-6e"/>
     <use x="466.162109" xlink:href="#DejaVuSans-63"/>
     <use x="521.142578" xlink:href="#DejaVuSans-65"/>
     <use x="582.666016" xlink:href="#DejaVuSans-73"/>
    </g>
   </g>
   <g id="text_16">
    <!-- v2.4.1.1 -->
    <g style="fill:#808080;" transform="translate(177.692437 293.909432)scale(0.1 -0.1)">
     <use xlink:href="#DejaVuSans-76"/>
     <use x="59.179688" xlink:href="#DejaVuSans-32"/>
     <use x="122.802734" xlink:href="#DejaVuSans-2e"/>
     <use x="154.589844" xlink:href="#DejaVuSans-34"/>
     <use x="218.212891" xlink:href="#DejaVuSans-2e"/>
     <use x="250" xlink:href="#DejaVuSans-31"/>
     <use x="313.623047" xlink:href="#DejaVuSans-2e"/>
     <use x="345.410156" xlink:href="#DejaVuSans-31"/>
    </g>
   </g>
  </g>
 </g>
 <defs>
  <clipPath id="p8995198d1c">
   <rect height="295.488" width="281.088" x="57.6" y="3.456"/>
  </clipPath>
 </defs>
</svg>
