<?xml version="1.0" encoding="utf-8" standalone="no"?>
<!DOCTYPE svg PUBLIC "-//W3C//DTD SVG 1.1//EN"
  "http://www.w3.org/Graphics/SVG/1.1/DTD/svg11.dtd">
<svg height="345.6pt" version="1.1" viewBox="0 0 460.8 345.6" width="460.8pt" xmlns="http://www.w3.org/2000/svg" xmlns:xlink="http://www.w3.org/1999/xlink">
 <metadata>
  <rdf:RDF xmlns:cc="http://creativecommons.org/ns#" xmlns:dc="http://purl.org/dc/elements/1.1/" xmlns:rdf="http://www.w3.org/1999/02/22-rdf-syntax-ns#">
   <cc:Work>
    <dc:type rdf:resource="http://purl.org/dc/dcmitype/StillImage"/>
    <dc:date>2022-03-29T11:44:11.080180</dc:date>
    <dc:format>image/svg+xml</dc:format>
    <dc:creator>
     <cc:Agent>
      <dc:title>Matplotlib v3.4.3, https://matplotlib.org/</dc:title>
     </cc:Agent>
    </dc:creator>
   </cc:Work>
  </rdf:RDF>
 </metadata>
 <defs>
  <style type="text/css">*{stroke-linecap:butt;stroke-linejoin:round;}</style>
 </defs>
 <g id="figure_1">
  <g id="patch_1">
   <path d="M 0 345.6 
L 460.8 345.6 
L 460.8 0 
L 0 0 
z
" style="fill:#ffffff;"/>
  </g>
  <g id="axes_1">
   <g id="patch_2">
    <path d="M 57.6 298.944 
L 338.688 298.944 
L 338.688 27.648 
L 57.6 27.648 
z
" style="fill:#ffffff;"/>
   </g>
   <g id="line2d_1">
    <path d="M 102.597126 298.944 
L 102.597126 293.677139 
L 110.103064 293.677139 
L 110.103064 288.410278 
L 112.128456 288.410278 
L 112.128456 283.143418 
L 113.664983 283.143418 
L 113.664983 277.876557 
L 115.269727 277.876557 
L 115.269727 272.609696 
L 118.363901 272.609696 
L 118.363901 267.342835 
L 122.906394 267.342835 
L 122.906394 262.075974 
L 132.350712 262.075974 
L 132.350712 256.809114 
L 134.300504 256.809114 
L 134.300504 251.542253 
L 135.522271 251.542253 
L 135.522271 246.275392 
L 136.475687 246.275392 
L 136.475687 241.008531 
L 137.289545 241.008531 
L 137.289545 235.74167 
L 138.049816 235.74167 
L 138.049816 230.47481 
L 138.745106 230.47481 
L 138.745106 225.207949 
L 139.333553 225.207949 
L 139.333553 219.941088 
L 139.793552 219.941088 
L 139.793552 214.674227 
L 140.195896 214.674227 
L 140.195896 209.407366 
L 140.619053 209.407366 
L 140.619053 204.140506 
L 140.900458 204.140506 
L 140.900458 198.873645 
L 141.090414 198.873645 
L 141.090414 193.606784 
L 141.335737 193.606784 
L 141.335737 188.339923 
L 141.549369 188.339923 
L 141.549369 183.073062 
L 141.704386 183.073062 
L 141.704386 177.806202 
L 141.830201 177.806202 
L 141.830201 172.539341 
L 141.913576 172.539341 
L 141.913576 167.27248 
L 142.037896 167.27248 
L 142.037896 162.005619 
L 142.120287 162.005619 
L 142.120287 156.738758 
L 142.243147 156.738758 
L 142.243147 151.471897 
L 142.297475 151.471897 
L 142.297475 146.205037 
L 142.365148 146.205037 
L 142.365148 140.938176 
L 142.419098 140.938176 
L 142.419098 135.671315 
L 142.499711 135.671315 
L 142.499711 130.404454 
L 142.606619 130.404454 
L 142.606619 125.137593 
L 142.646541 125.137593 
L 142.646541 119.870733 
L 142.673105 119.870733 
L 142.673105 114.603872 
L 142.686372 114.603872 
L 142.686372 109.337011 
L 142.739338 109.337011 
L 142.739338 104.07015 
L 142.765762 104.07015 
L 142.765762 98.803289 
L 142.805321 98.803289 
L 142.805321 93.536429 
L 142.871056 93.536429 
L 142.871056 88.269568 
L 142.923465 88.269568 
L 142.923465 83.002707 
L 142.949611 83.002707 
L 142.949611 77.735846 
L 142.975718 77.735846 
L 142.975718 72.468985 
L 143.027814 72.468985 
L 143.027814 67.202125 
L 143.040814 67.202125 
L 143.040814 61.935264 
L 143.053804 61.935264 
L 143.053804 56.668403 
L 143.079756 56.668403 
L 143.079756 51.401542 
L 143.11861 51.401542 
L 143.11861 46.134681 
L 143.131543 46.134681 
L 143.131543 40.867821 
L 143.144465 40.867821 
L 143.144465 35.60096 
L 143.157379 35.60096 
L 143.157379 30.334099 
L 338.688 30.334099 
" style="fill:none;stroke:#f5deb3;stroke-linecap:square;stroke-width:4;"/>
   </g>
   <g id="line2d_2">
    <defs>
     <path d="M 0 7.778175 
L 7.778175 0 
L 0 -7.778175 
L -7.778175 0 
z
" id="mb345aa1243" style="stroke:#f5deb3;stroke-linejoin:miter;stroke-width:1.5;"/>
    </defs>
    <g>
     <use style="fill:#f5deb3;stroke:#f5deb3;stroke-linejoin:miter;stroke-width:1.5;" x="141.913576" xlink:href="#mb345aa1243" y="167.27248"/>
     <use style="fill:#f5deb3;stroke:#f5deb3;stroke-linejoin:miter;stroke-width:1.5;" x="143.157379" xlink:href="#mb345aa1243" y="35.60096"/>
     <use style="fill:#f5deb3;stroke:#f5deb3;stroke-linejoin:miter;stroke-width:1.5;" x="143.157379" xlink:href="#mb345aa1243" y="30.334099"/>
     <use style="fill:#f5deb3;stroke:#f5deb3;stroke-linejoin:miter;stroke-width:1.5;" x="143.157379" xlink:href="#mb345aa1243" y="30.334099"/>
     <use style="fill:#f5deb3;stroke:#f5deb3;stroke-linejoin:miter;stroke-width:1.5;" x="338.688" xlink:href="#mb345aa1243" y="30.334099"/>
    </g>
   </g>
   <g id="line2d_3">
    <path style="fill:none;stroke:#f5deb3;stroke-linecap:square;stroke-width:4;"/>
    <g/>
   </g>
   <g id="line2d_4">
    <path d="M 338.688 30.334099 
L 369.60768 35.706297 
" style="fill:none;stroke:#f5deb3;stroke-linecap:square;stroke-width:4;"/>
    <g>
     <use style="fill:#f5deb3;stroke:#f5deb3;stroke-linejoin:miter;stroke-width:1.5;" x="338.688" xlink:href="#mb345aa1243" y="30.334099"/>
     <use style="fill:#f5deb3;stroke:#f5deb3;stroke-linejoin:miter;stroke-width:1.5;" x="369.60768" xlink:href="#mb345aa1243" y="35.706297"/>
    </g>
   </g>
   <g id="matplotlib.axis_1">
    <g id="xtick_1">
     <g id="line2d_5">
      <path clip-path="url(#pc2afbdd339)" d="M 57.6 298.944 
L 57.6 27.648 
" style="fill:none;stroke:#b0b0b0;stroke-linecap:square;stroke-width:0.8;"/>
     </g>
     <g id="line2d_6">
      <defs>
       <path d="M 0 0 
L 0 3.5 
" id="mc29796cd60" style="stroke:#000000;stroke-width:0.8;"/>
      </defs>
      <g>
       <use style="stroke:#000000;stroke-width:0.8;" x="57.6" xlink:href="#mc29796cd60" y="298.944"/>
      </g>
     </g>
     <g id="text_1">
      <!-- 0 -->
      <g transform="translate(51.2375 321.140875)scale(0.2 -0.2)">
       <defs>
        <path d="M 2034 4250 
Q 1547 4250 1301 3770 
Q 1056 3291 1056 2328 
Q 1056 1369 1301 889 
Q 1547 409 2034 409 
Q 2525 409 2770 889 
Q 3016 1369 3016 2328 
Q 3016 3291 2770 3770 
Q 2525 4250 2034 4250 
z
M 2034 4750 
Q 2819 4750 3233 4129 
Q 3647 3509 3647 2328 
Q 3647 1150 3233 529 
Q 2819 -91 2034 -91 
Q 1250 -91 836 529 
Q 422 1150 422 2328 
Q 422 3509 836 4129 
Q 1250 4750 2034 4750 
z
" id="DejaVuSans-30" transform="scale(0.015625)"/>
       </defs>
       <use xlink:href="#DejaVuSans-30"/>
      </g>
     </g>
    </g>
    <g id="xtick_2">
     <g id="line2d_7">
      <path clip-path="url(#pc2afbdd339)" d="M 137.910857 298.944 
L 137.910857 27.648 
" style="fill:none;stroke:#b0b0b0;stroke-linecap:square;stroke-width:0.8;"/>
     </g>
     <g id="line2d_8">
      <g>
       <use style="stroke:#000000;stroke-width:0.8;" x="137.910857" xlink:href="#mc29796cd60" y="298.944"/>
      </g>
     </g>
     <g id="text_2">
      <!-- 2 -->
      <g transform="translate(131.548357 321.140875)scale(0.2 -0.2)">
       <defs>
        <path d="M 1228 531 
L 3431 531 
L 3431 0 
L 469 0 
L 469 531 
Q 828 903 1448 1529 
Q 2069 2156 2228 2338 
Q 2531 2678 2651 2914 
Q 2772 3150 2772 3378 
Q 2772 3750 2511 3984 
Q 2250 4219 1831 4219 
Q 1534 4219 1204 4116 
Q 875 4013 500 3803 
L 500 4441 
Q 881 4594 1212 4672 
Q 1544 4750 1819 4750 
Q 2544 4750 2975 4387 
Q 3406 4025 3406 3419 
Q 3406 3131 3298 2873 
Q 3191 2616 2906 2266 
Q 2828 2175 2409 1742 
Q 1991 1309 1228 531 
z
" id="DejaVuSans-32" transform="scale(0.015625)"/>
       </defs>
       <use xlink:href="#DejaVuSans-32"/>
      </g>
     </g>
    </g>
    <g id="xtick_3">
     <g id="line2d_9">
      <path clip-path="url(#pc2afbdd339)" d="M 218.221714 298.944 
L 218.221714 27.648 
" style="fill:none;stroke:#b0b0b0;stroke-linecap:square;stroke-width:0.8;"/>
     </g>
     <g id="line2d_10">
      <g>
       <use style="stroke:#000000;stroke-width:0.8;" x="218.221714" xlink:href="#mc29796cd60" y="298.944"/>
      </g>
     </g>
     <g id="text_3">
      <!-- 4 -->
      <g transform="translate(211.859214 321.140875)scale(0.2 -0.2)">
       <defs>
        <path d="M 2419 4116 
L 825 1625 
L 2419 1625 
L 2419 4116 
z
M 2253 4666 
L 3047 4666 
L 3047 1625 
L 3713 1625 
L 3713 1100 
L 3047 1100 
L 3047 0 
L 2419 0 
L 2419 1100 
L 313 1100 
L 313 1709 
L 2253 4666 
z
" id="DejaVuSans-34" transform="scale(0.015625)"/>
       </defs>
       <use xlink:href="#DejaVuSans-34"/>
      </g>
     </g>
    </g>
    <g id="xtick_4">
     <g id="line2d_11">
      <path clip-path="url(#pc2afbdd339)" d="M 298.532571 298.944 
L 298.532571 27.648 
" style="fill:none;stroke:#b0b0b0;stroke-linecap:square;stroke-width:0.8;"/>
     </g>
     <g id="line2d_12">
      <g>
       <use style="stroke:#000000;stroke-width:0.8;" x="298.532571" xlink:href="#mc29796cd60" y="298.944"/>
      </g>
     </g>
     <g id="text_4">
      <!-- 6 -->
      <g transform="translate(292.170071 321.140875)scale(0.2 -0.2)">
       <defs>
        <path d="M 2113 2584 
Q 1688 2584 1439 2293 
Q 1191 2003 1191 1497 
Q 1191 994 1439 701 
Q 1688 409 2113 409 
Q 2538 409 2786 701 
Q 3034 994 3034 1497 
Q 3034 2003 2786 2293 
Q 2538 2584 2113 2584 
z
M 3366 4563 
L 3366 3988 
Q 3128 4100 2886 4159 
Q 2644 4219 2406 4219 
Q 1781 4219 1451 3797 
Q 1122 3375 1075 2522 
Q 1259 2794 1537 2939 
Q 1816 3084 2150 3084 
Q 2853 3084 3261 2657 
Q 3669 2231 3669 1497 
Q 3669 778 3244 343 
Q 2819 -91 2113 -91 
Q 1303 -91 875 529 
Q 447 1150 447 2328 
Q 447 3434 972 4092 
Q 1497 4750 2381 4750 
Q 2619 4750 2861 4703 
Q 3103 4656 3366 4563 
z
" id="DejaVuSans-36" transform="scale(0.015625)"/>
       </defs>
       <use xlink:href="#DejaVuSans-36"/>
      </g>
     </g>
    </g>
    <g id="xtick_5">
     <g id="line2d_13">
      <path clip-path="url(#pc2afbdd339)" d="M 97.755429 298.944 
L 97.755429 27.648 
" style="fill:none;stroke:#b0b0b0;stroke-linecap:square;stroke-width:0.8;"/>
     </g>
     <g id="line2d_14">
      <defs>
       <path d="M 0 0 
L 0 2 
" id="m7cf2cec035" style="stroke:#000000;stroke-width:0.6;"/>
      </defs>
      <g>
       <use style="stroke:#000000;stroke-width:0.6;" x="97.755429" xlink:href="#m7cf2cec035" y="298.944"/>
      </g>
     </g>
    </g>
    <g id="xtick_6">
     <g id="line2d_15">
      <path clip-path="url(#pc2afbdd339)" d="M 178.066286 298.944 
L 178.066286 27.648 
" style="fill:none;stroke:#b0b0b0;stroke-linecap:square;stroke-width:0.8;"/>
     </g>
     <g id="line2d_16">
      <g>
       <use style="stroke:#000000;stroke-width:0.6;" x="178.066286" xlink:href="#m7cf2cec035" y="298.944"/>
      </g>
     </g>
    </g>
    <g id="xtick_7">
     <g id="line2d_17">
      <path clip-path="url(#pc2afbdd339)" d="M 258.377143 298.944 
L 258.377143 27.648 
" style="fill:none;stroke:#b0b0b0;stroke-linecap:square;stroke-width:0.8;"/>
     </g>
     <g id="line2d_18">
      <g>
       <use style="stroke:#000000;stroke-width:0.6;" x="258.377143" xlink:href="#m7cf2cec035" y="298.944"/>
      </g>
     </g>
    </g>
    <g id="xtick_8">
     <g id="line2d_19">
      <path clip-path="url(#pc2afbdd339)" d="M 338.688 298.944 
L 338.688 27.648 
" style="fill:none;stroke:#b0b0b0;stroke-linecap:square;stroke-width:0.8;"/>
     </g>
     <g id="line2d_20">
      <g>
       <use style="stroke:#000000;stroke-width:0.6;" x="338.688" xlink:href="#m7cf2cec035" y="298.944"/>
      </g>
     </g>
    </g>
    <g id="text_5">
     <!-- log10(# f-evals / dimension) -->
     <g transform="translate(77.764078 342.217594)scale(0.17 -0.17)">
      <defs>
       <path d="M 603 4863 
L 1178 4863 
L 1178 0 
L 603 0 
L 603 4863 
z
" id="DejaVuSans-6c" transform="scale(0.015625)"/>
       <path d="M 1959 3097 
Q 1497 3097 1228 2736 
Q 959 2375 959 1747 
Q 959 1119 1226 758 
Q 1494 397 1959 397 
Q 2419 397 2687 759 
Q 2956 1122 2956 1747 
Q 2956 2369 2687 2733 
Q 2419 3097 1959 3097 
z
M 1959 3584 
Q 2709 3584 3137 3096 
Q 3566 2609 3566 1747 
Q 3566 888 3137 398 
Q 2709 -91 1959 -91 
Q 1206 -91 779 398 
Q 353 888 353 1747 
Q 353 2609 779 3096 
Q 1206 3584 1959 3584 
z
" id="DejaVuSans-6f" transform="scale(0.015625)"/>
       <path d="M 2906 1791 
Q 2906 2416 2648 2759 
Q 2391 3103 1925 3103 
Q 1463 3103 1205 2759 
Q 947 2416 947 1791 
Q 947 1169 1205 825 
Q 1463 481 1925 481 
Q 2391 481 2648 825 
Q 2906 1169 2906 1791 
z
M 3481 434 
Q 3481 -459 3084 -895 
Q 2688 -1331 1869 -1331 
Q 1566 -1331 1297 -1286 
Q 1028 -1241 775 -1147 
L 775 -588 
Q 1028 -725 1275 -790 
Q 1522 -856 1778 -856 
Q 2344 -856 2625 -561 
Q 2906 -266 2906 331 
L 2906 616 
Q 2728 306 2450 153 
Q 2172 0 1784 0 
Q 1141 0 747 490 
Q 353 981 353 1791 
Q 353 2603 747 3093 
Q 1141 3584 1784 3584 
Q 2172 3584 2450 3431 
Q 2728 3278 2906 2969 
L 2906 3500 
L 3481 3500 
L 3481 434 
z
" id="DejaVuSans-67" transform="scale(0.015625)"/>
       <path d="M 794 531 
L 1825 531 
L 1825 4091 
L 703 3866 
L 703 4441 
L 1819 4666 
L 2450 4666 
L 2450 531 
L 3481 531 
L 3481 0 
L 794 0 
L 794 531 
z
" id="DejaVuSans-31" transform="scale(0.015625)"/>
       <path d="M 1984 4856 
Q 1566 4138 1362 3434 
Q 1159 2731 1159 2009 
Q 1159 1288 1364 580 
Q 1569 -128 1984 -844 
L 1484 -844 
Q 1016 -109 783 600 
Q 550 1309 550 2009 
Q 550 2706 781 3412 
Q 1013 4119 1484 4856 
L 1984 4856 
z
" id="DejaVuSans-28" transform="scale(0.015625)"/>
       <path d="M 3272 2816 
L 2363 2816 
L 2100 1772 
L 3016 1772 
L 3272 2816 
z
M 2803 4594 
L 2478 3297 
L 3391 3297 
L 3719 4594 
L 4219 4594 
L 3897 3297 
L 4872 3297 
L 4872 2816 
L 3775 2816 
L 3519 1772 
L 4513 1772 
L 4513 1294 
L 3397 1294 
L 3072 0 
L 2572 0 
L 2894 1294 
L 1978 1294 
L 1656 0 
L 1153 0 
L 1478 1294 
L 494 1294 
L 494 1772 
L 1594 1772 
L 1856 2816 
L 850 2816 
L 850 3297 
L 1978 3297 
L 2297 4594 
L 2803 4594 
z
" id="DejaVuSans-23" transform="scale(0.015625)"/>
       <path id="DejaVuSans-20" transform="scale(0.015625)"/>
       <path d="M 2375 4863 
L 2375 4384 
L 1825 4384 
Q 1516 4384 1395 4259 
Q 1275 4134 1275 3809 
L 1275 3500 
L 2222 3500 
L 2222 3053 
L 1275 3053 
L 1275 0 
L 697 0 
L 697 3053 
L 147 3053 
L 147 3500 
L 697 3500 
L 697 3744 
Q 697 4328 969 4595 
Q 1241 4863 1831 4863 
L 2375 4863 
z
" id="DejaVuSans-66" transform="scale(0.015625)"/>
       <path d="M 313 2009 
L 1997 2009 
L 1997 1497 
L 313 1497 
L 313 2009 
z
" id="DejaVuSans-2d" transform="scale(0.015625)"/>
       <path d="M 3597 1894 
L 3597 1613 
L 953 1613 
Q 991 1019 1311 708 
Q 1631 397 2203 397 
Q 2534 397 2845 478 
Q 3156 559 3463 722 
L 3463 178 
Q 3153 47 2828 -22 
Q 2503 -91 2169 -91 
Q 1331 -91 842 396 
Q 353 884 353 1716 
Q 353 2575 817 3079 
Q 1281 3584 2069 3584 
Q 2775 3584 3186 3129 
Q 3597 2675 3597 1894 
z
M 3022 2063 
Q 3016 2534 2758 2815 
Q 2500 3097 2075 3097 
Q 1594 3097 1305 2825 
Q 1016 2553 972 2059 
L 3022 2063 
z
" id="DejaVuSans-65" transform="scale(0.015625)"/>
       <path d="M 191 3500 
L 800 3500 
L 1894 563 
L 2988 3500 
L 3597 3500 
L 2284 0 
L 1503 0 
L 191 3500 
z
" id="DejaVuSans-76" transform="scale(0.015625)"/>
       <path d="M 2194 1759 
Q 1497 1759 1228 1600 
Q 959 1441 959 1056 
Q 959 750 1161 570 
Q 1363 391 1709 391 
Q 2188 391 2477 730 
Q 2766 1069 2766 1631 
L 2766 1759 
L 2194 1759 
z
M 3341 1997 
L 3341 0 
L 2766 0 
L 2766 531 
Q 2569 213 2275 61 
Q 1981 -91 1556 -91 
Q 1019 -91 701 211 
Q 384 513 384 1019 
Q 384 1609 779 1909 
Q 1175 2209 1959 2209 
L 2766 2209 
L 2766 2266 
Q 2766 2663 2505 2880 
Q 2244 3097 1772 3097 
Q 1472 3097 1187 3025 
Q 903 2953 641 2809 
L 641 3341 
Q 956 3463 1253 3523 
Q 1550 3584 1831 3584 
Q 2591 3584 2966 3190 
Q 3341 2797 3341 1997 
z
" id="DejaVuSans-61" transform="scale(0.015625)"/>
       <path d="M 2834 3397 
L 2834 2853 
Q 2591 2978 2328 3040 
Q 2066 3103 1784 3103 
Q 1356 3103 1142 2972 
Q 928 2841 928 2578 
Q 928 2378 1081 2264 
Q 1234 2150 1697 2047 
L 1894 2003 
Q 2506 1872 2764 1633 
Q 3022 1394 3022 966 
Q 3022 478 2636 193 
Q 2250 -91 1575 -91 
Q 1294 -91 989 -36 
Q 684 19 347 128 
L 347 722 
Q 666 556 975 473 
Q 1284 391 1588 391 
Q 1994 391 2212 530 
Q 2431 669 2431 922 
Q 2431 1156 2273 1281 
Q 2116 1406 1581 1522 
L 1381 1569 
Q 847 1681 609 1914 
Q 372 2147 372 2553 
Q 372 3047 722 3315 
Q 1072 3584 1716 3584 
Q 2034 3584 2315 3537 
Q 2597 3491 2834 3397 
z
" id="DejaVuSans-73" transform="scale(0.015625)"/>
       <path d="M 1625 4666 
L 2156 4666 
L 531 -594 
L 0 -594 
L 1625 4666 
z
" id="DejaVuSans-2f" transform="scale(0.015625)"/>
       <path d="M 2906 2969 
L 2906 4863 
L 3481 4863 
L 3481 0 
L 2906 0 
L 2906 525 
Q 2725 213 2448 61 
Q 2172 -91 1784 -91 
Q 1150 -91 751 415 
Q 353 922 353 1747 
Q 353 2572 751 3078 
Q 1150 3584 1784 3584 
Q 2172 3584 2448 3432 
Q 2725 3281 2906 2969 
z
M 947 1747 
Q 947 1113 1208 752 
Q 1469 391 1925 391 
Q 2381 391 2643 752 
Q 2906 1113 2906 1747 
Q 2906 2381 2643 2742 
Q 2381 3103 1925 3103 
Q 1469 3103 1208 2742 
Q 947 2381 947 1747 
z
" id="DejaVuSans-64" transform="scale(0.015625)"/>
       <path d="M 603 3500 
L 1178 3500 
L 1178 0 
L 603 0 
L 603 3500 
z
M 603 4863 
L 1178 4863 
L 1178 4134 
L 603 4134 
L 603 4863 
z
" id="DejaVuSans-69" transform="scale(0.015625)"/>
       <path d="M 3328 2828 
Q 3544 3216 3844 3400 
Q 4144 3584 4550 3584 
Q 5097 3584 5394 3201 
Q 5691 2819 5691 2113 
L 5691 0 
L 5113 0 
L 5113 2094 
Q 5113 2597 4934 2840 
Q 4756 3084 4391 3084 
Q 3944 3084 3684 2787 
Q 3425 2491 3425 1978 
L 3425 0 
L 2847 0 
L 2847 2094 
Q 2847 2600 2669 2842 
Q 2491 3084 2119 3084 
Q 1678 3084 1418 2786 
Q 1159 2488 1159 1978 
L 1159 0 
L 581 0 
L 581 3500 
L 1159 3500 
L 1159 2956 
Q 1356 3278 1631 3431 
Q 1906 3584 2284 3584 
Q 2666 3584 2933 3390 
Q 3200 3197 3328 2828 
z
" id="DejaVuSans-6d" transform="scale(0.015625)"/>
       <path d="M 3513 2113 
L 3513 0 
L 2938 0 
L 2938 2094 
Q 2938 2591 2744 2837 
Q 2550 3084 2163 3084 
Q 1697 3084 1428 2787 
Q 1159 2491 1159 1978 
L 1159 0 
L 581 0 
L 581 3500 
L 1159 3500 
L 1159 2956 
Q 1366 3272 1645 3428 
Q 1925 3584 2291 3584 
Q 2894 3584 3203 3211 
Q 3513 2838 3513 2113 
z
" id="DejaVuSans-6e" transform="scale(0.015625)"/>
       <path d="M 513 4856 
L 1013 4856 
Q 1481 4119 1714 3412 
Q 1947 2706 1947 2009 
Q 1947 1309 1714 600 
Q 1481 -109 1013 -844 
L 513 -844 
Q 928 -128 1133 580 
Q 1338 1288 1338 2009 
Q 1338 2731 1133 3434 
Q 928 4138 513 4856 
z
" id="DejaVuSans-29" transform="scale(0.015625)"/>
      </defs>
      <use xlink:href="#DejaVuSans-6c"/>
      <use x="27.783203" xlink:href="#DejaVuSans-6f"/>
      <use x="88.964844" xlink:href="#DejaVuSans-67"/>
      <use x="152.441406" xlink:href="#DejaVuSans-31"/>
      <use x="216.064453" xlink:href="#DejaVuSans-30"/>
      <use x="279.6875" xlink:href="#DejaVuSans-28"/>
      <use x="318.701172" xlink:href="#DejaVuSans-23"/>
      <use x="402.490234" xlink:href="#DejaVuSans-20"/>
      <use x="434.277344" xlink:href="#DejaVuSans-66"/>
      <use x="463.982422" xlink:href="#DejaVuSans-2d"/>
      <use x="500.066406" xlink:href="#DejaVuSans-65"/>
      <use x="561.589844" xlink:href="#DejaVuSans-76"/>
      <use x="620.769531" xlink:href="#DejaVuSans-61"/>
      <use x="682.048828" xlink:href="#DejaVuSans-6c"/>
      <use x="709.832031" xlink:href="#DejaVuSans-73"/>
      <use x="761.931641" xlink:href="#DejaVuSans-20"/>
      <use x="793.71875" xlink:href="#DejaVuSans-2f"/>
      <use x="827.410156" xlink:href="#DejaVuSans-20"/>
      <use x="859.197266" xlink:href="#DejaVuSans-64"/>
      <use x="922.673828" xlink:href="#DejaVuSans-69"/>
      <use x="950.457031" xlink:href="#DejaVuSans-6d"/>
      <use x="1047.869141" xlink:href="#DejaVuSans-65"/>
      <use x="1109.392578" xlink:href="#DejaVuSans-6e"/>
      <use x="1172.771484" xlink:href="#DejaVuSans-73"/>
      <use x="1224.871094" xlink:href="#DejaVuSans-69"/>
      <use x="1252.654297" xlink:href="#DejaVuSans-6f"/>
      <use x="1313.835938" xlink:href="#DejaVuSans-6e"/>
      <use x="1377.214844" xlink:href="#DejaVuSans-29"/>
     </g>
    </g>
   </g>
   <g id="matplotlib.axis_2">
    <g id="ytick_1">
     <g id="line2d_21">
      <path clip-path="url(#pc2afbdd339)" d="M 57.6 298.944 
L 338.688 298.944 
" style="fill:none;stroke:#b0b0b0;stroke-linecap:square;stroke-width:0.8;"/>
     </g>
     <g id="line2d_22">
      <defs>
       <path d="M 0 0 
L -3.5 0 
" id="mdf5c5e3528" style="stroke:#000000;stroke-width:0.8;"/>
      </defs>
      <g>
       <use style="stroke:#000000;stroke-width:0.8;" x="57.6" xlink:href="#mdf5c5e3528" y="298.944"/>
      </g>
     </g>
     <g id="text_6">
      <!-- 0.0 -->
      <g transform="translate(25.155 305.02275)scale(0.16 -0.16)">
       <defs>
        <path d="M 684 794 
L 1344 794 
L 1344 0 
L 684 0 
L 684 794 
z
" id="DejaVuSans-2e" transform="scale(0.015625)"/>
       </defs>
       <use xlink:href="#DejaVuSans-30"/>
       <use x="63.623047" xlink:href="#DejaVuSans-2e"/>
       <use x="95.410156" xlink:href="#DejaVuSans-30"/>
      </g>
     </g>
    </g>
    <g id="ytick_2">
     <g id="line2d_23">
      <path clip-path="url(#pc2afbdd339)" d="M 57.6 245.22202 
L 338.688 245.22202 
" style="fill:none;stroke:#b0b0b0;stroke-linecap:square;stroke-width:0.8;"/>
     </g>
     <g id="line2d_24">
      <g>
       <use style="stroke:#000000;stroke-width:0.8;" x="57.6" xlink:href="#mdf5c5e3528" y="245.22202"/>
      </g>
     </g>
     <g id="text_7">
      <!-- 0.2 -->
      <g transform="translate(25.155 251.30077)scale(0.16 -0.16)">
       <use xlink:href="#DejaVuSans-30"/>
       <use x="63.623047" xlink:href="#DejaVuSans-2e"/>
       <use x="95.410156" xlink:href="#DejaVuSans-32"/>
      </g>
     </g>
    </g>
    <g id="ytick_3">
     <g id="line2d_25">
      <path clip-path="url(#pc2afbdd339)" d="M 57.6 191.50004 
L 338.688 191.50004 
" style="fill:none;stroke:#b0b0b0;stroke-linecap:square;stroke-width:0.8;"/>
     </g>
     <g id="line2d_26">
      <g>
       <use style="stroke:#000000;stroke-width:0.8;" x="57.6" xlink:href="#mdf5c5e3528" y="191.50004"/>
      </g>
     </g>
     <g id="text_8">
      <!-- 0.4 -->
      <g transform="translate(25.155 197.57879)scale(0.16 -0.16)">
       <use xlink:href="#DejaVuSans-30"/>
       <use x="63.623047" xlink:href="#DejaVuSans-2e"/>
       <use x="95.410156" xlink:href="#DejaVuSans-34"/>
      </g>
     </g>
    </g>
    <g id="ytick_4">
     <g id="line2d_27">
      <path clip-path="url(#pc2afbdd339)" d="M 57.6 137.778059 
L 338.688 137.778059 
" style="fill:none;stroke:#b0b0b0;stroke-linecap:square;stroke-width:0.8;"/>
     </g>
     <g id="line2d_28">
      <g>
       <use style="stroke:#000000;stroke-width:0.8;" x="57.6" xlink:href="#mdf5c5e3528" y="137.778059"/>
      </g>
     </g>
     <g id="text_9">
      <!-- 0.6 -->
      <g transform="translate(25.155 143.856809)scale(0.16 -0.16)">
       <use xlink:href="#DejaVuSans-30"/>
       <use x="63.623047" xlink:href="#DejaVuSans-2e"/>
       <use x="95.410156" xlink:href="#DejaVuSans-36"/>
      </g>
     </g>
    </g>
    <g id="ytick_5">
     <g id="line2d_29">
      <path clip-path="url(#pc2afbdd339)" d="M 57.6 84.056079 
L 338.688 84.056079 
" style="fill:none;stroke:#b0b0b0;stroke-linecap:square;stroke-width:0.8;"/>
     </g>
     <g id="line2d_30">
      <g>
       <use style="stroke:#000000;stroke-width:0.8;" x="57.6" xlink:href="#mdf5c5e3528" y="84.056079"/>
      </g>
     </g>
     <g id="text_10">
      <!-- 0.8 -->
      <g transform="translate(25.155 90.134829)scale(0.16 -0.16)">
       <defs>
        <path d="M 2034 2216 
Q 1584 2216 1326 1975 
Q 1069 1734 1069 1313 
Q 1069 891 1326 650 
Q 1584 409 2034 409 
Q 2484 409 2743 651 
Q 3003 894 3003 1313 
Q 3003 1734 2745 1975 
Q 2488 2216 2034 2216 
z
M 1403 2484 
Q 997 2584 770 2862 
Q 544 3141 544 3541 
Q 544 4100 942 4425 
Q 1341 4750 2034 4750 
Q 2731 4750 3128 4425 
Q 3525 4100 3525 3541 
Q 3525 3141 3298 2862 
Q 3072 2584 2669 2484 
Q 3125 2378 3379 2068 
Q 3634 1759 3634 1313 
Q 3634 634 3220 271 
Q 2806 -91 2034 -91 
Q 1263 -91 848 271 
Q 434 634 434 1313 
Q 434 1759 690 2068 
Q 947 2378 1403 2484 
z
M 1172 3481 
Q 1172 3119 1398 2916 
Q 1625 2713 2034 2713 
Q 2441 2713 2670 2916 
Q 2900 3119 2900 3481 
Q 2900 3844 2670 4047 
Q 2441 4250 2034 4250 
Q 1625 4250 1398 4047 
Q 1172 3844 1172 3481 
z
" id="DejaVuSans-38" transform="scale(0.015625)"/>
       </defs>
       <use xlink:href="#DejaVuSans-30"/>
       <use x="63.623047" xlink:href="#DejaVuSans-2e"/>
       <use x="95.410156" xlink:href="#DejaVuSans-38"/>
      </g>
     </g>
    </g>
    <g id="ytick_6">
     <g id="line2d_31">
      <path clip-path="url(#pc2afbdd339)" d="M 57.6 30.334099 
L 338.688 30.334099 
" style="fill:none;stroke:#b0b0b0;stroke-linecap:square;stroke-width:0.8;"/>
     </g>
     <g id="line2d_32">
      <g>
       <use style="stroke:#000000;stroke-width:0.8;" x="57.6" xlink:href="#mdf5c5e3528" y="30.334099"/>
      </g>
     </g>
     <g id="text_11">
      <!-- 1.0 -->
      <g transform="translate(25.155 36.412849)scale(0.16 -0.16)">
       <use xlink:href="#DejaVuSans-31"/>
       <use x="63.623047" xlink:href="#DejaVuSans-2e"/>
       <use x="95.410156" xlink:href="#DejaVuSans-30"/>
      </g>
     </g>
    </g>
    <g id="text_12">
     <!-- Fraction of function,target pairs -->
     <g transform="translate(17.619531 297.681)rotate(-90)scale(0.17 -0.17)">
      <defs>
       <path d="M 628 4666 
L 3309 4666 
L 3309 4134 
L 1259 4134 
L 1259 2759 
L 3109 2759 
L 3109 2228 
L 1259 2228 
L 1259 0 
L 628 0 
L 628 4666 
z
" id="DejaVuSans-46" transform="scale(0.015625)"/>
       <path d="M 2631 2963 
Q 2534 3019 2420 3045 
Q 2306 3072 2169 3072 
Q 1681 3072 1420 2755 
Q 1159 2438 1159 1844 
L 1159 0 
L 581 0 
L 581 3500 
L 1159 3500 
L 1159 2956 
Q 1341 3275 1631 3429 
Q 1922 3584 2338 3584 
Q 2397 3584 2469 3576 
Q 2541 3569 2628 3553 
L 2631 2963 
z
" id="DejaVuSans-72" transform="scale(0.015625)"/>
       <path d="M 3122 3366 
L 3122 2828 
Q 2878 2963 2633 3030 
Q 2388 3097 2138 3097 
Q 1578 3097 1268 2742 
Q 959 2388 959 1747 
Q 959 1106 1268 751 
Q 1578 397 2138 397 
Q 2388 397 2633 464 
Q 2878 531 3122 666 
L 3122 134 
Q 2881 22 2623 -34 
Q 2366 -91 2075 -91 
Q 1284 -91 818 406 
Q 353 903 353 1747 
Q 353 2603 823 3093 
Q 1294 3584 2113 3584 
Q 2378 3584 2631 3529 
Q 2884 3475 3122 3366 
z
" id="DejaVuSans-63" transform="scale(0.015625)"/>
       <path d="M 1172 4494 
L 1172 3500 
L 2356 3500 
L 2356 3053 
L 1172 3053 
L 1172 1153 
Q 1172 725 1289 603 
Q 1406 481 1766 481 
L 2356 481 
L 2356 0 
L 1766 0 
Q 1100 0 847 248 
Q 594 497 594 1153 
L 594 3053 
L 172 3053 
L 172 3500 
L 594 3500 
L 594 4494 
L 1172 4494 
z
" id="DejaVuSans-74" transform="scale(0.015625)"/>
       <path d="M 544 1381 
L 544 3500 
L 1119 3500 
L 1119 1403 
Q 1119 906 1312 657 
Q 1506 409 1894 409 
Q 2359 409 2629 706 
Q 2900 1003 2900 1516 
L 2900 3500 
L 3475 3500 
L 3475 0 
L 2900 0 
L 2900 538 
Q 2691 219 2414 64 
Q 2138 -91 1772 -91 
Q 1169 -91 856 284 
Q 544 659 544 1381 
z
M 1991 3584 
L 1991 3584 
z
" id="DejaVuSans-75" transform="scale(0.015625)"/>
       <path d="M 750 794 
L 1409 794 
L 1409 256 
L 897 -744 
L 494 -744 
L 750 256 
L 750 794 
z
" id="DejaVuSans-2c" transform="scale(0.015625)"/>
       <path d="M 1159 525 
L 1159 -1331 
L 581 -1331 
L 581 3500 
L 1159 3500 
L 1159 2969 
Q 1341 3281 1617 3432 
Q 1894 3584 2278 3584 
Q 2916 3584 3314 3078 
Q 3713 2572 3713 1747 
Q 3713 922 3314 415 
Q 2916 -91 2278 -91 
Q 1894 -91 1617 61 
Q 1341 213 1159 525 
z
M 3116 1747 
Q 3116 2381 2855 2742 
Q 2594 3103 2138 3103 
Q 1681 3103 1420 2742 
Q 1159 2381 1159 1747 
Q 1159 1113 1420 752 
Q 1681 391 2138 391 
Q 2594 391 2855 752 
Q 3116 1113 3116 1747 
z
" id="DejaVuSans-70" transform="scale(0.015625)"/>
      </defs>
      <use xlink:href="#DejaVuSans-46"/>
      <use x="50.269531" xlink:href="#DejaVuSans-72"/>
      <use x="91.382812" xlink:href="#DejaVuSans-61"/>
      <use x="152.662109" xlink:href="#DejaVuSans-63"/>
      <use x="207.642578" xlink:href="#DejaVuSans-74"/>
      <use x="246.851562" xlink:href="#DejaVuSans-69"/>
      <use x="274.634766" xlink:href="#DejaVuSans-6f"/>
      <use x="335.816406" xlink:href="#DejaVuSans-6e"/>
      <use x="399.195312" xlink:href="#DejaVuSans-20"/>
      <use x="430.982422" xlink:href="#DejaVuSans-6f"/>
      <use x="492.164062" xlink:href="#DejaVuSans-66"/>
      <use x="527.369141" xlink:href="#DejaVuSans-20"/>
      <use x="559.15625" xlink:href="#DejaVuSans-66"/>
      <use x="594.361328" xlink:href="#DejaVuSans-75"/>
      <use x="657.740234" xlink:href="#DejaVuSans-6e"/>
      <use x="721.119141" xlink:href="#DejaVuSans-63"/>
      <use x="776.099609" xlink:href="#DejaVuSans-74"/>
      <use x="815.308594" xlink:href="#DejaVuSans-69"/>
      <use x="843.091797" xlink:href="#DejaVuSans-6f"/>
      <use x="904.273438" xlink:href="#DejaVuSans-6e"/>
      <use x="967.652344" xlink:href="#DejaVuSans-2c"/>
      <use x="999.439453" xlink:href="#DejaVuSans-74"/>
      <use x="1038.648438" xlink:href="#DejaVuSans-61"/>
      <use x="1099.927734" xlink:href="#DejaVuSans-72"/>
      <use x="1139.291016" xlink:href="#DejaVuSans-67"/>
      <use x="1202.767578" xlink:href="#DejaVuSans-65"/>
      <use x="1264.291016" xlink:href="#DejaVuSans-74"/>
      <use x="1303.5" xlink:href="#DejaVuSans-20"/>
      <use x="1335.287109" xlink:href="#DejaVuSans-70"/>
      <use x="1398.763672" xlink:href="#DejaVuSans-61"/>
      <use x="1460.042969" xlink:href="#DejaVuSans-69"/>
      <use x="1487.826172" xlink:href="#DejaVuSans-72"/>
      <use x="1528.939453" xlink:href="#DejaVuSans-73"/>
     </g>
    </g>
   </g>
   <g id="line2d_33">
    <defs>
     <path d="M 0 1.5 
C 0.397805 1.5 0.77937 1.341951 1.06066 1.06066 
C 1.341951 0.77937 1.5 0.397805 1.5 0 
C 1.5 -0.397805 1.341951 -0.77937 1.06066 -1.06066 
C 0.77937 -1.341951 0.397805 -1.5 0 -1.5 
C -0.397805 -1.5 -0.77937 -1.341951 -1.06066 -1.06066 
C -1.341951 -0.77937 -1.5 -0.397805 -1.5 0 
C -1.5 0.397805 -1.341951 0.77937 -1.06066 1.06066 
C -0.77937 1.341951 -0.397805 1.5 0 1.5 
z
" id="m44611df7b3" style="stroke:#f5deb3;"/>
    </defs>
    <g>
     <use style="fill:#f5deb3;stroke:#f5deb3;" x="143.157379" xlink:href="#m44611df7b3" y="30.334099"/>
     <use style="fill:#f5deb3;stroke:#f5deb3;" x="143.157379" xlink:href="#m44611df7b3" y="30.334099"/>
    </g>
   </g>
   <g id="line2d_34">
    <defs>
     <path d="M 0 1.5 
C 0.397805 1.5 0.77937 1.341951 1.06066 1.06066 
C 1.341951 0.77937 1.5 0.397805 1.5 0 
C 1.5 -0.397805 1.341951 -0.77937 1.06066 -1.06066 
C 0.77937 -1.341951 0.397805 -1.5 0 -1.5 
C -0.397805 -1.5 -0.77937 -1.341951 -1.06066 -1.06066 
C -1.341951 -0.77937 -1.5 -0.397805 -1.5 0 
C -1.5 0.397805 -1.341951 0.77937 -1.06066 1.06066 
C -0.77937 1.341951 -0.397805 1.5 0 1.5 
z
" id="m3d56208598" style="stroke:#000080;"/>
    </defs>
    <g>
     <use style="fill:#000080;stroke:#000080;" x="196.182063" xlink:href="#m3d56208598" y="30.334099"/>
     <use style="fill:#000080;stroke:#000080;" x="196.182063" xlink:href="#m3d56208598" y="30.334099"/>
    </g>
   </g>
   <g id="line2d_35">
    <path d="M 121.887753 298.944 
L 121.887753 298.417314 
L 125.541584 298.417314 
L 125.541584 297.890628 
L 125.822869 297.890628 
L 125.892487 296.31057 
L 126.236468 296.31057 
L 126.236468 295.783884 
L 126.47328 295.783884 
L 126.50685 294.203825 
L 126.640485 294.203825 
L 126.640485 293.677139 
L 127.357715 293.677139 
L 127.421479 292.097081 
L 128.973336 292.097081 
L 128.973336 291.043709 
L 129.089405 291.043709 
L 129.089405 290.517023 
L 129.630422 290.517023 
L 129.686407 289.463651 
L 129.936138 289.463651 
L 129.991152 288.410278 
L 130.344571 288.410278 
L 130.344571 287.883592 
L 130.69097 287.883592 
L 130.69097 287.356906 
L 131.030622 287.356906 
L 131.030622 286.83022 
L 131.590764 286.83022 
L 131.590764 286.303534 
L 132.206187 286.303534 
L 132.206187 285.776848 
L 132.517825 285.776848 
L 132.517825 285.250162 
L 132.70687 285.250162 
L 132.70687 284.723476 
L 132.870621 284.723476 
L 132.870621 284.19679 
L 133.101914 284.19679 
L 133.101914 283.670104 
L 133.262014 283.670104 
L 133.262014 283.143418 
L 133.375477 283.143418 
L 133.375477 282.616732 
L 134.192921 282.616732 
L 134.192921 282.090045 
L 134.450015 282.090045 
L 134.534878 280.509987 
L 135.158519 280.509987 
L 135.199312 278.929929 
L 135.800036 278.929929 
L 135.800036 278.403243 
L 135.937276 278.403243 
L 135.97629 277.349871 
L 136.073445 277.349871 
L 136.170062 276.296499 
L 136.664018 276.296499 
L 136.664018 275.769812 
L 136.850337 275.769812 
L 136.850337 275.243126 
L 137.68266 275.243126 
L 137.68266 274.71644 
L 137.875944 274.71644 
L 137.875944 274.189754 
L 138.049816 274.189754 
L 138.153314 273.136382 
L 138.221972 273.136382 
L 138.221972 272.609696 
L 138.661784 272.609696 
L 138.661784 272.08301 
L 138.910565 272.08301 
L 138.910565 271.556324 
L 139.123342 271.556324 
L 139.123342 271.029638 
L 139.525372 271.029638 
L 139.525372 270.502952 
L 140.180592 270.502952 
L 140.180592 269.976266 
L 141.392962 269.976266 
L 141.392962 269.449579 
L 141.941279 269.449579 
L 141.968939 268.396207 
L 142.910378 268.396207 
L 142.910378 267.869521 
L 144.865226 267.869521 
L 144.865226 267.342835 
L 149.00307 267.342835 
L 149.00307 266.816149 
L 150.007563 266.816149 
L 150.007563 266.289463 
L 150.699587 266.289463 
L 150.699587 265.762777 
L 151.889366 265.762777 
L 151.889366 265.236091 
L 152.260923 265.236091 
L 152.260923 264.709405 
L 152.736878 264.709405 
L 152.736878 264.182719 
L 154.459889 264.182719 
L 154.459889 263.656033 
L 154.991819 263.656033 
L 154.991819 263.129347 
L 155.245367 263.129347 
L 155.245367 262.60266 
L 158.763686 262.60266 
L 158.763686 262.075974 
L 159.11358 262.075974 
L 159.11358 261.549288 
L 159.247491 261.549288 
L 159.268002 260.495916 
L 161.26559 260.495916 
L 161.3249 259.442544 
L 161.725614 259.442544 
L 161.725614 258.915858 
L 161.902754 258.915858 
L 161.902754 258.389172 
L 162.846111 258.389172 
L 162.941851 257.3358 
L 163.254524 257.3358 
L 163.311515 256.282427 
L 163.521581 256.282427 
L 163.521581 255.755741 
L 163.839898 255.755741 
L 163.839898 255.229055 
L 164.225937 255.229055 
L 164.225937 254.702369 
L 165.654426 254.702369 
L 165.757166 253.648997 
L 165.778348 253.648997 
L 165.85228 252.068939 
L 165.894387 252.068939 
L 165.894387 251.542253 
L 166.044441 251.542253 
L 166.044441 251.015567 
L 166.303112 251.015567 
L 166.303112 250.488881 
L 166.507321 250.488881 
L 166.507321 249.962195 
L 166.819194 249.962195 
L 166.819194 249.435508 
L 167.079807 249.435508 
L 167.079807 248.908822 
L 167.317213 248.908822 
L 167.417059 247.328764 
L 167.525915 247.328764 
L 167.580089 246.275392 
L 167.687935 246.275392 
L 167.779397 245.22202 
L 168.260276 245.22202 
L 168.260276 244.695334 
L 168.376172 244.695334 
L 168.430803 243.641962 
L 168.527503 243.641962 
L 168.527503 243.115275 
L 168.71633 243.115275 
L 168.796634 242.061903 
L 168.870661 242.061903 
L 168.932602 241.008531 
L 169.204297 241.008531 
L 169.233261 239.955159 
L 169.520287 239.955159 
L 169.560096 238.375101 
L 169.667694 238.375101 
L 169.667694 237.848415 
L 169.825059 237.848415 
L 169.84463 236.795043 
L 169.964373 236.795043 
L 169.964373 236.268356 
L 170.165794 236.268356 
L 170.209632 235.214984 
L 170.34592 235.214984 
L 170.34592 234.688298 
L 170.483844 234.688298 
L 170.483844 234.161612 
L 170.711322 234.161612 
L 170.801489 233.10824 
L 170.854311 233.10824 
L 170.943744 230.47481 
L 171.178286 230.47481 
L 171.178286 229.948123 
L 171.503976 229.948123 
L 171.607834 225.734635 
L 171.620458 225.734635 
L 171.718608 224.154577 
L 171.771231 224.154577 
L 171.841148 222.574518 
L 171.938067 222.574518 
L 172.009788 220.467774 
L 172.054157 220.467774 
L 172.054157 219.941088 
L 172.293758 219.941088 
L 172.366452 217.834344 
L 172.409924 217.834344 
L 172.419569 216.780971 
L 172.558835 216.780971 
L 172.644719 214.674227 
L 172.720707 214.674227 
L 172.812873 213.094169 
L 172.888133 213.094169 
L 172.888133 212.567483 
L 173.040014 212.567483 
L 173.139766 210.987425 
L 173.185969 210.987425 
L 173.241252 209.407366 
L 173.305527 209.407366 
L 173.365 207.827308 
L 173.426547 207.827308 
L 173.512801 205.193878 
L 173.544472 205.193878 
L 173.546732 204.140506 
L 173.717641 204.140506 
L 173.753409 202.560447 
L 173.864714 202.560447 
L 173.948834 201.507075 
L 174.021557 201.507075 
L 174.093979 199.400331 
L 174.133355 199.400331 
L 174.244441 196.7669 
L 174.246612 196.7669 
L 174.346191 193.606784 
L 174.438764 193.606784 
L 174.522303 189.919981 
L 174.564989 189.919981 
L 174.641561 187.286551 
L 174.700886 187.286551 
L 174.764225 185.179807 
L 174.814731 185.179807 
L 174.877658 184.126434 
L 174.988278 184.126434 
L 175.069232 180.966318 
L 175.116798 180.966318 
L 175.219758 178.859574 
L 175.242328 178.859574 
L 175.342513 175.699457 
L 175.362888 175.699457 
L 175.470482 170.959282 
L 175.559304 170.959282 
L 175.663695 168.325852 
L 175.693692 168.325852 
L 175.793311 164.112363 
L 175.821103 164.112363 
L 175.842908 163.058991 
L 175.975136 163.058991 
L 176.067299 159.898875 
L 176.118074 159.898875 
L 176.221122 157.79213 
L 176.275317 157.79213 
L 176.352448 155.1587 
L 176.398563 155.1587 
L 176.482793 151.998584 
L 176.520945 151.998584 
L 176.593204 147.785095 
L 176.633009 147.785095 
L 176.727419 144.624978 
L 176.763161 144.624978 
L 176.853131 143.04492 
L 176.96123 143.04492 
L 177.06497 136.198001 
L 177.098184 136.198001 
L 177.105556 135.144629 
L 177.230412 135.144629 
L 177.316189 130.404454 
L 177.358012 130.404454 
L 177.464841 127.244338 
L 177.493699 127.244338 
L 177.601493 124.610907 
L 177.610446 124.610907 
L 177.717524 120.924105 
L 177.735306 120.924105 
L 177.813334 118.817361 
L 177.857514 118.817361 
L 177.961335 116.18393 
L 178.080232 116.18393 
L 178.187935 111.970441 
L 178.206975 111.970441 
L 178.27948 109.337011 
L 178.32765 109.337011 
L 178.377401 106.176895 
L 178.447497 106.176895 
L 178.529204 103.543464 
L 178.583463 103.543464 
L 178.68138 100.910034 
L 178.718377 100.910034 
L 178.813871 98.803289 
L 178.830571 98.803289 
L 178.880573 96.696545 
L 178.956967 96.696545 
L 179.054462 95.116487 
L 179.077517 95.116487 
L 179.085744 93.009743 
L 179.19724 93.009743 
L 179.301531 88.796254 
L 179.329128 88.796254 
L 179.403586 85.109451 
L 179.451975 85.109451 
L 179.51147 83.002707 
L 179.605922 83.002707 
L 179.67285 81.949335 
L 179.749025 81.949335 
L 179.85952 78.789218 
L 179.88782 78.789218 
L 179.972447 76.155788 
L 180.020844 76.155788 
L 180.118787 73.522358 
L 180.179144 73.522358 
L 180.234673 70.888927 
L 180.342143 70.888927 
L 180.413932 68.255497 
L 180.473278 68.255497 
L 180.559652 65.622066 
L 180.623024 65.622066 
L 180.678662 63.515322 
L 180.765521 63.515322 
L 180.848977 61.408578 
L 180.896488 61.408578 
L 180.994071 58.775147 
L 181.008809 58.775147 
L 181.022062 57.721775 
L 181.123338 57.721775 
L 181.194904 56.141717 
L 181.271982 56.141717 
L 181.380476 54.034973 
L 181.400654 54.034973 
L 181.473961 51.401542 
L 181.512647 51.401542 
L 181.622503 50.34817 
L 181.670792 50.34817 
L 181.76697 49.294798 
L 181.806419 49.294798 
L 181.906052 48.241426 
L 181.987022 48.241426 
L 182.073163 47.188054 
L 182.1368 47.188054 
L 182.1368 46.661368 
L 182.289409 46.661368 
L 182.338619 45.607995 
L 182.60816 45.607995 
L 182.60816 45.081309 
L 182.825879 45.081309 
L 182.825879 44.554623 
L 188.005028 44.554623 
L 188.005028 44.027937 
L 189.859692 44.027937 
L 189.859692 43.501251 
L 190.314846 43.501251 
L 190.314846 42.974565 
L 190.789559 42.974565 
L 190.789559 42.447879 
L 191.530296 42.447879 
L 191.530296 41.921193 
L 192.112729 41.921193 
L 192.112729 41.394507 
L 192.44696 41.394507 
L 192.44696 40.867821 
L 192.738102 40.867821 
L 192.738102 40.341135 
L 193.164431 40.341135 
L 193.164431 39.814448 
L 193.316383 39.814448 
L 193.362147 38.761076 
L 193.864124 38.761076 
L 193.864124 38.23439 
L 194.336969 38.23439 
L 194.336969 37.707704 
L 194.528683 37.707704 
L 194.578821 36.654332 
L 194.640281 36.654332 
L 194.640281 36.127646 
L 194.858028 36.127646 
L 194.92382 35.074274 
L 195.052031 35.074274 
L 195.11316 34.020902 
L 195.317337 34.020902 
L 195.317337 33.494215 
L 195.50055 33.494215 
L 195.594632 32.440843 
L 195.863187 32.440843 
L 195.863187 31.914157 
L 195.981577 31.914157 
L 195.981577 31.387471 
L 196.182063 31.387471 
L 196.182063 30.334099 
L 338.688 30.334099 
L 338.688 30.334099 
" style="fill:none;stroke:#000080;stroke-linecap:square;stroke-width:1.5;"/>
   </g>
   <g id="line2d_36">
    <defs>
     <path d="M 0 6 
C 1.591219 6 3.117479 5.367802 4.242641 4.242641 
C 5.367802 3.117479 6 1.591219 6 0 
C 6 -1.591219 5.367802 -3.117479 4.242641 -4.242641 
C 3.117479 -5.367802 1.591219 -6 0 -6 
C -1.591219 -6 -3.117479 -5.367802 -4.242641 -4.242641 
C -5.367802 -3.117479 -6 -1.591219 -6 0 
C -6 1.591219 -5.367802 3.117479 -4.242641 4.242641 
C -3.117479 5.367802 -1.591219 6 0 6 
z
" id="m1a313f760e" style="stroke:#000080;stroke-width:1.5;"/>
    </defs>
    <g>
     <use style="fill-opacity:0;stroke:#000080;stroke-width:1.5;" x="176.633009" xlink:href="#m1a313f760e" y="147.258409"/>
     <use style="fill-opacity:0;stroke:#000080;stroke-width:1.5;" x="196.182063" xlink:href="#m1a313f760e" y="31.387471"/>
     <use style="fill-opacity:0;stroke:#000080;stroke-width:1.5;" x="196.182063" xlink:href="#m1a313f760e" y="30.334099"/>
     <use style="fill-opacity:0;stroke:#000080;stroke-width:1.5;" x="196.182063" xlink:href="#m1a313f760e" y="30.334099"/>
     <use style="fill-opacity:0;stroke:#000080;stroke-width:1.5;" x="338.688" xlink:href="#m1a313f760e" y="30.334099"/>
    </g>
   </g>
   <g id="line2d_37">
    <path style="fill:none;stroke:#000080;stroke-linecap:square;stroke-width:1.5;"/>
    <g/>
   </g>
   <g id="line2d_38">
    <defs>
     <path d="M 0 1.5 
C 0.397805 1.5 0.77937 1.341951 1.06066 1.06066 
C 1.341951 0.77937 1.5 0.397805 1.5 0 
C 1.5 -0.397805 1.341951 -0.77937 1.06066 -1.06066 
C 0.77937 -1.341951 0.397805 -1.5 0 -1.5 
C -0.397805 -1.5 -0.77937 -1.341951 -1.06066 -1.06066 
C -1.341951 -0.77937 -1.5 -0.397805 -1.5 0 
C -1.5 0.397805 -1.341951 0.77937 -1.06066 1.06066 
C -0.77937 1.341951 -0.397805 1.5 0 1.5 
z
" id="m6ca63b85db" style="stroke:#ff00ff;"/>
    </defs>
    <g>
     <use style="fill:#ff00ff;stroke:#ff00ff;" x="198.471367" xlink:href="#m6ca63b85db" y="30.334099"/>
     <use style="fill:#ff00ff;stroke:#ff00ff;" x="198.471367" xlink:href="#m6ca63b85db" y="30.334099"/>
    </g>
   </g>
   <g id="line2d_39">
    <path d="M 132.326708 298.944 
L 132.326708 298.417314 
L 133.800029 298.417314 
L 133.800029 297.890628 
L 135.602085 297.890628 
L 135.602085 297.363942 
L 137.805906 297.363942 
L 137.805906 296.31057 
L 138.032507 296.31057 
L 138.032507 295.783884 
L 138.375473 295.783884 
L 138.375473 295.257197 
L 138.828032 295.257197 
L 138.828032 294.730511 
L 139.429726 294.730511 
L 139.477614 293.150453 
L 141.435758 293.150453 
L 141.506851 291.570395 
L 142.065403 291.570395 
L 142.065403 291.043709 
L 142.432559 291.043709 
L 142.432559 290.517023 
L 142.673105 290.517023 
L 142.739338 288.936964 
L 145.143889 288.936964 
L 145.143889 288.410278 
L 145.258697 288.410278 
L 145.327221 287.356906 
L 145.832743 287.356906 
L 145.832743 286.83022 
L 146.302479 286.83022 
L 146.40993 285.776848 
L 146.420639 285.776848 
L 146.420639 285.250162 
L 146.749392 285.250162 
L 146.749392 284.723476 
L 147.144103 284.723476 
L 147.144103 284.19679 
L 147.580235 284.19679 
L 147.580235 283.670104 
L 147.86833 283.670104 
L 147.86833 283.143418 
L 148.229122 283.143418 
L 148.229122 282.616732 
L 148.373289 282.616732 
L 148.373289 282.090045 
L 148.506778 282.090045 
L 148.61095 281.036673 
L 148.770728 281.036673 
L 148.770728 280.509987 
L 149.530471 280.509987 
L 149.530471 279.456615 
L 149.735275 279.456615 
L 149.735275 278.929929 
L 149.902665 278.929929 
L 149.902665 278.403243 
L 150.49739 278.403243 
L 150.49739 277.876557 
L 150.758122 277.876557 
L 150.758122 277.349871 
L 150.973835 277.349871 
L 151.023238 276.296499 
L 151.453659 276.296499 
L 151.453659 275.769812 
L 151.597455 275.769812 
L 151.597455 275.243126 
L 152.052897 275.243126 
L 152.137948 273.663068 
L 152.466496 273.663068 
L 152.466496 273.136382 
L 153.330332 273.136382 
L 153.330332 272.609696 
L 153.48095 272.609696 
L 153.48095 271.556324 
L 154.303908 271.556324 
L 154.303908 271.029638 
L 155.102793 271.029638 
L 155.102793 270.502952 
L 156.08947 270.502952 
L 156.08947 269.976266 
L 156.562634 269.976266 
L 156.562634 269.449579 
L 156.693802 269.449579 
L 156.693802 268.922893 
L 157.203057 268.922893 
L 157.203057 268.396207 
L 157.675417 268.396207 
L 157.675417 267.869521 
L 157.992555 267.869521 
L 157.992555 267.342835 
L 158.368898 267.342835 
L 158.368898 266.816149 
L 161.215247 266.816149 
L 161.215247 266.289463 
L 163.49345 266.289463 
L 163.49345 265.762777 
L 164.067097 265.762777 
L 164.067097 265.236091 
L 165.774819 265.236091 
L 165.774819 264.709405 
L 166.689087 264.709405 
L 166.689087 264.182719 
L 167.397779 264.182719 
L 167.397779 263.656033 
L 167.665786 263.656033 
L 167.665786 263.129347 
L 168.53353 263.129347 
L 168.53353 262.60266 
L 168.725271 262.60266 
L 168.725271 262.075974 
L 168.873615 262.075974 
L 168.873615 261.549288 
L 169.201398 261.549288 
L 169.201398 261.022602 
L 169.351513 261.022602 
L 169.411773 259.96923 
L 170.138339 259.96923 
L 170.138339 259.442544 
L 171.188638 259.442544 
L 171.188638 258.915858 
L 171.890917 258.915858 
L 171.890917 258.389172 
L 172.012256 258.389172 
L 172.012256 257.862486 
L 172.29133 257.862486 
L 172.373705 256.809114 
L 172.798725 256.809114 
L 172.798725 256.282427 
L 172.956059 256.282427 
L 172.956059 255.755741 
L 173.31927 255.755741 
L 173.31927 255.229055 
L 173.627898 255.229055 
L 173.627898 254.702369 
L 173.806924 254.702369 
L 173.806924 254.175683 
L 174.107114 254.175683 
L 174.168282 253.122311 
L 174.421578 253.122311 
L 174.483796 251.542253 
L 174.825234 251.542253 
L 174.825234 251.015567 
L 174.963293 251.015567 
L 174.969543 249.962195 
L 175.46036 249.962195 
L 175.533108 248.908822 
L 175.689695 248.908822 
L 175.755523 247.85545 
L 175.933799 247.85545 
L 175.933799 247.328764 
L 176.07512 247.328764 
L 176.1473 245.748706 
L 176.394725 245.748706 
L 176.4369 244.695334 
L 176.651932 244.695334 
L 176.723652 243.115275 
L 176.793203 243.115275 
L 176.817574 241.535217 
L 176.935199 241.535217 
L 176.935199 241.008531 
L 177.076048 241.008531 
L 177.077894 239.955159 
L 177.274266 239.955159 
L 177.377979 237.848415 
L 177.515311 237.848415 
L 177.515311 237.321729 
L 177.737083 237.321729 
L 177.820411 236.268356 
L 177.915659 236.268356 
L 177.943781 235.214984 
L 178.120264 235.214984 
L 178.179274 233.10824 
L 178.243265 233.10824 
L 178.341389 232.054868 
L 178.387677 232.054868 
L 178.495206 226.788007 
L 178.556354 226.788007 
L 178.640929 223.101204 
L 178.756973 223.101204 
L 178.8122 221.521146 
L 178.883902 221.521146 
L 178.917151 220.467774 
L 179.024776 220.467774 
L 179.125177 218.36103 
L 179.138301 218.36103 
L 179.242944 216.254285 
L 179.264123 216.254285 
L 179.343721 214.674227 
L 179.497017 214.674227 
L 179.59634 211.514111 
L 179.67762 211.514111 
L 179.775924 207.300622 
L 179.791727 207.300622 
L 179.895673 205.193878 
L 179.906662 205.193878 
L 179.958371 203.613819 
L 180.028637 203.613819 
L 180.107931 198.873645 
L 180.148218 198.873645 
L 180.206931 194.660156 
L 180.33602 194.660156 
L 180.436781 188.339923 
L 180.471759 188.339923 
L 180.571741 184.653121 
L 180.591367 184.653121 
L 180.675659 180.966318 
L 180.714656 180.966318 
L 180.814749 177.806202 
L 180.844516 177.806202 
L 180.952739 171.485969 
L 180.980796 171.485969 
L 181.074975 167.799166 
L 181.092577 167.799166 
L 181.189073 163.585677 
L 181.235667 163.585677 
L 181.342941 159.372189 
L 181.368935 159.372189 
L 181.466788 150.945211 
L 181.502625 150.945211 
L 181.602581 146.205037 
L 181.667955 146.205037 
L 181.762738 138.831432 
L 181.782478 138.831432 
L 181.866828 135.144629 
L 181.896254 135.144629 
L 181.957749 130.93114 
L 182.016247 130.93114 
L 182.09394 125.137593 
L 182.167153 125.137593 
L 182.255154 119.870733 
L 182.350899 119.870733 
L 182.409455 115.130558 
L 182.471879 115.130558 
L 182.542176 112.497128 
L 182.587988 112.497128 
L 182.669878 109.863697 
L 182.700655 109.863697 
L 182.770039 106.176895 
L 182.816585 106.176895 
L 182.893445 99.329976 
L 182.929109 99.329976 
L 183.031732 96.169859 
L 183.050088 96.169859 
L 183.155912 91.95637 
L 183.191044 91.95637 
L 183.292142 85.109451 
L 183.356641 85.109451 
L 183.400364 81.949335 
L 183.506643 81.949335 
L 183.591965 77.735846 
L 183.688245 77.735846 
L 183.791533 74.57573 
L 183.832928 74.57573 
L 183.916672 73.522358 
L 183.986359 73.522358 
L 183.986359 71.415613 
L 184.12244 71.415613 
L 184.191312 67.202125 
L 184.402374 67.202125 
L 184.402374 66.675439 
L 184.548492 66.675439 
L 184.567722 65.09538 
L 193.528928 65.09538 
L 193.528928 64.568694 
L 193.99474 64.568694 
L 193.99474 64.042008 
L 194.542926 64.042008 
L 194.613968 62.988636 
L 194.931778 62.988636 
L 194.931778 62.46195 
L 195.065853 62.46195 
L 195.065853 61.935264 
L 195.416279 61.935264 
L 195.416279 61.408578 
L 195.922796 61.408578 
L 195.922796 60.881892 
L 196.123954 60.881892 
L 196.155505 59.82852 
L 196.375998 59.82852 
L 196.396127 58.775147 
L 196.517626 58.775147 
L 196.517626 58.248461 
L 196.773631 58.248461 
L 196.773631 57.721775 
L 196.924503 57.721775 
L 196.962313 55.615031 
L 197.114494 55.615031 
L 197.114494 55.088345 
L 197.309959 55.088345 
L 197.38673 52.9816 
L 197.423552 52.9816 
L 197.49124 51.928228 
L 197.582602 51.928228 
L 197.645137 48.768112 
L 197.702358 48.768112 
L 197.80275 46.661368 
L 197.854972 46.661368 
L 197.951146 42.974565 
L 198.011264 42.974565 
L 198.085569 39.814448 
L 198.136953 39.814448 
L 198.241462 37.181018 
L 198.251879 37.181018 
L 198.251879 35.60096 
L 198.375851 35.60096 
L 198.471367 30.334099 
L 338.688 30.334099 
L 338.688 30.334099 
" style="fill:none;stroke:#ff00ff;stroke-linecap:square;stroke-width:1.5;"/>
   </g>
   <g id="line2d_40">
    <defs>
     <path d="M 0 8.485281 
L 5.091169 0 
L 0 -8.485281 
L -5.091169 0 
z
" id="m76ae64f931" style="stroke:#ff00ff;stroke-linejoin:miter;stroke-width:1.5;"/>
    </defs>
    <g>
     <use style="fill-opacity:0;stroke:#ff00ff;stroke-linejoin:miter;stroke-width:1.5;" x="181.542676" xlink:href="#m76ae64f931" y="148.838467"/>
     <use style="fill-opacity:0;stroke:#ff00ff;stroke-linejoin:miter;stroke-width:1.5;" x="198.471367" xlink:href="#m76ae64f931" y="30.860785"/>
     <use style="fill-opacity:0;stroke:#ff00ff;stroke-linejoin:miter;stroke-width:1.5;" x="198.471367" xlink:href="#m76ae64f931" y="30.334099"/>
     <use style="fill-opacity:0;stroke:#ff00ff;stroke-linejoin:miter;stroke-width:1.5;" x="198.471367" xlink:href="#m76ae64f931" y="30.334099"/>
     <use style="fill-opacity:0;stroke:#ff00ff;stroke-linejoin:miter;stroke-width:1.5;" x="338.688" xlink:href="#m76ae64f931" y="30.334099"/>
    </g>
   </g>
   <g id="line2d_41">
    <path style="fill:none;stroke:#ff00ff;stroke-linecap:square;stroke-width:1.5;"/>
    <g/>
   </g>
   <g id="line2d_42">
    <path d="M 338.688 30.334099 
L 369.60768 293.571802 
" style="fill:none;stroke:#ff00ff;stroke-linecap:square;stroke-width:1.5;"/>
    <g>
     <use style="fill-opacity:0;stroke:#ff00ff;stroke-linejoin:miter;stroke-width:1.5;" x="338.688" xlink:href="#m76ae64f931" y="30.334099"/>
     <use style="fill-opacity:0;stroke:#ff00ff;stroke-linejoin:miter;stroke-width:1.5;" x="369.60768" xlink:href="#m76ae64f931" y="293.571802"/>
    </g>
   </g>
   <g id="line2d_43">
    <path d="M 338.688 30.334099 
L 369.60768 164.63905 
" style="fill:none;stroke:#000080;stroke-linecap:square;stroke-width:1.5;"/>
    <g>
     <use style="fill-opacity:0;stroke:#000080;stroke-width:1.5;" x="338.688" xlink:href="#m1a313f760e" y="30.334099"/>
     <use style="fill-opacity:0;stroke:#000080;stroke-width:1.5;" x="369.60768" xlink:href="#m1a313f760e" y="164.63905"/>
    </g>
   </g>
   <g id="line2d_44">
    <path d="M 338.688 298.944 
L 338.688 30.334099 
" style="fill:none;stroke:#000000;stroke-linecap:square;stroke-width:1.5;"/>
   </g>
   <g id="patch_3">
    <path d="M 57.6 298.944 
L 57.6 27.648 
" style="fill:none;stroke:#000000;stroke-linecap:square;stroke-linejoin:miter;stroke-width:0.8;"/>
   </g>
   <g id="patch_4">
    <path d="M 338.688 298.944 
L 338.688 27.648 
" style="fill:none;stroke:#000000;stroke-linecap:square;stroke-linejoin:miter;stroke-width:0.8;"/>
   </g>
   <g id="patch_5">
    <path d="M 57.6 298.944 
L 338.688 298.944 
" style="fill:none;stroke:#000000;stroke-linecap:square;stroke-linejoin:miter;stroke-width:0.8;"/>
   </g>
   <g id="patch_6">
    <path d="M 57.6 27.648 
L 338.688 27.648 
" style="fill:none;stroke:#000000;stroke-linecap:square;stroke-linejoin:miter;stroke-width:0.8;"/>
   </g>
   <g id="text_13">
    <!-- SHADE-LM Ok -->
    <g transform="translate(375.22944 298.262739)scale(0.17 -0.17)">
     <defs>
      <path d="M 3425 4513 
L 3425 3897 
Q 3066 4069 2747 4153 
Q 2428 4238 2131 4238 
Q 1616 4238 1336 4038 
Q 1056 3838 1056 3469 
Q 1056 3159 1242 3001 
Q 1428 2844 1947 2747 
L 2328 2669 
Q 3034 2534 3370 2195 
Q 3706 1856 3706 1288 
Q 3706 609 3251 259 
Q 2797 -91 1919 -91 
Q 1588 -91 1214 -16 
Q 841 59 441 206 
L 441 856 
Q 825 641 1194 531 
Q 1563 422 1919 422 
Q 2459 422 2753 634 
Q 3047 847 3047 1241 
Q 3047 1584 2836 1778 
Q 2625 1972 2144 2069 
L 1759 2144 
Q 1053 2284 737 2584 
Q 422 2884 422 3419 
Q 422 4038 858 4394 
Q 1294 4750 2059 4750 
Q 2388 4750 2728 4690 
Q 3069 4631 3425 4513 
z
" id="DejaVuSans-53" transform="scale(0.015625)"/>
      <path d="M 628 4666 
L 1259 4666 
L 1259 2753 
L 3553 2753 
L 3553 4666 
L 4184 4666 
L 4184 0 
L 3553 0 
L 3553 2222 
L 1259 2222 
L 1259 0 
L 628 0 
L 628 4666 
z
" id="DejaVuSans-48" transform="scale(0.015625)"/>
      <path d="M 2188 4044 
L 1331 1722 
L 3047 1722 
L 2188 4044 
z
M 1831 4666 
L 2547 4666 
L 4325 0 
L 3669 0 
L 3244 1197 
L 1141 1197 
L 716 0 
L 50 0 
L 1831 4666 
z
" id="DejaVuSans-41" transform="scale(0.015625)"/>
      <path d="M 1259 4147 
L 1259 519 
L 2022 519 
Q 2988 519 3436 956 
Q 3884 1394 3884 2338 
Q 3884 3275 3436 3711 
Q 2988 4147 2022 4147 
L 1259 4147 
z
M 628 4666 
L 1925 4666 
Q 3281 4666 3915 4102 
Q 4550 3538 4550 2338 
Q 4550 1131 3912 565 
Q 3275 0 1925 0 
L 628 0 
L 628 4666 
z
" id="DejaVuSans-44" transform="scale(0.015625)"/>
      <path d="M 628 4666 
L 3578 4666 
L 3578 4134 
L 1259 4134 
L 1259 2753 
L 3481 2753 
L 3481 2222 
L 1259 2222 
L 1259 531 
L 3634 531 
L 3634 0 
L 628 0 
L 628 4666 
z
" id="DejaVuSans-45" transform="scale(0.015625)"/>
      <path d="M 628 4666 
L 1259 4666 
L 1259 531 
L 3531 531 
L 3531 0 
L 628 0 
L 628 4666 
z
" id="DejaVuSans-4c" transform="scale(0.015625)"/>
      <path d="M 628 4666 
L 1569 4666 
L 2759 1491 
L 3956 4666 
L 4897 4666 
L 4897 0 
L 4281 0 
L 4281 4097 
L 3078 897 
L 2444 897 
L 1241 4097 
L 1241 0 
L 628 0 
L 628 4666 
z
" id="DejaVuSans-4d" transform="scale(0.015625)"/>
      <path d="M 2522 4238 
Q 1834 4238 1429 3725 
Q 1025 3213 1025 2328 
Q 1025 1447 1429 934 
Q 1834 422 2522 422 
Q 3209 422 3611 934 
Q 4013 1447 4013 2328 
Q 4013 3213 3611 3725 
Q 3209 4238 2522 4238 
z
M 2522 4750 
Q 3503 4750 4090 4092 
Q 4678 3434 4678 2328 
Q 4678 1225 4090 567 
Q 3503 -91 2522 -91 
Q 1538 -91 948 565 
Q 359 1222 359 2328 
Q 359 3434 948 4092 
Q 1538 4750 2522 4750 
z
" id="DejaVuSans-4f" transform="scale(0.015625)"/>
      <path d="M 581 4863 
L 1159 4863 
L 1159 1991 
L 2875 3500 
L 3609 3500 
L 1753 1863 
L 3688 0 
L 2938 0 
L 1159 1709 
L 1159 0 
L 581 0 
L 581 4863 
z
" id="DejaVuSans-6b" transform="scale(0.015625)"/>
     </defs>
     <use xlink:href="#DejaVuSans-53"/>
     <use x="63.476562" xlink:href="#DejaVuSans-48"/>
     <use x="138.671875" xlink:href="#DejaVuSans-41"/>
     <use x="207.080078" xlink:href="#DejaVuSans-44"/>
     <use x="284.082031" xlink:href="#DejaVuSans-45"/>
     <use x="347.265625" xlink:href="#DejaVuSans-2d"/>
     <use x="383.349609" xlink:href="#DejaVuSans-4c"/>
     <use x="439.0625" xlink:href="#DejaVuSans-4d"/>
     <use x="525.341797" xlink:href="#DejaVuSans-20"/>
     <use x="557.128906" xlink:href="#DejaVuSans-4f"/>
     <use x="635.839844" xlink:href="#DejaVuSans-6b"/>
    </g>
   </g>
   <g id="text_14">
    <!-- SHADE-LM-PO -->
    <g transform="translate(375.22944 169.329987)scale(0.17 -0.17)">
     <defs>
      <path d="M 1259 4147 
L 1259 2394 
L 2053 2394 
Q 2494 2394 2734 2622 
Q 2975 2850 2975 3272 
Q 2975 3691 2734 3919 
Q 2494 4147 2053 4147 
L 1259 4147 
z
M 628 4666 
L 2053 4666 
Q 2838 4666 3239 4311 
Q 3641 3956 3641 3272 
Q 3641 2581 3239 2228 
Q 2838 1875 2053 1875 
L 1259 1875 
L 1259 0 
L 628 0 
L 628 4666 
z
" id="DejaVuSans-50" transform="scale(0.015625)"/>
     </defs>
     <use xlink:href="#DejaVuSans-53"/>
     <use x="63.476562" xlink:href="#DejaVuSans-48"/>
     <use x="138.671875" xlink:href="#DejaVuSans-41"/>
     <use x="207.080078" xlink:href="#DejaVuSans-44"/>
     <use x="284.082031" xlink:href="#DejaVuSans-45"/>
     <use x="347.265625" xlink:href="#DejaVuSans-2d"/>
     <use x="383.349609" xlink:href="#DejaVuSans-4c"/>
     <use x="439.0625" xlink:href="#DejaVuSans-4d"/>
     <use x="525.341797" xlink:href="#DejaVuSans-2d"/>
     <use x="561.425781" xlink:href="#DejaVuSans-50"/>
     <use x="621.728516" xlink:href="#DejaVuSans-4f"/>
    </g>
   </g>
   <g id="text_15">
    <!-- best 2009 -->
    <g transform="translate(375.22944 40.397235)scale(0.17 -0.17)">
     <defs>
      <path d="M 3116 1747 
Q 3116 2381 2855 2742 
Q 2594 3103 2138 3103 
Q 1681 3103 1420 2742 
Q 1159 2381 1159 1747 
Q 1159 1113 1420 752 
Q 1681 391 2138 391 
Q 2594 391 2855 752 
Q 3116 1113 3116 1747 
z
M 1159 2969 
Q 1341 3281 1617 3432 
Q 1894 3584 2278 3584 
Q 2916 3584 3314 3078 
Q 3713 2572 3713 1747 
Q 3713 922 3314 415 
Q 2916 -91 2278 -91 
Q 1894 -91 1617 61 
Q 1341 213 1159 525 
L 1159 0 
L 581 0 
L 581 4863 
L 1159 4863 
L 1159 2969 
z
" id="DejaVuSans-62" transform="scale(0.015625)"/>
      <path d="M 703 97 
L 703 672 
Q 941 559 1184 500 
Q 1428 441 1663 441 
Q 2288 441 2617 861 
Q 2947 1281 2994 2138 
Q 2813 1869 2534 1725 
Q 2256 1581 1919 1581 
Q 1219 1581 811 2004 
Q 403 2428 403 3163 
Q 403 3881 828 4315 
Q 1253 4750 1959 4750 
Q 2769 4750 3195 4129 
Q 3622 3509 3622 2328 
Q 3622 1225 3098 567 
Q 2575 -91 1691 -91 
Q 1453 -91 1209 -44 
Q 966 3 703 97 
z
M 1959 2075 
Q 2384 2075 2632 2365 
Q 2881 2656 2881 3163 
Q 2881 3666 2632 3958 
Q 2384 4250 1959 4250 
Q 1534 4250 1286 3958 
Q 1038 3666 1038 3163 
Q 1038 2656 1286 2365 
Q 1534 2075 1959 2075 
z
" id="DejaVuSans-39" transform="scale(0.015625)"/>
     </defs>
     <use xlink:href="#DejaVuSans-62"/>
     <use x="63.476562" xlink:href="#DejaVuSans-65"/>
     <use x="125" xlink:href="#DejaVuSans-73"/>
     <use x="177.099609" xlink:href="#DejaVuSans-74"/>
     <use x="216.308594" xlink:href="#DejaVuSans-20"/>
     <use x="248.095703" xlink:href="#DejaVuSans-32"/>
     <use x="311.71875" xlink:href="#DejaVuSans-30"/>
     <use x="375.341797" xlink:href="#DejaVuSans-30"/>
     <use x="438.964844" xlink:href="#DejaVuSans-39"/>
    </g>
   </g>
   <g id="text_16">
    <!-- bbob f8, 10-D -->
    <g transform="translate(60.41088 38.111366)scale(0.102 -0.102)">
     <use xlink:href="#DejaVuSans-62"/>
     <use x="63.476562" xlink:href="#DejaVuSans-62"/>
     <use x="126.953125" xlink:href="#DejaVuSans-6f"/>
     <use x="188.134766" xlink:href="#DejaVuSans-62"/>
     <use x="251.611328" xlink:href="#DejaVuSans-20"/>
     <use x="283.398438" xlink:href="#DejaVuSans-66"/>
     <use x="318.603516" xlink:href="#DejaVuSans-38"/>
     <use x="382.226562" xlink:href="#DejaVuSans-2c"/>
     <use x="414.013672" xlink:href="#DejaVuSans-20"/>
     <use x="445.800781" xlink:href="#DejaVuSans-31"/>
     <use x="509.423828" xlink:href="#DejaVuSans-30"/>
     <use x="573.046875" xlink:href="#DejaVuSans-2d"/>
     <use x="609.130859" xlink:href="#DejaVuSans-44"/>
    </g>
    <!-- 51 targets: 100..1e-08 -->
    <g transform="translate(60.41088 49.533135)scale(0.102 -0.102)">
     <defs>
      <path d="M 691 4666 
L 3169 4666 
L 3169 4134 
L 1269 4134 
L 1269 2991 
Q 1406 3038 1543 3061 
Q 1681 3084 1819 3084 
Q 2600 3084 3056 2656 
Q 3513 2228 3513 1497 
Q 3513 744 3044 326 
Q 2575 -91 1722 -91 
Q 1428 -91 1123 -41 
Q 819 9 494 109 
L 494 744 
Q 775 591 1075 516 
Q 1375 441 1709 441 
Q 2250 441 2565 725 
Q 2881 1009 2881 1497 
Q 2881 1984 2565 2268 
Q 2250 2553 1709 2553 
Q 1456 2553 1204 2497 
Q 953 2441 691 2322 
L 691 4666 
z
" id="DejaVuSans-35" transform="scale(0.015625)"/>
      <path d="M 750 794 
L 1409 794 
L 1409 0 
L 750 0 
L 750 794 
z
M 750 3309 
L 1409 3309 
L 1409 2516 
L 750 2516 
L 750 3309 
z
" id="DejaVuSans-3a" transform="scale(0.015625)"/>
     </defs>
     <use xlink:href="#DejaVuSans-35"/>
     <use x="63.623047" xlink:href="#DejaVuSans-31"/>
     <use x="127.246094" xlink:href="#DejaVuSans-20"/>
     <use x="159.033203" xlink:href="#DejaVuSans-74"/>
     <use x="198.242188" xlink:href="#DejaVuSans-61"/>
     <use x="259.521484" xlink:href="#DejaVuSans-72"/>
     <use x="298.884766" xlink:href="#DejaVuSans-67"/>
     <use x="362.361328" xlink:href="#DejaVuSans-65"/>
     <use x="423.884766" xlink:href="#DejaVuSans-74"/>
     <use x="463.09375" xlink:href="#DejaVuSans-73"/>
     <use x="515.193359" xlink:href="#DejaVuSans-3a"/>
     <use x="548.884766" xlink:href="#DejaVuSans-20"/>
     <use x="580.671875" xlink:href="#DejaVuSans-31"/>
     <use x="644.294922" xlink:href="#DejaVuSans-30"/>
     <use x="707.917969" xlink:href="#DejaVuSans-30"/>
     <use x="771.541016" xlink:href="#DejaVuSans-2e"/>
     <use x="803.328125" xlink:href="#DejaVuSans-2e"/>
     <use x="835.115234" xlink:href="#DejaVuSans-31"/>
     <use x="898.738281" xlink:href="#DejaVuSans-65"/>
     <use x="960.261719" xlink:href="#DejaVuSans-2d"/>
     <use x="996.345703" xlink:href="#DejaVuSans-30"/>
     <use x="1059.96875" xlink:href="#DejaVuSans-38"/>
    </g>
    <!-- 15 instances -->
    <g transform="translate(60.41088 60.954904)scale(0.102 -0.102)">
     <use xlink:href="#DejaVuSans-31"/>
     <use x="63.623047" xlink:href="#DejaVuSans-35"/>
     <use x="127.246094" xlink:href="#DejaVuSans-20"/>
     <use x="159.033203" xlink:href="#DejaVuSans-69"/>
     <use x="186.816406" xlink:href="#DejaVuSans-6e"/>
     <use x="250.195312" xlink:href="#DejaVuSans-73"/>
     <use x="302.294922" xlink:href="#DejaVuSans-74"/>
     <use x="341.503906" xlink:href="#DejaVuSans-61"/>
     <use x="402.783203" xlink:href="#DejaVuSans-6e"/>
     <use x="466.162109" xlink:href="#DejaVuSans-63"/>
     <use x="521.142578" xlink:href="#DejaVuSans-65"/>
     <use x="582.666016" xlink:href="#DejaVuSans-73"/>
    </g>
   </g>
   <g id="text_17">
    <!-- v2.4.1.1 -->
    <g style="fill:#808080;" transform="translate(177.692437 294.151352)scale(0.1 -0.1)">
     <use xlink:href="#DejaVuSans-76"/>
     <use x="59.179688" xlink:href="#DejaVuSans-32"/>
     <use x="122.802734" xlink:href="#DejaVuSans-2e"/>
     <use x="154.589844" xlink:href="#DejaVuSans-34"/>
     <use x="218.212891" xlink:href="#DejaVuSans-2e"/>
     <use x="250" xlink:href="#DejaVuSans-31"/>
     <use x="313.623047" xlink:href="#DejaVuSans-2e"/>
     <use x="345.410156" xlink:href="#DejaVuSans-31"/>
    </g>
   </g>
   <g id="text_18">
    <!-- 8 Rosenbrock original -->
    <g transform="translate(90.08775 21.648)scale(0.2 -0.2)">
     <defs>
      <path d="M 2841 2188 
Q 3044 2119 3236 1894 
Q 3428 1669 3622 1275 
L 4263 0 
L 3584 0 
L 2988 1197 
Q 2756 1666 2539 1819 
Q 2322 1972 1947 1972 
L 1259 1972 
L 1259 0 
L 628 0 
L 628 4666 
L 2053 4666 
Q 2853 4666 3247 4331 
Q 3641 3997 3641 3322 
Q 3641 2881 3436 2590 
Q 3231 2300 2841 2188 
z
M 1259 4147 
L 1259 2491 
L 2053 2491 
Q 2509 2491 2742 2702 
Q 2975 2913 2975 3322 
Q 2975 3731 2742 3939 
Q 2509 4147 2053 4147 
L 1259 4147 
z
" id="DejaVuSans-52" transform="scale(0.015625)"/>
     </defs>
     <use xlink:href="#DejaVuSans-38"/>
     <use x="63.623047" xlink:href="#DejaVuSans-20"/>
     <use x="95.410156" xlink:href="#DejaVuSans-52"/>
     <use x="160.392578" xlink:href="#DejaVuSans-6f"/>
     <use x="221.574219" xlink:href="#DejaVuSans-73"/>
     <use x="273.673828" xlink:href="#DejaVuSans-65"/>
     <use x="335.197266" xlink:href="#DejaVuSans-6e"/>
     <use x="398.576172" xlink:href="#DejaVuSans-62"/>
     <use x="462.052734" xlink:href="#DejaVuSans-72"/>
     <use x="500.916016" xlink:href="#DejaVuSans-6f"/>
     <use x="562.097656" xlink:href="#DejaVuSans-63"/>
     <use x="617.078125" xlink:href="#DejaVuSans-6b"/>
     <use x="674.988281" xlink:href="#DejaVuSans-20"/>
     <use x="706.775391" xlink:href="#DejaVuSans-6f"/>
     <use x="767.957031" xlink:href="#DejaVuSans-72"/>
     <use x="809.070312" xlink:href="#DejaVuSans-69"/>
     <use x="836.853516" xlink:href="#DejaVuSans-67"/>
     <use x="900.330078" xlink:href="#DejaVuSans-69"/>
     <use x="928.113281" xlink:href="#DejaVuSans-6e"/>
     <use x="991.492188" xlink:href="#DejaVuSans-61"/>
     <use x="1052.771484" xlink:href="#DejaVuSans-6c"/>
    </g>
   </g>
  </g>
 </g>
 <defs>
  <clipPath id="pc2afbdd339">
   <rect height="271.296" width="281.088" x="57.6" y="27.648"/>
  </clipPath>
 </defs>
</svg>
