<?xml version="1.0" encoding="utf-8" standalone="no"?>
<!DOCTYPE svg PUBLIC "-//W3C//DTD SVG 1.1//EN"
  "http://www.w3.org/Graphics/SVG/1.1/DTD/svg11.dtd">
<svg height="345.6pt" version="1.1" viewBox="0 0 460.8 345.6" width="460.8pt" xmlns="http://www.w3.org/2000/svg" xmlns:xlink="http://www.w3.org/1999/xlink">
 <metadata>
  <rdf:RDF xmlns:cc="http://creativecommons.org/ns#" xmlns:dc="http://purl.org/dc/elements/1.1/" xmlns:rdf="http://www.w3.org/1999/02/22-rdf-syntax-ns#">
   <cc:Work>
    <dc:type rdf:resource="http://purl.org/dc/dcmitype/StillImage"/>
    <dc:date>2022-03-29T11:44:42.234326</dc:date>
    <dc:format>image/svg+xml</dc:format>
    <dc:creator>
     <cc:Agent>
      <dc:title>Matplotlib v3.4.3, https://matplotlib.org/</dc:title>
     </cc:Agent>
    </dc:creator>
   </cc:Work>
  </rdf:RDF>
 </metadata>
 <defs>
  <style type="text/css">*{stroke-linecap:butt;stroke-linejoin:round;}</style>
 </defs>
 <g id="figure_1">
  <g id="patch_1">
   <path d="M 0 345.6 
L 460.8 345.6 
L 460.8 0 
L 0 0 
z
" style="fill:#ffffff;"/>
  </g>
  <g id="axes_1">
   <g id="patch_2">
    <path d="M 57.6 298.944 
L 338.688 298.944 
L 338.688 27.648 
L 57.6 27.648 
z
" style="fill:#ffffff;"/>
   </g>
   <g id="line2d_1">
    <path d="M 29.53256 298.944 
L 29.53256 225.207949 
L 119.301163 225.207949 
L 119.301163 219.941088 
L 125.255688 219.941088 
L 125.255688 214.674227 
L 143.144465 214.674227 
L 143.144465 209.407366 
L 169.605481 209.407366 
L 169.605481 204.140506 
L 177.876917 204.140506 
L 177.876917 198.873645 
L 186.971927 198.873645 
L 186.971927 193.606784 
L 231.136968 193.606784 
L 231.136968 188.339923 
L 233.471375 188.339923 
L 233.471375 183.073062 
L 233.490858 183.073062 
L 233.490858 177.806202 
L 233.509013 177.806202 
L 233.509013 172.539341 
L 233.535992 172.539341 
L 233.535992 167.27248 
L 233.552797 167.27248 
L 233.552797 162.005619 
L 233.56322 162.005619 
L 233.56322 156.738758 
L 233.578263 156.738758 
L 233.578263 151.471897 
L 233.584624 151.471897 
L 233.584624 146.205037 
L 233.593438 146.205037 
L 233.593438 140.938176 
L 233.611342 140.938176 
L 233.611342 135.671315 
L 233.623316 135.671315 
L 233.623316 130.404454 
L 233.633697 130.404454 
L 233.633697 125.137593 
L 233.638596 125.137593 
L 233.638596 119.870733 
L 233.647239 119.870733 
L 233.647239 114.603872 
L 233.655015 114.603872 
L 233.655015 109.337011 
L 233.662498 109.337011 
L 233.662498 104.07015 
L 233.683494 104.07015 
L 233.683494 98.803289 
L 233.695562 98.803289 
L 233.695562 93.536429 
L 233.701306 93.536429 
L 233.701306 88.269568 
L 233.708196 88.269568 
L 233.708196 83.002707 
L 233.719673 83.002707 
L 233.719673 77.735846 
L 233.735729 77.735846 
L 233.735729 72.468985 
L 233.752485 72.468985 
L 233.752485 67.202125 
L 233.765793 67.202125 
L 233.765793 61.935264 
L 233.780092 61.935264 
L 233.780092 56.668403 
L 233.791093 56.668403 
L 233.791093 51.401542 
L 233.800803 51.401542 
L 233.800803 46.134681 
L 233.811649 46.134681 
L 233.811649 40.867821 
L 233.824769 40.867821 
L 233.824769 35.60096 
L 233.834746 35.60096 
L 233.834746 30.334099 
L 338.688 30.334099 
" style="fill:none;stroke:#f5deb3;stroke-linecap:square;stroke-width:4;"/>
   </g>
   <g id="line2d_2">
    <defs>
     <path d="M 0 7.778175 
L 7.778175 0 
L 0 -7.778175 
L -7.778175 0 
z
" id="m7208a03d0b" style="stroke:#f5deb3;stroke-linejoin:miter;stroke-width:1.5;"/>
    </defs>
    <g>
     <use style="fill:#f5deb3;stroke:#f5deb3;stroke-linejoin:miter;stroke-width:1.5;" x="177.876917" xlink:href="#m7208a03d0b" y="198.873645"/>
     <use style="fill:#f5deb3;stroke:#f5deb3;stroke-linejoin:miter;stroke-width:1.5;" x="233.683494" xlink:href="#m7208a03d0b" y="104.07015"/>
     <use style="fill:#f5deb3;stroke:#f5deb3;stroke-linejoin:miter;stroke-width:1.5;" x="233.834746" xlink:href="#m7208a03d0b" y="30.334099"/>
     <use style="fill:#f5deb3;stroke:#f5deb3;stroke-linejoin:miter;stroke-width:1.5;" x="233.834746" xlink:href="#m7208a03d0b" y="30.334099"/>
     <use style="fill:#f5deb3;stroke:#f5deb3;stroke-linejoin:miter;stroke-width:1.5;" x="338.688" xlink:href="#m7208a03d0b" y="30.334099"/>
    </g>
   </g>
   <g id="line2d_3">
    <path style="fill:none;stroke:#f5deb3;stroke-linecap:square;stroke-width:4;"/>
    <g/>
   </g>
   <g id="line2d_4">
    <path d="M 338.688 30.334099 
L 369.60768 35.706297 
" style="fill:none;stroke:#f5deb3;stroke-linecap:square;stroke-width:4;"/>
    <g>
     <use style="fill:#f5deb3;stroke:#f5deb3;stroke-linejoin:miter;stroke-width:1.5;" x="338.688" xlink:href="#m7208a03d0b" y="30.334099"/>
     <use style="fill:#f5deb3;stroke:#f5deb3;stroke-linejoin:miter;stroke-width:1.5;" x="369.60768" xlink:href="#m7208a03d0b" y="35.706297"/>
    </g>
   </g>
   <g id="matplotlib.axis_1">
    <g id="xtick_1">
     <g id="line2d_5">
      <path clip-path="url(#p4a56a8d415)" d="M 57.6 298.944 
L 57.6 27.648 
" style="fill:none;stroke:#b0b0b0;stroke-linecap:square;stroke-width:0.8;"/>
     </g>
     <g id="line2d_6">
      <defs>
       <path d="M 0 0 
L 0 3.5 
" id="m56bef7fa49" style="stroke:#000000;stroke-width:0.8;"/>
      </defs>
      <g>
       <use style="stroke:#000000;stroke-width:0.8;" x="57.6" xlink:href="#m56bef7fa49" y="298.944"/>
      </g>
     </g>
     <g id="text_1">
      <!-- 0 -->
      <g transform="translate(51.2375 321.140875)scale(0.2 -0.2)">
       <defs>
        <path d="M 2034 4250 
Q 1547 4250 1301 3770 
Q 1056 3291 1056 2328 
Q 1056 1369 1301 889 
Q 1547 409 2034 409 
Q 2525 409 2770 889 
Q 3016 1369 3016 2328 
Q 3016 3291 2770 3770 
Q 2525 4250 2034 4250 
z
M 2034 4750 
Q 2819 4750 3233 4129 
Q 3647 3509 3647 2328 
Q 3647 1150 3233 529 
Q 2819 -91 2034 -91 
Q 1250 -91 836 529 
Q 422 1150 422 2328 
Q 422 3509 836 4129 
Q 1250 4750 2034 4750 
z
" id="DejaVuSans-30" transform="scale(0.015625)"/>
       </defs>
       <use xlink:href="#DejaVuSans-30"/>
      </g>
     </g>
    </g>
    <g id="xtick_2">
     <g id="line2d_7">
      <path clip-path="url(#p4a56a8d415)" d="M 137.910857 298.944 
L 137.910857 27.648 
" style="fill:none;stroke:#b0b0b0;stroke-linecap:square;stroke-width:0.8;"/>
     </g>
     <g id="line2d_8">
      <g>
       <use style="stroke:#000000;stroke-width:0.8;" x="137.910857" xlink:href="#m56bef7fa49" y="298.944"/>
      </g>
     </g>
     <g id="text_2">
      <!-- 2 -->
      <g transform="translate(131.548357 321.140875)scale(0.2 -0.2)">
       <defs>
        <path d="M 1228 531 
L 3431 531 
L 3431 0 
L 469 0 
L 469 531 
Q 828 903 1448 1529 
Q 2069 2156 2228 2338 
Q 2531 2678 2651 2914 
Q 2772 3150 2772 3378 
Q 2772 3750 2511 3984 
Q 2250 4219 1831 4219 
Q 1534 4219 1204 4116 
Q 875 4013 500 3803 
L 500 4441 
Q 881 4594 1212 4672 
Q 1544 4750 1819 4750 
Q 2544 4750 2975 4387 
Q 3406 4025 3406 3419 
Q 3406 3131 3298 2873 
Q 3191 2616 2906 2266 
Q 2828 2175 2409 1742 
Q 1991 1309 1228 531 
z
" id="DejaVuSans-32" transform="scale(0.015625)"/>
       </defs>
       <use xlink:href="#DejaVuSans-32"/>
      </g>
     </g>
    </g>
    <g id="xtick_3">
     <g id="line2d_9">
      <path clip-path="url(#p4a56a8d415)" d="M 218.221714 298.944 
L 218.221714 27.648 
" style="fill:none;stroke:#b0b0b0;stroke-linecap:square;stroke-width:0.8;"/>
     </g>
     <g id="line2d_10">
      <g>
       <use style="stroke:#000000;stroke-width:0.8;" x="218.221714" xlink:href="#m56bef7fa49" y="298.944"/>
      </g>
     </g>
     <g id="text_3">
      <!-- 4 -->
      <g transform="translate(211.859214 321.140875)scale(0.2 -0.2)">
       <defs>
        <path d="M 2419 4116 
L 825 1625 
L 2419 1625 
L 2419 4116 
z
M 2253 4666 
L 3047 4666 
L 3047 1625 
L 3713 1625 
L 3713 1100 
L 3047 1100 
L 3047 0 
L 2419 0 
L 2419 1100 
L 313 1100 
L 313 1709 
L 2253 4666 
z
" id="DejaVuSans-34" transform="scale(0.015625)"/>
       </defs>
       <use xlink:href="#DejaVuSans-34"/>
      </g>
     </g>
    </g>
    <g id="xtick_4">
     <g id="line2d_11">
      <path clip-path="url(#p4a56a8d415)" d="M 298.532571 298.944 
L 298.532571 27.648 
" style="fill:none;stroke:#b0b0b0;stroke-linecap:square;stroke-width:0.8;"/>
     </g>
     <g id="line2d_12">
      <g>
       <use style="stroke:#000000;stroke-width:0.8;" x="298.532571" xlink:href="#m56bef7fa49" y="298.944"/>
      </g>
     </g>
     <g id="text_4">
      <!-- 6 -->
      <g transform="translate(292.170071 321.140875)scale(0.2 -0.2)">
       <defs>
        <path d="M 2113 2584 
Q 1688 2584 1439 2293 
Q 1191 2003 1191 1497 
Q 1191 994 1439 701 
Q 1688 409 2113 409 
Q 2538 409 2786 701 
Q 3034 994 3034 1497 
Q 3034 2003 2786 2293 
Q 2538 2584 2113 2584 
z
M 3366 4563 
L 3366 3988 
Q 3128 4100 2886 4159 
Q 2644 4219 2406 4219 
Q 1781 4219 1451 3797 
Q 1122 3375 1075 2522 
Q 1259 2794 1537 2939 
Q 1816 3084 2150 3084 
Q 2853 3084 3261 2657 
Q 3669 2231 3669 1497 
Q 3669 778 3244 343 
Q 2819 -91 2113 -91 
Q 1303 -91 875 529 
Q 447 1150 447 2328 
Q 447 3434 972 4092 
Q 1497 4750 2381 4750 
Q 2619 4750 2861 4703 
Q 3103 4656 3366 4563 
z
" id="DejaVuSans-36" transform="scale(0.015625)"/>
       </defs>
       <use xlink:href="#DejaVuSans-36"/>
      </g>
     </g>
    </g>
    <g id="xtick_5">
     <g id="line2d_13">
      <path clip-path="url(#p4a56a8d415)" d="M 97.755429 298.944 
L 97.755429 27.648 
" style="fill:none;stroke:#b0b0b0;stroke-linecap:square;stroke-width:0.8;"/>
     </g>
     <g id="line2d_14">
      <defs>
       <path d="M 0 0 
L 0 2 
" id="ma35160d3f6" style="stroke:#000000;stroke-width:0.6;"/>
      </defs>
      <g>
       <use style="stroke:#000000;stroke-width:0.6;" x="97.755429" xlink:href="#ma35160d3f6" y="298.944"/>
      </g>
     </g>
    </g>
    <g id="xtick_6">
     <g id="line2d_15">
      <path clip-path="url(#p4a56a8d415)" d="M 178.066286 298.944 
L 178.066286 27.648 
" style="fill:none;stroke:#b0b0b0;stroke-linecap:square;stroke-width:0.8;"/>
     </g>
     <g id="line2d_16">
      <g>
       <use style="stroke:#000000;stroke-width:0.6;" x="178.066286" xlink:href="#ma35160d3f6" y="298.944"/>
      </g>
     </g>
    </g>
    <g id="xtick_7">
     <g id="line2d_17">
      <path clip-path="url(#p4a56a8d415)" d="M 258.377143 298.944 
L 258.377143 27.648 
" style="fill:none;stroke:#b0b0b0;stroke-linecap:square;stroke-width:0.8;"/>
     </g>
     <g id="line2d_18">
      <g>
       <use style="stroke:#000000;stroke-width:0.6;" x="258.377143" xlink:href="#ma35160d3f6" y="298.944"/>
      </g>
     </g>
    </g>
    <g id="xtick_8">
     <g id="line2d_19">
      <path clip-path="url(#p4a56a8d415)" d="M 338.688 298.944 
L 338.688 27.648 
" style="fill:none;stroke:#b0b0b0;stroke-linecap:square;stroke-width:0.8;"/>
     </g>
     <g id="line2d_20">
      <g>
       <use style="stroke:#000000;stroke-width:0.6;" x="338.688" xlink:href="#ma35160d3f6" y="298.944"/>
      </g>
     </g>
    </g>
    <g id="text_5">
     <!-- log10(# f-evals / dimension) -->
     <g transform="translate(77.764078 342.217594)scale(0.17 -0.17)">
      <defs>
       <path d="M 603 4863 
L 1178 4863 
L 1178 0 
L 603 0 
L 603 4863 
z
" id="DejaVuSans-6c" transform="scale(0.015625)"/>
       <path d="M 1959 3097 
Q 1497 3097 1228 2736 
Q 959 2375 959 1747 
Q 959 1119 1226 758 
Q 1494 397 1959 397 
Q 2419 397 2687 759 
Q 2956 1122 2956 1747 
Q 2956 2369 2687 2733 
Q 2419 3097 1959 3097 
z
M 1959 3584 
Q 2709 3584 3137 3096 
Q 3566 2609 3566 1747 
Q 3566 888 3137 398 
Q 2709 -91 1959 -91 
Q 1206 -91 779 398 
Q 353 888 353 1747 
Q 353 2609 779 3096 
Q 1206 3584 1959 3584 
z
" id="DejaVuSans-6f" transform="scale(0.015625)"/>
       <path d="M 2906 1791 
Q 2906 2416 2648 2759 
Q 2391 3103 1925 3103 
Q 1463 3103 1205 2759 
Q 947 2416 947 1791 
Q 947 1169 1205 825 
Q 1463 481 1925 481 
Q 2391 481 2648 825 
Q 2906 1169 2906 1791 
z
M 3481 434 
Q 3481 -459 3084 -895 
Q 2688 -1331 1869 -1331 
Q 1566 -1331 1297 -1286 
Q 1028 -1241 775 -1147 
L 775 -588 
Q 1028 -725 1275 -790 
Q 1522 -856 1778 -856 
Q 2344 -856 2625 -561 
Q 2906 -266 2906 331 
L 2906 616 
Q 2728 306 2450 153 
Q 2172 0 1784 0 
Q 1141 0 747 490 
Q 353 981 353 1791 
Q 353 2603 747 3093 
Q 1141 3584 1784 3584 
Q 2172 3584 2450 3431 
Q 2728 3278 2906 2969 
L 2906 3500 
L 3481 3500 
L 3481 434 
z
" id="DejaVuSans-67" transform="scale(0.015625)"/>
       <path d="M 794 531 
L 1825 531 
L 1825 4091 
L 703 3866 
L 703 4441 
L 1819 4666 
L 2450 4666 
L 2450 531 
L 3481 531 
L 3481 0 
L 794 0 
L 794 531 
z
" id="DejaVuSans-31" transform="scale(0.015625)"/>
       <path d="M 1984 4856 
Q 1566 4138 1362 3434 
Q 1159 2731 1159 2009 
Q 1159 1288 1364 580 
Q 1569 -128 1984 -844 
L 1484 -844 
Q 1016 -109 783 600 
Q 550 1309 550 2009 
Q 550 2706 781 3412 
Q 1013 4119 1484 4856 
L 1984 4856 
z
" id="DejaVuSans-28" transform="scale(0.015625)"/>
       <path d="M 3272 2816 
L 2363 2816 
L 2100 1772 
L 3016 1772 
L 3272 2816 
z
M 2803 4594 
L 2478 3297 
L 3391 3297 
L 3719 4594 
L 4219 4594 
L 3897 3297 
L 4872 3297 
L 4872 2816 
L 3775 2816 
L 3519 1772 
L 4513 1772 
L 4513 1294 
L 3397 1294 
L 3072 0 
L 2572 0 
L 2894 1294 
L 1978 1294 
L 1656 0 
L 1153 0 
L 1478 1294 
L 494 1294 
L 494 1772 
L 1594 1772 
L 1856 2816 
L 850 2816 
L 850 3297 
L 1978 3297 
L 2297 4594 
L 2803 4594 
z
" id="DejaVuSans-23" transform="scale(0.015625)"/>
       <path id="DejaVuSans-20" transform="scale(0.015625)"/>
       <path d="M 2375 4863 
L 2375 4384 
L 1825 4384 
Q 1516 4384 1395 4259 
Q 1275 4134 1275 3809 
L 1275 3500 
L 2222 3500 
L 2222 3053 
L 1275 3053 
L 1275 0 
L 697 0 
L 697 3053 
L 147 3053 
L 147 3500 
L 697 3500 
L 697 3744 
Q 697 4328 969 4595 
Q 1241 4863 1831 4863 
L 2375 4863 
z
" id="DejaVuSans-66" transform="scale(0.015625)"/>
       <path d="M 313 2009 
L 1997 2009 
L 1997 1497 
L 313 1497 
L 313 2009 
z
" id="DejaVuSans-2d" transform="scale(0.015625)"/>
       <path d="M 3597 1894 
L 3597 1613 
L 953 1613 
Q 991 1019 1311 708 
Q 1631 397 2203 397 
Q 2534 397 2845 478 
Q 3156 559 3463 722 
L 3463 178 
Q 3153 47 2828 -22 
Q 2503 -91 2169 -91 
Q 1331 -91 842 396 
Q 353 884 353 1716 
Q 353 2575 817 3079 
Q 1281 3584 2069 3584 
Q 2775 3584 3186 3129 
Q 3597 2675 3597 1894 
z
M 3022 2063 
Q 3016 2534 2758 2815 
Q 2500 3097 2075 3097 
Q 1594 3097 1305 2825 
Q 1016 2553 972 2059 
L 3022 2063 
z
" id="DejaVuSans-65" transform="scale(0.015625)"/>
       <path d="M 191 3500 
L 800 3500 
L 1894 563 
L 2988 3500 
L 3597 3500 
L 2284 0 
L 1503 0 
L 191 3500 
z
" id="DejaVuSans-76" transform="scale(0.015625)"/>
       <path d="M 2194 1759 
Q 1497 1759 1228 1600 
Q 959 1441 959 1056 
Q 959 750 1161 570 
Q 1363 391 1709 391 
Q 2188 391 2477 730 
Q 2766 1069 2766 1631 
L 2766 1759 
L 2194 1759 
z
M 3341 1997 
L 3341 0 
L 2766 0 
L 2766 531 
Q 2569 213 2275 61 
Q 1981 -91 1556 -91 
Q 1019 -91 701 211 
Q 384 513 384 1019 
Q 384 1609 779 1909 
Q 1175 2209 1959 2209 
L 2766 2209 
L 2766 2266 
Q 2766 2663 2505 2880 
Q 2244 3097 1772 3097 
Q 1472 3097 1187 3025 
Q 903 2953 641 2809 
L 641 3341 
Q 956 3463 1253 3523 
Q 1550 3584 1831 3584 
Q 2591 3584 2966 3190 
Q 3341 2797 3341 1997 
z
" id="DejaVuSans-61" transform="scale(0.015625)"/>
       <path d="M 2834 3397 
L 2834 2853 
Q 2591 2978 2328 3040 
Q 2066 3103 1784 3103 
Q 1356 3103 1142 2972 
Q 928 2841 928 2578 
Q 928 2378 1081 2264 
Q 1234 2150 1697 2047 
L 1894 2003 
Q 2506 1872 2764 1633 
Q 3022 1394 3022 966 
Q 3022 478 2636 193 
Q 2250 -91 1575 -91 
Q 1294 -91 989 -36 
Q 684 19 347 128 
L 347 722 
Q 666 556 975 473 
Q 1284 391 1588 391 
Q 1994 391 2212 530 
Q 2431 669 2431 922 
Q 2431 1156 2273 1281 
Q 2116 1406 1581 1522 
L 1381 1569 
Q 847 1681 609 1914 
Q 372 2147 372 2553 
Q 372 3047 722 3315 
Q 1072 3584 1716 3584 
Q 2034 3584 2315 3537 
Q 2597 3491 2834 3397 
z
" id="DejaVuSans-73" transform="scale(0.015625)"/>
       <path d="M 1625 4666 
L 2156 4666 
L 531 -594 
L 0 -594 
L 1625 4666 
z
" id="DejaVuSans-2f" transform="scale(0.015625)"/>
       <path d="M 2906 2969 
L 2906 4863 
L 3481 4863 
L 3481 0 
L 2906 0 
L 2906 525 
Q 2725 213 2448 61 
Q 2172 -91 1784 -91 
Q 1150 -91 751 415 
Q 353 922 353 1747 
Q 353 2572 751 3078 
Q 1150 3584 1784 3584 
Q 2172 3584 2448 3432 
Q 2725 3281 2906 2969 
z
M 947 1747 
Q 947 1113 1208 752 
Q 1469 391 1925 391 
Q 2381 391 2643 752 
Q 2906 1113 2906 1747 
Q 2906 2381 2643 2742 
Q 2381 3103 1925 3103 
Q 1469 3103 1208 2742 
Q 947 2381 947 1747 
z
" id="DejaVuSans-64" transform="scale(0.015625)"/>
       <path d="M 603 3500 
L 1178 3500 
L 1178 0 
L 603 0 
L 603 3500 
z
M 603 4863 
L 1178 4863 
L 1178 4134 
L 603 4134 
L 603 4863 
z
" id="DejaVuSans-69" transform="scale(0.015625)"/>
       <path d="M 3328 2828 
Q 3544 3216 3844 3400 
Q 4144 3584 4550 3584 
Q 5097 3584 5394 3201 
Q 5691 2819 5691 2113 
L 5691 0 
L 5113 0 
L 5113 2094 
Q 5113 2597 4934 2840 
Q 4756 3084 4391 3084 
Q 3944 3084 3684 2787 
Q 3425 2491 3425 1978 
L 3425 0 
L 2847 0 
L 2847 2094 
Q 2847 2600 2669 2842 
Q 2491 3084 2119 3084 
Q 1678 3084 1418 2786 
Q 1159 2488 1159 1978 
L 1159 0 
L 581 0 
L 581 3500 
L 1159 3500 
L 1159 2956 
Q 1356 3278 1631 3431 
Q 1906 3584 2284 3584 
Q 2666 3584 2933 3390 
Q 3200 3197 3328 2828 
z
" id="DejaVuSans-6d" transform="scale(0.015625)"/>
       <path d="M 3513 2113 
L 3513 0 
L 2938 0 
L 2938 2094 
Q 2938 2591 2744 2837 
Q 2550 3084 2163 3084 
Q 1697 3084 1428 2787 
Q 1159 2491 1159 1978 
L 1159 0 
L 581 0 
L 581 3500 
L 1159 3500 
L 1159 2956 
Q 1366 3272 1645 3428 
Q 1925 3584 2291 3584 
Q 2894 3584 3203 3211 
Q 3513 2838 3513 2113 
z
" id="DejaVuSans-6e" transform="scale(0.015625)"/>
       <path d="M 513 4856 
L 1013 4856 
Q 1481 4119 1714 3412 
Q 1947 2706 1947 2009 
Q 1947 1309 1714 600 
Q 1481 -109 1013 -844 
L 513 -844 
Q 928 -128 1133 580 
Q 1338 1288 1338 2009 
Q 1338 2731 1133 3434 
Q 928 4138 513 4856 
z
" id="DejaVuSans-29" transform="scale(0.015625)"/>
      </defs>
      <use xlink:href="#DejaVuSans-6c"/>
      <use x="27.783203" xlink:href="#DejaVuSans-6f"/>
      <use x="88.964844" xlink:href="#DejaVuSans-67"/>
      <use x="152.441406" xlink:href="#DejaVuSans-31"/>
      <use x="216.064453" xlink:href="#DejaVuSans-30"/>
      <use x="279.6875" xlink:href="#DejaVuSans-28"/>
      <use x="318.701172" xlink:href="#DejaVuSans-23"/>
      <use x="402.490234" xlink:href="#DejaVuSans-20"/>
      <use x="434.277344" xlink:href="#DejaVuSans-66"/>
      <use x="463.982422" xlink:href="#DejaVuSans-2d"/>
      <use x="500.066406" xlink:href="#DejaVuSans-65"/>
      <use x="561.589844" xlink:href="#DejaVuSans-76"/>
      <use x="620.769531" xlink:href="#DejaVuSans-61"/>
      <use x="682.048828" xlink:href="#DejaVuSans-6c"/>
      <use x="709.832031" xlink:href="#DejaVuSans-73"/>
      <use x="761.931641" xlink:href="#DejaVuSans-20"/>
      <use x="793.71875" xlink:href="#DejaVuSans-2f"/>
      <use x="827.410156" xlink:href="#DejaVuSans-20"/>
      <use x="859.197266" xlink:href="#DejaVuSans-64"/>
      <use x="922.673828" xlink:href="#DejaVuSans-69"/>
      <use x="950.457031" xlink:href="#DejaVuSans-6d"/>
      <use x="1047.869141" xlink:href="#DejaVuSans-65"/>
      <use x="1109.392578" xlink:href="#DejaVuSans-6e"/>
      <use x="1172.771484" xlink:href="#DejaVuSans-73"/>
      <use x="1224.871094" xlink:href="#DejaVuSans-69"/>
      <use x="1252.654297" xlink:href="#DejaVuSans-6f"/>
      <use x="1313.835938" xlink:href="#DejaVuSans-6e"/>
      <use x="1377.214844" xlink:href="#DejaVuSans-29"/>
     </g>
    </g>
   </g>
   <g id="matplotlib.axis_2">
    <g id="ytick_1">
     <g id="line2d_21">
      <path clip-path="url(#p4a56a8d415)" d="M 57.6 298.944 
L 338.688 298.944 
" style="fill:none;stroke:#b0b0b0;stroke-linecap:square;stroke-width:0.8;"/>
     </g>
     <g id="line2d_22">
      <defs>
       <path d="M 0 0 
L -3.5 0 
" id="m0ab3df99b6" style="stroke:#000000;stroke-width:0.8;"/>
      </defs>
      <g>
       <use style="stroke:#000000;stroke-width:0.8;" x="57.6" xlink:href="#m0ab3df99b6" y="298.944"/>
      </g>
     </g>
     <g id="text_6">
      <!-- 0.0 -->
      <g transform="translate(25.155 305.02275)scale(0.16 -0.16)">
       <defs>
        <path d="M 684 794 
L 1344 794 
L 1344 0 
L 684 0 
L 684 794 
z
" id="DejaVuSans-2e" transform="scale(0.015625)"/>
       </defs>
       <use xlink:href="#DejaVuSans-30"/>
       <use x="63.623047" xlink:href="#DejaVuSans-2e"/>
       <use x="95.410156" xlink:href="#DejaVuSans-30"/>
      </g>
     </g>
    </g>
    <g id="ytick_2">
     <g id="line2d_23">
      <path clip-path="url(#p4a56a8d415)" d="M 57.6 245.22202 
L 338.688 245.22202 
" style="fill:none;stroke:#b0b0b0;stroke-linecap:square;stroke-width:0.8;"/>
     </g>
     <g id="line2d_24">
      <g>
       <use style="stroke:#000000;stroke-width:0.8;" x="57.6" xlink:href="#m0ab3df99b6" y="245.22202"/>
      </g>
     </g>
     <g id="text_7">
      <!-- 0.2 -->
      <g transform="translate(25.155 251.30077)scale(0.16 -0.16)">
       <use xlink:href="#DejaVuSans-30"/>
       <use x="63.623047" xlink:href="#DejaVuSans-2e"/>
       <use x="95.410156" xlink:href="#DejaVuSans-32"/>
      </g>
     </g>
    </g>
    <g id="ytick_3">
     <g id="line2d_25">
      <path clip-path="url(#p4a56a8d415)" d="M 57.6 191.50004 
L 338.688 191.50004 
" style="fill:none;stroke:#b0b0b0;stroke-linecap:square;stroke-width:0.8;"/>
     </g>
     <g id="line2d_26">
      <g>
       <use style="stroke:#000000;stroke-width:0.8;" x="57.6" xlink:href="#m0ab3df99b6" y="191.50004"/>
      </g>
     </g>
     <g id="text_8">
      <!-- 0.4 -->
      <g transform="translate(25.155 197.57879)scale(0.16 -0.16)">
       <use xlink:href="#DejaVuSans-30"/>
       <use x="63.623047" xlink:href="#DejaVuSans-2e"/>
       <use x="95.410156" xlink:href="#DejaVuSans-34"/>
      </g>
     </g>
    </g>
    <g id="ytick_4">
     <g id="line2d_27">
      <path clip-path="url(#p4a56a8d415)" d="M 57.6 137.778059 
L 338.688 137.778059 
" style="fill:none;stroke:#b0b0b0;stroke-linecap:square;stroke-width:0.8;"/>
     </g>
     <g id="line2d_28">
      <g>
       <use style="stroke:#000000;stroke-width:0.8;" x="57.6" xlink:href="#m0ab3df99b6" y="137.778059"/>
      </g>
     </g>
     <g id="text_9">
      <!-- 0.6 -->
      <g transform="translate(25.155 143.856809)scale(0.16 -0.16)">
       <use xlink:href="#DejaVuSans-30"/>
       <use x="63.623047" xlink:href="#DejaVuSans-2e"/>
       <use x="95.410156" xlink:href="#DejaVuSans-36"/>
      </g>
     </g>
    </g>
    <g id="ytick_5">
     <g id="line2d_29">
      <path clip-path="url(#p4a56a8d415)" d="M 57.6 84.056079 
L 338.688 84.056079 
" style="fill:none;stroke:#b0b0b0;stroke-linecap:square;stroke-width:0.8;"/>
     </g>
     <g id="line2d_30">
      <g>
       <use style="stroke:#000000;stroke-width:0.8;" x="57.6" xlink:href="#m0ab3df99b6" y="84.056079"/>
      </g>
     </g>
     <g id="text_10">
      <!-- 0.8 -->
      <g transform="translate(25.155 90.134829)scale(0.16 -0.16)">
       <defs>
        <path d="M 2034 2216 
Q 1584 2216 1326 1975 
Q 1069 1734 1069 1313 
Q 1069 891 1326 650 
Q 1584 409 2034 409 
Q 2484 409 2743 651 
Q 3003 894 3003 1313 
Q 3003 1734 2745 1975 
Q 2488 2216 2034 2216 
z
M 1403 2484 
Q 997 2584 770 2862 
Q 544 3141 544 3541 
Q 544 4100 942 4425 
Q 1341 4750 2034 4750 
Q 2731 4750 3128 4425 
Q 3525 4100 3525 3541 
Q 3525 3141 3298 2862 
Q 3072 2584 2669 2484 
Q 3125 2378 3379 2068 
Q 3634 1759 3634 1313 
Q 3634 634 3220 271 
Q 2806 -91 2034 -91 
Q 1263 -91 848 271 
Q 434 634 434 1313 
Q 434 1759 690 2068 
Q 947 2378 1403 2484 
z
M 1172 3481 
Q 1172 3119 1398 2916 
Q 1625 2713 2034 2713 
Q 2441 2713 2670 2916 
Q 2900 3119 2900 3481 
Q 2900 3844 2670 4047 
Q 2441 4250 2034 4250 
Q 1625 4250 1398 4047 
Q 1172 3844 1172 3481 
z
" id="DejaVuSans-38" transform="scale(0.015625)"/>
       </defs>
       <use xlink:href="#DejaVuSans-30"/>
       <use x="63.623047" xlink:href="#DejaVuSans-2e"/>
       <use x="95.410156" xlink:href="#DejaVuSans-38"/>
      </g>
     </g>
    </g>
    <g id="ytick_6">
     <g id="line2d_31">
      <path clip-path="url(#p4a56a8d415)" d="M 57.6 30.334099 
L 338.688 30.334099 
" style="fill:none;stroke:#b0b0b0;stroke-linecap:square;stroke-width:0.8;"/>
     </g>
     <g id="line2d_32">
      <g>
       <use style="stroke:#000000;stroke-width:0.8;" x="57.6" xlink:href="#m0ab3df99b6" y="30.334099"/>
      </g>
     </g>
     <g id="text_11">
      <!-- 1.0 -->
      <g transform="translate(25.155 36.412849)scale(0.16 -0.16)">
       <use xlink:href="#DejaVuSans-31"/>
       <use x="63.623047" xlink:href="#DejaVuSans-2e"/>
       <use x="95.410156" xlink:href="#DejaVuSans-30"/>
      </g>
     </g>
    </g>
    <g id="text_12">
     <!-- Fraction of function,target pairs -->
     <g transform="translate(17.619531 297.681)rotate(-90)scale(0.17 -0.17)">
      <defs>
       <path d="M 628 4666 
L 3309 4666 
L 3309 4134 
L 1259 4134 
L 1259 2759 
L 3109 2759 
L 3109 2228 
L 1259 2228 
L 1259 0 
L 628 0 
L 628 4666 
z
" id="DejaVuSans-46" transform="scale(0.015625)"/>
       <path d="M 2631 2963 
Q 2534 3019 2420 3045 
Q 2306 3072 2169 3072 
Q 1681 3072 1420 2755 
Q 1159 2438 1159 1844 
L 1159 0 
L 581 0 
L 581 3500 
L 1159 3500 
L 1159 2956 
Q 1341 3275 1631 3429 
Q 1922 3584 2338 3584 
Q 2397 3584 2469 3576 
Q 2541 3569 2628 3553 
L 2631 2963 
z
" id="DejaVuSans-72" transform="scale(0.015625)"/>
       <path d="M 3122 3366 
L 3122 2828 
Q 2878 2963 2633 3030 
Q 2388 3097 2138 3097 
Q 1578 3097 1268 2742 
Q 959 2388 959 1747 
Q 959 1106 1268 751 
Q 1578 397 2138 397 
Q 2388 397 2633 464 
Q 2878 531 3122 666 
L 3122 134 
Q 2881 22 2623 -34 
Q 2366 -91 2075 -91 
Q 1284 -91 818 406 
Q 353 903 353 1747 
Q 353 2603 823 3093 
Q 1294 3584 2113 3584 
Q 2378 3584 2631 3529 
Q 2884 3475 3122 3366 
z
" id="DejaVuSans-63" transform="scale(0.015625)"/>
       <path d="M 1172 4494 
L 1172 3500 
L 2356 3500 
L 2356 3053 
L 1172 3053 
L 1172 1153 
Q 1172 725 1289 603 
Q 1406 481 1766 481 
L 2356 481 
L 2356 0 
L 1766 0 
Q 1100 0 847 248 
Q 594 497 594 1153 
L 594 3053 
L 172 3053 
L 172 3500 
L 594 3500 
L 594 4494 
L 1172 4494 
z
" id="DejaVuSans-74" transform="scale(0.015625)"/>
       <path d="M 544 1381 
L 544 3500 
L 1119 3500 
L 1119 1403 
Q 1119 906 1312 657 
Q 1506 409 1894 409 
Q 2359 409 2629 706 
Q 2900 1003 2900 1516 
L 2900 3500 
L 3475 3500 
L 3475 0 
L 2900 0 
L 2900 538 
Q 2691 219 2414 64 
Q 2138 -91 1772 -91 
Q 1169 -91 856 284 
Q 544 659 544 1381 
z
M 1991 3584 
L 1991 3584 
z
" id="DejaVuSans-75" transform="scale(0.015625)"/>
       <path d="M 750 794 
L 1409 794 
L 1409 256 
L 897 -744 
L 494 -744 
L 750 256 
L 750 794 
z
" id="DejaVuSans-2c" transform="scale(0.015625)"/>
       <path d="M 1159 525 
L 1159 -1331 
L 581 -1331 
L 581 3500 
L 1159 3500 
L 1159 2969 
Q 1341 3281 1617 3432 
Q 1894 3584 2278 3584 
Q 2916 3584 3314 3078 
Q 3713 2572 3713 1747 
Q 3713 922 3314 415 
Q 2916 -91 2278 -91 
Q 1894 -91 1617 61 
Q 1341 213 1159 525 
z
M 3116 1747 
Q 3116 2381 2855 2742 
Q 2594 3103 2138 3103 
Q 1681 3103 1420 2742 
Q 1159 2381 1159 1747 
Q 1159 1113 1420 752 
Q 1681 391 2138 391 
Q 2594 391 2855 752 
Q 3116 1113 3116 1747 
z
" id="DejaVuSans-70" transform="scale(0.015625)"/>
      </defs>
      <use xlink:href="#DejaVuSans-46"/>
      <use x="50.269531" xlink:href="#DejaVuSans-72"/>
      <use x="91.382812" xlink:href="#DejaVuSans-61"/>
      <use x="152.662109" xlink:href="#DejaVuSans-63"/>
      <use x="207.642578" xlink:href="#DejaVuSans-74"/>
      <use x="246.851562" xlink:href="#DejaVuSans-69"/>
      <use x="274.634766" xlink:href="#DejaVuSans-6f"/>
      <use x="335.816406" xlink:href="#DejaVuSans-6e"/>
      <use x="399.195312" xlink:href="#DejaVuSans-20"/>
      <use x="430.982422" xlink:href="#DejaVuSans-6f"/>
      <use x="492.164062" xlink:href="#DejaVuSans-66"/>
      <use x="527.369141" xlink:href="#DejaVuSans-20"/>
      <use x="559.15625" xlink:href="#DejaVuSans-66"/>
      <use x="594.361328" xlink:href="#DejaVuSans-75"/>
      <use x="657.740234" xlink:href="#DejaVuSans-6e"/>
      <use x="721.119141" xlink:href="#DejaVuSans-63"/>
      <use x="776.099609" xlink:href="#DejaVuSans-74"/>
      <use x="815.308594" xlink:href="#DejaVuSans-69"/>
      <use x="843.091797" xlink:href="#DejaVuSans-6f"/>
      <use x="904.273438" xlink:href="#DejaVuSans-6e"/>
      <use x="967.652344" xlink:href="#DejaVuSans-2c"/>
      <use x="999.439453" xlink:href="#DejaVuSans-74"/>
      <use x="1038.648438" xlink:href="#DejaVuSans-61"/>
      <use x="1099.927734" xlink:href="#DejaVuSans-72"/>
      <use x="1139.291016" xlink:href="#DejaVuSans-67"/>
      <use x="1202.767578" xlink:href="#DejaVuSans-65"/>
      <use x="1264.291016" xlink:href="#DejaVuSans-74"/>
      <use x="1303.5" xlink:href="#DejaVuSans-20"/>
      <use x="1335.287109" xlink:href="#DejaVuSans-70"/>
      <use x="1398.763672" xlink:href="#DejaVuSans-61"/>
      <use x="1460.042969" xlink:href="#DejaVuSans-69"/>
      <use x="1487.826172" xlink:href="#DejaVuSans-72"/>
      <use x="1528.939453" xlink:href="#DejaVuSans-73"/>
     </g>
    </g>
   </g>
   <g id="line2d_33">
    <defs>
     <path d="M 0 1.5 
C 0.397805 1.5 0.77937 1.341951 1.06066 1.06066 
C 1.341951 0.77937 1.5 0.397805 1.5 0 
C 1.5 -0.397805 1.341951 -0.77937 1.06066 -1.06066 
C 0.77937 -1.341951 0.397805 -1.5 0 -1.5 
C -0.397805 -1.5 -0.77937 -1.341951 -1.06066 -1.06066 
C -1.341951 -0.77937 -1.5 -0.397805 -1.5 0 
C -1.5 0.397805 -1.341951 0.77937 -1.06066 1.06066 
C -0.77937 1.341951 -0.397805 1.5 0 1.5 
z
" id="m9d01d5a139" style="stroke:#f5deb3;"/>
    </defs>
    <g>
     <use style="fill:#f5deb3;stroke:#f5deb3;" x="233.834746" xlink:href="#m9d01d5a139" y="30.334099"/>
     <use style="fill:#f5deb3;stroke:#f5deb3;" x="233.834746" xlink:href="#m9d01d5a139" y="30.334099"/>
    </g>
   </g>
   <g id="line2d_34">
    <defs>
     <path d="M 0 1.5 
C 0.397805 1.5 0.77937 1.341951 1.06066 1.06066 
C 1.341951 0.77937 1.5 0.397805 1.5 0 
C 1.5 -0.397805 1.341951 -0.77937 1.06066 -1.06066 
C 0.77937 -1.341951 0.397805 -1.5 0 -1.5 
C -0.397805 -1.5 -0.77937 -1.341951 -1.06066 -1.06066 
C -1.341951 -0.77937 -1.5 -0.397805 -1.5 0 
C -1.5 0.397805 -1.341951 0.77937 -1.06066 1.06066 
C -0.77937 1.341951 -0.397805 1.5 0 1.5 
z
" id="m2c6efb5858" style="stroke:#000080;"/>
    </defs>
    <g>
     <use style="fill:#000080;stroke:#000080;" x="317.84085" xlink:href="#m2c6efb5858" y="30.334099"/>
     <use style="fill:#000080;stroke:#000080;" x="317.84085" xlink:href="#m2c6efb5858" y="30.334099"/>
    </g>
   </g>
   <g id="line2d_35">
    <path d="M 29.53256 298.944 
L 29.53256 281.563359 
L 41.620548 281.563359 
L 41.620548 281.036673 
L 48.691568 281.036673 
L 48.691568 277.876557 
L 53.708537 277.876557 
L 53.708537 276.296499 
L 57.6 276.296499 
L 57.6 274.71644 
L 60.779557 274.71644 
L 60.779557 273.136382 
L 67.850577 273.136382 
L 67.850577 272.08301 
L 69.687988 272.08301 
L 69.687988 271.556324 
L 72.867545 271.556324 
L 72.867545 271.029638 
L 74.263433 271.029638 
L 74.263433 269.449579 
L 77.884514 269.449579 
L 77.884514 268.922893 
L 78.941764 268.922893 
L 78.941764 268.396207 
L 82.626842 268.396207 
L 82.626842 267.869521 
L 84.213325 267.869521 
L 84.213325 267.342835 
L 84.955534 267.342835 
L 84.955534 266.816149 
L 87.009585 266.816149 
L 87.009585 266.289463 
L 95.526106 266.289463 
L 95.526106 265.762777 
L 100.934985 265.762777 
L 100.934985 265.236091 
L 101.506816 265.236091 
L 101.506816 264.182719 
L 102.060491 264.182719 
L 102.060491 263.656033 
L 102.597126 263.656033 
L 102.597126 263.129347 
L 103.117741 263.129347 
L 103.117741 262.60266 
L 105.951954 262.60266 
L 105.951954 262.075974 
L 108.764355 262.075974 
L 108.764355 259.96923 
L 109.491096 259.96923 
L 109.491096 258.915858 
L 109.668146 258.915858 
L 109.668146 258.389172 
L 109.843417 258.389172 
L 109.843417 257.862486 
L 110.188761 257.862486 
L 110.188761 256.809114 
L 111.974805 256.809114 
L 111.974805 256.282427 
L 115.205729 256.282427 
L 115.205729 255.755741 
L 117.259781 255.755741 
L 117.259781 254.702369 
L 119.80089 254.702369 
L 119.80089 254.175683 
L 119.996839 254.175683 
L 119.996839 253.648997 
L 121.310093 253.648997 
L 121.310093 252.595625 
L 121.84399 252.595625 
L 121.84399 252.068939 
L 123.751369 252.068939 
L 123.751369 251.015567 
L 126.168212 251.015567 
L 126.168212 250.488881 
L 126.773103 250.488881 
L 126.773103 249.962195 
L 139.253002 249.962195 
L 139.253002 249.435508 
L 141.774395 249.435508 
L 141.774395 248.908822 
L 142.024126 248.908822 
L 142.024126 248.382136 
L 142.215919 248.382136 
L 142.215919 247.85545 
L 142.910378 247.85545 
L 142.910378 247.328764 
L 143.678752 247.328764 
L 143.678752 246.802078 
L 144.414696 246.802078 
L 144.414696 246.275392 
L 148.373289 246.275392 
L 148.373289 245.22202 
L 149.628721 245.22202 
L 149.628721 244.695334 
L 154.533999 244.695334 
L 154.533999 243.641962 
L 158.173558 243.641962 
L 158.173558 243.115275 
L 158.994256 243.115275 
L 158.994256 242.588589 
L 160.877419 242.588589 
L 160.877419 241.535217 
L 165.288176 241.535217 
L 165.288176 241.008531 
L 165.661531 241.008531 
L 165.661531 240.481845 
L 168.787729 240.481845 
L 168.787729 239.955159 
L 169.491796 239.955159 
L 169.491796 239.428473 
L 171.890917 239.428473 
L 171.890917 238.901787 
L 172.644719 238.901787 
L 172.644719 238.375101 
L 173.594124 238.375101 
L 173.594124 237.848415 
L 175.100268 237.848415 
L 175.100268 237.321729 
L 177.149725 237.321729 
L 177.149725 236.795043 
L 177.40517 236.795043 
L 177.40517 236.268356 
L 177.813334 236.268356 
L 177.813334 235.214984 
L 179.905092 235.214984 
L 179.905092 234.688298 
L 182.294884 234.688298 
L 182.294884 234.161612 
L 184.191312 234.161612 
L 184.191312 233.634926 
L 185.181429 233.634926 
L 185.181429 233.10824 
L 186.856428 233.10824 
L 186.856428 232.054868 
L 187.564541 232.054868 
L 187.633192 230.47481 
L 188.724784 230.47481 
L 188.724784 229.948123 
L 190.045814 229.948123 
L 190.045814 229.421437 
L 190.46539 229.421437 
L 190.46539 228.894751 
L 190.797964 228.894751 
L 190.836578 227.841379 
L 191.519011 227.841379 
L 191.519011 227.314693 
L 192.248583 227.314693 
L 192.248583 226.788007 
L 193.423702 226.788007 
L 193.423702 226.261321 
L 193.71618 226.261321 
L 193.71618 225.734635 
L 195.396923 225.734635 
L 195.396923 225.207949 
L 195.561409 225.207949 
L 195.561409 224.681263 
L 195.86193 224.681263 
L 195.86193 224.154577 
L 197.595696 224.154577 
L 197.595696 223.627891 
L 198.271051 223.627891 
L 198.271051 223.101204 
L 198.7143 223.101204 
L 198.7143 222.574518 
L 199.227597 222.574518 
L 199.227597 222.047832 
L 199.841673 222.047832 
L 199.841673 221.521146 
L 200.139313 221.521146 
L 200.139313 220.99446 
L 200.640618 220.99446 
L 200.640618 219.941088 
L 205.046498 219.941088 
L 205.081358 218.887716 
L 206.92803 218.887716 
L 206.92803 218.36103 
L 208.192737 218.36103 
L 208.192737 217.834344 
L 208.949688 217.834344 
L 208.949688 217.307658 
L 209.406045 217.307658 
L 209.406045 216.780971 
L 209.919396 216.780971 
L 209.919396 216.254285 
L 210.783597 216.254285 
L 210.783597 215.727599 
L 211.520128 215.727599 
L 211.520128 215.200913 
L 212.311207 215.200913 
L 212.311207 214.674227 
L 212.740073 214.674227 
L 212.740073 214.147541 
L 214.458827 214.147541 
L 214.458827 213.620855 
L 214.650358 213.620855 
L 214.650358 213.094169 
L 218.016825 213.094169 
L 218.016825 212.567483 
L 218.297584 212.567483 
L 218.297584 212.040797 
L 218.886904 212.040797 
L 218.886904 211.514111 
L 219.805361 211.514111 
L 219.805361 210.987425 
L 220.456198 210.987425 
L 220.456198 210.460738 
L 222.658165 210.460738 
L 222.658165 209.934052 
L 222.860629 209.934052 
L 222.860629 208.88068 
L 224.390382 208.88068 
L 224.390382 208.353994 
L 224.606 208.353994 
L 224.606 207.827308 
L 225.120517 207.827308 
L 225.120517 207.300622 
L 225.940906 207.300622 
L 225.940906 206.773936 
L 227.562264 206.773936 
L 227.562264 205.720564 
L 228.415618 205.720564 
L 228.415618 205.193878 
L 230.450046 205.193878 
L 230.553535 204.140506 
L 230.681356 204.140506 
L 230.730283 203.087133 
L 230.867464 203.087133 
L 230.867464 202.560447 
L 231.36055 202.560447 
L 231.36055 202.033761 
L 232.285139 202.033761 
L 232.285139 201.507075 
L 232.507634 201.507075 
L 232.507634 200.980389 
L 232.757056 200.980389 
L 232.757056 200.453703 
L 233.37334 200.453703 
L 233.37334 199.927017 
L 234.592816 199.927017 
L 234.700524 194.660156 
L 234.716244 194.660156 
L 234.723151 192.026726 
L 235.39516 192.026726 
L 235.39516 191.50004 
L 237.261496 191.50004 
L 237.261496 190.973354 
L 238.990255 190.973354 
L 238.990255 190.446667 
L 239.31958 190.446667 
L 239.365915 182.01969 
L 240.737067 182.01969 
L 240.789259 180.966318 
L 241.574345 180.966318 
L 241.605033 179.912946 
L 243.956317 179.912946 
L 243.956317 179.38626 
L 245.773135 179.38626 
L 245.773135 178.859574 
L 245.942314 178.859574 
L 246.044128 175.699457 
L 246.573731 175.699457 
L 246.573731 175.172771 
L 246.898861 175.172771 
L 246.898861 174.646085 
L 247.393938 174.646085 
L 247.393938 174.119399 
L 247.698087 174.119399 
L 247.698087 172.539341 
L 247.817356 172.539341 
L 247.854509 165.692422 
L 248.38736 165.692422 
L 248.38736 165.165736 
L 248.647894 165.165736 
L 248.742872 163.585677 
L 248.889335 163.585677 
L 248.889335 162.532305 
L 249.059531 162.532305 
L 249.059531 162.005619 
L 249.589957 162.005619 
L 249.589957 161.478933 
L 249.767888 161.478933 
L 249.767888 160.952247 
L 250.816346 160.952247 
L 250.816346 160.425561 
L 251.768786 160.425561 
L 251.768786 159.898875 
L 253.3019 159.898875 
L 253.3019 159.372189 
L 254.472901 159.372189 
L 254.472901 158.845503 
L 254.970407 158.845503 
L 255.05429 155.685386 
L 255.54494 155.685386 
L 255.54494 155.1587 
L 255.701377 155.1587 
L 255.727138 154.105328 
L 255.813327 154.105328 
L 255.813327 153.578642 
L 256.371818 153.578642 
L 256.371818 153.051956 
L 256.970353 153.051956 
L 257.048592 151.998584 
L 257.083712 151.998584 
L 257.083712 151.471897 
L 257.550707 151.471897 
L 257.550707 150.945211 
L 258.056327 150.945211 
L 258.056327 150.418525 
L 259.4445 150.418525 
L 259.50182 149.365153 
L 259.560581 149.365153 
L 259.560581 148.838467 
L 260.486138 148.838467 
L 260.504672 140.938176 
L 263.011432 140.938176 
L 263.011432 140.41149 
L 266.298364 140.41149 
L 266.322287 128.29771 
L 269.366745 128.29771 
L 269.381931 117.763988 
L 270.100171 117.763988 
L 270.138417 116.710616 
L 270.227921 116.710616 
L 270.227921 116.18393 
L 270.761662 116.18393 
L 270.7782 107.756953 
L 271.334821 107.756953 
L 271.334821 107.230267 
L 271.59092 107.230267 
L 271.59092 106.703581 
L 272.1919 106.703581 
L 272.1919 106.176895 
L 272.924969 106.176895 
L 272.924969 105.650209 
L 273.609542 105.650209 
L 273.609542 105.123522 
L 273.747003 105.123522 
L 273.756781 97.223231 
L 275.054615 97.223231 
L 275.059976 95.643173 
L 275.176833 95.643173 
L 275.176833 94.589801 
L 275.394387 94.589801 
L 275.454135 87.742882 
L 275.626819 87.742882 
L 275.689811 85.636137 
L 275.745105 85.636137 
L 275.808827 79.315904 
L 276.736331 79.315904 
L 276.736331 78.789218 
L 276.938846 78.789218 
L 277.008752 71.415613 
L 283.570069 71.415613 
L 283.570069 70.888927 
L 283.775322 70.888927 
L 283.793197 69.835555 
L 284.038485 69.835555 
L 284.045506 60.881892 
L 284.835695 60.881892 
L 284.8945 59.82852 
L 287.798686 59.82852 
L 287.801455 53.508287 
L 292.060461 53.508287 
L 292.131342 52.454914 
L 292.202437 52.454914 
L 292.290215 51.401542 
L 292.337546 51.401542 
L 292.337546 50.34817 
L 296.844658 50.34817 
L 296.844658 49.294798 
L 296.970614 49.294798 
L 296.982245 47.188054 
L 298.975547 47.188054 
L 298.987349 45.607995 
L 299.108447 45.607995 
L 299.108447 45.081309 
L 299.460203 45.081309 
L 299.46058 44.027937 
L 300.397731 44.027937 
L 300.399069 42.447879 
L 301.086213 42.447879 
L 301.086343 41.394507 
L 301.534805 41.394507 
L 301.534805 40.867821 
L 302.304753 40.867821 
L 302.305674 38.761076 
L 302.723618 38.761076 
L 302.723618 38.23439 
L 302.986787 38.23439 
L 302.987492 36.654332 
L 304.839087 36.654332 
L 304.839087 36.127646 
L 306.06782 36.127646 
L 306.06782 35.60096 
L 309.85715 35.60096 
L 309.85715 35.074274 
L 311.090685 35.074274 
L 311.090685 34.547588 
L 311.578236 34.547588 
L 311.578236 34.020902 
L 311.943296 34.020902 
L 311.944281 32.967529 
L 314.057901 32.967529 
L 314.058012 31.914157 
L 314.791507 31.914157 
L 314.792037 30.860785 
L 317.84085 30.860785 
L 317.84085 30.334099 
L 338.688 30.334099 
L 338.688 30.334099 
" style="fill:none;stroke:#000080;stroke-linecap:square;stroke-width:1.5;"/>
   </g>
   <g id="line2d_36">
    <defs>
     <path d="M 0 6 
C 1.591219 6 3.117479 5.367802 4.242641 4.242641 
C 5.367802 3.117479 6 1.591219 6 0 
C 6 -1.591219 5.367802 -3.117479 4.242641 -4.242641 
C 3.117479 -5.367802 1.591219 -6 0 -6 
C -1.591219 -6 -3.117479 -5.367802 -4.242641 -4.242641 
C -5.367802 -3.117479 -6 -1.591219 -6 0 
C -6 1.591219 -5.367802 3.117479 -4.242641 4.242641 
C -3.117479 5.367802 -1.591219 6 0 6 
z
" id="m43ade308e7" style="stroke:#000080;stroke-width:1.5;"/>
    </defs>
    <g>
     <use style="fill-opacity:0;stroke:#000080;stroke-width:1.5;" x="110.188761" xlink:href="#m43ade308e7" y="256.809114"/>
     <use style="fill-opacity:0;stroke:#000080;stroke-width:1.5;" x="190.797964" xlink:href="#m43ade308e7" y="228.368065"/>
     <use style="fill-opacity:0;stroke:#000080;stroke-width:1.5;" x="260.490835" xlink:href="#m43ade308e7" y="145.678351"/>
     <use style="fill-opacity:0;stroke:#000080;stroke-width:1.5;" x="302.723618" xlink:href="#m43ade308e7" y="38.761076"/>
     <use style="fill-opacity:0;stroke:#000080;stroke-width:1.5;" x="317.84085" xlink:href="#m43ade308e7" y="30.334099"/>
     <use style="fill-opacity:0;stroke:#000080;stroke-width:1.5;" x="338.688" xlink:href="#m43ade308e7" y="30.334099"/>
    </g>
   </g>
   <g id="line2d_37">
    <path style="fill:none;stroke:#000080;stroke-linecap:square;stroke-width:1.5;"/>
    <g/>
   </g>
   <g id="line2d_38">
    <path clip-path="url(#p4a56a8d415)" d="M 298.532711 47.188054 
" style="fill:none;stroke:#000080;stroke-linecap:square;stroke-width:1.5;"/>
    <defs>
     <path d="M -12 12 
L 12 -12 
M -12 -12 
L 12 12 
" id="mbab1f506e3" style="stroke:#000080;"/>
    </defs>
    <g clip-path="url(#p4a56a8d415)">
     <use style="fill:#000080;stroke:#000080;" x="298.532711" xlink:href="#mbab1f506e3" y="47.188054"/>
    </g>
   </g>
   <g id="line2d_39">
    <defs>
     <path d="M 0 1.5 
C 0.397805 1.5 0.77937 1.341951 1.06066 1.06066 
C 1.341951 0.77937 1.5 0.397805 1.5 0 
C 1.5 -0.397805 1.341951 -0.77937 1.06066 -1.06066 
C 0.77937 -1.341951 0.397805 -1.5 0 -1.5 
C -0.397805 -1.5 -0.77937 -1.341951 -1.06066 -1.06066 
C -1.341951 -0.77937 -1.5 -0.397805 -1.5 0 
C -1.5 0.397805 -1.341951 0.77937 -1.06066 1.06066 
C -0.77937 1.341951 -0.397805 1.5 0 1.5 
z
" id="mf14b09a8b8" style="stroke:#ff00ff;"/>
    </defs>
    <g>
     <use style="fill:#ff00ff;stroke:#ff00ff;" x="324.052538" xlink:href="#mf14b09a8b8" y="30.334099"/>
     <use style="fill:#ff00ff;stroke:#ff00ff;" x="324.052538" xlink:href="#mf14b09a8b8" y="30.334099"/>
    </g>
   </g>
   <g id="line2d_40">
    <path d="M 29.53256 298.944 
L 29.53256 291.570395 
L 41.620548 291.570395 
L 41.620548 284.19679 
L 48.691568 284.19679 
L 48.691568 280.509987 
L 53.708537 280.509987 
L 53.708537 276.823185 
L 57.6 276.823185 
L 57.6 274.71644 
L 65.796525 274.71644 
L 65.796525 274.189754 
L 67.850577 274.189754 
L 67.850577 273.663068 
L 71.35013 273.663068 
L 71.35013 272.609696 
L 74.263433 272.609696 
L 74.263433 272.08301 
L 77.884514 272.08301 
L 77.884514 271.556324 
L 78.941764 271.556324 
L 78.941764 270.502952 
L 79.938565 270.502952 
L 79.938565 269.976266 
L 80.881459 269.976266 
L 80.881459 268.396207 
L 82.626842 268.396207 
L 82.626842 267.869521 
L 83.438118 267.869521 
L 83.438118 266.289463 
L 85.66744 266.289463 
L 85.66744 265.762777 
L 91.535274 265.762777 
L 91.535274 264.709405 
L 93.422441 264.709405 
L 93.422441 264.182719 
L 101.223245 264.182719 
L 101.223245 263.656033 
L 104.592361 263.656033 
L 104.592361 262.60266 
L 108.948899 262.60266 
L 108.948899 261.549288 
L 112.877038 261.549288 
L 112.877038 261.022602 
L 113.594805 261.022602 
L 113.594805 260.495916 
L 116.443076 260.495916 
L 116.443076 259.96923 
L 118.363901 259.96923 
L 118.363901 259.442544 
L 120.190611 259.442544 
L 120.190611 258.915858 
L 121.489881 258.915858 
L 121.489881 258.389172 
L 121.84399 258.389172 
L 121.931406 256.809114 
L 122.018385 256.809114 
L 122.018385 256.282427 
L 122.531342 256.282427 
L 122.531342 255.755741 
L 122.865118 255.755741 
L 122.865118 255.229055 
L 124.965026 255.229055 
L 124.965026 254.702369 
L 125.183475 254.702369 
L 125.183475 254.175683 
L 126.099688 254.175683 
L 126.099688 253.648997 
L 126.372183 253.648997 
L 126.372183 253.122311 
L 129.06046 253.122311 
L 129.06046 252.595625 
L 131.236397 252.595625 
L 131.236397 252.068939 
L 134.062938 252.068939 
L 134.062938 251.015567 
L 134.450015 251.015567 
L 134.450015 250.488881 
L 137.70032 250.488881 
L 137.70032 249.962195 
L 138.861092 249.962195 
L 138.861092 249.435508 
L 139.02546 249.435508 
L 139.02546 248.908822 
L 139.572998 248.908822 
L 139.572998 248.382136 
L 140.011351 248.382136 
L 140.011351 247.85545 
L 142.673105 247.85545 
L 142.673105 247.328764 
L 146.495417 247.328764 
L 146.495417 246.802078 
L 147.4697 246.802078 
L 147.4697 245.22202 
L 149.141003 245.22202 
L 149.141003 244.695334 
L 151.437608 244.695334 
L 151.437608 244.168648 
L 153.061751 244.168648 
L 153.061751 243.115275 
L 154.880133 243.115275 
L 154.880133 242.588589 
L 157.139484 242.588589 
L 157.139484 242.061903 
L 159.847601 242.061903 
L 159.847601 241.535217 
L 161.438393 241.535217 
L 161.438393 241.008531 
L 165.618857 241.008531 
L 165.618857 240.481845 
L 170.494616 240.481845 
L 170.494616 239.955159 
L 172.235384 239.955159 
L 172.235384 238.901787 
L 174.938273 238.901787 
L 174.938273 237.848415 
L 176.695377 237.848415 
L 176.695377 237.321729 
L 177.002059 237.321729 
L 177.002059 236.795043 
L 184.430243 236.795043 
L 184.430243 236.268356 
L 184.668334 236.268356 
L 184.668334 235.74167 
L 186.330258 235.74167 
L 186.330258 235.214984 
L 188.713423 235.214984 
L 188.713423 234.688298 
L 188.860543 234.688298 
L 188.860543 234.161612 
L 189.138176 234.161612 
L 189.138176 233.634926 
L 190.11237 233.634926 
L 190.11237 233.10824 
L 190.926903 233.10824 
L 190.926903 232.581554 
L 191.112764 232.581554 
L 191.112764 232.054868 
L 193.915504 232.054868 
L 193.915504 231.528182 
L 196.251046 231.528182 
L 196.251046 231.001496 
L 198.684385 231.001496 
L 198.684385 230.47481 
L 198.865226 230.47481 
L 198.865226 229.948123 
L 199.062008 229.948123 
L 199.148644 228.894751 
L 199.280379 228.894751 
L 199.280379 228.368065 
L 200.009968 228.368065 
L 200.009968 227.841379 
L 200.470609 227.841379 
L 200.470609 227.314693 
L 201.91306 227.314693 
L 201.91306 226.788007 
L 202.068754 226.788007 
L 202.068754 226.261321 
L 202.488159 226.261321 
L 202.488159 225.734635 
L 204.248193 225.734635 
L 204.248193 225.207949 
L 204.737897 225.207949 
L 204.748473 224.154577 
L 205.147918 224.154577 
L 205.147918 223.627891 
L 205.549241 223.627891 
L 205.549241 222.574518 
L 205.894217 222.574518 
L 206.000681 221.521146 
L 207.00252 221.521146 
L 207.00252 220.99446 
L 207.13541 220.99446 
L 207.13541 220.467774 
L 207.348162 220.467774 
L 207.348162 219.414402 
L 207.718328 219.414402 
L 207.718328 218.887716 
L 208.095766 218.887716 
L 208.20513 217.834344 
L 208.897377 217.834344 
L 208.897377 217.307658 
L 209.315027 217.307658 
L 209.315027 216.780971 
L 210.156949 216.780971 
L 210.156949 216.254285 
L 211.305217 216.254285 
L 211.305217 215.727599 
L 211.706091 215.727599 
L 211.706091 215.200913 
L 213.957009 215.200913 
L 214.017036 214.147541 
L 214.778303 214.147541 
L 214.778303 213.620855 
L 215.108718 213.620855 
L 215.108718 213.094169 
L 217.579064 213.094169 
L 217.639393 212.040797 
L 218.6741 212.040797 
L 218.6741 211.514111 
L 219.489098 211.514111 
L 219.489098 210.987425 
L 219.902236 210.987425 
L 219.902236 210.460738 
L 220.766701 210.460738 
L 220.766701 209.934052 
L 221.015701 209.934052 
L 221.015701 209.407366 
L 221.544843 209.407366 
L 221.596943 208.353994 
L 225.105011 208.353994 
L 225.105011 207.827308 
L 225.490187 207.827308 
L 225.490187 207.300622 
L 227.52957 207.300622 
L 227.52957 206.773936 
L 230.616878 206.773936 
L 230.616878 206.24725 
L 234.367232 206.24725 
L 234.367232 205.720564 
L 237.323545 205.720564 
L 237.323545 205.193878 
L 238.953749 205.193878 
L 239.026051 204.140506 
L 239.459353 204.140506 
L 239.459353 203.613819 
L 240.463807 203.613819 
L 240.463807 203.087133 
L 240.91303 203.087133 
L 240.91303 202.560447 
L 242.734997 202.560447 
L 242.734997 202.033761 
L 244.597467 202.033761 
L 244.647357 200.980389 
L 254.768592 200.980389 
L 254.768592 200.453703 
L 256.119896 200.453703 
L 256.119896 199.927017 
L 256.463374 199.927017 
L 256.527481 198.873645 
L 256.751854 198.873645 
L 256.751854 198.346959 
L 257.426656 198.346959 
L 257.426656 197.820273 
L 258.251266 197.820273 
L 258.26247 196.7669 
L 258.630225 196.7669 
L 258.684386 195.186842 
L 258.808785 195.186842 
L 258.808785 194.660156 
L 259.419089 194.660156 
L 259.419089 194.13347 
L 260.543035 194.13347 
L 260.543035 193.606784 
L 260.706763 193.606784 
L 260.706763 193.080098 
L 260.838949 193.080098 
L 260.838949 192.553412 
L 261.160042 192.553412 
L 261.262325 189.393295 
L 261.516514 189.393295 
L 261.610591 188.339923 
L 262.212991 188.339923 
L 262.212991 187.286551 
L 262.375009 187.286551 
L 262.375009 186.759865 
L 262.575993 186.759865 
L 262.59427 180.966318 
L 263.127707 180.966318 
L 263.127707 180.439632 
L 263.44109 180.439632 
L 263.44109 179.912946 
L 263.99109 179.912946 
L 264.026444 177.806202 
L 264.205894 177.806202 
L 264.312932 173.592713 
L 264.458098 173.592713 
L 264.55504 172.012655 
L 265.55965 172.012655 
L 265.55965 171.485969 
L 266.270748 171.485969 
L 266.270748 170.959282 
L 268.31263 170.959282 
L 268.338871 163.585677 
L 268.43649 163.585677 
L 268.43649 162.532305 
L 268.650492 162.532305 
L 268.650492 162.005619 
L 271.637322 162.005619 
L 271.637322 161.478933 
L 272.998479 161.478933 
L 272.998479 160.952247 
L 273.66717 160.952247 
L 273.66717 160.425561 
L 274.90507 160.425561 
L 274.90507 159.898875 
L 275.83311 159.898875 
L 275.877292 137.778059 
L 277.115327 137.778059 
L 277.126114 129.351082 
L 277.397107 129.351082 
L 277.397107 128.29771 
L 278.679773 128.29771 
L 278.690245 120.397419 
L 279.855657 120.397419 
L 279.855657 119.870733 
L 280.394827 119.870733 
L 280.394827 119.344047 
L 281.032181 119.344047 
L 281.036652 113.5505 
L 281.386819 113.5505 
L 281.409552 105.123522 
L 282.661568 105.123522 
L 282.679324 103.543464 
L 282.965237 103.543464 
L 282.965237 103.016778 
L 284.698145 103.016778 
L 284.783522 101.963406 
L 284.831028 101.963406 
L 284.89328 100.383348 
L 284.991362 100.383348 
L 284.991362 99.329976 
L 285.216975 99.329976 
L 285.216975 98.803289 
L 285.385301 98.803289 
L 285.428611 90.376312 
L 285.522632 90.376312 
L 285.522632 89.849626 
L 285.961312 89.849626 
L 285.968898 81.422649 
L 287.681244 81.422649 
L 287.753226 79.315904 
L 287.873823 79.315904 
L 287.961834 76.682474 
L 288.289152 76.682474 
L 288.382445 69.835555 
L 288.928061 69.835555 
L 288.934727 59.82852 
L 298.015902 59.82852 
L 298.015902 59.301833 
L 300.466872 59.301833 
L 300.477639 58.248461 
L 300.62056 58.248461 
L 300.62056 57.721775 
L 300.786629 57.721775 
L 300.843924 56.668403 
L 302.73007 56.668403 
L 302.737795 52.454914 
L 303.01259 52.454914 
L 303.01259 51.928228 
L 303.379001 51.928228 
L 303.380256 49.294798 
L 303.979581 49.294798 
L 304.08221 45.081309 
L 305.132513 45.081309 
L 305.132513 44.554623 
L 305.257598 44.554623 
L 305.258869 42.447879 
L 305.443984 42.447879 
L 305.446486 40.867821 
L 306.007351 40.867821 
L 306.007351 40.341135 
L 306.272501 40.341135 
L 306.273759 38.23439 
L 306.47148 38.23439 
L 306.47375 35.60096 
L 312.098878 35.60096 
L 312.098878 35.074274 
L 312.845137 35.074274 
L 312.846207 34.020902 
L 313.00469 34.020902 
L 313.00469 33.494215 
L 313.211762 33.494215 
L 313.212243 32.440843 
L 315.038926 32.440843 
L 315.038926 31.914157 
L 319.743625 31.914157 
L 319.743625 31.387471 
L 320.647914 31.387471 
L 320.647914 30.860785 
L 324.052538 30.860785 
L 324.052538 30.334099 
L 338.688 30.334099 
L 338.688 30.334099 
" style="fill:none;stroke:#ff00ff;stroke-linecap:square;stroke-width:1.5;"/>
   </g>
   <g id="line2d_41">
    <defs>
     <path d="M 0 8.485281 
L 5.091169 0 
L 0 -8.485281 
L -5.091169 0 
z
" id="m2b7b72ac1e" style="stroke:#ff00ff;stroke-linejoin:miter;stroke-width:1.5;"/>
    </defs>
    <g>
     <use style="fill-opacity:0;stroke:#ff00ff;stroke-linejoin:miter;stroke-width:1.5;" x="108.948899" xlink:href="#m2b7b72ac1e" y="262.60266"/>
     <use style="fill-opacity:0;stroke:#ff00ff;stroke-linejoin:miter;stroke-width:1.5;" x="191.112764" xlink:href="#m2b7b72ac1e" y="232.054868"/>
     <use style="fill-opacity:0;stroke:#ff00ff;stroke-linejoin:miter;stroke-width:1.5;" x="268.31263" xlink:href="#m2b7b72ac1e" y="170.432596"/>
     <use style="fill-opacity:0;stroke:#ff00ff;stroke-linejoin:miter;stroke-width:1.5;" x="320.647914" xlink:href="#m2b7b72ac1e" y="30.860785"/>
     <use style="fill-opacity:0;stroke:#ff00ff;stroke-linejoin:miter;stroke-width:1.5;" x="324.052538" xlink:href="#m2b7b72ac1e" y="30.334099"/>
     <use style="fill-opacity:0;stroke:#ff00ff;stroke-linejoin:miter;stroke-width:1.5;" x="338.688" xlink:href="#m2b7b72ac1e" y="30.334099"/>
    </g>
   </g>
   <g id="line2d_42">
    <path style="fill:none;stroke:#ff00ff;stroke-linecap:square;stroke-width:1.5;"/>
    <g/>
   </g>
   <g id="line2d_43">
    <path clip-path="url(#p4a56a8d415)" d="M 298.532571 59.301833 
" style="fill:none;stroke:#ff00ff;stroke-linecap:square;stroke-width:1.5;"/>
    <defs>
     <path d="M -12 12 
L 12 -12 
M -12 -12 
L 12 12 
" id="m7fe6150929" style="stroke:#ff00ff;"/>
    </defs>
    <g clip-path="url(#p4a56a8d415)">
     <use style="fill:#ff00ff;stroke:#ff00ff;" x="298.532571" xlink:href="#m7fe6150929" y="59.301833"/>
    </g>
   </g>
   <g id="line2d_44">
    <path d="M 338.688 30.334099 
L 369.60768 293.571802 
" style="fill:none;stroke:#ff00ff;stroke-linecap:square;stroke-width:1.5;"/>
    <g>
     <use style="fill-opacity:0;stroke:#ff00ff;stroke-linejoin:miter;stroke-width:1.5;" x="338.688" xlink:href="#m2b7b72ac1e" y="30.334099"/>
     <use style="fill-opacity:0;stroke:#ff00ff;stroke-linejoin:miter;stroke-width:1.5;" x="369.60768" xlink:href="#m2b7b72ac1e" y="293.571802"/>
    </g>
   </g>
   <g id="line2d_45">
    <path d="M 338.688 30.334099 
L 369.60768 164.63905 
" style="fill:none;stroke:#000080;stroke-linecap:square;stroke-width:1.5;"/>
    <g>
     <use style="fill-opacity:0;stroke:#000080;stroke-width:1.5;" x="338.688" xlink:href="#m43ade308e7" y="30.334099"/>
     <use style="fill-opacity:0;stroke:#000080;stroke-width:1.5;" x="369.60768" xlink:href="#m43ade308e7" y="164.63905"/>
    </g>
   </g>
   <g id="line2d_46">
    <path d="M 338.688 298.944 
L 338.688 30.334099 
" style="fill:none;stroke:#000000;stroke-linecap:square;stroke-width:1.5;"/>
   </g>
   <g id="patch_3">
    <path d="M 57.6 298.944 
L 57.6 27.648 
" style="fill:none;stroke:#000000;stroke-linecap:square;stroke-linejoin:miter;stroke-width:0.8;"/>
   </g>
   <g id="patch_4">
    <path d="M 338.688 298.944 
L 338.688 27.648 
" style="fill:none;stroke:#000000;stroke-linecap:square;stroke-linejoin:miter;stroke-width:0.8;"/>
   </g>
   <g id="patch_5">
    <path d="M 57.6 298.944 
L 338.688 298.944 
" style="fill:none;stroke:#000000;stroke-linecap:square;stroke-linejoin:miter;stroke-width:0.8;"/>
   </g>
   <g id="patch_6">
    <path d="M 57.6 27.648 
L 338.688 27.648 
" style="fill:none;stroke:#000000;stroke-linecap:square;stroke-linejoin:miter;stroke-width:0.8;"/>
   </g>
   <g id="text_13">
    <!-- SHADE-LM Ok -->
    <g transform="translate(375.22944 298.262739)scale(0.17 -0.17)">
     <defs>
      <path d="M 3425 4513 
L 3425 3897 
Q 3066 4069 2747 4153 
Q 2428 4238 2131 4238 
Q 1616 4238 1336 4038 
Q 1056 3838 1056 3469 
Q 1056 3159 1242 3001 
Q 1428 2844 1947 2747 
L 2328 2669 
Q 3034 2534 3370 2195 
Q 3706 1856 3706 1288 
Q 3706 609 3251 259 
Q 2797 -91 1919 -91 
Q 1588 -91 1214 -16 
Q 841 59 441 206 
L 441 856 
Q 825 641 1194 531 
Q 1563 422 1919 422 
Q 2459 422 2753 634 
Q 3047 847 3047 1241 
Q 3047 1584 2836 1778 
Q 2625 1972 2144 2069 
L 1759 2144 
Q 1053 2284 737 2584 
Q 422 2884 422 3419 
Q 422 4038 858 4394 
Q 1294 4750 2059 4750 
Q 2388 4750 2728 4690 
Q 3069 4631 3425 4513 
z
" id="DejaVuSans-53" transform="scale(0.015625)"/>
      <path d="M 628 4666 
L 1259 4666 
L 1259 2753 
L 3553 2753 
L 3553 4666 
L 4184 4666 
L 4184 0 
L 3553 0 
L 3553 2222 
L 1259 2222 
L 1259 0 
L 628 0 
L 628 4666 
z
" id="DejaVuSans-48" transform="scale(0.015625)"/>
      <path d="M 2188 4044 
L 1331 1722 
L 3047 1722 
L 2188 4044 
z
M 1831 4666 
L 2547 4666 
L 4325 0 
L 3669 0 
L 3244 1197 
L 1141 1197 
L 716 0 
L 50 0 
L 1831 4666 
z
" id="DejaVuSans-41" transform="scale(0.015625)"/>
      <path d="M 1259 4147 
L 1259 519 
L 2022 519 
Q 2988 519 3436 956 
Q 3884 1394 3884 2338 
Q 3884 3275 3436 3711 
Q 2988 4147 2022 4147 
L 1259 4147 
z
M 628 4666 
L 1925 4666 
Q 3281 4666 3915 4102 
Q 4550 3538 4550 2338 
Q 4550 1131 3912 565 
Q 3275 0 1925 0 
L 628 0 
L 628 4666 
z
" id="DejaVuSans-44" transform="scale(0.015625)"/>
      <path d="M 628 4666 
L 3578 4666 
L 3578 4134 
L 1259 4134 
L 1259 2753 
L 3481 2753 
L 3481 2222 
L 1259 2222 
L 1259 531 
L 3634 531 
L 3634 0 
L 628 0 
L 628 4666 
z
" id="DejaVuSans-45" transform="scale(0.015625)"/>
      <path d="M 628 4666 
L 1259 4666 
L 1259 531 
L 3531 531 
L 3531 0 
L 628 0 
L 628 4666 
z
" id="DejaVuSans-4c" transform="scale(0.015625)"/>
      <path d="M 628 4666 
L 1569 4666 
L 2759 1491 
L 3956 4666 
L 4897 4666 
L 4897 0 
L 4281 0 
L 4281 4097 
L 3078 897 
L 2444 897 
L 1241 4097 
L 1241 0 
L 628 0 
L 628 4666 
z
" id="DejaVuSans-4d" transform="scale(0.015625)"/>
      <path d="M 2522 4238 
Q 1834 4238 1429 3725 
Q 1025 3213 1025 2328 
Q 1025 1447 1429 934 
Q 1834 422 2522 422 
Q 3209 422 3611 934 
Q 4013 1447 4013 2328 
Q 4013 3213 3611 3725 
Q 3209 4238 2522 4238 
z
M 2522 4750 
Q 3503 4750 4090 4092 
Q 4678 3434 4678 2328 
Q 4678 1225 4090 567 
Q 3503 -91 2522 -91 
Q 1538 -91 948 565 
Q 359 1222 359 2328 
Q 359 3434 948 4092 
Q 1538 4750 2522 4750 
z
" id="DejaVuSans-4f" transform="scale(0.015625)"/>
      <path d="M 581 4863 
L 1159 4863 
L 1159 1991 
L 2875 3500 
L 3609 3500 
L 1753 1863 
L 3688 0 
L 2938 0 
L 1159 1709 
L 1159 0 
L 581 0 
L 581 4863 
z
" id="DejaVuSans-6b" transform="scale(0.015625)"/>
     </defs>
     <use xlink:href="#DejaVuSans-53"/>
     <use x="63.476562" xlink:href="#DejaVuSans-48"/>
     <use x="138.671875" xlink:href="#DejaVuSans-41"/>
     <use x="207.080078" xlink:href="#DejaVuSans-44"/>
     <use x="284.082031" xlink:href="#DejaVuSans-45"/>
     <use x="347.265625" xlink:href="#DejaVuSans-2d"/>
     <use x="383.349609" xlink:href="#DejaVuSans-4c"/>
     <use x="439.0625" xlink:href="#DejaVuSans-4d"/>
     <use x="525.341797" xlink:href="#DejaVuSans-20"/>
     <use x="557.128906" xlink:href="#DejaVuSans-4f"/>
     <use x="635.839844" xlink:href="#DejaVuSans-6b"/>
    </g>
   </g>
   <g id="text_14">
    <!-- SHADE-LM-PO -->
    <g transform="translate(375.22944 169.329987)scale(0.17 -0.17)">
     <defs>
      <path d="M 1259 4147 
L 1259 2394 
L 2053 2394 
Q 2494 2394 2734 2622 
Q 2975 2850 2975 3272 
Q 2975 3691 2734 3919 
Q 2494 4147 2053 4147 
L 1259 4147 
z
M 628 4666 
L 2053 4666 
Q 2838 4666 3239 4311 
Q 3641 3956 3641 3272 
Q 3641 2581 3239 2228 
Q 2838 1875 2053 1875 
L 1259 1875 
L 1259 0 
L 628 0 
L 628 4666 
z
" id="DejaVuSans-50" transform="scale(0.015625)"/>
     </defs>
     <use xlink:href="#DejaVuSans-53"/>
     <use x="63.476562" xlink:href="#DejaVuSans-48"/>
     <use x="138.671875" xlink:href="#DejaVuSans-41"/>
     <use x="207.080078" xlink:href="#DejaVuSans-44"/>
     <use x="284.082031" xlink:href="#DejaVuSans-45"/>
     <use x="347.265625" xlink:href="#DejaVuSans-2d"/>
     <use x="383.349609" xlink:href="#DejaVuSans-4c"/>
     <use x="439.0625" xlink:href="#DejaVuSans-4d"/>
     <use x="525.341797" xlink:href="#DejaVuSans-2d"/>
     <use x="561.425781" xlink:href="#DejaVuSans-50"/>
     <use x="621.728516" xlink:href="#DejaVuSans-4f"/>
    </g>
   </g>
   <g id="text_15">
    <!-- best 2009 -->
    <g transform="translate(375.22944 40.397235)scale(0.17 -0.17)">
     <defs>
      <path d="M 3116 1747 
Q 3116 2381 2855 2742 
Q 2594 3103 2138 3103 
Q 1681 3103 1420 2742 
Q 1159 2381 1159 1747 
Q 1159 1113 1420 752 
Q 1681 391 2138 391 
Q 2594 391 2855 752 
Q 3116 1113 3116 1747 
z
M 1159 2969 
Q 1341 3281 1617 3432 
Q 1894 3584 2278 3584 
Q 2916 3584 3314 3078 
Q 3713 2572 3713 1747 
Q 3713 922 3314 415 
Q 2916 -91 2278 -91 
Q 1894 -91 1617 61 
Q 1341 213 1159 525 
L 1159 0 
L 581 0 
L 581 4863 
L 1159 4863 
L 1159 2969 
z
" id="DejaVuSans-62" transform="scale(0.015625)"/>
      <path d="M 703 97 
L 703 672 
Q 941 559 1184 500 
Q 1428 441 1663 441 
Q 2288 441 2617 861 
Q 2947 1281 2994 2138 
Q 2813 1869 2534 1725 
Q 2256 1581 1919 1581 
Q 1219 1581 811 2004 
Q 403 2428 403 3163 
Q 403 3881 828 4315 
Q 1253 4750 1959 4750 
Q 2769 4750 3195 4129 
Q 3622 3509 3622 2328 
Q 3622 1225 3098 567 
Q 2575 -91 1691 -91 
Q 1453 -91 1209 -44 
Q 966 3 703 97 
z
M 1959 2075 
Q 2384 2075 2632 2365 
Q 2881 2656 2881 3163 
Q 2881 3666 2632 3958 
Q 2384 4250 1959 4250 
Q 1534 4250 1286 3958 
Q 1038 3666 1038 3163 
Q 1038 2656 1286 2365 
Q 1534 2075 1959 2075 
z
" id="DejaVuSans-39" transform="scale(0.015625)"/>
     </defs>
     <use xlink:href="#DejaVuSans-62"/>
     <use x="63.476562" xlink:href="#DejaVuSans-65"/>
     <use x="125" xlink:href="#DejaVuSans-73"/>
     <use x="177.099609" xlink:href="#DejaVuSans-74"/>
     <use x="216.308594" xlink:href="#DejaVuSans-20"/>
     <use x="248.095703" xlink:href="#DejaVuSans-32"/>
     <use x="311.71875" xlink:href="#DejaVuSans-30"/>
     <use x="375.341797" xlink:href="#DejaVuSans-30"/>
     <use x="438.964844" xlink:href="#DejaVuSans-39"/>
    </g>
   </g>
   <g id="text_16">
    <!-- bbob f19, 5-D -->
    <g transform="translate(60.41088 38.111366)scale(0.102 -0.102)">
     <defs>
      <path d="M 691 4666 
L 3169 4666 
L 3169 4134 
L 1269 4134 
L 1269 2991 
Q 1406 3038 1543 3061 
Q 1681 3084 1819 3084 
Q 2600 3084 3056 2656 
Q 3513 2228 3513 1497 
Q 3513 744 3044 326 
Q 2575 -91 1722 -91 
Q 1428 -91 1123 -41 
Q 819 9 494 109 
L 494 744 
Q 775 591 1075 516 
Q 1375 441 1709 441 
Q 2250 441 2565 725 
Q 2881 1009 2881 1497 
Q 2881 1984 2565 2268 
Q 2250 2553 1709 2553 
Q 1456 2553 1204 2497 
Q 953 2441 691 2322 
L 691 4666 
z
" id="DejaVuSans-35" transform="scale(0.015625)"/>
     </defs>
     <use xlink:href="#DejaVuSans-62"/>
     <use x="63.476562" xlink:href="#DejaVuSans-62"/>
     <use x="126.953125" xlink:href="#DejaVuSans-6f"/>
     <use x="188.134766" xlink:href="#DejaVuSans-62"/>
     <use x="251.611328" xlink:href="#DejaVuSans-20"/>
     <use x="283.398438" xlink:href="#DejaVuSans-66"/>
     <use x="318.603516" xlink:href="#DejaVuSans-31"/>
     <use x="382.226562" xlink:href="#DejaVuSans-39"/>
     <use x="445.849609" xlink:href="#DejaVuSans-2c"/>
     <use x="477.636719" xlink:href="#DejaVuSans-20"/>
     <use x="509.423828" xlink:href="#DejaVuSans-35"/>
     <use x="573.046875" xlink:href="#DejaVuSans-2d"/>
     <use x="609.130859" xlink:href="#DejaVuSans-44"/>
    </g>
    <!-- 51 targets: 100..1e-08 -->
    <g transform="translate(60.41088 49.533135)scale(0.102 -0.102)">
     <defs>
      <path d="M 750 794 
L 1409 794 
L 1409 0 
L 750 0 
L 750 794 
z
M 750 3309 
L 1409 3309 
L 1409 2516 
L 750 2516 
L 750 3309 
z
" id="DejaVuSans-3a" transform="scale(0.015625)"/>
     </defs>
     <use xlink:href="#DejaVuSans-35"/>
     <use x="63.623047" xlink:href="#DejaVuSans-31"/>
     <use x="127.246094" xlink:href="#DejaVuSans-20"/>
     <use x="159.033203" xlink:href="#DejaVuSans-74"/>
     <use x="198.242188" xlink:href="#DejaVuSans-61"/>
     <use x="259.521484" xlink:href="#DejaVuSans-72"/>
     <use x="298.884766" xlink:href="#DejaVuSans-67"/>
     <use x="362.361328" xlink:href="#DejaVuSans-65"/>
     <use x="423.884766" xlink:href="#DejaVuSans-74"/>
     <use x="463.09375" xlink:href="#DejaVuSans-73"/>
     <use x="515.193359" xlink:href="#DejaVuSans-3a"/>
     <use x="548.884766" xlink:href="#DejaVuSans-20"/>
     <use x="580.671875" xlink:href="#DejaVuSans-31"/>
     <use x="644.294922" xlink:href="#DejaVuSans-30"/>
     <use x="707.917969" xlink:href="#DejaVuSans-30"/>
     <use x="771.541016" xlink:href="#DejaVuSans-2e"/>
     <use x="803.328125" xlink:href="#DejaVuSans-2e"/>
     <use x="835.115234" xlink:href="#DejaVuSans-31"/>
     <use x="898.738281" xlink:href="#DejaVuSans-65"/>
     <use x="960.261719" xlink:href="#DejaVuSans-2d"/>
     <use x="996.345703" xlink:href="#DejaVuSans-30"/>
     <use x="1059.96875" xlink:href="#DejaVuSans-38"/>
    </g>
    <!-- 15 instances -->
    <g transform="translate(60.41088 60.954904)scale(0.102 -0.102)">
     <use xlink:href="#DejaVuSans-31"/>
     <use x="63.623047" xlink:href="#DejaVuSans-35"/>
     <use x="127.246094" xlink:href="#DejaVuSans-20"/>
     <use x="159.033203" xlink:href="#DejaVuSans-69"/>
     <use x="186.816406" xlink:href="#DejaVuSans-6e"/>
     <use x="250.195312" xlink:href="#DejaVuSans-73"/>
     <use x="302.294922" xlink:href="#DejaVuSans-74"/>
     <use x="341.503906" xlink:href="#DejaVuSans-61"/>
     <use x="402.783203" xlink:href="#DejaVuSans-6e"/>
     <use x="466.162109" xlink:href="#DejaVuSans-63"/>
     <use x="521.142578" xlink:href="#DejaVuSans-65"/>
     <use x="582.666016" xlink:href="#DejaVuSans-73"/>
    </g>
   </g>
   <g id="text_17">
    <!-- v2.4.1.1 -->
    <g style="fill:#808080;" transform="translate(177.692437 294.151352)scale(0.1 -0.1)">
     <use xlink:href="#DejaVuSans-76"/>
     <use x="59.179688" xlink:href="#DejaVuSans-32"/>
     <use x="122.802734" xlink:href="#DejaVuSans-2e"/>
     <use x="154.589844" xlink:href="#DejaVuSans-34"/>
     <use x="218.212891" xlink:href="#DejaVuSans-2e"/>
     <use x="250" xlink:href="#DejaVuSans-31"/>
     <use x="313.623047" xlink:href="#DejaVuSans-2e"/>
     <use x="345.410156" xlink:href="#DejaVuSans-31"/>
    </g>
   </g>
   <g id="text_18">
    <!-- 19 Griewank-Rosenbrock F8F2 -->
    <g transform="translate(46.042437 21.648)scale(0.2 -0.2)">
     <defs>
      <path d="M 3809 666 
L 3809 1919 
L 2778 1919 
L 2778 2438 
L 4434 2438 
L 4434 434 
Q 4069 175 3628 42 
Q 3188 -91 2688 -91 
Q 1594 -91 976 548 
Q 359 1188 359 2328 
Q 359 3472 976 4111 
Q 1594 4750 2688 4750 
Q 3144 4750 3555 4637 
Q 3966 4525 4313 4306 
L 4313 3634 
Q 3963 3931 3569 4081 
Q 3175 4231 2741 4231 
Q 1884 4231 1454 3753 
Q 1025 3275 1025 2328 
Q 1025 1384 1454 906 
Q 1884 428 2741 428 
Q 3075 428 3337 486 
Q 3600 544 3809 666 
z
" id="DejaVuSans-47" transform="scale(0.015625)"/>
      <path d="M 269 3500 
L 844 3500 
L 1563 769 
L 2278 3500 
L 2956 3500 
L 3675 769 
L 4391 3500 
L 4966 3500 
L 4050 0 
L 3372 0 
L 2619 2869 
L 1863 0 
L 1184 0 
L 269 3500 
z
" id="DejaVuSans-77" transform="scale(0.015625)"/>
      <path d="M 2841 2188 
Q 3044 2119 3236 1894 
Q 3428 1669 3622 1275 
L 4263 0 
L 3584 0 
L 2988 1197 
Q 2756 1666 2539 1819 
Q 2322 1972 1947 1972 
L 1259 1972 
L 1259 0 
L 628 0 
L 628 4666 
L 2053 4666 
Q 2853 4666 3247 4331 
Q 3641 3997 3641 3322 
Q 3641 2881 3436 2590 
Q 3231 2300 2841 2188 
z
M 1259 4147 
L 1259 2491 
L 2053 2491 
Q 2509 2491 2742 2702 
Q 2975 2913 2975 3322 
Q 2975 3731 2742 3939 
Q 2509 4147 2053 4147 
L 1259 4147 
z
" id="DejaVuSans-52" transform="scale(0.015625)"/>
     </defs>
     <use xlink:href="#DejaVuSans-31"/>
     <use x="63.623047" xlink:href="#DejaVuSans-39"/>
     <use x="127.246094" xlink:href="#DejaVuSans-20"/>
     <use x="159.033203" xlink:href="#DejaVuSans-47"/>
     <use x="236.523438" xlink:href="#DejaVuSans-72"/>
     <use x="277.636719" xlink:href="#DejaVuSans-69"/>
     <use x="305.419922" xlink:href="#DejaVuSans-65"/>
     <use x="366.943359" xlink:href="#DejaVuSans-77"/>
     <use x="448.730469" xlink:href="#DejaVuSans-61"/>
     <use x="510.009766" xlink:href="#DejaVuSans-6e"/>
     <use x="573.388672" xlink:href="#DejaVuSans-6b"/>
     <use x="631.298828" xlink:href="#DejaVuSans-2d"/>
     <use x="667.382812" xlink:href="#DejaVuSans-52"/>
     <use x="732.365234" xlink:href="#DejaVuSans-6f"/>
     <use x="793.546875" xlink:href="#DejaVuSans-73"/>
     <use x="845.646484" xlink:href="#DejaVuSans-65"/>
     <use x="907.169922" xlink:href="#DejaVuSans-6e"/>
     <use x="970.548828" xlink:href="#DejaVuSans-62"/>
     <use x="1034.025391" xlink:href="#DejaVuSans-72"/>
     <use x="1072.888672" xlink:href="#DejaVuSans-6f"/>
     <use x="1134.070312" xlink:href="#DejaVuSans-63"/>
     <use x="1189.050781" xlink:href="#DejaVuSans-6b"/>
     <use x="1246.960938" xlink:href="#DejaVuSans-20"/>
     <use x="1278.748047" xlink:href="#DejaVuSans-46"/>
     <use x="1336.267578" xlink:href="#DejaVuSans-38"/>
     <use x="1399.890625" xlink:href="#DejaVuSans-46"/>
     <use x="1457.410156" xlink:href="#DejaVuSans-32"/>
    </g>
   </g>
  </g>
 </g>
 <defs>
  <clipPath id="p4a56a8d415">
   <rect height="271.296" width="281.088" x="57.6" y="27.648"/>
  </clipPath>
 </defs>
</svg>
