<?xml version="1.0" encoding="utf-8" standalone="no"?>
<!DOCTYPE svg PUBLIC "-//W3C//DTD SVG 1.1//EN"
  "http://www.w3.org/Graphics/SVG/1.1/DTD/svg11.dtd">
<svg height="345.6pt" version="1.1" viewBox="0 0 460.8 345.6" width="460.8pt" xmlns="http://www.w3.org/2000/svg" xmlns:xlink="http://www.w3.org/1999/xlink">
 <metadata>
  <rdf:RDF xmlns:cc="http://creativecommons.org/ns#" xmlns:dc="http://purl.org/dc/elements/1.1/" xmlns:rdf="http://www.w3.org/1999/02/22-rdf-syntax-ns#">
   <cc:Work>
    <dc:type rdf:resource="http://purl.org/dc/dcmitype/StillImage"/>
    <dc:date>2022-03-29T11:44:20.531955</dc:date>
    <dc:format>image/svg+xml</dc:format>
    <dc:creator>
     <cc:Agent>
      <dc:title>Matplotlib v3.4.3, https://matplotlib.org/</dc:title>
     </cc:Agent>
    </dc:creator>
   </cc:Work>
  </rdf:RDF>
 </metadata>
 <defs>
  <style type="text/css">*{stroke-linecap:butt;stroke-linejoin:round;}</style>
 </defs>
 <g id="figure_1">
  <g id="patch_1">
   <path d="M 0 345.6 
L 460.8 345.6 
L 460.8 0 
L 0 0 
z
" style="fill:#ffffff;"/>
  </g>
  <g id="axes_1">
   <g id="patch_2">
    <path d="M 57.6 298.944 
L 338.688 298.944 
L 338.688 27.648 
L 57.6 27.648 
z
" style="fill:#ffffff;"/>
   </g>
   <g id="line2d_1">
    <path d="M 84.955534 298.944 
L 84.955534 293.677139 
L 104.592361 293.677139 
L 104.592361 288.410278 
L 107.414787 288.410278 
L 107.414787 283.143418 
L 111.023335 283.143418 
L 111.023335 277.876557 
L 115.077025 277.876557 
L 115.077025 272.609696 
L 116.081002 272.609696 
L 116.081002 267.342835 
L 116.680349 267.342835 
L 116.680349 262.075974 
L 117.145424 262.075974 
L 117.145424 256.809114 
L 119.996839 256.809114 
L 119.996839 251.542253 
L 120.852343 251.542253 
L 120.852343 246.275392 
L 122.104932 246.275392 
L 122.104932 241.008531 
L 128.885774 241.008531 
L 128.885774 235.74167 
L 132.133473 235.74167 
L 132.133473 230.47481 
L 136.227776 230.47481 
L 136.227776 225.207949 
L 144.148442 225.207949 
L 144.148442 219.941088 
L 145.281568 219.941088 
L 145.281568 214.674227 
L 145.732804 214.674227 
L 145.732804 209.407366 
L 146.707319 209.407366 
L 146.707319 204.140506 
L 147.61026 204.140506 
L 147.61026 198.873645 
L 148.938326 198.873645 
L 148.938326 193.606784 
L 149.593058 193.606784 
L 149.593058 188.339923 
L 150.085825 188.339923 
L 150.085825 183.073062 
L 151.097081 183.073062 
L 151.097081 177.806202 
L 151.453659 177.806202 
L 151.453659 172.539341 
L 152.145659 172.539341 
L 152.145659 167.27248 
L 152.840905 167.27248 
L 152.840905 162.005619 
L 153.438049 162.005619 
L 153.438049 156.738758 
L 153.693887 156.738758 
L 153.693887 151.471897 
L 154.439623 151.471897 
L 154.439623 146.205037 
L 154.77436 146.205037 
L 154.77436 140.938176 
L 155.258271 140.938176 
L 155.258271 135.671315 
L 155.501643 135.671315 
L 155.501643 130.404454 
L 155.928852 130.404454 
L 155.928852 125.137593 
L 156.163105 125.137593 
L 156.163105 119.870733 
L 156.357959 119.870733 
L 156.357959 114.603872 
L 156.681918 114.603872 
L 156.681918 109.337011 
L 156.894595 109.337011 
L 156.894595 104.07015 
L 157.15106 104.07015 
L 157.15106 98.803289 
L 157.346685 98.803289 
L 157.346685 93.536429 
L 157.574059 93.536429 
L 157.574059 88.269568 
L 157.820792 88.269568 
L 157.820792 83.002707 
L 158.0201 83.002707 
L 158.0201 77.735846 
L 158.358103 77.735846 
L 158.358103 72.468985 
L 158.583406 72.468985 
L 158.583406 67.202125 
L 158.721434 67.202125 
L 158.721434 61.935264 
L 158.973421 61.935264 
L 158.973421 56.668403 
L 159.098062 56.668403 
L 159.098062 51.401542 
L 159.293606 51.401542 
L 159.293606 46.134681 
L 159.597964 46.134681 
L 159.597964 40.867821 
L 159.877318 40.867821 
L 159.877318 35.60096 
L 160.015335 35.60096 
L 160.015335 30.334099 
L 338.688 30.334099 
" style="fill:none;stroke:#f5deb3;stroke-linecap:square;stroke-width:4;"/>
   </g>
   <g id="line2d_2">
    <defs>
     <path d="M 0 7.778175 
L 7.778175 0 
L 0 -7.778175 
L -7.778175 0 
z
" id="m8906281086" style="stroke:#f5deb3;stroke-linejoin:miter;stroke-width:1.5;"/>
    </defs>
    <g>
     <use style="fill:#f5deb3;stroke:#f5deb3;stroke-linejoin:miter;stroke-width:1.5;" x="151.453659" xlink:href="#m8906281086" y="172.539341"/>
     <use style="fill:#f5deb3;stroke:#f5deb3;stroke-linejoin:miter;stroke-width:1.5;" x="160.015335" xlink:href="#m8906281086" y="35.60096"/>
     <use style="fill:#f5deb3;stroke:#f5deb3;stroke-linejoin:miter;stroke-width:1.5;" x="160.015335" xlink:href="#m8906281086" y="30.334099"/>
     <use style="fill:#f5deb3;stroke:#f5deb3;stroke-linejoin:miter;stroke-width:1.5;" x="160.015335" xlink:href="#m8906281086" y="30.334099"/>
     <use style="fill:#f5deb3;stroke:#f5deb3;stroke-linejoin:miter;stroke-width:1.5;" x="338.688" xlink:href="#m8906281086" y="30.334099"/>
    </g>
   </g>
   <g id="line2d_3">
    <path style="fill:none;stroke:#f5deb3;stroke-linecap:square;stroke-width:4;"/>
    <g/>
   </g>
   <g id="line2d_4">
    <path d="M 338.688 30.334099 
L 369.60768 35.706297 
" style="fill:none;stroke:#f5deb3;stroke-linecap:square;stroke-width:4;"/>
    <g>
     <use style="fill:#f5deb3;stroke:#f5deb3;stroke-linejoin:miter;stroke-width:1.5;" x="338.688" xlink:href="#m8906281086" y="30.334099"/>
     <use style="fill:#f5deb3;stroke:#f5deb3;stroke-linejoin:miter;stroke-width:1.5;" x="369.60768" xlink:href="#m8906281086" y="35.706297"/>
    </g>
   </g>
   <g id="matplotlib.axis_1">
    <g id="xtick_1">
     <g id="line2d_5">
      <path clip-path="url(#p3b98f8b5e6)" d="M 57.6 298.944 
L 57.6 27.648 
" style="fill:none;stroke:#b0b0b0;stroke-linecap:square;stroke-width:0.8;"/>
     </g>
     <g id="line2d_6">
      <defs>
       <path d="M 0 0 
L 0 3.5 
" id="m5237954721" style="stroke:#000000;stroke-width:0.8;"/>
      </defs>
      <g>
       <use style="stroke:#000000;stroke-width:0.8;" x="57.6" xlink:href="#m5237954721" y="298.944"/>
      </g>
     </g>
     <g id="text_1">
      <!-- 0 -->
      <g transform="translate(51.2375 321.140875)scale(0.2 -0.2)">
       <defs>
        <path d="M 2034 4250 
Q 1547 4250 1301 3770 
Q 1056 3291 1056 2328 
Q 1056 1369 1301 889 
Q 1547 409 2034 409 
Q 2525 409 2770 889 
Q 3016 1369 3016 2328 
Q 3016 3291 2770 3770 
Q 2525 4250 2034 4250 
z
M 2034 4750 
Q 2819 4750 3233 4129 
Q 3647 3509 3647 2328 
Q 3647 1150 3233 529 
Q 2819 -91 2034 -91 
Q 1250 -91 836 529 
Q 422 1150 422 2328 
Q 422 3509 836 4129 
Q 1250 4750 2034 4750 
z
" id="DejaVuSans-30" transform="scale(0.015625)"/>
       </defs>
       <use xlink:href="#DejaVuSans-30"/>
      </g>
     </g>
    </g>
    <g id="xtick_2">
     <g id="line2d_7">
      <path clip-path="url(#p3b98f8b5e6)" d="M 137.910857 298.944 
L 137.910857 27.648 
" style="fill:none;stroke:#b0b0b0;stroke-linecap:square;stroke-width:0.8;"/>
     </g>
     <g id="line2d_8">
      <g>
       <use style="stroke:#000000;stroke-width:0.8;" x="137.910857" xlink:href="#m5237954721" y="298.944"/>
      </g>
     </g>
     <g id="text_2">
      <!-- 2 -->
      <g transform="translate(131.548357 321.140875)scale(0.2 -0.2)">
       <defs>
        <path d="M 1228 531 
L 3431 531 
L 3431 0 
L 469 0 
L 469 531 
Q 828 903 1448 1529 
Q 2069 2156 2228 2338 
Q 2531 2678 2651 2914 
Q 2772 3150 2772 3378 
Q 2772 3750 2511 3984 
Q 2250 4219 1831 4219 
Q 1534 4219 1204 4116 
Q 875 4013 500 3803 
L 500 4441 
Q 881 4594 1212 4672 
Q 1544 4750 1819 4750 
Q 2544 4750 2975 4387 
Q 3406 4025 3406 3419 
Q 3406 3131 3298 2873 
Q 3191 2616 2906 2266 
Q 2828 2175 2409 1742 
Q 1991 1309 1228 531 
z
" id="DejaVuSans-32" transform="scale(0.015625)"/>
       </defs>
       <use xlink:href="#DejaVuSans-32"/>
      </g>
     </g>
    </g>
    <g id="xtick_3">
     <g id="line2d_9">
      <path clip-path="url(#p3b98f8b5e6)" d="M 218.221714 298.944 
L 218.221714 27.648 
" style="fill:none;stroke:#b0b0b0;stroke-linecap:square;stroke-width:0.8;"/>
     </g>
     <g id="line2d_10">
      <g>
       <use style="stroke:#000000;stroke-width:0.8;" x="218.221714" xlink:href="#m5237954721" y="298.944"/>
      </g>
     </g>
     <g id="text_3">
      <!-- 4 -->
      <g transform="translate(211.859214 321.140875)scale(0.2 -0.2)">
       <defs>
        <path d="M 2419 4116 
L 825 1625 
L 2419 1625 
L 2419 4116 
z
M 2253 4666 
L 3047 4666 
L 3047 1625 
L 3713 1625 
L 3713 1100 
L 3047 1100 
L 3047 0 
L 2419 0 
L 2419 1100 
L 313 1100 
L 313 1709 
L 2253 4666 
z
" id="DejaVuSans-34" transform="scale(0.015625)"/>
       </defs>
       <use xlink:href="#DejaVuSans-34"/>
      </g>
     </g>
    </g>
    <g id="xtick_4">
     <g id="line2d_11">
      <path clip-path="url(#p3b98f8b5e6)" d="M 298.532571 298.944 
L 298.532571 27.648 
" style="fill:none;stroke:#b0b0b0;stroke-linecap:square;stroke-width:0.8;"/>
     </g>
     <g id="line2d_12">
      <g>
       <use style="stroke:#000000;stroke-width:0.8;" x="298.532571" xlink:href="#m5237954721" y="298.944"/>
      </g>
     </g>
     <g id="text_4">
      <!-- 6 -->
      <g transform="translate(292.170071 321.140875)scale(0.2 -0.2)">
       <defs>
        <path d="M 2113 2584 
Q 1688 2584 1439 2293 
Q 1191 2003 1191 1497 
Q 1191 994 1439 701 
Q 1688 409 2113 409 
Q 2538 409 2786 701 
Q 3034 994 3034 1497 
Q 3034 2003 2786 2293 
Q 2538 2584 2113 2584 
z
M 3366 4563 
L 3366 3988 
Q 3128 4100 2886 4159 
Q 2644 4219 2406 4219 
Q 1781 4219 1451 3797 
Q 1122 3375 1075 2522 
Q 1259 2794 1537 2939 
Q 1816 3084 2150 3084 
Q 2853 3084 3261 2657 
Q 3669 2231 3669 1497 
Q 3669 778 3244 343 
Q 2819 -91 2113 -91 
Q 1303 -91 875 529 
Q 447 1150 447 2328 
Q 447 3434 972 4092 
Q 1497 4750 2381 4750 
Q 2619 4750 2861 4703 
Q 3103 4656 3366 4563 
z
" id="DejaVuSans-36" transform="scale(0.015625)"/>
       </defs>
       <use xlink:href="#DejaVuSans-36"/>
      </g>
     </g>
    </g>
    <g id="xtick_5">
     <g id="line2d_13">
      <path clip-path="url(#p3b98f8b5e6)" d="M 97.755429 298.944 
L 97.755429 27.648 
" style="fill:none;stroke:#b0b0b0;stroke-linecap:square;stroke-width:0.8;"/>
     </g>
     <g id="line2d_14">
      <defs>
       <path d="M 0 0 
L 0 2 
" id="m364d8b253e" style="stroke:#000000;stroke-width:0.6;"/>
      </defs>
      <g>
       <use style="stroke:#000000;stroke-width:0.6;" x="97.755429" xlink:href="#m364d8b253e" y="298.944"/>
      </g>
     </g>
    </g>
    <g id="xtick_6">
     <g id="line2d_15">
      <path clip-path="url(#p3b98f8b5e6)" d="M 178.066286 298.944 
L 178.066286 27.648 
" style="fill:none;stroke:#b0b0b0;stroke-linecap:square;stroke-width:0.8;"/>
     </g>
     <g id="line2d_16">
      <g>
       <use style="stroke:#000000;stroke-width:0.6;" x="178.066286" xlink:href="#m364d8b253e" y="298.944"/>
      </g>
     </g>
    </g>
    <g id="xtick_7">
     <g id="line2d_17">
      <path clip-path="url(#p3b98f8b5e6)" d="M 258.377143 298.944 
L 258.377143 27.648 
" style="fill:none;stroke:#b0b0b0;stroke-linecap:square;stroke-width:0.8;"/>
     </g>
     <g id="line2d_18">
      <g>
       <use style="stroke:#000000;stroke-width:0.6;" x="258.377143" xlink:href="#m364d8b253e" y="298.944"/>
      </g>
     </g>
    </g>
    <g id="xtick_8">
     <g id="line2d_19">
      <path clip-path="url(#p3b98f8b5e6)" d="M 338.688 298.944 
L 338.688 27.648 
" style="fill:none;stroke:#b0b0b0;stroke-linecap:square;stroke-width:0.8;"/>
     </g>
     <g id="line2d_20">
      <g>
       <use style="stroke:#000000;stroke-width:0.6;" x="338.688" xlink:href="#m364d8b253e" y="298.944"/>
      </g>
     </g>
    </g>
    <g id="text_5">
     <!-- log10(# f-evals / dimension) -->
     <g transform="translate(77.764078 342.217594)scale(0.17 -0.17)">
      <defs>
       <path d="M 603 4863 
L 1178 4863 
L 1178 0 
L 603 0 
L 603 4863 
z
" id="DejaVuSans-6c" transform="scale(0.015625)"/>
       <path d="M 1959 3097 
Q 1497 3097 1228 2736 
Q 959 2375 959 1747 
Q 959 1119 1226 758 
Q 1494 397 1959 397 
Q 2419 397 2687 759 
Q 2956 1122 2956 1747 
Q 2956 2369 2687 2733 
Q 2419 3097 1959 3097 
z
M 1959 3584 
Q 2709 3584 3137 3096 
Q 3566 2609 3566 1747 
Q 3566 888 3137 398 
Q 2709 -91 1959 -91 
Q 1206 -91 779 398 
Q 353 888 353 1747 
Q 353 2609 779 3096 
Q 1206 3584 1959 3584 
z
" id="DejaVuSans-6f" transform="scale(0.015625)"/>
       <path d="M 2906 1791 
Q 2906 2416 2648 2759 
Q 2391 3103 1925 3103 
Q 1463 3103 1205 2759 
Q 947 2416 947 1791 
Q 947 1169 1205 825 
Q 1463 481 1925 481 
Q 2391 481 2648 825 
Q 2906 1169 2906 1791 
z
M 3481 434 
Q 3481 -459 3084 -895 
Q 2688 -1331 1869 -1331 
Q 1566 -1331 1297 -1286 
Q 1028 -1241 775 -1147 
L 775 -588 
Q 1028 -725 1275 -790 
Q 1522 -856 1778 -856 
Q 2344 -856 2625 -561 
Q 2906 -266 2906 331 
L 2906 616 
Q 2728 306 2450 153 
Q 2172 0 1784 0 
Q 1141 0 747 490 
Q 353 981 353 1791 
Q 353 2603 747 3093 
Q 1141 3584 1784 3584 
Q 2172 3584 2450 3431 
Q 2728 3278 2906 2969 
L 2906 3500 
L 3481 3500 
L 3481 434 
z
" id="DejaVuSans-67" transform="scale(0.015625)"/>
       <path d="M 794 531 
L 1825 531 
L 1825 4091 
L 703 3866 
L 703 4441 
L 1819 4666 
L 2450 4666 
L 2450 531 
L 3481 531 
L 3481 0 
L 794 0 
L 794 531 
z
" id="DejaVuSans-31" transform="scale(0.015625)"/>
       <path d="M 1984 4856 
Q 1566 4138 1362 3434 
Q 1159 2731 1159 2009 
Q 1159 1288 1364 580 
Q 1569 -128 1984 -844 
L 1484 -844 
Q 1016 -109 783 600 
Q 550 1309 550 2009 
Q 550 2706 781 3412 
Q 1013 4119 1484 4856 
L 1984 4856 
z
" id="DejaVuSans-28" transform="scale(0.015625)"/>
       <path d="M 3272 2816 
L 2363 2816 
L 2100 1772 
L 3016 1772 
L 3272 2816 
z
M 2803 4594 
L 2478 3297 
L 3391 3297 
L 3719 4594 
L 4219 4594 
L 3897 3297 
L 4872 3297 
L 4872 2816 
L 3775 2816 
L 3519 1772 
L 4513 1772 
L 4513 1294 
L 3397 1294 
L 3072 0 
L 2572 0 
L 2894 1294 
L 1978 1294 
L 1656 0 
L 1153 0 
L 1478 1294 
L 494 1294 
L 494 1772 
L 1594 1772 
L 1856 2816 
L 850 2816 
L 850 3297 
L 1978 3297 
L 2297 4594 
L 2803 4594 
z
" id="DejaVuSans-23" transform="scale(0.015625)"/>
       <path id="DejaVuSans-20" transform="scale(0.015625)"/>
       <path d="M 2375 4863 
L 2375 4384 
L 1825 4384 
Q 1516 4384 1395 4259 
Q 1275 4134 1275 3809 
L 1275 3500 
L 2222 3500 
L 2222 3053 
L 1275 3053 
L 1275 0 
L 697 0 
L 697 3053 
L 147 3053 
L 147 3500 
L 697 3500 
L 697 3744 
Q 697 4328 969 4595 
Q 1241 4863 1831 4863 
L 2375 4863 
z
" id="DejaVuSans-66" transform="scale(0.015625)"/>
       <path d="M 313 2009 
L 1997 2009 
L 1997 1497 
L 313 1497 
L 313 2009 
z
" id="DejaVuSans-2d" transform="scale(0.015625)"/>
       <path d="M 3597 1894 
L 3597 1613 
L 953 1613 
Q 991 1019 1311 708 
Q 1631 397 2203 397 
Q 2534 397 2845 478 
Q 3156 559 3463 722 
L 3463 178 
Q 3153 47 2828 -22 
Q 2503 -91 2169 -91 
Q 1331 -91 842 396 
Q 353 884 353 1716 
Q 353 2575 817 3079 
Q 1281 3584 2069 3584 
Q 2775 3584 3186 3129 
Q 3597 2675 3597 1894 
z
M 3022 2063 
Q 3016 2534 2758 2815 
Q 2500 3097 2075 3097 
Q 1594 3097 1305 2825 
Q 1016 2553 972 2059 
L 3022 2063 
z
" id="DejaVuSans-65" transform="scale(0.015625)"/>
       <path d="M 191 3500 
L 800 3500 
L 1894 563 
L 2988 3500 
L 3597 3500 
L 2284 0 
L 1503 0 
L 191 3500 
z
" id="DejaVuSans-76" transform="scale(0.015625)"/>
       <path d="M 2194 1759 
Q 1497 1759 1228 1600 
Q 959 1441 959 1056 
Q 959 750 1161 570 
Q 1363 391 1709 391 
Q 2188 391 2477 730 
Q 2766 1069 2766 1631 
L 2766 1759 
L 2194 1759 
z
M 3341 1997 
L 3341 0 
L 2766 0 
L 2766 531 
Q 2569 213 2275 61 
Q 1981 -91 1556 -91 
Q 1019 -91 701 211 
Q 384 513 384 1019 
Q 384 1609 779 1909 
Q 1175 2209 1959 2209 
L 2766 2209 
L 2766 2266 
Q 2766 2663 2505 2880 
Q 2244 3097 1772 3097 
Q 1472 3097 1187 3025 
Q 903 2953 641 2809 
L 641 3341 
Q 956 3463 1253 3523 
Q 1550 3584 1831 3584 
Q 2591 3584 2966 3190 
Q 3341 2797 3341 1997 
z
" id="DejaVuSans-61" transform="scale(0.015625)"/>
       <path d="M 2834 3397 
L 2834 2853 
Q 2591 2978 2328 3040 
Q 2066 3103 1784 3103 
Q 1356 3103 1142 2972 
Q 928 2841 928 2578 
Q 928 2378 1081 2264 
Q 1234 2150 1697 2047 
L 1894 2003 
Q 2506 1872 2764 1633 
Q 3022 1394 3022 966 
Q 3022 478 2636 193 
Q 2250 -91 1575 -91 
Q 1294 -91 989 -36 
Q 684 19 347 128 
L 347 722 
Q 666 556 975 473 
Q 1284 391 1588 391 
Q 1994 391 2212 530 
Q 2431 669 2431 922 
Q 2431 1156 2273 1281 
Q 2116 1406 1581 1522 
L 1381 1569 
Q 847 1681 609 1914 
Q 372 2147 372 2553 
Q 372 3047 722 3315 
Q 1072 3584 1716 3584 
Q 2034 3584 2315 3537 
Q 2597 3491 2834 3397 
z
" id="DejaVuSans-73" transform="scale(0.015625)"/>
       <path d="M 1625 4666 
L 2156 4666 
L 531 -594 
L 0 -594 
L 1625 4666 
z
" id="DejaVuSans-2f" transform="scale(0.015625)"/>
       <path d="M 2906 2969 
L 2906 4863 
L 3481 4863 
L 3481 0 
L 2906 0 
L 2906 525 
Q 2725 213 2448 61 
Q 2172 -91 1784 -91 
Q 1150 -91 751 415 
Q 353 922 353 1747 
Q 353 2572 751 3078 
Q 1150 3584 1784 3584 
Q 2172 3584 2448 3432 
Q 2725 3281 2906 2969 
z
M 947 1747 
Q 947 1113 1208 752 
Q 1469 391 1925 391 
Q 2381 391 2643 752 
Q 2906 1113 2906 1747 
Q 2906 2381 2643 2742 
Q 2381 3103 1925 3103 
Q 1469 3103 1208 2742 
Q 947 2381 947 1747 
z
" id="DejaVuSans-64" transform="scale(0.015625)"/>
       <path d="M 603 3500 
L 1178 3500 
L 1178 0 
L 603 0 
L 603 3500 
z
M 603 4863 
L 1178 4863 
L 1178 4134 
L 603 4134 
L 603 4863 
z
" id="DejaVuSans-69" transform="scale(0.015625)"/>
       <path d="M 3328 2828 
Q 3544 3216 3844 3400 
Q 4144 3584 4550 3584 
Q 5097 3584 5394 3201 
Q 5691 2819 5691 2113 
L 5691 0 
L 5113 0 
L 5113 2094 
Q 5113 2597 4934 2840 
Q 4756 3084 4391 3084 
Q 3944 3084 3684 2787 
Q 3425 2491 3425 1978 
L 3425 0 
L 2847 0 
L 2847 2094 
Q 2847 2600 2669 2842 
Q 2491 3084 2119 3084 
Q 1678 3084 1418 2786 
Q 1159 2488 1159 1978 
L 1159 0 
L 581 0 
L 581 3500 
L 1159 3500 
L 1159 2956 
Q 1356 3278 1631 3431 
Q 1906 3584 2284 3584 
Q 2666 3584 2933 3390 
Q 3200 3197 3328 2828 
z
" id="DejaVuSans-6d" transform="scale(0.015625)"/>
       <path d="M 3513 2113 
L 3513 0 
L 2938 0 
L 2938 2094 
Q 2938 2591 2744 2837 
Q 2550 3084 2163 3084 
Q 1697 3084 1428 2787 
Q 1159 2491 1159 1978 
L 1159 0 
L 581 0 
L 581 3500 
L 1159 3500 
L 1159 2956 
Q 1366 3272 1645 3428 
Q 1925 3584 2291 3584 
Q 2894 3584 3203 3211 
Q 3513 2838 3513 2113 
z
" id="DejaVuSans-6e" transform="scale(0.015625)"/>
       <path d="M 513 4856 
L 1013 4856 
Q 1481 4119 1714 3412 
Q 1947 2706 1947 2009 
Q 1947 1309 1714 600 
Q 1481 -109 1013 -844 
L 513 -844 
Q 928 -128 1133 580 
Q 1338 1288 1338 2009 
Q 1338 2731 1133 3434 
Q 928 4138 513 4856 
z
" id="DejaVuSans-29" transform="scale(0.015625)"/>
      </defs>
      <use xlink:href="#DejaVuSans-6c"/>
      <use x="27.783203" xlink:href="#DejaVuSans-6f"/>
      <use x="88.964844" xlink:href="#DejaVuSans-67"/>
      <use x="152.441406" xlink:href="#DejaVuSans-31"/>
      <use x="216.064453" xlink:href="#DejaVuSans-30"/>
      <use x="279.6875" xlink:href="#DejaVuSans-28"/>
      <use x="318.701172" xlink:href="#DejaVuSans-23"/>
      <use x="402.490234" xlink:href="#DejaVuSans-20"/>
      <use x="434.277344" xlink:href="#DejaVuSans-66"/>
      <use x="463.982422" xlink:href="#DejaVuSans-2d"/>
      <use x="500.066406" xlink:href="#DejaVuSans-65"/>
      <use x="561.589844" xlink:href="#DejaVuSans-76"/>
      <use x="620.769531" xlink:href="#DejaVuSans-61"/>
      <use x="682.048828" xlink:href="#DejaVuSans-6c"/>
      <use x="709.832031" xlink:href="#DejaVuSans-73"/>
      <use x="761.931641" xlink:href="#DejaVuSans-20"/>
      <use x="793.71875" xlink:href="#DejaVuSans-2f"/>
      <use x="827.410156" xlink:href="#DejaVuSans-20"/>
      <use x="859.197266" xlink:href="#DejaVuSans-64"/>
      <use x="922.673828" xlink:href="#DejaVuSans-69"/>
      <use x="950.457031" xlink:href="#DejaVuSans-6d"/>
      <use x="1047.869141" xlink:href="#DejaVuSans-65"/>
      <use x="1109.392578" xlink:href="#DejaVuSans-6e"/>
      <use x="1172.771484" xlink:href="#DejaVuSans-73"/>
      <use x="1224.871094" xlink:href="#DejaVuSans-69"/>
      <use x="1252.654297" xlink:href="#DejaVuSans-6f"/>
      <use x="1313.835938" xlink:href="#DejaVuSans-6e"/>
      <use x="1377.214844" xlink:href="#DejaVuSans-29"/>
     </g>
    </g>
   </g>
   <g id="matplotlib.axis_2">
    <g id="ytick_1">
     <g id="line2d_21">
      <path clip-path="url(#p3b98f8b5e6)" d="M 57.6 298.944 
L 338.688 298.944 
" style="fill:none;stroke:#b0b0b0;stroke-linecap:square;stroke-width:0.8;"/>
     </g>
     <g id="line2d_22">
      <defs>
       <path d="M 0 0 
L -3.5 0 
" id="md1d2a625c2" style="stroke:#000000;stroke-width:0.8;"/>
      </defs>
      <g>
       <use style="stroke:#000000;stroke-width:0.8;" x="57.6" xlink:href="#md1d2a625c2" y="298.944"/>
      </g>
     </g>
     <g id="text_6">
      <!-- 0.0 -->
      <g transform="translate(25.155 305.02275)scale(0.16 -0.16)">
       <defs>
        <path d="M 684 794 
L 1344 794 
L 1344 0 
L 684 0 
L 684 794 
z
" id="DejaVuSans-2e" transform="scale(0.015625)"/>
       </defs>
       <use xlink:href="#DejaVuSans-30"/>
       <use x="63.623047" xlink:href="#DejaVuSans-2e"/>
       <use x="95.410156" xlink:href="#DejaVuSans-30"/>
      </g>
     </g>
    </g>
    <g id="ytick_2">
     <g id="line2d_23">
      <path clip-path="url(#p3b98f8b5e6)" d="M 57.6 245.22202 
L 338.688 245.22202 
" style="fill:none;stroke:#b0b0b0;stroke-linecap:square;stroke-width:0.8;"/>
     </g>
     <g id="line2d_24">
      <g>
       <use style="stroke:#000000;stroke-width:0.8;" x="57.6" xlink:href="#md1d2a625c2" y="245.22202"/>
      </g>
     </g>
     <g id="text_7">
      <!-- 0.2 -->
      <g transform="translate(25.155 251.30077)scale(0.16 -0.16)">
       <use xlink:href="#DejaVuSans-30"/>
       <use x="63.623047" xlink:href="#DejaVuSans-2e"/>
       <use x="95.410156" xlink:href="#DejaVuSans-32"/>
      </g>
     </g>
    </g>
    <g id="ytick_3">
     <g id="line2d_25">
      <path clip-path="url(#p3b98f8b5e6)" d="M 57.6 191.50004 
L 338.688 191.50004 
" style="fill:none;stroke:#b0b0b0;stroke-linecap:square;stroke-width:0.8;"/>
     </g>
     <g id="line2d_26">
      <g>
       <use style="stroke:#000000;stroke-width:0.8;" x="57.6" xlink:href="#md1d2a625c2" y="191.50004"/>
      </g>
     </g>
     <g id="text_8">
      <!-- 0.4 -->
      <g transform="translate(25.155 197.57879)scale(0.16 -0.16)">
       <use xlink:href="#DejaVuSans-30"/>
       <use x="63.623047" xlink:href="#DejaVuSans-2e"/>
       <use x="95.410156" xlink:href="#DejaVuSans-34"/>
      </g>
     </g>
    </g>
    <g id="ytick_4">
     <g id="line2d_27">
      <path clip-path="url(#p3b98f8b5e6)" d="M 57.6 137.778059 
L 338.688 137.778059 
" style="fill:none;stroke:#b0b0b0;stroke-linecap:square;stroke-width:0.8;"/>
     </g>
     <g id="line2d_28">
      <g>
       <use style="stroke:#000000;stroke-width:0.8;" x="57.6" xlink:href="#md1d2a625c2" y="137.778059"/>
      </g>
     </g>
     <g id="text_9">
      <!-- 0.6 -->
      <g transform="translate(25.155 143.856809)scale(0.16 -0.16)">
       <use xlink:href="#DejaVuSans-30"/>
       <use x="63.623047" xlink:href="#DejaVuSans-2e"/>
       <use x="95.410156" xlink:href="#DejaVuSans-36"/>
      </g>
     </g>
    </g>
    <g id="ytick_5">
     <g id="line2d_29">
      <path clip-path="url(#p3b98f8b5e6)" d="M 57.6 84.056079 
L 338.688 84.056079 
" style="fill:none;stroke:#b0b0b0;stroke-linecap:square;stroke-width:0.8;"/>
     </g>
     <g id="line2d_30">
      <g>
       <use style="stroke:#000000;stroke-width:0.8;" x="57.6" xlink:href="#md1d2a625c2" y="84.056079"/>
      </g>
     </g>
     <g id="text_10">
      <!-- 0.8 -->
      <g transform="translate(25.155 90.134829)scale(0.16 -0.16)">
       <defs>
        <path d="M 2034 2216 
Q 1584 2216 1326 1975 
Q 1069 1734 1069 1313 
Q 1069 891 1326 650 
Q 1584 409 2034 409 
Q 2484 409 2743 651 
Q 3003 894 3003 1313 
Q 3003 1734 2745 1975 
Q 2488 2216 2034 2216 
z
M 1403 2484 
Q 997 2584 770 2862 
Q 544 3141 544 3541 
Q 544 4100 942 4425 
Q 1341 4750 2034 4750 
Q 2731 4750 3128 4425 
Q 3525 4100 3525 3541 
Q 3525 3141 3298 2862 
Q 3072 2584 2669 2484 
Q 3125 2378 3379 2068 
Q 3634 1759 3634 1313 
Q 3634 634 3220 271 
Q 2806 -91 2034 -91 
Q 1263 -91 848 271 
Q 434 634 434 1313 
Q 434 1759 690 2068 
Q 947 2378 1403 2484 
z
M 1172 3481 
Q 1172 3119 1398 2916 
Q 1625 2713 2034 2713 
Q 2441 2713 2670 2916 
Q 2900 3119 2900 3481 
Q 2900 3844 2670 4047 
Q 2441 4250 2034 4250 
Q 1625 4250 1398 4047 
Q 1172 3844 1172 3481 
z
" id="DejaVuSans-38" transform="scale(0.015625)"/>
       </defs>
       <use xlink:href="#DejaVuSans-30"/>
       <use x="63.623047" xlink:href="#DejaVuSans-2e"/>
       <use x="95.410156" xlink:href="#DejaVuSans-38"/>
      </g>
     </g>
    </g>
    <g id="ytick_6">
     <g id="line2d_31">
      <path clip-path="url(#p3b98f8b5e6)" d="M 57.6 30.334099 
L 338.688 30.334099 
" style="fill:none;stroke:#b0b0b0;stroke-linecap:square;stroke-width:0.8;"/>
     </g>
     <g id="line2d_32">
      <g>
       <use style="stroke:#000000;stroke-width:0.8;" x="57.6" xlink:href="#md1d2a625c2" y="30.334099"/>
      </g>
     </g>
     <g id="text_11">
      <!-- 1.0 -->
      <g transform="translate(25.155 36.412849)scale(0.16 -0.16)">
       <use xlink:href="#DejaVuSans-31"/>
       <use x="63.623047" xlink:href="#DejaVuSans-2e"/>
       <use x="95.410156" xlink:href="#DejaVuSans-30"/>
      </g>
     </g>
    </g>
    <g id="text_12">
     <!-- Fraction of function,target pairs -->
     <g transform="translate(17.619531 297.681)rotate(-90)scale(0.17 -0.17)">
      <defs>
       <path d="M 628 4666 
L 3309 4666 
L 3309 4134 
L 1259 4134 
L 1259 2759 
L 3109 2759 
L 3109 2228 
L 1259 2228 
L 1259 0 
L 628 0 
L 628 4666 
z
" id="DejaVuSans-46" transform="scale(0.015625)"/>
       <path d="M 2631 2963 
Q 2534 3019 2420 3045 
Q 2306 3072 2169 3072 
Q 1681 3072 1420 2755 
Q 1159 2438 1159 1844 
L 1159 0 
L 581 0 
L 581 3500 
L 1159 3500 
L 1159 2956 
Q 1341 3275 1631 3429 
Q 1922 3584 2338 3584 
Q 2397 3584 2469 3576 
Q 2541 3569 2628 3553 
L 2631 2963 
z
" id="DejaVuSans-72" transform="scale(0.015625)"/>
       <path d="M 3122 3366 
L 3122 2828 
Q 2878 2963 2633 3030 
Q 2388 3097 2138 3097 
Q 1578 3097 1268 2742 
Q 959 2388 959 1747 
Q 959 1106 1268 751 
Q 1578 397 2138 397 
Q 2388 397 2633 464 
Q 2878 531 3122 666 
L 3122 134 
Q 2881 22 2623 -34 
Q 2366 -91 2075 -91 
Q 1284 -91 818 406 
Q 353 903 353 1747 
Q 353 2603 823 3093 
Q 1294 3584 2113 3584 
Q 2378 3584 2631 3529 
Q 2884 3475 3122 3366 
z
" id="DejaVuSans-63" transform="scale(0.015625)"/>
       <path d="M 1172 4494 
L 1172 3500 
L 2356 3500 
L 2356 3053 
L 1172 3053 
L 1172 1153 
Q 1172 725 1289 603 
Q 1406 481 1766 481 
L 2356 481 
L 2356 0 
L 1766 0 
Q 1100 0 847 248 
Q 594 497 594 1153 
L 594 3053 
L 172 3053 
L 172 3500 
L 594 3500 
L 594 4494 
L 1172 4494 
z
" id="DejaVuSans-74" transform="scale(0.015625)"/>
       <path d="M 544 1381 
L 544 3500 
L 1119 3500 
L 1119 1403 
Q 1119 906 1312 657 
Q 1506 409 1894 409 
Q 2359 409 2629 706 
Q 2900 1003 2900 1516 
L 2900 3500 
L 3475 3500 
L 3475 0 
L 2900 0 
L 2900 538 
Q 2691 219 2414 64 
Q 2138 -91 1772 -91 
Q 1169 -91 856 284 
Q 544 659 544 1381 
z
M 1991 3584 
L 1991 3584 
z
" id="DejaVuSans-75" transform="scale(0.015625)"/>
       <path d="M 750 794 
L 1409 794 
L 1409 256 
L 897 -744 
L 494 -744 
L 750 256 
L 750 794 
z
" id="DejaVuSans-2c" transform="scale(0.015625)"/>
       <path d="M 1159 525 
L 1159 -1331 
L 581 -1331 
L 581 3500 
L 1159 3500 
L 1159 2969 
Q 1341 3281 1617 3432 
Q 1894 3584 2278 3584 
Q 2916 3584 3314 3078 
Q 3713 2572 3713 1747 
Q 3713 922 3314 415 
Q 2916 -91 2278 -91 
Q 1894 -91 1617 61 
Q 1341 213 1159 525 
z
M 3116 1747 
Q 3116 2381 2855 2742 
Q 2594 3103 2138 3103 
Q 1681 3103 1420 2742 
Q 1159 2381 1159 1747 
Q 1159 1113 1420 752 
Q 1681 391 2138 391 
Q 2594 391 2855 752 
Q 3116 1113 3116 1747 
z
" id="DejaVuSans-70" transform="scale(0.015625)"/>
      </defs>
      <use xlink:href="#DejaVuSans-46"/>
      <use x="50.269531" xlink:href="#DejaVuSans-72"/>
      <use x="91.382812" xlink:href="#DejaVuSans-61"/>
      <use x="152.662109" xlink:href="#DejaVuSans-63"/>
      <use x="207.642578" xlink:href="#DejaVuSans-74"/>
      <use x="246.851562" xlink:href="#DejaVuSans-69"/>
      <use x="274.634766" xlink:href="#DejaVuSans-6f"/>
      <use x="335.816406" xlink:href="#DejaVuSans-6e"/>
      <use x="399.195312" xlink:href="#DejaVuSans-20"/>
      <use x="430.982422" xlink:href="#DejaVuSans-6f"/>
      <use x="492.164062" xlink:href="#DejaVuSans-66"/>
      <use x="527.369141" xlink:href="#DejaVuSans-20"/>
      <use x="559.15625" xlink:href="#DejaVuSans-66"/>
      <use x="594.361328" xlink:href="#DejaVuSans-75"/>
      <use x="657.740234" xlink:href="#DejaVuSans-6e"/>
      <use x="721.119141" xlink:href="#DejaVuSans-63"/>
      <use x="776.099609" xlink:href="#DejaVuSans-74"/>
      <use x="815.308594" xlink:href="#DejaVuSans-69"/>
      <use x="843.091797" xlink:href="#DejaVuSans-6f"/>
      <use x="904.273438" xlink:href="#DejaVuSans-6e"/>
      <use x="967.652344" xlink:href="#DejaVuSans-2c"/>
      <use x="999.439453" xlink:href="#DejaVuSans-74"/>
      <use x="1038.648438" xlink:href="#DejaVuSans-61"/>
      <use x="1099.927734" xlink:href="#DejaVuSans-72"/>
      <use x="1139.291016" xlink:href="#DejaVuSans-67"/>
      <use x="1202.767578" xlink:href="#DejaVuSans-65"/>
      <use x="1264.291016" xlink:href="#DejaVuSans-74"/>
      <use x="1303.5" xlink:href="#DejaVuSans-20"/>
      <use x="1335.287109" xlink:href="#DejaVuSans-70"/>
      <use x="1398.763672" xlink:href="#DejaVuSans-61"/>
      <use x="1460.042969" xlink:href="#DejaVuSans-69"/>
      <use x="1487.826172" xlink:href="#DejaVuSans-72"/>
      <use x="1528.939453" xlink:href="#DejaVuSans-73"/>
     </g>
    </g>
   </g>
   <g id="line2d_33">
    <defs>
     <path d="M 0 1.5 
C 0.397805 1.5 0.77937 1.341951 1.06066 1.06066 
C 1.341951 0.77937 1.5 0.397805 1.5 0 
C 1.5 -0.397805 1.341951 -0.77937 1.06066 -1.06066 
C 0.77937 -1.341951 0.397805 -1.5 0 -1.5 
C -0.397805 -1.5 -0.77937 -1.341951 -1.06066 -1.06066 
C -1.341951 -0.77937 -1.5 -0.397805 -1.5 0 
C -1.5 0.397805 -1.341951 0.77937 -1.06066 1.06066 
C -0.77937 1.341951 -0.397805 1.5 0 1.5 
z
" id="m93be4bffe8" style="stroke:#f5deb3;"/>
    </defs>
    <g>
     <use style="fill:#f5deb3;stroke:#f5deb3;" x="160.015335" xlink:href="#m93be4bffe8" y="30.334099"/>
     <use style="fill:#f5deb3;stroke:#f5deb3;" x="160.015335" xlink:href="#m93be4bffe8" y="30.334099"/>
    </g>
   </g>
   <g id="line2d_34">
    <defs>
     <path d="M 0 1.5 
C 0.397805 1.5 0.77937 1.341951 1.06066 1.06066 
C 1.341951 0.77937 1.5 0.397805 1.5 0 
C 1.5 -0.397805 1.341951 -0.77937 1.06066 -1.06066 
C 0.77937 -1.341951 0.397805 -1.5 0 -1.5 
C -0.397805 -1.5 -0.77937 -1.341951 -1.06066 -1.06066 
C -1.341951 -0.77937 -1.5 -0.397805 -1.5 0 
C -1.5 0.397805 -1.341951 0.77937 -1.06066 1.06066 
C -0.77937 1.341951 -0.397805 1.5 0 1.5 
z
" id="mbf94a623d9" style="stroke:#000080;"/>
    </defs>
    <g>
     <use style="fill:#000080;stroke:#000080;" x="177.975365" xlink:href="#mbf94a623d9" y="30.334099"/>
     <use style="fill:#000080;stroke:#000080;" x="177.975365" xlink:href="#mbf94a623d9" y="30.334099"/>
    </g>
   </g>
   <g id="line2d_35">
    <path d="M 107.009204 298.944 
L 107.009204 296.837256 
L 108.948899 296.837256 
L 108.948899 296.31057 
L 111.185562 296.31057 
L 111.185562 295.783884 
L 114.0117 295.783884 
L 114.0117 294.203825 
L 114.148479 294.203825 
L 114.148479 293.677139 
L 114.685115 293.677139 
L 114.685115 293.150453 
L 115.460322 293.150453 
L 115.460322 292.097081 
L 116.443076 292.097081 
L 116.443076 291.570395 
L 118.256582 291.570395 
L 118.256582 291.043709 
L 118.786692 291.043709 
L 118.786692 289.990337 
L 119.89914 289.990337 
L 119.89914 289.463651 
L 120.47729 289.463651 
L 120.47729 288.936964 
L 120.852343 288.936964 
L 120.852343 288.410278 
L 121.400219 288.410278 
L 121.400219 287.883592 
L 121.579085 287.883592 
L 121.579085 286.83022 
L 122.104932 286.83022 
L 122.191052 285.776848 
L 124.216444 285.776848 
L 124.216444 285.250162 
L 124.368753 285.250162 
L 124.368753 284.723476 
L 124.594752 284.723476 
L 124.669438 283.670104 
L 126.030894 283.670104 
L 126.030894 282.616732 
L 126.304457 282.616732 
L 126.304457 280.509987 
L 127.54831 280.509987 
L 127.54831 279.983301 
L 128.650105 279.983301 
L 128.650105 279.456615 
L 129.233413 279.456615 
L 129.233413 278.929929 
L 129.404667 278.929929 
L 129.404667 278.403243 
L 129.686407 278.403243 
L 129.686407 277.876557 
L 129.963666 277.876557 
L 130.073348 276.823185 
L 130.505303 276.823185 
L 130.505303 275.769812 
L 130.664567 275.769812 
L 130.76994 273.663068 
L 132.565279 273.663068 
L 132.565279 273.136382 
L 133.800029 273.136382 
L 133.800029 272.609696 
L 134.321942 272.609696 
L 134.321942 272.08301 
L 134.661403 272.08301 
L 134.745246 271.029638 
L 135.199312 271.029638 
L 135.199312 270.502952 
L 135.321124 270.502952 
L 135.321124 269.976266 
L 135.44209 269.976266 
L 135.44209 269.449579 
L 135.641855 269.449579 
L 135.641855 268.922893 
L 135.956794 268.922893 
L 135.956794 267.869521 
L 136.304433 267.869521 
L 136.304433 266.816149 
L 136.494612 266.816149 
L 136.494612 265.762777 
L 136.831795 265.762777 
L 136.831795 265.236091 
L 137.343676 265.236091 
L 137.343676 264.709405 
L 137.629572 264.709405 
L 137.70032 263.129347 
L 137.770782 263.129347 
L 137.770782 262.60266 
L 138.153314 262.60266 
L 138.153314 261.549288 
L 138.426341 261.549288 
L 138.426341 261.022602 
L 138.594838 261.022602 
L 138.594838 260.495916 
L 139.058148 260.495916 
L 139.123342 259.442544 
L 139.381706 259.442544 
L 139.381706 258.389172 
L 139.509467 258.389172 
L 139.604677 254.702369 
L 140.042245 254.702369 
L 140.042245 253.648997 
L 141.002999 253.648997 
L 141.002999 253.122311 
L 141.378673 253.122311 
L 141.378673 252.595625 
L 141.774395 252.595625 
L 141.774395 252.068939 
L 142.051655 252.068939 
L 142.106582 251.015567 
L 142.539878 251.015567 
L 142.539878 250.488881 
L 142.699628 250.488881 
L 142.699628 249.962195 
L 142.910378 249.962195 
L 143.014805 248.382136 
L 143.040814 248.382136 
L 143.040814 247.85545 
L 143.170282 247.85545 
L 143.170282 247.328764 
L 143.451774 247.328764 
L 143.451774 246.802078 
L 143.728793 246.802078 
L 143.728793 246.275392 
L 144.099593 246.275392 
L 144.099593 245.22202 
L 144.438701 245.22202 
L 144.438701 244.695334 
L 144.77134 244.695334 
L 144.865226 243.641962 
L 145.166911 243.641962 
L 145.235796 242.061903 
L 145.281568 242.061903 
L 145.281568 241.535217 
L 145.508645 241.535217 
L 145.531191 240.481845 
L 146.107383 240.481845 
L 146.194362 238.901787 
L 146.644018 238.901787 
L 146.707319 237.321729 
L 146.77039 237.321729 
L 146.77039 236.795043 
L 146.937474 236.795043 
L 147.02042 234.688298 
L 147.185137 234.688298 
L 147.185137 233.634926 
L 147.307662 233.634926 
L 147.388869 229.948123 
L 147.429332 229.948123 
L 147.530079 228.368065 
L 147.550159 228.368065 
L 147.550159 227.841379 
L 147.729844 227.841379 
L 147.729844 226.788007 
L 147.927346 226.788007 
L 147.927346 226.261321 
L 148.1808 226.261321 
L 148.258051 224.681263 
L 148.315765 224.681263 
L 148.315765 224.154577 
L 148.525764 224.154577 
L 148.525764 223.101204 
L 148.826773 223.101204 
L 148.826773 222.574518 
L 148.993835 222.574518 
L 148.993835 222.047832 
L 149.214124 222.047832 
L 149.214124 220.99446 
L 149.377533 220.99446 
L 149.377533 219.941088 
L 149.735275 219.941088 
L 149.770648 217.834344 
L 150.206871 217.834344 
L 150.309961 214.674227 
L 150.327083 214.674227 
L 150.429467 213.620855 
L 150.446473 213.620855 
L 150.51433 211.514111 
L 150.581924 211.514111 
L 150.598782 210.460738 
L 150.816462 210.460738 
L 150.816462 209.934052 
L 150.998554 209.934052 
L 151.0643 208.353994 
L 151.340991 208.353994 
L 151.437608 206.24725 
L 151.755852 206.24725 
L 151.865879 204.140506 
L 151.959639 204.140506 
L 151.959639 203.613819 
L 152.222586 203.613819 
L 152.283884 202.033761 
L 152.39064 202.033761 
L 152.466496 200.453703 
L 152.526944 200.453703 
L 152.602211 198.346959 
L 152.781537 198.346959 
L 152.811246 196.7669 
L 152.900071 196.7669 
L 152.973748 195.186842 
L 153.047115 195.186842 
L 153.047115 194.660156 
L 153.207444 194.660156 
L 153.236437 193.606784 
L 153.509492 193.606784 
L 153.580644 191.50004 
L 153.764292 191.50004 
L 153.834414 189.919981 
L 154.084543 189.919981 
L 154.084543 188.866609 
L 154.331136 188.866609 
L 154.385464 187.286551 
L 154.480132 187.286551 
L 154.480132 186.759865 
L 154.694607 186.759865 
L 154.800864 185.179807 
L 154.8141 185.179807 
L 154.840544 184.126434 
L 154.93278 184.126434 
L 155.011454 183.073062 
L 155.076745 183.073062 
L 155.076745 182.546376 
L 155.193657 182.546376 
L 155.258271 181.493004 
L 155.386785 181.493004 
L 155.425155 180.439632 
L 155.527065 180.439632 
L 155.590458 178.859574 
L 155.666226 178.859574 
L 155.729115 175.699457 
L 155.904009 175.699457 
L 155.904009 175.172771 
L 156.150854 175.172771 
L 156.260804 171.485969 
L 156.285144 171.485969 
L 156.285144 170.959282 
L 156.466616 170.959282 
L 156.466616 170.432596 
L 156.586556 170.432596 
L 156.610446 169.379224 
L 156.717545 169.379224 
L 156.776762 167.27248 
L 156.882847 167.27248 
L 156.906335 165.692422 
L 157.046598 165.692422 
L 157.15106 163.585677 
L 157.174189 163.585677 
L 157.243392 160.425561 
L 157.44937 160.425561 
L 157.551454 159.372189 
L 157.56276 159.372189 
L 157.574059 157.265444 
L 157.697862 157.265444 
L 157.798506 154.105328 
L 157.887482 154.105328 
L 157.920731 153.051956 
L 158.009087 153.051956 
L 158.0201 151.471897 
L 158.129851 151.471897 
L 158.206267 148.311781 
L 158.28235 148.311781 
L 158.390468 145.151665 
L 158.444276 145.151665 
L 158.551397 143.571606 
L 158.647247 143.571606 
L 158.742573 138.304745 
L 158.774233 138.304745 
L 158.784773 137.251373 
L 159.015067 137.251373 
L 159.07735 136.198001 
L 159.51732 136.198001 
L 159.577838 135.144629 
L 159.658204 135.144629 
L 159.748174 133.037885 
L 160.083935 133.037885 
L 160.162007 131.457826 
L 160.220333 131.457826 
L 160.259108 127.771024 
L 160.346039 127.771024 
L 160.365299 126.717652 
L 160.470846 126.717652 
L 160.470846 126.190966 
L 160.680044 126.190966 
L 160.755498 125.137593 
L 160.858717 125.137593 
L 160.942717 124.084221 
L 161.017045 124.084221 
L 161.109513 122.504163 
L 161.164758 122.504163 
L 161.210663 121.450791 
L 161.329454 121.450791 
L 161.356752 119.870733 
L 161.510643 119.870733 
L 161.618459 116.18393 
L 161.663187 116.18393 
L 161.7078 113.023814 
L 161.778945 113.023814 
L 161.867469 110.390383 
L 162.208484 110.390383 
L 162.312084 107.756953 
L 162.372234 107.756953 
L 162.440724 106.176895 
L 162.508946 106.176895 
L 162.55145 103.543464 
L 162.703612 103.543464 
L 162.79595 101.963406 
L 162.837761 101.963406 
L 162.946002 99.329976 
L 162.995734 99.329976 
L 163.070067 95.643173 
L 163.193255 95.643173 
L 163.2749 94.063115 
L 163.50953 94.063115 
L 163.613694 92.483056 
L 163.669525 92.483056 
L 163.741046 89.849626 
L 163.851722 89.849626 
L 163.953867 87.742882 
L 164.00081 87.742882 
L 164.00081 87.216196 
L 164.140886 87.216196 
L 164.241356 84.056079 
L 164.630012 84.056079 
L 164.660132 83.002707 
L 164.809955 83.002707 
L 164.86209 81.422649 
L 164.98806 81.422649 
L 164.98806 80.895963 
L 165.215452 80.895963 
L 165.215452 80.369277 
L 165.338904 80.369277 
L 165.425523 77.735846 
L 165.533195 77.735846 
L 165.576079 75.102416 
L 165.711185 75.102416 
L 165.817113 71.942299 
L 165.845252 71.942299 
L 165.915403 69.308869 
L 166.061806 69.308869 
L 166.158729 67.728811 
L 166.364626 67.728811 
L 166.453099 65.622066 
L 166.682389 65.622066 
L 166.682389 65.09538 
L 166.795913 65.09538 
L 166.795913 64.042008 
L 167.020769 64.042008 
L 167.020769 63.515322 
L 167.138646 63.515322 
L 167.249248 60.881892 
L 167.333356 60.881892 
L 167.442734 58.248461 
L 167.747913 58.248461 
L 167.804544 56.668403 
L 167.873511 56.668403 
L 167.873511 56.141717 
L 168.054037 56.141717 
L 168.054037 55.615031 
L 168.31222 55.615031 
L 168.391365 52.9816 
L 168.488284 52.9816 
L 168.488284 52.454914 
L 168.71633 52.454914 
L 168.77585 50.34817 
L 168.829244 50.34817 
L 168.929657 48.241426 
L 169.05875 48.241426 
L 169.169476 45.607995 
L 169.605481 45.607995 
L 169.605481 45.081309 
L 169.791457 45.081309 
L 169.791457 44.554623 
L 169.931039 44.554623 
L 169.931039 44.027937 
L 170.272457 44.027937 
L 170.35949 42.447879 
L 170.386599 42.447879 
L 170.386599 41.921193 
L 170.607318 41.921193 
L 170.607318 41.394507 
L 170.782963 41.394507 
L 170.862221 39.814448 
L 171.325215 39.814448 
L 171.325215 39.287762 
L 171.519214 39.287762 
L 171.519214 38.761076 
L 171.665827 38.761076 
L 171.665827 38.23439 
L 171.786237 38.23439 
L 171.786237 37.707704 
L 172.132757 37.707704 
L 172.132757 37.181018 
L 172.453287 37.181018 
L 172.453287 36.654332 
L 173.08184 36.654332 
L 173.08184 36.127646 
L 173.580597 36.127646 
L 173.639141 35.074274 
L 174.412979 35.074274 
L 174.412979 34.547588 
L 174.52444 34.547588 
L 174.52444 34.020902 
L 175.399504 34.020902 
L 175.508892 32.967529 
L 175.605554 32.967529 
L 175.605554 32.440843 
L 176.615961 32.440843 
L 176.615961 31.914157 
L 177.52071 31.914157 
L 177.52071 31.387471 
L 177.957826 31.387471 
L 177.975365 30.334099 
L 338.688 30.334099 
L 338.688 30.334099 
" style="fill:none;stroke:#000080;stroke-linecap:square;stroke-width:1.5;"/>
   </g>
   <g id="line2d_36">
    <defs>
     <path d="M 0 6 
C 1.591219 6 3.117479 5.367802 4.242641 4.242641 
C 5.367802 3.117479 6 1.591219 6 0 
C 6 -1.591219 5.367802 -3.117479 4.242641 -4.242641 
C 3.117479 -5.367802 1.591219 -6 0 -6 
C -1.591219 -6 -3.117479 -5.367802 -4.242641 -4.242641 
C -5.367802 -3.117479 -6 -1.591219 -6 0 
C -6 1.591219 -5.367802 3.117479 -4.242641 4.242641 
C -3.117479 5.367802 -1.591219 6 0 6 
z
" id="m0357584245" style="stroke:#000080;stroke-width:1.5;"/>
    </defs>
    <g>
     <use style="fill-opacity:0;stroke:#000080;stroke-width:1.5;" x="157.174189" xlink:href="#m0357584245" y="163.058991"/>
     <use style="fill-opacity:0;stroke:#000080;stroke-width:1.5;" x="177.975365" xlink:href="#m0357584245" y="30.860785"/>
     <use style="fill-opacity:0;stroke:#000080;stroke-width:1.5;" x="177.975365" xlink:href="#m0357584245" y="30.334099"/>
     <use style="fill-opacity:0;stroke:#000080;stroke-width:1.5;" x="177.975365" xlink:href="#m0357584245" y="30.334099"/>
     <use style="fill-opacity:0;stroke:#000080;stroke-width:1.5;" x="338.688" xlink:href="#m0357584245" y="30.334099"/>
    </g>
   </g>
   <g id="line2d_37">
    <path style="fill:none;stroke:#000080;stroke-linecap:square;stroke-width:1.5;"/>
    <g/>
   </g>
   <g id="line2d_38">
    <defs>
     <path d="M 0 1.5 
C 0.397805 1.5 0.77937 1.341951 1.06066 1.06066 
C 1.341951 0.77937 1.5 0.397805 1.5 0 
C 1.5 -0.397805 1.341951 -0.77937 1.06066 -1.06066 
C 0.77937 -1.341951 0.397805 -1.5 0 -1.5 
C -0.397805 -1.5 -0.77937 -1.341951 -1.06066 -1.06066 
C -1.341951 -0.77937 -1.5 -0.397805 -1.5 0 
C -1.5 0.397805 -1.341951 0.77937 -1.06066 1.06066 
C -0.77937 1.341951 -0.397805 1.5 0 1.5 
z
" id="m85fd6b667a" style="stroke:#ff00ff;"/>
    </defs>
    <g>
     <use style="fill:#ff00ff;stroke:#ff00ff;" x="169.285276" xlink:href="#m85fd6b667a" y="30.334099"/>
     <use style="fill:#ff00ff;stroke:#ff00ff;" x="169.285276" xlink:href="#m85fd6b667a" y="30.334099"/>
    </g>
   </g>
   <g id="line2d_39">
    <path d="M 84.213325 298.944 
L 84.213325 297.890628 
L 105.057436 297.890628 
L 105.057436 296.837256 
L 113.594805 296.837256 
L 113.594805 295.783884 
L 115.205729 295.783884 
L 115.205729 295.257197 
L 119.301163 295.257197 
L 119.301163 292.623767 
L 119.602714 292.623767 
L 119.602714 292.097081 
L 121.128432 292.097081 
L 121.128432 291.570395 
L 122.531342 291.570395 
L 122.615387 290.517023 
L 122.947573 290.517023 
L 122.947573 289.463651 
L 125.892487 289.463651 
L 125.892487 287.356906 
L 127.674226 287.356906 
L 127.674226 286.83022 
L 127.799239 286.83022 
L 127.799239 285.776848 
L 127.923363 285.776848 
L 127.923363 285.250162 
L 128.944197 285.250162 
L 128.944197 284.723476 
L 129.908566 284.723476 
L 129.908566 284.19679 
L 130.236587 284.19679 
L 130.236587 283.670104 
L 131.133813 283.670104 
L 131.185181 282.616732 
L 131.690703 282.616732 
L 131.690703 281.036673 
L 132.70687 281.036673 
L 132.70687 280.509987 
L 132.847322 280.509987 
L 132.847322 278.929929 
L 133.124876 278.929929 
L 133.124876 278.403243 
L 135.280614 278.403243 
L 135.280614 277.876557 
L 135.522271 277.876557 
L 135.522271 277.349871 
L 137.307607 277.349871 
L 137.307607 276.823185 
L 137.735587 276.823185 
L 137.84096 275.769812 
L 139.220677 275.769812 
L 139.220677 274.71644 
L 139.572998 274.71644 
L 139.572998 274.189754 
L 140.073083 274.189754 
L 140.073083 273.663068 
L 141.20629 273.663068 
L 141.20629 273.136382 
L 142.215919 273.136382 
L 142.215919 272.609696 
L 143.653678 272.609696 
L 143.653678 272.08301 
L 143.902815 272.08301 
L 143.902815 271.029638 
L 144.366588 271.029638 
L 144.390658 268.922893 
L 144.582038 268.922893 
L 144.653267 267.869521 
L 144.794859 267.869521 
L 144.794859 267.342835 
L 145.097753 267.342835 
L 145.097753 266.816149 
L 145.372754 266.816149 
L 145.372754 265.762777 
L 145.531191 265.762777 
L 145.531191 265.236091 
L 145.843812 265.236091 
L 145.843812 264.709405 
L 145.998045 264.709405 
L 145.998045 264.182719 
L 146.216039 264.182719 
L 146.259313 262.60266 
L 146.580487 262.60266 
L 146.580487 260.495916 
L 146.728368 260.495916 
L 146.812312 258.915858 
L 147.388869 258.915858 
L 147.48985 256.809114 
L 147.828875 256.809114 
L 147.828875 255.755741 
L 148.005725 255.755741 
L 148.025265 253.648997 
L 148.354135 253.648997 
L 148.354135 251.015567 
L 148.506778 251.015567 
L 148.54473 246.275392 
L 148.620389 246.275392 
L 148.714503 244.168648 
L 148.770728 244.168648 
L 148.864037 242.588589 
L 149.012299 242.588589 
L 149.085961 237.848415 
L 149.268764 237.848415 
L 149.323233 234.688298 
L 149.593058 234.688298 
L 149.682079 231.001496 
L 149.735275 231.001496 
L 149.735275 230.47481 
L 149.85877 230.47481 
L 149.963932 228.894751 
L 150.206871 228.894751 
L 150.275665 225.734635 
L 150.395406 225.734635 
L 150.463462 224.681263 
L 150.716332 224.681263 
L 150.716332 224.154577 
L 150.932558 224.154577 
L 150.932558 223.101204 
L 151.0643 223.101204 
L 151.0643 220.99446 
L 151.243836 220.99446 
L 151.324836 217.834344 
L 151.405461 217.834344 
L 151.485716 216.780971 
L 151.581536 216.780971 
L 151.581536 215.727599 
L 151.771612 215.727599 
L 151.771612 215.200913 
L 152.068392 215.200913 
L 152.176471 211.514111 
L 152.283884 211.514111 
L 152.375429 208.88068 
L 152.405838 208.88068 
L 152.405838 207.300622 
L 152.572143 207.300622 
L 152.617226 205.720564 
L 152.811246 205.720564 
L 152.811246 204.667192 
L 152.929579 204.667192 
L 152.929579 203.087133 
L 153.090987 203.087133 
L 153.192929 198.346959 
L 153.221946 198.346959 
L 153.221946 196.240214 
L 153.337534 196.240214 
L 153.337534 195.713528 
L 153.623196 195.713528 
L 153.623196 195.186842 
L 153.778339 195.186842 
L 153.778339 194.13347 
L 153.932113 194.13347 
L 154.029268 190.446667 
L 154.056927 190.446667 
L 154.139643 187.286551 
L 154.439623 187.286551 
L 154.533999 182.546376 
L 154.721232 182.546376 
L 154.827327 179.912946 
L 154.972161 179.912946 
L 155.050658 178.332888 
L 155.193657 178.332888 
L 155.193657 177.806202 
L 155.335493 177.806202 
L 155.335493 176.752829 
L 155.514359 176.752829 
L 155.514359 176.226143 
L 155.754208 176.226143 
L 155.841748 170.959282 
L 155.94126 170.959282 
L 156.015522 169.90591 
L 156.163105 169.90591 
L 156.248622 167.799166 
L 156.370066 167.799166 
L 156.370066 166.745794 
L 156.49067 166.745794 
L 156.598505 162.005619 
L 156.717545 162.005619 
L 156.741256 159.898875 
L 156.871092 159.898875 
L 156.882847 158.845503 
L 157.034952 158.845503 
L 157.034952 158.318817 
L 157.208825 158.318817 
L 157.243392 156.212072 
L 157.335239 156.212072 
L 157.335239 155.685386 
L 157.472107 155.685386 
L 157.472107 154.105328 
L 157.61918 154.105328 
L 157.664184 150.418525 
L 157.787352 150.418525 
L 157.831925 144.098292 
L 157.898572 144.098292 
L 157.898572 141.991548 
L 158.195371 141.991548 
L 158.28235 140.938176 
L 158.476481 140.938176 
L 158.583406 135.671315 
L 158.689678 135.671315 
L 158.70027 133.564571 
L 158.826871 133.564571 
L 158.826871 130.93114 
L 158.983842 130.93114 
L 159.046236 129.877768 
L 159.232092 129.877768 
L 159.232092 129.351082 
L 159.507213 129.351082 
L 159.597964 127.771024 
L 159.698248 127.771024 
L 159.728221 126.190966 
L 159.877318 126.190966 
L 159.985851 124.610907 
L 159.995685 124.610907 
L 160.083935 121.977477 
L 160.278464 121.977477 
L 160.384537 119.870733 
L 160.413354 119.870733 
L 160.518612 115.657244 
L 160.566247 115.657244 
L 160.566247 115.130558 
L 160.698938 115.130558 
L 160.764907 113.023814 
L 160.811875 113.023814 
L 160.811875 112.497128 
L 161.035578 112.497128 
L 161.127947 108.283639 
L 161.247301 108.283639 
L 161.311231 105.123522 
L 161.528659 105.123522 
L 161.528659 104.596836 
L 161.64531 104.596836 
L 161.743409 100.383348 
L 161.911563 100.383348 
L 161.999419 94.063115 
L 162.043181 94.063115 
L 162.121678 90.376312 
L 162.156452 90.376312 
L 162.251725 88.269568 
L 162.286241 88.269568 
L 162.389382 86.162824 
L 162.466339 86.162824 
L 162.576903 82.476021 
L 162.610782 82.476021 
L 162.712026 77.735846 
L 162.787576 77.735846 
L 162.896128 71.942299 
L 162.90445 71.942299 
L 162.946002 70.362241 
L 163.086542 70.362241 
L 163.17688 68.255497 
L 163.242288 68.255497 
L 163.348054 66.148752 
L 163.469301 66.148752 
L 163.477355 64.568694 
L 163.645619 64.568694 
L 163.741046 60.355206 
L 163.867476 60.355206 
L 163.906798 58.775147 
L 164.140886 58.775147 
L 164.218222 57.195089 
L 164.425332 57.195089 
L 164.493826 55.088345 
L 164.569616 55.088345 
L 164.667654 52.9816 
L 164.727712 52.9816 
L 164.817412 50.34817 
L 164.965896 50.34817 
L 164.965896 49.294798 
L 165.127781 49.294798 
L 165.127781 48.241426 
L 165.273656 48.241426 
L 165.273656 47.71474 
L 165.461488 47.71474 
L 165.461488 47.188054 
L 165.746566 47.188054 
L 165.824152 45.081309 
L 166.047915 45.081309 
L 166.096483 41.921193 
L 166.165632 41.921193 
L 166.268843 39.287762 
L 166.337313 39.287762 
L 166.398707 37.181018 
L 166.459886 37.181018 
L 166.46667 35.074274 
L 166.695783 35.074274 
L 166.715855 34.020902 
L 168.300012 34.020902 
L 168.300012 31.914157 
L 169.00019 31.914157 
L 169.00019 30.860785 
L 169.285276 30.860785 
L 169.285276 30.334099 
L 338.688 30.334099 
L 338.688 30.334099 
" style="fill:none;stroke:#ff00ff;stroke-linecap:square;stroke-width:1.5;"/>
   </g>
   <g id="line2d_40">
    <defs>
     <path d="M 0 8.485281 
L 5.091169 0 
L 0 -8.485281 
L -5.091169 0 
z
" id="mec90de6034" style="stroke:#ff00ff;stroke-linejoin:miter;stroke-width:1.5;"/>
    </defs>
    <g>
     <use style="fill-opacity:0;stroke:#ff00ff;stroke-linejoin:miter;stroke-width:1.5;" x="155.514359" xlink:href="#mec90de6034" y="176.226143"/>
     <use style="fill-opacity:0;stroke:#ff00ff;stroke-linejoin:miter;stroke-width:1.5;" x="169.285276" xlink:href="#mec90de6034" y="30.860785"/>
     <use style="fill-opacity:0;stroke:#ff00ff;stroke-linejoin:miter;stroke-width:1.5;" x="169.285276" xlink:href="#mec90de6034" y="30.334099"/>
     <use style="fill-opacity:0;stroke:#ff00ff;stroke-linejoin:miter;stroke-width:1.5;" x="169.285276" xlink:href="#mec90de6034" y="30.334099"/>
     <use style="fill-opacity:0;stroke:#ff00ff;stroke-linejoin:miter;stroke-width:1.5;" x="338.688" xlink:href="#mec90de6034" y="30.334099"/>
    </g>
   </g>
   <g id="line2d_41">
    <path style="fill:none;stroke:#ff00ff;stroke-linecap:square;stroke-width:1.5;"/>
    <g/>
   </g>
   <g id="line2d_42">
    <path d="M 338.688 30.334099 
L 369.60768 293.571802 
" style="fill:none;stroke:#000080;stroke-linecap:square;stroke-width:1.5;"/>
    <g>
     <use style="fill-opacity:0;stroke:#000080;stroke-width:1.5;" x="338.688" xlink:href="#m0357584245" y="30.334099"/>
     <use style="fill-opacity:0;stroke:#000080;stroke-width:1.5;" x="369.60768" xlink:href="#m0357584245" y="293.571802"/>
    </g>
   </g>
   <g id="line2d_43">
    <path d="M 338.688 30.334099 
L 369.60768 164.63905 
" style="fill:none;stroke:#ff00ff;stroke-linecap:square;stroke-width:1.5;"/>
    <g>
     <use style="fill-opacity:0;stroke:#ff00ff;stroke-linejoin:miter;stroke-width:1.5;" x="338.688" xlink:href="#mec90de6034" y="30.334099"/>
     <use style="fill-opacity:0;stroke:#ff00ff;stroke-linejoin:miter;stroke-width:1.5;" x="369.60768" xlink:href="#mec90de6034" y="164.63905"/>
    </g>
   </g>
   <g id="line2d_44">
    <path d="M 338.688 298.944 
L 338.688 30.334099 
" style="fill:none;stroke:#000000;stroke-linecap:square;stroke-width:1.5;"/>
   </g>
   <g id="patch_3">
    <path d="M 57.6 298.944 
L 57.6 27.648 
" style="fill:none;stroke:#000000;stroke-linecap:square;stroke-linejoin:miter;stroke-width:0.8;"/>
   </g>
   <g id="patch_4">
    <path d="M 338.688 298.944 
L 338.688 27.648 
" style="fill:none;stroke:#000000;stroke-linecap:square;stroke-linejoin:miter;stroke-width:0.8;"/>
   </g>
   <g id="patch_5">
    <path d="M 57.6 298.944 
L 338.688 298.944 
" style="fill:none;stroke:#000000;stroke-linecap:square;stroke-linejoin:miter;stroke-width:0.8;"/>
   </g>
   <g id="patch_6">
    <path d="M 57.6 27.648 
L 338.688 27.648 
" style="fill:none;stroke:#000000;stroke-linecap:square;stroke-linejoin:miter;stroke-width:0.8;"/>
   </g>
   <g id="text_13">
    <!-- SHADE-LM-PO -->
    <g transform="translate(375.22944 298.262739)scale(0.17 -0.17)">
     <defs>
      <path d="M 3425 4513 
L 3425 3897 
Q 3066 4069 2747 4153 
Q 2428 4238 2131 4238 
Q 1616 4238 1336 4038 
Q 1056 3838 1056 3469 
Q 1056 3159 1242 3001 
Q 1428 2844 1947 2747 
L 2328 2669 
Q 3034 2534 3370 2195 
Q 3706 1856 3706 1288 
Q 3706 609 3251 259 
Q 2797 -91 1919 -91 
Q 1588 -91 1214 -16 
Q 841 59 441 206 
L 441 856 
Q 825 641 1194 531 
Q 1563 422 1919 422 
Q 2459 422 2753 634 
Q 3047 847 3047 1241 
Q 3047 1584 2836 1778 
Q 2625 1972 2144 2069 
L 1759 2144 
Q 1053 2284 737 2584 
Q 422 2884 422 3419 
Q 422 4038 858 4394 
Q 1294 4750 2059 4750 
Q 2388 4750 2728 4690 
Q 3069 4631 3425 4513 
z
" id="DejaVuSans-53" transform="scale(0.015625)"/>
      <path d="M 628 4666 
L 1259 4666 
L 1259 2753 
L 3553 2753 
L 3553 4666 
L 4184 4666 
L 4184 0 
L 3553 0 
L 3553 2222 
L 1259 2222 
L 1259 0 
L 628 0 
L 628 4666 
z
" id="DejaVuSans-48" transform="scale(0.015625)"/>
      <path d="M 2188 4044 
L 1331 1722 
L 3047 1722 
L 2188 4044 
z
M 1831 4666 
L 2547 4666 
L 4325 0 
L 3669 0 
L 3244 1197 
L 1141 1197 
L 716 0 
L 50 0 
L 1831 4666 
z
" id="DejaVuSans-41" transform="scale(0.015625)"/>
      <path d="M 1259 4147 
L 1259 519 
L 2022 519 
Q 2988 519 3436 956 
Q 3884 1394 3884 2338 
Q 3884 3275 3436 3711 
Q 2988 4147 2022 4147 
L 1259 4147 
z
M 628 4666 
L 1925 4666 
Q 3281 4666 3915 4102 
Q 4550 3538 4550 2338 
Q 4550 1131 3912 565 
Q 3275 0 1925 0 
L 628 0 
L 628 4666 
z
" id="DejaVuSans-44" transform="scale(0.015625)"/>
      <path d="M 628 4666 
L 3578 4666 
L 3578 4134 
L 1259 4134 
L 1259 2753 
L 3481 2753 
L 3481 2222 
L 1259 2222 
L 1259 531 
L 3634 531 
L 3634 0 
L 628 0 
L 628 4666 
z
" id="DejaVuSans-45" transform="scale(0.015625)"/>
      <path d="M 628 4666 
L 1259 4666 
L 1259 531 
L 3531 531 
L 3531 0 
L 628 0 
L 628 4666 
z
" id="DejaVuSans-4c" transform="scale(0.015625)"/>
      <path d="M 628 4666 
L 1569 4666 
L 2759 1491 
L 3956 4666 
L 4897 4666 
L 4897 0 
L 4281 0 
L 4281 4097 
L 3078 897 
L 2444 897 
L 1241 4097 
L 1241 0 
L 628 0 
L 628 4666 
z
" id="DejaVuSans-4d" transform="scale(0.015625)"/>
      <path d="M 1259 4147 
L 1259 2394 
L 2053 2394 
Q 2494 2394 2734 2622 
Q 2975 2850 2975 3272 
Q 2975 3691 2734 3919 
Q 2494 4147 2053 4147 
L 1259 4147 
z
M 628 4666 
L 2053 4666 
Q 2838 4666 3239 4311 
Q 3641 3956 3641 3272 
Q 3641 2581 3239 2228 
Q 2838 1875 2053 1875 
L 1259 1875 
L 1259 0 
L 628 0 
L 628 4666 
z
" id="DejaVuSans-50" transform="scale(0.015625)"/>
      <path d="M 2522 4238 
Q 1834 4238 1429 3725 
Q 1025 3213 1025 2328 
Q 1025 1447 1429 934 
Q 1834 422 2522 422 
Q 3209 422 3611 934 
Q 4013 1447 4013 2328 
Q 4013 3213 3611 3725 
Q 3209 4238 2522 4238 
z
M 2522 4750 
Q 3503 4750 4090 4092 
Q 4678 3434 4678 2328 
Q 4678 1225 4090 567 
Q 3503 -91 2522 -91 
Q 1538 -91 948 565 
Q 359 1222 359 2328 
Q 359 3434 948 4092 
Q 1538 4750 2522 4750 
z
" id="DejaVuSans-4f" transform="scale(0.015625)"/>
     </defs>
     <use xlink:href="#DejaVuSans-53"/>
     <use x="63.476562" xlink:href="#DejaVuSans-48"/>
     <use x="138.671875" xlink:href="#DejaVuSans-41"/>
     <use x="207.080078" xlink:href="#DejaVuSans-44"/>
     <use x="284.082031" xlink:href="#DejaVuSans-45"/>
     <use x="347.265625" xlink:href="#DejaVuSans-2d"/>
     <use x="383.349609" xlink:href="#DejaVuSans-4c"/>
     <use x="439.0625" xlink:href="#DejaVuSans-4d"/>
     <use x="525.341797" xlink:href="#DejaVuSans-2d"/>
     <use x="561.425781" xlink:href="#DejaVuSans-50"/>
     <use x="621.728516" xlink:href="#DejaVuSans-4f"/>
    </g>
   </g>
   <g id="text_14">
    <!-- SHADE-LM Ok -->
    <g transform="translate(375.22944 169.329987)scale(0.17 -0.17)">
     <defs>
      <path d="M 581 4863 
L 1159 4863 
L 1159 1991 
L 2875 3500 
L 3609 3500 
L 1753 1863 
L 3688 0 
L 2938 0 
L 1159 1709 
L 1159 0 
L 581 0 
L 581 4863 
z
" id="DejaVuSans-6b" transform="scale(0.015625)"/>
     </defs>
     <use xlink:href="#DejaVuSans-53"/>
     <use x="63.476562" xlink:href="#DejaVuSans-48"/>
     <use x="138.671875" xlink:href="#DejaVuSans-41"/>
     <use x="207.080078" xlink:href="#DejaVuSans-44"/>
     <use x="284.082031" xlink:href="#DejaVuSans-45"/>
     <use x="347.265625" xlink:href="#DejaVuSans-2d"/>
     <use x="383.349609" xlink:href="#DejaVuSans-4c"/>
     <use x="439.0625" xlink:href="#DejaVuSans-4d"/>
     <use x="525.341797" xlink:href="#DejaVuSans-20"/>
     <use x="557.128906" xlink:href="#DejaVuSans-4f"/>
     <use x="635.839844" xlink:href="#DejaVuSans-6b"/>
    </g>
   </g>
   <g id="text_15">
    <!-- best 2009 -->
    <g transform="translate(375.22944 40.397235)scale(0.17 -0.17)">
     <defs>
      <path d="M 3116 1747 
Q 3116 2381 2855 2742 
Q 2594 3103 2138 3103 
Q 1681 3103 1420 2742 
Q 1159 2381 1159 1747 
Q 1159 1113 1420 752 
Q 1681 391 2138 391 
Q 2594 391 2855 752 
Q 3116 1113 3116 1747 
z
M 1159 2969 
Q 1341 3281 1617 3432 
Q 1894 3584 2278 3584 
Q 2916 3584 3314 3078 
Q 3713 2572 3713 1747 
Q 3713 922 3314 415 
Q 2916 -91 2278 -91 
Q 1894 -91 1617 61 
Q 1341 213 1159 525 
L 1159 0 
L 581 0 
L 581 4863 
L 1159 4863 
L 1159 2969 
z
" id="DejaVuSans-62" transform="scale(0.015625)"/>
      <path d="M 703 97 
L 703 672 
Q 941 559 1184 500 
Q 1428 441 1663 441 
Q 2288 441 2617 861 
Q 2947 1281 2994 2138 
Q 2813 1869 2534 1725 
Q 2256 1581 1919 1581 
Q 1219 1581 811 2004 
Q 403 2428 403 3163 
Q 403 3881 828 4315 
Q 1253 4750 1959 4750 
Q 2769 4750 3195 4129 
Q 3622 3509 3622 2328 
Q 3622 1225 3098 567 
Q 2575 -91 1691 -91 
Q 1453 -91 1209 -44 
Q 966 3 703 97 
z
M 1959 2075 
Q 2384 2075 2632 2365 
Q 2881 2656 2881 3163 
Q 2881 3666 2632 3958 
Q 2384 4250 1959 4250 
Q 1534 4250 1286 3958 
Q 1038 3666 1038 3163 
Q 1038 2656 1286 2365 
Q 1534 2075 1959 2075 
z
" id="DejaVuSans-39" transform="scale(0.015625)"/>
     </defs>
     <use xlink:href="#DejaVuSans-62"/>
     <use x="63.476562" xlink:href="#DejaVuSans-65"/>
     <use x="125" xlink:href="#DejaVuSans-73"/>
     <use x="177.099609" xlink:href="#DejaVuSans-74"/>
     <use x="216.308594" xlink:href="#DejaVuSans-20"/>
     <use x="248.095703" xlink:href="#DejaVuSans-32"/>
     <use x="311.71875" xlink:href="#DejaVuSans-30"/>
     <use x="375.341797" xlink:href="#DejaVuSans-30"/>
     <use x="438.964844" xlink:href="#DejaVuSans-39"/>
    </g>
   </g>
   <g id="text_16">
    <!-- bbob f11, 5-D -->
    <g transform="translate(60.41088 38.111366)scale(0.102 -0.102)">
     <defs>
      <path d="M 691 4666 
L 3169 4666 
L 3169 4134 
L 1269 4134 
L 1269 2991 
Q 1406 3038 1543 3061 
Q 1681 3084 1819 3084 
Q 2600 3084 3056 2656 
Q 3513 2228 3513 1497 
Q 3513 744 3044 326 
Q 2575 -91 1722 -91 
Q 1428 -91 1123 -41 
Q 819 9 494 109 
L 494 744 
Q 775 591 1075 516 
Q 1375 441 1709 441 
Q 2250 441 2565 725 
Q 2881 1009 2881 1497 
Q 2881 1984 2565 2268 
Q 2250 2553 1709 2553 
Q 1456 2553 1204 2497 
Q 953 2441 691 2322 
L 691 4666 
z
" id="DejaVuSans-35" transform="scale(0.015625)"/>
     </defs>
     <use xlink:href="#DejaVuSans-62"/>
     <use x="63.476562" xlink:href="#DejaVuSans-62"/>
     <use x="126.953125" xlink:href="#DejaVuSans-6f"/>
     <use x="188.134766" xlink:href="#DejaVuSans-62"/>
     <use x="251.611328" xlink:href="#DejaVuSans-20"/>
     <use x="283.398438" xlink:href="#DejaVuSans-66"/>
     <use x="318.603516" xlink:href="#DejaVuSans-31"/>
     <use x="382.226562" xlink:href="#DejaVuSans-31"/>
     <use x="445.849609" xlink:href="#DejaVuSans-2c"/>
     <use x="477.636719" xlink:href="#DejaVuSans-20"/>
     <use x="509.423828" xlink:href="#DejaVuSans-35"/>
     <use x="573.046875" xlink:href="#DejaVuSans-2d"/>
     <use x="609.130859" xlink:href="#DejaVuSans-44"/>
    </g>
    <!-- 51 targets: 100..1e-08 -->
    <g transform="translate(60.41088 49.533135)scale(0.102 -0.102)">
     <defs>
      <path d="M 750 794 
L 1409 794 
L 1409 0 
L 750 0 
L 750 794 
z
M 750 3309 
L 1409 3309 
L 1409 2516 
L 750 2516 
L 750 3309 
z
" id="DejaVuSans-3a" transform="scale(0.015625)"/>
     </defs>
     <use xlink:href="#DejaVuSans-35"/>
     <use x="63.623047" xlink:href="#DejaVuSans-31"/>
     <use x="127.246094" xlink:href="#DejaVuSans-20"/>
     <use x="159.033203" xlink:href="#DejaVuSans-74"/>
     <use x="198.242188" xlink:href="#DejaVuSans-61"/>
     <use x="259.521484" xlink:href="#DejaVuSans-72"/>
     <use x="298.884766" xlink:href="#DejaVuSans-67"/>
     <use x="362.361328" xlink:href="#DejaVuSans-65"/>
     <use x="423.884766" xlink:href="#DejaVuSans-74"/>
     <use x="463.09375" xlink:href="#DejaVuSans-73"/>
     <use x="515.193359" xlink:href="#DejaVuSans-3a"/>
     <use x="548.884766" xlink:href="#DejaVuSans-20"/>
     <use x="580.671875" xlink:href="#DejaVuSans-31"/>
     <use x="644.294922" xlink:href="#DejaVuSans-30"/>
     <use x="707.917969" xlink:href="#DejaVuSans-30"/>
     <use x="771.541016" xlink:href="#DejaVuSans-2e"/>
     <use x="803.328125" xlink:href="#DejaVuSans-2e"/>
     <use x="835.115234" xlink:href="#DejaVuSans-31"/>
     <use x="898.738281" xlink:href="#DejaVuSans-65"/>
     <use x="960.261719" xlink:href="#DejaVuSans-2d"/>
     <use x="996.345703" xlink:href="#DejaVuSans-30"/>
     <use x="1059.96875" xlink:href="#DejaVuSans-38"/>
    </g>
    <!-- 15 instances -->
    <g transform="translate(60.41088 60.954904)scale(0.102 -0.102)">
     <use xlink:href="#DejaVuSans-31"/>
     <use x="63.623047" xlink:href="#DejaVuSans-35"/>
     <use x="127.246094" xlink:href="#DejaVuSans-20"/>
     <use x="159.033203" xlink:href="#DejaVuSans-69"/>
     <use x="186.816406" xlink:href="#DejaVuSans-6e"/>
     <use x="250.195312" xlink:href="#DejaVuSans-73"/>
     <use x="302.294922" xlink:href="#DejaVuSans-74"/>
     <use x="341.503906" xlink:href="#DejaVuSans-61"/>
     <use x="402.783203" xlink:href="#DejaVuSans-6e"/>
     <use x="466.162109" xlink:href="#DejaVuSans-63"/>
     <use x="521.142578" xlink:href="#DejaVuSans-65"/>
     <use x="582.666016" xlink:href="#DejaVuSans-73"/>
    </g>
   </g>
   <g id="text_17">
    <!-- v2.4.1.1 -->
    <g style="fill:#808080;" transform="translate(177.692437 294.151352)scale(0.1 -0.1)">
     <use xlink:href="#DejaVuSans-76"/>
     <use x="59.179688" xlink:href="#DejaVuSans-32"/>
     <use x="122.802734" xlink:href="#DejaVuSans-2e"/>
     <use x="154.589844" xlink:href="#DejaVuSans-34"/>
     <use x="218.212891" xlink:href="#DejaVuSans-2e"/>
     <use x="250" xlink:href="#DejaVuSans-31"/>
     <use x="313.623047" xlink:href="#DejaVuSans-2e"/>
     <use x="345.410156" xlink:href="#DejaVuSans-31"/>
    </g>
   </g>
   <g id="text_18">
    <!-- 11 Discus -->
    <g transform="translate(149.508062 21.648)scale(0.2 -0.2)">
     <use xlink:href="#DejaVuSans-31"/>
     <use x="63.623047" xlink:href="#DejaVuSans-31"/>
     <use x="127.246094" xlink:href="#DejaVuSans-20"/>
     <use x="159.033203" xlink:href="#DejaVuSans-44"/>
     <use x="236.035156" xlink:href="#DejaVuSans-69"/>
     <use x="263.818359" xlink:href="#DejaVuSans-73"/>
     <use x="315.917969" xlink:href="#DejaVuSans-63"/>
     <use x="370.898438" xlink:href="#DejaVuSans-75"/>
     <use x="434.277344" xlink:href="#DejaVuSans-73"/>
    </g>
   </g>
  </g>
 </g>
 <defs>
  <clipPath id="p3b98f8b5e6">
   <rect height="271.296" width="281.088" x="57.6" y="27.648"/>
  </clipPath>
 </defs>
</svg>
