<?xml version="1.0" encoding="utf-8" standalone="no"?>
<!DOCTYPE svg PUBLIC "-//W3C//DTD SVG 1.1//EN"
  "http://www.w3.org/Graphics/SVG/1.1/DTD/svg11.dtd">
<svg height="345.6pt" version="1.1" viewBox="0 0 460.8 345.6" width="460.8pt" xmlns="http://www.w3.org/2000/svg" xmlns:xlink="http://www.w3.org/1999/xlink">
 <metadata>
  <rdf:RDF xmlns:cc="http://creativecommons.org/ns#" xmlns:dc="http://purl.org/dc/elements/1.1/" xmlns:rdf="http://www.w3.org/1999/02/22-rdf-syntax-ns#">
   <cc:Work>
    <dc:type rdf:resource="http://purl.org/dc/dcmitype/StillImage"/>
    <dc:date>2022-03-29T11:44:51.140301</dc:date>
    <dc:format>image/svg+xml</dc:format>
    <dc:creator>
     <cc:Agent>
      <dc:title>Matplotlib v3.4.3, https://matplotlib.org/</dc:title>
     </cc:Agent>
    </dc:creator>
   </cc:Work>
  </rdf:RDF>
 </metadata>
 <defs>
  <style type="text/css">*{stroke-linecap:butt;stroke-linejoin:round;}</style>
 </defs>
 <g id="figure_1">
  <g id="patch_1">
   <path d="M 0 345.6 
L 460.8 345.6 
L 460.8 0 
L 0 0 
z
" style="fill:#ffffff;"/>
  </g>
  <g id="axes_1">
   <g id="patch_2">
    <path d="M 57.6 298.944 
L 338.688 298.944 
L 338.688 27.648 
L 57.6 27.648 
z
" style="fill:#ffffff;"/>
   </g>
   <g id="line2d_1">
    <path d="M 17.444571 298.944 
L 17.444571 293.677139 
L 67.850577 293.677139 
L 67.850577 288.410278 
L 76.759008 288.410278 
L 76.759008 283.143418 
L 83.037197 283.143418 
L 83.037197 277.876557 
L 93.197415 277.876557 
L 93.197415 272.609696 
L 97.403108 272.609696 
L 97.403108 267.342835 
L 105.398279 267.342835 
L 105.398279 262.075974 
L 129.88095 262.075974 
L 129.88095 256.809114 
L 134.279041 256.809114 
L 134.279041 251.542253 
L 156.040206 251.542253 
L 156.040206 246.275392 
L 156.107908 246.275392 
L 156.107908 241.008531 
L 169.443254 241.008531 
L 169.443254 235.74167 
L 169.724059 235.74167 
L 169.724059 230.47481 
L 169.830653 230.47481 
L 169.830653 225.207949 
L 169.878129 225.207949 
L 169.878129 219.941088 
L 170.154817 219.941088 
L 170.154817 214.674227 
L 170.2479 214.674227 
L 170.2479 209.407366 
L 170.432588 209.407366 
L 170.432588 204.140506 
L 170.559106 204.140506 
L 170.559106 198.873645 
L 170.671394 198.873645 
L 170.671394 193.606784 
L 170.872762 193.606784 
L 170.872762 188.339923 
L 170.951613 188.339923 
L 170.951613 183.073062 
L 170.990905 183.073062 
L 170.990905 177.806202 
L 171.196397 177.806202 
L 171.196397 172.539341 
L 171.309807 172.539341 
L 171.309807 167.27248 
L 171.335479 167.27248 
L 171.335479 162.005619 
L 171.534438 162.005619 
L 171.534438 156.738758 
L 171.559782 156.738758 
L 171.559782 151.471897 
L 171.577501 151.471897 
L 171.577501 146.205037 
L 171.620458 146.205037 
L 171.620458 140.938176 
L 171.655755 140.938176 
L 171.655755 135.671315 
L 171.890917 135.671315 
L 171.890917 130.404454 
L 171.920711 130.404454 
L 171.920711 125.137593 
L 172.066461 125.137593 
L 172.066461 119.870733 
L 174.789496 119.870733 
L 174.789496 114.603872 
L 174.808425 114.603872 
L 174.808425 109.337011 
L 175.006993 109.337011 
L 175.006993 104.07015 
L 175.058874 104.07015 
L 175.058874 98.803289 
L 175.081653 98.803289 
L 175.081653 93.536429 
L 175.174531 93.536429 
L 175.174531 88.269568 
L 178.534298 88.269568 
L 178.534298 83.002707 
L 178.547874 83.002707 
L 178.547874 77.735846 
L 178.578383 77.735846 
L 178.578383 72.468985 
L 178.597002 72.468985 
L 178.597002 67.202125 
L 178.624047 67.202125 
L 178.624047 61.935264 
L 178.667907 61.935264 
L 178.667907 56.668403 
L 178.679696 56.668403 
L 178.679696 51.401542 
L 183.266275 51.401542 
L 183.266275 46.134681 
L 183.310225 46.134681 
L 183.310225 40.867821 
L 183.341183 40.867821 
L 183.341183 35.60096 
L 183.572899 35.60096 
L 183.572899 30.334099 
L 338.688 30.334099 
" style="fill:none;stroke:#f5deb3;stroke-linecap:square;stroke-width:4;"/>
   </g>
   <g id="line2d_2">
    <defs>
     <path d="M 0 7.778175 
L 7.778175 0 
L 0 -7.778175 
L -7.778175 0 
z
" id="m3fe5ef8c92" style="stroke:#f5deb3;stroke-linejoin:miter;stroke-width:1.5;"/>
    </defs>
    <g>
     <use style="fill:#f5deb3;stroke:#f5deb3;stroke-linejoin:miter;stroke-width:1.5;" x="134.279041" xlink:href="#m3fe5ef8c92" y="251.542253"/>
     <use style="fill:#f5deb3;stroke:#f5deb3;stroke-linejoin:miter;stroke-width:1.5;" x="171.890917" xlink:href="#m3fe5ef8c92" y="135.671315"/>
     <use style="fill:#f5deb3;stroke:#f5deb3;stroke-linejoin:miter;stroke-width:1.5;" x="183.341183" xlink:href="#m3fe5ef8c92" y="40.867821"/>
     <use style="fill:#f5deb3;stroke:#f5deb3;stroke-linejoin:miter;stroke-width:1.5;" x="183.572899" xlink:href="#m3fe5ef8c92" y="30.334099"/>
     <use style="fill:#f5deb3;stroke:#f5deb3;stroke-linejoin:miter;stroke-width:1.5;" x="183.572899" xlink:href="#m3fe5ef8c92" y="30.334099"/>
     <use style="fill:#f5deb3;stroke:#f5deb3;stroke-linejoin:miter;stroke-width:1.5;" x="338.688" xlink:href="#m3fe5ef8c92" y="30.334099"/>
    </g>
   </g>
   <g id="line2d_3">
    <path style="fill:none;stroke:#f5deb3;stroke-linecap:square;stroke-width:4;"/>
    <g/>
   </g>
   <g id="line2d_4">
    <path d="M 338.688 30.334099 
L 369.60768 35.706297 
" style="fill:none;stroke:#f5deb3;stroke-linecap:square;stroke-width:4;"/>
    <g>
     <use style="fill:#f5deb3;stroke:#f5deb3;stroke-linejoin:miter;stroke-width:1.5;" x="338.688" xlink:href="#m3fe5ef8c92" y="30.334099"/>
     <use style="fill:#f5deb3;stroke:#f5deb3;stroke-linejoin:miter;stroke-width:1.5;" x="369.60768" xlink:href="#m3fe5ef8c92" y="35.706297"/>
    </g>
   </g>
   <g id="matplotlib.axis_1">
    <g id="xtick_1">
     <g id="line2d_5">
      <path clip-path="url(#p61ef1928f4)" d="M 57.6 298.944 
L 57.6 27.648 
" style="fill:none;stroke:#b0b0b0;stroke-linecap:square;stroke-width:0.8;"/>
     </g>
     <g id="line2d_6">
      <defs>
       <path d="M 0 0 
L 0 3.5 
" id="me3c45c2155" style="stroke:#000000;stroke-width:0.8;"/>
      </defs>
      <g>
       <use style="stroke:#000000;stroke-width:0.8;" x="57.6" xlink:href="#me3c45c2155" y="298.944"/>
      </g>
     </g>
     <g id="text_1">
      <!-- 0 -->
      <g transform="translate(51.2375 321.140875)scale(0.2 -0.2)">
       <defs>
        <path d="M 2034 4250 
Q 1547 4250 1301 3770 
Q 1056 3291 1056 2328 
Q 1056 1369 1301 889 
Q 1547 409 2034 409 
Q 2525 409 2770 889 
Q 3016 1369 3016 2328 
Q 3016 3291 2770 3770 
Q 2525 4250 2034 4250 
z
M 2034 4750 
Q 2819 4750 3233 4129 
Q 3647 3509 3647 2328 
Q 3647 1150 3233 529 
Q 2819 -91 2034 -91 
Q 1250 -91 836 529 
Q 422 1150 422 2328 
Q 422 3509 836 4129 
Q 1250 4750 2034 4750 
z
" id="DejaVuSans-30" transform="scale(0.015625)"/>
       </defs>
       <use xlink:href="#DejaVuSans-30"/>
      </g>
     </g>
    </g>
    <g id="xtick_2">
     <g id="line2d_7">
      <path clip-path="url(#p61ef1928f4)" d="M 137.910857 298.944 
L 137.910857 27.648 
" style="fill:none;stroke:#b0b0b0;stroke-linecap:square;stroke-width:0.8;"/>
     </g>
     <g id="line2d_8">
      <g>
       <use style="stroke:#000000;stroke-width:0.8;" x="137.910857" xlink:href="#me3c45c2155" y="298.944"/>
      </g>
     </g>
     <g id="text_2">
      <!-- 2 -->
      <g transform="translate(131.548357 321.140875)scale(0.2 -0.2)">
       <defs>
        <path d="M 1228 531 
L 3431 531 
L 3431 0 
L 469 0 
L 469 531 
Q 828 903 1448 1529 
Q 2069 2156 2228 2338 
Q 2531 2678 2651 2914 
Q 2772 3150 2772 3378 
Q 2772 3750 2511 3984 
Q 2250 4219 1831 4219 
Q 1534 4219 1204 4116 
Q 875 4013 500 3803 
L 500 4441 
Q 881 4594 1212 4672 
Q 1544 4750 1819 4750 
Q 2544 4750 2975 4387 
Q 3406 4025 3406 3419 
Q 3406 3131 3298 2873 
Q 3191 2616 2906 2266 
Q 2828 2175 2409 1742 
Q 1991 1309 1228 531 
z
" id="DejaVuSans-32" transform="scale(0.015625)"/>
       </defs>
       <use xlink:href="#DejaVuSans-32"/>
      </g>
     </g>
    </g>
    <g id="xtick_3">
     <g id="line2d_9">
      <path clip-path="url(#p61ef1928f4)" d="M 218.221714 298.944 
L 218.221714 27.648 
" style="fill:none;stroke:#b0b0b0;stroke-linecap:square;stroke-width:0.8;"/>
     </g>
     <g id="line2d_10">
      <g>
       <use style="stroke:#000000;stroke-width:0.8;" x="218.221714" xlink:href="#me3c45c2155" y="298.944"/>
      </g>
     </g>
     <g id="text_3">
      <!-- 4 -->
      <g transform="translate(211.859214 321.140875)scale(0.2 -0.2)">
       <defs>
        <path d="M 2419 4116 
L 825 1625 
L 2419 1625 
L 2419 4116 
z
M 2253 4666 
L 3047 4666 
L 3047 1625 
L 3713 1625 
L 3713 1100 
L 3047 1100 
L 3047 0 
L 2419 0 
L 2419 1100 
L 313 1100 
L 313 1709 
L 2253 4666 
z
" id="DejaVuSans-34" transform="scale(0.015625)"/>
       </defs>
       <use xlink:href="#DejaVuSans-34"/>
      </g>
     </g>
    </g>
    <g id="xtick_4">
     <g id="line2d_11">
      <path clip-path="url(#p61ef1928f4)" d="M 298.532571 298.944 
L 298.532571 27.648 
" style="fill:none;stroke:#b0b0b0;stroke-linecap:square;stroke-width:0.8;"/>
     </g>
     <g id="line2d_12">
      <g>
       <use style="stroke:#000000;stroke-width:0.8;" x="298.532571" xlink:href="#me3c45c2155" y="298.944"/>
      </g>
     </g>
     <g id="text_4">
      <!-- 6 -->
      <g transform="translate(292.170071 321.140875)scale(0.2 -0.2)">
       <defs>
        <path d="M 2113 2584 
Q 1688 2584 1439 2293 
Q 1191 2003 1191 1497 
Q 1191 994 1439 701 
Q 1688 409 2113 409 
Q 2538 409 2786 701 
Q 3034 994 3034 1497 
Q 3034 2003 2786 2293 
Q 2538 2584 2113 2584 
z
M 3366 4563 
L 3366 3988 
Q 3128 4100 2886 4159 
Q 2644 4219 2406 4219 
Q 1781 4219 1451 3797 
Q 1122 3375 1075 2522 
Q 1259 2794 1537 2939 
Q 1816 3084 2150 3084 
Q 2853 3084 3261 2657 
Q 3669 2231 3669 1497 
Q 3669 778 3244 343 
Q 2819 -91 2113 -91 
Q 1303 -91 875 529 
Q 447 1150 447 2328 
Q 447 3434 972 4092 
Q 1497 4750 2381 4750 
Q 2619 4750 2861 4703 
Q 3103 4656 3366 4563 
z
" id="DejaVuSans-36" transform="scale(0.015625)"/>
       </defs>
       <use xlink:href="#DejaVuSans-36"/>
      </g>
     </g>
    </g>
    <g id="xtick_5">
     <g id="line2d_13">
      <path clip-path="url(#p61ef1928f4)" d="M 97.755429 298.944 
L 97.755429 27.648 
" style="fill:none;stroke:#b0b0b0;stroke-linecap:square;stroke-width:0.8;"/>
     </g>
     <g id="line2d_14">
      <defs>
       <path d="M 0 0 
L 0 2 
" id="m38e774801d" style="stroke:#000000;stroke-width:0.6;"/>
      </defs>
      <g>
       <use style="stroke:#000000;stroke-width:0.6;" x="97.755429" xlink:href="#m38e774801d" y="298.944"/>
      </g>
     </g>
    </g>
    <g id="xtick_6">
     <g id="line2d_15">
      <path clip-path="url(#p61ef1928f4)" d="M 178.066286 298.944 
L 178.066286 27.648 
" style="fill:none;stroke:#b0b0b0;stroke-linecap:square;stroke-width:0.8;"/>
     </g>
     <g id="line2d_16">
      <g>
       <use style="stroke:#000000;stroke-width:0.6;" x="178.066286" xlink:href="#m38e774801d" y="298.944"/>
      </g>
     </g>
    </g>
    <g id="xtick_7">
     <g id="line2d_17">
      <path clip-path="url(#p61ef1928f4)" d="M 258.377143 298.944 
L 258.377143 27.648 
" style="fill:none;stroke:#b0b0b0;stroke-linecap:square;stroke-width:0.8;"/>
     </g>
     <g id="line2d_18">
      <g>
       <use style="stroke:#000000;stroke-width:0.6;" x="258.377143" xlink:href="#m38e774801d" y="298.944"/>
      </g>
     </g>
    </g>
    <g id="xtick_8">
     <g id="line2d_19">
      <path clip-path="url(#p61ef1928f4)" d="M 338.688 298.944 
L 338.688 27.648 
" style="fill:none;stroke:#b0b0b0;stroke-linecap:square;stroke-width:0.8;"/>
     </g>
     <g id="line2d_20">
      <g>
       <use style="stroke:#000000;stroke-width:0.6;" x="338.688" xlink:href="#m38e774801d" y="298.944"/>
      </g>
     </g>
    </g>
    <g id="text_5">
     <!-- log10(# f-evals / dimension) -->
     <g transform="translate(77.764078 342.217594)scale(0.17 -0.17)">
      <defs>
       <path d="M 603 4863 
L 1178 4863 
L 1178 0 
L 603 0 
L 603 4863 
z
" id="DejaVuSans-6c" transform="scale(0.015625)"/>
       <path d="M 1959 3097 
Q 1497 3097 1228 2736 
Q 959 2375 959 1747 
Q 959 1119 1226 758 
Q 1494 397 1959 397 
Q 2419 397 2687 759 
Q 2956 1122 2956 1747 
Q 2956 2369 2687 2733 
Q 2419 3097 1959 3097 
z
M 1959 3584 
Q 2709 3584 3137 3096 
Q 3566 2609 3566 1747 
Q 3566 888 3137 398 
Q 2709 -91 1959 -91 
Q 1206 -91 779 398 
Q 353 888 353 1747 
Q 353 2609 779 3096 
Q 1206 3584 1959 3584 
z
" id="DejaVuSans-6f" transform="scale(0.015625)"/>
       <path d="M 2906 1791 
Q 2906 2416 2648 2759 
Q 2391 3103 1925 3103 
Q 1463 3103 1205 2759 
Q 947 2416 947 1791 
Q 947 1169 1205 825 
Q 1463 481 1925 481 
Q 2391 481 2648 825 
Q 2906 1169 2906 1791 
z
M 3481 434 
Q 3481 -459 3084 -895 
Q 2688 -1331 1869 -1331 
Q 1566 -1331 1297 -1286 
Q 1028 -1241 775 -1147 
L 775 -588 
Q 1028 -725 1275 -790 
Q 1522 -856 1778 -856 
Q 2344 -856 2625 -561 
Q 2906 -266 2906 331 
L 2906 616 
Q 2728 306 2450 153 
Q 2172 0 1784 0 
Q 1141 0 747 490 
Q 353 981 353 1791 
Q 353 2603 747 3093 
Q 1141 3584 1784 3584 
Q 2172 3584 2450 3431 
Q 2728 3278 2906 2969 
L 2906 3500 
L 3481 3500 
L 3481 434 
z
" id="DejaVuSans-67" transform="scale(0.015625)"/>
       <path d="M 794 531 
L 1825 531 
L 1825 4091 
L 703 3866 
L 703 4441 
L 1819 4666 
L 2450 4666 
L 2450 531 
L 3481 531 
L 3481 0 
L 794 0 
L 794 531 
z
" id="DejaVuSans-31" transform="scale(0.015625)"/>
       <path d="M 1984 4856 
Q 1566 4138 1362 3434 
Q 1159 2731 1159 2009 
Q 1159 1288 1364 580 
Q 1569 -128 1984 -844 
L 1484 -844 
Q 1016 -109 783 600 
Q 550 1309 550 2009 
Q 550 2706 781 3412 
Q 1013 4119 1484 4856 
L 1984 4856 
z
" id="DejaVuSans-28" transform="scale(0.015625)"/>
       <path d="M 3272 2816 
L 2363 2816 
L 2100 1772 
L 3016 1772 
L 3272 2816 
z
M 2803 4594 
L 2478 3297 
L 3391 3297 
L 3719 4594 
L 4219 4594 
L 3897 3297 
L 4872 3297 
L 4872 2816 
L 3775 2816 
L 3519 1772 
L 4513 1772 
L 4513 1294 
L 3397 1294 
L 3072 0 
L 2572 0 
L 2894 1294 
L 1978 1294 
L 1656 0 
L 1153 0 
L 1478 1294 
L 494 1294 
L 494 1772 
L 1594 1772 
L 1856 2816 
L 850 2816 
L 850 3297 
L 1978 3297 
L 2297 4594 
L 2803 4594 
z
" id="DejaVuSans-23" transform="scale(0.015625)"/>
       <path id="DejaVuSans-20" transform="scale(0.015625)"/>
       <path d="M 2375 4863 
L 2375 4384 
L 1825 4384 
Q 1516 4384 1395 4259 
Q 1275 4134 1275 3809 
L 1275 3500 
L 2222 3500 
L 2222 3053 
L 1275 3053 
L 1275 0 
L 697 0 
L 697 3053 
L 147 3053 
L 147 3500 
L 697 3500 
L 697 3744 
Q 697 4328 969 4595 
Q 1241 4863 1831 4863 
L 2375 4863 
z
" id="DejaVuSans-66" transform="scale(0.015625)"/>
       <path d="M 313 2009 
L 1997 2009 
L 1997 1497 
L 313 1497 
L 313 2009 
z
" id="DejaVuSans-2d" transform="scale(0.015625)"/>
       <path d="M 3597 1894 
L 3597 1613 
L 953 1613 
Q 991 1019 1311 708 
Q 1631 397 2203 397 
Q 2534 397 2845 478 
Q 3156 559 3463 722 
L 3463 178 
Q 3153 47 2828 -22 
Q 2503 -91 2169 -91 
Q 1331 -91 842 396 
Q 353 884 353 1716 
Q 353 2575 817 3079 
Q 1281 3584 2069 3584 
Q 2775 3584 3186 3129 
Q 3597 2675 3597 1894 
z
M 3022 2063 
Q 3016 2534 2758 2815 
Q 2500 3097 2075 3097 
Q 1594 3097 1305 2825 
Q 1016 2553 972 2059 
L 3022 2063 
z
" id="DejaVuSans-65" transform="scale(0.015625)"/>
       <path d="M 191 3500 
L 800 3500 
L 1894 563 
L 2988 3500 
L 3597 3500 
L 2284 0 
L 1503 0 
L 191 3500 
z
" id="DejaVuSans-76" transform="scale(0.015625)"/>
       <path d="M 2194 1759 
Q 1497 1759 1228 1600 
Q 959 1441 959 1056 
Q 959 750 1161 570 
Q 1363 391 1709 391 
Q 2188 391 2477 730 
Q 2766 1069 2766 1631 
L 2766 1759 
L 2194 1759 
z
M 3341 1997 
L 3341 0 
L 2766 0 
L 2766 531 
Q 2569 213 2275 61 
Q 1981 -91 1556 -91 
Q 1019 -91 701 211 
Q 384 513 384 1019 
Q 384 1609 779 1909 
Q 1175 2209 1959 2209 
L 2766 2209 
L 2766 2266 
Q 2766 2663 2505 2880 
Q 2244 3097 1772 3097 
Q 1472 3097 1187 3025 
Q 903 2953 641 2809 
L 641 3341 
Q 956 3463 1253 3523 
Q 1550 3584 1831 3584 
Q 2591 3584 2966 3190 
Q 3341 2797 3341 1997 
z
" id="DejaVuSans-61" transform="scale(0.015625)"/>
       <path d="M 2834 3397 
L 2834 2853 
Q 2591 2978 2328 3040 
Q 2066 3103 1784 3103 
Q 1356 3103 1142 2972 
Q 928 2841 928 2578 
Q 928 2378 1081 2264 
Q 1234 2150 1697 2047 
L 1894 2003 
Q 2506 1872 2764 1633 
Q 3022 1394 3022 966 
Q 3022 478 2636 193 
Q 2250 -91 1575 -91 
Q 1294 -91 989 -36 
Q 684 19 347 128 
L 347 722 
Q 666 556 975 473 
Q 1284 391 1588 391 
Q 1994 391 2212 530 
Q 2431 669 2431 922 
Q 2431 1156 2273 1281 
Q 2116 1406 1581 1522 
L 1381 1569 
Q 847 1681 609 1914 
Q 372 2147 372 2553 
Q 372 3047 722 3315 
Q 1072 3584 1716 3584 
Q 2034 3584 2315 3537 
Q 2597 3491 2834 3397 
z
" id="DejaVuSans-73" transform="scale(0.015625)"/>
       <path d="M 1625 4666 
L 2156 4666 
L 531 -594 
L 0 -594 
L 1625 4666 
z
" id="DejaVuSans-2f" transform="scale(0.015625)"/>
       <path d="M 2906 2969 
L 2906 4863 
L 3481 4863 
L 3481 0 
L 2906 0 
L 2906 525 
Q 2725 213 2448 61 
Q 2172 -91 1784 -91 
Q 1150 -91 751 415 
Q 353 922 353 1747 
Q 353 2572 751 3078 
Q 1150 3584 1784 3584 
Q 2172 3584 2448 3432 
Q 2725 3281 2906 2969 
z
M 947 1747 
Q 947 1113 1208 752 
Q 1469 391 1925 391 
Q 2381 391 2643 752 
Q 2906 1113 2906 1747 
Q 2906 2381 2643 2742 
Q 2381 3103 1925 3103 
Q 1469 3103 1208 2742 
Q 947 2381 947 1747 
z
" id="DejaVuSans-64" transform="scale(0.015625)"/>
       <path d="M 603 3500 
L 1178 3500 
L 1178 0 
L 603 0 
L 603 3500 
z
M 603 4863 
L 1178 4863 
L 1178 4134 
L 603 4134 
L 603 4863 
z
" id="DejaVuSans-69" transform="scale(0.015625)"/>
       <path d="M 3328 2828 
Q 3544 3216 3844 3400 
Q 4144 3584 4550 3584 
Q 5097 3584 5394 3201 
Q 5691 2819 5691 2113 
L 5691 0 
L 5113 0 
L 5113 2094 
Q 5113 2597 4934 2840 
Q 4756 3084 4391 3084 
Q 3944 3084 3684 2787 
Q 3425 2491 3425 1978 
L 3425 0 
L 2847 0 
L 2847 2094 
Q 2847 2600 2669 2842 
Q 2491 3084 2119 3084 
Q 1678 3084 1418 2786 
Q 1159 2488 1159 1978 
L 1159 0 
L 581 0 
L 581 3500 
L 1159 3500 
L 1159 2956 
Q 1356 3278 1631 3431 
Q 1906 3584 2284 3584 
Q 2666 3584 2933 3390 
Q 3200 3197 3328 2828 
z
" id="DejaVuSans-6d" transform="scale(0.015625)"/>
       <path d="M 3513 2113 
L 3513 0 
L 2938 0 
L 2938 2094 
Q 2938 2591 2744 2837 
Q 2550 3084 2163 3084 
Q 1697 3084 1428 2787 
Q 1159 2491 1159 1978 
L 1159 0 
L 581 0 
L 581 3500 
L 1159 3500 
L 1159 2956 
Q 1366 3272 1645 3428 
Q 1925 3584 2291 3584 
Q 2894 3584 3203 3211 
Q 3513 2838 3513 2113 
z
" id="DejaVuSans-6e" transform="scale(0.015625)"/>
       <path d="M 513 4856 
L 1013 4856 
Q 1481 4119 1714 3412 
Q 1947 2706 1947 2009 
Q 1947 1309 1714 600 
Q 1481 -109 1013 -844 
L 513 -844 
Q 928 -128 1133 580 
Q 1338 1288 1338 2009 
Q 1338 2731 1133 3434 
Q 928 4138 513 4856 
z
" id="DejaVuSans-29" transform="scale(0.015625)"/>
      </defs>
      <use xlink:href="#DejaVuSans-6c"/>
      <use x="27.783203" xlink:href="#DejaVuSans-6f"/>
      <use x="88.964844" xlink:href="#DejaVuSans-67"/>
      <use x="152.441406" xlink:href="#DejaVuSans-31"/>
      <use x="216.064453" xlink:href="#DejaVuSans-30"/>
      <use x="279.6875" xlink:href="#DejaVuSans-28"/>
      <use x="318.701172" xlink:href="#DejaVuSans-23"/>
      <use x="402.490234" xlink:href="#DejaVuSans-20"/>
      <use x="434.277344" xlink:href="#DejaVuSans-66"/>
      <use x="463.982422" xlink:href="#DejaVuSans-2d"/>
      <use x="500.066406" xlink:href="#DejaVuSans-65"/>
      <use x="561.589844" xlink:href="#DejaVuSans-76"/>
      <use x="620.769531" xlink:href="#DejaVuSans-61"/>
      <use x="682.048828" xlink:href="#DejaVuSans-6c"/>
      <use x="709.832031" xlink:href="#DejaVuSans-73"/>
      <use x="761.931641" xlink:href="#DejaVuSans-20"/>
      <use x="793.71875" xlink:href="#DejaVuSans-2f"/>
      <use x="827.410156" xlink:href="#DejaVuSans-20"/>
      <use x="859.197266" xlink:href="#DejaVuSans-64"/>
      <use x="922.673828" xlink:href="#DejaVuSans-69"/>
      <use x="950.457031" xlink:href="#DejaVuSans-6d"/>
      <use x="1047.869141" xlink:href="#DejaVuSans-65"/>
      <use x="1109.392578" xlink:href="#DejaVuSans-6e"/>
      <use x="1172.771484" xlink:href="#DejaVuSans-73"/>
      <use x="1224.871094" xlink:href="#DejaVuSans-69"/>
      <use x="1252.654297" xlink:href="#DejaVuSans-6f"/>
      <use x="1313.835938" xlink:href="#DejaVuSans-6e"/>
      <use x="1377.214844" xlink:href="#DejaVuSans-29"/>
     </g>
    </g>
   </g>
   <g id="matplotlib.axis_2">
    <g id="ytick_1">
     <g id="line2d_21">
      <path clip-path="url(#p61ef1928f4)" d="M 57.6 298.944 
L 338.688 298.944 
" style="fill:none;stroke:#b0b0b0;stroke-linecap:square;stroke-width:0.8;"/>
     </g>
     <g id="line2d_22">
      <defs>
       <path d="M 0 0 
L -3.5 0 
" id="mea2ddfe0ed" style="stroke:#000000;stroke-width:0.8;"/>
      </defs>
      <g>
       <use style="stroke:#000000;stroke-width:0.8;" x="57.6" xlink:href="#mea2ddfe0ed" y="298.944"/>
      </g>
     </g>
     <g id="text_6">
      <!-- 0.0 -->
      <g transform="translate(25.155 305.02275)scale(0.16 -0.16)">
       <defs>
        <path d="M 684 794 
L 1344 794 
L 1344 0 
L 684 0 
L 684 794 
z
" id="DejaVuSans-2e" transform="scale(0.015625)"/>
       </defs>
       <use xlink:href="#DejaVuSans-30"/>
       <use x="63.623047" xlink:href="#DejaVuSans-2e"/>
       <use x="95.410156" xlink:href="#DejaVuSans-30"/>
      </g>
     </g>
    </g>
    <g id="ytick_2">
     <g id="line2d_23">
      <path clip-path="url(#p61ef1928f4)" d="M 57.6 245.22202 
L 338.688 245.22202 
" style="fill:none;stroke:#b0b0b0;stroke-linecap:square;stroke-width:0.8;"/>
     </g>
     <g id="line2d_24">
      <g>
       <use style="stroke:#000000;stroke-width:0.8;" x="57.6" xlink:href="#mea2ddfe0ed" y="245.22202"/>
      </g>
     </g>
     <g id="text_7">
      <!-- 0.2 -->
      <g transform="translate(25.155 251.30077)scale(0.16 -0.16)">
       <use xlink:href="#DejaVuSans-30"/>
       <use x="63.623047" xlink:href="#DejaVuSans-2e"/>
       <use x="95.410156" xlink:href="#DejaVuSans-32"/>
      </g>
     </g>
    </g>
    <g id="ytick_3">
     <g id="line2d_25">
      <path clip-path="url(#p61ef1928f4)" d="M 57.6 191.50004 
L 338.688 191.50004 
" style="fill:none;stroke:#b0b0b0;stroke-linecap:square;stroke-width:0.8;"/>
     </g>
     <g id="line2d_26">
      <g>
       <use style="stroke:#000000;stroke-width:0.8;" x="57.6" xlink:href="#mea2ddfe0ed" y="191.50004"/>
      </g>
     </g>
     <g id="text_8">
      <!-- 0.4 -->
      <g transform="translate(25.155 197.57879)scale(0.16 -0.16)">
       <use xlink:href="#DejaVuSans-30"/>
       <use x="63.623047" xlink:href="#DejaVuSans-2e"/>
       <use x="95.410156" xlink:href="#DejaVuSans-34"/>
      </g>
     </g>
    </g>
    <g id="ytick_4">
     <g id="line2d_27">
      <path clip-path="url(#p61ef1928f4)" d="M 57.6 137.778059 
L 338.688 137.778059 
" style="fill:none;stroke:#b0b0b0;stroke-linecap:square;stroke-width:0.8;"/>
     </g>
     <g id="line2d_28">
      <g>
       <use style="stroke:#000000;stroke-width:0.8;" x="57.6" xlink:href="#mea2ddfe0ed" y="137.778059"/>
      </g>
     </g>
     <g id="text_9">
      <!-- 0.6 -->
      <g transform="translate(25.155 143.856809)scale(0.16 -0.16)">
       <use xlink:href="#DejaVuSans-30"/>
       <use x="63.623047" xlink:href="#DejaVuSans-2e"/>
       <use x="95.410156" xlink:href="#DejaVuSans-36"/>
      </g>
     </g>
    </g>
    <g id="ytick_5">
     <g id="line2d_29">
      <path clip-path="url(#p61ef1928f4)" d="M 57.6 84.056079 
L 338.688 84.056079 
" style="fill:none;stroke:#b0b0b0;stroke-linecap:square;stroke-width:0.8;"/>
     </g>
     <g id="line2d_30">
      <g>
       <use style="stroke:#000000;stroke-width:0.8;" x="57.6" xlink:href="#mea2ddfe0ed" y="84.056079"/>
      </g>
     </g>
     <g id="text_10">
      <!-- 0.8 -->
      <g transform="translate(25.155 90.134829)scale(0.16 -0.16)">
       <defs>
        <path d="M 2034 2216 
Q 1584 2216 1326 1975 
Q 1069 1734 1069 1313 
Q 1069 891 1326 650 
Q 1584 409 2034 409 
Q 2484 409 2743 651 
Q 3003 894 3003 1313 
Q 3003 1734 2745 1975 
Q 2488 2216 2034 2216 
z
M 1403 2484 
Q 997 2584 770 2862 
Q 544 3141 544 3541 
Q 544 4100 942 4425 
Q 1341 4750 2034 4750 
Q 2731 4750 3128 4425 
Q 3525 4100 3525 3541 
Q 3525 3141 3298 2862 
Q 3072 2584 2669 2484 
Q 3125 2378 3379 2068 
Q 3634 1759 3634 1313 
Q 3634 634 3220 271 
Q 2806 -91 2034 -91 
Q 1263 -91 848 271 
Q 434 634 434 1313 
Q 434 1759 690 2068 
Q 947 2378 1403 2484 
z
M 1172 3481 
Q 1172 3119 1398 2916 
Q 1625 2713 2034 2713 
Q 2441 2713 2670 2916 
Q 2900 3119 2900 3481 
Q 2900 3844 2670 4047 
Q 2441 4250 2034 4250 
Q 1625 4250 1398 4047 
Q 1172 3844 1172 3481 
z
" id="DejaVuSans-38" transform="scale(0.015625)"/>
       </defs>
       <use xlink:href="#DejaVuSans-30"/>
       <use x="63.623047" xlink:href="#DejaVuSans-2e"/>
       <use x="95.410156" xlink:href="#DejaVuSans-38"/>
      </g>
     </g>
    </g>
    <g id="ytick_6">
     <g id="line2d_31">
      <path clip-path="url(#p61ef1928f4)" d="M 57.6 30.334099 
L 338.688 30.334099 
" style="fill:none;stroke:#b0b0b0;stroke-linecap:square;stroke-width:0.8;"/>
     </g>
     <g id="line2d_32">
      <g>
       <use style="stroke:#000000;stroke-width:0.8;" x="57.6" xlink:href="#mea2ddfe0ed" y="30.334099"/>
      </g>
     </g>
     <g id="text_11">
      <!-- 1.0 -->
      <g transform="translate(25.155 36.412849)scale(0.16 -0.16)">
       <use xlink:href="#DejaVuSans-31"/>
       <use x="63.623047" xlink:href="#DejaVuSans-2e"/>
       <use x="95.410156" xlink:href="#DejaVuSans-30"/>
      </g>
     </g>
    </g>
    <g id="text_12">
     <!-- Fraction of function,target pairs -->
     <g transform="translate(17.619531 297.681)rotate(-90)scale(0.17 -0.17)">
      <defs>
       <path d="M 628 4666 
L 3309 4666 
L 3309 4134 
L 1259 4134 
L 1259 2759 
L 3109 2759 
L 3109 2228 
L 1259 2228 
L 1259 0 
L 628 0 
L 628 4666 
z
" id="DejaVuSans-46" transform="scale(0.015625)"/>
       <path d="M 2631 2963 
Q 2534 3019 2420 3045 
Q 2306 3072 2169 3072 
Q 1681 3072 1420 2755 
Q 1159 2438 1159 1844 
L 1159 0 
L 581 0 
L 581 3500 
L 1159 3500 
L 1159 2956 
Q 1341 3275 1631 3429 
Q 1922 3584 2338 3584 
Q 2397 3584 2469 3576 
Q 2541 3569 2628 3553 
L 2631 2963 
z
" id="DejaVuSans-72" transform="scale(0.015625)"/>
       <path d="M 3122 3366 
L 3122 2828 
Q 2878 2963 2633 3030 
Q 2388 3097 2138 3097 
Q 1578 3097 1268 2742 
Q 959 2388 959 1747 
Q 959 1106 1268 751 
Q 1578 397 2138 397 
Q 2388 397 2633 464 
Q 2878 531 3122 666 
L 3122 134 
Q 2881 22 2623 -34 
Q 2366 -91 2075 -91 
Q 1284 -91 818 406 
Q 353 903 353 1747 
Q 353 2603 823 3093 
Q 1294 3584 2113 3584 
Q 2378 3584 2631 3529 
Q 2884 3475 3122 3366 
z
" id="DejaVuSans-63" transform="scale(0.015625)"/>
       <path d="M 1172 4494 
L 1172 3500 
L 2356 3500 
L 2356 3053 
L 1172 3053 
L 1172 1153 
Q 1172 725 1289 603 
Q 1406 481 1766 481 
L 2356 481 
L 2356 0 
L 1766 0 
Q 1100 0 847 248 
Q 594 497 594 1153 
L 594 3053 
L 172 3053 
L 172 3500 
L 594 3500 
L 594 4494 
L 1172 4494 
z
" id="DejaVuSans-74" transform="scale(0.015625)"/>
       <path d="M 544 1381 
L 544 3500 
L 1119 3500 
L 1119 1403 
Q 1119 906 1312 657 
Q 1506 409 1894 409 
Q 2359 409 2629 706 
Q 2900 1003 2900 1516 
L 2900 3500 
L 3475 3500 
L 3475 0 
L 2900 0 
L 2900 538 
Q 2691 219 2414 64 
Q 2138 -91 1772 -91 
Q 1169 -91 856 284 
Q 544 659 544 1381 
z
M 1991 3584 
L 1991 3584 
z
" id="DejaVuSans-75" transform="scale(0.015625)"/>
       <path d="M 750 794 
L 1409 794 
L 1409 256 
L 897 -744 
L 494 -744 
L 750 256 
L 750 794 
z
" id="DejaVuSans-2c" transform="scale(0.015625)"/>
       <path d="M 1159 525 
L 1159 -1331 
L 581 -1331 
L 581 3500 
L 1159 3500 
L 1159 2969 
Q 1341 3281 1617 3432 
Q 1894 3584 2278 3584 
Q 2916 3584 3314 3078 
Q 3713 2572 3713 1747 
Q 3713 922 3314 415 
Q 2916 -91 2278 -91 
Q 1894 -91 1617 61 
Q 1341 213 1159 525 
z
M 3116 1747 
Q 3116 2381 2855 2742 
Q 2594 3103 2138 3103 
Q 1681 3103 1420 2742 
Q 1159 2381 1159 1747 
Q 1159 1113 1420 752 
Q 1681 391 2138 391 
Q 2594 391 2855 752 
Q 3116 1113 3116 1747 
z
" id="DejaVuSans-70" transform="scale(0.015625)"/>
      </defs>
      <use xlink:href="#DejaVuSans-46"/>
      <use x="50.269531" xlink:href="#DejaVuSans-72"/>
      <use x="91.382812" xlink:href="#DejaVuSans-61"/>
      <use x="152.662109" xlink:href="#DejaVuSans-63"/>
      <use x="207.642578" xlink:href="#DejaVuSans-74"/>
      <use x="246.851562" xlink:href="#DejaVuSans-69"/>
      <use x="274.634766" xlink:href="#DejaVuSans-6f"/>
      <use x="335.816406" xlink:href="#DejaVuSans-6e"/>
      <use x="399.195312" xlink:href="#DejaVuSans-20"/>
      <use x="430.982422" xlink:href="#DejaVuSans-6f"/>
      <use x="492.164062" xlink:href="#DejaVuSans-66"/>
      <use x="527.369141" xlink:href="#DejaVuSans-20"/>
      <use x="559.15625" xlink:href="#DejaVuSans-66"/>
      <use x="594.361328" xlink:href="#DejaVuSans-75"/>
      <use x="657.740234" xlink:href="#DejaVuSans-6e"/>
      <use x="721.119141" xlink:href="#DejaVuSans-63"/>
      <use x="776.099609" xlink:href="#DejaVuSans-74"/>
      <use x="815.308594" xlink:href="#DejaVuSans-69"/>
      <use x="843.091797" xlink:href="#DejaVuSans-6f"/>
      <use x="904.273438" xlink:href="#DejaVuSans-6e"/>
      <use x="967.652344" xlink:href="#DejaVuSans-2c"/>
      <use x="999.439453" xlink:href="#DejaVuSans-74"/>
      <use x="1038.648438" xlink:href="#DejaVuSans-61"/>
      <use x="1099.927734" xlink:href="#DejaVuSans-72"/>
      <use x="1139.291016" xlink:href="#DejaVuSans-67"/>
      <use x="1202.767578" xlink:href="#DejaVuSans-65"/>
      <use x="1264.291016" xlink:href="#DejaVuSans-74"/>
      <use x="1303.5" xlink:href="#DejaVuSans-20"/>
      <use x="1335.287109" xlink:href="#DejaVuSans-70"/>
      <use x="1398.763672" xlink:href="#DejaVuSans-61"/>
      <use x="1460.042969" xlink:href="#DejaVuSans-69"/>
      <use x="1487.826172" xlink:href="#DejaVuSans-72"/>
      <use x="1528.939453" xlink:href="#DejaVuSans-73"/>
     </g>
    </g>
   </g>
   <g id="line2d_33">
    <defs>
     <path d="M 0 1.5 
C 0.397805 1.5 0.77937 1.341951 1.06066 1.06066 
C 1.341951 0.77937 1.5 0.397805 1.5 0 
C 1.5 -0.397805 1.341951 -0.77937 1.06066 -1.06066 
C 0.77937 -1.341951 0.397805 -1.5 0 -1.5 
C -0.397805 -1.5 -0.77937 -1.341951 -1.06066 -1.06066 
C -1.341951 -0.77937 -1.5 -0.397805 -1.5 0 
C -1.5 0.397805 -1.341951 0.77937 -1.06066 1.06066 
C -0.77937 1.341951 -0.397805 1.5 0 1.5 
z
" id="m16e28fb9bb" style="stroke:#f5deb3;"/>
    </defs>
    <g>
     <use style="fill:#f5deb3;stroke:#f5deb3;" x="183.572899" xlink:href="#m16e28fb9bb" y="30.334099"/>
     <use style="fill:#f5deb3;stroke:#f5deb3;" x="183.572899" xlink:href="#m16e28fb9bb" y="30.334099"/>
    </g>
   </g>
   <g id="line2d_34">
    <defs>
     <path d="M 0 1.5 
C 0.397805 1.5 0.77937 1.341951 1.06066 1.06066 
C 1.341951 0.77937 1.5 0.397805 1.5 0 
C 1.5 -0.397805 1.341951 -0.77937 1.06066 -1.06066 
C 0.77937 -1.341951 0.397805 -1.5 0 -1.5 
C -0.397805 -1.5 -0.77937 -1.341951 -1.06066 -1.06066 
C -1.341951 -0.77937 -1.5 -0.397805 -1.5 0 
C -1.5 0.397805 -1.341951 0.77937 -1.06066 1.06066 
C -0.77937 1.341951 -0.397805 1.5 0 1.5 
z
" id="m925ee8604c" style="stroke:#000080;"/>
    </defs>
    <g>
     <use style="fill:#000080;stroke:#000080;" x="269.847849" xlink:href="#m925ee8604c" y="30.334099"/>
     <use style="fill:#000080;stroke:#000080;" x="269.847849" xlink:href="#m925ee8604c" y="30.334099"/>
    </g>
   </g>
   <g id="line2d_35">
    <path d="M 17.444571 298.944 
L 17.444571 293.677139 
L 48.691568 293.677139 
L 48.691568 293.150453 
L 65.796525 293.150453 
L 65.796525 292.623767 
L 90.771388 292.623767 
L 90.771388 292.097081 
L 91.782644 292.097081 
L 91.782644 291.570395 
L 97.580158 291.570395 
L 97.580158 291.043709 
L 100.641881 291.043709 
L 100.641881 290.517023 
L 102.728744 290.517023 
L 102.728744 289.990337 
L 104.592361 289.990337 
L 104.592361 289.463651 
L 106.593963 289.463651 
L 106.593963 288.936964 
L 110.77713 288.936964 
L 110.77713 288.410278 
L 110.941652 288.410278 
L 110.941652 287.883592 
L 111.663381 287.883592 
L 111.663381 287.356906 
L 112.655818 287.356906 
L 112.655818 286.83022 
L 113.311233 286.83022 
L 113.382559 285.776848 
L 114.080224 285.776848 
L 114.080224 285.250162 
L 114.284194 285.250162 
L 114.284194 284.723476 
L 114.485807 284.723476 
L 114.485807 284.19679 
L 115.586238 284.19679 
L 115.586238 283.670104 
L 115.958621 283.670104 
L 115.958621 283.143418 
L 116.081002 283.143418 
L 116.081002 282.616732 
L 117.145424 282.616732 
L 117.145424 282.090045 
L 117.259781 282.090045 
L 117.259781 281.036673 
L 118.786692 281.036673 
L 118.838828 279.983301 
L 119.045825 279.983301 
L 119.045825 278.403243 
L 119.702083 278.403243 
L 119.702083 277.349871 
L 119.948058 277.349871 
L 119.948058 276.823185 
L 120.898662 276.823185 
L 120.898662 276.296499 
L 121.219499 276.296499 
L 121.219499 275.769812 
L 123.192626 275.769812 
L 123.192626 275.243126 
L 123.474235 275.243126 
L 123.474235 274.71644 
L 123.751369 274.71644 
L 123.751369 273.663068 
L 125.001625 273.663068 
L 125.001625 273.136382 
L 126.937471 273.136382 
L 126.937471 272.609696 
L 127.674226 272.609696 
L 127.736845 271.556324 
L 128.944197 271.556324 
L 128.944197 271.029638 
L 129.175952 271.029638 
L 129.175952 270.502952 
L 129.347769 270.502952 
L 129.347769 269.976266 
L 130.926816 269.976266 
L 131.030622 268.922893 
L 131.082294 268.922893 
L 131.082294 268.396207 
L 131.913493 268.396207 
L 131.913493 267.869521 
L 132.494049 267.869521 
L 132.494049 267.342835 
L 133.307488 267.342835 
L 133.307488 266.816149 
L 134.236034 266.816149 
L 134.236034 266.289463 
L 134.364738 266.289463 
L 134.364738 265.762777 
L 134.577155 265.762777 
L 134.577155 265.236091 
L 135.917737 265.236091 
L 136.015217 264.182719 
L 136.380754 264.182719 
L 136.380754 263.656033 
L 136.645276 263.656033 
L 136.645276 263.129347 
L 137.61184 263.129347 
L 137.61184 262.60266 
L 139.333553 262.60266 
L 139.333553 262.075974 
L 139.604677 262.075974 
L 139.604677 261.549288 
L 141.732423 261.549288 
L 141.732423 261.022602 
L 142.106582 261.022602 
L 142.106582 260.495916 
L 143.540394 260.495916 
L 143.540394 259.96923 
L 148.382858 259.96923 
L 148.382858 259.442544 
L 150.454969 259.442544 
L 150.454969 258.915858 
L 150.791483 258.915858 
L 150.791483 258.389172 
L 152.466496 258.389172 
L 152.466496 257.862486 
L 153.308709 257.862486 
L 153.308709 257.3358 
L 154.029268 257.3358 
L 154.029268 256.809114 
L 155.004911 256.809114 
L 155.004911 256.282427 
L 158.983842 256.282427 
L 158.983842 255.755741 
L 160.793103 255.755741 
L 160.793103 255.229055 
L 161.095674 255.229055 
L 161.095674 254.702369 
L 161.379469 254.702369 
L 161.379469 254.175683 
L 161.783382 254.175683 
L 161.783382 253.648997 
L 164.140886 253.648997 
L 164.140886 252.595625 
L 164.917777 252.595625 
L 164.921483 251.542253 
L 165.586783 251.542253 
L 165.618857 249.962195 
L 165.897891 249.962195 
L 165.918903 248.908822 
L 166.086087 248.908822 
L 166.162181 247.85545 
L 166.672336 247.85545 
L 166.672336 247.328764 
L 166.875605 247.328764 
L 166.875605 246.802078 
L 167.627751 246.802078 
L 167.627751 246.275392 
L 167.769958 246.275392 
L 167.769958 245.748706 
L 167.960895 245.748706 
L 167.960895 245.22202 
L 169.936599 245.22202 
L 169.936599 244.695334 
L 171.447991 244.695334 
L 171.447991 243.641962 
L 171.861073 243.641962 
L 171.861073 243.115275 
L 172.086131 243.115275 
L 172.086131 242.588589 
L 177.204779 242.588589 
L 177.204779 241.008531 
L 181.390568 241.008531 
L 181.390568 240.481845 
L 182.845778 240.481845 
L 182.845778 239.955159 
L 182.984443 239.955159 
L 182.984443 239.428473 
L 187.268693 239.428473 
L 187.268693 238.901787 
L 188.413479 238.901787 
L 188.413479 238.375101 
L 189.153882 238.375101 
L 189.153882 237.321729 
L 189.393251 237.321729 
L 189.393251 236.795043 
L 189.73152 236.795043 
L 189.83662 234.688298 
L 190.411343 234.688298 
L 190.504746 233.10824 
L 190.594251 233.10824 
L 190.684144 232.054868 
L 190.724699 232.054868 
L 190.724699 230.47481 
L 191.164683 230.47481 
L 191.164683 227.841379 
L 191.422793 227.841379 
L 191.518205 226.261321 
L 191.643547 226.261321 
L 191.666748 225.207949 
L 191.798174 225.207949 
L 191.88998 224.154577 
L 192.050271 224.154577 
L 192.050271 223.627891 
L 192.311878 223.627891 
L 192.311878 222.574518 
L 192.481331 222.574518 
L 192.511064 221.521146 
L 192.655953 221.521146 
L 192.674828 219.941088 
L 192.845291 219.941088 
L 192.845291 219.414402 
L 193.047376 219.414402 
L 193.143875 217.834344 
L 193.179833 217.834344 
L 193.183498 216.780971 
L 193.497283 216.780971 
L 193.586317 214.674227 
L 193.754525 214.674227 
L 193.754525 214.147541 
L 194.097977 214.147541 
L 194.169465 212.567483 
L 194.263411 212.567483 
L 194.263411 212.040797 
L 198.465954 212.040797 
L 198.465954 210.987425 
L 198.998586 210.987425 
L 198.998586 210.460738 
L 199.130934 210.460738 
L 199.208411 208.353994 
L 199.288644 208.353994 
L 199.288644 206.24725 
L 199.716645 206.24725 
L 199.719165 205.193878 
L 199.972764 205.193878 
L 200.006003 203.613819 
L 200.165362 203.613819 
L 200.165362 202.560447 
L 200.357313 202.560447 
L 200.392736 201.507075 
L 200.572141 201.507075 
L 200.659724 200.453703 
L 200.74402 200.453703 
L 200.74402 199.400331 
L 200.887382 199.400331 
L 200.887382 198.873645 
L 201.005255 198.873645 
L 201.110711 196.240214 
L 201.272778 196.240214 
L 201.272778 195.713528 
L 201.457085 195.713528 
L 201.457085 194.660156 
L 201.787318 194.660156 
L 201.823975 192.553412 
L 202.042313 192.553412 
L 202.042313 191.50004 
L 202.307538 191.50004 
L 202.316657 189.393295 
L 202.53238 189.393295 
L 202.622194 187.813237 
L 202.728516 187.813237 
L 202.72894 186.759865 
L 202.866193 186.759865 
L 202.866193 186.233179 
L 203.149507 186.233179 
L 203.163987 183.599748 
L 203.307717 183.599748 
L 203.307717 183.073062 
L 203.603371 183.073062 
L 203.603371 182.546376 
L 203.72593 182.546376 
L 203.786289 180.966318 
L 207.690916 180.966318 
L 207.690916 179.912946 
L 207.98477 179.912946 
L 207.98477 179.38626 
L 208.184677 179.38626 
L 208.247511 177.806202 
L 208.299957 177.806202 
L 208.299957 176.226143 
L 208.519133 176.226143 
L 208.523696 174.119399 
L 208.68715 174.119399 
L 208.723267 173.066027 
L 208.820408 173.066027 
L 208.926524 169.90591 
L 209.034361 169.90591 
L 209.034361 167.799166 
L 209.313573 167.799166 
L 209.392162 166.745794 
L 210.825224 166.745794 
L 210.825224 166.219108 
L 210.973838 166.219108 
L 211.052409 164.112363 
L 211.100222 164.112363 
L 211.19102 163.058991 
L 211.383087 163.058991 
L 211.383087 162.005619 
L 211.498602 162.005619 
L 211.512187 157.79213 
L 211.843141 157.79213 
L 211.922155 155.1587 
L 212.115291 155.1587 
L 212.17558 153.578642 
L 215.877869 153.578642 
L 215.962641 150.945211 
L 216.007447 150.945211 
L 216.007447 150.418525 
L 216.215098 150.418525 
L 216.321991 146.731723 
L 216.360453 146.731723 
L 216.427653 145.678351 
L 216.480534 145.678351 
L 216.480534 144.098292 
L 216.612613 144.098292 
L 216.715583 139.884804 
L 216.746166 139.884804 
L 216.783136 138.831432 
L 218.267693 138.831432 
L 218.317194 136.724687 
L 218.466235 136.724687 
L 218.541051 134.617943 
L 218.586709 134.617943 
L 218.692612 131.984513 
L 218.811032 131.984513 
L 218.900664 129.877768 
L 218.932504 129.877768 
L 218.932504 126.717652 
L 219.048647 126.717652 
L 219.082044 124.610907 
L 219.174921 124.610907 
L 219.263693 119.870733 
L 219.310286 119.870733 
L 219.411572 116.710616 
L 219.484719 116.710616 
L 219.589354 111.970441 
L 219.71675 111.970441 
L 219.71675 109.863697 
L 219.852754 109.863697 
L 219.882745 107.756953 
L 235.560935 107.756953 
L 235.666949 101.963406 
L 235.705771 101.963406 
L 235.771876 95.116487 
L 235.842875 95.116487 
L 235.888338 90.902998 
L 236.808617 90.902998 
L 236.882167 85.109451 
L 236.929418 85.109451 
L 237.04038 78.789218 
L 237.043047 78.789218 
L 237.12081 74.049044 
L 245.061561 74.049044 
L 245.167704 65.09538 
L 245.179045 65.09538 
L 245.213097 60.355206 
L 248.65289 60.355206 
L 248.760256 48.241426 
L 248.77233 48.241426 
L 248.803036 46.134681 
L 269.805682 46.134681 
L 269.847849 30.334099 
L 338.688 30.334099 
L 338.688 30.334099 
" style="fill:none;stroke:#000080;stroke-linecap:square;stroke-width:1.5;"/>
   </g>
   <g id="line2d_36">
    <defs>
     <path d="M 0 6 
C 1.591219 6 3.117479 5.367802 4.242641 4.242641 
C 5.367802 3.117479 6 1.591219 6 0 
C 6 -1.591219 5.367802 -3.117479 4.242641 -4.242641 
C 3.117479 -5.367802 1.591219 -6 0 -6 
C -1.591219 -6 -3.117479 -5.367802 -4.242641 -4.242641 
C -5.367802 -3.117479 -6 -1.591219 -6 0 
C -6 1.591219 -5.367802 3.117479 -4.242641 4.242641 
C -3.117479 5.367802 -1.591219 6 0 6 
z
" id="mb89f9e0faa" style="stroke:#000080;stroke-width:1.5;"/>
    </defs>
    <g>
     <use style="fill-opacity:0;stroke:#000080;stroke-width:1.5;" x="118.838828" xlink:href="#mb89f9e0faa" y="280.509987"/>
     <use style="fill-opacity:0;stroke:#000080;stroke-width:1.5;" x="187.268693" xlink:href="#mb89f9e0faa" y="239.428473"/>
     <use style="fill-opacity:0;stroke:#000080;stroke-width:1.5;" x="236.960947" xlink:href="#mb89f9e0faa" y="82.476021"/>
     <use style="fill-opacity:0;stroke:#000080;stroke-width:1.5;" x="269.847849" xlink:href="#mb89f9e0faa" y="32.967529"/>
     <use style="fill-opacity:0;stroke:#000080;stroke-width:1.5;" x="269.847849" xlink:href="#mb89f9e0faa" y="30.334099"/>
     <use style="fill-opacity:0;stroke:#000080;stroke-width:1.5;" x="338.688" xlink:href="#mb89f9e0faa" y="30.334099"/>
    </g>
   </g>
   <g id="line2d_37">
    <path style="fill:none;stroke:#000080;stroke-linecap:square;stroke-width:1.5;"/>
    <g/>
   </g>
   <g id="line2d_38">
    <defs>
     <path d="M 0 1.5 
C 0.397805 1.5 0.77937 1.341951 1.06066 1.06066 
C 1.341951 0.77937 1.5 0.397805 1.5 0 
C 1.5 -0.397805 1.341951 -0.77937 1.06066 -1.06066 
C 0.77937 -1.341951 0.397805 -1.5 0 -1.5 
C -0.397805 -1.5 -0.77937 -1.341951 -1.06066 -1.06066 
C -1.341951 -0.77937 -1.5 -0.397805 -1.5 0 
C -1.5 0.397805 -1.341951 0.77937 -1.06066 1.06066 
C -0.77937 1.341951 -0.397805 1.5 0 1.5 
z
" id="m562fa315be" style="stroke:#ff00ff;"/>
    </defs>
    <g>
     <use style="fill:#ff00ff;stroke:#ff00ff;" x="256.099856" xlink:href="#m562fa315be" y="30.334099"/>
     <use style="fill:#ff00ff;stroke:#ff00ff;" x="256.099856" xlink:href="#m562fa315be" y="30.334099"/>
    </g>
   </g>
   <g id="line2d_39">
    <path d="M 17.444571 298.944 
L 17.444571 293.677139 
L 65.796525 293.677139 
L 65.796525 293.150453 
L 93.644601 293.150453 
L 93.644601 292.623767 
L 97.043522 292.623767 
L 97.043522 292.097081 
L 102.330873 292.097081 
L 102.330873 291.570395 
L 102.859376 291.570395 
L 102.859376 291.043709 
L 108.006005 291.043709 
L 108.006005 290.517023 
L 108.389302 290.517023 
L 108.389302 289.990337 
L 110.77713 289.990337 
L 110.77713 289.463651 
L 113.239614 289.463651 
L 113.239614 288.936964 
L 115.586238 288.936964 
L 115.586238 288.410278 
L 116.081002 288.410278 
L 116.081002 287.883592 
L 116.202531 287.883592 
L 116.202531 287.356906 
L 118.363901 287.356906 
L 118.363901 286.83022 
L 119.301163 286.83022 
L 119.301163 286.303534 
L 119.751557 286.303534 
L 119.751557 285.776848 
L 121.974949 285.776848 
L 121.974949 285.250162 
L 124.254646 285.250162 
L 124.254646 284.723476 
L 124.891598 284.723476 
L 124.891598 283.670104 
L 125.038147 283.670104 
L 125.038147 283.143418 
L 125.682793 283.143418 
L 125.682793 282.616732 
L 127.229484 282.616732 
L 127.229484 281.563359 
L 127.579875 281.563359 
L 127.579875 280.509987 
L 127.799239 280.509987 
L 127.799239 279.983301 
L 128.199452 279.983301 
L 128.199452 279.456615 
L 128.738855 279.456615 
L 128.738855 278.929929 
L 131.338382 278.929929 
L 131.338382 278.403243 
L 133.533096 278.403243 
L 133.533096 277.876557 
L 133.711505 277.876557 
L 133.711505 276.823185 
L 134.192921 276.823185 
L 134.192921 276.296499 
L 135.602085 276.296499 
L 135.602085 275.769812 
L 136.399782 275.769812 
L 136.399782 275.243126 
L 136.664018 275.243126 
L 136.664018 274.71644 
L 137.415591 274.71644 
L 137.415591 274.189754 
L 138.358484 274.189754 
L 138.358484 273.663068 
L 138.477062 273.663068 
L 138.477062 272.609696 
L 138.811478 272.609696 
L 138.811478 272.08301 
L 139.824833 272.08301 
L 139.824833 271.029638 
L 140.438956 271.029638 
L 140.438956 270.502952 
L 140.752916 270.502952 
L 140.752916 269.976266 
L 140.88576 269.976266 
L 140.88576 269.449579 
L 141.002999 269.449579 
L 141.002999 268.922893 
L 142.07914 268.922893 
L 142.07914 267.869521 
L 142.792145 267.869521 
L 142.871056 266.816149 
L 143.489809 266.816149 
L 143.489809 266.289463 
L 143.803587 266.289463 
L 143.803587 265.762777 
L 144.099593 265.762777 
L 144.099593 265.236091 
L 144.923649 265.236091 
L 144.923649 264.709405 
L 145.361382 264.709405 
L 145.361382 264.182719 
L 145.621085 264.182719 
L 145.699363 263.129347 
L 145.777292 263.129347 
L 145.777292 262.60266 
L 146.030918 262.60266 
L 146.030918 262.075974 
L 146.707319 262.075974 
L 146.77039 261.022602 
L 146.999721 261.022602 
L 146.999721 260.495916 
L 147.580235 260.495916 
L 147.580235 259.96923 
L 148.1808 259.96923 
L 148.1808 259.442544 
L 148.733265 259.442544 
L 148.733265 258.915858 
L 149.58413 258.915858 
L 149.58413 258.389172 
L 150.67444 258.389172 
L 150.67444 257.862486 
L 151.477707 257.862486 
L 151.477707 257.3358 
L 151.653058 257.3358 
L 151.653058 256.809114 
L 155.97843 256.809114 
L 155.97843 256.282427 
L 158.168101 256.282427 
L 158.168101 255.755741 
L 161.370386 255.755741 
L 161.370386 254.702369 
L 162.256044 254.702369 
L 162.256044 253.648997 
L 163.037069 253.648997 
L 163.037069 253.122311 
L 164.727712 253.122311 
L 164.787563 252.068939 
L 166.497167 252.068939 
L 166.497167 251.542253 
L 167.161475 251.542253 
L 167.161475 251.015567 
L 168.385289 251.015567 
L 168.385289 250.488881 
L 169.905996 250.488881 
L 169.969922 248.908822 
L 171.074434 248.908822 
L 171.178286 247.85545 
L 171.201568 247.85545 
L 171.201568 247.328764 
L 171.445442 247.328764 
L 171.529365 246.275392 
L 171.592674 246.275392 
L 171.592674 244.695334 
L 172.201242 244.695334 
L 172.298614 242.588589 
L 173.146705 242.588589 
L 173.257343 241.535217 
L 173.310109 241.535217 
L 173.34215 239.428473 
L 173.618898 239.428473 
L 173.708687 237.848415 
L 173.784646 237.848415 
L 173.784646 236.795043 
L 173.933369 236.795043 
L 173.933369 236.268356 
L 174.089598 236.268356 
L 174.089598 235.214984 
L 174.361294 235.214984 
L 174.382848 233.634926 
L 174.65217 233.634926 
L 174.65217 233.10824 
L 174.875564 233.10824 
L 174.886031 232.054868 
L 175.182762 232.054868 
L 175.182762 231.001496 
L 175.518986 231.001496 
L 175.518986 228.894751 
L 175.829035 228.894751 
L 175.829035 228.368065 
L 176.164813 228.368065 
L 176.267585 225.207949 
L 176.596999 225.207949 
L 176.684054 224.154577 
L 177.11845 224.154577 
L 177.11845 223.627891 
L 177.31801 223.627891 
L 177.31801 222.574518 
L 178.132429 222.574518 
L 178.200054 219.941088 
L 178.348254 219.941088 
L 178.348254 219.414402 
L 178.951995 219.414402 
L 178.951995 217.834344 
L 180.251605 217.834344 
L 180.251605 216.780971 
L 180.582312 216.780971 
L 180.582312 215.727599 
L 180.707163 215.727599 
L 180.707163 212.040797 
L 182.554315 212.040797 
L 182.554315 211.514111 
L 182.704666 211.514111 
L 182.704666 210.987425 
L 183.409353 210.987425 
L 183.452945 206.773936 
L 190.790399 206.773936 
L 190.790399 206.24725 
L 192.012688 206.24725 
L 192.012688 205.720564 
L 192.20445 205.720564 
L 192.20445 204.667192 
L 192.349591 204.667192 
L 192.349591 204.140506 
L 192.801146 204.140506 
L 192.907206 203.087133 
L 193.272687 203.087133 
L 193.312018 201.507075 
L 193.659216 201.507075 
L 193.661356 199.927017 
L 194.120218 199.927017 
L 194.207519 198.346959 
L 194.301947 198.346959 
L 194.301947 196.7669 
L 194.487244 196.7669 
L 194.487244 195.713528 
L 195.001256 195.713528 
L 195.108567 193.080098 
L 195.310202 193.080098 
L 195.395632 191.50004 
L 195.647529 191.50004 
L 195.647529 190.446667 
L 195.778128 190.446667 
L 195.778128 189.919981 
L 197.079358 189.919981 
L 197.079358 189.393295 
L 197.265938 189.393295 
L 197.265938 188.866609 
L 197.43332 188.866609 
L 197.43332 188.339923 
L 197.856654 188.339923 
L 197.856654 187.813237 
L 201.927272 187.813237 
L 202.031726 186.233179 
L 202.1079 186.233179 
L 202.197299 182.01969 
L 202.262742 182.01969 
L 202.356118 179.38626 
L 202.635839 179.38626 
L 202.665652 177.279515 
L 202.748432 177.279515 
L 202.748432 176.226143 
L 202.867034 176.226143 
L 202.875865 173.066027 
L 203.102261 173.066027 
L 203.102261 170.432596 
L 203.224671 170.432596 
L 203.310588 168.325852 
L 203.480757 168.325852 
L 203.480757 166.745794 
L 203.666566 166.745794 
L 203.747939 162.005619 
L 204.101852 162.005619 
L 204.101852 161.478933 
L 204.239253 161.478933 
L 204.27033 158.845503 
L 204.424505 158.845503 
L 204.459094 157.265444 
L 204.565122 157.265444 
L 204.601337 154.632014 
L 205.255721 154.632014 
L 205.351923 148.311781 
L 205.440702 148.311781 
L 205.531198 143.04492 
L 205.781049 143.04492 
L 205.781049 141.991548 
L 205.908709 141.991548 
L 205.933423 140.41149 
L 206.050517 140.41149 
L 206.15673 137.251373 
L 206.17031 137.251373 
L 206.220705 134.617943 
L 206.308288 134.617943 
L 206.317954 133.564571 
L 206.561965 133.564571 
L 206.561965 130.404454 
L 206.785145 130.404454 
L 206.785145 129.877768 
L 206.980605 129.877768 
L 207.05851 128.29771 
L 211.132461 128.29771 
L 211.232207 126.717652 
L 211.438753 126.717652 
L 211.538558 125.137593 
L 211.669057 125.137593 
L 211.770838 123.030849 
L 211.836101 123.030849 
L 211.908635 120.397419 
L 212.166204 120.397419 
L 212.271512 116.18393 
L 212.367652 116.18393 
L 212.400555 115.130558 
L 212.509544 115.130558 
L 212.567523 114.077186 
L 212.635883 114.077186 
L 212.635883 113.023814 
L 213.026187 113.023814 
L 213.043327 110.917069 
L 213.161676 110.917069 
L 213.161676 107.756953 
L 213.439175 107.756953 
L 213.548949 104.596836 
L 213.586298 104.596836 
L 213.680226 103.543464 
L 213.702839 103.543464 
L 213.775677 101.43672 
L 213.906157 101.43672 
L 213.969921 98.803289 
L 215.390373 98.803289 
L 215.390373 98.276603 
L 215.783259 98.276603 
L 215.783259 97.749917 
L 226.499144 97.749917 
L 226.594572 96.696545 
L 226.730961 96.696545 
L 226.749151 94.589801 
L 226.880202 94.589801 
L 226.990457 88.796254 
L 227.015964 88.796254 
L 227.052053 87.216196 
L 227.136039 87.216196 
L 227.231591 83.002707 
L 227.27969 83.002707 
L 227.314927 80.895963 
L 232.132651 80.895963 
L 232.23274 77.735846 
L 232.247805 77.735846 
L 232.345142 73.522358 
L 232.433218 73.522358 
L 232.493253 67.202125 
L 235.377433 67.202125 
L 235.403171 65.622066 
L 235.489684 65.622066 
L 235.580153 57.721775 
L 235.658096 57.721775 
L 235.746932 53.508287 
L 244.49026 53.508287 
L 244.591855 49.294798 
L 244.611067 49.294798 
L 244.714405 41.921193 
L 256.035552 41.921193 
L 256.099856 30.334099 
L 338.688 30.334099 
L 338.688 30.334099 
" style="fill:none;stroke:#ff00ff;stroke-linecap:square;stroke-width:1.5;"/>
   </g>
   <g id="line2d_40">
    <defs>
     <path d="M 0 8.485281 
L 5.091169 0 
L 0 -8.485281 
L -5.091169 0 
z
" id="mcfc770de10" style="stroke:#ff00ff;stroke-linejoin:miter;stroke-width:1.5;"/>
    </defs>
    <g>
     <use style="fill-opacity:0;stroke:#ff00ff;stroke-linejoin:miter;stroke-width:1.5;" x="65.796525" xlink:href="#mcfc770de10" y="293.150453"/>
     <use style="fill-opacity:0;stroke:#ff00ff;stroke-linejoin:miter;stroke-width:1.5;" x="171.592674" xlink:href="#mcfc770de10" y="244.695334"/>
     <use style="fill-opacity:0;stroke:#ff00ff;stroke-linejoin:miter;stroke-width:1.5;" x="205.531198" xlink:href="#mcfc770de10" y="145.151665"/>
     <use style="fill-opacity:0;stroke:#ff00ff;stroke-linejoin:miter;stroke-width:1.5;" x="256.043029" xlink:href="#mcfc770de10" y="40.867821"/>
     <use style="fill-opacity:0;stroke:#ff00ff;stroke-linejoin:miter;stroke-width:1.5;" x="256.099856" xlink:href="#mcfc770de10" y="30.334099"/>
     <use style="fill-opacity:0;stroke:#ff00ff;stroke-linejoin:miter;stroke-width:1.5;" x="338.688" xlink:href="#mcfc770de10" y="30.334099"/>
    </g>
   </g>
   <g id="line2d_41">
    <path style="fill:none;stroke:#ff00ff;stroke-linecap:square;stroke-width:1.5;"/>
    <g/>
   </g>
   <g id="line2d_42">
    <path d="M 338.688 30.334099 
L 369.60768 293.571802 
" style="fill:none;stroke:#000080;stroke-linecap:square;stroke-width:1.5;"/>
    <g>
     <use style="fill-opacity:0;stroke:#000080;stroke-width:1.5;" x="338.688" xlink:href="#mb89f9e0faa" y="30.334099"/>
     <use style="fill-opacity:0;stroke:#000080;stroke-width:1.5;" x="369.60768" xlink:href="#mb89f9e0faa" y="293.571802"/>
    </g>
   </g>
   <g id="line2d_43">
    <path d="M 338.688 30.334099 
L 369.60768 164.63905 
" style="fill:none;stroke:#ff00ff;stroke-linecap:square;stroke-width:1.5;"/>
    <g>
     <use style="fill-opacity:0;stroke:#ff00ff;stroke-linejoin:miter;stroke-width:1.5;" x="338.688" xlink:href="#mcfc770de10" y="30.334099"/>
     <use style="fill-opacity:0;stroke:#ff00ff;stroke-linejoin:miter;stroke-width:1.5;" x="369.60768" xlink:href="#mcfc770de10" y="164.63905"/>
    </g>
   </g>
   <g id="line2d_44">
    <path d="M 338.688 298.944 
L 338.688 30.334099 
" style="fill:none;stroke:#000000;stroke-linecap:square;stroke-width:1.5;"/>
   </g>
   <g id="patch_3">
    <path d="M 57.6 298.944 
L 57.6 27.648 
" style="fill:none;stroke:#000000;stroke-linecap:square;stroke-linejoin:miter;stroke-width:0.8;"/>
   </g>
   <g id="patch_4">
    <path d="M 338.688 298.944 
L 338.688 27.648 
" style="fill:none;stroke:#000000;stroke-linecap:square;stroke-linejoin:miter;stroke-width:0.8;"/>
   </g>
   <g id="patch_5">
    <path d="M 57.6 298.944 
L 338.688 298.944 
" style="fill:none;stroke:#000000;stroke-linecap:square;stroke-linejoin:miter;stroke-width:0.8;"/>
   </g>
   <g id="patch_6">
    <path d="M 57.6 27.648 
L 338.688 27.648 
" style="fill:none;stroke:#000000;stroke-linecap:square;stroke-linejoin:miter;stroke-width:0.8;"/>
   </g>
   <g id="text_13">
    <!-- SHADE-LM-PO -->
    <g transform="translate(375.22944 298.262739)scale(0.17 -0.17)">
     <defs>
      <path d="M 3425 4513 
L 3425 3897 
Q 3066 4069 2747 4153 
Q 2428 4238 2131 4238 
Q 1616 4238 1336 4038 
Q 1056 3838 1056 3469 
Q 1056 3159 1242 3001 
Q 1428 2844 1947 2747 
L 2328 2669 
Q 3034 2534 3370 2195 
Q 3706 1856 3706 1288 
Q 3706 609 3251 259 
Q 2797 -91 1919 -91 
Q 1588 -91 1214 -16 
Q 841 59 441 206 
L 441 856 
Q 825 641 1194 531 
Q 1563 422 1919 422 
Q 2459 422 2753 634 
Q 3047 847 3047 1241 
Q 3047 1584 2836 1778 
Q 2625 1972 2144 2069 
L 1759 2144 
Q 1053 2284 737 2584 
Q 422 2884 422 3419 
Q 422 4038 858 4394 
Q 1294 4750 2059 4750 
Q 2388 4750 2728 4690 
Q 3069 4631 3425 4513 
z
" id="DejaVuSans-53" transform="scale(0.015625)"/>
      <path d="M 628 4666 
L 1259 4666 
L 1259 2753 
L 3553 2753 
L 3553 4666 
L 4184 4666 
L 4184 0 
L 3553 0 
L 3553 2222 
L 1259 2222 
L 1259 0 
L 628 0 
L 628 4666 
z
" id="DejaVuSans-48" transform="scale(0.015625)"/>
      <path d="M 2188 4044 
L 1331 1722 
L 3047 1722 
L 2188 4044 
z
M 1831 4666 
L 2547 4666 
L 4325 0 
L 3669 0 
L 3244 1197 
L 1141 1197 
L 716 0 
L 50 0 
L 1831 4666 
z
" id="DejaVuSans-41" transform="scale(0.015625)"/>
      <path d="M 1259 4147 
L 1259 519 
L 2022 519 
Q 2988 519 3436 956 
Q 3884 1394 3884 2338 
Q 3884 3275 3436 3711 
Q 2988 4147 2022 4147 
L 1259 4147 
z
M 628 4666 
L 1925 4666 
Q 3281 4666 3915 4102 
Q 4550 3538 4550 2338 
Q 4550 1131 3912 565 
Q 3275 0 1925 0 
L 628 0 
L 628 4666 
z
" id="DejaVuSans-44" transform="scale(0.015625)"/>
      <path d="M 628 4666 
L 3578 4666 
L 3578 4134 
L 1259 4134 
L 1259 2753 
L 3481 2753 
L 3481 2222 
L 1259 2222 
L 1259 531 
L 3634 531 
L 3634 0 
L 628 0 
L 628 4666 
z
" id="DejaVuSans-45" transform="scale(0.015625)"/>
      <path d="M 628 4666 
L 1259 4666 
L 1259 531 
L 3531 531 
L 3531 0 
L 628 0 
L 628 4666 
z
" id="DejaVuSans-4c" transform="scale(0.015625)"/>
      <path d="M 628 4666 
L 1569 4666 
L 2759 1491 
L 3956 4666 
L 4897 4666 
L 4897 0 
L 4281 0 
L 4281 4097 
L 3078 897 
L 2444 897 
L 1241 4097 
L 1241 0 
L 628 0 
L 628 4666 
z
" id="DejaVuSans-4d" transform="scale(0.015625)"/>
      <path d="M 1259 4147 
L 1259 2394 
L 2053 2394 
Q 2494 2394 2734 2622 
Q 2975 2850 2975 3272 
Q 2975 3691 2734 3919 
Q 2494 4147 2053 4147 
L 1259 4147 
z
M 628 4666 
L 2053 4666 
Q 2838 4666 3239 4311 
Q 3641 3956 3641 3272 
Q 3641 2581 3239 2228 
Q 2838 1875 2053 1875 
L 1259 1875 
L 1259 0 
L 628 0 
L 628 4666 
z
" id="DejaVuSans-50" transform="scale(0.015625)"/>
      <path d="M 2522 4238 
Q 1834 4238 1429 3725 
Q 1025 3213 1025 2328 
Q 1025 1447 1429 934 
Q 1834 422 2522 422 
Q 3209 422 3611 934 
Q 4013 1447 4013 2328 
Q 4013 3213 3611 3725 
Q 3209 4238 2522 4238 
z
M 2522 4750 
Q 3503 4750 4090 4092 
Q 4678 3434 4678 2328 
Q 4678 1225 4090 567 
Q 3503 -91 2522 -91 
Q 1538 -91 948 565 
Q 359 1222 359 2328 
Q 359 3434 948 4092 
Q 1538 4750 2522 4750 
z
" id="DejaVuSans-4f" transform="scale(0.015625)"/>
     </defs>
     <use xlink:href="#DejaVuSans-53"/>
     <use x="63.476562" xlink:href="#DejaVuSans-48"/>
     <use x="138.671875" xlink:href="#DejaVuSans-41"/>
     <use x="207.080078" xlink:href="#DejaVuSans-44"/>
     <use x="284.082031" xlink:href="#DejaVuSans-45"/>
     <use x="347.265625" xlink:href="#DejaVuSans-2d"/>
     <use x="383.349609" xlink:href="#DejaVuSans-4c"/>
     <use x="439.0625" xlink:href="#DejaVuSans-4d"/>
     <use x="525.341797" xlink:href="#DejaVuSans-2d"/>
     <use x="561.425781" xlink:href="#DejaVuSans-50"/>
     <use x="621.728516" xlink:href="#DejaVuSans-4f"/>
    </g>
   </g>
   <g id="text_14">
    <!-- SHADE-LM Ok -->
    <g transform="translate(375.22944 169.329987)scale(0.17 -0.17)">
     <defs>
      <path d="M 581 4863 
L 1159 4863 
L 1159 1991 
L 2875 3500 
L 3609 3500 
L 1753 1863 
L 3688 0 
L 2938 0 
L 1159 1709 
L 1159 0 
L 581 0 
L 581 4863 
z
" id="DejaVuSans-6b" transform="scale(0.015625)"/>
     </defs>
     <use xlink:href="#DejaVuSans-53"/>
     <use x="63.476562" xlink:href="#DejaVuSans-48"/>
     <use x="138.671875" xlink:href="#DejaVuSans-41"/>
     <use x="207.080078" xlink:href="#DejaVuSans-44"/>
     <use x="284.082031" xlink:href="#DejaVuSans-45"/>
     <use x="347.265625" xlink:href="#DejaVuSans-2d"/>
     <use x="383.349609" xlink:href="#DejaVuSans-4c"/>
     <use x="439.0625" xlink:href="#DejaVuSans-4d"/>
     <use x="525.341797" xlink:href="#DejaVuSans-20"/>
     <use x="557.128906" xlink:href="#DejaVuSans-4f"/>
     <use x="635.839844" xlink:href="#DejaVuSans-6b"/>
    </g>
   </g>
   <g id="text_15">
    <!-- best 2009 -->
    <g transform="translate(375.22944 40.397235)scale(0.17 -0.17)">
     <defs>
      <path d="M 3116 1747 
Q 3116 2381 2855 2742 
Q 2594 3103 2138 3103 
Q 1681 3103 1420 2742 
Q 1159 2381 1159 1747 
Q 1159 1113 1420 752 
Q 1681 391 2138 391 
Q 2594 391 2855 752 
Q 3116 1113 3116 1747 
z
M 1159 2969 
Q 1341 3281 1617 3432 
Q 1894 3584 2278 3584 
Q 2916 3584 3314 3078 
Q 3713 2572 3713 1747 
Q 3713 922 3314 415 
Q 2916 -91 2278 -91 
Q 1894 -91 1617 61 
Q 1341 213 1159 525 
L 1159 0 
L 581 0 
L 581 4863 
L 1159 4863 
L 1159 2969 
z
" id="DejaVuSans-62" transform="scale(0.015625)"/>
      <path d="M 703 97 
L 703 672 
Q 941 559 1184 500 
Q 1428 441 1663 441 
Q 2288 441 2617 861 
Q 2947 1281 2994 2138 
Q 2813 1869 2534 1725 
Q 2256 1581 1919 1581 
Q 1219 1581 811 2004 
Q 403 2428 403 3163 
Q 403 3881 828 4315 
Q 1253 4750 1959 4750 
Q 2769 4750 3195 4129 
Q 3622 3509 3622 2328 
Q 3622 1225 3098 567 
Q 2575 -91 1691 -91 
Q 1453 -91 1209 -44 
Q 966 3 703 97 
z
M 1959 2075 
Q 2384 2075 2632 2365 
Q 2881 2656 2881 3163 
Q 2881 3666 2632 3958 
Q 2384 4250 1959 4250 
Q 1534 4250 1286 3958 
Q 1038 3666 1038 3163 
Q 1038 2656 1286 2365 
Q 1534 2075 1959 2075 
z
" id="DejaVuSans-39" transform="scale(0.015625)"/>
     </defs>
     <use xlink:href="#DejaVuSans-62"/>
     <use x="63.476562" xlink:href="#DejaVuSans-65"/>
     <use x="125" xlink:href="#DejaVuSans-73"/>
     <use x="177.099609" xlink:href="#DejaVuSans-74"/>
     <use x="216.308594" xlink:href="#DejaVuSans-20"/>
     <use x="248.095703" xlink:href="#DejaVuSans-32"/>
     <use x="311.71875" xlink:href="#DejaVuSans-30"/>
     <use x="375.341797" xlink:href="#DejaVuSans-30"/>
     <use x="438.964844" xlink:href="#DejaVuSans-39"/>
    </g>
   </g>
   <g id="text_16">
    <!-- bbob f22, 10-D -->
    <g transform="translate(60.41088 38.111366)scale(0.102 -0.102)">
     <use xlink:href="#DejaVuSans-62"/>
     <use x="63.476562" xlink:href="#DejaVuSans-62"/>
     <use x="126.953125" xlink:href="#DejaVuSans-6f"/>
     <use x="188.134766" xlink:href="#DejaVuSans-62"/>
     <use x="251.611328" xlink:href="#DejaVuSans-20"/>
     <use x="283.398438" xlink:href="#DejaVuSans-66"/>
     <use x="318.603516" xlink:href="#DejaVuSans-32"/>
     <use x="382.226562" xlink:href="#DejaVuSans-32"/>
     <use x="445.849609" xlink:href="#DejaVuSans-2c"/>
     <use x="477.636719" xlink:href="#DejaVuSans-20"/>
     <use x="509.423828" xlink:href="#DejaVuSans-31"/>
     <use x="573.046875" xlink:href="#DejaVuSans-30"/>
     <use x="636.669922" xlink:href="#DejaVuSans-2d"/>
     <use x="672.753906" xlink:href="#DejaVuSans-44"/>
    </g>
    <!-- 51 targets: 100..1e-08 -->
    <g transform="translate(60.41088 49.533135)scale(0.102 -0.102)">
     <defs>
      <path d="M 691 4666 
L 3169 4666 
L 3169 4134 
L 1269 4134 
L 1269 2991 
Q 1406 3038 1543 3061 
Q 1681 3084 1819 3084 
Q 2600 3084 3056 2656 
Q 3513 2228 3513 1497 
Q 3513 744 3044 326 
Q 2575 -91 1722 -91 
Q 1428 -91 1123 -41 
Q 819 9 494 109 
L 494 744 
Q 775 591 1075 516 
Q 1375 441 1709 441 
Q 2250 441 2565 725 
Q 2881 1009 2881 1497 
Q 2881 1984 2565 2268 
Q 2250 2553 1709 2553 
Q 1456 2553 1204 2497 
Q 953 2441 691 2322 
L 691 4666 
z
" id="DejaVuSans-35" transform="scale(0.015625)"/>
      <path d="M 750 794 
L 1409 794 
L 1409 0 
L 750 0 
L 750 794 
z
M 750 3309 
L 1409 3309 
L 1409 2516 
L 750 2516 
L 750 3309 
z
" id="DejaVuSans-3a" transform="scale(0.015625)"/>
     </defs>
     <use xlink:href="#DejaVuSans-35"/>
     <use x="63.623047" xlink:href="#DejaVuSans-31"/>
     <use x="127.246094" xlink:href="#DejaVuSans-20"/>
     <use x="159.033203" xlink:href="#DejaVuSans-74"/>
     <use x="198.242188" xlink:href="#DejaVuSans-61"/>
     <use x="259.521484" xlink:href="#DejaVuSans-72"/>
     <use x="298.884766" xlink:href="#DejaVuSans-67"/>
     <use x="362.361328" xlink:href="#DejaVuSans-65"/>
     <use x="423.884766" xlink:href="#DejaVuSans-74"/>
     <use x="463.09375" xlink:href="#DejaVuSans-73"/>
     <use x="515.193359" xlink:href="#DejaVuSans-3a"/>
     <use x="548.884766" xlink:href="#DejaVuSans-20"/>
     <use x="580.671875" xlink:href="#DejaVuSans-31"/>
     <use x="644.294922" xlink:href="#DejaVuSans-30"/>
     <use x="707.917969" xlink:href="#DejaVuSans-30"/>
     <use x="771.541016" xlink:href="#DejaVuSans-2e"/>
     <use x="803.328125" xlink:href="#DejaVuSans-2e"/>
     <use x="835.115234" xlink:href="#DejaVuSans-31"/>
     <use x="898.738281" xlink:href="#DejaVuSans-65"/>
     <use x="960.261719" xlink:href="#DejaVuSans-2d"/>
     <use x="996.345703" xlink:href="#DejaVuSans-30"/>
     <use x="1059.96875" xlink:href="#DejaVuSans-38"/>
    </g>
    <!-- 15 instances -->
    <g transform="translate(60.41088 60.954904)scale(0.102 -0.102)">
     <use xlink:href="#DejaVuSans-31"/>
     <use x="63.623047" xlink:href="#DejaVuSans-35"/>
     <use x="127.246094" xlink:href="#DejaVuSans-20"/>
     <use x="159.033203" xlink:href="#DejaVuSans-69"/>
     <use x="186.816406" xlink:href="#DejaVuSans-6e"/>
     <use x="250.195312" xlink:href="#DejaVuSans-73"/>
     <use x="302.294922" xlink:href="#DejaVuSans-74"/>
     <use x="341.503906" xlink:href="#DejaVuSans-61"/>
     <use x="402.783203" xlink:href="#DejaVuSans-6e"/>
     <use x="466.162109" xlink:href="#DejaVuSans-63"/>
     <use x="521.142578" xlink:href="#DejaVuSans-65"/>
     <use x="582.666016" xlink:href="#DejaVuSans-73"/>
    </g>
   </g>
   <g id="text_17">
    <!-- v2.4.1.1 -->
    <g style="fill:#808080;" transform="translate(177.692437 294.151352)scale(0.1 -0.1)">
     <use xlink:href="#DejaVuSans-76"/>
     <use x="59.179688" xlink:href="#DejaVuSans-32"/>
     <use x="122.802734" xlink:href="#DejaVuSans-2e"/>
     <use x="154.589844" xlink:href="#DejaVuSans-34"/>
     <use x="218.212891" xlink:href="#DejaVuSans-2e"/>
     <use x="250" xlink:href="#DejaVuSans-31"/>
     <use x="313.623047" xlink:href="#DejaVuSans-2e"/>
     <use x="345.410156" xlink:href="#DejaVuSans-31"/>
    </g>
   </g>
   <g id="text_18">
    <!-- 22 Gallagher 21 peaks -->
    <g transform="translate(85.019 21.648)scale(0.2 -0.2)">
     <defs>
      <path d="M 3809 666 
L 3809 1919 
L 2778 1919 
L 2778 2438 
L 4434 2438 
L 4434 434 
Q 4069 175 3628 42 
Q 3188 -91 2688 -91 
Q 1594 -91 976 548 
Q 359 1188 359 2328 
Q 359 3472 976 4111 
Q 1594 4750 2688 4750 
Q 3144 4750 3555 4637 
Q 3966 4525 4313 4306 
L 4313 3634 
Q 3963 3931 3569 4081 
Q 3175 4231 2741 4231 
Q 1884 4231 1454 3753 
Q 1025 3275 1025 2328 
Q 1025 1384 1454 906 
Q 1884 428 2741 428 
Q 3075 428 3337 486 
Q 3600 544 3809 666 
z
" id="DejaVuSans-47" transform="scale(0.015625)"/>
      <path d="M 3513 2113 
L 3513 0 
L 2938 0 
L 2938 2094 
Q 2938 2591 2744 2837 
Q 2550 3084 2163 3084 
Q 1697 3084 1428 2787 
Q 1159 2491 1159 1978 
L 1159 0 
L 581 0 
L 581 4863 
L 1159 4863 
L 1159 2956 
Q 1366 3272 1645 3428 
Q 1925 3584 2291 3584 
Q 2894 3584 3203 3211 
Q 3513 2838 3513 2113 
z
" id="DejaVuSans-68" transform="scale(0.015625)"/>
     </defs>
     <use xlink:href="#DejaVuSans-32"/>
     <use x="63.623047" xlink:href="#DejaVuSans-32"/>
     <use x="127.246094" xlink:href="#DejaVuSans-20"/>
     <use x="159.033203" xlink:href="#DejaVuSans-47"/>
     <use x="236.523438" xlink:href="#DejaVuSans-61"/>
     <use x="297.802734" xlink:href="#DejaVuSans-6c"/>
     <use x="325.585938" xlink:href="#DejaVuSans-6c"/>
     <use x="353.369141" xlink:href="#DejaVuSans-61"/>
     <use x="414.648438" xlink:href="#DejaVuSans-67"/>
     <use x="478.125" xlink:href="#DejaVuSans-68"/>
     <use x="541.503906" xlink:href="#DejaVuSans-65"/>
     <use x="603.027344" xlink:href="#DejaVuSans-72"/>
     <use x="644.140625" xlink:href="#DejaVuSans-20"/>
     <use x="675.927734" xlink:href="#DejaVuSans-32"/>
     <use x="739.550781" xlink:href="#DejaVuSans-31"/>
     <use x="803.173828" xlink:href="#DejaVuSans-20"/>
     <use x="834.960938" xlink:href="#DejaVuSans-70"/>
     <use x="898.4375" xlink:href="#DejaVuSans-65"/>
     <use x="959.960938" xlink:href="#DejaVuSans-61"/>
     <use x="1021.240234" xlink:href="#DejaVuSans-6b"/>
     <use x="1079.150391" xlink:href="#DejaVuSans-73"/>
    </g>
   </g>
  </g>
 </g>
 <defs>
  <clipPath id="p61ef1928f4">
   <rect height="271.296" width="281.088" x="57.6" y="27.648"/>
  </clipPath>
 </defs>
</svg>
