<?xml version="1.0" encoding="utf-8" standalone="no"?>
<!DOCTYPE svg PUBLIC "-//W3C//DTD SVG 1.1//EN"
  "http://www.w3.org/Graphics/SVG/1.1/DTD/svg11.dtd">
<!-- Created with matplotlib (https://matplotlib.org/) -->
<svg height="345.6pt" version="1.1" viewBox="0 0 460.8 345.6" width="460.8pt" xmlns="http://www.w3.org/2000/svg" xmlns:xlink="http://www.w3.org/1999/xlink">
 <defs>
  <style type="text/css">
*{stroke-linecap:butt;stroke-linejoin:round;}
  </style>
 </defs>
 <g id="figure_1">
  <g id="patch_1">
   <path d="M 0 345.6 
L 460.8 345.6 
L 460.8 0 
L 0 0 
z
" style="fill:#ffffff;"/>
  </g>
  <g id="axes_1">
   <g id="patch_2">
    <path d="M 22.69 315.44 
L 445.559562 315.44 
L 445.559562 25.56 
L 22.69 25.56 
z
" style="fill:#ffffff;"/>
   </g>
   <g id="matplotlib.axis_1">
    <g id="xtick_1">
     <g id="line2d_1">
      <defs>
       <path d="M 0 0 
L 0 3.5 
" id="m3c780b0cfe" style="stroke:#000000;stroke-width:0.8;"/>
      </defs>
      <g>
       <use style="stroke:#000000;stroke-width:0.8;" x="34.767856" xlink:href="#m3c780b0cfe" y="315.44"/>
      </g>
     </g>
     <g id="text_1">
      <!-- 20 -->
      <defs>
       <path d="M 19.1875 8.296875 
L 53.609375 8.296875 
L 53.609375 0 
L 7.328125 0 
L 7.328125 8.296875 
Q 12.9375 14.109375 22.625 23.890625 
Q 32.328125 33.6875 34.8125 36.53125 
Q 39.546875 41.84375 41.421875 45.53125 
Q 43.3125 49.21875 43.3125 52.78125 
Q 43.3125 58.59375 39.234375 62.25 
Q 35.15625 65.921875 28.609375 65.921875 
Q 23.96875 65.921875 18.8125 64.3125 
Q 13.671875 62.703125 7.8125 59.421875 
L 7.8125 69.390625 
Q 13.765625 71.78125 18.9375 73 
Q 24.125 74.21875 28.421875 74.21875 
Q 39.75 74.21875 46.484375 68.546875 
Q 53.21875 62.890625 53.21875 53.421875 
Q 53.21875 48.921875 51.53125 44.890625 
Q 49.859375 40.875 45.40625 35.40625 
Q 44.1875 33.984375 37.640625 27.21875 
Q 31.109375 20.453125 19.1875 8.296875 
z
" id="DejaVuSans-50"/>
       <path d="M 31.78125 66.40625 
Q 24.171875 66.40625 20.328125 58.90625 
Q 16.5 51.421875 16.5 36.375 
Q 16.5 21.390625 20.328125 13.890625 
Q 24.171875 6.390625 31.78125 6.390625 
Q 39.453125 6.390625 43.28125 13.890625 
Q 47.125 21.390625 47.125 36.375 
Q 47.125 51.421875 43.28125 58.90625 
Q 39.453125 66.40625 31.78125 66.40625 
z
M 31.78125 74.21875 
Q 44.046875 74.21875 50.515625 64.515625 
Q 56.984375 54.828125 56.984375 36.375 
Q 56.984375 17.96875 50.515625 8.265625 
Q 44.046875 -1.421875 31.78125 -1.421875 
Q 19.53125 -1.421875 13.0625 8.265625 
Q 6.59375 17.96875 6.59375 36.375 
Q 6.59375 54.828125 13.0625 64.515625 
Q 19.53125 74.21875 31.78125 74.21875 
z
" id="DejaVuSans-48"/>
      </defs>
      <g transform="translate(22.042856 337.636875)scale(0.2 -0.2)">
       <use xlink:href="#DejaVuSans-50"/>
       <use x="63.623047" xlink:href="#DejaVuSans-48"/>
      </g>
     </g>
    </g>
    <g id="xtick_2">
     <g id="line2d_2">
      <g>
       <use style="stroke:#000000;stroke-width:0.8;" x="114.225818" xlink:href="#m3c780b0cfe" y="315.44"/>
      </g>
     </g>
     <g id="text_2">
      <!-- 40 -->
      <defs>
       <path d="M 37.796875 64.3125 
L 12.890625 25.390625 
L 37.796875 25.390625 
z
M 35.203125 72.90625 
L 47.609375 72.90625 
L 47.609375 25.390625 
L 58.015625 25.390625 
L 58.015625 17.1875 
L 47.609375 17.1875 
L 47.609375 0 
L 37.796875 0 
L 37.796875 17.1875 
L 4.890625 17.1875 
L 4.890625 26.703125 
z
" id="DejaVuSans-52"/>
      </defs>
      <g transform="translate(101.500818 337.636875)scale(0.2 -0.2)">
       <use xlink:href="#DejaVuSans-52"/>
       <use x="63.623047" xlink:href="#DejaVuSans-48"/>
      </g>
     </g>
    </g>
    <g id="xtick_3">
     <g id="line2d_3">
      <g>
       <use style="stroke:#000000;stroke-width:0.8;" x="193.683781" xlink:href="#m3c780b0cfe" y="315.44"/>
      </g>
     </g>
     <g id="text_3">
      <!-- 80 -->
      <defs>
       <path d="M 31.78125 34.625 
Q 24.75 34.625 20.71875 30.859375 
Q 16.703125 27.09375 16.703125 20.515625 
Q 16.703125 13.921875 20.71875 10.15625 
Q 24.75 6.390625 31.78125 6.390625 
Q 38.8125 6.390625 42.859375 10.171875 
Q 46.921875 13.96875 46.921875 20.515625 
Q 46.921875 27.09375 42.890625 30.859375 
Q 38.875 34.625 31.78125 34.625 
z
M 21.921875 38.8125 
Q 15.578125 40.375 12.03125 44.71875 
Q 8.5 49.078125 8.5 55.328125 
Q 8.5 64.0625 14.71875 69.140625 
Q 20.953125 74.21875 31.78125 74.21875 
Q 42.671875 74.21875 48.875 69.140625 
Q 55.078125 64.0625 55.078125 55.328125 
Q 55.078125 49.078125 51.53125 44.71875 
Q 48 40.375 41.703125 38.8125 
Q 48.828125 37.15625 52.796875 32.3125 
Q 56.78125 27.484375 56.78125 20.515625 
Q 56.78125 9.90625 50.3125 4.234375 
Q 43.84375 -1.421875 31.78125 -1.421875 
Q 19.734375 -1.421875 13.25 4.234375 
Q 6.78125 9.90625 6.78125 20.515625 
Q 6.78125 27.484375 10.78125 32.3125 
Q 14.796875 37.15625 21.921875 38.8125 
z
M 18.3125 54.390625 
Q 18.3125 48.734375 21.84375 45.5625 
Q 25.390625 42.390625 31.78125 42.390625 
Q 38.140625 42.390625 41.71875 45.5625 
Q 45.3125 48.734375 45.3125 54.390625 
Q 45.3125 60.0625 41.71875 63.234375 
Q 38.140625 66.40625 31.78125 66.40625 
Q 25.390625 66.40625 21.84375 63.234375 
Q 18.3125 60.0625 18.3125 54.390625 
z
" id="DejaVuSans-56"/>
      </defs>
      <g transform="translate(180.958781 337.636875)scale(0.2 -0.2)">
       <use xlink:href="#DejaVuSans-56"/>
       <use x="63.623047" xlink:href="#DejaVuSans-48"/>
      </g>
     </g>
    </g>
    <g id="xtick_4">
     <g id="line2d_4">
      <g>
       <use style="stroke:#000000;stroke-width:0.8;" x="273.141743" xlink:href="#m3c780b0cfe" y="315.44"/>
      </g>
     </g>
     <g id="text_4">
      <!-- 160 -->
      <defs>
       <path d="M 12.40625 8.296875 
L 28.515625 8.296875 
L 28.515625 63.921875 
L 10.984375 60.40625 
L 10.984375 69.390625 
L 28.421875 72.90625 
L 38.28125 72.90625 
L 38.28125 8.296875 
L 54.390625 8.296875 
L 54.390625 0 
L 12.40625 0 
z
" id="DejaVuSans-49"/>
       <path d="M 33.015625 40.375 
Q 26.375 40.375 22.484375 35.828125 
Q 18.609375 31.296875 18.609375 23.390625 
Q 18.609375 15.53125 22.484375 10.953125 
Q 26.375 6.390625 33.015625 6.390625 
Q 39.65625 6.390625 43.53125 10.953125 
Q 47.40625 15.53125 47.40625 23.390625 
Q 47.40625 31.296875 43.53125 35.828125 
Q 39.65625 40.375 33.015625 40.375 
z
M 52.59375 71.296875 
L 52.59375 62.3125 
Q 48.875 64.0625 45.09375 64.984375 
Q 41.3125 65.921875 37.59375 65.921875 
Q 27.828125 65.921875 22.671875 59.328125 
Q 17.53125 52.734375 16.796875 39.40625 
Q 19.671875 43.65625 24.015625 45.921875 
Q 28.375 48.1875 33.59375 48.1875 
Q 44.578125 48.1875 50.953125 41.515625 
Q 57.328125 34.859375 57.328125 23.390625 
Q 57.328125 12.15625 50.6875 5.359375 
Q 44.046875 -1.421875 33.015625 -1.421875 
Q 20.359375 -1.421875 13.671875 8.265625 
Q 6.984375 17.96875 6.984375 36.375 
Q 6.984375 53.65625 15.1875 63.9375 
Q 23.390625 74.21875 37.203125 74.21875 
Q 40.921875 74.21875 44.703125 73.484375 
Q 48.484375 72.75 52.59375 71.296875 
z
" id="DejaVuSans-54"/>
      </defs>
      <g transform="translate(254.054243 337.636875)scale(0.2 -0.2)">
       <use xlink:href="#DejaVuSans-49"/>
       <use x="63.623047" xlink:href="#DejaVuSans-54"/>
       <use x="127.246094" xlink:href="#DejaVuSans-48"/>
      </g>
     </g>
    </g>
    <g id="xtick_5">
     <g id="line2d_5">
      <g>
       <use style="stroke:#000000;stroke-width:0.8;" x="352.599706" xlink:href="#m3c780b0cfe" y="315.44"/>
      </g>
     </g>
     <g id="text_5">
      <!-- 320 -->
      <defs>
       <path d="M 40.578125 39.3125 
Q 47.65625 37.796875 51.625 33 
Q 55.609375 28.21875 55.609375 21.1875 
Q 55.609375 10.40625 48.1875 4.484375 
Q 40.765625 -1.421875 27.09375 -1.421875 
Q 22.515625 -1.421875 17.65625 -0.515625 
Q 12.796875 0.390625 7.625 2.203125 
L 7.625 11.71875 
Q 11.71875 9.328125 16.59375 8.109375 
Q 21.484375 6.890625 26.8125 6.890625 
Q 36.078125 6.890625 40.9375 10.546875 
Q 45.796875 14.203125 45.796875 21.1875 
Q 45.796875 27.640625 41.28125 31.265625 
Q 36.765625 34.90625 28.71875 34.90625 
L 20.21875 34.90625 
L 20.21875 43.015625 
L 29.109375 43.015625 
Q 36.375 43.015625 40.234375 45.921875 
Q 44.09375 48.828125 44.09375 54.296875 
Q 44.09375 59.90625 40.109375 62.90625 
Q 36.140625 65.921875 28.71875 65.921875 
Q 24.65625 65.921875 20.015625 65.03125 
Q 15.375 64.15625 9.8125 62.3125 
L 9.8125 71.09375 
Q 15.4375 72.65625 20.34375 73.4375 
Q 25.25 74.21875 29.59375 74.21875 
Q 40.828125 74.21875 47.359375 69.109375 
Q 53.90625 64.015625 53.90625 55.328125 
Q 53.90625 49.265625 50.4375 45.09375 
Q 46.96875 40.921875 40.578125 39.3125 
z
" id="DejaVuSans-51"/>
      </defs>
      <g transform="translate(333.512206 337.636875)scale(0.2 -0.2)">
       <use xlink:href="#DejaVuSans-51"/>
       <use x="63.623047" xlink:href="#DejaVuSans-50"/>
       <use x="127.246094" xlink:href="#DejaVuSans-48"/>
      </g>
     </g>
    </g>
    <g id="xtick_6">
     <g id="line2d_6">
      <g>
       <use style="stroke:#000000;stroke-width:0.8;" x="432.057668" xlink:href="#m3c780b0cfe" y="315.44"/>
      </g>
     </g>
     <g id="text_6">
      <!-- 640 -->
      <g transform="translate(412.970168 337.636875)scale(0.2 -0.2)">
       <use xlink:href="#DejaVuSans-54"/>
       <use x="63.623047" xlink:href="#DejaVuSans-52"/>
       <use x="127.246094" xlink:href="#DejaVuSans-48"/>
      </g>
     </g>
    </g>
    <g id="xtick_7">
     <g id="line2d_7">
      <defs>
       <path d="M 0 0 
L 0 2 
" id="m6529783b06" style="stroke:#000000;stroke-width:0.6;"/>
      </defs>
      <g>
       <use style="stroke:#000000;stroke-width:0.6;" x="81.247784" xlink:href="#m6529783b06" y="315.44"/>
      </g>
     </g>
    </g>
    <g id="xtick_8">
     <g id="line2d_8">
      <g>
       <use style="stroke:#000000;stroke-width:0.6;" x="139.805569" xlink:href="#m6529783b06" y="315.44"/>
      </g>
     </g>
    </g>
    <g id="xtick_9">
     <g id="line2d_9">
      <g>
       <use style="stroke:#000000;stroke-width:0.6;" x="160.705747" xlink:href="#m6529783b06" y="315.44"/>
      </g>
     </g>
    </g>
    <g id="xtick_10">
     <g id="line2d_10">
      <g>
       <use style="stroke:#000000;stroke-width:0.6;" x="178.376595" xlink:href="#m6529783b06" y="315.44"/>
      </g>
     </g>
    </g>
    <g id="xtick_11">
     <g id="line2d_11">
      <g>
       <use style="stroke:#000000;stroke-width:0.6;" x="207.185675" xlink:href="#m6529783b06" y="315.44"/>
      </g>
     </g>
    </g>
    <g id="xtick_12">
     <g id="line2d_12">
      <g>
       <use style="stroke:#000000;stroke-width:0.6;" x="298.721494" xlink:href="#m6529783b06" y="315.44"/>
      </g>
     </g>
    </g>
    <g id="xtick_13">
     <g id="line2d_13">
      <g>
       <use style="stroke:#000000;stroke-width:0.6;" x="345.201422" xlink:href="#m6529783b06" y="315.44"/>
      </g>
     </g>
    </g>
    <g id="xtick_14">
     <g id="line2d_14">
      <g>
       <use style="stroke:#000000;stroke-width:0.6;" x="378.179456" xlink:href="#m6529783b06" y="315.44"/>
      </g>
     </g>
    </g>
    <g id="xtick_15">
     <g id="line2d_15">
      <g>
       <use style="stroke:#000000;stroke-width:0.6;" x="403.759206" xlink:href="#m6529783b06" y="315.44"/>
      </g>
     </g>
    </g>
    <g id="xtick_16">
     <g id="line2d_16">
      <g>
       <use style="stroke:#000000;stroke-width:0.6;" x="424.659384" xlink:href="#m6529783b06" y="315.44"/>
      </g>
     </g>
    </g>
    <g id="xtick_17">
     <g id="line2d_17">
      <g>
       <use style="stroke:#000000;stroke-width:0.6;" x="442.330233" xlink:href="#m6529783b06" y="315.44"/>
      </g>
     </g>
    </g>
   </g>
   <g id="matplotlib.axis_2">
    <g id="ytick_1">
     <g id="line2d_18">
      <path clip-path="url(#pdaf16e5541)" d="M 22.69 303.606414 
L 445.559562 303.606414 
" style="fill:none;stroke:#b0b0b0;stroke-linecap:square;stroke-width:0.8;"/>
     </g>
     <g id="line2d_19">
      <defs>
       <path d="M 0 0 
L -3.5 0 
" id="meb8ed466c2" style="stroke:#000000;stroke-width:0.8;"/>
      </defs>
      <g>
       <use style="stroke:#000000;stroke-width:0.8;" x="22.69" xlink:href="#meb8ed466c2" y="303.606414"/>
      </g>
     </g>
     <g id="text_7">
      <!-- 0 -->
      <g transform="translate(2.965 311.204851)scale(0.2 -0.2)">
       <use xlink:href="#DejaVuSans-48"/>
      </g>
     </g>
    </g>
    <g id="ytick_2">
     <g id="line2d_20">
      <path clip-path="url(#pdaf16e5541)" d="M 22.69 244.438483 
L 445.559562 244.438483 
" style="fill:none;stroke:#b0b0b0;stroke-linecap:square;stroke-width:0.8;"/>
     </g>
     <g id="line2d_21">
      <g>
       <use style="stroke:#000000;stroke-width:0.8;" x="22.69" xlink:href="#meb8ed466c2" y="244.438483"/>
      </g>
     </g>
     <g id="text_8">
      <!-- 1 -->
      <g transform="translate(2.965 252.03692)scale(0.2 -0.2)">
       <use xlink:href="#DejaVuSans-49"/>
      </g>
     </g>
    </g>
    <g id="ytick_3">
     <g id="line2d_22">
      <path clip-path="url(#pdaf16e5541)" d="M 22.69 185.270552 
L 445.559562 185.270552 
" style="fill:none;stroke:#b0b0b0;stroke-linecap:square;stroke-width:0.8;"/>
     </g>
     <g id="line2d_23">
      <g>
       <use style="stroke:#000000;stroke-width:0.8;" x="22.69" xlink:href="#meb8ed466c2" y="185.270552"/>
      </g>
     </g>
     <g id="text_9">
      <!-- 2 -->
      <g transform="translate(2.965 192.868989)scale(0.2 -0.2)">
       <use xlink:href="#DejaVuSans-50"/>
      </g>
     </g>
    </g>
    <g id="ytick_4">
     <g id="line2d_24">
      <path clip-path="url(#pdaf16e5541)" d="M 22.69 126.102621 
L 445.559562 126.102621 
" style="fill:none;stroke:#b0b0b0;stroke-linecap:square;stroke-width:0.8;"/>
     </g>
     <g id="line2d_25">
      <g>
       <use style="stroke:#000000;stroke-width:0.8;" x="22.69" xlink:href="#meb8ed466c2" y="126.102621"/>
      </g>
     </g>
     <g id="text_10">
      <!-- 3 -->
      <g transform="translate(2.965 133.701058)scale(0.2 -0.2)">
       <use xlink:href="#DejaVuSans-51"/>
      </g>
     </g>
    </g>
    <g id="ytick_5">
     <g id="line2d_26">
      <path clip-path="url(#pdaf16e5541)" d="M 22.69 66.93469 
L 445.559562 66.93469 
" style="fill:none;stroke:#b0b0b0;stroke-linecap:square;stroke-width:0.8;"/>
     </g>
     <g id="line2d_27">
      <g>
       <use style="stroke:#000000;stroke-width:0.8;" x="22.69" xlink:href="#meb8ed466c2" y="66.93469"/>
      </g>
     </g>
     <g id="text_11">
      <!-- 4 -->
      <g transform="translate(2.965 74.533127)scale(0.2 -0.2)">
       <use xlink:href="#DejaVuSans-52"/>
      </g>
     </g>
    </g>
    <g id="ytick_6">
     <g id="line2d_28">
      <defs>
       <path d="M 0 0 
L -2 0 
" id="m1df49adf1c" style="stroke:#000000;stroke-width:0.6;"/>
      </defs>
      <g>
       <use style="stroke:#000000;stroke-width:0.6;" x="22.69" xlink:href="#m1df49adf1c" y="312.771642"/>
      </g>
     </g>
    </g>
    <g id="ytick_7">
     <g id="line2d_29">
      <g>
       <use style="stroke:#000000;stroke-width:0.6;" x="22.69" xlink:href="#m1df49adf1c" y="309.340379"/>
      </g>
     </g>
    </g>
    <g id="ytick_8">
     <g id="line2d_30">
      <g>
       <use style="stroke:#000000;stroke-width:0.6;" x="22.69" xlink:href="#m1df49adf1c" y="306.31379"/>
      </g>
     </g>
    </g>
    <g id="ytick_9">
     <g id="line2d_31">
      <g>
       <use style="stroke:#000000;stroke-width:0.6;" x="22.69" xlink:href="#m1df49adf1c" y="285.795092"/>
      </g>
     </g>
    </g>
    <g id="ytick_10">
     <g id="line2d_32">
      <g>
       <use style="stroke:#000000;stroke-width:0.6;" x="22.69" xlink:href="#m1df49adf1c" y="275.376136"/>
      </g>
     </g>
    </g>
    <g id="ytick_11">
     <g id="line2d_33">
      <g>
       <use style="stroke:#000000;stroke-width:0.6;" x="22.69" xlink:href="#m1df49adf1c" y="267.98377"/>
      </g>
     </g>
    </g>
    <g id="ytick_12">
     <g id="line2d_34">
      <g>
       <use style="stroke:#000000;stroke-width:0.6;" x="22.69" xlink:href="#m1df49adf1c" y="262.249805"/>
      </g>
     </g>
    </g>
    <g id="ytick_13">
     <g id="line2d_35">
      <g>
       <use style="stroke:#000000;stroke-width:0.6;" x="22.69" xlink:href="#m1df49adf1c" y="257.564814"/>
      </g>
     </g>
    </g>
    <g id="ytick_14">
     <g id="line2d_36">
      <g>
       <use style="stroke:#000000;stroke-width:0.6;" x="22.69" xlink:href="#m1df49adf1c" y="253.603711"/>
      </g>
     </g>
    </g>
    <g id="ytick_15">
     <g id="line2d_37">
      <g>
       <use style="stroke:#000000;stroke-width:0.6;" x="22.69" xlink:href="#m1df49adf1c" y="250.172448"/>
      </g>
     </g>
    </g>
    <g id="ytick_16">
     <g id="line2d_38">
      <g>
       <use style="stroke:#000000;stroke-width:0.6;" x="22.69" xlink:href="#m1df49adf1c" y="247.145859"/>
      </g>
     </g>
    </g>
    <g id="ytick_17">
     <g id="line2d_39">
      <g>
       <use style="stroke:#000000;stroke-width:0.6;" x="22.69" xlink:href="#m1df49adf1c" y="226.627161"/>
      </g>
     </g>
    </g>
    <g id="ytick_18">
     <g id="line2d_40">
      <g>
       <use style="stroke:#000000;stroke-width:0.6;" x="22.69" xlink:href="#m1df49adf1c" y="216.208205"/>
      </g>
     </g>
    </g>
    <g id="ytick_19">
     <g id="line2d_41">
      <g>
       <use style="stroke:#000000;stroke-width:0.6;" x="22.69" xlink:href="#m1df49adf1c" y="208.815839"/>
      </g>
     </g>
    </g>
    <g id="ytick_20">
     <g id="line2d_42">
      <g>
       <use style="stroke:#000000;stroke-width:0.6;" x="22.69" xlink:href="#m1df49adf1c" y="203.081874"/>
      </g>
     </g>
    </g>
    <g id="ytick_21">
     <g id="line2d_43">
      <g>
       <use style="stroke:#000000;stroke-width:0.6;" x="22.69" xlink:href="#m1df49adf1c" y="198.396883"/>
      </g>
     </g>
    </g>
    <g id="ytick_22">
     <g id="line2d_44">
      <g>
       <use style="stroke:#000000;stroke-width:0.6;" x="22.69" xlink:href="#m1df49adf1c" y="194.43578"/>
      </g>
     </g>
    </g>
    <g id="ytick_23">
     <g id="line2d_45">
      <g>
       <use style="stroke:#000000;stroke-width:0.6;" x="22.69" xlink:href="#m1df49adf1c" y="191.004517"/>
      </g>
     </g>
    </g>
    <g id="ytick_24">
     <g id="line2d_46">
      <g>
       <use style="stroke:#000000;stroke-width:0.6;" x="22.69" xlink:href="#m1df49adf1c" y="187.977928"/>
      </g>
     </g>
    </g>
    <g id="ytick_25">
     <g id="line2d_47">
      <g>
       <use style="stroke:#000000;stroke-width:0.6;" x="22.69" xlink:href="#m1df49adf1c" y="167.45923"/>
      </g>
     </g>
    </g>
    <g id="ytick_26">
     <g id="line2d_48">
      <g>
       <use style="stroke:#000000;stroke-width:0.6;" x="22.69" xlink:href="#m1df49adf1c" y="157.040274"/>
      </g>
     </g>
    </g>
    <g id="ytick_27">
     <g id="line2d_49">
      <g>
       <use style="stroke:#000000;stroke-width:0.6;" x="22.69" xlink:href="#m1df49adf1c" y="149.647908"/>
      </g>
     </g>
    </g>
    <g id="ytick_28">
     <g id="line2d_50">
      <g>
       <use style="stroke:#000000;stroke-width:0.6;" x="22.69" xlink:href="#m1df49adf1c" y="143.913943"/>
      </g>
     </g>
    </g>
    <g id="ytick_29">
     <g id="line2d_51">
      <g>
       <use style="stroke:#000000;stroke-width:0.6;" x="22.69" xlink:href="#m1df49adf1c" y="139.228952"/>
      </g>
     </g>
    </g>
    <g id="ytick_30">
     <g id="line2d_52">
      <g>
       <use style="stroke:#000000;stroke-width:0.6;" x="22.69" xlink:href="#m1df49adf1c" y="135.267849"/>
      </g>
     </g>
    </g>
    <g id="ytick_31">
     <g id="line2d_53">
      <g>
       <use style="stroke:#000000;stroke-width:0.6;" x="22.69" xlink:href="#m1df49adf1c" y="131.836586"/>
      </g>
     </g>
    </g>
    <g id="ytick_32">
     <g id="line2d_54">
      <g>
       <use style="stroke:#000000;stroke-width:0.6;" x="22.69" xlink:href="#m1df49adf1c" y="128.809997"/>
      </g>
     </g>
    </g>
    <g id="ytick_33">
     <g id="line2d_55">
      <g>
       <use style="stroke:#000000;stroke-width:0.6;" x="22.69" xlink:href="#m1df49adf1c" y="108.291299"/>
      </g>
     </g>
    </g>
    <g id="ytick_34">
     <g id="line2d_56">
      <g>
       <use style="stroke:#000000;stroke-width:0.6;" x="22.69" xlink:href="#m1df49adf1c" y="97.872343"/>
      </g>
     </g>
    </g>
    <g id="ytick_35">
     <g id="line2d_57">
      <g>
       <use style="stroke:#000000;stroke-width:0.6;" x="22.69" xlink:href="#m1df49adf1c" y="90.479977"/>
      </g>
     </g>
    </g>
    <g id="ytick_36">
     <g id="line2d_58">
      <g>
       <use style="stroke:#000000;stroke-width:0.6;" x="22.69" xlink:href="#m1df49adf1c" y="84.746012"/>
      </g>
     </g>
    </g>
    <g id="ytick_37">
     <g id="line2d_59">
      <g>
       <use style="stroke:#000000;stroke-width:0.6;" x="22.69" xlink:href="#m1df49adf1c" y="80.061021"/>
      </g>
     </g>
    </g>
    <g id="ytick_38">
     <g id="line2d_60">
      <g>
       <use style="stroke:#000000;stroke-width:0.6;" x="22.69" xlink:href="#m1df49adf1c" y="76.099918"/>
      </g>
     </g>
    </g>
    <g id="ytick_39">
     <g id="line2d_61">
      <g>
       <use style="stroke:#000000;stroke-width:0.6;" x="22.69" xlink:href="#m1df49adf1c" y="72.668655"/>
      </g>
     </g>
    </g>
    <g id="ytick_40">
     <g id="line2d_62">
      <g>
       <use style="stroke:#000000;stroke-width:0.6;" x="22.69" xlink:href="#m1df49adf1c" y="69.642066"/>
      </g>
     </g>
    </g>
    <g id="ytick_41">
     <g id="line2d_63">
      <g>
       <use style="stroke:#000000;stroke-width:0.6;" x="22.69" xlink:href="#m1df49adf1c" y="49.123368"/>
      </g>
     </g>
    </g>
    <g id="ytick_42">
     <g id="line2d_64">
      <g>
       <use style="stroke:#000000;stroke-width:0.6;" x="22.69" xlink:href="#m1df49adf1c" y="38.704412"/>
      </g>
     </g>
    </g>
    <g id="ytick_43">
     <g id="line2d_65">
      <g>
       <use style="stroke:#000000;stroke-width:0.6;" x="22.69" xlink:href="#m1df49adf1c" y="31.312046"/>
      </g>
     </g>
    </g>
    <g id="ytick_44">
     <g id="line2d_66">
      <g>
       <use style="stroke:#000000;stroke-width:0.6;" x="22.69" xlink:href="#m1df49adf1c" y="25.578081"/>
      </g>
     </g>
    </g>
   </g>
   <g id="line2d_67"/>
   <g id="line2d_68">
    <defs>
     <path d="M 0 10 
C 2.652031 10 5.195799 8.946337 7.071068 7.071068 
C 8.946337 5.195799 10 2.652031 10 0 
C 10 -2.652031 8.946337 -5.195799 7.071068 -7.071068 
C 5.195799 -8.946337 2.652031 -10 0 -10 
C -2.652031 -10 -5.195799 -8.946337 -7.071068 -7.071068 
C -8.946337 -5.195799 -10 -2.652031 -10 0 
C -10 2.652031 -8.946337 5.195799 -7.071068 7.071068 
C -5.195799 8.946337 -2.652031 10 0 10 
z
" id="m95d76b0864" style="stroke:#000080;"/>
    </defs>
    <g clip-path="url(#pdaf16e5541)">
     <use style="fill-opacity:0;stroke:#000080;" x="34.767856" xlink:href="#m95d76b0864" y="25.577721"/>
     <use style="fill-opacity:0;stroke:#000080;" x="114.225818" xlink:href="#m95d76b0864" y="25.577875"/>
     <use style="fill-opacity:0;stroke:#000080;" x="193.683781" xlink:href="#m95d76b0864" y="25.577972"/>
     <use style="fill-opacity:0;stroke:#000080;" x="273.141743" xlink:href="#m95d76b0864" y="25.578013"/>
     <use style="fill-opacity:0;stroke:#000080;" x="352.599706" xlink:href="#m95d76b0864" y="25.578047"/>
    </g>
   </g>
   <g id="line2d_69"/>
   <g id="line2d_70">
    <defs>
     <path d="M 0 14.142136 
L 8.485281 0 
L 0 -14.142136 
L -8.485281 0 
z
" id="m0b1dc27981" style="stroke:#ff00ff;stroke-linejoin:miter;"/>
    </defs>
    <g clip-path="url(#pdaf16e5541)">
     <use style="fill-opacity:0;stroke:#ff00ff;stroke-linejoin:miter;" x="34.767856" xlink:href="#m0b1dc27981" y="25.575897"/>
     <use style="fill-opacity:0;stroke:#ff00ff;stroke-linejoin:miter;" x="114.225818" xlink:href="#m0b1dc27981" y="25.565968"/>
     <use style="fill-opacity:0;stroke:#ff00ff;stroke-linejoin:miter;" x="193.683781" xlink:href="#m0b1dc27981" y="25.577194"/>
     <use style="fill-opacity:0;stroke:#ff00ff;stroke-linejoin:miter;" x="273.141743" xlink:href="#m0b1dc27981" y="25.560861"/>
     <use style="fill-opacity:0;stroke:#ff00ff;stroke-linejoin:miter;" x="352.599706" xlink:href="#m0b1dc27981" y="25.57545"/>
     <use style="fill-opacity:0;stroke:#ff00ff;stroke-linejoin:miter;" x="432.057668" xlink:href="#m0b1dc27981" y="25.572098"/>
    </g>
   </g>
   <g id="line2d_71"/>
   <g id="line2d_72">
    <defs>
     <path d="M 0 -10 
L -2.24514 -3.09017 
L -9.510565 -3.09017 
L -3.632713 1.18034 
L -5.877853 8.09017 
L -0 3.81966 
L 5.877853 8.09017 
L 3.632713 1.18034 
L 9.510565 -3.09017 
L 2.24514 -3.09017 
z
" id="m808168dcc8" style="stroke:#ffa500;stroke-linejoin:bevel;"/>
    </defs>
    <g clip-path="url(#pdaf16e5541)">
     <use style="fill-opacity:0;stroke:#ffa500;stroke-linejoin:bevel;" x="34.767856" xlink:href="#m808168dcc8" y="25.57785"/>
     <use style="fill-opacity:0;stroke:#ffa500;stroke-linejoin:bevel;" x="114.225818" xlink:href="#m808168dcc8" y="25.577888"/>
     <use style="fill-opacity:0;stroke:#ffa500;stroke-linejoin:bevel;" x="193.683781" xlink:href="#m808168dcc8" y="25.577972"/>
     <use style="fill-opacity:0;stroke:#ffa500;stroke-linejoin:bevel;" x="273.141743" xlink:href="#m808168dcc8" y="25.578055"/>
     <use style="fill-opacity:0;stroke:#ffa500;stroke-linejoin:bevel;" x="352.599706" xlink:href="#m808168dcc8" y="25.578071"/>
     <use style="fill-opacity:0;stroke:#ffa500;stroke-linejoin:bevel;" x="432.057668" xlink:href="#m808168dcc8" y="25.578063"/>
    </g>
   </g>
   <g id="line2d_73"/>
   <g id="line2d_74">
    <defs>
     <path d="M -0 10 
L 10 -10 
L -10 -10 
z
" id="mee357250c6" style="stroke:#6495ed;stroke-linejoin:miter;"/>
    </defs>
    <g clip-path="url(#pdaf16e5541)">
     <use style="fill-opacity:0;stroke:#6495ed;stroke-linejoin:miter;" x="34.767856" xlink:href="#mee357250c6" y="25.577773"/>
     <use style="fill-opacity:0;stroke:#6495ed;stroke-linejoin:miter;" x="114.225818" xlink:href="#mee357250c6" y="25.577901"/>
     <use style="fill-opacity:0;stroke:#6495ed;stroke-linejoin:miter;" x="193.683781" xlink:href="#mee357250c6" y="25.577972"/>
     <use style="fill-opacity:0;stroke:#6495ed;stroke-linejoin:miter;" x="273.141743" xlink:href="#mee357250c6" y="25.578026"/>
     <use style="fill-opacity:0;stroke:#6495ed;stroke-linejoin:miter;" x="352.599706" xlink:href="#mee357250c6" y="25.578057"/>
     <use style="fill-opacity:0;stroke:#6495ed;stroke-linejoin:miter;" x="432.057668" xlink:href="#mee357250c6" y="25.578062"/>
    </g>
   </g>
   <g id="line2d_75"/>
   <g id="line2d_76">
    <defs>
     <path d="M 0 -10 
L -8.660254 -5 
L -8.660254 5 
L -0 10 
L 8.660254 5 
L 8.660254 -5 
z
" id="m7616fa30d6" style="stroke:#ff0000;stroke-linejoin:miter;"/>
    </defs>
    <g clip-path="url(#pdaf16e5541)">
     <use style="fill-opacity:0;stroke:#ff0000;stroke-linejoin:miter;" x="34.767856" xlink:href="#m7616fa30d6" y="25.577798"/>
     <use style="fill-opacity:0;stroke:#ff0000;stroke-linejoin:miter;" x="114.225818" xlink:href="#m7616fa30d6" y="25.577927"/>
     <use style="fill-opacity:0;stroke:#ff0000;stroke-linejoin:miter;" x="193.683781" xlink:href="#m7616fa30d6" y="25.577978"/>
     <use style="fill-opacity:0;stroke:#ff0000;stroke-linejoin:miter;" x="273.141743" xlink:href="#m7616fa30d6" y="25.578026"/>
     <use style="fill-opacity:0;stroke:#ff0000;stroke-linejoin:miter;" x="352.599706" xlink:href="#m7616fa30d6" y="25.578049"/>
     <use style="fill-opacity:0;stroke:#ff0000;stroke-linejoin:miter;" x="432.057668" xlink:href="#m7616fa30d6" y="25.578066"/>
    </g>
   </g>
   <g id="line2d_77"/>
   <g id="line2d_78">
    <defs>
     <path d="M 0 -10 
L -10 10 
L 10 10 
z
" id="m92d7cebdda" style="stroke:#9acd32;stroke-linejoin:miter;"/>
    </defs>
    <g clip-path="url(#pdaf16e5541)">
     <use style="fill-opacity:0;stroke:#9acd32;stroke-linejoin:miter;" x="34.767856" xlink:href="#m92d7cebdda" y="25.577798"/>
     <use style="fill-opacity:0;stroke:#9acd32;stroke-linejoin:miter;" x="114.225818" xlink:href="#m92d7cebdda" y="25.577901"/>
     <use style="fill-opacity:0;stroke:#9acd32;stroke-linejoin:miter;" x="193.683781" xlink:href="#m92d7cebdda" y="25.577978"/>
     <use style="fill-opacity:0;stroke:#9acd32;stroke-linejoin:miter;" x="273.141743" xlink:href="#m92d7cebdda" y="25.578023"/>
     <use style="fill-opacity:0;stroke:#9acd32;stroke-linejoin:miter;" x="352.599706" xlink:href="#m92d7cebdda" y="25.578049"/>
     <use style="fill-opacity:0;stroke:#9acd32;stroke-linejoin:miter;" x="432.057668" xlink:href="#m92d7cebdda" y="25.578063"/>
    </g>
   </g>
   <g id="line2d_79"/>
   <g id="line2d_80">
    <defs>
     <path d="M 0 -10 
L -9.510565 -3.09017 
L -5.877853 8.09017 
L 5.877853 8.09017 
L 9.510565 -3.09017 
z
" id="m2abb708fce" style="stroke:#00bfbf;stroke-linejoin:miter;"/>
    </defs>
    <g clip-path="url(#pdaf16e5541)">
     <use style="fill-opacity:0;stroke:#00bfbf;stroke-linejoin:miter;" x="34.767856" xlink:href="#m2abb708fce" y="25.577721"/>
     <use style="fill-opacity:0;stroke:#00bfbf;stroke-linejoin:miter;" x="114.225818" xlink:href="#m2abb708fce" y="25.577863"/>
     <use style="fill-opacity:0;stroke:#00bfbf;stroke-linejoin:miter;" x="193.683781" xlink:href="#m2abb708fce" y="25.577959"/>
     <use style="fill-opacity:0;stroke:#00bfbf;stroke-linejoin:miter;" x="273.141743" xlink:href="#m2abb708fce" y="25.578017"/>
     <use style="fill-opacity:0;stroke:#00bfbf;stroke-linejoin:miter;" x="352.599706" xlink:href="#m2abb708fce" y="25.578044"/>
     <use style="fill-opacity:0;stroke:#00bfbf;stroke-linejoin:miter;" x="432.057668" xlink:href="#m2abb708fce" y="25.578062"/>
    </g>
   </g>
   <g id="line2d_81"/>
   <g id="line2d_82">
    <defs>
     <path d="M 0 0 
L -10 -0 
M 0 0 
L 5 8 
M 0 0 
L 5 -8 
" id="m62d0ffc162" style="stroke:#adff2f;"/>
    </defs>
    <g clip-path="url(#pdaf16e5541)">
     <use style="fill-opacity:0;stroke:#adff2f;" x="34.767856" xlink:href="#m62d0ffc162" y="25.577721"/>
     <use style="fill-opacity:0;stroke:#adff2f;" x="114.225818" xlink:href="#m62d0ffc162" y="25.577875"/>
     <use style="fill-opacity:0;stroke:#adff2f;" x="193.683781" xlink:href="#m62d0ffc162" y="25.577959"/>
     <use style="fill-opacity:0;stroke:#adff2f;" x="273.141743" xlink:href="#m62d0ffc162" y="25.578023"/>
     <use style="fill-opacity:0;stroke:#adff2f;" x="352.599706" xlink:href="#m62d0ffc162" y="25.578046"/>
     <use style="fill-opacity:0;stroke:#adff2f;" x="432.057668" xlink:href="#m62d0ffc162" y="25.578065"/>
    </g>
   </g>
   <g id="line2d_83"/>
   <g id="line2d_84">
    <defs>
     <path d="M 0 0 
L 0 10 
M 0 0 
L 8 -5 
M 0 0 
L -8 -5 
" id="m2b7f065254" style="stroke:#228b22;"/>
    </defs>
    <g clip-path="url(#pdaf16e5541)">
     <use style="fill-opacity:0;stroke:#228b22;" x="34.767856" xlink:href="#m2b7f065254" y="25.577721"/>
     <use style="fill-opacity:0;stroke:#228b22;" x="114.225818" xlink:href="#m2b7f065254" y="25.577863"/>
     <use style="fill-opacity:0;stroke:#228b22;" x="193.683781" xlink:href="#m2b7f065254" y="25.577965"/>
     <use style="fill-opacity:0;stroke:#228b22;" x="273.141743" xlink:href="#m2b7f065254" y="25.578017"/>
     <use style="fill-opacity:0;stroke:#228b22;" x="352.599706" xlink:href="#m2b7f065254" y="25.578044"/>
     <use style="fill-opacity:0;stroke:#228b22;" x="432.057668" xlink:href="#m2b7f065254" y="25.578062"/>
    </g>
   </g>
   <g id="line2d_85"/>
   <g id="line2d_86">
    <defs>
     <path d="M 0 14.142136 
L 14.142136 0 
L 0 -14.142136 
L -14.142136 0 
z
" id="ma2f72ba30b" style="stroke:#ffc0cb;stroke-linejoin:miter;"/>
    </defs>
    <g clip-path="url(#pdaf16e5541)">
     <use style="fill-opacity:0;stroke:#ffc0cb;stroke-linejoin:miter;" x="34.767856" xlink:href="#ma2f72ba30b" y="25.574998"/>
     <use style="fill-opacity:0;stroke:#ffc0cb;stroke-linejoin:miter;" x="114.225818" xlink:href="#ma2f72ba30b" y="25.56521"/>
     <use style="fill-opacity:0;stroke:#ffc0cb;stroke-linejoin:miter;" x="193.683781" xlink:href="#ma2f72ba30b" y="25.562674"/>
     <use style="fill-opacity:0;stroke:#ffc0cb;stroke-linejoin:miter;" x="273.141743" xlink:href="#ma2f72ba30b" y="25.576135"/>
     <use style="fill-opacity:0;stroke:#ffc0cb;stroke-linejoin:miter;" x="352.599706" xlink:href="#ma2f72ba30b" y="25.577936"/>
     <use style="fill-opacity:0;stroke:#ffc0cb;stroke-linejoin:miter;" x="432.057668" xlink:href="#ma2f72ba30b" y="25.577235"/>
    </g>
   </g>
   <g id="line2d_87"/>
   <g id="line2d_88">
    <defs>
     <path d="M -10 -0 
L 10 10 
L 10 -10 
z
" id="m500c789905" style="stroke:#87ceeb;stroke-linejoin:miter;"/>
    </defs>
    <g clip-path="url(#pdaf16e5541)">
     <use style="fill-opacity:0;stroke:#87ceeb;stroke-linejoin:miter;" x="34.767856" xlink:href="#m500c789905" y="25.577721"/>
     <use style="fill-opacity:0;stroke:#87ceeb;stroke-linejoin:miter;" x="114.225818" xlink:href="#m500c789905" y="25.577875"/>
     <use style="fill-opacity:0;stroke:#87ceeb;stroke-linejoin:miter;" x="193.683781" xlink:href="#m500c789905" y="25.577959"/>
     <use style="fill-opacity:0;stroke:#87ceeb;stroke-linejoin:miter;" x="273.141743" xlink:href="#m500c789905" y="25.57802"/>
     <use style="fill-opacity:0;stroke:#87ceeb;stroke-linejoin:miter;" x="352.599706" xlink:href="#m500c789905" y="25.578044"/>
     <use style="fill-opacity:0;stroke:#87ceeb;stroke-linejoin:miter;" x="432.057668" xlink:href="#m500c789905" y="25.578064"/>
    </g>
   </g>
   <g id="line2d_89"/>
   <g id="line2d_90">
    <path clip-path="url(#pdaf16e5541)" d="M -1 311.624148 
L 461.8 207.882753 
" style="fill:none;stroke:#000000;stroke-dasharray:0.5,0.825;stroke-dashoffset:0;stroke-width:0.5;"/>
   </g>
   <g id="line2d_91">
    <path clip-path="url(#pdaf16e5541)" d="M -1 252.456217 
L 461.8 148.714822 
" style="fill:none;stroke:#000000;stroke-dasharray:0.5,0.825;stroke-dashoffset:0;stroke-width:0.5;"/>
   </g>
   <g id="line2d_92">
    <path clip-path="url(#pdaf16e5541)" d="M -1 193.288286 
L 461.8 89.546891 
" style="fill:none;stroke:#000000;stroke-dasharray:0.5,0.825;stroke-dashoffset:0;stroke-width:0.5;"/>
   </g>
   <g id="line2d_93">
    <path clip-path="url(#pdaf16e5541)" d="M -1 134.120355 
L 461.8 30.37896 
" style="fill:none;stroke:#000000;stroke-dasharray:0.5,0.825;stroke-dashoffset:0;stroke-width:0.5;"/>
   </g>
   <g id="line2d_94">
    <path clip-path="url(#pdaf16e5541)" d="M -1 74.952424 
L 337.83082 -1 
" style="fill:none;stroke:#000000;stroke-dasharray:0.5,0.825;stroke-dashoffset:0;stroke-width:0.5;"/>
   </g>
   <g id="line2d_95">
    <path clip-path="url(#pdaf16e5541)" d="M -1 15.784493 
L 73.877182 -1 
" style="fill:none;stroke:#000000;stroke-dasharray:0.5,0.825;stroke-dashoffset:0;stroke-width:0.5;"/>
   </g>
   <g id="line2d_96">
    <path clip-path="url(#pdaf16e5541)" style="fill:none;stroke:#000000;stroke-dasharray:0.5,0.825;stroke-dashoffset:0;stroke-width:0.5;"/>
   </g>
   <g id="line2d_97">
    <path clip-path="url(#pdaf16e5541)" style="fill:none;stroke:#000000;stroke-dasharray:0.5,0.825;stroke-dashoffset:0;stroke-width:0.5;"/>
   </g>
   <g id="line2d_98">
    <path clip-path="url(#pdaf16e5541)" style="fill:none;stroke:#000000;stroke-dasharray:0.5,0.825;stroke-dashoffset:0;stroke-width:0.5;"/>
   </g>
   <g id="patch_3">
    <path d="M 22.69 315.44 
L 22.69 25.56 
" style="fill:none;stroke:#000000;stroke-linecap:square;stroke-linejoin:miter;stroke-width:0.8;"/>
   </g>
   <g id="patch_4">
    <path d="M 445.559562 315.44 
L 445.559562 25.56 
" style="fill:none;stroke:#000000;stroke-linecap:square;stroke-linejoin:miter;stroke-width:0.8;"/>
   </g>
   <g id="patch_5">
    <path d="M 22.69 315.44 
L 445.559562 315.44 
" style="fill:none;stroke:#000000;stroke-linecap:square;stroke-linejoin:miter;stroke-width:0.8;"/>
   </g>
   <g id="patch_6">
    <path d="M 22.69 25.56 
L 445.559562 25.56 
" style="fill:none;stroke:#000000;stroke-linecap:square;stroke-linejoin:miter;stroke-width:0.8;"/>
   </g>
   <g id="text_12">
    <!-- 15 instances -->
    <defs>
     <path d="M 10.796875 72.90625 
L 49.515625 72.90625 
L 49.515625 64.59375 
L 19.828125 64.59375 
L 19.828125 46.734375 
Q 21.96875 47.46875 24.109375 47.828125 
Q 26.265625 48.1875 28.421875 48.1875 
Q 40.625 48.1875 47.75 41.5 
Q 54.890625 34.8125 54.890625 23.390625 
Q 54.890625 11.625 47.5625 5.09375 
Q 40.234375 -1.421875 26.90625 -1.421875 
Q 22.3125 -1.421875 17.546875 -0.640625 
Q 12.796875 0.140625 7.71875 1.703125 
L 7.71875 11.625 
Q 12.109375 9.234375 16.796875 8.0625 
Q 21.484375 6.890625 26.703125 6.890625 
Q 35.15625 6.890625 40.078125 11.328125 
Q 45.015625 15.765625 45.015625 23.390625 
Q 45.015625 31 40.078125 35.4375 
Q 35.15625 39.890625 26.703125 39.890625 
Q 22.75 39.890625 18.8125 39.015625 
Q 14.890625 38.140625 10.796875 36.28125 
z
" id="DejaVuSans-53"/>
     <path id="DejaVuSans-32"/>
     <path d="M 9.421875 54.6875 
L 18.40625 54.6875 
L 18.40625 0 
L 9.421875 0 
z
M 9.421875 75.984375 
L 18.40625 75.984375 
L 18.40625 64.59375 
L 9.421875 64.59375 
z
" id="DejaVuSans-105"/>
     <path d="M 54.890625 33.015625 
L 54.890625 0 
L 45.90625 0 
L 45.90625 32.71875 
Q 45.90625 40.484375 42.875 44.328125 
Q 39.84375 48.1875 33.796875 48.1875 
Q 26.515625 48.1875 22.3125 43.546875 
Q 18.109375 38.921875 18.109375 30.90625 
L 18.109375 0 
L 9.078125 0 
L 9.078125 54.6875 
L 18.109375 54.6875 
L 18.109375 46.1875 
Q 21.34375 51.125 25.703125 53.5625 
Q 30.078125 56 35.796875 56 
Q 45.21875 56 50.046875 50.171875 
Q 54.890625 44.34375 54.890625 33.015625 
z
" id="DejaVuSans-110"/>
     <path d="M 44.28125 53.078125 
L 44.28125 44.578125 
Q 40.484375 46.53125 36.375 47.5 
Q 32.28125 48.484375 27.875 48.484375 
Q 21.1875 48.484375 17.84375 46.4375 
Q 14.5 44.390625 14.5 40.28125 
Q 14.5 37.15625 16.890625 35.375 
Q 19.28125 33.59375 26.515625 31.984375 
L 29.59375 31.296875 
Q 39.15625 29.25 43.1875 25.515625 
Q 47.21875 21.78125 47.21875 15.09375 
Q 47.21875 7.46875 41.1875 3.015625 
Q 35.15625 -1.421875 24.609375 -1.421875 
Q 20.21875 -1.421875 15.453125 -0.5625 
Q 10.6875 0.296875 5.421875 2 
L 5.421875 11.28125 
Q 10.40625 8.6875 15.234375 7.390625 
Q 20.0625 6.109375 24.8125 6.109375 
Q 31.15625 6.109375 34.5625 8.28125 
Q 37.984375 10.453125 37.984375 14.40625 
Q 37.984375 18.0625 35.515625 20.015625 
Q 33.0625 21.96875 24.703125 23.78125 
L 21.578125 24.515625 
Q 13.234375 26.265625 9.515625 29.90625 
Q 5.8125 33.546875 5.8125 39.890625 
Q 5.8125 47.609375 11.28125 51.796875 
Q 16.75 56 26.8125 56 
Q 31.78125 56 36.171875 55.265625 
Q 40.578125 54.546875 44.28125 53.078125 
z
" id="DejaVuSans-115"/>
     <path d="M 18.3125 70.21875 
L 18.3125 54.6875 
L 36.8125 54.6875 
L 36.8125 47.703125 
L 18.3125 47.703125 
L 18.3125 18.015625 
Q 18.3125 11.328125 20.140625 9.421875 
Q 21.96875 7.515625 27.59375 7.515625 
L 36.8125 7.515625 
L 36.8125 0 
L 27.59375 0 
Q 17.1875 0 13.234375 3.875 
Q 9.28125 7.765625 9.28125 18.015625 
L 9.28125 47.703125 
L 2.6875 47.703125 
L 2.6875 54.6875 
L 9.28125 54.6875 
L 9.28125 70.21875 
z
" id="DejaVuSans-116"/>
     <path d="M 34.28125 27.484375 
Q 23.390625 27.484375 19.1875 25 
Q 14.984375 22.515625 14.984375 16.5 
Q 14.984375 11.71875 18.140625 8.90625 
Q 21.296875 6.109375 26.703125 6.109375 
Q 34.1875 6.109375 38.703125 11.40625 
Q 43.21875 16.703125 43.21875 25.484375 
L 43.21875 27.484375 
z
M 52.203125 31.203125 
L 52.203125 0 
L 43.21875 0 
L 43.21875 8.296875 
Q 40.140625 3.328125 35.546875 0.953125 
Q 30.953125 -1.421875 24.3125 -1.421875 
Q 15.921875 -1.421875 10.953125 3.296875 
Q 6 8.015625 6 15.921875 
Q 6 25.140625 12.171875 29.828125 
Q 18.359375 34.515625 30.609375 34.515625 
L 43.21875 34.515625 
L 43.21875 35.40625 
Q 43.21875 41.609375 39.140625 45 
Q 35.0625 48.390625 27.6875 48.390625 
Q 23 48.390625 18.546875 47.265625 
Q 14.109375 46.140625 10.015625 43.890625 
L 10.015625 52.203125 
Q 14.9375 54.109375 19.578125 55.046875 
Q 24.21875 56 28.609375 56 
Q 40.484375 56 46.34375 49.84375 
Q 52.203125 43.703125 52.203125 31.203125 
z
" id="DejaVuSans-97"/>
     <path d="M 48.78125 52.59375 
L 48.78125 44.1875 
Q 44.96875 46.296875 41.140625 47.34375 
Q 37.3125 48.390625 33.40625 48.390625 
Q 24.65625 48.390625 19.8125 42.84375 
Q 14.984375 37.3125 14.984375 27.296875 
Q 14.984375 17.28125 19.8125 11.734375 
Q 24.65625 6.203125 33.40625 6.203125 
Q 37.3125 6.203125 41.140625 7.25 
Q 44.96875 8.296875 48.78125 10.40625 
L 48.78125 2.09375 
Q 45.015625 0.34375 40.984375 -0.53125 
Q 36.96875 -1.421875 32.421875 -1.421875 
Q 20.0625 -1.421875 12.78125 6.34375 
Q 5.515625 14.109375 5.515625 27.296875 
Q 5.515625 40.671875 12.859375 48.328125 
Q 20.21875 56 33.015625 56 
Q 37.15625 56 41.109375 55.140625 
Q 45.0625 54.296875 48.78125 52.59375 
z
" id="DejaVuSans-99"/>
     <path d="M 56.203125 29.59375 
L 56.203125 25.203125 
L 14.890625 25.203125 
Q 15.484375 15.921875 20.484375 11.0625 
Q 25.484375 6.203125 34.421875 6.203125 
Q 39.59375 6.203125 44.453125 7.46875 
Q 49.3125 8.734375 54.109375 11.28125 
L 54.109375 2.78125 
Q 49.265625 0.734375 44.1875 -0.34375 
Q 39.109375 -1.421875 33.890625 -1.421875 
Q 20.796875 -1.421875 13.15625 6.1875 
Q 5.515625 13.8125 5.515625 26.8125 
Q 5.515625 40.234375 12.765625 48.109375 
Q 20.015625 56 32.328125 56 
Q 43.359375 56 49.78125 48.890625 
Q 56.203125 41.796875 56.203125 29.59375 
z
M 47.21875 32.234375 
Q 47.125 39.59375 43.09375 43.984375 
Q 39.0625 48.390625 32.421875 48.390625 
Q 24.90625 48.390625 20.390625 44.140625 
Q 15.875 39.890625 15.1875 32.171875 
z
" id="DejaVuSans-101"/>
    </defs>
    <g transform="translate(22.69 296.8515)scale(0.14 -0.14)">
     <use xlink:href="#DejaVuSans-49"/>
     <use x="63.623047" xlink:href="#DejaVuSans-53"/>
     <use x="127.246094" xlink:href="#DejaVuSans-32"/>
     <use x="159.033203" xlink:href="#DejaVuSans-105"/>
     <use x="186.816406" xlink:href="#DejaVuSans-110"/>
     <use x="250.195312" xlink:href="#DejaVuSans-115"/>
     <use x="302.294922" xlink:href="#DejaVuSans-116"/>
     <use x="341.503906" xlink:href="#DejaVuSans-97"/>
     <use x="402.783203" xlink:href="#DejaVuSans-110"/>
     <use x="466.162109" xlink:href="#DejaVuSans-99"/>
     <use x="521.142578" xlink:href="#DejaVuSans-101"/>
     <use x="582.666016" xlink:href="#DejaVuSans-115"/>
    </g>
    <!-- target Df: 1e-8 -->
    <defs>
     <path d="M 41.109375 46.296875 
Q 39.59375 47.171875 37.8125 47.578125 
Q 36.03125 48 33.890625 48 
Q 26.265625 48 22.1875 43.046875 
Q 18.109375 38.09375 18.109375 28.8125 
L 18.109375 0 
L 9.078125 0 
L 9.078125 54.6875 
L 18.109375 54.6875 
L 18.109375 46.1875 
Q 20.953125 51.171875 25.484375 53.578125 
Q 30.03125 56 36.53125 56 
Q 37.453125 56 38.578125 55.875 
Q 39.703125 55.765625 41.0625 55.515625 
z
" id="DejaVuSans-114"/>
     <path d="M 45.40625 27.984375 
Q 45.40625 37.75 41.375 43.109375 
Q 37.359375 48.484375 30.078125 48.484375 
Q 22.859375 48.484375 18.828125 43.109375 
Q 14.796875 37.75 14.796875 27.984375 
Q 14.796875 18.265625 18.828125 12.890625 
Q 22.859375 7.515625 30.078125 7.515625 
Q 37.359375 7.515625 41.375 12.890625 
Q 45.40625 18.265625 45.40625 27.984375 
z
M 54.390625 6.78125 
Q 54.390625 -7.171875 48.1875 -13.984375 
Q 42 -20.796875 29.203125 -20.796875 
Q 24.46875 -20.796875 20.265625 -20.09375 
Q 16.0625 -19.390625 12.109375 -17.921875 
L 12.109375 -9.1875 
Q 16.0625 -11.328125 19.921875 -12.34375 
Q 23.78125 -13.375 27.78125 -13.375 
Q 36.625 -13.375 41.015625 -8.765625 
Q 45.40625 -4.15625 45.40625 5.171875 
L 45.40625 9.625 
Q 42.625 4.78125 38.28125 2.390625 
Q 33.9375 0 27.875 0 
Q 17.828125 0 11.671875 7.65625 
Q 5.515625 15.328125 5.515625 27.984375 
Q 5.515625 40.671875 11.671875 48.328125 
Q 17.828125 56 27.875 56 
Q 33.9375 56 38.28125 53.609375 
Q 42.625 51.21875 45.40625 46.390625 
L 45.40625 54.6875 
L 54.390625 54.6875 
z
" id="DejaVuSans-103"/>
     <path d="M 19.671875 64.796875 
L 19.671875 8.109375 
L 31.59375 8.109375 
Q 46.6875 8.109375 53.6875 14.9375 
Q 60.6875 21.78125 60.6875 36.53125 
Q 60.6875 51.171875 53.6875 57.984375 
Q 46.6875 64.796875 31.59375 64.796875 
z
M 9.8125 72.90625 
L 30.078125 72.90625 
Q 51.265625 72.90625 61.171875 64.09375 
Q 71.09375 55.28125 71.09375 36.53125 
Q 71.09375 17.671875 61.125 8.828125 
Q 51.171875 0 30.078125 0 
L 9.8125 0 
z
" id="DejaVuSans-68"/>
     <path d="M 37.109375 75.984375 
L 37.109375 68.5 
L 28.515625 68.5 
Q 23.6875 68.5 21.796875 66.546875 
Q 19.921875 64.59375 19.921875 59.515625 
L 19.921875 54.6875 
L 34.71875 54.6875 
L 34.71875 47.703125 
L 19.921875 47.703125 
L 19.921875 0 
L 10.890625 0 
L 10.890625 47.703125 
L 2.296875 47.703125 
L 2.296875 54.6875 
L 10.890625 54.6875 
L 10.890625 58.5 
Q 10.890625 67.625 15.140625 71.796875 
Q 19.390625 75.984375 28.609375 75.984375 
z
" id="DejaVuSans-102"/>
     <path d="M 11.71875 12.40625 
L 22.015625 12.40625 
L 22.015625 0 
L 11.71875 0 
z
M 11.71875 51.703125 
L 22.015625 51.703125 
L 22.015625 39.3125 
L 11.71875 39.3125 
z
" id="DejaVuSans-58"/>
     <path d="M 4.890625 31.390625 
L 31.203125 31.390625 
L 31.203125 23.390625 
L 4.890625 23.390625 
z
" id="DejaVuSans-45"/>
    </defs>
    <g transform="translate(22.69 312.528437)scale(0.14 -0.14)">
     <use xlink:href="#DejaVuSans-116"/>
     <use x="39.208984" xlink:href="#DejaVuSans-97"/>
     <use x="100.488281" xlink:href="#DejaVuSans-114"/>
     <use x="141.585938" xlink:href="#DejaVuSans-103"/>
     <use x="205.0625" xlink:href="#DejaVuSans-101"/>
     <use x="266.585938" xlink:href="#DejaVuSans-116"/>
     <use x="305.794922" xlink:href="#DejaVuSans-32"/>
     <use x="337.582031" xlink:href="#DejaVuSans-68"/>
     <use x="414.583984" xlink:href="#DejaVuSans-102"/>
     <use x="449.742188" xlink:href="#DejaVuSans-58"/>
     <use x="483.433594" xlink:href="#DejaVuSans-32"/>
     <use x="515.220703" xlink:href="#DejaVuSans-49"/>
     <use x="578.84375" xlink:href="#DejaVuSans-101"/>
     <use x="640.367188" xlink:href="#DejaVuSans-45"/>
     <use x="676.451172" xlink:href="#DejaVuSans-56"/>
    </g>
   </g>
   <g id="text_13">
    <!-- v2.3.3.7 -->
    <defs>
     <path d="M 2.984375 54.6875 
L 12.5 54.6875 
L 29.59375 8.796875 
L 46.6875 54.6875 
L 56.203125 54.6875 
L 35.6875 0 
L 23.484375 0 
z
" id="DejaVuSans-118"/>
     <path d="M 10.6875 12.40625 
L 21 12.40625 
L 21 0 
L 10.6875 0 
z
" id="DejaVuSans-46"/>
     <path d="M 8.203125 72.90625 
L 55.078125 72.90625 
L 55.078125 68.703125 
L 28.609375 0 
L 18.3125 0 
L 43.21875 64.59375 
L 8.203125 64.59375 
z
" id="DejaVuSans-55"/>
    </defs>
    <g style="fill:#808080;" transform="translate(213.673219 310.461512)scale(0.1 -0.1)">
     <use xlink:href="#DejaVuSans-118"/>
     <use x="59.179688" xlink:href="#DejaVuSans-50"/>
     <use x="122.802734" xlink:href="#DejaVuSans-46"/>
     <use x="154.589844" xlink:href="#DejaVuSans-51"/>
     <use x="218.212891" xlink:href="#DejaVuSans-46"/>
     <use x="250" xlink:href="#DejaVuSans-51"/>
     <use x="313.623047" xlink:href="#DejaVuSans-46"/>
     <use x="345.410156" xlink:href="#DejaVuSans-55"/>
    </g>
   </g>
   <g id="text_14">
    <!-- 24 Lunacek bi-Rastrigin -->
    <defs>
     <path d="M 9.8125 72.90625 
L 19.671875 72.90625 
L 19.671875 8.296875 
L 55.171875 8.296875 
L 55.171875 0 
L 9.8125 0 
z
" id="DejaVuSans-76"/>
     <path d="M 8.5 21.578125 
L 8.5 54.6875 
L 17.484375 54.6875 
L 17.484375 21.921875 
Q 17.484375 14.15625 20.5 10.265625 
Q 23.53125 6.390625 29.59375 6.390625 
Q 36.859375 6.390625 41.078125 11.03125 
Q 45.3125 15.671875 45.3125 23.6875 
L 45.3125 54.6875 
L 54.296875 54.6875 
L 54.296875 0 
L 45.3125 0 
L 45.3125 8.40625 
Q 42.046875 3.421875 37.71875 1 
Q 33.40625 -1.421875 27.6875 -1.421875 
Q 18.265625 -1.421875 13.375 4.4375 
Q 8.5 10.296875 8.5 21.578125 
z
M 31.109375 56 
z
" id="DejaVuSans-117"/>
     <path d="M 9.078125 75.984375 
L 18.109375 75.984375 
L 18.109375 31.109375 
L 44.921875 54.6875 
L 56.390625 54.6875 
L 27.390625 29.109375 
L 57.625 0 
L 45.90625 0 
L 18.109375 26.703125 
L 18.109375 0 
L 9.078125 0 
z
" id="DejaVuSans-107"/>
     <path d="M 48.6875 27.296875 
Q 48.6875 37.203125 44.609375 42.84375 
Q 40.53125 48.484375 33.40625 48.484375 
Q 26.265625 48.484375 22.1875 42.84375 
Q 18.109375 37.203125 18.109375 27.296875 
Q 18.109375 17.390625 22.1875 11.75 
Q 26.265625 6.109375 33.40625 6.109375 
Q 40.53125 6.109375 44.609375 11.75 
Q 48.6875 17.390625 48.6875 27.296875 
z
M 18.109375 46.390625 
Q 20.953125 51.265625 25.265625 53.625 
Q 29.59375 56 35.59375 56 
Q 45.5625 56 51.78125 48.09375 
Q 58.015625 40.1875 58.015625 27.296875 
Q 58.015625 14.40625 51.78125 6.484375 
Q 45.5625 -1.421875 35.59375 -1.421875 
Q 29.59375 -1.421875 25.265625 0.953125 
Q 20.953125 3.328125 18.109375 8.203125 
L 18.109375 0 
L 9.078125 0 
L 9.078125 75.984375 
L 18.109375 75.984375 
z
" id="DejaVuSans-98"/>
     <path d="M 44.390625 34.1875 
Q 47.5625 33.109375 50.5625 29.59375 
Q 53.5625 26.078125 56.59375 19.921875 
L 66.609375 0 
L 56 0 
L 46.6875 18.703125 
Q 43.0625 26.03125 39.671875 28.421875 
Q 36.28125 30.8125 30.421875 30.8125 
L 19.671875 30.8125 
L 19.671875 0 
L 9.8125 0 
L 9.8125 72.90625 
L 32.078125 72.90625 
Q 44.578125 72.90625 50.734375 67.671875 
Q 56.890625 62.453125 56.890625 51.90625 
Q 56.890625 45.015625 53.6875 40.46875 
Q 50.484375 35.9375 44.390625 34.1875 
z
M 19.671875 64.796875 
L 19.671875 38.921875 
L 32.078125 38.921875 
Q 39.203125 38.921875 42.84375 42.21875 
Q 46.484375 45.515625 46.484375 51.90625 
Q 46.484375 58.296875 42.84375 61.546875 
Q 39.203125 64.796875 32.078125 64.796875 
z
" id="DejaVuSans-82"/>
    </defs>
    <g transform="translate(106.482281 19.56)scale(0.216 -0.216)">
     <use xlink:href="#DejaVuSans-50"/>
     <use x="63.623047" xlink:href="#DejaVuSans-52"/>
     <use x="127.246094" xlink:href="#DejaVuSans-32"/>
     <use x="159.033203" xlink:href="#DejaVuSans-76"/>
     <use x="214.730469" xlink:href="#DejaVuSans-117"/>
     <use x="278.109375" xlink:href="#DejaVuSans-110"/>
     <use x="341.488281" xlink:href="#DejaVuSans-97"/>
     <use x="402.767578" xlink:href="#DejaVuSans-99"/>
     <use x="457.748047" xlink:href="#DejaVuSans-101"/>
     <use x="519.271484" xlink:href="#DejaVuSans-107"/>
     <use x="577.181641" xlink:href="#DejaVuSans-32"/>
     <use x="608.96875" xlink:href="#DejaVuSans-98"/>
     <use x="672.445312" xlink:href="#DejaVuSans-105"/>
     <use x="700.228516" xlink:href="#DejaVuSans-45"/>
     <use x="736.3125" xlink:href="#DejaVuSans-82"/>
     <use x="805.763672" xlink:href="#DejaVuSans-97"/>
     <use x="867.042969" xlink:href="#DejaVuSans-115"/>
     <use x="919.142578" xlink:href="#DejaVuSans-116"/>
     <use x="958.351562" xlink:href="#DejaVuSans-114"/>
     <use x="999.464844" xlink:href="#DejaVuSans-105"/>
     <use x="1027.248047" xlink:href="#DejaVuSans-103"/>
     <use x="1090.724609" xlink:href="#DejaVuSans-105"/>
     <use x="1118.507812" xlink:href="#DejaVuSans-110"/>
    </g>
   </g>
   <g id="legend_1">
    <g id="patch_7">
     <path d="M 320.573211 310.391258 
L 438.491323 310.391258 
Q 440.51082 310.391258 440.51082 308.371761 
L 440.51082 146.34815 
Q 440.51082 144.328653 438.491323 144.328653 
L 320.573211 144.328653 
Q 318.553714 144.328653 318.553714 146.34815 
L 318.553714 308.371761 
Q 318.553714 310.391258 320.573211 310.391258 
z
" style="fill:#ffffff;opacity:0.2;stroke:#cccccc;stroke-linejoin:miter;"/>
    </g>
    <g id="line2d_99">
     <path d="M 322.592707 152.506038 
L 342.787677 152.506038 
" style="fill:none;stroke:#000080;stroke-linecap:square;stroke-width:4;"/>
    </g>
    <g id="line2d_100">
     <defs>
      <path d="M 0 6 
C 1.591219 6 3.117479 5.367802 4.242641 4.242641 
C 5.367802 3.117479 6 1.591219 6 0 
C 6 -1.591219 5.367802 -3.117479 4.242641 -4.242641 
C 3.117479 -5.367802 1.591219 -6 0 -6 
C -1.591219 -6 -3.117479 -5.367802 -4.242641 -4.242641 
C -5.367802 -3.117479 -6 -1.591219 -6 0 
C -6 1.591219 -5.367802 3.117479 -4.242641 4.242641 
C -3.117479 5.367802 -1.591219 6 0 6 
z
" id="m00d26667f9" style="stroke:#000080;stroke-width:3;"/>
     </defs>
     <g>
      <use style="fill-opacity:0;stroke:#000080;stroke-width:3;" x="332.690192" xlink:href="#m00d26667f9" y="152.506038"/>
     </g>
    </g>
    <g id="text_15">
     <!-- CMA largescale -->
     <defs>
      <path d="M 64.40625 67.28125 
L 64.40625 56.890625 
Q 59.421875 61.53125 53.78125 63.8125 
Q 48.140625 66.109375 41.796875 66.109375 
Q 29.296875 66.109375 22.65625 58.46875 
Q 16.015625 50.828125 16.015625 36.375 
Q 16.015625 21.96875 22.65625 14.328125 
Q 29.296875 6.6875 41.796875 6.6875 
Q 48.140625 6.6875 53.78125 8.984375 
Q 59.421875 11.28125 64.40625 15.921875 
L 64.40625 5.609375 
Q 59.234375 2.09375 53.4375 0.328125 
Q 47.65625 -1.421875 41.21875 -1.421875 
Q 24.65625 -1.421875 15.125 8.703125 
Q 5.609375 18.84375 5.609375 36.375 
Q 5.609375 53.953125 15.125 64.078125 
Q 24.65625 74.21875 41.21875 74.21875 
Q 47.75 74.21875 53.53125 72.484375 
Q 59.328125 70.75 64.40625 67.28125 
z
" id="DejaVuSans-67"/>
      <path d="M 9.8125 72.90625 
L 24.515625 72.90625 
L 43.109375 23.296875 
L 61.8125 72.90625 
L 76.515625 72.90625 
L 76.515625 0 
L 66.890625 0 
L 66.890625 64.015625 
L 48.09375 14.015625 
L 38.1875 14.015625 
L 19.390625 64.015625 
L 19.390625 0 
L 9.8125 0 
z
" id="DejaVuSans-77"/>
      <path d="M 34.1875 63.1875 
L 20.796875 26.90625 
L 47.609375 26.90625 
z
M 28.609375 72.90625 
L 39.796875 72.90625 
L 67.578125 0 
L 57.328125 0 
L 50.6875 18.703125 
L 17.828125 18.703125 
L 11.1875 0 
L 0.78125 0 
z
" id="DejaVuSans-65"/>
      <path d="M 9.421875 75.984375 
L 18.40625 75.984375 
L 18.40625 0 
L 9.421875 0 
z
" id="DejaVuSans-108"/>
     </defs>
     <g transform="translate(350.865665 156.040158)scale(0.100975 -0.100975)">
      <use xlink:href="#DejaVuSans-67"/>
      <use x="69.824219" xlink:href="#DejaVuSans-77"/>
      <use x="156.103516" xlink:href="#DejaVuSans-65"/>
      <use x="224.511719" xlink:href="#DejaVuSans-32"/>
      <use x="256.298828" xlink:href="#DejaVuSans-108"/>
      <use x="284.082031" xlink:href="#DejaVuSans-97"/>
      <use x="345.361328" xlink:href="#DejaVuSans-114"/>
      <use x="386.458984" xlink:href="#DejaVuSans-103"/>
      <use x="449.935547" xlink:href="#DejaVuSans-101"/>
      <use x="511.458984" xlink:href="#DejaVuSans-115"/>
      <use x="563.558594" xlink:href="#DejaVuSans-99"/>
      <use x="618.539062" xlink:href="#DejaVuSans-97"/>
      <use x="679.818359" xlink:href="#DejaVuSans-108"/>
      <use x="707.601562" xlink:href="#DejaVuSans-101"/>
     </g>
    </g>
    <g id="line2d_101">
     <path d="M 322.592707 167.327253 
L 342.787677 167.327253 
" style="fill:none;stroke:#ff00ff;stroke-linecap:square;stroke-width:3.666667;"/>
    </g>
    <g id="line2d_102">
     <defs>
      <path d="M 0 8.485281 
L 5.091169 0 
L 0 -8.485281 
L -5.091169 0 
z
" id="m3d63717da0" style="stroke:#ff00ff;stroke-linejoin:miter;stroke-width:2.5;"/>
     </defs>
     <g>
      <use style="fill-opacity:0;stroke:#ff00ff;stroke-linejoin:miter;stroke-width:2.5;" x="332.690192" xlink:href="#m3d63717da0" y="167.327253"/>
     </g>
    </g>
    <g id="text_16">
     <!-- LBFGS largesca -->
     <defs>
      <path d="M 19.671875 34.8125 
L 19.671875 8.109375 
L 35.5 8.109375 
Q 43.453125 8.109375 47.28125 11.40625 
Q 51.125 14.703125 51.125 21.484375 
Q 51.125 28.328125 47.28125 31.5625 
Q 43.453125 34.8125 35.5 34.8125 
z
M 19.671875 64.796875 
L 19.671875 42.828125 
L 34.28125 42.828125 
Q 41.5 42.828125 45.03125 45.53125 
Q 48.578125 48.25 48.578125 53.8125 
Q 48.578125 59.328125 45.03125 62.0625 
Q 41.5 64.796875 34.28125 64.796875 
z
M 9.8125 72.90625 
L 35.015625 72.90625 
Q 46.296875 72.90625 52.390625 68.21875 
Q 58.5 63.53125 58.5 54.890625 
Q 58.5 48.1875 55.375 44.234375 
Q 52.25 40.28125 46.1875 39.3125 
Q 53.46875 37.75 57.5 32.78125 
Q 61.53125 27.828125 61.53125 20.40625 
Q 61.53125 10.640625 54.890625 5.3125 
Q 48.25 0 35.984375 0 
L 9.8125 0 
z
" id="DejaVuSans-66"/>
      <path d="M 9.8125 72.90625 
L 51.703125 72.90625 
L 51.703125 64.59375 
L 19.671875 64.59375 
L 19.671875 43.109375 
L 48.578125 43.109375 
L 48.578125 34.8125 
L 19.671875 34.8125 
L 19.671875 0 
L 9.8125 0 
z
" id="DejaVuSans-70"/>
      <path d="M 59.515625 10.40625 
L 59.515625 29.984375 
L 43.40625 29.984375 
L 43.40625 38.09375 
L 69.28125 38.09375 
L 69.28125 6.78125 
Q 63.578125 2.734375 56.6875 0.65625 
Q 49.8125 -1.421875 42 -1.421875 
Q 24.90625 -1.421875 15.25 8.5625 
Q 5.609375 18.5625 5.609375 36.375 
Q 5.609375 54.25 15.25 64.234375 
Q 24.90625 74.21875 42 74.21875 
Q 49.125 74.21875 55.546875 72.453125 
Q 61.96875 70.703125 67.390625 67.28125 
L 67.390625 56.78125 
Q 61.921875 61.421875 55.765625 63.765625 
Q 49.609375 66.109375 42.828125 66.109375 
Q 29.4375 66.109375 22.71875 58.640625 
Q 16.015625 51.171875 16.015625 36.375 
Q 16.015625 21.625 22.71875 14.15625 
Q 29.4375 6.6875 42.828125 6.6875 
Q 48.046875 6.6875 52.140625 7.59375 
Q 56.25 8.5 59.515625 10.40625 
z
" id="DejaVuSans-71"/>
      <path d="M 53.515625 70.515625 
L 53.515625 60.890625 
Q 47.90625 63.578125 42.921875 64.890625 
Q 37.9375 66.21875 33.296875 66.21875 
Q 25.25 66.21875 20.875 63.09375 
Q 16.5 59.96875 16.5 54.203125 
Q 16.5 49.359375 19.40625 46.890625 
Q 22.3125 44.4375 30.421875 42.921875 
L 36.375 41.703125 
Q 47.40625 39.59375 52.65625 34.296875 
Q 57.90625 29 57.90625 20.125 
Q 57.90625 9.515625 50.796875 4.046875 
Q 43.703125 -1.421875 29.984375 -1.421875 
Q 24.8125 -1.421875 18.96875 -0.25 
Q 13.140625 0.921875 6.890625 3.21875 
L 6.890625 13.375 
Q 12.890625 10.015625 18.65625 8.296875 
Q 24.421875 6.59375 29.984375 6.59375 
Q 38.421875 6.59375 43.015625 9.90625 
Q 47.609375 13.234375 47.609375 19.390625 
Q 47.609375 24.75 44.3125 27.78125 
Q 41.015625 30.8125 33.5 32.328125 
L 27.484375 33.5 
Q 16.453125 35.6875 11.515625 40.375 
Q 6.59375 45.0625 6.59375 53.421875 
Q 6.59375 63.09375 13.40625 68.65625 
Q 20.21875 74.21875 32.171875 74.21875 
Q 37.3125 74.21875 42.625 73.28125 
Q 47.953125 72.359375 53.515625 70.515625 
z
" id="DejaVuSans-83"/>
     </defs>
     <g transform="translate(350.865665 170.861372)scale(0.100975 -0.100975)">
      <use xlink:href="#DejaVuSans-76"/>
      <use x="55.712891" xlink:href="#DejaVuSans-66"/>
      <use x="124.316406" xlink:href="#DejaVuSans-70"/>
      <use x="181.835938" xlink:href="#DejaVuSans-71"/>
      <use x="259.326172" xlink:href="#DejaVuSans-83"/>
      <use x="322.802734" xlink:href="#DejaVuSans-32"/>
      <use x="354.589844" xlink:href="#DejaVuSans-108"/>
      <use x="382.373047" xlink:href="#DejaVuSans-97"/>
      <use x="443.652344" xlink:href="#DejaVuSans-114"/>
      <use x="484.75" xlink:href="#DejaVuSans-103"/>
      <use x="548.226562" xlink:href="#DejaVuSans-101"/>
      <use x="609.75" xlink:href="#DejaVuSans-115"/>
      <use x="661.849609" xlink:href="#DejaVuSans-99"/>
      <use x="716.830078" xlink:href="#DejaVuSans-97"/>
     </g>
    </g>
    <g id="line2d_103">
     <path d="M 322.592707 182.148467 
L 342.787677 182.148467 
" style="fill:none;stroke:#ffa500;stroke-linecap:square;stroke-width:3.333333;"/>
    </g>
    <g id="line2d_104">
     <defs>
      <path d="M 0 -6 
L -1.347084 -1.854102 
L -5.706339 -1.854102 
L -2.179628 0.708204 
L -3.526712 4.854102 
L -0 2.291796 
L 3.526712 4.854102 
L 2.179628 0.708204 
L 5.706339 -1.854102 
L 1.347084 -1.854102 
z
" id="m3aeb82eaa4" style="stroke:#ffa500;stroke-linejoin:bevel;stroke-width:2;"/>
     </defs>
     <g>
      <use style="fill-opacity:0;stroke:#ffa500;stroke-linejoin:bevel;stroke-width:2;" x="332.690192" xlink:href="#m3aeb82eaa4" y="182.148467"/>
     </g>
    </g>
    <g id="text_17">
     <!-- LMCMA14 larges -->
     <g transform="translate(350.865665 185.682587)scale(0.100975 -0.100975)">
      <use xlink:href="#DejaVuSans-76"/>
      <use x="55.712891" xlink:href="#DejaVuSans-77"/>
      <use x="141.992188" xlink:href="#DejaVuSans-67"/>
      <use x="211.816406" xlink:href="#DejaVuSans-77"/>
      <use x="298.095703" xlink:href="#DejaVuSans-65"/>
      <use x="366.503906" xlink:href="#DejaVuSans-49"/>
      <use x="430.126953" xlink:href="#DejaVuSans-52"/>
      <use x="493.75" xlink:href="#DejaVuSans-32"/>
      <use x="525.537109" xlink:href="#DejaVuSans-108"/>
      <use x="553.320312" xlink:href="#DejaVuSans-97"/>
      <use x="614.599609" xlink:href="#DejaVuSans-114"/>
      <use x="655.697266" xlink:href="#DejaVuSans-103"/>
      <use x="719.173828" xlink:href="#DejaVuSans-101"/>
      <use x="780.697266" xlink:href="#DejaVuSans-115"/>
     </g>
    </g>
    <g id="line2d_105">
     <path d="M 322.592707 196.969681 
L 342.787677 196.969681 
" style="fill:none;stroke:#6495ed;stroke-linecap:square;stroke-width:3;"/>
    </g>
    <g id="line2d_106">
     <defs>
      <path d="M -0 6 
L 6 -6 
L -6 -6 
z
" id="m3dfa5f7f8b" style="stroke:#6495ed;stroke-linejoin:miter;stroke-width:1.5;"/>
     </defs>
     <g>
      <use style="fill-opacity:0;stroke:#6495ed;stroke-linejoin:miter;stroke-width:1.5;" x="332.690192" xlink:href="#m3dfa5f7f8b" y="196.969681"/>
     </g>
    </g>
    <g id="text_18">
     <!-- LMCMA17 larges -->
     <g transform="translate(350.865665 200.503801)scale(0.100975 -0.100975)">
      <use xlink:href="#DejaVuSans-76"/>
      <use x="55.712891" xlink:href="#DejaVuSans-77"/>
      <use x="141.992188" xlink:href="#DejaVuSans-67"/>
      <use x="211.816406" xlink:href="#DejaVuSans-77"/>
      <use x="298.095703" xlink:href="#DejaVuSans-65"/>
      <use x="366.503906" xlink:href="#DejaVuSans-49"/>
      <use x="430.126953" xlink:href="#DejaVuSans-55"/>
      <use x="493.75" xlink:href="#DejaVuSans-32"/>
      <use x="525.537109" xlink:href="#DejaVuSans-108"/>
      <use x="553.320312" xlink:href="#DejaVuSans-97"/>
      <use x="614.599609" xlink:href="#DejaVuSans-114"/>
      <use x="655.697266" xlink:href="#DejaVuSans-103"/>
      <use x="719.173828" xlink:href="#DejaVuSans-101"/>
      <use x="780.697266" xlink:href="#DejaVuSans-115"/>
     </g>
    </g>
    <g id="line2d_107">
     <path d="M 322.592707 211.790896 
L 342.787677 211.790896 
" style="fill:none;stroke:#ff0000;stroke-linecap:square;stroke-width:2.666667;"/>
    </g>
    <g id="line2d_108">
     <defs>
      <path d="M 0 -6 
L -5.196152 -3 
L -5.196152 3 
L -0 6 
L 5.196152 3 
L 5.196152 -3 
z
" id="m072426c7b8" style="stroke:#ff0000;stroke-linejoin:miter;"/>
     </defs>
     <g>
      <use style="fill-opacity:0;stroke:#ff0000;stroke-linejoin:miter;" x="332.690192" xlink:href="#m072426c7b8" y="211.790896"/>
     </g>
    </g>
    <g id="text_19">
     <!-- R10ES largesca -->
     <defs>
      <path d="M 9.8125 72.90625 
L 55.90625 72.90625 
L 55.90625 64.59375 
L 19.671875 64.59375 
L 19.671875 43.015625 
L 54.390625 43.015625 
L 54.390625 34.71875 
L 19.671875 34.71875 
L 19.671875 8.296875 
L 56.78125 8.296875 
L 56.78125 0 
L 9.8125 0 
z
" id="DejaVuSans-69"/>
     </defs>
     <g transform="translate(350.865665 215.325016)scale(0.100975 -0.100975)">
      <use xlink:href="#DejaVuSans-82"/>
      <use x="69.482422" xlink:href="#DejaVuSans-49"/>
      <use x="133.105469" xlink:href="#DejaVuSans-48"/>
      <use x="196.728516" xlink:href="#DejaVuSans-69"/>
      <use x="259.912109" xlink:href="#DejaVuSans-83"/>
      <use x="323.388672" xlink:href="#DejaVuSans-32"/>
      <use x="355.175781" xlink:href="#DejaVuSans-108"/>
      <use x="382.958984" xlink:href="#DejaVuSans-97"/>
      <use x="444.238281" xlink:href="#DejaVuSans-114"/>
      <use x="485.335938" xlink:href="#DejaVuSans-103"/>
      <use x="548.8125" xlink:href="#DejaVuSans-101"/>
      <use x="610.335938" xlink:href="#DejaVuSans-115"/>
      <use x="662.435547" xlink:href="#DejaVuSans-99"/>
      <use x="717.416016" xlink:href="#DejaVuSans-97"/>
     </g>
    </g>
    <g id="line2d_109">
     <path d="M 322.592707 226.61211 
L 342.787677 226.61211 
" style="fill:none;stroke:#9acd32;stroke-linecap:square;stroke-width:2.333333;"/>
    </g>
    <g id="line2d_110">
     <defs>
      <path d="M 0 -6 
L -6 6 
L 6 6 
z
" id="mdb0f319f97" style="stroke:#9acd32;stroke-linejoin:miter;"/>
     </defs>
     <g>
      <use style="fill-opacity:0;stroke:#9acd32;stroke-linejoin:miter;" x="332.690192" xlink:href="#mdb0f319f97" y="226.61211"/>
     </g>
    </g>
    <g id="text_20">
     <!-- R2ES largescal -->
     <g transform="translate(350.865665 230.14623)scale(0.100975 -0.100975)">
      <use xlink:href="#DejaVuSans-82"/>
      <use x="69.482422" xlink:href="#DejaVuSans-50"/>
      <use x="133.105469" xlink:href="#DejaVuSans-69"/>
      <use x="196.289062" xlink:href="#DejaVuSans-83"/>
      <use x="259.765625" xlink:href="#DejaVuSans-32"/>
      <use x="291.552734" xlink:href="#DejaVuSans-108"/>
      <use x="319.335938" xlink:href="#DejaVuSans-97"/>
      <use x="380.615234" xlink:href="#DejaVuSans-114"/>
      <use x="421.712891" xlink:href="#DejaVuSans-103"/>
      <use x="485.189453" xlink:href="#DejaVuSans-101"/>
      <use x="546.712891" xlink:href="#DejaVuSans-115"/>
      <use x="598.8125" xlink:href="#DejaVuSans-99"/>
      <use x="653.792969" xlink:href="#DejaVuSans-97"/>
      <use x="715.072266" xlink:href="#DejaVuSans-108"/>
     </g>
    </g>
    <g id="line2d_111">
     <path d="M 322.592707 241.433325 
L 342.787677 241.433325 
" style="fill:none;stroke:#00bfbf;stroke-linecap:square;stroke-width:2;"/>
    </g>
    <g id="line2d_112">
     <defs>
      <path d="M 0 -6 
L -5.706339 -1.854102 
L -3.526712 4.854102 
L 3.526712 4.854102 
L 5.706339 -1.854102 
z
" id="m77255ec39f" style="stroke:#00bfbf;stroke-linejoin:miter;"/>
     </defs>
     <g>
      <use style="fill-opacity:0;stroke:#00bfbf;stroke-linejoin:miter;" x="332.690192" xlink:href="#m77255ec39f" y="241.433325"/>
     </g>
    </g>
    <g id="text_21">
     <!-- V2D-CMA larges -->
     <defs>
      <path d="M 28.609375 0 
L 0.78125 72.90625 
L 11.078125 72.90625 
L 34.1875 11.53125 
L 57.328125 72.90625 
L 67.578125 72.90625 
L 39.796875 0 
z
" id="DejaVuSans-86"/>
     </defs>
     <g transform="translate(350.865665 244.967445)scale(0.100975 -0.100975)">
      <use xlink:href="#DejaVuSans-86"/>
      <use x="68.408203" xlink:href="#DejaVuSans-50"/>
      <use x="132.03125" xlink:href="#DejaVuSans-68"/>
      <use x="209.033203" xlink:href="#DejaVuSans-45"/>
      <use x="245.117188" xlink:href="#DejaVuSans-67"/>
      <use x="314.941406" xlink:href="#DejaVuSans-77"/>
      <use x="401.220703" xlink:href="#DejaVuSans-65"/>
      <use x="469.628906" xlink:href="#DejaVuSans-32"/>
      <use x="501.416016" xlink:href="#DejaVuSans-108"/>
      <use x="529.199219" xlink:href="#DejaVuSans-97"/>
      <use x="590.478516" xlink:href="#DejaVuSans-114"/>
      <use x="631.576172" xlink:href="#DejaVuSans-103"/>
      <use x="695.052734" xlink:href="#DejaVuSans-101"/>
      <use x="756.576172" xlink:href="#DejaVuSans-115"/>
     </g>
    </g>
    <g id="line2d_113">
     <path d="M 322.592707 256.254539 
L 342.787677 256.254539 
" style="fill:none;stroke:#adff2f;stroke-linecap:square;stroke-width:2;"/>
    </g>
    <g id="line2d_114">
     <defs>
      <path d="M 0 0 
L -6 -0 
M 0 0 
L 3 4.8 
M 0 0 
L 3 -4.8 
" id="m9d6cc24113" style="stroke:#adff2f;"/>
     </defs>
     <g>
      <use style="fill-opacity:0;stroke:#adff2f;" x="332.690192" xlink:href="#m9d6cc24113" y="256.254539"/>
     </g>
    </g>
    <g id="text_22">
     <!-- VD-CMA largesc -->
     <g transform="translate(350.865665 259.788659)scale(0.100975 -0.100975)">
      <use xlink:href="#DejaVuSans-86"/>
      <use x="68.408203" xlink:href="#DejaVuSans-68"/>
      <use x="145.410156" xlink:href="#DejaVuSans-45"/>
      <use x="181.494141" xlink:href="#DejaVuSans-67"/>
      <use x="251.318359" xlink:href="#DejaVuSans-77"/>
      <use x="337.597656" xlink:href="#DejaVuSans-65"/>
      <use x="406.005859" xlink:href="#DejaVuSans-32"/>
      <use x="437.792969" xlink:href="#DejaVuSans-108"/>
      <use x="465.576172" xlink:href="#DejaVuSans-97"/>
      <use x="526.855469" xlink:href="#DejaVuSans-114"/>
      <use x="567.953125" xlink:href="#DejaVuSans-103"/>
      <use x="631.429688" xlink:href="#DejaVuSans-101"/>
      <use x="692.953125" xlink:href="#DejaVuSans-115"/>
      <use x="745.052734" xlink:href="#DejaVuSans-99"/>
     </g>
    </g>
    <g id="line2d_115">
     <path d="M 322.592707 271.075754 
L 342.787677 271.075754 
" style="fill:none;stroke:#228b22;stroke-linecap:square;stroke-width:2;"/>
    </g>
    <g id="line2d_116">
     <defs>
      <path d="M 0 0 
L 0 6 
M 0 0 
L 4.8 -3 
M 0 0 
L -4.8 -3 
" id="maf0ef8d6c7" style="stroke:#228b22;"/>
     </defs>
     <g>
      <use style="fill-opacity:0;stroke:#228b22;" x="332.690192" xlink:href="#maf0ef8d6c7" y="271.075754"/>
     </g>
    </g>
    <g id="text_23">
     <!-- VkD-CMA larges -->
     <g transform="translate(350.865665 274.609873)scale(0.100975 -0.100975)">
      <use xlink:href="#DejaVuSans-86"/>
      <use x="68.408203" xlink:href="#DejaVuSans-107"/>
      <use x="126.318359" xlink:href="#DejaVuSans-68"/>
      <use x="203.320312" xlink:href="#DejaVuSans-45"/>
      <use x="239.404297" xlink:href="#DejaVuSans-67"/>
      <use x="309.228516" xlink:href="#DejaVuSans-77"/>
      <use x="395.507812" xlink:href="#DejaVuSans-65"/>
      <use x="463.916016" xlink:href="#DejaVuSans-32"/>
      <use x="495.703125" xlink:href="#DejaVuSans-108"/>
      <use x="523.486328" xlink:href="#DejaVuSans-97"/>
      <use x="584.765625" xlink:href="#DejaVuSans-114"/>
      <use x="625.863281" xlink:href="#DejaVuSans-103"/>
      <use x="689.339844" xlink:href="#DejaVuSans-101"/>
      <use x="750.863281" xlink:href="#DejaVuSans-115"/>
     </g>
    </g>
    <g id="line2d_117">
     <path d="M 322.592707 285.896968 
L 342.787677 285.896968 
" style="fill:none;stroke:#ffc0cb;stroke-linecap:square;stroke-width:2;"/>
    </g>
    <g id="line2d_118">
     <defs>
      <path d="M 0 8.485281 
L 8.485281 0 
L 0 -8.485281 
L -8.485281 0 
z
" id="m8109a7dbe6" style="stroke:#ffc0cb;stroke-linejoin:miter;"/>
     </defs>
     <g>
      <use style="fill-opacity:0;stroke:#ffc0cb;stroke-linejoin:miter;" x="332.690192" xlink:href="#m8109a7dbe6" y="285.896968"/>
     </g>
    </g>
    <g id="text_24">
     <!-- m2DLBFGS large -->
     <defs>
      <path d="M 52 44.1875 
Q 55.375 50.25 60.0625 53.125 
Q 64.75 56 71.09375 56 
Q 79.640625 56 84.28125 50.015625 
Q 88.921875 44.046875 88.921875 33.015625 
L 88.921875 0 
L 79.890625 0 
L 79.890625 32.71875 
Q 79.890625 40.578125 77.09375 44.375 
Q 74.3125 48.1875 68.609375 48.1875 
Q 61.625 48.1875 57.5625 43.546875 
Q 53.515625 38.921875 53.515625 30.90625 
L 53.515625 0 
L 44.484375 0 
L 44.484375 32.71875 
Q 44.484375 40.625 41.703125 44.40625 
Q 38.921875 48.1875 33.109375 48.1875 
Q 26.21875 48.1875 22.15625 43.53125 
Q 18.109375 38.875 18.109375 30.90625 
L 18.109375 0 
L 9.078125 0 
L 9.078125 54.6875 
L 18.109375 54.6875 
L 18.109375 46.1875 
Q 21.1875 51.21875 25.484375 53.609375 
Q 29.78125 56 35.6875 56 
Q 41.65625 56 45.828125 52.96875 
Q 50 49.953125 52 44.1875 
z
" id="DejaVuSans-109"/>
     </defs>
     <g transform="translate(350.865665 289.431088)scale(0.100975 -0.100975)">
      <use xlink:href="#DejaVuSans-109"/>
      <use x="97.412109" xlink:href="#DejaVuSans-50"/>
      <use x="161.035156" xlink:href="#DejaVuSans-68"/>
      <use x="238.037109" xlink:href="#DejaVuSans-76"/>
      <use x="293.75" xlink:href="#DejaVuSans-66"/>
      <use x="362.353516" xlink:href="#DejaVuSans-70"/>
      <use x="419.873047" xlink:href="#DejaVuSans-71"/>
      <use x="497.363281" xlink:href="#DejaVuSans-83"/>
      <use x="560.839844" xlink:href="#DejaVuSans-32"/>
      <use x="592.626953" xlink:href="#DejaVuSans-108"/>
      <use x="620.410156" xlink:href="#DejaVuSans-97"/>
      <use x="681.689453" xlink:href="#DejaVuSans-114"/>
      <use x="722.787109" xlink:href="#DejaVuSans-103"/>
      <use x="786.263672" xlink:href="#DejaVuSans-101"/>
     </g>
    </g>
    <g id="line2d_119">
     <path d="M 322.592707 300.718183 
L 342.787677 300.718183 
" style="fill:none;stroke:#87ceeb;stroke-linecap:square;stroke-width:2;"/>
    </g>
    <g id="line2d_120">
     <defs>
      <path d="M -6 -0 
L 6 6 
L 6 -6 
z
" id="m79f858d423" style="stroke:#87ceeb;stroke-linejoin:miter;"/>
     </defs>
     <g>
      <use style="fill-opacity:0;stroke:#87ceeb;stroke-linejoin:miter;" x="332.690192" xlink:href="#m79f858d423" y="300.718183"/>
     </g>
    </g>
    <g id="text_25">
     <!-- sepCMA largesc -->
     <defs>
      <path d="M 18.109375 8.203125 
L 18.109375 -20.796875 
L 9.078125 -20.796875 
L 9.078125 54.6875 
L 18.109375 54.6875 
L 18.109375 46.390625 
Q 20.953125 51.265625 25.265625 53.625 
Q 29.59375 56 35.59375 56 
Q 45.5625 56 51.78125 48.09375 
Q 58.015625 40.1875 58.015625 27.296875 
Q 58.015625 14.40625 51.78125 6.484375 
Q 45.5625 -1.421875 35.59375 -1.421875 
Q 29.59375 -1.421875 25.265625 0.953125 
Q 20.953125 3.328125 18.109375 8.203125 
z
M 48.6875 27.296875 
Q 48.6875 37.203125 44.609375 42.84375 
Q 40.53125 48.484375 33.40625 48.484375 
Q 26.265625 48.484375 22.1875 42.84375 
Q 18.109375 37.203125 18.109375 27.296875 
Q 18.109375 17.390625 22.1875 11.75 
Q 26.265625 6.109375 33.40625 6.109375 
Q 40.53125 6.109375 44.609375 11.75 
Q 48.6875 17.390625 48.6875 27.296875 
z
" id="DejaVuSans-112"/>
     </defs>
     <g transform="translate(350.865665 304.252302)scale(0.100975 -0.100975)">
      <use xlink:href="#DejaVuSans-115"/>
      <use x="52.099609" xlink:href="#DejaVuSans-101"/>
      <use x="113.623047" xlink:href="#DejaVuSans-112"/>
      <use x="177.099609" xlink:href="#DejaVuSans-67"/>
      <use x="246.923828" xlink:href="#DejaVuSans-77"/>
      <use x="333.203125" xlink:href="#DejaVuSans-65"/>
      <use x="401.611328" xlink:href="#DejaVuSans-32"/>
      <use x="433.398438" xlink:href="#DejaVuSans-108"/>
      <use x="461.181641" xlink:href="#DejaVuSans-97"/>
      <use x="522.460938" xlink:href="#DejaVuSans-114"/>
      <use x="563.558594" xlink:href="#DejaVuSans-103"/>
      <use x="627.035156" xlink:href="#DejaVuSans-101"/>
      <use x="688.558594" xlink:href="#DejaVuSans-115"/>
      <use x="740.658203" xlink:href="#DejaVuSans-99"/>
     </g>
    </g>
   </g>
  </g>
 </g>
 <defs>
  <clipPath id="pdaf16e5541">
   <rect height="289.88" width="422.869562" x="22.69" y="25.56"/>
  </clipPath>
 </defs>
</svg>
