<?xml version="1.0" encoding="utf-8" standalone="no"?>
<!DOCTYPE svg PUBLIC "-//W3C//DTD SVG 1.1//EN"
  "http://www.w3.org/Graphics/SVG/1.1/DTD/svg11.dtd">
<svg height="345.6pt" version="1.1" viewBox="0 0 460.8 345.6" width="460.8pt" xmlns="http://www.w3.org/2000/svg" xmlns:xlink="http://www.w3.org/1999/xlink">
 <metadata>
  <rdf:RDF xmlns:cc="http://creativecommons.org/ns#" xmlns:dc="http://purl.org/dc/elements/1.1/" xmlns:rdf="http://www.w3.org/1999/02/22-rdf-syntax-ns#">
   <cc:Work>
    <dc:type rdf:resource="http://purl.org/dc/dcmitype/StillImage"/>
    <dc:date>2022-03-29T11:43:18.910239</dc:date>
    <dc:format>image/svg+xml</dc:format>
    <dc:creator>
     <cc:Agent>
      <dc:title>Matplotlib v3.4.3, https://matplotlib.org/</dc:title>
     </cc:Agent>
    </dc:creator>
   </cc:Work>
  </rdf:RDF>
 </metadata>
 <defs>
  <style type="text/css">*{stroke-linecap:butt;stroke-linejoin:round;}</style>
 </defs>
 <g id="figure_1">
  <g id="patch_1">
   <path d="M 0 345.6 
L 460.8 345.6 
L 460.8 0 
L 0 0 
z
" style="fill:#ffffff;"/>
  </g>
  <g id="axes_1">
   <g id="patch_2">
    <path d="M 62.208 293.76 
L 460.8 293.76 
L 460.8 3.456 
L 62.208 3.456 
z
" style="fill:#ffffff;"/>
   </g>
   <g id="line2d_1"/>
   <g id="line2d_2"/>
   <g id="line2d_3">
    <path clip-path="url(#pd9a3d4b5ff)" d="M 188.021195 293.76 
L 188.021195 289.927604 
L 216.113022 289.927604 
L 216.113022 286.095208 
L 228.528143 286.095208 
L 228.528143 282.262812 
L 248.991577 282.262812 
L 248.991577 278.430416 
L 253.14668 278.430416 
L 253.14668 274.59802 
L 253.422149 274.59802 
L 253.422149 270.765624 
L 255.143473 270.765624 
L 255.143473 266.933228 
L 261.317701 266.933228 
L 261.317701 263.100832 
L 269.500548 263.100832 
L 269.500548 259.268436 
L 275.217293 259.268436 
L 275.217293 255.43604 
L 275.923198 255.43604 
L 275.923198 251.603644 
L 279.411977 251.603644 
L 279.411977 247.771248 
L 289.066947 247.771248 
L 289.066947 243.938851 
L 312.182086 243.938851 
L 312.182086 240.106455 
L 313.587498 240.106455 
L 313.587498 236.274059 
L 314.352955 236.274059 
L 314.352955 232.441663 
L 314.352955 232.441663 
L 314.352955 232.441663 
L 460.8 232.441663 
" style="fill:none;stroke:#f5deb3;stroke-linecap:square;stroke-width:1.5;"/>
   </g>
   <g id="line2d_4">
    <path clip-path="url(#pd9a3d4b5ff)" d="M 211.774026 293.76 
L 211.774026 289.927604 
L 218.678776 289.927604 
L 218.678776 286.095208 
L 222.37094 286.095208 
L 222.37094 282.262812 
L 236.384346 282.262812 
L 236.384346 278.430416 
L 238.820833 278.430416 
L 238.820833 274.59802 
L 270.078233 274.59802 
L 270.078233 270.765624 
L 272.08938 270.765624 
L 272.08938 266.933228 
L 274.805026 266.933228 
L 274.805026 263.100832 
L 278.866275 263.100832 
L 278.866275 259.268436 
L 280.299702 259.268436 
L 280.299702 255.43604 
L 284.416589 255.43604 
L 284.416589 251.603644 
L 286.350651 251.603644 
L 286.350651 247.771248 
L 287.39714 247.771248 
L 287.39714 243.938851 
L 290.112239 243.938851 
L 290.112239 240.106455 
L 293.134517 240.106455 
L 293.134517 236.274059 
L 293.255142 236.274059 
L 293.255142 232.441663 
L 294.200357 232.441663 
L 294.200357 228.609267 
L 296.214941 228.609267 
L 296.214941 224.776871 
L 298.175453 224.776871 
L 298.175453 220.944475 
L 298.297318 220.944475 
L 298.297318 217.112079 
L 300.115562 217.112079 
L 300.115562 213.279683 
L 300.330409 213.279683 
L 300.330409 209.447287 
L 304.466323 209.447287 
L 304.466323 205.614891 
L 307.070714 205.614891 
L 307.070714 201.782495 
L 307.418235 201.782495 
L 307.418235 197.950099 
L 309.501923 197.950099 
L 309.501923 194.117703 
L 309.501923 194.117703 
L 309.501923 194.117703 
L 460.8 194.117703 
" style="fill:none;stroke:#f5deb3;stroke-linecap:square;stroke-width:1.5;"/>
   </g>
   <g id="line2d_5"/>
   <g id="line2d_6"/>
   <g id="line2d_7">
    <path clip-path="url(#pd9a3d4b5ff)" d="M 191.859004 293.76 
L 191.859004 289.927604 
L 243.120462 289.927604 
L 243.120462 286.095208 
L 243.830884 286.095208 
L 243.830884 282.262812 
L 271.723039 282.262812 
L 271.723039 278.430416 
L 273.387491 278.430416 
L 273.387491 274.59802 
L 294.634552 274.59802 
L 294.634552 270.765624 
L 299.0717 270.765624 
L 299.0717 266.933228 
L 302.541281 266.933228 
L 302.541281 263.100832 
L 305.003969 263.100832 
L 305.003969 259.268436 
L 321.133418 259.268436 
L 321.133418 255.43604 
L 335.111529 255.43604 
L 335.111529 251.603644 
L 339.338941 251.603644 
L 339.338941 247.771248 
L 341.383669 247.771248 
L 341.383669 243.938851 
L 346.729111 243.938851 
L 346.729111 240.106455 
L 373.150804 240.106455 
L 373.150804 236.274059 
L 380.301427 236.274059 
L 380.301427 232.441663 
L 420.804923 232.441663 
L 420.804923 228.609267 
L 426.1 228.609267 
L 426.1 224.776871 
L 428.466887 224.776871 
L 428.466887 220.944475 
L 432.524166 220.944475 
L 432.524166 217.112079 
L 450.956425 217.112079 
L 450.956425 213.279683 
L 453.614544 213.279683 
L 453.614544 209.447287 
L 461.8 209.447287 
" style="fill:none;stroke:#f5deb3;stroke-linecap:square;stroke-width:1.5;"/>
   </g>
   <g id="line2d_8"/>
   <g id="line2d_9">
    <path clip-path="url(#pd9a3d4b5ff)" d="M 191.736064 293.76 
L 191.736064 289.927604 
L 192.621132 289.927604 
L 192.621132 286.095208 
L 226.956451 286.095208 
L 226.956451 282.262812 
L 249.366271 282.262812 
L 249.366271 278.430416 
L 266.390144 278.430416 
L 266.390144 274.59802 
L 268.578654 274.59802 
L 268.578654 270.765624 
L 295.638617 270.765624 
L 295.638617 266.933228 
L 308.001516 266.933228 
L 308.001516 263.100832 
L 319.929341 263.100832 
L 319.929341 259.268436 
L 322.553731 259.268436 
L 322.553731 255.43604 
L 322.960034 255.43604 
L 322.960034 251.603644 
L 323.122044 251.603644 
L 323.122044 247.771248 
L 333.482468 247.771248 
L 333.482468 243.938851 
L 333.686505 243.938851 
L 333.686505 240.106455 
L 334.345135 240.106455 
L 334.345135 236.274059 
L 334.845672 236.274059 
L 334.845672 232.441663 
L 336.231031 232.441663 
L 336.231031 228.609267 
L 344.55875 228.609267 
L 344.55875 224.776871 
L 344.935051 224.776871 
L 344.935051 220.944475 
L 349.295385 220.944475 
L 349.295385 217.112079 
L 350.073143 217.112079 
L 350.073143 213.279683 
L 350.35895 213.279683 
L 350.35895 209.447287 
L 350.879369 209.447287 
L 350.879369 205.614891 
L 357.100959 205.614891 
L 357.100959 201.782495 
L 358.408639 201.782495 
L 358.408639 197.950099 
L 359.954851 197.950099 
L 359.954851 194.117703 
L 362.473385 194.117703 
L 362.473385 190.285307 
L 362.540118 190.285307 
L 362.540118 186.452911 
L 363.99233 186.452911 
L 363.99233 182.620515 
L 364.443238 182.620515 
L 364.443238 178.788119 
L 364.527362 178.788119 
L 364.527362 174.955723 
L 376.449669 174.955723 
L 376.449669 171.123327 
L 380.342079 171.123327 
L 380.342079 167.290931 
L 386.200401 167.290931 
L 386.200401 163.458535 
L 386.47784 163.458535 
L 386.47784 159.626139 
L 388.090973 159.626139 
L 388.090973 155.793743 
L 388.213579 155.793743 
L 388.213579 151.961347 
L 389.277307 151.961347 
L 389.277307 148.12895 
L 409.516163 148.12895 
L 409.516163 144.296554 
L 409.549885 144.296554 
L 409.549885 140.464158 
L 409.74979 140.464158 
L 409.74979 136.631762 
L 409.821488 136.631762 
L 409.821488 132.799366 
L 409.842132 132.799366 
L 409.842132 128.96697 
L 410.164284 128.96697 
L 410.164284 125.134574 
L 410.42535 125.134574 
L 410.42535 121.302178 
L 410.735308 121.302178 
L 410.735308 117.469782 
L 410.829931 117.469782 
L 410.829931 113.637386 
L 415.822191 113.637386 
L 415.822191 109.80499 
L 420.314291 109.80499 
L 420.314291 105.972594 
L 425.111374 105.972594 
L 425.111374 102.140198 
L 425.111374 102.140198 
L 425.111374 102.140198 
L 460.8 102.140198 
" style="fill:none;stroke:#f5deb3;stroke-linecap:square;stroke-width:1.5;"/>
   </g>
   <g id="line2d_10">
    <path clip-path="url(#pd9a3d4b5ff)" d="M 329.816004 293.76 
L 329.816004 289.927604 
L 360.274223 289.927604 
L 360.274223 286.095208 
L 360.274223 286.095208 
L 360.274223 286.095208 
L 460.8 286.095208 
" style="fill:none;stroke:#f5deb3;stroke-linecap:square;stroke-width:1.5;"/>
   </g>
   <g id="line2d_11">
    <path clip-path="url(#pd9a3d4b5ff)" d="M 211.379009 293.76 
L 211.379009 289.927604 
L 227.252365 289.927604 
L 227.252365 286.095208 
L 242.685994 286.095208 
L 242.685994 282.262812 
L 243.639625 282.262812 
L 243.639625 278.430416 
L 250.316341 278.430416 
L 250.316341 274.59802 
L 260.8884 274.59802 
L 260.8884 270.765624 
L 268.384751 270.765624 
L 268.384751 266.933228 
L 278.13007 266.933228 
L 278.13007 263.100832 
L 278.306878 263.100832 
L 278.306878 259.268436 
L 285.090125 259.268436 
L 285.090125 255.43604 
L 285.475733 255.43604 
L 285.475733 251.603644 
L 285.897266 251.603644 
L 285.897266 247.771248 
L 290.668671 247.771248 
L 290.668671 243.938851 
L 298.384107 243.938851 
L 298.384107 240.106455 
L 300.793562 240.106455 
L 300.793562 236.274059 
L 301.806789 236.274059 
L 301.806789 232.441663 
L 303.471394 232.441663 
L 303.471394 228.609267 
L 309.709347 228.609267 
L 309.709347 224.776871 
L 310.476971 224.776871 
L 310.476971 220.944475 
L 311.587592 220.944475 
L 311.587592 217.112079 
L 316.803734 217.112079 
L 316.803734 213.279683 
L 319.743097 213.279683 
L 319.743097 209.447287 
L 321.149514 209.447287 
L 321.149514 205.614891 
L 323.828327 205.614891 
L 323.828327 201.782495 
L 327.293781 201.782495 
L 327.293781 197.950099 
L 339.947774 197.950099 
L 339.947774 194.117703 
L 342.882254 194.117703 
L 342.882254 190.285307 
L 346.91943 190.285307 
L 346.91943 186.452911 
L 352.753069 186.452911 
L 352.753069 182.620515 
L 361.434069 182.620515 
L 361.434069 178.788119 
L 361.434069 178.788119 
L 361.434069 178.788119 
L 460.8 178.788119 
" style="fill:none;stroke:#f5deb3;stroke-linecap:square;stroke-width:1.5;"/>
   </g>
   <g id="line2d_12">
    <path clip-path="url(#pd9a3d4b5ff)" d="M 221.266099 293.76 
L 221.266099 289.927604 
L 282.552978 289.927604 
L 282.552978 286.095208 
L 282.552978 286.095208 
L 282.552978 286.095208 
L 460.8 286.095208 
" style="fill:none;stroke:#f5deb3;stroke-linecap:square;stroke-width:1.5;"/>
   </g>
   <g id="line2d_13"/>
   <g id="line2d_14">
    <path clip-path="url(#pd9a3d4b5ff)" d="M 176.760003 293.76 
L 176.760003 289.927604 
L 199.433588 289.927604 
L 199.433588 286.095208 
L 220.610532 286.095208 
L 220.610532 282.262812 
L 231.532417 282.262812 
L 231.532417 278.430416 
L 237.961502 278.430416 
L 237.961502 274.59802 
L 240.318132 274.59802 
L 240.318132 270.765624 
L 243.64894 270.765624 
L 243.64894 266.933228 
L 252.6639 266.933228 
L 252.6639 263.100832 
L 259.137931 263.100832 
L 259.137931 259.268436 
L 267.430247 259.268436 
L 267.430247 255.43604 
L 275.210207 255.43604 
L 275.210207 251.603644 
L 286.439102 251.603644 
L 286.439102 247.771248 
L 291.802482 247.771248 
L 291.802482 243.938851 
L 303.097211 243.938851 
L 303.097211 240.106455 
L 304.408016 240.106455 
L 304.408016 236.274059 
L 305.073778 236.274059 
L 305.073778 232.441663 
L 307.213714 232.441663 
L 307.213714 228.609267 
L 308.001516 228.609267 
L 308.001516 224.776871 
L 308.699183 224.776871 
L 308.699183 220.944475 
L 311.191064 220.944475 
L 311.191064 217.112079 
L 314.163867 217.112079 
L 314.163867 213.279683 
L 314.575732 213.279683 
L 314.575732 209.447287 
L 314.575732 209.447287 
L 314.575732 209.447287 
L 460.8 209.447287 
" style="fill:none;stroke:#f5deb3;stroke-linecap:square;stroke-width:1.5;"/>
   </g>
   <g id="line2d_15"/>
   <g id="line2d_16">
    <path clip-path="url(#pd9a3d4b5ff)" d="M 255.61989 293.76 
L 255.61989 289.927604 
L 280.936139 289.927604 
L 280.936139 286.095208 
L 287.537782 286.095208 
L 287.537782 282.262812 
L 289.095823 282.262812 
L 289.095823 278.430416 
L 295.864027 278.430416 
L 295.864027 274.59802 
L 313.920104 274.59802 
L 313.920104 270.765624 
L 332.337928 270.765624 
L 332.337928 266.933228 
L 332.412123 266.933228 
L 332.412123 263.100832 
L 338.4483 263.100832 
L 338.4483 259.268436 
L 348.682892 259.268436 
L 348.682892 255.43604 
L 356.252302 255.43604 
L 356.252302 251.603644 
L 365.187575 251.603644 
L 365.187575 247.771248 
L 367.005229 247.771248 
L 367.005229 243.938851 
L 367.607351 243.938851 
L 367.607351 240.106455 
L 368.063427 240.106455 
L 368.063427 236.274059 
L 368.838117 236.274059 
L 368.838117 232.441663 
L 375.097783 232.441663 
L 375.097783 228.609267 
L 381.74376 228.609267 
L 381.74376 224.776871 
L 382.723993 224.776871 
L 382.723993 220.944475 
L 395.862339 220.944475 
L 395.862339 217.112079 
L 397.804011 217.112079 
L 397.804011 213.279683 
L 398.069651 213.279683 
L 398.069651 209.447287 
L 401.21549 209.447287 
L 401.21549 205.614891 
L 404.960167 205.614891 
L 404.960167 201.782495 
L 407.898904 201.782495 
L 407.898904 197.950099 
L 409.173617 197.950099 
L 409.173617 194.117703 
L 418.066481 194.117703 
L 418.066481 190.285307 
L 419.348462 190.285307 
L 419.348462 186.452911 
L 427.144804 186.452911 
L 427.144804 182.620515 
L 427.144804 182.620515 
L 427.144804 182.620515 
L 460.8 182.620515 
" style="fill:none;stroke:#f5deb3;stroke-linecap:square;stroke-width:1.5;"/>
   </g>
   <g id="line2d_17"/>
   <g id="line2d_18">
    <path clip-path="url(#pd9a3d4b5ff)" d="M 170.431373 293.76 
L 170.431373 289.927604 
L 207.158451 289.927604 
L 207.158451 286.095208 
L 213.260266 286.095208 
L 213.260266 282.262812 
L 217.031175 282.262812 
L 217.031175 278.430416 
L 219.413003 278.430416 
L 219.413003 274.59802 
L 223.190978 274.59802 
L 223.190978 270.765624 
L 223.564929 270.765624 
L 223.564929 266.933228 
L 230.430761 266.933228 
L 230.430761 263.100832 
L 233.501197 263.100832 
L 233.501197 259.268436 
L 240.807897 259.268436 
L 240.807897 255.43604 
L 244.669168 255.43604 
L 244.669168 251.603644 
L 245.918265 251.603644 
L 245.918265 247.771248 
L 253.111061 247.771248 
L 253.111061 243.938851 
L 253.982848 243.938851 
L 253.982848 240.106455 
L 254.696057 240.106455 
L 254.696057 236.274059 
L 256.693857 236.274059 
L 256.693857 232.441663 
L 257.415432 232.441663 
L 257.415432 228.609267 
L 269.812123 228.609267 
L 269.812123 224.776871 
L 279.725452 224.776871 
L 279.725452 220.944475 
L 280.389852 220.944475 
L 280.389852 217.112079 
L 287.303739 217.112079 
L 287.303739 213.279683 
L 288.103603 213.279683 
L 288.103603 209.447287 
L 288.103603 209.447287 
L 288.103603 209.447287 
L 460.8 209.447287 
" style="fill:none;stroke:#f5deb3;stroke-linecap:square;stroke-width:1.5;"/>
   </g>
   <g id="line2d_19">
    <path clip-path="url(#pd9a3d4b5ff)" d="M 296.911111 293.76 
L 296.911111 289.927604 
L 300.344846 289.927604 
L 300.344846 286.095208 
L 302.67529 286.095208 
L 302.67529 282.262812 
L 306.16419 282.262812 
L 306.16419 278.430416 
L 306.223858 278.430416 
L 306.223858 274.59802 
L 306.422579 274.59802 
L 306.422579 270.765624 
L 307.533044 270.765624 
L 307.533044 266.933228 
L 308.01369 266.933228 
L 308.01369 263.100832 
L 308.50577 263.100832 
L 308.50577 259.268436 
L 308.567586 259.268436 
L 308.567586 255.43604 
L 313.95747 255.43604 
L 313.95747 251.603644 
L 320.685877 251.603644 
L 320.685877 247.771248 
L 326.288263 247.771248 
L 326.288263 243.938851 
L 329.2687 243.938851 
L 329.2687 240.106455 
L 345.989223 240.106455 
L 345.989223 236.274059 
L 403.48667 236.274059 
L 403.48667 232.441663 
L 403.48667 232.441663 
L 403.48667 232.441663 
L 460.8 232.441663 
" style="fill:none;stroke:#f5deb3;stroke-linecap:square;stroke-width:1.5;"/>
   </g>
   <g id="line2d_20">
    <path clip-path="url(#pd9a3d4b5ff)" d="M 197.852628 293.76 
L 197.852628 289.927604 
L 202.421551 289.927604 
L 202.421551 286.095208 
L 233.088489 286.095208 
L 233.088489 282.262812 
L 238.284928 282.262812 
L 238.284928 278.430416 
L 243.080556 278.430416 
L 243.080556 274.59802 
L 245.101888 274.59802 
L 245.101888 270.765624 
L 246.646023 270.765624 
L 246.646023 266.933228 
L 246.850699 266.933228 
L 246.850699 263.100832 
L 256.767913 263.100832 
L 256.767913 259.268436 
L 266.527394 259.268436 
L 266.527394 255.43604 
L 268.767466 255.43604 
L 268.767466 251.603644 
L 270.49718 251.603644 
L 270.49718 247.771248 
L 270.618906 247.771248 
L 270.618906 243.938851 
L 271.057242 243.938851 
L 271.057242 240.106455 
L 272.14028 240.106455 
L 272.14028 236.274059 
L 277.494517 236.274059 
L 277.494517 232.441663 
L 277.64952 232.441663 
L 277.64952 228.609267 
L 278.458427 228.609267 
L 278.458427 224.776871 
L 279.409443 224.776871 
L 279.409443 220.944475 
L 282.932828 220.944475 
L 282.932828 217.112079 
L 285.241001 217.112079 
L 285.241001 213.279683 
L 289.368472 213.279683 
L 289.368472 209.447287 
L 302.003735 209.447287 
L 302.003735 205.614891 
L 312.520342 205.614891 
L 312.520342 201.782495 
L 324.903519 201.782495 
L 324.903519 197.950099 
L 325.27961 197.950099 
L 325.27961 194.117703 
L 329.692519 194.117703 
L 329.692519 190.285307 
L 331.960099 190.285307 
L 331.960099 186.452911 
L 331.960099 186.452911 
L 331.960099 186.452911 
L 460.8 186.452911 
" style="fill:none;stroke:#f5deb3;stroke-linecap:square;stroke-width:1.5;"/>
   </g>
   <g id="line2d_21">
    <path clip-path="url(#pd9a3d4b5ff)" d="M 311.709121 293.76 
L 311.709121 289.927604 
L 311.709121 289.927604 
L 311.709121 289.927604 
L 460.8 289.927604 
" style="fill:none;stroke:#f5deb3;stroke-linecap:square;stroke-width:1.5;"/>
   </g>
   <g id="line2d_22">
    <path clip-path="url(#pd9a3d4b5ff)" d="M 268.995006 293.76 
L 268.995006 289.927604 
L 288.082538 289.927604 
L 288.082538 286.095208 
L 295.226393 286.095208 
L 295.226393 282.262812 
L 296.966553 282.262812 
L 296.966553 278.430416 
L 299.084584 278.430416 
L 299.084584 274.59802 
L 303.454496 274.59802 
L 303.454496 270.765624 
L 310.8916 270.765624 
L 310.8916 266.933228 
L 311.062893 266.933228 
L 311.062893 263.100832 
L 313.117506 263.100832 
L 313.117506 259.268436 
L 313.117506 259.268436 
L 313.117506 259.268436 
L 460.8 259.268436 
" style="fill:none;stroke:#f5deb3;stroke-linecap:square;stroke-width:1.5;"/>
   </g>
   <g id="line2d_23">
    <path clip-path="url(#pd9a3d4b5ff)" d="M 253.052917 293.76 
L 253.052917 289.927604 
L 253.052917 289.927604 
L 253.052917 289.927604 
L 460.8 289.927604 
" style="fill:none;stroke:#f5deb3;stroke-linecap:square;stroke-width:1.5;"/>
   </g>
   <g id="line2d_24">
    <path clip-path="url(#pd9a3d4b5ff)" d="M 298.268242 293.76 
L 298.268242 289.927604 
L 303.185689 289.927604 
L 303.185689 286.095208 
L 305.282344 286.095208 
L 305.282344 282.262812 
L 334.349047 282.262812 
L 334.349047 278.430416 
L 334.375804 278.430416 
L 334.375804 274.59802 
L 335.290666 274.59802 
L 335.290666 270.765624 
L 335.392819 270.765624 
L 335.392819 266.933228 
L 335.542613 266.933228 
L 335.542613 263.100832 
L 338.644079 263.100832 
L 338.644079 259.268436 
L 341.044972 259.268436 
L 341.044972 255.43604 
L 342.506759 255.43604 
L 342.506759 251.603644 
L 345.050515 251.603644 
L 345.050515 247.771248 
L 360.314539 247.771248 
L 360.314539 243.938851 
L 368.051511 243.938851 
L 368.051511 240.106455 
L 369.924811 240.106455 
L 369.924811 236.274059 
L 402.192372 236.274059 
L 402.192372 232.441663 
L 403.239296 232.441663 
L 403.239296 228.609267 
L 407.960054 228.609267 
L 407.960054 224.776871 
L 421.302775 224.776871 
L 421.302775 220.944475 
L 422.099759 220.944475 
L 422.099759 217.112079 
L 422.504733 217.112079 
L 422.504733 213.279683 
L 423.667126 213.279683 
L 423.667126 209.447287 
L 426.207916 209.447287 
L 426.207916 205.614891 
L 439.265684 205.614891 
L 439.265684 201.782495 
L 439.265684 201.782495 
L 439.265684 201.782495 
L 460.8 201.782495 
" style="fill:none;stroke:#f5deb3;stroke-linecap:square;stroke-width:1.5;"/>
   </g>
   <g id="line2d_25">
    <path clip-path="url(#pd9a3d4b5ff)" d="M 301.031592 293.76 
L 301.031592 289.927604 
L 301.353927 289.927604 
L 301.353927 286.095208 
L 302.17494 286.095208 
L 302.17494 282.262812 
L 302.17494 282.262812 
L 302.17494 282.262812 
L 460.8 282.262812 
" style="fill:none;stroke:#f5deb3;stroke-linecap:square;stroke-width:1.5;"/>
   </g>
   <g id="line2d_26">
    <path clip-path="url(#pd9a3d4b5ff)" d="M 239.230783 293.76 
L 239.230783 290.530453 
L 293.541227 290.530453 
L 293.541227 287.300906 
L 313.058132 287.300906 
L 313.058132 284.071358 
L 314.715073 284.071358 
L 314.715073 280.841811 
L 335.063419 280.841811 
L 335.063419 277.612264 
L 339.334991 277.612264 
L 339.334991 274.382717 
L 339.334991 274.382717 
L 339.334991 274.382717 
L 460.8 274.382717 
" style="fill:none;stroke:#f5deb3;stroke-linecap:square;stroke-width:1.5;"/>
   </g>
   <g id="line2d_27">
    <path clip-path="url(#pd9a3d4b5ff)" d="M 187.21972 293.76 
L 187.21972 289.927604 
L 219.032377 289.927604 
L 219.032377 286.095208 
L 221.412935 286.095208 
L 221.412935 282.262812 
L 224.466899 282.262812 
L 224.466899 278.430416 
L 235.698886 278.430416 
L 235.698886 274.59802 
L 240.615118 274.59802 
L 240.615118 270.765624 
L 250.959086 270.765624 
L 250.959086 266.933228 
L 251.588534 266.933228 
L 251.588534 263.100832 
L 259.297538 263.100832 
L 259.297538 259.268436 
L 271.642456 259.268436 
L 271.642456 255.43604 
L 280.48312 255.43604 
L 280.48312 251.603644 
L 284.718675 251.603644 
L 284.718675 247.771248 
L 285.554074 247.771248 
L 285.554074 243.938851 
L 295.606586 243.938851 
L 295.606586 240.106455 
L 298.56318 240.106455 
L 298.56318 236.274059 
L 303.6102 236.274059 
L 303.6102 232.441663 
L 306.364102 232.441663 
L 306.364102 228.609267 
L 306.587465 228.609267 
L 306.587465 224.776871 
L 309.918558 224.776871 
L 309.918558 220.944475 
L 317.40072 220.944475 
L 317.40072 217.112079 
L 327.314803 217.112079 
L 327.314803 213.279683 
L 332.268049 213.279683 
L 332.268049 209.447287 
L 333.932836 209.447287 
L 333.932836 205.614891 
L 341.401198 205.614891 
L 341.401198 201.782495 
L 341.401198 201.782495 
L 341.401198 201.782495 
L 460.8 201.782495 
" style="fill:none;stroke:#f5deb3;stroke-linecap:square;stroke-width:1.5;"/>
   </g>
   <g id="line2d_28">
    <path clip-path="url(#pd9a3d4b5ff)" d="M 295.489945 293.76 
L 295.489945 289.927604 
L 295.629068 289.927604 
L 295.629068 286.095208 
L 297.425324 286.095208 
L 297.425324 282.262812 
L 326.747464 282.262812 
L 326.747464 278.430416 
L 327.120739 278.430416 
L 327.120739 274.59802 
L 350.024843 274.59802 
L 350.024843 270.765624 
L 351.956783 270.765624 
L 351.956783 266.933228 
L 352.649237 266.933228 
L 352.649237 263.100832 
L 365.288606 263.100832 
L 365.288606 259.268436 
L 369.794955 259.268436 
L 369.794955 255.43604 
L 370.760137 255.43604 
L 370.760137 251.603644 
L 371.762075 251.603644 
L 371.762075 247.771248 
L 375.028888 247.771248 
L 375.028888 243.938851 
L 378.93637 243.938851 
L 378.93637 240.106455 
L 380.170548 240.106455 
L 380.170548 236.274059 
L 380.396729 236.274059 
L 380.396729 232.441663 
L 385.78102 232.441663 
L 385.78102 228.609267 
L 391.235349 228.609267 
L 391.235349 224.776871 
L 399.345314 224.776871 
L 399.345314 220.944475 
L 400.536209 220.944475 
L 400.536209 217.112079 
L 400.784641 217.112079 
L 400.784641 213.279683 
L 405.988927 213.279683 
L 405.988927 209.447287 
L 410.638917 209.447287 
L 410.638917 205.614891 
L 413.874984 205.614891 
L 413.874984 201.782495 
L 420.588814 201.782495 
L 420.588814 197.950099 
L 421.264911 197.950099 
L 421.264911 194.117703 
L 423.581256 194.117703 
L 423.581256 190.285307 
L 423.581256 190.285307 
L 423.581256 190.285307 
L 460.8 190.285307 
" style="fill:none;stroke:#f5deb3;stroke-linecap:square;stroke-width:1.5;"/>
   </g>
   <g id="line2d_29">
    <path clip-path="url(#pd9a3d4b5ff)" d="M 269.872438 293.76 
L 269.872438 289.927604 
L 287.346302 289.927604 
L 287.346302 286.095208 
L 287.346302 286.095208 
L 287.346302 286.095208 
L 460.8 286.095208 
" style="fill:none;stroke:#f5deb3;stroke-linecap:square;stroke-width:1.5;"/>
   </g>
   <g id="line2d_30">
    <path clip-path="url(#pd9a3d4b5ff)" d="M 230.042299 293.76 
L 230.042299 289.927604 
L 248.69709 289.927604 
L 248.69709 286.095208 
L 267.410642 286.095208 
L 267.410642 282.262812 
L 272.563639 282.262812 
L 272.563639 278.430416 
L 289.314441 278.430416 
L 289.314441 274.59802 
L 294.850115 274.59802 
L 294.850115 270.765624 
L 303.320421 270.765624 
L 303.320421 266.933228 
L 313.344884 266.933228 
L 313.344884 263.100832 
L 314.035068 263.100832 
L 314.035068 259.268436 
L 314.698799 259.268436 
L 314.698799 255.43604 
L 314.698799 255.43604 
L 314.698799 255.43604 
L 460.8 255.43604 
" style="fill:none;stroke:#f5deb3;stroke-linecap:square;stroke-width:1.5;"/>
   </g>
   <g id="matplotlib.axis_1">
    <g id="xtick_1">
     <g id="line2d_31">
      <path clip-path="url(#pd9a3d4b5ff)" d="M 62.208 293.76 
L 62.208 3.456 
" style="fill:none;stroke:#b0b0b0;stroke-linecap:square;stroke-width:0.8;"/>
     </g>
     <g id="line2d_32">
      <defs>
       <path d="M 0 0 
L 0 3.5 
" id="me735fd7c63" style="stroke:#000000;stroke-width:0.8;"/>
      </defs>
      <g>
       <use style="stroke:#000000;stroke-width:0.8;" x="62.208" xlink:href="#me735fd7c63" y="293.76"/>
      </g>
     </g>
     <g id="text_1">
      <!-- 0 -->
      <g transform="translate(55.8455 315.956875)scale(0.2 -0.2)">
       <defs>
        <path d="M 2034 4250 
Q 1547 4250 1301 3770 
Q 1056 3291 1056 2328 
Q 1056 1369 1301 889 
Q 1547 409 2034 409 
Q 2525 409 2770 889 
Q 3016 1369 3016 2328 
Q 3016 3291 2770 3770 
Q 2525 4250 2034 4250 
z
M 2034 4750 
Q 2819 4750 3233 4129 
Q 3647 3509 3647 2328 
Q 3647 1150 3233 529 
Q 2819 -91 2034 -91 
Q 1250 -91 836 529 
Q 422 1150 422 2328 
Q 422 3509 836 4129 
Q 1250 4750 2034 4750 
z
" id="DejaVuSans-30" transform="scale(0.015625)"/>
       </defs>
       <use xlink:href="#DejaVuSans-30"/>
      </g>
     </g>
    </g>
    <g id="xtick_2">
     <g id="line2d_33">
      <path clip-path="url(#pd9a3d4b5ff)" d="M 188.745053 293.76 
L 188.745053 3.456 
" style="fill:none;stroke:#b0b0b0;stroke-linecap:square;stroke-width:0.8;"/>
     </g>
     <g id="line2d_34">
      <g>
       <use style="stroke:#000000;stroke-width:0.8;" x="188.745053" xlink:href="#me735fd7c63" y="293.76"/>
      </g>
     </g>
     <g id="text_2">
      <!-- 2 -->
      <g transform="translate(182.382553 315.956875)scale(0.2 -0.2)">
       <defs>
        <path d="M 1228 531 
L 3431 531 
L 3431 0 
L 469 0 
L 469 531 
Q 828 903 1448 1529 
Q 2069 2156 2228 2338 
Q 2531 2678 2651 2914 
Q 2772 3150 2772 3378 
Q 2772 3750 2511 3984 
Q 2250 4219 1831 4219 
Q 1534 4219 1204 4116 
Q 875 4013 500 3803 
L 500 4441 
Q 881 4594 1212 4672 
Q 1544 4750 1819 4750 
Q 2544 4750 2975 4387 
Q 3406 4025 3406 3419 
Q 3406 3131 3298 2873 
Q 3191 2616 2906 2266 
Q 2828 2175 2409 1742 
Q 1991 1309 1228 531 
z
" id="DejaVuSans-32" transform="scale(0.015625)"/>
       </defs>
       <use xlink:href="#DejaVuSans-32"/>
      </g>
     </g>
    </g>
    <g id="xtick_3">
     <g id="line2d_35">
      <path clip-path="url(#pd9a3d4b5ff)" d="M 315.282105 293.76 
L 315.282105 3.456 
" style="fill:none;stroke:#b0b0b0;stroke-linecap:square;stroke-width:0.8;"/>
     </g>
     <g id="line2d_36">
      <g>
       <use style="stroke:#000000;stroke-width:0.8;" x="315.282105" xlink:href="#me735fd7c63" y="293.76"/>
      </g>
     </g>
     <g id="text_3">
      <!-- 4 -->
      <g transform="translate(308.919605 315.956875)scale(0.2 -0.2)">
       <defs>
        <path d="M 2419 4116 
L 825 1625 
L 2419 1625 
L 2419 4116 
z
M 2253 4666 
L 3047 4666 
L 3047 1625 
L 3713 1625 
L 3713 1100 
L 3047 1100 
L 3047 0 
L 2419 0 
L 2419 1100 
L 313 1100 
L 313 1709 
L 2253 4666 
z
" id="DejaVuSans-34" transform="scale(0.015625)"/>
       </defs>
       <use xlink:href="#DejaVuSans-34"/>
      </g>
     </g>
    </g>
    <g id="xtick_4">
     <g id="line2d_37">
      <path clip-path="url(#pd9a3d4b5ff)" d="M 441.819158 293.76 
L 441.819158 3.456 
" style="fill:none;stroke:#b0b0b0;stroke-linecap:square;stroke-width:0.8;"/>
     </g>
     <g id="line2d_38">
      <g>
       <use style="stroke:#000000;stroke-width:0.8;" x="441.819158" xlink:href="#me735fd7c63" y="293.76"/>
      </g>
     </g>
     <g id="text_4">
      <!-- 6 -->
      <g transform="translate(435.456658 315.956875)scale(0.2 -0.2)">
       <defs>
        <path d="M 2113 2584 
Q 1688 2584 1439 2293 
Q 1191 2003 1191 1497 
Q 1191 994 1439 701 
Q 1688 409 2113 409 
Q 2538 409 2786 701 
Q 3034 994 3034 1497 
Q 3034 2003 2786 2293 
Q 2538 2584 2113 2584 
z
M 3366 4563 
L 3366 3988 
Q 3128 4100 2886 4159 
Q 2644 4219 2406 4219 
Q 1781 4219 1451 3797 
Q 1122 3375 1075 2522 
Q 1259 2794 1537 2939 
Q 1816 3084 2150 3084 
Q 2853 3084 3261 2657 
Q 3669 2231 3669 1497 
Q 3669 778 3244 343 
Q 2819 -91 2113 -91 
Q 1303 -91 875 529 
Q 447 1150 447 2328 
Q 447 3434 972 4092 
Q 1497 4750 2381 4750 
Q 2619 4750 2861 4703 
Q 3103 4656 3366 4563 
z
" id="DejaVuSans-36" transform="scale(0.015625)"/>
       </defs>
       <use xlink:href="#DejaVuSans-36"/>
      </g>
     </g>
    </g>
    <g id="text_5">
     <!-- log10 of FEvals / DIM -->
     <g transform="translate(156.430563 339.313125)scale(0.2 -0.2)">
      <defs>
       <path d="M 603 4863 
L 1178 4863 
L 1178 0 
L 603 0 
L 603 4863 
z
" id="DejaVuSans-6c" transform="scale(0.015625)"/>
       <path d="M 1959 3097 
Q 1497 3097 1228 2736 
Q 959 2375 959 1747 
Q 959 1119 1226 758 
Q 1494 397 1959 397 
Q 2419 397 2687 759 
Q 2956 1122 2956 1747 
Q 2956 2369 2687 2733 
Q 2419 3097 1959 3097 
z
M 1959 3584 
Q 2709 3584 3137 3096 
Q 3566 2609 3566 1747 
Q 3566 888 3137 398 
Q 2709 -91 1959 -91 
Q 1206 -91 779 398 
Q 353 888 353 1747 
Q 353 2609 779 3096 
Q 1206 3584 1959 3584 
z
" id="DejaVuSans-6f" transform="scale(0.015625)"/>
       <path d="M 2906 1791 
Q 2906 2416 2648 2759 
Q 2391 3103 1925 3103 
Q 1463 3103 1205 2759 
Q 947 2416 947 1791 
Q 947 1169 1205 825 
Q 1463 481 1925 481 
Q 2391 481 2648 825 
Q 2906 1169 2906 1791 
z
M 3481 434 
Q 3481 -459 3084 -895 
Q 2688 -1331 1869 -1331 
Q 1566 -1331 1297 -1286 
Q 1028 -1241 775 -1147 
L 775 -588 
Q 1028 -725 1275 -790 
Q 1522 -856 1778 -856 
Q 2344 -856 2625 -561 
Q 2906 -266 2906 331 
L 2906 616 
Q 2728 306 2450 153 
Q 2172 0 1784 0 
Q 1141 0 747 490 
Q 353 981 353 1791 
Q 353 2603 747 3093 
Q 1141 3584 1784 3584 
Q 2172 3584 2450 3431 
Q 2728 3278 2906 2969 
L 2906 3500 
L 3481 3500 
L 3481 434 
z
" id="DejaVuSans-67" transform="scale(0.015625)"/>
       <path d="M 794 531 
L 1825 531 
L 1825 4091 
L 703 3866 
L 703 4441 
L 1819 4666 
L 2450 4666 
L 2450 531 
L 3481 531 
L 3481 0 
L 794 0 
L 794 531 
z
" id="DejaVuSans-31" transform="scale(0.015625)"/>
       <path id="DejaVuSans-20" transform="scale(0.015625)"/>
       <path d="M 2375 4863 
L 2375 4384 
L 1825 4384 
Q 1516 4384 1395 4259 
Q 1275 4134 1275 3809 
L 1275 3500 
L 2222 3500 
L 2222 3053 
L 1275 3053 
L 1275 0 
L 697 0 
L 697 3053 
L 147 3053 
L 147 3500 
L 697 3500 
L 697 3744 
Q 697 4328 969 4595 
Q 1241 4863 1831 4863 
L 2375 4863 
z
" id="DejaVuSans-66" transform="scale(0.015625)"/>
       <path d="M 628 4666 
L 3309 4666 
L 3309 4134 
L 1259 4134 
L 1259 2759 
L 3109 2759 
L 3109 2228 
L 1259 2228 
L 1259 0 
L 628 0 
L 628 4666 
z
" id="DejaVuSans-46" transform="scale(0.015625)"/>
       <path d="M 628 4666 
L 3578 4666 
L 3578 4134 
L 1259 4134 
L 1259 2753 
L 3481 2753 
L 3481 2222 
L 1259 2222 
L 1259 531 
L 3634 531 
L 3634 0 
L 628 0 
L 628 4666 
z
" id="DejaVuSans-45" transform="scale(0.015625)"/>
       <path d="M 191 3500 
L 800 3500 
L 1894 563 
L 2988 3500 
L 3597 3500 
L 2284 0 
L 1503 0 
L 191 3500 
z
" id="DejaVuSans-76" transform="scale(0.015625)"/>
       <path d="M 2194 1759 
Q 1497 1759 1228 1600 
Q 959 1441 959 1056 
Q 959 750 1161 570 
Q 1363 391 1709 391 
Q 2188 391 2477 730 
Q 2766 1069 2766 1631 
L 2766 1759 
L 2194 1759 
z
M 3341 1997 
L 3341 0 
L 2766 0 
L 2766 531 
Q 2569 213 2275 61 
Q 1981 -91 1556 -91 
Q 1019 -91 701 211 
Q 384 513 384 1019 
Q 384 1609 779 1909 
Q 1175 2209 1959 2209 
L 2766 2209 
L 2766 2266 
Q 2766 2663 2505 2880 
Q 2244 3097 1772 3097 
Q 1472 3097 1187 3025 
Q 903 2953 641 2809 
L 641 3341 
Q 956 3463 1253 3523 
Q 1550 3584 1831 3584 
Q 2591 3584 2966 3190 
Q 3341 2797 3341 1997 
z
" id="DejaVuSans-61" transform="scale(0.015625)"/>
       <path d="M 2834 3397 
L 2834 2853 
Q 2591 2978 2328 3040 
Q 2066 3103 1784 3103 
Q 1356 3103 1142 2972 
Q 928 2841 928 2578 
Q 928 2378 1081 2264 
Q 1234 2150 1697 2047 
L 1894 2003 
Q 2506 1872 2764 1633 
Q 3022 1394 3022 966 
Q 3022 478 2636 193 
Q 2250 -91 1575 -91 
Q 1294 -91 989 -36 
Q 684 19 347 128 
L 347 722 
Q 666 556 975 473 
Q 1284 391 1588 391 
Q 1994 391 2212 530 
Q 2431 669 2431 922 
Q 2431 1156 2273 1281 
Q 2116 1406 1581 1522 
L 1381 1569 
Q 847 1681 609 1914 
Q 372 2147 372 2553 
Q 372 3047 722 3315 
Q 1072 3584 1716 3584 
Q 2034 3584 2315 3537 
Q 2597 3491 2834 3397 
z
" id="DejaVuSans-73" transform="scale(0.015625)"/>
       <path d="M 1625 4666 
L 2156 4666 
L 531 -594 
L 0 -594 
L 1625 4666 
z
" id="DejaVuSans-2f" transform="scale(0.015625)"/>
       <path d="M 1259 4147 
L 1259 519 
L 2022 519 
Q 2988 519 3436 956 
Q 3884 1394 3884 2338 
Q 3884 3275 3436 3711 
Q 2988 4147 2022 4147 
L 1259 4147 
z
M 628 4666 
L 1925 4666 
Q 3281 4666 3915 4102 
Q 4550 3538 4550 2338 
Q 4550 1131 3912 565 
Q 3275 0 1925 0 
L 628 0 
L 628 4666 
z
" id="DejaVuSans-44" transform="scale(0.015625)"/>
       <path d="M 628 4666 
L 1259 4666 
L 1259 0 
L 628 0 
L 628 4666 
z
" id="DejaVuSans-49" transform="scale(0.015625)"/>
       <path d="M 628 4666 
L 1569 4666 
L 2759 1491 
L 3956 4666 
L 4897 4666 
L 4897 0 
L 4281 0 
L 4281 4097 
L 3078 897 
L 2444 897 
L 1241 4097 
L 1241 0 
L 628 0 
L 628 4666 
z
" id="DejaVuSans-4d" transform="scale(0.015625)"/>
      </defs>
      <use xlink:href="#DejaVuSans-6c"/>
      <use x="27.783203" xlink:href="#DejaVuSans-6f"/>
      <use x="88.964844" xlink:href="#DejaVuSans-67"/>
      <use x="152.441406" xlink:href="#DejaVuSans-31"/>
      <use x="216.064453" xlink:href="#DejaVuSans-30"/>
      <use x="279.6875" xlink:href="#DejaVuSans-20"/>
      <use x="311.474609" xlink:href="#DejaVuSans-6f"/>
      <use x="372.65625" xlink:href="#DejaVuSans-66"/>
      <use x="407.861328" xlink:href="#DejaVuSans-20"/>
      <use x="439.648438" xlink:href="#DejaVuSans-46"/>
      <use x="497.167969" xlink:href="#DejaVuSans-45"/>
      <use x="560.351562" xlink:href="#DejaVuSans-76"/>
      <use x="619.53125" xlink:href="#DejaVuSans-61"/>
      <use x="680.810547" xlink:href="#DejaVuSans-6c"/>
      <use x="708.59375" xlink:href="#DejaVuSans-73"/>
      <use x="760.693359" xlink:href="#DejaVuSans-20"/>
      <use x="792.480469" xlink:href="#DejaVuSans-2f"/>
      <use x="826.171875" xlink:href="#DejaVuSans-20"/>
      <use x="857.958984" xlink:href="#DejaVuSans-44"/>
      <use x="934.960938" xlink:href="#DejaVuSans-49"/>
      <use x="964.453125" xlink:href="#DejaVuSans-4d"/>
     </g>
    </g>
   </g>
   <g id="matplotlib.axis_2">
    <g id="ytick_1">
     <g id="line2d_39">
      <path clip-path="url(#pd9a3d4b5ff)" d="M 62.208 293.76 
L 460.8 293.76 
" style="fill:none;stroke:#b0b0b0;stroke-linecap:square;stroke-width:0.8;"/>
     </g>
     <g id="line2d_40">
      <defs>
       <path d="M 0 0 
L -3.5 0 
" id="m04890ebeb3" style="stroke:#000000;stroke-width:0.8;"/>
      </defs>
      <g>
       <use style="stroke:#000000;stroke-width:0.8;" x="62.208" xlink:href="#m04890ebeb3" y="293.76"/>
      </g>
     </g>
     <g id="text_6">
      <!-- 0.0 -->
      <g transform="translate(29.763 299.83875)scale(0.16 -0.16)">
       <defs>
        <path d="M 684 794 
L 1344 794 
L 1344 0 
L 684 0 
L 684 794 
z
" id="DejaVuSans-2e" transform="scale(0.015625)"/>
       </defs>
       <use xlink:href="#DejaVuSans-30"/>
       <use x="63.623047" xlink:href="#DejaVuSans-2e"/>
       <use x="95.410156" xlink:href="#DejaVuSans-30"/>
      </g>
     </g>
    </g>
    <g id="ytick_2">
     <g id="line2d_41">
      <path clip-path="url(#pd9a3d4b5ff)" d="M 62.208 236.274059 
L 460.8 236.274059 
" style="fill:none;stroke:#b0b0b0;stroke-linecap:square;stroke-width:0.8;"/>
     </g>
     <g id="line2d_42">
      <g>
       <use style="stroke:#000000;stroke-width:0.8;" x="62.208" xlink:href="#m04890ebeb3" y="236.274059"/>
      </g>
     </g>
     <g id="text_7">
      <!-- 0.2 -->
      <g transform="translate(29.763 242.352809)scale(0.16 -0.16)">
       <use xlink:href="#DejaVuSans-30"/>
       <use x="63.623047" xlink:href="#DejaVuSans-2e"/>
       <use x="95.410156" xlink:href="#DejaVuSans-32"/>
      </g>
     </g>
    </g>
    <g id="ytick_3">
     <g id="line2d_43">
      <path clip-path="url(#pd9a3d4b5ff)" d="M 62.208 178.788119 
L 460.8 178.788119 
" style="fill:none;stroke:#b0b0b0;stroke-linecap:square;stroke-width:0.8;"/>
     </g>
     <g id="line2d_44">
      <g>
       <use style="stroke:#000000;stroke-width:0.8;" x="62.208" xlink:href="#m04890ebeb3" y="178.788119"/>
      </g>
     </g>
     <g id="text_8">
      <!-- 0.4 -->
      <g transform="translate(29.763 184.866869)scale(0.16 -0.16)">
       <use xlink:href="#DejaVuSans-30"/>
       <use x="63.623047" xlink:href="#DejaVuSans-2e"/>
       <use x="95.410156" xlink:href="#DejaVuSans-34"/>
      </g>
     </g>
    </g>
    <g id="ytick_4">
     <g id="line2d_45">
      <path clip-path="url(#pd9a3d4b5ff)" d="M 62.208 121.302178 
L 460.8 121.302178 
" style="fill:none;stroke:#b0b0b0;stroke-linecap:square;stroke-width:0.8;"/>
     </g>
     <g id="line2d_46">
      <g>
       <use style="stroke:#000000;stroke-width:0.8;" x="62.208" xlink:href="#m04890ebeb3" y="121.302178"/>
      </g>
     </g>
     <g id="text_9">
      <!-- 0.6 -->
      <g transform="translate(29.763 127.380928)scale(0.16 -0.16)">
       <use xlink:href="#DejaVuSans-30"/>
       <use x="63.623047" xlink:href="#DejaVuSans-2e"/>
       <use x="95.410156" xlink:href="#DejaVuSans-36"/>
      </g>
     </g>
    </g>
    <g id="ytick_5">
     <g id="line2d_47">
      <path clip-path="url(#pd9a3d4b5ff)" d="M 62.208 63.816238 
L 460.8 63.816238 
" style="fill:none;stroke:#b0b0b0;stroke-linecap:square;stroke-width:0.8;"/>
     </g>
     <g id="line2d_48">
      <g>
       <use style="stroke:#000000;stroke-width:0.8;" x="62.208" xlink:href="#m04890ebeb3" y="63.816238"/>
      </g>
     </g>
     <g id="text_10">
      <!-- 0.8 -->
      <g transform="translate(29.763 69.894988)scale(0.16 -0.16)">
       <defs>
        <path d="M 2034 2216 
Q 1584 2216 1326 1975 
Q 1069 1734 1069 1313 
Q 1069 891 1326 650 
Q 1584 409 2034 409 
Q 2484 409 2743 651 
Q 3003 894 3003 1313 
Q 3003 1734 2745 1975 
Q 2488 2216 2034 2216 
z
M 1403 2484 
Q 997 2584 770 2862 
Q 544 3141 544 3541 
Q 544 4100 942 4425 
Q 1341 4750 2034 4750 
Q 2731 4750 3128 4425 
Q 3525 4100 3525 3541 
Q 3525 3141 3298 2862 
Q 3072 2584 2669 2484 
Q 3125 2378 3379 2068 
Q 3634 1759 3634 1313 
Q 3634 634 3220 271 
Q 2806 -91 2034 -91 
Q 1263 -91 848 271 
Q 434 634 434 1313 
Q 434 1759 690 2068 
Q 947 2378 1403 2484 
z
M 1172 3481 
Q 1172 3119 1398 2916 
Q 1625 2713 2034 2713 
Q 2441 2713 2670 2916 
Q 2900 3119 2900 3481 
Q 2900 3844 2670 4047 
Q 2441 4250 2034 4250 
Q 1625 4250 1398 4047 
Q 1172 3844 1172 3481 
z
" id="DejaVuSans-38" transform="scale(0.015625)"/>
       </defs>
       <use xlink:href="#DejaVuSans-30"/>
       <use x="63.623047" xlink:href="#DejaVuSans-2e"/>
       <use x="95.410156" xlink:href="#DejaVuSans-38"/>
      </g>
     </g>
    </g>
    <g id="ytick_6">
     <g id="line2d_49">
      <path clip-path="url(#pd9a3d4b5ff)" d="M 62.208 6.330297 
L 460.8 6.330297 
" style="fill:none;stroke:#b0b0b0;stroke-linecap:square;stroke-width:0.8;"/>
     </g>
     <g id="line2d_50">
      <g>
       <use style="stroke:#000000;stroke-width:0.8;" x="62.208" xlink:href="#m04890ebeb3" y="6.330297"/>
      </g>
     </g>
     <g id="text_11">
      <!-- 1.0 -->
      <g transform="translate(29.763 12.409047)scale(0.16 -0.16)">
       <use xlink:href="#DejaVuSans-31"/>
       <use x="63.623047" xlink:href="#DejaVuSans-2e"/>
       <use x="95.410156" xlink:href="#DejaVuSans-30"/>
      </g>
     </g>
    </g>
    <g id="text_12">
     <!-- proportion of trials -->
     <g transform="translate(21.603625 241.61425)rotate(-90)scale(0.2 -0.2)">
      <defs>
       <path d="M 1159 525 
L 1159 -1331 
L 581 -1331 
L 581 3500 
L 1159 3500 
L 1159 2969 
Q 1341 3281 1617 3432 
Q 1894 3584 2278 3584 
Q 2916 3584 3314 3078 
Q 3713 2572 3713 1747 
Q 3713 922 3314 415 
Q 2916 -91 2278 -91 
Q 1894 -91 1617 61 
Q 1341 213 1159 525 
z
M 3116 1747 
Q 3116 2381 2855 2742 
Q 2594 3103 2138 3103 
Q 1681 3103 1420 2742 
Q 1159 2381 1159 1747 
Q 1159 1113 1420 752 
Q 1681 391 2138 391 
Q 2594 391 2855 752 
Q 3116 1113 3116 1747 
z
" id="DejaVuSans-70" transform="scale(0.015625)"/>
       <path d="M 2631 2963 
Q 2534 3019 2420 3045 
Q 2306 3072 2169 3072 
Q 1681 3072 1420 2755 
Q 1159 2438 1159 1844 
L 1159 0 
L 581 0 
L 581 3500 
L 1159 3500 
L 1159 2956 
Q 1341 3275 1631 3429 
Q 1922 3584 2338 3584 
Q 2397 3584 2469 3576 
Q 2541 3569 2628 3553 
L 2631 2963 
z
" id="DejaVuSans-72" transform="scale(0.015625)"/>
       <path d="M 1172 4494 
L 1172 3500 
L 2356 3500 
L 2356 3053 
L 1172 3053 
L 1172 1153 
Q 1172 725 1289 603 
Q 1406 481 1766 481 
L 2356 481 
L 2356 0 
L 1766 0 
Q 1100 0 847 248 
Q 594 497 594 1153 
L 594 3053 
L 172 3053 
L 172 3500 
L 594 3500 
L 594 4494 
L 1172 4494 
z
" id="DejaVuSans-74" transform="scale(0.015625)"/>
       <path d="M 603 3500 
L 1178 3500 
L 1178 0 
L 603 0 
L 603 3500 
z
M 603 4863 
L 1178 4863 
L 1178 4134 
L 603 4134 
L 603 4863 
z
" id="DejaVuSans-69" transform="scale(0.015625)"/>
       <path d="M 3513 2113 
L 3513 0 
L 2938 0 
L 2938 2094 
Q 2938 2591 2744 2837 
Q 2550 3084 2163 3084 
Q 1697 3084 1428 2787 
Q 1159 2491 1159 1978 
L 1159 0 
L 581 0 
L 581 3500 
L 1159 3500 
L 1159 2956 
Q 1366 3272 1645 3428 
Q 1925 3584 2291 3584 
Q 2894 3584 3203 3211 
Q 3513 2838 3513 2113 
z
" id="DejaVuSans-6e" transform="scale(0.015625)"/>
      </defs>
      <use xlink:href="#DejaVuSans-70"/>
      <use x="63.476562" xlink:href="#DejaVuSans-72"/>
      <use x="102.339844" xlink:href="#DejaVuSans-6f"/>
      <use x="163.521484" xlink:href="#DejaVuSans-70"/>
      <use x="226.998047" xlink:href="#DejaVuSans-6f"/>
      <use x="288.179688" xlink:href="#DejaVuSans-72"/>
      <use x="329.292969" xlink:href="#DejaVuSans-74"/>
      <use x="368.501953" xlink:href="#DejaVuSans-69"/>
      <use x="396.285156" xlink:href="#DejaVuSans-6f"/>
      <use x="457.466797" xlink:href="#DejaVuSans-6e"/>
      <use x="520.845703" xlink:href="#DejaVuSans-20"/>
      <use x="552.632812" xlink:href="#DejaVuSans-6f"/>
      <use x="613.814453" xlink:href="#DejaVuSans-66"/>
      <use x="649.019531" xlink:href="#DejaVuSans-20"/>
      <use x="680.806641" xlink:href="#DejaVuSans-74"/>
      <use x="720.015625" xlink:href="#DejaVuSans-72"/>
      <use x="761.128906" xlink:href="#DejaVuSans-69"/>
      <use x="788.912109" xlink:href="#DejaVuSans-61"/>
      <use x="850.191406" xlink:href="#DejaVuSans-6c"/>
      <use x="877.974609" xlink:href="#DejaVuSans-73"/>
     </g>
    </g>
   </g>
   <g id="line2d_51">
    <path clip-path="url(#pd9a3d4b5ff)" d="M -1 274.59802 
L 17.985198 274.59802 
L 17.985198 270.765624 
L 29.126232 270.765624 
L 29.126232 266.933228 
L 37.030922 266.933228 
L 37.030922 263.100832 
L 40.267267 263.100832 
L 40.267267 255.43604 
L 45.78113 255.43604 
L 45.78113 247.771248 
L 48.171957 247.771248 
L 48.171957 243.938851 
L 52.407581 243.938851 
L 52.407581 240.106455 
L 68.339354 240.106455 
L 68.339354 236.274059 
L 131.387179 236.274059 
L 131.387179 232.441663 
L 134.32647 232.441663 
L 134.32647 228.609267 
L 140.298072 228.609267 
L 140.378064 220.944475 
L 141.855269 220.944475 
L 141.855269 217.112079 
L 145.862866 217.112079 
L 145.92821 209.447287 
L 146.700453 209.447287 
L 146.700453 205.614891 
L 148.83627 205.614891 
L 148.83627 201.782495 
L 149.816671 201.782495 
L 149.816671 197.950099 
L 151.197724 197.950099 
L 151.197724 194.117703 
L 151.836757 194.117703 
L 151.836757 190.285307 
L 152.046508 190.285307 
L 152.046508 186.452911 
L 158.240476 186.452911 
L 158.32374 178.788119 
L 175.676378 178.788119 
L 175.676378 174.955723 
L 181.705857 174.955723 
L 181.705857 171.123327 
L 182.613699 171.123327 
L 182.613699 167.290931 
L 183.625243 167.290931 
L 183.625243 163.458535 
L 184.728371 163.458535 
L 184.728371 159.626139 
L 184.997369 159.626139 
L 184.997369 155.793743 
L 185.7583 155.793743 
L 185.7583 151.961347 
L 186.304222 151.961347 
L 186.304222 148.12895 
L 186.780545 148.12895 
L 186.780545 144.296554 
L 187.551731 144.296554 
L 187.551731 140.464158 
L 188.413332 140.464158 
L 188.413332 136.631762 
L 188.758788 136.631762 
L 188.772516 128.96697 
L 189.436936 128.96697 
L 189.436936 125.134574 
L 189.557245 125.134574 
L 189.557245 121.302178 
L 189.756597 121.302178 
L 189.756597 117.469782 
L 189.875517 117.469782 
L 189.875517 113.637386 
L 190.151012 113.637386 
L 190.151012 109.80499 
L 192.964972 109.80499 
L 192.964972 105.972594 
L 195.94351 105.972594 
L 195.94351 102.140198 
L 196.735475 102.140198 
L 196.735475 98.307802 
L 198.935612 98.307802 
L 198.935612 94.475406 
L 199.218593 94.475406 
L 199.218593 90.64301 
L 203.4703 90.64301 
L 203.4703 86.810614 
L 204.286082 86.810614 
L 204.286082 82.978218 
L 211.821524 82.978218 
L 211.87486 75.313426 
L 213.684805 75.313426 
L 213.684805 71.48103 
L 247.992126 71.48103 
L 247.992126 67.648634 
L 268.207765 67.648634 
L 268.207765 63.816238 
L 391.185742 63.816238 
L 391.185742 59.983842 
L 393.01484 59.983842 
L 393.01484 56.151446 
L 400.018602 56.151446 
L 400.018602 52.31905 
L 406.796925 52.31905 
L 406.796925 48.486653 
L 416.295421 48.486653 
L 416.295421 44.654257 
L 416.924939 44.654257 
L 416.924939 40.821861 
L 421.32181 40.821861 
L 421.32181 36.989465 
L 423.400265 36.989465 
L 423.400265 33.157069 
L 430.684138 33.157069 
L 430.684138 29.324673 
L 440.972028 29.324673 
L 440.972028 25.492277 
L 440.972028 25.492277 
L 460.8 25.492277 
L 460.8 25.492277 
" style="fill:none;stroke:#000000;stroke-linecap:square;stroke-width:1.5;"/>
   </g>
   <g id="line2d_52">
    <defs>
     <path d="M 0 14.142136 
L 8.485281 0 
L 0 -14.142136 
L -8.485281 0 
z
" id="m67d3b1df02" style="stroke:#000000;stroke-linejoin:miter;stroke-width:1.5;"/>
    </defs>
    <g clip-path="url(#pd9a3d4b5ff)">
     <use style="fill-opacity:0;stroke:#000000;stroke-linejoin:miter;stroke-width:1.5;" x="134.32647" xlink:href="#m67d3b1df02" y="232.441663"/>
     <use style="fill-opacity:0;stroke:#000000;stroke-linejoin:miter;stroke-width:1.5;" x="158.240476" xlink:href="#m67d3b1df02" y="186.452911"/>
     <use style="fill-opacity:0;stroke:#000000;stroke-linejoin:miter;stroke-width:1.5;" x="188.772516" xlink:href="#m67d3b1df02" y="132.799366"/>
     <use style="fill-opacity:0;stroke:#000000;stroke-linejoin:miter;stroke-width:1.5;" x="204.286082" xlink:href="#m67d3b1df02" y="86.810614"/>
     <use style="fill-opacity:0;stroke:#000000;stroke-linejoin:miter;stroke-width:1.5;" x="247.992126" xlink:href="#m67d3b1df02" y="71.48103"/>
     <use style="fill-opacity:0;stroke:#000000;stroke-linejoin:miter;stroke-width:1.5;" x="268.207765" xlink:href="#m67d3b1df02" y="67.648634"/>
     <use style="fill-opacity:0;stroke:#000000;stroke-linejoin:miter;stroke-width:1.5;" x="423.400265" xlink:href="#m67d3b1df02" y="36.989465"/>
     <use style="fill-opacity:0;stroke:#000000;stroke-linejoin:miter;stroke-width:1.5;" x="440.972028" xlink:href="#m67d3b1df02" y="25.492277"/>
    </g>
   </g>
   <g id="line2d_53">
    <path clip-path="url(#pd9a3d4b5ff)" style="fill:none;stroke:#000000;stroke-linecap:square;stroke-width:1.5;"/>
    <g clip-path="url(#pd9a3d4b5ff)">
     <use style="fill-opacity:0;stroke:#000000;stroke-linejoin:miter;stroke-width:1.5;" x="-1" xlink:href="#m67d3b1df02" y="581.189703"/>
     <use style="fill-opacity:0;stroke:#000000;stroke-linejoin:miter;stroke-width:1.5;" x="460.8" xlink:href="#m67d3b1df02" y="581.189703"/>
    </g>
   </g>
   <g id="line2d_54">
    <path clip-path="url(#pd9a3d4b5ff)" d="M -1 266.933228 
L 10.080508 266.933228 
L 10.080508 251.603644 
L 29.126232 251.603644 
L 29.126232 247.771248 
L 37.030922 247.771248 
L 37.030922 243.938851 
L 40.267267 243.938851 
L 40.267267 240.106455 
L 66.048263 240.106455 
L 66.048263 236.274059 
L 128.095381 236.274059 
L 128.095381 232.441663 
L 128.590478 232.441663 
L 128.590478 228.609267 
L 133.620596 228.609267 
L 133.620596 224.776871 
L 140.217847 224.776871 
L 140.217847 220.944475 
L 144.38452 220.944475 
L 144.38452 217.112079 
L 147.327813 217.112079 
L 147.327813 213.279683 
L 147.574801 213.279683 
L 147.636202 205.614891 
L 150.653604 205.614891 
L 150.653604 201.782495 
L 152.358161 201.782495 
L 152.358161 197.950099 
L 154.398128 197.950099 
L 154.398128 194.117703 
L 154.967623 194.117703 
L 154.967623 190.285307 
L 155.891313 190.285307 
L 155.891313 186.452911 
L 156.341768 186.452911 
L 156.341768 182.620515 
L 159.820291 182.620515 
L 159.820291 178.788119 
L 160.016417 178.788119 
L 160.016417 174.955723 
L 163.567975 174.955723 
L 163.567975 171.123327 
L 164.513229 171.123327 
L 164.513229 167.290931 
L 165.650826 167.290931 
L 165.650826 163.458535 
L 167.34844 163.458535 
L 167.34844 159.626139 
L 167.527445 159.626139 
L 167.527445 155.793743 
L 167.969921 155.793743 
L 167.969921 151.961347 
L 168.491655 151.961347 
L 168.491655 148.12895 
L 169.972735 148.12895 
L 170.027092 136.631762 
L 170.350992 136.631762 
L 170.350992 132.799366 
L 170.935069 132.799366 
L 170.935069 128.96697 
L 172.492483 128.96697 
L 172.492483 125.134574 
L 176.546669 125.134574 
L 176.546669 121.302178 
L 177.535239 121.302178 
L 177.535239 117.469782 
L 179.527211 117.469782 
L 179.527211 113.637386 
L 181.52778 113.637386 
L 181.52778 109.80499 
L 181.865146 109.80499 
L 181.865146 102.140198 
L 182.337544 102.140198 
L 182.337544 98.307802 
L 183.258653 98.307802 
L 183.258653 94.475406 
L 183.872415 94.475406 
L 183.872415 90.64301 
L 185.450257 90.64301 
L 185.450257 86.810614 
L 186.498725 86.810614 
L 186.498725 82.978218 
L 188.690043 82.978218 
L 188.690043 79.145822 
L 190.629789 79.145822 
L 190.629789 75.313426 
L 198.107866 75.313426 
L 198.107866 71.48103 
L 232.159234 71.48103 
L 232.159234 67.648634 
L 264.376341 67.648634 
L 264.376341 63.816238 
L 362.414426 63.816238 
L 362.414426 59.983842 
L 400.4482 59.983842 
L 400.4482 56.151446 
L 429.222205 56.151446 
L 429.222205 52.31905 
L 429.222205 52.31905 
L 460.8 52.31905 
L 460.8 52.31905 
" style="fill:none;stroke:#000000;stroke-linecap:square;stroke-width:1.5;"/>
   </g>
   <g id="line2d_55">
    <defs>
     <path d="M 0 7.5 
C 1.989023 7.5 3.896849 6.709753 5.303301 5.303301 
C 6.709753 3.896849 7.5 1.989023 7.5 0 
C 7.5 -1.989023 6.709753 -3.896849 5.303301 -5.303301 
C 3.896849 -6.709753 1.989023 -7.5 0 -7.5 
C -1.989023 -7.5 -3.896849 -6.709753 -5.303301 -5.303301 
C -6.709753 -3.896849 -7.5 -1.989023 -7.5 0 
C -7.5 1.989023 -6.709753 3.896849 -5.303301 5.303301 
C -3.896849 6.709753 -1.989023 7.5 0 7.5 
z
" id="md35a5badb2" style="stroke:#000000;stroke-width:1.5;"/>
    </defs>
    <g clip-path="url(#pd9a3d4b5ff)">
     <use style="fill-opacity:0;stroke:#000000;stroke-width:1.5;" x="66.048263" xlink:href="#md35a5badb2" y="240.106455"/>
     <use style="fill-opacity:0;stroke:#000000;stroke-width:1.5;" x="147.636202" xlink:href="#md35a5badb2" y="209.447287"/>
     <use style="fill-opacity:0;stroke:#000000;stroke-width:1.5;" x="170.350992" xlink:href="#md35a5badb2" y="136.631762"/>
     <use style="fill-opacity:0;stroke:#000000;stroke-width:1.5;" x="198.107866" xlink:href="#md35a5badb2" y="75.313426"/>
     <use style="fill-opacity:0;stroke:#000000;stroke-width:1.5;" x="232.159234" xlink:href="#md35a5badb2" y="71.48103"/>
     <use style="fill-opacity:0;stroke:#000000;stroke-width:1.5;" x="264.376341" xlink:href="#md35a5badb2" y="67.648634"/>
     <use style="fill-opacity:0;stroke:#000000;stroke-width:1.5;" x="362.414426" xlink:href="#md35a5badb2" y="63.816238"/>
     <use style="fill-opacity:0;stroke:#000000;stroke-width:1.5;" x="429.222205" xlink:href="#md35a5badb2" y="52.31905"/>
    </g>
   </g>
   <g id="line2d_56">
    <path clip-path="url(#pd9a3d4b5ff)" style="fill:none;stroke:#000000;stroke-linecap:square;stroke-width:1.5;"/>
   </g>
   <g id="line2d_57">
    <path clip-path="url(#pd9a3d4b5ff)" d="M 207.708221 293.76 
L 207.708221 289.927604 
L 211.112473 289.927604 
L 211.112473 286.095208 
L 213.451003 286.095208 
L 213.451003 282.262812 
L 215.528379 282.262812 
L 215.528379 278.430416 
L 260.372335 278.430416 
L 260.372335 274.59802 
L 270.535014 274.59802 
L 270.535014 270.765624 
L 272.591589 270.765624 
L 272.591589 266.933228 
L 282.70402 266.933228 
L 282.70402 263.100832 
L 282.862732 263.100832 
L 282.862732 259.268436 
L 304.767701 259.268436 
L 304.767701 255.43604 
L 310.192074 255.43604 
L 310.192074 251.603644 
L 336.627602 251.603644 
L 336.627602 247.771248 
L 338.996518 247.771248 
L 338.996518 243.938851 
L 347.881827 243.938851 
L 347.881827 240.106455 
L 348.84529 240.106455 
L 348.84529 236.274059 
L 358.345886 236.274059 
L 358.345886 232.441663 
L 366.583193 232.441663 
L 366.583193 228.609267 
L 377.836688 228.609267 
L 377.836688 224.776871 
L 387.898412 224.776871 
L 387.898412 220.944475 
L 396.103035 220.944475 
L 396.103035 217.112079 
L 400.244539 217.112079 
L 400.244539 213.279683 
L 403.595767 213.279683 
L 403.595767 209.447287 
L 406.576611 209.447287 
L 406.576611 205.614891 
L 409.403808 205.614891 
L 409.403808 201.782495 
L 413.603767 201.782495 
L 413.603767 197.950099 
L 422.611858 197.950099 
L 422.611858 194.117703 
L 429.074943 194.117703 
L 429.074943 190.285307 
L 432.830116 190.285307 
L 432.830116 186.452911 
L 432.830116 186.452911 
L 432.830116 186.452911 
L 460.8 186.452911 
" style="fill:none;stroke:#00bfbf;stroke-linecap:square;stroke-width:1.5;"/>
   </g>
   <g id="line2d_58">
    <defs>
     <path d="M 0 14.142136 
L 8.485281 0 
L 0 -14.142136 
L -8.485281 0 
z
" id="mbeba6d2750" style="stroke:#00bfbf;stroke-linejoin:miter;stroke-width:1.5;"/>
    </defs>
    <g clip-path="url(#pd9a3d4b5ff)">
     <use style="fill-opacity:0;stroke:#00bfbf;stroke-linejoin:miter;stroke-width:1.5;" x="213.451003" xlink:href="#mbeba6d2750" y="286.095208"/>
     <use style="fill-opacity:0;stroke:#00bfbf;stroke-linejoin:miter;stroke-width:1.5;" x="272.591589" xlink:href="#mbeba6d2750" y="270.765624"/>
     <use style="fill-opacity:0;stroke:#00bfbf;stroke-linejoin:miter;stroke-width:1.5;" x="310.192074" xlink:href="#mbeba6d2750" y="255.43604"/>
     <use style="fill-opacity:0;stroke:#00bfbf;stroke-linejoin:miter;stroke-width:1.5;" x="366.583193" xlink:href="#mbeba6d2750" y="232.441663"/>
     <use style="fill-opacity:0;stroke:#00bfbf;stroke-linejoin:miter;stroke-width:1.5;" x="409.403808" xlink:href="#mbeba6d2750" y="205.614891"/>
     <use style="fill-opacity:0;stroke:#00bfbf;stroke-linejoin:miter;stroke-width:1.5;" x="432.830116" xlink:href="#mbeba6d2750" y="186.452911"/>
    </g>
   </g>
   <g id="line2d_59">
    <path clip-path="url(#pd9a3d4b5ff)" style="fill:none;stroke:#00bfbf;stroke-linecap:square;stroke-width:1.5;"/>
    <g clip-path="url(#pd9a3d4b5ff)">
     <use style="fill-opacity:0;stroke:#00bfbf;stroke-linejoin:miter;stroke-width:1.5;" x="-1" xlink:href="#mbeba6d2750" y="581.189703"/>
     <use style="fill-opacity:0;stroke:#00bfbf;stroke-linejoin:miter;stroke-width:1.5;" x="460.8" xlink:href="#mbeba6d2750" y="581.189703"/>
    </g>
   </g>
   <g id="line2d_60">
    <path clip-path="url(#pd9a3d4b5ff)" d="M 192.176099 293.76 
L 192.176099 289.927604 
L 202.429901 289.927604 
L 202.429901 286.095208 
L 205.536994 286.095208 
L 205.536994 282.262812 
L 235.181571 282.262812 
L 235.181571 278.430416 
L 243.650803 278.430416 
L 243.650803 274.59802 
L 250.654754 274.59802 
L 250.654754 270.765624 
L 278.967427 270.765624 
L 278.967427 266.933228 
L 280.989314 266.933228 
L 280.989314 263.100832 
L 291.904969 263.100832 
L 291.904969 259.268436 
L 295.377911 259.268436 
L 295.377911 255.43604 
L 301.154548 255.43604 
L 301.154548 251.603644 
L 309.221414 251.603644 
L 309.221414 247.771248 
L 328.456532 247.771248 
L 328.456532 243.938851 
L 334.555358 243.938851 
L 334.555358 240.106455 
L 380.268408 240.106455 
L 380.268408 236.274059 
L 388.407973 236.274059 
L 388.407973 232.441663 
L 401.097521 232.441663 
L 401.097521 228.609267 
L 418.342631 228.609267 
L 418.342631 224.776871 
L 420.034451 224.776871 
L 420.034451 220.944475 
L 422.072524 220.944475 
L 422.072524 217.112079 
L 432.501977 217.112079 
L 432.501977 213.279683 
L 432.501977 213.279683 
L 432.501977 213.279683 
L 460.8 213.279683 
" style="fill:none;stroke:#00bfbf;stroke-linecap:square;stroke-width:1.5;"/>
   </g>
   <g id="line2d_61">
    <defs>
     <path d="M 0 7.5 
C 1.989023 7.5 3.896849 6.709753 5.303301 5.303301 
C 6.709753 3.896849 7.5 1.989023 7.5 0 
C 7.5 -1.989023 6.709753 -3.896849 5.303301 -5.303301 
C 3.896849 -6.709753 1.989023 -7.5 0 -7.5 
C -1.989023 -7.5 -3.896849 -6.709753 -5.303301 -5.303301 
C -6.709753 -3.896849 -7.5 -1.989023 -7.5 0 
C -7.5 1.989023 -6.709753 3.896849 -5.303301 5.303301 
C -3.896849 6.709753 -1.989023 7.5 0 7.5 
z
" id="m2349ce33d2" style="stroke:#00bfbf;stroke-width:1.5;"/>
    </defs>
    <g clip-path="url(#pd9a3d4b5ff)">
     <use style="fill-opacity:0;stroke:#00bfbf;stroke-width:1.5;" x="205.536994" xlink:href="#m2349ce33d2" y="286.095208"/>
     <use style="fill-opacity:0;stroke:#00bfbf;stroke-width:1.5;" x="280.989314" xlink:href="#m2349ce33d2" y="266.933228"/>
     <use style="fill-opacity:0;stroke:#00bfbf;stroke-width:1.5;" x="328.456532" xlink:href="#m2349ce33d2" y="247.771248"/>
     <use style="fill-opacity:0;stroke:#00bfbf;stroke-width:1.5;" x="334.555358" xlink:href="#m2349ce33d2" y="243.938851"/>
     <use style="fill-opacity:0;stroke:#00bfbf;stroke-width:1.5;" x="422.072524" xlink:href="#m2349ce33d2" y="220.944475"/>
     <use style="fill-opacity:0;stroke:#00bfbf;stroke-width:1.5;" x="432.501977" xlink:href="#m2349ce33d2" y="213.279683"/>
    </g>
   </g>
   <g id="line2d_62">
    <path clip-path="url(#pd9a3d4b5ff)" style="fill:none;stroke:#00bfbf;stroke-linecap:square;stroke-width:1.5;"/>
   </g>
   <g id="line2d_63">
    <path clip-path="url(#pd9a3d4b5ff)" d="M 229.43349 293.76 
L 229.43349 289.927604 
L 229.533305 289.927604 
L 229.533305 286.095208 
L 235.506659 286.095208 
L 235.506659 282.262812 
L 235.931745 282.262812 
L 235.931745 278.430416 
L 269.221412 278.430416 
L 269.221412 274.59802 
L 274.225951 274.59802 
L 274.225951 270.765624 
L 275.869625 270.765624 
L 275.869625 266.933228 
L 285.229929 266.933228 
L 285.229929 263.100832 
L 285.502549 263.100832 
L 285.502549 259.268436 
L 306.063687 259.268436 
L 306.063687 255.43604 
L 311.38759 255.43604 
L 311.38759 251.603644 
L 352.796176 251.603644 
L 352.796176 247.771248 
L 358.52136 247.771248 
L 358.52136 243.938851 
L 377.947489 243.938851 
L 377.947489 240.106455 
L 387.963273 240.106455 
L 387.963273 236.274059 
L 400.289168 236.274059 
L 400.289168 232.441663 
L 406.601168 232.441663 
L 406.601168 228.609267 
L 406.601168 228.609267 
L 406.601168 228.609267 
L 460.8 228.609267 
" style="fill:none;stroke:#bf00bf;stroke-linecap:square;stroke-width:1.5;"/>
   </g>
   <g id="line2d_64">
    <defs>
     <path d="M 0 14.142136 
L 8.485281 0 
L 0 -14.142136 
L -8.485281 0 
z
" id="m6eb4e358b2" style="stroke:#bf00bf;stroke-linejoin:miter;stroke-width:1.5;"/>
    </defs>
    <g clip-path="url(#pd9a3d4b5ff)">
     <use style="fill-opacity:0;stroke:#bf00bf;stroke-linejoin:miter;stroke-width:1.5;" x="274.225951" xlink:href="#m6eb4e358b2" y="274.59802"/>
     <use style="fill-opacity:0;stroke:#bf00bf;stroke-linejoin:miter;stroke-width:1.5;" x="306.063687" xlink:href="#m6eb4e358b2" y="259.268436"/>
     <use style="fill-opacity:0;stroke:#bf00bf;stroke-linejoin:miter;stroke-width:1.5;" x="358.52136" xlink:href="#m6eb4e358b2" y="247.771248"/>
     <use style="fill-opacity:0;stroke:#bf00bf;stroke-linejoin:miter;stroke-width:1.5;" x="406.601168" xlink:href="#m6eb4e358b2" y="232.441663"/>
     <use style="fill-opacity:0;stroke:#bf00bf;stroke-linejoin:miter;stroke-width:1.5;" x="406.601168" xlink:href="#m6eb4e358b2" y="228.609267"/>
    </g>
   </g>
   <g id="line2d_65">
    <path clip-path="url(#pd9a3d4b5ff)" style="fill:none;stroke:#bf00bf;stroke-linecap:square;stroke-width:1.5;"/>
    <g clip-path="url(#pd9a3d4b5ff)">
     <use style="fill-opacity:0;stroke:#bf00bf;stroke-linejoin:miter;stroke-width:1.5;" x="-1" xlink:href="#m6eb4e358b2" y="581.189703"/>
     <use style="fill-opacity:0;stroke:#bf00bf;stroke-linejoin:miter;stroke-width:1.5;" x="460.8" xlink:href="#m6eb4e358b2" y="581.189703"/>
    </g>
   </g>
   <g id="line2d_66">
    <path clip-path="url(#pd9a3d4b5ff)" d="M 208.808941 293.76 
L 208.808941 289.927604 
L 216.505992 289.927604 
L 216.505992 286.095208 
L 218.18914 286.095208 
L 218.18914 282.262812 
L 240.83061 282.262812 
L 240.83061 278.430416 
L 247.821425 278.430416 
L 247.821425 274.59802 
L 254.773205 274.59802 
L 254.773205 270.765624 
L 281.722221 270.765624 
L 281.722221 266.933228 
L 283.27537 266.933228 
L 283.27537 263.100832 
L 293.542136 263.100832 
L 293.542136 259.268436 
L 297.3766 259.268436 
L 297.3766 255.43604 
L 302.667246 255.43604 
L 302.667246 251.603644 
L 328.885763 251.603644 
L 328.885763 247.771248 
L 335.114801 247.771248 
L 335.114801 243.938851 
L 380.381309 243.938851 
L 380.381309 240.106455 
L 388.465553 240.106455 
L 388.465553 236.274059 
L 420.057261 236.274059 
L 420.057261 232.441663 
L 422.089614 232.441663 
L 422.089614 228.609267 
L 422.089614 228.609267 
L 422.089614 228.609267 
L 460.8 228.609267 
" style="fill:none;stroke:#bf00bf;stroke-linecap:square;stroke-width:1.5;"/>
   </g>
   <g id="line2d_67">
    <defs>
     <path d="M 0 7.5 
C 1.989023 7.5 3.896849 6.709753 5.303301 5.303301 
C 6.709753 3.896849 7.5 1.989023 7.5 0 
C 7.5 -1.989023 6.709753 -3.896849 5.303301 -5.303301 
C 3.896849 -6.709753 1.989023 -7.5 0 -7.5 
C -1.989023 -7.5 -3.896849 -6.709753 -5.303301 -5.303301 
C -6.709753 -3.896849 -7.5 -1.989023 -7.5 0 
C -7.5 1.989023 -6.709753 3.896849 -5.303301 5.303301 
C -3.896849 6.709753 -1.989023 7.5 0 7.5 
z
" id="mf3cab27ee7" style="stroke:#bf00bf;stroke-width:1.5;"/>
    </defs>
    <g clip-path="url(#pd9a3d4b5ff)">
     <use style="fill-opacity:0;stroke:#bf00bf;stroke-width:1.5;" x="247.821425" xlink:href="#mf3cab27ee7" y="278.430416"/>
     <use style="fill-opacity:0;stroke:#bf00bf;stroke-width:1.5;" x="297.3766" xlink:href="#mf3cab27ee7" y="259.268436"/>
     <use style="fill-opacity:0;stroke:#bf00bf;stroke-width:1.5;" x="335.114801" xlink:href="#mf3cab27ee7" y="247.771248"/>
     <use style="fill-opacity:0;stroke:#bf00bf;stroke-width:1.5;" x="380.381309" xlink:href="#mf3cab27ee7" y="243.938851"/>
     <use style="fill-opacity:0;stroke:#bf00bf;stroke-width:1.5;" x="422.089614" xlink:href="#mf3cab27ee7" y="232.441663"/>
     <use style="fill-opacity:0;stroke:#bf00bf;stroke-width:1.5;" x="422.089614" xlink:href="#mf3cab27ee7" y="228.609267"/>
    </g>
   </g>
   <g id="line2d_68">
    <path clip-path="url(#pd9a3d4b5ff)" style="fill:none;stroke:#bf00bf;stroke-linecap:square;stroke-width:1.5;"/>
   </g>
   <g id="line2d_69">
    <path clip-path="url(#pd9a3d4b5ff)" d="M 244.699663 293.76 
L 244.699663 289.927604 
L 245.503534 289.927604 
L 245.503534 286.095208 
L 247.471947 286.095208 
L 247.471947 282.262812 
L 247.499486 282.262812 
L 247.499486 278.430416 
L 273.553604 278.430416 
L 273.553604 274.59802 
L 277.763855 274.59802 
L 277.763855 270.765624 
L 279.367844 270.765624 
L 279.367844 266.933228 
L 287.882916 266.933228 
L 287.882916 263.100832 
L 288.249871 263.100832 
L 288.249871 259.268436 
L 307.165023 259.268436 
L 307.165023 255.43604 
L 312.366633 255.43604 
L 312.366633 251.603644 
L 352.929037 251.603644 
L 352.929037 247.771248 
L 358.685815 247.771248 
L 358.685815 243.938851 
L 378.041462 243.938851 
L 378.041462 240.106455 
L 388.048514 240.106455 
L 388.048514 236.274059 
L 400.328501 236.274059 
L 400.328501 232.441663 
L 406.635824 232.441663 
L 406.635824 228.609267 
L 406.635824 228.609267 
L 406.635824 228.609267 
L 460.8 228.609267 
" style="fill:none;stroke:#ff0000;stroke-linecap:square;stroke-width:3;"/>
   </g>
   <g id="line2d_70">
    <defs>
     <path d="M 0 14.142136 
L 8.485281 0 
L 0 -14.142136 
L -8.485281 0 
z
" id="m09d02cb0e7" style="stroke:#ff0000;stroke-linejoin:miter;stroke-width:3;"/>
    </defs>
    <g clip-path="url(#pd9a3d4b5ff)">
     <use style="fill-opacity:0;stroke:#ff0000;stroke-linejoin:miter;stroke-width:3;" x="247.471947" xlink:href="#m09d02cb0e7" y="286.095208"/>
     <use style="fill-opacity:0;stroke:#ff0000;stroke-linejoin:miter;stroke-width:3;" x="307.165023" xlink:href="#m09d02cb0e7" y="259.268436"/>
     <use style="fill-opacity:0;stroke:#ff0000;stroke-linejoin:miter;stroke-width:3;" x="312.366633" xlink:href="#m09d02cb0e7" y="255.43604"/>
     <use style="fill-opacity:0;stroke:#ff0000;stroke-linejoin:miter;stroke-width:3;" x="378.041462" xlink:href="#m09d02cb0e7" y="243.938851"/>
     <use style="fill-opacity:0;stroke:#ff0000;stroke-linejoin:miter;stroke-width:3;" x="406.635824" xlink:href="#m09d02cb0e7" y="228.609267"/>
    </g>
   </g>
   <g id="line2d_71">
    <path clip-path="url(#pd9a3d4b5ff)" style="fill:none;stroke:#ff0000;stroke-linecap:square;stroke-width:3;"/>
    <g clip-path="url(#pd9a3d4b5ff)">
     <use style="fill-opacity:0;stroke:#ff0000;stroke-linejoin:miter;stroke-width:3;" x="-1" xlink:href="#m09d02cb0e7" y="581.189703"/>
     <use style="fill-opacity:0;stroke:#ff0000;stroke-linejoin:miter;stroke-width:3;" x="460.8" xlink:href="#m09d02cb0e7" y="581.189703"/>
    </g>
   </g>
   <g id="line2d_72">
    <path clip-path="url(#pd9a3d4b5ff)" d="M 222.704293 293.76 
L 222.704293 289.927604 
L 229.536418 289.927604 
L 229.536418 286.095208 
L 230.179494 286.095208 
L 230.179494 282.262812 
L 246.992905 282.262812 
L 246.992905 278.430416 
L 252.505119 278.430416 
L 252.505119 274.59802 
L 259.057247 274.59802 
L 259.057247 270.765624 
L 284.663464 270.765624 
L 284.663464 266.933228 
L 285.426096 266.933228 
L 285.426096 263.100832 
L 295.831699 263.100832 
L 295.831699 259.268436 
L 299.002467 259.268436 
L 299.002467 255.43604 
L 304.057826 255.43604 
L 304.057826 251.603644 
L 329.411029 251.603644 
L 329.411029 247.771248 
L 335.52164 247.771248 
L 335.52164 243.938851 
L 380.455872 243.938851 
L 380.455872 240.106455 
L 388.546694 240.106455 
L 388.546694 236.274059 
L 420.08425 236.274059 
L 420.08425 232.441663 
L 422.106128 232.441663 
L 422.106128 228.609267 
L 422.106128 228.609267 
L 422.106128 228.609267 
L 460.8 228.609267 
" style="fill:none;stroke:#ff0000;stroke-linecap:square;stroke-width:3;"/>
   </g>
   <g id="line2d_73">
    <defs>
     <path d="M 0 7.5 
C 1.989023 7.5 3.896849 6.709753 5.303301 5.303301 
C 6.709753 3.896849 7.5 1.989023 7.5 0 
C 7.5 -1.989023 6.709753 -3.896849 5.303301 -5.303301 
C 3.896849 -6.709753 1.989023 -7.5 0 -7.5 
C -1.989023 -7.5 -3.896849 -6.709753 -5.303301 -5.303301 
C -6.709753 -3.896849 -7.5 -1.989023 -7.5 0 
C -7.5 1.989023 -6.709753 3.896849 -5.303301 5.303301 
C -3.896849 6.709753 -1.989023 7.5 0 7.5 
z
" id="m661d6d86bf" style="stroke:#ff0000;stroke-width:3;"/>
    </defs>
    <g clip-path="url(#pd9a3d4b5ff)">
     <use style="fill-opacity:0;stroke:#ff0000;stroke-width:3;" x="246.992905" xlink:href="#m661d6d86bf" y="282.262812"/>
     <use style="fill-opacity:0;stroke:#ff0000;stroke-width:3;" x="285.426096" xlink:href="#m661d6d86bf" y="266.933228"/>
     <use style="fill-opacity:0;stroke:#ff0000;stroke-width:3;" x="329.411029" xlink:href="#m661d6d86bf" y="251.603644"/>
     <use style="fill-opacity:0;stroke:#ff0000;stroke-width:3;" x="335.52164" xlink:href="#m661d6d86bf" y="247.771248"/>
     <use style="fill-opacity:0;stroke:#ff0000;stroke-width:3;" x="388.546694" xlink:href="#m661d6d86bf" y="240.106455"/>
     <use style="fill-opacity:0;stroke:#ff0000;stroke-width:3;" x="422.106128" xlink:href="#m661d6d86bf" y="228.609267"/>
    </g>
   </g>
   <g id="line2d_74">
    <path clip-path="url(#pd9a3d4b5ff)" style="fill:none;stroke:#ff0000;stroke-linecap:square;stroke-width:3;"/>
   </g>
   <g id="line2d_75">
    <path clip-path="url(#pd9a3d4b5ff)" d="M 441.819158 293.76 
L 441.819158 3.456 
" style="fill:none;stroke:#000000;stroke-linecap:square;stroke-width:1.5;"/>
    <defs>
     <path d="M -10 0 
L 10 0 
M 0 10 
L 0 -10 
" id="m1debbe362a" style="stroke:#000000;stroke-width:3;"/>
    </defs>
    <g clip-path="url(#pd9a3d4b5ff)">
     <use style="stroke:#000000;stroke-width:3;" x="441.819158" xlink:href="#m1debbe362a" y="293.76"/>
     <use style="stroke:#000000;stroke-width:3;" x="441.819158" xlink:href="#m1debbe362a" y="3.456"/>
    </g>
   </g>
   <g id="line2d_76">
    <path clip-path="url(#pd9a3d4b5ff)" d="M 441.819429 293.76 
L 441.819429 3.456 
" style="fill:none;stroke:#000000;stroke-linecap:square;stroke-width:1.5;"/>
    <defs>
     <path d="M 0 7.5 
C 1.989023 7.5 3.896849 6.709753 5.303301 5.303301 
C 6.709753 3.896849 7.5 1.989023 7.5 0 
C 7.5 -1.989023 6.709753 -3.896849 5.303301 -5.303301 
C 3.896849 -6.709753 1.989023 -7.5 0 -7.5 
C -1.989023 -7.5 -3.896849 -6.709753 -5.303301 -5.303301 
C -6.709753 -3.896849 -7.5 -1.989023 -7.5 0 
C -7.5 1.989023 -6.709753 3.896849 -5.303301 5.303301 
C -3.896849 6.709753 -1.989023 7.5 0 7.5 
z
" id="md2a70b6941" style="stroke:#000000;stroke-width:3;"/>
    </defs>
    <g clip-path="url(#pd9a3d4b5ff)">
     <use style="fill-opacity:0;stroke:#000000;stroke-width:3;" x="441.819429" xlink:href="#md2a70b6941" y="293.76"/>
     <use style="fill-opacity:0;stroke:#000000;stroke-width:3;" x="441.819429" xlink:href="#md2a70b6941" y="3.456"/>
    </g>
   </g>
   <g id="patch_3">
    <path d="M 62.208 293.76 
L 62.208 3.456 
" style="fill:none;stroke:#000000;stroke-linecap:square;stroke-linejoin:miter;stroke-width:0.8;"/>
   </g>
   <g id="patch_4">
    <path d="M 460.8 293.76 
L 460.8 3.456 
" style="fill:none;stroke:#000000;stroke-linecap:square;stroke-linejoin:miter;stroke-width:0.8;"/>
   </g>
   <g id="patch_5">
    <path d="M 62.208 293.76 
L 460.8 293.76 
" style="fill:none;stroke:#000000;stroke-linecap:square;stroke-linejoin:miter;stroke-width:0.8;"/>
   </g>
   <g id="patch_6">
    <path d="M 62.208 3.456 
L 460.8 3.456 
" style="fill:none;stroke:#000000;stroke-linecap:square;stroke-linejoin:miter;stroke-width:0.8;"/>
   </g>
   <g id="text_13">
    <!-- f20-f24 -->
    <g transform="translate(225.405563 24.458955)scale(0.2 -0.2)">
     <defs>
      <path d="M 313 2009 
L 1997 2009 
L 1997 1497 
L 313 1497 
L 313 2009 
z
" id="DejaVuSans-2d" transform="scale(0.015625)"/>
     </defs>
     <use xlink:href="#DejaVuSans-66"/>
     <use x="35.205078" xlink:href="#DejaVuSans-32"/>
     <use x="98.828125" xlink:href="#DejaVuSans-30"/>
     <use x="162.451172" xlink:href="#DejaVuSans-2d"/>
     <use x="198.535156" xlink:href="#DejaVuSans-66"/>
     <use x="233.740234" xlink:href="#DejaVuSans-32"/>
     <use x="297.363281" xlink:href="#DejaVuSans-34"/>
    </g>
   </g>
   <g id="text_14">
    <!-- absolute targets -->
    <g transform="translate(62.208 608.974574)scale(0.14 -0.14)">
     <defs>
      <path d="M 3116 1747 
Q 3116 2381 2855 2742 
Q 2594 3103 2138 3103 
Q 1681 3103 1420 2742 
Q 1159 2381 1159 1747 
Q 1159 1113 1420 752 
Q 1681 391 2138 391 
Q 2594 391 2855 752 
Q 3116 1113 3116 1747 
z
M 1159 2969 
Q 1341 3281 1617 3432 
Q 1894 3584 2278 3584 
Q 2916 3584 3314 3078 
Q 3713 2572 3713 1747 
Q 3713 922 3314 415 
Q 2916 -91 2278 -91 
Q 1894 -91 1617 61 
Q 1341 213 1159 525 
L 1159 0 
L 581 0 
L 581 4863 
L 1159 4863 
L 1159 2969 
z
" id="DejaVuSans-62" transform="scale(0.015625)"/>
      <path d="M 544 1381 
L 544 3500 
L 1119 3500 
L 1119 1403 
Q 1119 906 1312 657 
Q 1506 409 1894 409 
Q 2359 409 2629 706 
Q 2900 1003 2900 1516 
L 2900 3500 
L 3475 3500 
L 3475 0 
L 2900 0 
L 2900 538 
Q 2691 219 2414 64 
Q 2138 -91 1772 -91 
Q 1169 -91 856 284 
Q 544 659 544 1381 
z
M 1991 3584 
L 1991 3584 
z
" id="DejaVuSans-75" transform="scale(0.015625)"/>
      <path d="M 3597 1894 
L 3597 1613 
L 953 1613 
Q 991 1019 1311 708 
Q 1631 397 2203 397 
Q 2534 397 2845 478 
Q 3156 559 3463 722 
L 3463 178 
Q 3153 47 2828 -22 
Q 2503 -91 2169 -91 
Q 1331 -91 842 396 
Q 353 884 353 1716 
Q 353 2575 817 3079 
Q 1281 3584 2069 3584 
Q 2775 3584 3186 3129 
Q 3597 2675 3597 1894 
z
M 3022 2063 
Q 3016 2534 2758 2815 
Q 2500 3097 2075 3097 
Q 1594 3097 1305 2825 
Q 1016 2553 972 2059 
L 3022 2063 
z
" id="DejaVuSans-65" transform="scale(0.015625)"/>
     </defs>
     <use xlink:href="#DejaVuSans-61"/>
     <use x="61.279297" xlink:href="#DejaVuSans-62"/>
     <use x="124.755859" xlink:href="#DejaVuSans-73"/>
     <use x="176.855469" xlink:href="#DejaVuSans-6f"/>
     <use x="238.037109" xlink:href="#DejaVuSans-6c"/>
     <use x="265.820312" xlink:href="#DejaVuSans-75"/>
     <use x="329.199219" xlink:href="#DejaVuSans-74"/>
     <use x="368.408203" xlink:href="#DejaVuSans-65"/>
     <use x="429.931641" xlink:href="#DejaVuSans-20"/>
     <use x="461.71875" xlink:href="#DejaVuSans-74"/>
     <use x="500.927734" xlink:href="#DejaVuSans-61"/>
     <use x="562.207031" xlink:href="#DejaVuSans-72"/>
     <use x="601.570312" xlink:href="#DejaVuSans-67"/>
     <use x="665.046875" xlink:href="#DejaVuSans-65"/>
     <use x="726.570312" xlink:href="#DejaVuSans-74"/>
     <use x="765.779297" xlink:href="#DejaVuSans-73"/>
    </g>
   </g>
   <g id="text_15">
    <!-- v2.4.1.1 -->
    <g style="fill:#808080;" transform="translate(241.052438 288.777272)scale(0.1 -0.1)">
     <use xlink:href="#DejaVuSans-76"/>
     <use x="59.179688" xlink:href="#DejaVuSans-32"/>
     <use x="122.802734" xlink:href="#DejaVuSans-2e"/>
     <use x="154.589844" xlink:href="#DejaVuSans-34"/>
     <use x="218.212891" xlink:href="#DejaVuSans-2e"/>
     <use x="250" xlink:href="#DejaVuSans-31"/>
     <use x="313.623047" xlink:href="#DejaVuSans-2e"/>
     <use x="345.410156" xlink:href="#DejaVuSans-31"/>
    </g>
   </g>
   <g id="legend_1">
    <g id="patch_7">
     <path d="M 76.208 136.881 
L 160.148625 136.881 
Q 164.148625 136.881 164.148625 132.881 
L 164.148625 17.456 
Q 164.148625 13.456 160.148625 13.456 
L 76.208 13.456 
Q 72.208 13.456 72.208 17.456 
L 72.208 132.881 
Q 72.208 136.881 76.208 136.881 
z
" style="fill:#ffffff;opacity:0.2;stroke:#cccccc;stroke-linejoin:miter;"/>
    </g>
    <g id="line2d_77">
     <path d="M 80.208 29.652875 
L 120.208 29.652875 
" style="fill:none;stroke:#000000;stroke-linecap:square;stroke-width:1.5;"/>
    </g>
    <g id="line2d_78"/>
    <g id="text_16">
     <!-- 1 -->
     <g transform="translate(136.208 36.652875)scale(0.2 -0.2)">
      <use xlink:href="#DejaVuSans-31"/>
     </g>
    </g>
    <g id="line2d_79">
     <path d="M 80.208 59.009125 
L 120.208 59.009125 
" style="fill:none;stroke:#00bfbf;stroke-linecap:square;stroke-width:1.5;"/>
    </g>
    <g id="line2d_80"/>
    <g id="text_17">
     <!-- -1 -->
     <g transform="translate(136.208 66.009125)scale(0.2 -0.2)">
      <use xlink:href="#DejaVuSans-2d"/>
      <use x="36.083984" xlink:href="#DejaVuSans-31"/>
     </g>
    </g>
    <g id="line2d_81">
     <path d="M 80.208 88.365375 
L 120.208 88.365375 
" style="fill:none;stroke:#bf00bf;stroke-linecap:square;stroke-width:1.5;"/>
    </g>
    <g id="line2d_82"/>
    <g id="text_18">
     <!-- -4 -->
     <g transform="translate(136.208 95.365375)scale(0.2 -0.2)">
      <use xlink:href="#DejaVuSans-2d"/>
      <use x="36.083984" xlink:href="#DejaVuSans-34"/>
     </g>
    </g>
    <g id="line2d_83">
     <path d="M 80.208 117.721625 
L 120.208 117.721625 
" style="fill:none;stroke:#ff0000;stroke-linecap:square;stroke-width:3;"/>
    </g>
    <g id="line2d_84"/>
    <g id="text_19">
     <!-- -8 -->
     <g transform="translate(136.208 124.721625)scale(0.2 -0.2)">
      <use xlink:href="#DejaVuSans-2d"/>
      <use x="36.083984" xlink:href="#DejaVuSans-38"/>
     </g>
    </g>
   </g>
  </g>
 </g>
 <defs>
  <clipPath id="pd9a3d4b5ff">
   <rect height="290.304" width="398.592" x="62.208" y="3.456"/>
  </clipPath>
 </defs>
</svg>
