<?xml version="1.0" encoding="utf-8" standalone="no"?>
<!DOCTYPE svg PUBLIC "-//W3C//DTD SVG 1.1//EN"
  "http://www.w3.org/Graphics/SVG/1.1/DTD/svg11.dtd">
<!-- Created with matplotlib (http://matplotlib.org/) -->
<svg height="345.6pt" version="1.1" viewBox="0 0 460.8 345.6" width="460.8pt" xmlns="http://www.w3.org/2000/svg" xmlns:xlink="http://www.w3.org/1999/xlink">
 <defs>
  <style type="text/css">
*{stroke-linecap:butt;stroke-linejoin:round;}
  </style>
 </defs>
 <g id="figure_1">
  <g id="patch_1">
   <path d="M 0 345.6 
L 460.8 345.6 
L 460.8 0 
L 0 0 
z
" style="fill:#ffffff;"/>
  </g>
  <g id="axes_1">
   <g id="patch_2">
    <path d="M 56.12 294.88 
L 333.168 294.88 
L 333.168 24.84 
L 56.12 24.84 
z
" style="fill:#ffffff;"/>
   </g>
   <g id="line2d_1">
    <path d="M 70.988122 294.88 
L 70.988122 290.270236 
L 108.224597 290.270236 
L 108.224597 281.050707 
L 125.070745 281.050707 
L 125.070745 271.831178 
L 150.306766 271.831178 
L 150.306766 267.221413 
L 152.076496 267.221413 
L 152.076496 253.39212 
L 153.720626 253.39212 
L 153.720626 244.172591 
L 155.425943 244.172591 
L 155.425943 239.562827 
L 157.326269 239.562827 
L 157.326269 230.343298 
L 159.716097 230.343298 
L 159.716097 216.514005 
L 163.019492 216.514005 
L 163.019492 207.294476 
L 170.482478 207.294476 
L 170.482478 198.074947 
L 189.628817 198.074947 
L 189.628817 188.855418 
L 221.084338 188.855418 
L 221.084338 184.245654 
L 234.503074 184.245654 
L 234.503074 170.416361 
L 267.596448 170.416361 
L 267.596448 165.806596 
L 293.463489 165.806596 
L 293.463489 151.977303 
L 333.168 151.977303 
" style="fill:none;stroke:#f5deb3;stroke-linecap:square;stroke-width:4;"/>
   </g>
   <g id="line2d_2">
    <defs>
     <path d="M -0 7.778175 
L 7.778175 0 
L 0 -7.778175 
L -7.778175 -0 
z
" id="me213f9589c" style="stroke:#f5deb3;stroke-linejoin:miter;stroke-width:1.5;"/>
    </defs>
    <g>
     <use style="fill:#f5deb3;stroke:#f5deb3;stroke-linejoin:miter;stroke-width:1.5;" x="108.224597" xlink:href="#me213f9589c" y="290.270236"/>
     <use style="fill:#f5deb3;stroke:#f5deb3;stroke-linejoin:miter;stroke-width:1.5;" x="163.019492" xlink:href="#me213f9589c" y="216.514005"/>
     <use style="fill:#f5deb3;stroke:#f5deb3;stroke-linejoin:miter;stroke-width:1.5;" x="234.503074" xlink:href="#me213f9589c" y="184.245654"/>
     <use style="fill:#f5deb3;stroke:#f5deb3;stroke-linejoin:miter;stroke-width:1.5;" x="293.463489" xlink:href="#me213f9589c" y="151.977303"/>
     <use style="fill:#f5deb3;stroke:#f5deb3;stroke-linejoin:miter;stroke-width:1.5;" x="333.168" xlink:href="#me213f9589c" y="151.977303"/>
    </g>
   </g>
   <g id="line2d_3">
    <path style="fill:none;stroke:#f5deb3;stroke-linecap:square;stroke-width:4;"/>
    <g/>
   </g>
   <g id="line2d_4">
    <path d="M 333.168 151.977303 
L 363.64328 118.418218 
" style="fill:none;stroke:#f5deb3;stroke-linecap:square;stroke-width:4;"/>
    <g>
     <use style="fill:#f5deb3;stroke:#f5deb3;stroke-linejoin:miter;stroke-width:1.5;" x="333.168" xlink:href="#me213f9589c" y="151.977303"/>
     <use style="fill:#f5deb3;stroke:#f5deb3;stroke-linejoin:miter;stroke-width:1.5;" x="363.64328" xlink:href="#me213f9589c" y="118.418218"/>
    </g>
   </g>
   <g id="matplotlib.axis_1">
    <g id="xtick_1">
     <g id="line2d_5">
      <path clip-path="url(#pd44805d602)" d="M 56.12 294.88 
L 56.12 24.84 
" style="fill:none;stroke:#b0b0b0;stroke-linecap:square;stroke-width:0.8;"/>
     </g>
     <g id="line2d_6">
      <defs>
       <path d="M 0 0 
L 0 3.5 
" id="m261967e4fc" style="stroke:#000000;stroke-width:0.8;"/>
      </defs>
      <g>
       <use style="stroke:#000000;stroke-width:0.8;" x="56.12" xlink:href="#m261967e4fc" y="294.88"/>
      </g>
     </g>
     <g id="text_1">
      <!-- 0 -->
      <defs>
       <path d="M 31.78125 66.40625 
Q 24.171875 66.40625 20.328125 58.90625 
Q 16.5 51.421875 16.5 36.375 
Q 16.5 21.390625 20.328125 13.890625 
Q 24.171875 6.390625 31.78125 6.390625 
Q 39.453125 6.390625 43.28125 13.890625 
Q 47.125 21.390625 47.125 36.375 
Q 47.125 51.421875 43.28125 58.90625 
Q 39.453125 66.40625 31.78125 66.40625 
z
M 31.78125 74.21875 
Q 44.046875 74.21875 50.515625 64.515625 
Q 56.984375 54.828125 56.984375 36.375 
Q 56.984375 17.96875 50.515625 8.265625 
Q 44.046875 -1.421875 31.78125 -1.421875 
Q 19.53125 -1.421875 13.0625 8.265625 
Q 6.59375 17.96875 6.59375 36.375 
Q 6.59375 54.828125 13.0625 64.515625 
Q 19.53125 74.21875 31.78125 74.21875 
z
" id="DejaVuSans-30"/>
      </defs>
      <g transform="translate(49.7575 317.076875)scale(0.2 -0.2)">
       <use xlink:href="#DejaVuSans-30"/>
      </g>
     </g>
    </g>
    <g id="xtick_2">
     <g id="line2d_7">
      <path clip-path="url(#pd44805d602)" d="M 135.276571 294.88 
L 135.276571 24.84 
" style="fill:none;stroke:#b0b0b0;stroke-linecap:square;stroke-width:0.8;"/>
     </g>
     <g id="line2d_8">
      <g>
       <use style="stroke:#000000;stroke-width:0.8;" x="135.276571" xlink:href="#m261967e4fc" y="294.88"/>
      </g>
     </g>
     <g id="text_2">
      <!-- 2 -->
      <defs>
       <path d="M 19.1875 8.296875 
L 53.609375 8.296875 
L 53.609375 0 
L 7.328125 0 
L 7.328125 8.296875 
Q 12.9375 14.109375 22.625 23.890625 
Q 32.328125 33.6875 34.8125 36.53125 
Q 39.546875 41.84375 41.421875 45.53125 
Q 43.3125 49.21875 43.3125 52.78125 
Q 43.3125 58.59375 39.234375 62.25 
Q 35.15625 65.921875 28.609375 65.921875 
Q 23.96875 65.921875 18.8125 64.3125 
Q 13.671875 62.703125 7.8125 59.421875 
L 7.8125 69.390625 
Q 13.765625 71.78125 18.9375 73 
Q 24.125 74.21875 28.421875 74.21875 
Q 39.75 74.21875 46.484375 68.546875 
Q 53.21875 62.890625 53.21875 53.421875 
Q 53.21875 48.921875 51.53125 44.890625 
Q 49.859375 40.875 45.40625 35.40625 
Q 44.1875 33.984375 37.640625 27.21875 
Q 31.109375 20.453125 19.1875 8.296875 
z
" id="DejaVuSans-32"/>
      </defs>
      <g transform="translate(128.914071 317.076875)scale(0.2 -0.2)">
       <use xlink:href="#DejaVuSans-32"/>
      </g>
     </g>
    </g>
    <g id="xtick_3">
     <g id="line2d_9">
      <path clip-path="url(#pd44805d602)" d="M 214.433143 294.88 
L 214.433143 24.84 
" style="fill:none;stroke:#b0b0b0;stroke-linecap:square;stroke-width:0.8;"/>
     </g>
     <g id="line2d_10">
      <g>
       <use style="stroke:#000000;stroke-width:0.8;" x="214.433143" xlink:href="#m261967e4fc" y="294.88"/>
      </g>
     </g>
     <g id="text_3">
      <!-- 4 -->
      <defs>
       <path d="M 37.796875 64.3125 
L 12.890625 25.390625 
L 37.796875 25.390625 
z
M 35.203125 72.90625 
L 47.609375 72.90625 
L 47.609375 25.390625 
L 58.015625 25.390625 
L 58.015625 17.1875 
L 47.609375 17.1875 
L 47.609375 0 
L 37.796875 0 
L 37.796875 17.1875 
L 4.890625 17.1875 
L 4.890625 26.703125 
z
" id="DejaVuSans-34"/>
      </defs>
      <g transform="translate(208.070643 317.076875)scale(0.2 -0.2)">
       <use xlink:href="#DejaVuSans-34"/>
      </g>
     </g>
    </g>
    <g id="xtick_4">
     <g id="line2d_11">
      <path clip-path="url(#pd44805d602)" d="M 293.589714 294.88 
L 293.589714 24.84 
" style="fill:none;stroke:#b0b0b0;stroke-linecap:square;stroke-width:0.8;"/>
     </g>
     <g id="line2d_12">
      <g>
       <use style="stroke:#000000;stroke-width:0.8;" x="293.589714" xlink:href="#m261967e4fc" y="294.88"/>
      </g>
     </g>
     <g id="text_4">
      <!-- 6 -->
      <defs>
       <path d="M 33.015625 40.375 
Q 26.375 40.375 22.484375 35.828125 
Q 18.609375 31.296875 18.609375 23.390625 
Q 18.609375 15.53125 22.484375 10.953125 
Q 26.375 6.390625 33.015625 6.390625 
Q 39.65625 6.390625 43.53125 10.953125 
Q 47.40625 15.53125 47.40625 23.390625 
Q 47.40625 31.296875 43.53125 35.828125 
Q 39.65625 40.375 33.015625 40.375 
z
M 52.59375 71.296875 
L 52.59375 62.3125 
Q 48.875 64.0625 45.09375 64.984375 
Q 41.3125 65.921875 37.59375 65.921875 
Q 27.828125 65.921875 22.671875 59.328125 
Q 17.53125 52.734375 16.796875 39.40625 
Q 19.671875 43.65625 24.015625 45.921875 
Q 28.375 48.1875 33.59375 48.1875 
Q 44.578125 48.1875 50.953125 41.515625 
Q 57.328125 34.859375 57.328125 23.390625 
Q 57.328125 12.15625 50.6875 5.359375 
Q 44.046875 -1.421875 33.015625 -1.421875 
Q 20.359375 -1.421875 13.671875 8.265625 
Q 6.984375 17.96875 6.984375 36.375 
Q 6.984375 53.65625 15.1875 63.9375 
Q 23.390625 74.21875 37.203125 74.21875 
Q 40.921875 74.21875 44.703125 73.484375 
Q 48.484375 72.75 52.59375 71.296875 
z
" id="DejaVuSans-36"/>
      </defs>
      <g transform="translate(287.227214 317.076875)scale(0.2 -0.2)">
       <use xlink:href="#DejaVuSans-36"/>
      </g>
     </g>
    </g>
    <g id="xtick_5">
     <g id="line2d_13">
      <path clip-path="url(#pd44805d602)" d="M 56.12 294.88 
L 56.12 24.84 
" style="fill:none;stroke:#b0b0b0;stroke-linecap:square;stroke-width:0.8;"/>
     </g>
     <g id="line2d_14">
      <defs>
       <path d="M 0 0 
L 0 2 
" id="me22b7b43ed" style="stroke:#000000;stroke-width:0.6;"/>
      </defs>
      <g>
       <use style="stroke:#000000;stroke-width:0.6;" x="56.12" xlink:href="#me22b7b43ed" y="294.88"/>
      </g>
     </g>
    </g>
    <g id="xtick_6">
     <g id="line2d_15">
      <path clip-path="url(#pd44805d602)" d="M 95.698286 294.88 
L 95.698286 24.84 
" style="fill:none;stroke:#b0b0b0;stroke-linecap:square;stroke-width:0.8;"/>
     </g>
     <g id="line2d_16">
      <g>
       <use style="stroke:#000000;stroke-width:0.6;" x="95.698286" xlink:href="#me22b7b43ed" y="294.88"/>
      </g>
     </g>
    </g>
    <g id="xtick_7">
     <g id="line2d_17">
      <path clip-path="url(#pd44805d602)" d="M 135.276571 294.88 
L 135.276571 24.84 
" style="fill:none;stroke:#b0b0b0;stroke-linecap:square;stroke-width:0.8;"/>
     </g>
     <g id="line2d_18">
      <g>
       <use style="stroke:#000000;stroke-width:0.6;" x="135.276571" xlink:href="#me22b7b43ed" y="294.88"/>
      </g>
     </g>
    </g>
    <g id="xtick_8">
     <g id="line2d_19">
      <path clip-path="url(#pd44805d602)" d="M 174.854857 294.88 
L 174.854857 24.84 
" style="fill:none;stroke:#b0b0b0;stroke-linecap:square;stroke-width:0.8;"/>
     </g>
     <g id="line2d_20">
      <g>
       <use style="stroke:#000000;stroke-width:0.6;" x="174.854857" xlink:href="#me22b7b43ed" y="294.88"/>
      </g>
     </g>
    </g>
    <g id="xtick_9">
     <g id="line2d_21">
      <path clip-path="url(#pd44805d602)" d="M 214.433143 294.88 
L 214.433143 24.84 
" style="fill:none;stroke:#b0b0b0;stroke-linecap:square;stroke-width:0.8;"/>
     </g>
     <g id="line2d_22">
      <g>
       <use style="stroke:#000000;stroke-width:0.6;" x="214.433143" xlink:href="#me22b7b43ed" y="294.88"/>
      </g>
     </g>
    </g>
    <g id="xtick_10">
     <g id="line2d_23">
      <path clip-path="url(#pd44805d602)" d="M 254.011429 294.88 
L 254.011429 24.84 
" style="fill:none;stroke:#b0b0b0;stroke-linecap:square;stroke-width:0.8;"/>
     </g>
     <g id="line2d_24">
      <g>
       <use style="stroke:#000000;stroke-width:0.6;" x="254.011429" xlink:href="#me22b7b43ed" y="294.88"/>
      </g>
     </g>
    </g>
    <g id="xtick_11">
     <g id="line2d_25">
      <path clip-path="url(#pd44805d602)" d="M 293.589714 294.88 
L 293.589714 24.84 
" style="fill:none;stroke:#b0b0b0;stroke-linecap:square;stroke-width:0.8;"/>
     </g>
     <g id="line2d_26">
      <g>
       <use style="stroke:#000000;stroke-width:0.6;" x="293.589714" xlink:href="#me22b7b43ed" y="294.88"/>
      </g>
     </g>
    </g>
    <g id="xtick_12">
     <g id="line2d_27">
      <path clip-path="url(#pd44805d602)" d="M 333.168 294.88 
L 333.168 24.84 
" style="fill:none;stroke:#b0b0b0;stroke-linecap:square;stroke-width:0.8;"/>
     </g>
     <g id="line2d_28">
      <g>
       <use style="stroke:#000000;stroke-width:0.6;" x="333.168" xlink:href="#me22b7b43ed" y="294.88"/>
      </g>
     </g>
    </g>
    <g id="text_5">
     <!-- log10(# f-evals / dimension) -->
     <defs>
      <path d="M 9.421875 75.984375 
L 18.40625 75.984375 
L 18.40625 0 
L 9.421875 0 
z
" id="DejaVuSans-6c"/>
      <path d="M 30.609375 48.390625 
Q 23.390625 48.390625 19.1875 42.75 
Q 14.984375 37.109375 14.984375 27.296875 
Q 14.984375 17.484375 19.15625 11.84375 
Q 23.34375 6.203125 30.609375 6.203125 
Q 37.796875 6.203125 41.984375 11.859375 
Q 46.1875 17.53125 46.1875 27.296875 
Q 46.1875 37.015625 41.984375 42.703125 
Q 37.796875 48.390625 30.609375 48.390625 
z
M 30.609375 56 
Q 42.328125 56 49.015625 48.375 
Q 55.71875 40.765625 55.71875 27.296875 
Q 55.71875 13.875 49.015625 6.21875 
Q 42.328125 -1.421875 30.609375 -1.421875 
Q 18.84375 -1.421875 12.171875 6.21875 
Q 5.515625 13.875 5.515625 27.296875 
Q 5.515625 40.765625 12.171875 48.375 
Q 18.84375 56 30.609375 56 
z
" id="DejaVuSans-6f"/>
      <path d="M 45.40625 27.984375 
Q 45.40625 37.75 41.375 43.109375 
Q 37.359375 48.484375 30.078125 48.484375 
Q 22.859375 48.484375 18.828125 43.109375 
Q 14.796875 37.75 14.796875 27.984375 
Q 14.796875 18.265625 18.828125 12.890625 
Q 22.859375 7.515625 30.078125 7.515625 
Q 37.359375 7.515625 41.375 12.890625 
Q 45.40625 18.265625 45.40625 27.984375 
z
M 54.390625 6.78125 
Q 54.390625 -7.171875 48.1875 -13.984375 
Q 42 -20.796875 29.203125 -20.796875 
Q 24.46875 -20.796875 20.265625 -20.09375 
Q 16.0625 -19.390625 12.109375 -17.921875 
L 12.109375 -9.1875 
Q 16.0625 -11.328125 19.921875 -12.34375 
Q 23.78125 -13.375 27.78125 -13.375 
Q 36.625 -13.375 41.015625 -8.765625 
Q 45.40625 -4.15625 45.40625 5.171875 
L 45.40625 9.625 
Q 42.625 4.78125 38.28125 2.390625 
Q 33.9375 0 27.875 0 
Q 17.828125 0 11.671875 7.65625 
Q 5.515625 15.328125 5.515625 27.984375 
Q 5.515625 40.671875 11.671875 48.328125 
Q 17.828125 56 27.875 56 
Q 33.9375 56 38.28125 53.609375 
Q 42.625 51.21875 45.40625 46.390625 
L 45.40625 54.6875 
L 54.390625 54.6875 
z
" id="DejaVuSans-67"/>
      <path d="M 12.40625 8.296875 
L 28.515625 8.296875 
L 28.515625 63.921875 
L 10.984375 60.40625 
L 10.984375 69.390625 
L 28.421875 72.90625 
L 38.28125 72.90625 
L 38.28125 8.296875 
L 54.390625 8.296875 
L 54.390625 0 
L 12.40625 0 
z
" id="DejaVuSans-31"/>
      <path d="M 31 75.875 
Q 24.46875 64.65625 21.28125 53.65625 
Q 18.109375 42.671875 18.109375 31.390625 
Q 18.109375 20.125 21.3125 9.0625 
Q 24.515625 -2 31 -13.1875 
L 23.1875 -13.1875 
Q 15.875 -1.703125 12.234375 9.375 
Q 8.59375 20.453125 8.59375 31.390625 
Q 8.59375 42.28125 12.203125 53.3125 
Q 15.828125 64.359375 23.1875 75.875 
z
" id="DejaVuSans-28"/>
      <path d="M 51.125 44 
L 36.921875 44 
L 32.8125 27.6875 
L 47.125 27.6875 
z
M 43.796875 71.78125 
L 38.71875 51.515625 
L 52.984375 51.515625 
L 58.109375 71.78125 
L 65.921875 71.78125 
L 60.890625 51.515625 
L 76.125 51.515625 
L 76.125 44 
L 58.984375 44 
L 54.984375 27.6875 
L 70.515625 27.6875 
L 70.515625 20.21875 
L 53.078125 20.21875 
L 48 0 
L 40.1875 0 
L 45.21875 20.21875 
L 30.90625 20.21875 
L 25.875 0 
L 18.015625 0 
L 23.09375 20.21875 
L 7.71875 20.21875 
L 7.71875 27.6875 
L 24.90625 27.6875 
L 29 44 
L 13.28125 44 
L 13.28125 51.515625 
L 30.90625 51.515625 
L 35.890625 71.78125 
z
" id="DejaVuSans-23"/>
      <path id="DejaVuSans-20"/>
      <path d="M 37.109375 75.984375 
L 37.109375 68.5 
L 28.515625 68.5 
Q 23.6875 68.5 21.796875 66.546875 
Q 19.921875 64.59375 19.921875 59.515625 
L 19.921875 54.6875 
L 34.71875 54.6875 
L 34.71875 47.703125 
L 19.921875 47.703125 
L 19.921875 0 
L 10.890625 0 
L 10.890625 47.703125 
L 2.296875 47.703125 
L 2.296875 54.6875 
L 10.890625 54.6875 
L 10.890625 58.5 
Q 10.890625 67.625 15.140625 71.796875 
Q 19.390625 75.984375 28.609375 75.984375 
z
" id="DejaVuSans-66"/>
      <path d="M 4.890625 31.390625 
L 31.203125 31.390625 
L 31.203125 23.390625 
L 4.890625 23.390625 
z
" id="DejaVuSans-2d"/>
      <path d="M 56.203125 29.59375 
L 56.203125 25.203125 
L 14.890625 25.203125 
Q 15.484375 15.921875 20.484375 11.0625 
Q 25.484375 6.203125 34.421875 6.203125 
Q 39.59375 6.203125 44.453125 7.46875 
Q 49.3125 8.734375 54.109375 11.28125 
L 54.109375 2.78125 
Q 49.265625 0.734375 44.1875 -0.34375 
Q 39.109375 -1.421875 33.890625 -1.421875 
Q 20.796875 -1.421875 13.15625 6.1875 
Q 5.515625 13.8125 5.515625 26.8125 
Q 5.515625 40.234375 12.765625 48.109375 
Q 20.015625 56 32.328125 56 
Q 43.359375 56 49.78125 48.890625 
Q 56.203125 41.796875 56.203125 29.59375 
z
M 47.21875 32.234375 
Q 47.125 39.59375 43.09375 43.984375 
Q 39.0625 48.390625 32.421875 48.390625 
Q 24.90625 48.390625 20.390625 44.140625 
Q 15.875 39.890625 15.1875 32.171875 
z
" id="DejaVuSans-65"/>
      <path d="M 2.984375 54.6875 
L 12.5 54.6875 
L 29.59375 8.796875 
L 46.6875 54.6875 
L 56.203125 54.6875 
L 35.6875 0 
L 23.484375 0 
z
" id="DejaVuSans-76"/>
      <path d="M 34.28125 27.484375 
Q 23.390625 27.484375 19.1875 25 
Q 14.984375 22.515625 14.984375 16.5 
Q 14.984375 11.71875 18.140625 8.90625 
Q 21.296875 6.109375 26.703125 6.109375 
Q 34.1875 6.109375 38.703125 11.40625 
Q 43.21875 16.703125 43.21875 25.484375 
L 43.21875 27.484375 
z
M 52.203125 31.203125 
L 52.203125 0 
L 43.21875 0 
L 43.21875 8.296875 
Q 40.140625 3.328125 35.546875 0.953125 
Q 30.953125 -1.421875 24.3125 -1.421875 
Q 15.921875 -1.421875 10.953125 3.296875 
Q 6 8.015625 6 15.921875 
Q 6 25.140625 12.171875 29.828125 
Q 18.359375 34.515625 30.609375 34.515625 
L 43.21875 34.515625 
L 43.21875 35.40625 
Q 43.21875 41.609375 39.140625 45 
Q 35.0625 48.390625 27.6875 48.390625 
Q 23 48.390625 18.546875 47.265625 
Q 14.109375 46.140625 10.015625 43.890625 
L 10.015625 52.203125 
Q 14.9375 54.109375 19.578125 55.046875 
Q 24.21875 56 28.609375 56 
Q 40.484375 56 46.34375 49.84375 
Q 52.203125 43.703125 52.203125 31.203125 
z
" id="DejaVuSans-61"/>
      <path d="M 44.28125 53.078125 
L 44.28125 44.578125 
Q 40.484375 46.53125 36.375 47.5 
Q 32.28125 48.484375 27.875 48.484375 
Q 21.1875 48.484375 17.84375 46.4375 
Q 14.5 44.390625 14.5 40.28125 
Q 14.5 37.15625 16.890625 35.375 
Q 19.28125 33.59375 26.515625 31.984375 
L 29.59375 31.296875 
Q 39.15625 29.25 43.1875 25.515625 
Q 47.21875 21.78125 47.21875 15.09375 
Q 47.21875 7.46875 41.1875 3.015625 
Q 35.15625 -1.421875 24.609375 -1.421875 
Q 20.21875 -1.421875 15.453125 -0.5625 
Q 10.6875 0.296875 5.421875 2 
L 5.421875 11.28125 
Q 10.40625 8.6875 15.234375 7.390625 
Q 20.0625 6.109375 24.8125 6.109375 
Q 31.15625 6.109375 34.5625 8.28125 
Q 37.984375 10.453125 37.984375 14.40625 
Q 37.984375 18.0625 35.515625 20.015625 
Q 33.0625 21.96875 24.703125 23.78125 
L 21.578125 24.515625 
Q 13.234375 26.265625 9.515625 29.90625 
Q 5.8125 33.546875 5.8125 39.890625 
Q 5.8125 47.609375 11.28125 51.796875 
Q 16.75 56 26.8125 56 
Q 31.78125 56 36.171875 55.265625 
Q 40.578125 54.546875 44.28125 53.078125 
z
" id="DejaVuSans-73"/>
      <path d="M 25.390625 72.90625 
L 33.6875 72.90625 
L 8.296875 -9.28125 
L 0 -9.28125 
z
" id="DejaVuSans-2f"/>
      <path d="M 45.40625 46.390625 
L 45.40625 75.984375 
L 54.390625 75.984375 
L 54.390625 0 
L 45.40625 0 
L 45.40625 8.203125 
Q 42.578125 3.328125 38.25 0.953125 
Q 33.9375 -1.421875 27.875 -1.421875 
Q 17.96875 -1.421875 11.734375 6.484375 
Q 5.515625 14.40625 5.515625 27.296875 
Q 5.515625 40.1875 11.734375 48.09375 
Q 17.96875 56 27.875 56 
Q 33.9375 56 38.25 53.625 
Q 42.578125 51.265625 45.40625 46.390625 
z
M 14.796875 27.296875 
Q 14.796875 17.390625 18.875 11.75 
Q 22.953125 6.109375 30.078125 6.109375 
Q 37.203125 6.109375 41.296875 11.75 
Q 45.40625 17.390625 45.40625 27.296875 
Q 45.40625 37.203125 41.296875 42.84375 
Q 37.203125 48.484375 30.078125 48.484375 
Q 22.953125 48.484375 18.875 42.84375 
Q 14.796875 37.203125 14.796875 27.296875 
z
" id="DejaVuSans-64"/>
      <path d="M 9.421875 54.6875 
L 18.40625 54.6875 
L 18.40625 0 
L 9.421875 0 
z
M 9.421875 75.984375 
L 18.40625 75.984375 
L 18.40625 64.59375 
L 9.421875 64.59375 
z
" id="DejaVuSans-69"/>
      <path d="M 52 44.1875 
Q 55.375 50.25 60.0625 53.125 
Q 64.75 56 71.09375 56 
Q 79.640625 56 84.28125 50.015625 
Q 88.921875 44.046875 88.921875 33.015625 
L 88.921875 0 
L 79.890625 0 
L 79.890625 32.71875 
Q 79.890625 40.578125 77.09375 44.375 
Q 74.3125 48.1875 68.609375 48.1875 
Q 61.625 48.1875 57.5625 43.546875 
Q 53.515625 38.921875 53.515625 30.90625 
L 53.515625 0 
L 44.484375 0 
L 44.484375 32.71875 
Q 44.484375 40.625 41.703125 44.40625 
Q 38.921875 48.1875 33.109375 48.1875 
Q 26.21875 48.1875 22.15625 43.53125 
Q 18.109375 38.875 18.109375 30.90625 
L 18.109375 0 
L 9.078125 0 
L 9.078125 54.6875 
L 18.109375 54.6875 
L 18.109375 46.1875 
Q 21.1875 51.21875 25.484375 53.609375 
Q 29.78125 56 35.6875 56 
Q 41.65625 56 45.828125 52.96875 
Q 50 49.953125 52 44.1875 
z
" id="DejaVuSans-6d"/>
      <path d="M 54.890625 33.015625 
L 54.890625 0 
L 45.90625 0 
L 45.90625 32.71875 
Q 45.90625 40.484375 42.875 44.328125 
Q 39.84375 48.1875 33.796875 48.1875 
Q 26.515625 48.1875 22.3125 43.546875 
Q 18.109375 38.921875 18.109375 30.90625 
L 18.109375 0 
L 9.078125 0 
L 9.078125 54.6875 
L 18.109375 54.6875 
L 18.109375 46.1875 
Q 21.34375 51.125 25.703125 53.5625 
Q 30.078125 56 35.796875 56 
Q 45.21875 56 50.046875 50.171875 
Q 54.890625 44.34375 54.890625 33.015625 
z
" id="DejaVuSans-6e"/>
      <path d="M 8.015625 75.875 
L 15.828125 75.875 
Q 23.140625 64.359375 26.78125 53.3125 
Q 30.421875 42.28125 30.421875 31.390625 
Q 30.421875 20.453125 26.78125 9.375 
Q 23.140625 -1.703125 15.828125 -13.1875 
L 8.015625 -13.1875 
Q 14.5 -2 17.703125 9.0625 
Q 20.90625 20.125 20.90625 31.390625 
Q 20.90625 42.671875 17.703125 53.65625 
Q 14.5 64.65625 8.015625 75.875 
z
" id="DejaVuSans-29"/>
     </defs>
     <g transform="translate(73.803219 338.153594)scale(0.17 -0.17)">
      <use xlink:href="#DejaVuSans-6c"/>
      <use x="27.783203" xlink:href="#DejaVuSans-6f"/>
      <use x="88.964844" xlink:href="#DejaVuSans-67"/>
      <use x="152.441406" xlink:href="#DejaVuSans-31"/>
      <use x="216.064453" xlink:href="#DejaVuSans-30"/>
      <use x="279.6875" xlink:href="#DejaVuSans-28"/>
      <use x="318.701172" xlink:href="#DejaVuSans-23"/>
      <use x="402.490234" xlink:href="#DejaVuSans-20"/>
      <use x="434.277344" xlink:href="#DejaVuSans-66"/>
      <use x="469.404297" xlink:href="#DejaVuSans-2d"/>
      <use x="505.488281" xlink:href="#DejaVuSans-65"/>
      <use x="567.011719" xlink:href="#DejaVuSans-76"/>
      <use x="626.191406" xlink:href="#DejaVuSans-61"/>
      <use x="687.470703" xlink:href="#DejaVuSans-6c"/>
      <use x="715.253906" xlink:href="#DejaVuSans-73"/>
      <use x="767.353516" xlink:href="#DejaVuSans-20"/>
      <use x="799.140625" xlink:href="#DejaVuSans-2f"/>
      <use x="832.832031" xlink:href="#DejaVuSans-20"/>
      <use x="864.619141" xlink:href="#DejaVuSans-64"/>
      <use x="928.095703" xlink:href="#DejaVuSans-69"/>
      <use x="955.878906" xlink:href="#DejaVuSans-6d"/>
      <use x="1053.291016" xlink:href="#DejaVuSans-65"/>
      <use x="1114.814453" xlink:href="#DejaVuSans-6e"/>
      <use x="1178.193359" xlink:href="#DejaVuSans-73"/>
      <use x="1230.292969" xlink:href="#DejaVuSans-69"/>
      <use x="1258.076172" xlink:href="#DejaVuSans-6f"/>
      <use x="1319.257812" xlink:href="#DejaVuSans-6e"/>
      <use x="1382.636719" xlink:href="#DejaVuSans-29"/>
     </g>
    </g>
   </g>
   <g id="matplotlib.axis_2">
    <g id="ytick_1">
     <g id="line2d_29">
      <path clip-path="url(#pd44805d602)" d="M 56.12 294.88 
L 333.168 294.88 
" style="fill:none;stroke:#b0b0b0;stroke-linecap:square;stroke-width:0.8;"/>
     </g>
     <g id="line2d_30">
      <defs>
       <path d="M 0 0 
L -3.5 0 
" id="m1f5a096f06" style="stroke:#000000;stroke-width:0.8;"/>
      </defs>
      <g>
       <use style="stroke:#000000;stroke-width:0.8;" x="56.12" xlink:href="#m1f5a096f06" y="294.88"/>
      </g>
     </g>
     <g id="text_6">
      <!-- 0.0 -->
      <defs>
       <path d="M 10.6875 12.40625 
L 21 12.40625 
L 21 0 
L 10.6875 0 
z
" id="DejaVuSans-2e"/>
      </defs>
      <g transform="translate(23.675 300.95875)scale(0.16 -0.16)">
       <use xlink:href="#DejaVuSans-30"/>
       <use x="63.623047" xlink:href="#DejaVuSans-2e"/>
       <use x="95.410156" xlink:href="#DejaVuSans-30"/>
      </g>
     </g>
    </g>
    <g id="ytick_2">
     <g id="line2d_31">
      <path clip-path="url(#pd44805d602)" d="M 56.12 241.406733 
L 333.168 241.406733 
" style="fill:none;stroke:#b0b0b0;stroke-linecap:square;stroke-width:0.8;"/>
     </g>
     <g id="line2d_32">
      <g>
       <use style="stroke:#000000;stroke-width:0.8;" x="56.12" xlink:href="#m1f5a096f06" y="241.406733"/>
      </g>
     </g>
     <g id="text_7">
      <!-- 0.2 -->
      <g transform="translate(23.675 247.485483)scale(0.16 -0.16)">
       <use xlink:href="#DejaVuSans-30"/>
       <use x="63.623047" xlink:href="#DejaVuSans-2e"/>
       <use x="95.410156" xlink:href="#DejaVuSans-32"/>
      </g>
     </g>
    </g>
    <g id="ytick_3">
     <g id="line2d_33">
      <path clip-path="url(#pd44805d602)" d="M 56.12 187.933465 
L 333.168 187.933465 
" style="fill:none;stroke:#b0b0b0;stroke-linecap:square;stroke-width:0.8;"/>
     </g>
     <g id="line2d_34">
      <g>
       <use style="stroke:#000000;stroke-width:0.8;" x="56.12" xlink:href="#m1f5a096f06" y="187.933465"/>
      </g>
     </g>
     <g id="text_8">
      <!-- 0.4 -->
      <g transform="translate(23.675 194.012215)scale(0.16 -0.16)">
       <use xlink:href="#DejaVuSans-30"/>
       <use x="63.623047" xlink:href="#DejaVuSans-2e"/>
       <use x="95.410156" xlink:href="#DejaVuSans-34"/>
      </g>
     </g>
    </g>
    <g id="ytick_4">
     <g id="line2d_35">
      <path clip-path="url(#pd44805d602)" d="M 56.12 134.460198 
L 333.168 134.460198 
" style="fill:none;stroke:#b0b0b0;stroke-linecap:square;stroke-width:0.8;"/>
     </g>
     <g id="line2d_36">
      <g>
       <use style="stroke:#000000;stroke-width:0.8;" x="56.12" xlink:href="#m1f5a096f06" y="134.460198"/>
      </g>
     </g>
     <g id="text_9">
      <!-- 0.6 -->
      <g transform="translate(23.675 140.538948)scale(0.16 -0.16)">
       <use xlink:href="#DejaVuSans-30"/>
       <use x="63.623047" xlink:href="#DejaVuSans-2e"/>
       <use x="95.410156" xlink:href="#DejaVuSans-36"/>
      </g>
     </g>
    </g>
    <g id="ytick_5">
     <g id="line2d_37">
      <path clip-path="url(#pd44805d602)" d="M 56.12 80.986931 
L 333.168 80.986931 
" style="fill:none;stroke:#b0b0b0;stroke-linecap:square;stroke-width:0.8;"/>
     </g>
     <g id="line2d_38">
      <g>
       <use style="stroke:#000000;stroke-width:0.8;" x="56.12" xlink:href="#m1f5a096f06" y="80.986931"/>
      </g>
     </g>
     <g id="text_10">
      <!-- 0.8 -->
      <defs>
       <path d="M 31.78125 34.625 
Q 24.75 34.625 20.71875 30.859375 
Q 16.703125 27.09375 16.703125 20.515625 
Q 16.703125 13.921875 20.71875 10.15625 
Q 24.75 6.390625 31.78125 6.390625 
Q 38.8125 6.390625 42.859375 10.171875 
Q 46.921875 13.96875 46.921875 20.515625 
Q 46.921875 27.09375 42.890625 30.859375 
Q 38.875 34.625 31.78125 34.625 
z
M 21.921875 38.8125 
Q 15.578125 40.375 12.03125 44.71875 
Q 8.5 49.078125 8.5 55.328125 
Q 8.5 64.0625 14.71875 69.140625 
Q 20.953125 74.21875 31.78125 74.21875 
Q 42.671875 74.21875 48.875 69.140625 
Q 55.078125 64.0625 55.078125 55.328125 
Q 55.078125 49.078125 51.53125 44.71875 
Q 48 40.375 41.703125 38.8125 
Q 48.828125 37.15625 52.796875 32.3125 
Q 56.78125 27.484375 56.78125 20.515625 
Q 56.78125 9.90625 50.3125 4.234375 
Q 43.84375 -1.421875 31.78125 -1.421875 
Q 19.734375 -1.421875 13.25 4.234375 
Q 6.78125 9.90625 6.78125 20.515625 
Q 6.78125 27.484375 10.78125 32.3125 
Q 14.796875 37.15625 21.921875 38.8125 
z
M 18.3125 54.390625 
Q 18.3125 48.734375 21.84375 45.5625 
Q 25.390625 42.390625 31.78125 42.390625 
Q 38.140625 42.390625 41.71875 45.5625 
Q 45.3125 48.734375 45.3125 54.390625 
Q 45.3125 60.0625 41.71875 63.234375 
Q 38.140625 66.40625 31.78125 66.40625 
Q 25.390625 66.40625 21.84375 63.234375 
Q 18.3125 60.0625 18.3125 54.390625 
z
" id="DejaVuSans-38"/>
      </defs>
      <g transform="translate(23.675 87.065681)scale(0.16 -0.16)">
       <use xlink:href="#DejaVuSans-30"/>
       <use x="63.623047" xlink:href="#DejaVuSans-2e"/>
       <use x="95.410156" xlink:href="#DejaVuSans-38"/>
      </g>
     </g>
    </g>
    <g id="ytick_6">
     <g id="line2d_39">
      <path clip-path="url(#pd44805d602)" d="M 56.12 27.513663 
L 333.168 27.513663 
" style="fill:none;stroke:#b0b0b0;stroke-linecap:square;stroke-width:0.8;"/>
     </g>
     <g id="line2d_40">
      <g>
       <use style="stroke:#000000;stroke-width:0.8;" x="56.12" xlink:href="#m1f5a096f06" y="27.513663"/>
      </g>
     </g>
     <g id="text_11">
      <!-- 1.0 -->
      <g transform="translate(23.675 33.592413)scale(0.16 -0.16)">
       <use xlink:href="#DejaVuSans-31"/>
       <use x="63.623047" xlink:href="#DejaVuSans-2e"/>
       <use x="95.410156" xlink:href="#DejaVuSans-30"/>
      </g>
     </g>
    </g>
    <g id="text_12">
     <!-- Fraction of function,target pairs -->
     <defs>
      <path d="M 9.8125 72.90625 
L 51.703125 72.90625 
L 51.703125 64.59375 
L 19.671875 64.59375 
L 19.671875 43.109375 
L 48.578125 43.109375 
L 48.578125 34.8125 
L 19.671875 34.8125 
L 19.671875 0 
L 9.8125 0 
z
" id="DejaVuSans-46"/>
      <path d="M 41.109375 46.296875 
Q 39.59375 47.171875 37.8125 47.578125 
Q 36.03125 48 33.890625 48 
Q 26.265625 48 22.1875 43.046875 
Q 18.109375 38.09375 18.109375 28.8125 
L 18.109375 0 
L 9.078125 0 
L 9.078125 54.6875 
L 18.109375 54.6875 
L 18.109375 46.1875 
Q 20.953125 51.171875 25.484375 53.578125 
Q 30.03125 56 36.53125 56 
Q 37.453125 56 38.578125 55.875 
Q 39.703125 55.765625 41.0625 55.515625 
z
" id="DejaVuSans-72"/>
      <path d="M 48.78125 52.59375 
L 48.78125 44.1875 
Q 44.96875 46.296875 41.140625 47.34375 
Q 37.3125 48.390625 33.40625 48.390625 
Q 24.65625 48.390625 19.8125 42.84375 
Q 14.984375 37.3125 14.984375 27.296875 
Q 14.984375 17.28125 19.8125 11.734375 
Q 24.65625 6.203125 33.40625 6.203125 
Q 37.3125 6.203125 41.140625 7.25 
Q 44.96875 8.296875 48.78125 10.40625 
L 48.78125 2.09375 
Q 45.015625 0.34375 40.984375 -0.53125 
Q 36.96875 -1.421875 32.421875 -1.421875 
Q 20.0625 -1.421875 12.78125 6.34375 
Q 5.515625 14.109375 5.515625 27.296875 
Q 5.515625 40.671875 12.859375 48.328125 
Q 20.21875 56 33.015625 56 
Q 37.15625 56 41.109375 55.140625 
Q 45.0625 54.296875 48.78125 52.59375 
z
" id="DejaVuSans-63"/>
      <path d="M 18.3125 70.21875 
L 18.3125 54.6875 
L 36.8125 54.6875 
L 36.8125 47.703125 
L 18.3125 47.703125 
L 18.3125 18.015625 
Q 18.3125 11.328125 20.140625 9.421875 
Q 21.96875 7.515625 27.59375 7.515625 
L 36.8125 7.515625 
L 36.8125 0 
L 27.59375 0 
Q 17.1875 0 13.234375 3.875 
Q 9.28125 7.765625 9.28125 18.015625 
L 9.28125 47.703125 
L 2.6875 47.703125 
L 2.6875 54.6875 
L 9.28125 54.6875 
L 9.28125 70.21875 
z
" id="DejaVuSans-74"/>
      <path d="M 8.5 21.578125 
L 8.5 54.6875 
L 17.484375 54.6875 
L 17.484375 21.921875 
Q 17.484375 14.15625 20.5 10.265625 
Q 23.53125 6.390625 29.59375 6.390625 
Q 36.859375 6.390625 41.078125 11.03125 
Q 45.3125 15.671875 45.3125 23.6875 
L 45.3125 54.6875 
L 54.296875 54.6875 
L 54.296875 0 
L 45.3125 0 
L 45.3125 8.40625 
Q 42.046875 3.421875 37.71875 1 
Q 33.40625 -1.421875 27.6875 -1.421875 
Q 18.265625 -1.421875 13.375 4.4375 
Q 8.5 10.296875 8.5 21.578125 
z
M 31.109375 56 
z
" id="DejaVuSans-75"/>
      <path d="M 11.71875 12.40625 
L 22.015625 12.40625 
L 22.015625 4 
L 14.015625 -11.625 
L 7.71875 -11.625 
L 11.71875 4 
z
" id="DejaVuSans-2c"/>
      <path d="M 18.109375 8.203125 
L 18.109375 -20.796875 
L 9.078125 -20.796875 
L 9.078125 54.6875 
L 18.109375 54.6875 
L 18.109375 46.390625 
Q 20.953125 51.265625 25.265625 53.625 
Q 29.59375 56 35.59375 56 
Q 45.5625 56 51.78125 48.09375 
Q 58.015625 40.1875 58.015625 27.296875 
Q 58.015625 14.40625 51.78125 6.484375 
Q 45.5625 -1.421875 35.59375 -1.421875 
Q 29.59375 -1.421875 25.265625 0.953125 
Q 20.953125 3.328125 18.109375 8.203125 
z
M 48.6875 27.296875 
Q 48.6875 37.203125 44.609375 42.84375 
Q 40.53125 48.484375 33.40625 48.484375 
Q 26.265625 48.484375 22.1875 42.84375 
Q 18.109375 37.203125 18.109375 27.296875 
Q 18.109375 17.390625 22.1875 11.75 
Q 26.265625 6.109375 33.40625 6.109375 
Q 40.53125 6.109375 44.609375 11.75 
Q 48.6875 17.390625 48.6875 27.296875 
z
" id="DejaVuSans-70"/>
     </defs>
     <g transform="translate(16.139531 294.999375)rotate(-90)scale(0.17 -0.17)">
      <use xlink:href="#DejaVuSans-46"/>
      <use x="57.410156" xlink:href="#DejaVuSans-72"/>
      <use x="98.523438" xlink:href="#DejaVuSans-61"/>
      <use x="159.802734" xlink:href="#DejaVuSans-63"/>
      <use x="214.783203" xlink:href="#DejaVuSans-74"/>
      <use x="253.992188" xlink:href="#DejaVuSans-69"/>
      <use x="281.775391" xlink:href="#DejaVuSans-6f"/>
      <use x="342.957031" xlink:href="#DejaVuSans-6e"/>
      <use x="406.335938" xlink:href="#DejaVuSans-20"/>
      <use x="438.123047" xlink:href="#DejaVuSans-6f"/>
      <use x="499.304688" xlink:href="#DejaVuSans-66"/>
      <use x="534.509766" xlink:href="#DejaVuSans-20"/>
      <use x="566.296875" xlink:href="#DejaVuSans-66"/>
      <use x="601.501953" xlink:href="#DejaVuSans-75"/>
      <use x="664.880859" xlink:href="#DejaVuSans-6e"/>
      <use x="728.259766" xlink:href="#DejaVuSans-63"/>
      <use x="783.240234" xlink:href="#DejaVuSans-74"/>
      <use x="822.449219" xlink:href="#DejaVuSans-69"/>
      <use x="850.232422" xlink:href="#DejaVuSans-6f"/>
      <use x="911.414062" xlink:href="#DejaVuSans-6e"/>
      <use x="974.792969" xlink:href="#DejaVuSans-2c"/>
      <use x="1006.580078" xlink:href="#DejaVuSans-74"/>
      <use x="1045.789062" xlink:href="#DejaVuSans-61"/>
      <use x="1107.068359" xlink:href="#DejaVuSans-72"/>
      <use x="1148.166016" xlink:href="#DejaVuSans-67"/>
      <use x="1211.642578" xlink:href="#DejaVuSans-65"/>
      <use x="1273.166016" xlink:href="#DejaVuSans-74"/>
      <use x="1312.375" xlink:href="#DejaVuSans-20"/>
      <use x="1344.162109" xlink:href="#DejaVuSans-70"/>
      <use x="1407.638672" xlink:href="#DejaVuSans-61"/>
      <use x="1468.917969" xlink:href="#DejaVuSans-69"/>
      <use x="1496.701172" xlink:href="#DejaVuSans-72"/>
      <use x="1537.814453" xlink:href="#DejaVuSans-73"/>
     </g>
    </g>
   </g>
   <g id="line2d_41">
    <defs>
     <path d="M 0 1.5 
C 0.397805 1.5 0.77937 1.341951 1.06066 1.06066 
C 1.341951 0.77937 1.5 0.397805 1.5 0 
C 1.5 -0.397805 1.341951 -0.77937 1.06066 -1.06066 
C 0.77937 -1.341951 0.397805 -1.5 0 -1.5 
C -0.397805 -1.5 -0.77937 -1.341951 -1.06066 -1.06066 
C -1.341951 -0.77937 -1.5 -0.397805 -1.5 0 
C -1.5 0.397805 -1.341951 0.77937 -1.06066 1.06066 
C -0.77937 1.341951 -0.397805 1.5 0 1.5 
z
" id="m4660373fef" style="stroke:#f5deb3;"/>
    </defs>
    <g>
     <use style="fill:#f5deb3;stroke:#f5deb3;" x="293.463489" xlink:href="#m4660373fef" y="151.977303"/>
     <use style="fill:#f5deb3;stroke:#f5deb3;" x="293.463489" xlink:href="#m4660373fef" y="151.977303"/>
    </g>
   </g>
   <g id="line2d_42">
    <defs>
     <path d="M 0 1.5 
C 0.397805 1.5 0.77937 1.341951 1.06066 1.06066 
C 1.341951 0.77937 1.5 0.397805 1.5 0 
C 1.5 -0.397805 1.341951 -0.77937 1.06066 -1.06066 
C 0.77937 -1.341951 0.397805 -1.5 0 -1.5 
C -0.397805 -1.5 -0.77937 -1.341951 -1.06066 -1.06066 
C -1.341951 -0.77937 -1.5 -0.397805 -1.5 0 
C -1.5 0.397805 -1.341951 0.77937 -1.06066 1.06066 
C -0.77937 1.341951 -0.397805 1.5 0 1.5 
z
" id="m6f0fd11fa7" style="stroke:#000080;"/>
    </defs>
    <g>
     <use style="fill:#000080;stroke:#000080;" x="323.237492" xlink:href="#m6f0fd11fa7" y="32.123428"/>
     <use style="fill:#000080;stroke:#000080;" x="323.237492" xlink:href="#m6f0fd11fa7" y="32.123428"/>
    </g>
   </g>
   <g id="line2d_43">
    <path d="M -1 280.58973 
L 71.168109 280.58973 
L 71.168109 278.745825 
L 84.039949 278.745825 
L 84.039949 278.284848 
L 107.93184 278.284848 
L 107.93184 277.362895 
L 109.675221 277.362895 
L 109.675221 276.440942 
L 111.585031 276.440942 
L 111.636112 274.597037 
L 111.83893 274.597037 
L 111.83893 274.13606 
L 113.396034 274.13606 
L 113.396034 273.675084 
L 114.438088 273.675084 
L 114.438088 272.292154 
L 117.280607 272.292154 
L 117.280607 271.370201 
L 117.402599 271.370201 
L 117.402599 270.909225 
L 118.474659 270.909225 
L 118.474659 270.448249 
L 119.014308 270.448249 
L 119.014308 269.987272 
L 120.169921 269.987272 
L 120.169921 269.065319 
L 121.91976 269.065319 
L 122.012974 268.143366 
L 122.588877 268.143366 
L 122.588877 267.68239 
L 122.758842 267.68239 
L 122.758842 267.221413 
L 123.413809 267.221413 
L 123.413809 266.299461 
L 123.558862 266.299461 
L 123.558862 265.838484 
L 124.233665 265.838484 
L 124.323296 263.994578 
L 125.125128 263.994578 
L 125.125128 262.611649 
L 125.727229 262.611649 
L 125.727229 262.150673 
L 126.787337 262.150673 
L 126.787337 261.689696 
L 127.504496 261.689696 
L 127.504496 261.22872 
L 128.533435 261.22872 
L 128.558862 259.384814 
L 128.660195 259.384814 
L 128.660195 258.923837 
L 129.884775 258.923837 
L 129.884775 258.462861 
L 130.81195 258.462861 
L 130.81195 256.618955 
L 131.071844 256.618955 
L 131.071844 256.157979 
L 131.907344 256.157979 
L 132.011581 254.314073 
L 132.089346 254.314073 
L 132.089346 252.009191 
L 132.478037 252.009191 
L 132.478037 251.548214 
L 134.408475 251.548214 
L 134.462626 249.243332 
L 134.534564 249.243332 
L 134.534564 248.782356 
L 135.379395 248.782356 
L 135.443349 246.477474 
L 136.029049 246.477474 
L 136.029049 246.016497 
L 136.67882 246.016497 
L 136.789358 243.711615 
L 137.247541 243.711615 
L 137.247541 243.250638 
L 137.805467 243.250638 
L 137.805467 241.406733 
L 138.055863 241.406733 
L 138.063173 240.023803 
L 138.442628 240.023803 
L 138.442628 238.640874 
L 138.824378 238.640874 
L 138.824378 238.179898 
L 139.523115 238.179898 
L 139.523115 237.257945 
L 140.549169 237.257945 
L 140.549169 235.414039 
L 140.781579 235.414039 
L 140.781579 234.953062 
L 141.493482 234.953062 
L 141.50545 232.64818 
L 141.701723 232.64818 
L 141.731267 230.343298 
L 142.07321 230.343298 
L 142.07321 229.882322 
L 142.532895 229.882322 
L 142.634022 226.19451 
L 143.07914 226.19451 
L 143.11186 224.811581 
L 143.427652 224.811581 
L 143.427652 222.967675 
L 143.951793 222.967675 
L 143.951793 222.045722 
L 144.445305 222.045722 
L 144.445305 221.123769 
L 144.895601 221.123769 
L 144.895601 218.818887 
L 145.957288 218.818887 
L 145.957288 218.357911 
L 146.275203 218.357911 
L 146.275203 217.896934 
L 146.669485 217.896934 
L 146.669485 217.435958 
L 147.024581 217.435958 
L 147.024581 216.053028 
L 147.190823 216.053028 
L 147.190823 215.592052 
L 147.334178 215.592052 
L 147.334178 215.131075 
L 148.638557 215.131075 
L 148.638557 213.28717 
L 149.555732 213.28717 
L 149.555732 212.365217 
L 150.265493 212.365217 
L 150.265493 211.90424 
L 150.848394 211.90424 
L 150.848394 210.521311 
L 151.517734 210.521311 
L 151.531092 208.216429 
L 151.723628 208.216429 
L 151.723628 207.294476 
L 151.905868 207.294476 
L 151.96456 203.145688 
L 152.411168 203.145688 
L 152.411168 201.301782 
L 153.997586 201.301782 
L 153.997586 198.9969 
L 154.193126 198.9969 
L 154.193126 198.535924 
L 155.316478 198.535924 
L 155.403306 197.152994 
L 155.59148 197.152994 
L 155.59148 196.692018 
L 156.101782 196.692018 
L 156.118406 195.309088 
L 156.311596 195.309088 
L 156.311596 194.848112 
L 157.175491 194.848112 
L 157.175491 193.926159 
L 158.473756 193.926159 
L 158.473756 193.465183 
L 158.780822 193.465183 
L 158.780822 193.004206 
L 159.212168 193.004206 
L 159.3186 191.1603 
L 159.411718 191.1603 
L 159.411718 190.699324 
L 160.938515 190.699324 
L 160.938515 190.238348 
L 161.720916 190.238348 
L 161.720916 189.316395 
L 162.679951 189.316395 
L 162.679951 188.855418 
L 163.347421 188.855418 
L 163.347421 187.933465 
L 164.978117 187.933465 
L 164.978117 186.550536 
L 165.491743 186.550536 
L 165.491743 185.167607 
L 165.898818 185.167607 
L 165.898818 184.70663 
L 166.521939 184.70663 
L 166.521939 184.245654 
L 166.703794 184.245654 
L 166.776138 183.323701 
L 166.978456 183.323701 
L 166.978456 182.401748 
L 168.289554 182.401748 
L 168.289554 181.479795 
L 168.538946 181.479795 
L 168.538946 181.018819 
L 168.724103 181.018819 
L 168.724103 180.096866 
L 168.845224 180.096866 
L 168.845224 179.635889 
L 169.909996 179.635889 
L 170.013959 176.870031 
L 170.343928 176.870031 
L 170.343928 176.409054 
L 171.443233 176.409054 
L 171.450045 174.565149 
L 171.971663 174.565149 
L 171.971663 174.104172 
L 173.468286 174.104172 
L 173.468286 172.260266 
L 174.285615 172.260266 
L 174.285615 171.79929 
L 174.542643 171.79929 
L 174.542643 171.338313 
L 175.56904 171.338313 
L 175.56904 170.877337 
L 175.949811 170.877337 
L 175.949811 169.494408 
L 176.532129 169.494408 
L 176.532129 169.033431 
L 176.993597 169.033431 
L 176.993597 168.111478 
L 179.190119 168.111478 
L 179.190119 165.806596 
L 179.529025 165.806596 
L 179.529025 165.34562 
L 179.794131 165.34562 
L 179.878391 164.423667 
L 180.55127 164.423667 
L 180.55127 163.040737 
L 181.956661 163.040737 
L 181.956661 161.657808 
L 183.639461 161.657808 
L 183.639461 160.735855 
L 184.501611 160.735855 
L 184.501611 160.274879 
L 184.901672 160.274879 
L 184.901672 159.352926 
L 185.844421 159.352926 
L 185.844421 158.430973 
L 186.089354 158.430973 
L 186.089354 157.969997 
L 187.691641 157.969997 
L 187.691641 157.50902 
L 189.061591 157.50902 
L 189.061591 156.587067 
L 189.304123 156.587067 
L 189.304123 156.126091 
L 190.473162 156.126091 
L 190.473162 155.204138 
L 190.894391 155.204138 
L 190.894391 153.821209 
L 192.35674 153.821209 
L 192.35674 153.360232 
L 192.625655 153.360232 
L 192.625655 152.899256 
L 193.155184 152.899256 
L 193.155184 151.516326 
L 194.604669 151.516326 
L 194.604669 151.05535 
L 194.747222 151.05535 
L 194.747222 149.672421 
L 196.559535 149.672421 
L 196.559535 148.750468 
L 198.137088 148.750468 
L 198.137088 148.289491 
L 198.354181 148.289491 
L 198.354181 147.828515 
L 198.872783 147.828515 
L 198.872783 146.906562 
L 199.121935 146.906562 
L 199.121935 145.984609 
L 199.715199 145.984609 
L 199.715199 144.60168 
L 200.398884 144.60168 
L 200.398884 144.140703 
L 200.760901 144.140703 
L 200.760901 143.679727 
L 201.550981 143.679727 
L 201.550981 143.21875 
L 202.13652 143.21875 
L 202.13652 141.835821 
L 203.068636 141.835821 
L 203.068636 141.374845 
L 204.13228 141.374845 
L 204.13228 140.913868 
L 205.210445 140.913868 
L 205.210445 140.452892 
L 205.879993 140.452892 
L 205.879993 139.991915 
L 208.308158 139.991915 
L 208.308158 138.608986 
L 208.887711 138.608986 
L 208.887711 138.14801 
L 209.269575 138.14801 
L 209.269575 137.687033 
L 212.043962 137.687033 
L 212.043962 137.226057 
L 213.821829 137.226057 
L 213.896162 136.304104 
L 217.083605 136.304104 
L 217.083605 135.843127 
L 218.720286 135.843127 
L 218.720286 134.460198 
L 219.128645 134.460198 
L 219.128645 133.538245 
L 221.12369 133.538245 
L 221.12369 133.077269 
L 221.382411 133.077269 
L 221.382411 132.616292 
L 221.95114 132.616292 
L 221.95114 132.155316 
L 226.94427 132.155316 
L 226.94427 131.233363 
L 227.202249 131.233363 
L 227.202249 128.928481 
L 231.362279 128.928481 
L 231.362279 128.006528 
L 232.168175 128.006528 
L 232.168175 127.545551 
L 233.934359 127.545551 
L 233.937274 126.623598 
L 234.569788 126.623598 
L 234.569788 124.779693 
L 238.123854 124.779693 
L 238.123854 122.474811 
L 240.005895 122.474811 
L 240.005895 122.013834 
L 241.823595 122.013834 
L 241.823595 121.552858 
L 244.326395 121.552858 
L 244.326395 121.091881 
L 245.636571 121.091881 
L 245.636571 120.630905 
L 249.639176 120.630905 
L 249.639176 119.708952 
L 250.2298 119.708952 
L 250.2298 118.786999 
L 251.475385 118.786999 
L 251.475385 118.326023 
L 252.17776 118.326023 
L 252.17776 117.865046 
L 252.292752 117.865046 
L 252.292752 116.02114 
L 253.211697 116.02114 
L 253.211697 115.099187 
L 253.930115 115.099187 
L 253.930115 114.177235 
L 254.545363 114.177235 
L 254.593194 113.255282 
L 254.726436 113.255282 
L 254.832052 111.411376 
L 255.090251 111.411376 
L 255.17477 110.028447 
L 255.277715 110.028447 
L 255.277715 109.56747 
L 255.445699 109.56747 
L 255.445699 109.106494 
L 255.90825 109.106494 
L 255.90825 108.645517 
L 256.377633 108.645517 
L 256.411125 107.262588 
L 257.183128 107.262588 
L 257.24622 106.340635 
L 259.755672 106.340635 
L 259.755672 104.957706 
L 261.756465 104.957706 
L 261.756465 104.035753 
L 262.69294 104.035753 
L 262.69294 103.1138 
L 263.722406 103.1138 
L 263.722406 102.191847 
L 263.878204 102.191847 
L 263.878204 101.730871 
L 264.319337 101.730871 
L 264.319337 101.269894 
L 264.691863 101.269894 
L 264.691863 100.347941 
L 265.033288 100.347941 
L 265.087816 98.504036 
L 266.219026 98.504036 
L 266.255518 97.121106 
L 266.340891 97.121106 
L 266.421036 93.894271 
L 266.473556 93.894271 
L 266.53712 92.511342 
L 266.657773 92.511342 
L 266.657773 92.050365 
L 266.793949 92.050365 
L 266.900244 90.667436 
L 266.994634 90.667436 
L 266.994634 90.20646 
L 267.157665 90.20646 
L 267.157665 89.745483 
L 267.64343 89.745483 
L 267.64343 89.284507 
L 268.409823 89.284507 
L 268.409823 88.82353 
L 269.36282 88.82353 
L 269.36282 88.362554 
L 270.230788 88.362554 
L 270.230788 87.440601 
L 270.529803 87.440601 
L 270.529803 86.979624 
L 271.458035 86.979624 
L 271.557534 86.057672 
L 271.847273 86.057672 
L 271.847273 85.596695 
L 272.305321 85.596695 
L 272.341058 84.674742 
L 272.632608 84.674742 
L 272.632608 84.213766 
L 272.868011 84.213766 
L 272.868011 83.752789 
L 273.115665 83.752789 
L 273.206898 82.36986 
L 273.262255 82.36986 
L 273.305105 80.986931 
L 273.726126 80.986931 
L 273.726126 80.525954 
L 274.590668 80.525954 
L 274.590668 80.064978 
L 275.030303 80.064978 
L 275.030303 79.604001 
L 276.097189 79.604001 
L 276.097189 79.143025 
L 276.404314 79.143025 
L 276.404314 78.221072 
L 276.773575 78.221072 
L 276.773575 77.760096 
L 276.969635 77.760096 
L 276.969635 77.299119 
L 277.234093 77.299119 
L 277.234093 76.838143 
L 277.426106 76.838143 
L 277.426106 75.91619 
L 277.819642 75.91619 
L 277.819642 74.53326 
L 278.089396 74.53326 
L 278.165358 73.150331 
L 278.209877 73.150331 
L 278.279549 72.228378 
L 278.466961 72.228378 
L 278.466961 71.306425 
L 280.536723 71.306425 
L 280.536723 70.845449 
L 280.784346 70.845449 
L 280.784346 70.384473 
L 281.345205 70.384473 
L 281.345205 69.923496 
L 281.826741 69.923496 
L 281.914519 68.07959 
L 281.972055 68.07959 
L 282.028054 67.157637 
L 282.712756 67.157637 
L 282.712756 66.696661 
L 283.528752 66.696661 
L 283.528752 65.774708 
L 284.534549 65.774708 
L 284.534549 65.313732 
L 284.795799 65.313732 
L 284.795799 64.852755 
L 284.976034 64.852755 
L 284.993896 63.930802 
L 285.140356 63.930802 
L 285.229874 63.008849 
L 285.678022 63.008849 
L 285.678022 62.086897 
L 286.367276 62.086897 
L 286.367276 61.164944 
L 286.653346 61.164944 
L 286.653346 60.703967 
L 286.857739 60.703967 
L 286.857739 60.242991 
L 287.223712 60.242991 
L 287.223712 59.782014 
L 287.447371 59.782014 
L 287.447371 58.860061 
L 287.671334 58.860061 
L 287.743094 57.016156 
L 288.206217 57.016156 
L 288.233605 56.094203 
L 289.229274 56.094203 
L 289.229274 55.633226 
L 289.744043 55.633226 
L 289.744043 55.17225 
L 289.909096 55.17225 
L 289.909096 54.711273 
L 291.312925 54.711273 
L 291.312925 54.250297 
L 291.59602 54.250297 
L 291.59602 53.789321 
L 291.871854 53.789321 
L 291.975489 51.945415 
L 293.149932 51.945415 
L 293.149932 51.484438 
L 293.70966 51.484438 
L 293.789101 50.101509 
L 293.84328 50.101509 
L 293.84328 49.179556 
L 294.916572 49.179556 
L 294.916572 48.71858 
L 295.308451 48.71858 
L 295.34077 46.874674 
L 295.707238 46.874674 
L 295.707238 46.413698 
L 296.357874 46.413698 
L 296.357874 45.952721 
L 296.871367 45.952721 
L 296.871367 45.491745 
L 297.520197 45.491745 
L 297.520197 45.030768 
L 297.836279 45.030768 
L 297.836279 44.569792 
L 298.09316 44.569792 
L 298.191738 43.647839 
L 298.21408 43.647839 
L 298.252977 42.725886 
L 298.975126 42.725886 
L 298.975126 42.26491 
L 299.45256 42.26491 
L 299.499971 40.88198 
L 301.407985 40.88198 
L 301.407985 40.421004 
L 302.814947 40.421004 
L 302.814947 39.960027 
L 303.503339 39.960027 
L 303.503339 39.499051 
L 305.295925 39.499051 
L 305.295925 39.038074 
L 305.592797 39.038074 
L 305.592797 38.577098 
L 305.986358 38.577098 
L 305.986358 38.116122 
L 306.401784 38.116122 
L 306.401784 37.655145 
L 307.180385 37.655145 
L 307.180385 37.194169 
L 307.383526 37.194169 
L 307.383526 36.733192 
L 307.725521 36.733192 
L 307.725521 36.272216 
L 308.137169 36.272216 
L 308.137169 35.811239 
L 308.721185 35.811239 
L 308.721185 35.350263 
L 310.111619 35.350263 
L 310.218053 34.42831 
L 313.119176 34.42831 
L 313.119176 33.967334 
L 313.629369 33.967334 
L 313.629369 33.506357 
L 314.668681 33.506357 
L 314.668681 33.045381 
L 315.641763 33.045381 
L 315.641763 32.584404 
L 323.237492 32.584404 
L 323.237492 32.123428 
L 333.168 32.123428 
L 333.168 32.123428 
" style="fill:none;stroke:#000080;stroke-linecap:square;stroke-width:1.5;"/>
   </g>
   <g id="line2d_44">
    <defs>
     <path d="M 0 6 
C 1.591219 6 3.117479 5.367802 4.242641 4.242641 
C 5.367802 3.117479 6 1.591219 6 0 
C 6 -1.591219 5.367802 -3.117479 4.242641 -4.242641 
C 3.117479 -5.367802 1.591219 -6 0 -6 
C -1.591219 -6 -3.117479 -5.367802 -4.242641 -4.242641 
C -5.367802 -3.117479 -6 -1.591219 -6 0 
C -6 1.591219 -5.367802 3.117479 -4.242641 4.242641 
C -3.117479 5.367802 -1.591219 6 0 6 
z
" id="m58f227dfdb" style="stroke:#000080;stroke-width:1.5;"/>
    </defs>
    <g>
     <use style="fill-opacity:0;stroke:#000080;stroke-width:1.5;" x="71.168109" xlink:href="#m58f227dfdb" y="278.745825"/>
     <use style="fill-opacity:0;stroke:#000080;stroke-width:1.5;" x="162.679951" xlink:href="#m58f227dfdb" y="188.855418"/>
     <use style="fill-opacity:0;stroke:#000080;stroke-width:1.5;" x="213.896162" xlink:href="#m58f227dfdb" y="136.304104"/>
     <use style="fill-opacity:0;stroke:#000080;stroke-width:1.5;" x="306.401784" xlink:href="#m58f227dfdb" y="38.116122"/>
     <use style="fill-opacity:0;stroke:#000080;stroke-width:1.5;" x="323.237492" xlink:href="#m58f227dfdb" y="32.123428"/>
     <use style="fill-opacity:0;stroke:#000080;stroke-width:1.5;" x="333.168" xlink:href="#m58f227dfdb" y="32.123428"/>
    </g>
   </g>
   <g id="line2d_45">
    <path style="fill:none;stroke:#000080;stroke-linecap:square;stroke-width:1.5;"/>
    <g/>
   </g>
   <g id="line2d_46">
    <path clip-path="url(#pd44805d602)" d="M 254.011433 114.177235 
" style="fill:none;stroke:#000080;stroke-linecap:square;stroke-width:1.5;"/>
    <defs>
     <path d="M -12 12 
L 12 -12 
M -12 -12 
L 12 12 
" id="m0b9d88817e" style="stroke:#000080;"/>
    </defs>
    <g clip-path="url(#pd44805d602)">
     <use style="fill:#000080;stroke:#000080;" x="254.011433" xlink:href="#m0b9d88817e" y="114.177235"/>
    </g>
   </g>
   <g id="line2d_47">
    <defs>
     <path d="M 0 1.5 
C 0.397805 1.5 0.77937 1.341951 1.06066 1.06066 
C 1.341951 0.77937 1.5 0.397805 1.5 0 
C 1.5 -0.397805 1.341951 -0.77937 1.06066 -1.06066 
C 0.77937 -1.341951 0.397805 -1.5 0 -1.5 
C -0.397805 -1.5 -0.77937 -1.341951 -1.06066 -1.06066 
C -1.341951 -0.77937 -1.5 -0.397805 -1.5 0 
C -1.5 0.397805 -1.341951 0.77937 -1.06066 1.06066 
C -0.77937 1.341951 -0.397805 1.5 0 1.5 
z
" id="mea2e00985f" style="stroke:#ffa500;"/>
    </defs>
    <g>
     <use style="fill:#ffa500;stroke:#ffa500;" x="259.432544" xlink:href="#mea2e00985f" y="188.855418"/>
     <use style="fill:#ffa500;stroke:#ffa500;" x="259.432544" xlink:href="#mea2e00985f" y="188.855418"/>
    </g>
   </g>
   <g id="line2d_48">
    <path d="M -1 277.823872 
L 70.80623 277.823872 
L 70.80623 276.901919 
L 94.404627 276.901919 
L 94.404627 276.440942 
L 98.323352 276.440942 
L 98.323352 275.518989 
L 109.483595 275.518989 
L 109.483595 275.058013 
L 118.992157 275.058013 
L 118.992157 274.13606 
L 124.843597 274.13606 
L 124.859359 272.753131 
L 128.634918 272.753131 
L 128.634918 271.370201 
L 128.748375 271.370201 
L 128.748375 270.909225 
L 133.230005 270.909225 
L 133.230005 270.448249 
L 133.77315 270.448249 
L 133.824662 269.065319 
L 135.121173 269.065319 
L 135.121173 268.604343 
L 136.302441 268.604343 
L 136.302441 267.221413 
L 141.23414 267.221413 
L 141.23414 266.760437 
L 141.672129 266.760437 
L 141.672129 265.838484 
L 143.387489 265.838484 
L 143.387489 264.455555 
L 145.250419 264.455555 
L 145.250419 263.994578 
L 145.372656 263.994578 
L 145.372656 263.533602 
L 146.338538 263.533602 
L 146.338538 263.072625 
L 146.466753 263.072625 
L 146.466753 261.689696 
L 148.599011 261.689696 
L 148.652376 259.84579 
L 149.508858 259.84579 
L 149.508858 258.923837 
L 149.887666 258.923837 
L 149.887666 258.001885 
L 150.756099 258.001885 
L 150.756099 257.540908 
L 151.992206 257.540908 
L 151.992206 256.157979 
L 152.677103 256.157979 
L 152.677103 255.236026 
L 152.917442 255.236026 
L 152.917442 254.314073 
L 154.548273 254.314073 
L 154.548273 253.853097 
L 154.802656 253.853097 
L 154.802656 253.39212 
L 156.05951 253.39212 
L 156.05951 252.931144 
L 156.655693 252.931144 
L 156.739727 251.087238 
L 157.081485 251.087238 
L 157.081485 250.165285 
L 158.80489 250.165285 
L 158.80489 249.704309 
L 159.338748 249.704309 
L 159.338748 249.243332 
L 162.179744 249.243332 
L 162.179744 248.321379 
L 162.468366 248.321379 
L 162.468366 247.860403 
L 163.345743 247.860403 
L 163.345743 247.399426 
L 164.542097 247.399426 
L 164.542097 246.477474 
L 165.99766 246.477474 
L 165.99766 246.016497 
L 166.460423 246.016497 
L 166.525427 244.172591 
L 167.61281 244.172591 
L 167.61281 242.789662 
L 168.249213 242.789662 
L 168.249213 242.328686 
L 168.945509 242.328686 
L 168.945509 240.945756 
L 170.016237 240.945756 
L 170.016237 240.023803 
L 171.099708 240.023803 
L 171.201522 238.179898 
L 171.284763 238.179898 
L 171.284763 236.335992 
L 172.854697 236.335992 
L 172.854697 234.953062 
L 173.182711 234.953062 
L 173.182711 234.03111 
L 173.400142 234.03111 
L 173.400142 231.726227 
L 174.130339 231.726227 
L 174.130339 230.343298 
L 174.629069 230.343298 
L 174.629069 229.421345 
L 175.657441 229.421345 
L 175.657441 228.960369 
L 178.70173 228.960369 
L 178.70173 228.499392 
L 179.318863 228.499392 
L 179.318863 227.577439 
L 180.004011 227.577439 
L 180.004011 227.116463 
L 180.494103 227.116463 
L 180.605173 225.272557 
L 180.822753 225.272557 
L 180.822753 223.428651 
L 181.717923 223.428651 
L 181.717923 222.967675 
L 182.763266 222.967675 
L 182.763266 222.506699 
L 183.683226 222.506699 
L 183.683226 220.662793 
L 184.092017 220.662793 
L 184.092017 219.279863 
L 185.239638 219.279863 
L 185.239638 217.896934 
L 186.435877 217.896934 
L 186.49274 216.053028 
L 187.33674 216.053028 
L 187.33674 215.592052 
L 189.924796 215.592052 
L 189.924796 214.209123 
L 190.534367 214.209123 
L 190.534367 213.748146 
L 190.677024 213.748146 
L 190.677024 213.28717 
L 194.016132 213.28717 
L 194.016132 212.826193 
L 194.566627 212.826193 
L 194.566627 211.443264 
L 195.771429 211.443264 
L 195.771429 210.521311 
L 196.464335 210.521311 
L 196.464335 207.755452 
L 196.666174 207.755452 
L 196.666174 207.294476 
L 197.366636 207.294476 
L 197.366636 204.989594 
L 198.227344 204.989594 
L 198.227344 204.067641 
L 198.822559 204.067641 
L 198.822559 203.606664 
L 199.017314 203.606664 
L 199.017314 202.684712 
L 202.789872 202.684712 
L 202.789872 201.762759 
L 203.168564 201.762759 
L 203.168564 201.301782 
L 203.715553 201.301782 
L 203.715553 199.918853 
L 203.919714 199.918853 
L 203.919714 199.457876 
L 205.000169 199.457876 
L 205.000169 198.535924 
L 206.757445 198.535924 
L 206.757445 198.074947 
L 211.327245 198.074947 
L 211.327245 197.152994 
L 211.824157 197.152994 
L 211.824157 196.692018 
L 214.310885 196.692018 
L 214.310885 196.231041 
L 219.832228 196.231041 
L 219.832228 195.770065 
L 220.315802 195.770065 
L 220.315802 195.309088 
L 223.603414 195.309088 
L 223.603414 194.387136 
L 224.823395 194.387136 
L 224.823395 193.926159 
L 226.288551 193.926159 
L 226.288551 193.465183 
L 231.538567 193.465183 
L 231.538567 193.004206 
L 232.317476 193.004206 
L 232.317476 192.082253 
L 235.246656 192.082253 
L 235.313496 190.699324 
L 247.143576 190.699324 
L 247.143576 189.777371 
L 256.220694 189.777371 
L 256.220694 189.316395 
L 259.432544 189.316395 
L 259.432544 188.855418 
L 333.168 188.855418 
L 333.168 188.855418 
" style="fill:none;stroke:#ffa500;stroke-linecap:square;stroke-width:1.5;"/>
   </g>
   <g id="line2d_49">
    <defs>
     <path d="M 0 -6 
L -1.347084 -1.854102 
L -5.706339 -1.854102 
L -2.179628 0.708204 
L -3.526712 4.854102 
L -0 2.291796 
L 3.526712 4.854102 
L 2.179628 0.708204 
L 5.706339 -1.854102 
L 1.347084 -1.854102 
z
" id="m0a0fe97d20" style="stroke:#ffa500;stroke-linejoin:bevel;stroke-width:1.5;"/>
    </defs>
    <g>
     <use style="fill-opacity:0;stroke:#ffa500;stroke-linejoin:bevel;stroke-width:1.5;" x="98.323352" xlink:href="#m0a0fe97d20" y="275.518989"/>
     <use style="fill-opacity:0;stroke:#ffa500;stroke-linejoin:bevel;stroke-width:1.5;" x="159.338748" xlink:href="#m0a0fe97d20" y="249.704309"/>
     <use style="fill-opacity:0;stroke:#ffa500;stroke-linejoin:bevel;stroke-width:1.5;" x="235.313496" xlink:href="#m0a0fe97d20" y="190.699324"/>
     <use style="fill-opacity:0;stroke:#ffa500;stroke-linejoin:bevel;stroke-width:1.5;" x="259.432544" xlink:href="#m0a0fe97d20" y="188.855418"/>
     <use style="fill-opacity:0;stroke:#ffa500;stroke-linejoin:bevel;stroke-width:1.5;" x="259.432544" xlink:href="#m0a0fe97d20" y="188.855418"/>
     <use style="fill-opacity:0;stroke:#ffa500;stroke-linejoin:bevel;stroke-width:1.5;" x="333.168" xlink:href="#m0a0fe97d20" y="188.855418"/>
    </g>
   </g>
   <g id="line2d_50">
    <path style="fill:none;stroke:#ffa500;stroke-linecap:square;stroke-width:1.5;"/>
    <g/>
   </g>
   <g id="line2d_51">
    <path clip-path="url(#pd44805d602)" d="M 214.437482 196.231041 
" style="fill:none;stroke:#ffa500;stroke-linecap:square;stroke-width:1.5;"/>
    <defs>
     <path d="M -12 12 
L 12 -12 
M -12 -12 
L 12 12 
" id="m512bfc89c5" style="stroke:#ffa500;"/>
    </defs>
    <g clip-path="url(#pd44805d602)">
     <use style="fill:#ffa500;stroke:#ffa500;" x="214.437482" xlink:href="#m512bfc89c5" y="196.231041"/>
    </g>
   </g>
   <g id="line2d_52">
    <defs>
     <path d="M 0 1.5 
C 0.397805 1.5 0.77937 1.341951 1.06066 1.06066 
C 1.341951 0.77937 1.5 0.397805 1.5 0 
C 1.5 -0.397805 1.341951 -0.77937 1.06066 -1.06066 
C 0.77937 -1.341951 0.397805 -1.5 0 -1.5 
C -0.397805 -1.5 -0.77937 -1.341951 -1.06066 -1.06066 
C -1.341951 -0.77937 -1.5 -0.397805 -1.5 0 
C -1.5 0.397805 -1.341951 0.77937 -1.06066 1.06066 
C -0.77937 1.341951 -0.397805 1.5 0 1.5 
z
" id="mb894e222c2" style="stroke:#00bfbf;"/>
    </defs>
    <g>
     <use style="fill:#00bfbf;stroke:#00bfbf;" x="227.114939" xlink:href="#mb894e222c2" y="193.465183"/>
     <use style="fill:#00bfbf;stroke:#00bfbf;" x="227.114939" xlink:href="#mb894e222c2" y="193.465183"/>
    </g>
   </g>
   <g id="line2d_53">
    <path d="M -1 281.511683 
L 35.425356 281.511683 
L 35.425356 280.58973 
L 52.813391 280.58973 
L 52.813391 279.667777 
L 113.715337 279.667777 
L 113.715337 279.206801 
L 117.206993 279.206801 
L 117.206993 278.745825 
L 117.341711 278.745825 
L 117.341711 277.823872 
L 117.523731 277.823872 
L 117.523731 277.362895 
L 117.834738 277.362895 
L 117.834738 275.979966 
L 119.940736 275.979966 
L 119.940736 275.518989 
L 121.872963 275.518989 
L 121.872963 275.058013 
L 122.289621 275.058013 
L 122.371755 274.13606 
L 123.727959 274.13606 
L 123.727959 272.753131 
L 125.33329 272.753131 
L 125.33329 272.292154 
L 125.898633 272.292154 
L 125.898633 271.831178 
L 127.025101 271.831178 
L 127.052858 269.065319 
L 128.257693 269.065319 
L 128.341524 266.760437 
L 128.501598 266.760437 
L 128.501598 266.299461 
L 129.401732 266.299461 
L 129.401732 263.994578 
L 129.925889 263.994578 
L 129.925889 263.072625 
L 130.508415 263.072625 
L 130.525419 262.150673 
L 130.928559 262.150673 
L 130.928559 261.22872 
L 131.066355 261.22872 
L 131.066355 260.306767 
L 132.099688 260.306767 
L 132.099688 259.84579 
L 132.533574 259.84579 
L 132.533574 259.384814 
L 133.824662 259.384814 
L 133.824662 258.001885 
L 134.453613 258.001885 
L 134.453613 257.079932 
L 134.721981 257.079932 
L 134.721981 255.697002 
L 135.10816 255.697002 
L 135.10816 255.236026 
L 135.259374 255.236026 
L 135.259374 254.314073 
L 135.524017 254.314073 
L 135.524017 252.009191 
L 137.68636 252.009191 
L 137.779483 247.860403 
L 138.782377 247.860403 
L 138.782377 247.399426 
L 139.606823 247.399426 
L 139.696773 245.555521 
L 139.825874 245.555521 
L 139.825874 244.633568 
L 140.377567 244.633568 
L 140.377567 244.172591 
L 141.469522 244.172591 
L 141.469522 242.789662 
L 141.763707 242.789662 
L 141.822532 240.945756 
L 142.145401 240.945756 
L 142.145401 239.562827 
L 143.117307 239.562827 
L 143.117307 239.10185 
L 143.296103 239.10185 
L 143.296103 238.179898 
L 143.454376 238.179898 
L 143.454376 236.796968 
L 143.619142 236.796968 
L 143.619142 234.492086 
L 144.301021 234.492086 
L 144.301021 234.03111 
L 145.609843 234.03111 
L 145.609843 233.570133 
L 146.48691 233.570133 
L 146.48691 231.726227 
L 146.676128 231.726227 
L 146.676128 230.343298 
L 146.801859 230.343298 
L 146.801859 229.882322 
L 147.522775 229.882322 
L 147.522775 228.499392 
L 150.712391 228.499392 
L 150.712391 228.038416 
L 151.007437 228.038416 
L 151.007437 226.19451 
L 151.412174 226.19451 
L 151.412174 224.811581 
L 151.771427 224.811581 
L 151.771427 223.889628 
L 152.661481 223.889628 
L 152.683347 221.584746 
L 152.883533 221.584746 
L 152.883533 221.123769 
L 153.618931 221.123769 
L 153.618931 220.662793 
L 155.172583 220.662793 
L 155.172583 220.201816 
L 157.081485 220.201816 
L 157.081485 219.74084 
L 158.326011 219.74084 
L 158.326011 218.818887 
L 158.584844 218.818887 
L 158.584844 217.435958 
L 160.946238 217.435958 
L 160.946238 216.053028 
L 161.943666 216.053028 
L 161.943666 215.592052 
L 162.572289 215.592052 
L 162.572289 215.131075 
L 163.307086 215.131075 
L 163.307086 213.28717 
L 167.976967 213.28717 
L 167.976967 212.365217 
L 168.229638 212.365217 
L 168.229638 211.443264 
L 169.257787 211.443264 
L 169.257787 209.599358 
L 170.365145 209.599358 
L 170.365145 208.677405 
L 171.786706 208.677405 
L 171.786706 207.755452 
L 173.287063 207.755452 
L 173.287063 207.294476 
L 181.947562 207.294476 
L 181.947562 206.833499 
L 183.774003 206.833499 
L 183.774003 206.372523 
L 184.197643 206.372523 
L 184.197643 205.911547 
L 184.670671 205.911547 
L 184.670671 204.989594 
L 186.449454 204.989594 
L 186.449454 203.145688 
L 193.23192 203.145688 
L 193.23192 200.840806 
L 193.526202 200.840806 
L 193.526202 199.918853 
L 197.666372 199.918853 
L 197.666372 199.457876 
L 198.304942 199.457876 
L 198.304942 198.9969 
L 201.710262 198.9969 
L 201.710262 198.535924 
L 202.216915 198.535924 
L 202.216915 197.613971 
L 204.981636 197.613971 
L 204.981636 197.152994 
L 205.547146 197.152994 
L 205.547146 196.231041 
L 210.096858 196.231041 
L 210.096858 195.770065 
L 212.455223 195.770065 
L 212.455223 195.309088 
L 218.894398 195.309088 
L 218.894398 194.848112 
L 219.932472 194.848112 
L 219.932472 194.387136 
L 222.472605 194.387136 
L 222.472605 193.926159 
L 227.114939 193.926159 
L 227.114939 193.465183 
L 333.168 193.465183 
L 333.168 193.465183 
" style="fill:none;stroke:#00bfbf;stroke-linecap:square;stroke-width:1.5;"/>
   </g>
   <g id="line2d_54">
    <defs>
     <path d="M 0 -6 
L -5.706339 -1.854102 
L -3.526712 4.854102 
L 3.526712 4.854102 
L 5.706339 -1.854102 
z
" id="mc351f52a06" style="stroke:#00bfbf;stroke-linejoin:miter;stroke-width:1.5;"/>
    </defs>
    <g>
     <use style="fill-opacity:0;stroke:#00bfbf;stroke-linejoin:miter;stroke-width:1.5;" x="135.524017" xlink:href="#mc351f52a06" y="252.009191"/>
     <use style="fill-opacity:0;stroke:#00bfbf;stroke-linejoin:miter;stroke-width:1.5;" x="193.526202" xlink:href="#mc351f52a06" y="200.840806"/>
     <use style="fill-opacity:0;stroke:#00bfbf;stroke-linejoin:miter;stroke-width:1.5;" x="227.114939" xlink:href="#mc351f52a06" y="193.465183"/>
     <use style="fill-opacity:0;stroke:#00bfbf;stroke-linejoin:miter;stroke-width:1.5;" x="227.114939" xlink:href="#mc351f52a06" y="193.465183"/>
     <use style="fill-opacity:0;stroke:#00bfbf;stroke-linejoin:miter;stroke-width:1.5;" x="333.168" xlink:href="#mc351f52a06" y="193.465183"/>
    </g>
   </g>
   <g id="line2d_55">
    <path style="fill:none;stroke:#00bfbf;stroke-linecap:square;stroke-width:1.5;"/>
    <g/>
   </g>
   <g id="line2d_56">
    <path clip-path="url(#pd44805d602)" d="M 174.855287 207.294476 
" style="fill:none;stroke:#00bfbf;stroke-linecap:square;stroke-width:1.5;"/>
    <defs>
     <path d="M -12 12 
L 12 -12 
M -12 -12 
L 12 12 
" id="m316755d341" style="stroke:#00bfbf;"/>
    </defs>
    <g clip-path="url(#pd44805d602)">
     <use style="fill:#00bfbf;stroke:#00bfbf;" x="174.855287" xlink:href="#m316755d341" y="207.294476"/>
    </g>
   </g>
   <g id="line2d_57">
    <path d="M 333.168 193.465183 
L 363.64328 289.532673 
" style="fill:none;stroke:#00bfbf;stroke-linecap:square;stroke-width:1.5;"/>
    <g>
     <use style="fill-opacity:0;stroke:#00bfbf;stroke-linejoin:miter;stroke-width:1.5;" x="333.168" xlink:href="#mc351f52a06" y="193.465183"/>
     <use style="fill-opacity:0;stroke:#00bfbf;stroke-linejoin:miter;stroke-width:1.5;" x="363.64328" xlink:href="#mc351f52a06" y="289.532673"/>
    </g>
   </g>
   <g id="line2d_58">
    <path d="M 333.168 188.855418 
L 363.64328 203.975446 
" style="fill:none;stroke:#ffa500;stroke-linecap:square;stroke-width:1.5;"/>
    <g>
     <use style="fill-opacity:0;stroke:#ffa500;stroke-linejoin:bevel;stroke-width:1.5;" x="333.168" xlink:href="#m0a0fe97d20" y="188.855418"/>
     <use style="fill-opacity:0;stroke:#ffa500;stroke-linejoin:bevel;stroke-width:1.5;" x="363.64328" xlink:href="#m0a0fe97d20" y="203.975446"/>
    </g>
   </g>
   <g id="line2d_59">
    <path d="M 333.168 32.123428 
L 363.64328 32.86099 
" style="fill:none;stroke:#000080;stroke-linecap:square;stroke-width:1.5;"/>
    <g>
     <use style="fill-opacity:0;stroke:#000080;stroke-width:1.5;" x="333.168" xlink:href="#m58f227dfdb" y="32.123428"/>
     <use style="fill-opacity:0;stroke:#000080;stroke-width:1.5;" x="363.64328" xlink:href="#m58f227dfdb" y="32.86099"/>
    </g>
   </g>
   <g id="line2d_60">
    <path d="M 333.168 294.88 
L 333.168 27.513663 
" style="fill:none;stroke:#000000;stroke-linecap:square;stroke-width:1.5;"/>
   </g>
   <g id="patch_3">
    <path d="M 56.12 294.88 
L 56.12 24.84 
" style="fill:none;stroke:#000000;stroke-linecap:square;stroke-linejoin:miter;stroke-width:0.8;"/>
   </g>
   <g id="patch_4">
    <path d="M 333.168 294.88 
L 333.168 24.84 
" style="fill:none;stroke:#000000;stroke-linecap:square;stroke-linejoin:miter;stroke-width:0.8;"/>
   </g>
   <g id="patch_5">
    <path d="M 56.12 294.88 
L 333.168 294.88 
" style="fill:none;stroke:#000000;stroke-linecap:square;stroke-linejoin:miter;stroke-width:0.8;"/>
   </g>
   <g id="patch_6">
    <path d="M 56.12 24.84 
L 333.168 24.84 
" style="fill:none;stroke:#000000;stroke-linecap:square;stroke-linejoin:miter;stroke-width:0.8;"/>
   </g>
   <g id="text_13">
    <!-- SPEA2 -->
    <defs>
     <path d="M 53.515625 70.515625 
L 53.515625 60.890625 
Q 47.90625 63.578125 42.921875 64.890625 
Q 37.9375 66.21875 33.296875 66.21875 
Q 25.25 66.21875 20.875 63.09375 
Q 16.5 59.96875 16.5 54.203125 
Q 16.5 49.359375 19.40625 46.890625 
Q 22.3125 44.4375 30.421875 42.921875 
L 36.375 41.703125 
Q 47.40625 39.59375 52.65625 34.296875 
Q 57.90625 29 57.90625 20.125 
Q 57.90625 9.515625 50.796875 4.046875 
Q 43.703125 -1.421875 29.984375 -1.421875 
Q 24.8125 -1.421875 18.96875 -0.25 
Q 13.140625 0.921875 6.890625 3.21875 
L 6.890625 13.375 
Q 12.890625 10.015625 18.65625 8.296875 
Q 24.421875 6.59375 29.984375 6.59375 
Q 38.421875 6.59375 43.015625 9.90625 
Q 47.609375 13.234375 47.609375 19.390625 
Q 47.609375 24.75 44.3125 27.78125 
Q 41.015625 30.8125 33.5 32.328125 
L 27.484375 33.5 
Q 16.453125 35.6875 11.515625 40.375 
Q 6.59375 45.0625 6.59375 53.421875 
Q 6.59375 63.09375 13.40625 68.65625 
Q 20.21875 74.21875 32.171875 74.21875 
Q 37.3125 74.21875 42.625 73.28125 
Q 47.953125 72.359375 53.515625 70.515625 
z
" id="DejaVuSans-53"/>
     <path d="M 19.671875 64.796875 
L 19.671875 37.40625 
L 32.078125 37.40625 
Q 38.96875 37.40625 42.71875 40.96875 
Q 46.484375 44.53125 46.484375 51.125 
Q 46.484375 57.671875 42.71875 61.234375 
Q 38.96875 64.796875 32.078125 64.796875 
z
M 9.8125 72.90625 
L 32.078125 72.90625 
Q 44.34375 72.90625 50.609375 67.359375 
Q 56.890625 61.8125 56.890625 51.125 
Q 56.890625 40.328125 50.609375 34.8125 
Q 44.34375 29.296875 32.078125 29.296875 
L 19.671875 29.296875 
L 19.671875 0 
L 9.8125 0 
z
" id="DejaVuSans-50"/>
     <path d="M 9.8125 72.90625 
L 55.90625 72.90625 
L 55.90625 64.59375 
L 19.671875 64.59375 
L 19.671875 43.015625 
L 54.390625 43.015625 
L 54.390625 34.71875 
L 19.671875 34.71875 
L 19.671875 8.296875 
L 56.78125 8.296875 
L 56.78125 0 
L 9.8125 0 
z
" id="DejaVuSans-45"/>
     <path d="M 34.1875 63.1875 
L 20.796875 26.90625 
L 47.609375 26.90625 
z
M 28.609375 72.90625 
L 39.796875 72.90625 
L 67.578125 0 
L 57.328125 0 
L 50.6875 18.703125 
L 17.828125 18.703125 
L 11.1875 0 
L 0.78125 0 
z
" id="DejaVuSans-41"/>
    </defs>
    <g transform="translate(369.18424 294.223611)scale(0.17 -0.17)">
     <use xlink:href="#DejaVuSans-53"/>
     <use x="63.476562" xlink:href="#DejaVuSans-50"/>
     <use x="123.779297" xlink:href="#DejaVuSans-45"/>
     <use x="186.962891" xlink:href="#DejaVuSans-41"/>
     <use x="255.371094" xlink:href="#DejaVuSans-32"/>
    </g>
   </g>
   <g id="text_14">
    <!-- MOEAD -->
    <defs>
     <path d="M 9.8125 72.90625 
L 24.515625 72.90625 
L 43.109375 23.296875 
L 61.8125 72.90625 
L 76.515625 72.90625 
L 76.515625 0 
L 66.890625 0 
L 66.890625 64.015625 
L 48.09375 14.015625 
L 38.1875 14.015625 
L 19.390625 64.015625 
L 19.390625 0 
L 9.8125 0 
z
" id="DejaVuSans-4d"/>
     <path d="M 39.40625 66.21875 
Q 28.65625 66.21875 22.328125 58.203125 
Q 16.015625 50.203125 16.015625 36.375 
Q 16.015625 22.609375 22.328125 14.59375 
Q 28.65625 6.59375 39.40625 6.59375 
Q 50.140625 6.59375 56.421875 14.59375 
Q 62.703125 22.609375 62.703125 36.375 
Q 62.703125 50.203125 56.421875 58.203125 
Q 50.140625 66.21875 39.40625 66.21875 
z
M 39.40625 74.21875 
Q 54.734375 74.21875 63.90625 63.9375 
Q 73.09375 53.65625 73.09375 36.375 
Q 73.09375 19.140625 63.90625 8.859375 
Q 54.734375 -1.421875 39.40625 -1.421875 
Q 24.03125 -1.421875 14.8125 8.828125 
Q 5.609375 19.09375 5.609375 36.375 
Q 5.609375 53.65625 14.8125 63.9375 
Q 24.03125 74.21875 39.40625 74.21875 
z
" id="DejaVuSans-4f"/>
     <path d="M 19.671875 64.796875 
L 19.671875 8.109375 
L 31.59375 8.109375 
Q 46.6875 8.109375 53.6875 14.9375 
Q 60.6875 21.78125 60.6875 36.53125 
Q 60.6875 51.171875 53.6875 57.984375 
Q 46.6875 64.796875 31.59375 64.796875 
z
M 9.8125 72.90625 
L 30.078125 72.90625 
Q 51.265625 72.90625 61.171875 64.09375 
Q 71.09375 55.28125 71.09375 36.53125 
Q 71.09375 17.671875 61.125 8.828125 
Q 51.171875 0 30.078125 0 
L 9.8125 0 
z
" id="DejaVuSans-44"/>
    </defs>
    <g transform="translate(369.18424 208.666383)scale(0.17 -0.17)">
     <use xlink:href="#DejaVuSans-4d"/>
     <use x="86.279297" xlink:href="#DejaVuSans-4f"/>
     <use x="164.990234" xlink:href="#DejaVuSans-45"/>
     <use x="228.173828" xlink:href="#DejaVuSans-41"/>
     <use x="296.582031" xlink:href="#DejaVuSans-44"/>
    </g>
   </g>
   <g id="text_15">
    <!-- best 2016 -->
    <defs>
     <path d="M 48.6875 27.296875 
Q 48.6875 37.203125 44.609375 42.84375 
Q 40.53125 48.484375 33.40625 48.484375 
Q 26.265625 48.484375 22.1875 42.84375 
Q 18.109375 37.203125 18.109375 27.296875 
Q 18.109375 17.390625 22.1875 11.75 
Q 26.265625 6.109375 33.40625 6.109375 
Q 40.53125 6.109375 44.609375 11.75 
Q 48.6875 17.390625 48.6875 27.296875 
z
M 18.109375 46.390625 
Q 20.953125 51.265625 25.265625 53.625 
Q 29.59375 56 35.59375 56 
Q 45.5625 56 51.78125 48.09375 
Q 58.015625 40.1875 58.015625 27.296875 
Q 58.015625 14.40625 51.78125 6.484375 
Q 45.5625 -1.421875 35.59375 -1.421875 
Q 29.59375 -1.421875 25.265625 0.953125 
Q 20.953125 3.328125 18.109375 8.203125 
L 18.109375 0 
L 9.078125 0 
L 9.078125 75.984375 
L 18.109375 75.984375 
z
" id="DejaVuSans-62"/>
    </defs>
    <g transform="translate(369.18424 123.109155)scale(0.17 -0.17)">
     <use xlink:href="#DejaVuSans-62"/>
     <use x="63.476562" xlink:href="#DejaVuSans-65"/>
     <use x="125" xlink:href="#DejaVuSans-73"/>
     <use x="177.099609" xlink:href="#DejaVuSans-74"/>
     <use x="216.308594" xlink:href="#DejaVuSans-20"/>
     <use x="248.095703" xlink:href="#DejaVuSans-32"/>
     <use x="311.71875" xlink:href="#DejaVuSans-30"/>
     <use x="375.341797" xlink:href="#DejaVuSans-31"/>
     <use x="438.964844" xlink:href="#DejaVuSans-36"/>
    </g>
   </g>
   <g id="text_16">
    <!-- GDE3 -->
    <defs>
     <path d="M 59.515625 10.40625 
L 59.515625 29.984375 
L 43.40625 29.984375 
L 43.40625 38.09375 
L 69.28125 38.09375 
L 69.28125 6.78125 
Q 63.578125 2.734375 56.6875 0.65625 
Q 49.8125 -1.421875 42 -1.421875 
Q 24.90625 -1.421875 15.25 8.5625 
Q 5.609375 18.5625 5.609375 36.375 
Q 5.609375 54.25 15.25 64.234375 
Q 24.90625 74.21875 42 74.21875 
Q 49.125 74.21875 55.546875 72.453125 
Q 61.96875 70.703125 67.390625 67.28125 
L 67.390625 56.78125 
Q 61.921875 61.421875 55.765625 63.765625 
Q 49.609375 66.109375 42.828125 66.109375 
Q 29.4375 66.109375 22.71875 58.640625 
Q 16.015625 51.171875 16.015625 36.375 
Q 16.015625 21.625 22.71875 14.15625 
Q 29.4375 6.6875 42.828125 6.6875 
Q 48.046875 6.6875 52.140625 7.59375 
Q 56.25 8.5 59.515625 10.40625 
z
" id="DejaVuSans-47"/>
     <path d="M 40.578125 39.3125 
Q 47.65625 37.796875 51.625 33 
Q 55.609375 28.21875 55.609375 21.1875 
Q 55.609375 10.40625 48.1875 4.484375 
Q 40.765625 -1.421875 27.09375 -1.421875 
Q 22.515625 -1.421875 17.65625 -0.515625 
Q 12.796875 0.390625 7.625 2.203125 
L 7.625 11.71875 
Q 11.71875 9.328125 16.59375 8.109375 
Q 21.484375 6.890625 26.8125 6.890625 
Q 36.078125 6.890625 40.9375 10.546875 
Q 45.796875 14.203125 45.796875 21.1875 
Q 45.796875 27.640625 41.28125 31.265625 
Q 36.765625 34.90625 28.71875 34.90625 
L 20.21875 34.90625 
L 20.21875 43.015625 
L 29.109375 43.015625 
Q 36.375 43.015625 40.234375 45.921875 
Q 44.09375 48.828125 44.09375 54.296875 
Q 44.09375 59.90625 40.109375 62.90625 
Q 36.140625 65.921875 28.71875 65.921875 
Q 24.65625 65.921875 20.015625 65.03125 
Q 15.375 64.15625 9.8125 62.3125 
L 9.8125 71.09375 
Q 15.4375 72.65625 20.34375 73.4375 
Q 25.25 74.21875 29.59375 74.21875 
Q 40.828125 74.21875 47.359375 69.109375 
Q 53.90625 64.015625 53.90625 55.328125 
Q 53.90625 49.265625 50.4375 45.09375 
Q 46.96875 40.921875 40.578125 39.3125 
z
" id="DejaVuSans-33"/>
    </defs>
    <g transform="translate(369.18424 37.551928)scale(0.17 -0.17)">
     <use xlink:href="#DejaVuSans-47"/>
     <use x="77.490234" xlink:href="#DejaVuSans-44"/>
     <use x="154.492188" xlink:href="#DejaVuSans-45"/>
     <use x="217.675781" xlink:href="#DejaVuSans-33"/>
    </g>
   </g>
   <g id="text_17">
    <!-- bbob-biobj f18, 40-D -->
    <defs>
     <path d="M 9.421875 54.6875 
L 18.40625 54.6875 
L 18.40625 -0.984375 
Q 18.40625 -11.421875 14.421875 -16.109375 
Q 10.453125 -20.796875 1.609375 -20.796875 
L -1.8125 -20.796875 
L -1.8125 -13.1875 
L 0.59375 -13.1875 
Q 5.71875 -13.1875 7.5625 -10.8125 
Q 9.421875 -8.453125 9.421875 -0.984375 
z
M 9.421875 75.984375 
L 18.40625 75.984375 
L 18.40625 64.59375 
L 9.421875 64.59375 
z
" id="DejaVuSans-6a"/>
    </defs>
    <g transform="translate(58.89048 35.290806)scale(0.102 -0.102)">
     <use xlink:href="#DejaVuSans-62"/>
     <use x="63.476562" xlink:href="#DejaVuSans-62"/>
     <use x="126.953125" xlink:href="#DejaVuSans-6f"/>
     <use x="188.134766" xlink:href="#DejaVuSans-62"/>
     <use x="251.611328" xlink:href="#DejaVuSans-2d"/>
     <use x="287.695312" xlink:href="#DejaVuSans-62"/>
     <use x="351.171875" xlink:href="#DejaVuSans-69"/>
     <use x="378.955078" xlink:href="#DejaVuSans-6f"/>
     <use x="440.136719" xlink:href="#DejaVuSans-62"/>
     <use x="503.613281" xlink:href="#DejaVuSans-6a"/>
     <use x="531.396484" xlink:href="#DejaVuSans-20"/>
     <use x="563.183594" xlink:href="#DejaVuSans-66"/>
     <use x="598.388672" xlink:href="#DejaVuSans-31"/>
     <use x="662.011719" xlink:href="#DejaVuSans-38"/>
     <use x="725.634766" xlink:href="#DejaVuSans-2c"/>
     <use x="757.421875" xlink:href="#DejaVuSans-20"/>
     <use x="789.208984" xlink:href="#DejaVuSans-34"/>
     <use x="852.832031" xlink:href="#DejaVuSans-30"/>
     <use x="916.455078" xlink:href="#DejaVuSans-2d"/>
     <use x="952.539062" xlink:href="#DejaVuSans-44"/>
    </g>
    <!-- 58 targets: 1..-1.0e-4 -->
    <defs>
     <path d="M 10.796875 72.90625 
L 49.515625 72.90625 
L 49.515625 64.59375 
L 19.828125 64.59375 
L 19.828125 46.734375 
Q 21.96875 47.46875 24.109375 47.828125 
Q 26.265625 48.1875 28.421875 48.1875 
Q 40.625 48.1875 47.75 41.5 
Q 54.890625 34.8125 54.890625 23.390625 
Q 54.890625 11.625 47.5625 5.09375 
Q 40.234375 -1.421875 26.90625 -1.421875 
Q 22.3125 -1.421875 17.546875 -0.640625 
Q 12.796875 0.140625 7.71875 1.703125 
L 7.71875 11.625 
Q 12.109375 9.234375 16.796875 8.0625 
Q 21.484375 6.890625 26.703125 6.890625 
Q 35.15625 6.890625 40.078125 11.328125 
Q 45.015625 15.765625 45.015625 23.390625 
Q 45.015625 31 40.078125 35.4375 
Q 35.15625 39.890625 26.703125 39.890625 
Q 22.75 39.890625 18.8125 39.015625 
Q 14.890625 38.140625 10.796875 36.28125 
z
" id="DejaVuSans-35"/>
     <path d="M 11.71875 12.40625 
L 22.015625 12.40625 
L 22.015625 0 
L 11.71875 0 
z
M 11.71875 51.703125 
L 22.015625 51.703125 
L 22.015625 39.3125 
L 11.71875 39.3125 
z
" id="DejaVuSans-3a"/>
    </defs>
    <g transform="translate(58.89048 46.712575)scale(0.102 -0.102)">
     <use xlink:href="#DejaVuSans-35"/>
     <use x="63.623047" xlink:href="#DejaVuSans-38"/>
     <use x="127.246094" xlink:href="#DejaVuSans-20"/>
     <use x="159.033203" xlink:href="#DejaVuSans-74"/>
     <use x="198.242188" xlink:href="#DejaVuSans-61"/>
     <use x="259.521484" xlink:href="#DejaVuSans-72"/>
     <use x="300.619141" xlink:href="#DejaVuSans-67"/>
     <use x="364.095703" xlink:href="#DejaVuSans-65"/>
     <use x="425.619141" xlink:href="#DejaVuSans-74"/>
     <use x="464.828125" xlink:href="#DejaVuSans-73"/>
     <use x="516.927734" xlink:href="#DejaVuSans-3a"/>
     <use x="550.619141" xlink:href="#DejaVuSans-20"/>
     <use x="582.40625" xlink:href="#DejaVuSans-31"/>
     <use x="646.029297" xlink:href="#DejaVuSans-2e"/>
     <use x="677.816406" xlink:href="#DejaVuSans-2e"/>
     <use x="709.603516" xlink:href="#DejaVuSans-2d"/>
     <use x="745.6875" xlink:href="#DejaVuSans-31"/>
     <use x="809.310547" xlink:href="#DejaVuSans-2e"/>
     <use x="841.097656" xlink:href="#DejaVuSans-30"/>
     <use x="904.720703" xlink:href="#DejaVuSans-65"/>
     <use x="966.244141" xlink:href="#DejaVuSans-2d"/>
     <use x="1002.328125" xlink:href="#DejaVuSans-34"/>
    </g>
    <!-- 10 instances -->
    <g transform="translate(58.89048 58.134344)scale(0.102 -0.102)">
     <use xlink:href="#DejaVuSans-31"/>
     <use x="63.623047" xlink:href="#DejaVuSans-30"/>
     <use x="127.246094" xlink:href="#DejaVuSans-20"/>
     <use x="159.033203" xlink:href="#DejaVuSans-69"/>
     <use x="186.816406" xlink:href="#DejaVuSans-6e"/>
     <use x="250.195312" xlink:href="#DejaVuSans-73"/>
     <use x="302.294922" xlink:href="#DejaVuSans-74"/>
     <use x="341.503906" xlink:href="#DejaVuSans-61"/>
     <use x="402.783203" xlink:href="#DejaVuSans-6e"/>
     <use x="466.162109" xlink:href="#DejaVuSans-63"/>
     <use x="521.142578" xlink:href="#DejaVuSans-65"/>
     <use x="582.666016" xlink:href="#DejaVuSans-73"/>
    </g>
   </g>
   <g id="text_18">
    <!-- v2.2.2.644, hv-hash=ff0e71e8cd978373 -->
    <defs>
     <path d="M 54.890625 33.015625 
L 54.890625 0 
L 45.90625 0 
L 45.90625 32.71875 
Q 45.90625 40.484375 42.875 44.328125 
Q 39.84375 48.1875 33.796875 48.1875 
Q 26.515625 48.1875 22.3125 43.546875 
Q 18.109375 38.921875 18.109375 30.90625 
L 18.109375 0 
L 9.078125 0 
L 9.078125 75.984375 
L 18.109375 75.984375 
L 18.109375 46.1875 
Q 21.34375 51.125 25.703125 53.5625 
Q 30.078125 56 35.796875 56 
Q 45.21875 56 50.046875 50.171875 
Q 54.890625 44.34375 54.890625 33.015625 
z
" id="DejaVuSans-68"/>
     <path d="M 10.59375 45.40625 
L 73.1875 45.40625 
L 73.1875 37.203125 
L 10.59375 37.203125 
z
M 10.59375 25.484375 
L 73.1875 25.484375 
L 73.1875 17.1875 
L 10.59375 17.1875 
z
" id="DejaVuSans-3d"/>
     <path d="M 8.203125 72.90625 
L 55.078125 72.90625 
L 55.078125 68.703125 
L 28.609375 0 
L 18.3125 0 
L 43.21875 64.59375 
L 8.203125 64.59375 
z
" id="DejaVuSans-37"/>
     <path d="M 10.984375 1.515625 
L 10.984375 10.5 
Q 14.703125 8.734375 18.5 7.8125 
Q 22.3125 6.890625 25.984375 6.890625 
Q 35.75 6.890625 40.890625 13.453125 
Q 46.046875 20.015625 46.78125 33.40625 
Q 43.953125 29.203125 39.59375 26.953125 
Q 35.25 24.703125 29.984375 24.703125 
Q 19.046875 24.703125 12.671875 31.3125 
Q 6.296875 37.9375 6.296875 49.421875 
Q 6.296875 60.640625 12.9375 67.421875 
Q 19.578125 74.21875 30.609375 74.21875 
Q 43.265625 74.21875 49.921875 64.515625 
Q 56.59375 54.828125 56.59375 36.375 
Q 56.59375 19.140625 48.40625 8.859375 
Q 40.234375 -1.421875 26.421875 -1.421875 
Q 22.703125 -1.421875 18.890625 -0.6875 
Q 15.09375 0.046875 10.984375 1.515625 
z
M 30.609375 32.421875 
Q 37.25 32.421875 41.125 36.953125 
Q 45.015625 41.5 45.015625 49.421875 
Q 45.015625 57.28125 41.125 61.84375 
Q 37.25 66.40625 30.609375 66.40625 
Q 23.96875 66.40625 20.09375 61.84375 
Q 16.21875 57.28125 16.21875 49.421875 
Q 16.21875 41.5 20.09375 36.953125 
Q 23.96875 32.421875 30.609375 32.421875 
z
" id="DejaVuSans-39"/>
    </defs>
    <g style="fill:#808080;" transform="translate(93.115875 290.099912)scale(0.1 -0.1)">
     <use xlink:href="#DejaVuSans-76"/>
     <use x="59.179688" xlink:href="#DejaVuSans-32"/>
     <use x="122.802734" xlink:href="#DejaVuSans-2e"/>
     <use x="154.589844" xlink:href="#DejaVuSans-32"/>
     <use x="218.212891" xlink:href="#DejaVuSans-2e"/>
     <use x="250" xlink:href="#DejaVuSans-32"/>
     <use x="313.623047" xlink:href="#DejaVuSans-2e"/>
     <use x="345.410156" xlink:href="#DejaVuSans-36"/>
     <use x="409.033203" xlink:href="#DejaVuSans-34"/>
     <use x="472.65625" xlink:href="#DejaVuSans-34"/>
     <use x="536.279297" xlink:href="#DejaVuSans-2c"/>
     <use x="568.066406" xlink:href="#DejaVuSans-20"/>
     <use x="599.853516" xlink:href="#DejaVuSans-68"/>
     <use x="663.232422" xlink:href="#DejaVuSans-76"/>
     <use x="722.380859" xlink:href="#DejaVuSans-2d"/>
     <use x="758.464844" xlink:href="#DejaVuSans-68"/>
     <use x="821.84375" xlink:href="#DejaVuSans-61"/>
     <use x="883.123047" xlink:href="#DejaVuSans-73"/>
     <use x="935.222656" xlink:href="#DejaVuSans-68"/>
     <use x="998.601562" xlink:href="#DejaVuSans-3d"/>
     <use x="1082.390625" xlink:href="#DejaVuSans-66"/>
     <use x="1117.595703" xlink:href="#DejaVuSans-66"/>
     <use x="1152.800781" xlink:href="#DejaVuSans-30"/>
     <use x="1216.423828" xlink:href="#DejaVuSans-65"/>
     <use x="1277.947266" xlink:href="#DejaVuSans-37"/>
     <use x="1341.570312" xlink:href="#DejaVuSans-31"/>
     <use x="1405.193359" xlink:href="#DejaVuSans-65"/>
     <use x="1466.716797" xlink:href="#DejaVuSans-38"/>
     <use x="1530.339844" xlink:href="#DejaVuSans-63"/>
     <use x="1585.320312" xlink:href="#DejaVuSans-64"/>
     <use x="1648.796875" xlink:href="#DejaVuSans-39"/>
     <use x="1712.419922" xlink:href="#DejaVuSans-37"/>
     <use x="1776.042969" xlink:href="#DejaVuSans-38"/>
     <use x="1839.666016" xlink:href="#DejaVuSans-33"/>
     <use x="1903.289062" xlink:href="#DejaVuSans-37"/>
     <use x="1966.912109" xlink:href="#DejaVuSans-33"/>
    </g>
   </g>
   <g id="text_19">
    <!-- 18 sep. Ellipsoid/Schwefel -->
    <defs>
     <path d="M 4.203125 54.6875 
L 13.1875 54.6875 
L 24.421875 12.015625 
L 35.59375 54.6875 
L 46.1875 54.6875 
L 57.421875 12.015625 
L 68.609375 54.6875 
L 77.59375 54.6875 
L 63.28125 0 
L 52.6875 0 
L 40.921875 44.828125 
L 29.109375 0 
L 18.5 0 
z
" id="DejaVuSans-77"/>
    </defs>
    <g transform="translate(64.8815 18.84)scale(0.2 -0.2)">
     <use xlink:href="#DejaVuSans-31"/>
     <use x="63.623047" xlink:href="#DejaVuSans-38"/>
     <use x="127.246094" xlink:href="#DejaVuSans-20"/>
     <use x="159.033203" xlink:href="#DejaVuSans-73"/>
     <use x="211.132812" xlink:href="#DejaVuSans-65"/>
     <use x="272.65625" xlink:href="#DejaVuSans-70"/>
     <use x="336.132812" xlink:href="#DejaVuSans-2e"/>
     <use x="367.919922" xlink:href="#DejaVuSans-20"/>
     <use x="399.707031" xlink:href="#DejaVuSans-45"/>
     <use x="462.890625" xlink:href="#DejaVuSans-6c"/>
     <use x="490.673828" xlink:href="#DejaVuSans-6c"/>
     <use x="518.457031" xlink:href="#DejaVuSans-69"/>
     <use x="546.240234" xlink:href="#DejaVuSans-70"/>
     <use x="609.716797" xlink:href="#DejaVuSans-73"/>
     <use x="661.816406" xlink:href="#DejaVuSans-6f"/>
     <use x="722.998047" xlink:href="#DejaVuSans-69"/>
     <use x="750.78125" xlink:href="#DejaVuSans-64"/>
     <use x="814.257812" xlink:href="#DejaVuSans-2f"/>
     <use x="847.949219" xlink:href="#DejaVuSans-53"/>
     <use x="911.425781" xlink:href="#DejaVuSans-63"/>
     <use x="966.40625" xlink:href="#DejaVuSans-68"/>
     <use x="1029.785156" xlink:href="#DejaVuSans-77"/>
     <use x="1111.572266" xlink:href="#DejaVuSans-65"/>
     <use x="1173.095703" xlink:href="#DejaVuSans-66"/>
     <use x="1208.300781" xlink:href="#DejaVuSans-65"/>
     <use x="1269.824219" xlink:href="#DejaVuSans-6c"/>
    </g>
   </g>
  </g>
 </g>
 <defs>
  <clipPath id="pd44805d602">
   <rect height="270.04" width="277.048" x="56.12" y="24.84"/>
  </clipPath>
 </defs>
</svg>
