<?xml version="1.0" encoding="utf-8" standalone="no"?>
<!DOCTYPE svg PUBLIC "-//W3C//DTD SVG 1.1//EN"
  "http://www.w3.org/Graphics/SVG/1.1/DTD/svg11.dtd">
<!-- Created with matplotlib (http://matplotlib.org/) -->
<svg height="345.6pt" version="1.1" viewBox="0 0 460.8 345.6" width="460.8pt" xmlns="http://www.w3.org/2000/svg" xmlns:xlink="http://www.w3.org/1999/xlink">
 <defs>
  <style type="text/css">
*{stroke-linecap:butt;stroke-linejoin:round;}
  </style>
 </defs>
 <g id="figure_1">
  <g id="patch_1">
   <path d="M 0 345.6 
L 460.8 345.6 
L 460.8 0 
L 0 0 
z
" style="fill:#ffffff;"/>
  </g>
  <g id="axes_1">
   <g id="patch_2">
    <path d="M 56.12 294.88 
L 333.168 294.88 
L 333.168 24.84 
L 56.12 24.84 
z
" style="fill:#ffffff;"/>
   </g>
   <g id="line2d_1">
    <path d="M 26.160744 294.88 
L 26.160744 290.270236 
L 114.380214 290.270236 
L 114.380214 281.050707 
L 131.86023 281.050707 
L 131.86023 271.831178 
L 152.040885 271.831178 
L 152.040885 267.221413 
L 156.653215 267.221413 
L 156.653215 253.39212 
L 163.354135 253.39212 
L 163.354135 244.172591 
L 171.539912 244.172591 
L 171.539912 239.562827 
L 182.935993 239.562827 
L 182.935993 230.343298 
L 218.100194 230.343298 
L 218.100194 216.514005 
L 231.109132 216.514005 
L 231.109132 207.294476 
L 231.517936 207.294476 
L 231.517936 198.074947 
L 240.491323 198.074947 
L 240.491323 188.855418 
L 263.002597 188.855418 
L 263.002597 184.245654 
L 278.034627 184.245654 
L 278.034627 170.416361 
L 292.082754 170.416361 
L 292.082754 165.806596 
L 333.168 165.806596 
" style="fill:none;stroke:#f5deb3;stroke-linecap:square;stroke-width:4;"/>
   </g>
   <g id="line2d_2">
    <defs>
     <path d="M -0 7.778175 
L 7.778175 0 
L 0 -7.778175 
L -7.778175 -0 
z
" id="m31f87e452b" style="stroke:#f5deb3;stroke-linejoin:miter;stroke-width:1.5;"/>
    </defs>
    <g>
     <use style="fill:#f5deb3;stroke:#f5deb3;stroke-linejoin:miter;stroke-width:1.5;" x="156.653215" xlink:href="#m31f87e452b" y="253.39212"/>
     <use style="fill:#f5deb3;stroke:#f5deb3;stroke-linejoin:miter;stroke-width:1.5;" x="182.935993" xlink:href="#m31f87e452b" y="230.343298"/>
     <use style="fill:#f5deb3;stroke:#f5deb3;stroke-linejoin:miter;stroke-width:1.5;" x="263.002597" xlink:href="#m31f87e452b" y="188.855418"/>
     <use style="fill:#f5deb3;stroke:#f5deb3;stroke-linejoin:miter;stroke-width:1.5;" x="292.082754" xlink:href="#m31f87e452b" y="165.806596"/>
     <use style="fill:#f5deb3;stroke:#f5deb3;stroke-linejoin:miter;stroke-width:1.5;" x="333.168" xlink:href="#m31f87e452b" y="165.806596"/>
    </g>
   </g>
   <g id="line2d_3">
    <path style="fill:none;stroke:#f5deb3;stroke-linecap:square;stroke-width:4;"/>
    <g/>
   </g>
   <g id="line2d_4">
    <path d="M 333.168 165.806596 
L 363.64328 289.532673 
" style="fill:none;stroke:#f5deb3;stroke-linecap:square;stroke-width:4;"/>
    <g>
     <use style="fill:#f5deb3;stroke:#f5deb3;stroke-linejoin:miter;stroke-width:1.5;" x="333.168" xlink:href="#m31f87e452b" y="165.806596"/>
     <use style="fill:#f5deb3;stroke:#f5deb3;stroke-linejoin:miter;stroke-width:1.5;" x="363.64328" xlink:href="#m31f87e452b" y="289.532673"/>
    </g>
   </g>
   <g id="matplotlib.axis_1">
    <g id="xtick_1">
     <g id="line2d_5">
      <path clip-path="url(#p4b583770d1)" d="M 56.12 294.88 
L 56.12 24.84 
" style="fill:none;stroke:#b0b0b0;stroke-linecap:square;stroke-width:0.8;"/>
     </g>
     <g id="line2d_6">
      <defs>
       <path d="M 0 0 
L 0 3.5 
" id="m85a89d9edf" style="stroke:#000000;stroke-width:0.8;"/>
      </defs>
      <g>
       <use style="stroke:#000000;stroke-width:0.8;" x="56.12" xlink:href="#m85a89d9edf" y="294.88"/>
      </g>
     </g>
     <g id="text_1">
      <!-- 0 -->
      <defs>
       <path d="M 31.78125 66.40625 
Q 24.171875 66.40625 20.328125 58.90625 
Q 16.5 51.421875 16.5 36.375 
Q 16.5 21.390625 20.328125 13.890625 
Q 24.171875 6.390625 31.78125 6.390625 
Q 39.453125 6.390625 43.28125 13.890625 
Q 47.125 21.390625 47.125 36.375 
Q 47.125 51.421875 43.28125 58.90625 
Q 39.453125 66.40625 31.78125 66.40625 
z
M 31.78125 74.21875 
Q 44.046875 74.21875 50.515625 64.515625 
Q 56.984375 54.828125 56.984375 36.375 
Q 56.984375 17.96875 50.515625 8.265625 
Q 44.046875 -1.421875 31.78125 -1.421875 
Q 19.53125 -1.421875 13.0625 8.265625 
Q 6.59375 17.96875 6.59375 36.375 
Q 6.59375 54.828125 13.0625 64.515625 
Q 19.53125 74.21875 31.78125 74.21875 
z
" id="DejaVuSans-30"/>
      </defs>
      <g transform="translate(49.7575 317.076875)scale(0.2 -0.2)">
       <use xlink:href="#DejaVuSans-30"/>
      </g>
     </g>
    </g>
    <g id="xtick_2">
     <g id="line2d_7">
      <path clip-path="url(#p4b583770d1)" d="M 135.276571 294.88 
L 135.276571 24.84 
" style="fill:none;stroke:#b0b0b0;stroke-linecap:square;stroke-width:0.8;"/>
     </g>
     <g id="line2d_8">
      <g>
       <use style="stroke:#000000;stroke-width:0.8;" x="135.276571" xlink:href="#m85a89d9edf" y="294.88"/>
      </g>
     </g>
     <g id="text_2">
      <!-- 2 -->
      <defs>
       <path d="M 19.1875 8.296875 
L 53.609375 8.296875 
L 53.609375 0 
L 7.328125 0 
L 7.328125 8.296875 
Q 12.9375 14.109375 22.625 23.890625 
Q 32.328125 33.6875 34.8125 36.53125 
Q 39.546875 41.84375 41.421875 45.53125 
Q 43.3125 49.21875 43.3125 52.78125 
Q 43.3125 58.59375 39.234375 62.25 
Q 35.15625 65.921875 28.609375 65.921875 
Q 23.96875 65.921875 18.8125 64.3125 
Q 13.671875 62.703125 7.8125 59.421875 
L 7.8125 69.390625 
Q 13.765625 71.78125 18.9375 73 
Q 24.125 74.21875 28.421875 74.21875 
Q 39.75 74.21875 46.484375 68.546875 
Q 53.21875 62.890625 53.21875 53.421875 
Q 53.21875 48.921875 51.53125 44.890625 
Q 49.859375 40.875 45.40625 35.40625 
Q 44.1875 33.984375 37.640625 27.21875 
Q 31.109375 20.453125 19.1875 8.296875 
z
" id="DejaVuSans-32"/>
      </defs>
      <g transform="translate(128.914071 317.076875)scale(0.2 -0.2)">
       <use xlink:href="#DejaVuSans-32"/>
      </g>
     </g>
    </g>
    <g id="xtick_3">
     <g id="line2d_9">
      <path clip-path="url(#p4b583770d1)" d="M 214.433143 294.88 
L 214.433143 24.84 
" style="fill:none;stroke:#b0b0b0;stroke-linecap:square;stroke-width:0.8;"/>
     </g>
     <g id="line2d_10">
      <g>
       <use style="stroke:#000000;stroke-width:0.8;" x="214.433143" xlink:href="#m85a89d9edf" y="294.88"/>
      </g>
     </g>
     <g id="text_3">
      <!-- 4 -->
      <defs>
       <path d="M 37.796875 64.3125 
L 12.890625 25.390625 
L 37.796875 25.390625 
z
M 35.203125 72.90625 
L 47.609375 72.90625 
L 47.609375 25.390625 
L 58.015625 25.390625 
L 58.015625 17.1875 
L 47.609375 17.1875 
L 47.609375 0 
L 37.796875 0 
L 37.796875 17.1875 
L 4.890625 17.1875 
L 4.890625 26.703125 
z
" id="DejaVuSans-34"/>
      </defs>
      <g transform="translate(208.070643 317.076875)scale(0.2 -0.2)">
       <use xlink:href="#DejaVuSans-34"/>
      </g>
     </g>
    </g>
    <g id="xtick_4">
     <g id="line2d_11">
      <path clip-path="url(#p4b583770d1)" d="M 293.589714 294.88 
L 293.589714 24.84 
" style="fill:none;stroke:#b0b0b0;stroke-linecap:square;stroke-width:0.8;"/>
     </g>
     <g id="line2d_12">
      <g>
       <use style="stroke:#000000;stroke-width:0.8;" x="293.589714" xlink:href="#m85a89d9edf" y="294.88"/>
      </g>
     </g>
     <g id="text_4">
      <!-- 6 -->
      <defs>
       <path d="M 33.015625 40.375 
Q 26.375 40.375 22.484375 35.828125 
Q 18.609375 31.296875 18.609375 23.390625 
Q 18.609375 15.53125 22.484375 10.953125 
Q 26.375 6.390625 33.015625 6.390625 
Q 39.65625 6.390625 43.53125 10.953125 
Q 47.40625 15.53125 47.40625 23.390625 
Q 47.40625 31.296875 43.53125 35.828125 
Q 39.65625 40.375 33.015625 40.375 
z
M 52.59375 71.296875 
L 52.59375 62.3125 
Q 48.875 64.0625 45.09375 64.984375 
Q 41.3125 65.921875 37.59375 65.921875 
Q 27.828125 65.921875 22.671875 59.328125 
Q 17.53125 52.734375 16.796875 39.40625 
Q 19.671875 43.65625 24.015625 45.921875 
Q 28.375 48.1875 33.59375 48.1875 
Q 44.578125 48.1875 50.953125 41.515625 
Q 57.328125 34.859375 57.328125 23.390625 
Q 57.328125 12.15625 50.6875 5.359375 
Q 44.046875 -1.421875 33.015625 -1.421875 
Q 20.359375 -1.421875 13.671875 8.265625 
Q 6.984375 17.96875 6.984375 36.375 
Q 6.984375 53.65625 15.1875 63.9375 
Q 23.390625 74.21875 37.203125 74.21875 
Q 40.921875 74.21875 44.703125 73.484375 
Q 48.484375 72.75 52.59375 71.296875 
z
" id="DejaVuSans-36"/>
      </defs>
      <g transform="translate(287.227214 317.076875)scale(0.2 -0.2)">
       <use xlink:href="#DejaVuSans-36"/>
      </g>
     </g>
    </g>
    <g id="xtick_5">
     <g id="line2d_13">
      <path clip-path="url(#p4b583770d1)" d="M 56.12 294.88 
L 56.12 24.84 
" style="fill:none;stroke:#b0b0b0;stroke-linecap:square;stroke-width:0.8;"/>
     </g>
     <g id="line2d_14">
      <defs>
       <path d="M 0 0 
L 0 2 
" id="m0a3984c346" style="stroke:#000000;stroke-width:0.6;"/>
      </defs>
      <g>
       <use style="stroke:#000000;stroke-width:0.6;" x="56.12" xlink:href="#m0a3984c346" y="294.88"/>
      </g>
     </g>
    </g>
    <g id="xtick_6">
     <g id="line2d_15">
      <path clip-path="url(#p4b583770d1)" d="M 95.698286 294.88 
L 95.698286 24.84 
" style="fill:none;stroke:#b0b0b0;stroke-linecap:square;stroke-width:0.8;"/>
     </g>
     <g id="line2d_16">
      <g>
       <use style="stroke:#000000;stroke-width:0.6;" x="95.698286" xlink:href="#m0a3984c346" y="294.88"/>
      </g>
     </g>
    </g>
    <g id="xtick_7">
     <g id="line2d_17">
      <path clip-path="url(#p4b583770d1)" d="M 135.276571 294.88 
L 135.276571 24.84 
" style="fill:none;stroke:#b0b0b0;stroke-linecap:square;stroke-width:0.8;"/>
     </g>
     <g id="line2d_18">
      <g>
       <use style="stroke:#000000;stroke-width:0.6;" x="135.276571" xlink:href="#m0a3984c346" y="294.88"/>
      </g>
     </g>
    </g>
    <g id="xtick_8">
     <g id="line2d_19">
      <path clip-path="url(#p4b583770d1)" d="M 174.854857 294.88 
L 174.854857 24.84 
" style="fill:none;stroke:#b0b0b0;stroke-linecap:square;stroke-width:0.8;"/>
     </g>
     <g id="line2d_20">
      <g>
       <use style="stroke:#000000;stroke-width:0.6;" x="174.854857" xlink:href="#m0a3984c346" y="294.88"/>
      </g>
     </g>
    </g>
    <g id="xtick_9">
     <g id="line2d_21">
      <path clip-path="url(#p4b583770d1)" d="M 214.433143 294.88 
L 214.433143 24.84 
" style="fill:none;stroke:#b0b0b0;stroke-linecap:square;stroke-width:0.8;"/>
     </g>
     <g id="line2d_22">
      <g>
       <use style="stroke:#000000;stroke-width:0.6;" x="214.433143" xlink:href="#m0a3984c346" y="294.88"/>
      </g>
     </g>
    </g>
    <g id="xtick_10">
     <g id="line2d_23">
      <path clip-path="url(#p4b583770d1)" d="M 254.011429 294.88 
L 254.011429 24.84 
" style="fill:none;stroke:#b0b0b0;stroke-linecap:square;stroke-width:0.8;"/>
     </g>
     <g id="line2d_24">
      <g>
       <use style="stroke:#000000;stroke-width:0.6;" x="254.011429" xlink:href="#m0a3984c346" y="294.88"/>
      </g>
     </g>
    </g>
    <g id="xtick_11">
     <g id="line2d_25">
      <path clip-path="url(#p4b583770d1)" d="M 293.589714 294.88 
L 293.589714 24.84 
" style="fill:none;stroke:#b0b0b0;stroke-linecap:square;stroke-width:0.8;"/>
     </g>
     <g id="line2d_26">
      <g>
       <use style="stroke:#000000;stroke-width:0.6;" x="293.589714" xlink:href="#m0a3984c346" y="294.88"/>
      </g>
     </g>
    </g>
    <g id="xtick_12">
     <g id="line2d_27">
      <path clip-path="url(#p4b583770d1)" d="M 333.168 294.88 
L 333.168 24.84 
" style="fill:none;stroke:#b0b0b0;stroke-linecap:square;stroke-width:0.8;"/>
     </g>
     <g id="line2d_28">
      <g>
       <use style="stroke:#000000;stroke-width:0.6;" x="333.168" xlink:href="#m0a3984c346" y="294.88"/>
      </g>
     </g>
    </g>
    <g id="text_5">
     <!-- log10(# f-evals / dimension) -->
     <defs>
      <path d="M 9.421875 75.984375 
L 18.40625 75.984375 
L 18.40625 0 
L 9.421875 0 
z
" id="DejaVuSans-6c"/>
      <path d="M 30.609375 48.390625 
Q 23.390625 48.390625 19.1875 42.75 
Q 14.984375 37.109375 14.984375 27.296875 
Q 14.984375 17.484375 19.15625 11.84375 
Q 23.34375 6.203125 30.609375 6.203125 
Q 37.796875 6.203125 41.984375 11.859375 
Q 46.1875 17.53125 46.1875 27.296875 
Q 46.1875 37.015625 41.984375 42.703125 
Q 37.796875 48.390625 30.609375 48.390625 
z
M 30.609375 56 
Q 42.328125 56 49.015625 48.375 
Q 55.71875 40.765625 55.71875 27.296875 
Q 55.71875 13.875 49.015625 6.21875 
Q 42.328125 -1.421875 30.609375 -1.421875 
Q 18.84375 -1.421875 12.171875 6.21875 
Q 5.515625 13.875 5.515625 27.296875 
Q 5.515625 40.765625 12.171875 48.375 
Q 18.84375 56 30.609375 56 
z
" id="DejaVuSans-6f"/>
      <path d="M 45.40625 27.984375 
Q 45.40625 37.75 41.375 43.109375 
Q 37.359375 48.484375 30.078125 48.484375 
Q 22.859375 48.484375 18.828125 43.109375 
Q 14.796875 37.75 14.796875 27.984375 
Q 14.796875 18.265625 18.828125 12.890625 
Q 22.859375 7.515625 30.078125 7.515625 
Q 37.359375 7.515625 41.375 12.890625 
Q 45.40625 18.265625 45.40625 27.984375 
z
M 54.390625 6.78125 
Q 54.390625 -7.171875 48.1875 -13.984375 
Q 42 -20.796875 29.203125 -20.796875 
Q 24.46875 -20.796875 20.265625 -20.09375 
Q 16.0625 -19.390625 12.109375 -17.921875 
L 12.109375 -9.1875 
Q 16.0625 -11.328125 19.921875 -12.34375 
Q 23.78125 -13.375 27.78125 -13.375 
Q 36.625 -13.375 41.015625 -8.765625 
Q 45.40625 -4.15625 45.40625 5.171875 
L 45.40625 9.625 
Q 42.625 4.78125 38.28125 2.390625 
Q 33.9375 0 27.875 0 
Q 17.828125 0 11.671875 7.65625 
Q 5.515625 15.328125 5.515625 27.984375 
Q 5.515625 40.671875 11.671875 48.328125 
Q 17.828125 56 27.875 56 
Q 33.9375 56 38.28125 53.609375 
Q 42.625 51.21875 45.40625 46.390625 
L 45.40625 54.6875 
L 54.390625 54.6875 
z
" id="DejaVuSans-67"/>
      <path d="M 12.40625 8.296875 
L 28.515625 8.296875 
L 28.515625 63.921875 
L 10.984375 60.40625 
L 10.984375 69.390625 
L 28.421875 72.90625 
L 38.28125 72.90625 
L 38.28125 8.296875 
L 54.390625 8.296875 
L 54.390625 0 
L 12.40625 0 
z
" id="DejaVuSans-31"/>
      <path d="M 31 75.875 
Q 24.46875 64.65625 21.28125 53.65625 
Q 18.109375 42.671875 18.109375 31.390625 
Q 18.109375 20.125 21.3125 9.0625 
Q 24.515625 -2 31 -13.1875 
L 23.1875 -13.1875 
Q 15.875 -1.703125 12.234375 9.375 
Q 8.59375 20.453125 8.59375 31.390625 
Q 8.59375 42.28125 12.203125 53.3125 
Q 15.828125 64.359375 23.1875 75.875 
z
" id="DejaVuSans-28"/>
      <path d="M 51.125 44 
L 36.921875 44 
L 32.8125 27.6875 
L 47.125 27.6875 
z
M 43.796875 71.78125 
L 38.71875 51.515625 
L 52.984375 51.515625 
L 58.109375 71.78125 
L 65.921875 71.78125 
L 60.890625 51.515625 
L 76.125 51.515625 
L 76.125 44 
L 58.984375 44 
L 54.984375 27.6875 
L 70.515625 27.6875 
L 70.515625 20.21875 
L 53.078125 20.21875 
L 48 0 
L 40.1875 0 
L 45.21875 20.21875 
L 30.90625 20.21875 
L 25.875 0 
L 18.015625 0 
L 23.09375 20.21875 
L 7.71875 20.21875 
L 7.71875 27.6875 
L 24.90625 27.6875 
L 29 44 
L 13.28125 44 
L 13.28125 51.515625 
L 30.90625 51.515625 
L 35.890625 71.78125 
z
" id="DejaVuSans-23"/>
      <path id="DejaVuSans-20"/>
      <path d="M 37.109375 75.984375 
L 37.109375 68.5 
L 28.515625 68.5 
Q 23.6875 68.5 21.796875 66.546875 
Q 19.921875 64.59375 19.921875 59.515625 
L 19.921875 54.6875 
L 34.71875 54.6875 
L 34.71875 47.703125 
L 19.921875 47.703125 
L 19.921875 0 
L 10.890625 0 
L 10.890625 47.703125 
L 2.296875 47.703125 
L 2.296875 54.6875 
L 10.890625 54.6875 
L 10.890625 58.5 
Q 10.890625 67.625 15.140625 71.796875 
Q 19.390625 75.984375 28.609375 75.984375 
z
" id="DejaVuSans-66"/>
      <path d="M 4.890625 31.390625 
L 31.203125 31.390625 
L 31.203125 23.390625 
L 4.890625 23.390625 
z
" id="DejaVuSans-2d"/>
      <path d="M 56.203125 29.59375 
L 56.203125 25.203125 
L 14.890625 25.203125 
Q 15.484375 15.921875 20.484375 11.0625 
Q 25.484375 6.203125 34.421875 6.203125 
Q 39.59375 6.203125 44.453125 7.46875 
Q 49.3125 8.734375 54.109375 11.28125 
L 54.109375 2.78125 
Q 49.265625 0.734375 44.1875 -0.34375 
Q 39.109375 -1.421875 33.890625 -1.421875 
Q 20.796875 -1.421875 13.15625 6.1875 
Q 5.515625 13.8125 5.515625 26.8125 
Q 5.515625 40.234375 12.765625 48.109375 
Q 20.015625 56 32.328125 56 
Q 43.359375 56 49.78125 48.890625 
Q 56.203125 41.796875 56.203125 29.59375 
z
M 47.21875 32.234375 
Q 47.125 39.59375 43.09375 43.984375 
Q 39.0625 48.390625 32.421875 48.390625 
Q 24.90625 48.390625 20.390625 44.140625 
Q 15.875 39.890625 15.1875 32.171875 
z
" id="DejaVuSans-65"/>
      <path d="M 2.984375 54.6875 
L 12.5 54.6875 
L 29.59375 8.796875 
L 46.6875 54.6875 
L 56.203125 54.6875 
L 35.6875 0 
L 23.484375 0 
z
" id="DejaVuSans-76"/>
      <path d="M 34.28125 27.484375 
Q 23.390625 27.484375 19.1875 25 
Q 14.984375 22.515625 14.984375 16.5 
Q 14.984375 11.71875 18.140625 8.90625 
Q 21.296875 6.109375 26.703125 6.109375 
Q 34.1875 6.109375 38.703125 11.40625 
Q 43.21875 16.703125 43.21875 25.484375 
L 43.21875 27.484375 
z
M 52.203125 31.203125 
L 52.203125 0 
L 43.21875 0 
L 43.21875 8.296875 
Q 40.140625 3.328125 35.546875 0.953125 
Q 30.953125 -1.421875 24.3125 -1.421875 
Q 15.921875 -1.421875 10.953125 3.296875 
Q 6 8.015625 6 15.921875 
Q 6 25.140625 12.171875 29.828125 
Q 18.359375 34.515625 30.609375 34.515625 
L 43.21875 34.515625 
L 43.21875 35.40625 
Q 43.21875 41.609375 39.140625 45 
Q 35.0625 48.390625 27.6875 48.390625 
Q 23 48.390625 18.546875 47.265625 
Q 14.109375 46.140625 10.015625 43.890625 
L 10.015625 52.203125 
Q 14.9375 54.109375 19.578125 55.046875 
Q 24.21875 56 28.609375 56 
Q 40.484375 56 46.34375 49.84375 
Q 52.203125 43.703125 52.203125 31.203125 
z
" id="DejaVuSans-61"/>
      <path d="M 44.28125 53.078125 
L 44.28125 44.578125 
Q 40.484375 46.53125 36.375 47.5 
Q 32.28125 48.484375 27.875 48.484375 
Q 21.1875 48.484375 17.84375 46.4375 
Q 14.5 44.390625 14.5 40.28125 
Q 14.5 37.15625 16.890625 35.375 
Q 19.28125 33.59375 26.515625 31.984375 
L 29.59375 31.296875 
Q 39.15625 29.25 43.1875 25.515625 
Q 47.21875 21.78125 47.21875 15.09375 
Q 47.21875 7.46875 41.1875 3.015625 
Q 35.15625 -1.421875 24.609375 -1.421875 
Q 20.21875 -1.421875 15.453125 -0.5625 
Q 10.6875 0.296875 5.421875 2 
L 5.421875 11.28125 
Q 10.40625 8.6875 15.234375 7.390625 
Q 20.0625 6.109375 24.8125 6.109375 
Q 31.15625 6.109375 34.5625 8.28125 
Q 37.984375 10.453125 37.984375 14.40625 
Q 37.984375 18.0625 35.515625 20.015625 
Q 33.0625 21.96875 24.703125 23.78125 
L 21.578125 24.515625 
Q 13.234375 26.265625 9.515625 29.90625 
Q 5.8125 33.546875 5.8125 39.890625 
Q 5.8125 47.609375 11.28125 51.796875 
Q 16.75 56 26.8125 56 
Q 31.78125 56 36.171875 55.265625 
Q 40.578125 54.546875 44.28125 53.078125 
z
" id="DejaVuSans-73"/>
      <path d="M 25.390625 72.90625 
L 33.6875 72.90625 
L 8.296875 -9.28125 
L 0 -9.28125 
z
" id="DejaVuSans-2f"/>
      <path d="M 45.40625 46.390625 
L 45.40625 75.984375 
L 54.390625 75.984375 
L 54.390625 0 
L 45.40625 0 
L 45.40625 8.203125 
Q 42.578125 3.328125 38.25 0.953125 
Q 33.9375 -1.421875 27.875 -1.421875 
Q 17.96875 -1.421875 11.734375 6.484375 
Q 5.515625 14.40625 5.515625 27.296875 
Q 5.515625 40.1875 11.734375 48.09375 
Q 17.96875 56 27.875 56 
Q 33.9375 56 38.25 53.625 
Q 42.578125 51.265625 45.40625 46.390625 
z
M 14.796875 27.296875 
Q 14.796875 17.390625 18.875 11.75 
Q 22.953125 6.109375 30.078125 6.109375 
Q 37.203125 6.109375 41.296875 11.75 
Q 45.40625 17.390625 45.40625 27.296875 
Q 45.40625 37.203125 41.296875 42.84375 
Q 37.203125 48.484375 30.078125 48.484375 
Q 22.953125 48.484375 18.875 42.84375 
Q 14.796875 37.203125 14.796875 27.296875 
z
" id="DejaVuSans-64"/>
      <path d="M 9.421875 54.6875 
L 18.40625 54.6875 
L 18.40625 0 
L 9.421875 0 
z
M 9.421875 75.984375 
L 18.40625 75.984375 
L 18.40625 64.59375 
L 9.421875 64.59375 
z
" id="DejaVuSans-69"/>
      <path d="M 52 44.1875 
Q 55.375 50.25 60.0625 53.125 
Q 64.75 56 71.09375 56 
Q 79.640625 56 84.28125 50.015625 
Q 88.921875 44.046875 88.921875 33.015625 
L 88.921875 0 
L 79.890625 0 
L 79.890625 32.71875 
Q 79.890625 40.578125 77.09375 44.375 
Q 74.3125 48.1875 68.609375 48.1875 
Q 61.625 48.1875 57.5625 43.546875 
Q 53.515625 38.921875 53.515625 30.90625 
L 53.515625 0 
L 44.484375 0 
L 44.484375 32.71875 
Q 44.484375 40.625 41.703125 44.40625 
Q 38.921875 48.1875 33.109375 48.1875 
Q 26.21875 48.1875 22.15625 43.53125 
Q 18.109375 38.875 18.109375 30.90625 
L 18.109375 0 
L 9.078125 0 
L 9.078125 54.6875 
L 18.109375 54.6875 
L 18.109375 46.1875 
Q 21.1875 51.21875 25.484375 53.609375 
Q 29.78125 56 35.6875 56 
Q 41.65625 56 45.828125 52.96875 
Q 50 49.953125 52 44.1875 
z
" id="DejaVuSans-6d"/>
      <path d="M 54.890625 33.015625 
L 54.890625 0 
L 45.90625 0 
L 45.90625 32.71875 
Q 45.90625 40.484375 42.875 44.328125 
Q 39.84375 48.1875 33.796875 48.1875 
Q 26.515625 48.1875 22.3125 43.546875 
Q 18.109375 38.921875 18.109375 30.90625 
L 18.109375 0 
L 9.078125 0 
L 9.078125 54.6875 
L 18.109375 54.6875 
L 18.109375 46.1875 
Q 21.34375 51.125 25.703125 53.5625 
Q 30.078125 56 35.796875 56 
Q 45.21875 56 50.046875 50.171875 
Q 54.890625 44.34375 54.890625 33.015625 
z
" id="DejaVuSans-6e"/>
      <path d="M 8.015625 75.875 
L 15.828125 75.875 
Q 23.140625 64.359375 26.78125 53.3125 
Q 30.421875 42.28125 30.421875 31.390625 
Q 30.421875 20.453125 26.78125 9.375 
Q 23.140625 -1.703125 15.828125 -13.1875 
L 8.015625 -13.1875 
Q 14.5 -2 17.703125 9.0625 
Q 20.90625 20.125 20.90625 31.390625 
Q 20.90625 42.671875 17.703125 53.65625 
Q 14.5 64.65625 8.015625 75.875 
z
" id="DejaVuSans-29"/>
     </defs>
     <g transform="translate(73.803219 338.153594)scale(0.17 -0.17)">
      <use xlink:href="#DejaVuSans-6c"/>
      <use x="27.783203" xlink:href="#DejaVuSans-6f"/>
      <use x="88.964844" xlink:href="#DejaVuSans-67"/>
      <use x="152.441406" xlink:href="#DejaVuSans-31"/>
      <use x="216.064453" xlink:href="#DejaVuSans-30"/>
      <use x="279.6875" xlink:href="#DejaVuSans-28"/>
      <use x="318.701172" xlink:href="#DejaVuSans-23"/>
      <use x="402.490234" xlink:href="#DejaVuSans-20"/>
      <use x="434.277344" xlink:href="#DejaVuSans-66"/>
      <use x="469.404297" xlink:href="#DejaVuSans-2d"/>
      <use x="505.488281" xlink:href="#DejaVuSans-65"/>
      <use x="567.011719" xlink:href="#DejaVuSans-76"/>
      <use x="626.191406" xlink:href="#DejaVuSans-61"/>
      <use x="687.470703" xlink:href="#DejaVuSans-6c"/>
      <use x="715.253906" xlink:href="#DejaVuSans-73"/>
      <use x="767.353516" xlink:href="#DejaVuSans-20"/>
      <use x="799.140625" xlink:href="#DejaVuSans-2f"/>
      <use x="832.832031" xlink:href="#DejaVuSans-20"/>
      <use x="864.619141" xlink:href="#DejaVuSans-64"/>
      <use x="928.095703" xlink:href="#DejaVuSans-69"/>
      <use x="955.878906" xlink:href="#DejaVuSans-6d"/>
      <use x="1053.291016" xlink:href="#DejaVuSans-65"/>
      <use x="1114.814453" xlink:href="#DejaVuSans-6e"/>
      <use x="1178.193359" xlink:href="#DejaVuSans-73"/>
      <use x="1230.292969" xlink:href="#DejaVuSans-69"/>
      <use x="1258.076172" xlink:href="#DejaVuSans-6f"/>
      <use x="1319.257812" xlink:href="#DejaVuSans-6e"/>
      <use x="1382.636719" xlink:href="#DejaVuSans-29"/>
     </g>
    </g>
   </g>
   <g id="matplotlib.axis_2">
    <g id="ytick_1">
     <g id="line2d_29">
      <path clip-path="url(#p4b583770d1)" d="M 56.12 294.88 
L 333.168 294.88 
" style="fill:none;stroke:#b0b0b0;stroke-linecap:square;stroke-width:0.8;"/>
     </g>
     <g id="line2d_30">
      <defs>
       <path d="M 0 0 
L -3.5 0 
" id="mf4811ef8f7" style="stroke:#000000;stroke-width:0.8;"/>
      </defs>
      <g>
       <use style="stroke:#000000;stroke-width:0.8;" x="56.12" xlink:href="#mf4811ef8f7" y="294.88"/>
      </g>
     </g>
     <g id="text_6">
      <!-- 0.0 -->
      <defs>
       <path d="M 10.6875 12.40625 
L 21 12.40625 
L 21 0 
L 10.6875 0 
z
" id="DejaVuSans-2e"/>
      </defs>
      <g transform="translate(23.675 300.95875)scale(0.16 -0.16)">
       <use xlink:href="#DejaVuSans-30"/>
       <use x="63.623047" xlink:href="#DejaVuSans-2e"/>
       <use x="95.410156" xlink:href="#DejaVuSans-30"/>
      </g>
     </g>
    </g>
    <g id="ytick_2">
     <g id="line2d_31">
      <path clip-path="url(#p4b583770d1)" d="M 56.12 241.406733 
L 333.168 241.406733 
" style="fill:none;stroke:#b0b0b0;stroke-linecap:square;stroke-width:0.8;"/>
     </g>
     <g id="line2d_32">
      <g>
       <use style="stroke:#000000;stroke-width:0.8;" x="56.12" xlink:href="#mf4811ef8f7" y="241.406733"/>
      </g>
     </g>
     <g id="text_7">
      <!-- 0.2 -->
      <g transform="translate(23.675 247.485483)scale(0.16 -0.16)">
       <use xlink:href="#DejaVuSans-30"/>
       <use x="63.623047" xlink:href="#DejaVuSans-2e"/>
       <use x="95.410156" xlink:href="#DejaVuSans-32"/>
      </g>
     </g>
    </g>
    <g id="ytick_3">
     <g id="line2d_33">
      <path clip-path="url(#p4b583770d1)" d="M 56.12 187.933465 
L 333.168 187.933465 
" style="fill:none;stroke:#b0b0b0;stroke-linecap:square;stroke-width:0.8;"/>
     </g>
     <g id="line2d_34">
      <g>
       <use style="stroke:#000000;stroke-width:0.8;" x="56.12" xlink:href="#mf4811ef8f7" y="187.933465"/>
      </g>
     </g>
     <g id="text_8">
      <!-- 0.4 -->
      <g transform="translate(23.675 194.012215)scale(0.16 -0.16)">
       <use xlink:href="#DejaVuSans-30"/>
       <use x="63.623047" xlink:href="#DejaVuSans-2e"/>
       <use x="95.410156" xlink:href="#DejaVuSans-34"/>
      </g>
     </g>
    </g>
    <g id="ytick_4">
     <g id="line2d_35">
      <path clip-path="url(#p4b583770d1)" d="M 56.12 134.460198 
L 333.168 134.460198 
" style="fill:none;stroke:#b0b0b0;stroke-linecap:square;stroke-width:0.8;"/>
     </g>
     <g id="line2d_36">
      <g>
       <use style="stroke:#000000;stroke-width:0.8;" x="56.12" xlink:href="#mf4811ef8f7" y="134.460198"/>
      </g>
     </g>
     <g id="text_9">
      <!-- 0.6 -->
      <g transform="translate(23.675 140.538948)scale(0.16 -0.16)">
       <use xlink:href="#DejaVuSans-30"/>
       <use x="63.623047" xlink:href="#DejaVuSans-2e"/>
       <use x="95.410156" xlink:href="#DejaVuSans-36"/>
      </g>
     </g>
    </g>
    <g id="ytick_5">
     <g id="line2d_37">
      <path clip-path="url(#p4b583770d1)" d="M 56.12 80.986931 
L 333.168 80.986931 
" style="fill:none;stroke:#b0b0b0;stroke-linecap:square;stroke-width:0.8;"/>
     </g>
     <g id="line2d_38">
      <g>
       <use style="stroke:#000000;stroke-width:0.8;" x="56.12" xlink:href="#mf4811ef8f7" y="80.986931"/>
      </g>
     </g>
     <g id="text_10">
      <!-- 0.8 -->
      <defs>
       <path d="M 31.78125 34.625 
Q 24.75 34.625 20.71875 30.859375 
Q 16.703125 27.09375 16.703125 20.515625 
Q 16.703125 13.921875 20.71875 10.15625 
Q 24.75 6.390625 31.78125 6.390625 
Q 38.8125 6.390625 42.859375 10.171875 
Q 46.921875 13.96875 46.921875 20.515625 
Q 46.921875 27.09375 42.890625 30.859375 
Q 38.875 34.625 31.78125 34.625 
z
M 21.921875 38.8125 
Q 15.578125 40.375 12.03125 44.71875 
Q 8.5 49.078125 8.5 55.328125 
Q 8.5 64.0625 14.71875 69.140625 
Q 20.953125 74.21875 31.78125 74.21875 
Q 42.671875 74.21875 48.875 69.140625 
Q 55.078125 64.0625 55.078125 55.328125 
Q 55.078125 49.078125 51.53125 44.71875 
Q 48 40.375 41.703125 38.8125 
Q 48.828125 37.15625 52.796875 32.3125 
Q 56.78125 27.484375 56.78125 20.515625 
Q 56.78125 9.90625 50.3125 4.234375 
Q 43.84375 -1.421875 31.78125 -1.421875 
Q 19.734375 -1.421875 13.25 4.234375 
Q 6.78125 9.90625 6.78125 20.515625 
Q 6.78125 27.484375 10.78125 32.3125 
Q 14.796875 37.15625 21.921875 38.8125 
z
M 18.3125 54.390625 
Q 18.3125 48.734375 21.84375 45.5625 
Q 25.390625 42.390625 31.78125 42.390625 
Q 38.140625 42.390625 41.71875 45.5625 
Q 45.3125 48.734375 45.3125 54.390625 
Q 45.3125 60.0625 41.71875 63.234375 
Q 38.140625 66.40625 31.78125 66.40625 
Q 25.390625 66.40625 21.84375 63.234375 
Q 18.3125 60.0625 18.3125 54.390625 
z
" id="DejaVuSans-38"/>
      </defs>
      <g transform="translate(23.675 87.065681)scale(0.16 -0.16)">
       <use xlink:href="#DejaVuSans-30"/>
       <use x="63.623047" xlink:href="#DejaVuSans-2e"/>
       <use x="95.410156" xlink:href="#DejaVuSans-38"/>
      </g>
     </g>
    </g>
    <g id="ytick_6">
     <g id="line2d_39">
      <path clip-path="url(#p4b583770d1)" d="M 56.12 27.513663 
L 333.168 27.513663 
" style="fill:none;stroke:#b0b0b0;stroke-linecap:square;stroke-width:0.8;"/>
     </g>
     <g id="line2d_40">
      <g>
       <use style="stroke:#000000;stroke-width:0.8;" x="56.12" xlink:href="#mf4811ef8f7" y="27.513663"/>
      </g>
     </g>
     <g id="text_11">
      <!-- 1.0 -->
      <g transform="translate(23.675 33.592413)scale(0.16 -0.16)">
       <use xlink:href="#DejaVuSans-31"/>
       <use x="63.623047" xlink:href="#DejaVuSans-2e"/>
       <use x="95.410156" xlink:href="#DejaVuSans-30"/>
      </g>
     </g>
    </g>
    <g id="text_12">
     <!-- Fraction of function,target pairs -->
     <defs>
      <path d="M 9.8125 72.90625 
L 51.703125 72.90625 
L 51.703125 64.59375 
L 19.671875 64.59375 
L 19.671875 43.109375 
L 48.578125 43.109375 
L 48.578125 34.8125 
L 19.671875 34.8125 
L 19.671875 0 
L 9.8125 0 
z
" id="DejaVuSans-46"/>
      <path d="M 41.109375 46.296875 
Q 39.59375 47.171875 37.8125 47.578125 
Q 36.03125 48 33.890625 48 
Q 26.265625 48 22.1875 43.046875 
Q 18.109375 38.09375 18.109375 28.8125 
L 18.109375 0 
L 9.078125 0 
L 9.078125 54.6875 
L 18.109375 54.6875 
L 18.109375 46.1875 
Q 20.953125 51.171875 25.484375 53.578125 
Q 30.03125 56 36.53125 56 
Q 37.453125 56 38.578125 55.875 
Q 39.703125 55.765625 41.0625 55.515625 
z
" id="DejaVuSans-72"/>
      <path d="M 48.78125 52.59375 
L 48.78125 44.1875 
Q 44.96875 46.296875 41.140625 47.34375 
Q 37.3125 48.390625 33.40625 48.390625 
Q 24.65625 48.390625 19.8125 42.84375 
Q 14.984375 37.3125 14.984375 27.296875 
Q 14.984375 17.28125 19.8125 11.734375 
Q 24.65625 6.203125 33.40625 6.203125 
Q 37.3125 6.203125 41.140625 7.25 
Q 44.96875 8.296875 48.78125 10.40625 
L 48.78125 2.09375 
Q 45.015625 0.34375 40.984375 -0.53125 
Q 36.96875 -1.421875 32.421875 -1.421875 
Q 20.0625 -1.421875 12.78125 6.34375 
Q 5.515625 14.109375 5.515625 27.296875 
Q 5.515625 40.671875 12.859375 48.328125 
Q 20.21875 56 33.015625 56 
Q 37.15625 56 41.109375 55.140625 
Q 45.0625 54.296875 48.78125 52.59375 
z
" id="DejaVuSans-63"/>
      <path d="M 18.3125 70.21875 
L 18.3125 54.6875 
L 36.8125 54.6875 
L 36.8125 47.703125 
L 18.3125 47.703125 
L 18.3125 18.015625 
Q 18.3125 11.328125 20.140625 9.421875 
Q 21.96875 7.515625 27.59375 7.515625 
L 36.8125 7.515625 
L 36.8125 0 
L 27.59375 0 
Q 17.1875 0 13.234375 3.875 
Q 9.28125 7.765625 9.28125 18.015625 
L 9.28125 47.703125 
L 2.6875 47.703125 
L 2.6875 54.6875 
L 9.28125 54.6875 
L 9.28125 70.21875 
z
" id="DejaVuSans-74"/>
      <path d="M 8.5 21.578125 
L 8.5 54.6875 
L 17.484375 54.6875 
L 17.484375 21.921875 
Q 17.484375 14.15625 20.5 10.265625 
Q 23.53125 6.390625 29.59375 6.390625 
Q 36.859375 6.390625 41.078125 11.03125 
Q 45.3125 15.671875 45.3125 23.6875 
L 45.3125 54.6875 
L 54.296875 54.6875 
L 54.296875 0 
L 45.3125 0 
L 45.3125 8.40625 
Q 42.046875 3.421875 37.71875 1 
Q 33.40625 -1.421875 27.6875 -1.421875 
Q 18.265625 -1.421875 13.375 4.4375 
Q 8.5 10.296875 8.5 21.578125 
z
M 31.109375 56 
z
" id="DejaVuSans-75"/>
      <path d="M 11.71875 12.40625 
L 22.015625 12.40625 
L 22.015625 4 
L 14.015625 -11.625 
L 7.71875 -11.625 
L 11.71875 4 
z
" id="DejaVuSans-2c"/>
      <path d="M 18.109375 8.203125 
L 18.109375 -20.796875 
L 9.078125 -20.796875 
L 9.078125 54.6875 
L 18.109375 54.6875 
L 18.109375 46.390625 
Q 20.953125 51.265625 25.265625 53.625 
Q 29.59375 56 35.59375 56 
Q 45.5625 56 51.78125 48.09375 
Q 58.015625 40.1875 58.015625 27.296875 
Q 58.015625 14.40625 51.78125 6.484375 
Q 45.5625 -1.421875 35.59375 -1.421875 
Q 29.59375 -1.421875 25.265625 0.953125 
Q 20.953125 3.328125 18.109375 8.203125 
z
M 48.6875 27.296875 
Q 48.6875 37.203125 44.609375 42.84375 
Q 40.53125 48.484375 33.40625 48.484375 
Q 26.265625 48.484375 22.1875 42.84375 
Q 18.109375 37.203125 18.109375 27.296875 
Q 18.109375 17.390625 22.1875 11.75 
Q 26.265625 6.109375 33.40625 6.109375 
Q 40.53125 6.109375 44.609375 11.75 
Q 48.6875 17.390625 48.6875 27.296875 
z
" id="DejaVuSans-70"/>
     </defs>
     <g transform="translate(16.139531 294.999375)rotate(-90)scale(0.17 -0.17)">
      <use xlink:href="#DejaVuSans-46"/>
      <use x="57.410156" xlink:href="#DejaVuSans-72"/>
      <use x="98.523438" xlink:href="#DejaVuSans-61"/>
      <use x="159.802734" xlink:href="#DejaVuSans-63"/>
      <use x="214.783203" xlink:href="#DejaVuSans-74"/>
      <use x="253.992188" xlink:href="#DejaVuSans-69"/>
      <use x="281.775391" xlink:href="#DejaVuSans-6f"/>
      <use x="342.957031" xlink:href="#DejaVuSans-6e"/>
      <use x="406.335938" xlink:href="#DejaVuSans-20"/>
      <use x="438.123047" xlink:href="#DejaVuSans-6f"/>
      <use x="499.304688" xlink:href="#DejaVuSans-66"/>
      <use x="534.509766" xlink:href="#DejaVuSans-20"/>
      <use x="566.296875" xlink:href="#DejaVuSans-66"/>
      <use x="601.501953" xlink:href="#DejaVuSans-75"/>
      <use x="664.880859" xlink:href="#DejaVuSans-6e"/>
      <use x="728.259766" xlink:href="#DejaVuSans-63"/>
      <use x="783.240234" xlink:href="#DejaVuSans-74"/>
      <use x="822.449219" xlink:href="#DejaVuSans-69"/>
      <use x="850.232422" xlink:href="#DejaVuSans-6f"/>
      <use x="911.414062" xlink:href="#DejaVuSans-6e"/>
      <use x="974.792969" xlink:href="#DejaVuSans-2c"/>
      <use x="1006.580078" xlink:href="#DejaVuSans-74"/>
      <use x="1045.789062" xlink:href="#DejaVuSans-61"/>
      <use x="1107.068359" xlink:href="#DejaVuSans-72"/>
      <use x="1148.166016" xlink:href="#DejaVuSans-67"/>
      <use x="1211.642578" xlink:href="#DejaVuSans-65"/>
      <use x="1273.166016" xlink:href="#DejaVuSans-74"/>
      <use x="1312.375" xlink:href="#DejaVuSans-20"/>
      <use x="1344.162109" xlink:href="#DejaVuSans-70"/>
      <use x="1407.638672" xlink:href="#DejaVuSans-61"/>
      <use x="1468.917969" xlink:href="#DejaVuSans-69"/>
      <use x="1496.701172" xlink:href="#DejaVuSans-72"/>
      <use x="1537.814453" xlink:href="#DejaVuSans-73"/>
     </g>
    </g>
   </g>
   <g id="line2d_41">
    <defs>
     <path d="M 0 1.5 
C 0.397805 1.5 0.77937 1.341951 1.06066 1.06066 
C 1.341951 0.77937 1.5 0.397805 1.5 0 
C 1.5 -0.397805 1.341951 -0.77937 1.06066 -1.06066 
C 0.77937 -1.341951 0.397805 -1.5 0 -1.5 
C -0.397805 -1.5 -0.77937 -1.341951 -1.06066 -1.06066 
C -1.341951 -0.77937 -1.5 -0.397805 -1.5 0 
C -1.5 0.397805 -1.341951 0.77937 -1.06066 1.06066 
C -0.77937 1.341951 -0.397805 1.5 0 1.5 
z
" id="m0a65f94bd8" style="stroke:#f5deb3;"/>
    </defs>
    <g>
     <use style="fill:#f5deb3;stroke:#f5deb3;" x="292.082754" xlink:href="#m0a65f94bd8" y="165.806596"/>
     <use style="fill:#f5deb3;stroke:#f5deb3;" x="292.082754" xlink:href="#m0a65f94bd8" y="165.806596"/>
    </g>
   </g>
   <g id="line2d_42">
    <defs>
     <path d="M 0 1.5 
C 0.397805 1.5 0.77937 1.341951 1.06066 1.06066 
C 1.341951 0.77937 1.5 0.397805 1.5 0 
C 1.5 -0.397805 1.341951 -0.77937 1.06066 -1.06066 
C 0.77937 -1.341951 0.397805 -1.5 0 -1.5 
C -0.397805 -1.5 -0.77937 -1.341951 -1.06066 -1.06066 
C -1.341951 -0.77937 -1.5 -0.397805 -1.5 0 
C -1.5 0.397805 -1.341951 0.77937 -1.06066 1.06066 
C -0.77937 1.341951 -0.397805 1.5 0 1.5 
z
" id="m3be4dcc612" style="stroke:#000080;"/>
    </defs>
    <g>
     <use style="fill:#000080;stroke:#000080;" x="301.693767" xlink:href="#m3be4dcc612" y="27.513663"/>
     <use style="fill:#000080;stroke:#000080;" x="301.693767" xlink:href="#m3be4dcc612" y="27.513663"/>
    </g>
   </g>
   <g id="line2d_43">
    <path d="M -1 287.504377 
L 58.891979 287.504377 
L 58.891979 287.0434 
L 84.458185 287.0434 
L 84.458185 286.121448 
L 96.16459 286.121448 
L 96.16459 285.199495 
L 99.636642 285.199495 
L 99.70485 282.894612 
L 102.895343 282.894612 
L 102.895343 282.433636 
L 105.415256 282.433636 
L 105.415256 281.050707 
L 105.633605 281.050707 
L 105.633605 279.667777 
L 105.753721 279.667777 
L 105.753721 279.206801 
L 108.078842 279.206801 
L 108.078842 278.745825 
L 109.751277 278.745825 
L 109.751277 278.284848 
L 109.939957 278.284848 
L 109.939957 276.901919 
L 111.939448 276.901919 
L 111.939448 276.440942 
L 113.164274 276.440942 
L 113.164274 275.979966 
L 114.696138 275.979966 
L 114.710361 273.675084 
L 114.851948 273.675084 
L 114.851948 272.292154 
L 116.362824 272.292154 
L 116.362824 270.909225 
L 117.206993 270.909225 
L 117.206993 270.448249 
L 117.353906 270.448249 
L 117.353906 269.526296 
L 118.554421 269.526296 
L 118.554421 268.604343 
L 118.679018 268.604343 
L 118.76907 267.221413 
L 120.619323 267.221413 
L 120.689748 265.377508 
L 121.872963 265.377508 
L 121.872963 264.916531 
L 122.570888 264.916531 
L 122.570888 263.072625 
L 124.233665 263.072625 
L 124.233665 261.22872 
L 125.356265 261.22872 
L 125.356265 260.767743 
L 125.82432 260.767743 
L 125.82432 260.306767 
L 126.410019 260.306767 
L 126.410019 258.923837 
L 126.546239 258.923837 
L 126.546239 258.001885 
L 127.232195 258.001885 
L 127.334814 254.314073 
L 127.88522 254.314073 
L 127.88522 252.470167 
L 128.584251 252.470167 
L 128.584251 251.548214 
L 129.176484 251.548214 
L 129.176484 251.087238 
L 129.624067 251.087238 
L 129.624067 250.626262 
L 129.766761 250.626262 
L 129.766761 250.165285 
L 129.961052 250.165285 
L 129.961052 247.399426 
L 130.39462 247.399426 
L 130.39462 246.477474 
L 130.906408 246.477474 
L 130.945153 245.094544 
L 132.053099 245.094544 
L 132.053099 244.172591 
L 132.543652 244.172591 
L 132.543652 243.711615 
L 132.991169 243.711615 
L 133.079291 241.406733 
L 133.108565 241.406733 
L 133.171821 239.10185 
L 133.513248 239.10185 
L 133.513248 238.640874 
L 134.422028 238.640874 
L 134.449104 237.718921 
L 134.872217 237.718921 
L 134.968733 234.953062 
L 135.842956 234.953062 
L 135.921774 233.109157 
L 136.164248 233.109157 
L 136.164248 231.726227 
L 136.310535 231.726227 
L 136.310535 230.804274 
L 136.531652 230.804274 
L 136.531652 229.882322 
L 136.777548 229.882322 
L 136.777548 228.960369 
L 138.306266 228.960369 
L 138.306266 228.038416 
L 138.456919 228.038416 
L 138.456919 227.577439 
L 139.146447 227.577439 
L 139.146447 226.19451 
L 139.469327 226.19451 
L 139.469327 225.733534 
L 139.825874 225.733534 
L 139.898275 223.889628 
L 140.178407 223.889628 
L 140.178407 223.428651 
L 140.859391 223.428651 
L 140.859391 222.967675 
L 141.069274 222.967675 
L 141.069274 222.506699 
L 141.430514 222.506699 
L 141.430514 221.584746 
L 141.669166 221.584746 
L 141.683973 219.279863 
L 141.991995 219.279863 
L 141.991995 218.818887 
L 142.776273 218.818887 
L 142.84281 216.974981 
L 143.166254 216.974981 
L 143.166254 215.592052 
L 143.642928 215.592052 
L 143.693037 212.365217 
L 144.267944 212.365217 
L 144.267944 211.443264 
L 144.695544 211.443264 
L 144.695544 210.982287 
L 145.008185 210.982287 
L 145.008185 209.138382 
L 145.745926 209.138382 
L 145.745926 208.677405 
L 145.980357 208.677405 
L 145.980357 207.755452 
L 146.477954 207.755452 
L 146.511515 206.372523 
L 147.246595 206.372523 
L 147.246595 205.911547 
L 147.448854 205.911547 
L 147.448854 205.45057 
L 147.951524 205.45057 
L 148.045821 203.606664 
L 148.074418 203.606664 
L 148.098891 202.684712 
L 149.312479 202.684712 
L 149.312479 200.840806 
L 150.550581 200.840806 
L 150.550581 200.379829 
L 150.687865 200.379829 
L 150.687865 199.918853 
L 151.227993 199.918853 
L 151.280576 198.535924 
L 151.532761 198.535924 
L 151.589412 196.692018 
L 152.013317 196.692018 
L 152.0587 195.309088 
L 152.95743 195.309088 
L 152.95743 194.848112 
L 153.108845 194.848112 
L 153.108845 193.926159 
L 153.494311 193.926159 
L 153.546346 193.004206 
L 153.615975 193.004206 
L 153.615975 192.082253 
L 153.761723 192.082253 
L 153.761723 190.699324 
L 154.178824 190.699324 
L 154.178824 190.238348 
L 154.348255 190.238348 
L 154.348255 188.855418 
L 154.931874 188.855418 
L 154.931874 187.011512 
L 155.427273 187.011512 
L 155.427273 186.550536 
L 156.214001 186.550536 
L 156.214001 185.628583 
L 157.054877 185.628583 
L 157.054877 185.167607 
L 157.198312 185.167607 
L 157.222302 183.784677 
L 157.949847 183.784677 
L 157.949847 182.862724 
L 158.336125 182.862724 
L 158.40228 181.940772 
L 159.530554 181.940772 
L 159.530554 180.557842 
L 160.234869 180.557842 
L 160.234869 180.096866 
L 160.89404 180.096866 
L 160.89404 179.174913 
L 161.034805 179.174913 
L 161.034805 178.25296 
L 161.506456 178.25296 
L 161.506456 177.331007 
L 162.454226 177.331007 
L 162.505428 175.487101 
L 164.064163 175.487101 
L 164.064163 173.643196 
L 164.621775 173.643196 
L 164.732089 171.79929 
L 164.885501 171.79929 
L 164.888571 170.877337 
L 165.117248 170.877337 
L 165.117248 169.955384 
L 165.698682 169.955384 
L 165.698682 169.494408 
L 166.001257 169.494408 
L 166.001257 168.572455 
L 166.217109 168.572455 
L 166.217109 167.650502 
L 166.966901 167.650502 
L 166.966901 166.728549 
L 167.434415 166.728549 
L 167.434415 166.267573 
L 168.538946 166.267573 
L 168.597795 163.501714 
L 169.004193 163.501714 
L 169.004193 163.040737 
L 169.504761 163.040737 
L 169.504761 162.579761 
L 171.251409 162.579761 
L 171.333354 159.352926 
L 171.755342 159.352926 
L 171.858473 157.50902 
L 172.260419 157.50902 
L 172.260419 156.587067 
L 172.701469 156.587067 
L 172.701469 155.665114 
L 173.278588 155.665114 
L 173.278588 152.899256 
L 173.965957 152.899256 
L 173.965957 151.05535 
L 174.286947 151.05535 
L 174.331305 148.750468 
L 174.882766 148.750468 
L 174.882766 147.367538 
L 175.195237 147.367538 
L 175.195237 146.445586 
L 176.293504 146.445586 
L 176.293504 145.523633 
L 177.588393 145.523633 
L 177.588393 145.062656 
L 177.912271 145.062656 
L 177.912271 143.679727 
L 180.215134 143.679727 
L 180.215134 143.21875 
L 180.385737 143.21875 
L 180.422453 141.374845 
L 182.869267 141.374845 
L 182.869267 140.913868 
L 184.298654 140.913868 
L 184.298654 139.991915 
L 185.054046 139.991915 
L 185.054046 139.530939 
L 185.425572 139.530939 
L 185.425572 139.069962 
L 186.00016 139.069962 
L 186.00016 137.687033 
L 186.502126 137.687033 
L 186.531125 136.76508 
L 186.639924 136.76508 
L 186.639924 135.843127 
L 187.146732 135.843127 
L 187.146732 134.921174 
L 187.317604 134.921174 
L 187.317604 133.538245 
L 187.75181 133.538245 
L 187.75181 133.077269 
L 188.050134 133.077269 
L 188.050134 130.772386 
L 188.670778 130.772386 
L 188.739504 128.928481 
L 189.075123 128.928481 
L 189.084327 127.545551 
L 189.610615 127.545551 
L 189.610615 127.084575 
L 192.866785 127.084575 
L 192.866785 126.162622 
L 193.609242 126.162622 
L 193.609242 125.240669 
L 194.645208 125.240669 
L 194.645208 124.318716 
L 196.786678 124.318716 
L 196.786678 123.85774 
L 200.780976 123.85774 
L 200.780976 122.474811 
L 204.34364 122.474811 
L 204.34364 122.013834 
L 209.035465 122.013834 
L 209.035465 121.091881 
L 213.811852 121.091881 
L 213.811852 120.169928 
L 214.493926 120.169928 
L 214.493926 119.247975 
L 216.902625 119.247975 
L 216.902625 118.786999 
L 220.49676 118.786999 
L 220.49676 117.40407 
L 223.133561 117.40407 
L 223.133561 116.943093 
L 223.923934 116.943093 
L 223.923934 116.482117 
L 226.246135 116.482117 
L 226.246135 116.02114 
L 226.428847 116.02114 
L 226.428847 115.560164 
L 229.0424 115.560164 
L 229.0424 114.638211 
L 231.054255 114.638211 
L 231.054255 113.716258 
L 231.501006 113.716258 
L 231.501006 112.794305 
L 231.922417 112.794305 
L 231.922417 112.333329 
L 232.638534 112.333329 
L 232.638534 111.872352 
L 234.084336 111.872352 
L 234.084336 111.411376 
L 235.143851 111.411376 
L 235.143851 110.950399 
L 236.1775 110.950399 
L 236.1775 110.028447 
L 240.189455 110.028447 
L 240.189455 109.56747 
L 242.624442 109.56747 
L 242.624442 109.106494 
L 243.061412 109.106494 
L 243.061412 108.645517 
L 247.020324 108.645517 
L 247.020324 108.184541 
L 251.257338 108.184541 
L 251.257338 106.801611 
L 254.063487 106.801611 
L 254.173886 100.347941 
L 254.177359 100.347941 
L 254.283263 94.355248 
L 254.359298 94.355248 
L 254.412292 88.362554 
L 254.941498 88.362554 
L 254.941498 86.979624 
L 255.594122 86.979624 
L 255.594122 86.518648 
L 256.298276 86.518648 
L 256.298276 86.057672 
L 256.649669 86.057672 
L 256.649669 85.596695 
L 258.024799 85.596695 
L 258.11879 84.674742 
L 258.209231 84.674742 
L 258.271732 83.752789 
L 258.507557 83.752789 
L 258.507557 83.291813 
L 258.96031 83.291813 
L 258.96031 82.830836 
L 259.224792 82.830836 
L 259.224792 81.908884 
L 259.503332 81.908884 
L 259.503332 81.447907 
L 261.158379 81.447907 
L 261.158379 80.525954 
L 262.783142 80.525954 
L 262.783142 80.064978 
L 266.003918 80.064978 
L 266.111729 71.306425 
L 266.116614 71.306425 
L 266.145238 68.07959 
L 266.397006 68.07959 
L 266.397006 67.618614 
L 267.107109 67.618614 
L 267.107109 67.157637 
L 267.29537 67.157637 
L 267.324961 65.774708 
L 268.049237 65.774708 
L 268.152414 64.391779 
L 268.187489 64.391779 
L 268.187489 63.930802 
L 269.958438 63.930802 
L 269.958438 63.469826 
L 272.025168 63.469826 
L 272.025168 63.008849 
L 272.949396 63.008849 
L 273.029735 56.555179 
L 273.438991 56.555179 
L 273.438991 56.094203 
L 273.933869 56.094203 
L 273.933869 55.633226 
L 274.411137 55.633226 
L 274.47276 54.250297 
L 274.527986 54.250297 
L 274.527986 53.328344 
L 274.926986 53.328344 
L 274.926986 52.867368 
L 275.685817 52.867368 
L 275.685817 52.406391 
L 276.340382 52.406391 
L 276.340382 51.945415 
L 277.879097 51.945415 
L 277.943294 45.952721 
L 278.440796 45.952721 
L 278.440796 45.030768 
L 278.553809 45.030768 
L 278.553809 44.569792 
L 278.682459 44.569792 
L 278.682459 44.108815 
L 281.708781 44.108815 
L 281.749383 42.26491 
L 282.157825 42.26491 
L 282.248918 41.342957 
L 284.836508 41.342957 
L 284.874722 38.116122 
L 285.212224 38.116122 
L 285.212224 37.655145 
L 285.36968 37.655145 
L 285.36968 37.194169 
L 285.596797 37.194169 
L 285.596797 36.733192 
L 287.483542 36.733192 
L 287.515034 35.350263 
L 288.024042 35.350263 
L 288.024042 34.889286 
L 289.774577 34.889286 
L 289.804444 33.045381 
L 290.057242 33.045381 
L 290.106975 32.123428 
L 290.249637 32.123428 
L 290.249637 31.662451 
L 290.544565 31.662451 
L 290.544565 31.201475 
L 291.797834 31.201475 
L 291.797834 30.740498 
L 292.36763 30.740498 
L 292.36763 30.279522 
L 293.606383 30.279522 
L 293.606383 29.818546 
L 295.672807 29.818546 
L 295.672807 29.357569 
L 298.112882 29.357569 
L 298.127868 28.435616 
L 300.771951 28.435616 
L 300.771951 27.97464 
L 301.693767 27.97464 
L 301.693767 27.513663 
L 333.168 27.513663 
L 333.168 27.513663 
" style="fill:none;stroke:#000080;stroke-linecap:square;stroke-width:1.5;"/>
   </g>
   <g id="line2d_44">
    <defs>
     <path d="M 0 6 
C 1.591219 6 3.117479 5.367802 4.242641 4.242641 
C 5.367802 3.117479 6 1.591219 6 0 
C 6 -1.591219 5.367802 -3.117479 4.242641 -4.242641 
C 3.117479 -5.367802 1.591219 -6 0 -6 
C -1.591219 -6 -3.117479 -5.367802 -4.242641 -4.242641 
C -5.367802 -3.117479 -6 -1.591219 -6 0 
C -6 1.591219 -5.367802 3.117479 -4.242641 4.242641 
C -3.117479 5.367802 -1.591219 6 0 6 
z
" id="me196b4c7a3" style="stroke:#000080;stroke-width:1.5;"/>
    </defs>
    <g>
     <use style="fill-opacity:0;stroke:#000080;stroke-width:1.5;" x="58.891979" xlink:href="#me196b4c7a3" y="287.0434"/>
     <use style="fill-opacity:0;stroke:#000080;stroke-width:1.5;" x="160.89404" xlink:href="#me196b4c7a3" y="179.174913"/>
     <use style="fill-opacity:0;stroke:#000080;stroke-width:1.5;" x="220.49676" xlink:href="#me196b4c7a3" y="118.786999"/>
     <use style="fill-opacity:0;stroke:#000080;stroke-width:1.5;" x="282.248918" xlink:href="#me196b4c7a3" y="41.342957"/>
     <use style="fill-opacity:0;stroke:#000080;stroke-width:1.5;" x="301.693767" xlink:href="#me196b4c7a3" y="27.513663"/>
     <use style="fill-opacity:0;stroke:#000080;stroke-width:1.5;" x="333.168" xlink:href="#me196b4c7a3" y="27.513663"/>
    </g>
   </g>
   <g id="line2d_45">
    <path style="fill:none;stroke:#000080;stroke-linecap:square;stroke-width:1.5;"/>
    <g/>
   </g>
   <g id="line2d_46">
    <path clip-path="url(#p4b583770d1)" d="M 254.011433 106.801611 
" style="fill:none;stroke:#000080;stroke-linecap:square;stroke-width:1.5;"/>
    <defs>
     <path d="M -12 12 
L 12 -12 
M -12 -12 
L 12 12 
" id="m627604ca46" style="stroke:#000080;"/>
    </defs>
    <g clip-path="url(#p4b583770d1)">
     <use style="fill:#000080;stroke:#000080;" x="254.011433" xlink:href="#m627604ca46" y="106.801611"/>
    </g>
   </g>
   <g id="line2d_47">
    <defs>
     <path d="M 0 1.5 
C 0.397805 1.5 0.77937 1.341951 1.06066 1.06066 
C 1.341951 0.77937 1.5 0.397805 1.5 0 
C 1.5 -0.397805 1.341951 -0.77937 1.06066 -1.06066 
C 0.77937 -1.341951 0.397805 -1.5 0 -1.5 
C -0.397805 -1.5 -0.77937 -1.341951 -1.06066 -1.06066 
C -1.341951 -0.77937 -1.5 -0.397805 -1.5 0 
C -1.5 0.397805 -1.341951 0.77937 -1.06066 1.06066 
C -0.77937 1.341951 -0.397805 1.5 0 1.5 
z
" id="m2de9384b91" style="stroke:#ffa500;"/>
    </defs>
    <g>
     <use style="fill:#ffa500;stroke:#ffa500;" x="277.4773" xlink:href="#m2de9384b91" y="27.513663"/>
     <use style="fill:#ffa500;stroke:#ffa500;" x="277.4773" xlink:href="#m2de9384b91" y="27.513663"/>
    </g>
   </g>
   <g id="line2d_48">
    <path d="M -1 287.965353 
L 52.284468 287.965353 
L 52.284468 287.504377 
L 58.144529 287.504377 
L 58.144529 286.582424 
L 60.957095 286.582424 
L 60.957095 286.121448 
L 64.727642 286.121448 
L 64.727642 285.660471 
L 99.395756 285.660471 
L 99.395756 285.199495 
L 104.096307 285.199495 
L 104.096307 284.738518 
L 105.801534 284.738518 
L 105.801534 283.816565 
L 108.694987 283.816565 
L 108.694987 282.894612 
L 114.33668 282.894612 
L 114.33668 281.97266 
L 115.131672 281.97266 
L 115.131672 281.050707 
L 116.568217 281.050707 
L 116.606456 280.128754 
L 117.715785 280.128754 
L 117.715785 278.745825 
L 118.645127 278.745825 
L 118.645127 278.284848 
L 120.190606 278.284848 
L 120.190606 277.362895 
L 120.599148 277.362895 
L 120.599148 276.901919 
L 120.929036 276.901919 
L 120.929036 276.440942 
L 121.145496 276.440942 
L 121.145496 275.518989 
L 122.096437 275.518989 
L 122.096437 275.058013 
L 124.501167 275.058013 
L 124.501167 274.597037 
L 124.677216 274.597037 
L 124.677216 273.675084 
L 125.233378 273.675084 
L 125.256487 272.753131 
L 125.508647 272.753131 
L 125.508647 271.831178 
L 128.33509 271.831178 
L 128.399323 269.065319 
L 128.456928 269.065319 
L 128.456928 268.143366 
L 129.486197 268.143366 
L 129.486197 266.299461 
L 130.26857 266.299461 
L 130.26857 264.916531 
L 131.224827 264.916531 
L 131.224827 264.455555 
L 132.868023 264.455555 
L 132.868023 263.994578 
L 134.597264 263.994578 
L 134.597264 263.533602 
L 134.744157 263.533602 
L 134.744157 262.611649 
L 135.583215 262.611649 
L 135.583215 261.689696 
L 140.640623 261.689696 
L 140.640623 261.22872 
L 141.203728 261.22872 
L 141.203728 260.767743 
L 142.050045 260.767743 
L 142.050045 260.306767 
L 142.308871 260.306767 
L 142.308871 259.84579 
L 142.914602 259.84579 
L 142.914602 259.384814 
L 143.491719 259.384814 
L 143.555549 258.462861 
L 143.995836 258.462861 
L 143.995836 257.540908 
L 144.382172 257.540908 
L 144.382172 256.618955 
L 144.595885 256.618955 
L 144.595885 256.157979 
L 145.090928 256.157979 
L 145.090928 255.697002 
L 145.557942 255.697002 
L 145.65689 254.314073 
L 145.867022 254.314073 
L 145.867022 253.39212 
L 146.922312 253.39212 
L 146.965905 252.470167 
L 147.119773 252.470167 
L 147.119773 251.548214 
L 147.421317 251.548214 
L 147.446737 250.165285 
L 148.875888 250.165285 
L 148.875888 249.704309 
L 149.019435 249.704309 
L 149.019435 249.243332 
L 149.302981 249.243332 
L 149.302981 247.860403 
L 149.529498 247.860403 
L 149.529498 247.399426 
L 150.351517 247.399426 
L 150.351517 246.016497 
L 150.53467 246.016497 
L 150.53467 245.555521 
L 151.261936 245.555521 
L 151.261936 245.094544 
L 152.052224 245.094544 
L 152.052224 244.172591 
L 152.227825 244.172591 
L 152.227825 243.711615 
L 153.011113 243.711615 
L 153.011113 242.328686 
L 153.284581 242.328686 
L 153.329739 239.10185 
L 153.41671 239.10185 
L 153.41671 238.179898 
L 153.74559 238.179898 
L 153.761723 236.796968 
L 154.24024 236.796968 
L 154.24024 236.335992 
L 154.361002 236.335992 
L 154.361002 235.875015 
L 155.584889 235.875015 
L 155.584889 235.414039 
L 156.507637 235.414039 
L 156.507637 234.953062 
L 156.990607 234.953062 
L 156.990607 234.03111 
L 157.377424 234.03111 
L 157.481641 233.109157 
L 157.706854 233.109157 
L 157.706854 232.187204 
L 157.833408 232.187204 
L 157.833408 229.882322 
L 158.166778 229.882322 
L 158.204177 228.038416 
L 158.299011 228.038416 
L 158.299011 227.577439 
L 158.537164 227.577439 
L 158.537164 227.116463 
L 159.065279 227.116463 
L 159.113666 224.811581 
L 159.303739 224.811581 
L 159.303739 223.889628 
L 159.867831 223.889628 
L 159.867831 222.967675 
L 160.194584 222.967675 
L 160.194584 222.045722 
L 161.291178 222.045722 
L 161.366691 218.818887 
L 161.721839 218.818887 
L 161.721839 217.435958 
L 161.940934 217.435958 
L 161.940934 216.974981 
L 162.17615 216.974981 
L 162.257722 214.670099 
L 163.031465 214.670099 
L 163.063067 213.28717 
L 163.42196 213.28717 
L 163.42196 212.365217 
L 163.699663 212.365217 
L 163.699663 210.521311 
L 164.545229 210.521311 
L 164.56166 209.138382 
L 164.739057 209.138382 
L 164.746796 207.755452 
L 165.27403 207.755452 
L 165.27403 206.833499 
L 165.848821 206.833499 
L 165.871302 204.989594 
L 166.166605 204.989594 
L 166.166605 204.528617 
L 166.592966 204.528617 
L 166.592966 201.762759 
L 166.774075 201.762759 
L 166.774075 200.379829 
L 167.107079 200.379829 
L 167.116518 198.074947 
L 167.489909 198.074947 
L 167.489909 197.613971 
L 167.646176 197.613971 
L 167.685348 195.770065 
L 168.056925 195.770065 
L 168.056925 194.387136 
L 168.246057 194.387136 
L 168.246057 193.465183 
L 168.584184 193.465183 
L 168.584184 192.54323 
L 168.782323 192.54323 
L 168.837297 191.1603 
L 168.932778 191.1603 
L 168.932778 190.238348 
L 169.416542 190.238348 
L 169.416542 189.777371 
L 169.584941 189.777371 
L 169.584941 189.316395 
L 169.729719 189.316395 
L 169.729719 187.472489 
L 169.939192 187.472489 
L 169.939192 186.550536 
L 170.168733 186.550536 
L 170.168733 185.628583 
L 170.743721 185.628583 
L 170.757906 183.323701 
L 171.12375 183.323701 
L 171.12375 181.940772 
L 171.673321 181.940772 
L 171.673321 181.479795 
L 172.248422 181.479795 
L 172.248422 181.018819 
L 172.521779 181.018819 
L 172.521779 180.096866 
L 172.950976 180.096866 
L 172.950976 179.635889 
L 174.146467 179.635889 
L 174.146467 179.174913 
L 174.379083 179.174913 
L 174.379083 177.331007 
L 174.675159 177.331007 
L 174.675159 175.487101 
L 175.176269 175.487101 
L 175.176269 174.104172 
L 175.828425 174.104172 
L 175.915102 173.182219 
L 176.234119 173.182219 
L 176.234119 172.721243 
L 176.703162 172.721243 
L 176.703162 171.79929 
L 176.901145 171.79929 
L 176.901145 171.338313 
L 177.196533 171.338313 
L 177.196533 170.416361 
L 177.418584 170.416361 
L 177.500567 168.572455 
L 177.599385 168.572455 
L 177.690353 166.267573 
L 177.918744 166.267573 
L 177.989073 163.501714 
L 178.03699 163.501714 
L 178.03699 163.040737 
L 178.28797 163.040737 
L 178.339975 161.196832 
L 178.584526 161.196832 
L 178.584526 160.274879 
L 178.928344 160.274879 
L 178.928344 159.813902 
L 179.112809 159.813902 
L 179.112809 158.891949 
L 179.376435 158.891949 
L 179.376435 157.50902 
L 179.592751 157.50902 
L 179.592751 156.587067 
L 180.390097 156.587067 
L 180.390097 156.126091 
L 180.8267 156.126091 
L 180.906361 154.282185 
L 181.380252 154.282185 
L 181.380252 153.821209 
L 182.399776 153.821209 
L 182.399776 153.360232 
L 182.899972 153.360232 
L 182.961217 151.977303 
L 183.422345 151.977303 
L 183.422345 151.516326 
L 184.260409 151.516326 
L 184.260409 151.05535 
L 184.622781 151.05535 
L 184.622781 150.594374 
L 185.695952 150.594374 
L 185.766248 148.750468 
L 186.290684 148.750468 
L 186.290684 148.289491 
L 186.475045 148.289491 
L 186.475045 145.062656 
L 186.76524 145.062656 
L 186.76524 144.60168 
L 186.899888 144.60168 
L 186.899888 144.140703 
L 188.630529 144.140703 
L 188.630529 143.679727 
L 189.546755 143.679727 
L 189.546755 143.21875 
L 190.498777 143.21875 
L 190.498777 141.835821 
L 191.80034 141.835821 
L 191.80034 140.913868 
L 192.569786 140.913868 
L 192.569786 139.991915 
L 193.325636 139.991915 
L 193.325636 139.069962 
L 193.823372 139.069962 
L 193.823372 138.608986 
L 194.442785 138.608986 
L 194.442785 138.14801 
L 195.769138 138.14801 
L 195.769138 136.76508 
L 196.505234 136.76508 
L 196.505234 135.843127 
L 196.901219 135.843127 
L 196.901219 134.921174 
L 197.949538 134.921174 
L 197.949538 134.460198 
L 198.437204 134.460198 
L 198.437204 133.077269 
L 199.387131 133.077269 
L 199.387131 132.155316 
L 201.710172 132.155316 
L 201.710172 131.694339 
L 207.577999 131.694339 
L 207.577999 131.233363 
L 207.833808 131.233363 
L 207.833808 130.772386 
L 209.122248 130.772386 
L 209.122248 129.850434 
L 209.467356 129.850434 
L 209.512157 122.935787 
L 209.830122 122.935787 
L 209.830122 122.013834 
L 211.777128 122.013834 
L 211.777128 121.552858 
L 214.291355 121.552858 
L 214.291355 120.169928 
L 215.356653 120.169928 
L 215.465771 118.786999 
L 215.569295 118.786999 
L 215.569295 117.865046 
L 215.739756 117.865046 
L 215.739756 117.40407 
L 215.875899 117.40407 
L 215.931403 116.482117 
L 216.032637 116.482117 
L 216.104802 115.560164 
L 216.205372 115.560164 
L 216.30185 114.638211 
L 216.377501 114.638211 
L 216.39016 113.716258 
L 216.582883 113.716258 
L 216.582883 112.794305 
L 216.712383 112.794305 
L 216.712383 112.333329 
L 216.851258 112.333329 
L 216.851258 111.872352 
L 216.98339 111.872352 
L 216.98339 111.411376 
L 217.491815 111.411376 
L 217.491815 110.950399 
L 218.517984 110.950399 
L 218.517984 110.489423 
L 218.683479 110.489423 
L 218.683479 110.028447 
L 219.11124 110.028447 
L 219.11124 109.56747 
L 219.436421 109.56747 
L 219.436421 108.645517 
L 219.625174 108.645517 
L 219.625174 108.184541 
L 223.365097 108.184541 
L 223.365097 107.262588 
L 223.898756 107.262588 
L 223.898756 106.340635 
L 224.045688 106.340635 
L 224.045688 101.269894 
L 224.201967 101.269894 
L 224.201967 99.886965 
L 225.072975 99.886965 
L 225.072975 99.425988 
L 225.88233 99.425988 
L 225.88233 98.965012 
L 226.278825 98.965012 
L 226.278825 98.504036 
L 226.972719 98.504036 
L 227.015201 97.121106 
L 227.104149 97.121106 
L 227.205602 94.816224 
L 227.258397 94.816224 
L 227.355786 90.20646 
L 227.370126 90.20646 
L 227.457884 86.979624 
L 227.526791 86.979624 
L 227.526791 86.518648 
L 229.032295 86.518648 
L 229.032295 86.057672 
L 231.388756 86.057672 
L 231.388756 85.135719 
L 231.661001 85.135719 
L 231.661001 84.674742 
L 231.818631 84.674742 
L 231.918222 80.064978 
L 232.086512 80.064978 
L 232.086512 79.604001 
L 233.807022 79.604001 
L 233.8622 78.221072 
L 233.947412 78.221072 
L 234.018403 74.994237 
L 234.06641 74.994237 
L 234.113352 73.611308 
L 234.187394 73.611308 
L 234.187394 73.150331 
L 236.837453 73.150331 
L 236.837453 72.689355 
L 237.083217 72.689355 
L 237.083217 71.767402 
L 237.224688 71.767402 
L 237.224688 71.306425 
L 238.646309 71.306425 
L 238.737827 68.07959 
L 238.7719 68.07959 
L 238.827957 65.774708 
L 239.658467 65.774708 
L 239.658467 65.313732 
L 241.124801 65.313732 
L 241.215869 63.008849 
L 241.915291 63.008849 
L 241.915291 62.086897 
L 242.398991 62.086897 
L 242.448171 60.703967 
L 242.517383 60.703967 
L 242.552555 59.321038 
L 244.296332 59.321038 
L 244.296332 58.399085 
L 244.50054 58.399085 
L 244.50054 57.477132 
L 245.080327 57.477132 
L 245.080327 57.016156 
L 245.489857 57.016156 
L 245.576618 53.789321 
L 245.636053 53.789321 
L 245.636053 52.867368 
L 247.219143 52.867368 
L 247.297733 51.484438 
L 247.752202 51.484438 
L 247.752202 51.023462 
L 248.133335 51.023462 
L 248.183085 49.640533 
L 249.632076 49.640533 
L 249.667472 48.257603 
L 250.385141 48.257603 
L 250.445042 46.413698 
L 250.510225 46.413698 
L 250.510225 45.952721 
L 250.890574 45.952721 
L 250.890574 45.491745 
L 252.410419 45.491745 
L 252.4984 43.186862 
L 253.534347 43.186862 
L 253.534347 42.725886 
L 253.922907 42.725886 
L 253.922907 42.26491 
L 254.224331 42.26491 
L 254.280264 41.342957 
L 255.2571 41.342957 
L 255.2571 40.88198 
L 255.812457 40.88198 
L 255.839716 39.960027 
L 256.786135 39.960027 
L 256.786135 38.577098 
L 257.338999 38.577098 
L 257.351133 37.655145 
L 258.15633 37.655145 
L 258.190195 36.733192 
L 258.686592 36.733192 
L 258.729269 35.811239 
L 259.488175 35.811239 
L 259.488175 35.350263 
L 261.16194 35.350263 
L 261.16194 34.889286 
L 262.245838 34.889286 
L 262.245838 34.42831 
L 262.81094 34.42831 
L 262.81094 33.967334 
L 263.239226 33.967334 
L 263.29262 32.584404 
L 264.245496 32.584404 
L 264.266461 31.201475 
L 265.134931 31.201475 
L 265.134931 30.740498 
L 266.034933 30.740498 
L 266.034933 30.279522 
L 267.370957 30.279522 
L 267.370957 29.818546 
L 267.665036 29.818546 
L 267.665036 29.357569 
L 268.431399 29.357569 
L 268.431399 28.896593 
L 272.970424 28.896593 
L 272.970424 28.435616 
L 274.398555 28.435616 
L 274.398555 27.97464 
L 277.4773 27.97464 
L 277.4773 27.513663 
L 333.168 27.513663 
L 333.168 27.513663 
" style="fill:none;stroke:#ffa500;stroke-linecap:square;stroke-width:1.5;"/>
   </g>
   <g id="line2d_49">
    <defs>
     <path d="M 0 -6 
L -1.347084 -1.854102 
L -5.706339 -1.854102 
L -2.179628 0.708204 
L -3.526712 4.854102 
L -0 2.291796 
L 3.526712 4.854102 
L 2.179628 0.708204 
L 5.706339 -1.854102 
L 1.347084 -1.854102 
z
" id="m8e289d324a" style="stroke:#ffa500;stroke-linejoin:bevel;stroke-width:1.5;"/>
    </defs>
    <g>
     <use style="fill-opacity:0;stroke:#ffa500;stroke-linejoin:bevel;stroke-width:1.5;" x="135.583215" xlink:href="#m8e289d324a" y="261.689696"/>
     <use style="fill-opacity:0;stroke:#ffa500;stroke-linejoin:bevel;stroke-width:1.5;" x="188.630529" xlink:href="#m8e289d324a" y="143.679727"/>
     <use style="fill-opacity:0;stroke:#ffa500;stroke-linejoin:bevel;stroke-width:1.5;" x="268.431399" xlink:href="#m8e289d324a" y="28.896593"/>
     <use style="fill-opacity:0;stroke:#ffa500;stroke-linejoin:bevel;stroke-width:1.5;" x="277.4773" xlink:href="#m8e289d324a" y="27.513663"/>
     <use style="fill-opacity:0;stroke:#ffa500;stroke-linejoin:bevel;stroke-width:1.5;" x="333.168" xlink:href="#m8e289d324a" y="27.513663"/>
    </g>
   </g>
   <g id="line2d_50">
    <path style="fill:none;stroke:#ffa500;stroke-linecap:square;stroke-width:1.5;"/>
    <g/>
   </g>
   <g id="line2d_51">
    <path clip-path="url(#p4b583770d1)" d="M 214.437482 120.169928 
" style="fill:none;stroke:#ffa500;stroke-linecap:square;stroke-width:1.5;"/>
    <defs>
     <path d="M -12 12 
L 12 -12 
M -12 -12 
L 12 12 
" id="m9a502ae313" style="stroke:#ffa500;"/>
    </defs>
    <g clip-path="url(#p4b583770d1)">
     <use style="fill:#ffa500;stroke:#ffa500;" x="214.437482" xlink:href="#m9a502ae313" y="120.169928"/>
    </g>
   </g>
   <g id="line2d_52">
    <defs>
     <path d="M 0 1.5 
C 0.397805 1.5 0.77937 1.341951 1.06066 1.06066 
C 1.341951 0.77937 1.5 0.397805 1.5 0 
C 1.5 -0.397805 1.341951 -0.77937 1.06066 -1.06066 
C 0.77937 -1.341951 0.397805 -1.5 0 -1.5 
C -0.397805 -1.5 -0.77937 -1.341951 -1.06066 -1.06066 
C -1.341951 -0.77937 -1.5 -0.397805 -1.5 0 
C -1.5 0.397805 -1.341951 0.77937 -1.06066 1.06066 
C -0.77937 1.341951 -0.397805 1.5 0 1.5 
z
" id="m42be14a51a" style="stroke:#00bfbf;"/>
    </defs>
    <g>
     <use style="fill:#00bfbf;stroke:#00bfbf;" x="227.125477" xlink:href="#m42be14a51a" y="142.757774"/>
     <use style="fill:#00bfbf;stroke:#00bfbf;" x="227.125477" xlink:href="#m42be14a51a" y="142.757774"/>
    </g>
   </g>
   <g id="line2d_53">
    <path d="M -1 286.121448 
L 33.929749 286.121448 
L 33.929749 285.199495 
L 39.260888 285.199495 
L 39.260888 284.277542 
L 51.738751 284.277542 
L 51.738751 283.355589 
L 97.684575 283.355589 
L 97.684575 282.894612 
L 104.919872 282.894612 
L 104.919872 282.433636 
L 112.659154 282.433636 
L 112.659154 281.511683 
L 113.969545 281.511683 
L 113.969545 280.58973 
L 115.46144 280.58973 
L 115.46144 280.128754 
L 116.050058 280.128754 
L 116.050058 279.667777 
L 116.568217 279.667777 
L 116.568217 278.745825 
L 116.984244 278.745825 
L 116.984244 278.284848 
L 118.371562 278.284848 
L 118.371562 277.823872 
L 119.069559 277.823872 
L 119.069559 277.362895 
L 120.365424 277.362895 
L 120.365424 276.440942 
L 120.729861 276.440942 
L 120.819776 275.058013 
L 121.731802 275.058013 
L 121.731802 273.675084 
L 122.444434 273.675084 
L 122.444434 273.214107 
L 122.723199 273.214107 
L 122.723199 272.292154 
L 123.592814 272.292154 
L 123.592814 271.370201 
L 123.895409 271.370201 
L 123.895409 270.448249 
L 124.914413 270.448249 
L 124.914413 269.526296 
L 127.375691 269.526296 
L 127.375691 268.604343 
L 128.088793 268.604343 
L 128.088793 268.143366 
L 129.170355 268.143366 
L 129.170355 267.221413 
L 129.641969 267.221413 
L 129.731199 265.377508 
L 130.531084 265.377508 
L 130.531084 263.994578 
L 130.795227 263.994578 
L 130.88423 262.150673 
L 131.115693 262.150673 
L 131.115693 261.689696 
L 131.628019 261.689696 
L 131.628019 261.22872 
L 131.870711 261.22872 
L 131.870711 259.84579 
L 132.006384 259.84579 
L 132.042729 256.157979 
L 134.09835 256.157979 
L 134.09835 255.697002 
L 134.340544 255.697002 
L 134.340544 253.39212 
L 134.668641 253.39212 
L 134.668641 252.931144 
L 135.32806 252.931144 
L 135.40927 251.548214 
L 135.562096 251.548214 
L 135.562096 251.087238 
L 135.759597 251.087238 
L 135.759597 250.626262 
L 136.221285 250.626262 
L 136.221285 249.243332 
L 136.805091 249.243332 
L 136.805091 248.782356 
L 136.949946 248.782356 
L 136.984997 247.399426 
L 138.46406 247.399426 
L 138.46406 246.93845 
L 139.019033 246.93845 
L 139.019033 246.016497 
L 139.422124 246.016497 
L 139.422124 245.094544 
L 140.032396 245.094544 
L 140.032396 244.633568 
L 140.29112 244.633568 
L 140.29112 243.711615 
L 140.511183 243.711615 
L 140.546007 241.406733 
L 141.15801 241.406733 
L 141.15801 240.48478 
L 141.778432 240.48478 
L 141.778432 239.562827 
L 142.044249 239.562827 
L 142.044249 238.640874 
L 142.377239 238.640874 
L 142.385765 237.718921 
L 142.887025 237.718921 
L 142.887025 235.875015 
L 143.560857 235.875015 
L 143.560857 234.953062 
L 144.091308 234.953062 
L 144.091308 234.492086 
L 144.245007 234.492086 
L 144.293394 233.570133 
L 144.420079 233.570133 
L 144.420079 233.109157 
L 144.705478 233.109157 
L 144.705478 232.64818 
L 145.071495 232.64818 
L 145.071495 231.726227 
L 145.422738 231.726227 
L 145.422738 230.343298 
L 146.079202 230.343298 
L 146.079202 229.882322 
L 146.347566 229.882322 
L 146.347566 227.577439 
L 147.074406 227.577439 
L 147.091703 226.19451 
L 147.302187 226.19451 
L 147.302187 224.811581 
L 147.757207 224.811581 
L 147.862907 222.045722 
L 147.869104 222.045722 
L 147.869104 221.123769 
L 148.457883 221.123769 
L 148.457883 220.662793 
L 149.475029 220.662793 
L 149.553859 217.896934 
L 150.108469 217.896934 
L 150.108469 216.514005 
L 150.990221 216.514005 
L 150.990221 214.670099 
L 151.40545 214.670099 
L 151.40545 214.209123 
L 151.587749 214.209123 
L 151.587749 213.748146 
L 152.247048 213.748146 
L 152.259852 212.365217 
L 153.243837 212.365217 
L 153.243837 210.982287 
L 153.380775 210.982287 
L 153.380775 210.060335 
L 154.250217 210.060335 
L 154.250217 208.677405 
L 154.723825 208.677405 
L 154.723825 208.216429 
L 155.465817 208.216429 
L 155.51884 207.294476 
L 155.598069 207.294476 
L 155.598069 206.833499 
L 155.912675 206.833499 
L 155.912675 205.911547 
L 156.523874 205.911547 
L 156.523874 204.989594 
L 156.798799 204.989594 
L 156.798799 204.067641 
L 156.941941 204.067641 
L 156.941941 202.684712 
L 157.206712 202.684712 
L 157.206712 202.223735 
L 157.981989 202.223735 
L 157.981989 201.301782 
L 158.312517 201.301782 
L 158.312517 200.840806 
L 159.590188 200.840806 
L 159.590188 200.379829 
L 160.18248 200.379829 
L 160.236881 198.535924 
L 160.504351 198.535924 
L 160.504351 197.613971 
L 161.22768 197.613971 
L 161.22768 197.152994 
L 161.794569 197.152994 
L 161.893502 194.848112 
L 162.362033 194.848112 
L 162.362033 193.926159 
L 162.763513 193.926159 
L 162.763513 191.621277 
L 163.501168 191.621277 
L 163.516966 190.238348 
L 163.659323 190.238348 
L 163.659323 189.777371 
L 163.838889 189.777371 
L 163.838889 188.394442 
L 165.193556 188.394442 
L 165.231208 187.011512 
L 165.436086 187.011512 
L 165.436086 185.628583 
L 165.888686 185.628583 
L 165.888686 183.784677 
L 166.694125 183.784677 
L 166.699651 182.862724 
L 167.320888 182.862724 
L 167.320888 182.401748 
L 167.684696 182.401748 
L 167.684696 181.940772 
L 168.177753 181.940772 
L 168.177753 181.479795 
L 168.586041 181.479795 
L 168.586041 181.018819 
L 169.772512 181.018819 
L 169.83535 179.635889 
L 170.61057 179.635889 
L 170.689051 178.25296 
L 170.975223 178.25296 
L 171.01449 176.409054 
L 171.136559 176.409054 
L 171.136559 175.487101 
L 173.141931 175.487101 
L 173.141931 174.565149 
L 173.526879 174.565149 
L 173.614858 170.877337 
L 174.208152 170.877337 
L 174.208152 169.955384 
L 177.434864 169.955384 
L 177.531854 169.033431 
L 177.556842 169.033431 
L 177.556842 168.572455 
L 177.969726 168.572455 
L 177.969726 168.111478 
L 178.103993 168.111478 
L 178.103993 167.650502 
L 178.391473 167.650502 
L 178.391473 167.189525 
L 178.511039 167.189525 
L 178.511039 166.728549 
L 178.653222 166.728549 
L 178.683512 165.806596 
L 178.964584 165.806596 
L 178.964584 165.34562 
L 179.095694 165.34562 
L 179.095694 164.884643 
L 179.496582 164.884643 
L 179.496582 164.423667 
L 179.675079 164.423667 
L 179.707512 163.501714 
L 179.939877 163.501714 
L 180.010698 162.579761 
L 180.83793 162.579761 
L 180.83793 162.118785 
L 181.482544 162.118785 
L 181.482544 161.657808 
L 182.067457 161.657808 
L 182.067457 161.196832 
L 183.474475 161.196832 
L 183.474475 160.274879 
L 183.753018 160.274879 
L 183.820743 159.352926 
L 184.415346 159.352926 
L 184.415346 158.430973 
L 185.010546 158.430973 
L 185.010546 157.969997 
L 186.118164 157.969997 
L 186.118164 157.50902 
L 186.449016 157.50902 
L 186.449016 157.048044 
L 190.49082 157.048044 
L 190.49082 156.587067 
L 190.72181 156.587067 
L 190.72181 156.126091 
L 191.664319 156.126091 
L 191.664319 155.665114 
L 191.830296 155.665114 
L 191.830296 154.743161 
L 192.205818 154.743161 
L 192.205818 153.360232 
L 192.586489 153.360232 
L 192.586489 152.899256 
L 193.525912 152.899256 
L 193.525912 151.977303 
L 197.115095 151.977303 
L 197.115095 150.594374 
L 197.546966 150.594374 
L 197.546966 149.211444 
L 197.826784 149.211444 
L 197.826784 148.750468 
L 201.615957 148.750468 
L 201.615957 148.289491 
L 205.086616 148.289491 
L 205.086616 147.828515 
L 205.438786 147.828515 
L 205.438786 147.367538 
L 207.510635 147.367538 
L 207.510635 146.906562 
L 210.039025 146.906562 
L 210.039025 145.984609 
L 212.009609 145.984609 
L 212.009609 145.523633 
L 213.823165 145.523633 
L 213.823165 145.062656 
L 218.475647 145.062656 
L 218.475647 144.60168 
L 218.601403 144.60168 
L 218.601403 144.140703 
L 223.34881 144.140703 
L 223.34881 143.679727 
L 224.342768 143.679727 
L 224.342768 143.21875 
L 227.125477 143.21875 
L 227.125477 142.757774 
L 333.168 142.757774 
L 333.168 142.757774 
" style="fill:none;stroke:#00bfbf;stroke-linecap:square;stroke-width:1.5;"/>
   </g>
   <g id="line2d_54">
    <defs>
     <path d="M 0 -6 
L -5.706339 -1.854102 
L -3.526712 4.854102 
L 3.526712 4.854102 
L 5.706339 -1.854102 
z
" id="m3238e6412d" style="stroke:#00bfbf;stroke-linejoin:miter;stroke-width:1.5;"/>
    </defs>
    <g>
     <use style="fill-opacity:0;stroke:#00bfbf;stroke-linejoin:miter;stroke-width:1.5;" x="152.259852" xlink:href="#m3238e6412d" y="212.365217"/>
     <use style="fill-opacity:0;stroke:#00bfbf;stroke-linejoin:miter;stroke-width:1.5;" x="223.34881" xlink:href="#m3238e6412d" y="144.140703"/>
     <use style="fill-opacity:0;stroke:#00bfbf;stroke-linejoin:miter;stroke-width:1.5;" x="227.125477" xlink:href="#m3238e6412d" y="142.757774"/>
     <use style="fill-opacity:0;stroke:#00bfbf;stroke-linejoin:miter;stroke-width:1.5;" x="227.125477" xlink:href="#m3238e6412d" y="142.757774"/>
     <use style="fill-opacity:0;stroke:#00bfbf;stroke-linejoin:miter;stroke-width:1.5;" x="333.168" xlink:href="#m3238e6412d" y="142.757774"/>
    </g>
   </g>
   <g id="line2d_55">
    <path style="fill:none;stroke:#00bfbf;stroke-linecap:square;stroke-width:1.5;"/>
    <g/>
   </g>
   <g id="line2d_56">
    <path clip-path="url(#p4b583770d1)" d="M 174.855287 169.955384 
" style="fill:none;stroke:#00bfbf;stroke-linecap:square;stroke-width:1.5;"/>
    <defs>
     <path d="M -12 12 
L 12 -12 
M -12 -12 
L 12 12 
" id="mcc2ca1a68c" style="stroke:#00bfbf;"/>
    </defs>
    <g clip-path="url(#p4b583770d1)">
     <use style="fill:#00bfbf;stroke:#00bfbf;" x="174.855287" xlink:href="#mcc2ca1a68c" y="169.955384"/>
    </g>
   </g>
   <g id="line2d_57">
    <path d="M 333.168 142.757774 
L 363.64328 203.975446 
" style="fill:none;stroke:#00bfbf;stroke-linecap:square;stroke-width:1.5;"/>
    <g>
     <use style="fill-opacity:0;stroke:#00bfbf;stroke-linejoin:miter;stroke-width:1.5;" x="333.168" xlink:href="#m3238e6412d" y="142.757774"/>
     <use style="fill-opacity:0;stroke:#00bfbf;stroke-linejoin:miter;stroke-width:1.5;" x="363.64328" xlink:href="#m3238e6412d" y="203.975446"/>
    </g>
   </g>
   <g id="line2d_58">
    <path d="M 333.168 27.513663 
L 363.64328 118.418218 
" style="fill:none;stroke:#000080;stroke-linecap:square;stroke-width:1.5;"/>
    <g>
     <use style="fill-opacity:0;stroke:#000080;stroke-width:1.5;" x="333.168" xlink:href="#me196b4c7a3" y="27.513663"/>
     <use style="fill-opacity:0;stroke:#000080;stroke-width:1.5;" x="363.64328" xlink:href="#me196b4c7a3" y="118.418218"/>
    </g>
   </g>
   <g id="line2d_59">
    <path d="M 333.168 27.513663 
L 363.64328 32.86099 
" style="fill:none;stroke:#ffa500;stroke-linecap:square;stroke-width:1.5;"/>
    <g>
     <use style="fill-opacity:0;stroke:#ffa500;stroke-linejoin:bevel;stroke-width:1.5;" x="333.168" xlink:href="#m8e289d324a" y="27.513663"/>
     <use style="fill-opacity:0;stroke:#ffa500;stroke-linejoin:bevel;stroke-width:1.5;" x="363.64328" xlink:href="#m8e289d324a" y="32.86099"/>
    </g>
   </g>
   <g id="line2d_60">
    <path d="M 333.168 294.88 
L 333.168 27.513663 
" style="fill:none;stroke:#000000;stroke-linecap:square;stroke-width:1.5;"/>
   </g>
   <g id="patch_3">
    <path d="M 56.12 294.88 
L 56.12 24.84 
" style="fill:none;stroke:#000000;stroke-linecap:square;stroke-linejoin:miter;stroke-width:0.8;"/>
   </g>
   <g id="patch_4">
    <path d="M 333.168 294.88 
L 333.168 24.84 
" style="fill:none;stroke:#000000;stroke-linecap:square;stroke-linejoin:miter;stroke-width:0.8;"/>
   </g>
   <g id="patch_5">
    <path d="M 56.12 294.88 
L 333.168 294.88 
" style="fill:none;stroke:#000000;stroke-linecap:square;stroke-linejoin:miter;stroke-width:0.8;"/>
   </g>
   <g id="patch_6">
    <path d="M 56.12 24.84 
L 333.168 24.84 
" style="fill:none;stroke:#000000;stroke-linecap:square;stroke-linejoin:miter;stroke-width:0.8;"/>
   </g>
   <g id="text_13">
    <!-- best 2016 -->
    <defs>
     <path d="M 48.6875 27.296875 
Q 48.6875 37.203125 44.609375 42.84375 
Q 40.53125 48.484375 33.40625 48.484375 
Q 26.265625 48.484375 22.1875 42.84375 
Q 18.109375 37.203125 18.109375 27.296875 
Q 18.109375 17.390625 22.1875 11.75 
Q 26.265625 6.109375 33.40625 6.109375 
Q 40.53125 6.109375 44.609375 11.75 
Q 48.6875 17.390625 48.6875 27.296875 
z
M 18.109375 46.390625 
Q 20.953125 51.265625 25.265625 53.625 
Q 29.59375 56 35.59375 56 
Q 45.5625 56 51.78125 48.09375 
Q 58.015625 40.1875 58.015625 27.296875 
Q 58.015625 14.40625 51.78125 6.484375 
Q 45.5625 -1.421875 35.59375 -1.421875 
Q 29.59375 -1.421875 25.265625 0.953125 
Q 20.953125 3.328125 18.109375 8.203125 
L 18.109375 0 
L 9.078125 0 
L 9.078125 75.984375 
L 18.109375 75.984375 
z
" id="DejaVuSans-62"/>
    </defs>
    <g transform="translate(369.18424 294.223611)scale(0.17 -0.17)">
     <use xlink:href="#DejaVuSans-62"/>
     <use x="63.476562" xlink:href="#DejaVuSans-65"/>
     <use x="125" xlink:href="#DejaVuSans-73"/>
     <use x="177.099609" xlink:href="#DejaVuSans-74"/>
     <use x="216.308594" xlink:href="#DejaVuSans-20"/>
     <use x="248.095703" xlink:href="#DejaVuSans-32"/>
     <use x="311.71875" xlink:href="#DejaVuSans-30"/>
     <use x="375.341797" xlink:href="#DejaVuSans-31"/>
     <use x="438.964844" xlink:href="#DejaVuSans-36"/>
    </g>
   </g>
   <g id="text_14">
    <!-- SPEA2 -->
    <defs>
     <path d="M 53.515625 70.515625 
L 53.515625 60.890625 
Q 47.90625 63.578125 42.921875 64.890625 
Q 37.9375 66.21875 33.296875 66.21875 
Q 25.25 66.21875 20.875 63.09375 
Q 16.5 59.96875 16.5 54.203125 
Q 16.5 49.359375 19.40625 46.890625 
Q 22.3125 44.4375 30.421875 42.921875 
L 36.375 41.703125 
Q 47.40625 39.59375 52.65625 34.296875 
Q 57.90625 29 57.90625 20.125 
Q 57.90625 9.515625 50.796875 4.046875 
Q 43.703125 -1.421875 29.984375 -1.421875 
Q 24.8125 -1.421875 18.96875 -0.25 
Q 13.140625 0.921875 6.890625 3.21875 
L 6.890625 13.375 
Q 12.890625 10.015625 18.65625 8.296875 
Q 24.421875 6.59375 29.984375 6.59375 
Q 38.421875 6.59375 43.015625 9.90625 
Q 47.609375 13.234375 47.609375 19.390625 
Q 47.609375 24.75 44.3125 27.78125 
Q 41.015625 30.8125 33.5 32.328125 
L 27.484375 33.5 
Q 16.453125 35.6875 11.515625 40.375 
Q 6.59375 45.0625 6.59375 53.421875 
Q 6.59375 63.09375 13.40625 68.65625 
Q 20.21875 74.21875 32.171875 74.21875 
Q 37.3125 74.21875 42.625 73.28125 
Q 47.953125 72.359375 53.515625 70.515625 
z
" id="DejaVuSans-53"/>
     <path d="M 19.671875 64.796875 
L 19.671875 37.40625 
L 32.078125 37.40625 
Q 38.96875 37.40625 42.71875 40.96875 
Q 46.484375 44.53125 46.484375 51.125 
Q 46.484375 57.671875 42.71875 61.234375 
Q 38.96875 64.796875 32.078125 64.796875 
z
M 9.8125 72.90625 
L 32.078125 72.90625 
Q 44.34375 72.90625 50.609375 67.359375 
Q 56.890625 61.8125 56.890625 51.125 
Q 56.890625 40.328125 50.609375 34.8125 
Q 44.34375 29.296875 32.078125 29.296875 
L 19.671875 29.296875 
L 19.671875 0 
L 9.8125 0 
z
" id="DejaVuSans-50"/>
     <path d="M 9.8125 72.90625 
L 55.90625 72.90625 
L 55.90625 64.59375 
L 19.671875 64.59375 
L 19.671875 43.015625 
L 54.390625 43.015625 
L 54.390625 34.71875 
L 19.671875 34.71875 
L 19.671875 8.296875 
L 56.78125 8.296875 
L 56.78125 0 
L 9.8125 0 
z
" id="DejaVuSans-45"/>
     <path d="M 34.1875 63.1875 
L 20.796875 26.90625 
L 47.609375 26.90625 
z
M 28.609375 72.90625 
L 39.796875 72.90625 
L 67.578125 0 
L 57.328125 0 
L 50.6875 18.703125 
L 17.828125 18.703125 
L 11.1875 0 
L 0.78125 0 
z
" id="DejaVuSans-41"/>
    </defs>
    <g transform="translate(369.18424 208.666383)scale(0.17 -0.17)">
     <use xlink:href="#DejaVuSans-53"/>
     <use x="63.476562" xlink:href="#DejaVuSans-50"/>
     <use x="123.779297" xlink:href="#DejaVuSans-45"/>
     <use x="186.962891" xlink:href="#DejaVuSans-41"/>
     <use x="255.371094" xlink:href="#DejaVuSans-32"/>
    </g>
   </g>
   <g id="text_15">
    <!-- GDE3 -->
    <defs>
     <path d="M 59.515625 10.40625 
L 59.515625 29.984375 
L 43.40625 29.984375 
L 43.40625 38.09375 
L 69.28125 38.09375 
L 69.28125 6.78125 
Q 63.578125 2.734375 56.6875 0.65625 
Q 49.8125 -1.421875 42 -1.421875 
Q 24.90625 -1.421875 15.25 8.5625 
Q 5.609375 18.5625 5.609375 36.375 
Q 5.609375 54.25 15.25 64.234375 
Q 24.90625 74.21875 42 74.21875 
Q 49.125 74.21875 55.546875 72.453125 
Q 61.96875 70.703125 67.390625 67.28125 
L 67.390625 56.78125 
Q 61.921875 61.421875 55.765625 63.765625 
Q 49.609375 66.109375 42.828125 66.109375 
Q 29.4375 66.109375 22.71875 58.640625 
Q 16.015625 51.171875 16.015625 36.375 
Q 16.015625 21.625 22.71875 14.15625 
Q 29.4375 6.6875 42.828125 6.6875 
Q 48.046875 6.6875 52.140625 7.59375 
Q 56.25 8.5 59.515625 10.40625 
z
" id="DejaVuSans-47"/>
     <path d="M 19.671875 64.796875 
L 19.671875 8.109375 
L 31.59375 8.109375 
Q 46.6875 8.109375 53.6875 14.9375 
Q 60.6875 21.78125 60.6875 36.53125 
Q 60.6875 51.171875 53.6875 57.984375 
Q 46.6875 64.796875 31.59375 64.796875 
z
M 9.8125 72.90625 
L 30.078125 72.90625 
Q 51.265625 72.90625 61.171875 64.09375 
Q 71.09375 55.28125 71.09375 36.53125 
Q 71.09375 17.671875 61.125 8.828125 
Q 51.171875 0 30.078125 0 
L 9.8125 0 
z
" id="DejaVuSans-44"/>
     <path d="M 40.578125 39.3125 
Q 47.65625 37.796875 51.625 33 
Q 55.609375 28.21875 55.609375 21.1875 
Q 55.609375 10.40625 48.1875 4.484375 
Q 40.765625 -1.421875 27.09375 -1.421875 
Q 22.515625 -1.421875 17.65625 -0.515625 
Q 12.796875 0.390625 7.625 2.203125 
L 7.625 11.71875 
Q 11.71875 9.328125 16.59375 8.109375 
Q 21.484375 6.890625 26.8125 6.890625 
Q 36.078125 6.890625 40.9375 10.546875 
Q 45.796875 14.203125 45.796875 21.1875 
Q 45.796875 27.640625 41.28125 31.265625 
Q 36.765625 34.90625 28.71875 34.90625 
L 20.21875 34.90625 
L 20.21875 43.015625 
L 29.109375 43.015625 
Q 36.375 43.015625 40.234375 45.921875 
Q 44.09375 48.828125 44.09375 54.296875 
Q 44.09375 59.90625 40.109375 62.90625 
Q 36.140625 65.921875 28.71875 65.921875 
Q 24.65625 65.921875 20.015625 65.03125 
Q 15.375 64.15625 9.8125 62.3125 
L 9.8125 71.09375 
Q 15.4375 72.65625 20.34375 73.4375 
Q 25.25 74.21875 29.59375 74.21875 
Q 40.828125 74.21875 47.359375 69.109375 
Q 53.90625 64.015625 53.90625 55.328125 
Q 53.90625 49.265625 50.4375 45.09375 
Q 46.96875 40.921875 40.578125 39.3125 
z
" id="DejaVuSans-33"/>
    </defs>
    <g transform="translate(369.18424 123.109155)scale(0.17 -0.17)">
     <use xlink:href="#DejaVuSans-47"/>
     <use x="77.490234" xlink:href="#DejaVuSans-44"/>
     <use x="154.492188" xlink:href="#DejaVuSans-45"/>
     <use x="217.675781" xlink:href="#DejaVuSans-33"/>
    </g>
   </g>
   <g id="text_16">
    <!-- MOEAD -->
    <defs>
     <path d="M 9.8125 72.90625 
L 24.515625 72.90625 
L 43.109375 23.296875 
L 61.8125 72.90625 
L 76.515625 72.90625 
L 76.515625 0 
L 66.890625 0 
L 66.890625 64.015625 
L 48.09375 14.015625 
L 38.1875 14.015625 
L 19.390625 64.015625 
L 19.390625 0 
L 9.8125 0 
z
" id="DejaVuSans-4d"/>
     <path d="M 39.40625 66.21875 
Q 28.65625 66.21875 22.328125 58.203125 
Q 16.015625 50.203125 16.015625 36.375 
Q 16.015625 22.609375 22.328125 14.59375 
Q 28.65625 6.59375 39.40625 6.59375 
Q 50.140625 6.59375 56.421875 14.59375 
Q 62.703125 22.609375 62.703125 36.375 
Q 62.703125 50.203125 56.421875 58.203125 
Q 50.140625 66.21875 39.40625 66.21875 
z
M 39.40625 74.21875 
Q 54.734375 74.21875 63.90625 63.9375 
Q 73.09375 53.65625 73.09375 36.375 
Q 73.09375 19.140625 63.90625 8.859375 
Q 54.734375 -1.421875 39.40625 -1.421875 
Q 24.03125 -1.421875 14.8125 8.828125 
Q 5.609375 19.09375 5.609375 36.375 
Q 5.609375 53.65625 14.8125 63.9375 
Q 24.03125 74.21875 39.40625 74.21875 
z
" id="DejaVuSans-4f"/>
    </defs>
    <g transform="translate(369.18424 37.551928)scale(0.17 -0.17)">
     <use xlink:href="#DejaVuSans-4d"/>
     <use x="86.279297" xlink:href="#DejaVuSans-4f"/>
     <use x="164.990234" xlink:href="#DejaVuSans-45"/>
     <use x="228.173828" xlink:href="#DejaVuSans-41"/>
     <use x="296.582031" xlink:href="#DejaVuSans-44"/>
    </g>
   </g>
   <g id="text_17">
    <!-- bbob-biobj f12, 40-D -->
    <defs>
     <path d="M 9.421875 54.6875 
L 18.40625 54.6875 
L 18.40625 -0.984375 
Q 18.40625 -11.421875 14.421875 -16.109375 
Q 10.453125 -20.796875 1.609375 -20.796875 
L -1.8125 -20.796875 
L -1.8125 -13.1875 
L 0.59375 -13.1875 
Q 5.71875 -13.1875 7.5625 -10.8125 
Q 9.421875 -8.453125 9.421875 -0.984375 
z
M 9.421875 75.984375 
L 18.40625 75.984375 
L 18.40625 64.59375 
L 9.421875 64.59375 
z
" id="DejaVuSans-6a"/>
    </defs>
    <g transform="translate(58.89048 35.290806)scale(0.102 -0.102)">
     <use xlink:href="#DejaVuSans-62"/>
     <use x="63.476562" xlink:href="#DejaVuSans-62"/>
     <use x="126.953125" xlink:href="#DejaVuSans-6f"/>
     <use x="188.134766" xlink:href="#DejaVuSans-62"/>
     <use x="251.611328" xlink:href="#DejaVuSans-2d"/>
     <use x="287.695312" xlink:href="#DejaVuSans-62"/>
     <use x="351.171875" xlink:href="#DejaVuSans-69"/>
     <use x="378.955078" xlink:href="#DejaVuSans-6f"/>
     <use x="440.136719" xlink:href="#DejaVuSans-62"/>
     <use x="503.613281" xlink:href="#DejaVuSans-6a"/>
     <use x="531.396484" xlink:href="#DejaVuSans-20"/>
     <use x="563.183594" xlink:href="#DejaVuSans-66"/>
     <use x="598.388672" xlink:href="#DejaVuSans-31"/>
     <use x="662.011719" xlink:href="#DejaVuSans-32"/>
     <use x="725.634766" xlink:href="#DejaVuSans-2c"/>
     <use x="757.421875" xlink:href="#DejaVuSans-20"/>
     <use x="789.208984" xlink:href="#DejaVuSans-34"/>
     <use x="852.832031" xlink:href="#DejaVuSans-30"/>
     <use x="916.455078" xlink:href="#DejaVuSans-2d"/>
     <use x="952.539062" xlink:href="#DejaVuSans-44"/>
    </g>
    <!-- 58 targets: 1..-1.0e-4 -->
    <defs>
     <path d="M 10.796875 72.90625 
L 49.515625 72.90625 
L 49.515625 64.59375 
L 19.828125 64.59375 
L 19.828125 46.734375 
Q 21.96875 47.46875 24.109375 47.828125 
Q 26.265625 48.1875 28.421875 48.1875 
Q 40.625 48.1875 47.75 41.5 
Q 54.890625 34.8125 54.890625 23.390625 
Q 54.890625 11.625 47.5625 5.09375 
Q 40.234375 -1.421875 26.90625 -1.421875 
Q 22.3125 -1.421875 17.546875 -0.640625 
Q 12.796875 0.140625 7.71875 1.703125 
L 7.71875 11.625 
Q 12.109375 9.234375 16.796875 8.0625 
Q 21.484375 6.890625 26.703125 6.890625 
Q 35.15625 6.890625 40.078125 11.328125 
Q 45.015625 15.765625 45.015625 23.390625 
Q 45.015625 31 40.078125 35.4375 
Q 35.15625 39.890625 26.703125 39.890625 
Q 22.75 39.890625 18.8125 39.015625 
Q 14.890625 38.140625 10.796875 36.28125 
z
" id="DejaVuSans-35"/>
     <path d="M 11.71875 12.40625 
L 22.015625 12.40625 
L 22.015625 0 
L 11.71875 0 
z
M 11.71875 51.703125 
L 22.015625 51.703125 
L 22.015625 39.3125 
L 11.71875 39.3125 
z
" id="DejaVuSans-3a"/>
    </defs>
    <g transform="translate(58.89048 46.712575)scale(0.102 -0.102)">
     <use xlink:href="#DejaVuSans-35"/>
     <use x="63.623047" xlink:href="#DejaVuSans-38"/>
     <use x="127.246094" xlink:href="#DejaVuSans-20"/>
     <use x="159.033203" xlink:href="#DejaVuSans-74"/>
     <use x="198.242188" xlink:href="#DejaVuSans-61"/>
     <use x="259.521484" xlink:href="#DejaVuSans-72"/>
     <use x="300.619141" xlink:href="#DejaVuSans-67"/>
     <use x="364.095703" xlink:href="#DejaVuSans-65"/>
     <use x="425.619141" xlink:href="#DejaVuSans-74"/>
     <use x="464.828125" xlink:href="#DejaVuSans-73"/>
     <use x="516.927734" xlink:href="#DejaVuSans-3a"/>
     <use x="550.619141" xlink:href="#DejaVuSans-20"/>
     <use x="582.40625" xlink:href="#DejaVuSans-31"/>
     <use x="646.029297" xlink:href="#DejaVuSans-2e"/>
     <use x="677.816406" xlink:href="#DejaVuSans-2e"/>
     <use x="709.603516" xlink:href="#DejaVuSans-2d"/>
     <use x="745.6875" xlink:href="#DejaVuSans-31"/>
     <use x="809.310547" xlink:href="#DejaVuSans-2e"/>
     <use x="841.097656" xlink:href="#DejaVuSans-30"/>
     <use x="904.720703" xlink:href="#DejaVuSans-65"/>
     <use x="966.244141" xlink:href="#DejaVuSans-2d"/>
     <use x="1002.328125" xlink:href="#DejaVuSans-34"/>
    </g>
    <!-- 10 instances -->
    <g transform="translate(58.89048 58.134344)scale(0.102 -0.102)">
     <use xlink:href="#DejaVuSans-31"/>
     <use x="63.623047" xlink:href="#DejaVuSans-30"/>
     <use x="127.246094" xlink:href="#DejaVuSans-20"/>
     <use x="159.033203" xlink:href="#DejaVuSans-69"/>
     <use x="186.816406" xlink:href="#DejaVuSans-6e"/>
     <use x="250.195312" xlink:href="#DejaVuSans-73"/>
     <use x="302.294922" xlink:href="#DejaVuSans-74"/>
     <use x="341.503906" xlink:href="#DejaVuSans-61"/>
     <use x="402.783203" xlink:href="#DejaVuSans-6e"/>
     <use x="466.162109" xlink:href="#DejaVuSans-63"/>
     <use x="521.142578" xlink:href="#DejaVuSans-65"/>
     <use x="582.666016" xlink:href="#DejaVuSans-73"/>
    </g>
   </g>
   <g id="text_18">
    <!-- v2.2.2.644, hv-hash=ff0e71e8cd978373 -->
    <defs>
     <path d="M 54.890625 33.015625 
L 54.890625 0 
L 45.90625 0 
L 45.90625 32.71875 
Q 45.90625 40.484375 42.875 44.328125 
Q 39.84375 48.1875 33.796875 48.1875 
Q 26.515625 48.1875 22.3125 43.546875 
Q 18.109375 38.921875 18.109375 30.90625 
L 18.109375 0 
L 9.078125 0 
L 9.078125 75.984375 
L 18.109375 75.984375 
L 18.109375 46.1875 
Q 21.34375 51.125 25.703125 53.5625 
Q 30.078125 56 35.796875 56 
Q 45.21875 56 50.046875 50.171875 
Q 54.890625 44.34375 54.890625 33.015625 
z
" id="DejaVuSans-68"/>
     <path d="M 10.59375 45.40625 
L 73.1875 45.40625 
L 73.1875 37.203125 
L 10.59375 37.203125 
z
M 10.59375 25.484375 
L 73.1875 25.484375 
L 73.1875 17.1875 
L 10.59375 17.1875 
z
" id="DejaVuSans-3d"/>
     <path d="M 8.203125 72.90625 
L 55.078125 72.90625 
L 55.078125 68.703125 
L 28.609375 0 
L 18.3125 0 
L 43.21875 64.59375 
L 8.203125 64.59375 
z
" id="DejaVuSans-37"/>
     <path d="M 10.984375 1.515625 
L 10.984375 10.5 
Q 14.703125 8.734375 18.5 7.8125 
Q 22.3125 6.890625 25.984375 6.890625 
Q 35.75 6.890625 40.890625 13.453125 
Q 46.046875 20.015625 46.78125 33.40625 
Q 43.953125 29.203125 39.59375 26.953125 
Q 35.25 24.703125 29.984375 24.703125 
Q 19.046875 24.703125 12.671875 31.3125 
Q 6.296875 37.9375 6.296875 49.421875 
Q 6.296875 60.640625 12.9375 67.421875 
Q 19.578125 74.21875 30.609375 74.21875 
Q 43.265625 74.21875 49.921875 64.515625 
Q 56.59375 54.828125 56.59375 36.375 
Q 56.59375 19.140625 48.40625 8.859375 
Q 40.234375 -1.421875 26.421875 -1.421875 
Q 22.703125 -1.421875 18.890625 -0.6875 
Q 15.09375 0.046875 10.984375 1.515625 
z
M 30.609375 32.421875 
Q 37.25 32.421875 41.125 36.953125 
Q 45.015625 41.5 45.015625 49.421875 
Q 45.015625 57.28125 41.125 61.84375 
Q 37.25 66.40625 30.609375 66.40625 
Q 23.96875 66.40625 20.09375 61.84375 
Q 16.21875 57.28125 16.21875 49.421875 
Q 16.21875 41.5 20.09375 36.953125 
Q 23.96875 32.421875 30.609375 32.421875 
z
" id="DejaVuSans-39"/>
    </defs>
    <g style="fill:#808080;" transform="translate(93.115875 290.099912)scale(0.1 -0.1)">
     <use xlink:href="#DejaVuSans-76"/>
     <use x="59.179688" xlink:href="#DejaVuSans-32"/>
     <use x="122.802734" xlink:href="#DejaVuSans-2e"/>
     <use x="154.589844" xlink:href="#DejaVuSans-32"/>
     <use x="218.212891" xlink:href="#DejaVuSans-2e"/>
     <use x="250" xlink:href="#DejaVuSans-32"/>
     <use x="313.623047" xlink:href="#DejaVuSans-2e"/>
     <use x="345.410156" xlink:href="#DejaVuSans-36"/>
     <use x="409.033203" xlink:href="#DejaVuSans-34"/>
     <use x="472.65625" xlink:href="#DejaVuSans-34"/>
     <use x="536.279297" xlink:href="#DejaVuSans-2c"/>
     <use x="568.066406" xlink:href="#DejaVuSans-20"/>
     <use x="599.853516" xlink:href="#DejaVuSans-68"/>
     <use x="663.232422" xlink:href="#DejaVuSans-76"/>
     <use x="722.380859" xlink:href="#DejaVuSans-2d"/>
     <use x="758.464844" xlink:href="#DejaVuSans-68"/>
     <use x="821.84375" xlink:href="#DejaVuSans-61"/>
     <use x="883.123047" xlink:href="#DejaVuSans-73"/>
     <use x="935.222656" xlink:href="#DejaVuSans-68"/>
     <use x="998.601562" xlink:href="#DejaVuSans-3d"/>
     <use x="1082.390625" xlink:href="#DejaVuSans-66"/>
     <use x="1117.595703" xlink:href="#DejaVuSans-66"/>
     <use x="1152.800781" xlink:href="#DejaVuSans-30"/>
     <use x="1216.423828" xlink:href="#DejaVuSans-65"/>
     <use x="1277.947266" xlink:href="#DejaVuSans-37"/>
     <use x="1341.570312" xlink:href="#DejaVuSans-31"/>
     <use x="1405.193359" xlink:href="#DejaVuSans-65"/>
     <use x="1466.716797" xlink:href="#DejaVuSans-38"/>
     <use x="1530.339844" xlink:href="#DejaVuSans-63"/>
     <use x="1585.320312" xlink:href="#DejaVuSans-64"/>
     <use x="1648.796875" xlink:href="#DejaVuSans-39"/>
     <use x="1712.419922" xlink:href="#DejaVuSans-37"/>
     <use x="1776.042969" xlink:href="#DejaVuSans-38"/>
     <use x="1839.666016" xlink:href="#DejaVuSans-33"/>
     <use x="1903.289062" xlink:href="#DejaVuSans-37"/>
     <use x="1966.912109" xlink:href="#DejaVuSans-33"/>
    </g>
   </g>
   <g id="text_19">
    <!-- 12 sep. Ellipsoid/Attractive sector -->
    <g transform="translate(26.472125 18.84)scale(0.2 -0.2)">
     <use xlink:href="#DejaVuSans-31"/>
     <use x="63.623047" xlink:href="#DejaVuSans-32"/>
     <use x="127.246094" xlink:href="#DejaVuSans-20"/>
     <use x="159.033203" xlink:href="#DejaVuSans-73"/>
     <use x="211.132812" xlink:href="#DejaVuSans-65"/>
     <use x="272.65625" xlink:href="#DejaVuSans-70"/>
     <use x="336.132812" xlink:href="#DejaVuSans-2e"/>
     <use x="367.919922" xlink:href="#DejaVuSans-20"/>
     <use x="399.707031" xlink:href="#DejaVuSans-45"/>
     <use x="462.890625" xlink:href="#DejaVuSans-6c"/>
     <use x="490.673828" xlink:href="#DejaVuSans-6c"/>
     <use x="518.457031" xlink:href="#DejaVuSans-69"/>
     <use x="546.240234" xlink:href="#DejaVuSans-70"/>
     <use x="609.716797" xlink:href="#DejaVuSans-73"/>
     <use x="661.816406" xlink:href="#DejaVuSans-6f"/>
     <use x="722.998047" xlink:href="#DejaVuSans-69"/>
     <use x="750.78125" xlink:href="#DejaVuSans-64"/>
     <use x="814.257812" xlink:href="#DejaVuSans-2f"/>
     <use x="847.949219" xlink:href="#DejaVuSans-41"/>
     <use x="916.341797" xlink:href="#DejaVuSans-74"/>
     <use x="955.550781" xlink:href="#DejaVuSans-74"/>
     <use x="994.759766" xlink:href="#DejaVuSans-72"/>
     <use x="1035.873047" xlink:href="#DejaVuSans-61"/>
     <use x="1097.152344" xlink:href="#DejaVuSans-63"/>
     <use x="1152.132812" xlink:href="#DejaVuSans-74"/>
     <use x="1191.341797" xlink:href="#DejaVuSans-69"/>
     <use x="1219.125" xlink:href="#DejaVuSans-76"/>
     <use x="1278.304688" xlink:href="#DejaVuSans-65"/>
     <use x="1339.828125" xlink:href="#DejaVuSans-20"/>
     <use x="1371.615234" xlink:href="#DejaVuSans-73"/>
     <use x="1423.714844" xlink:href="#DejaVuSans-65"/>
     <use x="1485.238281" xlink:href="#DejaVuSans-63"/>
     <use x="1540.21875" xlink:href="#DejaVuSans-74"/>
     <use x="1579.427734" xlink:href="#DejaVuSans-6f"/>
     <use x="1640.609375" xlink:href="#DejaVuSans-72"/>
    </g>
   </g>
  </g>
 </g>
 <defs>
  <clipPath id="p4b583770d1">
   <rect height="270.04" width="277.048" x="56.12" y="24.84"/>
  </clipPath>
 </defs>
</svg>
