<?xml version="1.0" encoding="utf-8" standalone="no"?>
<!DOCTYPE svg PUBLIC "-//W3C//DTD SVG 1.1//EN"
  "http://www.w3.org/Graphics/SVG/1.1/DTD/svg11.dtd">
<!-- Created with matplotlib (http://matplotlib.org/) -->
<svg height="345pt" version="1.1" viewBox="0 0 460 345" width="460pt" xmlns="http://www.w3.org/2000/svg" xmlns:xlink="http://www.w3.org/1999/xlink">
 <defs>
  <style type="text/css">
*{stroke-linecap:butt;stroke-linejoin:round;}
  </style>
 </defs>
 <g id="figure_1">
  <g id="patch_1">
   <path d="M 0 345.6 
L 460.8 345.6 
L 460.8 0 
L 0 0 
z
" style="fill:#ffffff;"/>
  </g>
  <g id="axes_1">
   <g id="patch_2">
    <path d="M 56.66 294.16 
L 399.984 294.16 
L 399.984 24.84 
L 56.66 24.84 
z
" style="fill:#ffffff;"/>
   </g>
   <g id="line2d_1">
    <path d="M 115.397326 294.16 
L 115.397326 288.931501 
L 118.803474 288.931501 
L 118.803474 283.703001 
L 122.427819 283.703001 
L 122.427819 278.474502 
L 130.750555 278.474502 
L 130.750555 273.246003 
L 144.52719 273.246003 
L 144.52719 268.017503 
L 152.665834 268.017503 
L 152.665834 262.789004 
L 154.995706 262.789004 
L 154.995706 257.560505 
L 157.009616 257.560505 
L 157.009616 252.332005 
L 158.366151 252.332005 
L 158.366151 247.103506 
L 159.524547 247.103506 
L 159.524547 241.875007 
L 161.449387 241.875007 
L 161.449387 236.646507 
L 171.902503 236.646507 
L 171.902503 231.418008 
L 173.912774 231.418008 
L 173.912774 226.189509 
L 174.441068 226.189509 
L 174.441068 220.96101 
L 175.031513 220.96101 
L 175.031513 215.73251 
L 175.76003 215.73251 
L 175.76003 210.504011 
L 176.579053 210.504011 
L 176.579053 205.275512 
L 183.028346 205.275512 
L 183.028346 200.047012 
L 183.401801 200.047012 
L 183.401801 194.818513 
L 183.731291 194.818513 
L 183.731291 189.590014 
L 183.99896 189.590014 
L 183.99896 69.334529 
L 184.255631 69.334529 
L 184.255631 64.10603 
L 184.405079 64.10603 
L 184.405079 58.877531 
L 184.47201 58.877531 
L 184.47201 53.649031 
L 184.730949 53.649031 
L 184.730949 48.420532 
L 184.871412 48.420532 
L 184.871412 43.192033 
L 184.970624 43.192033 
L 184.970624 37.963533 
L 185.106232 37.963533 
L 185.106232 32.735034 
L 185.128326 32.735034 
L 185.128326 27.506535 
L 333.534194 27.506535 
" style="fill:none;stroke:#f5deb3;stroke-linecap:square;stroke-width:6;"/>
   </g>
   <g id="line2d_2">
    <path d="M 0 0 
" style="fill:none;stroke:#f5deb3;stroke-linecap:square;stroke-width:6;"/>
    <defs>
     <path d="M -0 7.778175 
L 7.778175 0 
L 0 -7.778175 
L -7.778175 -0 
z
" id="md9605a16c7" style="stroke:#f5deb3;stroke-linejoin:miter;stroke-width:1.5;"/>
    </defs>
    <g>
     <use style="fill:#f5deb3;stroke:#f5deb3;stroke-linejoin:miter;stroke-width:1.5;" x="0" xlink:href="#md9605a16c7" y="0"/>
    </g>
   </g>
   <g id="line2d_3">
    <path d="M 333.534194 27.506535 
L 363.990355 288.826931 
" style="fill:none;stroke:#f5deb3;stroke-linecap:square;stroke-width:6;"/>
    <g>
     <use style="fill:#f5deb3;stroke:#f5deb3;stroke-linejoin:miter;stroke-width:1.5;" x="333.534194" xlink:href="#md9605a16c7" y="27.506535"/>
     <use style="fill:#f5deb3;stroke:#f5deb3;stroke-linejoin:miter;stroke-width:1.5;" x="363.990355" xlink:href="#md9605a16c7" y="288.826931"/>
    </g>
   </g>
   <g id="matplotlib.axis_1">
    <g id="xtick_1">
     <g id="line2d_4">
      <path clip-path="url(#p7aec75cfcc)" d="M 56.66 294.16 
L 56.66 24.84 
" style="fill:none;stroke:#b0b0b0;stroke-linecap:square;stroke-width:0.8;"/>
     </g>
     <g id="line2d_5">
      <defs>
       <path d="M 0 0 
L 0 3.5 
" id="mcb6513458e" style="stroke:#000000;stroke-width:0.8;"/>
      </defs>
      <g>
       <use style="stroke:#000000;stroke-width:0.8;" x="56.66" xlink:href="#mcb6513458e" y="294.16"/>
      </g>
     </g>
     <g id="text_1">
      <!-- 0 -->
      <defs>
       <path d="M 31.78125 66.40625 
Q 24.171875 66.40625 20.328125 58.90625 
Q 16.5 51.421875 16.5 36.375 
Q 16.5 21.390625 20.328125 13.890625 
Q 24.171875 6.390625 31.78125 6.390625 
Q 39.453125 6.390625 43.28125 13.890625 
Q 47.125 21.390625 47.125 36.375 
Q 47.125 51.421875 43.28125 58.90625 
Q 39.453125 66.40625 31.78125 66.40625 
z
M 31.78125 74.21875 
Q 44.046875 74.21875 50.515625 64.515625 
Q 56.984375 54.828125 56.984375 36.375 
Q 56.984375 17.96875 50.515625 8.265625 
Q 44.046875 -1.421875 31.78125 -1.421875 
Q 19.53125 -1.421875 13.0625 8.265625 
Q 6.59375 17.96875 6.59375 36.375 
Q 6.59375 54.828125 13.0625 64.515625 
Q 19.53125 74.21875 31.78125 74.21875 
z
" id="DejaVuSans-30"/>
      </defs>
      <g transform="translate(50.2975 316.356875)scale(0.2 -0.2)">
       <use xlink:href="#DejaVuSans-30"/>
      </g>
     </g>
    </g>
    <g id="xtick_2">
     <g id="line2d_6">
      <path clip-path="url(#p7aec75cfcc)" d="M 135.766912 294.16 
L 135.766912 24.84 
" style="fill:none;stroke:#b0b0b0;stroke-linecap:square;stroke-width:0.8;"/>
     </g>
     <g id="line2d_7">
      <g>
       <use style="stroke:#000000;stroke-width:0.8;" x="135.766912" xlink:href="#mcb6513458e" y="294.16"/>
      </g>
     </g>
     <g id="text_2">
      <!-- 2 -->
      <defs>
       <path d="M 19.1875 8.296875 
L 53.609375 8.296875 
L 53.609375 0 
L 7.328125 0 
L 7.328125 8.296875 
Q 12.9375 14.109375 22.625 23.890625 
Q 32.328125 33.6875 34.8125 36.53125 
Q 39.546875 41.84375 41.421875 45.53125 
Q 43.3125 49.21875 43.3125 52.78125 
Q 43.3125 58.59375 39.234375 62.25 
Q 35.15625 65.921875 28.609375 65.921875 
Q 23.96875 65.921875 18.8125 64.3125 
Q 13.671875 62.703125 7.8125 59.421875 
L 7.8125 69.390625 
Q 13.765625 71.78125 18.9375 73 
Q 24.125 74.21875 28.421875 74.21875 
Q 39.75 74.21875 46.484375 68.546875 
Q 53.21875 62.890625 53.21875 53.421875 
Q 53.21875 48.921875 51.53125 44.890625 
Q 49.859375 40.875 45.40625 35.40625 
Q 44.1875 33.984375 37.640625 27.21875 
Q 31.109375 20.453125 19.1875 8.296875 
z
" id="DejaVuSans-32"/>
      </defs>
      <g transform="translate(129.404412 316.356875)scale(0.2 -0.2)">
       <use xlink:href="#DejaVuSans-32"/>
      </g>
     </g>
    </g>
    <g id="xtick_3">
     <g id="line2d_8">
      <path clip-path="url(#p7aec75cfcc)" d="M 214.873825 294.16 
L 214.873825 24.84 
" style="fill:none;stroke:#b0b0b0;stroke-linecap:square;stroke-width:0.8;"/>
     </g>
     <g id="line2d_9">
      <g>
       <use style="stroke:#000000;stroke-width:0.8;" x="214.873825" xlink:href="#mcb6513458e" y="294.16"/>
      </g>
     </g>
     <g id="text_3">
      <!-- 4 -->
      <defs>
       <path d="M 37.796875 64.3125 
L 12.890625 25.390625 
L 37.796875 25.390625 
z
M 35.203125 72.90625 
L 47.609375 72.90625 
L 47.609375 25.390625 
L 58.015625 25.390625 
L 58.015625 17.1875 
L 47.609375 17.1875 
L 47.609375 0 
L 37.796875 0 
L 37.796875 17.1875 
L 4.890625 17.1875 
L 4.890625 26.703125 
z
" id="DejaVuSans-34"/>
      </defs>
      <g transform="translate(208.511325 316.356875)scale(0.2 -0.2)">
       <use xlink:href="#DejaVuSans-34"/>
      </g>
     </g>
    </g>
    <g id="xtick_4">
     <g id="line2d_10">
      <path clip-path="url(#p7aec75cfcc)" d="M 293.980737 294.16 
L 293.980737 24.84 
" style="fill:none;stroke:#b0b0b0;stroke-linecap:square;stroke-width:0.8;"/>
     </g>
     <g id="line2d_11">
      <g>
       <use style="stroke:#000000;stroke-width:0.8;" x="293.980737" xlink:href="#mcb6513458e" y="294.16"/>
      </g>
     </g>
     <g id="text_4">
      <!-- 6 -->
      <defs>
       <path d="M 33.015625 40.375 
Q 26.375 40.375 22.484375 35.828125 
Q 18.609375 31.296875 18.609375 23.390625 
Q 18.609375 15.53125 22.484375 10.953125 
Q 26.375 6.390625 33.015625 6.390625 
Q 39.65625 6.390625 43.53125 10.953125 
Q 47.40625 15.53125 47.40625 23.390625 
Q 47.40625 31.296875 43.53125 35.828125 
Q 39.65625 40.375 33.015625 40.375 
z
M 52.59375 71.296875 
L 52.59375 62.3125 
Q 48.875 64.0625 45.09375 64.984375 
Q 41.3125 65.921875 37.59375 65.921875 
Q 27.828125 65.921875 22.671875 59.328125 
Q 17.53125 52.734375 16.796875 39.40625 
Q 19.671875 43.65625 24.015625 45.921875 
Q 28.375 48.1875 33.59375 48.1875 
Q 44.578125 48.1875 50.953125 41.515625 
Q 57.328125 34.859375 57.328125 23.390625 
Q 57.328125 12.15625 50.6875 5.359375 
Q 44.046875 -1.421875 33.015625 -1.421875 
Q 20.359375 -1.421875 13.671875 8.265625 
Q 6.984375 17.96875 6.984375 36.375 
Q 6.984375 53.65625 15.1875 63.9375 
Q 23.390625 74.21875 37.203125 74.21875 
Q 40.921875 74.21875 44.703125 73.484375 
Q 48.484375 72.75 52.59375 71.296875 
z
" id="DejaVuSans-36"/>
      </defs>
      <g transform="translate(287.618237 316.356875)scale(0.2 -0.2)">
       <use xlink:href="#DejaVuSans-36"/>
      </g>
     </g>
    </g>
    <g id="xtick_5">
     <g id="line2d_12">
      <path clip-path="url(#p7aec75cfcc)" d="M 373.08765 294.16 
L 373.08765 24.84 
" style="fill:none;stroke:#b0b0b0;stroke-linecap:square;stroke-width:0.8;"/>
     </g>
     <g id="line2d_13">
      <g>
       <use style="stroke:#000000;stroke-width:0.8;" x="373.08765" xlink:href="#mcb6513458e" y="294.16"/>
      </g>
     </g>
     <g id="text_5">
      <!-- 8 -->
      <defs>
       <path d="M 31.78125 34.625 
Q 24.75 34.625 20.71875 30.859375 
Q 16.703125 27.09375 16.703125 20.515625 
Q 16.703125 13.921875 20.71875 10.15625 
Q 24.75 6.390625 31.78125 6.390625 
Q 38.8125 6.390625 42.859375 10.171875 
Q 46.921875 13.96875 46.921875 20.515625 
Q 46.921875 27.09375 42.890625 30.859375 
Q 38.875 34.625 31.78125 34.625 
z
M 21.921875 38.8125 
Q 15.578125 40.375 12.03125 44.71875 
Q 8.5 49.078125 8.5 55.328125 
Q 8.5 64.0625 14.71875 69.140625 
Q 20.953125 74.21875 31.78125 74.21875 
Q 42.671875 74.21875 48.875 69.140625 
Q 55.078125 64.0625 55.078125 55.328125 
Q 55.078125 49.078125 51.53125 44.71875 
Q 48 40.375 41.703125 38.8125 
Q 48.828125 37.15625 52.796875 32.3125 
Q 56.78125 27.484375 56.78125 20.515625 
Q 56.78125 9.90625 50.3125 4.234375 
Q 43.84375 -1.421875 31.78125 -1.421875 
Q 19.734375 -1.421875 13.25 4.234375 
Q 6.78125 9.90625 6.78125 20.515625 
Q 6.78125 27.484375 10.78125 32.3125 
Q 14.796875 37.15625 21.921875 38.8125 
z
M 18.3125 54.390625 
Q 18.3125 48.734375 21.84375 45.5625 
Q 25.390625 42.390625 31.78125 42.390625 
Q 38.140625 42.390625 41.71875 45.5625 
Q 45.3125 48.734375 45.3125 54.390625 
Q 45.3125 60.0625 41.71875 63.234375 
Q 38.140625 66.40625 31.78125 66.40625 
Q 25.390625 66.40625 21.84375 63.234375 
Q 18.3125 60.0625 18.3125 54.390625 
z
" id="DejaVuSans-38"/>
      </defs>
      <g transform="translate(366.72515 316.356875)scale(0.2 -0.2)">
       <use xlink:href="#DejaVuSans-38"/>
      </g>
     </g>
    </g>
    <g id="text_6">
     <!-- log10(# f-evals / dimension) -->
     <defs>
      <path d="M 9.421875 75.984375 
L 18.40625 75.984375 
L 18.40625 0 
L 9.421875 0 
z
" id="DejaVuSans-6c"/>
      <path d="M 30.609375 48.390625 
Q 23.390625 48.390625 19.1875 42.75 
Q 14.984375 37.109375 14.984375 27.296875 
Q 14.984375 17.484375 19.15625 11.84375 
Q 23.34375 6.203125 30.609375 6.203125 
Q 37.796875 6.203125 41.984375 11.859375 
Q 46.1875 17.53125 46.1875 27.296875 
Q 46.1875 37.015625 41.984375 42.703125 
Q 37.796875 48.390625 30.609375 48.390625 
z
M 30.609375 56 
Q 42.328125 56 49.015625 48.375 
Q 55.71875 40.765625 55.71875 27.296875 
Q 55.71875 13.875 49.015625 6.21875 
Q 42.328125 -1.421875 30.609375 -1.421875 
Q 18.84375 -1.421875 12.171875 6.21875 
Q 5.515625 13.875 5.515625 27.296875 
Q 5.515625 40.765625 12.171875 48.375 
Q 18.84375 56 30.609375 56 
z
" id="DejaVuSans-6f"/>
      <path d="M 45.40625 27.984375 
Q 45.40625 37.75 41.375 43.109375 
Q 37.359375 48.484375 30.078125 48.484375 
Q 22.859375 48.484375 18.828125 43.109375 
Q 14.796875 37.75 14.796875 27.984375 
Q 14.796875 18.265625 18.828125 12.890625 
Q 22.859375 7.515625 30.078125 7.515625 
Q 37.359375 7.515625 41.375 12.890625 
Q 45.40625 18.265625 45.40625 27.984375 
z
M 54.390625 6.78125 
Q 54.390625 -7.171875 48.1875 -13.984375 
Q 42 -20.796875 29.203125 -20.796875 
Q 24.46875 -20.796875 20.265625 -20.09375 
Q 16.0625 -19.390625 12.109375 -17.921875 
L 12.109375 -9.1875 
Q 16.0625 -11.328125 19.921875 -12.34375 
Q 23.78125 -13.375 27.78125 -13.375 
Q 36.625 -13.375 41.015625 -8.765625 
Q 45.40625 -4.15625 45.40625 5.171875 
L 45.40625 9.625 
Q 42.625 4.78125 38.28125 2.390625 
Q 33.9375 0 27.875 0 
Q 17.828125 0 11.671875 7.65625 
Q 5.515625 15.328125 5.515625 27.984375 
Q 5.515625 40.671875 11.671875 48.328125 
Q 17.828125 56 27.875 56 
Q 33.9375 56 38.28125 53.609375 
Q 42.625 51.21875 45.40625 46.390625 
L 45.40625 54.6875 
L 54.390625 54.6875 
z
" id="DejaVuSans-67"/>
      <path d="M 12.40625 8.296875 
L 28.515625 8.296875 
L 28.515625 63.921875 
L 10.984375 60.40625 
L 10.984375 69.390625 
L 28.421875 72.90625 
L 38.28125 72.90625 
L 38.28125 8.296875 
L 54.390625 8.296875 
L 54.390625 0 
L 12.40625 0 
z
" id="DejaVuSans-31"/>
      <path d="M 31 75.875 
Q 24.46875 64.65625 21.28125 53.65625 
Q 18.109375 42.671875 18.109375 31.390625 
Q 18.109375 20.125 21.3125 9.0625 
Q 24.515625 -2 31 -13.1875 
L 23.1875 -13.1875 
Q 15.875 -1.703125 12.234375 9.375 
Q 8.59375 20.453125 8.59375 31.390625 
Q 8.59375 42.28125 12.203125 53.3125 
Q 15.828125 64.359375 23.1875 75.875 
z
" id="DejaVuSans-28"/>
      <path d="M 51.125 44 
L 36.921875 44 
L 32.8125 27.6875 
L 47.125 27.6875 
z
M 43.796875 71.78125 
L 38.71875 51.515625 
L 52.984375 51.515625 
L 58.109375 71.78125 
L 65.921875 71.78125 
L 60.890625 51.515625 
L 76.125 51.515625 
L 76.125 44 
L 58.984375 44 
L 54.984375 27.6875 
L 70.515625 27.6875 
L 70.515625 20.21875 
L 53.078125 20.21875 
L 48 0 
L 40.1875 0 
L 45.21875 20.21875 
L 30.90625 20.21875 
L 25.875 0 
L 18.015625 0 
L 23.09375 20.21875 
L 7.71875 20.21875 
L 7.71875 27.6875 
L 24.90625 27.6875 
L 29 44 
L 13.28125 44 
L 13.28125 51.515625 
L 30.90625 51.515625 
L 35.890625 71.78125 
z
" id="DejaVuSans-23"/>
      <path id="DejaVuSans-20"/>
      <path d="M 37.109375 75.984375 
L 37.109375 68.5 
L 28.515625 68.5 
Q 23.6875 68.5 21.796875 66.546875 
Q 19.921875 64.59375 19.921875 59.515625 
L 19.921875 54.6875 
L 34.71875 54.6875 
L 34.71875 47.703125 
L 19.921875 47.703125 
L 19.921875 0 
L 10.890625 0 
L 10.890625 47.703125 
L 2.296875 47.703125 
L 2.296875 54.6875 
L 10.890625 54.6875 
L 10.890625 58.5 
Q 10.890625 67.625 15.140625 71.796875 
Q 19.390625 75.984375 28.609375 75.984375 
z
" id="DejaVuSans-66"/>
      <path d="M 4.890625 31.390625 
L 31.203125 31.390625 
L 31.203125 23.390625 
L 4.890625 23.390625 
z
" id="DejaVuSans-2d"/>
      <path d="M 56.203125 29.59375 
L 56.203125 25.203125 
L 14.890625 25.203125 
Q 15.484375 15.921875 20.484375 11.0625 
Q 25.484375 6.203125 34.421875 6.203125 
Q 39.59375 6.203125 44.453125 7.46875 
Q 49.3125 8.734375 54.109375 11.28125 
L 54.109375 2.78125 
Q 49.265625 0.734375 44.1875 -0.34375 
Q 39.109375 -1.421875 33.890625 -1.421875 
Q 20.796875 -1.421875 13.15625 6.1875 
Q 5.515625 13.8125 5.515625 26.8125 
Q 5.515625 40.234375 12.765625 48.109375 
Q 20.015625 56 32.328125 56 
Q 43.359375 56 49.78125 48.890625 
Q 56.203125 41.796875 56.203125 29.59375 
z
M 47.21875 32.234375 
Q 47.125 39.59375 43.09375 43.984375 
Q 39.0625 48.390625 32.421875 48.390625 
Q 24.90625 48.390625 20.390625 44.140625 
Q 15.875 39.890625 15.1875 32.171875 
z
" id="DejaVuSans-65"/>
      <path d="M 2.984375 54.6875 
L 12.5 54.6875 
L 29.59375 8.796875 
L 46.6875 54.6875 
L 56.203125 54.6875 
L 35.6875 0 
L 23.484375 0 
z
" id="DejaVuSans-76"/>
      <path d="M 34.28125 27.484375 
Q 23.390625 27.484375 19.1875 25 
Q 14.984375 22.515625 14.984375 16.5 
Q 14.984375 11.71875 18.140625 8.90625 
Q 21.296875 6.109375 26.703125 6.109375 
Q 34.1875 6.109375 38.703125 11.40625 
Q 43.21875 16.703125 43.21875 25.484375 
L 43.21875 27.484375 
z
M 52.203125 31.203125 
L 52.203125 0 
L 43.21875 0 
L 43.21875 8.296875 
Q 40.140625 3.328125 35.546875 0.953125 
Q 30.953125 -1.421875 24.3125 -1.421875 
Q 15.921875 -1.421875 10.953125 3.296875 
Q 6 8.015625 6 15.921875 
Q 6 25.140625 12.171875 29.828125 
Q 18.359375 34.515625 30.609375 34.515625 
L 43.21875 34.515625 
L 43.21875 35.40625 
Q 43.21875 41.609375 39.140625 45 
Q 35.0625 48.390625 27.6875 48.390625 
Q 23 48.390625 18.546875 47.265625 
Q 14.109375 46.140625 10.015625 43.890625 
L 10.015625 52.203125 
Q 14.9375 54.109375 19.578125 55.046875 
Q 24.21875 56 28.609375 56 
Q 40.484375 56 46.34375 49.84375 
Q 52.203125 43.703125 52.203125 31.203125 
z
" id="DejaVuSans-61"/>
      <path d="M 44.28125 53.078125 
L 44.28125 44.578125 
Q 40.484375 46.53125 36.375 47.5 
Q 32.28125 48.484375 27.875 48.484375 
Q 21.1875 48.484375 17.84375 46.4375 
Q 14.5 44.390625 14.5 40.28125 
Q 14.5 37.15625 16.890625 35.375 
Q 19.28125 33.59375 26.515625 31.984375 
L 29.59375 31.296875 
Q 39.15625 29.25 43.1875 25.515625 
Q 47.21875 21.78125 47.21875 15.09375 
Q 47.21875 7.46875 41.1875 3.015625 
Q 35.15625 -1.421875 24.609375 -1.421875 
Q 20.21875 -1.421875 15.453125 -0.5625 
Q 10.6875 0.296875 5.421875 2 
L 5.421875 11.28125 
Q 10.40625 8.6875 15.234375 7.390625 
Q 20.0625 6.109375 24.8125 6.109375 
Q 31.15625 6.109375 34.5625 8.28125 
Q 37.984375 10.453125 37.984375 14.40625 
Q 37.984375 18.0625 35.515625 20.015625 
Q 33.0625 21.96875 24.703125 23.78125 
L 21.578125 24.515625 
Q 13.234375 26.265625 9.515625 29.90625 
Q 5.8125 33.546875 5.8125 39.890625 
Q 5.8125 47.609375 11.28125 51.796875 
Q 16.75 56 26.8125 56 
Q 31.78125 56 36.171875 55.265625 
Q 40.578125 54.546875 44.28125 53.078125 
z
" id="DejaVuSans-73"/>
      <path d="M 25.390625 72.90625 
L 33.6875 72.90625 
L 8.296875 -9.28125 
L 0 -9.28125 
z
" id="DejaVuSans-2f"/>
      <path d="M 45.40625 46.390625 
L 45.40625 75.984375 
L 54.390625 75.984375 
L 54.390625 0 
L 45.40625 0 
L 45.40625 8.203125 
Q 42.578125 3.328125 38.25 0.953125 
Q 33.9375 -1.421875 27.875 -1.421875 
Q 17.96875 -1.421875 11.734375 6.484375 
Q 5.515625 14.40625 5.515625 27.296875 
Q 5.515625 40.1875 11.734375 48.09375 
Q 17.96875 56 27.875 56 
Q 33.9375 56 38.25 53.625 
Q 42.578125 51.265625 45.40625 46.390625 
z
M 14.796875 27.296875 
Q 14.796875 17.390625 18.875 11.75 
Q 22.953125 6.109375 30.078125 6.109375 
Q 37.203125 6.109375 41.296875 11.75 
Q 45.40625 17.390625 45.40625 27.296875 
Q 45.40625 37.203125 41.296875 42.84375 
Q 37.203125 48.484375 30.078125 48.484375 
Q 22.953125 48.484375 18.875 42.84375 
Q 14.796875 37.203125 14.796875 27.296875 
z
" id="DejaVuSans-64"/>
      <path d="M 9.421875 54.6875 
L 18.40625 54.6875 
L 18.40625 0 
L 9.421875 0 
z
M 9.421875 75.984375 
L 18.40625 75.984375 
L 18.40625 64.59375 
L 9.421875 64.59375 
z
" id="DejaVuSans-69"/>
      <path d="M 52 44.1875 
Q 55.375 50.25 60.0625 53.125 
Q 64.75 56 71.09375 56 
Q 79.640625 56 84.28125 50.015625 
Q 88.921875 44.046875 88.921875 33.015625 
L 88.921875 0 
L 79.890625 0 
L 79.890625 32.71875 
Q 79.890625 40.578125 77.09375 44.375 
Q 74.3125 48.1875 68.609375 48.1875 
Q 61.625 48.1875 57.5625 43.546875 
Q 53.515625 38.921875 53.515625 30.90625 
L 53.515625 0 
L 44.484375 0 
L 44.484375 32.71875 
Q 44.484375 40.625 41.703125 44.40625 
Q 38.921875 48.1875 33.109375 48.1875 
Q 26.21875 48.1875 22.15625 43.53125 
Q 18.109375 38.875 18.109375 30.90625 
L 18.109375 0 
L 9.078125 0 
L 9.078125 54.6875 
L 18.109375 54.6875 
L 18.109375 46.1875 
Q 21.1875 51.21875 25.484375 53.609375 
Q 29.78125 56 35.6875 56 
Q 41.65625 56 45.828125 52.96875 
Q 50 49.953125 52 44.1875 
z
" id="DejaVuSans-6d"/>
      <path d="M 54.890625 33.015625 
L 54.890625 0 
L 45.90625 0 
L 45.90625 32.71875 
Q 45.90625 40.484375 42.875 44.328125 
Q 39.84375 48.1875 33.796875 48.1875 
Q 26.515625 48.1875 22.3125 43.546875 
Q 18.109375 38.921875 18.109375 30.90625 
L 18.109375 0 
L 9.078125 0 
L 9.078125 54.6875 
L 18.109375 54.6875 
L 18.109375 46.1875 
Q 21.34375 51.125 25.703125 53.5625 
Q 30.078125 56 35.796875 56 
Q 45.21875 56 50.046875 50.171875 
Q 54.890625 44.34375 54.890625 33.015625 
z
" id="DejaVuSans-6e"/>
      <path d="M 8.015625 75.875 
L 15.828125 75.875 
Q 23.140625 64.359375 26.78125 53.3125 
Q 30.421875 42.28125 30.421875 31.390625 
Q 30.421875 20.453125 26.78125 9.375 
Q 23.140625 -1.703125 15.828125 -13.1875 
L 8.015625 -13.1875 
Q 14.5 -2 17.703125 9.0625 
Q 20.90625 20.125 20.90625 31.390625 
Q 20.90625 42.671875 17.703125 53.65625 
Q 14.5 64.65625 8.015625 75.875 
z
" id="DejaVuSans-29"/>
     </defs>
     <g transform="translate(107.481219 337.433594)scale(0.17 -0.17)">
      <use xlink:href="#DejaVuSans-6c"/>
      <use x="27.783203" xlink:href="#DejaVuSans-6f"/>
      <use x="88.964844" xlink:href="#DejaVuSans-67"/>
      <use x="152.441406" xlink:href="#DejaVuSans-31"/>
      <use x="216.064453" xlink:href="#DejaVuSans-30"/>
      <use x="279.6875" xlink:href="#DejaVuSans-28"/>
      <use x="318.701172" xlink:href="#DejaVuSans-23"/>
      <use x="402.490234" xlink:href="#DejaVuSans-20"/>
      <use x="434.277344" xlink:href="#DejaVuSans-66"/>
      <use x="469.404297" xlink:href="#DejaVuSans-2d"/>
      <use x="505.488281" xlink:href="#DejaVuSans-65"/>
      <use x="567.011719" xlink:href="#DejaVuSans-76"/>
      <use x="626.191406" xlink:href="#DejaVuSans-61"/>
      <use x="687.470703" xlink:href="#DejaVuSans-6c"/>
      <use x="715.253906" xlink:href="#DejaVuSans-73"/>
      <use x="767.353516" xlink:href="#DejaVuSans-20"/>
      <use x="799.140625" xlink:href="#DejaVuSans-2f"/>
      <use x="832.832031" xlink:href="#DejaVuSans-20"/>
      <use x="864.619141" xlink:href="#DejaVuSans-64"/>
      <use x="928.095703" xlink:href="#DejaVuSans-69"/>
      <use x="955.878906" xlink:href="#DejaVuSans-6d"/>
      <use x="1053.291016" xlink:href="#DejaVuSans-65"/>
      <use x="1114.814453" xlink:href="#DejaVuSans-6e"/>
      <use x="1178.193359" xlink:href="#DejaVuSans-73"/>
      <use x="1230.292969" xlink:href="#DejaVuSans-69"/>
      <use x="1258.076172" xlink:href="#DejaVuSans-6f"/>
      <use x="1319.257812" xlink:href="#DejaVuSans-6e"/>
      <use x="1382.636719" xlink:href="#DejaVuSans-29"/>
     </g>
    </g>
   </g>
   <g id="matplotlib.axis_2">
    <g id="ytick_1">
     <g id="line2d_14">
      <path clip-path="url(#p7aec75cfcc)" d="M 56.66 294.16 
L 399.984 294.16 
" style="fill:none;stroke:#b0b0b0;stroke-linecap:square;stroke-width:0.8;"/>
     </g>
     <g id="line2d_15">
      <defs>
       <path d="M 0 0 
L -3.5 0 
" id="mc04701c2ff" style="stroke:#000000;stroke-width:0.8;"/>
      </defs>
      <g>
       <use style="stroke:#000000;stroke-width:0.8;" x="56.66" xlink:href="#mc04701c2ff" y="294.16"/>
      </g>
     </g>
     <g id="text_7">
      <!-- 0.0 -->
      <defs>
       <path d="M 10.6875 12.40625 
L 21 12.40625 
L 21 0 
L 10.6875 0 
z
" id="DejaVuSans-2e"/>
      </defs>
      <g transform="translate(24.215 300.23875)scale(0.16 -0.16)">
       <use xlink:href="#DejaVuSans-30"/>
       <use x="63.623047" xlink:href="#DejaVuSans-2e"/>
       <use x="95.410156" xlink:href="#DejaVuSans-30"/>
      </g>
     </g>
    </g>
    <g id="ytick_2">
     <g id="line2d_16">
      <path clip-path="url(#p7aec75cfcc)" d="M 56.66 240.829307 
L 399.984 240.829307 
" style="fill:none;stroke:#b0b0b0;stroke-linecap:square;stroke-width:0.8;"/>
     </g>
     <g id="line2d_17">
      <g>
       <use style="stroke:#000000;stroke-width:0.8;" x="56.66" xlink:href="#mc04701c2ff" y="240.829307"/>
      </g>
     </g>
     <g id="text_8">
      <!-- 0.2 -->
      <g transform="translate(24.215 246.908057)scale(0.16 -0.16)">
       <use xlink:href="#DejaVuSans-30"/>
       <use x="63.623047" xlink:href="#DejaVuSans-2e"/>
       <use x="95.410156" xlink:href="#DejaVuSans-32"/>
      </g>
     </g>
    </g>
    <g id="ytick_3">
     <g id="line2d_18">
      <path clip-path="url(#p7aec75cfcc)" d="M 56.66 187.498614 
L 399.984 187.498614 
" style="fill:none;stroke:#b0b0b0;stroke-linecap:square;stroke-width:0.8;"/>
     </g>
     <g id="line2d_19">
      <g>
       <use style="stroke:#000000;stroke-width:0.8;" x="56.66" xlink:href="#mc04701c2ff" y="187.498614"/>
      </g>
     </g>
     <g id="text_9">
      <!-- 0.4 -->
      <g transform="translate(24.215 193.577364)scale(0.16 -0.16)">
       <use xlink:href="#DejaVuSans-30"/>
       <use x="63.623047" xlink:href="#DejaVuSans-2e"/>
       <use x="95.410156" xlink:href="#DejaVuSans-34"/>
      </g>
     </g>
    </g>
    <g id="ytick_4">
     <g id="line2d_20">
      <path clip-path="url(#p7aec75cfcc)" d="M 56.66 134.167921 
L 399.984 134.167921 
" style="fill:none;stroke:#b0b0b0;stroke-linecap:square;stroke-width:0.8;"/>
     </g>
     <g id="line2d_21">
      <g>
       <use style="stroke:#000000;stroke-width:0.8;" x="56.66" xlink:href="#mc04701c2ff" y="134.167921"/>
      </g>
     </g>
     <g id="text_10">
      <!-- 0.6 -->
      <g transform="translate(24.215 140.246671)scale(0.16 -0.16)">
       <use xlink:href="#DejaVuSans-30"/>
       <use x="63.623047" xlink:href="#DejaVuSans-2e"/>
       <use x="95.410156" xlink:href="#DejaVuSans-36"/>
      </g>
     </g>
    </g>
    <g id="ytick_5">
     <g id="line2d_22">
      <path clip-path="url(#p7aec75cfcc)" d="M 56.66 80.837228 
L 399.984 80.837228 
" style="fill:none;stroke:#b0b0b0;stroke-linecap:square;stroke-width:0.8;"/>
     </g>
     <g id="line2d_23">
      <g>
       <use style="stroke:#000000;stroke-width:0.8;" x="56.66" xlink:href="#mc04701c2ff" y="80.837228"/>
      </g>
     </g>
     <g id="text_11">
      <!-- 0.8 -->
      <g transform="translate(24.215 86.915978)scale(0.16 -0.16)">
       <use xlink:href="#DejaVuSans-30"/>
       <use x="63.623047" xlink:href="#DejaVuSans-2e"/>
       <use x="95.410156" xlink:href="#DejaVuSans-38"/>
      </g>
     </g>
    </g>
    <g id="ytick_6">
     <g id="line2d_24">
      <path clip-path="url(#p7aec75cfcc)" d="M 56.66 27.506535 
L 399.984 27.506535 
" style="fill:none;stroke:#b0b0b0;stroke-linecap:square;stroke-width:0.8;"/>
     </g>
     <g id="line2d_25">
      <g>
       <use style="stroke:#000000;stroke-width:0.8;" x="56.66" xlink:href="#mc04701c2ff" y="27.506535"/>
      </g>
     </g>
     <g id="text_12">
      <!-- 1.0 -->
      <g transform="translate(24.215 33.585285)scale(0.16 -0.16)">
       <use xlink:href="#DejaVuSans-31"/>
       <use x="63.623047" xlink:href="#DejaVuSans-2e"/>
       <use x="95.410156" xlink:href="#DejaVuSans-30"/>
      </g>
     </g>
    </g>
    <g id="text_13">
     <!-- Fraction of function,target pairs -->
     <defs>
      <path d="M 9.8125 72.90625 
L 51.703125 72.90625 
L 51.703125 64.59375 
L 19.671875 64.59375 
L 19.671875 43.109375 
L 48.578125 43.109375 
L 48.578125 34.8125 
L 19.671875 34.8125 
L 19.671875 0 
L 9.8125 0 
z
" id="DejaVuSans-46"/>
      <path d="M 41.109375 46.296875 
Q 39.59375 47.171875 37.8125 47.578125 
Q 36.03125 48 33.890625 48 
Q 26.265625 48 22.1875 43.046875 
Q 18.109375 38.09375 18.109375 28.8125 
L 18.109375 0 
L 9.078125 0 
L 9.078125 54.6875 
L 18.109375 54.6875 
L 18.109375 46.1875 
Q 20.953125 51.171875 25.484375 53.578125 
Q 30.03125 56 36.53125 56 
Q 37.453125 56 38.578125 55.875 
Q 39.703125 55.765625 41.0625 55.515625 
z
" id="DejaVuSans-72"/>
      <path d="M 48.78125 52.59375 
L 48.78125 44.1875 
Q 44.96875 46.296875 41.140625 47.34375 
Q 37.3125 48.390625 33.40625 48.390625 
Q 24.65625 48.390625 19.8125 42.84375 
Q 14.984375 37.3125 14.984375 27.296875 
Q 14.984375 17.28125 19.8125 11.734375 
Q 24.65625 6.203125 33.40625 6.203125 
Q 37.3125 6.203125 41.140625 7.25 
Q 44.96875 8.296875 48.78125 10.40625 
L 48.78125 2.09375 
Q 45.015625 0.34375 40.984375 -0.53125 
Q 36.96875 -1.421875 32.421875 -1.421875 
Q 20.0625 -1.421875 12.78125 6.34375 
Q 5.515625 14.109375 5.515625 27.296875 
Q 5.515625 40.671875 12.859375 48.328125 
Q 20.21875 56 33.015625 56 
Q 37.15625 56 41.109375 55.140625 
Q 45.0625 54.296875 48.78125 52.59375 
z
" id="DejaVuSans-63"/>
      <path d="M 18.3125 70.21875 
L 18.3125 54.6875 
L 36.8125 54.6875 
L 36.8125 47.703125 
L 18.3125 47.703125 
L 18.3125 18.015625 
Q 18.3125 11.328125 20.140625 9.421875 
Q 21.96875 7.515625 27.59375 7.515625 
L 36.8125 7.515625 
L 36.8125 0 
L 27.59375 0 
Q 17.1875 0 13.234375 3.875 
Q 9.28125 7.765625 9.28125 18.015625 
L 9.28125 47.703125 
L 2.6875 47.703125 
L 2.6875 54.6875 
L 9.28125 54.6875 
L 9.28125 70.21875 
z
" id="DejaVuSans-74"/>
      <path d="M 8.5 21.578125 
L 8.5 54.6875 
L 17.484375 54.6875 
L 17.484375 21.921875 
Q 17.484375 14.15625 20.5 10.265625 
Q 23.53125 6.390625 29.59375 6.390625 
Q 36.859375 6.390625 41.078125 11.03125 
Q 45.3125 15.671875 45.3125 23.6875 
L 45.3125 54.6875 
L 54.296875 54.6875 
L 54.296875 0 
L 45.3125 0 
L 45.3125 8.40625 
Q 42.046875 3.421875 37.71875 1 
Q 33.40625 -1.421875 27.6875 -1.421875 
Q 18.265625 -1.421875 13.375 4.4375 
Q 8.5 10.296875 8.5 21.578125 
z
M 31.109375 56 
z
" id="DejaVuSans-75"/>
      <path d="M 11.71875 12.40625 
L 22.015625 12.40625 
L 22.015625 4 
L 14.015625 -11.625 
L 7.71875 -11.625 
L 11.71875 4 
z
" id="DejaVuSans-2c"/>
      <path d="M 18.109375 8.203125 
L 18.109375 -20.796875 
L 9.078125 -20.796875 
L 9.078125 54.6875 
L 18.109375 54.6875 
L 18.109375 46.390625 
Q 20.953125 51.265625 25.265625 53.625 
Q 29.59375 56 35.59375 56 
Q 45.5625 56 51.78125 48.09375 
Q 58.015625 40.1875 58.015625 27.296875 
Q 58.015625 14.40625 51.78125 6.484375 
Q 45.5625 -1.421875 35.59375 -1.421875 
Q 29.59375 -1.421875 25.265625 0.953125 
Q 20.953125 3.328125 18.109375 8.203125 
z
M 48.6875 27.296875 
Q 48.6875 37.203125 44.609375 42.84375 
Q 40.53125 48.484375 33.40625 48.484375 
Q 26.265625 48.484375 22.1875 42.84375 
Q 18.109375 37.203125 18.109375 27.296875 
Q 18.109375 17.390625 22.1875 11.75 
Q 26.265625 6.109375 33.40625 6.109375 
Q 40.53125 6.109375 44.609375 11.75 
Q 48.6875 17.390625 48.6875 27.296875 
z
" id="DejaVuSans-70"/>
     </defs>
     <g transform="translate(16.679531 294.639375)rotate(-90)scale(0.17 -0.17)">
      <use xlink:href="#DejaVuSans-46"/>
      <use x="57.410156" xlink:href="#DejaVuSans-72"/>
      <use x="98.523438" xlink:href="#DejaVuSans-61"/>
      <use x="159.802734" xlink:href="#DejaVuSans-63"/>
      <use x="214.783203" xlink:href="#DejaVuSans-74"/>
      <use x="253.992188" xlink:href="#DejaVuSans-69"/>
      <use x="281.775391" xlink:href="#DejaVuSans-6f"/>
      <use x="342.957031" xlink:href="#DejaVuSans-6e"/>
      <use x="406.335938" xlink:href="#DejaVuSans-20"/>
      <use x="438.123047" xlink:href="#DejaVuSans-6f"/>
      <use x="499.304688" xlink:href="#DejaVuSans-66"/>
      <use x="534.509766" xlink:href="#DejaVuSans-20"/>
      <use x="566.296875" xlink:href="#DejaVuSans-66"/>
      <use x="601.501953" xlink:href="#DejaVuSans-75"/>
      <use x="664.880859" xlink:href="#DejaVuSans-6e"/>
      <use x="728.259766" xlink:href="#DejaVuSans-63"/>
      <use x="783.240234" xlink:href="#DejaVuSans-74"/>
      <use x="822.449219" xlink:href="#DejaVuSans-69"/>
      <use x="850.232422" xlink:href="#DejaVuSans-6f"/>
      <use x="911.414062" xlink:href="#DejaVuSans-6e"/>
      <use x="974.792969" xlink:href="#DejaVuSans-2c"/>
      <use x="1006.580078" xlink:href="#DejaVuSans-74"/>
      <use x="1045.789062" xlink:href="#DejaVuSans-61"/>
      <use x="1107.068359" xlink:href="#DejaVuSans-72"/>
      <use x="1148.166016" xlink:href="#DejaVuSans-67"/>
      <use x="1211.642578" xlink:href="#DejaVuSans-65"/>
      <use x="1273.166016" xlink:href="#DejaVuSans-74"/>
      <use x="1312.375" xlink:href="#DejaVuSans-20"/>
      <use x="1344.162109" xlink:href="#DejaVuSans-70"/>
      <use x="1407.638672" xlink:href="#DejaVuSans-61"/>
      <use x="1468.917969" xlink:href="#DejaVuSans-69"/>
      <use x="1496.701172" xlink:href="#DejaVuSans-72"/>
      <use x="1537.814453" xlink:href="#DejaVuSans-73"/>
     </g>
    </g>
   </g>
   <g id="line2d_26">
    <defs>
     <path d="M 0 1.5 
C 0.397805 1.5 0.77937 1.341951 1.06066 1.06066 
C 1.341951 0.77937 1.5 0.397805 1.5 0 
C 1.5 -0.397805 1.341951 -0.77937 1.06066 -1.06066 
C 0.77937 -1.341951 0.397805 -1.5 0 -1.5 
C -0.397805 -1.5 -0.77937 -1.341951 -1.06066 -1.06066 
C -1.341951 -0.77937 -1.5 -0.397805 -1.5 0 
C -1.5 0.397805 -1.341951 0.77937 -1.06066 1.06066 
C -0.77937 1.341951 -0.397805 1.5 0 1.5 
z
" id="mdc01c3010b" style="stroke:#f5deb3;"/>
    </defs>
    <g>
     <use style="fill:#f5deb3;stroke:#f5deb3;" x="185.128326" xlink:href="#mdc01c3010b" y="27.506535"/>
     <use style="fill:#f5deb3;stroke:#f5deb3;" x="185.128326" xlink:href="#mdc01c3010b" y="27.506535"/>
    </g>
   </g>
   <g id="line2d_27">
    <g>
     <use style="fill:#f5deb3;stroke:#f5deb3;stroke-linejoin:miter;stroke-width:1.5;" x="183.731291" xlink:href="#md9605a16c7" y="189.590014"/>
     <use style="fill:#f5deb3;stroke:#f5deb3;stroke-linejoin:miter;stroke-width:1.5;" x="185.128326" xlink:href="#md9605a16c7" y="32.735034"/>
     <use style="fill:#f5deb3;stroke:#f5deb3;stroke-linejoin:miter;stroke-width:1.5;" x="185.128326" xlink:href="#md9605a16c7" y="27.506535"/>
     <use style="fill:#f5deb3;stroke:#f5deb3;stroke-linejoin:miter;stroke-width:1.5;" x="185.128326" xlink:href="#md9605a16c7" y="27.506535"/>
     <use style="fill:#f5deb3;stroke:#f5deb3;stroke-linejoin:miter;stroke-width:1.5;" x="333.534194" xlink:href="#md9605a16c7" y="27.506535"/>
    </g>
   </g>
   <g id="line2d_28">
    <defs>
     <path d="M 0 1.5 
C 0.397805 1.5 0.77937 1.341951 1.06066 1.06066 
C 1.341951 0.77937 1.5 0.397805 1.5 0 
C 1.5 -0.397805 1.341951 -0.77937 1.06066 -1.06066 
C 0.77937 -1.341951 0.397805 -1.5 0 -1.5 
C -0.397805 -1.5 -0.77937 -1.341951 -1.06066 -1.06066 
C -1.341951 -0.77937 -1.5 -0.397805 -1.5 0 
C -1.5 0.397805 -1.341951 0.77937 -1.06066 1.06066 
C -0.77937 1.341951 -0.397805 1.5 0 1.5 
z
" id="maec41d4d78" style="stroke:#e6e6e6;"/>
    </defs>
    <g>
     <use style="fill:#e6e6e6;stroke:#e6e6e6;" x="314.993785" xlink:href="#maec41d4d78" y="257.560505"/>
     <use style="fill:#e6e6e6;stroke:#e6e6e6;" x="314.993785" xlink:href="#maec41d4d78" y="257.560505"/>
    </g>
   </g>
   <g id="line2d_29">
    <path d="M 156.370668 294.16 
L 156.370668 293.63715 
L 158.041625 293.63715 
L 158.041625 291.54575 
L 160.451265 291.54575 
L 160.451265 291.0229 
L 160.821781 291.0229 
L 160.821781 290.50005 
L 161.120792 290.50005 
L 161.120792 289.977201 
L 162.327848 289.977201 
L 162.327848 289.454351 
L 162.831829 289.454351 
L 162.831829 288.931501 
L 163.787408 288.931501 
L 163.787408 288.408651 
L 164.042665 288.408651 
L 164.042665 287.885801 
L 164.260697 287.885801 
L 164.260697 287.362951 
L 165.013296 287.362951 
L 165.013296 286.840101 
L 165.039881 286.840101 
L 165.039881 286.317251 
L 165.494776 286.317251 
L 165.494776 285.794401 
L 165.972011 285.794401 
L 165.972011 285.271551 
L 166.200636 285.271551 
L 166.200636 284.748701 
L 169.230231 284.748701 
L 169.230231 283.703001 
L 172.222284 283.703001 
L 172.222284 283.180151 
L 175.233832 283.180151 
L 175.233832 282.657301 
L 175.513814 282.657301 
L 175.513814 282.134452 
L 176.477782 282.134452 
L 176.477782 281.611602 
L 177.218731 281.611602 
L 177.218731 281.088752 
L 185.836323 281.088752 
L 185.836323 280.043052 
L 186.850282 280.043052 
L 186.850282 279.520202 
L 193.602402 279.520202 
L 193.602402 278.997352 
L 196.638099 278.997352 
L 196.638099 277.951652 
L 201.238868 277.951652 
L 201.238868 276.383102 
L 207.732845 276.383102 
L 207.732845 275.337402 
L 207.834395 275.337402 
L 207.834395 274.291703 
L 209.829149 274.291703 
L 209.829149 272.723153 
L 210.388379 272.723153 
L 210.388379 272.200303 
L 220.726637 272.200303 
L 220.726637 271.677453 
L 224.665251 271.677453 
L 224.665251 271.154603 
L 226.497161 271.154603 
L 226.497161 270.631753 
L 229.376315 270.631753 
L 229.376315 270.108903 
L 241.843633 270.108903 
L 241.843633 269.063203 
L 244.765832 269.063203 
L 244.765832 268.017503 
L 249.9241 268.017503 
L 249.9241 266.971804 
L 260.771125 266.971804 
L 260.771125 265.926104 
L 263.74996 265.926104 
L 263.74996 265.403254 
L 266.409423 265.403254 
L 266.409423 264.880404 
L 277.522718 264.880404 
L 277.522718 264.357554 
L 282.855124 264.357554 
L 282.855124 263.311854 
L 286.14246 263.311854 
L 286.14246 262.789004 
L 286.534833 262.789004 
L 286.534833 262.266154 
L 287.179877 262.266154 
L 287.179877 261.220454 
L 292.068889 261.220454 
L 292.068889 260.697604 
L 294.375759 260.697604 
L 294.375759 260.174754 
L 296.355573 260.174754 
L 296.355573 259.129055 
L 302.56488 259.129055 
L 302.56488 258.606205 
L 313.681164 258.606205 
L 313.681164 258.083355 
L 314.993785 258.083355 
L 314.993785 257.560505 
L 333.534194 257.560505 
" style="fill:none;stroke:#e6e6e6;stroke-linecap:square;stroke-width:1.5;"/>
   </g>
   <g id="line2d_30"/>
   <g id="line2d_31">
    <path d="M 0 0 
" style="fill:none;stroke:#e6e6e6;stroke-linecap:square;stroke-width:1.5;"/>
   </g>
   <g id="line2d_32">
    <path clip-path="url(#p7aec75cfcc)" d="M 258.260407 266.971804 
" style="fill:none;stroke:#e6e6e6;stroke-linecap:square;stroke-width:1.5;"/>
    <defs>
     <path d="M -12 12 
L 12 -12 
M -12 -12 
L 12 12 
" id="m139e13f18a" style="stroke:#e6e6e6;stroke-width:3;"/>
    </defs>
    <g clip-path="url(#p7aec75cfcc)">
     <use style="fill:#e6e6e6;stroke:#e6e6e6;stroke-width:3;" x="258.260407" xlink:href="#m139e13f18a" y="266.971804"/>
    </g>
   </g>
   <g id="line2d_33">
    <g>
     <use style="fill:#e6e6e6;stroke:#e6e6e6;" x="187.751363" xlink:href="#maec41d4d78" y="27.506535"/>
     <use style="fill:#e6e6e6;stroke:#e6e6e6;" x="187.751363" xlink:href="#maec41d4d78" y="27.506535"/>
    </g>
   </g>
   <g id="line2d_34">
    <path d="M 151.910859 294.16 
L 151.910859 293.63715 
L 154.258039 293.63715 
L 154.258039 292.59145 
L 155.2255 292.59145 
L 155.2255 291.0229 
L 156.248581 291.0229 
L 156.248581 290.50005 
L 158.274881 290.50005 
L 158.274881 289.977201 
L 158.67674 289.977201 
L 158.67674 289.454351 
L 159.037308 289.454351 
L 159.037308 288.408651 
L 159.444655 288.408651 
L 159.444655 287.885801 
L 159.707753 287.885801 
L 159.707753 287.362951 
L 160.034981 287.362951 
L 160.034981 286.840101 
L 160.305732 286.840101 
L 160.305732 286.317251 
L 160.662237 286.317251 
L 160.745706 285.271551 
L 161.644712 285.271551 
L 161.644712 284.748701 
L 161.88203 284.748701 
L 161.88203 284.225851 
L 162.271946 284.225851 
L 162.271946 283.703001 
L 162.852251 283.703001 
L 162.852251 282.657301 
L 162.975162 282.657301 
L 162.996296 280.043052 
L 163.345605 280.043052 
L 163.345605 279.520202 
L 163.474465 279.520202 
L 163.527446 276.905952 
L 163.593019 276.905952 
L 163.647331 275.337402 
L 164.381273 275.337402 
L 164.381273 274.814553 
L 164.590264 274.814553 
L 164.590264 274.291703 
L 164.799913 274.291703 
L 164.799913 273.768853 
L 165.39787 273.768853 
L 165.422339 272.723153 
L 165.511508 272.723153 
L 165.511508 271.677453 
L 165.836793 271.677453 
L 165.836793 271.154603 
L 166.625461 271.154603 
L 166.625461 270.631753 
L 166.803354 270.631753 
L 166.811108 269.586053 
L 167.221276 269.586053 
L 167.296804 267.494653 
L 167.775142 267.494653 
L 167.775142 266.971804 
L 168.139709 266.971804 
L 168.234683 265.926104 
L 168.524788 265.926104 
L 168.524788 265.403254 
L 168.930727 265.403254 
L 169.036303 264.357554 
L 169.102423 264.357554 
L 169.102423 263.311854 
L 169.354665 263.311854 
L 169.354665 262.789004 
L 169.553464 262.789004 
L 169.646332 261.743304 
L 169.732757 261.743304 
L 169.732757 261.220454 
L 169.914904 261.220454 
L 169.914904 260.697604 
L 170.175285 260.697604 
L 170.175285 259.651904 
L 170.495593 259.651904 
L 170.574462 258.606205 
L 170.74514 258.606205 
L 170.805569 257.037655 
L 170.986141 257.037655 
L 171.024235 255.991955 
L 171.118279 255.991955 
L 171.118279 254.423405 
L 171.376303 254.423405 
L 171.376303 253.377705 
L 171.533346 253.377705 
L 171.595337 252.332005 
L 172.05431 252.332005 
L 172.152193 251.286306 
L 172.173869 251.286306 
L 172.173869 250.763456 
L 172.35651 250.763456 
L 172.460809 248.149206 
L 173.130322 248.149206 
L 173.130322 247.103506 
L 173.384067 247.103506 
L 173.433986 245.534956 
L 173.784111 245.534956 
L 173.812265 243.966407 
L 174.322234 243.966407 
L 174.427051 241.875007 
L 174.445136 241.875007 
L 174.457784 240.306457 
L 174.572548 240.306457 
L 174.572548 239.783607 
L 175.379958 239.783607 
L 175.468318 238.215057 
L 175.540122 238.215057 
L 175.540122 237.692207 
L 175.784709 237.692207 
L 175.784709 236.123658 
L 176.191575 236.123658 
L 176.210751 234.032258 
L 176.438393 234.032258 
L 176.536296 232.463708 
L 176.571868 232.463708 
L 176.571868 231.940858 
L 176.702728 231.940858 
L 176.74784 230.895158 
L 176.905981 230.895158 
L 177.014497 228.803758 
L 177.227572 228.803758 
L 177.305795 227.235209 
L 177.393942 227.235209 
L 177.410681 225.143809 
L 177.525888 225.143809 
L 177.525888 224.620959 
L 177.644078 224.620959 
L 177.644078 224.098109 
L 177.946 224.098109 
L 178.015887 223.052409 
L 178.255743 223.052409 
L 178.255743 222.006709 
L 178.41536 222.006709 
L 178.514061 219.91531 
L 178.535087 219.91531 
L 178.535087 218.86961 
L 178.69567 218.86961 
L 178.69567 217.82391 
L 178.968701 217.82391 
L 178.968701 217.30106 
L 179.142841 217.30106 
L 179.24498 216.25536 
L 179.37028 216.25536 
L 179.37028 215.73251 
L 179.986369 215.73251 
L 180.093713 214.68681 
L 180.116141 214.68681 
L 180.116141 214.16396 
L 180.41593 214.16396 
L 180.41593 212.595411 
L 180.581441 212.595411 
L 180.65778 204.229812 
L 180.731274 204.229812 
L 180.779784 203.184112 
L 180.975553 203.184112 
L 181.024611 200.047012 
L 181.095636 200.047012 
L 181.095636 199.524162 
L 181.216712 199.524162 
L 181.268429 196.909913 
L 181.590414 196.909913 
L 181.644883 173.381666 
L 181.707769 173.381666 
L 181.728483 165.538917 
L 181.894763 165.538917 
L 181.894763 165.016067 
L 182.040003 165.016067 
L 182.083221 163.447517 
L 182.181721 163.447517 
L 182.214238 162.401817 
L 182.319708 162.401817 
L 182.367358 152.990518 
L 182.582273 152.990518 
L 182.664524 142.53352 
L 182.910595 142.53352 
L 183.01957 140.44212 
L 183.228966 140.44212 
L 183.228966 139.91927 
L 183.433697 139.91927 
L 183.480229 135.213621 
L 183.601048 135.213621 
L 183.679365 133.122221 
L 183.718127 133.122221 
L 183.805874 122.142372 
L 183.976402 122.142372 
L 183.999219 111.685374 
L 184.127775 111.685374 
L 184.167591 110.116824 
L 184.281139 110.116824 
L 184.380768 107.502574 
L 184.541945 107.502574 
L 184.541945 93.908476 
L 184.72176 93.908476 
L 184.777072 86.065727 
L 184.905365 86.065727 
L 185.00096 74.563029 
L 185.094081 74.563029 
L 185.094081 74.040179 
L 185.242948 74.040179 
L 185.259089 70.380229 
L 185.550604 70.380229 
L 185.584896 62.53748 
L 185.682902 62.53748 
L 185.690183 61.49178 
L 186.138427 61.49178 
L 186.17522 60.44608 
L 186.443178 60.44608 
L 186.443178 53.126181 
L 186.618485 53.126181 
L 186.656484 41.623483 
L 186.899158 41.623483 
L 186.899158 39.532083 
L 187.174673 39.532083 
L 187.261895 31.689334 
L 187.322219 31.689334 
L 187.365725 29.075084 
L 187.494531 29.075084 
L 187.592345 28.029385 
L 187.751363 28.029385 
L 187.751363 27.506535 
L 333.534194 27.506535 
L 333.534194 27.506535 
" style="fill:none;stroke:#e6e6e6;stroke-linecap:square;stroke-width:1.5;"/>
   </g>
   <g id="line2d_35"/>
   <g id="line2d_36">
    <path d="M 0 0 
" style="fill:none;stroke:#e6e6e6;stroke-linecap:square;stroke-width:1.5;"/>
   </g>
   <g id="line2d_37">
    <g>
     <use style="fill:#e6e6e6;stroke:#e6e6e6;" x="220.331021" xlink:href="#maec41d4d78" y="273.246003"/>
     <use style="fill:#e6e6e6;stroke:#e6e6e6;" x="220.331021" xlink:href="#maec41d4d78" y="273.246003"/>
    </g>
   </g>
   <g id="line2d_38">
    <path d="M 166.982214 294.16 
L 166.982214 293.1143 
L 167.634646 293.1143 
L 167.634646 292.59145 
L 168.141666 292.59145 
L 168.141666 291.0229 
L 168.857686 291.0229 
L 168.857686 290.50005 
L 171.222172 290.50005 
L 171.222172 289.977201 
L 171.591603 289.977201 
L 171.591603 289.454351 
L 171.61453 289.454351 
L 171.61453 288.931501 
L 171.929206 288.931501 
L 171.929206 288.408651 
L 173.131785 288.408651 
L 173.131785 286.840101 
L 173.287176 286.840101 
L 173.287176 285.794401 
L 173.979764 285.794401 
L 173.979764 285.271551 
L 174.435643 285.271551 
L 174.435643 284.748701 
L 175.432517 284.748701 
L 175.432517 284.225851 
L 176.315225 284.225851 
L 176.315225 283.703001 
L 176.357323 283.703001 
L 176.357323 282.657301 
L 176.442014 282.657301 
L 176.442014 281.611602 
L 176.499848 281.611602 
L 176.499848 281.088752 
L 180.038983 281.088752 
L 180.038983 280.565902 
L 180.052682 280.565902 
L 180.052682 280.043052 
L 180.947723 280.043052 
L 180.947723 279.520202 
L 181.191406 279.520202 
L 181.191406 278.997352 
L 182.919151 278.997352 
L 182.919151 277.428802 
L 184.829739 277.428802 
L 184.829739 275.860252 
L 186.323872 275.860252 
L 186.323872 275.337402 
L 197.977009 275.337402 
L 197.977009 274.291703 
L 217.628671 274.291703 
L 217.628671 273.768853 
L 220.331021 273.768853 
L 220.331021 273.246003 
L 333.534194 273.246003 
" style="fill:none;stroke:#e6e6e6;stroke-linecap:square;stroke-width:1.5;"/>
   </g>
   <g id="line2d_39"/>
   <g id="line2d_40">
    <path d="M 0 0 
" style="fill:none;stroke:#e6e6e6;stroke-linecap:square;stroke-width:1.5;"/>
   </g>
   <g id="line2d_41">
    <path clip-path="url(#p7aec75cfcc)" d="M 187.227145 275.337402 
" style="fill:none;stroke:#e6e6e6;stroke-linecap:square;stroke-width:1.5;"/>
    <g clip-path="url(#p7aec75cfcc)">
     <use style="fill:#e6e6e6;stroke:#e6e6e6;stroke-width:3;" x="187.227145" xlink:href="#m139e13f18a" y="275.337402"/>
    </g>
   </g>
   <g id="line2d_42">
    <path clip-path="url(#p7aec75cfcc)" d="M 56.66 294.16 
L 56.66 294.16 
L 56.66 294.16 
L 56.66 294.16 
L 399.984 294.16 
" style="fill:none;stroke:#e6e6e6;stroke-linecap:square;stroke-width:1.5;"/>
   </g>
   <g id="line2d_43"/>
   <g id="line2d_44">
    <path clip-path="url(#p7aec75cfcc)" d="M 0 0 
" style="fill:none;stroke:#e6e6e6;stroke-linecap:square;stroke-width:1.5;"/>
   </g>
   <g id="line2d_45">
    <g>
     <use style="fill:#e6e6e6;stroke:#e6e6e6;" x="210.908837" xlink:href="#maec41d4d78" y="27.506535"/>
     <use style="fill:#e6e6e6;stroke:#e6e6e6;" x="210.908837" xlink:href="#maec41d4d78" y="27.506535"/>
    </g>
   </g>
   <g id="line2d_46">
    <path d="M 109.912913 294.16 
L 109.912913 293.63715 
L 110.762074 293.63715 
L 110.762074 293.1143 
L 112.693028 293.1143 
L 112.693028 292.59145 
L 114.428693 292.59145 
L 114.428693 291.54575 
L 114.999146 291.54575 
L 114.999146 291.0229 
L 115.326896 291.0229 
L 115.326896 290.50005 
L 115.717636 290.50005 
L 115.717636 289.977201 
L 116.045624 289.977201 
L 116.045624 289.454351 
L 118.217143 289.454351 
L 118.217143 288.931501 
L 118.442313 288.931501 
L 118.442313 286.840101 
L 118.699401 286.840101 
L 118.699401 285.794401 
L 118.883987 285.794401 
L 118.883987 285.271551 
L 119.325776 285.271551 
L 119.325776 284.748701 
L 120.155363 284.748701 
L 120.155363 284.225851 
L 121.536881 284.225851 
L 121.644702 282.134452 
L 121.887263 282.134452 
L 121.887263 281.611602 
L 123.158902 281.611602 
L 123.158902 281.088752 
L 124.301052 281.088752 
L 124.301052 280.565902 
L 124.48424 280.565902 
L 124.48424 280.043052 
L 124.92577 280.043052 
L 124.92577 278.997352 
L 126.775951 278.997352 
L 126.826613 277.428802 
L 127.020634 277.428802 
L 127.020634 275.860252 
L 127.332194 275.860252 
L 127.332194 275.337402 
L 127.741292 275.337402 
L 127.741292 274.814553 
L 128.147567 274.814553 
L 128.147567 274.291703 
L 128.970694 274.291703 
L 128.970694 273.768853 
L 129.374155 273.768853 
L 129.374155 272.723153 
L 131.674167 272.723153 
L 131.674167 272.200303 
L 132.822945 272.200303 
L 132.822945 271.677453 
L 133.502553 271.677453 
L 133.502553 270.631753 
L 150.564118 270.631753 
L 150.564118 269.586053 
L 151.180797 269.586053 
L 151.236729 268.540353 
L 151.494786 268.540353 
L 151.494786 268.017503 
L 151.708327 268.017503 
L 151.708327 266.971804 
L 153.172125 266.971804 
L 153.172125 266.448954 
L 153.313418 266.448954 
L 153.313418 265.926104 
L 153.962804 265.926104 
L 153.962804 264.880404 
L 154.942346 264.880404 
L 154.942346 264.357554 
L 155.996482 264.357554 
L 156.00706 263.311854 
L 158.100237 263.311854 
L 158.100237 262.266154 
L 164.620715 262.266154 
L 164.620715 261.743304 
L 165.580542 261.743304 
L 165.580542 261.220454 
L 166.858965 261.220454 
L 166.858965 260.174754 
L 167.261141 260.174754 
L 167.261141 259.651904 
L 168.446794 259.651904 
L 168.446794 258.606205 
L 168.819482 258.606205 
L 168.819482 258.083355 
L 169.238188 258.083355 
L 169.238188 257.037655 
L 182.194677 257.037655 
L 182.194677 255.469105 
L 184.167335 255.469105 
L 184.167335 254.946255 
L 184.758489 254.946255 
L 184.758489 254.423405 
L 185.171217 254.423405 
L 185.171217 253.377705 
L 185.561254 253.377705 
L 185.561254 252.854855 
L 185.718104 252.854855 
L 185.718104 252.332005 
L 186.144374 252.332005 
L 186.144374 251.809156 
L 186.531726 251.809156 
L 186.531726 251.286306 
L 186.753657 251.286306 
L 186.753657 250.763456 
L 196.405235 250.763456 
L 196.47243 249.717756 
L 196.681249 249.717756 
L 196.753666 246.580656 
L 196.871033 246.580656 
L 196.871033 246.057806 
L 196.98736 246.057806 
L 197.091421 243.966407 
L 197.184156 243.966407 
L 197.214676 241.875007 
L 197.306391 241.875007 
L 197.410561 238.215057 
L 197.431557 238.215057 
L 197.501475 236.646507 
L 197.563818 236.646507 
L 197.649245 235.077958 
L 197.699505 235.077958 
L 197.810257 230.895158 
L 197.854844 230.895158 
L 197.914652 223.052409 
L 197.991817 223.052409 
L 198.083138 209.458311 
L 198.11985 209.458311 
L 198.217971 207.366911 
L 198.278223 207.366911 
L 198.377016 185.407214 
L 198.414673 185.407214 
L 198.505005 161.878967 
L 198.540716 161.878967 
L 198.651823 154.559068 
L 198.660654 154.559068 
L 198.725754 142.01067 
L 198.802214 142.01067 
L 198.819936 140.96497 
L 198.958676 140.96497 
L 199.068845 136.259321 
L 199.105663 136.259321 
L 199.196293 120.050973 
L 199.224511 120.050973 
L 199.328748 110.116824 
L 199.336071 110.116824 
L 199.412509 103.842625 
L 199.467877 103.842625 
L 199.467877 101.751225 
L 199.587496 101.751225 
L 199.620193 98.614125 
L 199.744873 98.614125 
L 199.766307 89.202827 
L 199.868243 89.202827 
L 199.949113 67.765979 
L 200.077942 67.765979 
L 200.077942 66.72028 
L 200.341245 66.72028 
L 200.341245 65.67458 
L 200.643793 65.67458 
L 200.646546 64.62888 
L 200.890197 64.62888 
L 201.000629 54.694731 
L 201.389696 54.694731 
L 201.429006 40.577783 
L 201.521937 40.577783 
L 201.521937 39.532083 
L 210.272008 39.532083 
L 210.272008 39.009233 
L 210.540924 39.009233 
L 210.540924 38.486383 
L 210.669048 38.486383 
L 210.669048 37.963533 
L 210.822611 37.963533 
L 210.908837 27.506535 
L 333.534194 27.506535 
L 333.534194 27.506535 
" style="fill:none;stroke:#e6e6e6;stroke-linecap:square;stroke-width:1.5;"/>
   </g>
   <g id="line2d_47"/>
   <g id="line2d_48">
    <path d="M 0 0 
" style="fill:none;stroke:#e6e6e6;stroke-linecap:square;stroke-width:1.5;"/>
   </g>
   <g id="line2d_49">
    <g>
     <use style="fill:#e6e6e6;stroke:#e6e6e6;" x="244.748067" xlink:href="#maec41d4d78" y="262.789004"/>
     <use style="fill:#e6e6e6;stroke:#e6e6e6;" x="244.748067" xlink:href="#maec41d4d78" y="262.789004"/>
    </g>
   </g>
   <g id="line2d_50">
    <path d="M 178.158455 294.16 
L 178.158455 293.63715 
L 178.822574 293.63715 
L 178.822574 293.1143 
L 178.915138 293.1143 
L 178.915138 292.0686 
L 181.189575 292.0686 
L 181.189575 291.54575 
L 185.030023 291.54575 
L 185.030023 291.0229 
L 185.276176 291.0229 
L 185.276176 289.977201 
L 186.550051 289.977201 
L 186.550051 289.454351 
L 193.458242 289.454351 
L 193.458242 288.931501 
L 193.577643 288.931501 
L 193.577643 288.408651 
L 194.262163 288.408651 
L 194.262163 287.362951 
L 195.665549 287.362951 
L 195.665549 286.840101 
L 195.828606 286.840101 
L 195.828606 286.317251 
L 196.825901 286.317251 
L 196.825901 285.794401 
L 197.062861 285.794401 
L 197.062861 284.748701 
L 197.139238 284.748701 
L 197.139238 284.225851 
L 197.1396 284.225851 
L 197.1396 283.703001 
L 197.885698 283.703001 
L 197.885698 282.657301 
L 199.547925 282.657301 
L 199.547925 282.134452 
L 199.594291 282.134452 
L 199.594291 281.611602 
L 200.166428 281.611602 
L 200.166428 281.088752 
L 200.615156 281.088752 
L 200.615156 280.565902 
L 200.91596 280.565902 
L 200.91596 280.043052 
L 201.03488 280.043052 
L 201.03488 279.520202 
L 201.467663 279.520202 
L 201.467663 277.951652 
L 202.660889 277.951652 
L 202.660889 276.905952 
L 202.725382 276.905952 
L 202.725382 275.337402 
L 202.829679 275.337402 
L 202.829679 274.814553 
L 203.273921 274.814553 
L 203.273921 273.768853 
L 203.572756 273.768853 
L 203.572756 273.246003 
L 205.309953 273.246003 
L 205.309953 272.723153 
L 206.183476 272.723153 
L 206.183476 272.200303 
L 207.131446 272.200303 
L 207.131446 271.677453 
L 207.248456 271.677453 
L 207.248456 271.154603 
L 209.110044 271.154603 
L 209.110044 270.108903 
L 210.278855 270.108903 
L 210.278855 269.586053 
L 210.53031 269.586053 
L 210.53031 268.540353 
L 210.980956 268.540353 
L 210.980956 268.017503 
L 211.113016 268.017503 
L 211.113016 266.971804 
L 212.725924 266.971804 
L 212.725924 266.448954 
L 225.002937 266.448954 
L 225.002937 265.926104 
L 225.740224 265.926104 
L 225.740224 265.403254 
L 230.675577 265.403254 
L 230.675577 264.357554 
L 232.543453 264.357554 
L 232.543453 263.834704 
L 236.340582 263.834704 
L 236.340582 263.311854 
L 244.748067 263.311854 
L 244.748067 262.789004 
L 333.534194 262.789004 
" style="fill:none;stroke:#e6e6e6;stroke-linecap:square;stroke-width:1.5;"/>
   </g>
   <g id="line2d_51"/>
   <g id="line2d_52">
    <path d="M 0 0 
" style="fill:none;stroke:#e6e6e6;stroke-linecap:square;stroke-width:1.5;"/>
   </g>
   <g id="line2d_53">
    <path clip-path="url(#p7aec75cfcc)" d="M 214.873868 266.448954 
" style="fill:none;stroke:#e6e6e6;stroke-linecap:square;stroke-width:1.5;"/>
    <g clip-path="url(#p7aec75cfcc)">
     <use style="fill:#e6e6e6;stroke:#e6e6e6;stroke-width:3;" x="214.873868" xlink:href="#m139e13f18a" y="266.448954"/>
    </g>
   </g>
   <g id="line2d_54">
    <path clip-path="url(#p7aec75cfcc)" d="M 56.66 294.16 
L 56.66 294.16 
L 56.66 294.16 
L 56.66 294.16 
L 399.984 294.16 
" style="fill:none;stroke:#e6e6e6;stroke-linecap:square;stroke-width:1.5;"/>
   </g>
   <g id="line2d_55"/>
   <g id="line2d_56">
    <path clip-path="url(#p7aec75cfcc)" d="M 0 0 
" style="fill:none;stroke:#e6e6e6;stroke-linecap:square;stroke-width:1.5;"/>
   </g>
   <g id="line2d_57">
    <g>
     <use style="fill:#e6e6e6;stroke:#e6e6e6;" x="330.999324" xlink:href="#maec41d4d78" y="283.703001"/>
     <use style="fill:#e6e6e6;stroke:#e6e6e6;" x="330.999324" xlink:href="#maec41d4d78" y="283.703001"/>
    </g>
   </g>
   <g id="line2d_58">
    <path d="M 208.196349 294.16 
L 208.196349 293.63715 
L 234.698654 293.63715 
L 234.698654 291.54575 
L 241.119807 291.54575 
L 241.119807 291.0229 
L 246.939082 291.0229 
L 246.939082 289.977201 
L 255.15151 289.977201 
L 255.15151 289.454351 
L 269.092693 289.454351 
L 269.092693 288.931501 
L 275.56738 288.931501 
L 275.56738 288.408651 
L 296.965152 288.408651 
L 296.965152 287.885801 
L 302.837803 287.885801 
L 302.837803 287.362951 
L 307.201204 287.362951 
L 307.201204 286.840101 
L 313.519414 286.840101 
L 313.519414 286.317251 
L 322.540423 286.317251 
L 322.540423 285.794401 
L 324.028484 285.794401 
L 324.028484 285.271551 
L 324.06206 285.271551 
L 324.06206 284.748701 
L 330.582106 284.748701 
L 330.582106 284.225851 
L 330.999324 284.225851 
L 330.999324 283.703001 
L 333.534194 283.703001 
" style="fill:none;stroke:#e6e6e6;stroke-linecap:square;stroke-width:1.5;"/>
   </g>
   <g id="line2d_59"/>
   <g id="line2d_60">
    <path d="M 0 0 
" style="fill:none;stroke:#e6e6e6;stroke-linecap:square;stroke-width:1.5;"/>
   </g>
   <g id="line2d_61">
    <path clip-path="url(#p7aec75cfcc)" d="M 269.41899 288.931501 
" style="fill:none;stroke:#e6e6e6;stroke-linecap:square;stroke-width:1.5;"/>
    <g clip-path="url(#p7aec75cfcc)">
     <use style="fill:#e6e6e6;stroke:#e6e6e6;stroke-width:3;" x="269.41899" xlink:href="#m139e13f18a" y="288.931501"/>
    </g>
   </g>
   <g id="line2d_62">
    <g>
     <use style="fill:#e6e6e6;stroke:#e6e6e6;" x="251.328291" xlink:href="#maec41d4d78" y="268.017503"/>
     <use style="fill:#e6e6e6;stroke:#e6e6e6;" x="251.328291" xlink:href="#maec41d4d78" y="268.017503"/>
    </g>
   </g>
   <g id="line2d_63">
    <path d="M 140.184341 294.16 
L 140.184341 293.63715 
L 145.521652 293.63715 
L 145.521652 293.1143 
L 148.135521 293.1143 
L 148.135521 292.59145 
L 148.623907 292.59145 
L 148.623907 292.0686 
L 149.248334 292.0686 
L 149.248334 291.54575 
L 149.566667 291.54575 
L 149.566667 291.0229 
L 152.514231 291.0229 
L 152.514231 290.50005 
L 153.106519 290.50005 
L 153.106519 289.977201 
L 153.170566 289.977201 
L 153.170566 289.454351 
L 156.508592 289.454351 
L 156.508592 288.931501 
L 157.007122 288.931501 
L 157.007122 288.408651 
L 161.25766 288.408651 
L 161.25766 286.840101 
L 161.336353 286.840101 
L 161.336353 285.794401 
L 163.01037 285.794401 
L 163.01037 285.271551 
L 163.210557 285.271551 
L 163.210557 283.703001 
L 164.088145 283.703001 
L 164.088145 283.180151 
L 164.098052 283.180151 
L 164.098052 282.657301 
L 164.121146 282.657301 
L 164.121146 282.134452 
L 165.467362 282.134452 
L 165.467362 281.611602 
L 172.088037 281.611602 
L 172.088037 281.088752 
L 172.209936 281.088752 
L 172.209936 280.043052 
L 174.76923 280.043052 
L 174.76923 279.520202 
L 177.468381 279.520202 
L 177.468381 278.997352 
L 177.724912 278.997352 
L 177.724912 278.474502 
L 179.765337 278.474502 
L 179.765337 277.951652 
L 181.727891 277.951652 
L 181.727891 277.428802 
L 184.23673 277.428802 
L 184.23673 276.905952 
L 186.971885 276.905952 
L 186.971885 276.383102 
L 194.943895 276.383102 
L 194.943895 275.337402 
L 197.353138 275.337402 
L 197.353138 274.814553 
L 198.168072 274.814553 
L 198.168072 274.291703 
L 203.95931 274.291703 
L 203.95931 273.768853 
L 204.935556 273.768853 
L 204.935556 273.246003 
L 209.828919 273.246003 
L 209.828919 272.723153 
L 214.188866 272.723153 
L 214.188866 272.200303 
L 217.210434 272.200303 
L 217.210434 271.677453 
L 224.447609 271.677453 
L 224.447609 271.154603 
L 227.992607 271.154603 
L 227.992607 270.631753 
L 229.523847 270.631753 
L 229.523847 270.108903 
L 232.229137 270.108903 
L 232.229137 269.586053 
L 236.622299 269.586053 
L 236.622299 269.063203 
L 248.661482 269.063203 
L 248.661482 268.540353 
L 251.328291 268.540353 
L 251.328291 268.017503 
L 333.534194 268.017503 
" style="fill:none;stroke:#e6e6e6;stroke-linecap:square;stroke-width:1.5;"/>
   </g>
   <g id="line2d_64"/>
   <g id="line2d_65">
    <path d="M 0 0 
" style="fill:none;stroke:#e6e6e6;stroke-linecap:square;stroke-width:1.5;"/>
   </g>
   <g id="line2d_66">
    <path clip-path="url(#p7aec75cfcc)" d="M 187.235732 276.383102 
" style="fill:none;stroke:#e6e6e6;stroke-linecap:square;stroke-width:1.5;"/>
    <g clip-path="url(#p7aec75cfcc)">
     <use style="fill:#e6e6e6;stroke:#e6e6e6;stroke-width:3;" x="187.235732" xlink:href="#m139e13f18a" y="276.383102"/>
    </g>
   </g>
   <g id="line2d_67">
    <g>
     <use style="fill:#e6e6e6;stroke:#e6e6e6;" x="220.464497" xlink:href="#maec41d4d78" y="278.474502"/>
     <use style="fill:#e6e6e6;stroke:#e6e6e6;" x="220.464497" xlink:href="#maec41d4d78" y="278.474502"/>
    </g>
   </g>
   <g id="line2d_68">
    <path d="M 146.243706 294.16 
L 146.243706 292.0686 
L 156.428808 292.0686 
L 156.428808 291.0229 
L 161.390548 291.0229 
L 161.390548 289.977201 
L 161.571247 289.977201 
L 161.571247 289.454351 
L 162.977806 289.454351 
L 162.977806 287.362951 
L 164.382085 287.362951 
L 164.382085 286.840101 
L 172.134626 286.840101 
L 172.134626 285.271551 
L 173.182928 285.271551 
L 173.182928 284.225851 
L 176.104406 284.225851 
L 176.104406 283.703001 
L 190.717439 283.703001 
L 190.717439 282.134452 
L 202.952011 282.134452 
L 202.952011 281.611602 
L 203.330019 281.611602 
L 203.330019 281.088752 
L 210.368741 281.088752 
L 210.368741 280.565902 
L 215.394877 280.565902 
L 215.394877 280.043052 
L 215.714757 280.043052 
L 215.714757 279.520202 
L 216.428279 279.520202 
L 216.428279 278.997352 
L 220.464497 278.997352 
L 220.464497 278.474502 
L 333.534194 278.474502 
" style="fill:none;stroke:#e6e6e6;stroke-linecap:square;stroke-width:1.5;"/>
   </g>
   <g id="line2d_69"/>
   <g id="line2d_70">
    <path d="M 0 0 
" style="fill:none;stroke:#e6e6e6;stroke-linecap:square;stroke-width:1.5;"/>
   </g>
   <g id="line2d_71">
    <path clip-path="url(#p7aec75cfcc)" d="M 192.101187 282.134452 
" style="fill:none;stroke:#e6e6e6;stroke-linecap:square;stroke-width:1.5;"/>
    <g clip-path="url(#p7aec75cfcc)">
     <use style="fill:#e6e6e6;stroke:#e6e6e6;stroke-width:3;" x="192.101187" xlink:href="#m139e13f18a" y="282.134452"/>
    </g>
   </g>
   <g id="line2d_72">
    <g>
     <use style="fill:#e6e6e6;stroke:#e6e6e6;" x="250.896709" xlink:href="#maec41d4d78" y="278.474502"/>
     <use style="fill:#e6e6e6;stroke:#e6e6e6;" x="250.896709" xlink:href="#maec41d4d78" y="278.474502"/>
    </g>
   </g>
   <g id="line2d_73">
    <path d="M 116.852119 294.16 
L 116.852119 293.63715 
L 120.037743 293.63715 
L 120.037743 293.1143 
L 121.732419 293.1143 
L 121.732419 292.59145 
L 143.035569 292.59145 
L 143.035569 291.54575 
L 152.939819 291.54575 
L 152.939819 291.0229 
L 160.456367 291.0229 
L 160.456367 289.977201 
L 166.190409 289.977201 
L 166.190409 288.931501 
L 166.457221 288.931501 
L 166.457221 288.408651 
L 175.801838 288.408651 
L 175.801838 287.885801 
L 183.586457 287.885801 
L 183.586457 286.840101 
L 184.058453 286.840101 
L 184.058453 286.317251 
L 193.002566 286.317251 
L 193.002566 284.225851 
L 198.223971 284.225851 
L 198.223971 283.180151 
L 199.160313 283.180151 
L 199.160313 282.657301 
L 200.813258 282.657301 
L 200.813258 282.134452 
L 202.258208 282.134452 
L 202.258208 281.088752 
L 208.606035 281.088752 
L 208.606035 280.565902 
L 209.809841 280.565902 
L 209.809841 280.043052 
L 212.944395 280.043052 
L 212.944395 279.520202 
L 219.964246 279.520202 
L 219.964246 278.997352 
L 250.896709 278.997352 
L 250.896709 278.474502 
L 333.534194 278.474502 
" style="fill:none;stroke:#e6e6e6;stroke-linecap:square;stroke-width:1.5;"/>
   </g>
   <g id="line2d_74"/>
   <g id="line2d_75">
    <path d="M 0 0 
" style="fill:none;stroke:#e6e6e6;stroke-linecap:square;stroke-width:1.5;"/>
   </g>
   <g id="line2d_76">
    <path clip-path="url(#p7aec75cfcc)" d="M 217.543775 279.520202 
" style="fill:none;stroke:#e6e6e6;stroke-linecap:square;stroke-width:1.5;"/>
    <g clip-path="url(#p7aec75cfcc)">
     <use style="fill:#e6e6e6;stroke:#e6e6e6;stroke-width:3;" x="217.543775" xlink:href="#m139e13f18a" y="279.520202"/>
    </g>
   </g>
   <g id="line2d_77">
    <g>
     <use style="fill:#e6e6e6;stroke:#e6e6e6;" x="285.378283" xlink:href="#maec41d4d78" y="268.017503"/>
     <use style="fill:#e6e6e6;stroke:#e6e6e6;" x="285.378283" xlink:href="#maec41d4d78" y="268.017503"/>
    </g>
   </g>
   <g id="line2d_78">
    <path d="M 193.32446 294.16 
L 193.32446 293.63715 
L 194.195742 293.63715 
L 194.195742 293.1143 
L 194.226628 293.1143 
L 194.226628 292.0686 
L 195.60962 292.0686 
L 195.60962 291.54575 
L 195.752697 291.54575 
L 195.752697 291.0229 
L 195.884735 291.0229 
L 195.884735 290.50005 
L 196.34346 290.50005 
L 196.34346 289.977201 
L 196.581019 289.977201 
L 196.581019 289.454351 
L 197.167792 289.454351 
L 197.167792 288.931501 
L 198.328028 288.931501 
L 198.328028 288.408651 
L 198.90523 288.408651 
L 198.90523 287.885801 
L 199.15967 287.885801 
L 199.15967 287.362951 
L 200.200767 287.362951 
L 200.200767 286.840101 
L 201.308536 286.840101 
L 201.308536 286.317251 
L 202.101032 286.317251 
L 202.101032 285.794401 
L 203.526261 285.794401 
L 203.526261 285.271551 
L 203.854086 285.271551 
L 203.854086 284.748701 
L 206.250295 284.748701 
L 206.250295 284.225851 
L 211.22634 284.225851 
L 211.22634 282.657301 
L 211.454073 282.657301 
L 211.454073 282.134452 
L 212.420235 282.134452 
L 212.420235 281.088752 
L 214.079381 281.088752 
L 214.079381 280.043052 
L 214.707601 280.043052 
L 214.707601 278.997352 
L 215.968576 278.997352 
L 215.968576 277.428802 
L 251.499465 277.428802 
L 251.499465 276.905952 
L 255.102 276.905952 
L 255.102 276.383102 
L 255.189942 276.383102 
L 255.189942 275.860252 
L 255.272359 275.860252 
L 255.272359 275.337402 
L 255.308686 275.337402 
L 255.308686 274.291703 
L 255.443519 274.291703 
L 255.443519 273.768853 
L 255.497661 273.768853 
L 255.497661 273.246003 
L 255.974511 273.246003 
L 255.974511 272.723153 
L 264.932452 272.723153 
L 264.932452 272.200303 
L 266.846242 272.200303 
L 266.846242 271.677453 
L 267.062944 271.677453 
L 267.062944 271.154603 
L 267.225912 271.154603 
L 267.225912 270.631753 
L 273.837272 270.631753 
L 273.837272 270.108903 
L 278.514747 270.108903 
L 278.514747 269.586053 
L 278.589203 269.586053 
L 278.589203 268.540353 
L 285.378283 268.540353 
L 285.378283 268.017503 
L 333.534194 268.017503 
" style="fill:none;stroke:#e6e6e6;stroke-linecap:square;stroke-width:1.5;"/>
   </g>
   <g id="line2d_79"/>
   <g id="line2d_80">
    <path d="M 0 0 
" style="fill:none;stroke:#e6e6e6;stroke-linecap:square;stroke-width:1.5;"/>
   </g>
   <g id="line2d_81">
    <path clip-path="url(#p7aec75cfcc)" d="M 254.427281 276.905952 
" style="fill:none;stroke:#e6e6e6;stroke-linecap:square;stroke-width:1.5;"/>
    <g clip-path="url(#p7aec75cfcc)">
     <use style="fill:#e6e6e6;stroke:#e6e6e6;stroke-width:3;" x="254.427281" xlink:href="#m139e13f18a" y="276.905952"/>
    </g>
   </g>
   <g id="line2d_82">
    <g>
     <use style="fill:#e6e6e6;stroke:#e6e6e6;" x="194.502833" xlink:href="#maec41d4d78" y="27.506535"/>
     <use style="fill:#e6e6e6;stroke:#e6e6e6;" x="194.502833" xlink:href="#maec41d4d78" y="27.506535"/>
    </g>
   </g>
   <g id="line2d_83">
    <path d="M 107.663291 294.16 
L 107.663291 293.63715 
L 112.873074 293.63715 
L 112.873074 293.1143 
L 113.48092 293.1143 
L 113.48092 292.59145 
L 115.027896 292.59145 
L 115.027896 292.0686 
L 116.903705 292.0686 
L 116.903705 291.0229 
L 117.952678 291.0229 
L 117.952678 290.50005 
L 118.217143 290.50005 
L 118.217143 289.977201 
L 118.536245 289.977201 
L 118.536245 289.454351 
L 119.168489 289.454351 
L 119.168489 288.931501 
L 119.303394 288.931501 
L 119.303394 288.408651 
L 119.437248 288.408651 
L 119.437248 286.840101 
L 120.834418 286.840101 
L 120.895767 285.271551 
L 122.050269 285.271551 
L 122.050269 284.748701 
L 122.173885 284.748701 
L 122.240081 283.180151 
L 122.769816 283.180151 
L 122.769816 282.657301 
L 123.015153 282.657301 
L 123.015153 282.134452 
L 123.265929 282.134452 
L 123.265929 281.611602 
L 125.142351 281.611602 
L 125.142351 281.088752 
L 125.387697 281.088752 
L 125.387697 280.565902 
L 128.446089 280.565902 
L 128.446089 280.043052 
L 128.823353 280.043052 
L 128.823353 279.520202 
L 129.066109 279.520202 
L 129.066109 278.474502 
L 129.560065 278.474502 
L 129.560065 277.428802 
L 129.883666 277.428802 
L 129.883666 276.905952 
L 144.972665 276.905952 
L 144.972665 276.383102 
L 145.647746 276.383102 
L 145.647746 275.860252 
L 146.431698 275.860252 
L 146.431698 275.337402 
L 147.350735 275.337402 
L 147.350735 274.291703 
L 148.698915 274.291703 
L 148.698915 273.768853 
L 149.013599 273.768853 
L 149.013599 273.246003 
L 155.946146 273.246003 
L 155.946146 272.200303 
L 156.861843 272.200303 
L 156.861843 271.677453 
L 157.014603 271.677453 
L 157.014603 270.631753 
L 157.562977 270.631753 
L 157.562977 270.108903 
L 157.706061 270.108903 
L 157.706061 269.063203 
L 158.437443 269.063203 
L 158.437443 268.540353 
L 158.711784 268.540353 
L 158.711784 268.017503 
L 159.38612 268.017503 
L 159.38612 267.494653 
L 162.336994 267.494653 
L 162.336994 266.448954 
L 168.557287 266.448954 
L 168.557287 265.403254 
L 168.707512 265.403254 
L 168.739038 263.834704 
L 168.837655 263.834704 
L 168.837655 262.789004 
L 169.019578 262.789004 
L 169.019578 262.266154 
L 169.206339 262.266154 
L 169.29012 261.220454 
L 169.648125 261.220454 
L 169.648125 260.697604 
L 170.351677 260.697604 
L 170.351677 259.651904 
L 170.823433 259.651904 
L 170.823433 259.129055 
L 171.172491 259.129055 
L 171.172491 258.083355 
L 178.543632 258.083355 
L 178.543632 257.037655 
L 179.093956 257.037655 
L 179.093956 255.991955 
L 179.488945 255.991955 
L 179.570956 253.900555 
L 180.339148 253.900555 
L 180.363499 252.332005 
L 180.639514 252.332005 
L 180.639514 251.809156 
L 180.775095 251.809156 
L 180.775095 251.286306 
L 181.1737 251.286306 
L 181.1737 250.763456 
L 181.873956 250.763456 
L 181.919933 248.672056 
L 182.485484 248.672056 
L 182.485484 248.149206 
L 183.014358 248.149206 
L 183.014358 247.626356 
L 188.726197 247.626356 
L 188.726197 246.057806 
L 189.147219 246.057806 
L 189.147219 245.534956 
L 189.408853 245.534956 
L 189.465116 244.489256 
L 189.536032 244.489256 
L 189.536032 243.966407 
L 189.702479 243.966407 
L 189.702479 242.920707 
L 189.821234 242.920707 
L 189.868066 241.352157 
L 189.975076 241.352157 
L 189.978369 238.737907 
L 190.110495 238.737907 
L 190.209694 236.123658 
L 190.378888 236.123658 
L 190.378888 235.077958 
L 190.492895 235.077958 
L 190.590623 230.895158 
L 190.642799 230.895158 
L 190.753675 228.803758 
L 190.761193 228.803758 
L 190.862624 224.620959 
L 190.890231 224.620959 
L 190.936316 221.483859 
L 191.00194 221.483859 
L 191.022094 220.43816 
L 191.146288 220.43816 
L 191.25652 218.86961 
L 191.260425 218.86961 
L 191.343252 196.909913 
L 191.43728 196.909913 
L 191.544664 193.249963 
L 191.595191 193.249963 
L 191.698285 181.224415 
L 191.776725 181.224415 
L 191.884961 171.813116 
L 191.946738 171.813116 
L 192.056668 154.559068 
L 192.058775 154.559068 
L 192.168958 138.35072 
L 192.185055 138.35072 
L 192.288357 125.279472 
L 192.320632 125.279472 
L 192.430581 92.862776 
L 192.437241 92.862776 
L 192.534787 85.542877 
L 192.622216 85.542877 
L 192.647607 84.497177 
L 192.786278 84.497177 
L 192.893913 73.517329 
L 193.053118 73.517329 
L 193.108706 72.471629 
L 193.201461 72.471629 
L 193.201461 63.58318 
L 193.34673 63.58318 
L 193.433425 52.080481 
L 193.576159 52.080481 
L 193.663921 49.466232 
L 193.863519 49.466232 
L 193.9626 48.420532 
L 194.033251 48.420532 
L 194.107785 39.532083 
L 194.271143 39.532083 
L 194.285386 37.440683 
L 194.400324 37.440683 
L 194.502833 27.506535 
L 333.534194 27.506535 
L 333.534194 27.506535 
" style="fill:none;stroke:#e6e6e6;stroke-linecap:square;stroke-width:1.5;"/>
   </g>
   <g id="line2d_84"/>
   <g id="line2d_85">
    <path d="M 0 0 
" style="fill:none;stroke:#e6e6e6;stroke-linecap:square;stroke-width:1.5;"/>
   </g>
   <g id="line2d_86">
    <g>
     <use style="fill:#e6e6e6;stroke:#e6e6e6;" x="280.949473" xlink:href="#maec41d4d78" y="283.703001"/>
     <use style="fill:#e6e6e6;stroke:#e6e6e6;" x="280.949473" xlink:href="#maec41d4d78" y="283.703001"/>
    </g>
   </g>
   <g id="line2d_87">
    <path d="M 173.676702 294.16 
L 173.676702 293.63715 
L 189.87322 293.63715 
L 189.87322 293.1143 
L 190.429216 293.1143 
L 190.429216 292.59145 
L 190.871137 292.59145 
L 190.871137 291.54575 
L 205.108238 291.54575 
L 205.108238 291.0229 
L 205.654195 291.0229 
L 205.654195 290.50005 
L 213.129395 290.50005 
L 213.129395 289.977201 
L 217.707833 289.977201 
L 217.707833 289.454351 
L 220.131514 289.454351 
L 220.131514 288.931501 
L 225.271139 288.931501 
L 225.271139 288.408651 
L 237.949222 288.408651 
L 237.949222 287.885801 
L 250.229041 287.885801 
L 250.229041 287.362951 
L 255.79974 287.362951 
L 255.79974 286.840101 
L 258.710369 286.840101 
L 258.710369 286.317251 
L 262.319345 286.317251 
L 262.319345 285.794401 
L 266.188942 285.794401 
L 266.188942 285.271551 
L 267.03399 285.271551 
L 267.03399 284.748701 
L 278.594366 284.748701 
L 278.594366 284.225851 
L 280.949473 284.225851 
L 280.949473 283.703001 
L 333.534194 283.703001 
" style="fill:none;stroke:#e6e6e6;stroke-linecap:square;stroke-width:1.5;"/>
   </g>
   <g id="line2d_88"/>
   <g id="line2d_89">
    <path d="M 0 0 
" style="fill:none;stroke:#e6e6e6;stroke-linecap:square;stroke-width:1.5;"/>
   </g>
   <g id="line2d_90">
    <path clip-path="url(#p7aec75cfcc)" d="M 214.873825 289.977201 
" style="fill:none;stroke:#e6e6e6;stroke-linecap:square;stroke-width:1.5;"/>
    <g clip-path="url(#p7aec75cfcc)">
     <use style="fill:#e6e6e6;stroke:#e6e6e6;stroke-width:3;" x="214.873825" xlink:href="#m139e13f18a" y="289.977201"/>
    </g>
   </g>
   <g id="line2d_91">
    <g>
     <use style="fill:#e6e6e6;stroke:#e6e6e6;" x="262.406206" xlink:href="#maec41d4d78" y="288.931501"/>
     <use style="fill:#e6e6e6;stroke:#e6e6e6;" x="262.406206" xlink:href="#maec41d4d78" y="288.931501"/>
    </g>
   </g>
   <g id="line2d_92">
    <path d="M 210.38442 294.16 
L 210.38442 293.63715 
L 218.402243 293.63715 
L 218.402243 293.1143 
L 238.305302 293.1143 
L 238.305302 292.0686 
L 239.639719 292.0686 
L 239.639719 291.54575 
L 248.851015 291.54575 
L 248.851015 291.0229 
L 250.404179 291.0229 
L 250.404179 290.50005 
L 252.448651 290.50005 
L 252.448651 289.977201 
L 254.814576 289.977201 
L 254.814576 289.454351 
L 262.406206 289.454351 
L 262.406206 288.931501 
L 333.534194 288.931501 
" style="fill:none;stroke:#e6e6e6;stroke-linecap:square;stroke-width:1.5;"/>
   </g>
   <g id="line2d_93"/>
   <g id="line2d_94">
    <path d="M 0 0 
" style="fill:none;stroke:#e6e6e6;stroke-linecap:square;stroke-width:1.5;"/>
   </g>
   <g id="line2d_95">
    <path clip-path="url(#p7aec75cfcc)" d="M 214.873825 293.63715 
" style="fill:none;stroke:#e6e6e6;stroke-linecap:square;stroke-width:1.5;"/>
    <g clip-path="url(#p7aec75cfcc)">
     <use style="fill:#e6e6e6;stroke:#e6e6e6;stroke-width:3;" x="214.873825" xlink:href="#m139e13f18a" y="293.63715"/>
    </g>
   </g>
   <g id="line2d_96">
    <g>
     <use style="fill:#e6e6e6;stroke:#e6e6e6;" x="248.754057" xlink:href="#maec41d4d78" y="283.703001"/>
     <use style="fill:#e6e6e6;stroke:#e6e6e6;" x="248.754057" xlink:href="#maec41d4d78" y="283.703001"/>
    </g>
   </g>
   <g id="line2d_97">
    <path d="M 122.613527 294.16 
L 122.613527 293.1143 
L 175.597265 293.1143 
L 175.597265 292.59145 
L 175.824372 292.59145 
L 175.824372 292.0686 
L 185.431587 292.0686 
L 185.431587 291.54575 
L 189.465305 291.54575 
L 189.465305 290.50005 
L 194.701588 290.50005 
L 194.701588 289.977201 
L 198.889664 289.977201 
L 198.889664 289.454351 
L 202.694693 289.454351 
L 202.694693 288.931501 
L 206.018086 288.931501 
L 206.018086 288.408651 
L 215.52772 288.408651 
L 215.52772 287.885801 
L 218.348479 287.885801 
L 218.348479 287.362951 
L 218.599494 287.362951 
L 218.599494 286.840101 
L 220.61872 286.840101 
L 220.61872 286.317251 
L 226.852512 286.317251 
L 226.852512 285.794401 
L 231.366604 285.794401 
L 231.366604 285.271551 
L 231.381641 285.271551 
L 231.381641 284.748701 
L 235.93523 284.748701 
L 235.93523 284.225851 
L 248.754057 284.225851 
L 248.754057 283.703001 
L 333.534194 283.703001 
" style="fill:none;stroke:#e6e6e6;stroke-linecap:square;stroke-width:1.5;"/>
   </g>
   <g id="line2d_98"/>
   <g id="line2d_99">
    <path d="M 0 0 
" style="fill:none;stroke:#e6e6e6;stroke-linecap:square;stroke-width:1.5;"/>
   </g>
   <g id="line2d_100">
    <path clip-path="url(#p7aec75cfcc)" d="M 214.926737 288.408651 
" style="fill:none;stroke:#e6e6e6;stroke-linecap:square;stroke-width:1.5;"/>
    <g clip-path="url(#p7aec75cfcc)">
     <use style="fill:#e6e6e6;stroke:#e6e6e6;stroke-width:3;" x="214.926737" xlink:href="#m139e13f18a" y="288.408651"/>
    </g>
   </g>
   <g id="line2d_101">
    <g>
     <use style="fill:#e6e6e6;stroke:#e6e6e6;" x="302.88715" xlink:href="#maec41d4d78" y="283.703001"/>
     <use style="fill:#e6e6e6;stroke:#e6e6e6;" x="302.88715" xlink:href="#maec41d4d78" y="283.703001"/>
    </g>
   </g>
   <g id="line2d_102">
    <path d="M 133.131099 294.16 
L 133.131099 293.63715 
L 223.376066 293.63715 
L 223.376066 292.59145 
L 233.888416 292.59145 
L 233.888416 292.0686 
L 235.116127 292.0686 
L 235.116127 291.0229 
L 239.112979 291.0229 
L 239.112979 290.50005 
L 239.314371 290.50005 
L 239.314371 289.977201 
L 242.039253 289.977201 
L 242.039253 289.454351 
L 243.538381 289.454351 
L 243.538381 288.931501 
L 259.291338 288.931501 
L 259.291338 288.408651 
L 271.92566 288.408651 
L 271.92566 287.885801 
L 278.827832 287.885801 
L 278.827832 287.362951 
L 278.939792 287.362951 
L 278.939792 286.840101 
L 288.220634 286.840101 
L 288.220634 286.317251 
L 292.270148 286.317251 
L 292.270148 285.794401 
L 292.337802 285.794401 
L 292.337802 285.271551 
L 293.84497 285.271551 
L 293.84497 284.748701 
L 294.983321 284.748701 
L 294.983321 284.225851 
L 302.88715 284.225851 
L 302.88715 283.703001 
L 333.534194 283.703001 
" style="fill:none;stroke:#e6e6e6;stroke-linecap:square;stroke-width:1.5;"/>
   </g>
   <g id="line2d_103"/>
   <g id="line2d_104">
    <path d="M 0 0 
" style="fill:none;stroke:#e6e6e6;stroke-linecap:square;stroke-width:1.5;"/>
   </g>
   <g id="line2d_105">
    <path clip-path="url(#p7aec75cfcc)" d="M 244.975324 288.931501 
" style="fill:none;stroke:#e6e6e6;stroke-linecap:square;stroke-width:1.5;"/>
    <g clip-path="url(#p7aec75cfcc)">
     <use style="fill:#e6e6e6;stroke:#e6e6e6;stroke-width:3;" x="244.975324" xlink:href="#m139e13f18a" y="288.931501"/>
    </g>
   </g>
   <g id="line2d_106">
    <path clip-path="url(#p7aec75cfcc)" d="M 56.66 294.16 
L 56.66 294.16 
L 56.66 294.16 
L 56.66 294.16 
L 399.984 294.16 
" style="fill:none;stroke:#e6e6e6;stroke-linecap:square;stroke-width:1.5;"/>
   </g>
   <g id="line2d_107"/>
   <g id="line2d_108">
    <path clip-path="url(#p7aec75cfcc)" d="M 0 0 
" style="fill:none;stroke:#e6e6e6;stroke-linecap:square;stroke-width:1.5;"/>
   </g>
   <g id="line2d_109">
    <path clip-path="url(#p7aec75cfcc)" d="M 56.66 294.16 
L 56.66 294.16 
L 56.66 294.16 
L 56.66 294.16 
L 399.984 294.16 
" style="fill:none;stroke:#e6e6e6;stroke-linecap:square;stroke-width:1.5;"/>
   </g>
   <g id="line2d_110"/>
   <g id="line2d_111">
    <path clip-path="url(#p7aec75cfcc)" d="M 0 0 
" style="fill:none;stroke:#e6e6e6;stroke-linecap:square;stroke-width:1.5;"/>
   </g>
   <g id="line2d_112">
    <path clip-path="url(#p7aec75cfcc)" d="M 56.66 294.16 
L 56.66 294.16 
L 56.66 294.16 
L 56.66 294.16 
L 399.984 294.16 
" style="fill:none;stroke:#e6e6e6;stroke-linecap:square;stroke-width:1.5;"/>
   </g>
   <g id="line2d_113"/>
   <g id="line2d_114">
    <path clip-path="url(#p7aec75cfcc)" d="M 0 0 
" style="fill:none;stroke:#e6e6e6;stroke-linecap:square;stroke-width:1.5;"/>
   </g>
   <g id="line2d_115">
    <g>
     <use style="fill:#e6e6e6;stroke:#e6e6e6;" x="219.564518" xlink:href="#maec41d4d78" y="27.506535"/>
     <use style="fill:#e6e6e6;stroke:#e6e6e6;" x="219.564518" xlink:href="#maec41d4d78" y="27.506535"/>
    </g>
   </g>
   <g id="line2d_116">
    <path d="M 138.297928 294.16 
L 138.297928 293.63715 
L 138.834266 293.63715 
L 138.834266 293.1143 
L 139.641216 293.1143 
L 139.658344 291.0229 
L 140.300173 291.0229 
L 140.379152 289.454351 
L 140.411953 289.454351 
L 140.411953 287.885801 
L 140.665673 287.885801 
L 140.665673 286.840101 
L 141.36174 286.840101 
L 141.36174 286.317251 
L 142.945323 286.317251 
L 142.945323 285.271551 
L 143.122546 285.271551 
L 143.122546 284.225851 
L 143.832509 284.225851 
L 143.870062 283.180151 
L 144.214904 283.180151 
L 144.214904 282.134452 
L 144.418534 282.134452 
L 144.418534 281.611602 
L 144.671003 281.611602 
L 144.671003 280.565902 
L 144.980202 280.565902 
L 145.002793 279.520202 
L 145.659822 279.520202 
L 145.659822 278.997352 
L 146.343761 278.997352 
L 146.343761 278.474502 
L 146.774489 278.474502 
L 146.774489 277.951652 
L 147.088372 277.951652 
L 147.121664 276.905952 
L 147.265191 276.905952 
L 147.265191 276.383102 
L 148.235562 276.383102 
L 148.241796 274.814553 
L 148.654355 274.814553 
L 148.654355 274.291703 
L 148.791714 274.291703 
L 148.791714 273.768853 
L 148.929979 273.768853 
L 148.929979 273.246003 
L 149.27574 273.246003 
L 149.27574 272.723153 
L 149.672118 272.723153 
L 149.76172 271.677453 
L 150.465844 271.677453 
L 150.465844 271.154603 
L 150.598562 271.154603 
L 150.598562 270.631753 
L 150.844902 270.631753 
L 150.844902 269.586053 
L 151.07191 269.586053 
L 151.07191 269.063203 
L 151.791316 269.063203 
L 151.894072 267.494653 
L 152.127606 267.494653 
L 152.127606 266.971804 
L 152.239902 266.971804 
L 152.317091 265.926104 
L 152.473684 265.926104 
L 152.473684 265.403254 
L 152.70593 265.403254 
L 152.70593 264.357554 
L 153.201722 264.357554 
L 153.201722 263.834704 
L 153.551438 263.834704 
L 153.551438 263.311854 
L 153.789213 263.311854 
L 153.789213 262.789004 
L 154.711558 262.789004 
L 154.762797 261.220454 
L 154.828048 261.220454 
L 154.85634 259.129055 
L 155.411253 259.129055 
L 155.519028 257.037655 
L 156.240758 257.037655 
L 156.317524 255.991955 
L 156.523991 255.991955 
L 156.523991 254.946255 
L 156.893257 254.946255 
L 156.893257 253.900555 
L 157.148709 253.900555 
L 157.148709 253.377705 
L 157.882368 253.377705 
L 157.883553 250.763456 
L 158.279514 250.763456 
L 158.286461 249.717756 
L 158.445473 249.717756 
L 158.445473 248.672056 
L 158.578007 248.672056 
L 158.578007 248.149206 
L 158.876995 248.149206 
L 158.951771 247.103506 
L 159.067201 247.103506 
L 159.156568 244.489256 
L 159.178563 244.489256 
L 159.178563 243.966407 
L 159.318666 243.966407 
L 159.35025 242.397857 
L 159.598708 242.397857 
L 159.598708 241.352157 
L 159.994154 241.352157 
L 159.994154 239.783607 
L 160.215955 239.783607 
L 160.321164 238.215057 
L 160.542869 238.215057 
L 160.542869 237.692207 
L 160.683394 237.692207 
L 160.76175 235.600808 
L 161.727341 235.600808 
L 161.782208 234.555108 
L 162.058588 234.555108 
L 162.058588 234.032258 
L 162.406352 234.032258 
L 162.493563 231.940858 
L 162.62985 231.940858 
L 162.682808 230.895158 
L 162.808713 230.895158 
L 162.89391 229.849458 
L 163.091075 229.849458 
L 163.091075 228.803758 
L 163.252223 228.803758 
L 163.258291 227.758059 
L 163.580265 227.758059 
L 163.580265 226.712359 
L 164.256609 226.712359 
L 164.256609 225.666659 
L 164.450142 225.666659 
L 164.553331 223.052409 
L 164.633519 223.052409 
L 164.633519 222.006709 
L 164.746747 222.006709 
L 164.829994 220.43816 
L 165.564636 220.43816 
L 165.564636 219.91531 
L 165.728297 219.91531 
L 165.728297 218.86961 
L 166.030375 218.86961 
L 166.118652 217.82391 
L 166.78854 217.82391 
L 166.78854 217.30106 
L 167.389728 217.30106 
L 167.482151 205.798361 
L 167.756476 205.798361 
L 167.867509 195.864213 
L 167.973878 195.864213 
L 168.023861 188.021464 
L 168.187912 188.021464 
L 168.294907 184.884364 
L 168.449357 184.884364 
L 168.52989 161.356117 
L 168.633515 161.356117 
L 168.691728 158.741868 
L 168.781193 158.741868 
L 168.781193 158.219018 
L 168.918886 158.219018 
L 169.002837 156.650468 
L 169.070939 156.650468 
L 169.109822 153.513368 
L 169.460091 153.513368 
L 169.460091 152.990518 
L 183.050267 152.990518 
L 183.105764 151.421969 
L 183.213241 151.421969 
L 183.213241 150.899119 
L 183.411189 150.899119 
L 183.444941 149.853419 
L 183.562287 149.853419 
L 183.57982 148.807719 
L 183.71918 148.807719 
L 183.830227 147.239169 
L 183.947578 147.239169 
L 183.947578 146.193469 
L 184.360483 146.193469 
L 184.422279 144.624919 
L 184.530895 144.624919 
L 184.547217 143.05637 
L 185.053433 143.05637 
L 185.161049 141.48782 
L 185.193953 141.48782 
L 185.28844 139.39642 
L 185.432779 139.39642 
L 185.51814 129.462271 
L 185.609922 129.462271 
L 185.609922 128.939421 
L 185.751362 128.939421 
L 185.843539 111.162524 
L 185.86517 111.162524 
L 185.942862 109.071124 
L 186.524122 109.071124 
L 186.582184 95.477026 
L 186.775715 95.477026 
L 186.881421 79.268678 
L 187.00846 79.268678 
L 187.046909 78.222978 
L 199.87719 78.222978 
L 199.87719 77.700128 
L 200.052111 77.700128 
L 200.052111 67.243129 
L 200.177849 67.243129 
L 200.177849 66.72028 
L 200.29846 66.72028 
L 200.383125 56.263281 
L 200.462904 56.263281 
L 200.462904 55.217581 
L 200.628841 55.217581 
L 200.702395 53.649031 
L 200.849925 53.649031 
L 200.849925 53.126181 
L 210.555121 53.126181 
L 210.634729 42.146333 
L 210.66636 42.146333 
L 210.684948 40.577783 
L 219.418725 40.577783 
L 219.418725 30.643634 
L 219.538647 30.643634 
L 219.564518 27.506535 
L 333.534194 27.506535 
L 333.534194 27.506535 
" style="fill:none;stroke:#e6e6e6;stroke-linecap:square;stroke-width:1.5;"/>
   </g>
   <g id="line2d_117"/>
   <g id="line2d_118">
    <path d="M 0 0 
" style="fill:none;stroke:#e6e6e6;stroke-linecap:square;stroke-width:1.5;"/>
   </g>
   <g id="line2d_119">
    <path d="M 333.534194 294.16 
L 333.534194 27.506535 
" style="fill:none;stroke:#000000;stroke-linecap:square;stroke-width:1.5;"/>
   </g>
   <g id="patch_3">
    <path d="M 56.66 294.16 
L 56.66 24.84 
" style="fill:none;stroke:#000000;stroke-linecap:square;stroke-linejoin:miter;stroke-width:0.8;"/>
   </g>
   <g id="patch_4">
    <path d="M 399.984 294.16 
L 399.984 24.84 
" style="fill:none;stroke:#000000;stroke-linecap:square;stroke-linejoin:miter;stroke-width:0.8;"/>
   </g>
   <g id="patch_5">
    <path d="M 56.66 294.16 
L 399.984 294.16 
" style="fill:none;stroke:#000000;stroke-linecap:square;stroke-linejoin:miter;stroke-width:0.8;"/>
   </g>
   <g id="patch_6">
    <path d="M 56.66 24.84 
L 399.984 24.84 
" style="fill:none;stroke:#000000;stroke-linecap:square;stroke-linejoin:miter;stroke-width:0.8;"/>
   </g>
   <g id="text_14">
    <!-- best 2009 -->
    <defs>
     <path d="M 48.6875 27.296875 
Q 48.6875 37.203125 44.609375 42.84375 
Q 40.53125 48.484375 33.40625 48.484375 
Q 26.265625 48.484375 22.1875 42.84375 
Q 18.109375 37.203125 18.109375 27.296875 
Q 18.109375 17.390625 22.1875 11.75 
Q 26.265625 6.109375 33.40625 6.109375 
Q 40.53125 6.109375 44.609375 11.75 
Q 48.6875 17.390625 48.6875 27.296875 
z
M 18.109375 46.390625 
Q 20.953125 51.265625 25.265625 53.625 
Q 29.59375 56 35.59375 56 
Q 45.5625 56 51.78125 48.09375 
Q 58.015625 40.1875 58.015625 27.296875 
Q 58.015625 14.40625 51.78125 6.484375 
Q 45.5625 -1.421875 35.59375 -1.421875 
Q 29.59375 -1.421875 25.265625 0.953125 
Q 20.953125 3.328125 18.109375 8.203125 
L 18.109375 0 
L 9.078125 0 
L 9.078125 75.984375 
L 18.109375 75.984375 
z
" id="DejaVuSans-62"/>
     <path d="M 10.984375 1.515625 
L 10.984375 10.5 
Q 14.703125 8.734375 18.5 7.8125 
Q 22.3125 6.890625 25.984375 6.890625 
Q 35.75 6.890625 40.890625 13.453125 
Q 46.046875 20.015625 46.78125 33.40625 
Q 43.953125 29.203125 39.59375 26.953125 
Q 35.25 24.703125 29.984375 24.703125 
Q 19.046875 24.703125 12.671875 31.3125 
Q 6.296875 37.9375 6.296875 49.421875 
Q 6.296875 60.640625 12.9375 67.421875 
Q 19.578125 74.21875 30.609375 74.21875 
Q 43.265625 74.21875 49.921875 64.515625 
Q 56.59375 54.828125 56.59375 36.375 
Q 56.59375 19.140625 48.40625 8.859375 
Q 40.234375 -1.421875 26.421875 -1.421875 
Q 22.703125 -1.421875 18.890625 -0.6875 
Q 15.09375 0.046875 10.984375 1.515625 
z
M 30.609375 32.421875 
Q 37.25 32.421875 41.125 36.953125 
Q 45.015625 41.5 45.015625 49.421875 
Q 45.015625 57.28125 41.125 61.84375 
Q 37.25 66.40625 30.609375 66.40625 
Q 23.96875 66.40625 20.09375 61.84375 
Q 16.21875 57.28125 16.21875 49.421875 
Q 16.21875 41.5 20.09375 36.953125 
Q 23.96875 32.421875 30.609375 32.421875 
z
" id="DejaVuSans-39"/>
    </defs>
    <g transform="translate(369.527839 293.517868)scale(0.17 -0.17)">
     <use xlink:href="#DejaVuSans-62"/>
     <use x="63.476562" xlink:href="#DejaVuSans-65"/>
     <use x="125" xlink:href="#DejaVuSans-73"/>
     <use x="177.099609" xlink:href="#DejaVuSans-74"/>
     <use x="216.308594" xlink:href="#DejaVuSans-20"/>
     <use x="248.095703" xlink:href="#DejaVuSans-32"/>
     <use x="311.71875" xlink:href="#DejaVuSans-30"/>
     <use x="375.341797" xlink:href="#DejaVuSans-30"/>
     <use x="438.964844" xlink:href="#DejaVuSans-39"/>
    </g>
   </g>
   <g id="text_15">
    <!-- bbob f7, 40-D -->
    <defs>
     <path d="M 8.203125 72.90625 
L 55.078125 72.90625 
L 55.078125 68.703125 
L 28.609375 0 
L 18.3125 0 
L 43.21875 64.59375 
L 8.203125 64.59375 
z
" id="DejaVuSans-37"/>
     <path d="M 19.671875 64.796875 
L 19.671875 8.109375 
L 31.59375 8.109375 
Q 46.6875 8.109375 53.6875 14.9375 
Q 60.6875 21.78125 60.6875 36.53125 
Q 60.6875 51.171875 53.6875 57.984375 
Q 46.6875 64.796875 31.59375 64.796875 
z
M 9.8125 72.90625 
L 30.078125 72.90625 
Q 51.265625 72.90625 61.171875 64.09375 
Q 71.09375 55.28125 71.09375 36.53125 
Q 71.09375 17.671875 61.125 8.828125 
Q 51.171875 0 30.078125 0 
L 9.8125 0 
z
" id="DejaVuSans-44"/>
    </defs>
    <g transform="translate(60.09324 35.283606)scale(0.102 -0.102)">
     <use xlink:href="#DejaVuSans-62"/>
     <use x="63.476562" xlink:href="#DejaVuSans-62"/>
     <use x="126.953125" xlink:href="#DejaVuSans-6f"/>
     <use x="188.134766" xlink:href="#DejaVuSans-62"/>
     <use x="251.611328" xlink:href="#DejaVuSans-20"/>
     <use x="283.398438" xlink:href="#DejaVuSans-66"/>
     <use x="318.603516" xlink:href="#DejaVuSans-37"/>
     <use x="382.226562" xlink:href="#DejaVuSans-2c"/>
     <use x="414.013672" xlink:href="#DejaVuSans-20"/>
     <use x="445.800781" xlink:href="#DejaVuSans-34"/>
     <use x="509.423828" xlink:href="#DejaVuSans-30"/>
     <use x="573.046875" xlink:href="#DejaVuSans-2d"/>
     <use x="609.130859" xlink:href="#DejaVuSans-44"/>
    </g>
    <!-- 51 targets: 100..1e-08 -->
    <defs>
     <path d="M 10.796875 72.90625 
L 49.515625 72.90625 
L 49.515625 64.59375 
L 19.828125 64.59375 
L 19.828125 46.734375 
Q 21.96875 47.46875 24.109375 47.828125 
Q 26.265625 48.1875 28.421875 48.1875 
Q 40.625 48.1875 47.75 41.5 
Q 54.890625 34.8125 54.890625 23.390625 
Q 54.890625 11.625 47.5625 5.09375 
Q 40.234375 -1.421875 26.90625 -1.421875 
Q 22.3125 -1.421875 17.546875 -0.640625 
Q 12.796875 0.140625 7.71875 1.703125 
L 7.71875 11.625 
Q 12.109375 9.234375 16.796875 8.0625 
Q 21.484375 6.890625 26.703125 6.890625 
Q 35.15625 6.890625 40.078125 11.328125 
Q 45.015625 15.765625 45.015625 23.390625 
Q 45.015625 31 40.078125 35.4375 
Q 35.15625 39.890625 26.703125 39.890625 
Q 22.75 39.890625 18.8125 39.015625 
Q 14.890625 38.140625 10.796875 36.28125 
z
" id="DejaVuSans-35"/>
     <path d="M 11.71875 12.40625 
L 22.015625 12.40625 
L 22.015625 0 
L 11.71875 0 
z
M 11.71875 51.703125 
L 22.015625 51.703125 
L 22.015625 39.3125 
L 11.71875 39.3125 
z
" id="DejaVuSans-3a"/>
    </defs>
    <g transform="translate(60.09324 46.705375)scale(0.102 -0.102)">
     <use xlink:href="#DejaVuSans-35"/>
     <use x="63.623047" xlink:href="#DejaVuSans-31"/>
     <use x="127.246094" xlink:href="#DejaVuSans-20"/>
     <use x="159.033203" xlink:href="#DejaVuSans-74"/>
     <use x="198.242188" xlink:href="#DejaVuSans-61"/>
     <use x="259.521484" xlink:href="#DejaVuSans-72"/>
     <use x="300.619141" xlink:href="#DejaVuSans-67"/>
     <use x="364.095703" xlink:href="#DejaVuSans-65"/>
     <use x="425.619141" xlink:href="#DejaVuSans-74"/>
     <use x="464.828125" xlink:href="#DejaVuSans-73"/>
     <use x="516.927734" xlink:href="#DejaVuSans-3a"/>
     <use x="550.619141" xlink:href="#DejaVuSans-20"/>
     <use x="582.40625" xlink:href="#DejaVuSans-31"/>
     <use x="646.029297" xlink:href="#DejaVuSans-30"/>
     <use x="709.652344" xlink:href="#DejaVuSans-30"/>
     <use x="773.275391" xlink:href="#DejaVuSans-2e"/>
     <use x="805.0625" xlink:href="#DejaVuSans-2e"/>
     <use x="836.849609" xlink:href="#DejaVuSans-31"/>
     <use x="900.472656" xlink:href="#DejaVuSans-65"/>
     <use x="961.996094" xlink:href="#DejaVuSans-2d"/>
     <use x="998.080078" xlink:href="#DejaVuSans-30"/>
     <use x="1061.703125" xlink:href="#DejaVuSans-38"/>
    </g>
    <!-- 5, 15 instances -->
    <g transform="translate(60.09324 58.127144)scale(0.102 -0.102)">
     <use xlink:href="#DejaVuSans-35"/>
     <use x="63.623047" xlink:href="#DejaVuSans-2c"/>
     <use x="95.410156" xlink:href="#DejaVuSans-20"/>
     <use x="127.197266" xlink:href="#DejaVuSans-31"/>
     <use x="190.820312" xlink:href="#DejaVuSans-35"/>
     <use x="254.443359" xlink:href="#DejaVuSans-20"/>
     <use x="286.230469" xlink:href="#DejaVuSans-69"/>
     <use x="314.013672" xlink:href="#DejaVuSans-6e"/>
     <use x="377.392578" xlink:href="#DejaVuSans-73"/>
     <use x="429.492188" xlink:href="#DejaVuSans-74"/>
     <use x="468.701172" xlink:href="#DejaVuSans-61"/>
     <use x="529.980469" xlink:href="#DejaVuSans-6e"/>
     <use x="593.359375" xlink:href="#DejaVuSans-63"/>
     <use x="648.339844" xlink:href="#DejaVuSans-65"/>
     <use x="709.863281" xlink:href="#DejaVuSans-73"/>
    </g>
   </g>
   <g id="text_16">
    <!-- v2.0.760 -->
    <g style="fill:#808080;" transform="translate(206.27825 289.387113)scale(0.1 -0.1)">
     <use xlink:href="#DejaVuSans-76"/>
     <use x="59.179688" xlink:href="#DejaVuSans-32"/>
     <use x="122.802734" xlink:href="#DejaVuSans-2e"/>
     <use x="154.589844" xlink:href="#DejaVuSans-30"/>
     <use x="218.212891" xlink:href="#DejaVuSans-2e"/>
     <use x="250" xlink:href="#DejaVuSans-37"/>
     <use x="313.623047" xlink:href="#DejaVuSans-36"/>
     <use x="377.246094" xlink:href="#DejaVuSans-30"/>
    </g>
   </g>
   <g id="text_17">
    <!-- 7 Step-ellipsoid -->
    <defs>
     <path d="M 53.515625 70.515625 
L 53.515625 60.890625 
Q 47.90625 63.578125 42.921875 64.890625 
Q 37.9375 66.21875 33.296875 66.21875 
Q 25.25 66.21875 20.875 63.09375 
Q 16.5 59.96875 16.5 54.203125 
Q 16.5 49.359375 19.40625 46.890625 
Q 22.3125 44.4375 30.421875 42.921875 
L 36.375 41.703125 
Q 47.40625 39.59375 52.65625 34.296875 
Q 57.90625 29 57.90625 20.125 
Q 57.90625 9.515625 50.796875 4.046875 
Q 43.703125 -1.421875 29.984375 -1.421875 
Q 24.8125 -1.421875 18.96875 -0.25 
Q 13.140625 0.921875 6.890625 3.21875 
L 6.890625 13.375 
Q 12.890625 10.015625 18.65625 8.296875 
Q 24.421875 6.59375 29.984375 6.59375 
Q 38.421875 6.59375 43.015625 9.90625 
Q 47.609375 13.234375 47.609375 19.390625 
Q 47.609375 24.75 44.3125 27.78125 
Q 41.015625 30.8125 33.5 32.328125 
L 27.484375 33.5 
Q 16.453125 35.6875 11.515625 40.375 
Q 6.59375 45.0625 6.59375 53.421875 
Q 6.59375 63.09375 13.40625 68.65625 
Q 20.21875 74.21875 32.171875 74.21875 
Q 37.3125 74.21875 42.625 73.28125 
Q 47.953125 72.359375 53.515625 70.515625 
z
" id="DejaVuSans-53"/>
    </defs>
    <g transform="translate(151.112625 18.84)scale(0.2 -0.2)">
     <use xlink:href="#DejaVuSans-37"/>
     <use x="63.623047" xlink:href="#DejaVuSans-20"/>
     <use x="95.410156" xlink:href="#DejaVuSans-53"/>
     <use x="158.886719" xlink:href="#DejaVuSans-74"/>
     <use x="198.095703" xlink:href="#DejaVuSans-65"/>
     <use x="259.619141" xlink:href="#DejaVuSans-70"/>
     <use x="323.095703" xlink:href="#DejaVuSans-2d"/>
     <use x="359.179688" xlink:href="#DejaVuSans-65"/>
     <use x="420.703125" xlink:href="#DejaVuSans-6c"/>
     <use x="448.486328" xlink:href="#DejaVuSans-6c"/>
     <use x="476.269531" xlink:href="#DejaVuSans-69"/>
     <use x="504.052734" xlink:href="#DejaVuSans-70"/>
     <use x="567.529297" xlink:href="#DejaVuSans-73"/>
     <use x="619.628906" xlink:href="#DejaVuSans-6f"/>
     <use x="680.810547" xlink:href="#DejaVuSans-69"/>
     <use x="708.59375" xlink:href="#DejaVuSans-64"/>
    </g>
   </g>
  </g>
 </g>
 <defs>
  <clipPath id="p7aec75cfcc">
   <rect height="269.32" width="343.324" x="56.66" y="24.84"/>
  </clipPath>
 </defs>
</svg>
