<?xml version="1.0" encoding="utf-8" standalone="no"?>
<!DOCTYPE svg PUBLIC "-//W3C//DTD SVG 1.1//EN"
  "http://www.w3.org/Graphics/SVG/1.1/DTD/svg11.dtd">
<!-- Created with matplotlib (http://matplotlib.org/) -->
<svg height="345pt" version="1.1" viewBox="0 0 460 345" width="460pt" xmlns="http://www.w3.org/2000/svg" xmlns:xlink="http://www.w3.org/1999/xlink">
 <defs>
  <style type="text/css">
*{stroke-linecap:butt;stroke-linejoin:round;}
  </style>
 </defs>
 <g id="figure_1">
  <g id="patch_1">
   <path d="M 0 345.6 
L 460.8 345.6 
L 460.8 0 
L 0 0 
z
" style="fill:#ffffff;"/>
  </g>
  <g id="axes_1">
   <g id="patch_2">
    <path d="M 56.12 294.88 
L 399.984 294.88 
L 399.984 24.84 
L 56.12 24.84 
z
" style="fill:#ffffff;"/>
   </g>
   <g id="line2d_1">
    <path d="M 149.339565 294.88 
L 149.339565 289.637523 
L 165.034264 289.637523 
L 165.034264 284.395046 
L 170.914155 284.395046 
L 170.914155 279.152568 
L 172.176454 279.152568 
L 172.176454 273.910091 
L 173.242479 273.910091 
L 173.242479 268.667614 
L 174.256601 268.667614 
L 174.256601 263.425137 
L 176.735359 263.425137 
L 176.735359 258.18266 
L 178.459277 258.18266 
L 178.459277 252.940182 
L 179.500787 252.940182 
L 179.500787 247.697705 
L 180.465967 247.697705 
L 180.465967 242.455228 
L 181.283897 242.455228 
L 181.283897 237.212751 
L 182.502959 237.212751 
L 182.502959 231.970274 
L 183.697095 231.970274 
L 183.697095 226.727797 
L 184.561906 226.727797 
L 184.561906 221.485319 
L 185.287386 221.485319 
L 185.287386 216.242842 
L 185.761704 216.242842 
L 185.761704 211.000365 
L 186.453831 211.000365 
L 186.453831 205.757888 
L 186.944261 205.757888 
L 186.944261 200.515411 
L 187.466502 200.515411 
L 187.466502 195.272933 
L 187.89096 195.272933 
L 187.89096 190.030456 
L 188.294892 190.030456 
L 188.294892 184.787979 
L 188.728842 184.787979 
L 188.728842 179.545502 
L 189.047885 179.545502 
L 189.047885 174.303025 
L 189.455508 174.303025 
L 189.455508 169.060547 
L 189.999192 169.060547 
L 189.999192 163.81807 
L 190.33133 163.81807 
L 190.33133 158.575593 
L 190.719444 158.575593 
L 190.719444 153.333116 
L 191.097985 153.333116 
L 191.097985 148.090639 
L 191.49078 148.090639 
L 191.49078 142.848162 
L 191.81029 142.848162 
L 191.81029 137.605684 
L 192.205182 137.605684 
L 192.205182 132.363207 
L 192.549934 132.363207 
L 192.549934 127.12073 
L 192.939593 127.12073 
L 192.939593 121.878253 
L 193.336304 121.878253 
L 193.336304 116.635776 
L 193.644514 116.635776 
L 193.644514 111.393298 
L 193.954007 111.393298 
L 193.954007 106.150821 
L 194.289118 106.150821 
L 194.289118 100.908344 
L 194.576048 100.908344 
L 194.576048 95.665867 
L 194.932963 95.665867 
L 194.932963 90.42339 
L 195.147657 90.42339 
L 195.147657 85.180912 
L 195.538493 85.180912 
L 195.538493 79.938435 
L 195.884597 79.938435 
L 195.884597 74.695958 
L 196.172537 74.695958 
L 196.172537 69.453481 
L 196.487041 69.453481 
L 196.487041 64.211004 
L 196.762487 64.211004 
L 196.762487 58.968526 
L 197.088256 58.968526 
L 197.088256 53.726049 
L 197.36368 53.726049 
L 197.36368 48.483572 
L 197.57326 48.483572 
L 197.57326 43.241095 
L 197.829815 43.241095 
L 197.829815 37.998618 
L 198.070814 37.998618 
L 198.070814 32.756141 
L 198.334161 32.756141 
L 198.334161 27.513663 
L 333.429677 27.513663 
" style="fill:none;stroke:#f5deb3;stroke-linecap:square;stroke-width:6;"/>
   </g>
   <g id="line2d_2">
    <path d="M 0 0 
" style="fill:none;stroke:#f5deb3;stroke-linecap:square;stroke-width:6;"/>
    <defs>
     <path d="M -0 7.778175 
L 7.778175 0 
L 0 -7.778175 
L -7.778175 -0 
z
" id="m276ff0ab56" style="stroke:#f5deb3;stroke-linejoin:miter;stroke-width:1.5;"/>
    </defs>
    <g>
     <use style="fill:#f5deb3;stroke:#f5deb3;stroke-linejoin:miter;stroke-width:1.5;" x="0" xlink:href="#m276ff0ab56" y="0"/>
    </g>
   </g>
   <g id="line2d_3">
    <path d="M 333.429677 27.513663 
L 363.933742 32.86099 
" style="fill:none;stroke:#f5deb3;stroke-linecap:square;stroke-width:6;"/>
    <g>
     <use style="fill:#f5deb3;stroke:#f5deb3;stroke-linejoin:miter;stroke-width:1.5;" x="333.429677" xlink:href="#m276ff0ab56" y="27.513663"/>
     <use style="fill:#f5deb3;stroke:#f5deb3;stroke-linejoin:miter;stroke-width:1.5;" x="363.933742" xlink:href="#m276ff0ab56" y="32.86099"/>
    </g>
   </g>
   <g id="matplotlib.axis_1">
    <g id="xtick_1">
     <g id="line2d_4">
      <path clip-path="url(#p6f47b46b83)" d="M 56.12 294.88 
L 56.12 24.84 
" style="fill:none;stroke:#b0b0b0;stroke-linecap:square;stroke-width:0.8;"/>
     </g>
     <g id="line2d_5">
      <defs>
       <path d="M 0 0 
L 0 3.5 
" id="m7ae05cfd3d" style="stroke:#000000;stroke-width:0.8;"/>
      </defs>
      <g>
       <use style="stroke:#000000;stroke-width:0.8;" x="56.12" xlink:href="#m7ae05cfd3d" y="294.88"/>
      </g>
     </g>
     <g id="text_1">
      <!-- 0 -->
      <defs>
       <path d="M 31.78125 66.40625 
Q 24.171875 66.40625 20.328125 58.90625 
Q 16.5 51.421875 16.5 36.375 
Q 16.5 21.390625 20.328125 13.890625 
Q 24.171875 6.390625 31.78125 6.390625 
Q 39.453125 6.390625 43.28125 13.890625 
Q 47.125 21.390625 47.125 36.375 
Q 47.125 51.421875 43.28125 58.90625 
Q 39.453125 66.40625 31.78125 66.40625 
z
M 31.78125 74.21875 
Q 44.046875 74.21875 50.515625 64.515625 
Q 56.984375 54.828125 56.984375 36.375 
Q 56.984375 17.96875 50.515625 8.265625 
Q 44.046875 -1.421875 31.78125 -1.421875 
Q 19.53125 -1.421875 13.0625 8.265625 
Q 6.59375 17.96875 6.59375 36.375 
Q 6.59375 54.828125 13.0625 64.515625 
Q 19.53125 74.21875 31.78125 74.21875 
z
" id="DejaVuSans-30"/>
      </defs>
      <g transform="translate(49.7575 317.076875)scale(0.2 -0.2)">
       <use xlink:href="#DejaVuSans-30"/>
      </g>
     </g>
    </g>
    <g id="xtick_2">
     <g id="line2d_6">
      <path clip-path="url(#p6f47b46b83)" d="M 135.351336 294.88 
L 135.351336 24.84 
" style="fill:none;stroke:#b0b0b0;stroke-linecap:square;stroke-width:0.8;"/>
     </g>
     <g id="line2d_7">
      <g>
       <use style="stroke:#000000;stroke-width:0.8;" x="135.351336" xlink:href="#m7ae05cfd3d" y="294.88"/>
      </g>
     </g>
     <g id="text_2">
      <!-- 2 -->
      <defs>
       <path d="M 19.1875 8.296875 
L 53.609375 8.296875 
L 53.609375 0 
L 7.328125 0 
L 7.328125 8.296875 
Q 12.9375 14.109375 22.625 23.890625 
Q 32.328125 33.6875 34.8125 36.53125 
Q 39.546875 41.84375 41.421875 45.53125 
Q 43.3125 49.21875 43.3125 52.78125 
Q 43.3125 58.59375 39.234375 62.25 
Q 35.15625 65.921875 28.609375 65.921875 
Q 23.96875 65.921875 18.8125 64.3125 
Q 13.671875 62.703125 7.8125 59.421875 
L 7.8125 69.390625 
Q 13.765625 71.78125 18.9375 73 
Q 24.125 74.21875 28.421875 74.21875 
Q 39.75 74.21875 46.484375 68.546875 
Q 53.21875 62.890625 53.21875 53.421875 
Q 53.21875 48.921875 51.53125 44.890625 
Q 49.859375 40.875 45.40625 35.40625 
Q 44.1875 33.984375 37.640625 27.21875 
Q 31.109375 20.453125 19.1875 8.296875 
z
" id="DejaVuSans-32"/>
      </defs>
      <g transform="translate(128.988836 317.076875)scale(0.2 -0.2)">
       <use xlink:href="#DejaVuSans-32"/>
      </g>
     </g>
    </g>
    <g id="xtick_3">
     <g id="line2d_8">
      <path clip-path="url(#p6f47b46b83)" d="M 214.582673 294.88 
L 214.582673 24.84 
" style="fill:none;stroke:#b0b0b0;stroke-linecap:square;stroke-width:0.8;"/>
     </g>
     <g id="line2d_9">
      <g>
       <use style="stroke:#000000;stroke-width:0.8;" x="214.582673" xlink:href="#m7ae05cfd3d" y="294.88"/>
      </g>
     </g>
     <g id="text_3">
      <!-- 4 -->
      <defs>
       <path d="M 37.796875 64.3125 
L 12.890625 25.390625 
L 37.796875 25.390625 
z
M 35.203125 72.90625 
L 47.609375 72.90625 
L 47.609375 25.390625 
L 58.015625 25.390625 
L 58.015625 17.1875 
L 47.609375 17.1875 
L 47.609375 0 
L 37.796875 0 
L 37.796875 17.1875 
L 4.890625 17.1875 
L 4.890625 26.703125 
z
" id="DejaVuSans-34"/>
      </defs>
      <g transform="translate(208.220173 317.076875)scale(0.2 -0.2)">
       <use xlink:href="#DejaVuSans-34"/>
      </g>
     </g>
    </g>
    <g id="xtick_4">
     <g id="line2d_10">
      <path clip-path="url(#p6f47b46b83)" d="M 293.814009 294.88 
L 293.814009 24.84 
" style="fill:none;stroke:#b0b0b0;stroke-linecap:square;stroke-width:0.8;"/>
     </g>
     <g id="line2d_11">
      <g>
       <use style="stroke:#000000;stroke-width:0.8;" x="293.814009" xlink:href="#m7ae05cfd3d" y="294.88"/>
      </g>
     </g>
     <g id="text_4">
      <!-- 6 -->
      <defs>
       <path d="M 33.015625 40.375 
Q 26.375 40.375 22.484375 35.828125 
Q 18.609375 31.296875 18.609375 23.390625 
Q 18.609375 15.53125 22.484375 10.953125 
Q 26.375 6.390625 33.015625 6.390625 
Q 39.65625 6.390625 43.53125 10.953125 
Q 47.40625 15.53125 47.40625 23.390625 
Q 47.40625 31.296875 43.53125 35.828125 
Q 39.65625 40.375 33.015625 40.375 
z
M 52.59375 71.296875 
L 52.59375 62.3125 
Q 48.875 64.0625 45.09375 64.984375 
Q 41.3125 65.921875 37.59375 65.921875 
Q 27.828125 65.921875 22.671875 59.328125 
Q 17.53125 52.734375 16.796875 39.40625 
Q 19.671875 43.65625 24.015625 45.921875 
Q 28.375 48.1875 33.59375 48.1875 
Q 44.578125 48.1875 50.953125 41.515625 
Q 57.328125 34.859375 57.328125 23.390625 
Q 57.328125 12.15625 50.6875 5.359375 
Q 44.046875 -1.421875 33.015625 -1.421875 
Q 20.359375 -1.421875 13.671875 8.265625 
Q 6.984375 17.96875 6.984375 36.375 
Q 6.984375 53.65625 15.1875 63.9375 
Q 23.390625 74.21875 37.203125 74.21875 
Q 40.921875 74.21875 44.703125 73.484375 
Q 48.484375 72.75 52.59375 71.296875 
z
" id="DejaVuSans-36"/>
      </defs>
      <g transform="translate(287.451509 317.076875)scale(0.2 -0.2)">
       <use xlink:href="#DejaVuSans-36"/>
      </g>
     </g>
    </g>
    <g id="xtick_5">
     <g id="line2d_12">
      <path clip-path="url(#p6f47b46b83)" d="M 373.045346 294.88 
L 373.045346 24.84 
" style="fill:none;stroke:#b0b0b0;stroke-linecap:square;stroke-width:0.8;"/>
     </g>
     <g id="line2d_13">
      <g>
       <use style="stroke:#000000;stroke-width:0.8;" x="373.045346" xlink:href="#m7ae05cfd3d" y="294.88"/>
      </g>
     </g>
     <g id="text_5">
      <!-- 8 -->
      <defs>
       <path d="M 31.78125 34.625 
Q 24.75 34.625 20.71875 30.859375 
Q 16.703125 27.09375 16.703125 20.515625 
Q 16.703125 13.921875 20.71875 10.15625 
Q 24.75 6.390625 31.78125 6.390625 
Q 38.8125 6.390625 42.859375 10.171875 
Q 46.921875 13.96875 46.921875 20.515625 
Q 46.921875 27.09375 42.890625 30.859375 
Q 38.875 34.625 31.78125 34.625 
z
M 21.921875 38.8125 
Q 15.578125 40.375 12.03125 44.71875 
Q 8.5 49.078125 8.5 55.328125 
Q 8.5 64.0625 14.71875 69.140625 
Q 20.953125 74.21875 31.78125 74.21875 
Q 42.671875 74.21875 48.875 69.140625 
Q 55.078125 64.0625 55.078125 55.328125 
Q 55.078125 49.078125 51.53125 44.71875 
Q 48 40.375 41.703125 38.8125 
Q 48.828125 37.15625 52.796875 32.3125 
Q 56.78125 27.484375 56.78125 20.515625 
Q 56.78125 9.90625 50.3125 4.234375 
Q 43.84375 -1.421875 31.78125 -1.421875 
Q 19.734375 -1.421875 13.25 4.234375 
Q 6.78125 9.90625 6.78125 20.515625 
Q 6.78125 27.484375 10.78125 32.3125 
Q 14.796875 37.15625 21.921875 38.8125 
z
M 18.3125 54.390625 
Q 18.3125 48.734375 21.84375 45.5625 
Q 25.390625 42.390625 31.78125 42.390625 
Q 38.140625 42.390625 41.71875 45.5625 
Q 45.3125 48.734375 45.3125 54.390625 
Q 45.3125 60.0625 41.71875 63.234375 
Q 38.140625 66.40625 31.78125 66.40625 
Q 25.390625 66.40625 21.84375 63.234375 
Q 18.3125 60.0625 18.3125 54.390625 
z
" id="DejaVuSans-38"/>
      </defs>
      <g transform="translate(366.682846 317.076875)scale(0.2 -0.2)">
       <use xlink:href="#DejaVuSans-38"/>
      </g>
     </g>
    </g>
    <g id="text_6">
     <!-- log10(# f-evals / dimension) -->
     <defs>
      <path d="M 9.421875 75.984375 
L 18.40625 75.984375 
L 18.40625 0 
L 9.421875 0 
z
" id="DejaVuSans-6c"/>
      <path d="M 30.609375 48.390625 
Q 23.390625 48.390625 19.1875 42.75 
Q 14.984375 37.109375 14.984375 27.296875 
Q 14.984375 17.484375 19.15625 11.84375 
Q 23.34375 6.203125 30.609375 6.203125 
Q 37.796875 6.203125 41.984375 11.859375 
Q 46.1875 17.53125 46.1875 27.296875 
Q 46.1875 37.015625 41.984375 42.703125 
Q 37.796875 48.390625 30.609375 48.390625 
z
M 30.609375 56 
Q 42.328125 56 49.015625 48.375 
Q 55.71875 40.765625 55.71875 27.296875 
Q 55.71875 13.875 49.015625 6.21875 
Q 42.328125 -1.421875 30.609375 -1.421875 
Q 18.84375 -1.421875 12.171875 6.21875 
Q 5.515625 13.875 5.515625 27.296875 
Q 5.515625 40.765625 12.171875 48.375 
Q 18.84375 56 30.609375 56 
z
" id="DejaVuSans-6f"/>
      <path d="M 45.40625 27.984375 
Q 45.40625 37.75 41.375 43.109375 
Q 37.359375 48.484375 30.078125 48.484375 
Q 22.859375 48.484375 18.828125 43.109375 
Q 14.796875 37.75 14.796875 27.984375 
Q 14.796875 18.265625 18.828125 12.890625 
Q 22.859375 7.515625 30.078125 7.515625 
Q 37.359375 7.515625 41.375 12.890625 
Q 45.40625 18.265625 45.40625 27.984375 
z
M 54.390625 6.78125 
Q 54.390625 -7.171875 48.1875 -13.984375 
Q 42 -20.796875 29.203125 -20.796875 
Q 24.46875 -20.796875 20.265625 -20.09375 
Q 16.0625 -19.390625 12.109375 -17.921875 
L 12.109375 -9.1875 
Q 16.0625 -11.328125 19.921875 -12.34375 
Q 23.78125 -13.375 27.78125 -13.375 
Q 36.625 -13.375 41.015625 -8.765625 
Q 45.40625 -4.15625 45.40625 5.171875 
L 45.40625 9.625 
Q 42.625 4.78125 38.28125 2.390625 
Q 33.9375 0 27.875 0 
Q 17.828125 0 11.671875 7.65625 
Q 5.515625 15.328125 5.515625 27.984375 
Q 5.515625 40.671875 11.671875 48.328125 
Q 17.828125 56 27.875 56 
Q 33.9375 56 38.28125 53.609375 
Q 42.625 51.21875 45.40625 46.390625 
L 45.40625 54.6875 
L 54.390625 54.6875 
z
" id="DejaVuSans-67"/>
      <path d="M 12.40625 8.296875 
L 28.515625 8.296875 
L 28.515625 63.921875 
L 10.984375 60.40625 
L 10.984375 69.390625 
L 28.421875 72.90625 
L 38.28125 72.90625 
L 38.28125 8.296875 
L 54.390625 8.296875 
L 54.390625 0 
L 12.40625 0 
z
" id="DejaVuSans-31"/>
      <path d="M 31 75.875 
Q 24.46875 64.65625 21.28125 53.65625 
Q 18.109375 42.671875 18.109375 31.390625 
Q 18.109375 20.125 21.3125 9.0625 
Q 24.515625 -2 31 -13.1875 
L 23.1875 -13.1875 
Q 15.875 -1.703125 12.234375 9.375 
Q 8.59375 20.453125 8.59375 31.390625 
Q 8.59375 42.28125 12.203125 53.3125 
Q 15.828125 64.359375 23.1875 75.875 
z
" id="DejaVuSans-28"/>
      <path d="M 51.125 44 
L 36.921875 44 
L 32.8125 27.6875 
L 47.125 27.6875 
z
M 43.796875 71.78125 
L 38.71875 51.515625 
L 52.984375 51.515625 
L 58.109375 71.78125 
L 65.921875 71.78125 
L 60.890625 51.515625 
L 76.125 51.515625 
L 76.125 44 
L 58.984375 44 
L 54.984375 27.6875 
L 70.515625 27.6875 
L 70.515625 20.21875 
L 53.078125 20.21875 
L 48 0 
L 40.1875 0 
L 45.21875 20.21875 
L 30.90625 20.21875 
L 25.875 0 
L 18.015625 0 
L 23.09375 20.21875 
L 7.71875 20.21875 
L 7.71875 27.6875 
L 24.90625 27.6875 
L 29 44 
L 13.28125 44 
L 13.28125 51.515625 
L 30.90625 51.515625 
L 35.890625 71.78125 
z
" id="DejaVuSans-23"/>
      <path id="DejaVuSans-20"/>
      <path d="M 37.109375 75.984375 
L 37.109375 68.5 
L 28.515625 68.5 
Q 23.6875 68.5 21.796875 66.546875 
Q 19.921875 64.59375 19.921875 59.515625 
L 19.921875 54.6875 
L 34.71875 54.6875 
L 34.71875 47.703125 
L 19.921875 47.703125 
L 19.921875 0 
L 10.890625 0 
L 10.890625 47.703125 
L 2.296875 47.703125 
L 2.296875 54.6875 
L 10.890625 54.6875 
L 10.890625 58.5 
Q 10.890625 67.625 15.140625 71.796875 
Q 19.390625 75.984375 28.609375 75.984375 
z
" id="DejaVuSans-66"/>
      <path d="M 4.890625 31.390625 
L 31.203125 31.390625 
L 31.203125 23.390625 
L 4.890625 23.390625 
z
" id="DejaVuSans-2d"/>
      <path d="M 56.203125 29.59375 
L 56.203125 25.203125 
L 14.890625 25.203125 
Q 15.484375 15.921875 20.484375 11.0625 
Q 25.484375 6.203125 34.421875 6.203125 
Q 39.59375 6.203125 44.453125 7.46875 
Q 49.3125 8.734375 54.109375 11.28125 
L 54.109375 2.78125 
Q 49.265625 0.734375 44.1875 -0.34375 
Q 39.109375 -1.421875 33.890625 -1.421875 
Q 20.796875 -1.421875 13.15625 6.1875 
Q 5.515625 13.8125 5.515625 26.8125 
Q 5.515625 40.234375 12.765625 48.109375 
Q 20.015625 56 32.328125 56 
Q 43.359375 56 49.78125 48.890625 
Q 56.203125 41.796875 56.203125 29.59375 
z
M 47.21875 32.234375 
Q 47.125 39.59375 43.09375 43.984375 
Q 39.0625 48.390625 32.421875 48.390625 
Q 24.90625 48.390625 20.390625 44.140625 
Q 15.875 39.890625 15.1875 32.171875 
z
" id="DejaVuSans-65"/>
      <path d="M 2.984375 54.6875 
L 12.5 54.6875 
L 29.59375 8.796875 
L 46.6875 54.6875 
L 56.203125 54.6875 
L 35.6875 0 
L 23.484375 0 
z
" id="DejaVuSans-76"/>
      <path d="M 34.28125 27.484375 
Q 23.390625 27.484375 19.1875 25 
Q 14.984375 22.515625 14.984375 16.5 
Q 14.984375 11.71875 18.140625 8.90625 
Q 21.296875 6.109375 26.703125 6.109375 
Q 34.1875 6.109375 38.703125 11.40625 
Q 43.21875 16.703125 43.21875 25.484375 
L 43.21875 27.484375 
z
M 52.203125 31.203125 
L 52.203125 0 
L 43.21875 0 
L 43.21875 8.296875 
Q 40.140625 3.328125 35.546875 0.953125 
Q 30.953125 -1.421875 24.3125 -1.421875 
Q 15.921875 -1.421875 10.953125 3.296875 
Q 6 8.015625 6 15.921875 
Q 6 25.140625 12.171875 29.828125 
Q 18.359375 34.515625 30.609375 34.515625 
L 43.21875 34.515625 
L 43.21875 35.40625 
Q 43.21875 41.609375 39.140625 45 
Q 35.0625 48.390625 27.6875 48.390625 
Q 23 48.390625 18.546875 47.265625 
Q 14.109375 46.140625 10.015625 43.890625 
L 10.015625 52.203125 
Q 14.9375 54.109375 19.578125 55.046875 
Q 24.21875 56 28.609375 56 
Q 40.484375 56 46.34375 49.84375 
Q 52.203125 43.703125 52.203125 31.203125 
z
" id="DejaVuSans-61"/>
      <path d="M 44.28125 53.078125 
L 44.28125 44.578125 
Q 40.484375 46.53125 36.375 47.5 
Q 32.28125 48.484375 27.875 48.484375 
Q 21.1875 48.484375 17.84375 46.4375 
Q 14.5 44.390625 14.5 40.28125 
Q 14.5 37.15625 16.890625 35.375 
Q 19.28125 33.59375 26.515625 31.984375 
L 29.59375 31.296875 
Q 39.15625 29.25 43.1875 25.515625 
Q 47.21875 21.78125 47.21875 15.09375 
Q 47.21875 7.46875 41.1875 3.015625 
Q 35.15625 -1.421875 24.609375 -1.421875 
Q 20.21875 -1.421875 15.453125 -0.5625 
Q 10.6875 0.296875 5.421875 2 
L 5.421875 11.28125 
Q 10.40625 8.6875 15.234375 7.390625 
Q 20.0625 6.109375 24.8125 6.109375 
Q 31.15625 6.109375 34.5625 8.28125 
Q 37.984375 10.453125 37.984375 14.40625 
Q 37.984375 18.0625 35.515625 20.015625 
Q 33.0625 21.96875 24.703125 23.78125 
L 21.578125 24.515625 
Q 13.234375 26.265625 9.515625 29.90625 
Q 5.8125 33.546875 5.8125 39.890625 
Q 5.8125 47.609375 11.28125 51.796875 
Q 16.75 56 26.8125 56 
Q 31.78125 56 36.171875 55.265625 
Q 40.578125 54.546875 44.28125 53.078125 
z
" id="DejaVuSans-73"/>
      <path d="M 25.390625 72.90625 
L 33.6875 72.90625 
L 8.296875 -9.28125 
L 0 -9.28125 
z
" id="DejaVuSans-2f"/>
      <path d="M 45.40625 46.390625 
L 45.40625 75.984375 
L 54.390625 75.984375 
L 54.390625 0 
L 45.40625 0 
L 45.40625 8.203125 
Q 42.578125 3.328125 38.25 0.953125 
Q 33.9375 -1.421875 27.875 -1.421875 
Q 17.96875 -1.421875 11.734375 6.484375 
Q 5.515625 14.40625 5.515625 27.296875 
Q 5.515625 40.1875 11.734375 48.09375 
Q 17.96875 56 27.875 56 
Q 33.9375 56 38.25 53.625 
Q 42.578125 51.265625 45.40625 46.390625 
z
M 14.796875 27.296875 
Q 14.796875 17.390625 18.875 11.75 
Q 22.953125 6.109375 30.078125 6.109375 
Q 37.203125 6.109375 41.296875 11.75 
Q 45.40625 17.390625 45.40625 27.296875 
Q 45.40625 37.203125 41.296875 42.84375 
Q 37.203125 48.484375 30.078125 48.484375 
Q 22.953125 48.484375 18.875 42.84375 
Q 14.796875 37.203125 14.796875 27.296875 
z
" id="DejaVuSans-64"/>
      <path d="M 9.421875 54.6875 
L 18.40625 54.6875 
L 18.40625 0 
L 9.421875 0 
z
M 9.421875 75.984375 
L 18.40625 75.984375 
L 18.40625 64.59375 
L 9.421875 64.59375 
z
" id="DejaVuSans-69"/>
      <path d="M 52 44.1875 
Q 55.375 50.25 60.0625 53.125 
Q 64.75 56 71.09375 56 
Q 79.640625 56 84.28125 50.015625 
Q 88.921875 44.046875 88.921875 33.015625 
L 88.921875 0 
L 79.890625 0 
L 79.890625 32.71875 
Q 79.890625 40.578125 77.09375 44.375 
Q 74.3125 48.1875 68.609375 48.1875 
Q 61.625 48.1875 57.5625 43.546875 
Q 53.515625 38.921875 53.515625 30.90625 
L 53.515625 0 
L 44.484375 0 
L 44.484375 32.71875 
Q 44.484375 40.625 41.703125 44.40625 
Q 38.921875 48.1875 33.109375 48.1875 
Q 26.21875 48.1875 22.15625 43.53125 
Q 18.109375 38.875 18.109375 30.90625 
L 18.109375 0 
L 9.078125 0 
L 9.078125 54.6875 
L 18.109375 54.6875 
L 18.109375 46.1875 
Q 21.1875 51.21875 25.484375 53.609375 
Q 29.78125 56 35.6875 56 
Q 41.65625 56 45.828125 52.96875 
Q 50 49.953125 52 44.1875 
z
" id="DejaVuSans-6d"/>
      <path d="M 54.890625 33.015625 
L 54.890625 0 
L 45.90625 0 
L 45.90625 32.71875 
Q 45.90625 40.484375 42.875 44.328125 
Q 39.84375 48.1875 33.796875 48.1875 
Q 26.515625 48.1875 22.3125 43.546875 
Q 18.109375 38.921875 18.109375 30.90625 
L 18.109375 0 
L 9.078125 0 
L 9.078125 54.6875 
L 18.109375 54.6875 
L 18.109375 46.1875 
Q 21.34375 51.125 25.703125 53.5625 
Q 30.078125 56 35.796875 56 
Q 45.21875 56 50.046875 50.171875 
Q 54.890625 44.34375 54.890625 33.015625 
z
" id="DejaVuSans-6e"/>
      <path d="M 8.015625 75.875 
L 15.828125 75.875 
Q 23.140625 64.359375 26.78125 53.3125 
Q 30.421875 42.28125 30.421875 31.390625 
Q 30.421875 20.453125 26.78125 9.375 
Q 23.140625 -1.703125 15.828125 -13.1875 
L 8.015625 -13.1875 
Q 14.5 -2 17.703125 9.0625 
Q 20.90625 20.125 20.90625 31.390625 
Q 20.90625 42.671875 17.703125 53.65625 
Q 14.5 64.65625 8.015625 75.875 
z
" id="DejaVuSans-29"/>
     </defs>
     <g transform="translate(107.211219 338.153594)scale(0.17 -0.17)">
      <use xlink:href="#DejaVuSans-6c"/>
      <use x="27.783203" xlink:href="#DejaVuSans-6f"/>
      <use x="88.964844" xlink:href="#DejaVuSans-67"/>
      <use x="152.441406" xlink:href="#DejaVuSans-31"/>
      <use x="216.064453" xlink:href="#DejaVuSans-30"/>
      <use x="279.6875" xlink:href="#DejaVuSans-28"/>
      <use x="318.701172" xlink:href="#DejaVuSans-23"/>
      <use x="402.490234" xlink:href="#DejaVuSans-20"/>
      <use x="434.277344" xlink:href="#DejaVuSans-66"/>
      <use x="469.404297" xlink:href="#DejaVuSans-2d"/>
      <use x="505.488281" xlink:href="#DejaVuSans-65"/>
      <use x="567.011719" xlink:href="#DejaVuSans-76"/>
      <use x="626.191406" xlink:href="#DejaVuSans-61"/>
      <use x="687.470703" xlink:href="#DejaVuSans-6c"/>
      <use x="715.253906" xlink:href="#DejaVuSans-73"/>
      <use x="767.353516" xlink:href="#DejaVuSans-20"/>
      <use x="799.140625" xlink:href="#DejaVuSans-2f"/>
      <use x="832.832031" xlink:href="#DejaVuSans-20"/>
      <use x="864.619141" xlink:href="#DejaVuSans-64"/>
      <use x="928.095703" xlink:href="#DejaVuSans-69"/>
      <use x="955.878906" xlink:href="#DejaVuSans-6d"/>
      <use x="1053.291016" xlink:href="#DejaVuSans-65"/>
      <use x="1114.814453" xlink:href="#DejaVuSans-6e"/>
      <use x="1178.193359" xlink:href="#DejaVuSans-73"/>
      <use x="1230.292969" xlink:href="#DejaVuSans-69"/>
      <use x="1258.076172" xlink:href="#DejaVuSans-6f"/>
      <use x="1319.257812" xlink:href="#DejaVuSans-6e"/>
      <use x="1382.636719" xlink:href="#DejaVuSans-29"/>
     </g>
    </g>
   </g>
   <g id="matplotlib.axis_2">
    <g id="ytick_1">
     <g id="line2d_14">
      <path clip-path="url(#p6f47b46b83)" d="M 56.12 294.88 
L 399.984 294.88 
" style="fill:none;stroke:#b0b0b0;stroke-linecap:square;stroke-width:0.8;"/>
     </g>
     <g id="line2d_15">
      <defs>
       <path d="M 0 0 
L -3.5 0 
" id="mf9117938ee" style="stroke:#000000;stroke-width:0.8;"/>
      </defs>
      <g>
       <use style="stroke:#000000;stroke-width:0.8;" x="56.12" xlink:href="#mf9117938ee" y="294.88"/>
      </g>
     </g>
     <g id="text_7">
      <!-- 0.0 -->
      <defs>
       <path d="M 10.6875 12.40625 
L 21 12.40625 
L 21 0 
L 10.6875 0 
z
" id="DejaVuSans-2e"/>
      </defs>
      <g transform="translate(23.675 300.95875)scale(0.16 -0.16)">
       <use xlink:href="#DejaVuSans-30"/>
       <use x="63.623047" xlink:href="#DejaVuSans-2e"/>
       <use x="95.410156" xlink:href="#DejaVuSans-30"/>
      </g>
     </g>
    </g>
    <g id="ytick_2">
     <g id="line2d_16">
      <path clip-path="url(#p6f47b46b83)" d="M 56.12 241.406733 
L 399.984 241.406733 
" style="fill:none;stroke:#b0b0b0;stroke-linecap:square;stroke-width:0.8;"/>
     </g>
     <g id="line2d_17">
      <g>
       <use style="stroke:#000000;stroke-width:0.8;" x="56.12" xlink:href="#mf9117938ee" y="241.406733"/>
      </g>
     </g>
     <g id="text_8">
      <!-- 0.2 -->
      <g transform="translate(23.675 247.485483)scale(0.16 -0.16)">
       <use xlink:href="#DejaVuSans-30"/>
       <use x="63.623047" xlink:href="#DejaVuSans-2e"/>
       <use x="95.410156" xlink:href="#DejaVuSans-32"/>
      </g>
     </g>
    </g>
    <g id="ytick_3">
     <g id="line2d_18">
      <path clip-path="url(#p6f47b46b83)" d="M 56.12 187.933465 
L 399.984 187.933465 
" style="fill:none;stroke:#b0b0b0;stroke-linecap:square;stroke-width:0.8;"/>
     </g>
     <g id="line2d_19">
      <g>
       <use style="stroke:#000000;stroke-width:0.8;" x="56.12" xlink:href="#mf9117938ee" y="187.933465"/>
      </g>
     </g>
     <g id="text_9">
      <!-- 0.4 -->
      <g transform="translate(23.675 194.012215)scale(0.16 -0.16)">
       <use xlink:href="#DejaVuSans-30"/>
       <use x="63.623047" xlink:href="#DejaVuSans-2e"/>
       <use x="95.410156" xlink:href="#DejaVuSans-34"/>
      </g>
     </g>
    </g>
    <g id="ytick_4">
     <g id="line2d_20">
      <path clip-path="url(#p6f47b46b83)" d="M 56.12 134.460198 
L 399.984 134.460198 
" style="fill:none;stroke:#b0b0b0;stroke-linecap:square;stroke-width:0.8;"/>
     </g>
     <g id="line2d_21">
      <g>
       <use style="stroke:#000000;stroke-width:0.8;" x="56.12" xlink:href="#mf9117938ee" y="134.460198"/>
      </g>
     </g>
     <g id="text_10">
      <!-- 0.6 -->
      <g transform="translate(23.675 140.538948)scale(0.16 -0.16)">
       <use xlink:href="#DejaVuSans-30"/>
       <use x="63.623047" xlink:href="#DejaVuSans-2e"/>
       <use x="95.410156" xlink:href="#DejaVuSans-36"/>
      </g>
     </g>
    </g>
    <g id="ytick_5">
     <g id="line2d_22">
      <path clip-path="url(#p6f47b46b83)" d="M 56.12 80.986931 
L 399.984 80.986931 
" style="fill:none;stroke:#b0b0b0;stroke-linecap:square;stroke-width:0.8;"/>
     </g>
     <g id="line2d_23">
      <g>
       <use style="stroke:#000000;stroke-width:0.8;" x="56.12" xlink:href="#mf9117938ee" y="80.986931"/>
      </g>
     </g>
     <g id="text_11">
      <!-- 0.8 -->
      <g transform="translate(23.675 87.065681)scale(0.16 -0.16)">
       <use xlink:href="#DejaVuSans-30"/>
       <use x="63.623047" xlink:href="#DejaVuSans-2e"/>
       <use x="95.410156" xlink:href="#DejaVuSans-38"/>
      </g>
     </g>
    </g>
    <g id="ytick_6">
     <g id="line2d_24">
      <path clip-path="url(#p6f47b46b83)" d="M 56.12 27.513663 
L 399.984 27.513663 
" style="fill:none;stroke:#b0b0b0;stroke-linecap:square;stroke-width:0.8;"/>
     </g>
     <g id="line2d_25">
      <g>
       <use style="stroke:#000000;stroke-width:0.8;" x="56.12" xlink:href="#mf9117938ee" y="27.513663"/>
      </g>
     </g>
     <g id="text_12">
      <!-- 1.0 -->
      <g transform="translate(23.675 33.592413)scale(0.16 -0.16)">
       <use xlink:href="#DejaVuSans-31"/>
       <use x="63.623047" xlink:href="#DejaVuSans-2e"/>
       <use x="95.410156" xlink:href="#DejaVuSans-30"/>
      </g>
     </g>
    </g>
    <g id="text_13">
     <!-- Fraction of function,target pairs -->
     <defs>
      <path d="M 9.8125 72.90625 
L 51.703125 72.90625 
L 51.703125 64.59375 
L 19.671875 64.59375 
L 19.671875 43.109375 
L 48.578125 43.109375 
L 48.578125 34.8125 
L 19.671875 34.8125 
L 19.671875 0 
L 9.8125 0 
z
" id="DejaVuSans-46"/>
      <path d="M 41.109375 46.296875 
Q 39.59375 47.171875 37.8125 47.578125 
Q 36.03125 48 33.890625 48 
Q 26.265625 48 22.1875 43.046875 
Q 18.109375 38.09375 18.109375 28.8125 
L 18.109375 0 
L 9.078125 0 
L 9.078125 54.6875 
L 18.109375 54.6875 
L 18.109375 46.1875 
Q 20.953125 51.171875 25.484375 53.578125 
Q 30.03125 56 36.53125 56 
Q 37.453125 56 38.578125 55.875 
Q 39.703125 55.765625 41.0625 55.515625 
z
" id="DejaVuSans-72"/>
      <path d="M 48.78125 52.59375 
L 48.78125 44.1875 
Q 44.96875 46.296875 41.140625 47.34375 
Q 37.3125 48.390625 33.40625 48.390625 
Q 24.65625 48.390625 19.8125 42.84375 
Q 14.984375 37.3125 14.984375 27.296875 
Q 14.984375 17.28125 19.8125 11.734375 
Q 24.65625 6.203125 33.40625 6.203125 
Q 37.3125 6.203125 41.140625 7.25 
Q 44.96875 8.296875 48.78125 10.40625 
L 48.78125 2.09375 
Q 45.015625 0.34375 40.984375 -0.53125 
Q 36.96875 -1.421875 32.421875 -1.421875 
Q 20.0625 -1.421875 12.78125 6.34375 
Q 5.515625 14.109375 5.515625 27.296875 
Q 5.515625 40.671875 12.859375 48.328125 
Q 20.21875 56 33.015625 56 
Q 37.15625 56 41.109375 55.140625 
Q 45.0625 54.296875 48.78125 52.59375 
z
" id="DejaVuSans-63"/>
      <path d="M 18.3125 70.21875 
L 18.3125 54.6875 
L 36.8125 54.6875 
L 36.8125 47.703125 
L 18.3125 47.703125 
L 18.3125 18.015625 
Q 18.3125 11.328125 20.140625 9.421875 
Q 21.96875 7.515625 27.59375 7.515625 
L 36.8125 7.515625 
L 36.8125 0 
L 27.59375 0 
Q 17.1875 0 13.234375 3.875 
Q 9.28125 7.765625 9.28125 18.015625 
L 9.28125 47.703125 
L 2.6875 47.703125 
L 2.6875 54.6875 
L 9.28125 54.6875 
L 9.28125 70.21875 
z
" id="DejaVuSans-74"/>
      <path d="M 8.5 21.578125 
L 8.5 54.6875 
L 17.484375 54.6875 
L 17.484375 21.921875 
Q 17.484375 14.15625 20.5 10.265625 
Q 23.53125 6.390625 29.59375 6.390625 
Q 36.859375 6.390625 41.078125 11.03125 
Q 45.3125 15.671875 45.3125 23.6875 
L 45.3125 54.6875 
L 54.296875 54.6875 
L 54.296875 0 
L 45.3125 0 
L 45.3125 8.40625 
Q 42.046875 3.421875 37.71875 1 
Q 33.40625 -1.421875 27.6875 -1.421875 
Q 18.265625 -1.421875 13.375 4.4375 
Q 8.5 10.296875 8.5 21.578125 
z
M 31.109375 56 
z
" id="DejaVuSans-75"/>
      <path d="M 11.71875 12.40625 
L 22.015625 12.40625 
L 22.015625 4 
L 14.015625 -11.625 
L 7.71875 -11.625 
L 11.71875 4 
z
" id="DejaVuSans-2c"/>
      <path d="M 18.109375 8.203125 
L 18.109375 -20.796875 
L 9.078125 -20.796875 
L 9.078125 54.6875 
L 18.109375 54.6875 
L 18.109375 46.390625 
Q 20.953125 51.265625 25.265625 53.625 
Q 29.59375 56 35.59375 56 
Q 45.5625 56 51.78125 48.09375 
Q 58.015625 40.1875 58.015625 27.296875 
Q 58.015625 14.40625 51.78125 6.484375 
Q 45.5625 -1.421875 35.59375 -1.421875 
Q 29.59375 -1.421875 25.265625 0.953125 
Q 20.953125 3.328125 18.109375 8.203125 
z
M 48.6875 27.296875 
Q 48.6875 37.203125 44.609375 42.84375 
Q 40.53125 48.484375 33.40625 48.484375 
Q 26.265625 48.484375 22.1875 42.84375 
Q 18.109375 37.203125 18.109375 27.296875 
Q 18.109375 17.390625 22.1875 11.75 
Q 26.265625 6.109375 33.40625 6.109375 
Q 40.53125 6.109375 44.609375 11.75 
Q 48.6875 17.390625 48.6875 27.296875 
z
" id="DejaVuSans-70"/>
     </defs>
     <g transform="translate(16.139531 294.999375)rotate(-90)scale(0.17 -0.17)">
      <use xlink:href="#DejaVuSans-46"/>
      <use x="57.410156" xlink:href="#DejaVuSans-72"/>
      <use x="98.523438" xlink:href="#DejaVuSans-61"/>
      <use x="159.802734" xlink:href="#DejaVuSans-63"/>
      <use x="214.783203" xlink:href="#DejaVuSans-74"/>
      <use x="253.992188" xlink:href="#DejaVuSans-69"/>
      <use x="281.775391" xlink:href="#DejaVuSans-6f"/>
      <use x="342.957031" xlink:href="#DejaVuSans-6e"/>
      <use x="406.335938" xlink:href="#DejaVuSans-20"/>
      <use x="438.123047" xlink:href="#DejaVuSans-6f"/>
      <use x="499.304688" xlink:href="#DejaVuSans-66"/>
      <use x="534.509766" xlink:href="#DejaVuSans-20"/>
      <use x="566.296875" xlink:href="#DejaVuSans-66"/>
      <use x="601.501953" xlink:href="#DejaVuSans-75"/>
      <use x="664.880859" xlink:href="#DejaVuSans-6e"/>
      <use x="728.259766" xlink:href="#DejaVuSans-63"/>
      <use x="783.240234" xlink:href="#DejaVuSans-74"/>
      <use x="822.449219" xlink:href="#DejaVuSans-69"/>
      <use x="850.232422" xlink:href="#DejaVuSans-6f"/>
      <use x="911.414062" xlink:href="#DejaVuSans-6e"/>
      <use x="974.792969" xlink:href="#DejaVuSans-2c"/>
      <use x="1006.580078" xlink:href="#DejaVuSans-74"/>
      <use x="1045.789062" xlink:href="#DejaVuSans-61"/>
      <use x="1107.068359" xlink:href="#DejaVuSans-72"/>
      <use x="1148.166016" xlink:href="#DejaVuSans-67"/>
      <use x="1211.642578" xlink:href="#DejaVuSans-65"/>
      <use x="1273.166016" xlink:href="#DejaVuSans-74"/>
      <use x="1312.375" xlink:href="#DejaVuSans-20"/>
      <use x="1344.162109" xlink:href="#DejaVuSans-70"/>
      <use x="1407.638672" xlink:href="#DejaVuSans-61"/>
      <use x="1468.917969" xlink:href="#DejaVuSans-69"/>
      <use x="1496.701172" xlink:href="#DejaVuSans-72"/>
      <use x="1537.814453" xlink:href="#DejaVuSans-73"/>
     </g>
    </g>
   </g>
   <g id="line2d_26">
    <defs>
     <path d="M 0 1.5 
C 0.397805 1.5 0.77937 1.341951 1.06066 1.06066 
C 1.341951 0.77937 1.5 0.397805 1.5 0 
C 1.5 -0.397805 1.341951 -0.77937 1.06066 -1.06066 
C 0.77937 -1.341951 0.397805 -1.5 0 -1.5 
C -0.397805 -1.5 -0.77937 -1.341951 -1.06066 -1.06066 
C -1.341951 -0.77937 -1.5 -0.397805 -1.5 0 
C -1.5 0.397805 -1.341951 0.77937 -1.06066 1.06066 
C -0.77937 1.341951 -0.397805 1.5 0 1.5 
z
" id="m2e666d439b" style="stroke:#f5deb3;"/>
    </defs>
    <g>
     <use style="fill:#f5deb3;stroke:#f5deb3;" x="198.334161" xlink:href="#m2e666d439b" y="27.513663"/>
     <use style="fill:#f5deb3;stroke:#f5deb3;" x="198.334161" xlink:href="#m2e666d439b" y="27.513663"/>
    </g>
   </g>
   <g id="line2d_27">
    <g>
     <use style="fill:#f5deb3;stroke:#f5deb3;stroke-linejoin:miter;stroke-width:1.5;" x="194.289118" xlink:href="#m276ff0ab56" y="106.150821"/>
     <use style="fill:#f5deb3;stroke:#f5deb3;stroke-linejoin:miter;stroke-width:1.5;" x="198.334161" xlink:href="#m276ff0ab56" y="27.513663"/>
     <use style="fill:#f5deb3;stroke:#f5deb3;stroke-linejoin:miter;stroke-width:1.5;" x="198.334161" xlink:href="#m276ff0ab56" y="27.513663"/>
     <use style="fill:#f5deb3;stroke:#f5deb3;stroke-linejoin:miter;stroke-width:1.5;" x="333.429677" xlink:href="#m276ff0ab56" y="27.513663"/>
    </g>
   </g>
   <g id="line2d_28">
    <defs>
     <path d="M 0 1.5 
C 0.397805 1.5 0.77937 1.341951 1.06066 1.06066 
C 1.341951 0.77937 1.5 0.397805 1.5 0 
C 1.5 -0.397805 1.341951 -0.77937 1.06066 -1.06066 
C 0.77937 -1.341951 0.397805 -1.5 0 -1.5 
C -0.397805 -1.5 -0.77937 -1.341951 -1.06066 -1.06066 
C -1.341951 -0.77937 -1.5 -0.397805 -1.5 0 
C -1.5 0.397805 -1.341951 0.77937 -1.06066 1.06066 
C -0.77937 1.341951 -0.397805 1.5 0 1.5 
z
" id="me1f29f1b44" style="stroke:#999999;"/>
    </defs>
    <g>
     <use style="fill:#999999;stroke:#999999;" x="298.806503" xlink:href="#me1f29f1b44" y="273.910091"/>
     <use style="fill:#999999;stroke:#999999;" x="298.806503" xlink:href="#me1f29f1b44" y="273.910091"/>
    </g>
   </g>
   <g id="line2d_29">
    <path d="M 158.194889 294.88 
L 158.194889 293.831505 
L 167.245629 293.831505 
L 167.245629 293.307257 
L 174.06775 293.307257 
L 174.06775 292.783009 
L 183.033988 292.783009 
L 183.033988 291.734514 
L 190.079614 291.734514 
L 190.079614 290.686018 
L 191.368857 290.686018 
L 191.368857 290.161771 
L 191.650216 290.161771 
L 191.650216 289.637523 
L 199.678014 289.637523 
L 199.678014 288.589027 
L 199.765248 288.589027 
L 199.765248 288.06478 
L 208.681871 288.06478 
L 208.681871 287.540532 
L 208.720618 287.540532 
L 208.720618 287.016284 
L 213.159507 287.016284 
L 213.159507 286.492036 
L 216.245331 286.492036 
L 216.245331 285.443541 
L 219.222444 285.443541 
L 219.222444 284.919293 
L 223.091993 284.919293 
L 223.091993 283.870798 
L 223.266322 283.870798 
L 223.266322 282.822302 
L 223.435483 282.822302 
L 223.435483 282.298055 
L 236.43656 282.298055 
L 236.43656 281.773807 
L 238.755186 281.773807 
L 238.755186 281.249559 
L 239.168375 281.249559 
L 239.168375 280.201064 
L 242.682514 280.201064 
L 242.682514 279.152568 
L 245.094131 279.152568 
L 245.094131 278.628321 
L 251.736361 278.628321 
L 251.736361 278.104073 
L 263.851328 278.104073 
L 263.851328 277.579825 
L 264.680828 277.579825 
L 264.680828 277.055578 
L 267.099302 277.055578 
L 267.099302 276.53133 
L 268.641183 276.53133 
L 268.641183 276.007082 
L 273.603344 276.007082 
L 273.603344 275.482834 
L 281.10052 275.482834 
L 281.10052 274.958587 
L 291.070771 274.958587 
L 291.070771 274.434339 
L 298.806503 274.434339 
L 298.806503 273.910091 
L 333.429677 273.910091 
" style="fill:none;stroke:#999999;stroke-linecap:square;stroke-width:1.5;"/>
   </g>
   <g id="line2d_30"/>
   <g id="line2d_31">
    <path d="M 0 0 
" style="fill:none;stroke:#999999;stroke-linecap:square;stroke-width:1.5;"/>
   </g>
   <g id="line2d_32">
    <path clip-path="url(#p6f47b46b83)" d="M 258.037496 278.104073 
" style="fill:none;stroke:#999999;stroke-linecap:square;stroke-width:1.5;"/>
    <defs>
     <path d="M -12 12 
L 12 -12 
M -12 -12 
L 12 12 
" id="m122042cca4" style="stroke:#999999;stroke-width:3;"/>
    </defs>
    <g clip-path="url(#p6f47b46b83)">
     <use style="fill:#999999;stroke:#999999;stroke-width:3;" x="258.037496" xlink:href="#m122042cca4" y="278.104073"/>
    </g>
   </g>
   <g id="line2d_33">
    <g>
     <use style="fill:#999999;stroke:#999999;" x="259.804636" xlink:href="#me1f29f1b44" y="27.513663"/>
     <use style="fill:#999999;stroke:#999999;" x="259.804636" xlink:href="#me1f29f1b44" y="27.513663"/>
    </g>
   </g>
   <g id="line2d_34">
    <path d="M 144.833824 294.88 
L 144.833824 294.355752 
L 152.543338 294.355752 
L 152.543338 293.307257 
L 153.718417 293.307257 
L 153.728767 292.258761 
L 154.607566 292.258761 
L 154.607566 290.686018 
L 158.76455 290.686018 
L 158.76455 290.161771 
L 160.065312 290.161771 
L 160.065312 289.637523 
L 161.213487 289.637523 
L 161.213487 288.589027 
L 161.851107 288.589027 
L 161.851107 287.540532 
L 162.492604 287.540532 
L 162.492604 287.016284 
L 163.806212 287.016284 
L 163.806212 286.492036 
L 164.438729 286.492036 
L 164.438729 285.967789 
L 166.665284 285.967789 
L 166.665284 285.443541 
L 167.123924 285.443541 
L 167.123924 283.870798 
L 169.835287 283.870798 
L 169.835287 283.34655 
L 170.242525 283.34655 
L 170.242525 282.822302 
L 170.681228 282.822302 
L 170.681228 282.298055 
L 174.730977 282.298055 
L 174.730977 281.773807 
L 175.851026 281.773807 
L 175.851026 280.725312 
L 180.059707 280.725312 
L 180.059707 279.676816 
L 180.46128 279.676816 
L 180.46128 279.152568 
L 187.162009 279.152568 
L 187.162009 278.104073 
L 195.433303 278.104073 
L 195.433303 277.579825 
L 214.707556 277.579825 
L 214.707556 277.055578 
L 215.571055 277.055578 
L 215.571055 276.007082 
L 215.788607 276.007082 
L 215.788607 274.958587 
L 217.002586 274.958587 
L 217.002586 273.910091 
L 217.421138 273.910091 
L 217.453639 272.337348 
L 217.6357 272.337348 
L 217.731494 270.764605 
L 218.083896 270.764605 
L 218.083896 270.240357 
L 218.218369 270.240357 
L 218.325244 269.191862 
L 218.696078 269.191862 
L 218.696078 268.143366 
L 218.835747 268.143366 
L 218.903636 266.570623 
L 219.335649 266.570623 
L 219.335649 266.046375 
L 219.465028 266.046375 
L 219.465028 265.522128 
L 219.867813 265.522128 
L 219.931473 263.425137 
L 220.054806 263.425137 
L 220.054806 262.900889 
L 220.415939 262.900889 
L 220.465664 261.328146 
L 220.710527 261.328146 
L 220.72188 259.755403 
L 221.27849 259.755403 
L 221.356133 258.706907 
L 221.434005 258.706907 
L 221.434005 258.18266 
L 221.765292 258.18266 
L 221.864847 256.609917 
L 221.92985 256.609917 
L 221.92985 256.085669 
L 222.437463 256.085669 
L 222.437463 255.561421 
L 223.187727 255.561421 
L 223.187727 255.037173 
L 224.997608 255.037173 
L 224.997608 254.512926 
L 225.95293 254.512926 
L 225.95293 253.988678 
L 227.045814 253.988678 
L 227.045814 253.46443 
L 228.548587 253.46443 
L 228.548587 252.940182 
L 234.19345 252.940182 
L 234.19345 252.415935 
L 235.000098 252.415935 
L 235.000098 251.891687 
L 236.249984 251.891687 
L 236.249984 251.367439 
L 238.341778 251.367439 
L 238.341778 250.318944 
L 239.02332 250.318944 
L 239.125675 248.221953 
L 239.478683 248.221953 
L 239.478683 246.64921 
L 239.723342 246.64921 
L 239.723342 246.124962 
L 240.39722 246.124962 
L 240.434459 245.076467 
L 241.033201 245.076467 
L 241.033201 244.552219 
L 241.718051 244.552219 
L 241.718051 244.027971 
L 243.043085 244.027971 
L 243.043085 243.503724 
L 243.973503 243.503724 
L 243.973503 242.979476 
L 248.700872 242.979476 
L 248.700872 241.406733 
L 249.013497 241.406733 
L 249.082683 240.358237 
L 249.224666 240.358237 
L 249.224666 239.83399 
L 249.501463 239.83399 
L 249.501463 238.785494 
L 249.799734 238.785494 
L 249.908883 237.736999 
L 249.936821 237.736999 
L 249.936821 237.212751 
L 250.113568 237.212751 
L 250.163556 236.164255 
L 250.302651 236.164255 
L 250.302651 235.640008 
L 250.526174 235.640008 
L 250.526174 235.11576 
L 250.640306 235.11576 
L 250.675898 233.018769 
L 250.784622 233.018769 
L 250.784622 232.494521 
L 250.903956 232.494521 
L 251.007365 229.873283 
L 251.076782 229.873283 
L 251.132001 228.824787 
L 251.199746 228.824787 
L 251.297722 225.679301 
L 251.375871 225.679301 
L 251.478092 224.106558 
L 251.544867 224.106558 
L 251.544867 222.533815 
L 251.676454 222.533815 
L 251.751169 221.485319 
L 251.832611 221.485319 
L 251.942689 217.815585 
L 252.014868 217.815585 
L 252.120611 212.573108 
L 252.183511 212.573108 
L 252.28886 208.379126 
L 252.303407 208.379126 
L 252.40344 205.757888 
L 252.453315 205.757888 
L 252.453315 205.23364 
L 252.565866 205.23364 
L 252.646723 201.039658 
L 252.679232 201.039658 
L 252.739832 199.991163 
L 252.828598 199.991163 
L 252.894433 197.369924 
L 252.964589 197.369924 
L 253.025312 194.748686 
L 253.07852 194.748686 
L 253.184718 189.506209 
L 253.216346 189.506209 
L 253.307102 185.836474 
L 253.34672 185.836474 
L 253.443296 181.642493 
L 253.473058 181.642493 
L 253.567515 175.875768 
L 253.630388 175.875768 
L 253.73821 170.633291 
L 253.760559 170.633291 
L 253.791702 168.5363 
L 253.891018 168.5363 
L 253.978819 165.915061 
L 254.05435 165.915061 
L 254.164767 159.624089 
L 254.174487 159.624089 
L 254.276544 155.430107 
L 254.291832 155.430107 
L 254.343363 152.808868 
L 254.430292 152.808868 
L 254.523209 149.663382 
L 254.558383 149.663382 
L 254.664663 145.4694 
L 254.678669 145.4694 
L 254.737641 140.226923 
L 254.813212 140.226923 
L 254.903545 132.887455 
L 254.976682 132.887455 
L 255.022766 130.790464 
L 255.090189 130.790464 
L 255.187328 123.450996 
L 255.226277 123.450996 
L 255.312199 120.30551 
L 255.340606 120.30551 
L 255.432719 115.063032 
L 255.475091 115.063032 
L 255.559412 110.869051 
L 255.597711 110.869051 
L 255.684832 108.247812 
L 255.714128 108.247812 
L 255.805047 103.005335 
L 255.827094 103.005335 
L 255.931426 97.762858 
L 255.946144 97.762858 
L 256.049427 93.044628 
L 256.078649 93.044628 
L 256.17217 89.899142 
L 256.19616 89.899142 
L 256.28542 83.083922 
L 256.323431 83.083922 
L 256.42946 78.88994 
L 256.463844 78.88994 
L 256.558766 72.074719 
L 256.575624 72.074719 
L 256.632561 68.929233 
L 256.756996 68.929233 
L 256.849448 65.783747 
L 256.890538 65.783747 
L 256.988547 61.589765 
L 257.002289 61.589765 
L 257.082942 56.347288 
L 257.125551 56.347288 
L 257.174611 55.298792 
L 257.240916 55.298792 
L 257.30991 51.104811 
L 257.356186 51.104811 
L 257.463597 50.056315 
L 257.497788 50.056315 
L 257.55208 47.959324 
L 257.609147 47.959324 
L 257.673868 45.862334 
L 257.853695 45.862334 
L 257.949696 42.716847 
L 258.0171 42.716847 
L 258.122313 41.144104 
L 258.144244 41.144104 
L 258.221863 40.095609 
L 258.333887 40.095609 
L 258.357144 38.522865 
L 258.507395 38.522865 
L 258.538319 35.901627 
L 258.711856 35.901627 
L 258.711856 35.377379 
L 258.823924 35.377379 
L 258.90692 33.280388 
L 258.96637 33.280388 
L 259.073473 30.65915 
L 259.223588 30.65915 
L 259.298355 28.562159 
L 259.590171 28.562159 
L 259.590171 28.037911 
L 259.804636 28.037911 
L 259.804636 27.513663 
L 333.429677 27.513663 
L 333.429677 27.513663 
" style="fill:none;stroke:#999999;stroke-linecap:square;stroke-width:1.5;"/>
   </g>
   <g id="line2d_35"/>
   <g id="line2d_36">
    <path d="M 0 0 
" style="fill:none;stroke:#999999;stroke-linecap:square;stroke-width:1.5;"/>
   </g>
   <g id="line2d_37">
    <g>
     <use style="fill:#999999;stroke:#999999;" x="210.052602" xlink:href="#me1f29f1b44" y="273.910091"/>
     <use style="fill:#999999;stroke:#999999;" x="210.052602" xlink:href="#me1f29f1b44" y="273.910091"/>
    </g>
   </g>
   <g id="line2d_38">
    <path d="M 146.659422 294.88 
L 146.659422 294.355752 
L 160.854848 294.355752 
L 160.854848 293.831505 
L 162.525433 293.831505 
L 162.525433 293.307257 
L 163.387261 293.307257 
L 163.387261 291.734514 
L 166.726499 291.734514 
L 166.726499 291.210266 
L 170.576067 291.210266 
L 170.576067 290.686018 
L 173.517936 290.686018 
L 173.517936 290.161771 
L 174.835315 290.161771 
L 174.835315 289.637523 
L 177.260523 289.637523 
L 177.260523 289.113275 
L 177.965269 289.113275 
L 177.965269 288.589027 
L 178.275726 288.589027 
L 178.275726 288.06478 
L 179.007988 288.06478 
L 179.007988 285.967789 
L 179.979541 285.967789 
L 179.979541 285.443541 
L 180.32069 285.443541 
L 180.32069 283.870798 
L 180.959069 283.870798 
L 180.959069 283.34655 
L 181.657604 283.34655 
L 181.657604 282.822302 
L 182.029073 282.822302 
L 182.029073 282.298055 
L 183.171233 282.298055 
L 183.171233 281.249559 
L 183.780019 281.249559 
L 183.780019 280.725312 
L 183.815546 280.725312 
L 183.815546 279.676816 
L 183.980121 279.676816 
L 183.980121 279.152568 
L 185.777085 279.152568 
L 185.777085 278.104073 
L 185.882089 278.104073 
L 185.882089 277.579825 
L 190.801374 277.579825 
L 190.801374 277.055578 
L 195.706425 277.055578 
L 195.706425 276.53133 
L 196.3989 276.53133 
L 196.3989 276.007082 
L 197.407271 276.007082 
L 197.407271 275.482834 
L 204.320491 275.482834 
L 204.320491 274.958587 
L 204.866459 274.958587 
L 204.866459 274.434339 
L 210.052602 274.434339 
L 210.052602 273.910091 
L 333.429677 273.910091 
" style="fill:none;stroke:#999999;stroke-linecap:square;stroke-width:1.5;"/>
   </g>
   <g id="line2d_39"/>
   <g id="line2d_40">
    <path d="M 0 0 
" style="fill:none;stroke:#999999;stroke-linecap:square;stroke-width:1.5;"/>
   </g>
   <g id="line2d_41">
    <path clip-path="url(#p6f47b46b83)" d="M 186.892509 277.579825 
" style="fill:none;stroke:#999999;stroke-linecap:square;stroke-width:1.5;"/>
    <g clip-path="url(#p6f47b46b83)">
     <use style="fill:#999999;stroke:#999999;stroke-width:3;" x="186.892509" xlink:href="#m122042cca4" y="277.579825"/>
    </g>
   </g>
   <g id="line2d_42">
    <path clip-path="url(#p6f47b46b83)" d="M 56.12 294.88 
L 56.12 294.88 
L 56.12 294.88 
L 56.12 294.88 
L 399.984 294.88 
" style="fill:none;stroke:#999999;stroke-linecap:square;stroke-width:1.5;"/>
   </g>
   <g id="line2d_43"/>
   <g id="line2d_44">
    <path clip-path="url(#p6f47b46b83)" d="M 0 0 
" style="fill:none;stroke:#999999;stroke-linecap:square;stroke-width:1.5;"/>
   </g>
   <g id="line2d_45">
    <g>
     <use style="fill:#999999;stroke:#999999;" x="203.810772" xlink:href="#me1f29f1b44" y="27.513663"/>
     <use style="fill:#999999;stroke:#999999;" x="203.810772" xlink:href="#me1f29f1b44" y="27.513663"/>
    </g>
   </g>
   <g id="line2d_46">
    <path d="M 148.334042 294.88 
L 148.334042 294.355752 
L 151.818883 294.355752 
L 151.818883 292.783009 
L 153.050432 292.783009 
L 153.050432 292.258761 
L 154.35716 292.258761 
L 154.35716 291.734514 
L 157.443313 291.734514 
L 157.443313 291.210266 
L 158.105727 291.210266 
L 158.173213 289.637523 
L 159.318088 289.637523 
L 159.318088 289.113275 
L 162.201513 289.113275 
L 162.206932 287.540532 
L 163.077593 287.540532 
L 163.077593 286.492036 
L 163.191388 286.492036 
L 163.191388 285.967789 
L 163.861254 285.967789 
L 163.861254 285.443541 
L 164.223236 285.443541 
L 164.223236 284.919293 
L 165.04958 284.919293 
L 165.04958 284.395046 
L 165.339535 284.395046 
L 165.339535 283.870798 
L 167.582552 283.870798 
L 167.582552 283.34655 
L 167.740389 283.34655 
L 167.740389 282.822302 
L 168.005435 282.822302 
L 168.015102 281.773807 
L 168.397391 281.773807 
L 168.397391 281.249559 
L 169.036297 281.249559 
L 169.036297 280.725312 
L 169.215081 280.725312 
L 169.215081 280.201064 
L 169.478639 280.201064 
L 169.478639 279.152568 
L 169.598933 279.152568 
L 169.618313 278.104073 
L 170.002556 278.104073 
L 170.044406 277.055578 
L 170.623192 277.055578 
L 170.684538 276.007082 
L 170.768191 276.007082 
L 170.768191 274.958587 
L 171.63014 274.958587 
L 171.63014 273.910091 
L 171.833627 273.910091 
L 171.909833 272.861596 
L 172.204759 272.861596 
L 172.309485 269.716109 
L 173.090611 269.716109 
L 173.090611 269.191862 
L 173.222973 269.191862 
L 173.222973 268.667614 
L 173.388303 268.667614 
L 173.482337 267.094871 
L 173.610335 267.094871 
L 173.610335 266.046375 
L 174.100802 266.046375 
L 174.14011 264.99788 
L 174.263772 264.99788 
L 174.2687 263.949385 
L 174.476625 263.949385 
L 174.476625 262.900889 
L 174.917469 262.900889 
L 175.021544 259.755403 
L 175.709073 259.755403 
L 175.709073 259.231155 
L 175.884497 259.231155 
L 175.893058 257.134164 
L 176.006399 257.134164 
L 176.006399 256.609917 
L 176.468611 256.609917 
L 176.468611 256.085669 
L 176.636105 256.085669 
L 176.636105 255.037173 
L 176.868738 255.037173 
L 176.872973 253.46443 
L 177.084581 253.46443 
L 177.084581 251.891687 
L 177.203586 251.891687 
L 177.234529 250.843192 
L 177.664556 250.843192 
L 177.664556 250.318944 
L 177.928735 250.318944 
L 178.006051 249.270448 
L 178.259395 249.270448 
L 178.259395 248.746201 
L 178.644016 248.746201 
L 178.734784 247.173458 
L 179.009349 247.173458 
L 179.101258 245.600714 
L 179.140788 245.600714 
L 179.140788 245.076467 
L 179.544026 245.076467 
L 179.544026 244.552219 
L 179.665239 244.552219 
L 179.755348 242.979476 
L 179.78723 242.979476 
L 179.796003 241.406733 
L 180.046905 241.406733 
L 180.046905 240.882485 
L 180.165593 240.882485 
L 180.165593 240.358237 
L 180.33014 240.358237 
L 180.33014 239.83399 
L 180.469716 239.83399 
L 180.541415 236.688503 
L 180.769477 236.688503 
L 180.769477 236.164255 
L 180.956943 236.164255 
L 181.042363 231.970274 
L 181.092449 231.970274 
L 181.101786 230.921778 
L 181.205658 230.921778 
L 181.224802 229.349035 
L 181.402073 229.349035 
L 181.428388 228.30054 
L 181.61294 228.30054 
L 181.654396 225.679301 
L 181.759922 225.679301 
L 181.759922 225.155053 
L 182.130347 225.155053 
L 182.210431 222.533815 
L 182.297449 222.533815 
L 182.345136 221.485319 
L 182.489631 221.485319 
L 182.543159 220.436824 
L 182.800693 220.436824 
L 182.850816 219.388328 
L 183.315866 219.388328 
L 183.419602 217.815585 
L 183.440905 217.815585 
L 183.440905 216.76709 
L 183.688547 216.76709 
L 183.721419 215.194347 
L 183.884844 215.194347 
L 183.955905 214.145851 
L 184.01117 214.145851 
L 184.110303 212.04886 
L 184.331597 212.04886 
L 184.390895 211.000365 
L 184.51456 211.000365 
L 184.542934 209.427622 
L 184.678239 209.427622 
L 184.762663 205.23364 
L 184.792818 205.23364 
L 184.890218 203.660897 
L 184.960863 203.660897 
L 185.068561 202.088154 
L 185.186041 202.088154 
L 185.263051 201.039658 
L 185.410655 201.039658 
L 185.467288 198.942667 
L 185.862692 198.942667 
L 185.952191 195.797181 
L 186.066517 195.797181 
L 186.088615 194.748686 
L 186.298258 194.748686 
L 186.355598 193.70019 
L 186.448536 193.70019 
L 186.480945 192.127447 
L 186.629642 192.127447 
L 186.693507 191.078952 
L 186.751064 191.078952 
L 186.803675 188.981961 
L 186.903044 188.981961 
L 186.982812 185.312227 
L 187.024479 185.312227 
L 187.133191 183.739484 
L 187.303279 183.739484 
L 187.367206 182.690988 
L 187.44069 182.690988 
L 187.466086 181.118245 
L 187.680451 181.118245 
L 187.758339 180.06975 
L 187.873498 180.06975 
L 187.964468 178.497006 
L 188.198084 178.497006 
L 188.262353 176.400016 
L 188.31312 176.400016 
L 188.373212 174.827272 
L 188.44312 174.827272 
L 188.44312 173.778777 
L 188.593784 173.778777 
L 188.662221 171.681786 
L 188.81791 171.681786 
L 188.911876 170.109043 
L 188.971631 170.109043 
L 189.042192 168.012052 
L 189.159091 168.012052 
L 189.167383 166.963557 
L 189.296346 166.963557 
L 189.394252 165.390813 
L 189.478654 165.390813 
L 189.578842 163.293823 
L 189.626975 163.293823 
L 189.667472 161.721079 
L 189.965947 161.721079 
L 190.033449 160.672584 
L 190.137057 160.672584 
L 190.205489 159.099841 
L 190.297663 159.099841 
L 190.355439 158.051345 
L 190.459754 158.051345 
L 190.465871 155.430107 
L 190.573168 155.430107 
L 190.667197 153.333116 
L 190.707388 153.333116 
L 190.800518 150.711877 
L 190.865 150.711877 
L 190.865 150.18763 
L 190.997649 150.18763 
L 190.997649 149.663382 
L 191.115829 149.663382 
L 191.162203 148.090639 
L 191.234873 148.090639 
L 191.271927 145.993648 
L 191.365375 145.993648 
L 191.365375 144.945152 
L 191.482382 144.945152 
L 191.578955 142.848162 
L 191.604323 142.848162 
L 191.662445 139.178427 
L 191.725893 139.178427 
L 191.725893 138.65418 
L 191.872391 138.65418 
L 191.965045 135.508693 
L 191.993847 135.508693 
L 192.092846 132.887455 
L 192.181477 132.887455 
L 192.272957 130.790464 
L 192.347359 130.790464 
L 192.454004 129.217721 
L 192.501415 129.217721 
L 192.592295 126.072235 
L 192.631009 126.072235 
L 192.724734 124.499491 
L 192.756423 124.499491 
L 192.782252 122.926748 
L 192.867562 122.926748 
L 192.950636 120.30551 
L 192.989308 120.30551 
L 193.063837 117.684271 
L 193.119335 117.684271 
L 193.168534 114.014537 
L 193.341183 114.014537 
L 193.444799 109.820555 
L 193.520166 109.820555 
L 193.578589 108.247812 
L 193.715975 108.247812 
L 193.794341 103.529583 
L 193.848972 103.529583 
L 193.946872 100.384096 
L 193.980379 100.384096 
L 193.980379 99.859849 
L 194.132971 99.859849 
L 194.209605 98.287105 
L 194.25074 98.287105 
L 194.336762 96.714362 
L 194.370911 96.714362 
L 194.477384 94.617371 
L 194.521197 94.617371 
L 194.62853 91.471885 
L 194.717056 91.471885 
L 194.827247 89.899142 
L 194.840124 89.899142 
L 194.950205 88.326399 
L 194.964739 88.326399 
L 195.059452 87.277903 
L 195.161893 87.277903 
L 195.247723 85.180912 
L 195.30031 85.180912 
L 195.392148 82.559674 
L 195.588643 82.559674 
L 195.688893 80.462683 
L 195.732304 80.462683 
L 195.826478 78.88994 
L 195.843487 78.88994 
L 195.878475 76.792949 
L 195.962209 76.792949 
L 196.056904 74.17171 
L 196.112112 74.17171 
L 196.167897 72.598967 
L 196.292505 72.598967 
L 196.360862 69.453481 
L 196.418691 69.453481 
L 196.51497 68.404985 
L 196.616091 68.404985 
L 196.699847 66.832242 
L 196.733259 66.832242 
L 196.7597 65.259499 
L 196.906807 65.259499 
L 196.99538 63.686756 
L 197.10145 63.686756 
L 197.208758 61.589765 
L 197.228112 61.589765 
L 197.317866 58.968526 
L 197.358413 58.968526 
L 197.415206 55.82304 
L 197.626468 55.82304 
L 197.730218 54.250297 
L 197.747849 54.250297 
L 197.791507 52.153306 
L 197.913093 52.153306 
L 198.006907 50.580563 
L 198.066546 50.580563 
L 198.139071 47.959324 
L 198.253457 47.959324 
L 198.292858 44.813838 
L 198.470209 44.813838 
L 198.543241 42.192599 
L 198.704301 42.192599 
L 198.704301 41.668352 
L 199.024305 41.668352 
L 199.024305 40.619856 
L 199.401676 40.619856 
L 199.401676 40.095609 
L 199.699992 40.095609 
L 199.749772 39.047113 
L 199.863177 39.047113 
L 199.863177 38.522865 
L 200.221586 38.522865 
L 200.221586 37.998618 
L 200.598588 37.998618 
L 200.632974 36.425875 
L 201.177377 36.425875 
L 201.262479 35.377379 
L 201.466222 35.377379 
L 201.479585 34.328884 
L 201.605692 34.328884 
L 201.605692 33.804636 
L 201.753019 33.804636 
L 201.820794 32.756141 
L 202.00342 32.756141 
L 202.014229 31.707645 
L 202.364796 31.707645 
L 202.445717 30.134902 
L 202.625568 30.134902 
L 202.625568 29.086407 
L 202.926372 29.086407 
L 202.977701 28.037911 
L 203.810772 28.037911 
L 203.810772 27.513663 
L 333.429677 27.513663 
L 333.429677 27.513663 
" style="fill:none;stroke:#999999;stroke-linecap:square;stroke-width:1.5;"/>
   </g>
   <g id="line2d_47"/>
   <g id="line2d_48">
    <path d="M 0 0 
" style="fill:none;stroke:#999999;stroke-linecap:square;stroke-width:1.5;"/>
   </g>
   <g id="line2d_49">
    <path clip-path="url(#p6f47b46b83)" d="M 56.12 294.88 
L 56.12 294.88 
L 56.12 294.88 
L 56.12 294.88 
L 399.984 294.88 
" style="fill:none;stroke:#999999;stroke-linecap:square;stroke-width:1.5;"/>
   </g>
   <g id="line2d_50"/>
   <g id="line2d_51">
    <path clip-path="url(#p6f47b46b83)" d="M 0 0 
" style="fill:none;stroke:#999999;stroke-linecap:square;stroke-width:1.5;"/>
   </g>
   <g id="line2d_52">
    <path clip-path="url(#p6f47b46b83)" d="M 56.12 294.88 
L 56.12 294.88 
L 56.12 294.88 
L 56.12 294.88 
L 399.984 294.88 
" style="fill:none;stroke:#999999;stroke-linecap:square;stroke-width:1.5;"/>
   </g>
   <g id="line2d_53"/>
   <g id="line2d_54">
    <path clip-path="url(#p6f47b46b83)" d="M 0 0 
" style="fill:none;stroke:#999999;stroke-linecap:square;stroke-width:1.5;"/>
   </g>
   <g id="line2d_55">
    <path clip-path="url(#p6f47b46b83)" d="M 56.12 294.88 
L 56.12 294.88 
L 56.12 294.88 
L 56.12 294.88 
L 399.984 294.88 
" style="fill:none;stroke:#999999;stroke-linecap:square;stroke-width:1.5;"/>
   </g>
   <g id="line2d_56"/>
   <g id="line2d_57">
    <path clip-path="url(#p6f47b46b83)" d="M 0 0 
" style="fill:none;stroke:#999999;stroke-linecap:square;stroke-width:1.5;"/>
   </g>
   <g id="line2d_58">
    <g>
     <use style="fill:#999999;stroke:#999999;" x="275.656788" xlink:href="#me1f29f1b44" y="289.637523"/>
     <use style="fill:#999999;stroke:#999999;" x="275.656788" xlink:href="#me1f29f1b44" y="289.637523"/>
    </g>
   </g>
   <g id="line2d_59">
    <path d="M 210.875488 294.88 
L 210.875488 294.355752 
L 224.754456 294.355752 
L 224.754456 293.831505 
L 232.335222 293.831505 
L 232.335222 293.307257 
L 237.57936 293.307257 
L 237.57936 292.783009 
L 241.592887 292.783009 
L 241.592887 292.258761 
L 247.578989 292.258761 
L 247.578989 291.734514 
L 262.075348 291.734514 
L 262.075348 291.210266 
L 265.956654 291.210266 
L 265.956654 290.686018 
L 274.106037 290.686018 
L 274.106037 290.161771 
L 275.656788 290.161771 
L 275.656788 289.637523 
L 333.429677 289.637523 
" style="fill:none;stroke:#999999;stroke-linecap:square;stroke-width:1.5;"/>
   </g>
   <g id="line2d_60"/>
   <g id="line2d_61">
    <path d="M 0 0 
" style="fill:none;stroke:#999999;stroke-linecap:square;stroke-width:1.5;"/>
   </g>
   <g id="line2d_62">
    <path clip-path="url(#p6f47b46b83)" d="M 214.58306 294.355752 
" style="fill:none;stroke:#999999;stroke-linecap:square;stroke-width:1.5;"/>
    <g clip-path="url(#p6f47b46b83)">
     <use style="fill:#999999;stroke:#999999;stroke-width:3;" x="214.58306" xlink:href="#m122042cca4" y="294.355752"/>
    </g>
   </g>
   <g id="line2d_63">
    <path clip-path="url(#p6f47b46b83)" d="M 56.12 294.88 
L 56.12 294.88 
L 56.12 294.88 
L 56.12 294.88 
L 399.984 294.88 
" style="fill:none;stroke:#999999;stroke-linecap:square;stroke-width:1.5;"/>
   </g>
   <g id="line2d_64"/>
   <g id="line2d_65">
    <path clip-path="url(#p6f47b46b83)" d="M 0 0 
" style="fill:none;stroke:#999999;stroke-linecap:square;stroke-width:1.5;"/>
   </g>
   <g id="line2d_66">
    <path clip-path="url(#p6f47b46b83)" d="M 56.12 294.88 
L 56.12 294.88 
L 56.12 294.88 
L 56.12 294.88 
L 399.984 294.88 
" style="fill:none;stroke:#999999;stroke-linecap:square;stroke-width:1.5;"/>
   </g>
   <g id="line2d_67"/>
   <g id="line2d_68">
    <path clip-path="url(#p6f47b46b83)" d="M 0 0 
" style="fill:none;stroke:#999999;stroke-linecap:square;stroke-width:1.5;"/>
   </g>
   <g id="line2d_69">
    <g>
     <use style="fill:#999999;stroke:#999999;" x="279.705695" xlink:href="#me1f29f1b44" y="27.513663"/>
     <use style="fill:#999999;stroke:#999999;" x="279.705695" xlink:href="#me1f29f1b44" y="27.513663"/>
    </g>
   </g>
   <g id="line2d_70">
    <path d="M 137.703479 294.88 
L 137.703479 294.355752 
L 140.056117 294.355752 
L 140.056117 293.831505 
L 140.739334 293.831505 
L 140.739334 293.307257 
L 141.749969 293.307257 
L 141.749969 292.783009 
L 142.058546 292.783009 
L 142.058546 292.258761 
L 143.065395 292.258761 
L 143.065395 291.734514 
L 143.767842 291.734514 
L 143.767842 290.686018 
L 144.130558 290.686018 
L 144.130558 289.113275 
L 150.948294 289.113275 
L 150.948294 288.589027 
L 151.616197 288.589027 
L 151.616197 288.06478 
L 176.814351 288.06478 
L 176.814351 287.540532 
L 177.756603 287.540532 
L 177.756603 287.016284 
L 177.910983 287.016284 
L 177.910983 286.492036 
L 179.434895 286.492036 
L 179.434895 285.443541 
L 180.28252 285.443541 
L 180.28252 284.919293 
L 197.555217 284.919293 
L 197.555217 283.870798 
L 197.848483 283.870798 
L 197.848483 283.34655 
L 206.329386 283.34655 
L 206.329386 282.298055 
L 213.703529 282.298055 
L 213.703529 281.249559 
L 217.795811 281.249559 
L 217.795811 280.725312 
L 219.021079 280.725312 
L 219.021079 279.676816 
L 226.567368 279.676816 
L 226.567368 278.104073 
L 229.413963 278.104073 
L 229.413963 277.579825 
L 231.384605 277.579825 
L 231.384605 276.53133 
L 232.684402 276.53133 
L 232.684402 274.958587 
L 232.916563 274.958587 
L 232.916563 274.434339 
L 234.870589 274.434339 
L 234.870589 273.910091 
L 243.896823 273.910091 
L 243.896823 272.861596 
L 244.521975 272.861596 
L 244.616521 270.764605 
L 245.004199 270.764605 
L 245.004199 270.240357 
L 245.315502 270.240357 
L 245.315502 269.716109 
L 245.610662 269.716109 
L 245.610662 269.191862 
L 246.035052 269.191862 
L 246.035052 267.619119 
L 246.475988 267.619119 
L 246.475988 267.094871 
L 259.306108 267.094871 
L 259.306108 266.570623 
L 259.495562 266.570623 
L 259.575347 265.522128 
L 259.887624 265.522128 
L 259.956707 264.473632 
L 260.105774 264.473632 
L 260.105774 263.949385 
L 260.260267 263.949385 
L 260.291518 262.900889 
L 260.375152 262.900889 
L 260.427845 261.852394 
L 260.545915 261.852394 
L 260.641337 259.231155 
L 260.688846 259.231155 
L 260.775269 256.609917 
L 260.808124 256.609917 
L 260.808124 256.085669 
L 260.951584 256.085669 
L 261.045513 253.46443 
L 261.071368 253.46443 
L 261.17093 248.746201 
L 261.195629 248.746201 
L 261.195629 247.697705 
L 261.307701 247.697705 
L 261.418216 243.503724 
L 261.422324 243.503724 
L 261.527119 237.736999 
L 261.559502 237.736999 
L 261.646818 234.591512 
L 261.676359 234.591512 
L 261.781591 231.446026 
L 261.79113 231.446026 
L 261.899723 229.349035 
L 261.912787 229.349035 
L 262.005539 226.203549 
L 262.033699 226.203549 
L 262.113747 222.009567 
L 262.152508 222.009567 
L 262.229946 218.864081 
L 262.300821 218.864081 
L 262.408397 216.242842 
L 262.415439 216.242842 
L 262.463618 214.670099 
L 262.573295 214.670099 
L 262.634274 213.621604 
L 263.344738 213.621604 
L 263.344738 213.097356 
L 263.612635 213.097356 
L 263.612635 212.573108 
L 275.480054 212.573108 
L 275.480054 212.04886 
L 275.647041 212.04886 
L 275.729043 209.95187 
L 275.790164 209.95187 
L 275.825584 207.330631 
L 276.027066 207.330631 
L 276.116939 204.709392 
L 276.140217 204.709392 
L 276.218416 202.088154 
L 276.252906 202.088154 
L 276.345401 194.748686 
L 276.377608 194.748686 
L 276.474839 188.457713 
L 276.520754 188.457713 
L 276.62469 182.690988 
L 276.637758 182.690988 
L 276.740393 175.35152 
L 276.75325 175.35152 
L 276.856354 161.196832 
L 276.891513 161.196832 
L 276.995827 153.333116 
L 277.008053 153.333116 
L 277.107869 143.372409 
L 277.120117 143.372409 
L 277.220052 134.984446 
L 277.240342 134.984446 
L 277.350222 123.975244 
L 277.372774 123.975244 
L 277.482137 111.393298 
L 277.486437 111.393298 
L 277.592704 103.005335 
L 277.616453 103.005335 
L 277.725878 91.471885 
L 277.741954 91.471885 
L 277.823466 81.511178 
L 277.8619 81.511178 
L 277.963085 72.074719 
L 278.006221 72.074719 
L 278.112359 64.735251 
L 278.135126 64.735251 
L 278.244861 58.968526 
L 278.26341 58.968526 
L 278.364728 53.726049 
L 278.374775 53.726049 
L 278.468528 47.959324 
L 278.524304 47.959324 
L 278.559217 44.813838 
L 278.639182 44.813838 
L 278.745538 41.144104 
L 278.791208 41.144104 
L 278.820384 39.571361 
L 278.906192 39.571361 
L 279.001529 36.950122 
L 279.04643 36.950122 
L 279.12881 34.853131 
L 279.195903 34.853131 
L 279.246188 32.231893 
L 279.378323 32.231893 
L 279.422901 30.65915 
L 279.56331 30.65915 
L 279.663996 28.037911 
L 279.705695 28.037911 
L 279.705695 27.513663 
L 333.429677 27.513663 
L 333.429677 27.513663 
" style="fill:none;stroke:#999999;stroke-linecap:square;stroke-width:1.5;"/>
   </g>
   <g id="line2d_71"/>
   <g id="line2d_72">
    <path d="M 0 0 
" style="fill:none;stroke:#999999;stroke-linecap:square;stroke-width:1.5;"/>
   </g>
   <g id="line2d_73">
    <defs>
     <path d="M 0 1.5 
C 0.397805 1.5 0.77937 1.341951 1.06066 1.06066 
C 1.341951 0.77937 1.5 0.397805 1.5 0 
C 1.5 -0.397805 1.341951 -0.77937 1.06066 -1.06066 
C 0.77937 -1.341951 0.397805 -1.5 0 -1.5 
C -0.397805 -1.5 -0.77937 -1.341951 -1.06066 -1.06066 
C -1.341951 -0.77937 -1.5 -0.397805 -1.5 0 
C -1.5 0.397805 -1.341951 0.77937 -1.06066 1.06066 
C -0.77937 1.341951 -0.397805 1.5 0 1.5 
z
" id="m22c51024d8" style="stroke:#ff00ff;"/>
    </defs>
    <g>
     <use style="fill:#ff00ff;stroke:#ff00ff;" x="234.23134" xlink:href="#m22c51024d8" y="284.395046"/>
     <use style="fill:#ff00ff;stroke:#ff00ff;" x="234.23134" xlink:href="#m22c51024d8" y="284.395046"/>
    </g>
   </g>
   <g id="line2d_74">
    <path d="M 124.355146 294.88 
L 124.355146 294.355752 
L 133.485972 294.355752 
L 133.485972 293.831505 
L 174.460243 293.831505 
L 174.460243 293.307257 
L 178.392085 293.307257 
L 178.392085 292.258761 
L 179.277258 292.258761 
L 179.277258 291.734514 
L 183.163755 291.734514 
L 183.163755 291.210266 
L 201.108332 291.210266 
L 201.108332 290.686018 
L 207.609366 290.686018 
L 207.609366 290.161771 
L 207.644681 290.161771 
L 207.644681 289.113275 
L 208.396716 289.113275 
L 208.396716 288.06478 
L 208.941673 288.06478 
L 208.941673 286.492036 
L 216.686286 286.492036 
L 216.686286 285.967789 
L 219.937051 285.967789 
L 219.937051 285.443541 
L 224.239667 285.443541 
L 224.239667 284.919293 
L 234.23134 284.919293 
L 234.23134 284.395046 
L 333.429677 284.395046 
" style="fill:none;stroke:#ff00ff;stroke-linecap:square;stroke-width:1.5;"/>
   </g>
   <g id="line2d_75">
    <defs>
     <path d="M -0 8.485281 
L 5.091169 0 
L 0 -8.485281 
L -5.091169 -0 
z
" id="m8f875f5a2d" style="stroke:#ff00ff;stroke-linejoin:miter;stroke-width:1.5;"/>
    </defs>
    <g>
     <use style="fill:none;stroke:#ff00ff;stroke-linejoin:miter;stroke-width:1.5;" x="133.485972" xlink:href="#m8f875f5a2d" y="294.355752"/>
     <use style="fill:none;stroke:#ff00ff;stroke-linejoin:miter;stroke-width:1.5;" x="207.644681" xlink:href="#m8f875f5a2d" y="289.113275"/>
     <use style="fill:none;stroke:#ff00ff;stroke-linejoin:miter;stroke-width:1.5;" x="234.23134" xlink:href="#m8f875f5a2d" y="284.919293"/>
     <use style="fill:none;stroke:#ff00ff;stroke-linejoin:miter;stroke-width:1.5;" x="234.23134" xlink:href="#m8f875f5a2d" y="284.395046"/>
     <use style="fill:none;stroke:#ff00ff;stroke-linejoin:miter;stroke-width:1.5;" x="333.429677" xlink:href="#m8f875f5a2d" y="284.395046"/>
    </g>
   </g>
   <g id="line2d_76">
    <path d="M 0 0 
" style="fill:none;stroke:#ff00ff;stroke-linecap:square;stroke-width:1.5;"/>
    <g>
     <use style="fill:none;stroke:#ff00ff;stroke-linejoin:miter;stroke-width:1.5;" x="0" xlink:href="#m8f875f5a2d" y="0"/>
    </g>
   </g>
   <g id="line2d_77">
    <path clip-path="url(#p6f47b46b83)" d="M 214.608031 286.492036 
" style="fill:none;stroke:#ff00ff;stroke-linecap:square;stroke-width:1.5;"/>
    <defs>
     <path d="M -12 12 
L 12 -12 
M -12 -12 
L 12 12 
" id="mf50ac18528" style="stroke:#ff00ff;stroke-width:3;"/>
    </defs>
    <g clip-path="url(#p6f47b46b83)">
     <use style="fill:#ff00ff;stroke:#ff00ff;stroke-width:3;" x="214.608031" xlink:href="#mf50ac18528" y="286.492036"/>
    </g>
   </g>
   <g id="line2d_78">
    <defs>
     <path d="M 0 1.5 
C 0.397805 1.5 0.77937 1.341951 1.06066 1.06066 
C 1.341951 0.77937 1.5 0.397805 1.5 0 
C 1.5 -0.397805 1.341951 -0.77937 1.06066 -1.06066 
C 0.77937 -1.341951 0.397805 -1.5 0 -1.5 
C -0.397805 -1.5 -0.77937 -1.341951 -1.06066 -1.06066 
C -1.341951 -0.77937 -1.5 -0.397805 -1.5 0 
C -1.5 0.397805 -1.341951 0.77937 -1.06066 1.06066 
C -0.77937 1.341951 -0.397805 1.5 0 1.5 
z
" id="m6d9330b92e" style="stroke:#ffa500;"/>
    </defs>
    <g>
     <use style="fill:#ffa500;stroke:#ffa500;" x="280.711208" xlink:href="#m6d9330b92e" y="273.910091"/>
     <use style="fill:#ffa500;stroke:#ffa500;" x="280.711208" xlink:href="#m6d9330b92e" y="273.910091"/>
    </g>
   </g>
   <g id="line2d_79">
    <path d="M 135.051963 294.88 
L 135.051963 293.307257 
L 137.350994 293.307257 
L 137.350994 292.258761 
L 139.378712 292.258761 
L 139.378712 291.210266 
L 141.192446 291.210266 
L 141.192446 290.161771 
L 142.83308 290.161771 
L 142.83308 289.637523 
L 190.31283 289.637523 
L 190.31283 287.016284 
L 190.41162 287.016284 
L 190.41162 284.919293 
L 190.704631 284.919293 
L 190.704631 284.395046 
L 228.348878 284.395046 
L 228.348878 281.249559 
L 228.359734 281.249559 
L 228.359734 279.676816 
L 228.370584 279.676816 
L 228.370584 279.152568 
L 280.710172 279.152568 
L 280.710172 277.055578 
L 280.71069 277.055578 
L 280.71069 274.434339 
L 280.711208 274.434339 
L 280.711208 273.910091 
L 333.429677 273.910091 
" style="fill:none;stroke:#ffa500;stroke-linecap:square;stroke-width:1.5;"/>
   </g>
   <g id="line2d_80">
    <defs>
     <path d="M 0 -6 
L -1.347084 -1.854102 
L -5.706339 -1.854102 
L -2.179628 0.708204 
L -3.526712 4.854102 
L -0 2.291796 
L 3.526712 4.854102 
L 2.179628 0.708204 
L 5.706339 -1.854102 
L 1.347084 -1.854102 
z
" id="m101e8e0a9f" style="stroke:#ffa500;stroke-linejoin:bevel;stroke-width:1.5;"/>
    </defs>
    <g>
     <use style="fill:none;stroke:#ffa500;stroke-linejoin:bevel;stroke-width:1.5;" x="190.704631" xlink:href="#m101e8e0a9f" y="284.919293"/>
     <use style="fill:none;stroke:#ffa500;stroke-linejoin:bevel;stroke-width:1.5;" x="228.370584" xlink:href="#m101e8e0a9f" y="279.152568"/>
     <use style="fill:none;stroke:#ffa500;stroke-linejoin:bevel;stroke-width:1.5;" x="280.711208" xlink:href="#m101e8e0a9f" y="273.910091"/>
     <use style="fill:none;stroke:#ffa500;stroke-linejoin:bevel;stroke-width:1.5;" x="280.711208" xlink:href="#m101e8e0a9f" y="273.910091"/>
     <use style="fill:none;stroke:#ffa500;stroke-linejoin:bevel;stroke-width:1.5;" x="333.429677" xlink:href="#m101e8e0a9f" y="273.910091"/>
    </g>
   </g>
   <g id="line2d_81">
    <path d="M 0 0 
" style="fill:none;stroke:#ffa500;stroke-linecap:square;stroke-width:1.5;"/>
    <g>
     <use style="fill:none;stroke:#ffa500;stroke-linejoin:bevel;stroke-width:1.5;" x="0" xlink:href="#m101e8e0a9f" y="0"/>
    </g>
   </g>
   <g id="line2d_82">
    <path clip-path="url(#p6f47b46b83)" d="M 101.585964 294.88 
" style="fill:none;stroke:#ffa500;stroke-linecap:square;stroke-width:1.5;"/>
    <defs>
     <path d="M -12 12 
L 12 -12 
M -12 -12 
L 12 12 
" id="m18a09b81d4" style="stroke:#ffa500;stroke-width:3;"/>
    </defs>
    <g clip-path="url(#p6f47b46b83)">
     <use style="fill:#ffa500;stroke:#ffa500;stroke-width:3;" x="101.585964" xlink:href="#m18a09b81d4" y="294.88"/>
    </g>
   </g>
   <g id="line2d_83">
    <defs>
     <path d="M 0 1.5 
C 0.397805 1.5 0.77937 1.341951 1.06066 1.06066 
C 1.341951 0.77937 1.5 0.397805 1.5 0 
C 1.5 -0.397805 1.341951 -0.77937 1.06066 -1.06066 
C 0.77937 -1.341951 0.397805 -1.5 0 -1.5 
C -0.397805 -1.5 -0.77937 -1.341951 -1.06066 -1.06066 
C -1.341951 -0.77937 -1.5 -0.397805 -1.5 0 
C -1.5 0.397805 -1.341951 0.77937 -1.06066 1.06066 
C -0.77937 1.341951 -0.397805 1.5 0 1.5 
z
" id="mad62c18414" style="stroke:#6495ed;"/>
    </defs>
    <g>
     <use style="fill:#6495ed;stroke:#6495ed;" x="354.998106" xlink:href="#mad62c18414" y="268.667614"/>
     <use style="fill:#6495ed;stroke:#6495ed;" x="354.998106" xlink:href="#mad62c18414" y="268.667614"/>
    </g>
   </g>
   <g id="line2d_84">
    <path d="M 134.724999 294.88 
L 134.724999 294.355752 
L 136.43077 294.355752 
L 136.43077 293.831505 
L 137.971497 293.831505 
L 137.971497 293.307257 
L 138.726645 293.307257 
L 138.726645 292.258761 
L 146.069846 292.258761 
L 146.069846 291.734514 
L 151.694564 291.734514 
L 151.694564 291.210266 
L 153.617552 291.210266 
L 153.617552 290.686018 
L 154.702806 290.686018 
L 154.702806 290.161771 
L 154.704203 290.161771 
L 154.704203 289.637523 
L 157.564374 289.637523 
L 157.564374 289.113275 
L 161.339307 289.113275 
L 161.339307 288.06478 
L 164.471217 288.06478 
L 164.471217 287.540532 
L 174.52965 287.540532 
L 174.52965 287.016284 
L 176.554719 287.016284 
L 176.554719 286.492036 
L 176.735747 286.492036 
L 176.735747 285.967789 
L 179.203107 285.967789 
L 179.203107 285.443541 
L 184.460891 285.443541 
L 184.460891 283.870798 
L 188.81291 283.870798 
L 188.81291 283.34655 
L 202.418437 283.34655 
L 202.418437 282.822302 
L 212.857386 282.822302 
L 212.857386 282.298055 
L 215.481968 282.298055 
L 215.481968 281.249559 
L 217.305981 281.249559 
L 217.305981 280.725312 
L 231.581193 280.725312 
L 231.581193 280.201064 
L 232.728548 280.201064 
L 232.728548 279.676816 
L 243.954237 279.676816 
L 243.954237 279.152568 
L 246.688763 279.152568 
L 246.688763 278.628321 
L 247.243036 278.628321 
L 247.243036 277.579825 
L 247.961569 277.579825 
L 247.961569 277.055578 
L 253.591842 277.055578 
L 253.591842 276.53133 
L 263.492088 276.53133 
L 263.492088 276.007082 
L 263.678816 276.007082 
L 263.678816 275.482834 
L 271.506452 275.482834 
L 271.506452 274.958587 
L 274.18832 274.958587 
L 274.18832 274.434339 
L 280.801783 274.434339 
L 280.801783 273.910091 
L 294.004494 273.910091 
L 294.004494 273.385844 
L 310.121486 273.385844 
L 310.121486 272.861596 
L 321.132761 272.861596 
L 321.132761 272.337348 
L 324.220874 272.337348 
L 324.220874 271.8131 
L 327.574055 271.8131 
L 327.574055 271.288853 
L 330.3835 271.288853 
L 330.3835 270.764605 
L 333.429677 270.764605 
" style="fill:none;stroke:#6495ed;stroke-linecap:square;stroke-width:1.5;"/>
   </g>
   <g id="line2d_85">
    <defs>
     <path d="M -0 6 
L 6 -6 
L -6 -6 
z
" id="mfe669553be" style="stroke:#6495ed;stroke-linejoin:miter;stroke-width:1.5;"/>
    </defs>
    <g>
     <use style="fill:none;stroke:#6495ed;stroke-linejoin:miter;stroke-width:1.5;" x="188.81291" xlink:href="#mfe669553be" y="283.870798"/>
     <use style="fill:none;stroke:#6495ed;stroke-linejoin:miter;stroke-width:1.5;" x="232.728548" xlink:href="#mfe669553be" y="279.676816"/>
     <use style="fill:none;stroke:#6495ed;stroke-linejoin:miter;stroke-width:1.5;" x="294.004494" xlink:href="#mfe669553be" y="273.385844"/>
     <use style="fill:none;stroke:#6495ed;stroke-linejoin:miter;stroke-width:1.5;" x="330.3835" xlink:href="#mfe669553be" y="270.764605"/>
     <use style="fill:none;stroke:#6495ed;stroke-linejoin:miter;stroke-width:1.5;" x="333.429677" xlink:href="#mfe669553be" y="270.764605"/>
    </g>
   </g>
   <g id="line2d_86">
    <path d="M 0 0 
" style="fill:none;stroke:#6495ed;stroke-linecap:square;stroke-width:1.5;"/>
    <g>
     <use style="fill:none;stroke:#6495ed;stroke-linejoin:miter;stroke-width:1.5;" x="0" xlink:href="#mfe669553be" y="0"/>
    </g>
   </g>
   <g id="line2d_87">
    <path clip-path="url(#p6f47b46b83)" d="M 285.083291 273.910091 
" style="fill:none;stroke:#6495ed;stroke-linecap:square;stroke-width:1.5;"/>
    <defs>
     <path d="M -12 12 
L 12 -12 
M -12 -12 
L 12 12 
" id="m12bf998e7e" style="stroke:#6495ed;stroke-width:3;"/>
    </defs>
    <g clip-path="url(#p6f47b46b83)">
     <use style="fill:#6495ed;stroke:#6495ed;stroke-width:3;" x="285.083291" xlink:href="#m12bf998e7e" y="273.910091"/>
    </g>
   </g>
   <g id="line2d_88">
    <path d="M 333.429677 284.395046 
L 363.933742 289.532673 
" style="fill:none;stroke:#ff00ff;stroke-linecap:square;stroke-width:1.5;"/>
    <g>
     <use style="fill:none;stroke:#ff00ff;stroke-linejoin:miter;stroke-width:1.5;" x="333.429677" xlink:href="#m8f875f5a2d" y="284.395046"/>
     <use style="fill:none;stroke:#ff00ff;stroke-linejoin:miter;stroke-width:1.5;" x="363.933742" xlink:href="#m8f875f5a2d" y="289.532673"/>
    </g>
   </g>
   <g id="line2d_89">
    <path d="M 333.429677 273.910091 
L 363.933742 203.975446 
" style="fill:none;stroke:#ffa500;stroke-linecap:square;stroke-width:1.5;"/>
    <g>
     <use style="fill:none;stroke:#ffa500;stroke-linejoin:bevel;stroke-width:1.5;" x="333.429677" xlink:href="#m101e8e0a9f" y="273.910091"/>
     <use style="fill:none;stroke:#ffa500;stroke-linejoin:bevel;stroke-width:1.5;" x="363.933742" xlink:href="#m101e8e0a9f" y="203.975446"/>
    </g>
   </g>
   <g id="line2d_90">
    <path d="M 333.429677 270.764605 
L 363.933742 118.418218 
" style="fill:none;stroke:#6495ed;stroke-linecap:square;stroke-width:1.5;"/>
    <g>
     <use style="fill:none;stroke:#6495ed;stroke-linejoin:miter;stroke-width:1.5;" x="333.429677" xlink:href="#mfe669553be" y="270.764605"/>
     <use style="fill:none;stroke:#6495ed;stroke-linejoin:miter;stroke-width:1.5;" x="363.933742" xlink:href="#mfe669553be" y="118.418218"/>
    </g>
   </g>
   <g id="line2d_91">
    <path d="M 333.429677 294.88 
L 333.429677 27.513663 
" style="fill:none;stroke:#000000;stroke-linecap:square;stroke-width:1.5;"/>
   </g>
   <g id="patch_3">
    <path d="M 56.12 294.88 
L 56.12 24.84 
" style="fill:none;stroke:#000000;stroke-linecap:square;stroke-linejoin:miter;stroke-width:0.8;"/>
   </g>
   <g id="patch_4">
    <path d="M 399.984 294.88 
L 399.984 24.84 
" style="fill:none;stroke:#000000;stroke-linecap:square;stroke-linejoin:miter;stroke-width:0.8;"/>
   </g>
   <g id="patch_5">
    <path d="M 56.12 294.88 
L 399.984 294.88 
" style="fill:none;stroke:#000000;stroke-linecap:square;stroke-linejoin:miter;stroke-width:0.8;"/>
   </g>
   <g id="patch_6">
    <path d="M 56.12 24.84 
L 399.984 24.84 
" style="fill:none;stroke:#000000;stroke-linecap:square;stroke-linejoin:miter;stroke-width:0.8;"/>
   </g>
   <g id="text_14">
    <!-- SNES scha -->
    <defs>
     <path d="M 53.515625 70.515625 
L 53.515625 60.890625 
Q 47.90625 63.578125 42.921875 64.890625 
Q 37.9375 66.21875 33.296875 66.21875 
Q 25.25 66.21875 20.875 63.09375 
Q 16.5 59.96875 16.5 54.203125 
Q 16.5 49.359375 19.40625 46.890625 
Q 22.3125 44.4375 30.421875 42.921875 
L 36.375 41.703125 
Q 47.40625 39.59375 52.65625 34.296875 
Q 57.90625 29 57.90625 20.125 
Q 57.90625 9.515625 50.796875 4.046875 
Q 43.703125 -1.421875 29.984375 -1.421875 
Q 24.8125 -1.421875 18.96875 -0.25 
Q 13.140625 0.921875 6.890625 3.21875 
L 6.890625 13.375 
Q 12.890625 10.015625 18.65625 8.296875 
Q 24.421875 6.59375 29.984375 6.59375 
Q 38.421875 6.59375 43.015625 9.90625 
Q 47.609375 13.234375 47.609375 19.390625 
Q 47.609375 24.75 44.3125 27.78125 
Q 41.015625 30.8125 33.5 32.328125 
L 27.484375 33.5 
Q 16.453125 35.6875 11.515625 40.375 
Q 6.59375 45.0625 6.59375 53.421875 
Q 6.59375 63.09375 13.40625 68.65625 
Q 20.21875 74.21875 32.171875 74.21875 
Q 37.3125 74.21875 42.625 73.28125 
Q 47.953125 72.359375 53.515625 70.515625 
z
" id="DejaVuSans-53"/>
     <path d="M 9.8125 72.90625 
L 23.09375 72.90625 
L 55.421875 11.921875 
L 55.421875 72.90625 
L 64.984375 72.90625 
L 64.984375 0 
L 51.703125 0 
L 19.390625 60.984375 
L 19.390625 0 
L 9.8125 0 
z
" id="DejaVuSans-4e"/>
     <path d="M 9.8125 72.90625 
L 55.90625 72.90625 
L 55.90625 64.59375 
L 19.671875 64.59375 
L 19.671875 43.015625 
L 54.390625 43.015625 
L 54.390625 34.71875 
L 19.671875 34.71875 
L 19.671875 8.296875 
L 56.78125 8.296875 
L 56.78125 0 
L 9.8125 0 
z
" id="DejaVuSans-45"/>
     <path d="M 54.890625 33.015625 
L 54.890625 0 
L 45.90625 0 
L 45.90625 32.71875 
Q 45.90625 40.484375 42.875 44.328125 
Q 39.84375 48.1875 33.796875 48.1875 
Q 26.515625 48.1875 22.3125 43.546875 
Q 18.109375 38.921875 18.109375 30.90625 
L 18.109375 0 
L 9.078125 0 
L 9.078125 75.984375 
L 18.109375 75.984375 
L 18.109375 46.1875 
Q 21.34375 51.125 25.703125 53.5625 
Q 30.078125 56 35.796875 56 
Q 45.21875 56 50.046875 50.171875 
Q 54.890625 44.34375 54.890625 33.015625 
z
" id="DejaVuSans-68"/>
    </defs>
    <g transform="translate(369.479935 294.223611)scale(0.17 -0.17)">
     <use xlink:href="#DejaVuSans-53"/>
     <use x="63.476562" xlink:href="#DejaVuSans-4e"/>
     <use x="138.28125" xlink:href="#DejaVuSans-45"/>
     <use x="201.464844" xlink:href="#DejaVuSans-53"/>
     <use x="264.941406" xlink:href="#DejaVuSans-20"/>
     <use x="296.728516" xlink:href="#DejaVuSans-73"/>
     <use x="348.828125" xlink:href="#DejaVuSans-63"/>
     <use x="403.808594" xlink:href="#DejaVuSans-68"/>
     <use x="467.1875" xlink:href="#DejaVuSans-61"/>
    </g>
   </g>
   <g id="text_15">
    <!-- xNES scha -->
    <defs>
     <path d="M 54.890625 54.6875 
L 35.109375 28.078125 
L 55.90625 0 
L 45.3125 0 
L 29.390625 21.484375 
L 13.484375 0 
L 2.875 0 
L 24.125 28.609375 
L 4.6875 54.6875 
L 15.28125 54.6875 
L 29.78125 35.203125 
L 44.28125 54.6875 
z
" id="DejaVuSans-78"/>
    </defs>
    <g transform="translate(369.479935 208.666383)scale(0.17 -0.17)">
     <use xlink:href="#DejaVuSans-78"/>
     <use x="59.179688" xlink:href="#DejaVuSans-4e"/>
     <use x="133.984375" xlink:href="#DejaVuSans-45"/>
     <use x="197.167969" xlink:href="#DejaVuSans-53"/>
     <use x="260.644531" xlink:href="#DejaVuSans-20"/>
     <use x="292.431641" xlink:href="#DejaVuSans-73"/>
     <use x="344.53125" xlink:href="#DejaVuSans-63"/>
     <use x="399.511719" xlink:href="#DejaVuSans-68"/>
     <use x="462.890625" xlink:href="#DejaVuSans-61"/>
    </g>
   </g>
   <g id="text_16">
    <!-- xNESas sc -->
    <g transform="translate(369.479935 123.109155)scale(0.17 -0.17)">
     <use xlink:href="#DejaVuSans-78"/>
     <use x="59.179688" xlink:href="#DejaVuSans-4e"/>
     <use x="133.984375" xlink:href="#DejaVuSans-45"/>
     <use x="197.167969" xlink:href="#DejaVuSans-53"/>
     <use x="260.644531" xlink:href="#DejaVuSans-61"/>
     <use x="321.923828" xlink:href="#DejaVuSans-73"/>
     <use x="374.023438" xlink:href="#DejaVuSans-20"/>
     <use x="405.810547" xlink:href="#DejaVuSans-73"/>
     <use x="457.910156" xlink:href="#DejaVuSans-63"/>
    </g>
   </g>
   <g id="text_17">
    <!-- best 2009 -->
    <defs>
     <path d="M 48.6875 27.296875 
Q 48.6875 37.203125 44.609375 42.84375 
Q 40.53125 48.484375 33.40625 48.484375 
Q 26.265625 48.484375 22.1875 42.84375 
Q 18.109375 37.203125 18.109375 27.296875 
Q 18.109375 17.390625 22.1875 11.75 
Q 26.265625 6.109375 33.40625 6.109375 
Q 40.53125 6.109375 44.609375 11.75 
Q 48.6875 17.390625 48.6875 27.296875 
z
M 18.109375 46.390625 
Q 20.953125 51.265625 25.265625 53.625 
Q 29.59375 56 35.59375 56 
Q 45.5625 56 51.78125 48.09375 
Q 58.015625 40.1875 58.015625 27.296875 
Q 58.015625 14.40625 51.78125 6.484375 
Q 45.5625 -1.421875 35.59375 -1.421875 
Q 29.59375 -1.421875 25.265625 0.953125 
Q 20.953125 3.328125 18.109375 8.203125 
L 18.109375 0 
L 9.078125 0 
L 9.078125 75.984375 
L 18.109375 75.984375 
z
" id="DejaVuSans-62"/>
     <path d="M 10.984375 1.515625 
L 10.984375 10.5 
Q 14.703125 8.734375 18.5 7.8125 
Q 22.3125 6.890625 25.984375 6.890625 
Q 35.75 6.890625 40.890625 13.453125 
Q 46.046875 20.015625 46.78125 33.40625 
Q 43.953125 29.203125 39.59375 26.953125 
Q 35.25 24.703125 29.984375 24.703125 
Q 19.046875 24.703125 12.671875 31.3125 
Q 6.296875 37.9375 6.296875 49.421875 
Q 6.296875 60.640625 12.9375 67.421875 
Q 19.578125 74.21875 30.609375 74.21875 
Q 43.265625 74.21875 49.921875 64.515625 
Q 56.59375 54.828125 56.59375 36.375 
Q 56.59375 19.140625 48.40625 8.859375 
Q 40.234375 -1.421875 26.421875 -1.421875 
Q 22.703125 -1.421875 18.890625 -0.6875 
Q 15.09375 0.046875 10.984375 1.515625 
z
M 30.609375 32.421875 
Q 37.25 32.421875 41.125 36.953125 
Q 45.015625 41.5 45.015625 49.421875 
Q 45.015625 57.28125 41.125 61.84375 
Q 37.25 66.40625 30.609375 66.40625 
Q 23.96875 66.40625 20.09375 61.84375 
Q 16.21875 57.28125 16.21875 49.421875 
Q 16.21875 41.5 20.09375 36.953125 
Q 23.96875 32.421875 30.609375 32.421875 
z
" id="DejaVuSans-39"/>
    </defs>
    <g transform="translate(369.479935 37.551928)scale(0.17 -0.17)">
     <use xlink:href="#DejaVuSans-62"/>
     <use x="63.476562" xlink:href="#DejaVuSans-65"/>
     <use x="125" xlink:href="#DejaVuSans-73"/>
     <use x="177.099609" xlink:href="#DejaVuSans-74"/>
     <use x="216.308594" xlink:href="#DejaVuSans-20"/>
     <use x="248.095703" xlink:href="#DejaVuSans-32"/>
     <use x="311.71875" xlink:href="#DejaVuSans-30"/>
     <use x="375.341797" xlink:href="#DejaVuSans-30"/>
     <use x="438.964844" xlink:href="#DejaVuSans-39"/>
    </g>
   </g>
   <g id="text_18">
    <!-- bbob f107, 40-D -->
    <defs>
     <path d="M 8.203125 72.90625 
L 55.078125 72.90625 
L 55.078125 68.703125 
L 28.609375 0 
L 18.3125 0 
L 43.21875 64.59375 
L 8.203125 64.59375 
z
" id="DejaVuSans-37"/>
     <path d="M 19.671875 64.796875 
L 19.671875 8.109375 
L 31.59375 8.109375 
Q 46.6875 8.109375 53.6875 14.9375 
Q 60.6875 21.78125 60.6875 36.53125 
Q 60.6875 51.171875 53.6875 57.984375 
Q 46.6875 64.796875 31.59375 64.796875 
z
M 9.8125 72.90625 
L 30.078125 72.90625 
Q 51.265625 72.90625 61.171875 64.09375 
Q 71.09375 55.28125 71.09375 36.53125 
Q 71.09375 17.671875 61.125 8.828125 
Q 51.171875 0 30.078125 0 
L 9.8125 0 
z
" id="DejaVuSans-44"/>
    </defs>
    <g transform="translate(59.55864 35.290806)scale(0.102 -0.102)">
     <use xlink:href="#DejaVuSans-62"/>
     <use x="63.476562" xlink:href="#DejaVuSans-62"/>
     <use x="126.953125" xlink:href="#DejaVuSans-6f"/>
     <use x="188.134766" xlink:href="#DejaVuSans-62"/>
     <use x="251.611328" xlink:href="#DejaVuSans-20"/>
     <use x="283.398438" xlink:href="#DejaVuSans-66"/>
     <use x="318.603516" xlink:href="#DejaVuSans-31"/>
     <use x="382.226562" xlink:href="#DejaVuSans-30"/>
     <use x="445.849609" xlink:href="#DejaVuSans-37"/>
     <use x="509.472656" xlink:href="#DejaVuSans-2c"/>
     <use x="541.259766" xlink:href="#DejaVuSans-20"/>
     <use x="573.046875" xlink:href="#DejaVuSans-34"/>
     <use x="636.669922" xlink:href="#DejaVuSans-30"/>
     <use x="700.292969" xlink:href="#DejaVuSans-2d"/>
     <use x="736.376953" xlink:href="#DejaVuSans-44"/>
    </g>
    <!-- 51 targets: 100..1e-08 -->
    <defs>
     <path d="M 10.796875 72.90625 
L 49.515625 72.90625 
L 49.515625 64.59375 
L 19.828125 64.59375 
L 19.828125 46.734375 
Q 21.96875 47.46875 24.109375 47.828125 
Q 26.265625 48.1875 28.421875 48.1875 
Q 40.625 48.1875 47.75 41.5 
Q 54.890625 34.8125 54.890625 23.390625 
Q 54.890625 11.625 47.5625 5.09375 
Q 40.234375 -1.421875 26.90625 -1.421875 
Q 22.3125 -1.421875 17.546875 -0.640625 
Q 12.796875 0.140625 7.71875 1.703125 
L 7.71875 11.625 
Q 12.109375 9.234375 16.796875 8.0625 
Q 21.484375 6.890625 26.703125 6.890625 
Q 35.15625 6.890625 40.078125 11.328125 
Q 45.015625 15.765625 45.015625 23.390625 
Q 45.015625 31 40.078125 35.4375 
Q 35.15625 39.890625 26.703125 39.890625 
Q 22.75 39.890625 18.8125 39.015625 
Q 14.890625 38.140625 10.796875 36.28125 
z
" id="DejaVuSans-35"/>
     <path d="M 11.71875 12.40625 
L 22.015625 12.40625 
L 22.015625 0 
L 11.71875 0 
z
M 11.71875 51.703125 
L 22.015625 51.703125 
L 22.015625 39.3125 
L 11.71875 39.3125 
z
" id="DejaVuSans-3a"/>
    </defs>
    <g transform="translate(59.55864 46.712575)scale(0.102 -0.102)">
     <use xlink:href="#DejaVuSans-35"/>
     <use x="63.623047" xlink:href="#DejaVuSans-31"/>
     <use x="127.246094" xlink:href="#DejaVuSans-20"/>
     <use x="159.033203" xlink:href="#DejaVuSans-74"/>
     <use x="198.242188" xlink:href="#DejaVuSans-61"/>
     <use x="259.521484" xlink:href="#DejaVuSans-72"/>
     <use x="300.619141" xlink:href="#DejaVuSans-67"/>
     <use x="364.095703" xlink:href="#DejaVuSans-65"/>
     <use x="425.619141" xlink:href="#DejaVuSans-74"/>
     <use x="464.828125" xlink:href="#DejaVuSans-73"/>
     <use x="516.927734" xlink:href="#DejaVuSans-3a"/>
     <use x="550.619141" xlink:href="#DejaVuSans-20"/>
     <use x="582.40625" xlink:href="#DejaVuSans-31"/>
     <use x="646.029297" xlink:href="#DejaVuSans-30"/>
     <use x="709.652344" xlink:href="#DejaVuSans-30"/>
     <use x="773.275391" xlink:href="#DejaVuSans-2e"/>
     <use x="805.0625" xlink:href="#DejaVuSans-2e"/>
     <use x="836.849609" xlink:href="#DejaVuSans-31"/>
     <use x="900.472656" xlink:href="#DejaVuSans-65"/>
     <use x="961.996094" xlink:href="#DejaVuSans-2d"/>
     <use x="998.080078" xlink:href="#DejaVuSans-30"/>
     <use x="1061.703125" xlink:href="#DejaVuSans-38"/>
    </g>
    <!-- 2, 27, 15 instances -->
    <g transform="translate(59.55864 58.134344)scale(0.102 -0.102)">
     <use xlink:href="#DejaVuSans-32"/>
     <use x="63.623047" xlink:href="#DejaVuSans-2c"/>
     <use x="95.410156" xlink:href="#DejaVuSans-20"/>
     <use x="127.197266" xlink:href="#DejaVuSans-32"/>
     <use x="190.820312" xlink:href="#DejaVuSans-37"/>
     <use x="254.443359" xlink:href="#DejaVuSans-2c"/>
     <use x="286.230469" xlink:href="#DejaVuSans-20"/>
     <use x="318.017578" xlink:href="#DejaVuSans-31"/>
     <use x="381.640625" xlink:href="#DejaVuSans-35"/>
     <use x="445.263672" xlink:href="#DejaVuSans-20"/>
     <use x="477.050781" xlink:href="#DejaVuSans-69"/>
     <use x="504.833984" xlink:href="#DejaVuSans-6e"/>
     <use x="568.212891" xlink:href="#DejaVuSans-73"/>
     <use x="620.3125" xlink:href="#DejaVuSans-74"/>
     <use x="659.521484" xlink:href="#DejaVuSans-61"/>
     <use x="720.800781" xlink:href="#DejaVuSans-6e"/>
     <use x="784.179688" xlink:href="#DejaVuSans-63"/>
     <use x="839.160156" xlink:href="#DejaVuSans-65"/>
     <use x="900.683594" xlink:href="#DejaVuSans-73"/>
    </g>
   </g>
   <g id="text_19">
    <!-- v2.0.778 -->
    <g style="fill:#808080;" transform="translate(206.00825 290.099912)scale(0.1 -0.1)">
     <use xlink:href="#DejaVuSans-76"/>
     <use x="59.179688" xlink:href="#DejaVuSans-32"/>
     <use x="122.802734" xlink:href="#DejaVuSans-2e"/>
     <use x="154.589844" xlink:href="#DejaVuSans-30"/>
     <use x="218.212891" xlink:href="#DejaVuSans-2e"/>
     <use x="250" xlink:href="#DejaVuSans-37"/>
     <use x="313.623047" xlink:href="#DejaVuSans-37"/>
     <use x="377.246094" xlink:href="#DejaVuSans-38"/>
    </g>
   </g>
   <g id="text_20">
    <!-- 107 Sphere Gauss -->
    <defs>
     <path d="M 59.515625 10.40625 
L 59.515625 29.984375 
L 43.40625 29.984375 
L 43.40625 38.09375 
L 69.28125 38.09375 
L 69.28125 6.78125 
Q 63.578125 2.734375 56.6875 0.65625 
Q 49.8125 -1.421875 42 -1.421875 
Q 24.90625 -1.421875 15.25 8.5625 
Q 5.609375 18.5625 5.609375 36.375 
Q 5.609375 54.25 15.25 64.234375 
Q 24.90625 74.21875 42 74.21875 
Q 49.125 74.21875 55.546875 72.453125 
Q 61.96875 70.703125 67.390625 67.28125 
L 67.390625 56.78125 
Q 61.921875 61.421875 55.765625 63.765625 
Q 49.609375 66.109375 42.828125 66.109375 
Q 29.4375 66.109375 22.71875 58.640625 
Q 16.015625 51.171875 16.015625 36.375 
Q 16.015625 21.625 22.71875 14.15625 
Q 29.4375 6.6875 42.828125 6.6875 
Q 48.046875 6.6875 52.140625 7.59375 
Q 56.25 8.5 59.515625 10.40625 
z
" id="DejaVuSans-47"/>
    </defs>
    <g transform="translate(136.527 18.84)scale(0.2 -0.2)">
     <use xlink:href="#DejaVuSans-31"/>
     <use x="63.623047" xlink:href="#DejaVuSans-30"/>
     <use x="127.246094" xlink:href="#DejaVuSans-37"/>
     <use x="190.869141" xlink:href="#DejaVuSans-20"/>
     <use x="222.65625" xlink:href="#DejaVuSans-53"/>
     <use x="286.132812" xlink:href="#DejaVuSans-70"/>
     <use x="349.609375" xlink:href="#DejaVuSans-68"/>
     <use x="412.988281" xlink:href="#DejaVuSans-65"/>
     <use x="474.511719" xlink:href="#DejaVuSans-72"/>
     <use x="515.59375" xlink:href="#DejaVuSans-65"/>
     <use x="577.117188" xlink:href="#DejaVuSans-20"/>
     <use x="608.904297" xlink:href="#DejaVuSans-47"/>
     <use x="686.394531" xlink:href="#DejaVuSans-61"/>
     <use x="747.673828" xlink:href="#DejaVuSans-75"/>
     <use x="811.052734" xlink:href="#DejaVuSans-73"/>
     <use x="863.152344" xlink:href="#DejaVuSans-73"/>
    </g>
   </g>
  </g>
 </g>
 <defs>
  <clipPath id="p6f47b46b83">
   <rect height="270.04" width="343.864" x="56.12" y="24.84"/>
  </clipPath>
 </defs>
</svg>
