<?xml version="1.0" encoding="utf-8" standalone="no"?>
<!DOCTYPE svg PUBLIC "-//W3C//DTD SVG 1.1//EN"
  "http://www.w3.org/Graphics/SVG/1.1/DTD/svg11.dtd">
<!-- Created with matplotlib (http://matplotlib.org/) -->
<svg height="345pt" version="1.1" viewBox="0 0 460 345" width="460pt" xmlns="http://www.w3.org/2000/svg" xmlns:xlink="http://www.w3.org/1999/xlink">
 <defs>
  <style type="text/css">
*{stroke-linecap:butt;stroke-linejoin:round;}
  </style>
 </defs>
 <g id="figure_1">
  <g id="patch_1">
   <path d="M 0 345.6 
L 460.8 345.6 
L 460.8 0 
L 0 0 
z
" style="fill:#ffffff;"/>
  </g>
  <g id="axes_1">
   <g id="patch_2">
    <path d="M 56.12 294.88 
L 399.984 294.88 
L 399.984 24.84 
L 56.12 24.84 
z
" style="fill:#ffffff;"/>
   </g>
   <g id="line2d_1">
    <path d="M -1 290.270236 
L 135.939052 290.270236 
L 135.939052 281.050707 
L 140.131211 281.050707 
L 140.131211 271.831178 
L 142.572162 271.831178 
L 142.572162 267.221413 
L 145.406682 267.221413 
L 145.406682 253.39212 
L 147.943354 253.39212 
L 147.943354 244.172591 
L 151.146937 244.172591 
L 151.146937 239.562827 
L 154.716768 239.562827 
L 154.716768 230.343298 
L 159.090149 230.343298 
L 159.090149 216.514005 
L 164.20797 216.514005 
L 164.20797 207.294476 
L 170.162528 207.294476 
L 170.162528 198.074947 
L 178.268628 198.074947 
L 178.268628 188.855418 
L 192.086169 188.855418 
L 192.086169 184.245654 
L 213.737717 184.245654 
L 213.737717 170.416361 
L 250.985615 170.416361 
L 250.985615 165.806596 
L 263.077449 165.806596 
L 263.077449 151.977303 
L 278.971504 151.977303 
L 278.971504 142.757774 
L 333.429677 142.757774 
" style="fill:none;stroke:#f5deb3;stroke-linecap:square;stroke-width:6;"/>
   </g>
   <g id="line2d_2">
    <path d="M 0 0 
" style="fill:none;stroke:#f5deb3;stroke-linecap:square;stroke-width:6;"/>
    <defs>
     <path d="M -0 7.778175 
L 7.778175 0 
L 0 -7.778175 
L -7.778175 -0 
z
" id="mc7690aac73" style="stroke:#f5deb3;stroke-linejoin:miter;stroke-width:1.5;"/>
    </defs>
    <g>
     <use style="fill:#f5deb3;stroke:#f5deb3;stroke-linejoin:miter;stroke-width:1.5;" x="0" xlink:href="#mc7690aac73" y="0"/>
    </g>
   </g>
   <g id="line2d_3">
    <path d="M 333.429677 142.757774 
L 363.933742 32.86099 
" style="fill:none;stroke:#f5deb3;stroke-linecap:square;stroke-width:6;"/>
    <g>
     <use style="fill:#f5deb3;stroke:#f5deb3;stroke-linejoin:miter;stroke-width:1.5;" x="333.429677" xlink:href="#mc7690aac73" y="142.757774"/>
     <use style="fill:#f5deb3;stroke:#f5deb3;stroke-linejoin:miter;stroke-width:1.5;" x="363.933742" xlink:href="#mc7690aac73" y="32.86099"/>
    </g>
   </g>
   <g id="matplotlib.axis_1">
    <g id="xtick_1">
     <g id="line2d_4">
      <path clip-path="url(#p029d57ad15)" d="M 56.12 294.88 
L 56.12 24.84 
" style="fill:none;stroke:#b0b0b0;stroke-linecap:square;stroke-width:0.8;"/>
     </g>
     <g id="line2d_5">
      <defs>
       <path d="M 0 0 
L 0 3.5 
" id="m2bfeb89ff0" style="stroke:#000000;stroke-width:0.8;"/>
      </defs>
      <g>
       <use style="stroke:#000000;stroke-width:0.8;" x="56.12" xlink:href="#m2bfeb89ff0" y="294.88"/>
      </g>
     </g>
     <g id="text_1">
      <!-- 0 -->
      <defs>
       <path d="M 31.78125 66.40625 
Q 24.171875 66.40625 20.328125 58.90625 
Q 16.5 51.421875 16.5 36.375 
Q 16.5 21.390625 20.328125 13.890625 
Q 24.171875 6.390625 31.78125 6.390625 
Q 39.453125 6.390625 43.28125 13.890625 
Q 47.125 21.390625 47.125 36.375 
Q 47.125 51.421875 43.28125 58.90625 
Q 39.453125 66.40625 31.78125 66.40625 
z
M 31.78125 74.21875 
Q 44.046875 74.21875 50.515625 64.515625 
Q 56.984375 54.828125 56.984375 36.375 
Q 56.984375 17.96875 50.515625 8.265625 
Q 44.046875 -1.421875 31.78125 -1.421875 
Q 19.53125 -1.421875 13.0625 8.265625 
Q 6.59375 17.96875 6.59375 36.375 
Q 6.59375 54.828125 13.0625 64.515625 
Q 19.53125 74.21875 31.78125 74.21875 
z
" id="DejaVuSans-30"/>
      </defs>
      <g transform="translate(49.7575 317.076875)scale(0.2 -0.2)">
       <use xlink:href="#DejaVuSans-30"/>
      </g>
     </g>
    </g>
    <g id="xtick_2">
     <g id="line2d_6">
      <path clip-path="url(#p029d57ad15)" d="M 135.351336 294.88 
L 135.351336 24.84 
" style="fill:none;stroke:#b0b0b0;stroke-linecap:square;stroke-width:0.8;"/>
     </g>
     <g id="line2d_7">
      <g>
       <use style="stroke:#000000;stroke-width:0.8;" x="135.351336" xlink:href="#m2bfeb89ff0" y="294.88"/>
      </g>
     </g>
     <g id="text_2">
      <!-- 2 -->
      <defs>
       <path d="M 19.1875 8.296875 
L 53.609375 8.296875 
L 53.609375 0 
L 7.328125 0 
L 7.328125 8.296875 
Q 12.9375 14.109375 22.625 23.890625 
Q 32.328125 33.6875 34.8125 36.53125 
Q 39.546875 41.84375 41.421875 45.53125 
Q 43.3125 49.21875 43.3125 52.78125 
Q 43.3125 58.59375 39.234375 62.25 
Q 35.15625 65.921875 28.609375 65.921875 
Q 23.96875 65.921875 18.8125 64.3125 
Q 13.671875 62.703125 7.8125 59.421875 
L 7.8125 69.390625 
Q 13.765625 71.78125 18.9375 73 
Q 24.125 74.21875 28.421875 74.21875 
Q 39.75 74.21875 46.484375 68.546875 
Q 53.21875 62.890625 53.21875 53.421875 
Q 53.21875 48.921875 51.53125 44.890625 
Q 49.859375 40.875 45.40625 35.40625 
Q 44.1875 33.984375 37.640625 27.21875 
Q 31.109375 20.453125 19.1875 8.296875 
z
" id="DejaVuSans-32"/>
      </defs>
      <g transform="translate(128.988836 317.076875)scale(0.2 -0.2)">
       <use xlink:href="#DejaVuSans-32"/>
      </g>
     </g>
    </g>
    <g id="xtick_3">
     <g id="line2d_8">
      <path clip-path="url(#p029d57ad15)" d="M 214.582673 294.88 
L 214.582673 24.84 
" style="fill:none;stroke:#b0b0b0;stroke-linecap:square;stroke-width:0.8;"/>
     </g>
     <g id="line2d_9">
      <g>
       <use style="stroke:#000000;stroke-width:0.8;" x="214.582673" xlink:href="#m2bfeb89ff0" y="294.88"/>
      </g>
     </g>
     <g id="text_3">
      <!-- 4 -->
      <defs>
       <path d="M 37.796875 64.3125 
L 12.890625 25.390625 
L 37.796875 25.390625 
z
M 35.203125 72.90625 
L 47.609375 72.90625 
L 47.609375 25.390625 
L 58.015625 25.390625 
L 58.015625 17.1875 
L 47.609375 17.1875 
L 47.609375 0 
L 37.796875 0 
L 37.796875 17.1875 
L 4.890625 17.1875 
L 4.890625 26.703125 
z
" id="DejaVuSans-34"/>
      </defs>
      <g transform="translate(208.220173 317.076875)scale(0.2 -0.2)">
       <use xlink:href="#DejaVuSans-34"/>
      </g>
     </g>
    </g>
    <g id="xtick_4">
     <g id="line2d_10">
      <path clip-path="url(#p029d57ad15)" d="M 293.814009 294.88 
L 293.814009 24.84 
" style="fill:none;stroke:#b0b0b0;stroke-linecap:square;stroke-width:0.8;"/>
     </g>
     <g id="line2d_11">
      <g>
       <use style="stroke:#000000;stroke-width:0.8;" x="293.814009" xlink:href="#m2bfeb89ff0" y="294.88"/>
      </g>
     </g>
     <g id="text_4">
      <!-- 6 -->
      <defs>
       <path d="M 33.015625 40.375 
Q 26.375 40.375 22.484375 35.828125 
Q 18.609375 31.296875 18.609375 23.390625 
Q 18.609375 15.53125 22.484375 10.953125 
Q 26.375 6.390625 33.015625 6.390625 
Q 39.65625 6.390625 43.53125 10.953125 
Q 47.40625 15.53125 47.40625 23.390625 
Q 47.40625 31.296875 43.53125 35.828125 
Q 39.65625 40.375 33.015625 40.375 
z
M 52.59375 71.296875 
L 52.59375 62.3125 
Q 48.875 64.0625 45.09375 64.984375 
Q 41.3125 65.921875 37.59375 65.921875 
Q 27.828125 65.921875 22.671875 59.328125 
Q 17.53125 52.734375 16.796875 39.40625 
Q 19.671875 43.65625 24.015625 45.921875 
Q 28.375 48.1875 33.59375 48.1875 
Q 44.578125 48.1875 50.953125 41.515625 
Q 57.328125 34.859375 57.328125 23.390625 
Q 57.328125 12.15625 50.6875 5.359375 
Q 44.046875 -1.421875 33.015625 -1.421875 
Q 20.359375 -1.421875 13.671875 8.265625 
Q 6.984375 17.96875 6.984375 36.375 
Q 6.984375 53.65625 15.1875 63.9375 
Q 23.390625 74.21875 37.203125 74.21875 
Q 40.921875 74.21875 44.703125 73.484375 
Q 48.484375 72.75 52.59375 71.296875 
z
" id="DejaVuSans-36"/>
      </defs>
      <g transform="translate(287.451509 317.076875)scale(0.2 -0.2)">
       <use xlink:href="#DejaVuSans-36"/>
      </g>
     </g>
    </g>
    <g id="xtick_5">
     <g id="line2d_12">
      <path clip-path="url(#p029d57ad15)" d="M 373.045346 294.88 
L 373.045346 24.84 
" style="fill:none;stroke:#b0b0b0;stroke-linecap:square;stroke-width:0.8;"/>
     </g>
     <g id="line2d_13">
      <g>
       <use style="stroke:#000000;stroke-width:0.8;" x="373.045346" xlink:href="#m2bfeb89ff0" y="294.88"/>
      </g>
     </g>
     <g id="text_5">
      <!-- 8 -->
      <defs>
       <path d="M 31.78125 34.625 
Q 24.75 34.625 20.71875 30.859375 
Q 16.703125 27.09375 16.703125 20.515625 
Q 16.703125 13.921875 20.71875 10.15625 
Q 24.75 6.390625 31.78125 6.390625 
Q 38.8125 6.390625 42.859375 10.171875 
Q 46.921875 13.96875 46.921875 20.515625 
Q 46.921875 27.09375 42.890625 30.859375 
Q 38.875 34.625 31.78125 34.625 
z
M 21.921875 38.8125 
Q 15.578125 40.375 12.03125 44.71875 
Q 8.5 49.078125 8.5 55.328125 
Q 8.5 64.0625 14.71875 69.140625 
Q 20.953125 74.21875 31.78125 74.21875 
Q 42.671875 74.21875 48.875 69.140625 
Q 55.078125 64.0625 55.078125 55.328125 
Q 55.078125 49.078125 51.53125 44.71875 
Q 48 40.375 41.703125 38.8125 
Q 48.828125 37.15625 52.796875 32.3125 
Q 56.78125 27.484375 56.78125 20.515625 
Q 56.78125 9.90625 50.3125 4.234375 
Q 43.84375 -1.421875 31.78125 -1.421875 
Q 19.734375 -1.421875 13.25 4.234375 
Q 6.78125 9.90625 6.78125 20.515625 
Q 6.78125 27.484375 10.78125 32.3125 
Q 14.796875 37.15625 21.921875 38.8125 
z
M 18.3125 54.390625 
Q 18.3125 48.734375 21.84375 45.5625 
Q 25.390625 42.390625 31.78125 42.390625 
Q 38.140625 42.390625 41.71875 45.5625 
Q 45.3125 48.734375 45.3125 54.390625 
Q 45.3125 60.0625 41.71875 63.234375 
Q 38.140625 66.40625 31.78125 66.40625 
Q 25.390625 66.40625 21.84375 63.234375 
Q 18.3125 60.0625 18.3125 54.390625 
z
" id="DejaVuSans-38"/>
      </defs>
      <g transform="translate(366.682846 317.076875)scale(0.2 -0.2)">
       <use xlink:href="#DejaVuSans-38"/>
      </g>
     </g>
    </g>
    <g id="text_6">
     <!-- log10(# f-evals / dimension) -->
     <defs>
      <path d="M 9.421875 75.984375 
L 18.40625 75.984375 
L 18.40625 0 
L 9.421875 0 
z
" id="DejaVuSans-6c"/>
      <path d="M 30.609375 48.390625 
Q 23.390625 48.390625 19.1875 42.75 
Q 14.984375 37.109375 14.984375 27.296875 
Q 14.984375 17.484375 19.15625 11.84375 
Q 23.34375 6.203125 30.609375 6.203125 
Q 37.796875 6.203125 41.984375 11.859375 
Q 46.1875 17.53125 46.1875 27.296875 
Q 46.1875 37.015625 41.984375 42.703125 
Q 37.796875 48.390625 30.609375 48.390625 
z
M 30.609375 56 
Q 42.328125 56 49.015625 48.375 
Q 55.71875 40.765625 55.71875 27.296875 
Q 55.71875 13.875 49.015625 6.21875 
Q 42.328125 -1.421875 30.609375 -1.421875 
Q 18.84375 -1.421875 12.171875 6.21875 
Q 5.515625 13.875 5.515625 27.296875 
Q 5.515625 40.765625 12.171875 48.375 
Q 18.84375 56 30.609375 56 
z
" id="DejaVuSans-6f"/>
      <path d="M 45.40625 27.984375 
Q 45.40625 37.75 41.375 43.109375 
Q 37.359375 48.484375 30.078125 48.484375 
Q 22.859375 48.484375 18.828125 43.109375 
Q 14.796875 37.75 14.796875 27.984375 
Q 14.796875 18.265625 18.828125 12.890625 
Q 22.859375 7.515625 30.078125 7.515625 
Q 37.359375 7.515625 41.375 12.890625 
Q 45.40625 18.265625 45.40625 27.984375 
z
M 54.390625 6.78125 
Q 54.390625 -7.171875 48.1875 -13.984375 
Q 42 -20.796875 29.203125 -20.796875 
Q 24.46875 -20.796875 20.265625 -20.09375 
Q 16.0625 -19.390625 12.109375 -17.921875 
L 12.109375 -9.1875 
Q 16.0625 -11.328125 19.921875 -12.34375 
Q 23.78125 -13.375 27.78125 -13.375 
Q 36.625 -13.375 41.015625 -8.765625 
Q 45.40625 -4.15625 45.40625 5.171875 
L 45.40625 9.625 
Q 42.625 4.78125 38.28125 2.390625 
Q 33.9375 0 27.875 0 
Q 17.828125 0 11.671875 7.65625 
Q 5.515625 15.328125 5.515625 27.984375 
Q 5.515625 40.671875 11.671875 48.328125 
Q 17.828125 56 27.875 56 
Q 33.9375 56 38.28125 53.609375 
Q 42.625 51.21875 45.40625 46.390625 
L 45.40625 54.6875 
L 54.390625 54.6875 
z
" id="DejaVuSans-67"/>
      <path d="M 12.40625 8.296875 
L 28.515625 8.296875 
L 28.515625 63.921875 
L 10.984375 60.40625 
L 10.984375 69.390625 
L 28.421875 72.90625 
L 38.28125 72.90625 
L 38.28125 8.296875 
L 54.390625 8.296875 
L 54.390625 0 
L 12.40625 0 
z
" id="DejaVuSans-31"/>
      <path d="M 31 75.875 
Q 24.46875 64.65625 21.28125 53.65625 
Q 18.109375 42.671875 18.109375 31.390625 
Q 18.109375 20.125 21.3125 9.0625 
Q 24.515625 -2 31 -13.1875 
L 23.1875 -13.1875 
Q 15.875 -1.703125 12.234375 9.375 
Q 8.59375 20.453125 8.59375 31.390625 
Q 8.59375 42.28125 12.203125 53.3125 
Q 15.828125 64.359375 23.1875 75.875 
z
" id="DejaVuSans-28"/>
      <path d="M 51.125 44 
L 36.921875 44 
L 32.8125 27.6875 
L 47.125 27.6875 
z
M 43.796875 71.78125 
L 38.71875 51.515625 
L 52.984375 51.515625 
L 58.109375 71.78125 
L 65.921875 71.78125 
L 60.890625 51.515625 
L 76.125 51.515625 
L 76.125 44 
L 58.984375 44 
L 54.984375 27.6875 
L 70.515625 27.6875 
L 70.515625 20.21875 
L 53.078125 20.21875 
L 48 0 
L 40.1875 0 
L 45.21875 20.21875 
L 30.90625 20.21875 
L 25.875 0 
L 18.015625 0 
L 23.09375 20.21875 
L 7.71875 20.21875 
L 7.71875 27.6875 
L 24.90625 27.6875 
L 29 44 
L 13.28125 44 
L 13.28125 51.515625 
L 30.90625 51.515625 
L 35.890625 71.78125 
z
" id="DejaVuSans-23"/>
      <path id="DejaVuSans-20"/>
      <path d="M 37.109375 75.984375 
L 37.109375 68.5 
L 28.515625 68.5 
Q 23.6875 68.5 21.796875 66.546875 
Q 19.921875 64.59375 19.921875 59.515625 
L 19.921875 54.6875 
L 34.71875 54.6875 
L 34.71875 47.703125 
L 19.921875 47.703125 
L 19.921875 0 
L 10.890625 0 
L 10.890625 47.703125 
L 2.296875 47.703125 
L 2.296875 54.6875 
L 10.890625 54.6875 
L 10.890625 58.5 
Q 10.890625 67.625 15.140625 71.796875 
Q 19.390625 75.984375 28.609375 75.984375 
z
" id="DejaVuSans-66"/>
      <path d="M 4.890625 31.390625 
L 31.203125 31.390625 
L 31.203125 23.390625 
L 4.890625 23.390625 
z
" id="DejaVuSans-2d"/>
      <path d="M 56.203125 29.59375 
L 56.203125 25.203125 
L 14.890625 25.203125 
Q 15.484375 15.921875 20.484375 11.0625 
Q 25.484375 6.203125 34.421875 6.203125 
Q 39.59375 6.203125 44.453125 7.46875 
Q 49.3125 8.734375 54.109375 11.28125 
L 54.109375 2.78125 
Q 49.265625 0.734375 44.1875 -0.34375 
Q 39.109375 -1.421875 33.890625 -1.421875 
Q 20.796875 -1.421875 13.15625 6.1875 
Q 5.515625 13.8125 5.515625 26.8125 
Q 5.515625 40.234375 12.765625 48.109375 
Q 20.015625 56 32.328125 56 
Q 43.359375 56 49.78125 48.890625 
Q 56.203125 41.796875 56.203125 29.59375 
z
M 47.21875 32.234375 
Q 47.125 39.59375 43.09375 43.984375 
Q 39.0625 48.390625 32.421875 48.390625 
Q 24.90625 48.390625 20.390625 44.140625 
Q 15.875 39.890625 15.1875 32.171875 
z
" id="DejaVuSans-65"/>
      <path d="M 2.984375 54.6875 
L 12.5 54.6875 
L 29.59375 8.796875 
L 46.6875 54.6875 
L 56.203125 54.6875 
L 35.6875 0 
L 23.484375 0 
z
" id="DejaVuSans-76"/>
      <path d="M 34.28125 27.484375 
Q 23.390625 27.484375 19.1875 25 
Q 14.984375 22.515625 14.984375 16.5 
Q 14.984375 11.71875 18.140625 8.90625 
Q 21.296875 6.109375 26.703125 6.109375 
Q 34.1875 6.109375 38.703125 11.40625 
Q 43.21875 16.703125 43.21875 25.484375 
L 43.21875 27.484375 
z
M 52.203125 31.203125 
L 52.203125 0 
L 43.21875 0 
L 43.21875 8.296875 
Q 40.140625 3.328125 35.546875 0.953125 
Q 30.953125 -1.421875 24.3125 -1.421875 
Q 15.921875 -1.421875 10.953125 3.296875 
Q 6 8.015625 6 15.921875 
Q 6 25.140625 12.171875 29.828125 
Q 18.359375 34.515625 30.609375 34.515625 
L 43.21875 34.515625 
L 43.21875 35.40625 
Q 43.21875 41.609375 39.140625 45 
Q 35.0625 48.390625 27.6875 48.390625 
Q 23 48.390625 18.546875 47.265625 
Q 14.109375 46.140625 10.015625 43.890625 
L 10.015625 52.203125 
Q 14.9375 54.109375 19.578125 55.046875 
Q 24.21875 56 28.609375 56 
Q 40.484375 56 46.34375 49.84375 
Q 52.203125 43.703125 52.203125 31.203125 
z
" id="DejaVuSans-61"/>
      <path d="M 44.28125 53.078125 
L 44.28125 44.578125 
Q 40.484375 46.53125 36.375 47.5 
Q 32.28125 48.484375 27.875 48.484375 
Q 21.1875 48.484375 17.84375 46.4375 
Q 14.5 44.390625 14.5 40.28125 
Q 14.5 37.15625 16.890625 35.375 
Q 19.28125 33.59375 26.515625 31.984375 
L 29.59375 31.296875 
Q 39.15625 29.25 43.1875 25.515625 
Q 47.21875 21.78125 47.21875 15.09375 
Q 47.21875 7.46875 41.1875 3.015625 
Q 35.15625 -1.421875 24.609375 -1.421875 
Q 20.21875 -1.421875 15.453125 -0.5625 
Q 10.6875 0.296875 5.421875 2 
L 5.421875 11.28125 
Q 10.40625 8.6875 15.234375 7.390625 
Q 20.0625 6.109375 24.8125 6.109375 
Q 31.15625 6.109375 34.5625 8.28125 
Q 37.984375 10.453125 37.984375 14.40625 
Q 37.984375 18.0625 35.515625 20.015625 
Q 33.0625 21.96875 24.703125 23.78125 
L 21.578125 24.515625 
Q 13.234375 26.265625 9.515625 29.90625 
Q 5.8125 33.546875 5.8125 39.890625 
Q 5.8125 47.609375 11.28125 51.796875 
Q 16.75 56 26.8125 56 
Q 31.78125 56 36.171875 55.265625 
Q 40.578125 54.546875 44.28125 53.078125 
z
" id="DejaVuSans-73"/>
      <path d="M 25.390625 72.90625 
L 33.6875 72.90625 
L 8.296875 -9.28125 
L 0 -9.28125 
z
" id="DejaVuSans-2f"/>
      <path d="M 45.40625 46.390625 
L 45.40625 75.984375 
L 54.390625 75.984375 
L 54.390625 0 
L 45.40625 0 
L 45.40625 8.203125 
Q 42.578125 3.328125 38.25 0.953125 
Q 33.9375 -1.421875 27.875 -1.421875 
Q 17.96875 -1.421875 11.734375 6.484375 
Q 5.515625 14.40625 5.515625 27.296875 
Q 5.515625 40.1875 11.734375 48.09375 
Q 17.96875 56 27.875 56 
Q 33.9375 56 38.25 53.625 
Q 42.578125 51.265625 45.40625 46.390625 
z
M 14.796875 27.296875 
Q 14.796875 17.390625 18.875 11.75 
Q 22.953125 6.109375 30.078125 6.109375 
Q 37.203125 6.109375 41.296875 11.75 
Q 45.40625 17.390625 45.40625 27.296875 
Q 45.40625 37.203125 41.296875 42.84375 
Q 37.203125 48.484375 30.078125 48.484375 
Q 22.953125 48.484375 18.875 42.84375 
Q 14.796875 37.203125 14.796875 27.296875 
z
" id="DejaVuSans-64"/>
      <path d="M 9.421875 54.6875 
L 18.40625 54.6875 
L 18.40625 0 
L 9.421875 0 
z
M 9.421875 75.984375 
L 18.40625 75.984375 
L 18.40625 64.59375 
L 9.421875 64.59375 
z
" id="DejaVuSans-69"/>
      <path d="M 52 44.1875 
Q 55.375 50.25 60.0625 53.125 
Q 64.75 56 71.09375 56 
Q 79.640625 56 84.28125 50.015625 
Q 88.921875 44.046875 88.921875 33.015625 
L 88.921875 0 
L 79.890625 0 
L 79.890625 32.71875 
Q 79.890625 40.578125 77.09375 44.375 
Q 74.3125 48.1875 68.609375 48.1875 
Q 61.625 48.1875 57.5625 43.546875 
Q 53.515625 38.921875 53.515625 30.90625 
L 53.515625 0 
L 44.484375 0 
L 44.484375 32.71875 
Q 44.484375 40.625 41.703125 44.40625 
Q 38.921875 48.1875 33.109375 48.1875 
Q 26.21875 48.1875 22.15625 43.53125 
Q 18.109375 38.875 18.109375 30.90625 
L 18.109375 0 
L 9.078125 0 
L 9.078125 54.6875 
L 18.109375 54.6875 
L 18.109375 46.1875 
Q 21.1875 51.21875 25.484375 53.609375 
Q 29.78125 56 35.6875 56 
Q 41.65625 56 45.828125 52.96875 
Q 50 49.953125 52 44.1875 
z
" id="DejaVuSans-6d"/>
      <path d="M 54.890625 33.015625 
L 54.890625 0 
L 45.90625 0 
L 45.90625 32.71875 
Q 45.90625 40.484375 42.875 44.328125 
Q 39.84375 48.1875 33.796875 48.1875 
Q 26.515625 48.1875 22.3125 43.546875 
Q 18.109375 38.921875 18.109375 30.90625 
L 18.109375 0 
L 9.078125 0 
L 9.078125 54.6875 
L 18.109375 54.6875 
L 18.109375 46.1875 
Q 21.34375 51.125 25.703125 53.5625 
Q 30.078125 56 35.796875 56 
Q 45.21875 56 50.046875 50.171875 
Q 54.890625 44.34375 54.890625 33.015625 
z
" id="DejaVuSans-6e"/>
      <path d="M 8.015625 75.875 
L 15.828125 75.875 
Q 23.140625 64.359375 26.78125 53.3125 
Q 30.421875 42.28125 30.421875 31.390625 
Q 30.421875 20.453125 26.78125 9.375 
Q 23.140625 -1.703125 15.828125 -13.1875 
L 8.015625 -13.1875 
Q 14.5 -2 17.703125 9.0625 
Q 20.90625 20.125 20.90625 31.390625 
Q 20.90625 42.671875 17.703125 53.65625 
Q 14.5 64.65625 8.015625 75.875 
z
" id="DejaVuSans-29"/>
     </defs>
     <g transform="translate(107.211219 338.153594)scale(0.17 -0.17)">
      <use xlink:href="#DejaVuSans-6c"/>
      <use x="27.783203" xlink:href="#DejaVuSans-6f"/>
      <use x="88.964844" xlink:href="#DejaVuSans-67"/>
      <use x="152.441406" xlink:href="#DejaVuSans-31"/>
      <use x="216.064453" xlink:href="#DejaVuSans-30"/>
      <use x="279.6875" xlink:href="#DejaVuSans-28"/>
      <use x="318.701172" xlink:href="#DejaVuSans-23"/>
      <use x="402.490234" xlink:href="#DejaVuSans-20"/>
      <use x="434.277344" xlink:href="#DejaVuSans-66"/>
      <use x="469.404297" xlink:href="#DejaVuSans-2d"/>
      <use x="505.488281" xlink:href="#DejaVuSans-65"/>
      <use x="567.011719" xlink:href="#DejaVuSans-76"/>
      <use x="626.191406" xlink:href="#DejaVuSans-61"/>
      <use x="687.470703" xlink:href="#DejaVuSans-6c"/>
      <use x="715.253906" xlink:href="#DejaVuSans-73"/>
      <use x="767.353516" xlink:href="#DejaVuSans-20"/>
      <use x="799.140625" xlink:href="#DejaVuSans-2f"/>
      <use x="832.832031" xlink:href="#DejaVuSans-20"/>
      <use x="864.619141" xlink:href="#DejaVuSans-64"/>
      <use x="928.095703" xlink:href="#DejaVuSans-69"/>
      <use x="955.878906" xlink:href="#DejaVuSans-6d"/>
      <use x="1053.291016" xlink:href="#DejaVuSans-65"/>
      <use x="1114.814453" xlink:href="#DejaVuSans-6e"/>
      <use x="1178.193359" xlink:href="#DejaVuSans-73"/>
      <use x="1230.292969" xlink:href="#DejaVuSans-69"/>
      <use x="1258.076172" xlink:href="#DejaVuSans-6f"/>
      <use x="1319.257812" xlink:href="#DejaVuSans-6e"/>
      <use x="1382.636719" xlink:href="#DejaVuSans-29"/>
     </g>
    </g>
   </g>
   <g id="matplotlib.axis_2">
    <g id="ytick_1">
     <g id="line2d_14">
      <path clip-path="url(#p029d57ad15)" d="M 56.12 294.88 
L 399.984 294.88 
" style="fill:none;stroke:#b0b0b0;stroke-linecap:square;stroke-width:0.8;"/>
     </g>
     <g id="line2d_15">
      <defs>
       <path d="M 0 0 
L -3.5 0 
" id="m0892522fcd" style="stroke:#000000;stroke-width:0.8;"/>
      </defs>
      <g>
       <use style="stroke:#000000;stroke-width:0.8;" x="56.12" xlink:href="#m0892522fcd" y="294.88"/>
      </g>
     </g>
     <g id="text_7">
      <!-- 0.0 -->
      <defs>
       <path d="M 10.6875 12.40625 
L 21 12.40625 
L 21 0 
L 10.6875 0 
z
" id="DejaVuSans-2e"/>
      </defs>
      <g transform="translate(23.675 300.95875)scale(0.16 -0.16)">
       <use xlink:href="#DejaVuSans-30"/>
       <use x="63.623047" xlink:href="#DejaVuSans-2e"/>
       <use x="95.410156" xlink:href="#DejaVuSans-30"/>
      </g>
     </g>
    </g>
    <g id="ytick_2">
     <g id="line2d_16">
      <path clip-path="url(#p029d57ad15)" d="M 56.12 241.406733 
L 399.984 241.406733 
" style="fill:none;stroke:#b0b0b0;stroke-linecap:square;stroke-width:0.8;"/>
     </g>
     <g id="line2d_17">
      <g>
       <use style="stroke:#000000;stroke-width:0.8;" x="56.12" xlink:href="#m0892522fcd" y="241.406733"/>
      </g>
     </g>
     <g id="text_8">
      <!-- 0.2 -->
      <g transform="translate(23.675 247.485483)scale(0.16 -0.16)">
       <use xlink:href="#DejaVuSans-30"/>
       <use x="63.623047" xlink:href="#DejaVuSans-2e"/>
       <use x="95.410156" xlink:href="#DejaVuSans-32"/>
      </g>
     </g>
    </g>
    <g id="ytick_3">
     <g id="line2d_18">
      <path clip-path="url(#p029d57ad15)" d="M 56.12 187.933465 
L 399.984 187.933465 
" style="fill:none;stroke:#b0b0b0;stroke-linecap:square;stroke-width:0.8;"/>
     </g>
     <g id="line2d_19">
      <g>
       <use style="stroke:#000000;stroke-width:0.8;" x="56.12" xlink:href="#m0892522fcd" y="187.933465"/>
      </g>
     </g>
     <g id="text_9">
      <!-- 0.4 -->
      <g transform="translate(23.675 194.012215)scale(0.16 -0.16)">
       <use xlink:href="#DejaVuSans-30"/>
       <use x="63.623047" xlink:href="#DejaVuSans-2e"/>
       <use x="95.410156" xlink:href="#DejaVuSans-34"/>
      </g>
     </g>
    </g>
    <g id="ytick_4">
     <g id="line2d_20">
      <path clip-path="url(#p029d57ad15)" d="M 56.12 134.460198 
L 399.984 134.460198 
" style="fill:none;stroke:#b0b0b0;stroke-linecap:square;stroke-width:0.8;"/>
     </g>
     <g id="line2d_21">
      <g>
       <use style="stroke:#000000;stroke-width:0.8;" x="56.12" xlink:href="#m0892522fcd" y="134.460198"/>
      </g>
     </g>
     <g id="text_10">
      <!-- 0.6 -->
      <g transform="translate(23.675 140.538948)scale(0.16 -0.16)">
       <use xlink:href="#DejaVuSans-30"/>
       <use x="63.623047" xlink:href="#DejaVuSans-2e"/>
       <use x="95.410156" xlink:href="#DejaVuSans-36"/>
      </g>
     </g>
    </g>
    <g id="ytick_5">
     <g id="line2d_22">
      <path clip-path="url(#p029d57ad15)" d="M 56.12 80.986931 
L 399.984 80.986931 
" style="fill:none;stroke:#b0b0b0;stroke-linecap:square;stroke-width:0.8;"/>
     </g>
     <g id="line2d_23">
      <g>
       <use style="stroke:#000000;stroke-width:0.8;" x="56.12" xlink:href="#m0892522fcd" y="80.986931"/>
      </g>
     </g>
     <g id="text_11">
      <!-- 0.8 -->
      <g transform="translate(23.675 87.065681)scale(0.16 -0.16)">
       <use xlink:href="#DejaVuSans-30"/>
       <use x="63.623047" xlink:href="#DejaVuSans-2e"/>
       <use x="95.410156" xlink:href="#DejaVuSans-38"/>
      </g>
     </g>
    </g>
    <g id="ytick_6">
     <g id="line2d_24">
      <path clip-path="url(#p029d57ad15)" d="M 56.12 27.513663 
L 399.984 27.513663 
" style="fill:none;stroke:#b0b0b0;stroke-linecap:square;stroke-width:0.8;"/>
     </g>
     <g id="line2d_25">
      <g>
       <use style="stroke:#000000;stroke-width:0.8;" x="56.12" xlink:href="#m0892522fcd" y="27.513663"/>
      </g>
     </g>
     <g id="text_12">
      <!-- 1.0 -->
      <g transform="translate(23.675 33.592413)scale(0.16 -0.16)">
       <use xlink:href="#DejaVuSans-31"/>
       <use x="63.623047" xlink:href="#DejaVuSans-2e"/>
       <use x="95.410156" xlink:href="#DejaVuSans-30"/>
      </g>
     </g>
    </g>
    <g id="text_13">
     <!-- Fraction of function,target pairs -->
     <defs>
      <path d="M 9.8125 72.90625 
L 51.703125 72.90625 
L 51.703125 64.59375 
L 19.671875 64.59375 
L 19.671875 43.109375 
L 48.578125 43.109375 
L 48.578125 34.8125 
L 19.671875 34.8125 
L 19.671875 0 
L 9.8125 0 
z
" id="DejaVuSans-46"/>
      <path d="M 41.109375 46.296875 
Q 39.59375 47.171875 37.8125 47.578125 
Q 36.03125 48 33.890625 48 
Q 26.265625 48 22.1875 43.046875 
Q 18.109375 38.09375 18.109375 28.8125 
L 18.109375 0 
L 9.078125 0 
L 9.078125 54.6875 
L 18.109375 54.6875 
L 18.109375 46.1875 
Q 20.953125 51.171875 25.484375 53.578125 
Q 30.03125 56 36.53125 56 
Q 37.453125 56 38.578125 55.875 
Q 39.703125 55.765625 41.0625 55.515625 
z
" id="DejaVuSans-72"/>
      <path d="M 48.78125 52.59375 
L 48.78125 44.1875 
Q 44.96875 46.296875 41.140625 47.34375 
Q 37.3125 48.390625 33.40625 48.390625 
Q 24.65625 48.390625 19.8125 42.84375 
Q 14.984375 37.3125 14.984375 27.296875 
Q 14.984375 17.28125 19.8125 11.734375 
Q 24.65625 6.203125 33.40625 6.203125 
Q 37.3125 6.203125 41.140625 7.25 
Q 44.96875 8.296875 48.78125 10.40625 
L 48.78125 2.09375 
Q 45.015625 0.34375 40.984375 -0.53125 
Q 36.96875 -1.421875 32.421875 -1.421875 
Q 20.0625 -1.421875 12.78125 6.34375 
Q 5.515625 14.109375 5.515625 27.296875 
Q 5.515625 40.671875 12.859375 48.328125 
Q 20.21875 56 33.015625 56 
Q 37.15625 56 41.109375 55.140625 
Q 45.0625 54.296875 48.78125 52.59375 
z
" id="DejaVuSans-63"/>
      <path d="M 18.3125 70.21875 
L 18.3125 54.6875 
L 36.8125 54.6875 
L 36.8125 47.703125 
L 18.3125 47.703125 
L 18.3125 18.015625 
Q 18.3125 11.328125 20.140625 9.421875 
Q 21.96875 7.515625 27.59375 7.515625 
L 36.8125 7.515625 
L 36.8125 0 
L 27.59375 0 
Q 17.1875 0 13.234375 3.875 
Q 9.28125 7.765625 9.28125 18.015625 
L 9.28125 47.703125 
L 2.6875 47.703125 
L 2.6875 54.6875 
L 9.28125 54.6875 
L 9.28125 70.21875 
z
" id="DejaVuSans-74"/>
      <path d="M 8.5 21.578125 
L 8.5 54.6875 
L 17.484375 54.6875 
L 17.484375 21.921875 
Q 17.484375 14.15625 20.5 10.265625 
Q 23.53125 6.390625 29.59375 6.390625 
Q 36.859375 6.390625 41.078125 11.03125 
Q 45.3125 15.671875 45.3125 23.6875 
L 45.3125 54.6875 
L 54.296875 54.6875 
L 54.296875 0 
L 45.3125 0 
L 45.3125 8.40625 
Q 42.046875 3.421875 37.71875 1 
Q 33.40625 -1.421875 27.6875 -1.421875 
Q 18.265625 -1.421875 13.375 4.4375 
Q 8.5 10.296875 8.5 21.578125 
z
M 31.109375 56 
z
" id="DejaVuSans-75"/>
      <path d="M 11.71875 12.40625 
L 22.015625 12.40625 
L 22.015625 4 
L 14.015625 -11.625 
L 7.71875 -11.625 
L 11.71875 4 
z
" id="DejaVuSans-2c"/>
      <path d="M 18.109375 8.203125 
L 18.109375 -20.796875 
L 9.078125 -20.796875 
L 9.078125 54.6875 
L 18.109375 54.6875 
L 18.109375 46.390625 
Q 20.953125 51.265625 25.265625 53.625 
Q 29.59375 56 35.59375 56 
Q 45.5625 56 51.78125 48.09375 
Q 58.015625 40.1875 58.015625 27.296875 
Q 58.015625 14.40625 51.78125 6.484375 
Q 45.5625 -1.421875 35.59375 -1.421875 
Q 29.59375 -1.421875 25.265625 0.953125 
Q 20.953125 3.328125 18.109375 8.203125 
z
M 48.6875 27.296875 
Q 48.6875 37.203125 44.609375 42.84375 
Q 40.53125 48.484375 33.40625 48.484375 
Q 26.265625 48.484375 22.1875 42.84375 
Q 18.109375 37.203125 18.109375 27.296875 
Q 18.109375 17.390625 22.1875 11.75 
Q 26.265625 6.109375 33.40625 6.109375 
Q 40.53125 6.109375 44.609375 11.75 
Q 48.6875 17.390625 48.6875 27.296875 
z
" id="DejaVuSans-70"/>
     </defs>
     <g transform="translate(16.139531 294.999375)rotate(-90)scale(0.17 -0.17)">
      <use xlink:href="#DejaVuSans-46"/>
      <use x="57.410156" xlink:href="#DejaVuSans-72"/>
      <use x="98.523438" xlink:href="#DejaVuSans-61"/>
      <use x="159.802734" xlink:href="#DejaVuSans-63"/>
      <use x="214.783203" xlink:href="#DejaVuSans-74"/>
      <use x="253.992188" xlink:href="#DejaVuSans-69"/>
      <use x="281.775391" xlink:href="#DejaVuSans-6f"/>
      <use x="342.957031" xlink:href="#DejaVuSans-6e"/>
      <use x="406.335938" xlink:href="#DejaVuSans-20"/>
      <use x="438.123047" xlink:href="#DejaVuSans-6f"/>
      <use x="499.304688" xlink:href="#DejaVuSans-66"/>
      <use x="534.509766" xlink:href="#DejaVuSans-20"/>
      <use x="566.296875" xlink:href="#DejaVuSans-66"/>
      <use x="601.501953" xlink:href="#DejaVuSans-75"/>
      <use x="664.880859" xlink:href="#DejaVuSans-6e"/>
      <use x="728.259766" xlink:href="#DejaVuSans-63"/>
      <use x="783.240234" xlink:href="#DejaVuSans-74"/>
      <use x="822.449219" xlink:href="#DejaVuSans-69"/>
      <use x="850.232422" xlink:href="#DejaVuSans-6f"/>
      <use x="911.414062" xlink:href="#DejaVuSans-6e"/>
      <use x="974.792969" xlink:href="#DejaVuSans-2c"/>
      <use x="1006.580078" xlink:href="#DejaVuSans-74"/>
      <use x="1045.789062" xlink:href="#DejaVuSans-61"/>
      <use x="1107.068359" xlink:href="#DejaVuSans-72"/>
      <use x="1148.166016" xlink:href="#DejaVuSans-67"/>
      <use x="1211.642578" xlink:href="#DejaVuSans-65"/>
      <use x="1273.166016" xlink:href="#DejaVuSans-74"/>
      <use x="1312.375" xlink:href="#DejaVuSans-20"/>
      <use x="1344.162109" xlink:href="#DejaVuSans-70"/>
      <use x="1407.638672" xlink:href="#DejaVuSans-61"/>
      <use x="1468.917969" xlink:href="#DejaVuSans-69"/>
      <use x="1496.701172" xlink:href="#DejaVuSans-72"/>
      <use x="1537.814453" xlink:href="#DejaVuSans-73"/>
     </g>
    </g>
   </g>
   <g id="line2d_26">
    <defs>
     <path d="M 0 1.5 
C 0.397805 1.5 0.77937 1.341951 1.06066 1.06066 
C 1.341951 0.77937 1.5 0.397805 1.5 0 
C 1.5 -0.397805 1.341951 -0.77937 1.06066 -1.06066 
C 0.77937 -1.341951 0.397805 -1.5 0 -1.5 
C -0.397805 -1.5 -0.77937 -1.341951 -1.06066 -1.06066 
C -1.341951 -0.77937 -1.5 -0.397805 -1.5 0 
C -1.5 0.397805 -1.341951 0.77937 -1.06066 1.06066 
C -0.77937 1.341951 -0.397805 1.5 0 1.5 
z
" id="mb91b590614" style="stroke:#f5deb3;"/>
    </defs>
    <g>
     <use style="fill:#f5deb3;stroke:#f5deb3;" x="278.971504" xlink:href="#mb91b590614" y="142.757774"/>
     <use style="fill:#f5deb3;stroke:#f5deb3;" x="278.971504" xlink:href="#mb91b590614" y="142.757774"/>
    </g>
   </g>
   <g id="line2d_27">
    <g>
     <use style="fill:#f5deb3;stroke:#f5deb3;stroke-linejoin:miter;stroke-width:1.5;" x="145.406682" xlink:href="#mc7690aac73" y="253.39212"/>
     <use style="fill:#f5deb3;stroke:#f5deb3;stroke-linejoin:miter;stroke-width:1.5;" x="178.268628" xlink:href="#mc7690aac73" y="198.074947"/>
     <use style="fill:#f5deb3;stroke:#f5deb3;stroke-linejoin:miter;stroke-width:1.5;" x="263.077449" xlink:href="#mc7690aac73" y="165.806596"/>
     <use style="fill:#f5deb3;stroke:#f5deb3;stroke-linejoin:miter;stroke-width:1.5;" x="278.971504" xlink:href="#mc7690aac73" y="142.757774"/>
     <use style="fill:#f5deb3;stroke:#f5deb3;stroke-linejoin:miter;stroke-width:1.5;" x="333.429677" xlink:href="#mc7690aac73" y="142.757774"/>
    </g>
   </g>
   <g id="line2d_28">
    <defs>
     <path d="M 0 1.5 
C 0.397805 1.5 0.77937 1.341951 1.06066 1.06066 
C 1.341951 0.77937 1.5 0.397805 1.5 0 
C 1.5 -0.397805 1.341951 -0.77937 1.06066 -1.06066 
C 0.77937 -1.341951 0.397805 -1.5 0 -1.5 
C -0.397805 -1.5 -0.77937 -1.341951 -1.06066 -1.06066 
C -1.341951 -0.77937 -1.5 -0.397805 -1.5 0 
C -1.5 0.397805 -1.341951 0.77937 -1.06066 1.06066 
C -0.77937 1.341951 -0.397805 1.5 0 1.5 
z
" id="mcb6cefd5d7" style="stroke:#adff2f;"/>
    </defs>
    <g>
     <use style="fill:#adff2f;stroke:#adff2f;" x="324.757159" xlink:href="#mcb6cefd5d7" y="262.611649"/>
     <use style="fill:#adff2f;stroke:#adff2f;" x="324.757159" xlink:href="#mcb6cefd5d7" y="262.611649"/>
    </g>
   </g>
   <g id="line2d_29">
    <path d="M -1 287.504377 
L 90.613222 287.504377 
L 90.613222 286.582424 
L 90.786137 286.582424 
L 90.786137 286.121448 
L 111.857888 286.121448 
L 111.857888 285.660471 
L 119.402897 285.660471 
L 119.402897 285.199495 
L 126.382493 285.199495 
L 126.382493 284.738518 
L 134.305072 284.738518 
L 134.305072 284.277542 
L 140.820903 284.277542 
L 140.820903 283.816565 
L 141.663759 283.816565 
L 141.663759 283.355589 
L 143.400009 283.355589 
L 143.400009 281.050707 
L 147.177627 281.050707 
L 147.177627 280.58973 
L 153.341621 280.58973 
L 153.341621 280.128754 
L 155.966746 280.128754 
L 155.966746 279.667777 
L 158.789901 279.667777 
L 158.789901 279.206801 
L 164.39187 279.206801 
L 164.39187 278.284848 
L 168.325407 278.284848 
L 168.325407 277.823872 
L 184.353297 277.823872 
L 184.353297 276.440942 
L 187.221188 276.440942 
L 187.221188 275.518989 
L 189.637429 275.518989 
L 189.637429 275.058013 
L 191.670103 275.058013 
L 191.670103 274.13606 
L 193.009515 274.13606 
L 193.009515 273.214107 
L 195.793819 273.214107 
L 195.793819 272.753131 
L 196.338769 272.753131 
L 196.338769 272.292154 
L 196.776417 272.292154 
L 196.776417 271.370201 
L 200.344435 271.370201 
L 200.344435 270.909225 
L 211.873726 270.909225 
L 211.873726 269.987272 
L 212.175461 269.987272 
L 212.175461 268.604343 
L 219.061043 268.604343 
L 219.061043 267.221413 
L 269.294661 267.221413 
L 269.294661 266.760437 
L 275.277349 266.760437 
L 275.277349 266.299461 
L 279.707894 266.299461 
L 279.707894 265.838484 
L 283.227966 265.838484 
L 283.227966 265.377508 
L 286.148749 265.377508 
L 286.148749 264.916531 
L 300.093732 264.916531 
L 300.093732 264.455555 
L 309.855419 264.455555 
L 309.855419 263.994578 
L 310.519655 263.994578 
L 310.519655 263.533602 
L 311.159197 263.533602 
L 311.159197 263.072625 
L 324.757159 263.072625 
L 324.757159 262.611649 
L 333.429677 262.611649 
" style="fill:none;stroke:#adff2f;stroke-linecap:square;stroke-width:1.5;"/>
   </g>
   <g id="line2d_30">
    <defs>
     <path d="M 0 0 
L -6 -0 
M 0 0 
L 3 4.8 
M 0 0 
L 3 -4.8 
" id="m144e5cc217" style="stroke:#adff2f;stroke-width:1.5;"/>
    </defs>
    <g>
     <use style="fill:none;stroke:#adff2f;stroke-width:1.5;" x="111.857888" xlink:href="#m144e5cc217" y="286.121448"/>
     <use style="fill:none;stroke:#adff2f;stroke-width:1.5;" x="187.221188" xlink:href="#m144e5cc217" y="276.440942"/>
     <use style="fill:none;stroke:#adff2f;stroke-width:1.5;" x="269.294661" xlink:href="#m144e5cc217" y="266.760437"/>
     <use style="fill:none;stroke:#adff2f;stroke-width:1.5;" x="324.757159" xlink:href="#m144e5cc217" y="262.611649"/>
     <use style="fill:none;stroke:#adff2f;stroke-width:1.5;" x="333.429677" xlink:href="#m144e5cc217" y="262.611649"/>
    </g>
   </g>
   <g id="line2d_31">
    <path d="M 0 0 
" style="fill:none;stroke:#adff2f;stroke-linecap:square;stroke-width:1.5;"/>
    <g>
     <use style="fill:none;stroke:#adff2f;stroke-width:1.5;" x="0" xlink:href="#m144e5cc217" y="0"/>
    </g>
   </g>
   <g id="line2d_32">
    <path clip-path="url(#p029d57ad15)" d="M 254.198849 267.221413 
" style="fill:none;stroke:#adff2f;stroke-linecap:square;stroke-width:1.5;"/>
    <defs>
     <path d="M -12 12 
L 12 -12 
M -12 -12 
L 12 12 
" id="mce5a436948" style="stroke:#adff2f;stroke-width:3;"/>
    </defs>
    <g clip-path="url(#p029d57ad15)">
     <use style="fill:#adff2f;stroke:#adff2f;stroke-width:3;" x="254.198849" xlink:href="#mce5a436948" y="267.221413"/>
    </g>
   </g>
   <g id="line2d_33">
    <path clip-path="url(#p029d57ad15)" d="M 56.12 294.88 
L 56.12 294.88 
L 56.12 294.88 
L 56.12 294.88 
L 399.984 294.88 
" style="fill:none;stroke:#228b22;stroke-linecap:square;stroke-width:1.5;"/>
   </g>
   <g id="line2d_34">
    <defs>
     <path d="M 0 0 
L 0 6 
M 0 0 
L 4.8 -3 
M 0 0 
L -4.8 -3 
" id="m343f1378cf" style="stroke:#228b22;stroke-width:1.5;"/>
    </defs>
    <g clip-path="url(#p029d57ad15)">
     <use style="fill:none;stroke:#228b22;stroke-width:1.5;" x="56.12" xlink:href="#m343f1378cf" y="294.88"/>
     <use style="fill:none;stroke:#228b22;stroke-width:1.5;" x="56.12" xlink:href="#m343f1378cf" y="294.88"/>
     <use style="fill:none;stroke:#228b22;stroke-width:1.5;" x="56.12" xlink:href="#m343f1378cf" y="294.88"/>
     <use style="fill:none;stroke:#228b22;stroke-width:1.5;" x="56.12" xlink:href="#m343f1378cf" y="294.88"/>
     <use style="fill:none;stroke:#228b22;stroke-width:1.5;" x="95.735668" xlink:href="#m343f1378cf" y="294.88"/>
     <use style="fill:none;stroke:#228b22;stroke-width:1.5;" x="95.735668" xlink:href="#m343f1378cf" y="294.88"/>
     <use style="fill:none;stroke:#228b22;stroke-width:1.5;" x="135.351336" xlink:href="#m343f1378cf" y="294.88"/>
     <use style="fill:none;stroke:#228b22;stroke-width:1.5;" x="135.351336" xlink:href="#m343f1378cf" y="294.88"/>
     <use style="fill:none;stroke:#228b22;stroke-width:1.5;" x="174.967005" xlink:href="#m343f1378cf" y="294.88"/>
     <use style="fill:none;stroke:#228b22;stroke-width:1.5;" x="174.967005" xlink:href="#m343f1378cf" y="294.88"/>
     <use style="fill:none;stroke:#228b22;stroke-width:1.5;" x="214.582673" xlink:href="#m343f1378cf" y="294.88"/>
     <use style="fill:none;stroke:#228b22;stroke-width:1.5;" x="214.582673" xlink:href="#m343f1378cf" y="294.88"/>
     <use style="fill:none;stroke:#228b22;stroke-width:1.5;" x="254.198341" xlink:href="#m343f1378cf" y="294.88"/>
     <use style="fill:none;stroke:#228b22;stroke-width:1.5;" x="254.198341" xlink:href="#m343f1378cf" y="294.88"/>
     <use style="fill:none;stroke:#228b22;stroke-width:1.5;" x="293.814009" xlink:href="#m343f1378cf" y="294.88"/>
     <use style="fill:none;stroke:#228b22;stroke-width:1.5;" x="293.814009" xlink:href="#m343f1378cf" y="294.88"/>
     <use style="fill:none;stroke:#228b22;stroke-width:1.5;" x="333.429677" xlink:href="#m343f1378cf" y="294.88"/>
     <use style="fill:none;stroke:#228b22;stroke-width:1.5;" x="333.429677" xlink:href="#m343f1378cf" y="294.88"/>
     <use style="fill:none;stroke:#228b22;stroke-width:1.5;" x="373.045346" xlink:href="#m343f1378cf" y="294.88"/>
    </g>
   </g>
   <g id="line2d_35">
    <path clip-path="url(#p029d57ad15)" d="M 0 0 
" style="fill:none;stroke:#228b22;stroke-linecap:square;stroke-width:1.5;"/>
    <g clip-path="url(#p029d57ad15)">
     <use style="fill:none;stroke:#228b22;stroke-width:1.5;" x="0" xlink:href="#m343f1378cf" y="0"/>
    </g>
   </g>
   <g id="line2d_36">
    <defs>
     <path d="M 0 1.5 
C 0.397805 1.5 0.77937 1.341951 1.06066 1.06066 
C 1.341951 0.77937 1.5 0.397805 1.5 0 
C 1.5 -0.397805 1.341951 -0.77937 1.06066 -1.06066 
C 0.77937 -1.341951 0.397805 -1.5 0 -1.5 
C -0.397805 -1.5 -0.77937 -1.341951 -1.06066 -1.06066 
C -1.341951 -0.77937 -1.5 -0.397805 -1.5 0 
C -1.5 0.397805 -1.341951 0.77937 -1.06066 1.06066 
C -0.77937 1.341951 -0.397805 1.5 0 1.5 
z
" id="mab2088e523" style="stroke:#ffc0cb;"/>
    </defs>
    <g>
     <use style="fill:#ffc0cb;stroke:#ffc0cb;" x="298.548705" xlink:href="#mab2088e523" y="276.440942"/>
     <use style="fill:#ffc0cb;stroke:#ffc0cb;" x="298.548705" xlink:href="#mab2088e523" y="276.440942"/>
    </g>
   </g>
   <g id="line2d_37">
    <path d="M -1 292.114141 
L 4.578827 292.114141 
L 4.578827 291.653165 
L 20.343487 291.653165 
L 20.343487 291.192188 
L 32.268991 291.192188 
L 32.268991 290.270236 
L 65.748115 290.270236 
L 65.748115 289.809259 
L 68.678884 289.809259 
L 68.678884 289.348283 
L 70.071946 289.348283 
L 70.071946 288.887306 
L 76.920001 288.887306 
L 76.920001 288.42633 
L 94.207339 288.42633 
L 94.207339 287.0434 
L 108.001874 287.0434 
L 108.001874 285.660471 
L 118.280199 285.660471 
L 118.280199 284.277542 
L 135.256448 284.277542 
L 135.256448 283.816565 
L 147.600667 283.816565 
L 147.600667 283.355589 
L 157.764269 283.355589 
L 157.764269 282.894612 
L 171.072922 282.894612 
L 171.072922 281.97266 
L 199.399389 281.97266 
L 199.399389 281.050707 
L 223.495798 281.050707 
L 223.495798 280.128754 
L 254.552009 280.128754 
L 254.552009 279.667777 
L 256.868315 279.667777 
L 256.868315 279.206801 
L 281.959822 279.206801 
L 281.959822 278.284848 
L 282.456678 278.284848 
L 282.456678 277.823872 
L 290.332155 277.823872 
L 290.332155 277.362895 
L 296.980579 277.362895 
L 296.980579 276.901919 
L 298.548705 276.901919 
L 298.548705 276.440942 
L 333.429677 276.440942 
" style="fill:none;stroke:#ffc0cb;stroke-linecap:square;stroke-width:1.5;"/>
   </g>
   <g id="line2d_38">
    <defs>
     <path d="M -0 8.485281 
L 8.485281 0 
L 0 -8.485281 
L -8.485281 -0 
z
" id="m452507715e" style="stroke:#ffc0cb;stroke-linejoin:miter;stroke-width:1.5;"/>
    </defs>
    <g>
     <use style="fill:none;stroke:#ffc0cb;stroke-linejoin:miter;stroke-width:1.5;" x="65.748115" xlink:href="#m452507715e" y="290.270236"/>
     <use style="fill:none;stroke:#ffc0cb;stroke-linejoin:miter;stroke-width:1.5;" x="118.280199" xlink:href="#m452507715e" y="284.277542"/>
     <use style="fill:none;stroke:#ffc0cb;stroke-linejoin:miter;stroke-width:1.5;" x="199.399389" xlink:href="#m452507715e" y="281.97266"/>
     <use style="fill:none;stroke:#ffc0cb;stroke-linejoin:miter;stroke-width:1.5;" x="290.332155" xlink:href="#m452507715e" y="277.362895"/>
     <use style="fill:none;stroke:#ffc0cb;stroke-linejoin:miter;stroke-width:1.5;" x="298.548705" xlink:href="#m452507715e" y="276.440942"/>
     <use style="fill:none;stroke:#ffc0cb;stroke-linejoin:miter;stroke-width:1.5;" x="333.429677" xlink:href="#m452507715e" y="276.440942"/>
    </g>
   </g>
   <g id="line2d_39">
    <path d="M 0 0 
" style="fill:none;stroke:#ffc0cb;stroke-linecap:square;stroke-width:1.5;"/>
    <g>
     <use style="fill:none;stroke:#ffc0cb;stroke-linejoin:miter;stroke-width:1.5;" x="0" xlink:href="#m452507715e" y="0"/>
    </g>
   </g>
   <g id="line2d_40">
    <path clip-path="url(#p029d57ad15)" d="M 254.198341 280.128754 
" style="fill:none;stroke:#ffc0cb;stroke-linecap:square;stroke-width:1.5;"/>
    <defs>
     <path d="M -12 12 
L 12 -12 
M -12 -12 
L 12 12 
" id="mc7f4e20b8c" style="stroke:#ffc0cb;stroke-width:3;"/>
    </defs>
    <g clip-path="url(#p029d57ad15)">
     <use style="fill:#ffc0cb;stroke:#ffc0cb;stroke-width:3;" x="254.198341" xlink:href="#mc7f4e20b8c" y="280.128754"/>
    </g>
   </g>
   <g id="line2d_41">
    <defs>
     <path d="M 0 1.5 
C 0.397805 1.5 0.77937 1.341951 1.06066 1.06066 
C 1.341951 0.77937 1.5 0.397805 1.5 0 
C 1.5 -0.397805 1.341951 -0.77937 1.06066 -1.06066 
C 0.77937 -1.341951 0.397805 -1.5 0 -1.5 
C -0.397805 -1.5 -0.77937 -1.341951 -1.06066 -1.06066 
C -1.341951 -0.77937 -1.5 -0.397805 -1.5 0 
C -1.5 0.397805 -1.341951 0.77937 -1.06066 1.06066 
C -0.77937 1.341951 -0.397805 1.5 0 1.5 
z
" id="med5c2c3e55" style="stroke:#87ceeb;"/>
    </defs>
    <g>
     <use style="fill:#87ceeb;stroke:#87ceeb;" x="307.953144" xlink:href="#med5c2c3e55" y="281.050707"/>
     <use style="fill:#87ceeb;stroke:#87ceeb;" x="307.953144" xlink:href="#med5c2c3e55" y="281.050707"/>
    </g>
   </g>
   <g id="line2d_42">
    <path d="M 38.057951 294.88 
L 38.057951 294.419024 
L 41.398379 294.419024 
L 41.398379 293.958047 
L 53.82261 293.958047 
L 53.82261 293.497071 
L 56.12 293.497071 
L 56.12 292.575118 
L 76.661276 292.575118 
L 76.661276 291.192188 
L 81.114956 291.192188 
L 81.114956 290.270236 
L 96.616012 290.270236 
L 96.616012 289.348283 
L 136.28065 289.348283 
L 136.28065 287.965353 
L 149.080089 287.965353 
L 149.080089 287.0434 
L 163.525818 287.0434 
L 163.525818 286.121448 
L 165.569814 286.121448 
L 165.569814 285.660471 
L 197.779403 285.660471 
L 197.779403 285.199495 
L 241.136307 285.199495 
L 241.136307 284.277542 
L 252.137987 284.277542 
L 252.137987 283.355589 
L 271.578616 283.355589 
L 271.578616 282.894612 
L 281.278771 282.894612 
L 281.278771 281.511683 
L 307.953144 281.511683 
L 307.953144 281.050707 
L 333.429677 281.050707 
" style="fill:none;stroke:#87ceeb;stroke-linecap:square;stroke-width:1.5;"/>
   </g>
   <g id="line2d_43">
    <defs>
     <path d="M -6 -0 
L 6 6 
L 6 -6 
z
" id="md90915d68b" style="stroke:#87ceeb;stroke-linejoin:miter;stroke-width:1.5;"/>
    </defs>
    <g>
     <use style="fill:none;stroke:#87ceeb;stroke-linejoin:miter;stroke-width:1.5;" x="96.616012" xlink:href="#md90915d68b" y="290.270236"/>
     <use style="fill:none;stroke:#87ceeb;stroke-linejoin:miter;stroke-width:1.5;" x="165.569814" xlink:href="#md90915d68b" y="285.660471"/>
     <use style="fill:none;stroke:#87ceeb;stroke-linejoin:miter;stroke-width:1.5;" x="241.136307" xlink:href="#md90915d68b" y="284.277542"/>
     <use style="fill:none;stroke:#87ceeb;stroke-linejoin:miter;stroke-width:1.5;" x="307.953144" xlink:href="#md90915d68b" y="281.050707"/>
     <use style="fill:none;stroke:#87ceeb;stroke-linejoin:miter;stroke-width:1.5;" x="307.953144" xlink:href="#md90915d68b" y="281.050707"/>
     <use style="fill:none;stroke:#87ceeb;stroke-linejoin:miter;stroke-width:1.5;" x="333.429677" xlink:href="#md90915d68b" y="281.050707"/>
    </g>
   </g>
   <g id="line2d_44">
    <path d="M 0 0 
" style="fill:none;stroke:#87ceeb;stroke-linecap:square;stroke-width:1.5;"/>
    <g>
     <use style="fill:none;stroke:#87ceeb;stroke-linejoin:miter;stroke-width:1.5;" x="0" xlink:href="#md90915d68b" y="0"/>
    </g>
   </g>
   <g id="line2d_45">
    <path clip-path="url(#p029d57ad15)" d="M 293.814009 281.511683 
" style="fill:none;stroke:#87ceeb;stroke-linecap:square;stroke-width:1.5;"/>
    <defs>
     <path d="M -12 12 
L 12 -12 
M -12 -12 
L 12 12 
" id="m15f4e9c0ae" style="stroke:#87ceeb;stroke-width:3;"/>
    </defs>
    <g clip-path="url(#p029d57ad15)">
     <use style="fill:#87ceeb;stroke:#87ceeb;stroke-width:3;" x="293.814009" xlink:href="#m15f4e9c0ae" y="281.511683"/>
    </g>
   </g>
   <g id="line2d_46">
    <defs>
     <path d="M 0 1.5 
C 0.397805 1.5 0.77937 1.341951 1.06066 1.06066 
C 1.341951 0.77937 1.5 0.397805 1.5 0 
C 1.5 -0.397805 1.341951 -0.77937 1.06066 -1.06066 
C 0.77937 -1.341951 0.397805 -1.5 0 -1.5 
C -0.397805 -1.5 -0.77937 -1.341951 -1.06066 -1.06066 
C -1.341951 -0.77937 -1.5 -0.397805 -1.5 0 
C -1.5 0.397805 -1.341951 0.77937 -1.06066 1.06066 
C -0.77937 1.341951 -0.397805 1.5 0 1.5 
z
" id="m41b36e6098" style="stroke:#000080;"/>
    </defs>
    <g>
     <use style="fill:#000080;stroke:#000080;" x="305.071277" xlink:href="#m41b36e6098" y="142.757774"/>
     <use style="fill:#000080;stroke:#000080;" x="305.071277" xlink:href="#m41b36e6098" y="142.757774"/>
    </g>
   </g>
   <g id="line2d_47">
    <path d="M 134.023963 294.88 
L 134.023963 293.958047 
L 134.765098 293.958047 
L 134.765098 293.036094 
L 135.034447 293.036094 
L 135.034447 292.114141 
L 135.32551 292.114141 
L 135.415734 289.809259 
L 135.462806 289.809259 
L 135.462806 288.887306 
L 135.577804 288.887306 
L 135.577804 288.42633 
L 135.788754 288.42633 
L 135.788754 287.504377 
L 136.026124 287.504377 
L 136.026124 287.0434 
L 136.276575 287.0434 
L 136.349787 285.660471 
L 137.108043 285.660471 
L 137.201001 284.277542 
L 137.594337 284.277542 
L 137.594337 283.816565 
L 137.811933 283.816565 
L 137.811933 283.355589 
L 138.180755 283.355589 
L 138.289877 281.511683 
L 138.31886 281.511683 
L 138.322479 280.58973 
L 138.534688 280.58973 
L 138.534688 280.128754 
L 138.867467 280.128754 
L 138.90949 278.745825 
L 139.296832 278.745825 
L 139.344642 277.362895 
L 139.419506 277.362895 
L 139.419506 276.901919 
L 139.571627 276.901919 
L 139.571627 275.518989 
L 139.685678 275.518989 
L 139.685678 274.13606 
L 140.039748 274.13606 
L 140.039748 273.675084 
L 140.261036 273.675084 
L 140.261036 273.214107 
L 140.57185 273.214107 
L 140.57185 272.292154 
L 140.733043 272.292154 
L 140.733043 271.831178 
L 141.013869 271.831178 
L 141.013869 271.370201 
L 141.174058 271.370201 
L 141.174058 270.909225 
L 141.474973 270.909225 
L 141.490032 269.526296 
L 141.773676 269.526296 
L 141.773676 268.604343 
L 142.338775 268.604343 
L 142.338775 267.221413 
L 142.620153 267.221413 
L 142.620153 266.299461 
L 143.289193 266.299461 
L 143.289193 265.838484 
L 143.662031 265.838484 
L 143.662031 264.916531 
L 143.880868 264.916531 
L 143.933186 263.994578 
L 144.184697 263.994578 
L 144.184697 263.533602 
L 144.483254 263.533602 
L 144.498426 262.150673 
L 144.649413 262.150673 
L 144.649413 261.689696 
L 144.804054 261.689696 
L 144.851166 258.923837 
L 145.320153 258.923837 
L 145.320153 258.462861 
L 145.440215 258.462861 
L 145.440215 257.079932 
L 145.837596 257.079932 
L 145.933198 254.314073 
L 146.079071 254.314073 
L 146.079071 253.39212 
L 146.223718 253.39212 
L 146.223718 252.931144 
L 146.383024 252.931144 
L 146.405662 251.087238 
L 146.743923 251.087238 
L 146.743923 249.704309 
L 147.121296 249.704309 
L 147.121296 248.782356 
L 147.634402 248.782356 
L 147.670173 246.477474 
L 147.777042 246.477474 
L 147.839598 245.555521 
L 148.058824 245.555521 
L 148.058824 244.633568 
L 148.818606 244.633568 
L 148.846112 243.711615 
L 149.085898 243.711615 
L 149.085898 243.250638 
L 149.205511 243.250638 
L 149.205511 242.789662 
L 149.698249 242.789662 
L 149.698249 241.867709 
L 149.909924 241.867709 
L 149.974393 239.562827 
L 152.02737 239.562827 
L 152.108763 238.640874 
L 152.249476 238.640874 
L 152.265576 237.257945 
L 152.395437 237.257945 
L 152.43532 234.03111 
L 153.104162 234.03111 
L 153.18673 232.187204 
L 154.052361 232.187204 
L 154.052361 231.265251 
L 154.224115 231.265251 
L 154.224115 230.343298 
L 155.40883 230.343298 
L 155.503748 228.960369 
L 155.615374 228.960369 
L 155.615374 228.499392 
L 156.291995 228.499392 
L 156.299634 225.272557 
L 157.029851 225.272557 
L 157.029851 223.889628 
L 157.729162 223.889628 
L 157.794637 222.967675 
L 157.861027 222.967675 
L 157.907464 221.123769 
L 158.018404 221.123769 
L 158.018404 220.662793 
L 158.159508 220.662793 
L 158.159508 218.818887 
L 158.442788 218.818887 
L 158.442788 218.357911 
L 158.830604 218.357911 
L 158.830604 217.896934 
L 160.057128 217.896934 
L 160.057128 217.435958 
L 160.25449 217.435958 
L 160.25449 216.514005 
L 161.980602 216.514005 
L 161.980602 215.592052 
L 162.406239 215.592052 
L 162.406239 214.670099 
L 163.550055 214.670099 
L 163.550055 212.826193 
L 163.778212 212.826193 
L 163.778212 211.443264 
L 165.039626 211.443264 
L 165.143477 209.138382 
L 166.237716 209.138382 
L 166.237716 207.755452 
L 166.640179 207.755452 
L 166.640179 207.294476 
L 167.214608 207.294476 
L 167.304145 204.528617 
L 167.375173 204.528617 
L 167.375173 203.606664 
L 167.686624 203.606664 
L 167.686624 203.145688 
L 167.985439 203.145688 
L 167.985439 201.762759 
L 168.479113 201.762759 
L 168.479113 201.301782 
L 169.744631 201.301782 
L 169.744631 199.918853 
L 169.89546 199.918853 
L 169.89546 198.074947 
L 170.504857 198.074947 
L 170.504857 196.692018 
L 170.722563 196.692018 
L 170.722563 195.770065 
L 170.915244 195.770065 
L 170.915244 195.309088 
L 171.240388 195.309088 
L 171.240388 194.848112 
L 173.626617 194.848112 
L 173.626617 193.926159 
L 175.176909 193.926159 
L 175.176909 191.621277 
L 176.492245 191.621277 
L 176.551189 188.855418 
L 177.979716 188.855418 
L 177.979716 188.394442 
L 179.520274 188.394442 
L 179.520274 187.011512 
L 179.938995 187.011512 
L 179.99175 186.08956 
L 180.25787 186.08956 
L 180.25787 185.167607 
L 181.252584 185.167607 
L 181.252584 184.245654 
L 181.367417 184.245654 
L 181.367417 183.784677 
L 184.701704 183.784677 
L 184.701704 182.401748 
L 186.131828 182.401748 
L 186.131828 181.940772 
L 187.933523 181.940772 
L 187.933523 181.479795 
L 189.165499 181.479795 
L 189.165499 181.018819 
L 190.314064 181.018819 
L 190.314064 180.096866 
L 194.570681 180.096866 
L 194.570681 179.635889 
L 195.51636 179.635889 
L 195.51636 179.174913 
L 196.037703 179.174913 
L 196.037703 177.791984 
L 199.417468 177.791984 
L 199.417468 176.409054 
L 201.453311 176.409054 
L 201.453311 175.948078 
L 202.837303 175.948078 
L 202.837303 175.487101 
L 204.619642 175.487101 
L 204.619642 175.026125 
L 204.943457 175.026125 
L 204.943457 173.643196 
L 206.747937 173.643196 
L 206.747937 171.79929 
L 207.446033 171.79929 
L 207.446033 171.338313 
L 209.227759 171.338313 
L 209.227759 169.955384 
L 209.719065 169.955384 
L 209.719065 169.033431 
L 210.142198 169.033431 
L 210.142198 168.111478 
L 211.887867 168.111478 
L 211.887867 166.728549 
L 215.930815 166.728549 
L 215.930815 166.267573 
L 219.522029 166.267573 
L 219.522029 165.806596 
L 220.77205 165.806596 
L 220.77205 164.884643 
L 221.073134 164.884643 
L 221.073134 164.423667 
L 223.252945 164.423667 
L 223.252945 163.96269 
L 226.71296 163.96269 
L 226.71296 163.040737 
L 227.333467 163.040737 
L 227.333467 162.118785 
L 227.474066 162.118785 
L 227.474066 160.735855 
L 236.226601 160.735855 
L 236.226601 158.891949 
L 238.880542 158.891949 
L 238.880542 158.430973 
L 239.338538 158.430973 
L 239.338538 157.969997 
L 254.683156 157.969997 
L 254.683156 157.048044 
L 254.896574 157.048044 
L 254.896574 156.587067 
L 255.609872 156.587067 
L 255.609872 155.665114 
L 256.006159 155.665114 
L 256.006159 154.282185 
L 256.54037 154.282185 
L 256.54037 153.821209 
L 257.87281 153.821209 
L 257.87281 153.360232 
L 260.250723 153.360232 
L 260.250723 152.899256 
L 263.61844 152.899256 
L 263.61844 152.438279 
L 266.476504 152.438279 
L 266.476504 151.516326 
L 266.660947 151.516326 
L 266.742738 150.594374 
L 267.49189 150.594374 
L 267.49189 150.133397 
L 267.782362 150.133397 
L 267.782362 149.211444 
L 269.335951 149.211444 
L 269.335951 148.750468 
L 273.514877 148.750468 
L 273.514877 147.828515 
L 273.916435 147.828515 
L 274.023826 146.906562 
L 274.223066 146.906562 
L 274.223066 146.445586 
L 274.413788 146.445586 
L 274.413788 145.984609 
L 275.36219 145.984609 
L 275.36219 145.523633 
L 278.361579 145.523633 
L 278.361579 144.60168 
L 278.898585 144.60168 
L 278.898585 144.140703 
L 282.265585 144.140703 
L 282.265585 143.679727 
L 285.596111 143.679727 
L 285.596111 143.21875 
L 305.071277 143.21875 
L 305.071277 142.757774 
L 333.429677 142.757774 
L 333.429677 142.757774 
" style="fill:none;stroke:#000080;stroke-linecap:square;stroke-width:1.5;"/>
   </g>
   <g id="line2d_48">
    <defs>
     <path d="M -0 6 
L 6 -6 
L -6 -6 
z
" id="md041afcd65" style="stroke:#000080;stroke-linejoin:miter;stroke-width:1.5;"/>
    </defs>
    <g>
     <use style="fill:none;stroke:#000080;stroke-linejoin:miter;stroke-width:1.5;" x="154.224115" xlink:href="#md041afcd65" y="230.343298"/>
     <use style="fill:none;stroke:#000080;stroke-linejoin:miter;stroke-width:1.5;" x="210.142198" xlink:href="#md041afcd65" y="169.033431"/>
     <use style="fill:none;stroke:#000080;stroke-linejoin:miter;stroke-width:1.5;" x="278.898585" xlink:href="#md041afcd65" y="144.60168"/>
     <use style="fill:none;stroke:#000080;stroke-linejoin:miter;stroke-width:1.5;" x="305.071277" xlink:href="#md041afcd65" y="142.757774"/>
     <use style="fill:none;stroke:#000080;stroke-linejoin:miter;stroke-width:1.5;" x="333.429677" xlink:href="#md041afcd65" y="142.757774"/>
    </g>
   </g>
   <g id="line2d_49">
    <path d="M 0 0 
" style="fill:none;stroke:#000080;stroke-linecap:square;stroke-width:1.5;"/>
    <g>
     <use style="fill:none;stroke:#000080;stroke-linejoin:miter;stroke-width:1.5;" x="0" xlink:href="#md041afcd65" y="0"/>
    </g>
   </g>
   <g id="line2d_50">
    <path clip-path="url(#p029d57ad15)" d="M 254.198341 157.969997 
" style="fill:none;stroke:#000080;stroke-linecap:square;stroke-width:1.5;"/>
    <defs>
     <path d="M -12 12 
L 12 -12 
M -12 -12 
L 12 12 
" id="m1fe2fd0183" style="stroke:#000080;stroke-width:3;"/>
    </defs>
    <g clip-path="url(#p029d57ad15)">
     <use style="fill:#000080;stroke:#000080;stroke-width:3;" x="254.198341" xlink:href="#m1fe2fd0183" y="157.969997"/>
    </g>
   </g>
   <g id="line2d_51">
    <defs>
     <path d="M 0 1.5 
C 0.397805 1.5 0.77937 1.341951 1.06066 1.06066 
C 1.341951 0.77937 1.5 0.397805 1.5 0 
C 1.5 -0.397805 1.341951 -0.77937 1.06066 -1.06066 
C 0.77937 -1.341951 0.397805 -1.5 0 -1.5 
C -0.397805 -1.5 -0.77937 -1.341951 -1.06066 -1.06066 
C -1.341951 -0.77937 -1.5 -0.397805 -1.5 0 
C -1.5 0.397805 -1.341951 0.77937 -1.06066 1.06066 
C -0.77937 1.341951 -0.397805 1.5 0 1.5 
z
" id="maa5a98a05b" style="stroke:#ff0000;"/>
    </defs>
    <g>
     <use style="fill:#ff0000;stroke:#ff0000;" x="313.284429" xlink:href="#maa5a98a05b" y="248.782356"/>
     <use style="fill:#ff0000;stroke:#ff0000;" x="313.284429" xlink:href="#maa5a98a05b" y="248.782356"/>
    </g>
   </g>
   <g id="line2d_52">
    <path d="M 148.889247 294.88 
L 148.889247 294.419024 
L 154.725139 294.419024 
L 154.725139 292.114141 
L 157.606899 292.114141 
L 157.606899 291.653165 
L 158.32551 291.653165 
L 158.32551 290.731212 
L 158.805313 290.731212 
L 158.805313 290.270236 
L 159.200195 290.270236 
L 159.200195 289.809259 
L 159.34477 289.809259 
L 159.34477 287.965353 
L 159.905026 287.965353 
L 159.905026 287.504377 
L 160.999783 287.504377 
L 160.999783 286.582424 
L 161.667602 286.582424 
L 161.667602 285.660471 
L 162.14723 285.660471 
L 162.14723 285.199495 
L 162.370498 285.199495 
L 162.480166 284.277542 
L 162.892031 284.277542 
L 162.892031 283.355589 
L 163.019981 283.355589 
L 163.019981 282.894612 
L 164.601346 282.894612 
L 164.601346 282.433636 
L 165.005892 282.433636 
L 165.005892 281.511683 
L 165.438604 281.511683 
L 165.490163 280.128754 
L 166.336732 280.128754 
L 166.336732 279.667777 
L 166.711216 279.667777 
L 166.711216 279.206801 
L 167.195023 279.206801 
L 167.195023 278.745825 
L 167.445244 278.745825 
L 167.445244 277.823872 
L 168.027339 277.823872 
L 168.027339 277.362895 
L 168.292472 277.362895 
L 168.292472 276.901919 
L 169.273867 276.901919 
L 169.273867 275.979966 
L 170.277584 275.979966 
L 170.277584 275.058013 
L 170.838321 275.058013 
L 170.90163 273.214107 
L 171.482251 273.214107 
L 171.482251 271.370201 
L 172.196171 271.370201 
L 172.196171 270.909225 
L 172.449963 270.909225 
L 172.449963 269.987272 
L 174.594824 269.987272 
L 174.594824 269.526296 
L 176.297878 269.526296 
L 176.297878 268.604343 
L 176.768316 268.604343 
L 176.768316 268.143366 
L 177.278959 268.143366 
L 177.342392 267.221413 
L 180.614365 267.221413 
L 180.614365 266.760437 
L 184.133293 266.760437 
L 184.133293 265.838484 
L 186.035577 265.838484 
L 186.035577 264.455555 
L 195.970839 264.455555 
L 195.970839 263.533602 
L 254.333158 263.533602 
L 254.358996 262.150673 
L 254.488987 262.150673 
L 254.488987 261.689696 
L 254.787665 261.689696 
L 254.787665 261.22872 
L 266.198006 261.22872 
L 266.228551 260.306767 
L 273.15354 260.306767 
L 273.15354 259.84579 
L 278.086472 259.84579 
L 278.086472 258.462861 
L 281.91821 258.462861 
L 281.920759 256.157979 
L 285.052207 256.157979 
L 285.052207 255.697002 
L 287.698689 255.697002 
L 287.698689 255.236026 
L 292.019224 255.236026 
L 292.019224 254.77505 
L 296.963213 254.77505 
L 296.963213 254.314073 
L 298.340367 254.314073 
L 298.340367 253.853097 
L 299.613587 253.853097 
L 299.613587 253.39212 
L 302.952142 253.39212 
L 302.952142 252.931144 
L 303.93506 252.931144 
L 303.935769 251.548214 
L 304.865516 251.548214 
L 304.865516 251.087238 
L 306.586022 251.087238 
L 306.586022 250.626262 
L 309.584617 250.626262 
L 309.584617 250.165285 
L 310.259176 250.165285 
L 310.259176 249.704309 
L 312.72087 249.704309 
L 312.72087 249.243332 
L 313.284429 249.243332 
L 313.284429 248.782356 
L 333.429677 248.782356 
L 333.429677 248.782356 
" style="fill:none;stroke:#ff0000;stroke-linecap:square;stroke-width:1.5;"/>
   </g>
   <g id="line2d_53">
    <defs>
     <path d="M 0 -6 
L -1.347084 -1.854102 
L -5.706339 -1.854102 
L -2.179628 0.708204 
L -3.526712 4.854102 
L -0 2.291796 
L 3.526712 4.854102 
L 2.179628 0.708204 
L 5.706339 -1.854102 
L 1.347084 -1.854102 
z
" id="mffe5abb699" style="stroke:#ff0000;stroke-linejoin:bevel;stroke-width:1.5;"/>
    </defs>
    <g>
     <use style="fill:none;stroke:#ff0000;stroke-linejoin:bevel;stroke-width:1.5;" x="195.970839" xlink:href="#mffe5abb699" y="264.455555"/>
     <use style="fill:none;stroke:#ff0000;stroke-linejoin:bevel;stroke-width:1.5;" x="287.698689" xlink:href="#mffe5abb699" y="255.236026"/>
     <use style="fill:none;stroke:#ff0000;stroke-linejoin:bevel;stroke-width:1.5;" x="313.284429" xlink:href="#mffe5abb699" y="248.782356"/>
     <use style="fill:none;stroke:#ff0000;stroke-linejoin:bevel;stroke-width:1.5;" x="333.429677" xlink:href="#mffe5abb699" y="248.782356"/>
    </g>
   </g>
   <g id="line2d_54">
    <path d="M 0 0 
" style="fill:none;stroke:#ff0000;stroke-linecap:square;stroke-width:1.5;"/>
    <g>
     <use style="fill:none;stroke:#ff0000;stroke-linejoin:bevel;stroke-width:1.5;" x="0" xlink:href="#mffe5abb699" y="0"/>
    </g>
   </g>
   <g id="line2d_55">
    <path clip-path="url(#p029d57ad15)" d="M 254.198345 263.533602 
" style="fill:none;stroke:#ff0000;stroke-linecap:square;stroke-width:1.5;"/>
    <defs>
     <path d="M -12 12 
L 12 -12 
M -12 -12 
L 12 12 
" id="m9abc1e5f5a" style="stroke:#ff0000;stroke-width:3;"/>
    </defs>
    <g clip-path="url(#p029d57ad15)">
     <use style="fill:#ff0000;stroke:#ff0000;stroke-width:3;" x="254.198345" xlink:href="#m9abc1e5f5a" y="263.533602"/>
    </g>
   </g>
   <g id="line2d_56">
    <defs>
     <path d="M 0 1.5 
C 0.397805 1.5 0.77937 1.341951 1.06066 1.06066 
C 1.341951 0.77937 1.5 0.397805 1.5 0 
C 1.5 -0.397805 1.341951 -0.77937 1.06066 -1.06066 
C 0.77937 -1.341951 0.397805 -1.5 0 -1.5 
C -0.397805 -1.5 -0.77937 -1.341951 -1.06066 -1.06066 
C -1.341951 -0.77937 -1.5 -0.397805 -1.5 0 
C -1.5 0.397805 -1.341951 0.77937 -1.06066 1.06066 
C -0.77937 1.341951 -0.397805 1.5 0 1.5 
z
" id="m6adfa42c72" style="stroke:#ffd700;"/>
    </defs>
    <g>
     <use style="fill:#ffd700;stroke:#ffd700;" x="303.938345" xlink:href="#m6adfa42c72" y="253.39212"/>
     <use style="fill:#ffd700;stroke:#ffd700;" x="303.938345" xlink:href="#m6adfa42c72" y="253.39212"/>
    </g>
   </g>
   <g id="line2d_57">
    <path d="M 140.824033 294.88 
L 140.824033 293.958047 
L 141.879952 293.958047 
L 141.879952 293.497071 
L 142.154395 293.497071 
L 142.154395 293.036094 
L 142.330177 293.036094 
L 142.330177 292.114141 
L 142.743748 292.114141 
L 142.743748 291.653165 
L 142.960689 291.653165 
L 142.960689 291.192188 
L 142.982785 291.192188 
L 142.982785 290.270236 
L 143.622183 290.270236 
L 143.622183 289.348283 
L 143.664684 289.348283 
L 143.664684 288.887306 
L 143.956678 288.887306 
L 143.956678 288.42633 
L 144.073656 288.42633 
L 144.073656 287.965353 
L 144.470601 287.965353 
L 144.470601 287.504377 
L 144.974535 287.504377 
L 144.974535 286.582424 
L 145.153079 286.582424 
L 145.153079 286.121448 
L 145.262224 286.121448 
L 145.262224 285.199495 
L 145.433035 285.199495 
L 145.433035 284.277542 
L 145.632955 284.277542 
L 145.632955 283.355589 
L 145.846946 283.355589 
L 145.846946 282.433636 
L 147.116955 282.433636 
L 147.116955 281.97266 
L 147.283291 281.97266 
L 147.283291 281.511683 
L 147.300481 281.511683 
L 147.300481 281.050707 
L 147.349807 281.050707 
L 147.349807 280.128754 
L 147.377624 280.128754 
L 147.377624 279.206801 
L 147.379762 279.206801 
L 147.379762 278.745825 
L 147.904001 278.745825 
L 147.904001 278.284848 
L 148.1306 278.284848 
L 148.1306 277.823872 
L 148.509101 277.823872 
L 148.509101 277.362895 
L 148.737799 277.362895 
L 148.737799 276.901919 
L 149.218963 276.901919 
L 149.218963 276.440942 
L 149.679556 276.440942 
L 149.679556 275.979966 
L 149.826679 275.979966 
L 149.826679 275.058013 
L 150.179084 275.058013 
L 150.179084 274.13606 
L 150.303987 274.13606 
L 150.303987 273.214107 
L 151.996339 273.214107 
L 151.996339 272.753131 
L 151.997974 272.753131 
L 151.997974 272.292154 
L 152.006144 272.292154 
L 152.006144 271.370201 
L 154.516032 271.370201 
L 154.516032 268.604343 
L 154.923465 268.604343 
L 154.923465 268.143366 
L 156.094751 268.143366 
L 156.094751 267.221413 
L 160.294903 267.221413 
L 160.294903 266.760437 
L 166.189068 266.760437 
L 166.189068 266.299461 
L 167.452568 266.299461 
L 167.452568 265.838484 
L 178.215648 265.838484 
L 178.215648 264.455555 
L 189.279319 264.455555 
L 189.279319 263.994578 
L 254.271521 263.994578 
L 254.271521 263.533602 
L 254.297358 263.533602 
L 254.297358 263.072625 
L 254.30245 263.072625 
L 254.30245 262.611649 
L 254.404905 262.611649 
L 254.404905 261.22872 
L 266.173427 261.22872 
L 266.173427 260.767743 
L 266.22744 260.767743 
L 266.22744 259.384814 
L 266.320375 259.384814 
L 266.320375 258.923837 
L 273.168952 258.923837 
L 273.168952 258.462861 
L 273.231088 258.462861 
L 273.231088 258.001885 
L 278.101227 258.001885 
L 278.101227 257.079932 
L 281.93002 257.079932 
L 281.93002 256.157979 
L 285.059926 256.157979 
L 285.059926 255.697002 
L 287.70713 255.697002 
L 287.70713 255.236026 
L 293.834781 255.236026 
L 293.834781 254.77505 
L 295.472693 254.77505 
L 295.472693 254.314073 
L 300.803834 254.314073 
L 300.803834 253.853097 
L 303.938345 253.853097 
L 303.938345 253.39212 
L 333.429677 253.39212 
" style="fill:none;stroke:#ffd700;stroke-linecap:square;stroke-width:1.5;"/>
   </g>
   <g id="line2d_58">
    <defs>
     <path d="M -6 6 
L 6 6 
L 6 -6 
L -6 -6 
z
" id="m9f7238c2bd" style="stroke:#ffd700;stroke-linejoin:miter;stroke-width:1.5;"/>
    </defs>
    <g>
     <use style="fill:none;stroke:#ffd700;stroke-linejoin:miter;stroke-width:1.5;" x="150.303987" xlink:href="#m9f7238c2bd" y="274.13606"/>
     <use style="fill:none;stroke:#ffd700;stroke-linejoin:miter;stroke-width:1.5;" x="189.279319" xlink:href="#m9f7238c2bd" y="263.994578"/>
     <use style="fill:none;stroke:#ffd700;stroke-linejoin:miter;stroke-width:1.5;" x="287.70713" xlink:href="#m9f7238c2bd" y="255.697002"/>
     <use style="fill:none;stroke:#ffd700;stroke-linejoin:miter;stroke-width:1.5;" x="303.938345" xlink:href="#m9f7238c2bd" y="253.39212"/>
     <use style="fill:none;stroke:#ffd700;stroke-linejoin:miter;stroke-width:1.5;" x="333.429677" xlink:href="#m9f7238c2bd" y="253.39212"/>
    </g>
   </g>
   <g id="line2d_59">
    <path d="M 0 0 
" style="fill:none;stroke:#ffd700;stroke-linecap:square;stroke-width:1.5;"/>
    <g>
     <use style="fill:none;stroke:#ffd700;stroke-linejoin:miter;stroke-width:1.5;" x="0" xlink:href="#m9f7238c2bd" y="0"/>
    </g>
   </g>
   <g id="line2d_60">
    <path clip-path="url(#p029d57ad15)" d="M 254.198345 263.994578 
" style="fill:none;stroke:#ffd700;stroke-linecap:square;stroke-width:1.5;"/>
    <defs>
     <path d="M -12 12 
L 12 -12 
M -12 -12 
L 12 12 
" id="m53fe358ae6" style="stroke:#ffd700;stroke-width:3;"/>
    </defs>
    <g clip-path="url(#p029d57ad15)">
     <use style="fill:#ffd700;stroke:#ffd700;stroke-width:3;" x="254.198345" xlink:href="#m53fe358ae6" y="263.994578"/>
    </g>
   </g>
   <g id="line2d_61">
    <path d="M 333.429677 294.88 
L 363.933742 289.532673 
" style="fill:none;stroke:#228b22;stroke-linecap:square;stroke-width:1.5;"/>
    <g>
     <use style="fill:none;stroke:#228b22;stroke-width:1.5;" x="333.429677" xlink:href="#m343f1378cf" y="294.88"/>
     <use style="fill:none;stroke:#228b22;stroke-width:1.5;" x="363.933742" xlink:href="#m343f1378cf" y="289.532673"/>
    </g>
   </g>
   <g id="line2d_62">
    <path d="M 333.429677 281.050707 
L 363.933742 252.86529 
" style="fill:none;stroke:#87ceeb;stroke-linecap:square;stroke-width:1.5;"/>
    <g>
     <use style="fill:none;stroke:#87ceeb;stroke-linejoin:miter;stroke-width:1.5;" x="333.429677" xlink:href="#md90915d68b" y="281.050707"/>
     <use style="fill:none;stroke:#87ceeb;stroke-linejoin:miter;stroke-width:1.5;" x="363.933742" xlink:href="#md90915d68b" y="252.86529"/>
    </g>
   </g>
   <g id="line2d_63">
    <path d="M 333.429677 276.440942 
L 363.933742 216.197907 
" style="fill:none;stroke:#ffc0cb;stroke-linecap:square;stroke-width:1.5;"/>
    <g>
     <use style="fill:none;stroke:#ffc0cb;stroke-linejoin:miter;stroke-width:1.5;" x="333.429677" xlink:href="#m452507715e" y="276.440942"/>
     <use style="fill:none;stroke:#ffc0cb;stroke-linejoin:miter;stroke-width:1.5;" x="363.933742" xlink:href="#m452507715e" y="216.197907"/>
    </g>
   </g>
   <g id="line2d_64">
    <path d="M 333.429677 262.611649 
L 363.933742 179.530523 
" style="fill:none;stroke:#adff2f;stroke-linecap:square;stroke-width:1.5;"/>
    <g>
     <use style="fill:none;stroke:#adff2f;stroke-width:1.5;" x="333.429677" xlink:href="#m144e5cc217" y="262.611649"/>
     <use style="fill:none;stroke:#adff2f;stroke-width:1.5;" x="363.933742" xlink:href="#m144e5cc217" y="179.530523"/>
    </g>
   </g>
   <g id="line2d_65">
    <path d="M 333.429677 253.39212 
L 363.933742 142.86314 
" style="fill:none;stroke:#ffd700;stroke-linecap:square;stroke-width:1.5;"/>
    <g>
     <use style="fill:none;stroke:#ffd700;stroke-linejoin:miter;stroke-width:1.5;" x="333.429677" xlink:href="#m9f7238c2bd" y="253.39212"/>
     <use style="fill:none;stroke:#ffd700;stroke-linejoin:miter;stroke-width:1.5;" x="363.933742" xlink:href="#m9f7238c2bd" y="142.86314"/>
    </g>
   </g>
   <g id="line2d_66">
    <path d="M 333.429677 248.782356 
L 363.933742 106.195757 
" style="fill:none;stroke:#ff0000;stroke-linecap:square;stroke-width:1.5;"/>
    <g>
     <use style="fill:none;stroke:#ff0000;stroke-linejoin:bevel;stroke-width:1.5;" x="333.429677" xlink:href="#mffe5abb699" y="248.782356"/>
     <use style="fill:none;stroke:#ff0000;stroke-linejoin:bevel;stroke-width:1.5;" x="363.933742" xlink:href="#mffe5abb699" y="106.195757"/>
    </g>
   </g>
   <g id="line2d_67">
    <path d="M 333.429677 142.757774 
L 363.933742 69.528373 
" style="fill:none;stroke:#000080;stroke-linecap:square;stroke-width:1.5;"/>
    <g>
     <use style="fill:none;stroke:#000080;stroke-linejoin:miter;stroke-width:1.5;" x="333.429677" xlink:href="#md041afcd65" y="142.757774"/>
     <use style="fill:none;stroke:#000080;stroke-linejoin:miter;stroke-width:1.5;" x="363.933742" xlink:href="#md041afcd65" y="69.528373"/>
    </g>
   </g>
   <g id="line2d_68">
    <path d="M 333.429677 294.88 
L 333.429677 27.513663 
" style="fill:none;stroke:#000000;stroke-linecap:square;stroke-width:1.5;"/>
   </g>
   <g id="patch_3">
    <path d="M 56.12 294.88 
L 56.12 24.84 
" style="fill:none;stroke:#000000;stroke-linecap:square;stroke-linejoin:miter;stroke-width:0.8;"/>
   </g>
   <g id="patch_4">
    <path d="M 399.984 294.88 
L 399.984 24.84 
" style="fill:none;stroke:#000000;stroke-linecap:square;stroke-linejoin:miter;stroke-width:0.8;"/>
   </g>
   <g id="patch_5">
    <path d="M 56.12 294.88 
L 399.984 294.88 
" style="fill:none;stroke:#000000;stroke-linecap:square;stroke-linejoin:miter;stroke-width:0.8;"/>
   </g>
   <g id="patch_6">
    <path d="M 56.12 24.84 
L 399.984 24.84 
" style="fill:none;stroke:#000000;stroke-linecap:square;stroke-linejoin:miter;stroke-width:0.8;"/>
   </g>
   <g id="text_14">
    <!-- RANDOMSEARCH-100 -->
    <defs>
     <path d="M 44.390625 34.1875 
Q 47.5625 33.109375 50.5625 29.59375 
Q 53.5625 26.078125 56.59375 19.921875 
L 66.609375 0 
L 56 0 
L 46.6875 18.703125 
Q 43.0625 26.03125 39.671875 28.421875 
Q 36.28125 30.8125 30.421875 30.8125 
L 19.671875 30.8125 
L 19.671875 0 
L 9.8125 0 
L 9.8125 72.90625 
L 32.078125 72.90625 
Q 44.578125 72.90625 50.734375 67.671875 
Q 56.890625 62.453125 56.890625 51.90625 
Q 56.890625 45.015625 53.6875 40.46875 
Q 50.484375 35.9375 44.390625 34.1875 
z
M 19.671875 64.796875 
L 19.671875 38.921875 
L 32.078125 38.921875 
Q 39.203125 38.921875 42.84375 42.21875 
Q 46.484375 45.515625 46.484375 51.90625 
Q 46.484375 58.296875 42.84375 61.546875 
Q 39.203125 64.796875 32.078125 64.796875 
z
" id="DejaVuSans-52"/>
     <path d="M 34.1875 63.1875 
L 20.796875 26.90625 
L 47.609375 26.90625 
z
M 28.609375 72.90625 
L 39.796875 72.90625 
L 67.578125 0 
L 57.328125 0 
L 50.6875 18.703125 
L 17.828125 18.703125 
L 11.1875 0 
L 0.78125 0 
z
" id="DejaVuSans-41"/>
     <path d="M 9.8125 72.90625 
L 23.09375 72.90625 
L 55.421875 11.921875 
L 55.421875 72.90625 
L 64.984375 72.90625 
L 64.984375 0 
L 51.703125 0 
L 19.390625 60.984375 
L 19.390625 0 
L 9.8125 0 
z
" id="DejaVuSans-4e"/>
     <path d="M 19.671875 64.796875 
L 19.671875 8.109375 
L 31.59375 8.109375 
Q 46.6875 8.109375 53.6875 14.9375 
Q 60.6875 21.78125 60.6875 36.53125 
Q 60.6875 51.171875 53.6875 57.984375 
Q 46.6875 64.796875 31.59375 64.796875 
z
M 9.8125 72.90625 
L 30.078125 72.90625 
Q 51.265625 72.90625 61.171875 64.09375 
Q 71.09375 55.28125 71.09375 36.53125 
Q 71.09375 17.671875 61.125 8.828125 
Q 51.171875 0 30.078125 0 
L 9.8125 0 
z
" id="DejaVuSans-44"/>
     <path d="M 39.40625 66.21875 
Q 28.65625 66.21875 22.328125 58.203125 
Q 16.015625 50.203125 16.015625 36.375 
Q 16.015625 22.609375 22.328125 14.59375 
Q 28.65625 6.59375 39.40625 6.59375 
Q 50.140625 6.59375 56.421875 14.59375 
Q 62.703125 22.609375 62.703125 36.375 
Q 62.703125 50.203125 56.421875 58.203125 
Q 50.140625 66.21875 39.40625 66.21875 
z
M 39.40625 74.21875 
Q 54.734375 74.21875 63.90625 63.9375 
Q 73.09375 53.65625 73.09375 36.375 
Q 73.09375 19.140625 63.90625 8.859375 
Q 54.734375 -1.421875 39.40625 -1.421875 
Q 24.03125 -1.421875 14.8125 8.828125 
Q 5.609375 19.09375 5.609375 36.375 
Q 5.609375 53.65625 14.8125 63.9375 
Q 24.03125 74.21875 39.40625 74.21875 
z
" id="DejaVuSans-4f"/>
     <path d="M 9.8125 72.90625 
L 24.515625 72.90625 
L 43.109375 23.296875 
L 61.8125 72.90625 
L 76.515625 72.90625 
L 76.515625 0 
L 66.890625 0 
L 66.890625 64.015625 
L 48.09375 14.015625 
L 38.1875 14.015625 
L 19.390625 64.015625 
L 19.390625 0 
L 9.8125 0 
z
" id="DejaVuSans-4d"/>
     <path d="M 53.515625 70.515625 
L 53.515625 60.890625 
Q 47.90625 63.578125 42.921875 64.890625 
Q 37.9375 66.21875 33.296875 66.21875 
Q 25.25 66.21875 20.875 63.09375 
Q 16.5 59.96875 16.5 54.203125 
Q 16.5 49.359375 19.40625 46.890625 
Q 22.3125 44.4375 30.421875 42.921875 
L 36.375 41.703125 
Q 47.40625 39.59375 52.65625 34.296875 
Q 57.90625 29 57.90625 20.125 
Q 57.90625 9.515625 50.796875 4.046875 
Q 43.703125 -1.421875 29.984375 -1.421875 
Q 24.8125 -1.421875 18.96875 -0.25 
Q 13.140625 0.921875 6.890625 3.21875 
L 6.890625 13.375 
Q 12.890625 10.015625 18.65625 8.296875 
Q 24.421875 6.59375 29.984375 6.59375 
Q 38.421875 6.59375 43.015625 9.90625 
Q 47.609375 13.234375 47.609375 19.390625 
Q 47.609375 24.75 44.3125 27.78125 
Q 41.015625 30.8125 33.5 32.328125 
L 27.484375 33.5 
Q 16.453125 35.6875 11.515625 40.375 
Q 6.59375 45.0625 6.59375 53.421875 
Q 6.59375 63.09375 13.40625 68.65625 
Q 20.21875 74.21875 32.171875 74.21875 
Q 37.3125 74.21875 42.625 73.28125 
Q 47.953125 72.359375 53.515625 70.515625 
z
" id="DejaVuSans-53"/>
     <path d="M 9.8125 72.90625 
L 55.90625 72.90625 
L 55.90625 64.59375 
L 19.671875 64.59375 
L 19.671875 43.015625 
L 54.390625 43.015625 
L 54.390625 34.71875 
L 19.671875 34.71875 
L 19.671875 8.296875 
L 56.78125 8.296875 
L 56.78125 0 
L 9.8125 0 
z
" id="DejaVuSans-45"/>
     <path d="M 64.40625 67.28125 
L 64.40625 56.890625 
Q 59.421875 61.53125 53.78125 63.8125 
Q 48.140625 66.109375 41.796875 66.109375 
Q 29.296875 66.109375 22.65625 58.46875 
Q 16.015625 50.828125 16.015625 36.375 
Q 16.015625 21.96875 22.65625 14.328125 
Q 29.296875 6.6875 41.796875 6.6875 
Q 48.140625 6.6875 53.78125 8.984375 
Q 59.421875 11.28125 64.40625 15.921875 
L 64.40625 5.609375 
Q 59.234375 2.09375 53.4375 0.328125 
Q 47.65625 -1.421875 41.21875 -1.421875 
Q 24.65625 -1.421875 15.125 8.703125 
Q 5.609375 18.84375 5.609375 36.375 
Q 5.609375 53.953125 15.125 64.078125 
Q 24.65625 74.21875 41.21875 74.21875 
Q 47.75 74.21875 53.53125 72.484375 
Q 59.328125 70.75 64.40625 67.28125 
z
" id="DejaVuSans-43"/>
     <path d="M 9.8125 72.90625 
L 19.671875 72.90625 
L 19.671875 43.015625 
L 55.515625 43.015625 
L 55.515625 72.90625 
L 65.375 72.90625 
L 65.375 0 
L 55.515625 0 
L 55.515625 34.71875 
L 19.671875 34.71875 
L 19.671875 0 
L 9.8125 0 
z
" id="DejaVuSans-48"/>
    </defs>
    <g transform="translate(369.479935 294.223611)scale(0.17 -0.17)">
     <use xlink:href="#DejaVuSans-52"/>
     <use x="69.419922" xlink:href="#DejaVuSans-41"/>
     <use x="137.828125" xlink:href="#DejaVuSans-4e"/>
     <use x="212.632812" xlink:href="#DejaVuSans-44"/>
     <use x="289.634766" xlink:href="#DejaVuSans-4f"/>
     <use x="368.345703" xlink:href="#DejaVuSans-4d"/>
     <use x="454.625" xlink:href="#DejaVuSans-53"/>
     <use x="518.101562" xlink:href="#DejaVuSans-45"/>
     <use x="581.285156" xlink:href="#DejaVuSans-41"/>
     <use x="649.693359" xlink:href="#DejaVuSans-52"/>
     <use x="719.097656" xlink:href="#DejaVuSans-43"/>
     <use x="788.921875" xlink:href="#DejaVuSans-48"/>
     <use x="864.117188" xlink:href="#DejaVuSans-2d"/>
     <use x="900.201172" xlink:href="#DejaVuSans-31"/>
     <use x="963.824219" xlink:href="#DejaVuSans-30"/>
     <use x="1027.447266" xlink:href="#DejaVuSans-30"/>
    </g>
   </g>
   <g id="text_15">
    <!-- RANDOMSEARCH-5 A -->
    <defs>
     <path d="M 10.796875 72.90625 
L 49.515625 72.90625 
L 49.515625 64.59375 
L 19.828125 64.59375 
L 19.828125 46.734375 
Q 21.96875 47.46875 24.109375 47.828125 
Q 26.265625 48.1875 28.421875 48.1875 
Q 40.625 48.1875 47.75 41.5 
Q 54.890625 34.8125 54.890625 23.390625 
Q 54.890625 11.625 47.5625 5.09375 
Q 40.234375 -1.421875 26.90625 -1.421875 
Q 22.3125 -1.421875 17.546875 -0.640625 
Q 12.796875 0.140625 7.71875 1.703125 
L 7.71875 11.625 
Q 12.109375 9.234375 16.796875 8.0625 
Q 21.484375 6.890625 26.703125 6.890625 
Q 35.15625 6.890625 40.078125 11.328125 
Q 45.015625 15.765625 45.015625 23.390625 
Q 45.015625 31 40.078125 35.4375 
Q 35.15625 39.890625 26.703125 39.890625 
Q 22.75 39.890625 18.8125 39.015625 
Q 14.890625 38.140625 10.796875 36.28125 
z
" id="DejaVuSans-35"/>
    </defs>
    <g transform="translate(369.479935 257.556227)scale(0.17 -0.17)">
     <use xlink:href="#DejaVuSans-52"/>
     <use x="69.419922" xlink:href="#DejaVuSans-41"/>
     <use x="137.828125" xlink:href="#DejaVuSans-4e"/>
     <use x="212.632812" xlink:href="#DejaVuSans-44"/>
     <use x="289.634766" xlink:href="#DejaVuSans-4f"/>
     <use x="368.345703" xlink:href="#DejaVuSans-4d"/>
     <use x="454.625" xlink:href="#DejaVuSans-53"/>
     <use x="518.101562" xlink:href="#DejaVuSans-45"/>
     <use x="581.285156" xlink:href="#DejaVuSans-41"/>
     <use x="649.693359" xlink:href="#DejaVuSans-52"/>
     <use x="719.097656" xlink:href="#DejaVuSans-43"/>
     <use x="788.921875" xlink:href="#DejaVuSans-48"/>
     <use x="864.117188" xlink:href="#DejaVuSans-2d"/>
     <use x="900.201172" xlink:href="#DejaVuSans-35"/>
     <use x="963.824219" xlink:href="#DejaVuSans-20"/>
     <use x="995.611328" xlink:href="#DejaVuSans-41"/>
    </g>
   </g>
   <g id="text_16">
    <!-- RANDOMSEARCH-4 A -->
    <g transform="translate(369.479935 220.888844)scale(0.17 -0.17)">
     <use xlink:href="#DejaVuSans-52"/>
     <use x="69.419922" xlink:href="#DejaVuSans-41"/>
     <use x="137.828125" xlink:href="#DejaVuSans-4e"/>
     <use x="212.632812" xlink:href="#DejaVuSans-44"/>
     <use x="289.634766" xlink:href="#DejaVuSans-4f"/>
     <use x="368.345703" xlink:href="#DejaVuSans-4d"/>
     <use x="454.625" xlink:href="#DejaVuSans-53"/>
     <use x="518.101562" xlink:href="#DejaVuSans-45"/>
     <use x="581.285156" xlink:href="#DejaVuSans-41"/>
     <use x="649.693359" xlink:href="#DejaVuSans-52"/>
     <use x="719.097656" xlink:href="#DejaVuSans-43"/>
     <use x="788.921875" xlink:href="#DejaVuSans-48"/>
     <use x="864.117188" xlink:href="#DejaVuSans-2d"/>
     <use x="900.201172" xlink:href="#DejaVuSans-34"/>
     <use x="963.824219" xlink:href="#DejaVuSans-20"/>
     <use x="995.611328" xlink:href="#DejaVuSans-41"/>
    </g>
   </g>
   <g id="text_17">
    <!-- NSGA-II-MATLAB A -->
    <defs>
     <path d="M 59.515625 10.40625 
L 59.515625 29.984375 
L 43.40625 29.984375 
L 43.40625 38.09375 
L 69.28125 38.09375 
L 69.28125 6.78125 
Q 63.578125 2.734375 56.6875 0.65625 
Q 49.8125 -1.421875 42 -1.421875 
Q 24.90625 -1.421875 15.25 8.5625 
Q 5.609375 18.5625 5.609375 36.375 
Q 5.609375 54.25 15.25 64.234375 
Q 24.90625 74.21875 42 74.21875 
Q 49.125 74.21875 55.546875 72.453125 
Q 61.96875 70.703125 67.390625 67.28125 
L 67.390625 56.78125 
Q 61.921875 61.421875 55.765625 63.765625 
Q 49.609375 66.109375 42.828125 66.109375 
Q 29.4375 66.109375 22.71875 58.640625 
Q 16.015625 51.171875 16.015625 36.375 
Q 16.015625 21.625 22.71875 14.15625 
Q 29.4375 6.6875 42.828125 6.6875 
Q 48.046875 6.6875 52.140625 7.59375 
Q 56.25 8.5 59.515625 10.40625 
z
" id="DejaVuSans-47"/>
     <path d="M 9.8125 72.90625 
L 19.671875 72.90625 
L 19.671875 0 
L 9.8125 0 
z
" id="DejaVuSans-49"/>
     <path d="M -0.296875 72.90625 
L 61.375 72.90625 
L 61.375 64.59375 
L 35.5 64.59375 
L 35.5 0 
L 25.59375 0 
L 25.59375 64.59375 
L -0.296875 64.59375 
z
" id="DejaVuSans-54"/>
     <path d="M 9.8125 72.90625 
L 19.671875 72.90625 
L 19.671875 8.296875 
L 55.171875 8.296875 
L 55.171875 0 
L 9.8125 0 
z
" id="DejaVuSans-4c"/>
     <path d="M 19.671875 34.8125 
L 19.671875 8.109375 
L 35.5 8.109375 
Q 43.453125 8.109375 47.28125 11.40625 
Q 51.125 14.703125 51.125 21.484375 
Q 51.125 28.328125 47.28125 31.5625 
Q 43.453125 34.8125 35.5 34.8125 
z
M 19.671875 64.796875 
L 19.671875 42.828125 
L 34.28125 42.828125 
Q 41.5 42.828125 45.03125 45.53125 
Q 48.578125 48.25 48.578125 53.8125 
Q 48.578125 59.328125 45.03125 62.0625 
Q 41.5 64.796875 34.28125 64.796875 
z
M 9.8125 72.90625 
L 35.015625 72.90625 
Q 46.296875 72.90625 52.390625 68.21875 
Q 58.5 63.53125 58.5 54.890625 
Q 58.5 48.1875 55.375 44.234375 
Q 52.25 40.28125 46.1875 39.3125 
Q 53.46875 37.75 57.5 32.78125 
Q 61.53125 27.828125 61.53125 20.40625 
Q 61.53125 10.640625 54.890625 5.3125 
Q 48.25 0 35.984375 0 
L 9.8125 0 
z
" id="DejaVuSans-42"/>
    </defs>
    <g transform="translate(369.479935 184.221461)scale(0.17 -0.17)">
     <use xlink:href="#DejaVuSans-4e"/>
     <use x="74.804688" xlink:href="#DejaVuSans-53"/>
     <use x="138.28125" xlink:href="#DejaVuSans-47"/>
     <use x="215.771484" xlink:href="#DejaVuSans-41"/>
     <use x="284.148438" xlink:href="#DejaVuSans-2d"/>
     <use x="320.232422" xlink:href="#DejaVuSans-49"/>
     <use x="349.724609" xlink:href="#DejaVuSans-49"/>
     <use x="379.216797" xlink:href="#DejaVuSans-2d"/>
     <use x="415.300781" xlink:href="#DejaVuSans-4d"/>
     <use x="501.580078" xlink:href="#DejaVuSans-41"/>
     <use x="569.878906" xlink:href="#DejaVuSans-54"/>
     <use x="630.962891" xlink:href="#DejaVuSans-4c"/>
     <use x="686.707031" xlink:href="#DejaVuSans-41"/>
     <use x="755.115234" xlink:href="#DejaVuSans-42"/>
     <use x="823.71875" xlink:href="#DejaVuSans-20"/>
     <use x="855.505859" xlink:href="#DejaVuSans-41"/>
    </g>
   </g>
   <g id="text_18">
    <!-- SMS-EMOA-PM Auge -->
    <defs>
     <path d="M 19.671875 64.796875 
L 19.671875 37.40625 
L 32.078125 37.40625 
Q 38.96875 37.40625 42.71875 40.96875 
Q 46.484375 44.53125 46.484375 51.125 
Q 46.484375 57.671875 42.71875 61.234375 
Q 38.96875 64.796875 32.078125 64.796875 
z
M 9.8125 72.90625 
L 32.078125 72.90625 
Q 44.34375 72.90625 50.609375 67.359375 
Q 56.890625 61.8125 56.890625 51.125 
Q 56.890625 40.328125 50.609375 34.8125 
Q 44.34375 29.296875 32.078125 29.296875 
L 19.671875 29.296875 
L 19.671875 0 
L 9.8125 0 
z
" id="DejaVuSans-50"/>
    </defs>
    <g transform="translate(369.479935 147.554078)scale(0.17 -0.17)">
     <use xlink:href="#DejaVuSans-53"/>
     <use x="63.476562" xlink:href="#DejaVuSans-4d"/>
     <use x="149.755859" xlink:href="#DejaVuSans-53"/>
     <use x="213.232422" xlink:href="#DejaVuSans-2d"/>
     <use x="249.316406" xlink:href="#DejaVuSans-45"/>
     <use x="312.5" xlink:href="#DejaVuSans-4d"/>
     <use x="398.779297" xlink:href="#DejaVuSans-4f"/>
     <use x="477.474609" xlink:href="#DejaVuSans-41"/>
     <use x="545.851562" xlink:href="#DejaVuSans-2d"/>
     <use x="581.935547" xlink:href="#DejaVuSans-50"/>
     <use x="642.238281" xlink:href="#DejaVuSans-4d"/>
     <use x="728.517578" xlink:href="#DejaVuSans-20"/>
     <use x="760.304688" xlink:href="#DejaVuSans-41"/>
     <use x="828.712891" xlink:href="#DejaVuSans-75"/>
     <use x="892.091797" xlink:href="#DejaVuSans-67"/>
     <use x="955.568359" xlink:href="#DejaVuSans-65"/>
    </g>
   </g>
   <g id="text_19">
    <!-- SMS-EMOA-DE Auge -->
    <g transform="translate(369.479935 110.886694)scale(0.17 -0.17)">
     <use xlink:href="#DejaVuSans-53"/>
     <use x="63.476562" xlink:href="#DejaVuSans-4d"/>
     <use x="149.755859" xlink:href="#DejaVuSans-53"/>
     <use x="213.232422" xlink:href="#DejaVuSans-2d"/>
     <use x="249.316406" xlink:href="#DejaVuSans-45"/>
     <use x="312.5" xlink:href="#DejaVuSans-4d"/>
     <use x="398.779297" xlink:href="#DejaVuSans-4f"/>
     <use x="477.474609" xlink:href="#DejaVuSans-41"/>
     <use x="545.851562" xlink:href="#DejaVuSans-2d"/>
     <use x="581.935547" xlink:href="#DejaVuSans-44"/>
     <use x="658.9375" xlink:href="#DejaVuSans-45"/>
     <use x="722.121094" xlink:href="#DejaVuSans-20"/>
     <use x="753.908203" xlink:href="#DejaVuSans-41"/>
     <use x="822.316406" xlink:href="#DejaVuSans-75"/>
     <use x="885.695312" xlink:href="#DejaVuSans-67"/>
     <use x="949.171875" xlink:href="#DejaVuSans-65"/>
    </g>
   </g>
   <g id="text_20">
    <!-- RM-MEDA Auger bb -->
    <defs>
     <path d="M 48.6875 27.296875 
Q 48.6875 37.203125 44.609375 42.84375 
Q 40.53125 48.484375 33.40625 48.484375 
Q 26.265625 48.484375 22.1875 42.84375 
Q 18.109375 37.203125 18.109375 27.296875 
Q 18.109375 17.390625 22.1875 11.75 
Q 26.265625 6.109375 33.40625 6.109375 
Q 40.53125 6.109375 44.609375 11.75 
Q 48.6875 17.390625 48.6875 27.296875 
z
M 18.109375 46.390625 
Q 20.953125 51.265625 25.265625 53.625 
Q 29.59375 56 35.59375 56 
Q 45.5625 56 51.78125 48.09375 
Q 58.015625 40.1875 58.015625 27.296875 
Q 58.015625 14.40625 51.78125 6.484375 
Q 45.5625 -1.421875 35.59375 -1.421875 
Q 29.59375 -1.421875 25.265625 0.953125 
Q 20.953125 3.328125 18.109375 8.203125 
L 18.109375 0 
L 9.078125 0 
L 9.078125 75.984375 
L 18.109375 75.984375 
z
" id="DejaVuSans-62"/>
    </defs>
    <g transform="translate(369.479935 74.219311)scale(0.17 -0.17)">
     <use xlink:href="#DejaVuSans-52"/>
     <use x="69.482422" xlink:href="#DejaVuSans-4d"/>
     <use x="155.761719" xlink:href="#DejaVuSans-2d"/>
     <use x="191.845703" xlink:href="#DejaVuSans-4d"/>
     <use x="278.125" xlink:href="#DejaVuSans-45"/>
     <use x="341.308594" xlink:href="#DejaVuSans-44"/>
     <use x="418.294922" xlink:href="#DejaVuSans-41"/>
     <use x="486.703125" xlink:href="#DejaVuSans-20"/>
     <use x="518.490234" xlink:href="#DejaVuSans-41"/>
     <use x="586.898438" xlink:href="#DejaVuSans-75"/>
     <use x="650.277344" xlink:href="#DejaVuSans-67"/>
     <use x="713.753906" xlink:href="#DejaVuSans-65"/>
     <use x="775.277344" xlink:href="#DejaVuSans-72"/>
     <use x="816.390625" xlink:href="#DejaVuSans-20"/>
     <use x="848.177734" xlink:href="#DejaVuSans-62"/>
     <use x="911.654297" xlink:href="#DejaVuSans-62"/>
    </g>
   </g>
   <g id="text_21">
    <!-- best 2016 -->
    <g transform="translate(369.479935 37.551928)scale(0.17 -0.17)">
     <use xlink:href="#DejaVuSans-62"/>
     <use x="63.476562" xlink:href="#DejaVuSans-65"/>
     <use x="125" xlink:href="#DejaVuSans-73"/>
     <use x="177.099609" xlink:href="#DejaVuSans-74"/>
     <use x="216.308594" xlink:href="#DejaVuSans-20"/>
     <use x="248.095703" xlink:href="#DejaVuSans-32"/>
     <use x="311.71875" xlink:href="#DejaVuSans-30"/>
     <use x="375.341797" xlink:href="#DejaVuSans-31"/>
     <use x="438.964844" xlink:href="#DejaVuSans-36"/>
    </g>
   </g>
   <g id="text_22">
    <!-- bbob-biobj f29, 40-D -->
    <defs>
     <path d="M 9.421875 54.6875 
L 18.40625 54.6875 
L 18.40625 -0.984375 
Q 18.40625 -11.421875 14.421875 -16.109375 
Q 10.453125 -20.796875 1.609375 -20.796875 
L -1.8125 -20.796875 
L -1.8125 -13.1875 
L 0.59375 -13.1875 
Q 5.71875 -13.1875 7.5625 -10.8125 
Q 9.421875 -8.453125 9.421875 -0.984375 
z
M 9.421875 75.984375 
L 18.40625 75.984375 
L 18.40625 64.59375 
L 9.421875 64.59375 
z
" id="DejaVuSans-6a"/>
     <path d="M 10.984375 1.515625 
L 10.984375 10.5 
Q 14.703125 8.734375 18.5 7.8125 
Q 22.3125 6.890625 25.984375 6.890625 
Q 35.75 6.890625 40.890625 13.453125 
Q 46.046875 20.015625 46.78125 33.40625 
Q 43.953125 29.203125 39.59375 26.953125 
Q 35.25 24.703125 29.984375 24.703125 
Q 19.046875 24.703125 12.671875 31.3125 
Q 6.296875 37.9375 6.296875 49.421875 
Q 6.296875 60.640625 12.9375 67.421875 
Q 19.578125 74.21875 30.609375 74.21875 
Q 43.265625 74.21875 49.921875 64.515625 
Q 56.59375 54.828125 56.59375 36.375 
Q 56.59375 19.140625 48.40625 8.859375 
Q 40.234375 -1.421875 26.421875 -1.421875 
Q 22.703125 -1.421875 18.890625 -0.6875 
Q 15.09375 0.046875 10.984375 1.515625 
z
M 30.609375 32.421875 
Q 37.25 32.421875 41.125 36.953125 
Q 45.015625 41.5 45.015625 49.421875 
Q 45.015625 57.28125 41.125 61.84375 
Q 37.25 66.40625 30.609375 66.40625 
Q 23.96875 66.40625 20.09375 61.84375 
Q 16.21875 57.28125 16.21875 49.421875 
Q 16.21875 41.5 20.09375 36.953125 
Q 23.96875 32.421875 30.609375 32.421875 
z
" id="DejaVuSans-39"/>
    </defs>
    <g transform="translate(59.55864 35.290806)scale(0.102 -0.102)">
     <use xlink:href="#DejaVuSans-62"/>
     <use x="63.476562" xlink:href="#DejaVuSans-62"/>
     <use x="126.953125" xlink:href="#DejaVuSans-6f"/>
     <use x="188.134766" xlink:href="#DejaVuSans-62"/>
     <use x="251.611328" xlink:href="#DejaVuSans-2d"/>
     <use x="287.695312" xlink:href="#DejaVuSans-62"/>
     <use x="351.171875" xlink:href="#DejaVuSans-69"/>
     <use x="378.955078" xlink:href="#DejaVuSans-6f"/>
     <use x="440.136719" xlink:href="#DejaVuSans-62"/>
     <use x="503.613281" xlink:href="#DejaVuSans-6a"/>
     <use x="531.396484" xlink:href="#DejaVuSans-20"/>
     <use x="563.183594" xlink:href="#DejaVuSans-66"/>
     <use x="598.388672" xlink:href="#DejaVuSans-32"/>
     <use x="662.011719" xlink:href="#DejaVuSans-39"/>
     <use x="725.634766" xlink:href="#DejaVuSans-2c"/>
     <use x="757.421875" xlink:href="#DejaVuSans-20"/>
     <use x="789.208984" xlink:href="#DejaVuSans-34"/>
     <use x="852.832031" xlink:href="#DejaVuSans-30"/>
     <use x="916.455078" xlink:href="#DejaVuSans-2d"/>
     <use x="952.539062" xlink:href="#DejaVuSans-44"/>
    </g>
    <!-- 58 targets: 1..-1.0e-4 -->
    <defs>
     <path d="M 11.71875 12.40625 
L 22.015625 12.40625 
L 22.015625 0 
L 11.71875 0 
z
M 11.71875 51.703125 
L 22.015625 51.703125 
L 22.015625 39.3125 
L 11.71875 39.3125 
z
" id="DejaVuSans-3a"/>
    </defs>
    <g transform="translate(59.55864 46.712575)scale(0.102 -0.102)">
     <use xlink:href="#DejaVuSans-35"/>
     <use x="63.623047" xlink:href="#DejaVuSans-38"/>
     <use x="127.246094" xlink:href="#DejaVuSans-20"/>
     <use x="159.033203" xlink:href="#DejaVuSans-74"/>
     <use x="198.242188" xlink:href="#DejaVuSans-61"/>
     <use x="259.521484" xlink:href="#DejaVuSans-72"/>
     <use x="300.619141" xlink:href="#DejaVuSans-67"/>
     <use x="364.095703" xlink:href="#DejaVuSans-65"/>
     <use x="425.619141" xlink:href="#DejaVuSans-74"/>
     <use x="464.828125" xlink:href="#DejaVuSans-73"/>
     <use x="516.927734" xlink:href="#DejaVuSans-3a"/>
     <use x="550.619141" xlink:href="#DejaVuSans-20"/>
     <use x="582.40625" xlink:href="#DejaVuSans-31"/>
     <use x="646.029297" xlink:href="#DejaVuSans-2e"/>
     <use x="677.816406" xlink:href="#DejaVuSans-2e"/>
     <use x="709.603516" xlink:href="#DejaVuSans-2d"/>
     <use x="745.6875" xlink:href="#DejaVuSans-31"/>
     <use x="809.310547" xlink:href="#DejaVuSans-2e"/>
     <use x="841.097656" xlink:href="#DejaVuSans-30"/>
     <use x="904.720703" xlink:href="#DejaVuSans-65"/>
     <use x="966.244141" xlink:href="#DejaVuSans-2d"/>
     <use x="1002.328125" xlink:href="#DejaVuSans-34"/>
    </g>
    <!-- 10 instances -->
    <g transform="translate(59.55864 58.134344)scale(0.102 -0.102)">
     <use xlink:href="#DejaVuSans-31"/>
     <use x="63.623047" xlink:href="#DejaVuSans-30"/>
     <use x="127.246094" xlink:href="#DejaVuSans-20"/>
     <use x="159.033203" xlink:href="#DejaVuSans-69"/>
     <use x="186.816406" xlink:href="#DejaVuSans-6e"/>
     <use x="250.195312" xlink:href="#DejaVuSans-73"/>
     <use x="302.294922" xlink:href="#DejaVuSans-74"/>
     <use x="341.503906" xlink:href="#DejaVuSans-61"/>
     <use x="402.783203" xlink:href="#DejaVuSans-6e"/>
     <use x="466.162109" xlink:href="#DejaVuSans-63"/>
     <use x="521.142578" xlink:href="#DejaVuSans-65"/>
     <use x="582.666016" xlink:href="#DejaVuSans-73"/>
    </g>
   </g>
   <g id="text_23">
    <!-- v2.0.778, hv-hash=ff0e71e8cd978373 -->
    <defs>
     <path d="M 8.203125 72.90625 
L 55.078125 72.90625 
L 55.078125 68.703125 
L 28.609375 0 
L 18.3125 0 
L 43.21875 64.59375 
L 8.203125 64.59375 
z
" id="DejaVuSans-37"/>
     <path d="M 54.890625 33.015625 
L 54.890625 0 
L 45.90625 0 
L 45.90625 32.71875 
Q 45.90625 40.484375 42.875 44.328125 
Q 39.84375 48.1875 33.796875 48.1875 
Q 26.515625 48.1875 22.3125 43.546875 
Q 18.109375 38.921875 18.109375 30.90625 
L 18.109375 0 
L 9.078125 0 
L 9.078125 75.984375 
L 18.109375 75.984375 
L 18.109375 46.1875 
Q 21.34375 51.125 25.703125 53.5625 
Q 30.078125 56 35.796875 56 
Q 45.21875 56 50.046875 50.171875 
Q 54.890625 44.34375 54.890625 33.015625 
z
" id="DejaVuSans-68"/>
     <path d="M 10.59375 45.40625 
L 73.1875 45.40625 
L 73.1875 37.203125 
L 10.59375 37.203125 
z
M 10.59375 25.484375 
L 73.1875 25.484375 
L 73.1875 17.1875 
L 10.59375 17.1875 
z
" id="DejaVuSans-3d"/>
     <path d="M 40.578125 39.3125 
Q 47.65625 37.796875 51.625 33 
Q 55.609375 28.21875 55.609375 21.1875 
Q 55.609375 10.40625 48.1875 4.484375 
Q 40.765625 -1.421875 27.09375 -1.421875 
Q 22.515625 -1.421875 17.65625 -0.515625 
Q 12.796875 0.390625 7.625 2.203125 
L 7.625 11.71875 
Q 11.71875 9.328125 16.59375 8.109375 
Q 21.484375 6.890625 26.8125 6.890625 
Q 36.078125 6.890625 40.9375 10.546875 
Q 45.796875 14.203125 45.796875 21.1875 
Q 45.796875 27.640625 41.28125 31.265625 
Q 36.765625 34.90625 28.71875 34.90625 
L 20.21875 34.90625 
L 20.21875 43.015625 
L 29.109375 43.015625 
Q 36.375 43.015625 40.234375 45.921875 
Q 44.09375 48.828125 44.09375 54.296875 
Q 44.09375 59.90625 40.109375 62.90625 
Q 36.140625 65.921875 28.71875 65.921875 
Q 24.65625 65.921875 20.015625 65.03125 
Q 15.375 64.15625 9.8125 62.3125 
L 9.8125 71.09375 
Q 15.4375 72.65625 20.34375 73.4375 
Q 25.25 74.21875 29.59375 74.21875 
Q 40.828125 74.21875 47.359375 69.109375 
Q 53.90625 64.015625 53.90625 55.328125 
Q 53.90625 49.265625 50.4375 45.09375 
Q 46.96875 40.921875 40.578125 39.3125 
z
" id="DejaVuSans-33"/>
    </defs>
    <g style="fill:#808080;" transform="translate(131.294188 290.099912)scale(0.1 -0.1)">
     <use xlink:href="#DejaVuSans-76"/>
     <use x="59.179688" xlink:href="#DejaVuSans-32"/>
     <use x="122.802734" xlink:href="#DejaVuSans-2e"/>
     <use x="154.589844" xlink:href="#DejaVuSans-30"/>
     <use x="218.212891" xlink:href="#DejaVuSans-2e"/>
     <use x="250" xlink:href="#DejaVuSans-37"/>
     <use x="313.623047" xlink:href="#DejaVuSans-37"/>
     <use x="377.246094" xlink:href="#DejaVuSans-38"/>
     <use x="440.869141" xlink:href="#DejaVuSans-2c"/>
     <use x="472.65625" xlink:href="#DejaVuSans-20"/>
     <use x="504.443359" xlink:href="#DejaVuSans-68"/>
     <use x="567.822266" xlink:href="#DejaVuSans-76"/>
     <use x="626.970703" xlink:href="#DejaVuSans-2d"/>
     <use x="663.054688" xlink:href="#DejaVuSans-68"/>
     <use x="726.433594" xlink:href="#DejaVuSans-61"/>
     <use x="787.712891" xlink:href="#DejaVuSans-73"/>
     <use x="839.8125" xlink:href="#DejaVuSans-68"/>
     <use x="903.191406" xlink:href="#DejaVuSans-3d"/>
     <use x="986.980469" xlink:href="#DejaVuSans-66"/>
     <use x="1022.185547" xlink:href="#DejaVuSans-66"/>
     <use x="1057.390625" xlink:href="#DejaVuSans-30"/>
     <use x="1121.013672" xlink:href="#DejaVuSans-65"/>
     <use x="1182.537109" xlink:href="#DejaVuSans-37"/>
     <use x="1246.160156" xlink:href="#DejaVuSans-31"/>
     <use x="1309.783203" xlink:href="#DejaVuSans-65"/>
     <use x="1371.306641" xlink:href="#DejaVuSans-38"/>
     <use x="1434.929688" xlink:href="#DejaVuSans-63"/>
     <use x="1489.910156" xlink:href="#DejaVuSans-64"/>
     <use x="1553.386719" xlink:href="#DejaVuSans-39"/>
     <use x="1617.009766" xlink:href="#DejaVuSans-37"/>
     <use x="1680.632812" xlink:href="#DejaVuSans-38"/>
     <use x="1744.255859" xlink:href="#DejaVuSans-33"/>
     <use x="1807.878906" xlink:href="#DejaVuSans-37"/>
     <use x="1871.501953" xlink:href="#DejaVuSans-33"/>
    </g>
   </g>
   <g id="text_24">
    <!-- 29 Rosenbrock/Sharp ridge -->
    <defs>
     <path d="M 9.078125 75.984375 
L 18.109375 75.984375 
L 18.109375 31.109375 
L 44.921875 54.6875 
L 56.390625 54.6875 
L 27.390625 29.109375 
L 57.625 0 
L 45.90625 0 
L 18.109375 26.703125 
L 18.109375 0 
L 9.078125 0 
z
" id="DejaVuSans-6b"/>
    </defs>
    <g transform="translate(91.9645 18.84)scale(0.2 -0.2)">
     <use xlink:href="#DejaVuSans-32"/>
     <use x="63.623047" xlink:href="#DejaVuSans-39"/>
     <use x="127.246094" xlink:href="#DejaVuSans-20"/>
     <use x="159.033203" xlink:href="#DejaVuSans-52"/>
     <use x="228.453125" xlink:href="#DejaVuSans-6f"/>
     <use x="289.634766" xlink:href="#DejaVuSans-73"/>
     <use x="341.734375" xlink:href="#DejaVuSans-65"/>
     <use x="403.257812" xlink:href="#DejaVuSans-6e"/>
     <use x="466.636719" xlink:href="#DejaVuSans-62"/>
     <use x="530.113281" xlink:href="#DejaVuSans-72"/>
     <use x="571.195312" xlink:href="#DejaVuSans-6f"/>
     <use x="632.376953" xlink:href="#DejaVuSans-63"/>
     <use x="687.357422" xlink:href="#DejaVuSans-6b"/>
     <use x="745.267578" xlink:href="#DejaVuSans-2f"/>
     <use x="778.958984" xlink:href="#DejaVuSans-53"/>
     <use x="842.435547" xlink:href="#DejaVuSans-68"/>
     <use x="905.814453" xlink:href="#DejaVuSans-61"/>
     <use x="967.09375" xlink:href="#DejaVuSans-72"/>
     <use x="1008.207031" xlink:href="#DejaVuSans-70"/>
     <use x="1071.683594" xlink:href="#DejaVuSans-20"/>
     <use x="1103.470703" xlink:href="#DejaVuSans-72"/>
     <use x="1144.583984" xlink:href="#DejaVuSans-69"/>
     <use x="1172.367188" xlink:href="#DejaVuSans-64"/>
     <use x="1235.84375" xlink:href="#DejaVuSans-67"/>
     <use x="1299.320312" xlink:href="#DejaVuSans-65"/>
    </g>
   </g>
  </g>
 </g>
 <defs>
  <clipPath id="p029d57ad15">
   <rect height="270.04" width="343.864" x="56.12" y="24.84"/>
  </clipPath>
 </defs>
</svg>
