<?xml version="1.0" encoding="utf-8" standalone="no"?>
<!DOCTYPE svg PUBLIC "-//W3C//DTD SVG 1.1//EN"
  "http://www.w3.org/Graphics/SVG/1.1/DTD/svg11.dtd">
<svg height="345.6pt" version="1.1" viewBox="0 0 460.8 345.6" width="460.8pt" xmlns="http://www.w3.org/2000/svg" xmlns:xlink="http://www.w3.org/1999/xlink">
 <metadata>
  <rdf:RDF xmlns:cc="http://creativecommons.org/ns#" xmlns:dc="http://purl.org/dc/elements/1.1/" xmlns:rdf="http://www.w3.org/1999/02/22-rdf-syntax-ns#">
   <cc:Work>
    <dc:type rdf:resource="http://purl.org/dc/dcmitype/StillImage"/>
    <dc:date>2022-03-29T13:03:57.065136</dc:date>
    <dc:format>image/svg+xml</dc:format>
    <dc:creator>
     <cc:Agent>
      <dc:title>Matplotlib v3.4.3, https://matplotlib.org/</dc:title>
     </cc:Agent>
    </dc:creator>
   </cc:Work>
  </rdf:RDF>
 </metadata>
 <defs>
  <style type="text/css">*{stroke-linecap:butt;stroke-linejoin:round;}</style>
 </defs>
 <g id="figure_1">
  <g id="patch_1">
   <path d="M 0 345.6 
L 460.8 345.6 
L 460.8 0 
L 0 0 
z
" style="fill:#ffffff;"/>
  </g>
  <g id="axes_1">
   <g id="patch_2">
    <path d="M 57.6 298.944 
L 338.688 298.944 
L 338.688 27.648 
L 57.6 27.648 
z
" style="fill:#ffffff;"/>
   </g>
   <g id="matplotlib.axis_1">
    <g id="xtick_1">
     <g id="line2d_1">
      <path clip-path="url(#p4fdec8ba39)" d="M 57.6 298.944 
L 57.6 27.648 
" style="fill:none;stroke:#b0b0b0;stroke-linecap:square;stroke-width:0.8;"/>
     </g>
     <g id="line2d_2">
      <defs>
       <path d="M 0 0 
L 0 3.5 
" id="m72b37227e6" style="stroke:#000000;stroke-width:0.8;"/>
      </defs>
      <g>
       <use style="stroke:#000000;stroke-width:0.8;" x="57.6" xlink:href="#m72b37227e6" y="298.944"/>
      </g>
     </g>
     <g id="text_1">
      <!-- 0 -->
      <g transform="translate(51.2375 321.140875)scale(0.2 -0.2)">
       <defs>
        <path d="M 2034 4250 
Q 1547 4250 1301 3770 
Q 1056 3291 1056 2328 
Q 1056 1369 1301 889 
Q 1547 409 2034 409 
Q 2525 409 2770 889 
Q 3016 1369 3016 2328 
Q 3016 3291 2770 3770 
Q 2525 4250 2034 4250 
z
M 2034 4750 
Q 2819 4750 3233 4129 
Q 3647 3509 3647 2328 
Q 3647 1150 3233 529 
Q 2819 -91 2034 -91 
Q 1250 -91 836 529 
Q 422 1150 422 2328 
Q 422 3509 836 4129 
Q 1250 4750 2034 4750 
z
" id="DejaVuSans-30" transform="scale(0.015625)"/>
       </defs>
       <use xlink:href="#DejaVuSans-30"/>
      </g>
     </g>
    </g>
    <g id="xtick_2">
     <g id="line2d_3">
      <path clip-path="url(#p4fdec8ba39)" d="M 137.910857 298.944 
L 137.910857 27.648 
" style="fill:none;stroke:#b0b0b0;stroke-linecap:square;stroke-width:0.8;"/>
     </g>
     <g id="line2d_4">
      <g>
       <use style="stroke:#000000;stroke-width:0.8;" x="137.910857" xlink:href="#m72b37227e6" y="298.944"/>
      </g>
     </g>
     <g id="text_2">
      <!-- 2 -->
      <g transform="translate(131.548357 321.140875)scale(0.2 -0.2)">
       <defs>
        <path d="M 1228 531 
L 3431 531 
L 3431 0 
L 469 0 
L 469 531 
Q 828 903 1448 1529 
Q 2069 2156 2228 2338 
Q 2531 2678 2651 2914 
Q 2772 3150 2772 3378 
Q 2772 3750 2511 3984 
Q 2250 4219 1831 4219 
Q 1534 4219 1204 4116 
Q 875 4013 500 3803 
L 500 4441 
Q 881 4594 1212 4672 
Q 1544 4750 1819 4750 
Q 2544 4750 2975 4387 
Q 3406 4025 3406 3419 
Q 3406 3131 3298 2873 
Q 3191 2616 2906 2266 
Q 2828 2175 2409 1742 
Q 1991 1309 1228 531 
z
" id="DejaVuSans-32" transform="scale(0.015625)"/>
       </defs>
       <use xlink:href="#DejaVuSans-32"/>
      </g>
     </g>
    </g>
    <g id="xtick_3">
     <g id="line2d_5">
      <path clip-path="url(#p4fdec8ba39)" d="M 218.221714 298.944 
L 218.221714 27.648 
" style="fill:none;stroke:#b0b0b0;stroke-linecap:square;stroke-width:0.8;"/>
     </g>
     <g id="line2d_6">
      <g>
       <use style="stroke:#000000;stroke-width:0.8;" x="218.221714" xlink:href="#m72b37227e6" y="298.944"/>
      </g>
     </g>
     <g id="text_3">
      <!-- 4 -->
      <g transform="translate(211.859214 321.140875)scale(0.2 -0.2)">
       <defs>
        <path d="M 2419 4116 
L 825 1625 
L 2419 1625 
L 2419 4116 
z
M 2253 4666 
L 3047 4666 
L 3047 1625 
L 3713 1625 
L 3713 1100 
L 3047 1100 
L 3047 0 
L 2419 0 
L 2419 1100 
L 313 1100 
L 313 1709 
L 2253 4666 
z
" id="DejaVuSans-34" transform="scale(0.015625)"/>
       </defs>
       <use xlink:href="#DejaVuSans-34"/>
      </g>
     </g>
    </g>
    <g id="xtick_4">
     <g id="line2d_7">
      <path clip-path="url(#p4fdec8ba39)" d="M 298.532571 298.944 
L 298.532571 27.648 
" style="fill:none;stroke:#b0b0b0;stroke-linecap:square;stroke-width:0.8;"/>
     </g>
     <g id="line2d_8">
      <g>
       <use style="stroke:#000000;stroke-width:0.8;" x="298.532571" xlink:href="#m72b37227e6" y="298.944"/>
      </g>
     </g>
     <g id="text_4">
      <!-- 6 -->
      <g transform="translate(292.170071 321.140875)scale(0.2 -0.2)">
       <defs>
        <path d="M 2113 2584 
Q 1688 2584 1439 2293 
Q 1191 2003 1191 1497 
Q 1191 994 1439 701 
Q 1688 409 2113 409 
Q 2538 409 2786 701 
Q 3034 994 3034 1497 
Q 3034 2003 2786 2293 
Q 2538 2584 2113 2584 
z
M 3366 4563 
L 3366 3988 
Q 3128 4100 2886 4159 
Q 2644 4219 2406 4219 
Q 1781 4219 1451 3797 
Q 1122 3375 1075 2522 
Q 1259 2794 1537 2939 
Q 1816 3084 2150 3084 
Q 2853 3084 3261 2657 
Q 3669 2231 3669 1497 
Q 3669 778 3244 343 
Q 2819 -91 2113 -91 
Q 1303 -91 875 529 
Q 447 1150 447 2328 
Q 447 3434 972 4092 
Q 1497 4750 2381 4750 
Q 2619 4750 2861 4703 
Q 3103 4656 3366 4563 
z
" id="DejaVuSans-36" transform="scale(0.015625)"/>
       </defs>
       <use xlink:href="#DejaVuSans-36"/>
      </g>
     </g>
    </g>
    <g id="xtick_5">
     <g id="line2d_9">
      <path clip-path="url(#p4fdec8ba39)" d="M 97.755429 298.944 
L 97.755429 27.648 
" style="fill:none;stroke:#b0b0b0;stroke-linecap:square;stroke-width:0.8;"/>
     </g>
     <g id="line2d_10">
      <defs>
       <path d="M 0 0 
L 0 2 
" id="m7d8e403b25" style="stroke:#000000;stroke-width:0.6;"/>
      </defs>
      <g>
       <use style="stroke:#000000;stroke-width:0.6;" x="97.755429" xlink:href="#m7d8e403b25" y="298.944"/>
      </g>
     </g>
    </g>
    <g id="xtick_6">
     <g id="line2d_11">
      <path clip-path="url(#p4fdec8ba39)" d="M 178.066286 298.944 
L 178.066286 27.648 
" style="fill:none;stroke:#b0b0b0;stroke-linecap:square;stroke-width:0.8;"/>
     </g>
     <g id="line2d_12">
      <g>
       <use style="stroke:#000000;stroke-width:0.6;" x="178.066286" xlink:href="#m7d8e403b25" y="298.944"/>
      </g>
     </g>
    </g>
    <g id="xtick_7">
     <g id="line2d_13">
      <path clip-path="url(#p4fdec8ba39)" d="M 258.377143 298.944 
L 258.377143 27.648 
" style="fill:none;stroke:#b0b0b0;stroke-linecap:square;stroke-width:0.8;"/>
     </g>
     <g id="line2d_14">
      <g>
       <use style="stroke:#000000;stroke-width:0.6;" x="258.377143" xlink:href="#m7d8e403b25" y="298.944"/>
      </g>
     </g>
    </g>
    <g id="xtick_8">
     <g id="line2d_15">
      <path clip-path="url(#p4fdec8ba39)" d="M 338.688 298.944 
L 338.688 27.648 
" style="fill:none;stroke:#b0b0b0;stroke-linecap:square;stroke-width:0.8;"/>
     </g>
     <g id="line2d_16">
      <g>
       <use style="stroke:#000000;stroke-width:0.6;" x="338.688" xlink:href="#m7d8e403b25" y="298.944"/>
      </g>
     </g>
    </g>
    <g id="text_5">
     <!-- log10(# f-evals / dimension) -->
     <g transform="translate(77.764078 342.217594)scale(0.17 -0.17)">
      <defs>
       <path d="M 603 4863 
L 1178 4863 
L 1178 0 
L 603 0 
L 603 4863 
z
" id="DejaVuSans-6c" transform="scale(0.015625)"/>
       <path d="M 1959 3097 
Q 1497 3097 1228 2736 
Q 959 2375 959 1747 
Q 959 1119 1226 758 
Q 1494 397 1959 397 
Q 2419 397 2687 759 
Q 2956 1122 2956 1747 
Q 2956 2369 2687 2733 
Q 2419 3097 1959 3097 
z
M 1959 3584 
Q 2709 3584 3137 3096 
Q 3566 2609 3566 1747 
Q 3566 888 3137 398 
Q 2709 -91 1959 -91 
Q 1206 -91 779 398 
Q 353 888 353 1747 
Q 353 2609 779 3096 
Q 1206 3584 1959 3584 
z
" id="DejaVuSans-6f" transform="scale(0.015625)"/>
       <path d="M 2906 1791 
Q 2906 2416 2648 2759 
Q 2391 3103 1925 3103 
Q 1463 3103 1205 2759 
Q 947 2416 947 1791 
Q 947 1169 1205 825 
Q 1463 481 1925 481 
Q 2391 481 2648 825 
Q 2906 1169 2906 1791 
z
M 3481 434 
Q 3481 -459 3084 -895 
Q 2688 -1331 1869 -1331 
Q 1566 -1331 1297 -1286 
Q 1028 -1241 775 -1147 
L 775 -588 
Q 1028 -725 1275 -790 
Q 1522 -856 1778 -856 
Q 2344 -856 2625 -561 
Q 2906 -266 2906 331 
L 2906 616 
Q 2728 306 2450 153 
Q 2172 0 1784 0 
Q 1141 0 747 490 
Q 353 981 353 1791 
Q 353 2603 747 3093 
Q 1141 3584 1784 3584 
Q 2172 3584 2450 3431 
Q 2728 3278 2906 2969 
L 2906 3500 
L 3481 3500 
L 3481 434 
z
" id="DejaVuSans-67" transform="scale(0.015625)"/>
       <path d="M 794 531 
L 1825 531 
L 1825 4091 
L 703 3866 
L 703 4441 
L 1819 4666 
L 2450 4666 
L 2450 531 
L 3481 531 
L 3481 0 
L 794 0 
L 794 531 
z
" id="DejaVuSans-31" transform="scale(0.015625)"/>
       <path d="M 1984 4856 
Q 1566 4138 1362 3434 
Q 1159 2731 1159 2009 
Q 1159 1288 1364 580 
Q 1569 -128 1984 -844 
L 1484 -844 
Q 1016 -109 783 600 
Q 550 1309 550 2009 
Q 550 2706 781 3412 
Q 1013 4119 1484 4856 
L 1984 4856 
z
" id="DejaVuSans-28" transform="scale(0.015625)"/>
       <path d="M 3272 2816 
L 2363 2816 
L 2100 1772 
L 3016 1772 
L 3272 2816 
z
M 2803 4594 
L 2478 3297 
L 3391 3297 
L 3719 4594 
L 4219 4594 
L 3897 3297 
L 4872 3297 
L 4872 2816 
L 3775 2816 
L 3519 1772 
L 4513 1772 
L 4513 1294 
L 3397 1294 
L 3072 0 
L 2572 0 
L 2894 1294 
L 1978 1294 
L 1656 0 
L 1153 0 
L 1478 1294 
L 494 1294 
L 494 1772 
L 1594 1772 
L 1856 2816 
L 850 2816 
L 850 3297 
L 1978 3297 
L 2297 4594 
L 2803 4594 
z
" id="DejaVuSans-23" transform="scale(0.015625)"/>
       <path id="DejaVuSans-20" transform="scale(0.015625)"/>
       <path d="M 2375 4863 
L 2375 4384 
L 1825 4384 
Q 1516 4384 1395 4259 
Q 1275 4134 1275 3809 
L 1275 3500 
L 2222 3500 
L 2222 3053 
L 1275 3053 
L 1275 0 
L 697 0 
L 697 3053 
L 147 3053 
L 147 3500 
L 697 3500 
L 697 3744 
Q 697 4328 969 4595 
Q 1241 4863 1831 4863 
L 2375 4863 
z
" id="DejaVuSans-66" transform="scale(0.015625)"/>
       <path d="M 313 2009 
L 1997 2009 
L 1997 1497 
L 313 1497 
L 313 2009 
z
" id="DejaVuSans-2d" transform="scale(0.015625)"/>
       <path d="M 3597 1894 
L 3597 1613 
L 953 1613 
Q 991 1019 1311 708 
Q 1631 397 2203 397 
Q 2534 397 2845 478 
Q 3156 559 3463 722 
L 3463 178 
Q 3153 47 2828 -22 
Q 2503 -91 2169 -91 
Q 1331 -91 842 396 
Q 353 884 353 1716 
Q 353 2575 817 3079 
Q 1281 3584 2069 3584 
Q 2775 3584 3186 3129 
Q 3597 2675 3597 1894 
z
M 3022 2063 
Q 3016 2534 2758 2815 
Q 2500 3097 2075 3097 
Q 1594 3097 1305 2825 
Q 1016 2553 972 2059 
L 3022 2063 
z
" id="DejaVuSans-65" transform="scale(0.015625)"/>
       <path d="M 191 3500 
L 800 3500 
L 1894 563 
L 2988 3500 
L 3597 3500 
L 2284 0 
L 1503 0 
L 191 3500 
z
" id="DejaVuSans-76" transform="scale(0.015625)"/>
       <path d="M 2194 1759 
Q 1497 1759 1228 1600 
Q 959 1441 959 1056 
Q 959 750 1161 570 
Q 1363 391 1709 391 
Q 2188 391 2477 730 
Q 2766 1069 2766 1631 
L 2766 1759 
L 2194 1759 
z
M 3341 1997 
L 3341 0 
L 2766 0 
L 2766 531 
Q 2569 213 2275 61 
Q 1981 -91 1556 -91 
Q 1019 -91 701 211 
Q 384 513 384 1019 
Q 384 1609 779 1909 
Q 1175 2209 1959 2209 
L 2766 2209 
L 2766 2266 
Q 2766 2663 2505 2880 
Q 2244 3097 1772 3097 
Q 1472 3097 1187 3025 
Q 903 2953 641 2809 
L 641 3341 
Q 956 3463 1253 3523 
Q 1550 3584 1831 3584 
Q 2591 3584 2966 3190 
Q 3341 2797 3341 1997 
z
" id="DejaVuSans-61" transform="scale(0.015625)"/>
       <path d="M 2834 3397 
L 2834 2853 
Q 2591 2978 2328 3040 
Q 2066 3103 1784 3103 
Q 1356 3103 1142 2972 
Q 928 2841 928 2578 
Q 928 2378 1081 2264 
Q 1234 2150 1697 2047 
L 1894 2003 
Q 2506 1872 2764 1633 
Q 3022 1394 3022 966 
Q 3022 478 2636 193 
Q 2250 -91 1575 -91 
Q 1294 -91 989 -36 
Q 684 19 347 128 
L 347 722 
Q 666 556 975 473 
Q 1284 391 1588 391 
Q 1994 391 2212 530 
Q 2431 669 2431 922 
Q 2431 1156 2273 1281 
Q 2116 1406 1581 1522 
L 1381 1569 
Q 847 1681 609 1914 
Q 372 2147 372 2553 
Q 372 3047 722 3315 
Q 1072 3584 1716 3584 
Q 2034 3584 2315 3537 
Q 2597 3491 2834 3397 
z
" id="DejaVuSans-73" transform="scale(0.015625)"/>
       <path d="M 1625 4666 
L 2156 4666 
L 531 -594 
L 0 -594 
L 1625 4666 
z
" id="DejaVuSans-2f" transform="scale(0.015625)"/>
       <path d="M 2906 2969 
L 2906 4863 
L 3481 4863 
L 3481 0 
L 2906 0 
L 2906 525 
Q 2725 213 2448 61 
Q 2172 -91 1784 -91 
Q 1150 -91 751 415 
Q 353 922 353 1747 
Q 353 2572 751 3078 
Q 1150 3584 1784 3584 
Q 2172 3584 2448 3432 
Q 2725 3281 2906 2969 
z
M 947 1747 
Q 947 1113 1208 752 
Q 1469 391 1925 391 
Q 2381 391 2643 752 
Q 2906 1113 2906 1747 
Q 2906 2381 2643 2742 
Q 2381 3103 1925 3103 
Q 1469 3103 1208 2742 
Q 947 2381 947 1747 
z
" id="DejaVuSans-64" transform="scale(0.015625)"/>
       <path d="M 603 3500 
L 1178 3500 
L 1178 0 
L 603 0 
L 603 3500 
z
M 603 4863 
L 1178 4863 
L 1178 4134 
L 603 4134 
L 603 4863 
z
" id="DejaVuSans-69" transform="scale(0.015625)"/>
       <path d="M 3328 2828 
Q 3544 3216 3844 3400 
Q 4144 3584 4550 3584 
Q 5097 3584 5394 3201 
Q 5691 2819 5691 2113 
L 5691 0 
L 5113 0 
L 5113 2094 
Q 5113 2597 4934 2840 
Q 4756 3084 4391 3084 
Q 3944 3084 3684 2787 
Q 3425 2491 3425 1978 
L 3425 0 
L 2847 0 
L 2847 2094 
Q 2847 2600 2669 2842 
Q 2491 3084 2119 3084 
Q 1678 3084 1418 2786 
Q 1159 2488 1159 1978 
L 1159 0 
L 581 0 
L 581 3500 
L 1159 3500 
L 1159 2956 
Q 1356 3278 1631 3431 
Q 1906 3584 2284 3584 
Q 2666 3584 2933 3390 
Q 3200 3197 3328 2828 
z
" id="DejaVuSans-6d" transform="scale(0.015625)"/>
       <path d="M 3513 2113 
L 3513 0 
L 2938 0 
L 2938 2094 
Q 2938 2591 2744 2837 
Q 2550 3084 2163 3084 
Q 1697 3084 1428 2787 
Q 1159 2491 1159 1978 
L 1159 0 
L 581 0 
L 581 3500 
L 1159 3500 
L 1159 2956 
Q 1366 3272 1645 3428 
Q 1925 3584 2291 3584 
Q 2894 3584 3203 3211 
Q 3513 2838 3513 2113 
z
" id="DejaVuSans-6e" transform="scale(0.015625)"/>
       <path d="M 513 4856 
L 1013 4856 
Q 1481 4119 1714 3412 
Q 1947 2706 1947 2009 
Q 1947 1309 1714 600 
Q 1481 -109 1013 -844 
L 513 -844 
Q 928 -128 1133 580 
Q 1338 1288 1338 2009 
Q 1338 2731 1133 3434 
Q 928 4138 513 4856 
z
" id="DejaVuSans-29" transform="scale(0.015625)"/>
      </defs>
      <use xlink:href="#DejaVuSans-6c"/>
      <use x="27.783203" xlink:href="#DejaVuSans-6f"/>
      <use x="88.964844" xlink:href="#DejaVuSans-67"/>
      <use x="152.441406" xlink:href="#DejaVuSans-31"/>
      <use x="216.064453" xlink:href="#DejaVuSans-30"/>
      <use x="279.6875" xlink:href="#DejaVuSans-28"/>
      <use x="318.701172" xlink:href="#DejaVuSans-23"/>
      <use x="402.490234" xlink:href="#DejaVuSans-20"/>
      <use x="434.277344" xlink:href="#DejaVuSans-66"/>
      <use x="463.982422" xlink:href="#DejaVuSans-2d"/>
      <use x="500.066406" xlink:href="#DejaVuSans-65"/>
      <use x="561.589844" xlink:href="#DejaVuSans-76"/>
      <use x="620.769531" xlink:href="#DejaVuSans-61"/>
      <use x="682.048828" xlink:href="#DejaVuSans-6c"/>
      <use x="709.832031" xlink:href="#DejaVuSans-73"/>
      <use x="761.931641" xlink:href="#DejaVuSans-20"/>
      <use x="793.71875" xlink:href="#DejaVuSans-2f"/>
      <use x="827.410156" xlink:href="#DejaVuSans-20"/>
      <use x="859.197266" xlink:href="#DejaVuSans-64"/>
      <use x="922.673828" xlink:href="#DejaVuSans-69"/>
      <use x="950.457031" xlink:href="#DejaVuSans-6d"/>
      <use x="1047.869141" xlink:href="#DejaVuSans-65"/>
      <use x="1109.392578" xlink:href="#DejaVuSans-6e"/>
      <use x="1172.771484" xlink:href="#DejaVuSans-73"/>
      <use x="1224.871094" xlink:href="#DejaVuSans-69"/>
      <use x="1252.654297" xlink:href="#DejaVuSans-6f"/>
      <use x="1313.835938" xlink:href="#DejaVuSans-6e"/>
      <use x="1377.214844" xlink:href="#DejaVuSans-29"/>
     </g>
    </g>
   </g>
   <g id="matplotlib.axis_2">
    <g id="ytick_1">
     <g id="line2d_17">
      <path clip-path="url(#p4fdec8ba39)" d="M 57.6 298.944 
L 338.688 298.944 
" style="fill:none;stroke:#b0b0b0;stroke-linecap:square;stroke-width:0.8;"/>
     </g>
     <g id="line2d_18">
      <defs>
       <path d="M 0 0 
L -3.5 0 
" id="m043af5a639" style="stroke:#000000;stroke-width:0.8;"/>
      </defs>
      <g>
       <use style="stroke:#000000;stroke-width:0.8;" x="57.6" xlink:href="#m043af5a639" y="298.944"/>
      </g>
     </g>
     <g id="text_6">
      <!-- 0.0 -->
      <g transform="translate(25.155 305.02275)scale(0.16 -0.16)">
       <defs>
        <path d="M 684 794 
L 1344 794 
L 1344 0 
L 684 0 
L 684 794 
z
" id="DejaVuSans-2e" transform="scale(0.015625)"/>
       </defs>
       <use xlink:href="#DejaVuSans-30"/>
       <use x="63.623047" xlink:href="#DejaVuSans-2e"/>
       <use x="95.410156" xlink:href="#DejaVuSans-30"/>
      </g>
     </g>
    </g>
    <g id="ytick_2">
     <g id="line2d_19">
      <path clip-path="url(#p4fdec8ba39)" d="M 57.6 245.22202 
L 338.688 245.22202 
" style="fill:none;stroke:#b0b0b0;stroke-linecap:square;stroke-width:0.8;"/>
     </g>
     <g id="line2d_20">
      <g>
       <use style="stroke:#000000;stroke-width:0.8;" x="57.6" xlink:href="#m043af5a639" y="245.22202"/>
      </g>
     </g>
     <g id="text_7">
      <!-- 0.2 -->
      <g transform="translate(25.155 251.30077)scale(0.16 -0.16)">
       <use xlink:href="#DejaVuSans-30"/>
       <use x="63.623047" xlink:href="#DejaVuSans-2e"/>
       <use x="95.410156" xlink:href="#DejaVuSans-32"/>
      </g>
     </g>
    </g>
    <g id="ytick_3">
     <g id="line2d_21">
      <path clip-path="url(#p4fdec8ba39)" d="M 57.6 191.50004 
L 338.688 191.50004 
" style="fill:none;stroke:#b0b0b0;stroke-linecap:square;stroke-width:0.8;"/>
     </g>
     <g id="line2d_22">
      <g>
       <use style="stroke:#000000;stroke-width:0.8;" x="57.6" xlink:href="#m043af5a639" y="191.50004"/>
      </g>
     </g>
     <g id="text_8">
      <!-- 0.4 -->
      <g transform="translate(25.155 197.57879)scale(0.16 -0.16)">
       <use xlink:href="#DejaVuSans-30"/>
       <use x="63.623047" xlink:href="#DejaVuSans-2e"/>
       <use x="95.410156" xlink:href="#DejaVuSans-34"/>
      </g>
     </g>
    </g>
    <g id="ytick_4">
     <g id="line2d_23">
      <path clip-path="url(#p4fdec8ba39)" d="M 57.6 137.778059 
L 338.688 137.778059 
" style="fill:none;stroke:#b0b0b0;stroke-linecap:square;stroke-width:0.8;"/>
     </g>
     <g id="line2d_24">
      <g>
       <use style="stroke:#000000;stroke-width:0.8;" x="57.6" xlink:href="#m043af5a639" y="137.778059"/>
      </g>
     </g>
     <g id="text_9">
      <!-- 0.6 -->
      <g transform="translate(25.155 143.856809)scale(0.16 -0.16)">
       <use xlink:href="#DejaVuSans-30"/>
       <use x="63.623047" xlink:href="#DejaVuSans-2e"/>
       <use x="95.410156" xlink:href="#DejaVuSans-36"/>
      </g>
     </g>
    </g>
    <g id="ytick_5">
     <g id="line2d_25">
      <path clip-path="url(#p4fdec8ba39)" d="M 57.6 84.056079 
L 338.688 84.056079 
" style="fill:none;stroke:#b0b0b0;stroke-linecap:square;stroke-width:0.8;"/>
     </g>
     <g id="line2d_26">
      <g>
       <use style="stroke:#000000;stroke-width:0.8;" x="57.6" xlink:href="#m043af5a639" y="84.056079"/>
      </g>
     </g>
     <g id="text_10">
      <!-- 0.8 -->
      <g transform="translate(25.155 90.134829)scale(0.16 -0.16)">
       <defs>
        <path d="M 2034 2216 
Q 1584 2216 1326 1975 
Q 1069 1734 1069 1313 
Q 1069 891 1326 650 
Q 1584 409 2034 409 
Q 2484 409 2743 651 
Q 3003 894 3003 1313 
Q 3003 1734 2745 1975 
Q 2488 2216 2034 2216 
z
M 1403 2484 
Q 997 2584 770 2862 
Q 544 3141 544 3541 
Q 544 4100 942 4425 
Q 1341 4750 2034 4750 
Q 2731 4750 3128 4425 
Q 3525 4100 3525 3541 
Q 3525 3141 3298 2862 
Q 3072 2584 2669 2484 
Q 3125 2378 3379 2068 
Q 3634 1759 3634 1313 
Q 3634 634 3220 271 
Q 2806 -91 2034 -91 
Q 1263 -91 848 271 
Q 434 634 434 1313 
Q 434 1759 690 2068 
Q 947 2378 1403 2484 
z
M 1172 3481 
Q 1172 3119 1398 2916 
Q 1625 2713 2034 2713 
Q 2441 2713 2670 2916 
Q 2900 3119 2900 3481 
Q 2900 3844 2670 4047 
Q 2441 4250 2034 4250 
Q 1625 4250 1398 4047 
Q 1172 3844 1172 3481 
z
" id="DejaVuSans-38" transform="scale(0.015625)"/>
       </defs>
       <use xlink:href="#DejaVuSans-30"/>
       <use x="63.623047" xlink:href="#DejaVuSans-2e"/>
       <use x="95.410156" xlink:href="#DejaVuSans-38"/>
      </g>
     </g>
    </g>
    <g id="ytick_6">
     <g id="line2d_27">
      <path clip-path="url(#p4fdec8ba39)" d="M 57.6 30.334099 
L 338.688 30.334099 
" style="fill:none;stroke:#b0b0b0;stroke-linecap:square;stroke-width:0.8;"/>
     </g>
     <g id="line2d_28">
      <g>
       <use style="stroke:#000000;stroke-width:0.8;" x="57.6" xlink:href="#m043af5a639" y="30.334099"/>
      </g>
     </g>
     <g id="text_11">
      <!-- 1.0 -->
      <g transform="translate(25.155 36.412849)scale(0.16 -0.16)">
       <use xlink:href="#DejaVuSans-31"/>
       <use x="63.623047" xlink:href="#DejaVuSans-2e"/>
       <use x="95.410156" xlink:href="#DejaVuSans-30"/>
      </g>
     </g>
    </g>
    <g id="text_12">
     <!-- Fraction of function,target pairs -->
     <g transform="translate(17.619531 297.681)rotate(-90)scale(0.17 -0.17)">
      <defs>
       <path d="M 628 4666 
L 3309 4666 
L 3309 4134 
L 1259 4134 
L 1259 2759 
L 3109 2759 
L 3109 2228 
L 1259 2228 
L 1259 0 
L 628 0 
L 628 4666 
z
" id="DejaVuSans-46" transform="scale(0.015625)"/>
       <path d="M 2631 2963 
Q 2534 3019 2420 3045 
Q 2306 3072 2169 3072 
Q 1681 3072 1420 2755 
Q 1159 2438 1159 1844 
L 1159 0 
L 581 0 
L 581 3500 
L 1159 3500 
L 1159 2956 
Q 1341 3275 1631 3429 
Q 1922 3584 2338 3584 
Q 2397 3584 2469 3576 
Q 2541 3569 2628 3553 
L 2631 2963 
z
" id="DejaVuSans-72" transform="scale(0.015625)"/>
       <path d="M 3122 3366 
L 3122 2828 
Q 2878 2963 2633 3030 
Q 2388 3097 2138 3097 
Q 1578 3097 1268 2742 
Q 959 2388 959 1747 
Q 959 1106 1268 751 
Q 1578 397 2138 397 
Q 2388 397 2633 464 
Q 2878 531 3122 666 
L 3122 134 
Q 2881 22 2623 -34 
Q 2366 -91 2075 -91 
Q 1284 -91 818 406 
Q 353 903 353 1747 
Q 353 2603 823 3093 
Q 1294 3584 2113 3584 
Q 2378 3584 2631 3529 
Q 2884 3475 3122 3366 
z
" id="DejaVuSans-63" transform="scale(0.015625)"/>
       <path d="M 1172 4494 
L 1172 3500 
L 2356 3500 
L 2356 3053 
L 1172 3053 
L 1172 1153 
Q 1172 725 1289 603 
Q 1406 481 1766 481 
L 2356 481 
L 2356 0 
L 1766 0 
Q 1100 0 847 248 
Q 594 497 594 1153 
L 594 3053 
L 172 3053 
L 172 3500 
L 594 3500 
L 594 4494 
L 1172 4494 
z
" id="DejaVuSans-74" transform="scale(0.015625)"/>
       <path d="M 544 1381 
L 544 3500 
L 1119 3500 
L 1119 1403 
Q 1119 906 1312 657 
Q 1506 409 1894 409 
Q 2359 409 2629 706 
Q 2900 1003 2900 1516 
L 2900 3500 
L 3475 3500 
L 3475 0 
L 2900 0 
L 2900 538 
Q 2691 219 2414 64 
Q 2138 -91 1772 -91 
Q 1169 -91 856 284 
Q 544 659 544 1381 
z
M 1991 3584 
L 1991 3584 
z
" id="DejaVuSans-75" transform="scale(0.015625)"/>
       <path d="M 750 794 
L 1409 794 
L 1409 256 
L 897 -744 
L 494 -744 
L 750 256 
L 750 794 
z
" id="DejaVuSans-2c" transform="scale(0.015625)"/>
       <path d="M 1159 525 
L 1159 -1331 
L 581 -1331 
L 581 3500 
L 1159 3500 
L 1159 2969 
Q 1341 3281 1617 3432 
Q 1894 3584 2278 3584 
Q 2916 3584 3314 3078 
Q 3713 2572 3713 1747 
Q 3713 922 3314 415 
Q 2916 -91 2278 -91 
Q 1894 -91 1617 61 
Q 1341 213 1159 525 
z
M 3116 1747 
Q 3116 2381 2855 2742 
Q 2594 3103 2138 3103 
Q 1681 3103 1420 2742 
Q 1159 2381 1159 1747 
Q 1159 1113 1420 752 
Q 1681 391 2138 391 
Q 2594 391 2855 752 
Q 3116 1113 3116 1747 
z
" id="DejaVuSans-70" transform="scale(0.015625)"/>
      </defs>
      <use xlink:href="#DejaVuSans-46"/>
      <use x="50.269531" xlink:href="#DejaVuSans-72"/>
      <use x="91.382812" xlink:href="#DejaVuSans-61"/>
      <use x="152.662109" xlink:href="#DejaVuSans-63"/>
      <use x="207.642578" xlink:href="#DejaVuSans-74"/>
      <use x="246.851562" xlink:href="#DejaVuSans-69"/>
      <use x="274.634766" xlink:href="#DejaVuSans-6f"/>
      <use x="335.816406" xlink:href="#DejaVuSans-6e"/>
      <use x="399.195312" xlink:href="#DejaVuSans-20"/>
      <use x="430.982422" xlink:href="#DejaVuSans-6f"/>
      <use x="492.164062" xlink:href="#DejaVuSans-66"/>
      <use x="527.369141" xlink:href="#DejaVuSans-20"/>
      <use x="559.15625" xlink:href="#DejaVuSans-66"/>
      <use x="594.361328" xlink:href="#DejaVuSans-75"/>
      <use x="657.740234" xlink:href="#DejaVuSans-6e"/>
      <use x="721.119141" xlink:href="#DejaVuSans-63"/>
      <use x="776.099609" xlink:href="#DejaVuSans-74"/>
      <use x="815.308594" xlink:href="#DejaVuSans-69"/>
      <use x="843.091797" xlink:href="#DejaVuSans-6f"/>
      <use x="904.273438" xlink:href="#DejaVuSans-6e"/>
      <use x="967.652344" xlink:href="#DejaVuSans-2c"/>
      <use x="999.439453" xlink:href="#DejaVuSans-74"/>
      <use x="1038.648438" xlink:href="#DejaVuSans-61"/>
      <use x="1099.927734" xlink:href="#DejaVuSans-72"/>
      <use x="1139.291016" xlink:href="#DejaVuSans-67"/>
      <use x="1202.767578" xlink:href="#DejaVuSans-65"/>
      <use x="1264.291016" xlink:href="#DejaVuSans-74"/>
      <use x="1303.5" xlink:href="#DejaVuSans-20"/>
      <use x="1335.287109" xlink:href="#DejaVuSans-70"/>
      <use x="1398.763672" xlink:href="#DejaVuSans-61"/>
      <use x="1460.042969" xlink:href="#DejaVuSans-69"/>
      <use x="1487.826172" xlink:href="#DejaVuSans-72"/>
      <use x="1528.939453" xlink:href="#DejaVuSans-73"/>
     </g>
    </g>
   </g>
   <g id="line2d_29">
    <defs>
     <path d="M 0 1.5 
C 0.397805 1.5 0.77937 1.341951 1.06066 1.06066 
C 1.341951 0.77937 1.5 0.397805 1.5 0 
C 1.5 -0.397805 1.341951 -0.77937 1.06066 -1.06066 
C 0.77937 -1.341951 0.397805 -1.5 0 -1.5 
C -0.397805 -1.5 -0.77937 -1.341951 -1.06066 -1.06066 
C -1.341951 -0.77937 -1.5 -0.397805 -1.5 0 
C -1.5 0.397805 -1.341951 0.77937 -1.06066 1.06066 
C -0.77937 1.341951 -0.397805 1.5 0 1.5 
z
" id="m675ff4c8ee" style="stroke:#000080;"/>
    </defs>
    <g>
     <use style="fill:#000080;stroke:#000080;" x="269.466812" xlink:href="#m675ff4c8ee" y="51.401542"/>
     <use style="fill:#000080;stroke:#000080;" x="269.466812" xlink:href="#m675ff4c8ee" y="51.401542"/>
    </g>
   </g>
   <g id="line2d_30">
    <path d="M 17.444571 298.944 
L 17.444571 297.890628 
L 47.174153 297.890628 
L 47.174153 297.363942 
L 57.6 297.363942 
L 57.6 296.837256 
L 58.450865 296.837256 
L 58.450865 296.31057 
L 61.491463 296.31057 
L 61.491463 295.783884 
L 65.242851 295.783884 
L 65.242851 294.730511 
L 68.328395 294.730511 
L 68.328395 294.203825 
L 68.79347 294.203825 
L 68.79347 293.150453 
L 78.154896 293.150453 
L 78.154896 292.623767 
L 78.941764 292.623767 
L 78.941764 292.097081 
L 79.694655 292.097081 
L 79.694655 291.570395 
L 84.213325 291.570395 
L 84.213325 291.043709 
L 85.492169 291.043709 
L 85.492169 290.517023 
L 93.863965 290.517023 
L 93.863965 289.990337 
L 96.86091 289.990337 
L 96.86091 289.463651 
L 98.355365 289.463651 
L 98.355365 288.936964 
L 98.935347 288.936964 
L 98.935347 288.410278 
L 101.079711 288.410278 
L 101.079711 287.883592 
L 102.464508 287.883592 
L 102.464508 287.356906 
L 107.90885 287.356906 
L 107.90885 286.83022 
L 108.764355 286.83022 
L 108.764355 286.303534 
L 109.579846 286.303534 
L 109.579846 285.776848 
L 111.584648 285.776848 
L 111.584648 285.250162 
L 112.051799 285.250162 
L 112.051799 284.723476 
L 112.840362 284.723476 
L 112.840362 284.19679 
L 113.203693 284.19679 
L 113.203693 283.670104 
L 113.594805 283.670104 
L 113.594805 283.143418 
L 113.769724 283.143418 
L 113.769724 282.616732 
L 114.351658 282.616732 
L 114.418861 281.563359 
L 115.141496 281.563359 
L 115.141496 281.036673 
L 117.202696 281.036673 
L 117.202696 280.509987 
L 118.012672 280.509987 
L 118.012672 279.983301 
L 118.602981 279.983301 
L 118.629344 278.929929 
L 118.91674 278.929929 
L 118.91674 278.403243 
L 121.08272 278.403243 
L 121.128432 277.349871 
L 121.377731 277.349871 
L 121.377731 276.823185 
L 121.84399 276.823185 
L 121.84399 276.296499 
L 122.298108 276.296499 
L 122.298108 275.769812 
L 122.844443 275.769812 
L 122.926996 274.71644 
L 123.434283 274.71644 
L 123.514096 272.609696 
L 123.553867 272.609696 
L 123.553867 272.08301 
L 124.330801 272.08301 
L 124.330801 271.556324 
L 124.854767 271.556324 
L 124.891598 270.502952 
L 126.048118 270.502952 
L 126.048118 269.976266 
L 126.70692 269.976266 
L 126.740043 268.922893 
L 126.822577 268.922893 
L 126.87191 267.869521 
L 127.642832 267.869521 
L 127.642832 267.342835 
L 127.845889 267.342835 
L 127.845889 266.816149 
L 128.60556 266.816149 
L 128.60556 266.289463 
L 128.724094 266.289463 
L 128.797771 264.709405 
L 128.973336 264.709405 
L 128.973336 264.182719 
L 129.161557 264.182719 
L 129.161557 263.656033 
L 129.31925 263.656033 
L 129.31925 262.60266 
L 129.78395 262.60266 
L 129.78395 262.075974 
L 131.427132 262.075974 
L 131.427132 261.022602 
L 131.913493 261.022602 
L 131.925787 259.96923 
L 133.136345 259.96923 
L 133.136345 258.915858 
L 134.138879 258.915858 
L 134.171324 257.3358 
L 138.204833 257.3358 
L 138.204833 256.809114 
L 138.753416 256.809114 
L 138.753416 256.282427 
L 140.922482 256.282427 
L 140.922482 255.755741 
L 141.068601 255.755741 
L 141.068601 255.229055 
L 141.364373 255.229055 
L 141.364373 254.702369 
L 141.683328 254.702369 
L 141.683328 254.175683 
L 142.26354 254.175683 
L 142.26354 253.648997 
L 143.634848 253.648997 
L 143.634848 253.122311 
L 144.18499 253.122311 
L 144.18499 251.542253 
L 146.216039 251.542253 
L 146.216039 251.015567 
L 146.367029 251.015567 
L 146.367029 250.488881 
L 147.660186 250.488881 
L 147.660186 249.435508 
L 147.892944 249.435508 
L 147.892944 248.908822 
L 148.756689 248.908822 
L 148.756689 248.382136 
L 151.109358 248.382136 
L 151.109358 247.328764 
L 153.601933 247.328764 
L 153.601933 246.802078 
L 154.63121 246.802078 
L 154.63121 245.748706 
L 156.821042 245.748706 
L 156.821042 245.22202 
L 159.497101 245.22202 
L 159.497101 244.695334 
L 159.825279 244.695334 
L 159.825279 244.168648 
L 161.361298 244.168648 
L 161.470039 243.115275 
L 162.112973 243.115275 
L 162.112973 242.588589 
L 162.421489 242.588589 
L 162.457805 241.535217 
L 162.68677 241.535217 
L 162.728843 240.481845 
L 163.142032 240.481845 
L 163.142032 239.955159 
L 163.350082 239.955159 
L 163.350082 239.428473 
L 163.713267 239.428473 
L 163.768781 237.848415 
L 164.364222 237.848415 
L 164.364222 237.321729 
L 164.586624 237.321729 
L 164.586624 236.795043 
L 164.746437 236.795043 
L 164.746437 236.268356 
L 165.810071 236.268356 
L 165.810071 235.74167 
L 167.584861 235.74167 
L 167.584861 235.214984 
L 167.915698 235.214984 
L 167.915698 234.688298 
L 168.480731 234.688298 
L 168.482242 233.10824 
L 168.64763 233.10824 
L 168.72825 232.054868 
L 168.77882 232.054868 
L 168.77882 231.528182 
L 169.140406 231.528182 
L 169.198498 229.421437 
L 169.98656 229.421437 
L 169.98656 228.894751 
L 170.12597 228.894751 
L 170.12597 227.314693 
L 170.482497 227.314693 
L 170.482497 226.788007 
L 170.942432 226.788007 
L 170.958168 225.207949 
L 171.326498 225.207949 
L 171.326498 224.681263 
L 171.640636 224.681263 
L 171.707311 223.627891 
L 171.838656 223.627891 
L 171.838656 223.101204 
L 172.330143 223.101204 
L 172.330143 222.574518 
L 172.552855 222.574518 
L 172.642339 221.521146 
L 172.733735 221.521146 
L 172.733735 220.99446 
L 173.040014 220.99446 
L 173.040014 220.467774 
L 173.209025 220.467774 
L 173.209025 219.941088 
L 173.442468 219.941088 
L 173.442468 219.414402 
L 173.806924 219.414402 
L 173.806924 218.887716 
L 174.224889 218.887716 
L 174.317025 217.834344 
L 174.424802 217.834344 
L 174.424802 217.307658 
L 174.732584 217.307658 
L 174.735751 215.727599 
L 175.315989 215.727599 
L 175.336395 214.674227 
L 175.544195 214.674227 
L 175.544195 214.147541 
L 175.757513 214.147541 
L 175.765475 213.094169 
L 176.212396 213.094169 
L 176.294632 211.514111 
L 176.373599 211.514111 
L 176.373599 210.987425 
L 176.638688 210.987425 
L 176.638688 210.460738 
L 176.892348 210.460738 
L 176.892348 209.934052 
L 177.281564 209.934052 
L 177.281564 208.88068 
L 177.473864 208.88068 
L 177.473864 208.353994 
L 177.614026 208.353994 
L 177.614026 207.827308 
L 177.821295 207.827308 
L 177.821295 207.300622 
L 178.384252 207.300622 
L 178.384252 206.773936 
L 178.531751 206.773936 
L 178.531751 206.24725 
L 178.680538 206.24725 
L 178.680538 205.720564 
L 178.833909 205.720564 
L 178.936241 204.140506 
L 179.089033 204.140506 
L 179.143221 202.560447 
L 179.20296 202.560447 
L 179.290967 201.507075 
L 179.338858 201.507075 
L 179.338858 200.980389 
L 179.822503 200.980389 
L 179.822503 200.453703 
L 180.100949 200.453703 
L 180.120337 199.400331 
L 180.365087 199.400331 
L 180.426884 198.346959 
L 180.877944 198.346959 
L 180.920935 196.7669 
L 181.023534 196.7669 
L 181.023534 196.240214 
L 181.156967 196.240214 
L 181.248749 194.13347 
L 181.626058 194.13347 
L 181.708336 192.026726 
L 181.81697 192.026726 
L 181.850692 190.973354 
L 181.94449 190.973354 
L 181.945886 189.393295 
L 182.134728 189.393295 
L 182.177489 187.286551 
L 182.315398 187.286551 
L 182.408095 186.233179 
L 182.599422 186.233179 
L 182.599422 185.706493 
L 182.852407 185.706493 
L 182.852407 184.653121 
L 183.039601 184.653121 
L 183.112876 183.599748 
L 183.268216 183.599748 
L 183.335382 182.546376 
L 183.680031 182.546376 
L 183.682559 181.493004 
L 183.950306 181.493004 
L 183.950306 180.966318 
L 184.429032 180.966318 
L 184.442951 179.912946 
L 184.643235 179.912946 
L 184.667737 178.859574 
L 184.846566 178.859574 
L 184.846566 178.332888 
L 185.015972 178.332888 
L 185.015972 177.806202 
L 185.146023 177.806202 
L 185.146023 177.279515 
L 185.298741 177.279515 
L 185.401534 175.699457 
L 185.44785 175.699457 
L 185.538411 174.646085 
L 185.642628 174.646085 
L 185.691125 173.066027 
L 186.005878 173.066027 
L 186.005878 172.539341 
L 186.22189 172.539341 
L 186.22189 172.012655 
L 186.516551 172.012655 
L 186.529973 170.432596 
L 186.847998 170.432596 
L 186.901143 169.379224 
L 187.008517 169.379224 
L 187.067422 168.325852 
L 187.148935 168.325852 
L 187.239861 166.745794 
L 187.422344 166.745794 
L 187.532648 165.692422 
L 187.682996 165.692422 
L 187.682996 165.165736 
L 187.873848 165.165736 
L 187.873848 164.63905 
L 188.195334 164.63905 
L 188.261551 163.585677 
L 188.330421 163.585677 
L 188.426963 162.532305 
L 188.452938 162.532305 
L 188.452938 160.952247 
L 188.572691 160.952247 
L 188.638919 159.898875 
L 188.692101 159.898875 
L 188.700633 158.845503 
L 188.878846 158.845503 
L 188.878846 158.318817 
L 189.494064 158.318817 
L 189.555537 157.265444 
L 189.609149 157.265444 
L 189.669321 156.212072 
L 189.753394 156.212072 
L 189.765881 154.632014 
L 189.891588 154.632014 
L 189.891588 154.105328 
L 190.024304 154.105328 
L 190.062915 152.52527 
L 190.138135 152.52527 
L 190.234745 150.945211 
L 190.336432 150.945211 
L 190.336432 150.418525 
L 190.603176 150.418525 
L 190.603176 149.891839 
L 190.784093 149.891839 
L 190.784093 149.365153 
L 191.037082 149.365153 
L 191.037082 148.838467 
L 191.22752 148.838467 
L 191.295441 147.785095 
L 191.348041 147.785095 
L 191.348041 147.258409 
L 191.525864 147.258409 
L 191.528685 146.205037 
L 191.6987 146.205037 
L 191.6987 145.678351 
L 191.934522 145.678351 
L 191.98484 144.624978 
L 192.053008 144.624978 
L 192.053008 143.571606 
L 192.428984 143.571606 
L 192.428984 143.04492 
L 192.821362 143.04492 
L 192.821362 142.518234 
L 193.061036 142.518234 
L 193.140936 141.464862 
L 193.344727 141.464862 
L 193.344727 140.41149 
L 193.814359 140.41149 
L 193.885257 138.304745 
L 194.309851 138.304745 
L 194.377398 136.724687 
L 194.737095 136.724687 
L 194.784633 135.671315 
L 195.067498 135.671315 
L 195.174403 134.617943 
L 195.285531 134.617943 
L 195.330303 133.564571 
L 195.532608 133.564571 
L 195.532608 133.037885 
L 195.695508 133.037885 
L 195.695508 132.511199 
L 195.821969 132.511199 
L 195.821969 131.984513 
L 195.963151 131.984513 
L 196.061924 130.404454 
L 196.18268 130.404454 
L 196.196251 129.351082 
L 196.304751 129.351082 
L 196.381185 128.29771 
L 196.570517 128.29771 
L 196.606692 127.244338 
L 196.698302 127.244338 
L 196.720456 126.190966 
L 196.907048 126.190966 
L 196.907048 125.66428 
L 197.351561 125.66428 
L 197.351561 125.137593 
L 197.47119 125.137593 
L 197.47119 124.084221 
L 197.590573 124.084221 
L 197.663854 122.504163 
L 197.939432 122.504163 
L 198.039582 120.924105 
L 198.605345 120.924105 
L 198.605345 120.397419 
L 198.98703 120.397419 
L 198.98703 119.870733 
L 199.10538 119.870733 
L 199.200627 118.817361 
L 199.485329 118.817361 
L 199.485329 118.290674 
L 199.638615 118.290674 
L 199.69799 117.237302 
L 199.841173 117.237302 
L 199.890636 115.130558 
L 200.254273 115.130558 
L 200.254273 114.603872 
L 200.44332 114.603872 
L 200.44332 114.077186 
L 200.641813 114.077186 
L 200.641813 113.5505 
L 200.840434 113.5505 
L 200.840434 113.023814 
L 200.961909 113.023814 
L 201.041023 111.970441 
L 201.100008 111.970441 
L 201.191238 110.390383 
L 201.25687 110.390383 
L 201.333742 108.283639 
L 201.369988 108.283639 
L 201.480556 106.176895 
L 201.517181 106.176895 
L 201.517181 105.650209 
L 201.935039 105.650209 
L 201.935039 105.123522 
L 202.214556 105.123522 
L 202.214556 104.07015 
L 202.393112 104.07015 
L 202.393112 103.543464 
L 202.555305 103.543464 
L 202.644788 101.963406 
L 202.914502 101.963406 
L 202.975641 100.910034 
L 203.078797 100.910034 
L 203.078797 100.383348 
L 203.299718 100.383348 
L 203.299718 99.856662 
L 203.501252 99.856662 
L 203.607 98.276603 
L 203.708703 98.276603 
L 203.739339 96.696545 
L 204.157215 96.696545 
L 204.157215 96.169859 
L 204.304644 96.169859 
L 204.34295 95.116487 
L 204.431236 95.116487 
L 204.431236 94.589801 
L 204.620939 94.589801 
L 204.672785 93.009743 
L 204.808224 93.009743 
L 204.889322 90.902998 
L 205.00915 90.902998 
L 205.041115 89.849626 
L 205.34499 89.849626 
L 205.34499 89.32294 
L 205.667501 89.32294 
L 205.667501 88.796254 
L 205.783185 88.796254 
L 205.783185 88.269568 
L 206.00279 88.269568 
L 206.028599 86.68951 
L 206.31433 86.68951 
L 206.31433 86.162824 
L 207.216398 86.162824 
L 207.216398 85.636137 
L 207.384561 85.636137 
L 207.467634 84.056079 
L 207.595276 84.056079 
L 207.595276 83.529393 
L 207.819948 83.529393 
L 207.819948 83.002707 
L 208.055982 83.002707 
L 208.055982 81.949335 
L 208.274988 81.949335 
L 208.274988 80.369277 
L 208.752106 80.369277 
L 208.752106 79.842591 
L 209.180091 79.842591 
L 209.180091 79.315904 
L 209.356681 79.315904 
L 209.356681 78.789218 
L 209.960894 78.789218 
L 210.031326 76.682474 
L 210.344114 76.682474 
L 210.344114 75.629102 
L 210.505149 75.629102 
L 210.558679 73.522358 
L 210.649506 73.522358 
L 210.649506 72.995672 
L 210.785067 72.995672 
L 210.785067 72.468985 
L 211.077251 72.468985 
L 211.077251 71.415613 
L 211.347817 71.415613 
L 211.347817 70.888927 
L 211.522177 70.888927 
L 211.595772 68.782183 
L 211.66893 68.782183 
L 211.68733 67.728811 
L 215.716444 67.728811 
L 215.716444 66.675439 
L 215.848721 66.675439 
L 215.848721 66.148752 
L 216.242372 66.148752 
L 216.262286 64.568694 
L 216.517975 64.568694 
L 216.517975 63.515322 
L 216.92169 63.515322 
L 216.937465 61.408578 
L 227.360938 61.408578 
L 227.360938 60.881892 
L 229.348559 60.881892 
L 229.358507 59.82852 
L 229.479637 59.82852 
L 229.491703 58.775147 
L 229.686899 58.775147 
L 229.686899 57.721775 
L 236.585935 57.721775 
L 236.585935 57.195089 
L 236.838895 57.195089 
L 236.838895 56.668403 
L 237.157619 56.668403 
L 237.157619 56.141717 
L 245.970487 56.141717 
L 245.970487 55.615031 
L 249.366377 55.615031 
L 249.366377 55.088345 
L 251.830439 55.088345 
L 251.9087 53.508287 
L 251.945354 53.508287 
L 251.945354 52.9816 
L 254.304716 52.9816 
L 254.304716 52.454914 
L 256.291075 52.454914 
L 256.291075 51.928228 
L 269.466812 51.928228 
L 269.466812 51.401542 
L 338.688 51.401542 
L 338.688 51.401542 
" style="fill:none;stroke:#000080;stroke-linecap:square;stroke-width:1.5;"/>
   </g>
   <g id="line2d_31">
    <defs>
     <path d="M 0 6 
C 1.591219 6 3.117479 5.367802 4.242641 4.242641 
C 5.367802 3.117479 6 1.591219 6 0 
C 6 -1.591219 5.367802 -3.117479 4.242641 -4.242641 
C 3.117479 -5.367802 1.591219 -6 0 -6 
C -1.591219 -6 -3.117479 -5.367802 -4.242641 -4.242641 
C -5.367802 -3.117479 -6 -1.591219 -6 0 
C -6 1.591219 -5.367802 3.117479 -4.242641 4.242641 
C -3.117479 5.367802 -1.591219 6 0 6 
z
" id="m8c12e58173" style="stroke:#000080;stroke-width:1.5;"/>
    </defs>
    <g>
     <use style="fill-opacity:0;stroke:#000080;stroke-width:1.5;" x="154.63121" xlink:href="#m8c12e58173" y="245.748706"/>
     <use style="fill-opacity:0;stroke:#000080;stroke-width:1.5;" x="189.753394" xlink:href="#m8c12e58173" y="155.685386"/>
     <use style="fill-opacity:0;stroke:#000080;stroke-width:1.5;" x="216.937465" xlink:href="#m8c12e58173" y="61.408578"/>
     <use style="fill-opacity:0;stroke:#000080;stroke-width:1.5;" x="269.466812" xlink:href="#m8c12e58173" y="51.401542"/>
     <use style="fill-opacity:0;stroke:#000080;stroke-width:1.5;" x="269.466812" xlink:href="#m8c12e58173" y="51.401542"/>
     <use style="fill-opacity:0;stroke:#000080;stroke-width:1.5;" x="338.688" xlink:href="#m8c12e58173" y="51.401542"/>
    </g>
   </g>
   <g id="line2d_32">
    <path style="fill:none;stroke:#000080;stroke-linecap:square;stroke-width:1.5;"/>
    <g/>
   </g>
   <g id="line2d_33">
    <path clip-path="url(#p4fdec8ba39)" d="M 218.24141 61.408578 
" style="fill:none;stroke:#000080;stroke-linecap:square;stroke-width:1.5;"/>
    <defs>
     <path d="M -12 12 
L 12 -12 
M -12 -12 
L 12 12 
" id="m748039ae71" style="stroke:#000080;"/>
    </defs>
    <g clip-path="url(#p4fdec8ba39)">
     <use style="fill:#000080;stroke:#000080;" x="218.24141" xlink:href="#m748039ae71" y="61.408578"/>
    </g>
   </g>
   <g id="line2d_34">
    <defs>
     <path d="M 0 1.5 
C 0.397805 1.5 0.77937 1.341951 1.06066 1.06066 
C 1.341951 0.77937 1.5 0.397805 1.5 0 
C 1.5 -0.397805 1.341951 -0.77937 1.06066 -1.06066 
C 0.77937 -1.341951 0.397805 -1.5 0 -1.5 
C -0.397805 -1.5 -0.77937 -1.341951 -1.06066 -1.06066 
C -1.341951 -0.77937 -1.5 -0.397805 -1.5 0 
C -1.5 0.397805 -1.341951 0.77937 -1.06066 1.06066 
C -0.77937 1.341951 -0.397805 1.5 0 1.5 
z
" id="ma6927fd42f" style="stroke:#ff00ff;"/>
    </defs>
    <g>
     <use style="fill:#ff00ff;stroke:#ff00ff;" x="238.116915" xlink:href="#ma6927fd42f" y="30.334099"/>
     <use style="fill:#ff00ff;stroke:#ff00ff;" x="238.116915" xlink:href="#ma6927fd42f" y="30.334099"/>
    </g>
   </g>
   <g id="line2d_35">
    <path d="M 33.424023 298.944 
L 33.424023 298.417314 
L 36.60358 298.417314 
L 36.60358 297.890628 
L 61.491463 297.890628 
L 61.491463 297.363942 
L 66.333161 297.363942 
L 66.333161 296.837256 
L 86.182924 296.837256 
L 86.182924 296.31057 
L 87.643811 296.31057 
L 87.643811 295.783884 
L 89.135256 295.783884 
L 89.135256 295.257197 
L 92.147241 295.257197 
L 92.147241 294.730511 
L 98.18605 294.730511 
L 98.18605 294.203825 
L 101.079711 294.203825 
L 101.079711 293.677139 
L 105.51043 293.677139 
L 105.51043 293.150453 
L 108.102622 293.150453 
L 108.102622 292.623767 
L 110.145965 292.623767 
L 110.145965 292.097081 
L 116.797786 292.097081 
L 116.797786 291.570395 
L 117.709852 291.570395 
L 117.709852 291.043709 
L 119.301163 291.043709 
L 119.301163 290.517023 
L 122.104932 290.517023 
L 122.104932 289.990337 
L 123.152022 289.990337 
L 123.152022 289.463651 
L 124.92835 289.463651 
L 124.92835 288.936964 
L 125.805421 288.936964 
L 125.805421 288.410278 
L 128.15374 288.410278 
L 128.15374 287.883592 
L 128.753602 287.883592 
L 128.753602 287.356906 
L 128.91501 287.356906 
L 128.91501 286.83022 
L 129.447219 286.83022 
L 129.447219 286.303534 
L 136.65465 286.303534 
L 136.65465 285.776848 
L 137.726777 285.776848 
L 137.726777 285.250162 
L 138.794909 285.250162 
L 138.794909 284.723476 
L 140.922482 284.723476 
L 140.922482 284.19679 
L 145.039911 284.19679 
L 145.039911 283.670104 
L 145.921099 283.670104 
L 145.921099 283.143418 
L 146.675697 283.143418 
L 146.675697 282.616732 
L 147.205618 282.616732 
L 147.256714 281.563359 
L 147.444481 281.563359 
L 147.444481 281.036673 
L 147.625253 281.036673 
L 147.625253 280.509987 
L 148.430623 280.509987 
L 148.430623 279.983301 
L 149.552849 279.983301 
L 149.552849 279.456615 
L 150.459216 279.456615 
L 150.459216 278.929929 
L 151.787359 278.929929 
L 151.787359 278.403243 
L 153.301495 278.403243 
L 153.301495 277.876557 
L 154.011958 277.876557 
L 154.011958 277.349871 
L 154.232233 277.349871 
L 154.232233 276.823185 
L 154.37529 276.823185 
L 154.37529 276.296499 
L 154.734529 276.296499 
L 154.734529 275.769812 
L 155.794906 275.769812 
L 155.794906 275.243126 
L 157.748256 275.243126 
L 157.748256 274.71644 
L 158.853132 274.71644 
L 158.853132 274.189754 
L 159.464194 274.189754 
L 159.464194 273.663068 
L 159.795473 273.663068 
L 159.795473 273.136382 
L 160.120575 273.136382 
L 160.120575 272.609696 
L 160.295382 272.609696 
L 160.295382 272.08301 
L 160.900768 272.08301 
L 160.900768 271.556324 
L 161.033263 271.556324 
L 161.033263 271.029638 
L 161.167057 271.029638 
L 161.183135 269.976266 
L 162.268992 269.976266 
L 162.268992 269.449579 
L 162.709923 269.449579 
L 162.709923 268.922893 
L 162.862799 268.922893 
L 162.862799 268.396207 
L 163.100945 268.396207 
L 163.100945 267.869521 
L 163.246367 267.869521 
L 163.281008 266.816149 
L 163.790542 266.816149 
L 163.790542 266.289463 
L 163.955826 266.289463 
L 163.955826 265.762777 
L 164.189261 265.762777 
L 164.189261 265.236091 
L 164.832318 265.236091 
L 164.832318 264.709405 
L 165.251852 264.709405 
L 165.251852 264.182719 
L 165.391288 264.182719 
L 165.391288 263.656033 
L 165.753633 263.656033 
L 165.760698 262.60266 
L 165.969575 262.60266 
L 166.07395 261.549288 
L 166.08262 261.549288 
L 166.118986 260.495916 
L 166.229351 260.495916 
L 166.229351 259.96923 
L 166.459886 259.96923 
L 166.527611 258.915858 
L 166.868978 258.915858 
L 166.978005 257.3358 
L 167.51953 257.3358 
L 167.560988 255.755741 
L 167.813965 255.755741 
L 167.84533 254.702369 
L 167.999765 254.702369 
L 168.036999 253.648997 
L 168.111228 253.648997 
L 168.22045 252.595625 
L 168.535036 252.595625 
L 168.535036 252.068939 
L 168.705893 252.068939 
L 168.74165 251.015567 
L 168.873615 251.015567 
L 168.873615 250.488881 
L 169.030959 250.488881 
L 169.030959 249.962195 
L 169.424658 249.962195 
L 169.496072 247.85545 
L 169.548731 247.85545 
L 169.567195 246.802078 
L 169.677571 246.802078 
L 169.681802 245.748706 
L 170.135591 245.748706 
L 170.219207 242.588589 
L 170.303784 242.588589 
L 170.303784 242.061903 
L 170.670062 242.061903 
L 170.670062 240.481845 
L 170.818674 240.481845 
L 170.818674 239.955159 
L 170.967341 239.955159 
L 170.967341 239.428473 
L 171.367517 239.428473 
L 171.367517 238.901787 
L 171.495081 238.901787 
L 171.495081 238.375101 
L 171.619196 238.375101 
L 171.619196 237.321729 
L 171.744939 237.321729 
L 171.814962 235.214984 
L 172.030754 235.214984 
L 172.05908 234.161612 
L 172.254864 234.161612 
L 172.254864 233.634926 
L 172.45449 233.634926 
L 172.504941 231.528182 
L 172.612562 231.528182 
L 172.645909 230.47481 
L 172.742019 230.47481 
L 172.742019 229.421437 
L 173.269975 229.421437 
L 173.289481 227.841379 
L 173.416304 227.841379 
L 173.512801 226.788007 
L 173.708687 226.788007 
L 173.792447 225.734635 
L 173.840288 225.734635 
L 173.861386 224.154577 
L 174.142093 224.154577 
L 174.142093 223.627891 
L 174.282396 223.627891 
L 174.318106 222.574518 
L 174.408678 222.574518 
L 174.408678 222.047832 
L 174.772652 222.047832 
L 174.772652 221.521146 
L 174.883938 221.521146 
L 174.883938 220.99446 
L 175.121961 220.99446 
L 175.121961 220.467774 
L 175.273058 220.467774 
L 175.289425 219.414402 
L 175.396455 219.414402 
L 175.46947 217.834344 
L 175.536132 217.834344 
L 175.630638 216.780971 
L 175.864686 216.780971 
L 175.915067 215.200913 
L 176.091729 215.200913 
L 176.175506 213.620855 
L 176.456993 213.620855 
L 176.505694 212.040797 
L 176.692547 212.040797 
L 176.781943 209.934052 
L 176.866214 209.934052 
L 176.874618 208.88068 
L 177.048339 208.88068 
L 177.054808 207.827308 
L 177.251439 207.827308 
L 177.341659 206.773936 
L 177.382514 206.773936 
L 177.477472 205.193878 
L 177.60597 205.193878 
L 177.60597 204.667192 
L 177.804485 204.667192 
L 177.883967 203.613819 
L 177.942903 203.613819 
L 178.006016 201.507075 
L 178.07326 201.507075 
L 178.156735 199.927017 
L 178.20438 199.927017 
L 178.210434 198.873645 
L 178.416758 198.873645 
L 178.4901 197.820273 
L 178.57669 197.820273 
L 178.679696 196.240214 
L 178.717537 196.240214 
L 178.719217 195.186842 
L 179.047046 195.186842 
L 179.05611 193.080098 
L 179.265751 193.080098 
L 179.36235 192.026726 
L 179.418117 192.026726 
L 179.504245 190.446667 
L 179.531524 190.446667 
L 179.584356 187.813237 
L 179.67603 187.813237 
L 179.67603 186.759865 
L 179.891747 186.759865 
L 179.979481 185.706493 
L 180.085424 185.706493 
L 180.14667 184.653121 
L 180.254682 184.653121 
L 180.254682 183.599748 
L 180.388763 183.599748 
L 180.474797 181.493004 
L 180.674908 181.493004 
L 180.760292 180.439632 
L 180.87646 180.439632 
L 180.983009 178.859574 
L 181.050743 178.859574 
L 181.050743 178.332888 
L 181.198547 178.332888 
L 181.221119 177.279515 
L 181.514793 177.279515 
L 181.605428 174.119399 
L 181.728138 174.119399 
L 181.77825 173.066027 
L 181.852096 173.066027 
L 181.957749 170.432596 
L 182.002336 170.432596 
L 182.107777 169.379224 
L 182.262696 169.379224 
L 182.296936 167.27248 
L 182.383606 167.27248 
L 182.484743 164.112363 
L 182.496921 164.112363 
L 182.592697 161.478933 
L 182.62831 161.478933 
L 182.721366 160.425561 
L 182.785346 160.425561 
L 182.813928 159.372189 
L 182.973259 159.372189 
L 182.994963 157.79213 
L 183.206636 157.79213 
L 183.314098 155.685386 
L 183.35149 155.685386 
L 183.393941 153.578642 
L 183.470223 153.578642 
L 183.470223 153.051956 
L 183.693929 153.051956 
L 183.755703 151.998584 
L 183.834807 151.998584 
L 183.834807 151.471897 
L 183.949683 151.471897 
L 184.038443 146.731723 
L 184.082962 146.731723 
L 184.181489 145.678351 
L 184.412073 145.678351 
L 184.491278 144.098292 
L 184.608516 144.098292 
L 184.707106 140.938176 
L 184.72259 140.938176 
L 184.808103 137.251373 
L 184.863109 137.251373 
L 184.863109 136.724687 
L 184.99723 136.724687 
L 184.997816 135.144629 
L 185.352797 135.144629 
L 185.455843 133.037885 
L 185.527614 133.037885 
L 185.578699 131.457826 
L 185.687183 131.457826 
L 185.749033 128.29771 
L 185.891573 128.29771 
L 185.950484 126.190966 
L 186.080933 126.190966 
L 186.143051 124.084221 
L 186.261176 124.084221 
L 186.370926 120.397419 
L 186.421223 120.397419 
L 186.421223 119.870733 
L 186.568572 119.870733 
L 186.601208 118.817361 
L 186.734324 118.817361 
L 186.844835 115.657244 
L 186.866433 115.657244 
L 186.932638 113.5505 
L 187.061176 113.5505 
L 187.149453 110.917069 
L 187.280007 110.917069 
L 187.32724 109.863697 
L 187.415204 109.863697 
L 187.492064 107.756953 
L 187.620592 107.756953 
L 187.691032 105.123522 
L 187.80165 105.123522 
L 187.894208 103.016778 
L 187.914049 103.016778 
L 187.995162 100.910034 
L 188.070496 100.910034 
L 188.157732 97.223231 
L 188.27758 97.223231 
L 188.325096 95.643173 
L 188.468793 95.643173 
L 188.575555 93.536429 
L 188.623219 93.536429 
L 188.729516 91.429684 
L 188.735665 91.429684 
L 188.735665 90.902998 
L 188.950932 90.902998 
L 189.023653 89.32294 
L 189.127544 89.32294 
L 189.157575 88.269568 
L 189.385051 88.269568 
L 189.4841 86.68951 
L 189.617243 86.68951 
L 189.641955 85.636137 
L 189.881406 85.636137 
L 189.982526 84.582765 
L 190.059409 84.582765 
L 190.059409 84.056079 
L 190.38856 84.056079 
L 190.38856 83.529393 
L 191.376923 83.529393 
L 191.376923 83.002707 
L 191.67594 83.002707 
L 191.67594 82.476021 
L 192.321122 82.476021 
L 192.321122 81.949335 
L 192.464536 81.949335 
L 192.464536 81.422649 
L 192.749001 81.422649 
L 192.845665 80.369277 
L 193.115202 80.369277 
L 193.115202 79.842591 
L 193.290543 79.842591 
L 193.290543 78.789218 
L 218.868345 78.789218 
L 218.974478 77.735846 
L 219.002016 77.735846 
L 219.072247 76.155788 
L 219.194642 76.155788 
L 219.294796 74.57573 
L 219.326662 74.57573 
L 219.39772 72.995672 
L 219.445258 72.995672 
L 219.539864 69.835555 
L 219.565716 69.835555 
L 219.647705 68.255497 
L 219.695769 68.255497 
L 219.794369 66.675439 
L 219.81929 66.675439 
L 219.904532 63.515322 
L 219.940599 63.515322 
L 220.02934 61.408578 
L 220.077462 61.408578 
L 220.077462 60.355206 
L 220.201977 60.355206 
L 220.310068 56.141717 
L 220.313858 56.141717 
L 220.394182 52.454914 
L 220.436318 52.454914 
L 220.517534 50.874856 
L 220.616549 50.874856 
L 220.717348 48.768112 
L 220.817342 48.768112 
L 220.906977 46.134681 
L 220.985142 46.134681 
L 221.055697 43.501251 
L 221.100628 43.501251 
L 221.209184 40.341135 
L 221.280889 40.341135 
L 221.385569 38.761076 
L 221.664354 38.761076 
L 221.664354 38.23439 
L 221.80827 38.23439 
L 221.879749 37.181018 
L 230.813289 37.181018 
L 230.813289 36.654332 
L 231.031163 36.654332 
L 231.10159 35.60096 
L 231.454136 35.60096 
L 231.454136 35.074274 
L 231.586814 35.074274 
L 231.586814 34.547588 
L 231.714348 34.547588 
L 231.81238 33.494215 
L 231.838679 33.494215 
L 231.883632 32.440843 
L 237.773987 32.440843 
L 237.780749 31.387471 
L 238.090787 31.387471 
L 238.116915 30.334099 
L 338.688 30.334099 
L 338.688 30.334099 
" style="fill:none;stroke:#ff00ff;stroke-linecap:square;stroke-width:1.5;"/>
   </g>
   <g id="line2d_36">
    <defs>
     <path d="M 0 8.485281 
L 5.091169 0 
L 0 -8.485281 
L -5.091169 0 
z
" id="m69e992b6a5" style="stroke:#ff00ff;stroke-linejoin:miter;stroke-width:1.5;"/>
    </defs>
    <g>
     <use style="fill-opacity:0;stroke:#ff00ff;stroke-linejoin:miter;stroke-width:1.5;" x="66.333161" xlink:href="#m69e992b6a5" y="297.363942"/>
     <use style="fill-opacity:0;stroke:#ff00ff;stroke-linejoin:miter;stroke-width:1.5;" x="165.391288" xlink:href="#m69e992b6a5" y="264.182719"/>
     <use style="fill-opacity:0;stroke:#ff00ff;stroke-linejoin:miter;stroke-width:1.5;" x="186.601208" xlink:href="#m69e992b6a5" y="119.344047"/>
     <use style="fill-opacity:0;stroke:#ff00ff;stroke-linejoin:miter;stroke-width:1.5;" x="238.116915" xlink:href="#m69e992b6a5" y="30.860785"/>
     <use style="fill-opacity:0;stroke:#ff00ff;stroke-linejoin:miter;stroke-width:1.5;" x="238.116915" xlink:href="#m69e992b6a5" y="30.334099"/>
     <use style="fill-opacity:0;stroke:#ff00ff;stroke-linejoin:miter;stroke-width:1.5;" x="338.688" xlink:href="#m69e992b6a5" y="30.334099"/>
    </g>
   </g>
   <g id="line2d_37">
    <path style="fill:none;stroke:#ff00ff;stroke-linecap:square;stroke-width:1.5;"/>
    <g/>
   </g>
   <g id="line2d_38">
    <path clip-path="url(#p4fdec8ba39)" d="M 218.221801 78.789218 
" style="fill:none;stroke:#ff00ff;stroke-linecap:square;stroke-width:1.5;"/>
    <defs>
     <path d="M -12 12 
L 12 -12 
M -12 -12 
L 12 12 
" id="mb3afe7de5c" style="stroke:#ff00ff;"/>
    </defs>
    <g clip-path="url(#p4fdec8ba39)">
     <use style="fill:#ff00ff;stroke:#ff00ff;" x="218.221801" xlink:href="#mb3afe7de5c" y="78.789218"/>
    </g>
   </g>
   <g id="line2d_39">
    <defs>
     <path d="M 0 1.5 
C 0.397805 1.5 0.77937 1.341951 1.06066 1.06066 
C 1.341951 0.77937 1.5 0.397805 1.5 0 
C 1.5 -0.397805 1.341951 -0.77937 1.06066 -1.06066 
C 0.77937 -1.341951 0.397805 -1.5 0 -1.5 
C -0.397805 -1.5 -0.77937 -1.341951 -1.06066 -1.06066 
C -1.341951 -0.77937 -1.5 -0.397805 -1.5 0 
C -1.5 0.397805 -1.341951 0.77937 -1.06066 1.06066 
C -0.77937 1.341951 -0.397805 1.5 0 1.5 
z
" id="me80c3dbbd4" style="stroke:#ff7500;"/>
    </defs>
    <g>
     <use style="fill:#ff7500;stroke:#ff7500;" x="208.637217" xlink:href="#me80c3dbbd4" y="288.410278"/>
     <use style="fill:#ff7500;stroke:#ff7500;" x="208.637217" xlink:href="#me80c3dbbd4" y="288.410278"/>
    </g>
   </g>
   <g id="line2d_40">
    <path d="M 65.242851 298.944 
L 65.242851 298.417314 
L 77.330839 298.417314 
L 77.330839 297.890628 
L 79.196356 297.890628 
L 79.196356 297.363942 
L 84.213325 297.363942 
L 84.213325 296.837256 
L 85.492169 296.837256 
L 85.492169 296.31057 
L 87.952479 296.31057 
L 87.952479 295.783884 
L 89.277618 295.783884 
L 89.277618 295.257197 
L 101.854917 295.257197 
L 101.854917 294.730511 
L 106.114686 294.730511 
L 106.114686 294.203825 
L 122.276749 294.203825 
L 122.276749 293.677139 
L 125.219619 293.677139 
L 125.219619 293.150453 
L 126.690335 293.150453 
L 126.690335 292.623767 
L 138.918797 292.623767 
L 138.918797 292.097081 
L 174.769492 292.097081 
L 174.769492 291.570395 
L 182.715356 291.570395 
L 182.715356 291.043709 
L 191.549222 291.043709 
L 191.549222 290.517023 
L 194.007329 290.517023 
L 194.007329 289.990337 
L 194.33937 289.990337 
L 194.33937 289.463651 
L 207.246038 289.463651 
L 207.246038 288.936964 
L 208.637217 288.936964 
L 208.637217 288.410278 
L 338.688 288.410278 
" style="fill:none;stroke:#ff7500;stroke-linecap:square;stroke-width:1.5;"/>
   </g>
   <g id="line2d_41">
    <defs>
     <path d="M 0 -6 
L -1.347084 -1.854102 
L -5.706339 -1.854102 
L -2.179628 0.708204 
L -3.526712 4.854102 
L -0 2.291796 
L 3.526712 4.854102 
L 2.179628 0.708204 
L 5.706339 -1.854102 
L 1.347084 -1.854102 
z
" id="m1f6681ecf2" style="stroke:#ff7500;stroke-linejoin:bevel;stroke-width:1.5;"/>
    </defs>
    <g>
     <use style="fill-opacity:0;stroke:#ff7500;stroke-linejoin:bevel;stroke-width:1.5;" x="126.690335" xlink:href="#m1f6681ecf2" y="293.150453"/>
     <use style="fill-opacity:0;stroke:#ff7500;stroke-linejoin:bevel;stroke-width:1.5;" x="194.33937" xlink:href="#m1f6681ecf2" y="289.463651"/>
     <use style="fill-opacity:0;stroke:#ff7500;stroke-linejoin:bevel;stroke-width:1.5;" x="208.637217" xlink:href="#m1f6681ecf2" y="288.410278"/>
     <use style="fill-opacity:0;stroke:#ff7500;stroke-linejoin:bevel;stroke-width:1.5;" x="208.637217" xlink:href="#m1f6681ecf2" y="288.410278"/>
     <use style="fill-opacity:0;stroke:#ff7500;stroke-linejoin:bevel;stroke-width:1.5;" x="338.688" xlink:href="#m1f6681ecf2" y="288.410278"/>
    </g>
   </g>
   <g id="line2d_42">
    <path style="fill:none;stroke:#ff7500;stroke-linecap:square;stroke-width:1.5;"/>
    <g/>
   </g>
   <g id="line2d_43">
    <path clip-path="url(#p4fdec8ba39)" d="M 218.221714 288.410278 
" style="fill:none;stroke:#ff7500;stroke-linecap:square;stroke-width:1.5;"/>
    <defs>
     <path d="M -12 12 
L 12 -12 
M -12 -12 
L 12 12 
" id="m2f883d3eca" style="stroke:#ff7500;"/>
    </defs>
    <g clip-path="url(#p4fdec8ba39)">
     <use style="fill:#ff7500;stroke:#ff7500;" x="218.221714" xlink:href="#m2f883d3eca" y="288.410278"/>
    </g>
   </g>
   <g id="line2d_44">
    <defs>
     <path d="M 0 1.5 
C 0.397805 1.5 0.77937 1.341951 1.06066 1.06066 
C 1.341951 0.77937 1.5 0.397805 1.5 0 
C 1.5 -0.397805 1.341951 -0.77937 1.06066 -1.06066 
C 0.77937 -1.341951 0.397805 -1.5 0 -1.5 
C -0.397805 -1.5 -0.77937 -1.341951 -1.06066 -1.06066 
C -1.341951 -0.77937 -1.5 -0.397805 -1.5 0 
C -1.5 0.397805 -1.341951 0.77937 -1.06066 1.06066 
C -0.77937 1.341951 -0.397805 1.5 0 1.5 
z
" id="m41331861d7" style="stroke:#6495ed;"/>
    </defs>
    <g>
     <use style="fill:#6495ed;stroke:#6495ed;" x="156.918066" xlink:href="#m41331861d7" y="283.143418"/>
     <use style="fill:#6495ed;stroke:#6495ed;" x="156.918066" xlink:href="#m41331861d7" y="283.143418"/>
    </g>
   </g>
   <g id="line2d_45">
    <path d="M 59.262141 298.944 
L 59.262141 298.417314 
L 60.779557 298.417314 
L 60.779557 297.890628 
L 65.242851 297.890628 
L 65.242851 297.363942 
L 66.333161 297.363942 
L 66.333161 296.837256 
L 68.328395 296.837256 
L 68.328395 296.31057 
L 76.759008 296.31057 
L 76.759008 295.783884 
L 82.417986 295.783884 
L 82.417986 295.257197 
L 83.23881 295.257197 
L 83.23881 294.730511 
L 89.835723 294.730511 
L 89.835723 294.203825 
L 92.621809 294.203825 
L 92.621809 293.677139 
L 93.972622 293.677139 
L 93.972622 293.150453 
L 96.110718 293.150453 
L 96.110718 292.623767 
L 97.134116 292.623767 
L 97.134116 292.097081 
L 103.623262 292.097081 
L 103.623262 291.570395 
L 106.593963 291.570395 
L 106.593963 291.043709 
L 111.145147 291.043709 
L 111.145147 290.517023 
L 112.506763 290.517023 
L 112.506763 289.990337 
L 129.616397 289.990337 
L 129.616397 289.463651 
L 130.835477 289.463651 
L 130.835477 288.936964 
L 131.06939 288.936964 
L 131.06939 288.410278 
L 131.120948 288.410278 
L 131.120948 287.883592 
L 132.338714 287.883592 
L 132.338714 287.356906 
L 137.451437 287.356906 
L 137.451437 286.83022 
L 137.549637 286.83022 
L 137.549637 286.303534 
L 139.349619 286.303534 
L 139.349619 285.776848 
L 143.527762 285.776848 
L 143.527762 285.250162 
L 153.192929 285.250162 
L 153.192929 284.723476 
L 155.014724 284.723476 
L 155.014724 284.19679 
L 155.086518 284.19679 
L 155.086518 283.670104 
L 156.918066 283.670104 
L 156.918066 283.143418 
L 338.688 283.143418 
" style="fill:none;stroke:#6495ed;stroke-linecap:square;stroke-width:1.5;"/>
   </g>
   <g id="line2d_46">
    <defs>
     <path d="M -0 6 
L 6 -6 
L -6 -6 
z
" id="mbf91a9888d" style="stroke:#6495ed;stroke-linejoin:miter;stroke-width:1.5;"/>
    </defs>
    <g>
     <use style="fill-opacity:0;stroke:#6495ed;stroke-linejoin:miter;stroke-width:1.5;" x="83.23881" xlink:href="#mbf91a9888d" y="295.257197"/>
     <use style="fill-opacity:0;stroke:#6495ed;stroke-linejoin:miter;stroke-width:1.5;" x="156.918066" xlink:href="#mbf91a9888d" y="283.670104"/>
     <use style="fill-opacity:0;stroke:#6495ed;stroke-linejoin:miter;stroke-width:1.5;" x="156.918066" xlink:href="#mbf91a9888d" y="283.143418"/>
     <use style="fill-opacity:0;stroke:#6495ed;stroke-linejoin:miter;stroke-width:1.5;" x="156.918066" xlink:href="#mbf91a9888d" y="283.143418"/>
     <use style="fill-opacity:0;stroke:#6495ed;stroke-linejoin:miter;stroke-width:1.5;" x="338.688" xlink:href="#mbf91a9888d" y="283.143418"/>
    </g>
   </g>
   <g id="line2d_47">
    <path style="fill:none;stroke:#6495ed;stroke-linecap:square;stroke-width:1.5;"/>
    <g/>
   </g>
   <g id="line2d_48">
    <path clip-path="url(#p4fdec8ba39)" d="M 137.910857 286.303534 
" style="fill:none;stroke:#6495ed;stroke-linecap:square;stroke-width:1.5;"/>
    <defs>
     <path d="M -12 12 
L 12 -12 
M -12 -12 
L 12 12 
" id="m6692843ea5" style="stroke:#6495ed;"/>
    </defs>
    <g clip-path="url(#p4fdec8ba39)">
     <use style="fill:#6495ed;stroke:#6495ed;" x="137.910857" xlink:href="#m6692843ea5" y="286.303534"/>
    </g>
   </g>
   <g id="line2d_49">
    <path d="M 338.688 288.410278 
L 369.60768 293.571802 
" style="fill:none;stroke:#ff7500;stroke-linecap:square;stroke-width:1.5;"/>
    <g>
     <use style="fill-opacity:0;stroke:#ff7500;stroke-linejoin:bevel;stroke-width:1.5;" x="338.688" xlink:href="#m1f6681ecf2" y="288.410278"/>
     <use style="fill-opacity:0;stroke:#ff7500;stroke-linejoin:bevel;stroke-width:1.5;" x="369.60768" xlink:href="#m1f6681ecf2" y="293.571802"/>
    </g>
   </g>
   <g id="line2d_50">
    <path d="M 338.688 283.143418 
L 369.60768 207.616634 
" style="fill:none;stroke:#6495ed;stroke-linecap:square;stroke-width:1.5;"/>
    <g>
     <use style="fill-opacity:0;stroke:#6495ed;stroke-linejoin:miter;stroke-width:1.5;" x="338.688" xlink:href="#mbf91a9888d" y="283.143418"/>
     <use style="fill-opacity:0;stroke:#6495ed;stroke-linejoin:miter;stroke-width:1.5;" x="369.60768" xlink:href="#mbf91a9888d" y="207.616634"/>
    </g>
   </g>
   <g id="line2d_51">
    <path d="M 338.688 51.401542 
L 369.60768 121.661465 
" style="fill:none;stroke:#000080;stroke-linecap:square;stroke-width:1.5;"/>
    <g>
     <use style="fill-opacity:0;stroke:#000080;stroke-width:1.5;" x="338.688" xlink:href="#m8c12e58173" y="51.401542"/>
     <use style="fill-opacity:0;stroke:#000080;stroke-width:1.5;" x="369.60768" xlink:href="#m8c12e58173" y="121.661465"/>
    </g>
   </g>
   <g id="line2d_52">
    <path d="M 338.688 30.334099 
L 369.60768 35.706297 
" style="fill:none;stroke:#ff00ff;stroke-linecap:square;stroke-width:1.5;"/>
    <g>
     <use style="fill-opacity:0;stroke:#ff00ff;stroke-linejoin:miter;stroke-width:1.5;" x="338.688" xlink:href="#m69e992b6a5" y="30.334099"/>
     <use style="fill-opacity:0;stroke:#ff00ff;stroke-linejoin:miter;stroke-width:1.5;" x="369.60768" xlink:href="#m69e992b6a5" y="35.706297"/>
    </g>
   </g>
   <g id="line2d_53">
    <path d="M 338.688 298.944 
L 338.688 30.334099 
" style="fill:none;stroke:#000000;stroke-linecap:square;stroke-width:1.5;"/>
   </g>
   <g id="patch_3">
    <path d="M 57.6 298.944 
L 57.6 27.648 
" style="fill:none;stroke:#000000;stroke-linecap:square;stroke-linejoin:miter;stroke-width:0.8;"/>
   </g>
   <g id="patch_4">
    <path d="M 338.688 298.944 
L 338.688 27.648 
" style="fill:none;stroke:#000000;stroke-linecap:square;stroke-linejoin:miter;stroke-width:0.8;"/>
   </g>
   <g id="patch_5">
    <path d="M 57.6 298.944 
L 338.688 298.944 
" style="fill:none;stroke:#000000;stroke-linecap:square;stroke-linejoin:miter;stroke-width:0.8;"/>
   </g>
   <g id="patch_6">
    <path d="M 57.6 27.648 
L 338.688 27.648 
" style="fill:none;stroke:#000000;stroke-linecap:square;stroke-linejoin:miter;stroke-width:0.8;"/>
   </g>
   <g id="text_13">
    <!-- RANDOMSEA -->
    <g transform="translate(375.22944 298.262739)scale(0.17 -0.17)">
     <defs>
      <path d="M 2841 2188 
Q 3044 2119 3236 1894 
Q 3428 1669 3622 1275 
L 4263 0 
L 3584 0 
L 2988 1197 
Q 2756 1666 2539 1819 
Q 2322 1972 1947 1972 
L 1259 1972 
L 1259 0 
L 628 0 
L 628 4666 
L 2053 4666 
Q 2853 4666 3247 4331 
Q 3641 3997 3641 3322 
Q 3641 2881 3436 2590 
Q 3231 2300 2841 2188 
z
M 1259 4147 
L 1259 2491 
L 2053 2491 
Q 2509 2491 2742 2702 
Q 2975 2913 2975 3322 
Q 2975 3731 2742 3939 
Q 2509 4147 2053 4147 
L 1259 4147 
z
" id="DejaVuSans-52" transform="scale(0.015625)"/>
      <path d="M 2188 4044 
L 1331 1722 
L 3047 1722 
L 2188 4044 
z
M 1831 4666 
L 2547 4666 
L 4325 0 
L 3669 0 
L 3244 1197 
L 1141 1197 
L 716 0 
L 50 0 
L 1831 4666 
z
" id="DejaVuSans-41" transform="scale(0.015625)"/>
      <path d="M 628 4666 
L 1478 4666 
L 3547 763 
L 3547 4666 
L 4159 4666 
L 4159 0 
L 3309 0 
L 1241 3903 
L 1241 0 
L 628 0 
L 628 4666 
z
" id="DejaVuSans-4e" transform="scale(0.015625)"/>
      <path d="M 1259 4147 
L 1259 519 
L 2022 519 
Q 2988 519 3436 956 
Q 3884 1394 3884 2338 
Q 3884 3275 3436 3711 
Q 2988 4147 2022 4147 
L 1259 4147 
z
M 628 4666 
L 1925 4666 
Q 3281 4666 3915 4102 
Q 4550 3538 4550 2338 
Q 4550 1131 3912 565 
Q 3275 0 1925 0 
L 628 0 
L 628 4666 
z
" id="DejaVuSans-44" transform="scale(0.015625)"/>
      <path d="M 2522 4238 
Q 1834 4238 1429 3725 
Q 1025 3213 1025 2328 
Q 1025 1447 1429 934 
Q 1834 422 2522 422 
Q 3209 422 3611 934 
Q 4013 1447 4013 2328 
Q 4013 3213 3611 3725 
Q 3209 4238 2522 4238 
z
M 2522 4750 
Q 3503 4750 4090 4092 
Q 4678 3434 4678 2328 
Q 4678 1225 4090 567 
Q 3503 -91 2522 -91 
Q 1538 -91 948 565 
Q 359 1222 359 2328 
Q 359 3434 948 4092 
Q 1538 4750 2522 4750 
z
" id="DejaVuSans-4f" transform="scale(0.015625)"/>
      <path d="M 628 4666 
L 1569 4666 
L 2759 1491 
L 3956 4666 
L 4897 4666 
L 4897 0 
L 4281 0 
L 4281 4097 
L 3078 897 
L 2444 897 
L 1241 4097 
L 1241 0 
L 628 0 
L 628 4666 
z
" id="DejaVuSans-4d" transform="scale(0.015625)"/>
      <path d="M 3425 4513 
L 3425 3897 
Q 3066 4069 2747 4153 
Q 2428 4238 2131 4238 
Q 1616 4238 1336 4038 
Q 1056 3838 1056 3469 
Q 1056 3159 1242 3001 
Q 1428 2844 1947 2747 
L 2328 2669 
Q 3034 2534 3370 2195 
Q 3706 1856 3706 1288 
Q 3706 609 3251 259 
Q 2797 -91 1919 -91 
Q 1588 -91 1214 -16 
Q 841 59 441 206 
L 441 856 
Q 825 641 1194 531 
Q 1563 422 1919 422 
Q 2459 422 2753 634 
Q 3047 847 3047 1241 
Q 3047 1584 2836 1778 
Q 2625 1972 2144 2069 
L 1759 2144 
Q 1053 2284 737 2584 
Q 422 2884 422 3419 
Q 422 4038 858 4394 
Q 1294 4750 2059 4750 
Q 2388 4750 2728 4690 
Q 3069 4631 3425 4513 
z
" id="DejaVuSans-53" transform="scale(0.015625)"/>
      <path d="M 628 4666 
L 3578 4666 
L 3578 4134 
L 1259 4134 
L 1259 2753 
L 3481 2753 
L 3481 2222 
L 1259 2222 
L 1259 531 
L 3634 531 
L 3634 0 
L 628 0 
L 628 4666 
z
" id="DejaVuSans-45" transform="scale(0.015625)"/>
     </defs>
     <use xlink:href="#DejaVuSans-52"/>
     <use x="65.482422" xlink:href="#DejaVuSans-41"/>
     <use x="133.890625" xlink:href="#DejaVuSans-4e"/>
     <use x="208.695312" xlink:href="#DejaVuSans-44"/>
     <use x="285.697266" xlink:href="#DejaVuSans-4f"/>
     <use x="364.408203" xlink:href="#DejaVuSans-4d"/>
     <use x="450.6875" xlink:href="#DejaVuSans-53"/>
     <use x="514.164062" xlink:href="#DejaVuSans-45"/>
     <use x="577.347656" xlink:href="#DejaVuSans-41"/>
    </g>
   </g>
   <g id="text_14">
    <!-- TPE-hyper -->
    <g transform="translate(375.22944 212.307571)scale(0.17 -0.17)">
     <defs>
      <path d="M -19 4666 
L 3928 4666 
L 3928 4134 
L 2272 4134 
L 2272 0 
L 1638 0 
L 1638 4134 
L -19 4134 
L -19 4666 
z
" id="DejaVuSans-54" transform="scale(0.015625)"/>
      <path d="M 1259 4147 
L 1259 2394 
L 2053 2394 
Q 2494 2394 2734 2622 
Q 2975 2850 2975 3272 
Q 2975 3691 2734 3919 
Q 2494 4147 2053 4147 
L 1259 4147 
z
M 628 4666 
L 2053 4666 
Q 2838 4666 3239 4311 
Q 3641 3956 3641 3272 
Q 3641 2581 3239 2228 
Q 2838 1875 2053 1875 
L 1259 1875 
L 1259 0 
L 628 0 
L 628 4666 
z
" id="DejaVuSans-50" transform="scale(0.015625)"/>
      <path d="M 3513 2113 
L 3513 0 
L 2938 0 
L 2938 2094 
Q 2938 2591 2744 2837 
Q 2550 3084 2163 3084 
Q 1697 3084 1428 2787 
Q 1159 2491 1159 1978 
L 1159 0 
L 581 0 
L 581 4863 
L 1159 4863 
L 1159 2956 
Q 1366 3272 1645 3428 
Q 1925 3584 2291 3584 
Q 2894 3584 3203 3211 
Q 3513 2838 3513 2113 
z
" id="DejaVuSans-68" transform="scale(0.015625)"/>
      <path d="M 2059 -325 
Q 1816 -950 1584 -1140 
Q 1353 -1331 966 -1331 
L 506 -1331 
L 506 -850 
L 844 -850 
Q 1081 -850 1212 -737 
Q 1344 -625 1503 -206 
L 1606 56 
L 191 3500 
L 800 3500 
L 1894 763 
L 2988 3500 
L 3597 3500 
L 2059 -325 
z
" id="DejaVuSans-79" transform="scale(0.015625)"/>
     </defs>
     <use xlink:href="#DejaVuSans-54"/>
     <use x="61.083984" xlink:href="#DejaVuSans-50"/>
     <use x="121.386719" xlink:href="#DejaVuSans-45"/>
     <use x="184.570312" xlink:href="#DejaVuSans-2d"/>
     <use x="220.654297" xlink:href="#DejaVuSans-68"/>
     <use x="284.033203" xlink:href="#DejaVuSans-79"/>
     <use x="343.212891" xlink:href="#DejaVuSans-70"/>
     <use x="406.689453" xlink:href="#DejaVuSans-65"/>
     <use x="468.212891" xlink:href="#DejaVuSans-72"/>
    </g>
   </g>
   <g id="text_15">
    <!-- CMA-ES-py -->
    <g transform="translate(375.22944 126.352403)scale(0.17 -0.17)">
     <defs>
      <path d="M 4122 4306 
L 4122 3641 
Q 3803 3938 3442 4084 
Q 3081 4231 2675 4231 
Q 1875 4231 1450 3742 
Q 1025 3253 1025 2328 
Q 1025 1406 1450 917 
Q 1875 428 2675 428 
Q 3081 428 3442 575 
Q 3803 722 4122 1019 
L 4122 359 
Q 3791 134 3420 21 
Q 3050 -91 2638 -91 
Q 1578 -91 968 557 
Q 359 1206 359 2328 
Q 359 3453 968 4101 
Q 1578 4750 2638 4750 
Q 3056 4750 3426 4639 
Q 3797 4528 4122 4306 
z
" id="DejaVuSans-43" transform="scale(0.015625)"/>
     </defs>
     <use xlink:href="#DejaVuSans-43"/>
     <use x="69.824219" xlink:href="#DejaVuSans-4d"/>
     <use x="156.103516" xlink:href="#DejaVuSans-41"/>
     <use x="222.261719" xlink:href="#DejaVuSans-2d"/>
     <use x="258.345703" xlink:href="#DejaVuSans-45"/>
     <use x="321.529297" xlink:href="#DejaVuSans-53"/>
     <use x="385.005859" xlink:href="#DejaVuSans-2d"/>
     <use x="421.089844" xlink:href="#DejaVuSans-70"/>
     <use x="484.566406" xlink:href="#DejaVuSans-79"/>
    </g>
   </g>
   <g id="text_16">
    <!-- DE-scipy -->
    <g transform="translate(375.22944 40.397235)scale(0.17 -0.17)">
     <use xlink:href="#DejaVuSans-44"/>
     <use x="77.001953" xlink:href="#DejaVuSans-45"/>
     <use x="140.185547" xlink:href="#DejaVuSans-2d"/>
     <use x="176.269531" xlink:href="#DejaVuSans-73"/>
     <use x="228.369141" xlink:href="#DejaVuSans-63"/>
     <use x="283.349609" xlink:href="#DejaVuSans-69"/>
     <use x="311.132812" xlink:href="#DejaVuSans-70"/>
     <use x="374.609375" xlink:href="#DejaVuSans-79"/>
    </g>
   </g>
   <g id="text_17">
    <!-- bbob-mixint f17, 20-D -->
    <g transform="translate(60.41088 38.111366)scale(0.102 -0.102)">
     <defs>
      <path d="M 3116 1747 
Q 3116 2381 2855 2742 
Q 2594 3103 2138 3103 
Q 1681 3103 1420 2742 
Q 1159 2381 1159 1747 
Q 1159 1113 1420 752 
Q 1681 391 2138 391 
Q 2594 391 2855 752 
Q 3116 1113 3116 1747 
z
M 1159 2969 
Q 1341 3281 1617 3432 
Q 1894 3584 2278 3584 
Q 2916 3584 3314 3078 
Q 3713 2572 3713 1747 
Q 3713 922 3314 415 
Q 2916 -91 2278 -91 
Q 1894 -91 1617 61 
Q 1341 213 1159 525 
L 1159 0 
L 581 0 
L 581 4863 
L 1159 4863 
L 1159 2969 
z
" id="DejaVuSans-62" transform="scale(0.015625)"/>
      <path d="M 3513 3500 
L 2247 1797 
L 3578 0 
L 2900 0 
L 1881 1375 
L 863 0 
L 184 0 
L 1544 1831 
L 300 3500 
L 978 3500 
L 1906 2253 
L 2834 3500 
L 3513 3500 
z
" id="DejaVuSans-78" transform="scale(0.015625)"/>
      <path d="M 525 4666 
L 3525 4666 
L 3525 4397 
L 1831 0 
L 1172 0 
L 2766 4134 
L 525 4134 
L 525 4666 
z
" id="DejaVuSans-37" transform="scale(0.015625)"/>
     </defs>
     <use xlink:href="#DejaVuSans-62"/>
     <use x="63.476562" xlink:href="#DejaVuSans-62"/>
     <use x="126.953125" xlink:href="#DejaVuSans-6f"/>
     <use x="188.134766" xlink:href="#DejaVuSans-62"/>
     <use x="251.611328" xlink:href="#DejaVuSans-2d"/>
     <use x="287.695312" xlink:href="#DejaVuSans-6d"/>
     <use x="385.107422" xlink:href="#DejaVuSans-69"/>
     <use x="412.890625" xlink:href="#DejaVuSans-78"/>
     <use x="472.070312" xlink:href="#DejaVuSans-69"/>
     <use x="499.853516" xlink:href="#DejaVuSans-6e"/>
     <use x="563.232422" xlink:href="#DejaVuSans-74"/>
     <use x="602.441406" xlink:href="#DejaVuSans-20"/>
     <use x="634.228516" xlink:href="#DejaVuSans-66"/>
     <use x="669.433594" xlink:href="#DejaVuSans-31"/>
     <use x="733.056641" xlink:href="#DejaVuSans-37"/>
     <use x="796.679688" xlink:href="#DejaVuSans-2c"/>
     <use x="828.466797" xlink:href="#DejaVuSans-20"/>
     <use x="860.253906" xlink:href="#DejaVuSans-32"/>
     <use x="923.876953" xlink:href="#DejaVuSans-30"/>
     <use x="987.5" xlink:href="#DejaVuSans-2d"/>
     <use x="1023.583984" xlink:href="#DejaVuSans-44"/>
    </g>
    <!-- 51 targets: 100..1e-08 -->
    <g transform="translate(60.41088 49.533135)scale(0.102 -0.102)">
     <defs>
      <path d="M 691 4666 
L 3169 4666 
L 3169 4134 
L 1269 4134 
L 1269 2991 
Q 1406 3038 1543 3061 
Q 1681 3084 1819 3084 
Q 2600 3084 3056 2656 
Q 3513 2228 3513 1497 
Q 3513 744 3044 326 
Q 2575 -91 1722 -91 
Q 1428 -91 1123 -41 
Q 819 9 494 109 
L 494 744 
Q 775 591 1075 516 
Q 1375 441 1709 441 
Q 2250 441 2565 725 
Q 2881 1009 2881 1497 
Q 2881 1984 2565 2268 
Q 2250 2553 1709 2553 
Q 1456 2553 1204 2497 
Q 953 2441 691 2322 
L 691 4666 
z
" id="DejaVuSans-35" transform="scale(0.015625)"/>
      <path d="M 750 794 
L 1409 794 
L 1409 0 
L 750 0 
L 750 794 
z
M 750 3309 
L 1409 3309 
L 1409 2516 
L 750 2516 
L 750 3309 
z
" id="DejaVuSans-3a" transform="scale(0.015625)"/>
     </defs>
     <use xlink:href="#DejaVuSans-35"/>
     <use x="63.623047" xlink:href="#DejaVuSans-31"/>
     <use x="127.246094" xlink:href="#DejaVuSans-20"/>
     <use x="159.033203" xlink:href="#DejaVuSans-74"/>
     <use x="198.242188" xlink:href="#DejaVuSans-61"/>
     <use x="259.521484" xlink:href="#DejaVuSans-72"/>
     <use x="298.884766" xlink:href="#DejaVuSans-67"/>
     <use x="362.361328" xlink:href="#DejaVuSans-65"/>
     <use x="423.884766" xlink:href="#DejaVuSans-74"/>
     <use x="463.09375" xlink:href="#DejaVuSans-73"/>
     <use x="515.193359" xlink:href="#DejaVuSans-3a"/>
     <use x="548.884766" xlink:href="#DejaVuSans-20"/>
     <use x="580.671875" xlink:href="#DejaVuSans-31"/>
     <use x="644.294922" xlink:href="#DejaVuSans-30"/>
     <use x="707.917969" xlink:href="#DejaVuSans-30"/>
     <use x="771.541016" xlink:href="#DejaVuSans-2e"/>
     <use x="803.328125" xlink:href="#DejaVuSans-2e"/>
     <use x="835.115234" xlink:href="#DejaVuSans-31"/>
     <use x="898.738281" xlink:href="#DejaVuSans-65"/>
     <use x="960.261719" xlink:href="#DejaVuSans-2d"/>
     <use x="996.345703" xlink:href="#DejaVuSans-30"/>
     <use x="1059.96875" xlink:href="#DejaVuSans-38"/>
    </g>
    <!-- 15 instances -->
    <g transform="translate(60.41088 60.954904)scale(0.102 -0.102)">
     <use xlink:href="#DejaVuSans-31"/>
     <use x="63.623047" xlink:href="#DejaVuSans-35"/>
     <use x="127.246094" xlink:href="#DejaVuSans-20"/>
     <use x="159.033203" xlink:href="#DejaVuSans-69"/>
     <use x="186.816406" xlink:href="#DejaVuSans-6e"/>
     <use x="250.195312" xlink:href="#DejaVuSans-73"/>
     <use x="302.294922" xlink:href="#DejaVuSans-74"/>
     <use x="341.503906" xlink:href="#DejaVuSans-61"/>
     <use x="402.783203" xlink:href="#DejaVuSans-6e"/>
     <use x="466.162109" xlink:href="#DejaVuSans-63"/>
     <use x="521.142578" xlink:href="#DejaVuSans-65"/>
     <use x="582.666016" xlink:href="#DejaVuSans-73"/>
    </g>
   </g>
   <g id="text_18">
    <!-- v2.4.1.1 -->
    <g style="fill:#808080;" transform="translate(177.692437 294.151352)scale(0.1 -0.1)">
     <use xlink:href="#DejaVuSans-76"/>
     <use x="59.179688" xlink:href="#DejaVuSans-32"/>
     <use x="122.802734" xlink:href="#DejaVuSans-2e"/>
     <use x="154.589844" xlink:href="#DejaVuSans-34"/>
     <use x="218.212891" xlink:href="#DejaVuSans-2e"/>
     <use x="250" xlink:href="#DejaVuSans-31"/>
     <use x="313.623047" xlink:href="#DejaVuSans-2e"/>
     <use x="345.410156" xlink:href="#DejaVuSans-31"/>
    </g>
   </g>
   <g id="text_19">
    <!-- 17 Schaffer F7, condition 10 -->
    <g transform="translate(56.836187 21.648)scale(0.2 -0.2)">
     <use xlink:href="#DejaVuSans-31"/>
     <use x="63.623047" xlink:href="#DejaVuSans-37"/>
     <use x="127.246094" xlink:href="#DejaVuSans-20"/>
     <use x="159.033203" xlink:href="#DejaVuSans-53"/>
     <use x="222.509766" xlink:href="#DejaVuSans-63"/>
     <use x="277.490234" xlink:href="#DejaVuSans-68"/>
     <use x="340.869141" xlink:href="#DejaVuSans-61"/>
     <use x="402.148438" xlink:href="#DejaVuSans-66"/>
     <use x="437.353516" xlink:href="#DejaVuSans-66"/>
     <use x="472.558594" xlink:href="#DejaVuSans-65"/>
     <use x="534.082031" xlink:href="#DejaVuSans-72"/>
     <use x="575.195312" xlink:href="#DejaVuSans-20"/>
     <use x="606.982422" xlink:href="#DejaVuSans-46"/>
     <use x="664.501953" xlink:href="#DejaVuSans-37"/>
     <use x="728.125" xlink:href="#DejaVuSans-2c"/>
     <use x="759.912109" xlink:href="#DejaVuSans-20"/>
     <use x="791.699219" xlink:href="#DejaVuSans-63"/>
     <use x="846.679688" xlink:href="#DejaVuSans-6f"/>
     <use x="907.861328" xlink:href="#DejaVuSans-6e"/>
     <use x="971.240234" xlink:href="#DejaVuSans-64"/>
     <use x="1034.716797" xlink:href="#DejaVuSans-69"/>
     <use x="1062.5" xlink:href="#DejaVuSans-74"/>
     <use x="1101.708984" xlink:href="#DejaVuSans-69"/>
     <use x="1129.492188" xlink:href="#DejaVuSans-6f"/>
     <use x="1190.673828" xlink:href="#DejaVuSans-6e"/>
     <use x="1254.052734" xlink:href="#DejaVuSans-20"/>
     <use x="1285.839844" xlink:href="#DejaVuSans-31"/>
     <use x="1349.462891" xlink:href="#DejaVuSans-30"/>
    </g>
   </g>
  </g>
 </g>
 <defs>
  <clipPath id="p4fdec8ba39">
   <rect height="271.296" width="281.088" x="57.6" y="27.648"/>
  </clipPath>
 </defs>
</svg>
