<?xml version="1.0" encoding="utf-8" standalone="no"?>
<!DOCTYPE svg PUBLIC "-//W3C//DTD SVG 1.1//EN"
  "http://www.w3.org/Graphics/SVG/1.1/DTD/svg11.dtd">
<svg height="345.6pt" version="1.1" viewBox="0 0 460.8 345.6" width="460.8pt" xmlns="http://www.w3.org/2000/svg" xmlns:xlink="http://www.w3.org/1999/xlink">
 <metadata>
  <rdf:RDF xmlns:cc="http://creativecommons.org/ns#" xmlns:dc="http://purl.org/dc/elements/1.1/" xmlns:rdf="http://www.w3.org/1999/02/22-rdf-syntax-ns#">
   <cc:Work>
    <dc:type rdf:resource="http://purl.org/dc/dcmitype/StillImage"/>
    <dc:date>2022-03-29T13:03:12.264308</dc:date>
    <dc:format>image/svg+xml</dc:format>
    <dc:creator>
     <cc:Agent>
      <dc:title>Matplotlib v3.4.3, https://matplotlib.org/</dc:title>
     </cc:Agent>
    </dc:creator>
   </cc:Work>
  </rdf:RDF>
 </metadata>
 <defs>
  <style type="text/css">*{stroke-linecap:butt;stroke-linejoin:round;}</style>
 </defs>
 <g id="figure_1">
  <g id="patch_1">
   <path d="M 0 345.6 
L 460.8 345.6 
L 460.8 0 
L 0 0 
z
" style="fill:#ffffff;"/>
  </g>
  <g id="axes_1">
   <g id="patch_2">
    <path d="M 57.6 298.944 
L 338.688 298.944 
L 338.688 27.648 
L 57.6 27.648 
z
" style="fill:#ffffff;"/>
   </g>
   <g id="matplotlib.axis_1">
    <g id="xtick_1">
     <g id="line2d_1">
      <path clip-path="url(#p7fb64dc5c4)" d="M 57.6 298.944 
L 57.6 27.648 
" style="fill:none;stroke:#b0b0b0;stroke-linecap:square;stroke-width:0.8;"/>
     </g>
     <g id="line2d_2">
      <defs>
       <path d="M 0 0 
L 0 3.5 
" id="ma95d0b4b1e" style="stroke:#000000;stroke-width:0.8;"/>
      </defs>
      <g>
       <use style="stroke:#000000;stroke-width:0.8;" x="57.6" xlink:href="#ma95d0b4b1e" y="298.944"/>
      </g>
     </g>
     <g id="text_1">
      <!-- 0 -->
      <g transform="translate(51.2375 321.140875)scale(0.2 -0.2)">
       <defs>
        <path d="M 2034 4250 
Q 1547 4250 1301 3770 
Q 1056 3291 1056 2328 
Q 1056 1369 1301 889 
Q 1547 409 2034 409 
Q 2525 409 2770 889 
Q 3016 1369 3016 2328 
Q 3016 3291 2770 3770 
Q 2525 4250 2034 4250 
z
M 2034 4750 
Q 2819 4750 3233 4129 
Q 3647 3509 3647 2328 
Q 3647 1150 3233 529 
Q 2819 -91 2034 -91 
Q 1250 -91 836 529 
Q 422 1150 422 2328 
Q 422 3509 836 4129 
Q 1250 4750 2034 4750 
z
" id="DejaVuSans-30" transform="scale(0.015625)"/>
       </defs>
       <use xlink:href="#DejaVuSans-30"/>
      </g>
     </g>
    </g>
    <g id="xtick_2">
     <g id="line2d_3">
      <path clip-path="url(#p7fb64dc5c4)" d="M 137.910857 298.944 
L 137.910857 27.648 
" style="fill:none;stroke:#b0b0b0;stroke-linecap:square;stroke-width:0.8;"/>
     </g>
     <g id="line2d_4">
      <g>
       <use style="stroke:#000000;stroke-width:0.8;" x="137.910857" xlink:href="#ma95d0b4b1e" y="298.944"/>
      </g>
     </g>
     <g id="text_2">
      <!-- 2 -->
      <g transform="translate(131.548357 321.140875)scale(0.2 -0.2)">
       <defs>
        <path d="M 1228 531 
L 3431 531 
L 3431 0 
L 469 0 
L 469 531 
Q 828 903 1448 1529 
Q 2069 2156 2228 2338 
Q 2531 2678 2651 2914 
Q 2772 3150 2772 3378 
Q 2772 3750 2511 3984 
Q 2250 4219 1831 4219 
Q 1534 4219 1204 4116 
Q 875 4013 500 3803 
L 500 4441 
Q 881 4594 1212 4672 
Q 1544 4750 1819 4750 
Q 2544 4750 2975 4387 
Q 3406 4025 3406 3419 
Q 3406 3131 3298 2873 
Q 3191 2616 2906 2266 
Q 2828 2175 2409 1742 
Q 1991 1309 1228 531 
z
" id="DejaVuSans-32" transform="scale(0.015625)"/>
       </defs>
       <use xlink:href="#DejaVuSans-32"/>
      </g>
     </g>
    </g>
    <g id="xtick_3">
     <g id="line2d_5">
      <path clip-path="url(#p7fb64dc5c4)" d="M 218.221714 298.944 
L 218.221714 27.648 
" style="fill:none;stroke:#b0b0b0;stroke-linecap:square;stroke-width:0.8;"/>
     </g>
     <g id="line2d_6">
      <g>
       <use style="stroke:#000000;stroke-width:0.8;" x="218.221714" xlink:href="#ma95d0b4b1e" y="298.944"/>
      </g>
     </g>
     <g id="text_3">
      <!-- 4 -->
      <g transform="translate(211.859214 321.140875)scale(0.2 -0.2)">
       <defs>
        <path d="M 2419 4116 
L 825 1625 
L 2419 1625 
L 2419 4116 
z
M 2253 4666 
L 3047 4666 
L 3047 1625 
L 3713 1625 
L 3713 1100 
L 3047 1100 
L 3047 0 
L 2419 0 
L 2419 1100 
L 313 1100 
L 313 1709 
L 2253 4666 
z
" id="DejaVuSans-34" transform="scale(0.015625)"/>
       </defs>
       <use xlink:href="#DejaVuSans-34"/>
      </g>
     </g>
    </g>
    <g id="xtick_4">
     <g id="line2d_7">
      <path clip-path="url(#p7fb64dc5c4)" d="M 298.532571 298.944 
L 298.532571 27.648 
" style="fill:none;stroke:#b0b0b0;stroke-linecap:square;stroke-width:0.8;"/>
     </g>
     <g id="line2d_8">
      <g>
       <use style="stroke:#000000;stroke-width:0.8;" x="298.532571" xlink:href="#ma95d0b4b1e" y="298.944"/>
      </g>
     </g>
     <g id="text_4">
      <!-- 6 -->
      <g transform="translate(292.170071 321.140875)scale(0.2 -0.2)">
       <defs>
        <path d="M 2113 2584 
Q 1688 2584 1439 2293 
Q 1191 2003 1191 1497 
Q 1191 994 1439 701 
Q 1688 409 2113 409 
Q 2538 409 2786 701 
Q 3034 994 3034 1497 
Q 3034 2003 2786 2293 
Q 2538 2584 2113 2584 
z
M 3366 4563 
L 3366 3988 
Q 3128 4100 2886 4159 
Q 2644 4219 2406 4219 
Q 1781 4219 1451 3797 
Q 1122 3375 1075 2522 
Q 1259 2794 1537 2939 
Q 1816 3084 2150 3084 
Q 2853 3084 3261 2657 
Q 3669 2231 3669 1497 
Q 3669 778 3244 343 
Q 2819 -91 2113 -91 
Q 1303 -91 875 529 
Q 447 1150 447 2328 
Q 447 3434 972 4092 
Q 1497 4750 2381 4750 
Q 2619 4750 2861 4703 
Q 3103 4656 3366 4563 
z
" id="DejaVuSans-36" transform="scale(0.015625)"/>
       </defs>
       <use xlink:href="#DejaVuSans-36"/>
      </g>
     </g>
    </g>
    <g id="xtick_5">
     <g id="line2d_9">
      <path clip-path="url(#p7fb64dc5c4)" d="M 97.755429 298.944 
L 97.755429 27.648 
" style="fill:none;stroke:#b0b0b0;stroke-linecap:square;stroke-width:0.8;"/>
     </g>
     <g id="line2d_10">
      <defs>
       <path d="M 0 0 
L 0 2 
" id="m78c7d64d81" style="stroke:#000000;stroke-width:0.6;"/>
      </defs>
      <g>
       <use style="stroke:#000000;stroke-width:0.6;" x="97.755429" xlink:href="#m78c7d64d81" y="298.944"/>
      </g>
     </g>
    </g>
    <g id="xtick_6">
     <g id="line2d_11">
      <path clip-path="url(#p7fb64dc5c4)" d="M 178.066286 298.944 
L 178.066286 27.648 
" style="fill:none;stroke:#b0b0b0;stroke-linecap:square;stroke-width:0.8;"/>
     </g>
     <g id="line2d_12">
      <g>
       <use style="stroke:#000000;stroke-width:0.6;" x="178.066286" xlink:href="#m78c7d64d81" y="298.944"/>
      </g>
     </g>
    </g>
    <g id="xtick_7">
     <g id="line2d_13">
      <path clip-path="url(#p7fb64dc5c4)" d="M 258.377143 298.944 
L 258.377143 27.648 
" style="fill:none;stroke:#b0b0b0;stroke-linecap:square;stroke-width:0.8;"/>
     </g>
     <g id="line2d_14">
      <g>
       <use style="stroke:#000000;stroke-width:0.6;" x="258.377143" xlink:href="#m78c7d64d81" y="298.944"/>
      </g>
     </g>
    </g>
    <g id="xtick_8">
     <g id="line2d_15">
      <path clip-path="url(#p7fb64dc5c4)" d="M 338.688 298.944 
L 338.688 27.648 
" style="fill:none;stroke:#b0b0b0;stroke-linecap:square;stroke-width:0.8;"/>
     </g>
     <g id="line2d_16">
      <g>
       <use style="stroke:#000000;stroke-width:0.6;" x="338.688" xlink:href="#m78c7d64d81" y="298.944"/>
      </g>
     </g>
    </g>
    <g id="text_5">
     <!-- log10(# f-evals / dimension) -->
     <g transform="translate(77.764078 342.217594)scale(0.17 -0.17)">
      <defs>
       <path d="M 603 4863 
L 1178 4863 
L 1178 0 
L 603 0 
L 603 4863 
z
" id="DejaVuSans-6c" transform="scale(0.015625)"/>
       <path d="M 1959 3097 
Q 1497 3097 1228 2736 
Q 959 2375 959 1747 
Q 959 1119 1226 758 
Q 1494 397 1959 397 
Q 2419 397 2687 759 
Q 2956 1122 2956 1747 
Q 2956 2369 2687 2733 
Q 2419 3097 1959 3097 
z
M 1959 3584 
Q 2709 3584 3137 3096 
Q 3566 2609 3566 1747 
Q 3566 888 3137 398 
Q 2709 -91 1959 -91 
Q 1206 -91 779 398 
Q 353 888 353 1747 
Q 353 2609 779 3096 
Q 1206 3584 1959 3584 
z
" id="DejaVuSans-6f" transform="scale(0.015625)"/>
       <path d="M 2906 1791 
Q 2906 2416 2648 2759 
Q 2391 3103 1925 3103 
Q 1463 3103 1205 2759 
Q 947 2416 947 1791 
Q 947 1169 1205 825 
Q 1463 481 1925 481 
Q 2391 481 2648 825 
Q 2906 1169 2906 1791 
z
M 3481 434 
Q 3481 -459 3084 -895 
Q 2688 -1331 1869 -1331 
Q 1566 -1331 1297 -1286 
Q 1028 -1241 775 -1147 
L 775 -588 
Q 1028 -725 1275 -790 
Q 1522 -856 1778 -856 
Q 2344 -856 2625 -561 
Q 2906 -266 2906 331 
L 2906 616 
Q 2728 306 2450 153 
Q 2172 0 1784 0 
Q 1141 0 747 490 
Q 353 981 353 1791 
Q 353 2603 747 3093 
Q 1141 3584 1784 3584 
Q 2172 3584 2450 3431 
Q 2728 3278 2906 2969 
L 2906 3500 
L 3481 3500 
L 3481 434 
z
" id="DejaVuSans-67" transform="scale(0.015625)"/>
       <path d="M 794 531 
L 1825 531 
L 1825 4091 
L 703 3866 
L 703 4441 
L 1819 4666 
L 2450 4666 
L 2450 531 
L 3481 531 
L 3481 0 
L 794 0 
L 794 531 
z
" id="DejaVuSans-31" transform="scale(0.015625)"/>
       <path d="M 1984 4856 
Q 1566 4138 1362 3434 
Q 1159 2731 1159 2009 
Q 1159 1288 1364 580 
Q 1569 -128 1984 -844 
L 1484 -844 
Q 1016 -109 783 600 
Q 550 1309 550 2009 
Q 550 2706 781 3412 
Q 1013 4119 1484 4856 
L 1984 4856 
z
" id="DejaVuSans-28" transform="scale(0.015625)"/>
       <path d="M 3272 2816 
L 2363 2816 
L 2100 1772 
L 3016 1772 
L 3272 2816 
z
M 2803 4594 
L 2478 3297 
L 3391 3297 
L 3719 4594 
L 4219 4594 
L 3897 3297 
L 4872 3297 
L 4872 2816 
L 3775 2816 
L 3519 1772 
L 4513 1772 
L 4513 1294 
L 3397 1294 
L 3072 0 
L 2572 0 
L 2894 1294 
L 1978 1294 
L 1656 0 
L 1153 0 
L 1478 1294 
L 494 1294 
L 494 1772 
L 1594 1772 
L 1856 2816 
L 850 2816 
L 850 3297 
L 1978 3297 
L 2297 4594 
L 2803 4594 
z
" id="DejaVuSans-23" transform="scale(0.015625)"/>
       <path id="DejaVuSans-20" transform="scale(0.015625)"/>
       <path d="M 2375 4863 
L 2375 4384 
L 1825 4384 
Q 1516 4384 1395 4259 
Q 1275 4134 1275 3809 
L 1275 3500 
L 2222 3500 
L 2222 3053 
L 1275 3053 
L 1275 0 
L 697 0 
L 697 3053 
L 147 3053 
L 147 3500 
L 697 3500 
L 697 3744 
Q 697 4328 969 4595 
Q 1241 4863 1831 4863 
L 2375 4863 
z
" id="DejaVuSans-66" transform="scale(0.015625)"/>
       <path d="M 313 2009 
L 1997 2009 
L 1997 1497 
L 313 1497 
L 313 2009 
z
" id="DejaVuSans-2d" transform="scale(0.015625)"/>
       <path d="M 3597 1894 
L 3597 1613 
L 953 1613 
Q 991 1019 1311 708 
Q 1631 397 2203 397 
Q 2534 397 2845 478 
Q 3156 559 3463 722 
L 3463 178 
Q 3153 47 2828 -22 
Q 2503 -91 2169 -91 
Q 1331 -91 842 396 
Q 353 884 353 1716 
Q 353 2575 817 3079 
Q 1281 3584 2069 3584 
Q 2775 3584 3186 3129 
Q 3597 2675 3597 1894 
z
M 3022 2063 
Q 3016 2534 2758 2815 
Q 2500 3097 2075 3097 
Q 1594 3097 1305 2825 
Q 1016 2553 972 2059 
L 3022 2063 
z
" id="DejaVuSans-65" transform="scale(0.015625)"/>
       <path d="M 191 3500 
L 800 3500 
L 1894 563 
L 2988 3500 
L 3597 3500 
L 2284 0 
L 1503 0 
L 191 3500 
z
" id="DejaVuSans-76" transform="scale(0.015625)"/>
       <path d="M 2194 1759 
Q 1497 1759 1228 1600 
Q 959 1441 959 1056 
Q 959 750 1161 570 
Q 1363 391 1709 391 
Q 2188 391 2477 730 
Q 2766 1069 2766 1631 
L 2766 1759 
L 2194 1759 
z
M 3341 1997 
L 3341 0 
L 2766 0 
L 2766 531 
Q 2569 213 2275 61 
Q 1981 -91 1556 -91 
Q 1019 -91 701 211 
Q 384 513 384 1019 
Q 384 1609 779 1909 
Q 1175 2209 1959 2209 
L 2766 2209 
L 2766 2266 
Q 2766 2663 2505 2880 
Q 2244 3097 1772 3097 
Q 1472 3097 1187 3025 
Q 903 2953 641 2809 
L 641 3341 
Q 956 3463 1253 3523 
Q 1550 3584 1831 3584 
Q 2591 3584 2966 3190 
Q 3341 2797 3341 1997 
z
" id="DejaVuSans-61" transform="scale(0.015625)"/>
       <path d="M 2834 3397 
L 2834 2853 
Q 2591 2978 2328 3040 
Q 2066 3103 1784 3103 
Q 1356 3103 1142 2972 
Q 928 2841 928 2578 
Q 928 2378 1081 2264 
Q 1234 2150 1697 2047 
L 1894 2003 
Q 2506 1872 2764 1633 
Q 3022 1394 3022 966 
Q 3022 478 2636 193 
Q 2250 -91 1575 -91 
Q 1294 -91 989 -36 
Q 684 19 347 128 
L 347 722 
Q 666 556 975 473 
Q 1284 391 1588 391 
Q 1994 391 2212 530 
Q 2431 669 2431 922 
Q 2431 1156 2273 1281 
Q 2116 1406 1581 1522 
L 1381 1569 
Q 847 1681 609 1914 
Q 372 2147 372 2553 
Q 372 3047 722 3315 
Q 1072 3584 1716 3584 
Q 2034 3584 2315 3537 
Q 2597 3491 2834 3397 
z
" id="DejaVuSans-73" transform="scale(0.015625)"/>
       <path d="M 1625 4666 
L 2156 4666 
L 531 -594 
L 0 -594 
L 1625 4666 
z
" id="DejaVuSans-2f" transform="scale(0.015625)"/>
       <path d="M 2906 2969 
L 2906 4863 
L 3481 4863 
L 3481 0 
L 2906 0 
L 2906 525 
Q 2725 213 2448 61 
Q 2172 -91 1784 -91 
Q 1150 -91 751 415 
Q 353 922 353 1747 
Q 353 2572 751 3078 
Q 1150 3584 1784 3584 
Q 2172 3584 2448 3432 
Q 2725 3281 2906 2969 
z
M 947 1747 
Q 947 1113 1208 752 
Q 1469 391 1925 391 
Q 2381 391 2643 752 
Q 2906 1113 2906 1747 
Q 2906 2381 2643 2742 
Q 2381 3103 1925 3103 
Q 1469 3103 1208 2742 
Q 947 2381 947 1747 
z
" id="DejaVuSans-64" transform="scale(0.015625)"/>
       <path d="M 603 3500 
L 1178 3500 
L 1178 0 
L 603 0 
L 603 3500 
z
M 603 4863 
L 1178 4863 
L 1178 4134 
L 603 4134 
L 603 4863 
z
" id="DejaVuSans-69" transform="scale(0.015625)"/>
       <path d="M 3328 2828 
Q 3544 3216 3844 3400 
Q 4144 3584 4550 3584 
Q 5097 3584 5394 3201 
Q 5691 2819 5691 2113 
L 5691 0 
L 5113 0 
L 5113 2094 
Q 5113 2597 4934 2840 
Q 4756 3084 4391 3084 
Q 3944 3084 3684 2787 
Q 3425 2491 3425 1978 
L 3425 0 
L 2847 0 
L 2847 2094 
Q 2847 2600 2669 2842 
Q 2491 3084 2119 3084 
Q 1678 3084 1418 2786 
Q 1159 2488 1159 1978 
L 1159 0 
L 581 0 
L 581 3500 
L 1159 3500 
L 1159 2956 
Q 1356 3278 1631 3431 
Q 1906 3584 2284 3584 
Q 2666 3584 2933 3390 
Q 3200 3197 3328 2828 
z
" id="DejaVuSans-6d" transform="scale(0.015625)"/>
       <path d="M 3513 2113 
L 3513 0 
L 2938 0 
L 2938 2094 
Q 2938 2591 2744 2837 
Q 2550 3084 2163 3084 
Q 1697 3084 1428 2787 
Q 1159 2491 1159 1978 
L 1159 0 
L 581 0 
L 581 3500 
L 1159 3500 
L 1159 2956 
Q 1366 3272 1645 3428 
Q 1925 3584 2291 3584 
Q 2894 3584 3203 3211 
Q 3513 2838 3513 2113 
z
" id="DejaVuSans-6e" transform="scale(0.015625)"/>
       <path d="M 513 4856 
L 1013 4856 
Q 1481 4119 1714 3412 
Q 1947 2706 1947 2009 
Q 1947 1309 1714 600 
Q 1481 -109 1013 -844 
L 513 -844 
Q 928 -128 1133 580 
Q 1338 1288 1338 2009 
Q 1338 2731 1133 3434 
Q 928 4138 513 4856 
z
" id="DejaVuSans-29" transform="scale(0.015625)"/>
      </defs>
      <use xlink:href="#DejaVuSans-6c"/>
      <use x="27.783203" xlink:href="#DejaVuSans-6f"/>
      <use x="88.964844" xlink:href="#DejaVuSans-67"/>
      <use x="152.441406" xlink:href="#DejaVuSans-31"/>
      <use x="216.064453" xlink:href="#DejaVuSans-30"/>
      <use x="279.6875" xlink:href="#DejaVuSans-28"/>
      <use x="318.701172" xlink:href="#DejaVuSans-23"/>
      <use x="402.490234" xlink:href="#DejaVuSans-20"/>
      <use x="434.277344" xlink:href="#DejaVuSans-66"/>
      <use x="463.982422" xlink:href="#DejaVuSans-2d"/>
      <use x="500.066406" xlink:href="#DejaVuSans-65"/>
      <use x="561.589844" xlink:href="#DejaVuSans-76"/>
      <use x="620.769531" xlink:href="#DejaVuSans-61"/>
      <use x="682.048828" xlink:href="#DejaVuSans-6c"/>
      <use x="709.832031" xlink:href="#DejaVuSans-73"/>
      <use x="761.931641" xlink:href="#DejaVuSans-20"/>
      <use x="793.71875" xlink:href="#DejaVuSans-2f"/>
      <use x="827.410156" xlink:href="#DejaVuSans-20"/>
      <use x="859.197266" xlink:href="#DejaVuSans-64"/>
      <use x="922.673828" xlink:href="#DejaVuSans-69"/>
      <use x="950.457031" xlink:href="#DejaVuSans-6d"/>
      <use x="1047.869141" xlink:href="#DejaVuSans-65"/>
      <use x="1109.392578" xlink:href="#DejaVuSans-6e"/>
      <use x="1172.771484" xlink:href="#DejaVuSans-73"/>
      <use x="1224.871094" xlink:href="#DejaVuSans-69"/>
      <use x="1252.654297" xlink:href="#DejaVuSans-6f"/>
      <use x="1313.835938" xlink:href="#DejaVuSans-6e"/>
      <use x="1377.214844" xlink:href="#DejaVuSans-29"/>
     </g>
    </g>
   </g>
   <g id="matplotlib.axis_2">
    <g id="ytick_1">
     <g id="line2d_17">
      <path clip-path="url(#p7fb64dc5c4)" d="M 57.6 298.944 
L 338.688 298.944 
" style="fill:none;stroke:#b0b0b0;stroke-linecap:square;stroke-width:0.8;"/>
     </g>
     <g id="line2d_18">
      <defs>
       <path d="M 0 0 
L -3.5 0 
" id="m5e70a6d065" style="stroke:#000000;stroke-width:0.8;"/>
      </defs>
      <g>
       <use style="stroke:#000000;stroke-width:0.8;" x="57.6" xlink:href="#m5e70a6d065" y="298.944"/>
      </g>
     </g>
     <g id="text_6">
      <!-- 0.0 -->
      <g transform="translate(25.155 305.02275)scale(0.16 -0.16)">
       <defs>
        <path d="M 684 794 
L 1344 794 
L 1344 0 
L 684 0 
L 684 794 
z
" id="DejaVuSans-2e" transform="scale(0.015625)"/>
       </defs>
       <use xlink:href="#DejaVuSans-30"/>
       <use x="63.623047" xlink:href="#DejaVuSans-2e"/>
       <use x="95.410156" xlink:href="#DejaVuSans-30"/>
      </g>
     </g>
    </g>
    <g id="ytick_2">
     <g id="line2d_19">
      <path clip-path="url(#p7fb64dc5c4)" d="M 57.6 245.22202 
L 338.688 245.22202 
" style="fill:none;stroke:#b0b0b0;stroke-linecap:square;stroke-width:0.8;"/>
     </g>
     <g id="line2d_20">
      <g>
       <use style="stroke:#000000;stroke-width:0.8;" x="57.6" xlink:href="#m5e70a6d065" y="245.22202"/>
      </g>
     </g>
     <g id="text_7">
      <!-- 0.2 -->
      <g transform="translate(25.155 251.30077)scale(0.16 -0.16)">
       <use xlink:href="#DejaVuSans-30"/>
       <use x="63.623047" xlink:href="#DejaVuSans-2e"/>
       <use x="95.410156" xlink:href="#DejaVuSans-32"/>
      </g>
     </g>
    </g>
    <g id="ytick_3">
     <g id="line2d_21">
      <path clip-path="url(#p7fb64dc5c4)" d="M 57.6 191.50004 
L 338.688 191.50004 
" style="fill:none;stroke:#b0b0b0;stroke-linecap:square;stroke-width:0.8;"/>
     </g>
     <g id="line2d_22">
      <g>
       <use style="stroke:#000000;stroke-width:0.8;" x="57.6" xlink:href="#m5e70a6d065" y="191.50004"/>
      </g>
     </g>
     <g id="text_8">
      <!-- 0.4 -->
      <g transform="translate(25.155 197.57879)scale(0.16 -0.16)">
       <use xlink:href="#DejaVuSans-30"/>
       <use x="63.623047" xlink:href="#DejaVuSans-2e"/>
       <use x="95.410156" xlink:href="#DejaVuSans-34"/>
      </g>
     </g>
    </g>
    <g id="ytick_4">
     <g id="line2d_23">
      <path clip-path="url(#p7fb64dc5c4)" d="M 57.6 137.778059 
L 338.688 137.778059 
" style="fill:none;stroke:#b0b0b0;stroke-linecap:square;stroke-width:0.8;"/>
     </g>
     <g id="line2d_24">
      <g>
       <use style="stroke:#000000;stroke-width:0.8;" x="57.6" xlink:href="#m5e70a6d065" y="137.778059"/>
      </g>
     </g>
     <g id="text_9">
      <!-- 0.6 -->
      <g transform="translate(25.155 143.856809)scale(0.16 -0.16)">
       <use xlink:href="#DejaVuSans-30"/>
       <use x="63.623047" xlink:href="#DejaVuSans-2e"/>
       <use x="95.410156" xlink:href="#DejaVuSans-36"/>
      </g>
     </g>
    </g>
    <g id="ytick_5">
     <g id="line2d_25">
      <path clip-path="url(#p7fb64dc5c4)" d="M 57.6 84.056079 
L 338.688 84.056079 
" style="fill:none;stroke:#b0b0b0;stroke-linecap:square;stroke-width:0.8;"/>
     </g>
     <g id="line2d_26">
      <g>
       <use style="stroke:#000000;stroke-width:0.8;" x="57.6" xlink:href="#m5e70a6d065" y="84.056079"/>
      </g>
     </g>
     <g id="text_10">
      <!-- 0.8 -->
      <g transform="translate(25.155 90.134829)scale(0.16 -0.16)">
       <defs>
        <path d="M 2034 2216 
Q 1584 2216 1326 1975 
Q 1069 1734 1069 1313 
Q 1069 891 1326 650 
Q 1584 409 2034 409 
Q 2484 409 2743 651 
Q 3003 894 3003 1313 
Q 3003 1734 2745 1975 
Q 2488 2216 2034 2216 
z
M 1403 2484 
Q 997 2584 770 2862 
Q 544 3141 544 3541 
Q 544 4100 942 4425 
Q 1341 4750 2034 4750 
Q 2731 4750 3128 4425 
Q 3525 4100 3525 3541 
Q 3525 3141 3298 2862 
Q 3072 2584 2669 2484 
Q 3125 2378 3379 2068 
Q 3634 1759 3634 1313 
Q 3634 634 3220 271 
Q 2806 -91 2034 -91 
Q 1263 -91 848 271 
Q 434 634 434 1313 
Q 434 1759 690 2068 
Q 947 2378 1403 2484 
z
M 1172 3481 
Q 1172 3119 1398 2916 
Q 1625 2713 2034 2713 
Q 2441 2713 2670 2916 
Q 2900 3119 2900 3481 
Q 2900 3844 2670 4047 
Q 2441 4250 2034 4250 
Q 1625 4250 1398 4047 
Q 1172 3844 1172 3481 
z
" id="DejaVuSans-38" transform="scale(0.015625)"/>
       </defs>
       <use xlink:href="#DejaVuSans-30"/>
       <use x="63.623047" xlink:href="#DejaVuSans-2e"/>
       <use x="95.410156" xlink:href="#DejaVuSans-38"/>
      </g>
     </g>
    </g>
    <g id="ytick_6">
     <g id="line2d_27">
      <path clip-path="url(#p7fb64dc5c4)" d="M 57.6 30.334099 
L 338.688 30.334099 
" style="fill:none;stroke:#b0b0b0;stroke-linecap:square;stroke-width:0.8;"/>
     </g>
     <g id="line2d_28">
      <g>
       <use style="stroke:#000000;stroke-width:0.8;" x="57.6" xlink:href="#m5e70a6d065" y="30.334099"/>
      </g>
     </g>
     <g id="text_11">
      <!-- 1.0 -->
      <g transform="translate(25.155 36.412849)scale(0.16 -0.16)">
       <use xlink:href="#DejaVuSans-31"/>
       <use x="63.623047" xlink:href="#DejaVuSans-2e"/>
       <use x="95.410156" xlink:href="#DejaVuSans-30"/>
      </g>
     </g>
    </g>
    <g id="text_12">
     <!-- Fraction of function,target pairs -->
     <g transform="translate(17.619531 297.681)rotate(-90)scale(0.17 -0.17)">
      <defs>
       <path d="M 628 4666 
L 3309 4666 
L 3309 4134 
L 1259 4134 
L 1259 2759 
L 3109 2759 
L 3109 2228 
L 1259 2228 
L 1259 0 
L 628 0 
L 628 4666 
z
" id="DejaVuSans-46" transform="scale(0.015625)"/>
       <path d="M 2631 2963 
Q 2534 3019 2420 3045 
Q 2306 3072 2169 3072 
Q 1681 3072 1420 2755 
Q 1159 2438 1159 1844 
L 1159 0 
L 581 0 
L 581 3500 
L 1159 3500 
L 1159 2956 
Q 1341 3275 1631 3429 
Q 1922 3584 2338 3584 
Q 2397 3584 2469 3576 
Q 2541 3569 2628 3553 
L 2631 2963 
z
" id="DejaVuSans-72" transform="scale(0.015625)"/>
       <path d="M 3122 3366 
L 3122 2828 
Q 2878 2963 2633 3030 
Q 2388 3097 2138 3097 
Q 1578 3097 1268 2742 
Q 959 2388 959 1747 
Q 959 1106 1268 751 
Q 1578 397 2138 397 
Q 2388 397 2633 464 
Q 2878 531 3122 666 
L 3122 134 
Q 2881 22 2623 -34 
Q 2366 -91 2075 -91 
Q 1284 -91 818 406 
Q 353 903 353 1747 
Q 353 2603 823 3093 
Q 1294 3584 2113 3584 
Q 2378 3584 2631 3529 
Q 2884 3475 3122 3366 
z
" id="DejaVuSans-63" transform="scale(0.015625)"/>
       <path d="M 1172 4494 
L 1172 3500 
L 2356 3500 
L 2356 3053 
L 1172 3053 
L 1172 1153 
Q 1172 725 1289 603 
Q 1406 481 1766 481 
L 2356 481 
L 2356 0 
L 1766 0 
Q 1100 0 847 248 
Q 594 497 594 1153 
L 594 3053 
L 172 3053 
L 172 3500 
L 594 3500 
L 594 4494 
L 1172 4494 
z
" id="DejaVuSans-74" transform="scale(0.015625)"/>
       <path d="M 544 1381 
L 544 3500 
L 1119 3500 
L 1119 1403 
Q 1119 906 1312 657 
Q 1506 409 1894 409 
Q 2359 409 2629 706 
Q 2900 1003 2900 1516 
L 2900 3500 
L 3475 3500 
L 3475 0 
L 2900 0 
L 2900 538 
Q 2691 219 2414 64 
Q 2138 -91 1772 -91 
Q 1169 -91 856 284 
Q 544 659 544 1381 
z
M 1991 3584 
L 1991 3584 
z
" id="DejaVuSans-75" transform="scale(0.015625)"/>
       <path d="M 750 794 
L 1409 794 
L 1409 256 
L 897 -744 
L 494 -744 
L 750 256 
L 750 794 
z
" id="DejaVuSans-2c" transform="scale(0.015625)"/>
       <path d="M 1159 525 
L 1159 -1331 
L 581 -1331 
L 581 3500 
L 1159 3500 
L 1159 2969 
Q 1341 3281 1617 3432 
Q 1894 3584 2278 3584 
Q 2916 3584 3314 3078 
Q 3713 2572 3713 1747 
Q 3713 922 3314 415 
Q 2916 -91 2278 -91 
Q 1894 -91 1617 61 
Q 1341 213 1159 525 
z
M 3116 1747 
Q 3116 2381 2855 2742 
Q 2594 3103 2138 3103 
Q 1681 3103 1420 2742 
Q 1159 2381 1159 1747 
Q 1159 1113 1420 752 
Q 1681 391 2138 391 
Q 2594 391 2855 752 
Q 3116 1113 3116 1747 
z
" id="DejaVuSans-70" transform="scale(0.015625)"/>
      </defs>
      <use xlink:href="#DejaVuSans-46"/>
      <use x="50.269531" xlink:href="#DejaVuSans-72"/>
      <use x="91.382812" xlink:href="#DejaVuSans-61"/>
      <use x="152.662109" xlink:href="#DejaVuSans-63"/>
      <use x="207.642578" xlink:href="#DejaVuSans-74"/>
      <use x="246.851562" xlink:href="#DejaVuSans-69"/>
      <use x="274.634766" xlink:href="#DejaVuSans-6f"/>
      <use x="335.816406" xlink:href="#DejaVuSans-6e"/>
      <use x="399.195312" xlink:href="#DejaVuSans-20"/>
      <use x="430.982422" xlink:href="#DejaVuSans-6f"/>
      <use x="492.164062" xlink:href="#DejaVuSans-66"/>
      <use x="527.369141" xlink:href="#DejaVuSans-20"/>
      <use x="559.15625" xlink:href="#DejaVuSans-66"/>
      <use x="594.361328" xlink:href="#DejaVuSans-75"/>
      <use x="657.740234" xlink:href="#DejaVuSans-6e"/>
      <use x="721.119141" xlink:href="#DejaVuSans-63"/>
      <use x="776.099609" xlink:href="#DejaVuSans-74"/>
      <use x="815.308594" xlink:href="#DejaVuSans-69"/>
      <use x="843.091797" xlink:href="#DejaVuSans-6f"/>
      <use x="904.273438" xlink:href="#DejaVuSans-6e"/>
      <use x="967.652344" xlink:href="#DejaVuSans-2c"/>
      <use x="999.439453" xlink:href="#DejaVuSans-74"/>
      <use x="1038.648438" xlink:href="#DejaVuSans-61"/>
      <use x="1099.927734" xlink:href="#DejaVuSans-72"/>
      <use x="1139.291016" xlink:href="#DejaVuSans-67"/>
      <use x="1202.767578" xlink:href="#DejaVuSans-65"/>
      <use x="1264.291016" xlink:href="#DejaVuSans-74"/>
      <use x="1303.5" xlink:href="#DejaVuSans-20"/>
      <use x="1335.287109" xlink:href="#DejaVuSans-70"/>
      <use x="1398.763672" xlink:href="#DejaVuSans-61"/>
      <use x="1460.042969" xlink:href="#DejaVuSans-69"/>
      <use x="1487.826172" xlink:href="#DejaVuSans-72"/>
      <use x="1528.939453" xlink:href="#DejaVuSans-73"/>
     </g>
    </g>
   </g>
   <g id="line2d_29">
    <defs>
     <path d="M 0 1.5 
C 0.397805 1.5 0.77937 1.341951 1.06066 1.06066 
C 1.341951 0.77937 1.5 0.397805 1.5 0 
C 1.5 -0.397805 1.341951 -0.77937 1.06066 -1.06066 
C 0.77937 -1.341951 0.397805 -1.5 0 -1.5 
C -0.397805 -1.5 -0.77937 -1.341951 -1.06066 -1.06066 
C -1.341951 -0.77937 -1.5 -0.397805 -1.5 0 
C -1.5 0.397805 -1.341951 0.77937 -1.06066 1.06066 
C -0.77937 1.341951 -0.397805 1.5 0 1.5 
z
" id="m32b5b26bee" style="stroke:#000080;"/>
    </defs>
    <g>
     <use style="fill:#000080;stroke:#000080;" x="180.201531" xlink:href="#m32b5b26bee" y="30.334099"/>
     <use style="fill:#000080;stroke:#000080;" x="180.201531" xlink:href="#m32b5b26bee" y="30.334099"/>
    </g>
   </g>
   <g id="line2d_30">
    <path d="M 5.356583 298.944 
L 5.356583 296.837256 
L 29.53256 296.837256 
L 29.53256 295.783884 
L 33.424023 295.783884 
L 33.424023 295.257197 
L 39.291857 295.257197 
L 39.291857 294.730511 
L 43.6746 294.730511 
L 43.6746 294.203825 
L 48.691568 294.203825 
L 48.691568 293.677139 
L 50.087456 293.677139 
L 50.087456 293.150453 
L 54.765787 293.150453 
L 54.765787 292.623767 
L 62.833608 292.623767 
L 62.833608 292.097081 
L 63.467834 292.097081 
L 63.467834 291.570395 
L 65.796525 291.570395 
L 65.796525 291.043709 
L 67.850577 291.043709 
L 67.850577 290.517023 
L 70.538854 290.517023 
L 70.538854 289.990337 
L 70.949209 289.990337 
L 70.949209 289.463651 
L 72.500389 289.463651 
L 72.500389 288.936964 
L 73.227131 288.936964 
L 73.227131 288.410278 
L 74.263433 288.410278 
L 74.263433 287.883592 
L 75.241593 287.883592 
L 75.241593 287.356906 
L 78.154896 287.356906 
L 78.154896 286.83022 
L 81.775977 286.83022 
L 81.775977 285.776848 
L 82.206598 285.776848 
L 82.206598 285.250162 
L 83.037197 285.250162 
L 83.037197 284.723476 
L 83.635174 284.723476 
L 83.635174 284.19679 
L 87.170317 284.19679 
L 87.170317 283.670104 
L 88.255778 283.670104 
L 88.255778 283.143418 
L 89.277618 283.143418 
L 89.277618 282.616732 
L 89.697862 282.616732 
L 89.697862 282.090045 
L 92.73846 282.090045 
L 92.73846 281.563359 
L 93.083804 281.563359 
L 93.083804 281.036673 
L 94.610715 281.036673 
L 94.714831 279.983301 
L 97.224242 279.983301 
L 97.224242 279.456615 
L 98.523051 279.456615 
L 98.523051 278.929929 
L 99.338119 278.929929 
L 99.41757 277.876557 
L 100.343767 277.876557 
L 100.343767 277.349871 
L 100.567829 277.349871 
L 100.641881 276.296499 
L 102.924327 276.296499 
L 102.924327 275.769812 
L 103.117741 275.769812 
L 103.117741 275.243126 
L 104.651178 275.243126 
L 104.651178 274.71644 
L 105.566235 274.71644 
L 105.677314 273.136382 
L 105.897371 273.136382 
L 105.897371 272.609696 
L 106.275913 272.609696 
L 106.382575 271.556324 
L 106.593963 271.556324 
L 106.593963 271.029638 
L 106.802819 271.029638 
L 106.802819 270.502952 
L 107.364602 270.502952 
L 107.364602 269.976266 
L 108.150731 269.976266 
L 108.150731 269.449579 
L 108.530893 269.449579 
L 108.530893 268.922893 
L 109.535528 268.922893 
L 109.579846 267.869521 
L 109.886961 267.869521 
L 109.886961 267.342835 
L 111.266113 267.342835 
L 111.266113 266.816149 
L 111.74176 266.816149 
L 111.74176 266.289463 
L 112.655818 266.289463 
L 112.692883 265.236091 
L 112.803609 265.236091 
L 112.877038 264.182719 
L 113.239614 264.182719 
L 113.239614 263.656033 
L 113.942906 263.656033 
L 114.045996 262.075974 
L 115.237757 262.075974 
L 115.237757 261.549288 
L 115.586238 261.549288 
L 115.586238 261.022602 
L 115.989297 261.022602 
L 116.050487 259.442544 
L 116.141872 259.442544 
L 116.202531 258.389172 
L 116.262979 258.389172 
L 116.35326 257.3358 
L 116.59175 257.3358 
L 116.621333 254.702369 
L 116.709783 254.702369 
L 116.709783 254.175683 
L 117.202696 254.175683 
L 117.202696 253.648997 
L 117.792962 253.648997 
L 117.903163 251.542253 
L 118.148599 251.542253 
L 118.148599 251.015567 
L 118.864837 251.015567 
L 118.864837 250.488881 
L 119.552816 250.488881 
L 119.552816 248.908822 
L 119.874629 248.908822 
L 119.923616 247.85545 
L 120.286695 247.85545 
L 120.286695 247.328764 
L 120.429836 247.328764 
L 120.429836 246.802078 
L 120.712642 246.802078 
L 120.712642 246.275392 
L 120.967912 246.275392 
L 120.967912 245.748706 
L 121.53454 245.748706 
L 121.53454 245.22202 
L 121.953191 245.22202 
L 122.040062 243.641962 
L 123.790603 243.641962 
L 123.790603 242.061903 
L 124.004823 242.061903 
L 124.043491 241.008531 
L 124.557288 241.008531 
L 124.557288 239.955159 
L 124.799375 239.955159 
L 124.799375 239.428473 
L 124.965026 239.428473 
L 124.965026 238.901787 
L 126.099688 238.901787 
L 126.151107 237.848415 
L 126.25349 237.848415 
L 126.25349 235.74167 
L 126.888323 235.74167 
L 126.888323 234.688298 
L 129.51791 234.688298 
L 129.51791 234.161612 
L 129.79784 234.161612 
L 129.79784 233.634926 
L 130.384893 233.634926 
L 130.384893 233.10824 
L 130.952826 233.10824 
L 130.952826 230.47481 
L 131.553138 230.47481 
L 131.553138 229.948123 
L 132.446401 229.948123 
L 132.446401 229.421437 
L 134.149701 229.421437 
L 134.149701 228.894751 
L 137.370679 228.894751 
L 137.370679 228.368065 
L 137.549637 228.368065 
L 137.549637 227.841379 
L 138.281828 227.841379 
L 138.281828 226.788007 
L 139.437717 226.788007 
L 139.437717 226.261321 
L 141.032186 226.261321 
L 141.032186 225.734635 
L 143.273169 225.734635 
L 143.273169 224.681263 
L 143.407294 224.681263 
L 143.407294 223.627891 
L 144.251795 223.627891 
L 144.251795 223.101204 
L 144.777223 223.101204 
L 144.777223 222.574518 
L 145.115068 222.574518 
L 145.115068 222.047832 
L 145.378437 222.047832 
L 145.423837 220.99446 
L 146.559258 220.99446 
L 146.559258 220.467774 
L 147.159502 220.467774 
L 147.159502 219.941088 
L 148.233947 219.941088 
L 148.233947 218.36103 
L 148.392421 218.36103 
L 148.40198 215.200913 
L 148.896577 215.200913 
L 148.896577 214.674227 
L 149.915812 214.674227 
L 149.915812 214.147541 
L 151.473701 214.147541 
L 151.473701 213.094169 
L 151.865879 213.094169 
L 151.971323 211.514111 
L 153.138392 211.514111 
L 153.138392 210.987425 
L 153.637357 210.987425 
L 153.637357 210.460738 
L 153.883332 210.460738 
L 153.911223 208.88068 
L 154.644576 208.88068 
L 154.644576 206.24725 
L 155.099539 206.24725 
L 155.099539 205.720564 
L 156.233382 205.720564 
L 156.233382 204.667192 
L 156.568618 204.667192 
L 156.568618 203.087133 
L 157.312322 203.087133 
L 157.312322 202.033761 
L 157.435145 202.033761 
L 157.435145 200.980389 
L 157.666993 200.980389 
L 157.666993 200.453703 
L 158.121643 200.453703 
L 158.121643 199.927017 
L 158.604712 199.927017 
L 158.604712 198.873645 
L 159.134248 198.873645 
L 159.134248 198.346959 
L 159.572803 198.346959 
L 159.572803 197.820273 
L 160.022698 197.820273 
L 160.022698 197.293586 
L 161.134855 197.293586 
L 161.134855 196.7669 
L 161.311231 196.7669 
L 161.311231 195.713528 
L 161.422548 195.713528 
L 161.422548 195.186842 
L 161.88512 195.186842 
L 161.88512 194.13347 
L 162.180319 194.13347 
L 162.227956 185.706493 
L 162.393666 185.706493 
L 162.393666 185.179807 
L 162.589615 185.179807 
L 162.617127 184.126434 
L 163.189163 184.126434 
L 163.189163 183.599748 
L 163.327764 183.599748 
L 163.378445 182.01969 
L 163.587711 182.01969 
L 163.587711 181.493004 
L 163.764822 181.493004 
L 163.87338 180.439632 
L 163.89894 180.439632 
L 163.89894 179.912946 
L 164.293296 179.912946 
L 164.293296 179.38626 
L 164.738949 179.38626 
L 164.813684 171.485969 
L 165.120455 171.485969 
L 165.182627 166.745794 
L 165.242759 166.745794 
L 165.242759 166.219108 
L 165.384072 166.219108 
L 165.461488 164.112363 
L 165.709414 164.112363 
L 165.709414 163.585677 
L 166.364626 163.585677 
L 166.364626 163.058991 
L 166.559689 163.058991 
L 166.662278 148.838467 
L 166.770935 148.838467 
L 166.770935 148.311781 
L 166.908703 148.311781 
L 166.908703 146.205037 
L 167.086355 146.205037 
L 167.086355 145.151665 
L 167.309136 145.151665 
L 167.309136 144.098292 
L 167.452352 144.098292 
L 167.452352 143.571606 
L 167.588042 143.571606 
L 167.621403 141.464862 
L 167.925058 141.464862 
L 168.007528 139.884804 
L 168.060229 139.884804 
L 168.060229 139.358118 
L 168.344225 139.358118 
L 168.344225 138.831432 
L 168.459567 138.831432 
L 168.459567 138.304745 
L 168.590673 138.304745 
L 168.590673 137.778059 
L 168.78476 137.778059 
L 168.79515 136.724687 
L 168.901659 136.724687 
L 168.901659 136.198001 
L 169.516016 136.198001 
L 169.516016 134.617943 
L 169.865574 134.617943 
L 169.939378 131.984513 
L 170.12872 131.984513 
L 170.219207 130.93114 
L 170.33098 130.93114 
L 170.437991 129.351082 
L 170.444741 129.351082 
L 170.444741 128.824396 
L 170.671394 128.824396 
L 170.680719 127.771024 
L 170.9621 127.771024 
L 170.981745 126.717652 
L 171.170519 126.717652 
L 171.176992 125.66428 
L 171.414825 125.66428 
L 171.414825 124.610907 
L 171.580031 124.610907 
L 171.580031 124.084221 
L 171.751203 124.084221 
L 171.807473 121.450791 
L 171.98509 121.450791 
L 172.041844 117.763988 
L 172.100868 117.763988 
L 172.100868 116.710616 
L 172.319236 116.710616 
L 172.423185 115.657244 
L 172.598251 115.657244 
L 172.693437 111.443755 
L 172.746752 111.443755 
L 172.751483 110.390383 
L 172.874047 110.390383 
L 172.874047 109.863697 
L 173.0946 109.863697 
L 173.105034 108.283639 
L 173.283746 108.283639 
L 173.337576 106.703581 
L 173.404916 106.703581 
L 173.404916 106.176895 
L 173.573829 106.176895 
L 173.655992 104.07015 
L 173.780187 104.07015 
L 173.792447 102.490092 
L 174.155192 102.490092 
L 174.155192 101.963406 
L 174.348349 101.963406 
L 174.380694 100.910034 
L 174.800015 100.910034 
L 174.806323 99.329976 
L 174.927837 99.329976 
L 174.927837 98.803289 
L 175.060946 98.803289 
L 175.060946 98.276603 
L 175.394423 98.276603 
L 175.394423 97.749917 
L 175.540164 97.749917 
L 175.540164 97.223231 
L 175.723637 97.223231 
L 175.754527 95.643173 
L 175.902239 95.643173 
L 175.902239 95.116487 
L 176.127822 95.116487 
L 176.128796 94.063115 
L 176.407196 94.063115 
L 176.451254 74.57573 
L 178.10635 74.57573 
L 178.169742 60.355206 
L 178.255345 60.355206 
L 178.275173 45.081309 
L 179.649773 45.081309 
L 179.754566 30.860785 
L 180.201531 30.860785 
L 180.201531 30.334099 
L 338.688 30.334099 
L 338.688 30.334099 
" style="fill:none;stroke:#000080;stroke-linecap:square;stroke-width:1.5;"/>
   </g>
   <g id="line2d_31">
    <defs>
     <path d="M 0 6 
C 1.591219 6 3.117479 5.367802 4.242641 4.242641 
C 5.367802 3.117479 6 1.591219 6 0 
C 6 -1.591219 5.367802 -3.117479 4.242641 -4.242641 
C 3.117479 -5.367802 1.591219 -6 0 -6 
C -1.591219 -6 -3.117479 -5.367802 -4.242641 -4.242641 
C -5.367802 -3.117479 -6 -1.591219 -6 0 
C -6 1.591219 -5.367802 3.117479 -4.242641 4.242641 
C -3.117479 5.367802 -1.591219 6 0 6 
z
" id="m02ce595ddd" style="stroke:#000080;stroke-width:1.5;"/>
    </defs>
    <g>
     <use style="fill-opacity:0;stroke:#000080;stroke-width:1.5;" x="105.677314" xlink:href="#m02ce595ddd" y="274.189754"/>
     <use style="fill-opacity:0;stroke:#000080;stroke-width:1.5;" x="162.180319" xlink:href="#m02ce595ddd" y="194.13347"/>
     <use style="fill-opacity:0;stroke:#000080;stroke-width:1.5;" x="174.380694" xlink:href="#m02ce595ddd" y="101.43672"/>
     <use style="fill-opacity:0;stroke:#000080;stroke-width:1.5;" x="180.201531" xlink:href="#m02ce595ddd" y="30.860785"/>
     <use style="fill-opacity:0;stroke:#000080;stroke-width:1.5;" x="180.201531" xlink:href="#m02ce595ddd" y="30.334099"/>
     <use style="fill-opacity:0;stroke:#000080;stroke-width:1.5;" x="338.688" xlink:href="#m02ce595ddd" y="30.334099"/>
    </g>
   </g>
   <g id="line2d_32">
    <path style="fill:none;stroke:#000080;stroke-linecap:square;stroke-width:1.5;"/>
    <g/>
   </g>
   <g id="line2d_33">
    <defs>
     <path d="M 0 1.5 
C 0.397805 1.5 0.77937 1.341951 1.06066 1.06066 
C 1.341951 0.77937 1.5 0.397805 1.5 0 
C 1.5 -0.397805 1.341951 -0.77937 1.06066 -1.06066 
C 0.77937 -1.341951 0.397805 -1.5 0 -1.5 
C -0.397805 -1.5 -0.77937 -1.341951 -1.06066 -1.06066 
C -1.341951 -0.77937 -1.5 -0.397805 -1.5 0 
C -1.5 0.397805 -1.341951 0.77937 -1.06066 1.06066 
C -0.77937 1.341951 -0.397805 1.5 0 1.5 
z
" id="m659fdeb073" style="stroke:#ff00ff;"/>
    </defs>
    <g>
     <use style="fill:#ff00ff;stroke:#ff00ff;" x="179.178434" xlink:href="#m659fdeb073" y="30.334099"/>
     <use style="fill:#ff00ff;stroke:#ff00ff;" x="179.178434" xlink:href="#m659fdeb073" y="30.334099"/>
    </g>
   </g>
   <g id="line2d_34">
    <path d="M 5.356583 298.944 
L 5.356583 297.363942 
L 17.444571 297.363942 
L 17.444571 296.837256 
L 24.515591 296.837256 
L 24.515591 296.31057 
L 29.53256 296.31057 
L 29.53256 295.783884 
L 47.174153 295.783884 
L 47.174153 295.257197 
L 50.087456 295.257197 
L 50.087456 294.730511 
L 51.379845 294.730511 
L 51.379845 294.203825 
L 56.705482 294.203825 
L 56.705482 293.677139 
L 75.241593 293.677139 
L 75.241593 293.150453 
L 83.037197 293.150453 
L 83.037197 292.623767 
L 86.847358 292.623767 
L 86.847358 292.097081 
L 89.418828 292.097081 
L 89.418828 291.570395 
L 89.835723 291.570395 
L 89.835723 291.043709 
L 90.242884 291.043709 
L 90.242884 290.517023 
L 90.640756 290.517023 
L 90.640756 289.990337 
L 92.267099 289.990337 
L 92.267099 289.463651 
L 93.972622 289.463651 
L 93.972622 288.936964 
L 96.768882 288.936964 
L 96.768882 288.410278 
L 99.097574 288.410278 
L 99.097574 287.883592 
L 107.06042 287.883592 
L 107.06042 287.356906 
L 107.762095 287.356906 
L 107.762095 286.83022 
L 108.717912 286.83022 
L 108.717912 286.303534 
L 110.358901 286.303534 
L 110.358901 285.776848 
L 112.051799 285.776848 
L 112.051799 285.250162 
L 112.692883 285.250162 
L 112.692883 284.723476 
L 113.839203 284.723476 
L 113.839203 284.19679 
L 114.0117 284.19679 
L 114.0117 283.670104 
L 114.418861 283.670104 
L 114.418861 283.143418 
L 116.532432 283.143418 
L 116.532432 282.616732 
L 117.345058 282.616732 
L 117.345058 282.090045 
L 118.890808 282.090045 
L 118.890808 281.563359 
L 120.898662 281.563359 
L 120.898662 281.036673 
L 121.128432 281.036673 
L 121.128432 280.509987 
L 122.425713 280.509987 
L 122.425713 279.983301 
L 123.131685 279.983301 
L 123.131685 279.456615 
L 123.394238 279.456615 
L 123.394238 278.929929 
L 124.425528 278.929929 
L 124.425528 278.403243 
L 126.422805 278.403243 
L 126.422805 277.876557 
L 129.47553 277.876557 
L 129.47553 277.349871 
L 129.686407 277.349871 
L 129.686407 276.823185 
L 129.936138 276.823185 
L 129.936138 276.296499 
L 130.155159 276.296499 
L 130.155159 275.769812 
L 130.571839 275.769812 
L 130.664567 274.189754 
L 131.802453 274.189754 
L 131.802453 273.663068 
L 133.611375 273.663068 
L 133.611375 273.136382 
L 134.901373 273.136382 
L 134.984073 272.08301 
L 135.25017 272.08301 
L 135.25017 271.556324 
L 135.937276 271.556324 
L 135.937276 271.029638 
L 136.598334 271.029638 
L 136.598334 270.502952 
L 137.289545 270.502952 
L 137.289545 269.976266 
L 137.451437 269.976266 
L 137.451437 269.449579 
L 138.502366 269.449579 
L 138.561269 267.869521 
L 138.670134 267.869521 
L 138.670134 267.342835 
L 139.980403 267.342835 
L 140.011351 266.289463 
L 140.249355 266.289463 
L 140.249355 265.762777 
L 141.177393 265.762777 
L 141.19907 264.709405 
L 141.549369 264.709405 
L 141.549369 264.182719 
L 141.71841 264.182719 
L 141.71841 263.656033 
L 144.166726 263.656033 
L 144.166726 263.129347 
L 144.611752 263.129347 
L 144.611752 262.60266 
L 144.736002 262.60266 
L 144.841802 261.549288 
L 144.917816 261.549288 
L 144.917816 261.022602 
L 145.126602 261.022602 
L 145.201387 259.96923 
L 145.304409 259.96923 
L 145.304409 259.442544 
L 145.576196 259.442544 
L 145.576196 258.915858 
L 146.025444 258.915858 
L 146.107383 257.862486 
L 146.38313 257.862486 
L 146.38313 257.3358 
L 146.580487 257.3358 
L 146.580487 256.809114 
L 146.707319 256.809114 
L 146.707319 256.282427 
L 147.312748 256.282427 
L 147.388869 255.229055 
L 147.675136 255.229055 
L 147.675136 254.702369 
L 148.000837 254.702369 
L 148.044783 253.648997 
L 148.291741 253.648997 
L 148.291741 253.122311 
L 148.742638 253.122311 
L 148.747323 252.068939 
L 148.998453 252.068939 
L 148.998453 251.542253 
L 149.182171 251.542253 
L 149.182171 251.015567 
L 149.937701 251.015567 
L 149.937701 250.488881 
L 150.640855 250.488881 
L 150.699587 249.435508 
L 150.762296 249.435508 
L 150.762296 248.908822 
L 151.166536 248.908822 
L 151.251953 247.328764 
L 151.345027 247.328764 
L 151.345027 246.802078 
L 151.473701 246.802078 
L 151.473701 245.748706 
L 152.118655 245.748706 
L 152.118655 245.22202 
L 152.28006 245.22202 
L 152.379233 243.641962 
L 152.877907 243.641962 
L 152.877907 243.115275 
L 153.061751 243.115275 
L 153.13475 241.008531 
L 153.174769 241.008531 
L 153.174769 239.955159 
L 153.495227 239.955159 
L 153.495227 239.428473 
L 153.612568 239.428473 
L 153.612568 238.901787 
L 154.334536 238.901787 
L 154.334536 237.848415 
L 154.85705 237.848415 
L 154.85705 237.321729 
L 155.232454 237.321729 
L 155.232454 236.795043 
L 155.425155 236.795043 
L 155.425155 236.268356 
L 155.798033 236.268356 
L 155.813658 235.214984 
L 155.922644 235.214984 
L 155.993895 233.10824 
L 156.086395 233.10824 
L 156.086395 232.581554 
L 156.254714 232.581554 
L 156.263849 231.001496 
L 156.38821 231.001496 
L 156.442528 229.948123 
L 156.619396 229.948123 
L 156.619396 229.421437 
L 156.918066 229.421437 
L 156.959066 227.841379 
L 157.10761 227.841379 
L 157.211708 225.207949 
L 157.26065 225.207949 
L 157.369557 224.154577 
L 157.403807 224.154577 
L 157.403807 222.574518 
L 157.756641 222.574518 
L 157.86528 220.99446 
L 157.898572 220.99446 
L 157.898572 220.467774 
L 158.102478 220.467774 
L 158.102478 219.941088 
L 158.274214 219.941088 
L 158.290482 218.36103 
L 158.457702 218.36103 
L 158.543386 216.780971 
L 158.671127 216.780971 
L 158.726721 215.200913 
L 158.936899 215.200913 
L 158.936899 214.674227 
L 159.048831 214.674227 
L 159.064393 212.567483 
L 159.224387 212.567483 
L 159.224387 212.040797 
L 159.408364 212.040797 
L 159.492042 210.460738 
L 159.859989 210.460738 
L 159.859989 209.934052 
L 160.198484 209.934052 
L 160.280882 208.88068 
L 160.532916 208.88068 
L 160.590016 206.24725 
L 160.961329 206.24725 
L 160.961329 204.667192 
L 161.079514 204.667192 
L 161.121037 203.087133 
L 161.231281 203.087133 
L 161.233571 201.507075 
L 161.406689 201.507075 
L 161.438393 199.400331 
L 161.669886 199.400331 
L 161.669886 197.820273 
L 161.814408 197.820273 
L 161.814408 197.293586 
L 161.97969 197.293586 
L 162.014748 194.13347 
L 162.528086 194.13347 
L 162.631923 190.446667 
L 162.772911 190.446667 
L 162.772911 189.919981 
L 162.987455 189.919981 
L 162.987455 188.339923 
L 163.187116 188.339923 
L 163.20757 186.233179 
L 163.416865 186.233179 
L 163.499482 183.599748 
L 163.940152 183.599748 
L 163.9617 182.01969 
L 164.358482 182.01969 
L 164.408167 180.966318 
L 164.510908 180.966318 
L 164.603615 179.38626 
L 164.646961 179.38626 
L 164.692077 177.279515 
L 164.763273 177.279515 
L 164.84721 172.539341 
L 165.035985 172.539341 
L 165.035985 171.485969 
L 165.251852 171.485969 
L 165.31537 166.745794 
L 165.504548 166.745794 
L 165.59035 165.165736 
L 165.679281 165.165736 
L 165.760698 162.532305 
L 165.889129 162.532305 
L 165.969575 156.738758 
L 166.030537 156.738758 
L 166.125905 155.685386 
L 166.291126 155.685386 
L 166.3014 154.632014 
L 166.403814 154.632014 
L 166.439517 153.051956 
L 166.724212 153.051956 
L 166.724212 152.52527 
L 167.094536 152.52527 
L 167.146803 150.418525 
L 167.233027 150.418525 
L 167.322057 146.731723 
L 167.46837 146.731723 
L 167.46837 146.205037 
L 167.589632 146.205037 
L 167.694258 143.04492 
L 167.871947 143.04492 
L 167.917258 140.938176 
L 168.300012 140.938176 
L 168.405027 136.198001 
L 168.510921 136.198001 
L 168.613178 134.617943 
L 168.644637 134.617943 
L 168.746115 132.511199 
L 168.805533 132.511199 
L 168.857359 130.93114 
L 169.042666 130.93114 
L 169.102542 129.877768 
L 169.424658 129.877768 
L 169.457545 128.29771 
L 169.535937 128.29771 
L 169.64651 126.190966 
L 169.695899 126.190966 
L 169.731091 123.030849 
L 169.992103 123.030849 
L 170.066754 119.870733 
L 170.136965 119.870733 
L 170.169908 118.290674 
L 170.287446 118.290674 
L 170.354063 117.237302 
L 170.45014 117.237302 
L 170.501345 114.603872 
L 170.648728 114.603872 
L 170.648728 114.077186 
L 170.798844 114.077186 
L 170.89777 113.023814 
L 170.981745 113.023814 
L 171.083546 110.390383 
L 171.251905 110.390383 
L 171.307238 108.283639 
L 171.371357 108.283639 
L 171.422484 106.176895 
L 171.548382 106.176895 
L 171.607834 101.43672 
L 171.682181 101.43672 
L 171.697264 100.383348 
L 171.878488 100.383348 
L 171.95293 98.276603 
L 171.997444 98.276603 
L 172.023357 97.223231 
L 172.209784 97.223231 
L 172.319236 92.483056 
L 172.338622 92.483056 
L 172.389409 90.376312 
L 172.508539 90.376312 
L 172.599444 88.269568 
L 172.664936 88.269568 
L 172.664936 87.742882 
L 172.802263 87.742882 
L 172.892826 86.68951 
L 172.972415 86.68951 
L 172.995755 85.109451 
L 173.087641 85.109451 
L 173.18943 83.002707 
L 173.281452 83.002707 
L 173.281452 82.476021 
L 173.424271 82.476021 
L 173.519593 79.842591 
L 173.55351 79.842591 
L 173.639141 77.735846 
L 173.666095 77.735846 
L 173.761223 73.522358 
L 173.820277 73.522358 
L 173.923419 70.888927 
L 173.978621 70.888927 
L 174.075354 68.255497 
L 174.093979 68.255497 
L 174.136632 66.675439 
L 174.262886 66.675439 
L 174.29106 65.09538 
L 174.410829 65.09538 
L 174.521235 61.935264 
L 174.548994 61.935264 
L 174.608634 59.82852 
L 174.672308 59.82852 
L 174.771599 55.615031 
L 174.810527 55.615031 
L 174.853563 54.034973 
L 175.022574 54.034973 
L 175.083722 52.9816 
L 175.218731 52.9816 
L 175.322114 49.294798 
L 175.376119 49.294798 
L 175.415753 47.188054 
L 175.524031 47.188054 
L 175.56333 44.554623 
L 175.670699 44.554623 
L 175.670699 44.027937 
L 175.794304 44.027937 
L 175.896315 42.447879 
L 176.076098 42.447879 
L 176.083915 41.394507 
L 176.215305 41.394507 
L 176.215305 40.867821 
L 176.326454 40.867821 
L 176.401441 39.814448 
L 176.478018 39.814448 
L 176.478018 39.287762 
L 176.597948 39.287762 
L 176.694434 37.181018 
L 176.769737 37.181018 
L 176.769737 36.654332 
L 176.989078 36.654332 
L 176.989078 36.127646 
L 177.140532 36.127646 
L 177.149725 34.547588 
L 177.348929 34.547588 
L 177.44678 33.494215 
L 177.675663 33.494215 
L 177.675663 32.967529 
L 177.823948 32.967529 
L 177.837205 31.914157 
L 178.017387 31.914157 
L 178.102 30.860785 
L 179.178434 30.860785 
L 179.178434 30.334099 
L 338.688 30.334099 
L 338.688 30.334099 
" style="fill:none;stroke:#ff00ff;stroke-linecap:square;stroke-width:1.5;"/>
   </g>
   <g id="line2d_35">
    <defs>
     <path d="M 0 8.485281 
L 5.091169 0 
L 0 -8.485281 
L -5.091169 0 
z
" id="m506a80ed2d" style="stroke:#ff00ff;stroke-linejoin:miter;stroke-width:1.5;"/>
    </defs>
    <g>
     <use style="fill-opacity:0;stroke:#ff00ff;stroke-linejoin:miter;stroke-width:1.5;" x="75.241593" xlink:href="#m506a80ed2d" y="293.677139"/>
     <use style="fill-opacity:0;stroke:#ff00ff;stroke-linejoin:miter;stroke-width:1.5;" x="147.388869" xlink:href="#m506a80ed2d" y="255.755741"/>
     <use style="fill-opacity:0;stroke:#ff00ff;stroke-linejoin:miter;stroke-width:1.5;" x="169.579966" xlink:href="#m506a80ed2d" y="127.244338"/>
     <use style="fill-opacity:0;stroke:#ff00ff;stroke-linejoin:miter;stroke-width:1.5;" x="179.178434" xlink:href="#m506a80ed2d" y="30.860785"/>
     <use style="fill-opacity:0;stroke:#ff00ff;stroke-linejoin:miter;stroke-width:1.5;" x="179.178434" xlink:href="#m506a80ed2d" y="30.334099"/>
     <use style="fill-opacity:0;stroke:#ff00ff;stroke-linejoin:miter;stroke-width:1.5;" x="338.688" xlink:href="#m506a80ed2d" y="30.334099"/>
    </g>
   </g>
   <g id="line2d_36">
    <path style="fill:none;stroke:#ff00ff;stroke-linecap:square;stroke-width:1.5;"/>
    <g/>
   </g>
   <g id="line2d_37">
    <defs>
     <path d="M 0 1.5 
C 0.397805 1.5 0.77937 1.341951 1.06066 1.06066 
C 1.341951 0.77937 1.5 0.397805 1.5 0 
C 1.5 -0.397805 1.341951 -0.77937 1.06066 -1.06066 
C 0.77937 -1.341951 0.397805 -1.5 0 -1.5 
C -0.397805 -1.5 -0.77937 -1.341951 -1.06066 -1.06066 
C -1.341951 -0.77937 -1.5 -0.397805 -1.5 0 
C -1.5 0.397805 -1.341951 0.77937 -1.06066 1.06066 
C -0.77937 1.341951 -0.397805 1.5 0 1.5 
z
" id="mc1f48a19a1" style="stroke:#ff7500;"/>
    </defs>
    <g>
     <use style="fill:#ff7500;stroke:#ff7500;" x="269.020363" xlink:href="#mc1f48a19a1" y="272.609696"/>
     <use style="fill:#ff7500;stroke:#ff7500;" x="269.020363" xlink:href="#mc1f48a19a1" y="272.609696"/>
    </g>
   </g>
   <g id="line2d_38">
    <path d="M 24.515591 298.944 
L 24.515591 296.837256 
L 36.60358 296.837256 
L 36.60358 296.31057 
L 39.291857 296.31057 
L 39.291857 295.783884 
L 45.512012 295.783884 
L 45.512012 295.257197 
L 48.691568 295.257197 
L 48.691568 294.730511 
L 55.762588 294.730511 
L 55.762588 294.203825 
L 57.6 294.203825 
L 57.6 293.677139 
L 61.491463 293.677139 
L 61.491463 293.150453 
L 64.079801 293.150453 
L 64.079801 292.623767 
L 65.242851 292.623767 
L 65.242851 292.097081 
L 77.047268 292.097081 
L 77.047268 291.570395 
L 81.992617 291.570395 
L 81.992617 291.043709 
L 87.643811 291.043709 
L 87.643811 290.517023 
L 92.386139 290.517023 
L 92.386139 289.990337 
L 109.040444 289.990337 
L 109.040444 289.463651 
L 113.022974 289.463651 
L 113.022974 288.936964 
L 113.27546 288.936964 
L 113.27546 288.410278 
L 115.10929 288.410278 
L 115.10929 287.356906 
L 129.756136 287.356906 
L 129.756136 286.83022 
L 149.218684 286.83022 
L 149.218684 286.303534 
L 150.331361 286.303534 
L 150.331361 285.776848 
L 152.515626 285.776848 
L 152.515626 285.250162 
L 169.96021 285.250162 
L 169.96021 284.723476 
L 175.439084 284.723476 
L 175.439084 284.19679 
L 177.32438 284.19679 
L 177.32438 283.670104 
L 185.213291 283.670104 
L 185.213291 283.143418 
L 196.431753 283.143418 
L 196.431753 282.616732 
L 198.426116 282.616732 
L 198.426116 282.090045 
L 219.660717 282.090045 
L 219.660717 281.563359 
L 227.31767 281.563359 
L 227.31767 281.036673 
L 228.784406 281.036673 
L 228.784406 280.509987 
L 233.560795 280.509987 
L 233.560795 278.929929 
L 236.378822 278.929929 
L 236.378822 277.876557 
L 242.768726 277.876557 
L 242.768726 277.349871 
L 243.604705 277.349871 
L 243.604705 276.296499 
L 255.357014 276.296499 
L 255.357014 275.769812 
L 262.142399 275.769812 
L 262.142399 275.243126 
L 263.493924 275.243126 
L 263.493924 274.71644 
L 264.7482 274.71644 
L 264.7482 274.189754 
L 265.918286 274.189754 
L 265.918286 273.663068 
L 269.020363 273.663068 
L 269.020363 272.609696 
L 338.688 272.609696 
" style="fill:none;stroke:#ff7500;stroke-linecap:square;stroke-width:1.5;"/>
   </g>
   <g id="line2d_39">
    <defs>
     <path d="M 0 -6 
L -1.347084 -1.854102 
L -5.706339 -1.854102 
L -2.179628 0.708204 
L -3.526712 4.854102 
L -0 2.291796 
L 3.526712 4.854102 
L 2.179628 0.708204 
L 5.706339 -1.854102 
L 1.347084 -1.854102 
z
" id="m080f67d163" style="stroke:#ff7500;stroke-linejoin:bevel;stroke-width:1.5;"/>
    </defs>
    <g>
     <use style="fill-opacity:0;stroke:#ff7500;stroke-linejoin:bevel;stroke-width:1.5;" x="129.756136" xlink:href="#m080f67d163" y="287.356906"/>
     <use style="fill-opacity:0;stroke:#ff7500;stroke-linejoin:bevel;stroke-width:1.5;" x="198.426116" xlink:href="#m080f67d163" y="282.616732"/>
     <use style="fill-opacity:0;stroke:#ff7500;stroke-linejoin:bevel;stroke-width:1.5;" x="243.604705" xlink:href="#m080f67d163" y="276.296499"/>
     <use style="fill-opacity:0;stroke:#ff7500;stroke-linejoin:bevel;stroke-width:1.5;" x="269.020363" xlink:href="#m080f67d163" y="272.609696"/>
     <use style="fill-opacity:0;stroke:#ff7500;stroke-linejoin:bevel;stroke-width:1.5;" x="269.020363" xlink:href="#m080f67d163" y="272.609696"/>
     <use style="fill-opacity:0;stroke:#ff7500;stroke-linejoin:bevel;stroke-width:1.5;" x="338.688" xlink:href="#m080f67d163" y="272.609696"/>
    </g>
   </g>
   <g id="line2d_40">
    <path style="fill:none;stroke:#ff7500;stroke-linecap:square;stroke-width:1.5;"/>
    <g/>
   </g>
   <g id="line2d_41">
    <path clip-path="url(#p7fb64dc5c4)" d="M 218.221714 282.090045 
" style="fill:none;stroke:#ff7500;stroke-linecap:square;stroke-width:1.5;"/>
    <defs>
     <path d="M -12 12 
L 12 -12 
M -12 -12 
L 12 12 
" id="ma019542819" style="stroke:#ff7500;"/>
    </defs>
    <g clip-path="url(#p7fb64dc5c4)">
     <use style="fill:#ff7500;stroke:#ff7500;" x="218.221714" xlink:href="#ma019542819" y="282.090045"/>
    </g>
   </g>
   <g id="line2d_42">
    <defs>
     <path d="M 0 1.5 
C 0.397805 1.5 0.77937 1.341951 1.06066 1.06066 
C 1.341951 0.77937 1.5 0.397805 1.5 0 
C 1.5 -0.397805 1.341951 -0.77937 1.06066 -1.06066 
C 0.77937 -1.341951 0.397805 -1.5 0 -1.5 
C -0.397805 -1.5 -0.77937 -1.341951 -1.06066 -1.06066 
C -1.341951 -0.77937 -1.5 -0.397805 -1.5 0 
C -1.5 0.397805 -1.341951 0.77937 -1.06066 1.06066 
C -0.77937 1.341951 -0.397805 1.5 0 1.5 
z
" id="ma1d8d081a9" style="stroke:#6495ed;"/>
    </defs>
    <g>
     <use style="fill:#6495ed;stroke:#6495ed;" x="194.526987" xlink:href="#ma1d8d081a9" y="256.809114"/>
     <use style="fill:#6495ed;stroke:#6495ed;" x="194.526987" xlink:href="#ma1d8d081a9" y="256.809114"/>
    </g>
   </g>
   <g id="line2d_43">
    <path d="M 24.515591 298.944 
L 24.515591 298.417314 
L 29.53256 298.417314 
L 29.53256 297.890628 
L 36.60358 297.890628 
L 36.60358 297.363942 
L 43.6746 297.363942 
L 43.6746 296.837256 
L 52.583031 296.837256 
L 52.583031 296.31057 
L 53.708537 296.31057 
L 53.708537 295.783884 
L 56.705482 295.783884 
L 56.705482 294.730511 
L 62.833608 294.730511 
L 62.833608 294.203825 
L 65.796525 294.203825 
L 65.796525 293.677139 
L 66.853775 293.677139 
L 66.853775 293.150453 
L 68.328395 293.150453 
L 68.328395 291.570395 
L 75.86449 291.570395 
L 75.86449 291.043709 
L 78.941764 291.043709 
L 78.941764 290.517023 
L 79.196356 290.517023 
L 79.196356 289.463651 
L 80.416384 289.463651 
L 80.416384 288.936964 
L 80.881459 288.936964 
L 80.881459 288.410278 
L 81.334453 288.410278 
L 81.334453 287.883592 
L 83.830028 287.883592 
L 83.830028 286.83022 
L 87.329581 286.83022 
L 87.329581 286.303534 
L 93.533875 286.303534 
L 93.533875 285.776848 
L 99.258306 285.776848 
L 99.258306 284.723476 
L 99.41757 284.723476 
L 99.41757 284.19679 
L 102.263669 284.19679 
L 102.263669 283.670104 
L 105.171792 283.670104 
L 105.171792 283.143418 
L 105.787689 283.143418 
L 105.787689 282.616732 
L 107.263796 282.616732 
L 107.263796 282.090045 
L 109.401893 282.090045 
L 109.401893 281.563359 
L 110.61104 281.563359 
L 110.61104 281.036673 
L 110.735755 281.036673 
L 110.77713 279.983301 
L 116.59175 279.983301 
L 116.59175 279.456615 
L 121.445108 279.456615 
L 121.445108 278.929929 
L 124.139788 278.929929 
L 124.139788 278.403243 
L 124.650796 278.403243 
L 124.650796 277.876557 
L 126.372183 277.876557 
L 126.372183 277.349871 
L 127.261631 277.349871 
L 127.261631 276.823185 
L 128.812469 276.823185 
L 128.812469 276.296499 
L 130.331109 276.296499 
L 130.331109 275.769812 
L 131.210808 275.769812 
L 131.210808 275.243126 
L 131.678241 275.243126 
L 131.678241 274.71644 
L 131.925787 274.71644 
L 131.925787 274.189754 
L 134.073807 274.189754 
L 134.073807 273.663068 
L 135.260324 273.663068 
L 135.260324 273.136382 
L 135.542259 273.136382 
L 135.542259 272.609696 
L 135.770486 272.609696 
L 135.770486 272.08301 
L 136.024936 272.08301 
L 136.024936 271.556324 
L 137.034686 271.556324 
L 137.034686 271.029638 
L 137.451437 271.029638 
L 137.451437 270.502952 
L 146.968625 270.502952 
L 146.968625 269.976266 
L 147.159502 269.976266 
L 147.159502 268.396207 
L 148.854728 268.396207 
L 148.854728 267.869521 
L 149.081366 267.869521 
L 149.081366 267.342835 
L 155.229224 267.342835 
L 155.229224 266.289463 
L 155.882243 266.289463 
L 155.882243 265.762777 
L 156.385187 265.762777 
L 156.385187 264.709405 
L 159.864942 264.709405 
L 159.864942 264.182719 
L 160.637457 264.182719 
L 160.724884 262.60266 
L 161.203785 262.60266 
L 161.203785 262.075974 
L 161.634127 262.075974 
L 161.634127 261.549288 
L 171.34702 261.549288 
L 171.34702 261.022602 
L 173.465187 261.022602 
L 173.50714 259.442544 
L 175.636653 259.442544 
L 175.636653 258.915858 
L 182.233882 258.915858 
L 182.233882 258.389172 
L 185.932165 258.389172 
L 185.932165 257.862486 
L 187.009039 257.862486 
L 187.009039 257.3358 
L 194.526987 257.3358 
L 194.526987 256.809114 
L 338.688 256.809114 
L 338.688 256.809114 
" style="fill:none;stroke:#6495ed;stroke-linecap:square;stroke-width:1.5;"/>
   </g>
   <g id="line2d_44">
    <defs>
     <path d="M -0 6 
L 6 -6 
L -6 -6 
z
" id="md455f030e8" style="stroke:#6495ed;stroke-linejoin:miter;stroke-width:1.5;"/>
    </defs>
    <g>
     <use style="fill-opacity:0;stroke:#6495ed;stroke-linejoin:miter;stroke-width:1.5;" x="68.328395" xlink:href="#md455f030e8" y="291.570395"/>
     <use style="fill-opacity:0;stroke:#6495ed;stroke-linejoin:miter;stroke-width:1.5;" x="137.451437" xlink:href="#md455f030e8" y="270.502952"/>
     <use style="fill-opacity:0;stroke:#6495ed;stroke-linejoin:miter;stroke-width:1.5;" x="182.233882" xlink:href="#md455f030e8" y="258.915858"/>
     <use style="fill-opacity:0;stroke:#6495ed;stroke-linejoin:miter;stroke-width:1.5;" x="194.526987" xlink:href="#md455f030e8" y="256.809114"/>
     <use style="fill-opacity:0;stroke:#6495ed;stroke-linejoin:miter;stroke-width:1.5;" x="194.526987" xlink:href="#md455f030e8" y="256.809114"/>
     <use style="fill-opacity:0;stroke:#6495ed;stroke-linejoin:miter;stroke-width:1.5;" x="338.688" xlink:href="#md455f030e8" y="256.809114"/>
    </g>
   </g>
   <g id="line2d_45">
    <path style="fill:none;stroke:#6495ed;stroke-linecap:square;stroke-width:1.5;"/>
    <g/>
   </g>
   <g id="line2d_46">
    <path clip-path="url(#p7fb64dc5c4)" d="M 137.910857 270.502952 
" style="fill:none;stroke:#6495ed;stroke-linecap:square;stroke-width:1.5;"/>
    <defs>
     <path d="M -12 12 
L 12 -12 
M -12 -12 
L 12 12 
" id="macd02ed9e2" style="stroke:#6495ed;"/>
    </defs>
    <g clip-path="url(#p7fb64dc5c4)">
     <use style="fill:#6495ed;stroke:#6495ed;" x="137.910857" xlink:href="#macd02ed9e2" y="270.502952"/>
    </g>
   </g>
   <g id="line2d_47">
    <path d="M 338.688 272.609696 
L 369.60768 293.571802 
" style="fill:none;stroke:#ff7500;stroke-linecap:square;stroke-width:1.5;"/>
    <g>
     <use style="fill-opacity:0;stroke:#ff7500;stroke-linejoin:bevel;stroke-width:1.5;" x="338.688" xlink:href="#m080f67d163" y="272.609696"/>
     <use style="fill-opacity:0;stroke:#ff7500;stroke-linejoin:bevel;stroke-width:1.5;" x="369.60768" xlink:href="#m080f67d163" y="293.571802"/>
    </g>
   </g>
   <g id="line2d_48">
    <path d="M 338.688 256.809114 
L 369.60768 207.616634 
" style="fill:none;stroke:#6495ed;stroke-linecap:square;stroke-width:1.5;"/>
    <g>
     <use style="fill-opacity:0;stroke:#6495ed;stroke-linejoin:miter;stroke-width:1.5;" x="338.688" xlink:href="#md455f030e8" y="256.809114"/>
     <use style="fill-opacity:0;stroke:#6495ed;stroke-linejoin:miter;stroke-width:1.5;" x="369.60768" xlink:href="#md455f030e8" y="207.616634"/>
    </g>
   </g>
   <g id="line2d_49">
    <path d="M 338.688 30.334099 
L 369.60768 121.661465 
" style="fill:none;stroke:#000080;stroke-linecap:square;stroke-width:1.5;"/>
    <g>
     <use style="fill-opacity:0;stroke:#000080;stroke-width:1.5;" x="338.688" xlink:href="#m02ce595ddd" y="30.334099"/>
     <use style="fill-opacity:0;stroke:#000080;stroke-width:1.5;" x="369.60768" xlink:href="#m02ce595ddd" y="121.661465"/>
    </g>
   </g>
   <g id="line2d_50">
    <path d="M 338.688 30.334099 
L 369.60768 35.706297 
" style="fill:none;stroke:#ff00ff;stroke-linecap:square;stroke-width:1.5;"/>
    <g>
     <use style="fill-opacity:0;stroke:#ff00ff;stroke-linejoin:miter;stroke-width:1.5;" x="338.688" xlink:href="#m506a80ed2d" y="30.334099"/>
     <use style="fill-opacity:0;stroke:#ff00ff;stroke-linejoin:miter;stroke-width:1.5;" x="369.60768" xlink:href="#m506a80ed2d" y="35.706297"/>
    </g>
   </g>
   <g id="line2d_51">
    <path d="M 338.688 298.944 
L 338.688 30.334099 
" style="fill:none;stroke:#000000;stroke-linecap:square;stroke-width:1.5;"/>
   </g>
   <g id="patch_3">
    <path d="M 57.6 298.944 
L 57.6 27.648 
" style="fill:none;stroke:#000000;stroke-linecap:square;stroke-linejoin:miter;stroke-width:0.8;"/>
   </g>
   <g id="patch_4">
    <path d="M 338.688 298.944 
L 338.688 27.648 
" style="fill:none;stroke:#000000;stroke-linecap:square;stroke-linejoin:miter;stroke-width:0.8;"/>
   </g>
   <g id="patch_5">
    <path d="M 57.6 298.944 
L 338.688 298.944 
" style="fill:none;stroke:#000000;stroke-linecap:square;stroke-linejoin:miter;stroke-width:0.8;"/>
   </g>
   <g id="patch_6">
    <path d="M 57.6 27.648 
L 338.688 27.648 
" style="fill:none;stroke:#000000;stroke-linecap:square;stroke-linejoin:miter;stroke-width:0.8;"/>
   </g>
   <g id="text_13">
    <!-- RANDOMSEA -->
    <g transform="translate(375.22944 298.262739)scale(0.17 -0.17)">
     <defs>
      <path d="M 2841 2188 
Q 3044 2119 3236 1894 
Q 3428 1669 3622 1275 
L 4263 0 
L 3584 0 
L 2988 1197 
Q 2756 1666 2539 1819 
Q 2322 1972 1947 1972 
L 1259 1972 
L 1259 0 
L 628 0 
L 628 4666 
L 2053 4666 
Q 2853 4666 3247 4331 
Q 3641 3997 3641 3322 
Q 3641 2881 3436 2590 
Q 3231 2300 2841 2188 
z
M 1259 4147 
L 1259 2491 
L 2053 2491 
Q 2509 2491 2742 2702 
Q 2975 2913 2975 3322 
Q 2975 3731 2742 3939 
Q 2509 4147 2053 4147 
L 1259 4147 
z
" id="DejaVuSans-52" transform="scale(0.015625)"/>
      <path d="M 2188 4044 
L 1331 1722 
L 3047 1722 
L 2188 4044 
z
M 1831 4666 
L 2547 4666 
L 4325 0 
L 3669 0 
L 3244 1197 
L 1141 1197 
L 716 0 
L 50 0 
L 1831 4666 
z
" id="DejaVuSans-41" transform="scale(0.015625)"/>
      <path d="M 628 4666 
L 1478 4666 
L 3547 763 
L 3547 4666 
L 4159 4666 
L 4159 0 
L 3309 0 
L 1241 3903 
L 1241 0 
L 628 0 
L 628 4666 
z
" id="DejaVuSans-4e" transform="scale(0.015625)"/>
      <path d="M 1259 4147 
L 1259 519 
L 2022 519 
Q 2988 519 3436 956 
Q 3884 1394 3884 2338 
Q 3884 3275 3436 3711 
Q 2988 4147 2022 4147 
L 1259 4147 
z
M 628 4666 
L 1925 4666 
Q 3281 4666 3915 4102 
Q 4550 3538 4550 2338 
Q 4550 1131 3912 565 
Q 3275 0 1925 0 
L 628 0 
L 628 4666 
z
" id="DejaVuSans-44" transform="scale(0.015625)"/>
      <path d="M 2522 4238 
Q 1834 4238 1429 3725 
Q 1025 3213 1025 2328 
Q 1025 1447 1429 934 
Q 1834 422 2522 422 
Q 3209 422 3611 934 
Q 4013 1447 4013 2328 
Q 4013 3213 3611 3725 
Q 3209 4238 2522 4238 
z
M 2522 4750 
Q 3503 4750 4090 4092 
Q 4678 3434 4678 2328 
Q 4678 1225 4090 567 
Q 3503 -91 2522 -91 
Q 1538 -91 948 565 
Q 359 1222 359 2328 
Q 359 3434 948 4092 
Q 1538 4750 2522 4750 
z
" id="DejaVuSans-4f" transform="scale(0.015625)"/>
      <path d="M 628 4666 
L 1569 4666 
L 2759 1491 
L 3956 4666 
L 4897 4666 
L 4897 0 
L 4281 0 
L 4281 4097 
L 3078 897 
L 2444 897 
L 1241 4097 
L 1241 0 
L 628 0 
L 628 4666 
z
" id="DejaVuSans-4d" transform="scale(0.015625)"/>
      <path d="M 3425 4513 
L 3425 3897 
Q 3066 4069 2747 4153 
Q 2428 4238 2131 4238 
Q 1616 4238 1336 4038 
Q 1056 3838 1056 3469 
Q 1056 3159 1242 3001 
Q 1428 2844 1947 2747 
L 2328 2669 
Q 3034 2534 3370 2195 
Q 3706 1856 3706 1288 
Q 3706 609 3251 259 
Q 2797 -91 1919 -91 
Q 1588 -91 1214 -16 
Q 841 59 441 206 
L 441 856 
Q 825 641 1194 531 
Q 1563 422 1919 422 
Q 2459 422 2753 634 
Q 3047 847 3047 1241 
Q 3047 1584 2836 1778 
Q 2625 1972 2144 2069 
L 1759 2144 
Q 1053 2284 737 2584 
Q 422 2884 422 3419 
Q 422 4038 858 4394 
Q 1294 4750 2059 4750 
Q 2388 4750 2728 4690 
Q 3069 4631 3425 4513 
z
" id="DejaVuSans-53" transform="scale(0.015625)"/>
      <path d="M 628 4666 
L 3578 4666 
L 3578 4134 
L 1259 4134 
L 1259 2753 
L 3481 2753 
L 3481 2222 
L 1259 2222 
L 1259 531 
L 3634 531 
L 3634 0 
L 628 0 
L 628 4666 
z
" id="DejaVuSans-45" transform="scale(0.015625)"/>
     </defs>
     <use xlink:href="#DejaVuSans-52"/>
     <use x="65.482422" xlink:href="#DejaVuSans-41"/>
     <use x="133.890625" xlink:href="#DejaVuSans-4e"/>
     <use x="208.695312" xlink:href="#DejaVuSans-44"/>
     <use x="285.697266" xlink:href="#DejaVuSans-4f"/>
     <use x="364.408203" xlink:href="#DejaVuSans-4d"/>
     <use x="450.6875" xlink:href="#DejaVuSans-53"/>
     <use x="514.164062" xlink:href="#DejaVuSans-45"/>
     <use x="577.347656" xlink:href="#DejaVuSans-41"/>
    </g>
   </g>
   <g id="text_14">
    <!-- TPE-hyper -->
    <g transform="translate(375.22944 212.307571)scale(0.17 -0.17)">
     <defs>
      <path d="M -19 4666 
L 3928 4666 
L 3928 4134 
L 2272 4134 
L 2272 0 
L 1638 0 
L 1638 4134 
L -19 4134 
L -19 4666 
z
" id="DejaVuSans-54" transform="scale(0.015625)"/>
      <path d="M 1259 4147 
L 1259 2394 
L 2053 2394 
Q 2494 2394 2734 2622 
Q 2975 2850 2975 3272 
Q 2975 3691 2734 3919 
Q 2494 4147 2053 4147 
L 1259 4147 
z
M 628 4666 
L 2053 4666 
Q 2838 4666 3239 4311 
Q 3641 3956 3641 3272 
Q 3641 2581 3239 2228 
Q 2838 1875 2053 1875 
L 1259 1875 
L 1259 0 
L 628 0 
L 628 4666 
z
" id="DejaVuSans-50" transform="scale(0.015625)"/>
      <path d="M 3513 2113 
L 3513 0 
L 2938 0 
L 2938 2094 
Q 2938 2591 2744 2837 
Q 2550 3084 2163 3084 
Q 1697 3084 1428 2787 
Q 1159 2491 1159 1978 
L 1159 0 
L 581 0 
L 581 4863 
L 1159 4863 
L 1159 2956 
Q 1366 3272 1645 3428 
Q 1925 3584 2291 3584 
Q 2894 3584 3203 3211 
Q 3513 2838 3513 2113 
z
" id="DejaVuSans-68" transform="scale(0.015625)"/>
      <path d="M 2059 -325 
Q 1816 -950 1584 -1140 
Q 1353 -1331 966 -1331 
L 506 -1331 
L 506 -850 
L 844 -850 
Q 1081 -850 1212 -737 
Q 1344 -625 1503 -206 
L 1606 56 
L 191 3500 
L 800 3500 
L 1894 763 
L 2988 3500 
L 3597 3500 
L 2059 -325 
z
" id="DejaVuSans-79" transform="scale(0.015625)"/>
     </defs>
     <use xlink:href="#DejaVuSans-54"/>
     <use x="61.083984" xlink:href="#DejaVuSans-50"/>
     <use x="121.386719" xlink:href="#DejaVuSans-45"/>
     <use x="184.570312" xlink:href="#DejaVuSans-2d"/>
     <use x="220.654297" xlink:href="#DejaVuSans-68"/>
     <use x="284.033203" xlink:href="#DejaVuSans-79"/>
     <use x="343.212891" xlink:href="#DejaVuSans-70"/>
     <use x="406.689453" xlink:href="#DejaVuSans-65"/>
     <use x="468.212891" xlink:href="#DejaVuSans-72"/>
    </g>
   </g>
   <g id="text_15">
    <!-- CMA-ES-py -->
    <g transform="translate(375.22944 126.352403)scale(0.17 -0.17)">
     <defs>
      <path d="M 4122 4306 
L 4122 3641 
Q 3803 3938 3442 4084 
Q 3081 4231 2675 4231 
Q 1875 4231 1450 3742 
Q 1025 3253 1025 2328 
Q 1025 1406 1450 917 
Q 1875 428 2675 428 
Q 3081 428 3442 575 
Q 3803 722 4122 1019 
L 4122 359 
Q 3791 134 3420 21 
Q 3050 -91 2638 -91 
Q 1578 -91 968 557 
Q 359 1206 359 2328 
Q 359 3453 968 4101 
Q 1578 4750 2638 4750 
Q 3056 4750 3426 4639 
Q 3797 4528 4122 4306 
z
" id="DejaVuSans-43" transform="scale(0.015625)"/>
     </defs>
     <use xlink:href="#DejaVuSans-43"/>
     <use x="69.824219" xlink:href="#DejaVuSans-4d"/>
     <use x="156.103516" xlink:href="#DejaVuSans-41"/>
     <use x="222.261719" xlink:href="#DejaVuSans-2d"/>
     <use x="258.345703" xlink:href="#DejaVuSans-45"/>
     <use x="321.529297" xlink:href="#DejaVuSans-53"/>
     <use x="385.005859" xlink:href="#DejaVuSans-2d"/>
     <use x="421.089844" xlink:href="#DejaVuSans-70"/>
     <use x="484.566406" xlink:href="#DejaVuSans-79"/>
    </g>
   </g>
   <g id="text_16">
    <!-- DE-scipy -->
    <g transform="translate(375.22944 40.397235)scale(0.17 -0.17)">
     <use xlink:href="#DejaVuSans-44"/>
     <use x="77.001953" xlink:href="#DejaVuSans-45"/>
     <use x="140.185547" xlink:href="#DejaVuSans-2d"/>
     <use x="176.269531" xlink:href="#DejaVuSans-73"/>
     <use x="228.369141" xlink:href="#DejaVuSans-63"/>
     <use x="283.349609" xlink:href="#DejaVuSans-69"/>
     <use x="311.132812" xlink:href="#DejaVuSans-70"/>
     <use x="374.609375" xlink:href="#DejaVuSans-79"/>
    </g>
   </g>
   <g id="text_17">
    <!-- bbob-mixint f1, 20-D -->
    <g transform="translate(60.41088 38.111366)scale(0.102 -0.102)">
     <defs>
      <path d="M 3116 1747 
Q 3116 2381 2855 2742 
Q 2594 3103 2138 3103 
Q 1681 3103 1420 2742 
Q 1159 2381 1159 1747 
Q 1159 1113 1420 752 
Q 1681 391 2138 391 
Q 2594 391 2855 752 
Q 3116 1113 3116 1747 
z
M 1159 2969 
Q 1341 3281 1617 3432 
Q 1894 3584 2278 3584 
Q 2916 3584 3314 3078 
Q 3713 2572 3713 1747 
Q 3713 922 3314 415 
Q 2916 -91 2278 -91 
Q 1894 -91 1617 61 
Q 1341 213 1159 525 
L 1159 0 
L 581 0 
L 581 4863 
L 1159 4863 
L 1159 2969 
z
" id="DejaVuSans-62" transform="scale(0.015625)"/>
      <path d="M 3513 3500 
L 2247 1797 
L 3578 0 
L 2900 0 
L 1881 1375 
L 863 0 
L 184 0 
L 1544 1831 
L 300 3500 
L 978 3500 
L 1906 2253 
L 2834 3500 
L 3513 3500 
z
" id="DejaVuSans-78" transform="scale(0.015625)"/>
     </defs>
     <use xlink:href="#DejaVuSans-62"/>
     <use x="63.476562" xlink:href="#DejaVuSans-62"/>
     <use x="126.953125" xlink:href="#DejaVuSans-6f"/>
     <use x="188.134766" xlink:href="#DejaVuSans-62"/>
     <use x="251.611328" xlink:href="#DejaVuSans-2d"/>
     <use x="287.695312" xlink:href="#DejaVuSans-6d"/>
     <use x="385.107422" xlink:href="#DejaVuSans-69"/>
     <use x="412.890625" xlink:href="#DejaVuSans-78"/>
     <use x="472.070312" xlink:href="#DejaVuSans-69"/>
     <use x="499.853516" xlink:href="#DejaVuSans-6e"/>
     <use x="563.232422" xlink:href="#DejaVuSans-74"/>
     <use x="602.441406" xlink:href="#DejaVuSans-20"/>
     <use x="634.228516" xlink:href="#DejaVuSans-66"/>
     <use x="669.433594" xlink:href="#DejaVuSans-31"/>
     <use x="733.056641" xlink:href="#DejaVuSans-2c"/>
     <use x="764.84375" xlink:href="#DejaVuSans-20"/>
     <use x="796.630859" xlink:href="#DejaVuSans-32"/>
     <use x="860.253906" xlink:href="#DejaVuSans-30"/>
     <use x="923.876953" xlink:href="#DejaVuSans-2d"/>
     <use x="959.960938" xlink:href="#DejaVuSans-44"/>
    </g>
    <!-- 51 targets: 100..1e-08 -->
    <g transform="translate(60.41088 49.533135)scale(0.102 -0.102)">
     <defs>
      <path d="M 691 4666 
L 3169 4666 
L 3169 4134 
L 1269 4134 
L 1269 2991 
Q 1406 3038 1543 3061 
Q 1681 3084 1819 3084 
Q 2600 3084 3056 2656 
Q 3513 2228 3513 1497 
Q 3513 744 3044 326 
Q 2575 -91 1722 -91 
Q 1428 -91 1123 -41 
Q 819 9 494 109 
L 494 744 
Q 775 591 1075 516 
Q 1375 441 1709 441 
Q 2250 441 2565 725 
Q 2881 1009 2881 1497 
Q 2881 1984 2565 2268 
Q 2250 2553 1709 2553 
Q 1456 2553 1204 2497 
Q 953 2441 691 2322 
L 691 4666 
z
" id="DejaVuSans-35" transform="scale(0.015625)"/>
      <path d="M 750 794 
L 1409 794 
L 1409 0 
L 750 0 
L 750 794 
z
M 750 3309 
L 1409 3309 
L 1409 2516 
L 750 2516 
L 750 3309 
z
" id="DejaVuSans-3a" transform="scale(0.015625)"/>
     </defs>
     <use xlink:href="#DejaVuSans-35"/>
     <use x="63.623047" xlink:href="#DejaVuSans-31"/>
     <use x="127.246094" xlink:href="#DejaVuSans-20"/>
     <use x="159.033203" xlink:href="#DejaVuSans-74"/>
     <use x="198.242188" xlink:href="#DejaVuSans-61"/>
     <use x="259.521484" xlink:href="#DejaVuSans-72"/>
     <use x="298.884766" xlink:href="#DejaVuSans-67"/>
     <use x="362.361328" xlink:href="#DejaVuSans-65"/>
     <use x="423.884766" xlink:href="#DejaVuSans-74"/>
     <use x="463.09375" xlink:href="#DejaVuSans-73"/>
     <use x="515.193359" xlink:href="#DejaVuSans-3a"/>
     <use x="548.884766" xlink:href="#DejaVuSans-20"/>
     <use x="580.671875" xlink:href="#DejaVuSans-31"/>
     <use x="644.294922" xlink:href="#DejaVuSans-30"/>
     <use x="707.917969" xlink:href="#DejaVuSans-30"/>
     <use x="771.541016" xlink:href="#DejaVuSans-2e"/>
     <use x="803.328125" xlink:href="#DejaVuSans-2e"/>
     <use x="835.115234" xlink:href="#DejaVuSans-31"/>
     <use x="898.738281" xlink:href="#DejaVuSans-65"/>
     <use x="960.261719" xlink:href="#DejaVuSans-2d"/>
     <use x="996.345703" xlink:href="#DejaVuSans-30"/>
     <use x="1059.96875" xlink:href="#DejaVuSans-38"/>
    </g>
    <!-- 15 instances -->
    <g transform="translate(60.41088 60.954904)scale(0.102 -0.102)">
     <use xlink:href="#DejaVuSans-31"/>
     <use x="63.623047" xlink:href="#DejaVuSans-35"/>
     <use x="127.246094" xlink:href="#DejaVuSans-20"/>
     <use x="159.033203" xlink:href="#DejaVuSans-69"/>
     <use x="186.816406" xlink:href="#DejaVuSans-6e"/>
     <use x="250.195312" xlink:href="#DejaVuSans-73"/>
     <use x="302.294922" xlink:href="#DejaVuSans-74"/>
     <use x="341.503906" xlink:href="#DejaVuSans-61"/>
     <use x="402.783203" xlink:href="#DejaVuSans-6e"/>
     <use x="466.162109" xlink:href="#DejaVuSans-63"/>
     <use x="521.142578" xlink:href="#DejaVuSans-65"/>
     <use x="582.666016" xlink:href="#DejaVuSans-73"/>
    </g>
   </g>
   <g id="text_18">
    <!-- v2.4.1.1 -->
    <g style="fill:#808080;" transform="translate(177.692437 294.151352)scale(0.1 -0.1)">
     <use xlink:href="#DejaVuSans-76"/>
     <use x="59.179688" xlink:href="#DejaVuSans-32"/>
     <use x="122.802734" xlink:href="#DejaVuSans-2e"/>
     <use x="154.589844" xlink:href="#DejaVuSans-34"/>
     <use x="218.212891" xlink:href="#DejaVuSans-2e"/>
     <use x="250" xlink:href="#DejaVuSans-31"/>
     <use x="313.623047" xlink:href="#DejaVuSans-2e"/>
     <use x="345.410156" xlink:href="#DejaVuSans-31"/>
    </g>
   </g>
   <g id="text_19">
    <!-- 1 Sphere -->
    <g transform="translate(153.376812 21.648)scale(0.2 -0.2)">
     <use xlink:href="#DejaVuSans-31"/>
     <use x="63.623047" xlink:href="#DejaVuSans-20"/>
     <use x="95.410156" xlink:href="#DejaVuSans-53"/>
     <use x="158.886719" xlink:href="#DejaVuSans-70"/>
     <use x="222.363281" xlink:href="#DejaVuSans-68"/>
     <use x="285.742188" xlink:href="#DejaVuSans-65"/>
     <use x="347.265625" xlink:href="#DejaVuSans-72"/>
     <use x="386.128906" xlink:href="#DejaVuSans-65"/>
    </g>
   </g>
  </g>
 </g>
 <defs>
  <clipPath id="p7fb64dc5c4">
   <rect height="271.296" width="281.088" x="57.6" y="27.648"/>
  </clipPath>
 </defs>
</svg>
