<?xml version="1.0" encoding="utf-8" standalone="no"?>
<!DOCTYPE svg PUBLIC "-//W3C//DTD SVG 1.1//EN"
  "http://www.w3.org/Graphics/SVG/1.1/DTD/svg11.dtd">
<svg height="345.6pt" version="1.1" viewBox="0 0 460.8 345.6" width="460.8pt" xmlns="http://www.w3.org/2000/svg" xmlns:xlink="http://www.w3.org/1999/xlink">
 <metadata>
  <rdf:RDF xmlns:cc="http://creativecommons.org/ns#" xmlns:dc="http://purl.org/dc/elements/1.1/" xmlns:rdf="http://www.w3.org/1999/02/22-rdf-syntax-ns#">
   <cc:Work>
    <dc:type rdf:resource="http://purl.org/dc/dcmitype/StillImage"/>
    <dc:date>2022-03-29T13:03:23.705012</dc:date>
    <dc:format>image/svg+xml</dc:format>
    <dc:creator>
     <cc:Agent>
      <dc:title>Matplotlib v3.4.3, https://matplotlib.org/</dc:title>
     </cc:Agent>
    </dc:creator>
   </cc:Work>
  </rdf:RDF>
 </metadata>
 <defs>
  <style type="text/css">*{stroke-linecap:butt;stroke-linejoin:round;}</style>
 </defs>
 <g id="figure_1">
  <g id="patch_1">
   <path d="M 0 345.6 
L 460.8 345.6 
L 460.8 0 
L 0 0 
z
" style="fill:#ffffff;"/>
  </g>
  <g id="axes_1">
   <g id="patch_2">
    <path d="M 57.6 298.944 
L 338.688 298.944 
L 338.688 27.648 
L 57.6 27.648 
z
" style="fill:#ffffff;"/>
   </g>
   <g id="matplotlib.axis_1">
    <g id="xtick_1">
     <g id="line2d_1">
      <path clip-path="url(#p33616a0eb8)" d="M 57.6 298.944 
L 57.6 27.648 
" style="fill:none;stroke:#b0b0b0;stroke-linecap:square;stroke-width:0.8;"/>
     </g>
     <g id="line2d_2">
      <defs>
       <path d="M 0 0 
L 0 3.5 
" id="mb89f636208" style="stroke:#000000;stroke-width:0.8;"/>
      </defs>
      <g>
       <use style="stroke:#000000;stroke-width:0.8;" x="57.6" xlink:href="#mb89f636208" y="298.944"/>
      </g>
     </g>
     <g id="text_1">
      <!-- 0 -->
      <g transform="translate(51.2375 321.140875)scale(0.2 -0.2)">
       <defs>
        <path d="M 2034 4250 
Q 1547 4250 1301 3770 
Q 1056 3291 1056 2328 
Q 1056 1369 1301 889 
Q 1547 409 2034 409 
Q 2525 409 2770 889 
Q 3016 1369 3016 2328 
Q 3016 3291 2770 3770 
Q 2525 4250 2034 4250 
z
M 2034 4750 
Q 2819 4750 3233 4129 
Q 3647 3509 3647 2328 
Q 3647 1150 3233 529 
Q 2819 -91 2034 -91 
Q 1250 -91 836 529 
Q 422 1150 422 2328 
Q 422 3509 836 4129 
Q 1250 4750 2034 4750 
z
" id="DejaVuSans-30" transform="scale(0.015625)"/>
       </defs>
       <use xlink:href="#DejaVuSans-30"/>
      </g>
     </g>
    </g>
    <g id="xtick_2">
     <g id="line2d_3">
      <path clip-path="url(#p33616a0eb8)" d="M 137.910857 298.944 
L 137.910857 27.648 
" style="fill:none;stroke:#b0b0b0;stroke-linecap:square;stroke-width:0.8;"/>
     </g>
     <g id="line2d_4">
      <g>
       <use style="stroke:#000000;stroke-width:0.8;" x="137.910857" xlink:href="#mb89f636208" y="298.944"/>
      </g>
     </g>
     <g id="text_2">
      <!-- 2 -->
      <g transform="translate(131.548357 321.140875)scale(0.2 -0.2)">
       <defs>
        <path d="M 1228 531 
L 3431 531 
L 3431 0 
L 469 0 
L 469 531 
Q 828 903 1448 1529 
Q 2069 2156 2228 2338 
Q 2531 2678 2651 2914 
Q 2772 3150 2772 3378 
Q 2772 3750 2511 3984 
Q 2250 4219 1831 4219 
Q 1534 4219 1204 4116 
Q 875 4013 500 3803 
L 500 4441 
Q 881 4594 1212 4672 
Q 1544 4750 1819 4750 
Q 2544 4750 2975 4387 
Q 3406 4025 3406 3419 
Q 3406 3131 3298 2873 
Q 3191 2616 2906 2266 
Q 2828 2175 2409 1742 
Q 1991 1309 1228 531 
z
" id="DejaVuSans-32" transform="scale(0.015625)"/>
       </defs>
       <use xlink:href="#DejaVuSans-32"/>
      </g>
     </g>
    </g>
    <g id="xtick_3">
     <g id="line2d_5">
      <path clip-path="url(#p33616a0eb8)" d="M 218.221714 298.944 
L 218.221714 27.648 
" style="fill:none;stroke:#b0b0b0;stroke-linecap:square;stroke-width:0.8;"/>
     </g>
     <g id="line2d_6">
      <g>
       <use style="stroke:#000000;stroke-width:0.8;" x="218.221714" xlink:href="#mb89f636208" y="298.944"/>
      </g>
     </g>
     <g id="text_3">
      <!-- 4 -->
      <g transform="translate(211.859214 321.140875)scale(0.2 -0.2)">
       <defs>
        <path d="M 2419 4116 
L 825 1625 
L 2419 1625 
L 2419 4116 
z
M 2253 4666 
L 3047 4666 
L 3047 1625 
L 3713 1625 
L 3713 1100 
L 3047 1100 
L 3047 0 
L 2419 0 
L 2419 1100 
L 313 1100 
L 313 1709 
L 2253 4666 
z
" id="DejaVuSans-34" transform="scale(0.015625)"/>
       </defs>
       <use xlink:href="#DejaVuSans-34"/>
      </g>
     </g>
    </g>
    <g id="xtick_4">
     <g id="line2d_7">
      <path clip-path="url(#p33616a0eb8)" d="M 298.532571 298.944 
L 298.532571 27.648 
" style="fill:none;stroke:#b0b0b0;stroke-linecap:square;stroke-width:0.8;"/>
     </g>
     <g id="line2d_8">
      <g>
       <use style="stroke:#000000;stroke-width:0.8;" x="298.532571" xlink:href="#mb89f636208" y="298.944"/>
      </g>
     </g>
     <g id="text_4">
      <!-- 6 -->
      <g transform="translate(292.170071 321.140875)scale(0.2 -0.2)">
       <defs>
        <path d="M 2113 2584 
Q 1688 2584 1439 2293 
Q 1191 2003 1191 1497 
Q 1191 994 1439 701 
Q 1688 409 2113 409 
Q 2538 409 2786 701 
Q 3034 994 3034 1497 
Q 3034 2003 2786 2293 
Q 2538 2584 2113 2584 
z
M 3366 4563 
L 3366 3988 
Q 3128 4100 2886 4159 
Q 2644 4219 2406 4219 
Q 1781 4219 1451 3797 
Q 1122 3375 1075 2522 
Q 1259 2794 1537 2939 
Q 1816 3084 2150 3084 
Q 2853 3084 3261 2657 
Q 3669 2231 3669 1497 
Q 3669 778 3244 343 
Q 2819 -91 2113 -91 
Q 1303 -91 875 529 
Q 447 1150 447 2328 
Q 447 3434 972 4092 
Q 1497 4750 2381 4750 
Q 2619 4750 2861 4703 
Q 3103 4656 3366 4563 
z
" id="DejaVuSans-36" transform="scale(0.015625)"/>
       </defs>
       <use xlink:href="#DejaVuSans-36"/>
      </g>
     </g>
    </g>
    <g id="xtick_5">
     <g id="line2d_9">
      <path clip-path="url(#p33616a0eb8)" d="M 97.755429 298.944 
L 97.755429 27.648 
" style="fill:none;stroke:#b0b0b0;stroke-linecap:square;stroke-width:0.8;"/>
     </g>
     <g id="line2d_10">
      <defs>
       <path d="M 0 0 
L 0 2 
" id="meefbd6e8e4" style="stroke:#000000;stroke-width:0.6;"/>
      </defs>
      <g>
       <use style="stroke:#000000;stroke-width:0.6;" x="97.755429" xlink:href="#meefbd6e8e4" y="298.944"/>
      </g>
     </g>
    </g>
    <g id="xtick_6">
     <g id="line2d_11">
      <path clip-path="url(#p33616a0eb8)" d="M 178.066286 298.944 
L 178.066286 27.648 
" style="fill:none;stroke:#b0b0b0;stroke-linecap:square;stroke-width:0.8;"/>
     </g>
     <g id="line2d_12">
      <g>
       <use style="stroke:#000000;stroke-width:0.6;" x="178.066286" xlink:href="#meefbd6e8e4" y="298.944"/>
      </g>
     </g>
    </g>
    <g id="xtick_7">
     <g id="line2d_13">
      <path clip-path="url(#p33616a0eb8)" d="M 258.377143 298.944 
L 258.377143 27.648 
" style="fill:none;stroke:#b0b0b0;stroke-linecap:square;stroke-width:0.8;"/>
     </g>
     <g id="line2d_14">
      <g>
       <use style="stroke:#000000;stroke-width:0.6;" x="258.377143" xlink:href="#meefbd6e8e4" y="298.944"/>
      </g>
     </g>
    </g>
    <g id="xtick_8">
     <g id="line2d_15">
      <path clip-path="url(#p33616a0eb8)" d="M 338.688 298.944 
L 338.688 27.648 
" style="fill:none;stroke:#b0b0b0;stroke-linecap:square;stroke-width:0.8;"/>
     </g>
     <g id="line2d_16">
      <g>
       <use style="stroke:#000000;stroke-width:0.6;" x="338.688" xlink:href="#meefbd6e8e4" y="298.944"/>
      </g>
     </g>
    </g>
    <g id="text_5">
     <!-- log10(# f-evals / dimension) -->
     <g transform="translate(77.764078 342.217594)scale(0.17 -0.17)">
      <defs>
       <path d="M 603 4863 
L 1178 4863 
L 1178 0 
L 603 0 
L 603 4863 
z
" id="DejaVuSans-6c" transform="scale(0.015625)"/>
       <path d="M 1959 3097 
Q 1497 3097 1228 2736 
Q 959 2375 959 1747 
Q 959 1119 1226 758 
Q 1494 397 1959 397 
Q 2419 397 2687 759 
Q 2956 1122 2956 1747 
Q 2956 2369 2687 2733 
Q 2419 3097 1959 3097 
z
M 1959 3584 
Q 2709 3584 3137 3096 
Q 3566 2609 3566 1747 
Q 3566 888 3137 398 
Q 2709 -91 1959 -91 
Q 1206 -91 779 398 
Q 353 888 353 1747 
Q 353 2609 779 3096 
Q 1206 3584 1959 3584 
z
" id="DejaVuSans-6f" transform="scale(0.015625)"/>
       <path d="M 2906 1791 
Q 2906 2416 2648 2759 
Q 2391 3103 1925 3103 
Q 1463 3103 1205 2759 
Q 947 2416 947 1791 
Q 947 1169 1205 825 
Q 1463 481 1925 481 
Q 2391 481 2648 825 
Q 2906 1169 2906 1791 
z
M 3481 434 
Q 3481 -459 3084 -895 
Q 2688 -1331 1869 -1331 
Q 1566 -1331 1297 -1286 
Q 1028 -1241 775 -1147 
L 775 -588 
Q 1028 -725 1275 -790 
Q 1522 -856 1778 -856 
Q 2344 -856 2625 -561 
Q 2906 -266 2906 331 
L 2906 616 
Q 2728 306 2450 153 
Q 2172 0 1784 0 
Q 1141 0 747 490 
Q 353 981 353 1791 
Q 353 2603 747 3093 
Q 1141 3584 1784 3584 
Q 2172 3584 2450 3431 
Q 2728 3278 2906 2969 
L 2906 3500 
L 3481 3500 
L 3481 434 
z
" id="DejaVuSans-67" transform="scale(0.015625)"/>
       <path d="M 794 531 
L 1825 531 
L 1825 4091 
L 703 3866 
L 703 4441 
L 1819 4666 
L 2450 4666 
L 2450 531 
L 3481 531 
L 3481 0 
L 794 0 
L 794 531 
z
" id="DejaVuSans-31" transform="scale(0.015625)"/>
       <path d="M 1984 4856 
Q 1566 4138 1362 3434 
Q 1159 2731 1159 2009 
Q 1159 1288 1364 580 
Q 1569 -128 1984 -844 
L 1484 -844 
Q 1016 -109 783 600 
Q 550 1309 550 2009 
Q 550 2706 781 3412 
Q 1013 4119 1484 4856 
L 1984 4856 
z
" id="DejaVuSans-28" transform="scale(0.015625)"/>
       <path d="M 3272 2816 
L 2363 2816 
L 2100 1772 
L 3016 1772 
L 3272 2816 
z
M 2803 4594 
L 2478 3297 
L 3391 3297 
L 3719 4594 
L 4219 4594 
L 3897 3297 
L 4872 3297 
L 4872 2816 
L 3775 2816 
L 3519 1772 
L 4513 1772 
L 4513 1294 
L 3397 1294 
L 3072 0 
L 2572 0 
L 2894 1294 
L 1978 1294 
L 1656 0 
L 1153 0 
L 1478 1294 
L 494 1294 
L 494 1772 
L 1594 1772 
L 1856 2816 
L 850 2816 
L 850 3297 
L 1978 3297 
L 2297 4594 
L 2803 4594 
z
" id="DejaVuSans-23" transform="scale(0.015625)"/>
       <path id="DejaVuSans-20" transform="scale(0.015625)"/>
       <path d="M 2375 4863 
L 2375 4384 
L 1825 4384 
Q 1516 4384 1395 4259 
Q 1275 4134 1275 3809 
L 1275 3500 
L 2222 3500 
L 2222 3053 
L 1275 3053 
L 1275 0 
L 697 0 
L 697 3053 
L 147 3053 
L 147 3500 
L 697 3500 
L 697 3744 
Q 697 4328 969 4595 
Q 1241 4863 1831 4863 
L 2375 4863 
z
" id="DejaVuSans-66" transform="scale(0.015625)"/>
       <path d="M 313 2009 
L 1997 2009 
L 1997 1497 
L 313 1497 
L 313 2009 
z
" id="DejaVuSans-2d" transform="scale(0.015625)"/>
       <path d="M 3597 1894 
L 3597 1613 
L 953 1613 
Q 991 1019 1311 708 
Q 1631 397 2203 397 
Q 2534 397 2845 478 
Q 3156 559 3463 722 
L 3463 178 
Q 3153 47 2828 -22 
Q 2503 -91 2169 -91 
Q 1331 -91 842 396 
Q 353 884 353 1716 
Q 353 2575 817 3079 
Q 1281 3584 2069 3584 
Q 2775 3584 3186 3129 
Q 3597 2675 3597 1894 
z
M 3022 2063 
Q 3016 2534 2758 2815 
Q 2500 3097 2075 3097 
Q 1594 3097 1305 2825 
Q 1016 2553 972 2059 
L 3022 2063 
z
" id="DejaVuSans-65" transform="scale(0.015625)"/>
       <path d="M 191 3500 
L 800 3500 
L 1894 563 
L 2988 3500 
L 3597 3500 
L 2284 0 
L 1503 0 
L 191 3500 
z
" id="DejaVuSans-76" transform="scale(0.015625)"/>
       <path d="M 2194 1759 
Q 1497 1759 1228 1600 
Q 959 1441 959 1056 
Q 959 750 1161 570 
Q 1363 391 1709 391 
Q 2188 391 2477 730 
Q 2766 1069 2766 1631 
L 2766 1759 
L 2194 1759 
z
M 3341 1997 
L 3341 0 
L 2766 0 
L 2766 531 
Q 2569 213 2275 61 
Q 1981 -91 1556 -91 
Q 1019 -91 701 211 
Q 384 513 384 1019 
Q 384 1609 779 1909 
Q 1175 2209 1959 2209 
L 2766 2209 
L 2766 2266 
Q 2766 2663 2505 2880 
Q 2244 3097 1772 3097 
Q 1472 3097 1187 3025 
Q 903 2953 641 2809 
L 641 3341 
Q 956 3463 1253 3523 
Q 1550 3584 1831 3584 
Q 2591 3584 2966 3190 
Q 3341 2797 3341 1997 
z
" id="DejaVuSans-61" transform="scale(0.015625)"/>
       <path d="M 2834 3397 
L 2834 2853 
Q 2591 2978 2328 3040 
Q 2066 3103 1784 3103 
Q 1356 3103 1142 2972 
Q 928 2841 928 2578 
Q 928 2378 1081 2264 
Q 1234 2150 1697 2047 
L 1894 2003 
Q 2506 1872 2764 1633 
Q 3022 1394 3022 966 
Q 3022 478 2636 193 
Q 2250 -91 1575 -91 
Q 1294 -91 989 -36 
Q 684 19 347 128 
L 347 722 
Q 666 556 975 473 
Q 1284 391 1588 391 
Q 1994 391 2212 530 
Q 2431 669 2431 922 
Q 2431 1156 2273 1281 
Q 2116 1406 1581 1522 
L 1381 1569 
Q 847 1681 609 1914 
Q 372 2147 372 2553 
Q 372 3047 722 3315 
Q 1072 3584 1716 3584 
Q 2034 3584 2315 3537 
Q 2597 3491 2834 3397 
z
" id="DejaVuSans-73" transform="scale(0.015625)"/>
       <path d="M 1625 4666 
L 2156 4666 
L 531 -594 
L 0 -594 
L 1625 4666 
z
" id="DejaVuSans-2f" transform="scale(0.015625)"/>
       <path d="M 2906 2969 
L 2906 4863 
L 3481 4863 
L 3481 0 
L 2906 0 
L 2906 525 
Q 2725 213 2448 61 
Q 2172 -91 1784 -91 
Q 1150 -91 751 415 
Q 353 922 353 1747 
Q 353 2572 751 3078 
Q 1150 3584 1784 3584 
Q 2172 3584 2448 3432 
Q 2725 3281 2906 2969 
z
M 947 1747 
Q 947 1113 1208 752 
Q 1469 391 1925 391 
Q 2381 391 2643 752 
Q 2906 1113 2906 1747 
Q 2906 2381 2643 2742 
Q 2381 3103 1925 3103 
Q 1469 3103 1208 2742 
Q 947 2381 947 1747 
z
" id="DejaVuSans-64" transform="scale(0.015625)"/>
       <path d="M 603 3500 
L 1178 3500 
L 1178 0 
L 603 0 
L 603 3500 
z
M 603 4863 
L 1178 4863 
L 1178 4134 
L 603 4134 
L 603 4863 
z
" id="DejaVuSans-69" transform="scale(0.015625)"/>
       <path d="M 3328 2828 
Q 3544 3216 3844 3400 
Q 4144 3584 4550 3584 
Q 5097 3584 5394 3201 
Q 5691 2819 5691 2113 
L 5691 0 
L 5113 0 
L 5113 2094 
Q 5113 2597 4934 2840 
Q 4756 3084 4391 3084 
Q 3944 3084 3684 2787 
Q 3425 2491 3425 1978 
L 3425 0 
L 2847 0 
L 2847 2094 
Q 2847 2600 2669 2842 
Q 2491 3084 2119 3084 
Q 1678 3084 1418 2786 
Q 1159 2488 1159 1978 
L 1159 0 
L 581 0 
L 581 3500 
L 1159 3500 
L 1159 2956 
Q 1356 3278 1631 3431 
Q 1906 3584 2284 3584 
Q 2666 3584 2933 3390 
Q 3200 3197 3328 2828 
z
" id="DejaVuSans-6d" transform="scale(0.015625)"/>
       <path d="M 3513 2113 
L 3513 0 
L 2938 0 
L 2938 2094 
Q 2938 2591 2744 2837 
Q 2550 3084 2163 3084 
Q 1697 3084 1428 2787 
Q 1159 2491 1159 1978 
L 1159 0 
L 581 0 
L 581 3500 
L 1159 3500 
L 1159 2956 
Q 1366 3272 1645 3428 
Q 1925 3584 2291 3584 
Q 2894 3584 3203 3211 
Q 3513 2838 3513 2113 
z
" id="DejaVuSans-6e" transform="scale(0.015625)"/>
       <path d="M 513 4856 
L 1013 4856 
Q 1481 4119 1714 3412 
Q 1947 2706 1947 2009 
Q 1947 1309 1714 600 
Q 1481 -109 1013 -844 
L 513 -844 
Q 928 -128 1133 580 
Q 1338 1288 1338 2009 
Q 1338 2731 1133 3434 
Q 928 4138 513 4856 
z
" id="DejaVuSans-29" transform="scale(0.015625)"/>
      </defs>
      <use xlink:href="#DejaVuSans-6c"/>
      <use x="27.783203" xlink:href="#DejaVuSans-6f"/>
      <use x="88.964844" xlink:href="#DejaVuSans-67"/>
      <use x="152.441406" xlink:href="#DejaVuSans-31"/>
      <use x="216.064453" xlink:href="#DejaVuSans-30"/>
      <use x="279.6875" xlink:href="#DejaVuSans-28"/>
      <use x="318.701172" xlink:href="#DejaVuSans-23"/>
      <use x="402.490234" xlink:href="#DejaVuSans-20"/>
      <use x="434.277344" xlink:href="#DejaVuSans-66"/>
      <use x="463.982422" xlink:href="#DejaVuSans-2d"/>
      <use x="500.066406" xlink:href="#DejaVuSans-65"/>
      <use x="561.589844" xlink:href="#DejaVuSans-76"/>
      <use x="620.769531" xlink:href="#DejaVuSans-61"/>
      <use x="682.048828" xlink:href="#DejaVuSans-6c"/>
      <use x="709.832031" xlink:href="#DejaVuSans-73"/>
      <use x="761.931641" xlink:href="#DejaVuSans-20"/>
      <use x="793.71875" xlink:href="#DejaVuSans-2f"/>
      <use x="827.410156" xlink:href="#DejaVuSans-20"/>
      <use x="859.197266" xlink:href="#DejaVuSans-64"/>
      <use x="922.673828" xlink:href="#DejaVuSans-69"/>
      <use x="950.457031" xlink:href="#DejaVuSans-6d"/>
      <use x="1047.869141" xlink:href="#DejaVuSans-65"/>
      <use x="1109.392578" xlink:href="#DejaVuSans-6e"/>
      <use x="1172.771484" xlink:href="#DejaVuSans-73"/>
      <use x="1224.871094" xlink:href="#DejaVuSans-69"/>
      <use x="1252.654297" xlink:href="#DejaVuSans-6f"/>
      <use x="1313.835938" xlink:href="#DejaVuSans-6e"/>
      <use x="1377.214844" xlink:href="#DejaVuSans-29"/>
     </g>
    </g>
   </g>
   <g id="matplotlib.axis_2">
    <g id="ytick_1">
     <g id="line2d_17">
      <path clip-path="url(#p33616a0eb8)" d="M 57.6 298.944 
L 338.688 298.944 
" style="fill:none;stroke:#b0b0b0;stroke-linecap:square;stroke-width:0.8;"/>
     </g>
     <g id="line2d_18">
      <defs>
       <path d="M 0 0 
L -3.5 0 
" id="m3337ae1dc5" style="stroke:#000000;stroke-width:0.8;"/>
      </defs>
      <g>
       <use style="stroke:#000000;stroke-width:0.8;" x="57.6" xlink:href="#m3337ae1dc5" y="298.944"/>
      </g>
     </g>
     <g id="text_6">
      <!-- 0.0 -->
      <g transform="translate(25.155 305.02275)scale(0.16 -0.16)">
       <defs>
        <path d="M 684 794 
L 1344 794 
L 1344 0 
L 684 0 
L 684 794 
z
" id="DejaVuSans-2e" transform="scale(0.015625)"/>
       </defs>
       <use xlink:href="#DejaVuSans-30"/>
       <use x="63.623047" xlink:href="#DejaVuSans-2e"/>
       <use x="95.410156" xlink:href="#DejaVuSans-30"/>
      </g>
     </g>
    </g>
    <g id="ytick_2">
     <g id="line2d_19">
      <path clip-path="url(#p33616a0eb8)" d="M 57.6 245.22202 
L 338.688 245.22202 
" style="fill:none;stroke:#b0b0b0;stroke-linecap:square;stroke-width:0.8;"/>
     </g>
     <g id="line2d_20">
      <g>
       <use style="stroke:#000000;stroke-width:0.8;" x="57.6" xlink:href="#m3337ae1dc5" y="245.22202"/>
      </g>
     </g>
     <g id="text_7">
      <!-- 0.2 -->
      <g transform="translate(25.155 251.30077)scale(0.16 -0.16)">
       <use xlink:href="#DejaVuSans-30"/>
       <use x="63.623047" xlink:href="#DejaVuSans-2e"/>
       <use x="95.410156" xlink:href="#DejaVuSans-32"/>
      </g>
     </g>
    </g>
    <g id="ytick_3">
     <g id="line2d_21">
      <path clip-path="url(#p33616a0eb8)" d="M 57.6 191.50004 
L 338.688 191.50004 
" style="fill:none;stroke:#b0b0b0;stroke-linecap:square;stroke-width:0.8;"/>
     </g>
     <g id="line2d_22">
      <g>
       <use style="stroke:#000000;stroke-width:0.8;" x="57.6" xlink:href="#m3337ae1dc5" y="191.50004"/>
      </g>
     </g>
     <g id="text_8">
      <!-- 0.4 -->
      <g transform="translate(25.155 197.57879)scale(0.16 -0.16)">
       <use xlink:href="#DejaVuSans-30"/>
       <use x="63.623047" xlink:href="#DejaVuSans-2e"/>
       <use x="95.410156" xlink:href="#DejaVuSans-34"/>
      </g>
     </g>
    </g>
    <g id="ytick_4">
     <g id="line2d_23">
      <path clip-path="url(#p33616a0eb8)" d="M 57.6 137.778059 
L 338.688 137.778059 
" style="fill:none;stroke:#b0b0b0;stroke-linecap:square;stroke-width:0.8;"/>
     </g>
     <g id="line2d_24">
      <g>
       <use style="stroke:#000000;stroke-width:0.8;" x="57.6" xlink:href="#m3337ae1dc5" y="137.778059"/>
      </g>
     </g>
     <g id="text_9">
      <!-- 0.6 -->
      <g transform="translate(25.155 143.856809)scale(0.16 -0.16)">
       <use xlink:href="#DejaVuSans-30"/>
       <use x="63.623047" xlink:href="#DejaVuSans-2e"/>
       <use x="95.410156" xlink:href="#DejaVuSans-36"/>
      </g>
     </g>
    </g>
    <g id="ytick_5">
     <g id="line2d_25">
      <path clip-path="url(#p33616a0eb8)" d="M 57.6 84.056079 
L 338.688 84.056079 
" style="fill:none;stroke:#b0b0b0;stroke-linecap:square;stroke-width:0.8;"/>
     </g>
     <g id="line2d_26">
      <g>
       <use style="stroke:#000000;stroke-width:0.8;" x="57.6" xlink:href="#m3337ae1dc5" y="84.056079"/>
      </g>
     </g>
     <g id="text_10">
      <!-- 0.8 -->
      <g transform="translate(25.155 90.134829)scale(0.16 -0.16)">
       <defs>
        <path d="M 2034 2216 
Q 1584 2216 1326 1975 
Q 1069 1734 1069 1313 
Q 1069 891 1326 650 
Q 1584 409 2034 409 
Q 2484 409 2743 651 
Q 3003 894 3003 1313 
Q 3003 1734 2745 1975 
Q 2488 2216 2034 2216 
z
M 1403 2484 
Q 997 2584 770 2862 
Q 544 3141 544 3541 
Q 544 4100 942 4425 
Q 1341 4750 2034 4750 
Q 2731 4750 3128 4425 
Q 3525 4100 3525 3541 
Q 3525 3141 3298 2862 
Q 3072 2584 2669 2484 
Q 3125 2378 3379 2068 
Q 3634 1759 3634 1313 
Q 3634 634 3220 271 
Q 2806 -91 2034 -91 
Q 1263 -91 848 271 
Q 434 634 434 1313 
Q 434 1759 690 2068 
Q 947 2378 1403 2484 
z
M 1172 3481 
Q 1172 3119 1398 2916 
Q 1625 2713 2034 2713 
Q 2441 2713 2670 2916 
Q 2900 3119 2900 3481 
Q 2900 3844 2670 4047 
Q 2441 4250 2034 4250 
Q 1625 4250 1398 4047 
Q 1172 3844 1172 3481 
z
" id="DejaVuSans-38" transform="scale(0.015625)"/>
       </defs>
       <use xlink:href="#DejaVuSans-30"/>
       <use x="63.623047" xlink:href="#DejaVuSans-2e"/>
       <use x="95.410156" xlink:href="#DejaVuSans-38"/>
      </g>
     </g>
    </g>
    <g id="ytick_6">
     <g id="line2d_27">
      <path clip-path="url(#p33616a0eb8)" d="M 57.6 30.334099 
L 338.688 30.334099 
" style="fill:none;stroke:#b0b0b0;stroke-linecap:square;stroke-width:0.8;"/>
     </g>
     <g id="line2d_28">
      <g>
       <use style="stroke:#000000;stroke-width:0.8;" x="57.6" xlink:href="#m3337ae1dc5" y="30.334099"/>
      </g>
     </g>
     <g id="text_11">
      <!-- 1.0 -->
      <g transform="translate(25.155 36.412849)scale(0.16 -0.16)">
       <use xlink:href="#DejaVuSans-31"/>
       <use x="63.623047" xlink:href="#DejaVuSans-2e"/>
       <use x="95.410156" xlink:href="#DejaVuSans-30"/>
      </g>
     </g>
    </g>
    <g id="text_12">
     <!-- Fraction of function,target pairs -->
     <g transform="translate(17.619531 297.681)rotate(-90)scale(0.17 -0.17)">
      <defs>
       <path d="M 628 4666 
L 3309 4666 
L 3309 4134 
L 1259 4134 
L 1259 2759 
L 3109 2759 
L 3109 2228 
L 1259 2228 
L 1259 0 
L 628 0 
L 628 4666 
z
" id="DejaVuSans-46" transform="scale(0.015625)"/>
       <path d="M 2631 2963 
Q 2534 3019 2420 3045 
Q 2306 3072 2169 3072 
Q 1681 3072 1420 2755 
Q 1159 2438 1159 1844 
L 1159 0 
L 581 0 
L 581 3500 
L 1159 3500 
L 1159 2956 
Q 1341 3275 1631 3429 
Q 1922 3584 2338 3584 
Q 2397 3584 2469 3576 
Q 2541 3569 2628 3553 
L 2631 2963 
z
" id="DejaVuSans-72" transform="scale(0.015625)"/>
       <path d="M 3122 3366 
L 3122 2828 
Q 2878 2963 2633 3030 
Q 2388 3097 2138 3097 
Q 1578 3097 1268 2742 
Q 959 2388 959 1747 
Q 959 1106 1268 751 
Q 1578 397 2138 397 
Q 2388 397 2633 464 
Q 2878 531 3122 666 
L 3122 134 
Q 2881 22 2623 -34 
Q 2366 -91 2075 -91 
Q 1284 -91 818 406 
Q 353 903 353 1747 
Q 353 2603 823 3093 
Q 1294 3584 2113 3584 
Q 2378 3584 2631 3529 
Q 2884 3475 3122 3366 
z
" id="DejaVuSans-63" transform="scale(0.015625)"/>
       <path d="M 1172 4494 
L 1172 3500 
L 2356 3500 
L 2356 3053 
L 1172 3053 
L 1172 1153 
Q 1172 725 1289 603 
Q 1406 481 1766 481 
L 2356 481 
L 2356 0 
L 1766 0 
Q 1100 0 847 248 
Q 594 497 594 1153 
L 594 3053 
L 172 3053 
L 172 3500 
L 594 3500 
L 594 4494 
L 1172 4494 
z
" id="DejaVuSans-74" transform="scale(0.015625)"/>
       <path d="M 544 1381 
L 544 3500 
L 1119 3500 
L 1119 1403 
Q 1119 906 1312 657 
Q 1506 409 1894 409 
Q 2359 409 2629 706 
Q 2900 1003 2900 1516 
L 2900 3500 
L 3475 3500 
L 3475 0 
L 2900 0 
L 2900 538 
Q 2691 219 2414 64 
Q 2138 -91 1772 -91 
Q 1169 -91 856 284 
Q 544 659 544 1381 
z
M 1991 3584 
L 1991 3584 
z
" id="DejaVuSans-75" transform="scale(0.015625)"/>
       <path d="M 750 794 
L 1409 794 
L 1409 256 
L 897 -744 
L 494 -744 
L 750 256 
L 750 794 
z
" id="DejaVuSans-2c" transform="scale(0.015625)"/>
       <path d="M 1159 525 
L 1159 -1331 
L 581 -1331 
L 581 3500 
L 1159 3500 
L 1159 2969 
Q 1341 3281 1617 3432 
Q 1894 3584 2278 3584 
Q 2916 3584 3314 3078 
Q 3713 2572 3713 1747 
Q 3713 922 3314 415 
Q 2916 -91 2278 -91 
Q 1894 -91 1617 61 
Q 1341 213 1159 525 
z
M 3116 1747 
Q 3116 2381 2855 2742 
Q 2594 3103 2138 3103 
Q 1681 3103 1420 2742 
Q 1159 2381 1159 1747 
Q 1159 1113 1420 752 
Q 1681 391 2138 391 
Q 2594 391 2855 752 
Q 3116 1113 3116 1747 
z
" id="DejaVuSans-70" transform="scale(0.015625)"/>
      </defs>
      <use xlink:href="#DejaVuSans-46"/>
      <use x="50.269531" xlink:href="#DejaVuSans-72"/>
      <use x="91.382812" xlink:href="#DejaVuSans-61"/>
      <use x="152.662109" xlink:href="#DejaVuSans-63"/>
      <use x="207.642578" xlink:href="#DejaVuSans-74"/>
      <use x="246.851562" xlink:href="#DejaVuSans-69"/>
      <use x="274.634766" xlink:href="#DejaVuSans-6f"/>
      <use x="335.816406" xlink:href="#DejaVuSans-6e"/>
      <use x="399.195312" xlink:href="#DejaVuSans-20"/>
      <use x="430.982422" xlink:href="#DejaVuSans-6f"/>
      <use x="492.164062" xlink:href="#DejaVuSans-66"/>
      <use x="527.369141" xlink:href="#DejaVuSans-20"/>
      <use x="559.15625" xlink:href="#DejaVuSans-66"/>
      <use x="594.361328" xlink:href="#DejaVuSans-75"/>
      <use x="657.740234" xlink:href="#DejaVuSans-6e"/>
      <use x="721.119141" xlink:href="#DejaVuSans-63"/>
      <use x="776.099609" xlink:href="#DejaVuSans-74"/>
      <use x="815.308594" xlink:href="#DejaVuSans-69"/>
      <use x="843.091797" xlink:href="#DejaVuSans-6f"/>
      <use x="904.273438" xlink:href="#DejaVuSans-6e"/>
      <use x="967.652344" xlink:href="#DejaVuSans-2c"/>
      <use x="999.439453" xlink:href="#DejaVuSans-74"/>
      <use x="1038.648438" xlink:href="#DejaVuSans-61"/>
      <use x="1099.927734" xlink:href="#DejaVuSans-72"/>
      <use x="1139.291016" xlink:href="#DejaVuSans-67"/>
      <use x="1202.767578" xlink:href="#DejaVuSans-65"/>
      <use x="1264.291016" xlink:href="#DejaVuSans-74"/>
      <use x="1303.5" xlink:href="#DejaVuSans-20"/>
      <use x="1335.287109" xlink:href="#DejaVuSans-70"/>
      <use x="1398.763672" xlink:href="#DejaVuSans-61"/>
      <use x="1460.042969" xlink:href="#DejaVuSans-69"/>
      <use x="1487.826172" xlink:href="#DejaVuSans-72"/>
      <use x="1528.939453" xlink:href="#DejaVuSans-73"/>
     </g>
    </g>
   </g>
   <g id="line2d_29">
    <defs>
     <path d="M 0 1.5 
C 0.397805 1.5 0.77937 1.341951 1.06066 1.06066 
C 1.341951 0.77937 1.5 0.397805 1.5 0 
C 1.5 -0.397805 1.341951 -0.77937 1.06066 -1.06066 
C 0.77937 -1.341951 0.397805 -1.5 0 -1.5 
C -0.397805 -1.5 -0.77937 -1.341951 -1.06066 -1.06066 
C -1.341951 -0.77937 -1.5 -0.397805 -1.5 0 
C -1.5 0.397805 -1.341951 0.77937 -1.06066 1.06066 
C -0.77937 1.341951 -0.397805 1.5 0 1.5 
z
" id="ma720beceaa" style="stroke:#000080;"/>
    </defs>
    <g>
     <use style="fill:#000080;stroke:#000080;" x="178.784608" xlink:href="#ma720beceaa" y="30.334099"/>
     <use style="fill:#000080;stroke:#000080;" x="178.784608" xlink:href="#ma720beceaa" y="30.334099"/>
    </g>
   </g>
   <g id="line2d_30">
    <path d="M 74.263433 298.944 
L 74.263433 298.417314 
L 77.047268 298.417314 
L 77.047268 297.890628 
L 78.154896 297.890628 
L 78.154896 297.363942 
L 81.334453 297.363942 
L 81.334453 296.837256 
L 81.992617 296.837256 
L 81.992617 296.31057 
L 82.206598 296.31057 
L 82.206598 295.783884 
L 82.417986 295.783884 
L 82.417986 295.257197 
L 86.182924 295.257197 
L 86.182924 294.730511 
L 88.255778 294.730511 
L 88.255778 294.203825 
L 90.509138 294.203825 
L 90.509138 293.677139 
L 91.410261 293.677139 
L 91.410261 293.150453 
L 92.854336 293.150453 
L 92.854336 292.623767 
L 97.403108 292.623767 
L 97.403108 292.097081 
L 98.100772 292.097081 
L 98.18605 291.043709 
L 98.270913 291.043709 
L 98.270913 290.517023 
L 100.789049 290.517023 
L 100.789049 289.990337 
L 102.12848 289.990337 
L 102.12848 289.463651 
L 103.870632 289.463651 
L 103.870632 288.936964 
L 103.993014 288.936964 
L 103.993014 288.410278 
L 107.009204 288.410278 
L 107.009204 287.883592 
L 107.414787 287.883592 
L 107.414787 287.356906 
L 108.294265 287.356906 
L 108.294265 286.83022 
L 108.902946 286.83022 
L 108.902946 286.303534 
L 109.668146 286.303534 
L 109.71213 285.250162 
L 110.231452 285.250162 
L 110.231452 284.723476 
L 110.694282 284.723476 
L 110.694282 284.19679 
L 111.346294 284.19679 
L 111.346294 283.670104 
L 111.702614 283.670104 
L 111.702614 283.143418 
L 113.203693 283.143418 
L 113.203693 282.616732 
L 113.489005 282.616732 
L 113.489005 282.090045 
L 114.216469 282.090045 
L 114.216469 281.563359 
L 114.351658 281.563359 
L 114.351658 281.036673 
L 114.882171 281.036673 
L 114.947365 278.929929 
L 115.0447 278.929929 
L 115.0447 278.403243 
L 115.460322 278.403243 
L 115.460322 277.876557 
L 115.927891 277.876557 
L 115.927891 277.349871 
L 116.172228 277.349871 
L 116.172228 276.823185 
L 116.739166 276.823185 
L 116.739166 276.296499 
L 116.943478 276.296499 
L 116.943478 275.769812 
L 117.116718 275.769812 
L 117.116718 274.71644 
L 117.288253 274.71644 
L 117.288253 274.189754 
L 118.094355 274.189754 
L 118.094355 273.663068 
L 118.363901 273.663068 
L 118.390628 272.609696 
L 119.199476 272.609696 
L 119.275797 271.556324 
L 120.382253 271.556324 
L 120.382253 271.029638 
L 120.500969 271.029638 
L 120.500969 269.976266 
L 121.059819 269.976266 
L 121.151244 268.396207 
L 121.422678 268.396207 
L 121.422678 267.869521 
L 121.601315 267.869521 
L 121.601315 267.342835 
L 121.800118 267.342835 
L 121.865885 265.762777 
L 122.276749 265.762777 
L 122.276749 265.236091 
L 122.40451 265.236091 
L 122.40451 264.182719 
L 122.573415 264.182719 
L 122.657258 263.129347 
L 123.111324 263.129347 
L 123.111324 262.60266 
L 123.672636 262.60266 
L 123.751369 261.549288 
L 124.082074 261.549288 
L 124.082074 260.495916 
L 124.368753 260.495916 
L 124.368753 259.96923 
L 124.538526 259.96923 
L 124.538526 259.442544 
L 124.706662 259.442544 
L 124.706662 258.915858 
L 125.417081 258.915858 
L 125.417081 258.389172 
L 125.822869 258.389172 
L 125.822869 257.862486 
L 125.961828 257.862486 
L 125.961828 257.3358 
L 126.151107 257.3358 
L 126.151107 256.809114 
L 126.52361 256.809114 
L 126.607172 255.755741 
L 126.97016 255.755741 
L 126.97016 255.229055 
L 127.100304 255.229055 
L 127.100304 254.702369 
L 127.437383 254.702369 
L 127.437383 253.648997 
L 127.752464 253.648997 
L 127.752464 253.122311 
L 128.350967 253.122311 
L 128.350967 252.595625 
L 128.471239 252.595625 
L 128.471239 252.068939 
L 129.532014 252.068939 
L 129.532014 251.542253 
L 130.045992 251.542253 
L 130.045992 249.435508 
L 130.209487 249.435508 
L 130.236587 248.382136 
L 130.571839 248.382136 
L 130.585116 246.802078 
L 131.777682 246.802078 
L 131.777682 246.275392 
L 131.938072 246.275392 
L 131.938072 245.748706 
L 136.905847 245.748706 
L 136.905847 245.22202 
L 137.442482 245.22202 
L 137.442482 244.695334 
L 138.264747 244.695334 
L 138.264747 244.168648 
L 139.588845 244.168648 
L 139.588845 243.641962 
L 140.042245 243.641962 
L 140.11924 240.481845 
L 140.47663 240.481845 
L 140.484155 239.428473 
L 140.841591 239.428473 
L 140.841591 238.901787 
L 141.683328 238.901787 
L 141.683328 238.375101 
L 142.304254 238.375101 
L 142.304254 236.795043 
L 143.144465 236.795043 
L 143.144465 233.634926 
L 145.132366 233.634926 
L 145.132366 233.10824 
L 145.704941 233.10824 
L 145.704941 232.581554 
L 146.167227 232.581554 
L 146.167227 232.054868 
L 146.280909 232.054868 
L 146.280909 231.528182 
L 146.649302 231.528182 
L 146.649302 231.001496 
L 147.515004 231.001496 
L 147.515004 229.948123 
L 147.635241 229.948123 
L 147.660186 228.894751 
L 147.759612 228.894751 
L 147.759612 228.368065 
L 148.195311 228.368065 
L 148.195311 227.314693 
L 148.40198 227.314693 
L 148.430623 226.261321 
L 148.662803 226.261321 
L 148.747323 225.207949 
L 149.081366 225.207949 
L 149.081366 224.154577 
L 149.368495 224.154577 
L 149.40462 219.941088 
L 150.279956 219.941088 
L 150.279956 218.887716 
L 150.965587 218.887716 
L 151.0643 217.834344 
L 151.433593 217.834344 
L 151.433593 217.307658 
L 151.791293 217.307658 
L 151.803091 216.254285 
L 152.134091 216.254285 
L 152.191856 214.674227 
L 152.455139 214.674227 
L 152.455139 214.147541 
L 152.762943 214.147541 
L 152.762943 213.620855 
L 153.48809 213.620855 
L 153.530869 208.353994 
L 153.676241 208.353994 
L 153.676241 207.827308 
L 153.827414 207.827308 
L 153.827414 206.773936 
L 154.112115 206.773936 
L 154.112115 205.720564 
L 154.654594 205.720564 
L 154.654594 205.193878 
L 154.85705 205.193878 
L 154.85705 204.667192 
L 155.549279 204.667192 
L 155.61575 203.613819 
L 155.95056 203.613819 
L 156.021696 202.560447 
L 156.427457 202.560447 
L 156.427457 201.507075 
L 156.753099 201.507075 
L 156.753099 200.980389 
L 156.953214 200.980389 
L 157.017469 199.927017 
L 157.343824 199.927017 
L 157.343824 199.400331 
L 157.588172 199.400331 
L 157.588172 198.346959 
L 159.025463 198.346959 
L 159.025463 197.820273 
L 159.421068 197.820273 
L 159.421068 197.293586 
L 159.597964 197.293586 
L 159.63062 196.240214 
L 159.985851 196.240214 
L 159.985851 195.713528 
L 160.268789 195.713528 
L 160.268789 195.186842 
L 160.651664 195.186842 
L 160.651664 194.13347 
L 160.886762 194.13347 
L 160.886762 193.606784 
L 161.458744 193.606784 
L 161.458744 193.080098 
L 161.683277 193.080098 
L 161.716709 192.026726 
L 161.840959 192.026726 
L 161.92917 190.973354 
L 162.019126 190.973354 
L 162.019126 190.446667 
L 162.1369 190.446667 
L 162.1369 189.919981 
L 162.327141 189.919981 
L 162.370089 188.339923 
L 162.468472 188.339923 
L 162.468472 187.813237 
L 162.640372 187.813237 
L 162.640372 187.286551 
L 162.758234 187.286551 
L 162.866969 177.806202 
L 162.889884 177.806202 
L 162.916926 176.226143 
L 163.096831 176.226143 
L 163.096831 175.699457 
L 163.260639 175.699457 
L 163.36427 174.646085 
L 163.936231 174.646085 
L 164.018381 172.012655 
L 164.169927 172.012655 
L 164.169927 171.485969 
L 164.283689 171.485969 
L 164.385253 169.379224 
L 164.622474 169.379224 
L 164.622474 167.799166 
L 164.796897 167.799166 
L 164.796897 167.27248 
L 164.965896 167.27248 
L 165.076435 166.219108 
L 165.295432 166.219108 
L 165.393091 163.585677 
L 165.691695 163.585677 
L 165.691695 163.058991 
L 165.953865 163.058991 
L 165.953865 162.005619 
L 166.179429 162.005619 
L 166.284273 160.952247 
L 166.296264 160.952247 
L 166.296264 160.425561 
L 166.448007 160.425561 
L 166.547878 153.051956 
L 166.569807 153.051956 
L 166.569807 151.998584 
L 166.697457 151.998584 
L 166.697457 151.471897 
L 166.875605 151.471897 
L 166.978005 149.891839 
L 167.177763 149.891839 
L 167.177763 149.365153 
L 167.30752 149.365153 
L 167.30752 148.311781 
L 167.434714 148.311781 
L 167.540272 146.731723 
L 167.592812 146.731723 
L 167.684773 145.151665 
L 167.754214 145.151665 
L 167.835927 135.671315 
L 167.892273 135.671315 
L 167.959339 134.617943 
L 168.088065 134.617943 
L 168.088065 134.091257 
L 168.209712 134.091257 
L 168.318321 130.404454 
L 168.385289 130.404454 
L 168.385289 129.351082 
L 168.719311 129.351082 
L 168.814429 126.190966 
L 168.861794 126.190966 
L 168.861794 124.610907 
L 169.217337 124.610907 
L 169.289603 123.030849 
L 169.340012 123.030849 
L 169.340012 122.504163 
L 169.802665 122.504163 
L 169.912956 110.917069 
L 169.961597 110.917069 
L 170.069512 101.43672 
L 170.0833 101.43672 
L 170.172651 99.329976 
L 170.195944 99.329976 
L 170.29017 97.749917 
L 170.324185 97.749917 
L 170.349992 96.696545 
L 170.454188 96.696545 
L 170.526891 95.643173 
L 170.568491 95.643173 
L 170.568491 93.009743 
L 170.819995 93.009743 
L 170.819995 92.483056 
L 170.942432 92.483056 
L 171.050982 88.796254 
L 171.083546 88.796254 
L 171.13682 87.742882 
L 171.235142 87.742882 
L 171.28281 86.162824 
L 171.460731 86.162824 
L 171.464551 85.109451 
L 171.628028 85.109451 
L 171.663309 82.476021 
L 171.900854 82.476021 
L 172.001148 80.895963 
L 172.076299 80.895963 
L 172.081215 79.842591 
L 172.520528 79.842591 
L 172.537297 78.789218 
L 172.701741 78.789218 
L 172.739653 77.20916 
L 172.832895 77.20916 
L 172.929154 73.522358 
L 172.97475 73.522358 
L 172.97475 72.995672 
L 173.0946 72.995672 
L 173.170967 71.415613 
L 173.38668 71.415613 
L 173.473132 70.362241 
L 173.563673 70.362241 
L 173.618898 69.308869 
L 173.735534 69.308869 
L 173.735534 68.782183 
L 173.883566 68.782183 
L 173.957665 67.728811 
L 173.996249 67.728811 
L 174.042437 66.148752 
L 174.220541 66.148752 
L 174.311619 62.988636 
L 174.340793 62.988636 
L 174.445204 61.408578 
L 174.501991 61.408578 
L 174.612886 59.82852 
L 174.822084 59.82852 
L 174.900675 45.081309 
L 174.940359 45.081309 
L 175.021535 44.027937 
L 175.088895 44.027937 
L 175.115766 42.447879 
L 175.203325 42.447879 
L 175.29147 40.341135 
L 175.319052 40.341135 
L 175.416768 38.761076 
L 175.614588 38.761076 
L 175.614588 38.23439 
L 175.820111 38.23439 
L 175.820111 37.707704 
L 175.946605 37.707704 
L 175.946605 37.181018 
L 176.188135 37.181018 
L 176.188135 36.654332 
L 176.659495 36.654332 
L 176.760342 33.494215 
L 176.832554 33.494215 
L 176.832554 32.967529 
L 177.404264 32.967529 
L 177.404264 32.440843 
L 177.743302 32.440843 
L 177.743302 31.914157 
L 178.096778 31.914157 
L 178.096778 31.387471 
L 178.489249 31.387471 
L 178.489249 30.860785 
L 178.784608 30.860785 
L 178.784608 30.334099 
L 338.688 30.334099 
L 338.688 30.334099 
" style="fill:none;stroke:#000080;stroke-linecap:square;stroke-width:1.5;"/>
   </g>
   <g id="line2d_31">
    <defs>
     <path d="M 0 6 
C 1.591219 6 3.117479 5.367802 4.242641 4.242641 
C 5.367802 3.117479 6 1.591219 6 0 
C 6 -1.591219 5.367802 -3.117479 4.242641 -4.242641 
C 3.117479 -5.367802 1.591219 -6 0 -6 
C -1.591219 -6 -3.117479 -5.367802 -4.242641 -4.242641 
C -5.367802 -3.117479 -6 -1.591219 -6 0 
C -6 1.591219 -5.367802 3.117479 -4.242641 4.242641 
C -3.117479 5.367802 -1.591219 6 0 6 
z
" id="m08d462210f" style="stroke:#000080;stroke-width:1.5;"/>
    </defs>
    <g>
     <use style="fill-opacity:0;stroke:#000080;stroke-width:1.5;" x="121.84399" xlink:href="#m08d462210f" y="266.289463"/>
     <use style="fill-opacity:0;stroke:#000080;stroke-width:1.5;" x="167.684773" xlink:href="#m08d462210f" y="145.151665"/>
     <use style="fill-opacity:0;stroke:#000080;stroke-width:1.5;" x="176.832554" xlink:href="#m08d462210f" y="33.494215"/>
     <use style="fill-opacity:0;stroke:#000080;stroke-width:1.5;" x="178.784608" xlink:href="#m08d462210f" y="30.334099"/>
     <use style="fill-opacity:0;stroke:#000080;stroke-width:1.5;" x="338.688" xlink:href="#m08d462210f" y="30.334099"/>
    </g>
   </g>
   <g id="line2d_32">
    <path style="fill:none;stroke:#000080;stroke-linecap:square;stroke-width:1.5;"/>
    <g/>
   </g>
   <g id="line2d_33">
    <defs>
     <path d="M 0 1.5 
C 0.397805 1.5 0.77937 1.341951 1.06066 1.06066 
C 1.341951 0.77937 1.5 0.397805 1.5 0 
C 1.5 -0.397805 1.341951 -0.77937 1.06066 -1.06066 
C 0.77937 -1.341951 0.397805 -1.5 0 -1.5 
C -0.397805 -1.5 -0.77937 -1.341951 -1.06066 -1.06066 
C -1.341951 -0.77937 -1.5 -0.397805 -1.5 0 
C -1.5 0.397805 -1.341951 0.77937 -1.06066 1.06066 
C -0.77937 1.341951 -0.397805 1.5 0 1.5 
z
" id="m008fe15292" style="stroke:#ff00ff;"/>
    </defs>
    <g>
     <use style="fill:#ff00ff;stroke:#ff00ff;" x="201.604904" xlink:href="#m008fe15292" y="30.334099"/>
     <use style="fill:#ff00ff;stroke:#ff00ff;" x="201.604904" xlink:href="#m008fe15292" y="30.334099"/>
    </g>
   </g>
   <g id="line2d_34">
    <path d="M 111.266113 298.944 
L 111.266113 298.417314 
L 117.903163 298.417314 
L 117.903163 297.890628 
L 119.677294 297.890628 
L 119.677294 297.363942 
L 122.362027 297.363942 
L 122.362027 296.837256 
L 123.354102 296.837256 
L 123.354102 296.31057 
L 123.474235 296.31057 
L 123.474235 295.783884 
L 124.463275 295.783884 
L 124.463275 295.257197 
L 124.650796 295.257197 
L 124.725244 294.203825 
L 125.092787 294.203825 
L 125.092787 293.677139 
L 127.5641 293.677139 
L 127.5641 293.150453 
L 132.362702 293.150453 
L 132.362702 292.097081 
L 134.214491 292.097081 
L 134.214491 291.570395 
L 138.586452 291.570395 
L 138.586452 291.043709 
L 138.869347 291.043709 
L 138.869347 290.517023 
L 139.572998 290.517023 
L 139.572998 289.990337 
L 140.581686 289.990337 
L 140.581686 289.463651 
L 140.693549 289.463651 
L 140.693549 288.936964 
L 141.577657 288.936964 
L 141.577657 288.410278 
L 145.172662 288.410278 
L 145.172662 287.883592 
L 146.522046 287.883592 
L 146.522046 287.356906 
L 147.092675 287.356906 
L 147.092675 286.83022 
L 147.307662 286.83022 
L 147.307662 286.303534 
L 148.339756 286.303534 
L 148.339756 285.776848 
L 148.854728 285.776848 
L 148.919783 284.723476 
L 149.766231 284.723476 
L 149.766231 284.19679 
L 150.163737 284.19679 
L 150.228399 283.143418 
L 151.869796 283.143418 
L 151.869796 282.616732 
L 155.0278 282.616732 
L 155.0278 282.090045 
L 156.009346 282.090045 
L 156.009346 281.563359 
L 156.14166 281.563359 
L 156.14166 281.036673 
L 157.1279 281.036673 
L 157.1279 280.509987 
L 157.574059 280.509987 
L 157.641697 279.456615 
L 158.157181 279.456615 
L 158.157181 278.929929 
L 158.687029 278.929929 
L 158.687029 278.403243 
L 159.100649 278.403243 
L 159.100649 277.876557 
L 159.32939 277.876557 
L 159.32939 277.349871 
L 159.675734 277.349871 
L 159.675734 276.823185 
L 160.4828 276.823185 
L 160.4828 276.296499 
L 161.467781 276.296499 
L 161.467781 275.769812 
L 162.01037 275.769812 
L 162.067204 274.71644 
L 162.814777 274.71644 
L 162.814777 273.663068 
L 163.045324 273.663068 
L 163.045324 273.136382 
L 163.461244 273.136382 
L 163.461244 272.609696 
L 164.237502 272.609696 
L 164.237502 272.08301 
L 164.369961 272.08301 
L 164.371873 271.029638 
L 165.270024 271.029638 
L 165.270024 270.502952 
L 165.624197 270.502952 
L 165.624197 269.976266 
L 165.946878 269.976266 
L 166.023581 268.922893 
L 166.273988 268.922893 
L 166.376562 267.869521 
L 166.591708 267.869521 
L 166.591708 267.342835 
L 166.953286 267.342835 
L 166.953286 266.816149 
L 167.325286 266.816149 
L 167.386522 265.762777 
L 167.476374 265.762777 
L 167.476374 265.236091 
L 167.769958 265.236091 
L 167.87664 264.182719 
L 167.971787 264.182719 
L 168.032349 263.129347 
L 168.151304 263.129347 
L 168.202038 262.075974 
L 168.574151 262.075974 
L 168.574151 261.549288 
L 168.798117 261.549288 
L 168.889856 260.495916 
L 168.96349 260.495916 
L 168.96349 259.442544 
L 169.240495 259.442544 
L 169.240495 258.915858 
L 169.618225 258.915858 
L 169.690261 257.3358 
L 169.873945 257.3358 
L 169.972696 255.755741 
L 170.544348 255.755741 
L 170.608656 254.702369 
L 170.901715 254.702369 
L 170.925369 253.648997 
L 171.105655 253.648997 
L 171.105655 253.122311 
L 171.341892 253.122311 
L 171.341892 252.595625 
L 171.547114 252.595625 
L 171.547114 251.542253 
L 172.004852 251.542253 
L 172.079986 249.962195 
L 172.187811 249.962195 
L 172.187811 249.435508 
L 172.516932 249.435508 
L 172.610178 248.382136 
L 172.687503 248.382136 
L 172.777482 246.802078 
L 172.874047 246.802078 
L 172.874047 246.275392 
L 172.991089 246.275392 
L 173.092281 244.695334 
L 173.433372 244.695334 
L 173.433372 244.168648 
L 173.580597 244.168648 
L 173.599758 242.588589 
L 173.82695 242.588589 
L 173.868043 241.535217 
L 174.074257 241.535217 
L 174.104926 240.481845 
L 174.20205 240.481845 
L 174.300801 238.901787 
L 174.366685 238.901787 
L 174.366685 237.848415 
L 174.595871 237.848415 
L 174.685015 236.795043 
L 174.878705 236.795043 
L 174.983076 235.214984 
L 175.241303 235.214984 
L 175.241303 234.161612 
L 175.450232 234.161612 
L 175.450232 233.634926 
L 175.613585 233.634926 
L 175.613585 233.10824 
L 175.796291 233.10824 
L 175.796291 232.581554 
L 176.045773 232.581554 
L 176.156059 231.528182 
L 176.313925 231.528182 
L 176.35341 230.47481 
L 176.616909 230.47481 
L 176.721769 229.421437 
L 176.730243 229.421437 
L 176.738714 228.368065 
L 176.94729 228.368065 
L 176.94729 227.841379 
L 177.064046 227.841379 
L 177.089886 226.788007 
L 177.355288 226.788007 
L 177.355288 226.261321 
L 177.514411 226.261321 
L 177.548578 225.207949 
L 177.89894 225.207949 
L 178.003391 223.627891 
L 178.10287 223.627891 
L 178.10983 222.574518 
L 178.254483 222.574518 
L 178.300141 220.467774 
L 178.530902 220.467774 
L 178.614755 218.887716 
L 178.963594 218.887716 
L 179.02395 217.834344 
L 179.090678 217.834344 
L 179.090678 216.780971 
L 180.012267 216.780971 
L 180.012267 216.254285 
L 180.315338 216.254285 
L 180.417742 215.200913 
L 180.585331 215.200913 
L 180.625283 214.147541 
L 180.916492 214.147541 
L 180.916492 213.620855 
L 181.057355 213.620855 
L 181.057355 213.094169 
L 181.376149 213.094169 
L 181.376149 212.567483 
L 181.520517 212.567483 
L 181.553389 211.514111 
L 181.648794 211.514111 
L 181.653764 210.460738 
L 181.891353 210.460738 
L 181.930522 208.88068 
L 182.061378 208.88068 
L 182.135419 207.827308 
L 182.216021 207.827308 
L 182.322231 204.667192 
L 182.6048 204.667192 
L 182.695975 203.087133 
L 182.831851 203.087133 
L 182.831851 202.560447 
L 182.975891 202.560447 
L 182.975891 202.033761 
L 183.159819 202.033761 
L 183.231942 200.453703 
L 183.325711 200.453703 
L 183.325711 199.927017 
L 183.491956 199.927017 
L 183.570991 198.873645 
L 183.650303 198.873645 
L 183.703398 197.820273 
L 183.816005 197.820273 
L 183.816005 197.293586 
L 184.049583 197.293586 
L 184.121208 196.240214 
L 184.164287 196.240214 
L 184.242176 195.186842 
L 184.328244 195.186842 
L 184.439321 193.080098 
L 184.452022 193.080098 
L 184.452022 192.553412 
L 184.636058 192.553412 
L 184.746386 190.446667 
L 184.81225 190.446667 
L 184.81225 189.919981 
L 184.9544 189.919981 
L 185.017728 188.866609 
L 185.074411 188.866609 
L 185.111709 187.813237 
L 185.307954 187.813237 
L 185.389505 186.759865 
L 185.543523 186.759865 
L 185.543523 185.706493 
L 185.658433 185.706493 
L 185.715324 183.599748 
L 185.788837 183.599748 
L 185.873749 182.546376 
L 185.90771 182.546376 
L 185.90771 182.01969 
L 186.08699 182.01969 
L 186.19182 179.38626 
L 186.247 179.38626 
L 186.300918 177.806202 
L 186.400689 177.806202 
L 186.403933 176.752829 
L 186.550892 176.752829 
L 186.61136 175.699457 
L 186.786759 175.699457 
L 186.786759 175.172771 
L 187.1774 175.172771 
L 187.246044 173.066027 
L 187.2908 173.066027 
L 187.383547 170.959282 
L 187.429482 170.959282 
L 187.540246 169.379224 
L 187.623617 169.379224 
L 187.623617 168.852538 
L 187.839031 168.852538 
L 187.932382 167.27248 
L 187.956137 167.27248 
L 188.043945 162.532305 
L 188.15871 162.532305 
L 188.230421 160.952247 
L 188.276609 160.952247 
L 188.361856 159.372189 
L 188.449573 159.372189 
L 188.485592 158.318817 
L 188.627978 158.318817 
L 188.627978 157.79213 
L 188.740866 157.79213 
L 188.778177 156.212072 
L 188.924286 156.212072 
L 188.924286 155.685386 
L 189.144183 155.685386 
L 189.224843 154.632014 
L 189.308335 154.632014 
L 189.308335 154.105328 
L 189.60285 154.105328 
L 189.671562 150.418525 
L 189.947708 150.418525 
L 189.947708 148.838467 
L 190.067735 148.838467 
L 190.172576 147.258409 
L 190.211729 147.258409 
L 190.292368 146.205037 
L 190.355837 146.205037 
L 190.365746 144.098292 
L 190.537191 144.098292 
L 190.537191 143.571606 
L 190.752525 143.571606 
L 190.804266 142.518234 
L 190.874689 142.518234 
L 190.955658 141.464862 
L 191.005555 141.464862 
L 191.097489 140.41149 
L 191.195924 140.41149 
L 191.255375 138.831432 
L 191.383019 138.831432 
L 191.487132 137.251373 
L 191.497227 137.251373 
L 191.579783 135.144629 
L 191.691117 135.144629 
L 191.743732 134.091257 
L 191.853632 134.091257 
L 191.954588 133.037885 
L 192.011512 133.037885 
L 192.011512 132.511199 
L 192.134926 132.511199 
L 192.134926 131.984513 
L 192.454604 131.984513 
L 192.529336 130.404454 
L 192.565823 130.404454 
L 192.622303 128.824396 
L 192.769277 128.824396 
L 192.812006 125.66428 
L 192.978544 125.66428 
L 192.978544 125.137593 
L 193.132117 125.137593 
L 193.132117 124.610907 
L 193.289086 124.610907 
L 193.379187 122.504163 
L 193.45981 122.504163 
L 193.565177 120.397419 
L 193.580229 120.397419 
L 193.688433 115.657244 
L 193.746721 115.657244 
L 193.785707 114.077186 
L 193.883145 114.077186 
L 193.97619 112.497128 
L 194.049574 112.497128 
L 194.108754 109.863697 
L 194.166348 109.863697 
L 194.241696 108.283639 
L 194.356853 108.283639 
L 194.463423 105.123522 
L 194.485884 105.123522 
L 194.587276 103.543464 
L 194.642303 103.543464 
L 194.734748 101.963406 
L 194.76657 101.963406 
L 194.827373 99.329976 
L 194.878656 99.329976 
L 194.94172 98.276603 
L 195.034573 98.276603 
L 195.034573 97.223231 
L 195.148557 97.223231 
L 195.194988 95.643173 
L 195.272207 95.643173 
L 195.35038 94.063115 
L 195.458144 94.063115 
L 195.549254 92.483056 
L 195.574514 92.483056 
L 195.674236 88.269568 
L 195.721507 88.269568 
L 195.825119 86.162824 
L 195.910263 86.162824 
L 195.982201 83.529393 
L 196.032071 83.529393 
L 196.111256 80.895963 
L 196.184531 80.895963 
L 196.244898 78.789218 
L 196.376303 78.789218 
L 196.480355 77.735846 
L 196.506726 77.735846 
L 196.506726 77.20916 
L 196.65451 77.20916 
L 196.74557 74.049044 
L 196.840021 74.049044 
L 196.909711 70.362241 
L 196.995919 70.362241 
L 197.089613 66.675439 
L 197.120636 66.675439 
L 197.191254 65.622066 
L 197.23314 65.622066 
L 197.306199 64.042008 
L 197.344346 64.042008 
L 197.438202 62.988636 
L 197.476634 62.988636 
L 197.520128 61.408578 
L 197.605368 61.408578 
L 197.679436 60.355206 
L 197.765875 60.355206 
L 197.854972 57.195089 
L 197.909555 57.195089 
L 197.984849 55.615031 
L 198.109622 55.615031 
L 198.197534 51.928228 
L 198.306054 51.928228 
L 198.416075 49.294798 
L 198.457831 49.294798 
L 198.56717 47.188054 
L 198.623596 47.188054 
L 198.727371 46.134681 
L 198.744163 46.134681 
L 198.768922 44.554623 
L 198.868665 44.554623 
L 198.868665 44.027937 
L 198.998586 44.027937 
L 199.101204 42.974565 
L 199.139531 42.974565 
L 199.217229 40.867821 
L 199.413178 40.867821 
L 199.49809 39.287762 
L 199.526897 39.287762 
L 199.526897 38.761076 
L 199.709337 38.761076 
L 199.789311 37.181018 
L 199.959103 37.181018 
L 199.970033 36.127646 
L 200.093263 36.127646 
L 200.17739 35.074274 
L 200.205832 35.074274 
L 200.205832 34.547588 
L 200.620773 34.547588 
L 200.710017 33.494215 
L 200.774873 33.494215 
L 200.878191 32.440843 
L 201.030978 32.440843 
L 201.030978 31.914157 
L 201.212526 31.914157 
L 201.212526 31.387471 
L 201.515136 31.387471 
L 201.604904 30.334099 
L 338.688 30.334099 
L 338.688 30.334099 
" style="fill:none;stroke:#ff00ff;stroke-linecap:square;stroke-width:1.5;"/>
   </g>
   <g id="line2d_35">
    <defs>
     <path d="M 0 8.485281 
L 5.091169 0 
L 0 -8.485281 
L -5.091169 0 
z
" id="m3929267fac" style="stroke:#ff00ff;stroke-linejoin:miter;stroke-width:1.5;"/>
    </defs>
    <g>
     <use style="fill-opacity:0;stroke:#ff00ff;stroke-linejoin:miter;stroke-width:1.5;" x="169.972696" xlink:href="#m3929267fac" y="255.755741"/>
     <use style="fill-opacity:0;stroke:#ff00ff;stroke-linejoin:miter;stroke-width:1.5;" x="195.034573" xlink:href="#m3929267fac" y="98.276603"/>
     <use style="fill-opacity:0;stroke:#ff00ff;stroke-linejoin:miter;stroke-width:1.5;" x="201.604904" xlink:href="#m3929267fac" y="30.334099"/>
     <use style="fill-opacity:0;stroke:#ff00ff;stroke-linejoin:miter;stroke-width:1.5;" x="201.604904" xlink:href="#m3929267fac" y="30.334099"/>
     <use style="fill-opacity:0;stroke:#ff00ff;stroke-linejoin:miter;stroke-width:1.5;" x="338.688" xlink:href="#m3929267fac" y="30.334099"/>
    </g>
   </g>
   <g id="line2d_36">
    <path style="fill:none;stroke:#ff00ff;stroke-linecap:square;stroke-width:1.5;"/>
    <g/>
   </g>
   <g id="line2d_37">
    <defs>
     <path d="M 0 1.5 
C 0.397805 1.5 0.77937 1.341951 1.06066 1.06066 
C 1.341951 0.77937 1.5 0.397805 1.5 0 
C 1.5 -0.397805 1.341951 -0.77937 1.06066 -1.06066 
C 0.77937 -1.341951 0.397805 -1.5 0 -1.5 
C -0.397805 -1.5 -0.77937 -1.341951 -1.06066 -1.06066 
C -1.341951 -0.77937 -1.5 -0.397805 -1.5 0 
C -1.5 0.397805 -1.341951 0.77937 -1.06066 1.06066 
C -0.77937 1.341951 -0.397805 1.5 0 1.5 
z
" id="me453e820d5" style="stroke:#ff7500;"/>
    </defs>
    <g>
     <use style="fill:#ff7500;stroke:#ff7500;" x="231.850577" xlink:href="#me453e820d5" y="293.677139"/>
     <use style="fill:#ff7500;stroke:#ff7500;" x="231.850577" xlink:href="#me453e820d5" y="293.677139"/>
    </g>
   </g>
   <g id="line2d_38">
    <path d="M 165.474058 298.944 
L 165.474058 298.417314 
L 181.435909 298.417314 
L 181.435909 297.890628 
L 188.033116 297.890628 
L 188.033116 297.363942 
L 188.77157 297.363942 
L 188.77157 296.837256 
L 203.516862 296.837256 
L 203.516862 296.31057 
L 208.088284 296.31057 
L 208.088284 295.783884 
L 216.858444 295.783884 
L 216.858444 295.257197 
L 229.54212 295.257197 
L 229.54212 294.730511 
L 230.728198 294.730511 
L 230.728198 294.203825 
L 231.850577 294.203825 
L 231.850577 293.677139 
L 338.688 293.677139 
" style="fill:none;stroke:#ff7500;stroke-linecap:square;stroke-width:1.5;"/>
   </g>
   <g id="line2d_39">
    <defs>
     <path d="M 0 -6 
L -1.347084 -1.854102 
L -5.706339 -1.854102 
L -2.179628 0.708204 
L -3.526712 4.854102 
L -0 2.291796 
L 3.526712 4.854102 
L 2.179628 0.708204 
L 5.706339 -1.854102 
L 1.347084 -1.854102 
z
" id="me740d52aa7" style="stroke:#ff7500;stroke-linejoin:bevel;stroke-width:1.5;"/>
    </defs>
    <g>
     <use style="fill-opacity:0;stroke:#ff7500;stroke-linejoin:bevel;stroke-width:1.5;" x="216.858444" xlink:href="#me740d52aa7" y="295.783884"/>
     <use style="fill-opacity:0;stroke:#ff7500;stroke-linejoin:bevel;stroke-width:1.5;" x="231.850577" xlink:href="#me740d52aa7" y="293.677139"/>
     <use style="fill-opacity:0;stroke:#ff7500;stroke-linejoin:bevel;stroke-width:1.5;" x="231.850577" xlink:href="#me740d52aa7" y="293.677139"/>
     <use style="fill-opacity:0;stroke:#ff7500;stroke-linejoin:bevel;stroke-width:1.5;" x="338.688" xlink:href="#me740d52aa7" y="293.677139"/>
    </g>
   </g>
   <g id="line2d_40">
    <path style="fill:none;stroke:#ff7500;stroke-linecap:square;stroke-width:1.5;"/>
    <g/>
   </g>
   <g id="line2d_41">
    <path clip-path="url(#p33616a0eb8)" d="M 218.221714 295.257197 
" style="fill:none;stroke:#ff7500;stroke-linecap:square;stroke-width:1.5;"/>
    <defs>
     <path d="M -12 12 
L 12 -12 
M -12 -12 
L 12 12 
" id="m605fba23c2" style="stroke:#ff7500;"/>
    </defs>
    <g clip-path="url(#p33616a0eb8)">
     <use style="fill:#ff7500;stroke:#ff7500;" x="218.221714" xlink:href="#m605fba23c2" y="295.257197"/>
    </g>
   </g>
   <g id="line2d_42">
    <defs>
     <path d="M 0 1.5 
C 0.397805 1.5 0.77937 1.341951 1.06066 1.06066 
C 1.341951 0.77937 1.5 0.397805 1.5 0 
C 1.5 -0.397805 1.341951 -0.77937 1.06066 -1.06066 
C 0.77937 -1.341951 0.397805 -1.5 0 -1.5 
C -0.397805 -1.5 -0.77937 -1.341951 -1.06066 -1.06066 
C -1.341951 -0.77937 -1.5 -0.397805 -1.5 0 
C -1.5 0.397805 -1.341951 0.77937 -1.06066 1.06066 
C -0.77937 1.341951 -0.397805 1.5 0 1.5 
z
" id="m2d1336bf22" style="stroke:#6495ed;"/>
    </defs>
    <g>
     <use style="fill:#6495ed;stroke:#6495ed;" x="207.11564" xlink:href="#m2d1336bf22" y="272.609696"/>
     <use style="fill:#6495ed;stroke:#6495ed;" x="207.11564" xlink:href="#m2d1336bf22" y="272.609696"/>
    </g>
   </g>
   <g id="line2d_43">
    <path d="M 62.175444 298.944 
L 62.175444 298.417314 
L 66.333161 298.417314 
L 66.333161 297.890628 
L 66.853775 297.890628 
L 66.853775 297.363942 
L 68.328395 297.363942 
L 68.328395 296.837256 
L 72.125336 296.837256 
L 72.125336 296.31057 
L 76.465904 296.31057 
L 76.465904 295.783884 
L 78.683399 295.783884 
L 78.683399 295.257197 
L 83.23881 295.257197 
L 83.23881 294.730511 
L 83.830028 294.730511 
L 83.830028 294.203825 
L 87.170317 294.203825 
L 87.170317 293.677139 
L 88.991722 293.677139 
L 88.991722 293.150453 
L 93.533875 293.150453 
L 93.533875 292.623767 
L 95.023499 292.623767 
L 95.023499 292.097081 
L 98.935347 292.097081 
L 98.935347 291.570395 
L 99.886816 291.570395 
L 99.886816 291.043709 
L 102.263669 291.043709 
L 102.263669 290.517023 
L 103.435405 290.517023 
L 103.435405 289.990337 
L 104.414709 289.990337 
L 104.414709 289.463651 
L 104.533344 289.463651 
L 104.533344 288.936964 
L 108.624653 288.936964 
L 108.624653 288.410278 
L 110.274038 288.410278 
L 110.274038 287.883592 
L 111.505558 287.883592 
L 111.505558 287.356906 
L 112.950158 287.356906 
L 112.950158 286.83022 
L 116.38325 286.83022 
L 116.38325 286.303534 
L 117.903163 286.303534 
L 117.903163 285.776848 
L 118.229649 285.776848 
L 118.229649 285.250162 
L 118.576578 285.250162 
L 118.576578 284.723476 
L 122.844443 284.723476 
L 122.844443 284.19679 
L 123.533993 284.19679 
L 123.533993 283.670104 
L 123.751369 283.670104 
L 123.751369 283.143418 
L 124.500941 283.143418 
L 124.500941 282.616732 
L 125.506102 282.616732 
L 125.506102 282.090045 
L 128.168991 282.090045 
L 128.168991 281.563359 
L 131.389151 281.563359 
L 131.389151 281.036673 
L 132.398622 281.036673 
L 132.398622 280.509987 
L 134.503103 280.509987 
L 134.503103 279.983301 
L 135.995765 279.983301 
L 135.995765 279.456615 
L 144.044473 279.456615 
L 144.044473 278.929929 
L 144.876926 278.929929 
L 144.876926 278.403243 
L 155.258271 278.403243 
L 155.258271 277.876557 
L 156.454576 277.876557 
L 156.454576 277.349871 
L 161.627414 277.349871 
L 161.627414 276.823185 
L 164.105972 276.823185 
L 164.105972 276.296499 
L 165.611735 276.296499 
L 165.611735 275.769812 
L 176.02618 275.769812 
L 176.02618 275.243126 
L 182.501655 275.243126 
L 182.501655 274.71644 
L 186.149086 274.71644 
L 186.149086 274.189754 
L 192.512587 274.189754 
L 192.512587 273.663068 
L 204.255963 273.663068 
L 204.255963 273.136382 
L 207.11564 273.136382 
L 207.11564 272.609696 
L 338.688 272.609696 
" style="fill:none;stroke:#6495ed;stroke-linecap:square;stroke-width:1.5;"/>
   </g>
   <g id="line2d_44">
    <defs>
     <path d="M -0 6 
L 6 -6 
L -6 -6 
z
" id="ma35eb7bd7f" style="stroke:#6495ed;stroke-linejoin:miter;stroke-width:1.5;"/>
    </defs>
    <g>
     <use style="fill-opacity:0;stroke:#6495ed;stroke-linejoin:miter;stroke-width:1.5;" x="135.995765" xlink:href="#ma35eb7bd7f" y="279.983301"/>
     <use style="fill-opacity:0;stroke:#6495ed;stroke-linejoin:miter;stroke-width:1.5;" x="207.11564" xlink:href="#ma35eb7bd7f" y="273.136382"/>
     <use style="fill-opacity:0;stroke:#6495ed;stroke-linejoin:miter;stroke-width:1.5;" x="207.11564" xlink:href="#ma35eb7bd7f" y="272.609696"/>
     <use style="fill-opacity:0;stroke:#6495ed;stroke-linejoin:miter;stroke-width:1.5;" x="207.11564" xlink:href="#ma35eb7bd7f" y="272.609696"/>
     <use style="fill-opacity:0;stroke:#6495ed;stroke-linejoin:miter;stroke-width:1.5;" x="338.688" xlink:href="#ma35eb7bd7f" y="272.609696"/>
    </g>
   </g>
   <g id="line2d_45">
    <path style="fill:none;stroke:#6495ed;stroke-linecap:square;stroke-width:1.5;"/>
    <g/>
   </g>
   <g id="line2d_46">
    <path clip-path="url(#p33616a0eb8)" d="M 137.910857 279.456615 
" style="fill:none;stroke:#6495ed;stroke-linecap:square;stroke-width:1.5;"/>
    <defs>
     <path d="M -12 12 
L 12 -12 
M -12 -12 
L 12 12 
" id="m5c7b9c003b" style="stroke:#6495ed;"/>
    </defs>
    <g clip-path="url(#p33616a0eb8)">
     <use style="fill:#6495ed;stroke:#6495ed;" x="137.910857" xlink:href="#m5c7b9c003b" y="279.456615"/>
    </g>
   </g>
   <g id="line2d_47">
    <path d="M 338.688 293.677139 
L 369.60768 293.571802 
" style="fill:none;stroke:#ff7500;stroke-linecap:square;stroke-width:1.5;"/>
    <g>
     <use style="fill-opacity:0;stroke:#ff7500;stroke-linejoin:bevel;stroke-width:1.5;" x="338.688" xlink:href="#me740d52aa7" y="293.677139"/>
     <use style="fill-opacity:0;stroke:#ff7500;stroke-linejoin:bevel;stroke-width:1.5;" x="369.60768" xlink:href="#me740d52aa7" y="293.571802"/>
    </g>
   </g>
   <g id="line2d_48">
    <path d="M 338.688 272.609696 
L 369.60768 207.616634 
" style="fill:none;stroke:#6495ed;stroke-linecap:square;stroke-width:1.5;"/>
    <g>
     <use style="fill-opacity:0;stroke:#6495ed;stroke-linejoin:miter;stroke-width:1.5;" x="338.688" xlink:href="#ma35eb7bd7f" y="272.609696"/>
     <use style="fill-opacity:0;stroke:#6495ed;stroke-linejoin:miter;stroke-width:1.5;" x="369.60768" xlink:href="#ma35eb7bd7f" y="207.616634"/>
    </g>
   </g>
   <g id="line2d_49">
    <path d="M 338.688 30.334099 
L 369.60768 121.661465 
" style="fill:none;stroke:#ff00ff;stroke-linecap:square;stroke-width:1.5;"/>
    <g>
     <use style="fill-opacity:0;stroke:#ff00ff;stroke-linejoin:miter;stroke-width:1.5;" x="338.688" xlink:href="#m3929267fac" y="30.334099"/>
     <use style="fill-opacity:0;stroke:#ff00ff;stroke-linejoin:miter;stroke-width:1.5;" x="369.60768" xlink:href="#m3929267fac" y="121.661465"/>
    </g>
   </g>
   <g id="line2d_50">
    <path d="M 338.688 30.334099 
L 369.60768 35.706297 
" style="fill:none;stroke:#000080;stroke-linecap:square;stroke-width:1.5;"/>
    <g>
     <use style="fill-opacity:0;stroke:#000080;stroke-width:1.5;" x="338.688" xlink:href="#m08d462210f" y="30.334099"/>
     <use style="fill-opacity:0;stroke:#000080;stroke-width:1.5;" x="369.60768" xlink:href="#m08d462210f" y="35.706297"/>
    </g>
   </g>
   <g id="line2d_51">
    <path d="M 338.688 298.944 
L 338.688 30.334099 
" style="fill:none;stroke:#000000;stroke-linecap:square;stroke-width:1.5;"/>
   </g>
   <g id="patch_3">
    <path d="M 57.6 298.944 
L 57.6 27.648 
" style="fill:none;stroke:#000000;stroke-linecap:square;stroke-linejoin:miter;stroke-width:0.8;"/>
   </g>
   <g id="patch_4">
    <path d="M 338.688 298.944 
L 338.688 27.648 
" style="fill:none;stroke:#000000;stroke-linecap:square;stroke-linejoin:miter;stroke-width:0.8;"/>
   </g>
   <g id="patch_5">
    <path d="M 57.6 298.944 
L 338.688 298.944 
" style="fill:none;stroke:#000000;stroke-linecap:square;stroke-linejoin:miter;stroke-width:0.8;"/>
   </g>
   <g id="patch_6">
    <path d="M 57.6 27.648 
L 338.688 27.648 
" style="fill:none;stroke:#000000;stroke-linecap:square;stroke-linejoin:miter;stroke-width:0.8;"/>
   </g>
   <g id="text_13">
    <!-- RANDOMSEA -->
    <g transform="translate(375.22944 298.262739)scale(0.17 -0.17)">
     <defs>
      <path d="M 2841 2188 
Q 3044 2119 3236 1894 
Q 3428 1669 3622 1275 
L 4263 0 
L 3584 0 
L 2988 1197 
Q 2756 1666 2539 1819 
Q 2322 1972 1947 1972 
L 1259 1972 
L 1259 0 
L 628 0 
L 628 4666 
L 2053 4666 
Q 2853 4666 3247 4331 
Q 3641 3997 3641 3322 
Q 3641 2881 3436 2590 
Q 3231 2300 2841 2188 
z
M 1259 4147 
L 1259 2491 
L 2053 2491 
Q 2509 2491 2742 2702 
Q 2975 2913 2975 3322 
Q 2975 3731 2742 3939 
Q 2509 4147 2053 4147 
L 1259 4147 
z
" id="DejaVuSans-52" transform="scale(0.015625)"/>
      <path d="M 2188 4044 
L 1331 1722 
L 3047 1722 
L 2188 4044 
z
M 1831 4666 
L 2547 4666 
L 4325 0 
L 3669 0 
L 3244 1197 
L 1141 1197 
L 716 0 
L 50 0 
L 1831 4666 
z
" id="DejaVuSans-41" transform="scale(0.015625)"/>
      <path d="M 628 4666 
L 1478 4666 
L 3547 763 
L 3547 4666 
L 4159 4666 
L 4159 0 
L 3309 0 
L 1241 3903 
L 1241 0 
L 628 0 
L 628 4666 
z
" id="DejaVuSans-4e" transform="scale(0.015625)"/>
      <path d="M 1259 4147 
L 1259 519 
L 2022 519 
Q 2988 519 3436 956 
Q 3884 1394 3884 2338 
Q 3884 3275 3436 3711 
Q 2988 4147 2022 4147 
L 1259 4147 
z
M 628 4666 
L 1925 4666 
Q 3281 4666 3915 4102 
Q 4550 3538 4550 2338 
Q 4550 1131 3912 565 
Q 3275 0 1925 0 
L 628 0 
L 628 4666 
z
" id="DejaVuSans-44" transform="scale(0.015625)"/>
      <path d="M 2522 4238 
Q 1834 4238 1429 3725 
Q 1025 3213 1025 2328 
Q 1025 1447 1429 934 
Q 1834 422 2522 422 
Q 3209 422 3611 934 
Q 4013 1447 4013 2328 
Q 4013 3213 3611 3725 
Q 3209 4238 2522 4238 
z
M 2522 4750 
Q 3503 4750 4090 4092 
Q 4678 3434 4678 2328 
Q 4678 1225 4090 567 
Q 3503 -91 2522 -91 
Q 1538 -91 948 565 
Q 359 1222 359 2328 
Q 359 3434 948 4092 
Q 1538 4750 2522 4750 
z
" id="DejaVuSans-4f" transform="scale(0.015625)"/>
      <path d="M 628 4666 
L 1569 4666 
L 2759 1491 
L 3956 4666 
L 4897 4666 
L 4897 0 
L 4281 0 
L 4281 4097 
L 3078 897 
L 2444 897 
L 1241 4097 
L 1241 0 
L 628 0 
L 628 4666 
z
" id="DejaVuSans-4d" transform="scale(0.015625)"/>
      <path d="M 3425 4513 
L 3425 3897 
Q 3066 4069 2747 4153 
Q 2428 4238 2131 4238 
Q 1616 4238 1336 4038 
Q 1056 3838 1056 3469 
Q 1056 3159 1242 3001 
Q 1428 2844 1947 2747 
L 2328 2669 
Q 3034 2534 3370 2195 
Q 3706 1856 3706 1288 
Q 3706 609 3251 259 
Q 2797 -91 1919 -91 
Q 1588 -91 1214 -16 
Q 841 59 441 206 
L 441 856 
Q 825 641 1194 531 
Q 1563 422 1919 422 
Q 2459 422 2753 634 
Q 3047 847 3047 1241 
Q 3047 1584 2836 1778 
Q 2625 1972 2144 2069 
L 1759 2144 
Q 1053 2284 737 2584 
Q 422 2884 422 3419 
Q 422 4038 858 4394 
Q 1294 4750 2059 4750 
Q 2388 4750 2728 4690 
Q 3069 4631 3425 4513 
z
" id="DejaVuSans-53" transform="scale(0.015625)"/>
      <path d="M 628 4666 
L 3578 4666 
L 3578 4134 
L 1259 4134 
L 1259 2753 
L 3481 2753 
L 3481 2222 
L 1259 2222 
L 1259 531 
L 3634 531 
L 3634 0 
L 628 0 
L 628 4666 
z
" id="DejaVuSans-45" transform="scale(0.015625)"/>
     </defs>
     <use xlink:href="#DejaVuSans-52"/>
     <use x="65.482422" xlink:href="#DejaVuSans-41"/>
     <use x="133.890625" xlink:href="#DejaVuSans-4e"/>
     <use x="208.695312" xlink:href="#DejaVuSans-44"/>
     <use x="285.697266" xlink:href="#DejaVuSans-4f"/>
     <use x="364.408203" xlink:href="#DejaVuSans-4d"/>
     <use x="450.6875" xlink:href="#DejaVuSans-53"/>
     <use x="514.164062" xlink:href="#DejaVuSans-45"/>
     <use x="577.347656" xlink:href="#DejaVuSans-41"/>
    </g>
   </g>
   <g id="text_14">
    <!-- TPE-hyper -->
    <g transform="translate(375.22944 212.307571)scale(0.17 -0.17)">
     <defs>
      <path d="M -19 4666 
L 3928 4666 
L 3928 4134 
L 2272 4134 
L 2272 0 
L 1638 0 
L 1638 4134 
L -19 4134 
L -19 4666 
z
" id="DejaVuSans-54" transform="scale(0.015625)"/>
      <path d="M 1259 4147 
L 1259 2394 
L 2053 2394 
Q 2494 2394 2734 2622 
Q 2975 2850 2975 3272 
Q 2975 3691 2734 3919 
Q 2494 4147 2053 4147 
L 1259 4147 
z
M 628 4666 
L 2053 4666 
Q 2838 4666 3239 4311 
Q 3641 3956 3641 3272 
Q 3641 2581 3239 2228 
Q 2838 1875 2053 1875 
L 1259 1875 
L 1259 0 
L 628 0 
L 628 4666 
z
" id="DejaVuSans-50" transform="scale(0.015625)"/>
      <path d="M 3513 2113 
L 3513 0 
L 2938 0 
L 2938 2094 
Q 2938 2591 2744 2837 
Q 2550 3084 2163 3084 
Q 1697 3084 1428 2787 
Q 1159 2491 1159 1978 
L 1159 0 
L 581 0 
L 581 4863 
L 1159 4863 
L 1159 2956 
Q 1366 3272 1645 3428 
Q 1925 3584 2291 3584 
Q 2894 3584 3203 3211 
Q 3513 2838 3513 2113 
z
" id="DejaVuSans-68" transform="scale(0.015625)"/>
      <path d="M 2059 -325 
Q 1816 -950 1584 -1140 
Q 1353 -1331 966 -1331 
L 506 -1331 
L 506 -850 
L 844 -850 
Q 1081 -850 1212 -737 
Q 1344 -625 1503 -206 
L 1606 56 
L 191 3500 
L 800 3500 
L 1894 763 
L 2988 3500 
L 3597 3500 
L 2059 -325 
z
" id="DejaVuSans-79" transform="scale(0.015625)"/>
     </defs>
     <use xlink:href="#DejaVuSans-54"/>
     <use x="61.083984" xlink:href="#DejaVuSans-50"/>
     <use x="121.386719" xlink:href="#DejaVuSans-45"/>
     <use x="184.570312" xlink:href="#DejaVuSans-2d"/>
     <use x="220.654297" xlink:href="#DejaVuSans-68"/>
     <use x="284.033203" xlink:href="#DejaVuSans-79"/>
     <use x="343.212891" xlink:href="#DejaVuSans-70"/>
     <use x="406.689453" xlink:href="#DejaVuSans-65"/>
     <use x="468.212891" xlink:href="#DejaVuSans-72"/>
    </g>
   </g>
   <g id="text_15">
    <!-- DE-scipy -->
    <g transform="translate(375.22944 126.352403)scale(0.17 -0.17)">
     <use xlink:href="#DejaVuSans-44"/>
     <use x="77.001953" xlink:href="#DejaVuSans-45"/>
     <use x="140.185547" xlink:href="#DejaVuSans-2d"/>
     <use x="176.269531" xlink:href="#DejaVuSans-73"/>
     <use x="228.369141" xlink:href="#DejaVuSans-63"/>
     <use x="283.349609" xlink:href="#DejaVuSans-69"/>
     <use x="311.132812" xlink:href="#DejaVuSans-70"/>
     <use x="374.609375" xlink:href="#DejaVuSans-79"/>
    </g>
   </g>
   <g id="text_16">
    <!-- CMA-ES-py -->
    <g transform="translate(375.22944 40.397235)scale(0.17 -0.17)">
     <defs>
      <path d="M 4122 4306 
L 4122 3641 
Q 3803 3938 3442 4084 
Q 3081 4231 2675 4231 
Q 1875 4231 1450 3742 
Q 1025 3253 1025 2328 
Q 1025 1406 1450 917 
Q 1875 428 2675 428 
Q 3081 428 3442 575 
Q 3803 722 4122 1019 
L 4122 359 
Q 3791 134 3420 21 
Q 3050 -91 2638 -91 
Q 1578 -91 968 557 
Q 359 1206 359 2328 
Q 359 3453 968 4101 
Q 1578 4750 2638 4750 
Q 3056 4750 3426 4639 
Q 3797 4528 4122 4306 
z
" id="DejaVuSans-43" transform="scale(0.015625)"/>
     </defs>
     <use xlink:href="#DejaVuSans-43"/>
     <use x="69.824219" xlink:href="#DejaVuSans-4d"/>
     <use x="156.103516" xlink:href="#DejaVuSans-41"/>
     <use x="222.261719" xlink:href="#DejaVuSans-2d"/>
     <use x="258.345703" xlink:href="#DejaVuSans-45"/>
     <use x="321.529297" xlink:href="#DejaVuSans-53"/>
     <use x="385.005859" xlink:href="#DejaVuSans-2d"/>
     <use x="421.089844" xlink:href="#DejaVuSans-70"/>
     <use x="484.566406" xlink:href="#DejaVuSans-79"/>
    </g>
   </g>
   <g id="text_17">
    <!-- bbob-mixint f5, 20-D -->
    <g transform="translate(60.41088 38.111366)scale(0.102 -0.102)">
     <defs>
      <path d="M 3116 1747 
Q 3116 2381 2855 2742 
Q 2594 3103 2138 3103 
Q 1681 3103 1420 2742 
Q 1159 2381 1159 1747 
Q 1159 1113 1420 752 
Q 1681 391 2138 391 
Q 2594 391 2855 752 
Q 3116 1113 3116 1747 
z
M 1159 2969 
Q 1341 3281 1617 3432 
Q 1894 3584 2278 3584 
Q 2916 3584 3314 3078 
Q 3713 2572 3713 1747 
Q 3713 922 3314 415 
Q 2916 -91 2278 -91 
Q 1894 -91 1617 61 
Q 1341 213 1159 525 
L 1159 0 
L 581 0 
L 581 4863 
L 1159 4863 
L 1159 2969 
z
" id="DejaVuSans-62" transform="scale(0.015625)"/>
      <path d="M 3513 3500 
L 2247 1797 
L 3578 0 
L 2900 0 
L 1881 1375 
L 863 0 
L 184 0 
L 1544 1831 
L 300 3500 
L 978 3500 
L 1906 2253 
L 2834 3500 
L 3513 3500 
z
" id="DejaVuSans-78" transform="scale(0.015625)"/>
      <path d="M 691 4666 
L 3169 4666 
L 3169 4134 
L 1269 4134 
L 1269 2991 
Q 1406 3038 1543 3061 
Q 1681 3084 1819 3084 
Q 2600 3084 3056 2656 
Q 3513 2228 3513 1497 
Q 3513 744 3044 326 
Q 2575 -91 1722 -91 
Q 1428 -91 1123 -41 
Q 819 9 494 109 
L 494 744 
Q 775 591 1075 516 
Q 1375 441 1709 441 
Q 2250 441 2565 725 
Q 2881 1009 2881 1497 
Q 2881 1984 2565 2268 
Q 2250 2553 1709 2553 
Q 1456 2553 1204 2497 
Q 953 2441 691 2322 
L 691 4666 
z
" id="DejaVuSans-35" transform="scale(0.015625)"/>
     </defs>
     <use xlink:href="#DejaVuSans-62"/>
     <use x="63.476562" xlink:href="#DejaVuSans-62"/>
     <use x="126.953125" xlink:href="#DejaVuSans-6f"/>
     <use x="188.134766" xlink:href="#DejaVuSans-62"/>
     <use x="251.611328" xlink:href="#DejaVuSans-2d"/>
     <use x="287.695312" xlink:href="#DejaVuSans-6d"/>
     <use x="385.107422" xlink:href="#DejaVuSans-69"/>
     <use x="412.890625" xlink:href="#DejaVuSans-78"/>
     <use x="472.070312" xlink:href="#DejaVuSans-69"/>
     <use x="499.853516" xlink:href="#DejaVuSans-6e"/>
     <use x="563.232422" xlink:href="#DejaVuSans-74"/>
     <use x="602.441406" xlink:href="#DejaVuSans-20"/>
     <use x="634.228516" xlink:href="#DejaVuSans-66"/>
     <use x="669.433594" xlink:href="#DejaVuSans-35"/>
     <use x="733.056641" xlink:href="#DejaVuSans-2c"/>
     <use x="764.84375" xlink:href="#DejaVuSans-20"/>
     <use x="796.630859" xlink:href="#DejaVuSans-32"/>
     <use x="860.253906" xlink:href="#DejaVuSans-30"/>
     <use x="923.876953" xlink:href="#DejaVuSans-2d"/>
     <use x="959.960938" xlink:href="#DejaVuSans-44"/>
    </g>
    <!-- 51 targets: 100..1e-08 -->
    <g transform="translate(60.41088 49.533135)scale(0.102 -0.102)">
     <defs>
      <path d="M 750 794 
L 1409 794 
L 1409 0 
L 750 0 
L 750 794 
z
M 750 3309 
L 1409 3309 
L 1409 2516 
L 750 2516 
L 750 3309 
z
" id="DejaVuSans-3a" transform="scale(0.015625)"/>
     </defs>
     <use xlink:href="#DejaVuSans-35"/>
     <use x="63.623047" xlink:href="#DejaVuSans-31"/>
     <use x="127.246094" xlink:href="#DejaVuSans-20"/>
     <use x="159.033203" xlink:href="#DejaVuSans-74"/>
     <use x="198.242188" xlink:href="#DejaVuSans-61"/>
     <use x="259.521484" xlink:href="#DejaVuSans-72"/>
     <use x="298.884766" xlink:href="#DejaVuSans-67"/>
     <use x="362.361328" xlink:href="#DejaVuSans-65"/>
     <use x="423.884766" xlink:href="#DejaVuSans-74"/>
     <use x="463.09375" xlink:href="#DejaVuSans-73"/>
     <use x="515.193359" xlink:href="#DejaVuSans-3a"/>
     <use x="548.884766" xlink:href="#DejaVuSans-20"/>
     <use x="580.671875" xlink:href="#DejaVuSans-31"/>
     <use x="644.294922" xlink:href="#DejaVuSans-30"/>
     <use x="707.917969" xlink:href="#DejaVuSans-30"/>
     <use x="771.541016" xlink:href="#DejaVuSans-2e"/>
     <use x="803.328125" xlink:href="#DejaVuSans-2e"/>
     <use x="835.115234" xlink:href="#DejaVuSans-31"/>
     <use x="898.738281" xlink:href="#DejaVuSans-65"/>
     <use x="960.261719" xlink:href="#DejaVuSans-2d"/>
     <use x="996.345703" xlink:href="#DejaVuSans-30"/>
     <use x="1059.96875" xlink:href="#DejaVuSans-38"/>
    </g>
    <!-- 15 instances -->
    <g transform="translate(60.41088 60.954904)scale(0.102 -0.102)">
     <use xlink:href="#DejaVuSans-31"/>
     <use x="63.623047" xlink:href="#DejaVuSans-35"/>
     <use x="127.246094" xlink:href="#DejaVuSans-20"/>
     <use x="159.033203" xlink:href="#DejaVuSans-69"/>
     <use x="186.816406" xlink:href="#DejaVuSans-6e"/>
     <use x="250.195312" xlink:href="#DejaVuSans-73"/>
     <use x="302.294922" xlink:href="#DejaVuSans-74"/>
     <use x="341.503906" xlink:href="#DejaVuSans-61"/>
     <use x="402.783203" xlink:href="#DejaVuSans-6e"/>
     <use x="466.162109" xlink:href="#DejaVuSans-63"/>
     <use x="521.142578" xlink:href="#DejaVuSans-65"/>
     <use x="582.666016" xlink:href="#DejaVuSans-73"/>
    </g>
   </g>
   <g id="text_18">
    <!-- v2.4.1.1 -->
    <g style="fill:#808080;" transform="translate(177.692437 294.151352)scale(0.1 -0.1)">
     <use xlink:href="#DejaVuSans-76"/>
     <use x="59.179688" xlink:href="#DejaVuSans-32"/>
     <use x="122.802734" xlink:href="#DejaVuSans-2e"/>
     <use x="154.589844" xlink:href="#DejaVuSans-34"/>
     <use x="218.212891" xlink:href="#DejaVuSans-2e"/>
     <use x="250" xlink:href="#DejaVuSans-31"/>
     <use x="313.623047" xlink:href="#DejaVuSans-2e"/>
     <use x="345.410156" xlink:href="#DejaVuSans-31"/>
    </g>
   </g>
   <g id="text_19">
    <!-- 5 Linear slope -->
    <g transform="translate(127.73775 21.648)scale(0.2 -0.2)">
     <defs>
      <path d="M 628 4666 
L 1259 4666 
L 1259 531 
L 3531 531 
L 3531 0 
L 628 0 
L 628 4666 
z
" id="DejaVuSans-4c" transform="scale(0.015625)"/>
     </defs>
     <use xlink:href="#DejaVuSans-35"/>
     <use x="63.623047" xlink:href="#DejaVuSans-20"/>
     <use x="95.410156" xlink:href="#DejaVuSans-4c"/>
     <use x="151.123047" xlink:href="#DejaVuSans-69"/>
     <use x="178.90625" xlink:href="#DejaVuSans-6e"/>
     <use x="242.285156" xlink:href="#DejaVuSans-65"/>
     <use x="303.808594" xlink:href="#DejaVuSans-61"/>
     <use x="365.087891" xlink:href="#DejaVuSans-72"/>
     <use x="406.201172" xlink:href="#DejaVuSans-20"/>
     <use x="437.988281" xlink:href="#DejaVuSans-73"/>
     <use x="490.087891" xlink:href="#DejaVuSans-6c"/>
     <use x="517.871094" xlink:href="#DejaVuSans-6f"/>
     <use x="579.052734" xlink:href="#DejaVuSans-70"/>
     <use x="642.529297" xlink:href="#DejaVuSans-65"/>
    </g>
   </g>
  </g>
 </g>
 <defs>
  <clipPath id="p33616a0eb8">
   <rect height="271.296" width="281.088" x="57.6" y="27.648"/>
  </clipPath>
 </defs>
</svg>
