<?xml version="1.0" encoding="utf-8" standalone="no"?>
<!DOCTYPE svg PUBLIC "-//W3C//DTD SVG 1.1//EN"
  "http://www.w3.org/Graphics/SVG/1.1/DTD/svg11.dtd">
<svg height="345.6pt" version="1.1" viewBox="0 0 460.8 345.6" width="460.8pt" xmlns="http://www.w3.org/2000/svg" xmlns:xlink="http://www.w3.org/1999/xlink">
 <metadata>
  <rdf:RDF xmlns:cc="http://creativecommons.org/ns#" xmlns:dc="http://purl.org/dc/elements/1.1/" xmlns:rdf="http://www.w3.org/1999/02/22-rdf-syntax-ns#">
   <cc:Work>
    <dc:type rdf:resource="http://purl.org/dc/dcmitype/StillImage"/>
    <dc:date>2022-03-29T13:04:09.106503</dc:date>
    <dc:format>image/svg+xml</dc:format>
    <dc:creator>
     <cc:Agent>
      <dc:title>Matplotlib v3.4.3, https://matplotlib.org/</dc:title>
     </cc:Agent>
    </dc:creator>
   </cc:Work>
  </rdf:RDF>
 </metadata>
 <defs>
  <style type="text/css">*{stroke-linecap:butt;stroke-linejoin:round;}</style>
 </defs>
 <g id="figure_1">
  <g id="patch_1">
   <path d="M 0 345.6 
L 460.8 345.6 
L 460.8 0 
L 0 0 
z
" style="fill:#ffffff;"/>
  </g>
  <g id="axes_1">
   <g id="patch_2">
    <path d="M 57.6 298.944 
L 338.688 298.944 
L 338.688 27.648 
L 57.6 27.648 
z
" style="fill:#ffffff;"/>
   </g>
   <g id="matplotlib.axis_1">
    <g id="xtick_1">
     <g id="line2d_1">
      <path clip-path="url(#p209f1e30ff)" d="M 57.6 298.944 
L 57.6 27.648 
" style="fill:none;stroke:#b0b0b0;stroke-linecap:square;stroke-width:0.8;"/>
     </g>
     <g id="line2d_2">
      <defs>
       <path d="M 0 0 
L 0 3.5 
" id="ma6603c0264" style="stroke:#000000;stroke-width:0.8;"/>
      </defs>
      <g>
       <use style="stroke:#000000;stroke-width:0.8;" x="57.6" xlink:href="#ma6603c0264" y="298.944"/>
      </g>
     </g>
     <g id="text_1">
      <!-- 0 -->
      <g transform="translate(51.2375 321.140875)scale(0.2 -0.2)">
       <defs>
        <path d="M 2034 4250 
Q 1547 4250 1301 3770 
Q 1056 3291 1056 2328 
Q 1056 1369 1301 889 
Q 1547 409 2034 409 
Q 2525 409 2770 889 
Q 3016 1369 3016 2328 
Q 3016 3291 2770 3770 
Q 2525 4250 2034 4250 
z
M 2034 4750 
Q 2819 4750 3233 4129 
Q 3647 3509 3647 2328 
Q 3647 1150 3233 529 
Q 2819 -91 2034 -91 
Q 1250 -91 836 529 
Q 422 1150 422 2328 
Q 422 3509 836 4129 
Q 1250 4750 2034 4750 
z
" id="DejaVuSans-30" transform="scale(0.015625)"/>
       </defs>
       <use xlink:href="#DejaVuSans-30"/>
      </g>
     </g>
    </g>
    <g id="xtick_2">
     <g id="line2d_3">
      <path clip-path="url(#p209f1e30ff)" d="M 137.910857 298.944 
L 137.910857 27.648 
" style="fill:none;stroke:#b0b0b0;stroke-linecap:square;stroke-width:0.8;"/>
     </g>
     <g id="line2d_4">
      <g>
       <use style="stroke:#000000;stroke-width:0.8;" x="137.910857" xlink:href="#ma6603c0264" y="298.944"/>
      </g>
     </g>
     <g id="text_2">
      <!-- 2 -->
      <g transform="translate(131.548357 321.140875)scale(0.2 -0.2)">
       <defs>
        <path d="M 1228 531 
L 3431 531 
L 3431 0 
L 469 0 
L 469 531 
Q 828 903 1448 1529 
Q 2069 2156 2228 2338 
Q 2531 2678 2651 2914 
Q 2772 3150 2772 3378 
Q 2772 3750 2511 3984 
Q 2250 4219 1831 4219 
Q 1534 4219 1204 4116 
Q 875 4013 500 3803 
L 500 4441 
Q 881 4594 1212 4672 
Q 1544 4750 1819 4750 
Q 2544 4750 2975 4387 
Q 3406 4025 3406 3419 
Q 3406 3131 3298 2873 
Q 3191 2616 2906 2266 
Q 2828 2175 2409 1742 
Q 1991 1309 1228 531 
z
" id="DejaVuSans-32" transform="scale(0.015625)"/>
       </defs>
       <use xlink:href="#DejaVuSans-32"/>
      </g>
     </g>
    </g>
    <g id="xtick_3">
     <g id="line2d_5">
      <path clip-path="url(#p209f1e30ff)" d="M 218.221714 298.944 
L 218.221714 27.648 
" style="fill:none;stroke:#b0b0b0;stroke-linecap:square;stroke-width:0.8;"/>
     </g>
     <g id="line2d_6">
      <g>
       <use style="stroke:#000000;stroke-width:0.8;" x="218.221714" xlink:href="#ma6603c0264" y="298.944"/>
      </g>
     </g>
     <g id="text_3">
      <!-- 4 -->
      <g transform="translate(211.859214 321.140875)scale(0.2 -0.2)">
       <defs>
        <path d="M 2419 4116 
L 825 1625 
L 2419 1625 
L 2419 4116 
z
M 2253 4666 
L 3047 4666 
L 3047 1625 
L 3713 1625 
L 3713 1100 
L 3047 1100 
L 3047 0 
L 2419 0 
L 2419 1100 
L 313 1100 
L 313 1709 
L 2253 4666 
z
" id="DejaVuSans-34" transform="scale(0.015625)"/>
       </defs>
       <use xlink:href="#DejaVuSans-34"/>
      </g>
     </g>
    </g>
    <g id="xtick_4">
     <g id="line2d_7">
      <path clip-path="url(#p209f1e30ff)" d="M 298.532571 298.944 
L 298.532571 27.648 
" style="fill:none;stroke:#b0b0b0;stroke-linecap:square;stroke-width:0.8;"/>
     </g>
     <g id="line2d_8">
      <g>
       <use style="stroke:#000000;stroke-width:0.8;" x="298.532571" xlink:href="#ma6603c0264" y="298.944"/>
      </g>
     </g>
     <g id="text_4">
      <!-- 6 -->
      <g transform="translate(292.170071 321.140875)scale(0.2 -0.2)">
       <defs>
        <path d="M 2113 2584 
Q 1688 2584 1439 2293 
Q 1191 2003 1191 1497 
Q 1191 994 1439 701 
Q 1688 409 2113 409 
Q 2538 409 2786 701 
Q 3034 994 3034 1497 
Q 3034 2003 2786 2293 
Q 2538 2584 2113 2584 
z
M 3366 4563 
L 3366 3988 
Q 3128 4100 2886 4159 
Q 2644 4219 2406 4219 
Q 1781 4219 1451 3797 
Q 1122 3375 1075 2522 
Q 1259 2794 1537 2939 
Q 1816 3084 2150 3084 
Q 2853 3084 3261 2657 
Q 3669 2231 3669 1497 
Q 3669 778 3244 343 
Q 2819 -91 2113 -91 
Q 1303 -91 875 529 
Q 447 1150 447 2328 
Q 447 3434 972 4092 
Q 1497 4750 2381 4750 
Q 2619 4750 2861 4703 
Q 3103 4656 3366 4563 
z
" id="DejaVuSans-36" transform="scale(0.015625)"/>
       </defs>
       <use xlink:href="#DejaVuSans-36"/>
      </g>
     </g>
    </g>
    <g id="xtick_5">
     <g id="line2d_9">
      <path clip-path="url(#p209f1e30ff)" d="M 97.755429 298.944 
L 97.755429 27.648 
" style="fill:none;stroke:#b0b0b0;stroke-linecap:square;stroke-width:0.8;"/>
     </g>
     <g id="line2d_10">
      <defs>
       <path d="M 0 0 
L 0 2 
" id="md34b4303e8" style="stroke:#000000;stroke-width:0.6;"/>
      </defs>
      <g>
       <use style="stroke:#000000;stroke-width:0.6;" x="97.755429" xlink:href="#md34b4303e8" y="298.944"/>
      </g>
     </g>
    </g>
    <g id="xtick_6">
     <g id="line2d_11">
      <path clip-path="url(#p209f1e30ff)" d="M 178.066286 298.944 
L 178.066286 27.648 
" style="fill:none;stroke:#b0b0b0;stroke-linecap:square;stroke-width:0.8;"/>
     </g>
     <g id="line2d_12">
      <g>
       <use style="stroke:#000000;stroke-width:0.6;" x="178.066286" xlink:href="#md34b4303e8" y="298.944"/>
      </g>
     </g>
    </g>
    <g id="xtick_7">
     <g id="line2d_13">
      <path clip-path="url(#p209f1e30ff)" d="M 258.377143 298.944 
L 258.377143 27.648 
" style="fill:none;stroke:#b0b0b0;stroke-linecap:square;stroke-width:0.8;"/>
     </g>
     <g id="line2d_14">
      <g>
       <use style="stroke:#000000;stroke-width:0.6;" x="258.377143" xlink:href="#md34b4303e8" y="298.944"/>
      </g>
     </g>
    </g>
    <g id="xtick_8">
     <g id="line2d_15">
      <path clip-path="url(#p209f1e30ff)" d="M 338.688 298.944 
L 338.688 27.648 
" style="fill:none;stroke:#b0b0b0;stroke-linecap:square;stroke-width:0.8;"/>
     </g>
     <g id="line2d_16">
      <g>
       <use style="stroke:#000000;stroke-width:0.6;" x="338.688" xlink:href="#md34b4303e8" y="298.944"/>
      </g>
     </g>
    </g>
    <g id="text_5">
     <!-- log10(# f-evals / dimension) -->
     <g transform="translate(77.764078 342.217594)scale(0.17 -0.17)">
      <defs>
       <path d="M 603 4863 
L 1178 4863 
L 1178 0 
L 603 0 
L 603 4863 
z
" id="DejaVuSans-6c" transform="scale(0.015625)"/>
       <path d="M 1959 3097 
Q 1497 3097 1228 2736 
Q 959 2375 959 1747 
Q 959 1119 1226 758 
Q 1494 397 1959 397 
Q 2419 397 2687 759 
Q 2956 1122 2956 1747 
Q 2956 2369 2687 2733 
Q 2419 3097 1959 3097 
z
M 1959 3584 
Q 2709 3584 3137 3096 
Q 3566 2609 3566 1747 
Q 3566 888 3137 398 
Q 2709 -91 1959 -91 
Q 1206 -91 779 398 
Q 353 888 353 1747 
Q 353 2609 779 3096 
Q 1206 3584 1959 3584 
z
" id="DejaVuSans-6f" transform="scale(0.015625)"/>
       <path d="M 2906 1791 
Q 2906 2416 2648 2759 
Q 2391 3103 1925 3103 
Q 1463 3103 1205 2759 
Q 947 2416 947 1791 
Q 947 1169 1205 825 
Q 1463 481 1925 481 
Q 2391 481 2648 825 
Q 2906 1169 2906 1791 
z
M 3481 434 
Q 3481 -459 3084 -895 
Q 2688 -1331 1869 -1331 
Q 1566 -1331 1297 -1286 
Q 1028 -1241 775 -1147 
L 775 -588 
Q 1028 -725 1275 -790 
Q 1522 -856 1778 -856 
Q 2344 -856 2625 -561 
Q 2906 -266 2906 331 
L 2906 616 
Q 2728 306 2450 153 
Q 2172 0 1784 0 
Q 1141 0 747 490 
Q 353 981 353 1791 
Q 353 2603 747 3093 
Q 1141 3584 1784 3584 
Q 2172 3584 2450 3431 
Q 2728 3278 2906 2969 
L 2906 3500 
L 3481 3500 
L 3481 434 
z
" id="DejaVuSans-67" transform="scale(0.015625)"/>
       <path d="M 794 531 
L 1825 531 
L 1825 4091 
L 703 3866 
L 703 4441 
L 1819 4666 
L 2450 4666 
L 2450 531 
L 3481 531 
L 3481 0 
L 794 0 
L 794 531 
z
" id="DejaVuSans-31" transform="scale(0.015625)"/>
       <path d="M 1984 4856 
Q 1566 4138 1362 3434 
Q 1159 2731 1159 2009 
Q 1159 1288 1364 580 
Q 1569 -128 1984 -844 
L 1484 -844 
Q 1016 -109 783 600 
Q 550 1309 550 2009 
Q 550 2706 781 3412 
Q 1013 4119 1484 4856 
L 1984 4856 
z
" id="DejaVuSans-28" transform="scale(0.015625)"/>
       <path d="M 3272 2816 
L 2363 2816 
L 2100 1772 
L 3016 1772 
L 3272 2816 
z
M 2803 4594 
L 2478 3297 
L 3391 3297 
L 3719 4594 
L 4219 4594 
L 3897 3297 
L 4872 3297 
L 4872 2816 
L 3775 2816 
L 3519 1772 
L 4513 1772 
L 4513 1294 
L 3397 1294 
L 3072 0 
L 2572 0 
L 2894 1294 
L 1978 1294 
L 1656 0 
L 1153 0 
L 1478 1294 
L 494 1294 
L 494 1772 
L 1594 1772 
L 1856 2816 
L 850 2816 
L 850 3297 
L 1978 3297 
L 2297 4594 
L 2803 4594 
z
" id="DejaVuSans-23" transform="scale(0.015625)"/>
       <path id="DejaVuSans-20" transform="scale(0.015625)"/>
       <path d="M 2375 4863 
L 2375 4384 
L 1825 4384 
Q 1516 4384 1395 4259 
Q 1275 4134 1275 3809 
L 1275 3500 
L 2222 3500 
L 2222 3053 
L 1275 3053 
L 1275 0 
L 697 0 
L 697 3053 
L 147 3053 
L 147 3500 
L 697 3500 
L 697 3744 
Q 697 4328 969 4595 
Q 1241 4863 1831 4863 
L 2375 4863 
z
" id="DejaVuSans-66" transform="scale(0.015625)"/>
       <path d="M 313 2009 
L 1997 2009 
L 1997 1497 
L 313 1497 
L 313 2009 
z
" id="DejaVuSans-2d" transform="scale(0.015625)"/>
       <path d="M 3597 1894 
L 3597 1613 
L 953 1613 
Q 991 1019 1311 708 
Q 1631 397 2203 397 
Q 2534 397 2845 478 
Q 3156 559 3463 722 
L 3463 178 
Q 3153 47 2828 -22 
Q 2503 -91 2169 -91 
Q 1331 -91 842 396 
Q 353 884 353 1716 
Q 353 2575 817 3079 
Q 1281 3584 2069 3584 
Q 2775 3584 3186 3129 
Q 3597 2675 3597 1894 
z
M 3022 2063 
Q 3016 2534 2758 2815 
Q 2500 3097 2075 3097 
Q 1594 3097 1305 2825 
Q 1016 2553 972 2059 
L 3022 2063 
z
" id="DejaVuSans-65" transform="scale(0.015625)"/>
       <path d="M 191 3500 
L 800 3500 
L 1894 563 
L 2988 3500 
L 3597 3500 
L 2284 0 
L 1503 0 
L 191 3500 
z
" id="DejaVuSans-76" transform="scale(0.015625)"/>
       <path d="M 2194 1759 
Q 1497 1759 1228 1600 
Q 959 1441 959 1056 
Q 959 750 1161 570 
Q 1363 391 1709 391 
Q 2188 391 2477 730 
Q 2766 1069 2766 1631 
L 2766 1759 
L 2194 1759 
z
M 3341 1997 
L 3341 0 
L 2766 0 
L 2766 531 
Q 2569 213 2275 61 
Q 1981 -91 1556 -91 
Q 1019 -91 701 211 
Q 384 513 384 1019 
Q 384 1609 779 1909 
Q 1175 2209 1959 2209 
L 2766 2209 
L 2766 2266 
Q 2766 2663 2505 2880 
Q 2244 3097 1772 3097 
Q 1472 3097 1187 3025 
Q 903 2953 641 2809 
L 641 3341 
Q 956 3463 1253 3523 
Q 1550 3584 1831 3584 
Q 2591 3584 2966 3190 
Q 3341 2797 3341 1997 
z
" id="DejaVuSans-61" transform="scale(0.015625)"/>
       <path d="M 2834 3397 
L 2834 2853 
Q 2591 2978 2328 3040 
Q 2066 3103 1784 3103 
Q 1356 3103 1142 2972 
Q 928 2841 928 2578 
Q 928 2378 1081 2264 
Q 1234 2150 1697 2047 
L 1894 2003 
Q 2506 1872 2764 1633 
Q 3022 1394 3022 966 
Q 3022 478 2636 193 
Q 2250 -91 1575 -91 
Q 1294 -91 989 -36 
Q 684 19 347 128 
L 347 722 
Q 666 556 975 473 
Q 1284 391 1588 391 
Q 1994 391 2212 530 
Q 2431 669 2431 922 
Q 2431 1156 2273 1281 
Q 2116 1406 1581 1522 
L 1381 1569 
Q 847 1681 609 1914 
Q 372 2147 372 2553 
Q 372 3047 722 3315 
Q 1072 3584 1716 3584 
Q 2034 3584 2315 3537 
Q 2597 3491 2834 3397 
z
" id="DejaVuSans-73" transform="scale(0.015625)"/>
       <path d="M 1625 4666 
L 2156 4666 
L 531 -594 
L 0 -594 
L 1625 4666 
z
" id="DejaVuSans-2f" transform="scale(0.015625)"/>
       <path d="M 2906 2969 
L 2906 4863 
L 3481 4863 
L 3481 0 
L 2906 0 
L 2906 525 
Q 2725 213 2448 61 
Q 2172 -91 1784 -91 
Q 1150 -91 751 415 
Q 353 922 353 1747 
Q 353 2572 751 3078 
Q 1150 3584 1784 3584 
Q 2172 3584 2448 3432 
Q 2725 3281 2906 2969 
z
M 947 1747 
Q 947 1113 1208 752 
Q 1469 391 1925 391 
Q 2381 391 2643 752 
Q 2906 1113 2906 1747 
Q 2906 2381 2643 2742 
Q 2381 3103 1925 3103 
Q 1469 3103 1208 2742 
Q 947 2381 947 1747 
z
" id="DejaVuSans-64" transform="scale(0.015625)"/>
       <path d="M 603 3500 
L 1178 3500 
L 1178 0 
L 603 0 
L 603 3500 
z
M 603 4863 
L 1178 4863 
L 1178 4134 
L 603 4134 
L 603 4863 
z
" id="DejaVuSans-69" transform="scale(0.015625)"/>
       <path d="M 3328 2828 
Q 3544 3216 3844 3400 
Q 4144 3584 4550 3584 
Q 5097 3584 5394 3201 
Q 5691 2819 5691 2113 
L 5691 0 
L 5113 0 
L 5113 2094 
Q 5113 2597 4934 2840 
Q 4756 3084 4391 3084 
Q 3944 3084 3684 2787 
Q 3425 2491 3425 1978 
L 3425 0 
L 2847 0 
L 2847 2094 
Q 2847 2600 2669 2842 
Q 2491 3084 2119 3084 
Q 1678 3084 1418 2786 
Q 1159 2488 1159 1978 
L 1159 0 
L 581 0 
L 581 3500 
L 1159 3500 
L 1159 2956 
Q 1356 3278 1631 3431 
Q 1906 3584 2284 3584 
Q 2666 3584 2933 3390 
Q 3200 3197 3328 2828 
z
" id="DejaVuSans-6d" transform="scale(0.015625)"/>
       <path d="M 3513 2113 
L 3513 0 
L 2938 0 
L 2938 2094 
Q 2938 2591 2744 2837 
Q 2550 3084 2163 3084 
Q 1697 3084 1428 2787 
Q 1159 2491 1159 1978 
L 1159 0 
L 581 0 
L 581 3500 
L 1159 3500 
L 1159 2956 
Q 1366 3272 1645 3428 
Q 1925 3584 2291 3584 
Q 2894 3584 3203 3211 
Q 3513 2838 3513 2113 
z
" id="DejaVuSans-6e" transform="scale(0.015625)"/>
       <path d="M 513 4856 
L 1013 4856 
Q 1481 4119 1714 3412 
Q 1947 2706 1947 2009 
Q 1947 1309 1714 600 
Q 1481 -109 1013 -844 
L 513 -844 
Q 928 -128 1133 580 
Q 1338 1288 1338 2009 
Q 1338 2731 1133 3434 
Q 928 4138 513 4856 
z
" id="DejaVuSans-29" transform="scale(0.015625)"/>
      </defs>
      <use xlink:href="#DejaVuSans-6c"/>
      <use x="27.783203" xlink:href="#DejaVuSans-6f"/>
      <use x="88.964844" xlink:href="#DejaVuSans-67"/>
      <use x="152.441406" xlink:href="#DejaVuSans-31"/>
      <use x="216.064453" xlink:href="#DejaVuSans-30"/>
      <use x="279.6875" xlink:href="#DejaVuSans-28"/>
      <use x="318.701172" xlink:href="#DejaVuSans-23"/>
      <use x="402.490234" xlink:href="#DejaVuSans-20"/>
      <use x="434.277344" xlink:href="#DejaVuSans-66"/>
      <use x="463.982422" xlink:href="#DejaVuSans-2d"/>
      <use x="500.066406" xlink:href="#DejaVuSans-65"/>
      <use x="561.589844" xlink:href="#DejaVuSans-76"/>
      <use x="620.769531" xlink:href="#DejaVuSans-61"/>
      <use x="682.048828" xlink:href="#DejaVuSans-6c"/>
      <use x="709.832031" xlink:href="#DejaVuSans-73"/>
      <use x="761.931641" xlink:href="#DejaVuSans-20"/>
      <use x="793.71875" xlink:href="#DejaVuSans-2f"/>
      <use x="827.410156" xlink:href="#DejaVuSans-20"/>
      <use x="859.197266" xlink:href="#DejaVuSans-64"/>
      <use x="922.673828" xlink:href="#DejaVuSans-69"/>
      <use x="950.457031" xlink:href="#DejaVuSans-6d"/>
      <use x="1047.869141" xlink:href="#DejaVuSans-65"/>
      <use x="1109.392578" xlink:href="#DejaVuSans-6e"/>
      <use x="1172.771484" xlink:href="#DejaVuSans-73"/>
      <use x="1224.871094" xlink:href="#DejaVuSans-69"/>
      <use x="1252.654297" xlink:href="#DejaVuSans-6f"/>
      <use x="1313.835938" xlink:href="#DejaVuSans-6e"/>
      <use x="1377.214844" xlink:href="#DejaVuSans-29"/>
     </g>
    </g>
   </g>
   <g id="matplotlib.axis_2">
    <g id="ytick_1">
     <g id="line2d_17">
      <path clip-path="url(#p209f1e30ff)" d="M 57.6 298.944 
L 338.688 298.944 
" style="fill:none;stroke:#b0b0b0;stroke-linecap:square;stroke-width:0.8;"/>
     </g>
     <g id="line2d_18">
      <defs>
       <path d="M 0 0 
L -3.5 0 
" id="m868fc818d8" style="stroke:#000000;stroke-width:0.8;"/>
      </defs>
      <g>
       <use style="stroke:#000000;stroke-width:0.8;" x="57.6" xlink:href="#m868fc818d8" y="298.944"/>
      </g>
     </g>
     <g id="text_6">
      <!-- 0.0 -->
      <g transform="translate(25.155 305.02275)scale(0.16 -0.16)">
       <defs>
        <path d="M 684 794 
L 1344 794 
L 1344 0 
L 684 0 
L 684 794 
z
" id="DejaVuSans-2e" transform="scale(0.015625)"/>
       </defs>
       <use xlink:href="#DejaVuSans-30"/>
       <use x="63.623047" xlink:href="#DejaVuSans-2e"/>
       <use x="95.410156" xlink:href="#DejaVuSans-30"/>
      </g>
     </g>
    </g>
    <g id="ytick_2">
     <g id="line2d_19">
      <path clip-path="url(#p209f1e30ff)" d="M 57.6 245.22202 
L 338.688 245.22202 
" style="fill:none;stroke:#b0b0b0;stroke-linecap:square;stroke-width:0.8;"/>
     </g>
     <g id="line2d_20">
      <g>
       <use style="stroke:#000000;stroke-width:0.8;" x="57.6" xlink:href="#m868fc818d8" y="245.22202"/>
      </g>
     </g>
     <g id="text_7">
      <!-- 0.2 -->
      <g transform="translate(25.155 251.30077)scale(0.16 -0.16)">
       <use xlink:href="#DejaVuSans-30"/>
       <use x="63.623047" xlink:href="#DejaVuSans-2e"/>
       <use x="95.410156" xlink:href="#DejaVuSans-32"/>
      </g>
     </g>
    </g>
    <g id="ytick_3">
     <g id="line2d_21">
      <path clip-path="url(#p209f1e30ff)" d="M 57.6 191.50004 
L 338.688 191.50004 
" style="fill:none;stroke:#b0b0b0;stroke-linecap:square;stroke-width:0.8;"/>
     </g>
     <g id="line2d_22">
      <g>
       <use style="stroke:#000000;stroke-width:0.8;" x="57.6" xlink:href="#m868fc818d8" y="191.50004"/>
      </g>
     </g>
     <g id="text_8">
      <!-- 0.4 -->
      <g transform="translate(25.155 197.57879)scale(0.16 -0.16)">
       <use xlink:href="#DejaVuSans-30"/>
       <use x="63.623047" xlink:href="#DejaVuSans-2e"/>
       <use x="95.410156" xlink:href="#DejaVuSans-34"/>
      </g>
     </g>
    </g>
    <g id="ytick_4">
     <g id="line2d_23">
      <path clip-path="url(#p209f1e30ff)" d="M 57.6 137.778059 
L 338.688 137.778059 
" style="fill:none;stroke:#b0b0b0;stroke-linecap:square;stroke-width:0.8;"/>
     </g>
     <g id="line2d_24">
      <g>
       <use style="stroke:#000000;stroke-width:0.8;" x="57.6" xlink:href="#m868fc818d8" y="137.778059"/>
      </g>
     </g>
     <g id="text_9">
      <!-- 0.6 -->
      <g transform="translate(25.155 143.856809)scale(0.16 -0.16)">
       <use xlink:href="#DejaVuSans-30"/>
       <use x="63.623047" xlink:href="#DejaVuSans-2e"/>
       <use x="95.410156" xlink:href="#DejaVuSans-36"/>
      </g>
     </g>
    </g>
    <g id="ytick_5">
     <g id="line2d_25">
      <path clip-path="url(#p209f1e30ff)" d="M 57.6 84.056079 
L 338.688 84.056079 
" style="fill:none;stroke:#b0b0b0;stroke-linecap:square;stroke-width:0.8;"/>
     </g>
     <g id="line2d_26">
      <g>
       <use style="stroke:#000000;stroke-width:0.8;" x="57.6" xlink:href="#m868fc818d8" y="84.056079"/>
      </g>
     </g>
     <g id="text_10">
      <!-- 0.8 -->
      <g transform="translate(25.155 90.134829)scale(0.16 -0.16)">
       <defs>
        <path d="M 2034 2216 
Q 1584 2216 1326 1975 
Q 1069 1734 1069 1313 
Q 1069 891 1326 650 
Q 1584 409 2034 409 
Q 2484 409 2743 651 
Q 3003 894 3003 1313 
Q 3003 1734 2745 1975 
Q 2488 2216 2034 2216 
z
M 1403 2484 
Q 997 2584 770 2862 
Q 544 3141 544 3541 
Q 544 4100 942 4425 
Q 1341 4750 2034 4750 
Q 2731 4750 3128 4425 
Q 3525 4100 3525 3541 
Q 3525 3141 3298 2862 
Q 3072 2584 2669 2484 
Q 3125 2378 3379 2068 
Q 3634 1759 3634 1313 
Q 3634 634 3220 271 
Q 2806 -91 2034 -91 
Q 1263 -91 848 271 
Q 434 634 434 1313 
Q 434 1759 690 2068 
Q 947 2378 1403 2484 
z
M 1172 3481 
Q 1172 3119 1398 2916 
Q 1625 2713 2034 2713 
Q 2441 2713 2670 2916 
Q 2900 3119 2900 3481 
Q 2900 3844 2670 4047 
Q 2441 4250 2034 4250 
Q 1625 4250 1398 4047 
Q 1172 3844 1172 3481 
z
" id="DejaVuSans-38" transform="scale(0.015625)"/>
       </defs>
       <use xlink:href="#DejaVuSans-30"/>
       <use x="63.623047" xlink:href="#DejaVuSans-2e"/>
       <use x="95.410156" xlink:href="#DejaVuSans-38"/>
      </g>
     </g>
    </g>
    <g id="ytick_6">
     <g id="line2d_27">
      <path clip-path="url(#p209f1e30ff)" d="M 57.6 30.334099 
L 338.688 30.334099 
" style="fill:none;stroke:#b0b0b0;stroke-linecap:square;stroke-width:0.8;"/>
     </g>
     <g id="line2d_28">
      <g>
       <use style="stroke:#000000;stroke-width:0.8;" x="57.6" xlink:href="#m868fc818d8" y="30.334099"/>
      </g>
     </g>
     <g id="text_11">
      <!-- 1.0 -->
      <g transform="translate(25.155 36.412849)scale(0.16 -0.16)">
       <use xlink:href="#DejaVuSans-31"/>
       <use x="63.623047" xlink:href="#DejaVuSans-2e"/>
       <use x="95.410156" xlink:href="#DejaVuSans-30"/>
      </g>
     </g>
    </g>
    <g id="text_12">
     <!-- Fraction of function,target pairs -->
     <g transform="translate(17.619531 297.681)rotate(-90)scale(0.17 -0.17)">
      <defs>
       <path d="M 628 4666 
L 3309 4666 
L 3309 4134 
L 1259 4134 
L 1259 2759 
L 3109 2759 
L 3109 2228 
L 1259 2228 
L 1259 0 
L 628 0 
L 628 4666 
z
" id="DejaVuSans-46" transform="scale(0.015625)"/>
       <path d="M 2631 2963 
Q 2534 3019 2420 3045 
Q 2306 3072 2169 3072 
Q 1681 3072 1420 2755 
Q 1159 2438 1159 1844 
L 1159 0 
L 581 0 
L 581 3500 
L 1159 3500 
L 1159 2956 
Q 1341 3275 1631 3429 
Q 1922 3584 2338 3584 
Q 2397 3584 2469 3576 
Q 2541 3569 2628 3553 
L 2631 2963 
z
" id="DejaVuSans-72" transform="scale(0.015625)"/>
       <path d="M 3122 3366 
L 3122 2828 
Q 2878 2963 2633 3030 
Q 2388 3097 2138 3097 
Q 1578 3097 1268 2742 
Q 959 2388 959 1747 
Q 959 1106 1268 751 
Q 1578 397 2138 397 
Q 2388 397 2633 464 
Q 2878 531 3122 666 
L 3122 134 
Q 2881 22 2623 -34 
Q 2366 -91 2075 -91 
Q 1284 -91 818 406 
Q 353 903 353 1747 
Q 353 2603 823 3093 
Q 1294 3584 2113 3584 
Q 2378 3584 2631 3529 
Q 2884 3475 3122 3366 
z
" id="DejaVuSans-63" transform="scale(0.015625)"/>
       <path d="M 1172 4494 
L 1172 3500 
L 2356 3500 
L 2356 3053 
L 1172 3053 
L 1172 1153 
Q 1172 725 1289 603 
Q 1406 481 1766 481 
L 2356 481 
L 2356 0 
L 1766 0 
Q 1100 0 847 248 
Q 594 497 594 1153 
L 594 3053 
L 172 3053 
L 172 3500 
L 594 3500 
L 594 4494 
L 1172 4494 
z
" id="DejaVuSans-74" transform="scale(0.015625)"/>
       <path d="M 544 1381 
L 544 3500 
L 1119 3500 
L 1119 1403 
Q 1119 906 1312 657 
Q 1506 409 1894 409 
Q 2359 409 2629 706 
Q 2900 1003 2900 1516 
L 2900 3500 
L 3475 3500 
L 3475 0 
L 2900 0 
L 2900 538 
Q 2691 219 2414 64 
Q 2138 -91 1772 -91 
Q 1169 -91 856 284 
Q 544 659 544 1381 
z
M 1991 3584 
L 1991 3584 
z
" id="DejaVuSans-75" transform="scale(0.015625)"/>
       <path d="M 750 794 
L 1409 794 
L 1409 256 
L 897 -744 
L 494 -744 
L 750 256 
L 750 794 
z
" id="DejaVuSans-2c" transform="scale(0.015625)"/>
       <path d="M 1159 525 
L 1159 -1331 
L 581 -1331 
L 581 3500 
L 1159 3500 
L 1159 2969 
Q 1341 3281 1617 3432 
Q 1894 3584 2278 3584 
Q 2916 3584 3314 3078 
Q 3713 2572 3713 1747 
Q 3713 922 3314 415 
Q 2916 -91 2278 -91 
Q 1894 -91 1617 61 
Q 1341 213 1159 525 
z
M 3116 1747 
Q 3116 2381 2855 2742 
Q 2594 3103 2138 3103 
Q 1681 3103 1420 2742 
Q 1159 2381 1159 1747 
Q 1159 1113 1420 752 
Q 1681 391 2138 391 
Q 2594 391 2855 752 
Q 3116 1113 3116 1747 
z
" id="DejaVuSans-70" transform="scale(0.015625)"/>
      </defs>
      <use xlink:href="#DejaVuSans-46"/>
      <use x="50.269531" xlink:href="#DejaVuSans-72"/>
      <use x="91.382812" xlink:href="#DejaVuSans-61"/>
      <use x="152.662109" xlink:href="#DejaVuSans-63"/>
      <use x="207.642578" xlink:href="#DejaVuSans-74"/>
      <use x="246.851562" xlink:href="#DejaVuSans-69"/>
      <use x="274.634766" xlink:href="#DejaVuSans-6f"/>
      <use x="335.816406" xlink:href="#DejaVuSans-6e"/>
      <use x="399.195312" xlink:href="#DejaVuSans-20"/>
      <use x="430.982422" xlink:href="#DejaVuSans-6f"/>
      <use x="492.164062" xlink:href="#DejaVuSans-66"/>
      <use x="527.369141" xlink:href="#DejaVuSans-20"/>
      <use x="559.15625" xlink:href="#DejaVuSans-66"/>
      <use x="594.361328" xlink:href="#DejaVuSans-75"/>
      <use x="657.740234" xlink:href="#DejaVuSans-6e"/>
      <use x="721.119141" xlink:href="#DejaVuSans-63"/>
      <use x="776.099609" xlink:href="#DejaVuSans-74"/>
      <use x="815.308594" xlink:href="#DejaVuSans-69"/>
      <use x="843.091797" xlink:href="#DejaVuSans-6f"/>
      <use x="904.273438" xlink:href="#DejaVuSans-6e"/>
      <use x="967.652344" xlink:href="#DejaVuSans-2c"/>
      <use x="999.439453" xlink:href="#DejaVuSans-74"/>
      <use x="1038.648438" xlink:href="#DejaVuSans-61"/>
      <use x="1099.927734" xlink:href="#DejaVuSans-72"/>
      <use x="1139.291016" xlink:href="#DejaVuSans-67"/>
      <use x="1202.767578" xlink:href="#DejaVuSans-65"/>
      <use x="1264.291016" xlink:href="#DejaVuSans-74"/>
      <use x="1303.5" xlink:href="#DejaVuSans-20"/>
      <use x="1335.287109" xlink:href="#DejaVuSans-70"/>
      <use x="1398.763672" xlink:href="#DejaVuSans-61"/>
      <use x="1460.042969" xlink:href="#DejaVuSans-69"/>
      <use x="1487.826172" xlink:href="#DejaVuSans-72"/>
      <use x="1528.939453" xlink:href="#DejaVuSans-73"/>
     </g>
    </g>
   </g>
   <g id="line2d_29">
    <defs>
     <path d="M 0 1.5 
C 0.397805 1.5 0.77937 1.341951 1.06066 1.06066 
C 1.341951 0.77937 1.5 0.397805 1.5 0 
C 1.5 -0.397805 1.341951 -0.77937 1.06066 -1.06066 
C 0.77937 -1.341951 0.397805 -1.5 0 -1.5 
C -0.397805 -1.5 -0.77937 -1.341951 -1.06066 -1.06066 
C -1.341951 -0.77937 -1.5 -0.397805 -1.5 0 
C -1.5 0.397805 -1.341951 0.77937 -1.06066 1.06066 
C -0.77937 1.341951 -0.397805 1.5 0 1.5 
z
" id="m09c617822f" style="stroke:#000080;"/>
    </defs>
    <g>
     <use style="fill:#000080;stroke:#000080;" x="260.384305" xlink:href="#m09c617822f" y="30.334099"/>
     <use style="fill:#000080;stroke:#000080;" x="260.384305" xlink:href="#m09c617822f" y="30.334099"/>
    </g>
   </g>
   <g id="line2d_30">
    <path d="M -1 293.677139 
L 62.175444 293.677139 
L 62.175444 293.150453 
L 70.949209 293.150453 
L 70.949209 292.623767 
L 76.903734 292.623767 
L 76.903734 292.097081 
L 78.288531 292.097081 
L 78.288531 291.570395 
L 84.955534 291.570395 
L 85.046128 290.517023 
L 87.565783 290.517023 
L 87.565783 289.990337 
L 90.242884 289.990337 
L 90.242884 289.463651 
L 90.442955 289.463651 
L 90.442955 288.936964 
L 91.965895 288.936964 
L 91.965895 288.410278 
L 92.445356 288.410278 
L 92.445356 287.883592 
L 94.400601 287.883592 
L 94.400601 287.356906 
L 96.536665 287.356906 
L 96.536665 286.83022 
L 96.722686 286.83022 
L 96.722686 286.303534 
L 98.771596 286.303534 
L 98.771596 285.776848 
L 99.338119 285.776848 
L 99.338119 285.250162 
L 104.651178 285.250162 
L 104.651178 284.723476 
L 104.942325 284.723476 
L 104.942325 284.19679 
L 106.168594 284.19679 
L 106.168594 283.670104 
L 106.48859 283.670104 
L 106.48859 283.143418 
L 106.672578 283.143418 
L 106.672578 282.616732 
L 107.111487 282.616732 
L 107.111487 282.090045 
L 107.614095 282.090045 
L 107.614095 281.563359 
L 107.90885 281.563359 
L 107.90885 281.036673 
L 110.337724 281.036673 
L 110.337724 280.509987 
L 111.897469 280.509987 
L 111.897469 279.983301 
L 112.692883 279.983301 
L 112.692883 279.456615 
L 113.752311 279.456615 
L 113.752311 278.929929 
L 114.0117 278.929929 
L 114.0117 278.403243 
L 114.816733 278.403243 
L 114.816733 277.876557 
L 115.077025 277.876557 
L 115.077025 277.349871 
L 115.804426 277.349871 
L 115.804426 276.823185 
L 116.739166 276.823185 
L 116.739166 276.296499 
L 117.001416 276.296499 
L 117.001416 275.769812 
L 122.233953 275.769812 
L 122.233953 275.243126 
L 123.192626 275.243126 
L 123.192626 274.71644 
L 130.511968 274.71644 
L 130.511968 274.189754 
L 142.798734 274.189754 
L 142.798734 273.663068 
L 152.220667 273.663068 
L 152.220667 273.136382 
L 152.574024 273.136382 
L 152.574024 272.609696 
L 165.735959 272.609696 
L 165.735959 272.08301 
L 166.409769 272.08301 
L 166.409769 271.556324 
L 180.601172 271.556324 
L 180.601172 271.029638 
L 180.734496 271.029638 
L 180.734496 270.502952 
L 183.53821 270.502952 
L 183.581799 269.449579 
L 183.7302 269.449579 
L 183.7302 268.922893 
L 183.952172 268.922893 
L 183.952172 268.396207 
L 184.174733 268.396207 
L 184.282211 266.816149 
L 184.314843 266.816149 
L 184.314843 266.289463 
L 184.545786 266.289463 
L 184.601923 264.709405 
L 184.670424 264.709405 
L 184.772524 263.129347 
L 184.783205 263.129347 
L 184.783205 262.60266 
L 184.895852 262.60266 
L 185.003675 259.96923 
L 185.02358 259.96923 
L 185.064198 257.3358 
L 189.685452 257.3358 
L 189.685452 256.282427 
L 189.807736 256.282427 
L 189.908399 254.175683 
L 189.920776 254.175683 
L 189.920776 253.648997 
L 190.161684 253.648997 
L 190.161684 253.122311 
L 190.586172 253.122311 
L 190.586172 252.595625 
L 190.890787 252.595625 
L 190.890787 252.068939 
L 191.280733 252.068939 
L 191.280733 251.542253 
L 191.565314 251.542253 
L 191.660951 249.435508 
L 191.766205 249.435508 
L 191.766205 248.908822 
L 191.968738 248.908822 
L 192.074695 247.328764 
L 192.135316 247.328764 
L 192.191072 246.275392 
L 192.258247 246.275392 
L 192.258247 245.748706 
L 192.491629 245.748706 
L 192.491629 245.22202 
L 192.650475 245.22202 
L 192.742424 243.641962 
L 192.797212 243.641962 
L 192.841742 242.588589 
L 192.909812 242.588589 
L 193.009848 239.428473 
L 194.694133 239.428473 
L 194.694133 238.901787 
L 195.105941 238.901787 
L 195.105941 238.375101 
L 195.222722 238.375101 
L 195.292514 237.321729 
L 195.502957 237.321729 
L 195.502957 236.795043 
L 196.550286 236.795043 
L 196.645347 234.161612 
L 196.67222 234.161612 
L 196.780192 231.001496 
L 196.784813 231.001496 
L 196.800456 229.948123 
L 196.900978 229.948123 
L 197.010932 227.314693 
L 197.024462 227.314693 
L 197.120636 223.101204 
L 197.138755 223.101204 
L 197.200134 221.521146 
L 197.25361 221.521146 
L 197.304174 220.467774 
L 197.629524 220.467774 
L 197.722285 219.414402 
L 197.872205 219.414402 
L 197.925896 218.36103 
L 198.072837 218.36103 
L 198.072837 217.834344 
L 198.184197 217.834344 
L 198.184197 217.307658 
L 198.355567 217.307658 
L 198.446182 215.727599 
L 199.430859 215.727599 
L 199.450442 214.674227 
L 199.547136 214.674227 
L 199.587034 212.567483 
L 199.796084 212.567483 
L 199.796084 212.040797 
L 199.959103 212.040797 
L 199.959103 211.514111 
L 201.642736 211.514111 
L 201.751481 209.407366 
L 201.790339 209.407366 
L 201.893612 206.773936 
L 201.909839 206.773936 
L 201.949787 203.087133 
L 202.186696 203.087133 
L 202.186696 202.560447 
L 202.342902 202.560447 
L 202.378627 201.507075 
L 202.50352 201.507075 
L 202.50352 200.980389 
L 202.688084 200.980389 
L 202.688084 200.453703 
L 202.818383 200.453703 
L 202.865667 199.400331 
L 203.023544 199.400331 
L 203.095308 197.820273 
L 203.332104 197.820273 
L 203.332104 196.7669 
L 203.571788 196.7669 
L 203.571788 196.240214 
L 203.713312 196.240214 
L 203.713312 195.713528 
L 204.958669 195.713528 
L 204.958669 195.186842 
L 205.330753 195.186842 
L 205.330753 194.660156 
L 207.127834 194.660156 
L 207.220577 190.973354 
L 207.243665 190.973354 
L 207.350927 186.233179 
L 207.36304 186.233179 
L 207.466745 182.546376 
L 207.679827 182.546376 
L 207.679827 182.01969 
L 207.861142 182.01969 
L 207.951018 180.966318 
L 208.051139 180.966318 
L 208.051139 180.439632 
L 208.19878 180.439632 
L 208.19878 179.912946 
L 209.220536 179.912946 
L 209.287759 176.226143 
L 209.363421 176.226143 
L 209.43652 171.485969 
L 209.59375 171.485969 
L 209.59375 170.959282 
L 209.811262 170.959282 
L 209.811262 170.432596 
L 209.961314 170.432596 
L 210.006274 169.379224 
L 210.170375 169.379224 
L 210.170375 168.852538 
L 214.255484 168.852538 
L 214.255484 168.325852 
L 218.251379 168.325852 
L 218.280733 166.219108 
L 218.452042 166.219108 
L 218.452042 165.692422 
L 219.097475 165.692422 
L 219.097475 165.165736 
L 220.134011 165.165736 
L 220.146118 164.112363 
L 220.461835 164.112363 
L 220.539116 161.478933 
L 220.603319 161.478933 
L 220.65273 156.738758 
L 221.325975 156.738758 
L 221.363299 154.105328 
L 221.661848 154.105328 
L 221.720094 153.051956 
L 221.786108 153.051956 
L 221.886146 148.838467 
L 221.90557 148.838467 
L 221.906311 147.785095 
L 222.331781 147.785095 
L 222.360999 145.678351 
L 222.667797 145.678351 
L 222.77192 141.464862 
L 222.91591 141.464862 
L 223.026943 139.884804 
L 223.088364 139.884804 
L 223.088364 139.358118 
L 223.339647 139.358118 
L 223.339647 138.831432 
L 223.935655 138.831432 
L 224.00958 131.984513 
L 224.409135 131.984513 
L 224.409135 131.457826 
L 225.631124 131.457826 
L 225.715698 125.137593 
L 225.750019 125.137593 
L 225.837795 123.030849 
L 225.888851 123.030849 
L 225.956665 121.450791 
L 226.408864 121.450791 
L 226.491168 116.710616 
L 226.525813 116.710616 
L 226.525813 116.18393 
L 226.667145 116.18393 
L 226.683604 113.5505 
L 230.327177 113.5505 
L 230.327177 113.023814 
L 230.545021 113.023814 
L 230.545021 112.497128 
L 231.51875 112.497128 
L 231.569098 109.863697 
L 231.974658 109.863697 
L 232.080323 108.810325 
L 232.107362 108.810325 
L 232.196252 105.123522 
L 232.219967 105.123522 
L 232.250477 102.490092 
L 232.439663 102.490092 
L 232.532983 100.383348 
L 232.674222 100.383348 
L 232.720568 98.803289 
L 232.803769 98.803289 
L 232.84293 97.223231 
L 233.071419 97.223231 
L 233.107496 96.169859 
L 233.437847 96.169859 
L 233.509938 93.536429 
L 233.596129 93.536429 
L 233.636579 91.95637 
L 233.744843 91.95637 
L 233.744843 91.429684 
L 234.043748 91.429684 
L 234.043748 90.902998 
L 234.431992 90.902998 
L 234.477093 87.216196 
L 234.553808 87.216196 
L 234.581643 86.162824 
L 234.873153 86.162824 
L 234.952076 80.369277 
L 235.00235 80.369277 
L 235.088499 77.735846 
L 238.157897 77.735846 
L 238.231602 74.57573 
L 238.653579 74.57573 
L 238.690489 73.522358 
L 238.839239 73.522358 
L 238.872183 72.468985 
L 239.01515 72.468985 
L 239.112824 69.835555 
L 239.161154 69.835555 
L 239.161154 69.308869 
L 239.506116 69.308869 
L 239.543681 66.148752 
L 239.618952 66.148752 
L 239.621815 65.09538 
L 239.746321 65.09538 
L 239.746321 64.568694 
L 240.251096 64.568694 
L 240.328462 61.935264 
L 240.553206 61.935264 
L 240.594398 59.82852 
L 242.99431 59.82852 
L 243.034605 57.721775 
L 243.34358 57.721775 
L 243.34358 57.195089 
L 243.615462 57.195089 
L 243.635454 56.141717 
L 243.728479 56.141717 
L 243.728479 55.615031 
L 244.021503 55.615031 
L 244.11942 53.508287 
L 244.135193 53.508287 
L 244.135193 52.9816 
L 244.576375 52.9816 
L 244.584011 51.401542 
L 244.834186 51.401542 
L 244.929589 49.294798 
L 246.799669 49.294798 
L 246.805121 48.241426 
L 247.067371 48.241426 
L 247.095226 46.661368 
L 247.28556 46.661368 
L 247.352468 45.081309 
L 247.596839 45.081309 
L 247.680061 43.501251 
L 248.101174 43.501251 
L 248.138347 42.447879 
L 248.261235 42.447879 
L 248.361473 41.394507 
L 249.882857 41.394507 
L 249.882857 40.867821 
L 250.042834 40.867821 
L 250.143768 39.814448 
L 250.453722 39.814448 
L 250.453722 39.287762 
L 250.570494 39.287762 
L 250.636333 38.23439 
L 251.136935 38.23439 
L 251.140118 37.181018 
L 252.509926 37.181018 
L 252.509926 36.654332 
L 252.881448 36.654332 
L 252.881448 36.127646 
L 253.100138 36.127646 
L 253.125656 35.074274 
L 254.790986 35.074274 
L 254.808103 34.020902 
L 255.324962 34.020902 
L 255.324962 33.494215 
L 255.620699 33.494215 
L 255.620699 32.967529 
L 256.990654 32.967529 
L 256.990654 32.440843 
L 258.719763 32.440843 
L 258.763787 30.860785 
L 260.384305 30.860785 
L 260.384305 30.334099 
L 338.688 30.334099 
L 338.688 30.334099 
" style="fill:none;stroke:#000080;stroke-linecap:square;stroke-width:1.5;"/>
   </g>
   <g id="line2d_31">
    <defs>
     <path d="M 0 6 
C 1.591219 6 3.117479 5.367802 4.242641 4.242641 
C 5.367802 3.117479 6 1.591219 6 0 
C 6 -1.591219 5.367802 -3.117479 4.242641 -4.242641 
C 3.117479 -5.367802 1.591219 -6 0 -6 
C -1.591219 -6 -3.117479 -5.367802 -4.242641 -4.242641 
C -5.367802 -3.117479 -6 -1.591219 -6 0 
C -6 1.591219 -5.367802 3.117479 -4.242641 4.242641 
C -3.117479 5.367802 -1.591219 6 0 6 
z
" id="mfc98db75ea" style="stroke:#000080;stroke-width:1.5;"/>
    </defs>
    <g>
     <use style="fill-opacity:0;stroke:#000080;stroke-width:1.5;" x="166.409769" xlink:href="#mfc98db75ea" y="272.08301"/>
     <use style="fill-opacity:0;stroke:#000080;stroke-width:1.5;" x="207.36304" xlink:href="#mfc98db75ea" y="185.706493"/>
     <use style="fill-opacity:0;stroke:#000080;stroke-width:1.5;" x="233.744843" xlink:href="#mfc98db75ea" y="91.95637"/>
     <use style="fill-opacity:0;stroke:#000080;stroke-width:1.5;" x="260.384305" xlink:href="#mfc98db75ea" y="30.334099"/>
     <use style="fill-opacity:0;stroke:#000080;stroke-width:1.5;" x="260.384305" xlink:href="#mfc98db75ea" y="30.334099"/>
     <use style="fill-opacity:0;stroke:#000080;stroke-width:1.5;" x="338.688" xlink:href="#mfc98db75ea" y="30.334099"/>
    </g>
   </g>
   <g id="line2d_32">
    <path style="fill:none;stroke:#000080;stroke-linecap:square;stroke-width:1.5;"/>
    <g/>
   </g>
   <g id="line2d_33">
    <path clip-path="url(#p209f1e30ff)" d="M 218.224722 168.325852 
" style="fill:none;stroke:#000080;stroke-linecap:square;stroke-width:1.5;"/>
    <defs>
     <path d="M -12 12 
L 12 -12 
M -12 -12 
L 12 12 
" id="m1e6ac5f3cb" style="stroke:#000080;"/>
    </defs>
    <g clip-path="url(#p209f1e30ff)">
     <use style="fill:#000080;stroke:#000080;" x="218.224722" xlink:href="#m1e6ac5f3cb" y="168.325852"/>
    </g>
   </g>
   <g id="line2d_34">
    <defs>
     <path d="M 0 1.5 
C 0.397805 1.5 0.77937 1.341951 1.06066 1.06066 
C 1.341951 0.77937 1.5 0.397805 1.5 0 
C 1.5 -0.397805 1.341951 -0.77937 1.06066 -1.06066 
C 0.77937 -1.341951 0.397805 -1.5 0 -1.5 
C -0.397805 -1.5 -0.77937 -1.341951 -1.06066 -1.06066 
C -1.341951 -0.77937 -1.5 -0.397805 -1.5 0 
C -1.5 0.397805 -1.341951 0.77937 -1.06066 1.06066 
C -0.77937 1.341951 -0.397805 1.5 0 1.5 
z
" id="meecc34abc7" style="stroke:#ff00ff;"/>
    </defs>
    <g>
     <use style="fill:#ff00ff;stroke:#ff00ff;" x="264.511415" xlink:href="#meecc34abc7" y="30.334099"/>
     <use style="fill:#ff00ff;stroke:#ff00ff;" x="264.511415" xlink:href="#meecc34abc7" y="30.334099"/>
    </g>
   </g>
   <g id="line2d_35">
    <path d="M -1 293.677139 
L 105.398279 293.677139 
L 105.398279 293.150453 
L 111.064034 293.150453 
L 111.064034 292.623767 
L 115.773423 292.623767 
L 115.773423 292.097081 
L 118.337133 292.097081 
L 118.403976 291.043709 
L 119.739201 291.043709 
L 119.739201 290.517023 
L 123.731719 290.517023 
L 123.731719 289.990337 
L 124.566661 289.990337 
L 124.585393 288.936964 
L 125.21059 288.936964 
L 125.21059 288.410278 
L 127.954256 288.410278 
L 127.954256 287.883592 
L 129.454301 287.883592 
L 129.454301 287.356906 
L 130.431818 287.356906 
L 130.431818 286.83022 
L 130.710746 286.83022 
L 130.710746 286.303534 
L 131.721816 286.303534 
L 131.721816 285.776848 
L 132.290639 285.776848 
L 132.290639 285.250162 
L 133.262014 285.250162 
L 133.29613 284.19679 
L 134.155109 284.19679 
L 134.155109 283.670104 
L 135.153413 283.670104 
L 135.153413 283.143418 
L 135.336291 283.143418 
L 135.336291 282.090045 
L 135.542259 282.090045 
L 135.542259 281.563359 
L 136.873488 281.563359 
L 136.873488 281.036673 
L 138.221972 281.036673 
L 138.221972 280.509987 
L 138.988612 280.509987 
L 138.988612 279.983301 
L 140.412536 279.983301 
L 140.412536 279.456615 
L 141.955115 279.456615 
L 141.955115 278.929929 
L 142.209106 278.929929 
L 142.209106 278.403243 
L 142.331344 278.403243 
L 142.331344 277.876557 
L 142.709564 277.876557 
L 142.709564 277.349871 
L 142.907104 277.349871 
L 142.907104 276.823185 
L 145.241524 276.823185 
L 145.241524 276.296499 
L 145.398314 276.296499 
L 145.398314 275.769812 
L 145.721664 275.769812 
L 145.721664 275.243126 
L 146.145489 275.243126 
L 146.145489 274.71644 
L 146.604338 274.71644 
L 146.691515 273.663068 
L 146.833235 273.663068 
L 146.833235 273.136382 
L 147.04626 273.136382 
L 147.04626 272.609696 
L 147.732326 272.609696 
L 147.732326 272.08301 
L 148.702766 272.08301 
L 148.702766 271.029638 
L 149.157025 271.029638 
L 149.157025 270.502952 
L 150.059777 270.502952 
L 150.090162 269.449579 
L 150.909814 269.449579 
L 150.909814 268.922893 
L 151.062249 268.922893 
L 151.062249 268.396207 
L 151.310688 268.396207 
L 151.310688 267.869521 
L 151.877626 267.869521 
L 151.879584 266.816149 
L 152.675285 266.816149 
L 152.675285 266.289463 
L 153.348332 266.289463 
L 153.348332 265.762777 
L 153.905997 265.762777 
L 153.998098 264.709405 
L 154.120722 264.709405 
L 154.180855 263.656033 
L 155.196893 263.656033 
L 155.196893 263.129347 
L 155.441118 263.129347 
L 155.550864 262.075974 
L 155.641006 262.075974 
L 155.678822 259.96923 
L 155.962952 259.96923 
L 155.962952 259.442544 
L 156.477143 259.442544 
L 156.477143 258.915858 
L 156.879909 258.915858 
L 156.925395 257.862486 
L 157.887482 257.862486 
L 157.995311 256.809114 
L 158.046229 256.809114 
L 158.148986 255.755741 
L 158.312149 255.755741 
L 158.371595 254.702369 
L 158.438903 254.702369 
L 158.438903 254.175683 
L 159.779306 254.175683 
L 159.779306 253.648997 
L 159.89463 253.648997 
L 159.948927 252.595625 
L 160.03251 252.595625 
L 160.041092 251.542253 
L 160.401352 251.542253 
L 160.404954 250.488881 
L 160.832969 250.488881 
L 160.832969 249.962195 
L 161.497119 249.962195 
L 161.497119 249.435508 
L 161.61398 249.435508 
L 161.61398 248.908822 
L 161.937967 248.908822 
L 161.937967 248.382136 
L 162.390453 248.382136 
L 162.390453 247.328764 
L 162.802228 247.328764 
L 162.802228 246.802078 
L 162.943927 246.802078 
L 162.98642 245.748706 
L 163.399687 245.748706 
L 163.399687 245.22202 
L 163.578708 245.22202 
L 163.578708 244.695334 
L 164.236539 244.695334 
L 164.236539 244.168648 
L 164.369004 244.168648 
L 164.369004 243.641962 
L 164.744566 243.641962 
L 164.744566 243.115275 
L 165.267299 243.115275 
L 165.267299 242.061903 
L 165.388582 242.061903 
L 165.440817 241.008531 
L 165.508131 241.008531 
L 165.592133 239.428473 
L 165.982657 239.428473 
L 165.982657 238.901787 
L 166.697457 238.901787 
L 166.697457 238.375101 
L 166.944214 238.375101 
L 166.960706 236.795043 
L 167.230593 236.795043 
L 167.230593 236.268356 
L 167.558599 236.268356 
L 167.558599 235.74167 
L 167.996659 235.74167 
L 167.996659 235.214984 
L 168.60418 235.214984 
L 168.60418 234.688298 
L 168.979647 234.688298 
L 168.979647 234.161612 
L 169.288161 234.161612 
L 169.288161 233.634926 
L 169.438249 233.634926 
L 169.513168 232.054868 
L 169.614686 232.054868 
L 169.668399 231.001496 
L 169.783046 231.001496 
L 169.842534 228.894751 
L 170.152758 228.894751 
L 170.152758 227.841379 
L 170.28336 227.841379 
L 170.294256 226.788007 
L 170.703344 226.788007 
L 170.703344 226.261321 
L 170.91486 226.261321 
L 170.91486 225.734635 
L 171.123841 225.734635 
L 171.123841 225.207949 
L 171.30274 225.207949 
L 171.304668 224.154577 
L 171.477279 224.154577 
L 171.477279 223.627891 
L 171.941165 223.627891 
L 171.958501 222.574518 
L 172.159694 222.574518 
L 172.253647 220.99446 
L 172.418364 220.99446 
L 172.418364 217.834344 
L 173.334145 217.834344 
L 173.334145 217.307658 
L 173.802471 217.307658 
L 173.802471 216.254285 
L 174.392001 216.254285 
L 174.501456 215.200913 
L 174.882368 215.200913 
L 174.882368 214.674227 
L 175.005954 214.674227 
L 175.005954 214.147541 
L 175.261796 214.147541 
L 175.261796 213.620855 
L 175.446686 213.620855 
L 175.478575 212.567483 
L 175.63966 212.567483 
L 175.63966 212.040797 
L 176.049688 212.040797 
L 176.049688 210.460738 
L 176.813358 210.460738 
L 176.813358 209.407366 
L 177.515311 209.407366 
L 177.515311 208.88068 
L 177.682796 208.88068 
L 177.682796 208.353994 
L 177.83102 208.353994 
L 177.83102 207.827308 
L 178.053201 207.827308 
L 178.053201 207.300622 
L 178.338814 207.300622 
L 178.338814 205.720564 
L 178.749009 205.720564 
L 178.749009 205.193878 
L 178.863089 205.193878 
L 178.875163 204.140506 
L 179.137891 204.140506 
L 179.137891 203.613819 
L 179.360731 203.613819 
L 179.360731 202.560447 
L 179.571563 202.560447 
L 179.63384 200.980389 
L 180.075713 200.980389 
L 180.075713 199.927017 
L 181.591899 199.927017 
L 181.591899 198.346959 
L 181.940999 198.346959 
L 181.940999 197.820273 
L 182.129549 197.820273 
L 182.129549 197.293586 
L 182.268179 197.293586 
L 182.268179 195.713528 
L 182.908644 195.713528 
L 182.908644 195.186842 
L 183.745632 195.186842 
L 183.745632 194.660156 
L 184.51509 194.660156 
L 184.51509 194.13347 
L 184.989318 194.13347 
L 184.989318 193.606784 
L 187.238315 193.606784 
L 187.238315 193.080098 
L 190.9244 193.080098 
L 190.9244 192.553412 
L 191.233258 192.553412 
L 191.233258 192.026726 
L 191.357199 192.026726 
L 191.456004 190.973354 
L 194.102149 190.973354 
L 194.179332 189.919981 
L 194.224788 189.919981 
L 194.224788 189.393295 
L 195.988599 189.393295 
L 195.988599 188.866609 
L 196.290037 188.866609 
L 196.385456 184.653121 
L 196.501728 184.653121 
L 196.501728 184.126434 
L 196.622646 184.126434 
L 196.622646 183.073062 
L 197.092982 183.073062 
L 197.145034 182.01969 
L 197.455277 182.01969 
L 197.455277 181.493004 
L 218.461118 181.493004 
L 218.461118 180.966318 
L 218.720259 180.966318 
L 218.822409 179.38626 
L 218.843962 179.38626 
L 218.843962 178.859574 
L 218.999264 178.859574 
L 219.072829 176.226143 
L 219.111235 176.226143 
L 219.207048 174.119399 
L 219.303608 174.119399 
L 219.409047 170.432596 
L 219.419959 170.432596 
L 219.439688 167.27248 
L 219.536589 167.27248 
L 219.626842 163.585677 
L 219.661359 163.585677 
L 219.76187 157.265444 
L 219.77364 157.265444 
L 219.882706 154.105328 
L 219.908847 154.105328 
L 220.005623 148.838467 
L 220.026235 148.838467 
L 220.032367 147.258409 
L 220.210148 147.258409 
L 220.310571 143.571606 
L 220.483753 143.571606 
L 220.57919 142.518234 
L 221.020381 142.518234 
L 221.020381 141.991548 
L 221.532047 141.991548 
L 221.607645 139.358118 
L 222.519486 139.358118 
L 222.606942 133.037885 
L 222.63286 133.037885 
L 222.63286 132.511199 
L 222.766747 132.511199 
L 222.850535 129.877768 
L 230.513334 129.877768 
L 230.513334 129.351082 
L 230.683448 129.351082 
L 230.764573 126.190966 
L 230.845556 126.190966 
L 230.955788 119.870733 
L 230.979551 119.870733 
L 231.080663 116.18393 
L 231.096798 116.18393 
L 231.19939 111.970441 
L 231.21316 111.970441 
L 231.29071 108.810325 
L 231.332265 108.810325 
L 231.385408 105.123522 
L 231.455034 105.123522 
L 231.455034 104.596836 
L 231.602225 104.596836 
L 231.602225 104.07015 
L 231.726049 104.07015 
L 231.765137 102.490092 
L 232.043317 102.490092 
L 232.072778 101.43672 
L 232.383779 101.43672 
L 232.383779 100.910034 
L 232.590668 100.910034 
L 232.669653 95.643173 
L 232.736641 95.643173 
L 232.736641 94.589801 
L 237.621359 94.589801 
L 237.728673 91.95637 
L 237.739796 91.95637 
L 237.848282 87.216196 
L 237.852993 87.216196 
L 237.961454 84.056079 
L 237.988211 84.056079 
L 238.078183 80.895963 
L 238.099575 80.895963 
L 238.131719 78.789218 
L 238.780996 78.789218 
L 238.790489 77.20916 
L 238.968204 77.20916 
L 239.063937 75.102416 
L 242.667698 75.102416 
L 242.735852 71.415613 
L 242.828036 71.415613 
L 242.923395 66.675439 
L 242.943858 66.675439 
L 243.034415 65.622066 
L 243.307801 65.622066 
L 243.307801 65.09538 
L 243.596241 65.09538 
L 243.653365 61.408578 
L 246.524266 61.408578 
L 246.571209 58.248461 
L 246.639926 58.248461 
L 246.705427 55.088345 
L 247.257752 55.088345 
L 247.30083 52.9816 
L 249.666825 52.9816 
L 249.737183 47.71474 
L 249.779027 47.71474 
L 249.819938 46.134681 
L 252.416058 46.134681 
L 252.416058 45.081309 
L 252.670169 45.081309 
L 252.68287 44.027937 
L 252.855127 44.027937 
L 252.864495 42.447879 
L 254.641229 42.447879 
L 254.688427 41.394507 
L 254.760922 41.394507 
L 254.760922 40.867821 
L 255.026421 40.867821 
L 255.106308 39.287762 
L 256.621195 39.287762 
L 256.714653 37.181018 
L 256.94725 37.181018 
L 256.94725 36.654332 
L 257.07305 36.654332 
L 257.083895 35.074274 
L 258.538738 35.074274 
L 258.597692 32.967529 
L 260.170912 32.967529 
L 260.232315 31.914157 
L 261.647196 31.914157 
L 261.649563 30.860785 
L 264.511415 30.860785 
L 264.511415 30.334099 
L 338.688 30.334099 
L 338.688 30.334099 
" style="fill:none;stroke:#ff00ff;stroke-linecap:square;stroke-width:1.5;"/>
   </g>
   <g id="line2d_36">
    <defs>
     <path d="M 0 8.485281 
L 5.091169 0 
L 0 -8.485281 
L -5.091169 0 
z
" id="mb9750330a7" style="stroke:#ff00ff;stroke-linejoin:miter;stroke-width:1.5;"/>
    </defs>
    <g>
     <use style="fill-opacity:0;stroke:#ff00ff;stroke-linejoin:miter;stroke-width:1.5;" x="105.398279" xlink:href="#mb9750330a7" y="293.150453"/>
     <use style="fill-opacity:0;stroke:#ff00ff;stroke-linejoin:miter;stroke-width:1.5;" x="184.989318" xlink:href="#mb9750330a7" y="193.606784"/>
     <use style="fill-opacity:0;stroke:#ff00ff;stroke-linejoin:miter;stroke-width:1.5;" x="242.69111" xlink:href="#mb9750330a7" y="74.049044"/>
     <use style="fill-opacity:0;stroke:#ff00ff;stroke-linejoin:miter;stroke-width:1.5;" x="264.511415" xlink:href="#mb9750330a7" y="30.334099"/>
     <use style="fill-opacity:0;stroke:#ff00ff;stroke-linejoin:miter;stroke-width:1.5;" x="264.511415" xlink:href="#mb9750330a7" y="30.334099"/>
     <use style="fill-opacity:0;stroke:#ff00ff;stroke-linejoin:miter;stroke-width:1.5;" x="338.688" xlink:href="#mb9750330a7" y="30.334099"/>
    </g>
   </g>
   <g id="line2d_37">
    <path style="fill:none;stroke:#ff00ff;stroke-linecap:square;stroke-width:1.5;"/>
    <g/>
   </g>
   <g id="line2d_38">
    <path clip-path="url(#p209f1e30ff)" d="M 218.221758 181.493004 
" style="fill:none;stroke:#ff00ff;stroke-linecap:square;stroke-width:1.5;"/>
    <defs>
     <path d="M -12 12 
L 12 -12 
M -12 -12 
L 12 12 
" id="m5c06f185d9" style="stroke:#ff00ff;"/>
    </defs>
    <g clip-path="url(#p209f1e30ff)">
     <use style="fill:#ff00ff;stroke:#ff00ff;" x="218.221758" xlink:href="#m5c06f185d9" y="181.493004"/>
    </g>
   </g>
   <g id="line2d_39">
    <defs>
     <path d="M 0 1.5 
C 0.397805 1.5 0.77937 1.341951 1.06066 1.06066 
C 1.341951 0.77937 1.5 0.397805 1.5 0 
C 1.5 -0.397805 1.341951 -0.77937 1.06066 -1.06066 
C 0.77937 -1.341951 0.397805 -1.5 0 -1.5 
C -0.397805 -1.5 -0.77937 -1.341951 -1.06066 -1.06066 
C -1.341951 -0.77937 -1.5 -0.397805 -1.5 0 
C -1.5 0.397805 -1.341951 0.77937 -1.06066 1.06066 
C -0.77937 1.341951 -0.397805 1.5 0 1.5 
z
" id="m0bc351c852" style="stroke:#ff7500;"/>
    </defs>
    <g>
     <use style="fill:#ff7500;stroke:#ff7500;" x="235.3004" xlink:href="#m0bc351c852" y="288.410278"/>
     <use style="fill:#ff7500;stroke:#ff7500;" x="235.3004" xlink:href="#m0bc351c852" y="288.410278"/>
    </g>
   </g>
   <g id="line2d_40">
    <path d="M -1 293.677139 
L 122.11572 293.677139 
L 122.11572 293.150453 
L 165.068168 293.150453 
L 165.068168 292.623767 
L 175.569871 292.623767 
L 175.569871 292.097081 
L 178.34096 292.097081 
L 178.34096 291.570395 
L 204.518694 291.570395 
L 204.518694 291.043709 
L 211.045371 291.043709 
L 211.045371 290.517023 
L 218.29207 290.517023 
L 218.29207 289.990337 
L 224.770834 289.990337 
L 224.770834 289.463651 
L 230.344916 289.463651 
L 230.344916 288.936964 
L 235.3004 288.936964 
L 235.3004 288.410278 
L 338.688 288.410278 
" style="fill:none;stroke:#ff7500;stroke-linecap:square;stroke-width:1.5;"/>
   </g>
   <g id="line2d_41">
    <defs>
     <path d="M 0 -6 
L -1.347084 -1.854102 
L -5.706339 -1.854102 
L -2.179628 0.708204 
L -3.526712 4.854102 
L -0 2.291796 
L 3.526712 4.854102 
L 2.179628 0.708204 
L 5.706339 -1.854102 
L 1.347084 -1.854102 
z
" id="m2998727316" style="stroke:#ff7500;stroke-linejoin:bevel;stroke-width:1.5;"/>
    </defs>
    <g>
     <use style="fill-opacity:0;stroke:#ff7500;stroke-linejoin:bevel;stroke-width:1.5;" x="122.11572" xlink:href="#m2998727316" y="293.677139"/>
     <use style="fill-opacity:0;stroke:#ff7500;stroke-linejoin:bevel;stroke-width:1.5;" x="178.34096" xlink:href="#m2998727316" y="291.570395"/>
     <use style="fill-opacity:0;stroke:#ff7500;stroke-linejoin:bevel;stroke-width:1.5;" x="235.3004" xlink:href="#m2998727316" y="288.410278"/>
     <use style="fill-opacity:0;stroke:#ff7500;stroke-linejoin:bevel;stroke-width:1.5;" x="235.3004" xlink:href="#m2998727316" y="288.410278"/>
     <use style="fill-opacity:0;stroke:#ff7500;stroke-linejoin:bevel;stroke-width:1.5;" x="338.688" xlink:href="#m2998727316" y="288.410278"/>
    </g>
   </g>
   <g id="line2d_42">
    <path style="fill:none;stroke:#ff7500;stroke-linecap:square;stroke-width:1.5;"/>
    <g/>
   </g>
   <g id="line2d_43">
    <path clip-path="url(#p209f1e30ff)" d="M 218.221714 290.517023 
" style="fill:none;stroke:#ff7500;stroke-linecap:square;stroke-width:1.5;"/>
    <defs>
     <path d="M -12 12 
L 12 -12 
M -12 -12 
L 12 12 
" id="m4a103d1e25" style="stroke:#ff7500;"/>
    </defs>
    <g clip-path="url(#p209f1e30ff)">
     <use style="fill:#ff7500;stroke:#ff7500;" x="218.221714" xlink:href="#m4a103d1e25" y="290.517023"/>
    </g>
   </g>
   <g id="line2d_44">
    <defs>
     <path d="M 0 1.5 
C 0.397805 1.5 0.77937 1.341951 1.06066 1.06066 
C 1.341951 0.77937 1.5 0.397805 1.5 0 
C 1.5 -0.397805 1.341951 -0.77937 1.06066 -1.06066 
C 0.77937 -1.341951 0.397805 -1.5 0 -1.5 
C -0.397805 -1.5 -0.77937 -1.341951 -1.06066 -1.06066 
C -1.341951 -0.77937 -1.5 -0.397805 -1.5 0 
C -1.5 0.397805 -1.341951 0.77937 -1.06066 1.06066 
C -0.77937 1.341951 -0.397805 1.5 0 1.5 
z
" id="md9f5297f84" style="stroke:#6495ed;"/>
    </defs>
    <g>
     <use style="fill:#6495ed;stroke:#6495ed;" x="192.459188" xlink:href="#md9f5297f84" y="272.609696"/>
     <use style="fill:#6495ed;stroke:#6495ed;" x="192.459188" xlink:href="#md9f5297f84" y="272.609696"/>
    </g>
   </g>
   <g id="line2d_45">
    <path d="M -1 293.677139 
L 95.226283 293.677139 
L 95.226283 293.150453 
L 98.935347 293.150453 
L 98.935347 292.623767 
L 104.205136 292.623767 
L 104.205136 292.097081 
L 112.39413 292.097081 
L 112.39413 291.570395 
L 114.351658 291.570395 
L 114.351658 291.043709 
L 118.283474 291.043709 
L 118.283474 290.517023 
L 120.045484 290.517023 
L 120.045484 289.990337 
L 121.964074 289.990337 
L 121.964074 289.463651 
L 127.381654 289.463651 
L 127.381654 288.936964 
L 128.545989 288.936964 
L 128.545989 288.410278 
L 129.770048 288.410278 
L 129.770048 287.883592 
L 132.899701 287.883592 
L 132.899701 287.356906 
L 134.577155 287.356906 
L 134.577155 286.83022 
L 134.687647 286.83022 
L 134.687647 286.303534 
L 135.995765 286.303534 
L 135.995765 285.776848 
L 144.303243 285.776848 
L 144.303243 285.250162 
L 146.399215 285.250162 
L 146.399215 284.723476 
L 148.411533 284.723476 
L 148.411533 283.143418 
L 153.314117 283.143418 
L 153.314117 282.616732 
L 156.060236 282.616732 
L 156.060236 282.090045 
L 156.605969 282.090045 
L 156.605969 281.563359 
L 159.348529 281.563359 
L 159.348529 281.036673 
L 161.311231 281.036673 
L 161.311231 280.509987 
L 161.453093 280.509987 
L 161.453093 279.983301 
L 163.823132 279.983301 
L 163.823132 279.456615 
L 163.917596 279.456615 
L 163.917596 278.403243 
L 165.360599 278.403243 
L 165.360599 277.876557 
L 168.525243 277.876557 
L 168.525243 277.349871 
L 168.927448 277.349871 
L 168.927448 276.823185 
L 176.075609 276.823185 
L 176.075609 276.296499 
L 179.450364 276.296499 
L 179.450364 275.769812 
L 180.932405 275.769812 
L 180.932405 274.71644 
L 182.406736 274.71644 
L 182.406736 274.189754 
L 185.045508 274.189754 
L 185.045508 273.663068 
L 188.147463 273.663068 
L 188.147463 273.136382 
L 192.459188 273.136382 
L 192.459188 272.609696 
L 338.688 272.609696 
" style="fill:none;stroke:#6495ed;stroke-linecap:square;stroke-width:1.5;"/>
   </g>
   <g id="line2d_46">
    <defs>
     <path d="M -0 6 
L 6 -6 
L -6 -6 
z
" id="m3a5c5730c3" style="stroke:#6495ed;stroke-linejoin:miter;stroke-width:1.5;"/>
    </defs>
    <g>
     <use style="fill-opacity:0;stroke:#6495ed;stroke-linejoin:miter;stroke-width:1.5;" x="188.147463" xlink:href="#m3a5c5730c3" y="273.663068"/>
     <use style="fill-opacity:0;stroke:#6495ed;stroke-linejoin:miter;stroke-width:1.5;" x="192.459188" xlink:href="#m3a5c5730c3" y="272.609696"/>
     <use style="fill-opacity:0;stroke:#6495ed;stroke-linejoin:miter;stroke-width:1.5;" x="192.459188" xlink:href="#m3a5c5730c3" y="272.609696"/>
     <use style="fill-opacity:0;stroke:#6495ed;stroke-linejoin:miter;stroke-width:1.5;" x="192.459188" xlink:href="#m3a5c5730c3" y="272.609696"/>
     <use style="fill-opacity:0;stroke:#6495ed;stroke-linejoin:miter;stroke-width:1.5;" x="338.688" xlink:href="#m3a5c5730c3" y="272.609696"/>
    </g>
   </g>
   <g id="line2d_47">
    <path style="fill:none;stroke:#6495ed;stroke-linecap:square;stroke-width:1.5;"/>
    <g/>
   </g>
   <g id="line2d_48">
    <path clip-path="url(#p209f1e30ff)" d="M 137.910857 285.776848 
" style="fill:none;stroke:#6495ed;stroke-linecap:square;stroke-width:1.5;"/>
    <defs>
     <path d="M -12 12 
L 12 -12 
M -12 -12 
L 12 12 
" id="m843bf6db59" style="stroke:#6495ed;"/>
    </defs>
    <g clip-path="url(#p209f1e30ff)">
     <use style="fill:#6495ed;stroke:#6495ed;" x="137.910857" xlink:href="#m843bf6db59" y="285.776848"/>
    </g>
   </g>
   <g id="line2d_49">
    <path d="M 338.688 288.410278 
L 369.60768 293.571802 
" style="fill:none;stroke:#ff7500;stroke-linecap:square;stroke-width:1.5;"/>
    <g>
     <use style="fill-opacity:0;stroke:#ff7500;stroke-linejoin:bevel;stroke-width:1.5;" x="338.688" xlink:href="#m2998727316" y="288.410278"/>
     <use style="fill-opacity:0;stroke:#ff7500;stroke-linejoin:bevel;stroke-width:1.5;" x="369.60768" xlink:href="#m2998727316" y="293.571802"/>
    </g>
   </g>
   <g id="line2d_50">
    <path d="M 338.688 272.609696 
L 369.60768 207.616634 
" style="fill:none;stroke:#6495ed;stroke-linecap:square;stroke-width:1.5;"/>
    <g>
     <use style="fill-opacity:0;stroke:#6495ed;stroke-linejoin:miter;stroke-width:1.5;" x="338.688" xlink:href="#m3a5c5730c3" y="272.609696"/>
     <use style="fill-opacity:0;stroke:#6495ed;stroke-linejoin:miter;stroke-width:1.5;" x="369.60768" xlink:href="#m3a5c5730c3" y="207.616634"/>
    </g>
   </g>
   <g id="line2d_51">
    <path d="M 338.688 30.334099 
L 369.60768 121.661465 
" style="fill:none;stroke:#ff00ff;stroke-linecap:square;stroke-width:1.5;"/>
    <g>
     <use style="fill-opacity:0;stroke:#ff00ff;stroke-linejoin:miter;stroke-width:1.5;" x="338.688" xlink:href="#mb9750330a7" y="30.334099"/>
     <use style="fill-opacity:0;stroke:#ff00ff;stroke-linejoin:miter;stroke-width:1.5;" x="369.60768" xlink:href="#mb9750330a7" y="121.661465"/>
    </g>
   </g>
   <g id="line2d_52">
    <path d="M 338.688 30.334099 
L 369.60768 35.706297 
" style="fill:none;stroke:#000080;stroke-linecap:square;stroke-width:1.5;"/>
    <g>
     <use style="fill-opacity:0;stroke:#000080;stroke-width:1.5;" x="338.688" xlink:href="#mfc98db75ea" y="30.334099"/>
     <use style="fill-opacity:0;stroke:#000080;stroke-width:1.5;" x="369.60768" xlink:href="#mfc98db75ea" y="35.706297"/>
    </g>
   </g>
   <g id="line2d_53">
    <path d="M 338.688 298.944 
L 338.688 30.334099 
" style="fill:none;stroke:#000000;stroke-linecap:square;stroke-width:1.5;"/>
   </g>
   <g id="patch_3">
    <path d="M 57.6 298.944 
L 57.6 27.648 
" style="fill:none;stroke:#000000;stroke-linecap:square;stroke-linejoin:miter;stroke-width:0.8;"/>
   </g>
   <g id="patch_4">
    <path d="M 338.688 298.944 
L 338.688 27.648 
" style="fill:none;stroke:#000000;stroke-linecap:square;stroke-linejoin:miter;stroke-width:0.8;"/>
   </g>
   <g id="patch_5">
    <path d="M 57.6 298.944 
L 338.688 298.944 
" style="fill:none;stroke:#000000;stroke-linecap:square;stroke-linejoin:miter;stroke-width:0.8;"/>
   </g>
   <g id="patch_6">
    <path d="M 57.6 27.648 
L 338.688 27.648 
" style="fill:none;stroke:#000000;stroke-linecap:square;stroke-linejoin:miter;stroke-width:0.8;"/>
   </g>
   <g id="text_13">
    <!-- RANDOMSEA -->
    <g transform="translate(375.22944 298.262739)scale(0.17 -0.17)">
     <defs>
      <path d="M 2841 2188 
Q 3044 2119 3236 1894 
Q 3428 1669 3622 1275 
L 4263 0 
L 3584 0 
L 2988 1197 
Q 2756 1666 2539 1819 
Q 2322 1972 1947 1972 
L 1259 1972 
L 1259 0 
L 628 0 
L 628 4666 
L 2053 4666 
Q 2853 4666 3247 4331 
Q 3641 3997 3641 3322 
Q 3641 2881 3436 2590 
Q 3231 2300 2841 2188 
z
M 1259 4147 
L 1259 2491 
L 2053 2491 
Q 2509 2491 2742 2702 
Q 2975 2913 2975 3322 
Q 2975 3731 2742 3939 
Q 2509 4147 2053 4147 
L 1259 4147 
z
" id="DejaVuSans-52" transform="scale(0.015625)"/>
      <path d="M 2188 4044 
L 1331 1722 
L 3047 1722 
L 2188 4044 
z
M 1831 4666 
L 2547 4666 
L 4325 0 
L 3669 0 
L 3244 1197 
L 1141 1197 
L 716 0 
L 50 0 
L 1831 4666 
z
" id="DejaVuSans-41" transform="scale(0.015625)"/>
      <path d="M 628 4666 
L 1478 4666 
L 3547 763 
L 3547 4666 
L 4159 4666 
L 4159 0 
L 3309 0 
L 1241 3903 
L 1241 0 
L 628 0 
L 628 4666 
z
" id="DejaVuSans-4e" transform="scale(0.015625)"/>
      <path d="M 1259 4147 
L 1259 519 
L 2022 519 
Q 2988 519 3436 956 
Q 3884 1394 3884 2338 
Q 3884 3275 3436 3711 
Q 2988 4147 2022 4147 
L 1259 4147 
z
M 628 4666 
L 1925 4666 
Q 3281 4666 3915 4102 
Q 4550 3538 4550 2338 
Q 4550 1131 3912 565 
Q 3275 0 1925 0 
L 628 0 
L 628 4666 
z
" id="DejaVuSans-44" transform="scale(0.015625)"/>
      <path d="M 2522 4238 
Q 1834 4238 1429 3725 
Q 1025 3213 1025 2328 
Q 1025 1447 1429 934 
Q 1834 422 2522 422 
Q 3209 422 3611 934 
Q 4013 1447 4013 2328 
Q 4013 3213 3611 3725 
Q 3209 4238 2522 4238 
z
M 2522 4750 
Q 3503 4750 4090 4092 
Q 4678 3434 4678 2328 
Q 4678 1225 4090 567 
Q 3503 -91 2522 -91 
Q 1538 -91 948 565 
Q 359 1222 359 2328 
Q 359 3434 948 4092 
Q 1538 4750 2522 4750 
z
" id="DejaVuSans-4f" transform="scale(0.015625)"/>
      <path d="M 628 4666 
L 1569 4666 
L 2759 1491 
L 3956 4666 
L 4897 4666 
L 4897 0 
L 4281 0 
L 4281 4097 
L 3078 897 
L 2444 897 
L 1241 4097 
L 1241 0 
L 628 0 
L 628 4666 
z
" id="DejaVuSans-4d" transform="scale(0.015625)"/>
      <path d="M 3425 4513 
L 3425 3897 
Q 3066 4069 2747 4153 
Q 2428 4238 2131 4238 
Q 1616 4238 1336 4038 
Q 1056 3838 1056 3469 
Q 1056 3159 1242 3001 
Q 1428 2844 1947 2747 
L 2328 2669 
Q 3034 2534 3370 2195 
Q 3706 1856 3706 1288 
Q 3706 609 3251 259 
Q 2797 -91 1919 -91 
Q 1588 -91 1214 -16 
Q 841 59 441 206 
L 441 856 
Q 825 641 1194 531 
Q 1563 422 1919 422 
Q 2459 422 2753 634 
Q 3047 847 3047 1241 
Q 3047 1584 2836 1778 
Q 2625 1972 2144 2069 
L 1759 2144 
Q 1053 2284 737 2584 
Q 422 2884 422 3419 
Q 422 4038 858 4394 
Q 1294 4750 2059 4750 
Q 2388 4750 2728 4690 
Q 3069 4631 3425 4513 
z
" id="DejaVuSans-53" transform="scale(0.015625)"/>
      <path d="M 628 4666 
L 3578 4666 
L 3578 4134 
L 1259 4134 
L 1259 2753 
L 3481 2753 
L 3481 2222 
L 1259 2222 
L 1259 531 
L 3634 531 
L 3634 0 
L 628 0 
L 628 4666 
z
" id="DejaVuSans-45" transform="scale(0.015625)"/>
     </defs>
     <use xlink:href="#DejaVuSans-52"/>
     <use x="65.482422" xlink:href="#DejaVuSans-41"/>
     <use x="133.890625" xlink:href="#DejaVuSans-4e"/>
     <use x="208.695312" xlink:href="#DejaVuSans-44"/>
     <use x="285.697266" xlink:href="#DejaVuSans-4f"/>
     <use x="364.408203" xlink:href="#DejaVuSans-4d"/>
     <use x="450.6875" xlink:href="#DejaVuSans-53"/>
     <use x="514.164062" xlink:href="#DejaVuSans-45"/>
     <use x="577.347656" xlink:href="#DejaVuSans-41"/>
    </g>
   </g>
   <g id="text_14">
    <!-- TPE-hyper -->
    <g transform="translate(375.22944 212.307571)scale(0.17 -0.17)">
     <defs>
      <path d="M -19 4666 
L 3928 4666 
L 3928 4134 
L 2272 4134 
L 2272 0 
L 1638 0 
L 1638 4134 
L -19 4134 
L -19 4666 
z
" id="DejaVuSans-54" transform="scale(0.015625)"/>
      <path d="M 1259 4147 
L 1259 2394 
L 2053 2394 
Q 2494 2394 2734 2622 
Q 2975 2850 2975 3272 
Q 2975 3691 2734 3919 
Q 2494 4147 2053 4147 
L 1259 4147 
z
M 628 4666 
L 2053 4666 
Q 2838 4666 3239 4311 
Q 3641 3956 3641 3272 
Q 3641 2581 3239 2228 
Q 2838 1875 2053 1875 
L 1259 1875 
L 1259 0 
L 628 0 
L 628 4666 
z
" id="DejaVuSans-50" transform="scale(0.015625)"/>
      <path d="M 3513 2113 
L 3513 0 
L 2938 0 
L 2938 2094 
Q 2938 2591 2744 2837 
Q 2550 3084 2163 3084 
Q 1697 3084 1428 2787 
Q 1159 2491 1159 1978 
L 1159 0 
L 581 0 
L 581 4863 
L 1159 4863 
L 1159 2956 
Q 1366 3272 1645 3428 
Q 1925 3584 2291 3584 
Q 2894 3584 3203 3211 
Q 3513 2838 3513 2113 
z
" id="DejaVuSans-68" transform="scale(0.015625)"/>
      <path d="M 2059 -325 
Q 1816 -950 1584 -1140 
Q 1353 -1331 966 -1331 
L 506 -1331 
L 506 -850 
L 844 -850 
Q 1081 -850 1212 -737 
Q 1344 -625 1503 -206 
L 1606 56 
L 191 3500 
L 800 3500 
L 1894 763 
L 2988 3500 
L 3597 3500 
L 2059 -325 
z
" id="DejaVuSans-79" transform="scale(0.015625)"/>
     </defs>
     <use xlink:href="#DejaVuSans-54"/>
     <use x="61.083984" xlink:href="#DejaVuSans-50"/>
     <use x="121.386719" xlink:href="#DejaVuSans-45"/>
     <use x="184.570312" xlink:href="#DejaVuSans-2d"/>
     <use x="220.654297" xlink:href="#DejaVuSans-68"/>
     <use x="284.033203" xlink:href="#DejaVuSans-79"/>
     <use x="343.212891" xlink:href="#DejaVuSans-70"/>
     <use x="406.689453" xlink:href="#DejaVuSans-65"/>
     <use x="468.212891" xlink:href="#DejaVuSans-72"/>
    </g>
   </g>
   <g id="text_15">
    <!-- DE-scipy -->
    <g transform="translate(375.22944 126.352403)scale(0.17 -0.17)">
     <use xlink:href="#DejaVuSans-44"/>
     <use x="77.001953" xlink:href="#DejaVuSans-45"/>
     <use x="140.185547" xlink:href="#DejaVuSans-2d"/>
     <use x="176.269531" xlink:href="#DejaVuSans-73"/>
     <use x="228.369141" xlink:href="#DejaVuSans-63"/>
     <use x="283.349609" xlink:href="#DejaVuSans-69"/>
     <use x="311.132812" xlink:href="#DejaVuSans-70"/>
     <use x="374.609375" xlink:href="#DejaVuSans-79"/>
    </g>
   </g>
   <g id="text_16">
    <!-- CMA-ES-py -->
    <g transform="translate(375.22944 40.397235)scale(0.17 -0.17)">
     <defs>
      <path d="M 4122 4306 
L 4122 3641 
Q 3803 3938 3442 4084 
Q 3081 4231 2675 4231 
Q 1875 4231 1450 3742 
Q 1025 3253 1025 2328 
Q 1025 1406 1450 917 
Q 1875 428 2675 428 
Q 3081 428 3442 575 
Q 3803 722 4122 1019 
L 4122 359 
Q 3791 134 3420 21 
Q 3050 -91 2638 -91 
Q 1578 -91 968 557 
Q 359 1206 359 2328 
Q 359 3453 968 4101 
Q 1578 4750 2638 4750 
Q 3056 4750 3426 4639 
Q 3797 4528 4122 4306 
z
" id="DejaVuSans-43" transform="scale(0.015625)"/>
     </defs>
     <use xlink:href="#DejaVuSans-43"/>
     <use x="69.824219" xlink:href="#DejaVuSans-4d"/>
     <use x="156.103516" xlink:href="#DejaVuSans-41"/>
     <use x="222.261719" xlink:href="#DejaVuSans-2d"/>
     <use x="258.345703" xlink:href="#DejaVuSans-45"/>
     <use x="321.529297" xlink:href="#DejaVuSans-53"/>
     <use x="385.005859" xlink:href="#DejaVuSans-2d"/>
     <use x="421.089844" xlink:href="#DejaVuSans-70"/>
     <use x="484.566406" xlink:href="#DejaVuSans-79"/>
    </g>
   </g>
   <g id="text_17">
    <!-- bbob-mixint f21, 40-D -->
    <g transform="translate(60.41088 38.111366)scale(0.102 -0.102)">
     <defs>
      <path d="M 3116 1747 
Q 3116 2381 2855 2742 
Q 2594 3103 2138 3103 
Q 1681 3103 1420 2742 
Q 1159 2381 1159 1747 
Q 1159 1113 1420 752 
Q 1681 391 2138 391 
Q 2594 391 2855 752 
Q 3116 1113 3116 1747 
z
M 1159 2969 
Q 1341 3281 1617 3432 
Q 1894 3584 2278 3584 
Q 2916 3584 3314 3078 
Q 3713 2572 3713 1747 
Q 3713 922 3314 415 
Q 2916 -91 2278 -91 
Q 1894 -91 1617 61 
Q 1341 213 1159 525 
L 1159 0 
L 581 0 
L 581 4863 
L 1159 4863 
L 1159 2969 
z
" id="DejaVuSans-62" transform="scale(0.015625)"/>
      <path d="M 3513 3500 
L 2247 1797 
L 3578 0 
L 2900 0 
L 1881 1375 
L 863 0 
L 184 0 
L 1544 1831 
L 300 3500 
L 978 3500 
L 1906 2253 
L 2834 3500 
L 3513 3500 
z
" id="DejaVuSans-78" transform="scale(0.015625)"/>
     </defs>
     <use xlink:href="#DejaVuSans-62"/>
     <use x="63.476562" xlink:href="#DejaVuSans-62"/>
     <use x="126.953125" xlink:href="#DejaVuSans-6f"/>
     <use x="188.134766" xlink:href="#DejaVuSans-62"/>
     <use x="251.611328" xlink:href="#DejaVuSans-2d"/>
     <use x="287.695312" xlink:href="#DejaVuSans-6d"/>
     <use x="385.107422" xlink:href="#DejaVuSans-69"/>
     <use x="412.890625" xlink:href="#DejaVuSans-78"/>
     <use x="472.070312" xlink:href="#DejaVuSans-69"/>
     <use x="499.853516" xlink:href="#DejaVuSans-6e"/>
     <use x="563.232422" xlink:href="#DejaVuSans-74"/>
     <use x="602.441406" xlink:href="#DejaVuSans-20"/>
     <use x="634.228516" xlink:href="#DejaVuSans-66"/>
     <use x="669.433594" xlink:href="#DejaVuSans-32"/>
     <use x="733.056641" xlink:href="#DejaVuSans-31"/>
     <use x="796.679688" xlink:href="#DejaVuSans-2c"/>
     <use x="828.466797" xlink:href="#DejaVuSans-20"/>
     <use x="860.253906" xlink:href="#DejaVuSans-34"/>
     <use x="923.876953" xlink:href="#DejaVuSans-30"/>
     <use x="987.5" xlink:href="#DejaVuSans-2d"/>
     <use x="1023.583984" xlink:href="#DejaVuSans-44"/>
    </g>
    <!-- 51 targets: 100..1e-08 -->
    <g transform="translate(60.41088 49.533135)scale(0.102 -0.102)">
     <defs>
      <path d="M 691 4666 
L 3169 4666 
L 3169 4134 
L 1269 4134 
L 1269 2991 
Q 1406 3038 1543 3061 
Q 1681 3084 1819 3084 
Q 2600 3084 3056 2656 
Q 3513 2228 3513 1497 
Q 3513 744 3044 326 
Q 2575 -91 1722 -91 
Q 1428 -91 1123 -41 
Q 819 9 494 109 
L 494 744 
Q 775 591 1075 516 
Q 1375 441 1709 441 
Q 2250 441 2565 725 
Q 2881 1009 2881 1497 
Q 2881 1984 2565 2268 
Q 2250 2553 1709 2553 
Q 1456 2553 1204 2497 
Q 953 2441 691 2322 
L 691 4666 
z
" id="DejaVuSans-35" transform="scale(0.015625)"/>
      <path d="M 750 794 
L 1409 794 
L 1409 0 
L 750 0 
L 750 794 
z
M 750 3309 
L 1409 3309 
L 1409 2516 
L 750 2516 
L 750 3309 
z
" id="DejaVuSans-3a" transform="scale(0.015625)"/>
     </defs>
     <use xlink:href="#DejaVuSans-35"/>
     <use x="63.623047" xlink:href="#DejaVuSans-31"/>
     <use x="127.246094" xlink:href="#DejaVuSans-20"/>
     <use x="159.033203" xlink:href="#DejaVuSans-74"/>
     <use x="198.242188" xlink:href="#DejaVuSans-61"/>
     <use x="259.521484" xlink:href="#DejaVuSans-72"/>
     <use x="298.884766" xlink:href="#DejaVuSans-67"/>
     <use x="362.361328" xlink:href="#DejaVuSans-65"/>
     <use x="423.884766" xlink:href="#DejaVuSans-74"/>
     <use x="463.09375" xlink:href="#DejaVuSans-73"/>
     <use x="515.193359" xlink:href="#DejaVuSans-3a"/>
     <use x="548.884766" xlink:href="#DejaVuSans-20"/>
     <use x="580.671875" xlink:href="#DejaVuSans-31"/>
     <use x="644.294922" xlink:href="#DejaVuSans-30"/>
     <use x="707.917969" xlink:href="#DejaVuSans-30"/>
     <use x="771.541016" xlink:href="#DejaVuSans-2e"/>
     <use x="803.328125" xlink:href="#DejaVuSans-2e"/>
     <use x="835.115234" xlink:href="#DejaVuSans-31"/>
     <use x="898.738281" xlink:href="#DejaVuSans-65"/>
     <use x="960.261719" xlink:href="#DejaVuSans-2d"/>
     <use x="996.345703" xlink:href="#DejaVuSans-30"/>
     <use x="1059.96875" xlink:href="#DejaVuSans-38"/>
    </g>
    <!-- 15 instances -->
    <g transform="translate(60.41088 60.954904)scale(0.102 -0.102)">
     <use xlink:href="#DejaVuSans-31"/>
     <use x="63.623047" xlink:href="#DejaVuSans-35"/>
     <use x="127.246094" xlink:href="#DejaVuSans-20"/>
     <use x="159.033203" xlink:href="#DejaVuSans-69"/>
     <use x="186.816406" xlink:href="#DejaVuSans-6e"/>
     <use x="250.195312" xlink:href="#DejaVuSans-73"/>
     <use x="302.294922" xlink:href="#DejaVuSans-74"/>
     <use x="341.503906" xlink:href="#DejaVuSans-61"/>
     <use x="402.783203" xlink:href="#DejaVuSans-6e"/>
     <use x="466.162109" xlink:href="#DejaVuSans-63"/>
     <use x="521.142578" xlink:href="#DejaVuSans-65"/>
     <use x="582.666016" xlink:href="#DejaVuSans-73"/>
    </g>
   </g>
   <g id="text_18">
    <!-- v2.4.1.1 -->
    <g style="fill:#808080;" transform="translate(177.692437 294.151352)scale(0.1 -0.1)">
     <use xlink:href="#DejaVuSans-76"/>
     <use x="59.179688" xlink:href="#DejaVuSans-32"/>
     <use x="122.802734" xlink:href="#DejaVuSans-2e"/>
     <use x="154.589844" xlink:href="#DejaVuSans-34"/>
     <use x="218.212891" xlink:href="#DejaVuSans-2e"/>
     <use x="250" xlink:href="#DejaVuSans-31"/>
     <use x="313.623047" xlink:href="#DejaVuSans-2e"/>
     <use x="345.410156" xlink:href="#DejaVuSans-31"/>
    </g>
   </g>
   <g id="text_19">
    <!-- 21 Gallagher 101 peaks -->
    <g transform="translate(78.6565 21.648)scale(0.2 -0.2)">
     <defs>
      <path d="M 3809 666 
L 3809 1919 
L 2778 1919 
L 2778 2438 
L 4434 2438 
L 4434 434 
Q 4069 175 3628 42 
Q 3188 -91 2688 -91 
Q 1594 -91 976 548 
Q 359 1188 359 2328 
Q 359 3472 976 4111 
Q 1594 4750 2688 4750 
Q 3144 4750 3555 4637 
Q 3966 4525 4313 4306 
L 4313 3634 
Q 3963 3931 3569 4081 
Q 3175 4231 2741 4231 
Q 1884 4231 1454 3753 
Q 1025 3275 1025 2328 
Q 1025 1384 1454 906 
Q 1884 428 2741 428 
Q 3075 428 3337 486 
Q 3600 544 3809 666 
z
" id="DejaVuSans-47" transform="scale(0.015625)"/>
      <path d="M 581 4863 
L 1159 4863 
L 1159 1991 
L 2875 3500 
L 3609 3500 
L 1753 1863 
L 3688 0 
L 2938 0 
L 1159 1709 
L 1159 0 
L 581 0 
L 581 4863 
z
" id="DejaVuSans-6b" transform="scale(0.015625)"/>
     </defs>
     <use xlink:href="#DejaVuSans-32"/>
     <use x="63.623047" xlink:href="#DejaVuSans-31"/>
     <use x="127.246094" xlink:href="#DejaVuSans-20"/>
     <use x="159.033203" xlink:href="#DejaVuSans-47"/>
     <use x="236.523438" xlink:href="#DejaVuSans-61"/>
     <use x="297.802734" xlink:href="#DejaVuSans-6c"/>
     <use x="325.585938" xlink:href="#DejaVuSans-6c"/>
     <use x="353.369141" xlink:href="#DejaVuSans-61"/>
     <use x="414.648438" xlink:href="#DejaVuSans-67"/>
     <use x="478.125" xlink:href="#DejaVuSans-68"/>
     <use x="541.503906" xlink:href="#DejaVuSans-65"/>
     <use x="603.027344" xlink:href="#DejaVuSans-72"/>
     <use x="644.140625" xlink:href="#DejaVuSans-20"/>
     <use x="675.927734" xlink:href="#DejaVuSans-31"/>
     <use x="739.550781" xlink:href="#DejaVuSans-30"/>
     <use x="803.173828" xlink:href="#DejaVuSans-31"/>
     <use x="866.796875" xlink:href="#DejaVuSans-20"/>
     <use x="898.583984" xlink:href="#DejaVuSans-70"/>
     <use x="962.060547" xlink:href="#DejaVuSans-65"/>
     <use x="1023.583984" xlink:href="#DejaVuSans-61"/>
     <use x="1084.863281" xlink:href="#DejaVuSans-6b"/>
     <use x="1142.773438" xlink:href="#DejaVuSans-73"/>
    </g>
   </g>
  </g>
 </g>
 <defs>
  <clipPath id="p209f1e30ff">
   <rect height="271.296" width="281.088" x="57.6" y="27.648"/>
  </clipPath>
 </defs>
</svg>
