<?xml version="1.0" encoding="utf-8" standalone="no"?>
<!DOCTYPE svg PUBLIC "-//W3C//DTD SVG 1.1//EN"
  "http://www.w3.org/Graphics/SVG/1.1/DTD/svg11.dtd">
<svg height="345.6pt" version="1.1" viewBox="0 0 460.8 345.6" width="460.8pt" xmlns="http://www.w3.org/2000/svg" xmlns:xlink="http://www.w3.org/1999/xlink">
 <metadata>
  <rdf:RDF xmlns:cc="http://creativecommons.org/ns#" xmlns:dc="http://purl.org/dc/elements/1.1/" xmlns:rdf="http://www.w3.org/1999/02/22-rdf-syntax-ns#">
   <cc:Work>
    <dc:type rdf:resource="http://purl.org/dc/dcmitype/StillImage"/>
    <dc:date>2022-03-29T13:03:31.199741</dc:date>
    <dc:format>image/svg+xml</dc:format>
    <dc:creator>
     <cc:Agent>
      <dc:title>Matplotlib v3.4.3, https://matplotlib.org/</dc:title>
     </cc:Agent>
    </dc:creator>
   </cc:Work>
  </rdf:RDF>
 </metadata>
 <defs>
  <style type="text/css">*{stroke-linecap:butt;stroke-linejoin:round;}</style>
 </defs>
 <g id="figure_1">
  <g id="patch_1">
   <path d="M 0 345.6 
L 460.8 345.6 
L 460.8 0 
L 0 0 
z
" style="fill:#ffffff;"/>
  </g>
  <g id="axes_1">
   <g id="patch_2">
    <path d="M 57.6 298.944 
L 338.688 298.944 
L 338.688 27.648 
L 57.6 27.648 
z
" style="fill:#ffffff;"/>
   </g>
   <g id="matplotlib.axis_1">
    <g id="xtick_1">
     <g id="line2d_1">
      <path clip-path="url(#p03ead9d33a)" d="M 57.6 298.944 
L 57.6 27.648 
" style="fill:none;stroke:#b0b0b0;stroke-linecap:square;stroke-width:0.8;"/>
     </g>
     <g id="line2d_2">
      <defs>
       <path d="M 0 0 
L 0 3.5 
" id="md34e07958a" style="stroke:#000000;stroke-width:0.8;"/>
      </defs>
      <g>
       <use style="stroke:#000000;stroke-width:0.8;" x="57.6" xlink:href="#md34e07958a" y="298.944"/>
      </g>
     </g>
     <g id="text_1">
      <!-- 0 -->
      <g transform="translate(51.2375 321.140875)scale(0.2 -0.2)">
       <defs>
        <path d="M 2034 4250 
Q 1547 4250 1301 3770 
Q 1056 3291 1056 2328 
Q 1056 1369 1301 889 
Q 1547 409 2034 409 
Q 2525 409 2770 889 
Q 3016 1369 3016 2328 
Q 3016 3291 2770 3770 
Q 2525 4250 2034 4250 
z
M 2034 4750 
Q 2819 4750 3233 4129 
Q 3647 3509 3647 2328 
Q 3647 1150 3233 529 
Q 2819 -91 2034 -91 
Q 1250 -91 836 529 
Q 422 1150 422 2328 
Q 422 3509 836 4129 
Q 1250 4750 2034 4750 
z
" id="DejaVuSans-30" transform="scale(0.015625)"/>
       </defs>
       <use xlink:href="#DejaVuSans-30"/>
      </g>
     </g>
    </g>
    <g id="xtick_2">
     <g id="line2d_3">
      <path clip-path="url(#p03ead9d33a)" d="M 137.910857 298.944 
L 137.910857 27.648 
" style="fill:none;stroke:#b0b0b0;stroke-linecap:square;stroke-width:0.8;"/>
     </g>
     <g id="line2d_4">
      <g>
       <use style="stroke:#000000;stroke-width:0.8;" x="137.910857" xlink:href="#md34e07958a" y="298.944"/>
      </g>
     </g>
     <g id="text_2">
      <!-- 2 -->
      <g transform="translate(131.548357 321.140875)scale(0.2 -0.2)">
       <defs>
        <path d="M 1228 531 
L 3431 531 
L 3431 0 
L 469 0 
L 469 531 
Q 828 903 1448 1529 
Q 2069 2156 2228 2338 
Q 2531 2678 2651 2914 
Q 2772 3150 2772 3378 
Q 2772 3750 2511 3984 
Q 2250 4219 1831 4219 
Q 1534 4219 1204 4116 
Q 875 4013 500 3803 
L 500 4441 
Q 881 4594 1212 4672 
Q 1544 4750 1819 4750 
Q 2544 4750 2975 4387 
Q 3406 4025 3406 3419 
Q 3406 3131 3298 2873 
Q 3191 2616 2906 2266 
Q 2828 2175 2409 1742 
Q 1991 1309 1228 531 
z
" id="DejaVuSans-32" transform="scale(0.015625)"/>
       </defs>
       <use xlink:href="#DejaVuSans-32"/>
      </g>
     </g>
    </g>
    <g id="xtick_3">
     <g id="line2d_5">
      <path clip-path="url(#p03ead9d33a)" d="M 218.221714 298.944 
L 218.221714 27.648 
" style="fill:none;stroke:#b0b0b0;stroke-linecap:square;stroke-width:0.8;"/>
     </g>
     <g id="line2d_6">
      <g>
       <use style="stroke:#000000;stroke-width:0.8;" x="218.221714" xlink:href="#md34e07958a" y="298.944"/>
      </g>
     </g>
     <g id="text_3">
      <!-- 4 -->
      <g transform="translate(211.859214 321.140875)scale(0.2 -0.2)">
       <defs>
        <path d="M 2419 4116 
L 825 1625 
L 2419 1625 
L 2419 4116 
z
M 2253 4666 
L 3047 4666 
L 3047 1625 
L 3713 1625 
L 3713 1100 
L 3047 1100 
L 3047 0 
L 2419 0 
L 2419 1100 
L 313 1100 
L 313 1709 
L 2253 4666 
z
" id="DejaVuSans-34" transform="scale(0.015625)"/>
       </defs>
       <use xlink:href="#DejaVuSans-34"/>
      </g>
     </g>
    </g>
    <g id="xtick_4">
     <g id="line2d_7">
      <path clip-path="url(#p03ead9d33a)" d="M 298.532571 298.944 
L 298.532571 27.648 
" style="fill:none;stroke:#b0b0b0;stroke-linecap:square;stroke-width:0.8;"/>
     </g>
     <g id="line2d_8">
      <g>
       <use style="stroke:#000000;stroke-width:0.8;" x="298.532571" xlink:href="#md34e07958a" y="298.944"/>
      </g>
     </g>
     <g id="text_4">
      <!-- 6 -->
      <g transform="translate(292.170071 321.140875)scale(0.2 -0.2)">
       <defs>
        <path d="M 2113 2584 
Q 1688 2584 1439 2293 
Q 1191 2003 1191 1497 
Q 1191 994 1439 701 
Q 1688 409 2113 409 
Q 2538 409 2786 701 
Q 3034 994 3034 1497 
Q 3034 2003 2786 2293 
Q 2538 2584 2113 2584 
z
M 3366 4563 
L 3366 3988 
Q 3128 4100 2886 4159 
Q 2644 4219 2406 4219 
Q 1781 4219 1451 3797 
Q 1122 3375 1075 2522 
Q 1259 2794 1537 2939 
Q 1816 3084 2150 3084 
Q 2853 3084 3261 2657 
Q 3669 2231 3669 1497 
Q 3669 778 3244 343 
Q 2819 -91 2113 -91 
Q 1303 -91 875 529 
Q 447 1150 447 2328 
Q 447 3434 972 4092 
Q 1497 4750 2381 4750 
Q 2619 4750 2861 4703 
Q 3103 4656 3366 4563 
z
" id="DejaVuSans-36" transform="scale(0.015625)"/>
       </defs>
       <use xlink:href="#DejaVuSans-36"/>
      </g>
     </g>
    </g>
    <g id="xtick_5">
     <g id="line2d_9">
      <path clip-path="url(#p03ead9d33a)" d="M 97.755429 298.944 
L 97.755429 27.648 
" style="fill:none;stroke:#b0b0b0;stroke-linecap:square;stroke-width:0.8;"/>
     </g>
     <g id="line2d_10">
      <defs>
       <path d="M 0 0 
L 0 2 
" id="m6c8f704f90" style="stroke:#000000;stroke-width:0.6;"/>
      </defs>
      <g>
       <use style="stroke:#000000;stroke-width:0.6;" x="97.755429" xlink:href="#m6c8f704f90" y="298.944"/>
      </g>
     </g>
    </g>
    <g id="xtick_6">
     <g id="line2d_11">
      <path clip-path="url(#p03ead9d33a)" d="M 178.066286 298.944 
L 178.066286 27.648 
" style="fill:none;stroke:#b0b0b0;stroke-linecap:square;stroke-width:0.8;"/>
     </g>
     <g id="line2d_12">
      <g>
       <use style="stroke:#000000;stroke-width:0.6;" x="178.066286" xlink:href="#m6c8f704f90" y="298.944"/>
      </g>
     </g>
    </g>
    <g id="xtick_7">
     <g id="line2d_13">
      <path clip-path="url(#p03ead9d33a)" d="M 258.377143 298.944 
L 258.377143 27.648 
" style="fill:none;stroke:#b0b0b0;stroke-linecap:square;stroke-width:0.8;"/>
     </g>
     <g id="line2d_14">
      <g>
       <use style="stroke:#000000;stroke-width:0.6;" x="258.377143" xlink:href="#m6c8f704f90" y="298.944"/>
      </g>
     </g>
    </g>
    <g id="xtick_8">
     <g id="line2d_15">
      <path clip-path="url(#p03ead9d33a)" d="M 338.688 298.944 
L 338.688 27.648 
" style="fill:none;stroke:#b0b0b0;stroke-linecap:square;stroke-width:0.8;"/>
     </g>
     <g id="line2d_16">
      <g>
       <use style="stroke:#000000;stroke-width:0.6;" x="338.688" xlink:href="#m6c8f704f90" y="298.944"/>
      </g>
     </g>
    </g>
    <g id="text_5">
     <!-- log10(# f-evals / dimension) -->
     <g transform="translate(77.764078 342.217594)scale(0.17 -0.17)">
      <defs>
       <path d="M 603 4863 
L 1178 4863 
L 1178 0 
L 603 0 
L 603 4863 
z
" id="DejaVuSans-6c" transform="scale(0.015625)"/>
       <path d="M 1959 3097 
Q 1497 3097 1228 2736 
Q 959 2375 959 1747 
Q 959 1119 1226 758 
Q 1494 397 1959 397 
Q 2419 397 2687 759 
Q 2956 1122 2956 1747 
Q 2956 2369 2687 2733 
Q 2419 3097 1959 3097 
z
M 1959 3584 
Q 2709 3584 3137 3096 
Q 3566 2609 3566 1747 
Q 3566 888 3137 398 
Q 2709 -91 1959 -91 
Q 1206 -91 779 398 
Q 353 888 353 1747 
Q 353 2609 779 3096 
Q 1206 3584 1959 3584 
z
" id="DejaVuSans-6f" transform="scale(0.015625)"/>
       <path d="M 2906 1791 
Q 2906 2416 2648 2759 
Q 2391 3103 1925 3103 
Q 1463 3103 1205 2759 
Q 947 2416 947 1791 
Q 947 1169 1205 825 
Q 1463 481 1925 481 
Q 2391 481 2648 825 
Q 2906 1169 2906 1791 
z
M 3481 434 
Q 3481 -459 3084 -895 
Q 2688 -1331 1869 -1331 
Q 1566 -1331 1297 -1286 
Q 1028 -1241 775 -1147 
L 775 -588 
Q 1028 -725 1275 -790 
Q 1522 -856 1778 -856 
Q 2344 -856 2625 -561 
Q 2906 -266 2906 331 
L 2906 616 
Q 2728 306 2450 153 
Q 2172 0 1784 0 
Q 1141 0 747 490 
Q 353 981 353 1791 
Q 353 2603 747 3093 
Q 1141 3584 1784 3584 
Q 2172 3584 2450 3431 
Q 2728 3278 2906 2969 
L 2906 3500 
L 3481 3500 
L 3481 434 
z
" id="DejaVuSans-67" transform="scale(0.015625)"/>
       <path d="M 794 531 
L 1825 531 
L 1825 4091 
L 703 3866 
L 703 4441 
L 1819 4666 
L 2450 4666 
L 2450 531 
L 3481 531 
L 3481 0 
L 794 0 
L 794 531 
z
" id="DejaVuSans-31" transform="scale(0.015625)"/>
       <path d="M 1984 4856 
Q 1566 4138 1362 3434 
Q 1159 2731 1159 2009 
Q 1159 1288 1364 580 
Q 1569 -128 1984 -844 
L 1484 -844 
Q 1016 -109 783 600 
Q 550 1309 550 2009 
Q 550 2706 781 3412 
Q 1013 4119 1484 4856 
L 1984 4856 
z
" id="DejaVuSans-28" transform="scale(0.015625)"/>
       <path d="M 3272 2816 
L 2363 2816 
L 2100 1772 
L 3016 1772 
L 3272 2816 
z
M 2803 4594 
L 2478 3297 
L 3391 3297 
L 3719 4594 
L 4219 4594 
L 3897 3297 
L 4872 3297 
L 4872 2816 
L 3775 2816 
L 3519 1772 
L 4513 1772 
L 4513 1294 
L 3397 1294 
L 3072 0 
L 2572 0 
L 2894 1294 
L 1978 1294 
L 1656 0 
L 1153 0 
L 1478 1294 
L 494 1294 
L 494 1772 
L 1594 1772 
L 1856 2816 
L 850 2816 
L 850 3297 
L 1978 3297 
L 2297 4594 
L 2803 4594 
z
" id="DejaVuSans-23" transform="scale(0.015625)"/>
       <path id="DejaVuSans-20" transform="scale(0.015625)"/>
       <path d="M 2375 4863 
L 2375 4384 
L 1825 4384 
Q 1516 4384 1395 4259 
Q 1275 4134 1275 3809 
L 1275 3500 
L 2222 3500 
L 2222 3053 
L 1275 3053 
L 1275 0 
L 697 0 
L 697 3053 
L 147 3053 
L 147 3500 
L 697 3500 
L 697 3744 
Q 697 4328 969 4595 
Q 1241 4863 1831 4863 
L 2375 4863 
z
" id="DejaVuSans-66" transform="scale(0.015625)"/>
       <path d="M 313 2009 
L 1997 2009 
L 1997 1497 
L 313 1497 
L 313 2009 
z
" id="DejaVuSans-2d" transform="scale(0.015625)"/>
       <path d="M 3597 1894 
L 3597 1613 
L 953 1613 
Q 991 1019 1311 708 
Q 1631 397 2203 397 
Q 2534 397 2845 478 
Q 3156 559 3463 722 
L 3463 178 
Q 3153 47 2828 -22 
Q 2503 -91 2169 -91 
Q 1331 -91 842 396 
Q 353 884 353 1716 
Q 353 2575 817 3079 
Q 1281 3584 2069 3584 
Q 2775 3584 3186 3129 
Q 3597 2675 3597 1894 
z
M 3022 2063 
Q 3016 2534 2758 2815 
Q 2500 3097 2075 3097 
Q 1594 3097 1305 2825 
Q 1016 2553 972 2059 
L 3022 2063 
z
" id="DejaVuSans-65" transform="scale(0.015625)"/>
       <path d="M 191 3500 
L 800 3500 
L 1894 563 
L 2988 3500 
L 3597 3500 
L 2284 0 
L 1503 0 
L 191 3500 
z
" id="DejaVuSans-76" transform="scale(0.015625)"/>
       <path d="M 2194 1759 
Q 1497 1759 1228 1600 
Q 959 1441 959 1056 
Q 959 750 1161 570 
Q 1363 391 1709 391 
Q 2188 391 2477 730 
Q 2766 1069 2766 1631 
L 2766 1759 
L 2194 1759 
z
M 3341 1997 
L 3341 0 
L 2766 0 
L 2766 531 
Q 2569 213 2275 61 
Q 1981 -91 1556 -91 
Q 1019 -91 701 211 
Q 384 513 384 1019 
Q 384 1609 779 1909 
Q 1175 2209 1959 2209 
L 2766 2209 
L 2766 2266 
Q 2766 2663 2505 2880 
Q 2244 3097 1772 3097 
Q 1472 3097 1187 3025 
Q 903 2953 641 2809 
L 641 3341 
Q 956 3463 1253 3523 
Q 1550 3584 1831 3584 
Q 2591 3584 2966 3190 
Q 3341 2797 3341 1997 
z
" id="DejaVuSans-61" transform="scale(0.015625)"/>
       <path d="M 2834 3397 
L 2834 2853 
Q 2591 2978 2328 3040 
Q 2066 3103 1784 3103 
Q 1356 3103 1142 2972 
Q 928 2841 928 2578 
Q 928 2378 1081 2264 
Q 1234 2150 1697 2047 
L 1894 2003 
Q 2506 1872 2764 1633 
Q 3022 1394 3022 966 
Q 3022 478 2636 193 
Q 2250 -91 1575 -91 
Q 1294 -91 989 -36 
Q 684 19 347 128 
L 347 722 
Q 666 556 975 473 
Q 1284 391 1588 391 
Q 1994 391 2212 530 
Q 2431 669 2431 922 
Q 2431 1156 2273 1281 
Q 2116 1406 1581 1522 
L 1381 1569 
Q 847 1681 609 1914 
Q 372 2147 372 2553 
Q 372 3047 722 3315 
Q 1072 3584 1716 3584 
Q 2034 3584 2315 3537 
Q 2597 3491 2834 3397 
z
" id="DejaVuSans-73" transform="scale(0.015625)"/>
       <path d="M 1625 4666 
L 2156 4666 
L 531 -594 
L 0 -594 
L 1625 4666 
z
" id="DejaVuSans-2f" transform="scale(0.015625)"/>
       <path d="M 2906 2969 
L 2906 4863 
L 3481 4863 
L 3481 0 
L 2906 0 
L 2906 525 
Q 2725 213 2448 61 
Q 2172 -91 1784 -91 
Q 1150 -91 751 415 
Q 353 922 353 1747 
Q 353 2572 751 3078 
Q 1150 3584 1784 3584 
Q 2172 3584 2448 3432 
Q 2725 3281 2906 2969 
z
M 947 1747 
Q 947 1113 1208 752 
Q 1469 391 1925 391 
Q 2381 391 2643 752 
Q 2906 1113 2906 1747 
Q 2906 2381 2643 2742 
Q 2381 3103 1925 3103 
Q 1469 3103 1208 2742 
Q 947 2381 947 1747 
z
" id="DejaVuSans-64" transform="scale(0.015625)"/>
       <path d="M 603 3500 
L 1178 3500 
L 1178 0 
L 603 0 
L 603 3500 
z
M 603 4863 
L 1178 4863 
L 1178 4134 
L 603 4134 
L 603 4863 
z
" id="DejaVuSans-69" transform="scale(0.015625)"/>
       <path d="M 3328 2828 
Q 3544 3216 3844 3400 
Q 4144 3584 4550 3584 
Q 5097 3584 5394 3201 
Q 5691 2819 5691 2113 
L 5691 0 
L 5113 0 
L 5113 2094 
Q 5113 2597 4934 2840 
Q 4756 3084 4391 3084 
Q 3944 3084 3684 2787 
Q 3425 2491 3425 1978 
L 3425 0 
L 2847 0 
L 2847 2094 
Q 2847 2600 2669 2842 
Q 2491 3084 2119 3084 
Q 1678 3084 1418 2786 
Q 1159 2488 1159 1978 
L 1159 0 
L 581 0 
L 581 3500 
L 1159 3500 
L 1159 2956 
Q 1356 3278 1631 3431 
Q 1906 3584 2284 3584 
Q 2666 3584 2933 3390 
Q 3200 3197 3328 2828 
z
" id="DejaVuSans-6d" transform="scale(0.015625)"/>
       <path d="M 3513 2113 
L 3513 0 
L 2938 0 
L 2938 2094 
Q 2938 2591 2744 2837 
Q 2550 3084 2163 3084 
Q 1697 3084 1428 2787 
Q 1159 2491 1159 1978 
L 1159 0 
L 581 0 
L 581 3500 
L 1159 3500 
L 1159 2956 
Q 1366 3272 1645 3428 
Q 1925 3584 2291 3584 
Q 2894 3584 3203 3211 
Q 3513 2838 3513 2113 
z
" id="DejaVuSans-6e" transform="scale(0.015625)"/>
       <path d="M 513 4856 
L 1013 4856 
Q 1481 4119 1714 3412 
Q 1947 2706 1947 2009 
Q 1947 1309 1714 600 
Q 1481 -109 1013 -844 
L 513 -844 
Q 928 -128 1133 580 
Q 1338 1288 1338 2009 
Q 1338 2731 1133 3434 
Q 928 4138 513 4856 
z
" id="DejaVuSans-29" transform="scale(0.015625)"/>
      </defs>
      <use xlink:href="#DejaVuSans-6c"/>
      <use x="27.783203" xlink:href="#DejaVuSans-6f"/>
      <use x="88.964844" xlink:href="#DejaVuSans-67"/>
      <use x="152.441406" xlink:href="#DejaVuSans-31"/>
      <use x="216.064453" xlink:href="#DejaVuSans-30"/>
      <use x="279.6875" xlink:href="#DejaVuSans-28"/>
      <use x="318.701172" xlink:href="#DejaVuSans-23"/>
      <use x="402.490234" xlink:href="#DejaVuSans-20"/>
      <use x="434.277344" xlink:href="#DejaVuSans-66"/>
      <use x="463.982422" xlink:href="#DejaVuSans-2d"/>
      <use x="500.066406" xlink:href="#DejaVuSans-65"/>
      <use x="561.589844" xlink:href="#DejaVuSans-76"/>
      <use x="620.769531" xlink:href="#DejaVuSans-61"/>
      <use x="682.048828" xlink:href="#DejaVuSans-6c"/>
      <use x="709.832031" xlink:href="#DejaVuSans-73"/>
      <use x="761.931641" xlink:href="#DejaVuSans-20"/>
      <use x="793.71875" xlink:href="#DejaVuSans-2f"/>
      <use x="827.410156" xlink:href="#DejaVuSans-20"/>
      <use x="859.197266" xlink:href="#DejaVuSans-64"/>
      <use x="922.673828" xlink:href="#DejaVuSans-69"/>
      <use x="950.457031" xlink:href="#DejaVuSans-6d"/>
      <use x="1047.869141" xlink:href="#DejaVuSans-65"/>
      <use x="1109.392578" xlink:href="#DejaVuSans-6e"/>
      <use x="1172.771484" xlink:href="#DejaVuSans-73"/>
      <use x="1224.871094" xlink:href="#DejaVuSans-69"/>
      <use x="1252.654297" xlink:href="#DejaVuSans-6f"/>
      <use x="1313.835938" xlink:href="#DejaVuSans-6e"/>
      <use x="1377.214844" xlink:href="#DejaVuSans-29"/>
     </g>
    </g>
   </g>
   <g id="matplotlib.axis_2">
    <g id="ytick_1">
     <g id="line2d_17">
      <path clip-path="url(#p03ead9d33a)" d="M 57.6 298.944 
L 338.688 298.944 
" style="fill:none;stroke:#b0b0b0;stroke-linecap:square;stroke-width:0.8;"/>
     </g>
     <g id="line2d_18">
      <defs>
       <path d="M 0 0 
L -3.5 0 
" id="m6c93310f53" style="stroke:#000000;stroke-width:0.8;"/>
      </defs>
      <g>
       <use style="stroke:#000000;stroke-width:0.8;" x="57.6" xlink:href="#m6c93310f53" y="298.944"/>
      </g>
     </g>
     <g id="text_6">
      <!-- 0.0 -->
      <g transform="translate(25.155 305.02275)scale(0.16 -0.16)">
       <defs>
        <path d="M 684 794 
L 1344 794 
L 1344 0 
L 684 0 
L 684 794 
z
" id="DejaVuSans-2e" transform="scale(0.015625)"/>
       </defs>
       <use xlink:href="#DejaVuSans-30"/>
       <use x="63.623047" xlink:href="#DejaVuSans-2e"/>
       <use x="95.410156" xlink:href="#DejaVuSans-30"/>
      </g>
     </g>
    </g>
    <g id="ytick_2">
     <g id="line2d_19">
      <path clip-path="url(#p03ead9d33a)" d="M 57.6 245.22202 
L 338.688 245.22202 
" style="fill:none;stroke:#b0b0b0;stroke-linecap:square;stroke-width:0.8;"/>
     </g>
     <g id="line2d_20">
      <g>
       <use style="stroke:#000000;stroke-width:0.8;" x="57.6" xlink:href="#m6c93310f53" y="245.22202"/>
      </g>
     </g>
     <g id="text_7">
      <!-- 0.2 -->
      <g transform="translate(25.155 251.30077)scale(0.16 -0.16)">
       <use xlink:href="#DejaVuSans-30"/>
       <use x="63.623047" xlink:href="#DejaVuSans-2e"/>
       <use x="95.410156" xlink:href="#DejaVuSans-32"/>
      </g>
     </g>
    </g>
    <g id="ytick_3">
     <g id="line2d_21">
      <path clip-path="url(#p03ead9d33a)" d="M 57.6 191.50004 
L 338.688 191.50004 
" style="fill:none;stroke:#b0b0b0;stroke-linecap:square;stroke-width:0.8;"/>
     </g>
     <g id="line2d_22">
      <g>
       <use style="stroke:#000000;stroke-width:0.8;" x="57.6" xlink:href="#m6c93310f53" y="191.50004"/>
      </g>
     </g>
     <g id="text_8">
      <!-- 0.4 -->
      <g transform="translate(25.155 197.57879)scale(0.16 -0.16)">
       <use xlink:href="#DejaVuSans-30"/>
       <use x="63.623047" xlink:href="#DejaVuSans-2e"/>
       <use x="95.410156" xlink:href="#DejaVuSans-34"/>
      </g>
     </g>
    </g>
    <g id="ytick_4">
     <g id="line2d_23">
      <path clip-path="url(#p03ead9d33a)" d="M 57.6 137.778059 
L 338.688 137.778059 
" style="fill:none;stroke:#b0b0b0;stroke-linecap:square;stroke-width:0.8;"/>
     </g>
     <g id="line2d_24">
      <g>
       <use style="stroke:#000000;stroke-width:0.8;" x="57.6" xlink:href="#m6c93310f53" y="137.778059"/>
      </g>
     </g>
     <g id="text_9">
      <!-- 0.6 -->
      <g transform="translate(25.155 143.856809)scale(0.16 -0.16)">
       <use xlink:href="#DejaVuSans-30"/>
       <use x="63.623047" xlink:href="#DejaVuSans-2e"/>
       <use x="95.410156" xlink:href="#DejaVuSans-36"/>
      </g>
     </g>
    </g>
    <g id="ytick_5">
     <g id="line2d_25">
      <path clip-path="url(#p03ead9d33a)" d="M 57.6 84.056079 
L 338.688 84.056079 
" style="fill:none;stroke:#b0b0b0;stroke-linecap:square;stroke-width:0.8;"/>
     </g>
     <g id="line2d_26">
      <g>
       <use style="stroke:#000000;stroke-width:0.8;" x="57.6" xlink:href="#m6c93310f53" y="84.056079"/>
      </g>
     </g>
     <g id="text_10">
      <!-- 0.8 -->
      <g transform="translate(25.155 90.134829)scale(0.16 -0.16)">
       <defs>
        <path d="M 2034 2216 
Q 1584 2216 1326 1975 
Q 1069 1734 1069 1313 
Q 1069 891 1326 650 
Q 1584 409 2034 409 
Q 2484 409 2743 651 
Q 3003 894 3003 1313 
Q 3003 1734 2745 1975 
Q 2488 2216 2034 2216 
z
M 1403 2484 
Q 997 2584 770 2862 
Q 544 3141 544 3541 
Q 544 4100 942 4425 
Q 1341 4750 2034 4750 
Q 2731 4750 3128 4425 
Q 3525 4100 3525 3541 
Q 3525 3141 3298 2862 
Q 3072 2584 2669 2484 
Q 3125 2378 3379 2068 
Q 3634 1759 3634 1313 
Q 3634 634 3220 271 
Q 2806 -91 2034 -91 
Q 1263 -91 848 271 
Q 434 634 434 1313 
Q 434 1759 690 2068 
Q 947 2378 1403 2484 
z
M 1172 3481 
Q 1172 3119 1398 2916 
Q 1625 2713 2034 2713 
Q 2441 2713 2670 2916 
Q 2900 3119 2900 3481 
Q 2900 3844 2670 4047 
Q 2441 4250 2034 4250 
Q 1625 4250 1398 4047 
Q 1172 3844 1172 3481 
z
" id="DejaVuSans-38" transform="scale(0.015625)"/>
       </defs>
       <use xlink:href="#DejaVuSans-30"/>
       <use x="63.623047" xlink:href="#DejaVuSans-2e"/>
       <use x="95.410156" xlink:href="#DejaVuSans-38"/>
      </g>
     </g>
    </g>
    <g id="ytick_6">
     <g id="line2d_27">
      <path clip-path="url(#p03ead9d33a)" d="M 57.6 30.334099 
L 338.688 30.334099 
" style="fill:none;stroke:#b0b0b0;stroke-linecap:square;stroke-width:0.8;"/>
     </g>
     <g id="line2d_28">
      <g>
       <use style="stroke:#000000;stroke-width:0.8;" x="57.6" xlink:href="#m6c93310f53" y="30.334099"/>
      </g>
     </g>
     <g id="text_11">
      <!-- 1.0 -->
      <g transform="translate(25.155 36.412849)scale(0.16 -0.16)">
       <use xlink:href="#DejaVuSans-31"/>
       <use x="63.623047" xlink:href="#DejaVuSans-2e"/>
       <use x="95.410156" xlink:href="#DejaVuSans-30"/>
      </g>
     </g>
    </g>
    <g id="text_12">
     <!-- Fraction of function,target pairs -->
     <g transform="translate(17.619531 297.681)rotate(-90)scale(0.17 -0.17)">
      <defs>
       <path d="M 628 4666 
L 3309 4666 
L 3309 4134 
L 1259 4134 
L 1259 2759 
L 3109 2759 
L 3109 2228 
L 1259 2228 
L 1259 0 
L 628 0 
L 628 4666 
z
" id="DejaVuSans-46" transform="scale(0.015625)"/>
       <path d="M 2631 2963 
Q 2534 3019 2420 3045 
Q 2306 3072 2169 3072 
Q 1681 3072 1420 2755 
Q 1159 2438 1159 1844 
L 1159 0 
L 581 0 
L 581 3500 
L 1159 3500 
L 1159 2956 
Q 1341 3275 1631 3429 
Q 1922 3584 2338 3584 
Q 2397 3584 2469 3576 
Q 2541 3569 2628 3553 
L 2631 2963 
z
" id="DejaVuSans-72" transform="scale(0.015625)"/>
       <path d="M 3122 3366 
L 3122 2828 
Q 2878 2963 2633 3030 
Q 2388 3097 2138 3097 
Q 1578 3097 1268 2742 
Q 959 2388 959 1747 
Q 959 1106 1268 751 
Q 1578 397 2138 397 
Q 2388 397 2633 464 
Q 2878 531 3122 666 
L 3122 134 
Q 2881 22 2623 -34 
Q 2366 -91 2075 -91 
Q 1284 -91 818 406 
Q 353 903 353 1747 
Q 353 2603 823 3093 
Q 1294 3584 2113 3584 
Q 2378 3584 2631 3529 
Q 2884 3475 3122 3366 
z
" id="DejaVuSans-63" transform="scale(0.015625)"/>
       <path d="M 1172 4494 
L 1172 3500 
L 2356 3500 
L 2356 3053 
L 1172 3053 
L 1172 1153 
Q 1172 725 1289 603 
Q 1406 481 1766 481 
L 2356 481 
L 2356 0 
L 1766 0 
Q 1100 0 847 248 
Q 594 497 594 1153 
L 594 3053 
L 172 3053 
L 172 3500 
L 594 3500 
L 594 4494 
L 1172 4494 
z
" id="DejaVuSans-74" transform="scale(0.015625)"/>
       <path d="M 544 1381 
L 544 3500 
L 1119 3500 
L 1119 1403 
Q 1119 906 1312 657 
Q 1506 409 1894 409 
Q 2359 409 2629 706 
Q 2900 1003 2900 1516 
L 2900 3500 
L 3475 3500 
L 3475 0 
L 2900 0 
L 2900 538 
Q 2691 219 2414 64 
Q 2138 -91 1772 -91 
Q 1169 -91 856 284 
Q 544 659 544 1381 
z
M 1991 3584 
L 1991 3584 
z
" id="DejaVuSans-75" transform="scale(0.015625)"/>
       <path d="M 750 794 
L 1409 794 
L 1409 256 
L 897 -744 
L 494 -744 
L 750 256 
L 750 794 
z
" id="DejaVuSans-2c" transform="scale(0.015625)"/>
       <path d="M 1159 525 
L 1159 -1331 
L 581 -1331 
L 581 3500 
L 1159 3500 
L 1159 2969 
Q 1341 3281 1617 3432 
Q 1894 3584 2278 3584 
Q 2916 3584 3314 3078 
Q 3713 2572 3713 1747 
Q 3713 922 3314 415 
Q 2916 -91 2278 -91 
Q 1894 -91 1617 61 
Q 1341 213 1159 525 
z
M 3116 1747 
Q 3116 2381 2855 2742 
Q 2594 3103 2138 3103 
Q 1681 3103 1420 2742 
Q 1159 2381 1159 1747 
Q 1159 1113 1420 752 
Q 1681 391 2138 391 
Q 2594 391 2855 752 
Q 3116 1113 3116 1747 
z
" id="DejaVuSans-70" transform="scale(0.015625)"/>
      </defs>
      <use xlink:href="#DejaVuSans-46"/>
      <use x="50.269531" xlink:href="#DejaVuSans-72"/>
      <use x="91.382812" xlink:href="#DejaVuSans-61"/>
      <use x="152.662109" xlink:href="#DejaVuSans-63"/>
      <use x="207.642578" xlink:href="#DejaVuSans-74"/>
      <use x="246.851562" xlink:href="#DejaVuSans-69"/>
      <use x="274.634766" xlink:href="#DejaVuSans-6f"/>
      <use x="335.816406" xlink:href="#DejaVuSans-6e"/>
      <use x="399.195312" xlink:href="#DejaVuSans-20"/>
      <use x="430.982422" xlink:href="#DejaVuSans-6f"/>
      <use x="492.164062" xlink:href="#DejaVuSans-66"/>
      <use x="527.369141" xlink:href="#DejaVuSans-20"/>
      <use x="559.15625" xlink:href="#DejaVuSans-66"/>
      <use x="594.361328" xlink:href="#DejaVuSans-75"/>
      <use x="657.740234" xlink:href="#DejaVuSans-6e"/>
      <use x="721.119141" xlink:href="#DejaVuSans-63"/>
      <use x="776.099609" xlink:href="#DejaVuSans-74"/>
      <use x="815.308594" xlink:href="#DejaVuSans-69"/>
      <use x="843.091797" xlink:href="#DejaVuSans-6f"/>
      <use x="904.273438" xlink:href="#DejaVuSans-6e"/>
      <use x="967.652344" xlink:href="#DejaVuSans-2c"/>
      <use x="999.439453" xlink:href="#DejaVuSans-74"/>
      <use x="1038.648438" xlink:href="#DejaVuSans-61"/>
      <use x="1099.927734" xlink:href="#DejaVuSans-72"/>
      <use x="1139.291016" xlink:href="#DejaVuSans-67"/>
      <use x="1202.767578" xlink:href="#DejaVuSans-65"/>
      <use x="1264.291016" xlink:href="#DejaVuSans-74"/>
      <use x="1303.5" xlink:href="#DejaVuSans-20"/>
      <use x="1335.287109" xlink:href="#DejaVuSans-70"/>
      <use x="1398.763672" xlink:href="#DejaVuSans-61"/>
      <use x="1460.042969" xlink:href="#DejaVuSans-69"/>
      <use x="1487.826172" xlink:href="#DejaVuSans-72"/>
      <use x="1528.939453" xlink:href="#DejaVuSans-73"/>
     </g>
    </g>
   </g>
   <g id="line2d_29">
    <defs>
     <path d="M 0 1.5 
C 0.397805 1.5 0.77937 1.341951 1.06066 1.06066 
C 1.341951 0.77937 1.5 0.397805 1.5 0 
C 1.5 -0.397805 1.341951 -0.77937 1.06066 -1.06066 
C 0.77937 -1.341951 0.397805 -1.5 0 -1.5 
C -0.397805 -1.5 -0.77937 -1.341951 -1.06066 -1.06066 
C -1.341951 -0.77937 -1.5 -0.397805 -1.5 0 
C -1.5 0.397805 -1.341951 0.77937 -1.06066 1.06066 
C -0.77937 1.341951 -0.397805 1.5 0 1.5 
z
" id="m21cd5b5060" style="stroke:#000080;"/>
    </defs>
    <g>
     <use style="fill:#000080;stroke:#000080;" x="158.497919" xlink:href="#m21cd5b5060" y="30.334099"/>
     <use style="fill:#000080;stroke:#000080;" x="158.497919" xlink:href="#m21cd5b5060" y="30.334099"/>
    </g>
   </g>
   <g id="line2d_30">
    <path d="M 29.53256 298.944 
L 29.53256 293.677139 
L 41.620548 293.677139 
L 41.620548 291.570395 
L 48.691568 291.570395 
L 48.691568 289.463651 
L 69.687988 289.463651 
L 69.687988 288.936964 
L 74.263433 288.936964 
L 74.263433 288.410278 
L 77.884514 288.410278 
L 77.884514 287.883592 
L 78.941764 287.883592 
L 78.941764 284.19679 
L 79.938565 284.19679 
L 79.938565 283.143418 
L 80.881459 283.143418 
L 80.881459 282.090045 
L 83.438118 282.090045 
L 83.438118 281.036673 
L 84.955534 281.036673 
L 84.955534 278.929929 
L 85.66744 278.929929 
L 85.66744 275.769812 
L 86.351421 275.769812 
L 86.351421 275.243126 
L 87.009585 275.243126 
L 87.009585 274.189754 
L 87.643811 274.189754 
L 87.643811 272.609696 
L 88.255778 272.609696 
L 88.255778 271.556324 
L 90.509138 271.556324 
L 90.509138 271.029638 
L 91.029752 271.029638 
L 91.029752 268.396207 
L 91.535274 268.396207 
L 91.535274 265.236091 
L 92.969447 265.236091 
L 92.969447 264.182719 
L 93.422441 264.182719 
L 93.422441 261.022602 
L 95.125186 261.022602 
L 95.125186 260.495916 
L 98.100772 260.495916 
L 98.100772 258.389172 
L 98.43941 258.389172 
L 98.43941 256.809114 
L 100.343767 256.809114 
L 100.343767 253.648997 
L 101.785851 253.648997 
L 101.785851 252.595625 
L 102.597126 252.595625 
L 102.597126 252.068939 
L 103.117741 252.068939 
L 103.117741 248.908822 
L 104.355088 248.908822 
L 104.355088 246.275392 
L 104.592361 246.275392 
L 104.592361 242.588589 
L 105.732589 242.588589 
L 105.732589 242.061903 
L 107.614095 242.061903 
L 107.614095 241.008531 
L 107.811151 241.008531 
L 107.811151 238.901787 
L 108.198707 238.901787 
L 108.198707 238.375101 
L 108.389302 238.375101 
L 108.389302 237.848415 
L 108.577836 237.848415 
L 108.577836 235.74167 
L 109.843417 235.74167 
L 109.843417 228.368065 
L 110.358901 228.368065 
L 110.358901 226.261321 
L 111.346294 226.261321 
L 111.346294 225.207949 
L 112.58145 225.207949 
L 112.58145 223.627891 
L 112.72987 223.627891 
L 112.72987 222.574518 
L 112.877038 222.574518 
L 112.877038 222.047832 
L 114.148479 222.047832 
L 114.148479 221.521146 
L 114.418861 221.521146 
L 114.418861 220.99446 
L 114.947365 220.99446 
L 114.947365 219.941088 
L 115.205729 219.941088 
L 115.205729 215.200913 
L 115.33349 215.200913 
L 115.33349 212.040797 
L 115.460322 212.040797 
L 115.460322 211.514111 
L 116.323218 211.514111 
L 116.323218 209.934052 
L 116.797786 209.934052 
L 116.797786 208.353994 
L 117.145424 208.353994 
L 117.145424 207.300622 
L 118.576578 207.300622 
L 118.576578 206.773936 
L 118.786692 206.773936 
L 118.786692 206.24725 
L 120.944859 206.24725 
L 120.944859 205.720564 
L 122.276749 205.720564 
L 122.276749 205.193878 
L 122.615387 205.193878 
L 122.615387 204.667192 
L 122.865118 204.667192 
L 122.865118 204.140506 
L 123.029641 204.140506 
L 123.111324 203.087133 
L 123.192626 203.087133 
L 123.192626 202.033761 
L 123.593547 202.033761 
L 123.672636 195.713528 
L 124.817858 195.713528 
L 124.817858 189.393295 
L 125.399222 189.393295 
L 125.470548 187.813237 
L 125.541584 187.813237 
L 125.541584 187.286551 
L 126.304457 187.286551 
L 126.304457 184.653121 
L 126.439646 184.653121 
L 126.439646 182.01969 
L 126.573795 182.01969 
L 126.573795 179.912946 
L 126.773103 179.912946 
L 126.773103 179.38626 
L 127.674226 179.38626 
L 127.736845 176.226143 
L 128.046609 176.226143 
L 128.046609 175.699457 
L 128.168991 175.699457 
L 128.168991 173.592713 
L 128.471239 173.592713 
L 128.471239 170.432596 
L 129.175952 170.432596 
L 129.175952 169.90591 
L 129.79784 169.90591 
L 129.79784 165.165736 
L 130.182344 165.165736 
L 130.182344 164.112363 
L 130.558552 164.112363 
L 130.558552 162.532305 
L 130.978796 162.532305 
L 130.978796 162.005619 
L 131.987128 162.005619 
L 131.987128 159.898875 
L 132.70687 159.898875 
L 132.70687 159.372189 
L 133.032848 159.372189 
L 133.032848 157.79213 
L 133.57787 157.79213 
L 133.622529 155.1587 
L 133.800029 155.1587 
L 133.800029 154.632014 
L 133.975741 154.632014 
L 133.975741 148.838467 
L 134.236034 148.838467 
L 134.236034 147.785095 
L 134.407429 147.785095 
L 134.407429 146.731723 
L 134.745246 146.731723 
L 134.745246 141.991548 
L 135.035562 141.991548 
L 135.035562 141.464862 
L 135.361539 141.464862 
L 135.361539 140.938176 
L 136.266147 140.938176 
L 136.342635 134.091257 
L 136.831795 134.091257 
L 136.86886 132.511199 
L 137.875944 132.511199 
L 137.875944 127.244338 
L 139.02546 127.244338 
L 139.090775 126.190966 
L 139.381706 126.190966 
L 139.477614 120.924105 
L 139.9494 120.924105 
L 139.9494 119.870733 
L 140.103868 119.870733 
L 140.103868 119.344047 
L 140.826843 119.344047 
L 140.856326 117.763988 
L 141.119455 117.763988 
L 141.119455 114.077186 
L 141.235139 114.077186 
L 141.235139 111.970441 
L 141.577657 111.970441 
L 141.577657 106.176895 
L 141.774395 106.176895 
L 141.80232 98.803289 
L 142.024126 98.803289 
L 142.024126 96.696545 
L 142.270332 96.696545 
L 142.324576 95.643173 
L 142.432559 95.643173 
L 142.432559 94.063115 
L 142.593291 94.063115 
L 142.593291 92.483056 
L 143.502469 92.483056 
L 143.502469 90.376312 
L 144.001481 90.376312 
L 144.001481 89.32294 
L 144.172816 89.32294 
L 144.172816 85.636137 
L 144.318346 85.636137 
L 144.414696 83.002707 
L 145.553708 83.002707 
L 145.553708 79.842591 
L 146.452726 79.842591 
L 146.452726 77.20916 
L 146.916676 77.20916 
L 146.999721 71.415613 
L 147.102973 71.415613 
L 147.102973 70.362241 
L 147.729844 70.362241 
L 147.729844 68.782183 
L 148.142046 68.782183 
L 148.219468 67.202125 
L 148.392421 67.202125 
L 148.392421 66.148752 
L 149.122675 66.148752 
L 149.122675 65.09538 
L 149.323233 65.09538 
L 149.323233 64.568694 
L 149.557321 64.568694 
L 149.557321 63.515322 
L 149.823575 63.515322 
L 149.823575 62.46195 
L 150.085825 62.46195 
L 150.085825 61.935264 
L 150.309961 61.935264 
L 150.327083 59.82852 
L 150.51433 59.82852 
L 150.51433 59.301833 
L 150.982078 59.301833 
L 150.982078 58.775147 
L 151.324836 58.775147 
L 151.373256 56.668403 
L 151.975216 56.668403 
L 151.975216 52.454914 
L 152.191856 52.454914 
L 152.191856 49.294798 
L 152.436193 49.294798 
L 152.436193 48.241426 
L 152.602211 48.241426 
L 152.602211 47.188054 
L 152.781537 47.188054 
L 152.781537 45.081309 
L 153.207444 45.081309 
L 153.207444 44.554623 
L 153.552218 44.554623 
L 153.566437 42.447879 
L 153.959927 42.447879 
L 153.987696 39.287762 
L 154.344733 39.287762 
L 154.453136 36.127646 
L 155.94126 36.127646 
L 156.040206 34.020902 
L 157.023299 34.020902 
L 157.104709 31.914157 
L 157.731474 31.914157 
L 157.731474 31.387471 
L 158.497919 31.387471 
L 158.497919 30.334099 
L 338.688 30.334099 
L 338.688 30.334099 
" style="fill:none;stroke:#000080;stroke-linecap:square;stroke-width:1.5;"/>
   </g>
   <g id="line2d_31">
    <defs>
     <path d="M 0 6 
C 1.591219 6 3.117479 5.367802 4.242641 4.242641 
C 5.367802 3.117479 6 1.591219 6 0 
C 6 -1.591219 5.367802 -3.117479 4.242641 -4.242641 
C 3.117479 -5.367802 1.591219 -6 0 -6 
C -1.591219 -6 -3.117479 -5.367802 -4.242641 -4.242641 
C -5.367802 -3.117479 -6 -1.591219 -6 0 
C -6 1.591219 -5.367802 3.117479 -4.242641 4.242641 
C -3.117479 5.367802 -1.591219 6 0 6 
z
" id="m3aea67f2ea" style="stroke:#000080;stroke-width:1.5;"/>
    </defs>
    <g>
     <use style="fill-opacity:0;stroke:#000080;stroke-width:1.5;" x="87.009585" xlink:href="#m3aea67f2ea" y="274.189754"/>
     <use style="fill-opacity:0;stroke:#000080;stroke-width:1.5;" x="125.470548" xlink:href="#m3aea67f2ea" y="187.813237"/>
     <use style="fill-opacity:0;stroke:#000080;stroke-width:1.5;" x="148.219468" xlink:href="#m3aea67f2ea" y="68.255497"/>
     <use style="fill-opacity:0;stroke:#000080;stroke-width:1.5;" x="158.497919" xlink:href="#m3aea67f2ea" y="31.387471"/>
     <use style="fill-opacity:0;stroke:#000080;stroke-width:1.5;" x="158.497919" xlink:href="#m3aea67f2ea" y="30.334099"/>
     <use style="fill-opacity:0;stroke:#000080;stroke-width:1.5;" x="338.688" xlink:href="#m3aea67f2ea" y="30.334099"/>
    </g>
   </g>
   <g id="line2d_32">
    <path style="fill:none;stroke:#000080;stroke-linecap:square;stroke-width:1.5;"/>
    <g/>
   </g>
   <g id="line2d_33">
    <defs>
     <path d="M 0 1.5 
C 0.397805 1.5 0.77937 1.341951 1.06066 1.06066 
C 1.341951 0.77937 1.5 0.397805 1.5 0 
C 1.5 -0.397805 1.341951 -0.77937 1.06066 -1.06066 
C 0.77937 -1.341951 0.397805 -1.5 0 -1.5 
C -0.397805 -1.5 -0.77937 -1.341951 -1.06066 -1.06066 
C -1.341951 -0.77937 -1.5 -0.397805 -1.5 0 
C -1.5 0.397805 -1.341951 0.77937 -1.06066 1.06066 
C -0.77937 1.341951 -0.397805 1.5 0 1.5 
z
" id="md57f67ac0f" style="stroke:#ff00ff;"/>
    </defs>
    <g>
     <use style="fill:#ff00ff;stroke:#ff00ff;" x="167.275171" xlink:href="#md57f67ac0f" y="30.334099"/>
     <use style="fill:#ff00ff;stroke:#ff00ff;" x="167.275171" xlink:href="#md57f67ac0f" y="30.334099"/>
    </g>
   </g>
   <g id="line2d_34">
    <path d="M 29.53256 298.944 
L 29.53256 296.31057 
L 41.620548 296.31057 
L 41.620548 295.257197 
L 48.691568 295.257197 
L 48.691568 292.097081 
L 53.708537 292.097081 
L 53.708537 286.303534 
L 57.6 286.303534 
L 57.6 285.250162 
L 60.779557 285.250162 
L 60.779557 282.090045 
L 63.467834 282.090045 
L 63.467834 279.456615 
L 65.796525 279.456615 
L 65.796525 275.769812 
L 69.687988 275.769812 
L 69.687988 268.922893 
L 76.759008 268.922893 
L 76.759008 268.396207 
L 79.938565 268.396207 
L 79.938565 267.869521 
L 80.881459 267.869521 
L 80.881459 266.816149 
L 86.351421 266.816149 
L 86.351421 266.289463 
L 87.643811 266.289463 
L 87.643811 265.762777 
L 88.255778 265.762777 
L 88.255778 265.236091 
L 95.125186 265.236091 
L 95.125186 264.182719 
L 96.676366 264.182719 
L 96.676366 263.656033 
L 103.117741 263.656033 
L 103.117741 263.129347 
L 103.372333 263.129347 
L 103.372333 262.60266 
L 104.355088 262.60266 
L 104.355088 261.549288 
L 106.168594 261.549288 
L 106.168594 257.862486 
L 106.593963 257.862486 
L 106.593963 257.3358 
L 109.131511 257.3358 
L 109.131511 255.229055 
L 111.346294 255.229055 
L 111.346294 254.702369 
L 111.505558 254.702369 
L 111.505558 253.648997 
L 111.663381 253.648997 
L 111.663381 253.122311 
L 112.128456 253.122311 
L 112.128456 252.595625 
L 114.148479 252.595625 
L 114.148479 252.068939 
L 114.816733 252.068939 
L 114.816733 251.015567 
L 115.205729 251.015567 
L 115.205729 249.962195 
L 115.711251 249.962195 
L 115.711251 247.328764 
L 116.323218 247.328764 
L 116.323218 246.802078 
L 116.562116 246.802078 
L 116.562116 245.748706 
L 116.680349 245.748706 
L 116.680349 244.168648 
L 117.486268 244.168648 
L 117.486268 243.115275 
L 117.598418 243.115275 
L 117.598418 242.588589 
L 121.036887 242.588589 
L 121.036887 241.535217 
L 122.865118 241.535217 
L 122.865118 241.008531 
L 123.907776 241.008531 
L 123.907776 240.481845 
L 124.743806 240.481845 
L 124.743806 239.955159 
L 125.255688 239.955159 
L 125.255688 239.428473 
L 125.399222 239.428473 
L 125.399222 237.848415 
L 125.612332 237.848415 
L 125.612332 235.74167 
L 125.822869 235.74167 
L 125.822869 235.214984 
L 126.099688 235.214984 
L 126.099688 233.634926 
L 127.035353 233.634926 
L 127.035353 233.10824 
L 127.985095 233.10824 
L 127.985095 232.054868 
L 128.471239 232.054868 
L 128.471239 229.421437 
L 129.002426 229.421437 
L 129.002426 228.894751 
L 130.76994 228.894751 
L 130.76994 226.788007 
L 131.690703 226.788007 
L 131.690703 226.261321 
L 132.036046 226.261321 
L 132.036046 225.734635 
L 133.262014 225.734635 
L 133.262014 223.101204 
L 133.755823 223.101204 
L 133.755823 222.574518 
L 134.407429 222.574518 
L 134.450015 214.147541 
L 134.61933 214.147541 
L 134.61933 213.620855 
L 135.158519 213.620855 
L 135.158519 209.407366 
L 135.760625 209.407366 
L 135.760625 208.88068 
L 136.5324 208.88068 
L 136.5324 208.353994 
L 137.52291 208.353994 
L 137.52291 206.773936 
L 137.770782 206.773936 
L 137.770782 205.720564 
L 138.628343 205.720564 
L 138.628343 203.087133 
L 138.959898 203.087133 
L 138.959898 202.033761 
L 139.572998 202.033761 
L 139.572998 200.980389 
L 139.918342 200.980389 
L 139.918342 199.400331 
L 140.529237 199.400331 
L 140.529237 197.293586 
L 141.177393 197.293586 
L 141.177393 196.7669 
L 141.407239 196.7669 
L 141.407239 196.240214 
L 142.07914 196.240214 
L 142.07914 194.13347 
L 142.215919 194.13347 
L 142.270332 192.026726 
L 142.726112 192.026726 
L 142.831645 190.446667 
L 142.857929 190.446667 
L 142.857929 185.706493 
L 143.014805 185.706493 
L 143.014805 184.653121 
L 143.196061 184.653121 
L 143.196061 179.912946 
L 143.553018 179.912946 
L 143.553018 178.859574 
L 143.902815 178.859574 
L 143.902815 173.592713 
L 144.026061 173.592713 
L 144.026061 164.112363 
L 144.197155 164.112363 
L 144.221461 162.005619 
L 144.366588 162.005619 
L 144.366588 161.478933 
L 145.120836 161.478933 
L 145.143889 160.425561 
L 145.258697 160.425561 
L 145.258697 159.898875 
L 145.463466 159.898875 
L 145.463466 158.318817 
L 146.129168 158.318817 
L 146.129168 157.265444 
L 147.041095 157.265444 
L 147.041095 155.685386 
L 147.570215 155.685386 
L 147.630247 150.418525 
L 148.27731 150.418525 
L 148.27731 148.838467 
L 149.214124 148.838467 
L 149.214124 146.205037 
L 149.717561 146.205037 
L 149.717561 144.624978 
L 150.016276 144.624978 
L 150.016276 143.571606 
L 150.241302 143.571606 
L 150.258492 141.464862 
L 150.783149 141.464862 
L 150.783149 140.938176 
L 151.0643 140.938176 
L 151.1298 135.671315 
L 151.357131 135.671315 
L 151.437608 134.617943 
L 151.99078 134.617943 
L 152.021866 129.877768 
L 152.707042 129.877768 
L 152.707042 128.824396 
L 152.973748 128.824396 
L 152.973748 128.29771 
L 153.380683 128.29771 
L 153.380683 127.771024 
L 153.495227 127.771024 
L 153.495227 127.244338 
L 153.890309 127.244338 
L 153.890309 125.66428 
L 154.959044 125.66428 
L 154.959044 123.557535 
L 155.386785 123.557535 
L 155.437927 120.397419 
L 155.953659 120.397419 
L 155.953659 115.657244 
L 156.187581 115.657244 
L 156.187581 115.130558 
L 156.32159 115.130558 
L 156.357959 113.023814 
L 156.49067 113.023814 
L 156.586556 107.756953 
L 156.964915 107.756953 
L 156.964915 105.123522 
L 157.506157 105.123522 
L 157.60791 101.43672 
L 157.953917 101.43672 
L 157.953917 99.329976 
L 158.497919 99.329976 
L 158.497919 98.276603 
L 158.647247 98.276603 
L 158.689678 96.696545 
L 159.108409 96.696545 
L 159.211539 93.536429 
L 159.3651 93.536429 
L 159.3651 90.376312 
L 159.946463 90.376312 
L 159.995685 80.895963 
L 160.191194 80.895963 
L 160.191194 79.315904 
L 160.451703 79.315904 
L 160.451703 78.262532 
L 160.623238 78.262532 
L 160.623238 77.735846 
L 160.905434 77.735846 
L 160.942717 72.468985 
L 161.274728 72.468985 
L 161.338558 70.888927 
L 161.393084 70.888927 
L 161.420284 65.622066 
L 161.636364 65.622066 
L 161.636364 62.988636 
L 161.88512 62.988636 
L 161.88512 61.935264 
L 162.534461 61.935264 
L 162.593851 58.775147 
L 162.669913 58.775147 
L 162.669913 57.721775 
L 162.787576 57.721775 
L 162.787576 56.141717 
L 163.16049 56.141717 
L 163.16049 55.615031 
L 163.645619 55.615031 
L 163.645619 50.874856 
L 164.063205 50.874856 
L 164.063205 46.661368 
L 164.233648 46.661368 
L 164.287532 42.974565 
L 164.356568 42.974565 
L 164.448194 39.814448 
L 164.824867 39.814448 
L 164.824867 39.287762 
L 165.324425 39.287762 
L 165.432722 35.60096 
L 165.633093 35.60096 
L 165.633093 35.074274 
L 166.371448 35.074274 
L 166.473452 32.967529 
L 167.145172 32.967529 
L 167.145172 31.387471 
L 167.275171 31.387471 
L 167.275171 30.334099 
L 338.688 30.334099 
L 338.688 30.334099 
" style="fill:none;stroke:#ff00ff;stroke-linecap:square;stroke-width:1.5;"/>
   </g>
   <g id="line2d_35">
    <defs>
     <path d="M 0 8.485281 
L 5.091169 0 
L 0 -8.485281 
L -5.091169 0 
z
" id="m8783d218a2" style="stroke:#ff00ff;stroke-linejoin:miter;stroke-width:1.5;"/>
    </defs>
    <g>
     <use style="fill-opacity:0;stroke:#ff00ff;stroke-linejoin:miter;stroke-width:1.5;" x="125.255688" xlink:href="#m8783d218a2" y="239.428473"/>
     <use style="fill-opacity:0;stroke:#ff00ff;stroke-linejoin:miter;stroke-width:1.5;" x="155.953659" xlink:href="#m8783d218a2" y="115.657244"/>
     <use style="fill-opacity:0;stroke:#ff00ff;stroke-linejoin:miter;stroke-width:1.5;" x="167.275171" xlink:href="#m8783d218a2" y="31.387471"/>
     <use style="fill-opacity:0;stroke:#ff00ff;stroke-linejoin:miter;stroke-width:1.5;" x="167.275171" xlink:href="#m8783d218a2" y="30.334099"/>
     <use style="fill-opacity:0;stroke:#ff00ff;stroke-linejoin:miter;stroke-width:1.5;" x="167.275171" xlink:href="#m8783d218a2" y="30.334099"/>
     <use style="fill-opacity:0;stroke:#ff00ff;stroke-linejoin:miter;stroke-width:1.5;" x="338.688" xlink:href="#m8783d218a2" y="30.334099"/>
    </g>
   </g>
   <g id="line2d_36">
    <path style="fill:none;stroke:#ff00ff;stroke-linecap:square;stroke-width:1.5;"/>
    <g/>
   </g>
   <g id="line2d_37">
    <defs>
     <path d="M 0 1.5 
C 0.397805 1.5 0.77937 1.341951 1.06066 1.06066 
C 1.341951 0.77937 1.5 0.397805 1.5 0 
C 1.5 -0.397805 1.341951 -0.77937 1.06066 -1.06066 
C 0.77937 -1.341951 0.397805 -1.5 0 -1.5 
C -0.397805 -1.5 -0.77937 -1.341951 -1.06066 -1.06066 
C -1.341951 -0.77937 -1.5 -0.397805 -1.5 0 
C -1.5 0.397805 -1.341951 0.77937 -1.06066 1.06066 
C -0.77937 1.341951 -0.397805 1.5 0 1.5 
z
" id="m36be288724" style="stroke:#ff7500;"/>
    </defs>
    <g>
     <use style="fill:#ff7500;stroke:#ff7500;" x="294.395905" xlink:href="#m36be288724" y="88.269568"/>
     <use style="fill:#ff7500;stroke:#ff7500;" x="294.395905" xlink:href="#m36be288724" y="88.269568"/>
    </g>
   </g>
   <g id="line2d_38">
    <path d="M 29.53256 298.944 
L 29.53256 296.31057 
L 41.620548 296.31057 
L 41.620548 292.097081 
L 48.691568 292.097081 
L 48.691568 291.043709 
L 53.708537 291.043709 
L 53.708537 289.990337 
L 57.6 289.990337 
L 57.6 287.883592 
L 60.779557 287.883592 
L 60.779557 285.776848 
L 63.467834 285.776848 
L 63.467834 284.19679 
L 65.796525 284.19679 
L 65.796525 281.036673 
L 67.850577 281.036673 
L 67.850577 280.509987 
L 69.687988 280.509987 
L 69.687988 278.403243 
L 71.35013 278.403243 
L 71.35013 277.876557 
L 77.884514 277.876557 
L 77.884514 277.349871 
L 81.775977 277.349871 
L 81.775977 276.823185 
L 82.626842 276.823185 
L 82.626842 275.769812 
L 84.213325 275.769812 
L 84.213325 274.71644 
L 85.66744 274.71644 
L 85.66744 273.663068 
L 87.009585 273.663068 
L 87.009585 271.556324 
L 89.418828 271.556324 
L 89.418828 271.029638 
L 91.029752 271.029638 
L 91.029752 270.502952 
L 91.535274 270.502952 
L 91.535274 268.922893 
L 93.422441 268.922893 
L 93.422441 268.396207 
L 95.526106 268.396207 
L 95.526106 266.816149 
L 95.918017 266.816149 
L 95.918017 265.236091 
L 97.755429 265.236091 
L 97.755429 263.656033 
L 98.100772 263.656033 
L 98.100772 263.129347 
L 98.43941 263.129347 
L 98.43941 262.60266 
L 101.506816 262.60266 
L 101.506816 261.549288 
L 103.372333 261.549288 
L 103.372333 260.495916 
L 106.382575 260.495916 
L 106.382575 259.96923 
L 107.614095 259.96923 
L 107.614095 258.915858 
L 110.694282 258.915858 
L 110.694282 258.389172 
L 112.128456 258.389172 
L 112.128456 256.282427 
L 113.594805 256.282427 
L 113.594805 255.755741 
L 113.73488 255.755741 
L 113.73488 254.702369 
L 115.835374 254.702369 
L 115.835374 252.595625 
L 117.373392 252.595625 
L 117.373392 252.068939 
L 119.199476 252.068939 
L 119.199476 251.015567 
L 125.961828 251.015567 
L 125.961828 250.488881 
L 127.035353 250.488881 
L 127.035353 249.962195 
L 128.168991 249.962195 
L 128.168991 249.435508 
L 131.236397 249.435508 
L 131.236397 248.382136 
L 137.629572 248.382136 
L 137.629572 247.85545 
L 140.973763 247.85545 
L 140.973763 247.328764 
L 141.492656 247.328764 
L 141.492656 246.802078 
L 143.628567 246.802078 
L 143.628567 246.275392 
L 144.148442 246.275392 
L 144.148442 245.748706 
L 144.294175 245.748706 
L 144.294175 244.168648 
L 147.4697 244.168648 
L 147.4697 243.641962 
L 147.650212 243.641962 
L 147.650212 243.115275 
L 150.309961 243.115275 
L 150.309961 242.588589 
L 150.66605 242.588589 
L 150.66605 242.061903 
L 152.299175 242.061903 
L 152.299175 241.535217 
L 154.153391 241.535217 
L 154.153391 239.955159 
L 155.296925 239.955159 
L 155.296925 239.428473 
L 155.841748 239.428473 
L 155.841748 238.901787 
L 156.027868 238.901787 
L 156.027868 238.375101 
L 156.658127 238.375101 
L 156.658127 234.688298 
L 157.139484 234.688298 
L 157.139484 234.161612 
L 157.335239 234.161612 
L 157.335239 233.634926 
L 158.583406 233.634926 
L 158.583406 233.10824 
L 159.985851 233.10824 
L 160.015335 226.261321 
L 160.613753 226.261321 
L 160.613753 224.154577 
L 160.783709 224.154577 
L 160.783709 223.627891 
L 162.432178 223.627891 
L 162.432178 223.101204 
L 163.477355 223.101204 
L 163.477355 222.574518 
L 165.59035 222.574518 
L 165.59035 222.047832 
L 166.822518 222.047832 
L 166.822518 218.36103 
L 167.576907 218.36103 
L 167.576907 217.307658 
L 172.034451 217.307658 
L 172.044307 214.147541 
L 174.50306 214.147541 
L 174.50306 213.620855 
L 177.042792 213.620855 
L 177.042792 213.094169 
L 178.730133 213.094169 
L 178.730133 212.567483 
L 179.718912 212.567483 
L 179.718912 210.987425 
L 182.515172 210.987425 
L 182.515172 210.460738 
L 183.991326 210.460738 
L 183.991326 209.934052 
L 185.32234 209.934052 
L 185.32234 208.88068 
L 186.032405 208.88068 
L 186.032405 208.353994 
L 186.509567 208.353994 
L 186.509567 207.827308 
L 188.503814 207.827308 
L 188.503814 207.300622 
L 189.27627 207.300622 
L 189.27627 203.613819 
L 189.570871 203.613819 
L 189.570871 202.033761 
L 191.391144 202.033761 
L 191.391144 201.507075 
L 195.766123 201.507075 
L 195.766123 198.873645 
L 196.724046 198.873645 
L 196.724046 194.13347 
L 198.722837 194.13347 
L 198.722837 192.026726 
L 199.540901 192.026726 
L 199.540901 189.919981 
L 200.73404 189.919981 
L 200.73404 188.339923 
L 200.875127 188.339923 
L 200.875127 187.813237 
L 202.378627 187.813237 
L 202.378627 185.179807 
L 203.801048 185.179807 
L 203.801048 184.126434 
L 206.403678 184.126434 
L 206.403678 183.599748 
L 209.702454 183.599748 
L 209.702454 182.01969 
L 211.039777 182.01969 
L 211.039777 180.966318 
L 212.642368 180.966318 
L 212.642368 179.912946 
L 216.052533 179.912946 
L 216.052533 174.119399 
L 216.26414 174.119399 
L 216.26414 173.592713 
L 218.8294 173.592713 
L 218.8294 171.485969 
L 221.305383 171.485969 
L 221.305383 170.959282 
L 222.682758 170.959282 
L 222.682758 170.432596 
L 223.154335 170.432596 
L 223.154335 169.90591 
L 223.359467 169.90591 
L 223.359467 169.379224 
L 223.671771 169.379224 
L 223.671771 168.325852 
L 224.128618 168.325852 
L 224.128618 167.799166 
L 224.549312 167.799166 
L 224.549312 167.27248 
L 229.258817 167.27248 
L 229.258817 162.532305 
L 230.616192 162.532305 
L 230.616192 162.005619 
L 232.949831 162.005619 
L 232.949831 160.952247 
L 233.067101 160.952247 
L 233.067101 160.425561 
L 233.246774 160.425561 
L 233.246774 159.898875 
L 234.97573 159.898875 
L 234.97573 158.845503 
L 236.687215 158.845503 
L 236.687215 157.79213 
L 237.585646 157.79213 
L 237.585646 156.738758 
L 239.184444 156.738758 
L 239.184444 155.685386 
L 240.625748 155.685386 
L 240.625748 155.1587 
L 241.880163 155.1587 
L 241.880163 151.471897 
L 242.551609 151.471897 
L 242.551609 150.418525 
L 244.20744 150.418525 
L 244.20744 149.891839 
L 245.876368 149.891839 
L 245.876368 144.624978 
L 246.412397 144.624978 
L 246.412397 143.04492 
L 249.125404 143.04492 
L 249.125404 140.938176 
L 249.571474 140.938176 
L 249.571474 140.41149 
L 251.863141 140.41149 
L 251.863141 136.198001 
L 254.228835 136.198001 
L 254.228835 131.984513 
L 256.311613 131.984513 
L 256.311613 128.29771 
L 258.171971 128.29771 
L 258.171971 123.557535 
L 258.438873 123.557535 
L 258.438873 123.030849 
L 259.852864 123.030849 
L 259.852864 117.763988 
L 260.095411 117.763988 
L 260.095411 117.237302 
L 261.385891 117.237302 
L 261.385891 116.18393 
L 262.794977 116.18393 
L 262.794977 113.5505 
L 263.000091 113.5505 
L 263.000091 113.023814 
L 264.098672 113.023814 
L 264.098672 110.390383 
L 265.31165 110.390383 
L 265.31165 109.337011 
L 265.489341 109.337011 
L 265.489341 108.810325 
L 266.445719 108.810325 
L 266.445719 107.230267 
L 267.510521 107.230267 
L 267.510521 106.176895 
L 268.514033 106.176895 
L 268.514033 104.596836 
L 269.462929 104.596836 
L 269.462929 103.543464 
L 270.362847 103.543464 
L 270.362847 102.490092 
L 271.218597 102.490092 
L 271.218597 100.910034 
L 272.034311 100.910034 
L 272.034311 100.383348 
L 272.81357 100.383348 
L 272.81357 98.803289 
L 273.559493 98.803289 
L 273.559493 97.749917 
L 274.274815 97.749917 
L 274.274815 97.223231 
L 274.961949 97.223231 
L 274.961949 96.169859 
L 275.623031 96.169859 
L 275.623031 95.643173 
L 278.042061 95.643173 
L 278.042061 94.589801 
L 278.597799 94.589801 
L 278.597799 93.009743 
L 279.658812 93.009743 
L 279.658812 92.483056 
L 280.658958 92.483056 
L 280.658958 91.95637 
L 281.138312 91.95637 
L 281.138312 91.429684 
L 283.355353 91.429684 
L 283.355353 90.902998 
L 284.94607 90.902998 
L 284.94607 90.376312 
L 285.322068 90.376312 
L 285.322068 89.849626 
L 290.442599 89.849626 
L 290.442599 88.796254 
L 294.395905 88.796254 
L 294.395905 88.269568 
L 338.688 88.269568 
L 338.688 88.269568 
" style="fill:none;stroke:#ff7500;stroke-linecap:square;stroke-width:1.5;"/>
   </g>
   <g id="line2d_39">
    <defs>
     <path d="M 0 -6 
L -1.347084 -1.854102 
L -5.706339 -1.854102 
L -2.179628 0.708204 
L -3.526712 4.854102 
L -0 2.291796 
L 3.526712 4.854102 
L 2.179628 0.708204 
L 5.706339 -1.854102 
L 1.347084 -1.854102 
z
" id="m5fa603c902" style="stroke:#ff7500;stroke-linejoin:bevel;stroke-width:1.5;"/>
    </defs>
    <g>
     <use style="fill-opacity:0;stroke:#ff7500;stroke-linejoin:bevel;stroke-width:1.5;" x="82.626842" xlink:href="#m5fa603c902" y="276.823185"/>
     <use style="fill-opacity:0;stroke:#ff7500;stroke-linejoin:bevel;stroke-width:1.5;" x="160.783709" xlink:href="#m5fa603c902" y="224.154577"/>
     <use style="fill-opacity:0;stroke:#ff7500;stroke-linejoin:bevel;stroke-width:1.5;" x="224.549312" xlink:href="#m5fa603c902" y="167.27248"/>
     <use style="fill-opacity:0;stroke:#ff7500;stroke-linejoin:bevel;stroke-width:1.5;" x="294.395905" xlink:href="#m5fa603c902" y="88.796254"/>
     <use style="fill-opacity:0;stroke:#ff7500;stroke-linejoin:bevel;stroke-width:1.5;" x="294.395905" xlink:href="#m5fa603c902" y="88.269568"/>
     <use style="fill-opacity:0;stroke:#ff7500;stroke-linejoin:bevel;stroke-width:1.5;" x="338.688" xlink:href="#m5fa603c902" y="88.269568"/>
    </g>
   </g>
   <g id="line2d_40">
    <path style="fill:none;stroke:#ff7500;stroke-linecap:square;stroke-width:1.5;"/>
    <g/>
   </g>
   <g id="line2d_41">
    <path clip-path="url(#p03ead9d33a)" d="M 218.221714 173.592713 
" style="fill:none;stroke:#ff7500;stroke-linecap:square;stroke-width:1.5;"/>
    <defs>
     <path d="M -12 12 
L 12 -12 
M -12 -12 
L 12 12 
" id="ma4c21c1838" style="stroke:#ff7500;"/>
    </defs>
    <g clip-path="url(#p03ead9d33a)">
     <use style="fill:#ff7500;stroke:#ff7500;" x="218.221714" xlink:href="#ma4c21c1838" y="173.592713"/>
    </g>
   </g>
   <g id="line2d_42">
    <defs>
     <path d="M 0 1.5 
C 0.397805 1.5 0.77937 1.341951 1.06066 1.06066 
C 1.341951 0.77937 1.5 0.397805 1.5 0 
C 1.5 -0.397805 1.341951 -0.77937 1.06066 -1.06066 
C 0.77937 -1.341951 0.397805 -1.5 0 -1.5 
C -0.397805 -1.5 -0.77937 -1.341951 -1.06066 -1.06066 
C -1.341951 -0.77937 -1.5 -0.397805 -1.5 0 
C -1.5 0.397805 -1.341951 0.77937 -1.06066 1.06066 
C -0.77937 1.341951 -0.397805 1.5 0 1.5 
z
" id="ma2773f75e6" style="stroke:#6495ed;"/>
    </defs>
    <g>
     <use style="fill:#6495ed;stroke:#6495ed;" x="208.9663" xlink:href="#ma2773f75e6" y="67.202125"/>
     <use style="fill:#6495ed;stroke:#6495ed;" x="208.9663" xlink:href="#ma2773f75e6" y="67.202125"/>
    </g>
   </g>
   <g id="line2d_43">
    <path d="M 29.53256 298.944 
L 29.53256 295.783884 
L 41.620548 295.783884 
L 41.620548 293.150453 
L 48.691568 293.150453 
L 48.691568 290.517023 
L 53.708537 290.517023 
L 53.708537 288.410278 
L 57.6 288.410278 
L 57.6 285.776848 
L 60.779557 285.776848 
L 60.779557 283.143418 
L 63.467834 283.143418 
L 63.467834 279.456615 
L 67.850577 279.456615 
L 67.850577 278.929929 
L 71.35013 278.929929 
L 71.35013 275.769812 
L 74.263433 275.769812 
L 74.263433 273.136382 
L 76.759008 273.136382 
L 76.759008 272.609696 
L 80.881459 272.609696 
L 80.881459 271.556324 
L 81.775977 271.556324 
L 81.775977 271.029638 
L 82.626842 271.029638 
L 82.626842 269.976266 
L 83.438118 269.976266 
L 83.438118 268.396207 
L 86.351421 268.396207 
L 86.351421 266.816149 
L 87.643811 266.816149 
L 87.643811 266.289463 
L 88.255778 266.289463 
L 88.255778 263.129347 
L 90.509138 263.129347 
L 90.509138 261.549288 
L 91.029752 261.549288 
L 91.029752 259.96923 
L 92.026554 259.96923 
L 92.026554 258.915858 
L 92.504372 258.915858 
L 92.504372 257.862486 
L 92.969447 257.862486 
L 92.969447 255.755741 
L 95.125186 255.755741 
L 95.125186 255.229055 
L 96.676366 255.229055 
L 96.676366 254.175683 
L 102.597126 254.175683 
L 102.597126 253.648997 
L 102.859376 253.648997 
L 102.859376 253.122311 
L 104.355088 253.122311 
L 104.355088 252.595625 
L 104.826449 252.595625 
L 104.826449 251.542253 
L 105.057436 251.542253 
L 105.057436 249.962195 
L 106.382575 249.962195 
L 106.382575 249.435508 
L 107.811151 249.435508 
L 107.811151 248.908822 
L 108.389302 248.908822 
L 108.389302 248.382136 
L 109.31223 248.382136 
L 109.31223 247.85545 
L 109.491096 247.85545 
L 109.491096 247.328764 
L 110.188761 247.328764 
L 110.188761 246.802078 
L 111.023335 246.802078 
L 111.023335 246.275392 
L 111.346294 246.275392 
L 111.346294 245.748706 
L 111.974805 245.748706 
L 111.974805 244.695334 
L 112.72987 244.695334 
L 112.72987 244.168648 
L 114.0117 244.168648 
L 114.0117 242.061903 
L 114.816733 242.061903 
L 114.816733 239.955159 
L 116.443076 239.955159 
L 116.443076 239.428473 
L 116.562116 239.428473 
L 116.562116 238.901787 
L 116.914437 238.901787 
L 116.914437 231.001496 
L 117.259781 231.001496 
L 117.259781 229.948123 
L 117.373392 229.948123 
L 117.373392 229.421437 
L 120.665825 229.421437 
L 120.665825 224.681263 
L 121.84399 224.681263 
L 121.84399 224.154577 
L 122.947573 224.154577 
L 122.947573 222.047832 
L 123.514096 222.047832 
L 123.593547 219.941088 
L 123.672636 219.941088 
L 123.751369 218.36103 
L 124.891598 218.36103 
L 124.891598 213.094169 
L 125.183475 213.094169 
L 125.183475 212.567483 
L 125.327602 212.567483 
L 125.327602 211.514111 
L 125.541584 211.514111 
L 125.541584 210.987425 
L 125.752972 210.987425 
L 125.752972 210.460738 
L 126.304457 210.460738 
L 126.372183 206.24725 
L 126.439646 206.24725 
L 126.50685 203.087133 
L 126.573795 203.087133 
L 126.640485 197.293586 
L 126.70692 197.293586 
L 126.70692 194.13347 
L 126.839037 194.13347 
L 126.839037 193.606784 
L 127.229484 193.606784 
L 127.229484 190.973354 
L 129.686407 190.973354 
L 129.686407 190.446667 
L 130.398313 190.446667 
L 130.398313 189.919981 
L 132.374684 189.919981 
L 132.374684 189.393295 
L 134.149701 189.393295 
L 134.149701 188.339923 
L 134.279041 188.339923 
L 134.279041 187.286551 
L 134.407429 187.286551 
L 134.407429 184.126434 
L 134.534878 184.126434 
L 134.534878 182.546376 
L 134.661403 182.546376 
L 134.661403 182.01969 
L 141.292695 182.01969 
L 141.292695 181.493004 
L 142.024126 181.493004 
L 142.024126 179.38626 
L 142.486301 179.38626 
L 142.486301 172.539341 
L 143.42637 172.539341 
L 143.42637 170.432596 
L 144.026061 170.432596 
L 144.075117 167.27248 
L 144.318346 167.27248 
L 144.318346 166.745794 
L 144.676946 166.745794 
L 144.676946 163.058991 
L 144.888619 163.058991 
L 144.888619 162.532305 
L 145.166911 162.532305 
L 145.235796 156.212072 
L 145.281568 156.212072 
L 145.281568 152.52527 
L 145.463466 152.52527 
L 145.463466 151.471897 
L 148.334961 151.471897 
L 148.392421 148.838467 
L 152.176471 148.838467 
L 152.176471 148.311781 
L 152.39064 148.311781 
L 152.436193 146.731723 
L 152.973748 146.731723 
L 152.973748 145.678351 
L 153.163864 145.678351 
L 153.163864 145.151665 
L 153.351929 145.151665 
L 153.351929 144.098292 
L 153.707991 144.098292 
L 153.764292 138.831432 
L 154.001564 138.831432 
L 154.043103 135.671315 
L 154.180855 135.671315 
L 154.180855 135.144629 
L 154.880133 135.144629 
L 154.880133 134.617943 
L 155.94126 134.617943 
L 156.015522 130.93114 
L 158.551397 130.93114 
L 158.551397 130.404454 
L 158.732007 130.404454 
L 158.732007 128.29771 
L 159.375289 128.29771 
L 159.375289 127.771024 
L 159.867418 127.771024 
L 159.887213 124.610907 
L 161.21983 124.610907 
L 161.302112 118.817361 
L 163.209614 118.817361 
L 163.209614 117.763988 
L 163.348054 117.763988 
L 163.348054 115.130558 
L 163.741046 115.130558 
L 163.741046 114.603872 
L 164.039833 114.603872 
L 164.039833 114.077186 
L 164.202782 114.077186 
L 164.241356 111.443755 
L 165.288176 111.443755 
L 165.35337 108.810325 
L 166.88223 108.810325 
L 166.88223 108.283639 
L 167.557803 108.283639 
L 167.557803 107.756953 
L 167.691097 107.756953 
L 167.710056 106.703581 
L 168.584667 106.703581 
L 168.638649 103.543464 
L 170.505381 103.543464 
L 170.596616 102.490092 
L 170.623359 102.490092 
L 170.623359 101.963406 
L 171.386711 101.963406 
L 171.402051 99.329976 
L 172.871698 99.329976 
L 172.871698 98.803289 
L 172.988756 98.803289 
L 173.007413 97.749917 
L 173.100398 97.749917 
L 173.100398 97.223231 
L 173.773496 97.223231 
L 173.786875 95.643173 
L 175.264868 95.643173 
L 175.264868 95.116487 
L 175.872598 95.116487 
L 175.872598 93.536429 
L 177.123974 93.536429 
L 177.212107 92.483056 
L 177.745967 92.483056 
L 177.745967 91.95637 
L 178.953652 91.95637 
L 178.953652 91.429684 
L 179.437472 91.429684 
L 179.437472 89.32294 
L 180.979321 89.32294 
L 180.988172 86.162824 
L 181.988415 86.162824 
L 181.988415 85.636137 
L 182.395855 85.636137 
L 182.395855 84.582765 
L 183.039601 84.582765 
L 183.039601 84.056079 
L 183.32829 84.056079 
L 183.333449 83.002707 
L 183.705922 83.002707 
L 183.705922 81.422649 
L 186.063302 81.422649 
L 186.063302 80.895963 
L 187.132351 80.895963 
L 187.132351 79.842591 
L 188.139635 79.842591 
L 188.139635 78.789218 
L 189.091901 78.789218 
L 189.091901 78.262532 
L 189.732414 78.262532 
L 189.732414 77.735846 
L 189.99485 77.735846 
L 189.99485 77.20916 
L 190.85334 77.20916 
L 190.85334 76.682474 
L 193.918315 76.682474 
L 193.918315 75.629102 
L 194.607214 75.629102 
L 194.607214 74.049044 
L 195.269931 74.049044 
L 195.269931 73.522358 
L 197.119174 73.522358 
L 197.119174 72.995672 
L 198.790989 72.995672 
L 198.790989 72.468985 
L 199.82265 72.468985 
L 199.82265 71.415613 
L 200.796675 71.415613 
L 200.796675 70.888927 
L 202.595298 70.888927 
L 202.595298 69.835555 
L 206.070131 69.835555 
L 206.070131 69.308869 
L 207.089905 69.308869 
L 207.089905 68.255497 
L 207.416995 68.255497 
L 207.416995 67.728811 
L 208.9663 67.728811 
L 208.9663 67.202125 
L 338.688 67.202125 
L 338.688 67.202125 
" style="fill:none;stroke:#6495ed;stroke-linecap:square;stroke-width:1.5;"/>
   </g>
   <g id="line2d_44">
    <defs>
     <path d="M -0 6 
L 6 -6 
L -6 -6 
z
" id="mcd65e23ea5" style="stroke:#6495ed;stroke-linejoin:miter;stroke-width:1.5;"/>
    </defs>
    <g>
     <use style="fill-opacity:0;stroke:#6495ed;stroke-linejoin:miter;stroke-width:1.5;" x="96.676366" xlink:href="#mcd65e23ea5" y="255.229055"/>
     <use style="fill-opacity:0;stroke:#6495ed;stroke-linejoin:miter;stroke-width:1.5;" x="142.024126" xlink:href="#mcd65e23ea5" y="179.38626"/>
     <use style="fill-opacity:0;stroke:#6495ed;stroke-linejoin:miter;stroke-width:1.5;" x="195.269931" xlink:href="#mcd65e23ea5" y="73.522358"/>
     <use style="fill-opacity:0;stroke:#6495ed;stroke-linejoin:miter;stroke-width:1.5;" x="208.9663" xlink:href="#mcd65e23ea5" y="67.202125"/>
     <use style="fill-opacity:0;stroke:#6495ed;stroke-linejoin:miter;stroke-width:1.5;" x="208.9663" xlink:href="#mcd65e23ea5" y="67.202125"/>
     <use style="fill-opacity:0;stroke:#6495ed;stroke-linejoin:miter;stroke-width:1.5;" x="338.688" xlink:href="#mcd65e23ea5" y="67.202125"/>
    </g>
   </g>
   <g id="line2d_45">
    <path style="fill:none;stroke:#6495ed;stroke-linecap:square;stroke-width:1.5;"/>
    <g/>
   </g>
   <g id="line2d_46">
    <path clip-path="url(#p03ead9d33a)" d="M 137.910857 182.01969 
" style="fill:none;stroke:#6495ed;stroke-linecap:square;stroke-width:1.5;"/>
    <defs>
     <path d="M -12 12 
L 12 -12 
M -12 -12 
L 12 12 
" id="mfecbb0434a" style="stroke:#6495ed;"/>
    </defs>
    <g clip-path="url(#p03ead9d33a)">
     <use style="fill:#6495ed;stroke:#6495ed;" x="137.910857" xlink:href="#mfecbb0434a" y="182.01969"/>
    </g>
   </g>
   <g id="line2d_47">
    <path d="M 338.688 88.269568 
L 369.60768 293.571802 
" style="fill:none;stroke:#ff7500;stroke-linecap:square;stroke-width:1.5;"/>
    <g>
     <use style="fill-opacity:0;stroke:#ff7500;stroke-linejoin:bevel;stroke-width:1.5;" x="338.688" xlink:href="#m5fa603c902" y="88.269568"/>
     <use style="fill-opacity:0;stroke:#ff7500;stroke-linejoin:bevel;stroke-width:1.5;" x="369.60768" xlink:href="#m5fa603c902" y="293.571802"/>
    </g>
   </g>
   <g id="line2d_48">
    <path d="M 338.688 67.202125 
L 369.60768 207.616634 
" style="fill:none;stroke:#6495ed;stroke-linecap:square;stroke-width:1.5;"/>
    <g>
     <use style="fill-opacity:0;stroke:#6495ed;stroke-linejoin:miter;stroke-width:1.5;" x="338.688" xlink:href="#mcd65e23ea5" y="67.202125"/>
     <use style="fill-opacity:0;stroke:#6495ed;stroke-linejoin:miter;stroke-width:1.5;" x="369.60768" xlink:href="#mcd65e23ea5" y="207.616634"/>
    </g>
   </g>
   <g id="line2d_49">
    <path d="M 338.688 30.334099 
L 369.60768 121.661465 
" style="fill:none;stroke:#ff00ff;stroke-linecap:square;stroke-width:1.5;"/>
    <g>
     <use style="fill-opacity:0;stroke:#ff00ff;stroke-linejoin:miter;stroke-width:1.5;" x="338.688" xlink:href="#m8783d218a2" y="30.334099"/>
     <use style="fill-opacity:0;stroke:#ff00ff;stroke-linejoin:miter;stroke-width:1.5;" x="369.60768" xlink:href="#m8783d218a2" y="121.661465"/>
    </g>
   </g>
   <g id="line2d_50">
    <path d="M 338.688 30.334099 
L 369.60768 35.706297 
" style="fill:none;stroke:#000080;stroke-linecap:square;stroke-width:1.5;"/>
    <g>
     <use style="fill-opacity:0;stroke:#000080;stroke-width:1.5;" x="338.688" xlink:href="#m3aea67f2ea" y="30.334099"/>
     <use style="fill-opacity:0;stroke:#000080;stroke-width:1.5;" x="369.60768" xlink:href="#m3aea67f2ea" y="35.706297"/>
    </g>
   </g>
   <g id="line2d_51">
    <path d="M 338.688 298.944 
L 338.688 30.334099 
" style="fill:none;stroke:#000000;stroke-linecap:square;stroke-width:1.5;"/>
   </g>
   <g id="patch_3">
    <path d="M 57.6 298.944 
L 57.6 27.648 
" style="fill:none;stroke:#000000;stroke-linecap:square;stroke-linejoin:miter;stroke-width:0.8;"/>
   </g>
   <g id="patch_4">
    <path d="M 338.688 298.944 
L 338.688 27.648 
" style="fill:none;stroke:#000000;stroke-linecap:square;stroke-linejoin:miter;stroke-width:0.8;"/>
   </g>
   <g id="patch_5">
    <path d="M 57.6 298.944 
L 338.688 298.944 
" style="fill:none;stroke:#000000;stroke-linecap:square;stroke-linejoin:miter;stroke-width:0.8;"/>
   </g>
   <g id="patch_6">
    <path d="M 57.6 27.648 
L 338.688 27.648 
" style="fill:none;stroke:#000000;stroke-linecap:square;stroke-linejoin:miter;stroke-width:0.8;"/>
   </g>
   <g id="text_13">
    <!-- RANDOMSEA -->
    <g transform="translate(375.22944 298.262739)scale(0.17 -0.17)">
     <defs>
      <path d="M 2841 2188 
Q 3044 2119 3236 1894 
Q 3428 1669 3622 1275 
L 4263 0 
L 3584 0 
L 2988 1197 
Q 2756 1666 2539 1819 
Q 2322 1972 1947 1972 
L 1259 1972 
L 1259 0 
L 628 0 
L 628 4666 
L 2053 4666 
Q 2853 4666 3247 4331 
Q 3641 3997 3641 3322 
Q 3641 2881 3436 2590 
Q 3231 2300 2841 2188 
z
M 1259 4147 
L 1259 2491 
L 2053 2491 
Q 2509 2491 2742 2702 
Q 2975 2913 2975 3322 
Q 2975 3731 2742 3939 
Q 2509 4147 2053 4147 
L 1259 4147 
z
" id="DejaVuSans-52" transform="scale(0.015625)"/>
      <path d="M 2188 4044 
L 1331 1722 
L 3047 1722 
L 2188 4044 
z
M 1831 4666 
L 2547 4666 
L 4325 0 
L 3669 0 
L 3244 1197 
L 1141 1197 
L 716 0 
L 50 0 
L 1831 4666 
z
" id="DejaVuSans-41" transform="scale(0.015625)"/>
      <path d="M 628 4666 
L 1478 4666 
L 3547 763 
L 3547 4666 
L 4159 4666 
L 4159 0 
L 3309 0 
L 1241 3903 
L 1241 0 
L 628 0 
L 628 4666 
z
" id="DejaVuSans-4e" transform="scale(0.015625)"/>
      <path d="M 1259 4147 
L 1259 519 
L 2022 519 
Q 2988 519 3436 956 
Q 3884 1394 3884 2338 
Q 3884 3275 3436 3711 
Q 2988 4147 2022 4147 
L 1259 4147 
z
M 628 4666 
L 1925 4666 
Q 3281 4666 3915 4102 
Q 4550 3538 4550 2338 
Q 4550 1131 3912 565 
Q 3275 0 1925 0 
L 628 0 
L 628 4666 
z
" id="DejaVuSans-44" transform="scale(0.015625)"/>
      <path d="M 2522 4238 
Q 1834 4238 1429 3725 
Q 1025 3213 1025 2328 
Q 1025 1447 1429 934 
Q 1834 422 2522 422 
Q 3209 422 3611 934 
Q 4013 1447 4013 2328 
Q 4013 3213 3611 3725 
Q 3209 4238 2522 4238 
z
M 2522 4750 
Q 3503 4750 4090 4092 
Q 4678 3434 4678 2328 
Q 4678 1225 4090 567 
Q 3503 -91 2522 -91 
Q 1538 -91 948 565 
Q 359 1222 359 2328 
Q 359 3434 948 4092 
Q 1538 4750 2522 4750 
z
" id="DejaVuSans-4f" transform="scale(0.015625)"/>
      <path d="M 628 4666 
L 1569 4666 
L 2759 1491 
L 3956 4666 
L 4897 4666 
L 4897 0 
L 4281 0 
L 4281 4097 
L 3078 897 
L 2444 897 
L 1241 4097 
L 1241 0 
L 628 0 
L 628 4666 
z
" id="DejaVuSans-4d" transform="scale(0.015625)"/>
      <path d="M 3425 4513 
L 3425 3897 
Q 3066 4069 2747 4153 
Q 2428 4238 2131 4238 
Q 1616 4238 1336 4038 
Q 1056 3838 1056 3469 
Q 1056 3159 1242 3001 
Q 1428 2844 1947 2747 
L 2328 2669 
Q 3034 2534 3370 2195 
Q 3706 1856 3706 1288 
Q 3706 609 3251 259 
Q 2797 -91 1919 -91 
Q 1588 -91 1214 -16 
Q 841 59 441 206 
L 441 856 
Q 825 641 1194 531 
Q 1563 422 1919 422 
Q 2459 422 2753 634 
Q 3047 847 3047 1241 
Q 3047 1584 2836 1778 
Q 2625 1972 2144 2069 
L 1759 2144 
Q 1053 2284 737 2584 
Q 422 2884 422 3419 
Q 422 4038 858 4394 
Q 1294 4750 2059 4750 
Q 2388 4750 2728 4690 
Q 3069 4631 3425 4513 
z
" id="DejaVuSans-53" transform="scale(0.015625)"/>
      <path d="M 628 4666 
L 3578 4666 
L 3578 4134 
L 1259 4134 
L 1259 2753 
L 3481 2753 
L 3481 2222 
L 1259 2222 
L 1259 531 
L 3634 531 
L 3634 0 
L 628 0 
L 628 4666 
z
" id="DejaVuSans-45" transform="scale(0.015625)"/>
     </defs>
     <use xlink:href="#DejaVuSans-52"/>
     <use x="65.482422" xlink:href="#DejaVuSans-41"/>
     <use x="133.890625" xlink:href="#DejaVuSans-4e"/>
     <use x="208.695312" xlink:href="#DejaVuSans-44"/>
     <use x="285.697266" xlink:href="#DejaVuSans-4f"/>
     <use x="364.408203" xlink:href="#DejaVuSans-4d"/>
     <use x="450.6875" xlink:href="#DejaVuSans-53"/>
     <use x="514.164062" xlink:href="#DejaVuSans-45"/>
     <use x="577.347656" xlink:href="#DejaVuSans-41"/>
    </g>
   </g>
   <g id="text_14">
    <!-- TPE-hyper -->
    <g transform="translate(375.22944 212.307571)scale(0.17 -0.17)">
     <defs>
      <path d="M -19 4666 
L 3928 4666 
L 3928 4134 
L 2272 4134 
L 2272 0 
L 1638 0 
L 1638 4134 
L -19 4134 
L -19 4666 
z
" id="DejaVuSans-54" transform="scale(0.015625)"/>
      <path d="M 1259 4147 
L 1259 2394 
L 2053 2394 
Q 2494 2394 2734 2622 
Q 2975 2850 2975 3272 
Q 2975 3691 2734 3919 
Q 2494 4147 2053 4147 
L 1259 4147 
z
M 628 4666 
L 2053 4666 
Q 2838 4666 3239 4311 
Q 3641 3956 3641 3272 
Q 3641 2581 3239 2228 
Q 2838 1875 2053 1875 
L 1259 1875 
L 1259 0 
L 628 0 
L 628 4666 
z
" id="DejaVuSans-50" transform="scale(0.015625)"/>
      <path d="M 3513 2113 
L 3513 0 
L 2938 0 
L 2938 2094 
Q 2938 2591 2744 2837 
Q 2550 3084 2163 3084 
Q 1697 3084 1428 2787 
Q 1159 2491 1159 1978 
L 1159 0 
L 581 0 
L 581 4863 
L 1159 4863 
L 1159 2956 
Q 1366 3272 1645 3428 
Q 1925 3584 2291 3584 
Q 2894 3584 3203 3211 
Q 3513 2838 3513 2113 
z
" id="DejaVuSans-68" transform="scale(0.015625)"/>
      <path d="M 2059 -325 
Q 1816 -950 1584 -1140 
Q 1353 -1331 966 -1331 
L 506 -1331 
L 506 -850 
L 844 -850 
Q 1081 -850 1212 -737 
Q 1344 -625 1503 -206 
L 1606 56 
L 191 3500 
L 800 3500 
L 1894 763 
L 2988 3500 
L 3597 3500 
L 2059 -325 
z
" id="DejaVuSans-79" transform="scale(0.015625)"/>
     </defs>
     <use xlink:href="#DejaVuSans-54"/>
     <use x="61.083984" xlink:href="#DejaVuSans-50"/>
     <use x="121.386719" xlink:href="#DejaVuSans-45"/>
     <use x="184.570312" xlink:href="#DejaVuSans-2d"/>
     <use x="220.654297" xlink:href="#DejaVuSans-68"/>
     <use x="284.033203" xlink:href="#DejaVuSans-79"/>
     <use x="343.212891" xlink:href="#DejaVuSans-70"/>
     <use x="406.689453" xlink:href="#DejaVuSans-65"/>
     <use x="468.212891" xlink:href="#DejaVuSans-72"/>
    </g>
   </g>
   <g id="text_15">
    <!-- DE-scipy -->
    <g transform="translate(375.22944 126.352403)scale(0.17 -0.17)">
     <use xlink:href="#DejaVuSans-44"/>
     <use x="77.001953" xlink:href="#DejaVuSans-45"/>
     <use x="140.185547" xlink:href="#DejaVuSans-2d"/>
     <use x="176.269531" xlink:href="#DejaVuSans-73"/>
     <use x="228.369141" xlink:href="#DejaVuSans-63"/>
     <use x="283.349609" xlink:href="#DejaVuSans-69"/>
     <use x="311.132812" xlink:href="#DejaVuSans-70"/>
     <use x="374.609375" xlink:href="#DejaVuSans-79"/>
    </g>
   </g>
   <g id="text_16">
    <!-- CMA-ES-py -->
    <g transform="translate(375.22944 40.397235)scale(0.17 -0.17)">
     <defs>
      <path d="M 4122 4306 
L 4122 3641 
Q 3803 3938 3442 4084 
Q 3081 4231 2675 4231 
Q 1875 4231 1450 3742 
Q 1025 3253 1025 2328 
Q 1025 1406 1450 917 
Q 1875 428 2675 428 
Q 3081 428 3442 575 
Q 3803 722 4122 1019 
L 4122 359 
Q 3791 134 3420 21 
Q 3050 -91 2638 -91 
Q 1578 -91 968 557 
Q 359 1206 359 2328 
Q 359 3453 968 4101 
Q 1578 4750 2638 4750 
Q 3056 4750 3426 4639 
Q 3797 4528 4122 4306 
z
" id="DejaVuSans-43" transform="scale(0.015625)"/>
     </defs>
     <use xlink:href="#DejaVuSans-43"/>
     <use x="69.824219" xlink:href="#DejaVuSans-4d"/>
     <use x="156.103516" xlink:href="#DejaVuSans-41"/>
     <use x="222.261719" xlink:href="#DejaVuSans-2d"/>
     <use x="258.345703" xlink:href="#DejaVuSans-45"/>
     <use x="321.529297" xlink:href="#DejaVuSans-53"/>
     <use x="385.005859" xlink:href="#DejaVuSans-2d"/>
     <use x="421.089844" xlink:href="#DejaVuSans-70"/>
     <use x="484.566406" xlink:href="#DejaVuSans-79"/>
    </g>
   </g>
   <g id="text_17">
    <!-- bbob-mixint f8, 5-D -->
    <g transform="translate(60.41088 38.111366)scale(0.102 -0.102)">
     <defs>
      <path d="M 3116 1747 
Q 3116 2381 2855 2742 
Q 2594 3103 2138 3103 
Q 1681 3103 1420 2742 
Q 1159 2381 1159 1747 
Q 1159 1113 1420 752 
Q 1681 391 2138 391 
Q 2594 391 2855 752 
Q 3116 1113 3116 1747 
z
M 1159 2969 
Q 1341 3281 1617 3432 
Q 1894 3584 2278 3584 
Q 2916 3584 3314 3078 
Q 3713 2572 3713 1747 
Q 3713 922 3314 415 
Q 2916 -91 2278 -91 
Q 1894 -91 1617 61 
Q 1341 213 1159 525 
L 1159 0 
L 581 0 
L 581 4863 
L 1159 4863 
L 1159 2969 
z
" id="DejaVuSans-62" transform="scale(0.015625)"/>
      <path d="M 3513 3500 
L 2247 1797 
L 3578 0 
L 2900 0 
L 1881 1375 
L 863 0 
L 184 0 
L 1544 1831 
L 300 3500 
L 978 3500 
L 1906 2253 
L 2834 3500 
L 3513 3500 
z
" id="DejaVuSans-78" transform="scale(0.015625)"/>
      <path d="M 691 4666 
L 3169 4666 
L 3169 4134 
L 1269 4134 
L 1269 2991 
Q 1406 3038 1543 3061 
Q 1681 3084 1819 3084 
Q 2600 3084 3056 2656 
Q 3513 2228 3513 1497 
Q 3513 744 3044 326 
Q 2575 -91 1722 -91 
Q 1428 -91 1123 -41 
Q 819 9 494 109 
L 494 744 
Q 775 591 1075 516 
Q 1375 441 1709 441 
Q 2250 441 2565 725 
Q 2881 1009 2881 1497 
Q 2881 1984 2565 2268 
Q 2250 2553 1709 2553 
Q 1456 2553 1204 2497 
Q 953 2441 691 2322 
L 691 4666 
z
" id="DejaVuSans-35" transform="scale(0.015625)"/>
     </defs>
     <use xlink:href="#DejaVuSans-62"/>
     <use x="63.476562" xlink:href="#DejaVuSans-62"/>
     <use x="126.953125" xlink:href="#DejaVuSans-6f"/>
     <use x="188.134766" xlink:href="#DejaVuSans-62"/>
     <use x="251.611328" xlink:href="#DejaVuSans-2d"/>
     <use x="287.695312" xlink:href="#DejaVuSans-6d"/>
     <use x="385.107422" xlink:href="#DejaVuSans-69"/>
     <use x="412.890625" xlink:href="#DejaVuSans-78"/>
     <use x="472.070312" xlink:href="#DejaVuSans-69"/>
     <use x="499.853516" xlink:href="#DejaVuSans-6e"/>
     <use x="563.232422" xlink:href="#DejaVuSans-74"/>
     <use x="602.441406" xlink:href="#DejaVuSans-20"/>
     <use x="634.228516" xlink:href="#DejaVuSans-66"/>
     <use x="669.433594" xlink:href="#DejaVuSans-38"/>
     <use x="733.056641" xlink:href="#DejaVuSans-2c"/>
     <use x="764.84375" xlink:href="#DejaVuSans-20"/>
     <use x="796.630859" xlink:href="#DejaVuSans-35"/>
     <use x="860.253906" xlink:href="#DejaVuSans-2d"/>
     <use x="896.337891" xlink:href="#DejaVuSans-44"/>
    </g>
    <!-- 51 targets: 100..1e-08 -->
    <g transform="translate(60.41088 49.533135)scale(0.102 -0.102)">
     <defs>
      <path d="M 750 794 
L 1409 794 
L 1409 0 
L 750 0 
L 750 794 
z
M 750 3309 
L 1409 3309 
L 1409 2516 
L 750 2516 
L 750 3309 
z
" id="DejaVuSans-3a" transform="scale(0.015625)"/>
     </defs>
     <use xlink:href="#DejaVuSans-35"/>
     <use x="63.623047" xlink:href="#DejaVuSans-31"/>
     <use x="127.246094" xlink:href="#DejaVuSans-20"/>
     <use x="159.033203" xlink:href="#DejaVuSans-74"/>
     <use x="198.242188" xlink:href="#DejaVuSans-61"/>
     <use x="259.521484" xlink:href="#DejaVuSans-72"/>
     <use x="298.884766" xlink:href="#DejaVuSans-67"/>
     <use x="362.361328" xlink:href="#DejaVuSans-65"/>
     <use x="423.884766" xlink:href="#DejaVuSans-74"/>
     <use x="463.09375" xlink:href="#DejaVuSans-73"/>
     <use x="515.193359" xlink:href="#DejaVuSans-3a"/>
     <use x="548.884766" xlink:href="#DejaVuSans-20"/>
     <use x="580.671875" xlink:href="#DejaVuSans-31"/>
     <use x="644.294922" xlink:href="#DejaVuSans-30"/>
     <use x="707.917969" xlink:href="#DejaVuSans-30"/>
     <use x="771.541016" xlink:href="#DejaVuSans-2e"/>
     <use x="803.328125" xlink:href="#DejaVuSans-2e"/>
     <use x="835.115234" xlink:href="#DejaVuSans-31"/>
     <use x="898.738281" xlink:href="#DejaVuSans-65"/>
     <use x="960.261719" xlink:href="#DejaVuSans-2d"/>
     <use x="996.345703" xlink:href="#DejaVuSans-30"/>
     <use x="1059.96875" xlink:href="#DejaVuSans-38"/>
    </g>
    <!-- 15 instances -->
    <g transform="translate(60.41088 60.954904)scale(0.102 -0.102)">
     <use xlink:href="#DejaVuSans-31"/>
     <use x="63.623047" xlink:href="#DejaVuSans-35"/>
     <use x="127.246094" xlink:href="#DejaVuSans-20"/>
     <use x="159.033203" xlink:href="#DejaVuSans-69"/>
     <use x="186.816406" xlink:href="#DejaVuSans-6e"/>
     <use x="250.195312" xlink:href="#DejaVuSans-73"/>
     <use x="302.294922" xlink:href="#DejaVuSans-74"/>
     <use x="341.503906" xlink:href="#DejaVuSans-61"/>
     <use x="402.783203" xlink:href="#DejaVuSans-6e"/>
     <use x="466.162109" xlink:href="#DejaVuSans-63"/>
     <use x="521.142578" xlink:href="#DejaVuSans-65"/>
     <use x="582.666016" xlink:href="#DejaVuSans-73"/>
    </g>
   </g>
   <g id="text_18">
    <!-- v2.4.1.1 -->
    <g style="fill:#808080;" transform="translate(177.692437 294.151352)scale(0.1 -0.1)">
     <use xlink:href="#DejaVuSans-76"/>
     <use x="59.179688" xlink:href="#DejaVuSans-32"/>
     <use x="122.802734" xlink:href="#DejaVuSans-2e"/>
     <use x="154.589844" xlink:href="#DejaVuSans-34"/>
     <use x="218.212891" xlink:href="#DejaVuSans-2e"/>
     <use x="250" xlink:href="#DejaVuSans-31"/>
     <use x="313.623047" xlink:href="#DejaVuSans-2e"/>
     <use x="345.410156" xlink:href="#DejaVuSans-31"/>
    </g>
   </g>
   <g id="text_19">
    <!-- 8 Rosenbrock original -->
    <g transform="translate(90.08775 21.648)scale(0.2 -0.2)">
     <defs>
      <path d="M 581 4863 
L 1159 4863 
L 1159 1991 
L 2875 3500 
L 3609 3500 
L 1753 1863 
L 3688 0 
L 2938 0 
L 1159 1709 
L 1159 0 
L 581 0 
L 581 4863 
z
" id="DejaVuSans-6b" transform="scale(0.015625)"/>
     </defs>
     <use xlink:href="#DejaVuSans-38"/>
     <use x="63.623047" xlink:href="#DejaVuSans-20"/>
     <use x="95.410156" xlink:href="#DejaVuSans-52"/>
     <use x="160.392578" xlink:href="#DejaVuSans-6f"/>
     <use x="221.574219" xlink:href="#DejaVuSans-73"/>
     <use x="273.673828" xlink:href="#DejaVuSans-65"/>
     <use x="335.197266" xlink:href="#DejaVuSans-6e"/>
     <use x="398.576172" xlink:href="#DejaVuSans-62"/>
     <use x="462.052734" xlink:href="#DejaVuSans-72"/>
     <use x="500.916016" xlink:href="#DejaVuSans-6f"/>
     <use x="562.097656" xlink:href="#DejaVuSans-63"/>
     <use x="617.078125" xlink:href="#DejaVuSans-6b"/>
     <use x="674.988281" xlink:href="#DejaVuSans-20"/>
     <use x="706.775391" xlink:href="#DejaVuSans-6f"/>
     <use x="767.957031" xlink:href="#DejaVuSans-72"/>
     <use x="809.070312" xlink:href="#DejaVuSans-69"/>
     <use x="836.853516" xlink:href="#DejaVuSans-67"/>
     <use x="900.330078" xlink:href="#DejaVuSans-69"/>
     <use x="928.113281" xlink:href="#DejaVuSans-6e"/>
     <use x="991.492188" xlink:href="#DejaVuSans-61"/>
     <use x="1052.771484" xlink:href="#DejaVuSans-6c"/>
    </g>
   </g>
  </g>
 </g>
 <defs>
  <clipPath id="p03ead9d33a">
   <rect height="271.296" width="281.088" x="57.6" y="27.648"/>
  </clipPath>
 </defs>
</svg>
