<?xml version="1.0" encoding="utf-8" standalone="no"?>
<!DOCTYPE svg PUBLIC "-//W3C//DTD SVG 1.1//EN"
  "http://www.w3.org/Graphics/SVG/1.1/DTD/svg11.dtd">
<svg height="345.6pt" version="1.1" viewBox="0 0 460.8 345.6" width="460.8pt" xmlns="http://www.w3.org/2000/svg" xmlns:xlink="http://www.w3.org/1999/xlink">
 <metadata>
  <rdf:RDF xmlns:cc="http://creativecommons.org/ns#" xmlns:dc="http://purl.org/dc/elements/1.1/" xmlns:rdf="http://www.w3.org/1999/02/22-rdf-syntax-ns#">
   <cc:Work>
    <dc:type rdf:resource="http://purl.org/dc/dcmitype/StillImage"/>
    <dc:date>2022-03-29T13:03:34.290900</dc:date>
    <dc:format>image/svg+xml</dc:format>
    <dc:creator>
     <cc:Agent>
      <dc:title>Matplotlib v3.4.3, https://matplotlib.org/</dc:title>
     </cc:Agent>
    </dc:creator>
   </cc:Work>
  </rdf:RDF>
 </metadata>
 <defs>
  <style type="text/css">*{stroke-linecap:butt;stroke-linejoin:round;}</style>
 </defs>
 <g id="figure_1">
  <g id="patch_1">
   <path d="M 0 345.6 
L 460.8 345.6 
L 460.8 0 
L 0 0 
z
" style="fill:#ffffff;"/>
  </g>
  <g id="axes_1">
   <g id="patch_2">
    <path d="M 57.6 298.944 
L 338.688 298.944 
L 338.688 27.648 
L 57.6 27.648 
z
" style="fill:#ffffff;"/>
   </g>
   <g id="matplotlib.axis_1">
    <g id="xtick_1">
     <g id="line2d_1">
      <path clip-path="url(#p24857e2da3)" d="M 57.6 298.944 
L 57.6 27.648 
" style="fill:none;stroke:#b0b0b0;stroke-linecap:square;stroke-width:0.8;"/>
     </g>
     <g id="line2d_2">
      <defs>
       <path d="M 0 0 
L 0 3.5 
" id="m62a9bb2f82" style="stroke:#000000;stroke-width:0.8;"/>
      </defs>
      <g>
       <use style="stroke:#000000;stroke-width:0.8;" x="57.6" xlink:href="#m62a9bb2f82" y="298.944"/>
      </g>
     </g>
     <g id="text_1">
      <!-- 0 -->
      <g transform="translate(51.2375 321.140875)scale(0.2 -0.2)">
       <defs>
        <path d="M 2034 4250 
Q 1547 4250 1301 3770 
Q 1056 3291 1056 2328 
Q 1056 1369 1301 889 
Q 1547 409 2034 409 
Q 2525 409 2770 889 
Q 3016 1369 3016 2328 
Q 3016 3291 2770 3770 
Q 2525 4250 2034 4250 
z
M 2034 4750 
Q 2819 4750 3233 4129 
Q 3647 3509 3647 2328 
Q 3647 1150 3233 529 
Q 2819 -91 2034 -91 
Q 1250 -91 836 529 
Q 422 1150 422 2328 
Q 422 3509 836 4129 
Q 1250 4750 2034 4750 
z
" id="DejaVuSans-30" transform="scale(0.015625)"/>
       </defs>
       <use xlink:href="#DejaVuSans-30"/>
      </g>
     </g>
    </g>
    <g id="xtick_2">
     <g id="line2d_3">
      <path clip-path="url(#p24857e2da3)" d="M 137.910857 298.944 
L 137.910857 27.648 
" style="fill:none;stroke:#b0b0b0;stroke-linecap:square;stroke-width:0.8;"/>
     </g>
     <g id="line2d_4">
      <g>
       <use style="stroke:#000000;stroke-width:0.8;" x="137.910857" xlink:href="#m62a9bb2f82" y="298.944"/>
      </g>
     </g>
     <g id="text_2">
      <!-- 2 -->
      <g transform="translate(131.548357 321.140875)scale(0.2 -0.2)">
       <defs>
        <path d="M 1228 531 
L 3431 531 
L 3431 0 
L 469 0 
L 469 531 
Q 828 903 1448 1529 
Q 2069 2156 2228 2338 
Q 2531 2678 2651 2914 
Q 2772 3150 2772 3378 
Q 2772 3750 2511 3984 
Q 2250 4219 1831 4219 
Q 1534 4219 1204 4116 
Q 875 4013 500 3803 
L 500 4441 
Q 881 4594 1212 4672 
Q 1544 4750 1819 4750 
Q 2544 4750 2975 4387 
Q 3406 4025 3406 3419 
Q 3406 3131 3298 2873 
Q 3191 2616 2906 2266 
Q 2828 2175 2409 1742 
Q 1991 1309 1228 531 
z
" id="DejaVuSans-32" transform="scale(0.015625)"/>
       </defs>
       <use xlink:href="#DejaVuSans-32"/>
      </g>
     </g>
    </g>
    <g id="xtick_3">
     <g id="line2d_5">
      <path clip-path="url(#p24857e2da3)" d="M 218.221714 298.944 
L 218.221714 27.648 
" style="fill:none;stroke:#b0b0b0;stroke-linecap:square;stroke-width:0.8;"/>
     </g>
     <g id="line2d_6">
      <g>
       <use style="stroke:#000000;stroke-width:0.8;" x="218.221714" xlink:href="#m62a9bb2f82" y="298.944"/>
      </g>
     </g>
     <g id="text_3">
      <!-- 4 -->
      <g transform="translate(211.859214 321.140875)scale(0.2 -0.2)">
       <defs>
        <path d="M 2419 4116 
L 825 1625 
L 2419 1625 
L 2419 4116 
z
M 2253 4666 
L 3047 4666 
L 3047 1625 
L 3713 1625 
L 3713 1100 
L 3047 1100 
L 3047 0 
L 2419 0 
L 2419 1100 
L 313 1100 
L 313 1709 
L 2253 4666 
z
" id="DejaVuSans-34" transform="scale(0.015625)"/>
       </defs>
       <use xlink:href="#DejaVuSans-34"/>
      </g>
     </g>
    </g>
    <g id="xtick_4">
     <g id="line2d_7">
      <path clip-path="url(#p24857e2da3)" d="M 298.532571 298.944 
L 298.532571 27.648 
" style="fill:none;stroke:#b0b0b0;stroke-linecap:square;stroke-width:0.8;"/>
     </g>
     <g id="line2d_8">
      <g>
       <use style="stroke:#000000;stroke-width:0.8;" x="298.532571" xlink:href="#m62a9bb2f82" y="298.944"/>
      </g>
     </g>
     <g id="text_4">
      <!-- 6 -->
      <g transform="translate(292.170071 321.140875)scale(0.2 -0.2)">
       <defs>
        <path d="M 2113 2584 
Q 1688 2584 1439 2293 
Q 1191 2003 1191 1497 
Q 1191 994 1439 701 
Q 1688 409 2113 409 
Q 2538 409 2786 701 
Q 3034 994 3034 1497 
Q 3034 2003 2786 2293 
Q 2538 2584 2113 2584 
z
M 3366 4563 
L 3366 3988 
Q 3128 4100 2886 4159 
Q 2644 4219 2406 4219 
Q 1781 4219 1451 3797 
Q 1122 3375 1075 2522 
Q 1259 2794 1537 2939 
Q 1816 3084 2150 3084 
Q 2853 3084 3261 2657 
Q 3669 2231 3669 1497 
Q 3669 778 3244 343 
Q 2819 -91 2113 -91 
Q 1303 -91 875 529 
Q 447 1150 447 2328 
Q 447 3434 972 4092 
Q 1497 4750 2381 4750 
Q 2619 4750 2861 4703 
Q 3103 4656 3366 4563 
z
" id="DejaVuSans-36" transform="scale(0.015625)"/>
       </defs>
       <use xlink:href="#DejaVuSans-36"/>
      </g>
     </g>
    </g>
    <g id="xtick_5">
     <g id="line2d_9">
      <path clip-path="url(#p24857e2da3)" d="M 97.755429 298.944 
L 97.755429 27.648 
" style="fill:none;stroke:#b0b0b0;stroke-linecap:square;stroke-width:0.8;"/>
     </g>
     <g id="line2d_10">
      <defs>
       <path d="M 0 0 
L 0 2 
" id="m07f67b9244" style="stroke:#000000;stroke-width:0.6;"/>
      </defs>
      <g>
       <use style="stroke:#000000;stroke-width:0.6;" x="97.755429" xlink:href="#m07f67b9244" y="298.944"/>
      </g>
     </g>
    </g>
    <g id="xtick_6">
     <g id="line2d_11">
      <path clip-path="url(#p24857e2da3)" d="M 178.066286 298.944 
L 178.066286 27.648 
" style="fill:none;stroke:#b0b0b0;stroke-linecap:square;stroke-width:0.8;"/>
     </g>
     <g id="line2d_12">
      <g>
       <use style="stroke:#000000;stroke-width:0.6;" x="178.066286" xlink:href="#m07f67b9244" y="298.944"/>
      </g>
     </g>
    </g>
    <g id="xtick_7">
     <g id="line2d_13">
      <path clip-path="url(#p24857e2da3)" d="M 258.377143 298.944 
L 258.377143 27.648 
" style="fill:none;stroke:#b0b0b0;stroke-linecap:square;stroke-width:0.8;"/>
     </g>
     <g id="line2d_14">
      <g>
       <use style="stroke:#000000;stroke-width:0.6;" x="258.377143" xlink:href="#m07f67b9244" y="298.944"/>
      </g>
     </g>
    </g>
    <g id="xtick_8">
     <g id="line2d_15">
      <path clip-path="url(#p24857e2da3)" d="M 338.688 298.944 
L 338.688 27.648 
" style="fill:none;stroke:#b0b0b0;stroke-linecap:square;stroke-width:0.8;"/>
     </g>
     <g id="line2d_16">
      <g>
       <use style="stroke:#000000;stroke-width:0.6;" x="338.688" xlink:href="#m07f67b9244" y="298.944"/>
      </g>
     </g>
    </g>
    <g id="text_5">
     <!-- log10(# f-evals / dimension) -->
     <g transform="translate(77.764078 342.217594)scale(0.17 -0.17)">
      <defs>
       <path d="M 603 4863 
L 1178 4863 
L 1178 0 
L 603 0 
L 603 4863 
z
" id="DejaVuSans-6c" transform="scale(0.015625)"/>
       <path d="M 1959 3097 
Q 1497 3097 1228 2736 
Q 959 2375 959 1747 
Q 959 1119 1226 758 
Q 1494 397 1959 397 
Q 2419 397 2687 759 
Q 2956 1122 2956 1747 
Q 2956 2369 2687 2733 
Q 2419 3097 1959 3097 
z
M 1959 3584 
Q 2709 3584 3137 3096 
Q 3566 2609 3566 1747 
Q 3566 888 3137 398 
Q 2709 -91 1959 -91 
Q 1206 -91 779 398 
Q 353 888 353 1747 
Q 353 2609 779 3096 
Q 1206 3584 1959 3584 
z
" id="DejaVuSans-6f" transform="scale(0.015625)"/>
       <path d="M 2906 1791 
Q 2906 2416 2648 2759 
Q 2391 3103 1925 3103 
Q 1463 3103 1205 2759 
Q 947 2416 947 1791 
Q 947 1169 1205 825 
Q 1463 481 1925 481 
Q 2391 481 2648 825 
Q 2906 1169 2906 1791 
z
M 3481 434 
Q 3481 -459 3084 -895 
Q 2688 -1331 1869 -1331 
Q 1566 -1331 1297 -1286 
Q 1028 -1241 775 -1147 
L 775 -588 
Q 1028 -725 1275 -790 
Q 1522 -856 1778 -856 
Q 2344 -856 2625 -561 
Q 2906 -266 2906 331 
L 2906 616 
Q 2728 306 2450 153 
Q 2172 0 1784 0 
Q 1141 0 747 490 
Q 353 981 353 1791 
Q 353 2603 747 3093 
Q 1141 3584 1784 3584 
Q 2172 3584 2450 3431 
Q 2728 3278 2906 2969 
L 2906 3500 
L 3481 3500 
L 3481 434 
z
" id="DejaVuSans-67" transform="scale(0.015625)"/>
       <path d="M 794 531 
L 1825 531 
L 1825 4091 
L 703 3866 
L 703 4441 
L 1819 4666 
L 2450 4666 
L 2450 531 
L 3481 531 
L 3481 0 
L 794 0 
L 794 531 
z
" id="DejaVuSans-31" transform="scale(0.015625)"/>
       <path d="M 1984 4856 
Q 1566 4138 1362 3434 
Q 1159 2731 1159 2009 
Q 1159 1288 1364 580 
Q 1569 -128 1984 -844 
L 1484 -844 
Q 1016 -109 783 600 
Q 550 1309 550 2009 
Q 550 2706 781 3412 
Q 1013 4119 1484 4856 
L 1984 4856 
z
" id="DejaVuSans-28" transform="scale(0.015625)"/>
       <path d="M 3272 2816 
L 2363 2816 
L 2100 1772 
L 3016 1772 
L 3272 2816 
z
M 2803 4594 
L 2478 3297 
L 3391 3297 
L 3719 4594 
L 4219 4594 
L 3897 3297 
L 4872 3297 
L 4872 2816 
L 3775 2816 
L 3519 1772 
L 4513 1772 
L 4513 1294 
L 3397 1294 
L 3072 0 
L 2572 0 
L 2894 1294 
L 1978 1294 
L 1656 0 
L 1153 0 
L 1478 1294 
L 494 1294 
L 494 1772 
L 1594 1772 
L 1856 2816 
L 850 2816 
L 850 3297 
L 1978 3297 
L 2297 4594 
L 2803 4594 
z
" id="DejaVuSans-23" transform="scale(0.015625)"/>
       <path id="DejaVuSans-20" transform="scale(0.015625)"/>
       <path d="M 2375 4863 
L 2375 4384 
L 1825 4384 
Q 1516 4384 1395 4259 
Q 1275 4134 1275 3809 
L 1275 3500 
L 2222 3500 
L 2222 3053 
L 1275 3053 
L 1275 0 
L 697 0 
L 697 3053 
L 147 3053 
L 147 3500 
L 697 3500 
L 697 3744 
Q 697 4328 969 4595 
Q 1241 4863 1831 4863 
L 2375 4863 
z
" id="DejaVuSans-66" transform="scale(0.015625)"/>
       <path d="M 313 2009 
L 1997 2009 
L 1997 1497 
L 313 1497 
L 313 2009 
z
" id="DejaVuSans-2d" transform="scale(0.015625)"/>
       <path d="M 3597 1894 
L 3597 1613 
L 953 1613 
Q 991 1019 1311 708 
Q 1631 397 2203 397 
Q 2534 397 2845 478 
Q 3156 559 3463 722 
L 3463 178 
Q 3153 47 2828 -22 
Q 2503 -91 2169 -91 
Q 1331 -91 842 396 
Q 353 884 353 1716 
Q 353 2575 817 3079 
Q 1281 3584 2069 3584 
Q 2775 3584 3186 3129 
Q 3597 2675 3597 1894 
z
M 3022 2063 
Q 3016 2534 2758 2815 
Q 2500 3097 2075 3097 
Q 1594 3097 1305 2825 
Q 1016 2553 972 2059 
L 3022 2063 
z
" id="DejaVuSans-65" transform="scale(0.015625)"/>
       <path d="M 191 3500 
L 800 3500 
L 1894 563 
L 2988 3500 
L 3597 3500 
L 2284 0 
L 1503 0 
L 191 3500 
z
" id="DejaVuSans-76" transform="scale(0.015625)"/>
       <path d="M 2194 1759 
Q 1497 1759 1228 1600 
Q 959 1441 959 1056 
Q 959 750 1161 570 
Q 1363 391 1709 391 
Q 2188 391 2477 730 
Q 2766 1069 2766 1631 
L 2766 1759 
L 2194 1759 
z
M 3341 1997 
L 3341 0 
L 2766 0 
L 2766 531 
Q 2569 213 2275 61 
Q 1981 -91 1556 -91 
Q 1019 -91 701 211 
Q 384 513 384 1019 
Q 384 1609 779 1909 
Q 1175 2209 1959 2209 
L 2766 2209 
L 2766 2266 
Q 2766 2663 2505 2880 
Q 2244 3097 1772 3097 
Q 1472 3097 1187 3025 
Q 903 2953 641 2809 
L 641 3341 
Q 956 3463 1253 3523 
Q 1550 3584 1831 3584 
Q 2591 3584 2966 3190 
Q 3341 2797 3341 1997 
z
" id="DejaVuSans-61" transform="scale(0.015625)"/>
       <path d="M 2834 3397 
L 2834 2853 
Q 2591 2978 2328 3040 
Q 2066 3103 1784 3103 
Q 1356 3103 1142 2972 
Q 928 2841 928 2578 
Q 928 2378 1081 2264 
Q 1234 2150 1697 2047 
L 1894 2003 
Q 2506 1872 2764 1633 
Q 3022 1394 3022 966 
Q 3022 478 2636 193 
Q 2250 -91 1575 -91 
Q 1294 -91 989 -36 
Q 684 19 347 128 
L 347 722 
Q 666 556 975 473 
Q 1284 391 1588 391 
Q 1994 391 2212 530 
Q 2431 669 2431 922 
Q 2431 1156 2273 1281 
Q 2116 1406 1581 1522 
L 1381 1569 
Q 847 1681 609 1914 
Q 372 2147 372 2553 
Q 372 3047 722 3315 
Q 1072 3584 1716 3584 
Q 2034 3584 2315 3537 
Q 2597 3491 2834 3397 
z
" id="DejaVuSans-73" transform="scale(0.015625)"/>
       <path d="M 1625 4666 
L 2156 4666 
L 531 -594 
L 0 -594 
L 1625 4666 
z
" id="DejaVuSans-2f" transform="scale(0.015625)"/>
       <path d="M 2906 2969 
L 2906 4863 
L 3481 4863 
L 3481 0 
L 2906 0 
L 2906 525 
Q 2725 213 2448 61 
Q 2172 -91 1784 -91 
Q 1150 -91 751 415 
Q 353 922 353 1747 
Q 353 2572 751 3078 
Q 1150 3584 1784 3584 
Q 2172 3584 2448 3432 
Q 2725 3281 2906 2969 
z
M 947 1747 
Q 947 1113 1208 752 
Q 1469 391 1925 391 
Q 2381 391 2643 752 
Q 2906 1113 2906 1747 
Q 2906 2381 2643 2742 
Q 2381 3103 1925 3103 
Q 1469 3103 1208 2742 
Q 947 2381 947 1747 
z
" id="DejaVuSans-64" transform="scale(0.015625)"/>
       <path d="M 603 3500 
L 1178 3500 
L 1178 0 
L 603 0 
L 603 3500 
z
M 603 4863 
L 1178 4863 
L 1178 4134 
L 603 4134 
L 603 4863 
z
" id="DejaVuSans-69" transform="scale(0.015625)"/>
       <path d="M 3328 2828 
Q 3544 3216 3844 3400 
Q 4144 3584 4550 3584 
Q 5097 3584 5394 3201 
Q 5691 2819 5691 2113 
L 5691 0 
L 5113 0 
L 5113 2094 
Q 5113 2597 4934 2840 
Q 4756 3084 4391 3084 
Q 3944 3084 3684 2787 
Q 3425 2491 3425 1978 
L 3425 0 
L 2847 0 
L 2847 2094 
Q 2847 2600 2669 2842 
Q 2491 3084 2119 3084 
Q 1678 3084 1418 2786 
Q 1159 2488 1159 1978 
L 1159 0 
L 581 0 
L 581 3500 
L 1159 3500 
L 1159 2956 
Q 1356 3278 1631 3431 
Q 1906 3584 2284 3584 
Q 2666 3584 2933 3390 
Q 3200 3197 3328 2828 
z
" id="DejaVuSans-6d" transform="scale(0.015625)"/>
       <path d="M 3513 2113 
L 3513 0 
L 2938 0 
L 2938 2094 
Q 2938 2591 2744 2837 
Q 2550 3084 2163 3084 
Q 1697 3084 1428 2787 
Q 1159 2491 1159 1978 
L 1159 0 
L 581 0 
L 581 3500 
L 1159 3500 
L 1159 2956 
Q 1366 3272 1645 3428 
Q 1925 3584 2291 3584 
Q 2894 3584 3203 3211 
Q 3513 2838 3513 2113 
z
" id="DejaVuSans-6e" transform="scale(0.015625)"/>
       <path d="M 513 4856 
L 1013 4856 
Q 1481 4119 1714 3412 
Q 1947 2706 1947 2009 
Q 1947 1309 1714 600 
Q 1481 -109 1013 -844 
L 513 -844 
Q 928 -128 1133 580 
Q 1338 1288 1338 2009 
Q 1338 2731 1133 3434 
Q 928 4138 513 4856 
z
" id="DejaVuSans-29" transform="scale(0.015625)"/>
      </defs>
      <use xlink:href="#DejaVuSans-6c"/>
      <use x="27.783203" xlink:href="#DejaVuSans-6f"/>
      <use x="88.964844" xlink:href="#DejaVuSans-67"/>
      <use x="152.441406" xlink:href="#DejaVuSans-31"/>
      <use x="216.064453" xlink:href="#DejaVuSans-30"/>
      <use x="279.6875" xlink:href="#DejaVuSans-28"/>
      <use x="318.701172" xlink:href="#DejaVuSans-23"/>
      <use x="402.490234" xlink:href="#DejaVuSans-20"/>
      <use x="434.277344" xlink:href="#DejaVuSans-66"/>
      <use x="463.982422" xlink:href="#DejaVuSans-2d"/>
      <use x="500.066406" xlink:href="#DejaVuSans-65"/>
      <use x="561.589844" xlink:href="#DejaVuSans-76"/>
      <use x="620.769531" xlink:href="#DejaVuSans-61"/>
      <use x="682.048828" xlink:href="#DejaVuSans-6c"/>
      <use x="709.832031" xlink:href="#DejaVuSans-73"/>
      <use x="761.931641" xlink:href="#DejaVuSans-20"/>
      <use x="793.71875" xlink:href="#DejaVuSans-2f"/>
      <use x="827.410156" xlink:href="#DejaVuSans-20"/>
      <use x="859.197266" xlink:href="#DejaVuSans-64"/>
      <use x="922.673828" xlink:href="#DejaVuSans-69"/>
      <use x="950.457031" xlink:href="#DejaVuSans-6d"/>
      <use x="1047.869141" xlink:href="#DejaVuSans-65"/>
      <use x="1109.392578" xlink:href="#DejaVuSans-6e"/>
      <use x="1172.771484" xlink:href="#DejaVuSans-73"/>
      <use x="1224.871094" xlink:href="#DejaVuSans-69"/>
      <use x="1252.654297" xlink:href="#DejaVuSans-6f"/>
      <use x="1313.835938" xlink:href="#DejaVuSans-6e"/>
      <use x="1377.214844" xlink:href="#DejaVuSans-29"/>
     </g>
    </g>
   </g>
   <g id="matplotlib.axis_2">
    <g id="ytick_1">
     <g id="line2d_17">
      <path clip-path="url(#p24857e2da3)" d="M 57.6 298.944 
L 338.688 298.944 
" style="fill:none;stroke:#b0b0b0;stroke-linecap:square;stroke-width:0.8;"/>
     </g>
     <g id="line2d_18">
      <defs>
       <path d="M 0 0 
L -3.5 0 
" id="m41a9dfd98b" style="stroke:#000000;stroke-width:0.8;"/>
      </defs>
      <g>
       <use style="stroke:#000000;stroke-width:0.8;" x="57.6" xlink:href="#m41a9dfd98b" y="298.944"/>
      </g>
     </g>
     <g id="text_6">
      <!-- 0.0 -->
      <g transform="translate(25.155 305.02275)scale(0.16 -0.16)">
       <defs>
        <path d="M 684 794 
L 1344 794 
L 1344 0 
L 684 0 
L 684 794 
z
" id="DejaVuSans-2e" transform="scale(0.015625)"/>
       </defs>
       <use xlink:href="#DejaVuSans-30"/>
       <use x="63.623047" xlink:href="#DejaVuSans-2e"/>
       <use x="95.410156" xlink:href="#DejaVuSans-30"/>
      </g>
     </g>
    </g>
    <g id="ytick_2">
     <g id="line2d_19">
      <path clip-path="url(#p24857e2da3)" d="M 57.6 245.22202 
L 338.688 245.22202 
" style="fill:none;stroke:#b0b0b0;stroke-linecap:square;stroke-width:0.8;"/>
     </g>
     <g id="line2d_20">
      <g>
       <use style="stroke:#000000;stroke-width:0.8;" x="57.6" xlink:href="#m41a9dfd98b" y="245.22202"/>
      </g>
     </g>
     <g id="text_7">
      <!-- 0.2 -->
      <g transform="translate(25.155 251.30077)scale(0.16 -0.16)">
       <use xlink:href="#DejaVuSans-30"/>
       <use x="63.623047" xlink:href="#DejaVuSans-2e"/>
       <use x="95.410156" xlink:href="#DejaVuSans-32"/>
      </g>
     </g>
    </g>
    <g id="ytick_3">
     <g id="line2d_21">
      <path clip-path="url(#p24857e2da3)" d="M 57.6 191.50004 
L 338.688 191.50004 
" style="fill:none;stroke:#b0b0b0;stroke-linecap:square;stroke-width:0.8;"/>
     </g>
     <g id="line2d_22">
      <g>
       <use style="stroke:#000000;stroke-width:0.8;" x="57.6" xlink:href="#m41a9dfd98b" y="191.50004"/>
      </g>
     </g>
     <g id="text_8">
      <!-- 0.4 -->
      <g transform="translate(25.155 197.57879)scale(0.16 -0.16)">
       <use xlink:href="#DejaVuSans-30"/>
       <use x="63.623047" xlink:href="#DejaVuSans-2e"/>
       <use x="95.410156" xlink:href="#DejaVuSans-34"/>
      </g>
     </g>
    </g>
    <g id="ytick_4">
     <g id="line2d_23">
      <path clip-path="url(#p24857e2da3)" d="M 57.6 137.778059 
L 338.688 137.778059 
" style="fill:none;stroke:#b0b0b0;stroke-linecap:square;stroke-width:0.8;"/>
     </g>
     <g id="line2d_24">
      <g>
       <use style="stroke:#000000;stroke-width:0.8;" x="57.6" xlink:href="#m41a9dfd98b" y="137.778059"/>
      </g>
     </g>
     <g id="text_9">
      <!-- 0.6 -->
      <g transform="translate(25.155 143.856809)scale(0.16 -0.16)">
       <use xlink:href="#DejaVuSans-30"/>
       <use x="63.623047" xlink:href="#DejaVuSans-2e"/>
       <use x="95.410156" xlink:href="#DejaVuSans-36"/>
      </g>
     </g>
    </g>
    <g id="ytick_5">
     <g id="line2d_25">
      <path clip-path="url(#p24857e2da3)" d="M 57.6 84.056079 
L 338.688 84.056079 
" style="fill:none;stroke:#b0b0b0;stroke-linecap:square;stroke-width:0.8;"/>
     </g>
     <g id="line2d_26">
      <g>
       <use style="stroke:#000000;stroke-width:0.8;" x="57.6" xlink:href="#m41a9dfd98b" y="84.056079"/>
      </g>
     </g>
     <g id="text_10">
      <!-- 0.8 -->
      <g transform="translate(25.155 90.134829)scale(0.16 -0.16)">
       <defs>
        <path d="M 2034 2216 
Q 1584 2216 1326 1975 
Q 1069 1734 1069 1313 
Q 1069 891 1326 650 
Q 1584 409 2034 409 
Q 2484 409 2743 651 
Q 3003 894 3003 1313 
Q 3003 1734 2745 1975 
Q 2488 2216 2034 2216 
z
M 1403 2484 
Q 997 2584 770 2862 
Q 544 3141 544 3541 
Q 544 4100 942 4425 
Q 1341 4750 2034 4750 
Q 2731 4750 3128 4425 
Q 3525 4100 3525 3541 
Q 3525 3141 3298 2862 
Q 3072 2584 2669 2484 
Q 3125 2378 3379 2068 
Q 3634 1759 3634 1313 
Q 3634 634 3220 271 
Q 2806 -91 2034 -91 
Q 1263 -91 848 271 
Q 434 634 434 1313 
Q 434 1759 690 2068 
Q 947 2378 1403 2484 
z
M 1172 3481 
Q 1172 3119 1398 2916 
Q 1625 2713 2034 2713 
Q 2441 2713 2670 2916 
Q 2900 3119 2900 3481 
Q 2900 3844 2670 4047 
Q 2441 4250 2034 4250 
Q 1625 4250 1398 4047 
Q 1172 3844 1172 3481 
z
" id="DejaVuSans-38" transform="scale(0.015625)"/>
       </defs>
       <use xlink:href="#DejaVuSans-30"/>
       <use x="63.623047" xlink:href="#DejaVuSans-2e"/>
       <use x="95.410156" xlink:href="#DejaVuSans-38"/>
      </g>
     </g>
    </g>
    <g id="ytick_6">
     <g id="line2d_27">
      <path clip-path="url(#p24857e2da3)" d="M 57.6 30.334099 
L 338.688 30.334099 
" style="fill:none;stroke:#b0b0b0;stroke-linecap:square;stroke-width:0.8;"/>
     </g>
     <g id="line2d_28">
      <g>
       <use style="stroke:#000000;stroke-width:0.8;" x="57.6" xlink:href="#m41a9dfd98b" y="30.334099"/>
      </g>
     </g>
     <g id="text_11">
      <!-- 1.0 -->
      <g transform="translate(25.155 36.412849)scale(0.16 -0.16)">
       <use xlink:href="#DejaVuSans-31"/>
       <use x="63.623047" xlink:href="#DejaVuSans-2e"/>
       <use x="95.410156" xlink:href="#DejaVuSans-30"/>
      </g>
     </g>
    </g>
    <g id="text_12">
     <!-- Fraction of function,target pairs -->
     <g transform="translate(17.619531 297.681)rotate(-90)scale(0.17 -0.17)">
      <defs>
       <path d="M 628 4666 
L 3309 4666 
L 3309 4134 
L 1259 4134 
L 1259 2759 
L 3109 2759 
L 3109 2228 
L 1259 2228 
L 1259 0 
L 628 0 
L 628 4666 
z
" id="DejaVuSans-46" transform="scale(0.015625)"/>
       <path d="M 2631 2963 
Q 2534 3019 2420 3045 
Q 2306 3072 2169 3072 
Q 1681 3072 1420 2755 
Q 1159 2438 1159 1844 
L 1159 0 
L 581 0 
L 581 3500 
L 1159 3500 
L 1159 2956 
Q 1341 3275 1631 3429 
Q 1922 3584 2338 3584 
Q 2397 3584 2469 3576 
Q 2541 3569 2628 3553 
L 2631 2963 
z
" id="DejaVuSans-72" transform="scale(0.015625)"/>
       <path d="M 3122 3366 
L 3122 2828 
Q 2878 2963 2633 3030 
Q 2388 3097 2138 3097 
Q 1578 3097 1268 2742 
Q 959 2388 959 1747 
Q 959 1106 1268 751 
Q 1578 397 2138 397 
Q 2388 397 2633 464 
Q 2878 531 3122 666 
L 3122 134 
Q 2881 22 2623 -34 
Q 2366 -91 2075 -91 
Q 1284 -91 818 406 
Q 353 903 353 1747 
Q 353 2603 823 3093 
Q 1294 3584 2113 3584 
Q 2378 3584 2631 3529 
Q 2884 3475 3122 3366 
z
" id="DejaVuSans-63" transform="scale(0.015625)"/>
       <path d="M 1172 4494 
L 1172 3500 
L 2356 3500 
L 2356 3053 
L 1172 3053 
L 1172 1153 
Q 1172 725 1289 603 
Q 1406 481 1766 481 
L 2356 481 
L 2356 0 
L 1766 0 
Q 1100 0 847 248 
Q 594 497 594 1153 
L 594 3053 
L 172 3053 
L 172 3500 
L 594 3500 
L 594 4494 
L 1172 4494 
z
" id="DejaVuSans-74" transform="scale(0.015625)"/>
       <path d="M 544 1381 
L 544 3500 
L 1119 3500 
L 1119 1403 
Q 1119 906 1312 657 
Q 1506 409 1894 409 
Q 2359 409 2629 706 
Q 2900 1003 2900 1516 
L 2900 3500 
L 3475 3500 
L 3475 0 
L 2900 0 
L 2900 538 
Q 2691 219 2414 64 
Q 2138 -91 1772 -91 
Q 1169 -91 856 284 
Q 544 659 544 1381 
z
M 1991 3584 
L 1991 3584 
z
" id="DejaVuSans-75" transform="scale(0.015625)"/>
       <path d="M 750 794 
L 1409 794 
L 1409 256 
L 897 -744 
L 494 -744 
L 750 256 
L 750 794 
z
" id="DejaVuSans-2c" transform="scale(0.015625)"/>
       <path d="M 1159 525 
L 1159 -1331 
L 581 -1331 
L 581 3500 
L 1159 3500 
L 1159 2969 
Q 1341 3281 1617 3432 
Q 1894 3584 2278 3584 
Q 2916 3584 3314 3078 
Q 3713 2572 3713 1747 
Q 3713 922 3314 415 
Q 2916 -91 2278 -91 
Q 1894 -91 1617 61 
Q 1341 213 1159 525 
z
M 3116 1747 
Q 3116 2381 2855 2742 
Q 2594 3103 2138 3103 
Q 1681 3103 1420 2742 
Q 1159 2381 1159 1747 
Q 1159 1113 1420 752 
Q 1681 391 2138 391 
Q 2594 391 2855 752 
Q 3116 1113 3116 1747 
z
" id="DejaVuSans-70" transform="scale(0.015625)"/>
      </defs>
      <use xlink:href="#DejaVuSans-46"/>
      <use x="50.269531" xlink:href="#DejaVuSans-72"/>
      <use x="91.382812" xlink:href="#DejaVuSans-61"/>
      <use x="152.662109" xlink:href="#DejaVuSans-63"/>
      <use x="207.642578" xlink:href="#DejaVuSans-74"/>
      <use x="246.851562" xlink:href="#DejaVuSans-69"/>
      <use x="274.634766" xlink:href="#DejaVuSans-6f"/>
      <use x="335.816406" xlink:href="#DejaVuSans-6e"/>
      <use x="399.195312" xlink:href="#DejaVuSans-20"/>
      <use x="430.982422" xlink:href="#DejaVuSans-6f"/>
      <use x="492.164062" xlink:href="#DejaVuSans-66"/>
      <use x="527.369141" xlink:href="#DejaVuSans-20"/>
      <use x="559.15625" xlink:href="#DejaVuSans-66"/>
      <use x="594.361328" xlink:href="#DejaVuSans-75"/>
      <use x="657.740234" xlink:href="#DejaVuSans-6e"/>
      <use x="721.119141" xlink:href="#DejaVuSans-63"/>
      <use x="776.099609" xlink:href="#DejaVuSans-74"/>
      <use x="815.308594" xlink:href="#DejaVuSans-69"/>
      <use x="843.091797" xlink:href="#DejaVuSans-6f"/>
      <use x="904.273438" xlink:href="#DejaVuSans-6e"/>
      <use x="967.652344" xlink:href="#DejaVuSans-2c"/>
      <use x="999.439453" xlink:href="#DejaVuSans-74"/>
      <use x="1038.648438" xlink:href="#DejaVuSans-61"/>
      <use x="1099.927734" xlink:href="#DejaVuSans-72"/>
      <use x="1139.291016" xlink:href="#DejaVuSans-67"/>
      <use x="1202.767578" xlink:href="#DejaVuSans-65"/>
      <use x="1264.291016" xlink:href="#DejaVuSans-74"/>
      <use x="1303.5" xlink:href="#DejaVuSans-20"/>
      <use x="1335.287109" xlink:href="#DejaVuSans-70"/>
      <use x="1398.763672" xlink:href="#DejaVuSans-61"/>
      <use x="1460.042969" xlink:href="#DejaVuSans-69"/>
      <use x="1487.826172" xlink:href="#DejaVuSans-72"/>
      <use x="1528.939453" xlink:href="#DejaVuSans-73"/>
     </g>
    </g>
   </g>
   <g id="line2d_29">
    <defs>
     <path d="M 0 1.5 
C 0.397805 1.5 0.77937 1.341951 1.06066 1.06066 
C 1.341951 0.77937 1.5 0.397805 1.5 0 
C 1.5 -0.397805 1.341951 -0.77937 1.06066 -1.06066 
C 0.77937 -1.341951 0.397805 -1.5 0 -1.5 
C -0.397805 -1.5 -0.77937 -1.341951 -1.06066 -1.06066 
C -1.341951 -0.77937 -1.5 -0.397805 -1.5 0 
C -1.5 0.397805 -1.341951 0.77937 -1.06066 1.06066 
C -0.77937 1.341951 -0.397805 1.5 0 1.5 
z
" id="me9d83d601b" style="stroke:#000080;"/>
    </defs>
    <g>
     <use style="fill:#000080;stroke:#000080;" x="258.528329" xlink:href="#me9d83d601b" y="30.334099"/>
     <use style="fill:#000080;stroke:#000080;" x="258.528329" xlink:href="#me9d83d601b" y="30.334099"/>
    </g>
   </g>
   <g id="line2d_30">
    <path d="M 17.444571 298.944 
L 17.444571 293.677139 
L 36.60358 293.677139 
L 36.60358 289.990337 
L 41.620548 289.990337 
L 41.620548 287.356906 
L 48.691568 287.356906 
L 48.691568 286.83022 
L 51.379845 286.83022 
L 51.379845 286.303534 
L 57.6 286.303534 
L 57.6 285.776848 
L 59.262141 285.776848 
L 59.262141 285.250162 
L 60.779557 285.250162 
L 60.779557 284.723476 
L 62.175444 284.723476 
L 62.175444 282.616732 
L 63.467834 282.616732 
L 63.467834 282.090045 
L 65.796525 282.090045 
L 65.796525 281.563359 
L 66.853775 281.563359 
L 66.853775 280.509987 
L 76.16779 280.509987 
L 76.16779 279.983301 
L 77.330839 279.983301 
L 77.330839 279.456615 
L 77.884514 279.456615 
L 77.884514 278.929929 
L 78.421149 278.929929 
L 78.421149 278.403243 
L 80.416384 278.403243 
L 80.416384 277.876557 
L 81.775977 277.876557 
L 81.775977 277.349871 
L 82.206598 277.349871 
L 82.206598 276.296499 
L 84.955534 276.296499 
L 84.955534 274.71644 
L 85.66744 274.71644 
L 85.66744 274.189754 
L 87.329581 274.189754 
L 87.329581 273.136382 
L 87.952479 273.136382 
L 87.952479 272.08301 
L 89.135256 272.08301 
L 89.135256 271.556324 
L 92.73846 271.556324 
L 92.73846 271.029638 
L 93.644601 271.029638 
L 93.644601 270.502952 
L 95.125186 270.502952 
L 95.125186 269.449579 
L 95.326798 269.449579 
L 95.326798 268.922893 
L 96.489848 268.922893 
L 96.489848 268.396207 
L 97.928955 268.396207 
L 97.928955 267.869521 
L 98.100772 267.869521 
L 98.100772 266.816149 
L 98.270913 266.816149 
L 98.270913 265.236091 
L 98.935347 265.236091 
L 98.935347 264.709405 
L 100.040467 264.709405 
L 100.040467 264.182719 
L 102.464508 264.182719 
L 102.464508 263.656033 
L 102.597126 263.656033 
L 102.597126 263.129347 
L 104.23523 263.129347 
L 104.23523 262.60266 
L 104.355088 262.60266 
L 104.355088 262.075974 
L 107.009204 262.075974 
L 107.009204 261.022602 
L 110.694282 261.022602 
L 110.694282 260.495916 
L 111.266113 260.495916 
L 111.266113 259.96923 
L 112.051799 259.96923 
L 112.051799 259.442544 
L 114.485807 259.442544 
L 114.485807 258.915858 
L 114.882171 258.915858 
L 114.882171 258.389172 
L 115.711251 258.389172 
L 115.711251 257.862486 
L 122.018385 257.862486 
L 122.018385 254.702369 
L 123.907776 254.702369 
L 123.907776 254.175683 
L 128.471239 254.175683 
L 128.471239 253.648997 
L 138.084384 253.648997 
L 138.084384 253.122311 
L 140.256979 253.122311 
L 140.256979 252.595625 
L 144.18499 252.595625 
L 144.294175 250.488881 
L 144.414696 250.488881 
L 144.414696 249.435508 
L 145.166911 249.435508 
L 145.166911 248.908822 
L 146.205204 248.908822 
L 146.205204 247.85545 
L 146.377764 247.85545 
L 146.377764 246.275392 
L 146.516724 246.275392 
L 146.516724 245.748706 
L 148.411533 245.748706 
L 148.411533 245.22202 
L 150.556607 245.22202 
L 150.556607 244.168648 
L 151.031458 244.168648 
L 151.031458 243.641962 
L 151.437608 243.641962 
L 151.437608 243.115275 
L 152.114793 243.115275 
L 152.161072 241.535217 
L 153.01047 241.535217 
L 153.01047 240.481845 
L 153.771317 240.481845 
L 153.771317 238.901787 
L 159.587904 238.901787 
L 159.587904 238.375101 
L 159.743188 238.375101 
L 159.743188 235.214984 
L 161.676583 235.214984 
L 161.676583 234.688298 
L 161.951153 234.688298 
L 161.951153 234.161612 
L 163.992995 234.161612 
L 163.992995 233.10824 
L 168.58767 233.10824 
L 168.58767 232.581554 
L 169.950491 232.581554 
L 169.950491 232.054868 
L 172.130306 232.054868 
L 172.130306 231.528182 
L 172.986423 231.528182 
L 172.986423 231.001496 
L 173.428822 231.001496 
L 173.428822 230.47481 
L 173.645883 230.47481 
L 173.645883 229.948123 
L 174.003955 229.948123 
L 174.003955 229.421437 
L 174.128984 229.421437 
L 174.128984 228.894751 
L 174.255293 228.894751 
L 174.363451 226.261321 
L 174.408678 226.261321 
L 174.434469 224.154577 
L 174.571383 224.154577 
L 174.571383 223.627891 
L 174.753684 223.627891 
L 174.753684 223.101204 
L 175.649678 223.101204 
L 175.72962 219.941088 
L 176.363988 219.941088 
L 176.363988 219.414402 
L 176.583714 219.414402 
L 176.674612 218.36103 
L 176.983512 218.36103 
L 177.018734 215.200913 
L 177.838089 215.200913 
L 177.838089 214.674227 
L 177.971858 214.674227 
L 178.048838 212.040797 
L 178.42701 212.040797 
L 178.42701 209.934052 
L 178.735169 209.934052 
L 178.735169 209.407366 
L 178.847254 209.407366 
L 178.847254 208.88068 
L 179.011565 208.88068 
L 179.011565 207.827308 
L 179.580359 207.827308 
L 179.580359 207.300622 
L 180.112585 207.300622 
L 180.112585 206.773936 
L 180.354384 206.773936 
L 180.354384 203.613819 
L 180.771496 203.613819 
L 180.771496 203.087133 
L 181.096975 203.087133 
L 181.096975 202.560447 
L 181.287937 202.560447 
L 181.287937 202.033761 
L 182.376797 202.033761 
L 182.376797 201.507075 
L 182.515172 201.507075 
L 182.515172 200.980389 
L 182.685943 200.980389 
L 182.790002 197.820273 
L 182.911947 197.820273 
L 182.989704 196.7669 
L 183.029108 196.7669 
L 183.120708 195.186842 
L 183.276626 195.186842 
L 183.276626 193.080098 
L 183.543625 193.080098 
L 183.543625 192.553412 
L 183.867974 192.553412 
L 183.867974 190.973354 
L 184.040919 190.973354 
L 184.040919 188.866609 
L 184.443556 188.866609 
L 184.443556 187.813237 
L 187.713613 187.813237 
L 187.713613 186.759865 
L 188.095535 186.759865 
L 188.095535 185.706493 
L 188.270296 185.706493 
L 188.35944 184.126434 
L 188.463509 184.126434 
L 188.463509 183.599748 
L 188.638444 183.599748 
L 188.638444 183.073062 
L 189.039926 183.073062 
L 189.039926 181.493004 
L 189.4351 181.493004 
L 189.4351 180.966318 
L 189.653624 180.966318 
L 189.749379 178.859574 
L 190.135953 178.859574 
L 190.135953 178.332888 
L 190.365746 178.332888 
L 190.365746 177.279515 
L 190.669758 177.279515 
L 190.669758 176.752829 
L 193.866238 176.752829 
L 193.866238 176.226143 
L 194.355482 176.226143 
L 194.355482 175.699457 
L 194.572731 175.699457 
L 194.572731 175.172771 
L 201.859664 175.172771 
L 201.861892 171.485969 
L 202.080639 171.485969 
L 202.080639 169.379224 
L 202.732331 169.379224 
L 202.788197 166.745794 
L 203.144126 166.745794 
L 203.144126 164.63905 
L 203.532254 164.63905 
L 203.532254 162.005619 
L 207.379041 162.005619 
L 207.379041 161.478933 
L 208.377719 161.478933 
L 208.377719 159.898875 
L 208.574713 159.898875 
L 208.574713 159.372189 
L 209.113627 159.372189 
L 209.176723 157.79213 
L 209.266716 157.79213 
L 209.374214 156.738758 
L 209.419339 156.738758 
L 209.419339 153.051956 
L 210.036904 153.051956 
L 210.078124 151.998584 
L 210.174664 151.998584 
L 210.174664 150.418525 
L 210.499991 150.418525 
L 210.523327 147.785095 
L 210.747762 147.785095 
L 210.747762 146.731723 
L 216.147858 146.731723 
L 216.191016 145.151665 
L 218.431119 145.151665 
L 218.465547 143.571606 
L 218.563296 143.571606 
L 218.644848 141.991548 
L 218.678008 141.991548 
L 218.745831 140.41149 
L 218.813392 140.41149 
L 218.834283 139.358118 
L 218.928653 139.358118 
L 218.928653 138.831432 
L 219.348909 138.831432 
L 219.348909 138.304745 
L 219.522311 138.304745 
L 219.624308 134.617943 
L 219.641999 134.617943 
L 219.704421 133.037885 
L 219.817937 133.037885 
L 219.894633 129.877768 
L 219.944786 129.877768 
L 219.994481 128.824396 
L 220.058167 128.824396 
L 220.13569 127.771024 
L 220.255602 127.771024 
L 220.255602 126.717652 
L 220.396723 126.717652 
L 220.504917 122.504163 
L 220.569818 122.504163 
L 220.618526 120.397419 
L 221.086132 120.397419 
L 221.184849 117.237302 
L 221.216162 117.237302 
L 221.303629 113.023814 
L 221.361989 113.023814 
L 221.448004 109.337011 
L 221.479861 109.337011 
L 221.537635 108.283639 
L 223.991488 108.283639 
L 224.068983 106.703581 
L 224.102623 106.703581 
L 224.164004 104.596836 
L 224.217134 104.596836 
L 224.296343 102.490092 
L 224.333233 102.490092 
L 224.437578 99.856662 
L 224.470394 99.856662 
L 224.537054 97.749917 
L 224.585551 97.749917 
L 224.585551 97.223231 
L 226.429136 97.223231 
L 226.533827 94.063115 
L 226.764224 94.063115 
L 226.820765 93.009743 
L 226.893784 93.009743 
L 226.893784 92.483056 
L 227.043642 92.483056 
L 227.043642 91.95637 
L 229.376224 91.95637 
L 229.376224 91.429684 
L 230.36794 91.429684 
L 230.477876 89.849626 
L 230.489444 89.849626 
L 230.558608 88.269568 
L 230.677686 88.269568 
L 230.683405 87.216196 
L 230.965154 87.216196 
L 231.059627 85.636137 
L 231.087919 85.636137 
L 231.184054 81.949335 
L 231.213801 81.949335 
L 231.311304 78.789218 
L 231.333519 78.789218 
L 231.333519 78.262532 
L 231.455932 78.262532 
L 231.54316 72.995672 
L 231.580411 72.995672 
L 231.580411 72.468985 
L 231.8113 72.468985 
L 231.908392 71.415613 
L 231.966135 71.415613 
L 232.01776 69.308869 
L 232.143801 69.308869 
L 232.143801 68.782183 
L 233.48032 68.782183 
L 233.518519 67.202125 
L 233.660484 67.202125 
L 233.760858 65.622066 
L 233.820849 65.622066 
L 233.820849 65.09538 
L 234.927219 65.09538 
L 235.000934 62.46195 
L 235.125222 62.46195 
L 235.228978 59.301833 
L 237.479035 59.301833 
L 237.535764 57.721775 
L 237.608899 57.721775 
L 237.701029 55.088345 
L 237.847433 55.088345 
L 237.955198 54.034973 
L 237.993011 54.034973 
L 238.080124 52.454914 
L 238.113042 52.454914 
L 238.222783 50.874856 
L 238.252558 50.874856 
L 238.274773 49.821484 
L 238.467273 49.821484 
L 238.575738 47.71474 
L 239.58762 47.71474 
L 239.623131 46.134681 
L 240.611263 46.134681 
L 240.711921 44.027937 
L 242.43793 44.027937 
L 242.43793 43.501251 
L 242.844256 43.501251 
L 242.926039 41.921193 
L 243.04218 41.921193 
L 243.04218 41.394507 
L 243.21797 41.394507 
L 243.315321 39.814448 
L 244.143814 39.814448 
L 244.143814 39.287762 
L 244.79815 39.287762 
L 244.79815 38.761076 
L 245.06751 38.761076 
L 245.06751 38.23439 
L 246.415895 38.23439 
L 246.437903 36.654332 
L 246.688647 36.654332 
L 246.688647 36.127646 
L 246.828901 36.127646 
L 246.842253 35.074274 
L 247.019088 35.074274 
L 247.019088 34.547588 
L 248.195878 34.547588 
L 248.195878 34.020902 
L 249.532249 34.020902 
L 249.532249 33.494215 
L 249.762459 33.494215 
L 249.805932 32.440843 
L 250.111617 32.440843 
L 250.111617 31.914157 
L 252.45863 31.914157 
L 252.514516 30.860785 
L 258.528329 30.860785 
L 258.528329 30.334099 
L 338.688 30.334099 
L 338.688 30.334099 
" style="fill:none;stroke:#000080;stroke-linecap:square;stroke-width:1.5;"/>
   </g>
   <g id="line2d_31">
    <defs>
     <path d="M 0 6 
C 1.591219 6 3.117479 5.367802 4.242641 4.242641 
C 5.367802 3.117479 6 1.591219 6 0 
C 6 -1.591219 5.367802 -3.117479 4.242641 -4.242641 
C 3.117479 -5.367802 1.591219 -6 0 -6 
C -1.591219 -6 -3.117479 -5.367802 -4.242641 -4.242641 
C -5.367802 -3.117479 -6 -1.591219 -6 0 
C -6 1.591219 -5.367802 3.117479 -4.242641 4.242641 
C -3.117479 5.367802 -1.591219 6 0 6 
z
" id="m1f850dfc91" style="stroke:#000080;stroke-width:1.5;"/>
    </defs>
    <g>
     <use style="fill-opacity:0;stroke:#000080;stroke-width:1.5;" x="140.256979" xlink:href="#m1f850dfc91" y="252.595625"/>
     <use style="fill-opacity:0;stroke:#000080;stroke-width:1.5;" x="184.443556" xlink:href="#m1f850dfc91" y="188.866609"/>
     <use style="fill-opacity:0;stroke:#000080;stroke-width:1.5;" x="231.993313" xlink:href="#m1f850dfc91" y="70.362241"/>
     <use style="fill-opacity:0;stroke:#000080;stroke-width:1.5;" x="258.528329" xlink:href="#m1f850dfc91" y="30.334099"/>
     <use style="fill-opacity:0;stroke:#000080;stroke-width:1.5;" x="258.528329" xlink:href="#m1f850dfc91" y="30.334099"/>
     <use style="fill-opacity:0;stroke:#000080;stroke-width:1.5;" x="338.688" xlink:href="#m1f850dfc91" y="30.334099"/>
    </g>
   </g>
   <g id="line2d_32">
    <path style="fill:none;stroke:#000080;stroke-linecap:square;stroke-width:1.5;"/>
    <g/>
   </g>
   <g id="line2d_33">
    <path clip-path="url(#p24857e2da3)" d="M 218.282298 145.151665 
" style="fill:none;stroke:#000080;stroke-linecap:square;stroke-width:1.5;"/>
    <defs>
     <path d="M -12 12 
L 12 -12 
M -12 -12 
L 12 12 
" id="m6a67e0da0b" style="stroke:#000080;"/>
    </defs>
    <g clip-path="url(#p24857e2da3)">
     <use style="fill:#000080;stroke:#000080;" x="218.282298" xlink:href="#m6a67e0da0b" y="145.151665"/>
    </g>
   </g>
   <g id="line2d_34">
    <defs>
     <path d="M 0 1.5 
C 0.397805 1.5 0.77937 1.341951 1.06066 1.06066 
C 1.341951 0.77937 1.5 0.397805 1.5 0 
C 1.5 -0.397805 1.341951 -0.77937 1.06066 -1.06066 
C 0.77937 -1.341951 0.397805 -1.5 0 -1.5 
C -0.397805 -1.5 -0.77937 -1.341951 -1.06066 -1.06066 
C -1.341951 -0.77937 -1.5 -0.397805 -1.5 0 
C -1.5 0.397805 -1.341951 0.77937 -1.06066 1.06066 
C -0.77937 1.341951 -0.397805 1.5 0 1.5 
z
" id="m180407f2c7" style="stroke:#ff00ff;"/>
    </defs>
    <g>
     <use style="fill:#ff00ff;stroke:#ff00ff;" x="276.371569" xlink:href="#m180407f2c7" y="30.334099"/>
     <use style="fill:#ff00ff;stroke:#ff00ff;" x="276.371569" xlink:href="#m180407f2c7" y="30.334099"/>
    </g>
   </g>
   <g id="line2d_35">
    <path d="M 17.444571 298.944 
L 17.444571 292.097081 
L 63.467834 292.097081 
L 63.467834 291.570395 
L 68.79347 291.570395 
L 68.79347 291.043709 
L 77.884514 291.043709 
L 77.884514 287.883592 
L 87.329581 287.883592 
L 87.329581 287.356906 
L 88.846997 287.356906 
L 88.846997 286.83022 
L 93.644601 286.83022 
L 93.644601 284.723476 
L 97.224242 284.723476 
L 97.224242 283.670104 
L 98.606294 283.670104 
L 98.606294 281.563359 
L 99.258306 281.563359 
L 99.258306 281.036673 
L 99.575392 281.036673 
L 99.575392 280.509987 
L 105.285403 280.509987 
L 105.285403 278.403243 
L 105.621863 278.403243 
L 105.621863 277.876557 
L 109.930396 277.876557 
L 109.930396 277.349871 
L 111.266113 277.349871 
L 111.266113 276.296499 
L 114.148479 276.296499 
L 114.148479 275.769812 
L 116.443076 275.769812 
L 116.443076 275.243126 
L 117.087964 275.243126 
L 117.087964 274.71644 
L 117.202696 274.71644 
L 117.202696 274.189754 
L 118.363901 274.189754 
L 118.363901 273.663068 
L 118.629344 273.663068 
L 118.629344 273.136382 
L 118.942633 273.136382 
L 118.942633 272.609696 
L 121.355214 272.609696 
L 121.355214 272.08301 
L 122.699028 272.08301 
L 122.699028 271.556324 
L 123.111324 271.556324 
L 123.111324 271.029638 
L 124.669438 271.029638 
L 124.669438 270.502952 
L 125.996395 270.502952 
L 125.996395 269.976266 
L 126.405947 269.976266 
L 126.405947 269.449579 
L 126.839037 269.449579 
L 126.839037 268.922893 
L 127.035353 268.922893 
L 127.035353 268.396207 
L 127.261631 268.396207 
L 127.261631 267.869521 
L 127.48501 267.869521 
L 127.48501 267.342835 
L 127.736845 267.342835 
L 127.799239 265.762777 
L 127.985095 265.762777 
L 127.985095 264.709405 
L 128.709321 264.709405 
L 128.709321 264.182719 
L 129.658437 264.182719 
L 129.742212 262.60266 
L 131.030622 262.60266 
L 131.030622 262.075974 
L 131.839545 262.075974 
L 131.839545 261.549288 
L 132.636218 261.549288 
L 132.636218 261.022602 
L 133.124876 261.022602 
L 133.124876 260.495916 
L 135.341343 260.495916 
L 135.341343 259.96923 
L 136.437776 259.96923 
L 136.437776 259.442544 
L 136.738785 259.442544 
L 136.738785 258.915858 
L 136.96118 258.915858 
L 136.96118 258.389172 
L 137.107884 258.389172 
L 137.162581 257.3358 
L 137.576323 257.3358 
L 137.629572 256.282427 
L 137.770782 256.282427 
L 137.770782 255.755741 
L 138.443265 255.755741 
L 138.443265 255.229055 
L 139.509467 255.229055 
L 139.509467 254.702369 
L 140.317849 254.702369 
L 140.317849 254.175683 
L 141.061324 254.175683 
L 141.061324 253.648997 
L 141.307054 253.648997 
L 141.307054 253.122311 
L 142.106582 253.122311 
L 142.106582 252.595625 
L 142.229539 252.595625 
L 142.229539 252.068939 
L 142.553247 252.068939 
L 142.553247 251.542253 
L 143.079756 251.542253 
L 143.079756 251.015567 
L 143.51512 251.015567 
L 143.51512 249.962195 
L 145.665858 249.962195 
L 145.665858 249.435508 
L 146.313254 249.435508 
L 146.313254 248.908822 
L 146.665144 248.908822 
L 146.665144 248.382136 
L 146.989362 248.382136 
L 146.989362 247.85545 
L 147.590249 247.85545 
L 147.590249 247.328764 
L 147.927346 247.328764 
L 147.986163 246.275392 
L 148.601505 246.275392 
L 148.601505 245.748706 
L 148.826773 245.748706 
L 148.826773 245.22202 
L 149.981398 245.22202 
L 149.981398 244.695334 
L 150.682827 244.695334 
L 150.682827 243.641962 
L 151.787359 243.641962 
L 151.787359 241.008531 
L 151.959639 241.008531 
L 151.975216 239.428473 
L 152.114793 239.428473 
L 152.114793 238.901787 
L 152.314453 238.901787 
L 152.314453 236.795043 
L 153.061751 236.795043 
L 153.061751 235.74167 
L 153.509492 235.74167 
L 153.509492 235.214984 
L 154.899894 235.214984 
L 154.899894 232.581554 
L 155.634696 232.581554 
L 155.634696 232.054868 
L 156.285144 232.054868 
L 156.285144 231.528182 
L 157.162628 231.528182 
L 157.162628 229.948123 
L 157.58535 229.948123 
L 157.58535 227.841379 
L 157.697862 227.841379 
L 157.697862 227.314693 
L 158.249784 227.314693 
L 158.249784 226.261321 
L 158.438903 226.261321 
L 158.438903 224.681263 
L 159.753159 224.681263 
L 159.753159 222.047832 
L 160.475629 222.047832 
L 160.499521 220.99446 
L 161.26102 220.99446 
L 161.26102 220.467774 
L 161.8498 220.467774 
L 161.8498 219.414402 
L 162.069386 219.414402 
L 162.069386 217.834344 
L 162.678343 217.834344 
L 162.678343 214.674227 
L 162.875305 214.674227 
L 162.875305 213.620855 
L 164.028135 213.620855 
L 164.028135 213.094169 
L 164.144761 213.094169 
L 164.144761 212.567483 
L 164.325919 212.567483 
L 164.325919 211.514111 
L 165.59035 211.514111 
L 165.59035 209.934052 
L 166.155277 209.934052 
L 166.224193 208.88068 
L 166.58834 208.88068 
L 166.58834 208.353994 
L 167.317213 208.353994 
L 167.317213 206.773936 
L 167.43311 206.773936 
L 167.43311 206.24725 
L 167.567357 206.24725 
L 167.567357 205.193878 
L 167.957782 205.193878 
L 167.957782 204.140506 
L 168.406544 204.140506 
L 168.406544 203.613819 
L 168.811464 203.613819 
L 168.811464 202.560447 
L 169.468969 202.560447 
L 169.468969 202.033761 
L 169.67616 202.033761 
L 169.67616 200.980389 
L 169.98656 200.980389 
L 170.04743 199.400331 
L 170.34592 199.400331 
L 170.34592 198.346959 
L 170.524204 198.346959 
L 170.524204 197.820273 
L 171.348301 197.820273 
L 171.348301 196.7669 
L 171.463278 196.7669 
L 171.509057 193.080098 
L 171.8212 193.080098 
L 171.8212 190.973354 
L 172.988756 190.973354 
L 172.988756 189.919981 
L 173.378696 189.919981 
L 173.378696 188.339923 
L 175.320072 188.339923 
L 175.320072 187.813237 
L 218.420949 187.813237 
L 218.528718 185.179807 
L 218.543961 185.179807 
L 218.643316 179.912946 
L 218.677838 179.912946 
L 218.7788 173.592713 
L 218.82165 173.592713 
L 218.928988 168.852538 
L 218.936857 168.852538 
L 218.997512 164.112363 
L 219.054467 164.112363 
L 219.15179 159.898875 
L 219.196373 159.898875 
L 219.307336 156.738758 
L 219.318312 156.738758 
L 219.400166 151.471897 
L 219.478879 151.471897 
L 219.50628 148.838467 
L 219.644571 148.838467 
L 219.644571 148.311781 
L 230.472089 148.311781 
L 230.577251 137.251373 
L 230.587552 137.251373 
L 230.671025 128.29771 
L 230.731134 128.29771 
L 230.834497 120.397419 
L 230.896997 120.397419 
L 230.963894 116.18393 
L 231.035722 116.18393 
L 231.035722 115.657244 
L 237.488917 115.657244 
L 237.583118 108.283639 
L 237.601266 108.283639 
L 237.703426 97.223231 
L 237.726351 97.223231 
L 237.774442 95.116487 
L 242.479204 95.116487 
L 242.579374 86.68951 
L 242.591667 86.68951 
L 242.699939 80.369277 
L 242.727854 80.369277 
L 242.7664 78.262532 
L 246.366379 78.262532 
L 246.476627 71.415613 
L 246.479318 71.415613 
L 246.531405 68.782183 
L 249.533146 68.782183 
L 249.6351 60.881892 
L 249.647618 60.881892 
L 249.689628 58.775147 
L 252.208334 58.775147 
L 252.316425 49.821484 
L 252.326938 49.821484 
L 252.342375 48.241426 
L 254.543482 48.241426 
L 254.637567 41.921193 
L 256.583604 41.921193 
L 256.665152 37.181018 
L 258.414719 37.181018 
L 258.471166 35.074274 
L 260.081404 35.074274 
L 260.146948 33.494215 
L 261.603447 33.494215 
L 261.648074 31.914157 
L 263.018236 31.914157 
L 263.018236 31.387471 
L 265.490663 31.387471 
L 265.490663 30.860785 
L 276.371569 30.860785 
L 276.371569 30.334099 
L 338.688 30.334099 
L 338.688 30.334099 
" style="fill:none;stroke:#ff00ff;stroke-linecap:square;stroke-width:1.5;"/>
   </g>
   <g id="line2d_36">
    <defs>
     <path d="M 0 8.485281 
L 5.091169 0 
L 0 -8.485281 
L -5.091169 0 
z
" id="m5a348c874b" style="stroke:#ff00ff;stroke-linejoin:miter;stroke-width:1.5;"/>
    </defs>
    <g>
     <use style="fill-opacity:0;stroke:#ff00ff;stroke-linejoin:miter;stroke-width:1.5;" x="147.590249" xlink:href="#m5a348c874b" y="247.328764"/>
     <use style="fill-opacity:0;stroke:#ff00ff;stroke-linejoin:miter;stroke-width:1.5;" x="218.936857" xlink:href="#m5a348c874b" y="166.745794"/>
     <use style="fill-opacity:0;stroke:#ff00ff;stroke-linejoin:miter;stroke-width:1.5;" x="242.7664" xlink:href="#m5a348c874b" y="78.262532"/>
     <use style="fill-opacity:0;stroke:#ff00ff;stroke-linejoin:miter;stroke-width:1.5;" x="276.371569" xlink:href="#m5a348c874b" y="30.334099"/>
     <use style="fill-opacity:0;stroke:#ff00ff;stroke-linejoin:miter;stroke-width:1.5;" x="276.371569" xlink:href="#m5a348c874b" y="30.334099"/>
     <use style="fill-opacity:0;stroke:#ff00ff;stroke-linejoin:miter;stroke-width:1.5;" x="338.688" xlink:href="#m5a348c874b" y="30.334099"/>
    </g>
   </g>
   <g id="line2d_37">
    <path style="fill:none;stroke:#ff00ff;stroke-linecap:square;stroke-width:1.5;"/>
    <g/>
   </g>
   <g id="line2d_38">
    <path clip-path="url(#p24857e2da3)" d="M 218.221889 187.813237 
" style="fill:none;stroke:#ff00ff;stroke-linecap:square;stroke-width:1.5;"/>
    <defs>
     <path d="M -12 12 
L 12 -12 
M -12 -12 
L 12 12 
" id="m9edf69af8d" style="stroke:#ff00ff;"/>
    </defs>
    <g clip-path="url(#p24857e2da3)">
     <use style="fill:#ff00ff;stroke:#ff00ff;" x="218.221889" xlink:href="#m9edf69af8d" y="187.813237"/>
    </g>
   </g>
   <g id="line2d_39">
    <defs>
     <path d="M 0 1.5 
C 0.397805 1.5 0.77937 1.341951 1.06066 1.06066 
C 1.341951 0.77937 1.5 0.397805 1.5 0 
C 1.5 -0.397805 1.341951 -0.77937 1.06066 -1.06066 
C 0.77937 -1.341951 0.397805 -1.5 0 -1.5 
C -0.397805 -1.5 -0.77937 -1.341951 -1.06066 -1.06066 
C -1.341951 -0.77937 -1.5 -0.397805 -1.5 0 
C -1.5 0.397805 -1.341951 0.77937 -1.06066 1.06066 
C -0.77937 1.341951 -0.397805 1.5 0 1.5 
z
" id="m702ada0677" style="stroke:#ff7500;"/>
    </defs>
    <g>
     <use style="fill:#ff7500;stroke:#ff7500;" x="268.576208" xlink:href="#m702ada0677" y="251.542253"/>
     <use style="fill:#ff7500;stroke:#ff7500;" x="268.576208" xlink:href="#m702ada0677" y="251.542253"/>
    </g>
   </g>
   <g id="line2d_40">
    <path d="M 17.444571 298.944 
L 17.444571 297.890628 
L 48.691568 297.890628 
L 48.691568 297.363942 
L 53.708537 297.363942 
L 53.708537 296.837256 
L 62.175444 296.837256 
L 62.175444 294.730511 
L 67.850577 294.730511 
L 67.850577 293.150453 
L 71.35013 293.150453 
L 71.35013 292.623767 
L 72.867545 292.623767 
L 72.867545 290.517023 
L 76.16779 290.517023 
L 76.16779 289.990337 
L 79.447285 289.990337 
L 79.447285 289.463651 
L 79.938565 289.463651 
L 79.938565 288.410278 
L 81.334453 288.410278 
L 81.334453 286.83022 
L 82.626842 286.83022 
L 82.626842 286.303534 
L 84.955534 286.303534 
L 84.955534 285.776848 
L 86.351421 285.776848 
L 86.351421 284.723476 
L 87.009585 284.723476 
L 87.009585 284.19679 
L 88.553893 284.19679 
L 88.553893 283.670104 
L 89.418828 283.670104 
L 89.418828 282.616732 
L 90.509138 282.616732 
L 90.509138 281.563359 
L 91.284345 281.563359 
L 91.284345 281.036673 
L 98.100772 281.036673 
L 98.100772 279.983301 
L 107.314272 279.983301 
L 107.314272 279.456615 
L 108.389302 279.456615 
L 108.389302 278.929929 
L 108.948899 278.929929 
L 108.948899 278.403243 
L 109.930396 278.403243 
L 109.930396 277.876557 
L 114.351658 277.876557 
L 114.418861 276.296499 
L 114.685115 276.296499 
L 114.685115 275.769812 
L 116.323218 275.769812 
L 116.323218 275.243126 
L 116.739166 275.243126 
L 116.739166 274.71644 
L 125.110962 274.71644 
L 125.110962 274.189754 
L 127.674226 274.189754 
L 127.674226 273.663068 
L 135.076644 273.663068 
L 135.076644 273.136382 
L 141.648175 273.136382 
L 141.648175 272.609696 
L 142.297475 272.609696 
L 142.297475 271.556324 
L 153.366312 271.556324 
L 153.366312 271.029638 
L 154.235652 271.029638 
L 154.235652 269.976266 
L 157.029126 269.976266 
L 157.029126 268.922893 
L 160.566247 268.922893 
L 160.566247 268.396207 
L 169.371623 268.396207 
L 169.371623 267.869521 
L 170.236975 267.869521 
L 170.236975 267.342835 
L 171.191225 267.342835 
L 171.191225 266.816149 
L 173.924525 266.816149 
L 173.924525 265.762777 
L 176.746239 265.762777 
L 176.746239 265.236091 
L 178.141114 265.236091 
L 178.141114 264.709405 
L 185.570195 264.709405 
L 185.570195 264.182719 
L 186.549283 264.182719 
L 186.613497 262.60266 
L 186.705126 262.60266 
L 186.705126 262.075974 
L 191.852841 262.075974 
L 191.852841 261.549288 
L 192.374944 261.549288 
L 192.374944 261.022602 
L 192.533901 261.022602 
L 192.533901 260.495916 
L 198.119841 260.495916 
L 198.119841 259.96923 
L 199.923534 259.96923 
L 199.9946 258.915858 
L 201.682286 258.915858 
L 201.682286 258.389172 
L 209.866258 258.389172 
L 209.866258 257.862486 
L 214.244589 257.862486 
L 214.244589 257.3358 
L 220.849847 257.3358 
L 220.849847 256.809114 
L 221.821114 256.809114 
L 221.821114 256.282427 
L 231.67323 256.282427 
L 231.67323 255.229055 
L 232.202101 255.229055 
L 232.202101 254.702369 
L 242.164679 254.702369 
L 242.164679 254.175683 
L 246.102994 254.175683 
L 246.102994 253.648997 
L 249.935167 253.648997 
L 249.935167 253.122311 
L 252.02422 253.122311 
L 252.02422 252.595625 
L 264.446416 252.595625 
L 264.446416 252.068939 
L 268.576208 252.068939 
L 268.576208 251.542253 
L 338.688 251.542253 
L 338.688 251.542253 
" style="fill:none;stroke:#ff7500;stroke-linecap:square;stroke-width:1.5;"/>
   </g>
   <g id="line2d_41">
    <defs>
     <path d="M 0 -6 
L -1.347084 -1.854102 
L -5.706339 -1.854102 
L -2.179628 0.708204 
L -3.526712 4.854102 
L -0 2.291796 
L 3.526712 4.854102 
L 2.179628 0.708204 
L 5.706339 -1.854102 
L 1.347084 -1.854102 
z
" id="m1301946f78" style="stroke:#ff7500;stroke-linejoin:bevel;stroke-width:1.5;"/>
    </defs>
    <g>
     <use style="fill-opacity:0;stroke:#ff7500;stroke-linejoin:bevel;stroke-width:1.5;" x="98.100772" xlink:href="#m1301946f78" y="279.983301"/>
     <use style="fill-opacity:0;stroke:#ff7500;stroke-linejoin:bevel;stroke-width:1.5;" x="153.366312" xlink:href="#m1301946f78" y="271.029638"/>
     <use style="fill-opacity:0;stroke:#ff7500;stroke-linejoin:bevel;stroke-width:1.5;" x="220.849847" xlink:href="#m1301946f78" y="257.3358"/>
     <use style="fill-opacity:0;stroke:#ff7500;stroke-linejoin:bevel;stroke-width:1.5;" x="268.576208" xlink:href="#m1301946f78" y="251.542253"/>
     <use style="fill-opacity:0;stroke:#ff7500;stroke-linejoin:bevel;stroke-width:1.5;" x="268.576208" xlink:href="#m1301946f78" y="251.542253"/>
     <use style="fill-opacity:0;stroke:#ff7500;stroke-linejoin:bevel;stroke-width:1.5;" x="338.688" xlink:href="#m1301946f78" y="251.542253"/>
    </g>
   </g>
   <g id="line2d_42">
    <path style="fill:none;stroke:#ff7500;stroke-linecap:square;stroke-width:1.5;"/>
    <g/>
   </g>
   <g id="line2d_43">
    <path clip-path="url(#p24857e2da3)" d="M 218.221714 257.3358 
" style="fill:none;stroke:#ff7500;stroke-linecap:square;stroke-width:1.5;"/>
    <defs>
     <path d="M -12 12 
L 12 -12 
M -12 -12 
L 12 12 
" id="mb392553f19" style="stroke:#ff7500;"/>
    </defs>
    <g clip-path="url(#p24857e2da3)">
     <use style="fill:#ff7500;stroke:#ff7500;" x="218.221714" xlink:href="#mb392553f19" y="257.3358"/>
    </g>
   </g>
   <g id="line2d_44">
    <defs>
     <path d="M 0 1.5 
C 0.397805 1.5 0.77937 1.341951 1.06066 1.06066 
C 1.341951 0.77937 1.5 0.397805 1.5 0 
C 1.5 -0.397805 1.341951 -0.77937 1.06066 -1.06066 
C 0.77937 -1.341951 0.397805 -1.5 0 -1.5 
C -0.397805 -1.5 -0.77937 -1.341951 -1.06066 -1.06066 
C -1.341951 -0.77937 -1.5 -0.397805 -1.5 0 
C -1.5 0.397805 -1.341951 0.77937 -1.06066 1.06066 
C -0.77937 1.341951 -0.397805 1.5 0 1.5 
z
" id="m4050a99b39" style="stroke:#6495ed;"/>
    </defs>
    <g>
     <use style="fill:#6495ed;stroke:#6495ed;" x="211.196499" xlink:href="#m4050a99b39" y="193.606784"/>
     <use style="fill:#6495ed;stroke:#6495ed;" x="211.196499" xlink:href="#m4050a99b39" y="193.606784"/>
    </g>
   </g>
   <g id="line2d_45">
    <path d="M 17.444571 298.944 
L 17.444571 296.837256 
L 29.53256 296.837256 
L 29.53256 295.783884 
L 36.60358 295.783884 
L 36.60358 293.677139 
L 51.379845 293.677139 
L 51.379845 293.150453 
L 53.708537 293.150453 
L 53.708537 292.623767 
L 55.762588 292.623767 
L 55.762588 291.570395 
L 67.850577 291.570395 
L 67.850577 291.043709 
L 68.79347 291.043709 
L 68.79347 290.517023 
L 70.538854 290.517023 
L 70.538854 289.990337 
L 71.35013 289.990337 
L 71.35013 289.463651 
L 72.125336 289.463651 
L 72.125336 288.936964 
L 72.867545 288.936964 
L 72.867545 287.356906 
L 75.555822 287.356906 
L 75.555822 286.303534 
L 76.759008 286.303534 
L 76.759008 284.723476 
L 77.330839 284.723476 
L 77.330839 283.143418 
L 79.447285 283.143418 
L 79.447285 282.616732 
L 81.775977 282.616732 
L 81.775977 281.563359 
L 84.588378 281.563359 
L 84.588378 281.036673 
L 85.315119 281.036673 
L 85.315119 280.509987 
L 88.553893 280.509987 
L 88.553893 279.983301 
L 89.697862 279.983301 
L 89.697862 278.929929 
L 91.535274 278.929929 
L 91.535274 276.823185 
L 93.197415 276.823185 
L 93.197415 276.296499 
L 94.505975 276.296499 
L 94.505975 275.769812 
L 96.86091 275.769812 
L 96.86091 275.243126 
L 97.403108 275.243126 
L 97.403108 274.71644 
L 104.355088 274.71644 
L 104.355088 274.189754 
L 104.826449 274.189754 
L 104.826449 273.663068 
L 105.285403 273.663068 
L 105.285403 273.136382 
L 105.398279 273.136382 
L 105.398279 272.609696 
L 106.06061 272.609696 
L 106.168594 271.029638 
L 106.593963 271.029638 
L 106.698704 269.976266 
L 109.579846 269.976266 
L 109.579846 269.449579 
L 109.756002 269.449579 
L 109.756002 268.922893 
L 110.77713 268.922893 
L 110.77713 268.396207 
L 112.280765 268.396207 
L 112.280765 267.869521 
L 112.431755 267.869521 
L 112.431755 266.289463 
L 113.524343 266.289463 
L 113.524343 265.762777 
L 113.942906 265.762777 
L 113.942906 265.236091 
L 114.947365 265.236091 
L 114.947365 264.709405 
L 115.397021 264.709405 
L 115.397021 263.656033 
L 115.711251 263.656033 
L 115.711251 263.129347 
L 118.890808 263.129347 
L 118.890808 262.60266 
L 119.80089 262.60266 
L 119.80089 261.022602 
L 121.53454 261.022602 
L 121.53454 260.495916 
L 122.148045 260.495916 
L 122.148045 259.96923 
L 122.276749 259.96923 
L 122.276749 259.442544 
L 122.44689 259.442544 
L 122.44689 258.915858 
L 122.906394 258.915858 
L 122.906394 258.389172 
L 123.394238 258.389172 
L 123.394238 257.862486 
L 124.406624 257.862486 
L 124.406624 257.3358 
L 126.573795 257.3358 
L 126.573795 256.809114 
L 128.501178 256.809114 
L 128.501178 256.282427 
L 128.650105 256.282427 
L 128.738855 255.229055 
L 128.973336 255.229055 
L 128.973336 254.702369 
L 130.926816 254.702369 
L 130.926816 254.175683 
L 133.77794 254.175683 
L 133.866129 253.122311 
L 134.55603 253.122311 
L 134.55603 252.595625 
L 134.911732 252.595625 
L 134.911732 251.542253 
L 135.219673 251.542253 
L 135.219673 251.015567 
L 137.217107 251.015567 
L 137.217107 250.488881 
L 137.540732 250.488881 
L 137.540732 249.962195 
L 142.147664 249.962195 
L 142.147664 249.435508 
L 143.196061 249.435508 
L 143.196061 248.382136 
L 146.854132 248.382136 
L 146.854132 247.85545 
L 147.620256 247.85545 
L 147.620256 247.328764 
L 148.40198 247.328764 
L 148.40198 246.802078 
L 148.563676 246.802078 
L 148.563676 246.275392 
L 152.840905 246.275392 
L 152.840905 244.695334 
L 153.236437 244.695334 
L 153.236437 244.168648 
L 154.310719 244.168648 
L 154.310719 243.641962 
L 154.459889 243.641962 
L 154.459889 243.115275 
L 156.021696 243.115275 
L 156.126326 239.428473 
L 159.015067 239.428473 
L 159.015067 237.848415 
L 159.293606 237.848415 
L 159.293606 237.321729 
L 160.20577 237.321729 
L 160.20577 236.268356 
L 161.141761 236.268356 
L 161.141761 235.74167 
L 161.306672 235.74167 
L 161.384008 234.161612 
L 163.246367 234.161612 
L 163.246367 232.581554 
L 163.565696 232.581554 
L 163.565696 231.528182 
L 164.490028 231.528182 
L 164.490028 231.001496 
L 165.418321 231.001496 
L 165.418321 229.948123 
L 166.91201 229.948123 
L 166.91201 228.894751 
L 167.171249 228.894751 
L 167.171249 228.368065 
L 167.926618 228.368065 
L 167.926618 227.841379 
L 168.641643 227.841379 
L 168.692465 225.734635 
L 169.939378 225.734635 
L 169.939378 225.207949 
L 170.157562 225.207949 
L 170.157562 224.681263 
L 172.518131 224.681263 
L 172.518131 223.101204 
L 172.706485 223.101204 
L 172.706485 222.047832 
L 173.789104 222.047832 
L 173.789104 221.521146 
L 174.764225 221.521146 
L 174.764225 220.99446 
L 175.886437 220.99446 
L 175.919999 219.941088 
L 176.901672 219.941088 
L 176.901672 219.414402 
L 177.783229 219.414402 
L 177.783229 218.887716 
L 178.53939 218.887716 
L 178.53939 218.36103 
L 178.67296 218.36103 
L 178.67296 215.727599 
L 179.054462 215.727599 
L 179.06764 214.674227 
L 180.159048 214.674227 
L 180.159048 213.620855 
L 181.752859 213.620855 
L 181.752859 212.567483 
L 182.428477 212.567483 
L 182.428477 212.040797 
L 183.417053 212.040797 
L 183.417053 210.987425 
L 184.273356 210.987425 
L 184.369601 209.934052 
L 184.932651 209.934052 
L 184.932651 209.407366 
L 185.544091 209.407366 
L 185.544091 208.88068 
L 186.644449 208.88068 
L 186.644449 207.827308 
L 187.679479 207.827308 
L 187.679479 207.300622 
L 188.581281 207.300622 
L 188.581281 206.773936 
L 189.581688 206.773936 
L 189.581688 206.24725 
L 190.392431 206.24725 
L 190.392431 205.720564 
L 191.232029 205.720564 
L 191.296666 204.667192 
L 191.690718 204.667192 
L 191.690718 204.140506 
L 192.033055 204.140506 
L 192.033055 203.613819 
L 192.857991 203.613819 
L 192.857991 203.087133 
L 193.53252 203.087133 
L 193.589182 202.033761 
L 193.935171 202.033761 
L 193.935171 201.507075 
L 197.429873 201.507075 
L 197.429873 200.980389 
L 198.26448 200.980389 
L 198.26448 200.453703 
L 199.03216 200.453703 
L 199.03216 199.927017 
L 199.326819 199.927017 
L 199.326819 199.400331 
L 200.537562 199.400331 
L 200.5755 198.346959 
L 201.048728 198.346959 
L 201.048728 197.820273 
L 201.616884 197.820273 
L 201.616884 197.293586 
L 201.923276 197.293586 
L 201.923276 196.7669 
L 203.646465 196.7669 
L 203.646465 196.240214 
L 204.783557 196.240214 
L 204.783557 195.713528 
L 207.343282 195.713528 
L 207.343282 195.186842 
L 209.702454 195.186842 
L 209.702454 194.660156 
L 210.534983 194.660156 
L 210.534983 194.13347 
L 211.196499 194.13347 
L 211.196499 193.606784 
L 338.688 193.606784 
L 338.688 193.606784 
" style="fill:none;stroke:#6495ed;stroke-linecap:square;stroke-width:1.5;"/>
   </g>
   <g id="line2d_46">
    <defs>
     <path d="M -0 6 
L 6 -6 
L -6 -6 
z
" id="me14ba459a6" style="stroke:#6495ed;stroke-linejoin:miter;stroke-width:1.5;"/>
    </defs>
    <g>
     <use style="fill-opacity:0;stroke:#6495ed;stroke-linejoin:miter;stroke-width:1.5;" x="85.315119" xlink:href="#me14ba459a6" y="280.509987"/>
     <use style="fill-opacity:0;stroke:#6495ed;stroke-linejoin:miter;stroke-width:1.5;" x="143.196061" xlink:href="#me14ba459a6" y="248.382136"/>
     <use style="fill-opacity:0;stroke:#6495ed;stroke-linejoin:miter;stroke-width:1.5;" x="204.783557" xlink:href="#me14ba459a6" y="195.713528"/>
     <use style="fill-opacity:0;stroke:#6495ed;stroke-linejoin:miter;stroke-width:1.5;" x="211.196499" xlink:href="#me14ba459a6" y="193.606784"/>
     <use style="fill-opacity:0;stroke:#6495ed;stroke-linejoin:miter;stroke-width:1.5;" x="211.196499" xlink:href="#me14ba459a6" y="193.606784"/>
     <use style="fill-opacity:0;stroke:#6495ed;stroke-linejoin:miter;stroke-width:1.5;" x="338.688" xlink:href="#me14ba459a6" y="193.606784"/>
    </g>
   </g>
   <g id="line2d_47">
    <path style="fill:none;stroke:#6495ed;stroke-linecap:square;stroke-width:1.5;"/>
    <g/>
   </g>
   <g id="line2d_48">
    <path clip-path="url(#p24857e2da3)" d="M 137.910857 249.962195 
" style="fill:none;stroke:#6495ed;stroke-linecap:square;stroke-width:1.5;"/>
    <defs>
     <path d="M -12 12 
L 12 -12 
M -12 -12 
L 12 12 
" id="mb9181635ed" style="stroke:#6495ed;"/>
    </defs>
    <g clip-path="url(#p24857e2da3)">
     <use style="fill:#6495ed;stroke:#6495ed;" x="137.910857" xlink:href="#mb9181635ed" y="249.962195"/>
    </g>
   </g>
   <g id="line2d_49">
    <path d="M 338.688 251.542253 
L 369.60768 293.571802 
" style="fill:none;stroke:#ff7500;stroke-linecap:square;stroke-width:1.5;"/>
    <g>
     <use style="fill-opacity:0;stroke:#ff7500;stroke-linejoin:bevel;stroke-width:1.5;" x="338.688" xlink:href="#m1301946f78" y="251.542253"/>
     <use style="fill-opacity:0;stroke:#ff7500;stroke-linejoin:bevel;stroke-width:1.5;" x="369.60768" xlink:href="#m1301946f78" y="293.571802"/>
    </g>
   </g>
   <g id="line2d_50">
    <path d="M 338.688 193.606784 
L 369.60768 207.616634 
" style="fill:none;stroke:#6495ed;stroke-linecap:square;stroke-width:1.5;"/>
    <g>
     <use style="fill-opacity:0;stroke:#6495ed;stroke-linejoin:miter;stroke-width:1.5;" x="338.688" xlink:href="#me14ba459a6" y="193.606784"/>
     <use style="fill-opacity:0;stroke:#6495ed;stroke-linejoin:miter;stroke-width:1.5;" x="369.60768" xlink:href="#me14ba459a6" y="207.616634"/>
    </g>
   </g>
   <g id="line2d_51">
    <path d="M 338.688 30.334099 
L 369.60768 121.661465 
" style="fill:none;stroke:#ff00ff;stroke-linecap:square;stroke-width:1.5;"/>
    <g>
     <use style="fill-opacity:0;stroke:#ff00ff;stroke-linejoin:miter;stroke-width:1.5;" x="338.688" xlink:href="#m5a348c874b" y="30.334099"/>
     <use style="fill-opacity:0;stroke:#ff00ff;stroke-linejoin:miter;stroke-width:1.5;" x="369.60768" xlink:href="#m5a348c874b" y="121.661465"/>
    </g>
   </g>
   <g id="line2d_52">
    <path d="M 338.688 30.334099 
L 369.60768 35.706297 
" style="fill:none;stroke:#000080;stroke-linecap:square;stroke-width:1.5;"/>
    <g>
     <use style="fill-opacity:0;stroke:#000080;stroke-width:1.5;" x="338.688" xlink:href="#m1f850dfc91" y="30.334099"/>
     <use style="fill-opacity:0;stroke:#000080;stroke-width:1.5;" x="369.60768" xlink:href="#m1f850dfc91" y="35.706297"/>
    </g>
   </g>
   <g id="line2d_53">
    <path d="M 338.688 298.944 
L 338.688 30.334099 
" style="fill:none;stroke:#000000;stroke-linecap:square;stroke-width:1.5;"/>
   </g>
   <g id="patch_3">
    <path d="M 57.6 298.944 
L 57.6 27.648 
" style="fill:none;stroke:#000000;stroke-linecap:square;stroke-linejoin:miter;stroke-width:0.8;"/>
   </g>
   <g id="patch_4">
    <path d="M 338.688 298.944 
L 338.688 27.648 
" style="fill:none;stroke:#000000;stroke-linecap:square;stroke-linejoin:miter;stroke-width:0.8;"/>
   </g>
   <g id="patch_5">
    <path d="M 57.6 298.944 
L 338.688 298.944 
" style="fill:none;stroke:#000000;stroke-linecap:square;stroke-linejoin:miter;stroke-width:0.8;"/>
   </g>
   <g id="patch_6">
    <path d="M 57.6 27.648 
L 338.688 27.648 
" style="fill:none;stroke:#000000;stroke-linecap:square;stroke-linejoin:miter;stroke-width:0.8;"/>
   </g>
   <g id="text_13">
    <!-- RANDOMSEA -->
    <g transform="translate(375.22944 298.262739)scale(0.17 -0.17)">
     <defs>
      <path d="M 2841 2188 
Q 3044 2119 3236 1894 
Q 3428 1669 3622 1275 
L 4263 0 
L 3584 0 
L 2988 1197 
Q 2756 1666 2539 1819 
Q 2322 1972 1947 1972 
L 1259 1972 
L 1259 0 
L 628 0 
L 628 4666 
L 2053 4666 
Q 2853 4666 3247 4331 
Q 3641 3997 3641 3322 
Q 3641 2881 3436 2590 
Q 3231 2300 2841 2188 
z
M 1259 4147 
L 1259 2491 
L 2053 2491 
Q 2509 2491 2742 2702 
Q 2975 2913 2975 3322 
Q 2975 3731 2742 3939 
Q 2509 4147 2053 4147 
L 1259 4147 
z
" id="DejaVuSans-52" transform="scale(0.015625)"/>
      <path d="M 2188 4044 
L 1331 1722 
L 3047 1722 
L 2188 4044 
z
M 1831 4666 
L 2547 4666 
L 4325 0 
L 3669 0 
L 3244 1197 
L 1141 1197 
L 716 0 
L 50 0 
L 1831 4666 
z
" id="DejaVuSans-41" transform="scale(0.015625)"/>
      <path d="M 628 4666 
L 1478 4666 
L 3547 763 
L 3547 4666 
L 4159 4666 
L 4159 0 
L 3309 0 
L 1241 3903 
L 1241 0 
L 628 0 
L 628 4666 
z
" id="DejaVuSans-4e" transform="scale(0.015625)"/>
      <path d="M 1259 4147 
L 1259 519 
L 2022 519 
Q 2988 519 3436 956 
Q 3884 1394 3884 2338 
Q 3884 3275 3436 3711 
Q 2988 4147 2022 4147 
L 1259 4147 
z
M 628 4666 
L 1925 4666 
Q 3281 4666 3915 4102 
Q 4550 3538 4550 2338 
Q 4550 1131 3912 565 
Q 3275 0 1925 0 
L 628 0 
L 628 4666 
z
" id="DejaVuSans-44" transform="scale(0.015625)"/>
      <path d="M 2522 4238 
Q 1834 4238 1429 3725 
Q 1025 3213 1025 2328 
Q 1025 1447 1429 934 
Q 1834 422 2522 422 
Q 3209 422 3611 934 
Q 4013 1447 4013 2328 
Q 4013 3213 3611 3725 
Q 3209 4238 2522 4238 
z
M 2522 4750 
Q 3503 4750 4090 4092 
Q 4678 3434 4678 2328 
Q 4678 1225 4090 567 
Q 3503 -91 2522 -91 
Q 1538 -91 948 565 
Q 359 1222 359 2328 
Q 359 3434 948 4092 
Q 1538 4750 2522 4750 
z
" id="DejaVuSans-4f" transform="scale(0.015625)"/>
      <path d="M 628 4666 
L 1569 4666 
L 2759 1491 
L 3956 4666 
L 4897 4666 
L 4897 0 
L 4281 0 
L 4281 4097 
L 3078 897 
L 2444 897 
L 1241 4097 
L 1241 0 
L 628 0 
L 628 4666 
z
" id="DejaVuSans-4d" transform="scale(0.015625)"/>
      <path d="M 3425 4513 
L 3425 3897 
Q 3066 4069 2747 4153 
Q 2428 4238 2131 4238 
Q 1616 4238 1336 4038 
Q 1056 3838 1056 3469 
Q 1056 3159 1242 3001 
Q 1428 2844 1947 2747 
L 2328 2669 
Q 3034 2534 3370 2195 
Q 3706 1856 3706 1288 
Q 3706 609 3251 259 
Q 2797 -91 1919 -91 
Q 1588 -91 1214 -16 
Q 841 59 441 206 
L 441 856 
Q 825 641 1194 531 
Q 1563 422 1919 422 
Q 2459 422 2753 634 
Q 3047 847 3047 1241 
Q 3047 1584 2836 1778 
Q 2625 1972 2144 2069 
L 1759 2144 
Q 1053 2284 737 2584 
Q 422 2884 422 3419 
Q 422 4038 858 4394 
Q 1294 4750 2059 4750 
Q 2388 4750 2728 4690 
Q 3069 4631 3425 4513 
z
" id="DejaVuSans-53" transform="scale(0.015625)"/>
      <path d="M 628 4666 
L 3578 4666 
L 3578 4134 
L 1259 4134 
L 1259 2753 
L 3481 2753 
L 3481 2222 
L 1259 2222 
L 1259 531 
L 3634 531 
L 3634 0 
L 628 0 
L 628 4666 
z
" id="DejaVuSans-45" transform="scale(0.015625)"/>
     </defs>
     <use xlink:href="#DejaVuSans-52"/>
     <use x="65.482422" xlink:href="#DejaVuSans-41"/>
     <use x="133.890625" xlink:href="#DejaVuSans-4e"/>
     <use x="208.695312" xlink:href="#DejaVuSans-44"/>
     <use x="285.697266" xlink:href="#DejaVuSans-4f"/>
     <use x="364.408203" xlink:href="#DejaVuSans-4d"/>
     <use x="450.6875" xlink:href="#DejaVuSans-53"/>
     <use x="514.164062" xlink:href="#DejaVuSans-45"/>
     <use x="577.347656" xlink:href="#DejaVuSans-41"/>
    </g>
   </g>
   <g id="text_14">
    <!-- TPE-hyper -->
    <g transform="translate(375.22944 212.307571)scale(0.17 -0.17)">
     <defs>
      <path d="M -19 4666 
L 3928 4666 
L 3928 4134 
L 2272 4134 
L 2272 0 
L 1638 0 
L 1638 4134 
L -19 4134 
L -19 4666 
z
" id="DejaVuSans-54" transform="scale(0.015625)"/>
      <path d="M 1259 4147 
L 1259 2394 
L 2053 2394 
Q 2494 2394 2734 2622 
Q 2975 2850 2975 3272 
Q 2975 3691 2734 3919 
Q 2494 4147 2053 4147 
L 1259 4147 
z
M 628 4666 
L 2053 4666 
Q 2838 4666 3239 4311 
Q 3641 3956 3641 3272 
Q 3641 2581 3239 2228 
Q 2838 1875 2053 1875 
L 1259 1875 
L 1259 0 
L 628 0 
L 628 4666 
z
" id="DejaVuSans-50" transform="scale(0.015625)"/>
      <path d="M 3513 2113 
L 3513 0 
L 2938 0 
L 2938 2094 
Q 2938 2591 2744 2837 
Q 2550 3084 2163 3084 
Q 1697 3084 1428 2787 
Q 1159 2491 1159 1978 
L 1159 0 
L 581 0 
L 581 4863 
L 1159 4863 
L 1159 2956 
Q 1366 3272 1645 3428 
Q 1925 3584 2291 3584 
Q 2894 3584 3203 3211 
Q 3513 2838 3513 2113 
z
" id="DejaVuSans-68" transform="scale(0.015625)"/>
      <path d="M 2059 -325 
Q 1816 -950 1584 -1140 
Q 1353 -1331 966 -1331 
L 506 -1331 
L 506 -850 
L 844 -850 
Q 1081 -850 1212 -737 
Q 1344 -625 1503 -206 
L 1606 56 
L 191 3500 
L 800 3500 
L 1894 763 
L 2988 3500 
L 3597 3500 
L 2059 -325 
z
" id="DejaVuSans-79" transform="scale(0.015625)"/>
     </defs>
     <use xlink:href="#DejaVuSans-54"/>
     <use x="61.083984" xlink:href="#DejaVuSans-50"/>
     <use x="121.386719" xlink:href="#DejaVuSans-45"/>
     <use x="184.570312" xlink:href="#DejaVuSans-2d"/>
     <use x="220.654297" xlink:href="#DejaVuSans-68"/>
     <use x="284.033203" xlink:href="#DejaVuSans-79"/>
     <use x="343.212891" xlink:href="#DejaVuSans-70"/>
     <use x="406.689453" xlink:href="#DejaVuSans-65"/>
     <use x="468.212891" xlink:href="#DejaVuSans-72"/>
    </g>
   </g>
   <g id="text_15">
    <!-- DE-scipy -->
    <g transform="translate(375.22944 126.352403)scale(0.17 -0.17)">
     <use xlink:href="#DejaVuSans-44"/>
     <use x="77.001953" xlink:href="#DejaVuSans-45"/>
     <use x="140.185547" xlink:href="#DejaVuSans-2d"/>
     <use x="176.269531" xlink:href="#DejaVuSans-73"/>
     <use x="228.369141" xlink:href="#DejaVuSans-63"/>
     <use x="283.349609" xlink:href="#DejaVuSans-69"/>
     <use x="311.132812" xlink:href="#DejaVuSans-70"/>
     <use x="374.609375" xlink:href="#DejaVuSans-79"/>
    </g>
   </g>
   <g id="text_16">
    <!-- CMA-ES-py -->
    <g transform="translate(375.22944 40.397235)scale(0.17 -0.17)">
     <defs>
      <path d="M 4122 4306 
L 4122 3641 
Q 3803 3938 3442 4084 
Q 3081 4231 2675 4231 
Q 1875 4231 1450 3742 
Q 1025 3253 1025 2328 
Q 1025 1406 1450 917 
Q 1875 428 2675 428 
Q 3081 428 3442 575 
Q 3803 722 4122 1019 
L 4122 359 
Q 3791 134 3420 21 
Q 3050 -91 2638 -91 
Q 1578 -91 968 557 
Q 359 1206 359 2328 
Q 359 3453 968 4101 
Q 1578 4750 2638 4750 
Q 3056 4750 3426 4639 
Q 3797 4528 4122 4306 
z
" id="DejaVuSans-43" transform="scale(0.015625)"/>
     </defs>
     <use xlink:href="#DejaVuSans-43"/>
     <use x="69.824219" xlink:href="#DejaVuSans-4d"/>
     <use x="156.103516" xlink:href="#DejaVuSans-41"/>
     <use x="222.261719" xlink:href="#DejaVuSans-2d"/>
     <use x="258.345703" xlink:href="#DejaVuSans-45"/>
     <use x="321.529297" xlink:href="#DejaVuSans-53"/>
     <use x="385.005859" xlink:href="#DejaVuSans-2d"/>
     <use x="421.089844" xlink:href="#DejaVuSans-70"/>
     <use x="484.566406" xlink:href="#DejaVuSans-79"/>
    </g>
   </g>
   <g id="text_17">
    <!-- bbob-mixint f9, 10-D -->
    <g transform="translate(60.41088 38.111366)scale(0.102 -0.102)">
     <defs>
      <path d="M 3116 1747 
Q 3116 2381 2855 2742 
Q 2594 3103 2138 3103 
Q 1681 3103 1420 2742 
Q 1159 2381 1159 1747 
Q 1159 1113 1420 752 
Q 1681 391 2138 391 
Q 2594 391 2855 752 
Q 3116 1113 3116 1747 
z
M 1159 2969 
Q 1341 3281 1617 3432 
Q 1894 3584 2278 3584 
Q 2916 3584 3314 3078 
Q 3713 2572 3713 1747 
Q 3713 922 3314 415 
Q 2916 -91 2278 -91 
Q 1894 -91 1617 61 
Q 1341 213 1159 525 
L 1159 0 
L 581 0 
L 581 4863 
L 1159 4863 
L 1159 2969 
z
" id="DejaVuSans-62" transform="scale(0.015625)"/>
      <path d="M 3513 3500 
L 2247 1797 
L 3578 0 
L 2900 0 
L 1881 1375 
L 863 0 
L 184 0 
L 1544 1831 
L 300 3500 
L 978 3500 
L 1906 2253 
L 2834 3500 
L 3513 3500 
z
" id="DejaVuSans-78" transform="scale(0.015625)"/>
      <path d="M 703 97 
L 703 672 
Q 941 559 1184 500 
Q 1428 441 1663 441 
Q 2288 441 2617 861 
Q 2947 1281 2994 2138 
Q 2813 1869 2534 1725 
Q 2256 1581 1919 1581 
Q 1219 1581 811 2004 
Q 403 2428 403 3163 
Q 403 3881 828 4315 
Q 1253 4750 1959 4750 
Q 2769 4750 3195 4129 
Q 3622 3509 3622 2328 
Q 3622 1225 3098 567 
Q 2575 -91 1691 -91 
Q 1453 -91 1209 -44 
Q 966 3 703 97 
z
M 1959 2075 
Q 2384 2075 2632 2365 
Q 2881 2656 2881 3163 
Q 2881 3666 2632 3958 
Q 2384 4250 1959 4250 
Q 1534 4250 1286 3958 
Q 1038 3666 1038 3163 
Q 1038 2656 1286 2365 
Q 1534 2075 1959 2075 
z
" id="DejaVuSans-39" transform="scale(0.015625)"/>
     </defs>
     <use xlink:href="#DejaVuSans-62"/>
     <use x="63.476562" xlink:href="#DejaVuSans-62"/>
     <use x="126.953125" xlink:href="#DejaVuSans-6f"/>
     <use x="188.134766" xlink:href="#DejaVuSans-62"/>
     <use x="251.611328" xlink:href="#DejaVuSans-2d"/>
     <use x="287.695312" xlink:href="#DejaVuSans-6d"/>
     <use x="385.107422" xlink:href="#DejaVuSans-69"/>
     <use x="412.890625" xlink:href="#DejaVuSans-78"/>
     <use x="472.070312" xlink:href="#DejaVuSans-69"/>
     <use x="499.853516" xlink:href="#DejaVuSans-6e"/>
     <use x="563.232422" xlink:href="#DejaVuSans-74"/>
     <use x="602.441406" xlink:href="#DejaVuSans-20"/>
     <use x="634.228516" xlink:href="#DejaVuSans-66"/>
     <use x="669.433594" xlink:href="#DejaVuSans-39"/>
     <use x="733.056641" xlink:href="#DejaVuSans-2c"/>
     <use x="764.84375" xlink:href="#DejaVuSans-20"/>
     <use x="796.630859" xlink:href="#DejaVuSans-31"/>
     <use x="860.253906" xlink:href="#DejaVuSans-30"/>
     <use x="923.876953" xlink:href="#DejaVuSans-2d"/>
     <use x="959.960938" xlink:href="#DejaVuSans-44"/>
    </g>
    <!-- 51 targets: 100..1e-08 -->
    <g transform="translate(60.41088 49.533135)scale(0.102 -0.102)">
     <defs>
      <path d="M 691 4666 
L 3169 4666 
L 3169 4134 
L 1269 4134 
L 1269 2991 
Q 1406 3038 1543 3061 
Q 1681 3084 1819 3084 
Q 2600 3084 3056 2656 
Q 3513 2228 3513 1497 
Q 3513 744 3044 326 
Q 2575 -91 1722 -91 
Q 1428 -91 1123 -41 
Q 819 9 494 109 
L 494 744 
Q 775 591 1075 516 
Q 1375 441 1709 441 
Q 2250 441 2565 725 
Q 2881 1009 2881 1497 
Q 2881 1984 2565 2268 
Q 2250 2553 1709 2553 
Q 1456 2553 1204 2497 
Q 953 2441 691 2322 
L 691 4666 
z
" id="DejaVuSans-35" transform="scale(0.015625)"/>
      <path d="M 750 794 
L 1409 794 
L 1409 0 
L 750 0 
L 750 794 
z
M 750 3309 
L 1409 3309 
L 1409 2516 
L 750 2516 
L 750 3309 
z
" id="DejaVuSans-3a" transform="scale(0.015625)"/>
     </defs>
     <use xlink:href="#DejaVuSans-35"/>
     <use x="63.623047" xlink:href="#DejaVuSans-31"/>
     <use x="127.246094" xlink:href="#DejaVuSans-20"/>
     <use x="159.033203" xlink:href="#DejaVuSans-74"/>
     <use x="198.242188" xlink:href="#DejaVuSans-61"/>
     <use x="259.521484" xlink:href="#DejaVuSans-72"/>
     <use x="298.884766" xlink:href="#DejaVuSans-67"/>
     <use x="362.361328" xlink:href="#DejaVuSans-65"/>
     <use x="423.884766" xlink:href="#DejaVuSans-74"/>
     <use x="463.09375" xlink:href="#DejaVuSans-73"/>
     <use x="515.193359" xlink:href="#DejaVuSans-3a"/>
     <use x="548.884766" xlink:href="#DejaVuSans-20"/>
     <use x="580.671875" xlink:href="#DejaVuSans-31"/>
     <use x="644.294922" xlink:href="#DejaVuSans-30"/>
     <use x="707.917969" xlink:href="#DejaVuSans-30"/>
     <use x="771.541016" xlink:href="#DejaVuSans-2e"/>
     <use x="803.328125" xlink:href="#DejaVuSans-2e"/>
     <use x="835.115234" xlink:href="#DejaVuSans-31"/>
     <use x="898.738281" xlink:href="#DejaVuSans-65"/>
     <use x="960.261719" xlink:href="#DejaVuSans-2d"/>
     <use x="996.345703" xlink:href="#DejaVuSans-30"/>
     <use x="1059.96875" xlink:href="#DejaVuSans-38"/>
    </g>
    <!-- 15 instances -->
    <g transform="translate(60.41088 60.954904)scale(0.102 -0.102)">
     <use xlink:href="#DejaVuSans-31"/>
     <use x="63.623047" xlink:href="#DejaVuSans-35"/>
     <use x="127.246094" xlink:href="#DejaVuSans-20"/>
     <use x="159.033203" xlink:href="#DejaVuSans-69"/>
     <use x="186.816406" xlink:href="#DejaVuSans-6e"/>
     <use x="250.195312" xlink:href="#DejaVuSans-73"/>
     <use x="302.294922" xlink:href="#DejaVuSans-74"/>
     <use x="341.503906" xlink:href="#DejaVuSans-61"/>
     <use x="402.783203" xlink:href="#DejaVuSans-6e"/>
     <use x="466.162109" xlink:href="#DejaVuSans-63"/>
     <use x="521.142578" xlink:href="#DejaVuSans-65"/>
     <use x="582.666016" xlink:href="#DejaVuSans-73"/>
    </g>
   </g>
   <g id="text_18">
    <!-- v2.4.1.1 -->
    <g style="fill:#808080;" transform="translate(177.692437 294.151352)scale(0.1 -0.1)">
     <use xlink:href="#DejaVuSans-76"/>
     <use x="59.179688" xlink:href="#DejaVuSans-32"/>
     <use x="122.802734" xlink:href="#DejaVuSans-2e"/>
     <use x="154.589844" xlink:href="#DejaVuSans-34"/>
     <use x="218.212891" xlink:href="#DejaVuSans-2e"/>
     <use x="250" xlink:href="#DejaVuSans-31"/>
     <use x="313.623047" xlink:href="#DejaVuSans-2e"/>
     <use x="345.410156" xlink:href="#DejaVuSans-31"/>
    </g>
   </g>
   <g id="text_19">
    <!-- 9 Rosenbrock rotated -->
    <g transform="translate(90.990875 21.648)scale(0.2 -0.2)">
     <defs>
      <path d="M 581 4863 
L 1159 4863 
L 1159 1991 
L 2875 3500 
L 3609 3500 
L 1753 1863 
L 3688 0 
L 2938 0 
L 1159 1709 
L 1159 0 
L 581 0 
L 581 4863 
z
" id="DejaVuSans-6b" transform="scale(0.015625)"/>
     </defs>
     <use xlink:href="#DejaVuSans-39"/>
     <use x="63.623047" xlink:href="#DejaVuSans-20"/>
     <use x="95.410156" xlink:href="#DejaVuSans-52"/>
     <use x="160.392578" xlink:href="#DejaVuSans-6f"/>
     <use x="221.574219" xlink:href="#DejaVuSans-73"/>
     <use x="273.673828" xlink:href="#DejaVuSans-65"/>
     <use x="335.197266" xlink:href="#DejaVuSans-6e"/>
     <use x="398.576172" xlink:href="#DejaVuSans-62"/>
     <use x="462.052734" xlink:href="#DejaVuSans-72"/>
     <use x="500.916016" xlink:href="#DejaVuSans-6f"/>
     <use x="562.097656" xlink:href="#DejaVuSans-63"/>
     <use x="617.078125" xlink:href="#DejaVuSans-6b"/>
     <use x="674.988281" xlink:href="#DejaVuSans-20"/>
     <use x="706.775391" xlink:href="#DejaVuSans-72"/>
     <use x="745.638672" xlink:href="#DejaVuSans-6f"/>
     <use x="806.820312" xlink:href="#DejaVuSans-74"/>
     <use x="846.029297" xlink:href="#DejaVuSans-61"/>
     <use x="907.308594" xlink:href="#DejaVuSans-74"/>
     <use x="946.517578" xlink:href="#DejaVuSans-65"/>
     <use x="1008.041016" xlink:href="#DejaVuSans-64"/>
    </g>
   </g>
  </g>
 </g>
 <defs>
  <clipPath id="p24857e2da3">
   <rect height="271.296" width="281.088" x="57.6" y="27.648"/>
  </clipPath>
 </defs>
</svg>
