<?xml version="1.0" encoding="utf-8" standalone="no"?>
<!DOCTYPE svg PUBLIC "-//W3C//DTD SVG 1.1//EN"
  "http://www.w3.org/Graphics/SVG/1.1/DTD/svg11.dtd">
<svg height="345.6pt" version="1.1" viewBox="0 0 460.8 345.6" width="460.8pt" xmlns="http://www.w3.org/2000/svg" xmlns:xlink="http://www.w3.org/1999/xlink">
 <metadata>
  <rdf:RDF xmlns:cc="http://creativecommons.org/ns#" xmlns:dc="http://purl.org/dc/elements/1.1/" xmlns:rdf="http://www.w3.org/1999/02/22-rdf-syntax-ns#">
   <cc:Work>
    <dc:type rdf:resource="http://purl.org/dc/dcmitype/StillImage"/>
    <dc:date>2022-03-29T13:03:55.964812</dc:date>
    <dc:format>image/svg+xml</dc:format>
    <dc:creator>
     <cc:Agent>
      <dc:title>Matplotlib v3.4.3, https://matplotlib.org/</dc:title>
     </cc:Agent>
    </dc:creator>
   </cc:Work>
  </rdf:RDF>
 </metadata>
 <defs>
  <style type="text/css">*{stroke-linecap:butt;stroke-linejoin:round;}</style>
 </defs>
 <g id="figure_1">
  <g id="patch_1">
   <path d="M 0 345.6 
L 460.8 345.6 
L 460.8 0 
L 0 0 
z
" style="fill:#ffffff;"/>
  </g>
  <g id="axes_1">
   <g id="patch_2">
    <path d="M 57.6 298.944 
L 338.688 298.944 
L 338.688 27.648 
L 57.6 27.648 
z
" style="fill:#ffffff;"/>
   </g>
   <g id="matplotlib.axis_1">
    <g id="xtick_1">
     <g id="line2d_1">
      <path clip-path="url(#pab8dd203c9)" d="M 57.6 298.944 
L 57.6 27.648 
" style="fill:none;stroke:#b0b0b0;stroke-linecap:square;stroke-width:0.8;"/>
     </g>
     <g id="line2d_2">
      <defs>
       <path d="M 0 0 
L 0 3.5 
" id="mfb1db91ebf" style="stroke:#000000;stroke-width:0.8;"/>
      </defs>
      <g>
       <use style="stroke:#000000;stroke-width:0.8;" x="57.6" xlink:href="#mfb1db91ebf" y="298.944"/>
      </g>
     </g>
     <g id="text_1">
      <!-- 0 -->
      <g transform="translate(51.2375 321.140875)scale(0.2 -0.2)">
       <defs>
        <path d="M 2034 4250 
Q 1547 4250 1301 3770 
Q 1056 3291 1056 2328 
Q 1056 1369 1301 889 
Q 1547 409 2034 409 
Q 2525 409 2770 889 
Q 3016 1369 3016 2328 
Q 3016 3291 2770 3770 
Q 2525 4250 2034 4250 
z
M 2034 4750 
Q 2819 4750 3233 4129 
Q 3647 3509 3647 2328 
Q 3647 1150 3233 529 
Q 2819 -91 2034 -91 
Q 1250 -91 836 529 
Q 422 1150 422 2328 
Q 422 3509 836 4129 
Q 1250 4750 2034 4750 
z
" id="DejaVuSans-30" transform="scale(0.015625)"/>
       </defs>
       <use xlink:href="#DejaVuSans-30"/>
      </g>
     </g>
    </g>
    <g id="xtick_2">
     <g id="line2d_3">
      <path clip-path="url(#pab8dd203c9)" d="M 137.910857 298.944 
L 137.910857 27.648 
" style="fill:none;stroke:#b0b0b0;stroke-linecap:square;stroke-width:0.8;"/>
     </g>
     <g id="line2d_4">
      <g>
       <use style="stroke:#000000;stroke-width:0.8;" x="137.910857" xlink:href="#mfb1db91ebf" y="298.944"/>
      </g>
     </g>
     <g id="text_2">
      <!-- 2 -->
      <g transform="translate(131.548357 321.140875)scale(0.2 -0.2)">
       <defs>
        <path d="M 1228 531 
L 3431 531 
L 3431 0 
L 469 0 
L 469 531 
Q 828 903 1448 1529 
Q 2069 2156 2228 2338 
Q 2531 2678 2651 2914 
Q 2772 3150 2772 3378 
Q 2772 3750 2511 3984 
Q 2250 4219 1831 4219 
Q 1534 4219 1204 4116 
Q 875 4013 500 3803 
L 500 4441 
Q 881 4594 1212 4672 
Q 1544 4750 1819 4750 
Q 2544 4750 2975 4387 
Q 3406 4025 3406 3419 
Q 3406 3131 3298 2873 
Q 3191 2616 2906 2266 
Q 2828 2175 2409 1742 
Q 1991 1309 1228 531 
z
" id="DejaVuSans-32" transform="scale(0.015625)"/>
       </defs>
       <use xlink:href="#DejaVuSans-32"/>
      </g>
     </g>
    </g>
    <g id="xtick_3">
     <g id="line2d_5">
      <path clip-path="url(#pab8dd203c9)" d="M 218.221714 298.944 
L 218.221714 27.648 
" style="fill:none;stroke:#b0b0b0;stroke-linecap:square;stroke-width:0.8;"/>
     </g>
     <g id="line2d_6">
      <g>
       <use style="stroke:#000000;stroke-width:0.8;" x="218.221714" xlink:href="#mfb1db91ebf" y="298.944"/>
      </g>
     </g>
     <g id="text_3">
      <!-- 4 -->
      <g transform="translate(211.859214 321.140875)scale(0.2 -0.2)">
       <defs>
        <path d="M 2419 4116 
L 825 1625 
L 2419 1625 
L 2419 4116 
z
M 2253 4666 
L 3047 4666 
L 3047 1625 
L 3713 1625 
L 3713 1100 
L 3047 1100 
L 3047 0 
L 2419 0 
L 2419 1100 
L 313 1100 
L 313 1709 
L 2253 4666 
z
" id="DejaVuSans-34" transform="scale(0.015625)"/>
       </defs>
       <use xlink:href="#DejaVuSans-34"/>
      </g>
     </g>
    </g>
    <g id="xtick_4">
     <g id="line2d_7">
      <path clip-path="url(#pab8dd203c9)" d="M 298.532571 298.944 
L 298.532571 27.648 
" style="fill:none;stroke:#b0b0b0;stroke-linecap:square;stroke-width:0.8;"/>
     </g>
     <g id="line2d_8">
      <g>
       <use style="stroke:#000000;stroke-width:0.8;" x="298.532571" xlink:href="#mfb1db91ebf" y="298.944"/>
      </g>
     </g>
     <g id="text_4">
      <!-- 6 -->
      <g transform="translate(292.170071 321.140875)scale(0.2 -0.2)">
       <defs>
        <path d="M 2113 2584 
Q 1688 2584 1439 2293 
Q 1191 2003 1191 1497 
Q 1191 994 1439 701 
Q 1688 409 2113 409 
Q 2538 409 2786 701 
Q 3034 994 3034 1497 
Q 3034 2003 2786 2293 
Q 2538 2584 2113 2584 
z
M 3366 4563 
L 3366 3988 
Q 3128 4100 2886 4159 
Q 2644 4219 2406 4219 
Q 1781 4219 1451 3797 
Q 1122 3375 1075 2522 
Q 1259 2794 1537 2939 
Q 1816 3084 2150 3084 
Q 2853 3084 3261 2657 
Q 3669 2231 3669 1497 
Q 3669 778 3244 343 
Q 2819 -91 2113 -91 
Q 1303 -91 875 529 
Q 447 1150 447 2328 
Q 447 3434 972 4092 
Q 1497 4750 2381 4750 
Q 2619 4750 2861 4703 
Q 3103 4656 3366 4563 
z
" id="DejaVuSans-36" transform="scale(0.015625)"/>
       </defs>
       <use xlink:href="#DejaVuSans-36"/>
      </g>
     </g>
    </g>
    <g id="xtick_5">
     <g id="line2d_9">
      <path clip-path="url(#pab8dd203c9)" d="M 97.755429 298.944 
L 97.755429 27.648 
" style="fill:none;stroke:#b0b0b0;stroke-linecap:square;stroke-width:0.8;"/>
     </g>
     <g id="line2d_10">
      <defs>
       <path d="M 0 0 
L 0 2 
" id="mdeed4ea540" style="stroke:#000000;stroke-width:0.6;"/>
      </defs>
      <g>
       <use style="stroke:#000000;stroke-width:0.6;" x="97.755429" xlink:href="#mdeed4ea540" y="298.944"/>
      </g>
     </g>
    </g>
    <g id="xtick_6">
     <g id="line2d_11">
      <path clip-path="url(#pab8dd203c9)" d="M 178.066286 298.944 
L 178.066286 27.648 
" style="fill:none;stroke:#b0b0b0;stroke-linecap:square;stroke-width:0.8;"/>
     </g>
     <g id="line2d_12">
      <g>
       <use style="stroke:#000000;stroke-width:0.6;" x="178.066286" xlink:href="#mdeed4ea540" y="298.944"/>
      </g>
     </g>
    </g>
    <g id="xtick_7">
     <g id="line2d_13">
      <path clip-path="url(#pab8dd203c9)" d="M 258.377143 298.944 
L 258.377143 27.648 
" style="fill:none;stroke:#b0b0b0;stroke-linecap:square;stroke-width:0.8;"/>
     </g>
     <g id="line2d_14">
      <g>
       <use style="stroke:#000000;stroke-width:0.6;" x="258.377143" xlink:href="#mdeed4ea540" y="298.944"/>
      </g>
     </g>
    </g>
    <g id="xtick_8">
     <g id="line2d_15">
      <path clip-path="url(#pab8dd203c9)" d="M 338.688 298.944 
L 338.688 27.648 
" style="fill:none;stroke:#b0b0b0;stroke-linecap:square;stroke-width:0.8;"/>
     </g>
     <g id="line2d_16">
      <g>
       <use style="stroke:#000000;stroke-width:0.6;" x="338.688" xlink:href="#mdeed4ea540" y="298.944"/>
      </g>
     </g>
    </g>
    <g id="text_5">
     <!-- log10(# f-evals / dimension) -->
     <g transform="translate(77.764078 342.217594)scale(0.17 -0.17)">
      <defs>
       <path d="M 603 4863 
L 1178 4863 
L 1178 0 
L 603 0 
L 603 4863 
z
" id="DejaVuSans-6c" transform="scale(0.015625)"/>
       <path d="M 1959 3097 
Q 1497 3097 1228 2736 
Q 959 2375 959 1747 
Q 959 1119 1226 758 
Q 1494 397 1959 397 
Q 2419 397 2687 759 
Q 2956 1122 2956 1747 
Q 2956 2369 2687 2733 
Q 2419 3097 1959 3097 
z
M 1959 3584 
Q 2709 3584 3137 3096 
Q 3566 2609 3566 1747 
Q 3566 888 3137 398 
Q 2709 -91 1959 -91 
Q 1206 -91 779 398 
Q 353 888 353 1747 
Q 353 2609 779 3096 
Q 1206 3584 1959 3584 
z
" id="DejaVuSans-6f" transform="scale(0.015625)"/>
       <path d="M 2906 1791 
Q 2906 2416 2648 2759 
Q 2391 3103 1925 3103 
Q 1463 3103 1205 2759 
Q 947 2416 947 1791 
Q 947 1169 1205 825 
Q 1463 481 1925 481 
Q 2391 481 2648 825 
Q 2906 1169 2906 1791 
z
M 3481 434 
Q 3481 -459 3084 -895 
Q 2688 -1331 1869 -1331 
Q 1566 -1331 1297 -1286 
Q 1028 -1241 775 -1147 
L 775 -588 
Q 1028 -725 1275 -790 
Q 1522 -856 1778 -856 
Q 2344 -856 2625 -561 
Q 2906 -266 2906 331 
L 2906 616 
Q 2728 306 2450 153 
Q 2172 0 1784 0 
Q 1141 0 747 490 
Q 353 981 353 1791 
Q 353 2603 747 3093 
Q 1141 3584 1784 3584 
Q 2172 3584 2450 3431 
Q 2728 3278 2906 2969 
L 2906 3500 
L 3481 3500 
L 3481 434 
z
" id="DejaVuSans-67" transform="scale(0.015625)"/>
       <path d="M 794 531 
L 1825 531 
L 1825 4091 
L 703 3866 
L 703 4441 
L 1819 4666 
L 2450 4666 
L 2450 531 
L 3481 531 
L 3481 0 
L 794 0 
L 794 531 
z
" id="DejaVuSans-31" transform="scale(0.015625)"/>
       <path d="M 1984 4856 
Q 1566 4138 1362 3434 
Q 1159 2731 1159 2009 
Q 1159 1288 1364 580 
Q 1569 -128 1984 -844 
L 1484 -844 
Q 1016 -109 783 600 
Q 550 1309 550 2009 
Q 550 2706 781 3412 
Q 1013 4119 1484 4856 
L 1984 4856 
z
" id="DejaVuSans-28" transform="scale(0.015625)"/>
       <path d="M 3272 2816 
L 2363 2816 
L 2100 1772 
L 3016 1772 
L 3272 2816 
z
M 2803 4594 
L 2478 3297 
L 3391 3297 
L 3719 4594 
L 4219 4594 
L 3897 3297 
L 4872 3297 
L 4872 2816 
L 3775 2816 
L 3519 1772 
L 4513 1772 
L 4513 1294 
L 3397 1294 
L 3072 0 
L 2572 0 
L 2894 1294 
L 1978 1294 
L 1656 0 
L 1153 0 
L 1478 1294 
L 494 1294 
L 494 1772 
L 1594 1772 
L 1856 2816 
L 850 2816 
L 850 3297 
L 1978 3297 
L 2297 4594 
L 2803 4594 
z
" id="DejaVuSans-23" transform="scale(0.015625)"/>
       <path id="DejaVuSans-20" transform="scale(0.015625)"/>
       <path d="M 2375 4863 
L 2375 4384 
L 1825 4384 
Q 1516 4384 1395 4259 
Q 1275 4134 1275 3809 
L 1275 3500 
L 2222 3500 
L 2222 3053 
L 1275 3053 
L 1275 0 
L 697 0 
L 697 3053 
L 147 3053 
L 147 3500 
L 697 3500 
L 697 3744 
Q 697 4328 969 4595 
Q 1241 4863 1831 4863 
L 2375 4863 
z
" id="DejaVuSans-66" transform="scale(0.015625)"/>
       <path d="M 313 2009 
L 1997 2009 
L 1997 1497 
L 313 1497 
L 313 2009 
z
" id="DejaVuSans-2d" transform="scale(0.015625)"/>
       <path d="M 3597 1894 
L 3597 1613 
L 953 1613 
Q 991 1019 1311 708 
Q 1631 397 2203 397 
Q 2534 397 2845 478 
Q 3156 559 3463 722 
L 3463 178 
Q 3153 47 2828 -22 
Q 2503 -91 2169 -91 
Q 1331 -91 842 396 
Q 353 884 353 1716 
Q 353 2575 817 3079 
Q 1281 3584 2069 3584 
Q 2775 3584 3186 3129 
Q 3597 2675 3597 1894 
z
M 3022 2063 
Q 3016 2534 2758 2815 
Q 2500 3097 2075 3097 
Q 1594 3097 1305 2825 
Q 1016 2553 972 2059 
L 3022 2063 
z
" id="DejaVuSans-65" transform="scale(0.015625)"/>
       <path d="M 191 3500 
L 800 3500 
L 1894 563 
L 2988 3500 
L 3597 3500 
L 2284 0 
L 1503 0 
L 191 3500 
z
" id="DejaVuSans-76" transform="scale(0.015625)"/>
       <path d="M 2194 1759 
Q 1497 1759 1228 1600 
Q 959 1441 959 1056 
Q 959 750 1161 570 
Q 1363 391 1709 391 
Q 2188 391 2477 730 
Q 2766 1069 2766 1631 
L 2766 1759 
L 2194 1759 
z
M 3341 1997 
L 3341 0 
L 2766 0 
L 2766 531 
Q 2569 213 2275 61 
Q 1981 -91 1556 -91 
Q 1019 -91 701 211 
Q 384 513 384 1019 
Q 384 1609 779 1909 
Q 1175 2209 1959 2209 
L 2766 2209 
L 2766 2266 
Q 2766 2663 2505 2880 
Q 2244 3097 1772 3097 
Q 1472 3097 1187 3025 
Q 903 2953 641 2809 
L 641 3341 
Q 956 3463 1253 3523 
Q 1550 3584 1831 3584 
Q 2591 3584 2966 3190 
Q 3341 2797 3341 1997 
z
" id="DejaVuSans-61" transform="scale(0.015625)"/>
       <path d="M 2834 3397 
L 2834 2853 
Q 2591 2978 2328 3040 
Q 2066 3103 1784 3103 
Q 1356 3103 1142 2972 
Q 928 2841 928 2578 
Q 928 2378 1081 2264 
Q 1234 2150 1697 2047 
L 1894 2003 
Q 2506 1872 2764 1633 
Q 3022 1394 3022 966 
Q 3022 478 2636 193 
Q 2250 -91 1575 -91 
Q 1294 -91 989 -36 
Q 684 19 347 128 
L 347 722 
Q 666 556 975 473 
Q 1284 391 1588 391 
Q 1994 391 2212 530 
Q 2431 669 2431 922 
Q 2431 1156 2273 1281 
Q 2116 1406 1581 1522 
L 1381 1569 
Q 847 1681 609 1914 
Q 372 2147 372 2553 
Q 372 3047 722 3315 
Q 1072 3584 1716 3584 
Q 2034 3584 2315 3537 
Q 2597 3491 2834 3397 
z
" id="DejaVuSans-73" transform="scale(0.015625)"/>
       <path d="M 1625 4666 
L 2156 4666 
L 531 -594 
L 0 -594 
L 1625 4666 
z
" id="DejaVuSans-2f" transform="scale(0.015625)"/>
       <path d="M 2906 2969 
L 2906 4863 
L 3481 4863 
L 3481 0 
L 2906 0 
L 2906 525 
Q 2725 213 2448 61 
Q 2172 -91 1784 -91 
Q 1150 -91 751 415 
Q 353 922 353 1747 
Q 353 2572 751 3078 
Q 1150 3584 1784 3584 
Q 2172 3584 2448 3432 
Q 2725 3281 2906 2969 
z
M 947 1747 
Q 947 1113 1208 752 
Q 1469 391 1925 391 
Q 2381 391 2643 752 
Q 2906 1113 2906 1747 
Q 2906 2381 2643 2742 
Q 2381 3103 1925 3103 
Q 1469 3103 1208 2742 
Q 947 2381 947 1747 
z
" id="DejaVuSans-64" transform="scale(0.015625)"/>
       <path d="M 603 3500 
L 1178 3500 
L 1178 0 
L 603 0 
L 603 3500 
z
M 603 4863 
L 1178 4863 
L 1178 4134 
L 603 4134 
L 603 4863 
z
" id="DejaVuSans-69" transform="scale(0.015625)"/>
       <path d="M 3328 2828 
Q 3544 3216 3844 3400 
Q 4144 3584 4550 3584 
Q 5097 3584 5394 3201 
Q 5691 2819 5691 2113 
L 5691 0 
L 5113 0 
L 5113 2094 
Q 5113 2597 4934 2840 
Q 4756 3084 4391 3084 
Q 3944 3084 3684 2787 
Q 3425 2491 3425 1978 
L 3425 0 
L 2847 0 
L 2847 2094 
Q 2847 2600 2669 2842 
Q 2491 3084 2119 3084 
Q 1678 3084 1418 2786 
Q 1159 2488 1159 1978 
L 1159 0 
L 581 0 
L 581 3500 
L 1159 3500 
L 1159 2956 
Q 1356 3278 1631 3431 
Q 1906 3584 2284 3584 
Q 2666 3584 2933 3390 
Q 3200 3197 3328 2828 
z
" id="DejaVuSans-6d" transform="scale(0.015625)"/>
       <path d="M 3513 2113 
L 3513 0 
L 2938 0 
L 2938 2094 
Q 2938 2591 2744 2837 
Q 2550 3084 2163 3084 
Q 1697 3084 1428 2787 
Q 1159 2491 1159 1978 
L 1159 0 
L 581 0 
L 581 3500 
L 1159 3500 
L 1159 2956 
Q 1366 3272 1645 3428 
Q 1925 3584 2291 3584 
Q 2894 3584 3203 3211 
Q 3513 2838 3513 2113 
z
" id="DejaVuSans-6e" transform="scale(0.015625)"/>
       <path d="M 513 4856 
L 1013 4856 
Q 1481 4119 1714 3412 
Q 1947 2706 1947 2009 
Q 1947 1309 1714 600 
Q 1481 -109 1013 -844 
L 513 -844 
Q 928 -128 1133 580 
Q 1338 1288 1338 2009 
Q 1338 2731 1133 3434 
Q 928 4138 513 4856 
z
" id="DejaVuSans-29" transform="scale(0.015625)"/>
      </defs>
      <use xlink:href="#DejaVuSans-6c"/>
      <use x="27.783203" xlink:href="#DejaVuSans-6f"/>
      <use x="88.964844" xlink:href="#DejaVuSans-67"/>
      <use x="152.441406" xlink:href="#DejaVuSans-31"/>
      <use x="216.064453" xlink:href="#DejaVuSans-30"/>
      <use x="279.6875" xlink:href="#DejaVuSans-28"/>
      <use x="318.701172" xlink:href="#DejaVuSans-23"/>
      <use x="402.490234" xlink:href="#DejaVuSans-20"/>
      <use x="434.277344" xlink:href="#DejaVuSans-66"/>
      <use x="463.982422" xlink:href="#DejaVuSans-2d"/>
      <use x="500.066406" xlink:href="#DejaVuSans-65"/>
      <use x="561.589844" xlink:href="#DejaVuSans-76"/>
      <use x="620.769531" xlink:href="#DejaVuSans-61"/>
      <use x="682.048828" xlink:href="#DejaVuSans-6c"/>
      <use x="709.832031" xlink:href="#DejaVuSans-73"/>
      <use x="761.931641" xlink:href="#DejaVuSans-20"/>
      <use x="793.71875" xlink:href="#DejaVuSans-2f"/>
      <use x="827.410156" xlink:href="#DejaVuSans-20"/>
      <use x="859.197266" xlink:href="#DejaVuSans-64"/>
      <use x="922.673828" xlink:href="#DejaVuSans-69"/>
      <use x="950.457031" xlink:href="#DejaVuSans-6d"/>
      <use x="1047.869141" xlink:href="#DejaVuSans-65"/>
      <use x="1109.392578" xlink:href="#DejaVuSans-6e"/>
      <use x="1172.771484" xlink:href="#DejaVuSans-73"/>
      <use x="1224.871094" xlink:href="#DejaVuSans-69"/>
      <use x="1252.654297" xlink:href="#DejaVuSans-6f"/>
      <use x="1313.835938" xlink:href="#DejaVuSans-6e"/>
      <use x="1377.214844" xlink:href="#DejaVuSans-29"/>
     </g>
    </g>
   </g>
   <g id="matplotlib.axis_2">
    <g id="ytick_1">
     <g id="line2d_17">
      <path clip-path="url(#pab8dd203c9)" d="M 57.6 298.944 
L 338.688 298.944 
" style="fill:none;stroke:#b0b0b0;stroke-linecap:square;stroke-width:0.8;"/>
     </g>
     <g id="line2d_18">
      <defs>
       <path d="M 0 0 
L -3.5 0 
" id="m740df7eb92" style="stroke:#000000;stroke-width:0.8;"/>
      </defs>
      <g>
       <use style="stroke:#000000;stroke-width:0.8;" x="57.6" xlink:href="#m740df7eb92" y="298.944"/>
      </g>
     </g>
     <g id="text_6">
      <!-- 0.0 -->
      <g transform="translate(25.155 305.02275)scale(0.16 -0.16)">
       <defs>
        <path d="M 684 794 
L 1344 794 
L 1344 0 
L 684 0 
L 684 794 
z
" id="DejaVuSans-2e" transform="scale(0.015625)"/>
       </defs>
       <use xlink:href="#DejaVuSans-30"/>
       <use x="63.623047" xlink:href="#DejaVuSans-2e"/>
       <use x="95.410156" xlink:href="#DejaVuSans-30"/>
      </g>
     </g>
    </g>
    <g id="ytick_2">
     <g id="line2d_19">
      <path clip-path="url(#pab8dd203c9)" d="M 57.6 245.22202 
L 338.688 245.22202 
" style="fill:none;stroke:#b0b0b0;stroke-linecap:square;stroke-width:0.8;"/>
     </g>
     <g id="line2d_20">
      <g>
       <use style="stroke:#000000;stroke-width:0.8;" x="57.6" xlink:href="#m740df7eb92" y="245.22202"/>
      </g>
     </g>
     <g id="text_7">
      <!-- 0.2 -->
      <g transform="translate(25.155 251.30077)scale(0.16 -0.16)">
       <use xlink:href="#DejaVuSans-30"/>
       <use x="63.623047" xlink:href="#DejaVuSans-2e"/>
       <use x="95.410156" xlink:href="#DejaVuSans-32"/>
      </g>
     </g>
    </g>
    <g id="ytick_3">
     <g id="line2d_21">
      <path clip-path="url(#pab8dd203c9)" d="M 57.6 191.50004 
L 338.688 191.50004 
" style="fill:none;stroke:#b0b0b0;stroke-linecap:square;stroke-width:0.8;"/>
     </g>
     <g id="line2d_22">
      <g>
       <use style="stroke:#000000;stroke-width:0.8;" x="57.6" xlink:href="#m740df7eb92" y="191.50004"/>
      </g>
     </g>
     <g id="text_8">
      <!-- 0.4 -->
      <g transform="translate(25.155 197.57879)scale(0.16 -0.16)">
       <use xlink:href="#DejaVuSans-30"/>
       <use x="63.623047" xlink:href="#DejaVuSans-2e"/>
       <use x="95.410156" xlink:href="#DejaVuSans-34"/>
      </g>
     </g>
    </g>
    <g id="ytick_4">
     <g id="line2d_23">
      <path clip-path="url(#pab8dd203c9)" d="M 57.6 137.778059 
L 338.688 137.778059 
" style="fill:none;stroke:#b0b0b0;stroke-linecap:square;stroke-width:0.8;"/>
     </g>
     <g id="line2d_24">
      <g>
       <use style="stroke:#000000;stroke-width:0.8;" x="57.6" xlink:href="#m740df7eb92" y="137.778059"/>
      </g>
     </g>
     <g id="text_9">
      <!-- 0.6 -->
      <g transform="translate(25.155 143.856809)scale(0.16 -0.16)">
       <use xlink:href="#DejaVuSans-30"/>
       <use x="63.623047" xlink:href="#DejaVuSans-2e"/>
       <use x="95.410156" xlink:href="#DejaVuSans-36"/>
      </g>
     </g>
    </g>
    <g id="ytick_5">
     <g id="line2d_25">
      <path clip-path="url(#pab8dd203c9)" d="M 57.6 84.056079 
L 338.688 84.056079 
" style="fill:none;stroke:#b0b0b0;stroke-linecap:square;stroke-width:0.8;"/>
     </g>
     <g id="line2d_26">
      <g>
       <use style="stroke:#000000;stroke-width:0.8;" x="57.6" xlink:href="#m740df7eb92" y="84.056079"/>
      </g>
     </g>
     <g id="text_10">
      <!-- 0.8 -->
      <g transform="translate(25.155 90.134829)scale(0.16 -0.16)">
       <defs>
        <path d="M 2034 2216 
Q 1584 2216 1326 1975 
Q 1069 1734 1069 1313 
Q 1069 891 1326 650 
Q 1584 409 2034 409 
Q 2484 409 2743 651 
Q 3003 894 3003 1313 
Q 3003 1734 2745 1975 
Q 2488 2216 2034 2216 
z
M 1403 2484 
Q 997 2584 770 2862 
Q 544 3141 544 3541 
Q 544 4100 942 4425 
Q 1341 4750 2034 4750 
Q 2731 4750 3128 4425 
Q 3525 4100 3525 3541 
Q 3525 3141 3298 2862 
Q 3072 2584 2669 2484 
Q 3125 2378 3379 2068 
Q 3634 1759 3634 1313 
Q 3634 634 3220 271 
Q 2806 -91 2034 -91 
Q 1263 -91 848 271 
Q 434 634 434 1313 
Q 434 1759 690 2068 
Q 947 2378 1403 2484 
z
M 1172 3481 
Q 1172 3119 1398 2916 
Q 1625 2713 2034 2713 
Q 2441 2713 2670 2916 
Q 2900 3119 2900 3481 
Q 2900 3844 2670 4047 
Q 2441 4250 2034 4250 
Q 1625 4250 1398 4047 
Q 1172 3844 1172 3481 
z
" id="DejaVuSans-38" transform="scale(0.015625)"/>
       </defs>
       <use xlink:href="#DejaVuSans-30"/>
       <use x="63.623047" xlink:href="#DejaVuSans-2e"/>
       <use x="95.410156" xlink:href="#DejaVuSans-38"/>
      </g>
     </g>
    </g>
    <g id="ytick_6">
     <g id="line2d_27">
      <path clip-path="url(#pab8dd203c9)" d="M 57.6 30.334099 
L 338.688 30.334099 
" style="fill:none;stroke:#b0b0b0;stroke-linecap:square;stroke-width:0.8;"/>
     </g>
     <g id="line2d_28">
      <g>
       <use style="stroke:#000000;stroke-width:0.8;" x="57.6" xlink:href="#m740df7eb92" y="30.334099"/>
      </g>
     </g>
     <g id="text_11">
      <!-- 1.0 -->
      <g transform="translate(25.155 36.412849)scale(0.16 -0.16)">
       <use xlink:href="#DejaVuSans-31"/>
       <use x="63.623047" xlink:href="#DejaVuSans-2e"/>
       <use x="95.410156" xlink:href="#DejaVuSans-30"/>
      </g>
     </g>
    </g>
    <g id="text_12">
     <!-- Fraction of function,target pairs -->
     <g transform="translate(17.619531 297.681)rotate(-90)scale(0.17 -0.17)">
      <defs>
       <path d="M 628 4666 
L 3309 4666 
L 3309 4134 
L 1259 4134 
L 1259 2759 
L 3109 2759 
L 3109 2228 
L 1259 2228 
L 1259 0 
L 628 0 
L 628 4666 
z
" id="DejaVuSans-46" transform="scale(0.015625)"/>
       <path d="M 2631 2963 
Q 2534 3019 2420 3045 
Q 2306 3072 2169 3072 
Q 1681 3072 1420 2755 
Q 1159 2438 1159 1844 
L 1159 0 
L 581 0 
L 581 3500 
L 1159 3500 
L 1159 2956 
Q 1341 3275 1631 3429 
Q 1922 3584 2338 3584 
Q 2397 3584 2469 3576 
Q 2541 3569 2628 3553 
L 2631 2963 
z
" id="DejaVuSans-72" transform="scale(0.015625)"/>
       <path d="M 3122 3366 
L 3122 2828 
Q 2878 2963 2633 3030 
Q 2388 3097 2138 3097 
Q 1578 3097 1268 2742 
Q 959 2388 959 1747 
Q 959 1106 1268 751 
Q 1578 397 2138 397 
Q 2388 397 2633 464 
Q 2878 531 3122 666 
L 3122 134 
Q 2881 22 2623 -34 
Q 2366 -91 2075 -91 
Q 1284 -91 818 406 
Q 353 903 353 1747 
Q 353 2603 823 3093 
Q 1294 3584 2113 3584 
Q 2378 3584 2631 3529 
Q 2884 3475 3122 3366 
z
" id="DejaVuSans-63" transform="scale(0.015625)"/>
       <path d="M 1172 4494 
L 1172 3500 
L 2356 3500 
L 2356 3053 
L 1172 3053 
L 1172 1153 
Q 1172 725 1289 603 
Q 1406 481 1766 481 
L 2356 481 
L 2356 0 
L 1766 0 
Q 1100 0 847 248 
Q 594 497 594 1153 
L 594 3053 
L 172 3053 
L 172 3500 
L 594 3500 
L 594 4494 
L 1172 4494 
z
" id="DejaVuSans-74" transform="scale(0.015625)"/>
       <path d="M 544 1381 
L 544 3500 
L 1119 3500 
L 1119 1403 
Q 1119 906 1312 657 
Q 1506 409 1894 409 
Q 2359 409 2629 706 
Q 2900 1003 2900 1516 
L 2900 3500 
L 3475 3500 
L 3475 0 
L 2900 0 
L 2900 538 
Q 2691 219 2414 64 
Q 2138 -91 1772 -91 
Q 1169 -91 856 284 
Q 544 659 544 1381 
z
M 1991 3584 
L 1991 3584 
z
" id="DejaVuSans-75" transform="scale(0.015625)"/>
       <path d="M 750 794 
L 1409 794 
L 1409 256 
L 897 -744 
L 494 -744 
L 750 256 
L 750 794 
z
" id="DejaVuSans-2c" transform="scale(0.015625)"/>
       <path d="M 1159 525 
L 1159 -1331 
L 581 -1331 
L 581 3500 
L 1159 3500 
L 1159 2969 
Q 1341 3281 1617 3432 
Q 1894 3584 2278 3584 
Q 2916 3584 3314 3078 
Q 3713 2572 3713 1747 
Q 3713 922 3314 415 
Q 2916 -91 2278 -91 
Q 1894 -91 1617 61 
Q 1341 213 1159 525 
z
M 3116 1747 
Q 3116 2381 2855 2742 
Q 2594 3103 2138 3103 
Q 1681 3103 1420 2742 
Q 1159 2381 1159 1747 
Q 1159 1113 1420 752 
Q 1681 391 2138 391 
Q 2594 391 2855 752 
Q 3116 1113 3116 1747 
z
" id="DejaVuSans-70" transform="scale(0.015625)"/>
      </defs>
      <use xlink:href="#DejaVuSans-46"/>
      <use x="50.269531" xlink:href="#DejaVuSans-72"/>
      <use x="91.382812" xlink:href="#DejaVuSans-61"/>
      <use x="152.662109" xlink:href="#DejaVuSans-63"/>
      <use x="207.642578" xlink:href="#DejaVuSans-74"/>
      <use x="246.851562" xlink:href="#DejaVuSans-69"/>
      <use x="274.634766" xlink:href="#DejaVuSans-6f"/>
      <use x="335.816406" xlink:href="#DejaVuSans-6e"/>
      <use x="399.195312" xlink:href="#DejaVuSans-20"/>
      <use x="430.982422" xlink:href="#DejaVuSans-6f"/>
      <use x="492.164062" xlink:href="#DejaVuSans-66"/>
      <use x="527.369141" xlink:href="#DejaVuSans-20"/>
      <use x="559.15625" xlink:href="#DejaVuSans-66"/>
      <use x="594.361328" xlink:href="#DejaVuSans-75"/>
      <use x="657.740234" xlink:href="#DejaVuSans-6e"/>
      <use x="721.119141" xlink:href="#DejaVuSans-63"/>
      <use x="776.099609" xlink:href="#DejaVuSans-74"/>
      <use x="815.308594" xlink:href="#DejaVuSans-69"/>
      <use x="843.091797" xlink:href="#DejaVuSans-6f"/>
      <use x="904.273438" xlink:href="#DejaVuSans-6e"/>
      <use x="967.652344" xlink:href="#DejaVuSans-2c"/>
      <use x="999.439453" xlink:href="#DejaVuSans-74"/>
      <use x="1038.648438" xlink:href="#DejaVuSans-61"/>
      <use x="1099.927734" xlink:href="#DejaVuSans-72"/>
      <use x="1139.291016" xlink:href="#DejaVuSans-67"/>
      <use x="1202.767578" xlink:href="#DejaVuSans-65"/>
      <use x="1264.291016" xlink:href="#DejaVuSans-74"/>
      <use x="1303.5" xlink:href="#DejaVuSans-20"/>
      <use x="1335.287109" xlink:href="#DejaVuSans-70"/>
      <use x="1398.763672" xlink:href="#DejaVuSans-61"/>
      <use x="1460.042969" xlink:href="#DejaVuSans-69"/>
      <use x="1487.826172" xlink:href="#DejaVuSans-72"/>
      <use x="1528.939453" xlink:href="#DejaVuSans-73"/>
     </g>
    </g>
   </g>
   <g id="line2d_29">
    <defs>
     <path d="M 0 1.5 
C 0.397805 1.5 0.77937 1.341951 1.06066 1.06066 
C 1.341951 0.77937 1.5 0.397805 1.5 0 
C 1.5 -0.397805 1.341951 -0.77937 1.06066 -1.06066 
C 0.77937 -1.341951 0.397805 -1.5 0 -1.5 
C -0.397805 -1.5 -0.77937 -1.341951 -1.06066 -1.06066 
C -1.341951 -0.77937 -1.5 -0.397805 -1.5 0 
C -1.5 0.397805 -1.341951 0.77937 -1.06066 1.06066 
C -0.77937 1.341951 -0.397805 1.5 0 1.5 
z
" id="mbff01df33b" style="stroke:#000080;"/>
    </defs>
    <g>
     <use style="fill:#000080;stroke:#000080;" x="216.359094" xlink:href="#mbff01df33b" y="30.334099"/>
     <use style="fill:#000080;stroke:#000080;" x="216.359094" xlink:href="#mbff01df33b" y="30.334099"/>
    </g>
   </g>
   <g id="line2d_30">
    <path d="M 29.53256 298.944 
L 29.53256 297.890628 
L 48.691568 297.890628 
L 48.691568 296.31057 
L 60.779557 296.31057 
L 60.779557 295.783884 
L 63.467834 295.783884 
L 63.467834 294.730511 
L 67.850577 294.730511 
L 67.850577 293.677139 
L 69.687988 293.677139 
L 69.687988 293.150453 
L 72.867545 293.150453 
L 72.867545 292.097081 
L 75.555822 292.097081 
L 75.555822 291.570395 
L 81.775977 291.570395 
L 81.775977 291.043709 
L 86.351421 291.043709 
L 86.351421 290.517023 
L 87.643811 290.517023 
L 87.643811 288.936964 
L 90.509138 288.936964 
L 90.509138 288.410278 
L 91.029752 288.410278 
L 91.029752 287.883592 
L 92.969447 287.883592 
L 92.969447 287.356906 
L 96.301313 287.356906 
L 96.301313 285.776848 
L 97.403108 285.776848 
L 97.403108 284.723476 
L 98.771596 284.723476 
L 98.771596 284.19679 
L 99.41757 284.19679 
L 99.41757 283.143418 
L 100.934985 283.143418 
L 100.934985 282.616732 
L 102.859376 282.616732 
L 102.859376 282.090045 
L 103.117741 282.090045 
L 103.117741 281.563359 
L 106.802819 281.563359 
L 106.802819 280.509987 
L 107.614095 280.509987 
L 107.614095 279.456615 
L 107.811151 279.456615 
L 107.811151 278.929929 
L 108.948899 278.929929 
L 108.948899 277.349871 
L 109.843417 277.349871 
L 109.843417 276.823185 
L 110.527398 276.823185 
L 110.527398 275.769812 
L 110.694282 275.769812 
L 110.694282 274.71644 
L 111.023335 274.71644 
L 111.023335 274.189754 
L 112.431755 274.189754 
L 112.431755 273.136382 
L 113.167699 273.136382 
L 113.167699 272.08301 
L 113.453595 272.08301 
L 113.453595 271.029638 
L 113.594805 271.029638 
L 113.594805 270.502952 
L 114.552496 270.502952 
L 114.552496 269.976266 
L 114.685115 269.976266 
L 114.685115 268.922893 
L 115.33349 268.922893 
L 115.33349 268.396207 
L 116.323218 268.396207 
L 116.323218 266.816149 
L 118.681952 266.816149 
L 118.681952 266.289463 
L 119.097192 266.289463 
L 119.097192 265.236091 
L 119.702083 265.236091 
L 119.702083 263.656033 
L 119.89914 263.656033 
L 119.89914 263.129347 
L 120.286695 263.129347 
L 120.286695 262.60266 
L 121.489881 262.60266 
L 121.489881 259.96923 
L 122.615387 259.96923 
L 122.615387 259.442544 
L 123.111324 259.442544 
L 123.111324 258.915858 
L 123.514096 258.915858 
L 123.514096 258.389172 
L 123.985457 258.389172 
L 123.985457 257.862486 
L 124.444412 257.862486 
L 124.444412 256.809114 
L 124.669438 256.809114 
L 124.743806 254.175683 
L 125.183475 254.175683 
L 125.183475 253.648997 
L 125.541584 253.648997 
L 125.541584 252.068939 
L 126.773103 252.068939 
L 126.773103 250.488881 
L 127.165014 250.488881 
L 127.165014 249.435508 
L 128.107907 249.435508 
L 128.107907 248.908822 
L 128.885774 248.908822 
L 128.885774 247.85545 
L 129.118302 247.85545 
L 129.118302 246.802078 
L 129.233413 246.802078 
L 129.233413 246.275392 
L 129.963666 246.275392 
L 129.963666 245.22202 
L 130.822389 245.22202 
L 130.822389 243.115275 
L 131.338382 243.115275 
L 131.439773 238.901787 
L 132.133473 238.901787 
L 132.133473 236.795043 
L 133.124876 236.795043 
L 133.124876 236.268356 
L 133.488207 236.268356 
L 133.488207 235.214984 
L 134.149701 235.214984 
L 134.149701 234.688298 
L 134.61933 234.688298 
L 134.61933 233.10824 
L 135.199312 233.10824 
L 135.199312 229.948123 
L 135.917737 229.948123 
L 135.917737 229.421437 
L 136.112156 229.421437 
L 136.112156 228.368065 
L 136.227776 228.368065 
L 136.304433 226.788007 
L 136.570107 226.788007 
L 136.570107 225.734635 
L 136.757427 225.734635 
L 136.757427 223.627891 
L 136.942755 223.627891 
L 136.942755 223.101204 
L 137.126135 223.101204 
L 137.126135 222.574518 
L 137.735587 222.574518 
L 137.735587 220.467774 
L 138.118883 220.467774 
L 138.221972 216.254285 
L 138.628343 216.254285 
L 138.628343 215.727599 
L 139.090775 215.727599 
L 139.090775 215.200913 
L 140.134598 215.200913 
L 140.134598 214.147541 
L 140.826843 214.147541 
L 140.915143 213.094169 
L 141.032186 213.094169 
L 141.032186 210.460738 
L 141.521035 210.460738 
L 141.521035 209.407366 
L 142.619936 209.407366 
L 142.726112 206.773936 
L 142.962669 206.773936 
L 142.962669 205.720564 
L 143.527762 205.720564 
L 143.527762 205.193878 
L 143.75376 205.193878 
L 143.75376 204.667192 
L 144.269971 204.667192 
L 144.269971 202.560447 
L 144.888619 202.560447 
L 144.888619 201.507075 
L 146.172658 201.507075 
L 146.172658 200.980389 
L 146.345539 200.980389 
L 146.452726 198.346959 
L 146.728368 198.346959 
L 146.728368 196.7669 
L 147.205618 196.7669 
L 147.205618 190.973354 
L 147.409112 190.973354 
L 147.409112 188.866609 
L 147.888024 188.866609 
L 147.888024 188.339923 
L 148.044783 188.339923 
L 148.044783 187.813237 
L 148.506778 187.813237 
L 148.525764 185.706493 
L 148.78943 185.706493 
L 148.78943 185.179807 
L 148.901221 185.179807 
L 148.901221 184.653121 
L 149.159312 184.653121 
L 149.159312 182.01969 
L 149.341352 182.01969 
L 149.413639 179.912946 
L 149.539426 179.912946 
L 149.539426 179.38626 
L 149.85877 179.38626 
L 149.963932 176.752829 
L 150.18963 176.752829 
L 150.18963 175.172771 
L 150.429467 175.172771 
L 150.429467 174.119399 
L 151.243836 174.119399 
L 151.340991 173.066027 
L 151.787359 173.066027 
L 151.834513 169.379224 
L 152.736878 169.379224 
L 152.826082 167.799166 
L 153.149313 167.799166 
L 153.149313 166.745794 
L 153.279836 166.745794 
L 153.323128 164.112363 
L 153.693887 164.112363 
L 153.693887 163.058991 
L 153.862384 163.058991 
L 153.862384 162.532305 
L 154.344733 162.532305 
L 154.344733 160.425561 
L 154.480132 160.425561 
L 154.480132 158.845503 
L 154.787617 158.845503 
L 154.787617 157.79213 
L 155.011454 157.79213 
L 155.076745 156.212072 
L 155.61575 156.212072 
L 155.653621 154.632014 
L 155.854218 154.632014 
L 155.854218 151.471897 
L 155.966049 151.471897 
L 155.966049 150.418525 
L 156.163105 150.418525 
L 156.163105 149.891839 
L 156.32159 149.891839 
L 156.32159 149.365153 
L 156.526689 149.365153 
L 156.526689 148.838467 
L 156.705677 148.838467 
L 156.705677 148.311781 
L 156.92979 148.311781 
L 156.964915 145.151665 
L 157.2549 145.151665 
L 157.300853 144.098292 
L 157.415209 144.098292 
L 157.506157 142.518234 
L 157.596634 142.518234 
L 157.60791 141.464862 
L 157.854169 141.464862 
L 157.854169 140.41149 
L 157.998067 140.41149 
L 157.998067 138.831432 
L 159.201253 138.831432 
L 159.283369 136.198001 
L 159.567767 136.198001 
L 159.658204 134.617943 
L 160.220333 134.617943 
L 160.278464 128.824396 
L 160.537682 128.824396 
L 160.594766 126.717652 
L 160.793103 126.717652 
L 160.877419 123.030849 
L 161.017045 123.030849 
L 161.06334 121.450791 
L 161.311231 121.450791 
L 161.311231 117.237302 
L 161.474555 117.237302 
L 161.582595 115.657244 
L 161.64531 115.657244 
L 161.64531 115.130558 
L 161.805549 115.130558 
L 161.814408 111.443755 
L 162.086834 111.443755 
L 162.086834 109.863697 
L 162.517456 109.863697 
L 162.517456 108.283639 
L 162.712026 108.283639 
L 162.712026 107.756953 
L 162.854457 107.756953 
L 162.912768 105.650209 
L 163.045324 105.650209 
L 163.045324 105.123522 
L 163.420904 105.123522 
L 163.517565 102.490092 
L 163.621681 102.490092 
L 163.621681 101.963406 
L 163.77274 101.963406 
L 163.77274 100.383348 
L 164.117618 100.383348 
L 164.210504 97.749917 
L 164.425332 97.749917 
L 164.425332 96.696545 
L 164.787563 96.696545 
L 164.787563 96.169859 
L 165.178976 96.169859 
L 165.178976 95.643173 
L 165.346138 95.643173 
L 165.360599 94.589801 
L 165.518877 94.589801 
L 165.568939 91.429684 
L 165.887376 91.429684 
L 165.887376 90.902998 
L 166.117256 90.902998 
L 166.20699 87.742882 
L 166.234507 87.742882 
L 166.337313 85.636137 
L 166.574863 85.636137 
L 166.581603 82.476021 
L 166.968122 82.476021 
L 166.968122 80.895963 
L 167.442734 80.895963 
L 167.51953 79.842591 
L 167.627751 79.842591 
L 167.722684 76.682474 
L 167.785687 76.682474 
L 167.785687 75.629102 
L 167.90477 75.629102 
L 167.991998 72.468985 
L 168.140524 72.468985 
L 168.140524 71.942299 
L 168.548585 71.942299 
L 168.560621 70.888927 
L 168.740162 70.888927 
L 168.758015 69.308869 
L 168.870661 69.308869 
L 168.976711 66.148752 
L 169.198498 66.148752 
L 169.262177 64.042008 
L 169.75779 64.042008 
L 169.75779 63.515322 
L 169.931039 63.515322 
L 169.931039 62.988636 
L 170.510761 62.988636 
L 170.510761 62.46195 
L 171.082245 62.46195 
L 171.082245 61.935264 
L 171.503976 61.935264 
L 171.503976 61.408578 
L 171.731152 61.408578 
L 171.731152 59.82852 
L 174.400072 59.82852 
L 174.400072 58.775147 
L 176.600793 58.775147 
L 176.600793 58.248461 
L 176.736832 58.248461 
L 176.736832 57.195089 
L 177.079739 57.195089 
L 177.079739 56.668403 
L 177.31801 56.668403 
L 177.343477 55.615031 
L 177.813334 55.615031 
L 177.813334 54.561659 
L 178.0872 54.561659 
L 178.0872 54.034973 
L 178.31562 54.034973 
L 178.31562 50.34817 
L 178.649364 50.34817 
L 178.649364 48.768112 
L 179.629855 48.768112 
L 179.629855 47.188054 
L 180.329895 47.188054 
L 180.329895 46.661368 
L 180.442869 46.661368 
L 180.539991 44.554623 
L 180.711659 44.554623 
L 180.711659 44.027937 
L 181.216753 44.027937 
L 181.216753 41.394507 
L 181.679299 41.394507 
L 181.679299 38.761076 
L 182.259268 38.761076 
L 182.259268 37.707704 
L 187.381503 37.707704 
L 187.381503 37.181018 
L 187.881299 37.181018 
L 187.881299 36.654332 
L 188.078847 36.654332 
L 188.078847 35.60096 
L 188.194358 35.60096 
L 188.194358 33.494215 
L 194.883311 33.494215 
L 194.883311 32.967529 
L 196.535173 32.967529 
L 196.535173 31.387471 
L 199.811628 31.387471 
L 199.811628 30.860785 
L 216.359094 30.860785 
L 216.359094 30.334099 
L 338.688 30.334099 
L 338.688 30.334099 
" style="fill:none;stroke:#000080;stroke-linecap:square;stroke-width:1.5;"/>
   </g>
   <g id="line2d_31">
    <defs>
     <path d="M 0 6 
C 1.591219 6 3.117479 5.367802 4.242641 4.242641 
C 5.367802 3.117479 6 1.591219 6 0 
C 6 -1.591219 5.367802 -3.117479 4.242641 -4.242641 
C 3.117479 -5.367802 1.591219 -6 0 -6 
C -1.591219 -6 -3.117479 -5.367802 -4.242641 -4.242641 
C -5.367802 -3.117479 -6 -1.591219 -6 0 
C -6 1.591219 -5.367802 3.117479 -4.242641 4.242641 
C -3.117479 5.367802 -1.591219 6 0 6 
z
" id="mf703897c4a" style="stroke:#000080;stroke-width:1.5;"/>
    </defs>
    <g>
     <use style="fill-opacity:0;stroke:#000080;stroke-width:1.5;" x="112.431755" xlink:href="#mf703897c4a" y="274.189754"/>
     <use style="fill-opacity:0;stroke:#000080;stroke-width:1.5;" x="151.787359" xlink:href="#mf703897c4a" y="170.432596"/>
     <use style="fill-opacity:0;stroke:#000080;stroke-width:1.5;" x="167.785687" xlink:href="#mf703897c4a" y="76.682474"/>
     <use style="fill-opacity:0;stroke:#000080;stroke-width:1.5;" x="216.359094" xlink:href="#mf703897c4a" y="30.860785"/>
     <use style="fill-opacity:0;stroke:#000080;stroke-width:1.5;" x="216.359094" xlink:href="#mf703897c4a" y="30.334099"/>
     <use style="fill-opacity:0;stroke:#000080;stroke-width:1.5;" x="338.688" xlink:href="#mf703897c4a" y="30.334099"/>
    </g>
   </g>
   <g id="line2d_32">
    <path style="fill:none;stroke:#000080;stroke-linecap:square;stroke-width:1.5;"/>
    <g/>
   </g>
   <g id="line2d_33">
    <defs>
     <path d="M 0 1.5 
C 0.397805 1.5 0.77937 1.341951 1.06066 1.06066 
C 1.341951 0.77937 1.5 0.397805 1.5 0 
C 1.5 -0.397805 1.341951 -0.77937 1.06066 -1.06066 
C 0.77937 -1.341951 0.397805 -1.5 0 -1.5 
C -0.397805 -1.5 -0.77937 -1.341951 -1.06066 -1.06066 
C -1.341951 -0.77937 -1.5 -0.397805 -1.5 0 
C -1.5 0.397805 -1.341951 0.77937 -1.06066 1.06066 
C -0.77937 1.341951 -0.397805 1.5 0 1.5 
z
" id="m553a2905e4" style="stroke:#ff00ff;"/>
    </defs>
    <g>
     <use style="fill:#ff00ff;stroke:#ff00ff;" x="181.082312" xlink:href="#m553a2905e4" y="30.334099"/>
     <use style="fill:#ff00ff;stroke:#ff00ff;" x="181.082312" xlink:href="#m553a2905e4" y="30.334099"/>
    </g>
   </g>
   <g id="line2d_34">
    <path d="M 29.53256 298.944 
L 29.53256 297.363942 
L 41.620548 297.363942 
L 41.620548 295.783884 
L 63.467834 295.783884 
L 63.467834 295.257197 
L 65.796525 295.257197 
L 65.796525 293.677139 
L 78.941764 293.677139 
L 78.941764 292.097081 
L 82.626842 292.097081 
L 82.626842 291.570395 
L 89.972502 291.570395 
L 89.972502 291.043709 
L 91.535274 291.043709 
L 91.535274 290.517023 
L 93.863965 290.517023 
L 93.863965 289.990337 
L 95.125186 289.990337 
L 95.125186 289.463651 
L 96.301313 289.463651 
L 96.301313 287.883592 
L 97.043522 287.883592 
L 97.043522 287.356906 
L 101.506816 287.356906 
L 101.506816 286.83022 
L 105.951954 286.83022 
L 105.951954 286.303534 
L 106.593963 286.303534 
L 106.593963 285.250162 
L 106.802819 285.250162 
L 106.802819 284.723476 
L 107.811151 284.723476 
L 107.811151 284.19679 
L 109.668146 284.19679 
L 109.668146 283.670104 
L 110.694282 283.670104 
L 110.694282 283.143418 
L 111.346294 283.143418 
L 111.346294 282.090045 
L 112.72987 282.090045 
L 112.72987 281.563359 
L 113.873839 281.563359 
L 113.873839 281.036673 
L 114.947365 281.036673 
L 114.947365 280.509987 
L 115.586238 280.509987 
L 115.586238 279.456615 
L 117.598418 279.456615 
L 117.598418 278.929929 
L 118.148599 278.929929 
L 118.148599 278.403243 
L 118.994305 278.403243 
L 118.994305 276.823185 
L 119.40226 276.823185 
L 119.40226 276.296499 
L 122.191052 276.296499 
L 122.191052 275.769812 
L 122.531342 275.769812 
L 122.531342 274.71644 
L 124.965026 274.71644 
L 124.965026 273.663068 
L 128.107907 273.663068 
L 128.107907 273.136382 
L 128.531065 273.136382 
L 128.590686 272.08301 
L 129.118302 272.08301 
L 129.118302 271.556324 
L 129.347769 271.556324 
L 129.347769 270.502952 
L 130.61164 270.502952 
L 130.61164 269.449579 
L 130.822389 269.449579 
L 130.822389 268.922893 
L 132.181982 268.922893 
L 132.181982 268.396207 
L 132.470242 268.396207 
L 132.470242 267.869521 
L 134.279041 267.869521 
L 134.279041 267.342835 
L 134.661403 267.342835 
L 134.661403 264.709405 
L 134.828688 264.709405 
L 134.828688 263.656033 
L 135.321124 263.656033 
L 135.321124 263.129347 
L 135.641855 263.129347 
L 135.721125 259.96923 
L 136.905847 259.96923 
L 136.905847 258.915858 
L 137.235245 258.915858 
L 137.235245 258.389172 
L 138.084384 258.389172 
L 138.084384 256.809114 
L 140.287441 256.809114 
L 140.287441 255.229055 
L 140.856326 255.229055 
L 140.856326 254.702369 
L 141.746425 254.702369 
L 141.746425 254.175683 
L 141.996555 254.175683 
L 141.996555 253.648997 
L 143.092717 253.648997 
L 143.11861 252.595625 
L 143.298796 252.595625 
L 143.349938 249.962195 
L 143.927534 249.962195 
L 143.927534 246.275392 
L 144.629556 246.275392 
L 144.629556 245.748706 
L 144.747789 245.748706 
L 144.794859 243.641962 
L 144.958609 243.641962 
L 144.958609 239.955159 
L 146.019967 239.955159 
L 146.019967 239.428473 
L 146.958248 239.428473 
L 147.041095 237.848415 
L 148.23877 237.848415 
L 148.258051 236.268356 
L 148.54473 236.268356 
L 148.54473 235.74167 
L 149.323233 235.74167 
L 149.413639 234.688298 
L 150.395406 234.688298 
L 150.395406 232.581554 
L 150.766468 232.581554 
L 150.799813 227.841379 
L 150.982078 227.841379 
L 151.031458 223.627891 
L 151.660987 223.627891 
L 151.771612 220.99446 
L 152.021866 220.99446 
L 152.09934 217.834344 
L 152.161072 217.834344 
L 152.161072 216.254285 
L 153.438049 216.254285 
L 153.438049 215.727599 
L 154.344733 215.727599 
L 154.344733 215.200913 
L 154.533999 215.200913 
L 154.533999 214.674227 
L 155.193657 214.674227 
L 155.193657 213.620855 
L 155.854218 213.620855 
L 155.854218 213.094169 
L 156.30945 213.094169 
L 156.418408 209.934052 
L 157.104709 209.934052 
L 157.104709 209.407366 
L 157.574059 209.407366 
L 157.574059 208.353994 
L 157.98704 208.353994 
L 158.0201 207.300622 
L 158.107956 207.300622 
L 158.184468 202.033761 
L 158.314856 202.033761 
L 158.314856 200.980389 
L 158.931675 200.980389 
L 158.931675 200.453703 
L 159.446449 200.453703 
L 159.446449 198.873645 
L 159.827761 198.873645 
L 159.867418 197.293586 
L 159.966168 197.293586 
L 159.966168 196.240214 
L 160.181471 196.240214 
L 160.181471 195.713528 
L 160.307457 195.713528 
L 160.413354 192.026726 
L 160.585265 192.026726 
L 160.632719 188.866609 
L 160.86807 188.866609 
L 160.952025 187.813237 
L 161.109513 187.813237 
L 161.137157 186.233179 
L 161.311231 186.233179 
L 161.311231 185.706493 
L 161.438393 185.706493 
L 161.438393 185.179807 
L 161.618459 185.179807 
L 161.636364 183.073062 
L 161.805549 183.073062 
L 161.805549 181.493004 
L 162.457805 181.493004 
L 162.457805 179.912946 
L 162.576903 179.912946 
L 162.593851 176.752829 
L 162.812686 176.752829 
L 162.812686 175.172771 
L 163.469301 175.172771 
L 163.469301 173.066027 
L 164.133133 173.066027 
L 164.133133 171.485969 
L 164.310575 171.485969 
L 164.310575 169.90591 
L 164.448194 169.90591 
L 164.53934 165.692422 
L 164.667654 165.692422 
L 164.682688 162.532305 
L 164.79503 162.532305 
L 164.79503 160.952247 
L 164.928893 160.952247 
L 164.928893 160.425561 
L 165.215452 160.425561 
L 165.215452 159.898875 
L 165.490206 159.898875 
L 165.490206 158.318817 
L 165.633093 158.318817 
L 165.633093 155.685386 
L 166.303112 155.685386 
L 166.303112 155.1587 
L 166.527611 155.1587 
L 166.527611 154.105328 
L 166.715855 154.105328 
L 166.802568 149.365153 
L 166.855717 149.365153 
L 166.888852 146.205037 
L 167.001045 146.205037 
L 167.001045 145.151665 
L 167.158215 145.151665 
L 167.229781 144.098292 
L 167.391347 144.098292 
L 167.46837 142.518234 
L 167.917258 142.518234 
L 168.010633 138.304745 
L 168.202038 138.304745 
L 168.300012 135.671315 
L 168.52449 135.671315 
L 168.626667 134.617943 
L 168.805533 134.617943 
L 168.888381 131.457826 
L 169.029495 131.457826 
L 169.03535 128.29771 
L 169.325624 128.29771 
L 169.325624 127.771024 
L 169.897641 127.771024 
L 169.897641 127.244338 
L 170.310587 127.244338 
L 170.310587 126.190966 
L 170.429886 126.190966 
L 170.483844 124.084221 
L 170.660731 124.084221 
L 170.671394 123.030849 
L 170.851674 123.030849 
L 170.951613 120.397419 
L 170.983054 120.397419 
L 171.061409 117.763988 
L 171.134225 117.763988 
L 171.154974 116.710616 
L 171.488725 116.710616 
L 171.488725 115.130558 
L 171.766226 115.130558 
L 171.766226 114.603872 
L 171.900854 114.603872 
L 171.970255 112.497128 
L 172.019658 112.497128 
L 172.049233 109.863697 
L 172.142557 109.863697 
L 172.142557 109.337011 
L 172.322872 109.337011 
L 172.322872 108.810325 
L 172.472525 108.810325 
L 172.477331 107.756953 
L 172.768032 107.756953 
L 172.768032 106.703581 
L 172.913929 106.703581 
L 172.913929 104.596836 
L 173.044666 104.596836 
L 173.114303 103.543464 
L 173.243551 103.543464 
L 173.243551 98.803289 
L 173.408333 98.803289 
L 173.408333 97.223231 
L 173.580597 97.223231 
L 173.666095 95.116487 
L 173.777957 95.116487 
L 173.791333 90.376312 
L 174.192253 90.376312 
L 174.192253 89.849626 
L 174.339714 89.849626 
L 174.400072 85.636137 
L 174.571383 85.636137 
L 174.65217 81.422649 
L 174.741027 81.422649 
L 174.741027 80.895963 
L 174.879752 80.895963 
L 174.879752 80.369277 
L 175.054729 80.369277 
L 175.067161 78.789218 
L 175.297603 78.789218 
L 175.379171 74.049044 
L 175.669698 74.049044 
L 175.673699 70.362241 
L 175.825069 70.362241 
L 175.923943 68.255497 
L 176.0301 68.255497 
L 176.123923 65.622066 
L 176.232749 65.622066 
L 176.25985 60.355206 
L 176.375521 60.355206 
L 176.467508 58.248461 
L 176.528565 58.248461 
L 176.528565 56.668403 
L 176.653823 56.668403 
L 176.665166 53.508287 
L 176.766919 53.508287 
L 176.849392 51.928228 
L 177.042792 51.928228 
L 177.042792 50.34817 
L 177.347112 50.34817 
L 177.347112 49.821484 
L 177.538694 49.821484 
L 177.631914 47.188054 
L 177.667636 47.188054 
L 177.667636 45.607995 
L 177.838089 45.607995 
L 177.905102 44.027937 
L 177.98588 44.027937 
L 177.98588 43.501251 
L 178.198323 43.501251 
L 178.301862 40.867821 
L 178.360262 40.867821 
L 178.360262 40.341135 
L 178.770377 40.341135 
L 178.817212 39.287762 
L 179.05611 39.287762 
L 179.075871 37.181018 
L 179.190701 37.181018 
L 179.200509 35.074274 
L 179.453585 35.074274 
L 179.453585 34.547588 
L 179.699866 34.547588 
L 179.731597 33.494215 
L 179.83275 33.494215 
L 179.83275 32.967529 
L 180.020844 32.967529 
L 180.020844 32.440843 
L 180.231593 32.440843 
L 180.311505 31.387471 
L 180.831127 31.387471 
L 180.831127 30.860785 
L 181.082312 30.860785 
L 181.082312 30.334099 
L 338.688 30.334099 
L 338.688 30.334099 
" style="fill:none;stroke:#ff00ff;stroke-linecap:square;stroke-width:1.5;"/>
   </g>
   <g id="line2d_35">
    <defs>
     <path d="M 0 8.485281 
L 5.091169 0 
L 0 -8.485281 
L -5.091169 0 
z
" id="m2168acbd3d" style="stroke:#ff00ff;stroke-linejoin:miter;stroke-width:1.5;"/>
    </defs>
    <g>
     <use style="fill-opacity:0;stroke:#ff00ff;stroke-linejoin:miter;stroke-width:1.5;" x="97.043522" xlink:href="#m2168acbd3d" y="287.356906"/>
     <use style="fill-opacity:0;stroke:#ff00ff;stroke-linejoin:miter;stroke-width:1.5;" x="160.952025" xlink:href="#m2168acbd3d" y="187.813237"/>
     <use style="fill-opacity:0;stroke:#ff00ff;stroke-linejoin:miter;stroke-width:1.5;" x="179.83275" xlink:href="#m2168acbd3d" y="33.494215"/>
     <use style="fill-opacity:0;stroke:#ff00ff;stroke-linejoin:miter;stroke-width:1.5;" x="181.082312" xlink:href="#m2168acbd3d" y="30.334099"/>
     <use style="fill-opacity:0;stroke:#ff00ff;stroke-linejoin:miter;stroke-width:1.5;" x="181.082312" xlink:href="#m2168acbd3d" y="30.334099"/>
     <use style="fill-opacity:0;stroke:#ff00ff;stroke-linejoin:miter;stroke-width:1.5;" x="338.688" xlink:href="#m2168acbd3d" y="30.334099"/>
    </g>
   </g>
   <g id="line2d_36">
    <path style="fill:none;stroke:#ff00ff;stroke-linecap:square;stroke-width:1.5;"/>
    <g/>
   </g>
   <g id="line2d_37">
    <defs>
     <path d="M 0 1.5 
C 0.397805 1.5 0.77937 1.341951 1.06066 1.06066 
C 1.341951 0.77937 1.5 0.397805 1.5 0 
C 1.5 -0.397805 1.341951 -0.77937 1.06066 -1.06066 
C 0.77937 -1.341951 0.397805 -1.5 0 -1.5 
C -0.397805 -1.5 -0.77937 -1.341951 -1.06066 -1.06066 
C -1.341951 -0.77937 -1.5 -0.397805 -1.5 0 
C -1.5 0.397805 -1.341951 0.77937 -1.06066 1.06066 
C -0.77937 1.341951 -0.397805 1.5 0 1.5 
z
" id="m8b293ab331" style="stroke:#ff7500;"/>
    </defs>
    <g>
     <use style="fill:#ff7500;stroke:#ff7500;" x="283.450975" xlink:href="#m8b293ab331" y="198.873645"/>
     <use style="fill:#ff7500;stroke:#ff7500;" x="283.450975" xlink:href="#m8b293ab331" y="198.873645"/>
    </g>
   </g>
   <g id="line2d_38">
    <path d="M 29.53256 298.944 
L 29.53256 298.417314 
L 41.620548 298.417314 
L 41.620548 297.363942 
L 57.6 297.363942 
L 57.6 296.837256 
L 60.779557 296.837256 
L 60.779557 295.783884 
L 63.467834 295.783884 
L 63.467834 295.257197 
L 65.796525 295.257197 
L 65.796525 294.730511 
L 67.850577 294.730511 
L 67.850577 293.150453 
L 69.687988 293.150453 
L 69.687988 292.097081 
L 74.263433 292.097081 
L 74.263433 290.517023 
L 77.884514 290.517023 
L 77.884514 289.990337 
L 79.938565 289.990337 
L 79.938565 289.463651 
L 80.881459 289.463651 
L 80.881459 288.936964 
L 82.626842 288.936964 
L 82.626842 288.410278 
L 91.535274 288.410278 
L 91.535274 287.356906 
L 100.641881 287.356906 
L 100.641881 286.303534 
L 115.711251 286.303534 
L 115.711251 285.776848 
L 117.598418 285.776848 
L 117.598418 285.250162 
L 124.292765 285.250162 
L 124.292765 284.723476 
L 126.904721 284.723476 
L 126.904721 284.19679 
L 130.822389 284.19679 
L 130.822389 283.670104 
L 134.106373 283.670104 
L 134.106373 283.143418 
L 134.911732 283.143418 
L 134.911732 282.090045 
L 137.451437 282.090045 
L 137.451437 281.563359 
L 137.664982 281.563359 
L 137.664982 281.036673 
L 138.728473 281.036673 
L 138.728473 280.509987 
L 140.348205 280.509987 
L 140.348205 279.983301 
L 140.79731 279.983301 
L 140.79731 279.456615 
L 144.629556 279.456615 
L 144.629556 278.929929 
L 146.324022 278.929929 
L 146.324022 278.403243 
L 147.061745 278.403243 
L 147.061745 277.349871 
L 147.327999 277.349871 
L 147.327999 276.823185 
L 150.224095 276.823185 
L 150.224095 276.296499 
L 152.253262 276.296499 
L 152.253262 275.769812 
L 152.466496 275.769812 
L 152.466496 275.243126 
L 154.56087 275.243126 
L 154.56087 274.71644 
L 156.693802 274.71644 
L 156.693802 273.663068 
L 160.054568 273.663068 
L 160.054568 273.136382 
L 163.380469 273.136382 
L 163.380469 272.609696 
L 165.454301 272.609696 
L 165.454301 272.08301 
L 166.378267 272.08301 
L 166.378267 269.976266 
L 166.695783 269.976266 
L 166.695783 268.922893 
L 171.999913 268.922893 
L 171.999913 268.396207 
L 178.270865 268.396207 
L 178.270865 267.342835 
L 178.770377 267.342835 
L 178.770377 266.816149 
L 180.246989 266.816149 
L 180.246989 262.075974 
L 183.781483 262.075974 
L 183.781483 261.022602 
L 185.774272 261.022602 
L 185.774272 258.389172 
L 187.446803 258.389172 
L 187.446803 256.809114 
L 191.371638 256.809114 
L 191.371638 255.229055 
L 192.105714 255.229055 
L 192.105714 254.175683 
L 196.170951 254.175683 
L 196.236287 252.068939 
L 200.006003 252.068939 
L 200.006003 251.015567 
L 203.359319 251.015567 
L 203.359319 248.908822 
L 206.74781 248.908822 
L 206.74781 248.382136 
L 208.814428 248.382136 
L 208.814428 247.85545 
L 209.749574 247.85545 
L 209.749574 246.802078 
L 209.901982 246.802078 
L 209.901982 246.275392 
L 210.427885 246.275392 
L 210.427885 244.168648 
L 217.943265 244.168648 
L 217.943265 242.588589 
L 219.091835 242.588589 
L 219.107423 241.008531 
L 220.093761 241.008531 
L 220.093761 238.375101 
L 220.97822 238.375101 
L 220.97822 237.848415 
L 221.742055 237.848415 
L 221.742055 237.321729 
L 223.479334 237.321729 
L 223.479334 236.268356 
L 224.416075 236.268356 
L 224.416075 234.688298 
L 226.641337 234.688298 
L 226.641337 234.161612 
L 226.844607 234.161612 
L 226.844607 232.054868 
L 230.171034 232.054868 
L 230.171034 231.528182 
L 231.270834 231.528182 
L 231.270834 228.368065 
L 231.616126 228.368065 
L 231.616126 226.788007 
L 233.135901 226.788007 
L 233.135901 226.261321 
L 235.022775 226.261321 
L 235.022775 225.734635 
L 235.148758 225.734635 
L 235.148758 224.681263 
L 238.027326 224.681263 
L 238.027326 223.627891 
L 238.348784 223.627891 
L 238.348784 223.101204 
L 240.158061 223.101204 
L 240.158061 222.574518 
L 242.884877 222.574518 
L 242.884877 221.521146 
L 243.867979 221.521146 
L 243.867979 220.99446 
L 246.233819 220.99446 
L 246.233819 220.467774 
L 246.679986 220.467774 
L 246.679986 218.36103 
L 248.388412 218.36103 
L 248.388412 217.834344 
L 249.795009 217.834344 
L 249.795009 216.780971 
L 251.235175 216.780971 
L 251.235175 216.254285 
L 252.437045 216.254285 
L 252.437045 214.147541 
L 254.730974 214.147541 
L 254.730974 213.620855 
L 256.509011 213.620855 
L 256.509011 213.094169 
L 256.75794 213.094169 
L 256.75794 212.040797 
L 258.573653 212.040797 
L 258.573653 210.987425 
L 260.218021 210.987425 
L 260.218021 210.460738 
L 261.720612 210.460738 
L 261.720612 209.407366 
L 263.103945 209.407366 
L 263.103945 208.88068 
L 263.79016 208.88068 
L 263.79016 208.353994 
L 264.385567 208.353994 
L 264.385567 206.773936 
L 265.579416 206.773936 
L 265.579416 205.720564 
L 266.696747 205.720564 
L 266.696747 205.193878 
L 267.746781 205.193878 
L 267.746781 204.140506 
L 268.737166 204.140506 
L 268.737166 203.087133 
L 270.563663 203.087133 
L 270.563663 202.560447 
L 272.988191 202.560447 
L 272.988191 202.033761 
L 273.726837 202.033761 
L 273.726837 200.980389 
L 279.258075 200.980389 
L 279.258075 200.453703 
L 279.776934 200.453703 
L 279.776934 199.927017 
L 281.71053 199.927017 
L 281.71053 199.400331 
L 283.450975 199.400331 
L 283.450975 198.873645 
L 338.688 198.873645 
L 338.688 198.873645 
" style="fill:none;stroke:#ff7500;stroke-linecap:square;stroke-width:1.5;"/>
   </g>
   <g id="line2d_39">
    <defs>
     <path d="M 0 -6 
L -1.347084 -1.854102 
L -5.706339 -1.854102 
L -2.179628 0.708204 
L -3.526712 4.854102 
L -0 2.291796 
L 3.526712 4.854102 
L 2.179628 0.708204 
L 5.706339 -1.854102 
L 1.347084 -1.854102 
z
" id="mb3ff7855b4" style="stroke:#ff7500;stroke-linejoin:bevel;stroke-width:1.5;"/>
    </defs>
    <g>
     <use style="fill-opacity:0;stroke:#ff7500;stroke-linejoin:bevel;stroke-width:1.5;" x="100.641881" xlink:href="#mb3ff7855b4" y="287.356906"/>
     <use style="fill-opacity:0;stroke:#ff7500;stroke-linejoin:bevel;stroke-width:1.5;" x="156.693802" xlink:href="#mb3ff7855b4" y="274.71644"/>
     <use style="fill-opacity:0;stroke:#ff7500;stroke-linejoin:bevel;stroke-width:1.5;" x="238.348784" xlink:href="#mb3ff7855b4" y="223.627891"/>
     <use style="fill-opacity:0;stroke:#ff7500;stroke-linejoin:bevel;stroke-width:1.5;" x="283.450975" xlink:href="#mb3ff7855b4" y="199.400331"/>
     <use style="fill-opacity:0;stroke:#ff7500;stroke-linejoin:bevel;stroke-width:1.5;" x="283.450975" xlink:href="#mb3ff7855b4" y="198.873645"/>
     <use style="fill-opacity:0;stroke:#ff7500;stroke-linejoin:bevel;stroke-width:1.5;" x="338.688" xlink:href="#mb3ff7855b4" y="198.873645"/>
    </g>
   </g>
   <g id="line2d_40">
    <path style="fill:none;stroke:#ff7500;stroke-linecap:square;stroke-width:1.5;"/>
    <g/>
   </g>
   <g id="line2d_41">
    <path clip-path="url(#pab8dd203c9)" d="M 218.221714 242.588589 
" style="fill:none;stroke:#ff7500;stroke-linecap:square;stroke-width:1.5;"/>
    <defs>
     <path d="M -12 12 
L 12 -12 
M -12 -12 
L 12 12 
" id="m7e201749c3" style="stroke:#ff7500;"/>
    </defs>
    <g clip-path="url(#pab8dd203c9)">
     <use style="fill:#ff7500;stroke:#ff7500;" x="218.221714" xlink:href="#m7e201749c3" y="242.588589"/>
    </g>
   </g>
   <g id="line2d_42">
    <defs>
     <path d="M 0 1.5 
C 0.397805 1.5 0.77937 1.341951 1.06066 1.06066 
C 1.341951 0.77937 1.5 0.397805 1.5 0 
C 1.5 -0.397805 1.341951 -0.77937 1.06066 -1.06066 
C 0.77937 -1.341951 0.397805 -1.5 0 -1.5 
C -0.397805 -1.5 -0.77937 -1.341951 -1.06066 -1.06066 
C -1.341951 -0.77937 -1.5 -0.397805 -1.5 0 
C -1.5 0.397805 -1.341951 0.77937 -1.06066 1.06066 
C -0.77937 1.341951 -0.397805 1.5 0 1.5 
z
" id="m569ffe676f" style="stroke:#6495ed;"/>
    </defs>
    <g>
     <use style="fill:#6495ed;stroke:#6495ed;" x="192.454604" xlink:href="#m569ffe676f" y="188.339923"/>
     <use style="fill:#6495ed;stroke:#6495ed;" x="192.454604" xlink:href="#m569ffe676f" y="188.339923"/>
    </g>
   </g>
   <g id="line2d_43">
    <path d="M 29.53256 298.944 
L 29.53256 298.417314 
L 41.620548 298.417314 
L 41.620548 297.890628 
L 53.708537 297.890628 
L 53.708537 296.837256 
L 60.779557 296.837256 
L 60.779557 295.783884 
L 67.850577 295.783884 
L 67.850577 294.730511 
L 74.263433 294.730511 
L 74.263433 293.677139 
L 77.884514 293.677139 
L 77.884514 292.623767 
L 79.938565 292.623767 
L 79.938565 291.570395 
L 81.775977 291.570395 
L 81.775977 291.043709 
L 82.626842 291.043709 
L 82.626842 290.517023 
L 83.438118 290.517023 
L 83.438118 288.936964 
L 84.213325 288.936964 
L 84.213325 288.410278 
L 86.351421 288.410278 
L 86.351421 287.883592 
L 87.009585 287.883592 
L 87.009585 287.356906 
L 87.643811 287.356906 
L 87.643811 286.83022 
L 88.846997 286.83022 
L 88.846997 285.776848 
L 89.972502 285.776848 
L 89.972502 285.250162 
L 90.509138 285.250162 
L 90.509138 284.723476 
L 91.029752 284.723476 
L 91.029752 284.19679 
L 91.535274 284.19679 
L 91.535274 283.670104 
L 97.403108 283.670104 
L 97.403108 283.143418 
L 100.934985 283.143418 
L 100.934985 282.090045 
L 102.859376 282.090045 
L 102.859376 281.563359 
L 103.372333 281.563359 
L 103.372333 281.036673 
L 104.114542 281.036673 
L 104.114542 280.509987 
L 104.826449 280.509987 
L 104.826449 279.983301 
L 105.057436 279.983301 
L 105.057436 279.456615 
L 107.414787 279.456615 
L 107.414787 277.876557 
L 108.006005 277.876557 
L 108.006005 277.349871 
L 110.016944 277.349871 
L 110.016944 276.823185 
L 110.859585 276.823185 
L 110.859585 271.029638 
L 113.594805 271.029638 
L 113.594805 270.502952 
L 114.418861 270.502952 
L 114.418861 269.449579 
L 116.443076 269.449579 
L 116.443076 268.396207 
L 117.373392 268.396207 
L 117.373392 267.869521 
L 118.148599 267.869521 
L 118.256582 266.289463 
L 124.891598 266.289463 
L 124.891598 264.709405 
L 125.110962 264.709405 
L 125.110962 264.182719 
L 125.399222 264.182719 
L 125.399222 263.656033 
L 126.573795 263.656033 
L 126.573795 263.129347 
L 126.70692 263.129347 
L 126.773103 259.96923 
L 126.904721 259.96923 
L 126.904721 259.442544 
L 127.100304 259.442544 
L 127.100304 258.389172 
L 128.168991 258.389172 
L 128.168991 257.3358 
L 130.073348 257.3358 
L 130.073348 255.755741 
L 131.740458 255.755741 
L 131.740458 255.229055 
L 131.938072 255.229055 
L 132.036046 254.175683 
L 132.133473 254.175683 
L 132.133473 251.542253 
L 132.422528 251.542253 
L 132.470242 249.435508 
L 132.753813 249.435508 
L 132.753813 248.382136 
L 133.170708 248.382136 
L 133.170708 247.85545 
L 133.307488 247.85545 
L 133.352844 246.275392 
L 133.800029 246.275392 
L 133.800029 245.748706 
L 133.931979 245.748706 
L 133.931979 245.22202 
L 134.236034 245.22202 
L 134.321942 243.641962 
L 134.407429 243.641962 
L 134.450015 241.008531 
L 134.577155 241.008531 
L 134.577155 240.481845 
L 135.522271 240.481845 
L 135.522271 239.955159 
L 136.266147 239.955159 
L 136.266147 239.428473 
L 136.831795 239.428473 
L 136.905847 238.375101 
L 140.378508 238.375101 
L 140.378508 237.848415 
L 140.708409 237.848415 
L 140.708409 236.795043 
L 141.263941 236.795043 
L 141.263941 235.214984 
L 141.941279 235.214984 
L 141.941279 233.634926 
L 145.281568 233.634926 
L 145.350002 230.47481 
L 145.418169 230.47481 
L 145.418169 229.948123 
L 145.799493 229.948123 
L 145.799493 229.421437 
L 146.516724 229.421437 
L 146.516724 228.894751 
L 147.185137 228.894751 
L 147.185137 228.368065 
L 147.86833 228.368065 
L 147.86833 227.841379 
L 148.064279 227.841379 
L 148.064279 227.314693 
L 148.258051 227.314693 
L 148.354135 225.207949 
L 148.845415 225.207949 
L 148.845415 224.681263 
L 151.453659 224.681263 
L 151.453659 224.154577 
L 151.755852 224.154577 
L 151.755852 221.521146 
L 154.070741 221.521146 
L 154.084543 219.414402 
L 154.385464 219.414402 
L 154.385464 218.887716 
L 154.827327 218.887716 
L 154.827327 218.36103 
L 155.34833 218.36103 
L 155.437927 215.727599 
L 155.577798 215.727599 
L 155.628383 214.674227 
L 155.804285 214.674227 
L 155.804285 214.147541 
L 155.928852 214.147541 
L 156.027868 210.987425 
L 156.764934 210.987425 
L 156.764934 210.460738 
L 158.51933 210.460738 
L 158.51933 209.934052 
L 158.847883 209.934052 
L 158.847883 209.407366 
L 159.887213 209.407366 
L 159.887213 207.827308 
L 160.432539 207.827308 
L 160.432539 207.300622 
L 160.774311 207.300622 
L 160.774311 206.773936 
L 161.283861 206.773936 
L 161.283861 206.24725 
L 162.987455 206.24725 
L 162.987455 205.720564 
L 163.437051 205.720564 
L 163.437051 205.193878 
L 164.241356 205.193878 
L 164.287532 204.140506 
L 165.338904 204.140506 
L 165.338904 203.087133 
L 166.702476 203.087133 
L 166.702476 202.560447 
L 167.557803 202.560447 
L 167.557803 202.033761 
L 167.722684 202.033761 
L 167.760513 200.980389 
L 168.318321 200.980389 
L 168.318321 200.453703 
L 168.626667 200.453703 
L 168.626667 199.400331 
L 169.763406 199.400331 
L 169.763406 198.873645 
L 170.623359 198.873645 
L 170.623359 198.346959 
L 171.314944 198.346959 
L 171.391826 196.7669 
L 173.777957 196.7669 
L 173.777957 195.186842 
L 175.876553 195.186842 
L 175.876553 194.13347 
L 177.219431 194.13347 
L 177.219431 193.606784 
L 177.646212 193.606784 
L 177.646212 193.080098 
L 178.432134 193.080098 
L 178.432134 192.553412 
L 179.392276 192.553412 
L 179.440696 191.50004 
L 180.982272 191.50004 
L 180.982272 190.973354 
L 184.926769 190.973354 
L 184.926769 189.919981 
L 188.141592 189.919981 
L 188.141592 189.393295 
L 191.673143 189.393295 
L 191.673143 188.866609 
L 192.454604 188.866609 
L 192.454604 188.339923 
L 338.688 188.339923 
L 338.688 188.339923 
" style="fill:none;stroke:#6495ed;stroke-linecap:square;stroke-width:1.5;"/>
   </g>
   <g id="line2d_44">
    <defs>
     <path d="M -0 6 
L 6 -6 
L -6 -6 
z
" id="mc997f039dd" style="stroke:#6495ed;stroke-linejoin:miter;stroke-width:1.5;"/>
    </defs>
    <g>
     <use style="fill-opacity:0;stroke:#6495ed;stroke-linejoin:miter;stroke-width:1.5;" x="118.256582" xlink:href="#mc997f039dd" y="266.816149"/>
     <use style="fill-opacity:0;stroke:#6495ed;stroke-linejoin:miter;stroke-width:1.5;" x="163.437051" xlink:href="#mc997f039dd" y="205.720564"/>
     <use style="fill-opacity:0;stroke:#6495ed;stroke-linejoin:miter;stroke-width:1.5;" x="192.454604" xlink:href="#mc997f039dd" y="188.866609"/>
     <use style="fill-opacity:0;stroke:#6495ed;stroke-linejoin:miter;stroke-width:1.5;" x="192.454604" xlink:href="#mc997f039dd" y="188.339923"/>
     <use style="fill-opacity:0;stroke:#6495ed;stroke-linejoin:miter;stroke-width:1.5;" x="192.454604" xlink:href="#mc997f039dd" y="188.339923"/>
     <use style="fill-opacity:0;stroke:#6495ed;stroke-linejoin:miter;stroke-width:1.5;" x="338.688" xlink:href="#mc997f039dd" y="188.339923"/>
    </g>
   </g>
   <g id="line2d_45">
    <path style="fill:none;stroke:#6495ed;stroke-linecap:square;stroke-width:1.5;"/>
    <g/>
   </g>
   <g id="line2d_46">
    <path clip-path="url(#pab8dd203c9)" d="M 137.910857 238.375101 
" style="fill:none;stroke:#6495ed;stroke-linecap:square;stroke-width:1.5;"/>
    <defs>
     <path d="M -12 12 
L 12 -12 
M -12 -12 
L 12 12 
" id="mcba2d5e302" style="stroke:#6495ed;"/>
    </defs>
    <g clip-path="url(#pab8dd203c9)">
     <use style="fill:#6495ed;stroke:#6495ed;" x="137.910857" xlink:href="#mcba2d5e302" y="238.375101"/>
    </g>
   </g>
   <g id="line2d_47">
    <path d="M 338.688 198.873645 
L 369.60768 293.571802 
" style="fill:none;stroke:#ff7500;stroke-linecap:square;stroke-width:1.5;"/>
    <g>
     <use style="fill-opacity:0;stroke:#ff7500;stroke-linejoin:bevel;stroke-width:1.5;" x="338.688" xlink:href="#mb3ff7855b4" y="198.873645"/>
     <use style="fill-opacity:0;stroke:#ff7500;stroke-linejoin:bevel;stroke-width:1.5;" x="369.60768" xlink:href="#mb3ff7855b4" y="293.571802"/>
    </g>
   </g>
   <g id="line2d_48">
    <path d="M 338.688 188.339923 
L 369.60768 207.616634 
" style="fill:none;stroke:#6495ed;stroke-linecap:square;stroke-width:1.5;"/>
    <g>
     <use style="fill-opacity:0;stroke:#6495ed;stroke-linejoin:miter;stroke-width:1.5;" x="338.688" xlink:href="#mc997f039dd" y="188.339923"/>
     <use style="fill-opacity:0;stroke:#6495ed;stroke-linejoin:miter;stroke-width:1.5;" x="369.60768" xlink:href="#mc997f039dd" y="207.616634"/>
    </g>
   </g>
   <g id="line2d_49">
    <path d="M 338.688 30.334099 
L 369.60768 121.661465 
" style="fill:none;stroke:#000080;stroke-linecap:square;stroke-width:1.5;"/>
    <g>
     <use style="fill-opacity:0;stroke:#000080;stroke-width:1.5;" x="338.688" xlink:href="#mf703897c4a" y="30.334099"/>
     <use style="fill-opacity:0;stroke:#000080;stroke-width:1.5;" x="369.60768" xlink:href="#mf703897c4a" y="121.661465"/>
    </g>
   </g>
   <g id="line2d_50">
    <path d="M 338.688 30.334099 
L 369.60768 35.706297 
" style="fill:none;stroke:#ff00ff;stroke-linecap:square;stroke-width:1.5;"/>
    <g>
     <use style="fill-opacity:0;stroke:#ff00ff;stroke-linejoin:miter;stroke-width:1.5;" x="338.688" xlink:href="#m2168acbd3d" y="30.334099"/>
     <use style="fill-opacity:0;stroke:#ff00ff;stroke-linejoin:miter;stroke-width:1.5;" x="369.60768" xlink:href="#m2168acbd3d" y="35.706297"/>
    </g>
   </g>
   <g id="line2d_51">
    <path d="M 338.688 298.944 
L 338.688 30.334099 
" style="fill:none;stroke:#000000;stroke-linecap:square;stroke-width:1.5;"/>
   </g>
   <g id="patch_3">
    <path d="M 57.6 298.944 
L 57.6 27.648 
" style="fill:none;stroke:#000000;stroke-linecap:square;stroke-linejoin:miter;stroke-width:0.8;"/>
   </g>
   <g id="patch_4">
    <path d="M 338.688 298.944 
L 338.688 27.648 
" style="fill:none;stroke:#000000;stroke-linecap:square;stroke-linejoin:miter;stroke-width:0.8;"/>
   </g>
   <g id="patch_5">
    <path d="M 57.6 298.944 
L 338.688 298.944 
" style="fill:none;stroke:#000000;stroke-linecap:square;stroke-linejoin:miter;stroke-width:0.8;"/>
   </g>
   <g id="patch_6">
    <path d="M 57.6 27.648 
L 338.688 27.648 
" style="fill:none;stroke:#000000;stroke-linecap:square;stroke-linejoin:miter;stroke-width:0.8;"/>
   </g>
   <g id="text_13">
    <!-- RANDOMSEA -->
    <g transform="translate(375.22944 298.262739)scale(0.17 -0.17)">
     <defs>
      <path d="M 2841 2188 
Q 3044 2119 3236 1894 
Q 3428 1669 3622 1275 
L 4263 0 
L 3584 0 
L 2988 1197 
Q 2756 1666 2539 1819 
Q 2322 1972 1947 1972 
L 1259 1972 
L 1259 0 
L 628 0 
L 628 4666 
L 2053 4666 
Q 2853 4666 3247 4331 
Q 3641 3997 3641 3322 
Q 3641 2881 3436 2590 
Q 3231 2300 2841 2188 
z
M 1259 4147 
L 1259 2491 
L 2053 2491 
Q 2509 2491 2742 2702 
Q 2975 2913 2975 3322 
Q 2975 3731 2742 3939 
Q 2509 4147 2053 4147 
L 1259 4147 
z
" id="DejaVuSans-52" transform="scale(0.015625)"/>
      <path d="M 2188 4044 
L 1331 1722 
L 3047 1722 
L 2188 4044 
z
M 1831 4666 
L 2547 4666 
L 4325 0 
L 3669 0 
L 3244 1197 
L 1141 1197 
L 716 0 
L 50 0 
L 1831 4666 
z
" id="DejaVuSans-41" transform="scale(0.015625)"/>
      <path d="M 628 4666 
L 1478 4666 
L 3547 763 
L 3547 4666 
L 4159 4666 
L 4159 0 
L 3309 0 
L 1241 3903 
L 1241 0 
L 628 0 
L 628 4666 
z
" id="DejaVuSans-4e" transform="scale(0.015625)"/>
      <path d="M 1259 4147 
L 1259 519 
L 2022 519 
Q 2988 519 3436 956 
Q 3884 1394 3884 2338 
Q 3884 3275 3436 3711 
Q 2988 4147 2022 4147 
L 1259 4147 
z
M 628 4666 
L 1925 4666 
Q 3281 4666 3915 4102 
Q 4550 3538 4550 2338 
Q 4550 1131 3912 565 
Q 3275 0 1925 0 
L 628 0 
L 628 4666 
z
" id="DejaVuSans-44" transform="scale(0.015625)"/>
      <path d="M 2522 4238 
Q 1834 4238 1429 3725 
Q 1025 3213 1025 2328 
Q 1025 1447 1429 934 
Q 1834 422 2522 422 
Q 3209 422 3611 934 
Q 4013 1447 4013 2328 
Q 4013 3213 3611 3725 
Q 3209 4238 2522 4238 
z
M 2522 4750 
Q 3503 4750 4090 4092 
Q 4678 3434 4678 2328 
Q 4678 1225 4090 567 
Q 3503 -91 2522 -91 
Q 1538 -91 948 565 
Q 359 1222 359 2328 
Q 359 3434 948 4092 
Q 1538 4750 2522 4750 
z
" id="DejaVuSans-4f" transform="scale(0.015625)"/>
      <path d="M 628 4666 
L 1569 4666 
L 2759 1491 
L 3956 4666 
L 4897 4666 
L 4897 0 
L 4281 0 
L 4281 4097 
L 3078 897 
L 2444 897 
L 1241 4097 
L 1241 0 
L 628 0 
L 628 4666 
z
" id="DejaVuSans-4d" transform="scale(0.015625)"/>
      <path d="M 3425 4513 
L 3425 3897 
Q 3066 4069 2747 4153 
Q 2428 4238 2131 4238 
Q 1616 4238 1336 4038 
Q 1056 3838 1056 3469 
Q 1056 3159 1242 3001 
Q 1428 2844 1947 2747 
L 2328 2669 
Q 3034 2534 3370 2195 
Q 3706 1856 3706 1288 
Q 3706 609 3251 259 
Q 2797 -91 1919 -91 
Q 1588 -91 1214 -16 
Q 841 59 441 206 
L 441 856 
Q 825 641 1194 531 
Q 1563 422 1919 422 
Q 2459 422 2753 634 
Q 3047 847 3047 1241 
Q 3047 1584 2836 1778 
Q 2625 1972 2144 2069 
L 1759 2144 
Q 1053 2284 737 2584 
Q 422 2884 422 3419 
Q 422 4038 858 4394 
Q 1294 4750 2059 4750 
Q 2388 4750 2728 4690 
Q 3069 4631 3425 4513 
z
" id="DejaVuSans-53" transform="scale(0.015625)"/>
      <path d="M 628 4666 
L 3578 4666 
L 3578 4134 
L 1259 4134 
L 1259 2753 
L 3481 2753 
L 3481 2222 
L 1259 2222 
L 1259 531 
L 3634 531 
L 3634 0 
L 628 0 
L 628 4666 
z
" id="DejaVuSans-45" transform="scale(0.015625)"/>
     </defs>
     <use xlink:href="#DejaVuSans-52"/>
     <use x="65.482422" xlink:href="#DejaVuSans-41"/>
     <use x="133.890625" xlink:href="#DejaVuSans-4e"/>
     <use x="208.695312" xlink:href="#DejaVuSans-44"/>
     <use x="285.697266" xlink:href="#DejaVuSans-4f"/>
     <use x="364.408203" xlink:href="#DejaVuSans-4d"/>
     <use x="450.6875" xlink:href="#DejaVuSans-53"/>
     <use x="514.164062" xlink:href="#DejaVuSans-45"/>
     <use x="577.347656" xlink:href="#DejaVuSans-41"/>
    </g>
   </g>
   <g id="text_14">
    <!-- TPE-hyper -->
    <g transform="translate(375.22944 212.307571)scale(0.17 -0.17)">
     <defs>
      <path d="M -19 4666 
L 3928 4666 
L 3928 4134 
L 2272 4134 
L 2272 0 
L 1638 0 
L 1638 4134 
L -19 4134 
L -19 4666 
z
" id="DejaVuSans-54" transform="scale(0.015625)"/>
      <path d="M 1259 4147 
L 1259 2394 
L 2053 2394 
Q 2494 2394 2734 2622 
Q 2975 2850 2975 3272 
Q 2975 3691 2734 3919 
Q 2494 4147 2053 4147 
L 1259 4147 
z
M 628 4666 
L 2053 4666 
Q 2838 4666 3239 4311 
Q 3641 3956 3641 3272 
Q 3641 2581 3239 2228 
Q 2838 1875 2053 1875 
L 1259 1875 
L 1259 0 
L 628 0 
L 628 4666 
z
" id="DejaVuSans-50" transform="scale(0.015625)"/>
      <path d="M 3513 2113 
L 3513 0 
L 2938 0 
L 2938 2094 
Q 2938 2591 2744 2837 
Q 2550 3084 2163 3084 
Q 1697 3084 1428 2787 
Q 1159 2491 1159 1978 
L 1159 0 
L 581 0 
L 581 4863 
L 1159 4863 
L 1159 2956 
Q 1366 3272 1645 3428 
Q 1925 3584 2291 3584 
Q 2894 3584 3203 3211 
Q 3513 2838 3513 2113 
z
" id="DejaVuSans-68" transform="scale(0.015625)"/>
      <path d="M 2059 -325 
Q 1816 -950 1584 -1140 
Q 1353 -1331 966 -1331 
L 506 -1331 
L 506 -850 
L 844 -850 
Q 1081 -850 1212 -737 
Q 1344 -625 1503 -206 
L 1606 56 
L 191 3500 
L 800 3500 
L 1894 763 
L 2988 3500 
L 3597 3500 
L 2059 -325 
z
" id="DejaVuSans-79" transform="scale(0.015625)"/>
     </defs>
     <use xlink:href="#DejaVuSans-54"/>
     <use x="61.083984" xlink:href="#DejaVuSans-50"/>
     <use x="121.386719" xlink:href="#DejaVuSans-45"/>
     <use x="184.570312" xlink:href="#DejaVuSans-2d"/>
     <use x="220.654297" xlink:href="#DejaVuSans-68"/>
     <use x="284.033203" xlink:href="#DejaVuSans-79"/>
     <use x="343.212891" xlink:href="#DejaVuSans-70"/>
     <use x="406.689453" xlink:href="#DejaVuSans-65"/>
     <use x="468.212891" xlink:href="#DejaVuSans-72"/>
    </g>
   </g>
   <g id="text_15">
    <!-- CMA-ES-py -->
    <g transform="translate(375.22944 126.352403)scale(0.17 -0.17)">
     <defs>
      <path d="M 4122 4306 
L 4122 3641 
Q 3803 3938 3442 4084 
Q 3081 4231 2675 4231 
Q 1875 4231 1450 3742 
Q 1025 3253 1025 2328 
Q 1025 1406 1450 917 
Q 1875 428 2675 428 
Q 3081 428 3442 575 
Q 3803 722 4122 1019 
L 4122 359 
Q 3791 134 3420 21 
Q 3050 -91 2638 -91 
Q 1578 -91 968 557 
Q 359 1206 359 2328 
Q 359 3453 968 4101 
Q 1578 4750 2638 4750 
Q 3056 4750 3426 4639 
Q 3797 4528 4122 4306 
z
" id="DejaVuSans-43" transform="scale(0.015625)"/>
     </defs>
     <use xlink:href="#DejaVuSans-43"/>
     <use x="69.824219" xlink:href="#DejaVuSans-4d"/>
     <use x="156.103516" xlink:href="#DejaVuSans-41"/>
     <use x="222.261719" xlink:href="#DejaVuSans-2d"/>
     <use x="258.345703" xlink:href="#DejaVuSans-45"/>
     <use x="321.529297" xlink:href="#DejaVuSans-53"/>
     <use x="385.005859" xlink:href="#DejaVuSans-2d"/>
     <use x="421.089844" xlink:href="#DejaVuSans-70"/>
     <use x="484.566406" xlink:href="#DejaVuSans-79"/>
    </g>
   </g>
   <g id="text_16">
    <!-- DE-scipy -->
    <g transform="translate(375.22944 40.397235)scale(0.17 -0.17)">
     <use xlink:href="#DejaVuSans-44"/>
     <use x="77.001953" xlink:href="#DejaVuSans-45"/>
     <use x="140.185547" xlink:href="#DejaVuSans-2d"/>
     <use x="176.269531" xlink:href="#DejaVuSans-73"/>
     <use x="228.369141" xlink:href="#DejaVuSans-63"/>
     <use x="283.349609" xlink:href="#DejaVuSans-69"/>
     <use x="311.132812" xlink:href="#DejaVuSans-70"/>
     <use x="374.609375" xlink:href="#DejaVuSans-79"/>
    </g>
   </g>
   <g id="text_17">
    <!-- bbob-mixint f17, 5-D -->
    <g transform="translate(60.41088 38.111366)scale(0.102 -0.102)">
     <defs>
      <path d="M 3116 1747 
Q 3116 2381 2855 2742 
Q 2594 3103 2138 3103 
Q 1681 3103 1420 2742 
Q 1159 2381 1159 1747 
Q 1159 1113 1420 752 
Q 1681 391 2138 391 
Q 2594 391 2855 752 
Q 3116 1113 3116 1747 
z
M 1159 2969 
Q 1341 3281 1617 3432 
Q 1894 3584 2278 3584 
Q 2916 3584 3314 3078 
Q 3713 2572 3713 1747 
Q 3713 922 3314 415 
Q 2916 -91 2278 -91 
Q 1894 -91 1617 61 
Q 1341 213 1159 525 
L 1159 0 
L 581 0 
L 581 4863 
L 1159 4863 
L 1159 2969 
z
" id="DejaVuSans-62" transform="scale(0.015625)"/>
      <path d="M 3513 3500 
L 2247 1797 
L 3578 0 
L 2900 0 
L 1881 1375 
L 863 0 
L 184 0 
L 1544 1831 
L 300 3500 
L 978 3500 
L 1906 2253 
L 2834 3500 
L 3513 3500 
z
" id="DejaVuSans-78" transform="scale(0.015625)"/>
      <path d="M 525 4666 
L 3525 4666 
L 3525 4397 
L 1831 0 
L 1172 0 
L 2766 4134 
L 525 4134 
L 525 4666 
z
" id="DejaVuSans-37" transform="scale(0.015625)"/>
      <path d="M 691 4666 
L 3169 4666 
L 3169 4134 
L 1269 4134 
L 1269 2991 
Q 1406 3038 1543 3061 
Q 1681 3084 1819 3084 
Q 2600 3084 3056 2656 
Q 3513 2228 3513 1497 
Q 3513 744 3044 326 
Q 2575 -91 1722 -91 
Q 1428 -91 1123 -41 
Q 819 9 494 109 
L 494 744 
Q 775 591 1075 516 
Q 1375 441 1709 441 
Q 2250 441 2565 725 
Q 2881 1009 2881 1497 
Q 2881 1984 2565 2268 
Q 2250 2553 1709 2553 
Q 1456 2553 1204 2497 
Q 953 2441 691 2322 
L 691 4666 
z
" id="DejaVuSans-35" transform="scale(0.015625)"/>
     </defs>
     <use xlink:href="#DejaVuSans-62"/>
     <use x="63.476562" xlink:href="#DejaVuSans-62"/>
     <use x="126.953125" xlink:href="#DejaVuSans-6f"/>
     <use x="188.134766" xlink:href="#DejaVuSans-62"/>
     <use x="251.611328" xlink:href="#DejaVuSans-2d"/>
     <use x="287.695312" xlink:href="#DejaVuSans-6d"/>
     <use x="385.107422" xlink:href="#DejaVuSans-69"/>
     <use x="412.890625" xlink:href="#DejaVuSans-78"/>
     <use x="472.070312" xlink:href="#DejaVuSans-69"/>
     <use x="499.853516" xlink:href="#DejaVuSans-6e"/>
     <use x="563.232422" xlink:href="#DejaVuSans-74"/>
     <use x="602.441406" xlink:href="#DejaVuSans-20"/>
     <use x="634.228516" xlink:href="#DejaVuSans-66"/>
     <use x="669.433594" xlink:href="#DejaVuSans-31"/>
     <use x="733.056641" xlink:href="#DejaVuSans-37"/>
     <use x="796.679688" xlink:href="#DejaVuSans-2c"/>
     <use x="828.466797" xlink:href="#DejaVuSans-20"/>
     <use x="860.253906" xlink:href="#DejaVuSans-35"/>
     <use x="923.876953" xlink:href="#DejaVuSans-2d"/>
     <use x="959.960938" xlink:href="#DejaVuSans-44"/>
    </g>
    <!-- 51 targets: 100..1e-08 -->
    <g transform="translate(60.41088 49.533135)scale(0.102 -0.102)">
     <defs>
      <path d="M 750 794 
L 1409 794 
L 1409 0 
L 750 0 
L 750 794 
z
M 750 3309 
L 1409 3309 
L 1409 2516 
L 750 2516 
L 750 3309 
z
" id="DejaVuSans-3a" transform="scale(0.015625)"/>
     </defs>
     <use xlink:href="#DejaVuSans-35"/>
     <use x="63.623047" xlink:href="#DejaVuSans-31"/>
     <use x="127.246094" xlink:href="#DejaVuSans-20"/>
     <use x="159.033203" xlink:href="#DejaVuSans-74"/>
     <use x="198.242188" xlink:href="#DejaVuSans-61"/>
     <use x="259.521484" xlink:href="#DejaVuSans-72"/>
     <use x="298.884766" xlink:href="#DejaVuSans-67"/>
     <use x="362.361328" xlink:href="#DejaVuSans-65"/>
     <use x="423.884766" xlink:href="#DejaVuSans-74"/>
     <use x="463.09375" xlink:href="#DejaVuSans-73"/>
     <use x="515.193359" xlink:href="#DejaVuSans-3a"/>
     <use x="548.884766" xlink:href="#DejaVuSans-20"/>
     <use x="580.671875" xlink:href="#DejaVuSans-31"/>
     <use x="644.294922" xlink:href="#DejaVuSans-30"/>
     <use x="707.917969" xlink:href="#DejaVuSans-30"/>
     <use x="771.541016" xlink:href="#DejaVuSans-2e"/>
     <use x="803.328125" xlink:href="#DejaVuSans-2e"/>
     <use x="835.115234" xlink:href="#DejaVuSans-31"/>
     <use x="898.738281" xlink:href="#DejaVuSans-65"/>
     <use x="960.261719" xlink:href="#DejaVuSans-2d"/>
     <use x="996.345703" xlink:href="#DejaVuSans-30"/>
     <use x="1059.96875" xlink:href="#DejaVuSans-38"/>
    </g>
    <!-- 15 instances -->
    <g transform="translate(60.41088 60.954904)scale(0.102 -0.102)">
     <use xlink:href="#DejaVuSans-31"/>
     <use x="63.623047" xlink:href="#DejaVuSans-35"/>
     <use x="127.246094" xlink:href="#DejaVuSans-20"/>
     <use x="159.033203" xlink:href="#DejaVuSans-69"/>
     <use x="186.816406" xlink:href="#DejaVuSans-6e"/>
     <use x="250.195312" xlink:href="#DejaVuSans-73"/>
     <use x="302.294922" xlink:href="#DejaVuSans-74"/>
     <use x="341.503906" xlink:href="#DejaVuSans-61"/>
     <use x="402.783203" xlink:href="#DejaVuSans-6e"/>
     <use x="466.162109" xlink:href="#DejaVuSans-63"/>
     <use x="521.142578" xlink:href="#DejaVuSans-65"/>
     <use x="582.666016" xlink:href="#DejaVuSans-73"/>
    </g>
   </g>
   <g id="text_18">
    <!-- v2.4.1.1 -->
    <g style="fill:#808080;" transform="translate(177.692437 294.151352)scale(0.1 -0.1)">
     <use xlink:href="#DejaVuSans-76"/>
     <use x="59.179688" xlink:href="#DejaVuSans-32"/>
     <use x="122.802734" xlink:href="#DejaVuSans-2e"/>
     <use x="154.589844" xlink:href="#DejaVuSans-34"/>
     <use x="218.212891" xlink:href="#DejaVuSans-2e"/>
     <use x="250" xlink:href="#DejaVuSans-31"/>
     <use x="313.623047" xlink:href="#DejaVuSans-2e"/>
     <use x="345.410156" xlink:href="#DejaVuSans-31"/>
    </g>
   </g>
   <g id="text_19">
    <!-- 17 Schaffer F7, condition 10 -->
    <g transform="translate(56.836187 21.648)scale(0.2 -0.2)">
     <use xlink:href="#DejaVuSans-31"/>
     <use x="63.623047" xlink:href="#DejaVuSans-37"/>
     <use x="127.246094" xlink:href="#DejaVuSans-20"/>
     <use x="159.033203" xlink:href="#DejaVuSans-53"/>
     <use x="222.509766" xlink:href="#DejaVuSans-63"/>
     <use x="277.490234" xlink:href="#DejaVuSans-68"/>
     <use x="340.869141" xlink:href="#DejaVuSans-61"/>
     <use x="402.148438" xlink:href="#DejaVuSans-66"/>
     <use x="437.353516" xlink:href="#DejaVuSans-66"/>
     <use x="472.558594" xlink:href="#DejaVuSans-65"/>
     <use x="534.082031" xlink:href="#DejaVuSans-72"/>
     <use x="575.195312" xlink:href="#DejaVuSans-20"/>
     <use x="606.982422" xlink:href="#DejaVuSans-46"/>
     <use x="664.501953" xlink:href="#DejaVuSans-37"/>
     <use x="728.125" xlink:href="#DejaVuSans-2c"/>
     <use x="759.912109" xlink:href="#DejaVuSans-20"/>
     <use x="791.699219" xlink:href="#DejaVuSans-63"/>
     <use x="846.679688" xlink:href="#DejaVuSans-6f"/>
     <use x="907.861328" xlink:href="#DejaVuSans-6e"/>
     <use x="971.240234" xlink:href="#DejaVuSans-64"/>
     <use x="1034.716797" xlink:href="#DejaVuSans-69"/>
     <use x="1062.5" xlink:href="#DejaVuSans-74"/>
     <use x="1101.708984" xlink:href="#DejaVuSans-69"/>
     <use x="1129.492188" xlink:href="#DejaVuSans-6f"/>
     <use x="1190.673828" xlink:href="#DejaVuSans-6e"/>
     <use x="1254.052734" xlink:href="#DejaVuSans-20"/>
     <use x="1285.839844" xlink:href="#DejaVuSans-31"/>
     <use x="1349.462891" xlink:href="#DejaVuSans-30"/>
    </g>
   </g>
  </g>
 </g>
 <defs>
  <clipPath id="pab8dd203c9">
   <rect height="271.296" width="281.088" x="57.6" y="27.648"/>
  </clipPath>
 </defs>
</svg>
