<?xml version="1.0" encoding="utf-8" standalone="no"?>
<!DOCTYPE svg PUBLIC "-//W3C//DTD SVG 1.1//EN"
  "http://www.w3.org/Graphics/SVG/1.1/DTD/svg11.dtd">
<svg height="345.6pt" version="1.1" viewBox="0 0 460.8 345.6" width="460.8pt" xmlns="http://www.w3.org/2000/svg" xmlns:xlink="http://www.w3.org/1999/xlink">
 <metadata>
  <rdf:RDF xmlns:cc="http://creativecommons.org/ns#" xmlns:dc="http://purl.org/dc/elements/1.1/" xmlns:rdf="http://www.w3.org/1999/02/22-rdf-syntax-ns#">
   <cc:Work>
    <dc:type rdf:resource="http://purl.org/dc/dcmitype/StillImage"/>
    <dc:date>2022-03-29T13:03:14.227377</dc:date>
    <dc:format>image/svg+xml</dc:format>
    <dc:creator>
     <cc:Agent>
      <dc:title>Matplotlib v3.4.3, https://matplotlib.org/</dc:title>
     </cc:Agent>
    </dc:creator>
   </cc:Work>
  </rdf:RDF>
 </metadata>
 <defs>
  <style type="text/css">*{stroke-linecap:butt;stroke-linejoin:round;}</style>
 </defs>
 <g id="figure_1">
  <g id="patch_1">
   <path d="M 0 345.6 
L 460.8 345.6 
L 460.8 0 
L 0 0 
z
" style="fill:#ffffff;"/>
  </g>
  <g id="axes_1">
   <g id="patch_2">
    <path d="M 57.6 298.944 
L 338.688 298.944 
L 338.688 27.648 
L 57.6 27.648 
z
" style="fill:#ffffff;"/>
   </g>
   <g id="matplotlib.axis_1">
    <g id="xtick_1">
     <g id="line2d_1">
      <path clip-path="url(#p7e1d30b619)" d="M 57.6 298.944 
L 57.6 27.648 
" style="fill:none;stroke:#b0b0b0;stroke-linecap:square;stroke-width:0.8;"/>
     </g>
     <g id="line2d_2">
      <defs>
       <path d="M 0 0 
L 0 3.5 
" id="me21fb33d1b" style="stroke:#000000;stroke-width:0.8;"/>
      </defs>
      <g>
       <use style="stroke:#000000;stroke-width:0.8;" x="57.6" xlink:href="#me21fb33d1b" y="298.944"/>
      </g>
     </g>
     <g id="text_1">
      <!-- 0 -->
      <g transform="translate(51.2375 321.140875)scale(0.2 -0.2)">
       <defs>
        <path d="M 2034 4250 
Q 1547 4250 1301 3770 
Q 1056 3291 1056 2328 
Q 1056 1369 1301 889 
Q 1547 409 2034 409 
Q 2525 409 2770 889 
Q 3016 1369 3016 2328 
Q 3016 3291 2770 3770 
Q 2525 4250 2034 4250 
z
M 2034 4750 
Q 2819 4750 3233 4129 
Q 3647 3509 3647 2328 
Q 3647 1150 3233 529 
Q 2819 -91 2034 -91 
Q 1250 -91 836 529 
Q 422 1150 422 2328 
Q 422 3509 836 4129 
Q 1250 4750 2034 4750 
z
" id="DejaVuSans-30" transform="scale(0.015625)"/>
       </defs>
       <use xlink:href="#DejaVuSans-30"/>
      </g>
     </g>
    </g>
    <g id="xtick_2">
     <g id="line2d_3">
      <path clip-path="url(#p7e1d30b619)" d="M 137.910857 298.944 
L 137.910857 27.648 
" style="fill:none;stroke:#b0b0b0;stroke-linecap:square;stroke-width:0.8;"/>
     </g>
     <g id="line2d_4">
      <g>
       <use style="stroke:#000000;stroke-width:0.8;" x="137.910857" xlink:href="#me21fb33d1b" y="298.944"/>
      </g>
     </g>
     <g id="text_2">
      <!-- 2 -->
      <g transform="translate(131.548357 321.140875)scale(0.2 -0.2)">
       <defs>
        <path d="M 1228 531 
L 3431 531 
L 3431 0 
L 469 0 
L 469 531 
Q 828 903 1448 1529 
Q 2069 2156 2228 2338 
Q 2531 2678 2651 2914 
Q 2772 3150 2772 3378 
Q 2772 3750 2511 3984 
Q 2250 4219 1831 4219 
Q 1534 4219 1204 4116 
Q 875 4013 500 3803 
L 500 4441 
Q 881 4594 1212 4672 
Q 1544 4750 1819 4750 
Q 2544 4750 2975 4387 
Q 3406 4025 3406 3419 
Q 3406 3131 3298 2873 
Q 3191 2616 2906 2266 
Q 2828 2175 2409 1742 
Q 1991 1309 1228 531 
z
" id="DejaVuSans-32" transform="scale(0.015625)"/>
       </defs>
       <use xlink:href="#DejaVuSans-32"/>
      </g>
     </g>
    </g>
    <g id="xtick_3">
     <g id="line2d_5">
      <path clip-path="url(#p7e1d30b619)" d="M 218.221714 298.944 
L 218.221714 27.648 
" style="fill:none;stroke:#b0b0b0;stroke-linecap:square;stroke-width:0.8;"/>
     </g>
     <g id="line2d_6">
      <g>
       <use style="stroke:#000000;stroke-width:0.8;" x="218.221714" xlink:href="#me21fb33d1b" y="298.944"/>
      </g>
     </g>
     <g id="text_3">
      <!-- 4 -->
      <g transform="translate(211.859214 321.140875)scale(0.2 -0.2)">
       <defs>
        <path d="M 2419 4116 
L 825 1625 
L 2419 1625 
L 2419 4116 
z
M 2253 4666 
L 3047 4666 
L 3047 1625 
L 3713 1625 
L 3713 1100 
L 3047 1100 
L 3047 0 
L 2419 0 
L 2419 1100 
L 313 1100 
L 313 1709 
L 2253 4666 
z
" id="DejaVuSans-34" transform="scale(0.015625)"/>
       </defs>
       <use xlink:href="#DejaVuSans-34"/>
      </g>
     </g>
    </g>
    <g id="xtick_4">
     <g id="line2d_7">
      <path clip-path="url(#p7e1d30b619)" d="M 298.532571 298.944 
L 298.532571 27.648 
" style="fill:none;stroke:#b0b0b0;stroke-linecap:square;stroke-width:0.8;"/>
     </g>
     <g id="line2d_8">
      <g>
       <use style="stroke:#000000;stroke-width:0.8;" x="298.532571" xlink:href="#me21fb33d1b" y="298.944"/>
      </g>
     </g>
     <g id="text_4">
      <!-- 6 -->
      <g transform="translate(292.170071 321.140875)scale(0.2 -0.2)">
       <defs>
        <path d="M 2113 2584 
Q 1688 2584 1439 2293 
Q 1191 2003 1191 1497 
Q 1191 994 1439 701 
Q 1688 409 2113 409 
Q 2538 409 2786 701 
Q 3034 994 3034 1497 
Q 3034 2003 2786 2293 
Q 2538 2584 2113 2584 
z
M 3366 4563 
L 3366 3988 
Q 3128 4100 2886 4159 
Q 2644 4219 2406 4219 
Q 1781 4219 1451 3797 
Q 1122 3375 1075 2522 
Q 1259 2794 1537 2939 
Q 1816 3084 2150 3084 
Q 2853 3084 3261 2657 
Q 3669 2231 3669 1497 
Q 3669 778 3244 343 
Q 2819 -91 2113 -91 
Q 1303 -91 875 529 
Q 447 1150 447 2328 
Q 447 3434 972 4092 
Q 1497 4750 2381 4750 
Q 2619 4750 2861 4703 
Q 3103 4656 3366 4563 
z
" id="DejaVuSans-36" transform="scale(0.015625)"/>
       </defs>
       <use xlink:href="#DejaVuSans-36"/>
      </g>
     </g>
    </g>
    <g id="xtick_5">
     <g id="line2d_9">
      <path clip-path="url(#p7e1d30b619)" d="M 97.755429 298.944 
L 97.755429 27.648 
" style="fill:none;stroke:#b0b0b0;stroke-linecap:square;stroke-width:0.8;"/>
     </g>
     <g id="line2d_10">
      <defs>
       <path d="M 0 0 
L 0 2 
" id="m15e91ed3ef" style="stroke:#000000;stroke-width:0.6;"/>
      </defs>
      <g>
       <use style="stroke:#000000;stroke-width:0.6;" x="97.755429" xlink:href="#m15e91ed3ef" y="298.944"/>
      </g>
     </g>
    </g>
    <g id="xtick_6">
     <g id="line2d_11">
      <path clip-path="url(#p7e1d30b619)" d="M 178.066286 298.944 
L 178.066286 27.648 
" style="fill:none;stroke:#b0b0b0;stroke-linecap:square;stroke-width:0.8;"/>
     </g>
     <g id="line2d_12">
      <g>
       <use style="stroke:#000000;stroke-width:0.6;" x="178.066286" xlink:href="#m15e91ed3ef" y="298.944"/>
      </g>
     </g>
    </g>
    <g id="xtick_7">
     <g id="line2d_13">
      <path clip-path="url(#p7e1d30b619)" d="M 258.377143 298.944 
L 258.377143 27.648 
" style="fill:none;stroke:#b0b0b0;stroke-linecap:square;stroke-width:0.8;"/>
     </g>
     <g id="line2d_14">
      <g>
       <use style="stroke:#000000;stroke-width:0.6;" x="258.377143" xlink:href="#m15e91ed3ef" y="298.944"/>
      </g>
     </g>
    </g>
    <g id="xtick_8">
     <g id="line2d_15">
      <path clip-path="url(#p7e1d30b619)" d="M 338.688 298.944 
L 338.688 27.648 
" style="fill:none;stroke:#b0b0b0;stroke-linecap:square;stroke-width:0.8;"/>
     </g>
     <g id="line2d_16">
      <g>
       <use style="stroke:#000000;stroke-width:0.6;" x="338.688" xlink:href="#m15e91ed3ef" y="298.944"/>
      </g>
     </g>
    </g>
    <g id="text_5">
     <!-- log10(# f-evals / dimension) -->
     <g transform="translate(77.764078 342.217594)scale(0.17 -0.17)">
      <defs>
       <path d="M 603 4863 
L 1178 4863 
L 1178 0 
L 603 0 
L 603 4863 
z
" id="DejaVuSans-6c" transform="scale(0.015625)"/>
       <path d="M 1959 3097 
Q 1497 3097 1228 2736 
Q 959 2375 959 1747 
Q 959 1119 1226 758 
Q 1494 397 1959 397 
Q 2419 397 2687 759 
Q 2956 1122 2956 1747 
Q 2956 2369 2687 2733 
Q 2419 3097 1959 3097 
z
M 1959 3584 
Q 2709 3584 3137 3096 
Q 3566 2609 3566 1747 
Q 3566 888 3137 398 
Q 2709 -91 1959 -91 
Q 1206 -91 779 398 
Q 353 888 353 1747 
Q 353 2609 779 3096 
Q 1206 3584 1959 3584 
z
" id="DejaVuSans-6f" transform="scale(0.015625)"/>
       <path d="M 2906 1791 
Q 2906 2416 2648 2759 
Q 2391 3103 1925 3103 
Q 1463 3103 1205 2759 
Q 947 2416 947 1791 
Q 947 1169 1205 825 
Q 1463 481 1925 481 
Q 2391 481 2648 825 
Q 2906 1169 2906 1791 
z
M 3481 434 
Q 3481 -459 3084 -895 
Q 2688 -1331 1869 -1331 
Q 1566 -1331 1297 -1286 
Q 1028 -1241 775 -1147 
L 775 -588 
Q 1028 -725 1275 -790 
Q 1522 -856 1778 -856 
Q 2344 -856 2625 -561 
Q 2906 -266 2906 331 
L 2906 616 
Q 2728 306 2450 153 
Q 2172 0 1784 0 
Q 1141 0 747 490 
Q 353 981 353 1791 
Q 353 2603 747 3093 
Q 1141 3584 1784 3584 
Q 2172 3584 2450 3431 
Q 2728 3278 2906 2969 
L 2906 3500 
L 3481 3500 
L 3481 434 
z
" id="DejaVuSans-67" transform="scale(0.015625)"/>
       <path d="M 794 531 
L 1825 531 
L 1825 4091 
L 703 3866 
L 703 4441 
L 1819 4666 
L 2450 4666 
L 2450 531 
L 3481 531 
L 3481 0 
L 794 0 
L 794 531 
z
" id="DejaVuSans-31" transform="scale(0.015625)"/>
       <path d="M 1984 4856 
Q 1566 4138 1362 3434 
Q 1159 2731 1159 2009 
Q 1159 1288 1364 580 
Q 1569 -128 1984 -844 
L 1484 -844 
Q 1016 -109 783 600 
Q 550 1309 550 2009 
Q 550 2706 781 3412 
Q 1013 4119 1484 4856 
L 1984 4856 
z
" id="DejaVuSans-28" transform="scale(0.015625)"/>
       <path d="M 3272 2816 
L 2363 2816 
L 2100 1772 
L 3016 1772 
L 3272 2816 
z
M 2803 4594 
L 2478 3297 
L 3391 3297 
L 3719 4594 
L 4219 4594 
L 3897 3297 
L 4872 3297 
L 4872 2816 
L 3775 2816 
L 3519 1772 
L 4513 1772 
L 4513 1294 
L 3397 1294 
L 3072 0 
L 2572 0 
L 2894 1294 
L 1978 1294 
L 1656 0 
L 1153 0 
L 1478 1294 
L 494 1294 
L 494 1772 
L 1594 1772 
L 1856 2816 
L 850 2816 
L 850 3297 
L 1978 3297 
L 2297 4594 
L 2803 4594 
z
" id="DejaVuSans-23" transform="scale(0.015625)"/>
       <path id="DejaVuSans-20" transform="scale(0.015625)"/>
       <path d="M 2375 4863 
L 2375 4384 
L 1825 4384 
Q 1516 4384 1395 4259 
Q 1275 4134 1275 3809 
L 1275 3500 
L 2222 3500 
L 2222 3053 
L 1275 3053 
L 1275 0 
L 697 0 
L 697 3053 
L 147 3053 
L 147 3500 
L 697 3500 
L 697 3744 
Q 697 4328 969 4595 
Q 1241 4863 1831 4863 
L 2375 4863 
z
" id="DejaVuSans-66" transform="scale(0.015625)"/>
       <path d="M 313 2009 
L 1997 2009 
L 1997 1497 
L 313 1497 
L 313 2009 
z
" id="DejaVuSans-2d" transform="scale(0.015625)"/>
       <path d="M 3597 1894 
L 3597 1613 
L 953 1613 
Q 991 1019 1311 708 
Q 1631 397 2203 397 
Q 2534 397 2845 478 
Q 3156 559 3463 722 
L 3463 178 
Q 3153 47 2828 -22 
Q 2503 -91 2169 -91 
Q 1331 -91 842 396 
Q 353 884 353 1716 
Q 353 2575 817 3079 
Q 1281 3584 2069 3584 
Q 2775 3584 3186 3129 
Q 3597 2675 3597 1894 
z
M 3022 2063 
Q 3016 2534 2758 2815 
Q 2500 3097 2075 3097 
Q 1594 3097 1305 2825 
Q 1016 2553 972 2059 
L 3022 2063 
z
" id="DejaVuSans-65" transform="scale(0.015625)"/>
       <path d="M 191 3500 
L 800 3500 
L 1894 563 
L 2988 3500 
L 3597 3500 
L 2284 0 
L 1503 0 
L 191 3500 
z
" id="DejaVuSans-76" transform="scale(0.015625)"/>
       <path d="M 2194 1759 
Q 1497 1759 1228 1600 
Q 959 1441 959 1056 
Q 959 750 1161 570 
Q 1363 391 1709 391 
Q 2188 391 2477 730 
Q 2766 1069 2766 1631 
L 2766 1759 
L 2194 1759 
z
M 3341 1997 
L 3341 0 
L 2766 0 
L 2766 531 
Q 2569 213 2275 61 
Q 1981 -91 1556 -91 
Q 1019 -91 701 211 
Q 384 513 384 1019 
Q 384 1609 779 1909 
Q 1175 2209 1959 2209 
L 2766 2209 
L 2766 2266 
Q 2766 2663 2505 2880 
Q 2244 3097 1772 3097 
Q 1472 3097 1187 3025 
Q 903 2953 641 2809 
L 641 3341 
Q 956 3463 1253 3523 
Q 1550 3584 1831 3584 
Q 2591 3584 2966 3190 
Q 3341 2797 3341 1997 
z
" id="DejaVuSans-61" transform="scale(0.015625)"/>
       <path d="M 2834 3397 
L 2834 2853 
Q 2591 2978 2328 3040 
Q 2066 3103 1784 3103 
Q 1356 3103 1142 2972 
Q 928 2841 928 2578 
Q 928 2378 1081 2264 
Q 1234 2150 1697 2047 
L 1894 2003 
Q 2506 1872 2764 1633 
Q 3022 1394 3022 966 
Q 3022 478 2636 193 
Q 2250 -91 1575 -91 
Q 1294 -91 989 -36 
Q 684 19 347 128 
L 347 722 
Q 666 556 975 473 
Q 1284 391 1588 391 
Q 1994 391 2212 530 
Q 2431 669 2431 922 
Q 2431 1156 2273 1281 
Q 2116 1406 1581 1522 
L 1381 1569 
Q 847 1681 609 1914 
Q 372 2147 372 2553 
Q 372 3047 722 3315 
Q 1072 3584 1716 3584 
Q 2034 3584 2315 3537 
Q 2597 3491 2834 3397 
z
" id="DejaVuSans-73" transform="scale(0.015625)"/>
       <path d="M 1625 4666 
L 2156 4666 
L 531 -594 
L 0 -594 
L 1625 4666 
z
" id="DejaVuSans-2f" transform="scale(0.015625)"/>
       <path d="M 2906 2969 
L 2906 4863 
L 3481 4863 
L 3481 0 
L 2906 0 
L 2906 525 
Q 2725 213 2448 61 
Q 2172 -91 1784 -91 
Q 1150 -91 751 415 
Q 353 922 353 1747 
Q 353 2572 751 3078 
Q 1150 3584 1784 3584 
Q 2172 3584 2448 3432 
Q 2725 3281 2906 2969 
z
M 947 1747 
Q 947 1113 1208 752 
Q 1469 391 1925 391 
Q 2381 391 2643 752 
Q 2906 1113 2906 1747 
Q 2906 2381 2643 2742 
Q 2381 3103 1925 3103 
Q 1469 3103 1208 2742 
Q 947 2381 947 1747 
z
" id="DejaVuSans-64" transform="scale(0.015625)"/>
       <path d="M 603 3500 
L 1178 3500 
L 1178 0 
L 603 0 
L 603 3500 
z
M 603 4863 
L 1178 4863 
L 1178 4134 
L 603 4134 
L 603 4863 
z
" id="DejaVuSans-69" transform="scale(0.015625)"/>
       <path d="M 3328 2828 
Q 3544 3216 3844 3400 
Q 4144 3584 4550 3584 
Q 5097 3584 5394 3201 
Q 5691 2819 5691 2113 
L 5691 0 
L 5113 0 
L 5113 2094 
Q 5113 2597 4934 2840 
Q 4756 3084 4391 3084 
Q 3944 3084 3684 2787 
Q 3425 2491 3425 1978 
L 3425 0 
L 2847 0 
L 2847 2094 
Q 2847 2600 2669 2842 
Q 2491 3084 2119 3084 
Q 1678 3084 1418 2786 
Q 1159 2488 1159 1978 
L 1159 0 
L 581 0 
L 581 3500 
L 1159 3500 
L 1159 2956 
Q 1356 3278 1631 3431 
Q 1906 3584 2284 3584 
Q 2666 3584 2933 3390 
Q 3200 3197 3328 2828 
z
" id="DejaVuSans-6d" transform="scale(0.015625)"/>
       <path d="M 3513 2113 
L 3513 0 
L 2938 0 
L 2938 2094 
Q 2938 2591 2744 2837 
Q 2550 3084 2163 3084 
Q 1697 3084 1428 2787 
Q 1159 2491 1159 1978 
L 1159 0 
L 581 0 
L 581 3500 
L 1159 3500 
L 1159 2956 
Q 1366 3272 1645 3428 
Q 1925 3584 2291 3584 
Q 2894 3584 3203 3211 
Q 3513 2838 3513 2113 
z
" id="DejaVuSans-6e" transform="scale(0.015625)"/>
       <path d="M 513 4856 
L 1013 4856 
Q 1481 4119 1714 3412 
Q 1947 2706 1947 2009 
Q 1947 1309 1714 600 
Q 1481 -109 1013 -844 
L 513 -844 
Q 928 -128 1133 580 
Q 1338 1288 1338 2009 
Q 1338 2731 1133 3434 
Q 928 4138 513 4856 
z
" id="DejaVuSans-29" transform="scale(0.015625)"/>
      </defs>
      <use xlink:href="#DejaVuSans-6c"/>
      <use x="27.783203" xlink:href="#DejaVuSans-6f"/>
      <use x="88.964844" xlink:href="#DejaVuSans-67"/>
      <use x="152.441406" xlink:href="#DejaVuSans-31"/>
      <use x="216.064453" xlink:href="#DejaVuSans-30"/>
      <use x="279.6875" xlink:href="#DejaVuSans-28"/>
      <use x="318.701172" xlink:href="#DejaVuSans-23"/>
      <use x="402.490234" xlink:href="#DejaVuSans-20"/>
      <use x="434.277344" xlink:href="#DejaVuSans-66"/>
      <use x="463.982422" xlink:href="#DejaVuSans-2d"/>
      <use x="500.066406" xlink:href="#DejaVuSans-65"/>
      <use x="561.589844" xlink:href="#DejaVuSans-76"/>
      <use x="620.769531" xlink:href="#DejaVuSans-61"/>
      <use x="682.048828" xlink:href="#DejaVuSans-6c"/>
      <use x="709.832031" xlink:href="#DejaVuSans-73"/>
      <use x="761.931641" xlink:href="#DejaVuSans-20"/>
      <use x="793.71875" xlink:href="#DejaVuSans-2f"/>
      <use x="827.410156" xlink:href="#DejaVuSans-20"/>
      <use x="859.197266" xlink:href="#DejaVuSans-64"/>
      <use x="922.673828" xlink:href="#DejaVuSans-69"/>
      <use x="950.457031" xlink:href="#DejaVuSans-6d"/>
      <use x="1047.869141" xlink:href="#DejaVuSans-65"/>
      <use x="1109.392578" xlink:href="#DejaVuSans-6e"/>
      <use x="1172.771484" xlink:href="#DejaVuSans-73"/>
      <use x="1224.871094" xlink:href="#DejaVuSans-69"/>
      <use x="1252.654297" xlink:href="#DejaVuSans-6f"/>
      <use x="1313.835938" xlink:href="#DejaVuSans-6e"/>
      <use x="1377.214844" xlink:href="#DejaVuSans-29"/>
     </g>
    </g>
   </g>
   <g id="matplotlib.axis_2">
    <g id="ytick_1">
     <g id="line2d_17">
      <path clip-path="url(#p7e1d30b619)" d="M 57.6 298.944 
L 338.688 298.944 
" style="fill:none;stroke:#b0b0b0;stroke-linecap:square;stroke-width:0.8;"/>
     </g>
     <g id="line2d_18">
      <defs>
       <path d="M 0 0 
L -3.5 0 
" id="mf8f40b122e" style="stroke:#000000;stroke-width:0.8;"/>
      </defs>
      <g>
       <use style="stroke:#000000;stroke-width:0.8;" x="57.6" xlink:href="#mf8f40b122e" y="298.944"/>
      </g>
     </g>
     <g id="text_6">
      <!-- 0.0 -->
      <g transform="translate(25.155 305.02275)scale(0.16 -0.16)">
       <defs>
        <path d="M 684 794 
L 1344 794 
L 1344 0 
L 684 0 
L 684 794 
z
" id="DejaVuSans-2e" transform="scale(0.015625)"/>
       </defs>
       <use xlink:href="#DejaVuSans-30"/>
       <use x="63.623047" xlink:href="#DejaVuSans-2e"/>
       <use x="95.410156" xlink:href="#DejaVuSans-30"/>
      </g>
     </g>
    </g>
    <g id="ytick_2">
     <g id="line2d_19">
      <path clip-path="url(#p7e1d30b619)" d="M 57.6 245.22202 
L 338.688 245.22202 
" style="fill:none;stroke:#b0b0b0;stroke-linecap:square;stroke-width:0.8;"/>
     </g>
     <g id="line2d_20">
      <g>
       <use style="stroke:#000000;stroke-width:0.8;" x="57.6" xlink:href="#mf8f40b122e" y="245.22202"/>
      </g>
     </g>
     <g id="text_7">
      <!-- 0.2 -->
      <g transform="translate(25.155 251.30077)scale(0.16 -0.16)">
       <use xlink:href="#DejaVuSans-30"/>
       <use x="63.623047" xlink:href="#DejaVuSans-2e"/>
       <use x="95.410156" xlink:href="#DejaVuSans-32"/>
      </g>
     </g>
    </g>
    <g id="ytick_3">
     <g id="line2d_21">
      <path clip-path="url(#p7e1d30b619)" d="M 57.6 191.50004 
L 338.688 191.50004 
" style="fill:none;stroke:#b0b0b0;stroke-linecap:square;stroke-width:0.8;"/>
     </g>
     <g id="line2d_22">
      <g>
       <use style="stroke:#000000;stroke-width:0.8;" x="57.6" xlink:href="#mf8f40b122e" y="191.50004"/>
      </g>
     </g>
     <g id="text_8">
      <!-- 0.4 -->
      <g transform="translate(25.155 197.57879)scale(0.16 -0.16)">
       <use xlink:href="#DejaVuSans-30"/>
       <use x="63.623047" xlink:href="#DejaVuSans-2e"/>
       <use x="95.410156" xlink:href="#DejaVuSans-34"/>
      </g>
     </g>
    </g>
    <g id="ytick_4">
     <g id="line2d_23">
      <path clip-path="url(#p7e1d30b619)" d="M 57.6 137.778059 
L 338.688 137.778059 
" style="fill:none;stroke:#b0b0b0;stroke-linecap:square;stroke-width:0.8;"/>
     </g>
     <g id="line2d_24">
      <g>
       <use style="stroke:#000000;stroke-width:0.8;" x="57.6" xlink:href="#mf8f40b122e" y="137.778059"/>
      </g>
     </g>
     <g id="text_9">
      <!-- 0.6 -->
      <g transform="translate(25.155 143.856809)scale(0.16 -0.16)">
       <use xlink:href="#DejaVuSans-30"/>
       <use x="63.623047" xlink:href="#DejaVuSans-2e"/>
       <use x="95.410156" xlink:href="#DejaVuSans-36"/>
      </g>
     </g>
    </g>
    <g id="ytick_5">
     <g id="line2d_25">
      <path clip-path="url(#p7e1d30b619)" d="M 57.6 84.056079 
L 338.688 84.056079 
" style="fill:none;stroke:#b0b0b0;stroke-linecap:square;stroke-width:0.8;"/>
     </g>
     <g id="line2d_26">
      <g>
       <use style="stroke:#000000;stroke-width:0.8;" x="57.6" xlink:href="#mf8f40b122e" y="84.056079"/>
      </g>
     </g>
     <g id="text_10">
      <!-- 0.8 -->
      <g transform="translate(25.155 90.134829)scale(0.16 -0.16)">
       <defs>
        <path d="M 2034 2216 
Q 1584 2216 1326 1975 
Q 1069 1734 1069 1313 
Q 1069 891 1326 650 
Q 1584 409 2034 409 
Q 2484 409 2743 651 
Q 3003 894 3003 1313 
Q 3003 1734 2745 1975 
Q 2488 2216 2034 2216 
z
M 1403 2484 
Q 997 2584 770 2862 
Q 544 3141 544 3541 
Q 544 4100 942 4425 
Q 1341 4750 2034 4750 
Q 2731 4750 3128 4425 
Q 3525 4100 3525 3541 
Q 3525 3141 3298 2862 
Q 3072 2584 2669 2484 
Q 3125 2378 3379 2068 
Q 3634 1759 3634 1313 
Q 3634 634 3220 271 
Q 2806 -91 2034 -91 
Q 1263 -91 848 271 
Q 434 634 434 1313 
Q 434 1759 690 2068 
Q 947 2378 1403 2484 
z
M 1172 3481 
Q 1172 3119 1398 2916 
Q 1625 2713 2034 2713 
Q 2441 2713 2670 2916 
Q 2900 3119 2900 3481 
Q 2900 3844 2670 4047 
Q 2441 4250 2034 4250 
Q 1625 4250 1398 4047 
Q 1172 3844 1172 3481 
z
" id="DejaVuSans-38" transform="scale(0.015625)"/>
       </defs>
       <use xlink:href="#DejaVuSans-30"/>
       <use x="63.623047" xlink:href="#DejaVuSans-2e"/>
       <use x="95.410156" xlink:href="#DejaVuSans-38"/>
      </g>
     </g>
    </g>
    <g id="ytick_6">
     <g id="line2d_27">
      <path clip-path="url(#p7e1d30b619)" d="M 57.6 30.334099 
L 338.688 30.334099 
" style="fill:none;stroke:#b0b0b0;stroke-linecap:square;stroke-width:0.8;"/>
     </g>
     <g id="line2d_28">
      <g>
       <use style="stroke:#000000;stroke-width:0.8;" x="57.6" xlink:href="#mf8f40b122e" y="30.334099"/>
      </g>
     </g>
     <g id="text_11">
      <!-- 1.0 -->
      <g transform="translate(25.155 36.412849)scale(0.16 -0.16)">
       <use xlink:href="#DejaVuSans-31"/>
       <use x="63.623047" xlink:href="#DejaVuSans-2e"/>
       <use x="95.410156" xlink:href="#DejaVuSans-30"/>
      </g>
     </g>
    </g>
    <g id="text_12">
     <!-- Fraction of function,target pairs -->
     <g transform="translate(17.619531 297.681)rotate(-90)scale(0.17 -0.17)">
      <defs>
       <path d="M 628 4666 
L 3309 4666 
L 3309 4134 
L 1259 4134 
L 1259 2759 
L 3109 2759 
L 3109 2228 
L 1259 2228 
L 1259 0 
L 628 0 
L 628 4666 
z
" id="DejaVuSans-46" transform="scale(0.015625)"/>
       <path d="M 2631 2963 
Q 2534 3019 2420 3045 
Q 2306 3072 2169 3072 
Q 1681 3072 1420 2755 
Q 1159 2438 1159 1844 
L 1159 0 
L 581 0 
L 581 3500 
L 1159 3500 
L 1159 2956 
Q 1341 3275 1631 3429 
Q 1922 3584 2338 3584 
Q 2397 3584 2469 3576 
Q 2541 3569 2628 3553 
L 2631 2963 
z
" id="DejaVuSans-72" transform="scale(0.015625)"/>
       <path d="M 3122 3366 
L 3122 2828 
Q 2878 2963 2633 3030 
Q 2388 3097 2138 3097 
Q 1578 3097 1268 2742 
Q 959 2388 959 1747 
Q 959 1106 1268 751 
Q 1578 397 2138 397 
Q 2388 397 2633 464 
Q 2878 531 3122 666 
L 3122 134 
Q 2881 22 2623 -34 
Q 2366 -91 2075 -91 
Q 1284 -91 818 406 
Q 353 903 353 1747 
Q 353 2603 823 3093 
Q 1294 3584 2113 3584 
Q 2378 3584 2631 3529 
Q 2884 3475 3122 3366 
z
" id="DejaVuSans-63" transform="scale(0.015625)"/>
       <path d="M 1172 4494 
L 1172 3500 
L 2356 3500 
L 2356 3053 
L 1172 3053 
L 1172 1153 
Q 1172 725 1289 603 
Q 1406 481 1766 481 
L 2356 481 
L 2356 0 
L 1766 0 
Q 1100 0 847 248 
Q 594 497 594 1153 
L 594 3053 
L 172 3053 
L 172 3500 
L 594 3500 
L 594 4494 
L 1172 4494 
z
" id="DejaVuSans-74" transform="scale(0.015625)"/>
       <path d="M 544 1381 
L 544 3500 
L 1119 3500 
L 1119 1403 
Q 1119 906 1312 657 
Q 1506 409 1894 409 
Q 2359 409 2629 706 
Q 2900 1003 2900 1516 
L 2900 3500 
L 3475 3500 
L 3475 0 
L 2900 0 
L 2900 538 
Q 2691 219 2414 64 
Q 2138 -91 1772 -91 
Q 1169 -91 856 284 
Q 544 659 544 1381 
z
M 1991 3584 
L 1991 3584 
z
" id="DejaVuSans-75" transform="scale(0.015625)"/>
       <path d="M 750 794 
L 1409 794 
L 1409 256 
L 897 -744 
L 494 -744 
L 750 256 
L 750 794 
z
" id="DejaVuSans-2c" transform="scale(0.015625)"/>
       <path d="M 1159 525 
L 1159 -1331 
L 581 -1331 
L 581 3500 
L 1159 3500 
L 1159 2969 
Q 1341 3281 1617 3432 
Q 1894 3584 2278 3584 
Q 2916 3584 3314 3078 
Q 3713 2572 3713 1747 
Q 3713 922 3314 415 
Q 2916 -91 2278 -91 
Q 1894 -91 1617 61 
Q 1341 213 1159 525 
z
M 3116 1747 
Q 3116 2381 2855 2742 
Q 2594 3103 2138 3103 
Q 1681 3103 1420 2742 
Q 1159 2381 1159 1747 
Q 1159 1113 1420 752 
Q 1681 391 2138 391 
Q 2594 391 2855 752 
Q 3116 1113 3116 1747 
z
" id="DejaVuSans-70" transform="scale(0.015625)"/>
      </defs>
      <use xlink:href="#DejaVuSans-46"/>
      <use x="50.269531" xlink:href="#DejaVuSans-72"/>
      <use x="91.382812" xlink:href="#DejaVuSans-61"/>
      <use x="152.662109" xlink:href="#DejaVuSans-63"/>
      <use x="207.642578" xlink:href="#DejaVuSans-74"/>
      <use x="246.851562" xlink:href="#DejaVuSans-69"/>
      <use x="274.634766" xlink:href="#DejaVuSans-6f"/>
      <use x="335.816406" xlink:href="#DejaVuSans-6e"/>
      <use x="399.195312" xlink:href="#DejaVuSans-20"/>
      <use x="430.982422" xlink:href="#DejaVuSans-6f"/>
      <use x="492.164062" xlink:href="#DejaVuSans-66"/>
      <use x="527.369141" xlink:href="#DejaVuSans-20"/>
      <use x="559.15625" xlink:href="#DejaVuSans-66"/>
      <use x="594.361328" xlink:href="#DejaVuSans-75"/>
      <use x="657.740234" xlink:href="#DejaVuSans-6e"/>
      <use x="721.119141" xlink:href="#DejaVuSans-63"/>
      <use x="776.099609" xlink:href="#DejaVuSans-74"/>
      <use x="815.308594" xlink:href="#DejaVuSans-69"/>
      <use x="843.091797" xlink:href="#DejaVuSans-6f"/>
      <use x="904.273438" xlink:href="#DejaVuSans-6e"/>
      <use x="967.652344" xlink:href="#DejaVuSans-2c"/>
      <use x="999.439453" xlink:href="#DejaVuSans-74"/>
      <use x="1038.648438" xlink:href="#DejaVuSans-61"/>
      <use x="1099.927734" xlink:href="#DejaVuSans-72"/>
      <use x="1139.291016" xlink:href="#DejaVuSans-67"/>
      <use x="1202.767578" xlink:href="#DejaVuSans-65"/>
      <use x="1264.291016" xlink:href="#DejaVuSans-74"/>
      <use x="1303.5" xlink:href="#DejaVuSans-20"/>
      <use x="1335.287109" xlink:href="#DejaVuSans-70"/>
      <use x="1398.763672" xlink:href="#DejaVuSans-61"/>
      <use x="1460.042969" xlink:href="#DejaVuSans-69"/>
      <use x="1487.826172" xlink:href="#DejaVuSans-72"/>
      <use x="1528.939453" xlink:href="#DejaVuSans-73"/>
     </g>
    </g>
   </g>
   <g id="line2d_29">
    <defs>
     <path d="M 0 1.5 
C 0.397805 1.5 0.77937 1.341951 1.06066 1.06066 
C 1.341951 0.77937 1.5 0.397805 1.5 0 
C 1.5 -0.397805 1.341951 -0.77937 1.06066 -1.06066 
C 0.77937 -1.341951 0.397805 -1.5 0 -1.5 
C -0.397805 -1.5 -0.77937 -1.341951 -1.06066 -1.06066 
C -1.341951 -0.77937 -1.5 -0.397805 -1.5 0 
C -1.5 0.397805 -1.341951 0.77937 -1.06066 1.06066 
C -0.77937 1.341951 -0.397805 1.5 0 1.5 
z
" id="m32391d73f4" style="stroke:#000080;"/>
    </defs>
    <g>
     <use style="fill:#000080;stroke:#000080;" x="155.322646" xlink:href="#m32391d73f4" y="30.334099"/>
     <use style="fill:#000080;stroke:#000080;" x="155.322646" xlink:href="#m32391d73f4" y="30.334099"/>
    </g>
   </g>
   <g id="line2d_30">
    <path d="M 41.620548 298.944 
L 41.620548 297.890628 
L 67.850577 297.890628 
L 67.850577 296.837256 
L 72.867545 296.837256 
L 72.867545 294.730511 
L 84.213325 294.730511 
L 84.213325 294.203825 
L 85.66744 294.203825 
L 85.66744 293.677139 
L 86.351421 293.677139 
L 86.351421 290.517023 
L 87.009585 290.517023 
L 87.009585 289.990337 
L 91.029752 289.990337 
L 91.029752 288.936964 
L 92.026554 288.936964 
L 92.026554 286.303534 
L 92.504372 286.303534 
L 92.504372 285.776848 
L 92.969447 285.776848 
L 92.969447 285.250162 
L 93.422441 285.250162 
L 93.422441 284.723476 
L 96.301313 284.723476 
L 96.301313 284.19679 
L 96.676366 284.19679 
L 96.676366 282.616732 
L 98.771596 282.616732 
L 98.771596 282.090045 
L 100.040467 282.090045 
L 100.040467 281.036673 
L 101.785851 281.036673 
L 101.785851 280.509987 
L 103.372333 280.509987 
L 103.372333 279.456615 
L 104.355088 279.456615 
L 104.355088 278.929929 
L 104.826449 278.929929 
L 104.826449 277.349871 
L 105.51043 277.349871 
L 105.51043 276.296499 
L 106.168594 276.296499 
L 106.168594 275.769812 
L 107.811151 275.769812 
L 107.811151 275.243126 
L 108.198707 275.243126 
L 108.198707 274.71644 
L 111.346294 274.71644 
L 111.346294 274.189754 
L 112.128456 274.189754 
L 112.128456 273.663068 
L 112.877038 273.663068 
L 112.877038 273.136382 
L 113.453595 273.136382 
L 113.453595 272.609696 
L 114.816733 272.609696 
L 114.816733 271.556324 
L 115.077025 271.556324 
L 115.077025 270.502952 
L 115.586238 270.502952 
L 115.586238 269.976266 
L 116.443076 269.976266 
L 116.443076 268.922893 
L 116.797786 268.922893 
L 116.797786 268.396207 
L 117.930605 268.396207 
L 117.930605 267.342835 
L 118.470564 267.342835 
L 118.470564 266.816149 
L 118.890808 266.816149 
L 118.994305 265.236091 
L 119.502775 265.236091 
L 119.502775 263.656033 
L 120.286695 263.656033 
L 120.286695 262.60266 
L 121.036887 262.60266 
L 121.036887 260.495916 
L 121.579085 260.495916 
L 121.579085 258.915858 
L 123.029641 258.915858 
L 123.111324 257.862486 
L 123.273551 257.862486 
L 123.273551 257.3358 
L 123.907776 257.3358 
L 123.907776 254.175683 
L 124.139788 254.175683 
L 124.139788 252.595625 
L 124.519744 252.595625 
L 124.519744 249.962195 
L 125.038147 249.962195 
L 125.038147 249.435508 
L 125.327602 249.435508 
L 125.327602 248.382136 
L 125.470548 248.382136 
L 125.470548 247.85545 
L 125.752972 247.85545 
L 125.752972 247.328764 
L 126.030894 247.328764 
L 126.030894 246.802078 
L 126.236468 246.802078 
L 126.236468 246.275392 
L 126.904721 246.275392 
L 126.97016 244.695334 
L 127.035353 244.695334 
L 127.035353 243.115275 
L 127.357715 243.115275 
L 127.357715 241.535217 
L 127.611382 241.535217 
L 127.611382 239.955159 
L 127.736845 239.955159 
L 127.799239 238.375101 
L 128.046609 238.375101 
L 128.046609 237.848415 
L 128.411207 237.848415 
L 128.411207 237.321729 
L 128.885774 237.321729 
L 128.944197 234.161612 
L 129.002426 234.161612 
L 129.002426 233.634926 
L 129.175952 233.634926 
L 129.175952 233.10824 
L 129.574256 233.10824 
L 129.574256 232.054868 
L 129.686407 232.054868 
L 129.686407 231.528182 
L 129.908566 231.528182 
L 129.963666 228.894751 
L 130.664567 228.894751 
L 130.76994 226.261321 
L 130.978796 226.261321 
L 131.082294 225.207949 
L 131.338382 225.207949 
L 131.439773 223.101204 
L 131.790072 223.101204 
L 131.790072 222.574518 
L 132.036046 222.574518 
L 132.036046 221.521146 
L 132.230358 221.521146 
L 132.326708 214.674227 
L 132.470242 214.674227 
L 132.470242 212.567483 
L 132.753813 212.567483 
L 132.753813 212.040797 
L 132.986651 212.040797 
L 132.986651 210.987425 
L 133.216421 210.987425 
L 133.216421 210.460738 
L 133.844123 210.460738 
L 133.844123 205.720564 
L 134.019394 205.720564 
L 134.019394 203.087133 
L 134.321942 203.087133 
L 134.321942 202.033761 
L 134.828688 202.033761 
L 134.828688 198.873645 
L 135.158519 198.873645 
L 135.158519 197.820273 
L 135.280614 197.820273 
L 135.361539 196.240214 
L 135.602085 196.240214 
L 135.681535 195.186842 
L 135.760625 195.186842 
L 135.839358 183.599748 
L 135.917737 183.599748 
L 135.917737 182.546376 
L 136.073445 182.546376 
L 136.150782 181.493004 
L 136.189322 181.493004 
L 136.189322 180.966318 
L 136.304433 180.966318 
L 136.304433 180.439632 
L 136.494612 180.439632 
L 136.494612 178.332888 
L 136.86886 178.332888 
L 136.905847 174.646085 
L 137.053015 174.646085 
L 137.053015 174.119399 
L 137.307607 174.119399 
L 137.415591 168.325852 
L 137.664982 168.325852 
L 137.770782 164.112363 
L 137.875944 164.112363 
L 137.875944 163.585677 
L 138.99271 163.585677 
L 139.090775 162.005619 
L 139.155847 162.005619 
L 139.155847 159.898875 
L 139.636299 159.898875 
L 139.636299 154.632014 
L 139.762215 154.632014 
L 139.793552 148.311781 
L 139.918342 148.311781 
L 139.918342 144.624978 
L 140.348205 144.624978 
L 140.348205 143.04492 
L 140.708409 143.04492 
L 140.708409 141.991548 
L 140.856326 141.991548 
L 140.915143 135.144629 
L 141.032186 135.144629 
L 141.090414 133.037885 
L 141.177393 133.037885 
L 141.177393 131.984513 
L 141.549369 131.984513 
L 141.634094 127.771024 
L 141.746425 127.771024 
L 141.80232 124.610907 
L 141.858037 124.610907 
L 141.858037 124.084221 
L 142.133981 124.084221 
L 142.133981 123.557535 
L 142.324576 123.557535 
L 142.324576 120.924105 
L 142.566605 120.924105 
L 142.566605 112.497128 
L 143.066785 112.497128 
L 143.066785 110.917069 
L 143.40093 110.917069 
L 143.40093 106.703581 
L 144.438701 106.703581 
L 144.53439 104.596836 
L 145.189903 104.596836 
L 145.189903 104.07015 
L 145.350002 104.07015 
L 145.350002 101.43672 
L 146.194362 101.43672 
L 146.194362 100.383348 
L 146.728368 100.383348 
L 146.728368 98.803289 
L 146.999721 98.803289 
L 146.999721 98.276603 
L 147.12355 98.276603 
L 147.12355 97.749917 
L 147.368603 97.749917 
L 147.409112 95.643173 
L 147.749695 95.643173 
L 147.749695 94.589801 
L 148.083753 94.589801 
L 148.083753 94.063115 
L 148.27731 94.063115 
L 148.373289 90.902998 
L 148.582601 90.902998 
L 148.676918 88.269568 
L 148.770728 88.269568 
L 148.826773 85.109451 
L 148.882639 85.109451 
L 148.882639 83.529393 
L 149.503579 83.529393 
L 149.503579 83.002707 
L 149.770648 83.002707 
L 149.770648 80.895963 
L 150.120495 80.895963 
L 150.120495 78.789218 
L 150.258492 78.789218 
L 150.258492 78.262532 
L 150.412445 78.262532 
L 150.480434 74.049044 
L 150.766468 74.049044 
L 150.766468 72.468985 
L 151.047887 72.468985 
L 151.047887 71.942299 
L 151.21133 71.942299 
L 151.292481 70.888927 
L 151.324836 70.888927 
L 151.324836 69.835555 
L 152.083873 69.835555 
L 152.083873 68.782183 
L 152.207228 68.782183 
L 152.207228 64.568694 
L 152.375429 64.568694 
L 152.481628 62.46195 
L 152.662192 62.46195 
L 152.766663 59.82852 
L 152.840905 59.82852 
L 152.840905 59.301833 
L 153.120174 59.301833 
L 153.163864 57.195089 
L 153.308709 57.195089 
L 153.40939 52.9816 
L 153.423725 52.9816 
L 153.495227 49.821484 
L 153.862384 49.821484 
L 153.904255 42.974565 
L 154.056927 42.974565 
L 154.070741 41.394507 
L 154.19457 41.394507 
L 154.249325 33.494215 
L 154.601099 33.494215 
L 154.601099 32.967529 
L 154.747816 32.967529 
L 154.747816 31.914157 
L 154.880133 31.914157 
L 154.880133 31.387471 
L 155.322646 31.387471 
L 155.322646 30.334099 
L 338.688 30.334099 
L 338.688 30.334099 
" style="fill:none;stroke:#000080;stroke-linecap:square;stroke-width:1.5;"/>
   </g>
   <g id="line2d_31">
    <defs>
     <path d="M 0 6 
C 1.591219 6 3.117479 5.367802 4.242641 4.242641 
C 5.367802 3.117479 6 1.591219 6 0 
C 6 -1.591219 5.367802 -3.117479 4.242641 -4.242641 
C 3.117479 -5.367802 1.591219 -6 0 -6 
C -1.591219 -6 -3.117479 -5.367802 -4.242641 -4.242641 
C -5.367802 -3.117479 -6 -1.591219 -6 0 
C -6 1.591219 -5.367802 3.117479 -4.242641 4.242641 
C -3.117479 5.367802 -1.591219 6 0 6 
z
" id="mf8daf54073" style="stroke:#000080;stroke-width:1.5;"/>
    </defs>
    <g>
     <use style="fill-opacity:0;stroke:#000080;stroke-width:1.5;" x="117.930605" xlink:href="#mf8daf54073" y="268.396207"/>
     <use style="fill-opacity:0;stroke:#000080;stroke-width:1.5;" x="141.177393" xlink:href="#mf8daf54073" y="131.984513"/>
     <use style="fill-opacity:0;stroke:#000080;stroke-width:1.5;" x="154.070741" xlink:href="#mf8daf54073" y="41.921193"/>
     <use style="fill-opacity:0;stroke:#000080;stroke-width:1.5;" x="155.322646" xlink:href="#mf8daf54073" y="30.334099"/>
     <use style="fill-opacity:0;stroke:#000080;stroke-width:1.5;" x="155.322646" xlink:href="#mf8daf54073" y="30.334099"/>
     <use style="fill-opacity:0;stroke:#000080;stroke-width:1.5;" x="338.688" xlink:href="#mf8daf54073" y="30.334099"/>
    </g>
   </g>
   <g id="line2d_32">
    <path style="fill:none;stroke:#000080;stroke-linecap:square;stroke-width:1.5;"/>
    <g/>
   </g>
   <g id="line2d_33">
    <defs>
     <path d="M 0 1.5 
C 0.397805 1.5 0.77937 1.341951 1.06066 1.06066 
C 1.341951 0.77937 1.5 0.397805 1.5 0 
C 1.5 -0.397805 1.341951 -0.77937 1.06066 -1.06066 
C 0.77937 -1.341951 0.397805 -1.5 0 -1.5 
C -0.397805 -1.5 -0.77937 -1.341951 -1.06066 -1.06066 
C -1.341951 -0.77937 -1.5 -0.397805 -1.5 0 
C -1.5 0.397805 -1.341951 0.77937 -1.06066 1.06066 
C -0.77937 1.341951 -0.397805 1.5 0 1.5 
z
" id="mf8fee3a148" style="stroke:#ff00ff;"/>
    </defs>
    <g>
     <use style="fill:#ff00ff;stroke:#ff00ff;" x="167.867253" xlink:href="#mf8fee3a148" y="30.334099"/>
     <use style="fill:#ff00ff;stroke:#ff00ff;" x="167.867253" xlink:href="#mf8fee3a148" y="30.334099"/>
    </g>
   </g>
   <g id="line2d_34">
    <path d="M 57.6 298.944 
L 57.6 297.363942 
L 74.263433 297.363942 
L 74.263433 296.31057 
L 80.881459 296.31057 
L 80.881459 295.783884 
L 87.643811 295.783884 
L 87.643811 294.730511 
L 89.418828 294.730511 
L 89.418828 293.677139 
L 89.972502 293.677139 
L 89.972502 293.150453 
L 94.294587 293.150453 
L 94.294587 292.623767 
L 97.403108 292.623767 
L 97.403108 291.043709 
L 98.771596 291.043709 
L 98.771596 289.990337 
L 99.731799 289.990337 
L 99.731799 288.410278 
L 101.506816 288.410278 
L 101.506816 284.723476 
L 101.785851 284.723476 
L 101.785851 284.19679 
L 103.372333 284.19679 
L 103.372333 282.616732 
L 104.355088 282.616732 
L 104.355088 281.563359 
L 104.592361 281.563359 
L 104.592361 281.036673 
L 107.811151 281.036673 
L 107.811151 279.456615 
L 114.284194 279.456615 
L 114.284194 278.403243 
L 115.205729 278.403243 
L 115.205729 277.349871 
L 115.835374 277.349871 
L 115.835374 275.769812 
L 116.323218 275.769812 
L 116.323218 275.243126 
L 118.148599 275.243126 
L 118.148599 274.71644 
L 118.470564 274.71644 
L 118.470564 274.189754 
L 119.89914 274.189754 
L 119.996839 273.136382 
L 123.434283 273.136382 
L 123.434283 272.609696 
L 124.292765 272.609696 
L 124.292765 272.08301 
L 125.183475 272.08301 
L 125.183475 269.976266 
L 126.839037 269.976266 
L 126.839037 269.449579 
L 127.357715 269.449579 
L 127.357715 268.922893 
L 129.175952 268.922893 
L 129.175952 267.869521 
L 130.018593 267.869521 
L 130.018593 265.762777 
L 130.344571 265.762777 
L 130.344571 264.709405 
L 130.664567 264.709405 
L 130.664567 264.182719 
L 131.740458 264.182719 
L 131.740458 263.656033 
L 132.659801 263.656033 
L 132.659801 263.129347 
L 132.847322 263.129347 
L 132.847322 259.442544 
L 133.443203 259.442544 
L 133.443203 258.915858 
L 133.622529 258.915858 
L 133.667073 256.809114 
L 133.931979 256.809114 
L 133.931979 256.282427 
L 134.492498 256.282427 
L 134.492498 255.755741 
L 134.61933 255.755741 
L 134.61933 253.122311 
L 134.745246 253.122311 
L 134.745246 252.595625 
L 135.562224 252.595625 
L 135.562224 250.488881 
L 136.189322 250.488881 
L 136.189322 249.962195 
L 136.68274 249.962195 
L 136.68274 249.435508 
L 137.198951 249.435508 
L 137.198951 248.908822 
L 137.37967 248.908822 
L 137.37967 247.328764 
L 137.664982 247.328764 
L 137.770782 245.22202 
L 138.358484 245.22202 
L 138.358484 244.695334 
L 138.728473 244.695334 
L 138.828032 242.061903 
L 138.861092 242.061903 
L 138.959898 241.008531 
L 139.123342 241.008531 
L 139.123342 240.481845 
L 139.317473 240.481845 
L 139.317473 239.955159 
L 139.856059 239.955159 
L 139.918342 236.268356 
L 140.378508 236.268356 
L 140.378508 235.74167 
L 140.973763 235.74167 
L 140.973763 233.634926 
L 141.634094 233.634926 
L 141.71841 231.528182 
L 141.913576 231.528182 
L 141.913576 231.001496 
L 142.270332 231.001496 
L 142.270332 229.421437 
L 142.539878 229.421437 
L 142.539878 228.894751 
L 142.673105 228.894751 
L 142.699628 226.788007 
L 142.805321 226.788007 
L 142.857929 224.154577 
L 143.247504 224.154577 
L 143.247504 220.467774 
L 143.653678 220.467774 
L 143.653678 218.887716 
L 144.026061 218.887716 
L 144.026061 218.36103 
L 144.318346 218.36103 
L 144.342484 217.307658 
L 144.676946 217.307658 
L 144.676946 216.254285 
L 144.818346 216.254285 
L 144.818346 215.727599 
L 145.258697 215.727599 
L 145.304409 212.040797 
L 145.932112 212.040797 
L 145.932112 211.514111 
L 147.78933 211.514111 
L 147.809113 209.407366 
L 147.907696 209.407366 
L 147.907696 207.300622 
L 148.064279 207.300622 
L 148.064279 204.667192 
L 148.315765 204.667192 
L 148.315765 203.613819 
L 148.714503 203.613819 
L 148.808112 197.293586 
L 148.882639 197.293586 
L 148.882639 196.7669 
L 149.067574 196.7669 
L 149.141003 194.660156 
L 149.377533 194.660156 
L 149.377533 192.553412 
L 149.503579 192.553412 
L 149.593058 189.393295 
L 149.841182 189.393295 
L 149.928949 188.339923 
L 150.016276 188.339923 
L 150.103169 183.599748 
L 150.137805 183.599748 
L 150.172372 180.439632 
L 150.615623 180.439632 
L 150.615623 179.912946 
L 151.047887 179.912946 
L 151.097081 177.279515 
L 151.324836 177.279515 
L 151.324836 176.752829 
L 151.597455 176.752829 
L 151.597455 175.172771 
L 151.803091 175.172771 
L 151.803091 174.646085 
L 152.130233 174.646085 
L 152.130233 174.119399 
L 152.360205 174.119399 
L 152.360205 173.592713 
L 152.496747 173.592713 
L 152.496747 170.959282 
L 152.617226 170.959282 
L 152.617226 169.379224 
L 152.811246 169.379224 
L 152.811246 166.745794 
L 153.337534 166.745794 
L 153.337534 165.165736 
L 153.537988 165.165736 
L 153.537988 163.058991 
L 153.736164 163.058991 
L 153.736164 162.532305 
L 153.918189 162.532305 
L 153.918189 161.478933 
L 154.221969 161.478933 
L 154.221969 159.372189 
L 154.520548 159.372189 
L 154.520548 158.318817 
L 154.827327 158.318817 
L 154.827327 157.265444 
L 154.945917 157.265444 
L 154.972161 155.685386 
L 155.232454 155.685386 
L 155.232454 151.998584 
L 155.55245 151.998584 
L 155.55245 150.945211 
L 155.691409 150.945211 
L 155.791779 136.724687 
L 156.08947 136.724687 
L 156.175347 129.877768 
L 156.478647 129.877768 
L 156.478647 129.351082 
L 156.634302 129.351082 
L 156.741256 119.870733 
L 157.081488 119.870733 
L 157.081488 117.237302 
L 157.220355 117.237302 
L 157.312322 108.810325 
L 158.184468 108.810325 
L 158.238915 106.176895 
L 158.390468 106.176895 
L 158.390468 103.543464 
L 158.636623 103.543464 
L 158.732007 100.383348 
L 158.952561 100.383348 
L 158.952561 96.169859 
L 159.17036 96.169859 
L 159.252621 91.429684 
L 159.344703 91.429684 
L 159.385473 87.216196 
L 159.507213 87.216196 
L 159.507213 82.476021 
L 159.638147 82.476021 
L 159.638147 81.422649 
L 160.162007 81.422649 
L 160.162007 78.789218 
L 160.346039 78.789218 
L 160.346039 77.20916 
L 160.566247 77.20916 
L 160.566247 75.102416 
L 160.886762 75.102416 
L 160.886762 70.888927 
L 161.06334 70.888927 
L 161.146363 68.782183 
L 161.338558 68.782183 
L 161.438393 65.622066 
L 161.743409 65.622066 
L 161.743409 64.568694 
L 161.92917 64.568694 
L 161.92917 64.042008 
L 162.130378 64.042008 
L 162.225793 60.355206 
L 162.346481 60.355206 
L 162.346481 59.82852 
L 162.712026 59.82852 
L 162.712026 59.301833 
L 162.829407 59.301833 
L 162.854457 55.088345 
L 163.070067 55.088345 
L 163.135875 54.034973 
L 163.283043 54.034973 
L 163.283043 49.294798 
L 163.49345 49.294798 
L 163.49345 48.241426 
L 163.685444 48.241426 
L 163.693398 45.081309 
L 163.930348 45.081309 
L 163.930348 44.554623 
L 164.133133 44.554623 
L 164.133133 43.501251 
L 164.630012 43.501251 
L 164.630012 42.974565 
L 164.943704 42.974565 
L 164.958502 39.287762 
L 165.230021 39.287762 
L 165.230021 38.23439 
L 165.992243 38.23439 
L 166.034014 36.654332 
L 166.371448 36.654332 
L 166.405516 33.494215 
L 166.581603 33.494215 
L 166.581603 32.967529 
L 167.073257 32.967529 
L 167.125588 31.387471 
L 167.867253 31.387471 
L 167.867253 30.334099 
L 338.688 30.334099 
L 338.688 30.334099 
" style="fill:none;stroke:#ff00ff;stroke-linecap:square;stroke-width:1.5;"/>
   </g>
   <g id="line2d_35">
    <defs>
     <path d="M 0 8.485281 
L 5.091169 0 
L 0 -8.485281 
L -5.091169 0 
z
" id="m24f87fa1a7" style="stroke:#ff00ff;stroke-linejoin:miter;stroke-width:1.5;"/>
    </defs>
    <g>
     <use style="fill-opacity:0;stroke:#ff00ff;stroke-linejoin:miter;stroke-width:1.5;" x="153.537988" xlink:href="#m24f87fa1a7" y="165.165736"/>
     <use style="fill-opacity:0;stroke:#ff00ff;stroke-linejoin:miter;stroke-width:1.5;" x="167.867253" xlink:href="#m24f87fa1a7" y="31.387471"/>
     <use style="fill-opacity:0;stroke:#ff00ff;stroke-linejoin:miter;stroke-width:1.5;" x="167.867253" xlink:href="#m24f87fa1a7" y="30.334099"/>
     <use style="fill-opacity:0;stroke:#ff00ff;stroke-linejoin:miter;stroke-width:1.5;" x="167.867253" xlink:href="#m24f87fa1a7" y="30.334099"/>
     <use style="fill-opacity:0;stroke:#ff00ff;stroke-linejoin:miter;stroke-width:1.5;" x="338.688" xlink:href="#m24f87fa1a7" y="30.334099"/>
    </g>
   </g>
   <g id="line2d_36">
    <path style="fill:none;stroke:#ff00ff;stroke-linecap:square;stroke-width:1.5;"/>
    <g/>
   </g>
   <g id="line2d_37">
    <defs>
     <path d="M 0 1.5 
C 0.397805 1.5 0.77937 1.341951 1.06066 1.06066 
C 1.341951 0.77937 1.5 0.397805 1.5 0 
C 1.5 -0.397805 1.341951 -0.77937 1.06066 -1.06066 
C 0.77937 -1.341951 0.397805 -1.5 0 -1.5 
C -0.397805 -1.5 -0.77937 -1.341951 -1.06066 -1.06066 
C -1.341951 -0.77937 -1.5 -0.397805 -1.5 0 
C -1.5 0.397805 -1.341951 0.77937 -1.06066 1.06066 
C -0.77937 1.341951 -0.397805 1.5 0 1.5 
z
" id="mc417cd3f4d" style="stroke:#ff7500;"/>
    </defs>
    <g>
     <use style="fill:#ff7500;stroke:#ff7500;" x="288.788113" xlink:href="#mc417cd3f4d" y="130.404454"/>
     <use style="fill:#ff7500;stroke:#ff7500;" x="288.788113" xlink:href="#mc417cd3f4d" y="130.404454"/>
    </g>
   </g>
   <g id="line2d_38">
    <path d="M 65.796525 298.944 
L 65.796525 297.363942 
L 67.850577 297.363942 
L 67.850577 296.31057 
L 71.35013 296.31057 
L 71.35013 295.783884 
L 75.555822 295.783884 
L 75.555822 294.730511 
L 84.213325 294.730511 
L 84.213325 294.203825 
L 87.009585 294.203825 
L 87.009585 293.677139 
L 102.060491 293.677139 
L 102.060491 292.623767 
L 103.623262 292.623767 
L 103.623262 292.097081 
L 105.057436 292.097081 
L 105.057436 291.570395 
L 108.389302 291.570395 
L 108.389302 290.517023 
L 108.764355 290.517023 
L 108.764355 289.463651 
L 109.131511 289.463651 
L 109.131511 288.410278 
L 109.491096 288.410278 
L 109.491096 286.83022 
L 111.023335 286.83022 
L 111.023335 286.303534 
L 111.663381 286.303534 
L 111.663381 285.776848 
L 119.40226 285.776848 
L 119.40226 284.723476 
L 120.190611 284.723476 
L 120.190611 284.19679 
L 121.036887 284.19679 
L 121.036887 283.670104 
L 123.514096 283.670104 
L 123.514096 282.090045 
L 124.743806 282.090045 
L 124.743806 281.036673 
L 128.885774 281.036673 
L 128.885774 279.983301 
L 129.002426 279.983301 
L 129.002426 279.456615 
L 130.61164 279.456615 
L 130.61164 278.403243 
L 132.374684 278.403243 
L 132.374684 277.876557 
L 133.57787 277.876557 
L 133.57787 277.349871 
L 135.117629 277.349871 
L 135.117629 276.823185 
L 135.280614 276.823185 
L 135.280614 276.296499 
L 136.189322 276.296499 
L 136.189322 275.243126 
L 138.084384 275.243126 
L 138.084384 273.663068 
L 139.730821 273.663068 
L 139.730821 271.556324 
L 140.378508 271.556324 
L 140.378508 271.029638 
L 143.375453 271.029638 
L 143.47714 268.396207 
L 144.605813 268.396207 
L 144.605813 267.342835 
L 145.350002 267.342835 
L 145.350002 266.816149 
L 146.388493 266.816149 
L 146.388493 264.182719 
L 150.699587 264.182719 
L 150.699587 263.656033 
L 157.197287 263.656033 
L 157.197287 262.60266 
L 157.403807 262.60266 
L 157.403807 262.075974 
L 158.615355 262.075974 
L 158.615355 261.022602 
L 162.069386 261.022602 
L 162.069386 260.495916 
L 162.251725 260.495916 
L 162.251725 259.96923 
L 163.867476 259.96923 
L 163.867476 259.442544 
L 164.00081 259.442544 
L 164.00081 258.389172 
L 165.675732 258.389172 
L 165.675732 257.3358 
L 167.659453 257.3358 
L 167.659453 255.229055 
L 168.929657 255.229055 
L 168.929657 254.702369 
L 170.402844 254.702369 
L 170.402844 254.175683 
L 175.025688 254.175683 
L 175.025688 253.122311 
L 178.194861 253.122311 
L 178.194861 252.595625 
L 179.450364 252.595625 
L 179.450364 251.015567 
L 181.094043 251.015567 
L 181.094043 247.85545 
L 184.493087 247.85545 
L 184.493087 244.695334 
L 185.906041 244.695334 
L 185.906041 243.115275 
L 186.623108 243.115275 
L 186.623108 242.588589 
L 187.348761 242.588589 
L 187.348761 241.535217 
L 189.073356 241.535217 
L 189.073356 241.008531 
L 189.285437 241.008531 
L 189.285437 240.481845 
L 189.396894 240.481845 
L 189.396894 231.528182 
L 192.602234 231.528182 
L 192.602234 230.47481 
L 193.533238 230.47481 
L 193.533238 229.948123 
L 194.091716 229.948123 
L 194.091716 228.894751 
L 194.933767 228.894751 
L 194.933767 228.368065 
L 197.429873 228.368065 
L 197.429873 226.788007 
L 197.590004 226.788007 
L 197.590004 226.261321 
L 198.250234 226.261321 
L 198.250234 225.734635 
L 199.051541 225.734635 
L 199.051541 224.681263 
L 202.110975 224.681263 
L 202.110975 222.574518 
L 203.92025 222.574518 
L 203.92025 222.047832 
L 206.622777 222.047832 
L 206.622777 221.521146 
L 212.847679 221.521146 
L 212.847679 220.99446 
L 213.538687 220.99446 
L 213.538687 217.834344 
L 217.828417 217.834344 
L 217.828417 217.307658 
L 218.06053 217.307658 
L 218.06053 216.780971 
L 218.172816 216.780971 
L 218.172816 215.200913 
L 220.014319 215.200913 
L 220.014319 214.674227 
L 220.576371 214.674227 
L 220.576371 214.147541 
L 221.277303 214.147541 
L 221.277303 207.827308 
L 222.294438 207.827308 
L 222.294438 207.300622 
L 224.052138 207.300622 
L 224.052138 206.24725 
L 228.124913 206.24725 
L 228.124913 204.667192 
L 230.285271 204.667192 
L 230.285271 204.140506 
L 231.317313 204.140506 
L 231.317313 203.087133 
L 231.526742 203.087133 
L 231.526742 200.980389 
L 231.904334 200.980389 
L 231.904334 196.7669 
L 233.467447 196.7669 
L 233.467447 195.186842 
L 237.364438 195.186842 
L 237.364438 194.660156 
L 238.459843 194.660156 
L 238.459843 189.393295 
L 238.669716 189.393295 
L 238.669716 188.866609 
L 239.217018 188.866609 
L 239.217018 188.339923 
L 239.548084 188.339923 
L 239.548084 187.286551 
L 241.339488 187.286551 
L 241.339488 185.706493 
L 242.385479 185.706493 
L 242.385479 185.179807 
L 243.016825 185.179807 
L 243.016825 183.599748 
L 243.213227 183.599748 
L 243.213227 179.38626 
L 245.338741 179.38626 
L 245.447791 178.332888 
L 246.699211 178.332888 
L 246.786208 177.279515 
L 246.944606 177.279515 
L 246.944606 173.592713 
L 247.621608 173.592713 
L 247.621608 173.066027 
L 249.460571 173.066027 
L 249.460571 172.539341 
L 250.016617 172.539341 
L 250.016617 168.325852 
L 250.58604 168.325852 
L 250.58604 167.27248 
L 252.627668 167.27248 
L 252.627668 165.692422 
L 253.119015 165.692422 
L 253.119015 165.165736 
L 254.898214 165.165736 
L 254.898214 164.63905 
L 256.534305 164.63905 
L 256.534305 164.112363 
L 256.906908 164.112363 
L 256.906908 163.585677 
L 257.292514 163.585677 
L 257.292514 163.058991 
L 258.707948 163.058991 
L 258.707948 159.898875 
L 260.340273 159.898875 
L 260.340273 157.79213 
L 260.657592 157.79213 
L 260.657592 157.265444 
L 261.76553 157.265444 
L 261.832804 154.105328 
L 263.207607 154.105328 
L 263.207607 152.52527 
L 264.481904 152.52527 
L 264.481904 149.891839 
L 265.615426 149.891839 
L 265.669395 147.258409 
L 266.730525 147.258409 
L 266.781155 146.205037 
L 268.812274 146.205037 
L 268.812274 143.571606 
L 270.631318 143.571606 
L 270.631318 141.464862 
L 271.474306 141.464862 
L 271.474306 140.938176 
L 272.278417 140.938176 
L 272.278417 140.41149 
L 273.047079 140.41149 
L 273.047079 139.884804 
L 274.48967 139.884804 
L 274.48967 139.358118 
L 275.168552 139.358118 
L 275.168552 137.778059 
L 276.451831 137.778059 
L 276.451831 137.251373 
L 277.059713 137.251373 
L 277.059713 136.724687 
L 279.816855 136.724687 
L 279.816855 136.198001 
L 280.319586 136.198001 
L 280.319586 135.671315 
L 281.283554 135.671315 
L 281.283554 134.617943 
L 283.483319 134.617943 
L 283.483319 133.564571 
L 286.511248 133.564571 
L 286.511248 132.511199 
L 287.19267 132.511199 
L 287.19267 131.984513 
L 287.523649 131.984513 
L 287.523649 131.457826 
L 288.167339 131.457826 
L 288.167339 130.93114 
L 288.788113 130.93114 
L 288.788113 130.404454 
L 338.688 130.404454 
L 338.688 130.404454 
" style="fill:none;stroke:#ff7500;stroke-linecap:square;stroke-width:1.5;"/>
   </g>
   <g id="line2d_39">
    <defs>
     <path d="M 0 -6 
L -1.347084 -1.854102 
L -5.706339 -1.854102 
L -2.179628 0.708204 
L -3.526712 4.854102 
L -0 2.291796 
L 3.526712 4.854102 
L 2.179628 0.708204 
L 5.706339 -1.854102 
L 1.347084 -1.854102 
z
" id="mdd41def3e9" style="stroke:#ff7500;stroke-linejoin:bevel;stroke-width:1.5;"/>
    </defs>
    <g>
     <use style="fill-opacity:0;stroke:#ff7500;stroke-linejoin:bevel;stroke-width:1.5;" x="189.396894" xlink:href="#mdd41def3e9" y="240.481845"/>
     <use style="fill-opacity:0;stroke:#ff7500;stroke-linejoin:bevel;stroke-width:1.5;" x="265.615426" xlink:href="#mdd41def3e9" y="149.365153"/>
     <use style="fill-opacity:0;stroke:#ff7500;stroke-linejoin:bevel;stroke-width:1.5;" x="288.788113" xlink:href="#mdd41def3e9" y="130.404454"/>
     <use style="fill-opacity:0;stroke:#ff7500;stroke-linejoin:bevel;stroke-width:1.5;" x="288.788113" xlink:href="#mdd41def3e9" y="130.404454"/>
     <use style="fill-opacity:0;stroke:#ff7500;stroke-linejoin:bevel;stroke-width:1.5;" x="338.688" xlink:href="#mdd41def3e9" y="130.404454"/>
    </g>
   </g>
   <g id="line2d_40">
    <path style="fill:none;stroke:#ff7500;stroke-linecap:square;stroke-width:1.5;"/>
    <g/>
   </g>
   <g id="line2d_41">
    <path clip-path="url(#p7e1d30b619)" d="M 218.221714 215.200913 
" style="fill:none;stroke:#ff7500;stroke-linecap:square;stroke-width:1.5;"/>
    <defs>
     <path d="M -12 12 
L 12 -12 
M -12 -12 
L 12 12 
" id="m96a87b2a20" style="stroke:#ff7500;"/>
    </defs>
    <g clip-path="url(#p7e1d30b619)">
     <use style="fill:#ff7500;stroke:#ff7500;" x="218.221714" xlink:href="#m96a87b2a20" y="215.200913"/>
    </g>
   </g>
   <g id="line2d_42">
    <defs>
     <path d="M 0 1.5 
C 0.397805 1.5 0.77937 1.341951 1.06066 1.06066 
C 1.341951 0.77937 1.5 0.397805 1.5 0 
C 1.5 -0.397805 1.341951 -0.77937 1.06066 -1.06066 
C 0.77937 -1.341951 0.397805 -1.5 0 -1.5 
C -0.397805 -1.5 -0.77937 -1.341951 -1.06066 -1.06066 
C -1.341951 -0.77937 -1.5 -0.397805 -1.5 0 
C -1.5 0.397805 -1.341951 0.77937 -1.06066 1.06066 
C -0.77937 1.341951 -0.397805 1.5 0 1.5 
z
" id="mef43d9ac51" style="stroke:#6495ed;"/>
    </defs>
    <g>
     <use style="fill:#6495ed;stroke:#6495ed;" x="212.446758" xlink:href="#mef43d9ac51" y="193.606784"/>
     <use style="fill:#6495ed;stroke:#6495ed;" x="212.446758" xlink:href="#mef43d9ac51" y="193.606784"/>
    </g>
   </g>
   <g id="line2d_43">
    <path d="M 41.620548 298.944 
L 41.620548 297.363942 
L 77.884514 297.363942 
L 77.884514 295.257197 
L 82.626842 295.257197 
L 82.626842 294.203825 
L 83.438118 294.203825 
L 83.438118 293.150453 
L 84.213325 293.150453 
L 84.213325 291.043709 
L 84.955534 291.043709 
L 84.955534 288.410278 
L 85.66744 288.410278 
L 85.66744 285.250162 
L 86.351421 285.250162 
L 86.351421 284.19679 
L 87.009585 284.19679 
L 87.009585 283.143418 
L 87.643811 283.143418 
L 87.643811 282.616732 
L 89.418828 282.616732 
L 89.418828 282.090045 
L 90.509138 282.090045 
L 90.509138 281.563359 
L 91.029752 281.563359 
L 91.029752 276.296499 
L 91.535274 276.296499 
L 91.535274 273.663068 
L 92.504372 273.663068 
L 92.504372 272.08301 
L 94.294587 272.08301 
L 94.294587 271.556324 
L 103.117741 271.556324 
L 103.117741 270.502952 
L 105.285403 270.502952 
L 105.285403 267.869521 
L 105.51043 267.869521 
L 105.51043 266.816149 
L 107.213174 266.816149 
L 107.213174 266.289463 
L 107.811151 266.289463 
L 107.811151 265.762777 
L 111.023335 265.762777 
L 111.023335 264.182719 
L 112.280765 264.182719 
L 112.280765 262.075974 
L 112.72987 262.075974 
L 112.72987 261.022602 
L 115.33349 261.022602 
L 115.33349 260.495916 
L 116.562116 260.495916 
L 116.562116 257.862486 
L 116.680349 257.862486 
L 116.680349 257.3358 
L 116.914437 257.3358 
L 116.914437 256.809114 
L 117.486268 256.809114 
L 117.486268 255.229055 
L 118.039942 255.229055 
L 118.039942 254.175683 
L 119.80089 254.175683 
L 119.80089 253.648997 
L 124.519744 253.648997 
L 124.519744 252.595625 
L 124.669438 252.595625 
L 124.669438 252.068939 
L 125.038147 252.068939 
L 125.038147 251.015567 
L 126.70692 251.015567 
L 126.70692 249.435508 
L 126.839037 249.435508 
L 126.839037 248.382136 
L 126.97016 248.382136 
L 126.97016 247.85545 
L 127.48501 247.85545 
L 127.48501 245.748706 
L 128.590686 245.748706 
L 128.590686 244.168648 
L 128.827155 244.168648 
L 128.827155 243.115275 
L 130.505303 243.115275 
L 130.505303 242.588589 
L 131.338382 242.588589 
L 131.338382 242.061903 
L 131.790072 242.061903 
L 131.790072 240.481845 
L 132.374684 240.481845 
L 132.374684 239.955159 
L 134.236034 239.955159 
L 134.321942 238.375101 
L 134.364738 238.375101 
L 134.364738 237.321729 
L 134.61933 237.321729 
L 134.61933 236.795043 
L 135.240011 236.795043 
L 135.240011 236.268356 
L 136.342635 236.268356 
L 136.342635 235.74167 
L 137.629572 235.74167 
L 137.629572 235.214984 
L 140.408758 235.214984 
L 140.408758 232.581554 
L 142.619936 232.581554 
L 142.619936 232.054868 
L 145.553708 232.054868 
L 145.553708 228.368065 
L 147.02042 228.368065 
L 147.02042 227.314693 
L 148.258051 227.314693 
L 148.258051 226.788007 
L 149.232356 226.788007 
L 149.232356 226.261321 
L 149.85877 226.261321 
L 149.85877 225.734635 
L 151.292481 225.734635 
L 151.292481 224.154577 
L 152.511852 224.154577 
L 152.511852 223.627891 
L 154.070741 223.627891 
L 154.070741 223.101204 
L 154.235652 223.101204 
L 154.235652 220.99446 
L 155.258271 220.99446 
L 155.258271 219.941088 
L 155.928852 219.941088 
L 155.966049 218.36103 
L 157.058236 218.36103 
L 157.058236 217.307658 
L 157.942862 217.307658 
L 157.942862 215.727599 
L 160.005512 215.727599 
L 160.005512 214.147541 
L 160.746084 214.147541 
L 160.746084 213.620855 
L 164.333587 213.620855 
L 164.333587 212.567483 
L 165.302685 212.567483 
L 165.302685 212.040797 
L 167.798261 212.040797 
L 167.798261 210.987425 
L 168.596677 210.987425 
L 168.596677 209.934052 
L 170.687376 209.934052 
L 170.687376 209.407366 
L 171.092653 209.407366 
L 171.092653 208.88068 
L 171.366236 208.88068 
L 171.366236 207.827308 
L 173.755642 207.827308 
L 173.755642 206.773936 
L 175.334356 206.773936 
L 175.334356 206.24725 
L 175.85677 206.24725 
L 175.85677 205.720564 
L 177.731751 205.720564 
L 177.731751 205.193878 
L 178.999998 205.193878 
L 178.999998 204.667192 
L 179.424571 204.667192 
L 179.424571 203.087133 
L 180.967511 203.087133 
L 180.967511 202.560447 
L 182.393133 202.560447 
L 182.393133 202.033761 
L 183.695823 202.033761 
L 183.695823 201.507075 
L 184.914997 201.507075 
L 184.914997 200.980389 
L 186.05448 200.980389 
L 186.05448 200.453703 
L 186.852213 200.453703 
L 186.852213 199.927017 
L 188.465431 199.927017 
L 188.465431 199.400331 
L 188.841751 199.400331 
L 188.841751 198.873645 
L 189.084485 198.873645 
L 189.084485 197.820273 
L 192.247037 197.820273 
L 192.247037 197.293586 
L 193.195221 197.293586 
L 193.195221 196.7669 
L 195.264728 196.7669 
L 195.264728 196.240214 
L 196.519442 196.240214 
L 196.519442 195.713528 
L 197.114494 195.713528 
L 197.114494 195.186842 
L 204.984021 195.186842 
L 204.984021 194.660156 
L 210.386938 194.660156 
L 210.386938 194.13347 
L 212.446758 194.13347 
L 212.446758 193.606784 
L 338.688 193.606784 
L 338.688 193.606784 
" style="fill:none;stroke:#6495ed;stroke-linecap:square;stroke-width:1.5;"/>
   </g>
   <g id="line2d_44">
    <defs>
     <path d="M -0 6 
L 6 -6 
L -6 -6 
z
" id="m81dc17c0eb" style="stroke:#6495ed;stroke-linejoin:miter;stroke-width:1.5;"/>
    </defs>
    <g>
     <use style="fill-opacity:0;stroke:#6495ed;stroke-linejoin:miter;stroke-width:1.5;" x="112.72987" xlink:href="#m81dc17c0eb" y="261.022602"/>
     <use style="fill-opacity:0;stroke:#6495ed;stroke-linejoin:miter;stroke-width:1.5;" x="151.292481" xlink:href="#m81dc17c0eb" y="225.734635"/>
     <use style="fill-opacity:0;stroke:#6495ed;stroke-linejoin:miter;stroke-width:1.5;" x="212.446758" xlink:href="#m81dc17c0eb" y="194.13347"/>
     <use style="fill-opacity:0;stroke:#6495ed;stroke-linejoin:miter;stroke-width:1.5;" x="212.446758" xlink:href="#m81dc17c0eb" y="193.606784"/>
     <use style="fill-opacity:0;stroke:#6495ed;stroke-linejoin:miter;stroke-width:1.5;" x="212.446758" xlink:href="#m81dc17c0eb" y="193.606784"/>
     <use style="fill-opacity:0;stroke:#6495ed;stroke-linejoin:miter;stroke-width:1.5;" x="338.688" xlink:href="#m81dc17c0eb" y="193.606784"/>
    </g>
   </g>
   <g id="line2d_45">
    <path style="fill:none;stroke:#6495ed;stroke-linecap:square;stroke-width:1.5;"/>
    <g/>
   </g>
   <g id="line2d_46">
    <path clip-path="url(#p7e1d30b619)" d="M 137.910857 235.214984 
" style="fill:none;stroke:#6495ed;stroke-linecap:square;stroke-width:1.5;"/>
    <defs>
     <path d="M -12 12 
L 12 -12 
M -12 -12 
L 12 12 
" id="m6a1b9cd69f" style="stroke:#6495ed;"/>
    </defs>
    <g clip-path="url(#p7e1d30b619)">
     <use style="fill:#6495ed;stroke:#6495ed;" x="137.910857" xlink:href="#m6a1b9cd69f" y="235.214984"/>
    </g>
   </g>
   <g id="line2d_47">
    <path d="M 338.688 193.606784 
L 369.60768 293.571802 
" style="fill:none;stroke:#6495ed;stroke-linecap:square;stroke-width:1.5;"/>
    <g>
     <use style="fill-opacity:0;stroke:#6495ed;stroke-linejoin:miter;stroke-width:1.5;" x="338.688" xlink:href="#m81dc17c0eb" y="193.606784"/>
     <use style="fill-opacity:0;stroke:#6495ed;stroke-linejoin:miter;stroke-width:1.5;" x="369.60768" xlink:href="#m81dc17c0eb" y="293.571802"/>
    </g>
   </g>
   <g id="line2d_48">
    <path d="M 338.688 130.404454 
L 369.60768 207.616634 
" style="fill:none;stroke:#ff7500;stroke-linecap:square;stroke-width:1.5;"/>
    <g>
     <use style="fill-opacity:0;stroke:#ff7500;stroke-linejoin:bevel;stroke-width:1.5;" x="338.688" xlink:href="#mdd41def3e9" y="130.404454"/>
     <use style="fill-opacity:0;stroke:#ff7500;stroke-linejoin:bevel;stroke-width:1.5;" x="369.60768" xlink:href="#mdd41def3e9" y="207.616634"/>
    </g>
   </g>
   <g id="line2d_49">
    <path d="M 338.688 30.334099 
L 369.60768 121.661465 
" style="fill:none;stroke:#ff00ff;stroke-linecap:square;stroke-width:1.5;"/>
    <g>
     <use style="fill-opacity:0;stroke:#ff00ff;stroke-linejoin:miter;stroke-width:1.5;" x="338.688" xlink:href="#m24f87fa1a7" y="30.334099"/>
     <use style="fill-opacity:0;stroke:#ff00ff;stroke-linejoin:miter;stroke-width:1.5;" x="369.60768" xlink:href="#m24f87fa1a7" y="121.661465"/>
    </g>
   </g>
   <g id="line2d_50">
    <path d="M 338.688 30.334099 
L 369.60768 35.706297 
" style="fill:none;stroke:#000080;stroke-linecap:square;stroke-width:1.5;"/>
    <g>
     <use style="fill-opacity:0;stroke:#000080;stroke-width:1.5;" x="338.688" xlink:href="#mf8daf54073" y="30.334099"/>
     <use style="fill-opacity:0;stroke:#000080;stroke-width:1.5;" x="369.60768" xlink:href="#mf8daf54073" y="35.706297"/>
    </g>
   </g>
   <g id="line2d_51">
    <path d="M 338.688 298.944 
L 338.688 30.334099 
" style="fill:none;stroke:#000000;stroke-linecap:square;stroke-width:1.5;"/>
   </g>
   <g id="patch_3">
    <path d="M 57.6 298.944 
L 57.6 27.648 
" style="fill:none;stroke:#000000;stroke-linecap:square;stroke-linejoin:miter;stroke-width:0.8;"/>
   </g>
   <g id="patch_4">
    <path d="M 338.688 298.944 
L 338.688 27.648 
" style="fill:none;stroke:#000000;stroke-linecap:square;stroke-linejoin:miter;stroke-width:0.8;"/>
   </g>
   <g id="patch_5">
    <path d="M 57.6 298.944 
L 338.688 298.944 
" style="fill:none;stroke:#000000;stroke-linecap:square;stroke-linejoin:miter;stroke-width:0.8;"/>
   </g>
   <g id="patch_6">
    <path d="M 57.6 27.648 
L 338.688 27.648 
" style="fill:none;stroke:#000000;stroke-linecap:square;stroke-linejoin:miter;stroke-width:0.8;"/>
   </g>
   <g id="text_13">
    <!-- TPE-hyper -->
    <g transform="translate(375.22944 298.262739)scale(0.17 -0.17)">
     <defs>
      <path d="M -19 4666 
L 3928 4666 
L 3928 4134 
L 2272 4134 
L 2272 0 
L 1638 0 
L 1638 4134 
L -19 4134 
L -19 4666 
z
" id="DejaVuSans-54" transform="scale(0.015625)"/>
      <path d="M 1259 4147 
L 1259 2394 
L 2053 2394 
Q 2494 2394 2734 2622 
Q 2975 2850 2975 3272 
Q 2975 3691 2734 3919 
Q 2494 4147 2053 4147 
L 1259 4147 
z
M 628 4666 
L 2053 4666 
Q 2838 4666 3239 4311 
Q 3641 3956 3641 3272 
Q 3641 2581 3239 2228 
Q 2838 1875 2053 1875 
L 1259 1875 
L 1259 0 
L 628 0 
L 628 4666 
z
" id="DejaVuSans-50" transform="scale(0.015625)"/>
      <path d="M 628 4666 
L 3578 4666 
L 3578 4134 
L 1259 4134 
L 1259 2753 
L 3481 2753 
L 3481 2222 
L 1259 2222 
L 1259 531 
L 3634 531 
L 3634 0 
L 628 0 
L 628 4666 
z
" id="DejaVuSans-45" transform="scale(0.015625)"/>
      <path d="M 3513 2113 
L 3513 0 
L 2938 0 
L 2938 2094 
Q 2938 2591 2744 2837 
Q 2550 3084 2163 3084 
Q 1697 3084 1428 2787 
Q 1159 2491 1159 1978 
L 1159 0 
L 581 0 
L 581 4863 
L 1159 4863 
L 1159 2956 
Q 1366 3272 1645 3428 
Q 1925 3584 2291 3584 
Q 2894 3584 3203 3211 
Q 3513 2838 3513 2113 
z
" id="DejaVuSans-68" transform="scale(0.015625)"/>
      <path d="M 2059 -325 
Q 1816 -950 1584 -1140 
Q 1353 -1331 966 -1331 
L 506 -1331 
L 506 -850 
L 844 -850 
Q 1081 -850 1212 -737 
Q 1344 -625 1503 -206 
L 1606 56 
L 191 3500 
L 800 3500 
L 1894 763 
L 2988 3500 
L 3597 3500 
L 2059 -325 
z
" id="DejaVuSans-79" transform="scale(0.015625)"/>
     </defs>
     <use xlink:href="#DejaVuSans-54"/>
     <use x="61.083984" xlink:href="#DejaVuSans-50"/>
     <use x="121.386719" xlink:href="#DejaVuSans-45"/>
     <use x="184.570312" xlink:href="#DejaVuSans-2d"/>
     <use x="220.654297" xlink:href="#DejaVuSans-68"/>
     <use x="284.033203" xlink:href="#DejaVuSans-79"/>
     <use x="343.212891" xlink:href="#DejaVuSans-70"/>
     <use x="406.689453" xlink:href="#DejaVuSans-65"/>
     <use x="468.212891" xlink:href="#DejaVuSans-72"/>
    </g>
   </g>
   <g id="text_14">
    <!-- RANDOMSEA -->
    <g transform="translate(375.22944 212.307571)scale(0.17 -0.17)">
     <defs>
      <path d="M 2841 2188 
Q 3044 2119 3236 1894 
Q 3428 1669 3622 1275 
L 4263 0 
L 3584 0 
L 2988 1197 
Q 2756 1666 2539 1819 
Q 2322 1972 1947 1972 
L 1259 1972 
L 1259 0 
L 628 0 
L 628 4666 
L 2053 4666 
Q 2853 4666 3247 4331 
Q 3641 3997 3641 3322 
Q 3641 2881 3436 2590 
Q 3231 2300 2841 2188 
z
M 1259 4147 
L 1259 2491 
L 2053 2491 
Q 2509 2491 2742 2702 
Q 2975 2913 2975 3322 
Q 2975 3731 2742 3939 
Q 2509 4147 2053 4147 
L 1259 4147 
z
" id="DejaVuSans-52" transform="scale(0.015625)"/>
      <path d="M 2188 4044 
L 1331 1722 
L 3047 1722 
L 2188 4044 
z
M 1831 4666 
L 2547 4666 
L 4325 0 
L 3669 0 
L 3244 1197 
L 1141 1197 
L 716 0 
L 50 0 
L 1831 4666 
z
" id="DejaVuSans-41" transform="scale(0.015625)"/>
      <path d="M 628 4666 
L 1478 4666 
L 3547 763 
L 3547 4666 
L 4159 4666 
L 4159 0 
L 3309 0 
L 1241 3903 
L 1241 0 
L 628 0 
L 628 4666 
z
" id="DejaVuSans-4e" transform="scale(0.015625)"/>
      <path d="M 1259 4147 
L 1259 519 
L 2022 519 
Q 2988 519 3436 956 
Q 3884 1394 3884 2338 
Q 3884 3275 3436 3711 
Q 2988 4147 2022 4147 
L 1259 4147 
z
M 628 4666 
L 1925 4666 
Q 3281 4666 3915 4102 
Q 4550 3538 4550 2338 
Q 4550 1131 3912 565 
Q 3275 0 1925 0 
L 628 0 
L 628 4666 
z
" id="DejaVuSans-44" transform="scale(0.015625)"/>
      <path d="M 2522 4238 
Q 1834 4238 1429 3725 
Q 1025 3213 1025 2328 
Q 1025 1447 1429 934 
Q 1834 422 2522 422 
Q 3209 422 3611 934 
Q 4013 1447 4013 2328 
Q 4013 3213 3611 3725 
Q 3209 4238 2522 4238 
z
M 2522 4750 
Q 3503 4750 4090 4092 
Q 4678 3434 4678 2328 
Q 4678 1225 4090 567 
Q 3503 -91 2522 -91 
Q 1538 -91 948 565 
Q 359 1222 359 2328 
Q 359 3434 948 4092 
Q 1538 4750 2522 4750 
z
" id="DejaVuSans-4f" transform="scale(0.015625)"/>
      <path d="M 628 4666 
L 1569 4666 
L 2759 1491 
L 3956 4666 
L 4897 4666 
L 4897 0 
L 4281 0 
L 4281 4097 
L 3078 897 
L 2444 897 
L 1241 4097 
L 1241 0 
L 628 0 
L 628 4666 
z
" id="DejaVuSans-4d" transform="scale(0.015625)"/>
      <path d="M 3425 4513 
L 3425 3897 
Q 3066 4069 2747 4153 
Q 2428 4238 2131 4238 
Q 1616 4238 1336 4038 
Q 1056 3838 1056 3469 
Q 1056 3159 1242 3001 
Q 1428 2844 1947 2747 
L 2328 2669 
Q 3034 2534 3370 2195 
Q 3706 1856 3706 1288 
Q 3706 609 3251 259 
Q 2797 -91 1919 -91 
Q 1588 -91 1214 -16 
Q 841 59 441 206 
L 441 856 
Q 825 641 1194 531 
Q 1563 422 1919 422 
Q 2459 422 2753 634 
Q 3047 847 3047 1241 
Q 3047 1584 2836 1778 
Q 2625 1972 2144 2069 
L 1759 2144 
Q 1053 2284 737 2584 
Q 422 2884 422 3419 
Q 422 4038 858 4394 
Q 1294 4750 2059 4750 
Q 2388 4750 2728 4690 
Q 3069 4631 3425 4513 
z
" id="DejaVuSans-53" transform="scale(0.015625)"/>
     </defs>
     <use xlink:href="#DejaVuSans-52"/>
     <use x="65.482422" xlink:href="#DejaVuSans-41"/>
     <use x="133.890625" xlink:href="#DejaVuSans-4e"/>
     <use x="208.695312" xlink:href="#DejaVuSans-44"/>
     <use x="285.697266" xlink:href="#DejaVuSans-4f"/>
     <use x="364.408203" xlink:href="#DejaVuSans-4d"/>
     <use x="450.6875" xlink:href="#DejaVuSans-53"/>
     <use x="514.164062" xlink:href="#DejaVuSans-45"/>
     <use x="577.347656" xlink:href="#DejaVuSans-41"/>
    </g>
   </g>
   <g id="text_15">
    <!-- DE-scipy -->
    <g transform="translate(375.22944 126.352403)scale(0.17 -0.17)">
     <use xlink:href="#DejaVuSans-44"/>
     <use x="77.001953" xlink:href="#DejaVuSans-45"/>
     <use x="140.185547" xlink:href="#DejaVuSans-2d"/>
     <use x="176.269531" xlink:href="#DejaVuSans-73"/>
     <use x="228.369141" xlink:href="#DejaVuSans-63"/>
     <use x="283.349609" xlink:href="#DejaVuSans-69"/>
     <use x="311.132812" xlink:href="#DejaVuSans-70"/>
     <use x="374.609375" xlink:href="#DejaVuSans-79"/>
    </g>
   </g>
   <g id="text_16">
    <!-- CMA-ES-py -->
    <g transform="translate(375.22944 40.397235)scale(0.17 -0.17)">
     <defs>
      <path d="M 4122 4306 
L 4122 3641 
Q 3803 3938 3442 4084 
Q 3081 4231 2675 4231 
Q 1875 4231 1450 3742 
Q 1025 3253 1025 2328 
Q 1025 1406 1450 917 
Q 1875 428 2675 428 
Q 3081 428 3442 575 
Q 3803 722 4122 1019 
L 4122 359 
Q 3791 134 3420 21 
Q 3050 -91 2638 -91 
Q 1578 -91 968 557 
Q 359 1206 359 2328 
Q 359 3453 968 4101 
Q 1578 4750 2638 4750 
Q 3056 4750 3426 4639 
Q 3797 4528 4122 4306 
z
" id="DejaVuSans-43" transform="scale(0.015625)"/>
     </defs>
     <use xlink:href="#DejaVuSans-43"/>
     <use x="69.824219" xlink:href="#DejaVuSans-4d"/>
     <use x="156.103516" xlink:href="#DejaVuSans-41"/>
     <use x="222.261719" xlink:href="#DejaVuSans-2d"/>
     <use x="258.345703" xlink:href="#DejaVuSans-45"/>
     <use x="321.529297" xlink:href="#DejaVuSans-53"/>
     <use x="385.005859" xlink:href="#DejaVuSans-2d"/>
     <use x="421.089844" xlink:href="#DejaVuSans-70"/>
     <use x="484.566406" xlink:href="#DejaVuSans-79"/>
    </g>
   </g>
   <g id="text_17">
    <!-- bbob-mixint f2, 5-D -->
    <g transform="translate(60.41088 38.111366)scale(0.102 -0.102)">
     <defs>
      <path d="M 3116 1747 
Q 3116 2381 2855 2742 
Q 2594 3103 2138 3103 
Q 1681 3103 1420 2742 
Q 1159 2381 1159 1747 
Q 1159 1113 1420 752 
Q 1681 391 2138 391 
Q 2594 391 2855 752 
Q 3116 1113 3116 1747 
z
M 1159 2969 
Q 1341 3281 1617 3432 
Q 1894 3584 2278 3584 
Q 2916 3584 3314 3078 
Q 3713 2572 3713 1747 
Q 3713 922 3314 415 
Q 2916 -91 2278 -91 
Q 1894 -91 1617 61 
Q 1341 213 1159 525 
L 1159 0 
L 581 0 
L 581 4863 
L 1159 4863 
L 1159 2969 
z
" id="DejaVuSans-62" transform="scale(0.015625)"/>
      <path d="M 3513 3500 
L 2247 1797 
L 3578 0 
L 2900 0 
L 1881 1375 
L 863 0 
L 184 0 
L 1544 1831 
L 300 3500 
L 978 3500 
L 1906 2253 
L 2834 3500 
L 3513 3500 
z
" id="DejaVuSans-78" transform="scale(0.015625)"/>
      <path d="M 691 4666 
L 3169 4666 
L 3169 4134 
L 1269 4134 
L 1269 2991 
Q 1406 3038 1543 3061 
Q 1681 3084 1819 3084 
Q 2600 3084 3056 2656 
Q 3513 2228 3513 1497 
Q 3513 744 3044 326 
Q 2575 -91 1722 -91 
Q 1428 -91 1123 -41 
Q 819 9 494 109 
L 494 744 
Q 775 591 1075 516 
Q 1375 441 1709 441 
Q 2250 441 2565 725 
Q 2881 1009 2881 1497 
Q 2881 1984 2565 2268 
Q 2250 2553 1709 2553 
Q 1456 2553 1204 2497 
Q 953 2441 691 2322 
L 691 4666 
z
" id="DejaVuSans-35" transform="scale(0.015625)"/>
     </defs>
     <use xlink:href="#DejaVuSans-62"/>
     <use x="63.476562" xlink:href="#DejaVuSans-62"/>
     <use x="126.953125" xlink:href="#DejaVuSans-6f"/>
     <use x="188.134766" xlink:href="#DejaVuSans-62"/>
     <use x="251.611328" xlink:href="#DejaVuSans-2d"/>
     <use x="287.695312" xlink:href="#DejaVuSans-6d"/>
     <use x="385.107422" xlink:href="#DejaVuSans-69"/>
     <use x="412.890625" xlink:href="#DejaVuSans-78"/>
     <use x="472.070312" xlink:href="#DejaVuSans-69"/>
     <use x="499.853516" xlink:href="#DejaVuSans-6e"/>
     <use x="563.232422" xlink:href="#DejaVuSans-74"/>
     <use x="602.441406" xlink:href="#DejaVuSans-20"/>
     <use x="634.228516" xlink:href="#DejaVuSans-66"/>
     <use x="669.433594" xlink:href="#DejaVuSans-32"/>
     <use x="733.056641" xlink:href="#DejaVuSans-2c"/>
     <use x="764.84375" xlink:href="#DejaVuSans-20"/>
     <use x="796.630859" xlink:href="#DejaVuSans-35"/>
     <use x="860.253906" xlink:href="#DejaVuSans-2d"/>
     <use x="896.337891" xlink:href="#DejaVuSans-44"/>
    </g>
    <!-- 51 targets: 100..1e-08 -->
    <g transform="translate(60.41088 49.533135)scale(0.102 -0.102)">
     <defs>
      <path d="M 750 794 
L 1409 794 
L 1409 0 
L 750 0 
L 750 794 
z
M 750 3309 
L 1409 3309 
L 1409 2516 
L 750 2516 
L 750 3309 
z
" id="DejaVuSans-3a" transform="scale(0.015625)"/>
     </defs>
     <use xlink:href="#DejaVuSans-35"/>
     <use x="63.623047" xlink:href="#DejaVuSans-31"/>
     <use x="127.246094" xlink:href="#DejaVuSans-20"/>
     <use x="159.033203" xlink:href="#DejaVuSans-74"/>
     <use x="198.242188" xlink:href="#DejaVuSans-61"/>
     <use x="259.521484" xlink:href="#DejaVuSans-72"/>
     <use x="298.884766" xlink:href="#DejaVuSans-67"/>
     <use x="362.361328" xlink:href="#DejaVuSans-65"/>
     <use x="423.884766" xlink:href="#DejaVuSans-74"/>
     <use x="463.09375" xlink:href="#DejaVuSans-73"/>
     <use x="515.193359" xlink:href="#DejaVuSans-3a"/>
     <use x="548.884766" xlink:href="#DejaVuSans-20"/>
     <use x="580.671875" xlink:href="#DejaVuSans-31"/>
     <use x="644.294922" xlink:href="#DejaVuSans-30"/>
     <use x="707.917969" xlink:href="#DejaVuSans-30"/>
     <use x="771.541016" xlink:href="#DejaVuSans-2e"/>
     <use x="803.328125" xlink:href="#DejaVuSans-2e"/>
     <use x="835.115234" xlink:href="#DejaVuSans-31"/>
     <use x="898.738281" xlink:href="#DejaVuSans-65"/>
     <use x="960.261719" xlink:href="#DejaVuSans-2d"/>
     <use x="996.345703" xlink:href="#DejaVuSans-30"/>
     <use x="1059.96875" xlink:href="#DejaVuSans-38"/>
    </g>
    <!-- 15 instances -->
    <g transform="translate(60.41088 60.954904)scale(0.102 -0.102)">
     <use xlink:href="#DejaVuSans-31"/>
     <use x="63.623047" xlink:href="#DejaVuSans-35"/>
     <use x="127.246094" xlink:href="#DejaVuSans-20"/>
     <use x="159.033203" xlink:href="#DejaVuSans-69"/>
     <use x="186.816406" xlink:href="#DejaVuSans-6e"/>
     <use x="250.195312" xlink:href="#DejaVuSans-73"/>
     <use x="302.294922" xlink:href="#DejaVuSans-74"/>
     <use x="341.503906" xlink:href="#DejaVuSans-61"/>
     <use x="402.783203" xlink:href="#DejaVuSans-6e"/>
     <use x="466.162109" xlink:href="#DejaVuSans-63"/>
     <use x="521.142578" xlink:href="#DejaVuSans-65"/>
     <use x="582.666016" xlink:href="#DejaVuSans-73"/>
    </g>
   </g>
   <g id="text_18">
    <!-- v2.4.1.1 -->
    <g style="fill:#808080;" transform="translate(177.692437 294.151352)scale(0.1 -0.1)">
     <use xlink:href="#DejaVuSans-76"/>
     <use x="59.179688" xlink:href="#DejaVuSans-32"/>
     <use x="122.802734" xlink:href="#DejaVuSans-2e"/>
     <use x="154.589844" xlink:href="#DejaVuSans-34"/>
     <use x="218.212891" xlink:href="#DejaVuSans-2e"/>
     <use x="250" xlink:href="#DejaVuSans-31"/>
     <use x="313.623047" xlink:href="#DejaVuSans-2e"/>
     <use x="345.410156" xlink:href="#DejaVuSans-31"/>
    </g>
   </g>
   <g id="text_19">
    <!-- 2 Ellipsoid separable -->
    <g transform="translate(94.611187 21.648)scale(0.2 -0.2)">
     <use xlink:href="#DejaVuSans-32"/>
     <use x="63.623047" xlink:href="#DejaVuSans-20"/>
     <use x="95.410156" xlink:href="#DejaVuSans-45"/>
     <use x="158.59375" xlink:href="#DejaVuSans-6c"/>
     <use x="186.376953" xlink:href="#DejaVuSans-6c"/>
     <use x="214.160156" xlink:href="#DejaVuSans-69"/>
     <use x="241.943359" xlink:href="#DejaVuSans-70"/>
     <use x="305.419922" xlink:href="#DejaVuSans-73"/>
     <use x="357.519531" xlink:href="#DejaVuSans-6f"/>
     <use x="418.701172" xlink:href="#DejaVuSans-69"/>
     <use x="446.484375" xlink:href="#DejaVuSans-64"/>
     <use x="509.960938" xlink:href="#DejaVuSans-20"/>
     <use x="541.748047" xlink:href="#DejaVuSans-73"/>
     <use x="593.847656" xlink:href="#DejaVuSans-65"/>
     <use x="655.371094" xlink:href="#DejaVuSans-70"/>
     <use x="718.847656" xlink:href="#DejaVuSans-61"/>
     <use x="780.126953" xlink:href="#DejaVuSans-72"/>
     <use x="821.240234" xlink:href="#DejaVuSans-61"/>
     <use x="882.519531" xlink:href="#DejaVuSans-62"/>
     <use x="945.996094" xlink:href="#DejaVuSans-6c"/>
     <use x="973.779297" xlink:href="#DejaVuSans-65"/>
    </g>
   </g>
  </g>
 </g>
 <defs>
  <clipPath id="p7e1d30b619">
   <rect height="271.296" width="281.088" x="57.6" y="27.648"/>
  </clipPath>
 </defs>
</svg>
