<?xml version="1.0" encoding="utf-8" standalone="no"?>
<!DOCTYPE svg PUBLIC "-//W3C//DTD SVG 1.1//EN"
  "http://www.w3.org/Graphics/SVG/1.1/DTD/svg11.dtd">
<svg height="345.6pt" version="1.1" viewBox="0 0 460.8 345.6" width="460.8pt" xmlns="http://www.w3.org/2000/svg" xmlns:xlink="http://www.w3.org/1999/xlink">
 <metadata>
  <rdf:RDF xmlns:cc="http://creativecommons.org/ns#" xmlns:dc="http://purl.org/dc/elements/1.1/" xmlns:rdf="http://www.w3.org/1999/02/22-rdf-syntax-ns#">
   <cc:Work>
    <dc:type rdf:resource="http://purl.org/dc/dcmitype/StillImage"/>
    <dc:date>2022-03-29T13:03:22.762082</dc:date>
    <dc:format>image/svg+xml</dc:format>
    <dc:creator>
     <cc:Agent>
      <dc:title>Matplotlib v3.4.3, https://matplotlib.org/</dc:title>
     </cc:Agent>
    </dc:creator>
   </cc:Work>
  </rdf:RDF>
 </metadata>
 <defs>
  <style type="text/css">*{stroke-linecap:butt;stroke-linejoin:round;}</style>
 </defs>
 <g id="figure_1">
  <g id="patch_1">
   <path d="M 0 345.6 
L 460.8 345.6 
L 460.8 0 
L 0 0 
z
" style="fill:#ffffff;"/>
  </g>
  <g id="axes_1">
   <g id="patch_2">
    <path d="M 57.6 298.944 
L 338.688 298.944 
L 338.688 27.648 
L 57.6 27.648 
z
" style="fill:#ffffff;"/>
   </g>
   <g id="matplotlib.axis_1">
    <g id="xtick_1">
     <g id="line2d_1">
      <path clip-path="url(#p8403a2331f)" d="M 57.6 298.944 
L 57.6 27.648 
" style="fill:none;stroke:#b0b0b0;stroke-linecap:square;stroke-width:0.8;"/>
     </g>
     <g id="line2d_2">
      <defs>
       <path d="M 0 0 
L 0 3.5 
" id="m3fb0381a40" style="stroke:#000000;stroke-width:0.8;"/>
      </defs>
      <g>
       <use style="stroke:#000000;stroke-width:0.8;" x="57.6" xlink:href="#m3fb0381a40" y="298.944"/>
      </g>
     </g>
     <g id="text_1">
      <!-- 0 -->
      <g transform="translate(51.2375 321.140875)scale(0.2 -0.2)">
       <defs>
        <path d="M 2034 4250 
Q 1547 4250 1301 3770 
Q 1056 3291 1056 2328 
Q 1056 1369 1301 889 
Q 1547 409 2034 409 
Q 2525 409 2770 889 
Q 3016 1369 3016 2328 
Q 3016 3291 2770 3770 
Q 2525 4250 2034 4250 
z
M 2034 4750 
Q 2819 4750 3233 4129 
Q 3647 3509 3647 2328 
Q 3647 1150 3233 529 
Q 2819 -91 2034 -91 
Q 1250 -91 836 529 
Q 422 1150 422 2328 
Q 422 3509 836 4129 
Q 1250 4750 2034 4750 
z
" id="DejaVuSans-30" transform="scale(0.015625)"/>
       </defs>
       <use xlink:href="#DejaVuSans-30"/>
      </g>
     </g>
    </g>
    <g id="xtick_2">
     <g id="line2d_3">
      <path clip-path="url(#p8403a2331f)" d="M 137.910857 298.944 
L 137.910857 27.648 
" style="fill:none;stroke:#b0b0b0;stroke-linecap:square;stroke-width:0.8;"/>
     </g>
     <g id="line2d_4">
      <g>
       <use style="stroke:#000000;stroke-width:0.8;" x="137.910857" xlink:href="#m3fb0381a40" y="298.944"/>
      </g>
     </g>
     <g id="text_2">
      <!-- 2 -->
      <g transform="translate(131.548357 321.140875)scale(0.2 -0.2)">
       <defs>
        <path d="M 1228 531 
L 3431 531 
L 3431 0 
L 469 0 
L 469 531 
Q 828 903 1448 1529 
Q 2069 2156 2228 2338 
Q 2531 2678 2651 2914 
Q 2772 3150 2772 3378 
Q 2772 3750 2511 3984 
Q 2250 4219 1831 4219 
Q 1534 4219 1204 4116 
Q 875 4013 500 3803 
L 500 4441 
Q 881 4594 1212 4672 
Q 1544 4750 1819 4750 
Q 2544 4750 2975 4387 
Q 3406 4025 3406 3419 
Q 3406 3131 3298 2873 
Q 3191 2616 2906 2266 
Q 2828 2175 2409 1742 
Q 1991 1309 1228 531 
z
" id="DejaVuSans-32" transform="scale(0.015625)"/>
       </defs>
       <use xlink:href="#DejaVuSans-32"/>
      </g>
     </g>
    </g>
    <g id="xtick_3">
     <g id="line2d_5">
      <path clip-path="url(#p8403a2331f)" d="M 218.221714 298.944 
L 218.221714 27.648 
" style="fill:none;stroke:#b0b0b0;stroke-linecap:square;stroke-width:0.8;"/>
     </g>
     <g id="line2d_6">
      <g>
       <use style="stroke:#000000;stroke-width:0.8;" x="218.221714" xlink:href="#m3fb0381a40" y="298.944"/>
      </g>
     </g>
     <g id="text_3">
      <!-- 4 -->
      <g transform="translate(211.859214 321.140875)scale(0.2 -0.2)">
       <defs>
        <path d="M 2419 4116 
L 825 1625 
L 2419 1625 
L 2419 4116 
z
M 2253 4666 
L 3047 4666 
L 3047 1625 
L 3713 1625 
L 3713 1100 
L 3047 1100 
L 3047 0 
L 2419 0 
L 2419 1100 
L 313 1100 
L 313 1709 
L 2253 4666 
z
" id="DejaVuSans-34" transform="scale(0.015625)"/>
       </defs>
       <use xlink:href="#DejaVuSans-34"/>
      </g>
     </g>
    </g>
    <g id="xtick_4">
     <g id="line2d_7">
      <path clip-path="url(#p8403a2331f)" d="M 298.532571 298.944 
L 298.532571 27.648 
" style="fill:none;stroke:#b0b0b0;stroke-linecap:square;stroke-width:0.8;"/>
     </g>
     <g id="line2d_8">
      <g>
       <use style="stroke:#000000;stroke-width:0.8;" x="298.532571" xlink:href="#m3fb0381a40" y="298.944"/>
      </g>
     </g>
     <g id="text_4">
      <!-- 6 -->
      <g transform="translate(292.170071 321.140875)scale(0.2 -0.2)">
       <defs>
        <path d="M 2113 2584 
Q 1688 2584 1439 2293 
Q 1191 2003 1191 1497 
Q 1191 994 1439 701 
Q 1688 409 2113 409 
Q 2538 409 2786 701 
Q 3034 994 3034 1497 
Q 3034 2003 2786 2293 
Q 2538 2584 2113 2584 
z
M 3366 4563 
L 3366 3988 
Q 3128 4100 2886 4159 
Q 2644 4219 2406 4219 
Q 1781 4219 1451 3797 
Q 1122 3375 1075 2522 
Q 1259 2794 1537 2939 
Q 1816 3084 2150 3084 
Q 2853 3084 3261 2657 
Q 3669 2231 3669 1497 
Q 3669 778 3244 343 
Q 2819 -91 2113 -91 
Q 1303 -91 875 529 
Q 447 1150 447 2328 
Q 447 3434 972 4092 
Q 1497 4750 2381 4750 
Q 2619 4750 2861 4703 
Q 3103 4656 3366 4563 
z
" id="DejaVuSans-36" transform="scale(0.015625)"/>
       </defs>
       <use xlink:href="#DejaVuSans-36"/>
      </g>
     </g>
    </g>
    <g id="xtick_5">
     <g id="line2d_9">
      <path clip-path="url(#p8403a2331f)" d="M 97.755429 298.944 
L 97.755429 27.648 
" style="fill:none;stroke:#b0b0b0;stroke-linecap:square;stroke-width:0.8;"/>
     </g>
     <g id="line2d_10">
      <defs>
       <path d="M 0 0 
L 0 2 
" id="m38519f142a" style="stroke:#000000;stroke-width:0.6;"/>
      </defs>
      <g>
       <use style="stroke:#000000;stroke-width:0.6;" x="97.755429" xlink:href="#m38519f142a" y="298.944"/>
      </g>
     </g>
    </g>
    <g id="xtick_6">
     <g id="line2d_11">
      <path clip-path="url(#p8403a2331f)" d="M 178.066286 298.944 
L 178.066286 27.648 
" style="fill:none;stroke:#b0b0b0;stroke-linecap:square;stroke-width:0.8;"/>
     </g>
     <g id="line2d_12">
      <g>
       <use style="stroke:#000000;stroke-width:0.6;" x="178.066286" xlink:href="#m38519f142a" y="298.944"/>
      </g>
     </g>
    </g>
    <g id="xtick_7">
     <g id="line2d_13">
      <path clip-path="url(#p8403a2331f)" d="M 258.377143 298.944 
L 258.377143 27.648 
" style="fill:none;stroke:#b0b0b0;stroke-linecap:square;stroke-width:0.8;"/>
     </g>
     <g id="line2d_14">
      <g>
       <use style="stroke:#000000;stroke-width:0.6;" x="258.377143" xlink:href="#m38519f142a" y="298.944"/>
      </g>
     </g>
    </g>
    <g id="xtick_8">
     <g id="line2d_15">
      <path clip-path="url(#p8403a2331f)" d="M 338.688 298.944 
L 338.688 27.648 
" style="fill:none;stroke:#b0b0b0;stroke-linecap:square;stroke-width:0.8;"/>
     </g>
     <g id="line2d_16">
      <g>
       <use style="stroke:#000000;stroke-width:0.6;" x="338.688" xlink:href="#m38519f142a" y="298.944"/>
      </g>
     </g>
    </g>
    <g id="text_5">
     <!-- log10(# f-evals / dimension) -->
     <g transform="translate(77.764078 342.217594)scale(0.17 -0.17)">
      <defs>
       <path d="M 603 4863 
L 1178 4863 
L 1178 0 
L 603 0 
L 603 4863 
z
" id="DejaVuSans-6c" transform="scale(0.015625)"/>
       <path d="M 1959 3097 
Q 1497 3097 1228 2736 
Q 959 2375 959 1747 
Q 959 1119 1226 758 
Q 1494 397 1959 397 
Q 2419 397 2687 759 
Q 2956 1122 2956 1747 
Q 2956 2369 2687 2733 
Q 2419 3097 1959 3097 
z
M 1959 3584 
Q 2709 3584 3137 3096 
Q 3566 2609 3566 1747 
Q 3566 888 3137 398 
Q 2709 -91 1959 -91 
Q 1206 -91 779 398 
Q 353 888 353 1747 
Q 353 2609 779 3096 
Q 1206 3584 1959 3584 
z
" id="DejaVuSans-6f" transform="scale(0.015625)"/>
       <path d="M 2906 1791 
Q 2906 2416 2648 2759 
Q 2391 3103 1925 3103 
Q 1463 3103 1205 2759 
Q 947 2416 947 1791 
Q 947 1169 1205 825 
Q 1463 481 1925 481 
Q 2391 481 2648 825 
Q 2906 1169 2906 1791 
z
M 3481 434 
Q 3481 -459 3084 -895 
Q 2688 -1331 1869 -1331 
Q 1566 -1331 1297 -1286 
Q 1028 -1241 775 -1147 
L 775 -588 
Q 1028 -725 1275 -790 
Q 1522 -856 1778 -856 
Q 2344 -856 2625 -561 
Q 2906 -266 2906 331 
L 2906 616 
Q 2728 306 2450 153 
Q 2172 0 1784 0 
Q 1141 0 747 490 
Q 353 981 353 1791 
Q 353 2603 747 3093 
Q 1141 3584 1784 3584 
Q 2172 3584 2450 3431 
Q 2728 3278 2906 2969 
L 2906 3500 
L 3481 3500 
L 3481 434 
z
" id="DejaVuSans-67" transform="scale(0.015625)"/>
       <path d="M 794 531 
L 1825 531 
L 1825 4091 
L 703 3866 
L 703 4441 
L 1819 4666 
L 2450 4666 
L 2450 531 
L 3481 531 
L 3481 0 
L 794 0 
L 794 531 
z
" id="DejaVuSans-31" transform="scale(0.015625)"/>
       <path d="M 1984 4856 
Q 1566 4138 1362 3434 
Q 1159 2731 1159 2009 
Q 1159 1288 1364 580 
Q 1569 -128 1984 -844 
L 1484 -844 
Q 1016 -109 783 600 
Q 550 1309 550 2009 
Q 550 2706 781 3412 
Q 1013 4119 1484 4856 
L 1984 4856 
z
" id="DejaVuSans-28" transform="scale(0.015625)"/>
       <path d="M 3272 2816 
L 2363 2816 
L 2100 1772 
L 3016 1772 
L 3272 2816 
z
M 2803 4594 
L 2478 3297 
L 3391 3297 
L 3719 4594 
L 4219 4594 
L 3897 3297 
L 4872 3297 
L 4872 2816 
L 3775 2816 
L 3519 1772 
L 4513 1772 
L 4513 1294 
L 3397 1294 
L 3072 0 
L 2572 0 
L 2894 1294 
L 1978 1294 
L 1656 0 
L 1153 0 
L 1478 1294 
L 494 1294 
L 494 1772 
L 1594 1772 
L 1856 2816 
L 850 2816 
L 850 3297 
L 1978 3297 
L 2297 4594 
L 2803 4594 
z
" id="DejaVuSans-23" transform="scale(0.015625)"/>
       <path id="DejaVuSans-20" transform="scale(0.015625)"/>
       <path d="M 2375 4863 
L 2375 4384 
L 1825 4384 
Q 1516 4384 1395 4259 
Q 1275 4134 1275 3809 
L 1275 3500 
L 2222 3500 
L 2222 3053 
L 1275 3053 
L 1275 0 
L 697 0 
L 697 3053 
L 147 3053 
L 147 3500 
L 697 3500 
L 697 3744 
Q 697 4328 969 4595 
Q 1241 4863 1831 4863 
L 2375 4863 
z
" id="DejaVuSans-66" transform="scale(0.015625)"/>
       <path d="M 313 2009 
L 1997 2009 
L 1997 1497 
L 313 1497 
L 313 2009 
z
" id="DejaVuSans-2d" transform="scale(0.015625)"/>
       <path d="M 3597 1894 
L 3597 1613 
L 953 1613 
Q 991 1019 1311 708 
Q 1631 397 2203 397 
Q 2534 397 2845 478 
Q 3156 559 3463 722 
L 3463 178 
Q 3153 47 2828 -22 
Q 2503 -91 2169 -91 
Q 1331 -91 842 396 
Q 353 884 353 1716 
Q 353 2575 817 3079 
Q 1281 3584 2069 3584 
Q 2775 3584 3186 3129 
Q 3597 2675 3597 1894 
z
M 3022 2063 
Q 3016 2534 2758 2815 
Q 2500 3097 2075 3097 
Q 1594 3097 1305 2825 
Q 1016 2553 972 2059 
L 3022 2063 
z
" id="DejaVuSans-65" transform="scale(0.015625)"/>
       <path d="M 191 3500 
L 800 3500 
L 1894 563 
L 2988 3500 
L 3597 3500 
L 2284 0 
L 1503 0 
L 191 3500 
z
" id="DejaVuSans-76" transform="scale(0.015625)"/>
       <path d="M 2194 1759 
Q 1497 1759 1228 1600 
Q 959 1441 959 1056 
Q 959 750 1161 570 
Q 1363 391 1709 391 
Q 2188 391 2477 730 
Q 2766 1069 2766 1631 
L 2766 1759 
L 2194 1759 
z
M 3341 1997 
L 3341 0 
L 2766 0 
L 2766 531 
Q 2569 213 2275 61 
Q 1981 -91 1556 -91 
Q 1019 -91 701 211 
Q 384 513 384 1019 
Q 384 1609 779 1909 
Q 1175 2209 1959 2209 
L 2766 2209 
L 2766 2266 
Q 2766 2663 2505 2880 
Q 2244 3097 1772 3097 
Q 1472 3097 1187 3025 
Q 903 2953 641 2809 
L 641 3341 
Q 956 3463 1253 3523 
Q 1550 3584 1831 3584 
Q 2591 3584 2966 3190 
Q 3341 2797 3341 1997 
z
" id="DejaVuSans-61" transform="scale(0.015625)"/>
       <path d="M 2834 3397 
L 2834 2853 
Q 2591 2978 2328 3040 
Q 2066 3103 1784 3103 
Q 1356 3103 1142 2972 
Q 928 2841 928 2578 
Q 928 2378 1081 2264 
Q 1234 2150 1697 2047 
L 1894 2003 
Q 2506 1872 2764 1633 
Q 3022 1394 3022 966 
Q 3022 478 2636 193 
Q 2250 -91 1575 -91 
Q 1294 -91 989 -36 
Q 684 19 347 128 
L 347 722 
Q 666 556 975 473 
Q 1284 391 1588 391 
Q 1994 391 2212 530 
Q 2431 669 2431 922 
Q 2431 1156 2273 1281 
Q 2116 1406 1581 1522 
L 1381 1569 
Q 847 1681 609 1914 
Q 372 2147 372 2553 
Q 372 3047 722 3315 
Q 1072 3584 1716 3584 
Q 2034 3584 2315 3537 
Q 2597 3491 2834 3397 
z
" id="DejaVuSans-73" transform="scale(0.015625)"/>
       <path d="M 1625 4666 
L 2156 4666 
L 531 -594 
L 0 -594 
L 1625 4666 
z
" id="DejaVuSans-2f" transform="scale(0.015625)"/>
       <path d="M 2906 2969 
L 2906 4863 
L 3481 4863 
L 3481 0 
L 2906 0 
L 2906 525 
Q 2725 213 2448 61 
Q 2172 -91 1784 -91 
Q 1150 -91 751 415 
Q 353 922 353 1747 
Q 353 2572 751 3078 
Q 1150 3584 1784 3584 
Q 2172 3584 2448 3432 
Q 2725 3281 2906 2969 
z
M 947 1747 
Q 947 1113 1208 752 
Q 1469 391 1925 391 
Q 2381 391 2643 752 
Q 2906 1113 2906 1747 
Q 2906 2381 2643 2742 
Q 2381 3103 1925 3103 
Q 1469 3103 1208 2742 
Q 947 2381 947 1747 
z
" id="DejaVuSans-64" transform="scale(0.015625)"/>
       <path d="M 603 3500 
L 1178 3500 
L 1178 0 
L 603 0 
L 603 3500 
z
M 603 4863 
L 1178 4863 
L 1178 4134 
L 603 4134 
L 603 4863 
z
" id="DejaVuSans-69" transform="scale(0.015625)"/>
       <path d="M 3328 2828 
Q 3544 3216 3844 3400 
Q 4144 3584 4550 3584 
Q 5097 3584 5394 3201 
Q 5691 2819 5691 2113 
L 5691 0 
L 5113 0 
L 5113 2094 
Q 5113 2597 4934 2840 
Q 4756 3084 4391 3084 
Q 3944 3084 3684 2787 
Q 3425 2491 3425 1978 
L 3425 0 
L 2847 0 
L 2847 2094 
Q 2847 2600 2669 2842 
Q 2491 3084 2119 3084 
Q 1678 3084 1418 2786 
Q 1159 2488 1159 1978 
L 1159 0 
L 581 0 
L 581 3500 
L 1159 3500 
L 1159 2956 
Q 1356 3278 1631 3431 
Q 1906 3584 2284 3584 
Q 2666 3584 2933 3390 
Q 3200 3197 3328 2828 
z
" id="DejaVuSans-6d" transform="scale(0.015625)"/>
       <path d="M 3513 2113 
L 3513 0 
L 2938 0 
L 2938 2094 
Q 2938 2591 2744 2837 
Q 2550 3084 2163 3084 
Q 1697 3084 1428 2787 
Q 1159 2491 1159 1978 
L 1159 0 
L 581 0 
L 581 3500 
L 1159 3500 
L 1159 2956 
Q 1366 3272 1645 3428 
Q 1925 3584 2291 3584 
Q 2894 3584 3203 3211 
Q 3513 2838 3513 2113 
z
" id="DejaVuSans-6e" transform="scale(0.015625)"/>
       <path d="M 513 4856 
L 1013 4856 
Q 1481 4119 1714 3412 
Q 1947 2706 1947 2009 
Q 1947 1309 1714 600 
Q 1481 -109 1013 -844 
L 513 -844 
Q 928 -128 1133 580 
Q 1338 1288 1338 2009 
Q 1338 2731 1133 3434 
Q 928 4138 513 4856 
z
" id="DejaVuSans-29" transform="scale(0.015625)"/>
      </defs>
      <use xlink:href="#DejaVuSans-6c"/>
      <use x="27.783203" xlink:href="#DejaVuSans-6f"/>
      <use x="88.964844" xlink:href="#DejaVuSans-67"/>
      <use x="152.441406" xlink:href="#DejaVuSans-31"/>
      <use x="216.064453" xlink:href="#DejaVuSans-30"/>
      <use x="279.6875" xlink:href="#DejaVuSans-28"/>
      <use x="318.701172" xlink:href="#DejaVuSans-23"/>
      <use x="402.490234" xlink:href="#DejaVuSans-20"/>
      <use x="434.277344" xlink:href="#DejaVuSans-66"/>
      <use x="463.982422" xlink:href="#DejaVuSans-2d"/>
      <use x="500.066406" xlink:href="#DejaVuSans-65"/>
      <use x="561.589844" xlink:href="#DejaVuSans-76"/>
      <use x="620.769531" xlink:href="#DejaVuSans-61"/>
      <use x="682.048828" xlink:href="#DejaVuSans-6c"/>
      <use x="709.832031" xlink:href="#DejaVuSans-73"/>
      <use x="761.931641" xlink:href="#DejaVuSans-20"/>
      <use x="793.71875" xlink:href="#DejaVuSans-2f"/>
      <use x="827.410156" xlink:href="#DejaVuSans-20"/>
      <use x="859.197266" xlink:href="#DejaVuSans-64"/>
      <use x="922.673828" xlink:href="#DejaVuSans-69"/>
      <use x="950.457031" xlink:href="#DejaVuSans-6d"/>
      <use x="1047.869141" xlink:href="#DejaVuSans-65"/>
      <use x="1109.392578" xlink:href="#DejaVuSans-6e"/>
      <use x="1172.771484" xlink:href="#DejaVuSans-73"/>
      <use x="1224.871094" xlink:href="#DejaVuSans-69"/>
      <use x="1252.654297" xlink:href="#DejaVuSans-6f"/>
      <use x="1313.835938" xlink:href="#DejaVuSans-6e"/>
      <use x="1377.214844" xlink:href="#DejaVuSans-29"/>
     </g>
    </g>
   </g>
   <g id="matplotlib.axis_2">
    <g id="ytick_1">
     <g id="line2d_17">
      <path clip-path="url(#p8403a2331f)" d="M 57.6 298.944 
L 338.688 298.944 
" style="fill:none;stroke:#b0b0b0;stroke-linecap:square;stroke-width:0.8;"/>
     </g>
     <g id="line2d_18">
      <defs>
       <path d="M 0 0 
L -3.5 0 
" id="m062ffed8ed" style="stroke:#000000;stroke-width:0.8;"/>
      </defs>
      <g>
       <use style="stroke:#000000;stroke-width:0.8;" x="57.6" xlink:href="#m062ffed8ed" y="298.944"/>
      </g>
     </g>
     <g id="text_6">
      <!-- 0.0 -->
      <g transform="translate(25.155 305.02275)scale(0.16 -0.16)">
       <defs>
        <path d="M 684 794 
L 1344 794 
L 1344 0 
L 684 0 
L 684 794 
z
" id="DejaVuSans-2e" transform="scale(0.015625)"/>
       </defs>
       <use xlink:href="#DejaVuSans-30"/>
       <use x="63.623047" xlink:href="#DejaVuSans-2e"/>
       <use x="95.410156" xlink:href="#DejaVuSans-30"/>
      </g>
     </g>
    </g>
    <g id="ytick_2">
     <g id="line2d_19">
      <path clip-path="url(#p8403a2331f)" d="M 57.6 245.22202 
L 338.688 245.22202 
" style="fill:none;stroke:#b0b0b0;stroke-linecap:square;stroke-width:0.8;"/>
     </g>
     <g id="line2d_20">
      <g>
       <use style="stroke:#000000;stroke-width:0.8;" x="57.6" xlink:href="#m062ffed8ed" y="245.22202"/>
      </g>
     </g>
     <g id="text_7">
      <!-- 0.2 -->
      <g transform="translate(25.155 251.30077)scale(0.16 -0.16)">
       <use xlink:href="#DejaVuSans-30"/>
       <use x="63.623047" xlink:href="#DejaVuSans-2e"/>
       <use x="95.410156" xlink:href="#DejaVuSans-32"/>
      </g>
     </g>
    </g>
    <g id="ytick_3">
     <g id="line2d_21">
      <path clip-path="url(#p8403a2331f)" d="M 57.6 191.50004 
L 338.688 191.50004 
" style="fill:none;stroke:#b0b0b0;stroke-linecap:square;stroke-width:0.8;"/>
     </g>
     <g id="line2d_22">
      <g>
       <use style="stroke:#000000;stroke-width:0.8;" x="57.6" xlink:href="#m062ffed8ed" y="191.50004"/>
      </g>
     </g>
     <g id="text_8">
      <!-- 0.4 -->
      <g transform="translate(25.155 197.57879)scale(0.16 -0.16)">
       <use xlink:href="#DejaVuSans-30"/>
       <use x="63.623047" xlink:href="#DejaVuSans-2e"/>
       <use x="95.410156" xlink:href="#DejaVuSans-34"/>
      </g>
     </g>
    </g>
    <g id="ytick_4">
     <g id="line2d_23">
      <path clip-path="url(#p8403a2331f)" d="M 57.6 137.778059 
L 338.688 137.778059 
" style="fill:none;stroke:#b0b0b0;stroke-linecap:square;stroke-width:0.8;"/>
     </g>
     <g id="line2d_24">
      <g>
       <use style="stroke:#000000;stroke-width:0.8;" x="57.6" xlink:href="#m062ffed8ed" y="137.778059"/>
      </g>
     </g>
     <g id="text_9">
      <!-- 0.6 -->
      <g transform="translate(25.155 143.856809)scale(0.16 -0.16)">
       <use xlink:href="#DejaVuSans-30"/>
       <use x="63.623047" xlink:href="#DejaVuSans-2e"/>
       <use x="95.410156" xlink:href="#DejaVuSans-36"/>
      </g>
     </g>
    </g>
    <g id="ytick_5">
     <g id="line2d_25">
      <path clip-path="url(#p8403a2331f)" d="M 57.6 84.056079 
L 338.688 84.056079 
" style="fill:none;stroke:#b0b0b0;stroke-linecap:square;stroke-width:0.8;"/>
     </g>
     <g id="line2d_26">
      <g>
       <use style="stroke:#000000;stroke-width:0.8;" x="57.6" xlink:href="#m062ffed8ed" y="84.056079"/>
      </g>
     </g>
     <g id="text_10">
      <!-- 0.8 -->
      <g transform="translate(25.155 90.134829)scale(0.16 -0.16)">
       <defs>
        <path d="M 2034 2216 
Q 1584 2216 1326 1975 
Q 1069 1734 1069 1313 
Q 1069 891 1326 650 
Q 1584 409 2034 409 
Q 2484 409 2743 651 
Q 3003 894 3003 1313 
Q 3003 1734 2745 1975 
Q 2488 2216 2034 2216 
z
M 1403 2484 
Q 997 2584 770 2862 
Q 544 3141 544 3541 
Q 544 4100 942 4425 
Q 1341 4750 2034 4750 
Q 2731 4750 3128 4425 
Q 3525 4100 3525 3541 
Q 3525 3141 3298 2862 
Q 3072 2584 2669 2484 
Q 3125 2378 3379 2068 
Q 3634 1759 3634 1313 
Q 3634 634 3220 271 
Q 2806 -91 2034 -91 
Q 1263 -91 848 271 
Q 434 634 434 1313 
Q 434 1759 690 2068 
Q 947 2378 1403 2484 
z
M 1172 3481 
Q 1172 3119 1398 2916 
Q 1625 2713 2034 2713 
Q 2441 2713 2670 2916 
Q 2900 3119 2900 3481 
Q 2900 3844 2670 4047 
Q 2441 4250 2034 4250 
Q 1625 4250 1398 4047 
Q 1172 3844 1172 3481 
z
" id="DejaVuSans-38" transform="scale(0.015625)"/>
       </defs>
       <use xlink:href="#DejaVuSans-30"/>
       <use x="63.623047" xlink:href="#DejaVuSans-2e"/>
       <use x="95.410156" xlink:href="#DejaVuSans-38"/>
      </g>
     </g>
    </g>
    <g id="ytick_6">
     <g id="line2d_27">
      <path clip-path="url(#p8403a2331f)" d="M 57.6 30.334099 
L 338.688 30.334099 
" style="fill:none;stroke:#b0b0b0;stroke-linecap:square;stroke-width:0.8;"/>
     </g>
     <g id="line2d_28">
      <g>
       <use style="stroke:#000000;stroke-width:0.8;" x="57.6" xlink:href="#m062ffed8ed" y="30.334099"/>
      </g>
     </g>
     <g id="text_11">
      <!-- 1.0 -->
      <g transform="translate(25.155 36.412849)scale(0.16 -0.16)">
       <use xlink:href="#DejaVuSans-31"/>
       <use x="63.623047" xlink:href="#DejaVuSans-2e"/>
       <use x="95.410156" xlink:href="#DejaVuSans-30"/>
      </g>
     </g>
    </g>
    <g id="text_12">
     <!-- Fraction of function,target pairs -->
     <g transform="translate(17.619531 297.681)rotate(-90)scale(0.17 -0.17)">
      <defs>
       <path d="M 628 4666 
L 3309 4666 
L 3309 4134 
L 1259 4134 
L 1259 2759 
L 3109 2759 
L 3109 2228 
L 1259 2228 
L 1259 0 
L 628 0 
L 628 4666 
z
" id="DejaVuSans-46" transform="scale(0.015625)"/>
       <path d="M 2631 2963 
Q 2534 3019 2420 3045 
Q 2306 3072 2169 3072 
Q 1681 3072 1420 2755 
Q 1159 2438 1159 1844 
L 1159 0 
L 581 0 
L 581 3500 
L 1159 3500 
L 1159 2956 
Q 1341 3275 1631 3429 
Q 1922 3584 2338 3584 
Q 2397 3584 2469 3576 
Q 2541 3569 2628 3553 
L 2631 2963 
z
" id="DejaVuSans-72" transform="scale(0.015625)"/>
       <path d="M 3122 3366 
L 3122 2828 
Q 2878 2963 2633 3030 
Q 2388 3097 2138 3097 
Q 1578 3097 1268 2742 
Q 959 2388 959 1747 
Q 959 1106 1268 751 
Q 1578 397 2138 397 
Q 2388 397 2633 464 
Q 2878 531 3122 666 
L 3122 134 
Q 2881 22 2623 -34 
Q 2366 -91 2075 -91 
Q 1284 -91 818 406 
Q 353 903 353 1747 
Q 353 2603 823 3093 
Q 1294 3584 2113 3584 
Q 2378 3584 2631 3529 
Q 2884 3475 3122 3366 
z
" id="DejaVuSans-63" transform="scale(0.015625)"/>
       <path d="M 1172 4494 
L 1172 3500 
L 2356 3500 
L 2356 3053 
L 1172 3053 
L 1172 1153 
Q 1172 725 1289 603 
Q 1406 481 1766 481 
L 2356 481 
L 2356 0 
L 1766 0 
Q 1100 0 847 248 
Q 594 497 594 1153 
L 594 3053 
L 172 3053 
L 172 3500 
L 594 3500 
L 594 4494 
L 1172 4494 
z
" id="DejaVuSans-74" transform="scale(0.015625)"/>
       <path d="M 544 1381 
L 544 3500 
L 1119 3500 
L 1119 1403 
Q 1119 906 1312 657 
Q 1506 409 1894 409 
Q 2359 409 2629 706 
Q 2900 1003 2900 1516 
L 2900 3500 
L 3475 3500 
L 3475 0 
L 2900 0 
L 2900 538 
Q 2691 219 2414 64 
Q 2138 -91 1772 -91 
Q 1169 -91 856 284 
Q 544 659 544 1381 
z
M 1991 3584 
L 1991 3584 
z
" id="DejaVuSans-75" transform="scale(0.015625)"/>
       <path d="M 750 794 
L 1409 794 
L 1409 256 
L 897 -744 
L 494 -744 
L 750 256 
L 750 794 
z
" id="DejaVuSans-2c" transform="scale(0.015625)"/>
       <path d="M 1159 525 
L 1159 -1331 
L 581 -1331 
L 581 3500 
L 1159 3500 
L 1159 2969 
Q 1341 3281 1617 3432 
Q 1894 3584 2278 3584 
Q 2916 3584 3314 3078 
Q 3713 2572 3713 1747 
Q 3713 922 3314 415 
Q 2916 -91 2278 -91 
Q 1894 -91 1617 61 
Q 1341 213 1159 525 
z
M 3116 1747 
Q 3116 2381 2855 2742 
Q 2594 3103 2138 3103 
Q 1681 3103 1420 2742 
Q 1159 2381 1159 1747 
Q 1159 1113 1420 752 
Q 1681 391 2138 391 
Q 2594 391 2855 752 
Q 3116 1113 3116 1747 
z
" id="DejaVuSans-70" transform="scale(0.015625)"/>
      </defs>
      <use xlink:href="#DejaVuSans-46"/>
      <use x="50.269531" xlink:href="#DejaVuSans-72"/>
      <use x="91.382812" xlink:href="#DejaVuSans-61"/>
      <use x="152.662109" xlink:href="#DejaVuSans-63"/>
      <use x="207.642578" xlink:href="#DejaVuSans-74"/>
      <use x="246.851562" xlink:href="#DejaVuSans-69"/>
      <use x="274.634766" xlink:href="#DejaVuSans-6f"/>
      <use x="335.816406" xlink:href="#DejaVuSans-6e"/>
      <use x="399.195312" xlink:href="#DejaVuSans-20"/>
      <use x="430.982422" xlink:href="#DejaVuSans-6f"/>
      <use x="492.164062" xlink:href="#DejaVuSans-66"/>
      <use x="527.369141" xlink:href="#DejaVuSans-20"/>
      <use x="559.15625" xlink:href="#DejaVuSans-66"/>
      <use x="594.361328" xlink:href="#DejaVuSans-75"/>
      <use x="657.740234" xlink:href="#DejaVuSans-6e"/>
      <use x="721.119141" xlink:href="#DejaVuSans-63"/>
      <use x="776.099609" xlink:href="#DejaVuSans-74"/>
      <use x="815.308594" xlink:href="#DejaVuSans-69"/>
      <use x="843.091797" xlink:href="#DejaVuSans-6f"/>
      <use x="904.273438" xlink:href="#DejaVuSans-6e"/>
      <use x="967.652344" xlink:href="#DejaVuSans-2c"/>
      <use x="999.439453" xlink:href="#DejaVuSans-74"/>
      <use x="1038.648438" xlink:href="#DejaVuSans-61"/>
      <use x="1099.927734" xlink:href="#DejaVuSans-72"/>
      <use x="1139.291016" xlink:href="#DejaVuSans-67"/>
      <use x="1202.767578" xlink:href="#DejaVuSans-65"/>
      <use x="1264.291016" xlink:href="#DejaVuSans-74"/>
      <use x="1303.5" xlink:href="#DejaVuSans-20"/>
      <use x="1335.287109" xlink:href="#DejaVuSans-70"/>
      <use x="1398.763672" xlink:href="#DejaVuSans-61"/>
      <use x="1460.042969" xlink:href="#DejaVuSans-69"/>
      <use x="1487.826172" xlink:href="#DejaVuSans-72"/>
      <use x="1528.939453" xlink:href="#DejaVuSans-73"/>
     </g>
    </g>
   </g>
   <g id="line2d_29">
    <defs>
     <path d="M 0 1.5 
C 0.397805 1.5 0.77937 1.341951 1.06066 1.06066 
C 1.341951 0.77937 1.5 0.397805 1.5 0 
C 1.5 -0.397805 1.341951 -0.77937 1.06066 -1.06066 
C 0.77937 -1.341951 0.397805 -1.5 0 -1.5 
C -0.397805 -1.5 -0.77937 -1.341951 -1.06066 -1.06066 
C -1.341951 -0.77937 -1.5 -0.397805 -1.5 0 
C -1.5 0.397805 -1.341951 0.77937 -1.06066 1.06066 
C -0.77937 1.341951 -0.397805 1.5 0 1.5 
z
" id="m4c41fcaec5" style="stroke:#000080;"/>
    </defs>
    <g>
     <use style="fill:#000080;stroke:#000080;" x="154.654594" xlink:href="#m4c41fcaec5" y="30.334099"/>
     <use style="fill:#000080;stroke:#000080;" x="154.654594" xlink:href="#m4c41fcaec5" y="30.334099"/>
    </g>
   </g>
   <g id="line2d_30">
    <path d="M 29.53256 298.944 
L 29.53256 294.203825 
L 41.620548 294.203825 
L 41.620548 291.570395 
L 48.691568 291.570395 
L 48.691568 290.517023 
L 57.6 290.517023 
L 57.6 289.990337 
L 67.850577 289.990337 
L 67.850577 287.356906 
L 71.35013 287.356906 
L 71.35013 286.303534 
L 72.867545 286.303534 
L 72.867545 282.616732 
L 75.555822 282.616732 
L 75.555822 281.563359 
L 76.759008 281.563359 
L 76.759008 281.036673 
L 78.941764 281.036673 
L 78.941764 280.509987 
L 80.881459 280.509987 
L 80.881459 279.983301 
L 81.775977 279.983301 
L 81.775977 279.456615 
L 82.626842 279.456615 
L 82.626842 278.929929 
L 84.955534 278.929929 
L 84.955534 278.403243 
L 87.009585 278.403243 
L 87.009585 277.876557 
L 87.643811 277.876557 
L 87.643811 277.349871 
L 88.846997 277.349871 
L 88.846997 275.769812 
L 89.418828 275.769812 
L 89.418828 274.189754 
L 90.509138 274.189754 
L 90.509138 273.663068 
L 91.029752 273.663068 
L 91.029752 272.609696 
L 92.026554 272.609696 
L 92.026554 272.08301 
L 95.526106 272.08301 
L 95.526106 271.029638 
L 100.343767 271.029638 
L 100.343767 269.976266 
L 102.060491 269.976266 
L 102.060491 269.449579 
L 102.597126 269.449579 
L 102.597126 268.922893 
L 103.372333 268.922893 
L 103.372333 268.396207 
L 104.592361 268.396207 
L 104.592361 267.342835 
L 104.826449 267.342835 
L 104.826449 266.816149 
L 105.057436 266.816149 
L 105.057436 261.022602 
L 105.732589 261.022602 
L 105.732589 260.495916 
L 106.802819 260.495916 
L 106.802819 259.96923 
L 107.811151 259.96923 
L 107.811151 259.442544 
L 108.389302 259.442544 
L 108.389302 258.915858 
L 110.188761 258.915858 
L 110.188761 257.3358 
L 110.358901 257.3358 
L 110.358901 256.809114 
L 111.663381 256.809114 
L 111.663381 255.755741 
L 112.128456 255.755741 
L 112.128456 254.175683 
L 112.58145 254.175683 
L 112.58145 253.648997 
L 112.877038 253.648997 
L 112.877038 252.068939 
L 113.022974 252.068939 
L 113.022974 251.542253 
L 113.167699 251.542253 
L 113.167699 247.328764 
L 113.594805 247.328764 
L 113.594805 244.168648 
L 114.0117 244.168648 
L 114.0117 243.641962 
L 114.148479 243.641962 
L 114.148479 242.061903 
L 116.323218 242.061903 
L 116.323218 241.535217 
L 116.443076 241.535217 
L 116.443076 236.268356 
L 116.562116 236.268356 
L 116.562116 235.74167 
L 117.373392 235.74167 
L 117.373392 235.214984 
L 117.709852 235.214984 
L 117.820578 231.001496 
L 118.039942 231.001496 
L 118.039942 229.948123 
L 119.702083 229.948123 
L 119.702083 229.421437 
L 119.89914 229.421437 
L 119.89914 227.314693 
L 120.286695 227.314693 
L 120.286695 226.261321 
L 121.400219 226.261321 
L 121.489881 222.574518 
L 121.579085 222.574518 
L 121.579085 220.467774 
L 122.104932 220.467774 
L 122.104932 219.941088 
L 122.276749 219.941088 
L 122.276749 216.780971 
L 122.44689 216.780971 
L 122.44689 216.254285 
L 122.782271 216.254285 
L 122.865118 213.094169 
L 123.354102 213.094169 
L 123.354102 210.460738 
L 123.672636 210.460738 
L 123.751369 208.88068 
L 123.829748 208.88068 
L 123.829748 207.300622 
L 123.985457 207.300622 
L 124.062793 202.560447 
L 124.139788 202.560447 
L 124.216444 201.507075 
L 124.817858 201.507075 
L 124.891598 198.873645 
L 124.965026 198.873645 
L 124.965026 193.080098 
L 125.110962 193.080098 
L 125.183475 188.339923 
L 126.168212 188.339923 
L 126.236468 183.599748 
L 126.439646 183.599748 
L 126.439646 179.38626 
L 126.573795 179.38626 
L 126.640485 177.279515 
L 126.839037 177.279515 
L 126.839037 175.172771 
L 126.97016 175.172771 
L 126.97016 174.646085 
L 127.100304 174.646085 
L 127.165014 170.432596 
L 127.861412 170.432596 
L 127.861412 166.745794 
L 128.411207 166.745794 
L 128.471239 160.952247 
L 128.709321 160.952247 
L 128.709321 159.898875 
L 129.06046 159.898875 
L 129.06046 159.372189 
L 129.963666 159.372189 
L 129.963666 157.265444 
L 130.45189 157.265444 
L 130.505303 156.212072 
L 130.61164 156.212072 
L 130.61164 155.685386 
L 130.76994 155.685386 
L 130.76994 153.578642 
L 130.978796 153.578642 
L 131.082294 144.624978 
L 131.236397 144.624978 
L 131.287464 140.41149 
L 131.590764 140.41149 
L 131.590764 139.884804 
L 131.839545 139.884804 
L 131.839545 137.778059 
L 132.036046 137.778059 
L 132.036046 136.724687 
L 132.422528 136.724687 
L 132.517825 135.144629 
L 132.659801 135.144629 
L 132.659801 131.984513 
L 133.032848 131.984513 
L 133.078923 128.29771 
L 133.398082 128.29771 
L 133.398082 127.244338 
L 133.667073 127.244338 
L 133.667073 125.66428 
L 134.062938 125.66428 
L 134.062938 125.137593 
L 134.534878 125.137593 
L 134.534878 122.504163 
L 135.956794 122.504163 
L 136.034648 116.710616 
L 136.227776 116.710616 
L 136.227776 116.18393 
L 136.380754 116.18393 
L 136.418789 110.917069 
L 136.494612 110.917069 
L 136.494612 110.390383 
L 137.451437 110.390383 
L 137.451437 109.863697 
L 137.84096 109.863697 
L 137.84096 105.650209 
L 138.153314 105.650209 
L 138.153314 101.963406 
L 138.358484 101.963406 
L 138.358484 101.43672 
L 138.728473 101.43672 
L 138.728473 100.910034 
L 138.99271 100.910034 
L 138.99271 97.223231 
L 139.188293 97.223231 
L 139.188293 96.696545 
L 139.445704 96.696545 
L 139.541262 94.589801 
L 140.469102 94.589801 
L 140.559227 88.269568 
L 140.826843 88.269568 
L 140.856326 84.056079 
L 141.002999 84.056079 
L 141.002999 83.529393 
L 141.119455 83.529393 
L 141.148448 81.949335 
L 141.634094 81.949335 
L 141.634094 80.895963 
L 142.106582 80.895963 
L 142.106582 79.842591 
L 142.243147 79.842591 
L 142.243147 78.789218 
L 142.539878 78.789218 
L 142.539878 77.735846 
L 142.726112 77.735846 
L 142.726112 76.155788 
L 142.857929 76.155788 
L 142.857929 75.629102 
L 143.324386 75.629102 
L 143.375453 73.522358 
L 143.678752 73.522358 
L 143.678752 70.888927 
L 144.510517 70.888927 
L 144.510517 68.255497 
L 144.841802 68.255497 
L 144.841802 67.202125 
L 145.212864 67.202125 
L 145.304409 61.935264 
L 145.732804 61.935264 
L 145.777292 59.301833 
L 146.06373 59.301833 
L 146.06373 58.775147 
L 146.749392 58.775147 
L 146.749392 58.248461 
L 146.875005 58.248461 
L 146.875005 57.195089 
L 147.287301 57.195089 
L 147.287301 56.668403 
L 147.530079 56.668403 
L 147.530079 56.141717 
L 147.907696 56.141717 
L 147.907696 55.615031 
L 148.695721 55.615031 
L 148.733265 54.034973 
L 149.232356 54.034973 
L 149.232356 53.508287 
L 149.395596 53.508287 
L 149.395596 51.401542 
L 150.327083 51.401542 
L 150.327083 50.874856 
L 151.227591 50.874856 
L 151.227591 49.821484 
L 151.708484 49.821484 
L 151.771612 47.188054 
L 152.511852 47.188054 
L 152.511852 46.661368 
L 152.632227 46.661368 
L 152.632227 45.607995 
L 154.654594 45.607995 
L 154.654594 30.334099 
L 338.688 30.334099 
L 338.688 30.334099 
" style="fill:none;stroke:#000080;stroke-linecap:square;stroke-width:1.5;"/>
   </g>
   <g id="line2d_31">
    <defs>
     <path d="M 0 6 
C 1.591219 6 3.117479 5.367802 4.242641 4.242641 
C 5.367802 3.117479 6 1.591219 6 0 
C 6 -1.591219 5.367802 -3.117479 4.242641 -4.242641 
C 3.117479 -5.367802 1.591219 -6 0 -6 
C -1.591219 -6 -3.117479 -5.367802 -4.242641 -4.242641 
C -5.367802 -3.117479 -6 -1.591219 -6 0 
C -6 1.591219 -5.367802 3.117479 -4.242641 4.242641 
C -3.117479 5.367802 -1.591219 6 0 6 
z
" id="m4c7b36625d" style="stroke:#000080;stroke-width:1.5;"/>
    </defs>
    <g>
     <use style="fill-opacity:0;stroke:#000080;stroke-width:1.5;" x="105.732589" xlink:href="#m4c7b36625d" y="261.022602"/>
     <use style="fill-opacity:0;stroke:#000080;stroke-width:1.5;" x="133.398082" xlink:href="#m4c7b36625d" y="128.29771"/>
     <use style="fill-opacity:0;stroke:#000080;stroke-width:1.5;" x="152.632227" xlink:href="#m4c7b36625d" y="45.607995"/>
     <use style="fill-opacity:0;stroke:#000080;stroke-width:1.5;" x="154.654594" xlink:href="#m4c7b36625d" y="30.334099"/>
     <use style="fill-opacity:0;stroke:#000080;stroke-width:1.5;" x="154.654594" xlink:href="#m4c7b36625d" y="30.334099"/>
     <use style="fill-opacity:0;stroke:#000080;stroke-width:1.5;" x="338.688" xlink:href="#m4c7b36625d" y="30.334099"/>
    </g>
   </g>
   <g id="line2d_32">
    <path style="fill:none;stroke:#000080;stroke-linecap:square;stroke-width:1.5;"/>
    <g/>
   </g>
   <g id="line2d_33">
    <defs>
     <path d="M 0 1.5 
C 0.397805 1.5 0.77937 1.341951 1.06066 1.06066 
C 1.341951 0.77937 1.5 0.397805 1.5 0 
C 1.5 -0.397805 1.341951 -0.77937 1.06066 -1.06066 
C 0.77937 -1.341951 0.397805 -1.5 0 -1.5 
C -0.397805 -1.5 -0.77937 -1.341951 -1.06066 -1.06066 
C -1.341951 -0.77937 -1.5 -0.397805 -1.5 0 
C -1.5 0.397805 -1.341951 0.77937 -1.06066 1.06066 
C -0.77937 1.341951 -0.397805 1.5 0 1.5 
z
" id="m9c528ee75d" style="stroke:#ff00ff;"/>
    </defs>
    <g>
     <use style="fill:#ff00ff;stroke:#ff00ff;" x="184.570125" xlink:href="#m9c528ee75d" y="30.334099"/>
     <use style="fill:#ff00ff;stroke:#ff00ff;" x="184.570125" xlink:href="#m9c528ee75d" y="30.334099"/>
    </g>
   </g>
   <g id="line2d_34">
    <path d="M 29.53256 298.944 
L 29.53256 294.203825 
L 41.620548 294.203825 
L 41.620548 293.677139 
L 48.691568 293.677139 
L 48.691568 292.097081 
L 57.6 292.097081 
L 57.6 287.356906 
L 67.850577 287.356906 
L 67.850577 285.250162 
L 72.867545 285.250162 
L 72.867545 284.19679 
L 76.759008 284.19679 
L 76.759008 283.670104 
L 77.884514 283.670104 
L 77.884514 283.143418 
L 78.941764 283.143418 
L 78.941764 282.090045 
L 89.418828 282.090045 
L 89.418828 281.563359 
L 89.972502 281.563359 
L 89.972502 281.036673 
L 92.504372 281.036673 
L 92.504372 279.456615 
L 103.117741 279.456615 
L 103.117741 278.929929 
L 104.114542 278.929929 
L 104.114542 277.876557 
L 106.168594 277.876557 
L 106.168594 277.349871 
L 110.188761 277.349871 
L 110.188761 276.296499 
L 114.552496 276.296499 
L 114.552496 275.769812 
L 115.711251 275.769812 
L 115.711251 275.243126 
L 118.470564 275.243126 
L 118.470564 274.71644 
L 123.273551 274.71644 
L 123.273551 274.189754 
L 124.062793 274.189754 
L 124.139788 272.609696 
L 124.216444 272.609696 
L 124.216444 272.08301 
L 125.255688 272.08301 
L 125.255688 271.029638 
L 125.752972 271.029638 
L 125.752972 269.976266 
L 130.073348 269.976266 
L 130.073348 269.449579 
L 132.036046 269.449579 
L 132.036046 268.922893 
L 132.70687 268.922893 
L 132.70687 267.869521 
L 135.280614 267.869521 
L 135.280614 266.816149 
L 135.641855 266.816149 
L 135.641855 266.289463 
L 135.917737 266.289463 
L 135.995765 265.236091 
L 136.418789 265.236091 
L 136.418789 264.709405 
L 137.664982 264.709405 
L 137.664982 261.549288 
L 137.84096 261.549288 
L 137.84096 261.022602 
L 138.049816 261.022602 
L 138.049816 260.495916 
L 139.349619 260.495916 
L 139.381706 258.915858 
L 140.378508 258.915858 
L 140.378508 258.389172 
L 140.767727 258.389172 
L 140.767727 257.862486 
L 142.486301 257.862486 
L 142.486301 257.3358 
L 142.962669 257.3358 
L 143.040814 255.229055 
L 143.170282 255.229055 
L 143.170282 253.122311 
L 143.42637 253.122311 
L 143.42637 252.595625 
L 143.87806 252.595625 
L 143.87806 251.015567 
L 144.510517 251.015567 
L 144.510517 249.435508 
L 145.120836 249.435508 
L 145.189903 246.275392 
L 145.304409 246.275392 
L 145.304409 245.748706 
L 147.144103 245.748706 
L 147.144103 244.695334 
L 148.142046 244.695334 
L 148.142046 244.168648 
L 148.993835 244.168648 
L 148.993835 243.641962 
L 149.503579 243.641962 
L 149.610898 242.061903 
L 149.735275 242.061903 
L 149.788308 239.955159 
L 149.893895 239.955159 
L 149.928949 232.581554 
L 150.37835 232.581554 
L 150.480434 228.894751 
L 150.998554 228.894751 
L 150.998554 227.841379 
L 151.501723 227.841379 
L 151.501723 227.314693 
L 151.740076 227.314693 
L 151.740076 226.788007 
L 152.253262 226.788007 
L 152.283884 224.681263 
L 152.481628 224.681263 
L 152.542024 223.101204 
L 152.796398 223.101204 
L 152.900071 221.521146 
L 153.047115 221.521146 
L 153.047115 220.99446 
L 153.279836 220.99446 
L 153.279836 219.941088 
L 153.651507 219.941088 
L 153.707991 215.200913 
L 153.959927 215.200913 
L 153.973817 213.620855 
L 154.208275 213.620855 
L 154.317527 209.407366 
L 154.520548 209.407366 
L 154.520548 208.88068 
L 154.654594 208.88068 
L 154.721232 206.773936 
L 155.206599 206.773936 
L 155.206599 205.720564 
L 155.841748 205.720564 
L 155.841748 205.193878 
L 156.040206 205.193878 
L 156.126326 200.453703 
L 156.370066 200.453703 
L 156.370066 199.927017 
L 156.49067 199.927017 
L 156.49067 198.873645 
L 156.764934 198.873645 
L 156.764934 198.346959 
L 157.058236 198.346959 
L 157.058236 197.820273 
L 157.220355 197.820273 
L 157.220355 196.240214 
L 157.472107 196.240214 
L 157.551454 189.919981 
L 157.84305 189.919981 
L 157.84305 188.866609 
L 158.293192 188.866609 
L 158.293192 186.759865 
L 158.689678 186.759865 
L 158.689678 184.126434 
L 159.314063 184.126434 
L 159.375289 180.439632 
L 159.658204 180.439632 
L 159.658204 179.912946 
L 160.123015 179.912946 
L 160.123015 178.859574 
L 161.365843 178.859574 
L 161.365843 178.332888 
L 161.564634 178.332888 
L 161.672119 172.539341 
L 162.320689 172.539341 
L 162.320689 170.959282 
L 162.737246 170.959282 
L 162.737246 170.432596 
L 163.094774 170.432596 
L 163.135875 165.165736 
L 163.685444 165.165736 
L 163.685444 164.112363 
L 163.914652 164.112363 
L 164.008622 158.318817 
L 164.765143 158.318817 
L 164.765143 157.265444 
L 165.576079 157.265444 
L 165.576079 155.1587 
L 165.985272 155.1587 
L 165.985272 154.632014 
L 166.24138 154.632014 
L 166.24138 149.365153 
L 166.822518 149.365153 
L 166.822518 148.311781 
L 167.119055 148.311781 
L 167.119055 146.205037 
L 167.51953 146.205037 
L 167.51953 145.678351 
L 168.409578 145.678351 
L 168.409578 144.098292 
L 168.668567 144.098292 
L 168.668567 143.571606 
L 168.841088 143.571606 
L 168.882476 142.518234 
L 169.111287 142.518234 
L 169.111287 137.251373 
L 169.746554 137.251373 
L 169.746554 136.724687 
L 169.942157 136.724687 
L 169.969922 134.091257 
L 170.069512 134.091257 
L 170.069512 131.984513 
L 170.288808 131.984513 
L 170.381181 128.824396 
L 170.429886 128.824396 
L 170.429886 127.771024 
L 171.009212 127.771024 
L 171.009212 121.450791 
L 171.826189 121.450791 
L 171.920711 119.870733 
L 171.940545 119.870733 
L 171.940545 119.344047 
L 172.05908 119.344047 
L 172.122951 113.5505 
L 172.249996 113.5505 
L 172.254864 111.443755 
L 172.501342 111.443755 
L 172.530112 110.390383 
L 172.744386 110.390383 
L 172.763306 108.283639 
L 172.866999 108.283639 
L 172.866999 107.756953 
L 173.183662 107.756953 
L 173.183662 106.703581 
L 173.49921 106.703581 
L 173.49921 105.123522 
L 173.755642 105.123522 
L 173.755642 104.07015 
L 173.990742 104.07015 
L 173.990742 103.016778 
L 174.170462 103.016778 
L 174.18354 101.963406 
L 174.400072 101.963406 
L 174.400072 101.43672 
L 174.571383 101.43672 
L 174.626698 98.276603 
L 175.042289 98.276603 
L 175.125057 94.589801 
L 175.419813 94.589801 
L 175.508892 91.95637 
L 175.709669 91.95637 
L 175.761495 90.376312 
L 175.912107 90.376312 
L 175.912107 88.796254 
L 176.092705 88.796254 
L 176.197843 86.68951 
L 176.440729 86.68951 
L 176.520945 81.949335 
L 176.785697 81.949335 
L 176.883019 77.735846 
L 177.04649 77.735846 
L 177.04649 76.682474 
L 177.237728 76.682474 
L 177.299796 71.942299 
L 177.567431 71.942299 
L 177.567431 69.835555 
L 177.728195 69.835555 
L 177.823948 65.09538 
L 177.845155 65.09538 
L 177.933241 62.46195 
L 178.132429 62.46195 
L 178.132429 61.935264 
L 178.466255 61.935264 
L 178.486696 59.82852 
L 178.699888 59.82852 
L 178.767027 57.721775 
L 178.950337 57.721775 
L 178.950337 57.195089 
L 179.164521 57.195089 
L 179.164521 56.668403 
L 179.346962 56.668403 
L 179.346962 55.615031 
L 179.591547 55.615031 
L 179.693513 52.454914 
L 179.782247 52.454914 
L 179.879964 44.554623 
L 179.92705 44.554623 
L 180.020844 42.447879 
L 180.188411 42.447879 
L 180.197673 39.814448 
L 180.372728 39.814448 
L 180.372728 38.23439 
L 180.51273 38.23439 
L 180.603434 36.654332 
L 180.881654 36.654332 
L 180.902417 34.020902 
L 181.170108 34.020902 
L 181.170108 32.967529 
L 182.676574 32.967529 
L 182.676574 32.440843 
L 183.356641 32.440843 
L 183.356641 31.387471 
L 184.06319 31.387471 
L 184.06319 30.860785 
L 184.570125 30.860785 
L 184.570125 30.334099 
L 338.688 30.334099 
L 338.688 30.334099 
" style="fill:none;stroke:#ff00ff;stroke-linecap:square;stroke-width:1.5;"/>
   </g>
   <g id="line2d_35">
    <defs>
     <path d="M 0 8.485281 
L 5.091169 0 
L 0 -8.485281 
L -5.091169 0 
z
" id="m8654fbb7b5" style="stroke:#ff00ff;stroke-linejoin:miter;stroke-width:1.5;"/>
    </defs>
    <g>
     <use style="fill-opacity:0;stroke:#ff00ff;stroke-linejoin:miter;stroke-width:1.5;" x="132.70687" xlink:href="#m8654fbb7b5" y="268.922893"/>
     <use style="fill-opacity:0;stroke:#ff00ff;stroke-linejoin:miter;stroke-width:1.5;" x="167.119055" xlink:href="#m8654fbb7b5" y="148.311781"/>
     <use style="fill-opacity:0;stroke:#ff00ff;stroke-linejoin:miter;stroke-width:1.5;" x="184.570125" xlink:href="#m8654fbb7b5" y="30.860785"/>
     <use style="fill-opacity:0;stroke:#ff00ff;stroke-linejoin:miter;stroke-width:1.5;" x="184.570125" xlink:href="#m8654fbb7b5" y="30.334099"/>
     <use style="fill-opacity:0;stroke:#ff00ff;stroke-linejoin:miter;stroke-width:1.5;" x="184.570125" xlink:href="#m8654fbb7b5" y="30.334099"/>
     <use style="fill-opacity:0;stroke:#ff00ff;stroke-linejoin:miter;stroke-width:1.5;" x="338.688" xlink:href="#m8654fbb7b5" y="30.334099"/>
    </g>
   </g>
   <g id="line2d_36">
    <path style="fill:none;stroke:#ff00ff;stroke-linecap:square;stroke-width:1.5;"/>
    <g/>
   </g>
   <g id="line2d_37">
    <defs>
     <path d="M 0 1.5 
C 0.397805 1.5 0.77937 1.341951 1.06066 1.06066 
C 1.341951 0.77937 1.5 0.397805 1.5 0 
C 1.5 -0.397805 1.341951 -0.77937 1.06066 -1.06066 
C 0.77937 -1.341951 0.397805 -1.5 0 -1.5 
C -0.397805 -1.5 -0.77937 -1.341951 -1.06066 -1.06066 
C -1.341951 -0.77937 -1.5 -0.397805 -1.5 0 
C -1.5 0.397805 -1.341951 0.77937 -1.06066 1.06066 
C -0.77937 1.341951 -0.397805 1.5 0 1.5 
z
" id="m3450f1b690" style="stroke:#ff7500;"/>
    </defs>
    <g>
     <use style="fill:#ff7500;stroke:#ff7500;" x="303.273276" xlink:href="#m3450f1b690" y="209.407366"/>
     <use style="fill:#ff7500;stroke:#ff7500;" x="303.273276" xlink:href="#m3450f1b690" y="209.407366"/>
    </g>
   </g>
   <g id="line2d_38">
    <path d="M 29.53256 298.944 
L 29.53256 294.730511 
L 41.620548 294.730511 
L 41.620548 291.570395 
L 48.691568 291.570395 
L 48.691568 289.463651 
L 57.6 289.463651 
L 57.6 288.936964 
L 60.779557 288.936964 
L 60.779557 287.356906 
L 63.467834 287.356906 
L 63.467834 286.83022 
L 69.687988 286.83022 
L 69.687988 286.303534 
L 71.35013 286.303534 
L 71.35013 284.723476 
L 74.263433 284.723476 
L 74.263433 283.143418 
L 82.626842 283.143418 
L 82.626842 282.616732 
L 83.438118 282.616732 
L 83.438118 281.563359 
L 87.009585 281.563359 
L 87.009585 281.036673 
L 92.026554 281.036673 
L 92.026554 280.509987 
L 95.125186 280.509987 
L 95.125186 279.983301 
L 108.198707 279.983301 
L 108.198707 279.456615 
L 113.594805 279.456615 
L 113.594805 278.929929 
L 114.0117 278.929929 
L 114.0117 278.403243 
L 125.892487 278.403243 
L 125.892487 277.876557 
L 126.372183 277.876557 
L 126.372183 277.349871 
L 130.290663 277.349871 
L 130.290663 276.823185 
L 131.338382 276.823185 
L 131.338382 276.296499 
L 133.216421 276.296499 
L 133.216421 275.769812 
L 134.492498 275.769812 
L 134.492498 275.243126 
L 137.089613 275.243126 
L 137.089613 274.71644 
L 137.70032 274.71644 
L 137.70032 274.189754 
L 142.646541 274.189754 
L 142.646541 273.663068 
L 148.752007 273.663068 
L 148.752007 273.136382 
L 149.268764 273.136382 
L 149.268764 272.08301 
L 151.99078 272.08301 
L 151.99078 271.556324 
L 154.654594 271.556324 
L 154.654594 271.029638 
L 154.972161 271.029638 
L 154.972161 270.502952 
L 156.622378 270.502952 
L 156.622378 269.976266 
L 159.118749 269.976266 
L 159.118749 269.449579 
L 161.06334 269.449579 
L 161.06334 268.922893 
L 162.846111 268.922893 
L 162.846111 268.396207 
L 164.233648 268.396207 
L 164.233648 267.869521 
L 173.630147 267.869521 
L 173.630147 267.342835 
L 173.844732 267.342835 
L 173.844732 266.816149 
L 177.513511 266.816149 
L 177.513511 266.289463 
L 178.170609 266.289463 
L 178.170609 265.762777 
L 179.14486 265.762777 
L 179.14486 265.236091 
L 182.590679 265.236091 
L 182.590679 263.656033 
L 186.012514 263.656033 
L 186.012514 263.129347 
L 189.58349 263.129347 
L 189.58349 262.60266 
L 190.640951 262.60266 
L 190.640951 262.075974 
L 192.385689 262.075974 
L 192.385689 261.549288 
L 193.171767 261.549288 
L 193.171767 257.3358 
L 193.362872 257.3358 
L 193.362872 256.809114 
L 196.236287 256.809114 
L 196.236287 256.282427 
L 200.912809 256.282427 
L 200.912809 255.755741 
L 201.173401 255.755741 
L 201.173401 255.229055 
L 208.503004 255.229055 
L 208.503004 254.702369 
L 209.904792 254.702369 
L 209.904792 254.175683 
L 210.029653 254.175683 
L 210.029653 253.648997 
L 221.941852 253.648997 
L 221.941852 251.015567 
L 223.790785 251.015567 
L 223.790785 250.488881 
L 232.268781 250.488881 
L 232.268781 248.382136 
L 238.710915 248.382136 
L 238.710915 247.328764 
L 243.404726 247.328764 
L 243.404726 245.22202 
L 246.73549 245.22202 
L 246.73549 244.695334 
L 247.09938 244.695334 
L 247.09938 244.168648 
L 250.146487 244.168648 
L 250.146487 241.535217 
L 252.739537 241.535217 
L 252.739537 240.481845 
L 254.765975 240.481845 
L 254.765975 239.955159 
L 254.996465 239.955159 
L 254.996465 237.848415 
L 256.994496 237.848415 
L 256.994496 236.795043 
L 258.786961 236.795043 
L 258.786961 234.688298 
L 260.412241 234.688298 
L 260.412241 231.528182 
L 263.268683 231.528182 
L 263.268683 229.948123 
L 264.538683 229.948123 
L 264.538683 229.421437 
L 265.722442 229.421437 
L 265.722442 228.894751 
L 266.830931 228.894751 
L 266.830931 227.841379 
L 267.873152 227.841379 
L 267.873152 224.681263 
L 268.856584 224.681263 
L 268.856584 224.154577 
L 269.787507 224.154577 
L 269.787507 222.574518 
L 270.671244 222.574518 
L 270.671244 221.521146 
L 272.314748 221.521146 
L 272.314748 220.99446 
L 273.000485 220.99446 
L 273.000485 220.467774 
L 273.816618 220.467774 
L 273.816618 219.941088 
L 274.521679 219.941088 
L 274.521679 219.414402 
L 275.19934 219.414402 
L 275.19934 218.36103 
L 277.08734 218.36103 
L 277.08734 217.834344 
L 279.3235 217.834344 
L 279.3235 216.254285 
L 279.840444 216.254285 
L 279.840444 215.727599 
L 281.305241 215.727599 
L 281.305241 215.200913 
L 281.767386 215.200913 
L 281.767386 214.147541 
L 283.502438 214.147541 
L 283.502438 213.094169 
L 285.453526 213.094169 
L 285.453526 212.567483 
L 286.176684 212.567483 
L 286.176684 212.040797 
L 289.401178 212.040797 
L 289.401178 211.514111 
L 289.980246 211.514111 
L 289.980246 210.987425 
L 290.814318 210.987425 
L 290.814318 210.460738 
L 291.610312 210.460738 
L 291.610312 209.934052 
L 303.273276 209.934052 
L 303.273276 209.407366 
L 338.688 209.407366 
L 338.688 209.407366 
" style="fill:none;stroke:#ff7500;stroke-linecap:square;stroke-width:1.5;"/>
   </g>
   <g id="line2d_39">
    <defs>
     <path d="M 0 -6 
L -1.347084 -1.854102 
L -5.706339 -1.854102 
L -2.179628 0.708204 
L -3.526712 4.854102 
L -0 2.291796 
L 3.526712 4.854102 
L 2.179628 0.708204 
L 5.706339 -1.854102 
L 1.347084 -1.854102 
z
" id="m646fa99ab5" style="stroke:#ff7500;stroke-linejoin:bevel;stroke-width:1.5;"/>
    </defs>
    <g>
     <use style="fill-opacity:0;stroke:#ff7500;stroke-linejoin:bevel;stroke-width:1.5;" x="137.70032" xlink:href="#m646fa99ab5" y="274.189754"/>
     <use style="fill-opacity:0;stroke:#ff7500;stroke-linejoin:bevel;stroke-width:1.5;" x="210.029653" xlink:href="#m646fa99ab5" y="254.175683"/>
     <use style="fill-opacity:0;stroke:#ff7500;stroke-linejoin:bevel;stroke-width:1.5;" x="277.08734" xlink:href="#m646fa99ab5" y="218.36103"/>
     <use style="fill-opacity:0;stroke:#ff7500;stroke-linejoin:bevel;stroke-width:1.5;" x="303.273276" xlink:href="#m646fa99ab5" y="209.407366"/>
     <use style="fill-opacity:0;stroke:#ff7500;stroke-linejoin:bevel;stroke-width:1.5;" x="303.273276" xlink:href="#m646fa99ab5" y="209.407366"/>
     <use style="fill-opacity:0;stroke:#ff7500;stroke-linejoin:bevel;stroke-width:1.5;" x="338.688" xlink:href="#m646fa99ab5" y="209.407366"/>
    </g>
   </g>
   <g id="line2d_40">
    <path style="fill:none;stroke:#ff7500;stroke-linecap:square;stroke-width:1.5;"/>
    <g/>
   </g>
   <g id="line2d_41">
    <path clip-path="url(#p8403a2331f)" d="M 218.221714 253.648997 
" style="fill:none;stroke:#ff7500;stroke-linecap:square;stroke-width:1.5;"/>
    <defs>
     <path d="M -12 12 
L 12 -12 
M -12 -12 
L 12 12 
" id="m628393f5e3" style="stroke:#ff7500;"/>
    </defs>
    <g clip-path="url(#p8403a2331f)">
     <use style="fill:#ff7500;stroke:#ff7500;" x="218.221714" xlink:href="#m628393f5e3" y="253.648997"/>
    </g>
   </g>
   <g id="line2d_42">
    <defs>
     <path d="M 0 1.5 
C 0.397805 1.5 0.77937 1.341951 1.06066 1.06066 
C 1.341951 0.77937 1.5 0.397805 1.5 0 
C 1.5 -0.397805 1.341951 -0.77937 1.06066 -1.06066 
C 0.77937 -1.341951 0.397805 -1.5 0 -1.5 
C -0.397805 -1.5 -0.77937 -1.341951 -1.06066 -1.06066 
C -1.341951 -0.77937 -1.5 -0.397805 -1.5 0 
C -1.5 0.397805 -1.341951 0.77937 -1.06066 1.06066 
C -0.77937 1.341951 -0.397805 1.5 0 1.5 
z
" id="m1f10a31311" style="stroke:#6495ed;"/>
    </defs>
    <g>
     <use style="fill:#6495ed;stroke:#6495ed;" x="155.716556" xlink:href="#m1f10a31311" y="30.334099"/>
     <use style="fill:#6495ed;stroke:#6495ed;" x="155.716556" xlink:href="#m1f10a31311" y="30.334099"/>
    </g>
   </g>
   <g id="line2d_43">
    <path d="M 29.53256 298.944 
L 29.53256 292.623767 
L 48.691568 292.623767 
L 48.691568 292.097081 
L 53.708537 292.097081 
L 53.708537 290.517023 
L 57.6 290.517023 
L 57.6 289.990337 
L 60.779557 289.990337 
L 60.779557 289.463651 
L 67.850577 289.463651 
L 67.850577 287.356906 
L 71.35013 287.356906 
L 71.35013 286.303534 
L 72.867545 286.303534 
L 72.867545 285.776848 
L 82.626842 285.776848 
L 82.626842 279.983301 
L 83.438118 279.983301 
L 83.438118 277.349871 
L 84.213325 277.349871 
L 84.213325 276.823185 
L 84.955534 276.823185 
L 84.955534 275.243126 
L 85.66744 275.243126 
L 85.66744 274.71644 
L 86.351421 274.71644 
L 86.351421 258.915858 
L 87.643811 258.915858 
L 87.643811 257.3358 
L 88.255778 257.3358 
L 88.255778 256.809114 
L 88.846997 256.809114 
L 88.846997 255.755741 
L 89.418828 255.755741 
L 89.418828 239.955159 
L 89.972502 239.955159 
L 89.972502 237.848415 
L 91.535274 237.848415 
L 91.535274 223.101204 
L 92.026554 223.101204 
L 92.026554 207.827308 
L 92.969447 207.827308 
L 92.969447 207.300622 
L 94.714831 207.300622 
L 94.714831 206.24725 
L 96.676366 206.24725 
L 96.676366 205.720564 
L 100.040467 205.720564 
L 100.040467 205.193878 
L 100.934985 205.193878 
L 100.934985 204.140506 
L 104.355088 204.140506 
L 104.355088 203.613819 
L 105.285403 203.613819 
L 105.285403 203.087133 
L 108.006005 203.087133 
L 108.006005 202.033761 
L 109.131511 202.033761 
L 109.131511 186.759865 
L 111.185562 186.759865 
L 111.185562 170.959282 
L 111.663381 170.959282 
L 111.663381 170.432596 
L 111.819788 170.432596 
L 111.819788 135.671315 
L 112.128456 135.671315 
L 112.128456 122.504163 
L 114.816733 122.504163 
L 114.816733 121.977477 
L 114.947365 121.977477 
L 114.947365 107.230267 
L 120.47729 107.230267 
L 120.47729 106.703581 
L 121.036887 106.703581 
L 121.036887 106.176895 
L 125.752972 106.176895 
L 125.752972 90.902998 
L 126.099688 90.902998 
L 126.099688 75.629102 
L 128.046609 75.629102 
L 128.046609 60.355206 
L 133.488207 60.355206 
L 133.488207 45.081309 
L 138.794909 45.081309 
L 138.794909 44.027937 
L 138.959898 44.027937 
L 138.959898 43.501251 
L 139.090775 43.501251 
L 139.090775 42.447879 
L 139.123342 42.447879 
L 139.123342 41.921193 
L 140.973763 41.921193 
L 140.973763 39.814448 
L 141.321401 39.814448 
L 141.321401 38.23439 
L 141.435758 38.23439 
L 141.435758 37.707704 
L 141.492656 37.707704 
L 141.492656 35.60096 
L 142.051655 35.60096 
L 142.051655 34.020902 
L 144.958609 34.020902 
L 144.958609 32.440843 
L 147.927346 32.440843 
L 147.927346 31.387471 
L 151.850203 31.387471 
L 151.850203 30.860785 
L 155.716556 30.860785 
L 155.716556 30.334099 
L 338.688 30.334099 
" style="fill:none;stroke:#6495ed;stroke-linecap:square;stroke-width:1.5;"/>
   </g>
   <g id="line2d_44">
    <defs>
     <path d="M -0 6 
L 6 -6 
L -6 -6 
z
" id="mfc7ec0d81e" style="stroke:#6495ed;stroke-linejoin:miter;stroke-width:1.5;"/>
    </defs>
    <g>
     <use style="fill-opacity:0;stroke:#6495ed;stroke-linejoin:miter;stroke-width:1.5;" x="91.535274" xlink:href="#mfc7ec0d81e" y="237.848415"/>
     <use style="fill-opacity:0;stroke:#6495ed;stroke-linejoin:miter;stroke-width:1.5;" x="111.819788" xlink:href="#mfc7ec0d81e" y="170.432596"/>
     <use style="fill-opacity:0;stroke:#6495ed;stroke-linejoin:miter;stroke-width:1.5;" x="155.716556" xlink:href="#mfc7ec0d81e" y="30.860785"/>
     <use style="fill-opacity:0;stroke:#6495ed;stroke-linejoin:miter;stroke-width:1.5;" x="155.716556" xlink:href="#mfc7ec0d81e" y="30.334099"/>
     <use style="fill-opacity:0;stroke:#6495ed;stroke-linejoin:miter;stroke-width:1.5;" x="155.716556" xlink:href="#mfc7ec0d81e" y="30.334099"/>
     <use style="fill-opacity:0;stroke:#6495ed;stroke-linejoin:miter;stroke-width:1.5;" x="338.688" xlink:href="#mfc7ec0d81e" y="30.334099"/>
    </g>
   </g>
   <g id="line2d_45">
    <path style="fill:none;stroke:#6495ed;stroke-linecap:square;stroke-width:1.5;"/>
    <g/>
   </g>
   <g id="line2d_46">
    <path clip-path="url(#p8403a2331f)" d="M 137.910857 45.081309 
" style="fill:none;stroke:#6495ed;stroke-linecap:square;stroke-width:1.5;"/>
    <defs>
     <path d="M -12 12 
L 12 -12 
M -12 -12 
L 12 12 
" id="mcdf55e435c" style="stroke:#6495ed;"/>
    </defs>
    <g clip-path="url(#p8403a2331f)">
     <use style="fill:#6495ed;stroke:#6495ed;" x="137.910857" xlink:href="#mcdf55e435c" y="45.081309"/>
    </g>
   </g>
   <g id="line2d_47">
    <path d="M 338.688 209.407366 
L 369.60768 293.571802 
" style="fill:none;stroke:#ff7500;stroke-linecap:square;stroke-width:1.5;"/>
    <g>
     <use style="fill-opacity:0;stroke:#ff7500;stroke-linejoin:bevel;stroke-width:1.5;" x="338.688" xlink:href="#m646fa99ab5" y="209.407366"/>
     <use style="fill-opacity:0;stroke:#ff7500;stroke-linejoin:bevel;stroke-width:1.5;" x="369.60768" xlink:href="#m646fa99ab5" y="293.571802"/>
    </g>
   </g>
   <g id="line2d_48">
    <path d="M 338.688 30.334099 
L 369.60768 207.616634 
" style="fill:none;stroke:#ff00ff;stroke-linecap:square;stroke-width:1.5;"/>
    <g>
     <use style="fill-opacity:0;stroke:#ff00ff;stroke-linejoin:miter;stroke-width:1.5;" x="338.688" xlink:href="#m8654fbb7b5" y="30.334099"/>
     <use style="fill-opacity:0;stroke:#ff00ff;stroke-linejoin:miter;stroke-width:1.5;" x="369.60768" xlink:href="#m8654fbb7b5" y="207.616634"/>
    </g>
   </g>
   <g id="line2d_49">
    <path d="M 338.688 30.334099 
L 369.60768 121.661465 
" style="fill:none;stroke:#6495ed;stroke-linecap:square;stroke-width:1.5;"/>
    <g>
     <use style="fill-opacity:0;stroke:#6495ed;stroke-linejoin:miter;stroke-width:1.5;" x="338.688" xlink:href="#mfc7ec0d81e" y="30.334099"/>
     <use style="fill-opacity:0;stroke:#6495ed;stroke-linejoin:miter;stroke-width:1.5;" x="369.60768" xlink:href="#mfc7ec0d81e" y="121.661465"/>
    </g>
   </g>
   <g id="line2d_50">
    <path d="M 338.688 30.334099 
L 369.60768 35.706297 
" style="fill:none;stroke:#000080;stroke-linecap:square;stroke-width:1.5;"/>
    <g>
     <use style="fill-opacity:0;stroke:#000080;stroke-width:1.5;" x="338.688" xlink:href="#m4c7b36625d" y="30.334099"/>
     <use style="fill-opacity:0;stroke:#000080;stroke-width:1.5;" x="369.60768" xlink:href="#m4c7b36625d" y="35.706297"/>
    </g>
   </g>
   <g id="line2d_51">
    <path d="M 338.688 298.944 
L 338.688 30.334099 
" style="fill:none;stroke:#000000;stroke-linecap:square;stroke-width:1.5;"/>
   </g>
   <g id="patch_3">
    <path d="M 57.6 298.944 
L 57.6 27.648 
" style="fill:none;stroke:#000000;stroke-linecap:square;stroke-linejoin:miter;stroke-width:0.8;"/>
   </g>
   <g id="patch_4">
    <path d="M 338.688 298.944 
L 338.688 27.648 
" style="fill:none;stroke:#000000;stroke-linecap:square;stroke-linejoin:miter;stroke-width:0.8;"/>
   </g>
   <g id="patch_5">
    <path d="M 57.6 298.944 
L 338.688 298.944 
" style="fill:none;stroke:#000000;stroke-linecap:square;stroke-linejoin:miter;stroke-width:0.8;"/>
   </g>
   <g id="patch_6">
    <path d="M 57.6 27.648 
L 338.688 27.648 
" style="fill:none;stroke:#000000;stroke-linecap:square;stroke-linejoin:miter;stroke-width:0.8;"/>
   </g>
   <g id="text_13">
    <!-- RANDOMSEA -->
    <g transform="translate(375.22944 298.262739)scale(0.17 -0.17)">
     <defs>
      <path d="M 2841 2188 
Q 3044 2119 3236 1894 
Q 3428 1669 3622 1275 
L 4263 0 
L 3584 0 
L 2988 1197 
Q 2756 1666 2539 1819 
Q 2322 1972 1947 1972 
L 1259 1972 
L 1259 0 
L 628 0 
L 628 4666 
L 2053 4666 
Q 2853 4666 3247 4331 
Q 3641 3997 3641 3322 
Q 3641 2881 3436 2590 
Q 3231 2300 2841 2188 
z
M 1259 4147 
L 1259 2491 
L 2053 2491 
Q 2509 2491 2742 2702 
Q 2975 2913 2975 3322 
Q 2975 3731 2742 3939 
Q 2509 4147 2053 4147 
L 1259 4147 
z
" id="DejaVuSans-52" transform="scale(0.015625)"/>
      <path d="M 2188 4044 
L 1331 1722 
L 3047 1722 
L 2188 4044 
z
M 1831 4666 
L 2547 4666 
L 4325 0 
L 3669 0 
L 3244 1197 
L 1141 1197 
L 716 0 
L 50 0 
L 1831 4666 
z
" id="DejaVuSans-41" transform="scale(0.015625)"/>
      <path d="M 628 4666 
L 1478 4666 
L 3547 763 
L 3547 4666 
L 4159 4666 
L 4159 0 
L 3309 0 
L 1241 3903 
L 1241 0 
L 628 0 
L 628 4666 
z
" id="DejaVuSans-4e" transform="scale(0.015625)"/>
      <path d="M 1259 4147 
L 1259 519 
L 2022 519 
Q 2988 519 3436 956 
Q 3884 1394 3884 2338 
Q 3884 3275 3436 3711 
Q 2988 4147 2022 4147 
L 1259 4147 
z
M 628 4666 
L 1925 4666 
Q 3281 4666 3915 4102 
Q 4550 3538 4550 2338 
Q 4550 1131 3912 565 
Q 3275 0 1925 0 
L 628 0 
L 628 4666 
z
" id="DejaVuSans-44" transform="scale(0.015625)"/>
      <path d="M 2522 4238 
Q 1834 4238 1429 3725 
Q 1025 3213 1025 2328 
Q 1025 1447 1429 934 
Q 1834 422 2522 422 
Q 3209 422 3611 934 
Q 4013 1447 4013 2328 
Q 4013 3213 3611 3725 
Q 3209 4238 2522 4238 
z
M 2522 4750 
Q 3503 4750 4090 4092 
Q 4678 3434 4678 2328 
Q 4678 1225 4090 567 
Q 3503 -91 2522 -91 
Q 1538 -91 948 565 
Q 359 1222 359 2328 
Q 359 3434 948 4092 
Q 1538 4750 2522 4750 
z
" id="DejaVuSans-4f" transform="scale(0.015625)"/>
      <path d="M 628 4666 
L 1569 4666 
L 2759 1491 
L 3956 4666 
L 4897 4666 
L 4897 0 
L 4281 0 
L 4281 4097 
L 3078 897 
L 2444 897 
L 1241 4097 
L 1241 0 
L 628 0 
L 628 4666 
z
" id="DejaVuSans-4d" transform="scale(0.015625)"/>
      <path d="M 3425 4513 
L 3425 3897 
Q 3066 4069 2747 4153 
Q 2428 4238 2131 4238 
Q 1616 4238 1336 4038 
Q 1056 3838 1056 3469 
Q 1056 3159 1242 3001 
Q 1428 2844 1947 2747 
L 2328 2669 
Q 3034 2534 3370 2195 
Q 3706 1856 3706 1288 
Q 3706 609 3251 259 
Q 2797 -91 1919 -91 
Q 1588 -91 1214 -16 
Q 841 59 441 206 
L 441 856 
Q 825 641 1194 531 
Q 1563 422 1919 422 
Q 2459 422 2753 634 
Q 3047 847 3047 1241 
Q 3047 1584 2836 1778 
Q 2625 1972 2144 2069 
L 1759 2144 
Q 1053 2284 737 2584 
Q 422 2884 422 3419 
Q 422 4038 858 4394 
Q 1294 4750 2059 4750 
Q 2388 4750 2728 4690 
Q 3069 4631 3425 4513 
z
" id="DejaVuSans-53" transform="scale(0.015625)"/>
      <path d="M 628 4666 
L 3578 4666 
L 3578 4134 
L 1259 4134 
L 1259 2753 
L 3481 2753 
L 3481 2222 
L 1259 2222 
L 1259 531 
L 3634 531 
L 3634 0 
L 628 0 
L 628 4666 
z
" id="DejaVuSans-45" transform="scale(0.015625)"/>
     </defs>
     <use xlink:href="#DejaVuSans-52"/>
     <use x="65.482422" xlink:href="#DejaVuSans-41"/>
     <use x="133.890625" xlink:href="#DejaVuSans-4e"/>
     <use x="208.695312" xlink:href="#DejaVuSans-44"/>
     <use x="285.697266" xlink:href="#DejaVuSans-4f"/>
     <use x="364.408203" xlink:href="#DejaVuSans-4d"/>
     <use x="450.6875" xlink:href="#DejaVuSans-53"/>
     <use x="514.164062" xlink:href="#DejaVuSans-45"/>
     <use x="577.347656" xlink:href="#DejaVuSans-41"/>
    </g>
   </g>
   <g id="text_14">
    <!-- DE-scipy -->
    <g transform="translate(375.22944 212.307571)scale(0.17 -0.17)">
     <defs>
      <path d="M 2059 -325 
Q 1816 -950 1584 -1140 
Q 1353 -1331 966 -1331 
L 506 -1331 
L 506 -850 
L 844 -850 
Q 1081 -850 1212 -737 
Q 1344 -625 1503 -206 
L 1606 56 
L 191 3500 
L 800 3500 
L 1894 763 
L 2988 3500 
L 3597 3500 
L 2059 -325 
z
" id="DejaVuSans-79" transform="scale(0.015625)"/>
     </defs>
     <use xlink:href="#DejaVuSans-44"/>
     <use x="77.001953" xlink:href="#DejaVuSans-45"/>
     <use x="140.185547" xlink:href="#DejaVuSans-2d"/>
     <use x="176.269531" xlink:href="#DejaVuSans-73"/>
     <use x="228.369141" xlink:href="#DejaVuSans-63"/>
     <use x="283.349609" xlink:href="#DejaVuSans-69"/>
     <use x="311.132812" xlink:href="#DejaVuSans-70"/>
     <use x="374.609375" xlink:href="#DejaVuSans-79"/>
    </g>
   </g>
   <g id="text_15">
    <!-- TPE-hyper -->
    <g transform="translate(375.22944 126.352403)scale(0.17 -0.17)">
     <defs>
      <path d="M -19 4666 
L 3928 4666 
L 3928 4134 
L 2272 4134 
L 2272 0 
L 1638 0 
L 1638 4134 
L -19 4134 
L -19 4666 
z
" id="DejaVuSans-54" transform="scale(0.015625)"/>
      <path d="M 1259 4147 
L 1259 2394 
L 2053 2394 
Q 2494 2394 2734 2622 
Q 2975 2850 2975 3272 
Q 2975 3691 2734 3919 
Q 2494 4147 2053 4147 
L 1259 4147 
z
M 628 4666 
L 2053 4666 
Q 2838 4666 3239 4311 
Q 3641 3956 3641 3272 
Q 3641 2581 3239 2228 
Q 2838 1875 2053 1875 
L 1259 1875 
L 1259 0 
L 628 0 
L 628 4666 
z
" id="DejaVuSans-50" transform="scale(0.015625)"/>
      <path d="M 3513 2113 
L 3513 0 
L 2938 0 
L 2938 2094 
Q 2938 2591 2744 2837 
Q 2550 3084 2163 3084 
Q 1697 3084 1428 2787 
Q 1159 2491 1159 1978 
L 1159 0 
L 581 0 
L 581 4863 
L 1159 4863 
L 1159 2956 
Q 1366 3272 1645 3428 
Q 1925 3584 2291 3584 
Q 2894 3584 3203 3211 
Q 3513 2838 3513 2113 
z
" id="DejaVuSans-68" transform="scale(0.015625)"/>
     </defs>
     <use xlink:href="#DejaVuSans-54"/>
     <use x="61.083984" xlink:href="#DejaVuSans-50"/>
     <use x="121.386719" xlink:href="#DejaVuSans-45"/>
     <use x="184.570312" xlink:href="#DejaVuSans-2d"/>
     <use x="220.654297" xlink:href="#DejaVuSans-68"/>
     <use x="284.033203" xlink:href="#DejaVuSans-79"/>
     <use x="343.212891" xlink:href="#DejaVuSans-70"/>
     <use x="406.689453" xlink:href="#DejaVuSans-65"/>
     <use x="468.212891" xlink:href="#DejaVuSans-72"/>
    </g>
   </g>
   <g id="text_16">
    <!-- CMA-ES-py -->
    <g transform="translate(375.22944 40.397235)scale(0.17 -0.17)">
     <defs>
      <path d="M 4122 4306 
L 4122 3641 
Q 3803 3938 3442 4084 
Q 3081 4231 2675 4231 
Q 1875 4231 1450 3742 
Q 1025 3253 1025 2328 
Q 1025 1406 1450 917 
Q 1875 428 2675 428 
Q 3081 428 3442 575 
Q 3803 722 4122 1019 
L 4122 359 
Q 3791 134 3420 21 
Q 3050 -91 2638 -91 
Q 1578 -91 968 557 
Q 359 1206 359 2328 
Q 359 3453 968 4101 
Q 1578 4750 2638 4750 
Q 3056 4750 3426 4639 
Q 3797 4528 4122 4306 
z
" id="DejaVuSans-43" transform="scale(0.015625)"/>
     </defs>
     <use xlink:href="#DejaVuSans-43"/>
     <use x="69.824219" xlink:href="#DejaVuSans-4d"/>
     <use x="156.103516" xlink:href="#DejaVuSans-41"/>
     <use x="222.261719" xlink:href="#DejaVuSans-2d"/>
     <use x="258.345703" xlink:href="#DejaVuSans-45"/>
     <use x="321.529297" xlink:href="#DejaVuSans-53"/>
     <use x="385.005859" xlink:href="#DejaVuSans-2d"/>
     <use x="421.089844" xlink:href="#DejaVuSans-70"/>
     <use x="484.566406" xlink:href="#DejaVuSans-79"/>
    </g>
   </g>
   <g id="text_17">
    <!-- bbob-mixint f5, 5-D -->
    <g transform="translate(60.41088 38.111366)scale(0.102 -0.102)">
     <defs>
      <path d="M 3116 1747 
Q 3116 2381 2855 2742 
Q 2594 3103 2138 3103 
Q 1681 3103 1420 2742 
Q 1159 2381 1159 1747 
Q 1159 1113 1420 752 
Q 1681 391 2138 391 
Q 2594 391 2855 752 
Q 3116 1113 3116 1747 
z
M 1159 2969 
Q 1341 3281 1617 3432 
Q 1894 3584 2278 3584 
Q 2916 3584 3314 3078 
Q 3713 2572 3713 1747 
Q 3713 922 3314 415 
Q 2916 -91 2278 -91 
Q 1894 -91 1617 61 
Q 1341 213 1159 525 
L 1159 0 
L 581 0 
L 581 4863 
L 1159 4863 
L 1159 2969 
z
" id="DejaVuSans-62" transform="scale(0.015625)"/>
      <path d="M 3513 3500 
L 2247 1797 
L 3578 0 
L 2900 0 
L 1881 1375 
L 863 0 
L 184 0 
L 1544 1831 
L 300 3500 
L 978 3500 
L 1906 2253 
L 2834 3500 
L 3513 3500 
z
" id="DejaVuSans-78" transform="scale(0.015625)"/>
      <path d="M 691 4666 
L 3169 4666 
L 3169 4134 
L 1269 4134 
L 1269 2991 
Q 1406 3038 1543 3061 
Q 1681 3084 1819 3084 
Q 2600 3084 3056 2656 
Q 3513 2228 3513 1497 
Q 3513 744 3044 326 
Q 2575 -91 1722 -91 
Q 1428 -91 1123 -41 
Q 819 9 494 109 
L 494 744 
Q 775 591 1075 516 
Q 1375 441 1709 441 
Q 2250 441 2565 725 
Q 2881 1009 2881 1497 
Q 2881 1984 2565 2268 
Q 2250 2553 1709 2553 
Q 1456 2553 1204 2497 
Q 953 2441 691 2322 
L 691 4666 
z
" id="DejaVuSans-35" transform="scale(0.015625)"/>
     </defs>
     <use xlink:href="#DejaVuSans-62"/>
     <use x="63.476562" xlink:href="#DejaVuSans-62"/>
     <use x="126.953125" xlink:href="#DejaVuSans-6f"/>
     <use x="188.134766" xlink:href="#DejaVuSans-62"/>
     <use x="251.611328" xlink:href="#DejaVuSans-2d"/>
     <use x="287.695312" xlink:href="#DejaVuSans-6d"/>
     <use x="385.107422" xlink:href="#DejaVuSans-69"/>
     <use x="412.890625" xlink:href="#DejaVuSans-78"/>
     <use x="472.070312" xlink:href="#DejaVuSans-69"/>
     <use x="499.853516" xlink:href="#DejaVuSans-6e"/>
     <use x="563.232422" xlink:href="#DejaVuSans-74"/>
     <use x="602.441406" xlink:href="#DejaVuSans-20"/>
     <use x="634.228516" xlink:href="#DejaVuSans-66"/>
     <use x="669.433594" xlink:href="#DejaVuSans-35"/>
     <use x="733.056641" xlink:href="#DejaVuSans-2c"/>
     <use x="764.84375" xlink:href="#DejaVuSans-20"/>
     <use x="796.630859" xlink:href="#DejaVuSans-35"/>
     <use x="860.253906" xlink:href="#DejaVuSans-2d"/>
     <use x="896.337891" xlink:href="#DejaVuSans-44"/>
    </g>
    <!-- 51 targets: 100..1e-08 -->
    <g transform="translate(60.41088 49.533135)scale(0.102 -0.102)">
     <defs>
      <path d="M 750 794 
L 1409 794 
L 1409 0 
L 750 0 
L 750 794 
z
M 750 3309 
L 1409 3309 
L 1409 2516 
L 750 2516 
L 750 3309 
z
" id="DejaVuSans-3a" transform="scale(0.015625)"/>
     </defs>
     <use xlink:href="#DejaVuSans-35"/>
     <use x="63.623047" xlink:href="#DejaVuSans-31"/>
     <use x="127.246094" xlink:href="#DejaVuSans-20"/>
     <use x="159.033203" xlink:href="#DejaVuSans-74"/>
     <use x="198.242188" xlink:href="#DejaVuSans-61"/>
     <use x="259.521484" xlink:href="#DejaVuSans-72"/>
     <use x="298.884766" xlink:href="#DejaVuSans-67"/>
     <use x="362.361328" xlink:href="#DejaVuSans-65"/>
     <use x="423.884766" xlink:href="#DejaVuSans-74"/>
     <use x="463.09375" xlink:href="#DejaVuSans-73"/>
     <use x="515.193359" xlink:href="#DejaVuSans-3a"/>
     <use x="548.884766" xlink:href="#DejaVuSans-20"/>
     <use x="580.671875" xlink:href="#DejaVuSans-31"/>
     <use x="644.294922" xlink:href="#DejaVuSans-30"/>
     <use x="707.917969" xlink:href="#DejaVuSans-30"/>
     <use x="771.541016" xlink:href="#DejaVuSans-2e"/>
     <use x="803.328125" xlink:href="#DejaVuSans-2e"/>
     <use x="835.115234" xlink:href="#DejaVuSans-31"/>
     <use x="898.738281" xlink:href="#DejaVuSans-65"/>
     <use x="960.261719" xlink:href="#DejaVuSans-2d"/>
     <use x="996.345703" xlink:href="#DejaVuSans-30"/>
     <use x="1059.96875" xlink:href="#DejaVuSans-38"/>
    </g>
    <!-- 15 instances -->
    <g transform="translate(60.41088 60.954904)scale(0.102 -0.102)">
     <use xlink:href="#DejaVuSans-31"/>
     <use x="63.623047" xlink:href="#DejaVuSans-35"/>
     <use x="127.246094" xlink:href="#DejaVuSans-20"/>
     <use x="159.033203" xlink:href="#DejaVuSans-69"/>
     <use x="186.816406" xlink:href="#DejaVuSans-6e"/>
     <use x="250.195312" xlink:href="#DejaVuSans-73"/>
     <use x="302.294922" xlink:href="#DejaVuSans-74"/>
     <use x="341.503906" xlink:href="#DejaVuSans-61"/>
     <use x="402.783203" xlink:href="#DejaVuSans-6e"/>
     <use x="466.162109" xlink:href="#DejaVuSans-63"/>
     <use x="521.142578" xlink:href="#DejaVuSans-65"/>
     <use x="582.666016" xlink:href="#DejaVuSans-73"/>
    </g>
   </g>
   <g id="text_18">
    <!-- v2.4.1.1 -->
    <g style="fill:#808080;" transform="translate(177.692437 294.151352)scale(0.1 -0.1)">
     <use xlink:href="#DejaVuSans-76"/>
     <use x="59.179688" xlink:href="#DejaVuSans-32"/>
     <use x="122.802734" xlink:href="#DejaVuSans-2e"/>
     <use x="154.589844" xlink:href="#DejaVuSans-34"/>
     <use x="218.212891" xlink:href="#DejaVuSans-2e"/>
     <use x="250" xlink:href="#DejaVuSans-31"/>
     <use x="313.623047" xlink:href="#DejaVuSans-2e"/>
     <use x="345.410156" xlink:href="#DejaVuSans-31"/>
    </g>
   </g>
   <g id="text_19">
    <!-- 5 Linear slope -->
    <g transform="translate(127.73775 21.648)scale(0.2 -0.2)">
     <defs>
      <path d="M 628 4666 
L 1259 4666 
L 1259 531 
L 3531 531 
L 3531 0 
L 628 0 
L 628 4666 
z
" id="DejaVuSans-4c" transform="scale(0.015625)"/>
     </defs>
     <use xlink:href="#DejaVuSans-35"/>
     <use x="63.623047" xlink:href="#DejaVuSans-20"/>
     <use x="95.410156" xlink:href="#DejaVuSans-4c"/>
     <use x="151.123047" xlink:href="#DejaVuSans-69"/>
     <use x="178.90625" xlink:href="#DejaVuSans-6e"/>
     <use x="242.285156" xlink:href="#DejaVuSans-65"/>
     <use x="303.808594" xlink:href="#DejaVuSans-61"/>
     <use x="365.087891" xlink:href="#DejaVuSans-72"/>
     <use x="406.201172" xlink:href="#DejaVuSans-20"/>
     <use x="437.988281" xlink:href="#DejaVuSans-73"/>
     <use x="490.087891" xlink:href="#DejaVuSans-6c"/>
     <use x="517.871094" xlink:href="#DejaVuSans-6f"/>
     <use x="579.052734" xlink:href="#DejaVuSans-70"/>
     <use x="642.529297" xlink:href="#DejaVuSans-65"/>
    </g>
   </g>
  </g>
 </g>
 <defs>
  <clipPath id="p8403a2331f">
   <rect height="271.296" width="281.088" x="57.6" y="27.648"/>
  </clipPath>
 </defs>
</svg>
