<?xml version="1.0" encoding="utf-8" standalone="no"?>
<!DOCTYPE svg PUBLIC "-//W3C//DTD SVG 1.1//EN"
  "http://www.w3.org/Graphics/SVG/1.1/DTD/svg11.dtd">
<!-- Created with matplotlib (http://matplotlib.org/) -->
<svg height="345pt" version="1.1" viewBox="0 0 460 345" width="460pt" xmlns="http://www.w3.org/2000/svg" xmlns:xlink="http://www.w3.org/1999/xlink">
 <defs>
  <style type="text/css">
*{stroke-linecap:butt;stroke-linejoin:round;}
  </style>
 </defs>
 <g id="figure_1">
  <g id="patch_1">
   <path d="M 0 345.6 
L 460.8 345.6 
L 460.8 0 
L 0 0 
z
" style="fill:#ffffff;"/>
  </g>
  <g id="axes_1">
   <g id="patch_2">
    <path d="M 56.12 294.88 
L 399.984 294.88 
L 399.984 24.84 
L 56.12 24.84 
z
" style="fill:#ffffff;"/>
   </g>
   <g id="line2d_1">
    <path d="M -1 289.637523 
L 237.896405 289.637523 
L 237.896405 284.395046 
L 247.893884 284.395046 
L 247.893884 279.152568 
L 249.797763 279.152568 
L 249.797763 273.910091 
L 250.521563 273.910091 
L 250.521563 268.667614 
L 254.681287 268.667614 
L 254.681287 263.425137 
L 264.621806 263.425137 
L 264.621806 258.18266 
L 264.752677 258.18266 
L 264.752677 252.940182 
L 268.597875 252.940182 
L 268.597875 247.697705 
L 281.556175 247.697705 
L 281.556175 242.455228 
L 293.061502 242.455228 
L 293.061502 237.212751 
L 311.658563 237.212751 
L 311.658563 231.970274 
L 311.659134 231.970274 
L 311.659134 226.727797 
L 311.659528 226.727797 
L 311.659528 221.485319 
L 311.65956 221.485319 
L 311.65956 216.242842 
L 311.660294 216.242842 
L 311.660294 211.000365 
L 311.660681 211.000365 
L 311.660681 205.757888 
L 311.661029 205.757888 
L 311.661029 200.515411 
L 311.661181 200.515411 
L 311.661181 195.272933 
L 311.661536 195.272933 
L 311.661536 190.030456 
L 311.661877 190.030456 
L 311.661877 184.787979 
L 311.662029 184.787979 
L 311.662029 179.545502 
L 311.662122 179.545502 
L 311.662122 174.303025 
L 311.662705 174.303025 
L 311.662705 169.060547 
L 311.662887 169.060547 
L 311.662887 163.81807 
L 311.66324 163.81807 
L 311.66324 158.575593 
L 311.663483 158.575593 
L 311.663483 153.333116 
L 311.663785 153.333116 
L 311.663785 148.090639 
L 311.664124 148.090639 
L 311.664124 142.848162 
L 311.664378 142.848162 
L 311.664378 137.605684 
L 311.664873 137.605684 
L 311.664873 132.363207 
L 311.665101 132.363207 
L 311.665101 127.12073 
L 311.665536 127.12073 
L 311.665536 121.878253 
L 311.665823 121.878253 
L 311.665823 116.635776 
L 311.666682 116.635776 
L 311.666682 111.393298 
L 311.666694 111.393298 
L 311.666694 106.150821 
L 311.667242 106.150821 
L 311.667242 100.908344 
L 311.667419 100.908344 
L 311.667419 95.665867 
L 311.667632 95.665867 
L 311.667632 90.42339 
L 311.668005 90.42339 
L 311.668005 85.180912 
L 311.668533 85.180912 
L 311.668533 79.938435 
L 311.668718 79.938435 
L 311.668718 74.695958 
L 311.668859 74.695958 
L 311.668859 69.453481 
L 311.669643 69.453481 
L 311.669643 64.211004 
L 311.669955 64.211004 
L 311.669955 58.968526 
L 311.670287 58.968526 
L 311.670287 53.726049 
L 311.670599 53.726049 
L 311.670599 48.483572 
L 311.671121 48.483572 
L 311.671121 43.241095 
L 311.671309 43.241095 
L 311.671309 37.998618 
L 311.671436 37.998618 
L 311.671436 32.756141 
L 311.671779 32.756141 
L 311.671779 27.513663 
L 333.429677 27.513663 
" style="fill:none;stroke:#f5deb3;stroke-linecap:square;stroke-width:6;"/>
   </g>
   <g id="line2d_2">
    <path d="M 0 0 
" style="fill:none;stroke:#f5deb3;stroke-linecap:square;stroke-width:6;"/>
    <defs>
     <path d="M -0 7.778175 
L 7.778175 0 
L 0 -7.778175 
L -7.778175 -0 
z
" id="m159894b19e" style="stroke:#f5deb3;stroke-linejoin:miter;stroke-width:1.5;"/>
    </defs>
    <g>
     <use style="fill:#f5deb3;stroke:#f5deb3;stroke-linejoin:miter;stroke-width:1.5;" x="0" xlink:href="#m159894b19e" y="0"/>
    </g>
   </g>
   <g id="line2d_3">
    <path d="M 333.429677 27.513663 
L 363.933742 32.86099 
" style="fill:none;stroke:#f5deb3;stroke-linecap:square;stroke-width:6;"/>
    <g>
     <use style="fill:#f5deb3;stroke:#f5deb3;stroke-linejoin:miter;stroke-width:1.5;" x="333.429677" xlink:href="#m159894b19e" y="27.513663"/>
     <use style="fill:#f5deb3;stroke:#f5deb3;stroke-linejoin:miter;stroke-width:1.5;" x="363.933742" xlink:href="#m159894b19e" y="32.86099"/>
    </g>
   </g>
   <g id="matplotlib.axis_1">
    <g id="xtick_1">
     <g id="line2d_4">
      <path clip-path="url(#p0f484978d6)" d="M 56.12 294.88 
L 56.12 24.84 
" style="fill:none;stroke:#b0b0b0;stroke-linecap:square;stroke-width:0.8;"/>
     </g>
     <g id="line2d_5">
      <defs>
       <path d="M 0 0 
L 0 3.5 
" id="m0a29379eaf" style="stroke:#000000;stroke-width:0.8;"/>
      </defs>
      <g>
       <use style="stroke:#000000;stroke-width:0.8;" x="56.12" xlink:href="#m0a29379eaf" y="294.88"/>
      </g>
     </g>
     <g id="text_1">
      <!-- 0 -->
      <defs>
       <path d="M 31.78125 66.40625 
Q 24.171875 66.40625 20.328125 58.90625 
Q 16.5 51.421875 16.5 36.375 
Q 16.5 21.390625 20.328125 13.890625 
Q 24.171875 6.390625 31.78125 6.390625 
Q 39.453125 6.390625 43.28125 13.890625 
Q 47.125 21.390625 47.125 36.375 
Q 47.125 51.421875 43.28125 58.90625 
Q 39.453125 66.40625 31.78125 66.40625 
z
M 31.78125 74.21875 
Q 44.046875 74.21875 50.515625 64.515625 
Q 56.984375 54.828125 56.984375 36.375 
Q 56.984375 17.96875 50.515625 8.265625 
Q 44.046875 -1.421875 31.78125 -1.421875 
Q 19.53125 -1.421875 13.0625 8.265625 
Q 6.59375 17.96875 6.59375 36.375 
Q 6.59375 54.828125 13.0625 64.515625 
Q 19.53125 74.21875 31.78125 74.21875 
z
" id="DejaVuSans-30"/>
      </defs>
      <g transform="translate(49.7575 317.076875)scale(0.2 -0.2)">
       <use xlink:href="#DejaVuSans-30"/>
      </g>
     </g>
    </g>
    <g id="xtick_2">
     <g id="line2d_6">
      <path clip-path="url(#p0f484978d6)" d="M 135.351336 294.88 
L 135.351336 24.84 
" style="fill:none;stroke:#b0b0b0;stroke-linecap:square;stroke-width:0.8;"/>
     </g>
     <g id="line2d_7">
      <g>
       <use style="stroke:#000000;stroke-width:0.8;" x="135.351336" xlink:href="#m0a29379eaf" y="294.88"/>
      </g>
     </g>
     <g id="text_2">
      <!-- 2 -->
      <defs>
       <path d="M 19.1875 8.296875 
L 53.609375 8.296875 
L 53.609375 0 
L 7.328125 0 
L 7.328125 8.296875 
Q 12.9375 14.109375 22.625 23.890625 
Q 32.328125 33.6875 34.8125 36.53125 
Q 39.546875 41.84375 41.421875 45.53125 
Q 43.3125 49.21875 43.3125 52.78125 
Q 43.3125 58.59375 39.234375 62.25 
Q 35.15625 65.921875 28.609375 65.921875 
Q 23.96875 65.921875 18.8125 64.3125 
Q 13.671875 62.703125 7.8125 59.421875 
L 7.8125 69.390625 
Q 13.765625 71.78125 18.9375 73 
Q 24.125 74.21875 28.421875 74.21875 
Q 39.75 74.21875 46.484375 68.546875 
Q 53.21875 62.890625 53.21875 53.421875 
Q 53.21875 48.921875 51.53125 44.890625 
Q 49.859375 40.875 45.40625 35.40625 
Q 44.1875 33.984375 37.640625 27.21875 
Q 31.109375 20.453125 19.1875 8.296875 
z
" id="DejaVuSans-32"/>
      </defs>
      <g transform="translate(128.988836 317.076875)scale(0.2 -0.2)">
       <use xlink:href="#DejaVuSans-32"/>
      </g>
     </g>
    </g>
    <g id="xtick_3">
     <g id="line2d_8">
      <path clip-path="url(#p0f484978d6)" d="M 214.582673 294.88 
L 214.582673 24.84 
" style="fill:none;stroke:#b0b0b0;stroke-linecap:square;stroke-width:0.8;"/>
     </g>
     <g id="line2d_9">
      <g>
       <use style="stroke:#000000;stroke-width:0.8;" x="214.582673" xlink:href="#m0a29379eaf" y="294.88"/>
      </g>
     </g>
     <g id="text_3">
      <!-- 4 -->
      <defs>
       <path d="M 37.796875 64.3125 
L 12.890625 25.390625 
L 37.796875 25.390625 
z
M 35.203125 72.90625 
L 47.609375 72.90625 
L 47.609375 25.390625 
L 58.015625 25.390625 
L 58.015625 17.1875 
L 47.609375 17.1875 
L 47.609375 0 
L 37.796875 0 
L 37.796875 17.1875 
L 4.890625 17.1875 
L 4.890625 26.703125 
z
" id="DejaVuSans-34"/>
      </defs>
      <g transform="translate(208.220173 317.076875)scale(0.2 -0.2)">
       <use xlink:href="#DejaVuSans-34"/>
      </g>
     </g>
    </g>
    <g id="xtick_4">
     <g id="line2d_10">
      <path clip-path="url(#p0f484978d6)" d="M 293.814009 294.88 
L 293.814009 24.84 
" style="fill:none;stroke:#b0b0b0;stroke-linecap:square;stroke-width:0.8;"/>
     </g>
     <g id="line2d_11">
      <g>
       <use style="stroke:#000000;stroke-width:0.8;" x="293.814009" xlink:href="#m0a29379eaf" y="294.88"/>
      </g>
     </g>
     <g id="text_4">
      <!-- 6 -->
      <defs>
       <path d="M 33.015625 40.375 
Q 26.375 40.375 22.484375 35.828125 
Q 18.609375 31.296875 18.609375 23.390625 
Q 18.609375 15.53125 22.484375 10.953125 
Q 26.375 6.390625 33.015625 6.390625 
Q 39.65625 6.390625 43.53125 10.953125 
Q 47.40625 15.53125 47.40625 23.390625 
Q 47.40625 31.296875 43.53125 35.828125 
Q 39.65625 40.375 33.015625 40.375 
z
M 52.59375 71.296875 
L 52.59375 62.3125 
Q 48.875 64.0625 45.09375 64.984375 
Q 41.3125 65.921875 37.59375 65.921875 
Q 27.828125 65.921875 22.671875 59.328125 
Q 17.53125 52.734375 16.796875 39.40625 
Q 19.671875 43.65625 24.015625 45.921875 
Q 28.375 48.1875 33.59375 48.1875 
Q 44.578125 48.1875 50.953125 41.515625 
Q 57.328125 34.859375 57.328125 23.390625 
Q 57.328125 12.15625 50.6875 5.359375 
Q 44.046875 -1.421875 33.015625 -1.421875 
Q 20.359375 -1.421875 13.671875 8.265625 
Q 6.984375 17.96875 6.984375 36.375 
Q 6.984375 53.65625 15.1875 63.9375 
Q 23.390625 74.21875 37.203125 74.21875 
Q 40.921875 74.21875 44.703125 73.484375 
Q 48.484375 72.75 52.59375 71.296875 
z
" id="DejaVuSans-36"/>
      </defs>
      <g transform="translate(287.451509 317.076875)scale(0.2 -0.2)">
       <use xlink:href="#DejaVuSans-36"/>
      </g>
     </g>
    </g>
    <g id="xtick_5">
     <g id="line2d_12">
      <path clip-path="url(#p0f484978d6)" d="M 373.045346 294.88 
L 373.045346 24.84 
" style="fill:none;stroke:#b0b0b0;stroke-linecap:square;stroke-width:0.8;"/>
     </g>
     <g id="line2d_13">
      <g>
       <use style="stroke:#000000;stroke-width:0.8;" x="373.045346" xlink:href="#m0a29379eaf" y="294.88"/>
      </g>
     </g>
     <g id="text_5">
      <!-- 8 -->
      <defs>
       <path d="M 31.78125 34.625 
Q 24.75 34.625 20.71875 30.859375 
Q 16.703125 27.09375 16.703125 20.515625 
Q 16.703125 13.921875 20.71875 10.15625 
Q 24.75 6.390625 31.78125 6.390625 
Q 38.8125 6.390625 42.859375 10.171875 
Q 46.921875 13.96875 46.921875 20.515625 
Q 46.921875 27.09375 42.890625 30.859375 
Q 38.875 34.625 31.78125 34.625 
z
M 21.921875 38.8125 
Q 15.578125 40.375 12.03125 44.71875 
Q 8.5 49.078125 8.5 55.328125 
Q 8.5 64.0625 14.71875 69.140625 
Q 20.953125 74.21875 31.78125 74.21875 
Q 42.671875 74.21875 48.875 69.140625 
Q 55.078125 64.0625 55.078125 55.328125 
Q 55.078125 49.078125 51.53125 44.71875 
Q 48 40.375 41.703125 38.8125 
Q 48.828125 37.15625 52.796875 32.3125 
Q 56.78125 27.484375 56.78125 20.515625 
Q 56.78125 9.90625 50.3125 4.234375 
Q 43.84375 -1.421875 31.78125 -1.421875 
Q 19.734375 -1.421875 13.25 4.234375 
Q 6.78125 9.90625 6.78125 20.515625 
Q 6.78125 27.484375 10.78125 32.3125 
Q 14.796875 37.15625 21.921875 38.8125 
z
M 18.3125 54.390625 
Q 18.3125 48.734375 21.84375 45.5625 
Q 25.390625 42.390625 31.78125 42.390625 
Q 38.140625 42.390625 41.71875 45.5625 
Q 45.3125 48.734375 45.3125 54.390625 
Q 45.3125 60.0625 41.71875 63.234375 
Q 38.140625 66.40625 31.78125 66.40625 
Q 25.390625 66.40625 21.84375 63.234375 
Q 18.3125 60.0625 18.3125 54.390625 
z
" id="DejaVuSans-38"/>
      </defs>
      <g transform="translate(366.682846 317.076875)scale(0.2 -0.2)">
       <use xlink:href="#DejaVuSans-38"/>
      </g>
     </g>
    </g>
    <g id="text_6">
     <!-- log10(# f-evals / dimension) -->
     <defs>
      <path d="M 9.421875 75.984375 
L 18.40625 75.984375 
L 18.40625 0 
L 9.421875 0 
z
" id="DejaVuSans-6c"/>
      <path d="M 30.609375 48.390625 
Q 23.390625 48.390625 19.1875 42.75 
Q 14.984375 37.109375 14.984375 27.296875 
Q 14.984375 17.484375 19.15625 11.84375 
Q 23.34375 6.203125 30.609375 6.203125 
Q 37.796875 6.203125 41.984375 11.859375 
Q 46.1875 17.53125 46.1875 27.296875 
Q 46.1875 37.015625 41.984375 42.703125 
Q 37.796875 48.390625 30.609375 48.390625 
z
M 30.609375 56 
Q 42.328125 56 49.015625 48.375 
Q 55.71875 40.765625 55.71875 27.296875 
Q 55.71875 13.875 49.015625 6.21875 
Q 42.328125 -1.421875 30.609375 -1.421875 
Q 18.84375 -1.421875 12.171875 6.21875 
Q 5.515625 13.875 5.515625 27.296875 
Q 5.515625 40.765625 12.171875 48.375 
Q 18.84375 56 30.609375 56 
z
" id="DejaVuSans-6f"/>
      <path d="M 45.40625 27.984375 
Q 45.40625 37.75 41.375 43.109375 
Q 37.359375 48.484375 30.078125 48.484375 
Q 22.859375 48.484375 18.828125 43.109375 
Q 14.796875 37.75 14.796875 27.984375 
Q 14.796875 18.265625 18.828125 12.890625 
Q 22.859375 7.515625 30.078125 7.515625 
Q 37.359375 7.515625 41.375 12.890625 
Q 45.40625 18.265625 45.40625 27.984375 
z
M 54.390625 6.78125 
Q 54.390625 -7.171875 48.1875 -13.984375 
Q 42 -20.796875 29.203125 -20.796875 
Q 24.46875 -20.796875 20.265625 -20.09375 
Q 16.0625 -19.390625 12.109375 -17.921875 
L 12.109375 -9.1875 
Q 16.0625 -11.328125 19.921875 -12.34375 
Q 23.78125 -13.375 27.78125 -13.375 
Q 36.625 -13.375 41.015625 -8.765625 
Q 45.40625 -4.15625 45.40625 5.171875 
L 45.40625 9.625 
Q 42.625 4.78125 38.28125 2.390625 
Q 33.9375 0 27.875 0 
Q 17.828125 0 11.671875 7.65625 
Q 5.515625 15.328125 5.515625 27.984375 
Q 5.515625 40.671875 11.671875 48.328125 
Q 17.828125 56 27.875 56 
Q 33.9375 56 38.28125 53.609375 
Q 42.625 51.21875 45.40625 46.390625 
L 45.40625 54.6875 
L 54.390625 54.6875 
z
" id="DejaVuSans-67"/>
      <path d="M 12.40625 8.296875 
L 28.515625 8.296875 
L 28.515625 63.921875 
L 10.984375 60.40625 
L 10.984375 69.390625 
L 28.421875 72.90625 
L 38.28125 72.90625 
L 38.28125 8.296875 
L 54.390625 8.296875 
L 54.390625 0 
L 12.40625 0 
z
" id="DejaVuSans-31"/>
      <path d="M 31 75.875 
Q 24.46875 64.65625 21.28125 53.65625 
Q 18.109375 42.671875 18.109375 31.390625 
Q 18.109375 20.125 21.3125 9.0625 
Q 24.515625 -2 31 -13.1875 
L 23.1875 -13.1875 
Q 15.875 -1.703125 12.234375 9.375 
Q 8.59375 20.453125 8.59375 31.390625 
Q 8.59375 42.28125 12.203125 53.3125 
Q 15.828125 64.359375 23.1875 75.875 
z
" id="DejaVuSans-28"/>
      <path d="M 51.125 44 
L 36.921875 44 
L 32.8125 27.6875 
L 47.125 27.6875 
z
M 43.796875 71.78125 
L 38.71875 51.515625 
L 52.984375 51.515625 
L 58.109375 71.78125 
L 65.921875 71.78125 
L 60.890625 51.515625 
L 76.125 51.515625 
L 76.125 44 
L 58.984375 44 
L 54.984375 27.6875 
L 70.515625 27.6875 
L 70.515625 20.21875 
L 53.078125 20.21875 
L 48 0 
L 40.1875 0 
L 45.21875 20.21875 
L 30.90625 20.21875 
L 25.875 0 
L 18.015625 0 
L 23.09375 20.21875 
L 7.71875 20.21875 
L 7.71875 27.6875 
L 24.90625 27.6875 
L 29 44 
L 13.28125 44 
L 13.28125 51.515625 
L 30.90625 51.515625 
L 35.890625 71.78125 
z
" id="DejaVuSans-23"/>
      <path id="DejaVuSans-20"/>
      <path d="M 37.109375 75.984375 
L 37.109375 68.5 
L 28.515625 68.5 
Q 23.6875 68.5 21.796875 66.546875 
Q 19.921875 64.59375 19.921875 59.515625 
L 19.921875 54.6875 
L 34.71875 54.6875 
L 34.71875 47.703125 
L 19.921875 47.703125 
L 19.921875 0 
L 10.890625 0 
L 10.890625 47.703125 
L 2.296875 47.703125 
L 2.296875 54.6875 
L 10.890625 54.6875 
L 10.890625 58.5 
Q 10.890625 67.625 15.140625 71.796875 
Q 19.390625 75.984375 28.609375 75.984375 
z
" id="DejaVuSans-66"/>
      <path d="M 4.890625 31.390625 
L 31.203125 31.390625 
L 31.203125 23.390625 
L 4.890625 23.390625 
z
" id="DejaVuSans-2d"/>
      <path d="M 56.203125 29.59375 
L 56.203125 25.203125 
L 14.890625 25.203125 
Q 15.484375 15.921875 20.484375 11.0625 
Q 25.484375 6.203125 34.421875 6.203125 
Q 39.59375 6.203125 44.453125 7.46875 
Q 49.3125 8.734375 54.109375 11.28125 
L 54.109375 2.78125 
Q 49.265625 0.734375 44.1875 -0.34375 
Q 39.109375 -1.421875 33.890625 -1.421875 
Q 20.796875 -1.421875 13.15625 6.1875 
Q 5.515625 13.8125 5.515625 26.8125 
Q 5.515625 40.234375 12.765625 48.109375 
Q 20.015625 56 32.328125 56 
Q 43.359375 56 49.78125 48.890625 
Q 56.203125 41.796875 56.203125 29.59375 
z
M 47.21875 32.234375 
Q 47.125 39.59375 43.09375 43.984375 
Q 39.0625 48.390625 32.421875 48.390625 
Q 24.90625 48.390625 20.390625 44.140625 
Q 15.875 39.890625 15.1875 32.171875 
z
" id="DejaVuSans-65"/>
      <path d="M 2.984375 54.6875 
L 12.5 54.6875 
L 29.59375 8.796875 
L 46.6875 54.6875 
L 56.203125 54.6875 
L 35.6875 0 
L 23.484375 0 
z
" id="DejaVuSans-76"/>
      <path d="M 34.28125 27.484375 
Q 23.390625 27.484375 19.1875 25 
Q 14.984375 22.515625 14.984375 16.5 
Q 14.984375 11.71875 18.140625 8.90625 
Q 21.296875 6.109375 26.703125 6.109375 
Q 34.1875 6.109375 38.703125 11.40625 
Q 43.21875 16.703125 43.21875 25.484375 
L 43.21875 27.484375 
z
M 52.203125 31.203125 
L 52.203125 0 
L 43.21875 0 
L 43.21875 8.296875 
Q 40.140625 3.328125 35.546875 0.953125 
Q 30.953125 -1.421875 24.3125 -1.421875 
Q 15.921875 -1.421875 10.953125 3.296875 
Q 6 8.015625 6 15.921875 
Q 6 25.140625 12.171875 29.828125 
Q 18.359375 34.515625 30.609375 34.515625 
L 43.21875 34.515625 
L 43.21875 35.40625 
Q 43.21875 41.609375 39.140625 45 
Q 35.0625 48.390625 27.6875 48.390625 
Q 23 48.390625 18.546875 47.265625 
Q 14.109375 46.140625 10.015625 43.890625 
L 10.015625 52.203125 
Q 14.9375 54.109375 19.578125 55.046875 
Q 24.21875 56 28.609375 56 
Q 40.484375 56 46.34375 49.84375 
Q 52.203125 43.703125 52.203125 31.203125 
z
" id="DejaVuSans-61"/>
      <path d="M 44.28125 53.078125 
L 44.28125 44.578125 
Q 40.484375 46.53125 36.375 47.5 
Q 32.28125 48.484375 27.875 48.484375 
Q 21.1875 48.484375 17.84375 46.4375 
Q 14.5 44.390625 14.5 40.28125 
Q 14.5 37.15625 16.890625 35.375 
Q 19.28125 33.59375 26.515625 31.984375 
L 29.59375 31.296875 
Q 39.15625 29.25 43.1875 25.515625 
Q 47.21875 21.78125 47.21875 15.09375 
Q 47.21875 7.46875 41.1875 3.015625 
Q 35.15625 -1.421875 24.609375 -1.421875 
Q 20.21875 -1.421875 15.453125 -0.5625 
Q 10.6875 0.296875 5.421875 2 
L 5.421875 11.28125 
Q 10.40625 8.6875 15.234375 7.390625 
Q 20.0625 6.109375 24.8125 6.109375 
Q 31.15625 6.109375 34.5625 8.28125 
Q 37.984375 10.453125 37.984375 14.40625 
Q 37.984375 18.0625 35.515625 20.015625 
Q 33.0625 21.96875 24.703125 23.78125 
L 21.578125 24.515625 
Q 13.234375 26.265625 9.515625 29.90625 
Q 5.8125 33.546875 5.8125 39.890625 
Q 5.8125 47.609375 11.28125 51.796875 
Q 16.75 56 26.8125 56 
Q 31.78125 56 36.171875 55.265625 
Q 40.578125 54.546875 44.28125 53.078125 
z
" id="DejaVuSans-73"/>
      <path d="M 25.390625 72.90625 
L 33.6875 72.90625 
L 8.296875 -9.28125 
L 0 -9.28125 
z
" id="DejaVuSans-2f"/>
      <path d="M 45.40625 46.390625 
L 45.40625 75.984375 
L 54.390625 75.984375 
L 54.390625 0 
L 45.40625 0 
L 45.40625 8.203125 
Q 42.578125 3.328125 38.25 0.953125 
Q 33.9375 -1.421875 27.875 -1.421875 
Q 17.96875 -1.421875 11.734375 6.484375 
Q 5.515625 14.40625 5.515625 27.296875 
Q 5.515625 40.1875 11.734375 48.09375 
Q 17.96875 56 27.875 56 
Q 33.9375 56 38.25 53.625 
Q 42.578125 51.265625 45.40625 46.390625 
z
M 14.796875 27.296875 
Q 14.796875 17.390625 18.875 11.75 
Q 22.953125 6.109375 30.078125 6.109375 
Q 37.203125 6.109375 41.296875 11.75 
Q 45.40625 17.390625 45.40625 27.296875 
Q 45.40625 37.203125 41.296875 42.84375 
Q 37.203125 48.484375 30.078125 48.484375 
Q 22.953125 48.484375 18.875 42.84375 
Q 14.796875 37.203125 14.796875 27.296875 
z
" id="DejaVuSans-64"/>
      <path d="M 9.421875 54.6875 
L 18.40625 54.6875 
L 18.40625 0 
L 9.421875 0 
z
M 9.421875 75.984375 
L 18.40625 75.984375 
L 18.40625 64.59375 
L 9.421875 64.59375 
z
" id="DejaVuSans-69"/>
      <path d="M 52 44.1875 
Q 55.375 50.25 60.0625 53.125 
Q 64.75 56 71.09375 56 
Q 79.640625 56 84.28125 50.015625 
Q 88.921875 44.046875 88.921875 33.015625 
L 88.921875 0 
L 79.890625 0 
L 79.890625 32.71875 
Q 79.890625 40.578125 77.09375 44.375 
Q 74.3125 48.1875 68.609375 48.1875 
Q 61.625 48.1875 57.5625 43.546875 
Q 53.515625 38.921875 53.515625 30.90625 
L 53.515625 0 
L 44.484375 0 
L 44.484375 32.71875 
Q 44.484375 40.625 41.703125 44.40625 
Q 38.921875 48.1875 33.109375 48.1875 
Q 26.21875 48.1875 22.15625 43.53125 
Q 18.109375 38.875 18.109375 30.90625 
L 18.109375 0 
L 9.078125 0 
L 9.078125 54.6875 
L 18.109375 54.6875 
L 18.109375 46.1875 
Q 21.1875 51.21875 25.484375 53.609375 
Q 29.78125 56 35.6875 56 
Q 41.65625 56 45.828125 52.96875 
Q 50 49.953125 52 44.1875 
z
" id="DejaVuSans-6d"/>
      <path d="M 54.890625 33.015625 
L 54.890625 0 
L 45.90625 0 
L 45.90625 32.71875 
Q 45.90625 40.484375 42.875 44.328125 
Q 39.84375 48.1875 33.796875 48.1875 
Q 26.515625 48.1875 22.3125 43.546875 
Q 18.109375 38.921875 18.109375 30.90625 
L 18.109375 0 
L 9.078125 0 
L 9.078125 54.6875 
L 18.109375 54.6875 
L 18.109375 46.1875 
Q 21.34375 51.125 25.703125 53.5625 
Q 30.078125 56 35.796875 56 
Q 45.21875 56 50.046875 50.171875 
Q 54.890625 44.34375 54.890625 33.015625 
z
" id="DejaVuSans-6e"/>
      <path d="M 8.015625 75.875 
L 15.828125 75.875 
Q 23.140625 64.359375 26.78125 53.3125 
Q 30.421875 42.28125 30.421875 31.390625 
Q 30.421875 20.453125 26.78125 9.375 
Q 23.140625 -1.703125 15.828125 -13.1875 
L 8.015625 -13.1875 
Q 14.5 -2 17.703125 9.0625 
Q 20.90625 20.125 20.90625 31.390625 
Q 20.90625 42.671875 17.703125 53.65625 
Q 14.5 64.65625 8.015625 75.875 
z
" id="DejaVuSans-29"/>
     </defs>
     <g transform="translate(107.211219 338.153594)scale(0.17 -0.17)">
      <use xlink:href="#DejaVuSans-6c"/>
      <use x="27.783203" xlink:href="#DejaVuSans-6f"/>
      <use x="88.964844" xlink:href="#DejaVuSans-67"/>
      <use x="152.441406" xlink:href="#DejaVuSans-31"/>
      <use x="216.064453" xlink:href="#DejaVuSans-30"/>
      <use x="279.6875" xlink:href="#DejaVuSans-28"/>
      <use x="318.701172" xlink:href="#DejaVuSans-23"/>
      <use x="402.490234" xlink:href="#DejaVuSans-20"/>
      <use x="434.277344" xlink:href="#DejaVuSans-66"/>
      <use x="469.404297" xlink:href="#DejaVuSans-2d"/>
      <use x="505.488281" xlink:href="#DejaVuSans-65"/>
      <use x="567.011719" xlink:href="#DejaVuSans-76"/>
      <use x="626.191406" xlink:href="#DejaVuSans-61"/>
      <use x="687.470703" xlink:href="#DejaVuSans-6c"/>
      <use x="715.253906" xlink:href="#DejaVuSans-73"/>
      <use x="767.353516" xlink:href="#DejaVuSans-20"/>
      <use x="799.140625" xlink:href="#DejaVuSans-2f"/>
      <use x="832.832031" xlink:href="#DejaVuSans-20"/>
      <use x="864.619141" xlink:href="#DejaVuSans-64"/>
      <use x="928.095703" xlink:href="#DejaVuSans-69"/>
      <use x="955.878906" xlink:href="#DejaVuSans-6d"/>
      <use x="1053.291016" xlink:href="#DejaVuSans-65"/>
      <use x="1114.814453" xlink:href="#DejaVuSans-6e"/>
      <use x="1178.193359" xlink:href="#DejaVuSans-73"/>
      <use x="1230.292969" xlink:href="#DejaVuSans-69"/>
      <use x="1258.076172" xlink:href="#DejaVuSans-6f"/>
      <use x="1319.257812" xlink:href="#DejaVuSans-6e"/>
      <use x="1382.636719" xlink:href="#DejaVuSans-29"/>
     </g>
    </g>
   </g>
   <g id="matplotlib.axis_2">
    <g id="ytick_1">
     <g id="line2d_14">
      <path clip-path="url(#p0f484978d6)" d="M 56.12 294.88 
L 399.984 294.88 
" style="fill:none;stroke:#b0b0b0;stroke-linecap:square;stroke-width:0.8;"/>
     </g>
     <g id="line2d_15">
      <defs>
       <path d="M 0 0 
L -3.5 0 
" id="m56e4661235" style="stroke:#000000;stroke-width:0.8;"/>
      </defs>
      <g>
       <use style="stroke:#000000;stroke-width:0.8;" x="56.12" xlink:href="#m56e4661235" y="294.88"/>
      </g>
     </g>
     <g id="text_7">
      <!-- 0.0 -->
      <defs>
       <path d="M 10.6875 12.40625 
L 21 12.40625 
L 21 0 
L 10.6875 0 
z
" id="DejaVuSans-2e"/>
      </defs>
      <g transform="translate(23.675 300.95875)scale(0.16 -0.16)">
       <use xlink:href="#DejaVuSans-30"/>
       <use x="63.623047" xlink:href="#DejaVuSans-2e"/>
       <use x="95.410156" xlink:href="#DejaVuSans-30"/>
      </g>
     </g>
    </g>
    <g id="ytick_2">
     <g id="line2d_16">
      <path clip-path="url(#p0f484978d6)" d="M 56.12 241.406733 
L 399.984 241.406733 
" style="fill:none;stroke:#b0b0b0;stroke-linecap:square;stroke-width:0.8;"/>
     </g>
     <g id="line2d_17">
      <g>
       <use style="stroke:#000000;stroke-width:0.8;" x="56.12" xlink:href="#m56e4661235" y="241.406733"/>
      </g>
     </g>
     <g id="text_8">
      <!-- 0.2 -->
      <g transform="translate(23.675 247.485483)scale(0.16 -0.16)">
       <use xlink:href="#DejaVuSans-30"/>
       <use x="63.623047" xlink:href="#DejaVuSans-2e"/>
       <use x="95.410156" xlink:href="#DejaVuSans-32"/>
      </g>
     </g>
    </g>
    <g id="ytick_3">
     <g id="line2d_18">
      <path clip-path="url(#p0f484978d6)" d="M 56.12 187.933465 
L 399.984 187.933465 
" style="fill:none;stroke:#b0b0b0;stroke-linecap:square;stroke-width:0.8;"/>
     </g>
     <g id="line2d_19">
      <g>
       <use style="stroke:#000000;stroke-width:0.8;" x="56.12" xlink:href="#m56e4661235" y="187.933465"/>
      </g>
     </g>
     <g id="text_9">
      <!-- 0.4 -->
      <g transform="translate(23.675 194.012215)scale(0.16 -0.16)">
       <use xlink:href="#DejaVuSans-30"/>
       <use x="63.623047" xlink:href="#DejaVuSans-2e"/>
       <use x="95.410156" xlink:href="#DejaVuSans-34"/>
      </g>
     </g>
    </g>
    <g id="ytick_4">
     <g id="line2d_20">
      <path clip-path="url(#p0f484978d6)" d="M 56.12 134.460198 
L 399.984 134.460198 
" style="fill:none;stroke:#b0b0b0;stroke-linecap:square;stroke-width:0.8;"/>
     </g>
     <g id="line2d_21">
      <g>
       <use style="stroke:#000000;stroke-width:0.8;" x="56.12" xlink:href="#m56e4661235" y="134.460198"/>
      </g>
     </g>
     <g id="text_10">
      <!-- 0.6 -->
      <g transform="translate(23.675 140.538948)scale(0.16 -0.16)">
       <use xlink:href="#DejaVuSans-30"/>
       <use x="63.623047" xlink:href="#DejaVuSans-2e"/>
       <use x="95.410156" xlink:href="#DejaVuSans-36"/>
      </g>
     </g>
    </g>
    <g id="ytick_5">
     <g id="line2d_22">
      <path clip-path="url(#p0f484978d6)" d="M 56.12 80.986931 
L 399.984 80.986931 
" style="fill:none;stroke:#b0b0b0;stroke-linecap:square;stroke-width:0.8;"/>
     </g>
     <g id="line2d_23">
      <g>
       <use style="stroke:#000000;stroke-width:0.8;" x="56.12" xlink:href="#m56e4661235" y="80.986931"/>
      </g>
     </g>
     <g id="text_11">
      <!-- 0.8 -->
      <g transform="translate(23.675 87.065681)scale(0.16 -0.16)">
       <use xlink:href="#DejaVuSans-30"/>
       <use x="63.623047" xlink:href="#DejaVuSans-2e"/>
       <use x="95.410156" xlink:href="#DejaVuSans-38"/>
      </g>
     </g>
    </g>
    <g id="ytick_6">
     <g id="line2d_24">
      <path clip-path="url(#p0f484978d6)" d="M 56.12 27.513663 
L 399.984 27.513663 
" style="fill:none;stroke:#b0b0b0;stroke-linecap:square;stroke-width:0.8;"/>
     </g>
     <g id="line2d_25">
      <g>
       <use style="stroke:#000000;stroke-width:0.8;" x="56.12" xlink:href="#m56e4661235" y="27.513663"/>
      </g>
     </g>
     <g id="text_12">
      <!-- 1.0 -->
      <g transform="translate(23.675 33.592413)scale(0.16 -0.16)">
       <use xlink:href="#DejaVuSans-31"/>
       <use x="63.623047" xlink:href="#DejaVuSans-2e"/>
       <use x="95.410156" xlink:href="#DejaVuSans-30"/>
      </g>
     </g>
    </g>
    <g id="text_13">
     <!-- Fraction of function,target pairs -->
     <defs>
      <path d="M 9.8125 72.90625 
L 51.703125 72.90625 
L 51.703125 64.59375 
L 19.671875 64.59375 
L 19.671875 43.109375 
L 48.578125 43.109375 
L 48.578125 34.8125 
L 19.671875 34.8125 
L 19.671875 0 
L 9.8125 0 
z
" id="DejaVuSans-46"/>
      <path d="M 41.109375 46.296875 
Q 39.59375 47.171875 37.8125 47.578125 
Q 36.03125 48 33.890625 48 
Q 26.265625 48 22.1875 43.046875 
Q 18.109375 38.09375 18.109375 28.8125 
L 18.109375 0 
L 9.078125 0 
L 9.078125 54.6875 
L 18.109375 54.6875 
L 18.109375 46.1875 
Q 20.953125 51.171875 25.484375 53.578125 
Q 30.03125 56 36.53125 56 
Q 37.453125 56 38.578125 55.875 
Q 39.703125 55.765625 41.0625 55.515625 
z
" id="DejaVuSans-72"/>
      <path d="M 48.78125 52.59375 
L 48.78125 44.1875 
Q 44.96875 46.296875 41.140625 47.34375 
Q 37.3125 48.390625 33.40625 48.390625 
Q 24.65625 48.390625 19.8125 42.84375 
Q 14.984375 37.3125 14.984375 27.296875 
Q 14.984375 17.28125 19.8125 11.734375 
Q 24.65625 6.203125 33.40625 6.203125 
Q 37.3125 6.203125 41.140625 7.25 
Q 44.96875 8.296875 48.78125 10.40625 
L 48.78125 2.09375 
Q 45.015625 0.34375 40.984375 -0.53125 
Q 36.96875 -1.421875 32.421875 -1.421875 
Q 20.0625 -1.421875 12.78125 6.34375 
Q 5.515625 14.109375 5.515625 27.296875 
Q 5.515625 40.671875 12.859375 48.328125 
Q 20.21875 56 33.015625 56 
Q 37.15625 56 41.109375 55.140625 
Q 45.0625 54.296875 48.78125 52.59375 
z
" id="DejaVuSans-63"/>
      <path d="M 18.3125 70.21875 
L 18.3125 54.6875 
L 36.8125 54.6875 
L 36.8125 47.703125 
L 18.3125 47.703125 
L 18.3125 18.015625 
Q 18.3125 11.328125 20.140625 9.421875 
Q 21.96875 7.515625 27.59375 7.515625 
L 36.8125 7.515625 
L 36.8125 0 
L 27.59375 0 
Q 17.1875 0 13.234375 3.875 
Q 9.28125 7.765625 9.28125 18.015625 
L 9.28125 47.703125 
L 2.6875 47.703125 
L 2.6875 54.6875 
L 9.28125 54.6875 
L 9.28125 70.21875 
z
" id="DejaVuSans-74"/>
      <path d="M 8.5 21.578125 
L 8.5 54.6875 
L 17.484375 54.6875 
L 17.484375 21.921875 
Q 17.484375 14.15625 20.5 10.265625 
Q 23.53125 6.390625 29.59375 6.390625 
Q 36.859375 6.390625 41.078125 11.03125 
Q 45.3125 15.671875 45.3125 23.6875 
L 45.3125 54.6875 
L 54.296875 54.6875 
L 54.296875 0 
L 45.3125 0 
L 45.3125 8.40625 
Q 42.046875 3.421875 37.71875 1 
Q 33.40625 -1.421875 27.6875 -1.421875 
Q 18.265625 -1.421875 13.375 4.4375 
Q 8.5 10.296875 8.5 21.578125 
z
M 31.109375 56 
z
" id="DejaVuSans-75"/>
      <path d="M 11.71875 12.40625 
L 22.015625 12.40625 
L 22.015625 4 
L 14.015625 -11.625 
L 7.71875 -11.625 
L 11.71875 4 
z
" id="DejaVuSans-2c"/>
      <path d="M 18.109375 8.203125 
L 18.109375 -20.796875 
L 9.078125 -20.796875 
L 9.078125 54.6875 
L 18.109375 54.6875 
L 18.109375 46.390625 
Q 20.953125 51.265625 25.265625 53.625 
Q 29.59375 56 35.59375 56 
Q 45.5625 56 51.78125 48.09375 
Q 58.015625 40.1875 58.015625 27.296875 
Q 58.015625 14.40625 51.78125 6.484375 
Q 45.5625 -1.421875 35.59375 -1.421875 
Q 29.59375 -1.421875 25.265625 0.953125 
Q 20.953125 3.328125 18.109375 8.203125 
z
M 48.6875 27.296875 
Q 48.6875 37.203125 44.609375 42.84375 
Q 40.53125 48.484375 33.40625 48.484375 
Q 26.265625 48.484375 22.1875 42.84375 
Q 18.109375 37.203125 18.109375 27.296875 
Q 18.109375 17.390625 22.1875 11.75 
Q 26.265625 6.109375 33.40625 6.109375 
Q 40.53125 6.109375 44.609375 11.75 
Q 48.6875 17.390625 48.6875 27.296875 
z
" id="DejaVuSans-70"/>
     </defs>
     <g transform="translate(16.139531 294.999375)rotate(-90)scale(0.17 -0.17)">
      <use xlink:href="#DejaVuSans-46"/>
      <use x="57.410156" xlink:href="#DejaVuSans-72"/>
      <use x="98.523438" xlink:href="#DejaVuSans-61"/>
      <use x="159.802734" xlink:href="#DejaVuSans-63"/>
      <use x="214.783203" xlink:href="#DejaVuSans-74"/>
      <use x="253.992188" xlink:href="#DejaVuSans-69"/>
      <use x="281.775391" xlink:href="#DejaVuSans-6f"/>
      <use x="342.957031" xlink:href="#DejaVuSans-6e"/>
      <use x="406.335938" xlink:href="#DejaVuSans-20"/>
      <use x="438.123047" xlink:href="#DejaVuSans-6f"/>
      <use x="499.304688" xlink:href="#DejaVuSans-66"/>
      <use x="534.509766" xlink:href="#DejaVuSans-20"/>
      <use x="566.296875" xlink:href="#DejaVuSans-66"/>
      <use x="601.501953" xlink:href="#DejaVuSans-75"/>
      <use x="664.880859" xlink:href="#DejaVuSans-6e"/>
      <use x="728.259766" xlink:href="#DejaVuSans-63"/>
      <use x="783.240234" xlink:href="#DejaVuSans-74"/>
      <use x="822.449219" xlink:href="#DejaVuSans-69"/>
      <use x="850.232422" xlink:href="#DejaVuSans-6f"/>
      <use x="911.414062" xlink:href="#DejaVuSans-6e"/>
      <use x="974.792969" xlink:href="#DejaVuSans-2c"/>
      <use x="1006.580078" xlink:href="#DejaVuSans-74"/>
      <use x="1045.789062" xlink:href="#DejaVuSans-61"/>
      <use x="1107.068359" xlink:href="#DejaVuSans-72"/>
      <use x="1148.166016" xlink:href="#DejaVuSans-67"/>
      <use x="1211.642578" xlink:href="#DejaVuSans-65"/>
      <use x="1273.166016" xlink:href="#DejaVuSans-74"/>
      <use x="1312.375" xlink:href="#DejaVuSans-20"/>
      <use x="1344.162109" xlink:href="#DejaVuSans-70"/>
      <use x="1407.638672" xlink:href="#DejaVuSans-61"/>
      <use x="1468.917969" xlink:href="#DejaVuSans-69"/>
      <use x="1496.701172" xlink:href="#DejaVuSans-72"/>
      <use x="1537.814453" xlink:href="#DejaVuSans-73"/>
     </g>
    </g>
   </g>
   <g id="line2d_26">
    <defs>
     <path d="M 0 1.5 
C 0.397805 1.5 0.77937 1.341951 1.06066 1.06066 
C 1.341951 0.77937 1.5 0.397805 1.5 0 
C 1.5 -0.397805 1.341951 -0.77937 1.06066 -1.06066 
C 0.77937 -1.341951 0.397805 -1.5 0 -1.5 
C -0.397805 -1.5 -0.77937 -1.341951 -1.06066 -1.06066 
C -1.341951 -0.77937 -1.5 -0.397805 -1.5 0 
C -1.5 0.397805 -1.341951 0.77937 -1.06066 1.06066 
C -0.77937 1.341951 -0.397805 1.5 0 1.5 
z
" id="mec64c1c54a" style="stroke:#f5deb3;"/>
    </defs>
    <g>
     <use style="fill:#f5deb3;stroke:#f5deb3;" x="311.671779" xlink:href="#mec64c1c54a" y="27.513663"/>
     <use style="fill:#f5deb3;stroke:#f5deb3;" x="311.671779" xlink:href="#mec64c1c54a" y="27.513663"/>
    </g>
   </g>
   <g id="line2d_27">
    <g>
     <use style="fill:#f5deb3;stroke:#f5deb3;stroke-linejoin:miter;stroke-width:1.5;" x="311.661536" xlink:href="#m159894b19e" y="195.272933"/>
     <use style="fill:#f5deb3;stroke:#f5deb3;stroke-linejoin:miter;stroke-width:1.5;" x="311.668533" xlink:href="#m159894b19e" y="85.180912"/>
     <use style="fill:#f5deb3;stroke:#f5deb3;stroke-linejoin:miter;stroke-width:1.5;" x="311.671779" xlink:href="#m159894b19e" y="27.513663"/>
     <use style="fill:#f5deb3;stroke:#f5deb3;stroke-linejoin:miter;stroke-width:1.5;" x="333.429677" xlink:href="#m159894b19e" y="27.513663"/>
    </g>
   </g>
   <g id="line2d_28">
    <defs>
     <path d="M 0 1.5 
C 0.397805 1.5 0.77937 1.341951 1.06066 1.06066 
C 1.341951 0.77937 1.5 0.397805 1.5 0 
C 1.5 -0.397805 1.341951 -0.77937 1.06066 -1.06066 
C 0.77937 -1.341951 0.397805 -1.5 0 -1.5 
C -0.397805 -1.5 -0.77937 -1.341951 -1.06066 -1.06066 
C -1.341951 -0.77937 -1.5 -0.397805 -1.5 0 
C -1.5 0.397805 -1.341951 0.77937 -1.06066 1.06066 
C -0.77937 1.341951 -0.397805 1.5 0 1.5 
z
" id="m72375bd8f8" style="stroke:#999999;"/>
    </defs>
    <g/>
   </g>
   <g id="line2d_29">
    <path d="M -1 289.637523 
L 333.429677 289.637523 
" style="fill:none;stroke:#999999;stroke-linecap:square;stroke-width:1.5;"/>
   </g>
   <g id="line2d_30"/>
   <g id="line2d_31">
    <path d="M 0 0 
" style="fill:none;stroke:#999999;stroke-linecap:square;stroke-width:1.5;"/>
   </g>
   <g id="line2d_32">
    <path clip-path="url(#p0f484978d6)" d="M 258.037496 289.637523 
" style="fill:none;stroke:#999999;stroke-linecap:square;stroke-width:1.5;"/>
    <defs>
     <path d="M -12 12 
L 12 -12 
M -12 -12 
L 12 12 
" id="maf0d6123d8" style="stroke:#999999;stroke-width:3;"/>
    </defs>
    <g clip-path="url(#p0f484978d6)">
     <use style="fill:#999999;stroke:#999999;stroke-width:3;" x="258.037496" xlink:href="#maf0d6123d8" y="289.637523"/>
    </g>
   </g>
   <g id="line2d_33">
    <g>
     <use style="fill:#999999;stroke:#999999;" x="362.541099" xlink:href="#m72375bd8f8" y="27.513663"/>
     <use style="fill:#999999;stroke:#999999;" x="362.541099" xlink:href="#m72375bd8f8" y="27.513663"/>
    </g>
   </g>
   <g id="line2d_34">
    <path d="M -1 289.637523 
L 169.8434 289.637523 
L 169.8434 289.113275 
L 221.333545 289.113275 
L 221.333545 288.06478 
L 234.974493 288.06478 
L 234.974493 287.540532 
L 238.243293 287.540532 
L 238.243293 287.016284 
L 247.114682 287.016284 
L 247.114682 285.967789 
L 249.058397 285.967789 
L 249.058397 284.919293 
L 250.941601 284.919293 
L 250.941601 284.395046 
L 254.484944 284.395046 
L 254.484944 283.34655 
L 255.629906 283.34655 
L 255.629906 282.822302 
L 256.102365 282.822302 
L 256.102365 281.773807 
L 258.441412 281.773807 
L 258.441412 281.249559 
L 258.841219 281.249559 
L 258.841219 280.725312 
L 259.105098 280.725312 
L 259.105098 279.676816 
L 261.450771 279.676816 
L 261.450771 279.152568 
L 262.901938 279.152568 
L 262.901938 278.104073 
L 268.716975 278.104073 
L 268.791158 277.055578 
L 268.840869 277.055578 
L 268.840869 276.53133 
L 269.100989 276.53133 
L 269.197083 274.434339 
L 269.237705 274.434339 
L 269.237705 273.385844 
L 269.428928 273.385844 
L 269.506419 271.8131 
L 269.656934 271.8131 
L 269.753963 269.191862 
L 269.90549 269.191862 
L 269.912739 268.143366 
L 270.215041 268.143366 
L 270.215041 267.619119 
L 270.348874 267.619119 
L 270.386318 266.046375 
L 270.464022 266.046375 
L 270.536664 264.473632 
L 270.638408 264.473632 
L 270.730468 262.900889 
L 270.863414 262.900889 
L 270.953054 261.852394 
L 270.98947 261.852394 
L 271.022813 260.803898 
L 271.11602 260.803898 
L 271.137773 258.706907 
L 271.231021 258.706907 
L 271.321827 256.609917 
L 271.454625 256.609917 
L 271.534991 255.037173 
L 271.580779 255.037173 
L 271.679152 252.415935 
L 271.841929 252.415935 
L 271.924938 250.843192 
L 272.019435 250.843192 
L 272.11287 249.270448 
L 272.139323 249.270448 
L 272.212467 247.173458 
L 272.4643 247.173458 
L 272.4643 246.64921 
L 278.318671 246.64921 
L 278.318671 246.124962 
L 278.5717 246.124962 
L 278.5717 245.600714 
L 279.724461 245.600714 
L 279.802471 244.552219 
L 280.046368 244.552219 
L 280.046368 244.027971 
L 280.306662 244.027971 
L 280.306662 242.979476 
L 280.835862 242.979476 
L 280.835862 242.455228 
L 282.818518 242.455228 
L 282.818518 241.406733 
L 286.636759 241.406733 
L 286.669917 239.83399 
L 287.288704 239.83399 
L 287.288704 238.785494 
L 287.544787 238.785494 
L 287.544787 238.261246 
L 287.750709 238.261246 
L 287.750709 237.736999 
L 287.947879 237.736999 
L 287.947879 237.212751 
L 288.080746 237.212751 
L 288.080746 235.640008 
L 289.496298 235.640008 
L 289.496298 235.11576 
L 289.833111 235.11576 
L 289.833111 234.591512 
L 290.247887 234.591512 
L 290.247887 234.067265 
L 291.272515 234.067265 
L 291.272515 233.018769 
L 292.408749 233.018769 
L 292.408749 231.970274 
L 293.005948 231.970274 
L 293.005948 231.446026 
L 295.276208 231.446026 
L 295.276208 230.921778 
L 295.491554 230.921778 
L 295.491554 230.397531 
L 297.421347 230.397531 
L 297.53123 226.727797 
L 297.546801 226.727797 
L 297.655267 220.961072 
L 297.659961 220.961072 
L 297.765228 213.097356 
L 297.780114 213.097356 
L 297.890131 206.282136 
L 297.89283 206.282136 
L 297.987804 198.942667 
L 298.017333 198.942667 
L 298.126742 194.748686 
L 298.265624 194.748686 
L 298.265624 194.224438 
L 298.436997 194.224438 
L 298.436997 193.70019 
L 299.807997 193.70019 
L 299.807997 193.175943 
L 299.935956 193.175943 
L 299.935956 192.651695 
L 300.138551 192.651695 
L 300.138551 192.127447 
L 301.119802 192.127447 
L 301.119802 191.603199 
L 302.520243 191.603199 
L 302.536559 190.554704 
L 302.901688 190.554704 
L 302.901688 190.030456 
L 303.751707 190.030456 
L 303.751707 189.506209 
L 304.519656 189.506209 
L 304.519656 188.981961 
L 304.761328 188.981961 
L 304.762274 187.933465 
L 305.493725 187.933465 
L 305.493725 187.409218 
L 306.248876 187.409218 
L 306.248876 186.88497 
L 306.799388 186.88497 
L 306.799388 186.360722 
L 307.010382 186.360722 
L 307.010382 185.836474 
L 307.661318 185.836474 
L 307.77198 181.118245 
L 307.780277 181.118245 
L 307.874949 175.875768 
L 307.905373 175.875768 
L 307.979506 168.5363 
L 308.020091 168.5363 
L 308.107477 165.915061 
L 310.579426 165.915061 
L 310.579426 165.390813 
L 310.885197 165.390813 
L 310.885197 164.866566 
L 311.618498 164.866566 
L 311.618498 164.342318 
L 312.005605 164.342318 
L 312.005605 163.81807 
L 313.32025 163.81807 
L 313.32025 163.293823 
L 314.048523 163.293823 
L 314.150343 156.478602 
L 314.162345 156.478602 
L 314.261796 148.090639 
L 314.276297 148.090639 
L 314.293197 145.4694 
L 316.138668 145.4694 
L 316.189075 144.420905 
L 316.267756 144.420905 
L 316.267756 143.896657 
L 316.695625 143.896657 
L 316.695625 143.372409 
L 318.682238 143.372409 
L 318.785356 134.984446 
L 318.795038 134.984446 
L 318.858768 127.12073 
L 320.271516 127.12073 
L 320.271516 126.596482 
L 322.334473 126.596482 
L 322.436863 118.208519 
L 322.455362 118.208519 
L 322.471027 115.58728 
L 323.724734 115.58728 
L 323.724734 115.063032 
L 324.57224 115.063032 
L 324.57224 114.538785 
L 325.329446 114.538785 
L 325.438547 103.529583 
L 325.440878 103.529583 
L 325.455879 102.481087 
L 327.874612 102.481087 
L 327.985498 94.093124 
L 330.098804 94.093124 
L 330.205027 84.656665 
L 330.210097 84.656665 
L 330.21409 83.608169 
L 331.232606 83.608169 
L 331.232606 83.083922 
L 332.080033 83.083922 
L 332.165541 74.17171 
L 333.429677 74.17171 
L 333.429677 74.17171 
" style="fill:none;stroke:#999999;stroke-linecap:square;stroke-width:1.5;"/>
   </g>
   <g id="line2d_35"/>
   <g id="line2d_36">
    <path d="M 0 0 
" style="fill:none;stroke:#999999;stroke-linecap:square;stroke-width:1.5;"/>
   </g>
   <g id="line2d_37">
    <path clip-path="url(#p0f484978d6)" d="M 293.829563 231.446026 
" style="fill:none;stroke:#999999;stroke-linecap:square;stroke-width:1.5;"/>
    <g clip-path="url(#p0f484978d6)">
     <use style="fill:#999999;stroke:#999999;stroke-width:3;" x="293.829563" xlink:href="#maf0d6123d8" y="231.446026"/>
    </g>
   </g>
   <g id="line2d_38">
    <g/>
   </g>
   <g id="line2d_39">
    <path d="M -1 289.637523 
L 333.429677 289.637523 
" style="fill:none;stroke:#999999;stroke-linecap:square;stroke-width:1.5;"/>
   </g>
   <g id="line2d_40"/>
   <g id="line2d_41">
    <path d="M 0 0 
" style="fill:none;stroke:#999999;stroke-linecap:square;stroke-width:1.5;"/>
   </g>
   <g id="line2d_42">
    <path clip-path="url(#p0f484978d6)" d="M 186.892509 289.637523 
" style="fill:none;stroke:#999999;stroke-linecap:square;stroke-width:1.5;"/>
    <g clip-path="url(#p0f484978d6)">
     <use style="fill:#999999;stroke:#999999;stroke-width:3;" x="186.892509" xlink:href="#maf0d6123d8" y="289.637523"/>
    </g>
   </g>
   <g id="line2d_43">
    <g/>
   </g>
   <g id="line2d_44">
    <path d="M -1 289.637523 
L 333.429677 289.637523 
" style="fill:none;stroke:#999999;stroke-linecap:square;stroke-width:1.5;"/>
   </g>
   <g id="line2d_45"/>
   <g id="line2d_46">
    <path d="M 0 0 
" style="fill:none;stroke:#999999;stroke-linecap:square;stroke-width:1.5;"/>
   </g>
   <g id="line2d_47">
    <path clip-path="url(#p0f484978d6)" d="M 180.388618 289.637523 
" style="fill:none;stroke:#999999;stroke-linecap:square;stroke-width:1.5;"/>
    <g clip-path="url(#p0f484978d6)">
     <use style="fill:#999999;stroke:#999999;stroke-width:3;" x="180.388618" xlink:href="#maf0d6123d8" y="289.637523"/>
    </g>
   </g>
   <g id="line2d_48">
    <g>
     <use style="fill:#999999;stroke:#999999;" x="349.546733" xlink:href="#m72375bd8f8" y="27.513663"/>
     <use style="fill:#999999;stroke:#999999;" x="349.546733" xlink:href="#m72375bd8f8" y="27.513663"/>
    </g>
   </g>
   <g id="line2d_49">
    <path d="M -1 289.637523 
L 186.259479 289.637523 
L 186.259479 289.113275 
L 187.427353 289.113275 
L 187.427353 288.589027 
L 187.69113 288.589027 
L 187.69113 288.06478 
L 188.24268 288.06478 
L 188.24268 287.540532 
L 189.289051 287.540532 
L 189.289051 286.492036 
L 189.566143 286.492036 
L 189.566143 285.967789 
L 189.698558 285.967789 
L 189.698558 284.919293 
L 189.943087 284.919293 
L 189.943087 284.395046 
L 190.339253 284.395046 
L 190.442791 282.298055 
L 192.15473 282.298055 
L 192.15473 281.249559 
L 192.360354 281.249559 
L 192.360354 280.725312 
L 192.664255 280.725312 
L 192.664255 280.201064 
L 192.788665 280.201064 
L 192.788665 279.152568 
L 194.089005 279.152568 
L 194.089005 278.628321 
L 194.603821 278.628321 
L 194.603821 278.104073 
L 194.723606 278.104073 
L 194.723606 277.579825 
L 194.928784 277.579825 
L 194.928784 277.055578 
L 195.134875 277.055578 
L 195.134875 276.53133 
L 195.284604 276.53133 
L 195.284604 275.482834 
L 195.840035 275.482834 
L 195.840035 274.958587 
L 197.657325 274.958587 
L 197.657325 273.910091 
L 199.799307 273.910091 
L 199.799307 272.861596 
L 200.891513 272.861596 
L 200.891513 272.337348 
L 201.013378 272.337348 
L 201.013378 271.288853 
L 201.337877 271.288853 
L 201.337877 270.764605 
L 201.600021 270.764605 
L 201.600021 270.240357 
L 202.309232 270.240357 
L 202.309232 269.716109 
L 202.636855 269.716109 
L 202.666628 268.667614 
L 202.998123 268.667614 
L 202.998123 267.619119 
L 203.220175 267.619119 
L 203.301075 266.046375 
L 203.386544 266.046375 
L 203.387698 264.473632 
L 203.771469 264.473632 
L 203.771469 263.949385 
L 204.572375 263.949385 
L 204.611427 261.852394 
L 205.022587 261.852394 
L 205.022587 261.328146 
L 205.42078 261.328146 
L 205.42078 260.803898 
L 205.573504 260.803898 
L 205.663886 259.755403 
L 205.729563 259.755403 
L 205.762918 258.18266 
L 206.245026 258.18266 
L 206.245026 257.658412 
L 206.35931 257.658412 
L 206.371099 255.561421 
L 206.555681 255.561421 
L 206.653134 252.415935 
L 206.690873 252.415935 
L 206.725609 251.367439 
L 206.833719 251.367439 
L 206.870525 249.794696 
L 207.000067 249.794696 
L 207.000067 249.270448 
L 207.131361 249.270448 
L 207.147537 247.697705 
L 207.246382 247.697705 
L 207.34427 245.600714 
L 207.626453 245.600714 
L 207.705088 241.93098 
L 207.754413 241.93098 
L 207.754413 241.406733 
L 207.906999 241.406733 
L 207.906999 240.882485 
L 215.244965 240.882485 
L 215.244965 240.358237 
L 216.872652 240.358237 
L 216.872652 239.83399 
L 217.231951 239.83399 
L 217.231951 239.309742 
L 217.442679 239.309742 
L 217.463138 238.261246 
L 217.642542 238.261246 
L 217.642542 237.736999 
L 217.914658 237.736999 
L 217.970279 235.640008 
L 218.075331 235.640008 
L 218.106305 234.591512 
L 218.26354 234.591512 
L 218.332579 233.018769 
L 218.513902 233.018769 
L 218.569362 230.921778 
L 218.926908 230.921778 
L 219.002825 229.349035 
L 219.137395 229.349035 
L 219.137395 228.824787 
L 219.251914 228.824787 
L 219.251914 227.252044 
L 219.564938 227.252044 
L 219.564938 226.727797 
L 219.787111 226.727797 
L 219.858668 224.630806 
L 219.990439 224.630806 
L 219.990439 224.106558 
L 220.259219 224.106558 
L 220.259219 223.058063 
L 220.56839 223.058063 
L 220.652743 221.485319 
L 221.353347 221.485319 
L 221.353347 220.961072 
L 221.507385 220.961072 
L 221.507385 220.436824 
L 221.715468 220.436824 
L 221.715468 219.912576 
L 221.959403 219.912576 
L 221.959403 219.388328 
L 222.269046 219.388328 
L 222.269046 218.864081 
L 223.016417 218.864081 
L 223.016417 218.339833 
L 223.329949 218.339833 
L 223.329949 217.815585 
L 225.08959 217.815585 
L 225.08959 217.291338 
L 226.10868 217.291338 
L 226.10868 215.718594 
L 229.776876 215.718594 
L 229.776876 215.194347 
L 230.893363 215.194347 
L 230.893363 214.145851 
L 231.070951 214.145851 
L 231.070951 213.621604 
L 231.647811 213.621604 
L 231.752506 212.573108 
L 231.863013 212.573108 
L 231.893407 211.524613 
L 231.998483 211.524613 
L 232.09787 210.476117 
L 232.813356 210.476117 
L 232.813356 209.95187 
L 253.449955 209.95187 
L 253.449955 208.379126 
L 254.14535 208.379126 
L 254.14535 207.854879 
L 255.292356 207.854879 
L 255.292356 207.330631 
L 255.635842 207.330631 
L 255.676885 206.282136 
L 255.926506 206.282136 
L 255.97911 204.185145 
L 256.433729 204.185145 
L 256.433729 203.660897 
L 256.794887 203.660897 
L 256.794887 202.612401 
L 260.065008 202.612401 
L 260.098752 199.991163 
L 263.222735 199.991163 
L 263.222735 199.466915 
L 265.268238 199.466915 
L 265.268238 198.942667 
L 266.587348 198.942667 
L 266.587348 197.894172 
L 267.09203 197.894172 
L 267.09203 197.369924 
L 267.288432 197.369924 
L 267.288432 196.845677 
L 267.805768 196.845677 
L 267.805768 196.321429 
L 267.970186 196.321429 
L 267.970186 195.797181 
L 268.590837 195.797181 
L 268.590837 195.272933 
L 268.732143 195.272933 
L 268.732143 194.748686 
L 269.425184 194.748686 
L 269.425184 194.224438 
L 270.680594 194.224438 
L 270.680594 193.70019 
L 284.233792 193.70019 
L 284.233792 193.175943 
L 284.898988 193.175943 
L 284.898988 192.651695 
L 286.789264 192.651695 
L 286.789264 192.127447 
L 288.712064 192.127447 
L 288.802532 189.506209 
L 289.005518 189.506209 
L 289.038485 188.457713 
L 290.569477 188.457713 
L 290.655516 187.409218 
L 290.865328 187.409218 
L 290.865328 186.88497 
L 291.219904 186.88497 
L 291.296887 182.16674 
L 291.475122 182.16674 
L 291.552494 178.497006 
L 292.345824 178.497006 
L 292.345824 177.972759 
L 292.465794 177.972759 
L 292.465794 177.448511 
L 292.744726 177.448511 
L 292.744726 176.924263 
L 292.969766 176.924263 
L 292.969766 176.400016 
L 293.454836 176.400016 
L 293.454836 175.875768 
L 293.938484 175.875768 
L 294.010613 171.157538 
L 294.169316 171.157538 
L 294.179677 170.109043 
L 294.709336 170.109043 
L 294.767356 167.487804 
L 294.885153 167.487804 
L 294.911906 166.439309 
L 295.29059 166.439309 
L 295.351756 159.624089 
L 295.465527 159.624089 
L 295.50572 157.527098 
L 296.826511 157.527098 
L 296.937622 154.905859 
L 296.956969 154.905859 
L 297.05709 153.333116 
L 297.087337 153.333116 
L 297.091657 152.28462 
L 297.304489 152.28462 
L 297.304489 151.760373 
L 299.170187 151.760373 
L 299.280932 150.18763 
L 299.285917 150.18763 
L 299.285917 149.663382 
L 301.610911 149.663382 
L 301.610911 149.139134 
L 301.845645 149.139134 
L 301.938527 148.090639 
L 302.190162 148.090639 
L 302.190162 147.566391 
L 302.581417 147.566391 
L 302.581417 147.042143 
L 302.913496 147.042143 
L 302.959453 145.4694 
L 303.251968 145.4694 
L 303.358757 143.372409 
L 303.381406 143.372409 
L 303.460215 141.799666 
L 303.905192 141.799666 
L 303.909064 140.226923 
L 304.225721 140.226923 
L 304.270649 139.178427 
L 304.537925 139.178427 
L 304.537925 138.65418 
L 304.685338 138.65418 
L 304.692203 137.605684 
L 304.985885 137.605684 
L 305.005615 135.508693 
L 305.221271 135.508693 
L 305.311629 133.93595 
L 305.342279 133.93595 
L 305.427561 131.314712 
L 305.49886 131.314712 
L 305.49886 130.790464 
L 305.870721 130.790464 
L 305.963786 128.693473 
L 306.132418 128.693473 
L 306.240337 127.12073 
L 306.338436 127.12073 
L 306.41321 125.547987 
L 306.61894 125.547987 
L 306.707507 123.450996 
L 306.914311 123.450996 
L 306.930098 122.4025 
L 307.364855 122.4025 
L 307.421769 120.829757 
L 307.550871 120.829757 
L 307.628942 119.781262 
L 307.773286 119.781262 
L 307.773286 119.257014 
L 308.037123 119.257014 
L 308.037766 118.208519 
L 308.96822 118.208519 
L 309.069993 115.58728 
L 309.729645 115.58728 
L 309.729645 115.063032 
L 309.890407 115.063032 
L 309.978243 113.490289 
L 310.842571 113.490289 
L 310.842571 112.966042 
L 311.195793 112.966042 
L 311.195793 112.441794 
L 311.379523 112.441794 
L 311.462497 110.344803 
L 311.512485 110.344803 
L 311.512485 109.820555 
L 311.686089 109.820555 
L 311.780331 108.77206 
L 311.837104 108.77206 
L 311.837104 108.247812 
L 311.963411 108.247812 
L 312.03692 107.199317 
L 312.303511 107.199317 
L 312.303511 106.675069 
L 312.460343 106.675069 
L 312.460343 106.150821 
L 312.577533 106.150821 
L 312.662415 105.102326 
L 312.711435 105.102326 
L 312.80864 104.05383 
L 312.890893 104.05383 
L 312.971089 102.481087 
L 313.124244 102.481087 
L 313.124244 101.956839 
L 313.322807 101.956839 
L 313.432047 99.335601 
L 313.445383 99.335601 
L 313.54368 97.762858 
L 313.575804 97.762858 
L 313.575804 97.23861 
L 313.801218 97.23861 
L 313.801218 96.714362 
L 314.042555 96.714362 
L 314.131988 95.141619 
L 314.403322 95.141619 
L 314.403897 94.093124 
L 314.517614 94.093124 
L 314.517614 93.568876 
L 314.77043 93.568876 
L 314.825541 91.996133 
L 314.969781 91.996133 
L 314.980656 90.947637 
L 315.140316 90.947637 
L 315.204436 89.374894 
L 315.966433 89.374894 
L 316.055556 88.326399 
L 316.114374 88.326399 
L 316.163665 87.277903 
L 316.37392 87.277903 
L 316.37392 86.753656 
L 316.529668 86.753656 
L 316.567712 85.70516 
L 316.735585 85.70516 
L 316.76615 84.656665 
L 317.241154 84.656665 
L 317.241154 84.132417 
L 317.35781 84.132417 
L 317.447825 82.035426 
L 317.52731 82.035426 
L 317.58877 80.986931 
L 317.640183 80.986931 
L 317.640183 80.462683 
L 317.758696 80.462683 
L 317.79186 79.414188 
L 317.941689 79.414188 
L 317.941689 78.88994 
L 318.077268 78.88994 
L 318.152103 77.317197 
L 318.296234 77.317197 
L 318.296234 76.792949 
L 318.837585 76.792949 
L 318.886009 75.744454 
L 319.877552 75.744454 
L 319.928141 74.695958 
L 320.145248 74.695958 
L 320.194249 73.123215 
L 320.482872 73.123215 
L 320.482872 72.598967 
L 320.81172 72.598967 
L 320.81172 72.074719 
L 320.960722 72.074719 
L 321.06056 70.501976 
L 321.143463 70.501976 
L 321.157505 69.453481 
L 321.277199 69.453481 
L 321.298021 68.404985 
L 321.498682 68.404985 
L 321.593955 66.832242 
L 321.612004 66.832242 
L 321.612004 66.307995 
L 321.816002 66.307995 
L 321.834054 65.259499 
L 321.995225 65.259499 
L 322.069626 64.211004 
L 322.149249 64.211004 
L 322.149249 63.686756 
L 322.281706 63.686756 
L 322.281706 63.162508 
L 322.467844 63.162508 
L 322.467844 62.638261 
L 322.582404 62.638261 
L 322.649116 61.589765 
L 322.728679 61.589765 
L 322.768274 60.54127 
L 322.9757 60.54127 
L 322.9757 60.017022 
L 323.176789 60.017022 
L 323.176789 59.492774 
L 323.416165 59.492774 
L 323.416165 58.968526 
L 323.912383 58.968526 
L 323.912383 58.444279 
L 324.122387 58.444279 
L 324.122387 57.920031 
L 324.764156 57.920031 
L 324.820778 56.871536 
L 324.894227 56.871536 
L 324.894227 56.347288 
L 325.080852 56.347288 
L 325.169545 54.774545 
L 325.252786 54.774545 
L 325.345522 53.201802 
L 325.484691 53.201802 
L 325.534755 52.153306 
L 325.695075 52.153306 
L 325.695075 51.629058 
L 326.245345 51.629058 
L 326.245345 51.104811 
L 326.37271 51.104811 
L 326.37271 50.580563 
L 326.925205 50.580563 
L 326.925205 50.056315 
L 327.280086 50.056315 
L 327.280086 49.532068 
L 327.402132 49.532068 
L 327.402132 49.00782 
L 327.721081 49.00782 
L 327.807256 47.959324 
L 328.405968 47.959324 
L 328.405968 47.435077 
L 328.518146 47.435077 
L 328.61099 45.862334 
L 328.796373 45.862334 
L 328.796373 45.338086 
L 329.157386 45.338086 
L 329.157386 44.813838 
L 329.271456 44.813838 
L 329.271456 44.28959 
L 329.64181 44.28959 
L 329.64181 43.765343 
L 329.836772 43.765343 
L 329.836772 43.241095 
L 330.034422 43.241095 
L 330.112838 42.192599 
L 330.372929 42.192599 
L 330.372929 41.668352 
L 330.571344 41.668352 
L 330.626643 40.619856 
L 330.869044 40.619856 
L 330.869044 40.095609 
L 331.158088 40.095609 
L 331.158088 39.571361 
L 331.428482 39.571361 
L 331.428482 39.047113 
L 332.060012 39.047113 
L 332.060012 38.522865 
L 332.35249 38.522865 
L 332.39409 37.47437 
L 332.623589 37.47437 
L 332.623589 36.950122 
L 333.267545 36.950122 
L 333.267545 36.425875 
L 333.429677 36.425875 
L 333.429677 36.425875 
" style="fill:none;stroke:#999999;stroke-linecap:square;stroke-width:1.5;"/>
   </g>
   <g id="line2d_50"/>
   <g id="line2d_51">
    <path d="M 0 0 
" style="fill:none;stroke:#999999;stroke-linecap:square;stroke-width:1.5;"/>
   </g>
   <g id="line2d_52">
    <path clip-path="url(#p0f484978d6)" d="M 294.662279 170.109043 
" style="fill:none;stroke:#999999;stroke-linecap:square;stroke-width:1.5;"/>
    <g clip-path="url(#p0f484978d6)">
     <use style="fill:#999999;stroke:#999999;stroke-width:3;" x="294.662279" xlink:href="#maf0d6123d8" y="170.109043"/>
    </g>
   </g>
   <g id="line2d_53">
    <g/>
   </g>
   <g id="line2d_54">
    <path d="M -1 289.637523 
L 333.429677 289.637523 
" style="fill:none;stroke:#999999;stroke-linecap:square;stroke-width:1.5;"/>
   </g>
   <g id="line2d_55"/>
   <g id="line2d_56">
    <path d="M 0 0 
" style="fill:none;stroke:#999999;stroke-linecap:square;stroke-width:1.5;"/>
   </g>
   <g id="line2d_57">
    <path clip-path="url(#p0f484978d6)" d="M 214.582716 289.637523 
" style="fill:none;stroke:#999999;stroke-linecap:square;stroke-width:1.5;"/>
    <g clip-path="url(#p0f484978d6)">
     <use style="fill:#999999;stroke:#999999;stroke-width:3;" x="214.582716" xlink:href="#maf0d6123d8" y="289.637523"/>
    </g>
   </g>
   <g id="line2d_58">
    <g/>
   </g>
   <g id="line2d_59">
    <path d="M -1 289.637523 
L 333.429677 289.637523 
" style="fill:none;stroke:#999999;stroke-linecap:square;stroke-width:1.5;"/>
   </g>
   <g id="line2d_60"/>
   <g id="line2d_61">
    <path d="M 0 0 
" style="fill:none;stroke:#999999;stroke-linecap:square;stroke-width:1.5;"/>
   </g>
   <g id="line2d_62">
    <path clip-path="url(#p0f484978d6)" d="M 261.909988 289.637523 
" style="fill:none;stroke:#999999;stroke-linecap:square;stroke-width:1.5;"/>
    <g clip-path="url(#p0f484978d6)">
     <use style="fill:#999999;stroke:#999999;stroke-width:3;" x="261.909988" xlink:href="#maf0d6123d8" y="289.637523"/>
    </g>
   </g>
   <g id="line2d_63">
    <g/>
   </g>
   <g id="line2d_64">
    <path d="M -1 289.637523 
L 333.429677 289.637523 
" style="fill:none;stroke:#999999;stroke-linecap:square;stroke-width:1.5;"/>
   </g>
   <g id="line2d_65"/>
   <g id="line2d_66">
    <path d="M 0 0 
" style="fill:none;stroke:#999999;stroke-linecap:square;stroke-width:1.5;"/>
   </g>
   <g id="line2d_67">
    <path clip-path="url(#p0f484978d6)" d="M 186.901109 289.637523 
" style="fill:none;stroke:#999999;stroke-linecap:square;stroke-width:1.5;"/>
    <g clip-path="url(#p0f484978d6)">
     <use style="fill:#999999;stroke:#999999;stroke-width:3;" x="186.901109" xlink:href="#maf0d6123d8" y="289.637523"/>
    </g>
   </g>
   <g id="line2d_68">
    <g/>
   </g>
   <g id="line2d_69">
    <path d="M -1 289.637523 
L 333.429677 289.637523 
" style="fill:none;stroke:#999999;stroke-linecap:square;stroke-width:1.5;"/>
   </g>
   <g id="line2d_70"/>
   <g id="line2d_71">
    <path d="M 0 0 
" style="fill:none;stroke:#999999;stroke-linecap:square;stroke-width:1.5;"/>
   </g>
   <g id="line2d_72">
    <path clip-path="url(#p0f484978d6)" d="M 214.58306 289.637523 
" style="fill:none;stroke:#999999;stroke-linecap:square;stroke-width:1.5;"/>
    <g clip-path="url(#p0f484978d6)">
     <use style="fill:#999999;stroke:#999999;stroke-width:3;" x="214.58306" xlink:href="#maf0d6123d8" y="289.637523"/>
    </g>
   </g>
   <g id="line2d_73">
    <g/>
   </g>
   <g id="line2d_74">
    <path d="M -1 289.637523 
L 333.429677 289.637523 
" style="fill:none;stroke:#999999;stroke-linecap:square;stroke-width:1.5;"/>
   </g>
   <g id="line2d_75"/>
   <g id="line2d_76">
    <path d="M 0 0 
" style="fill:none;stroke:#999999;stroke-linecap:square;stroke-width:1.5;"/>
   </g>
   <g id="line2d_77">
    <path clip-path="url(#p0f484978d6)" d="M 293.814009 289.637523 
" style="fill:none;stroke:#999999;stroke-linecap:square;stroke-width:1.5;"/>
    <g clip-path="url(#p0f484978d6)">
     <use style="fill:#999999;stroke:#999999;stroke-width:3;" x="293.814009" xlink:href="#maf0d6123d8" y="289.637523"/>
    </g>
   </g>
   <g id="line2d_78">
    <g>
     <use style="fill:#999999;stroke:#999999;" x="348.092888" xlink:href="#m72375bd8f8" y="284.395046"/>
     <use style="fill:#999999;stroke:#999999;" x="348.092888" xlink:href="#m72375bd8f8" y="284.395046"/>
    </g>
   </g>
   <g id="line2d_79">
    <path d="M -1 289.637523 
L 315.118404 289.637523 
L 315.118404 289.113275 
L 325.884366 289.113275 
L 325.884366 288.589027 
L 330.531376 288.589027 
L 330.531376 288.06478 
L 332.455783 288.06478 
L 332.455783 287.540532 
L 333.429677 287.540532 
" style="fill:none;stroke:#999999;stroke-linecap:square;stroke-width:1.5;"/>
   </g>
   <g id="line2d_80"/>
   <g id="line2d_81">
    <path d="M 0 0 
" style="fill:none;stroke:#999999;stroke-linecap:square;stroke-width:1.5;"/>
   </g>
   <g id="line2d_82">
    <path clip-path="url(#p0f484978d6)" d="M 293.814009 289.637523 
" style="fill:none;stroke:#999999;stroke-linecap:square;stroke-width:1.5;"/>
    <g clip-path="url(#p0f484978d6)">
     <use style="fill:#999999;stroke:#999999;stroke-width:3;" x="293.814009" xlink:href="#maf0d6123d8" y="289.637523"/>
    </g>
   </g>
   <g id="line2d_83">
    <g>
     <use style="fill:#999999;stroke:#999999;" x="357.188699" xlink:href="#m72375bd8f8" y="27.513663"/>
     <use style="fill:#999999;stroke:#999999;" x="357.188699" xlink:href="#m72375bd8f8" y="27.513663"/>
    </g>
   </g>
   <g id="line2d_84">
    <path d="M -1 289.637523 
L 215.273747 289.637523 
L 215.273747 289.113275 
L 218.776625 289.113275 
L 218.776625 288.06478 
L 274.097997 288.06478 
L 274.097997 287.016284 
L 275.497892 287.016284 
L 275.56275 284.919293 
L 275.816467 284.919293 
L 275.899878 283.870798 
L 276.036547 283.870798 
L 276.103205 282.298055 
L 276.153793 282.298055 
L 276.153793 281.249559 
L 276.298894 281.249559 
L 276.324726 280.201064 
L 276.493805 280.201064 
L 276.565221 279.152568 
L 276.616546 279.152568 
L 276.701052 276.007082 
L 276.908449 276.007082 
L 276.971808 273.910091 
L 277.046047 273.910091 
L 277.125585 271.8131 
L 277.168715 271.8131 
L 277.271318 265.522128 
L 288.721345 265.522128 
L 288.8119 264.473632 
L 288.875587 264.473632 
L 288.934641 263.425137 
L 289.015412 263.425137 
L 289.099236 258.706907 
L 289.188655 258.706907 
L 289.25826 256.085669 
L 289.299987 256.085669 
L 289.397036 251.891687 
L 289.453884 251.891687 
L 289.475304 250.843192 
L 289.578876 250.843192 
L 289.669548 247.697705 
L 289.732661 247.697705 
L 289.79101 246.124962 
L 298.602857 246.124962 
L 298.602857 245.600714 
L 298.857967 245.600714 
L 298.929138 243.503724 
L 299.062226 243.503724 
L 299.121494 241.406733 
L 299.181992 241.406733 
L 299.283198 236.688503 
L 299.298281 236.688503 
L 299.384947 229.873283 
L 303.296647 229.873283 
L 303.378312 228.824787 
L 303.411663 228.824787 
L 303.511325 226.203549 
L 303.545751 226.203549 
L 303.656412 220.436824 
L 303.669857 220.436824 
L 303.778758 212.04886 
L 303.796521 212.04886 
L 303.84606 208.903374 
L 305.795321 208.903374 
L 305.848676 207.330631 
L 308.47931 207.330631 
L 308.582011 205.23364 
L 308.599103 205.23364 
L 308.707422 198.942667 
L 308.714478 198.942667 
L 308.761725 194.224438 
L 311.226589 194.224438 
L 311.323873 188.981961 
L 311.339671 188.981961 
L 311.421929 183.215236 
L 311.452854 183.215236 
L 311.452854 182.690988 
L 314.515104 182.690988 
L 314.591891 181.642493 
L 314.643898 181.642493 
L 314.752318 176.400016 
L 314.756186 176.400016 
L 314.782871 169.584795 
L 316.572427 169.584795 
L 316.681958 161.721079 
L 316.689832 161.721079 
L 316.743449 154.381611 
L 319.16332 154.381611 
L 319.2418 145.4694 
L 320.650988 145.4694 
L 320.755078 138.129932 
L 320.763829 138.129932 
L 320.763829 137.605684 
L 322.708433 137.605684 
L 322.776495 128.169225 
L 323.909047 128.169225 
L 324.013887 121.354005 
L 324.020668 121.354005 
L 324.037574 118.732766 
L 325.640315 118.732766 
L 325.709733 110.344803 
L 326.689238 110.344803 
L 326.779865 106.675069 
L 328.162079 106.675069 
L 328.214268 99.335601 
L 329.060909 99.335601 
L 329.128582 93.568876 
L 330.356225 93.568876 
L 330.392831 87.802151 
L 331.137486 87.802151 
L 331.215521 80.986931 
L 332.271582 80.986931 
L 332.3363 75.744454 
L 332.990736 75.744454 
L 333.071736 71.550472 
L 333.429677 71.550472 
L 333.429677 71.550472 
" style="fill:none;stroke:#999999;stroke-linecap:square;stroke-width:1.5;"/>
   </g>
   <g id="line2d_85"/>
   <g id="line2d_86">
    <path d="M 0 0 
" style="fill:none;stroke:#999999;stroke-linecap:square;stroke-width:1.5;"/>
   </g>
   <g id="line2d_87">
    <path clip-path="url(#p0f484978d6)" d="M 293.821654 246.124962 
" style="fill:none;stroke:#999999;stroke-linecap:square;stroke-width:1.5;"/>
    <g clip-path="url(#p0f484978d6)">
     <use style="fill:#999999;stroke:#999999;stroke-width:3;" x="293.821654" xlink:href="#maf0d6123d8" y="246.124962"/>
    </g>
   </g>
   <g id="line2d_88">
    <defs>
     <path d="M 0 1.5 
C 0.397805 1.5 0.77937 1.341951 1.06066 1.06066 
C 1.341951 0.77937 1.5 0.397805 1.5 0 
C 1.5 -0.397805 1.341951 -0.77937 1.06066 -1.06066 
C 0.77937 -1.341951 0.397805 -1.5 0 -1.5 
C -0.397805 -1.5 -0.77937 -1.341951 -1.06066 -1.06066 
C -1.341951 -0.77937 -1.5 -0.397805 -1.5 0 
C -1.5 0.397805 -1.341951 0.77937 -1.06066 1.06066 
C -0.77937 1.341951 -0.397805 1.5 0 1.5 
z
" id="m88c2884939" style="stroke:#ff00ff;"/>
    </defs>
    <g>
     <use style="fill:#ff00ff;stroke:#ff00ff;" x="4.578827" xlink:href="#m88c2884939" y="289.637523"/>
     <use style="fill:#ff00ff;stroke:#ff00ff;" x="4.578827" xlink:href="#m88c2884939" y="289.637523"/>
    </g>
   </g>
   <g id="line2d_89">
    <path d="M -1 290.161771 
L 4.578827 290.161771 
L 4.578827 289.637523 
L 333.429677 289.637523 
" style="fill:none;stroke:#ff00ff;stroke-linecap:square;stroke-width:1.5;"/>
   </g>
   <g id="line2d_90">
    <defs>
     <path d="M -0 8.485281 
L 5.091169 0 
L 0 -8.485281 
L -5.091169 -0 
z
" id="ma489ba8d28" style="stroke:#ff00ff;stroke-linejoin:miter;stroke-width:1.5;"/>
    </defs>
    <g>
     <use style="fill:none;stroke:#ff00ff;stroke-linejoin:miter;stroke-width:1.5;" x="333.429677" xlink:href="#ma489ba8d28" y="289.637523"/>
    </g>
   </g>
   <g id="line2d_91">
    <path d="M 0 0 
" style="fill:none;stroke:#ff00ff;stroke-linecap:square;stroke-width:1.5;"/>
    <g>
     <use style="fill:none;stroke:#ff00ff;stroke-linejoin:miter;stroke-width:1.5;" x="0" xlink:href="#ma489ba8d28" y="0"/>
    </g>
   </g>
   <g id="line2d_92">
    <path clip-path="url(#p0f484978d6)" d="M 214.575144 289.637523 
" style="fill:none;stroke:#ff00ff;stroke-linecap:square;stroke-width:1.5;"/>
    <defs>
     <path d="M -12 12 
L 12 -12 
M -12 -12 
L 12 12 
" id="mdf42ebf758" style="stroke:#ff00ff;stroke-width:3;"/>
    </defs>
    <g clip-path="url(#p0f484978d6)">
     <use style="fill:#ff00ff;stroke:#ff00ff;stroke-width:3;" x="214.575144" xlink:href="#mdf42ebf758" y="289.637523"/>
    </g>
   </g>
   <g id="line2d_93">
    <path d="M 333.429677 289.637523 
L 363.933742 289.532673 
" style="fill:none;stroke:#ff00ff;stroke-linecap:square;stroke-width:1.5;"/>
    <g>
     <use style="fill:none;stroke:#ff00ff;stroke-linejoin:miter;stroke-width:1.5;" x="333.429677" xlink:href="#ma489ba8d28" y="289.637523"/>
     <use style="fill:none;stroke:#ff00ff;stroke-linejoin:miter;stroke-width:1.5;" x="363.933742" xlink:href="#ma489ba8d28" y="289.532673"/>
    </g>
   </g>
   <g id="line2d_94">
    <path d="M 333.429677 294.88 
L 333.429677 27.513663 
" style="fill:none;stroke:#000000;stroke-linecap:square;stroke-width:1.5;"/>
   </g>
   <g id="patch_3">
    <path d="M 56.12 294.88 
L 56.12 24.84 
" style="fill:none;stroke:#000000;stroke-linecap:square;stroke-linejoin:miter;stroke-width:0.8;"/>
   </g>
   <g id="patch_4">
    <path d="M 399.984 294.88 
L 399.984 24.84 
" style="fill:none;stroke:#000000;stroke-linecap:square;stroke-linejoin:miter;stroke-width:0.8;"/>
   </g>
   <g id="patch_5">
    <path d="M 56.12 294.88 
L 399.984 294.88 
" style="fill:none;stroke:#000000;stroke-linecap:square;stroke-linejoin:miter;stroke-width:0.8;"/>
   </g>
   <g id="patch_6">
    <path d="M 56.12 24.84 
L 399.984 24.84 
" style="fill:none;stroke:#000000;stroke-linecap:square;stroke-linejoin:miter;stroke-width:0.8;"/>
   </g>
   <g id="text_14">
    <!-- SNES scha -->
    <defs>
     <path d="M 53.515625 70.515625 
L 53.515625 60.890625 
Q 47.90625 63.578125 42.921875 64.890625 
Q 37.9375 66.21875 33.296875 66.21875 
Q 25.25 66.21875 20.875 63.09375 
Q 16.5 59.96875 16.5 54.203125 
Q 16.5 49.359375 19.40625 46.890625 
Q 22.3125 44.4375 30.421875 42.921875 
L 36.375 41.703125 
Q 47.40625 39.59375 52.65625 34.296875 
Q 57.90625 29 57.90625 20.125 
Q 57.90625 9.515625 50.796875 4.046875 
Q 43.703125 -1.421875 29.984375 -1.421875 
Q 24.8125 -1.421875 18.96875 -0.25 
Q 13.140625 0.921875 6.890625 3.21875 
L 6.890625 13.375 
Q 12.890625 10.015625 18.65625 8.296875 
Q 24.421875 6.59375 29.984375 6.59375 
Q 38.421875 6.59375 43.015625 9.90625 
Q 47.609375 13.234375 47.609375 19.390625 
Q 47.609375 24.75 44.3125 27.78125 
Q 41.015625 30.8125 33.5 32.328125 
L 27.484375 33.5 
Q 16.453125 35.6875 11.515625 40.375 
Q 6.59375 45.0625 6.59375 53.421875 
Q 6.59375 63.09375 13.40625 68.65625 
Q 20.21875 74.21875 32.171875 74.21875 
Q 37.3125 74.21875 42.625 73.28125 
Q 47.953125 72.359375 53.515625 70.515625 
z
" id="DejaVuSans-53"/>
     <path d="M 9.8125 72.90625 
L 23.09375 72.90625 
L 55.421875 11.921875 
L 55.421875 72.90625 
L 64.984375 72.90625 
L 64.984375 0 
L 51.703125 0 
L 19.390625 60.984375 
L 19.390625 0 
L 9.8125 0 
z
" id="DejaVuSans-4e"/>
     <path d="M 9.8125 72.90625 
L 55.90625 72.90625 
L 55.90625 64.59375 
L 19.671875 64.59375 
L 19.671875 43.015625 
L 54.390625 43.015625 
L 54.390625 34.71875 
L 19.671875 34.71875 
L 19.671875 8.296875 
L 56.78125 8.296875 
L 56.78125 0 
L 9.8125 0 
z
" id="DejaVuSans-45"/>
     <path d="M 54.890625 33.015625 
L 54.890625 0 
L 45.90625 0 
L 45.90625 32.71875 
Q 45.90625 40.484375 42.875 44.328125 
Q 39.84375 48.1875 33.796875 48.1875 
Q 26.515625 48.1875 22.3125 43.546875 
Q 18.109375 38.921875 18.109375 30.90625 
L 18.109375 0 
L 9.078125 0 
L 9.078125 75.984375 
L 18.109375 75.984375 
L 18.109375 46.1875 
Q 21.34375 51.125 25.703125 53.5625 
Q 30.078125 56 35.796875 56 
Q 45.21875 56 50.046875 50.171875 
Q 54.890625 44.34375 54.890625 33.015625 
z
" id="DejaVuSans-68"/>
    </defs>
    <g transform="translate(369.479935 294.223611)scale(0.17 -0.17)">
     <use xlink:href="#DejaVuSans-53"/>
     <use x="63.476562" xlink:href="#DejaVuSans-4e"/>
     <use x="138.28125" xlink:href="#DejaVuSans-45"/>
     <use x="201.464844" xlink:href="#DejaVuSans-53"/>
     <use x="264.941406" xlink:href="#DejaVuSans-20"/>
     <use x="296.728516" xlink:href="#DejaVuSans-73"/>
     <use x="348.828125" xlink:href="#DejaVuSans-63"/>
     <use x="403.808594" xlink:href="#DejaVuSans-68"/>
     <use x="467.1875" xlink:href="#DejaVuSans-61"/>
    </g>
   </g>
   <g id="text_15">
    <!-- best 2009 -->
    <defs>
     <path d="M 48.6875 27.296875 
Q 48.6875 37.203125 44.609375 42.84375 
Q 40.53125 48.484375 33.40625 48.484375 
Q 26.265625 48.484375 22.1875 42.84375 
Q 18.109375 37.203125 18.109375 27.296875 
Q 18.109375 17.390625 22.1875 11.75 
Q 26.265625 6.109375 33.40625 6.109375 
Q 40.53125 6.109375 44.609375 11.75 
Q 48.6875 17.390625 48.6875 27.296875 
z
M 18.109375 46.390625 
Q 20.953125 51.265625 25.265625 53.625 
Q 29.59375 56 35.59375 56 
Q 45.5625 56 51.78125 48.09375 
Q 58.015625 40.1875 58.015625 27.296875 
Q 58.015625 14.40625 51.78125 6.484375 
Q 45.5625 -1.421875 35.59375 -1.421875 
Q 29.59375 -1.421875 25.265625 0.953125 
Q 20.953125 3.328125 18.109375 8.203125 
L 18.109375 0 
L 9.078125 0 
L 9.078125 75.984375 
L 18.109375 75.984375 
z
" id="DejaVuSans-62"/>
     <path d="M 10.984375 1.515625 
L 10.984375 10.5 
Q 14.703125 8.734375 18.5 7.8125 
Q 22.3125 6.890625 25.984375 6.890625 
Q 35.75 6.890625 40.890625 13.453125 
Q 46.046875 20.015625 46.78125 33.40625 
Q 43.953125 29.203125 39.59375 26.953125 
Q 35.25 24.703125 29.984375 24.703125 
Q 19.046875 24.703125 12.671875 31.3125 
Q 6.296875 37.9375 6.296875 49.421875 
Q 6.296875 60.640625 12.9375 67.421875 
Q 19.578125 74.21875 30.609375 74.21875 
Q 43.265625 74.21875 49.921875 64.515625 
Q 56.59375 54.828125 56.59375 36.375 
Q 56.59375 19.140625 48.40625 8.859375 
Q 40.234375 -1.421875 26.421875 -1.421875 
Q 22.703125 -1.421875 18.890625 -0.6875 
Q 15.09375 0.046875 10.984375 1.515625 
z
M 30.609375 32.421875 
Q 37.25 32.421875 41.125 36.953125 
Q 45.015625 41.5 45.015625 49.421875 
Q 45.015625 57.28125 41.125 61.84375 
Q 37.25 66.40625 30.609375 66.40625 
Q 23.96875 66.40625 20.09375 61.84375 
Q 16.21875 57.28125 16.21875 49.421875 
Q 16.21875 41.5 20.09375 36.953125 
Q 23.96875 32.421875 30.609375 32.421875 
z
" id="DejaVuSans-39"/>
    </defs>
    <g transform="translate(369.479935 37.551928)scale(0.17 -0.17)">
     <use xlink:href="#DejaVuSans-62"/>
     <use x="63.476562" xlink:href="#DejaVuSans-65"/>
     <use x="125" xlink:href="#DejaVuSans-73"/>
     <use x="177.099609" xlink:href="#DejaVuSans-74"/>
     <use x="216.308594" xlink:href="#DejaVuSans-20"/>
     <use x="248.095703" xlink:href="#DejaVuSans-32"/>
     <use x="311.71875" xlink:href="#DejaVuSans-30"/>
     <use x="375.341797" xlink:href="#DejaVuSans-30"/>
     <use x="438.964844" xlink:href="#DejaVuSans-39"/>
    </g>
   </g>
   <g id="text_16">
    <!-- bbob f128, 40-D -->
    <defs>
     <path d="M 19.671875 64.796875 
L 19.671875 8.109375 
L 31.59375 8.109375 
Q 46.6875 8.109375 53.6875 14.9375 
Q 60.6875 21.78125 60.6875 36.53125 
Q 60.6875 51.171875 53.6875 57.984375 
Q 46.6875 64.796875 31.59375 64.796875 
z
M 9.8125 72.90625 
L 30.078125 72.90625 
Q 51.265625 72.90625 61.171875 64.09375 
Q 71.09375 55.28125 71.09375 36.53125 
Q 71.09375 17.671875 61.125 8.828125 
Q 51.171875 0 30.078125 0 
L 9.8125 0 
z
" id="DejaVuSans-44"/>
    </defs>
    <g transform="translate(59.55864 35.290806)scale(0.102 -0.102)">
     <use xlink:href="#DejaVuSans-62"/>
     <use x="63.476562" xlink:href="#DejaVuSans-62"/>
     <use x="126.953125" xlink:href="#DejaVuSans-6f"/>
     <use x="188.134766" xlink:href="#DejaVuSans-62"/>
     <use x="251.611328" xlink:href="#DejaVuSans-20"/>
     <use x="283.398438" xlink:href="#DejaVuSans-66"/>
     <use x="318.603516" xlink:href="#DejaVuSans-31"/>
     <use x="382.226562" xlink:href="#DejaVuSans-32"/>
     <use x="445.849609" xlink:href="#DejaVuSans-38"/>
     <use x="509.472656" xlink:href="#DejaVuSans-2c"/>
     <use x="541.259766" xlink:href="#DejaVuSans-20"/>
     <use x="573.046875" xlink:href="#DejaVuSans-34"/>
     <use x="636.669922" xlink:href="#DejaVuSans-30"/>
     <use x="700.292969" xlink:href="#DejaVuSans-2d"/>
     <use x="736.376953" xlink:href="#DejaVuSans-44"/>
    </g>
    <!-- 51 targets: 100..1e-08 -->
    <defs>
     <path d="M 10.796875 72.90625 
L 49.515625 72.90625 
L 49.515625 64.59375 
L 19.828125 64.59375 
L 19.828125 46.734375 
Q 21.96875 47.46875 24.109375 47.828125 
Q 26.265625 48.1875 28.421875 48.1875 
Q 40.625 48.1875 47.75 41.5 
Q 54.890625 34.8125 54.890625 23.390625 
Q 54.890625 11.625 47.5625 5.09375 
Q 40.234375 -1.421875 26.90625 -1.421875 
Q 22.3125 -1.421875 17.546875 -0.640625 
Q 12.796875 0.140625 7.71875 1.703125 
L 7.71875 11.625 
Q 12.109375 9.234375 16.796875 8.0625 
Q 21.484375 6.890625 26.703125 6.890625 
Q 35.15625 6.890625 40.078125 11.328125 
Q 45.015625 15.765625 45.015625 23.390625 
Q 45.015625 31 40.078125 35.4375 
Q 35.15625 39.890625 26.703125 39.890625 
Q 22.75 39.890625 18.8125 39.015625 
Q 14.890625 38.140625 10.796875 36.28125 
z
" id="DejaVuSans-35"/>
     <path d="M 11.71875 12.40625 
L 22.015625 12.40625 
L 22.015625 0 
L 11.71875 0 
z
M 11.71875 51.703125 
L 22.015625 51.703125 
L 22.015625 39.3125 
L 11.71875 39.3125 
z
" id="DejaVuSans-3a"/>
    </defs>
    <g transform="translate(59.55864 46.712575)scale(0.102 -0.102)">
     <use xlink:href="#DejaVuSans-35"/>
     <use x="63.623047" xlink:href="#DejaVuSans-31"/>
     <use x="127.246094" xlink:href="#DejaVuSans-20"/>
     <use x="159.033203" xlink:href="#DejaVuSans-74"/>
     <use x="198.242188" xlink:href="#DejaVuSans-61"/>
     <use x="259.521484" xlink:href="#DejaVuSans-72"/>
     <use x="300.619141" xlink:href="#DejaVuSans-67"/>
     <use x="364.095703" xlink:href="#DejaVuSans-65"/>
     <use x="425.619141" xlink:href="#DejaVuSans-74"/>
     <use x="464.828125" xlink:href="#DejaVuSans-73"/>
     <use x="516.927734" xlink:href="#DejaVuSans-3a"/>
     <use x="550.619141" xlink:href="#DejaVuSans-20"/>
     <use x="582.40625" xlink:href="#DejaVuSans-31"/>
     <use x="646.029297" xlink:href="#DejaVuSans-30"/>
     <use x="709.652344" xlink:href="#DejaVuSans-30"/>
     <use x="773.275391" xlink:href="#DejaVuSans-2e"/>
     <use x="805.0625" xlink:href="#DejaVuSans-2e"/>
     <use x="836.849609" xlink:href="#DejaVuSans-31"/>
     <use x="900.472656" xlink:href="#DejaVuSans-65"/>
     <use x="961.996094" xlink:href="#DejaVuSans-2d"/>
     <use x="998.080078" xlink:href="#DejaVuSans-30"/>
     <use x="1061.703125" xlink:href="#DejaVuSans-38"/>
    </g>
    <!-- 15 instances -->
    <g transform="translate(59.55864 58.134344)scale(0.102 -0.102)">
     <use xlink:href="#DejaVuSans-31"/>
     <use x="63.623047" xlink:href="#DejaVuSans-35"/>
     <use x="127.246094" xlink:href="#DejaVuSans-20"/>
     <use x="159.033203" xlink:href="#DejaVuSans-69"/>
     <use x="186.816406" xlink:href="#DejaVuSans-6e"/>
     <use x="250.195312" xlink:href="#DejaVuSans-73"/>
     <use x="302.294922" xlink:href="#DejaVuSans-74"/>
     <use x="341.503906" xlink:href="#DejaVuSans-61"/>
     <use x="402.783203" xlink:href="#DejaVuSans-6e"/>
     <use x="466.162109" xlink:href="#DejaVuSans-63"/>
     <use x="521.142578" xlink:href="#DejaVuSans-65"/>
     <use x="582.666016" xlink:href="#DejaVuSans-73"/>
    </g>
   </g>
   <g id="text_17">
    <!-- v2.0.778 -->
    <defs>
     <path d="M 8.203125 72.90625 
L 55.078125 72.90625 
L 55.078125 68.703125 
L 28.609375 0 
L 18.3125 0 
L 43.21875 64.59375 
L 8.203125 64.59375 
z
" id="DejaVuSans-37"/>
    </defs>
    <g style="fill:#808080;" transform="translate(206.00825 290.099912)scale(0.1 -0.1)">
     <use xlink:href="#DejaVuSans-76"/>
     <use x="59.179688" xlink:href="#DejaVuSans-32"/>
     <use x="122.802734" xlink:href="#DejaVuSans-2e"/>
     <use x="154.589844" xlink:href="#DejaVuSans-30"/>
     <use x="218.212891" xlink:href="#DejaVuSans-2e"/>
     <use x="250" xlink:href="#DejaVuSans-37"/>
     <use x="313.623047" xlink:href="#DejaVuSans-37"/>
     <use x="377.246094" xlink:href="#DejaVuSans-38"/>
    </g>
   </g>
   <g id="text_18">
    <!-- 128 Gallagher Gauss -->
    <defs>
     <path d="M 59.515625 10.40625 
L 59.515625 29.984375 
L 43.40625 29.984375 
L 43.40625 38.09375 
L 69.28125 38.09375 
L 69.28125 6.78125 
Q 63.578125 2.734375 56.6875 0.65625 
Q 49.8125 -1.421875 42 -1.421875 
Q 24.90625 -1.421875 15.25 8.5625 
Q 5.609375 18.5625 5.609375 36.375 
Q 5.609375 54.25 15.25 64.234375 
Q 24.90625 74.21875 42 74.21875 
Q 49.125 74.21875 55.546875 72.453125 
Q 61.96875 70.703125 67.390625 67.28125 
L 67.390625 56.78125 
Q 61.921875 61.421875 55.765625 63.765625 
Q 49.609375 66.109375 42.828125 66.109375 
Q 29.4375 66.109375 22.71875 58.640625 
Q 16.015625 51.171875 16.015625 36.375 
Q 16.015625 21.625 22.71875 14.15625 
Q 29.4375 6.6875 42.828125 6.6875 
Q 48.046875 6.6875 52.140625 7.59375 
Q 56.25 8.5 59.515625 10.40625 
z
" id="DejaVuSans-47"/>
    </defs>
    <g transform="translate(123.4645 18.84)scale(0.2 -0.2)">
     <use xlink:href="#DejaVuSans-31"/>
     <use x="63.623047" xlink:href="#DejaVuSans-32"/>
     <use x="127.246094" xlink:href="#DejaVuSans-38"/>
     <use x="190.869141" xlink:href="#DejaVuSans-20"/>
     <use x="222.65625" xlink:href="#DejaVuSans-47"/>
     <use x="300.146484" xlink:href="#DejaVuSans-61"/>
     <use x="361.425781" xlink:href="#DejaVuSans-6c"/>
     <use x="389.208984" xlink:href="#DejaVuSans-6c"/>
     <use x="416.992188" xlink:href="#DejaVuSans-61"/>
     <use x="478.271484" xlink:href="#DejaVuSans-67"/>
     <use x="541.748047" xlink:href="#DejaVuSans-68"/>
     <use x="605.126953" xlink:href="#DejaVuSans-65"/>
     <use x="666.650391" xlink:href="#DejaVuSans-72"/>
     <use x="707.763672" xlink:href="#DejaVuSans-20"/>
     <use x="739.550781" xlink:href="#DejaVuSans-47"/>
     <use x="817.041016" xlink:href="#DejaVuSans-61"/>
     <use x="878.320312" xlink:href="#DejaVuSans-75"/>
     <use x="941.699219" xlink:href="#DejaVuSans-73"/>
     <use x="993.798828" xlink:href="#DejaVuSans-73"/>
    </g>
   </g>
  </g>
 </g>
 <defs>
  <clipPath id="p0f484978d6">
   <rect height="270.04" width="343.864" x="56.12" y="24.84"/>
  </clipPath>
 </defs>
</svg>
