<?xml version="1.0" encoding="utf-8" standalone="no"?>
<!DOCTYPE svg PUBLIC "-//W3C//DTD SVG 1.1//EN"
  "http://www.w3.org/Graphics/SVG/1.1/DTD/svg11.dtd">
<!-- Created with matplotlib (http://matplotlib.org/) -->
<svg height="345pt" version="1.1" viewBox="0 0 460 345" width="460pt" xmlns="http://www.w3.org/2000/svg" xmlns:xlink="http://www.w3.org/1999/xlink">
 <defs>
  <style type="text/css">
*{stroke-linecap:butt;stroke-linejoin:round;}
  </style>
 </defs>
 <g id="figure_1">
  <g id="patch_1">
   <path d="M 0 345.6 
L 460.8 345.6 
L 460.8 0 
L 0 0 
z
" style="fill:#ffffff;"/>
  </g>
  <g id="axes_1">
   <g id="patch_2">
    <path d="M 56.12 294.88 
L 399.984 294.88 
L 399.984 24.84 
L 56.12 24.84 
z
" style="fill:#ffffff;"/>
   </g>
   <g id="line2d_1">
    <path d="M -1 289.637523 
L 281.207004 289.637523 
L 281.207004 284.395046 
L 290.833936 284.395046 
L 290.833936 279.152568 
L 291.033771 279.152568 
L 291.033771 273.910091 
L 291.22452 273.910091 
L 291.22452 268.667614 
L 291.354266 268.667614 
L 291.354266 263.425137 
L 291.491718 263.425137 
L 291.491718 258.18266 
L 291.594109 258.18266 
L 291.594109 252.940182 
L 291.675163 252.940182 
L 291.675163 247.697705 
L 292.003813 247.697705 
L 292.003813 242.455228 
L 292.741129 242.455228 
L 292.741129 237.212751 
L 309.797502 237.212751 
L 309.797502 231.970274 
L 309.827797 231.970274 
L 309.827797 226.727797 
L 309.836738 226.727797 
L 309.836738 221.485319 
L 309.856632 221.485319 
L 309.856632 216.242842 
L 309.871842 216.242842 
L 309.871842 211.000365 
L 309.884127 211.000365 
L 309.884127 205.757888 
L 309.900464 205.757888 
L 309.900464 200.515411 
L 309.915815 200.515411 
L 309.915815 195.272933 
L 309.924953 195.272933 
L 309.924953 190.030456 
L 309.946374 190.030456 
L 309.946374 184.787979 
L 309.961334 184.787979 
L 309.961334 179.545502 
L 309.962807 179.545502 
L 309.962807 174.303025 
L 309.994088 174.303025 
L 309.994088 169.060547 
L 310.000414 169.060547 
L 310.000414 163.81807 
L 310.008716 163.81807 
L 310.008716 158.575593 
L 310.039124 158.575593 
L 310.039124 153.333116 
L 310.052995 153.333116 
L 310.052995 148.090639 
L 310.064277 148.090639 
L 310.064277 142.848162 
L 310.091782 142.848162 
L 310.091782 137.605684 
L 310.104365 137.605684 
L 310.104365 132.363207 
L 310.119976 132.363207 
L 310.119976 127.12073 
L 310.124976 127.12073 
L 310.124976 121.878253 
L 310.155302 121.878253 
L 310.155302 116.635776 
L 310.170131 116.635776 
L 310.170131 111.393298 
L 310.182514 111.393298 
L 310.182514 106.150821 
L 310.217011 106.150821 
L 310.217011 100.908344 
L 310.235527 100.908344 
L 310.235527 95.665867 
L 310.248318 95.665867 
L 310.248318 90.42339 
L 310.270448 90.42339 
L 310.270448 85.180912 
L 310.282025 85.180912 
L 310.282025 79.938435 
L 310.293262 79.938435 
L 310.293262 74.695958 
L 310.304499 74.695958 
L 310.304499 69.453481 
L 310.308313 69.453481 
L 310.308313 64.211004 
L 310.33256 64.211004 
L 310.33256 58.968526 
L 310.359863 58.968526 
L 310.359863 53.726049 
L 310.366707 53.726049 
L 310.366707 48.483572 
L 310.399885 48.483572 
L 310.399885 43.241095 
L 310.421505 43.241095 
L 310.421505 37.998618 
L 310.426237 37.998618 
L 310.426237 32.756141 
L 310.464313 32.756141 
L 310.464313 27.513663 
L 333.429677 27.513663 
" style="fill:none;stroke:#f5deb3;stroke-linecap:square;stroke-width:6;"/>
   </g>
   <g id="line2d_2">
    <path d="M 0 0 
" style="fill:none;stroke:#f5deb3;stroke-linecap:square;stroke-width:6;"/>
    <defs>
     <path d="M -0 7.778175 
L 7.778175 0 
L 0 -7.778175 
L -7.778175 -0 
z
" id="m036e534eab" style="stroke:#f5deb3;stroke-linejoin:miter;stroke-width:1.5;"/>
    </defs>
    <g>
     <use style="fill:#f5deb3;stroke:#f5deb3;stroke-linejoin:miter;stroke-width:1.5;" x="0" xlink:href="#m036e534eab" y="0"/>
    </g>
   </g>
   <g id="line2d_3">
    <path d="M 333.429677 27.513663 
L 363.933742 32.86099 
" style="fill:none;stroke:#f5deb3;stroke-linecap:square;stroke-width:6;"/>
    <g>
     <use style="fill:#f5deb3;stroke:#f5deb3;stroke-linejoin:miter;stroke-width:1.5;" x="333.429677" xlink:href="#m036e534eab" y="27.513663"/>
     <use style="fill:#f5deb3;stroke:#f5deb3;stroke-linejoin:miter;stroke-width:1.5;" x="363.933742" xlink:href="#m036e534eab" y="32.86099"/>
    </g>
   </g>
   <g id="matplotlib.axis_1">
    <g id="xtick_1">
     <g id="line2d_4">
      <path clip-path="url(#p82d47e8b99)" d="M 56.12 294.88 
L 56.12 24.84 
" style="fill:none;stroke:#b0b0b0;stroke-linecap:square;stroke-width:0.8;"/>
     </g>
     <g id="line2d_5">
      <defs>
       <path d="M 0 0 
L 0 3.5 
" id="m8c7d106fc3" style="stroke:#000000;stroke-width:0.8;"/>
      </defs>
      <g>
       <use style="stroke:#000000;stroke-width:0.8;" x="56.12" xlink:href="#m8c7d106fc3" y="294.88"/>
      </g>
     </g>
     <g id="text_1">
      <!-- 0 -->
      <defs>
       <path d="M 31.78125 66.40625 
Q 24.171875 66.40625 20.328125 58.90625 
Q 16.5 51.421875 16.5 36.375 
Q 16.5 21.390625 20.328125 13.890625 
Q 24.171875 6.390625 31.78125 6.390625 
Q 39.453125 6.390625 43.28125 13.890625 
Q 47.125 21.390625 47.125 36.375 
Q 47.125 51.421875 43.28125 58.90625 
Q 39.453125 66.40625 31.78125 66.40625 
z
M 31.78125 74.21875 
Q 44.046875 74.21875 50.515625 64.515625 
Q 56.984375 54.828125 56.984375 36.375 
Q 56.984375 17.96875 50.515625 8.265625 
Q 44.046875 -1.421875 31.78125 -1.421875 
Q 19.53125 -1.421875 13.0625 8.265625 
Q 6.59375 17.96875 6.59375 36.375 
Q 6.59375 54.828125 13.0625 64.515625 
Q 19.53125 74.21875 31.78125 74.21875 
z
" id="DejaVuSans-30"/>
      </defs>
      <g transform="translate(49.7575 317.076875)scale(0.2 -0.2)">
       <use xlink:href="#DejaVuSans-30"/>
      </g>
     </g>
    </g>
    <g id="xtick_2">
     <g id="line2d_6">
      <path clip-path="url(#p82d47e8b99)" d="M 135.351336 294.88 
L 135.351336 24.84 
" style="fill:none;stroke:#b0b0b0;stroke-linecap:square;stroke-width:0.8;"/>
     </g>
     <g id="line2d_7">
      <g>
       <use style="stroke:#000000;stroke-width:0.8;" x="135.351336" xlink:href="#m8c7d106fc3" y="294.88"/>
      </g>
     </g>
     <g id="text_2">
      <!-- 2 -->
      <defs>
       <path d="M 19.1875 8.296875 
L 53.609375 8.296875 
L 53.609375 0 
L 7.328125 0 
L 7.328125 8.296875 
Q 12.9375 14.109375 22.625 23.890625 
Q 32.328125 33.6875 34.8125 36.53125 
Q 39.546875 41.84375 41.421875 45.53125 
Q 43.3125 49.21875 43.3125 52.78125 
Q 43.3125 58.59375 39.234375 62.25 
Q 35.15625 65.921875 28.609375 65.921875 
Q 23.96875 65.921875 18.8125 64.3125 
Q 13.671875 62.703125 7.8125 59.421875 
L 7.8125 69.390625 
Q 13.765625 71.78125 18.9375 73 
Q 24.125 74.21875 28.421875 74.21875 
Q 39.75 74.21875 46.484375 68.546875 
Q 53.21875 62.890625 53.21875 53.421875 
Q 53.21875 48.921875 51.53125 44.890625 
Q 49.859375 40.875 45.40625 35.40625 
Q 44.1875 33.984375 37.640625 27.21875 
Q 31.109375 20.453125 19.1875 8.296875 
z
" id="DejaVuSans-32"/>
      </defs>
      <g transform="translate(128.988836 317.076875)scale(0.2 -0.2)">
       <use xlink:href="#DejaVuSans-32"/>
      </g>
     </g>
    </g>
    <g id="xtick_3">
     <g id="line2d_8">
      <path clip-path="url(#p82d47e8b99)" d="M 214.582673 294.88 
L 214.582673 24.84 
" style="fill:none;stroke:#b0b0b0;stroke-linecap:square;stroke-width:0.8;"/>
     </g>
     <g id="line2d_9">
      <g>
       <use style="stroke:#000000;stroke-width:0.8;" x="214.582673" xlink:href="#m8c7d106fc3" y="294.88"/>
      </g>
     </g>
     <g id="text_3">
      <!-- 4 -->
      <defs>
       <path d="M 37.796875 64.3125 
L 12.890625 25.390625 
L 37.796875 25.390625 
z
M 35.203125 72.90625 
L 47.609375 72.90625 
L 47.609375 25.390625 
L 58.015625 25.390625 
L 58.015625 17.1875 
L 47.609375 17.1875 
L 47.609375 0 
L 37.796875 0 
L 37.796875 17.1875 
L 4.890625 17.1875 
L 4.890625 26.703125 
z
" id="DejaVuSans-34"/>
      </defs>
      <g transform="translate(208.220173 317.076875)scale(0.2 -0.2)">
       <use xlink:href="#DejaVuSans-34"/>
      </g>
     </g>
    </g>
    <g id="xtick_4">
     <g id="line2d_10">
      <path clip-path="url(#p82d47e8b99)" d="M 293.814009 294.88 
L 293.814009 24.84 
" style="fill:none;stroke:#b0b0b0;stroke-linecap:square;stroke-width:0.8;"/>
     </g>
     <g id="line2d_11">
      <g>
       <use style="stroke:#000000;stroke-width:0.8;" x="293.814009" xlink:href="#m8c7d106fc3" y="294.88"/>
      </g>
     </g>
     <g id="text_4">
      <!-- 6 -->
      <defs>
       <path d="M 33.015625 40.375 
Q 26.375 40.375 22.484375 35.828125 
Q 18.609375 31.296875 18.609375 23.390625 
Q 18.609375 15.53125 22.484375 10.953125 
Q 26.375 6.390625 33.015625 6.390625 
Q 39.65625 6.390625 43.53125 10.953125 
Q 47.40625 15.53125 47.40625 23.390625 
Q 47.40625 31.296875 43.53125 35.828125 
Q 39.65625 40.375 33.015625 40.375 
z
M 52.59375 71.296875 
L 52.59375 62.3125 
Q 48.875 64.0625 45.09375 64.984375 
Q 41.3125 65.921875 37.59375 65.921875 
Q 27.828125 65.921875 22.671875 59.328125 
Q 17.53125 52.734375 16.796875 39.40625 
Q 19.671875 43.65625 24.015625 45.921875 
Q 28.375 48.1875 33.59375 48.1875 
Q 44.578125 48.1875 50.953125 41.515625 
Q 57.328125 34.859375 57.328125 23.390625 
Q 57.328125 12.15625 50.6875 5.359375 
Q 44.046875 -1.421875 33.015625 -1.421875 
Q 20.359375 -1.421875 13.671875 8.265625 
Q 6.984375 17.96875 6.984375 36.375 
Q 6.984375 53.65625 15.1875 63.9375 
Q 23.390625 74.21875 37.203125 74.21875 
Q 40.921875 74.21875 44.703125 73.484375 
Q 48.484375 72.75 52.59375 71.296875 
z
" id="DejaVuSans-36"/>
      </defs>
      <g transform="translate(287.451509 317.076875)scale(0.2 -0.2)">
       <use xlink:href="#DejaVuSans-36"/>
      </g>
     </g>
    </g>
    <g id="xtick_5">
     <g id="line2d_12">
      <path clip-path="url(#p82d47e8b99)" d="M 373.045346 294.88 
L 373.045346 24.84 
" style="fill:none;stroke:#b0b0b0;stroke-linecap:square;stroke-width:0.8;"/>
     </g>
     <g id="line2d_13">
      <g>
       <use style="stroke:#000000;stroke-width:0.8;" x="373.045346" xlink:href="#m8c7d106fc3" y="294.88"/>
      </g>
     </g>
     <g id="text_5">
      <!-- 8 -->
      <defs>
       <path d="M 31.78125 34.625 
Q 24.75 34.625 20.71875 30.859375 
Q 16.703125 27.09375 16.703125 20.515625 
Q 16.703125 13.921875 20.71875 10.15625 
Q 24.75 6.390625 31.78125 6.390625 
Q 38.8125 6.390625 42.859375 10.171875 
Q 46.921875 13.96875 46.921875 20.515625 
Q 46.921875 27.09375 42.890625 30.859375 
Q 38.875 34.625 31.78125 34.625 
z
M 21.921875 38.8125 
Q 15.578125 40.375 12.03125 44.71875 
Q 8.5 49.078125 8.5 55.328125 
Q 8.5 64.0625 14.71875 69.140625 
Q 20.953125 74.21875 31.78125 74.21875 
Q 42.671875 74.21875 48.875 69.140625 
Q 55.078125 64.0625 55.078125 55.328125 
Q 55.078125 49.078125 51.53125 44.71875 
Q 48 40.375 41.703125 38.8125 
Q 48.828125 37.15625 52.796875 32.3125 
Q 56.78125 27.484375 56.78125 20.515625 
Q 56.78125 9.90625 50.3125 4.234375 
Q 43.84375 -1.421875 31.78125 -1.421875 
Q 19.734375 -1.421875 13.25 4.234375 
Q 6.78125 9.90625 6.78125 20.515625 
Q 6.78125 27.484375 10.78125 32.3125 
Q 14.796875 37.15625 21.921875 38.8125 
z
M 18.3125 54.390625 
Q 18.3125 48.734375 21.84375 45.5625 
Q 25.390625 42.390625 31.78125 42.390625 
Q 38.140625 42.390625 41.71875 45.5625 
Q 45.3125 48.734375 45.3125 54.390625 
Q 45.3125 60.0625 41.71875 63.234375 
Q 38.140625 66.40625 31.78125 66.40625 
Q 25.390625 66.40625 21.84375 63.234375 
Q 18.3125 60.0625 18.3125 54.390625 
z
" id="DejaVuSans-38"/>
      </defs>
      <g transform="translate(366.682846 317.076875)scale(0.2 -0.2)">
       <use xlink:href="#DejaVuSans-38"/>
      </g>
     </g>
    </g>
    <g id="text_6">
     <!-- log10(# f-evals / dimension) -->
     <defs>
      <path d="M 9.421875 75.984375 
L 18.40625 75.984375 
L 18.40625 0 
L 9.421875 0 
z
" id="DejaVuSans-6c"/>
      <path d="M 30.609375 48.390625 
Q 23.390625 48.390625 19.1875 42.75 
Q 14.984375 37.109375 14.984375 27.296875 
Q 14.984375 17.484375 19.15625 11.84375 
Q 23.34375 6.203125 30.609375 6.203125 
Q 37.796875 6.203125 41.984375 11.859375 
Q 46.1875 17.53125 46.1875 27.296875 
Q 46.1875 37.015625 41.984375 42.703125 
Q 37.796875 48.390625 30.609375 48.390625 
z
M 30.609375 56 
Q 42.328125 56 49.015625 48.375 
Q 55.71875 40.765625 55.71875 27.296875 
Q 55.71875 13.875 49.015625 6.21875 
Q 42.328125 -1.421875 30.609375 -1.421875 
Q 18.84375 -1.421875 12.171875 6.21875 
Q 5.515625 13.875 5.515625 27.296875 
Q 5.515625 40.765625 12.171875 48.375 
Q 18.84375 56 30.609375 56 
z
" id="DejaVuSans-6f"/>
      <path d="M 45.40625 27.984375 
Q 45.40625 37.75 41.375 43.109375 
Q 37.359375 48.484375 30.078125 48.484375 
Q 22.859375 48.484375 18.828125 43.109375 
Q 14.796875 37.75 14.796875 27.984375 
Q 14.796875 18.265625 18.828125 12.890625 
Q 22.859375 7.515625 30.078125 7.515625 
Q 37.359375 7.515625 41.375 12.890625 
Q 45.40625 18.265625 45.40625 27.984375 
z
M 54.390625 6.78125 
Q 54.390625 -7.171875 48.1875 -13.984375 
Q 42 -20.796875 29.203125 -20.796875 
Q 24.46875 -20.796875 20.265625 -20.09375 
Q 16.0625 -19.390625 12.109375 -17.921875 
L 12.109375 -9.1875 
Q 16.0625 -11.328125 19.921875 -12.34375 
Q 23.78125 -13.375 27.78125 -13.375 
Q 36.625 -13.375 41.015625 -8.765625 
Q 45.40625 -4.15625 45.40625 5.171875 
L 45.40625 9.625 
Q 42.625 4.78125 38.28125 2.390625 
Q 33.9375 0 27.875 0 
Q 17.828125 0 11.671875 7.65625 
Q 5.515625 15.328125 5.515625 27.984375 
Q 5.515625 40.671875 11.671875 48.328125 
Q 17.828125 56 27.875 56 
Q 33.9375 56 38.28125 53.609375 
Q 42.625 51.21875 45.40625 46.390625 
L 45.40625 54.6875 
L 54.390625 54.6875 
z
" id="DejaVuSans-67"/>
      <path d="M 12.40625 8.296875 
L 28.515625 8.296875 
L 28.515625 63.921875 
L 10.984375 60.40625 
L 10.984375 69.390625 
L 28.421875 72.90625 
L 38.28125 72.90625 
L 38.28125 8.296875 
L 54.390625 8.296875 
L 54.390625 0 
L 12.40625 0 
z
" id="DejaVuSans-31"/>
      <path d="M 31 75.875 
Q 24.46875 64.65625 21.28125 53.65625 
Q 18.109375 42.671875 18.109375 31.390625 
Q 18.109375 20.125 21.3125 9.0625 
Q 24.515625 -2 31 -13.1875 
L 23.1875 -13.1875 
Q 15.875 -1.703125 12.234375 9.375 
Q 8.59375 20.453125 8.59375 31.390625 
Q 8.59375 42.28125 12.203125 53.3125 
Q 15.828125 64.359375 23.1875 75.875 
z
" id="DejaVuSans-28"/>
      <path d="M 51.125 44 
L 36.921875 44 
L 32.8125 27.6875 
L 47.125 27.6875 
z
M 43.796875 71.78125 
L 38.71875 51.515625 
L 52.984375 51.515625 
L 58.109375 71.78125 
L 65.921875 71.78125 
L 60.890625 51.515625 
L 76.125 51.515625 
L 76.125 44 
L 58.984375 44 
L 54.984375 27.6875 
L 70.515625 27.6875 
L 70.515625 20.21875 
L 53.078125 20.21875 
L 48 0 
L 40.1875 0 
L 45.21875 20.21875 
L 30.90625 20.21875 
L 25.875 0 
L 18.015625 0 
L 23.09375 20.21875 
L 7.71875 20.21875 
L 7.71875 27.6875 
L 24.90625 27.6875 
L 29 44 
L 13.28125 44 
L 13.28125 51.515625 
L 30.90625 51.515625 
L 35.890625 71.78125 
z
" id="DejaVuSans-23"/>
      <path id="DejaVuSans-20"/>
      <path d="M 37.109375 75.984375 
L 37.109375 68.5 
L 28.515625 68.5 
Q 23.6875 68.5 21.796875 66.546875 
Q 19.921875 64.59375 19.921875 59.515625 
L 19.921875 54.6875 
L 34.71875 54.6875 
L 34.71875 47.703125 
L 19.921875 47.703125 
L 19.921875 0 
L 10.890625 0 
L 10.890625 47.703125 
L 2.296875 47.703125 
L 2.296875 54.6875 
L 10.890625 54.6875 
L 10.890625 58.5 
Q 10.890625 67.625 15.140625 71.796875 
Q 19.390625 75.984375 28.609375 75.984375 
z
" id="DejaVuSans-66"/>
      <path d="M 4.890625 31.390625 
L 31.203125 31.390625 
L 31.203125 23.390625 
L 4.890625 23.390625 
z
" id="DejaVuSans-2d"/>
      <path d="M 56.203125 29.59375 
L 56.203125 25.203125 
L 14.890625 25.203125 
Q 15.484375 15.921875 20.484375 11.0625 
Q 25.484375 6.203125 34.421875 6.203125 
Q 39.59375 6.203125 44.453125 7.46875 
Q 49.3125 8.734375 54.109375 11.28125 
L 54.109375 2.78125 
Q 49.265625 0.734375 44.1875 -0.34375 
Q 39.109375 -1.421875 33.890625 -1.421875 
Q 20.796875 -1.421875 13.15625 6.1875 
Q 5.515625 13.8125 5.515625 26.8125 
Q 5.515625 40.234375 12.765625 48.109375 
Q 20.015625 56 32.328125 56 
Q 43.359375 56 49.78125 48.890625 
Q 56.203125 41.796875 56.203125 29.59375 
z
M 47.21875 32.234375 
Q 47.125 39.59375 43.09375 43.984375 
Q 39.0625 48.390625 32.421875 48.390625 
Q 24.90625 48.390625 20.390625 44.140625 
Q 15.875 39.890625 15.1875 32.171875 
z
" id="DejaVuSans-65"/>
      <path d="M 2.984375 54.6875 
L 12.5 54.6875 
L 29.59375 8.796875 
L 46.6875 54.6875 
L 56.203125 54.6875 
L 35.6875 0 
L 23.484375 0 
z
" id="DejaVuSans-76"/>
      <path d="M 34.28125 27.484375 
Q 23.390625 27.484375 19.1875 25 
Q 14.984375 22.515625 14.984375 16.5 
Q 14.984375 11.71875 18.140625 8.90625 
Q 21.296875 6.109375 26.703125 6.109375 
Q 34.1875 6.109375 38.703125 11.40625 
Q 43.21875 16.703125 43.21875 25.484375 
L 43.21875 27.484375 
z
M 52.203125 31.203125 
L 52.203125 0 
L 43.21875 0 
L 43.21875 8.296875 
Q 40.140625 3.328125 35.546875 0.953125 
Q 30.953125 -1.421875 24.3125 -1.421875 
Q 15.921875 -1.421875 10.953125 3.296875 
Q 6 8.015625 6 15.921875 
Q 6 25.140625 12.171875 29.828125 
Q 18.359375 34.515625 30.609375 34.515625 
L 43.21875 34.515625 
L 43.21875 35.40625 
Q 43.21875 41.609375 39.140625 45 
Q 35.0625 48.390625 27.6875 48.390625 
Q 23 48.390625 18.546875 47.265625 
Q 14.109375 46.140625 10.015625 43.890625 
L 10.015625 52.203125 
Q 14.9375 54.109375 19.578125 55.046875 
Q 24.21875 56 28.609375 56 
Q 40.484375 56 46.34375 49.84375 
Q 52.203125 43.703125 52.203125 31.203125 
z
" id="DejaVuSans-61"/>
      <path d="M 44.28125 53.078125 
L 44.28125 44.578125 
Q 40.484375 46.53125 36.375 47.5 
Q 32.28125 48.484375 27.875 48.484375 
Q 21.1875 48.484375 17.84375 46.4375 
Q 14.5 44.390625 14.5 40.28125 
Q 14.5 37.15625 16.890625 35.375 
Q 19.28125 33.59375 26.515625 31.984375 
L 29.59375 31.296875 
Q 39.15625 29.25 43.1875 25.515625 
Q 47.21875 21.78125 47.21875 15.09375 
Q 47.21875 7.46875 41.1875 3.015625 
Q 35.15625 -1.421875 24.609375 -1.421875 
Q 20.21875 -1.421875 15.453125 -0.5625 
Q 10.6875 0.296875 5.421875 2 
L 5.421875 11.28125 
Q 10.40625 8.6875 15.234375 7.390625 
Q 20.0625 6.109375 24.8125 6.109375 
Q 31.15625 6.109375 34.5625 8.28125 
Q 37.984375 10.453125 37.984375 14.40625 
Q 37.984375 18.0625 35.515625 20.015625 
Q 33.0625 21.96875 24.703125 23.78125 
L 21.578125 24.515625 
Q 13.234375 26.265625 9.515625 29.90625 
Q 5.8125 33.546875 5.8125 39.890625 
Q 5.8125 47.609375 11.28125 51.796875 
Q 16.75 56 26.8125 56 
Q 31.78125 56 36.171875 55.265625 
Q 40.578125 54.546875 44.28125 53.078125 
z
" id="DejaVuSans-73"/>
      <path d="M 25.390625 72.90625 
L 33.6875 72.90625 
L 8.296875 -9.28125 
L 0 -9.28125 
z
" id="DejaVuSans-2f"/>
      <path d="M 45.40625 46.390625 
L 45.40625 75.984375 
L 54.390625 75.984375 
L 54.390625 0 
L 45.40625 0 
L 45.40625 8.203125 
Q 42.578125 3.328125 38.25 0.953125 
Q 33.9375 -1.421875 27.875 -1.421875 
Q 17.96875 -1.421875 11.734375 6.484375 
Q 5.515625 14.40625 5.515625 27.296875 
Q 5.515625 40.1875 11.734375 48.09375 
Q 17.96875 56 27.875 56 
Q 33.9375 56 38.25 53.625 
Q 42.578125 51.265625 45.40625 46.390625 
z
M 14.796875 27.296875 
Q 14.796875 17.390625 18.875 11.75 
Q 22.953125 6.109375 30.078125 6.109375 
Q 37.203125 6.109375 41.296875 11.75 
Q 45.40625 17.390625 45.40625 27.296875 
Q 45.40625 37.203125 41.296875 42.84375 
Q 37.203125 48.484375 30.078125 48.484375 
Q 22.953125 48.484375 18.875 42.84375 
Q 14.796875 37.203125 14.796875 27.296875 
z
" id="DejaVuSans-64"/>
      <path d="M 9.421875 54.6875 
L 18.40625 54.6875 
L 18.40625 0 
L 9.421875 0 
z
M 9.421875 75.984375 
L 18.40625 75.984375 
L 18.40625 64.59375 
L 9.421875 64.59375 
z
" id="DejaVuSans-69"/>
      <path d="M 52 44.1875 
Q 55.375 50.25 60.0625 53.125 
Q 64.75 56 71.09375 56 
Q 79.640625 56 84.28125 50.015625 
Q 88.921875 44.046875 88.921875 33.015625 
L 88.921875 0 
L 79.890625 0 
L 79.890625 32.71875 
Q 79.890625 40.578125 77.09375 44.375 
Q 74.3125 48.1875 68.609375 48.1875 
Q 61.625 48.1875 57.5625 43.546875 
Q 53.515625 38.921875 53.515625 30.90625 
L 53.515625 0 
L 44.484375 0 
L 44.484375 32.71875 
Q 44.484375 40.625 41.703125 44.40625 
Q 38.921875 48.1875 33.109375 48.1875 
Q 26.21875 48.1875 22.15625 43.53125 
Q 18.109375 38.875 18.109375 30.90625 
L 18.109375 0 
L 9.078125 0 
L 9.078125 54.6875 
L 18.109375 54.6875 
L 18.109375 46.1875 
Q 21.1875 51.21875 25.484375 53.609375 
Q 29.78125 56 35.6875 56 
Q 41.65625 56 45.828125 52.96875 
Q 50 49.953125 52 44.1875 
z
" id="DejaVuSans-6d"/>
      <path d="M 54.890625 33.015625 
L 54.890625 0 
L 45.90625 0 
L 45.90625 32.71875 
Q 45.90625 40.484375 42.875 44.328125 
Q 39.84375 48.1875 33.796875 48.1875 
Q 26.515625 48.1875 22.3125 43.546875 
Q 18.109375 38.921875 18.109375 30.90625 
L 18.109375 0 
L 9.078125 0 
L 9.078125 54.6875 
L 18.109375 54.6875 
L 18.109375 46.1875 
Q 21.34375 51.125 25.703125 53.5625 
Q 30.078125 56 35.796875 56 
Q 45.21875 56 50.046875 50.171875 
Q 54.890625 44.34375 54.890625 33.015625 
z
" id="DejaVuSans-6e"/>
      <path d="M 8.015625 75.875 
L 15.828125 75.875 
Q 23.140625 64.359375 26.78125 53.3125 
Q 30.421875 42.28125 30.421875 31.390625 
Q 30.421875 20.453125 26.78125 9.375 
Q 23.140625 -1.703125 15.828125 -13.1875 
L 8.015625 -13.1875 
Q 14.5 -2 17.703125 9.0625 
Q 20.90625 20.125 20.90625 31.390625 
Q 20.90625 42.671875 17.703125 53.65625 
Q 14.5 64.65625 8.015625 75.875 
z
" id="DejaVuSans-29"/>
     </defs>
     <g transform="translate(107.211219 338.153594)scale(0.17 -0.17)">
      <use xlink:href="#DejaVuSans-6c"/>
      <use x="27.783203" xlink:href="#DejaVuSans-6f"/>
      <use x="88.964844" xlink:href="#DejaVuSans-67"/>
      <use x="152.441406" xlink:href="#DejaVuSans-31"/>
      <use x="216.064453" xlink:href="#DejaVuSans-30"/>
      <use x="279.6875" xlink:href="#DejaVuSans-28"/>
      <use x="318.701172" xlink:href="#DejaVuSans-23"/>
      <use x="402.490234" xlink:href="#DejaVuSans-20"/>
      <use x="434.277344" xlink:href="#DejaVuSans-66"/>
      <use x="469.404297" xlink:href="#DejaVuSans-2d"/>
      <use x="505.488281" xlink:href="#DejaVuSans-65"/>
      <use x="567.011719" xlink:href="#DejaVuSans-76"/>
      <use x="626.191406" xlink:href="#DejaVuSans-61"/>
      <use x="687.470703" xlink:href="#DejaVuSans-6c"/>
      <use x="715.253906" xlink:href="#DejaVuSans-73"/>
      <use x="767.353516" xlink:href="#DejaVuSans-20"/>
      <use x="799.140625" xlink:href="#DejaVuSans-2f"/>
      <use x="832.832031" xlink:href="#DejaVuSans-20"/>
      <use x="864.619141" xlink:href="#DejaVuSans-64"/>
      <use x="928.095703" xlink:href="#DejaVuSans-69"/>
      <use x="955.878906" xlink:href="#DejaVuSans-6d"/>
      <use x="1053.291016" xlink:href="#DejaVuSans-65"/>
      <use x="1114.814453" xlink:href="#DejaVuSans-6e"/>
      <use x="1178.193359" xlink:href="#DejaVuSans-73"/>
      <use x="1230.292969" xlink:href="#DejaVuSans-69"/>
      <use x="1258.076172" xlink:href="#DejaVuSans-6f"/>
      <use x="1319.257812" xlink:href="#DejaVuSans-6e"/>
      <use x="1382.636719" xlink:href="#DejaVuSans-29"/>
     </g>
    </g>
   </g>
   <g id="matplotlib.axis_2">
    <g id="ytick_1">
     <g id="line2d_14">
      <path clip-path="url(#p82d47e8b99)" d="M 56.12 294.88 
L 399.984 294.88 
" style="fill:none;stroke:#b0b0b0;stroke-linecap:square;stroke-width:0.8;"/>
     </g>
     <g id="line2d_15">
      <defs>
       <path d="M 0 0 
L -3.5 0 
" id="m846c38effa" style="stroke:#000000;stroke-width:0.8;"/>
      </defs>
      <g>
       <use style="stroke:#000000;stroke-width:0.8;" x="56.12" xlink:href="#m846c38effa" y="294.88"/>
      </g>
     </g>
     <g id="text_7">
      <!-- 0.0 -->
      <defs>
       <path d="M 10.6875 12.40625 
L 21 12.40625 
L 21 0 
L 10.6875 0 
z
" id="DejaVuSans-2e"/>
      </defs>
      <g transform="translate(23.675 300.95875)scale(0.16 -0.16)">
       <use xlink:href="#DejaVuSans-30"/>
       <use x="63.623047" xlink:href="#DejaVuSans-2e"/>
       <use x="95.410156" xlink:href="#DejaVuSans-30"/>
      </g>
     </g>
    </g>
    <g id="ytick_2">
     <g id="line2d_16">
      <path clip-path="url(#p82d47e8b99)" d="M 56.12 241.406733 
L 399.984 241.406733 
" style="fill:none;stroke:#b0b0b0;stroke-linecap:square;stroke-width:0.8;"/>
     </g>
     <g id="line2d_17">
      <g>
       <use style="stroke:#000000;stroke-width:0.8;" x="56.12" xlink:href="#m846c38effa" y="241.406733"/>
      </g>
     </g>
     <g id="text_8">
      <!-- 0.2 -->
      <g transform="translate(23.675 247.485483)scale(0.16 -0.16)">
       <use xlink:href="#DejaVuSans-30"/>
       <use x="63.623047" xlink:href="#DejaVuSans-2e"/>
       <use x="95.410156" xlink:href="#DejaVuSans-32"/>
      </g>
     </g>
    </g>
    <g id="ytick_3">
     <g id="line2d_18">
      <path clip-path="url(#p82d47e8b99)" d="M 56.12 187.933465 
L 399.984 187.933465 
" style="fill:none;stroke:#b0b0b0;stroke-linecap:square;stroke-width:0.8;"/>
     </g>
     <g id="line2d_19">
      <g>
       <use style="stroke:#000000;stroke-width:0.8;" x="56.12" xlink:href="#m846c38effa" y="187.933465"/>
      </g>
     </g>
     <g id="text_9">
      <!-- 0.4 -->
      <g transform="translate(23.675 194.012215)scale(0.16 -0.16)">
       <use xlink:href="#DejaVuSans-30"/>
       <use x="63.623047" xlink:href="#DejaVuSans-2e"/>
       <use x="95.410156" xlink:href="#DejaVuSans-34"/>
      </g>
     </g>
    </g>
    <g id="ytick_4">
     <g id="line2d_20">
      <path clip-path="url(#p82d47e8b99)" d="M 56.12 134.460198 
L 399.984 134.460198 
" style="fill:none;stroke:#b0b0b0;stroke-linecap:square;stroke-width:0.8;"/>
     </g>
     <g id="line2d_21">
      <g>
       <use style="stroke:#000000;stroke-width:0.8;" x="56.12" xlink:href="#m846c38effa" y="134.460198"/>
      </g>
     </g>
     <g id="text_10">
      <!-- 0.6 -->
      <g transform="translate(23.675 140.538948)scale(0.16 -0.16)">
       <use xlink:href="#DejaVuSans-30"/>
       <use x="63.623047" xlink:href="#DejaVuSans-2e"/>
       <use x="95.410156" xlink:href="#DejaVuSans-36"/>
      </g>
     </g>
    </g>
    <g id="ytick_5">
     <g id="line2d_22">
      <path clip-path="url(#p82d47e8b99)" d="M 56.12 80.986931 
L 399.984 80.986931 
" style="fill:none;stroke:#b0b0b0;stroke-linecap:square;stroke-width:0.8;"/>
     </g>
     <g id="line2d_23">
      <g>
       <use style="stroke:#000000;stroke-width:0.8;" x="56.12" xlink:href="#m846c38effa" y="80.986931"/>
      </g>
     </g>
     <g id="text_11">
      <!-- 0.8 -->
      <g transform="translate(23.675 87.065681)scale(0.16 -0.16)">
       <use xlink:href="#DejaVuSans-30"/>
       <use x="63.623047" xlink:href="#DejaVuSans-2e"/>
       <use x="95.410156" xlink:href="#DejaVuSans-38"/>
      </g>
     </g>
    </g>
    <g id="ytick_6">
     <g id="line2d_24">
      <path clip-path="url(#p82d47e8b99)" d="M 56.12 27.513663 
L 399.984 27.513663 
" style="fill:none;stroke:#b0b0b0;stroke-linecap:square;stroke-width:0.8;"/>
     </g>
     <g id="line2d_25">
      <g>
       <use style="stroke:#000000;stroke-width:0.8;" x="56.12" xlink:href="#m846c38effa" y="27.513663"/>
      </g>
     </g>
     <g id="text_12">
      <!-- 1.0 -->
      <g transform="translate(23.675 33.592413)scale(0.16 -0.16)">
       <use xlink:href="#DejaVuSans-31"/>
       <use x="63.623047" xlink:href="#DejaVuSans-2e"/>
       <use x="95.410156" xlink:href="#DejaVuSans-30"/>
      </g>
     </g>
    </g>
    <g id="text_13">
     <!-- Fraction of function,target pairs -->
     <defs>
      <path d="M 9.8125 72.90625 
L 51.703125 72.90625 
L 51.703125 64.59375 
L 19.671875 64.59375 
L 19.671875 43.109375 
L 48.578125 43.109375 
L 48.578125 34.8125 
L 19.671875 34.8125 
L 19.671875 0 
L 9.8125 0 
z
" id="DejaVuSans-46"/>
      <path d="M 41.109375 46.296875 
Q 39.59375 47.171875 37.8125 47.578125 
Q 36.03125 48 33.890625 48 
Q 26.265625 48 22.1875 43.046875 
Q 18.109375 38.09375 18.109375 28.8125 
L 18.109375 0 
L 9.078125 0 
L 9.078125 54.6875 
L 18.109375 54.6875 
L 18.109375 46.1875 
Q 20.953125 51.171875 25.484375 53.578125 
Q 30.03125 56 36.53125 56 
Q 37.453125 56 38.578125 55.875 
Q 39.703125 55.765625 41.0625 55.515625 
z
" id="DejaVuSans-72"/>
      <path d="M 48.78125 52.59375 
L 48.78125 44.1875 
Q 44.96875 46.296875 41.140625 47.34375 
Q 37.3125 48.390625 33.40625 48.390625 
Q 24.65625 48.390625 19.8125 42.84375 
Q 14.984375 37.3125 14.984375 27.296875 
Q 14.984375 17.28125 19.8125 11.734375 
Q 24.65625 6.203125 33.40625 6.203125 
Q 37.3125 6.203125 41.140625 7.25 
Q 44.96875 8.296875 48.78125 10.40625 
L 48.78125 2.09375 
Q 45.015625 0.34375 40.984375 -0.53125 
Q 36.96875 -1.421875 32.421875 -1.421875 
Q 20.0625 -1.421875 12.78125 6.34375 
Q 5.515625 14.109375 5.515625 27.296875 
Q 5.515625 40.671875 12.859375 48.328125 
Q 20.21875 56 33.015625 56 
Q 37.15625 56 41.109375 55.140625 
Q 45.0625 54.296875 48.78125 52.59375 
z
" id="DejaVuSans-63"/>
      <path d="M 18.3125 70.21875 
L 18.3125 54.6875 
L 36.8125 54.6875 
L 36.8125 47.703125 
L 18.3125 47.703125 
L 18.3125 18.015625 
Q 18.3125 11.328125 20.140625 9.421875 
Q 21.96875 7.515625 27.59375 7.515625 
L 36.8125 7.515625 
L 36.8125 0 
L 27.59375 0 
Q 17.1875 0 13.234375 3.875 
Q 9.28125 7.765625 9.28125 18.015625 
L 9.28125 47.703125 
L 2.6875 47.703125 
L 2.6875 54.6875 
L 9.28125 54.6875 
L 9.28125 70.21875 
z
" id="DejaVuSans-74"/>
      <path d="M 8.5 21.578125 
L 8.5 54.6875 
L 17.484375 54.6875 
L 17.484375 21.921875 
Q 17.484375 14.15625 20.5 10.265625 
Q 23.53125 6.390625 29.59375 6.390625 
Q 36.859375 6.390625 41.078125 11.03125 
Q 45.3125 15.671875 45.3125 23.6875 
L 45.3125 54.6875 
L 54.296875 54.6875 
L 54.296875 0 
L 45.3125 0 
L 45.3125 8.40625 
Q 42.046875 3.421875 37.71875 1 
Q 33.40625 -1.421875 27.6875 -1.421875 
Q 18.265625 -1.421875 13.375 4.4375 
Q 8.5 10.296875 8.5 21.578125 
z
M 31.109375 56 
z
" id="DejaVuSans-75"/>
      <path d="M 11.71875 12.40625 
L 22.015625 12.40625 
L 22.015625 4 
L 14.015625 -11.625 
L 7.71875 -11.625 
L 11.71875 4 
z
" id="DejaVuSans-2c"/>
      <path d="M 18.109375 8.203125 
L 18.109375 -20.796875 
L 9.078125 -20.796875 
L 9.078125 54.6875 
L 18.109375 54.6875 
L 18.109375 46.390625 
Q 20.953125 51.265625 25.265625 53.625 
Q 29.59375 56 35.59375 56 
Q 45.5625 56 51.78125 48.09375 
Q 58.015625 40.1875 58.015625 27.296875 
Q 58.015625 14.40625 51.78125 6.484375 
Q 45.5625 -1.421875 35.59375 -1.421875 
Q 29.59375 -1.421875 25.265625 0.953125 
Q 20.953125 3.328125 18.109375 8.203125 
z
M 48.6875 27.296875 
Q 48.6875 37.203125 44.609375 42.84375 
Q 40.53125 48.484375 33.40625 48.484375 
Q 26.265625 48.484375 22.1875 42.84375 
Q 18.109375 37.203125 18.109375 27.296875 
Q 18.109375 17.390625 22.1875 11.75 
Q 26.265625 6.109375 33.40625 6.109375 
Q 40.53125 6.109375 44.609375 11.75 
Q 48.6875 17.390625 48.6875 27.296875 
z
" id="DejaVuSans-70"/>
     </defs>
     <g transform="translate(16.139531 294.999375)rotate(-90)scale(0.17 -0.17)">
      <use xlink:href="#DejaVuSans-46"/>
      <use x="57.410156" xlink:href="#DejaVuSans-72"/>
      <use x="98.523438" xlink:href="#DejaVuSans-61"/>
      <use x="159.802734" xlink:href="#DejaVuSans-63"/>
      <use x="214.783203" xlink:href="#DejaVuSans-74"/>
      <use x="253.992188" xlink:href="#DejaVuSans-69"/>
      <use x="281.775391" xlink:href="#DejaVuSans-6f"/>
      <use x="342.957031" xlink:href="#DejaVuSans-6e"/>
      <use x="406.335938" xlink:href="#DejaVuSans-20"/>
      <use x="438.123047" xlink:href="#DejaVuSans-6f"/>
      <use x="499.304688" xlink:href="#DejaVuSans-66"/>
      <use x="534.509766" xlink:href="#DejaVuSans-20"/>
      <use x="566.296875" xlink:href="#DejaVuSans-66"/>
      <use x="601.501953" xlink:href="#DejaVuSans-75"/>
      <use x="664.880859" xlink:href="#DejaVuSans-6e"/>
      <use x="728.259766" xlink:href="#DejaVuSans-63"/>
      <use x="783.240234" xlink:href="#DejaVuSans-74"/>
      <use x="822.449219" xlink:href="#DejaVuSans-69"/>
      <use x="850.232422" xlink:href="#DejaVuSans-6f"/>
      <use x="911.414062" xlink:href="#DejaVuSans-6e"/>
      <use x="974.792969" xlink:href="#DejaVuSans-2c"/>
      <use x="1006.580078" xlink:href="#DejaVuSans-74"/>
      <use x="1045.789062" xlink:href="#DejaVuSans-61"/>
      <use x="1107.068359" xlink:href="#DejaVuSans-72"/>
      <use x="1148.166016" xlink:href="#DejaVuSans-67"/>
      <use x="1211.642578" xlink:href="#DejaVuSans-65"/>
      <use x="1273.166016" xlink:href="#DejaVuSans-74"/>
      <use x="1312.375" xlink:href="#DejaVuSans-20"/>
      <use x="1344.162109" xlink:href="#DejaVuSans-70"/>
      <use x="1407.638672" xlink:href="#DejaVuSans-61"/>
      <use x="1468.917969" xlink:href="#DejaVuSans-69"/>
      <use x="1496.701172" xlink:href="#DejaVuSans-72"/>
      <use x="1537.814453" xlink:href="#DejaVuSans-73"/>
     </g>
    </g>
   </g>
   <g id="line2d_26">
    <defs>
     <path d="M 0 1.5 
C 0.397805 1.5 0.77937 1.341951 1.06066 1.06066 
C 1.341951 0.77937 1.5 0.397805 1.5 0 
C 1.5 -0.397805 1.341951 -0.77937 1.06066 -1.06066 
C 0.77937 -1.341951 0.397805 -1.5 0 -1.5 
C -0.397805 -1.5 -0.77937 -1.341951 -1.06066 -1.06066 
C -1.341951 -0.77937 -1.5 -0.397805 -1.5 0 
C -1.5 0.397805 -1.341951 0.77937 -1.06066 1.06066 
C -0.77937 1.341951 -0.397805 1.5 0 1.5 
z
" id="mf1b7c95002" style="stroke:#f5deb3;"/>
    </defs>
    <g>
     <use style="fill:#f5deb3;stroke:#f5deb3;" x="310.464313" xlink:href="#mf1b7c95002" y="27.513663"/>
     <use style="fill:#f5deb3;stroke:#f5deb3;" x="310.464313" xlink:href="#mf1b7c95002" y="27.513663"/>
    </g>
   </g>
   <g id="line2d_27">
    <g>
     <use style="fill:#f5deb3;stroke:#f5deb3;stroke-linejoin:miter;stroke-width:1.5;" x="291.491718" xlink:href="#m036e534eab" y="258.18266"/>
     <use style="fill:#f5deb3;stroke:#f5deb3;stroke-linejoin:miter;stroke-width:1.5;" x="310.091782" xlink:href="#m036e534eab" y="142.848162"/>
     <use style="fill:#f5deb3;stroke:#f5deb3;stroke-linejoin:miter;stroke-width:1.5;" x="310.464313" xlink:href="#m036e534eab" y="27.513663"/>
     <use style="fill:#f5deb3;stroke:#f5deb3;stroke-linejoin:miter;stroke-width:1.5;" x="333.429677" xlink:href="#m036e534eab" y="27.513663"/>
    </g>
   </g>
   <g id="line2d_28">
    <defs>
     <path d="M 0 1.5 
C 0.397805 1.5 0.77937 1.341951 1.06066 1.06066 
C 1.341951 0.77937 1.5 0.397805 1.5 0 
C 1.5 -0.397805 1.341951 -0.77937 1.06066 -1.06066 
C 0.77937 -1.341951 0.397805 -1.5 0 -1.5 
C -0.397805 -1.5 -0.77937 -1.341951 -1.06066 -1.06066 
C -1.341951 -0.77937 -1.5 -0.397805 -1.5 0 
C -1.5 0.397805 -1.341951 0.77937 -1.06066 1.06066 
C -0.77937 1.341951 -0.397805 1.5 0 1.5 
z
" id="m3cf466e1d3" style="stroke:#999999;"/>
    </defs>
    <g/>
   </g>
   <g id="line2d_29">
    <path d="M -1 289.637523 
L 333.429677 289.637523 
" style="fill:none;stroke:#999999;stroke-linecap:square;stroke-width:1.5;"/>
   </g>
   <g id="line2d_30"/>
   <g id="line2d_31">
    <path d="M 0 0 
" style="fill:none;stroke:#999999;stroke-linecap:square;stroke-width:1.5;"/>
   </g>
   <g id="line2d_32">
    <path clip-path="url(#p82d47e8b99)" d="M 258.037496 289.637523 
" style="fill:none;stroke:#999999;stroke-linecap:square;stroke-width:1.5;"/>
    <defs>
     <path d="M -12 12 
L 12 -12 
M -12 -12 
L 12 12 
" id="md59f317c0e" style="stroke:#999999;stroke-width:3;"/>
    </defs>
    <g clip-path="url(#p82d47e8b99)">
     <use style="fill:#999999;stroke:#999999;stroke-width:3;" x="258.037496" xlink:href="#md59f317c0e" y="289.637523"/>
    </g>
   </g>
   <g id="line2d_33">
    <g>
     <use style="fill:#999999;stroke:#999999;" x="325.433201" xlink:href="#m3cf466e1d3" y="284.395046"/>
     <use style="fill:#999999;stroke:#999999;" x="325.433201" xlink:href="#m3cf466e1d3" y="284.395046"/>
    </g>
   </g>
   <g id="line2d_34">
    <path d="M -1 289.637523 
L 271.604601 289.637523 
L 271.604601 288.589027 
L 292.606626 288.589027 
L 292.606626 288.06478 
L 294.611453 288.06478 
L 294.611453 287.540532 
L 297.920604 287.540532 
L 297.920604 287.016284 
L 297.927773 287.016284 
L 297.927773 286.492036 
L 306.084045 286.492036 
L 306.084045 285.967789 
L 312.336945 285.967789 
L 312.336945 285.443541 
L 314.213676 285.443541 
L 314.213676 284.919293 
L 325.433201 284.919293 
L 325.433201 284.395046 
L 333.429677 284.395046 
" style="fill:none;stroke:#999999;stroke-linecap:square;stroke-width:1.5;"/>
   </g>
   <g id="line2d_35"/>
   <g id="line2d_36">
    <path d="M 0 0 
" style="fill:none;stroke:#999999;stroke-linecap:square;stroke-width:1.5;"/>
   </g>
   <g id="line2d_37">
    <path clip-path="url(#p82d47e8b99)" d="M 293.827915 288.06478 
" style="fill:none;stroke:#999999;stroke-linecap:square;stroke-width:1.5;"/>
    <g clip-path="url(#p82d47e8b99)">
     <use style="fill:#999999;stroke:#999999;stroke-width:3;" x="293.827915" xlink:href="#md59f317c0e" y="288.06478"/>
    </g>
   </g>
   <g id="line2d_38">
    <g/>
   </g>
   <g id="line2d_39">
    <path d="M -1 289.637523 
L 333.429677 289.637523 
" style="fill:none;stroke:#999999;stroke-linecap:square;stroke-width:1.5;"/>
   </g>
   <g id="line2d_40"/>
   <g id="line2d_41">
    <path d="M 0 0 
" style="fill:none;stroke:#999999;stroke-linecap:square;stroke-width:1.5;"/>
   </g>
   <g id="line2d_42">
    <path clip-path="url(#p82d47e8b99)" d="M 186.892509 289.637523 
" style="fill:none;stroke:#999999;stroke-linecap:square;stroke-width:1.5;"/>
    <g clip-path="url(#p82d47e8b99)">
     <use style="fill:#999999;stroke:#999999;stroke-width:3;" x="186.892509" xlink:href="#md59f317c0e" y="289.637523"/>
    </g>
   </g>
   <g id="line2d_43">
    <g/>
   </g>
   <g id="line2d_44">
    <path d="M -1 289.637523 
L 333.429677 289.637523 
" style="fill:none;stroke:#999999;stroke-linecap:square;stroke-width:1.5;"/>
   </g>
   <g id="line2d_45"/>
   <g id="line2d_46">
    <path d="M 0 0 
" style="fill:none;stroke:#999999;stroke-linecap:square;stroke-width:1.5;"/>
   </g>
   <g id="line2d_47">
    <path clip-path="url(#p82d47e8b99)" d="M 172.082105 289.637523 
" style="fill:none;stroke:#999999;stroke-linecap:square;stroke-width:1.5;"/>
    <g clip-path="url(#p82d47e8b99)">
     <use style="fill:#999999;stroke:#999999;stroke-width:3;" x="172.082105" xlink:href="#md59f317c0e" y="289.637523"/>
    </g>
   </g>
   <g id="line2d_48">
    <g>
     <use style="fill:#999999;stroke:#999999;" x="339.602081" xlink:href="#m3cf466e1d3" y="27.513663"/>
     <use style="fill:#999999;stroke:#999999;" x="339.602081" xlink:href="#m3cf466e1d3" y="27.513663"/>
    </g>
   </g>
   <g id="line2d_49">
    <path d="M -1 289.637523 
L 226.156049 289.637523 
L 226.156049 289.113275 
L 236.630464 289.113275 
L 236.630464 288.589027 
L 241.42826 288.589027 
L 241.42826 287.016284 
L 242.349871 287.016284 
L 242.349871 286.492036 
L 243.905173 286.492036 
L 243.905173 285.967789 
L 244.732009 285.967789 
L 244.732009 285.443541 
L 245.094262 285.443541 
L 245.094262 284.919293 
L 245.288718 284.919293 
L 245.288718 284.395046 
L 247.228344 284.395046 
L 247.228344 283.34655 
L 247.822548 283.34655 
L 247.822548 282.822302 
L 248.000117 282.822302 
L 248.000117 282.298055 
L 248.264816 282.298055 
L 248.264816 281.773807 
L 248.892883 281.773807 
L 248.892883 281.249559 
L 249.788089 281.249559 
L 249.788089 280.725312 
L 250.134895 280.725312 
L 250.134895 280.201064 
L 250.690824 280.201064 
L 250.690824 279.676816 
L 251.004325 279.676816 
L 251.004325 279.152568 
L 251.904136 279.152568 
L 251.904136 278.628321 
L 252.190014 278.628321 
L 252.190014 278.104073 
L 252.583606 278.104073 
L 252.670017 277.055578 
L 252.748641 277.055578 
L 252.748641 276.53133 
L 252.973486 276.53133 
L 252.973486 276.007082 
L 253.185808 276.007082 
L 253.185808 274.434339 
L 253.422138 274.434339 
L 253.422138 273.910091 
L 253.564892 273.910091 
L 253.564892 272.861596 
L 254.162888 272.861596 
L 254.162888 271.8131 
L 263.947119 271.8131 
L 263.947119 270.764605 
L 265.348178 270.764605 
L 265.348178 270.240357 
L 265.893762 270.240357 
L 265.893762 269.191862 
L 266.777542 269.191862 
L 266.777542 268.667614 
L 267.706058 268.667614 
L 267.706058 267.619119 
L 267.995107 267.619119 
L 267.995107 267.094871 
L 268.448663 267.094871 
L 268.532591 264.99788 
L 269.061893 264.99788 
L 269.061893 264.473632 
L 269.261732 264.473632 
L 269.261732 263.425137 
L 269.877033 263.425137 
L 269.961271 262.376641 
L 270.184088 262.376641 
L 270.184088 261.852394 
L 270.57702 261.852394 
L 270.57702 261.328146 
L 270.751243 261.328146 
L 270.751243 260.803898 
L 271.162493 260.803898 
L 271.162493 259.755403 
L 271.508301 259.755403 
L 271.508301 258.706907 
L 271.630536 258.706907 
L 271.630536 258.18266 
L 271.768122 258.18266 
L 271.834189 257.134164 
L 271.956973 257.134164 
L 271.956973 256.609917 
L 272.156818 256.609917 
L 272.156818 256.085669 
L 272.277022 256.085669 
L 272.317876 255.037173 
L 272.480261 255.037173 
L 272.480261 253.46443 
L 272.768825 253.46443 
L 272.768825 252.940182 
L 272.897968 252.940182 
L 272.897968 252.415935 
L 273.063933 252.415935 
L 273.063933 251.891687 
L 273.207339 251.891687 
L 273.207339 251.367439 
L 273.765641 251.367439 
L 273.765641 250.843192 
L 273.88782 250.843192 
L 273.915109 249.794696 
L 274.090135 249.794696 
L 274.090135 249.270448 
L 274.203489 249.270448 
L 274.266437 248.221953 
L 274.585998 248.221953 
L 274.585998 247.697705 
L 275.093907 247.697705 
L 275.125919 246.64921 
L 275.377877 246.64921 
L 275.452614 244.552219 
L 275.533601 244.552219 
L 275.540343 243.503724 
L 275.722103 243.503724 
L 275.827748 242.455228 
L 275.899361 242.455228 
L 275.967485 240.882485 
L 276.100237 240.882485 
L 276.100237 240.358237 
L 276.256415 240.358237 
L 276.256415 239.83399 
L 276.375015 239.83399 
L 276.375015 239.309742 
L 276.659968 239.309742 
L 276.760611 237.736999 
L 276.845266 237.736999 
L 276.845266 237.212751 
L 277.086534 237.212751 
L 277.086534 236.688503 
L 277.496143 236.688503 
L 277.496143 236.164255 
L 277.861453 236.164255 
L 277.861453 235.11576 
L 278.27967 235.11576 
L 278.27967 234.591512 
L 278.902804 234.591512 
L 278.902804 234.067265 
L 279.172306 234.067265 
L 279.172306 233.543017 
L 279.998546 233.543017 
L 280.006988 232.494521 
L 280.310693 232.494521 
L 280.310693 231.970274 
L 280.542475 231.970274 
L 280.564116 230.921778 
L 281.014777 230.921778 
L 281.084038 229.349035 
L 281.271766 229.349035 
L 281.271766 228.824787 
L 281.549954 228.824787 
L 281.549954 228.30054 
L 281.665266 228.30054 
L 281.733485 226.727797 
L 282.000904 226.727797 
L 282.090422 225.155053 
L 282.257153 225.155053 
L 282.257153 224.630806 
L 282.382904 224.630806 
L 282.382904 224.106558 
L 282.671193 224.106558 
L 282.757817 222.533815 
L 282.871015 222.533815 
L 282.955168 220.961072 
L 283.012875 220.961072 
L 283.012875 220.436824 
L 283.244332 220.436824 
L 283.300081 219.388328 
L 283.528916 219.388328 
L 283.637004 217.291338 
L 283.680642 217.291338 
L 283.75788 215.194347 
L 283.889159 215.194347 
L 283.945995 213.621604 
L 284.393957 213.621604 
L 284.399007 212.573108 
L 284.576995 212.573108 
L 284.659065 211.000365 
L 284.756137 211.000365 
L 284.756137 210.476117 
L 285.107526 210.476117 
L 285.107526 209.95187 
L 285.303799 209.95187 
L 285.317116 208.903374 
L 285.483324 208.903374 
L 285.54615 207.330631 
L 285.854394 207.330631 
L 285.854394 206.806383 
L 285.983321 206.806383 
L 285.983321 206.282136 
L 286.09602 206.282136 
L 286.15659 205.23364 
L 286.377252 205.23364 
L 286.377252 204.709392 
L 286.847285 204.709392 
L 286.847285 204.185145 
L 287.568421 204.185145 
L 287.568421 203.660897 
L 287.706743 203.660897 
L 287.706743 203.136649 
L 288.048755 203.136649 
L 288.148192 202.088154 
L 288.204302 202.088154 
L 288.204302 201.563906 
L 288.457515 201.563906 
L 288.457515 201.039658 
L 288.661136 201.039658 
L 288.661136 200.515411 
L 288.865347 200.515411 
L 288.865347 199.991163 
L 289.059354 199.991163 
L 289.059354 199.466915 
L 289.280643 199.466915 
L 289.300103 197.894172 
L 289.62812 197.894172 
L 289.637132 196.845677 
L 289.777406 196.845677 
L 289.783646 195.797181 
L 290.739951 195.797181 
L 290.840704 194.748686 
L 290.892669 194.748686 
L 291.002898 193.175943 
L 291.161934 193.175943 
L 291.161934 192.651695 
L 291.341594 192.651695 
L 291.341594 192.127447 
L 291.871986 192.127447 
L 291.93838 191.078952 
L 292.096117 191.078952 
L 292.096117 190.554704 
L 292.317587 190.554704 
L 292.317587 190.030456 
L 292.467177 190.030456 
L 292.467177 189.506209 
L 292.992094 189.506209 
L 292.992094 188.981961 
L 293.520111 188.981961 
L 293.520111 188.457713 
L 293.6433 188.457713 
L 293.739407 187.409218 
L 293.858632 187.409218 
L 293.946459 186.360722 
L 294.022961 186.360722 
L 294.054449 185.312227 
L 294.26269 185.312227 
L 294.310722 182.690988 
L 294.41937 182.690988 
L 294.41937 182.16674 
L 294.63853 182.16674 
L 294.701772 181.118245 
L 294.837624 181.118245 
L 294.857089 180.06975 
L 295.001729 180.06975 
L 295.001729 179.545502 
L 295.172751 179.545502 
L 295.172751 179.021254 
L 295.368844 179.021254 
L 295.451489 177.972759 
L 295.489934 177.972759 
L 295.577548 176.400016 
L 295.655047 176.400016 
L 295.660563 175.35152 
L 295.81292 175.35152 
L 295.81292 174.827272 
L 296.588388 174.827272 
L 296.588388 174.303025 
L 296.930095 174.303025 
L 296.968288 173.254529 
L 297.070055 173.254529 
L 297.070055 172.730281 
L 297.27849 172.730281 
L 297.306251 171.157538 
L 297.481799 171.157538 
L 297.574238 169.584795 
L 297.90712 169.584795 
L 298.01406 168.5363 
L 298.202136 168.5363 
L 298.300448 167.487804 
L 298.352441 167.487804 
L 298.402328 166.439309 
L 298.494708 166.439309 
L 298.605103 164.866566 
L 298.61455 164.866566 
L 298.633032 163.293823 
L 298.784117 163.293823 
L 298.861962 162.245327 
L 298.914515 162.245327 
L 298.973724 161.196832 
L 299.033285 161.196832 
L 299.080142 159.099841 
L 299.200737 159.099841 
L 299.213974 158.051345 
L 299.328661 158.051345 
L 299.328661 157.527098 
L 299.509002 157.527098 
L 299.509002 157.00285 
L 300.056222 157.00285 
L 300.11218 155.954354 
L 300.520005 155.954354 
L 300.630984 154.905859 
L 300.966711 154.905859 
L 301.066287 152.808868 
L 301.081254 152.808868 
L 301.081254 152.28462 
L 301.270401 152.28462 
L 301.352104 150.711877 
L 301.418506 150.711877 
L 301.418506 150.18763 
L 301.580455 150.18763 
L 301.580455 149.663382 
L 301.855948 149.663382 
L 301.95731 148.090639 
L 302.010446 148.090639 
L 302.010446 147.566391 
L 302.224851 147.566391 
L 302.250301 146.517896 
L 302.552402 146.517896 
L 302.552402 145.993648 
L 302.877017 145.993648 
L 302.877017 145.4694 
L 303.088283 145.4694 
L 303.088283 144.945152 
L 303.307731 144.945152 
L 303.307731 144.420905 
L 303.420878 144.420905 
L 303.420878 143.896657 
L 303.534187 143.896657 
L 303.534187 143.372409 
L 303.681211 143.372409 
L 303.743864 142.323914 
L 303.938809 142.323914 
L 304.044132 141.275418 
L 304.05521 141.275418 
L 304.1354 138.129932 
L 304.216809 138.129932 
L 304.31712 137.081437 
L 304.590963 137.081437 
L 304.693457 135.508693 
L 304.936931 135.508693 
L 304.936931 134.984446 
L 305.107539 134.984446 
L 305.107539 134.460198 
L 305.413106 134.460198 
L 305.497983 132.887455 
L 305.999113 132.887455 
L 306.060619 131.838959 
L 306.167463 131.838959 
L 306.268713 129.217721 
L 306.325085 129.217721 
L 306.41675 126.596482 
L 306.454635 126.596482 
L 306.460761 125.547987 
L 306.601012 125.547987 
L 306.705809 123.450996 
L 306.83054 123.450996 
L 306.862114 122.4025 
L 306.946356 122.4025 
L 307.031789 121.354005 
L 307.092464 121.354005 
L 307.199401 119.781262 
L 307.215408 119.781262 
L 307.215408 119.257014 
L 307.365324 119.257014 
L 307.365324 118.732766 
L 307.50801 118.732766 
L 307.613075 117.160023 
L 307.801249 117.160023 
L 307.801249 116.635776 
L 307.936717 116.635776 
L 307.936717 116.111528 
L 308.114782 116.111528 
L 308.114782 115.58728 
L 308.260993 115.58728 
L 308.36879 114.014537 
L 308.417316 114.014537 
L 308.503537 112.441794 
L 308.595582 112.441794 
L 308.595582 111.917546 
L 308.707551 111.917546 
L 308.707551 111.393298 
L 308.905005 111.393298 
L 309.011633 110.344803 
L 309.50036 110.344803 
L 309.50036 109.820555 
L 309.810859 109.820555 
L 309.884637 107.723564 
L 310.022469 107.723564 
L 310.089432 106.675069 
L 310.220683 106.675069 
L 310.295836 105.102326 
L 310.525112 105.102326 
L 310.525112 104.578078 
L 310.668365 104.578078 
L 310.668365 104.05383 
L 310.795723 104.05383 
L 310.893185 103.005335 
L 311.010253 103.005335 
L 311.010253 102.481087 
L 311.212965 102.481087 
L 311.212965 101.956839 
L 311.380859 101.956839 
L 311.397142 100.908344 
L 311.500101 100.908344 
L 311.568942 98.811353 
L 311.6666 98.811353 
L 311.755751 97.23861 
L 311.877971 97.23861 
L 311.877971 96.714362 
L 312.098267 96.714362 
L 312.176329 95.141619 
L 312.330298 95.141619 
L 312.330537 94.093124 
L 312.548154 94.093124 
L 312.548154 93.568876 
L 312.973521 93.568876 
L 312.973521 93.044628 
L 313.103845 93.044628 
L 313.129485 91.996133 
L 313.443812 91.996133 
L 313.540565 90.42339 
L 313.637977 90.42339 
L 313.691696 89.374894 
L 313.769426 89.374894 
L 313.837501 88.326399 
L 314.21947 88.326399 
L 314.21947 87.802151 
L 314.331974 87.802151 
L 314.331974 87.277903 
L 314.540382 87.277903 
L 314.635125 85.70516 
L 314.731588 85.70516 
L 314.731588 85.180912 
L 315.22729 85.180912 
L 315.272368 84.132417 
L 315.455522 84.132417 
L 315.534305 82.559674 
L 315.678266 82.559674 
L 315.761718 81.511178 
L 315.817863 81.511178 
L 315.928692 80.462683 
L 315.939476 80.462683 
L 315.948111 79.414188 
L 316.111309 79.414188 
L 316.21193 78.365692 
L 316.274797 78.365692 
L 316.274797 77.841444 
L 316.450976 77.841444 
L 316.461867 76.792949 
L 316.830726 76.792949 
L 316.938117 75.744454 
L 317.032467 75.744454 
L 317.032467 75.220206 
L 317.197576 75.220206 
L 317.297009 74.17171 
L 317.514303 74.17171 
L 317.514303 73.647463 
L 317.66018 73.647463 
L 317.735747 72.074719 
L 317.9032 72.074719 
L 317.974744 70.501976 
L 318.035662 70.501976 
L 318.049516 69.453481 
L 318.53188 69.453481 
L 318.53188 68.929233 
L 318.819753 68.929233 
L 318.819753 68.404985 
L 319.011459 68.404985 
L 319.074971 66.832242 
L 319.282514 66.832242 
L 319.282514 66.307995 
L 319.619189 66.307995 
L 319.651976 64.735251 
L 319.773633 64.735251 
L 319.812138 63.686756 
L 319.933719 63.686756 
L 320.031302 62.114013 
L 320.117045 62.114013 
L 320.117045 61.589765 
L 320.376368 61.589765 
L 320.376368 61.065517 
L 320.771252 61.065517 
L 320.771252 60.54127 
L 321.026916 60.54127 
L 321.084039 59.492774 
L 321.250261 59.492774 
L 321.264155 58.444279 
L 321.3914 58.444279 
L 321.486546 56.871536 
L 321.585376 56.871536 
L 321.585376 56.347288 
L 321.847227 56.347288 
L 321.914432 55.298792 
L 322.135376 55.298792 
L 322.135376 54.774545 
L 322.291746 54.774545 
L 322.291746 54.250297 
L 322.410012 54.250297 
L 322.410012 53.726049 
L 322.536339 53.726049 
L 322.536339 53.201802 
L 322.798744 53.201802 
L 322.798744 52.677554 
L 323.059961 52.677554 
L 323.148513 51.104811 
L 323.706449 51.104811 
L 323.76556 50.056315 
L 323.883337 50.056315 
L 323.883337 49.532068 
L 324.214325 49.532068 
L 324.234964 48.483572 
L 324.379413 48.483572 
L 324.386401 47.435077 
L 324.512081 47.435077 
L 324.512081 46.910829 
L 324.917737 46.910829 
L 324.994328 45.862334 
L 325.078631 45.862334 
L 325.078631 45.338086 
L 325.487571 45.338086 
L 325.487571 44.813838 
L 325.702191 44.813838 
L 325.702191 44.28959 
L 326.221415 44.28959 
L 326.221415 43.765343 
L 326.711082 43.765343 
L 326.711082 43.241095 
L 326.832086 43.241095 
L 326.858764 42.192599 
L 327.017673 42.192599 
L 327.125401 41.144104 
L 327.287301 41.144104 
L 327.287301 40.619856 
L 327.640829 40.619856 
L 327.652329 39.571361 
L 327.87757 39.571361 
L 327.87757 39.047113 
L 328.084865 39.047113 
L 328.147946 37.998618 
L 328.378966 37.998618 
L 328.378966 37.47437 
L 329.457113 37.47437 
L 329.457113 36.950122 
L 329.607391 36.950122 
L 329.607391 36.425875 
L 330.414575 36.425875 
L 330.432776 35.377379 
L 330.882736 35.377379 
L 330.914906 34.328884 
L 331.212486 34.328884 
L 331.235037 33.280388 
L 331.684478 33.280388 
L 331.684478 32.756141 
L 332.404008 32.756141 
L 332.404008 32.231893 
L 332.831508 32.231893 
L 332.831508 31.707645 
L 333.429677 31.707645 
L 333.429677 31.707645 
" style="fill:none;stroke:#999999;stroke-linecap:square;stroke-width:1.5;"/>
   </g>
   <g id="line2d_50"/>
   <g id="line2d_51">
    <path d="M 0 0 
" style="fill:none;stroke:#999999;stroke-linecap:square;stroke-width:1.5;"/>
   </g>
   <g id="line2d_52">
    <path clip-path="url(#p82d47e8b99)" d="M 269.747169 263.425137 
" style="fill:none;stroke:#999999;stroke-linecap:square;stroke-width:1.5;"/>
    <g clip-path="url(#p82d47e8b99)">
     <use style="fill:#999999;stroke:#999999;stroke-width:3;" x="269.747169" xlink:href="#md59f317c0e" y="263.425137"/>
    </g>
   </g>
   <g id="line2d_53">
    <g/>
   </g>
   <g id="line2d_54">
    <path d="M -1 289.637523 
L 333.429677 289.637523 
" style="fill:none;stroke:#999999;stroke-linecap:square;stroke-width:1.5;"/>
   </g>
   <g id="line2d_55"/>
   <g id="line2d_56">
    <path d="M 0 0 
" style="fill:none;stroke:#999999;stroke-linecap:square;stroke-width:1.5;"/>
   </g>
   <g id="line2d_57">
    <path clip-path="url(#p82d47e8b99)" d="M 214.582716 289.637523 
" style="fill:none;stroke:#999999;stroke-linecap:square;stroke-width:1.5;"/>
    <g clip-path="url(#p82d47e8b99)">
     <use style="fill:#999999;stroke:#999999;stroke-width:3;" x="214.582716" xlink:href="#md59f317c0e" y="289.637523"/>
    </g>
   </g>
   <g id="line2d_58">
    <g/>
   </g>
   <g id="line2d_59">
    <path d="M -1 289.637523 
L 333.429677 289.637523 
" style="fill:none;stroke:#999999;stroke-linecap:square;stroke-width:1.5;"/>
   </g>
   <g id="line2d_60"/>
   <g id="line2d_61">
    <path d="M 0 0 
" style="fill:none;stroke:#999999;stroke-linecap:square;stroke-width:1.5;"/>
   </g>
   <g id="line2d_62">
    <path clip-path="url(#p82d47e8b99)" d="M 261.9221 289.637523 
" style="fill:none;stroke:#999999;stroke-linecap:square;stroke-width:1.5;"/>
    <g clip-path="url(#p82d47e8b99)">
     <use style="fill:#999999;stroke:#999999;stroke-width:3;" x="261.9221" xlink:href="#md59f317c0e" y="289.637523"/>
    </g>
   </g>
   <g id="line2d_63">
    <g/>
   </g>
   <g id="line2d_64">
    <path d="M -1 289.637523 
L 333.429677 289.637523 
" style="fill:none;stroke:#999999;stroke-linecap:square;stroke-width:1.5;"/>
   </g>
   <g id="line2d_65"/>
   <g id="line2d_66">
    <path d="M 0 0 
" style="fill:none;stroke:#999999;stroke-linecap:square;stroke-width:1.5;"/>
   </g>
   <g id="line2d_67">
    <path clip-path="url(#p82d47e8b99)" d="M 186.901109 289.637523 
" style="fill:none;stroke:#999999;stroke-linecap:square;stroke-width:1.5;"/>
    <g clip-path="url(#p82d47e8b99)">
     <use style="fill:#999999;stroke:#999999;stroke-width:3;" x="186.901109" xlink:href="#md59f317c0e" y="289.637523"/>
    </g>
   </g>
   <g id="line2d_68">
    <g/>
   </g>
   <g id="line2d_69">
    <path d="M -1 289.637523 
L 333.429677 289.637523 
" style="fill:none;stroke:#999999;stroke-linecap:square;stroke-width:1.5;"/>
   </g>
   <g id="line2d_70"/>
   <g id="line2d_71">
    <path d="M 0 0 
" style="fill:none;stroke:#999999;stroke-linecap:square;stroke-width:1.5;"/>
   </g>
   <g id="line2d_72">
    <path clip-path="url(#p82d47e8b99)" d="M 214.58306 289.637523 
" style="fill:none;stroke:#999999;stroke-linecap:square;stroke-width:1.5;"/>
    <g clip-path="url(#p82d47e8b99)">
     <use style="fill:#999999;stroke:#999999;stroke-width:3;" x="214.58306" xlink:href="#md59f317c0e" y="289.637523"/>
    </g>
   </g>
   <g id="line2d_73">
    <g/>
   </g>
   <g id="line2d_74">
    <path d="M -1 289.637523 
L 333.429677 289.637523 
" style="fill:none;stroke:#999999;stroke-linecap:square;stroke-width:1.5;"/>
   </g>
   <g id="line2d_75"/>
   <g id="line2d_76">
    <path d="M 0 0 
" style="fill:none;stroke:#999999;stroke-linecap:square;stroke-width:1.5;"/>
   </g>
   <g id="line2d_77">
    <path clip-path="url(#p82d47e8b99)" d="M 293.814009 289.637523 
" style="fill:none;stroke:#999999;stroke-linecap:square;stroke-width:1.5;"/>
    <g clip-path="url(#p82d47e8b99)">
     <use style="fill:#999999;stroke:#999999;stroke-width:3;" x="293.814009" xlink:href="#md59f317c0e" y="289.637523"/>
    </g>
   </g>
   <g id="line2d_78">
    <g>
     <use style="fill:#999999;stroke:#999999;" x="348.479764" xlink:href="#m3cf466e1d3" y="284.395046"/>
     <use style="fill:#999999;stroke:#999999;" x="348.479764" xlink:href="#m3cf466e1d3" y="284.395046"/>
    </g>
   </g>
   <g id="line2d_79">
    <path d="M -1 289.637523 
L 293.517918 289.637523 
L 293.517918 289.113275 
L 296.556446 289.113275 
L 296.556446 288.589027 
L 307.165317 288.589027 
L 307.165317 288.06478 
L 312.617355 288.06478 
L 312.617355 287.540532 
L 324.591995 287.540532 
L 324.591995 287.016284 
L 325.129506 287.016284 
L 325.129506 286.492036 
L 327.251145 286.492036 
L 327.251145 285.967789 
L 329.553789 285.967789 
L 329.553789 285.443541 
L 333.429677 285.443541 
" style="fill:none;stroke:#999999;stroke-linecap:square;stroke-width:1.5;"/>
   </g>
   <g id="line2d_80"/>
   <g id="line2d_81">
    <path d="M 0 0 
" style="fill:none;stroke:#999999;stroke-linecap:square;stroke-width:1.5;"/>
   </g>
   <g id="line2d_82">
    <path clip-path="url(#p82d47e8b99)" d="M 293.814009 289.113275 
" style="fill:none;stroke:#999999;stroke-linecap:square;stroke-width:1.5;"/>
    <g clip-path="url(#p82d47e8b99)">
     <use style="fill:#999999;stroke:#999999;stroke-width:3;" x="293.814009" xlink:href="#md59f317c0e" y="289.113275"/>
    </g>
   </g>
   <g id="line2d_83">
    <g>
     <use style="fill:#999999;stroke:#999999;" x="329.119455" xlink:href="#m3cf466e1d3" y="284.395046"/>
     <use style="fill:#999999;stroke:#999999;" x="329.119455" xlink:href="#m3cf466e1d3" y="284.395046"/>
    </g>
   </g>
   <g id="line2d_84">
    <path d="M -1 289.637523 
L 274.361454 289.637523 
L 274.361454 289.113275 
L 275.198686 289.113275 
L 275.198686 288.589027 
L 292.512035 288.589027 
L 292.512035 287.540532 
L 296.225189 287.540532 
L 296.225189 287.016284 
L 296.231888 287.016284 
L 296.231888 286.492036 
L 312.301362 286.492036 
L 312.301362 285.967789 
L 314.49316 285.967789 
L 314.49316 285.443541 
L 314.570296 285.443541 
L 314.570296 284.919293 
L 329.119455 284.919293 
L 329.119455 284.395046 
L 333.429677 284.395046 
" style="fill:none;stroke:#999999;stroke-linecap:square;stroke-width:1.5;"/>
   </g>
   <g id="line2d_85"/>
   <g id="line2d_86">
    <path d="M 0 0 
" style="fill:none;stroke:#999999;stroke-linecap:square;stroke-width:1.5;"/>
   </g>
   <g id="line2d_87">
    <path clip-path="url(#p82d47e8b99)" d="M 293.831588 287.540532 
" style="fill:none;stroke:#999999;stroke-linecap:square;stroke-width:1.5;"/>
    <g clip-path="url(#p82d47e8b99)">
     <use style="fill:#999999;stroke:#999999;stroke-width:3;" x="293.831588" xlink:href="#md59f317c0e" y="287.540532"/>
    </g>
   </g>
   <g id="line2d_88">
    <defs>
     <path d="M 0 1.5 
C 0.397805 1.5 0.77937 1.341951 1.06066 1.06066 
C 1.341951 0.77937 1.5 0.397805 1.5 0 
C 1.5 -0.397805 1.341951 -0.77937 1.06066 -1.06066 
C 0.77937 -1.341951 0.397805 -1.5 0 -1.5 
C -0.397805 -1.5 -0.77937 -1.341951 -1.06066 -1.06066 
C -1.341951 -0.77937 -1.5 -0.397805 -1.5 0 
C -1.5 0.397805 -1.341951 0.77937 -1.06066 1.06066 
C -0.77937 1.341951 -0.397805 1.5 0 1.5 
z
" id="ma0f1d238b2" style="stroke:#ff00ff;"/>
    </defs>
    <g>
     <use style="fill:#ff00ff;stroke:#ff00ff;" x="16.504332" xlink:href="#ma0f1d238b2" y="289.637523"/>
     <use style="fill:#ff00ff;stroke:#ff00ff;" x="16.504332" xlink:href="#ma0f1d238b2" y="289.637523"/>
    </g>
   </g>
   <g id="line2d_89">
    <path d="M -1 290.161771 
L 16.504332 290.161771 
L 16.504332 289.637523 
L 333.429677 289.637523 
" style="fill:none;stroke:#ff00ff;stroke-linecap:square;stroke-width:1.5;"/>
   </g>
   <g id="line2d_90">
    <defs>
     <path d="M -0 8.485281 
L 5.091169 0 
L 0 -8.485281 
L -5.091169 -0 
z
" id="mad76641f46" style="stroke:#ff00ff;stroke-linejoin:miter;stroke-width:1.5;"/>
    </defs>
    <g>
     <use style="fill:none;stroke:#ff00ff;stroke-linejoin:miter;stroke-width:1.5;" x="333.429677" xlink:href="#mad76641f46" y="289.637523"/>
    </g>
   </g>
   <g id="line2d_91">
    <path d="M 0 0 
" style="fill:none;stroke:#ff00ff;stroke-linecap:square;stroke-width:1.5;"/>
    <g>
     <use style="fill:none;stroke:#ff00ff;stroke-linejoin:miter;stroke-width:1.5;" x="0" xlink:href="#mad76641f46" y="0"/>
    </g>
   </g>
   <g id="line2d_92">
    <path clip-path="url(#p82d47e8b99)" d="M 214.618336 289.637523 
" style="fill:none;stroke:#ff00ff;stroke-linecap:square;stroke-width:1.5;"/>
    <defs>
     <path d="M -12 12 
L 12 -12 
M -12 -12 
L 12 12 
" id="md2d81f89a8" style="stroke:#ff00ff;stroke-width:3;"/>
    </defs>
    <g clip-path="url(#p82d47e8b99)">
     <use style="fill:#ff00ff;stroke:#ff00ff;stroke-width:3;" x="214.618336" xlink:href="#md2d81f89a8" y="289.637523"/>
    </g>
   </g>
   <g id="line2d_93">
    <path d="M 333.429677 289.637523 
L 363.933742 289.532673 
" style="fill:none;stroke:#ff00ff;stroke-linecap:square;stroke-width:1.5;"/>
    <g>
     <use style="fill:none;stroke:#ff00ff;stroke-linejoin:miter;stroke-width:1.5;" x="333.429677" xlink:href="#mad76641f46" y="289.637523"/>
     <use style="fill:none;stroke:#ff00ff;stroke-linejoin:miter;stroke-width:1.5;" x="363.933742" xlink:href="#mad76641f46" y="289.532673"/>
    </g>
   </g>
   <g id="line2d_94">
    <path d="M 333.429677 294.88 
L 333.429677 27.513663 
" style="fill:none;stroke:#000000;stroke-linecap:square;stroke-width:1.5;"/>
   </g>
   <g id="patch_3">
    <path d="M 56.12 294.88 
L 56.12 24.84 
" style="fill:none;stroke:#000000;stroke-linecap:square;stroke-linejoin:miter;stroke-width:0.8;"/>
   </g>
   <g id="patch_4">
    <path d="M 399.984 294.88 
L 399.984 24.84 
" style="fill:none;stroke:#000000;stroke-linecap:square;stroke-linejoin:miter;stroke-width:0.8;"/>
   </g>
   <g id="patch_5">
    <path d="M 56.12 294.88 
L 399.984 294.88 
" style="fill:none;stroke:#000000;stroke-linecap:square;stroke-linejoin:miter;stroke-width:0.8;"/>
   </g>
   <g id="patch_6">
    <path d="M 56.12 24.84 
L 399.984 24.84 
" style="fill:none;stroke:#000000;stroke-linecap:square;stroke-linejoin:miter;stroke-width:0.8;"/>
   </g>
   <g id="text_14">
    <!-- SNES scha -->
    <defs>
     <path d="M 53.515625 70.515625 
L 53.515625 60.890625 
Q 47.90625 63.578125 42.921875 64.890625 
Q 37.9375 66.21875 33.296875 66.21875 
Q 25.25 66.21875 20.875 63.09375 
Q 16.5 59.96875 16.5 54.203125 
Q 16.5 49.359375 19.40625 46.890625 
Q 22.3125 44.4375 30.421875 42.921875 
L 36.375 41.703125 
Q 47.40625 39.59375 52.65625 34.296875 
Q 57.90625 29 57.90625 20.125 
Q 57.90625 9.515625 50.796875 4.046875 
Q 43.703125 -1.421875 29.984375 -1.421875 
Q 24.8125 -1.421875 18.96875 -0.25 
Q 13.140625 0.921875 6.890625 3.21875 
L 6.890625 13.375 
Q 12.890625 10.015625 18.65625 8.296875 
Q 24.421875 6.59375 29.984375 6.59375 
Q 38.421875 6.59375 43.015625 9.90625 
Q 47.609375 13.234375 47.609375 19.390625 
Q 47.609375 24.75 44.3125 27.78125 
Q 41.015625 30.8125 33.5 32.328125 
L 27.484375 33.5 
Q 16.453125 35.6875 11.515625 40.375 
Q 6.59375 45.0625 6.59375 53.421875 
Q 6.59375 63.09375 13.40625 68.65625 
Q 20.21875 74.21875 32.171875 74.21875 
Q 37.3125 74.21875 42.625 73.28125 
Q 47.953125 72.359375 53.515625 70.515625 
z
" id="DejaVuSans-53"/>
     <path d="M 9.8125 72.90625 
L 23.09375 72.90625 
L 55.421875 11.921875 
L 55.421875 72.90625 
L 64.984375 72.90625 
L 64.984375 0 
L 51.703125 0 
L 19.390625 60.984375 
L 19.390625 0 
L 9.8125 0 
z
" id="DejaVuSans-4e"/>
     <path d="M 9.8125 72.90625 
L 55.90625 72.90625 
L 55.90625 64.59375 
L 19.671875 64.59375 
L 19.671875 43.015625 
L 54.390625 43.015625 
L 54.390625 34.71875 
L 19.671875 34.71875 
L 19.671875 8.296875 
L 56.78125 8.296875 
L 56.78125 0 
L 9.8125 0 
z
" id="DejaVuSans-45"/>
     <path d="M 54.890625 33.015625 
L 54.890625 0 
L 45.90625 0 
L 45.90625 32.71875 
Q 45.90625 40.484375 42.875 44.328125 
Q 39.84375 48.1875 33.796875 48.1875 
Q 26.515625 48.1875 22.3125 43.546875 
Q 18.109375 38.921875 18.109375 30.90625 
L 18.109375 0 
L 9.078125 0 
L 9.078125 75.984375 
L 18.109375 75.984375 
L 18.109375 46.1875 
Q 21.34375 51.125 25.703125 53.5625 
Q 30.078125 56 35.796875 56 
Q 45.21875 56 50.046875 50.171875 
Q 54.890625 44.34375 54.890625 33.015625 
z
" id="DejaVuSans-68"/>
    </defs>
    <g transform="translate(369.479935 294.223611)scale(0.17 -0.17)">
     <use xlink:href="#DejaVuSans-53"/>
     <use x="63.476562" xlink:href="#DejaVuSans-4e"/>
     <use x="138.28125" xlink:href="#DejaVuSans-45"/>
     <use x="201.464844" xlink:href="#DejaVuSans-53"/>
     <use x="264.941406" xlink:href="#DejaVuSans-20"/>
     <use x="296.728516" xlink:href="#DejaVuSans-73"/>
     <use x="348.828125" xlink:href="#DejaVuSans-63"/>
     <use x="403.808594" xlink:href="#DejaVuSans-68"/>
     <use x="467.1875" xlink:href="#DejaVuSans-61"/>
    </g>
   </g>
   <g id="text_15">
    <!-- best 2009 -->
    <defs>
     <path d="M 48.6875 27.296875 
Q 48.6875 37.203125 44.609375 42.84375 
Q 40.53125 48.484375 33.40625 48.484375 
Q 26.265625 48.484375 22.1875 42.84375 
Q 18.109375 37.203125 18.109375 27.296875 
Q 18.109375 17.390625 22.1875 11.75 
Q 26.265625 6.109375 33.40625 6.109375 
Q 40.53125 6.109375 44.609375 11.75 
Q 48.6875 17.390625 48.6875 27.296875 
z
M 18.109375 46.390625 
Q 20.953125 51.265625 25.265625 53.625 
Q 29.59375 56 35.59375 56 
Q 45.5625 56 51.78125 48.09375 
Q 58.015625 40.1875 58.015625 27.296875 
Q 58.015625 14.40625 51.78125 6.484375 
Q 45.5625 -1.421875 35.59375 -1.421875 
Q 29.59375 -1.421875 25.265625 0.953125 
Q 20.953125 3.328125 18.109375 8.203125 
L 18.109375 0 
L 9.078125 0 
L 9.078125 75.984375 
L 18.109375 75.984375 
z
" id="DejaVuSans-62"/>
     <path d="M 10.984375 1.515625 
L 10.984375 10.5 
Q 14.703125 8.734375 18.5 7.8125 
Q 22.3125 6.890625 25.984375 6.890625 
Q 35.75 6.890625 40.890625 13.453125 
Q 46.046875 20.015625 46.78125 33.40625 
Q 43.953125 29.203125 39.59375 26.953125 
Q 35.25 24.703125 29.984375 24.703125 
Q 19.046875 24.703125 12.671875 31.3125 
Q 6.296875 37.9375 6.296875 49.421875 
Q 6.296875 60.640625 12.9375 67.421875 
Q 19.578125 74.21875 30.609375 74.21875 
Q 43.265625 74.21875 49.921875 64.515625 
Q 56.59375 54.828125 56.59375 36.375 
Q 56.59375 19.140625 48.40625 8.859375 
Q 40.234375 -1.421875 26.421875 -1.421875 
Q 22.703125 -1.421875 18.890625 -0.6875 
Q 15.09375 0.046875 10.984375 1.515625 
z
M 30.609375 32.421875 
Q 37.25 32.421875 41.125 36.953125 
Q 45.015625 41.5 45.015625 49.421875 
Q 45.015625 57.28125 41.125 61.84375 
Q 37.25 66.40625 30.609375 66.40625 
Q 23.96875 66.40625 20.09375 61.84375 
Q 16.21875 57.28125 16.21875 49.421875 
Q 16.21875 41.5 20.09375 36.953125 
Q 23.96875 32.421875 30.609375 32.421875 
z
" id="DejaVuSans-39"/>
    </defs>
    <g transform="translate(369.479935 37.551928)scale(0.17 -0.17)">
     <use xlink:href="#DejaVuSans-62"/>
     <use x="63.476562" xlink:href="#DejaVuSans-65"/>
     <use x="125" xlink:href="#DejaVuSans-73"/>
     <use x="177.099609" xlink:href="#DejaVuSans-74"/>
     <use x="216.308594" xlink:href="#DejaVuSans-20"/>
     <use x="248.095703" xlink:href="#DejaVuSans-32"/>
     <use x="311.71875" xlink:href="#DejaVuSans-30"/>
     <use x="375.341797" xlink:href="#DejaVuSans-30"/>
     <use x="438.964844" xlink:href="#DejaVuSans-39"/>
    </g>
   </g>
   <g id="text_16">
    <!-- bbob f129, 40-D -->
    <defs>
     <path d="M 19.671875 64.796875 
L 19.671875 8.109375 
L 31.59375 8.109375 
Q 46.6875 8.109375 53.6875 14.9375 
Q 60.6875 21.78125 60.6875 36.53125 
Q 60.6875 51.171875 53.6875 57.984375 
Q 46.6875 64.796875 31.59375 64.796875 
z
M 9.8125 72.90625 
L 30.078125 72.90625 
Q 51.265625 72.90625 61.171875 64.09375 
Q 71.09375 55.28125 71.09375 36.53125 
Q 71.09375 17.671875 61.125 8.828125 
Q 51.171875 0 30.078125 0 
L 9.8125 0 
z
" id="DejaVuSans-44"/>
    </defs>
    <g transform="translate(59.55864 35.290806)scale(0.102 -0.102)">
     <use xlink:href="#DejaVuSans-62"/>
     <use x="63.476562" xlink:href="#DejaVuSans-62"/>
     <use x="126.953125" xlink:href="#DejaVuSans-6f"/>
     <use x="188.134766" xlink:href="#DejaVuSans-62"/>
     <use x="251.611328" xlink:href="#DejaVuSans-20"/>
     <use x="283.398438" xlink:href="#DejaVuSans-66"/>
     <use x="318.603516" xlink:href="#DejaVuSans-31"/>
     <use x="382.226562" xlink:href="#DejaVuSans-32"/>
     <use x="445.849609" xlink:href="#DejaVuSans-39"/>
     <use x="509.472656" xlink:href="#DejaVuSans-2c"/>
     <use x="541.259766" xlink:href="#DejaVuSans-20"/>
     <use x="573.046875" xlink:href="#DejaVuSans-34"/>
     <use x="636.669922" xlink:href="#DejaVuSans-30"/>
     <use x="700.292969" xlink:href="#DejaVuSans-2d"/>
     <use x="736.376953" xlink:href="#DejaVuSans-44"/>
    </g>
    <!-- 51 targets: 100..1e-08 -->
    <defs>
     <path d="M 10.796875 72.90625 
L 49.515625 72.90625 
L 49.515625 64.59375 
L 19.828125 64.59375 
L 19.828125 46.734375 
Q 21.96875 47.46875 24.109375 47.828125 
Q 26.265625 48.1875 28.421875 48.1875 
Q 40.625 48.1875 47.75 41.5 
Q 54.890625 34.8125 54.890625 23.390625 
Q 54.890625 11.625 47.5625 5.09375 
Q 40.234375 -1.421875 26.90625 -1.421875 
Q 22.3125 -1.421875 17.546875 -0.640625 
Q 12.796875 0.140625 7.71875 1.703125 
L 7.71875 11.625 
Q 12.109375 9.234375 16.796875 8.0625 
Q 21.484375 6.890625 26.703125 6.890625 
Q 35.15625 6.890625 40.078125 11.328125 
Q 45.015625 15.765625 45.015625 23.390625 
Q 45.015625 31 40.078125 35.4375 
Q 35.15625 39.890625 26.703125 39.890625 
Q 22.75 39.890625 18.8125 39.015625 
Q 14.890625 38.140625 10.796875 36.28125 
z
" id="DejaVuSans-35"/>
     <path d="M 11.71875 12.40625 
L 22.015625 12.40625 
L 22.015625 0 
L 11.71875 0 
z
M 11.71875 51.703125 
L 22.015625 51.703125 
L 22.015625 39.3125 
L 11.71875 39.3125 
z
" id="DejaVuSans-3a"/>
    </defs>
    <g transform="translate(59.55864 46.712575)scale(0.102 -0.102)">
     <use xlink:href="#DejaVuSans-35"/>
     <use x="63.623047" xlink:href="#DejaVuSans-31"/>
     <use x="127.246094" xlink:href="#DejaVuSans-20"/>
     <use x="159.033203" xlink:href="#DejaVuSans-74"/>
     <use x="198.242188" xlink:href="#DejaVuSans-61"/>
     <use x="259.521484" xlink:href="#DejaVuSans-72"/>
     <use x="300.619141" xlink:href="#DejaVuSans-67"/>
     <use x="364.095703" xlink:href="#DejaVuSans-65"/>
     <use x="425.619141" xlink:href="#DejaVuSans-74"/>
     <use x="464.828125" xlink:href="#DejaVuSans-73"/>
     <use x="516.927734" xlink:href="#DejaVuSans-3a"/>
     <use x="550.619141" xlink:href="#DejaVuSans-20"/>
     <use x="582.40625" xlink:href="#DejaVuSans-31"/>
     <use x="646.029297" xlink:href="#DejaVuSans-30"/>
     <use x="709.652344" xlink:href="#DejaVuSans-30"/>
     <use x="773.275391" xlink:href="#DejaVuSans-2e"/>
     <use x="805.0625" xlink:href="#DejaVuSans-2e"/>
     <use x="836.849609" xlink:href="#DejaVuSans-31"/>
     <use x="900.472656" xlink:href="#DejaVuSans-65"/>
     <use x="961.996094" xlink:href="#DejaVuSans-2d"/>
     <use x="998.080078" xlink:href="#DejaVuSans-30"/>
     <use x="1061.703125" xlink:href="#DejaVuSans-38"/>
    </g>
    <!-- 15 instances -->
    <g transform="translate(59.55864 58.134344)scale(0.102 -0.102)">
     <use xlink:href="#DejaVuSans-31"/>
     <use x="63.623047" xlink:href="#DejaVuSans-35"/>
     <use x="127.246094" xlink:href="#DejaVuSans-20"/>
     <use x="159.033203" xlink:href="#DejaVuSans-69"/>
     <use x="186.816406" xlink:href="#DejaVuSans-6e"/>
     <use x="250.195312" xlink:href="#DejaVuSans-73"/>
     <use x="302.294922" xlink:href="#DejaVuSans-74"/>
     <use x="341.503906" xlink:href="#DejaVuSans-61"/>
     <use x="402.783203" xlink:href="#DejaVuSans-6e"/>
     <use x="466.162109" xlink:href="#DejaVuSans-63"/>
     <use x="521.142578" xlink:href="#DejaVuSans-65"/>
     <use x="582.666016" xlink:href="#DejaVuSans-73"/>
    </g>
   </g>
   <g id="text_17">
    <!-- v2.0.778 -->
    <defs>
     <path d="M 8.203125 72.90625 
L 55.078125 72.90625 
L 55.078125 68.703125 
L 28.609375 0 
L 18.3125 0 
L 43.21875 64.59375 
L 8.203125 64.59375 
z
" id="DejaVuSans-37"/>
    </defs>
    <g style="fill:#808080;" transform="translate(206.00825 290.099912)scale(0.1 -0.1)">
     <use xlink:href="#DejaVuSans-76"/>
     <use x="59.179688" xlink:href="#DejaVuSans-32"/>
     <use x="122.802734" xlink:href="#DejaVuSans-2e"/>
     <use x="154.589844" xlink:href="#DejaVuSans-30"/>
     <use x="218.212891" xlink:href="#DejaVuSans-2e"/>
     <use x="250" xlink:href="#DejaVuSans-37"/>
     <use x="313.623047" xlink:href="#DejaVuSans-37"/>
     <use x="377.246094" xlink:href="#DejaVuSans-38"/>
    </g>
   </g>
   <g id="text_18">
    <!-- 129 Gallagher unif -->
    <defs>
     <path d="M 59.515625 10.40625 
L 59.515625 29.984375 
L 43.40625 29.984375 
L 43.40625 38.09375 
L 69.28125 38.09375 
L 69.28125 6.78125 
Q 63.578125 2.734375 56.6875 0.65625 
Q 49.8125 -1.421875 42 -1.421875 
Q 24.90625 -1.421875 15.25 8.5625 
Q 5.609375 18.5625 5.609375 36.375 
Q 5.609375 54.25 15.25 64.234375 
Q 24.90625 74.21875 42 74.21875 
Q 49.125 74.21875 55.546875 72.453125 
Q 61.96875 70.703125 67.390625 67.28125 
L 67.390625 56.78125 
Q 61.921875 61.421875 55.765625 63.765625 
Q 49.609375 66.109375 42.828125 66.109375 
Q 29.4375 66.109375 22.71875 58.640625 
Q 16.015625 51.171875 16.015625 36.375 
Q 16.015625 21.625 22.71875 14.15625 
Q 29.4375 6.6875 42.828125 6.6875 
Q 48.046875 6.6875 52.140625 7.59375 
Q 56.25 8.5 59.515625 10.40625 
z
" id="DejaVuSans-47"/>
    </defs>
    <g transform="translate(135.123875 18.84)scale(0.2 -0.2)">
     <use xlink:href="#DejaVuSans-31"/>
     <use x="63.623047" xlink:href="#DejaVuSans-32"/>
     <use x="127.246094" xlink:href="#DejaVuSans-39"/>
     <use x="190.869141" xlink:href="#DejaVuSans-20"/>
     <use x="222.65625" xlink:href="#DejaVuSans-47"/>
     <use x="300.146484" xlink:href="#DejaVuSans-61"/>
     <use x="361.425781" xlink:href="#DejaVuSans-6c"/>
     <use x="389.208984" xlink:href="#DejaVuSans-6c"/>
     <use x="416.992188" xlink:href="#DejaVuSans-61"/>
     <use x="478.271484" xlink:href="#DejaVuSans-67"/>
     <use x="541.748047" xlink:href="#DejaVuSans-68"/>
     <use x="605.126953" xlink:href="#DejaVuSans-65"/>
     <use x="666.650391" xlink:href="#DejaVuSans-72"/>
     <use x="707.763672" xlink:href="#DejaVuSans-20"/>
     <use x="739.550781" xlink:href="#DejaVuSans-75"/>
     <use x="802.929688" xlink:href="#DejaVuSans-6e"/>
     <use x="866.308594" xlink:href="#DejaVuSans-69"/>
     <use x="894.091797" xlink:href="#DejaVuSans-66"/>
    </g>
   </g>
  </g>
 </g>
 <defs>
  <clipPath id="p82d47e8b99">
   <rect height="270.04" width="343.864" x="56.12" y="24.84"/>
  </clipPath>
 </defs>
</svg>
