<?xml version="1.0" encoding="utf-8" standalone="no"?>
<!DOCTYPE svg PUBLIC "-//W3C//DTD SVG 1.1//EN"
  "http://www.w3.org/Graphics/SVG/1.1/DTD/svg11.dtd">
<!-- Created with matplotlib (http://matplotlib.org/) -->
<svg height="345pt" version="1.1" viewBox="0 0 460 345" width="460pt" xmlns="http://www.w3.org/2000/svg" xmlns:xlink="http://www.w3.org/1999/xlink">
 <defs>
  <style type="text/css">
*{stroke-linecap:butt;stroke-linejoin:round;}
  </style>
 </defs>
 <g id="figure_1">
  <g id="patch_1">
   <path d="M 0 345.6 
L 460.8 345.6 
L 460.8 0 
L 0 0 
z
" style="fill:#ffffff;"/>
  </g>
  <g id="axes_1">
   <g id="patch_2">
    <path d="M 56.12 294.88 
L 399.984 294.88 
L 399.984 24.84 
L 56.12 24.84 
z
" style="fill:#ffffff;"/>
   </g>
   <g id="line2d_1">
    <path d="M 157.51107 294.88 
L 157.51107 289.637523 
L 164.055367 289.637523 
L 164.055367 284.395046 
L 167.174063 284.395046 
L 167.174063 279.152568 
L 169.879281 279.152568 
L 169.879281 273.910091 
L 172.552717 273.910091 
L 172.552717 268.667614 
L 174.611957 268.667614 
L 174.611957 263.425137 
L 175.201536 263.425137 
L 175.201536 258.18266 
L 175.962614 258.18266 
L 175.962614 252.940182 
L 176.651322 252.940182 
L 176.651322 247.697705 
L 177.305261 247.697705 
L 177.305261 242.455228 
L 178.063631 242.455228 
L 178.063631 237.212751 
L 178.976332 237.212751 
L 178.976332 231.970274 
L 180.066104 231.970274 
L 180.066104 226.727797 
L 183.854079 226.727797 
L 183.854079 221.485319 
L 186.761903 221.485319 
L 186.761903 216.242842 
L 187.282898 216.242842 
L 187.282898 211.000365 
L 187.898264 211.000365 
L 187.898264 205.757888 
L 188.380906 205.757888 
L 188.380906 200.515411 
L 188.786153 200.515411 
L 188.786153 195.272933 
L 189.389788 195.272933 
L 189.389788 190.030456 
L 190.073894 190.030456 
L 190.073894 184.787979 
L 191.026086 184.787979 
L 191.026086 179.545502 
L 191.388741 179.545502 
L 191.388741 174.303025 
L 191.823697 174.303025 
L 191.823697 169.060547 
L 191.979772 169.060547 
L 191.979772 163.81807 
L 192.161698 163.81807 
L 192.161698 158.575593 
L 192.337959 158.575593 
L 192.337959 153.333116 
L 192.597699 153.333116 
L 192.597699 148.090639 
L 192.928239 148.090639 
L 192.928239 142.848162 
L 193.16958 142.848162 
L 193.16958 137.605684 
L 193.389753 137.605684 
L 193.389753 132.363207 
L 193.677455 132.363207 
L 193.677455 127.12073 
L 193.910725 127.12073 
L 193.910725 121.878253 
L 194.121531 121.878253 
L 194.121531 116.635776 
L 194.31093 116.635776 
L 194.31093 111.393298 
L 194.502414 111.393298 
L 194.502414 106.150821 
L 194.661969 106.150821 
L 194.661969 100.908344 
L 194.795894 100.908344 
L 194.795894 95.665867 
L 194.93431 95.665867 
L 194.93431 90.42339 
L 195.041649 90.42339 
L 195.041649 85.180912 
L 195.146858 85.180912 
L 195.146858 79.938435 
L 195.220972 79.938435 
L 195.220972 74.695958 
L 195.284604 74.695958 
L 195.284604 69.453481 
L 195.343001 69.453481 
L 195.343001 64.211004 
L 195.394641 64.211004 
L 195.394641 58.968526 
L 195.452666 58.968526 
L 195.452666 53.726049 
L 195.545128 53.726049 
L 195.545128 48.483572 
L 195.634378 48.483572 
L 195.634378 43.241095 
L 195.682443 43.241095 
L 195.682443 37.998618 
L 195.728187 37.998618 
L 195.728187 32.756141 
L 195.855243 32.756141 
L 195.855243 27.513663 
L 333.429677 27.513663 
" style="fill:none;stroke:#f5deb3;stroke-linecap:square;stroke-width:6;"/>
   </g>
   <g id="line2d_2">
    <path d="M 0 0 
" style="fill:none;stroke:#f5deb3;stroke-linecap:square;stroke-width:6;"/>
    <defs>
     <path d="M -0 7.778175 
L 7.778175 0 
L 0 -7.778175 
L -7.778175 -0 
z
" id="mf77e63243f" style="stroke:#f5deb3;stroke-linejoin:miter;stroke-width:1.5;"/>
    </defs>
    <g>
     <use style="fill:#f5deb3;stroke:#f5deb3;stroke-linejoin:miter;stroke-width:1.5;" x="0" xlink:href="#mf77e63243f" y="0"/>
    </g>
   </g>
   <g id="line2d_3">
    <path d="M 333.429677 27.513663 
L 363.933742 32.86099 
" style="fill:none;stroke:#f5deb3;stroke-linecap:square;stroke-width:6;"/>
    <g>
     <use style="fill:#f5deb3;stroke:#f5deb3;stroke-linejoin:miter;stroke-width:1.5;" x="333.429677" xlink:href="#mf77e63243f" y="27.513663"/>
     <use style="fill:#f5deb3;stroke:#f5deb3;stroke-linejoin:miter;stroke-width:1.5;" x="363.933742" xlink:href="#mf77e63243f" y="32.86099"/>
    </g>
   </g>
   <g id="matplotlib.axis_1">
    <g id="xtick_1">
     <g id="line2d_4">
      <path clip-path="url(#p0769ae941e)" d="M 56.12 294.88 
L 56.12 24.84 
" style="fill:none;stroke:#b0b0b0;stroke-linecap:square;stroke-width:0.8;"/>
     </g>
     <g id="line2d_5">
      <defs>
       <path d="M 0 0 
L 0 3.5 
" id="mbc8a1c98f4" style="stroke:#000000;stroke-width:0.8;"/>
      </defs>
      <g>
       <use style="stroke:#000000;stroke-width:0.8;" x="56.12" xlink:href="#mbc8a1c98f4" y="294.88"/>
      </g>
     </g>
     <g id="text_1">
      <!-- 0 -->
      <defs>
       <path d="M 31.78125 66.40625 
Q 24.171875 66.40625 20.328125 58.90625 
Q 16.5 51.421875 16.5 36.375 
Q 16.5 21.390625 20.328125 13.890625 
Q 24.171875 6.390625 31.78125 6.390625 
Q 39.453125 6.390625 43.28125 13.890625 
Q 47.125 21.390625 47.125 36.375 
Q 47.125 51.421875 43.28125 58.90625 
Q 39.453125 66.40625 31.78125 66.40625 
z
M 31.78125 74.21875 
Q 44.046875 74.21875 50.515625 64.515625 
Q 56.984375 54.828125 56.984375 36.375 
Q 56.984375 17.96875 50.515625 8.265625 
Q 44.046875 -1.421875 31.78125 -1.421875 
Q 19.53125 -1.421875 13.0625 8.265625 
Q 6.59375 17.96875 6.59375 36.375 
Q 6.59375 54.828125 13.0625 64.515625 
Q 19.53125 74.21875 31.78125 74.21875 
z
" id="DejaVuSans-30"/>
      </defs>
      <g transform="translate(49.7575 317.076875)scale(0.2 -0.2)">
       <use xlink:href="#DejaVuSans-30"/>
      </g>
     </g>
    </g>
    <g id="xtick_2">
     <g id="line2d_6">
      <path clip-path="url(#p0769ae941e)" d="M 135.351336 294.88 
L 135.351336 24.84 
" style="fill:none;stroke:#b0b0b0;stroke-linecap:square;stroke-width:0.8;"/>
     </g>
     <g id="line2d_7">
      <g>
       <use style="stroke:#000000;stroke-width:0.8;" x="135.351336" xlink:href="#mbc8a1c98f4" y="294.88"/>
      </g>
     </g>
     <g id="text_2">
      <!-- 2 -->
      <defs>
       <path d="M 19.1875 8.296875 
L 53.609375 8.296875 
L 53.609375 0 
L 7.328125 0 
L 7.328125 8.296875 
Q 12.9375 14.109375 22.625 23.890625 
Q 32.328125 33.6875 34.8125 36.53125 
Q 39.546875 41.84375 41.421875 45.53125 
Q 43.3125 49.21875 43.3125 52.78125 
Q 43.3125 58.59375 39.234375 62.25 
Q 35.15625 65.921875 28.609375 65.921875 
Q 23.96875 65.921875 18.8125 64.3125 
Q 13.671875 62.703125 7.8125 59.421875 
L 7.8125 69.390625 
Q 13.765625 71.78125 18.9375 73 
Q 24.125 74.21875 28.421875 74.21875 
Q 39.75 74.21875 46.484375 68.546875 
Q 53.21875 62.890625 53.21875 53.421875 
Q 53.21875 48.921875 51.53125 44.890625 
Q 49.859375 40.875 45.40625 35.40625 
Q 44.1875 33.984375 37.640625 27.21875 
Q 31.109375 20.453125 19.1875 8.296875 
z
" id="DejaVuSans-32"/>
      </defs>
      <g transform="translate(128.988836 317.076875)scale(0.2 -0.2)">
       <use xlink:href="#DejaVuSans-32"/>
      </g>
     </g>
    </g>
    <g id="xtick_3">
     <g id="line2d_8">
      <path clip-path="url(#p0769ae941e)" d="M 214.582673 294.88 
L 214.582673 24.84 
" style="fill:none;stroke:#b0b0b0;stroke-linecap:square;stroke-width:0.8;"/>
     </g>
     <g id="line2d_9">
      <g>
       <use style="stroke:#000000;stroke-width:0.8;" x="214.582673" xlink:href="#mbc8a1c98f4" y="294.88"/>
      </g>
     </g>
     <g id="text_3">
      <!-- 4 -->
      <defs>
       <path d="M 37.796875 64.3125 
L 12.890625 25.390625 
L 37.796875 25.390625 
z
M 35.203125 72.90625 
L 47.609375 72.90625 
L 47.609375 25.390625 
L 58.015625 25.390625 
L 58.015625 17.1875 
L 47.609375 17.1875 
L 47.609375 0 
L 37.796875 0 
L 37.796875 17.1875 
L 4.890625 17.1875 
L 4.890625 26.703125 
z
" id="DejaVuSans-34"/>
      </defs>
      <g transform="translate(208.220173 317.076875)scale(0.2 -0.2)">
       <use xlink:href="#DejaVuSans-34"/>
      </g>
     </g>
    </g>
    <g id="xtick_4">
     <g id="line2d_10">
      <path clip-path="url(#p0769ae941e)" d="M 293.814009 294.88 
L 293.814009 24.84 
" style="fill:none;stroke:#b0b0b0;stroke-linecap:square;stroke-width:0.8;"/>
     </g>
     <g id="line2d_11">
      <g>
       <use style="stroke:#000000;stroke-width:0.8;" x="293.814009" xlink:href="#mbc8a1c98f4" y="294.88"/>
      </g>
     </g>
     <g id="text_4">
      <!-- 6 -->
      <defs>
       <path d="M 33.015625 40.375 
Q 26.375 40.375 22.484375 35.828125 
Q 18.609375 31.296875 18.609375 23.390625 
Q 18.609375 15.53125 22.484375 10.953125 
Q 26.375 6.390625 33.015625 6.390625 
Q 39.65625 6.390625 43.53125 10.953125 
Q 47.40625 15.53125 47.40625 23.390625 
Q 47.40625 31.296875 43.53125 35.828125 
Q 39.65625 40.375 33.015625 40.375 
z
M 52.59375 71.296875 
L 52.59375 62.3125 
Q 48.875 64.0625 45.09375 64.984375 
Q 41.3125 65.921875 37.59375 65.921875 
Q 27.828125 65.921875 22.671875 59.328125 
Q 17.53125 52.734375 16.796875 39.40625 
Q 19.671875 43.65625 24.015625 45.921875 
Q 28.375 48.1875 33.59375 48.1875 
Q 44.578125 48.1875 50.953125 41.515625 
Q 57.328125 34.859375 57.328125 23.390625 
Q 57.328125 12.15625 50.6875 5.359375 
Q 44.046875 -1.421875 33.015625 -1.421875 
Q 20.359375 -1.421875 13.671875 8.265625 
Q 6.984375 17.96875 6.984375 36.375 
Q 6.984375 53.65625 15.1875 63.9375 
Q 23.390625 74.21875 37.203125 74.21875 
Q 40.921875 74.21875 44.703125 73.484375 
Q 48.484375 72.75 52.59375 71.296875 
z
" id="DejaVuSans-36"/>
      </defs>
      <g transform="translate(287.451509 317.076875)scale(0.2 -0.2)">
       <use xlink:href="#DejaVuSans-36"/>
      </g>
     </g>
    </g>
    <g id="xtick_5">
     <g id="line2d_12">
      <path clip-path="url(#p0769ae941e)" d="M 373.045346 294.88 
L 373.045346 24.84 
" style="fill:none;stroke:#b0b0b0;stroke-linecap:square;stroke-width:0.8;"/>
     </g>
     <g id="line2d_13">
      <g>
       <use style="stroke:#000000;stroke-width:0.8;" x="373.045346" xlink:href="#mbc8a1c98f4" y="294.88"/>
      </g>
     </g>
     <g id="text_5">
      <!-- 8 -->
      <defs>
       <path d="M 31.78125 34.625 
Q 24.75 34.625 20.71875 30.859375 
Q 16.703125 27.09375 16.703125 20.515625 
Q 16.703125 13.921875 20.71875 10.15625 
Q 24.75 6.390625 31.78125 6.390625 
Q 38.8125 6.390625 42.859375 10.171875 
Q 46.921875 13.96875 46.921875 20.515625 
Q 46.921875 27.09375 42.890625 30.859375 
Q 38.875 34.625 31.78125 34.625 
z
M 21.921875 38.8125 
Q 15.578125 40.375 12.03125 44.71875 
Q 8.5 49.078125 8.5 55.328125 
Q 8.5 64.0625 14.71875 69.140625 
Q 20.953125 74.21875 31.78125 74.21875 
Q 42.671875 74.21875 48.875 69.140625 
Q 55.078125 64.0625 55.078125 55.328125 
Q 55.078125 49.078125 51.53125 44.71875 
Q 48 40.375 41.703125 38.8125 
Q 48.828125 37.15625 52.796875 32.3125 
Q 56.78125 27.484375 56.78125 20.515625 
Q 56.78125 9.90625 50.3125 4.234375 
Q 43.84375 -1.421875 31.78125 -1.421875 
Q 19.734375 -1.421875 13.25 4.234375 
Q 6.78125 9.90625 6.78125 20.515625 
Q 6.78125 27.484375 10.78125 32.3125 
Q 14.796875 37.15625 21.921875 38.8125 
z
M 18.3125 54.390625 
Q 18.3125 48.734375 21.84375 45.5625 
Q 25.390625 42.390625 31.78125 42.390625 
Q 38.140625 42.390625 41.71875 45.5625 
Q 45.3125 48.734375 45.3125 54.390625 
Q 45.3125 60.0625 41.71875 63.234375 
Q 38.140625 66.40625 31.78125 66.40625 
Q 25.390625 66.40625 21.84375 63.234375 
Q 18.3125 60.0625 18.3125 54.390625 
z
" id="DejaVuSans-38"/>
      </defs>
      <g transform="translate(366.682846 317.076875)scale(0.2 -0.2)">
       <use xlink:href="#DejaVuSans-38"/>
      </g>
     </g>
    </g>
    <g id="text_6">
     <!-- log10(# f-evals / dimension) -->
     <defs>
      <path d="M 9.421875 75.984375 
L 18.40625 75.984375 
L 18.40625 0 
L 9.421875 0 
z
" id="DejaVuSans-6c"/>
      <path d="M 30.609375 48.390625 
Q 23.390625 48.390625 19.1875 42.75 
Q 14.984375 37.109375 14.984375 27.296875 
Q 14.984375 17.484375 19.15625 11.84375 
Q 23.34375 6.203125 30.609375 6.203125 
Q 37.796875 6.203125 41.984375 11.859375 
Q 46.1875 17.53125 46.1875 27.296875 
Q 46.1875 37.015625 41.984375 42.703125 
Q 37.796875 48.390625 30.609375 48.390625 
z
M 30.609375 56 
Q 42.328125 56 49.015625 48.375 
Q 55.71875 40.765625 55.71875 27.296875 
Q 55.71875 13.875 49.015625 6.21875 
Q 42.328125 -1.421875 30.609375 -1.421875 
Q 18.84375 -1.421875 12.171875 6.21875 
Q 5.515625 13.875 5.515625 27.296875 
Q 5.515625 40.765625 12.171875 48.375 
Q 18.84375 56 30.609375 56 
z
" id="DejaVuSans-6f"/>
      <path d="M 45.40625 27.984375 
Q 45.40625 37.75 41.375 43.109375 
Q 37.359375 48.484375 30.078125 48.484375 
Q 22.859375 48.484375 18.828125 43.109375 
Q 14.796875 37.75 14.796875 27.984375 
Q 14.796875 18.265625 18.828125 12.890625 
Q 22.859375 7.515625 30.078125 7.515625 
Q 37.359375 7.515625 41.375 12.890625 
Q 45.40625 18.265625 45.40625 27.984375 
z
M 54.390625 6.78125 
Q 54.390625 -7.171875 48.1875 -13.984375 
Q 42 -20.796875 29.203125 -20.796875 
Q 24.46875 -20.796875 20.265625 -20.09375 
Q 16.0625 -19.390625 12.109375 -17.921875 
L 12.109375 -9.1875 
Q 16.0625 -11.328125 19.921875 -12.34375 
Q 23.78125 -13.375 27.78125 -13.375 
Q 36.625 -13.375 41.015625 -8.765625 
Q 45.40625 -4.15625 45.40625 5.171875 
L 45.40625 9.625 
Q 42.625 4.78125 38.28125 2.390625 
Q 33.9375 0 27.875 0 
Q 17.828125 0 11.671875 7.65625 
Q 5.515625 15.328125 5.515625 27.984375 
Q 5.515625 40.671875 11.671875 48.328125 
Q 17.828125 56 27.875 56 
Q 33.9375 56 38.28125 53.609375 
Q 42.625 51.21875 45.40625 46.390625 
L 45.40625 54.6875 
L 54.390625 54.6875 
z
" id="DejaVuSans-67"/>
      <path d="M 12.40625 8.296875 
L 28.515625 8.296875 
L 28.515625 63.921875 
L 10.984375 60.40625 
L 10.984375 69.390625 
L 28.421875 72.90625 
L 38.28125 72.90625 
L 38.28125 8.296875 
L 54.390625 8.296875 
L 54.390625 0 
L 12.40625 0 
z
" id="DejaVuSans-31"/>
      <path d="M 31 75.875 
Q 24.46875 64.65625 21.28125 53.65625 
Q 18.109375 42.671875 18.109375 31.390625 
Q 18.109375 20.125 21.3125 9.0625 
Q 24.515625 -2 31 -13.1875 
L 23.1875 -13.1875 
Q 15.875 -1.703125 12.234375 9.375 
Q 8.59375 20.453125 8.59375 31.390625 
Q 8.59375 42.28125 12.203125 53.3125 
Q 15.828125 64.359375 23.1875 75.875 
z
" id="DejaVuSans-28"/>
      <path d="M 51.125 44 
L 36.921875 44 
L 32.8125 27.6875 
L 47.125 27.6875 
z
M 43.796875 71.78125 
L 38.71875 51.515625 
L 52.984375 51.515625 
L 58.109375 71.78125 
L 65.921875 71.78125 
L 60.890625 51.515625 
L 76.125 51.515625 
L 76.125 44 
L 58.984375 44 
L 54.984375 27.6875 
L 70.515625 27.6875 
L 70.515625 20.21875 
L 53.078125 20.21875 
L 48 0 
L 40.1875 0 
L 45.21875 20.21875 
L 30.90625 20.21875 
L 25.875 0 
L 18.015625 0 
L 23.09375 20.21875 
L 7.71875 20.21875 
L 7.71875 27.6875 
L 24.90625 27.6875 
L 29 44 
L 13.28125 44 
L 13.28125 51.515625 
L 30.90625 51.515625 
L 35.890625 71.78125 
z
" id="DejaVuSans-23"/>
      <path id="DejaVuSans-20"/>
      <path d="M 37.109375 75.984375 
L 37.109375 68.5 
L 28.515625 68.5 
Q 23.6875 68.5 21.796875 66.546875 
Q 19.921875 64.59375 19.921875 59.515625 
L 19.921875 54.6875 
L 34.71875 54.6875 
L 34.71875 47.703125 
L 19.921875 47.703125 
L 19.921875 0 
L 10.890625 0 
L 10.890625 47.703125 
L 2.296875 47.703125 
L 2.296875 54.6875 
L 10.890625 54.6875 
L 10.890625 58.5 
Q 10.890625 67.625 15.140625 71.796875 
Q 19.390625 75.984375 28.609375 75.984375 
z
" id="DejaVuSans-66"/>
      <path d="M 4.890625 31.390625 
L 31.203125 31.390625 
L 31.203125 23.390625 
L 4.890625 23.390625 
z
" id="DejaVuSans-2d"/>
      <path d="M 56.203125 29.59375 
L 56.203125 25.203125 
L 14.890625 25.203125 
Q 15.484375 15.921875 20.484375 11.0625 
Q 25.484375 6.203125 34.421875 6.203125 
Q 39.59375 6.203125 44.453125 7.46875 
Q 49.3125 8.734375 54.109375 11.28125 
L 54.109375 2.78125 
Q 49.265625 0.734375 44.1875 -0.34375 
Q 39.109375 -1.421875 33.890625 -1.421875 
Q 20.796875 -1.421875 13.15625 6.1875 
Q 5.515625 13.8125 5.515625 26.8125 
Q 5.515625 40.234375 12.765625 48.109375 
Q 20.015625 56 32.328125 56 
Q 43.359375 56 49.78125 48.890625 
Q 56.203125 41.796875 56.203125 29.59375 
z
M 47.21875 32.234375 
Q 47.125 39.59375 43.09375 43.984375 
Q 39.0625 48.390625 32.421875 48.390625 
Q 24.90625 48.390625 20.390625 44.140625 
Q 15.875 39.890625 15.1875 32.171875 
z
" id="DejaVuSans-65"/>
      <path d="M 2.984375 54.6875 
L 12.5 54.6875 
L 29.59375 8.796875 
L 46.6875 54.6875 
L 56.203125 54.6875 
L 35.6875 0 
L 23.484375 0 
z
" id="DejaVuSans-76"/>
      <path d="M 34.28125 27.484375 
Q 23.390625 27.484375 19.1875 25 
Q 14.984375 22.515625 14.984375 16.5 
Q 14.984375 11.71875 18.140625 8.90625 
Q 21.296875 6.109375 26.703125 6.109375 
Q 34.1875 6.109375 38.703125 11.40625 
Q 43.21875 16.703125 43.21875 25.484375 
L 43.21875 27.484375 
z
M 52.203125 31.203125 
L 52.203125 0 
L 43.21875 0 
L 43.21875 8.296875 
Q 40.140625 3.328125 35.546875 0.953125 
Q 30.953125 -1.421875 24.3125 -1.421875 
Q 15.921875 -1.421875 10.953125 3.296875 
Q 6 8.015625 6 15.921875 
Q 6 25.140625 12.171875 29.828125 
Q 18.359375 34.515625 30.609375 34.515625 
L 43.21875 34.515625 
L 43.21875 35.40625 
Q 43.21875 41.609375 39.140625 45 
Q 35.0625 48.390625 27.6875 48.390625 
Q 23 48.390625 18.546875 47.265625 
Q 14.109375 46.140625 10.015625 43.890625 
L 10.015625 52.203125 
Q 14.9375 54.109375 19.578125 55.046875 
Q 24.21875 56 28.609375 56 
Q 40.484375 56 46.34375 49.84375 
Q 52.203125 43.703125 52.203125 31.203125 
z
" id="DejaVuSans-61"/>
      <path d="M 44.28125 53.078125 
L 44.28125 44.578125 
Q 40.484375 46.53125 36.375 47.5 
Q 32.28125 48.484375 27.875 48.484375 
Q 21.1875 48.484375 17.84375 46.4375 
Q 14.5 44.390625 14.5 40.28125 
Q 14.5 37.15625 16.890625 35.375 
Q 19.28125 33.59375 26.515625 31.984375 
L 29.59375 31.296875 
Q 39.15625 29.25 43.1875 25.515625 
Q 47.21875 21.78125 47.21875 15.09375 
Q 47.21875 7.46875 41.1875 3.015625 
Q 35.15625 -1.421875 24.609375 -1.421875 
Q 20.21875 -1.421875 15.453125 -0.5625 
Q 10.6875 0.296875 5.421875 2 
L 5.421875 11.28125 
Q 10.40625 8.6875 15.234375 7.390625 
Q 20.0625 6.109375 24.8125 6.109375 
Q 31.15625 6.109375 34.5625 8.28125 
Q 37.984375 10.453125 37.984375 14.40625 
Q 37.984375 18.0625 35.515625 20.015625 
Q 33.0625 21.96875 24.703125 23.78125 
L 21.578125 24.515625 
Q 13.234375 26.265625 9.515625 29.90625 
Q 5.8125 33.546875 5.8125 39.890625 
Q 5.8125 47.609375 11.28125 51.796875 
Q 16.75 56 26.8125 56 
Q 31.78125 56 36.171875 55.265625 
Q 40.578125 54.546875 44.28125 53.078125 
z
" id="DejaVuSans-73"/>
      <path d="M 25.390625 72.90625 
L 33.6875 72.90625 
L 8.296875 -9.28125 
L 0 -9.28125 
z
" id="DejaVuSans-2f"/>
      <path d="M 45.40625 46.390625 
L 45.40625 75.984375 
L 54.390625 75.984375 
L 54.390625 0 
L 45.40625 0 
L 45.40625 8.203125 
Q 42.578125 3.328125 38.25 0.953125 
Q 33.9375 -1.421875 27.875 -1.421875 
Q 17.96875 -1.421875 11.734375 6.484375 
Q 5.515625 14.40625 5.515625 27.296875 
Q 5.515625 40.1875 11.734375 48.09375 
Q 17.96875 56 27.875 56 
Q 33.9375 56 38.25 53.625 
Q 42.578125 51.265625 45.40625 46.390625 
z
M 14.796875 27.296875 
Q 14.796875 17.390625 18.875 11.75 
Q 22.953125 6.109375 30.078125 6.109375 
Q 37.203125 6.109375 41.296875 11.75 
Q 45.40625 17.390625 45.40625 27.296875 
Q 45.40625 37.203125 41.296875 42.84375 
Q 37.203125 48.484375 30.078125 48.484375 
Q 22.953125 48.484375 18.875 42.84375 
Q 14.796875 37.203125 14.796875 27.296875 
z
" id="DejaVuSans-64"/>
      <path d="M 9.421875 54.6875 
L 18.40625 54.6875 
L 18.40625 0 
L 9.421875 0 
z
M 9.421875 75.984375 
L 18.40625 75.984375 
L 18.40625 64.59375 
L 9.421875 64.59375 
z
" id="DejaVuSans-69"/>
      <path d="M 52 44.1875 
Q 55.375 50.25 60.0625 53.125 
Q 64.75 56 71.09375 56 
Q 79.640625 56 84.28125 50.015625 
Q 88.921875 44.046875 88.921875 33.015625 
L 88.921875 0 
L 79.890625 0 
L 79.890625 32.71875 
Q 79.890625 40.578125 77.09375 44.375 
Q 74.3125 48.1875 68.609375 48.1875 
Q 61.625 48.1875 57.5625 43.546875 
Q 53.515625 38.921875 53.515625 30.90625 
L 53.515625 0 
L 44.484375 0 
L 44.484375 32.71875 
Q 44.484375 40.625 41.703125 44.40625 
Q 38.921875 48.1875 33.109375 48.1875 
Q 26.21875 48.1875 22.15625 43.53125 
Q 18.109375 38.875 18.109375 30.90625 
L 18.109375 0 
L 9.078125 0 
L 9.078125 54.6875 
L 18.109375 54.6875 
L 18.109375 46.1875 
Q 21.1875 51.21875 25.484375 53.609375 
Q 29.78125 56 35.6875 56 
Q 41.65625 56 45.828125 52.96875 
Q 50 49.953125 52 44.1875 
z
" id="DejaVuSans-6d"/>
      <path d="M 54.890625 33.015625 
L 54.890625 0 
L 45.90625 0 
L 45.90625 32.71875 
Q 45.90625 40.484375 42.875 44.328125 
Q 39.84375 48.1875 33.796875 48.1875 
Q 26.515625 48.1875 22.3125 43.546875 
Q 18.109375 38.921875 18.109375 30.90625 
L 18.109375 0 
L 9.078125 0 
L 9.078125 54.6875 
L 18.109375 54.6875 
L 18.109375 46.1875 
Q 21.34375 51.125 25.703125 53.5625 
Q 30.078125 56 35.796875 56 
Q 45.21875 56 50.046875 50.171875 
Q 54.890625 44.34375 54.890625 33.015625 
z
" id="DejaVuSans-6e"/>
      <path d="M 8.015625 75.875 
L 15.828125 75.875 
Q 23.140625 64.359375 26.78125 53.3125 
Q 30.421875 42.28125 30.421875 31.390625 
Q 30.421875 20.453125 26.78125 9.375 
Q 23.140625 -1.703125 15.828125 -13.1875 
L 8.015625 -13.1875 
Q 14.5 -2 17.703125 9.0625 
Q 20.90625 20.125 20.90625 31.390625 
Q 20.90625 42.671875 17.703125 53.65625 
Q 14.5 64.65625 8.015625 75.875 
z
" id="DejaVuSans-29"/>
     </defs>
     <g transform="translate(107.211219 338.153594)scale(0.17 -0.17)">
      <use xlink:href="#DejaVuSans-6c"/>
      <use x="27.783203" xlink:href="#DejaVuSans-6f"/>
      <use x="88.964844" xlink:href="#DejaVuSans-67"/>
      <use x="152.441406" xlink:href="#DejaVuSans-31"/>
      <use x="216.064453" xlink:href="#DejaVuSans-30"/>
      <use x="279.6875" xlink:href="#DejaVuSans-28"/>
      <use x="318.701172" xlink:href="#DejaVuSans-23"/>
      <use x="402.490234" xlink:href="#DejaVuSans-20"/>
      <use x="434.277344" xlink:href="#DejaVuSans-66"/>
      <use x="469.404297" xlink:href="#DejaVuSans-2d"/>
      <use x="505.488281" xlink:href="#DejaVuSans-65"/>
      <use x="567.011719" xlink:href="#DejaVuSans-76"/>
      <use x="626.191406" xlink:href="#DejaVuSans-61"/>
      <use x="687.470703" xlink:href="#DejaVuSans-6c"/>
      <use x="715.253906" xlink:href="#DejaVuSans-73"/>
      <use x="767.353516" xlink:href="#DejaVuSans-20"/>
      <use x="799.140625" xlink:href="#DejaVuSans-2f"/>
      <use x="832.832031" xlink:href="#DejaVuSans-20"/>
      <use x="864.619141" xlink:href="#DejaVuSans-64"/>
      <use x="928.095703" xlink:href="#DejaVuSans-69"/>
      <use x="955.878906" xlink:href="#DejaVuSans-6d"/>
      <use x="1053.291016" xlink:href="#DejaVuSans-65"/>
      <use x="1114.814453" xlink:href="#DejaVuSans-6e"/>
      <use x="1178.193359" xlink:href="#DejaVuSans-73"/>
      <use x="1230.292969" xlink:href="#DejaVuSans-69"/>
      <use x="1258.076172" xlink:href="#DejaVuSans-6f"/>
      <use x="1319.257812" xlink:href="#DejaVuSans-6e"/>
      <use x="1382.636719" xlink:href="#DejaVuSans-29"/>
     </g>
    </g>
   </g>
   <g id="matplotlib.axis_2">
    <g id="ytick_1">
     <g id="line2d_14">
      <path clip-path="url(#p0769ae941e)" d="M 56.12 294.88 
L 399.984 294.88 
" style="fill:none;stroke:#b0b0b0;stroke-linecap:square;stroke-width:0.8;"/>
     </g>
     <g id="line2d_15">
      <defs>
       <path d="M 0 0 
L -3.5 0 
" id="m8030980fee" style="stroke:#000000;stroke-width:0.8;"/>
      </defs>
      <g>
       <use style="stroke:#000000;stroke-width:0.8;" x="56.12" xlink:href="#m8030980fee" y="294.88"/>
      </g>
     </g>
     <g id="text_7">
      <!-- 0.0 -->
      <defs>
       <path d="M 10.6875 12.40625 
L 21 12.40625 
L 21 0 
L 10.6875 0 
z
" id="DejaVuSans-2e"/>
      </defs>
      <g transform="translate(23.675 300.95875)scale(0.16 -0.16)">
       <use xlink:href="#DejaVuSans-30"/>
       <use x="63.623047" xlink:href="#DejaVuSans-2e"/>
       <use x="95.410156" xlink:href="#DejaVuSans-30"/>
      </g>
     </g>
    </g>
    <g id="ytick_2">
     <g id="line2d_16">
      <path clip-path="url(#p0769ae941e)" d="M 56.12 241.406733 
L 399.984 241.406733 
" style="fill:none;stroke:#b0b0b0;stroke-linecap:square;stroke-width:0.8;"/>
     </g>
     <g id="line2d_17">
      <g>
       <use style="stroke:#000000;stroke-width:0.8;" x="56.12" xlink:href="#m8030980fee" y="241.406733"/>
      </g>
     </g>
     <g id="text_8">
      <!-- 0.2 -->
      <g transform="translate(23.675 247.485483)scale(0.16 -0.16)">
       <use xlink:href="#DejaVuSans-30"/>
       <use x="63.623047" xlink:href="#DejaVuSans-2e"/>
       <use x="95.410156" xlink:href="#DejaVuSans-32"/>
      </g>
     </g>
    </g>
    <g id="ytick_3">
     <g id="line2d_18">
      <path clip-path="url(#p0769ae941e)" d="M 56.12 187.933465 
L 399.984 187.933465 
" style="fill:none;stroke:#b0b0b0;stroke-linecap:square;stroke-width:0.8;"/>
     </g>
     <g id="line2d_19">
      <g>
       <use style="stroke:#000000;stroke-width:0.8;" x="56.12" xlink:href="#m8030980fee" y="187.933465"/>
      </g>
     </g>
     <g id="text_9">
      <!-- 0.4 -->
      <g transform="translate(23.675 194.012215)scale(0.16 -0.16)">
       <use xlink:href="#DejaVuSans-30"/>
       <use x="63.623047" xlink:href="#DejaVuSans-2e"/>
       <use x="95.410156" xlink:href="#DejaVuSans-34"/>
      </g>
     </g>
    </g>
    <g id="ytick_4">
     <g id="line2d_20">
      <path clip-path="url(#p0769ae941e)" d="M 56.12 134.460198 
L 399.984 134.460198 
" style="fill:none;stroke:#b0b0b0;stroke-linecap:square;stroke-width:0.8;"/>
     </g>
     <g id="line2d_21">
      <g>
       <use style="stroke:#000000;stroke-width:0.8;" x="56.12" xlink:href="#m8030980fee" y="134.460198"/>
      </g>
     </g>
     <g id="text_10">
      <!-- 0.6 -->
      <g transform="translate(23.675 140.538948)scale(0.16 -0.16)">
       <use xlink:href="#DejaVuSans-30"/>
       <use x="63.623047" xlink:href="#DejaVuSans-2e"/>
       <use x="95.410156" xlink:href="#DejaVuSans-36"/>
      </g>
     </g>
    </g>
    <g id="ytick_5">
     <g id="line2d_22">
      <path clip-path="url(#p0769ae941e)" d="M 56.12 80.986931 
L 399.984 80.986931 
" style="fill:none;stroke:#b0b0b0;stroke-linecap:square;stroke-width:0.8;"/>
     </g>
     <g id="line2d_23">
      <g>
       <use style="stroke:#000000;stroke-width:0.8;" x="56.12" xlink:href="#m8030980fee" y="80.986931"/>
      </g>
     </g>
     <g id="text_11">
      <!-- 0.8 -->
      <g transform="translate(23.675 87.065681)scale(0.16 -0.16)">
       <use xlink:href="#DejaVuSans-30"/>
       <use x="63.623047" xlink:href="#DejaVuSans-2e"/>
       <use x="95.410156" xlink:href="#DejaVuSans-38"/>
      </g>
     </g>
    </g>
    <g id="ytick_6">
     <g id="line2d_24">
      <path clip-path="url(#p0769ae941e)" d="M 56.12 27.513663 
L 399.984 27.513663 
" style="fill:none;stroke:#b0b0b0;stroke-linecap:square;stroke-width:0.8;"/>
     </g>
     <g id="line2d_25">
      <g>
       <use style="stroke:#000000;stroke-width:0.8;" x="56.12" xlink:href="#m8030980fee" y="27.513663"/>
      </g>
     </g>
     <g id="text_12">
      <!-- 1.0 -->
      <g transform="translate(23.675 33.592413)scale(0.16 -0.16)">
       <use xlink:href="#DejaVuSans-31"/>
       <use x="63.623047" xlink:href="#DejaVuSans-2e"/>
       <use x="95.410156" xlink:href="#DejaVuSans-30"/>
      </g>
     </g>
    </g>
    <g id="text_13">
     <!-- Fraction of function,target pairs -->
     <defs>
      <path d="M 9.8125 72.90625 
L 51.703125 72.90625 
L 51.703125 64.59375 
L 19.671875 64.59375 
L 19.671875 43.109375 
L 48.578125 43.109375 
L 48.578125 34.8125 
L 19.671875 34.8125 
L 19.671875 0 
L 9.8125 0 
z
" id="DejaVuSans-46"/>
      <path d="M 41.109375 46.296875 
Q 39.59375 47.171875 37.8125 47.578125 
Q 36.03125 48 33.890625 48 
Q 26.265625 48 22.1875 43.046875 
Q 18.109375 38.09375 18.109375 28.8125 
L 18.109375 0 
L 9.078125 0 
L 9.078125 54.6875 
L 18.109375 54.6875 
L 18.109375 46.1875 
Q 20.953125 51.171875 25.484375 53.578125 
Q 30.03125 56 36.53125 56 
Q 37.453125 56 38.578125 55.875 
Q 39.703125 55.765625 41.0625 55.515625 
z
" id="DejaVuSans-72"/>
      <path d="M 48.78125 52.59375 
L 48.78125 44.1875 
Q 44.96875 46.296875 41.140625 47.34375 
Q 37.3125 48.390625 33.40625 48.390625 
Q 24.65625 48.390625 19.8125 42.84375 
Q 14.984375 37.3125 14.984375 27.296875 
Q 14.984375 17.28125 19.8125 11.734375 
Q 24.65625 6.203125 33.40625 6.203125 
Q 37.3125 6.203125 41.140625 7.25 
Q 44.96875 8.296875 48.78125 10.40625 
L 48.78125 2.09375 
Q 45.015625 0.34375 40.984375 -0.53125 
Q 36.96875 -1.421875 32.421875 -1.421875 
Q 20.0625 -1.421875 12.78125 6.34375 
Q 5.515625 14.109375 5.515625 27.296875 
Q 5.515625 40.671875 12.859375 48.328125 
Q 20.21875 56 33.015625 56 
Q 37.15625 56 41.109375 55.140625 
Q 45.0625 54.296875 48.78125 52.59375 
z
" id="DejaVuSans-63"/>
      <path d="M 18.3125 70.21875 
L 18.3125 54.6875 
L 36.8125 54.6875 
L 36.8125 47.703125 
L 18.3125 47.703125 
L 18.3125 18.015625 
Q 18.3125 11.328125 20.140625 9.421875 
Q 21.96875 7.515625 27.59375 7.515625 
L 36.8125 7.515625 
L 36.8125 0 
L 27.59375 0 
Q 17.1875 0 13.234375 3.875 
Q 9.28125 7.765625 9.28125 18.015625 
L 9.28125 47.703125 
L 2.6875 47.703125 
L 2.6875 54.6875 
L 9.28125 54.6875 
L 9.28125 70.21875 
z
" id="DejaVuSans-74"/>
      <path d="M 8.5 21.578125 
L 8.5 54.6875 
L 17.484375 54.6875 
L 17.484375 21.921875 
Q 17.484375 14.15625 20.5 10.265625 
Q 23.53125 6.390625 29.59375 6.390625 
Q 36.859375 6.390625 41.078125 11.03125 
Q 45.3125 15.671875 45.3125 23.6875 
L 45.3125 54.6875 
L 54.296875 54.6875 
L 54.296875 0 
L 45.3125 0 
L 45.3125 8.40625 
Q 42.046875 3.421875 37.71875 1 
Q 33.40625 -1.421875 27.6875 -1.421875 
Q 18.265625 -1.421875 13.375 4.4375 
Q 8.5 10.296875 8.5 21.578125 
z
M 31.109375 56 
z
" id="DejaVuSans-75"/>
      <path d="M 11.71875 12.40625 
L 22.015625 12.40625 
L 22.015625 4 
L 14.015625 -11.625 
L 7.71875 -11.625 
L 11.71875 4 
z
" id="DejaVuSans-2c"/>
      <path d="M 18.109375 8.203125 
L 18.109375 -20.796875 
L 9.078125 -20.796875 
L 9.078125 54.6875 
L 18.109375 54.6875 
L 18.109375 46.390625 
Q 20.953125 51.265625 25.265625 53.625 
Q 29.59375 56 35.59375 56 
Q 45.5625 56 51.78125 48.09375 
Q 58.015625 40.1875 58.015625 27.296875 
Q 58.015625 14.40625 51.78125 6.484375 
Q 45.5625 -1.421875 35.59375 -1.421875 
Q 29.59375 -1.421875 25.265625 0.953125 
Q 20.953125 3.328125 18.109375 8.203125 
z
M 48.6875 27.296875 
Q 48.6875 37.203125 44.609375 42.84375 
Q 40.53125 48.484375 33.40625 48.484375 
Q 26.265625 48.484375 22.1875 42.84375 
Q 18.109375 37.203125 18.109375 27.296875 
Q 18.109375 17.390625 22.1875 11.75 
Q 26.265625 6.109375 33.40625 6.109375 
Q 40.53125 6.109375 44.609375 11.75 
Q 48.6875 17.390625 48.6875 27.296875 
z
" id="DejaVuSans-70"/>
     </defs>
     <g transform="translate(16.139531 294.999375)rotate(-90)scale(0.17 -0.17)">
      <use xlink:href="#DejaVuSans-46"/>
      <use x="57.410156" xlink:href="#DejaVuSans-72"/>
      <use x="98.523438" xlink:href="#DejaVuSans-61"/>
      <use x="159.802734" xlink:href="#DejaVuSans-63"/>
      <use x="214.783203" xlink:href="#DejaVuSans-74"/>
      <use x="253.992188" xlink:href="#DejaVuSans-69"/>
      <use x="281.775391" xlink:href="#DejaVuSans-6f"/>
      <use x="342.957031" xlink:href="#DejaVuSans-6e"/>
      <use x="406.335938" xlink:href="#DejaVuSans-20"/>
      <use x="438.123047" xlink:href="#DejaVuSans-6f"/>
      <use x="499.304688" xlink:href="#DejaVuSans-66"/>
      <use x="534.509766" xlink:href="#DejaVuSans-20"/>
      <use x="566.296875" xlink:href="#DejaVuSans-66"/>
      <use x="601.501953" xlink:href="#DejaVuSans-75"/>
      <use x="664.880859" xlink:href="#DejaVuSans-6e"/>
      <use x="728.259766" xlink:href="#DejaVuSans-63"/>
      <use x="783.240234" xlink:href="#DejaVuSans-74"/>
      <use x="822.449219" xlink:href="#DejaVuSans-69"/>
      <use x="850.232422" xlink:href="#DejaVuSans-6f"/>
      <use x="911.414062" xlink:href="#DejaVuSans-6e"/>
      <use x="974.792969" xlink:href="#DejaVuSans-2c"/>
      <use x="1006.580078" xlink:href="#DejaVuSans-74"/>
      <use x="1045.789062" xlink:href="#DejaVuSans-61"/>
      <use x="1107.068359" xlink:href="#DejaVuSans-72"/>
      <use x="1148.166016" xlink:href="#DejaVuSans-67"/>
      <use x="1211.642578" xlink:href="#DejaVuSans-65"/>
      <use x="1273.166016" xlink:href="#DejaVuSans-74"/>
      <use x="1312.375" xlink:href="#DejaVuSans-20"/>
      <use x="1344.162109" xlink:href="#DejaVuSans-70"/>
      <use x="1407.638672" xlink:href="#DejaVuSans-61"/>
      <use x="1468.917969" xlink:href="#DejaVuSans-69"/>
      <use x="1496.701172" xlink:href="#DejaVuSans-72"/>
      <use x="1537.814453" xlink:href="#DejaVuSans-73"/>
     </g>
    </g>
   </g>
   <g id="line2d_26">
    <defs>
     <path d="M 0 1.5 
C 0.397805 1.5 0.77937 1.341951 1.06066 1.06066 
C 1.341951 0.77937 1.5 0.397805 1.5 0 
C 1.5 -0.397805 1.341951 -0.77937 1.06066 -1.06066 
C 0.77937 -1.341951 0.397805 -1.5 0 -1.5 
C -0.397805 -1.5 -0.77937 -1.341951 -1.06066 -1.06066 
C -1.341951 -0.77937 -1.5 -0.397805 -1.5 0 
C -1.5 0.397805 -1.341951 0.77937 -1.06066 1.06066 
C -0.77937 1.341951 -0.397805 1.5 0 1.5 
z
" id="m70c02a400d" style="stroke:#f5deb3;"/>
    </defs>
    <g>
     <use style="fill:#f5deb3;stroke:#f5deb3;" x="195.855243" xlink:href="#m70c02a400d" y="27.513663"/>
     <use style="fill:#f5deb3;stroke:#f5deb3;" x="195.855243" xlink:href="#m70c02a400d" y="27.513663"/>
    </g>
   </g>
   <g id="line2d_27">
    <g>
     <use style="fill:#f5deb3;stroke:#f5deb3;stroke-linejoin:miter;stroke-width:1.5;" x="193.16958" xlink:href="#mf77e63243f" y="142.848162"/>
     <use style="fill:#f5deb3;stroke:#f5deb3;stroke-linejoin:miter;stroke-width:1.5;" x="195.855243" xlink:href="#mf77e63243f" y="32.756141"/>
     <use style="fill:#f5deb3;stroke:#f5deb3;stroke-linejoin:miter;stroke-width:1.5;" x="195.855243" xlink:href="#mf77e63243f" y="27.513663"/>
     <use style="fill:#f5deb3;stroke:#f5deb3;stroke-linejoin:miter;stroke-width:1.5;" x="333.429677" xlink:href="#mf77e63243f" y="27.513663"/>
    </g>
   </g>
   <g id="line2d_28">
    <path clip-path="url(#p0769ae941e)" d="M 56.12 294.88 
L 56.12 294.88 
L 56.12 294.88 
L 56.12 294.88 
L 399.984 294.88 
" style="fill:none;stroke:#999999;stroke-linecap:square;stroke-width:1.5;"/>
   </g>
   <g id="line2d_29"/>
   <g id="line2d_30">
    <path clip-path="url(#p0769ae941e)" d="M 0 0 
" style="fill:none;stroke:#999999;stroke-linecap:square;stroke-width:1.5;"/>
   </g>
   <g id="line2d_31">
    <defs>
     <path d="M 0 1.5 
C 0.397805 1.5 0.77937 1.341951 1.06066 1.06066 
C 1.341951 0.77937 1.5 0.397805 1.5 0 
C 1.5 -0.397805 1.341951 -0.77937 1.06066 -1.06066 
C 0.77937 -1.341951 0.397805 -1.5 0 -1.5 
C -0.397805 -1.5 -0.77937 -1.341951 -1.06066 -1.06066 
C -1.341951 -0.77937 -1.5 -0.397805 -1.5 0 
C -1.5 0.397805 -1.341951 0.77937 -1.06066 1.06066 
C -0.77937 1.341951 -0.397805 1.5 0 1.5 
z
" id="mfbc57e050f" style="stroke:#999999;"/>
    </defs>
    <g>
     <use style="fill:#999999;stroke:#999999;" x="256.503675" xlink:href="#mfbc57e050f" y="27.513663"/>
     <use style="fill:#999999;stroke:#999999;" x="256.503675" xlink:href="#mfbc57e050f" y="27.513663"/>
    </g>
   </g>
   <g id="line2d_32">
    <path d="M 166.754252 294.88 
L 166.7785 293.307257 
L 167.682027 293.307257 
L 167.682027 292.258761 
L 168.330468 292.258761 
L 168.330468 291.734514 
L 168.781849 291.734514 
L 168.781849 291.210266 
L 169.070264 291.210266 
L 169.070264 290.686018 
L 169.252295 290.686018 
L 169.252295 289.637523 
L 169.686266 289.637523 
L 169.686266 288.06478 
L 169.919702 288.06478 
L 169.919702 287.540532 
L 170.585502 287.540532 
L 170.585502 287.016284 
L 170.753911 287.016284 
L 170.753911 286.492036 
L 170.986947 286.492036 
L 171.070764 284.395046 
L 171.149879 284.395046 
L 171.149879 283.870798 
L 171.357501 283.870798 
L 171.449565 282.822302 
L 171.528012 282.822302 
L 171.571556 280.201064 
L 171.993884 280.201064 
L 172.011258 278.628321 
L 172.226461 278.628321 
L 172.226461 278.104073 
L 172.590784 278.104073 
L 172.615457 276.007082 
L 172.80378 276.007082 
L 172.80378 275.482834 
L 173.132772 275.482834 
L 173.205352 273.910091 
L 173.350545 273.910091 
L 173.424097 272.337348 
L 173.699 272.337348 
L 173.754473 270.240357 
L 174.111202 270.240357 
L 174.18203 268.143366 
L 174.407892 268.143366 
L 174.509343 264.99788 
L 174.527886 264.99788 
L 174.527886 263.949385 
L 174.676382 263.949385 
L 174.75625 261.852394 
L 175.084456 261.852394 
L 175.140754 259.231155 
L 175.402745 259.231155 
L 175.416159 258.18266 
L 175.72719 258.18266 
L 175.795369 253.988678 
L 176.040782 253.988678 
L 176.042398 252.940182 
L 176.352332 252.940182 
L 176.440207 250.843192 
L 176.498936 250.843192 
L 176.498936 250.318944 
L 176.662629 250.318944 
L 176.696504 248.221953 
L 176.836358 248.221953 
L 176.836358 247.173458 
L 176.960151 247.173458 
L 176.986563 245.076467 
L 177.193008 245.076467 
L 177.284974 242.455228 
L 177.340893 242.455228 
L 177.340893 241.93098 
L 177.570166 241.93098 
L 177.643585 240.882485 
L 177.698719 240.882485 
L 177.806637 238.785494 
L 178.105256 238.785494 
L 178.105256 238.261246 
L 178.381507 238.261246 
L 178.4926 236.164255 
L 178.659293 236.164255 
L 178.662069 234.591512 
L 178.877583 234.591512 
L 178.938471 233.018769 
L 179.025324 233.018769 
L 179.025324 232.494521 
L 179.198062 232.494521 
L 179.220247 230.921778 
L 179.554242 230.921778 
L 179.58321 229.349035 
L 179.690753 229.349035 
L 179.734169 226.203549 
L 179.86506 226.203549 
L 179.86506 225.679301 
L 180.007802 225.679301 
L 180.007802 224.630806 
L 180.189106 224.630806 
L 180.287257 223.58231 
L 180.443143 223.58231 
L 180.456278 222.533815 
L 180.55603 222.533815 
L 180.55603 222.009567 
L 180.684539 222.009567 
L 180.700574 220.961072 
L 180.920161 220.961072 
L 180.920161 219.912576 
L 181.146594 219.912576 
L 181.146594 218.864081 
L 181.32437 218.864081 
L 181.32437 217.815585 
L 181.604461 217.815585 
L 181.676544 216.76709 
L 181.831647 216.76709 
L 181.939249 215.194347 
L 182.066693 215.194347 
L 182.085189 214.145851 
L 182.280305 214.145851 
L 182.313733 212.573108 
L 182.437329 212.573108 
L 182.519882 211.000365 
L 182.710432 211.000365 
L 182.710432 210.476117 
L 182.917059 210.476117 
L 182.917059 209.427622 
L 183.119091 209.427622 
L 183.120162 208.379126 
L 183.345757 208.379126 
L 183.361608 206.806383 
L 183.528992 206.806383 
L 183.549899 204.709392 
L 183.842528 204.709392 
L 183.946464 203.136649 
L 184.148434 203.136649 
L 184.148434 202.612401 
L 184.334343 202.612401 
L 184.334343 202.088154 
L 184.705124 202.088154 
L 184.747322 199.466915 
L 184.893842 199.466915 
L 184.900604 197.894172 
L 185.042478 197.894172 
L 185.042478 197.369924 
L 185.263997 197.369924 
L 185.264234 196.321429 
L 185.450224 196.321429 
L 185.450224 195.797181 
L 185.62242 195.797181 
L 185.62381 194.748686 
L 185.942876 194.748686 
L 185.980333 192.651695 
L 186.33073 192.651695 
L 186.33073 192.127447 
L 186.500318 192.127447 
L 186.500318 191.603199 
L 186.675875 191.603199 
L 186.685673 189.506209 
L 187.164973 189.506209 
L 187.179784 187.933465 
L 187.641991 187.933465 
L 187.737671 185.836474 
L 187.808166 185.836474 
L 187.82712 184.787979 
L 187.977799 184.787979 
L 187.977799 183.739484 
L 188.730001 183.739484 
L 188.84001 182.690988 
L 188.897144 182.690988 
L 188.897144 182.16674 
L 189.035737 182.16674 
L 189.035737 181.642493 
L 189.179815 181.642493 
L 189.179815 181.118245 
L 190.027714 181.118245 
L 190.027714 180.06975 
L 190.172285 180.06975 
L 190.172285 179.545502 
L 191.102027 179.545502 
L 191.110276 177.972759 
L 191.231698 177.972759 
L 191.231698 176.924263 
L 191.490944 176.924263 
L 191.490944 176.400016 
L 192.126354 176.400016 
L 192.126354 175.875768 
L 192.603564 175.875768 
L 192.603564 174.827272 
L 193.754553 174.827272 
L 193.754553 173.778777 
L 194.304082 173.778777 
L 194.304082 173.254529 
L 204.702945 173.254529 
L 204.702945 172.730281 
L 204.823128 172.730281 
L 204.823128 171.157538 
L 205.397541 171.157538 
L 205.397541 170.633291 
L 207.021307 170.633291 
L 207.021307 169.060547 
L 207.530486 169.060547 
L 207.530486 168.5363 
L 207.680051 168.5363 
L 207.680051 168.012052 
L 207.877872 168.012052 
L 207.877872 166.439309 
L 208.073382 166.439309 
L 208.073382 165.915061 
L 208.266633 165.915061 
L 208.266633 165.390813 
L 208.460255 165.390813 
L 208.460255 164.342318 
L 209.38487 164.342318 
L 209.38487 163.81807 
L 211.659379 163.81807 
L 211.659379 162.769575 
L 216.041063 162.769575 
L 216.147546 160.148336 
L 216.153043 160.148336 
L 216.153043 159.099841 
L 216.75686 159.099841 
L 216.75686 158.575593 
L 216.901695 158.575593 
L 216.994662 157.00285 
L 217.277503 157.00285 
L 217.277503 155.430107 
L 217.721283 155.430107 
L 217.721283 154.381611 
L 217.905477 154.381611 
L 217.905477 153.333116 
L 218.437408 153.333116 
L 218.437408 152.28462 
L 218.6344 152.28462 
L 218.6344 151.760373 
L 218.868904 151.760373 
L 218.868904 151.236125 
L 219.448731 151.236125 
L 219.448731 150.711877 
L 219.6603 150.711877 
L 219.6603 150.18763 
L 220.264043 150.18763 
L 220.264043 149.663382 
L 222.143618 149.663382 
L 222.143618 149.139134 
L 227.441606 149.139134 
L 227.441606 148.614886 
L 227.591024 148.614886 
L 227.64822 145.993648 
L 227.762724 145.993648 
L 227.762724 144.420905 
L 228.015065 144.420905 
L 228.050906 142.323914 
L 228.245921 142.323914 
L 228.245921 141.799666 
L 230.146641 141.799666 
L 230.146641 141.275418 
L 231.650348 141.275418 
L 231.650348 140.751171 
L 232.022583 140.751171 
L 232.110345 139.178427 
L 232.349149 139.178427 
L 232.451517 138.129932 
L 232.606228 138.129932 
L 232.660504 137.081437 
L 232.738897 137.081437 
L 232.816964 136.032941 
L 234.306789 136.032941 
L 234.347485 134.984446 
L 234.459952 134.984446 
L 234.538722 133.93595 
L 234.59962 133.93595 
L 234.709468 131.838959 
L 234.792675 131.838959 
L 234.87371 129.217721 
L 235.031538 129.217721 
L 235.142109 127.644978 
L 235.195175 127.644978 
L 235.195175 126.596482 
L 235.386307 126.596482 
L 235.490367 125.547987 
L 235.600142 125.547987 
L 235.624454 124.499491 
L 235.718742 124.499491 
L 235.718742 123.975244 
L 235.835768 123.975244 
L 235.86955 122.926748 
L 235.990603 122.926748 
L 236.029079 120.829757 
L 236.220488 120.829757 
L 236.220488 120.30551 
L 236.336348 120.30551 
L 236.442525 115.58728 
L 236.454835 115.58728 
L 236.564374 110.344803 
L 236.616164 110.344803 
L 236.713161 105.102326 
L 236.905164 105.102326 
L 236.960967 103.529583 
L 237.08512 103.529583 
L 237.193736 102.481087 
L 237.226733 102.481087 
L 237.309995 100.908344 
L 237.357921 100.908344 
L 237.357921 100.384096 
L 237.515428 100.384096 
L 237.616149 98.287105 
L 237.698416 98.287105 
L 237.768358 96.190115 
L 237.875968 96.190115 
L 237.970531 94.617371 
L 238.040963 94.617371 
L 238.065764 93.568876 
L 238.264166 93.568876 
L 238.35265 90.947637 
L 238.407489 90.947637 
L 238.517619 88.850646 
L 238.550087 88.850646 
L 238.659343 86.753656 
L 238.763574 86.753656 
L 238.763574 85.70516 
L 238.877807 85.70516 
L 238.911014 84.656665 
L 239.007903 84.656665 
L 239.113431 83.083922 
L 241.128016 83.083922 
L 241.193538 80.986931 
L 241.288342 80.986931 
L 241.359763 79.938435 
L 241.425983 79.938435 
L 241.425983 79.414188 
L 241.630924 79.414188 
L 241.630924 77.841444 
L 242.680633 77.841444 
L 242.680633 76.268701 
L 242.830181 76.268701 
L 242.924961 75.220206 
L 243.049911 75.220206 
L 243.119023 74.17171 
L 243.175128 74.17171 
L 243.175128 73.647463 
L 243.299148 73.647463 
L 243.335093 72.598967 
L 243.740408 72.598967 
L 243.740408 72.074719 
L 246.16368 72.074719 
L 246.16368 71.550472 
L 246.299592 71.550472 
L 246.379644 68.929233 
L 246.444284 68.929233 
L 246.471621 67.880738 
L 246.564914 67.880738 
L 246.618288 66.307995 
L 246.677073 66.307995 
L 246.766922 64.211004 
L 246.80913 64.211004 
L 246.87484 62.638261 
L 247.8437 62.638261 
L 247.8437 62.114013 
L 249.750275 62.114013 
L 249.856693 58.968526 
L 249.898836 58.968526 
L 249.999066 56.347288 
L 250.018529 56.347288 
L 250.113262 53.726049 
L 250.196278 53.726049 
L 250.301189 50.056315 
L 250.330457 50.056315 
L 250.418248 47.959324 
L 250.49297 47.959324 
L 250.582151 46.386581 
L 254.311046 46.386581 
L 254.408891 42.716847 
L 254.427393 42.716847 
L 254.533847 36.950122 
L 254.589785 36.950122 
L 254.664282 34.328884 
L 254.716582 34.328884 
L 254.792631 32.231893 
L 256.225272 32.231893 
L 256.294832 30.65915 
L 256.352647 30.65915 
L 256.434907 29.086407 
L 256.503675 29.086407 
L 256.503675 27.513663 
L 333.429677 27.513663 
L 333.429677 27.513663 
" style="fill:none;stroke:#999999;stroke-linecap:square;stroke-width:1.5;"/>
   </g>
   <g id="line2d_33"/>
   <g id="line2d_34">
    <path d="M 0 0 
" style="fill:none;stroke:#999999;stroke-linecap:square;stroke-width:1.5;"/>
   </g>
   <g id="line2d_35">
    <path clip-path="url(#p0769ae941e)" d="M 56.12 294.88 
L 56.12 294.88 
L 56.12 294.88 
L 56.12 294.88 
L 399.984 294.88 
" style="fill:none;stroke:#999999;stroke-linecap:square;stroke-width:1.5;"/>
   </g>
   <g id="line2d_36"/>
   <g id="line2d_37">
    <path clip-path="url(#p0769ae941e)" d="M 0 0 
" style="fill:none;stroke:#999999;stroke-linecap:square;stroke-width:1.5;"/>
   </g>
   <g id="line2d_38">
    <path clip-path="url(#p0769ae941e)" d="M 56.12 294.88 
L 56.12 294.88 
L 56.12 294.88 
L 56.12 294.88 
L 399.984 294.88 
" style="fill:none;stroke:#999999;stroke-linecap:square;stroke-width:1.5;"/>
   </g>
   <g id="line2d_39"/>
   <g id="line2d_40">
    <path clip-path="url(#p0769ae941e)" d="M 0 0 
" style="fill:none;stroke:#999999;stroke-linecap:square;stroke-width:1.5;"/>
   </g>
   <g id="line2d_41">
    <g>
     <use style="fill:#999999;stroke:#999999;" x="202.629188" xlink:href="#mfbc57e050f" y="27.513663"/>
     <use style="fill:#999999;stroke:#999999;" x="202.629188" xlink:href="#mfbc57e050f" y="27.513663"/>
    </g>
   </g>
   <g id="line2d_42">
    <path d="M 157.425438 294.88 
L 157.425438 294.355752 
L 158.257484 294.355752 
L 158.257484 293.831505 
L 160.001787 293.831505 
L 160.033579 292.783009 
L 161.236432 292.783009 
L 161.236432 292.258761 
L 161.600384 292.258761 
L 161.600384 291.734514 
L 161.915517 291.734514 
L 161.988835 290.686018 
L 162.353495 290.686018 
L 162.392845 288.06478 
L 162.649089 288.06478 
L 162.649089 287.540532 
L 163.262873 287.540532 
L 163.262873 287.016284 
L 163.844021 287.016284 
L 163.844021 286.492036 
L 164.087777 286.492036 
L 164.087777 285.967789 
L 164.951319 285.967789 
L 164.951319 285.443541 
L 165.071 285.443541 
L 165.071 284.395046 
L 165.328994 284.395046 
L 165.328994 283.870798 
L 166.806169 283.870798 
L 166.917091 282.298055 
L 167.256405 282.298055 
L 167.256405 280.725312 
L 167.389878 280.725312 
L 167.389878 280.201064 
L 167.546838 280.201064 
L 167.626102 279.152568 
L 168.185632 279.152568 
L 168.215589 277.055578 
L 168.831689 277.055578 
L 168.831689 276.53133 
L 169.746962 276.53133 
L 169.837026 275.482834 
L 170.206261 275.482834 
L 170.206261 273.910091 
L 170.928847 273.910091 
L 170.928847 273.385844 
L 171.538514 273.385844 
L 171.538514 272.861596 
L 172.023001 272.861596 
L 172.023001 271.8131 
L 172.233017 271.8131 
L 172.342583 269.716109 
L 172.477822 269.716109 
L 172.477822 269.191862 
L 173.170532 269.191862 
L 173.170532 268.667614 
L 173.836888 268.667614 
L 173.836888 268.143366 
L 174.051427 268.143366 
L 174.051427 267.619119 
L 174.194631 267.619119 
L 174.218906 266.046375 
L 174.910566 266.046375 
L 174.982482 264.99788 
L 175.393516 264.99788 
L 175.393516 264.473632 
L 176.252035 264.473632 
L 176.252035 263.425137 
L 176.405823 263.425137 
L 176.428358 262.376641 
L 177.063271 262.376641 
L 177.063271 261.852394 
L 177.476741 261.852394 
L 177.476741 260.803898 
L 177.809919 260.803898 
L 177.809919 259.755403 
L 178.046377 259.755403 
L 178.046377 259.231155 
L 178.229531 259.231155 
L 178.275372 257.658412 
L 178.449443 257.658412 
L 178.449443 257.134164 
L 178.922415 257.134164 
L 178.985528 255.561421 
L 179.038569 255.561421 
L 179.067739 254.512926 
L 179.725038 254.512926 
L 179.725038 253.46443 
L 179.977612 253.46443 
L 179.977612 252.415935 
L 180.144914 252.415935 
L 180.144914 251.891687 
L 180.354058 251.891687 
L 180.457529 250.318944 
L 180.567837 250.318944 
L 180.574048 248.746201 
L 180.714746 248.746201 
L 180.714746 248.221953 
L 180.875674 248.221953 
L 180.875674 247.697705 
L 181.088833 247.697705 
L 181.117136 246.64921 
L 181.273764 246.64921 
L 181.337147 245.076467 
L 182.406653 245.076467 
L 182.406653 244.552219 
L 182.543159 244.552219 
L 182.543159 244.027971 
L 182.719753 244.027971 
L 182.72907 242.979476 
L 182.850816 242.979476 
L 182.867944 241.93098 
L 183.04206 241.93098 
L 183.14478 240.358237 
L 183.209903 240.358237 
L 183.316925 238.261246 
L 183.406702 238.261246 
L 183.50099 236.688503 
L 183.793157 236.688503 
L 183.793157 236.164255 
L 184.104993 236.164255 
L 184.192521 234.591512 
L 184.485891 234.591512 
L 184.485891 234.067265 
L 184.909777 234.067265 
L 184.909777 233.543017 
L 185.195063 233.543017 
L 185.24815 231.970274 
L 185.955371 231.970274 
L 185.999598 229.873283 
L 186.153842 229.873283 
L 186.153842 228.824787 
L 186.333396 228.824787 
L 186.360701 227.776292 
L 186.629642 227.776292 
L 186.629642 227.252044 
L 186.804756 227.252044 
L 186.804756 226.727797 
L 187.005047 226.727797 
L 187.114519 225.679301 
L 187.119613 225.679301 
L 187.119613 225.155053 
L 187.389159 225.155053 
L 187.42631 223.58231 
L 187.686407 223.58231 
L 187.686407 223.058063 
L 187.845238 223.058063 
L 187.850731 221.485319 
L 187.977799 221.485319 
L 188.053552 218.864081 
L 188.291721 218.864081 
L 188.351097 217.815585 
L 188.443906 217.815585 
L 188.443906 217.291338 
L 188.56961 217.291338 
L 188.619285 215.194347 
L 188.928315 215.194347 
L 189.011036 213.097356 
L 189.066848 213.097356 
L 189.100173 212.04886 
L 189.198069 212.04886 
L 189.282876 211.000365 
L 189.413209 211.000365 
L 189.486055 209.427622 
L 189.653007 209.427622 
L 189.749273 207.854879 
L 189.778212 207.854879 
L 189.845547 205.757888 
L 190.005116 205.757888 
L 190.089082 204.709392 
L 190.284777 204.709392 
L 190.32499 203.660897 
L 190.444541 203.660897 
L 190.540318 199.991163 
L 190.897065 199.991163 
L 190.925499 198.942667 
L 191.154818 198.942667 
L 191.154818 197.894172 
L 191.32686 197.894172 
L 191.416705 195.797181 
L 191.540424 195.797181 
L 191.540424 195.272933 
L 191.661141 195.272933 
L 191.753477 193.70019 
L 191.986011 193.70019 
L 191.986011 192.127447 
L 192.159323 192.127447 
L 192.258164 190.030456 
L 192.31114 190.030456 
L 192.420973 186.360722 
L 192.464586 186.360722 
L 192.464586 184.787979 
L 192.587971 184.787979 
L 192.680701 183.215236 
L 192.711858 183.215236 
L 192.711858 182.16674 
L 192.86057 182.16674 
L 192.968321 181.118245 
L 193.166593 181.118245 
L 193.233816 179.021254 
L 193.308184 179.021254 
L 193.405225 175.875768 
L 193.667449 175.875768 
L 193.748924 173.254529 
L 193.830302 173.254529 
L 193.830302 172.206034 
L 193.984652 172.206034 
L 194.014958 170.633291 
L 194.12252 170.633291 
L 194.164567 169.584795 
L 194.275121 169.584795 
L 194.362833 166.439309 
L 194.513604 166.439309 
L 194.595301 164.866566 
L 194.69302 164.866566 
L 194.725379 163.293823 
L 194.857324 163.293823 
L 194.941047 161.721079 
L 195.051155 161.721079 
L 195.052895 160.672584 
L 195.225478 160.672584 
L 195.309542 157.00285 
L 195.343527 157.00285 
L 195.348395 155.954354 
L 195.511278 155.954354 
L 195.612238 151.760373 
L 195.69547 151.760373 
L 195.803943 148.614886 
L 195.842081 148.614886 
L 195.845915 147.042143 
L 195.973504 147.042143 
L 196.047432 144.945152 
L 196.08579 144.945152 
L 196.175923 142.323914 
L 196.222751 142.323914 
L 196.24774 140.751171 
L 196.344233 140.751171 
L 196.421287 139.702675 
L 196.528487 139.702675 
L 196.574121 138.129932 
L 196.872526 138.129932 
L 196.954087 136.032941 
L 197.103469 136.032941 
L 197.182053 134.460198 
L 197.233182 134.460198 
L 197.328188 131.838959 
L 197.378651 131.838959 
L 197.489246 128.693473 
L 197.604789 128.693473 
L 197.668135 126.072235 
L 197.745675 126.072235 
L 197.84268 124.499491 
L 197.858832 124.499491 
L 197.938801 122.4025 
L 197.981639 122.4025 
L 198.03844 120.30551 
L 198.143768 120.30551 
L 198.236447 118.208519 
L 198.265231 118.208519 
L 198.265231 117.684271 
L 198.39951 117.684271 
L 198.434951 116.635776 
L 198.518421 116.635776 
L 198.608021 114.538785 
L 198.649443 114.538785 
L 198.739877 108.77206 
L 198.832739 108.77206 
L 198.93397 105.626573 
L 198.945074 105.626573 
L 198.999425 104.05383 
L 199.059332 104.05383 
L 199.111738 99.859849 
L 199.170624 99.859849 
L 199.170729 98.287105 
L 199.338779 98.287105 
L 199.403131 95.141619 
L 199.46134 95.141619 
L 199.531633 91.471885 
L 199.661026 91.471885 
L 199.715512 88.850646 
L 199.775524 88.850646 
L 199.875417 84.132417 
L 199.912387 84.132417 
L 200.018112 79.414188 
L 200.036554 79.414188 
L 200.14391 76.268701 
L 200.217027 76.268701 
L 200.292795 71.550472 
L 200.429538 71.550472 
L 200.522697 67.880738 
L 200.602563 67.880738 
L 200.695275 64.735251 
L 200.718206 64.735251 
L 200.776169 62.114013 
L 200.835563 62.114013 
L 200.94633 60.017022 
L 200.973294 60.017022 
L 201.024164 55.82304 
L 201.100329 55.82304 
L 201.175033 53.201802 
L 201.246986 53.201802 
L 201.320872 48.483572 
L 201.369057 48.483572 
L 201.478203 47.435077 
L 201.493029 47.435077 
L 201.583548 44.28959 
L 201.634747 44.28959 
L 201.718168 42.716847 
L 201.789971 42.716847 
L 201.886054 40.095609 
L 201.915538 40.095609 
L 201.967193 36.950122 
L 202.072621 36.950122 
L 202.170329 34.853131 
L 202.223961 34.853131 
L 202.32906 32.231893 
L 202.456599 32.231893 
L 202.528859 28.562159 
L 202.583978 28.562159 
L 202.629188 27.513663 
L 333.429677 27.513663 
L 333.429677 27.513663 
" style="fill:none;stroke:#999999;stroke-linecap:square;stroke-width:1.5;"/>
   </g>
   <g id="line2d_43"/>
   <g id="line2d_44">
    <path d="M 0 0 
" style="fill:none;stroke:#999999;stroke-linecap:square;stroke-width:1.5;"/>
   </g>
   <g id="line2d_45">
    <path clip-path="url(#p0769ae941e)" d="M 56.12 294.88 
L 56.12 294.88 
L 56.12 294.88 
L 56.12 294.88 
L 399.984 294.88 
" style="fill:none;stroke:#999999;stroke-linecap:square;stroke-width:1.5;"/>
   </g>
   <g id="line2d_46"/>
   <g id="line2d_47">
    <path clip-path="url(#p0769ae941e)" d="M 0 0 
" style="fill:none;stroke:#999999;stroke-linecap:square;stroke-width:1.5;"/>
   </g>
   <g id="line2d_48">
    <path clip-path="url(#p0769ae941e)" d="M 56.12 294.88 
L 56.12 294.88 
L 56.12 294.88 
L 56.12 294.88 
L 399.984 294.88 
" style="fill:none;stroke:#999999;stroke-linecap:square;stroke-width:1.5;"/>
   </g>
   <g id="line2d_49"/>
   <g id="line2d_50">
    <path clip-path="url(#p0769ae941e)" d="M 0 0 
" style="fill:none;stroke:#999999;stroke-linecap:square;stroke-width:1.5;"/>
   </g>
   <g id="line2d_51">
    <path clip-path="url(#p0769ae941e)" d="M 56.12 294.88 
L 56.12 294.88 
L 56.12 294.88 
L 56.12 294.88 
L 399.984 294.88 
" style="fill:none;stroke:#999999;stroke-linecap:square;stroke-width:1.5;"/>
   </g>
   <g id="line2d_52"/>
   <g id="line2d_53">
    <path clip-path="url(#p0769ae941e)" d="M 0 0 
" style="fill:none;stroke:#999999;stroke-linecap:square;stroke-width:1.5;"/>
   </g>
   <g id="line2d_54">
    <g>
     <use style="fill:#999999;stroke:#999999;" x="198.672123" xlink:href="#mfbc57e050f" y="27.513663"/>
     <use style="fill:#999999;stroke:#999999;" x="198.672123" xlink:href="#mfbc57e050f" y="27.513663"/>
    </g>
   </g>
   <g id="line2d_55">
    <path d="M 162.126376 294.88 
L 162.126376 294.355752 
L 162.237606 294.355752 
L 162.237606 293.307257 
L 162.79893 293.307257 
L 162.79893 292.783009 
L 162.969951 292.783009 
L 162.969951 292.258761 
L 163.310365 292.258761 
L 163.310365 291.734514 
L 164.712552 291.734514 
L 164.712552 291.210266 
L 165.036562 291.210266 
L 165.036562 290.686018 
L 165.891341 290.686018 
L 165.891341 290.161771 
L 166.382839 290.161771 
L 166.382839 288.589027 
L 167.082484 288.589027 
L 167.082484 287.540532 
L 167.215958 287.540532 
L 167.215958 285.967789 
L 167.433918 285.967789 
L 167.433918 285.443541 
L 168.671815 285.443541 
L 168.671815 284.919293 
L 169.026579 284.919293 
L 169.026579 284.395046 
L 169.499338 284.395046 
L 169.499338 283.34655 
L 170.206261 283.34655 
L 170.269109 281.773807 
L 170.446222 281.773807 
L 170.446222 281.249559 
L 170.931023 281.249559 
L 170.931023 280.725312 
L 171.168663 280.725312 
L 171.168663 279.152568 
L 171.330423 279.152568 
L 171.380298 277.055578 
L 171.961132 277.055578 
L 171.961132 276.53133 
L 172.333563 276.53133 
L 172.333563 276.007082 
L 172.77449 276.007082 
L 172.802317 273.910091 
L 173.624292 273.910091 
L 173.624292 273.385844 
L 174.145525 273.385844 
L 174.145525 272.861596 
L 174.623369 272.861596 
L 174.623369 272.337348 
L 174.910998 272.337348 
L 174.910998 271.8131 
L 175.04725 271.8131 
L 175.04725 271.288853 
L 175.700832 271.288853 
L 175.700832 270.764605 
L 176.267197 270.764605 
L 176.315783 269.191862 
L 176.378504 269.191862 
L 176.378504 268.667614 
L 176.499723 268.667614 
L 176.499723 268.143366 
L 176.616185 268.143366 
L 176.616185 267.619119 
L 176.850242 267.619119 
L 176.901825 266.046375 
L 177.212271 266.046375 
L 177.212271 265.522128 
L 177.754409 265.522128 
L 177.843067 264.473632 
L 177.994512 264.473632 
L 178.035945 262.376641 
L 178.514312 262.376641 
L 178.514312 261.852394 
L 178.671782 261.852394 
L 178.671782 260.803898 
L 179.186959 260.803898 
L 179.186959 260.279651 
L 179.473335 260.279651 
L 179.508717 258.706907 
L 179.655416 258.706907 
L 179.707088 257.134164 
L 179.96668 257.134164 
L 180.016143 256.085669 
L 180.12644 256.085669 
L 180.12644 255.561421 
L 180.26451 255.561421 
L 180.364433 254.512926 
L 180.478461 254.512926 
L 180.478461 252.940182 
L 180.591427 252.940182 
L 180.640056 251.891687 
L 180.885739 251.891687 
L 180.885739 251.367439 
L 181.106603 251.367439 
L 181.148996 250.318944 
L 181.423365 250.318944 
L 181.474417 247.697705 
L 181.592466 247.697705 
L 181.592466 246.64921 
L 181.707676 246.64921 
L 181.707676 245.600714 
L 182.008518 245.600714 
L 182.09656 242.979476 
L 182.150757 242.979476 
L 182.150757 241.93098 
L 182.348217 241.93098 
L 182.348217 241.406733 
L 182.733452 241.406733 
L 182.733452 240.882485 
L 183.086388 240.882485 
L 183.158947 238.785494 
L 183.283801 238.785494 
L 183.376125 236.688503 
L 183.404858 236.688503 
L 183.404858 236.164255 
L 183.790582 236.164255 
L 183.790582 235.640008 
L 183.987506 235.640008 
L 184.017017 234.067265 
L 184.119149 234.067265 
L 184.119149 233.543017 
L 184.291369 233.543017 
L 184.352798 232.494521 
L 184.429403 232.494521 
L 184.476242 230.921778 
L 184.542194 230.921778 
L 184.597823 229.349035 
L 184.803263 229.349035 
L 184.893842 227.252044 
L 185.086007 227.252044 
L 185.111309 225.679301 
L 185.512087 225.679301 
L 185.61501 223.58231 
L 185.855612 223.58231 
L 185.855612 223.058063 
L 186.011599 223.058063 
L 186.011599 222.533815 
L 186.13812 222.533815 
L 186.195772 220.961072 
L 186.478522 220.961072 
L 186.56291 219.912576 
L 186.589634 219.912576 
L 186.589634 219.388328 
L 186.746727 219.388328 
L 186.746727 218.864081 
L 186.870774 218.864081 
L 186.974253 215.194347 
L 187.00291 215.194347 
L 187.00291 214.670099 
L 187.124706 214.670099 
L 187.226884 212.04886 
L 187.50494 212.04886 
L 187.589615 209.427622 
L 187.768561 209.427622 
L 187.870248 207.330631 
L 187.931296 207.330631 
L 188.036255 205.23364 
L 188.137176 205.23364 
L 188.216613 203.660897 
L 188.326777 203.660897 
L 188.364922 201.563906 
L 188.554582 201.563906 
L 188.653487 199.466915 
L 188.755881 199.466915 
L 188.822525 197.894172 
L 188.882591 197.894172 
L 188.988204 195.272933 
L 189.084465 195.272933 
L 189.179438 193.70019 
L 189.224569 193.70019 
L 189.224569 192.651695 
L 189.387556 192.651695 
L 189.490678 190.030456 
L 189.55362 190.030456 
L 189.581969 187.409218 
L 189.669485 187.409218 
L 189.770936 185.312227 
L 189.788574 185.312227 
L 189.829237 183.215236 
L 189.9868 183.215236 
L 190.022874 181.642493 
L 190.111213 181.642493 
L 190.111213 181.118245 
L 190.255794 181.118245 
L 190.31988 178.497006 
L 190.401626 178.497006 
L 190.444716 176.400016 
L 190.548319 176.400016 
L 190.620853 174.303025 
L 190.68256 174.303025 
L 190.790404 171.681786 
L 190.834072 171.681786 
L 190.889907 168.5363 
L 190.947261 168.5363 
L 191.050086 165.390813 
L 191.075064 165.390813 
L 191.156497 163.293823 
L 191.194557 163.293823 
L 191.30341 160.672584 
L 191.306406 160.672584 
L 191.403804 157.527098 
L 191.424308 157.527098 
L 191.49473 155.954354 
L 191.5783 155.954354 
L 191.660326 153.857364 
L 191.723619 153.857364 
L 191.823535 149.663382 
L 191.897812 149.663382 
L 191.993847 147.042143 
L 192.091257 147.042143 
L 192.128258 144.945152 
L 192.202497 144.945152 
L 192.310512 140.226923 
L 192.336548 140.226923 
L 192.425183 137.081437 
L 192.478581 137.081437 
L 192.58071 132.363207 
L 192.620684 132.363207 
L 192.726266 130.790464 
L 192.863306 130.790464 
L 192.963788 127.644978 
L 192.977081 127.644978 
L 193.009214 126.072235 
L 193.204038 126.072235 
L 193.284469 123.975244 
L 193.348573 123.975244 
L 193.430245 122.926748 
L 193.490733 122.926748 
L 193.589812 119.781262 
L 193.609618 119.781262 
L 193.715396 117.160023 
L 193.790885 117.160023 
L 193.790885 116.635776 
L 193.934736 116.635776 
L 194.020786 111.393298 
L 194.076403 111.393298 
L 194.112628 108.77206 
L 194.195825 108.77206 
L 194.300447 103.005335 
L 194.317636 103.005335 
L 194.317636 102.481087 
L 194.433598 102.481087 
L 194.543958 98.811353 
L 194.552228 98.811353 
L 194.659505 95.141619 
L 194.674013 95.141619 
L 194.76843 90.42339 
L 194.834297 90.42339 
L 194.918266 87.277903 
L 194.952493 87.277903 
L 195.060254 82.559674 
L 195.130212 82.559674 
L 195.221105 79.414188 
L 195.275754 79.414188 
L 195.346422 77.317197 
L 195.392804 77.317197 
L 195.478146 75.744454 
L 195.517923 75.744454 
L 195.592145 70.501976 
L 195.743493 70.501976 
L 195.743493 69.453481 
L 195.904479 69.453481 
L 196.014811 65.783747 
L 196.094737 65.783747 
L 196.17191 63.162508 
L 196.224001 63.162508 
L 196.252484 60.54127 
L 196.350067 60.54127 
L 196.350067 59.492774 
L 196.461534 59.492774 
L 196.536224 55.82304 
L 196.601175 55.82304 
L 196.659787 52.153306 
L 196.73508 52.153306 
L 196.823935 48.483572 
L 196.855903 48.483572 
L 196.930703 43.241095 
L 197.004941 43.241095 
L 197.108933 39.571361 
L 197.372688 39.571361 
L 197.463903 37.47437 
L 197.632344 37.47437 
L 197.672388 36.425875 
L 197.744073 36.425875 
L 197.832093 35.377379 
L 197.89858 35.377379 
L 197.998225 32.756141 
L 198.070589 32.756141 
L 198.144998 31.707645 
L 198.22354 31.707645 
L 198.22354 31.183397 
L 198.395984 31.183397 
L 198.493236 29.610654 
L 198.557658 29.610654 
L 198.627059 28.037911 
L 198.672123 28.037911 
L 198.672123 27.513663 
L 333.429677 27.513663 
L 333.429677 27.513663 
" style="fill:none;stroke:#999999;stroke-linecap:square;stroke-width:1.5;"/>
   </g>
   <g id="line2d_56"/>
   <g id="line2d_57">
    <path d="M 0 0 
" style="fill:none;stroke:#999999;stroke-linecap:square;stroke-width:1.5;"/>
   </g>
   <g id="line2d_58">
    <path clip-path="url(#p0769ae941e)" d="M 56.12 294.88 
L 56.12 294.88 
L 56.12 294.88 
L 56.12 294.88 
L 399.984 294.88 
" style="fill:none;stroke:#999999;stroke-linecap:square;stroke-width:1.5;"/>
   </g>
   <g id="line2d_59"/>
   <g id="line2d_60">
    <path clip-path="url(#p0769ae941e)" d="M 0 0 
" style="fill:none;stroke:#999999;stroke-linecap:square;stroke-width:1.5;"/>
   </g>
   <g id="line2d_61">
    <path clip-path="url(#p0769ae941e)" d="M 56.12 294.88 
L 56.12 294.88 
L 56.12 294.88 
L 56.12 294.88 
L 399.984 294.88 
" style="fill:none;stroke:#999999;stroke-linecap:square;stroke-width:1.5;"/>
   </g>
   <g id="line2d_62"/>
   <g id="line2d_63">
    <path clip-path="url(#p0769ae941e)" d="M 0 0 
" style="fill:none;stroke:#999999;stroke-linecap:square;stroke-width:1.5;"/>
   </g>
   <g id="line2d_64">
    <g>
     <use style="fill:#999999;stroke:#999999;" x="269.058452" xlink:href="#mfbc57e050f" y="27.513663"/>
     <use style="fill:#999999;stroke:#999999;" x="269.058452" xlink:href="#mfbc57e050f" y="27.513663"/>
    </g>
   </g>
   <g id="line2d_65">
    <path d="M 155.539707 294.88 
L 155.539707 293.831505 
L 155.756522 293.831505 
L 155.756522 293.307257 
L 156.517196 293.307257 
L 156.517196 292.258761 
L 156.870511 292.258761 
L 156.895121 291.210266 
L 157.127177 291.210266 
L 157.127177 290.686018 
L 157.396799 290.686018 
L 157.396799 290.161771 
L 157.53715 290.161771 
L 157.53715 289.637523 
L 157.823787 289.637523 
L 157.823787 289.113275 
L 158.51904 289.113275 
L 158.548106 287.016284 
L 158.923749 287.016284 
L 158.923749 285.443541 
L 159.107457 285.443541 
L 159.124749 284.395046 
L 159.294574 284.395046 
L 159.294574 283.870798 
L 159.465916 283.870798 
L 159.465916 282.822302 
L 159.597779 282.822302 
L 159.597779 282.298055 
L 160.075536 282.298055 
L 160.075536 281.249559 
L 160.757869 281.249559 
L 160.757869 280.725312 
L 161.166545 280.725312 
L 161.166545 280.201064 
L 161.360188 280.201064 
L 161.360188 279.676816 
L 161.671328 279.676816 
L 161.671328 279.152568 
L 161.8953 279.152568 
L 161.954964 278.104073 
L 162.193381 278.104073 
L 162.193381 277.579825 
L 162.793695 277.579825 
L 162.793695 277.055578 
L 163.166639 277.055578 
L 163.166639 276.53133 
L 163.678196 276.53133 
L 163.678196 276.007082 
L 163.847305 276.007082 
L 163.847305 275.482834 
L 164.191885 275.482834 
L 164.191885 274.434339 
L 165.367362 274.434339 
L 165.367362 273.910091 
L 166.088475 273.910091 
L 166.088475 272.861596 
L 169.810346 272.861596 
L 169.810346 271.8131 
L 177.427974 271.8131 
L 177.427974 270.764605 
L 178.155717 270.764605 
L 178.155717 269.716109 
L 178.423427 269.716109 
L 178.423427 268.667614 
L 178.67837 268.667614 
L 178.706081 267.619119 
L 179.500126 267.619119 
L 179.500126 267.094871 
L 179.946082 267.094871 
L 179.946082 266.570623 
L 180.313756 266.570623 
L 180.338327 264.99788 
L 181.425729 264.99788 
L 181.425729 264.473632 
L 182.741393 264.473632 
L 182.755348 261.852394 
L 182.909199 261.852394 
L 182.909199 261.328146 
L 183.355534 261.328146 
L 183.355534 260.279651 
L 183.692174 260.279651 
L 183.692174 259.755403 
L 184.290618 259.755403 
L 184.334343 258.706907 
L 184.658415 258.706907 
L 184.681418 256.085669 
L 185.071908 256.085669 
L 185.071908 255.561421 
L 185.264706 255.561421 
L 185.264706 254.512926 
L 186.08884 254.512926 
L 186.08884 253.988678 
L 186.490634 253.988678 
L 186.490634 252.940182 
L 186.735445 252.940182 
L 186.735445 251.367439 
L 187.285 251.367439 
L 187.285 250.843192 
L 187.548882 250.843192 
L 187.548882 250.318944 
L 187.863338 250.318944 
L 187.863338 249.794696 
L 191.445614 249.794696 
L 191.445614 248.746201 
L 194.28632 248.746201 
L 194.28632 248.221953 
L 196.71808 248.221953 
L 196.71808 247.697705 
L 196.979593 247.697705 
L 196.979593 247.173458 
L 197.385314 247.173458 
L 197.385314 245.600714 
L 197.607443 245.600714 
L 197.607443 245.076467 
L 199.857206 245.076467 
L 199.857206 244.552219 
L 200.062481 244.552219 
L 200.062481 242.979476 
L 200.280651 242.979476 
L 200.280651 241.93098 
L 200.48321 241.93098 
L 200.486333 240.882485 
L 201.060731 240.882485 
L 201.060731 239.83399 
L 201.573015 239.83399 
L 201.573015 238.261246 
L 202.619448 238.261246 
L 202.619448 237.736999 
L 203.795158 237.736999 
L 203.795158 237.212751 
L 204.147577 237.212751 
L 204.147577 236.688503 
L 204.348037 236.688503 
L 204.348037 236.164255 
L 207.40822 236.164255 
L 207.40822 235.640008 
L 208.525578 235.640008 
L 208.525578 234.591512 
L 210.973965 234.591512 
L 211.046648 233.543017 
L 211.500565 233.543017 
L 211.500565 233.018769 
L 211.646527 233.018769 
L 211.646527 232.494521 
L 211.790756 232.494521 
L 211.800922 231.446026 
L 212.144613 231.446026 
L 212.144613 230.921778 
L 212.436121 230.921778 
L 212.436121 230.397531 
L 212.556495 230.397531 
L 212.556495 229.873283 
L 212.755329 229.873283 
L 212.755329 228.824787 
L 213.023008 228.824787 
L 213.064072 227.776292 
L 213.484817 227.776292 
L 213.484817 227.252044 
L 213.652028 227.252044 
L 213.652028 226.727797 
L 213.93031 226.727797 
L 213.93031 225.679301 
L 214.124217 225.679301 
L 214.124217 225.155053 
L 214.969992 225.155053 
L 214.969992 224.630806 
L 215.340883 224.630806 
L 215.340883 224.106558 
L 215.862434 224.106558 
L 215.862434 223.58231 
L 217.112063 223.58231 
L 217.112063 222.533815 
L 220.2344 222.533815 
L 220.2344 220.436824 
L 221.295561 220.436824 
L 221.295561 219.912576 
L 221.922412 219.912576 
L 221.922412 219.388328 
L 222.086344 219.388328 
L 222.086344 218.864081 
L 222.359415 218.864081 
L 222.359415 218.339833 
L 222.479508 218.339833 
L 222.479508 217.815585 
L 222.702968 217.815585 
L 222.764432 216.76709 
L 222.881104 216.76709 
L 222.980761 215.194347 
L 223.081183 215.194347 
L 223.081183 214.670099 
L 223.354172 214.670099 
L 223.450569 212.573108 
L 223.637692 212.573108 
L 223.645161 211.000365 
L 223.900531 211.000365 
L 223.996138 209.427622 
L 224.183779 209.427622 
L 224.282162 207.854879 
L 224.348171 207.854879 
L 224.348171 207.330631 
L 228.418515 207.330631 
L 228.418515 206.806383 
L 229.154302 206.806383 
L 229.225867 203.660897 
L 229.275213 203.660897 
L 229.334695 200.515411 
L 229.410548 200.515411 
L 229.410548 199.991163 
L 229.548017 199.991163 
L 229.584906 197.894172 
L 229.698962 197.894172 
L 229.772732 196.321429 
L 229.90207 196.321429 
L 229.90207 195.797181 
L 230.016645 195.797181 
L 230.016645 195.272933 
L 230.214879 195.272933 
L 230.214879 194.748686 
L 230.533765 194.748686 
L 230.533765 193.70019 
L 230.767163 193.70019 
L 230.877856 191.603199 
L 230.928512 191.603199 
L 230.928512 191.078952 
L 231.059103 191.078952 
L 231.101755 189.506209 
L 231.679225 189.506209 
L 231.679225 187.933465 
L 232.176666 187.933465 
L 232.176666 186.360722 
L 232.361932 186.360722 
L 232.450359 185.312227 
L 232.730031 185.312227 
L 232.730031 184.787979 
L 232.937163 184.787979 
L 232.937163 184.263731 
L 233.37458 184.263731 
L 233.37458 183.739484 
L 233.730218 183.739484 
L 233.730218 182.690988 
L 234.432959 182.690988 
L 234.432959 181.642493 
L 235.066399 181.642493 
L 235.066399 181.118245 
L 245.537676 181.118245 
L 245.634197 180.06975 
L 245.649085 180.06975 
L 245.726922 177.972759 
L 245.791632 177.972759 
L 245.870671 174.303025 
L 245.90737 174.303025 
L 246.011698 169.584795 
L 246.023828 169.584795 
L 246.126197 162.245327 
L 246.149128 162.245327 
L 246.256325 158.051345 
L 246.28018 158.051345 
L 246.38635 151.760373 
L 246.401468 151.760373 
L 246.504526 146.517896 
L 246.545443 146.517896 
L 246.633277 142.323914 
L 246.673483 142.323914 
L 246.759964 137.605684 
L 246.784899 137.605684 
L 246.890429 130.266216 
L 246.90768 130.266216 
L 246.932048 129.217721 
L 247.07461 129.217721 
L 247.121439 127.644978 
L 247.683197 127.644978 
L 247.779202 125.547987 
L 247.811273 125.547987 
L 247.888863 122.926748 
L 247.977767 122.926748 
L 248.05136 119.257014 
L 248.093259 119.257014 
L 248.19712 115.58728 
L 248.210624 115.58728 
L 248.284983 113.490289 
L 248.335409 113.490289 
L 248.375416 111.393298 
L 248.944043 111.393298 
L 249.036754 108.77206 
L 249.057174 108.77206 
L 249.114918 106.150821 
L 249.172739 106.150821 
L 249.246366 103.529583 
L 249.299969 103.529583 
L 249.369399 101.432592 
L 249.414432 101.432592 
L 249.494414 95.665867 
L 249.543418 95.665867 
L 249.638991 93.568876 
L 249.775924 93.568876 
L 249.878562 89.899142 
L 249.895135 89.899142 
L 249.987049 85.180912 
L 250.017174 85.180912 
L 250.12378 78.88994 
L 250.158209 78.88994 
L 250.200874 75.744454 
L 250.291044 75.744454 
L 250.396099 72.074719 
L 250.449939 72.074719 
L 250.461097 69.977729 
L 251.511276 69.977729 
L 251.599992 68.404985 
L 251.648028 68.404985 
L 251.758665 64.735251 
L 251.767104 64.735251 
L 251.80333 63.686756 
L 251.911256 63.686756 
L 251.985157 61.065517 
L 252.052428 61.065517 
L 252.127511 58.968526 
L 252.173411 58.968526 
L 252.271632 52.153306 
L 252.29552 52.153306 
L 252.391959 44.28959 
L 252.406714 44.28959 
L 252.488885 39.047113 
L 252.521827 39.047113 
L 252.521827 38.522865 
L 253.926685 38.522865 
L 254.015548 34.328884 
L 254.04484 34.328884 
L 254.149794 28.562159 
L 254.189401 28.562159 
L 254.189401 28.037911 
L 269.058452 28.037911 
L 269.058452 27.513663 
L 333.429677 27.513663 
L 333.429677 27.513663 
" style="fill:none;stroke:#999999;stroke-linecap:square;stroke-width:1.5;"/>
   </g>
   <g id="line2d_66"/>
   <g id="line2d_67">
    <path d="M 0 0 
" style="fill:none;stroke:#999999;stroke-linecap:square;stroke-width:1.5;"/>
   </g>
   <g id="line2d_68">
    <path clip-path="url(#p0769ae941e)" d="M 56.12 294.88 
L 56.12 294.88 
L 56.12 294.88 
L 56.12 294.88 
L 399.984 294.88 
" style="fill:none;stroke:#ff00ff;stroke-linecap:square;stroke-width:1.5;"/>
   </g>
   <g id="line2d_69">
    <defs>
     <path d="M -0 8.485281 
L 5.091169 0 
L 0 -8.485281 
L -5.091169 -0 
z
" id="m57607e4d4a" style="stroke:#ff00ff;stroke-linejoin:miter;stroke-width:1.5;"/>
    </defs>
    <g clip-path="url(#p0769ae941e)">
     <use style="fill:none;stroke:#ff00ff;stroke-linejoin:miter;stroke-width:1.5;" x="56.12" xlink:href="#m57607e4d4a" y="294.88"/>
     <use style="fill:none;stroke:#ff00ff;stroke-linejoin:miter;stroke-width:1.5;" x="56.12" xlink:href="#m57607e4d4a" y="294.88"/>
     <use style="fill:none;stroke:#ff00ff;stroke-linejoin:miter;stroke-width:1.5;" x="56.12" xlink:href="#m57607e4d4a" y="294.88"/>
     <use style="fill:none;stroke:#ff00ff;stroke-linejoin:miter;stroke-width:1.5;" x="56.12" xlink:href="#m57607e4d4a" y="294.88"/>
     <use style="fill:none;stroke:#ff00ff;stroke-linejoin:miter;stroke-width:1.5;" x="95.735668" xlink:href="#m57607e4d4a" y="294.88"/>
     <use style="fill:none;stroke:#ff00ff;stroke-linejoin:miter;stroke-width:1.5;" x="95.735668" xlink:href="#m57607e4d4a" y="294.88"/>
     <use style="fill:none;stroke:#ff00ff;stroke-linejoin:miter;stroke-width:1.5;" x="135.351336" xlink:href="#m57607e4d4a" y="294.88"/>
     <use style="fill:none;stroke:#ff00ff;stroke-linejoin:miter;stroke-width:1.5;" x="135.351336" xlink:href="#m57607e4d4a" y="294.88"/>
     <use style="fill:none;stroke:#ff00ff;stroke-linejoin:miter;stroke-width:1.5;" x="174.967005" xlink:href="#m57607e4d4a" y="294.88"/>
     <use style="fill:none;stroke:#ff00ff;stroke-linejoin:miter;stroke-width:1.5;" x="174.967005" xlink:href="#m57607e4d4a" y="294.88"/>
     <use style="fill:none;stroke:#ff00ff;stroke-linejoin:miter;stroke-width:1.5;" x="214.582673" xlink:href="#m57607e4d4a" y="294.88"/>
     <use style="fill:none;stroke:#ff00ff;stroke-linejoin:miter;stroke-width:1.5;" x="214.582673" xlink:href="#m57607e4d4a" y="294.88"/>
     <use style="fill:none;stroke:#ff00ff;stroke-linejoin:miter;stroke-width:1.5;" x="254.198341" xlink:href="#m57607e4d4a" y="294.88"/>
     <use style="fill:none;stroke:#ff00ff;stroke-linejoin:miter;stroke-width:1.5;" x="254.198341" xlink:href="#m57607e4d4a" y="294.88"/>
     <use style="fill:none;stroke:#ff00ff;stroke-linejoin:miter;stroke-width:1.5;" x="293.814009" xlink:href="#m57607e4d4a" y="294.88"/>
     <use style="fill:none;stroke:#ff00ff;stroke-linejoin:miter;stroke-width:1.5;" x="293.814009" xlink:href="#m57607e4d4a" y="294.88"/>
     <use style="fill:none;stroke:#ff00ff;stroke-linejoin:miter;stroke-width:1.5;" x="333.429677" xlink:href="#m57607e4d4a" y="294.88"/>
     <use style="fill:none;stroke:#ff00ff;stroke-linejoin:miter;stroke-width:1.5;" x="333.429677" xlink:href="#m57607e4d4a" y="294.88"/>
     <use style="fill:none;stroke:#ff00ff;stroke-linejoin:miter;stroke-width:1.5;" x="373.045346" xlink:href="#m57607e4d4a" y="294.88"/>
    </g>
   </g>
   <g id="line2d_70">
    <path clip-path="url(#p0769ae941e)" d="M 0 0 
" style="fill:none;stroke:#ff00ff;stroke-linecap:square;stroke-width:1.5;"/>
    <g clip-path="url(#p0769ae941e)">
     <use style="fill:none;stroke:#ff00ff;stroke-linejoin:miter;stroke-width:1.5;" x="0" xlink:href="#m57607e4d4a" y="0"/>
    </g>
   </g>
   <g id="line2d_71">
    <path d="M 333.429677 294.88 
L 363.933742 289.532673 
" style="fill:none;stroke:#ff00ff;stroke-linecap:square;stroke-width:1.5;"/>
    <g>
     <use style="fill:none;stroke:#ff00ff;stroke-linejoin:miter;stroke-width:1.5;" x="333.429677" xlink:href="#m57607e4d4a" y="294.88"/>
     <use style="fill:none;stroke:#ff00ff;stroke-linejoin:miter;stroke-width:1.5;" x="363.933742" xlink:href="#m57607e4d4a" y="289.532673"/>
    </g>
   </g>
   <g id="line2d_72">
    <path d="M 333.429677 294.88 
L 333.429677 27.513663 
" style="fill:none;stroke:#000000;stroke-linecap:square;stroke-width:1.5;"/>
   </g>
   <g id="patch_3">
    <path d="M 56.12 294.88 
L 56.12 24.84 
" style="fill:none;stroke:#000000;stroke-linecap:square;stroke-linejoin:miter;stroke-width:0.8;"/>
   </g>
   <g id="patch_4">
    <path d="M 399.984 294.88 
L 399.984 24.84 
" style="fill:none;stroke:#000000;stroke-linecap:square;stroke-linejoin:miter;stroke-width:0.8;"/>
   </g>
   <g id="patch_5">
    <path d="M 56.12 294.88 
L 399.984 294.88 
" style="fill:none;stroke:#000000;stroke-linecap:square;stroke-linejoin:miter;stroke-width:0.8;"/>
   </g>
   <g id="patch_6">
    <path d="M 56.12 24.84 
L 399.984 24.84 
" style="fill:none;stroke:#000000;stroke-linecap:square;stroke-linejoin:miter;stroke-width:0.8;"/>
   </g>
   <g id="text_14">
    <!-- SNES scha -->
    <defs>
     <path d="M 53.515625 70.515625 
L 53.515625 60.890625 
Q 47.90625 63.578125 42.921875 64.890625 
Q 37.9375 66.21875 33.296875 66.21875 
Q 25.25 66.21875 20.875 63.09375 
Q 16.5 59.96875 16.5 54.203125 
Q 16.5 49.359375 19.40625 46.890625 
Q 22.3125 44.4375 30.421875 42.921875 
L 36.375 41.703125 
Q 47.40625 39.59375 52.65625 34.296875 
Q 57.90625 29 57.90625 20.125 
Q 57.90625 9.515625 50.796875 4.046875 
Q 43.703125 -1.421875 29.984375 -1.421875 
Q 24.8125 -1.421875 18.96875 -0.25 
Q 13.140625 0.921875 6.890625 3.21875 
L 6.890625 13.375 
Q 12.890625 10.015625 18.65625 8.296875 
Q 24.421875 6.59375 29.984375 6.59375 
Q 38.421875 6.59375 43.015625 9.90625 
Q 47.609375 13.234375 47.609375 19.390625 
Q 47.609375 24.75 44.3125 27.78125 
Q 41.015625 30.8125 33.5 32.328125 
L 27.484375 33.5 
Q 16.453125 35.6875 11.515625 40.375 
Q 6.59375 45.0625 6.59375 53.421875 
Q 6.59375 63.09375 13.40625 68.65625 
Q 20.21875 74.21875 32.171875 74.21875 
Q 37.3125 74.21875 42.625 73.28125 
Q 47.953125 72.359375 53.515625 70.515625 
z
" id="DejaVuSans-53"/>
     <path d="M 9.8125 72.90625 
L 23.09375 72.90625 
L 55.421875 11.921875 
L 55.421875 72.90625 
L 64.984375 72.90625 
L 64.984375 0 
L 51.703125 0 
L 19.390625 60.984375 
L 19.390625 0 
L 9.8125 0 
z
" id="DejaVuSans-4e"/>
     <path d="M 9.8125 72.90625 
L 55.90625 72.90625 
L 55.90625 64.59375 
L 19.671875 64.59375 
L 19.671875 43.015625 
L 54.390625 43.015625 
L 54.390625 34.71875 
L 19.671875 34.71875 
L 19.671875 8.296875 
L 56.78125 8.296875 
L 56.78125 0 
L 9.8125 0 
z
" id="DejaVuSans-45"/>
     <path d="M 54.890625 33.015625 
L 54.890625 0 
L 45.90625 0 
L 45.90625 32.71875 
Q 45.90625 40.484375 42.875 44.328125 
Q 39.84375 48.1875 33.796875 48.1875 
Q 26.515625 48.1875 22.3125 43.546875 
Q 18.109375 38.921875 18.109375 30.90625 
L 18.109375 0 
L 9.078125 0 
L 9.078125 75.984375 
L 18.109375 75.984375 
L 18.109375 46.1875 
Q 21.34375 51.125 25.703125 53.5625 
Q 30.078125 56 35.796875 56 
Q 45.21875 56 50.046875 50.171875 
Q 54.890625 44.34375 54.890625 33.015625 
z
" id="DejaVuSans-68"/>
    </defs>
    <g transform="translate(369.479935 294.223611)scale(0.17 -0.17)">
     <use xlink:href="#DejaVuSans-53"/>
     <use x="63.476562" xlink:href="#DejaVuSans-4e"/>
     <use x="138.28125" xlink:href="#DejaVuSans-45"/>
     <use x="201.464844" xlink:href="#DejaVuSans-53"/>
     <use x="264.941406" xlink:href="#DejaVuSans-20"/>
     <use x="296.728516" xlink:href="#DejaVuSans-73"/>
     <use x="348.828125" xlink:href="#DejaVuSans-63"/>
     <use x="403.808594" xlink:href="#DejaVuSans-68"/>
     <use x="467.1875" xlink:href="#DejaVuSans-61"/>
    </g>
   </g>
   <g id="text_15">
    <!-- best 2009 -->
    <defs>
     <path d="M 48.6875 27.296875 
Q 48.6875 37.203125 44.609375 42.84375 
Q 40.53125 48.484375 33.40625 48.484375 
Q 26.265625 48.484375 22.1875 42.84375 
Q 18.109375 37.203125 18.109375 27.296875 
Q 18.109375 17.390625 22.1875 11.75 
Q 26.265625 6.109375 33.40625 6.109375 
Q 40.53125 6.109375 44.609375 11.75 
Q 48.6875 17.390625 48.6875 27.296875 
z
M 18.109375 46.390625 
Q 20.953125 51.265625 25.265625 53.625 
Q 29.59375 56 35.59375 56 
Q 45.5625 56 51.78125 48.09375 
Q 58.015625 40.1875 58.015625 27.296875 
Q 58.015625 14.40625 51.78125 6.484375 
Q 45.5625 -1.421875 35.59375 -1.421875 
Q 29.59375 -1.421875 25.265625 0.953125 
Q 20.953125 3.328125 18.109375 8.203125 
L 18.109375 0 
L 9.078125 0 
L 9.078125 75.984375 
L 18.109375 75.984375 
z
" id="DejaVuSans-62"/>
     <path d="M 10.984375 1.515625 
L 10.984375 10.5 
Q 14.703125 8.734375 18.5 7.8125 
Q 22.3125 6.890625 25.984375 6.890625 
Q 35.75 6.890625 40.890625 13.453125 
Q 46.046875 20.015625 46.78125 33.40625 
Q 43.953125 29.203125 39.59375 26.953125 
Q 35.25 24.703125 29.984375 24.703125 
Q 19.046875 24.703125 12.671875 31.3125 
Q 6.296875 37.9375 6.296875 49.421875 
Q 6.296875 60.640625 12.9375 67.421875 
Q 19.578125 74.21875 30.609375 74.21875 
Q 43.265625 74.21875 49.921875 64.515625 
Q 56.59375 54.828125 56.59375 36.375 
Q 56.59375 19.140625 48.40625 8.859375 
Q 40.234375 -1.421875 26.421875 -1.421875 
Q 22.703125 -1.421875 18.890625 -0.6875 
Q 15.09375 0.046875 10.984375 1.515625 
z
M 30.609375 32.421875 
Q 37.25 32.421875 41.125 36.953125 
Q 45.015625 41.5 45.015625 49.421875 
Q 45.015625 57.28125 41.125 61.84375 
Q 37.25 66.40625 30.609375 66.40625 
Q 23.96875 66.40625 20.09375 61.84375 
Q 16.21875 57.28125 16.21875 49.421875 
Q 16.21875 41.5 20.09375 36.953125 
Q 23.96875 32.421875 30.609375 32.421875 
z
" id="DejaVuSans-39"/>
    </defs>
    <g transform="translate(369.479935 37.551928)scale(0.17 -0.17)">
     <use xlink:href="#DejaVuSans-62"/>
     <use x="63.476562" xlink:href="#DejaVuSans-65"/>
     <use x="125" xlink:href="#DejaVuSans-73"/>
     <use x="177.099609" xlink:href="#DejaVuSans-74"/>
     <use x="216.308594" xlink:href="#DejaVuSans-20"/>
     <use x="248.095703" xlink:href="#DejaVuSans-32"/>
     <use x="311.71875" xlink:href="#DejaVuSans-30"/>
     <use x="375.341797" xlink:href="#DejaVuSans-30"/>
     <use x="438.964844" xlink:href="#DejaVuSans-39"/>
    </g>
   </g>
   <g id="text_16">
    <!-- bbob f118, 40-D -->
    <defs>
     <path d="M 19.671875 64.796875 
L 19.671875 8.109375 
L 31.59375 8.109375 
Q 46.6875 8.109375 53.6875 14.9375 
Q 60.6875 21.78125 60.6875 36.53125 
Q 60.6875 51.171875 53.6875 57.984375 
Q 46.6875 64.796875 31.59375 64.796875 
z
M 9.8125 72.90625 
L 30.078125 72.90625 
Q 51.265625 72.90625 61.171875 64.09375 
Q 71.09375 55.28125 71.09375 36.53125 
Q 71.09375 17.671875 61.125 8.828125 
Q 51.171875 0 30.078125 0 
L 9.8125 0 
z
" id="DejaVuSans-44"/>
    </defs>
    <g transform="translate(59.55864 35.290806)scale(0.102 -0.102)">
     <use xlink:href="#DejaVuSans-62"/>
     <use x="63.476562" xlink:href="#DejaVuSans-62"/>
     <use x="126.953125" xlink:href="#DejaVuSans-6f"/>
     <use x="188.134766" xlink:href="#DejaVuSans-62"/>
     <use x="251.611328" xlink:href="#DejaVuSans-20"/>
     <use x="283.398438" xlink:href="#DejaVuSans-66"/>
     <use x="318.603516" xlink:href="#DejaVuSans-31"/>
     <use x="382.226562" xlink:href="#DejaVuSans-31"/>
     <use x="445.849609" xlink:href="#DejaVuSans-38"/>
     <use x="509.472656" xlink:href="#DejaVuSans-2c"/>
     <use x="541.259766" xlink:href="#DejaVuSans-20"/>
     <use x="573.046875" xlink:href="#DejaVuSans-34"/>
     <use x="636.669922" xlink:href="#DejaVuSans-30"/>
     <use x="700.292969" xlink:href="#DejaVuSans-2d"/>
     <use x="736.376953" xlink:href="#DejaVuSans-44"/>
    </g>
    <!-- 51 targets: 100..1e-08 -->
    <defs>
     <path d="M 10.796875 72.90625 
L 49.515625 72.90625 
L 49.515625 64.59375 
L 19.828125 64.59375 
L 19.828125 46.734375 
Q 21.96875 47.46875 24.109375 47.828125 
Q 26.265625 48.1875 28.421875 48.1875 
Q 40.625 48.1875 47.75 41.5 
Q 54.890625 34.8125 54.890625 23.390625 
Q 54.890625 11.625 47.5625 5.09375 
Q 40.234375 -1.421875 26.90625 -1.421875 
Q 22.3125 -1.421875 17.546875 -0.640625 
Q 12.796875 0.140625 7.71875 1.703125 
L 7.71875 11.625 
Q 12.109375 9.234375 16.796875 8.0625 
Q 21.484375 6.890625 26.703125 6.890625 
Q 35.15625 6.890625 40.078125 11.328125 
Q 45.015625 15.765625 45.015625 23.390625 
Q 45.015625 31 40.078125 35.4375 
Q 35.15625 39.890625 26.703125 39.890625 
Q 22.75 39.890625 18.8125 39.015625 
Q 14.890625 38.140625 10.796875 36.28125 
z
" id="DejaVuSans-35"/>
     <path d="M 11.71875 12.40625 
L 22.015625 12.40625 
L 22.015625 0 
L 11.71875 0 
z
M 11.71875 51.703125 
L 22.015625 51.703125 
L 22.015625 39.3125 
L 11.71875 39.3125 
z
" id="DejaVuSans-3a"/>
    </defs>
    <g transform="translate(59.55864 46.712575)scale(0.102 -0.102)">
     <use xlink:href="#DejaVuSans-35"/>
     <use x="63.623047" xlink:href="#DejaVuSans-31"/>
     <use x="127.246094" xlink:href="#DejaVuSans-20"/>
     <use x="159.033203" xlink:href="#DejaVuSans-74"/>
     <use x="198.242188" xlink:href="#DejaVuSans-61"/>
     <use x="259.521484" xlink:href="#DejaVuSans-72"/>
     <use x="300.619141" xlink:href="#DejaVuSans-67"/>
     <use x="364.095703" xlink:href="#DejaVuSans-65"/>
     <use x="425.619141" xlink:href="#DejaVuSans-74"/>
     <use x="464.828125" xlink:href="#DejaVuSans-73"/>
     <use x="516.927734" xlink:href="#DejaVuSans-3a"/>
     <use x="550.619141" xlink:href="#DejaVuSans-20"/>
     <use x="582.40625" xlink:href="#DejaVuSans-31"/>
     <use x="646.029297" xlink:href="#DejaVuSans-30"/>
     <use x="709.652344" xlink:href="#DejaVuSans-30"/>
     <use x="773.275391" xlink:href="#DejaVuSans-2e"/>
     <use x="805.0625" xlink:href="#DejaVuSans-2e"/>
     <use x="836.849609" xlink:href="#DejaVuSans-31"/>
     <use x="900.472656" xlink:href="#DejaVuSans-65"/>
     <use x="961.996094" xlink:href="#DejaVuSans-2d"/>
     <use x="998.080078" xlink:href="#DejaVuSans-30"/>
     <use x="1061.703125" xlink:href="#DejaVuSans-38"/>
    </g>
    <!-- 15 instances -->
    <g transform="translate(59.55864 58.134344)scale(0.102 -0.102)">
     <use xlink:href="#DejaVuSans-31"/>
     <use x="63.623047" xlink:href="#DejaVuSans-35"/>
     <use x="127.246094" xlink:href="#DejaVuSans-20"/>
     <use x="159.033203" xlink:href="#DejaVuSans-69"/>
     <use x="186.816406" xlink:href="#DejaVuSans-6e"/>
     <use x="250.195312" xlink:href="#DejaVuSans-73"/>
     <use x="302.294922" xlink:href="#DejaVuSans-74"/>
     <use x="341.503906" xlink:href="#DejaVuSans-61"/>
     <use x="402.783203" xlink:href="#DejaVuSans-6e"/>
     <use x="466.162109" xlink:href="#DejaVuSans-63"/>
     <use x="521.142578" xlink:href="#DejaVuSans-65"/>
     <use x="582.666016" xlink:href="#DejaVuSans-73"/>
    </g>
   </g>
   <g id="text_17">
    <!-- v2.0.778 -->
    <defs>
     <path d="M 8.203125 72.90625 
L 55.078125 72.90625 
L 55.078125 68.703125 
L 28.609375 0 
L 18.3125 0 
L 43.21875 64.59375 
L 8.203125 64.59375 
z
" id="DejaVuSans-37"/>
    </defs>
    <g style="fill:#808080;" transform="translate(206.00825 290.099912)scale(0.1 -0.1)">
     <use xlink:href="#DejaVuSans-76"/>
     <use x="59.179688" xlink:href="#DejaVuSans-32"/>
     <use x="122.802734" xlink:href="#DejaVuSans-2e"/>
     <use x="154.589844" xlink:href="#DejaVuSans-30"/>
     <use x="218.212891" xlink:href="#DejaVuSans-2e"/>
     <use x="250" xlink:href="#DejaVuSans-37"/>
     <use x="313.623047" xlink:href="#DejaVuSans-37"/>
     <use x="377.246094" xlink:href="#DejaVuSans-38"/>
    </g>
   </g>
   <g id="text_18">
    <!-- 118 Ellipsoid Cauchy -->
    <defs>
     <path d="M 64.40625 67.28125 
L 64.40625 56.890625 
Q 59.421875 61.53125 53.78125 63.8125 
Q 48.140625 66.109375 41.796875 66.109375 
Q 29.296875 66.109375 22.65625 58.46875 
Q 16.015625 50.828125 16.015625 36.375 
Q 16.015625 21.96875 22.65625 14.328125 
Q 29.296875 6.6875 41.796875 6.6875 
Q 48.140625 6.6875 53.78125 8.984375 
Q 59.421875 11.28125 64.40625 15.921875 
L 64.40625 5.609375 
Q 59.234375 2.09375 53.4375 0.328125 
Q 47.65625 -1.421875 41.21875 -1.421875 
Q 24.65625 -1.421875 15.125 8.703125 
Q 5.609375 18.84375 5.609375 36.375 
Q 5.609375 53.953125 15.125 64.078125 
Q 24.65625 74.21875 41.21875 74.21875 
Q 47.75 74.21875 53.53125 72.484375 
Q 59.328125 70.75 64.40625 67.28125 
z
" id="DejaVuSans-43"/>
     <path d="M 32.171875 -5.078125 
Q 28.375 -14.84375 24.75 -17.8125 
Q 21.140625 -20.796875 15.09375 -20.796875 
L 7.90625 -20.796875 
L 7.90625 -13.28125 
L 13.1875 -13.28125 
Q 16.890625 -13.28125 18.9375 -11.515625 
Q 21 -9.765625 23.484375 -3.21875 
L 25.09375 0.875 
L 2.984375 54.6875 
L 12.5 54.6875 
L 29.59375 11.921875 
L 46.6875 54.6875 
L 56.203125 54.6875 
z
" id="DejaVuSans-79"/>
    </defs>
    <g transform="translate(123.948875 18.84)scale(0.2 -0.2)">
     <use xlink:href="#DejaVuSans-31"/>
     <use x="63.623047" xlink:href="#DejaVuSans-31"/>
     <use x="127.246094" xlink:href="#DejaVuSans-38"/>
     <use x="190.869141" xlink:href="#DejaVuSans-20"/>
     <use x="222.65625" xlink:href="#DejaVuSans-45"/>
     <use x="285.839844" xlink:href="#DejaVuSans-6c"/>
     <use x="313.623047" xlink:href="#DejaVuSans-6c"/>
     <use x="341.40625" xlink:href="#DejaVuSans-69"/>
     <use x="369.189453" xlink:href="#DejaVuSans-70"/>
     <use x="432.666016" xlink:href="#DejaVuSans-73"/>
     <use x="484.765625" xlink:href="#DejaVuSans-6f"/>
     <use x="545.947266" xlink:href="#DejaVuSans-69"/>
     <use x="573.730469" xlink:href="#DejaVuSans-64"/>
     <use x="637.207031" xlink:href="#DejaVuSans-20"/>
     <use x="668.994141" xlink:href="#DejaVuSans-43"/>
     <use x="738.818359" xlink:href="#DejaVuSans-61"/>
     <use x="800.097656" xlink:href="#DejaVuSans-75"/>
     <use x="863.476562" xlink:href="#DejaVuSans-63"/>
     <use x="918.457031" xlink:href="#DejaVuSans-68"/>
     <use x="981.835938" xlink:href="#DejaVuSans-79"/>
    </g>
   </g>
  </g>
 </g>
 <defs>
  <clipPath id="p0769ae941e">
   <rect height="270.04" width="343.864" x="56.12" y="24.84"/>
  </clipPath>
 </defs>
</svg>
