<?xml version="1.0" encoding="utf-8" standalone="no"?>
<!DOCTYPE svg PUBLIC "-//W3C//DTD SVG 1.1//EN"
  "http://www.w3.org/Graphics/SVG/1.1/DTD/svg11.dtd">
<!-- Created with matplotlib (http://matplotlib.org/) -->
<svg height="345pt" version="1.1" viewBox="0 0 460 345" width="460pt" xmlns="http://www.w3.org/2000/svg" xmlns:xlink="http://www.w3.org/1999/xlink">
 <defs>
  <style type="text/css">
*{stroke-linecap:butt;stroke-linejoin:round;}
  </style>
 </defs>
 <g id="figure_1">
  <g id="patch_1">
   <path d="M 0 345.6 
L 460.8 345.6 
L 460.8 0 
L 0 0 
z
" style="fill:#ffffff;"/>
  </g>
  <g id="axes_1">
   <g id="patch_2">
    <path d="M 56.12 294.88 
L 399.984 294.88 
L 399.984 24.84 
L 56.12 24.84 
z
" style="fill:#ffffff;"/>
   </g>
   <g id="line2d_1">
    <path d="M -1 284.395046 
L 4.578827 284.395046 
L 4.578827 279.152568 
L 38.057951 279.152568 
L 38.057951 273.910091 
L 99.227238 273.910091 
L 99.227238 268.667614 
L 155.93037 268.667614 
L 155.93037 263.425137 
L 205.83673 263.425137 
L 205.83673 258.18266 
L 223.080474 258.18266 
L 223.080474 252.940182 
L 232.788936 252.940182 
L 232.788936 247.697705 
L 242.37987 247.697705 
L 242.37987 242.455228 
L 245.184009 242.455228 
L 245.184009 237.212751 
L 251.906653 237.212751 
L 251.906653 231.970274 
L 255.017599 231.970274 
L 255.017599 226.727797 
L 262.846097 226.727797 
L 262.846097 221.485319 
L 266.289675 221.485319 
L 266.289675 216.242842 
L 268.966767 216.242842 
L 268.966767 211.000365 
L 272.268053 211.000365 
L 272.268053 205.757888 
L 273.484972 205.757888 
L 273.484972 200.515411 
L 274.723494 200.515411 
L 274.723494 195.272933 
L 276.707746 195.272933 
L 276.707746 190.030456 
L 277.530629 190.030456 
L 277.530629 184.787979 
L 278.683684 184.787979 
L 278.683684 179.545502 
L 279.657402 179.545502 
L 279.657402 174.303025 
L 281.829743 174.303025 
L 281.829743 169.060547 
L 284.111081 169.060547 
L 284.111081 163.81807 
L 284.980664 163.81807 
L 284.980664 158.575593 
L 285.730594 158.575593 
L 285.730594 153.333116 
L 286.246364 153.333116 
L 286.246364 148.090639 
L 286.81757 148.090639 
L 286.81757 142.848162 
L 287.651976 142.848162 
L 287.651976 137.605684 
L 292.752533 137.605684 
L 292.752533 132.363207 
L 295.157827 132.363207 
L 295.157827 127.12073 
L 300.03147 127.12073 
L 300.03147 121.878253 
L 304.583522 121.878253 
L 304.583522 116.635776 
L 314.096864 116.635776 
L 314.096864 111.393298 
L 323.653778 111.393298 
L 323.653778 106.150821 
L 323.798894 106.150821 
L 323.798894 100.908344 
L 331.109067 100.908344 
L 331.109067 95.665867 
L 331.276059 95.665867 
L 331.276059 90.42339 
L 333.429677 90.42339 
" style="fill:none;stroke:#f5deb3;stroke-linecap:square;stroke-width:6;"/>
   </g>
   <g id="line2d_2">
    <path d="M 0 0 
" style="fill:none;stroke:#f5deb3;stroke-linecap:square;stroke-width:6;"/>
    <defs>
     <path d="M -0 7.778175 
L 7.778175 0 
L 0 -7.778175 
L -7.778175 -0 
z
" id="m9d6eb60d58" style="stroke:#f5deb3;stroke-linejoin:miter;stroke-width:1.5;"/>
    </defs>
    <g>
     <use style="fill:#f5deb3;stroke:#f5deb3;stroke-linejoin:miter;stroke-width:1.5;" x="0" xlink:href="#m9d6eb60d58" y="0"/>
    </g>
   </g>
   <g id="line2d_3">
    <path d="M 333.429677 90.42339 
L 363.933742 32.86099 
" style="fill:none;stroke:#f5deb3;stroke-linecap:square;stroke-width:6;"/>
    <g>
     <use style="fill:#f5deb3;stroke:#f5deb3;stroke-linejoin:miter;stroke-width:1.5;" x="333.429677" xlink:href="#m9d6eb60d58" y="90.42339"/>
     <use style="fill:#f5deb3;stroke:#f5deb3;stroke-linejoin:miter;stroke-width:1.5;" x="363.933742" xlink:href="#m9d6eb60d58" y="32.86099"/>
    </g>
   </g>
   <g id="matplotlib.axis_1">
    <g id="xtick_1">
     <g id="line2d_4">
      <path clip-path="url(#pdc96ae1f15)" d="M 56.12 294.88 
L 56.12 24.84 
" style="fill:none;stroke:#b0b0b0;stroke-linecap:square;stroke-width:0.8;"/>
     </g>
     <g id="line2d_5">
      <defs>
       <path d="M 0 0 
L 0 3.5 
" id="m7469af2002" style="stroke:#000000;stroke-width:0.8;"/>
      </defs>
      <g>
       <use style="stroke:#000000;stroke-width:0.8;" x="56.12" xlink:href="#m7469af2002" y="294.88"/>
      </g>
     </g>
     <g id="text_1">
      <!-- 0 -->
      <defs>
       <path d="M 31.78125 66.40625 
Q 24.171875 66.40625 20.328125 58.90625 
Q 16.5 51.421875 16.5 36.375 
Q 16.5 21.390625 20.328125 13.890625 
Q 24.171875 6.390625 31.78125 6.390625 
Q 39.453125 6.390625 43.28125 13.890625 
Q 47.125 21.390625 47.125 36.375 
Q 47.125 51.421875 43.28125 58.90625 
Q 39.453125 66.40625 31.78125 66.40625 
z
M 31.78125 74.21875 
Q 44.046875 74.21875 50.515625 64.515625 
Q 56.984375 54.828125 56.984375 36.375 
Q 56.984375 17.96875 50.515625 8.265625 
Q 44.046875 -1.421875 31.78125 -1.421875 
Q 19.53125 -1.421875 13.0625 8.265625 
Q 6.59375 17.96875 6.59375 36.375 
Q 6.59375 54.828125 13.0625 64.515625 
Q 19.53125 74.21875 31.78125 74.21875 
z
" id="DejaVuSans-30"/>
      </defs>
      <g transform="translate(49.7575 317.076875)scale(0.2 -0.2)">
       <use xlink:href="#DejaVuSans-30"/>
      </g>
     </g>
    </g>
    <g id="xtick_2">
     <g id="line2d_6">
      <path clip-path="url(#pdc96ae1f15)" d="M 135.351336 294.88 
L 135.351336 24.84 
" style="fill:none;stroke:#b0b0b0;stroke-linecap:square;stroke-width:0.8;"/>
     </g>
     <g id="line2d_7">
      <g>
       <use style="stroke:#000000;stroke-width:0.8;" x="135.351336" xlink:href="#m7469af2002" y="294.88"/>
      </g>
     </g>
     <g id="text_2">
      <!-- 2 -->
      <defs>
       <path d="M 19.1875 8.296875 
L 53.609375 8.296875 
L 53.609375 0 
L 7.328125 0 
L 7.328125 8.296875 
Q 12.9375 14.109375 22.625 23.890625 
Q 32.328125 33.6875 34.8125 36.53125 
Q 39.546875 41.84375 41.421875 45.53125 
Q 43.3125 49.21875 43.3125 52.78125 
Q 43.3125 58.59375 39.234375 62.25 
Q 35.15625 65.921875 28.609375 65.921875 
Q 23.96875 65.921875 18.8125 64.3125 
Q 13.671875 62.703125 7.8125 59.421875 
L 7.8125 69.390625 
Q 13.765625 71.78125 18.9375 73 
Q 24.125 74.21875 28.421875 74.21875 
Q 39.75 74.21875 46.484375 68.546875 
Q 53.21875 62.890625 53.21875 53.421875 
Q 53.21875 48.921875 51.53125 44.890625 
Q 49.859375 40.875 45.40625 35.40625 
Q 44.1875 33.984375 37.640625 27.21875 
Q 31.109375 20.453125 19.1875 8.296875 
z
" id="DejaVuSans-32"/>
      </defs>
      <g transform="translate(128.988836 317.076875)scale(0.2 -0.2)">
       <use xlink:href="#DejaVuSans-32"/>
      </g>
     </g>
    </g>
    <g id="xtick_3">
     <g id="line2d_8">
      <path clip-path="url(#pdc96ae1f15)" d="M 214.582673 294.88 
L 214.582673 24.84 
" style="fill:none;stroke:#b0b0b0;stroke-linecap:square;stroke-width:0.8;"/>
     </g>
     <g id="line2d_9">
      <g>
       <use style="stroke:#000000;stroke-width:0.8;" x="214.582673" xlink:href="#m7469af2002" y="294.88"/>
      </g>
     </g>
     <g id="text_3">
      <!-- 4 -->
      <defs>
       <path d="M 37.796875 64.3125 
L 12.890625 25.390625 
L 37.796875 25.390625 
z
M 35.203125 72.90625 
L 47.609375 72.90625 
L 47.609375 25.390625 
L 58.015625 25.390625 
L 58.015625 17.1875 
L 47.609375 17.1875 
L 47.609375 0 
L 37.796875 0 
L 37.796875 17.1875 
L 4.890625 17.1875 
L 4.890625 26.703125 
z
" id="DejaVuSans-34"/>
      </defs>
      <g transform="translate(208.220173 317.076875)scale(0.2 -0.2)">
       <use xlink:href="#DejaVuSans-34"/>
      </g>
     </g>
    </g>
    <g id="xtick_4">
     <g id="line2d_10">
      <path clip-path="url(#pdc96ae1f15)" d="M 293.814009 294.88 
L 293.814009 24.84 
" style="fill:none;stroke:#b0b0b0;stroke-linecap:square;stroke-width:0.8;"/>
     </g>
     <g id="line2d_11">
      <g>
       <use style="stroke:#000000;stroke-width:0.8;" x="293.814009" xlink:href="#m7469af2002" y="294.88"/>
      </g>
     </g>
     <g id="text_4">
      <!-- 6 -->
      <defs>
       <path d="M 33.015625 40.375 
Q 26.375 40.375 22.484375 35.828125 
Q 18.609375 31.296875 18.609375 23.390625 
Q 18.609375 15.53125 22.484375 10.953125 
Q 26.375 6.390625 33.015625 6.390625 
Q 39.65625 6.390625 43.53125 10.953125 
Q 47.40625 15.53125 47.40625 23.390625 
Q 47.40625 31.296875 43.53125 35.828125 
Q 39.65625 40.375 33.015625 40.375 
z
M 52.59375 71.296875 
L 52.59375 62.3125 
Q 48.875 64.0625 45.09375 64.984375 
Q 41.3125 65.921875 37.59375 65.921875 
Q 27.828125 65.921875 22.671875 59.328125 
Q 17.53125 52.734375 16.796875 39.40625 
Q 19.671875 43.65625 24.015625 45.921875 
Q 28.375 48.1875 33.59375 48.1875 
Q 44.578125 48.1875 50.953125 41.515625 
Q 57.328125 34.859375 57.328125 23.390625 
Q 57.328125 12.15625 50.6875 5.359375 
Q 44.046875 -1.421875 33.015625 -1.421875 
Q 20.359375 -1.421875 13.671875 8.265625 
Q 6.984375 17.96875 6.984375 36.375 
Q 6.984375 53.65625 15.1875 63.9375 
Q 23.390625 74.21875 37.203125 74.21875 
Q 40.921875 74.21875 44.703125 73.484375 
Q 48.484375 72.75 52.59375 71.296875 
z
" id="DejaVuSans-36"/>
      </defs>
      <g transform="translate(287.451509 317.076875)scale(0.2 -0.2)">
       <use xlink:href="#DejaVuSans-36"/>
      </g>
     </g>
    </g>
    <g id="xtick_5">
     <g id="line2d_12">
      <path clip-path="url(#pdc96ae1f15)" d="M 373.045346 294.88 
L 373.045346 24.84 
" style="fill:none;stroke:#b0b0b0;stroke-linecap:square;stroke-width:0.8;"/>
     </g>
     <g id="line2d_13">
      <g>
       <use style="stroke:#000000;stroke-width:0.8;" x="373.045346" xlink:href="#m7469af2002" y="294.88"/>
      </g>
     </g>
     <g id="text_5">
      <!-- 8 -->
      <defs>
       <path d="M 31.78125 34.625 
Q 24.75 34.625 20.71875 30.859375 
Q 16.703125 27.09375 16.703125 20.515625 
Q 16.703125 13.921875 20.71875 10.15625 
Q 24.75 6.390625 31.78125 6.390625 
Q 38.8125 6.390625 42.859375 10.171875 
Q 46.921875 13.96875 46.921875 20.515625 
Q 46.921875 27.09375 42.890625 30.859375 
Q 38.875 34.625 31.78125 34.625 
z
M 21.921875 38.8125 
Q 15.578125 40.375 12.03125 44.71875 
Q 8.5 49.078125 8.5 55.328125 
Q 8.5 64.0625 14.71875 69.140625 
Q 20.953125 74.21875 31.78125 74.21875 
Q 42.671875 74.21875 48.875 69.140625 
Q 55.078125 64.0625 55.078125 55.328125 
Q 55.078125 49.078125 51.53125 44.71875 
Q 48 40.375 41.703125 38.8125 
Q 48.828125 37.15625 52.796875 32.3125 
Q 56.78125 27.484375 56.78125 20.515625 
Q 56.78125 9.90625 50.3125 4.234375 
Q 43.84375 -1.421875 31.78125 -1.421875 
Q 19.734375 -1.421875 13.25 4.234375 
Q 6.78125 9.90625 6.78125 20.515625 
Q 6.78125 27.484375 10.78125 32.3125 
Q 14.796875 37.15625 21.921875 38.8125 
z
M 18.3125 54.390625 
Q 18.3125 48.734375 21.84375 45.5625 
Q 25.390625 42.390625 31.78125 42.390625 
Q 38.140625 42.390625 41.71875 45.5625 
Q 45.3125 48.734375 45.3125 54.390625 
Q 45.3125 60.0625 41.71875 63.234375 
Q 38.140625 66.40625 31.78125 66.40625 
Q 25.390625 66.40625 21.84375 63.234375 
Q 18.3125 60.0625 18.3125 54.390625 
z
" id="DejaVuSans-38"/>
      </defs>
      <g transform="translate(366.682846 317.076875)scale(0.2 -0.2)">
       <use xlink:href="#DejaVuSans-38"/>
      </g>
     </g>
    </g>
    <g id="text_6">
     <!-- log10(# f-evals / dimension) -->
     <defs>
      <path d="M 9.421875 75.984375 
L 18.40625 75.984375 
L 18.40625 0 
L 9.421875 0 
z
" id="DejaVuSans-6c"/>
      <path d="M 30.609375 48.390625 
Q 23.390625 48.390625 19.1875 42.75 
Q 14.984375 37.109375 14.984375 27.296875 
Q 14.984375 17.484375 19.15625 11.84375 
Q 23.34375 6.203125 30.609375 6.203125 
Q 37.796875 6.203125 41.984375 11.859375 
Q 46.1875 17.53125 46.1875 27.296875 
Q 46.1875 37.015625 41.984375 42.703125 
Q 37.796875 48.390625 30.609375 48.390625 
z
M 30.609375 56 
Q 42.328125 56 49.015625 48.375 
Q 55.71875 40.765625 55.71875 27.296875 
Q 55.71875 13.875 49.015625 6.21875 
Q 42.328125 -1.421875 30.609375 -1.421875 
Q 18.84375 -1.421875 12.171875 6.21875 
Q 5.515625 13.875 5.515625 27.296875 
Q 5.515625 40.765625 12.171875 48.375 
Q 18.84375 56 30.609375 56 
z
" id="DejaVuSans-6f"/>
      <path d="M 45.40625 27.984375 
Q 45.40625 37.75 41.375 43.109375 
Q 37.359375 48.484375 30.078125 48.484375 
Q 22.859375 48.484375 18.828125 43.109375 
Q 14.796875 37.75 14.796875 27.984375 
Q 14.796875 18.265625 18.828125 12.890625 
Q 22.859375 7.515625 30.078125 7.515625 
Q 37.359375 7.515625 41.375 12.890625 
Q 45.40625 18.265625 45.40625 27.984375 
z
M 54.390625 6.78125 
Q 54.390625 -7.171875 48.1875 -13.984375 
Q 42 -20.796875 29.203125 -20.796875 
Q 24.46875 -20.796875 20.265625 -20.09375 
Q 16.0625 -19.390625 12.109375 -17.921875 
L 12.109375 -9.1875 
Q 16.0625 -11.328125 19.921875 -12.34375 
Q 23.78125 -13.375 27.78125 -13.375 
Q 36.625 -13.375 41.015625 -8.765625 
Q 45.40625 -4.15625 45.40625 5.171875 
L 45.40625 9.625 
Q 42.625 4.78125 38.28125 2.390625 
Q 33.9375 0 27.875 0 
Q 17.828125 0 11.671875 7.65625 
Q 5.515625 15.328125 5.515625 27.984375 
Q 5.515625 40.671875 11.671875 48.328125 
Q 17.828125 56 27.875 56 
Q 33.9375 56 38.28125 53.609375 
Q 42.625 51.21875 45.40625 46.390625 
L 45.40625 54.6875 
L 54.390625 54.6875 
z
" id="DejaVuSans-67"/>
      <path d="M 12.40625 8.296875 
L 28.515625 8.296875 
L 28.515625 63.921875 
L 10.984375 60.40625 
L 10.984375 69.390625 
L 28.421875 72.90625 
L 38.28125 72.90625 
L 38.28125 8.296875 
L 54.390625 8.296875 
L 54.390625 0 
L 12.40625 0 
z
" id="DejaVuSans-31"/>
      <path d="M 31 75.875 
Q 24.46875 64.65625 21.28125 53.65625 
Q 18.109375 42.671875 18.109375 31.390625 
Q 18.109375 20.125 21.3125 9.0625 
Q 24.515625 -2 31 -13.1875 
L 23.1875 -13.1875 
Q 15.875 -1.703125 12.234375 9.375 
Q 8.59375 20.453125 8.59375 31.390625 
Q 8.59375 42.28125 12.203125 53.3125 
Q 15.828125 64.359375 23.1875 75.875 
z
" id="DejaVuSans-28"/>
      <path d="M 51.125 44 
L 36.921875 44 
L 32.8125 27.6875 
L 47.125 27.6875 
z
M 43.796875 71.78125 
L 38.71875 51.515625 
L 52.984375 51.515625 
L 58.109375 71.78125 
L 65.921875 71.78125 
L 60.890625 51.515625 
L 76.125 51.515625 
L 76.125 44 
L 58.984375 44 
L 54.984375 27.6875 
L 70.515625 27.6875 
L 70.515625 20.21875 
L 53.078125 20.21875 
L 48 0 
L 40.1875 0 
L 45.21875 20.21875 
L 30.90625 20.21875 
L 25.875 0 
L 18.015625 0 
L 23.09375 20.21875 
L 7.71875 20.21875 
L 7.71875 27.6875 
L 24.90625 27.6875 
L 29 44 
L 13.28125 44 
L 13.28125 51.515625 
L 30.90625 51.515625 
L 35.890625 71.78125 
z
" id="DejaVuSans-23"/>
      <path id="DejaVuSans-20"/>
      <path d="M 37.109375 75.984375 
L 37.109375 68.5 
L 28.515625 68.5 
Q 23.6875 68.5 21.796875 66.546875 
Q 19.921875 64.59375 19.921875 59.515625 
L 19.921875 54.6875 
L 34.71875 54.6875 
L 34.71875 47.703125 
L 19.921875 47.703125 
L 19.921875 0 
L 10.890625 0 
L 10.890625 47.703125 
L 2.296875 47.703125 
L 2.296875 54.6875 
L 10.890625 54.6875 
L 10.890625 58.5 
Q 10.890625 67.625 15.140625 71.796875 
Q 19.390625 75.984375 28.609375 75.984375 
z
" id="DejaVuSans-66"/>
      <path d="M 4.890625 31.390625 
L 31.203125 31.390625 
L 31.203125 23.390625 
L 4.890625 23.390625 
z
" id="DejaVuSans-2d"/>
      <path d="M 56.203125 29.59375 
L 56.203125 25.203125 
L 14.890625 25.203125 
Q 15.484375 15.921875 20.484375 11.0625 
Q 25.484375 6.203125 34.421875 6.203125 
Q 39.59375 6.203125 44.453125 7.46875 
Q 49.3125 8.734375 54.109375 11.28125 
L 54.109375 2.78125 
Q 49.265625 0.734375 44.1875 -0.34375 
Q 39.109375 -1.421875 33.890625 -1.421875 
Q 20.796875 -1.421875 13.15625 6.1875 
Q 5.515625 13.8125 5.515625 26.8125 
Q 5.515625 40.234375 12.765625 48.109375 
Q 20.015625 56 32.328125 56 
Q 43.359375 56 49.78125 48.890625 
Q 56.203125 41.796875 56.203125 29.59375 
z
M 47.21875 32.234375 
Q 47.125 39.59375 43.09375 43.984375 
Q 39.0625 48.390625 32.421875 48.390625 
Q 24.90625 48.390625 20.390625 44.140625 
Q 15.875 39.890625 15.1875 32.171875 
z
" id="DejaVuSans-65"/>
      <path d="M 2.984375 54.6875 
L 12.5 54.6875 
L 29.59375 8.796875 
L 46.6875 54.6875 
L 56.203125 54.6875 
L 35.6875 0 
L 23.484375 0 
z
" id="DejaVuSans-76"/>
      <path d="M 34.28125 27.484375 
Q 23.390625 27.484375 19.1875 25 
Q 14.984375 22.515625 14.984375 16.5 
Q 14.984375 11.71875 18.140625 8.90625 
Q 21.296875 6.109375 26.703125 6.109375 
Q 34.1875 6.109375 38.703125 11.40625 
Q 43.21875 16.703125 43.21875 25.484375 
L 43.21875 27.484375 
z
M 52.203125 31.203125 
L 52.203125 0 
L 43.21875 0 
L 43.21875 8.296875 
Q 40.140625 3.328125 35.546875 0.953125 
Q 30.953125 -1.421875 24.3125 -1.421875 
Q 15.921875 -1.421875 10.953125 3.296875 
Q 6 8.015625 6 15.921875 
Q 6 25.140625 12.171875 29.828125 
Q 18.359375 34.515625 30.609375 34.515625 
L 43.21875 34.515625 
L 43.21875 35.40625 
Q 43.21875 41.609375 39.140625 45 
Q 35.0625 48.390625 27.6875 48.390625 
Q 23 48.390625 18.546875 47.265625 
Q 14.109375 46.140625 10.015625 43.890625 
L 10.015625 52.203125 
Q 14.9375 54.109375 19.578125 55.046875 
Q 24.21875 56 28.609375 56 
Q 40.484375 56 46.34375 49.84375 
Q 52.203125 43.703125 52.203125 31.203125 
z
" id="DejaVuSans-61"/>
      <path d="M 44.28125 53.078125 
L 44.28125 44.578125 
Q 40.484375 46.53125 36.375 47.5 
Q 32.28125 48.484375 27.875 48.484375 
Q 21.1875 48.484375 17.84375 46.4375 
Q 14.5 44.390625 14.5 40.28125 
Q 14.5 37.15625 16.890625 35.375 
Q 19.28125 33.59375 26.515625 31.984375 
L 29.59375 31.296875 
Q 39.15625 29.25 43.1875 25.515625 
Q 47.21875 21.78125 47.21875 15.09375 
Q 47.21875 7.46875 41.1875 3.015625 
Q 35.15625 -1.421875 24.609375 -1.421875 
Q 20.21875 -1.421875 15.453125 -0.5625 
Q 10.6875 0.296875 5.421875 2 
L 5.421875 11.28125 
Q 10.40625 8.6875 15.234375 7.390625 
Q 20.0625 6.109375 24.8125 6.109375 
Q 31.15625 6.109375 34.5625 8.28125 
Q 37.984375 10.453125 37.984375 14.40625 
Q 37.984375 18.0625 35.515625 20.015625 
Q 33.0625 21.96875 24.703125 23.78125 
L 21.578125 24.515625 
Q 13.234375 26.265625 9.515625 29.90625 
Q 5.8125 33.546875 5.8125 39.890625 
Q 5.8125 47.609375 11.28125 51.796875 
Q 16.75 56 26.8125 56 
Q 31.78125 56 36.171875 55.265625 
Q 40.578125 54.546875 44.28125 53.078125 
z
" id="DejaVuSans-73"/>
      <path d="M 25.390625 72.90625 
L 33.6875 72.90625 
L 8.296875 -9.28125 
L 0 -9.28125 
z
" id="DejaVuSans-2f"/>
      <path d="M 45.40625 46.390625 
L 45.40625 75.984375 
L 54.390625 75.984375 
L 54.390625 0 
L 45.40625 0 
L 45.40625 8.203125 
Q 42.578125 3.328125 38.25 0.953125 
Q 33.9375 -1.421875 27.875 -1.421875 
Q 17.96875 -1.421875 11.734375 6.484375 
Q 5.515625 14.40625 5.515625 27.296875 
Q 5.515625 40.1875 11.734375 48.09375 
Q 17.96875 56 27.875 56 
Q 33.9375 56 38.25 53.625 
Q 42.578125 51.265625 45.40625 46.390625 
z
M 14.796875 27.296875 
Q 14.796875 17.390625 18.875 11.75 
Q 22.953125 6.109375 30.078125 6.109375 
Q 37.203125 6.109375 41.296875 11.75 
Q 45.40625 17.390625 45.40625 27.296875 
Q 45.40625 37.203125 41.296875 42.84375 
Q 37.203125 48.484375 30.078125 48.484375 
Q 22.953125 48.484375 18.875 42.84375 
Q 14.796875 37.203125 14.796875 27.296875 
z
" id="DejaVuSans-64"/>
      <path d="M 9.421875 54.6875 
L 18.40625 54.6875 
L 18.40625 0 
L 9.421875 0 
z
M 9.421875 75.984375 
L 18.40625 75.984375 
L 18.40625 64.59375 
L 9.421875 64.59375 
z
" id="DejaVuSans-69"/>
      <path d="M 52 44.1875 
Q 55.375 50.25 60.0625 53.125 
Q 64.75 56 71.09375 56 
Q 79.640625 56 84.28125 50.015625 
Q 88.921875 44.046875 88.921875 33.015625 
L 88.921875 0 
L 79.890625 0 
L 79.890625 32.71875 
Q 79.890625 40.578125 77.09375 44.375 
Q 74.3125 48.1875 68.609375 48.1875 
Q 61.625 48.1875 57.5625 43.546875 
Q 53.515625 38.921875 53.515625 30.90625 
L 53.515625 0 
L 44.484375 0 
L 44.484375 32.71875 
Q 44.484375 40.625 41.703125 44.40625 
Q 38.921875 48.1875 33.109375 48.1875 
Q 26.21875 48.1875 22.15625 43.53125 
Q 18.109375 38.875 18.109375 30.90625 
L 18.109375 0 
L 9.078125 0 
L 9.078125 54.6875 
L 18.109375 54.6875 
L 18.109375 46.1875 
Q 21.1875 51.21875 25.484375 53.609375 
Q 29.78125 56 35.6875 56 
Q 41.65625 56 45.828125 52.96875 
Q 50 49.953125 52 44.1875 
z
" id="DejaVuSans-6d"/>
      <path d="M 54.890625 33.015625 
L 54.890625 0 
L 45.90625 0 
L 45.90625 32.71875 
Q 45.90625 40.484375 42.875 44.328125 
Q 39.84375 48.1875 33.796875 48.1875 
Q 26.515625 48.1875 22.3125 43.546875 
Q 18.109375 38.921875 18.109375 30.90625 
L 18.109375 0 
L 9.078125 0 
L 9.078125 54.6875 
L 18.109375 54.6875 
L 18.109375 46.1875 
Q 21.34375 51.125 25.703125 53.5625 
Q 30.078125 56 35.796875 56 
Q 45.21875 56 50.046875 50.171875 
Q 54.890625 44.34375 54.890625 33.015625 
z
" id="DejaVuSans-6e"/>
      <path d="M 8.015625 75.875 
L 15.828125 75.875 
Q 23.140625 64.359375 26.78125 53.3125 
Q 30.421875 42.28125 30.421875 31.390625 
Q 30.421875 20.453125 26.78125 9.375 
Q 23.140625 -1.703125 15.828125 -13.1875 
L 8.015625 -13.1875 
Q 14.5 -2 17.703125 9.0625 
Q 20.90625 20.125 20.90625 31.390625 
Q 20.90625 42.671875 17.703125 53.65625 
Q 14.5 64.65625 8.015625 75.875 
z
" id="DejaVuSans-29"/>
     </defs>
     <g transform="translate(107.211219 338.153594)scale(0.17 -0.17)">
      <use xlink:href="#DejaVuSans-6c"/>
      <use x="27.783203" xlink:href="#DejaVuSans-6f"/>
      <use x="88.964844" xlink:href="#DejaVuSans-67"/>
      <use x="152.441406" xlink:href="#DejaVuSans-31"/>
      <use x="216.064453" xlink:href="#DejaVuSans-30"/>
      <use x="279.6875" xlink:href="#DejaVuSans-28"/>
      <use x="318.701172" xlink:href="#DejaVuSans-23"/>
      <use x="402.490234" xlink:href="#DejaVuSans-20"/>
      <use x="434.277344" xlink:href="#DejaVuSans-66"/>
      <use x="469.404297" xlink:href="#DejaVuSans-2d"/>
      <use x="505.488281" xlink:href="#DejaVuSans-65"/>
      <use x="567.011719" xlink:href="#DejaVuSans-76"/>
      <use x="626.191406" xlink:href="#DejaVuSans-61"/>
      <use x="687.470703" xlink:href="#DejaVuSans-6c"/>
      <use x="715.253906" xlink:href="#DejaVuSans-73"/>
      <use x="767.353516" xlink:href="#DejaVuSans-20"/>
      <use x="799.140625" xlink:href="#DejaVuSans-2f"/>
      <use x="832.832031" xlink:href="#DejaVuSans-20"/>
      <use x="864.619141" xlink:href="#DejaVuSans-64"/>
      <use x="928.095703" xlink:href="#DejaVuSans-69"/>
      <use x="955.878906" xlink:href="#DejaVuSans-6d"/>
      <use x="1053.291016" xlink:href="#DejaVuSans-65"/>
      <use x="1114.814453" xlink:href="#DejaVuSans-6e"/>
      <use x="1178.193359" xlink:href="#DejaVuSans-73"/>
      <use x="1230.292969" xlink:href="#DejaVuSans-69"/>
      <use x="1258.076172" xlink:href="#DejaVuSans-6f"/>
      <use x="1319.257812" xlink:href="#DejaVuSans-6e"/>
      <use x="1382.636719" xlink:href="#DejaVuSans-29"/>
     </g>
    </g>
   </g>
   <g id="matplotlib.axis_2">
    <g id="ytick_1">
     <g id="line2d_14">
      <path clip-path="url(#pdc96ae1f15)" d="M 56.12 294.88 
L 399.984 294.88 
" style="fill:none;stroke:#b0b0b0;stroke-linecap:square;stroke-width:0.8;"/>
     </g>
     <g id="line2d_15">
      <defs>
       <path d="M 0 0 
L -3.5 0 
" id="m6f99487f7c" style="stroke:#000000;stroke-width:0.8;"/>
      </defs>
      <g>
       <use style="stroke:#000000;stroke-width:0.8;" x="56.12" xlink:href="#m6f99487f7c" y="294.88"/>
      </g>
     </g>
     <g id="text_7">
      <!-- 0.0 -->
      <defs>
       <path d="M 10.6875 12.40625 
L 21 12.40625 
L 21 0 
L 10.6875 0 
z
" id="DejaVuSans-2e"/>
      </defs>
      <g transform="translate(23.675 300.95875)scale(0.16 -0.16)">
       <use xlink:href="#DejaVuSans-30"/>
       <use x="63.623047" xlink:href="#DejaVuSans-2e"/>
       <use x="95.410156" xlink:href="#DejaVuSans-30"/>
      </g>
     </g>
    </g>
    <g id="ytick_2">
     <g id="line2d_16">
      <path clip-path="url(#pdc96ae1f15)" d="M 56.12 241.406733 
L 399.984 241.406733 
" style="fill:none;stroke:#b0b0b0;stroke-linecap:square;stroke-width:0.8;"/>
     </g>
     <g id="line2d_17">
      <g>
       <use style="stroke:#000000;stroke-width:0.8;" x="56.12" xlink:href="#m6f99487f7c" y="241.406733"/>
      </g>
     </g>
     <g id="text_8">
      <!-- 0.2 -->
      <g transform="translate(23.675 247.485483)scale(0.16 -0.16)">
       <use xlink:href="#DejaVuSans-30"/>
       <use x="63.623047" xlink:href="#DejaVuSans-2e"/>
       <use x="95.410156" xlink:href="#DejaVuSans-32"/>
      </g>
     </g>
    </g>
    <g id="ytick_3">
     <g id="line2d_18">
      <path clip-path="url(#pdc96ae1f15)" d="M 56.12 187.933465 
L 399.984 187.933465 
" style="fill:none;stroke:#b0b0b0;stroke-linecap:square;stroke-width:0.8;"/>
     </g>
     <g id="line2d_19">
      <g>
       <use style="stroke:#000000;stroke-width:0.8;" x="56.12" xlink:href="#m6f99487f7c" y="187.933465"/>
      </g>
     </g>
     <g id="text_9">
      <!-- 0.4 -->
      <g transform="translate(23.675 194.012215)scale(0.16 -0.16)">
       <use xlink:href="#DejaVuSans-30"/>
       <use x="63.623047" xlink:href="#DejaVuSans-2e"/>
       <use x="95.410156" xlink:href="#DejaVuSans-34"/>
      </g>
     </g>
    </g>
    <g id="ytick_4">
     <g id="line2d_20">
      <path clip-path="url(#pdc96ae1f15)" d="M 56.12 134.460198 
L 399.984 134.460198 
" style="fill:none;stroke:#b0b0b0;stroke-linecap:square;stroke-width:0.8;"/>
     </g>
     <g id="line2d_21">
      <g>
       <use style="stroke:#000000;stroke-width:0.8;" x="56.12" xlink:href="#m6f99487f7c" y="134.460198"/>
      </g>
     </g>
     <g id="text_10">
      <!-- 0.6 -->
      <g transform="translate(23.675 140.538948)scale(0.16 -0.16)">
       <use xlink:href="#DejaVuSans-30"/>
       <use x="63.623047" xlink:href="#DejaVuSans-2e"/>
       <use x="95.410156" xlink:href="#DejaVuSans-36"/>
      </g>
     </g>
    </g>
    <g id="ytick_5">
     <g id="line2d_22">
      <path clip-path="url(#pdc96ae1f15)" d="M 56.12 80.986931 
L 399.984 80.986931 
" style="fill:none;stroke:#b0b0b0;stroke-linecap:square;stroke-width:0.8;"/>
     </g>
     <g id="line2d_23">
      <g>
       <use style="stroke:#000000;stroke-width:0.8;" x="56.12" xlink:href="#m6f99487f7c" y="80.986931"/>
      </g>
     </g>
     <g id="text_11">
      <!-- 0.8 -->
      <g transform="translate(23.675 87.065681)scale(0.16 -0.16)">
       <use xlink:href="#DejaVuSans-30"/>
       <use x="63.623047" xlink:href="#DejaVuSans-2e"/>
       <use x="95.410156" xlink:href="#DejaVuSans-38"/>
      </g>
     </g>
    </g>
    <g id="ytick_6">
     <g id="line2d_24">
      <path clip-path="url(#pdc96ae1f15)" d="M 56.12 27.513663 
L 399.984 27.513663 
" style="fill:none;stroke:#b0b0b0;stroke-linecap:square;stroke-width:0.8;"/>
     </g>
     <g id="line2d_25">
      <g>
       <use style="stroke:#000000;stroke-width:0.8;" x="56.12" xlink:href="#m6f99487f7c" y="27.513663"/>
      </g>
     </g>
     <g id="text_12">
      <!-- 1.0 -->
      <g transform="translate(23.675 33.592413)scale(0.16 -0.16)">
       <use xlink:href="#DejaVuSans-31"/>
       <use x="63.623047" xlink:href="#DejaVuSans-2e"/>
       <use x="95.410156" xlink:href="#DejaVuSans-30"/>
      </g>
     </g>
    </g>
    <g id="text_13">
     <!-- Fraction of function,target pairs -->
     <defs>
      <path d="M 9.8125 72.90625 
L 51.703125 72.90625 
L 51.703125 64.59375 
L 19.671875 64.59375 
L 19.671875 43.109375 
L 48.578125 43.109375 
L 48.578125 34.8125 
L 19.671875 34.8125 
L 19.671875 0 
L 9.8125 0 
z
" id="DejaVuSans-46"/>
      <path d="M 41.109375 46.296875 
Q 39.59375 47.171875 37.8125 47.578125 
Q 36.03125 48 33.890625 48 
Q 26.265625 48 22.1875 43.046875 
Q 18.109375 38.09375 18.109375 28.8125 
L 18.109375 0 
L 9.078125 0 
L 9.078125 54.6875 
L 18.109375 54.6875 
L 18.109375 46.1875 
Q 20.953125 51.171875 25.484375 53.578125 
Q 30.03125 56 36.53125 56 
Q 37.453125 56 38.578125 55.875 
Q 39.703125 55.765625 41.0625 55.515625 
z
" id="DejaVuSans-72"/>
      <path d="M 48.78125 52.59375 
L 48.78125 44.1875 
Q 44.96875 46.296875 41.140625 47.34375 
Q 37.3125 48.390625 33.40625 48.390625 
Q 24.65625 48.390625 19.8125 42.84375 
Q 14.984375 37.3125 14.984375 27.296875 
Q 14.984375 17.28125 19.8125 11.734375 
Q 24.65625 6.203125 33.40625 6.203125 
Q 37.3125 6.203125 41.140625 7.25 
Q 44.96875 8.296875 48.78125 10.40625 
L 48.78125 2.09375 
Q 45.015625 0.34375 40.984375 -0.53125 
Q 36.96875 -1.421875 32.421875 -1.421875 
Q 20.0625 -1.421875 12.78125 6.34375 
Q 5.515625 14.109375 5.515625 27.296875 
Q 5.515625 40.671875 12.859375 48.328125 
Q 20.21875 56 33.015625 56 
Q 37.15625 56 41.109375 55.140625 
Q 45.0625 54.296875 48.78125 52.59375 
z
" id="DejaVuSans-63"/>
      <path d="M 18.3125 70.21875 
L 18.3125 54.6875 
L 36.8125 54.6875 
L 36.8125 47.703125 
L 18.3125 47.703125 
L 18.3125 18.015625 
Q 18.3125 11.328125 20.140625 9.421875 
Q 21.96875 7.515625 27.59375 7.515625 
L 36.8125 7.515625 
L 36.8125 0 
L 27.59375 0 
Q 17.1875 0 13.234375 3.875 
Q 9.28125 7.765625 9.28125 18.015625 
L 9.28125 47.703125 
L 2.6875 47.703125 
L 2.6875 54.6875 
L 9.28125 54.6875 
L 9.28125 70.21875 
z
" id="DejaVuSans-74"/>
      <path d="M 8.5 21.578125 
L 8.5 54.6875 
L 17.484375 54.6875 
L 17.484375 21.921875 
Q 17.484375 14.15625 20.5 10.265625 
Q 23.53125 6.390625 29.59375 6.390625 
Q 36.859375 6.390625 41.078125 11.03125 
Q 45.3125 15.671875 45.3125 23.6875 
L 45.3125 54.6875 
L 54.296875 54.6875 
L 54.296875 0 
L 45.3125 0 
L 45.3125 8.40625 
Q 42.046875 3.421875 37.71875 1 
Q 33.40625 -1.421875 27.6875 -1.421875 
Q 18.265625 -1.421875 13.375 4.4375 
Q 8.5 10.296875 8.5 21.578125 
z
M 31.109375 56 
z
" id="DejaVuSans-75"/>
      <path d="M 11.71875 12.40625 
L 22.015625 12.40625 
L 22.015625 4 
L 14.015625 -11.625 
L 7.71875 -11.625 
L 11.71875 4 
z
" id="DejaVuSans-2c"/>
      <path d="M 18.109375 8.203125 
L 18.109375 -20.796875 
L 9.078125 -20.796875 
L 9.078125 54.6875 
L 18.109375 54.6875 
L 18.109375 46.390625 
Q 20.953125 51.265625 25.265625 53.625 
Q 29.59375 56 35.59375 56 
Q 45.5625 56 51.78125 48.09375 
Q 58.015625 40.1875 58.015625 27.296875 
Q 58.015625 14.40625 51.78125 6.484375 
Q 45.5625 -1.421875 35.59375 -1.421875 
Q 29.59375 -1.421875 25.265625 0.953125 
Q 20.953125 3.328125 18.109375 8.203125 
z
M 48.6875 27.296875 
Q 48.6875 37.203125 44.609375 42.84375 
Q 40.53125 48.484375 33.40625 48.484375 
Q 26.265625 48.484375 22.1875 42.84375 
Q 18.109375 37.203125 18.109375 27.296875 
Q 18.109375 17.390625 22.1875 11.75 
Q 26.265625 6.109375 33.40625 6.109375 
Q 40.53125 6.109375 44.609375 11.75 
Q 48.6875 17.390625 48.6875 27.296875 
z
" id="DejaVuSans-70"/>
     </defs>
     <g transform="translate(16.139531 294.999375)rotate(-90)scale(0.17 -0.17)">
      <use xlink:href="#DejaVuSans-46"/>
      <use x="57.410156" xlink:href="#DejaVuSans-72"/>
      <use x="98.523438" xlink:href="#DejaVuSans-61"/>
      <use x="159.802734" xlink:href="#DejaVuSans-63"/>
      <use x="214.783203" xlink:href="#DejaVuSans-74"/>
      <use x="253.992188" xlink:href="#DejaVuSans-69"/>
      <use x="281.775391" xlink:href="#DejaVuSans-6f"/>
      <use x="342.957031" xlink:href="#DejaVuSans-6e"/>
      <use x="406.335938" xlink:href="#DejaVuSans-20"/>
      <use x="438.123047" xlink:href="#DejaVuSans-6f"/>
      <use x="499.304688" xlink:href="#DejaVuSans-66"/>
      <use x="534.509766" xlink:href="#DejaVuSans-20"/>
      <use x="566.296875" xlink:href="#DejaVuSans-66"/>
      <use x="601.501953" xlink:href="#DejaVuSans-75"/>
      <use x="664.880859" xlink:href="#DejaVuSans-6e"/>
      <use x="728.259766" xlink:href="#DejaVuSans-63"/>
      <use x="783.240234" xlink:href="#DejaVuSans-74"/>
      <use x="822.449219" xlink:href="#DejaVuSans-69"/>
      <use x="850.232422" xlink:href="#DejaVuSans-6f"/>
      <use x="911.414062" xlink:href="#DejaVuSans-6e"/>
      <use x="974.792969" xlink:href="#DejaVuSans-2c"/>
      <use x="1006.580078" xlink:href="#DejaVuSans-74"/>
      <use x="1045.789062" xlink:href="#DejaVuSans-61"/>
      <use x="1107.068359" xlink:href="#DejaVuSans-72"/>
      <use x="1148.166016" xlink:href="#DejaVuSans-67"/>
      <use x="1211.642578" xlink:href="#DejaVuSans-65"/>
      <use x="1273.166016" xlink:href="#DejaVuSans-74"/>
      <use x="1312.375" xlink:href="#DejaVuSans-20"/>
      <use x="1344.162109" xlink:href="#DejaVuSans-70"/>
      <use x="1407.638672" xlink:href="#DejaVuSans-61"/>
      <use x="1468.917969" xlink:href="#DejaVuSans-69"/>
      <use x="1496.701172" xlink:href="#DejaVuSans-72"/>
      <use x="1537.814453" xlink:href="#DejaVuSans-73"/>
     </g>
    </g>
   </g>
   <g id="line2d_26">
    <defs>
     <path d="M 0 1.5 
C 0.397805 1.5 0.77937 1.341951 1.06066 1.06066 
C 1.341951 0.77937 1.5 0.397805 1.5 0 
C 1.5 -0.397805 1.341951 -0.77937 1.06066 -1.06066 
C 0.77937 -1.341951 0.397805 -1.5 0 -1.5 
C -0.397805 -1.5 -0.77937 -1.341951 -1.06066 -1.06066 
C -1.341951 -0.77937 -1.5 -0.397805 -1.5 0 
C -1.5 0.397805 -1.341951 0.77937 -1.06066 1.06066 
C -0.77937 1.341951 -0.397805 1.5 0 1.5 
z
" id="mb0f25c7cb4" style="stroke:#f5deb3;"/>
    </defs>
    <g>
     <use style="fill:#f5deb3;stroke:#f5deb3;" x="343.811549" xlink:href="#mb0f25c7cb4" y="53.726049"/>
     <use style="fill:#f5deb3;stroke:#f5deb3;" x="343.811549" xlink:href="#mb0f25c7cb4" y="53.726049"/>
    </g>
   </g>
   <g id="line2d_27">
    <g>
     <use style="fill:#f5deb3;stroke:#f5deb3;stroke-linejoin:miter;stroke-width:1.5;" x="155.93037" xlink:href="#m9d6eb60d58" y="263.425137"/>
     <use style="fill:#f5deb3;stroke:#f5deb3;stroke-linejoin:miter;stroke-width:1.5;" x="255.017599" xlink:href="#m9d6eb60d58" y="231.970274"/>
     <use style="fill:#f5deb3;stroke:#f5deb3;stroke-linejoin:miter;stroke-width:1.5;" x="300.03147" xlink:href="#m9d6eb60d58" y="127.12073"/>
     <use style="fill:#f5deb3;stroke:#f5deb3;stroke-linejoin:miter;stroke-width:1.5;" x="331.276059" xlink:href="#m9d6eb60d58" y="90.42339"/>
     <use style="fill:#f5deb3;stroke:#f5deb3;stroke-linejoin:miter;stroke-width:1.5;" x="333.429677" xlink:href="#m9d6eb60d58" y="90.42339"/>
    </g>
   </g>
   <g id="line2d_28">
    <defs>
     <path d="M 0 1.5 
C 0.397805 1.5 0.77937 1.341951 1.06066 1.06066 
C 1.341951 0.77937 1.5 0.397805 1.5 0 
C 1.5 -0.397805 1.341951 -0.77937 1.06066 -1.06066 
C 0.77937 -1.341951 0.397805 -1.5 0 -1.5 
C -0.397805 -1.5 -0.77937 -1.341951 -1.06066 -1.06066 
C -1.341951 -0.77937 -1.5 -0.397805 -1.5 0 
C -1.5 0.397805 -1.341951 0.77937 -1.06066 1.06066 
C -0.77937 1.341951 -0.397805 1.5 0 1.5 
z
" id="m8980ae1e3e" style="stroke:#999999;"/>
    </defs>
    <g>
     <use style="fill:#999999;stroke:#999999;" x="226.981179" xlink:href="#m8980ae1e3e" y="263.425137"/>
     <use style="fill:#999999;stroke:#999999;" x="226.981179" xlink:href="#m8980ae1e3e" y="263.425137"/>
    </g>
   </g>
   <g id="line2d_29">
    <path d="M -1 289.113275 
L 4.578827 289.113275 
L 4.578827 281.249559 
L 11.5548 281.249559 
L 11.5548 278.628321 
L 16.504332 278.628321 
L 16.504332 278.104073 
L 20.343487 278.104073 
L 20.343487 275.482834 
L 23.480305 275.482834 
L 23.480305 273.910091 
L 72.724088 273.910091 
L 72.724088 273.385844 
L 87.718001 273.385844 
L 87.718001 272.861596 
L 93.63379 272.861596 
L 93.63379 271.8131 
L 94.762383 271.8131 
L 94.762383 271.288853 
L 99.121579 271.288853 
L 99.121579 270.764605 
L 99.401908 270.764605 
L 99.401908 270.240357 
L 113.694177 270.240357 
L 113.694177 269.716109 
L 117.24006 269.716109 
L 117.24006 268.667614 
L 156.74693 268.667614 
L 156.74693 268.143366 
L 176.696115 268.143366 
L 176.696115 267.619119 
L 201.858502 267.619119 
L 201.858502 265.522128 
L 206.487719 265.522128 
L 206.487719 264.99788 
L 225.921227 264.99788 
L 225.921227 263.949385 
L 226.981179 263.949385 
L 226.981179 263.425137 
L 333.429677 263.425137 
" style="fill:none;stroke:#999999;stroke-linecap:square;stroke-width:1.5;"/>
   </g>
   <g id="line2d_30"/>
   <g id="line2d_31">
    <path d="M 0 0 
" style="fill:none;stroke:#999999;stroke-linecap:square;stroke-width:1.5;"/>
   </g>
   <g id="line2d_32">
    <path clip-path="url(#pdc96ae1f15)" d="M 258.037496 263.425137 
" style="fill:none;stroke:#999999;stroke-linecap:square;stroke-width:1.5;"/>
    <defs>
     <path d="M -12 12 
L 12 -12 
M -12 -12 
L 12 12 
" id="mac9c88b1a6" style="stroke:#999999;stroke-width:3;"/>
    </defs>
    <g clip-path="url(#pdc96ae1f15)">
     <use style="fill:#999999;stroke:#999999;stroke-width:3;" x="258.037496" xlink:href="#mac9c88b1a6" y="263.425137"/>
    </g>
   </g>
   <g id="line2d_33">
    <g>
     <use style="fill:#999999;stroke:#999999;" x="346.275695" xlink:href="#m8980ae1e3e" y="252.940182"/>
     <use style="fill:#999999;stroke:#999999;" x="346.275695" xlink:href="#m8980ae1e3e" y="252.940182"/>
    </g>
   </g>
   <g id="line2d_34">
    <path d="M -1 286.492036 
L 4.578827 286.492036 
L 4.578827 284.919293 
L 11.5548 284.919293 
L 11.5548 282.298055 
L 16.504332 282.298055 
L 16.504332 281.249559 
L 20.343487 281.249559 
L 20.343487 280.725312 
L 23.480305 280.725312 
L 23.480305 280.201064 
L 26.132446 280.201064 
L 26.132446 279.152568 
L 28.429836 279.152568 
L 28.429836 278.104073 
L 38.057951 278.104073 
L 38.057951 277.055578 
L 41.398379 277.055578 
L 41.398379 276.007082 
L 43.312001 276.007082 
L 43.312001 275.482834 
L 45.033924 275.482834 
L 45.033924 274.958587 
L 49.357755 274.958587 
L 49.357755 274.434339 
L 73.367335 274.434339 
L 73.367335 273.910091 
L 76.661276 273.910091 
L 76.661276 273.385844 
L 81.805215 273.385844 
L 81.805215 272.861596 
L 85.527989 272.861596 
L 85.527989 272.337348 
L 85.912902 272.337348 
L 85.912902 271.8131 
L 87.922418 271.8131 
L 87.922418 270.240357 
L 126.605608 270.240357 
L 126.605608 268.667614 
L 133.851189 268.667614 
L 133.851189 268.143366 
L 144.065882 268.143366 
L 144.065882 267.619119 
L 148.692302 267.619119 
L 148.692302 267.094871 
L 153.021195 267.094871 
L 153.021195 266.570623 
L 153.290145 266.570623 
L 153.290145 265.522128 
L 156.912327 265.522128 
L 156.912327 264.99788 
L 164.330522 264.99788 
L 164.330522 263.949385 
L 166.79234 263.949385 
L 166.79234 263.425137 
L 196.556103 263.425137 
L 196.556103 262.900889 
L 217.258885 262.900889 
L 217.258885 262.376641 
L 217.712894 262.376641 
L 217.712894 261.852394 
L 218.186061 261.852394 
L 218.186061 261.328146 
L 222.250987 261.328146 
L 222.250987 260.803898 
L 236.875771 260.803898 
L 236.875771 260.279651 
L 238.427132 260.279651 
L 238.427132 259.755403 
L 252.226933 259.755403 
L 252.226933 259.231155 
L 261.002042 259.231155 
L 261.002042 258.706907 
L 261.409074 258.706907 
L 261.409074 258.18266 
L 261.518571 258.18266 
L 261.518571 257.658412 
L 285.233265 257.658412 
L 285.233265 257.134164 
L 291.88097 257.134164 
L 291.88097 256.085669 
L 295.848214 256.085669 
L 295.848214 255.561421 
L 300.868767 255.561421 
L 300.868767 255.037173 
L 300.870872 255.037173 
L 300.870872 254.512926 
L 300.872893 254.512926 
L 300.872893 253.988678 
L 306.793499 253.988678 
L 306.793499 253.46443 
L 333.429677 253.46443 
" style="fill:none;stroke:#999999;stroke-linecap:square;stroke-width:1.5;"/>
   </g>
   <g id="line2d_35"/>
   <g id="line2d_36">
    <path d="M 0 0 
" style="fill:none;stroke:#999999;stroke-linecap:square;stroke-width:1.5;"/>
   </g>
   <g id="line2d_37">
    <path clip-path="url(#pdc96ae1f15)" d="M 293.825256 256.085669 
" style="fill:none;stroke:#999999;stroke-linecap:square;stroke-width:1.5;"/>
    <g clip-path="url(#pdc96ae1f15)">
     <use style="fill:#999999;stroke:#999999;stroke-width:3;" x="293.825256" xlink:href="#mac9c88b1a6" y="256.085669"/>
    </g>
   </g>
   <g id="line2d_38">
    <g>
     <use style="fill:#999999;stroke:#999999;" x="186.89939" xlink:href="#m8980ae1e3e" y="268.667614"/>
     <use style="fill:#999999;stroke:#999999;" x="186.89939" xlink:href="#m8980ae1e3e" y="268.667614"/>
    </g>
   </g>
   <g id="line2d_39">
    <path d="M -1 284.919293 
L 4.578827 284.919293 
L 4.578827 282.822302 
L 11.5548 282.822302 
L 11.5548 282.298055 
L 16.504332 282.298055 
L 16.504332 281.249559 
L 23.480305 281.249559 
L 23.480305 280.725312 
L 26.132446 280.725312 
L 26.132446 279.676816 
L 30.456278 279.676816 
L 30.456278 277.579825 
L 32.268991 277.579825 
L 32.268991 276.53133 
L 36.782933 276.53133 
L 36.782933 276.007082 
L 42.381782 276.007082 
L 42.381782 275.482834 
L 45.033924 275.482834 
L 45.033924 273.910091 
L 52.810267 273.910091 
L 52.810267 273.385844 
L 121.177529 273.385844 
L 121.177529 272.861596 
L 126.490813 272.861596 
L 126.490813 272.337348 
L 144.127975 272.337348 
L 144.127975 271.8131 
L 164.348072 271.8131 
L 164.348072 270.240357 
L 176.551581 270.240357 
L 176.551581 269.191862 
L 186.89939 269.191862 
L 186.89939 268.667614 
L 333.429677 268.667614 
" style="fill:none;stroke:#999999;stroke-linecap:square;stroke-width:1.5;"/>
   </g>
   <g id="line2d_40"/>
   <g id="line2d_41">
    <path d="M 0 0 
" style="fill:none;stroke:#999999;stroke-linecap:square;stroke-width:1.5;"/>
   </g>
   <g id="line2d_42">
    <path clip-path="url(#pdc96ae1f15)" d="M 186.892509 269.191862 
" style="fill:none;stroke:#999999;stroke-linecap:square;stroke-width:1.5;"/>
    <g clip-path="url(#pdc96ae1f15)">
     <use style="fill:#999999;stroke:#999999;stroke-width:3;" x="186.892509" xlink:href="#mac9c88b1a6" y="269.191862"/>
    </g>
   </g>
   <g id="line2d_43">
    <g>
     <use style="fill:#999999;stroke:#999999;" x="217.635088" xlink:href="#m8980ae1e3e" y="268.667614"/>
     <use style="fill:#999999;stroke:#999999;" x="217.635088" xlink:href="#m8980ae1e3e" y="268.667614"/>
    </g>
   </g>
   <g id="line2d_44">
    <path d="M -1 283.870798 
L 92.37372 283.870798 
L 92.37372 282.298055 
L 96.202413 282.298055 
L 96.202413 281.249559 
L 106.296589 281.249559 
L 106.296589 279.676816 
L 111.941938 279.676816 
L 111.941938 279.152568 
L 119.140055 279.152568 
L 119.140055 278.628321 
L 120.021998 278.628321 
L 120.021998 278.104073 
L 120.446575 278.104073 
L 120.446575 277.579825 
L 122.425216 277.579825 
L 122.425216 277.055578 
L 130.601366 277.055578 
L 130.601366 276.53133 
L 131.506804 276.53133 
L 131.506804 276.007082 
L 133.581581 276.007082 
L 133.581581 275.482834 
L 134.346161 275.482834 
L 134.346161 274.958587 
L 147.443776 274.958587 
L 147.443776 274.434339 
L 152.414593 274.434339 
L 152.414593 273.385844 
L 166.226996 273.385844 
L 166.226996 272.861596 
L 177.841611 272.861596 
L 177.841611 272.337348 
L 192.908694 272.337348 
L 192.908694 271.8131 
L 193.668609 271.8131 
L 193.668609 270.764605 
L 198.095839 270.764605 
L 198.095839 270.240357 
L 204.168784 270.240357 
L 204.168784 269.716109 
L 206.696792 269.716109 
L 206.696792 269.191862 
L 217.635088 269.191862 
L 217.635088 268.667614 
L 333.429677 268.667614 
" style="fill:none;stroke:#999999;stroke-linecap:square;stroke-width:1.5;"/>
   </g>
   <g id="line2d_45"/>
   <g id="line2d_46">
    <path d="M 0 0 
" style="fill:none;stroke:#999999;stroke-linecap:square;stroke-width:1.5;"/>
   </g>
   <g id="line2d_47">
    <path clip-path="url(#pdc96ae1f15)" d="M 172.656337 272.861596 
" style="fill:none;stroke:#999999;stroke-linecap:square;stroke-width:1.5;"/>
    <g clip-path="url(#pdc96ae1f15)">
     <use style="fill:#999999;stroke:#999999;stroke-width:3;" x="172.656337" xlink:href="#mac9c88b1a6" y="272.861596"/>
    </g>
   </g>
   <g id="line2d_48">
    <g>
     <use style="fill:#999999;stroke:#999999;" x="376.341805" xlink:href="#m8980ae1e3e" y="53.726049"/>
     <use style="fill:#999999;stroke:#999999;" x="376.341805" xlink:href="#m8980ae1e3e" y="53.726049"/>
    </g>
   </g>
   <g id="line2d_49">
    <path d="M -1 280.725312 
L 39.244964 280.725312 
L 39.244964 280.201064 
L 58.524586 280.201064 
L 58.524586 279.676816 
L 59.61157 279.676816 
L 59.61157 278.628321 
L 64.994496 278.628321 
L 64.994496 278.104073 
L 66.232791 278.104073 
L 66.232791 277.055578 
L 69.088543 277.055578 
L 69.088543 276.53133 
L 79.313418 276.53133 
L 79.313418 275.482834 
L 92.057058 275.482834 
L 92.057058 274.958587 
L 92.425936 274.958587 
L 92.425936 272.861596 
L 94.113066 272.861596 
L 94.113066 271.8131 
L 105.943777 271.8131 
L 105.943777 270.764605 
L 133.142202 270.764605 
L 133.142202 270.240357 
L 140.562321 270.240357 
L 140.562321 269.716109 
L 141.610031 269.716109 
L 141.610031 269.191862 
L 142.888679 269.191862 
L 142.888679 268.667614 
L 168.08711 268.667614 
L 168.08711 267.619119 
L 169.135582 267.619119 
L 169.135582 267.094871 
L 176.436258 267.094871 
L 176.436258 266.570623 
L 178.52236 266.570623 
L 178.52236 266.046375 
L 180.666636 266.046375 
L 180.666636 264.99788 
L 181.405919 264.99788 
L 181.405919 263.949385 
L 182.236103 263.949385 
L 182.236103 263.425137 
L 187.37599 263.425137 
L 187.37599 262.900889 
L 199.867326 262.900889 
L 199.867326 262.376641 
L 202.315552 262.376641 
L 202.315552 261.328146 
L 203.240145 261.328146 
L 203.240145 260.803898 
L 203.73434 260.803898 
L 203.73434 260.279651 
L 208.787914 260.279651 
L 208.870901 259.231155 
L 209.728364 259.231155 
L 209.728364 258.706907 
L 210.411288 258.706907 
L 210.411288 258.18266 
L 212.857671 258.18266 
L 212.857671 257.658412 
L 213.571568 257.658412 
L 213.571568 257.134164 
L 215.476946 257.134164 
L 215.476946 256.609917 
L 216.750605 256.609917 
L 216.750605 256.085669 
L 218.150687 256.085669 
L 218.150687 255.561421 
L 219.009078 255.561421 
L 219.009078 255.037173 
L 219.242205 255.037173 
L 219.242205 254.512926 
L 221.440849 254.512926 
L 221.440849 253.988678 
L 223.978509 253.988678 
L 223.998527 252.940182 
L 224.482604 252.940182 
L 224.482604 252.415935 
L 227.571687 252.415935 
L 227.623446 250.843192 
L 229.230641 250.843192 
L 229.267704 249.794696 
L 230.441939 249.794696 
L 230.526752 247.697705 
L 231.713982 247.697705 
L 231.713982 247.173458 
L 231.896489 247.173458 
L 231.896489 246.64921 
L 233.834744 246.64921 
L 233.834744 246.124962 
L 234.310438 246.124962 
L 234.310438 245.076467 
L 235.825598 245.076467 
L 235.825598 244.027971 
L 236.493853 244.027971 
L 236.493853 243.503724 
L 236.756092 243.503724 
L 236.756092 242.979476 
L 238.043735 242.979476 
L 238.043735 242.455228 
L 239.381456 242.455228 
L 239.381456 241.93098 
L 240.434584 241.93098 
L 240.434584 241.406733 
L 240.836266 241.406733 
L 240.836266 240.882485 
L 242.030912 240.882485 
L 242.030912 240.358237 
L 243.316013 240.358237 
L 243.316013 239.83399 
L 247.828491 239.83399 
L 247.828491 239.309742 
L 248.651092 239.309742 
L 248.651092 238.785494 
L 250.697774 238.785494 
L 250.767866 237.212751 
L 251.365838 237.212751 
L 251.365838 236.688503 
L 251.493069 236.688503 
L 251.493069 236.164255 
L 251.609714 236.164255 
L 251.609714 235.640008 
L 252.975597 235.640008 
L 253.084633 234.591512 
L 253.165925 234.591512 
L 253.203235 231.970274 
L 254.522753 231.970274 
L 254.565471 230.921778 
L 254.968265 230.921778 
L 255.011865 228.824787 
L 256.233046 228.824787 
L 256.233046 227.776292 
L 256.729729 227.776292 
L 256.729729 227.252044 
L 257.067254 227.252044 
L 257.067254 226.727797 
L 257.49533 226.727797 
L 257.49533 226.203549 
L 258.875771 226.203549 
L 258.875771 224.630806 
L 259.37491 224.630806 
L 259.37491 224.106558 
L 259.786067 224.106558 
L 259.786067 223.58231 
L 260.430213 223.58231 
L 260.430213 222.533815 
L 260.74654 222.533815 
L 260.74654 221.485319 
L 261.184364 221.485319 
L 261.184364 220.961072 
L 261.638949 220.961072 
L 261.74365 219.388328 
L 261.990992 219.388328 
L 261.990992 218.339833 
L 262.399958 218.339833 
L 262.507475 217.291338 
L 262.586286 217.291338 
L 262.586286 216.76709 
L 262.905076 216.76709 
L 262.905076 216.242842 
L 263.709194 216.242842 
L 263.709194 215.718594 
L 264.454644 215.718594 
L 264.489552 213.097356 
L 265.321035 213.097356 
L 265.404777 211.000365 
L 266.281505 211.000365 
L 266.281505 210.476117 
L 266.627963 210.476117 
L 266.627963 209.95187 
L 267.378481 209.95187 
L 267.378481 208.379126 
L 267.572783 208.379126 
L 267.668231 206.806383 
L 268.48238 206.806383 
L 268.48238 205.757888 
L 269.161421 205.757888 
L 269.161421 205.23364 
L 269.499751 205.23364 
L 269.499751 203.136649 
L 270.388812 203.136649 
L 270.388812 202.612401 
L 270.564479 202.612401 
L 270.636047 201.563906 
L 271.470626 201.563906 
L 271.470626 201.039658 
L 271.725334 201.039658 
L 271.725334 200.515411 
L 271.967886 200.515411 
L 272.061997 198.942667 
L 272.673515 198.942667 
L 272.673604 197.894172 
L 272.873953 197.894172 
L 272.882399 195.272933 
L 273.232871 195.272933 
L 273.232871 194.748686 
L 273.889235 194.748686 
L 273.994334 193.70019 
L 274.350138 193.70019 
L 274.350138 193.175943 
L 274.616491 193.175943 
L 274.616491 192.127447 
L 274.976039 192.127447 
L 274.976039 191.078952 
L 275.528602 191.078952 
L 275.528602 190.030456 
L 275.722014 190.030456 
L 275.722014 189.506209 
L 276.102211 189.506209 
L 276.16842 188.457713 
L 276.593942 188.457713 
L 276.593942 187.933465 
L 276.713545 187.933465 
L 276.777212 186.360722 
L 277.041073 186.360722 
L 277.041073 185.836474 
L 277.273219 185.836474 
L 277.273219 185.312227 
L 277.571226 185.312227 
L 277.571226 184.787979 
L 277.71743 184.787979 
L 277.71743 183.739484 
L 278.22851 183.739484 
L 278.326725 182.16674 
L 278.416831 182.16674 
L 278.416831 181.118245 
L 278.556822 181.118245 
L 278.556822 180.06975 
L 278.71112 180.06975 
L 278.71112 179.021254 
L 279.012471 179.021254 
L 279.012471 178.497006 
L 279.146277 178.497006 
L 279.205366 176.924263 
L 279.443655 176.924263 
L 279.443655 176.400016 
L 279.952151 176.400016 
L 280.033558 175.35152 
L 280.098002 175.35152 
L 280.201371 174.303025 
L 280.264367 174.303025 
L 280.310878 173.254529 
L 280.92036 173.254529 
L 281.017989 172.206034 
L 281.306208 172.206034 
L 281.306208 171.681786 
L 281.492405 171.681786 
L 281.515486 169.584795 
L 281.622578 169.584795 
L 281.622578 169.060547 
L 281.781703 169.060547 
L 281.841175 165.915061 
L 282.024897 165.915061 
L 282.024897 164.866566 
L 282.13872 164.866566 
L 282.13872 164.342318 
L 282.624517 164.342318 
L 282.661579 163.293823 
L 282.740786 163.293823 
L 282.740786 162.769575 
L 282.92582 162.769575 
L 282.92582 162.245327 
L 283.239589 162.245327 
L 283.249476 161.196832 
L 283.52093 161.196832 
L 283.52093 160.672584 
L 283.780572 160.672584 
L 283.780572 159.099841 
L 284.120537 159.099841 
L 284.120537 158.051345 
L 284.554579 158.051345 
L 284.554579 157.527098 
L 284.838439 157.527098 
L 284.905362 155.954354 
L 284.987591 155.954354 
L 284.987591 155.430107 
L 285.380369 155.430107 
L 285.406384 154.381611 
L 285.682609 154.381611 
L 285.682609 153.857364 
L 285.848345 153.857364 
L 285.848345 152.808868 
L 286.092032 152.808868 
L 286.094059 149.663382 
L 286.628636 149.663382 
L 286.672353 148.614886 
L 287.336817 148.614886 
L 287.336817 148.090639 
L 287.611797 148.090639 
L 287.715562 146.517896 
L 288.007976 146.517896 
L 288.110227 145.4694 
L 288.245295 145.4694 
L 288.245295 144.945152 
L 288.761694 144.945152 
L 288.761694 144.420905 
L 288.872908 144.420905 
L 288.872908 142.848162 
L 289.297951 142.848162 
L 289.297951 142.323914 
L 289.411122 142.323914 
L 289.517431 140.226923 
L 289.634503 140.226923 
L 289.699059 139.178427 
L 289.857538 139.178427 
L 289.954255 137.605684 
L 290.126879 137.605684 
L 290.126879 137.081437 
L 290.246381 137.081437 
L 290.246381 136.557189 
L 290.612173 136.557189 
L 290.612173 134.984446 
L 291.624778 134.984446 
L 291.624778 133.93595 
L 291.752833 133.93595 
L 291.752833 133.411703 
L 291.966136 133.411703 
L 292.01304 132.363207 
L 292.374737 132.363207 
L 292.480421 130.790464 
L 292.88967 130.790464 
L 292.88967 130.266216 
L 293.035127 130.266216 
L 293.042203 128.693473 
L 293.272505 128.693473 
L 293.382525 126.596482 
L 293.491945 126.596482 
L 293.549162 125.023739 
L 293.930077 125.023739 
L 293.930077 124.499491 
L 294.310316 124.499491 
L 294.3116 122.926748 
L 294.842483 122.926748 
L 294.842483 121.354005 
L 295.108854 121.354005 
L 295.108854 120.829757 
L 295.49445 120.829757 
L 295.49445 120.30551 
L 295.713946 120.30551 
L 295.713946 119.781262 
L 295.892379 119.781262 
L 295.959846 118.732766 
L 296.329489 118.732766 
L 296.329489 118.208519 
L 297.828868 118.208519 
L 297.828868 117.684271 
L 300.507255 117.684271 
L 300.507255 117.160023 
L 302.215839 117.160023 
L 302.308435 115.58728 
L 302.376112 115.58728 
L 302.376112 114.538785 
L 303.781491 114.538785 
L 303.826826 112.966042 
L 304.652119 112.966042 
L 304.652119 112.441794 
L 306.190644 112.441794 
L 306.190644 111.917546 
L 307.071133 111.917546 
L 307.071133 111.393298 
L 307.44181 111.393298 
L 307.44181 110.869051 
L 307.573011 110.869051 
L 307.573011 110.344803 
L 307.697951 110.344803 
L 307.697951 109.820555 
L 308.384133 109.820555 
L 308.384133 109.296308 
L 308.916031 109.296308 
L 308.916031 108.77206 
L 309.468525 108.77206 
L 309.468525 108.247812 
L 310.589705 108.247812 
L 310.589705 107.723564 
L 311.379468 107.723564 
L 311.379468 107.199317 
L 311.613827 107.199317 
L 311.613827 106.675069 
L 313.251181 106.675069 
L 313.251181 106.150821 
L 313.519494 106.150821 
L 313.519494 105.626573 
L 313.649517 105.626573 
L 313.722499 104.578078 
L 314.065921 104.578078 
L 314.065921 104.05383 
L 314.283058 104.05383 
L 314.283058 103.529583 
L 314.407664 103.529583 
L 314.451374 102.481087 
L 314.653848 102.481087 
L 314.654 101.432592 
L 315.352008 101.432592 
L 315.352008 100.908344 
L 315.52957 100.908344 
L 315.562078 99.859849 
L 315.916494 99.859849 
L 315.916494 99.335601 
L 316.073922 99.335601 
L 316.073922 98.811353 
L 316.356635 98.811353 
L 316.356635 98.287105 
L 316.989954 98.287105 
L 317.077115 96.714362 
L 318.415802 96.714362 
L 318.415802 96.190115 
L 318.669271 96.190115 
L 318.669271 95.665867 
L 319.00761 95.665867 
L 319.073282 94.093124 
L 319.13233 94.093124 
L 319.13233 93.568876 
L 319.649881 93.568876 
L 319.702011 92.520381 
L 320.253646 92.520381 
L 320.290713 91.471885 
L 320.375155 91.471885 
L 320.375155 90.947637 
L 320.569707 90.947637 
L 320.569707 90.42339 
L 320.835266 90.42339 
L 320.835266 89.899142 
L 321.057279 89.899142 
L 321.080791 88.850646 
L 321.207416 88.850646 
L 321.207416 88.326399 
L 321.516304 88.326399 
L 321.516304 87.802151 
L 323.276453 87.802151 
L 323.276453 87.277903 
L 323.932253 87.277903 
L 323.932253 86.753656 
L 324.263806 86.753656 
L 324.373824 85.70516 
L 324.594872 85.70516 
L 324.594872 85.180912 
L 324.89038 85.180912 
L 324.89038 84.656665 
L 325.092269 84.656665 
L 325.092269 84.132417 
L 325.313315 84.132417 
L 325.313315 83.608169 
L 326.72281 83.608169 
L 326.72281 83.083922 
L 326.899758 83.083922 
L 326.899758 82.559674 
L 327.248626 82.559674 
L 327.248626 82.035426 
L 327.600172 82.035426 
L 327.600172 81.511178 
L 327.835329 81.511178 
L 327.835351 80.462683 
L 328.012965 80.462683 
L 328.012965 79.938435 
L 328.528888 79.938435 
L 328.528888 79.414188 
L 328.726477 79.414188 
L 328.726477 78.88994 
L 329.479342 78.88994 
L 329.479342 78.365692 
L 329.663939 78.365692 
L 329.663939 77.841444 
L 329.910192 77.841444 
L 329.910192 77.317197 
L 330.245268 77.317197 
L 330.245268 76.792949 
L 330.694223 76.792949 
L 330.694223 76.268701 
L 331.2505 76.268701 
L 331.2505 75.744454 
L 331.880793 75.744454 
L 331.880793 75.220206 
L 332.335102 75.220206 
L 332.335102 74.695958 
L 332.582919 74.695958 
L 332.582919 74.17171 
L 333.29792 74.17171 
L 333.29792 73.647463 
L 333.429677 73.647463 
L 333.429677 73.647463 
" style="fill:none;stroke:#999999;stroke-linecap:square;stroke-width:1.5;"/>
   </g>
   <g id="line2d_50"/>
   <g id="line2d_51">
    <path d="M 0 0 
" style="fill:none;stroke:#999999;stroke-linecap:square;stroke-width:1.5;"/>
   </g>
   <g id="line2d_52">
    <path clip-path="url(#pdc96ae1f15)" d="M 295.931872 119.257014 
" style="fill:none;stroke:#999999;stroke-linecap:square;stroke-width:1.5;"/>
    <g clip-path="url(#pdc96ae1f15)">
     <use style="fill:#999999;stroke:#999999;stroke-width:3;" x="295.931872" xlink:href="#mac9c88b1a6" y="119.257014"/>
    </g>
   </g>
   <g id="line2d_53">
    <g>
     <use style="fill:#999999;stroke:#999999;" x="277.775813" xlink:href="#m8980ae1e3e" y="263.425137"/>
     <use style="fill:#999999;stroke:#999999;" x="277.775813" xlink:href="#m8980ae1e3e" y="263.425137"/>
    </g>
   </g>
   <g id="line2d_54">
    <path d="M -1 280.201064 
L 60.299856 280.201064 
L 60.299856 279.676816 
L 71.360613 279.676816 
L 71.360613 278.628321 
L 72.055853 278.628321 
L 72.055853 278.104073 
L 128.766593 278.104073 
L 128.766593 277.579825 
L 128.816974 277.579825 
L 128.816974 277.055578 
L 128.954764 277.055578 
L 128.954764 276.53133 
L 128.998375 276.53133 
L 128.998375 276.007082 
L 129.318934 276.007082 
L 129.318934 274.958587 
L 140.540066 274.958587 
L 140.540066 274.434339 
L 140.870908 274.434339 
L 140.870908 273.910091 
L 148.56706 273.910091 
L 148.56706 273.385844 
L 159.549371 273.385844 
L 159.549371 272.861596 
L 168.445842 272.861596 
L 168.445842 272.337348 
L 179.520935 272.337348 
L 179.520935 271.288853 
L 187.818766 271.288853 
L 187.818766 270.764605 
L 197.427568 270.764605 
L 197.427568 270.240357 
L 203.999583 270.240357 
L 203.999583 269.716109 
L 207.171375 269.716109 
L 207.171375 269.191862 
L 214.316487 269.191862 
L 214.316487 268.667614 
L 219.986167 268.667614 
L 219.986167 267.619119 
L 243.497864 267.619119 
L 243.497864 267.094871 
L 246.436479 267.094871 
L 246.436479 266.570623 
L 254.821776 266.570623 
L 254.821776 266.046375 
L 265.572309 266.046375 
L 265.572309 265.522128 
L 267.262989 265.522128 
L 267.262989 264.99788 
L 270.880277 264.99788 
L 270.880277 264.473632 
L 271.520676 264.473632 
L 271.520676 263.949385 
L 277.775813 263.949385 
L 277.775813 263.425137 
L 333.429677 263.425137 
" style="fill:none;stroke:#999999;stroke-linecap:square;stroke-width:1.5;"/>
   </g>
   <g id="line2d_55"/>
   <g id="line2d_56">
    <path d="M 0 0 
" style="fill:none;stroke:#999999;stroke-linecap:square;stroke-width:1.5;"/>
   </g>
   <g id="line2d_57">
    <path clip-path="url(#pdc96ae1f15)" d="M 214.582716 268.667614 
" style="fill:none;stroke:#999999;stroke-linecap:square;stroke-width:1.5;"/>
    <g clip-path="url(#pdc96ae1f15)">
     <use style="fill:#999999;stroke:#999999;stroke-width:3;" x="214.582716" xlink:href="#mac9c88b1a6" y="268.667614"/>
    </g>
   </g>
   <g id="line2d_58">
    <g>
     <use style="fill:#999999;stroke:#999999;" x="219.288402" xlink:href="#m8980ae1e3e" y="268.667614"/>
     <use style="fill:#999999;stroke:#999999;" x="219.288402" xlink:href="#m8980ae1e3e" y="268.667614"/>
    </g>
   </g>
   <g id="line2d_59">
    <path d="M -1 284.395046 
L 11.5548 284.395046 
L 11.5548 283.870798 
L 16.504332 283.870798 
L 16.504332 283.34655 
L 23.480305 283.34655 
L 23.480305 282.822302 
L 30.456278 282.822302 
L 30.456278 282.298055 
L 32.268991 282.298055 
L 32.268991 281.249559 
L 77.550286 281.249559 
L 77.550286 280.725312 
L 82.836878 280.725312 
L 82.836878 279.676816 
L 93.140781 279.676816 
L 93.140781 279.152568 
L 108.065011 279.152568 
L 108.065011 278.628321 
L 142.766124 278.628321 
L 142.766124 277.579825 
L 142.841432 277.579825 
L 142.841432 277.055578 
L 155.056703 277.055578 
L 155.056703 276.53133 
L 155.995274 276.53133 
L 155.995274 276.007082 
L 156.00952 276.007082 
L 156.00952 275.482834 
L 161.949466 275.482834 
L 161.949466 274.958587 
L 162.06002 274.958587 
L 162.06002 274.434339 
L 176.905284 274.434339 
L 176.905284 273.910091 
L 197.00745 273.910091 
L 197.00745 273.385844 
L 199.721329 273.385844 
L 199.721329 272.337348 
L 200.473739 272.337348 
L 200.473739 270.764605 
L 218.004193 270.764605 
L 218.004193 269.716109 
L 219.181371 269.716109 
L 219.181371 269.191862 
L 219.288402 269.191862 
L 219.288402 268.667614 
L 333.429677 268.667614 
" style="fill:none;stroke:#999999;stroke-linecap:square;stroke-width:1.5;"/>
   </g>
   <g id="line2d_60"/>
   <g id="line2d_61">
    <path d="M 0 0 
" style="fill:none;stroke:#999999;stroke-linecap:square;stroke-width:1.5;"/>
   </g>
   <g id="line2d_62">
    <path clip-path="url(#pdc96ae1f15)" d="M 261.904629 268.667614 
" style="fill:none;stroke:#999999;stroke-linecap:square;stroke-width:1.5;"/>
    <g clip-path="url(#pdc96ae1f15)">
     <use style="fill:#999999;stroke:#999999;stroke-width:3;" x="261.904629" xlink:href="#mac9c88b1a6" y="268.667614"/>
    </g>
   </g>
   <g id="line2d_63">
    <g>
     <use style="fill:#999999;stroke:#999999;" x="186.902184" xlink:href="#m8980ae1e3e" y="273.910091"/>
     <use style="fill:#999999;stroke:#999999;" x="186.902184" xlink:href="#m8980ae1e3e" y="273.910091"/>
    </g>
   </g>
   <g id="line2d_64">
    <path d="M -1 285.443541 
L 4.578827 285.443541 
L 4.578827 281.773807 
L 16.504332 281.773807 
L 16.504332 280.725312 
L 26.132446 280.725312 
L 26.132446 279.152568 
L 39.244964 279.152568 
L 39.244964 277.055578 
L 42.381782 277.055578 
L 42.381782 276.53133 
L 80.912543 276.53133 
L 80.912543 274.958587 
L 84.649592 274.958587 
L 84.649592 274.434339 
L 186.902184 274.434339 
L 186.902184 273.910091 
L 333.429677 273.910091 
" style="fill:none;stroke:#999999;stroke-linecap:square;stroke-width:1.5;"/>
   </g>
   <g id="line2d_65"/>
   <g id="line2d_66">
    <path d="M 0 0 
" style="fill:none;stroke:#999999;stroke-linecap:square;stroke-width:1.5;"/>
   </g>
   <g id="line2d_67">
    <path clip-path="url(#pdc96ae1f15)" d="M 186.901109 274.434339 
" style="fill:none;stroke:#999999;stroke-linecap:square;stroke-width:1.5;"/>
    <g clip-path="url(#pdc96ae1f15)">
     <use style="fill:#999999;stroke:#999999;stroke-width:3;" x="186.901109" xlink:href="#mac9c88b1a6" y="274.434339"/>
    </g>
   </g>
   <g id="line2d_68">
    <g>
     <use style="fill:#999999;stroke:#999999;" x="227.378117" xlink:href="#m8980ae1e3e" y="268.667614"/>
     <use style="fill:#999999;stroke:#999999;" x="227.378117" xlink:href="#m8980ae1e3e" y="268.667614"/>
    </g>
   </g>
   <g id="line2d_69">
    <path d="M -1 281.249559 
L 16.504332 281.249559 
L 16.504332 280.725312 
L 39.244964 280.725312 
L 39.244964 280.201064 
L 55.684411 280.201064 
L 55.684411 279.676816 
L 58.146441 279.676816 
L 58.146441 279.152568 
L 59.61157 279.152568 
L 59.61157 278.628321 
L 68.678884 278.628321 
L 68.678884 278.104073 
L 80.184737 278.104073 
L 80.184737 277.055578 
L 82.281835 277.055578 
L 82.281835 276.53133 
L 92.216118 276.53133 
L 92.216118 274.958587 
L 95.519252 274.958587 
L 95.519252 274.434339 
L 96.32754 274.434339 
L 96.32754 273.910091 
L 105.166024 273.910091 
L 105.166024 273.385844 
L 117.750051 273.385844 
L 117.750051 272.861596 
L 117.80977 272.861596 
L 117.80977 272.337348 
L 126.868175 272.337348 
L 126.868175 271.288853 
L 209.445158 271.288853 
L 209.445158 270.764605 
L 214.617435 270.764605 
L 214.617435 270.240357 
L 224.105418 270.240357 
L 224.105418 269.716109 
L 224.308332 269.716109 
L 224.308332 269.191862 
L 227.378117 269.191862 
L 227.378117 268.667614 
L 333.429677 268.667614 
" style="fill:none;stroke:#999999;stroke-linecap:square;stroke-width:1.5;"/>
   </g>
   <g id="line2d_70"/>
   <g id="line2d_71">
    <path d="M 0 0 
" style="fill:none;stroke:#999999;stroke-linecap:square;stroke-width:1.5;"/>
   </g>
   <g id="line2d_72">
    <path clip-path="url(#pdc96ae1f15)" d="M 214.58306 270.764605 
" style="fill:none;stroke:#999999;stroke-linecap:square;stroke-width:1.5;"/>
    <g clip-path="url(#pdc96ae1f15)">
     <use style="fill:#999999;stroke:#999999;stroke-width:3;" x="214.58306" xlink:href="#mac9c88b1a6" y="270.764605"/>
    </g>
   </g>
   <g id="line2d_73">
    <g>
     <use style="fill:#999999;stroke:#999999;" x="328.037973" xlink:href="#m8980ae1e3e" y="263.425137"/>
     <use style="fill:#999999;stroke:#999999;" x="328.037973" xlink:href="#m8980ae1e3e" y="263.425137"/>
    </g>
   </g>
   <g id="line2d_74">
    <path d="M -1 283.870798 
L 48.03365 283.870798 
L 48.03365 283.34655 
L 77.047919 283.34655 
L 77.047919 282.822302 
L 78.860632 282.822302 
L 78.860632 281.773807 
L 91.070521 281.773807 
L 91.070521 281.249559 
L 113.709316 281.249559 
L 113.709316 280.201064 
L 115.760958 280.201064 
L 115.760958 279.676816 
L 116.224729 279.676816 
L 116.224729 279.152568 
L 117.617936 279.152568 
L 117.617936 278.628321 
L 117.952254 278.628321 
L 117.952254 278.104073 
L 118.704183 278.104073 
L 118.704183 277.579825 
L 130.544585 277.579825 
L 130.544585 277.055578 
L 133.215404 277.055578 
L 133.215404 276.53133 
L 134.911335 276.53133 
L 134.911335 276.007082 
L 134.928976 276.007082 
L 134.928976 275.482834 
L 139.361685 275.482834 
L 139.361685 274.958587 
L 154.182417 274.958587 
L 154.182417 274.434339 
L 157.954932 274.434339 
L 157.954932 273.910091 
L 170.172761 273.910091 
L 170.172761 272.337348 
L 174.26422 272.337348 
L 174.26422 270.764605 
L 175.75926 270.764605 
L 175.75926 270.240357 
L 176.968959 270.240357 
L 176.968959 269.716109 
L 181.130669 269.716109 
L 181.130669 269.191862 
L 193.550862 269.191862 
L 193.550862 268.667614 
L 303.027128 268.667614 
L 303.027128 268.143366 
L 311.893701 268.143366 
L 311.893701 267.094871 
L 317.052388 267.094871 
L 317.052388 266.570623 
L 318.948062 266.570623 
L 318.948062 266.046375 
L 322.538148 266.046375 
L 322.538148 265.522128 
L 323.783512 265.522128 
L 323.783512 264.99788 
L 324.235004 264.99788 
L 324.235004 264.473632 
L 326.560798 264.473632 
L 326.560798 263.949385 
L 328.037973 263.949385 
L 328.037973 263.425137 
L 333.429677 263.425137 
" style="fill:none;stroke:#999999;stroke-linecap:square;stroke-width:1.5;"/>
   </g>
   <g id="line2d_75"/>
   <g id="line2d_76">
    <path d="M 0 0 
" style="fill:none;stroke:#999999;stroke-linecap:square;stroke-width:1.5;"/>
   </g>
   <g id="line2d_77">
    <path clip-path="url(#pdc96ae1f15)" d="M 293.814009 268.667614 
" style="fill:none;stroke:#999999;stroke-linecap:square;stroke-width:1.5;"/>
    <g clip-path="url(#pdc96ae1f15)">
     <use style="fill:#999999;stroke:#999999;stroke-width:3;" x="293.814009" xlink:href="#mac9c88b1a6" y="268.667614"/>
    </g>
   </g>
   <g id="line2d_78">
    <g>
     <use style="fill:#999999;stroke:#999999;" x="289.563124" xlink:href="#m8980ae1e3e" y="263.425137"/>
     <use style="fill:#999999;stroke:#999999;" x="289.563124" xlink:href="#m8980ae1e3e" y="263.425137"/>
    </g>
   </g>
   <g id="line2d_79">
    <path d="M -1 285.967789 
L 4.578827 285.967789 
L 4.578827 282.822302 
L 11.5548 282.822302 
L 11.5548 281.773807 
L 16.504332 281.773807 
L 16.504332 280.201064 
L 20.343487 280.201064 
L 20.343487 279.676816 
L 26.132446 279.676816 
L 26.132446 278.628321 
L 28.429836 278.628321 
L 28.429836 277.579825 
L 30.456278 277.579825 
L 30.456278 276.53133 
L 35.405809 276.53133 
L 35.405809 276.007082 
L 36.782933 276.007082 
L 36.782933 275.482834 
L 41.398379 275.482834 
L 41.398379 274.958587 
L 65.992159 274.958587 
L 65.992159 273.910091 
L 77.426063 273.910091 
L 77.426063 272.861596 
L 82.187561 272.861596 
L 82.187561 272.337348 
L 92.216118 272.337348 
L 92.216118 271.8131 
L 94.160267 271.8131 
L 94.160267 270.764605 
L 96.492973 270.764605 
L 96.492973 270.240357 
L 107.661173 270.240357 
L 107.661173 269.716109 
L 115.747522 269.716109 
L 115.747522 269.191862 
L 117.289287 269.191862 
L 117.289287 268.667614 
L 222.792961 268.667614 
L 222.792961 268.143366 
L 224.846157 268.143366 
L 224.846157 267.619119 
L 244.244602 267.619119 
L 244.244602 267.094871 
L 250.586412 267.094871 
L 250.586412 265.522128 
L 256.528884 265.522128 
L 256.528884 264.473632 
L 268.68064 264.473632 
L 268.68064 263.949385 
L 289.563124 263.949385 
L 289.563124 263.425137 
L 333.429677 263.425137 
" style="fill:none;stroke:#999999;stroke-linecap:square;stroke-width:1.5;"/>
   </g>
   <g id="line2d_80"/>
   <g id="line2d_81">
    <path d="M 0 0 
" style="fill:none;stroke:#999999;stroke-linecap:square;stroke-width:1.5;"/>
   </g>
   <g id="line2d_82">
    <path clip-path="url(#pdc96ae1f15)" d="M 293.814009 263.425137 
" style="fill:none;stroke:#999999;stroke-linecap:square;stroke-width:1.5;"/>
    <g clip-path="url(#pdc96ae1f15)">
     <use style="fill:#999999;stroke:#999999;stroke-width:3;" x="293.814009" xlink:href="#mac9c88b1a6" y="263.425137"/>
    </g>
   </g>
   <g id="line2d_83">
    <g>
     <use style="fill:#999999;stroke:#999999;" x="345.138223" xlink:href="#m8980ae1e3e" y="252.940182"/>
     <use style="fill:#999999;stroke:#999999;" x="345.138223" xlink:href="#m8980ae1e3e" y="252.940182"/>
    </g>
   </g>
   <g id="line2d_84">
    <path d="M -1 284.919293 
L 4.578827 284.919293 
L 4.578827 283.34655 
L 11.5548 283.34655 
L 11.5548 280.201064 
L 16.504332 280.201064 
L 16.504332 278.628321 
L 20.343487 278.628321 
L 20.343487 278.104073 
L 23.480305 278.104073 
L 23.480305 276.53133 
L 33.90879 276.53133 
L 33.90879 276.007082 
L 45.033924 276.007082 
L 45.033924 274.958587 
L 49.357755 274.958587 
L 49.357755 274.434339 
L 58.894597 274.434339 
L 58.894597 273.910091 
L 111.874731 273.910091 
L 111.874731 273.385844 
L 113.15576 273.385844 
L 113.15576 272.861596 
L 119.029341 272.861596 
L 119.029341 272.337348 
L 121.803229 272.337348 
L 121.803229 271.288853 
L 124.525452 271.288853 
L 124.525452 270.764605 
L 133.034273 270.764605 
L 133.034273 270.240357 
L 136.446921 270.240357 
L 136.446921 269.716109 
L 142.645506 269.716109 
L 142.645506 268.667614 
L 145.387491 268.667614 
L 145.387491 268.143366 
L 171.777286 268.143366 
L 171.777286 267.619119 
L 173.058923 267.619119 
L 173.058923 267.094871 
L 174.331297 267.094871 
L 174.331297 266.046375 
L 177.313144 266.046375 
L 177.313144 264.99788 
L 202.034577 264.99788 
L 202.034577 264.473632 
L 202.43047 264.473632 
L 202.43047 263.949385 
L 214.99613 263.949385 
L 214.99613 263.425137 
L 228.203412 263.425137 
L 228.203412 262.376641 
L 258.813941 262.376641 
L 258.813941 260.803898 
L 259.704616 260.803898 
L 259.704616 260.279651 
L 260.556128 260.279651 
L 260.556128 259.755403 
L 260.781762 259.755403 
L 260.781762 259.231155 
L 267.114455 259.231155 
L 267.114455 258.706907 
L 275.284032 258.706907 
L 275.284032 258.18266 
L 289.723099 258.18266 
L 289.723099 257.658412 
L 311.093594 257.658412 
L 311.093594 257.134164 
L 311.096875 257.134164 
L 311.096875 256.609917 
L 316.465775 256.609917 
L 316.465775 256.085669 
L 316.474668 256.085669 
L 316.474668 255.561421 
L 316.746123 255.561421 
L 316.746123 255.037173 
L 320.777765 255.037173 
L 320.777765 254.512926 
L 323.859671 254.512926 
L 323.859671 253.988678 
L 329.01491 253.988678 
L 329.01491 253.46443 
L 333.429677 253.46443 
" style="fill:none;stroke:#999999;stroke-linecap:square;stroke-width:1.5;"/>
   </g>
   <g id="line2d_85"/>
   <g id="line2d_86">
    <path d="M 0 0 
" style="fill:none;stroke:#999999;stroke-linecap:square;stroke-width:1.5;"/>
   </g>
   <g id="line2d_87">
    <path clip-path="url(#pdc96ae1f15)" d="M 293.832578 257.658412 
" style="fill:none;stroke:#999999;stroke-linecap:square;stroke-width:1.5;"/>
    <g clip-path="url(#pdc96ae1f15)">
     <use style="fill:#999999;stroke:#999999;stroke-width:3;" x="293.832578" xlink:href="#mac9c88b1a6" y="257.658412"/>
    </g>
   </g>
   <g id="line2d_88">
    <defs>
     <path d="M 0 1.5 
C 0.397805 1.5 0.77937 1.341951 1.06066 1.06066 
C 1.341951 0.77937 1.5 0.397805 1.5 0 
C 1.5 -0.397805 1.341951 -0.77937 1.06066 -1.06066 
C 0.77937 -1.341951 0.397805 -1.5 0 -1.5 
C -0.397805 -1.5 -0.77937 -1.341951 -1.06066 -1.06066 
C -1.341951 -0.77937 -1.5 -0.397805 -1.5 0 
C -1.5 0.397805 -1.341951 0.77937 -1.06066 1.06066 
C -0.77937 1.341951 -0.397805 1.5 0 1.5 
z
" id="m1ea845c817" style="stroke:#ff00ff;"/>
    </defs>
    <g>
     <use style="fill:#ff00ff;stroke:#ff00ff;" x="265.01704" xlink:href="#m1ea845c817" y="263.425137"/>
     <use style="fill:#ff00ff;stroke:#ff00ff;" x="265.01704" xlink:href="#m1ea845c817" y="263.425137"/>
    </g>
   </g>
   <g id="line2d_89">
    <path d="M -1 285.443541 
L 4.578827 285.443541 
L 4.578827 281.249559 
L 11.5548 281.249559 
L 11.5548 280.201064 
L 16.504332 280.201064 
L 16.504332 279.676816 
L 20.343487 279.676816 
L 20.343487 278.628321 
L 23.480305 278.628321 
L 23.480305 278.104073 
L 28.429836 278.104073 
L 28.429836 277.579825 
L 62.512701 277.579825 
L 62.512701 277.055578 
L 83.197203 277.055578 
L 83.197203 276.53133 
L 87.16071 276.53133 
L 87.16071 276.007082 
L 98.214895 276.007082 
L 98.214895 275.482834 
L 105.461817 275.482834 
L 105.461817 273.910091 
L 110.15901 273.910091 
L 110.15901 273.385844 
L 134.273046 273.385844 
L 134.273046 271.8131 
L 137.878908 271.8131 
L 137.878908 270.240357 
L 141.09723 270.240357 
L 141.09723 269.716109 
L 143.191298 269.716109 
L 143.191298 269.191862 
L 149.041313 269.191862 
L 149.041313 268.667614 
L 189.220813 268.667614 
L 189.220813 267.619119 
L 209.38167 267.619119 
L 209.38167 266.570623 
L 217.907817 266.570623 
L 217.907817 266.046375 
L 226.404118 266.046375 
L 226.404118 265.522128 
L 243.971041 265.522128 
L 243.971041 264.99788 
L 246.017228 264.99788 
L 246.017228 264.473632 
L 249.28897 264.473632 
L 249.28897 263.949385 
L 265.01704 263.949385 
L 265.01704 263.425137 
L 333.429677 263.425137 
" style="fill:none;stroke:#ff00ff;stroke-linecap:square;stroke-width:1.5;"/>
   </g>
   <g id="line2d_90">
    <defs>
     <path d="M -0 8.485281 
L 5.091169 0 
L 0 -8.485281 
L -5.091169 -0 
z
" id="mb5a0285723" style="stroke:#ff00ff;stroke-linejoin:miter;stroke-width:1.5;"/>
    </defs>
    <g>
     <use style="fill:none;stroke:#ff00ff;stroke-linejoin:miter;stroke-width:1.5;" x="62.512701" xlink:href="#mb5a0285723" y="277.055578"/>
     <use style="fill:none;stroke:#ff00ff;stroke-linejoin:miter;stroke-width:1.5;" x="149.041313" xlink:href="#mb5a0285723" y="269.191862"/>
     <use style="fill:none;stroke:#ff00ff;stroke-linejoin:miter;stroke-width:1.5;" x="243.971041" xlink:href="#mb5a0285723" y="264.99788"/>
     <use style="fill:none;stroke:#ff00ff;stroke-linejoin:miter;stroke-width:1.5;" x="265.01704" xlink:href="#mb5a0285723" y="263.425137"/>
     <use style="fill:none;stroke:#ff00ff;stroke-linejoin:miter;stroke-width:1.5;" x="265.01704" xlink:href="#mb5a0285723" y="263.425137"/>
     <use style="fill:none;stroke:#ff00ff;stroke-linejoin:miter;stroke-width:1.5;" x="333.429677" xlink:href="#mb5a0285723" y="263.425137"/>
    </g>
   </g>
   <g id="line2d_91">
    <path d="M 0 0 
" style="fill:none;stroke:#ff00ff;stroke-linecap:square;stroke-width:1.5;"/>
    <g>
     <use style="fill:none;stroke:#ff00ff;stroke-linejoin:miter;stroke-width:1.5;" x="0" xlink:href="#mb5a0285723" y="0"/>
    </g>
   </g>
   <g id="line2d_92">
    <path clip-path="url(#pdc96ae1f15)" d="M 214.611896 266.570623 
" style="fill:none;stroke:#ff00ff;stroke-linecap:square;stroke-width:1.5;"/>
    <defs>
     <path d="M -12 12 
L 12 -12 
M -12 -12 
L 12 12 
" id="m1c225790e4" style="stroke:#ff00ff;stroke-width:3;"/>
    </defs>
    <g clip-path="url(#pdc96ae1f15)">
     <use style="fill:#ff00ff;stroke:#ff00ff;stroke-width:3;" x="214.611896" xlink:href="#m1c225790e4" y="266.570623"/>
    </g>
   </g>
   <g id="line2d_93">
    <defs>
     <path d="M 0 1.5 
C 0.397805 1.5 0.77937 1.341951 1.06066 1.06066 
C 1.341951 0.77937 1.5 0.397805 1.5 0 
C 1.5 -0.397805 1.341951 -0.77937 1.06066 -1.06066 
C 0.77937 -1.341951 0.397805 -1.5 0 -1.5 
C -0.397805 -1.5 -0.77937 -1.341951 -1.06066 -1.06066 
C -1.341951 -0.77937 -1.5 -0.397805 -1.5 0 
C -1.5 0.397805 -1.341951 0.77937 -1.06066 1.06066 
C -0.77937 1.341951 -0.397805 1.5 0 1.5 
z
" id="m454a8a75da" style="stroke:#6495ed;"/>
    </defs>
    <g>
     <use style="fill:#6495ed;stroke:#6495ed;" x="226.151505" xlink:href="#m454a8a75da" y="263.425137"/>
     <use style="fill:#6495ed;stroke:#6495ed;" x="226.151505" xlink:href="#m454a8a75da" y="263.425137"/>
    </g>
   </g>
   <g id="line2d_94">
    <path d="M -1 278.628321 
L 4.578827 278.628321 
L 4.578827 276.53133 
L 11.5548 276.53133 
L 11.5548 275.482834 
L 50.587197 275.482834 
L 50.587197 273.910091 
L 54.307286 273.910091 
L 54.307286 271.8131 
L 125.77047 271.8131 
L 125.77047 270.764605 
L 132.910798 270.764605 
L 132.910798 270.240357 
L 136.406515 270.240357 
L 136.406515 268.667614 
L 179.150234 268.667614 
L 179.150234 268.143366 
L 205.271048 268.143366 
L 205.271048 267.094871 
L 207.188637 267.094871 
L 207.188637 265.522128 
L 226.151505 265.522128 
L 226.151505 263.425137 
L 333.429677 263.425137 
" style="fill:none;stroke:#6495ed;stroke-linecap:square;stroke-width:1.5;"/>
   </g>
   <g id="line2d_95">
    <defs>
     <path d="M -0 6 
L 6 -6 
L -6 -6 
z
" id="mb8d6b2c10b" style="stroke:#6495ed;stroke-linejoin:miter;stroke-width:1.5;"/>
    </defs>
    <g>
     <use style="fill:none;stroke:#6495ed;stroke-linejoin:miter;stroke-width:1.5;" x="179.150234" xlink:href="#mb8d6b2c10b" y="268.667614"/>
     <use style="fill:none;stroke:#6495ed;stroke-linejoin:miter;stroke-width:1.5;" x="226.151505" xlink:href="#mb8d6b2c10b" y="263.425137"/>
     <use style="fill:none;stroke:#6495ed;stroke-linejoin:miter;stroke-width:1.5;" x="226.151505" xlink:href="#mb8d6b2c10b" y="263.425137"/>
     <use style="fill:none;stroke:#6495ed;stroke-linejoin:miter;stroke-width:1.5;" x="333.429677" xlink:href="#mb8d6b2c10b" y="263.425137"/>
    </g>
   </g>
   <g id="line2d_96">
    <path d="M 0 0 
" style="fill:none;stroke:#6495ed;stroke-linecap:square;stroke-width:1.5;"/>
    <g>
     <use style="fill:none;stroke:#6495ed;stroke-linejoin:miter;stroke-width:1.5;" x="0" xlink:href="#mb8d6b2c10b" y="0"/>
    </g>
   </g>
   <g id="line2d_97">
    <path clip-path="url(#pdc96ae1f15)" d="M 284.279016 263.425137 
" style="fill:none;stroke:#6495ed;stroke-linecap:square;stroke-width:1.5;"/>
    <defs>
     <path d="M -12 12 
L 12 -12 
M -12 -12 
L 12 12 
" id="me8308ab480" style="stroke:#6495ed;stroke-width:3;"/>
    </defs>
    <g clip-path="url(#pdc96ae1f15)">
     <use style="fill:#6495ed;stroke:#6495ed;stroke-width:3;" x="284.279016" xlink:href="#me8308ab480" y="263.425137"/>
    </g>
   </g>
   <g id="line2d_98">
    <path d="M 333.429677 263.425137 
L 363.933742 289.532673 
" style="fill:none;stroke:#ff00ff;stroke-linecap:square;stroke-width:1.5;"/>
    <g>
     <use style="fill:none;stroke:#ff00ff;stroke-linejoin:miter;stroke-width:1.5;" x="333.429677" xlink:href="#mb5a0285723" y="263.425137"/>
     <use style="fill:none;stroke:#ff00ff;stroke-linejoin:miter;stroke-width:1.5;" x="363.933742" xlink:href="#mb5a0285723" y="289.532673"/>
    </g>
   </g>
   <g id="line2d_99">
    <path d="M 333.429677 263.425137 
L 363.933742 161.196832 
" style="fill:none;stroke:#6495ed;stroke-linecap:square;stroke-width:1.5;"/>
    <g>
     <use style="fill:none;stroke:#6495ed;stroke-linejoin:miter;stroke-width:1.5;" x="333.429677" xlink:href="#mb8d6b2c10b" y="263.425137"/>
     <use style="fill:none;stroke:#6495ed;stroke-linejoin:miter;stroke-width:1.5;" x="363.933742" xlink:href="#mb8d6b2c10b" y="161.196832"/>
    </g>
   </g>
   <g id="line2d_100">
    <path d="M 333.429677 294.88 
L 333.429677 27.513663 
" style="fill:none;stroke:#000000;stroke-linecap:square;stroke-width:1.5;"/>
   </g>
   <g id="patch_3">
    <path d="M 56.12 294.88 
L 56.12 24.84 
" style="fill:none;stroke:#000000;stroke-linecap:square;stroke-linejoin:miter;stroke-width:0.8;"/>
   </g>
   <g id="patch_4">
    <path d="M 399.984 294.88 
L 399.984 24.84 
" style="fill:none;stroke:#000000;stroke-linecap:square;stroke-linejoin:miter;stroke-width:0.8;"/>
   </g>
   <g id="patch_5">
    <path d="M 56.12 294.88 
L 399.984 294.88 
" style="fill:none;stroke:#000000;stroke-linecap:square;stroke-linejoin:miter;stroke-width:0.8;"/>
   </g>
   <g id="patch_6">
    <path d="M 56.12 24.84 
L 399.984 24.84 
" style="fill:none;stroke:#000000;stroke-linecap:square;stroke-linejoin:miter;stroke-width:0.8;"/>
   </g>
   <g id="text_14">
    <!-- SNES scha -->
    <defs>
     <path d="M 53.515625 70.515625 
L 53.515625 60.890625 
Q 47.90625 63.578125 42.921875 64.890625 
Q 37.9375 66.21875 33.296875 66.21875 
Q 25.25 66.21875 20.875 63.09375 
Q 16.5 59.96875 16.5 54.203125 
Q 16.5 49.359375 19.40625 46.890625 
Q 22.3125 44.4375 30.421875 42.921875 
L 36.375 41.703125 
Q 47.40625 39.59375 52.65625 34.296875 
Q 57.90625 29 57.90625 20.125 
Q 57.90625 9.515625 50.796875 4.046875 
Q 43.703125 -1.421875 29.984375 -1.421875 
Q 24.8125 -1.421875 18.96875 -0.25 
Q 13.140625 0.921875 6.890625 3.21875 
L 6.890625 13.375 
Q 12.890625 10.015625 18.65625 8.296875 
Q 24.421875 6.59375 29.984375 6.59375 
Q 38.421875 6.59375 43.015625 9.90625 
Q 47.609375 13.234375 47.609375 19.390625 
Q 47.609375 24.75 44.3125 27.78125 
Q 41.015625 30.8125 33.5 32.328125 
L 27.484375 33.5 
Q 16.453125 35.6875 11.515625 40.375 
Q 6.59375 45.0625 6.59375 53.421875 
Q 6.59375 63.09375 13.40625 68.65625 
Q 20.21875 74.21875 32.171875 74.21875 
Q 37.3125 74.21875 42.625 73.28125 
Q 47.953125 72.359375 53.515625 70.515625 
z
" id="DejaVuSans-53"/>
     <path d="M 9.8125 72.90625 
L 23.09375 72.90625 
L 55.421875 11.921875 
L 55.421875 72.90625 
L 64.984375 72.90625 
L 64.984375 0 
L 51.703125 0 
L 19.390625 60.984375 
L 19.390625 0 
L 9.8125 0 
z
" id="DejaVuSans-4e"/>
     <path d="M 9.8125 72.90625 
L 55.90625 72.90625 
L 55.90625 64.59375 
L 19.671875 64.59375 
L 19.671875 43.015625 
L 54.390625 43.015625 
L 54.390625 34.71875 
L 19.671875 34.71875 
L 19.671875 8.296875 
L 56.78125 8.296875 
L 56.78125 0 
L 9.8125 0 
z
" id="DejaVuSans-45"/>
     <path d="M 54.890625 33.015625 
L 54.890625 0 
L 45.90625 0 
L 45.90625 32.71875 
Q 45.90625 40.484375 42.875 44.328125 
Q 39.84375 48.1875 33.796875 48.1875 
Q 26.515625 48.1875 22.3125 43.546875 
Q 18.109375 38.921875 18.109375 30.90625 
L 18.109375 0 
L 9.078125 0 
L 9.078125 75.984375 
L 18.109375 75.984375 
L 18.109375 46.1875 
Q 21.34375 51.125 25.703125 53.5625 
Q 30.078125 56 35.796875 56 
Q 45.21875 56 50.046875 50.171875 
Q 54.890625 44.34375 54.890625 33.015625 
z
" id="DejaVuSans-68"/>
    </defs>
    <g transform="translate(369.479935 294.223611)scale(0.17 -0.17)">
     <use xlink:href="#DejaVuSans-53"/>
     <use x="63.476562" xlink:href="#DejaVuSans-4e"/>
     <use x="138.28125" xlink:href="#DejaVuSans-45"/>
     <use x="201.464844" xlink:href="#DejaVuSans-53"/>
     <use x="264.941406" xlink:href="#DejaVuSans-20"/>
     <use x="296.728516" xlink:href="#DejaVuSans-73"/>
     <use x="348.828125" xlink:href="#DejaVuSans-63"/>
     <use x="403.808594" xlink:href="#DejaVuSans-68"/>
     <use x="467.1875" xlink:href="#DejaVuSans-61"/>
    </g>
   </g>
   <g id="text_15">
    <!-- xNESas sc -->
    <defs>
     <path d="M 54.890625 54.6875 
L 35.109375 28.078125 
L 55.90625 0 
L 45.3125 0 
L 29.390625 21.484375 
L 13.484375 0 
L 2.875 0 
L 24.125 28.609375 
L 4.6875 54.6875 
L 15.28125 54.6875 
L 29.78125 35.203125 
L 44.28125 54.6875 
z
" id="DejaVuSans-78"/>
    </defs>
    <g transform="translate(369.479935 165.887769)scale(0.17 -0.17)">
     <use xlink:href="#DejaVuSans-78"/>
     <use x="59.179688" xlink:href="#DejaVuSans-4e"/>
     <use x="133.984375" xlink:href="#DejaVuSans-45"/>
     <use x="197.167969" xlink:href="#DejaVuSans-53"/>
     <use x="260.644531" xlink:href="#DejaVuSans-61"/>
     <use x="321.923828" xlink:href="#DejaVuSans-73"/>
     <use x="374.023438" xlink:href="#DejaVuSans-20"/>
     <use x="405.810547" xlink:href="#DejaVuSans-73"/>
     <use x="457.910156" xlink:href="#DejaVuSans-63"/>
    </g>
   </g>
   <g id="text_16">
    <!-- best 2009 -->
    <defs>
     <path d="M 48.6875 27.296875 
Q 48.6875 37.203125 44.609375 42.84375 
Q 40.53125 48.484375 33.40625 48.484375 
Q 26.265625 48.484375 22.1875 42.84375 
Q 18.109375 37.203125 18.109375 27.296875 
Q 18.109375 17.390625 22.1875 11.75 
Q 26.265625 6.109375 33.40625 6.109375 
Q 40.53125 6.109375 44.609375 11.75 
Q 48.6875 17.390625 48.6875 27.296875 
z
M 18.109375 46.390625 
Q 20.953125 51.265625 25.265625 53.625 
Q 29.59375 56 35.59375 56 
Q 45.5625 56 51.78125 48.09375 
Q 58.015625 40.1875 58.015625 27.296875 
Q 58.015625 14.40625 51.78125 6.484375 
Q 45.5625 -1.421875 35.59375 -1.421875 
Q 29.59375 -1.421875 25.265625 0.953125 
Q 20.953125 3.328125 18.109375 8.203125 
L 18.109375 0 
L 9.078125 0 
L 9.078125 75.984375 
L 18.109375 75.984375 
z
" id="DejaVuSans-62"/>
     <path d="M 10.984375 1.515625 
L 10.984375 10.5 
Q 14.703125 8.734375 18.5 7.8125 
Q 22.3125 6.890625 25.984375 6.890625 
Q 35.75 6.890625 40.890625 13.453125 
Q 46.046875 20.015625 46.78125 33.40625 
Q 43.953125 29.203125 39.59375 26.953125 
Q 35.25 24.703125 29.984375 24.703125 
Q 19.046875 24.703125 12.671875 31.3125 
Q 6.296875 37.9375 6.296875 49.421875 
Q 6.296875 60.640625 12.9375 67.421875 
Q 19.578125 74.21875 30.609375 74.21875 
Q 43.265625 74.21875 49.921875 64.515625 
Q 56.59375 54.828125 56.59375 36.375 
Q 56.59375 19.140625 48.40625 8.859375 
Q 40.234375 -1.421875 26.421875 -1.421875 
Q 22.703125 -1.421875 18.890625 -0.6875 
Q 15.09375 0.046875 10.984375 1.515625 
z
M 30.609375 32.421875 
Q 37.25 32.421875 41.125 36.953125 
Q 45.015625 41.5 45.015625 49.421875 
Q 45.015625 57.28125 41.125 61.84375 
Q 37.25 66.40625 30.609375 66.40625 
Q 23.96875 66.40625 20.09375 61.84375 
Q 16.21875 57.28125 16.21875 49.421875 
Q 16.21875 41.5 20.09375 36.953125 
Q 23.96875 32.421875 30.609375 32.421875 
z
" id="DejaVuSans-39"/>
    </defs>
    <g transform="translate(369.479935 37.551928)scale(0.17 -0.17)">
     <use xlink:href="#DejaVuSans-62"/>
     <use x="63.476562" xlink:href="#DejaVuSans-65"/>
     <use x="125" xlink:href="#DejaVuSans-73"/>
     <use x="177.099609" xlink:href="#DejaVuSans-74"/>
     <use x="216.308594" xlink:href="#DejaVuSans-20"/>
     <use x="248.095703" xlink:href="#DejaVuSans-32"/>
     <use x="311.71875" xlink:href="#DejaVuSans-30"/>
     <use x="375.341797" xlink:href="#DejaVuSans-30"/>
     <use x="438.964844" xlink:href="#DejaVuSans-39"/>
    </g>
   </g>
   <g id="text_17">
    <!-- bbob f123, 40-D -->
    <defs>
     <path d="M 40.578125 39.3125 
Q 47.65625 37.796875 51.625 33 
Q 55.609375 28.21875 55.609375 21.1875 
Q 55.609375 10.40625 48.1875 4.484375 
Q 40.765625 -1.421875 27.09375 -1.421875 
Q 22.515625 -1.421875 17.65625 -0.515625 
Q 12.796875 0.390625 7.625 2.203125 
L 7.625 11.71875 
Q 11.71875 9.328125 16.59375 8.109375 
Q 21.484375 6.890625 26.8125 6.890625 
Q 36.078125 6.890625 40.9375 10.546875 
Q 45.796875 14.203125 45.796875 21.1875 
Q 45.796875 27.640625 41.28125 31.265625 
Q 36.765625 34.90625 28.71875 34.90625 
L 20.21875 34.90625 
L 20.21875 43.015625 
L 29.109375 43.015625 
Q 36.375 43.015625 40.234375 45.921875 
Q 44.09375 48.828125 44.09375 54.296875 
Q 44.09375 59.90625 40.109375 62.90625 
Q 36.140625 65.921875 28.71875 65.921875 
Q 24.65625 65.921875 20.015625 65.03125 
Q 15.375 64.15625 9.8125 62.3125 
L 9.8125 71.09375 
Q 15.4375 72.65625 20.34375 73.4375 
Q 25.25 74.21875 29.59375 74.21875 
Q 40.828125 74.21875 47.359375 69.109375 
Q 53.90625 64.015625 53.90625 55.328125 
Q 53.90625 49.265625 50.4375 45.09375 
Q 46.96875 40.921875 40.578125 39.3125 
z
" id="DejaVuSans-33"/>
     <path d="M 19.671875 64.796875 
L 19.671875 8.109375 
L 31.59375 8.109375 
Q 46.6875 8.109375 53.6875 14.9375 
Q 60.6875 21.78125 60.6875 36.53125 
Q 60.6875 51.171875 53.6875 57.984375 
Q 46.6875 64.796875 31.59375 64.796875 
z
M 9.8125 72.90625 
L 30.078125 72.90625 
Q 51.265625 72.90625 61.171875 64.09375 
Q 71.09375 55.28125 71.09375 36.53125 
Q 71.09375 17.671875 61.125 8.828125 
Q 51.171875 0 30.078125 0 
L 9.8125 0 
z
" id="DejaVuSans-44"/>
    </defs>
    <g transform="translate(59.55864 35.290806)scale(0.102 -0.102)">
     <use xlink:href="#DejaVuSans-62"/>
     <use x="63.476562" xlink:href="#DejaVuSans-62"/>
     <use x="126.953125" xlink:href="#DejaVuSans-6f"/>
     <use x="188.134766" xlink:href="#DejaVuSans-62"/>
     <use x="251.611328" xlink:href="#DejaVuSans-20"/>
     <use x="283.398438" xlink:href="#DejaVuSans-66"/>
     <use x="318.603516" xlink:href="#DejaVuSans-31"/>
     <use x="382.226562" xlink:href="#DejaVuSans-32"/>
     <use x="445.849609" xlink:href="#DejaVuSans-33"/>
     <use x="509.472656" xlink:href="#DejaVuSans-2c"/>
     <use x="541.259766" xlink:href="#DejaVuSans-20"/>
     <use x="573.046875" xlink:href="#DejaVuSans-34"/>
     <use x="636.669922" xlink:href="#DejaVuSans-30"/>
     <use x="700.292969" xlink:href="#DejaVuSans-2d"/>
     <use x="736.376953" xlink:href="#DejaVuSans-44"/>
    </g>
    <!-- 51 targets: 100..1e-08 -->
    <defs>
     <path d="M 10.796875 72.90625 
L 49.515625 72.90625 
L 49.515625 64.59375 
L 19.828125 64.59375 
L 19.828125 46.734375 
Q 21.96875 47.46875 24.109375 47.828125 
Q 26.265625 48.1875 28.421875 48.1875 
Q 40.625 48.1875 47.75 41.5 
Q 54.890625 34.8125 54.890625 23.390625 
Q 54.890625 11.625 47.5625 5.09375 
Q 40.234375 -1.421875 26.90625 -1.421875 
Q 22.3125 -1.421875 17.546875 -0.640625 
Q 12.796875 0.140625 7.71875 1.703125 
L 7.71875 11.625 
Q 12.109375 9.234375 16.796875 8.0625 
Q 21.484375 6.890625 26.703125 6.890625 
Q 35.15625 6.890625 40.078125 11.328125 
Q 45.015625 15.765625 45.015625 23.390625 
Q 45.015625 31 40.078125 35.4375 
Q 35.15625 39.890625 26.703125 39.890625 
Q 22.75 39.890625 18.8125 39.015625 
Q 14.890625 38.140625 10.796875 36.28125 
z
" id="DejaVuSans-35"/>
     <path d="M 11.71875 12.40625 
L 22.015625 12.40625 
L 22.015625 0 
L 11.71875 0 
z
M 11.71875 51.703125 
L 22.015625 51.703125 
L 22.015625 39.3125 
L 11.71875 39.3125 
z
" id="DejaVuSans-3a"/>
    </defs>
    <g transform="translate(59.55864 46.712575)scale(0.102 -0.102)">
     <use xlink:href="#DejaVuSans-35"/>
     <use x="63.623047" xlink:href="#DejaVuSans-31"/>
     <use x="127.246094" xlink:href="#DejaVuSans-20"/>
     <use x="159.033203" xlink:href="#DejaVuSans-74"/>
     <use x="198.242188" xlink:href="#DejaVuSans-61"/>
     <use x="259.521484" xlink:href="#DejaVuSans-72"/>
     <use x="300.619141" xlink:href="#DejaVuSans-67"/>
     <use x="364.095703" xlink:href="#DejaVuSans-65"/>
     <use x="425.619141" xlink:href="#DejaVuSans-74"/>
     <use x="464.828125" xlink:href="#DejaVuSans-73"/>
     <use x="516.927734" xlink:href="#DejaVuSans-3a"/>
     <use x="550.619141" xlink:href="#DejaVuSans-20"/>
     <use x="582.40625" xlink:href="#DejaVuSans-31"/>
     <use x="646.029297" xlink:href="#DejaVuSans-30"/>
     <use x="709.652344" xlink:href="#DejaVuSans-30"/>
     <use x="773.275391" xlink:href="#DejaVuSans-2e"/>
     <use x="805.0625" xlink:href="#DejaVuSans-2e"/>
     <use x="836.849609" xlink:href="#DejaVuSans-31"/>
     <use x="900.472656" xlink:href="#DejaVuSans-65"/>
     <use x="961.996094" xlink:href="#DejaVuSans-2d"/>
     <use x="998.080078" xlink:href="#DejaVuSans-30"/>
     <use x="1061.703125" xlink:href="#DejaVuSans-38"/>
    </g>
    <!-- 4, 15 instances -->
    <g transform="translate(59.55864 58.134344)scale(0.102 -0.102)">
     <use xlink:href="#DejaVuSans-34"/>
     <use x="63.623047" xlink:href="#DejaVuSans-2c"/>
     <use x="95.410156" xlink:href="#DejaVuSans-20"/>
     <use x="127.197266" xlink:href="#DejaVuSans-31"/>
     <use x="190.820312" xlink:href="#DejaVuSans-35"/>
     <use x="254.443359" xlink:href="#DejaVuSans-20"/>
     <use x="286.230469" xlink:href="#DejaVuSans-69"/>
     <use x="314.013672" xlink:href="#DejaVuSans-6e"/>
     <use x="377.392578" xlink:href="#DejaVuSans-73"/>
     <use x="429.492188" xlink:href="#DejaVuSans-74"/>
     <use x="468.701172" xlink:href="#DejaVuSans-61"/>
     <use x="529.980469" xlink:href="#DejaVuSans-6e"/>
     <use x="593.359375" xlink:href="#DejaVuSans-63"/>
     <use x="648.339844" xlink:href="#DejaVuSans-65"/>
     <use x="709.863281" xlink:href="#DejaVuSans-73"/>
    </g>
   </g>
   <g id="text_18">
    <!-- v2.0.778 -->
    <defs>
     <path d="M 8.203125 72.90625 
L 55.078125 72.90625 
L 55.078125 68.703125 
L 28.609375 0 
L 18.3125 0 
L 43.21875 64.59375 
L 8.203125 64.59375 
z
" id="DejaVuSans-37"/>
    </defs>
    <g style="fill:#808080;" transform="translate(206.00825 290.099912)scale(0.1 -0.1)">
     <use xlink:href="#DejaVuSans-76"/>
     <use x="59.179688" xlink:href="#DejaVuSans-32"/>
     <use x="122.802734" xlink:href="#DejaVuSans-2e"/>
     <use x="154.589844" xlink:href="#DejaVuSans-30"/>
     <use x="218.212891" xlink:href="#DejaVuSans-2e"/>
     <use x="250" xlink:href="#DejaVuSans-37"/>
     <use x="313.623047" xlink:href="#DejaVuSans-37"/>
     <use x="377.246094" xlink:href="#DejaVuSans-38"/>
    </g>
   </g>
   <g id="text_19">
    <!-- 123 Schaffer F7 unif -->
    <g transform="translate(126.725438 18.84)scale(0.2 -0.2)">
     <use xlink:href="#DejaVuSans-31"/>
     <use x="63.623047" xlink:href="#DejaVuSans-32"/>
     <use x="127.246094" xlink:href="#DejaVuSans-33"/>
     <use x="190.869141" xlink:href="#DejaVuSans-20"/>
     <use x="222.65625" xlink:href="#DejaVuSans-53"/>
     <use x="286.132812" xlink:href="#DejaVuSans-63"/>
     <use x="341.113281" xlink:href="#DejaVuSans-68"/>
     <use x="404.492188" xlink:href="#DejaVuSans-61"/>
     <use x="465.771484" xlink:href="#DejaVuSans-66"/>
     <use x="500.976562" xlink:href="#DejaVuSans-66"/>
     <use x="536.181641" xlink:href="#DejaVuSans-65"/>
     <use x="597.705078" xlink:href="#DejaVuSans-72"/>
     <use x="638.818359" xlink:href="#DejaVuSans-20"/>
     <use x="670.605469" xlink:href="#DejaVuSans-46"/>
     <use x="728.125" xlink:href="#DejaVuSans-37"/>
     <use x="791.748047" xlink:href="#DejaVuSans-20"/>
     <use x="823.535156" xlink:href="#DejaVuSans-75"/>
     <use x="886.914062" xlink:href="#DejaVuSans-6e"/>
     <use x="950.292969" xlink:href="#DejaVuSans-69"/>
     <use x="978.076172" xlink:href="#DejaVuSans-66"/>
    </g>
   </g>
  </g>
 </g>
 <defs>
  <clipPath id="pdc96ae1f15">
   <rect height="270.04" width="343.864" x="56.12" y="24.84"/>
  </clipPath>
 </defs>
</svg>
