<?xml version="1.0" encoding="utf-8" standalone="no"?>
<!DOCTYPE svg PUBLIC "-//W3C//DTD SVG 1.1//EN"
  "http://www.w3.org/Graphics/SVG/1.1/DTD/svg11.dtd">
<svg height="345.6pt" version="1.1" viewBox="0 0 460.8 345.6" width="460.8pt" xmlns="http://www.w3.org/2000/svg" xmlns:xlink="http://www.w3.org/1999/xlink">
 <metadata>
  <rdf:RDF xmlns:cc="http://creativecommons.org/ns#" xmlns:dc="http://purl.org/dc/elements/1.1/" xmlns:rdf="http://www.w3.org/1999/02/22-rdf-syntax-ns#">
   <cc:Work>
    <dc:type rdf:resource="http://purl.org/dc/dcmitype/StillImage"/>
    <dc:date>2022-03-29T11:28:11.638421</dc:date>
    <dc:format>image/svg+xml</dc:format>
    <dc:creator>
     <cc:Agent>
      <dc:title>Matplotlib v3.4.3, https://matplotlib.org/</dc:title>
     </cc:Agent>
    </dc:creator>
   </cc:Work>
  </rdf:RDF>
 </metadata>
 <defs>
  <style type="text/css">*{stroke-linecap:butt;stroke-linejoin:round;}</style>
 </defs>
 <g id="figure_1">
  <g id="patch_1">
   <path d="M 0 345.6 
L 460.8 345.6 
L 460.8 0 
L 0 0 
z
" style="fill:#ffffff;"/>
  </g>
  <g id="axes_1">
   <g id="patch_2">
    <path d="M 57.6 298.944 
L 338.688 298.944 
L 338.688 27.648 
L 57.6 27.648 
z
" style="fill:#ffffff;"/>
   </g>
   <g id="line2d_1">
    <path d="M 38.440992 298.944 
L 38.440992 225.207949 
L 115.077025 225.207949 
L 115.077025 219.941088 
L 120.254726 219.941088 
L 120.254726 209.407366 
L 121.785469 209.407366 
L 121.785469 204.140506 
L 125.23165 204.140506 
L 125.23165 198.873645 
L 162.517456 198.873645 
L 162.517456 193.606784 
L 192.244459 193.606784 
L 192.244459 188.339923 
L 193.683923 188.339923 
L 193.683923 183.073062 
L 193.695789 183.073062 
L 193.695789 177.806202 
L 193.700533 177.806202 
L 193.700533 172.539341 
L 193.719497 172.539341 
L 193.719497 167.27248 
L 193.733706 167.27248 
L 193.733706 162.005619 
L 193.745538 162.005619 
L 193.745538 151.471897 
L 193.750268 151.471897 
L 193.750268 146.205037 
L 193.762089 146.205037 
L 193.762089 135.671315 
L 193.766815 135.671315 
L 193.766815 130.404454 
L 193.790427 130.404454 
L 193.790427 125.137593 
L 193.80222 125.137593 
L 193.80222 114.603872 
L 193.809293 114.603872 
L 193.809293 109.337011 
L 193.814006 109.337011 
L 193.814006 104.07015 
L 193.825784 104.07015 
L 193.825784 98.803289 
L 193.844612 98.803289 
L 193.844612 93.536429 
L 193.868118 93.536429 
L 193.868118 88.269568 
L 193.872815 88.269568 
L 193.872815 83.002707 
L 193.879859 83.002707 
L 193.879859 77.735846 
L 193.891592 77.735846 
L 193.891592 67.202125 
L 193.908006 67.202125 
L 193.908006 56.668403 
L 193.91972 56.668403 
L 193.91972 51.401542 
L 193.961827 51.401542 
L 193.961827 46.134681 
L 193.968835 46.134681 
L 193.968835 40.867821 
L 193.978175 40.867821 
L 193.978175 35.60096 
L 194.003833 35.60096 
L 194.003833 30.334099 
L 338.688 30.334099 
" style="fill:none;stroke:#f5deb3;stroke-linecap:square;stroke-width:4;"/>
   </g>
   <g id="line2d_2">
    <defs>
     <path d="M 0 7.778175 
L 7.778175 0 
L 0 -7.778175 
L -7.778175 0 
z
" id="m91e53141cb" style="stroke:#f5deb3;stroke-linejoin:miter;stroke-width:1.5;"/>
    </defs>
    <g>
     <use style="fill:#f5deb3;stroke:#f5deb3;stroke-linejoin:miter;stroke-width:1.5;" x="162.517456" xlink:href="#m91e53141cb" y="193.606784"/>
     <use style="fill:#f5deb3;stroke:#f5deb3;stroke-linejoin:miter;stroke-width:1.5;" x="193.879859" xlink:href="#m91e53141cb" y="83.002707"/>
     <use style="fill:#f5deb3;stroke:#f5deb3;stroke-linejoin:miter;stroke-width:1.5;" x="194.003833" xlink:href="#m91e53141cb" y="30.334099"/>
     <use style="fill:#f5deb3;stroke:#f5deb3;stroke-linejoin:miter;stroke-width:1.5;" x="194.003833" xlink:href="#m91e53141cb" y="30.334099"/>
     <use style="fill:#f5deb3;stroke:#f5deb3;stroke-linejoin:miter;stroke-width:1.5;" x="338.688" xlink:href="#m91e53141cb" y="30.334099"/>
    </g>
   </g>
   <g id="line2d_3">
    <path style="fill:none;stroke:#f5deb3;stroke-linecap:square;stroke-width:4;"/>
    <g/>
   </g>
   <g id="line2d_4">
    <path d="M 338.688 30.334099 
L 369.60768 35.706297 
" style="fill:none;stroke:#f5deb3;stroke-linecap:square;stroke-width:4;"/>
    <g>
     <use style="fill:#f5deb3;stroke:#f5deb3;stroke-linejoin:miter;stroke-width:1.5;" x="338.688" xlink:href="#m91e53141cb" y="30.334099"/>
     <use style="fill:#f5deb3;stroke:#f5deb3;stroke-linejoin:miter;stroke-width:1.5;" x="369.60768" xlink:href="#m91e53141cb" y="35.706297"/>
    </g>
   </g>
   <g id="matplotlib.axis_1">
    <g id="xtick_1">
     <g id="line2d_5">
      <path clip-path="url(#pbd3a03f190)" d="M 57.6 298.944 
L 57.6 27.648 
" style="fill:none;stroke:#b0b0b0;stroke-linecap:square;stroke-width:0.8;"/>
     </g>
     <g id="line2d_6">
      <defs>
       <path d="M 0 0 
L 0 3.5 
" id="m0fd241f11c" style="stroke:#000000;stroke-width:0.8;"/>
      </defs>
      <g>
       <use style="stroke:#000000;stroke-width:0.8;" x="57.6" xlink:href="#m0fd241f11c" y="298.944"/>
      </g>
     </g>
     <g id="text_1">
      <!-- 0 -->
      <g transform="translate(51.2375 321.140875)scale(0.2 -0.2)">
       <defs>
        <path d="M 2034 4250 
Q 1547 4250 1301 3770 
Q 1056 3291 1056 2328 
Q 1056 1369 1301 889 
Q 1547 409 2034 409 
Q 2525 409 2770 889 
Q 3016 1369 3016 2328 
Q 3016 3291 2770 3770 
Q 2525 4250 2034 4250 
z
M 2034 4750 
Q 2819 4750 3233 4129 
Q 3647 3509 3647 2328 
Q 3647 1150 3233 529 
Q 2819 -91 2034 -91 
Q 1250 -91 836 529 
Q 422 1150 422 2328 
Q 422 3509 836 4129 
Q 1250 4750 2034 4750 
z
" id="DejaVuSans-30" transform="scale(0.015625)"/>
       </defs>
       <use xlink:href="#DejaVuSans-30"/>
      </g>
     </g>
    </g>
    <g id="xtick_2">
     <g id="line2d_7">
      <path clip-path="url(#pbd3a03f190)" d="M 137.910857 298.944 
L 137.910857 27.648 
" style="fill:none;stroke:#b0b0b0;stroke-linecap:square;stroke-width:0.8;"/>
     </g>
     <g id="line2d_8">
      <g>
       <use style="stroke:#000000;stroke-width:0.8;" x="137.910857" xlink:href="#m0fd241f11c" y="298.944"/>
      </g>
     </g>
     <g id="text_2">
      <!-- 2 -->
      <g transform="translate(131.548357 321.140875)scale(0.2 -0.2)">
       <defs>
        <path d="M 1228 531 
L 3431 531 
L 3431 0 
L 469 0 
L 469 531 
Q 828 903 1448 1529 
Q 2069 2156 2228 2338 
Q 2531 2678 2651 2914 
Q 2772 3150 2772 3378 
Q 2772 3750 2511 3984 
Q 2250 4219 1831 4219 
Q 1534 4219 1204 4116 
Q 875 4013 500 3803 
L 500 4441 
Q 881 4594 1212 4672 
Q 1544 4750 1819 4750 
Q 2544 4750 2975 4387 
Q 3406 4025 3406 3419 
Q 3406 3131 3298 2873 
Q 3191 2616 2906 2266 
Q 2828 2175 2409 1742 
Q 1991 1309 1228 531 
z
" id="DejaVuSans-32" transform="scale(0.015625)"/>
       </defs>
       <use xlink:href="#DejaVuSans-32"/>
      </g>
     </g>
    </g>
    <g id="xtick_3">
     <g id="line2d_9">
      <path clip-path="url(#pbd3a03f190)" d="M 218.221714 298.944 
L 218.221714 27.648 
" style="fill:none;stroke:#b0b0b0;stroke-linecap:square;stroke-width:0.8;"/>
     </g>
     <g id="line2d_10">
      <g>
       <use style="stroke:#000000;stroke-width:0.8;" x="218.221714" xlink:href="#m0fd241f11c" y="298.944"/>
      </g>
     </g>
     <g id="text_3">
      <!-- 4 -->
      <g transform="translate(211.859214 321.140875)scale(0.2 -0.2)">
       <defs>
        <path d="M 2419 4116 
L 825 1625 
L 2419 1625 
L 2419 4116 
z
M 2253 4666 
L 3047 4666 
L 3047 1625 
L 3713 1625 
L 3713 1100 
L 3047 1100 
L 3047 0 
L 2419 0 
L 2419 1100 
L 313 1100 
L 313 1709 
L 2253 4666 
z
" id="DejaVuSans-34" transform="scale(0.015625)"/>
       </defs>
       <use xlink:href="#DejaVuSans-34"/>
      </g>
     </g>
    </g>
    <g id="xtick_4">
     <g id="line2d_11">
      <path clip-path="url(#pbd3a03f190)" d="M 298.532571 298.944 
L 298.532571 27.648 
" style="fill:none;stroke:#b0b0b0;stroke-linecap:square;stroke-width:0.8;"/>
     </g>
     <g id="line2d_12">
      <g>
       <use style="stroke:#000000;stroke-width:0.8;" x="298.532571" xlink:href="#m0fd241f11c" y="298.944"/>
      </g>
     </g>
     <g id="text_4">
      <!-- 6 -->
      <g transform="translate(292.170071 321.140875)scale(0.2 -0.2)">
       <defs>
        <path d="M 2113 2584 
Q 1688 2584 1439 2293 
Q 1191 2003 1191 1497 
Q 1191 994 1439 701 
Q 1688 409 2113 409 
Q 2538 409 2786 701 
Q 3034 994 3034 1497 
Q 3034 2003 2786 2293 
Q 2538 2584 2113 2584 
z
M 3366 4563 
L 3366 3988 
Q 3128 4100 2886 4159 
Q 2644 4219 2406 4219 
Q 1781 4219 1451 3797 
Q 1122 3375 1075 2522 
Q 1259 2794 1537 2939 
Q 1816 3084 2150 3084 
Q 2853 3084 3261 2657 
Q 3669 2231 3669 1497 
Q 3669 778 3244 343 
Q 2819 -91 2113 -91 
Q 1303 -91 875 529 
Q 447 1150 447 2328 
Q 447 3434 972 4092 
Q 1497 4750 2381 4750 
Q 2619 4750 2861 4703 
Q 3103 4656 3366 4563 
z
" id="DejaVuSans-36" transform="scale(0.015625)"/>
       </defs>
       <use xlink:href="#DejaVuSans-36"/>
      </g>
     </g>
    </g>
    <g id="xtick_5">
     <g id="line2d_13">
      <path clip-path="url(#pbd3a03f190)" d="M 97.755429 298.944 
L 97.755429 27.648 
" style="fill:none;stroke:#b0b0b0;stroke-linecap:square;stroke-width:0.8;"/>
     </g>
     <g id="line2d_14">
      <defs>
       <path d="M 0 0 
L 0 2 
" id="mda0594270a" style="stroke:#000000;stroke-width:0.6;"/>
      </defs>
      <g>
       <use style="stroke:#000000;stroke-width:0.6;" x="97.755429" xlink:href="#mda0594270a" y="298.944"/>
      </g>
     </g>
    </g>
    <g id="xtick_6">
     <g id="line2d_15">
      <path clip-path="url(#pbd3a03f190)" d="M 178.066286 298.944 
L 178.066286 27.648 
" style="fill:none;stroke:#b0b0b0;stroke-linecap:square;stroke-width:0.8;"/>
     </g>
     <g id="line2d_16">
      <g>
       <use style="stroke:#000000;stroke-width:0.6;" x="178.066286" xlink:href="#mda0594270a" y="298.944"/>
      </g>
     </g>
    </g>
    <g id="xtick_7">
     <g id="line2d_17">
      <path clip-path="url(#pbd3a03f190)" d="M 258.377143 298.944 
L 258.377143 27.648 
" style="fill:none;stroke:#b0b0b0;stroke-linecap:square;stroke-width:0.8;"/>
     </g>
     <g id="line2d_18">
      <g>
       <use style="stroke:#000000;stroke-width:0.6;" x="258.377143" xlink:href="#mda0594270a" y="298.944"/>
      </g>
     </g>
    </g>
    <g id="xtick_8">
     <g id="line2d_19">
      <path clip-path="url(#pbd3a03f190)" d="M 338.688 298.944 
L 338.688 27.648 
" style="fill:none;stroke:#b0b0b0;stroke-linecap:square;stroke-width:0.8;"/>
     </g>
     <g id="line2d_20">
      <g>
       <use style="stroke:#000000;stroke-width:0.6;" x="338.688" xlink:href="#mda0594270a" y="298.944"/>
      </g>
     </g>
    </g>
    <g id="text_5">
     <!-- log10(# f-evals / dimension) -->
     <g transform="translate(77.764078 342.217594)scale(0.17 -0.17)">
      <defs>
       <path d="M 603 4863 
L 1178 4863 
L 1178 0 
L 603 0 
L 603 4863 
z
" id="DejaVuSans-6c" transform="scale(0.015625)"/>
       <path d="M 1959 3097 
Q 1497 3097 1228 2736 
Q 959 2375 959 1747 
Q 959 1119 1226 758 
Q 1494 397 1959 397 
Q 2419 397 2687 759 
Q 2956 1122 2956 1747 
Q 2956 2369 2687 2733 
Q 2419 3097 1959 3097 
z
M 1959 3584 
Q 2709 3584 3137 3096 
Q 3566 2609 3566 1747 
Q 3566 888 3137 398 
Q 2709 -91 1959 -91 
Q 1206 -91 779 398 
Q 353 888 353 1747 
Q 353 2609 779 3096 
Q 1206 3584 1959 3584 
z
" id="DejaVuSans-6f" transform="scale(0.015625)"/>
       <path d="M 2906 1791 
Q 2906 2416 2648 2759 
Q 2391 3103 1925 3103 
Q 1463 3103 1205 2759 
Q 947 2416 947 1791 
Q 947 1169 1205 825 
Q 1463 481 1925 481 
Q 2391 481 2648 825 
Q 2906 1169 2906 1791 
z
M 3481 434 
Q 3481 -459 3084 -895 
Q 2688 -1331 1869 -1331 
Q 1566 -1331 1297 -1286 
Q 1028 -1241 775 -1147 
L 775 -588 
Q 1028 -725 1275 -790 
Q 1522 -856 1778 -856 
Q 2344 -856 2625 -561 
Q 2906 -266 2906 331 
L 2906 616 
Q 2728 306 2450 153 
Q 2172 0 1784 0 
Q 1141 0 747 490 
Q 353 981 353 1791 
Q 353 2603 747 3093 
Q 1141 3584 1784 3584 
Q 2172 3584 2450 3431 
Q 2728 3278 2906 2969 
L 2906 3500 
L 3481 3500 
L 3481 434 
z
" id="DejaVuSans-67" transform="scale(0.015625)"/>
       <path d="M 794 531 
L 1825 531 
L 1825 4091 
L 703 3866 
L 703 4441 
L 1819 4666 
L 2450 4666 
L 2450 531 
L 3481 531 
L 3481 0 
L 794 0 
L 794 531 
z
" id="DejaVuSans-31" transform="scale(0.015625)"/>
       <path d="M 1984 4856 
Q 1566 4138 1362 3434 
Q 1159 2731 1159 2009 
Q 1159 1288 1364 580 
Q 1569 -128 1984 -844 
L 1484 -844 
Q 1016 -109 783 600 
Q 550 1309 550 2009 
Q 550 2706 781 3412 
Q 1013 4119 1484 4856 
L 1984 4856 
z
" id="DejaVuSans-28" transform="scale(0.015625)"/>
       <path d="M 3272 2816 
L 2363 2816 
L 2100 1772 
L 3016 1772 
L 3272 2816 
z
M 2803 4594 
L 2478 3297 
L 3391 3297 
L 3719 4594 
L 4219 4594 
L 3897 3297 
L 4872 3297 
L 4872 2816 
L 3775 2816 
L 3519 1772 
L 4513 1772 
L 4513 1294 
L 3397 1294 
L 3072 0 
L 2572 0 
L 2894 1294 
L 1978 1294 
L 1656 0 
L 1153 0 
L 1478 1294 
L 494 1294 
L 494 1772 
L 1594 1772 
L 1856 2816 
L 850 2816 
L 850 3297 
L 1978 3297 
L 2297 4594 
L 2803 4594 
z
" id="DejaVuSans-23" transform="scale(0.015625)"/>
       <path id="DejaVuSans-20" transform="scale(0.015625)"/>
       <path d="M 2375 4863 
L 2375 4384 
L 1825 4384 
Q 1516 4384 1395 4259 
Q 1275 4134 1275 3809 
L 1275 3500 
L 2222 3500 
L 2222 3053 
L 1275 3053 
L 1275 0 
L 697 0 
L 697 3053 
L 147 3053 
L 147 3500 
L 697 3500 
L 697 3744 
Q 697 4328 969 4595 
Q 1241 4863 1831 4863 
L 2375 4863 
z
" id="DejaVuSans-66" transform="scale(0.015625)"/>
       <path d="M 313 2009 
L 1997 2009 
L 1997 1497 
L 313 1497 
L 313 2009 
z
" id="DejaVuSans-2d" transform="scale(0.015625)"/>
       <path d="M 3597 1894 
L 3597 1613 
L 953 1613 
Q 991 1019 1311 708 
Q 1631 397 2203 397 
Q 2534 397 2845 478 
Q 3156 559 3463 722 
L 3463 178 
Q 3153 47 2828 -22 
Q 2503 -91 2169 -91 
Q 1331 -91 842 396 
Q 353 884 353 1716 
Q 353 2575 817 3079 
Q 1281 3584 2069 3584 
Q 2775 3584 3186 3129 
Q 3597 2675 3597 1894 
z
M 3022 2063 
Q 3016 2534 2758 2815 
Q 2500 3097 2075 3097 
Q 1594 3097 1305 2825 
Q 1016 2553 972 2059 
L 3022 2063 
z
" id="DejaVuSans-65" transform="scale(0.015625)"/>
       <path d="M 191 3500 
L 800 3500 
L 1894 563 
L 2988 3500 
L 3597 3500 
L 2284 0 
L 1503 0 
L 191 3500 
z
" id="DejaVuSans-76" transform="scale(0.015625)"/>
       <path d="M 2194 1759 
Q 1497 1759 1228 1600 
Q 959 1441 959 1056 
Q 959 750 1161 570 
Q 1363 391 1709 391 
Q 2188 391 2477 730 
Q 2766 1069 2766 1631 
L 2766 1759 
L 2194 1759 
z
M 3341 1997 
L 3341 0 
L 2766 0 
L 2766 531 
Q 2569 213 2275 61 
Q 1981 -91 1556 -91 
Q 1019 -91 701 211 
Q 384 513 384 1019 
Q 384 1609 779 1909 
Q 1175 2209 1959 2209 
L 2766 2209 
L 2766 2266 
Q 2766 2663 2505 2880 
Q 2244 3097 1772 3097 
Q 1472 3097 1187 3025 
Q 903 2953 641 2809 
L 641 3341 
Q 956 3463 1253 3523 
Q 1550 3584 1831 3584 
Q 2591 3584 2966 3190 
Q 3341 2797 3341 1997 
z
" id="DejaVuSans-61" transform="scale(0.015625)"/>
       <path d="M 2834 3397 
L 2834 2853 
Q 2591 2978 2328 3040 
Q 2066 3103 1784 3103 
Q 1356 3103 1142 2972 
Q 928 2841 928 2578 
Q 928 2378 1081 2264 
Q 1234 2150 1697 2047 
L 1894 2003 
Q 2506 1872 2764 1633 
Q 3022 1394 3022 966 
Q 3022 478 2636 193 
Q 2250 -91 1575 -91 
Q 1294 -91 989 -36 
Q 684 19 347 128 
L 347 722 
Q 666 556 975 473 
Q 1284 391 1588 391 
Q 1994 391 2212 530 
Q 2431 669 2431 922 
Q 2431 1156 2273 1281 
Q 2116 1406 1581 1522 
L 1381 1569 
Q 847 1681 609 1914 
Q 372 2147 372 2553 
Q 372 3047 722 3315 
Q 1072 3584 1716 3584 
Q 2034 3584 2315 3537 
Q 2597 3491 2834 3397 
z
" id="DejaVuSans-73" transform="scale(0.015625)"/>
       <path d="M 1625 4666 
L 2156 4666 
L 531 -594 
L 0 -594 
L 1625 4666 
z
" id="DejaVuSans-2f" transform="scale(0.015625)"/>
       <path d="M 2906 2969 
L 2906 4863 
L 3481 4863 
L 3481 0 
L 2906 0 
L 2906 525 
Q 2725 213 2448 61 
Q 2172 -91 1784 -91 
Q 1150 -91 751 415 
Q 353 922 353 1747 
Q 353 2572 751 3078 
Q 1150 3584 1784 3584 
Q 2172 3584 2448 3432 
Q 2725 3281 2906 2969 
z
M 947 1747 
Q 947 1113 1208 752 
Q 1469 391 1925 391 
Q 2381 391 2643 752 
Q 2906 1113 2906 1747 
Q 2906 2381 2643 2742 
Q 2381 3103 1925 3103 
Q 1469 3103 1208 2742 
Q 947 2381 947 1747 
z
" id="DejaVuSans-64" transform="scale(0.015625)"/>
       <path d="M 603 3500 
L 1178 3500 
L 1178 0 
L 603 0 
L 603 3500 
z
M 603 4863 
L 1178 4863 
L 1178 4134 
L 603 4134 
L 603 4863 
z
" id="DejaVuSans-69" transform="scale(0.015625)"/>
       <path d="M 3328 2828 
Q 3544 3216 3844 3400 
Q 4144 3584 4550 3584 
Q 5097 3584 5394 3201 
Q 5691 2819 5691 2113 
L 5691 0 
L 5113 0 
L 5113 2094 
Q 5113 2597 4934 2840 
Q 4756 3084 4391 3084 
Q 3944 3084 3684 2787 
Q 3425 2491 3425 1978 
L 3425 0 
L 2847 0 
L 2847 2094 
Q 2847 2600 2669 2842 
Q 2491 3084 2119 3084 
Q 1678 3084 1418 2786 
Q 1159 2488 1159 1978 
L 1159 0 
L 581 0 
L 581 3500 
L 1159 3500 
L 1159 2956 
Q 1356 3278 1631 3431 
Q 1906 3584 2284 3584 
Q 2666 3584 2933 3390 
Q 3200 3197 3328 2828 
z
" id="DejaVuSans-6d" transform="scale(0.015625)"/>
       <path d="M 3513 2113 
L 3513 0 
L 2938 0 
L 2938 2094 
Q 2938 2591 2744 2837 
Q 2550 3084 2163 3084 
Q 1697 3084 1428 2787 
Q 1159 2491 1159 1978 
L 1159 0 
L 581 0 
L 581 3500 
L 1159 3500 
L 1159 2956 
Q 1366 3272 1645 3428 
Q 1925 3584 2291 3584 
Q 2894 3584 3203 3211 
Q 3513 2838 3513 2113 
z
" id="DejaVuSans-6e" transform="scale(0.015625)"/>
       <path d="M 513 4856 
L 1013 4856 
Q 1481 4119 1714 3412 
Q 1947 2706 1947 2009 
Q 1947 1309 1714 600 
Q 1481 -109 1013 -844 
L 513 -844 
Q 928 -128 1133 580 
Q 1338 1288 1338 2009 
Q 1338 2731 1133 3434 
Q 928 4138 513 4856 
z
" id="DejaVuSans-29" transform="scale(0.015625)"/>
      </defs>
      <use xlink:href="#DejaVuSans-6c"/>
      <use x="27.783203" xlink:href="#DejaVuSans-6f"/>
      <use x="88.964844" xlink:href="#DejaVuSans-67"/>
      <use x="152.441406" xlink:href="#DejaVuSans-31"/>
      <use x="216.064453" xlink:href="#DejaVuSans-30"/>
      <use x="279.6875" xlink:href="#DejaVuSans-28"/>
      <use x="318.701172" xlink:href="#DejaVuSans-23"/>
      <use x="402.490234" xlink:href="#DejaVuSans-20"/>
      <use x="434.277344" xlink:href="#DejaVuSans-66"/>
      <use x="463.982422" xlink:href="#DejaVuSans-2d"/>
      <use x="500.066406" xlink:href="#DejaVuSans-65"/>
      <use x="561.589844" xlink:href="#DejaVuSans-76"/>
      <use x="620.769531" xlink:href="#DejaVuSans-61"/>
      <use x="682.048828" xlink:href="#DejaVuSans-6c"/>
      <use x="709.832031" xlink:href="#DejaVuSans-73"/>
      <use x="761.931641" xlink:href="#DejaVuSans-20"/>
      <use x="793.71875" xlink:href="#DejaVuSans-2f"/>
      <use x="827.410156" xlink:href="#DejaVuSans-20"/>
      <use x="859.197266" xlink:href="#DejaVuSans-64"/>
      <use x="922.673828" xlink:href="#DejaVuSans-69"/>
      <use x="950.457031" xlink:href="#DejaVuSans-6d"/>
      <use x="1047.869141" xlink:href="#DejaVuSans-65"/>
      <use x="1109.392578" xlink:href="#DejaVuSans-6e"/>
      <use x="1172.771484" xlink:href="#DejaVuSans-73"/>
      <use x="1224.871094" xlink:href="#DejaVuSans-69"/>
      <use x="1252.654297" xlink:href="#DejaVuSans-6f"/>
      <use x="1313.835938" xlink:href="#DejaVuSans-6e"/>
      <use x="1377.214844" xlink:href="#DejaVuSans-29"/>
     </g>
    </g>
   </g>
   <g id="matplotlib.axis_2">
    <g id="ytick_1">
     <g id="line2d_21">
      <path clip-path="url(#pbd3a03f190)" d="M 57.6 298.944 
L 338.688 298.944 
" style="fill:none;stroke:#b0b0b0;stroke-linecap:square;stroke-width:0.8;"/>
     </g>
     <g id="line2d_22">
      <defs>
       <path d="M 0 0 
L -3.5 0 
" id="m690df4e161" style="stroke:#000000;stroke-width:0.8;"/>
      </defs>
      <g>
       <use style="stroke:#000000;stroke-width:0.8;" x="57.6" xlink:href="#m690df4e161" y="298.944"/>
      </g>
     </g>
     <g id="text_6">
      <!-- 0.0 -->
      <g transform="translate(25.155 305.02275)scale(0.16 -0.16)">
       <defs>
        <path d="M 684 794 
L 1344 794 
L 1344 0 
L 684 0 
L 684 794 
z
" id="DejaVuSans-2e" transform="scale(0.015625)"/>
       </defs>
       <use xlink:href="#DejaVuSans-30"/>
       <use x="63.623047" xlink:href="#DejaVuSans-2e"/>
       <use x="95.410156" xlink:href="#DejaVuSans-30"/>
      </g>
     </g>
    </g>
    <g id="ytick_2">
     <g id="line2d_23">
      <path clip-path="url(#pbd3a03f190)" d="M 57.6 245.22202 
L 338.688 245.22202 
" style="fill:none;stroke:#b0b0b0;stroke-linecap:square;stroke-width:0.8;"/>
     </g>
     <g id="line2d_24">
      <g>
       <use style="stroke:#000000;stroke-width:0.8;" x="57.6" xlink:href="#m690df4e161" y="245.22202"/>
      </g>
     </g>
     <g id="text_7">
      <!-- 0.2 -->
      <g transform="translate(25.155 251.30077)scale(0.16 -0.16)">
       <use xlink:href="#DejaVuSans-30"/>
       <use x="63.623047" xlink:href="#DejaVuSans-2e"/>
       <use x="95.410156" xlink:href="#DejaVuSans-32"/>
      </g>
     </g>
    </g>
    <g id="ytick_3">
     <g id="line2d_25">
      <path clip-path="url(#pbd3a03f190)" d="M 57.6 191.50004 
L 338.688 191.50004 
" style="fill:none;stroke:#b0b0b0;stroke-linecap:square;stroke-width:0.8;"/>
     </g>
     <g id="line2d_26">
      <g>
       <use style="stroke:#000000;stroke-width:0.8;" x="57.6" xlink:href="#m690df4e161" y="191.50004"/>
      </g>
     </g>
     <g id="text_8">
      <!-- 0.4 -->
      <g transform="translate(25.155 197.57879)scale(0.16 -0.16)">
       <use xlink:href="#DejaVuSans-30"/>
       <use x="63.623047" xlink:href="#DejaVuSans-2e"/>
       <use x="95.410156" xlink:href="#DejaVuSans-34"/>
      </g>
     </g>
    </g>
    <g id="ytick_4">
     <g id="line2d_27">
      <path clip-path="url(#pbd3a03f190)" d="M 57.6 137.778059 
L 338.688 137.778059 
" style="fill:none;stroke:#b0b0b0;stroke-linecap:square;stroke-width:0.8;"/>
     </g>
     <g id="line2d_28">
      <g>
       <use style="stroke:#000000;stroke-width:0.8;" x="57.6" xlink:href="#m690df4e161" y="137.778059"/>
      </g>
     </g>
     <g id="text_9">
      <!-- 0.6 -->
      <g transform="translate(25.155 143.856809)scale(0.16 -0.16)">
       <use xlink:href="#DejaVuSans-30"/>
       <use x="63.623047" xlink:href="#DejaVuSans-2e"/>
       <use x="95.410156" xlink:href="#DejaVuSans-36"/>
      </g>
     </g>
    </g>
    <g id="ytick_5">
     <g id="line2d_29">
      <path clip-path="url(#pbd3a03f190)" d="M 57.6 84.056079 
L 338.688 84.056079 
" style="fill:none;stroke:#b0b0b0;stroke-linecap:square;stroke-width:0.8;"/>
     </g>
     <g id="line2d_30">
      <g>
       <use style="stroke:#000000;stroke-width:0.8;" x="57.6" xlink:href="#m690df4e161" y="84.056079"/>
      </g>
     </g>
     <g id="text_10">
      <!-- 0.8 -->
      <g transform="translate(25.155 90.134829)scale(0.16 -0.16)">
       <defs>
        <path d="M 2034 2216 
Q 1584 2216 1326 1975 
Q 1069 1734 1069 1313 
Q 1069 891 1326 650 
Q 1584 409 2034 409 
Q 2484 409 2743 651 
Q 3003 894 3003 1313 
Q 3003 1734 2745 1975 
Q 2488 2216 2034 2216 
z
M 1403 2484 
Q 997 2584 770 2862 
Q 544 3141 544 3541 
Q 544 4100 942 4425 
Q 1341 4750 2034 4750 
Q 2731 4750 3128 4425 
Q 3525 4100 3525 3541 
Q 3525 3141 3298 2862 
Q 3072 2584 2669 2484 
Q 3125 2378 3379 2068 
Q 3634 1759 3634 1313 
Q 3634 634 3220 271 
Q 2806 -91 2034 -91 
Q 1263 -91 848 271 
Q 434 634 434 1313 
Q 434 1759 690 2068 
Q 947 2378 1403 2484 
z
M 1172 3481 
Q 1172 3119 1398 2916 
Q 1625 2713 2034 2713 
Q 2441 2713 2670 2916 
Q 2900 3119 2900 3481 
Q 2900 3844 2670 4047 
Q 2441 4250 2034 4250 
Q 1625 4250 1398 4047 
Q 1172 3844 1172 3481 
z
" id="DejaVuSans-38" transform="scale(0.015625)"/>
       </defs>
       <use xlink:href="#DejaVuSans-30"/>
       <use x="63.623047" xlink:href="#DejaVuSans-2e"/>
       <use x="95.410156" xlink:href="#DejaVuSans-38"/>
      </g>
     </g>
    </g>
    <g id="ytick_6">
     <g id="line2d_31">
      <path clip-path="url(#pbd3a03f190)" d="M 57.6 30.334099 
L 338.688 30.334099 
" style="fill:none;stroke:#b0b0b0;stroke-linecap:square;stroke-width:0.8;"/>
     </g>
     <g id="line2d_32">
      <g>
       <use style="stroke:#000000;stroke-width:0.8;" x="57.6" xlink:href="#m690df4e161" y="30.334099"/>
      </g>
     </g>
     <g id="text_11">
      <!-- 1.0 -->
      <g transform="translate(25.155 36.412849)scale(0.16 -0.16)">
       <use xlink:href="#DejaVuSans-31"/>
       <use x="63.623047" xlink:href="#DejaVuSans-2e"/>
       <use x="95.410156" xlink:href="#DejaVuSans-30"/>
      </g>
     </g>
    </g>
    <g id="text_12">
     <!-- Fraction of function,target pairs -->
     <g transform="translate(17.619531 297.681)rotate(-90)scale(0.17 -0.17)">
      <defs>
       <path d="M 628 4666 
L 3309 4666 
L 3309 4134 
L 1259 4134 
L 1259 2759 
L 3109 2759 
L 3109 2228 
L 1259 2228 
L 1259 0 
L 628 0 
L 628 4666 
z
" id="DejaVuSans-46" transform="scale(0.015625)"/>
       <path d="M 2631 2963 
Q 2534 3019 2420 3045 
Q 2306 3072 2169 3072 
Q 1681 3072 1420 2755 
Q 1159 2438 1159 1844 
L 1159 0 
L 581 0 
L 581 3500 
L 1159 3500 
L 1159 2956 
Q 1341 3275 1631 3429 
Q 1922 3584 2338 3584 
Q 2397 3584 2469 3576 
Q 2541 3569 2628 3553 
L 2631 2963 
z
" id="DejaVuSans-72" transform="scale(0.015625)"/>
       <path d="M 3122 3366 
L 3122 2828 
Q 2878 2963 2633 3030 
Q 2388 3097 2138 3097 
Q 1578 3097 1268 2742 
Q 959 2388 959 1747 
Q 959 1106 1268 751 
Q 1578 397 2138 397 
Q 2388 397 2633 464 
Q 2878 531 3122 666 
L 3122 134 
Q 2881 22 2623 -34 
Q 2366 -91 2075 -91 
Q 1284 -91 818 406 
Q 353 903 353 1747 
Q 353 2603 823 3093 
Q 1294 3584 2113 3584 
Q 2378 3584 2631 3529 
Q 2884 3475 3122 3366 
z
" id="DejaVuSans-63" transform="scale(0.015625)"/>
       <path d="M 1172 4494 
L 1172 3500 
L 2356 3500 
L 2356 3053 
L 1172 3053 
L 1172 1153 
Q 1172 725 1289 603 
Q 1406 481 1766 481 
L 2356 481 
L 2356 0 
L 1766 0 
Q 1100 0 847 248 
Q 594 497 594 1153 
L 594 3053 
L 172 3053 
L 172 3500 
L 594 3500 
L 594 4494 
L 1172 4494 
z
" id="DejaVuSans-74" transform="scale(0.015625)"/>
       <path d="M 544 1381 
L 544 3500 
L 1119 3500 
L 1119 1403 
Q 1119 906 1312 657 
Q 1506 409 1894 409 
Q 2359 409 2629 706 
Q 2900 1003 2900 1516 
L 2900 3500 
L 3475 3500 
L 3475 0 
L 2900 0 
L 2900 538 
Q 2691 219 2414 64 
Q 2138 -91 1772 -91 
Q 1169 -91 856 284 
Q 544 659 544 1381 
z
M 1991 3584 
L 1991 3584 
z
" id="DejaVuSans-75" transform="scale(0.015625)"/>
       <path d="M 750 794 
L 1409 794 
L 1409 256 
L 897 -744 
L 494 -744 
L 750 256 
L 750 794 
z
" id="DejaVuSans-2c" transform="scale(0.015625)"/>
       <path d="M 1159 525 
L 1159 -1331 
L 581 -1331 
L 581 3500 
L 1159 3500 
L 1159 2969 
Q 1341 3281 1617 3432 
Q 1894 3584 2278 3584 
Q 2916 3584 3314 3078 
Q 3713 2572 3713 1747 
Q 3713 922 3314 415 
Q 2916 -91 2278 -91 
Q 1894 -91 1617 61 
Q 1341 213 1159 525 
z
M 3116 1747 
Q 3116 2381 2855 2742 
Q 2594 3103 2138 3103 
Q 1681 3103 1420 2742 
Q 1159 2381 1159 1747 
Q 1159 1113 1420 752 
Q 1681 391 2138 391 
Q 2594 391 2855 752 
Q 3116 1113 3116 1747 
z
" id="DejaVuSans-70" transform="scale(0.015625)"/>
      </defs>
      <use xlink:href="#DejaVuSans-46"/>
      <use x="50.269531" xlink:href="#DejaVuSans-72"/>
      <use x="91.382812" xlink:href="#DejaVuSans-61"/>
      <use x="152.662109" xlink:href="#DejaVuSans-63"/>
      <use x="207.642578" xlink:href="#DejaVuSans-74"/>
      <use x="246.851562" xlink:href="#DejaVuSans-69"/>
      <use x="274.634766" xlink:href="#DejaVuSans-6f"/>
      <use x="335.816406" xlink:href="#DejaVuSans-6e"/>
      <use x="399.195312" xlink:href="#DejaVuSans-20"/>
      <use x="430.982422" xlink:href="#DejaVuSans-6f"/>
      <use x="492.164062" xlink:href="#DejaVuSans-66"/>
      <use x="527.369141" xlink:href="#DejaVuSans-20"/>
      <use x="559.15625" xlink:href="#DejaVuSans-66"/>
      <use x="594.361328" xlink:href="#DejaVuSans-75"/>
      <use x="657.740234" xlink:href="#DejaVuSans-6e"/>
      <use x="721.119141" xlink:href="#DejaVuSans-63"/>
      <use x="776.099609" xlink:href="#DejaVuSans-74"/>
      <use x="815.308594" xlink:href="#DejaVuSans-69"/>
      <use x="843.091797" xlink:href="#DejaVuSans-6f"/>
      <use x="904.273438" xlink:href="#DejaVuSans-6e"/>
      <use x="967.652344" xlink:href="#DejaVuSans-2c"/>
      <use x="999.439453" xlink:href="#DejaVuSans-74"/>
      <use x="1038.648438" xlink:href="#DejaVuSans-61"/>
      <use x="1099.927734" xlink:href="#DejaVuSans-72"/>
      <use x="1139.291016" xlink:href="#DejaVuSans-67"/>
      <use x="1202.767578" xlink:href="#DejaVuSans-65"/>
      <use x="1264.291016" xlink:href="#DejaVuSans-74"/>
      <use x="1303.5" xlink:href="#DejaVuSans-20"/>
      <use x="1335.287109" xlink:href="#DejaVuSans-70"/>
      <use x="1398.763672" xlink:href="#DejaVuSans-61"/>
      <use x="1460.042969" xlink:href="#DejaVuSans-69"/>
      <use x="1487.826172" xlink:href="#DejaVuSans-72"/>
      <use x="1528.939453" xlink:href="#DejaVuSans-73"/>
     </g>
    </g>
   </g>
   <g id="line2d_33">
    <defs>
     <path d="M 0 1.5 
C 0.397805 1.5 0.77937 1.341951 1.06066 1.06066 
C 1.341951 0.77937 1.5 0.397805 1.5 0 
C 1.5 -0.397805 1.341951 -0.77937 1.06066 -1.06066 
C 0.77937 -1.341951 0.397805 -1.5 0 -1.5 
C -0.397805 -1.5 -0.77937 -1.341951 -1.06066 -1.06066 
C -1.341951 -0.77937 -1.5 -0.397805 -1.5 0 
C -1.5 0.397805 -1.341951 0.77937 -1.06066 1.06066 
C -0.77937 1.341951 -0.397805 1.5 0 1.5 
z
" id="m47217925b5" style="stroke:#f5deb3;"/>
    </defs>
    <g>
     <use style="fill:#f5deb3;stroke:#f5deb3;" x="194.003833" xlink:href="#m47217925b5" y="30.334099"/>
     <use style="fill:#f5deb3;stroke:#f5deb3;" x="194.003833" xlink:href="#m47217925b5" y="30.334099"/>
    </g>
   </g>
   <g id="line2d_34">
    <defs>
     <path d="M 0 1.5 
C 0.397805 1.5 0.77937 1.341951 1.06066 1.06066 
C 1.341951 0.77937 1.5 0.397805 1.5 0 
C 1.5 -0.397805 1.341951 -0.77937 1.06066 -1.06066 
C 0.77937 -1.341951 0.397805 -1.5 0 -1.5 
C -0.397805 -1.5 -0.77937 -1.341951 -1.06066 -1.06066 
C -1.341951 -0.77937 -1.5 -0.397805 -1.5 0 
C -1.5 0.397805 -1.341951 0.77937 -1.06066 1.06066 
C -0.77937 1.341951 -0.397805 1.5 0 1.5 
z
" id="m5a54df7db3" style="stroke:#000080;"/>
    </defs>
    <g>
     <use style="fill:#000080;stroke:#000080;" x="231.612242" xlink:href="#m5a54df7db3" y="30.334099"/>
     <use style="fill:#000080;stroke:#000080;" x="231.612242" xlink:href="#m5a54df7db3" y="30.334099"/>
    </g>
   </g>
   <g id="line2d_35">
    <path d="M 38.440992 298.944 
L 38.440992 225.207949 
L 137.852629 225.207949 
L 137.852629 224.681263 
L 138.594838 224.681263 
L 138.594838 224.154577 
L 146.466968 224.154577 
L 146.466968 223.627891 
L 149.940618 223.627891 
L 149.940618 223.101204 
L 151.713753 223.101204 
L 151.713753 222.047832 
L 157.108577 222.047832 
L 157.108577 221.521146 
L 158.501489 221.521146 
L 158.501489 220.99446 
L 163.171418 220.99446 
L 163.171418 220.467774 
L 163.348054 220.467774 
L 163.348054 219.941088 
L 163.985177 219.941088 
L 163.985177 219.414402 
L 166.391896 219.414402 
L 166.391896 218.887716 
L 167.125588 218.887716 
L 167.125588 218.36103 
L 168.273531 218.36103 
L 168.273531 217.307658 
L 171.229121 217.307658 
L 171.229121 216.254285 
L 172.562023 216.254285 
L 172.562023 215.727599 
L 173.00275 215.727599 
L 173.00275 215.200913 
L 173.621148 215.200913 
L 173.695995 212.040797 
L 174.028886 212.040797 
L 174.028886 211.514111 
L 174.47737 211.514111 
L 174.47737 210.987425 
L 174.718503 210.987425 
L 174.774759 209.934052 
L 174.900675 209.934052 
L 174.900675 209.407366 
L 175.232072 209.407366 
L 175.232072 205.193878 
L 175.942337 205.193878 
L 176.007874 201.507075 
L 179.542477 201.507075 
L 179.542477 200.453703 
L 179.933319 200.453703 
L 180.037465 199.400331 
L 180.094482 199.400331 
L 180.182234 197.820273 
L 180.23878 197.820273 
L 180.23878 195.713528 
L 180.569223 195.713528 
L 180.654624 192.553412 
L 181.006844 192.553412 
L 181.090134 189.919981 
L 181.284554 189.919981 
L 181.284554 188.866609 
L 181.419369 188.866609 
L 181.433752 187.813237 
L 182.092094 187.813237 
L 182.092094 187.286551 
L 183.855049 187.286551 
L 183.855049 186.759865 
L 185.047943 186.759865 
L 185.047943 186.233179 
L 185.237776 186.233179 
L 185.314669 184.653121 
L 185.433187 184.653121 
L 185.456033 183.073062 
L 185.569817 183.073062 
L 185.569817 182.546376 
L 185.682864 182.546376 
L 185.765302 181.493004 
L 185.821287 181.493004 
L 185.821287 180.966318 
L 185.980788 180.966318 
L 185.980788 179.912946 
L 186.186347 179.912946 
L 186.288225 176.752829 
L 186.328086 176.752829 
L 186.328086 176.226143 
L 186.443531 176.226143 
L 186.450721 174.646085 
L 186.565359 174.646085 
L 186.63307 168.852538 
L 186.714687 168.852538 
L 186.714687 167.799166 
L 186.890807 167.799166 
L 186.971229 166.219108 
L 187.07904 166.219108 
L 187.186189 164.63905 
L 187.22749 164.63905 
L 187.22749 163.585677 
L 187.381503 163.585677 
L 187.381503 163.058991 
L 188.151376 163.058991 
L 188.151376 162.005619 
L 191.585005 162.005619 
L 191.678471 160.952247 
L 192.293377 160.952247 
L 192.293377 160.425561 
L 192.431662 160.425561 
L 192.431662 159.898875 
L 192.556202 159.898875 
L 192.556202 159.372189 
L 192.699964 159.372189 
L 192.79765 156.738758 
L 192.835076 156.738758 
L 192.939443 153.051956 
L 192.996333 153.051956 
L 192.996333 152.52527 
L 193.161007 152.52527 
L 193.170789 150.945211 
L 193.280463 150.945211 
L 193.379791 144.624978 
L 193.459329 144.624978 
L 193.545686 141.464862 
L 193.693417 141.464862 
L 193.776264 140.41149 
L 193.882206 140.41149 
L 193.929086 137.251373 
L 194.059683 137.251373 
L 194.147749 134.617943 
L 194.189309 134.617943 
L 194.242271 131.984513 
L 194.379679 131.984513 
L 194.379679 131.457826 
L 194.493364 131.457826 
L 194.522802 128.824396 
L 194.606313 128.824396 
L 194.606313 128.29771 
L 194.807796 128.29771 
L 194.807796 127.771024 
L 195.064099 127.771024 
L 195.064099 127.244338 
L 196.320575 127.244338 
L 196.320575 125.66428 
L 196.481063 125.66428 
L 196.481063 124.610907 
L 197.231106 124.610907 
L 197.271737 122.504163 
L 197.375783 122.504163 
L 197.375783 120.924105 
L 197.538313 120.924105 
L 197.538313 119.870733 
L 197.948358 119.870733 
L 197.996625 117.237302 
L 198.246945 117.237302 
L 198.252427 116.18393 
L 203.332309 116.18393 
L 203.392275 115.130558 
L 203.445255 115.130558 
L 203.484546 113.023814 
L 203.581716 113.023814 
L 203.581716 107.756953 
L 203.875314 107.756953 
L 203.90044 105.650209 
L 204.037333 105.650209 
L 204.043887 104.596836 
L 204.205653 104.596836 
L 204.205653 104.07015 
L 204.89937 104.07015 
L 204.89937 103.543464 
L 205.858348 103.543464 
L 205.858348 103.016778 
L 205.981927 103.016778 
L 206.068497 100.910034 
L 206.187124 100.910034 
L 206.187124 100.383348 
L 206.349791 100.383348 
L 206.457399 96.696545 
L 206.51778 96.696545 
L 206.51778 93.009743 
L 206.757235 93.009743 
L 206.757235 91.429684 
L 206.887993 91.429684 
L 206.887993 90.902998 
L 212.037232 90.902998 
L 212.037232 89.32294 
L 213.622886 89.32294 
L 213.622886 88.796254 
L 215.91825 88.796254 
L 215.91825 88.269568 
L 218.706695 88.269568 
L 218.774971 87.216196 
L 218.943663 87.216196 
L 219.052638 86.162824 
L 219.146608 86.162824 
L 219.198352 82.476021 
L 219.387501 82.476021 
L 219.458584 76.682474 
L 219.517509 76.682474 
L 219.567627 72.468985 
L 219.647625 72.468985 
L 219.688823 68.255497 
L 219.801751 68.255497 
L 219.883855 65.09538 
L 219.919754 65.09538 
L 219.989754 63.515322 
L 221.50415 63.515322 
L 221.565203 60.881892 
L 221.702391 60.881892 
L 221.796411 57.195089 
L 221.843704 57.195089 
L 221.936028 54.561659 
L 222.000739 54.561659 
L 222.087115 50.34817 
L 224.907164 50.34817 
L 224.907164 49.821484 
L 225.098664 49.821484 
L 225.193241 48.768112 
L 226.458159 48.768112 
L 226.525452 47.71474 
L 226.577011 47.71474 
L 226.577011 46.134681 
L 226.81551 46.134681 
L 226.832903 44.027937 
L 227.003426 44.027937 
L 227.06375 39.814448 
L 227.232735 39.814448 
L 227.272565 38.23439 
L 230.946669 38.23439 
L 230.946669 37.707704 
L 231.110393 37.707704 
L 231.14118 36.127646 
L 231.295682 36.127646 
L 231.35847 34.020902 
L 231.415305 34.020902 
L 231.419124 31.914157 
L 231.560916 31.914157 
L 231.612242 30.334099 
L 338.688 30.334099 
L 338.688 30.334099 
" style="fill:none;stroke:#000080;stroke-linecap:square;stroke-width:1.5;"/>
   </g>
   <g id="line2d_36">
    <defs>
     <path d="M 0 6 
C 1.591219 6 3.117479 5.367802 4.242641 4.242641 
C 5.367802 3.117479 6 1.591219 6 0 
C 6 -1.591219 5.367802 -3.117479 4.242641 -4.242641 
C 3.117479 -5.367802 1.591219 -6 0 -6 
C -1.591219 -6 -3.117479 -5.367802 -4.242641 -4.242641 
C -5.367802 -3.117479 -6 -1.591219 -6 0 
C -6 1.591219 -5.367802 3.117479 -4.242641 4.242641 
C -3.117479 5.367802 -1.591219 6 0 6 
z
" id="mc32b70151d" style="stroke:#000080;stroke-width:1.5;"/>
    </defs>
    <g>
     <use style="fill-opacity:0;stroke:#000080;stroke-width:1.5;" x="173.695995" xlink:href="#mc32b70151d" y="214.674227"/>
     <use style="fill-opacity:0;stroke:#000080;stroke-width:1.5;" x="198.252427" xlink:href="#mc32b70151d" y="116.18393"/>
     <use style="fill-opacity:0;stroke:#000080;stroke-width:1.5;" x="231.612242" xlink:href="#mc32b70151d" y="30.860785"/>
     <use style="fill-opacity:0;stroke:#000080;stroke-width:1.5;" x="231.612242" xlink:href="#mc32b70151d" y="30.334099"/>
     <use style="fill-opacity:0;stroke:#000080;stroke-width:1.5;" x="338.688" xlink:href="#mc32b70151d" y="30.334099"/>
    </g>
   </g>
   <g id="line2d_37">
    <path style="fill:none;stroke:#000080;stroke-linecap:square;stroke-width:1.5;"/>
    <g/>
   </g>
   <g id="line2d_38">
    <defs>
     <path d="M 0 1.5 
C 0.397805 1.5 0.77937 1.341951 1.06066 1.06066 
C 1.341951 0.77937 1.5 0.397805 1.5 0 
C 1.5 -0.397805 1.341951 -0.77937 1.06066 -1.06066 
C 0.77937 -1.341951 0.397805 -1.5 0 -1.5 
C -0.397805 -1.5 -0.77937 -1.341951 -1.06066 -1.06066 
C -1.341951 -0.77937 -1.5 -0.397805 -1.5 0 
C -1.5 0.397805 -1.341951 0.77937 -1.06066 1.06066 
C -0.77937 1.341951 -0.397805 1.5 0 1.5 
z
" id="mebcfd7f301" style="stroke:#ff00ff;"/>
    </defs>
    <g>
     <use style="fill:#ff00ff;stroke:#ff00ff;" x="243.693081" xlink:href="#mebcfd7f301" y="30.334099"/>
     <use style="fill:#ff00ff;stroke:#ff00ff;" x="243.693081" xlink:href="#mebcfd7f301" y="30.334099"/>
    </g>
   </g>
   <g id="line2d_39">
    <path d="M 38.440992 298.944 
L 38.440992 225.207949 
L 140.747977 225.207949 
L 140.747977 224.681263 
L 141.987354 224.681263 
L 141.987354 223.101204 
L 156.418408 223.101204 
L 156.418408 222.574518 
L 160.410154 222.574518 
L 160.410154 222.047832 
L 160.616915 222.047832 
L 160.616915 221.521146 
L 162.658665 221.521146 
L 162.658665 220.99446 
L 168.963 220.99446 
L 168.963 220.467774 
L 169.215888 220.467774 
L 169.215888 219.941088 
L 169.369709 219.941088 
L 169.369709 219.414402 
L 169.48419 219.414402 
L 169.48419 218.887716 
L 169.60737 218.887716 
L 169.60737 218.36103 
L 169.925477 218.36103 
L 169.925477 217.307658 
L 170.201421 217.307658 
L 170.28336 216.254285 
L 170.455087 216.254285 
L 170.535846 215.200913 
L 170.571619 215.200913 
L 170.571619 213.620855 
L 170.925369 213.620855 
L 171.021405 212.040797 
L 171.323504 212.040797 
L 171.374771 210.460738 
L 171.451389 210.460738 
L 171.51075 207.300622 
L 172.003206 207.300622 
L 172.003206 206.773936 
L 172.490141 206.773936 
L 172.490141 206.24725 
L 173.621148 206.24725 
L 173.621148 205.720564 
L 173.800244 205.720564 
L 173.800244 205.193878 
L 177.024289 205.193878 
L 177.030459 203.613819 
L 180.848977 203.613819 
L 180.848977 203.087133 
L 181.342459 203.087133 
L 181.342459 202.560447 
L 186.70052 202.560447 
L 186.70052 202.033761 
L 187.500357 202.033761 
L 187.500357 201.507075 
L 187.994175 201.507075 
L 187.994175 200.980389 
L 189.363471 200.980389 
L 189.363471 200.453703 
L 190.804686 200.453703 
L 190.804686 199.927017 
L 191.129263 199.927017 
L 191.129263 199.400331 
L 192.487688 199.400331 
L 192.487688 198.873645 
L 193.285321 198.873645 
L 193.285321 198.346959 
L 195.286397 198.346959 
L 195.286397 197.820273 
L 196.312409 197.820273 
L 196.355235 196.240214 
L 196.481063 196.240214 
L 196.481063 195.713528 
L 197.057851 195.713528 
L 197.057851 195.186842 
L 197.203966 195.186842 
L 197.300701 194.13347 
L 197.358485 194.13347 
L 197.446718 192.553412 
L 197.582032 192.553412 
L 197.582032 192.026726 
L 197.729487 192.026726 
L 197.823358 189.919981 
L 198.009597 189.919981 
L 198.101976 187.813237 
L 198.147983 187.813237 
L 198.147983 186.759865 
L 198.325349 186.759865 
L 198.325349 186.233179 
L 199.489924 186.233179 
L 199.489924 185.706493 
L 199.858676 185.706493 
L 199.858676 185.179807 
L 200.031097 185.179807 
L 200.031097 183.599748 
L 200.270309 183.599748 
L 200.315813 182.546376 
L 200.456447 182.546376 
L 200.552779 178.859574 
L 200.605535 178.859574 
L 200.70105 176.226143 
L 200.748611 176.226143 
L 200.859087 171.485969 
L 200.898373 171.485969 
L 201.001667 166.219108 
L 201.017264 166.219108 
L 201.1028 163.585677 
L 201.183287 163.585677 
L 201.183287 162.532305 
L 201.732038 162.532305 
L 201.746996 160.952247 
L 201.863229 160.952247 
L 201.952114 158.845503 
L 202.106582 158.845503 
L 202.106582 157.79213 
L 202.256789 157.79213 
L 202.256789 157.265444 
L 202.460338 157.265444 
L 202.520513 154.632014 
L 202.621767 154.632014 
L 202.708294 150.945211 
L 202.849218 150.945211 
L 202.849218 149.365153 
L 203.449324 149.365153 
L 203.487253 147.258409 
L 203.74514 147.258409 
L 203.851477 145.151665 
L 203.91761 145.151665 
L 203.991383 143.04492 
L 204.212144 143.04492 
L 204.252338 139.884804 
L 204.417322 139.884804 
L 204.469841 137.778059 
L 204.916832 137.778059 
L 204.916832 137.251373 
L 208.442205 137.251373 
L 208.522479 135.671315 
L 208.641698 135.671315 
L 208.749104 131.457826 
L 208.823996 131.457826 
L 208.848888 129.877768 
L 209.022149 129.877768 
L 209.030029 126.717652 
L 209.645323 126.717652 
L 209.736341 123.557535 
L 209.875735 123.557535 
L 209.969294 121.450791 
L 209.994469 121.450791 
L 210.073487 119.344047 
L 210.108697 119.344047 
L 210.19365 115.657244 
L 210.224022 115.657244 
L 210.224022 115.130558 
L 211.314722 115.130558 
L 211.399169 114.077186 
L 211.436952 114.077186 
L 211.514835 109.863697 
L 211.57536 109.863697 
L 211.593221 106.176895 
L 211.803626 106.176895 
L 211.908301 103.543464 
L 211.929161 103.543464 
L 211.991592 101.43672 
L 212.053799 101.43672 
L 212.145461 100.383348 
L 212.214508 100.383348 
L 212.214508 99.856662 
L 212.960443 99.856662 
L 212.971443 97.749917 
L 213.130957 97.749917 
L 213.234174 95.643173 
L 213.344474 95.643173 
L 213.344474 94.589801 
L 213.518906 94.589801 
L 213.60926 92.483056 
L 213.630451 92.483056 
L 213.741287 90.902998 
L 213.778077 90.902998 
L 213.778077 90.376312 
L 216.227942 90.376312 
L 216.227942 89.32294 
L 218.659707 89.32294 
L 218.659707 88.796254 
L 222.556725 88.796254 
L 222.556725 88.269568 
L 227.343685 88.269568 
L 227.343685 87.742882 
L 227.504189 87.742882 
L 227.613431 86.162824 
L 227.634113 86.162824 
L 227.643937 84.582765 
L 227.757693 84.582765 
L 227.859678 78.789218 
L 227.999271 78.789218 
L 228.047982 77.20916 
L 235.433811 77.20916 
L 235.433811 76.682474 
L 235.912912 76.682474 
L 235.912912 73.522358 
L 236.401967 73.522358 
L 236.401967 70.888927 
L 236.547694 70.888927 
L 236.637705 67.728811 
L 236.70934 67.728811 
L 236.80353 65.622066 
L 236.847938 65.622066 
L 236.947146 62.988636 
L 237.20369 62.988636 
L 237.20369 62.46195 
L 237.355514 62.46195 
L 237.441461 60.355206 
L 237.47734 60.355206 
L 237.47734 58.775147 
L 237.617637 58.775147 
L 237.691648 55.615031 
L 237.998997 55.615031 
L 237.998997 52.9816 
L 238.139999 52.9816 
L 238.239706 48.241426 
L 238.271036 48.241426 
L 238.288887 46.134681 
L 238.400729 46.134681 
L 238.479504 43.501251 
L 242.204796 43.501251 
L 242.219044 42.447879 
L 242.900472 42.447879 
L 242.900472 40.867821 
L 243.161837 40.867821 
L 243.26336 38.23439 
L 243.316658 38.23439 
L 243.403985 35.074274 
L 243.522107 35.074274 
L 243.58372 31.914157 
L 243.640652 31.914157 
L 243.693081 30.334099 
L 338.688 30.334099 
L 338.688 30.334099 
" style="fill:none;stroke:#ff00ff;stroke-linecap:square;stroke-width:1.5;"/>
   </g>
   <g id="line2d_40">
    <defs>
     <path d="M 0 8.485281 
L 5.091169 0 
L 0 -8.485281 
L -5.091169 0 
z
" id="m49e70f48a5" style="stroke:#ff00ff;stroke-linejoin:miter;stroke-width:1.5;"/>
    </defs>
    <g>
     <use style="fill-opacity:0;stroke:#ff00ff;stroke-linejoin:miter;stroke-width:1.5;" x="160.410154" xlink:href="#m49e70f48a5" y="222.574518"/>
     <use style="fill-opacity:0;stroke:#ff00ff;stroke-linejoin:miter;stroke-width:1.5;" x="202.708294" xlink:href="#m49e70f48a5" y="151.471897"/>
     <use style="fill-opacity:0;stroke:#ff00ff;stroke-linejoin:miter;stroke-width:1.5;" x="243.535318" xlink:href="#m49e70f48a5" y="34.020902"/>
     <use style="fill-opacity:0;stroke:#ff00ff;stroke-linejoin:miter;stroke-width:1.5;" x="243.693081" xlink:href="#m49e70f48a5" y="30.334099"/>
     <use style="fill-opacity:0;stroke:#ff00ff;stroke-linejoin:miter;stroke-width:1.5;" x="338.688" xlink:href="#m49e70f48a5" y="30.334099"/>
    </g>
   </g>
   <g id="line2d_41">
    <path style="fill:none;stroke:#ff00ff;stroke-linecap:square;stroke-width:1.5;"/>
    <g/>
   </g>
   <g id="line2d_42">
    <defs>
     <path d="M 0 1.5 
C 0.397805 1.5 0.77937 1.341951 1.06066 1.06066 
C 1.341951 0.77937 1.5 0.397805 1.5 0 
C 1.5 -0.397805 1.341951 -0.77937 1.06066 -1.06066 
C 0.77937 -1.341951 0.397805 -1.5 0 -1.5 
C -0.397805 -1.5 -0.77937 -1.341951 -1.06066 -1.06066 
C -1.341951 -0.77937 -1.5 -0.397805 -1.5 0 
C -1.5 0.397805 -1.341951 0.77937 -1.06066 1.06066 
C -0.77937 1.341951 -0.397805 1.5 0 1.5 
z
" id="m1e0d9eb548" style="stroke:#ff7500;"/>
    </defs>
    <g>
     <use style="fill:#ff7500;stroke:#ff7500;" x="229.811745" xlink:href="#m1e0d9eb548" y="30.334099"/>
     <use style="fill:#ff7500;stroke:#ff7500;" x="229.811745" xlink:href="#m1e0d9eb548" y="30.334099"/>
    </g>
   </g>
   <g id="line2d_43">
    <path d="M 38.440992 298.944 
L 38.440992 225.207949 
L 85.66744 225.207949 
L 85.66744 195.713528 
L 97.755429 195.713528 
L 97.755429 193.606784 
L 159.422762 193.606784 
L 159.422762 192.553412 
L 160.233268 192.553412 
L 160.297798 189.393295 
L 160.648508 189.393295 
L 160.648508 188.866609 
L 160.961329 188.866609 
L 160.961329 188.339923 
L 162.20271 188.339923 
L 162.20271 187.813237 
L 163.034316 187.813237 
L 163.034316 187.286551 
L 163.348054 187.286551 
L 163.348054 186.759865 
L 163.482721 186.759865 
L 163.482721 185.179807 
L 163.735759 185.179807 
L 163.735759 184.653121 
L 164.192481 184.653121 
L 164.218222 183.073062 
L 164.435497 183.073062 
L 164.435497 182.01969 
L 174.261802 182.01969 
L 174.261802 181.493004 
L 174.412979 181.493004 
L 174.412979 180.966318 
L 174.527289 180.966318 
L 174.527289 180.439632 
L 174.997985 180.439632 
L 174.997985 179.912946 
L 175.122305 179.912946 
L 175.122305 177.806202 
L 175.266234 177.806202 
L 175.266234 176.752829 
L 175.711 176.752829 
L 175.711 175.172771 
L 175.876553 175.172771 
L 175.876553 174.646085 
L 176.03402 174.646085 
L 176.03402 172.539341 
L 176.15768 172.539341 
L 176.15768 170.959282 
L 176.869327 170.959282 
L 176.931477 169.90591 
L 177.408792 169.90591 
L 177.408792 169.379224 
L 179.19724 169.379224 
L 179.19724 167.799166 
L 179.429948 167.799166 
L 179.429948 167.27248 
L 179.717854 167.27248 
L 179.818035 163.585677 
L 179.901953 163.585677 
L 180.001085 162.532305 
L 180.120337 162.532305 
L 180.192528 159.898875 
L 180.967511 159.898875 
L 180.967511 158.845503 
L 181.163295 158.845503 
L 181.163295 158.318817 
L 182.138181 158.318817 
L 182.138181 157.79213 
L 190.058093 157.79213 
L 190.058093 157.265444 
L 196.753934 157.265444 
L 196.859127 155.685386 
L 196.989242 155.685386 
L 196.989242 154.105328 
L 197.184555 154.105328 
L 197.184555 153.051956 
L 197.296842 153.051956 
L 197.394983 151.471897 
L 197.412245 151.471897 
L 197.412245 149.891839 
L 197.540216 149.891839 
L 197.587727 146.205037 
L 197.797125 146.205037 
L 197.873839 144.624978 
L 197.94464 144.624978 
L 198.020709 143.04492 
L 198.089073 143.04492 
L 198.122234 140.938176 
L 198.21402 140.938176 
L 198.32171 138.831432 
L 198.383468 138.831432 
L 198.405212 136.198001 
L 198.63191 136.198001 
L 198.63191 135.144629 
L 200.964176 135.144629 
L 200.964176 134.617943 
L 201.085727 134.617943 
L 201.119857 131.984513 
L 201.20952 131.984513 
L 201.300257 130.93114 
L 201.344685 130.93114 
L 201.344685 127.244338 
L 201.525814 127.244338 
L 201.557584 125.137593 
L 201.703583 125.137593 
L 201.766422 123.557535 
L 204.068771 123.557535 
L 204.149727 122.504163 
L 204.191363 122.504163 
L 204.284684 119.344047 
L 204.410907 119.344047 
L 204.439118 116.18393 
L 204.552779 116.18393 
L 204.661909 114.077186 
L 205.615718 114.077186 
L 205.615718 111.970441 
L 205.978408 111.970441 
L 205.978408 110.390383 
L 206.098812 110.390383 
L 206.201028 108.810325 
L 206.251912 108.810325 
L 206.28652 106.176895 
L 206.387644 106.176895 
L 206.496158 102.490092 
L 206.502989 102.490092 
L 206.583619 100.383348 
L 206.654853 100.383348 
L 206.668388 97.749917 
L 206.902461 97.749917 
L 206.950232 96.696545 
L 207.042074 96.696545 
L 207.1477 95.116487 
L 207.172911 95.116487 
L 207.255961 92.483056 
L 207.295163 92.483056 
L 207.396028 88.796254 
L 207.414402 88.796254 
L 207.488784 87.216196 
L 207.591747 87.216196 
L 207.674959 85.109451 
L 207.805377 85.109451 
L 207.813825 83.002707 
L 207.928534 83.002707 
L 207.947404 81.422649 
L 209.365522 81.422649 
L 209.476254 80.369277 
L 209.551917 80.369277 
L 209.577701 78.789218 
L 209.687099 78.789218 
L 209.76091 76.682474 
L 209.819358 76.682474 
L 209.879487 74.049044 
L 209.944082 74.049044 
L 209.980487 71.415613 
L 210.140141 71.415613 
L 210.147531 70.362241 
L 216.613378 70.362241 
L 216.680819 68.255497 
L 216.853949 68.255497 
L 216.961758 66.675439 
L 217.047155 66.675439 
L 217.111084 62.988636 
L 217.353488 62.988636 
L 217.353488 62.46195 
L 219.466163 62.46195 
L 219.466163 60.881892 
L 219.791659 60.881892 
L 219.901286 58.775147 
L 219.94505 58.775147 
L 219.962945 57.721775 
L 220.081956 57.721775 
L 220.178871 52.9816 
L 220.40806 52.9816 
L 220.42856 51.928228 
L 226.803787 51.928228 
L 226.803787 51.401542 
L 228.110081 51.401542 
L 228.110081 49.294798 
L 228.400773 49.294798 
L 228.400773 47.71474 
L 228.67106 47.71474 
L 228.680317 45.607995 
L 228.799578 45.607995 
L 228.905748 40.867821 
L 228.913307 40.867821 
L 228.969267 38.23439 
L 229.045685 38.23439 
L 229.121147 36.654332 
L 229.381497 36.654332 
L 229.489982 32.967529 
L 229.601732 32.967529 
L 229.601732 32.440843 
L 229.74072 32.440843 
L 229.811745 30.334099 
L 338.688 30.334099 
L 338.688 30.334099 
" style="fill:none;stroke:#ff7500;stroke-linecap:square;stroke-width:1.5;"/>
   </g>
   <g id="line2d_44">
    <defs>
     <path d="M 0 -6 
L -1.347084 -1.854102 
L -5.706339 -1.854102 
L -2.179628 0.708204 
L -3.526712 4.854102 
L -0 2.291796 
L 3.526712 4.854102 
L 2.179628 0.708204 
L 5.706339 -1.854102 
L 1.347084 -1.854102 
z
" id="mc59414657c" style="stroke:#ff7500;stroke-linejoin:bevel;stroke-width:1.5;"/>
    </defs>
    <g>
     <use style="fill-opacity:0;stroke:#ff7500;stroke-linejoin:bevel;stroke-width:1.5;" x="97.755429" xlink:href="#mc59414657c" y="193.606784"/>
     <use style="fill-opacity:0;stroke:#ff7500;stroke-linejoin:bevel;stroke-width:1.5;" x="201.119857" xlink:href="#mc59414657c" y="133.564571"/>
     <use style="fill-opacity:0;stroke:#ff7500;stroke-linejoin:bevel;stroke-width:1.5;" x="229.811745" xlink:href="#mc59414657c" y="30.860785"/>
     <use style="fill-opacity:0;stroke:#ff7500;stroke-linejoin:bevel;stroke-width:1.5;" x="229.811745" xlink:href="#mc59414657c" y="30.334099"/>
     <use style="fill-opacity:0;stroke:#ff7500;stroke-linejoin:bevel;stroke-width:1.5;" x="338.688" xlink:href="#mc59414657c" y="30.334099"/>
    </g>
   </g>
   <g id="line2d_45">
    <path style="fill:none;stroke:#ff7500;stroke-linecap:square;stroke-width:1.5;"/>
    <g/>
   </g>
   <g id="line2d_46">
    <defs>
     <path d="M 0 1.5 
C 0.397805 1.5 0.77937 1.341951 1.06066 1.06066 
C 1.341951 0.77937 1.5 0.397805 1.5 0 
C 1.5 -0.397805 1.341951 -0.77937 1.06066 -1.06066 
C 0.77937 -1.341951 0.397805 -1.5 0 -1.5 
C -0.397805 -1.5 -0.77937 -1.341951 -1.06066 -1.06066 
C -1.341951 -0.77937 -1.5 -0.397805 -1.5 0 
C -1.5 0.397805 -1.341951 0.77937 -1.06066 1.06066 
C -0.77937 1.341951 -0.397805 1.5 0 1.5 
z
" id="m70cda62ddb" style="stroke:#6495ed;"/>
    </defs>
    <g>
     <use style="fill:#6495ed;stroke:#6495ed;" x="97.755429" xlink:href="#m70cda62ddb" y="193.606784"/>
     <use style="fill:#6495ed;stroke:#6495ed;" x="97.755429" xlink:href="#m70cda62ddb" y="193.606784"/>
    </g>
   </g>
   <g id="line2d_47">
    <path d="M 38.440992 298.944 
L 38.440992 225.207949 
L 85.66744 225.207949 
L 85.66744 195.186842 
L 97.755429 195.186842 
L 97.755429 193.606784 
L 338.688 193.606784 
" style="fill:none;stroke:#6495ed;stroke-linecap:square;stroke-width:1.5;"/>
   </g>
   <g id="line2d_48">
    <defs>
     <path d="M -0 6 
L 6 -6 
L -6 -6 
z
" id="m5822ae9696" style="stroke:#6495ed;stroke-linejoin:miter;stroke-width:1.5;"/>
    </defs>
    <g>
     <use style="fill-opacity:0;stroke:#6495ed;stroke-linejoin:miter;stroke-width:1.5;" x="97.755429" xlink:href="#m5822ae9696" y="195.186842"/>
     <use style="fill-opacity:0;stroke:#6495ed;stroke-linejoin:miter;stroke-width:1.5;" x="97.755429" xlink:href="#m5822ae9696" y="195.186842"/>
     <use style="fill-opacity:0;stroke:#6495ed;stroke-linejoin:miter;stroke-width:1.5;" x="97.755429" xlink:href="#m5822ae9696" y="193.606784"/>
     <use style="fill-opacity:0;stroke:#6495ed;stroke-linejoin:miter;stroke-width:1.5;" x="97.755429" xlink:href="#m5822ae9696" y="193.606784"/>
     <use style="fill-opacity:0;stroke:#6495ed;stroke-linejoin:miter;stroke-width:1.5;" x="338.688" xlink:href="#m5822ae9696" y="193.606784"/>
    </g>
   </g>
   <g id="line2d_49">
    <path style="fill:none;stroke:#6495ed;stroke-linecap:square;stroke-width:1.5;"/>
    <g/>
   </g>
   <g id="line2d_50">
    <path clip-path="url(#pbd3a03f190)" d="M 237.427166 193.606784 
" style="fill:none;stroke:#6495ed;stroke-linecap:square;stroke-width:1.5;"/>
    <defs>
     <path d="M -12 12 
L 12 -12 
M -12 -12 
L 12 12 
" id="m841676dfcf" style="stroke:#6495ed;"/>
    </defs>
    <g clip-path="url(#pbd3a03f190)">
     <use style="fill:#6495ed;stroke:#6495ed;" x="237.427166" xlink:href="#m841676dfcf" y="193.606784"/>
    </g>
   </g>
   <g id="line2d_51">
    <defs>
     <path d="M 0 1.5 
C 0.397805 1.5 0.77937 1.341951 1.06066 1.06066 
C 1.341951 0.77937 1.5 0.397805 1.5 0 
C 1.5 -0.397805 1.341951 -0.77937 1.06066 -1.06066 
C 0.77937 -1.341951 0.397805 -1.5 0 -1.5 
C -0.397805 -1.5 -0.77937 -1.341951 -1.06066 -1.06066 
C -1.341951 -0.77937 -1.5 -0.397805 -1.5 0 
C -1.5 0.397805 -1.341951 0.77937 -1.06066 1.06066 
C -0.77937 1.341951 -0.397805 1.5 0 1.5 
z
" id="m8775b4c0f6" style="stroke:#ff0000;"/>
    </defs>
    <g>
     <use style="fill:#ff0000;stroke:#ff0000;" x="226.184152" xlink:href="#m8775b4c0f6" y="30.334099"/>
     <use style="fill:#ff0000;stroke:#ff0000;" x="226.184152" xlink:href="#m8775b4c0f6" y="30.334099"/>
    </g>
   </g>
   <g id="line2d_52">
    <path d="M 38.440992 298.944 
L 38.440992 225.207949 
L 110.694282 225.207949 
L 110.694282 224.154577 
L 116.522527 224.154577 
L 116.522527 223.627891 
L 138.650644 223.627891 
L 138.650644 223.101204 
L 138.872098 223.101204 
L 138.872098 222.574518 
L 145.251067 222.574518 
L 145.251067 222.047832 
L 147.096109 222.047832 
L 147.096109 221.521146 
L 148.701984 221.521146 
L 148.701984 219.941088 
L 150.626842 219.941088 
L 150.626842 219.414402 
L 150.87737 219.414402 
L 150.87737 218.887716 
L 151.340991 218.887716 
L 151.340991 218.36103 
L 151.660987 218.36103 
L 151.713753 216.780971 
L 151.818809 216.780971 
L 151.923236 215.200913 
L 152.001148 215.200913 
L 152.052897 214.147541 
L 152.130233 214.147541 
L 152.207228 213.094169 
L 152.283884 213.094169 
L 152.283884 212.567483 
L 152.410901 212.567483 
L 152.410901 212.040797 
L 152.562109 212.040797 
L 152.662192 210.987425 
L 152.736878 210.987425 
L 152.786492 208.353994 
L 152.860649 208.353994 
L 152.885298 207.300622 
L 153.656221 207.300622 
L 153.679772 206.24725 
L 155.970177 206.24725 
L 155.970177 205.720564 
L 156.598505 205.720564 
L 156.598505 205.193878 
L 157.1279 205.193878 
L 157.1279 204.667192 
L 157.472107 204.667192 
L 157.472107 204.140506 
L 158.104304 204.140506 
L 158.104304 203.613819 
L 160.087195 203.613819 
L 160.087195 203.087133 
L 165.435121 203.087133 
L 165.435121 202.560447 
L 169.493697 202.560447 
L 169.493697 202.033761 
L 169.906925 202.033761 
L 169.906925 201.507075 
L 170.346825 201.507075 
L 170.346825 200.980389 
L 179.381498 200.980389 
L 179.381498 200.453703 
L 179.781193 200.453703 
L 179.844303 198.873645 
L 180.493521 198.873645 
L 180.569223 196.7669 
L 180.679662 196.7669 
L 180.679662 195.713528 
L 180.898464 195.713528 
L 180.962588 193.606784 
L 181.011755 193.606784 
L 181.104791 190.446667 
L 181.124314 190.446667 
L 181.207046 185.179807 
L 181.274884 185.179807 
L 181.274884 184.653121 
L 181.66228 184.653121 
L 181.66228 184.126434 
L 182.8418 184.126434 
L 182.8418 183.599748 
L 183.539378 183.599748 
L 183.539378 181.493004 
L 184.307935 181.493004 
L 184.38903 178.859574 
L 184.433471 178.859574 
L 184.542078 175.699457 
L 184.562116 175.699457 
L 184.566121 174.646085 
L 186.135184 174.646085 
L 186.135184 174.119399 
L 186.679248 174.119399 
L 186.679248 172.012655 
L 187.07904 172.012655 
L 187.179296 167.799166 
L 187.230927 167.799166 
L 187.330316 163.058991 
L 187.343981 163.058991 
L 187.422344 159.372189 
L 190.479659 159.372189 
L 190.479659 158.845503 
L 191.547478 158.845503 
L 191.547478 158.318817 
L 191.869182 158.318817 
L 191.869182 157.265444 
L 192.185058 157.265444 
L 192.185058 156.738758 
L 192.762646 156.738758 
L 192.762646 156.212072 
L 194.798891 156.212072 
L 194.798891 155.685386 
L 196.761895 155.685386 
L 196.857148 149.365153 
L 196.888784 149.365153 
L 196.947947 145.678351 
L 199.810291 145.678351 
L 199.810291 144.624978 
L 199.996418 144.624978 
L 199.996418 143.571606 
L 200.206731 143.571606 
L 200.206731 141.991548 
L 200.380613 141.991548 
L 200.380613 141.464862 
L 200.519123 141.464862 
L 200.597552 137.251373 
L 200.634245 137.251373 
L 200.651766 133.564571 
L 206.655981 133.564571 
L 206.655981 133.037885 
L 207.434916 133.037885 
L 207.541414 127.244338 
L 207.552135 127.244338 
L 207.619529 121.450791 
L 208.250703 121.450791 
L 208.250703 119.344047 
L 208.474766 119.344047 
L 208.474766 118.817361 
L 209.43397 118.817361 
L 209.43397 118.290674 
L 209.647224 118.290674 
L 209.647224 117.237302 
L 209.860719 117.237302 
L 209.860719 116.710616 
L 210.014024 116.710616 
L 210.119801 106.176895 
L 210.128125 106.176895 
L 210.194571 99.856662 
L 211.555776 99.856662 
L 211.555776 99.329976 
L 211.695783 99.329976 
L 211.695783 98.276603 
L 211.990761 98.276603 
L 212.012352 95.643173 
L 212.13063 95.643173 
L 212.13063 94.589801 
L 212.35667 94.589801 
L 212.431371 91.95637 
L 212.583835 91.95637 
L 212.669563 87.742882 
L 213.19234 87.742882 
L 213.293653 83.529393 
L 213.460956 83.529393 
L 213.460956 81.949335 
L 213.739784 81.949335 
L 213.845448 76.682474 
L 213.865608 76.682474 
L 213.938588 68.782183 
L 213.977189 68.782183 
L 214.010525 64.568694 
L 216.872173 64.568694 
L 216.872173 64.042008 
L 219.855295 64.042008 
L 219.855295 63.515322 
L 221.109645 63.515322 
L 221.109645 62.988636 
L 221.538789 62.988636 
L 221.538789 62.46195 
L 221.718572 62.46195 
L 221.718572 61.935264 
L 221.992312 61.935264 
L 222.073137 57.195089 
L 222.186037 57.195089 
L 222.255827 53.508287 
L 222.297751 53.508287 
L 222.329013 51.401542 
L 224.662986 51.401542 
L 224.662986 50.34817 
L 225.113157 50.34817 
L 225.113157 49.821484 
L 225.554672 49.821484 
L 225.658203 47.188054 
L 225.685506 47.188054 
L 225.733183 46.134681 
L 225.82063 46.134681 
L 225.883682 42.447879 
L 225.998687 42.447879 
L 226.102213 33.494215 
L 226.125136 33.494215 
L 226.184152 30.334099 
L 338.688 30.334099 
L 338.688 30.334099 
" style="fill:none;stroke:#ff0000;stroke-linecap:square;stroke-width:1.5;"/>
   </g>
   <g id="line2d_53">
    <defs>
     <path d="M 0 -6 
L -5.196152 -3 
L -5.196152 3 
L -0 6 
L 5.196152 3 
L 5.196152 -3 
z
" id="mfb651855b1" style="stroke:#ff0000;stroke-linejoin:miter;stroke-width:1.5;"/>
    </defs>
    <g>
     <use style="fill-opacity:0;stroke:#ff0000;stroke-linejoin:miter;stroke-width:1.5;" x="138.872098" xlink:href="#mfb651855b1" y="222.574518"/>
     <use style="fill-opacity:0;stroke:#ff0000;stroke-linejoin:miter;stroke-width:1.5;" x="200.562383" xlink:href="#mfb651855b1" y="139.884804"/>
     <use style="fill-opacity:0;stroke:#ff0000;stroke-linejoin:miter;stroke-width:1.5;" x="226.184152" xlink:href="#mfb651855b1" y="30.860785"/>
     <use style="fill-opacity:0;stroke:#ff0000;stroke-linejoin:miter;stroke-width:1.5;" x="226.184152" xlink:href="#mfb651855b1" y="30.334099"/>
     <use style="fill-opacity:0;stroke:#ff0000;stroke-linejoin:miter;stroke-width:1.5;" x="226.184152" xlink:href="#mfb651855b1" y="30.334099"/>
     <use style="fill-opacity:0;stroke:#ff0000;stroke-linejoin:miter;stroke-width:1.5;" x="338.688" xlink:href="#mfb651855b1" y="30.334099"/>
    </g>
   </g>
   <g id="line2d_54">
    <path style="fill:none;stroke:#ff0000;stroke-linecap:square;stroke-width:1.5;"/>
    <g/>
   </g>
   <g id="line2d_55">
    <path d="M 338.688 193.606784 
L 369.60768 293.571802 
" style="fill:none;stroke:#6495ed;stroke-linecap:square;stroke-width:1.5;"/>
    <g>
     <use style="fill-opacity:0;stroke:#6495ed;stroke-linejoin:miter;stroke-width:1.5;" x="338.688" xlink:href="#m5822ae9696" y="193.606784"/>
     <use style="fill-opacity:0;stroke:#6495ed;stroke-linejoin:miter;stroke-width:1.5;" x="369.60768" xlink:href="#m5822ae9696" y="293.571802"/>
    </g>
   </g>
   <g id="line2d_56">
    <path d="M 338.688 30.334099 
L 369.60768 241.998701 
" style="fill:none;stroke:#ff00ff;stroke-linecap:square;stroke-width:1.5;"/>
    <g>
     <use style="fill-opacity:0;stroke:#ff00ff;stroke-linejoin:miter;stroke-width:1.5;" x="338.688" xlink:href="#m49e70f48a5" y="30.334099"/>
     <use style="fill-opacity:0;stroke:#ff00ff;stroke-linejoin:miter;stroke-width:1.5;" x="369.60768" xlink:href="#m49e70f48a5" y="241.998701"/>
    </g>
   </g>
   <g id="line2d_57">
    <path d="M 338.688 30.334099 
L 369.60768 190.4256 
" style="fill:none;stroke:#000080;stroke-linecap:square;stroke-width:1.5;"/>
    <g>
     <use style="fill-opacity:0;stroke:#000080;stroke-width:1.5;" x="338.688" xlink:href="#mc32b70151d" y="30.334099"/>
     <use style="fill-opacity:0;stroke:#000080;stroke-width:1.5;" x="369.60768" xlink:href="#mc32b70151d" y="190.4256"/>
    </g>
   </g>
   <g id="line2d_58">
    <path d="M 338.688 30.334099 
L 369.60768 138.852499 
" style="fill:none;stroke:#ff7500;stroke-linecap:square;stroke-width:1.5;"/>
    <g>
     <use style="fill-opacity:0;stroke:#ff7500;stroke-linejoin:bevel;stroke-width:1.5;" x="338.688" xlink:href="#mc59414657c" y="30.334099"/>
     <use style="fill-opacity:0;stroke:#ff7500;stroke-linejoin:bevel;stroke-width:1.5;" x="369.60768" xlink:href="#mc59414657c" y="138.852499"/>
    </g>
   </g>
   <g id="line2d_59">
    <path d="M 338.688 30.334099 
L 369.60768 87.279398 
" style="fill:none;stroke:#ff0000;stroke-linecap:square;stroke-width:1.5;"/>
    <g>
     <use style="fill-opacity:0;stroke:#ff0000;stroke-linejoin:miter;stroke-width:1.5;" x="338.688" xlink:href="#mfb651855b1" y="30.334099"/>
     <use style="fill-opacity:0;stroke:#ff0000;stroke-linejoin:miter;stroke-width:1.5;" x="369.60768" xlink:href="#mfb651855b1" y="87.279398"/>
    </g>
   </g>
   <g id="line2d_60">
    <path d="M 338.688 298.944 
L 338.688 30.334099 
" style="fill:none;stroke:#000000;stroke-linecap:square;stroke-width:1.5;"/>
   </g>
   <g id="patch_3">
    <path d="M 57.6 298.944 
L 57.6 27.648 
" style="fill:none;stroke:#000000;stroke-linecap:square;stroke-linejoin:miter;stroke-width:0.8;"/>
   </g>
   <g id="patch_4">
    <path d="M 338.688 298.944 
L 338.688 27.648 
" style="fill:none;stroke:#000000;stroke-linecap:square;stroke-linejoin:miter;stroke-width:0.8;"/>
   </g>
   <g id="patch_5">
    <path d="M 57.6 298.944 
L 338.688 298.944 
" style="fill:none;stroke:#000000;stroke-linecap:square;stroke-linejoin:miter;stroke-width:0.8;"/>
   </g>
   <g id="patch_6">
    <path d="M 57.6 27.648 
L 338.688 27.648 
" style="fill:none;stroke:#000000;stroke-linecap:square;stroke-linejoin:miter;stroke-width:0.8;"/>
   </g>
   <g id="text_13">
    <!-- SLSQP-11- -->
    <g transform="translate(375.22944 298.262739)scale(0.17 -0.17)">
     <defs>
      <path d="M 3425 4513 
L 3425 3897 
Q 3066 4069 2747 4153 
Q 2428 4238 2131 4238 
Q 1616 4238 1336 4038 
Q 1056 3838 1056 3469 
Q 1056 3159 1242 3001 
Q 1428 2844 1947 2747 
L 2328 2669 
Q 3034 2534 3370 2195 
Q 3706 1856 3706 1288 
Q 3706 609 3251 259 
Q 2797 -91 1919 -91 
Q 1588 -91 1214 -16 
Q 841 59 441 206 
L 441 856 
Q 825 641 1194 531 
Q 1563 422 1919 422 
Q 2459 422 2753 634 
Q 3047 847 3047 1241 
Q 3047 1584 2836 1778 
Q 2625 1972 2144 2069 
L 1759 2144 
Q 1053 2284 737 2584 
Q 422 2884 422 3419 
Q 422 4038 858 4394 
Q 1294 4750 2059 4750 
Q 2388 4750 2728 4690 
Q 3069 4631 3425 4513 
z
" id="DejaVuSans-53" transform="scale(0.015625)"/>
      <path d="M 628 4666 
L 1259 4666 
L 1259 531 
L 3531 531 
L 3531 0 
L 628 0 
L 628 4666 
z
" id="DejaVuSans-4c" transform="scale(0.015625)"/>
      <path d="M 2522 4238 
Q 1834 4238 1429 3725 
Q 1025 3213 1025 2328 
Q 1025 1447 1429 934 
Q 1834 422 2522 422 
Q 3209 422 3611 934 
Q 4013 1447 4013 2328 
Q 4013 3213 3611 3725 
Q 3209 4238 2522 4238 
z
M 3406 84 
L 4238 -825 
L 3475 -825 
L 2784 -78 
Q 2681 -84 2626 -87 
Q 2572 -91 2522 -91 
Q 1538 -91 948 567 
Q 359 1225 359 2328 
Q 359 3434 948 4092 
Q 1538 4750 2522 4750 
Q 3503 4750 4090 4092 
Q 4678 3434 4678 2328 
Q 4678 1516 4351 937 
Q 4025 359 3406 84 
z
" id="DejaVuSans-51" transform="scale(0.015625)"/>
      <path d="M 1259 4147 
L 1259 2394 
L 2053 2394 
Q 2494 2394 2734 2622 
Q 2975 2850 2975 3272 
Q 2975 3691 2734 3919 
Q 2494 4147 2053 4147 
L 1259 4147 
z
M 628 4666 
L 2053 4666 
Q 2838 4666 3239 4311 
Q 3641 3956 3641 3272 
Q 3641 2581 3239 2228 
Q 2838 1875 2053 1875 
L 1259 1875 
L 1259 0 
L 628 0 
L 628 4666 
z
" id="DejaVuSans-50" transform="scale(0.015625)"/>
     </defs>
     <use xlink:href="#DejaVuSans-53"/>
     <use x="63.476562" xlink:href="#DejaVuSans-4c"/>
     <use x="119.189453" xlink:href="#DejaVuSans-53"/>
     <use x="182.666016" xlink:href="#DejaVuSans-51"/>
     <use x="261.376953" xlink:href="#DejaVuSans-50"/>
     <use x="319.429688" xlink:href="#DejaVuSans-2d"/>
     <use x="355.513672" xlink:href="#DejaVuSans-31"/>
     <use x="419.136719" xlink:href="#DejaVuSans-31"/>
     <use x="482.759766" xlink:href="#DejaVuSans-2d"/>
    </g>
   </g>
   <g id="text_14">
    <!-- HE-ES Gla -->
    <g transform="translate(375.22944 246.689638)scale(0.17 -0.17)">
     <defs>
      <path d="M 628 4666 
L 1259 4666 
L 1259 2753 
L 3553 2753 
L 3553 4666 
L 4184 4666 
L 4184 0 
L 3553 0 
L 3553 2222 
L 1259 2222 
L 1259 0 
L 628 0 
L 628 4666 
z
" id="DejaVuSans-48" transform="scale(0.015625)"/>
      <path d="M 628 4666 
L 3578 4666 
L 3578 4134 
L 1259 4134 
L 1259 2753 
L 3481 2753 
L 3481 2222 
L 1259 2222 
L 1259 531 
L 3634 531 
L 3634 0 
L 628 0 
L 628 4666 
z
" id="DejaVuSans-45" transform="scale(0.015625)"/>
      <path d="M 3809 666 
L 3809 1919 
L 2778 1919 
L 2778 2438 
L 4434 2438 
L 4434 434 
Q 4069 175 3628 42 
Q 3188 -91 2688 -91 
Q 1594 -91 976 548 
Q 359 1188 359 2328 
Q 359 3472 976 4111 
Q 1594 4750 2688 4750 
Q 3144 4750 3555 4637 
Q 3966 4525 4313 4306 
L 4313 3634 
Q 3963 3931 3569 4081 
Q 3175 4231 2741 4231 
Q 1884 4231 1454 3753 
Q 1025 3275 1025 2328 
Q 1025 1384 1454 906 
Q 1884 428 2741 428 
Q 3075 428 3337 486 
Q 3600 544 3809 666 
z
" id="DejaVuSans-47" transform="scale(0.015625)"/>
     </defs>
     <use xlink:href="#DejaVuSans-48"/>
     <use x="75.195312" xlink:href="#DejaVuSans-45"/>
     <use x="138.378906" xlink:href="#DejaVuSans-2d"/>
     <use x="174.462891" xlink:href="#DejaVuSans-45"/>
     <use x="237.646484" xlink:href="#DejaVuSans-53"/>
     <use x="301.123047" xlink:href="#DejaVuSans-20"/>
     <use x="332.910156" xlink:href="#DejaVuSans-47"/>
     <use x="410.400391" xlink:href="#DejaVuSans-6c"/>
     <use x="438.183594" xlink:href="#DejaVuSans-61"/>
    </g>
   </g>
   <g id="text_15">
    <!-- CMA-ES-20 -->
    <g transform="translate(375.22944 195.116537)scale(0.17 -0.17)">
     <defs>
      <path d="M 4122 4306 
L 4122 3641 
Q 3803 3938 3442 4084 
Q 3081 4231 2675 4231 
Q 1875 4231 1450 3742 
Q 1025 3253 1025 2328 
Q 1025 1406 1450 917 
Q 1875 428 2675 428 
Q 3081 428 3442 575 
Q 3803 722 4122 1019 
L 4122 359 
Q 3791 134 3420 21 
Q 3050 -91 2638 -91 
Q 1578 -91 968 557 
Q 359 1206 359 2328 
Q 359 3453 968 4101 
Q 1578 4750 2638 4750 
Q 3056 4750 3426 4639 
Q 3797 4528 4122 4306 
z
" id="DejaVuSans-43" transform="scale(0.015625)"/>
      <path d="M 628 4666 
L 1569 4666 
L 2759 1491 
L 3956 4666 
L 4897 4666 
L 4897 0 
L 4281 0 
L 4281 4097 
L 3078 897 
L 2444 897 
L 1241 4097 
L 1241 0 
L 628 0 
L 628 4666 
z
" id="DejaVuSans-4d" transform="scale(0.015625)"/>
      <path d="M 2188 4044 
L 1331 1722 
L 3047 1722 
L 2188 4044 
z
M 1831 4666 
L 2547 4666 
L 4325 0 
L 3669 0 
L 3244 1197 
L 1141 1197 
L 716 0 
L 50 0 
L 1831 4666 
z
" id="DejaVuSans-41" transform="scale(0.015625)"/>
     </defs>
     <use xlink:href="#DejaVuSans-43"/>
     <use x="69.824219" xlink:href="#DejaVuSans-4d"/>
     <use x="156.103516" xlink:href="#DejaVuSans-41"/>
     <use x="222.261719" xlink:href="#DejaVuSans-2d"/>
     <use x="258.345703" xlink:href="#DejaVuSans-45"/>
     <use x="321.529297" xlink:href="#DejaVuSans-53"/>
     <use x="385.005859" xlink:href="#DejaVuSans-2d"/>
     <use x="421.089844" xlink:href="#DejaVuSans-32"/>
     <use x="484.712891" xlink:href="#DejaVuSans-30"/>
    </g>
   </g>
   <g id="text_16">
    <!-- SLSQP+lq- -->
    <g transform="translate(375.22944 143.543437)scale(0.17 -0.17)">
     <defs>
      <path d="M 2944 4013 
L 2944 2272 
L 4684 2272 
L 4684 1741 
L 2944 1741 
L 2944 0 
L 2419 0 
L 2419 1741 
L 678 1741 
L 678 2272 
L 2419 2272 
L 2419 4013 
L 2944 4013 
z
" id="DejaVuSans-2b" transform="scale(0.015625)"/>
      <path d="M 947 1747 
Q 947 1113 1208 752 
Q 1469 391 1925 391 
Q 2381 391 2643 752 
Q 2906 1113 2906 1747 
Q 2906 2381 2643 2742 
Q 2381 3103 1925 3103 
Q 1469 3103 1208 2742 
Q 947 2381 947 1747 
z
M 2906 525 
Q 2725 213 2448 61 
Q 2172 -91 1784 -91 
Q 1150 -91 751 415 
Q 353 922 353 1747 
Q 353 2572 751 3078 
Q 1150 3584 1784 3584 
Q 2172 3584 2448 3432 
Q 2725 3281 2906 2969 
L 2906 3500 
L 3481 3500 
L 3481 -1331 
L 2906 -1331 
L 2906 525 
z
" id="DejaVuSans-71" transform="scale(0.015625)"/>
     </defs>
     <use xlink:href="#DejaVuSans-53"/>
     <use x="63.476562" xlink:href="#DejaVuSans-4c"/>
     <use x="119.189453" xlink:href="#DejaVuSans-53"/>
     <use x="182.666016" xlink:href="#DejaVuSans-51"/>
     <use x="261.376953" xlink:href="#DejaVuSans-50"/>
     <use x="321.679688" xlink:href="#DejaVuSans-2b"/>
     <use x="405.46875" xlink:href="#DejaVuSans-6c"/>
     <use x="433.251953" xlink:href="#DejaVuSans-71"/>
     <use x="496.728516" xlink:href="#DejaVuSans-2d"/>
    </g>
   </g>
   <g id="text_17">
    <!-- lq-CMA-ES -->
    <g transform="translate(375.22944 91.970336)scale(0.17 -0.17)">
     <use xlink:href="#DejaVuSans-6c"/>
     <use x="27.783203" xlink:href="#DejaVuSans-71"/>
     <use x="91.259766" xlink:href="#DejaVuSans-2d"/>
     <use x="127.34375" xlink:href="#DejaVuSans-43"/>
     <use x="197.167969" xlink:href="#DejaVuSans-4d"/>
     <use x="283.447266" xlink:href="#DejaVuSans-41"/>
     <use x="349.605469" xlink:href="#DejaVuSans-2d"/>
     <use x="385.689453" xlink:href="#DejaVuSans-45"/>
     <use x="448.873047" xlink:href="#DejaVuSans-53"/>
    </g>
   </g>
   <g id="text_18">
    <!-- best 2009 -->
    <g transform="translate(375.22944 40.397235)scale(0.17 -0.17)">
     <defs>
      <path d="M 3116 1747 
Q 3116 2381 2855 2742 
Q 2594 3103 2138 3103 
Q 1681 3103 1420 2742 
Q 1159 2381 1159 1747 
Q 1159 1113 1420 752 
Q 1681 391 2138 391 
Q 2594 391 2855 752 
Q 3116 1113 3116 1747 
z
M 1159 2969 
Q 1341 3281 1617 3432 
Q 1894 3584 2278 3584 
Q 2916 3584 3314 3078 
Q 3713 2572 3713 1747 
Q 3713 922 3314 415 
Q 2916 -91 2278 -91 
Q 1894 -91 1617 61 
Q 1341 213 1159 525 
L 1159 0 
L 581 0 
L 581 4863 
L 1159 4863 
L 1159 2969 
z
" id="DejaVuSans-62" transform="scale(0.015625)"/>
      <path d="M 703 97 
L 703 672 
Q 941 559 1184 500 
Q 1428 441 1663 441 
Q 2288 441 2617 861 
Q 2947 1281 2994 2138 
Q 2813 1869 2534 1725 
Q 2256 1581 1919 1581 
Q 1219 1581 811 2004 
Q 403 2428 403 3163 
Q 403 3881 828 4315 
Q 1253 4750 1959 4750 
Q 2769 4750 3195 4129 
Q 3622 3509 3622 2328 
Q 3622 1225 3098 567 
Q 2575 -91 1691 -91 
Q 1453 -91 1209 -44 
Q 966 3 703 97 
z
M 1959 2075 
Q 2384 2075 2632 2365 
Q 2881 2656 2881 3163 
Q 2881 3666 2632 3958 
Q 2384 4250 1959 4250 
Q 1534 4250 1286 3958 
Q 1038 3666 1038 3163 
Q 1038 2656 1286 2365 
Q 1534 2075 1959 2075 
z
" id="DejaVuSans-39" transform="scale(0.015625)"/>
     </defs>
     <use xlink:href="#DejaVuSans-62"/>
     <use x="63.476562" xlink:href="#DejaVuSans-65"/>
     <use x="125" xlink:href="#DejaVuSans-73"/>
     <use x="177.099609" xlink:href="#DejaVuSans-74"/>
     <use x="216.308594" xlink:href="#DejaVuSans-20"/>
     <use x="248.095703" xlink:href="#DejaVuSans-32"/>
     <use x="311.71875" xlink:href="#DejaVuSans-30"/>
     <use x="375.341797" xlink:href="#DejaVuSans-30"/>
     <use x="438.964844" xlink:href="#DejaVuSans-39"/>
    </g>
   </g>
   <g id="text_19">
    <!-- bbob f19, 3-D -->
    <g transform="translate(60.41088 38.111366)scale(0.102 -0.102)">
     <defs>
      <path d="M 2597 2516 
Q 3050 2419 3304 2112 
Q 3559 1806 3559 1356 
Q 3559 666 3084 287 
Q 2609 -91 1734 -91 
Q 1441 -91 1130 -33 
Q 819 25 488 141 
L 488 750 
Q 750 597 1062 519 
Q 1375 441 1716 441 
Q 2309 441 2620 675 
Q 2931 909 2931 1356 
Q 2931 1769 2642 2001 
Q 2353 2234 1838 2234 
L 1294 2234 
L 1294 2753 
L 1863 2753 
Q 2328 2753 2575 2939 
Q 2822 3125 2822 3475 
Q 2822 3834 2567 4026 
Q 2313 4219 1838 4219 
Q 1578 4219 1281 4162 
Q 984 4106 628 3988 
L 628 4550 
Q 988 4650 1302 4700 
Q 1616 4750 1894 4750 
Q 2613 4750 3031 4423 
Q 3450 4097 3450 3541 
Q 3450 3153 3228 2886 
Q 3006 2619 2597 2516 
z
" id="DejaVuSans-33" transform="scale(0.015625)"/>
      <path d="M 1259 4147 
L 1259 519 
L 2022 519 
Q 2988 519 3436 956 
Q 3884 1394 3884 2338 
Q 3884 3275 3436 3711 
Q 2988 4147 2022 4147 
L 1259 4147 
z
M 628 4666 
L 1925 4666 
Q 3281 4666 3915 4102 
Q 4550 3538 4550 2338 
Q 4550 1131 3912 565 
Q 3275 0 1925 0 
L 628 0 
L 628 4666 
z
" id="DejaVuSans-44" transform="scale(0.015625)"/>
     </defs>
     <use xlink:href="#DejaVuSans-62"/>
     <use x="63.476562" xlink:href="#DejaVuSans-62"/>
     <use x="126.953125" xlink:href="#DejaVuSans-6f"/>
     <use x="188.134766" xlink:href="#DejaVuSans-62"/>
     <use x="251.611328" xlink:href="#DejaVuSans-20"/>
     <use x="283.398438" xlink:href="#DejaVuSans-66"/>
     <use x="318.603516" xlink:href="#DejaVuSans-31"/>
     <use x="382.226562" xlink:href="#DejaVuSans-39"/>
     <use x="445.849609" xlink:href="#DejaVuSans-2c"/>
     <use x="477.636719" xlink:href="#DejaVuSans-20"/>
     <use x="509.423828" xlink:href="#DejaVuSans-33"/>
     <use x="573.046875" xlink:href="#DejaVuSans-2d"/>
     <use x="609.130859" xlink:href="#DejaVuSans-44"/>
    </g>
    <!-- 51 targets: 100..1e-08 -->
    <g transform="translate(60.41088 49.533135)scale(0.102 -0.102)">
     <defs>
      <path d="M 691 4666 
L 3169 4666 
L 3169 4134 
L 1269 4134 
L 1269 2991 
Q 1406 3038 1543 3061 
Q 1681 3084 1819 3084 
Q 2600 3084 3056 2656 
Q 3513 2228 3513 1497 
Q 3513 744 3044 326 
Q 2575 -91 1722 -91 
Q 1428 -91 1123 -41 
Q 819 9 494 109 
L 494 744 
Q 775 591 1075 516 
Q 1375 441 1709 441 
Q 2250 441 2565 725 
Q 2881 1009 2881 1497 
Q 2881 1984 2565 2268 
Q 2250 2553 1709 2553 
Q 1456 2553 1204 2497 
Q 953 2441 691 2322 
L 691 4666 
z
" id="DejaVuSans-35" transform="scale(0.015625)"/>
      <path d="M 750 794 
L 1409 794 
L 1409 0 
L 750 0 
L 750 794 
z
M 750 3309 
L 1409 3309 
L 1409 2516 
L 750 2516 
L 750 3309 
z
" id="DejaVuSans-3a" transform="scale(0.015625)"/>
     </defs>
     <use xlink:href="#DejaVuSans-35"/>
     <use x="63.623047" xlink:href="#DejaVuSans-31"/>
     <use x="127.246094" xlink:href="#DejaVuSans-20"/>
     <use x="159.033203" xlink:href="#DejaVuSans-74"/>
     <use x="198.242188" xlink:href="#DejaVuSans-61"/>
     <use x="259.521484" xlink:href="#DejaVuSans-72"/>
     <use x="298.884766" xlink:href="#DejaVuSans-67"/>
     <use x="362.361328" xlink:href="#DejaVuSans-65"/>
     <use x="423.884766" xlink:href="#DejaVuSans-74"/>
     <use x="463.09375" xlink:href="#DejaVuSans-73"/>
     <use x="515.193359" xlink:href="#DejaVuSans-3a"/>
     <use x="548.884766" xlink:href="#DejaVuSans-20"/>
     <use x="580.671875" xlink:href="#DejaVuSans-31"/>
     <use x="644.294922" xlink:href="#DejaVuSans-30"/>
     <use x="707.917969" xlink:href="#DejaVuSans-30"/>
     <use x="771.541016" xlink:href="#DejaVuSans-2e"/>
     <use x="803.328125" xlink:href="#DejaVuSans-2e"/>
     <use x="835.115234" xlink:href="#DejaVuSans-31"/>
     <use x="898.738281" xlink:href="#DejaVuSans-65"/>
     <use x="960.261719" xlink:href="#DejaVuSans-2d"/>
     <use x="996.345703" xlink:href="#DejaVuSans-30"/>
     <use x="1059.96875" xlink:href="#DejaVuSans-38"/>
    </g>
    <!-- 15 instances -->
    <g transform="translate(60.41088 60.954904)scale(0.102 -0.102)">
     <use xlink:href="#DejaVuSans-31"/>
     <use x="63.623047" xlink:href="#DejaVuSans-35"/>
     <use x="127.246094" xlink:href="#DejaVuSans-20"/>
     <use x="159.033203" xlink:href="#DejaVuSans-69"/>
     <use x="186.816406" xlink:href="#DejaVuSans-6e"/>
     <use x="250.195312" xlink:href="#DejaVuSans-73"/>
     <use x="302.294922" xlink:href="#DejaVuSans-74"/>
     <use x="341.503906" xlink:href="#DejaVuSans-61"/>
     <use x="402.783203" xlink:href="#DejaVuSans-6e"/>
     <use x="466.162109" xlink:href="#DejaVuSans-63"/>
     <use x="521.142578" xlink:href="#DejaVuSans-65"/>
     <use x="582.666016" xlink:href="#DejaVuSans-73"/>
    </g>
   </g>
   <g id="text_20">
    <!-- v2.4.1.1 -->
    <g style="fill:#808080;" transform="translate(177.692437 294.151352)scale(0.1 -0.1)">
     <use xlink:href="#DejaVuSans-76"/>
     <use x="59.179688" xlink:href="#DejaVuSans-32"/>
     <use x="122.802734" xlink:href="#DejaVuSans-2e"/>
     <use x="154.589844" xlink:href="#DejaVuSans-34"/>
     <use x="218.212891" xlink:href="#DejaVuSans-2e"/>
     <use x="250" xlink:href="#DejaVuSans-31"/>
     <use x="313.623047" xlink:href="#DejaVuSans-2e"/>
     <use x="345.410156" xlink:href="#DejaVuSans-31"/>
    </g>
   </g>
   <g id="text_21">
    <!-- 19 Griewank-Rosenbrock F8F2 -->
    <g transform="translate(46.042437 21.648)scale(0.2 -0.2)">
     <defs>
      <path d="M 269 3500 
L 844 3500 
L 1563 769 
L 2278 3500 
L 2956 3500 
L 3675 769 
L 4391 3500 
L 4966 3500 
L 4050 0 
L 3372 0 
L 2619 2869 
L 1863 0 
L 1184 0 
L 269 3500 
z
" id="DejaVuSans-77" transform="scale(0.015625)"/>
      <path d="M 581 4863 
L 1159 4863 
L 1159 1991 
L 2875 3500 
L 3609 3500 
L 1753 1863 
L 3688 0 
L 2938 0 
L 1159 1709 
L 1159 0 
L 581 0 
L 581 4863 
z
" id="DejaVuSans-6b" transform="scale(0.015625)"/>
      <path d="M 2841 2188 
Q 3044 2119 3236 1894 
Q 3428 1669 3622 1275 
L 4263 0 
L 3584 0 
L 2988 1197 
Q 2756 1666 2539 1819 
Q 2322 1972 1947 1972 
L 1259 1972 
L 1259 0 
L 628 0 
L 628 4666 
L 2053 4666 
Q 2853 4666 3247 4331 
Q 3641 3997 3641 3322 
Q 3641 2881 3436 2590 
Q 3231 2300 2841 2188 
z
M 1259 4147 
L 1259 2491 
L 2053 2491 
Q 2509 2491 2742 2702 
Q 2975 2913 2975 3322 
Q 2975 3731 2742 3939 
Q 2509 4147 2053 4147 
L 1259 4147 
z
" id="DejaVuSans-52" transform="scale(0.015625)"/>
     </defs>
     <use xlink:href="#DejaVuSans-31"/>
     <use x="63.623047" xlink:href="#DejaVuSans-39"/>
     <use x="127.246094" xlink:href="#DejaVuSans-20"/>
     <use x="159.033203" xlink:href="#DejaVuSans-47"/>
     <use x="236.523438" xlink:href="#DejaVuSans-72"/>
     <use x="277.636719" xlink:href="#DejaVuSans-69"/>
     <use x="305.419922" xlink:href="#DejaVuSans-65"/>
     <use x="366.943359" xlink:href="#DejaVuSans-77"/>
     <use x="448.730469" xlink:href="#DejaVuSans-61"/>
     <use x="510.009766" xlink:href="#DejaVuSans-6e"/>
     <use x="573.388672" xlink:href="#DejaVuSans-6b"/>
     <use x="631.298828" xlink:href="#DejaVuSans-2d"/>
     <use x="667.382812" xlink:href="#DejaVuSans-52"/>
     <use x="732.365234" xlink:href="#DejaVuSans-6f"/>
     <use x="793.546875" xlink:href="#DejaVuSans-73"/>
     <use x="845.646484" xlink:href="#DejaVuSans-65"/>
     <use x="907.169922" xlink:href="#DejaVuSans-6e"/>
     <use x="970.548828" xlink:href="#DejaVuSans-62"/>
     <use x="1034.025391" xlink:href="#DejaVuSans-72"/>
     <use x="1072.888672" xlink:href="#DejaVuSans-6f"/>
     <use x="1134.070312" xlink:href="#DejaVuSans-63"/>
     <use x="1189.050781" xlink:href="#DejaVuSans-6b"/>
     <use x="1246.960938" xlink:href="#DejaVuSans-20"/>
     <use x="1278.748047" xlink:href="#DejaVuSans-46"/>
     <use x="1336.267578" xlink:href="#DejaVuSans-38"/>
     <use x="1399.890625" xlink:href="#DejaVuSans-46"/>
     <use x="1457.410156" xlink:href="#DejaVuSans-32"/>
    </g>
   </g>
  </g>
 </g>
 <defs>
  <clipPath id="pbd3a03f190">
   <rect height="271.296" width="281.088" x="57.6" y="27.648"/>
  </clipPath>
 </defs>
</svg>
