<?xml version="1.0" encoding="utf-8" standalone="no"?>
<!DOCTYPE svg PUBLIC "-//W3C//DTD SVG 1.1//EN"
  "http://www.w3.org/Graphics/SVG/1.1/DTD/svg11.dtd">
<svg height="345.6pt" version="1.1" viewBox="0 0 460.8 345.6" width="460.8pt" xmlns="http://www.w3.org/2000/svg" xmlns:xlink="http://www.w3.org/1999/xlink">
 <metadata>
  <rdf:RDF xmlns:cc="http://creativecommons.org/ns#" xmlns:dc="http://purl.org/dc/elements/1.1/" xmlns:rdf="http://www.w3.org/1999/02/22-rdf-syntax-ns#">
   <cc:Work>
    <dc:type rdf:resource="http://purl.org/dc/dcmitype/StillImage"/>
    <dc:date>2022-03-29T11:28:10.230950</dc:date>
    <dc:format>image/svg+xml</dc:format>
    <dc:creator>
     <cc:Agent>
      <dc:title>Matplotlib v3.4.3, https://matplotlib.org/</dc:title>
     </cc:Agent>
    </dc:creator>
   </cc:Work>
  </rdf:RDF>
 </metadata>
 <defs>
  <style type="text/css">*{stroke-linecap:butt;stroke-linejoin:round;}</style>
 </defs>
 <g id="figure_1">
  <g id="patch_1">
   <path d="M 0 345.6 
L 460.8 345.6 
L 460.8 0 
L 0 0 
z
" style="fill:#ffffff;"/>
  </g>
  <g id="axes_1">
   <g id="patch_2">
    <path d="M 57.6 298.944 
L 338.688 298.944 
L 338.688 27.648 
L 57.6 27.648 
z
" style="fill:#ffffff;"/>
   </g>
   <g id="line2d_1">
    <path d="M 5.356583 298.944 
L 5.356583 293.677139 
L 63.153604 293.677139 
L 63.153604 288.410278 
L 94.347675 288.410278 
L 94.347675 283.143418 
L 104.205136 283.143418 
L 104.205136 277.876557 
L 113.839203 277.876557 
L 113.839203 272.609696 
L 120.118198 272.609696 
L 120.118198 267.342835 
L 125.875108 267.342835 
L 125.875108 262.075974 
L 131.50914 262.075974 
L 131.50914 256.809114 
L 142.456092 256.809114 
L 142.456092 251.542253 
L 150.344189 251.542253 
L 150.344189 246.275392 
L 163.142032 246.275392 
L 163.142032 241.008531 
L 165.421922 241.008531 
L 165.421922 235.74167 
L 167.487573 235.74167 
L 167.487573 230.47481 
L 169.513168 230.47481 
L 169.513168 225.207949 
L 179.894888 225.207949 
L 179.894888 219.941088 
L 180.903899 219.941088 
L 180.903899 214.674227 
L 182.071084 214.674227 
L 182.071084 209.407366 
L 183.873913 209.407366 
L 183.873913 204.140506 
L 193.753638 204.140506 
L 193.753638 198.873645 
L 197.177562 198.873645 
L 197.177562 193.606784 
L 198.237486 193.606784 
L 198.237486 188.339923 
L 199.466297 188.339923 
L 199.466297 183.073062 
L 200.796794 183.073062 
L 200.796794 177.806202 
L 203.190123 177.806202 
L 203.190123 172.539341 
L 204.163074 172.539341 
L 204.163074 167.27248 
L 204.999382 167.27248 
L 204.999382 162.005619 
L 205.274967 162.005619 
L 205.274967 156.738758 
L 206.825921 156.738758 
L 206.825921 151.471897 
L 208.59744 151.471897 
L 208.59744 146.205037 
L 210.179781 146.205037 
L 210.179781 140.938176 
L 210.497411 140.938176 
L 210.497411 135.671315 
L 211.256989 135.671315 
L 211.256989 130.404454 
L 214.771609 130.404454 
L 214.771609 125.137593 
L 218.50587 125.137593 
L 218.50587 119.870733 
L 224.916552 119.870733 
L 224.916552 114.603872 
L 227.244278 114.603872 
L 227.244278 109.337011 
L 227.299157 109.337011 
L 227.299157 104.07015 
L 227.393667 104.07015 
L 227.393667 98.803289 
L 227.508541 98.803289 
L 227.508541 93.536429 
L 232.883038 93.536429 
L 232.883038 88.269568 
L 232.930953 88.269568 
L 232.930953 83.002707 
L 232.992143 83.002707 
L 232.992143 77.735846 
L 233.090796 77.735846 
L 233.090796 72.468985 
L 233.164981 72.468985 
L 233.164981 67.202125 
L 233.223549 67.202125 
L 233.223549 61.935264 
L 233.296659 61.935264 
L 233.296659 56.668403 
L 235.248105 56.668403 
L 235.248105 51.401542 
L 235.309992 51.401542 
L 235.309992 46.134681 
L 235.370601 46.134681 
L 235.370601 40.867821 
L 235.42575 40.867821 
L 235.42575 35.60096 
L 235.482231 35.60096 
L 235.482231 30.334099 
L 338.688 30.334099 
" style="fill:none;stroke:#f5deb3;stroke-linecap:square;stroke-width:4;"/>
   </g>
   <g id="line2d_2">
    <defs>
     <path d="M 0 7.778175 
L 7.778175 0 
L 0 -7.778175 
L -7.778175 0 
z
" id="m874ccfcb73" style="stroke:#f5deb3;stroke-linejoin:miter;stroke-width:1.5;"/>
    </defs>
    <g>
     <use style="fill:#f5deb3;stroke:#f5deb3;stroke-linejoin:miter;stroke-width:1.5;" x="63.153604" xlink:href="#m874ccfcb73" y="293.677139"/>
     <use style="fill:#f5deb3;stroke:#f5deb3;stroke-linejoin:miter;stroke-width:1.5;" x="179.894888" xlink:href="#m874ccfcb73" y="219.941088"/>
     <use style="fill:#f5deb3;stroke:#f5deb3;stroke-linejoin:miter;stroke-width:1.5;" x="218.50587" xlink:href="#m874ccfcb73" y="125.137593"/>
     <use style="fill:#f5deb3;stroke:#f5deb3;stroke-linejoin:miter;stroke-width:1.5;" x="235.42575" xlink:href="#m874ccfcb73" y="35.60096"/>
     <use style="fill:#f5deb3;stroke:#f5deb3;stroke-linejoin:miter;stroke-width:1.5;" x="235.482231" xlink:href="#m874ccfcb73" y="30.334099"/>
     <use style="fill:#f5deb3;stroke:#f5deb3;stroke-linejoin:miter;stroke-width:1.5;" x="338.688" xlink:href="#m874ccfcb73" y="30.334099"/>
    </g>
   </g>
   <g id="line2d_3">
    <path style="fill:none;stroke:#f5deb3;stroke-linecap:square;stroke-width:4;"/>
    <g/>
   </g>
   <g id="line2d_4">
    <path d="M 338.688 30.334099 
L 369.60768 100.172673 
" style="fill:none;stroke:#f5deb3;stroke-linecap:square;stroke-width:4;"/>
    <g>
     <use style="fill:#f5deb3;stroke:#f5deb3;stroke-linejoin:miter;stroke-width:1.5;" x="338.688" xlink:href="#m874ccfcb73" y="30.334099"/>
     <use style="fill:#f5deb3;stroke:#f5deb3;stroke-linejoin:miter;stroke-width:1.5;" x="369.60768" xlink:href="#m874ccfcb73" y="100.172673"/>
    </g>
   </g>
   <g id="matplotlib.axis_1">
    <g id="xtick_1">
     <g id="line2d_5">
      <path clip-path="url(#p01f7383c01)" d="M 57.6 298.944 
L 57.6 27.648 
" style="fill:none;stroke:#b0b0b0;stroke-linecap:square;stroke-width:0.8;"/>
     </g>
     <g id="line2d_6">
      <defs>
       <path d="M 0 0 
L 0 3.5 
" id="m87433e2828" style="stroke:#000000;stroke-width:0.8;"/>
      </defs>
      <g>
       <use style="stroke:#000000;stroke-width:0.8;" x="57.6" xlink:href="#m87433e2828" y="298.944"/>
      </g>
     </g>
     <g id="text_1">
      <!-- 0 -->
      <g transform="translate(51.2375 321.140875)scale(0.2 -0.2)">
       <defs>
        <path d="M 2034 4250 
Q 1547 4250 1301 3770 
Q 1056 3291 1056 2328 
Q 1056 1369 1301 889 
Q 1547 409 2034 409 
Q 2525 409 2770 889 
Q 3016 1369 3016 2328 
Q 3016 3291 2770 3770 
Q 2525 4250 2034 4250 
z
M 2034 4750 
Q 2819 4750 3233 4129 
Q 3647 3509 3647 2328 
Q 3647 1150 3233 529 
Q 2819 -91 2034 -91 
Q 1250 -91 836 529 
Q 422 1150 422 2328 
Q 422 3509 836 4129 
Q 1250 4750 2034 4750 
z
" id="DejaVuSans-30" transform="scale(0.015625)"/>
       </defs>
       <use xlink:href="#DejaVuSans-30"/>
      </g>
     </g>
    </g>
    <g id="xtick_2">
     <g id="line2d_7">
      <path clip-path="url(#p01f7383c01)" d="M 137.910857 298.944 
L 137.910857 27.648 
" style="fill:none;stroke:#b0b0b0;stroke-linecap:square;stroke-width:0.8;"/>
     </g>
     <g id="line2d_8">
      <g>
       <use style="stroke:#000000;stroke-width:0.8;" x="137.910857" xlink:href="#m87433e2828" y="298.944"/>
      </g>
     </g>
     <g id="text_2">
      <!-- 2 -->
      <g transform="translate(131.548357 321.140875)scale(0.2 -0.2)">
       <defs>
        <path d="M 1228 531 
L 3431 531 
L 3431 0 
L 469 0 
L 469 531 
Q 828 903 1448 1529 
Q 2069 2156 2228 2338 
Q 2531 2678 2651 2914 
Q 2772 3150 2772 3378 
Q 2772 3750 2511 3984 
Q 2250 4219 1831 4219 
Q 1534 4219 1204 4116 
Q 875 4013 500 3803 
L 500 4441 
Q 881 4594 1212 4672 
Q 1544 4750 1819 4750 
Q 2544 4750 2975 4387 
Q 3406 4025 3406 3419 
Q 3406 3131 3298 2873 
Q 3191 2616 2906 2266 
Q 2828 2175 2409 1742 
Q 1991 1309 1228 531 
z
" id="DejaVuSans-32" transform="scale(0.015625)"/>
       </defs>
       <use xlink:href="#DejaVuSans-32"/>
      </g>
     </g>
    </g>
    <g id="xtick_3">
     <g id="line2d_9">
      <path clip-path="url(#p01f7383c01)" d="M 218.221714 298.944 
L 218.221714 27.648 
" style="fill:none;stroke:#b0b0b0;stroke-linecap:square;stroke-width:0.8;"/>
     </g>
     <g id="line2d_10">
      <g>
       <use style="stroke:#000000;stroke-width:0.8;" x="218.221714" xlink:href="#m87433e2828" y="298.944"/>
      </g>
     </g>
     <g id="text_3">
      <!-- 4 -->
      <g transform="translate(211.859214 321.140875)scale(0.2 -0.2)">
       <defs>
        <path d="M 2419 4116 
L 825 1625 
L 2419 1625 
L 2419 4116 
z
M 2253 4666 
L 3047 4666 
L 3047 1625 
L 3713 1625 
L 3713 1100 
L 3047 1100 
L 3047 0 
L 2419 0 
L 2419 1100 
L 313 1100 
L 313 1709 
L 2253 4666 
z
" id="DejaVuSans-34" transform="scale(0.015625)"/>
       </defs>
       <use xlink:href="#DejaVuSans-34"/>
      </g>
     </g>
    </g>
    <g id="xtick_4">
     <g id="line2d_11">
      <path clip-path="url(#p01f7383c01)" d="M 298.532571 298.944 
L 298.532571 27.648 
" style="fill:none;stroke:#b0b0b0;stroke-linecap:square;stroke-width:0.8;"/>
     </g>
     <g id="line2d_12">
      <g>
       <use style="stroke:#000000;stroke-width:0.8;" x="298.532571" xlink:href="#m87433e2828" y="298.944"/>
      </g>
     </g>
     <g id="text_4">
      <!-- 6 -->
      <g transform="translate(292.170071 321.140875)scale(0.2 -0.2)">
       <defs>
        <path d="M 2113 2584 
Q 1688 2584 1439 2293 
Q 1191 2003 1191 1497 
Q 1191 994 1439 701 
Q 1688 409 2113 409 
Q 2538 409 2786 701 
Q 3034 994 3034 1497 
Q 3034 2003 2786 2293 
Q 2538 2584 2113 2584 
z
M 3366 4563 
L 3366 3988 
Q 3128 4100 2886 4159 
Q 2644 4219 2406 4219 
Q 1781 4219 1451 3797 
Q 1122 3375 1075 2522 
Q 1259 2794 1537 2939 
Q 1816 3084 2150 3084 
Q 2853 3084 3261 2657 
Q 3669 2231 3669 1497 
Q 3669 778 3244 343 
Q 2819 -91 2113 -91 
Q 1303 -91 875 529 
Q 447 1150 447 2328 
Q 447 3434 972 4092 
Q 1497 4750 2381 4750 
Q 2619 4750 2861 4703 
Q 3103 4656 3366 4563 
z
" id="DejaVuSans-36" transform="scale(0.015625)"/>
       </defs>
       <use xlink:href="#DejaVuSans-36"/>
      </g>
     </g>
    </g>
    <g id="xtick_5">
     <g id="line2d_13">
      <path clip-path="url(#p01f7383c01)" d="M 97.755429 298.944 
L 97.755429 27.648 
" style="fill:none;stroke:#b0b0b0;stroke-linecap:square;stroke-width:0.8;"/>
     </g>
     <g id="line2d_14">
      <defs>
       <path d="M 0 0 
L 0 2 
" id="m88d788607b" style="stroke:#000000;stroke-width:0.6;"/>
      </defs>
      <g>
       <use style="stroke:#000000;stroke-width:0.6;" x="97.755429" xlink:href="#m88d788607b" y="298.944"/>
      </g>
     </g>
    </g>
    <g id="xtick_6">
     <g id="line2d_15">
      <path clip-path="url(#p01f7383c01)" d="M 178.066286 298.944 
L 178.066286 27.648 
" style="fill:none;stroke:#b0b0b0;stroke-linecap:square;stroke-width:0.8;"/>
     </g>
     <g id="line2d_16">
      <g>
       <use style="stroke:#000000;stroke-width:0.6;" x="178.066286" xlink:href="#m88d788607b" y="298.944"/>
      </g>
     </g>
    </g>
    <g id="xtick_7">
     <g id="line2d_17">
      <path clip-path="url(#p01f7383c01)" d="M 258.377143 298.944 
L 258.377143 27.648 
" style="fill:none;stroke:#b0b0b0;stroke-linecap:square;stroke-width:0.8;"/>
     </g>
     <g id="line2d_18">
      <g>
       <use style="stroke:#000000;stroke-width:0.6;" x="258.377143" xlink:href="#m88d788607b" y="298.944"/>
      </g>
     </g>
    </g>
    <g id="xtick_8">
     <g id="line2d_19">
      <path clip-path="url(#p01f7383c01)" d="M 338.688 298.944 
L 338.688 27.648 
" style="fill:none;stroke:#b0b0b0;stroke-linecap:square;stroke-width:0.8;"/>
     </g>
     <g id="line2d_20">
      <g>
       <use style="stroke:#000000;stroke-width:0.6;" x="338.688" xlink:href="#m88d788607b" y="298.944"/>
      </g>
     </g>
    </g>
    <g id="text_5">
     <!-- log10(# f-evals / dimension) -->
     <g transform="translate(77.764078 342.217594)scale(0.17 -0.17)">
      <defs>
       <path d="M 603 4863 
L 1178 4863 
L 1178 0 
L 603 0 
L 603 4863 
z
" id="DejaVuSans-6c" transform="scale(0.015625)"/>
       <path d="M 1959 3097 
Q 1497 3097 1228 2736 
Q 959 2375 959 1747 
Q 959 1119 1226 758 
Q 1494 397 1959 397 
Q 2419 397 2687 759 
Q 2956 1122 2956 1747 
Q 2956 2369 2687 2733 
Q 2419 3097 1959 3097 
z
M 1959 3584 
Q 2709 3584 3137 3096 
Q 3566 2609 3566 1747 
Q 3566 888 3137 398 
Q 2709 -91 1959 -91 
Q 1206 -91 779 398 
Q 353 888 353 1747 
Q 353 2609 779 3096 
Q 1206 3584 1959 3584 
z
" id="DejaVuSans-6f" transform="scale(0.015625)"/>
       <path d="M 2906 1791 
Q 2906 2416 2648 2759 
Q 2391 3103 1925 3103 
Q 1463 3103 1205 2759 
Q 947 2416 947 1791 
Q 947 1169 1205 825 
Q 1463 481 1925 481 
Q 2391 481 2648 825 
Q 2906 1169 2906 1791 
z
M 3481 434 
Q 3481 -459 3084 -895 
Q 2688 -1331 1869 -1331 
Q 1566 -1331 1297 -1286 
Q 1028 -1241 775 -1147 
L 775 -588 
Q 1028 -725 1275 -790 
Q 1522 -856 1778 -856 
Q 2344 -856 2625 -561 
Q 2906 -266 2906 331 
L 2906 616 
Q 2728 306 2450 153 
Q 2172 0 1784 0 
Q 1141 0 747 490 
Q 353 981 353 1791 
Q 353 2603 747 3093 
Q 1141 3584 1784 3584 
Q 2172 3584 2450 3431 
Q 2728 3278 2906 2969 
L 2906 3500 
L 3481 3500 
L 3481 434 
z
" id="DejaVuSans-67" transform="scale(0.015625)"/>
       <path d="M 794 531 
L 1825 531 
L 1825 4091 
L 703 3866 
L 703 4441 
L 1819 4666 
L 2450 4666 
L 2450 531 
L 3481 531 
L 3481 0 
L 794 0 
L 794 531 
z
" id="DejaVuSans-31" transform="scale(0.015625)"/>
       <path d="M 1984 4856 
Q 1566 4138 1362 3434 
Q 1159 2731 1159 2009 
Q 1159 1288 1364 580 
Q 1569 -128 1984 -844 
L 1484 -844 
Q 1016 -109 783 600 
Q 550 1309 550 2009 
Q 550 2706 781 3412 
Q 1013 4119 1484 4856 
L 1984 4856 
z
" id="DejaVuSans-28" transform="scale(0.015625)"/>
       <path d="M 3272 2816 
L 2363 2816 
L 2100 1772 
L 3016 1772 
L 3272 2816 
z
M 2803 4594 
L 2478 3297 
L 3391 3297 
L 3719 4594 
L 4219 4594 
L 3897 3297 
L 4872 3297 
L 4872 2816 
L 3775 2816 
L 3519 1772 
L 4513 1772 
L 4513 1294 
L 3397 1294 
L 3072 0 
L 2572 0 
L 2894 1294 
L 1978 1294 
L 1656 0 
L 1153 0 
L 1478 1294 
L 494 1294 
L 494 1772 
L 1594 1772 
L 1856 2816 
L 850 2816 
L 850 3297 
L 1978 3297 
L 2297 4594 
L 2803 4594 
z
" id="DejaVuSans-23" transform="scale(0.015625)"/>
       <path id="DejaVuSans-20" transform="scale(0.015625)"/>
       <path d="M 2375 4863 
L 2375 4384 
L 1825 4384 
Q 1516 4384 1395 4259 
Q 1275 4134 1275 3809 
L 1275 3500 
L 2222 3500 
L 2222 3053 
L 1275 3053 
L 1275 0 
L 697 0 
L 697 3053 
L 147 3053 
L 147 3500 
L 697 3500 
L 697 3744 
Q 697 4328 969 4595 
Q 1241 4863 1831 4863 
L 2375 4863 
z
" id="DejaVuSans-66" transform="scale(0.015625)"/>
       <path d="M 313 2009 
L 1997 2009 
L 1997 1497 
L 313 1497 
L 313 2009 
z
" id="DejaVuSans-2d" transform="scale(0.015625)"/>
       <path d="M 3597 1894 
L 3597 1613 
L 953 1613 
Q 991 1019 1311 708 
Q 1631 397 2203 397 
Q 2534 397 2845 478 
Q 3156 559 3463 722 
L 3463 178 
Q 3153 47 2828 -22 
Q 2503 -91 2169 -91 
Q 1331 -91 842 396 
Q 353 884 353 1716 
Q 353 2575 817 3079 
Q 1281 3584 2069 3584 
Q 2775 3584 3186 3129 
Q 3597 2675 3597 1894 
z
M 3022 2063 
Q 3016 2534 2758 2815 
Q 2500 3097 2075 3097 
Q 1594 3097 1305 2825 
Q 1016 2553 972 2059 
L 3022 2063 
z
" id="DejaVuSans-65" transform="scale(0.015625)"/>
       <path d="M 191 3500 
L 800 3500 
L 1894 563 
L 2988 3500 
L 3597 3500 
L 2284 0 
L 1503 0 
L 191 3500 
z
" id="DejaVuSans-76" transform="scale(0.015625)"/>
       <path d="M 2194 1759 
Q 1497 1759 1228 1600 
Q 959 1441 959 1056 
Q 959 750 1161 570 
Q 1363 391 1709 391 
Q 2188 391 2477 730 
Q 2766 1069 2766 1631 
L 2766 1759 
L 2194 1759 
z
M 3341 1997 
L 3341 0 
L 2766 0 
L 2766 531 
Q 2569 213 2275 61 
Q 1981 -91 1556 -91 
Q 1019 -91 701 211 
Q 384 513 384 1019 
Q 384 1609 779 1909 
Q 1175 2209 1959 2209 
L 2766 2209 
L 2766 2266 
Q 2766 2663 2505 2880 
Q 2244 3097 1772 3097 
Q 1472 3097 1187 3025 
Q 903 2953 641 2809 
L 641 3341 
Q 956 3463 1253 3523 
Q 1550 3584 1831 3584 
Q 2591 3584 2966 3190 
Q 3341 2797 3341 1997 
z
" id="DejaVuSans-61" transform="scale(0.015625)"/>
       <path d="M 2834 3397 
L 2834 2853 
Q 2591 2978 2328 3040 
Q 2066 3103 1784 3103 
Q 1356 3103 1142 2972 
Q 928 2841 928 2578 
Q 928 2378 1081 2264 
Q 1234 2150 1697 2047 
L 1894 2003 
Q 2506 1872 2764 1633 
Q 3022 1394 3022 966 
Q 3022 478 2636 193 
Q 2250 -91 1575 -91 
Q 1294 -91 989 -36 
Q 684 19 347 128 
L 347 722 
Q 666 556 975 473 
Q 1284 391 1588 391 
Q 1994 391 2212 530 
Q 2431 669 2431 922 
Q 2431 1156 2273 1281 
Q 2116 1406 1581 1522 
L 1381 1569 
Q 847 1681 609 1914 
Q 372 2147 372 2553 
Q 372 3047 722 3315 
Q 1072 3584 1716 3584 
Q 2034 3584 2315 3537 
Q 2597 3491 2834 3397 
z
" id="DejaVuSans-73" transform="scale(0.015625)"/>
       <path d="M 1625 4666 
L 2156 4666 
L 531 -594 
L 0 -594 
L 1625 4666 
z
" id="DejaVuSans-2f" transform="scale(0.015625)"/>
       <path d="M 2906 2969 
L 2906 4863 
L 3481 4863 
L 3481 0 
L 2906 0 
L 2906 525 
Q 2725 213 2448 61 
Q 2172 -91 1784 -91 
Q 1150 -91 751 415 
Q 353 922 353 1747 
Q 353 2572 751 3078 
Q 1150 3584 1784 3584 
Q 2172 3584 2448 3432 
Q 2725 3281 2906 2969 
z
M 947 1747 
Q 947 1113 1208 752 
Q 1469 391 1925 391 
Q 2381 391 2643 752 
Q 2906 1113 2906 1747 
Q 2906 2381 2643 2742 
Q 2381 3103 1925 3103 
Q 1469 3103 1208 2742 
Q 947 2381 947 1747 
z
" id="DejaVuSans-64" transform="scale(0.015625)"/>
       <path d="M 603 3500 
L 1178 3500 
L 1178 0 
L 603 0 
L 603 3500 
z
M 603 4863 
L 1178 4863 
L 1178 4134 
L 603 4134 
L 603 4863 
z
" id="DejaVuSans-69" transform="scale(0.015625)"/>
       <path d="M 3328 2828 
Q 3544 3216 3844 3400 
Q 4144 3584 4550 3584 
Q 5097 3584 5394 3201 
Q 5691 2819 5691 2113 
L 5691 0 
L 5113 0 
L 5113 2094 
Q 5113 2597 4934 2840 
Q 4756 3084 4391 3084 
Q 3944 3084 3684 2787 
Q 3425 2491 3425 1978 
L 3425 0 
L 2847 0 
L 2847 2094 
Q 2847 2600 2669 2842 
Q 2491 3084 2119 3084 
Q 1678 3084 1418 2786 
Q 1159 2488 1159 1978 
L 1159 0 
L 581 0 
L 581 3500 
L 1159 3500 
L 1159 2956 
Q 1356 3278 1631 3431 
Q 1906 3584 2284 3584 
Q 2666 3584 2933 3390 
Q 3200 3197 3328 2828 
z
" id="DejaVuSans-6d" transform="scale(0.015625)"/>
       <path d="M 3513 2113 
L 3513 0 
L 2938 0 
L 2938 2094 
Q 2938 2591 2744 2837 
Q 2550 3084 2163 3084 
Q 1697 3084 1428 2787 
Q 1159 2491 1159 1978 
L 1159 0 
L 581 0 
L 581 3500 
L 1159 3500 
L 1159 2956 
Q 1366 3272 1645 3428 
Q 1925 3584 2291 3584 
Q 2894 3584 3203 3211 
Q 3513 2838 3513 2113 
z
" id="DejaVuSans-6e" transform="scale(0.015625)"/>
       <path d="M 513 4856 
L 1013 4856 
Q 1481 4119 1714 3412 
Q 1947 2706 1947 2009 
Q 1947 1309 1714 600 
Q 1481 -109 1013 -844 
L 513 -844 
Q 928 -128 1133 580 
Q 1338 1288 1338 2009 
Q 1338 2731 1133 3434 
Q 928 4138 513 4856 
z
" id="DejaVuSans-29" transform="scale(0.015625)"/>
      </defs>
      <use xlink:href="#DejaVuSans-6c"/>
      <use x="27.783203" xlink:href="#DejaVuSans-6f"/>
      <use x="88.964844" xlink:href="#DejaVuSans-67"/>
      <use x="152.441406" xlink:href="#DejaVuSans-31"/>
      <use x="216.064453" xlink:href="#DejaVuSans-30"/>
      <use x="279.6875" xlink:href="#DejaVuSans-28"/>
      <use x="318.701172" xlink:href="#DejaVuSans-23"/>
      <use x="402.490234" xlink:href="#DejaVuSans-20"/>
      <use x="434.277344" xlink:href="#DejaVuSans-66"/>
      <use x="463.982422" xlink:href="#DejaVuSans-2d"/>
      <use x="500.066406" xlink:href="#DejaVuSans-65"/>
      <use x="561.589844" xlink:href="#DejaVuSans-76"/>
      <use x="620.769531" xlink:href="#DejaVuSans-61"/>
      <use x="682.048828" xlink:href="#DejaVuSans-6c"/>
      <use x="709.832031" xlink:href="#DejaVuSans-73"/>
      <use x="761.931641" xlink:href="#DejaVuSans-20"/>
      <use x="793.71875" xlink:href="#DejaVuSans-2f"/>
      <use x="827.410156" xlink:href="#DejaVuSans-20"/>
      <use x="859.197266" xlink:href="#DejaVuSans-64"/>
      <use x="922.673828" xlink:href="#DejaVuSans-69"/>
      <use x="950.457031" xlink:href="#DejaVuSans-6d"/>
      <use x="1047.869141" xlink:href="#DejaVuSans-65"/>
      <use x="1109.392578" xlink:href="#DejaVuSans-6e"/>
      <use x="1172.771484" xlink:href="#DejaVuSans-73"/>
      <use x="1224.871094" xlink:href="#DejaVuSans-69"/>
      <use x="1252.654297" xlink:href="#DejaVuSans-6f"/>
      <use x="1313.835938" xlink:href="#DejaVuSans-6e"/>
      <use x="1377.214844" xlink:href="#DejaVuSans-29"/>
     </g>
    </g>
   </g>
   <g id="matplotlib.axis_2">
    <g id="ytick_1">
     <g id="line2d_21">
      <path clip-path="url(#p01f7383c01)" d="M 57.6 298.944 
L 338.688 298.944 
" style="fill:none;stroke:#b0b0b0;stroke-linecap:square;stroke-width:0.8;"/>
     </g>
     <g id="line2d_22">
      <defs>
       <path d="M 0 0 
L -3.5 0 
" id="m004e70eb47" style="stroke:#000000;stroke-width:0.8;"/>
      </defs>
      <g>
       <use style="stroke:#000000;stroke-width:0.8;" x="57.6" xlink:href="#m004e70eb47" y="298.944"/>
      </g>
     </g>
     <g id="text_6">
      <!-- 0.0 -->
      <g transform="translate(25.155 305.02275)scale(0.16 -0.16)">
       <defs>
        <path d="M 684 794 
L 1344 794 
L 1344 0 
L 684 0 
L 684 794 
z
" id="DejaVuSans-2e" transform="scale(0.015625)"/>
       </defs>
       <use xlink:href="#DejaVuSans-30"/>
       <use x="63.623047" xlink:href="#DejaVuSans-2e"/>
       <use x="95.410156" xlink:href="#DejaVuSans-30"/>
      </g>
     </g>
    </g>
    <g id="ytick_2">
     <g id="line2d_23">
      <path clip-path="url(#p01f7383c01)" d="M 57.6 245.22202 
L 338.688 245.22202 
" style="fill:none;stroke:#b0b0b0;stroke-linecap:square;stroke-width:0.8;"/>
     </g>
     <g id="line2d_24">
      <g>
       <use style="stroke:#000000;stroke-width:0.8;" x="57.6" xlink:href="#m004e70eb47" y="245.22202"/>
      </g>
     </g>
     <g id="text_7">
      <!-- 0.2 -->
      <g transform="translate(25.155 251.30077)scale(0.16 -0.16)">
       <use xlink:href="#DejaVuSans-30"/>
       <use x="63.623047" xlink:href="#DejaVuSans-2e"/>
       <use x="95.410156" xlink:href="#DejaVuSans-32"/>
      </g>
     </g>
    </g>
    <g id="ytick_3">
     <g id="line2d_25">
      <path clip-path="url(#p01f7383c01)" d="M 57.6 191.50004 
L 338.688 191.50004 
" style="fill:none;stroke:#b0b0b0;stroke-linecap:square;stroke-width:0.8;"/>
     </g>
     <g id="line2d_26">
      <g>
       <use style="stroke:#000000;stroke-width:0.8;" x="57.6" xlink:href="#m004e70eb47" y="191.50004"/>
      </g>
     </g>
     <g id="text_8">
      <!-- 0.4 -->
      <g transform="translate(25.155 197.57879)scale(0.16 -0.16)">
       <use xlink:href="#DejaVuSans-30"/>
       <use x="63.623047" xlink:href="#DejaVuSans-2e"/>
       <use x="95.410156" xlink:href="#DejaVuSans-34"/>
      </g>
     </g>
    </g>
    <g id="ytick_4">
     <g id="line2d_27">
      <path clip-path="url(#p01f7383c01)" d="M 57.6 137.778059 
L 338.688 137.778059 
" style="fill:none;stroke:#b0b0b0;stroke-linecap:square;stroke-width:0.8;"/>
     </g>
     <g id="line2d_28">
      <g>
       <use style="stroke:#000000;stroke-width:0.8;" x="57.6" xlink:href="#m004e70eb47" y="137.778059"/>
      </g>
     </g>
     <g id="text_9">
      <!-- 0.6 -->
      <g transform="translate(25.155 143.856809)scale(0.16 -0.16)">
       <use xlink:href="#DejaVuSans-30"/>
       <use x="63.623047" xlink:href="#DejaVuSans-2e"/>
       <use x="95.410156" xlink:href="#DejaVuSans-36"/>
      </g>
     </g>
    </g>
    <g id="ytick_5">
     <g id="line2d_29">
      <path clip-path="url(#p01f7383c01)" d="M 57.6 84.056079 
L 338.688 84.056079 
" style="fill:none;stroke:#b0b0b0;stroke-linecap:square;stroke-width:0.8;"/>
     </g>
     <g id="line2d_30">
      <g>
       <use style="stroke:#000000;stroke-width:0.8;" x="57.6" xlink:href="#m004e70eb47" y="84.056079"/>
      </g>
     </g>
     <g id="text_10">
      <!-- 0.8 -->
      <g transform="translate(25.155 90.134829)scale(0.16 -0.16)">
       <defs>
        <path d="M 2034 2216 
Q 1584 2216 1326 1975 
Q 1069 1734 1069 1313 
Q 1069 891 1326 650 
Q 1584 409 2034 409 
Q 2484 409 2743 651 
Q 3003 894 3003 1313 
Q 3003 1734 2745 1975 
Q 2488 2216 2034 2216 
z
M 1403 2484 
Q 997 2584 770 2862 
Q 544 3141 544 3541 
Q 544 4100 942 4425 
Q 1341 4750 2034 4750 
Q 2731 4750 3128 4425 
Q 3525 4100 3525 3541 
Q 3525 3141 3298 2862 
Q 3072 2584 2669 2484 
Q 3125 2378 3379 2068 
Q 3634 1759 3634 1313 
Q 3634 634 3220 271 
Q 2806 -91 2034 -91 
Q 1263 -91 848 271 
Q 434 634 434 1313 
Q 434 1759 690 2068 
Q 947 2378 1403 2484 
z
M 1172 3481 
Q 1172 3119 1398 2916 
Q 1625 2713 2034 2713 
Q 2441 2713 2670 2916 
Q 2900 3119 2900 3481 
Q 2900 3844 2670 4047 
Q 2441 4250 2034 4250 
Q 1625 4250 1398 4047 
Q 1172 3844 1172 3481 
z
" id="DejaVuSans-38" transform="scale(0.015625)"/>
       </defs>
       <use xlink:href="#DejaVuSans-30"/>
       <use x="63.623047" xlink:href="#DejaVuSans-2e"/>
       <use x="95.410156" xlink:href="#DejaVuSans-38"/>
      </g>
     </g>
    </g>
    <g id="ytick_6">
     <g id="line2d_31">
      <path clip-path="url(#p01f7383c01)" d="M 57.6 30.334099 
L 338.688 30.334099 
" style="fill:none;stroke:#b0b0b0;stroke-linecap:square;stroke-width:0.8;"/>
     </g>
     <g id="line2d_32">
      <g>
       <use style="stroke:#000000;stroke-width:0.8;" x="57.6" xlink:href="#m004e70eb47" y="30.334099"/>
      </g>
     </g>
     <g id="text_11">
      <!-- 1.0 -->
      <g transform="translate(25.155 36.412849)scale(0.16 -0.16)">
       <use xlink:href="#DejaVuSans-31"/>
       <use x="63.623047" xlink:href="#DejaVuSans-2e"/>
       <use x="95.410156" xlink:href="#DejaVuSans-30"/>
      </g>
     </g>
    </g>
    <g id="text_12">
     <!-- Fraction of function,target pairs -->
     <g transform="translate(17.619531 297.681)rotate(-90)scale(0.17 -0.17)">
      <defs>
       <path d="M 628 4666 
L 3309 4666 
L 3309 4134 
L 1259 4134 
L 1259 2759 
L 3109 2759 
L 3109 2228 
L 1259 2228 
L 1259 0 
L 628 0 
L 628 4666 
z
" id="DejaVuSans-46" transform="scale(0.015625)"/>
       <path d="M 2631 2963 
Q 2534 3019 2420 3045 
Q 2306 3072 2169 3072 
Q 1681 3072 1420 2755 
Q 1159 2438 1159 1844 
L 1159 0 
L 581 0 
L 581 3500 
L 1159 3500 
L 1159 2956 
Q 1341 3275 1631 3429 
Q 1922 3584 2338 3584 
Q 2397 3584 2469 3576 
Q 2541 3569 2628 3553 
L 2631 2963 
z
" id="DejaVuSans-72" transform="scale(0.015625)"/>
       <path d="M 3122 3366 
L 3122 2828 
Q 2878 2963 2633 3030 
Q 2388 3097 2138 3097 
Q 1578 3097 1268 2742 
Q 959 2388 959 1747 
Q 959 1106 1268 751 
Q 1578 397 2138 397 
Q 2388 397 2633 464 
Q 2878 531 3122 666 
L 3122 134 
Q 2881 22 2623 -34 
Q 2366 -91 2075 -91 
Q 1284 -91 818 406 
Q 353 903 353 1747 
Q 353 2603 823 3093 
Q 1294 3584 2113 3584 
Q 2378 3584 2631 3529 
Q 2884 3475 3122 3366 
z
" id="DejaVuSans-63" transform="scale(0.015625)"/>
       <path d="M 1172 4494 
L 1172 3500 
L 2356 3500 
L 2356 3053 
L 1172 3053 
L 1172 1153 
Q 1172 725 1289 603 
Q 1406 481 1766 481 
L 2356 481 
L 2356 0 
L 1766 0 
Q 1100 0 847 248 
Q 594 497 594 1153 
L 594 3053 
L 172 3053 
L 172 3500 
L 594 3500 
L 594 4494 
L 1172 4494 
z
" id="DejaVuSans-74" transform="scale(0.015625)"/>
       <path d="M 544 1381 
L 544 3500 
L 1119 3500 
L 1119 1403 
Q 1119 906 1312 657 
Q 1506 409 1894 409 
Q 2359 409 2629 706 
Q 2900 1003 2900 1516 
L 2900 3500 
L 3475 3500 
L 3475 0 
L 2900 0 
L 2900 538 
Q 2691 219 2414 64 
Q 2138 -91 1772 -91 
Q 1169 -91 856 284 
Q 544 659 544 1381 
z
M 1991 3584 
L 1991 3584 
z
" id="DejaVuSans-75" transform="scale(0.015625)"/>
       <path d="M 750 794 
L 1409 794 
L 1409 256 
L 897 -744 
L 494 -744 
L 750 256 
L 750 794 
z
" id="DejaVuSans-2c" transform="scale(0.015625)"/>
       <path d="M 1159 525 
L 1159 -1331 
L 581 -1331 
L 581 3500 
L 1159 3500 
L 1159 2969 
Q 1341 3281 1617 3432 
Q 1894 3584 2278 3584 
Q 2916 3584 3314 3078 
Q 3713 2572 3713 1747 
Q 3713 922 3314 415 
Q 2916 -91 2278 -91 
Q 1894 -91 1617 61 
Q 1341 213 1159 525 
z
M 3116 1747 
Q 3116 2381 2855 2742 
Q 2594 3103 2138 3103 
Q 1681 3103 1420 2742 
Q 1159 2381 1159 1747 
Q 1159 1113 1420 752 
Q 1681 391 2138 391 
Q 2594 391 2855 752 
Q 3116 1113 3116 1747 
z
" id="DejaVuSans-70" transform="scale(0.015625)"/>
      </defs>
      <use xlink:href="#DejaVuSans-46"/>
      <use x="50.269531" xlink:href="#DejaVuSans-72"/>
      <use x="91.382812" xlink:href="#DejaVuSans-61"/>
      <use x="152.662109" xlink:href="#DejaVuSans-63"/>
      <use x="207.642578" xlink:href="#DejaVuSans-74"/>
      <use x="246.851562" xlink:href="#DejaVuSans-69"/>
      <use x="274.634766" xlink:href="#DejaVuSans-6f"/>
      <use x="335.816406" xlink:href="#DejaVuSans-6e"/>
      <use x="399.195312" xlink:href="#DejaVuSans-20"/>
      <use x="430.982422" xlink:href="#DejaVuSans-6f"/>
      <use x="492.164062" xlink:href="#DejaVuSans-66"/>
      <use x="527.369141" xlink:href="#DejaVuSans-20"/>
      <use x="559.15625" xlink:href="#DejaVuSans-66"/>
      <use x="594.361328" xlink:href="#DejaVuSans-75"/>
      <use x="657.740234" xlink:href="#DejaVuSans-6e"/>
      <use x="721.119141" xlink:href="#DejaVuSans-63"/>
      <use x="776.099609" xlink:href="#DejaVuSans-74"/>
      <use x="815.308594" xlink:href="#DejaVuSans-69"/>
      <use x="843.091797" xlink:href="#DejaVuSans-6f"/>
      <use x="904.273438" xlink:href="#DejaVuSans-6e"/>
      <use x="967.652344" xlink:href="#DejaVuSans-2c"/>
      <use x="999.439453" xlink:href="#DejaVuSans-74"/>
      <use x="1038.648438" xlink:href="#DejaVuSans-61"/>
      <use x="1099.927734" xlink:href="#DejaVuSans-72"/>
      <use x="1139.291016" xlink:href="#DejaVuSans-67"/>
      <use x="1202.767578" xlink:href="#DejaVuSans-65"/>
      <use x="1264.291016" xlink:href="#DejaVuSans-74"/>
      <use x="1303.5" xlink:href="#DejaVuSans-20"/>
      <use x="1335.287109" xlink:href="#DejaVuSans-70"/>
      <use x="1398.763672" xlink:href="#DejaVuSans-61"/>
      <use x="1460.042969" xlink:href="#DejaVuSans-69"/>
      <use x="1487.826172" xlink:href="#DejaVuSans-72"/>
      <use x="1528.939453" xlink:href="#DejaVuSans-73"/>
     </g>
    </g>
   </g>
   <g id="line2d_33">
    <defs>
     <path d="M 0 1.5 
C 0.397805 1.5 0.77937 1.341951 1.06066 1.06066 
C 1.341951 0.77937 1.5 0.397805 1.5 0 
C 1.5 -0.397805 1.341951 -0.77937 1.06066 -1.06066 
C 0.77937 -1.341951 0.397805 -1.5 0 -1.5 
C -0.397805 -1.5 -0.77937 -1.341951 -1.06066 -1.06066 
C -1.341951 -0.77937 -1.5 -0.397805 -1.5 0 
C -1.5 0.397805 -1.341951 0.77937 -1.06066 1.06066 
C -0.77937 1.341951 -0.397805 1.5 0 1.5 
z
" id="m2e9a1f3206" style="stroke:#f5deb3;"/>
    </defs>
    <g>
     <use style="fill:#f5deb3;stroke:#f5deb3;" x="235.482231" xlink:href="#m2e9a1f3206" y="30.334099"/>
     <use style="fill:#f5deb3;stroke:#f5deb3;" x="235.482231" xlink:href="#m2e9a1f3206" y="30.334099"/>
    </g>
   </g>
   <g id="line2d_34">
    <defs>
     <path d="M 0 1.5 
C 0.397805 1.5 0.77937 1.341951 1.06066 1.06066 
C 1.341951 0.77937 1.5 0.397805 1.5 0 
C 1.5 -0.397805 1.341951 -0.77937 1.06066 -1.06066 
C 0.77937 -1.341951 0.397805 -1.5 0 -1.5 
C -0.397805 -1.5 -0.77937 -1.341951 -1.06066 -1.06066 
C -1.341951 -0.77937 -1.5 -0.397805 -1.5 0 
C -1.5 0.397805 -1.341951 0.77937 -1.06066 1.06066 
C -0.77937 1.341951 -0.397805 1.5 0 1.5 
z
" id="m052de7f012" style="stroke:#000080;"/>
    </defs>
    <g>
     <use style="fill:#000080;stroke:#000080;" x="240.242896" xlink:href="#m052de7f012" y="30.334099"/>
     <use style="fill:#000080;stroke:#000080;" x="240.242896" xlink:href="#m052de7f012" y="30.334099"/>
    </g>
   </g>
   <g id="line2d_35">
    <path d="M -1 294.203825 
L 5.356583 294.203825 
L 5.356583 293.677139 
L 29.53256 293.677139 
L 29.53256 293.150453 
L 36.60358 293.150453 
L 36.60358 292.623767 
L 39.291857 292.623767 
L 39.291857 292.097081 
L 44.617493 292.097081 
L 44.617493 291.570395 
L 46.362877 291.570395 
L 46.362877 291.043709 
L 47.949359 291.043709 
L 47.949359 290.517023 
L 58.450865 290.517023 
L 58.450865 289.990337 
L 62.175444 289.990337 
L 62.175444 289.463651 
L 63.776502 289.463651 
L 63.776502 288.936964 
L 65.521885 288.936964 
L 65.521885 288.410278 
L 75.399415 288.410278 
L 75.399415 287.883592 
L 78.941764 287.883592 
L 78.941764 287.356906 
L 80.881459 287.356906 
L 80.881459 286.83022 
L 84.02273 286.83022 
L 84.02273 286.303534 
L 84.864467 286.303534 
L 84.955534 285.250162 
L 88.104788 285.250162 
L 88.180446 284.19679 
L 89.628521 284.19679 
L 89.628521 283.670104 
L 93.083804 283.670104 
L 93.083804 283.143418 
L 94.505975 283.143418 
L 94.505975 282.616732 
L 95.772081 282.616732 
L 95.772081 282.090045 
L 96.583356 282.090045 
L 96.583356 281.563359 
L 97.885735 281.563359 
L 97.885735 281.036673 
L 98.730417 281.036673 
L 98.730417 280.509987 
L 99.298258 280.509987 
L 99.298258 279.983301 
L 99.575392 279.983301 
L 99.575392 279.456615 
L 101.576995 279.456615 
L 101.576995 278.929929 
L 104.913428 278.929929 
L 104.913428 278.403243 
L 105.870015 278.403243 
L 105.870015 277.876557 
L 106.03351 277.876557 
L 106.03351 277.349871 
L 106.646412 277.349871 
L 106.750839 276.296499 
L 107.009204 276.296499 
L 107.009204 275.769812 
L 107.884477 275.769812 
L 107.884477 275.243126 
L 108.694644 275.243126 
L 108.694644 274.71644 
L 109.535528 274.71644 
L 109.535528 274.189754 
L 110.358901 274.189754 
L 110.358901 273.663068 
L 110.694282 273.663068 
L 110.694282 273.136382 
L 111.83924 273.136382 
L 111.83924 272.609696 
L 112.655818 272.609696 
L 112.655818 272.08301 
L 113.612376 272.08301 
L 113.612376 271.556324 
L 113.925665 271.556324 
L 113.925665 271.029638 
L 115.633223 271.029638 
L 115.633223 270.502952 
L 116.050487 270.502952 
L 116.050487 269.976266 
L 117.131077 269.976266 
L 117.131077 269.449579 
L 117.316679 269.449579 
L 117.373392 268.396207 
L 118.403976 268.396207 
L 118.403976 267.869521 
L 119.326492 267.869521 
L 119.326492 266.816149 
L 119.911382 266.816149 
L 119.911382 266.289463 
L 120.524615 266.289463 
L 120.524615 265.762777 
L 120.990934 265.762777 
L 120.990934 265.236091 
L 121.545687 265.236091 
L 121.601315 264.182719 
L 123.060317 264.182719 
L 123.080737 263.129347 
L 123.202762 263.129347 
L 123.202762 262.60266 
L 124.678751 262.60266 
L 124.678751 262.075974 
L 125.408153 262.075974 
L 125.408153 261.549288 
L 125.691581 261.549288 
L 125.691581 261.022602 
L 126.168212 261.022602 
L 126.168212 260.495916 
L 126.648803 260.495916 
L 126.648803 259.96923 
L 126.806101 259.96923 
L 126.806101 259.442544 
L 126.978322 259.442544 
L 127.027217 258.389172 
L 127.571989 258.389172 
L 127.571989 257.862486 
L 129.125518 257.862486 
L 129.125518 257.3358 
L 130.19592 257.3358 
L 130.19592 256.809114 
L 130.418423 256.809114 
L 130.418423 256.282427 
L 130.65135 256.282427 
L 130.65135 255.755741 
L 130.991767 255.755741 
L 130.991767 255.229055 
L 131.114511 255.229055 
L 131.114511 254.702369 
L 131.540579 254.702369 
L 131.540579 254.175683 
L 131.931931 254.175683 
L 131.931931 253.648997 
L 132.488101 253.648997 
L 132.488101 253.122311 
L 132.829827 253.122311 
L 132.829827 252.595625 
L 133.313164 252.595625 
L 133.313164 252.068939 
L 134.084669 252.068939 
L 134.084669 251.542253 
L 134.289776 251.542253 
L 134.289776 251.015567 
L 134.687647 251.015567 
L 134.687647 250.488881 
L 135.081772 250.488881 
L 135.163623 249.435508 
L 135.457152 249.435508 
L 135.472201 248.382136 
L 135.927509 248.382136 
L 135.927509 247.85545 
L 136.141133 247.85545 
L 136.141133 247.328764 
L 136.399782 247.328764 
L 136.399782 246.802078 
L 136.560688 246.802078 
L 136.560688 246.275392 
L 137.307607 246.275392 
L 137.307607 245.748706 
L 138.01518 245.748706 
L 138.093015 244.695334 
L 139.309427 244.695334 
L 139.309427 244.168648 
L 140.176763 244.168648 
L 140.176763 243.641962 
L 140.36715 243.641962 
L 140.36715 243.115275 
L 140.775127 243.115275 
L 140.775127 242.588589 
L 141.224326 242.588589 
L 141.292695 241.535217 
L 142.344874 241.535217 
L 142.344874 241.008531 
L 142.956141 241.008531 
L 142.956141 240.481845 
L 143.295595 240.481845 
L 143.295595 239.955159 
L 143.703791 239.955159 
L 143.703791 239.428473 
L 145.358538 239.428473 
L 145.358538 238.901787 
L 148.137196 238.901787 
L 148.137196 238.375101 
L 150.81022 238.375101 
L 150.81022 237.848415 
L 172.794007 237.848415 
L 172.794007 237.321729 
L 173.077198 237.321729 
L 173.077198 236.795043 
L 173.265383 236.795043 
L 173.265383 236.268356 
L 173.395801 236.268356 
L 173.395801 235.74167 
L 173.53656 235.74167 
L 173.53656 235.214984 
L 173.708127 235.214984 
L 173.745032 234.161612 
L 173.873034 234.161612 
L 173.933921 233.10824 
L 174.324051 233.10824 
L 174.394692 232.054868 
L 174.51215 232.054868 
L 174.612355 231.001496 
L 174.734167 231.001496 
L 174.743665 229.948123 
L 174.881845 229.948123 
L 174.917917 228.368065 
L 175.133313 228.368065 
L 175.133313 227.841379 
L 175.280732 227.841379 
L 175.34608 226.261321 
L 175.42032 226.261321 
L 175.512426 224.681263 
L 175.719149 224.681263 
L 175.767465 223.101204 
L 175.85578 223.101204 
L 175.85578 222.574518 
L 175.982999 222.574518 
L 176.06192 221.521146 
L 176.189106 221.521146 
L 176.195902 220.467774 
L 176.391366 220.467774 
L 176.391366 219.941088 
L 176.601742 219.941088 
L 176.712348 217.834344 
L 177.081585 217.834344 
L 177.129495 216.780971 
L 177.413319 216.780971 
L 177.450394 215.727599 
L 177.545883 215.727599 
L 177.545883 215.200913 
L 177.846479 215.200913 
L 177.89938 213.620855 
L 178.085458 213.620855 
L 178.085458 213.094169 
L 187.146604 213.094169 
L 187.146604 212.567483 
L 187.340566 212.567483 
L 187.384569 211.514111 
L 187.549108 211.514111 
L 187.549108 210.987425 
L 187.678223 210.987425 
L 187.762438 209.934052 
L 187.79017 209.934052 
L 187.79017 209.407366 
L 187.909835 209.407366 
L 187.995409 207.827308 
L 188.075654 207.827308 
L 188.167506 206.773936 
L 188.279279 206.773936 
L 188.389616 205.193878 
L 188.587721 205.193878 
L 188.623457 203.613819 
L 188.79256 203.613819 
L 188.897598 202.560447 
L 188.917735 202.560447 
L 188.954436 200.980389 
L 189.155729 200.980389 
L 189.249657 197.820273 
L 189.326631 197.820273 
L 189.373884 196.7669 
L 189.441914 196.7669 
L 189.497913 195.186842 
L 189.584391 195.186842 
L 189.693735 193.606784 
L 189.724149 193.606784 
L 189.82796 192.026726 
L 189.845941 192.026726 
L 189.861022 190.973354 
L 189.99551 190.973354 
L 190.016396 188.866609 
L 190.11084 188.866609 
L 190.11084 188.339923 
L 190.329743 188.339923 
L 190.376726 187.286551 
L 190.532073 187.286551 
L 190.570215 186.233179 
L 190.643495 186.233179 
L 190.643495 185.706493 
L 190.858157 185.706493 
L 190.858157 185.179807 
L 191.174349 185.179807 
L 191.174349 184.653121 
L 191.580587 184.653121 
L 191.684928 183.599748 
L 192.870307 183.599748 
L 192.870307 183.073062 
L 193.004851 183.073062 
L 193.004851 182.546376 
L 198.585865 182.546376 
L 198.585865 182.01969 
L 198.710963 182.01969 
L 198.814089 180.966318 
L 198.862977 180.966318 
L 198.93032 179.912946 
L 199.022724 179.912946 
L 199.066324 178.859574 
L 199.223321 178.859574 
L 199.240031 176.752829 
L 199.373907 176.752829 
L 199.479455 174.119399 
L 199.526643 174.119399 
L 199.615695 172.012655 
L 199.741068 172.012655 
L 199.788809 169.379224 
L 199.912948 169.379224 
L 199.993112 165.165736 
L 200.033736 165.165736 
L 200.140542 162.005619 
L 200.152465 162.005619 
L 200.248409 159.898875 
L 200.268926 159.898875 
L 200.366782 156.738758 
L 200.419741 156.738758 
L 200.443441 155.1587 
L 200.548495 155.1587 
L 200.643605 151.998584 
L 200.739149 151.998584 
L 200.84197 148.311781 
L 200.883259 148.311781 
L 200.993785 145.678351 
L 201.048261 145.678351 
L 201.048261 145.151665 
L 201.222814 145.151665 
L 201.330182 142.518234 
L 201.345105 142.518234 
L 201.431527 141.464862 
L 201.552709 141.464862 
L 201.631339 138.831432 
L 201.726463 138.831432 
L 201.833797 136.724687 
L 201.876368 136.724687 
L 201.98367 135.144629 
L 202.010973 135.144629 
L 202.119319 133.564571 
L 202.183415 133.564571 
L 202.254575 131.457826 
L 202.475258 131.457826 
L 202.499762 130.404454 
L 202.69828 130.404454 
L 202.723957 128.824396 
L 202.868612 128.824396 
L 202.868612 128.29771 
L 203.069652 128.29771 
L 203.069652 127.771024 
L 203.185064 127.771024 
L 203.269841 126.717652 
L 203.333947 126.717652 
L 203.411889 125.66428 
L 210.340689 125.66428 
L 210.340689 125.137593 
L 210.533493 125.137593 
L 210.533493 124.610907 
L 210.719362 124.610907 
L 210.787204 123.557535 
L 210.893983 123.557535 
L 210.999584 121.977477 
L 211.252764 121.977477 
L 211.269919 120.397419 
L 211.395924 120.397419 
L 211.440233 119.344047 
L 211.548981 119.344047 
L 211.651336 118.290674 
L 211.660675 118.290674 
L 211.746396 116.710616 
L 211.792031 116.710616 
L 211.839244 115.130558 
L 211.914958 115.130558 
L 212.001747 114.077186 
L 212.0392 114.077186 
L 212.145029 111.970441 
L 212.323012 111.970441 
L 212.42896 109.863697 
L 212.485148 109.863697 
L 212.562096 107.756953 
L 212.611723 107.756953 
L 212.705053 105.123522 
L 212.729085 105.123522 
L 212.814658 103.016778 
L 212.844356 103.016778 
L 212.945128 101.43672 
L 212.962585 101.43672 
L 213.057696 99.856662 
L 213.121011 99.856662 
L 213.215845 97.749917 
L 213.236166 97.749917 
L 213.31577 96.169859 
L 213.432807 96.169859 
L 213.498036 94.589801 
L 213.566609 94.589801 
L 213.677681 93.009743 
L 213.710972 93.009743 
L 213.814396 90.376312 
L 213.850285 90.376312 
L 213.911182 88.796254 
L 213.964468 88.796254 
L 214.062862 86.162824 
L 214.081668 86.162824 
L 214.185341 83.529393 
L 214.209832 83.529393 
L 214.30953 81.422649 
L 214.321148 81.422649 
L 214.406273 79.842591 
L 214.634191 79.842591 
L 214.634191 79.315904 
L 214.853036 79.315904 
L 214.853036 78.789218 
L 223.702301 78.789218 
L 223.702301 78.262532 
L 223.870404 78.262532 
L 223.944795 77.20916 
L 224.20894 77.20916 
L 224.20894 76.682474 
L 224.345942 76.682474 
L 224.345942 76.155788 
L 224.610897 76.155788 
L 224.681359 74.57573 
L 224.73825 74.57573 
L 224.763795 73.522358 
L 224.862892 73.522358 
L 224.967737 70.888927 
L 224.989075 70.888927 
L 225.075783 68.782183 
L 225.135334 68.782183 
L 225.239317 66.675439 
L 225.250189 66.675439 
L 225.360963 63.515322 
L 225.379453 63.515322 
L 225.431376 61.935264 
L 225.521599 61.935264 
L 225.597396 59.301833 
L 225.639503 59.301833 
L 225.679717 58.248461 
L 225.757916 58.248461 
L 225.783057 56.668403 
L 225.870499 56.668403 
L 225.97434 53.508287 
L 226.059578 53.508287 
L 226.168523 51.401542 
L 226.208613 51.401542 
L 226.319565 49.294798 
L 226.321703 49.294798 
L 226.427148 47.188054 
L 226.443944 47.188054 
L 226.536723 45.081309 
L 226.573276 45.081309 
L 226.683416 41.394507 
L 226.702809 41.394507 
L 226.773972 39.287762 
L 226.876301 39.287762 
L 226.983494 37.181018 
L 227.087542 37.181018 
L 227.160969 36.127646 
L 227.261448 36.127646 
L 227.261448 35.60096 
L 238.737583 35.60096 
L 238.737583 35.074274 
L 238.956365 35.074274 
L 238.956365 34.547588 
L 239.083824 34.547588 
L 239.083824 34.020902 
L 239.302172 34.020902 
L 239.302172 33.494215 
L 239.480173 33.494215 
L 239.480173 32.967529 
L 239.645914 32.967529 
L 239.645914 32.440843 
L 239.778395 32.440843 
L 239.884 31.387471 
L 240.167638 31.387471 
L 240.242896 30.334099 
L 338.688 30.334099 
L 338.688 30.334099 
" style="fill:none;stroke:#000080;stroke-linecap:square;stroke-width:1.5;"/>
   </g>
   <g id="line2d_36">
    <defs>
     <path d="M 0 6 
C 1.591219 6 3.117479 5.367802 4.242641 4.242641 
C 5.367802 3.117479 6 1.591219 6 0 
C 6 -1.591219 5.367802 -3.117479 4.242641 -4.242641 
C 3.117479 -5.367802 1.591219 -6 0 -6 
C -1.591219 -6 -3.117479 -5.367802 -4.242641 -4.242641 
C -5.367802 -3.117479 -6 -1.591219 -6 0 
C -6 1.591219 -5.367802 3.117479 -4.242641 4.242641 
C -3.117479 5.367802 -1.591219 6 0 6 
z
" id="mf2ac078fe9" style="stroke:#000080;stroke-width:1.5;"/>
    </defs>
    <g>
     <use style="fill-opacity:0;stroke:#000080;stroke-width:1.5;" x="96.583356" xlink:href="#mf2ac078fe9" y="282.090045"/>
     <use style="fill-opacity:0;stroke:#000080;stroke-width:1.5;" x="148.137196" xlink:href="#mf2ac078fe9" y="238.375101"/>
     <use style="fill-opacity:0;stroke:#000080;stroke-width:1.5;" x="213.911182" xlink:href="#mf2ac078fe9" y="89.32294"/>
     <use style="fill-opacity:0;stroke:#000080;stroke-width:1.5;" x="240.242896" xlink:href="#mf2ac078fe9" y="30.334099"/>
     <use style="fill-opacity:0;stroke:#000080;stroke-width:1.5;" x="240.242896" xlink:href="#mf2ac078fe9" y="30.334099"/>
     <use style="fill-opacity:0;stroke:#000080;stroke-width:1.5;" x="338.688" xlink:href="#mf2ac078fe9" y="30.334099"/>
    </g>
   </g>
   <g id="line2d_37">
    <path style="fill:none;stroke:#000080;stroke-linecap:square;stroke-width:1.5;"/>
    <g/>
   </g>
   <g id="line2d_38">
    <defs>
     <path d="M 0 1.5 
C 0.397805 1.5 0.77937 1.341951 1.06066 1.06066 
C 1.341951 0.77937 1.5 0.397805 1.5 0 
C 1.5 -0.397805 1.341951 -0.77937 1.06066 -1.06066 
C 0.77937 -1.341951 0.397805 -1.5 0 -1.5 
C -0.397805 -1.5 -0.77937 -1.341951 -1.06066 -1.06066 
C -1.341951 -0.77937 -1.5 -0.397805 -1.5 0 
C -1.5 0.397805 -1.341951 0.77937 -1.06066 1.06066 
C -0.77937 1.341951 -0.397805 1.5 0 1.5 
z
" id="m05d03f3ab5" style="stroke:#ff7500;"/>
    </defs>
    <g>
     <use style="fill:#ff7500;stroke:#ff7500;" x="226.864433" xlink:href="#m05d03f3ab5" y="30.334099"/>
     <use style="fill:#ff7500;stroke:#ff7500;" x="226.864433" xlink:href="#m05d03f3ab5" y="30.334099"/>
    </g>
   </g>
   <g id="line2d_39">
    <path d="M -1 292.623767 
L 59.654051 292.623767 
L 59.654051 291.570395 
L 60.412401 291.570395 
L 60.412401 289.990337 
L 60.779557 289.990337 
L 60.779557 289.463651 
L 61.139142 289.463651 
L 61.139142 288.936964 
L 72.867545 288.936964 
L 72.867545 288.410278 
L 73.048265 288.410278 
L 73.048265 287.883592 
L 79.694655 287.883592 
L 79.694655 287.356906 
L 88.774181 287.356906 
L 88.774181 286.83022 
L 100.604895 286.83022 
L 100.604895 286.303534 
L 102.12848 286.303534 
L 102.12848 285.776848 
L 103.623262 285.776848 
L 103.623262 285.250162 
L 104.85549 285.250162 
L 104.85549 284.723476 
L 109.579846 284.723476 
L 109.579846 284.19679 
L 110.485426 284.19679 
L 110.485426 283.670104 
L 115.412868 283.670104 
L 115.412868 283.143418 
L 119.577783 283.143418 
L 119.577783 282.616732 
L 143.819128 282.616732 
L 143.819128 282.090045 
L 144.981877 282.090045 
L 144.981877 281.563359 
L 145.517103 281.563359 
L 145.517103 281.036673 
L 146.356287 281.036673 
L 146.356287 280.509987 
L 146.495417 280.509987 
L 146.495417 279.983301 
L 147.325458 279.983301 
L 147.411641 277.876557 
L 147.525055 277.876557 
L 147.525055 277.349871 
L 148.1808 277.349871 
L 148.267683 275.769812 
L 148.392421 275.769812 
L 148.428238 274.71644 
L 148.566042 274.71644 
L 148.566042 274.189754 
L 148.933692 274.189754 
L 148.933692 273.663068 
L 149.246018 273.663068 
L 149.246018 273.136382 
L 149.483383 273.136382 
L 149.483383 272.609696 
L 149.71313 272.609696 
L 149.71313 272.08301 
L 150.090162 272.08301 
L 150.120495 271.029638 
L 150.808139 271.029638 
L 150.808139 270.502952 
L 150.969711 270.502952 
L 151.062249 269.449579 
L 151.097081 269.449579 
L 151.154299 268.396207 
L 151.227591 268.396207 
L 151.334935 266.289463 
L 151.429577 266.289463 
L 151.429577 265.762777 
L 151.567595 265.762777 
L 151.567595 265.236091 
L 151.860002 265.236091 
L 151.942097 264.182719 
L 152.124445 264.182719 
L 152.224505 263.129347 
L 152.354493 263.129347 
L 152.367819 262.075974 
L 152.626603 262.075974 
L 152.626603 261.549288 
L 152.848312 261.549288 
L 152.848312 261.022602 
L 152.981099 261.022602 
L 153.072721 259.442544 
L 153.353728 259.442544 
L 153.380683 258.389172 
L 153.555774 258.389172 
L 153.624967 257.3358 
L 153.944287 257.3358 
L 153.944287 256.809114 
L 154.187714 256.809114 
L 154.2664 255.229055 
L 154.383768 255.229055 
L 154.451448 253.648997 
L 154.692942 253.648997 
L 154.692942 253.122311 
L 155.593621 253.122311 
L 155.672525 252.068939 
L 155.735392 252.068939 
L 155.735392 251.542253 
L 156.001622 251.542253 
L 156.061776 250.488881 
L 156.123258 250.488881 
L 156.218128 249.435508 
L 156.294262 249.435508 
L 156.294262 248.908822 
L 156.507188 248.908822 
L 156.507188 248.382136 
L 156.628341 248.382136 
L 156.628341 247.85545 
L 157.423756 247.85545 
L 157.423756 247.328764 
L 157.827751 247.328764 
L 157.855558 246.275392 
L 158.087404 246.275392 
L 158.087404 245.748706 
L 158.583406 245.748706 
L 158.598057 244.695334 
L 159.048831 244.695334 
L 159.048831 244.168648 
L 159.540039 244.168648 
L 159.540039 243.641962 
L 159.950159 243.641962 
L 159.950159 243.115275 
L 160.540064 243.115275 
L 160.540064 242.588589 
L 161.000813 242.588589 
L 161.104901 241.535217 
L 162.952226 241.535217 
L 162.952226 241.008531 
L 175.800263 241.008531 
L 175.800263 240.481845 
L 176.189591 240.481845 
L 176.189591 239.955159 
L 176.443122 239.955159 
L 176.542369 238.375101 
L 176.796485 238.375101 
L 176.796485 237.848415 
L 177.006692 237.848415 
L 177.006692 237.321729 
L 177.184154 237.321729 
L 177.273353 235.214984 
L 177.34075 235.214984 
L 177.34075 234.688298 
L 177.473413 234.688298 
L 177.572813 233.634926 
L 177.706845 233.634926 
L 177.756177 232.054868 
L 177.917858 232.054868 
L 178.01214 231.001496 
L 178.145454 231.001496 
L 178.145454 230.47481 
L 178.273881 230.47481 
L 178.288522 228.894751 
L 178.40094 228.894751 
L 178.505837 227.314693 
L 178.612642 227.314693 
L 178.692319 226.261321 
L 178.84642 226.261321 
L 178.908429 225.207949 
L 179.018172 225.207949 
L 179.066817 224.154577 
L 179.151826 224.154577 
L 179.229898 223.101204 
L 179.27511 223.101204 
L 179.324667 221.521146 
L 179.40722 221.521146 
L 179.494205 219.414402 
L 179.612308 219.414402 
L 179.689144 217.307658 
L 179.740313 217.307658 
L 179.756545 216.254285 
L 180.053164 216.254285 
L 180.053164 215.727599 
L 180.374256 215.727599 
L 180.374256 215.200913 
L 180.487324 215.200913 
L 180.582312 214.147541 
L 180.638455 214.147541 
L 180.638455 213.620855 
L 180.889443 213.620855 
L 180.889443 213.094169 
L 181.240029 213.094169 
L 181.240029 212.567483 
L 181.752506 212.567483 
L 181.752506 212.040797 
L 182.007902 212.040797 
L 182.025977 210.987425 
L 182.713018 210.987425 
L 182.713018 210.460738 
L 187.531127 210.460738 
L 187.531127 209.934052 
L 187.650312 209.934052 
L 187.650312 209.407366 
L 187.953911 209.407366 
L 187.953911 208.88068 
L 188.242344 208.88068 
L 188.242344 208.353994 
L 188.656506 208.353994 
L 188.72573 207.300622 
L 188.785016 207.300622 
L 188.860073 206.24725 
L 188.907435 206.24725 
L 188.935744 205.193878 
L 189.062684 205.193878 
L 189.138869 203.087133 
L 189.243227 203.087133 
L 189.243227 202.560447 
L 189.448498 202.560447 
L 189.525054 200.980389 
L 189.579885 200.980389 
L 189.579885 200.453703 
L 189.70112 200.453703 
L 189.723702 198.873645 
L 189.858805 198.873645 
L 189.956529 196.7669 
L 189.99573 196.7669 
L 190.031989 195.713528 
L 190.123729 195.713528 
L 190.222155 194.660156 
L 190.287826 194.660156 
L 190.393506 193.080098 
L 190.493846 193.080098 
L 190.493846 192.553412 
L 190.70739 192.553412 
L 190.70739 192.026726 
L 190.886189 192.026726 
L 190.886189 191.50004 
L 191.040398 191.50004 
L 191.06938 190.446667 
L 191.343154 190.446667 
L 191.343154 189.919981 
L 191.466117 189.919981 
L 191.506912 188.339923 
L 191.682931 188.339923 
L 191.77018 187.286551 
L 191.955768 187.286551 
L 191.955768 186.759865 
L 192.217237 186.759865 
L 192.228273 185.706493 
L 192.363617 185.706493 
L 192.468545 184.126434 
L 192.694438 184.126434 
L 192.694438 183.599748 
L 193.52228 183.599748 
L 193.52228 183.073062 
L 194.207864 183.073062 
L 194.207864 182.546376 
L 198.506106 182.546376 
L 198.506106 182.01969 
L 198.785408 182.01969 
L 198.785408 181.493004 
L 199.243138 181.493004 
L 199.313158 179.912946 
L 199.407921 179.912946 
L 199.503193 178.859574 
L 199.761688 178.859574 
L 199.761688 178.332888 
L 199.910332 178.332888 
L 200.004764 176.226143 
L 200.157625 176.226143 
L 200.229703 174.119399 
L 200.369695 174.119399 
L 200.476399 172.539341 
L 200.506044 172.539341 
L 200.50785 171.485969 
L 200.638945 171.485969 
L 200.749245 168.325852 
L 200.814074 168.325852 
L 200.880666 166.219108 
L 200.94454 166.219108 
L 201.04219 164.112363 
L 201.058763 164.112363 
L 201.093839 163.058991 
L 201.185333 163.058991 
L 201.185333 162.532305 
L 201.301791 162.532305 
L 201.393692 160.425561 
L 201.458567 160.425561 
L 201.553162 157.79213 
L 201.582958 157.79213 
L 201.582958 157.265444 
L 201.821854 157.265444 
L 201.858327 156.212072 
L 202.000367 156.212072 
L 202.000367 155.685386 
L 202.131719 155.685386 
L 202.211499 153.051956 
L 202.26949 153.051956 
L 202.26949 152.52527 
L 202.429381 152.52527 
L 202.429381 151.998584 
L 202.571249 151.998584 
L 202.65203 150.945211 
L 202.760815 150.945211 
L 202.760815 150.418525 
L 203.015308 150.418525 
L 203.015308 149.891839 
L 203.139364 149.891839 
L 203.139364 149.365153 
L 203.541261 149.365153 
L 203.541261 148.838467 
L 203.817486 148.838467 
L 203.817486 148.311781 
L 204.260333 148.311781 
L 204.260333 147.785095 
L 210.650919 147.785095 
L 210.650919 147.258409 
L 211.09891 147.258409 
L 211.09891 146.731723 
L 211.231621 146.731723 
L 211.26849 145.678351 
L 211.427943 145.678351 
L 211.494948 143.04492 
L 211.553199 143.04492 
L 211.643582 140.41149 
L 211.693797 140.41149 
L 211.804445 137.778059 
L 211.826478 137.778059 
L 211.927097 135.671315 
L 211.951599 135.671315 
L 212.056221 132.511199 
L 212.115043 132.511199 
L 212.177368 131.457826 
L 212.238733 131.457826 
L 212.326313 128.824396 
L 212.437771 128.824396 
L 212.505551 125.66428 
L 212.595116 125.66428 
L 212.683744 123.557535 
L 212.765368 123.557535 
L 212.874833 119.344047 
L 212.966239 119.344047 
L 213.074864 116.18393 
L 213.084173 116.18393 
L 213.193058 112.497128 
L 213.225428 112.497128 
L 213.304561 108.283639 
L 213.347511 108.283639 
L 213.386904 106.176895 
L 213.477217 106.176895 
L 213.568545 103.016778 
L 213.612326 103.016778 
L 213.704929 100.383348 
L 213.730104 100.383348 
L 213.834704 96.169859 
L 213.888224 96.169859 
L 213.93556 93.536429 
L 214.017591 93.536429 
L 214.11817 91.429684 
L 214.170332 91.429684 
L 214.274575 87.216196 
L 214.286872 87.216196 
L 214.388684 84.582765 
L 214.425742 84.582765 
L 214.51133 81.949335 
L 214.573729 81.949335 
L 214.644953 79.315904 
L 214.702289 79.315904 
L 214.757682 78.262532 
L 214.852084 78.262532 
L 214.913066 76.682474 
L 214.971945 76.682474 
L 215.058874 75.102416 
L 215.101993 75.102416 
L 215.148231 73.522358 
L 215.312453 73.522358 
L 215.391347 71.942299 
L 215.491569 71.942299 
L 215.491569 71.415613 
L 215.801651 71.415613 
L 215.801651 70.888927 
L 224.112267 70.888927 
L 224.112267 70.362241 
L 224.39332 70.362241 
L 224.46756 68.782183 
L 224.546552 68.782183 
L 224.588063 67.728811 
L 224.662655 67.728811 
L 224.772421 66.148752 
L 224.861134 66.148752 
L 224.924272 64.568694 
L 225.008554 64.568694 
L 225.117258 60.355206 
L 225.14457 60.355206 
L 225.252578 56.668403 
L 225.325692 56.668403 
L 225.399397 54.034973 
L 225.511125 54.034973 
L 225.545536 52.454914 
L 225.627189 52.454914 
L 225.729026 50.34817 
L 225.782944 50.34817 
L 225.876487 49.294798 
L 225.92572 49.294798 
L 226.001124 48.241426 
L 226.041628 48.241426 
L 226.128368 45.081309 
L 226.19123 45.081309 
L 226.291591 42.447879 
L 226.315098 42.447879 
L 226.336684 41.394507 
L 226.43096 41.394507 
L 226.517686 37.707704 
L 226.542216 37.707704 
L 226.621795 35.074274 
L 226.659138 35.074274 
L 226.732834 32.967529 
L 226.792038 32.967529 
L 226.864433 30.334099 
L 338.688 30.334099 
L 338.688 30.334099 
" style="fill:none;stroke:#ff7500;stroke-linecap:square;stroke-width:1.5;"/>
   </g>
   <g id="line2d_40">
    <defs>
     <path d="M 0 -6 
L -1.347084 -1.854102 
L -5.706339 -1.854102 
L -2.179628 0.708204 
L -3.526712 4.854102 
L -0 2.291796 
L 3.526712 4.854102 
L 2.179628 0.708204 
L 5.706339 -1.854102 
L 1.347084 -1.854102 
z
" id="m01a24d768e" style="stroke:#ff7500;stroke-linejoin:bevel;stroke-width:1.5;"/>
    </defs>
    <g>
     <use style="fill-opacity:0;stroke:#ff7500;stroke-linejoin:bevel;stroke-width:1.5;" x="61.139142" xlink:href="#m01a24d768e" y="289.463651"/>
     <use style="fill-opacity:0;stroke:#ff7500;stroke-linejoin:bevel;stroke-width:1.5;" x="148.1808" xlink:href="#m01a24d768e" y="277.349871"/>
     <use style="fill-opacity:0;stroke:#ff7500;stroke-linejoin:bevel;stroke-width:1.5;" x="201.821854" xlink:href="#m01a24d768e" y="157.265444"/>
     <use style="fill-opacity:0;stroke:#ff7500;stroke-linejoin:bevel;stroke-width:1.5;" x="226.864433" xlink:href="#m01a24d768e" y="30.860785"/>
     <use style="fill-opacity:0;stroke:#ff7500;stroke-linejoin:bevel;stroke-width:1.5;" x="226.864433" xlink:href="#m01a24d768e" y="30.334099"/>
     <use style="fill-opacity:0;stroke:#ff7500;stroke-linejoin:bevel;stroke-width:1.5;" x="338.688" xlink:href="#m01a24d768e" y="30.334099"/>
    </g>
   </g>
   <g id="line2d_41">
    <path style="fill:none;stroke:#ff7500;stroke-linecap:square;stroke-width:1.5;"/>
    <g/>
   </g>
   <g id="line2d_42">
    <defs>
     <path d="M 0 1.5 
C 0.397805 1.5 0.77937 1.341951 1.06066 1.06066 
C 1.341951 0.77937 1.5 0.397805 1.5 0 
C 1.5 -0.397805 1.341951 -0.77937 1.06066 -1.06066 
C 0.77937 -1.341951 0.397805 -1.5 0 -1.5 
C -0.397805 -1.5 -0.77937 -1.341951 -1.06066 -1.06066 
C -1.341951 -0.77937 -1.5 -0.397805 -1.5 0 
C -1.5 0.397805 -1.341951 0.77937 -1.06066 1.06066 
C -0.77937 1.341951 -0.397805 1.5 0 1.5 
z
" id="m800f3a2dce" style="stroke:#6495ed;"/>
    </defs>
    <g>
     <use style="fill:#6495ed;stroke:#6495ed;" x="241.685024" xlink:href="#m800f3a2dce" y="277.876557"/>
     <use style="fill:#6495ed;stroke:#6495ed;" x="241.685024" xlink:href="#m800f3a2dce" y="277.876557"/>
    </g>
   </g>
   <g id="line2d_43">
    <path d="M -1 293.150453 
L 59.654051 293.150453 
L 59.654051 292.623767 
L 60.412401 292.623767 
L 60.412401 291.570395 
L 61.139142 291.570395 
L 61.139142 290.517023 
L 61.491463 290.517023 
L 61.491463 289.463651 
L 73.048265 289.463651 
L 73.048265 288.936964 
L 79.694655 288.936964 
L 79.694655 288.410278 
L 88.774181 288.410278 
L 88.774181 287.883592 
L 89.135256 287.883592 
L 89.135256 287.356906 
L 96.583356 287.356906 
L 96.583356 286.83022 
L 100.604895 286.83022 
L 100.604895 286.303534 
L 102.12848 286.303534 
L 102.12848 285.776848 
L 103.623262 285.776848 
L 103.623262 285.250162 
L 106.382575 285.250162 
L 106.382575 284.723476 
L 109.579846 284.723476 
L 109.579846 284.19679 
L 110.485426 284.19679 
L 110.485426 283.670104 
L 115.412868 283.670104 
L 115.412868 283.143418 
L 117.359231 283.143418 
L 117.359231 282.616732 
L 119.577783 282.616732 
L 119.577783 282.090045 
L 175.502328 282.090045 
L 175.502328 281.563359 
L 177.179109 281.563359 
L 177.179109 281.036673 
L 188.612506 281.036673 
L 188.612506 280.509987 
L 218.337085 280.509987 
L 218.337085 279.983301 
L 228.62631 279.983301 
L 228.62631 279.456615 
L 230.572828 279.456615 
L 230.572828 278.929929 
L 230.681442 278.929929 
L 230.681442 278.403243 
L 241.685024 278.403243 
L 241.685024 277.876557 
L 338.688 277.876557 
" style="fill:none;stroke:#6495ed;stroke-linecap:square;stroke-width:1.5;"/>
   </g>
   <g id="line2d_44">
    <defs>
     <path d="M -0 6 
L 6 -6 
L -6 -6 
z
" id="m9bbfc328dd" style="stroke:#6495ed;stroke-linejoin:miter;stroke-width:1.5;"/>
    </defs>
    <g>
     <use style="fill-opacity:0;stroke:#6495ed;stroke-linejoin:miter;stroke-width:1.5;" x="109.579846" xlink:href="#m9bbfc328dd" y="284.19679"/>
     <use style="fill-opacity:0;stroke:#6495ed;stroke-linejoin:miter;stroke-width:1.5;" x="188.612506" xlink:href="#m9bbfc328dd" y="280.509987"/>
     <use style="fill-opacity:0;stroke:#6495ed;stroke-linejoin:miter;stroke-width:1.5;" x="241.685024" xlink:href="#m9bbfc328dd" y="278.403243"/>
     <use style="fill-opacity:0;stroke:#6495ed;stroke-linejoin:miter;stroke-width:1.5;" x="241.685024" xlink:href="#m9bbfc328dd" y="277.876557"/>
     <use style="fill-opacity:0;stroke:#6495ed;stroke-linejoin:miter;stroke-width:1.5;" x="338.688" xlink:href="#m9bbfc328dd" y="277.876557"/>
    </g>
   </g>
   <g id="line2d_45">
    <path style="fill:none;stroke:#6495ed;stroke-linecap:square;stroke-width:1.5;"/>
    <g/>
   </g>
   <g id="line2d_46">
    <path clip-path="url(#p01f7383c01)" d="M 230.572785 279.456615 
" style="fill:none;stroke:#6495ed;stroke-linecap:square;stroke-width:1.5;"/>
    <defs>
     <path d="M -12 12 
L 12 -12 
M -12 -12 
L 12 12 
" id="mc3c7b231a2" style="stroke:#6495ed;"/>
    </defs>
    <g clip-path="url(#p01f7383c01)">
     <use style="fill:#6495ed;stroke:#6495ed;" x="230.572785" xlink:href="#mc3c7b231a2" y="279.456615"/>
    </g>
   </g>
   <g id="line2d_47">
    <defs>
     <path d="M 0 1.5 
C 0.397805 1.5 0.77937 1.341951 1.06066 1.06066 
C 1.341951 0.77937 1.5 0.397805 1.5 0 
C 1.5 -0.397805 1.341951 -0.77937 1.06066 -1.06066 
C 0.77937 -1.341951 0.397805 -1.5 0 -1.5 
C -0.397805 -1.5 -0.77937 -1.341951 -1.06066 -1.06066 
C -1.341951 -0.77937 -1.5 -0.397805 -1.5 0 
C -1.5 0.397805 -1.341951 0.77937 -1.06066 1.06066 
C -0.77937 1.341951 -0.397805 1.5 0 1.5 
z
" id="m7821048540" style="stroke:#ff0000;"/>
    </defs>
    <g>
     <use style="fill:#ff0000;stroke:#ff0000;" x="261.716451" xlink:href="#m7821048540" y="172.539341"/>
     <use style="fill:#ff0000;stroke:#ff0000;" x="261.716451" xlink:href="#m7821048540" y="172.539341"/>
    </g>
   </g>
   <g id="line2d_48">
    <path d="M -1 293.150453 
L 12.427603 293.150453 
L 12.427603 292.097081 
L 21.336035 292.097081 
L 21.336035 291.570395 
L 33.424023 291.570395 
L 33.424023 291.043709 
L 82.312613 291.043709 
L 82.312613 290.517023 
L 87.487404 290.517023 
L 87.565783 289.463651 
L 88.627632 289.463651 
L 88.701061 288.410278 
L 90.575071 288.410278 
L 90.575071 287.883592 
L 90.706194 287.883592 
L 90.706194 287.356906 
L 90.901048 287.356906 
L 90.901048 286.83022 
L 91.72113 286.83022 
L 91.72113 286.303534 
L 91.843942 286.303534 
L 91.843942 285.776848 
L 92.207273 285.776848 
L 92.207273 285.250162 
L 93.478247 285.250162 
L 93.478247 284.723476 
L 96.014634 284.723476 
L 96.014634 284.19679 
L 98.143463 284.19679 
L 98.143463 283.670104 
L 100.493461 283.670104 
L 100.493461 283.143418 
L 101.258944 283.143418 
L 101.258944 282.616732 
L 101.401017 282.616732 
L 101.401017 282.090045 
L 101.646892 282.090045 
L 101.646892 281.563359 
L 102.060491 281.563359 
L 102.060491 281.036673 
L 103.181738 281.036673 
L 103.181738 280.509987 
L 103.778279 280.509987 
L 103.839902 279.456615 
L 104.562878 279.456615 
L 104.562878 278.929929 
L 104.85549 278.929929 
L 104.85549 278.403243 
L 105.143273 278.403243 
L 105.200264 277.349871 
L 105.341933 277.349871 
L 105.426385 276.296499 
L 105.538355 276.296499 
L 105.538355 275.769812 
L 106.382575 275.769812 
L 106.382575 275.243126 
L 107.638849 275.243126 
L 107.638849 274.71644 
L 108.006005 274.71644 
L 108.006005 274.189754 
L 109.690152 274.189754 
L 109.690152 273.663068 
L 110.316522 273.663068 
L 110.316522 273.136382 
L 110.652711 273.136382 
L 110.652711 272.609696 
L 112.147567 272.609696 
L 112.147567 272.08301 
L 112.803609 272.08301 
L 112.803609 271.556324 
L 113.059268 271.556324 
L 113.059268 271.029638 
L 113.821859 271.029638 
L 113.821859 270.502952 
L 113.994527 270.502952 
L 113.994527 269.976266 
L 114.418861 269.976266 
L 114.418861 269.449579 
L 115.0447 269.449579 
L 115.0447 268.922893 
L 115.365285 268.922893 
L 115.365285 268.396207 
L 115.989297 268.396207 
L 115.989297 267.869521 
L 116.502698 267.869521 
L 116.502698 267.342835 
L 117.116718 267.342835 
L 117.116718 266.816149 
L 117.330874 266.816149 
L 117.330874 266.289463 
L 118.229649 266.289463 
L 118.229649 265.762777 
L 119.084365 265.762777 
L 119.122819 264.709405 
L 119.389655 264.709405 
L 119.389655 264.182719 
L 120.262724 264.182719 
L 120.262724 263.656033 
L 120.852343 263.656033 
L 120.852343 263.129347 
L 121.422678 263.129347 
L 121.422678 262.60266 
L 122.083336 262.60266 
L 122.094137 261.549288 
L 122.49972 261.549288 
L 122.552391 260.495916 
L 123.121507 260.495916 
L 123.121507 259.96923 
L 123.303801 259.96923 
L 123.303801 259.442544 
L 124.024168 259.442544 
L 124.024168 258.915858 
L 124.557288 258.915858 
L 124.557288 258.389172 
L 124.715955 258.389172 
L 124.715955 257.862486 
L 126.682036 257.862486 
L 126.756581 256.809114 
L 127.181154 256.809114 
L 127.181154 256.282427 
L 127.556207 256.282427 
L 127.587757 255.229055 
L 127.736845 255.229055 
L 127.736845 254.702369 
L 128.107907 254.702369 
L 128.14611 253.648997 
L 128.463746 253.648997 
L 128.463746 253.122311 
L 129.454301 253.122311 
L 129.454301 252.068939 
L 129.59534 252.068939 
L 129.59534 251.542253 
L 130.946327 251.542253 
L 130.946327 251.015567 
L 132.266551 251.015567 
L 132.308682 249.435508 
L 132.547499 249.435508 
L 132.565279 248.382136 
L 132.835661 248.382136 
L 132.835661 247.85545 
L 132.957716 247.85545 
L 132.957716 247.328764 
L 133.210713 247.328764 
L 133.210713 246.802078 
L 134.03029 246.802078 
L 134.106373 245.748706 
L 134.582433 245.748706 
L 134.582433 245.22202 
L 134.823484 245.22202 
L 134.823484 244.695334 
L 135.416958 244.695334 
L 135.416958 244.168648 
L 135.981161 244.168648 
L 135.981161 243.641962 
L 136.924311 243.641962 
L 136.924311 243.115275 
L 137.616275 243.115275 
L 137.616275 242.588589 
L 138.14041 242.588589 
L 138.14041 242.061903 
L 138.430574 242.061903 
L 138.430574 241.535217 
L 138.906448 241.535217 
L 138.906448 241.008531 
L 139.453687 241.008531 
L 139.453687 240.481845 
L 140.073083 240.481845 
L 140.073083 239.955159 
L 140.19972 239.955159 
L 140.19972 239.428473 
L 140.423864 239.428473 
L 140.423864 238.901787 
L 141.188235 238.901787 
L 141.188235 238.375101 
L 141.360796 238.375101 
L 141.417939 237.321729 
L 143.241082 237.321729 
L 143.241082 236.795043 
L 148.233947 236.795043 
L 148.233947 236.268356 
L 170.819995 236.268356 
L 170.819995 235.74167 
L 171.016398 235.74167 
L 171.016398 235.214984 
L 171.287956 235.214984 
L 171.287956 234.688298 
L 171.433967 234.688298 
L 171.483639 233.10824 
L 171.74995 233.10824 
L 171.74995 232.581554 
L 172.302862 232.581554 
L 172.302862 232.054868 
L 172.658398 232.054868 
L 172.658398 231.528182 
L 172.779253 231.528182 
L 172.779253 231.001496 
L 172.972999 231.001496 
L 172.972999 230.47481 
L 173.335861 230.47481 
L 173.356435 229.421437 
L 173.623961 229.421437 
L 173.728826 228.368065 
L 173.764013 228.368065 
L 173.764013 227.841379 
L 174.283479 227.841379 
L 174.283479 227.314693 
L 174.419966 227.314693 
L 174.419966 226.788007 
L 174.895969 226.788007 
L 174.895969 226.261321 
L 175.067161 226.261321 
L 175.083205 225.207949 
L 175.471494 225.207949 
L 175.471494 224.681263 
L 175.736099 224.681263 
L 175.736099 224.154577 
L 176.640108 224.154577 
L 176.640108 223.627891 
L 178.623203 223.627891 
L 178.623203 223.101204 
L 179.086155 223.101204 
L 179.086155 222.574518 
L 179.545147 222.574518 
L 179.545147 222.047832 
L 181.397773 222.047832 
L 181.397773 221.521146 
L 183.938168 221.521146 
L 184.00932 220.467774 
L 184.409346 220.467774 
L 184.409346 219.941088 
L 184.632169 219.941088 
L 184.632169 219.414402 
L 184.85543 219.414402 
L 184.85543 218.887716 
L 185.146314 218.887716 
L 185.146314 218.36103 
L 185.307954 218.36103 
L 185.393516 217.307658 
L 185.645734 217.307658 
L 185.645734 216.780971 
L 185.863437 216.780971 
L 185.863437 216.254285 
L 186.023844 216.254285 
L 186.124933 214.674227 
L 186.190725 214.674227 
L 186.287318 212.040797 
L 186.350061 212.040797 
L 186.4015 210.987425 
L 186.508492 210.987425 
L 186.60575 208.88068 
L 186.630847 208.88068 
L 186.656175 207.827308 
L 186.799711 207.827308 
L 186.799711 207.300622 
L 186.926606 207.300622 
L 186.995196 206.24725 
L 187.066901 206.24725 
L 187.170676 204.667192 
L 187.280264 204.667192 
L 187.380992 202.560447 
L 187.570104 202.560447 
L 187.570104 202.033761 
L 187.702075 202.033761 
L 187.724391 200.453703 
L 187.81711 200.453703 
L 187.874344 199.400331 
L 187.979365 199.400331 
L 188.019078 198.346959 
L 189.046896 198.346959 
L 189.046896 197.820273 
L 189.303986 197.820273 
L 189.303986 197.293586 
L 189.559823 197.293586 
L 189.559823 196.7669 
L 190.213902 196.7669 
L 190.213902 196.240214 
L 190.4006 196.240214 
L 190.441819 195.186842 
L 191.258649 195.186842 
L 191.258649 194.660156 
L 197.191982 194.660156 
L 197.191982 194.13347 
L 199.148644 194.13347 
L 199.148644 193.606784 
L 199.495284 193.606784 
L 199.495284 193.080098 
L 200.940077 193.080098 
L 200.940077 192.553412 
L 201.682849 192.553412 
L 201.767169 191.50004 
L 202.722897 191.50004 
L 202.754149 190.446667 
L 202.950123 190.446667 
L 202.950123 189.919981 
L 203.070276 189.919981 
L 203.136051 188.866609 
L 203.220446 188.866609 
L 203.307205 187.813237 
L 203.519597 187.813237 
L 203.519597 187.286551 
L 203.904998 187.286551 
L 203.904998 186.759865 
L 204.061735 186.759865 
L 204.061735 186.233179 
L 204.376833 186.233179 
L 204.448628 184.653121 
L 204.969672 184.653121 
L 204.969672 184.126434 
L 210.168577 184.126434 
L 210.168577 183.599748 
L 210.454041 183.599748 
L 210.454041 183.073062 
L 211.749051 183.073062 
L 211.852064 181.493004 
L 216.880635 181.493004 
L 216.880635 180.966318 
L 220.783912 180.966318 
L 220.874466 179.912946 
L 220.981569 179.912946 
L 220.981569 179.38626 
L 223.589636 179.38626 
L 223.589636 178.859574 
L 223.804529 178.859574 
L 223.804529 178.332888 
L 224.225387 178.332888 
L 224.225387 177.806202 
L 224.399348 177.806202 
L 224.399348 177.279515 
L 224.568168 177.279515 
L 224.568168 176.752829 
L 229.619968 176.752829 
L 229.619968 176.226143 
L 230.347918 176.226143 
L 230.347918 175.699457 
L 231.683509 175.699457 
L 231.683509 175.172771 
L 234.952243 175.172771 
L 234.952243 174.646085 
L 236.760284 174.646085 
L 236.760284 174.119399 
L 236.921213 174.119399 
L 236.921213 173.592713 
L 241.954244 173.592713 
L 241.954244 173.066027 
L 261.716451 173.066027 
L 261.716451 172.539341 
L 338.688 172.539341 
L 338.688 172.539341 
" style="fill:none;stroke:#ff0000;stroke-linecap:square;stroke-width:1.5;"/>
   </g>
   <g id="line2d_49">
    <defs>
     <path d="M 0 -6 
L -5.196152 -3 
L -5.196152 3 
L -0 6 
L 5.196152 3 
L 5.196152 -3 
z
" id="mc94bbb23a4" style="stroke:#ff0000;stroke-linejoin:miter;stroke-width:1.5;"/>
    </defs>
    <g>
     <use style="fill-opacity:0;stroke:#ff0000;stroke-linejoin:miter;stroke-width:1.5;" x="104.85549" xlink:href="#mc94bbb23a4" y="278.403243"/>
     <use style="fill-opacity:0;stroke:#ff0000;stroke-linejoin:miter;stroke-width:1.5;" x="172.302862" xlink:href="#mc94bbb23a4" y="232.054868"/>
     <use style="fill-opacity:0;stroke:#ff0000;stroke-linejoin:miter;stroke-width:1.5;" x="236.921213" xlink:href="#mc94bbb23a4" y="174.119399"/>
     <use style="fill-opacity:0;stroke:#ff0000;stroke-linejoin:miter;stroke-width:1.5;" x="261.716451" xlink:href="#mc94bbb23a4" y="172.539341"/>
     <use style="fill-opacity:0;stroke:#ff0000;stroke-linejoin:miter;stroke-width:1.5;" x="261.716451" xlink:href="#mc94bbb23a4" y="172.539341"/>
     <use style="fill-opacity:0;stroke:#ff0000;stroke-linejoin:miter;stroke-width:1.5;" x="338.688" xlink:href="#mc94bbb23a4" y="172.539341"/>
    </g>
   </g>
   <g id="line2d_50">
    <path style="fill:none;stroke:#ff0000;stroke-linecap:square;stroke-width:1.5;"/>
    <g/>
   </g>
   <g id="line2d_51">
    <path clip-path="url(#p01f7383c01)" d="M 194.04504 194.660156 
" style="fill:none;stroke:#ff0000;stroke-linecap:square;stroke-width:1.5;"/>
    <defs>
     <path d="M -12 12 
L 12 -12 
M -12 -12 
L 12 12 
" id="m7d34d044a1" style="stroke:#ff0000;"/>
    </defs>
    <g clip-path="url(#p01f7383c01)">
     <use style="fill:#ff0000;stroke:#ff0000;" x="194.04504" xlink:href="#m7d34d044a1" y="194.660156"/>
    </g>
   </g>
   <g id="line2d_52">
    <path d="M 338.688 277.876557 
L 369.60768 293.571802 
" style="fill:none;stroke:#6495ed;stroke-linecap:square;stroke-width:1.5;"/>
    <g>
     <use style="fill-opacity:0;stroke:#6495ed;stroke-linejoin:miter;stroke-width:1.5;" x="338.688" xlink:href="#m9bbfc328dd" y="277.876557"/>
     <use style="fill-opacity:0;stroke:#6495ed;stroke-linejoin:miter;stroke-width:1.5;" x="369.60768" xlink:href="#m9bbfc328dd" y="293.571802"/>
    </g>
   </g>
   <g id="line2d_53">
    <path d="M 338.688 172.539341 
L 369.60768 229.105426 
" style="fill:none;stroke:#ff0000;stroke-linecap:square;stroke-width:1.5;"/>
    <g>
     <use style="fill-opacity:0;stroke:#ff0000;stroke-linejoin:miter;stroke-width:1.5;" x="338.688" xlink:href="#mc94bbb23a4" y="172.539341"/>
     <use style="fill-opacity:0;stroke:#ff0000;stroke-linejoin:miter;stroke-width:1.5;" x="369.60768" xlink:href="#mc94bbb23a4" y="229.105426"/>
    </g>
   </g>
   <g id="line2d_54">
    <path d="M 338.688 30.334099 
L 369.60768 164.63905 
" style="fill:none;stroke:#000080;stroke-linecap:square;stroke-width:1.5;"/>
    <g>
     <use style="fill-opacity:0;stroke:#000080;stroke-width:1.5;" x="338.688" xlink:href="#mf2ac078fe9" y="30.334099"/>
     <use style="fill-opacity:0;stroke:#000080;stroke-width:1.5;" x="369.60768" xlink:href="#mf2ac078fe9" y="164.63905"/>
    </g>
   </g>
   <g id="line2d_55">
    <path d="M 338.688 30.334099 
L 369.60768 35.706297 
" style="fill:none;stroke:#ff7500;stroke-linecap:square;stroke-width:1.5;"/>
    <g>
     <use style="fill-opacity:0;stroke:#ff7500;stroke-linejoin:bevel;stroke-width:1.5;" x="338.688" xlink:href="#m01a24d768e" y="30.334099"/>
     <use style="fill-opacity:0;stroke:#ff7500;stroke-linejoin:bevel;stroke-width:1.5;" x="369.60768" xlink:href="#m01a24d768e" y="35.706297"/>
    </g>
   </g>
   <g id="line2d_56">
    <path d="M 338.688 298.944 
L 338.688 30.334099 
" style="fill:none;stroke:#000000;stroke-linecap:square;stroke-width:1.5;"/>
   </g>
   <g id="patch_3">
    <path d="M 57.6 298.944 
L 57.6 27.648 
" style="fill:none;stroke:#000000;stroke-linecap:square;stroke-linejoin:miter;stroke-width:0.8;"/>
   </g>
   <g id="patch_4">
    <path d="M 338.688 298.944 
L 338.688 27.648 
" style="fill:none;stroke:#000000;stroke-linecap:square;stroke-linejoin:miter;stroke-width:0.8;"/>
   </g>
   <g id="patch_5">
    <path d="M 57.6 298.944 
L 338.688 298.944 
" style="fill:none;stroke:#000000;stroke-linecap:square;stroke-linejoin:miter;stroke-width:0.8;"/>
   </g>
   <g id="patch_6">
    <path d="M 57.6 27.648 
L 338.688 27.648 
" style="fill:none;stroke:#000000;stroke-linecap:square;stroke-linejoin:miter;stroke-width:0.8;"/>
   </g>
   <g id="text_13">
    <!-- SLSQP-11- -->
    <g transform="translate(375.22944 298.262739)scale(0.17 -0.17)">
     <defs>
      <path d="M 3425 4513 
L 3425 3897 
Q 3066 4069 2747 4153 
Q 2428 4238 2131 4238 
Q 1616 4238 1336 4038 
Q 1056 3838 1056 3469 
Q 1056 3159 1242 3001 
Q 1428 2844 1947 2747 
L 2328 2669 
Q 3034 2534 3370 2195 
Q 3706 1856 3706 1288 
Q 3706 609 3251 259 
Q 2797 -91 1919 -91 
Q 1588 -91 1214 -16 
Q 841 59 441 206 
L 441 856 
Q 825 641 1194 531 
Q 1563 422 1919 422 
Q 2459 422 2753 634 
Q 3047 847 3047 1241 
Q 3047 1584 2836 1778 
Q 2625 1972 2144 2069 
L 1759 2144 
Q 1053 2284 737 2584 
Q 422 2884 422 3419 
Q 422 4038 858 4394 
Q 1294 4750 2059 4750 
Q 2388 4750 2728 4690 
Q 3069 4631 3425 4513 
z
" id="DejaVuSans-53" transform="scale(0.015625)"/>
      <path d="M 628 4666 
L 1259 4666 
L 1259 531 
L 3531 531 
L 3531 0 
L 628 0 
L 628 4666 
z
" id="DejaVuSans-4c" transform="scale(0.015625)"/>
      <path d="M 2522 4238 
Q 1834 4238 1429 3725 
Q 1025 3213 1025 2328 
Q 1025 1447 1429 934 
Q 1834 422 2522 422 
Q 3209 422 3611 934 
Q 4013 1447 4013 2328 
Q 4013 3213 3611 3725 
Q 3209 4238 2522 4238 
z
M 3406 84 
L 4238 -825 
L 3475 -825 
L 2784 -78 
Q 2681 -84 2626 -87 
Q 2572 -91 2522 -91 
Q 1538 -91 948 567 
Q 359 1225 359 2328 
Q 359 3434 948 4092 
Q 1538 4750 2522 4750 
Q 3503 4750 4090 4092 
Q 4678 3434 4678 2328 
Q 4678 1516 4351 937 
Q 4025 359 3406 84 
z
" id="DejaVuSans-51" transform="scale(0.015625)"/>
      <path d="M 1259 4147 
L 1259 2394 
L 2053 2394 
Q 2494 2394 2734 2622 
Q 2975 2850 2975 3272 
Q 2975 3691 2734 3919 
Q 2494 4147 2053 4147 
L 1259 4147 
z
M 628 4666 
L 2053 4666 
Q 2838 4666 3239 4311 
Q 3641 3956 3641 3272 
Q 3641 2581 3239 2228 
Q 2838 1875 2053 1875 
L 1259 1875 
L 1259 0 
L 628 0 
L 628 4666 
z
" id="DejaVuSans-50" transform="scale(0.015625)"/>
     </defs>
     <use xlink:href="#DejaVuSans-53"/>
     <use x="63.476562" xlink:href="#DejaVuSans-4c"/>
     <use x="119.189453" xlink:href="#DejaVuSans-53"/>
     <use x="182.666016" xlink:href="#DejaVuSans-51"/>
     <use x="261.376953" xlink:href="#DejaVuSans-50"/>
     <use x="319.429688" xlink:href="#DejaVuSans-2d"/>
     <use x="355.513672" xlink:href="#DejaVuSans-31"/>
     <use x="419.136719" xlink:href="#DejaVuSans-31"/>
     <use x="482.759766" xlink:href="#DejaVuSans-2d"/>
    </g>
   </g>
   <g id="text_14">
    <!-- lq-CMA-ES -->
    <g transform="translate(375.22944 233.796363)scale(0.17 -0.17)">
     <defs>
      <path d="M 947 1747 
Q 947 1113 1208 752 
Q 1469 391 1925 391 
Q 2381 391 2643 752 
Q 2906 1113 2906 1747 
Q 2906 2381 2643 2742 
Q 2381 3103 1925 3103 
Q 1469 3103 1208 2742 
Q 947 2381 947 1747 
z
M 2906 525 
Q 2725 213 2448 61 
Q 2172 -91 1784 -91 
Q 1150 -91 751 415 
Q 353 922 353 1747 
Q 353 2572 751 3078 
Q 1150 3584 1784 3584 
Q 2172 3584 2448 3432 
Q 2725 3281 2906 2969 
L 2906 3500 
L 3481 3500 
L 3481 -1331 
L 2906 -1331 
L 2906 525 
z
" id="DejaVuSans-71" transform="scale(0.015625)"/>
      <path d="M 4122 4306 
L 4122 3641 
Q 3803 3938 3442 4084 
Q 3081 4231 2675 4231 
Q 1875 4231 1450 3742 
Q 1025 3253 1025 2328 
Q 1025 1406 1450 917 
Q 1875 428 2675 428 
Q 3081 428 3442 575 
Q 3803 722 4122 1019 
L 4122 359 
Q 3791 134 3420 21 
Q 3050 -91 2638 -91 
Q 1578 -91 968 557 
Q 359 1206 359 2328 
Q 359 3453 968 4101 
Q 1578 4750 2638 4750 
Q 3056 4750 3426 4639 
Q 3797 4528 4122 4306 
z
" id="DejaVuSans-43" transform="scale(0.015625)"/>
      <path d="M 628 4666 
L 1569 4666 
L 2759 1491 
L 3956 4666 
L 4897 4666 
L 4897 0 
L 4281 0 
L 4281 4097 
L 3078 897 
L 2444 897 
L 1241 4097 
L 1241 0 
L 628 0 
L 628 4666 
z
" id="DejaVuSans-4d" transform="scale(0.015625)"/>
      <path d="M 2188 4044 
L 1331 1722 
L 3047 1722 
L 2188 4044 
z
M 1831 4666 
L 2547 4666 
L 4325 0 
L 3669 0 
L 3244 1197 
L 1141 1197 
L 716 0 
L 50 0 
L 1831 4666 
z
" id="DejaVuSans-41" transform="scale(0.015625)"/>
      <path d="M 628 4666 
L 3578 4666 
L 3578 4134 
L 1259 4134 
L 1259 2753 
L 3481 2753 
L 3481 2222 
L 1259 2222 
L 1259 531 
L 3634 531 
L 3634 0 
L 628 0 
L 628 4666 
z
" id="DejaVuSans-45" transform="scale(0.015625)"/>
     </defs>
     <use xlink:href="#DejaVuSans-6c"/>
     <use x="27.783203" xlink:href="#DejaVuSans-71"/>
     <use x="91.259766" xlink:href="#DejaVuSans-2d"/>
     <use x="127.34375" xlink:href="#DejaVuSans-43"/>
     <use x="197.167969" xlink:href="#DejaVuSans-4d"/>
     <use x="283.447266" xlink:href="#DejaVuSans-41"/>
     <use x="349.605469" xlink:href="#DejaVuSans-2d"/>
     <use x="385.689453" xlink:href="#DejaVuSans-45"/>
     <use x="448.873047" xlink:href="#DejaVuSans-53"/>
    </g>
   </g>
   <g id="text_15">
    <!-- CMA-ES-20 -->
    <g transform="translate(375.22944 169.329987)scale(0.17 -0.17)">
     <use xlink:href="#DejaVuSans-43"/>
     <use x="69.824219" xlink:href="#DejaVuSans-4d"/>
     <use x="156.103516" xlink:href="#DejaVuSans-41"/>
     <use x="222.261719" xlink:href="#DejaVuSans-2d"/>
     <use x="258.345703" xlink:href="#DejaVuSans-45"/>
     <use x="321.529297" xlink:href="#DejaVuSans-53"/>
     <use x="385.005859" xlink:href="#DejaVuSans-2d"/>
     <use x="421.089844" xlink:href="#DejaVuSans-32"/>
     <use x="484.712891" xlink:href="#DejaVuSans-30"/>
    </g>
   </g>
   <g id="text_16">
    <!-- best 2009 -->
    <g transform="translate(375.22944 104.863611)scale(0.17 -0.17)">
     <defs>
      <path d="M 3116 1747 
Q 3116 2381 2855 2742 
Q 2594 3103 2138 3103 
Q 1681 3103 1420 2742 
Q 1159 2381 1159 1747 
Q 1159 1113 1420 752 
Q 1681 391 2138 391 
Q 2594 391 2855 752 
Q 3116 1113 3116 1747 
z
M 1159 2969 
Q 1341 3281 1617 3432 
Q 1894 3584 2278 3584 
Q 2916 3584 3314 3078 
Q 3713 2572 3713 1747 
Q 3713 922 3314 415 
Q 2916 -91 2278 -91 
Q 1894 -91 1617 61 
Q 1341 213 1159 525 
L 1159 0 
L 581 0 
L 581 4863 
L 1159 4863 
L 1159 2969 
z
" id="DejaVuSans-62" transform="scale(0.015625)"/>
      <path d="M 703 97 
L 703 672 
Q 941 559 1184 500 
Q 1428 441 1663 441 
Q 2288 441 2617 861 
Q 2947 1281 2994 2138 
Q 2813 1869 2534 1725 
Q 2256 1581 1919 1581 
Q 1219 1581 811 2004 
Q 403 2428 403 3163 
Q 403 3881 828 4315 
Q 1253 4750 1959 4750 
Q 2769 4750 3195 4129 
Q 3622 3509 3622 2328 
Q 3622 1225 3098 567 
Q 2575 -91 1691 -91 
Q 1453 -91 1209 -44 
Q 966 3 703 97 
z
M 1959 2075 
Q 2384 2075 2632 2365 
Q 2881 2656 2881 3163 
Q 2881 3666 2632 3958 
Q 2384 4250 1959 4250 
Q 1534 4250 1286 3958 
Q 1038 3666 1038 3163 
Q 1038 2656 1286 2365 
Q 1534 2075 1959 2075 
z
" id="DejaVuSans-39" transform="scale(0.015625)"/>
     </defs>
     <use xlink:href="#DejaVuSans-62"/>
     <use x="63.476562" xlink:href="#DejaVuSans-65"/>
     <use x="125" xlink:href="#DejaVuSans-73"/>
     <use x="177.099609" xlink:href="#DejaVuSans-74"/>
     <use x="216.308594" xlink:href="#DejaVuSans-20"/>
     <use x="248.095703" xlink:href="#DejaVuSans-32"/>
     <use x="311.71875" xlink:href="#DejaVuSans-30"/>
     <use x="375.341797" xlink:href="#DejaVuSans-30"/>
     <use x="438.964844" xlink:href="#DejaVuSans-39"/>
    </g>
   </g>
   <g id="text_17">
    <!-- SLSQP+lq- -->
    <g transform="translate(375.22944 40.397235)scale(0.17 -0.17)">
     <defs>
      <path d="M 2944 4013 
L 2944 2272 
L 4684 2272 
L 4684 1741 
L 2944 1741 
L 2944 0 
L 2419 0 
L 2419 1741 
L 678 1741 
L 678 2272 
L 2419 2272 
L 2419 4013 
L 2944 4013 
z
" id="DejaVuSans-2b" transform="scale(0.015625)"/>
     </defs>
     <use xlink:href="#DejaVuSans-53"/>
     <use x="63.476562" xlink:href="#DejaVuSans-4c"/>
     <use x="119.189453" xlink:href="#DejaVuSans-53"/>
     <use x="182.666016" xlink:href="#DejaVuSans-51"/>
     <use x="261.376953" xlink:href="#DejaVuSans-50"/>
     <use x="321.679688" xlink:href="#DejaVuSans-2b"/>
     <use x="405.46875" xlink:href="#DejaVuSans-6c"/>
     <use x="433.251953" xlink:href="#DejaVuSans-71"/>
     <use x="496.728516" xlink:href="#DejaVuSans-2d"/>
    </g>
   </g>
   <g id="text_18">
    <!-- bbob f18, 40-D -->
    <g transform="translate(60.41088 38.111366)scale(0.102 -0.102)">
     <defs>
      <path d="M 1259 4147 
L 1259 519 
L 2022 519 
Q 2988 519 3436 956 
Q 3884 1394 3884 2338 
Q 3884 3275 3436 3711 
Q 2988 4147 2022 4147 
L 1259 4147 
z
M 628 4666 
L 1925 4666 
Q 3281 4666 3915 4102 
Q 4550 3538 4550 2338 
Q 4550 1131 3912 565 
Q 3275 0 1925 0 
L 628 0 
L 628 4666 
z
" id="DejaVuSans-44" transform="scale(0.015625)"/>
     </defs>
     <use xlink:href="#DejaVuSans-62"/>
     <use x="63.476562" xlink:href="#DejaVuSans-62"/>
     <use x="126.953125" xlink:href="#DejaVuSans-6f"/>
     <use x="188.134766" xlink:href="#DejaVuSans-62"/>
     <use x="251.611328" xlink:href="#DejaVuSans-20"/>
     <use x="283.398438" xlink:href="#DejaVuSans-66"/>
     <use x="318.603516" xlink:href="#DejaVuSans-31"/>
     <use x="382.226562" xlink:href="#DejaVuSans-38"/>
     <use x="445.849609" xlink:href="#DejaVuSans-2c"/>
     <use x="477.636719" xlink:href="#DejaVuSans-20"/>
     <use x="509.423828" xlink:href="#DejaVuSans-34"/>
     <use x="573.046875" xlink:href="#DejaVuSans-30"/>
     <use x="636.669922" xlink:href="#DejaVuSans-2d"/>
     <use x="672.753906" xlink:href="#DejaVuSans-44"/>
    </g>
    <!-- 51 targets: 100..1e-08 -->
    <g transform="translate(60.41088 49.533135)scale(0.102 -0.102)">
     <defs>
      <path d="M 691 4666 
L 3169 4666 
L 3169 4134 
L 1269 4134 
L 1269 2991 
Q 1406 3038 1543 3061 
Q 1681 3084 1819 3084 
Q 2600 3084 3056 2656 
Q 3513 2228 3513 1497 
Q 3513 744 3044 326 
Q 2575 -91 1722 -91 
Q 1428 -91 1123 -41 
Q 819 9 494 109 
L 494 744 
Q 775 591 1075 516 
Q 1375 441 1709 441 
Q 2250 441 2565 725 
Q 2881 1009 2881 1497 
Q 2881 1984 2565 2268 
Q 2250 2553 1709 2553 
Q 1456 2553 1204 2497 
Q 953 2441 691 2322 
L 691 4666 
z
" id="DejaVuSans-35" transform="scale(0.015625)"/>
      <path d="M 750 794 
L 1409 794 
L 1409 0 
L 750 0 
L 750 794 
z
M 750 3309 
L 1409 3309 
L 1409 2516 
L 750 2516 
L 750 3309 
z
" id="DejaVuSans-3a" transform="scale(0.015625)"/>
     </defs>
     <use xlink:href="#DejaVuSans-35"/>
     <use x="63.623047" xlink:href="#DejaVuSans-31"/>
     <use x="127.246094" xlink:href="#DejaVuSans-20"/>
     <use x="159.033203" xlink:href="#DejaVuSans-74"/>
     <use x="198.242188" xlink:href="#DejaVuSans-61"/>
     <use x="259.521484" xlink:href="#DejaVuSans-72"/>
     <use x="298.884766" xlink:href="#DejaVuSans-67"/>
     <use x="362.361328" xlink:href="#DejaVuSans-65"/>
     <use x="423.884766" xlink:href="#DejaVuSans-74"/>
     <use x="463.09375" xlink:href="#DejaVuSans-73"/>
     <use x="515.193359" xlink:href="#DejaVuSans-3a"/>
     <use x="548.884766" xlink:href="#DejaVuSans-20"/>
     <use x="580.671875" xlink:href="#DejaVuSans-31"/>
     <use x="644.294922" xlink:href="#DejaVuSans-30"/>
     <use x="707.917969" xlink:href="#DejaVuSans-30"/>
     <use x="771.541016" xlink:href="#DejaVuSans-2e"/>
     <use x="803.328125" xlink:href="#DejaVuSans-2e"/>
     <use x="835.115234" xlink:href="#DejaVuSans-31"/>
     <use x="898.738281" xlink:href="#DejaVuSans-65"/>
     <use x="960.261719" xlink:href="#DejaVuSans-2d"/>
     <use x="996.345703" xlink:href="#DejaVuSans-30"/>
     <use x="1059.96875" xlink:href="#DejaVuSans-38"/>
    </g>
    <!-- 15 instances -->
    <g transform="translate(60.41088 60.954904)scale(0.102 -0.102)">
     <use xlink:href="#DejaVuSans-31"/>
     <use x="63.623047" xlink:href="#DejaVuSans-35"/>
     <use x="127.246094" xlink:href="#DejaVuSans-20"/>
     <use x="159.033203" xlink:href="#DejaVuSans-69"/>
     <use x="186.816406" xlink:href="#DejaVuSans-6e"/>
     <use x="250.195312" xlink:href="#DejaVuSans-73"/>
     <use x="302.294922" xlink:href="#DejaVuSans-74"/>
     <use x="341.503906" xlink:href="#DejaVuSans-61"/>
     <use x="402.783203" xlink:href="#DejaVuSans-6e"/>
     <use x="466.162109" xlink:href="#DejaVuSans-63"/>
     <use x="521.142578" xlink:href="#DejaVuSans-65"/>
     <use x="582.666016" xlink:href="#DejaVuSans-73"/>
    </g>
   </g>
   <g id="text_19">
    <!-- v2.4.1.1 -->
    <g style="fill:#808080;" transform="translate(177.692437 294.151352)scale(0.1 -0.1)">
     <use xlink:href="#DejaVuSans-76"/>
     <use x="59.179688" xlink:href="#DejaVuSans-32"/>
     <use x="122.802734" xlink:href="#DejaVuSans-2e"/>
     <use x="154.589844" xlink:href="#DejaVuSans-34"/>
     <use x="218.212891" xlink:href="#DejaVuSans-2e"/>
     <use x="250" xlink:href="#DejaVuSans-31"/>
     <use x="313.623047" xlink:href="#DejaVuSans-2e"/>
     <use x="345.410156" xlink:href="#DejaVuSans-31"/>
    </g>
   </g>
   <g id="text_20">
    <!-- 18 Schaffer F7, condition 1000 -->
    <g transform="translate(44.111187 21.648)scale(0.2 -0.2)">
     <defs>
      <path d="M 3513 2113 
L 3513 0 
L 2938 0 
L 2938 2094 
Q 2938 2591 2744 2837 
Q 2550 3084 2163 3084 
Q 1697 3084 1428 2787 
Q 1159 2491 1159 1978 
L 1159 0 
L 581 0 
L 581 4863 
L 1159 4863 
L 1159 2956 
Q 1366 3272 1645 3428 
Q 1925 3584 2291 3584 
Q 2894 3584 3203 3211 
Q 3513 2838 3513 2113 
z
" id="DejaVuSans-68" transform="scale(0.015625)"/>
      <path d="M 525 4666 
L 3525 4666 
L 3525 4397 
L 1831 0 
L 1172 0 
L 2766 4134 
L 525 4134 
L 525 4666 
z
" id="DejaVuSans-37" transform="scale(0.015625)"/>
     </defs>
     <use xlink:href="#DejaVuSans-31"/>
     <use x="63.623047" xlink:href="#DejaVuSans-38"/>
     <use x="127.246094" xlink:href="#DejaVuSans-20"/>
     <use x="159.033203" xlink:href="#DejaVuSans-53"/>
     <use x="222.509766" xlink:href="#DejaVuSans-63"/>
     <use x="277.490234" xlink:href="#DejaVuSans-68"/>
     <use x="340.869141" xlink:href="#DejaVuSans-61"/>
     <use x="402.148438" xlink:href="#DejaVuSans-66"/>
     <use x="437.353516" xlink:href="#DejaVuSans-66"/>
     <use x="472.558594" xlink:href="#DejaVuSans-65"/>
     <use x="534.082031" xlink:href="#DejaVuSans-72"/>
     <use x="575.195312" xlink:href="#DejaVuSans-20"/>
     <use x="606.982422" xlink:href="#DejaVuSans-46"/>
     <use x="664.501953" xlink:href="#DejaVuSans-37"/>
     <use x="728.125" xlink:href="#DejaVuSans-2c"/>
     <use x="759.912109" xlink:href="#DejaVuSans-20"/>
     <use x="791.699219" xlink:href="#DejaVuSans-63"/>
     <use x="846.679688" xlink:href="#DejaVuSans-6f"/>
     <use x="907.861328" xlink:href="#DejaVuSans-6e"/>
     <use x="971.240234" xlink:href="#DejaVuSans-64"/>
     <use x="1034.716797" xlink:href="#DejaVuSans-69"/>
     <use x="1062.5" xlink:href="#DejaVuSans-74"/>
     <use x="1101.708984" xlink:href="#DejaVuSans-69"/>
     <use x="1129.492188" xlink:href="#DejaVuSans-6f"/>
     <use x="1190.673828" xlink:href="#DejaVuSans-6e"/>
     <use x="1254.052734" xlink:href="#DejaVuSans-20"/>
     <use x="1285.839844" xlink:href="#DejaVuSans-31"/>
     <use x="1349.462891" xlink:href="#DejaVuSans-30"/>
     <use x="1413.085938" xlink:href="#DejaVuSans-30"/>
     <use x="1476.708984" xlink:href="#DejaVuSans-30"/>
    </g>
   </g>
  </g>
 </g>
 <defs>
  <clipPath id="p01f7383c01">
   <rect height="271.296" width="281.088" x="57.6" y="27.648"/>
  </clipPath>
 </defs>
</svg>
