<?xml version="1.0" encoding="utf-8" standalone="no"?>
<!DOCTYPE svg PUBLIC "-//W3C//DTD SVG 1.1//EN"
  "http://www.w3.org/Graphics/SVG/1.1/DTD/svg11.dtd">
<svg height="345.6pt" version="1.1" viewBox="0 0 460.8 345.6" width="460.8pt" xmlns="http://www.w3.org/2000/svg" xmlns:xlink="http://www.w3.org/1999/xlink">
 <metadata>
  <rdf:RDF xmlns:cc="http://creativecommons.org/ns#" xmlns:dc="http://purl.org/dc/elements/1.1/" xmlns:rdf="http://www.w3.org/1999/02/22-rdf-syntax-ns#">
   <cc:Work>
    <dc:type rdf:resource="http://purl.org/dc/dcmitype/StillImage"/>
    <dc:date>2022-03-29T11:28:16.515727</dc:date>
    <dc:format>image/svg+xml</dc:format>
    <dc:creator>
     <cc:Agent>
      <dc:title>Matplotlib v3.4.3, https://matplotlib.org/</dc:title>
     </cc:Agent>
    </dc:creator>
   </cc:Work>
  </rdf:RDF>
 </metadata>
 <defs>
  <style type="text/css">*{stroke-linecap:butt;stroke-linejoin:round;}</style>
 </defs>
 <g id="figure_1">
  <g id="patch_1">
   <path d="M 0 345.6 
L 460.8 345.6 
L 460.8 0 
L 0 0 
z
" style="fill:#ffffff;"/>
  </g>
  <g id="axes_1">
   <g id="patch_2">
    <path d="M 57.6 298.944 
L 338.688 298.944 
L 338.688 27.648 
L 57.6 27.648 
z
" style="fill:#ffffff;"/>
   </g>
   <g id="line2d_1">
    <path d="M 76.759008 298.944 
L 76.759008 288.410278 
L 77.330839 288.410278 
L 77.330839 272.609696 
L 77.884514 272.609696 
L 77.884514 262.075974 
L 81.775977 262.075974 
L 81.775977 256.809114 
L 101.223245 256.809114 
L 101.223245 251.542253 
L 113.594805 251.542253 
L 113.594805 246.275392 
L 185.625679 246.275392 
L 185.625679 241.008531 
L 202.856936 241.008531 
L 202.856936 235.74167 
L 211.200413 235.74167 
L 211.200413 230.47481 
L 215.445672 230.47481 
L 215.445672 225.207949 
L 227.274191 225.207949 
L 227.274191 219.941088 
L 247.951549 219.941088 
L 247.951549 214.674227 
L 248.064189 214.674227 
L 248.064189 209.407366 
L 248.264217 209.407366 
L 248.264217 204.140506 
L 248.358886 204.140506 
L 248.358886 198.873645 
L 248.464348 198.873645 
L 248.464348 193.606784 
L 248.494156 193.606784 
L 248.494156 188.339923 
L 248.534037 188.339923 
L 248.534037 183.073062 
L 248.551446 183.073062 
L 248.551446 177.806202 
L 248.592143 177.806202 
L 248.592143 172.539341 
L 248.628934 172.539341 
L 248.628934 167.27248 
L 248.651093 167.27248 
L 248.651093 162.005619 
L 248.677269 162.005619 
L 248.677269 156.738758 
L 248.696238 156.738758 
L 248.696238 151.471897 
L 248.7191 151.471897 
L 248.7191 146.205037 
L 248.752596 146.205037 
L 248.752596 140.938176 
L 248.770424 140.938176 
L 248.770424 135.671315 
L 248.801164 135.671315 
L 248.801164 130.404454 
L 248.832182 130.404454 
L 248.832182 125.137593 
L 248.853482 125.137593 
L 248.853482 119.870733 
L 248.873734 119.870733 
L 248.873734 114.603872 
L 248.906454 114.603872 
L 248.906454 109.337011 
L 248.929702 109.337011 
L 248.929702 104.07015 
L 248.948099 104.07015 
L 248.948099 98.803289 
L 248.97497 98.803289 
L 248.97497 93.536429 
L 249.002337 93.536429 
L 249.002337 88.269568 
L 249.036009 88.269568 
L 249.036009 83.002707 
L 249.056377 83.002707 
L 249.056377 77.735846 
L 249.078594 77.735846 
L 249.078594 72.468985 
L 249.109864 72.468985 
L 249.109864 67.202125 
L 249.123655 67.202125 
L 249.123655 61.935264 
L 249.153572 61.935264 
L 249.153572 56.668403 
L 249.175312 56.668403 
L 249.175312 51.401542 
L 249.202337 51.401542 
L 249.202337 46.134681 
L 249.223779 46.134681 
L 249.223779 40.867821 
L 249.24549 40.867821 
L 249.24549 35.60096 
L 249.26685 35.60096 
L 249.26685 30.334099 
L 338.688 30.334099 
" style="fill:none;stroke:#f5deb3;stroke-linecap:square;stroke-width:4;"/>
   </g>
   <g id="line2d_2">
    <defs>
     <path d="M 0 7.778175 
L 7.778175 0 
L 0 -7.778175 
L -7.778175 0 
z
" id="m2ee5feaf79" style="stroke:#f5deb3;stroke-linejoin:miter;stroke-width:1.5;"/>
    </defs>
    <g>
     <use style="fill:#f5deb3;stroke:#f5deb3;stroke-linejoin:miter;stroke-width:1.5;" x="211.200413" xlink:href="#m2ee5feaf79" y="230.47481"/>
     <use style="fill:#f5deb3;stroke:#f5deb3;stroke-linejoin:miter;stroke-width:1.5;" x="248.906454" xlink:href="#m2ee5feaf79" y="114.603872"/>
     <use style="fill:#f5deb3;stroke:#f5deb3;stroke-linejoin:miter;stroke-width:1.5;" x="249.26685" xlink:href="#m2ee5feaf79" y="30.334099"/>
     <use style="fill:#f5deb3;stroke:#f5deb3;stroke-linejoin:miter;stroke-width:1.5;" x="249.26685" xlink:href="#m2ee5feaf79" y="30.334099"/>
     <use style="fill:#f5deb3;stroke:#f5deb3;stroke-linejoin:miter;stroke-width:1.5;" x="338.688" xlink:href="#m2ee5feaf79" y="30.334099"/>
    </g>
   </g>
   <g id="line2d_3">
    <path style="fill:none;stroke:#f5deb3;stroke-linecap:square;stroke-width:4;"/>
    <g/>
   </g>
   <g id="line2d_4">
    <path d="M 338.688 30.334099 
L 369.60768 35.706297 
" style="fill:none;stroke:#f5deb3;stroke-linecap:square;stroke-width:4;"/>
    <g>
     <use style="fill:#f5deb3;stroke:#f5deb3;stroke-linejoin:miter;stroke-width:1.5;" x="338.688" xlink:href="#m2ee5feaf79" y="30.334099"/>
     <use style="fill:#f5deb3;stroke:#f5deb3;stroke-linejoin:miter;stroke-width:1.5;" x="369.60768" xlink:href="#m2ee5feaf79" y="35.706297"/>
    </g>
   </g>
   <g id="matplotlib.axis_1">
    <g id="xtick_1">
     <g id="line2d_5">
      <path clip-path="url(#p3584e9fa8a)" d="M 57.6 298.944 
L 57.6 27.648 
" style="fill:none;stroke:#b0b0b0;stroke-linecap:square;stroke-width:0.8;"/>
     </g>
     <g id="line2d_6">
      <defs>
       <path d="M 0 0 
L 0 3.5 
" id="m036cc8138f" style="stroke:#000000;stroke-width:0.8;"/>
      </defs>
      <g>
       <use style="stroke:#000000;stroke-width:0.8;" x="57.6" xlink:href="#m036cc8138f" y="298.944"/>
      </g>
     </g>
     <g id="text_1">
      <!-- 0 -->
      <g transform="translate(51.2375 321.140875)scale(0.2 -0.2)">
       <defs>
        <path d="M 2034 4250 
Q 1547 4250 1301 3770 
Q 1056 3291 1056 2328 
Q 1056 1369 1301 889 
Q 1547 409 2034 409 
Q 2525 409 2770 889 
Q 3016 1369 3016 2328 
Q 3016 3291 2770 3770 
Q 2525 4250 2034 4250 
z
M 2034 4750 
Q 2819 4750 3233 4129 
Q 3647 3509 3647 2328 
Q 3647 1150 3233 529 
Q 2819 -91 2034 -91 
Q 1250 -91 836 529 
Q 422 1150 422 2328 
Q 422 3509 836 4129 
Q 1250 4750 2034 4750 
z
" id="DejaVuSans-30" transform="scale(0.015625)"/>
       </defs>
       <use xlink:href="#DejaVuSans-30"/>
      </g>
     </g>
    </g>
    <g id="xtick_2">
     <g id="line2d_7">
      <path clip-path="url(#p3584e9fa8a)" d="M 137.910857 298.944 
L 137.910857 27.648 
" style="fill:none;stroke:#b0b0b0;stroke-linecap:square;stroke-width:0.8;"/>
     </g>
     <g id="line2d_8">
      <g>
       <use style="stroke:#000000;stroke-width:0.8;" x="137.910857" xlink:href="#m036cc8138f" y="298.944"/>
      </g>
     </g>
     <g id="text_2">
      <!-- 2 -->
      <g transform="translate(131.548357 321.140875)scale(0.2 -0.2)">
       <defs>
        <path d="M 1228 531 
L 3431 531 
L 3431 0 
L 469 0 
L 469 531 
Q 828 903 1448 1529 
Q 2069 2156 2228 2338 
Q 2531 2678 2651 2914 
Q 2772 3150 2772 3378 
Q 2772 3750 2511 3984 
Q 2250 4219 1831 4219 
Q 1534 4219 1204 4116 
Q 875 4013 500 3803 
L 500 4441 
Q 881 4594 1212 4672 
Q 1544 4750 1819 4750 
Q 2544 4750 2975 4387 
Q 3406 4025 3406 3419 
Q 3406 3131 3298 2873 
Q 3191 2616 2906 2266 
Q 2828 2175 2409 1742 
Q 1991 1309 1228 531 
z
" id="DejaVuSans-32" transform="scale(0.015625)"/>
       </defs>
       <use xlink:href="#DejaVuSans-32"/>
      </g>
     </g>
    </g>
    <g id="xtick_3">
     <g id="line2d_9">
      <path clip-path="url(#p3584e9fa8a)" d="M 218.221714 298.944 
L 218.221714 27.648 
" style="fill:none;stroke:#b0b0b0;stroke-linecap:square;stroke-width:0.8;"/>
     </g>
     <g id="line2d_10">
      <g>
       <use style="stroke:#000000;stroke-width:0.8;" x="218.221714" xlink:href="#m036cc8138f" y="298.944"/>
      </g>
     </g>
     <g id="text_3">
      <!-- 4 -->
      <g transform="translate(211.859214 321.140875)scale(0.2 -0.2)">
       <defs>
        <path d="M 2419 4116 
L 825 1625 
L 2419 1625 
L 2419 4116 
z
M 2253 4666 
L 3047 4666 
L 3047 1625 
L 3713 1625 
L 3713 1100 
L 3047 1100 
L 3047 0 
L 2419 0 
L 2419 1100 
L 313 1100 
L 313 1709 
L 2253 4666 
z
" id="DejaVuSans-34" transform="scale(0.015625)"/>
       </defs>
       <use xlink:href="#DejaVuSans-34"/>
      </g>
     </g>
    </g>
    <g id="xtick_4">
     <g id="line2d_11">
      <path clip-path="url(#p3584e9fa8a)" d="M 298.532571 298.944 
L 298.532571 27.648 
" style="fill:none;stroke:#b0b0b0;stroke-linecap:square;stroke-width:0.8;"/>
     </g>
     <g id="line2d_12">
      <g>
       <use style="stroke:#000000;stroke-width:0.8;" x="298.532571" xlink:href="#m036cc8138f" y="298.944"/>
      </g>
     </g>
     <g id="text_4">
      <!-- 6 -->
      <g transform="translate(292.170071 321.140875)scale(0.2 -0.2)">
       <defs>
        <path d="M 2113 2584 
Q 1688 2584 1439 2293 
Q 1191 2003 1191 1497 
Q 1191 994 1439 701 
Q 1688 409 2113 409 
Q 2538 409 2786 701 
Q 3034 994 3034 1497 
Q 3034 2003 2786 2293 
Q 2538 2584 2113 2584 
z
M 3366 4563 
L 3366 3988 
Q 3128 4100 2886 4159 
Q 2644 4219 2406 4219 
Q 1781 4219 1451 3797 
Q 1122 3375 1075 2522 
Q 1259 2794 1537 2939 
Q 1816 3084 2150 3084 
Q 2853 3084 3261 2657 
Q 3669 2231 3669 1497 
Q 3669 778 3244 343 
Q 2819 -91 2113 -91 
Q 1303 -91 875 529 
Q 447 1150 447 2328 
Q 447 3434 972 4092 
Q 1497 4750 2381 4750 
Q 2619 4750 2861 4703 
Q 3103 4656 3366 4563 
z
" id="DejaVuSans-36" transform="scale(0.015625)"/>
       </defs>
       <use xlink:href="#DejaVuSans-36"/>
      </g>
     </g>
    </g>
    <g id="xtick_5">
     <g id="line2d_13">
      <path clip-path="url(#p3584e9fa8a)" d="M 97.755429 298.944 
L 97.755429 27.648 
" style="fill:none;stroke:#b0b0b0;stroke-linecap:square;stroke-width:0.8;"/>
     </g>
     <g id="line2d_14">
      <defs>
       <path d="M 0 0 
L 0 2 
" id="ma575051032" style="stroke:#000000;stroke-width:0.6;"/>
      </defs>
      <g>
       <use style="stroke:#000000;stroke-width:0.6;" x="97.755429" xlink:href="#ma575051032" y="298.944"/>
      </g>
     </g>
    </g>
    <g id="xtick_6">
     <g id="line2d_15">
      <path clip-path="url(#p3584e9fa8a)" d="M 178.066286 298.944 
L 178.066286 27.648 
" style="fill:none;stroke:#b0b0b0;stroke-linecap:square;stroke-width:0.8;"/>
     </g>
     <g id="line2d_16">
      <g>
       <use style="stroke:#000000;stroke-width:0.6;" x="178.066286" xlink:href="#ma575051032" y="298.944"/>
      </g>
     </g>
    </g>
    <g id="xtick_7">
     <g id="line2d_17">
      <path clip-path="url(#p3584e9fa8a)" d="M 258.377143 298.944 
L 258.377143 27.648 
" style="fill:none;stroke:#b0b0b0;stroke-linecap:square;stroke-width:0.8;"/>
     </g>
     <g id="line2d_18">
      <g>
       <use style="stroke:#000000;stroke-width:0.6;" x="258.377143" xlink:href="#ma575051032" y="298.944"/>
      </g>
     </g>
    </g>
    <g id="xtick_8">
     <g id="line2d_19">
      <path clip-path="url(#p3584e9fa8a)" d="M 338.688 298.944 
L 338.688 27.648 
" style="fill:none;stroke:#b0b0b0;stroke-linecap:square;stroke-width:0.8;"/>
     </g>
     <g id="line2d_20">
      <g>
       <use style="stroke:#000000;stroke-width:0.6;" x="338.688" xlink:href="#ma575051032" y="298.944"/>
      </g>
     </g>
    </g>
    <g id="text_5">
     <!-- log10(# f-evals / dimension) -->
     <g transform="translate(77.764078 342.217594)scale(0.17 -0.17)">
      <defs>
       <path d="M 603 4863 
L 1178 4863 
L 1178 0 
L 603 0 
L 603 4863 
z
" id="DejaVuSans-6c" transform="scale(0.015625)"/>
       <path d="M 1959 3097 
Q 1497 3097 1228 2736 
Q 959 2375 959 1747 
Q 959 1119 1226 758 
Q 1494 397 1959 397 
Q 2419 397 2687 759 
Q 2956 1122 2956 1747 
Q 2956 2369 2687 2733 
Q 2419 3097 1959 3097 
z
M 1959 3584 
Q 2709 3584 3137 3096 
Q 3566 2609 3566 1747 
Q 3566 888 3137 398 
Q 2709 -91 1959 -91 
Q 1206 -91 779 398 
Q 353 888 353 1747 
Q 353 2609 779 3096 
Q 1206 3584 1959 3584 
z
" id="DejaVuSans-6f" transform="scale(0.015625)"/>
       <path d="M 2906 1791 
Q 2906 2416 2648 2759 
Q 2391 3103 1925 3103 
Q 1463 3103 1205 2759 
Q 947 2416 947 1791 
Q 947 1169 1205 825 
Q 1463 481 1925 481 
Q 2391 481 2648 825 
Q 2906 1169 2906 1791 
z
M 3481 434 
Q 3481 -459 3084 -895 
Q 2688 -1331 1869 -1331 
Q 1566 -1331 1297 -1286 
Q 1028 -1241 775 -1147 
L 775 -588 
Q 1028 -725 1275 -790 
Q 1522 -856 1778 -856 
Q 2344 -856 2625 -561 
Q 2906 -266 2906 331 
L 2906 616 
Q 2728 306 2450 153 
Q 2172 0 1784 0 
Q 1141 0 747 490 
Q 353 981 353 1791 
Q 353 2603 747 3093 
Q 1141 3584 1784 3584 
Q 2172 3584 2450 3431 
Q 2728 3278 2906 2969 
L 2906 3500 
L 3481 3500 
L 3481 434 
z
" id="DejaVuSans-67" transform="scale(0.015625)"/>
       <path d="M 794 531 
L 1825 531 
L 1825 4091 
L 703 3866 
L 703 4441 
L 1819 4666 
L 2450 4666 
L 2450 531 
L 3481 531 
L 3481 0 
L 794 0 
L 794 531 
z
" id="DejaVuSans-31" transform="scale(0.015625)"/>
       <path d="M 1984 4856 
Q 1566 4138 1362 3434 
Q 1159 2731 1159 2009 
Q 1159 1288 1364 580 
Q 1569 -128 1984 -844 
L 1484 -844 
Q 1016 -109 783 600 
Q 550 1309 550 2009 
Q 550 2706 781 3412 
Q 1013 4119 1484 4856 
L 1984 4856 
z
" id="DejaVuSans-28" transform="scale(0.015625)"/>
       <path d="M 3272 2816 
L 2363 2816 
L 2100 1772 
L 3016 1772 
L 3272 2816 
z
M 2803 4594 
L 2478 3297 
L 3391 3297 
L 3719 4594 
L 4219 4594 
L 3897 3297 
L 4872 3297 
L 4872 2816 
L 3775 2816 
L 3519 1772 
L 4513 1772 
L 4513 1294 
L 3397 1294 
L 3072 0 
L 2572 0 
L 2894 1294 
L 1978 1294 
L 1656 0 
L 1153 0 
L 1478 1294 
L 494 1294 
L 494 1772 
L 1594 1772 
L 1856 2816 
L 850 2816 
L 850 3297 
L 1978 3297 
L 2297 4594 
L 2803 4594 
z
" id="DejaVuSans-23" transform="scale(0.015625)"/>
       <path id="DejaVuSans-20" transform="scale(0.015625)"/>
       <path d="M 2375 4863 
L 2375 4384 
L 1825 4384 
Q 1516 4384 1395 4259 
Q 1275 4134 1275 3809 
L 1275 3500 
L 2222 3500 
L 2222 3053 
L 1275 3053 
L 1275 0 
L 697 0 
L 697 3053 
L 147 3053 
L 147 3500 
L 697 3500 
L 697 3744 
Q 697 4328 969 4595 
Q 1241 4863 1831 4863 
L 2375 4863 
z
" id="DejaVuSans-66" transform="scale(0.015625)"/>
       <path d="M 313 2009 
L 1997 2009 
L 1997 1497 
L 313 1497 
L 313 2009 
z
" id="DejaVuSans-2d" transform="scale(0.015625)"/>
       <path d="M 3597 1894 
L 3597 1613 
L 953 1613 
Q 991 1019 1311 708 
Q 1631 397 2203 397 
Q 2534 397 2845 478 
Q 3156 559 3463 722 
L 3463 178 
Q 3153 47 2828 -22 
Q 2503 -91 2169 -91 
Q 1331 -91 842 396 
Q 353 884 353 1716 
Q 353 2575 817 3079 
Q 1281 3584 2069 3584 
Q 2775 3584 3186 3129 
Q 3597 2675 3597 1894 
z
M 3022 2063 
Q 3016 2534 2758 2815 
Q 2500 3097 2075 3097 
Q 1594 3097 1305 2825 
Q 1016 2553 972 2059 
L 3022 2063 
z
" id="DejaVuSans-65" transform="scale(0.015625)"/>
       <path d="M 191 3500 
L 800 3500 
L 1894 563 
L 2988 3500 
L 3597 3500 
L 2284 0 
L 1503 0 
L 191 3500 
z
" id="DejaVuSans-76" transform="scale(0.015625)"/>
       <path d="M 2194 1759 
Q 1497 1759 1228 1600 
Q 959 1441 959 1056 
Q 959 750 1161 570 
Q 1363 391 1709 391 
Q 2188 391 2477 730 
Q 2766 1069 2766 1631 
L 2766 1759 
L 2194 1759 
z
M 3341 1997 
L 3341 0 
L 2766 0 
L 2766 531 
Q 2569 213 2275 61 
Q 1981 -91 1556 -91 
Q 1019 -91 701 211 
Q 384 513 384 1019 
Q 384 1609 779 1909 
Q 1175 2209 1959 2209 
L 2766 2209 
L 2766 2266 
Q 2766 2663 2505 2880 
Q 2244 3097 1772 3097 
Q 1472 3097 1187 3025 
Q 903 2953 641 2809 
L 641 3341 
Q 956 3463 1253 3523 
Q 1550 3584 1831 3584 
Q 2591 3584 2966 3190 
Q 3341 2797 3341 1997 
z
" id="DejaVuSans-61" transform="scale(0.015625)"/>
       <path d="M 2834 3397 
L 2834 2853 
Q 2591 2978 2328 3040 
Q 2066 3103 1784 3103 
Q 1356 3103 1142 2972 
Q 928 2841 928 2578 
Q 928 2378 1081 2264 
Q 1234 2150 1697 2047 
L 1894 2003 
Q 2506 1872 2764 1633 
Q 3022 1394 3022 966 
Q 3022 478 2636 193 
Q 2250 -91 1575 -91 
Q 1294 -91 989 -36 
Q 684 19 347 128 
L 347 722 
Q 666 556 975 473 
Q 1284 391 1588 391 
Q 1994 391 2212 530 
Q 2431 669 2431 922 
Q 2431 1156 2273 1281 
Q 2116 1406 1581 1522 
L 1381 1569 
Q 847 1681 609 1914 
Q 372 2147 372 2553 
Q 372 3047 722 3315 
Q 1072 3584 1716 3584 
Q 2034 3584 2315 3537 
Q 2597 3491 2834 3397 
z
" id="DejaVuSans-73" transform="scale(0.015625)"/>
       <path d="M 1625 4666 
L 2156 4666 
L 531 -594 
L 0 -594 
L 1625 4666 
z
" id="DejaVuSans-2f" transform="scale(0.015625)"/>
       <path d="M 2906 2969 
L 2906 4863 
L 3481 4863 
L 3481 0 
L 2906 0 
L 2906 525 
Q 2725 213 2448 61 
Q 2172 -91 1784 -91 
Q 1150 -91 751 415 
Q 353 922 353 1747 
Q 353 2572 751 3078 
Q 1150 3584 1784 3584 
Q 2172 3584 2448 3432 
Q 2725 3281 2906 2969 
z
M 947 1747 
Q 947 1113 1208 752 
Q 1469 391 1925 391 
Q 2381 391 2643 752 
Q 2906 1113 2906 1747 
Q 2906 2381 2643 2742 
Q 2381 3103 1925 3103 
Q 1469 3103 1208 2742 
Q 947 2381 947 1747 
z
" id="DejaVuSans-64" transform="scale(0.015625)"/>
       <path d="M 603 3500 
L 1178 3500 
L 1178 0 
L 603 0 
L 603 3500 
z
M 603 4863 
L 1178 4863 
L 1178 4134 
L 603 4134 
L 603 4863 
z
" id="DejaVuSans-69" transform="scale(0.015625)"/>
       <path d="M 3328 2828 
Q 3544 3216 3844 3400 
Q 4144 3584 4550 3584 
Q 5097 3584 5394 3201 
Q 5691 2819 5691 2113 
L 5691 0 
L 5113 0 
L 5113 2094 
Q 5113 2597 4934 2840 
Q 4756 3084 4391 3084 
Q 3944 3084 3684 2787 
Q 3425 2491 3425 1978 
L 3425 0 
L 2847 0 
L 2847 2094 
Q 2847 2600 2669 2842 
Q 2491 3084 2119 3084 
Q 1678 3084 1418 2786 
Q 1159 2488 1159 1978 
L 1159 0 
L 581 0 
L 581 3500 
L 1159 3500 
L 1159 2956 
Q 1356 3278 1631 3431 
Q 1906 3584 2284 3584 
Q 2666 3584 2933 3390 
Q 3200 3197 3328 2828 
z
" id="DejaVuSans-6d" transform="scale(0.015625)"/>
       <path d="M 3513 2113 
L 3513 0 
L 2938 0 
L 2938 2094 
Q 2938 2591 2744 2837 
Q 2550 3084 2163 3084 
Q 1697 3084 1428 2787 
Q 1159 2491 1159 1978 
L 1159 0 
L 581 0 
L 581 3500 
L 1159 3500 
L 1159 2956 
Q 1366 3272 1645 3428 
Q 1925 3584 2291 3584 
Q 2894 3584 3203 3211 
Q 3513 2838 3513 2113 
z
" id="DejaVuSans-6e" transform="scale(0.015625)"/>
       <path d="M 513 4856 
L 1013 4856 
Q 1481 4119 1714 3412 
Q 1947 2706 1947 2009 
Q 1947 1309 1714 600 
Q 1481 -109 1013 -844 
L 513 -844 
Q 928 -128 1133 580 
Q 1338 1288 1338 2009 
Q 1338 2731 1133 3434 
Q 928 4138 513 4856 
z
" id="DejaVuSans-29" transform="scale(0.015625)"/>
      </defs>
      <use xlink:href="#DejaVuSans-6c"/>
      <use x="27.783203" xlink:href="#DejaVuSans-6f"/>
      <use x="88.964844" xlink:href="#DejaVuSans-67"/>
      <use x="152.441406" xlink:href="#DejaVuSans-31"/>
      <use x="216.064453" xlink:href="#DejaVuSans-30"/>
      <use x="279.6875" xlink:href="#DejaVuSans-28"/>
      <use x="318.701172" xlink:href="#DejaVuSans-23"/>
      <use x="402.490234" xlink:href="#DejaVuSans-20"/>
      <use x="434.277344" xlink:href="#DejaVuSans-66"/>
      <use x="463.982422" xlink:href="#DejaVuSans-2d"/>
      <use x="500.066406" xlink:href="#DejaVuSans-65"/>
      <use x="561.589844" xlink:href="#DejaVuSans-76"/>
      <use x="620.769531" xlink:href="#DejaVuSans-61"/>
      <use x="682.048828" xlink:href="#DejaVuSans-6c"/>
      <use x="709.832031" xlink:href="#DejaVuSans-73"/>
      <use x="761.931641" xlink:href="#DejaVuSans-20"/>
      <use x="793.71875" xlink:href="#DejaVuSans-2f"/>
      <use x="827.410156" xlink:href="#DejaVuSans-20"/>
      <use x="859.197266" xlink:href="#DejaVuSans-64"/>
      <use x="922.673828" xlink:href="#DejaVuSans-69"/>
      <use x="950.457031" xlink:href="#DejaVuSans-6d"/>
      <use x="1047.869141" xlink:href="#DejaVuSans-65"/>
      <use x="1109.392578" xlink:href="#DejaVuSans-6e"/>
      <use x="1172.771484" xlink:href="#DejaVuSans-73"/>
      <use x="1224.871094" xlink:href="#DejaVuSans-69"/>
      <use x="1252.654297" xlink:href="#DejaVuSans-6f"/>
      <use x="1313.835938" xlink:href="#DejaVuSans-6e"/>
      <use x="1377.214844" xlink:href="#DejaVuSans-29"/>
     </g>
    </g>
   </g>
   <g id="matplotlib.axis_2">
    <g id="ytick_1">
     <g id="line2d_21">
      <path clip-path="url(#p3584e9fa8a)" d="M 57.6 298.944 
L 338.688 298.944 
" style="fill:none;stroke:#b0b0b0;stroke-linecap:square;stroke-width:0.8;"/>
     </g>
     <g id="line2d_22">
      <defs>
       <path d="M 0 0 
L -3.5 0 
" id="mb0c2b7b598" style="stroke:#000000;stroke-width:0.8;"/>
      </defs>
      <g>
       <use style="stroke:#000000;stroke-width:0.8;" x="57.6" xlink:href="#mb0c2b7b598" y="298.944"/>
      </g>
     </g>
     <g id="text_6">
      <!-- 0.0 -->
      <g transform="translate(25.155 305.02275)scale(0.16 -0.16)">
       <defs>
        <path d="M 684 794 
L 1344 794 
L 1344 0 
L 684 0 
L 684 794 
z
" id="DejaVuSans-2e" transform="scale(0.015625)"/>
       </defs>
       <use xlink:href="#DejaVuSans-30"/>
       <use x="63.623047" xlink:href="#DejaVuSans-2e"/>
       <use x="95.410156" xlink:href="#DejaVuSans-30"/>
      </g>
     </g>
    </g>
    <g id="ytick_2">
     <g id="line2d_23">
      <path clip-path="url(#p3584e9fa8a)" d="M 57.6 245.22202 
L 338.688 245.22202 
" style="fill:none;stroke:#b0b0b0;stroke-linecap:square;stroke-width:0.8;"/>
     </g>
     <g id="line2d_24">
      <g>
       <use style="stroke:#000000;stroke-width:0.8;" x="57.6" xlink:href="#mb0c2b7b598" y="245.22202"/>
      </g>
     </g>
     <g id="text_7">
      <!-- 0.2 -->
      <g transform="translate(25.155 251.30077)scale(0.16 -0.16)">
       <use xlink:href="#DejaVuSans-30"/>
       <use x="63.623047" xlink:href="#DejaVuSans-2e"/>
       <use x="95.410156" xlink:href="#DejaVuSans-32"/>
      </g>
     </g>
    </g>
    <g id="ytick_3">
     <g id="line2d_25">
      <path clip-path="url(#p3584e9fa8a)" d="M 57.6 191.50004 
L 338.688 191.50004 
" style="fill:none;stroke:#b0b0b0;stroke-linecap:square;stroke-width:0.8;"/>
     </g>
     <g id="line2d_26">
      <g>
       <use style="stroke:#000000;stroke-width:0.8;" x="57.6" xlink:href="#mb0c2b7b598" y="191.50004"/>
      </g>
     </g>
     <g id="text_8">
      <!-- 0.4 -->
      <g transform="translate(25.155 197.57879)scale(0.16 -0.16)">
       <use xlink:href="#DejaVuSans-30"/>
       <use x="63.623047" xlink:href="#DejaVuSans-2e"/>
       <use x="95.410156" xlink:href="#DejaVuSans-34"/>
      </g>
     </g>
    </g>
    <g id="ytick_4">
     <g id="line2d_27">
      <path clip-path="url(#p3584e9fa8a)" d="M 57.6 137.778059 
L 338.688 137.778059 
" style="fill:none;stroke:#b0b0b0;stroke-linecap:square;stroke-width:0.8;"/>
     </g>
     <g id="line2d_28">
      <g>
       <use style="stroke:#000000;stroke-width:0.8;" x="57.6" xlink:href="#mb0c2b7b598" y="137.778059"/>
      </g>
     </g>
     <g id="text_9">
      <!-- 0.6 -->
      <g transform="translate(25.155 143.856809)scale(0.16 -0.16)">
       <use xlink:href="#DejaVuSans-30"/>
       <use x="63.623047" xlink:href="#DejaVuSans-2e"/>
       <use x="95.410156" xlink:href="#DejaVuSans-36"/>
      </g>
     </g>
    </g>
    <g id="ytick_5">
     <g id="line2d_29">
      <path clip-path="url(#p3584e9fa8a)" d="M 57.6 84.056079 
L 338.688 84.056079 
" style="fill:none;stroke:#b0b0b0;stroke-linecap:square;stroke-width:0.8;"/>
     </g>
     <g id="line2d_30">
      <g>
       <use style="stroke:#000000;stroke-width:0.8;" x="57.6" xlink:href="#mb0c2b7b598" y="84.056079"/>
      </g>
     </g>
     <g id="text_10">
      <!-- 0.8 -->
      <g transform="translate(25.155 90.134829)scale(0.16 -0.16)">
       <defs>
        <path d="M 2034 2216 
Q 1584 2216 1326 1975 
Q 1069 1734 1069 1313 
Q 1069 891 1326 650 
Q 1584 409 2034 409 
Q 2484 409 2743 651 
Q 3003 894 3003 1313 
Q 3003 1734 2745 1975 
Q 2488 2216 2034 2216 
z
M 1403 2484 
Q 997 2584 770 2862 
Q 544 3141 544 3541 
Q 544 4100 942 4425 
Q 1341 4750 2034 4750 
Q 2731 4750 3128 4425 
Q 3525 4100 3525 3541 
Q 3525 3141 3298 2862 
Q 3072 2584 2669 2484 
Q 3125 2378 3379 2068 
Q 3634 1759 3634 1313 
Q 3634 634 3220 271 
Q 2806 -91 2034 -91 
Q 1263 -91 848 271 
Q 434 634 434 1313 
Q 434 1759 690 2068 
Q 947 2378 1403 2484 
z
M 1172 3481 
Q 1172 3119 1398 2916 
Q 1625 2713 2034 2713 
Q 2441 2713 2670 2916 
Q 2900 3119 2900 3481 
Q 2900 3844 2670 4047 
Q 2441 4250 2034 4250 
Q 1625 4250 1398 4047 
Q 1172 3844 1172 3481 
z
" id="DejaVuSans-38" transform="scale(0.015625)"/>
       </defs>
       <use xlink:href="#DejaVuSans-30"/>
       <use x="63.623047" xlink:href="#DejaVuSans-2e"/>
       <use x="95.410156" xlink:href="#DejaVuSans-38"/>
      </g>
     </g>
    </g>
    <g id="ytick_6">
     <g id="line2d_31">
      <path clip-path="url(#p3584e9fa8a)" d="M 57.6 30.334099 
L 338.688 30.334099 
" style="fill:none;stroke:#b0b0b0;stroke-linecap:square;stroke-width:0.8;"/>
     </g>
     <g id="line2d_32">
      <g>
       <use style="stroke:#000000;stroke-width:0.8;" x="57.6" xlink:href="#mb0c2b7b598" y="30.334099"/>
      </g>
     </g>
     <g id="text_11">
      <!-- 1.0 -->
      <g transform="translate(25.155 36.412849)scale(0.16 -0.16)">
       <use xlink:href="#DejaVuSans-31"/>
       <use x="63.623047" xlink:href="#DejaVuSans-2e"/>
       <use x="95.410156" xlink:href="#DejaVuSans-30"/>
      </g>
     </g>
    </g>
    <g id="text_12">
     <!-- Fraction of function,target pairs -->
     <g transform="translate(17.619531 297.681)rotate(-90)scale(0.17 -0.17)">
      <defs>
       <path d="M 628 4666 
L 3309 4666 
L 3309 4134 
L 1259 4134 
L 1259 2759 
L 3109 2759 
L 3109 2228 
L 1259 2228 
L 1259 0 
L 628 0 
L 628 4666 
z
" id="DejaVuSans-46" transform="scale(0.015625)"/>
       <path d="M 2631 2963 
Q 2534 3019 2420 3045 
Q 2306 3072 2169 3072 
Q 1681 3072 1420 2755 
Q 1159 2438 1159 1844 
L 1159 0 
L 581 0 
L 581 3500 
L 1159 3500 
L 1159 2956 
Q 1341 3275 1631 3429 
Q 1922 3584 2338 3584 
Q 2397 3584 2469 3576 
Q 2541 3569 2628 3553 
L 2631 2963 
z
" id="DejaVuSans-72" transform="scale(0.015625)"/>
       <path d="M 3122 3366 
L 3122 2828 
Q 2878 2963 2633 3030 
Q 2388 3097 2138 3097 
Q 1578 3097 1268 2742 
Q 959 2388 959 1747 
Q 959 1106 1268 751 
Q 1578 397 2138 397 
Q 2388 397 2633 464 
Q 2878 531 3122 666 
L 3122 134 
Q 2881 22 2623 -34 
Q 2366 -91 2075 -91 
Q 1284 -91 818 406 
Q 353 903 353 1747 
Q 353 2603 823 3093 
Q 1294 3584 2113 3584 
Q 2378 3584 2631 3529 
Q 2884 3475 3122 3366 
z
" id="DejaVuSans-63" transform="scale(0.015625)"/>
       <path d="M 1172 4494 
L 1172 3500 
L 2356 3500 
L 2356 3053 
L 1172 3053 
L 1172 1153 
Q 1172 725 1289 603 
Q 1406 481 1766 481 
L 2356 481 
L 2356 0 
L 1766 0 
Q 1100 0 847 248 
Q 594 497 594 1153 
L 594 3053 
L 172 3053 
L 172 3500 
L 594 3500 
L 594 4494 
L 1172 4494 
z
" id="DejaVuSans-74" transform="scale(0.015625)"/>
       <path d="M 544 1381 
L 544 3500 
L 1119 3500 
L 1119 1403 
Q 1119 906 1312 657 
Q 1506 409 1894 409 
Q 2359 409 2629 706 
Q 2900 1003 2900 1516 
L 2900 3500 
L 3475 3500 
L 3475 0 
L 2900 0 
L 2900 538 
Q 2691 219 2414 64 
Q 2138 -91 1772 -91 
Q 1169 -91 856 284 
Q 544 659 544 1381 
z
M 1991 3584 
L 1991 3584 
z
" id="DejaVuSans-75" transform="scale(0.015625)"/>
       <path d="M 750 794 
L 1409 794 
L 1409 256 
L 897 -744 
L 494 -744 
L 750 256 
L 750 794 
z
" id="DejaVuSans-2c" transform="scale(0.015625)"/>
       <path d="M 1159 525 
L 1159 -1331 
L 581 -1331 
L 581 3500 
L 1159 3500 
L 1159 2969 
Q 1341 3281 1617 3432 
Q 1894 3584 2278 3584 
Q 2916 3584 3314 3078 
Q 3713 2572 3713 1747 
Q 3713 922 3314 415 
Q 2916 -91 2278 -91 
Q 1894 -91 1617 61 
Q 1341 213 1159 525 
z
M 3116 1747 
Q 3116 2381 2855 2742 
Q 2594 3103 2138 3103 
Q 1681 3103 1420 2742 
Q 1159 2381 1159 1747 
Q 1159 1113 1420 752 
Q 1681 391 2138 391 
Q 2594 391 2855 752 
Q 3116 1113 3116 1747 
z
" id="DejaVuSans-70" transform="scale(0.015625)"/>
      </defs>
      <use xlink:href="#DejaVuSans-46"/>
      <use x="50.269531" xlink:href="#DejaVuSans-72"/>
      <use x="91.382812" xlink:href="#DejaVuSans-61"/>
      <use x="152.662109" xlink:href="#DejaVuSans-63"/>
      <use x="207.642578" xlink:href="#DejaVuSans-74"/>
      <use x="246.851562" xlink:href="#DejaVuSans-69"/>
      <use x="274.634766" xlink:href="#DejaVuSans-6f"/>
      <use x="335.816406" xlink:href="#DejaVuSans-6e"/>
      <use x="399.195312" xlink:href="#DejaVuSans-20"/>
      <use x="430.982422" xlink:href="#DejaVuSans-6f"/>
      <use x="492.164062" xlink:href="#DejaVuSans-66"/>
      <use x="527.369141" xlink:href="#DejaVuSans-20"/>
      <use x="559.15625" xlink:href="#DejaVuSans-66"/>
      <use x="594.361328" xlink:href="#DejaVuSans-75"/>
      <use x="657.740234" xlink:href="#DejaVuSans-6e"/>
      <use x="721.119141" xlink:href="#DejaVuSans-63"/>
      <use x="776.099609" xlink:href="#DejaVuSans-74"/>
      <use x="815.308594" xlink:href="#DejaVuSans-69"/>
      <use x="843.091797" xlink:href="#DejaVuSans-6f"/>
      <use x="904.273438" xlink:href="#DejaVuSans-6e"/>
      <use x="967.652344" xlink:href="#DejaVuSans-2c"/>
      <use x="999.439453" xlink:href="#DejaVuSans-74"/>
      <use x="1038.648438" xlink:href="#DejaVuSans-61"/>
      <use x="1099.927734" xlink:href="#DejaVuSans-72"/>
      <use x="1139.291016" xlink:href="#DejaVuSans-67"/>
      <use x="1202.767578" xlink:href="#DejaVuSans-65"/>
      <use x="1264.291016" xlink:href="#DejaVuSans-74"/>
      <use x="1303.5" xlink:href="#DejaVuSans-20"/>
      <use x="1335.287109" xlink:href="#DejaVuSans-70"/>
      <use x="1398.763672" xlink:href="#DejaVuSans-61"/>
      <use x="1460.042969" xlink:href="#DejaVuSans-69"/>
      <use x="1487.826172" xlink:href="#DejaVuSans-72"/>
      <use x="1528.939453" xlink:href="#DejaVuSans-73"/>
     </g>
    </g>
   </g>
   <g id="line2d_33">
    <defs>
     <path d="M 0 1.5 
C 0.397805 1.5 0.77937 1.341951 1.06066 1.06066 
C 1.341951 0.77937 1.5 0.397805 1.5 0 
C 1.5 -0.397805 1.341951 -0.77937 1.06066 -1.06066 
C 0.77937 -1.341951 0.397805 -1.5 0 -1.5 
C -0.397805 -1.5 -0.77937 -1.341951 -1.06066 -1.06066 
C -1.341951 -0.77937 -1.5 -0.397805 -1.5 0 
C -1.5 0.397805 -1.341951 0.77937 -1.06066 1.06066 
C -0.77937 1.341951 -0.397805 1.5 0 1.5 
z
" id="mcf8a243550" style="stroke:#f5deb3;"/>
    </defs>
    <g>
     <use style="fill:#f5deb3;stroke:#f5deb3;" x="249.26685" xlink:href="#mcf8a243550" y="30.334099"/>
     <use style="fill:#f5deb3;stroke:#f5deb3;" x="249.26685" xlink:href="#mcf8a243550" y="30.334099"/>
    </g>
   </g>
   <g id="line2d_34">
    <defs>
     <path d="M 0 1.5 
C 0.397805 1.5 0.77937 1.341951 1.06066 1.06066 
C 1.341951 0.77937 1.5 0.397805 1.5 0 
C 1.5 -0.397805 1.341951 -0.77937 1.06066 -1.06066 
C 0.77937 -1.341951 0.397805 -1.5 0 -1.5 
C -0.397805 -1.5 -0.77937 -1.341951 -1.06066 -1.06066 
C -1.341951 -0.77937 -1.5 -0.397805 -1.5 0 
C -1.5 0.397805 -1.341951 0.77937 -1.06066 1.06066 
C -0.77937 1.341951 -0.397805 1.5 0 1.5 
z
" id="m151aa6b17d" style="stroke:#000080;"/>
    </defs>
    <g>
     <use style="fill:#000080;stroke:#000080;" x="254.97418" xlink:href="#m151aa6b17d" y="30.334099"/>
     <use style="fill:#000080;stroke:#000080;" x="254.97418" xlink:href="#m151aa6b17d" y="30.334099"/>
    </g>
   </g>
   <g id="line2d_35">
    <path d="M 73.579452 298.944 
L 73.579452 298.417314 
L 80.881459 298.417314 
L 80.881459 295.783884 
L 89.135256 295.783884 
L 89.135256 294.730511 
L 90.509138 294.730511 
L 90.509138 292.623767 
L 91.284345 292.623767 
L 91.284345 291.043709 
L 91.782644 291.043709 
L 91.782644 290.517023 
L 92.026554 290.517023 
L 92.026554 288.410278 
L 93.422441 288.410278 
L 93.422441 287.883592 
L 96.86091 287.883592 
L 96.86091 285.776848 
L 97.580158 285.776848 
L 97.580158 285.250162 
L 97.755429 285.250162 
L 97.755429 283.670104 
L 98.771596 283.670104 
L 98.771596 280.509987 
L 99.097574 280.509987 
L 99.097574 275.769812 
L 99.41757 275.769812 
L 99.41757 275.243126 
L 99.731799 275.243126 
L 99.731799 273.663068 
L 100.040467 273.663068 
L 100.040467 272.08301 
L 100.934985 272.08301 
L 100.934985 271.556324 
L 101.365607 271.556324 
L 101.365607 269.449579 
L 102.728744 269.449579 
L 102.728744 267.869521 
L 103.117741 267.869521 
L 103.117741 267.342835 
L 104.114542 267.342835 
L 104.114542 266.289463 
L 104.592361 266.289463 
L 104.592361 265.762777 
L 104.709797 265.762777 
L 104.709797 265.236091 
L 105.398279 265.236091 
L 105.398279 264.709405 
L 105.621863 264.709405 
L 105.621863 263.656033 
L 106.382575 263.656033 
L 106.48859 259.442544 
L 106.698704 259.442544 
L 106.698704 258.915858 
L 107.414787 258.915858 
L 107.514726 257.3358 
L 108.198707 257.3358 
L 108.198707 256.809114 
L 113.095487 256.809114 
L 113.095487 256.282427 
L 114.216469 256.282427 
L 114.216469 255.755741 
L 116.38325 255.755741 
L 116.38325 255.229055 
L 120.524615 255.229055 
L 120.524615 254.702369 
L 123.152022 254.702369 
L 123.152022 254.175683 
L 125.576994 254.175683 
L 125.576994 253.648997 
L 131.210808 253.648997 
L 131.236397 252.595625 
L 131.465029 252.595625 
L 131.465029 252.068939 
L 132.730358 252.068939 
L 132.730358 251.542253 
L 136.494612 251.542253 
L 136.494612 251.015567 
L 137.198951 251.015567 
L 137.198951 250.488881 
L 137.945701 250.488881 
L 137.945701 249.962195 
L 141.46423 249.962195 
L 141.46423 249.435508 
L 163.360217 249.435508 
L 163.360217 248.908822 
L 164.787563 248.908822 
L 164.787563 248.382136 
L 165.421922 248.382136 
L 165.421922 247.85545 
L 181.655184 247.85545 
L 181.655184 247.328764 
L 191.913645 247.328764 
L 191.913645 246.802078 
L 192.206775 246.802078 
L 192.206775 246.275392 
L 192.655197 246.275392 
L 192.655197 245.748706 
L 192.959252 245.748706 
L 193.035554 244.695334 
L 193.998238 244.695334 
L 193.998238 244.168648 
L 194.378082 244.168648 
L 194.378082 243.641962 
L 195.641165 243.641962 
L 195.641165 243.115275 
L 203.052805 243.115275 
L 203.052805 242.588589 
L 203.187955 242.588589 
L 203.187955 242.061903 
L 203.50916 242.061903 
L 203.50916 241.535217 
L 204.055155 241.535217 
L 204.115171 240.481845 
L 204.592195 240.481845 
L 204.592195 239.955159 
L 205.566545 239.955159 
L 205.566545 239.428473 
L 205.808788 239.428473 
L 205.808788 238.901787 
L 206.063479 238.901787 
L 206.172398 237.848415 
L 214.00638 237.848415 
L 214.00638 237.321729 
L 214.328289 237.321729 
L 214.328289 236.795043 
L 214.713595 236.795043 
L 214.713595 236.268356 
L 214.899832 236.268356 
L 214.899832 235.74167 
L 215.017376 235.74167 
L 215.124347 234.161612 
L 215.398166 234.161612 
L 215.423368 233.10824 
L 215.662099 233.10824 
L 215.662099 232.581554 
L 215.784262 232.581554 
L 215.878068 231.528182 
L 216.269797 231.528182 
L 216.349972 230.47481 
L 217.272222 230.47481 
L 217.272222 229.948123 
L 217.487813 229.948123 
L 217.487813 229.421437 
L 225.186146 229.421437 
L 225.186146 228.894751 
L 225.472246 228.894751 
L 225.472246 228.368065 
L 225.737075 228.368065 
L 225.809009 227.314693 
L 225.883569 227.314693 
L 225.883569 226.788007 
L 226.152234 226.788007 
L 226.152234 226.261321 
L 226.569089 226.261321 
L 226.569089 225.734635 
L 226.748724 225.734635 
L 226.770314 224.681263 
L 226.990879 224.681263 
L 226.990879 224.154577 
L 227.127669 224.154577 
L 227.127669 223.627891 
L 227.298354 223.627891 
L 227.399206 222.047832 
L 227.456193 222.047832 
L 227.55236 220.467774 
L 227.573795 220.467774 
L 227.61394 218.36103 
L 227.765531 218.36103 
L 227.765531 217.834344 
L 228.002324 217.834344 
L 228.097019 215.727599 
L 228.149999 215.727599 
L 228.219536 214.674227 
L 228.277437 214.674227 
L 228.347055 213.620855 
L 237.47175 213.620855 
L 237.564491 212.040797 
L 237.601209 212.040797 
L 237.601209 211.514111 
L 237.796593 211.514111 
L 237.888925 209.934052 
L 238.03063 209.934052 
L 238.124576 208.353994 
L 238.156799 208.353994 
L 238.156799 207.827308 
L 238.292767 207.827308 
L 238.307657 206.773936 
L 238.426698 206.773936 
L 238.534272 205.193878 
L 238.557435 205.193878 
L 238.660805 200.980389 
L 238.693563 200.980389 
L 238.780098 198.346959 
L 238.837942 198.346959 
L 238.939774 193.080098 
L 238.94934 193.080098 
L 239.042917 189.919981 
L 239.062617 189.919981 
L 239.173223 182.01969 
L 239.175478 182.01969 
L 239.285477 176.752829 
L 239.293657 176.752829 
L 239.391989 170.432596 
L 239.408919 170.432596 
L 239.519877 161.478933 
L 239.548238 161.478933 
L 239.642289 154.105328 
L 239.667699 154.105328 
L 239.771554 145.151665 
L 239.781334 145.151665 
L 239.87031 139.884804 
L 239.895742 139.884804 
L 239.97848 132.511199 
L 240.006905 132.511199 
L 240.114333 125.66428 
L 240.124567 125.66428 
L 240.225992 119.344047 
L 240.241934 119.344047 
L 240.346948 115.130558 
L 240.373702 115.130558 
L 240.460007 109.863697 
L 240.495148 109.863697 
L 240.602035 104.596836 
L 240.624831 104.596836 
L 240.709232 99.329976 
L 240.755376 99.329976 
L 240.854065 95.643173 
L 240.868254 95.643173 
L 240.953193 93.009743 
L 240.99213 93.009743 
L 241.016498 90.902998 
L 241.11133 90.902998 
L 241.206864 86.68951 
L 241.22408 86.68951 
L 241.313108 84.056079 
L 241.384597 84.056079 
L 241.432262 82.476021 
L 241.529175 82.476021 
L 241.54777 81.422649 
L 251.031881 81.422649 
L 251.031881 80.895963 
L 251.592895 80.895963 
L 251.612826 79.842591 
L 251.912705 79.842591 
L 252.007392 78.262532 
L 252.158632 78.262532 
L 252.158632 77.735846 
L 252.311042 77.735846 
L 252.311042 77.20916 
L 252.43089 77.20916 
L 252.500573 75.629102 
L 252.545949 75.629102 
L 252.627935 74.049044 
L 252.668191 74.049044 
L 252.732379 72.468985 
L 252.797845 72.468985 
L 252.905504 68.782183 
L 252.938695 68.782183 
L 253.009847 67.202125 
L 253.054391 67.202125 
L 253.16213 65.09538 
L 253.167373 65.09538 
L 253.259855 62.46195 
L 253.291351 62.46195 
L 253.401747 57.721775 
L 253.417305 57.721775 
L 253.496711 54.561659 
L 253.535773 54.561659 
L 253.638779 52.454914 
L 253.711376 52.454914 
L 253.802452 50.34817 
L 253.839818 50.34817 
L 253.927774 48.241426 
L 254.002901 48.241426 
L 254.073844 46.134681 
L 254.120297 46.134681 
L 254.220228 42.447879 
L 254.310695 42.447879 
L 254.403434 38.761076 
L 254.423988 38.761076 
L 254.528462 37.707704 
L 254.537115 37.707704 
L 254.604255 36.127646 
L 254.678254 36.127646 
L 254.778498 33.494215 
L 254.812249 33.494215 
L 254.918534 31.387471 
L 254.961097 31.387471 
L 254.97418 30.334099 
L 338.688 30.334099 
L 338.688 30.334099 
" style="fill:none;stroke:#000080;stroke-linecap:square;stroke-width:1.5;"/>
   </g>
   <g id="line2d_36">
    <defs>
     <path d="M 0 6 
C 1.591219 6 3.117479 5.367802 4.242641 4.242641 
C 5.367802 3.117479 6 1.591219 6 0 
C 6 -1.591219 5.367802 -3.117479 4.242641 -4.242641 
C 3.117479 -5.367802 1.591219 -6 0 -6 
C -1.591219 -6 -3.117479 -5.367802 -4.242641 -4.242641 
C -5.367802 -3.117479 -6 -1.591219 -6 0 
C -6 1.591219 -5.367802 3.117479 -4.242641 4.242641 
C -3.117479 5.367802 -1.591219 6 0 6 
z
" id="md86d0d952f" style="stroke:#000080;stroke-width:1.5;"/>
    </defs>
    <g>
     <use style="fill-opacity:0;stroke:#000080;stroke-width:1.5;" x="116.38325" xlink:href="#md86d0d952f" y="255.755741"/>
     <use style="fill-opacity:0;stroke:#000080;stroke-width:1.5;" x="217.487813" xlink:href="#md86d0d952f" y="229.421437"/>
     <use style="fill-opacity:0;stroke:#000080;stroke-width:1.5;" x="252.938695" xlink:href="#md86d0d952f" y="68.255497"/>
     <use style="fill-opacity:0;stroke:#000080;stroke-width:1.5;" x="254.97418" xlink:href="#md86d0d952f" y="30.334099"/>
     <use style="fill-opacity:0;stroke:#000080;stroke-width:1.5;" x="338.688" xlink:href="#md86d0d952f" y="30.334099"/>
    </g>
   </g>
   <g id="line2d_37">
    <path style="fill:none;stroke:#000080;stroke-linecap:square;stroke-width:1.5;"/>
    <g/>
   </g>
   <g id="line2d_38">
    <defs>
     <path d="M 0 1.5 
C 0.397805 1.5 0.77937 1.341951 1.06066 1.06066 
C 1.341951 0.77937 1.5 0.397805 1.5 0 
C 1.5 -0.397805 1.341951 -0.77937 1.06066 -1.06066 
C 0.77937 -1.341951 0.397805 -1.5 0 -1.5 
C -0.397805 -1.5 -0.77937 -1.341951 -1.06066 -1.06066 
C -1.341951 -0.77937 -1.5 -0.397805 -1.5 0 
C -1.5 0.397805 -1.341951 0.77937 -1.06066 1.06066 
C -0.77937 1.341951 -0.397805 1.5 0 1.5 
z
" id="m88a0edf21e" style="stroke:#ff00ff;"/>
    </defs>
    <g>
     <use style="fill:#ff00ff;stroke:#ff00ff;" x="367.783981" xlink:href="#m88a0edf21e" y="219.941088"/>
     <use style="fill:#ff00ff;stroke:#ff00ff;" x="367.783981" xlink:href="#m88a0edf21e" y="219.941088"/>
    </g>
   </g>
   <g id="line2d_39">
    <path d="M 87.952479 298.944 
L 87.952479 289.463651 
L 91.029752 289.463651 
L 91.029752 284.723476 
L 92.267099 284.723476 
L 92.267099 284.19679 
L 93.422441 284.19679 
L 93.422441 281.036673 
L 93.644601 281.036673 
L 93.644601 271.556324 
L 95.918017 271.556324 
L 95.918017 265.762777 
L 96.301313 265.762777 
L 96.301313 264.709405 
L 97.928955 264.709405 
L 97.928955 260.495916 
L 98.935347 260.495916 
L 98.935347 258.915858 
L 101.365607 258.915858 
L 101.365607 257.862486 
L 102.859376 257.862486 
L 102.859376 257.3358 
L 105.51043 257.3358 
L 105.51043 256.809114 
L 128.229861 256.809114 
L 128.229861 256.282427 
L 129.002426 256.282427 
L 129.089405 255.229055 
L 129.825588 255.229055 
L 129.825588 254.702369 
L 130.531948 254.702369 
L 130.531948 254.175683 
L 130.717333 254.175683 
L 130.717333 253.648997 
L 131.839545 253.648997 
L 131.839545 253.122311 
L 133.644815 253.122311 
L 133.644815 252.595625 
L 135.50226 252.595625 
L 135.50226 252.068939 
L 137.963097 252.068939 
L 137.963097 251.542253 
L 140.514223 251.542253 
L 140.514223 251.015567 
L 143.208936 251.015567 
L 143.208936 250.488881 
L 147.010073 250.488881 
L 147.010073 249.962195 
L 158.858379 249.962195 
L 158.968208 248.382136 
L 161.320345 248.382136 
L 161.320345 247.85545 
L 164.735204 247.85545 
L 164.735204 247.328764 
L 165.171671 247.328764 
L 165.171671 246.802078 
L 172.364034 246.802078 
L 172.364034 246.275392 
L 174.711458 246.275392 
L 174.711458 245.748706 
L 177.869864 245.748706 
L 177.869864 245.22202 
L 194.285442 245.22202 
L 194.285442 244.695334 
L 197.174064 244.695334 
L 197.174064 244.168648 
L 199.737294 244.168648 
L 199.737294 243.641962 
L 202.666077 243.641962 
L 202.666077 243.115275 
L 205.032758 243.115275 
L 205.032758 242.588589 
L 211.767556 242.588589 
L 211.767556 242.061903 
L 224.541788 242.061903 
L 224.541788 241.535217 
L 238.188796 241.535217 
L 238.188796 241.008531 
L 240.307967 241.008531 
L 240.3618 239.955159 
L 240.421767 239.955159 
L 240.440507 238.375101 
L 258.624982 238.375101 
L 258.624982 237.848415 
L 274.272635 237.848415 
L 274.272635 237.321729 
L 283.766987 237.321729 
L 283.766987 236.795043 
L 296.358 236.795043 
L 296.358 236.268356 
L 298.593068 236.268356 
L 298.593068 235.74167 
L 299.144731 235.74167 
L 299.145591 234.161612 
L 309.567433 234.161612 
L 309.567433 233.634926 
L 310.929986 233.634926 
L 310.930336 231.528182 
L 316.999571 231.528182 
L 316.999926 230.47481 
L 317.775082 230.47481 
L 317.775082 229.948123 
L 322.190189 229.948123 
L 322.190189 229.421437 
L 322.864014 229.421437 
L 322.864014 228.894751 
L 329.437401 228.894751 
L 329.437401 228.368065 
L 334.54068 228.368065 
L 334.54068 227.841379 
L 336.920213 227.841379 
L 336.920213 227.314693 
L 338.688 227.314693 
L 338.688 227.314693 
" style="fill:none;stroke:#ff00ff;stroke-linecap:square;stroke-width:1.5;"/>
   </g>
   <g id="line2d_40">
    <defs>
     <path d="M 0 8.485281 
L 5.091169 0 
L 0 -8.485281 
L -5.091169 0 
z
" id="mf6ff8ebd1c" style="stroke:#ff00ff;stroke-linejoin:miter;stroke-width:1.5;"/>
    </defs>
    <g>
     <use style="fill-opacity:0;stroke:#ff00ff;stroke-linejoin:miter;stroke-width:1.5;" x="133.644815" xlink:href="#mf6ff8ebd1c" y="252.595625"/>
     <use style="fill-opacity:0;stroke:#ff00ff;stroke-linejoin:miter;stroke-width:1.5;" x="211.767556" xlink:href="#mf6ff8ebd1c" y="242.061903"/>
     <use style="fill-opacity:0;stroke:#ff00ff;stroke-linejoin:miter;stroke-width:1.5;" x="299.145591" xlink:href="#mf6ff8ebd1c" y="234.688298"/>
     <use style="fill-opacity:0;stroke:#ff00ff;stroke-linejoin:miter;stroke-width:1.5;" x="336.920213" xlink:href="#mf6ff8ebd1c" y="227.314693"/>
     <use style="fill-opacity:0;stroke:#ff00ff;stroke-linejoin:miter;stroke-width:1.5;" x="338.688" xlink:href="#mf6ff8ebd1c" y="227.314693"/>
    </g>
   </g>
   <g id="line2d_41">
    <path style="fill:none;stroke:#ff00ff;stroke-linecap:square;stroke-width:1.5;"/>
    <g/>
   </g>
   <g id="line2d_42">
    <path clip-path="url(#p3584e9fa8a)" d="M 298.533218 236.268356 
" style="fill:none;stroke:#ff00ff;stroke-linecap:square;stroke-width:1.5;"/>
    <defs>
     <path d="M -12 12 
L 12 -12 
M -12 -12 
L 12 12 
" id="mc2483586d6" style="stroke:#ff00ff;"/>
    </defs>
    <g clip-path="url(#p3584e9fa8a)">
     <use style="fill:#ff00ff;stroke:#ff00ff;" x="298.533218" xlink:href="#mc2483586d6" y="236.268356"/>
    </g>
   </g>
   <g id="line2d_43">
    <defs>
     <path d="M 0 1.5 
C 0.397805 1.5 0.77937 1.341951 1.06066 1.06066 
C 1.341951 0.77937 1.5 0.397805 1.5 0 
C 1.5 -0.397805 1.341951 -0.77937 1.06066 -1.06066 
C 0.77937 -1.341951 0.397805 -1.5 0 -1.5 
C -0.397805 -1.5 -0.77937 -1.341951 -1.06066 -1.06066 
C -1.341951 -0.77937 -1.5 -0.397805 -1.5 0 
C -1.5 0.397805 -1.341951 0.77937 -1.06066 1.06066 
C -0.77937 1.341951 -0.397805 1.5 0 1.5 
z
" id="m03338a90b6" style="stroke:#ff7500;"/>
    </defs>
    <g>
     <use style="fill:#ff7500;stroke:#ff7500;" x="254.320535" xlink:href="#m03338a90b6" y="30.334099"/>
     <use style="fill:#ff7500;stroke:#ff7500;" x="254.320535" xlink:href="#m03338a90b6" y="30.334099"/>
    </g>
   </g>
   <g id="line2d_44">
    <path d="M 67.850577 298.944 
L 67.850577 272.609696 
L 77.884514 272.609696 
L 77.884514 262.075974 
L 96.86091 262.075974 
L 96.86091 256.809114 
L 119.045825 256.809114 
L 119.045825 256.282427 
L 119.751557 256.282427 
L 119.751557 255.755741 
L 121.667835 255.755741 
L 121.712041 254.702369 
L 122.31944 254.702369 
L 122.31944 254.175683 
L 123.474235 254.175683 
L 123.474235 252.068939 
L 125.110962 252.068939 
L 125.110962 251.542253 
L 141.676303 251.542253 
L 141.676303 251.015567 
L 144.77134 251.015567 
L 144.77134 250.488881 
L 145.395476 250.488881 
L 145.395476 249.962195 
L 147.030761 249.962195 
L 147.030761 249.435508 
L 147.256714 249.435508 
L 147.277111 248.382136 
L 165.561796 248.382136 
L 165.561796 247.85545 
L 166.23107 247.85545 
L 166.23107 247.328764 
L 167.423481 247.328764 
L 167.423481 246.802078 
L 178.289814 246.802078 
L 178.289814 246.275392 
L 178.56822 246.275392 
L 178.56822 245.748706 
L 180.470239 245.748706 
L 180.470239 245.22202 
L 192.292605 245.22202 
L 192.292605 244.695334 
L 193.027421 244.695334 
L 193.027421 244.168648 
L 194.150754 244.168648 
L 194.150754 243.641962 
L 202.298848 243.641962 
L 202.298848 243.115275 
L 203.426255 243.115275 
L 203.426255 242.588589 
L 204.111254 242.588589 
L 204.111254 242.061903 
L 204.625693 242.061903 
L 204.638618 241.008531 
L 204.879018 241.008531 
L 204.879018 240.481845 
L 205.714009 240.481845 
L 205.716867 239.428473 
L 205.850314 239.428473 
L 205.850314 238.901787 
L 206.014382 238.901787 
L 206.014382 238.375101 
L 206.607509 238.375101 
L 206.607509 237.848415 
L 207.021424 237.848415 
L 207.021424 237.321729 
L 207.490075 237.321729 
L 207.490075 236.795043 
L 214.761298 236.795043 
L 214.761298 236.268356 
L 215.034552 236.268356 
L 215.034552 235.74167 
L 215.537244 235.74167 
L 215.537244 235.214984 
L 215.835328 235.214984 
L 215.835328 234.688298 
L 216.344729 234.688298 
L 216.344729 234.161612 
L 216.651584 234.161612 
L 216.651584 233.634926 
L 223.954872 233.634926 
L 223.954872 233.10824 
L 225.584652 233.10824 
L 225.584652 232.581554 
L 225.715868 232.581554 
L 225.758935 231.528182 
L 226.152123 231.528182 
L 226.197109 230.47481 
L 226.356001 230.47481 
L 226.356001 229.948123 
L 226.559037 229.948123 
L 226.629604 228.368065 
L 226.73535 228.368065 
L 226.825451 226.261321 
L 226.941236 226.261321 
L 226.941236 225.734635 
L 227.152872 225.734635 
L 227.231071 224.681263 
L 227.267029 224.681263 
L 227.29483 223.627891 
L 227.555526 223.627891 
L 227.555526 222.574518 
L 227.690305 222.574518 
L 227.690305 222.047832 
L 227.820833 222.047832 
L 227.881874 220.99446 
L 228.005111 220.99446 
L 228.082065 219.941088 
L 228.120465 219.941088 
L 228.200653 218.36103 
L 228.270283 218.36103 
L 228.365293 216.780971 
L 228.388673 216.780971 
L 228.446113 215.727599 
L 236.527093 215.727599 
L 236.527093 215.200913 
L 237.170597 215.200913 
L 237.170597 214.674227 
L 237.330775 214.674227 
L 237.330775 214.147541 
L 237.497754 214.147541 
L 237.497754 213.620855 
L 237.666066 213.620855 
L 237.733303 212.567483 
L 238.14829 212.567483 
L 238.234245 209.934052 
L 238.28046 209.934052 
L 238.384986 206.773936 
L 238.393216 206.773936 
L 238.49936 203.613819 
L 238.526816 203.613819 
L 238.567539 202.560447 
L 238.640267 202.560447 
L 238.716354 198.346959 
L 238.844464 198.346959 
L 238.913706 193.080098 
L 238.965431 193.080098 
L 239.069636 189.393295 
L 239.092258 189.393295 
L 239.183605 184.653121 
L 239.251203 184.653121 
L 239.337048 178.859574 
L 239.36607 178.859574 
L 239.459301 173.592713 
L 239.477661 173.592713 
L 239.588542 167.27248 
L 239.591307 167.27248 
L 239.697246 162.005619 
L 239.715357 162.005619 
L 239.819688 155.685386 
L 239.840954 155.685386 
L 239.932089 150.418525 
L 239.961392 150.418525 
L 240.070644 141.991548 
L 240.097776 141.991548 
L 240.185602 133.564571 
L 240.225794 133.564571 
L 240.330904 126.190966 
L 240.341601 126.190966 
L 240.449577 118.290674 
L 240.499913 118.290674 
L 240.572919 114.603872 
L 240.618072 114.603872 
L 240.719555 109.337011 
L 240.767827 109.337011 
L 240.811668 107.230267 
L 240.89175 107.230267 
L 241.002051 104.596836 
L 241.01428 104.596836 
L 241.119073 102.490092 
L 241.14734 102.490092 
L 241.251945 98.803289 
L 241.260835 98.803289 
L 241.311763 97.223231 
L 241.379097 97.223231 
L 241.450132 96.169859 
L 251.441059 96.169859 
L 251.441059 95.643173 
L 251.689612 95.643173 
L 251.689612 95.116487 
L 252.013246 95.116487 
L 252.07906 93.009743 
L 252.232933 93.009743 
L 252.232933 92.483056 
L 252.43116 92.483056 
L 252.50768 90.902998 
L 252.564942 90.902998 
L 252.673126 88.796254 
L 252.678325 88.796254 
L 252.765203 84.582765 
L 252.79943 84.582765 
L 252.879709 81.422649 
L 252.939958 81.422649 
L 253.025142 74.57573 
L 253.073477 74.57573 
L 253.182625 69.308869 
L 253.220638 69.308869 
L 253.329245 61.935264 
L 253.332529 61.935264 
L 253.416169 56.141717 
L 253.46392 56.141717 
L 253.572703 49.821484 
L 253.578812 49.821484 
L 253.686632 43.501251 
L 253.698678 43.501251 
L 253.803472 39.814448 
L 253.811246 39.814448 
L 253.885566 36.127646 
L 253.944332 36.127646 
L 254.042657 33.494215 
L 254.090308 33.494215 
L 254.18205 32.440843 
L 254.20506 32.440843 
L 254.2158 30.860785 
L 254.320535 30.860785 
L 254.320535 30.334099 
L 338.688 30.334099 
L 338.688 30.334099 
" style="fill:none;stroke:#ff7500;stroke-linecap:square;stroke-width:1.5;"/>
   </g>
   <g id="line2d_45">
    <defs>
     <path d="M 0 -6 
L -1.347084 -1.854102 
L -5.706339 -1.854102 
L -2.179628 0.708204 
L -3.526712 4.854102 
L -0 2.291796 
L 3.526712 4.854102 
L 2.179628 0.708204 
L 5.706339 -1.854102 
L 1.347084 -1.854102 
z
" id="m1709b8f29f" style="stroke:#ff7500;stroke-linejoin:bevel;stroke-width:1.5;"/>
    </defs>
    <g>
     <use style="fill-opacity:0;stroke:#ff7500;stroke-linejoin:bevel;stroke-width:1.5;" x="125.110962" xlink:href="#m1709b8f29f" y="251.542253"/>
     <use style="fill-opacity:0;stroke:#ff7500;stroke-linejoin:bevel;stroke-width:1.5;" x="239.251203" xlink:href="#m1709b8f29f" y="183.599748"/>
     <use style="fill-opacity:0;stroke:#ff7500;stroke-linejoin:bevel;stroke-width:1.5;" x="254.320535" xlink:href="#m1709b8f29f" y="30.860785"/>
     <use style="fill-opacity:0;stroke:#ff7500;stroke-linejoin:bevel;stroke-width:1.5;" x="254.320535" xlink:href="#m1709b8f29f" y="30.334099"/>
     <use style="fill-opacity:0;stroke:#ff7500;stroke-linejoin:bevel;stroke-width:1.5;" x="338.688" xlink:href="#m1709b8f29f" y="30.334099"/>
    </g>
   </g>
   <g id="line2d_46">
    <path style="fill:none;stroke:#ff7500;stroke-linecap:square;stroke-width:1.5;"/>
    <g/>
   </g>
   <g id="line2d_47">
    <defs>
     <path d="M 0 1.5 
C 0.397805 1.5 0.77937 1.341951 1.06066 1.06066 
C 1.341951 0.77937 1.5 0.397805 1.5 0 
C 1.5 -0.397805 1.341951 -0.77937 1.06066 -1.06066 
C 0.77937 -1.341951 0.397805 -1.5 0 -1.5 
C -0.397805 -1.5 -0.77937 -1.341951 -1.06066 -1.06066 
C -1.341951 -0.77937 -1.5 -0.397805 -1.5 0 
C -1.5 0.397805 -1.341951 0.77937 -1.06066 1.06066 
C -0.77937 1.341951 -0.397805 1.5 0 1.5 
z
" id="m4869b83ab9" style="stroke:#6495ed;"/>
    </defs>
    <g>
     <use style="fill:#6495ed;stroke:#6495ed;" x="271.479325" xlink:href="#m4869b83ab9" y="235.74167"/>
     <use style="fill:#6495ed;stroke:#6495ed;" x="271.479325" xlink:href="#m4869b83ab9" y="235.74167"/>
    </g>
   </g>
   <g id="line2d_48">
    <path d="M 67.850577 298.944 
L 67.850577 272.609696 
L 77.884514 272.609696 
L 77.884514 262.075974 
L 96.86091 262.075974 
L 96.86091 256.809114 
L 121.712041 256.809114 
L 121.712041 255.755741 
L 122.31944 255.755741 
L 122.31944 255.229055 
L 122.362027 255.229055 
L 122.362027 254.702369 
L 122.906394 254.702369 
L 122.906394 254.175683 
L 123.474235 254.175683 
L 123.474235 252.595625 
L 124.024168 252.595625 
L 124.024168 252.068939 
L 124.669438 252.068939 
L 124.669438 251.542253 
L 135.839358 251.542253 
L 135.839358 251.015567 
L 139.461666 251.015567 
L 139.461666 250.488881 
L 140.708409 250.488881 
L 140.708409 249.962195 
L 141.335737 249.962195 
L 141.335737 249.435508 
L 146.495417 249.435508 
L 146.495417 248.908822 
L 147.19538 248.908822 
L 147.19538 248.382136 
L 150.531253 248.382136 
L 150.531253 247.85545 
L 151.589498 247.85545 
L 151.589498 247.328764 
L 156.230332 247.328764 
L 156.230332 246.802078 
L 167.864123 246.802078 
L 167.864123 246.275392 
L 167.926618 246.275392 
L 167.926618 245.748706 
L 181.162809 245.748706 
L 181.162809 245.22202 
L 184.858384 245.22202 
L 184.858384 244.695334 
L 186.810013 244.695334 
L 186.810013 244.168648 
L 199.990136 244.168648 
L 199.990136 243.641962 
L 207.379041 243.641962 
L 207.379041 243.115275 
L 215.181947 243.115275 
L 215.181947 242.588589 
L 216.81965 242.588589 
L 216.81965 242.061903 
L 216.92216 242.061903 
L 216.92216 241.535217 
L 217.424584 241.535217 
L 217.424584 241.008531 
L 218.368976 241.008531 
L 218.368976 240.481845 
L 222.59273 240.481845 
L 222.59273 239.955159 
L 224.882186 239.955159 
L 224.882186 239.428473 
L 225.177956 239.428473 
L 225.177956 238.901787 
L 238.703372 238.901787 
L 238.703372 238.375101 
L 247.987658 238.375101 
L 247.987658 237.848415 
L 256.645903 237.848415 
L 256.645903 237.321729 
L 263.157935 237.321729 
L 263.157935 236.795043 
L 269.726155 236.795043 
L 269.726155 236.268356 
L 271.479325 236.268356 
L 271.479325 235.74167 
L 338.688 235.74167 
" style="fill:none;stroke:#6495ed;stroke-linecap:square;stroke-width:1.5;"/>
   </g>
   <g id="line2d_49">
    <defs>
     <path d="M -0 6 
L 6 -6 
L -6 -6 
z
" id="m2839844185" style="stroke:#6495ed;stroke-linejoin:miter;stroke-width:1.5;"/>
    </defs>
    <g>
     <use style="fill-opacity:0;stroke:#6495ed;stroke-linejoin:miter;stroke-width:1.5;" x="124.669438" xlink:href="#m2839844185" y="252.068939"/>
     <use style="fill-opacity:0;stroke:#6495ed;stroke-linejoin:miter;stroke-width:1.5;" x="199.990136" xlink:href="#m2839844185" y="243.641962"/>
     <use style="fill-opacity:0;stroke:#6495ed;stroke-linejoin:miter;stroke-width:1.5;" x="271.479325" xlink:href="#m2839844185" y="236.268356"/>
     <use style="fill-opacity:0;stroke:#6495ed;stroke-linejoin:miter;stroke-width:1.5;" x="271.479325" xlink:href="#m2839844185" y="235.74167"/>
     <use style="fill-opacity:0;stroke:#6495ed;stroke-linejoin:miter;stroke-width:1.5;" x="338.688" xlink:href="#m2839844185" y="235.74167"/>
    </g>
   </g>
   <g id="line2d_50">
    <path style="fill:none;stroke:#6495ed;stroke-linecap:square;stroke-width:1.5;"/>
    <g/>
   </g>
   <g id="line2d_51">
    <path clip-path="url(#p3584e9fa8a)" d="M 230.508076 238.901787 
" style="fill:none;stroke:#6495ed;stroke-linecap:square;stroke-width:1.5;"/>
    <defs>
     <path d="M -12 12 
L 12 -12 
M -12 -12 
L 12 12 
" id="m397dba52ae" style="stroke:#6495ed;"/>
    </defs>
    <g clip-path="url(#p3584e9fa8a)">
     <use style="fill:#6495ed;stroke:#6495ed;" x="230.508076" xlink:href="#m397dba52ae" y="238.901787"/>
    </g>
   </g>
   <g id="line2d_52">
    <defs>
     <path d="M 0 1.5 
C 0.397805 1.5 0.77937 1.341951 1.06066 1.06066 
C 1.341951 0.77937 1.5 0.397805 1.5 0 
C 1.5 -0.397805 1.341951 -0.77937 1.06066 -1.06066 
C 0.77937 -1.341951 0.397805 -1.5 0 -1.5 
C -0.397805 -1.5 -0.77937 -1.341951 -1.06066 -1.06066 
C -1.341951 -0.77937 -1.5 -0.397805 -1.5 0 
C -1.5 0.397805 -1.341951 0.77937 -1.06066 1.06066 
C -0.77937 1.341951 -0.397805 1.5 0 1.5 
z
" id="me0928ef5dc" style="stroke:#ff0000;"/>
    </defs>
    <g>
     <use style="fill:#ff0000;stroke:#ff0000;" x="251.25182" xlink:href="#me0928ef5dc" y="30.334099"/>
     <use style="fill:#ff0000;stroke:#ff0000;" x="251.25182" xlink:href="#me0928ef5dc" y="30.334099"/>
    </g>
   </g>
   <g id="line2d_53">
    <path d="M 79.447285 298.944 
L 79.447285 296.837256 
L 80.416384 296.837256 
L 80.416384 294.203825 
L 81.775977 294.203825 
L 81.775977 291.570395 
L 82.206598 291.570395 
L 82.206598 286.303534 
L 83.037197 286.303534 
L 83.037197 279.983301 
L 83.438118 279.983301 
L 83.438118 277.349871 
L 84.213325 277.349871 
L 84.213325 274.71644 
L 86.012784 274.71644 
L 86.012784 274.189754 
L 86.351421 274.189754 
L 86.351421 273.663068 
L 87.952479 273.663068 
L 87.952479 273.136382 
L 88.553893 273.136382 
L 88.553893 270.502952 
L 89.135256 270.502952 
L 89.135256 268.396207 
L 89.418828 268.396207 
L 89.418828 266.816149 
L 89.697862 266.816149 
L 89.697862 265.236091 
L 91.535274 265.236091 
L 91.535274 264.709405 
L 91.782644 264.709405 
L 91.782644 264.182719 
L 92.026554 264.182719 
L 92.026554 262.60266 
L 92.267099 262.60266 
L 92.267099 260.495916 
L 92.73846 260.495916 
L 92.73846 259.96923 
L 94.714831 259.96923 
L 94.714831 259.442544 
L 97.043522 259.442544 
L 97.043522 258.915858 
L 97.403108 258.915858 
L 97.403108 257.862486 
L 98.270913 257.862486 
L 98.270913 257.3358 
L 101.223245 257.3358 
L 101.223245 256.809114 
L 123.514096 256.809114 
L 123.553867 255.755741 
L 124.854767 255.755741 
L 124.854767 255.229055 
L 125.470548 255.229055 
L 125.541584 254.175683 
L 126.030894 254.175683 
L 126.030894 253.648997 
L 127.389626 253.648997 
L 127.389626 253.122311 
L 133.975741 253.122311 
L 133.975741 252.595625 
L 136.034648 252.595625 
L 136.034648 252.068939 
L 150.522794 252.068939 
L 150.522794 251.542253 
L 153.076375 251.542253 
L 153.076375 251.015567 
L 153.395042 251.015567 
L 153.395042 250.488881 
L 156.532685 250.488881 
L 156.532685 249.962195 
L 167.84533 249.962195 
L 167.84533 249.435508 
L 169.471824 249.435508 
L 169.471824 248.908822 
L 170.381181 248.908822 
L 170.475761 247.85545 
L 171.458184 247.85545 
L 171.458184 247.328764 
L 172.448474 247.328764 
L 172.448474 246.802078 
L 172.803442 246.802078 
L 172.803442 246.275392 
L 183.916672 246.275392 
L 183.916672 245.748706 
L 184.84893 245.748706 
L 184.84893 245.22202 
L 184.993714 245.22202 
L 184.993714 244.695334 
L 185.450705 244.695334 
L 185.450705 244.168648 
L 185.950484 244.168648 
L 185.950484 243.641962 
L 186.347621 243.641962 
L 186.347621 243.115275 
L 188.430814 243.115275 
L 188.522973 242.061903 
L 195.890193 242.061903 
L 195.890193 241.535217 
L 197.754318 241.535217 
L 197.754318 241.008531 
L 198.720703 241.008531 
L 198.720703 240.481845 
L 199.553114 240.481845 
L 199.553114 239.955159 
L 199.741823 239.955159 
L 199.741823 239.428473 
L 200.442595 239.428473 
L 200.442595 238.901787 
L 200.565903 238.901787 
L 200.565903 238.375101 
L 201.531719 238.375101 
L 201.531719 237.848415 
L 209.423094 237.848415 
L 209.423094 237.321729 
L 210.105087 237.321729 
L 210.105087 236.795043 
L 210.471728 236.795043 
L 210.471728 236.268356 
L 210.5999 236.268356 
L 210.65166 235.214984 
L 210.941569 235.214984 
L 210.941569 234.688298 
L 211.789257 234.688298 
L 211.789257 234.161612 
L 213.747525 234.161612 
L 213.747525 233.634926 
L 214.297959 233.634926 
L 214.297959 233.10824 
L 220.717499 233.10824 
L 220.717499 232.581554 
L 220.829886 232.581554 
L 220.830487 231.528182 
L 221.067477 231.528182 
L 221.157165 218.887716 
L 221.457277 218.887716 
L 221.457277 218.36103 
L 221.574222 218.36103 
L 221.574222 217.834344 
L 221.881729 217.834344 
L 221.977883 216.780971 
L 222.060781 216.780971 
L 222.060781 216.254285 
L 222.415794 216.254285 
L 222.515874 214.674227 
L 222.530591 214.674227 
L 222.530591 214.147541 
L 222.758481 214.147541 
L 222.758481 213.620855 
L 232.76948 213.620855 
L 232.76948 213.094169 
L 233.486426 213.094169 
L 233.522 212.040797 
L 233.705541 212.040797 
L 233.753201 210.460738 
L 233.838165 210.460738 
L 233.838165 209.934052 
L 234.137081 209.934052 
L 234.137081 208.88068 
L 234.308401 208.88068 
L 234.403194 207.300622 
L 234.46789 207.300622 
L 234.577872 202.560447 
L 234.581899 202.560447 
L 234.610609 196.240214 
L 234.731543 196.240214 
L 234.731543 195.713528 
L 234.866155 195.713528 
L 234.931032 194.13347 
L 235.000201 194.13347 
L 235.10543 188.866609 
L 235.114237 188.866609 
L 235.214833 179.912946 
L 235.29036 179.912946 
L 235.388058 169.379224 
L 235.46842 169.379224 
L 235.556418 157.265444 
L 235.638964 157.265444 
L 235.704683 156.212072 
L 235.751847 156.212072 
L 235.838494 143.04492 
L 236.056036 143.04492 
L 236.151233 130.404454 
L 236.177848 130.404454 
L 236.282788 124.610907 
L 236.293495 124.610907 
L 236.395407 119.344047 
L 236.420485 119.344047 
L 236.529596 118.290674 
L 236.532769 118.290674 
L 236.621157 106.703581 
L 237.002402 106.703581 
L 237.002402 106.176895 
L 237.165243 106.176895 
L 237.165243 105.650209 
L 237.307499 105.650209 
L 237.417481 101.963406 
L 237.420497 101.963406 
L 237.476087 93.536429 
L 237.740764 93.536429 
L 237.848735 90.376312 
L 237.865139 90.376312 
L 237.900496 82.476021 
L 248.875237 82.476021 
L 248.875237 81.949335 
L 249.408063 81.949335 
L 249.504309 80.895963 
L 249.796864 80.895963 
L 249.85919 71.942299 
L 249.955502 71.942299 
L 249.955502 71.415613 
L 250.092081 71.415613 
L 250.105733 70.362241 
L 250.263543 70.362241 
L 250.32442 56.668403 
L 250.594598 56.668403 
L 250.70309 51.401542 
L 250.707855 51.401542 
L 250.733825 44.027937 
L 250.946505 44.027937 
L 250.946505 43.501251 
L 251.196048 43.501251 
L 251.25182 30.334099 
L 338.688 30.334099 
L 338.688 30.334099 
" style="fill:none;stroke:#ff0000;stroke-linecap:square;stroke-width:1.5;"/>
   </g>
   <g id="line2d_54">
    <defs>
     <path d="M 0 -6 
L -5.196152 -3 
L -5.196152 3 
L -0 6 
L 5.196152 3 
L 5.196152 -3 
z
" id="m074b779661" style="stroke:#ff0000;stroke-linejoin:miter;stroke-width:1.5;"/>
    </defs>
    <g>
     <use style="fill-opacity:0;stroke:#ff0000;stroke-linejoin:miter;stroke-width:1.5;" x="156.532685" xlink:href="#m074b779661" y="250.488881"/>
     <use style="fill-opacity:0;stroke:#ff0000;stroke-linejoin:miter;stroke-width:1.5;" x="234.731543" xlink:href="#m074b779661" y="195.713528"/>
     <use style="fill-opacity:0;stroke:#ff0000;stroke-linejoin:miter;stroke-width:1.5;" x="251.25182" xlink:href="#m074b779661" y="30.860785"/>
     <use style="fill-opacity:0;stroke:#ff0000;stroke-linejoin:miter;stroke-width:1.5;" x="251.25182" xlink:href="#m074b779661" y="30.334099"/>
     <use style="fill-opacity:0;stroke:#ff0000;stroke-linejoin:miter;stroke-width:1.5;" x="338.688" xlink:href="#m074b779661" y="30.334099"/>
    </g>
   </g>
   <g id="line2d_55">
    <path style="fill:none;stroke:#ff0000;stroke-linecap:square;stroke-width:1.5;"/>
    <g/>
   </g>
   <g id="line2d_56">
    <path d="M 338.688 235.74167 
L 369.60768 293.571802 
" style="fill:none;stroke:#6495ed;stroke-linecap:square;stroke-width:1.5;"/>
    <g>
     <use style="fill-opacity:0;stroke:#6495ed;stroke-linejoin:miter;stroke-width:1.5;" x="338.688" xlink:href="#m2839844185" y="235.74167"/>
     <use style="fill-opacity:0;stroke:#6495ed;stroke-linejoin:miter;stroke-width:1.5;" x="369.60768" xlink:href="#m2839844185" y="293.571802"/>
    </g>
   </g>
   <g id="line2d_57">
    <path d="M 338.688 227.314693 
L 369.60768 241.998701 
" style="fill:none;stroke:#ff00ff;stroke-linecap:square;stroke-width:1.5;"/>
    <g>
     <use style="fill-opacity:0;stroke:#ff00ff;stroke-linejoin:miter;stroke-width:1.5;" x="338.688" xlink:href="#mf6ff8ebd1c" y="227.314693"/>
     <use style="fill-opacity:0;stroke:#ff00ff;stroke-linejoin:miter;stroke-width:1.5;" x="369.60768" xlink:href="#mf6ff8ebd1c" y="241.998701"/>
    </g>
   </g>
   <g id="line2d_58">
    <path d="M 338.688 30.334099 
L 369.60768 190.4256 
" style="fill:none;stroke:#000080;stroke-linecap:square;stroke-width:1.5;"/>
    <g>
     <use style="fill-opacity:0;stroke:#000080;stroke-width:1.5;" x="338.688" xlink:href="#md86d0d952f" y="30.334099"/>
     <use style="fill-opacity:0;stroke:#000080;stroke-width:1.5;" x="369.60768" xlink:href="#md86d0d952f" y="190.4256"/>
    </g>
   </g>
   <g id="line2d_59">
    <path d="M 338.688 30.334099 
L 369.60768 138.852499 
" style="fill:none;stroke:#ff7500;stroke-linecap:square;stroke-width:1.5;"/>
    <g>
     <use style="fill-opacity:0;stroke:#ff7500;stroke-linejoin:bevel;stroke-width:1.5;" x="338.688" xlink:href="#m1709b8f29f" y="30.334099"/>
     <use style="fill-opacity:0;stroke:#ff7500;stroke-linejoin:bevel;stroke-width:1.5;" x="369.60768" xlink:href="#m1709b8f29f" y="138.852499"/>
    </g>
   </g>
   <g id="line2d_60">
    <path d="M 338.688 30.334099 
L 369.60768 87.279398 
" style="fill:none;stroke:#ff0000;stroke-linecap:square;stroke-width:1.5;"/>
    <g>
     <use style="fill-opacity:0;stroke:#ff0000;stroke-linejoin:miter;stroke-width:1.5;" x="338.688" xlink:href="#m074b779661" y="30.334099"/>
     <use style="fill-opacity:0;stroke:#ff0000;stroke-linejoin:miter;stroke-width:1.5;" x="369.60768" xlink:href="#m074b779661" y="87.279398"/>
    </g>
   </g>
   <g id="line2d_61">
    <path d="M 338.688 298.944 
L 338.688 30.334099 
" style="fill:none;stroke:#000000;stroke-linecap:square;stroke-width:1.5;"/>
   </g>
   <g id="patch_3">
    <path d="M 57.6 298.944 
L 57.6 27.648 
" style="fill:none;stroke:#000000;stroke-linecap:square;stroke-linejoin:miter;stroke-width:0.8;"/>
   </g>
   <g id="patch_4">
    <path d="M 338.688 298.944 
L 338.688 27.648 
" style="fill:none;stroke:#000000;stroke-linecap:square;stroke-linejoin:miter;stroke-width:0.8;"/>
   </g>
   <g id="patch_5">
    <path d="M 57.6 298.944 
L 338.688 298.944 
" style="fill:none;stroke:#000000;stroke-linecap:square;stroke-linejoin:miter;stroke-width:0.8;"/>
   </g>
   <g id="patch_6">
    <path d="M 57.6 27.648 
L 338.688 27.648 
" style="fill:none;stroke:#000000;stroke-linecap:square;stroke-linejoin:miter;stroke-width:0.8;"/>
   </g>
   <g id="text_13">
    <!-- SLSQP-11- -->
    <g transform="translate(375.22944 298.262739)scale(0.17 -0.17)">
     <defs>
      <path d="M 3425 4513 
L 3425 3897 
Q 3066 4069 2747 4153 
Q 2428 4238 2131 4238 
Q 1616 4238 1336 4038 
Q 1056 3838 1056 3469 
Q 1056 3159 1242 3001 
Q 1428 2844 1947 2747 
L 2328 2669 
Q 3034 2534 3370 2195 
Q 3706 1856 3706 1288 
Q 3706 609 3251 259 
Q 2797 -91 1919 -91 
Q 1588 -91 1214 -16 
Q 841 59 441 206 
L 441 856 
Q 825 641 1194 531 
Q 1563 422 1919 422 
Q 2459 422 2753 634 
Q 3047 847 3047 1241 
Q 3047 1584 2836 1778 
Q 2625 1972 2144 2069 
L 1759 2144 
Q 1053 2284 737 2584 
Q 422 2884 422 3419 
Q 422 4038 858 4394 
Q 1294 4750 2059 4750 
Q 2388 4750 2728 4690 
Q 3069 4631 3425 4513 
z
" id="DejaVuSans-53" transform="scale(0.015625)"/>
      <path d="M 628 4666 
L 1259 4666 
L 1259 531 
L 3531 531 
L 3531 0 
L 628 0 
L 628 4666 
z
" id="DejaVuSans-4c" transform="scale(0.015625)"/>
      <path d="M 2522 4238 
Q 1834 4238 1429 3725 
Q 1025 3213 1025 2328 
Q 1025 1447 1429 934 
Q 1834 422 2522 422 
Q 3209 422 3611 934 
Q 4013 1447 4013 2328 
Q 4013 3213 3611 3725 
Q 3209 4238 2522 4238 
z
M 3406 84 
L 4238 -825 
L 3475 -825 
L 2784 -78 
Q 2681 -84 2626 -87 
Q 2572 -91 2522 -91 
Q 1538 -91 948 567 
Q 359 1225 359 2328 
Q 359 3434 948 4092 
Q 1538 4750 2522 4750 
Q 3503 4750 4090 4092 
Q 4678 3434 4678 2328 
Q 4678 1516 4351 937 
Q 4025 359 3406 84 
z
" id="DejaVuSans-51" transform="scale(0.015625)"/>
      <path d="M 1259 4147 
L 1259 2394 
L 2053 2394 
Q 2494 2394 2734 2622 
Q 2975 2850 2975 3272 
Q 2975 3691 2734 3919 
Q 2494 4147 2053 4147 
L 1259 4147 
z
M 628 4666 
L 2053 4666 
Q 2838 4666 3239 4311 
Q 3641 3956 3641 3272 
Q 3641 2581 3239 2228 
Q 2838 1875 2053 1875 
L 1259 1875 
L 1259 0 
L 628 0 
L 628 4666 
z
" id="DejaVuSans-50" transform="scale(0.015625)"/>
     </defs>
     <use xlink:href="#DejaVuSans-53"/>
     <use x="63.476562" xlink:href="#DejaVuSans-4c"/>
     <use x="119.189453" xlink:href="#DejaVuSans-53"/>
     <use x="182.666016" xlink:href="#DejaVuSans-51"/>
     <use x="261.376953" xlink:href="#DejaVuSans-50"/>
     <use x="319.429688" xlink:href="#DejaVuSans-2d"/>
     <use x="355.513672" xlink:href="#DejaVuSans-31"/>
     <use x="419.136719" xlink:href="#DejaVuSans-31"/>
     <use x="482.759766" xlink:href="#DejaVuSans-2d"/>
    </g>
   </g>
   <g id="text_14">
    <!-- HE-ES Gla -->
    <g transform="translate(375.22944 246.689638)scale(0.17 -0.17)">
     <defs>
      <path d="M 628 4666 
L 1259 4666 
L 1259 2753 
L 3553 2753 
L 3553 4666 
L 4184 4666 
L 4184 0 
L 3553 0 
L 3553 2222 
L 1259 2222 
L 1259 0 
L 628 0 
L 628 4666 
z
" id="DejaVuSans-48" transform="scale(0.015625)"/>
      <path d="M 628 4666 
L 3578 4666 
L 3578 4134 
L 1259 4134 
L 1259 2753 
L 3481 2753 
L 3481 2222 
L 1259 2222 
L 1259 531 
L 3634 531 
L 3634 0 
L 628 0 
L 628 4666 
z
" id="DejaVuSans-45" transform="scale(0.015625)"/>
      <path d="M 3809 666 
L 3809 1919 
L 2778 1919 
L 2778 2438 
L 4434 2438 
L 4434 434 
Q 4069 175 3628 42 
Q 3188 -91 2688 -91 
Q 1594 -91 976 548 
Q 359 1188 359 2328 
Q 359 3472 976 4111 
Q 1594 4750 2688 4750 
Q 3144 4750 3555 4637 
Q 3966 4525 4313 4306 
L 4313 3634 
Q 3963 3931 3569 4081 
Q 3175 4231 2741 4231 
Q 1884 4231 1454 3753 
Q 1025 3275 1025 2328 
Q 1025 1384 1454 906 
Q 1884 428 2741 428 
Q 3075 428 3337 486 
Q 3600 544 3809 666 
z
" id="DejaVuSans-47" transform="scale(0.015625)"/>
     </defs>
     <use xlink:href="#DejaVuSans-48"/>
     <use x="75.195312" xlink:href="#DejaVuSans-45"/>
     <use x="138.378906" xlink:href="#DejaVuSans-2d"/>
     <use x="174.462891" xlink:href="#DejaVuSans-45"/>
     <use x="237.646484" xlink:href="#DejaVuSans-53"/>
     <use x="301.123047" xlink:href="#DejaVuSans-20"/>
     <use x="332.910156" xlink:href="#DejaVuSans-47"/>
     <use x="410.400391" xlink:href="#DejaVuSans-6c"/>
     <use x="438.183594" xlink:href="#DejaVuSans-61"/>
    </g>
   </g>
   <g id="text_15">
    <!-- CMA-ES-20 -->
    <g transform="translate(375.22944 195.116537)scale(0.17 -0.17)">
     <defs>
      <path d="M 4122 4306 
L 4122 3641 
Q 3803 3938 3442 4084 
Q 3081 4231 2675 4231 
Q 1875 4231 1450 3742 
Q 1025 3253 1025 2328 
Q 1025 1406 1450 917 
Q 1875 428 2675 428 
Q 3081 428 3442 575 
Q 3803 722 4122 1019 
L 4122 359 
Q 3791 134 3420 21 
Q 3050 -91 2638 -91 
Q 1578 -91 968 557 
Q 359 1206 359 2328 
Q 359 3453 968 4101 
Q 1578 4750 2638 4750 
Q 3056 4750 3426 4639 
Q 3797 4528 4122 4306 
z
" id="DejaVuSans-43" transform="scale(0.015625)"/>
      <path d="M 628 4666 
L 1569 4666 
L 2759 1491 
L 3956 4666 
L 4897 4666 
L 4897 0 
L 4281 0 
L 4281 4097 
L 3078 897 
L 2444 897 
L 1241 4097 
L 1241 0 
L 628 0 
L 628 4666 
z
" id="DejaVuSans-4d" transform="scale(0.015625)"/>
      <path d="M 2188 4044 
L 1331 1722 
L 3047 1722 
L 2188 4044 
z
M 1831 4666 
L 2547 4666 
L 4325 0 
L 3669 0 
L 3244 1197 
L 1141 1197 
L 716 0 
L 50 0 
L 1831 4666 
z
" id="DejaVuSans-41" transform="scale(0.015625)"/>
     </defs>
     <use xlink:href="#DejaVuSans-43"/>
     <use x="69.824219" xlink:href="#DejaVuSans-4d"/>
     <use x="156.103516" xlink:href="#DejaVuSans-41"/>
     <use x="222.261719" xlink:href="#DejaVuSans-2d"/>
     <use x="258.345703" xlink:href="#DejaVuSans-45"/>
     <use x="321.529297" xlink:href="#DejaVuSans-53"/>
     <use x="385.005859" xlink:href="#DejaVuSans-2d"/>
     <use x="421.089844" xlink:href="#DejaVuSans-32"/>
     <use x="484.712891" xlink:href="#DejaVuSans-30"/>
    </g>
   </g>
   <g id="text_16">
    <!-- SLSQP+lq- -->
    <g transform="translate(375.22944 143.543437)scale(0.17 -0.17)">
     <defs>
      <path d="M 2944 4013 
L 2944 2272 
L 4684 2272 
L 4684 1741 
L 2944 1741 
L 2944 0 
L 2419 0 
L 2419 1741 
L 678 1741 
L 678 2272 
L 2419 2272 
L 2419 4013 
L 2944 4013 
z
" id="DejaVuSans-2b" transform="scale(0.015625)"/>
      <path d="M 947 1747 
Q 947 1113 1208 752 
Q 1469 391 1925 391 
Q 2381 391 2643 752 
Q 2906 1113 2906 1747 
Q 2906 2381 2643 2742 
Q 2381 3103 1925 3103 
Q 1469 3103 1208 2742 
Q 947 2381 947 1747 
z
M 2906 525 
Q 2725 213 2448 61 
Q 2172 -91 1784 -91 
Q 1150 -91 751 415 
Q 353 922 353 1747 
Q 353 2572 751 3078 
Q 1150 3584 1784 3584 
Q 2172 3584 2448 3432 
Q 2725 3281 2906 2969 
L 2906 3500 
L 3481 3500 
L 3481 -1331 
L 2906 -1331 
L 2906 525 
z
" id="DejaVuSans-71" transform="scale(0.015625)"/>
     </defs>
     <use xlink:href="#DejaVuSans-53"/>
     <use x="63.476562" xlink:href="#DejaVuSans-4c"/>
     <use x="119.189453" xlink:href="#DejaVuSans-53"/>
     <use x="182.666016" xlink:href="#DejaVuSans-51"/>
     <use x="261.376953" xlink:href="#DejaVuSans-50"/>
     <use x="321.679688" xlink:href="#DejaVuSans-2b"/>
     <use x="405.46875" xlink:href="#DejaVuSans-6c"/>
     <use x="433.251953" xlink:href="#DejaVuSans-71"/>
     <use x="496.728516" xlink:href="#DejaVuSans-2d"/>
    </g>
   </g>
   <g id="text_17">
    <!-- lq-CMA-ES -->
    <g transform="translate(375.22944 91.970336)scale(0.17 -0.17)">
     <use xlink:href="#DejaVuSans-6c"/>
     <use x="27.783203" xlink:href="#DejaVuSans-71"/>
     <use x="91.259766" xlink:href="#DejaVuSans-2d"/>
     <use x="127.34375" xlink:href="#DejaVuSans-43"/>
     <use x="197.167969" xlink:href="#DejaVuSans-4d"/>
     <use x="283.447266" xlink:href="#DejaVuSans-41"/>
     <use x="349.605469" xlink:href="#DejaVuSans-2d"/>
     <use x="385.689453" xlink:href="#DejaVuSans-45"/>
     <use x="448.873047" xlink:href="#DejaVuSans-53"/>
    </g>
   </g>
   <g id="text_18">
    <!-- best 2009 -->
    <g transform="translate(375.22944 40.397235)scale(0.17 -0.17)">
     <defs>
      <path d="M 3116 1747 
Q 3116 2381 2855 2742 
Q 2594 3103 2138 3103 
Q 1681 3103 1420 2742 
Q 1159 2381 1159 1747 
Q 1159 1113 1420 752 
Q 1681 391 2138 391 
Q 2594 391 2855 752 
Q 3116 1113 3116 1747 
z
M 1159 2969 
Q 1341 3281 1617 3432 
Q 1894 3584 2278 3584 
Q 2916 3584 3314 3078 
Q 3713 2572 3713 1747 
Q 3713 922 3314 415 
Q 2916 -91 2278 -91 
Q 1894 -91 1617 61 
Q 1341 213 1159 525 
L 1159 0 
L 581 0 
L 581 4863 
L 1159 4863 
L 1159 2969 
z
" id="DejaVuSans-62" transform="scale(0.015625)"/>
      <path d="M 703 97 
L 703 672 
Q 941 559 1184 500 
Q 1428 441 1663 441 
Q 2288 441 2617 861 
Q 2947 1281 2994 2138 
Q 2813 1869 2534 1725 
Q 2256 1581 1919 1581 
Q 1219 1581 811 2004 
Q 403 2428 403 3163 
Q 403 3881 828 4315 
Q 1253 4750 1959 4750 
Q 2769 4750 3195 4129 
Q 3622 3509 3622 2328 
Q 3622 1225 3098 567 
Q 2575 -91 1691 -91 
Q 1453 -91 1209 -44 
Q 966 3 703 97 
z
M 1959 2075 
Q 2384 2075 2632 2365 
Q 2881 2656 2881 3163 
Q 2881 3666 2632 3958 
Q 2384 4250 1959 4250 
Q 1534 4250 1286 3958 
Q 1038 3666 1038 3163 
Q 1038 2656 1286 2365 
Q 1534 2075 1959 2075 
z
" id="DejaVuSans-39" transform="scale(0.015625)"/>
     </defs>
     <use xlink:href="#DejaVuSans-62"/>
     <use x="63.476562" xlink:href="#DejaVuSans-65"/>
     <use x="125" xlink:href="#DejaVuSans-73"/>
     <use x="177.099609" xlink:href="#DejaVuSans-74"/>
     <use x="216.308594" xlink:href="#DejaVuSans-20"/>
     <use x="248.095703" xlink:href="#DejaVuSans-32"/>
     <use x="311.71875" xlink:href="#DejaVuSans-30"/>
     <use x="375.341797" xlink:href="#DejaVuSans-30"/>
     <use x="438.964844" xlink:href="#DejaVuSans-39"/>
    </g>
   </g>
   <g id="text_19">
    <!-- bbob f20, 10-D -->
    <g transform="translate(60.41088 38.111366)scale(0.102 -0.102)">
     <defs>
      <path d="M 1259 4147 
L 1259 519 
L 2022 519 
Q 2988 519 3436 956 
Q 3884 1394 3884 2338 
Q 3884 3275 3436 3711 
Q 2988 4147 2022 4147 
L 1259 4147 
z
M 628 4666 
L 1925 4666 
Q 3281 4666 3915 4102 
Q 4550 3538 4550 2338 
Q 4550 1131 3912 565 
Q 3275 0 1925 0 
L 628 0 
L 628 4666 
z
" id="DejaVuSans-44" transform="scale(0.015625)"/>
     </defs>
     <use xlink:href="#DejaVuSans-62"/>
     <use x="63.476562" xlink:href="#DejaVuSans-62"/>
     <use x="126.953125" xlink:href="#DejaVuSans-6f"/>
     <use x="188.134766" xlink:href="#DejaVuSans-62"/>
     <use x="251.611328" xlink:href="#DejaVuSans-20"/>
     <use x="283.398438" xlink:href="#DejaVuSans-66"/>
     <use x="318.603516" xlink:href="#DejaVuSans-32"/>
     <use x="382.226562" xlink:href="#DejaVuSans-30"/>
     <use x="445.849609" xlink:href="#DejaVuSans-2c"/>
     <use x="477.636719" xlink:href="#DejaVuSans-20"/>
     <use x="509.423828" xlink:href="#DejaVuSans-31"/>
     <use x="573.046875" xlink:href="#DejaVuSans-30"/>
     <use x="636.669922" xlink:href="#DejaVuSans-2d"/>
     <use x="672.753906" xlink:href="#DejaVuSans-44"/>
    </g>
    <!-- 51 targets: 100..1e-08 -->
    <g transform="translate(60.41088 49.533135)scale(0.102 -0.102)">
     <defs>
      <path d="M 691 4666 
L 3169 4666 
L 3169 4134 
L 1269 4134 
L 1269 2991 
Q 1406 3038 1543 3061 
Q 1681 3084 1819 3084 
Q 2600 3084 3056 2656 
Q 3513 2228 3513 1497 
Q 3513 744 3044 326 
Q 2575 -91 1722 -91 
Q 1428 -91 1123 -41 
Q 819 9 494 109 
L 494 744 
Q 775 591 1075 516 
Q 1375 441 1709 441 
Q 2250 441 2565 725 
Q 2881 1009 2881 1497 
Q 2881 1984 2565 2268 
Q 2250 2553 1709 2553 
Q 1456 2553 1204 2497 
Q 953 2441 691 2322 
L 691 4666 
z
" id="DejaVuSans-35" transform="scale(0.015625)"/>
      <path d="M 750 794 
L 1409 794 
L 1409 0 
L 750 0 
L 750 794 
z
M 750 3309 
L 1409 3309 
L 1409 2516 
L 750 2516 
L 750 3309 
z
" id="DejaVuSans-3a" transform="scale(0.015625)"/>
     </defs>
     <use xlink:href="#DejaVuSans-35"/>
     <use x="63.623047" xlink:href="#DejaVuSans-31"/>
     <use x="127.246094" xlink:href="#DejaVuSans-20"/>
     <use x="159.033203" xlink:href="#DejaVuSans-74"/>
     <use x="198.242188" xlink:href="#DejaVuSans-61"/>
     <use x="259.521484" xlink:href="#DejaVuSans-72"/>
     <use x="298.884766" xlink:href="#DejaVuSans-67"/>
     <use x="362.361328" xlink:href="#DejaVuSans-65"/>
     <use x="423.884766" xlink:href="#DejaVuSans-74"/>
     <use x="463.09375" xlink:href="#DejaVuSans-73"/>
     <use x="515.193359" xlink:href="#DejaVuSans-3a"/>
     <use x="548.884766" xlink:href="#DejaVuSans-20"/>
     <use x="580.671875" xlink:href="#DejaVuSans-31"/>
     <use x="644.294922" xlink:href="#DejaVuSans-30"/>
     <use x="707.917969" xlink:href="#DejaVuSans-30"/>
     <use x="771.541016" xlink:href="#DejaVuSans-2e"/>
     <use x="803.328125" xlink:href="#DejaVuSans-2e"/>
     <use x="835.115234" xlink:href="#DejaVuSans-31"/>
     <use x="898.738281" xlink:href="#DejaVuSans-65"/>
     <use x="960.261719" xlink:href="#DejaVuSans-2d"/>
     <use x="996.345703" xlink:href="#DejaVuSans-30"/>
     <use x="1059.96875" xlink:href="#DejaVuSans-38"/>
    </g>
    <!-- 15 instances -->
    <g transform="translate(60.41088 60.954904)scale(0.102 -0.102)">
     <use xlink:href="#DejaVuSans-31"/>
     <use x="63.623047" xlink:href="#DejaVuSans-35"/>
     <use x="127.246094" xlink:href="#DejaVuSans-20"/>
     <use x="159.033203" xlink:href="#DejaVuSans-69"/>
     <use x="186.816406" xlink:href="#DejaVuSans-6e"/>
     <use x="250.195312" xlink:href="#DejaVuSans-73"/>
     <use x="302.294922" xlink:href="#DejaVuSans-74"/>
     <use x="341.503906" xlink:href="#DejaVuSans-61"/>
     <use x="402.783203" xlink:href="#DejaVuSans-6e"/>
     <use x="466.162109" xlink:href="#DejaVuSans-63"/>
     <use x="521.142578" xlink:href="#DejaVuSans-65"/>
     <use x="582.666016" xlink:href="#DejaVuSans-73"/>
    </g>
   </g>
   <g id="text_20">
    <!-- v2.4.1.1 -->
    <g style="fill:#808080;" transform="translate(177.692437 294.151352)scale(0.1 -0.1)">
     <use xlink:href="#DejaVuSans-76"/>
     <use x="59.179688" xlink:href="#DejaVuSans-32"/>
     <use x="122.802734" xlink:href="#DejaVuSans-2e"/>
     <use x="154.589844" xlink:href="#DejaVuSans-34"/>
     <use x="218.212891" xlink:href="#DejaVuSans-2e"/>
     <use x="250" xlink:href="#DejaVuSans-31"/>
     <use x="313.623047" xlink:href="#DejaVuSans-2e"/>
     <use x="345.410156" xlink:href="#DejaVuSans-31"/>
    </g>
   </g>
   <g id="text_21">
    <!-- 20 Schwefel x*sin(x) -->
    <g transform="translate(95.129937 21.648)scale(0.2 -0.2)">
     <defs>
      <path d="M 3513 2113 
L 3513 0 
L 2938 0 
L 2938 2094 
Q 2938 2591 2744 2837 
Q 2550 3084 2163 3084 
Q 1697 3084 1428 2787 
Q 1159 2491 1159 1978 
L 1159 0 
L 581 0 
L 581 4863 
L 1159 4863 
L 1159 2956 
Q 1366 3272 1645 3428 
Q 1925 3584 2291 3584 
Q 2894 3584 3203 3211 
Q 3513 2838 3513 2113 
z
" id="DejaVuSans-68" transform="scale(0.015625)"/>
      <path d="M 269 3500 
L 844 3500 
L 1563 769 
L 2278 3500 
L 2956 3500 
L 3675 769 
L 4391 3500 
L 4966 3500 
L 4050 0 
L 3372 0 
L 2619 2869 
L 1863 0 
L 1184 0 
L 269 3500 
z
" id="DejaVuSans-77" transform="scale(0.015625)"/>
      <path d="M 3513 3500 
L 2247 1797 
L 3578 0 
L 2900 0 
L 1881 1375 
L 863 0 
L 184 0 
L 1544 1831 
L 300 3500 
L 978 3500 
L 1906 2253 
L 2834 3500 
L 3513 3500 
z
" id="DejaVuSans-78" transform="scale(0.015625)"/>
      <path d="M 3009 3897 
L 1888 3291 
L 3009 2681 
L 2828 2375 
L 1778 3009 
L 1778 1831 
L 1422 1831 
L 1422 3009 
L 372 2375 
L 191 2681 
L 1313 3291 
L 191 3897 
L 372 4206 
L 1422 3572 
L 1422 4750 
L 1778 4750 
L 1778 3572 
L 2828 4206 
L 3009 3897 
z
" id="DejaVuSans-2a" transform="scale(0.015625)"/>
     </defs>
     <use xlink:href="#DejaVuSans-32"/>
     <use x="63.623047" xlink:href="#DejaVuSans-30"/>
     <use x="127.246094" xlink:href="#DejaVuSans-20"/>
     <use x="159.033203" xlink:href="#DejaVuSans-53"/>
     <use x="222.509766" xlink:href="#DejaVuSans-63"/>
     <use x="277.490234" xlink:href="#DejaVuSans-68"/>
     <use x="340.869141" xlink:href="#DejaVuSans-77"/>
     <use x="422.65625" xlink:href="#DejaVuSans-65"/>
     <use x="484.179688" xlink:href="#DejaVuSans-66"/>
     <use x="519.384766" xlink:href="#DejaVuSans-65"/>
     <use x="580.908203" xlink:href="#DejaVuSans-6c"/>
     <use x="608.691406" xlink:href="#DejaVuSans-20"/>
     <use x="640.478516" xlink:href="#DejaVuSans-78"/>
     <use x="699.658203" xlink:href="#DejaVuSans-2a"/>
     <use x="749.658203" xlink:href="#DejaVuSans-73"/>
     <use x="801.757812" xlink:href="#DejaVuSans-69"/>
     <use x="829.541016" xlink:href="#DejaVuSans-6e"/>
     <use x="892.919922" xlink:href="#DejaVuSans-28"/>
     <use x="931.933594" xlink:href="#DejaVuSans-78"/>
     <use x="991.113281" xlink:href="#DejaVuSans-29"/>
    </g>
   </g>
  </g>
 </g>
 <defs>
  <clipPath id="p3584e9fa8a">
   <rect height="271.296" width="281.088" x="57.6" y="27.648"/>
  </clipPath>
 </defs>
</svg>
