<?xml version="1.0" encoding="utf-8" standalone="no"?>
<!DOCTYPE svg PUBLIC "-//W3C//DTD SVG 1.1//EN"
  "http://www.w3.org/Graphics/SVG/1.1/DTD/svg11.dtd">
<svg height="345.6pt" version="1.1" viewBox="0 0 460.8 345.6" width="460.8pt" xmlns="http://www.w3.org/2000/svg" xmlns:xlink="http://www.w3.org/1999/xlink">
 <metadata>
  <rdf:RDF xmlns:cc="http://creativecommons.org/ns#" xmlns:dc="http://purl.org/dc/elements/1.1/" xmlns:rdf="http://www.w3.org/1999/02/22-rdf-syntax-ns#">
   <cc:Work>
    <dc:type rdf:resource="http://purl.org/dc/dcmitype/StillImage"/>
    <dc:date>2022-03-29T11:28:22.483387</dc:date>
    <dc:format>image/svg+xml</dc:format>
    <dc:creator>
     <cc:Agent>
      <dc:title>Matplotlib v3.4.3, https://matplotlib.org/</dc:title>
     </cc:Agent>
    </dc:creator>
   </cc:Work>
  </rdf:RDF>
 </metadata>
 <defs>
  <style type="text/css">*{stroke-linecap:butt;stroke-linejoin:round;}</style>
 </defs>
 <g id="figure_1">
  <g id="patch_1">
   <path d="M 0 345.6 
L 460.8 345.6 
L 460.8 0 
L 0 0 
z
" style="fill:#ffffff;"/>
  </g>
  <g id="axes_1">
   <g id="patch_2">
    <path d="M 57.6 298.944 
L 338.688 298.944 
L 338.688 27.648 
L 57.6 27.648 
z
" style="fill:#ffffff;"/>
   </g>
   <g id="line2d_1">
    <path d="M 45.512012 298.944 
L 45.512012 283.143418 
L 57.6 283.143418 
L 57.6 277.876557 
L 64.67102 277.876557 
L 64.67102 272.609696 
L 73.579452 272.609696 
L 73.579452 267.342835 
L 83.830028 267.342835 
L 83.830028 262.075974 
L 90.242884 262.075974 
L 90.242884 256.809114 
L 95.918017 256.809114 
L 95.918017 251.542253 
L 101.646892 251.542253 
L 101.646892 246.275392 
L 102.989037 246.275392 
L 102.989037 241.008531 
L 109.843417 241.008531 
L 109.843417 230.47481 
L 120.571812 230.47481 
L 120.571812 219.941088 
L 134.870259 219.941088 
L 134.870259 214.674227 
L 137.107884 214.674227 
L 137.107884 209.407366 
L 138.256201 209.407366 
L 138.256201 204.140506 
L 138.594838 204.140506 
L 138.594838 198.873645 
L 138.927025 198.873645 
L 138.927025 193.606784 
L 139.413734 193.606784 
L 139.413734 188.339923 
L 139.572998 188.339923 
L 139.572998 183.073062 
L 139.8092 183.073062 
L 139.8092 177.806202 
L 141.090414 177.806202 
L 141.090414 172.539341 
L 141.378673 172.539341 
L 141.378673 167.27248 
L 141.732423 167.27248 
L 141.732423 162.005619 
L 142.686372 162.005619 
L 142.686372 156.738758 
L 142.884173 156.738758 
L 142.884173 151.471897 
L 143.208936 151.471897 
L 143.208936 146.205037 
L 143.716296 146.205037 
L 143.716296 140.938176 
L 143.964547 140.938176 
L 143.964547 135.671315 
L 144.087359 135.671315 
L 144.087359 130.404454 
L 144.148442 130.404454 
L 144.148442 125.137593 
L 144.209312 125.137593 
L 144.209312 119.870733 
L 144.269971 119.870733 
L 144.269971 114.603872 
L 144.330419 114.603872 
L 144.330419 109.337011 
L 144.390658 109.337011 
L 144.390658 104.07015 
L 144.45069 104.07015 
L 144.45069 98.803289 
L 144.570138 98.803289 
L 144.570138 93.536429 
L 144.629556 93.536429 
L 144.629556 88.269568 
L 144.747789 88.269568 
L 144.747789 83.002707 
L 144.865226 83.002707 
L 144.865226 77.735846 
L 144.981877 77.735846 
L 144.981877 72.468985 
L 145.039911 72.468985 
L 145.039911 67.202125 
L 145.270136 67.202125 
L 145.270136 61.935264 
L 145.327221 61.935264 
L 145.327221 51.401542 
L 146.216039 51.401542 
L 146.216039 35.60096 
L 146.270114 35.60096 
L 146.270114 30.334099 
L 338.688 30.334099 
" style="fill:none;stroke:#f5deb3;stroke-linecap:square;stroke-width:4;"/>
   </g>
   <g id="line2d_2">
    <defs>
     <path d="M 0 7.778175 
L 7.778175 0 
L 0 -7.778175 
L -7.778175 0 
z
" id="mb6098b9047" style="stroke:#f5deb3;stroke-linejoin:miter;stroke-width:1.5;"/>
    </defs>
    <g>
     <use style="fill:#f5deb3;stroke:#f5deb3;stroke-linejoin:miter;stroke-width:1.5;" x="90.242884" xlink:href="#mb6098b9047" y="262.075974"/>
     <use style="fill:#f5deb3;stroke:#f5deb3;stroke-linejoin:miter;stroke-width:1.5;" x="139.413734" xlink:href="#mb6098b9047" y="188.339923"/>
     <use style="fill:#f5deb3;stroke:#f5deb3;stroke-linejoin:miter;stroke-width:1.5;" x="145.039911" xlink:href="#mb6098b9047" y="72.468985"/>
     <use style="fill:#f5deb3;stroke:#f5deb3;stroke-linejoin:miter;stroke-width:1.5;" x="146.270114" xlink:href="#mb6098b9047" y="35.60096"/>
     <use style="fill:#f5deb3;stroke:#f5deb3;stroke-linejoin:miter;stroke-width:1.5;" x="146.270114" xlink:href="#mb6098b9047" y="30.334099"/>
     <use style="fill:#f5deb3;stroke:#f5deb3;stroke-linejoin:miter;stroke-width:1.5;" x="338.688" xlink:href="#mb6098b9047" y="30.334099"/>
    </g>
   </g>
   <g id="line2d_3">
    <path style="fill:none;stroke:#f5deb3;stroke-linecap:square;stroke-width:4;"/>
    <g/>
   </g>
   <g id="line2d_4">
    <path d="M 338.688 30.334099 
L 369.60768 35.706297 
" style="fill:none;stroke:#f5deb3;stroke-linecap:square;stroke-width:4;"/>
    <g>
     <use style="fill:#f5deb3;stroke:#f5deb3;stroke-linejoin:miter;stroke-width:1.5;" x="338.688" xlink:href="#mb6098b9047" y="30.334099"/>
     <use style="fill:#f5deb3;stroke:#f5deb3;stroke-linejoin:miter;stroke-width:1.5;" x="369.60768" xlink:href="#mb6098b9047" y="35.706297"/>
    </g>
   </g>
   <g id="matplotlib.axis_1">
    <g id="xtick_1">
     <g id="line2d_5">
      <path clip-path="url(#p2ca6fecd97)" d="M 57.6 298.944 
L 57.6 27.648 
" style="fill:none;stroke:#b0b0b0;stroke-linecap:square;stroke-width:0.8;"/>
     </g>
     <g id="line2d_6">
      <defs>
       <path d="M 0 0 
L 0 3.5 
" id="m0f4bc295ed" style="stroke:#000000;stroke-width:0.8;"/>
      </defs>
      <g>
       <use style="stroke:#000000;stroke-width:0.8;" x="57.6" xlink:href="#m0f4bc295ed" y="298.944"/>
      </g>
     </g>
     <g id="text_1">
      <!-- 0 -->
      <g transform="translate(51.2375 321.140875)scale(0.2 -0.2)">
       <defs>
        <path d="M 2034 4250 
Q 1547 4250 1301 3770 
Q 1056 3291 1056 2328 
Q 1056 1369 1301 889 
Q 1547 409 2034 409 
Q 2525 409 2770 889 
Q 3016 1369 3016 2328 
Q 3016 3291 2770 3770 
Q 2525 4250 2034 4250 
z
M 2034 4750 
Q 2819 4750 3233 4129 
Q 3647 3509 3647 2328 
Q 3647 1150 3233 529 
Q 2819 -91 2034 -91 
Q 1250 -91 836 529 
Q 422 1150 422 2328 
Q 422 3509 836 4129 
Q 1250 4750 2034 4750 
z
" id="DejaVuSans-30" transform="scale(0.015625)"/>
       </defs>
       <use xlink:href="#DejaVuSans-30"/>
      </g>
     </g>
    </g>
    <g id="xtick_2">
     <g id="line2d_7">
      <path clip-path="url(#p2ca6fecd97)" d="M 137.910857 298.944 
L 137.910857 27.648 
" style="fill:none;stroke:#b0b0b0;stroke-linecap:square;stroke-width:0.8;"/>
     </g>
     <g id="line2d_8">
      <g>
       <use style="stroke:#000000;stroke-width:0.8;" x="137.910857" xlink:href="#m0f4bc295ed" y="298.944"/>
      </g>
     </g>
     <g id="text_2">
      <!-- 2 -->
      <g transform="translate(131.548357 321.140875)scale(0.2 -0.2)">
       <defs>
        <path d="M 1228 531 
L 3431 531 
L 3431 0 
L 469 0 
L 469 531 
Q 828 903 1448 1529 
Q 2069 2156 2228 2338 
Q 2531 2678 2651 2914 
Q 2772 3150 2772 3378 
Q 2772 3750 2511 3984 
Q 2250 4219 1831 4219 
Q 1534 4219 1204 4116 
Q 875 4013 500 3803 
L 500 4441 
Q 881 4594 1212 4672 
Q 1544 4750 1819 4750 
Q 2544 4750 2975 4387 
Q 3406 4025 3406 3419 
Q 3406 3131 3298 2873 
Q 3191 2616 2906 2266 
Q 2828 2175 2409 1742 
Q 1991 1309 1228 531 
z
" id="DejaVuSans-32" transform="scale(0.015625)"/>
       </defs>
       <use xlink:href="#DejaVuSans-32"/>
      </g>
     </g>
    </g>
    <g id="xtick_3">
     <g id="line2d_9">
      <path clip-path="url(#p2ca6fecd97)" d="M 218.221714 298.944 
L 218.221714 27.648 
" style="fill:none;stroke:#b0b0b0;stroke-linecap:square;stroke-width:0.8;"/>
     </g>
     <g id="line2d_10">
      <g>
       <use style="stroke:#000000;stroke-width:0.8;" x="218.221714" xlink:href="#m0f4bc295ed" y="298.944"/>
      </g>
     </g>
     <g id="text_3">
      <!-- 4 -->
      <g transform="translate(211.859214 321.140875)scale(0.2 -0.2)">
       <defs>
        <path d="M 2419 4116 
L 825 1625 
L 2419 1625 
L 2419 4116 
z
M 2253 4666 
L 3047 4666 
L 3047 1625 
L 3713 1625 
L 3713 1100 
L 3047 1100 
L 3047 0 
L 2419 0 
L 2419 1100 
L 313 1100 
L 313 1709 
L 2253 4666 
z
" id="DejaVuSans-34" transform="scale(0.015625)"/>
       </defs>
       <use xlink:href="#DejaVuSans-34"/>
      </g>
     </g>
    </g>
    <g id="xtick_4">
     <g id="line2d_11">
      <path clip-path="url(#p2ca6fecd97)" d="M 298.532571 298.944 
L 298.532571 27.648 
" style="fill:none;stroke:#b0b0b0;stroke-linecap:square;stroke-width:0.8;"/>
     </g>
     <g id="line2d_12">
      <g>
       <use style="stroke:#000000;stroke-width:0.8;" x="298.532571" xlink:href="#m0f4bc295ed" y="298.944"/>
      </g>
     </g>
     <g id="text_4">
      <!-- 6 -->
      <g transform="translate(292.170071 321.140875)scale(0.2 -0.2)">
       <defs>
        <path d="M 2113 2584 
Q 1688 2584 1439 2293 
Q 1191 2003 1191 1497 
Q 1191 994 1439 701 
Q 1688 409 2113 409 
Q 2538 409 2786 701 
Q 3034 994 3034 1497 
Q 3034 2003 2786 2293 
Q 2538 2584 2113 2584 
z
M 3366 4563 
L 3366 3988 
Q 3128 4100 2886 4159 
Q 2644 4219 2406 4219 
Q 1781 4219 1451 3797 
Q 1122 3375 1075 2522 
Q 1259 2794 1537 2939 
Q 1816 3084 2150 3084 
Q 2853 3084 3261 2657 
Q 3669 2231 3669 1497 
Q 3669 778 3244 343 
Q 2819 -91 2113 -91 
Q 1303 -91 875 529 
Q 447 1150 447 2328 
Q 447 3434 972 4092 
Q 1497 4750 2381 4750 
Q 2619 4750 2861 4703 
Q 3103 4656 3366 4563 
z
" id="DejaVuSans-36" transform="scale(0.015625)"/>
       </defs>
       <use xlink:href="#DejaVuSans-36"/>
      </g>
     </g>
    </g>
    <g id="xtick_5">
     <g id="line2d_13">
      <path clip-path="url(#p2ca6fecd97)" d="M 97.755429 298.944 
L 97.755429 27.648 
" style="fill:none;stroke:#b0b0b0;stroke-linecap:square;stroke-width:0.8;"/>
     </g>
     <g id="line2d_14">
      <defs>
       <path d="M 0 0 
L 0 2 
" id="m150660e145" style="stroke:#000000;stroke-width:0.6;"/>
      </defs>
      <g>
       <use style="stroke:#000000;stroke-width:0.6;" x="97.755429" xlink:href="#m150660e145" y="298.944"/>
      </g>
     </g>
    </g>
    <g id="xtick_6">
     <g id="line2d_15">
      <path clip-path="url(#p2ca6fecd97)" d="M 178.066286 298.944 
L 178.066286 27.648 
" style="fill:none;stroke:#b0b0b0;stroke-linecap:square;stroke-width:0.8;"/>
     </g>
     <g id="line2d_16">
      <g>
       <use style="stroke:#000000;stroke-width:0.6;" x="178.066286" xlink:href="#m150660e145" y="298.944"/>
      </g>
     </g>
    </g>
    <g id="xtick_7">
     <g id="line2d_17">
      <path clip-path="url(#p2ca6fecd97)" d="M 258.377143 298.944 
L 258.377143 27.648 
" style="fill:none;stroke:#b0b0b0;stroke-linecap:square;stroke-width:0.8;"/>
     </g>
     <g id="line2d_18">
      <g>
       <use style="stroke:#000000;stroke-width:0.6;" x="258.377143" xlink:href="#m150660e145" y="298.944"/>
      </g>
     </g>
    </g>
    <g id="xtick_8">
     <g id="line2d_19">
      <path clip-path="url(#p2ca6fecd97)" d="M 338.688 298.944 
L 338.688 27.648 
" style="fill:none;stroke:#b0b0b0;stroke-linecap:square;stroke-width:0.8;"/>
     </g>
     <g id="line2d_20">
      <g>
       <use style="stroke:#000000;stroke-width:0.6;" x="338.688" xlink:href="#m150660e145" y="298.944"/>
      </g>
     </g>
    </g>
    <g id="text_5">
     <!-- log10(# f-evals / dimension) -->
     <g transform="translate(77.764078 342.217594)scale(0.17 -0.17)">
      <defs>
       <path d="M 603 4863 
L 1178 4863 
L 1178 0 
L 603 0 
L 603 4863 
z
" id="DejaVuSans-6c" transform="scale(0.015625)"/>
       <path d="M 1959 3097 
Q 1497 3097 1228 2736 
Q 959 2375 959 1747 
Q 959 1119 1226 758 
Q 1494 397 1959 397 
Q 2419 397 2687 759 
Q 2956 1122 2956 1747 
Q 2956 2369 2687 2733 
Q 2419 3097 1959 3097 
z
M 1959 3584 
Q 2709 3584 3137 3096 
Q 3566 2609 3566 1747 
Q 3566 888 3137 398 
Q 2709 -91 1959 -91 
Q 1206 -91 779 398 
Q 353 888 353 1747 
Q 353 2609 779 3096 
Q 1206 3584 1959 3584 
z
" id="DejaVuSans-6f" transform="scale(0.015625)"/>
       <path d="M 2906 1791 
Q 2906 2416 2648 2759 
Q 2391 3103 1925 3103 
Q 1463 3103 1205 2759 
Q 947 2416 947 1791 
Q 947 1169 1205 825 
Q 1463 481 1925 481 
Q 2391 481 2648 825 
Q 2906 1169 2906 1791 
z
M 3481 434 
Q 3481 -459 3084 -895 
Q 2688 -1331 1869 -1331 
Q 1566 -1331 1297 -1286 
Q 1028 -1241 775 -1147 
L 775 -588 
Q 1028 -725 1275 -790 
Q 1522 -856 1778 -856 
Q 2344 -856 2625 -561 
Q 2906 -266 2906 331 
L 2906 616 
Q 2728 306 2450 153 
Q 2172 0 1784 0 
Q 1141 0 747 490 
Q 353 981 353 1791 
Q 353 2603 747 3093 
Q 1141 3584 1784 3584 
Q 2172 3584 2450 3431 
Q 2728 3278 2906 2969 
L 2906 3500 
L 3481 3500 
L 3481 434 
z
" id="DejaVuSans-67" transform="scale(0.015625)"/>
       <path d="M 794 531 
L 1825 531 
L 1825 4091 
L 703 3866 
L 703 4441 
L 1819 4666 
L 2450 4666 
L 2450 531 
L 3481 531 
L 3481 0 
L 794 0 
L 794 531 
z
" id="DejaVuSans-31" transform="scale(0.015625)"/>
       <path d="M 1984 4856 
Q 1566 4138 1362 3434 
Q 1159 2731 1159 2009 
Q 1159 1288 1364 580 
Q 1569 -128 1984 -844 
L 1484 -844 
Q 1016 -109 783 600 
Q 550 1309 550 2009 
Q 550 2706 781 3412 
Q 1013 4119 1484 4856 
L 1984 4856 
z
" id="DejaVuSans-28" transform="scale(0.015625)"/>
       <path d="M 3272 2816 
L 2363 2816 
L 2100 1772 
L 3016 1772 
L 3272 2816 
z
M 2803 4594 
L 2478 3297 
L 3391 3297 
L 3719 4594 
L 4219 4594 
L 3897 3297 
L 4872 3297 
L 4872 2816 
L 3775 2816 
L 3519 1772 
L 4513 1772 
L 4513 1294 
L 3397 1294 
L 3072 0 
L 2572 0 
L 2894 1294 
L 1978 1294 
L 1656 0 
L 1153 0 
L 1478 1294 
L 494 1294 
L 494 1772 
L 1594 1772 
L 1856 2816 
L 850 2816 
L 850 3297 
L 1978 3297 
L 2297 4594 
L 2803 4594 
z
" id="DejaVuSans-23" transform="scale(0.015625)"/>
       <path id="DejaVuSans-20" transform="scale(0.015625)"/>
       <path d="M 2375 4863 
L 2375 4384 
L 1825 4384 
Q 1516 4384 1395 4259 
Q 1275 4134 1275 3809 
L 1275 3500 
L 2222 3500 
L 2222 3053 
L 1275 3053 
L 1275 0 
L 697 0 
L 697 3053 
L 147 3053 
L 147 3500 
L 697 3500 
L 697 3744 
Q 697 4328 969 4595 
Q 1241 4863 1831 4863 
L 2375 4863 
z
" id="DejaVuSans-66" transform="scale(0.015625)"/>
       <path d="M 313 2009 
L 1997 2009 
L 1997 1497 
L 313 1497 
L 313 2009 
z
" id="DejaVuSans-2d" transform="scale(0.015625)"/>
       <path d="M 3597 1894 
L 3597 1613 
L 953 1613 
Q 991 1019 1311 708 
Q 1631 397 2203 397 
Q 2534 397 2845 478 
Q 3156 559 3463 722 
L 3463 178 
Q 3153 47 2828 -22 
Q 2503 -91 2169 -91 
Q 1331 -91 842 396 
Q 353 884 353 1716 
Q 353 2575 817 3079 
Q 1281 3584 2069 3584 
Q 2775 3584 3186 3129 
Q 3597 2675 3597 1894 
z
M 3022 2063 
Q 3016 2534 2758 2815 
Q 2500 3097 2075 3097 
Q 1594 3097 1305 2825 
Q 1016 2553 972 2059 
L 3022 2063 
z
" id="DejaVuSans-65" transform="scale(0.015625)"/>
       <path d="M 191 3500 
L 800 3500 
L 1894 563 
L 2988 3500 
L 3597 3500 
L 2284 0 
L 1503 0 
L 191 3500 
z
" id="DejaVuSans-76" transform="scale(0.015625)"/>
       <path d="M 2194 1759 
Q 1497 1759 1228 1600 
Q 959 1441 959 1056 
Q 959 750 1161 570 
Q 1363 391 1709 391 
Q 2188 391 2477 730 
Q 2766 1069 2766 1631 
L 2766 1759 
L 2194 1759 
z
M 3341 1997 
L 3341 0 
L 2766 0 
L 2766 531 
Q 2569 213 2275 61 
Q 1981 -91 1556 -91 
Q 1019 -91 701 211 
Q 384 513 384 1019 
Q 384 1609 779 1909 
Q 1175 2209 1959 2209 
L 2766 2209 
L 2766 2266 
Q 2766 2663 2505 2880 
Q 2244 3097 1772 3097 
Q 1472 3097 1187 3025 
Q 903 2953 641 2809 
L 641 3341 
Q 956 3463 1253 3523 
Q 1550 3584 1831 3584 
Q 2591 3584 2966 3190 
Q 3341 2797 3341 1997 
z
" id="DejaVuSans-61" transform="scale(0.015625)"/>
       <path d="M 2834 3397 
L 2834 2853 
Q 2591 2978 2328 3040 
Q 2066 3103 1784 3103 
Q 1356 3103 1142 2972 
Q 928 2841 928 2578 
Q 928 2378 1081 2264 
Q 1234 2150 1697 2047 
L 1894 2003 
Q 2506 1872 2764 1633 
Q 3022 1394 3022 966 
Q 3022 478 2636 193 
Q 2250 -91 1575 -91 
Q 1294 -91 989 -36 
Q 684 19 347 128 
L 347 722 
Q 666 556 975 473 
Q 1284 391 1588 391 
Q 1994 391 2212 530 
Q 2431 669 2431 922 
Q 2431 1156 2273 1281 
Q 2116 1406 1581 1522 
L 1381 1569 
Q 847 1681 609 1914 
Q 372 2147 372 2553 
Q 372 3047 722 3315 
Q 1072 3584 1716 3584 
Q 2034 3584 2315 3537 
Q 2597 3491 2834 3397 
z
" id="DejaVuSans-73" transform="scale(0.015625)"/>
       <path d="M 1625 4666 
L 2156 4666 
L 531 -594 
L 0 -594 
L 1625 4666 
z
" id="DejaVuSans-2f" transform="scale(0.015625)"/>
       <path d="M 2906 2969 
L 2906 4863 
L 3481 4863 
L 3481 0 
L 2906 0 
L 2906 525 
Q 2725 213 2448 61 
Q 2172 -91 1784 -91 
Q 1150 -91 751 415 
Q 353 922 353 1747 
Q 353 2572 751 3078 
Q 1150 3584 1784 3584 
Q 2172 3584 2448 3432 
Q 2725 3281 2906 2969 
z
M 947 1747 
Q 947 1113 1208 752 
Q 1469 391 1925 391 
Q 2381 391 2643 752 
Q 2906 1113 2906 1747 
Q 2906 2381 2643 2742 
Q 2381 3103 1925 3103 
Q 1469 3103 1208 2742 
Q 947 2381 947 1747 
z
" id="DejaVuSans-64" transform="scale(0.015625)"/>
       <path d="M 603 3500 
L 1178 3500 
L 1178 0 
L 603 0 
L 603 3500 
z
M 603 4863 
L 1178 4863 
L 1178 4134 
L 603 4134 
L 603 4863 
z
" id="DejaVuSans-69" transform="scale(0.015625)"/>
       <path d="M 3328 2828 
Q 3544 3216 3844 3400 
Q 4144 3584 4550 3584 
Q 5097 3584 5394 3201 
Q 5691 2819 5691 2113 
L 5691 0 
L 5113 0 
L 5113 2094 
Q 5113 2597 4934 2840 
Q 4756 3084 4391 3084 
Q 3944 3084 3684 2787 
Q 3425 2491 3425 1978 
L 3425 0 
L 2847 0 
L 2847 2094 
Q 2847 2600 2669 2842 
Q 2491 3084 2119 3084 
Q 1678 3084 1418 2786 
Q 1159 2488 1159 1978 
L 1159 0 
L 581 0 
L 581 3500 
L 1159 3500 
L 1159 2956 
Q 1356 3278 1631 3431 
Q 1906 3584 2284 3584 
Q 2666 3584 2933 3390 
Q 3200 3197 3328 2828 
z
" id="DejaVuSans-6d" transform="scale(0.015625)"/>
       <path d="M 3513 2113 
L 3513 0 
L 2938 0 
L 2938 2094 
Q 2938 2591 2744 2837 
Q 2550 3084 2163 3084 
Q 1697 3084 1428 2787 
Q 1159 2491 1159 1978 
L 1159 0 
L 581 0 
L 581 3500 
L 1159 3500 
L 1159 2956 
Q 1366 3272 1645 3428 
Q 1925 3584 2291 3584 
Q 2894 3584 3203 3211 
Q 3513 2838 3513 2113 
z
" id="DejaVuSans-6e" transform="scale(0.015625)"/>
       <path d="M 513 4856 
L 1013 4856 
Q 1481 4119 1714 3412 
Q 1947 2706 1947 2009 
Q 1947 1309 1714 600 
Q 1481 -109 1013 -844 
L 513 -844 
Q 928 -128 1133 580 
Q 1338 1288 1338 2009 
Q 1338 2731 1133 3434 
Q 928 4138 513 4856 
z
" id="DejaVuSans-29" transform="scale(0.015625)"/>
      </defs>
      <use xlink:href="#DejaVuSans-6c"/>
      <use x="27.783203" xlink:href="#DejaVuSans-6f"/>
      <use x="88.964844" xlink:href="#DejaVuSans-67"/>
      <use x="152.441406" xlink:href="#DejaVuSans-31"/>
      <use x="216.064453" xlink:href="#DejaVuSans-30"/>
      <use x="279.6875" xlink:href="#DejaVuSans-28"/>
      <use x="318.701172" xlink:href="#DejaVuSans-23"/>
      <use x="402.490234" xlink:href="#DejaVuSans-20"/>
      <use x="434.277344" xlink:href="#DejaVuSans-66"/>
      <use x="463.982422" xlink:href="#DejaVuSans-2d"/>
      <use x="500.066406" xlink:href="#DejaVuSans-65"/>
      <use x="561.589844" xlink:href="#DejaVuSans-76"/>
      <use x="620.769531" xlink:href="#DejaVuSans-61"/>
      <use x="682.048828" xlink:href="#DejaVuSans-6c"/>
      <use x="709.832031" xlink:href="#DejaVuSans-73"/>
      <use x="761.931641" xlink:href="#DejaVuSans-20"/>
      <use x="793.71875" xlink:href="#DejaVuSans-2f"/>
      <use x="827.410156" xlink:href="#DejaVuSans-20"/>
      <use x="859.197266" xlink:href="#DejaVuSans-64"/>
      <use x="922.673828" xlink:href="#DejaVuSans-69"/>
      <use x="950.457031" xlink:href="#DejaVuSans-6d"/>
      <use x="1047.869141" xlink:href="#DejaVuSans-65"/>
      <use x="1109.392578" xlink:href="#DejaVuSans-6e"/>
      <use x="1172.771484" xlink:href="#DejaVuSans-73"/>
      <use x="1224.871094" xlink:href="#DejaVuSans-69"/>
      <use x="1252.654297" xlink:href="#DejaVuSans-6f"/>
      <use x="1313.835938" xlink:href="#DejaVuSans-6e"/>
      <use x="1377.214844" xlink:href="#DejaVuSans-29"/>
     </g>
    </g>
   </g>
   <g id="matplotlib.axis_2">
    <g id="ytick_1">
     <g id="line2d_21">
      <path clip-path="url(#p2ca6fecd97)" d="M 57.6 298.944 
L 338.688 298.944 
" style="fill:none;stroke:#b0b0b0;stroke-linecap:square;stroke-width:0.8;"/>
     </g>
     <g id="line2d_22">
      <defs>
       <path d="M 0 0 
L -3.5 0 
" id="m98f189f47b" style="stroke:#000000;stroke-width:0.8;"/>
      </defs>
      <g>
       <use style="stroke:#000000;stroke-width:0.8;" x="57.6" xlink:href="#m98f189f47b" y="298.944"/>
      </g>
     </g>
     <g id="text_6">
      <!-- 0.0 -->
      <g transform="translate(25.155 305.02275)scale(0.16 -0.16)">
       <defs>
        <path d="M 684 794 
L 1344 794 
L 1344 0 
L 684 0 
L 684 794 
z
" id="DejaVuSans-2e" transform="scale(0.015625)"/>
       </defs>
       <use xlink:href="#DejaVuSans-30"/>
       <use x="63.623047" xlink:href="#DejaVuSans-2e"/>
       <use x="95.410156" xlink:href="#DejaVuSans-30"/>
      </g>
     </g>
    </g>
    <g id="ytick_2">
     <g id="line2d_23">
      <path clip-path="url(#p2ca6fecd97)" d="M 57.6 245.22202 
L 338.688 245.22202 
" style="fill:none;stroke:#b0b0b0;stroke-linecap:square;stroke-width:0.8;"/>
     </g>
     <g id="line2d_24">
      <g>
       <use style="stroke:#000000;stroke-width:0.8;" x="57.6" xlink:href="#m98f189f47b" y="245.22202"/>
      </g>
     </g>
     <g id="text_7">
      <!-- 0.2 -->
      <g transform="translate(25.155 251.30077)scale(0.16 -0.16)">
       <use xlink:href="#DejaVuSans-30"/>
       <use x="63.623047" xlink:href="#DejaVuSans-2e"/>
       <use x="95.410156" xlink:href="#DejaVuSans-32"/>
      </g>
     </g>
    </g>
    <g id="ytick_3">
     <g id="line2d_25">
      <path clip-path="url(#p2ca6fecd97)" d="M 57.6 191.50004 
L 338.688 191.50004 
" style="fill:none;stroke:#b0b0b0;stroke-linecap:square;stroke-width:0.8;"/>
     </g>
     <g id="line2d_26">
      <g>
       <use style="stroke:#000000;stroke-width:0.8;" x="57.6" xlink:href="#m98f189f47b" y="191.50004"/>
      </g>
     </g>
     <g id="text_8">
      <!-- 0.4 -->
      <g transform="translate(25.155 197.57879)scale(0.16 -0.16)">
       <use xlink:href="#DejaVuSans-30"/>
       <use x="63.623047" xlink:href="#DejaVuSans-2e"/>
       <use x="95.410156" xlink:href="#DejaVuSans-34"/>
      </g>
     </g>
    </g>
    <g id="ytick_4">
     <g id="line2d_27">
      <path clip-path="url(#p2ca6fecd97)" d="M 57.6 137.778059 
L 338.688 137.778059 
" style="fill:none;stroke:#b0b0b0;stroke-linecap:square;stroke-width:0.8;"/>
     </g>
     <g id="line2d_28">
      <g>
       <use style="stroke:#000000;stroke-width:0.8;" x="57.6" xlink:href="#m98f189f47b" y="137.778059"/>
      </g>
     </g>
     <g id="text_9">
      <!-- 0.6 -->
      <g transform="translate(25.155 143.856809)scale(0.16 -0.16)">
       <use xlink:href="#DejaVuSans-30"/>
       <use x="63.623047" xlink:href="#DejaVuSans-2e"/>
       <use x="95.410156" xlink:href="#DejaVuSans-36"/>
      </g>
     </g>
    </g>
    <g id="ytick_5">
     <g id="line2d_29">
      <path clip-path="url(#p2ca6fecd97)" d="M 57.6 84.056079 
L 338.688 84.056079 
" style="fill:none;stroke:#b0b0b0;stroke-linecap:square;stroke-width:0.8;"/>
     </g>
     <g id="line2d_30">
      <g>
       <use style="stroke:#000000;stroke-width:0.8;" x="57.6" xlink:href="#m98f189f47b" y="84.056079"/>
      </g>
     </g>
     <g id="text_10">
      <!-- 0.8 -->
      <g transform="translate(25.155 90.134829)scale(0.16 -0.16)">
       <defs>
        <path d="M 2034 2216 
Q 1584 2216 1326 1975 
Q 1069 1734 1069 1313 
Q 1069 891 1326 650 
Q 1584 409 2034 409 
Q 2484 409 2743 651 
Q 3003 894 3003 1313 
Q 3003 1734 2745 1975 
Q 2488 2216 2034 2216 
z
M 1403 2484 
Q 997 2584 770 2862 
Q 544 3141 544 3541 
Q 544 4100 942 4425 
Q 1341 4750 2034 4750 
Q 2731 4750 3128 4425 
Q 3525 4100 3525 3541 
Q 3525 3141 3298 2862 
Q 3072 2584 2669 2484 
Q 3125 2378 3379 2068 
Q 3634 1759 3634 1313 
Q 3634 634 3220 271 
Q 2806 -91 2034 -91 
Q 1263 -91 848 271 
Q 434 634 434 1313 
Q 434 1759 690 2068 
Q 947 2378 1403 2484 
z
M 1172 3481 
Q 1172 3119 1398 2916 
Q 1625 2713 2034 2713 
Q 2441 2713 2670 2916 
Q 2900 3119 2900 3481 
Q 2900 3844 2670 4047 
Q 2441 4250 2034 4250 
Q 1625 4250 1398 4047 
Q 1172 3844 1172 3481 
z
" id="DejaVuSans-38" transform="scale(0.015625)"/>
       </defs>
       <use xlink:href="#DejaVuSans-30"/>
       <use x="63.623047" xlink:href="#DejaVuSans-2e"/>
       <use x="95.410156" xlink:href="#DejaVuSans-38"/>
      </g>
     </g>
    </g>
    <g id="ytick_6">
     <g id="line2d_31">
      <path clip-path="url(#p2ca6fecd97)" d="M 57.6 30.334099 
L 338.688 30.334099 
" style="fill:none;stroke:#b0b0b0;stroke-linecap:square;stroke-width:0.8;"/>
     </g>
     <g id="line2d_32">
      <g>
       <use style="stroke:#000000;stroke-width:0.8;" x="57.6" xlink:href="#m98f189f47b" y="30.334099"/>
      </g>
     </g>
     <g id="text_11">
      <!-- 1.0 -->
      <g transform="translate(25.155 36.412849)scale(0.16 -0.16)">
       <use xlink:href="#DejaVuSans-31"/>
       <use x="63.623047" xlink:href="#DejaVuSans-2e"/>
       <use x="95.410156" xlink:href="#DejaVuSans-30"/>
      </g>
     </g>
    </g>
    <g id="text_12">
     <!-- Fraction of function,target pairs -->
     <g transform="translate(17.619531 297.681)rotate(-90)scale(0.17 -0.17)">
      <defs>
       <path d="M 628 4666 
L 3309 4666 
L 3309 4134 
L 1259 4134 
L 1259 2759 
L 3109 2759 
L 3109 2228 
L 1259 2228 
L 1259 0 
L 628 0 
L 628 4666 
z
" id="DejaVuSans-46" transform="scale(0.015625)"/>
       <path d="M 2631 2963 
Q 2534 3019 2420 3045 
Q 2306 3072 2169 3072 
Q 1681 3072 1420 2755 
Q 1159 2438 1159 1844 
L 1159 0 
L 581 0 
L 581 3500 
L 1159 3500 
L 1159 2956 
Q 1341 3275 1631 3429 
Q 1922 3584 2338 3584 
Q 2397 3584 2469 3576 
Q 2541 3569 2628 3553 
L 2631 2963 
z
" id="DejaVuSans-72" transform="scale(0.015625)"/>
       <path d="M 3122 3366 
L 3122 2828 
Q 2878 2963 2633 3030 
Q 2388 3097 2138 3097 
Q 1578 3097 1268 2742 
Q 959 2388 959 1747 
Q 959 1106 1268 751 
Q 1578 397 2138 397 
Q 2388 397 2633 464 
Q 2878 531 3122 666 
L 3122 134 
Q 2881 22 2623 -34 
Q 2366 -91 2075 -91 
Q 1284 -91 818 406 
Q 353 903 353 1747 
Q 353 2603 823 3093 
Q 1294 3584 2113 3584 
Q 2378 3584 2631 3529 
Q 2884 3475 3122 3366 
z
" id="DejaVuSans-63" transform="scale(0.015625)"/>
       <path d="M 1172 4494 
L 1172 3500 
L 2356 3500 
L 2356 3053 
L 1172 3053 
L 1172 1153 
Q 1172 725 1289 603 
Q 1406 481 1766 481 
L 2356 481 
L 2356 0 
L 1766 0 
Q 1100 0 847 248 
Q 594 497 594 1153 
L 594 3053 
L 172 3053 
L 172 3500 
L 594 3500 
L 594 4494 
L 1172 4494 
z
" id="DejaVuSans-74" transform="scale(0.015625)"/>
       <path d="M 544 1381 
L 544 3500 
L 1119 3500 
L 1119 1403 
Q 1119 906 1312 657 
Q 1506 409 1894 409 
Q 2359 409 2629 706 
Q 2900 1003 2900 1516 
L 2900 3500 
L 3475 3500 
L 3475 0 
L 2900 0 
L 2900 538 
Q 2691 219 2414 64 
Q 2138 -91 1772 -91 
Q 1169 -91 856 284 
Q 544 659 544 1381 
z
M 1991 3584 
L 1991 3584 
z
" id="DejaVuSans-75" transform="scale(0.015625)"/>
       <path d="M 750 794 
L 1409 794 
L 1409 256 
L 897 -744 
L 494 -744 
L 750 256 
L 750 794 
z
" id="DejaVuSans-2c" transform="scale(0.015625)"/>
       <path d="M 1159 525 
L 1159 -1331 
L 581 -1331 
L 581 3500 
L 1159 3500 
L 1159 2969 
Q 1341 3281 1617 3432 
Q 1894 3584 2278 3584 
Q 2916 3584 3314 3078 
Q 3713 2572 3713 1747 
Q 3713 922 3314 415 
Q 2916 -91 2278 -91 
Q 1894 -91 1617 61 
Q 1341 213 1159 525 
z
M 3116 1747 
Q 3116 2381 2855 2742 
Q 2594 3103 2138 3103 
Q 1681 3103 1420 2742 
Q 1159 2381 1159 1747 
Q 1159 1113 1420 752 
Q 1681 391 2138 391 
Q 2594 391 2855 752 
Q 3116 1113 3116 1747 
z
" id="DejaVuSans-70" transform="scale(0.015625)"/>
      </defs>
      <use xlink:href="#DejaVuSans-46"/>
      <use x="50.269531" xlink:href="#DejaVuSans-72"/>
      <use x="91.382812" xlink:href="#DejaVuSans-61"/>
      <use x="152.662109" xlink:href="#DejaVuSans-63"/>
      <use x="207.642578" xlink:href="#DejaVuSans-74"/>
      <use x="246.851562" xlink:href="#DejaVuSans-69"/>
      <use x="274.634766" xlink:href="#DejaVuSans-6f"/>
      <use x="335.816406" xlink:href="#DejaVuSans-6e"/>
      <use x="399.195312" xlink:href="#DejaVuSans-20"/>
      <use x="430.982422" xlink:href="#DejaVuSans-6f"/>
      <use x="492.164062" xlink:href="#DejaVuSans-66"/>
      <use x="527.369141" xlink:href="#DejaVuSans-20"/>
      <use x="559.15625" xlink:href="#DejaVuSans-66"/>
      <use x="594.361328" xlink:href="#DejaVuSans-75"/>
      <use x="657.740234" xlink:href="#DejaVuSans-6e"/>
      <use x="721.119141" xlink:href="#DejaVuSans-63"/>
      <use x="776.099609" xlink:href="#DejaVuSans-74"/>
      <use x="815.308594" xlink:href="#DejaVuSans-69"/>
      <use x="843.091797" xlink:href="#DejaVuSans-6f"/>
      <use x="904.273438" xlink:href="#DejaVuSans-6e"/>
      <use x="967.652344" xlink:href="#DejaVuSans-2c"/>
      <use x="999.439453" xlink:href="#DejaVuSans-74"/>
      <use x="1038.648438" xlink:href="#DejaVuSans-61"/>
      <use x="1099.927734" xlink:href="#DejaVuSans-72"/>
      <use x="1139.291016" xlink:href="#DejaVuSans-67"/>
      <use x="1202.767578" xlink:href="#DejaVuSans-65"/>
      <use x="1264.291016" xlink:href="#DejaVuSans-74"/>
      <use x="1303.5" xlink:href="#DejaVuSans-20"/>
      <use x="1335.287109" xlink:href="#DejaVuSans-70"/>
      <use x="1398.763672" xlink:href="#DejaVuSans-61"/>
      <use x="1460.042969" xlink:href="#DejaVuSans-69"/>
      <use x="1487.826172" xlink:href="#DejaVuSans-72"/>
      <use x="1528.939453" xlink:href="#DejaVuSans-73"/>
     </g>
    </g>
   </g>
   <g id="line2d_33">
    <defs>
     <path d="M 0 1.5 
C 0.397805 1.5 0.77937 1.341951 1.06066 1.06066 
C 1.341951 0.77937 1.5 0.397805 1.5 0 
C 1.5 -0.397805 1.341951 -0.77937 1.06066 -1.06066 
C 0.77937 -1.341951 0.397805 -1.5 0 -1.5 
C -0.397805 -1.5 -0.77937 -1.341951 -1.06066 -1.06066 
C -1.341951 -0.77937 -1.5 -0.397805 -1.5 0 
C -1.5 0.397805 -1.341951 0.77937 -1.06066 1.06066 
C -0.77937 1.341951 -0.397805 1.5 0 1.5 
z
" id="m7710c95bc5" style="stroke:#f5deb3;"/>
    </defs>
    <g>
     <use style="fill:#f5deb3;stroke:#f5deb3;" x="146.270114" xlink:href="#m7710c95bc5" y="30.334099"/>
     <use style="fill:#f5deb3;stroke:#f5deb3;" x="146.270114" xlink:href="#m7710c95bc5" y="30.334099"/>
    </g>
   </g>
   <g id="line2d_34">
    <defs>
     <path d="M 0 1.5 
C 0.397805 1.5 0.77937 1.341951 1.06066 1.06066 
C 1.341951 0.77937 1.5 0.397805 1.5 0 
C 1.5 -0.397805 1.341951 -0.77937 1.06066 -1.06066 
C 0.77937 -1.341951 0.397805 -1.5 0 -1.5 
C -0.397805 -1.5 -0.77937 -1.341951 -1.06066 -1.06066 
C -1.341951 -0.77937 -1.5 -0.397805 -1.5 0 
C -1.5 0.397805 -1.341951 0.77937 -1.06066 1.06066 
C -0.77937 1.341951 -0.397805 1.5 0 1.5 
z
" id="m5ec373934d" style="stroke:#000080;"/>
    </defs>
    <g>
     <use style="fill:#000080;stroke:#000080;" x="276.975875" xlink:href="#m5ec373934d" y="30.334099"/>
     <use style="fill:#000080;stroke:#000080;" x="276.975875" xlink:href="#m5ec373934d" y="30.334099"/>
    </g>
   </g>
   <g id="line2d_35">
    <path d="M 45.512012 298.944 
L 45.512012 278.929929 
L 57.6 278.929929 
L 57.6 272.08301 
L 64.67102 272.08301 
L 64.67102 270.502952 
L 69.687988 270.502952 
L 69.687988 267.869521 
L 73.579452 267.869521 
L 73.579452 266.816149 
L 76.759008 266.816149 
L 76.759008 265.236091 
L 79.447285 265.236091 
L 79.447285 264.709405 
L 81.775977 264.709405 
L 81.775977 262.075974 
L 83.830028 262.075974 
L 83.830028 258.915858 
L 85.66744 258.915858 
L 85.66744 258.389172 
L 87.329581 258.389172 
L 87.329581 256.282427 
L 91.535274 256.282427 
L 91.535274 255.755741 
L 93.863965 255.755741 
L 93.863965 254.702369 
L 94.921215 254.702369 
L 94.921215 252.068939 
L 95.918017 252.068939 
L 95.918017 251.542253 
L 98.606294 251.542253 
L 98.606294 251.015567 
L 100.934985 251.015567 
L 100.934985 245.22202 
L 102.330873 245.22202 
L 102.330873 244.695334 
L 104.23523 244.695334 
L 104.23523 243.641962 
L 104.826449 243.641962 
L 104.826449 243.115275 
L 106.48859 243.115275 
L 106.48859 242.588589 
L 108.006005 242.588589 
L 108.006005 239.955159 
L 109.401893 239.955159 
L 109.401893 239.428473 
L 109.843417 239.428473 
L 109.843417 237.848415 
L 110.274038 237.848415 
L 110.274038 237.321729 
L 111.104637 237.321729 
L 111.104637 234.688298 
L 112.655818 234.688298 
L 112.655818 227.314693 
L 115.397021 227.314693 
L 115.397021 226.788007 
L 115.711251 226.788007 
L 115.711251 224.681263 
L 119.097192 224.681263 
L 119.097192 222.047832 
L 128.560901 222.047832 
L 128.560901 221.521146 
L 129.433047 221.521146 
L 129.433047 220.99446 
L 129.574256 220.99446 
L 129.574256 219.941088 
L 130.926816 219.941088 
L 130.926816 218.887716 
L 132.541568 218.887716 
L 132.541568 217.307658 
L 135.076644 217.307658 
L 135.076644 216.254285 
L 135.280614 216.254285 
L 135.280614 215.200913 
L 135.780341 215.200913 
L 135.878591 210.460738 
L 139.887228 210.460738 
L 139.887228 207.300622 
L 152.922207 207.300622 
L 152.922207 206.24725 
L 154.405793 206.24725 
L 154.405793 204.140506 
L 156.205916 204.140506 
L 156.205916 201.507075 
L 156.747178 201.507075 
L 156.776762 196.240214 
L 156.953214 196.240214 
L 156.953214 193.080098 
L 157.098907 193.080098 
L 157.098907 192.553412 
L 157.557108 192.553412 
L 157.557108 190.973354 
L 157.697862 190.973354 
L 157.697862 183.599748 
L 158.168101 183.599748 
L 158.168101 182.546376 
L 158.652556 182.546376 
L 158.652556 180.966318 
L 158.811096 180.966318 
L 158.811096 179.38626 
L 158.968208 179.38626 
L 158.968208 178.859574 
L 159.123917 178.859574 
L 159.123917 177.279515 
L 159.481921 177.279515 
L 159.481921 176.752829 
L 159.633129 176.752829 
L 159.683242 168.852538 
L 160.103486 168.852538 
L 160.103486 168.325852 
L 160.727241 168.325852 
L 160.727241 163.058991 
L 161.352206 163.058991 
L 161.352206 162.005619 
L 161.778945 162.005619 
L 161.778945 160.952247 
L 162.130378 160.952247 
L 162.238764 159.898875 
L 162.260361 159.898875 
L 162.281931 155.1587 
L 162.517456 155.1587 
L 162.517456 152.52527 
L 162.665696 152.52527 
L 162.665696 151.471897 
L 162.791763 151.471897 
L 162.791763 149.891839 
L 162.958448 149.891839 
L 162.958448 148.311781 
L 163.246367 148.311781 
L 163.246367 147.785095 
L 163.768781 147.785095 
L 163.768781 146.205037 
L 164.102088 146.205037 
L 164.102088 145.678351 
L 164.333587 145.678351 
L 164.333587 143.04492 
L 164.486229 143.04492 
L 164.486229 142.518234 
L 164.86209 142.518234 
L 164.86209 141.464862 
L 165.065412 141.464862 
L 165.065412 139.884804 
L 169.743743 139.884804 
L 169.743743 138.304745 
L 171.147196 138.304745 
L 171.147196 135.144629 
L 171.442893 135.144629 
L 171.442893 126.190966 
L 173.037687 126.190966 
L 173.118935 123.557535 
L 173.609893 123.557535 
L 173.609893 121.450791 
L 174.021557 121.450791 
L 174.021557 120.397419 
L 176.545699 120.397419 
L 176.574218 118.817361 
L 176.725536 118.817361 
L 176.810078 110.917069 
L 176.875552 110.917069 
L 176.875552 108.283639 
L 177.033543 108.283639 
L 177.079739 103.543464 
L 177.2176 103.543464 
L 177.2176 101.963406 
L 177.758396 101.963406 
L 177.758396 99.856662 
L 178.031372 99.856662 
L 178.031372 97.749917 
L 189.6006 97.749917 
L 189.6006 96.696545 
L 189.788602 96.696545 
L 189.788602 94.063115 
L 190.804686 94.063115 
L 190.804686 93.536429 
L 192.134537 93.536429 
L 192.134537 92.483056 
L 192.466063 92.483056 
L 192.466063 86.162824 
L 193.033336 86.162824 
L 193.033336 85.636137 
L 194.53411 85.636137 
L 194.53411 84.056079 
L 194.662515 84.056079 
L 194.662515 81.422649 
L 195.660252 81.422649 
L 195.660252 76.682474 
L 195.843692 76.682474 
L 195.843692 75.629102 
L 195.97221 75.629102 
L 196.000295 71.942299 
L 196.346067 71.942299 
L 196.346067 69.835555 
L 196.498243 69.835555 
L 196.597957 67.202125 
L 198.905922 67.202125 
L 198.950736 65.09538 
L 200.67881 65.09538 
L 200.67881 58.248461 
L 202.833772 58.248461 
L 202.833772 57.195089 
L 203.295409 57.195089 
L 203.295409 54.034973 
L 211.57153 54.034973 
L 211.57153 53.508287 
L 212.422456 53.508287 
L 212.422456 51.928228 
L 222.143147 51.928228 
L 222.143147 51.401542 
L 224.987803 51.401542 
L 224.987803 50.34817 
L 225.157932 50.34817 
L 225.157932 48.768112 
L 244.363354 48.768112 
L 244.363354 47.71474 
L 245.339293 47.71474 
L 245.339293 46.661368 
L 255.400682 46.661368 
L 255.484667 44.027937 
L 255.592101 44.027937 
L 255.595271 42.974565 
L 255.76504 42.974565 
L 255.832063 40.867821 
L 255.885155 40.867821 
L 255.934576 38.761076 
L 256.30417 38.761076 
L 256.330959 37.181018 
L 256.473238 37.181018 
L 256.473238 36.654332 
L 258.682176 36.654332 
L 258.788443 34.547588 
L 258.830293 34.547588 
L 258.830293 34.020902 
L 259.135585 34.020902 
L 259.135585 33.494215 
L 259.287615 33.494215 
L 259.287615 32.967529 
L 267.51394 32.967529 
L 267.51394 32.440843 
L 267.870289 32.440843 
L 267.929029 31.387471 
L 269.400719 31.387471 
L 269.400719 30.860785 
L 276.975875 30.860785 
L 276.975875 30.334099 
L 338.688 30.334099 
L 338.688 30.334099 
" style="fill:none;stroke:#000080;stroke-linecap:square;stroke-width:1.5;"/>
   </g>
   <g id="line2d_36">
    <defs>
     <path d="M 0 6 
C 1.591219 6 3.117479 5.367802 4.242641 4.242641 
C 5.367802 3.117479 6 1.591219 6 0 
C 6 -1.591219 5.367802 -3.117479 4.242641 -4.242641 
C 3.117479 -5.367802 1.591219 -6 0 -6 
C -1.591219 -6 -3.117479 -5.367802 -4.242641 -4.242641 
C -5.367802 -3.117479 -6 -1.591219 -6 0 
C -6 1.591219 -5.367802 3.117479 -4.242641 4.242641 
C -3.117479 5.367802 -1.591219 6 0 6 
z
" id="md2d021dcc7" style="stroke:#000080;stroke-width:1.5;"/>
    </defs>
    <g>
     <use style="fill-opacity:0;stroke:#000080;stroke-width:1.5;" x="100.934985" xlink:href="#md2d021dcc7" y="251.015567"/>
     <use style="fill-opacity:0;stroke:#000080;stroke-width:1.5;" x="162.958448" xlink:href="#md2d021dcc7" y="149.891839"/>
     <use style="fill-opacity:0;stroke:#000080;stroke-width:1.5;" x="200.67881" xlink:href="#md2d021dcc7" y="58.248461"/>
     <use style="fill-opacity:0;stroke:#000080;stroke-width:1.5;" x="276.975875" xlink:href="#md2d021dcc7" y="30.860785"/>
     <use style="fill-opacity:0;stroke:#000080;stroke-width:1.5;" x="276.975875" xlink:href="#md2d021dcc7" y="30.334099"/>
     <use style="fill-opacity:0;stroke:#000080;stroke-width:1.5;" x="338.688" xlink:href="#md2d021dcc7" y="30.334099"/>
    </g>
   </g>
   <g id="line2d_37">
    <path style="fill:none;stroke:#000080;stroke-linecap:square;stroke-width:1.5;"/>
    <g/>
   </g>
   <g id="line2d_38">
    <path clip-path="url(#p2ca6fecd97)" d="M 255.747001 42.974565 
" style="fill:none;stroke:#000080;stroke-linecap:square;stroke-width:1.5;"/>
    <defs>
     <path d="M -12 12 
L 12 -12 
M -12 -12 
L 12 12 
" id="mb28b907e2f" style="stroke:#000080;"/>
    </defs>
    <g clip-path="url(#p2ca6fecd97)">
     <use style="fill:#000080;stroke:#000080;" x="255.747001" xlink:href="#mb28b907e2f" y="42.974565"/>
    </g>
   </g>
   <g id="line2d_39">
    <defs>
     <path d="M 0 1.5 
C 0.397805 1.5 0.77937 1.341951 1.06066 1.06066 
C 1.341951 0.77937 1.5 0.397805 1.5 0 
C 1.5 -0.397805 1.341951 -0.77937 1.06066 -1.06066 
C 0.77937 -1.341951 0.397805 -1.5 0 -1.5 
C -0.397805 -1.5 -0.77937 -1.341951 -1.06066 -1.06066 
C -1.341951 -0.77937 -1.5 -0.397805 -1.5 0 
C -1.5 0.397805 -1.341951 0.77937 -1.06066 1.06066 
C -0.77937 1.341951 -0.397805 1.5 0 1.5 
z
" id="m74c3b33999" style="stroke:#ff00ff;"/>
    </defs>
    <g>
     <use style="fill:#ff00ff;stroke:#ff00ff;" x="315.020029" xlink:href="#m74c3b33999" y="30.334099"/>
     <use style="fill:#ff00ff;stroke:#ff00ff;" x="315.020029" xlink:href="#m74c3b33999" y="30.334099"/>
    </g>
   </g>
   <g id="line2d_40">
    <path d="M 45.512012 298.944 
L 45.512012 278.929929 
L 57.6 278.929929 
L 57.6 271.029638 
L 64.67102 271.029638 
L 64.67102 264.182719 
L 69.687988 264.182719 
L 69.687988 262.075974 
L 73.579452 262.075974 
L 73.579452 261.549288 
L 76.759008 261.549288 
L 76.759008 258.389172 
L 79.447285 258.389172 
L 79.447285 249.962195 
L 88.846997 249.962195 
L 88.846997 246.802078 
L 92.73846 246.802078 
L 92.73846 244.695334 
L 93.863965 244.695334 
L 93.863965 244.168648 
L 94.921215 244.168648 
L 94.921215 243.115275 
L 96.86091 243.115275 
L 96.86091 242.061903 
L 97.755429 242.061903 
L 97.755429 238.901787 
L 98.606294 238.901787 
L 98.606294 237.848415 
L 100.192776 237.848415 
L 100.192776 234.688298 
L 107.514726 234.688298 
L 107.514726 232.054868 
L 108.483824 232.054868 
L 108.483824 230.47481 
L 111.505558 230.47481 
L 111.505558 227.314693 
L 112.280765 227.314693 
L 112.280765 223.627891 
L 114.080224 223.627891 
L 114.080224 223.101204 
L 118.039942 223.101204 
L 118.039942 219.941088 
L 118.310324 219.941088 
L 118.310324 219.414402 
L 118.838828 219.414402 
L 118.838828 218.36103 
L 121.264855 218.36103 
L 121.264855 216.780971 
L 122.573415 216.780971 
L 122.573415 216.254285 
L 125.822869 216.254285 
L 125.822869 215.727599 
L 125.996395 215.727599 
L 125.996395 215.200913 
L 126.168212 215.200913 
L 126.168212 210.987425 
L 129.991152 210.987425 
L 129.991152 209.934052 
L 131.056477 209.934052 
L 131.056477 209.407366 
L 131.690703 209.407366 
L 131.690703 207.827308 
L 134.019394 207.827308 
L 134.019394 207.300622 
L 135.280614 207.300622 
L 135.280614 206.773936 
L 136.924311 206.773936 
L 136.924311 206.24725 
L 137.823442 206.24725 
L 137.823442 205.720564 
L 138.341479 205.720564 
L 138.341479 205.193878 
L 139.493548 205.193878 
L 139.572998 203.613819 
L 140.195896 203.613819 
L 140.195896 203.087133 
L 141.090414 203.087133 
L 141.090414 201.507075 
L 141.378673 201.507075 
L 141.378673 200.453703 
L 141.591783 200.453703 
L 141.591783 196.240214 
L 142.686372 196.240214 
L 142.686372 194.13347 
L 143.014805 194.13347 
L 143.014805 193.606784 
L 143.337167 193.606784 
L 143.337167 189.919981 
L 143.902815 189.919981 
L 143.902815 189.393295 
L 144.026061 189.393295 
L 144.026061 187.286551 
L 144.330419 187.286551 
L 144.330419 186.759865 
L 144.45069 186.759865 
L 144.45069 184.653121 
L 144.981877 184.653121 
L 144.981877 184.126434 
L 145.553708 184.126434 
L 145.553708 181.493004 
L 146.324022 181.493004 
L 146.324022 180.966318 
L 146.801841 180.966318 
L 146.801841 179.912946 
L 147.52003 179.912946 
L 147.52003 177.806202 
L 148.780082 177.806202 
L 148.780082 176.226143 
L 149.422654 176.226143 
L 149.422654 175.699457 
L 158.031107 175.699457 
L 158.031107 173.066027 
L 159.658204 173.066027 
L 159.658204 172.539341 
L 161.88953 172.539341 
L 161.88953 168.325852 
L 162.10862 168.325852 
L 162.10862 165.165736 
L 163.020547 165.165736 
L 163.020547 164.112363 
L 163.489428 164.112363 
L 163.569701 160.952247 
L 163.709295 160.952247 
L 163.709295 160.425561 
L 164.102088 160.425561 
L 164.102088 158.845503 
L 164.371873 158.845503 
L 164.371873 158.318817 
L 164.524182 158.318817 
L 164.524182 156.738758 
L 164.843488 156.738758 
L 164.843488 156.212072 
L 165.047026 156.212072 
L 165.083779 153.051956 
L 165.375047 153.051956 
L 165.46508 148.838467 
L 165.890882 148.838467 
L 165.890882 147.258409 
L 166.013141 147.258409 
L 166.065276 141.991548 
L 166.151824 141.991548 
L 166.255117 137.251373 
L 166.374858 137.251373 
L 166.374858 136.724687 
L 166.679039 136.724687 
L 166.679039 136.198001 
L 166.829163 136.198001 
L 166.829163 133.564571 
L 167.158215 133.564571 
L 167.239518 132.511199 
L 167.320442 132.511199 
L 167.320442 131.984513 
L 167.656285 131.984513 
L 167.656285 123.030849 
L 168.46108 123.030849 
L 168.46108 119.870733 
L 169.417501 119.870733 
L 169.417501 118.817361 
L 171.289242 118.817361 
L 171.289242 115.657244 
L 172.118046 115.657244 
L 172.118046 115.130558 
L 172.708856 115.130558 
L 172.708856 112.497128 
L 174.722024 112.497128 
L 174.722024 111.970441 
L 175.496772 111.970441 
L 175.496772 111.443755 
L 176.61217 111.443755 
L 176.61217 110.917069 
L 176.82881 110.917069 
L 176.82881 109.863697 
L 177.499105 109.863697 
L 177.499105 108.810325 
L 177.943781 108.810325 
L 178.048838 106.176895 
L 178.513913 106.176895 
L 178.513913 104.07015 
L 178.8005 104.07015 
L 178.8005 103.016778 
L 179.008261 103.016778 
L 179.008261 100.910034 
L 179.416503 100.910034 
L 179.416503 99.329976 
L 180.143574 99.329976 
L 180.143574 96.169859 
L 180.397157 96.169859 
L 180.397157 95.116487 
L 180.549068 95.116487 
L 180.549068 94.589801 
L 181.099906 94.589801 
L 181.099906 93.009743 
L 181.282137 93.009743 
L 181.282137 89.32294 
L 181.462482 89.32294 
L 181.462482 88.796254 
L 181.648084 88.796254 
L 181.648084 85.636137 
L 181.817674 85.636137 
L 181.817674 82.476021 
L 188.785252 82.476021 
L 188.785252 81.949335 
L 203.190433 81.949335 
L 203.190433 77.735846 
L 204.466003 77.735846 
L 204.466003 77.20916 
L 219.679736 77.20916 
L 219.679736 72.995672 
L 220.302872 72.995672 
L 220.302872 69.835555 
L 221.166447 69.835555 
L 221.166447 67.728811 
L 222.090841 67.728811 
L 222.090841 66.675439 
L 222.305342 66.675439 
L 222.305342 65.09538 
L 223.725148 65.09538 
L 223.725148 63.515322 
L 231.544135 63.515322 
L 231.544135 56.668403 
L 236.127014 56.668403 
L 236.229466 55.615031 
L 236.319585 55.615031 
L 236.319585 53.508287 
L 241.739292 53.508287 
L 241.739292 51.401542 
L 260.199306 51.401542 
L 260.199306 50.874856 
L 267.594771 50.874856 
L 267.594771 49.821484 
L 268.741093 49.821484 
L 268.741093 49.294798 
L 271.098188 49.294798 
L 271.098188 48.768112 
L 271.238552 48.768112 
L 271.238552 48.241426 
L 272.153214 48.241426 
L 272.153214 42.974565 
L 277.133873 42.974565 
L 277.133873 42.447879 
L 286.600662 42.447879 
L 286.600662 41.921193 
L 286.891904 41.921193 
L 286.891904 41.394507 
L 288.828135 41.394507 
L 288.828135 40.867821 
L 294.071563 40.867821 
L 294.071563 39.814448 
L 298.538552 39.814448 
L 298.57762 34.547588 
L 298.792579 34.547588 
L 298.792579 33.494215 
L 300.389017 33.494215 
L 300.389017 32.967529 
L 306.436493 32.967529 
L 306.449357 31.914157 
L 310.637664 31.914157 
L 310.639541 30.860785 
L 315.020029 30.860785 
L 315.020029 30.334099 
L 338.688 30.334099 
L 338.688 30.334099 
" style="fill:none;stroke:#ff00ff;stroke-linecap:square;stroke-width:1.5;"/>
   </g>
   <g id="line2d_41">
    <defs>
     <path d="M 0 8.485281 
L 5.091169 0 
L 0 -8.485281 
L -5.091169 0 
z
" id="med511d6792" style="stroke:#ff00ff;stroke-linejoin:miter;stroke-width:1.5;"/>
    </defs>
    <g>
     <use style="fill-opacity:0;stroke:#ff00ff;stroke-linejoin:miter;stroke-width:1.5;" x="131.690703" xlink:href="#med511d6792" y="207.827308"/>
     <use style="fill-opacity:0;stroke:#ff00ff;stroke-linejoin:miter;stroke-width:1.5;" x="167.320442" xlink:href="#med511d6792" y="131.984513"/>
     <use style="fill-opacity:0;stroke:#ff00ff;stroke-linejoin:miter;stroke-width:1.5;" x="231.544135" xlink:href="#med511d6792" y="63.515322"/>
     <use style="fill-opacity:0;stroke:#ff00ff;stroke-linejoin:miter;stroke-width:1.5;" x="306.449357" xlink:href="#med511d6792" y="31.914157"/>
     <use style="fill-opacity:0;stroke:#ff00ff;stroke-linejoin:miter;stroke-width:1.5;" x="315.020029" xlink:href="#med511d6792" y="30.334099"/>
     <use style="fill-opacity:0;stroke:#ff00ff;stroke-linejoin:miter;stroke-width:1.5;" x="338.688" xlink:href="#med511d6792" y="30.334099"/>
    </g>
   </g>
   <g id="line2d_42">
    <path style="fill:none;stroke:#ff00ff;stroke-linecap:square;stroke-width:1.5;"/>
    <g/>
   </g>
   <g id="line2d_43">
    <path clip-path="url(#p2ca6fecd97)" d="M 298.555411 38.761076 
" style="fill:none;stroke:#ff00ff;stroke-linecap:square;stroke-width:1.5;"/>
    <defs>
     <path d="M -12 12 
L 12 -12 
M -12 -12 
L 12 12 
" id="mc43d382854" style="stroke:#ff00ff;"/>
    </defs>
    <g clip-path="url(#p2ca6fecd97)">
     <use style="fill:#ff00ff;stroke:#ff00ff;" x="298.555411" xlink:href="#mc43d382854" y="38.761076"/>
    </g>
   </g>
   <g id="line2d_44">
    <defs>
     <path d="M 0 1.5 
C 0.397805 1.5 0.77937 1.341951 1.06066 1.06066 
C 1.341951 0.77937 1.5 0.397805 1.5 0 
C 1.5 -0.397805 1.341951 -0.77937 1.06066 -1.06066 
C 0.77937 -1.341951 0.397805 -1.5 0 -1.5 
C -0.397805 -1.5 -0.77937 -1.341951 -1.06066 -1.06066 
C -1.341951 -0.77937 -1.5 -0.397805 -1.5 0 
C -1.5 0.397805 -1.341951 0.77937 -1.06066 1.06066 
C -0.77937 1.341951 -0.397805 1.5 0 1.5 
z
" id="mbfe16eedf5" style="stroke:#ff7500;"/>
    </defs>
    <g>
     <use style="fill:#ff7500;stroke:#ff7500;" x="268.113854" xlink:href="#mbfe16eedf5" y="30.334099"/>
     <use style="fill:#ff7500;stroke:#ff7500;" x="268.113854" xlink:href="#mbfe16eedf5" y="30.334099"/>
    </g>
   </g>
   <g id="line2d_45">
    <path d="M 45.512012 298.944 
L 45.512012 276.823185 
L 79.447285 276.823185 
L 79.447285 273.663068 
L 81.775977 273.663068 
L 81.775977 271.029638 
L 83.830028 271.029638 
L 83.830028 269.976266 
L 85.66744 269.976266 
L 85.66744 266.289463 
L 87.329581 266.289463 
L 87.329581 263.129347 
L 88.846997 263.129347 
L 88.846997 261.022602 
L 90.242884 261.022602 
L 90.242884 260.495916 
L 92.73846 260.495916 
L 92.73846 259.96923 
L 93.863965 259.96923 
L 93.863965 256.809114 
L 95.918017 256.809114 
L 95.918017 256.282427 
L 96.86091 256.282427 
L 96.86091 253.648997 
L 97.755429 253.648997 
L 97.755429 252.068939 
L 100.934985 252.068939 
L 100.934985 244.168648 
L 102.330873 244.168648 
L 102.330873 243.641962 
L 102.989037 243.641962 
L 102.989037 243.115275 
L 103.623262 243.115275 
L 103.623262 242.061903 
L 104.826449 242.061903 
L 104.826449 241.008531 
L 107.514726 241.008531 
L 107.514726 240.481845 
L 108.006005 240.481845 
L 108.006005 238.375101 
L 109.843417 238.375101 
L 109.843417 237.848415 
L 111.505558 237.848415 
L 111.505558 237.321729 
L 113.022974 237.321729 
L 113.022974 235.214984 
L 114.751048 235.214984 
L 114.751048 234.688298 
L 115.711251 234.688298 
L 115.711251 233.634926 
L 116.914437 233.634926 
L 116.914437 230.47481 
L 118.039942 230.47481 
L 118.039942 229.421437 
L 118.838828 229.421437 
L 118.838828 228.894751 
L 119.097192 228.894751 
L 119.097192 227.841379 
L 119.351785 227.841379 
L 119.351785 224.681263 
L 120.093994 224.681263 
L 120.093994 222.047832 
L 120.33454 222.047832 
L 120.33454 220.467774 
L 120.8059 220.467774 
L 120.8059 219.941088 
L 121.036887 219.941088 
L 121.036887 219.414402 
L 121.931406 219.414402 
L 121.931406 214.674227 
L 122.362027 214.674227 
L 122.362027 213.620855 
L 122.573415 213.620855 
L 122.573415 212.567483 
L 122.782271 212.567483 
L 122.782271 210.987425 
L 123.790603 210.987425 
L 123.790603 207.827308 
L 123.985457 207.827308 
L 123.985457 207.300622 
L 124.178158 207.300622 
L 124.178158 206.24725 
L 124.557288 206.24725 
L 124.557288 205.720564 
L 125.110962 205.720564 
L 125.110962 205.193878 
L 126.168212 205.193878 
L 126.168212 204.667192 
L 127.002787 204.667192 
L 127.002787 204.140506 
L 127.165014 204.140506 
L 127.165014 202.033761 
L 127.954256 202.033761 
L 127.954256 200.453703 
L 128.560901 200.453703 
L 128.560901 197.293586 
L 128.709321 197.293586 
L 128.709321 196.7669 
L 130.263646 196.7669 
L 130.263646 196.240214 
L 130.664567 196.240214 
L 130.664567 195.713528 
L 130.796184 195.713528 
L 130.796184 193.606784 
L 131.056477 193.606784 
L 131.056477 193.080098 
L 131.938072 193.080098 
L 131.938072 190.973354 
L 132.060454 190.973354 
L 132.060454 190.446667 
L 132.541568 190.446667 
L 132.541568 187.813237 
L 134.019394 187.813237 
L 134.019394 187.286551 
L 135.076644 187.286551 
L 135.076644 185.179807 
L 135.681535 185.179807 
L 135.681535 183.599748 
L 135.878591 183.599748 
L 135.878591 183.073062 
L 136.073445 183.073062 
L 136.073445 181.493004 
L 136.361705 181.493004 
L 136.361705 180.439632 
L 137.107884 180.439632 
L 137.107884 179.912946 
L 137.289545 179.912946 
L 137.37967 178.332888 
L 137.469333 178.332888 
L 137.469333 177.806202 
L 138.084384 177.806202 
L 138.170504 176.752829 
L 138.256201 176.752829 
L 138.341479 174.646085 
L 138.67848 174.646085 
L 138.67848 172.539341 
L 139.652088 172.539341 
L 139.652088 170.959282 
L 139.8092 170.959282 
L 139.8092 168.325852 
L 139.964909 168.325852 
L 139.964909 165.165736 
L 140.11924 165.165736 
L 140.11924 164.112363 
L 140.423864 164.112363 
L 140.423864 161.478933 
L 140.723258 161.478933 
L 140.79731 152.52527 
L 141.017599 152.52527 
L 141.017599 150.418525 
L 141.307054 150.418525 
L 141.307054 147.785095 
L 142.215919 147.785095 
L 142.215919 145.678351 
L 143.014805 145.678351 
L 143.014805 145.151665 
L 143.273169 145.151665 
L 143.337167 141.464862 
L 143.527762 141.464862 
L 143.527762 140.938176 
L 143.653678 140.938176 
L 143.653678 136.724687 
L 143.902815 136.724687 
L 143.902815 136.198001 
L 144.148442 136.198001 
L 144.148442 134.617943 
L 144.747789 134.617943 
L 144.747789 133.037885 
L 145.155404 133.037885 
L 145.155404 130.404454 
L 145.721664 130.404454 
L 145.832743 128.29771 
L 146.377764 128.29771 
L 146.377764 127.771024 
L 146.538004 127.771024 
L 146.538004 127.244338 
L 146.749392 127.244338 
L 146.749392 125.66428 
L 146.906268 125.66428 
L 147.010073 119.870733 
L 147.4697 119.870733 
L 147.4697 117.763988 
L 148.015498 117.763988 
L 148.015498 113.023814 
L 148.966103 113.023814 
L 148.966103 112.497128 
L 149.779481 112.497128 
L 149.779481 107.756953 
L 150.301393 107.756953 
L 150.38688 103.016778 
L 150.808139 103.016778 
L 150.808139 102.490092 
L 150.932558 102.490092 
L 150.932558 98.803289 
L 151.13797 98.803289 
L 151.13797 98.276603 
L 154.201424 98.276603 
L 154.201424 95.643173 
L 155.741666 95.643173 
L 155.741666 95.116487 
L 156.687861 95.116487 
L 156.687861 94.063115 
L 156.923929 94.063115 
L 156.923929 93.536429 
L 157.098907 93.536429 
L 157.098907 92.483056 
L 158.385078 92.483056 
L 158.385078 91.95637 
L 159.32939 91.95637 
L 159.32939 91.429684 
L 159.532469 91.429684 
L 159.532469 90.902998 
L 160.079044 90.902998 
L 160.079044 88.796254 
L 160.418152 88.796254 
L 160.418152 87.216196 
L 161.077205 87.216196 
L 161.077205 86.68951 
L 161.352206 86.68951 
L 161.352206 84.582765 
L 169.244833 84.582765 
L 169.316986 83.529393 
L 169.503198 83.529393 
L 169.503198 82.476021 
L 181.922835 82.476021 
L 181.922835 80.895963 
L 189.428738 80.895963 
L 189.469596 79.315904 
L 190.167349 79.315904 
L 190.167349 78.789218 
L 190.896847 78.789218 
L 190.896847 78.262532 
L 191.050754 78.262532 
L 191.050754 74.57573 
L 192.351129 74.57573 
L 192.401027 70.888927 
L 192.652175 70.888927 
L 192.652175 67.202125 
L 193.051808 67.202125 
L 193.051808 64.568694 
L 193.231804 64.568694 
L 193.231804 64.042008 
L 193.359245 64.042008 
L 193.359245 61.935264 
L 193.521741 61.935264 
L 193.521741 59.301833 
L 194.380819 59.301833 
L 194.380819 57.195089 
L 195.140697 57.195089 
L 195.140697 54.561659 
L 195.714219 54.561659 
L 195.815353 52.9816 
L 195.849983 52.9816 
L 195.849983 50.874856 
L 201.780604 50.874856 
L 201.780604 47.188054 
L 203.896475 47.188054 
L 203.896475 44.554623 
L 204.389077 44.554623 
L 204.389077 43.501251 
L 205.361769 43.501251 
L 205.405463 41.921193 
L 205.557534 41.921193 
L 205.557534 40.867821 
L 205.681466 40.867821 
L 205.681466 39.814448 
L 222.231363 39.814448 
L 222.231363 36.654332 
L 245.087588 36.654332 
L 245.087588 36.127646 
L 256.012939 36.127646 
L 256.04875 31.387471 
L 256.95333 31.387471 
L 256.95333 30.860785 
L 268.113854 30.860785 
L 268.113854 30.334099 
L 338.688 30.334099 
L 338.688 30.334099 
" style="fill:none;stroke:#ff7500;stroke-linecap:square;stroke-width:1.5;"/>
   </g>
   <g id="line2d_46">
    <defs>
     <path d="M 0 -6 
L -1.347084 -1.854102 
L -5.706339 -1.854102 
L -2.179628 0.708204 
L -3.526712 4.854102 
L -0 2.291796 
L 3.526712 4.854102 
L 2.179628 0.708204 
L 5.706339 -1.854102 
L 1.347084 -1.854102 
z
" id="m35f8ab4171" style="stroke:#ff7500;stroke-linejoin:bevel;stroke-width:1.5;"/>
    </defs>
    <g>
     <use style="fill-opacity:0;stroke:#ff7500;stroke-linejoin:bevel;stroke-width:1.5;" x="108.006005" xlink:href="#m35f8ab4171" y="240.481845"/>
     <use style="fill-opacity:0;stroke:#ff7500;stroke-linejoin:bevel;stroke-width:1.5;" x="147.010073" xlink:href="#m35f8ab4171" y="123.030849"/>
     <use style="fill-opacity:0;stroke:#ff7500;stroke-linejoin:bevel;stroke-width:1.5;" x="205.681466" xlink:href="#m35f8ab4171" y="39.814448"/>
     <use style="fill-opacity:0;stroke:#ff7500;stroke-linejoin:bevel;stroke-width:1.5;" x="268.113854" xlink:href="#m35f8ab4171" y="30.860785"/>
     <use style="fill-opacity:0;stroke:#ff7500;stroke-linejoin:bevel;stroke-width:1.5;" x="268.113854" xlink:href="#m35f8ab4171" y="30.334099"/>
     <use style="fill-opacity:0;stroke:#ff7500;stroke-linejoin:bevel;stroke-width:1.5;" x="338.688" xlink:href="#m35f8ab4171" y="30.334099"/>
    </g>
   </g>
   <g id="line2d_47">
    <path style="fill:none;stroke:#ff7500;stroke-linecap:square;stroke-width:1.5;"/>
    <g/>
   </g>
   <g id="line2d_48">
    <path clip-path="url(#p2ca6fecd97)" d="M 256.006147 36.127646 
" style="fill:none;stroke:#ff7500;stroke-linecap:square;stroke-width:1.5;"/>
    <defs>
     <path d="M -12 12 
L 12 -12 
M -12 -12 
L 12 12 
" id="m530b951fb2" style="stroke:#ff7500;"/>
    </defs>
    <g clip-path="url(#p2ca6fecd97)">
     <use style="fill:#ff7500;stroke:#ff7500;" x="256.006147" xlink:href="#m530b951fb2" y="36.127646"/>
    </g>
   </g>
   <g id="line2d_49">
    <defs>
     <path d="M 0 1.5 
C 0.397805 1.5 0.77937 1.341951 1.06066 1.06066 
C 1.341951 0.77937 1.5 0.397805 1.5 0 
C 1.5 -0.397805 1.341951 -0.77937 1.06066 -1.06066 
C 0.77937 -1.341951 0.397805 -1.5 0 -1.5 
C -0.397805 -1.5 -0.77937 -1.341951 -1.06066 -1.06066 
C -1.341951 -0.77937 -1.5 -0.397805 -1.5 0 
C -1.5 0.397805 -1.341951 0.77937 -1.06066 1.06066 
C -0.77937 1.341951 -0.397805 1.5 0 1.5 
z
" id="m54dbd08122" style="stroke:#6495ed;"/>
    </defs>
    <g>
     <use style="fill:#6495ed;stroke:#6495ed;" x="183.733666" xlink:href="#m54dbd08122" y="30.334099"/>
     <use style="fill:#6495ed;stroke:#6495ed;" x="183.733666" xlink:href="#m54dbd08122" y="30.334099"/>
    </g>
   </g>
   <g id="line2d_50">
    <path d="M 45.512012 298.944 
L 45.512012 279.456615 
L 79.447285 279.456615 
L 79.447285 275.769812 
L 81.775977 275.769812 
L 81.775977 272.08301 
L 83.830028 272.08301 
L 83.830028 271.029638 
L 85.66744 271.029638 
L 85.66744 266.816149 
L 87.329581 266.816149 
L 87.329581 263.656033 
L 88.846997 263.656033 
L 88.846997 261.549288 
L 90.242884 261.549288 
L 90.242884 260.495916 
L 92.73846 260.495916 
L 92.73846 259.442544 
L 93.863965 259.442544 
L 93.863965 257.3358 
L 95.918017 257.3358 
L 95.918017 256.809114 
L 96.86091 256.809114 
L 96.86091 254.175683 
L 97.755429 254.175683 
L 97.755429 253.648997 
L 99.41757 253.648997 
L 99.41757 253.122311 
L 100.934985 253.122311 
L 100.934985 246.275392 
L 102.330873 246.275392 
L 102.330873 245.748706 
L 103.623262 245.748706 
L 103.623262 245.22202 
L 104.826449 245.22202 
L 104.826449 243.641962 
L 107.514726 243.641962 
L 107.514726 242.061903 
L 108.006005 242.061903 
L 108.006005 240.481845 
L 109.843417 240.481845 
L 109.843417 239.955159 
L 110.274038 239.955159 
L 110.274038 239.428473 
L 113.73488 239.428473 
L 113.73488 238.901787 
L 115.711251 238.901787 
L 115.711251 238.375101 
L 116.019919 238.375101 
L 116.019919 237.848415 
L 116.621333 237.848415 
L 116.621333 235.74167 
L 116.914437 235.74167 
L 116.914437 234.688298 
L 117.202696 234.688298 
L 117.202696 234.161612 
L 117.765302 234.161612 
L 117.765302 233.634926 
L 118.039942 233.634926 
L 118.039942 232.581554 
L 118.576578 232.581554 
L 118.576578 232.054868 
L 118.838828 232.054868 
L 118.838828 228.368065 
L 119.097192 228.368065 
L 119.097192 226.261321 
L 120.093994 226.261321 
L 120.093994 221.521146 
L 120.571812 221.521146 
L 120.571812 220.99446 
L 121.931406 220.99446 
L 121.931406 219.941088 
L 122.148045 219.941088 
L 122.148045 215.727599 
L 122.573415 215.727599 
L 122.573415 210.987425 
L 122.782271 210.987425 
L 122.782271 206.773936 
L 124.178158 206.773936 
L 124.178158 206.24725 
L 124.368753 206.24725 
L 124.368753 205.720564 
L 124.743806 205.720564 
L 124.743806 204.667192 
L 125.110962 204.667192 
L 125.110962 204.140506 
L 125.291682 204.140506 
L 125.291682 201.507075 
L 126.50685 201.507075 
L 126.50685 192.026726 
L 126.673734 192.026726 
L 126.673734 191.50004 
L 127.325746 191.50004 
L 127.325746 189.919981 
L 127.954256 189.919981 
L 127.954256 189.393295 
L 128.260216 189.393295 
L 128.260216 184.653121 
L 128.856489 184.653121 
L 128.856489 184.126434 
L 129.147151 184.126434 
L 129.147151 183.599748 
L 129.433047 183.599748 
L 129.433047 182.01969 
L 129.991152 182.01969 
L 129.991152 180.966318 
L 130.263646 180.966318 
L 130.263646 179.38626 
L 130.531948 179.38626 
L 130.531948 178.859574 
L 130.796184 178.859574 
L 130.796184 178.332888 
L 131.056477 178.332888 
L 131.056477 177.806202 
L 131.312942 177.806202 
L 131.312942 175.172771 
L 131.565689 175.172771 
L 131.565689 174.119399 
L 131.938072 174.119399 
L 131.938072 173.592713 
L 132.060454 173.592713 
L 132.060454 172.012655 
L 132.30267 172.012655 
L 132.30267 168.325852 
L 132.422528 168.325852 
L 132.422528 167.799166 
L 132.541568 167.799166 
L 132.541568 167.27248 
L 132.777237 167.27248 
L 132.777237 166.219108 
L 132.893889 166.219108 
L 132.893889 164.112363 
L 133.239232 164.112363 
L 133.239232 163.585677 
L 133.352844 163.585677 
L 133.352844 161.478933 
L 134.019394 161.478933 
L 134.019394 160.952247 
L 134.236034 160.952247 
L 134.236034 159.898875 
L 134.450015 159.898875 
L 134.450015 156.738758 
L 134.766144 156.738758 
L 134.766144 155.685386 
L 134.973757 155.685386 
L 135.076644 151.471897 
L 135.381712 151.471897 
L 135.381712 150.945211 
L 135.681535 150.945211 
L 135.780341 148.838467 
L 135.878591 148.838467 
L 135.878591 148.311781 
L 136.170062 148.311781 
L 136.170062 147.785095 
L 136.361705 147.785095 
L 136.361705 146.731723 
L 136.738785 146.731723 
L 136.738785 140.41149 
L 136.924311 140.41149 
L 136.924311 138.304745 
L 137.107884 138.304745 
L 137.198951 136.724687 
L 137.289545 136.724687 
L 137.289545 136.198001 
L 137.647286 136.198001 
L 137.647286 134.091257 
L 137.997836 134.091257 
L 137.997836 133.037885 
L 138.170504 133.037885 
L 138.170504 131.457826 
L 138.341479 131.457826 
L 138.426341 126.717652 
L 138.84457 126.717652 
L 138.84457 125.66428 
L 139.009092 125.66428 
L 139.009092 123.030849 
L 139.172077 123.030849 
L 139.172077 119.344047 
L 139.333553 119.344047 
L 139.333553 118.817361 
L 139.652088 118.817361 
L 139.652088 113.5505 
L 139.8092 113.5505 
L 139.8092 113.023814 
L 140.11924 113.023814 
L 140.11924 111.443755 
L 140.272217 111.443755 
L 140.272217 110.917069 
L 140.423864 110.917069 
L 140.423864 109.337011 
L 140.574203 109.337011 
L 140.574203 108.283639 
L 140.944478 108.283639 
L 141.017599 106.703581 
L 141.307054 106.703581 
L 141.378673 105.123522 
L 141.591783 105.123522 
L 141.662245 103.543464 
L 142.215919 103.543464 
L 142.215919 103.016778 
L 142.419098 103.016778 
L 142.419098 102.490092 
L 142.752555 102.490092 
L 142.752555 100.383348 
L 143.014805 100.383348 
L 143.014805 99.856662 
L 143.273169 99.856662 
L 143.273169 94.589801 
L 144.510517 94.589801 
L 144.510517 94.063115 
L 144.806606 94.063115 
L 144.806606 93.536429 
L 147.317833 93.536429 
L 147.317833 93.009743 
L 148.258051 93.009743 
L 148.258051 92.483056 
L 148.780082 92.483056 
L 148.826773 81.949335 
L 148.966103 81.949335 
L 148.966103 81.422649 
L 149.195872 81.422649 
L 149.195872 80.369277 
L 149.332295 80.369277 
L 149.377533 78.262532 
L 149.512548 78.262532 
L 149.512548 77.20916 
L 149.690956 77.20916 
L 149.735275 72.468985 
L 149.911431 72.468985 
L 149.911431 71.942299 
L 150.085825 71.942299 
L 150.085825 71.415613 
L 150.215485 71.415613 
L 150.258492 68.782183 
L 150.808139 68.782183 
L 150.808139 68.255497 
L 151.381313 68.255497 
L 151.381313 67.202125 
L 151.779487 67.202125 
L 151.779487 66.675439 
L 151.975216 66.675439 
L 151.975216 66.148752 
L 152.587184 66.148752 
L 152.587184 64.568694 
L 152.885298 64.568694 
L 152.885298 64.042008 
L 153.959927 64.042008 
L 153.959927 61.408578 
L 154.93935 61.408578 
L 154.93935 60.881892 
L 155.200129 60.881892 
L 155.200129 58.775147 
L 155.329071 58.775147 
L 155.329071 57.195089 
L 155.584129 57.195089 
L 155.584129 56.141717 
L 155.773004 56.141717 
L 155.83551 53.508287 
L 156.083319 53.508287 
L 156.083319 52.9816 
L 156.508689 52.9816 
L 156.508689 52.454914 
L 156.628341 52.454914 
L 156.628341 51.928228 
L 156.98245 51.928228 
L 156.98245 50.874856 
L 157.1279 50.874856 
L 157.1279 49.294798 
L 157.358125 49.294798 
L 157.358125 48.768112 
L 160.914762 48.768112 
L 161.007772 46.661368 
L 169.897641 46.661368 
L 169.897641 40.341135 
L 170.063995 40.341135 
L 170.174022 36.127646 
L 170.28336 36.127646 
L 170.28336 35.60096 
L 170.674059 35.60096 
L 170.727268 32.440843 
L 171.302098 32.440843 
L 171.302098 31.914157 
L 183.733666 31.914157 
L 183.733666 30.334099 
L 338.688 30.334099 
L 338.688 30.334099 
" style="fill:none;stroke:#6495ed;stroke-linecap:square;stroke-width:1.5;"/>
   </g>
   <g id="line2d_51">
    <defs>
     <path d="M -0 6 
L 6 -6 
L -6 -6 
z
" id="m035107d51a" style="stroke:#6495ed;stroke-linejoin:miter;stroke-width:1.5;"/>
    </defs>
    <g>
     <use style="fill-opacity:0;stroke:#6495ed;stroke-linejoin:miter;stroke-width:1.5;" x="79.447285" xlink:href="#m035107d51a" y="275.769812"/>
     <use style="fill-opacity:0;stroke:#6495ed;stroke-linejoin:miter;stroke-width:1.5;" x="131.312942" xlink:href="#m035107d51a" y="175.172771"/>
     <use style="fill-opacity:0;stroke:#6495ed;stroke-linejoin:miter;stroke-width:1.5;" x="169.897641" xlink:href="#m035107d51a" y="46.661368"/>
     <use style="fill-opacity:0;stroke:#6495ed;stroke-linejoin:miter;stroke-width:1.5;" x="183.733666" xlink:href="#m035107d51a" y="30.334099"/>
     <use style="fill-opacity:0;stroke:#6495ed;stroke-linejoin:miter;stroke-width:1.5;" x="183.733666" xlink:href="#m035107d51a" y="30.334099"/>
     <use style="fill-opacity:0;stroke:#6495ed;stroke-linejoin:miter;stroke-width:1.5;" x="338.688" xlink:href="#m035107d51a" y="30.334099"/>
    </g>
   </g>
   <g id="line2d_52">
    <path style="fill:none;stroke:#6495ed;stroke-linecap:square;stroke-width:1.5;"/>
    <g/>
   </g>
   <g id="line2d_53">
    <defs>
     <path d="M 0 1.5 
C 0.397805 1.5 0.77937 1.341951 1.06066 1.06066 
C 1.341951 0.77937 1.5 0.397805 1.5 0 
C 1.5 -0.397805 1.341951 -0.77937 1.06066 -1.06066 
C 0.77937 -1.341951 0.397805 -1.5 0 -1.5 
C -0.397805 -1.5 -0.77937 -1.341951 -1.06066 -1.06066 
C -1.341951 -0.77937 -1.5 -0.397805 -1.5 0 
C -1.5 0.397805 -1.341951 0.77937 -1.06066 1.06066 
C -0.77937 1.341951 -0.397805 1.5 0 1.5 
z
" id="m6c934aa1ea" style="stroke:#ff0000;"/>
    </defs>
    <g>
     <use style="fill:#ff0000;stroke:#ff0000;" x="255.666718" xlink:href="#m6c934aa1ea" y="30.334099"/>
     <use style="fill:#ff0000;stroke:#ff0000;" x="255.666718" xlink:href="#m6c934aa1ea" y="30.334099"/>
    </g>
   </g>
   <g id="line2d_54">
    <path d="M 45.512012 298.944 
L 45.512012 279.983301 
L 57.6 279.983301 
L 57.6 271.556324 
L 64.67102 271.556324 
L 64.67102 264.182719 
L 69.687988 264.182719 
L 69.687988 261.022602 
L 73.579452 261.022602 
L 73.579452 260.495916 
L 76.759008 260.495916 
L 76.759008 257.3358 
L 83.830028 257.3358 
L 83.830028 256.809114 
L 85.66744 256.809114 
L 85.66744 256.282427 
L 88.846997 256.282427 
L 88.846997 255.755741 
L 90.242884 255.755741 
L 90.242884 252.595625 
L 91.535274 252.595625 
L 91.535274 249.962195 
L 92.73846 249.962195 
L 92.73846 246.275392 
L 95.918017 246.275392 
L 95.918017 245.748706 
L 96.86091 245.748706 
L 96.86091 244.168648 
L 97.755429 244.168648 
L 97.755429 243.641962 
L 102.989037 243.641962 
L 102.989037 243.115275 
L 103.623262 243.115275 
L 103.623262 242.061903 
L 104.826449 242.061903 
L 104.826449 238.901787 
L 105.398279 238.901787 
L 105.398279 237.321729 
L 105.951954 237.321729 
L 105.951954 236.268356 
L 110.694282 236.268356 
L 110.694282 235.74167 
L 111.897469 235.74167 
L 111.897469 234.688298 
L 113.73488 234.688298 
L 113.73488 233.634926 
L 114.418861 233.634926 
L 114.418861 231.001496 
L 114.751048 231.001496 
L 114.751048 229.421437 
L 115.711251 229.421437 
L 115.711251 225.207949 
L 116.019919 225.207949 
L 116.019919 224.681263 
L 116.323218 224.681263 
L 116.323218 224.154577 
L 116.621333 224.154577 
L 116.621333 222.574518 
L 116.914437 222.574518 
L 116.914437 220.467774 
L 117.202696 220.467774 
L 117.202696 219.414402 
L 117.486268 219.414402 
L 117.486268 217.834344 
L 118.310324 217.834344 
L 118.310324 216.780971 
L 118.576578 216.780971 
L 118.576578 213.094169 
L 119.351785 213.094169 
L 119.351785 212.567483 
L 119.602714 212.567483 
L 119.602714 210.460738 
L 120.33454 210.460738 
L 120.33454 209.407366 
L 120.571812 209.407366 
L 120.571812 208.88068 
L 120.8059 208.88068 
L 120.8059 208.353994 
L 121.036887 208.353994 
L 121.036887 206.24725 
L 121.931406 206.24725 
L 121.931406 205.193878 
L 122.148045 205.193878 
L 122.148045 204.667192 
L 122.573415 204.667192 
L 122.573415 204.140506 
L 122.782271 204.140506 
L 122.782271 203.613819 
L 123.593547 203.613819 
L 123.593547 202.560447 
L 123.790603 202.560447 
L 123.790603 198.346959 
L 123.985457 198.346959 
L 123.985457 196.240214 
L 124.178158 196.240214 
L 124.178158 195.713528 
L 124.368753 195.713528 
L 124.368753 195.186842 
L 124.743806 195.186842 
L 124.743806 194.660156 
L 125.470548 194.660156 
L 125.470548 194.13347 
L 125.822869 194.13347 
L 125.822869 191.50004 
L 126.168212 191.50004 
L 126.168212 190.973354 
L 126.338353 190.973354 
L 126.338353 189.919981 
L 126.50685 189.919981 
L 126.50685 186.759865 
L 127.48501 186.759865 
L 127.48501 184.653121 
L 127.642832 184.653121 
L 127.642832 184.126434 
L 127.799239 184.126434 
L 127.799239 183.599748 
L 127.954256 183.599748 
L 127.954256 182.01969 
L 128.107907 182.01969 
L 128.107907 181.493004 
L 128.560901 181.493004 
L 128.560901 180.966318 
L 128.856489 180.966318 
L 128.856489 180.439632 
L 129.147151 180.439632 
L 129.147151 178.859574 
L 129.433047 178.859574 
L 129.433047 177.806202 
L 129.574256 177.806202 
L 129.574256 177.279515 
L 129.714332 177.279515 
L 129.714332 174.646085 
L 130.531948 174.646085 
L 130.531948 174.119399 
L 130.664567 174.119399 
L 130.664567 173.592713 
L 130.926816 173.592713 
L 130.926816 173.066027 
L 131.056477 173.066027 
L 131.056477 172.539341 
L 131.185181 172.539341 
L 131.185181 172.012655 
L 131.312942 172.012655 
L 131.312942 170.432596 
L 131.439773 170.432596 
L 131.439773 169.90591 
L 131.565689 169.90591 
L 131.565689 168.852538 
L 131.690703 168.852538 
L 131.690703 168.325852 
L 131.814826 168.325852 
L 131.814826 167.27248 
L 132.422528 167.27248 
L 132.422528 164.112363 
L 132.541568 164.112363 
L 132.541568 163.585677 
L 132.659801 163.585677 
L 132.659801 163.058991 
L 132.893889 163.058991 
L 132.893889 162.532305 
L 133.689303 162.532305 
L 133.689303 161.478933 
L 133.910056 161.478933 
L 133.910056 160.425561 
L 134.12805 160.425561 
L 134.12805 157.265444 
L 134.343353 157.265444 
L 134.450015 154.632014 
L 139.652088 154.632014 
L 139.652088 152.52527 
L 142.486301 152.52527 
L 142.486301 151.998584 
L 143.778691 151.998584 
L 143.778691 147.785095 
L 147.96658 147.785095 
L 147.96658 146.731723 
L 152.168773 146.731723 
L 152.207228 145.678351 
L 153.069065 145.678351 
L 153.069065 145.151665 
L 153.466662 145.151665 
L 153.502361 142.518234 
L 153.959927 142.518234 
L 153.959927 135.671315 
L 154.337936 135.671315 
L 154.337936 134.617943 
L 160.005512 134.617943 
L 160.079044 132.511199 
L 163.549667 132.511199 
L 163.649606 129.877768 
L 163.867476 129.877768 
L 163.867476 128.29771 
L 164.429145 128.29771 
L 164.429145 127.771024 
L 164.806225 127.771024 
L 164.899235 125.66428 
L 165.083779 125.66428 
L 165.175324 123.557535 
L 165.211808 123.557535 
L 165.211808 123.030849 
L 165.338904 123.030849 
L 165.338904 122.504163 
L 165.483031 122.504163 
L 165.483031 121.977477 
L 165.661531 121.977477 
L 165.697012 120.924105 
L 165.873346 120.924105 
L 165.978297 116.18393 
L 165.995728 116.18393 
L 166.065276 107.756953 
L 166.237944 107.756953 
L 166.289413 104.07015 
L 166.476842 104.07015 
L 166.476842 103.543464 
L 166.96153 103.543464 
L 167.027338 101.963406 
L 167.076532 101.963406 
L 167.076532 101.43672 
L 167.190782 101.43672 
L 167.271933 98.803289 
L 167.513144 98.803289 
L 167.608702 94.589801 
L 167.76681 94.589801 
L 167.76681 94.063115 
L 170.990905 94.063115 
L 170.990905 92.483056 
L 171.121244 92.483056 
L 171.121244 89.32294 
L 173.234351 89.32294 
L 173.234351 86.68951 
L 174.711458 86.68951 
L 174.711458 85.636137 
L 176.092705 85.636137 
L 176.199784 78.262532 
L 177.891015 78.262532 
L 177.970105 69.835555 
L 181.943792 69.835555 
L 181.943792 68.255497 
L 182.391773 68.255497 
L 182.391773 67.202125 
L 182.594715 67.202125 
L 182.648436 64.568694 
L 182.768707 64.568694 
L 182.768707 64.042008 
L 182.980496 64.042008 
L 183.019922 61.408578 
L 183.157214 61.408578 
L 183.157214 60.355206 
L 183.274039 60.355206 
L 183.286971 58.775147 
L 194.486564 58.775147 
L 194.486564 57.195089 
L 199.472047 57.195089 
L 199.472047 54.561659 
L 200.964958 54.561659 
L 200.964958 52.9816 
L 224.444049 52.9816 
L 224.444049 51.928228 
L 226.078149 51.928228 
L 226.078149 44.027937 
L 230.009355 44.027937 
L 230.043919 42.974565 
L 230.136194 42.974565 
L 230.224916 39.814448 
L 232.804959 39.814448 
L 232.804959 39.287762 
L 233.914563 39.287762 
L 233.914563 38.761076 
L 243.539879 38.761076 
L 243.559264 36.127646 
L 243.729337 36.127646 
L 243.735395 32.967529 
L 243.928145 32.967529 
L 243.928145 31.914157 
L 244.059832 31.914157 
L 244.059832 31.387471 
L 253.472932 31.387471 
L 253.472932 30.860785 
L 255.666718 30.860785 
L 255.666718 30.334099 
L 338.688 30.334099 
L 338.688 30.334099 
" style="fill:none;stroke:#ff0000;stroke-linecap:square;stroke-width:1.5;"/>
   </g>
   <g id="line2d_55">
    <defs>
     <path d="M 0 -6 
L -5.196152 -3 
L -5.196152 3 
L -0 6 
L 5.196152 3 
L 5.196152 -3 
z
" id="m0463c281c4" style="stroke:#ff0000;stroke-linejoin:miter;stroke-width:1.5;"/>
    </defs>
    <g>
     <use style="fill-opacity:0;stroke:#ff0000;stroke-linejoin:miter;stroke-width:1.5;" x="105.398279" xlink:href="#m0463c281c4" y="238.901787"/>
     <use style="fill-opacity:0;stroke:#ff0000;stroke-linejoin:miter;stroke-width:1.5;" x="166.476842" xlink:href="#m0463c281c4" y="103.543464"/>
     <use style="fill-opacity:0;stroke:#ff0000;stroke-linejoin:miter;stroke-width:1.5;" x="226.078149" xlink:href="#m0463c281c4" y="51.928228"/>
     <use style="fill-opacity:0;stroke:#ff0000;stroke-linejoin:miter;stroke-width:1.5;" x="255.666718" xlink:href="#m0463c281c4" y="30.334099"/>
     <use style="fill-opacity:0;stroke:#ff0000;stroke-linejoin:miter;stroke-width:1.5;" x="255.666718" xlink:href="#m0463c281c4" y="30.334099"/>
     <use style="fill-opacity:0;stroke:#ff0000;stroke-linejoin:miter;stroke-width:1.5;" x="338.688" xlink:href="#m0463c281c4" y="30.334099"/>
    </g>
   </g>
   <g id="line2d_56">
    <path style="fill:none;stroke:#ff0000;stroke-linecap:square;stroke-width:1.5;"/>
    <g/>
   </g>
   <g id="line2d_57">
    <path clip-path="url(#p2ca6fecd97)" d="M 243.526398 38.761076 
" style="fill:none;stroke:#ff0000;stroke-linecap:square;stroke-width:1.5;"/>
    <defs>
     <path d="M -12 12 
L 12 -12 
M -12 -12 
L 12 12 
" id="mb5d1614849" style="stroke:#ff0000;"/>
    </defs>
    <g clip-path="url(#p2ca6fecd97)">
     <use style="fill:#ff0000;stroke:#ff0000;" x="243.526398" xlink:href="#mb5d1614849" y="38.761076"/>
    </g>
   </g>
   <g id="line2d_58">
    <path d="M 338.688 30.334099 
L 369.60768 293.571802 
" style="fill:none;stroke:#ff00ff;stroke-linecap:square;stroke-width:1.5;"/>
    <g>
     <use style="fill-opacity:0;stroke:#ff00ff;stroke-linejoin:miter;stroke-width:1.5;" x="338.688" xlink:href="#med511d6792" y="30.334099"/>
     <use style="fill-opacity:0;stroke:#ff00ff;stroke-linejoin:miter;stroke-width:1.5;" x="369.60768" xlink:href="#med511d6792" y="293.571802"/>
    </g>
   </g>
   <g id="line2d_59">
    <path d="M 338.688 30.334099 
L 369.60768 241.998701 
" style="fill:none;stroke:#000080;stroke-linecap:square;stroke-width:1.5;"/>
    <g>
     <use style="fill-opacity:0;stroke:#000080;stroke-width:1.5;" x="338.688" xlink:href="#md2d021dcc7" y="30.334099"/>
     <use style="fill-opacity:0;stroke:#000080;stroke-width:1.5;" x="369.60768" xlink:href="#md2d021dcc7" y="241.998701"/>
    </g>
   </g>
   <g id="line2d_60">
    <path d="M 338.688 30.334099 
L 369.60768 190.4256 
" style="fill:none;stroke:#ff7500;stroke-linecap:square;stroke-width:1.5;"/>
    <g>
     <use style="fill-opacity:0;stroke:#ff7500;stroke-linejoin:bevel;stroke-width:1.5;" x="338.688" xlink:href="#m35f8ab4171" y="30.334099"/>
     <use style="fill-opacity:0;stroke:#ff7500;stroke-linejoin:bevel;stroke-width:1.5;" x="369.60768" xlink:href="#m35f8ab4171" y="190.4256"/>
    </g>
   </g>
   <g id="line2d_61">
    <path d="M 338.688 30.334099 
L 369.60768 138.852499 
" style="fill:none;stroke:#ff0000;stroke-linecap:square;stroke-width:1.5;"/>
    <g>
     <use style="fill-opacity:0;stroke:#ff0000;stroke-linejoin:miter;stroke-width:1.5;" x="338.688" xlink:href="#m0463c281c4" y="30.334099"/>
     <use style="fill-opacity:0;stroke:#ff0000;stroke-linejoin:miter;stroke-width:1.5;" x="369.60768" xlink:href="#m0463c281c4" y="138.852499"/>
    </g>
   </g>
   <g id="line2d_62">
    <path d="M 338.688 30.334099 
L 369.60768 87.279398 
" style="fill:none;stroke:#6495ed;stroke-linecap:square;stroke-width:1.5;"/>
    <g>
     <use style="fill-opacity:0;stroke:#6495ed;stroke-linejoin:miter;stroke-width:1.5;" x="338.688" xlink:href="#m035107d51a" y="30.334099"/>
     <use style="fill-opacity:0;stroke:#6495ed;stroke-linejoin:miter;stroke-width:1.5;" x="369.60768" xlink:href="#m035107d51a" y="87.279398"/>
    </g>
   </g>
   <g id="line2d_63">
    <path d="M 338.688 298.944 
L 338.688 30.334099 
" style="fill:none;stroke:#000000;stroke-linecap:square;stroke-width:1.5;"/>
   </g>
   <g id="patch_3">
    <path d="M 57.6 298.944 
L 57.6 27.648 
" style="fill:none;stroke:#000000;stroke-linecap:square;stroke-linejoin:miter;stroke-width:0.8;"/>
   </g>
   <g id="patch_4">
    <path d="M 338.688 298.944 
L 338.688 27.648 
" style="fill:none;stroke:#000000;stroke-linecap:square;stroke-linejoin:miter;stroke-width:0.8;"/>
   </g>
   <g id="patch_5">
    <path d="M 57.6 298.944 
L 338.688 298.944 
" style="fill:none;stroke:#000000;stroke-linecap:square;stroke-linejoin:miter;stroke-width:0.8;"/>
   </g>
   <g id="patch_6">
    <path d="M 57.6 27.648 
L 338.688 27.648 
" style="fill:none;stroke:#000000;stroke-linecap:square;stroke-linejoin:miter;stroke-width:0.8;"/>
   </g>
   <g id="text_13">
    <!-- HE-ES Gla -->
    <g transform="translate(375.22944 298.262739)scale(0.17 -0.17)">
     <defs>
      <path d="M 628 4666 
L 1259 4666 
L 1259 2753 
L 3553 2753 
L 3553 4666 
L 4184 4666 
L 4184 0 
L 3553 0 
L 3553 2222 
L 1259 2222 
L 1259 0 
L 628 0 
L 628 4666 
z
" id="DejaVuSans-48" transform="scale(0.015625)"/>
      <path d="M 628 4666 
L 3578 4666 
L 3578 4134 
L 1259 4134 
L 1259 2753 
L 3481 2753 
L 3481 2222 
L 1259 2222 
L 1259 531 
L 3634 531 
L 3634 0 
L 628 0 
L 628 4666 
z
" id="DejaVuSans-45" transform="scale(0.015625)"/>
      <path d="M 3425 4513 
L 3425 3897 
Q 3066 4069 2747 4153 
Q 2428 4238 2131 4238 
Q 1616 4238 1336 4038 
Q 1056 3838 1056 3469 
Q 1056 3159 1242 3001 
Q 1428 2844 1947 2747 
L 2328 2669 
Q 3034 2534 3370 2195 
Q 3706 1856 3706 1288 
Q 3706 609 3251 259 
Q 2797 -91 1919 -91 
Q 1588 -91 1214 -16 
Q 841 59 441 206 
L 441 856 
Q 825 641 1194 531 
Q 1563 422 1919 422 
Q 2459 422 2753 634 
Q 3047 847 3047 1241 
Q 3047 1584 2836 1778 
Q 2625 1972 2144 2069 
L 1759 2144 
Q 1053 2284 737 2584 
Q 422 2884 422 3419 
Q 422 4038 858 4394 
Q 1294 4750 2059 4750 
Q 2388 4750 2728 4690 
Q 3069 4631 3425 4513 
z
" id="DejaVuSans-53" transform="scale(0.015625)"/>
      <path d="M 3809 666 
L 3809 1919 
L 2778 1919 
L 2778 2438 
L 4434 2438 
L 4434 434 
Q 4069 175 3628 42 
Q 3188 -91 2688 -91 
Q 1594 -91 976 548 
Q 359 1188 359 2328 
Q 359 3472 976 4111 
Q 1594 4750 2688 4750 
Q 3144 4750 3555 4637 
Q 3966 4525 4313 4306 
L 4313 3634 
Q 3963 3931 3569 4081 
Q 3175 4231 2741 4231 
Q 1884 4231 1454 3753 
Q 1025 3275 1025 2328 
Q 1025 1384 1454 906 
Q 1884 428 2741 428 
Q 3075 428 3337 486 
Q 3600 544 3809 666 
z
" id="DejaVuSans-47" transform="scale(0.015625)"/>
     </defs>
     <use xlink:href="#DejaVuSans-48"/>
     <use x="75.195312" xlink:href="#DejaVuSans-45"/>
     <use x="138.378906" xlink:href="#DejaVuSans-2d"/>
     <use x="174.462891" xlink:href="#DejaVuSans-45"/>
     <use x="237.646484" xlink:href="#DejaVuSans-53"/>
     <use x="301.123047" xlink:href="#DejaVuSans-20"/>
     <use x="332.910156" xlink:href="#DejaVuSans-47"/>
     <use x="410.400391" xlink:href="#DejaVuSans-6c"/>
     <use x="438.183594" xlink:href="#DejaVuSans-61"/>
    </g>
   </g>
   <g id="text_14">
    <!-- CMA-ES-20 -->
    <g transform="translate(375.22944 246.689638)scale(0.17 -0.17)">
     <defs>
      <path d="M 4122 4306 
L 4122 3641 
Q 3803 3938 3442 4084 
Q 3081 4231 2675 4231 
Q 1875 4231 1450 3742 
Q 1025 3253 1025 2328 
Q 1025 1406 1450 917 
Q 1875 428 2675 428 
Q 3081 428 3442 575 
Q 3803 722 4122 1019 
L 4122 359 
Q 3791 134 3420 21 
Q 3050 -91 2638 -91 
Q 1578 -91 968 557 
Q 359 1206 359 2328 
Q 359 3453 968 4101 
Q 1578 4750 2638 4750 
Q 3056 4750 3426 4639 
Q 3797 4528 4122 4306 
z
" id="DejaVuSans-43" transform="scale(0.015625)"/>
      <path d="M 628 4666 
L 1569 4666 
L 2759 1491 
L 3956 4666 
L 4897 4666 
L 4897 0 
L 4281 0 
L 4281 4097 
L 3078 897 
L 2444 897 
L 1241 4097 
L 1241 0 
L 628 0 
L 628 4666 
z
" id="DejaVuSans-4d" transform="scale(0.015625)"/>
      <path d="M 2188 4044 
L 1331 1722 
L 3047 1722 
L 2188 4044 
z
M 1831 4666 
L 2547 4666 
L 4325 0 
L 3669 0 
L 3244 1197 
L 1141 1197 
L 716 0 
L 50 0 
L 1831 4666 
z
" id="DejaVuSans-41" transform="scale(0.015625)"/>
     </defs>
     <use xlink:href="#DejaVuSans-43"/>
     <use x="69.824219" xlink:href="#DejaVuSans-4d"/>
     <use x="156.103516" xlink:href="#DejaVuSans-41"/>
     <use x="222.261719" xlink:href="#DejaVuSans-2d"/>
     <use x="258.345703" xlink:href="#DejaVuSans-45"/>
     <use x="321.529297" xlink:href="#DejaVuSans-53"/>
     <use x="385.005859" xlink:href="#DejaVuSans-2d"/>
     <use x="421.089844" xlink:href="#DejaVuSans-32"/>
     <use x="484.712891" xlink:href="#DejaVuSans-30"/>
    </g>
   </g>
   <g id="text_15">
    <!-- SLSQP+lq- -->
    <g transform="translate(375.22944 195.116537)scale(0.17 -0.17)">
     <defs>
      <path d="M 628 4666 
L 1259 4666 
L 1259 531 
L 3531 531 
L 3531 0 
L 628 0 
L 628 4666 
z
" id="DejaVuSans-4c" transform="scale(0.015625)"/>
      <path d="M 2522 4238 
Q 1834 4238 1429 3725 
Q 1025 3213 1025 2328 
Q 1025 1447 1429 934 
Q 1834 422 2522 422 
Q 3209 422 3611 934 
Q 4013 1447 4013 2328 
Q 4013 3213 3611 3725 
Q 3209 4238 2522 4238 
z
M 3406 84 
L 4238 -825 
L 3475 -825 
L 2784 -78 
Q 2681 -84 2626 -87 
Q 2572 -91 2522 -91 
Q 1538 -91 948 567 
Q 359 1225 359 2328 
Q 359 3434 948 4092 
Q 1538 4750 2522 4750 
Q 3503 4750 4090 4092 
Q 4678 3434 4678 2328 
Q 4678 1516 4351 937 
Q 4025 359 3406 84 
z
" id="DejaVuSans-51" transform="scale(0.015625)"/>
      <path d="M 1259 4147 
L 1259 2394 
L 2053 2394 
Q 2494 2394 2734 2622 
Q 2975 2850 2975 3272 
Q 2975 3691 2734 3919 
Q 2494 4147 2053 4147 
L 1259 4147 
z
M 628 4666 
L 2053 4666 
Q 2838 4666 3239 4311 
Q 3641 3956 3641 3272 
Q 3641 2581 3239 2228 
Q 2838 1875 2053 1875 
L 1259 1875 
L 1259 0 
L 628 0 
L 628 4666 
z
" id="DejaVuSans-50" transform="scale(0.015625)"/>
      <path d="M 2944 4013 
L 2944 2272 
L 4684 2272 
L 4684 1741 
L 2944 1741 
L 2944 0 
L 2419 0 
L 2419 1741 
L 678 1741 
L 678 2272 
L 2419 2272 
L 2419 4013 
L 2944 4013 
z
" id="DejaVuSans-2b" transform="scale(0.015625)"/>
      <path d="M 947 1747 
Q 947 1113 1208 752 
Q 1469 391 1925 391 
Q 2381 391 2643 752 
Q 2906 1113 2906 1747 
Q 2906 2381 2643 2742 
Q 2381 3103 1925 3103 
Q 1469 3103 1208 2742 
Q 947 2381 947 1747 
z
M 2906 525 
Q 2725 213 2448 61 
Q 2172 -91 1784 -91 
Q 1150 -91 751 415 
Q 353 922 353 1747 
Q 353 2572 751 3078 
Q 1150 3584 1784 3584 
Q 2172 3584 2448 3432 
Q 2725 3281 2906 2969 
L 2906 3500 
L 3481 3500 
L 3481 -1331 
L 2906 -1331 
L 2906 525 
z
" id="DejaVuSans-71" transform="scale(0.015625)"/>
     </defs>
     <use xlink:href="#DejaVuSans-53"/>
     <use x="63.476562" xlink:href="#DejaVuSans-4c"/>
     <use x="119.189453" xlink:href="#DejaVuSans-53"/>
     <use x="182.666016" xlink:href="#DejaVuSans-51"/>
     <use x="261.376953" xlink:href="#DejaVuSans-50"/>
     <use x="321.679688" xlink:href="#DejaVuSans-2b"/>
     <use x="405.46875" xlink:href="#DejaVuSans-6c"/>
     <use x="433.251953" xlink:href="#DejaVuSans-71"/>
     <use x="496.728516" xlink:href="#DejaVuSans-2d"/>
    </g>
   </g>
   <g id="text_16">
    <!-- lq-CMA-ES -->
    <g transform="translate(375.22944 143.543437)scale(0.17 -0.17)">
     <use xlink:href="#DejaVuSans-6c"/>
     <use x="27.783203" xlink:href="#DejaVuSans-71"/>
     <use x="91.259766" xlink:href="#DejaVuSans-2d"/>
     <use x="127.34375" xlink:href="#DejaVuSans-43"/>
     <use x="197.167969" xlink:href="#DejaVuSans-4d"/>
     <use x="283.447266" xlink:href="#DejaVuSans-41"/>
     <use x="349.605469" xlink:href="#DejaVuSans-2d"/>
     <use x="385.689453" xlink:href="#DejaVuSans-45"/>
     <use x="448.873047" xlink:href="#DejaVuSans-53"/>
    </g>
   </g>
   <g id="text_17">
    <!-- SLSQP-11- -->
    <g transform="translate(375.22944 91.970336)scale(0.17 -0.17)">
     <use xlink:href="#DejaVuSans-53"/>
     <use x="63.476562" xlink:href="#DejaVuSans-4c"/>
     <use x="119.189453" xlink:href="#DejaVuSans-53"/>
     <use x="182.666016" xlink:href="#DejaVuSans-51"/>
     <use x="261.376953" xlink:href="#DejaVuSans-50"/>
     <use x="319.429688" xlink:href="#DejaVuSans-2d"/>
     <use x="355.513672" xlink:href="#DejaVuSans-31"/>
     <use x="419.136719" xlink:href="#DejaVuSans-31"/>
     <use x="482.759766" xlink:href="#DejaVuSans-2d"/>
    </g>
   </g>
   <g id="text_18">
    <!-- best 2009 -->
    <g transform="translate(375.22944 40.397235)scale(0.17 -0.17)">
     <defs>
      <path d="M 3116 1747 
Q 3116 2381 2855 2742 
Q 2594 3103 2138 3103 
Q 1681 3103 1420 2742 
Q 1159 2381 1159 1747 
Q 1159 1113 1420 752 
Q 1681 391 2138 391 
Q 2594 391 2855 752 
Q 3116 1113 3116 1747 
z
M 1159 2969 
Q 1341 3281 1617 3432 
Q 1894 3584 2278 3584 
Q 2916 3584 3314 3078 
Q 3713 2572 3713 1747 
Q 3713 922 3314 415 
Q 2916 -91 2278 -91 
Q 1894 -91 1617 61 
Q 1341 213 1159 525 
L 1159 0 
L 581 0 
L 581 4863 
L 1159 4863 
L 1159 2969 
z
" id="DejaVuSans-62" transform="scale(0.015625)"/>
      <path d="M 703 97 
L 703 672 
Q 941 559 1184 500 
Q 1428 441 1663 441 
Q 2288 441 2617 861 
Q 2947 1281 2994 2138 
Q 2813 1869 2534 1725 
Q 2256 1581 1919 1581 
Q 1219 1581 811 2004 
Q 403 2428 403 3163 
Q 403 3881 828 4315 
Q 1253 4750 1959 4750 
Q 2769 4750 3195 4129 
Q 3622 3509 3622 2328 
Q 3622 1225 3098 567 
Q 2575 -91 1691 -91 
Q 1453 -91 1209 -44 
Q 966 3 703 97 
z
M 1959 2075 
Q 2384 2075 2632 2365 
Q 2881 2656 2881 3163 
Q 2881 3666 2632 3958 
Q 2384 4250 1959 4250 
Q 1534 4250 1286 3958 
Q 1038 3666 1038 3163 
Q 1038 2656 1286 2365 
Q 1534 2075 1959 2075 
z
" id="DejaVuSans-39" transform="scale(0.015625)"/>
     </defs>
     <use xlink:href="#DejaVuSans-62"/>
     <use x="63.476562" xlink:href="#DejaVuSans-65"/>
     <use x="125" xlink:href="#DejaVuSans-73"/>
     <use x="177.099609" xlink:href="#DejaVuSans-74"/>
     <use x="216.308594" xlink:href="#DejaVuSans-20"/>
     <use x="248.095703" xlink:href="#DejaVuSans-32"/>
     <use x="311.71875" xlink:href="#DejaVuSans-30"/>
     <use x="375.341797" xlink:href="#DejaVuSans-30"/>
     <use x="438.964844" xlink:href="#DejaVuSans-39"/>
    </g>
   </g>
   <g id="text_19">
    <!-- bbob f22, 2-D -->
    <g transform="translate(60.41088 38.111366)scale(0.102 -0.102)">
     <defs>
      <path d="M 1259 4147 
L 1259 519 
L 2022 519 
Q 2988 519 3436 956 
Q 3884 1394 3884 2338 
Q 3884 3275 3436 3711 
Q 2988 4147 2022 4147 
L 1259 4147 
z
M 628 4666 
L 1925 4666 
Q 3281 4666 3915 4102 
Q 4550 3538 4550 2338 
Q 4550 1131 3912 565 
Q 3275 0 1925 0 
L 628 0 
L 628 4666 
z
" id="DejaVuSans-44" transform="scale(0.015625)"/>
     </defs>
     <use xlink:href="#DejaVuSans-62"/>
     <use x="63.476562" xlink:href="#DejaVuSans-62"/>
     <use x="126.953125" xlink:href="#DejaVuSans-6f"/>
     <use x="188.134766" xlink:href="#DejaVuSans-62"/>
     <use x="251.611328" xlink:href="#DejaVuSans-20"/>
     <use x="283.398438" xlink:href="#DejaVuSans-66"/>
     <use x="318.603516" xlink:href="#DejaVuSans-32"/>
     <use x="382.226562" xlink:href="#DejaVuSans-32"/>
     <use x="445.849609" xlink:href="#DejaVuSans-2c"/>
     <use x="477.636719" xlink:href="#DejaVuSans-20"/>
     <use x="509.423828" xlink:href="#DejaVuSans-32"/>
     <use x="573.046875" xlink:href="#DejaVuSans-2d"/>
     <use x="609.130859" xlink:href="#DejaVuSans-44"/>
    </g>
    <!-- 51 targets: 100..1e-08 -->
    <g transform="translate(60.41088 49.533135)scale(0.102 -0.102)">
     <defs>
      <path d="M 691 4666 
L 3169 4666 
L 3169 4134 
L 1269 4134 
L 1269 2991 
Q 1406 3038 1543 3061 
Q 1681 3084 1819 3084 
Q 2600 3084 3056 2656 
Q 3513 2228 3513 1497 
Q 3513 744 3044 326 
Q 2575 -91 1722 -91 
Q 1428 -91 1123 -41 
Q 819 9 494 109 
L 494 744 
Q 775 591 1075 516 
Q 1375 441 1709 441 
Q 2250 441 2565 725 
Q 2881 1009 2881 1497 
Q 2881 1984 2565 2268 
Q 2250 2553 1709 2553 
Q 1456 2553 1204 2497 
Q 953 2441 691 2322 
L 691 4666 
z
" id="DejaVuSans-35" transform="scale(0.015625)"/>
      <path d="M 750 794 
L 1409 794 
L 1409 0 
L 750 0 
L 750 794 
z
M 750 3309 
L 1409 3309 
L 1409 2516 
L 750 2516 
L 750 3309 
z
" id="DejaVuSans-3a" transform="scale(0.015625)"/>
     </defs>
     <use xlink:href="#DejaVuSans-35"/>
     <use x="63.623047" xlink:href="#DejaVuSans-31"/>
     <use x="127.246094" xlink:href="#DejaVuSans-20"/>
     <use x="159.033203" xlink:href="#DejaVuSans-74"/>
     <use x="198.242188" xlink:href="#DejaVuSans-61"/>
     <use x="259.521484" xlink:href="#DejaVuSans-72"/>
     <use x="298.884766" xlink:href="#DejaVuSans-67"/>
     <use x="362.361328" xlink:href="#DejaVuSans-65"/>
     <use x="423.884766" xlink:href="#DejaVuSans-74"/>
     <use x="463.09375" xlink:href="#DejaVuSans-73"/>
     <use x="515.193359" xlink:href="#DejaVuSans-3a"/>
     <use x="548.884766" xlink:href="#DejaVuSans-20"/>
     <use x="580.671875" xlink:href="#DejaVuSans-31"/>
     <use x="644.294922" xlink:href="#DejaVuSans-30"/>
     <use x="707.917969" xlink:href="#DejaVuSans-30"/>
     <use x="771.541016" xlink:href="#DejaVuSans-2e"/>
     <use x="803.328125" xlink:href="#DejaVuSans-2e"/>
     <use x="835.115234" xlink:href="#DejaVuSans-31"/>
     <use x="898.738281" xlink:href="#DejaVuSans-65"/>
     <use x="960.261719" xlink:href="#DejaVuSans-2d"/>
     <use x="996.345703" xlink:href="#DejaVuSans-30"/>
     <use x="1059.96875" xlink:href="#DejaVuSans-38"/>
    </g>
    <!-- 15 instances -->
    <g transform="translate(60.41088 60.954904)scale(0.102 -0.102)">
     <use xlink:href="#DejaVuSans-31"/>
     <use x="63.623047" xlink:href="#DejaVuSans-35"/>
     <use x="127.246094" xlink:href="#DejaVuSans-20"/>
     <use x="159.033203" xlink:href="#DejaVuSans-69"/>
     <use x="186.816406" xlink:href="#DejaVuSans-6e"/>
     <use x="250.195312" xlink:href="#DejaVuSans-73"/>
     <use x="302.294922" xlink:href="#DejaVuSans-74"/>
     <use x="341.503906" xlink:href="#DejaVuSans-61"/>
     <use x="402.783203" xlink:href="#DejaVuSans-6e"/>
     <use x="466.162109" xlink:href="#DejaVuSans-63"/>
     <use x="521.142578" xlink:href="#DejaVuSans-65"/>
     <use x="582.666016" xlink:href="#DejaVuSans-73"/>
    </g>
   </g>
   <g id="text_20">
    <!-- v2.4.1.1 -->
    <g style="fill:#808080;" transform="translate(177.692437 294.151352)scale(0.1 -0.1)">
     <use xlink:href="#DejaVuSans-76"/>
     <use x="59.179688" xlink:href="#DejaVuSans-32"/>
     <use x="122.802734" xlink:href="#DejaVuSans-2e"/>
     <use x="154.589844" xlink:href="#DejaVuSans-34"/>
     <use x="218.212891" xlink:href="#DejaVuSans-2e"/>
     <use x="250" xlink:href="#DejaVuSans-31"/>
     <use x="313.623047" xlink:href="#DejaVuSans-2e"/>
     <use x="345.410156" xlink:href="#DejaVuSans-31"/>
    </g>
   </g>
   <g id="text_21">
    <!-- 22 Gallagher 21 peaks -->
    <g transform="translate(85.019 21.648)scale(0.2 -0.2)">
     <defs>
      <path d="M 3513 2113 
L 3513 0 
L 2938 0 
L 2938 2094 
Q 2938 2591 2744 2837 
Q 2550 3084 2163 3084 
Q 1697 3084 1428 2787 
Q 1159 2491 1159 1978 
L 1159 0 
L 581 0 
L 581 4863 
L 1159 4863 
L 1159 2956 
Q 1366 3272 1645 3428 
Q 1925 3584 2291 3584 
Q 2894 3584 3203 3211 
Q 3513 2838 3513 2113 
z
" id="DejaVuSans-68" transform="scale(0.015625)"/>
      <path d="M 581 4863 
L 1159 4863 
L 1159 1991 
L 2875 3500 
L 3609 3500 
L 1753 1863 
L 3688 0 
L 2938 0 
L 1159 1709 
L 1159 0 
L 581 0 
L 581 4863 
z
" id="DejaVuSans-6b" transform="scale(0.015625)"/>
     </defs>
     <use xlink:href="#DejaVuSans-32"/>
     <use x="63.623047" xlink:href="#DejaVuSans-32"/>
     <use x="127.246094" xlink:href="#DejaVuSans-20"/>
     <use x="159.033203" xlink:href="#DejaVuSans-47"/>
     <use x="236.523438" xlink:href="#DejaVuSans-61"/>
     <use x="297.802734" xlink:href="#DejaVuSans-6c"/>
     <use x="325.585938" xlink:href="#DejaVuSans-6c"/>
     <use x="353.369141" xlink:href="#DejaVuSans-61"/>
     <use x="414.648438" xlink:href="#DejaVuSans-67"/>
     <use x="478.125" xlink:href="#DejaVuSans-68"/>
     <use x="541.503906" xlink:href="#DejaVuSans-65"/>
     <use x="603.027344" xlink:href="#DejaVuSans-72"/>
     <use x="644.140625" xlink:href="#DejaVuSans-20"/>
     <use x="675.927734" xlink:href="#DejaVuSans-32"/>
     <use x="739.550781" xlink:href="#DejaVuSans-31"/>
     <use x="803.173828" xlink:href="#DejaVuSans-20"/>
     <use x="834.960938" xlink:href="#DejaVuSans-70"/>
     <use x="898.4375" xlink:href="#DejaVuSans-65"/>
     <use x="959.960938" xlink:href="#DejaVuSans-61"/>
     <use x="1021.240234" xlink:href="#DejaVuSans-6b"/>
     <use x="1079.150391" xlink:href="#DejaVuSans-73"/>
    </g>
   </g>
  </g>
 </g>
 <defs>
  <clipPath id="p2ca6fecd97">
   <rect height="271.296" width="281.088" x="57.6" y="27.648"/>
  </clipPath>
 </defs>
</svg>
