<?xml version="1.0" encoding="utf-8" standalone="no"?>
<!DOCTYPE svg PUBLIC "-//W3C//DTD SVG 1.1//EN"
  "http://www.w3.org/Graphics/SVG/1.1/DTD/svg11.dtd">
<svg height="345.6pt" version="1.1" viewBox="0 0 460.8 345.6" width="460.8pt" xmlns="http://www.w3.org/2000/svg" xmlns:xlink="http://www.w3.org/1999/xlink">
 <metadata>
  <rdf:RDF xmlns:cc="http://creativecommons.org/ns#" xmlns:dc="http://purl.org/dc/elements/1.1/" xmlns:rdf="http://www.w3.org/1999/02/22-rdf-syntax-ns#">
   <cc:Work>
    <dc:type rdf:resource="http://purl.org/dc/dcmitype/StillImage"/>
    <dc:date>2022-03-29T11:28:33.429521</dc:date>
    <dc:format>image/svg+xml</dc:format>
    <dc:creator>
     <cc:Agent>
      <dc:title>Matplotlib v3.4.3, https://matplotlib.org/</dc:title>
     </cc:Agent>
    </dc:creator>
   </cc:Work>
  </rdf:RDF>
 </metadata>
 <defs>
  <style type="text/css">*{stroke-linecap:butt;stroke-linejoin:round;}</style>
 </defs>
 <g id="figure_1">
  <g id="patch_1">
   <path d="M 0 345.6 
L 460.8 345.6 
L 460.8 0 
L 0 0 
z
" style="fill:#ffffff;"/>
  </g>
  <g id="axes_1">
   <g id="patch_2">
    <path d="M 57.6 298.944 
L 338.688 298.944 
L 338.688 27.648 
L 57.6 27.648 
z
" style="fill:#ffffff;"/>
   </g>
   <g id="line2d_1">
    <path d="M 177.479727 298.944 
L 177.479727 293.677139 
L 201.983339 293.677139 
L 201.983339 288.410278 
L 230.164287 288.410278 
L 230.164287 283.143418 
L 230.194485 283.143418 
L 230.194485 277.876557 
L 239.078617 277.876557 
L 239.078617 272.609696 
L 264.991202 272.609696 
L 264.991202 267.342835 
L 299.767469 267.342835 
L 299.767469 262.075974 
L 303.129647 262.075974 
L 303.129647 256.809114 
L 307.244286 256.809114 
L 307.244286 251.542253 
L 314.189555 251.542253 
L 314.189555 246.275392 
L 314.192029 246.275392 
L 314.192029 241.008531 
L 314.195299 241.008531 
L 314.195299 235.74167 
L 321.553106 235.74167 
L 321.553106 230.47481 
L 321.554571 230.47481 
L 321.554571 225.207949 
L 321.557412 225.207949 
L 321.557412 219.941088 
L 333.680273 219.941088 
L 333.680273 214.674227 
L 333.681204 214.674227 
L 333.681204 209.407366 
L 333.681605 209.407366 
L 333.681605 204.140506 
L 333.682327 204.140506 
L 333.682327 198.873645 
L 333.682984 198.873645 
L 333.682984 193.606784 
L 333.683347 193.606784 
L 333.683347 188.339923 
L 333.68379 188.339923 
L 333.68379 183.073062 
L 333.684416 183.073062 
L 333.684416 177.806202 
L 333.684848 177.806202 
L 333.684848 172.539341 
L 333.685139 172.539341 
L 333.685139 167.27248 
L 333.685896 167.27248 
L 333.685896 162.005619 
L 333.686253 162.005619 
L 333.686253 156.738758 
L 333.686957 156.738758 
L 333.686957 151.471897 
L 333.68739 151.471897 
L 333.68739 146.205037 
L 333.687672 146.205037 
L 333.687672 140.938176 
L 333.688552 140.938176 
L 333.688552 135.671315 
L 333.689065 135.671315 
L 333.689065 130.404454 
L 333.689204 130.404454 
L 333.689204 125.137593 
L 333.689891 125.137593 
L 333.689891 119.870733 
L 333.690502 119.870733 
L 333.690502 114.603872 
L 333.690994 114.603872 
L 333.690994 109.337011 
L 333.691633 109.337011 
L 333.691633 104.07015 
L 333.691915 104.07015 
L 333.691915 98.803289 
L 333.692603 98.803289 
L 333.692603 93.536429 
L 333.693049 93.536429 
L 333.693049 88.269568 
L 333.693636 88.269568 
L 333.693636 83.002707 
L 333.694098 83.002707 
L 333.694098 77.735846 
L 333.694797 77.735846 
L 333.694797 72.468985 
L 333.694991 72.468985 
L 333.694991 67.202125 
L 333.695657 67.202125 
L 333.695657 61.935264 
L 333.696246 61.935264 
L 333.696246 56.668403 
L 333.696619 56.668403 
L 333.696619 51.401542 
L 333.69712 51.401542 
L 333.69712 46.134681 
L 333.697687 46.134681 
L 333.697687 40.867821 
L 333.698357 40.867821 
L 333.698357 35.60096 
L 333.698792 35.60096 
L 333.698792 30.334099 
L 338.688 30.334099 
" style="fill:none;stroke:#f5deb3;stroke-linecap:square;stroke-width:4;"/>
   </g>
   <g id="line2d_2">
    <defs>
     <path d="M 0 7.778175 
L 7.778175 0 
L 0 -7.778175 
L -7.778175 0 
z
" id="m35d4e862dc" style="stroke:#f5deb3;stroke-linejoin:miter;stroke-width:1.5;"/>
    </defs>
    <g>
     <use style="fill:#f5deb3;stroke:#f5deb3;stroke-linejoin:miter;stroke-width:1.5;" x="264.991202" xlink:href="#m35d4e862dc" y="272.609696"/>
     <use style="fill:#f5deb3;stroke:#f5deb3;stroke-linejoin:miter;stroke-width:1.5;" x="333.686957" xlink:href="#m35d4e862dc" y="151.471897"/>
     <use style="fill:#f5deb3;stroke:#f5deb3;stroke-linejoin:miter;stroke-width:1.5;" x="333.698792" xlink:href="#m35d4e862dc" y="30.334099"/>
     <use style="fill:#f5deb3;stroke:#f5deb3;stroke-linejoin:miter;stroke-width:1.5;" x="338.688" xlink:href="#m35d4e862dc" y="30.334099"/>
    </g>
   </g>
   <g id="line2d_3">
    <path style="fill:none;stroke:#f5deb3;stroke-linecap:square;stroke-width:4;"/>
    <g/>
   </g>
   <g id="line2d_4">
    <path d="M 338.688 30.334099 
L 369.60768 35.706297 
" style="fill:none;stroke:#f5deb3;stroke-linecap:square;stroke-width:4;"/>
    <g>
     <use style="fill:#f5deb3;stroke:#f5deb3;stroke-linejoin:miter;stroke-width:1.5;" x="338.688" xlink:href="#m35d4e862dc" y="30.334099"/>
     <use style="fill:#f5deb3;stroke:#f5deb3;stroke-linejoin:miter;stroke-width:1.5;" x="369.60768" xlink:href="#m35d4e862dc" y="35.706297"/>
    </g>
   </g>
   <g id="matplotlib.axis_1">
    <g id="xtick_1">
     <g id="line2d_5">
      <path clip-path="url(#pec95154c07)" d="M 57.6 298.944 
L 57.6 27.648 
" style="fill:none;stroke:#b0b0b0;stroke-linecap:square;stroke-width:0.8;"/>
     </g>
     <g id="line2d_6">
      <defs>
       <path d="M 0 0 
L 0 3.5 
" id="mca5dee1181" style="stroke:#000000;stroke-width:0.8;"/>
      </defs>
      <g>
       <use style="stroke:#000000;stroke-width:0.8;" x="57.6" xlink:href="#mca5dee1181" y="298.944"/>
      </g>
     </g>
     <g id="text_1">
      <!-- 0 -->
      <g transform="translate(51.2375 321.140875)scale(0.2 -0.2)">
       <defs>
        <path d="M 2034 4250 
Q 1547 4250 1301 3770 
Q 1056 3291 1056 2328 
Q 1056 1369 1301 889 
Q 1547 409 2034 409 
Q 2525 409 2770 889 
Q 3016 1369 3016 2328 
Q 3016 3291 2770 3770 
Q 2525 4250 2034 4250 
z
M 2034 4750 
Q 2819 4750 3233 4129 
Q 3647 3509 3647 2328 
Q 3647 1150 3233 529 
Q 2819 -91 2034 -91 
Q 1250 -91 836 529 
Q 422 1150 422 2328 
Q 422 3509 836 4129 
Q 1250 4750 2034 4750 
z
" id="DejaVuSans-30" transform="scale(0.015625)"/>
       </defs>
       <use xlink:href="#DejaVuSans-30"/>
      </g>
     </g>
    </g>
    <g id="xtick_2">
     <g id="line2d_7">
      <path clip-path="url(#pec95154c07)" d="M 137.910857 298.944 
L 137.910857 27.648 
" style="fill:none;stroke:#b0b0b0;stroke-linecap:square;stroke-width:0.8;"/>
     </g>
     <g id="line2d_8">
      <g>
       <use style="stroke:#000000;stroke-width:0.8;" x="137.910857" xlink:href="#mca5dee1181" y="298.944"/>
      </g>
     </g>
     <g id="text_2">
      <!-- 2 -->
      <g transform="translate(131.548357 321.140875)scale(0.2 -0.2)">
       <defs>
        <path d="M 1228 531 
L 3431 531 
L 3431 0 
L 469 0 
L 469 531 
Q 828 903 1448 1529 
Q 2069 2156 2228 2338 
Q 2531 2678 2651 2914 
Q 2772 3150 2772 3378 
Q 2772 3750 2511 3984 
Q 2250 4219 1831 4219 
Q 1534 4219 1204 4116 
Q 875 4013 500 3803 
L 500 4441 
Q 881 4594 1212 4672 
Q 1544 4750 1819 4750 
Q 2544 4750 2975 4387 
Q 3406 4025 3406 3419 
Q 3406 3131 3298 2873 
Q 3191 2616 2906 2266 
Q 2828 2175 2409 1742 
Q 1991 1309 1228 531 
z
" id="DejaVuSans-32" transform="scale(0.015625)"/>
       </defs>
       <use xlink:href="#DejaVuSans-32"/>
      </g>
     </g>
    </g>
    <g id="xtick_3">
     <g id="line2d_9">
      <path clip-path="url(#pec95154c07)" d="M 218.221714 298.944 
L 218.221714 27.648 
" style="fill:none;stroke:#b0b0b0;stroke-linecap:square;stroke-width:0.8;"/>
     </g>
     <g id="line2d_10">
      <g>
       <use style="stroke:#000000;stroke-width:0.8;" x="218.221714" xlink:href="#mca5dee1181" y="298.944"/>
      </g>
     </g>
     <g id="text_3">
      <!-- 4 -->
      <g transform="translate(211.859214 321.140875)scale(0.2 -0.2)">
       <defs>
        <path d="M 2419 4116 
L 825 1625 
L 2419 1625 
L 2419 4116 
z
M 2253 4666 
L 3047 4666 
L 3047 1625 
L 3713 1625 
L 3713 1100 
L 3047 1100 
L 3047 0 
L 2419 0 
L 2419 1100 
L 313 1100 
L 313 1709 
L 2253 4666 
z
" id="DejaVuSans-34" transform="scale(0.015625)"/>
       </defs>
       <use xlink:href="#DejaVuSans-34"/>
      </g>
     </g>
    </g>
    <g id="xtick_4">
     <g id="line2d_11">
      <path clip-path="url(#pec95154c07)" d="M 298.532571 298.944 
L 298.532571 27.648 
" style="fill:none;stroke:#b0b0b0;stroke-linecap:square;stroke-width:0.8;"/>
     </g>
     <g id="line2d_12">
      <g>
       <use style="stroke:#000000;stroke-width:0.8;" x="298.532571" xlink:href="#mca5dee1181" y="298.944"/>
      </g>
     </g>
     <g id="text_4">
      <!-- 6 -->
      <g transform="translate(292.170071 321.140875)scale(0.2 -0.2)">
       <defs>
        <path d="M 2113 2584 
Q 1688 2584 1439 2293 
Q 1191 2003 1191 1497 
Q 1191 994 1439 701 
Q 1688 409 2113 409 
Q 2538 409 2786 701 
Q 3034 994 3034 1497 
Q 3034 2003 2786 2293 
Q 2538 2584 2113 2584 
z
M 3366 4563 
L 3366 3988 
Q 3128 4100 2886 4159 
Q 2644 4219 2406 4219 
Q 1781 4219 1451 3797 
Q 1122 3375 1075 2522 
Q 1259 2794 1537 2939 
Q 1816 3084 2150 3084 
Q 2853 3084 3261 2657 
Q 3669 2231 3669 1497 
Q 3669 778 3244 343 
Q 2819 -91 2113 -91 
Q 1303 -91 875 529 
Q 447 1150 447 2328 
Q 447 3434 972 4092 
Q 1497 4750 2381 4750 
Q 2619 4750 2861 4703 
Q 3103 4656 3366 4563 
z
" id="DejaVuSans-36" transform="scale(0.015625)"/>
       </defs>
       <use xlink:href="#DejaVuSans-36"/>
      </g>
     </g>
    </g>
    <g id="xtick_5">
     <g id="line2d_13">
      <path clip-path="url(#pec95154c07)" d="M 97.755429 298.944 
L 97.755429 27.648 
" style="fill:none;stroke:#b0b0b0;stroke-linecap:square;stroke-width:0.8;"/>
     </g>
     <g id="line2d_14">
      <defs>
       <path d="M 0 0 
L 0 2 
" id="m0db060133c" style="stroke:#000000;stroke-width:0.6;"/>
      </defs>
      <g>
       <use style="stroke:#000000;stroke-width:0.6;" x="97.755429" xlink:href="#m0db060133c" y="298.944"/>
      </g>
     </g>
    </g>
    <g id="xtick_6">
     <g id="line2d_15">
      <path clip-path="url(#pec95154c07)" d="M 178.066286 298.944 
L 178.066286 27.648 
" style="fill:none;stroke:#b0b0b0;stroke-linecap:square;stroke-width:0.8;"/>
     </g>
     <g id="line2d_16">
      <g>
       <use style="stroke:#000000;stroke-width:0.6;" x="178.066286" xlink:href="#m0db060133c" y="298.944"/>
      </g>
     </g>
    </g>
    <g id="xtick_7">
     <g id="line2d_17">
      <path clip-path="url(#pec95154c07)" d="M 258.377143 298.944 
L 258.377143 27.648 
" style="fill:none;stroke:#b0b0b0;stroke-linecap:square;stroke-width:0.8;"/>
     </g>
     <g id="line2d_18">
      <g>
       <use style="stroke:#000000;stroke-width:0.6;" x="258.377143" xlink:href="#m0db060133c" y="298.944"/>
      </g>
     </g>
    </g>
    <g id="xtick_8">
     <g id="line2d_19">
      <path clip-path="url(#pec95154c07)" d="M 338.688 298.944 
L 338.688 27.648 
" style="fill:none;stroke:#b0b0b0;stroke-linecap:square;stroke-width:0.8;"/>
     </g>
     <g id="line2d_20">
      <g>
       <use style="stroke:#000000;stroke-width:0.6;" x="338.688" xlink:href="#m0db060133c" y="298.944"/>
      </g>
     </g>
    </g>
    <g id="text_5">
     <!-- log10(# f-evals / dimension) -->
     <g transform="translate(77.764078 342.217594)scale(0.17 -0.17)">
      <defs>
       <path d="M 603 4863 
L 1178 4863 
L 1178 0 
L 603 0 
L 603 4863 
z
" id="DejaVuSans-6c" transform="scale(0.015625)"/>
       <path d="M 1959 3097 
Q 1497 3097 1228 2736 
Q 959 2375 959 1747 
Q 959 1119 1226 758 
Q 1494 397 1959 397 
Q 2419 397 2687 759 
Q 2956 1122 2956 1747 
Q 2956 2369 2687 2733 
Q 2419 3097 1959 3097 
z
M 1959 3584 
Q 2709 3584 3137 3096 
Q 3566 2609 3566 1747 
Q 3566 888 3137 398 
Q 2709 -91 1959 -91 
Q 1206 -91 779 398 
Q 353 888 353 1747 
Q 353 2609 779 3096 
Q 1206 3584 1959 3584 
z
" id="DejaVuSans-6f" transform="scale(0.015625)"/>
       <path d="M 2906 1791 
Q 2906 2416 2648 2759 
Q 2391 3103 1925 3103 
Q 1463 3103 1205 2759 
Q 947 2416 947 1791 
Q 947 1169 1205 825 
Q 1463 481 1925 481 
Q 2391 481 2648 825 
Q 2906 1169 2906 1791 
z
M 3481 434 
Q 3481 -459 3084 -895 
Q 2688 -1331 1869 -1331 
Q 1566 -1331 1297 -1286 
Q 1028 -1241 775 -1147 
L 775 -588 
Q 1028 -725 1275 -790 
Q 1522 -856 1778 -856 
Q 2344 -856 2625 -561 
Q 2906 -266 2906 331 
L 2906 616 
Q 2728 306 2450 153 
Q 2172 0 1784 0 
Q 1141 0 747 490 
Q 353 981 353 1791 
Q 353 2603 747 3093 
Q 1141 3584 1784 3584 
Q 2172 3584 2450 3431 
Q 2728 3278 2906 2969 
L 2906 3500 
L 3481 3500 
L 3481 434 
z
" id="DejaVuSans-67" transform="scale(0.015625)"/>
       <path d="M 794 531 
L 1825 531 
L 1825 4091 
L 703 3866 
L 703 4441 
L 1819 4666 
L 2450 4666 
L 2450 531 
L 3481 531 
L 3481 0 
L 794 0 
L 794 531 
z
" id="DejaVuSans-31" transform="scale(0.015625)"/>
       <path d="M 1984 4856 
Q 1566 4138 1362 3434 
Q 1159 2731 1159 2009 
Q 1159 1288 1364 580 
Q 1569 -128 1984 -844 
L 1484 -844 
Q 1016 -109 783 600 
Q 550 1309 550 2009 
Q 550 2706 781 3412 
Q 1013 4119 1484 4856 
L 1984 4856 
z
" id="DejaVuSans-28" transform="scale(0.015625)"/>
       <path d="M 3272 2816 
L 2363 2816 
L 2100 1772 
L 3016 1772 
L 3272 2816 
z
M 2803 4594 
L 2478 3297 
L 3391 3297 
L 3719 4594 
L 4219 4594 
L 3897 3297 
L 4872 3297 
L 4872 2816 
L 3775 2816 
L 3519 1772 
L 4513 1772 
L 4513 1294 
L 3397 1294 
L 3072 0 
L 2572 0 
L 2894 1294 
L 1978 1294 
L 1656 0 
L 1153 0 
L 1478 1294 
L 494 1294 
L 494 1772 
L 1594 1772 
L 1856 2816 
L 850 2816 
L 850 3297 
L 1978 3297 
L 2297 4594 
L 2803 4594 
z
" id="DejaVuSans-23" transform="scale(0.015625)"/>
       <path id="DejaVuSans-20" transform="scale(0.015625)"/>
       <path d="M 2375 4863 
L 2375 4384 
L 1825 4384 
Q 1516 4384 1395 4259 
Q 1275 4134 1275 3809 
L 1275 3500 
L 2222 3500 
L 2222 3053 
L 1275 3053 
L 1275 0 
L 697 0 
L 697 3053 
L 147 3053 
L 147 3500 
L 697 3500 
L 697 3744 
Q 697 4328 969 4595 
Q 1241 4863 1831 4863 
L 2375 4863 
z
" id="DejaVuSans-66" transform="scale(0.015625)"/>
       <path d="M 313 2009 
L 1997 2009 
L 1997 1497 
L 313 1497 
L 313 2009 
z
" id="DejaVuSans-2d" transform="scale(0.015625)"/>
       <path d="M 3597 1894 
L 3597 1613 
L 953 1613 
Q 991 1019 1311 708 
Q 1631 397 2203 397 
Q 2534 397 2845 478 
Q 3156 559 3463 722 
L 3463 178 
Q 3153 47 2828 -22 
Q 2503 -91 2169 -91 
Q 1331 -91 842 396 
Q 353 884 353 1716 
Q 353 2575 817 3079 
Q 1281 3584 2069 3584 
Q 2775 3584 3186 3129 
Q 3597 2675 3597 1894 
z
M 3022 2063 
Q 3016 2534 2758 2815 
Q 2500 3097 2075 3097 
Q 1594 3097 1305 2825 
Q 1016 2553 972 2059 
L 3022 2063 
z
" id="DejaVuSans-65" transform="scale(0.015625)"/>
       <path d="M 191 3500 
L 800 3500 
L 1894 563 
L 2988 3500 
L 3597 3500 
L 2284 0 
L 1503 0 
L 191 3500 
z
" id="DejaVuSans-76" transform="scale(0.015625)"/>
       <path d="M 2194 1759 
Q 1497 1759 1228 1600 
Q 959 1441 959 1056 
Q 959 750 1161 570 
Q 1363 391 1709 391 
Q 2188 391 2477 730 
Q 2766 1069 2766 1631 
L 2766 1759 
L 2194 1759 
z
M 3341 1997 
L 3341 0 
L 2766 0 
L 2766 531 
Q 2569 213 2275 61 
Q 1981 -91 1556 -91 
Q 1019 -91 701 211 
Q 384 513 384 1019 
Q 384 1609 779 1909 
Q 1175 2209 1959 2209 
L 2766 2209 
L 2766 2266 
Q 2766 2663 2505 2880 
Q 2244 3097 1772 3097 
Q 1472 3097 1187 3025 
Q 903 2953 641 2809 
L 641 3341 
Q 956 3463 1253 3523 
Q 1550 3584 1831 3584 
Q 2591 3584 2966 3190 
Q 3341 2797 3341 1997 
z
" id="DejaVuSans-61" transform="scale(0.015625)"/>
       <path d="M 2834 3397 
L 2834 2853 
Q 2591 2978 2328 3040 
Q 2066 3103 1784 3103 
Q 1356 3103 1142 2972 
Q 928 2841 928 2578 
Q 928 2378 1081 2264 
Q 1234 2150 1697 2047 
L 1894 2003 
Q 2506 1872 2764 1633 
Q 3022 1394 3022 966 
Q 3022 478 2636 193 
Q 2250 -91 1575 -91 
Q 1294 -91 989 -36 
Q 684 19 347 128 
L 347 722 
Q 666 556 975 473 
Q 1284 391 1588 391 
Q 1994 391 2212 530 
Q 2431 669 2431 922 
Q 2431 1156 2273 1281 
Q 2116 1406 1581 1522 
L 1381 1569 
Q 847 1681 609 1914 
Q 372 2147 372 2553 
Q 372 3047 722 3315 
Q 1072 3584 1716 3584 
Q 2034 3584 2315 3537 
Q 2597 3491 2834 3397 
z
" id="DejaVuSans-73" transform="scale(0.015625)"/>
       <path d="M 1625 4666 
L 2156 4666 
L 531 -594 
L 0 -594 
L 1625 4666 
z
" id="DejaVuSans-2f" transform="scale(0.015625)"/>
       <path d="M 2906 2969 
L 2906 4863 
L 3481 4863 
L 3481 0 
L 2906 0 
L 2906 525 
Q 2725 213 2448 61 
Q 2172 -91 1784 -91 
Q 1150 -91 751 415 
Q 353 922 353 1747 
Q 353 2572 751 3078 
Q 1150 3584 1784 3584 
Q 2172 3584 2448 3432 
Q 2725 3281 2906 2969 
z
M 947 1747 
Q 947 1113 1208 752 
Q 1469 391 1925 391 
Q 2381 391 2643 752 
Q 2906 1113 2906 1747 
Q 2906 2381 2643 2742 
Q 2381 3103 1925 3103 
Q 1469 3103 1208 2742 
Q 947 2381 947 1747 
z
" id="DejaVuSans-64" transform="scale(0.015625)"/>
       <path d="M 603 3500 
L 1178 3500 
L 1178 0 
L 603 0 
L 603 3500 
z
M 603 4863 
L 1178 4863 
L 1178 4134 
L 603 4134 
L 603 4863 
z
" id="DejaVuSans-69" transform="scale(0.015625)"/>
       <path d="M 3328 2828 
Q 3544 3216 3844 3400 
Q 4144 3584 4550 3584 
Q 5097 3584 5394 3201 
Q 5691 2819 5691 2113 
L 5691 0 
L 5113 0 
L 5113 2094 
Q 5113 2597 4934 2840 
Q 4756 3084 4391 3084 
Q 3944 3084 3684 2787 
Q 3425 2491 3425 1978 
L 3425 0 
L 2847 0 
L 2847 2094 
Q 2847 2600 2669 2842 
Q 2491 3084 2119 3084 
Q 1678 3084 1418 2786 
Q 1159 2488 1159 1978 
L 1159 0 
L 581 0 
L 581 3500 
L 1159 3500 
L 1159 2956 
Q 1356 3278 1631 3431 
Q 1906 3584 2284 3584 
Q 2666 3584 2933 3390 
Q 3200 3197 3328 2828 
z
" id="DejaVuSans-6d" transform="scale(0.015625)"/>
       <path d="M 3513 2113 
L 3513 0 
L 2938 0 
L 2938 2094 
Q 2938 2591 2744 2837 
Q 2550 3084 2163 3084 
Q 1697 3084 1428 2787 
Q 1159 2491 1159 1978 
L 1159 0 
L 581 0 
L 581 3500 
L 1159 3500 
L 1159 2956 
Q 1366 3272 1645 3428 
Q 1925 3584 2291 3584 
Q 2894 3584 3203 3211 
Q 3513 2838 3513 2113 
z
" id="DejaVuSans-6e" transform="scale(0.015625)"/>
       <path d="M 513 4856 
L 1013 4856 
Q 1481 4119 1714 3412 
Q 1947 2706 1947 2009 
Q 1947 1309 1714 600 
Q 1481 -109 1013 -844 
L 513 -844 
Q 928 -128 1133 580 
Q 1338 1288 1338 2009 
Q 1338 2731 1133 3434 
Q 928 4138 513 4856 
z
" id="DejaVuSans-29" transform="scale(0.015625)"/>
      </defs>
      <use xlink:href="#DejaVuSans-6c"/>
      <use x="27.783203" xlink:href="#DejaVuSans-6f"/>
      <use x="88.964844" xlink:href="#DejaVuSans-67"/>
      <use x="152.441406" xlink:href="#DejaVuSans-31"/>
      <use x="216.064453" xlink:href="#DejaVuSans-30"/>
      <use x="279.6875" xlink:href="#DejaVuSans-28"/>
      <use x="318.701172" xlink:href="#DejaVuSans-23"/>
      <use x="402.490234" xlink:href="#DejaVuSans-20"/>
      <use x="434.277344" xlink:href="#DejaVuSans-66"/>
      <use x="463.982422" xlink:href="#DejaVuSans-2d"/>
      <use x="500.066406" xlink:href="#DejaVuSans-65"/>
      <use x="561.589844" xlink:href="#DejaVuSans-76"/>
      <use x="620.769531" xlink:href="#DejaVuSans-61"/>
      <use x="682.048828" xlink:href="#DejaVuSans-6c"/>
      <use x="709.832031" xlink:href="#DejaVuSans-73"/>
      <use x="761.931641" xlink:href="#DejaVuSans-20"/>
      <use x="793.71875" xlink:href="#DejaVuSans-2f"/>
      <use x="827.410156" xlink:href="#DejaVuSans-20"/>
      <use x="859.197266" xlink:href="#DejaVuSans-64"/>
      <use x="922.673828" xlink:href="#DejaVuSans-69"/>
      <use x="950.457031" xlink:href="#DejaVuSans-6d"/>
      <use x="1047.869141" xlink:href="#DejaVuSans-65"/>
      <use x="1109.392578" xlink:href="#DejaVuSans-6e"/>
      <use x="1172.771484" xlink:href="#DejaVuSans-73"/>
      <use x="1224.871094" xlink:href="#DejaVuSans-69"/>
      <use x="1252.654297" xlink:href="#DejaVuSans-6f"/>
      <use x="1313.835938" xlink:href="#DejaVuSans-6e"/>
      <use x="1377.214844" xlink:href="#DejaVuSans-29"/>
     </g>
    </g>
   </g>
   <g id="matplotlib.axis_2">
    <g id="ytick_1">
     <g id="line2d_21">
      <path clip-path="url(#pec95154c07)" d="M 57.6 298.944 
L 338.688 298.944 
" style="fill:none;stroke:#b0b0b0;stroke-linecap:square;stroke-width:0.8;"/>
     </g>
     <g id="line2d_22">
      <defs>
       <path d="M 0 0 
L -3.5 0 
" id="m409ad75ac6" style="stroke:#000000;stroke-width:0.8;"/>
      </defs>
      <g>
       <use style="stroke:#000000;stroke-width:0.8;" x="57.6" xlink:href="#m409ad75ac6" y="298.944"/>
      </g>
     </g>
     <g id="text_6">
      <!-- 0.0 -->
      <g transform="translate(25.155 305.02275)scale(0.16 -0.16)">
       <defs>
        <path d="M 684 794 
L 1344 794 
L 1344 0 
L 684 0 
L 684 794 
z
" id="DejaVuSans-2e" transform="scale(0.015625)"/>
       </defs>
       <use xlink:href="#DejaVuSans-30"/>
       <use x="63.623047" xlink:href="#DejaVuSans-2e"/>
       <use x="95.410156" xlink:href="#DejaVuSans-30"/>
      </g>
     </g>
    </g>
    <g id="ytick_2">
     <g id="line2d_23">
      <path clip-path="url(#pec95154c07)" d="M 57.6 245.22202 
L 338.688 245.22202 
" style="fill:none;stroke:#b0b0b0;stroke-linecap:square;stroke-width:0.8;"/>
     </g>
     <g id="line2d_24">
      <g>
       <use style="stroke:#000000;stroke-width:0.8;" x="57.6" xlink:href="#m409ad75ac6" y="245.22202"/>
      </g>
     </g>
     <g id="text_7">
      <!-- 0.2 -->
      <g transform="translate(25.155 251.30077)scale(0.16 -0.16)">
       <use xlink:href="#DejaVuSans-30"/>
       <use x="63.623047" xlink:href="#DejaVuSans-2e"/>
       <use x="95.410156" xlink:href="#DejaVuSans-32"/>
      </g>
     </g>
    </g>
    <g id="ytick_3">
     <g id="line2d_25">
      <path clip-path="url(#pec95154c07)" d="M 57.6 191.50004 
L 338.688 191.50004 
" style="fill:none;stroke:#b0b0b0;stroke-linecap:square;stroke-width:0.8;"/>
     </g>
     <g id="line2d_26">
      <g>
       <use style="stroke:#000000;stroke-width:0.8;" x="57.6" xlink:href="#m409ad75ac6" y="191.50004"/>
      </g>
     </g>
     <g id="text_8">
      <!-- 0.4 -->
      <g transform="translate(25.155 197.57879)scale(0.16 -0.16)">
       <use xlink:href="#DejaVuSans-30"/>
       <use x="63.623047" xlink:href="#DejaVuSans-2e"/>
       <use x="95.410156" xlink:href="#DejaVuSans-34"/>
      </g>
     </g>
    </g>
    <g id="ytick_4">
     <g id="line2d_27">
      <path clip-path="url(#pec95154c07)" d="M 57.6 137.778059 
L 338.688 137.778059 
" style="fill:none;stroke:#b0b0b0;stroke-linecap:square;stroke-width:0.8;"/>
     </g>
     <g id="line2d_28">
      <g>
       <use style="stroke:#000000;stroke-width:0.8;" x="57.6" xlink:href="#m409ad75ac6" y="137.778059"/>
      </g>
     </g>
     <g id="text_9">
      <!-- 0.6 -->
      <g transform="translate(25.155 143.856809)scale(0.16 -0.16)">
       <use xlink:href="#DejaVuSans-30"/>
       <use x="63.623047" xlink:href="#DejaVuSans-2e"/>
       <use x="95.410156" xlink:href="#DejaVuSans-36"/>
      </g>
     </g>
    </g>
    <g id="ytick_5">
     <g id="line2d_29">
      <path clip-path="url(#pec95154c07)" d="M 57.6 84.056079 
L 338.688 84.056079 
" style="fill:none;stroke:#b0b0b0;stroke-linecap:square;stroke-width:0.8;"/>
     </g>
     <g id="line2d_30">
      <g>
       <use style="stroke:#000000;stroke-width:0.8;" x="57.6" xlink:href="#m409ad75ac6" y="84.056079"/>
      </g>
     </g>
     <g id="text_10">
      <!-- 0.8 -->
      <g transform="translate(25.155 90.134829)scale(0.16 -0.16)">
       <defs>
        <path d="M 2034 2216 
Q 1584 2216 1326 1975 
Q 1069 1734 1069 1313 
Q 1069 891 1326 650 
Q 1584 409 2034 409 
Q 2484 409 2743 651 
Q 3003 894 3003 1313 
Q 3003 1734 2745 1975 
Q 2488 2216 2034 2216 
z
M 1403 2484 
Q 997 2584 770 2862 
Q 544 3141 544 3541 
Q 544 4100 942 4425 
Q 1341 4750 2034 4750 
Q 2731 4750 3128 4425 
Q 3525 4100 3525 3541 
Q 3525 3141 3298 2862 
Q 3072 2584 2669 2484 
Q 3125 2378 3379 2068 
Q 3634 1759 3634 1313 
Q 3634 634 3220 271 
Q 2806 -91 2034 -91 
Q 1263 -91 848 271 
Q 434 634 434 1313 
Q 434 1759 690 2068 
Q 947 2378 1403 2484 
z
M 1172 3481 
Q 1172 3119 1398 2916 
Q 1625 2713 2034 2713 
Q 2441 2713 2670 2916 
Q 2900 3119 2900 3481 
Q 2900 3844 2670 4047 
Q 2441 4250 2034 4250 
Q 1625 4250 1398 4047 
Q 1172 3844 1172 3481 
z
" id="DejaVuSans-38" transform="scale(0.015625)"/>
       </defs>
       <use xlink:href="#DejaVuSans-30"/>
       <use x="63.623047" xlink:href="#DejaVuSans-2e"/>
       <use x="95.410156" xlink:href="#DejaVuSans-38"/>
      </g>
     </g>
    </g>
    <g id="ytick_6">
     <g id="line2d_31">
      <path clip-path="url(#pec95154c07)" d="M 57.6 30.334099 
L 338.688 30.334099 
" style="fill:none;stroke:#b0b0b0;stroke-linecap:square;stroke-width:0.8;"/>
     </g>
     <g id="line2d_32">
      <g>
       <use style="stroke:#000000;stroke-width:0.8;" x="57.6" xlink:href="#m409ad75ac6" y="30.334099"/>
      </g>
     </g>
     <g id="text_11">
      <!-- 1.0 -->
      <g transform="translate(25.155 36.412849)scale(0.16 -0.16)">
       <use xlink:href="#DejaVuSans-31"/>
       <use x="63.623047" xlink:href="#DejaVuSans-2e"/>
       <use x="95.410156" xlink:href="#DejaVuSans-30"/>
      </g>
     </g>
    </g>
    <g id="text_12">
     <!-- Fraction of function,target pairs -->
     <g transform="translate(17.619531 297.681)rotate(-90)scale(0.17 -0.17)">
      <defs>
       <path d="M 628 4666 
L 3309 4666 
L 3309 4134 
L 1259 4134 
L 1259 2759 
L 3109 2759 
L 3109 2228 
L 1259 2228 
L 1259 0 
L 628 0 
L 628 4666 
z
" id="DejaVuSans-46" transform="scale(0.015625)"/>
       <path d="M 2631 2963 
Q 2534 3019 2420 3045 
Q 2306 3072 2169 3072 
Q 1681 3072 1420 2755 
Q 1159 2438 1159 1844 
L 1159 0 
L 581 0 
L 581 3500 
L 1159 3500 
L 1159 2956 
Q 1341 3275 1631 3429 
Q 1922 3584 2338 3584 
Q 2397 3584 2469 3576 
Q 2541 3569 2628 3553 
L 2631 2963 
z
" id="DejaVuSans-72" transform="scale(0.015625)"/>
       <path d="M 3122 3366 
L 3122 2828 
Q 2878 2963 2633 3030 
Q 2388 3097 2138 3097 
Q 1578 3097 1268 2742 
Q 959 2388 959 1747 
Q 959 1106 1268 751 
Q 1578 397 2138 397 
Q 2388 397 2633 464 
Q 2878 531 3122 666 
L 3122 134 
Q 2881 22 2623 -34 
Q 2366 -91 2075 -91 
Q 1284 -91 818 406 
Q 353 903 353 1747 
Q 353 2603 823 3093 
Q 1294 3584 2113 3584 
Q 2378 3584 2631 3529 
Q 2884 3475 3122 3366 
z
" id="DejaVuSans-63" transform="scale(0.015625)"/>
       <path d="M 1172 4494 
L 1172 3500 
L 2356 3500 
L 2356 3053 
L 1172 3053 
L 1172 1153 
Q 1172 725 1289 603 
Q 1406 481 1766 481 
L 2356 481 
L 2356 0 
L 1766 0 
Q 1100 0 847 248 
Q 594 497 594 1153 
L 594 3053 
L 172 3053 
L 172 3500 
L 594 3500 
L 594 4494 
L 1172 4494 
z
" id="DejaVuSans-74" transform="scale(0.015625)"/>
       <path d="M 544 1381 
L 544 3500 
L 1119 3500 
L 1119 1403 
Q 1119 906 1312 657 
Q 1506 409 1894 409 
Q 2359 409 2629 706 
Q 2900 1003 2900 1516 
L 2900 3500 
L 3475 3500 
L 3475 0 
L 2900 0 
L 2900 538 
Q 2691 219 2414 64 
Q 2138 -91 1772 -91 
Q 1169 -91 856 284 
Q 544 659 544 1381 
z
M 1991 3584 
L 1991 3584 
z
" id="DejaVuSans-75" transform="scale(0.015625)"/>
       <path d="M 750 794 
L 1409 794 
L 1409 256 
L 897 -744 
L 494 -744 
L 750 256 
L 750 794 
z
" id="DejaVuSans-2c" transform="scale(0.015625)"/>
       <path d="M 1159 525 
L 1159 -1331 
L 581 -1331 
L 581 3500 
L 1159 3500 
L 1159 2969 
Q 1341 3281 1617 3432 
Q 1894 3584 2278 3584 
Q 2916 3584 3314 3078 
Q 3713 2572 3713 1747 
Q 3713 922 3314 415 
Q 2916 -91 2278 -91 
Q 1894 -91 1617 61 
Q 1341 213 1159 525 
z
M 3116 1747 
Q 3116 2381 2855 2742 
Q 2594 3103 2138 3103 
Q 1681 3103 1420 2742 
Q 1159 2381 1159 1747 
Q 1159 1113 1420 752 
Q 1681 391 2138 391 
Q 2594 391 2855 752 
Q 3116 1113 3116 1747 
z
" id="DejaVuSans-70" transform="scale(0.015625)"/>
      </defs>
      <use xlink:href="#DejaVuSans-46"/>
      <use x="50.269531" xlink:href="#DejaVuSans-72"/>
      <use x="91.382812" xlink:href="#DejaVuSans-61"/>
      <use x="152.662109" xlink:href="#DejaVuSans-63"/>
      <use x="207.642578" xlink:href="#DejaVuSans-74"/>
      <use x="246.851562" xlink:href="#DejaVuSans-69"/>
      <use x="274.634766" xlink:href="#DejaVuSans-6f"/>
      <use x="335.816406" xlink:href="#DejaVuSans-6e"/>
      <use x="399.195312" xlink:href="#DejaVuSans-20"/>
      <use x="430.982422" xlink:href="#DejaVuSans-6f"/>
      <use x="492.164062" xlink:href="#DejaVuSans-66"/>
      <use x="527.369141" xlink:href="#DejaVuSans-20"/>
      <use x="559.15625" xlink:href="#DejaVuSans-66"/>
      <use x="594.361328" xlink:href="#DejaVuSans-75"/>
      <use x="657.740234" xlink:href="#DejaVuSans-6e"/>
      <use x="721.119141" xlink:href="#DejaVuSans-63"/>
      <use x="776.099609" xlink:href="#DejaVuSans-74"/>
      <use x="815.308594" xlink:href="#DejaVuSans-69"/>
      <use x="843.091797" xlink:href="#DejaVuSans-6f"/>
      <use x="904.273438" xlink:href="#DejaVuSans-6e"/>
      <use x="967.652344" xlink:href="#DejaVuSans-2c"/>
      <use x="999.439453" xlink:href="#DejaVuSans-74"/>
      <use x="1038.648438" xlink:href="#DejaVuSans-61"/>
      <use x="1099.927734" xlink:href="#DejaVuSans-72"/>
      <use x="1139.291016" xlink:href="#DejaVuSans-67"/>
      <use x="1202.767578" xlink:href="#DejaVuSans-65"/>
      <use x="1264.291016" xlink:href="#DejaVuSans-74"/>
      <use x="1303.5" xlink:href="#DejaVuSans-20"/>
      <use x="1335.287109" xlink:href="#DejaVuSans-70"/>
      <use x="1398.763672" xlink:href="#DejaVuSans-61"/>
      <use x="1460.042969" xlink:href="#DejaVuSans-69"/>
      <use x="1487.826172" xlink:href="#DejaVuSans-72"/>
      <use x="1528.939453" xlink:href="#DejaVuSans-73"/>
     </g>
    </g>
   </g>
   <g id="line2d_33">
    <defs>
     <path d="M 0 1.5 
C 0.397805 1.5 0.77937 1.341951 1.06066 1.06066 
C 1.341951 0.77937 1.5 0.397805 1.5 0 
C 1.5 -0.397805 1.341951 -0.77937 1.06066 -1.06066 
C 0.77937 -1.341951 0.397805 -1.5 0 -1.5 
C -0.397805 -1.5 -0.77937 -1.341951 -1.06066 -1.06066 
C -1.341951 -0.77937 -1.5 -0.397805 -1.5 0 
C -1.5 0.397805 -1.341951 0.77937 -1.06066 1.06066 
C -0.77937 1.341951 -0.397805 1.5 0 1.5 
z
" id="m71ddb2f7e7" style="stroke:#f5deb3;"/>
    </defs>
    <g>
     <use style="fill:#f5deb3;stroke:#f5deb3;" x="333.698792" xlink:href="#m71ddb2f7e7" y="30.334099"/>
     <use style="fill:#f5deb3;stroke:#f5deb3;" x="333.698792" xlink:href="#m71ddb2f7e7" y="30.334099"/>
    </g>
   </g>
   <g id="line2d_34">
    <defs>
     <path d="M 0 1.5 
C 0.397805 1.5 0.77937 1.341951 1.06066 1.06066 
C 1.341951 0.77937 1.5 0.397805 1.5 0 
C 1.5 -0.397805 1.341951 -0.77937 1.06066 -1.06066 
C 0.77937 -1.341951 0.397805 -1.5 0 -1.5 
C -0.397805 -1.5 -0.77937 -1.341951 -1.06066 -1.06066 
C -1.341951 -0.77937 -1.5 -0.397805 -1.5 0 
C -1.5 0.397805 -1.341951 0.77937 -1.06066 1.06066 
C -0.77937 1.341951 -0.397805 1.5 0 1.5 
z
" id="md70c85b18c" style="stroke:#000080;"/>
    </defs>
    <g>
     <use style="fill:#000080;stroke:#000080;" x="349.930166" xlink:href="#md70c85b18c" y="30.334099"/>
     <use style="fill:#000080;stroke:#000080;" x="349.930166" xlink:href="#md70c85b18c" y="30.334099"/>
    </g>
   </g>
   <g id="line2d_35">
    <path d="M 152.029629 298.944 
L 152.029629 298.417314 
L 158.425462 298.417314 
L 158.425462 297.890628 
L 165.837343 297.890628 
L 165.837343 297.363942 
L 167.1574 297.363942 
L 167.1574 296.837256 
L 170.899743 296.837256 
L 170.899743 296.31057 
L 173.593561 296.31057 
L 173.593561 295.783884 
L 177.045566 295.783884 
L 177.045566 295.257197 
L 179.737144 295.257197 
L 179.737144 294.730511 
L 180.314571 294.730511 
L 180.314571 294.203825 
L 184.991076 294.203825 
L 184.991076 293.677139 
L 185.456699 293.677139 
L 185.564808 292.623767 
L 187.692538 292.623767 
L 187.692538 292.097081 
L 188.189479 292.097081 
L 188.189479 291.570395 
L 189.371833 291.570395 
L 189.371833 291.043709 
L 189.70537 291.043709 
L 189.70537 290.517023 
L 189.932922 290.517023 
L 189.932922 289.990337 
L 190.301449 289.990337 
L 190.301449 289.463651 
L 192.205225 289.463651 
L 192.205225 288.936964 
L 196.267329 288.936964 
L 196.267329 288.410278 
L 196.701148 288.410278 
L 196.701148 287.883592 
L 198.073806 287.883592 
L 198.073806 287.356906 
L 198.215393 287.356906 
L 198.215393 286.83022 
L 198.397061 286.83022 
L 198.405891 285.776848 
L 198.593794 285.776848 
L 198.593794 285.250162 
L 200.906455 285.250162 
L 200.906455 284.723476 
L 205.270387 284.723476 
L 205.270387 284.19679 
L 215.791881 284.19679 
L 215.791881 283.670104 
L 237.996743 283.670104 
L 237.996743 283.143418 
L 257.849534 283.143418 
L 257.849534 282.616732 
L 268.686724 282.616732 
L 268.768048 281.036673 
L 268.820596 281.036673 
L 268.913298 278.929929 
L 268.962495 278.929929 
L 269.057044 277.349871 
L 269.089229 277.349871 
L 269.161957 275.243126 
L 269.226034 275.243126 
L 269.322501 273.136382 
L 269.380558 273.136382 
L 269.483479 271.029638 
L 269.507341 271.029638 
L 269.604271 268.396207 
L 269.624546 268.396207 
L 269.694803 266.816149 
L 269.748485 266.816149 
L 269.852834 264.709405 
L 269.870021 264.709405 
L 269.908437 263.656033 
L 271.799879 263.656033 
L 271.799879 263.129347 
L 272.229184 263.129347 
L 272.229184 262.60266 
L 272.594239 262.60266 
L 272.594239 262.075974 
L 281.437099 262.075974 
L 281.446249 261.022602 
L 281.798573 261.022602 
L 281.84187 259.96923 
L 282.562202 259.96923 
L 282.664391 257.3358 
L 282.698719 257.3358 
L 282.77503 256.282427 
L 282.842235 256.282427 
L 282.930873 254.175683 
L 282.964529 254.175683 
L 282.979567 253.122311 
L 283.134084 253.122311 
L 283.235036 251.015567 
L 283.347891 251.015567 
L 283.347891 250.488881 
L 284.035481 250.488881 
L 284.035481 249.962195 
L 284.83738 249.962195 
L 284.83738 249.435508 
L 289.637426 249.435508 
L 289.709698 248.382136 
L 289.918884 248.382136 
L 290.029868 247.328764 
L 290.19686 247.328764 
L 290.268698 243.641962 
L 290.321837 243.641962 
L 290.416403 242.588589 
L 290.451215 242.588589 
L 290.549753 241.535217 
L 290.578552 241.535217 
L 290.666821 239.955159 
L 290.817042 239.955159 
L 290.817042 239.428473 
L 290.970985 239.428473 
L 291.081546 236.795043 
L 291.084083 236.795043 
L 291.18453 235.214984 
L 291.233032 235.214984 
L 291.233032 234.688298 
L 291.395752 234.688298 
L 291.395752 234.161612 
L 291.53296 234.161612 
L 291.53296 233.634926 
L 294.74976 233.634926 
L 294.812563 232.581554 
L 294.906939 232.581554 
L 294.906939 232.054868 
L 295.124505 232.054868 
L 295.18673 230.47481 
L 295.235711 230.47481 
L 295.235711 229.948123 
L 295.441517 229.948123 
L 295.505229 228.894751 
L 295.592317 228.894751 
L 295.670964 226.788007 
L 295.706648 226.788007 
L 295.722218 225.734635 
L 295.84181 225.734635 
L 295.936829 224.154577 
L 296.021404 224.154577 
L 296.122005 222.574518 
L 296.142383 222.574518 
L 296.229226 221.521146 
L 296.268509 221.521146 
L 296.268509 220.99446 
L 296.418658 220.99446 
L 296.418658 220.467774 
L 296.530896 220.467774 
L 296.530896 219.941088 
L 298.953319 219.941088 
L 298.966973 218.887716 
L 299.182865 218.887716 
L 299.182865 218.36103 
L 299.365632 218.36103 
L 299.471252 216.780971 
L 299.537333 216.780971 
L 299.613075 215.200913 
L 299.678207 215.200913 
L 299.786239 213.620855 
L 299.795811 213.620855 
L 299.839982 211.514111 
L 299.926038 211.514111 
L 300.036783 208.353994 
L 300.089644 208.353994 
L 300.168632 206.773936 
L 300.32553 206.773936 
L 300.32553 206.24725 
L 300.438868 206.24725 
L 300.438868 205.720564 
L 302.410251 205.720564 
L 302.410251 205.193878 
L 302.635301 205.193878 
L 302.637106 204.140506 
L 302.802468 204.140506 
L 302.823482 203.087133 
L 302.97048 203.087133 
L 303.057394 200.980389 
L 303.138884 200.980389 
L 303.236385 198.873645 
L 303.28303 198.873645 
L 303.28303 198.346959 
L 303.424174 198.346959 
L 303.521547 196.7669 
L 303.536449 196.7669 
L 303.584093 195.186842 
L 303.684768 195.186842 
L 303.684768 194.660156 
L 303.801511 194.660156 
L 303.801511 194.13347 
L 304.877169 194.13347 
L 304.877169 193.606784 
L 305.487741 193.606784 
L 305.516159 191.50004 
L 305.606839 191.50004 
L 305.678887 189.393295 
L 305.741777 189.393295 
L 305.851255 187.286551 
L 305.858289 187.286551 
L 305.963667 185.179807 
L 305.989394 185.179807 
L 305.989394 184.653121 
L 306.31139 184.653121 
L 306.366672 183.599748 
L 306.44047 183.599748 
L 306.44047 183.073062 
L 307.426941 183.073062 
L 307.426941 182.546376 
L 307.542304 182.546376 
L 307.542304 182.01969 
L 307.877003 182.01969 
L 307.896468 180.966318 
L 307.996733 180.966318 
L 308.077605 179.912946 
L 308.166489 179.912946 
L 308.166489 179.38626 
L 308.308743 179.38626 
L 308.385055 177.806202 
L 308.433677 177.806202 
L 308.514183 175.699457 
L 308.72993 175.699457 
L 308.72993 175.172771 
L 308.857304 175.172771 
L 308.857304 174.646085 
L 309.152134 174.646085 
L 309.160861 173.592713 
L 309.849505 173.592713 
L 309.885067 172.539341 
L 310.005906 172.539341 
L 310.005906 172.012655 
L 310.132349 172.012655 
L 310.230685 169.90591 
L 310.254436 169.90591 
L 310.34977 166.745794 
L 310.400508 166.745794 
L 310.400508 166.219108 
L 310.743471 166.219108 
L 310.743471 165.692422 
L 311.455695 165.692422 
L 311.455695 165.165736 
L 311.663496 165.165736 
L 311.763796 164.112363 
L 311.788283 164.112363 
L 311.897336 162.532305 
L 312.029961 162.532305 
L 312.130237 160.425561 
L 312.220155 160.425561 
L 312.326984 157.265444 
L 312.428444 157.265444 
L 312.529711 155.685386 
L 312.978054 155.685386 
L 312.978054 155.1587 
L 313.119081 155.1587 
L 313.119081 154.632014 
L 313.375303 154.632014 
L 313.458436 153.051956 
L 313.521394 153.051956 
L 313.539226 151.471897 
L 313.659297 151.471897 
L 313.659297 150.945211 
L 313.812413 150.945211 
L 313.911099 148.838467 
L 313.984155 148.838467 
L 314.089437 146.205037 
L 314.242398 146.205037 
L 314.242398 145.678351 
L 314.595725 145.678351 
L 314.595725 145.151665 
L 315.045811 145.151665 
L 315.148671 144.098292 
L 315.216628 144.098292 
L 315.306497 141.991548 
L 315.346821 141.991548 
L 315.454284 140.938176 
L 315.488249 140.938176 
L 315.546932 139.884804 
L 315.666994 139.884804 
L 315.666994 139.358118 
L 316.442939 139.358118 
L 316.496281 138.304745 
L 316.76867 138.304745 
L 316.839303 136.724687 
L 317.009834 136.724687 
L 317.062314 135.671315 
L 317.239248 135.671315 
L 317.239248 135.144629 
L 317.782994 135.144629 
L 317.860464 133.564571 
L 317.971629 133.564571 
L 317.982173 132.511199 
L 318.088948 132.511199 
L 318.167127 130.93114 
L 318.234608 130.93114 
L 318.315995 129.877768 
L 318.372561 129.877768 
L 318.466333 128.29771 
L 318.772659 128.29771 
L 318.851522 127.244338 
L 318.91455 127.244338 
L 318.984672 125.66428 
L 319.172998 125.66428 
L 319.187929 124.610907 
L 319.297784 124.610907 
L 319.388257 122.504163 
L 319.467023 122.504163 
L 319.509428 120.924105 
L 320.188648 120.924105 
L 320.188648 120.397419 
L 320.328222 120.397419 
L 320.399427 118.817361 
L 320.447143 118.817361 
L 320.461462 117.763988 
L 320.585859 117.763988 
L 320.69021 116.18393 
L 320.775184 116.18393 
L 320.775184 115.657244 
L 321.087414 115.657244 
L 321.087414 115.130558 
L 321.249616 115.130558 
L 321.336723 113.5505 
L 321.374512 113.5505 
L 321.466072 111.443755 
L 321.494531 111.443755 
L 321.522036 109.863697 
L 321.660123 109.863697 
L 321.730895 108.283639 
L 321.82014 108.283639 
L 321.825179 107.230267 
L 322.463627 107.230267 
L 322.527644 105.650209 
L 322.620778 105.650209 
L 322.696248 104.07015 
L 322.785041 104.07015 
L 322.785041 103.543464 
L 323.01324 103.543464 
L 323.01324 103.016778 
L 323.167692 103.016778 
L 323.26436 101.43672 
L 323.301953 101.43672 
L 323.349541 100.383348 
L 323.454782 100.383348 
L 323.454782 99.856662 
L 323.576658 99.856662 
L 323.614299 98.276603 
L 323.780525 98.276603 
L 323.780525 97.749917 
L 323.983258 97.749917 
L 324.063592 96.696545 
L 324.127256 96.696545 
L 324.196699 95.116487 
L 324.385228 95.116487 
L 324.472969 93.536429 
L 325.021232 93.536429 
L 325.021232 93.009743 
L 325.249119 93.009743 
L 325.276601 91.429684 
L 325.43784 91.429684 
L 325.446149 90.376312 
L 325.613032 90.376312 
L 325.613032 89.849626 
L 326.013902 89.849626 
L 326.062839 87.742882 
L 326.125073 87.742882 
L 326.148247 86.68951 
L 326.310584 86.68951 
L 326.36247 85.636137 
L 326.860519 85.636137 
L 326.902423 84.582765 
L 327.254229 84.582765 
L 327.254229 84.056079 
L 327.406611 84.056079 
L 327.445065 82.476021 
L 327.545632 82.476021 
L 327.651677 80.895963 
L 327.667173 80.895963 
L 327.667173 80.369277 
L 327.936802 80.369277 
L 327.953594 79.315904 
L 328.494454 79.315904 
L 328.494454 78.789218 
L 328.828169 78.789218 
L 328.925806 75.102416 
L 328.960833 75.102416 
L 329.039338 72.995672 
L 329.481469 72.995672 
L 329.481469 72.468985 
L 329.636254 72.468985 
L 329.686749 70.362241 
L 330.070225 70.362241 
L 330.155441 68.782183 
L 330.536762 68.782183 
L 330.626713 67.728811 
L 330.929131 67.728811 
L 330.960149 66.675439 
L 331.080792 66.675439 
L 331.080792 66.148752 
L 331.349201 66.148752 
L 331.377705 65.09538 
L 331.612662 65.09538 
L 331.698975 64.042008 
L 331.829905 64.042008 
L 331.863372 62.988636 
L 331.98658 62.988636 
L 332.022023 61.935264 
L 332.115144 61.935264 
L 332.160188 60.881892 
L 332.289891 60.881892 
L 332.289891 60.355206 
L 332.401714 60.355206 
L 332.401714 59.82852 
L 332.637876 59.82852 
L 332.707486 58.775147 
L 333.07025 58.775147 
L 333.137839 57.721775 
L 333.204256 57.721775 
L 333.230886 56.668403 
L 333.644039 56.668403 
L 333.740684 55.615031 
L 333.778774 55.615031 
L 333.778774 55.088345 
L 334.477884 55.088345 
L 334.477884 54.561659 
L 334.635092 54.561659 
L 334.724308 53.508287 
L 334.771452 53.508287 
L 334.845234 52.454914 
L 335.055532 52.454914 
L 335.055532 51.928228 
L 335.245179 51.928228 
L 335.245179 51.401542 
L 335.377831 51.401542 
L 335.377831 50.874856 
L 335.498065 50.874856 
L 335.498065 50.34817 
L 335.623116 50.34817 
L 335.680136 49.294798 
L 335.778118 49.294798 
L 335.853974 48.241426 
L 335.938274 48.241426 
L 336.032231 46.661368 
L 336.730355 46.661368 
L 336.730355 46.134681 
L 337.249545 46.134681 
L 337.256327 45.081309 
L 337.413311 45.081309 
L 337.446553 44.027937 
L 337.650175 44.027937 
L 337.650175 43.501251 
L 338.102985 43.501251 
L 338.102985 42.974565 
L 338.498174 42.974565 
L 338.498174 42.447879 
L 338.688 42.447879 
L 338.688 42.447879 
" style="fill:none;stroke:#000080;stroke-linecap:square;stroke-width:1.5;"/>
   </g>
   <g id="line2d_36">
    <defs>
     <path d="M 0 6 
C 1.591219 6 3.117479 5.367802 4.242641 4.242641 
C 5.367802 3.117479 6 1.591219 6 0 
C 6 -1.591219 5.367802 -3.117479 4.242641 -4.242641 
C 3.117479 -5.367802 1.591219 -6 0 -6 
C -1.591219 -6 -3.117479 -5.367802 -4.242641 -4.242641 
C -5.367802 -3.117479 -6 -1.591219 -6 0 
C -6 1.591219 -5.367802 3.117479 -4.242641 4.242641 
C -3.117479 5.367802 -1.591219 6 0 6 
z
" id="m42aa004cef" style="stroke:#000080;stroke-width:1.5;"/>
    </defs>
    <g>
     <use style="fill-opacity:0;stroke:#000080;stroke-width:1.5;" x="237.996743" xlink:href="#m42aa004cef" y="283.670104"/>
     <use style="fill-opacity:0;stroke:#000080;stroke-width:1.5;" x="311.897336" xlink:href="#m42aa004cef" y="162.532305"/>
     <use style="fill-opacity:0;stroke:#000080;stroke-width:1.5;" x="338.498174" xlink:href="#m42aa004cef" y="42.447879"/>
     <use style="fill-opacity:0;stroke:#000080;stroke-width:1.5;" x="338.688" xlink:href="#m42aa004cef" y="42.447879"/>
    </g>
   </g>
   <g id="line2d_37">
    <path style="fill:none;stroke:#000080;stroke-linecap:square;stroke-width:1.5;"/>
    <g/>
   </g>
   <g id="line2d_38">
    <path clip-path="url(#pec95154c07)" d="M 272.027586 263.129347 
" style="fill:none;stroke:#000080;stroke-linecap:square;stroke-width:1.5;"/>
    <defs>
     <path d="M -12 12 
L 12 -12 
M -12 -12 
L 12 12 
" id="m34ed2ffeb2" style="stroke:#000080;"/>
    </defs>
    <g clip-path="url(#pec95154c07)">
     <use style="fill:#000080;stroke:#000080;" x="272.027586" xlink:href="#m34ed2ffeb2" y="263.129347"/>
    </g>
   </g>
   <g id="line2d_39">
    <defs>
     <path d="M 0 1.5 
C 0.397805 1.5 0.77937 1.341951 1.06066 1.06066 
C 1.341951 0.77937 1.5 0.397805 1.5 0 
C 1.5 -0.397805 1.341951 -0.77937 1.06066 -1.06066 
C 0.77937 -1.341951 0.397805 -1.5 0 -1.5 
C -0.397805 -1.5 -0.77937 -1.341951 -1.06066 -1.06066 
C -1.341951 -0.77937 -1.5 -0.397805 -1.5 0 
C -1.5 0.397805 -1.341951 0.77937 -1.06066 1.06066 
C -0.77937 1.341951 -0.397805 1.5 0 1.5 
z
" id="md9077332fb" style="stroke:#ff7500;"/>
    </defs>
    <g>
     <use style="fill:#ff7500;stroke:#ff7500;" x="334.717869" xlink:href="#md9077332fb" y="256.809114"/>
     <use style="fill:#ff7500;stroke:#ff7500;" x="334.717869" xlink:href="#md9077332fb" y="256.809114"/>
    </g>
   </g>
   <g id="line2d_40">
    <path d="M 157.559934 298.944 
L 157.559934 298.417314 
L 173.714284 298.417314 
L 173.714284 297.890628 
L 179.159198 297.890628 
L 179.159198 297.363942 
L 179.476923 297.363942 
L 179.476923 296.837256 
L 180.45846 296.837256 
L 180.45846 296.31057 
L 182.016942 296.31057 
L 182.016942 295.783884 
L 183.921035 295.783884 
L 183.921035 295.257197 
L 184.450813 295.257197 
L 184.450813 294.730511 
L 184.713659 294.730511 
L 184.713659 294.203825 
L 185.075578 294.203825 
L 185.075578 293.677139 
L 187.66289 293.677139 
L 187.66289 293.150453 
L 187.829319 293.150453 
L 187.829319 292.623767 
L 188.121763 292.623767 
L 188.121763 292.097081 
L 188.957938 292.097081 
L 188.957938 291.570395 
L 189.315198 291.570395 
L 189.315198 291.043709 
L 190.528872 291.043709 
L 190.528872 290.517023 
L 195.757272 290.517023 
L 195.757272 289.990337 
L 196.330776 289.990337 
L 196.330776 289.463651 
L 199.37532 289.463651 
L 199.37532 288.936964 
L 205.070982 288.936964 
L 205.070982 288.410278 
L 205.217073 288.410278 
L 205.217073 287.883592 
L 205.796436 287.883592 
L 205.796436 287.356906 
L 206.242729 287.356906 
L 206.242729 286.83022 
L 206.573107 286.83022 
L 206.573107 286.303534 
L 206.76531 286.303534 
L 206.76531 285.776848 
L 206.946848 285.776848 
L 206.946848 285.250162 
L 208.666501 285.250162 
L 208.666501 284.723476 
L 208.831915 284.723476 
L 208.831915 284.19679 
L 217.594211 284.19679 
L 217.594211 283.670104 
L 220.641083 283.670104 
L 220.641083 283.143418 
L 221.01429 283.143418 
L 221.01429 282.616732 
L 228.718187 282.616732 
L 228.718187 282.090045 
L 247.269436 282.090045 
L 247.269436 281.563359 
L 258.137223 281.563359 
L 258.137223 281.036673 
L 271.220705 281.036673 
L 271.220705 280.509987 
L 271.337869 280.509987 
L 271.337869 279.983301 
L 271.819163 279.983301 
L 271.892659 278.929929 
L 272.394183 278.929929 
L 272.451723 277.876557 
L 272.553431 277.876557 
L 272.553431 277.349871 
L 272.719264 277.349871 
L 272.723543 276.296499 
L 272.987842 276.296499 
L 273.043501 275.243126 
L 273.441287 275.243126 
L 273.513038 274.189754 
L 273.637277 274.189754 
L 273.637277 273.663068 
L 274.249673 273.663068 
L 274.249673 273.136382 
L 283.859347 273.136382 
L 283.859347 272.609696 
L 284.063298 272.609696 
L 284.063298 272.08301 
L 284.207934 272.08301 
L 284.240703 271.029638 
L 284.453839 271.029638 
L 284.453839 270.502952 
L 291.208122 270.502952 
L 291.30612 269.449579 
L 291.388071 269.449579 
L 291.388071 268.922893 
L 291.9851 268.922893 
L 291.9851 268.396207 
L 292.339861 268.396207 
L 292.339861 267.869521 
L 295.81643 267.869521 
L 295.81643 267.342835 
L 296.606502 267.342835 
L 296.606502 266.816149 
L 297.380825 266.816149 
L 297.380825 266.289463 
L 300.147262 266.289463 
L 300.245095 265.236091 
L 300.53555 265.236091 
L 300.53555 264.709405 
L 300.885281 264.709405 
L 300.885281 264.182719 
L 303.707099 264.182719 
L 303.782177 263.129347 
L 306.13993 263.129347 
L 306.13993 262.60266 
L 310.140066 262.60266 
L 310.140066 262.075974 
L 310.588197 262.075974 
L 310.588197 261.549288 
L 313.945826 261.549288 
L 313.945826 261.022602 
L 319.408555 261.022602 
L 319.408555 260.495916 
L 320.473885 260.495916 
L 320.550877 259.442544 
L 322.489338 259.442544 
L 322.583118 258.389172 
L 326.077155 258.389172 
L 326.077155 257.862486 
L 328.412682 257.862486 
L 328.412682 257.3358 
L 334.717869 257.3358 
L 334.717869 256.809114 
L 338.688 256.809114 
L 338.688 256.809114 
" style="fill:none;stroke:#ff7500;stroke-linecap:square;stroke-width:1.5;"/>
   </g>
   <g id="line2d_41">
    <defs>
     <path d="M 0 -6 
L -1.347084 -1.854102 
L -5.706339 -1.854102 
L -2.179628 0.708204 
L -3.526712 4.854102 
L -0 2.291796 
L 3.526712 4.854102 
L 2.179628 0.708204 
L 5.706339 -1.854102 
L 1.347084 -1.854102 
z
" id="mcc92894b1c" style="stroke:#ff7500;stroke-linejoin:bevel;stroke-width:1.5;"/>
    </defs>
    <g>
     <use style="fill-opacity:0;stroke:#ff7500;stroke-linejoin:bevel;stroke-width:1.5;" x="247.269436" xlink:href="#mcc92894b1c" y="281.563359"/>
     <use style="fill-opacity:0;stroke:#ff7500;stroke-linejoin:bevel;stroke-width:1.5;" x="322.583118" xlink:href="#mcc92894b1c" y="258.389172"/>
     <use style="fill-opacity:0;stroke:#ff7500;stroke-linejoin:bevel;stroke-width:1.5;" x="334.717869" xlink:href="#mcc92894b1c" y="256.809114"/>
     <use style="fill-opacity:0;stroke:#ff7500;stroke-linejoin:bevel;stroke-width:1.5;" x="338.688" xlink:href="#mcc92894b1c" y="256.809114"/>
    </g>
   </g>
   <g id="line2d_42">
    <path style="fill:none;stroke:#ff7500;stroke-linecap:square;stroke-width:1.5;"/>
    <g/>
   </g>
   <g id="line2d_43">
    <path clip-path="url(#pec95154c07)" d="M 271.932315 278.929929 
" style="fill:none;stroke:#ff7500;stroke-linecap:square;stroke-width:1.5;"/>
    <defs>
     <path d="M -12 12 
L 12 -12 
M -12 -12 
L 12 12 
" id="me2fa8d8f58" style="stroke:#ff7500;"/>
    </defs>
    <g clip-path="url(#pec95154c07)">
     <use style="fill:#ff7500;stroke:#ff7500;" x="271.932315" xlink:href="#me2fa8d8f58" y="278.929929"/>
    </g>
   </g>
   <g id="line2d_44">
    <path clip-path="url(#pec95154c07)" d="M 57.6 298.944 
L 57.6 298.944 
L 57.6 298.944 
L 57.6 298.944 
L 338.688 298.944 
" style="fill:none;stroke:#6495ed;stroke-linecap:square;stroke-width:1.5;"/>
   </g>
   <g id="line2d_45">
    <defs>
     <path d="M -0 6 
L 6 -6 
L -6 -6 
z
" id="m0ab0859e86" style="stroke:#6495ed;stroke-linejoin:miter;stroke-width:1.5;"/>
    </defs>
    <g clip-path="url(#pec95154c07)">
     <use style="fill-opacity:0;stroke:#6495ed;stroke-linejoin:miter;stroke-width:1.5;" x="57.6" xlink:href="#m0ab0859e86" y="298.944"/>
    </g>
   </g>
   <g id="line2d_46">
    <path clip-path="url(#pec95154c07)" style="fill:none;stroke:#6495ed;stroke-linecap:square;stroke-width:1.5;"/>
    <g clip-path="url(#pec95154c07)">
     <use style="fill-opacity:0;stroke:#6495ed;stroke-linejoin:miter;stroke-width:1.5;" x="-1" xlink:href="#m0ab0859e86" y="567.553901"/>
     <use style="fill-opacity:0;stroke:#6495ed;stroke-linejoin:miter;stroke-width:1.5;" x="338.688" xlink:href="#m0ab0859e86" y="567.553901"/>
    </g>
   </g>
   <g id="line2d_47">
    <defs>
     <path d="M 0 1.5 
C 0.397805 1.5 0.77937 1.341951 1.06066 1.06066 
C 1.341951 0.77937 1.5 0.397805 1.5 0 
C 1.5 -0.397805 1.341951 -0.77937 1.06066 -1.06066 
C 0.77937 -1.341951 0.397805 -1.5 0 -1.5 
C -0.397805 -1.5 -0.77937 -1.341951 -1.06066 -1.06066 
C -1.341951 -0.77937 -1.5 -0.397805 -1.5 0 
C -1.5 0.397805 -1.341951 0.77937 -1.06066 1.06066 
C -0.77937 1.341951 -0.397805 1.5 0 1.5 
z
" id="m228cc27de5" style="stroke:#ff0000;"/>
    </defs>
    <g>
     <use style="fill:#ff0000;stroke:#ff0000;" x="260.859358" xlink:href="#m228cc27de5" y="267.342835"/>
     <use style="fill:#ff0000;stroke:#ff0000;" x="260.859358" xlink:href="#m228cc27de5" y="267.342835"/>
    </g>
   </g>
   <g id="line2d_48">
    <path d="M 141.170161 298.944 
L 141.170161 298.417314 
L 142.556587 298.417314 
L 142.556587 297.890628 
L 143.73816 297.890628 
L 143.73816 297.363942 
L 144.087359 297.363942 
L 144.087359 296.837256 
L 144.154539 296.837256 
L 144.154539 296.31057 
L 144.83301 296.31057 
L 144.83301 295.783884 
L 144.835941 295.783884 
L 144.835941 295.257197 
L 145.109299 295.257197 
L 145.109299 294.730511 
L 145.164035 294.730511 
L 145.164035 294.203825 
L 145.384119 294.203825 
L 145.384119 293.677139 
L 146.19165 293.677139 
L 146.19165 293.150453 
L 146.804459 293.150453 
L 146.804459 292.623767 
L 147.527567 292.623767 
L 147.527567 292.097081 
L 147.860939 292.097081 
L 147.860939 291.570395 
L 149.127259 291.570395 
L 149.127259 291.043709 
L 170.409609 291.043709 
L 170.409609 290.517023 
L 171.555983 290.517023 
L 171.555983 289.990337 
L 177.781899 289.990337 
L 177.781899 289.463651 
L 178.067158 289.463651 
L 178.067158 288.936964 
L 182.958774 288.936964 
L 182.958774 288.410278 
L 183.17186 288.410278 
L 183.17186 287.883592 
L 183.222213 287.883592 
L 183.222213 287.356906 
L 183.34376 287.356906 
L 183.34376 286.83022 
L 184.285874 286.83022 
L 184.285874 286.303534 
L 184.319718 286.303534 
L 184.319718 285.776848 
L 185.230646 285.776848 
L 185.230646 285.250162 
L 185.414125 285.250162 
L 185.414125 284.723476 
L 185.727972 284.723476 
L 185.727972 284.19679 
L 196.205653 284.19679 
L 196.205653 283.670104 
L 197.790232 283.670104 
L 197.790232 283.143418 
L 198.230353 283.143418 
L 198.230353 282.616732 
L 204.675819 282.616732 
L 204.675819 282.090045 
L 209.539608 282.090045 
L 209.539608 281.563359 
L 210.240726 281.563359 
L 210.240726 281.036673 
L 210.481652 281.036673 
L 210.481652 280.509987 
L 210.772841 280.509987 
L 210.772841 279.983301 
L 212.490175 279.983301 
L 212.490175 279.456615 
L 212.676136 279.456615 
L 212.676136 278.929929 
L 213.341167 278.929929 
L 213.341167 278.403243 
L 213.473954 278.403243 
L 213.473954 277.876557 
L 217.515983 277.876557 
L 217.515983 277.349871 
L 217.75522 277.349871 
L 217.75522 276.823185 
L 222.78347 276.823185 
L 222.78347 276.296499 
L 223.63764 276.296499 
L 223.63764 275.769812 
L 224.099013 275.769812 
L 224.099013 275.243126 
L 224.704522 275.243126 
L 224.704522 274.71644 
L 226.48289 274.71644 
L 226.48289 274.189754 
L 226.896197 274.189754 
L 226.896197 273.663068 
L 226.916016 273.663068 
L 226.916016 273.136382 
L 227.311898 273.136382 
L 227.311898 272.609696 
L 230.722387 272.609696 
L 230.722387 272.08301 
L 232.317518 272.08301 
L 232.317518 271.556324 
L 232.672147 271.556324 
L 232.672147 271.029638 
L 234.28523 271.029638 
L 234.28523 270.502952 
L 235.797771 270.502952 
L 235.797771 269.976266 
L 244.773229 269.976266 
L 244.773229 269.449579 
L 245.040217 269.449579 
L 245.040217 268.922893 
L 255.17248 268.922893 
L 255.17248 268.396207 
L 258.03342 268.396207 
L 258.03342 267.869521 
L 260.859358 267.869521 
L 260.859358 267.342835 
L 338.688 267.342835 
" style="fill:none;stroke:#ff0000;stroke-linecap:square;stroke-width:1.5;"/>
   </g>
   <g id="line2d_49">
    <defs>
     <path d="M 0 -6 
L -5.196152 -3 
L -5.196152 3 
L -0 6 
L 5.196152 3 
L 5.196152 -3 
z
" id="mf07c828aea" style="stroke:#ff0000;stroke-linejoin:miter;stroke-width:1.5;"/>
    </defs>
    <g>
     <use style="fill-opacity:0;stroke:#ff0000;stroke-linejoin:miter;stroke-width:1.5;" x="182.958774" xlink:href="#mf07c828aea" y="288.936964"/>
     <use style="fill-opacity:0;stroke:#ff0000;stroke-linejoin:miter;stroke-width:1.5;" x="217.75522" xlink:href="#mf07c828aea" y="277.349871"/>
     <use style="fill-opacity:0;stroke:#ff0000;stroke-linejoin:miter;stroke-width:1.5;" x="260.859358" xlink:href="#mf07c828aea" y="267.869521"/>
     <use style="fill-opacity:0;stroke:#ff0000;stroke-linejoin:miter;stroke-width:1.5;" x="260.859358" xlink:href="#mf07c828aea" y="267.342835"/>
     <use style="fill-opacity:0;stroke:#ff0000;stroke-linejoin:miter;stroke-width:1.5;" x="338.688" xlink:href="#mf07c828aea" y="267.342835"/>
    </g>
   </g>
   <g id="line2d_50">
    <path style="fill:none;stroke:#ff0000;stroke-linecap:square;stroke-width:1.5;"/>
    <g/>
   </g>
   <g id="line2d_51">
    <path clip-path="url(#pec95154c07)" d="M 197.250853 283.670104 
" style="fill:none;stroke:#ff0000;stroke-linecap:square;stroke-width:1.5;"/>
    <defs>
     <path d="M -12 12 
L 12 -12 
M -12 -12 
L 12 12 
" id="mfb329c24b3" style="stroke:#ff0000;"/>
    </defs>
    <g clip-path="url(#pec95154c07)">
     <use style="fill:#ff0000;stroke:#ff0000;" x="197.250853" xlink:href="#mfb329c24b3" y="283.670104"/>
    </g>
   </g>
   <g id="line2d_52">
    <path d="M 338.688 298.944 
L 369.60768 293.571802 
" style="fill:none;stroke:#6495ed;stroke-linecap:square;stroke-width:1.5;"/>
    <g>
     <use style="fill-opacity:0;stroke:#6495ed;stroke-linejoin:miter;stroke-width:1.5;" x="338.688" xlink:href="#m0ab0859e86" y="298.944"/>
     <use style="fill-opacity:0;stroke:#6495ed;stroke-linejoin:miter;stroke-width:1.5;" x="369.60768" xlink:href="#m0ab0859e86" y="293.571802"/>
    </g>
   </g>
   <g id="line2d_53">
    <path d="M 338.688 267.342835 
L 369.60768 229.105426 
" style="fill:none;stroke:#ff0000;stroke-linecap:square;stroke-width:1.5;"/>
    <g>
     <use style="fill-opacity:0;stroke:#ff0000;stroke-linejoin:miter;stroke-width:1.5;" x="338.688" xlink:href="#mf07c828aea" y="267.342835"/>
     <use style="fill-opacity:0;stroke:#ff0000;stroke-linejoin:miter;stroke-width:1.5;" x="369.60768" xlink:href="#mf07c828aea" y="229.105426"/>
    </g>
   </g>
   <g id="line2d_54">
    <path d="M 338.688 256.809114 
L 369.60768 164.63905 
" style="fill:none;stroke:#ff7500;stroke-linecap:square;stroke-width:1.5;"/>
    <g>
     <use style="fill-opacity:0;stroke:#ff7500;stroke-linejoin:bevel;stroke-width:1.5;" x="338.688" xlink:href="#mcc92894b1c" y="256.809114"/>
     <use style="fill-opacity:0;stroke:#ff7500;stroke-linejoin:bevel;stroke-width:1.5;" x="369.60768" xlink:href="#mcc92894b1c" y="164.63905"/>
    </g>
   </g>
   <g id="line2d_55">
    <path d="M 338.688 42.447879 
L 369.60768 100.172673 
" style="fill:none;stroke:#000080;stroke-linecap:square;stroke-width:1.5;"/>
    <g>
     <use style="fill-opacity:0;stroke:#000080;stroke-width:1.5;" x="338.688" xlink:href="#m42aa004cef" y="42.447879"/>
     <use style="fill-opacity:0;stroke:#000080;stroke-width:1.5;" x="369.60768" xlink:href="#m42aa004cef" y="100.172673"/>
    </g>
   </g>
   <g id="line2d_56">
    <path d="M 338.688 298.944 
L 338.688 30.334099 
" style="fill:none;stroke:#000000;stroke-linecap:square;stroke-width:1.5;"/>
   </g>
   <g id="patch_3">
    <path d="M 57.6 298.944 
L 57.6 27.648 
" style="fill:none;stroke:#000000;stroke-linecap:square;stroke-linejoin:miter;stroke-width:0.8;"/>
   </g>
   <g id="patch_4">
    <path d="M 338.688 298.944 
L 338.688 27.648 
" style="fill:none;stroke:#000000;stroke-linecap:square;stroke-linejoin:miter;stroke-width:0.8;"/>
   </g>
   <g id="patch_5">
    <path d="M 57.6 298.944 
L 338.688 298.944 
" style="fill:none;stroke:#000000;stroke-linecap:square;stroke-linejoin:miter;stroke-width:0.8;"/>
   </g>
   <g id="patch_6">
    <path d="M 57.6 27.648 
L 338.688 27.648 
" style="fill:none;stroke:#000000;stroke-linecap:square;stroke-linejoin:miter;stroke-width:0.8;"/>
   </g>
   <g id="text_13">
    <!-- SLSQP-11- -->
    <g transform="translate(375.22944 298.262739)scale(0.17 -0.17)">
     <defs>
      <path d="M 3425 4513 
L 3425 3897 
Q 3066 4069 2747 4153 
Q 2428 4238 2131 4238 
Q 1616 4238 1336 4038 
Q 1056 3838 1056 3469 
Q 1056 3159 1242 3001 
Q 1428 2844 1947 2747 
L 2328 2669 
Q 3034 2534 3370 2195 
Q 3706 1856 3706 1288 
Q 3706 609 3251 259 
Q 2797 -91 1919 -91 
Q 1588 -91 1214 -16 
Q 841 59 441 206 
L 441 856 
Q 825 641 1194 531 
Q 1563 422 1919 422 
Q 2459 422 2753 634 
Q 3047 847 3047 1241 
Q 3047 1584 2836 1778 
Q 2625 1972 2144 2069 
L 1759 2144 
Q 1053 2284 737 2584 
Q 422 2884 422 3419 
Q 422 4038 858 4394 
Q 1294 4750 2059 4750 
Q 2388 4750 2728 4690 
Q 3069 4631 3425 4513 
z
" id="DejaVuSans-53" transform="scale(0.015625)"/>
      <path d="M 628 4666 
L 1259 4666 
L 1259 531 
L 3531 531 
L 3531 0 
L 628 0 
L 628 4666 
z
" id="DejaVuSans-4c" transform="scale(0.015625)"/>
      <path d="M 2522 4238 
Q 1834 4238 1429 3725 
Q 1025 3213 1025 2328 
Q 1025 1447 1429 934 
Q 1834 422 2522 422 
Q 3209 422 3611 934 
Q 4013 1447 4013 2328 
Q 4013 3213 3611 3725 
Q 3209 4238 2522 4238 
z
M 3406 84 
L 4238 -825 
L 3475 -825 
L 2784 -78 
Q 2681 -84 2626 -87 
Q 2572 -91 2522 -91 
Q 1538 -91 948 567 
Q 359 1225 359 2328 
Q 359 3434 948 4092 
Q 1538 4750 2522 4750 
Q 3503 4750 4090 4092 
Q 4678 3434 4678 2328 
Q 4678 1516 4351 937 
Q 4025 359 3406 84 
z
" id="DejaVuSans-51" transform="scale(0.015625)"/>
      <path d="M 1259 4147 
L 1259 2394 
L 2053 2394 
Q 2494 2394 2734 2622 
Q 2975 2850 2975 3272 
Q 2975 3691 2734 3919 
Q 2494 4147 2053 4147 
L 1259 4147 
z
M 628 4666 
L 2053 4666 
Q 2838 4666 3239 4311 
Q 3641 3956 3641 3272 
Q 3641 2581 3239 2228 
Q 2838 1875 2053 1875 
L 1259 1875 
L 1259 0 
L 628 0 
L 628 4666 
z
" id="DejaVuSans-50" transform="scale(0.015625)"/>
     </defs>
     <use xlink:href="#DejaVuSans-53"/>
     <use x="63.476562" xlink:href="#DejaVuSans-4c"/>
     <use x="119.189453" xlink:href="#DejaVuSans-53"/>
     <use x="182.666016" xlink:href="#DejaVuSans-51"/>
     <use x="261.376953" xlink:href="#DejaVuSans-50"/>
     <use x="319.429688" xlink:href="#DejaVuSans-2d"/>
     <use x="355.513672" xlink:href="#DejaVuSans-31"/>
     <use x="419.136719" xlink:href="#DejaVuSans-31"/>
     <use x="482.759766" xlink:href="#DejaVuSans-2d"/>
    </g>
   </g>
   <g id="text_14">
    <!-- lq-CMA-ES -->
    <g transform="translate(375.22944 233.796363)scale(0.17 -0.17)">
     <defs>
      <path d="M 947 1747 
Q 947 1113 1208 752 
Q 1469 391 1925 391 
Q 2381 391 2643 752 
Q 2906 1113 2906 1747 
Q 2906 2381 2643 2742 
Q 2381 3103 1925 3103 
Q 1469 3103 1208 2742 
Q 947 2381 947 1747 
z
M 2906 525 
Q 2725 213 2448 61 
Q 2172 -91 1784 -91 
Q 1150 -91 751 415 
Q 353 922 353 1747 
Q 353 2572 751 3078 
Q 1150 3584 1784 3584 
Q 2172 3584 2448 3432 
Q 2725 3281 2906 2969 
L 2906 3500 
L 3481 3500 
L 3481 -1331 
L 2906 -1331 
L 2906 525 
z
" id="DejaVuSans-71" transform="scale(0.015625)"/>
      <path d="M 4122 4306 
L 4122 3641 
Q 3803 3938 3442 4084 
Q 3081 4231 2675 4231 
Q 1875 4231 1450 3742 
Q 1025 3253 1025 2328 
Q 1025 1406 1450 917 
Q 1875 428 2675 428 
Q 3081 428 3442 575 
Q 3803 722 4122 1019 
L 4122 359 
Q 3791 134 3420 21 
Q 3050 -91 2638 -91 
Q 1578 -91 968 557 
Q 359 1206 359 2328 
Q 359 3453 968 4101 
Q 1578 4750 2638 4750 
Q 3056 4750 3426 4639 
Q 3797 4528 4122 4306 
z
" id="DejaVuSans-43" transform="scale(0.015625)"/>
      <path d="M 628 4666 
L 1569 4666 
L 2759 1491 
L 3956 4666 
L 4897 4666 
L 4897 0 
L 4281 0 
L 4281 4097 
L 3078 897 
L 2444 897 
L 1241 4097 
L 1241 0 
L 628 0 
L 628 4666 
z
" id="DejaVuSans-4d" transform="scale(0.015625)"/>
      <path d="M 2188 4044 
L 1331 1722 
L 3047 1722 
L 2188 4044 
z
M 1831 4666 
L 2547 4666 
L 4325 0 
L 3669 0 
L 3244 1197 
L 1141 1197 
L 716 0 
L 50 0 
L 1831 4666 
z
" id="DejaVuSans-41" transform="scale(0.015625)"/>
      <path d="M 628 4666 
L 3578 4666 
L 3578 4134 
L 1259 4134 
L 1259 2753 
L 3481 2753 
L 3481 2222 
L 1259 2222 
L 1259 531 
L 3634 531 
L 3634 0 
L 628 0 
L 628 4666 
z
" id="DejaVuSans-45" transform="scale(0.015625)"/>
     </defs>
     <use xlink:href="#DejaVuSans-6c"/>
     <use x="27.783203" xlink:href="#DejaVuSans-71"/>
     <use x="91.259766" xlink:href="#DejaVuSans-2d"/>
     <use x="127.34375" xlink:href="#DejaVuSans-43"/>
     <use x="197.167969" xlink:href="#DejaVuSans-4d"/>
     <use x="283.447266" xlink:href="#DejaVuSans-41"/>
     <use x="349.605469" xlink:href="#DejaVuSans-2d"/>
     <use x="385.689453" xlink:href="#DejaVuSans-45"/>
     <use x="448.873047" xlink:href="#DejaVuSans-53"/>
    </g>
   </g>
   <g id="text_15">
    <!-- SLSQP+lq- -->
    <g transform="translate(375.22944 169.329987)scale(0.17 -0.17)">
     <defs>
      <path d="M 2944 4013 
L 2944 2272 
L 4684 2272 
L 4684 1741 
L 2944 1741 
L 2944 0 
L 2419 0 
L 2419 1741 
L 678 1741 
L 678 2272 
L 2419 2272 
L 2419 4013 
L 2944 4013 
z
" id="DejaVuSans-2b" transform="scale(0.015625)"/>
     </defs>
     <use xlink:href="#DejaVuSans-53"/>
     <use x="63.476562" xlink:href="#DejaVuSans-4c"/>
     <use x="119.189453" xlink:href="#DejaVuSans-53"/>
     <use x="182.666016" xlink:href="#DejaVuSans-51"/>
     <use x="261.376953" xlink:href="#DejaVuSans-50"/>
     <use x="321.679688" xlink:href="#DejaVuSans-2b"/>
     <use x="405.46875" xlink:href="#DejaVuSans-6c"/>
     <use x="433.251953" xlink:href="#DejaVuSans-71"/>
     <use x="496.728516" xlink:href="#DejaVuSans-2d"/>
    </g>
   </g>
   <g id="text_16">
    <!-- CMA-ES-20 -->
    <g transform="translate(375.22944 104.863611)scale(0.17 -0.17)">
     <use xlink:href="#DejaVuSans-43"/>
     <use x="69.824219" xlink:href="#DejaVuSans-4d"/>
     <use x="156.103516" xlink:href="#DejaVuSans-41"/>
     <use x="222.261719" xlink:href="#DejaVuSans-2d"/>
     <use x="258.345703" xlink:href="#DejaVuSans-45"/>
     <use x="321.529297" xlink:href="#DejaVuSans-53"/>
     <use x="385.005859" xlink:href="#DejaVuSans-2d"/>
     <use x="421.089844" xlink:href="#DejaVuSans-32"/>
     <use x="484.712891" xlink:href="#DejaVuSans-30"/>
    </g>
   </g>
   <g id="text_17">
    <!-- best 2009 -->
    <g transform="translate(375.22944 40.397235)scale(0.17 -0.17)">
     <defs>
      <path d="M 3116 1747 
Q 3116 2381 2855 2742 
Q 2594 3103 2138 3103 
Q 1681 3103 1420 2742 
Q 1159 2381 1159 1747 
Q 1159 1113 1420 752 
Q 1681 391 2138 391 
Q 2594 391 2855 752 
Q 3116 1113 3116 1747 
z
M 1159 2969 
Q 1341 3281 1617 3432 
Q 1894 3584 2278 3584 
Q 2916 3584 3314 3078 
Q 3713 2572 3713 1747 
Q 3713 922 3314 415 
Q 2916 -91 2278 -91 
Q 1894 -91 1617 61 
Q 1341 213 1159 525 
L 1159 0 
L 581 0 
L 581 4863 
L 1159 4863 
L 1159 2969 
z
" id="DejaVuSans-62" transform="scale(0.015625)"/>
      <path d="M 703 97 
L 703 672 
Q 941 559 1184 500 
Q 1428 441 1663 441 
Q 2288 441 2617 861 
Q 2947 1281 2994 2138 
Q 2813 1869 2534 1725 
Q 2256 1581 1919 1581 
Q 1219 1581 811 2004 
Q 403 2428 403 3163 
Q 403 3881 828 4315 
Q 1253 4750 1959 4750 
Q 2769 4750 3195 4129 
Q 3622 3509 3622 2328 
Q 3622 1225 3098 567 
Q 2575 -91 1691 -91 
Q 1453 -91 1209 -44 
Q 966 3 703 97 
z
M 1959 2075 
Q 2384 2075 2632 2365 
Q 2881 2656 2881 3163 
Q 2881 3666 2632 3958 
Q 2384 4250 1959 4250 
Q 1534 4250 1286 3958 
Q 1038 3666 1038 3163 
Q 1038 2656 1286 2365 
Q 1534 2075 1959 2075 
z
" id="DejaVuSans-39" transform="scale(0.015625)"/>
     </defs>
     <use xlink:href="#DejaVuSans-62"/>
     <use x="63.476562" xlink:href="#DejaVuSans-65"/>
     <use x="125" xlink:href="#DejaVuSans-73"/>
     <use x="177.099609" xlink:href="#DejaVuSans-74"/>
     <use x="216.308594" xlink:href="#DejaVuSans-20"/>
     <use x="248.095703" xlink:href="#DejaVuSans-32"/>
     <use x="311.71875" xlink:href="#DejaVuSans-30"/>
     <use x="375.341797" xlink:href="#DejaVuSans-30"/>
     <use x="438.964844" xlink:href="#DejaVuSans-39"/>
    </g>
   </g>
   <g id="text_18">
    <!-- bbob f24, 40-D -->
    <g transform="translate(60.41088 38.111366)scale(0.102 -0.102)">
     <defs>
      <path d="M 1259 4147 
L 1259 519 
L 2022 519 
Q 2988 519 3436 956 
Q 3884 1394 3884 2338 
Q 3884 3275 3436 3711 
Q 2988 4147 2022 4147 
L 1259 4147 
z
M 628 4666 
L 1925 4666 
Q 3281 4666 3915 4102 
Q 4550 3538 4550 2338 
Q 4550 1131 3912 565 
Q 3275 0 1925 0 
L 628 0 
L 628 4666 
z
" id="DejaVuSans-44" transform="scale(0.015625)"/>
     </defs>
     <use xlink:href="#DejaVuSans-62"/>
     <use x="63.476562" xlink:href="#DejaVuSans-62"/>
     <use x="126.953125" xlink:href="#DejaVuSans-6f"/>
     <use x="188.134766" xlink:href="#DejaVuSans-62"/>
     <use x="251.611328" xlink:href="#DejaVuSans-20"/>
     <use x="283.398438" xlink:href="#DejaVuSans-66"/>
     <use x="318.603516" xlink:href="#DejaVuSans-32"/>
     <use x="382.226562" xlink:href="#DejaVuSans-34"/>
     <use x="445.849609" xlink:href="#DejaVuSans-2c"/>
     <use x="477.636719" xlink:href="#DejaVuSans-20"/>
     <use x="509.423828" xlink:href="#DejaVuSans-34"/>
     <use x="573.046875" xlink:href="#DejaVuSans-30"/>
     <use x="636.669922" xlink:href="#DejaVuSans-2d"/>
     <use x="672.753906" xlink:href="#DejaVuSans-44"/>
    </g>
    <!-- 51 targets: 100..1e-08 -->
    <g transform="translate(60.41088 49.533135)scale(0.102 -0.102)">
     <defs>
      <path d="M 691 4666 
L 3169 4666 
L 3169 4134 
L 1269 4134 
L 1269 2991 
Q 1406 3038 1543 3061 
Q 1681 3084 1819 3084 
Q 2600 3084 3056 2656 
Q 3513 2228 3513 1497 
Q 3513 744 3044 326 
Q 2575 -91 1722 -91 
Q 1428 -91 1123 -41 
Q 819 9 494 109 
L 494 744 
Q 775 591 1075 516 
Q 1375 441 1709 441 
Q 2250 441 2565 725 
Q 2881 1009 2881 1497 
Q 2881 1984 2565 2268 
Q 2250 2553 1709 2553 
Q 1456 2553 1204 2497 
Q 953 2441 691 2322 
L 691 4666 
z
" id="DejaVuSans-35" transform="scale(0.015625)"/>
      <path d="M 750 794 
L 1409 794 
L 1409 0 
L 750 0 
L 750 794 
z
M 750 3309 
L 1409 3309 
L 1409 2516 
L 750 2516 
L 750 3309 
z
" id="DejaVuSans-3a" transform="scale(0.015625)"/>
     </defs>
     <use xlink:href="#DejaVuSans-35"/>
     <use x="63.623047" xlink:href="#DejaVuSans-31"/>
     <use x="127.246094" xlink:href="#DejaVuSans-20"/>
     <use x="159.033203" xlink:href="#DejaVuSans-74"/>
     <use x="198.242188" xlink:href="#DejaVuSans-61"/>
     <use x="259.521484" xlink:href="#DejaVuSans-72"/>
     <use x="298.884766" xlink:href="#DejaVuSans-67"/>
     <use x="362.361328" xlink:href="#DejaVuSans-65"/>
     <use x="423.884766" xlink:href="#DejaVuSans-74"/>
     <use x="463.09375" xlink:href="#DejaVuSans-73"/>
     <use x="515.193359" xlink:href="#DejaVuSans-3a"/>
     <use x="548.884766" xlink:href="#DejaVuSans-20"/>
     <use x="580.671875" xlink:href="#DejaVuSans-31"/>
     <use x="644.294922" xlink:href="#DejaVuSans-30"/>
     <use x="707.917969" xlink:href="#DejaVuSans-30"/>
     <use x="771.541016" xlink:href="#DejaVuSans-2e"/>
     <use x="803.328125" xlink:href="#DejaVuSans-2e"/>
     <use x="835.115234" xlink:href="#DejaVuSans-31"/>
     <use x="898.738281" xlink:href="#DejaVuSans-65"/>
     <use x="960.261719" xlink:href="#DejaVuSans-2d"/>
     <use x="996.345703" xlink:href="#DejaVuSans-30"/>
     <use x="1059.96875" xlink:href="#DejaVuSans-38"/>
    </g>
    <!-- 15 instances -->
    <g transform="translate(60.41088 60.954904)scale(0.102 -0.102)">
     <use xlink:href="#DejaVuSans-31"/>
     <use x="63.623047" xlink:href="#DejaVuSans-35"/>
     <use x="127.246094" xlink:href="#DejaVuSans-20"/>
     <use x="159.033203" xlink:href="#DejaVuSans-69"/>
     <use x="186.816406" xlink:href="#DejaVuSans-6e"/>
     <use x="250.195312" xlink:href="#DejaVuSans-73"/>
     <use x="302.294922" xlink:href="#DejaVuSans-74"/>
     <use x="341.503906" xlink:href="#DejaVuSans-61"/>
     <use x="402.783203" xlink:href="#DejaVuSans-6e"/>
     <use x="466.162109" xlink:href="#DejaVuSans-63"/>
     <use x="521.142578" xlink:href="#DejaVuSans-65"/>
     <use x="582.666016" xlink:href="#DejaVuSans-73"/>
    </g>
   </g>
   <g id="text_19">
    <!-- v2.4.1.1 -->
    <g style="fill:#808080;" transform="translate(177.692437 294.151352)scale(0.1 -0.1)">
     <use xlink:href="#DejaVuSans-76"/>
     <use x="59.179688" xlink:href="#DejaVuSans-32"/>
     <use x="122.802734" xlink:href="#DejaVuSans-2e"/>
     <use x="154.589844" xlink:href="#DejaVuSans-34"/>
     <use x="218.212891" xlink:href="#DejaVuSans-2e"/>
     <use x="250" xlink:href="#DejaVuSans-31"/>
     <use x="313.623047" xlink:href="#DejaVuSans-2e"/>
     <use x="345.410156" xlink:href="#DejaVuSans-31"/>
    </g>
   </g>
   <g id="text_20">
    <!-- 24 Lunacek bi-Rastrigin -->
    <g transform="translate(80.351812 21.648)scale(0.2 -0.2)">
     <defs>
      <path d="M 581 4863 
L 1159 4863 
L 1159 1991 
L 2875 3500 
L 3609 3500 
L 1753 1863 
L 3688 0 
L 2938 0 
L 1159 1709 
L 1159 0 
L 581 0 
L 581 4863 
z
" id="DejaVuSans-6b" transform="scale(0.015625)"/>
      <path d="M 2841 2188 
Q 3044 2119 3236 1894 
Q 3428 1669 3622 1275 
L 4263 0 
L 3584 0 
L 2988 1197 
Q 2756 1666 2539 1819 
Q 2322 1972 1947 1972 
L 1259 1972 
L 1259 0 
L 628 0 
L 628 4666 
L 2053 4666 
Q 2853 4666 3247 4331 
Q 3641 3997 3641 3322 
Q 3641 2881 3436 2590 
Q 3231 2300 2841 2188 
z
M 1259 4147 
L 1259 2491 
L 2053 2491 
Q 2509 2491 2742 2702 
Q 2975 2913 2975 3322 
Q 2975 3731 2742 3939 
Q 2509 4147 2053 4147 
L 1259 4147 
z
" id="DejaVuSans-52" transform="scale(0.015625)"/>
     </defs>
     <use xlink:href="#DejaVuSans-32"/>
     <use x="63.623047" xlink:href="#DejaVuSans-34"/>
     <use x="127.246094" xlink:href="#DejaVuSans-20"/>
     <use x="159.033203" xlink:href="#DejaVuSans-4c"/>
     <use x="212.996094" xlink:href="#DejaVuSans-75"/>
     <use x="276.375" xlink:href="#DejaVuSans-6e"/>
     <use x="339.753906" xlink:href="#DejaVuSans-61"/>
     <use x="401.033203" xlink:href="#DejaVuSans-63"/>
     <use x="456.013672" xlink:href="#DejaVuSans-65"/>
     <use x="517.537109" xlink:href="#DejaVuSans-6b"/>
     <use x="575.447266" xlink:href="#DejaVuSans-20"/>
     <use x="607.234375" xlink:href="#DejaVuSans-62"/>
     <use x="670.710938" xlink:href="#DejaVuSans-69"/>
     <use x="698.494141" xlink:href="#DejaVuSans-2d"/>
     <use x="734.578125" xlink:href="#DejaVuSans-52"/>
     <use x="801.810547" xlink:href="#DejaVuSans-61"/>
     <use x="863.089844" xlink:href="#DejaVuSans-73"/>
     <use x="915.189453" xlink:href="#DejaVuSans-74"/>
     <use x="954.398438" xlink:href="#DejaVuSans-72"/>
     <use x="995.511719" xlink:href="#DejaVuSans-69"/>
     <use x="1023.294922" xlink:href="#DejaVuSans-67"/>
     <use x="1086.771484" xlink:href="#DejaVuSans-69"/>
     <use x="1114.554688" xlink:href="#DejaVuSans-6e"/>
    </g>
   </g>
  </g>
 </g>
 <defs>
  <clipPath id="pec95154c07">
   <rect height="271.296" width="281.088" x="57.6" y="27.648"/>
  </clipPath>
 </defs>
</svg>
