<?xml version="1.0" encoding="utf-8" standalone="no"?>
<!DOCTYPE svg PUBLIC "-//W3C//DTD SVG 1.1//EN"
  "http://www.w3.org/Graphics/SVG/1.1/DTD/svg11.dtd">
<svg height="345.6pt" version="1.1" viewBox="0 0 460.8 345.6" width="460.8pt" xmlns="http://www.w3.org/2000/svg" xmlns:xlink="http://www.w3.org/1999/xlink">
 <metadata>
  <rdf:RDF xmlns:cc="http://creativecommons.org/ns#" xmlns:dc="http://purl.org/dc/elements/1.1/" xmlns:rdf="http://www.w3.org/1999/02/22-rdf-syntax-ns#">
   <cc:Work>
    <dc:type rdf:resource="http://purl.org/dc/dcmitype/StillImage"/>
    <dc:date>2022-03-29T11:28:24.911474</dc:date>
    <dc:format>image/svg+xml</dc:format>
    <dc:creator>
     <cc:Agent>
      <dc:title>Matplotlib v3.4.3, https://matplotlib.org/</dc:title>
     </cc:Agent>
    </dc:creator>
   </cc:Work>
  </rdf:RDF>
 </metadata>
 <defs>
  <style type="text/css">*{stroke-linecap:butt;stroke-linejoin:round;}</style>
 </defs>
 <g id="figure_1">
  <g id="patch_1">
   <path d="M 0 345.6 
L 460.8 345.6 
L 460.8 0 
L 0 0 
z
" style="fill:#ffffff;"/>
  </g>
  <g id="axes_1">
   <g id="patch_2">
    <path d="M 57.6 298.944 
L 338.688 298.944 
L 338.688 27.648 
L 57.6 27.648 
z
" style="fill:#ffffff;"/>
   </g>
   <g id="line2d_1">
    <path d="M 5.356583 298.944 
L 5.356583 293.677139 
L 71.74204 293.677139 
L 71.74204 288.410278 
L 78.941764 288.410278 
L 78.941764 283.143418 
L 93.310291 283.143418 
L 93.310291 277.876557 
L 100.268435 277.876557 
L 100.268435 272.609696 
L 112.544146 272.609696 
L 112.544146 267.342835 
L 129.276384 267.342835 
L 129.276384 262.075974 
L 143.691276 262.075974 
L 143.691276 256.809114 
L 143.772462 256.809114 
L 143.772462 251.542253 
L 155.678822 251.542253 
L 155.678822 246.275392 
L 155.804285 246.275392 
L 155.804285 241.008531 
L 180.43602 241.008531 
L 180.43602 235.74167 
L 180.623777 235.74167 
L 180.623777 230.47481 
L 180.677911 230.47481 
L 180.677911 225.207949 
L 180.718401 225.207949 
L 180.718401 219.941088 
L 180.872006 219.941088 
L 180.872006 214.674227 
L 180.937214 214.674227 
L 180.937214 209.407366 
L 181.033099 209.407366 
L 181.033099 204.140506 
L 181.094776 204.140506 
L 181.094776 198.873645 
L 181.196361 198.873645 
L 181.196361 193.606784 
L 181.363884 193.606784 
L 181.363884 188.339923 
L 181.399933 188.339923 
L 181.399933 183.073062 
L 181.442376 183.073062 
L 181.442376 177.806202 
L 181.821892 177.806202 
L 181.821892 172.539341 
L 181.866127 172.539341 
L 181.866127 167.27248 
L 181.921437 167.27248 
L 181.921437 162.005619 
L 182.216021 162.005619 
L 182.216021 156.738758 
L 182.27914 156.738758 
L 182.27914 151.471897 
L 182.353627 151.471897 
L 182.353627 146.205037 
L 182.516524 146.205037 
L 182.516524 140.938176 
L 182.736049 140.938176 
L 182.736049 135.671315 
L 182.772702 135.671315 
L 182.772702 130.404454 
L 182.856382 130.404454 
L 182.856382 125.137593 
L 182.92317 125.137593 
L 182.92317 119.870733 
L 183.036323 119.870733 
L 183.036323 114.603872 
L 183.20079 114.603872 
L 183.20079 109.337011 
L 188.853028 109.337011 
L 188.853028 104.07015 
L 188.916799 104.07015 
L 188.916799 98.803289 
L 188.941587 98.803289 
L 188.941587 93.536429 
L 189.095607 93.536429 
L 189.095607 88.269568 
L 203.361568 88.269568 
L 203.361568 83.002707 
L 203.393635 83.002707 
L 203.393635 77.735846 
L 211.314419 77.735846 
L 211.314419 72.468985 
L 211.32271 72.468985 
L 211.32271 67.202125 
L 211.333715 67.202125 
L 211.333715 61.935264 
L 211.341091 61.935264 
L 211.341091 56.668403 
L 211.3473 56.668403 
L 211.3473 51.401542 
L 211.361779 51.401542 
L 211.361779 46.134681 
L 211.367334 46.134681 
L 211.367334 40.867821 
L 211.372242 40.867821 
L 211.372242 35.60096 
L 211.384894 35.60096 
L 211.384894 30.334099 
L 338.688 30.334099 
" style="fill:none;stroke:#f5deb3;stroke-linecap:square;stroke-width:4;"/>
   </g>
   <g id="line2d_2">
    <defs>
     <path d="M 0 7.778175 
L 7.778175 0 
L 0 -7.778175 
L -7.778175 0 
z
" id="m7c5d35139b" style="stroke:#f5deb3;stroke-linejoin:miter;stroke-width:1.5;"/>
    </defs>
    <g>
     <use style="fill:#f5deb3;stroke:#f5deb3;stroke-linejoin:miter;stroke-width:1.5;" x="129.276384" xlink:href="#m7c5d35139b" y="262.075974"/>
     <use style="fill:#f5deb3;stroke:#f5deb3;stroke-linejoin:miter;stroke-width:1.5;" x="181.921437" xlink:href="#m7c5d35139b" y="167.27248"/>
     <use style="fill:#f5deb3;stroke:#f5deb3;stroke-linejoin:miter;stroke-width:1.5;" x="211.361779" xlink:href="#m7c5d35139b" y="46.134681"/>
     <use style="fill:#f5deb3;stroke:#f5deb3;stroke-linejoin:miter;stroke-width:1.5;" x="211.384894" xlink:href="#m7c5d35139b" y="30.334099"/>
     <use style="fill:#f5deb3;stroke:#f5deb3;stroke-linejoin:miter;stroke-width:1.5;" x="211.384894" xlink:href="#m7c5d35139b" y="30.334099"/>
     <use style="fill:#f5deb3;stroke:#f5deb3;stroke-linejoin:miter;stroke-width:1.5;" x="338.688" xlink:href="#m7c5d35139b" y="30.334099"/>
    </g>
   </g>
   <g id="line2d_3">
    <path style="fill:none;stroke:#f5deb3;stroke-linecap:square;stroke-width:4;"/>
    <g/>
   </g>
   <g id="line2d_4">
    <path d="M 338.688 30.334099 
L 369.60768 35.706297 
" style="fill:none;stroke:#f5deb3;stroke-linecap:square;stroke-width:4;"/>
    <g>
     <use style="fill:#f5deb3;stroke:#f5deb3;stroke-linejoin:miter;stroke-width:1.5;" x="338.688" xlink:href="#m7c5d35139b" y="30.334099"/>
     <use style="fill:#f5deb3;stroke:#f5deb3;stroke-linejoin:miter;stroke-width:1.5;" x="369.60768" xlink:href="#m7c5d35139b" y="35.706297"/>
    </g>
   </g>
   <g id="matplotlib.axis_1">
    <g id="xtick_1">
     <g id="line2d_5">
      <path clip-path="url(#p3661c157b1)" d="M 57.6 298.944 
L 57.6 27.648 
" style="fill:none;stroke:#b0b0b0;stroke-linecap:square;stroke-width:0.8;"/>
     </g>
     <g id="line2d_6">
      <defs>
       <path d="M 0 0 
L 0 3.5 
" id="mef3c01e466" style="stroke:#000000;stroke-width:0.8;"/>
      </defs>
      <g>
       <use style="stroke:#000000;stroke-width:0.8;" x="57.6" xlink:href="#mef3c01e466" y="298.944"/>
      </g>
     </g>
     <g id="text_1">
      <!-- 0 -->
      <g transform="translate(51.2375 321.140875)scale(0.2 -0.2)">
       <defs>
        <path d="M 2034 4250 
Q 1547 4250 1301 3770 
Q 1056 3291 1056 2328 
Q 1056 1369 1301 889 
Q 1547 409 2034 409 
Q 2525 409 2770 889 
Q 3016 1369 3016 2328 
Q 3016 3291 2770 3770 
Q 2525 4250 2034 4250 
z
M 2034 4750 
Q 2819 4750 3233 4129 
Q 3647 3509 3647 2328 
Q 3647 1150 3233 529 
Q 2819 -91 2034 -91 
Q 1250 -91 836 529 
Q 422 1150 422 2328 
Q 422 3509 836 4129 
Q 1250 4750 2034 4750 
z
" id="DejaVuSans-30" transform="scale(0.015625)"/>
       </defs>
       <use xlink:href="#DejaVuSans-30"/>
      </g>
     </g>
    </g>
    <g id="xtick_2">
     <g id="line2d_7">
      <path clip-path="url(#p3661c157b1)" d="M 137.910857 298.944 
L 137.910857 27.648 
" style="fill:none;stroke:#b0b0b0;stroke-linecap:square;stroke-width:0.8;"/>
     </g>
     <g id="line2d_8">
      <g>
       <use style="stroke:#000000;stroke-width:0.8;" x="137.910857" xlink:href="#mef3c01e466" y="298.944"/>
      </g>
     </g>
     <g id="text_2">
      <!-- 2 -->
      <g transform="translate(131.548357 321.140875)scale(0.2 -0.2)">
       <defs>
        <path d="M 1228 531 
L 3431 531 
L 3431 0 
L 469 0 
L 469 531 
Q 828 903 1448 1529 
Q 2069 2156 2228 2338 
Q 2531 2678 2651 2914 
Q 2772 3150 2772 3378 
Q 2772 3750 2511 3984 
Q 2250 4219 1831 4219 
Q 1534 4219 1204 4116 
Q 875 4013 500 3803 
L 500 4441 
Q 881 4594 1212 4672 
Q 1544 4750 1819 4750 
Q 2544 4750 2975 4387 
Q 3406 4025 3406 3419 
Q 3406 3131 3298 2873 
Q 3191 2616 2906 2266 
Q 2828 2175 2409 1742 
Q 1991 1309 1228 531 
z
" id="DejaVuSans-32" transform="scale(0.015625)"/>
       </defs>
       <use xlink:href="#DejaVuSans-32"/>
      </g>
     </g>
    </g>
    <g id="xtick_3">
     <g id="line2d_9">
      <path clip-path="url(#p3661c157b1)" d="M 218.221714 298.944 
L 218.221714 27.648 
" style="fill:none;stroke:#b0b0b0;stroke-linecap:square;stroke-width:0.8;"/>
     </g>
     <g id="line2d_10">
      <g>
       <use style="stroke:#000000;stroke-width:0.8;" x="218.221714" xlink:href="#mef3c01e466" y="298.944"/>
      </g>
     </g>
     <g id="text_3">
      <!-- 4 -->
      <g transform="translate(211.859214 321.140875)scale(0.2 -0.2)">
       <defs>
        <path d="M 2419 4116 
L 825 1625 
L 2419 1625 
L 2419 4116 
z
M 2253 4666 
L 3047 4666 
L 3047 1625 
L 3713 1625 
L 3713 1100 
L 3047 1100 
L 3047 0 
L 2419 0 
L 2419 1100 
L 313 1100 
L 313 1709 
L 2253 4666 
z
" id="DejaVuSans-34" transform="scale(0.015625)"/>
       </defs>
       <use xlink:href="#DejaVuSans-34"/>
      </g>
     </g>
    </g>
    <g id="xtick_4">
     <g id="line2d_11">
      <path clip-path="url(#p3661c157b1)" d="M 298.532571 298.944 
L 298.532571 27.648 
" style="fill:none;stroke:#b0b0b0;stroke-linecap:square;stroke-width:0.8;"/>
     </g>
     <g id="line2d_12">
      <g>
       <use style="stroke:#000000;stroke-width:0.8;" x="298.532571" xlink:href="#mef3c01e466" y="298.944"/>
      </g>
     </g>
     <g id="text_4">
      <!-- 6 -->
      <g transform="translate(292.170071 321.140875)scale(0.2 -0.2)">
       <defs>
        <path d="M 2113 2584 
Q 1688 2584 1439 2293 
Q 1191 2003 1191 1497 
Q 1191 994 1439 701 
Q 1688 409 2113 409 
Q 2538 409 2786 701 
Q 3034 994 3034 1497 
Q 3034 2003 2786 2293 
Q 2538 2584 2113 2584 
z
M 3366 4563 
L 3366 3988 
Q 3128 4100 2886 4159 
Q 2644 4219 2406 4219 
Q 1781 4219 1451 3797 
Q 1122 3375 1075 2522 
Q 1259 2794 1537 2939 
Q 1816 3084 2150 3084 
Q 2853 3084 3261 2657 
Q 3669 2231 3669 1497 
Q 3669 778 3244 343 
Q 2819 -91 2113 -91 
Q 1303 -91 875 529 
Q 447 1150 447 2328 
Q 447 3434 972 4092 
Q 1497 4750 2381 4750 
Q 2619 4750 2861 4703 
Q 3103 4656 3366 4563 
z
" id="DejaVuSans-36" transform="scale(0.015625)"/>
       </defs>
       <use xlink:href="#DejaVuSans-36"/>
      </g>
     </g>
    </g>
    <g id="xtick_5">
     <g id="line2d_13">
      <path clip-path="url(#p3661c157b1)" d="M 97.755429 298.944 
L 97.755429 27.648 
" style="fill:none;stroke:#b0b0b0;stroke-linecap:square;stroke-width:0.8;"/>
     </g>
     <g id="line2d_14">
      <defs>
       <path d="M 0 0 
L 0 2 
" id="mf0542ed480" style="stroke:#000000;stroke-width:0.6;"/>
      </defs>
      <g>
       <use style="stroke:#000000;stroke-width:0.6;" x="97.755429" xlink:href="#mf0542ed480" y="298.944"/>
      </g>
     </g>
    </g>
    <g id="xtick_6">
     <g id="line2d_15">
      <path clip-path="url(#p3661c157b1)" d="M 178.066286 298.944 
L 178.066286 27.648 
" style="fill:none;stroke:#b0b0b0;stroke-linecap:square;stroke-width:0.8;"/>
     </g>
     <g id="line2d_16">
      <g>
       <use style="stroke:#000000;stroke-width:0.6;" x="178.066286" xlink:href="#mf0542ed480" y="298.944"/>
      </g>
     </g>
    </g>
    <g id="xtick_7">
     <g id="line2d_17">
      <path clip-path="url(#p3661c157b1)" d="M 258.377143 298.944 
L 258.377143 27.648 
" style="fill:none;stroke:#b0b0b0;stroke-linecap:square;stroke-width:0.8;"/>
     </g>
     <g id="line2d_18">
      <g>
       <use style="stroke:#000000;stroke-width:0.6;" x="258.377143" xlink:href="#mf0542ed480" y="298.944"/>
      </g>
     </g>
    </g>
    <g id="xtick_8">
     <g id="line2d_19">
      <path clip-path="url(#p3661c157b1)" d="M 338.688 298.944 
L 338.688 27.648 
" style="fill:none;stroke:#b0b0b0;stroke-linecap:square;stroke-width:0.8;"/>
     </g>
     <g id="line2d_20">
      <g>
       <use style="stroke:#000000;stroke-width:0.6;" x="338.688" xlink:href="#mf0542ed480" y="298.944"/>
      </g>
     </g>
    </g>
    <g id="text_5">
     <!-- log10(# f-evals / dimension) -->
     <g transform="translate(77.764078 342.217594)scale(0.17 -0.17)">
      <defs>
       <path d="M 603 4863 
L 1178 4863 
L 1178 0 
L 603 0 
L 603 4863 
z
" id="DejaVuSans-6c" transform="scale(0.015625)"/>
       <path d="M 1959 3097 
Q 1497 3097 1228 2736 
Q 959 2375 959 1747 
Q 959 1119 1226 758 
Q 1494 397 1959 397 
Q 2419 397 2687 759 
Q 2956 1122 2956 1747 
Q 2956 2369 2687 2733 
Q 2419 3097 1959 3097 
z
M 1959 3584 
Q 2709 3584 3137 3096 
Q 3566 2609 3566 1747 
Q 3566 888 3137 398 
Q 2709 -91 1959 -91 
Q 1206 -91 779 398 
Q 353 888 353 1747 
Q 353 2609 779 3096 
Q 1206 3584 1959 3584 
z
" id="DejaVuSans-6f" transform="scale(0.015625)"/>
       <path d="M 2906 1791 
Q 2906 2416 2648 2759 
Q 2391 3103 1925 3103 
Q 1463 3103 1205 2759 
Q 947 2416 947 1791 
Q 947 1169 1205 825 
Q 1463 481 1925 481 
Q 2391 481 2648 825 
Q 2906 1169 2906 1791 
z
M 3481 434 
Q 3481 -459 3084 -895 
Q 2688 -1331 1869 -1331 
Q 1566 -1331 1297 -1286 
Q 1028 -1241 775 -1147 
L 775 -588 
Q 1028 -725 1275 -790 
Q 1522 -856 1778 -856 
Q 2344 -856 2625 -561 
Q 2906 -266 2906 331 
L 2906 616 
Q 2728 306 2450 153 
Q 2172 0 1784 0 
Q 1141 0 747 490 
Q 353 981 353 1791 
Q 353 2603 747 3093 
Q 1141 3584 1784 3584 
Q 2172 3584 2450 3431 
Q 2728 3278 2906 2969 
L 2906 3500 
L 3481 3500 
L 3481 434 
z
" id="DejaVuSans-67" transform="scale(0.015625)"/>
       <path d="M 794 531 
L 1825 531 
L 1825 4091 
L 703 3866 
L 703 4441 
L 1819 4666 
L 2450 4666 
L 2450 531 
L 3481 531 
L 3481 0 
L 794 0 
L 794 531 
z
" id="DejaVuSans-31" transform="scale(0.015625)"/>
       <path d="M 1984 4856 
Q 1566 4138 1362 3434 
Q 1159 2731 1159 2009 
Q 1159 1288 1364 580 
Q 1569 -128 1984 -844 
L 1484 -844 
Q 1016 -109 783 600 
Q 550 1309 550 2009 
Q 550 2706 781 3412 
Q 1013 4119 1484 4856 
L 1984 4856 
z
" id="DejaVuSans-28" transform="scale(0.015625)"/>
       <path d="M 3272 2816 
L 2363 2816 
L 2100 1772 
L 3016 1772 
L 3272 2816 
z
M 2803 4594 
L 2478 3297 
L 3391 3297 
L 3719 4594 
L 4219 4594 
L 3897 3297 
L 4872 3297 
L 4872 2816 
L 3775 2816 
L 3519 1772 
L 4513 1772 
L 4513 1294 
L 3397 1294 
L 3072 0 
L 2572 0 
L 2894 1294 
L 1978 1294 
L 1656 0 
L 1153 0 
L 1478 1294 
L 494 1294 
L 494 1772 
L 1594 1772 
L 1856 2816 
L 850 2816 
L 850 3297 
L 1978 3297 
L 2297 4594 
L 2803 4594 
z
" id="DejaVuSans-23" transform="scale(0.015625)"/>
       <path id="DejaVuSans-20" transform="scale(0.015625)"/>
       <path d="M 2375 4863 
L 2375 4384 
L 1825 4384 
Q 1516 4384 1395 4259 
Q 1275 4134 1275 3809 
L 1275 3500 
L 2222 3500 
L 2222 3053 
L 1275 3053 
L 1275 0 
L 697 0 
L 697 3053 
L 147 3053 
L 147 3500 
L 697 3500 
L 697 3744 
Q 697 4328 969 4595 
Q 1241 4863 1831 4863 
L 2375 4863 
z
" id="DejaVuSans-66" transform="scale(0.015625)"/>
       <path d="M 313 2009 
L 1997 2009 
L 1997 1497 
L 313 1497 
L 313 2009 
z
" id="DejaVuSans-2d" transform="scale(0.015625)"/>
       <path d="M 3597 1894 
L 3597 1613 
L 953 1613 
Q 991 1019 1311 708 
Q 1631 397 2203 397 
Q 2534 397 2845 478 
Q 3156 559 3463 722 
L 3463 178 
Q 3153 47 2828 -22 
Q 2503 -91 2169 -91 
Q 1331 -91 842 396 
Q 353 884 353 1716 
Q 353 2575 817 3079 
Q 1281 3584 2069 3584 
Q 2775 3584 3186 3129 
Q 3597 2675 3597 1894 
z
M 3022 2063 
Q 3016 2534 2758 2815 
Q 2500 3097 2075 3097 
Q 1594 3097 1305 2825 
Q 1016 2553 972 2059 
L 3022 2063 
z
" id="DejaVuSans-65" transform="scale(0.015625)"/>
       <path d="M 191 3500 
L 800 3500 
L 1894 563 
L 2988 3500 
L 3597 3500 
L 2284 0 
L 1503 0 
L 191 3500 
z
" id="DejaVuSans-76" transform="scale(0.015625)"/>
       <path d="M 2194 1759 
Q 1497 1759 1228 1600 
Q 959 1441 959 1056 
Q 959 750 1161 570 
Q 1363 391 1709 391 
Q 2188 391 2477 730 
Q 2766 1069 2766 1631 
L 2766 1759 
L 2194 1759 
z
M 3341 1997 
L 3341 0 
L 2766 0 
L 2766 531 
Q 2569 213 2275 61 
Q 1981 -91 1556 -91 
Q 1019 -91 701 211 
Q 384 513 384 1019 
Q 384 1609 779 1909 
Q 1175 2209 1959 2209 
L 2766 2209 
L 2766 2266 
Q 2766 2663 2505 2880 
Q 2244 3097 1772 3097 
Q 1472 3097 1187 3025 
Q 903 2953 641 2809 
L 641 3341 
Q 956 3463 1253 3523 
Q 1550 3584 1831 3584 
Q 2591 3584 2966 3190 
Q 3341 2797 3341 1997 
z
" id="DejaVuSans-61" transform="scale(0.015625)"/>
       <path d="M 2834 3397 
L 2834 2853 
Q 2591 2978 2328 3040 
Q 2066 3103 1784 3103 
Q 1356 3103 1142 2972 
Q 928 2841 928 2578 
Q 928 2378 1081 2264 
Q 1234 2150 1697 2047 
L 1894 2003 
Q 2506 1872 2764 1633 
Q 3022 1394 3022 966 
Q 3022 478 2636 193 
Q 2250 -91 1575 -91 
Q 1294 -91 989 -36 
Q 684 19 347 128 
L 347 722 
Q 666 556 975 473 
Q 1284 391 1588 391 
Q 1994 391 2212 530 
Q 2431 669 2431 922 
Q 2431 1156 2273 1281 
Q 2116 1406 1581 1522 
L 1381 1569 
Q 847 1681 609 1914 
Q 372 2147 372 2553 
Q 372 3047 722 3315 
Q 1072 3584 1716 3584 
Q 2034 3584 2315 3537 
Q 2597 3491 2834 3397 
z
" id="DejaVuSans-73" transform="scale(0.015625)"/>
       <path d="M 1625 4666 
L 2156 4666 
L 531 -594 
L 0 -594 
L 1625 4666 
z
" id="DejaVuSans-2f" transform="scale(0.015625)"/>
       <path d="M 2906 2969 
L 2906 4863 
L 3481 4863 
L 3481 0 
L 2906 0 
L 2906 525 
Q 2725 213 2448 61 
Q 2172 -91 1784 -91 
Q 1150 -91 751 415 
Q 353 922 353 1747 
Q 353 2572 751 3078 
Q 1150 3584 1784 3584 
Q 2172 3584 2448 3432 
Q 2725 3281 2906 2969 
z
M 947 1747 
Q 947 1113 1208 752 
Q 1469 391 1925 391 
Q 2381 391 2643 752 
Q 2906 1113 2906 1747 
Q 2906 2381 2643 2742 
Q 2381 3103 1925 3103 
Q 1469 3103 1208 2742 
Q 947 2381 947 1747 
z
" id="DejaVuSans-64" transform="scale(0.015625)"/>
       <path d="M 603 3500 
L 1178 3500 
L 1178 0 
L 603 0 
L 603 3500 
z
M 603 4863 
L 1178 4863 
L 1178 4134 
L 603 4134 
L 603 4863 
z
" id="DejaVuSans-69" transform="scale(0.015625)"/>
       <path d="M 3328 2828 
Q 3544 3216 3844 3400 
Q 4144 3584 4550 3584 
Q 5097 3584 5394 3201 
Q 5691 2819 5691 2113 
L 5691 0 
L 5113 0 
L 5113 2094 
Q 5113 2597 4934 2840 
Q 4756 3084 4391 3084 
Q 3944 3084 3684 2787 
Q 3425 2491 3425 1978 
L 3425 0 
L 2847 0 
L 2847 2094 
Q 2847 2600 2669 2842 
Q 2491 3084 2119 3084 
Q 1678 3084 1418 2786 
Q 1159 2488 1159 1978 
L 1159 0 
L 581 0 
L 581 3500 
L 1159 3500 
L 1159 2956 
Q 1356 3278 1631 3431 
Q 1906 3584 2284 3584 
Q 2666 3584 2933 3390 
Q 3200 3197 3328 2828 
z
" id="DejaVuSans-6d" transform="scale(0.015625)"/>
       <path d="M 3513 2113 
L 3513 0 
L 2938 0 
L 2938 2094 
Q 2938 2591 2744 2837 
Q 2550 3084 2163 3084 
Q 1697 3084 1428 2787 
Q 1159 2491 1159 1978 
L 1159 0 
L 581 0 
L 581 3500 
L 1159 3500 
L 1159 2956 
Q 1366 3272 1645 3428 
Q 1925 3584 2291 3584 
Q 2894 3584 3203 3211 
Q 3513 2838 3513 2113 
z
" id="DejaVuSans-6e" transform="scale(0.015625)"/>
       <path d="M 513 4856 
L 1013 4856 
Q 1481 4119 1714 3412 
Q 1947 2706 1947 2009 
Q 1947 1309 1714 600 
Q 1481 -109 1013 -844 
L 513 -844 
Q 928 -128 1133 580 
Q 1338 1288 1338 2009 
Q 1338 2731 1133 3434 
Q 928 4138 513 4856 
z
" id="DejaVuSans-29" transform="scale(0.015625)"/>
      </defs>
      <use xlink:href="#DejaVuSans-6c"/>
      <use x="27.783203" xlink:href="#DejaVuSans-6f"/>
      <use x="88.964844" xlink:href="#DejaVuSans-67"/>
      <use x="152.441406" xlink:href="#DejaVuSans-31"/>
      <use x="216.064453" xlink:href="#DejaVuSans-30"/>
      <use x="279.6875" xlink:href="#DejaVuSans-28"/>
      <use x="318.701172" xlink:href="#DejaVuSans-23"/>
      <use x="402.490234" xlink:href="#DejaVuSans-20"/>
      <use x="434.277344" xlink:href="#DejaVuSans-66"/>
      <use x="463.982422" xlink:href="#DejaVuSans-2d"/>
      <use x="500.066406" xlink:href="#DejaVuSans-65"/>
      <use x="561.589844" xlink:href="#DejaVuSans-76"/>
      <use x="620.769531" xlink:href="#DejaVuSans-61"/>
      <use x="682.048828" xlink:href="#DejaVuSans-6c"/>
      <use x="709.832031" xlink:href="#DejaVuSans-73"/>
      <use x="761.931641" xlink:href="#DejaVuSans-20"/>
      <use x="793.71875" xlink:href="#DejaVuSans-2f"/>
      <use x="827.410156" xlink:href="#DejaVuSans-20"/>
      <use x="859.197266" xlink:href="#DejaVuSans-64"/>
      <use x="922.673828" xlink:href="#DejaVuSans-69"/>
      <use x="950.457031" xlink:href="#DejaVuSans-6d"/>
      <use x="1047.869141" xlink:href="#DejaVuSans-65"/>
      <use x="1109.392578" xlink:href="#DejaVuSans-6e"/>
      <use x="1172.771484" xlink:href="#DejaVuSans-73"/>
      <use x="1224.871094" xlink:href="#DejaVuSans-69"/>
      <use x="1252.654297" xlink:href="#DejaVuSans-6f"/>
      <use x="1313.835938" xlink:href="#DejaVuSans-6e"/>
      <use x="1377.214844" xlink:href="#DejaVuSans-29"/>
     </g>
    </g>
   </g>
   <g id="matplotlib.axis_2">
    <g id="ytick_1">
     <g id="line2d_21">
      <path clip-path="url(#p3661c157b1)" d="M 57.6 298.944 
L 338.688 298.944 
" style="fill:none;stroke:#b0b0b0;stroke-linecap:square;stroke-width:0.8;"/>
     </g>
     <g id="line2d_22">
      <defs>
       <path d="M 0 0 
L -3.5 0 
" id="m3d5ef44594" style="stroke:#000000;stroke-width:0.8;"/>
      </defs>
      <g>
       <use style="stroke:#000000;stroke-width:0.8;" x="57.6" xlink:href="#m3d5ef44594" y="298.944"/>
      </g>
     </g>
     <g id="text_6">
      <!-- 0.0 -->
      <g transform="translate(25.155 305.02275)scale(0.16 -0.16)">
       <defs>
        <path d="M 684 794 
L 1344 794 
L 1344 0 
L 684 0 
L 684 794 
z
" id="DejaVuSans-2e" transform="scale(0.015625)"/>
       </defs>
       <use xlink:href="#DejaVuSans-30"/>
       <use x="63.623047" xlink:href="#DejaVuSans-2e"/>
       <use x="95.410156" xlink:href="#DejaVuSans-30"/>
      </g>
     </g>
    </g>
    <g id="ytick_2">
     <g id="line2d_23">
      <path clip-path="url(#p3661c157b1)" d="M 57.6 245.22202 
L 338.688 245.22202 
" style="fill:none;stroke:#b0b0b0;stroke-linecap:square;stroke-width:0.8;"/>
     </g>
     <g id="line2d_24">
      <g>
       <use style="stroke:#000000;stroke-width:0.8;" x="57.6" xlink:href="#m3d5ef44594" y="245.22202"/>
      </g>
     </g>
     <g id="text_7">
      <!-- 0.2 -->
      <g transform="translate(25.155 251.30077)scale(0.16 -0.16)">
       <use xlink:href="#DejaVuSans-30"/>
       <use x="63.623047" xlink:href="#DejaVuSans-2e"/>
       <use x="95.410156" xlink:href="#DejaVuSans-32"/>
      </g>
     </g>
    </g>
    <g id="ytick_3">
     <g id="line2d_25">
      <path clip-path="url(#p3661c157b1)" d="M 57.6 191.50004 
L 338.688 191.50004 
" style="fill:none;stroke:#b0b0b0;stroke-linecap:square;stroke-width:0.8;"/>
     </g>
     <g id="line2d_26">
      <g>
       <use style="stroke:#000000;stroke-width:0.8;" x="57.6" xlink:href="#m3d5ef44594" y="191.50004"/>
      </g>
     </g>
     <g id="text_8">
      <!-- 0.4 -->
      <g transform="translate(25.155 197.57879)scale(0.16 -0.16)">
       <use xlink:href="#DejaVuSans-30"/>
       <use x="63.623047" xlink:href="#DejaVuSans-2e"/>
       <use x="95.410156" xlink:href="#DejaVuSans-34"/>
      </g>
     </g>
    </g>
    <g id="ytick_4">
     <g id="line2d_27">
      <path clip-path="url(#p3661c157b1)" d="M 57.6 137.778059 
L 338.688 137.778059 
" style="fill:none;stroke:#b0b0b0;stroke-linecap:square;stroke-width:0.8;"/>
     </g>
     <g id="line2d_28">
      <g>
       <use style="stroke:#000000;stroke-width:0.8;" x="57.6" xlink:href="#m3d5ef44594" y="137.778059"/>
      </g>
     </g>
     <g id="text_9">
      <!-- 0.6 -->
      <g transform="translate(25.155 143.856809)scale(0.16 -0.16)">
       <use xlink:href="#DejaVuSans-30"/>
       <use x="63.623047" xlink:href="#DejaVuSans-2e"/>
       <use x="95.410156" xlink:href="#DejaVuSans-36"/>
      </g>
     </g>
    </g>
    <g id="ytick_5">
     <g id="line2d_29">
      <path clip-path="url(#p3661c157b1)" d="M 57.6 84.056079 
L 338.688 84.056079 
" style="fill:none;stroke:#b0b0b0;stroke-linecap:square;stroke-width:0.8;"/>
     </g>
     <g id="line2d_30">
      <g>
       <use style="stroke:#000000;stroke-width:0.8;" x="57.6" xlink:href="#m3d5ef44594" y="84.056079"/>
      </g>
     </g>
     <g id="text_10">
      <!-- 0.8 -->
      <g transform="translate(25.155 90.134829)scale(0.16 -0.16)">
       <defs>
        <path d="M 2034 2216 
Q 1584 2216 1326 1975 
Q 1069 1734 1069 1313 
Q 1069 891 1326 650 
Q 1584 409 2034 409 
Q 2484 409 2743 651 
Q 3003 894 3003 1313 
Q 3003 1734 2745 1975 
Q 2488 2216 2034 2216 
z
M 1403 2484 
Q 997 2584 770 2862 
Q 544 3141 544 3541 
Q 544 4100 942 4425 
Q 1341 4750 2034 4750 
Q 2731 4750 3128 4425 
Q 3525 4100 3525 3541 
Q 3525 3141 3298 2862 
Q 3072 2584 2669 2484 
Q 3125 2378 3379 2068 
Q 3634 1759 3634 1313 
Q 3634 634 3220 271 
Q 2806 -91 2034 -91 
Q 1263 -91 848 271 
Q 434 634 434 1313 
Q 434 1759 690 2068 
Q 947 2378 1403 2484 
z
M 1172 3481 
Q 1172 3119 1398 2916 
Q 1625 2713 2034 2713 
Q 2441 2713 2670 2916 
Q 2900 3119 2900 3481 
Q 2900 3844 2670 4047 
Q 2441 4250 2034 4250 
Q 1625 4250 1398 4047 
Q 1172 3844 1172 3481 
z
" id="DejaVuSans-38" transform="scale(0.015625)"/>
       </defs>
       <use xlink:href="#DejaVuSans-30"/>
       <use x="63.623047" xlink:href="#DejaVuSans-2e"/>
       <use x="95.410156" xlink:href="#DejaVuSans-38"/>
      </g>
     </g>
    </g>
    <g id="ytick_6">
     <g id="line2d_31">
      <path clip-path="url(#p3661c157b1)" d="M 57.6 30.334099 
L 338.688 30.334099 
" style="fill:none;stroke:#b0b0b0;stroke-linecap:square;stroke-width:0.8;"/>
     </g>
     <g id="line2d_32">
      <g>
       <use style="stroke:#000000;stroke-width:0.8;" x="57.6" xlink:href="#m3d5ef44594" y="30.334099"/>
      </g>
     </g>
     <g id="text_11">
      <!-- 1.0 -->
      <g transform="translate(25.155 36.412849)scale(0.16 -0.16)">
       <use xlink:href="#DejaVuSans-31"/>
       <use x="63.623047" xlink:href="#DejaVuSans-2e"/>
       <use x="95.410156" xlink:href="#DejaVuSans-30"/>
      </g>
     </g>
    </g>
    <g id="text_12">
     <!-- Fraction of function,target pairs -->
     <g transform="translate(17.619531 297.681)rotate(-90)scale(0.17 -0.17)">
      <defs>
       <path d="M 628 4666 
L 3309 4666 
L 3309 4134 
L 1259 4134 
L 1259 2759 
L 3109 2759 
L 3109 2228 
L 1259 2228 
L 1259 0 
L 628 0 
L 628 4666 
z
" id="DejaVuSans-46" transform="scale(0.015625)"/>
       <path d="M 2631 2963 
Q 2534 3019 2420 3045 
Q 2306 3072 2169 3072 
Q 1681 3072 1420 2755 
Q 1159 2438 1159 1844 
L 1159 0 
L 581 0 
L 581 3500 
L 1159 3500 
L 1159 2956 
Q 1341 3275 1631 3429 
Q 1922 3584 2338 3584 
Q 2397 3584 2469 3576 
Q 2541 3569 2628 3553 
L 2631 2963 
z
" id="DejaVuSans-72" transform="scale(0.015625)"/>
       <path d="M 3122 3366 
L 3122 2828 
Q 2878 2963 2633 3030 
Q 2388 3097 2138 3097 
Q 1578 3097 1268 2742 
Q 959 2388 959 1747 
Q 959 1106 1268 751 
Q 1578 397 2138 397 
Q 2388 397 2633 464 
Q 2878 531 3122 666 
L 3122 134 
Q 2881 22 2623 -34 
Q 2366 -91 2075 -91 
Q 1284 -91 818 406 
Q 353 903 353 1747 
Q 353 2603 823 3093 
Q 1294 3584 2113 3584 
Q 2378 3584 2631 3529 
Q 2884 3475 3122 3366 
z
" id="DejaVuSans-63" transform="scale(0.015625)"/>
       <path d="M 1172 4494 
L 1172 3500 
L 2356 3500 
L 2356 3053 
L 1172 3053 
L 1172 1153 
Q 1172 725 1289 603 
Q 1406 481 1766 481 
L 2356 481 
L 2356 0 
L 1766 0 
Q 1100 0 847 248 
Q 594 497 594 1153 
L 594 3053 
L 172 3053 
L 172 3500 
L 594 3500 
L 594 4494 
L 1172 4494 
z
" id="DejaVuSans-74" transform="scale(0.015625)"/>
       <path d="M 544 1381 
L 544 3500 
L 1119 3500 
L 1119 1403 
Q 1119 906 1312 657 
Q 1506 409 1894 409 
Q 2359 409 2629 706 
Q 2900 1003 2900 1516 
L 2900 3500 
L 3475 3500 
L 3475 0 
L 2900 0 
L 2900 538 
Q 2691 219 2414 64 
Q 2138 -91 1772 -91 
Q 1169 -91 856 284 
Q 544 659 544 1381 
z
M 1991 3584 
L 1991 3584 
z
" id="DejaVuSans-75" transform="scale(0.015625)"/>
       <path d="M 750 794 
L 1409 794 
L 1409 256 
L 897 -744 
L 494 -744 
L 750 256 
L 750 794 
z
" id="DejaVuSans-2c" transform="scale(0.015625)"/>
       <path d="M 1159 525 
L 1159 -1331 
L 581 -1331 
L 581 3500 
L 1159 3500 
L 1159 2969 
Q 1341 3281 1617 3432 
Q 1894 3584 2278 3584 
Q 2916 3584 3314 3078 
Q 3713 2572 3713 1747 
Q 3713 922 3314 415 
Q 2916 -91 2278 -91 
Q 1894 -91 1617 61 
Q 1341 213 1159 525 
z
M 3116 1747 
Q 3116 2381 2855 2742 
Q 2594 3103 2138 3103 
Q 1681 3103 1420 2742 
Q 1159 2381 1159 1747 
Q 1159 1113 1420 752 
Q 1681 391 2138 391 
Q 2594 391 2855 752 
Q 3116 1113 3116 1747 
z
" id="DejaVuSans-70" transform="scale(0.015625)"/>
      </defs>
      <use xlink:href="#DejaVuSans-46"/>
      <use x="50.269531" xlink:href="#DejaVuSans-72"/>
      <use x="91.382812" xlink:href="#DejaVuSans-61"/>
      <use x="152.662109" xlink:href="#DejaVuSans-63"/>
      <use x="207.642578" xlink:href="#DejaVuSans-74"/>
      <use x="246.851562" xlink:href="#DejaVuSans-69"/>
      <use x="274.634766" xlink:href="#DejaVuSans-6f"/>
      <use x="335.816406" xlink:href="#DejaVuSans-6e"/>
      <use x="399.195312" xlink:href="#DejaVuSans-20"/>
      <use x="430.982422" xlink:href="#DejaVuSans-6f"/>
      <use x="492.164062" xlink:href="#DejaVuSans-66"/>
      <use x="527.369141" xlink:href="#DejaVuSans-20"/>
      <use x="559.15625" xlink:href="#DejaVuSans-66"/>
      <use x="594.361328" xlink:href="#DejaVuSans-75"/>
      <use x="657.740234" xlink:href="#DejaVuSans-6e"/>
      <use x="721.119141" xlink:href="#DejaVuSans-63"/>
      <use x="776.099609" xlink:href="#DejaVuSans-74"/>
      <use x="815.308594" xlink:href="#DejaVuSans-69"/>
      <use x="843.091797" xlink:href="#DejaVuSans-6f"/>
      <use x="904.273438" xlink:href="#DejaVuSans-6e"/>
      <use x="967.652344" xlink:href="#DejaVuSans-2c"/>
      <use x="999.439453" xlink:href="#DejaVuSans-74"/>
      <use x="1038.648438" xlink:href="#DejaVuSans-61"/>
      <use x="1099.927734" xlink:href="#DejaVuSans-72"/>
      <use x="1139.291016" xlink:href="#DejaVuSans-67"/>
      <use x="1202.767578" xlink:href="#DejaVuSans-65"/>
      <use x="1264.291016" xlink:href="#DejaVuSans-74"/>
      <use x="1303.5" xlink:href="#DejaVuSans-20"/>
      <use x="1335.287109" xlink:href="#DejaVuSans-70"/>
      <use x="1398.763672" xlink:href="#DejaVuSans-61"/>
      <use x="1460.042969" xlink:href="#DejaVuSans-69"/>
      <use x="1487.826172" xlink:href="#DejaVuSans-72"/>
      <use x="1528.939453" xlink:href="#DejaVuSans-73"/>
     </g>
    </g>
   </g>
   <g id="line2d_33">
    <defs>
     <path d="M 0 1.5 
C 0.397805 1.5 0.77937 1.341951 1.06066 1.06066 
C 1.341951 0.77937 1.5 0.397805 1.5 0 
C 1.5 -0.397805 1.341951 -0.77937 1.06066 -1.06066 
C 0.77937 -1.341951 0.397805 -1.5 0 -1.5 
C -0.397805 -1.5 -0.77937 -1.341951 -1.06066 -1.06066 
C -1.341951 -0.77937 -1.5 -0.397805 -1.5 0 
C -1.5 0.397805 -1.341951 0.77937 -1.06066 1.06066 
C -0.77937 1.341951 -0.397805 1.5 0 1.5 
z
" id="mdb73c9f021" style="stroke:#f5deb3;"/>
    </defs>
    <g>
     <use style="fill:#f5deb3;stroke:#f5deb3;" x="211.384894" xlink:href="#mdb73c9f021" y="30.334099"/>
     <use style="fill:#f5deb3;stroke:#f5deb3;" x="211.384894" xlink:href="#mdb73c9f021" y="30.334099"/>
    </g>
   </g>
   <g id="line2d_34">
    <defs>
     <path d="M 0 1.5 
C 0.397805 1.5 0.77937 1.341951 1.06066 1.06066 
C 1.341951 0.77937 1.5 0.397805 1.5 0 
C 1.5 -0.397805 1.341951 -0.77937 1.06066 -1.06066 
C 0.77937 -1.341951 0.397805 -1.5 0 -1.5 
C -0.397805 -1.5 -0.77937 -1.341951 -1.06066 -1.06066 
C -1.341951 -0.77937 -1.5 -0.397805 -1.5 0 
C -1.5 0.397805 -1.341951 0.77937 -1.06066 1.06066 
C -0.77937 1.341951 -0.397805 1.5 0 1.5 
z
" id="m96d1d5f58a" style="stroke:#000080;"/>
    </defs>
    <g>
     <use style="fill:#000080;stroke:#000080;" x="271.377536" xlink:href="#m96d1d5f58a" y="241.008531"/>
     <use style="fill:#000080;stroke:#000080;" x="271.377536" xlink:href="#m96d1d5f58a" y="241.008531"/>
    </g>
   </g>
   <g id="line2d_35">
    <path d="M 5.356583 298.944 
L 5.356583 293.677139 
L 67.850577 293.677139 
L 67.850577 293.150453 
L 73.579452 293.150453 
L 73.579452 292.623767 
L 74.595619 292.623767 
L 74.595619 291.570395 
L 79.447285 291.570395 
L 79.447285 291.043709 
L 84.02273 291.043709 
L 84.02273 290.517023 
L 91.029752 290.517023 
L 91.029752 289.990337 
L 91.157513 289.990337 
L 91.157513 289.463651 
L 93.533875 289.463651 
L 93.533875 288.936964 
L 93.972622 288.936964 
L 93.972622 288.410278 
L 94.294587 288.410278 
L 94.294587 287.883592 
L 94.610715 287.883592 
L 94.610715 287.356906 
L 94.921215 287.356906 
L 94.921215 286.83022 
L 96.676366 286.83022 
L 96.676366 286.303534 
L 97.043522 286.303534 
L 97.134116 285.250162 
L 97.580158 285.250162 
L 97.580158 284.723476 
L 99.097574 284.723476 
L 99.097574 284.19679 
L 99.653771 284.19679 
L 99.653771 283.670104 
L 99.963811 283.670104 
L 99.963811 283.143418 
L 101.151625 283.143418 
L 101.151625 282.616732 
L 101.506816 282.616732 
L 101.506816 282.090045 
L 101.71651 282.090045 
L 101.71651 281.563359 
L 101.992235 281.563359 
L 101.992235 281.036673 
L 102.794183 281.036673 
L 102.794183 280.509987 
L 103.053508 280.509987 
L 103.053508 279.983301 
L 103.993014 279.983301 
L 103.993014 279.456615 
L 106.698704 279.456615 
L 106.698704 278.929929 
L 106.906317 278.929929 
L 107.009204 277.876557 
L 108.389302 277.876557 
L 108.389302 277.349871 
L 108.577836 277.349871 
L 108.577836 276.823185 
L 108.764355 276.823185 
L 108.764355 276.296499 
L 109.973724 276.296499 
L 110.060057 275.243126 
L 110.316522 275.243126 
L 110.316522 274.71644 
L 110.859585 274.71644 
L 110.859585 274.189754 
L 111.064034 274.189754 
L 111.064034 273.663068 
L 111.185562 273.663068 
L 111.185562 273.136382 
L 111.426108 273.136382 
L 111.465878 272.08301 
L 112.766778 272.08301 
L 112.766778 271.556324 
L 113.27546 271.556324 
L 113.27546 271.029638 
L 113.73488 271.029638 
L 113.73488 270.502952 
L 113.908407 270.502952 
L 113.908407 269.976266 
L 114.045996 269.976266 
L 114.045996 269.449579 
L 114.182507 269.449579 
L 114.182507 268.922893 
L 115.077025 268.922893 
L 115.077025 268.396207 
L 115.365285 268.396207 
L 115.460322 267.342835 
L 116.38325 267.342835 
L 116.38325 266.816149 
L 116.650866 266.816149 
L 116.650866 266.289463 
L 117.116718 266.289463 
L 117.116718 265.762777 
L 117.259781 265.762777 
L 117.259781 265.236091 
L 119.602714 265.236091 
L 119.602714 264.709405 
L 119.726838 264.709405 
L 119.726838 264.182719 
L 120.944859 264.182719 
L 120.944859 263.656033 
L 124.909984 263.656033 
L 124.909984 263.129347 
L 153.214697 263.129347 
L 153.214697 262.60266 
L 153.337534 262.60266 
L 153.337534 262.075974 
L 156.077167 262.075974 
L 156.077167 261.549288 
L 157.156845 261.549288 
L 157.214591 260.495916 
L 169.068978 260.495916 
L 169.068978 259.96923 
L 169.227472 259.96923 
L 169.227472 259.442544 
L 169.394577 259.442544 
L 169.394577 258.915858 
L 170.108089 258.915858 
L 170.108089 258.389172 
L 181.655184 258.389172 
L 181.655184 257.862486 
L 181.795157 257.862486 
L 181.795157 257.3358 
L 182.246237 257.3358 
L 182.246237 256.809114 
L 183.068425 256.809114 
L 183.068425 256.282427 
L 183.281799 256.282427 
L 183.281799 255.755741 
L 183.422185 255.755741 
L 183.422185 255.229055 
L 204.107925 255.229055 
L 204.107925 254.702369 
L 230.596818 254.702369 
L 230.596818 254.175683 
L 230.833228 254.175683 
L 230.833228 253.648997 
L 230.974179 253.648997 
L 230.974179 253.122311 
L 231.10913 253.122311 
L 231.160278 252.068939 
L 231.227167 252.068939 
L 231.227167 251.542253 
L 232.153217 251.542253 
L 232.153217 251.015567 
L 247.041484 251.015567 
L 247.118731 249.962195 
L 247.498629 249.962195 
L 247.599978 247.328764 
L 248.220873 247.328764 
L 248.220873 246.802078 
L 248.516518 246.802078 
L 248.516518 246.275392 
L 249.256321 246.275392 
L 249.256321 245.748706 
L 252.931428 245.748706 
L 252.931428 245.22202 
L 253.728732 245.22202 
L 253.728732 244.695334 
L 259.948698 244.695334 
L 259.948698 244.168648 
L 260.371815 244.168648 
L 260.371815 243.641962 
L 263.00821 243.641962 
L 263.00821 243.115275 
L 266.331789 243.115275 
L 266.331789 242.588589 
L 269.131555 242.588589 
L 269.131555 242.061903 
L 271.256523 242.061903 
L 271.256523 241.535217 
L 271.377536 241.535217 
L 271.377536 241.008531 
L 338.688 241.008531 
L 338.688 241.008531 
" style="fill:none;stroke:#000080;stroke-linecap:square;stroke-width:1.5;"/>
   </g>
   <g id="line2d_36">
    <defs>
     <path d="M 0 6 
C 1.591219 6 3.117479 5.367802 4.242641 4.242641 
C 5.367802 3.117479 6 1.591219 6 0 
C 6 -1.591219 5.367802 -3.117479 4.242641 -4.242641 
C 3.117479 -5.367802 1.591219 -6 0 -6 
C -1.591219 -6 -3.117479 -5.367802 -4.242641 -4.242641 
C -5.367802 -3.117479 -6 -1.591219 -6 0 
C -6 1.591219 -5.367802 3.117479 -4.242641 4.242641 
C -3.117479 5.367802 -1.591219 6 0 6 
z
" id="m7b70b417c2" style="stroke:#000080;stroke-width:1.5;"/>
    </defs>
    <g>
     <use style="fill-opacity:0;stroke:#000080;stroke-width:1.5;" x="84.02273" xlink:href="#m7b70b417c2" y="290.517023"/>
     <use style="fill-opacity:0;stroke:#000080;stroke-width:1.5;" x="124.909984" xlink:href="#m7b70b417c2" y="263.129347"/>
     <use style="fill-opacity:0;stroke:#000080;stroke-width:1.5;" x="231.227167" xlink:href="#m7b70b417c2" y="252.068939"/>
     <use style="fill-opacity:0;stroke:#000080;stroke-width:1.5;" x="271.377536" xlink:href="#m7b70b417c2" y="241.008531"/>
     <use style="fill-opacity:0;stroke:#000080;stroke-width:1.5;" x="271.377536" xlink:href="#m7b70b417c2" y="241.008531"/>
     <use style="fill-opacity:0;stroke:#000080;stroke-width:1.5;" x="338.688" xlink:href="#m7b70b417c2" y="241.008531"/>
    </g>
   </g>
   <g id="line2d_37">
    <path style="fill:none;stroke:#000080;stroke-linecap:square;stroke-width:1.5;"/>
    <g/>
   </g>
   <g id="line2d_38">
    <path clip-path="url(#p3661c157b1)" d="M 247.650263 247.328764 
" style="fill:none;stroke:#000080;stroke-linecap:square;stroke-width:1.5;"/>
    <defs>
     <path d="M -12 12 
L 12 -12 
M -12 -12 
L 12 12 
" id="me54680afde" style="stroke:#000080;"/>
    </defs>
    <g clip-path="url(#p3661c157b1)">
     <use style="fill:#000080;stroke:#000080;" x="247.650263" xlink:href="#me54680afde" y="247.328764"/>
    </g>
   </g>
   <g id="line2d_39">
    <defs>
     <path d="M 0 1.5 
C 0.397805 1.5 0.77937 1.341951 1.06066 1.06066 
C 1.341951 0.77937 1.5 0.397805 1.5 0 
C 1.5 -0.397805 1.341951 -0.77937 1.06066 -1.06066 
C 0.77937 -1.341951 0.397805 -1.5 0 -1.5 
C -0.397805 -1.5 -0.77937 -1.341951 -1.06066 -1.06066 
C -1.341951 -0.77937 -1.5 -0.397805 -1.5 0 
C -1.5 0.397805 -1.341951 0.77937 -1.06066 1.06066 
C -0.77937 1.341951 -0.397805 1.5 0 1.5 
z
" id="me3459728d4" style="stroke:#ff00ff;"/>
    </defs>
    <g>
     <use style="fill:#ff00ff;stroke:#ff00ff;" x="326.611618" xlink:href="#me3459728d4" y="241.008531"/>
     <use style="fill:#ff00ff;stroke:#ff00ff;" x="326.611618" xlink:href="#me3459728d4" y="241.008531"/>
    </g>
   </g>
   <g id="line2d_40">
    <path d="M 5.356583 298.944 
L 5.356583 293.677139 
L 70.11861 293.677139 
L 70.11861 292.623767 
L 78.683399 292.623767 
L 78.683399 292.097081 
L 81.775977 292.097081 
L 81.775977 291.043709 
L 84.401859 291.043709 
L 84.401859 289.990337 
L 86.683608 289.990337 
L 86.683608 288.936964 
L 88.701061 288.936964 
L 88.701061 287.883592 
L 90.509138 287.883592 
L 90.509138 285.250162 
L 92.147241 285.250162 
L 92.147241 284.723476 
L 93.644601 284.723476 
L 93.644601 283.670104 
L 95.023499 283.670104 
L 95.023499 281.563359 
L 97.491858 281.563359 
L 97.491858 280.509987 
L 98.606294 280.509987 
L 98.606294 278.403243 
L 99.653771 278.403243 
L 99.653771 277.876557 
L 100.641881 277.876557 
L 100.641881 276.823185 
L 101.576995 276.823185 
L 101.576995 274.71644 
L 102.464508 274.71644 
L 102.464508 273.136382 
L 103.309033 273.136382 
L 103.309033 272.08301 
L 104.114542 272.08301 
L 104.114542 271.029638 
L 104.884483 271.029638 
L 104.884483 270.502952 
L 105.621863 270.502952 
L 105.621863 269.976266 
L 106.329326 269.976266 
L 106.329326 268.922893 
L 109.491096 268.922893 
L 109.491096 268.396207 
L 110.61104 268.396207 
L 110.61104 267.869521 
L 111.663381 267.869521 
L 111.663381 267.342835 
L 112.166658 267.342835 
L 112.166658 266.816149 
L 112.655818 266.816149 
L 112.655818 265.762777 
L 113.13163 265.762777 
L 113.13163 265.236091 
L 115.33349 265.236091 
L 115.33349 264.709405 
L 116.532432 264.709405 
L 116.532432 264.182719 
L 141.457116 264.182719 
L 141.457116 263.656033 
L 141.634094 263.656033 
L 141.634094 263.129347 
L 141.982752 263.129347 
L 142.017238 262.075974 
L 142.154501 262.075974 
L 142.188649 261.022602 
L 142.283909 261.022602 
L 142.283909 260.495916 
L 142.493007 260.495916 
L 142.526499 258.915858 
L 142.659828 258.915858 
L 142.659828 258.389172 
L 142.785553 258.389172 
L 142.785553 257.862486 
L 143.112141 257.862486 
L 143.150923 256.809114 
L 143.273169 256.809114 
L 143.343554 255.229055 
L 143.65995 255.229055 
L 143.65995 254.702369 
L 143.921357 254.702369 
L 143.983024 253.122311 
L 144.075117 253.122311 
L 144.136243 252.068939 
L 145.876977 252.068939 
L 145.876977 251.542253 
L 175.94365 251.542253 
L 175.94365 251.015567 
L 298.540153 251.015567 
L 298.548777 244.695334 
L 310.630366 244.695334 
L 310.634535 243.115275 
L 317.70349 243.115275 
L 317.70456 241.535217 
L 326.611618 241.535217 
L 326.611618 241.008531 
L 338.688 241.008531 
L 338.688 241.008531 
" style="fill:none;stroke:#ff00ff;stroke-linecap:square;stroke-width:1.5;"/>
   </g>
   <g id="line2d_41">
    <defs>
     <path d="M 0 8.485281 
L 5.091169 0 
L 0 -8.485281 
L -5.091169 0 
z
" id="m1d1c370e03" style="stroke:#ff00ff;stroke-linejoin:miter;stroke-width:1.5;"/>
    </defs>
    <g>
     <use style="fill-opacity:0;stroke:#ff00ff;stroke-linejoin:miter;stroke-width:1.5;" x="88.701061" xlink:href="#m1d1c370e03" y="287.883592"/>
     <use style="fill-opacity:0;stroke:#ff00ff;stroke-linejoin:miter;stroke-width:1.5;" x="116.532432" xlink:href="#m1d1c370e03" y="264.182719"/>
     <use style="fill-opacity:0;stroke:#ff00ff;stroke-linejoin:miter;stroke-width:1.5;" x="175.94365" xlink:href="#m1d1c370e03" y="251.542253"/>
     <use style="fill-opacity:0;stroke:#ff00ff;stroke-linejoin:miter;stroke-width:1.5;" x="175.94365" xlink:href="#m1d1c370e03" y="251.015567"/>
     <use style="fill-opacity:0;stroke:#ff00ff;stroke-linejoin:miter;stroke-width:1.5;" x="326.611618" xlink:href="#m1d1c370e03" y="241.008531"/>
     <use style="fill-opacity:0;stroke:#ff00ff;stroke-linejoin:miter;stroke-width:1.5;" x="338.688" xlink:href="#m1d1c370e03" y="241.008531"/>
    </g>
   </g>
   <g id="line2d_42">
    <path style="fill:none;stroke:#ff00ff;stroke-linecap:square;stroke-width:1.5;"/>
    <g/>
   </g>
   <g id="line2d_43">
    <path clip-path="url(#p3661c157b1)" d="M 298.542281 248.908822 
" style="fill:none;stroke:#ff00ff;stroke-linecap:square;stroke-width:1.5;"/>
    <defs>
     <path d="M -12 12 
L 12 -12 
M -12 -12 
L 12 12 
" id="maea47b02b7" style="stroke:#ff00ff;"/>
    </defs>
    <g clip-path="url(#p3661c157b1)">
     <use style="fill:#ff00ff;stroke:#ff00ff;" x="298.542281" xlink:href="#maea47b02b7" y="248.908822"/>
    </g>
   </g>
   <g id="line2d_44">
    <defs>
     <path d="M 0 1.5 
C 0.397805 1.5 0.77937 1.341951 1.06066 1.06066 
C 1.341951 0.77937 1.5 0.397805 1.5 0 
C 1.5 -0.397805 1.341951 -0.77937 1.06066 -1.06066 
C 0.77937 -1.341951 0.397805 -1.5 0 -1.5 
C -0.397805 -1.5 -0.77937 -1.341951 -1.06066 -1.06066 
C -1.341951 -0.77937 -1.5 -0.397805 -1.5 0 
C -1.5 0.397805 -1.341951 0.77937 -1.06066 1.06066 
C -0.77937 1.341951 -0.397805 1.5 0 1.5 
z
" id="m8404daebd3" style="stroke:#ff7500;"/>
    </defs>
    <g>
     <use style="fill:#ff7500;stroke:#ff7500;" x="272.177161" xlink:href="#m8404daebd3" y="241.008531"/>
     <use style="fill:#ff7500;stroke:#ff7500;" x="272.177161" xlink:href="#m8404daebd3" y="241.008531"/>
    </g>
   </g>
   <g id="line2d_45">
    <path d="M 5.356583 298.944 
L 5.356583 293.677139 
L 60.779557 293.677139 
L 60.779557 291.570395 
L 72.125336 291.570395 
L 72.125336 291.043709 
L 72.500389 291.043709 
L 72.500389 283.143418 
L 72.867545 283.143418 
L 72.867545 282.616732 
L 79.196356 282.616732 
L 79.196356 279.983301 
L 79.447285 279.983301 
L 79.447285 278.929929 
L 79.694655 278.929929 
L 79.694655 275.243126 
L 79.938565 275.243126 
L 79.938565 274.71644 
L 84.02273 274.71644 
L 84.02273 272.609696 
L 84.213325 272.609696 
L 84.213325 271.029638 
L 84.401859 271.029638 
L 84.401859 268.922893 
L 84.588378 268.922893 
L 84.588378 267.342835 
L 87.798828 267.342835 
L 87.798828 266.816149 
L 88.255778 266.816149 
L 88.255778 265.762777 
L 88.405473 265.762777 
L 88.405473 264.182719 
L 91.157513 264.182719 
L 91.157513 263.656033 
L 91.284345 263.656033 
L 91.284345 263.129347 
L 94.080605 263.129347 
L 94.080605 262.60266 
L 96.489848 262.60266 
L 96.489848 262.075974 
L 107.464828 262.075974 
L 107.464828 261.549288 
L 108.102622 261.549288 
L 108.102622 261.022602 
L 114.485807 261.022602 
L 114.485807 260.495916 
L 117.792962 260.495916 
L 117.792962 259.96923 
L 119.702083 259.96923 
L 119.702083 259.442544 
L 126.52361 259.442544 
L 126.52361 258.915858 
L 128.290519 258.915858 
L 128.290519 258.389172 
L 129.290685 258.389172 
L 129.290685 257.862486 
L 155.070227 257.862486 
L 155.070227 257.3358 
L 155.574631 257.3358 
L 155.574631 256.809114 
L 156.178407 256.809114 
L 156.178407 256.282427 
L 156.376116 256.282427 
L 156.376116 255.755741 
L 156.856386 255.755741 
L 156.856386 255.229055 
L 157.486303 255.229055 
L 157.486303 254.702369 
L 157.675417 254.702369 
L 157.675417 254.175683 
L 157.812438 254.175683 
L 157.812438 253.648997 
L 158.51933 253.648997 
L 158.51933 253.122311 
L 192.069422 253.122311 
L 192.069422 252.595625 
L 192.081138 252.595625 
L 192.081138 252.068939 
L 193.173967 252.068939 
L 193.173967 251.542253 
L 223.120393 251.542253 
L 223.120393 251.015567 
L 239.990846 251.015567 
L 239.990846 250.488881 
L 240.743037 250.488881 
L 240.743037 249.962195 
L 241.423367 249.962195 
L 241.423367 249.435508 
L 241.470628 249.435508 
L 241.470628 248.908822 
L 247.114856 248.908822 
L 247.114856 248.382136 
L 247.152854 248.382136 
L 247.152854 247.85545 
L 247.291579 247.85545 
L 247.291579 247.328764 
L 247.400174 247.328764 
L 247.400174 246.802078 
L 247.492754 246.802078 
L 247.492754 246.275392 
L 247.834937 246.275392 
L 247.834937 245.748706 
L 247.834969 245.748706 
L 247.834969 245.22202 
L 256.173149 245.22202 
L 256.173149 244.695334 
L 256.34713 244.695334 
L 256.34713 244.168648 
L 256.609465 244.168648 
L 256.609465 243.641962 
L 259.220549 243.641962 
L 259.220549 243.115275 
L 259.588594 243.115275 
L 259.588594 242.588589 
L 259.828827 242.588589 
L 259.828827 242.061903 
L 266.391658 242.061903 
L 266.391658 241.535217 
L 272.177161 241.535217 
L 272.177161 241.008531 
L 338.688 241.008531 
" style="fill:none;stroke:#ff7500;stroke-linecap:square;stroke-width:1.5;"/>
   </g>
   <g id="line2d_46">
    <defs>
     <path d="M 0 -6 
L -1.347084 -1.854102 
L -5.706339 -1.854102 
L -2.179628 0.708204 
L -3.526712 4.854102 
L -0 2.291796 
L 3.526712 4.854102 
L 2.179628 0.708204 
L 5.706339 -1.854102 
L 1.347084 -1.854102 
z
" id="m366d34db74" style="stroke:#ff7500;stroke-linejoin:bevel;stroke-width:1.5;"/>
    </defs>
    <g>
     <use style="fill-opacity:0;stroke:#ff7500;stroke-linejoin:bevel;stroke-width:1.5;" x="108.102622" xlink:href="#m366d34db74" y="261.549288"/>
     <use style="fill-opacity:0;stroke:#ff7500;stroke-linejoin:bevel;stroke-width:1.5;" x="158.51933" xlink:href="#m366d34db74" y="253.648997"/>
     <use style="fill-opacity:0;stroke:#ff7500;stroke-linejoin:bevel;stroke-width:1.5;" x="223.120393" xlink:href="#m366d34db74" y="251.015567"/>
     <use style="fill-opacity:0;stroke:#ff7500;stroke-linejoin:bevel;stroke-width:1.5;" x="272.177161" xlink:href="#m366d34db74" y="241.008531"/>
     <use style="fill-opacity:0;stroke:#ff7500;stroke-linejoin:bevel;stroke-width:1.5;" x="272.177161" xlink:href="#m366d34db74" y="241.008531"/>
     <use style="fill-opacity:0;stroke:#ff7500;stroke-linejoin:bevel;stroke-width:1.5;" x="338.688" xlink:href="#m366d34db74" y="241.008531"/>
    </g>
   </g>
   <g id="line2d_47">
    <path style="fill:none;stroke:#ff7500;stroke-linecap:square;stroke-width:1.5;"/>
    <g/>
   </g>
   <g id="line2d_48">
    <path clip-path="url(#p3661c157b1)" d="M 247.398652 247.328764 
" style="fill:none;stroke:#ff7500;stroke-linecap:square;stroke-width:1.5;"/>
    <defs>
     <path d="M -12 12 
L 12 -12 
M -12 -12 
L 12 12 
" id="m6526140a2a" style="stroke:#ff7500;"/>
    </defs>
    <g clip-path="url(#p3661c157b1)">
     <use style="fill:#ff7500;stroke:#ff7500;" x="247.398652" xlink:href="#m6526140a2a" y="247.328764"/>
    </g>
   </g>
   <g id="line2d_49">
    <defs>
     <path d="M 0 1.5 
C 0.397805 1.5 0.77937 1.341951 1.06066 1.06066 
C 1.341951 0.77937 1.5 0.397805 1.5 0 
C 1.5 -0.397805 1.341951 -0.77937 1.06066 -1.06066 
C 0.77937 -1.341951 0.397805 -1.5 0 -1.5 
C -0.397805 -1.5 -0.77937 -1.341951 -1.06066 -1.06066 
C -1.341951 -0.77937 -1.5 -0.397805 -1.5 0 
C -1.5 0.397805 -1.341951 0.77937 -1.06066 1.06066 
C -0.77937 1.341951 -0.397805 1.5 0 1.5 
z
" id="m08dab94c1c" style="stroke:#6495ed;"/>
    </defs>
    <g>
     <use style="fill:#6495ed;stroke:#6495ed;" x="297.412372" xlink:href="#m08dab94c1c" y="30.334099"/>
     <use style="fill:#6495ed;stroke:#6495ed;" x="297.412372" xlink:href="#m08dab94c1c" y="30.334099"/>
    </g>
   </g>
   <g id="line2d_50">
    <path d="M 5.356583 298.944 
L 5.356583 293.677139 
L 60.779557 293.677139 
L 60.779557 291.570395 
L 72.125336 291.570395 
L 72.125336 291.043709 
L 72.500389 291.043709 
L 72.500389 283.143418 
L 72.867545 283.143418 
L 72.867545 282.616732 
L 79.196356 282.616732 
L 79.196356 281.036673 
L 79.447285 281.036673 
L 79.447285 279.456615 
L 79.694655 279.456615 
L 79.694655 275.769812 
L 79.938565 275.769812 
L 79.938565 275.243126 
L 84.02273 275.243126 
L 84.02273 273.136382 
L 84.213325 273.136382 
L 84.213325 272.08301 
L 84.401859 272.08301 
L 84.401859 269.976266 
L 84.588378 269.976266 
L 84.588378 268.396207 
L 88.255778 268.396207 
L 88.255778 267.342835 
L 88.405473 267.342835 
L 88.405473 265.762777 
L 91.157513 265.762777 
L 91.157513 265.236091 
L 91.284345 265.236091 
L 91.284345 264.709405 
L 91.535274 264.709405 
L 91.535274 264.182719 
L 98.523051 264.182719 
L 98.523051 263.656033 
L 103.372333 263.656033 
L 103.372333 263.129347 
L 114.0117 263.129347 
L 114.0117 262.60266 
L 122.340747 262.60266 
L 122.340747 262.075974 
L 122.80302 262.075974 
L 122.80302 261.022602 
L 123.253355 261.022602 
L 123.253355 259.96923 
L 123.692353 259.96923 
L 123.692353 259.442544 
L 128.797771 259.442544 
L 128.797771 258.915858 
L 128.958773 258.915858 
L 128.958773 258.389172 
L 129.132732 258.389172 
L 129.132732 257.3358 
L 132.290639 257.3358 
L 132.290639 256.809114 
L 132.565279 256.809114 
L 132.565279 255.755741 
L 136.246972 255.755741 
L 136.246972 255.229055 
L 143.234658 255.229055 
L 143.234658 254.702369 
L 155.313005 254.702369 
L 155.383584 253.648997 
L 157.403807 253.648997 
L 157.403807 253.122311 
L 158.066829 253.122311 
L 158.066829 252.595625 
L 158.374293 252.595625 
L 158.374293 252.068939 
L 160.152267 252.068939 
L 160.20577 251.015567 
L 160.314697 251.015567 
L 160.314697 250.488881 
L 162.236603 250.488881 
L 162.33359 248.908822 
L 162.479132 248.908822 
L 162.479132 248.382136 
L 164.175729 248.382136 
L 164.212433 246.275392 
L 164.302897 246.275392 
L 164.387164 244.168648 
L 164.471025 244.168648 
L 164.554485 242.588589 
L 164.72209 242.588589 
L 164.763273 241.008531 
L 164.886243 241.008531 
L 164.886243 240.481845 
L 165.050705 240.481845 
L 165.050705 239.955159 
L 165.375047 239.955159 
L 165.375047 239.428473 
L 165.493792 239.428473 
L 165.493792 238.901787 
L 165.76776 238.901787 
L 165.76776 238.375101 
L 166.03749 238.375101 
L 166.03749 237.848415 
L 166.151824 237.848415 
L 166.151824 237.321729 
L 166.34073 237.321729 
L 166.386786 236.268356 
L 166.461582 236.268356 
L 166.566435 234.688298 
L 166.640466 234.688298 
L 166.640466 234.161612 
L 167.053592 234.161612 
L 167.089627 233.10824 
L 167.198914 233.10824 
L 167.270313 231.001496 
L 167.376867 231.001496 
L 167.473173 229.421437 
L 167.517934 229.421437 
L 167.517934 228.894751 
L 167.900085 228.894751 
L 168.005976 227.841379 
L 168.029248 227.841379 
L 168.029248 227.314693 
L 168.267925 227.314693 
L 168.267925 226.788007 
L 168.704401 226.788007 
L 168.809982 224.681263 
L 168.875092 224.681263 
L 168.875092 224.154577 
L 169.09671 224.154577 
L 169.09671 223.627891 
L 169.52171 223.627891 
L 169.52171 223.101204 
L 169.686032 223.101204 
L 169.686032 222.047832 
L 170.026703 222.047832 
L 170.026703 221.521146 
L 170.141087 221.521146 
L 170.141087 220.99446 
L 172.737286 220.99446 
L 172.737286 220.467774 
L 175.699685 220.467774 
L 175.699685 219.941088 
L 175.811182 219.941088 
L 175.833991 218.887716 
L 177.535998 218.887716 
L 177.636384 216.780971 
L 177.675663 216.780971 
L 177.753958 215.200913 
L 177.792974 215.200913 
L 177.813334 214.147541 
L 177.969228 214.147541 
L 178.066286 213.094169 
L 178.276035 213.094169 
L 178.332804 210.460738 
L 178.991731 210.460738 
L 178.991731 209.934052 
L 181.434471 209.934052 
L 181.513362 206.773936 
L 181.592611 206.773936 
L 181.655893 204.667192 
L 181.764854 204.667192 
L 181.795861 203.613819 
L 181.91934 203.613819 
L 182.026672 202.560447 
L 182.118148 202.560447 
L 182.118148 202.033761 
L 182.450191 202.033761 
L 182.494892 200.453703 
L 182.86698 200.453703 
L 182.86698 199.927017 
L 183.099814 199.927017 
L 183.099814 199.400331 
L 183.25786 199.400331 
L 183.25786 198.873645 
L 183.516853 198.873645 
L 183.573535 197.820273 
L 183.72043 197.820273 
L 183.72043 197.293586 
L 184.149529 197.293586 
L 184.230545 192.553412 
L 184.271523 192.553412 
L 184.271523 192.026726 
L 184.393277 192.026726 
L 184.393277 190.973354 
L 184.526833 190.973354 
L 184.566521 189.919981 
L 184.654594 189.919981 
L 184.685046 188.866609 
L 184.78973 188.866609 
L 184.881405 187.813237 
L 184.933239 187.813237 
L 184.933239 187.286551 
L 185.151832 187.286551 
L 185.20287 186.233179 
L 185.279148 186.233179 
L 185.279148 185.706493 
L 185.480939 185.706493 
L 185.543523 184.126434 
L 185.817933 184.126434 
L 185.879321 183.073062 
L 187.287203 183.073062 
L 187.344152 179.38626 
L 187.467668 179.38626 
L 187.535688 177.279515 
L 187.602433 177.279515 
L 187.625129 175.699457 
L 187.856945 175.699457 
L 187.867884 174.646085 
L 187.998616 174.646085 
L 188.064108 173.066027 
L 188.236262 173.066027 
L 188.321706 171.485969 
L 188.481754 171.485969 
L 188.591298 168.852538 
L 188.601786 168.852538 
L 188.622743 167.799166 
L 188.727623 167.799166 
L 188.790438 165.692422 
L 188.946261 165.692422 
L 189.007829 164.63905 
L 189.058971 164.63905 
L 189.140487 163.585677 
L 189.293684 163.585677 
L 189.303758 162.532305 
L 191.828302 162.532305 
L 191.924678 157.79213 
L 191.942 157.79213 
L 192.002887 154.632014 
L 192.081138 154.632014 
L 192.089724 153.578642 
L 192.218011 153.578642 
L 192.277558 152.52527 
L 192.397577 152.52527 
L 192.472172 150.418525 
L 196.46002 150.418525 
L 196.567801 144.624978 
L 196.58771 144.624978 
L 196.693808 141.991548 
L 196.772736 141.991548 
L 196.838535 139.884804 
L 196.949621 139.884804 
L 196.976176 138.304745 
L 197.176396 138.304745 
L 197.189216 137.251373 
L 197.763621 137.251373 
L 197.831969 136.198001 
L 198.968366 136.198001 
L 199.078481 132.511199 
L 199.119205 132.511199 
L 199.222154 129.877768 
L 199.24495 129.877768 
L 199.324758 127.771024 
L 199.449547 127.771024 
L 199.472047 126.717652 
L 199.589953 126.717652 
L 199.612527 125.137593 
L 199.790565 125.137593 
L 199.790565 124.610907 
L 202.406938 124.610907 
L 202.511786 119.344047 
L 202.568361 119.344047 
L 202.634348 116.710616 
L 202.686065 116.710616 
L 202.686065 116.18393 
L 202.958493 116.18393 
L 203.060711 115.130558 
L 204.107533 115.130558 
L 204.107533 114.603872 
L 204.834923 114.603872 
L 204.92973 108.810325 
L 204.954378 108.810325 
L 205.036472 105.650209 
L 206.495133 105.650209 
L 206.495133 105.123522 
L 207.234745 105.123522 
L 207.343119 98.276603 
L 207.357594 98.276603 
L 207.418615 96.169859 
L 207.493624 96.169859 
L 207.600727 95.116487 
L 207.639483 95.116487 
L 207.65739 94.063115 
L 213.24133 94.063115 
L 213.24133 93.536429 
L 213.726663 93.536429 
L 213.726663 93.009743 
L 217.783141 93.009743 
L 217.802891 91.429684 
L 220.245511 91.429684 
L 220.259171 90.376312 
L 221.591265 90.376312 
L 221.591265 89.849626 
L 222.977458 89.849626 
L 222.977458 89.32294 
L 226.522183 89.32294 
L 226.597269 78.262532 
L 226.647739 78.262532 
L 226.670422 77.20916 
L 228.510132 77.20916 
L 228.510132 76.682474 
L 229.003712 76.682474 
L 229.005779 75.629102 
L 229.9825 75.629102 
L 229.9825 75.102416 
L 230.891938 75.102416 
L 230.97036 71.942299 
L 231.023213 71.942299 
L 231.038942 70.888927 
L 231.535725 70.888927 
L 231.535725 70.362241 
L 231.668472 70.362241 
L 231.769849 68.782183 
L 231.8115 68.782183 
L 231.914 67.728811 
L 231.966056 67.728811 
L 232.007123 66.148752 
L 232.304826 66.148752 
L 232.356196 64.568694 
L 232.912355 64.568694 
L 232.912355 64.042008 
L 233.164167 64.042008 
L 233.255245 62.988636 
L 233.280414 62.988636 
L 233.280414 62.46195 
L 233.789665 62.46195 
L 233.789665 61.935264 
L 233.977421 61.935264 
L 233.977421 61.408578 
L 234.105862 61.408578 
L 234.143661 59.82852 
L 234.617592 59.82852 
L 234.670604 57.195089 
L 237.359347 57.195089 
L 237.369791 56.141717 
L 238.692188 56.141717 
L 238.692188 55.615031 
L 240.715355 55.615031 
L 240.779622 53.508287 
L 241.619718 53.508287 
L 241.619718 52.9816 
L 242.850842 52.9816 
L 242.850842 52.454914 
L 243.168943 52.454914 
L 243.168943 51.928228 
L 244.302621 51.928228 
L 244.311687 49.294798 
L 244.795718 49.294798 
L 244.795718 48.768112 
L 245.560018 48.768112 
L 245.560018 48.241426 
L 247.175543 48.241426 
L 247.180797 47.188054 
L 251.070835 47.188054 
L 251.161503 46.134681 
L 251.693731 46.134681 
L 251.693731 45.607995 
L 252.271016 45.607995 
L 252.271016 45.081309 
L 252.841149 45.081309 
L 252.841149 44.554623 
L 255.400796 44.554623 
L 255.413451 43.501251 
L 255.550673 43.501251 
L 255.568178 42.447879 
L 255.743747 42.447879 
L 255.812943 41.394507 
L 257.111984 41.394507 
L 257.116156 40.341135 
L 259.491508 40.341135 
L 259.491508 39.814448 
L 262.347309 39.814448 
L 262.347309 39.287762 
L 262.799146 39.287762 
L 262.799146 38.761076 
L 264.634985 38.761076 
L 264.634985 38.23439 
L 264.956407 38.23439 
L 264.956407 37.707704 
L 265.338556 37.707704 
L 265.338556 37.181018 
L 267.316465 37.181018 
L 267.316465 36.654332 
L 269.218765 36.654332 
L 269.218765 36.127646 
L 269.944504 36.127646 
L 269.944504 35.60096 
L 271.095421 35.60096 
L 271.095421 35.074274 
L 274.364908 35.074274 
L 274.364908 34.547588 
L 278.152758 34.547588 
L 278.152758 34.020902 
L 281.151211 34.020902 
L 281.153946 32.967529 
L 285.465208 32.967529 
L 285.465208 32.440843 
L 286.077194 32.440843 
L 286.077194 31.914157 
L 287.488278 31.914157 
L 287.488278 31.387471 
L 295.425563 31.387471 
L 295.425563 30.860785 
L 297.412372 30.860785 
L 297.412372 30.334099 
L 338.688 30.334099 
L 338.688 30.334099 
" style="fill:none;stroke:#6495ed;stroke-linecap:square;stroke-width:1.5;"/>
   </g>
   <g id="line2d_51">
    <defs>
     <path d="M -0 6 
L 6 -6 
L -6 -6 
z
" id="mca22300764" style="stroke:#6495ed;stroke-linejoin:miter;stroke-width:1.5;"/>
    </defs>
    <g>
     <use style="fill-opacity:0;stroke:#6495ed;stroke-linejoin:miter;stroke-width:1.5;" x="72.500389" xlink:href="#mca22300764" y="283.143418"/>
     <use style="fill-opacity:0;stroke:#6495ed;stroke-linejoin:miter;stroke-width:1.5;" x="143.234658" xlink:href="#mca22300764" y="254.702369"/>
     <use style="fill-opacity:0;stroke:#6495ed;stroke-linejoin:miter;stroke-width:1.5;" x="199.612527" xlink:href="#mca22300764" y="125.137593"/>
     <use style="fill-opacity:0;stroke:#6495ed;stroke-linejoin:miter;stroke-width:1.5;" x="243.168943" xlink:href="#mca22300764" y="51.928228"/>
     <use style="fill-opacity:0;stroke:#6495ed;stroke-linejoin:miter;stroke-width:1.5;" x="297.412372" xlink:href="#mca22300764" y="30.334099"/>
     <use style="fill-opacity:0;stroke:#6495ed;stroke-linejoin:miter;stroke-width:1.5;" x="338.688" xlink:href="#mca22300764" y="30.334099"/>
    </g>
   </g>
   <g id="line2d_52">
    <path style="fill:none;stroke:#6495ed;stroke-linecap:square;stroke-width:1.5;"/>
    <g/>
   </g>
   <g id="line2d_53">
    <path clip-path="url(#p3661c157b1)" d="M 230.50273 75.102416 
" style="fill:none;stroke:#6495ed;stroke-linecap:square;stroke-width:1.5;"/>
    <defs>
     <path d="M -12 12 
L 12 -12 
M -12 -12 
L 12 12 
" id="m2a1a02fbb9" style="stroke:#6495ed;"/>
    </defs>
    <g clip-path="url(#p3661c157b1)">
     <use style="fill:#6495ed;stroke:#6495ed;" x="230.50273" xlink:href="#m2a1a02fbb9" y="75.102416"/>
    </g>
   </g>
   <g id="line2d_54">
    <defs>
     <path d="M 0 1.5 
C 0.397805 1.5 0.77937 1.341951 1.06066 1.06066 
C 1.341951 0.77937 1.5 0.397805 1.5 0 
C 1.5 -0.397805 1.341951 -0.77937 1.06066 -1.06066 
C 0.77937 -1.341951 0.397805 -1.5 0 -1.5 
C -0.397805 -1.5 -0.77937 -1.341951 -1.06066 -1.06066 
C -1.341951 -0.77937 -1.5 -0.397805 -1.5 0 
C -1.5 0.397805 -1.341951 0.77937 -1.06066 1.06066 
C -0.77937 1.341951 -0.397805 1.5 0 1.5 
z
" id="ma71d7c76e3" style="stroke:#ff0000;"/>
    </defs>
    <g>
     <use style="fill:#ff0000;stroke:#ff0000;" x="256.62645" xlink:href="#ma71d7c76e3" y="241.008531"/>
     <use style="fill:#ff0000;stroke:#ff0000;" x="256.62645" xlink:href="#ma71d7c76e3" y="241.008531"/>
    </g>
   </g>
   <g id="line2d_55">
    <path d="M 5.356583 298.944 
L 5.356583 293.677139 
L 88.553893 293.677139 
L 88.553893 293.150453 
L 88.991722 293.150453 
L 88.991722 292.623767 
L 91.905025 292.623767 
L 91.905025 292.097081 
L 92.026554 292.097081 
L 92.026554 291.570395 
L 93.533875 291.570395 
L 93.533875 291.043709 
L 94.610715 291.043709 
L 94.610715 290.517023 
L 95.023499 290.517023 
L 95.125186 289.463651 
L 95.426737 289.463651 
L 95.426737 288.936964 
L 95.918017 288.936964 
L 95.918017 288.410278 
L 97.842408 288.410278 
L 97.842408 287.883592 
L 98.355365 287.883592 
L 98.355365 287.356906 
L 98.689141 287.356906 
L 98.689141 286.83022 
L 100.192776 286.83022 
L 100.192776 286.303534 
L 100.418775 286.303534 
L 100.418775 285.776848 
L 101.576995 285.776848 
L 101.576995 285.250162 
L 102.12848 285.250162 
L 102.12848 284.723476 
L 102.859376 284.723476 
L 102.924327 283.670104 
L 103.245502 283.670104 
L 103.309033 282.616732 
L 103.809118 282.616732 
L 103.809118 281.563359 
L 104.053884 281.563359 
L 104.114542 280.509987 
L 104.474128 280.509987 
L 104.533344 279.456615 
L 105.171792 279.456615 
L 105.22869 278.403243 
L 105.566235 278.403243 
L 105.566235 277.876557 
L 106.906317 277.876557 
L 106.906317 277.349871 
L 107.762095 277.349871 
L 107.762095 276.823185 
L 108.102622 276.823185 
L 108.102622 276.296499 
L 108.810674 276.296499 
L 108.810674 275.243126 
L 109.843417 275.243126 
L 109.843417 274.71644 
L 111.225884 274.71644 
L 111.225884 274.189754 
L 111.74176 274.189754 
L 111.74176 273.663068 
L 112.431755 273.663068 
L 112.431755 273.136382 
L 112.72987 273.136382 
L 112.72987 272.609696 
L 113.203693 272.609696 
L 113.203693 272.08301 
L 113.594805 272.08301 
L 113.594805 271.556324 
L 114.148479 271.556324 
L 114.148479 271.029638 
L 115.617575 271.029638 
L 115.617575 270.502952 
L 116.38325 270.502952 
L 116.38325 269.976266 
L 116.621333 269.976266 
L 116.621333 269.449579 
L 139.926112 269.449579 
L 139.926112 268.922893 
L 140.89311 268.922893 
L 140.922482 267.869521 
L 141.321401 267.869521 
L 141.428632 266.289463 
L 141.732423 266.289463 
L 141.732423 265.762777 
L 142.086005 265.762777 
L 142.086005 265.236091 
L 142.53319 265.236091 
L 142.626591 262.60266 
L 142.653186 262.60266 
L 142.699628 261.549288 
L 143.273169 261.549288 
L 143.273169 261.022602 
L 143.584537 261.022602 
L 143.653678 259.96923 
L 143.75376 259.96923 
L 143.75376 259.442544 
L 144.105706 259.442544 
L 144.105706 258.915858 
L 144.306265 258.915858 
L 144.336452 257.862486 
L 144.718306 257.862486 
L 144.718306 257.3358 
L 144.876926 257.3358 
L 144.876926 256.809114 
L 145.959614 256.809114 
L 145.959614 256.282427 
L 154.916345 256.282427 
L 154.916345 255.755741 
L 155.694554 255.755741 
L 155.694554 255.229055 
L 156.055616 255.229055 
L 156.055616 254.702369 
L 156.868152 254.702369 
L 156.868152 254.175683 
L 157.122105 254.175683 
L 157.122105 253.648997 
L 165.813593 253.648997 
L 165.854037 252.595625 
L 166.193215 252.595625 
L 166.193215 252.068939 
L 166.868978 252.068939 
L 166.868978 251.542253 
L 225.460677 251.542253 
L 225.475697 250.488881 
L 225.860402 250.488881 
L 225.860402 249.962195 
L 228.170268 249.962195 
L 228.27729 248.908822 
L 228.293791 248.908822 
L 228.307831 247.85545 
L 230.062501 247.85545 
L 230.067718 246.275392 
L 232.667864 246.275392 
L 232.667864 245.748706 
L 238.954944 245.748706 
L 238.954944 245.22202 
L 240.791386 245.22202 
L 240.791386 244.695334 
L 242.668631 244.695334 
L 242.668631 244.168648 
L 242.906867 244.168648 
L 242.906867 243.641962 
L 247.266831 243.641962 
L 247.266831 243.115275 
L 249.254791 243.115275 
L 249.254791 242.588589 
L 253.738655 242.588589 
L 253.738655 242.061903 
L 255.604617 242.061903 
L 255.604617 241.535217 
L 256.62645 241.535217 
L 256.62645 241.008531 
L 338.688 241.008531 
L 338.688 241.008531 
" style="fill:none;stroke:#ff0000;stroke-linecap:square;stroke-width:1.5;"/>
   </g>
   <g id="line2d_56">
    <defs>
     <path d="M 0 -6 
L -5.196152 -3 
L -5.196152 3 
L -0 6 
L 5.196152 3 
L 5.196152 -3 
z
" id="ma624837c72" style="stroke:#ff0000;stroke-linejoin:miter;stroke-width:1.5;"/>
    </defs>
    <g>
     <use style="fill-opacity:0;stroke:#ff0000;stroke-linejoin:miter;stroke-width:1.5;" x="95.918017" xlink:href="#ma624837c72" y="288.936964"/>
     <use style="fill-opacity:0;stroke:#ff0000;stroke-linejoin:miter;stroke-width:1.5;" x="166.868978" xlink:href="#ma624837c72" y="252.068939"/>
     <use style="fill-opacity:0;stroke:#ff0000;stroke-linejoin:miter;stroke-width:1.5;" x="238.954944" xlink:href="#ma624837c72" y="245.22202"/>
     <use style="fill-opacity:0;stroke:#ff0000;stroke-linejoin:miter;stroke-width:1.5;" x="256.62645" xlink:href="#ma624837c72" y="241.008531"/>
     <use style="fill-opacity:0;stroke:#ff0000;stroke-linejoin:miter;stroke-width:1.5;" x="256.62645" xlink:href="#ma624837c72" y="241.008531"/>
     <use style="fill-opacity:0;stroke:#ff0000;stroke-linejoin:miter;stroke-width:1.5;" x="338.688" xlink:href="#ma624837c72" y="241.008531"/>
    </g>
   </g>
   <g id="line2d_57">
    <path style="fill:none;stroke:#ff0000;stroke-linecap:square;stroke-width:1.5;"/>
    <g/>
   </g>
   <g id="line2d_58">
    <path clip-path="url(#p3661c157b1)" d="M 229.911232 247.85545 
" style="fill:none;stroke:#ff0000;stroke-linecap:square;stroke-width:1.5;"/>
    <defs>
     <path d="M -12 12 
L 12 -12 
M -12 -12 
L 12 12 
" id="m1092017810" style="stroke:#ff0000;"/>
    </defs>
    <g clip-path="url(#p3661c157b1)">
     <use style="fill:#ff0000;stroke:#ff0000;" x="229.911232" xlink:href="#m1092017810" y="247.85545"/>
    </g>
   </g>
   <g id="line2d_59">
    <path d="M 338.688 241.008531 
L 369.60768 293.571802 
" style="fill:none;stroke:#ff00ff;stroke-linecap:square;stroke-width:1.5;"/>
    <g>
     <use style="fill-opacity:0;stroke:#ff00ff;stroke-linejoin:miter;stroke-width:1.5;" x="338.688" xlink:href="#m1d1c370e03" y="241.008531"/>
     <use style="fill-opacity:0;stroke:#ff00ff;stroke-linejoin:miter;stroke-width:1.5;" x="369.60768" xlink:href="#m1d1c370e03" y="293.571802"/>
    </g>
   </g>
   <g id="line2d_60">
    <path d="M 338.688 241.008531 
L 369.60768 241.998701 
" style="fill:none;stroke:#ff7500;stroke-linecap:square;stroke-width:1.5;"/>
    <g>
     <use style="fill-opacity:0;stroke:#ff7500;stroke-linejoin:bevel;stroke-width:1.5;" x="338.688" xlink:href="#m366d34db74" y="241.008531"/>
     <use style="fill-opacity:0;stroke:#ff7500;stroke-linejoin:bevel;stroke-width:1.5;" x="369.60768" xlink:href="#m366d34db74" y="241.998701"/>
    </g>
   </g>
   <g id="line2d_61">
    <path d="M 338.688 241.008531 
L 369.60768 190.4256 
" style="fill:none;stroke:#000080;stroke-linecap:square;stroke-width:1.5;"/>
    <g>
     <use style="fill-opacity:0;stroke:#000080;stroke-width:1.5;" x="338.688" xlink:href="#m7b70b417c2" y="241.008531"/>
     <use style="fill-opacity:0;stroke:#000080;stroke-width:1.5;" x="369.60768" xlink:href="#m7b70b417c2" y="190.4256"/>
    </g>
   </g>
   <g id="line2d_62">
    <path d="M 338.688 241.008531 
L 369.60768 138.852499 
" style="fill:none;stroke:#ff0000;stroke-linecap:square;stroke-width:1.5;"/>
    <g>
     <use style="fill-opacity:0;stroke:#ff0000;stroke-linejoin:miter;stroke-width:1.5;" x="338.688" xlink:href="#ma624837c72" y="241.008531"/>
     <use style="fill-opacity:0;stroke:#ff0000;stroke-linejoin:miter;stroke-width:1.5;" x="369.60768" xlink:href="#ma624837c72" y="138.852499"/>
    </g>
   </g>
   <g id="line2d_63">
    <path d="M 338.688 30.334099 
L 369.60768 87.279398 
" style="fill:none;stroke:#6495ed;stroke-linecap:square;stroke-width:1.5;"/>
    <g>
     <use style="fill-opacity:0;stroke:#6495ed;stroke-linejoin:miter;stroke-width:1.5;" x="338.688" xlink:href="#mca22300764" y="30.334099"/>
     <use style="fill-opacity:0;stroke:#6495ed;stroke-linejoin:miter;stroke-width:1.5;" x="369.60768" xlink:href="#mca22300764" y="87.279398"/>
    </g>
   </g>
   <g id="line2d_64">
    <path d="M 338.688 298.944 
L 338.688 30.334099 
" style="fill:none;stroke:#000000;stroke-linecap:square;stroke-width:1.5;"/>
   </g>
   <g id="patch_3">
    <path d="M 57.6 298.944 
L 57.6 27.648 
" style="fill:none;stroke:#000000;stroke-linecap:square;stroke-linejoin:miter;stroke-width:0.8;"/>
   </g>
   <g id="patch_4">
    <path d="M 338.688 298.944 
L 338.688 27.648 
" style="fill:none;stroke:#000000;stroke-linecap:square;stroke-linejoin:miter;stroke-width:0.8;"/>
   </g>
   <g id="patch_5">
    <path d="M 57.6 298.944 
L 338.688 298.944 
" style="fill:none;stroke:#000000;stroke-linecap:square;stroke-linejoin:miter;stroke-width:0.8;"/>
   </g>
   <g id="patch_6">
    <path d="M 57.6 27.648 
L 338.688 27.648 
" style="fill:none;stroke:#000000;stroke-linecap:square;stroke-linejoin:miter;stroke-width:0.8;"/>
   </g>
   <g id="text_13">
    <!-- HE-ES Gla -->
    <g transform="translate(375.22944 298.262739)scale(0.17 -0.17)">
     <defs>
      <path d="M 628 4666 
L 1259 4666 
L 1259 2753 
L 3553 2753 
L 3553 4666 
L 4184 4666 
L 4184 0 
L 3553 0 
L 3553 2222 
L 1259 2222 
L 1259 0 
L 628 0 
L 628 4666 
z
" id="DejaVuSans-48" transform="scale(0.015625)"/>
      <path d="M 628 4666 
L 3578 4666 
L 3578 4134 
L 1259 4134 
L 1259 2753 
L 3481 2753 
L 3481 2222 
L 1259 2222 
L 1259 531 
L 3634 531 
L 3634 0 
L 628 0 
L 628 4666 
z
" id="DejaVuSans-45" transform="scale(0.015625)"/>
      <path d="M 3425 4513 
L 3425 3897 
Q 3066 4069 2747 4153 
Q 2428 4238 2131 4238 
Q 1616 4238 1336 4038 
Q 1056 3838 1056 3469 
Q 1056 3159 1242 3001 
Q 1428 2844 1947 2747 
L 2328 2669 
Q 3034 2534 3370 2195 
Q 3706 1856 3706 1288 
Q 3706 609 3251 259 
Q 2797 -91 1919 -91 
Q 1588 -91 1214 -16 
Q 841 59 441 206 
L 441 856 
Q 825 641 1194 531 
Q 1563 422 1919 422 
Q 2459 422 2753 634 
Q 3047 847 3047 1241 
Q 3047 1584 2836 1778 
Q 2625 1972 2144 2069 
L 1759 2144 
Q 1053 2284 737 2584 
Q 422 2884 422 3419 
Q 422 4038 858 4394 
Q 1294 4750 2059 4750 
Q 2388 4750 2728 4690 
Q 3069 4631 3425 4513 
z
" id="DejaVuSans-53" transform="scale(0.015625)"/>
      <path d="M 3809 666 
L 3809 1919 
L 2778 1919 
L 2778 2438 
L 4434 2438 
L 4434 434 
Q 4069 175 3628 42 
Q 3188 -91 2688 -91 
Q 1594 -91 976 548 
Q 359 1188 359 2328 
Q 359 3472 976 4111 
Q 1594 4750 2688 4750 
Q 3144 4750 3555 4637 
Q 3966 4525 4313 4306 
L 4313 3634 
Q 3963 3931 3569 4081 
Q 3175 4231 2741 4231 
Q 1884 4231 1454 3753 
Q 1025 3275 1025 2328 
Q 1025 1384 1454 906 
Q 1884 428 2741 428 
Q 3075 428 3337 486 
Q 3600 544 3809 666 
z
" id="DejaVuSans-47" transform="scale(0.015625)"/>
     </defs>
     <use xlink:href="#DejaVuSans-48"/>
     <use x="75.195312" xlink:href="#DejaVuSans-45"/>
     <use x="138.378906" xlink:href="#DejaVuSans-2d"/>
     <use x="174.462891" xlink:href="#DejaVuSans-45"/>
     <use x="237.646484" xlink:href="#DejaVuSans-53"/>
     <use x="301.123047" xlink:href="#DejaVuSans-20"/>
     <use x="332.910156" xlink:href="#DejaVuSans-47"/>
     <use x="410.400391" xlink:href="#DejaVuSans-6c"/>
     <use x="438.183594" xlink:href="#DejaVuSans-61"/>
    </g>
   </g>
   <g id="text_14">
    <!-- SLSQP+lq- -->
    <g transform="translate(375.22944 246.689638)scale(0.17 -0.17)">
     <defs>
      <path d="M 628 4666 
L 1259 4666 
L 1259 531 
L 3531 531 
L 3531 0 
L 628 0 
L 628 4666 
z
" id="DejaVuSans-4c" transform="scale(0.015625)"/>
      <path d="M 2522 4238 
Q 1834 4238 1429 3725 
Q 1025 3213 1025 2328 
Q 1025 1447 1429 934 
Q 1834 422 2522 422 
Q 3209 422 3611 934 
Q 4013 1447 4013 2328 
Q 4013 3213 3611 3725 
Q 3209 4238 2522 4238 
z
M 3406 84 
L 4238 -825 
L 3475 -825 
L 2784 -78 
Q 2681 -84 2626 -87 
Q 2572 -91 2522 -91 
Q 1538 -91 948 567 
Q 359 1225 359 2328 
Q 359 3434 948 4092 
Q 1538 4750 2522 4750 
Q 3503 4750 4090 4092 
Q 4678 3434 4678 2328 
Q 4678 1516 4351 937 
Q 4025 359 3406 84 
z
" id="DejaVuSans-51" transform="scale(0.015625)"/>
      <path d="M 1259 4147 
L 1259 2394 
L 2053 2394 
Q 2494 2394 2734 2622 
Q 2975 2850 2975 3272 
Q 2975 3691 2734 3919 
Q 2494 4147 2053 4147 
L 1259 4147 
z
M 628 4666 
L 2053 4666 
Q 2838 4666 3239 4311 
Q 3641 3956 3641 3272 
Q 3641 2581 3239 2228 
Q 2838 1875 2053 1875 
L 1259 1875 
L 1259 0 
L 628 0 
L 628 4666 
z
" id="DejaVuSans-50" transform="scale(0.015625)"/>
      <path d="M 2944 4013 
L 2944 2272 
L 4684 2272 
L 4684 1741 
L 2944 1741 
L 2944 0 
L 2419 0 
L 2419 1741 
L 678 1741 
L 678 2272 
L 2419 2272 
L 2419 4013 
L 2944 4013 
z
" id="DejaVuSans-2b" transform="scale(0.015625)"/>
      <path d="M 947 1747 
Q 947 1113 1208 752 
Q 1469 391 1925 391 
Q 2381 391 2643 752 
Q 2906 1113 2906 1747 
Q 2906 2381 2643 2742 
Q 2381 3103 1925 3103 
Q 1469 3103 1208 2742 
Q 947 2381 947 1747 
z
M 2906 525 
Q 2725 213 2448 61 
Q 2172 -91 1784 -91 
Q 1150 -91 751 415 
Q 353 922 353 1747 
Q 353 2572 751 3078 
Q 1150 3584 1784 3584 
Q 2172 3584 2448 3432 
Q 2725 3281 2906 2969 
L 2906 3500 
L 3481 3500 
L 3481 -1331 
L 2906 -1331 
L 2906 525 
z
" id="DejaVuSans-71" transform="scale(0.015625)"/>
     </defs>
     <use xlink:href="#DejaVuSans-53"/>
     <use x="63.476562" xlink:href="#DejaVuSans-4c"/>
     <use x="119.189453" xlink:href="#DejaVuSans-53"/>
     <use x="182.666016" xlink:href="#DejaVuSans-51"/>
     <use x="261.376953" xlink:href="#DejaVuSans-50"/>
     <use x="321.679688" xlink:href="#DejaVuSans-2b"/>
     <use x="405.46875" xlink:href="#DejaVuSans-6c"/>
     <use x="433.251953" xlink:href="#DejaVuSans-71"/>
     <use x="496.728516" xlink:href="#DejaVuSans-2d"/>
    </g>
   </g>
   <g id="text_15">
    <!-- CMA-ES-20 -->
    <g transform="translate(375.22944 195.116537)scale(0.17 -0.17)">
     <defs>
      <path d="M 4122 4306 
L 4122 3641 
Q 3803 3938 3442 4084 
Q 3081 4231 2675 4231 
Q 1875 4231 1450 3742 
Q 1025 3253 1025 2328 
Q 1025 1406 1450 917 
Q 1875 428 2675 428 
Q 3081 428 3442 575 
Q 3803 722 4122 1019 
L 4122 359 
Q 3791 134 3420 21 
Q 3050 -91 2638 -91 
Q 1578 -91 968 557 
Q 359 1206 359 2328 
Q 359 3453 968 4101 
Q 1578 4750 2638 4750 
Q 3056 4750 3426 4639 
Q 3797 4528 4122 4306 
z
" id="DejaVuSans-43" transform="scale(0.015625)"/>
      <path d="M 628 4666 
L 1569 4666 
L 2759 1491 
L 3956 4666 
L 4897 4666 
L 4897 0 
L 4281 0 
L 4281 4097 
L 3078 897 
L 2444 897 
L 1241 4097 
L 1241 0 
L 628 0 
L 628 4666 
z
" id="DejaVuSans-4d" transform="scale(0.015625)"/>
      <path d="M 2188 4044 
L 1331 1722 
L 3047 1722 
L 2188 4044 
z
M 1831 4666 
L 2547 4666 
L 4325 0 
L 3669 0 
L 3244 1197 
L 1141 1197 
L 716 0 
L 50 0 
L 1831 4666 
z
" id="DejaVuSans-41" transform="scale(0.015625)"/>
     </defs>
     <use xlink:href="#DejaVuSans-43"/>
     <use x="69.824219" xlink:href="#DejaVuSans-4d"/>
     <use x="156.103516" xlink:href="#DejaVuSans-41"/>
     <use x="222.261719" xlink:href="#DejaVuSans-2d"/>
     <use x="258.345703" xlink:href="#DejaVuSans-45"/>
     <use x="321.529297" xlink:href="#DejaVuSans-53"/>
     <use x="385.005859" xlink:href="#DejaVuSans-2d"/>
     <use x="421.089844" xlink:href="#DejaVuSans-32"/>
     <use x="484.712891" xlink:href="#DejaVuSans-30"/>
    </g>
   </g>
   <g id="text_16">
    <!-- lq-CMA-ES -->
    <g transform="translate(375.22944 143.543437)scale(0.17 -0.17)">
     <use xlink:href="#DejaVuSans-6c"/>
     <use x="27.783203" xlink:href="#DejaVuSans-71"/>
     <use x="91.259766" xlink:href="#DejaVuSans-2d"/>
     <use x="127.34375" xlink:href="#DejaVuSans-43"/>
     <use x="197.167969" xlink:href="#DejaVuSans-4d"/>
     <use x="283.447266" xlink:href="#DejaVuSans-41"/>
     <use x="349.605469" xlink:href="#DejaVuSans-2d"/>
     <use x="385.689453" xlink:href="#DejaVuSans-45"/>
     <use x="448.873047" xlink:href="#DejaVuSans-53"/>
    </g>
   </g>
   <g id="text_17">
    <!-- SLSQP-11- -->
    <g transform="translate(375.22944 91.970336)scale(0.17 -0.17)">
     <use xlink:href="#DejaVuSans-53"/>
     <use x="63.476562" xlink:href="#DejaVuSans-4c"/>
     <use x="119.189453" xlink:href="#DejaVuSans-53"/>
     <use x="182.666016" xlink:href="#DejaVuSans-51"/>
     <use x="261.376953" xlink:href="#DejaVuSans-50"/>
     <use x="319.429688" xlink:href="#DejaVuSans-2d"/>
     <use x="355.513672" xlink:href="#DejaVuSans-31"/>
     <use x="419.136719" xlink:href="#DejaVuSans-31"/>
     <use x="482.759766" xlink:href="#DejaVuSans-2d"/>
    </g>
   </g>
   <g id="text_18">
    <!-- best 2009 -->
    <g transform="translate(375.22944 40.397235)scale(0.17 -0.17)">
     <defs>
      <path d="M 3116 1747 
Q 3116 2381 2855 2742 
Q 2594 3103 2138 3103 
Q 1681 3103 1420 2742 
Q 1159 2381 1159 1747 
Q 1159 1113 1420 752 
Q 1681 391 2138 391 
Q 2594 391 2855 752 
Q 3116 1113 3116 1747 
z
M 1159 2969 
Q 1341 3281 1617 3432 
Q 1894 3584 2278 3584 
Q 2916 3584 3314 3078 
Q 3713 2572 3713 1747 
Q 3713 922 3314 415 
Q 2916 -91 2278 -91 
Q 1894 -91 1617 61 
Q 1341 213 1159 525 
L 1159 0 
L 581 0 
L 581 4863 
L 1159 4863 
L 1159 2969 
z
" id="DejaVuSans-62" transform="scale(0.015625)"/>
      <path d="M 703 97 
L 703 672 
Q 941 559 1184 500 
Q 1428 441 1663 441 
Q 2288 441 2617 861 
Q 2947 1281 2994 2138 
Q 2813 1869 2534 1725 
Q 2256 1581 1919 1581 
Q 1219 1581 811 2004 
Q 403 2428 403 3163 
Q 403 3881 828 4315 
Q 1253 4750 1959 4750 
Q 2769 4750 3195 4129 
Q 3622 3509 3622 2328 
Q 3622 1225 3098 567 
Q 2575 -91 1691 -91 
Q 1453 -91 1209 -44 
Q 966 3 703 97 
z
M 1959 2075 
Q 2384 2075 2632 2365 
Q 2881 2656 2881 3163 
Q 2881 3666 2632 3958 
Q 2384 4250 1959 4250 
Q 1534 4250 1286 3958 
Q 1038 3666 1038 3163 
Q 1038 2656 1286 2365 
Q 1534 2075 1959 2075 
z
" id="DejaVuSans-39" transform="scale(0.015625)"/>
     </defs>
     <use xlink:href="#DejaVuSans-62"/>
     <use x="63.476562" xlink:href="#DejaVuSans-65"/>
     <use x="125" xlink:href="#DejaVuSans-73"/>
     <use x="177.099609" xlink:href="#DejaVuSans-74"/>
     <use x="216.308594" xlink:href="#DejaVuSans-20"/>
     <use x="248.095703" xlink:href="#DejaVuSans-32"/>
     <use x="311.71875" xlink:href="#DejaVuSans-30"/>
     <use x="375.341797" xlink:href="#DejaVuSans-30"/>
     <use x="438.964844" xlink:href="#DejaVuSans-39"/>
    </g>
   </g>
   <g id="text_19">
    <!-- bbob f22, 20-D -->
    <g transform="translate(60.41088 38.111366)scale(0.102 -0.102)">
     <defs>
      <path d="M 1259 4147 
L 1259 519 
L 2022 519 
Q 2988 519 3436 956 
Q 3884 1394 3884 2338 
Q 3884 3275 3436 3711 
Q 2988 4147 2022 4147 
L 1259 4147 
z
M 628 4666 
L 1925 4666 
Q 3281 4666 3915 4102 
Q 4550 3538 4550 2338 
Q 4550 1131 3912 565 
Q 3275 0 1925 0 
L 628 0 
L 628 4666 
z
" id="DejaVuSans-44" transform="scale(0.015625)"/>
     </defs>
     <use xlink:href="#DejaVuSans-62"/>
     <use x="63.476562" xlink:href="#DejaVuSans-62"/>
     <use x="126.953125" xlink:href="#DejaVuSans-6f"/>
     <use x="188.134766" xlink:href="#DejaVuSans-62"/>
     <use x="251.611328" xlink:href="#DejaVuSans-20"/>
     <use x="283.398438" xlink:href="#DejaVuSans-66"/>
     <use x="318.603516" xlink:href="#DejaVuSans-32"/>
     <use x="382.226562" xlink:href="#DejaVuSans-32"/>
     <use x="445.849609" xlink:href="#DejaVuSans-2c"/>
     <use x="477.636719" xlink:href="#DejaVuSans-20"/>
     <use x="509.423828" xlink:href="#DejaVuSans-32"/>
     <use x="573.046875" xlink:href="#DejaVuSans-30"/>
     <use x="636.669922" xlink:href="#DejaVuSans-2d"/>
     <use x="672.753906" xlink:href="#DejaVuSans-44"/>
    </g>
    <!-- 51 targets: 100..1e-08 -->
    <g transform="translate(60.41088 49.533135)scale(0.102 -0.102)">
     <defs>
      <path d="M 691 4666 
L 3169 4666 
L 3169 4134 
L 1269 4134 
L 1269 2991 
Q 1406 3038 1543 3061 
Q 1681 3084 1819 3084 
Q 2600 3084 3056 2656 
Q 3513 2228 3513 1497 
Q 3513 744 3044 326 
Q 2575 -91 1722 -91 
Q 1428 -91 1123 -41 
Q 819 9 494 109 
L 494 744 
Q 775 591 1075 516 
Q 1375 441 1709 441 
Q 2250 441 2565 725 
Q 2881 1009 2881 1497 
Q 2881 1984 2565 2268 
Q 2250 2553 1709 2553 
Q 1456 2553 1204 2497 
Q 953 2441 691 2322 
L 691 4666 
z
" id="DejaVuSans-35" transform="scale(0.015625)"/>
      <path d="M 750 794 
L 1409 794 
L 1409 0 
L 750 0 
L 750 794 
z
M 750 3309 
L 1409 3309 
L 1409 2516 
L 750 2516 
L 750 3309 
z
" id="DejaVuSans-3a" transform="scale(0.015625)"/>
     </defs>
     <use xlink:href="#DejaVuSans-35"/>
     <use x="63.623047" xlink:href="#DejaVuSans-31"/>
     <use x="127.246094" xlink:href="#DejaVuSans-20"/>
     <use x="159.033203" xlink:href="#DejaVuSans-74"/>
     <use x="198.242188" xlink:href="#DejaVuSans-61"/>
     <use x="259.521484" xlink:href="#DejaVuSans-72"/>
     <use x="298.884766" xlink:href="#DejaVuSans-67"/>
     <use x="362.361328" xlink:href="#DejaVuSans-65"/>
     <use x="423.884766" xlink:href="#DejaVuSans-74"/>
     <use x="463.09375" xlink:href="#DejaVuSans-73"/>
     <use x="515.193359" xlink:href="#DejaVuSans-3a"/>
     <use x="548.884766" xlink:href="#DejaVuSans-20"/>
     <use x="580.671875" xlink:href="#DejaVuSans-31"/>
     <use x="644.294922" xlink:href="#DejaVuSans-30"/>
     <use x="707.917969" xlink:href="#DejaVuSans-30"/>
     <use x="771.541016" xlink:href="#DejaVuSans-2e"/>
     <use x="803.328125" xlink:href="#DejaVuSans-2e"/>
     <use x="835.115234" xlink:href="#DejaVuSans-31"/>
     <use x="898.738281" xlink:href="#DejaVuSans-65"/>
     <use x="960.261719" xlink:href="#DejaVuSans-2d"/>
     <use x="996.345703" xlink:href="#DejaVuSans-30"/>
     <use x="1059.96875" xlink:href="#DejaVuSans-38"/>
    </g>
    <!-- 15 instances -->
    <g transform="translate(60.41088 60.954904)scale(0.102 -0.102)">
     <use xlink:href="#DejaVuSans-31"/>
     <use x="63.623047" xlink:href="#DejaVuSans-35"/>
     <use x="127.246094" xlink:href="#DejaVuSans-20"/>
     <use x="159.033203" xlink:href="#DejaVuSans-69"/>
     <use x="186.816406" xlink:href="#DejaVuSans-6e"/>
     <use x="250.195312" xlink:href="#DejaVuSans-73"/>
     <use x="302.294922" xlink:href="#DejaVuSans-74"/>
     <use x="341.503906" xlink:href="#DejaVuSans-61"/>
     <use x="402.783203" xlink:href="#DejaVuSans-6e"/>
     <use x="466.162109" xlink:href="#DejaVuSans-63"/>
     <use x="521.142578" xlink:href="#DejaVuSans-65"/>
     <use x="582.666016" xlink:href="#DejaVuSans-73"/>
    </g>
   </g>
   <g id="text_20">
    <!-- v2.4.1.1 -->
    <g style="fill:#808080;" transform="translate(177.692437 294.151352)scale(0.1 -0.1)">
     <use xlink:href="#DejaVuSans-76"/>
     <use x="59.179688" xlink:href="#DejaVuSans-32"/>
     <use x="122.802734" xlink:href="#DejaVuSans-2e"/>
     <use x="154.589844" xlink:href="#DejaVuSans-34"/>
     <use x="218.212891" xlink:href="#DejaVuSans-2e"/>
     <use x="250" xlink:href="#DejaVuSans-31"/>
     <use x="313.623047" xlink:href="#DejaVuSans-2e"/>
     <use x="345.410156" xlink:href="#DejaVuSans-31"/>
    </g>
   </g>
   <g id="text_21">
    <!-- 22 Gallagher 21 peaks -->
    <g transform="translate(85.019 21.648)scale(0.2 -0.2)">
     <defs>
      <path d="M 3513 2113 
L 3513 0 
L 2938 0 
L 2938 2094 
Q 2938 2591 2744 2837 
Q 2550 3084 2163 3084 
Q 1697 3084 1428 2787 
Q 1159 2491 1159 1978 
L 1159 0 
L 581 0 
L 581 4863 
L 1159 4863 
L 1159 2956 
Q 1366 3272 1645 3428 
Q 1925 3584 2291 3584 
Q 2894 3584 3203 3211 
Q 3513 2838 3513 2113 
z
" id="DejaVuSans-68" transform="scale(0.015625)"/>
      <path d="M 581 4863 
L 1159 4863 
L 1159 1991 
L 2875 3500 
L 3609 3500 
L 1753 1863 
L 3688 0 
L 2938 0 
L 1159 1709 
L 1159 0 
L 581 0 
L 581 4863 
z
" id="DejaVuSans-6b" transform="scale(0.015625)"/>
     </defs>
     <use xlink:href="#DejaVuSans-32"/>
     <use x="63.623047" xlink:href="#DejaVuSans-32"/>
     <use x="127.246094" xlink:href="#DejaVuSans-20"/>
     <use x="159.033203" xlink:href="#DejaVuSans-47"/>
     <use x="236.523438" xlink:href="#DejaVuSans-61"/>
     <use x="297.802734" xlink:href="#DejaVuSans-6c"/>
     <use x="325.585938" xlink:href="#DejaVuSans-6c"/>
     <use x="353.369141" xlink:href="#DejaVuSans-61"/>
     <use x="414.648438" xlink:href="#DejaVuSans-67"/>
     <use x="478.125" xlink:href="#DejaVuSans-68"/>
     <use x="541.503906" xlink:href="#DejaVuSans-65"/>
     <use x="603.027344" xlink:href="#DejaVuSans-72"/>
     <use x="644.140625" xlink:href="#DejaVuSans-20"/>
     <use x="675.927734" xlink:href="#DejaVuSans-32"/>
     <use x="739.550781" xlink:href="#DejaVuSans-31"/>
     <use x="803.173828" xlink:href="#DejaVuSans-20"/>
     <use x="834.960938" xlink:href="#DejaVuSans-70"/>
     <use x="898.4375" xlink:href="#DejaVuSans-65"/>
     <use x="959.960938" xlink:href="#DejaVuSans-61"/>
     <use x="1021.240234" xlink:href="#DejaVuSans-6b"/>
     <use x="1079.150391" xlink:href="#DejaVuSans-73"/>
    </g>
   </g>
  </g>
 </g>
 <defs>
  <clipPath id="p3661c157b1">
   <rect height="271.296" width="281.088" x="57.6" y="27.648"/>
  </clipPath>
 </defs>
</svg>
