<?xml version="1.0" encoding="utf-8" standalone="no"?>
<!DOCTYPE svg PUBLIC "-//W3C//DTD SVG 1.1//EN"
  "http://www.w3.org/Graphics/SVG/1.1/DTD/svg11.dtd">
<svg height="345.6pt" version="1.1" viewBox="0 0 460.8 345.6" width="460.8pt" xmlns="http://www.w3.org/2000/svg" xmlns:xlink="http://www.w3.org/1999/xlink">
 <metadata>
  <rdf:RDF xmlns:cc="http://creativecommons.org/ns#" xmlns:dc="http://purl.org/dc/elements/1.1/" xmlns:rdf="http://www.w3.org/1999/02/22-rdf-syntax-ns#">
   <cc:Work>
    <dc:type rdf:resource="http://purl.org/dc/dcmitype/StillImage"/>
    <dc:date>2022-03-29T11:27:34.729223</dc:date>
    <dc:format>image/svg+xml</dc:format>
    <dc:creator>
     <cc:Agent>
      <dc:title>Matplotlib v3.4.3, https://matplotlib.org/</dc:title>
     </cc:Agent>
    </dc:creator>
   </cc:Work>
  </rdf:RDF>
 </metadata>
 <defs>
  <style type="text/css">*{stroke-linecap:butt;stroke-linejoin:round;}</style>
 </defs>
 <g id="figure_1">
  <g id="patch_1">
   <path d="M 0 345.6 
L 460.8 345.6 
L 460.8 0 
L 0 0 
z
" style="fill:#ffffff;"/>
  </g>
  <g id="axes_1">
   <g id="patch_2">
    <path d="M 57.6 298.944 
L 338.688 298.944 
L 338.688 27.648 
L 57.6 27.648 
z
" style="fill:#ffffff;"/>
   </g>
   <g id="line2d_1">
    <path d="M 29.53256 298.944 
L 29.53256 283.143418 
L 81.775977 283.143418 
L 81.775977 277.876557 
L 86.351421 277.876557 
L 86.351421 272.609696 
L 91.535274 272.609696 
L 91.535274 267.342835 
L 97.043522 267.342835 
L 97.043522 262.075974 
L 101.506816 262.075974 
L 101.506816 256.809114 
L 103.870632 256.809114 
L 103.870632 251.542253 
L 111.023335 251.542253 
L 111.023335 246.275392 
L 114.0117 246.275392 
L 114.0117 241.008531 
L 118.470564 241.008531 
L 118.470564 235.74167 
L 119.996839 235.74167 
L 119.996839 230.47481 
L 121.310093 230.47481 
L 121.310093 225.207949 
L 122.782271 225.207949 
L 122.782271 219.941088 
L 123.111324 219.941088 
L 123.111324 214.674227 
L 123.829748 214.674227 
L 123.829748 209.407366 
L 124.743806 209.407366 
L 124.743806 204.140506 
L 125.038147 204.140506 
L 125.038147 198.873645 
L 126.236468 198.873645 
L 126.236468 193.606784 
L 126.70692 193.606784 
L 126.70692 188.339923 
L 127.229484 188.339923 
L 127.229484 183.073062 
L 127.611382 183.073062 
L 127.611382 172.539341 
L 128.590686 172.539341 
L 128.590686 167.27248 
L 129.002426 167.27248 
L 129.002426 162.005619 
L 129.233413 162.005619 
L 129.233413 156.738758 
L 130.182344 156.738758 
L 130.182344 140.938176 
L 130.344571 140.938176 
L 130.344571 125.137593 
L 130.398313 125.137593 
L 130.398313 119.870733 
L 130.505303 119.870733 
L 130.505303 114.603872 
L 130.926816 114.603872 
L 130.926816 109.337011 
L 131.082294 109.337011 
L 131.082294 104.07015 
L 131.185181 104.07015 
L 131.185181 98.803289 
L 131.389151 98.803289 
L 131.389151 93.536429 
L 131.439773 93.536429 
L 131.439773 88.269568 
L 131.938072 88.269568 
L 131.938072 83.002707 
L 131.987128 83.002707 
L 131.987128 72.468985 
L 132.181982 72.468985 
L 132.181982 67.202125 
L 132.470242 67.202125 
L 132.470242 61.935264 
L 132.612604 61.935264 
L 132.612604 56.668403 
L 132.80063 56.668403 
L 132.80063 30.334099 
L 338.688 30.334099 
" style="fill:none;stroke:#f5deb3;stroke-linecap:square;stroke-width:4;"/>
   </g>
   <g id="line2d_2">
    <defs>
     <path d="M 0 7.778175 
L 7.778175 0 
L 0 -7.778175 
L -7.778175 0 
z
" id="m8362d0907d" style="stroke:#f5deb3;stroke-linejoin:miter;stroke-width:1.5;"/>
    </defs>
    <g>
     <use style="fill:#f5deb3;stroke:#f5deb3;stroke-linejoin:miter;stroke-width:1.5;" x="97.043522" xlink:href="#m8362d0907d" y="267.342835"/>
     <use style="fill:#f5deb3;stroke:#f5deb3;stroke-linejoin:miter;stroke-width:1.5;" x="129.233413" xlink:href="#m8362d0907d" y="156.738758"/>
     <use style="fill:#f5deb3;stroke:#f5deb3;stroke-linejoin:miter;stroke-width:1.5;" x="132.80063" xlink:href="#m8362d0907d" y="56.668403"/>
     <use style="fill:#f5deb3;stroke:#f5deb3;stroke-linejoin:miter;stroke-width:1.5;" x="132.80063" xlink:href="#m8362d0907d" y="30.334099"/>
     <use style="fill:#f5deb3;stroke:#f5deb3;stroke-linejoin:miter;stroke-width:1.5;" x="132.80063" xlink:href="#m8362d0907d" y="30.334099"/>
     <use style="fill:#f5deb3;stroke:#f5deb3;stroke-linejoin:miter;stroke-width:1.5;" x="338.688" xlink:href="#m8362d0907d" y="30.334099"/>
    </g>
   </g>
   <g id="line2d_3">
    <path style="fill:none;stroke:#f5deb3;stroke-linecap:square;stroke-width:4;"/>
    <g/>
   </g>
   <g id="line2d_4">
    <path d="M 338.688 30.334099 
L 369.60768 138.852499 
" style="fill:none;stroke:#f5deb3;stroke-linecap:square;stroke-width:4;"/>
    <g>
     <use style="fill:#f5deb3;stroke:#f5deb3;stroke-linejoin:miter;stroke-width:1.5;" x="338.688" xlink:href="#m8362d0907d" y="30.334099"/>
     <use style="fill:#f5deb3;stroke:#f5deb3;stroke-linejoin:miter;stroke-width:1.5;" x="369.60768" xlink:href="#m8362d0907d" y="138.852499"/>
    </g>
   </g>
   <g id="matplotlib.axis_1">
    <g id="xtick_1">
     <g id="line2d_5">
      <path clip-path="url(#p8d2e04643e)" d="M 57.6 298.944 
L 57.6 27.648 
" style="fill:none;stroke:#b0b0b0;stroke-linecap:square;stroke-width:0.8;"/>
     </g>
     <g id="line2d_6">
      <defs>
       <path d="M 0 0 
L 0 3.5 
" id="md7257d639d" style="stroke:#000000;stroke-width:0.8;"/>
      </defs>
      <g>
       <use style="stroke:#000000;stroke-width:0.8;" x="57.6" xlink:href="#md7257d639d" y="298.944"/>
      </g>
     </g>
     <g id="text_1">
      <!-- 0 -->
      <g transform="translate(51.2375 321.140875)scale(0.2 -0.2)">
       <defs>
        <path d="M 2034 4250 
Q 1547 4250 1301 3770 
Q 1056 3291 1056 2328 
Q 1056 1369 1301 889 
Q 1547 409 2034 409 
Q 2525 409 2770 889 
Q 3016 1369 3016 2328 
Q 3016 3291 2770 3770 
Q 2525 4250 2034 4250 
z
M 2034 4750 
Q 2819 4750 3233 4129 
Q 3647 3509 3647 2328 
Q 3647 1150 3233 529 
Q 2819 -91 2034 -91 
Q 1250 -91 836 529 
Q 422 1150 422 2328 
Q 422 3509 836 4129 
Q 1250 4750 2034 4750 
z
" id="DejaVuSans-30" transform="scale(0.015625)"/>
       </defs>
       <use xlink:href="#DejaVuSans-30"/>
      </g>
     </g>
    </g>
    <g id="xtick_2">
     <g id="line2d_7">
      <path clip-path="url(#p8d2e04643e)" d="M 137.910857 298.944 
L 137.910857 27.648 
" style="fill:none;stroke:#b0b0b0;stroke-linecap:square;stroke-width:0.8;"/>
     </g>
     <g id="line2d_8">
      <g>
       <use style="stroke:#000000;stroke-width:0.8;" x="137.910857" xlink:href="#md7257d639d" y="298.944"/>
      </g>
     </g>
     <g id="text_2">
      <!-- 2 -->
      <g transform="translate(131.548357 321.140875)scale(0.2 -0.2)">
       <defs>
        <path d="M 1228 531 
L 3431 531 
L 3431 0 
L 469 0 
L 469 531 
Q 828 903 1448 1529 
Q 2069 2156 2228 2338 
Q 2531 2678 2651 2914 
Q 2772 3150 2772 3378 
Q 2772 3750 2511 3984 
Q 2250 4219 1831 4219 
Q 1534 4219 1204 4116 
Q 875 4013 500 3803 
L 500 4441 
Q 881 4594 1212 4672 
Q 1544 4750 1819 4750 
Q 2544 4750 2975 4387 
Q 3406 4025 3406 3419 
Q 3406 3131 3298 2873 
Q 3191 2616 2906 2266 
Q 2828 2175 2409 1742 
Q 1991 1309 1228 531 
z
" id="DejaVuSans-32" transform="scale(0.015625)"/>
       </defs>
       <use xlink:href="#DejaVuSans-32"/>
      </g>
     </g>
    </g>
    <g id="xtick_3">
     <g id="line2d_9">
      <path clip-path="url(#p8d2e04643e)" d="M 218.221714 298.944 
L 218.221714 27.648 
" style="fill:none;stroke:#b0b0b0;stroke-linecap:square;stroke-width:0.8;"/>
     </g>
     <g id="line2d_10">
      <g>
       <use style="stroke:#000000;stroke-width:0.8;" x="218.221714" xlink:href="#md7257d639d" y="298.944"/>
      </g>
     </g>
     <g id="text_3">
      <!-- 4 -->
      <g transform="translate(211.859214 321.140875)scale(0.2 -0.2)">
       <defs>
        <path d="M 2419 4116 
L 825 1625 
L 2419 1625 
L 2419 4116 
z
M 2253 4666 
L 3047 4666 
L 3047 1625 
L 3713 1625 
L 3713 1100 
L 3047 1100 
L 3047 0 
L 2419 0 
L 2419 1100 
L 313 1100 
L 313 1709 
L 2253 4666 
z
" id="DejaVuSans-34" transform="scale(0.015625)"/>
       </defs>
       <use xlink:href="#DejaVuSans-34"/>
      </g>
     </g>
    </g>
    <g id="xtick_4">
     <g id="line2d_11">
      <path clip-path="url(#p8d2e04643e)" d="M 298.532571 298.944 
L 298.532571 27.648 
" style="fill:none;stroke:#b0b0b0;stroke-linecap:square;stroke-width:0.8;"/>
     </g>
     <g id="line2d_12">
      <g>
       <use style="stroke:#000000;stroke-width:0.8;" x="298.532571" xlink:href="#md7257d639d" y="298.944"/>
      </g>
     </g>
     <g id="text_4">
      <!-- 6 -->
      <g transform="translate(292.170071 321.140875)scale(0.2 -0.2)">
       <defs>
        <path d="M 2113 2584 
Q 1688 2584 1439 2293 
Q 1191 2003 1191 1497 
Q 1191 994 1439 701 
Q 1688 409 2113 409 
Q 2538 409 2786 701 
Q 3034 994 3034 1497 
Q 3034 2003 2786 2293 
Q 2538 2584 2113 2584 
z
M 3366 4563 
L 3366 3988 
Q 3128 4100 2886 4159 
Q 2644 4219 2406 4219 
Q 1781 4219 1451 3797 
Q 1122 3375 1075 2522 
Q 1259 2794 1537 2939 
Q 1816 3084 2150 3084 
Q 2853 3084 3261 2657 
Q 3669 2231 3669 1497 
Q 3669 778 3244 343 
Q 2819 -91 2113 -91 
Q 1303 -91 875 529 
Q 447 1150 447 2328 
Q 447 3434 972 4092 
Q 1497 4750 2381 4750 
Q 2619 4750 2861 4703 
Q 3103 4656 3366 4563 
z
" id="DejaVuSans-36" transform="scale(0.015625)"/>
       </defs>
       <use xlink:href="#DejaVuSans-36"/>
      </g>
     </g>
    </g>
    <g id="xtick_5">
     <g id="line2d_13">
      <path clip-path="url(#p8d2e04643e)" d="M 97.755429 298.944 
L 97.755429 27.648 
" style="fill:none;stroke:#b0b0b0;stroke-linecap:square;stroke-width:0.8;"/>
     </g>
     <g id="line2d_14">
      <defs>
       <path d="M 0 0 
L 0 2 
" id="mae1ef2796d" style="stroke:#000000;stroke-width:0.6;"/>
      </defs>
      <g>
       <use style="stroke:#000000;stroke-width:0.6;" x="97.755429" xlink:href="#mae1ef2796d" y="298.944"/>
      </g>
     </g>
    </g>
    <g id="xtick_6">
     <g id="line2d_15">
      <path clip-path="url(#p8d2e04643e)" d="M 178.066286 298.944 
L 178.066286 27.648 
" style="fill:none;stroke:#b0b0b0;stroke-linecap:square;stroke-width:0.8;"/>
     </g>
     <g id="line2d_16">
      <g>
       <use style="stroke:#000000;stroke-width:0.6;" x="178.066286" xlink:href="#mae1ef2796d" y="298.944"/>
      </g>
     </g>
    </g>
    <g id="xtick_7">
     <g id="line2d_17">
      <path clip-path="url(#p8d2e04643e)" d="M 258.377143 298.944 
L 258.377143 27.648 
" style="fill:none;stroke:#b0b0b0;stroke-linecap:square;stroke-width:0.8;"/>
     </g>
     <g id="line2d_18">
      <g>
       <use style="stroke:#000000;stroke-width:0.6;" x="258.377143" xlink:href="#mae1ef2796d" y="298.944"/>
      </g>
     </g>
    </g>
    <g id="xtick_8">
     <g id="line2d_19">
      <path clip-path="url(#p8d2e04643e)" d="M 338.688 298.944 
L 338.688 27.648 
" style="fill:none;stroke:#b0b0b0;stroke-linecap:square;stroke-width:0.8;"/>
     </g>
     <g id="line2d_20">
      <g>
       <use style="stroke:#000000;stroke-width:0.6;" x="338.688" xlink:href="#mae1ef2796d" y="298.944"/>
      </g>
     </g>
    </g>
    <g id="text_5">
     <!-- log10(# f-evals / dimension) -->
     <g transform="translate(77.764078 342.217594)scale(0.17 -0.17)">
      <defs>
       <path d="M 603 4863 
L 1178 4863 
L 1178 0 
L 603 0 
L 603 4863 
z
" id="DejaVuSans-6c" transform="scale(0.015625)"/>
       <path d="M 1959 3097 
Q 1497 3097 1228 2736 
Q 959 2375 959 1747 
Q 959 1119 1226 758 
Q 1494 397 1959 397 
Q 2419 397 2687 759 
Q 2956 1122 2956 1747 
Q 2956 2369 2687 2733 
Q 2419 3097 1959 3097 
z
M 1959 3584 
Q 2709 3584 3137 3096 
Q 3566 2609 3566 1747 
Q 3566 888 3137 398 
Q 2709 -91 1959 -91 
Q 1206 -91 779 398 
Q 353 888 353 1747 
Q 353 2609 779 3096 
Q 1206 3584 1959 3584 
z
" id="DejaVuSans-6f" transform="scale(0.015625)"/>
       <path d="M 2906 1791 
Q 2906 2416 2648 2759 
Q 2391 3103 1925 3103 
Q 1463 3103 1205 2759 
Q 947 2416 947 1791 
Q 947 1169 1205 825 
Q 1463 481 1925 481 
Q 2391 481 2648 825 
Q 2906 1169 2906 1791 
z
M 3481 434 
Q 3481 -459 3084 -895 
Q 2688 -1331 1869 -1331 
Q 1566 -1331 1297 -1286 
Q 1028 -1241 775 -1147 
L 775 -588 
Q 1028 -725 1275 -790 
Q 1522 -856 1778 -856 
Q 2344 -856 2625 -561 
Q 2906 -266 2906 331 
L 2906 616 
Q 2728 306 2450 153 
Q 2172 0 1784 0 
Q 1141 0 747 490 
Q 353 981 353 1791 
Q 353 2603 747 3093 
Q 1141 3584 1784 3584 
Q 2172 3584 2450 3431 
Q 2728 3278 2906 2969 
L 2906 3500 
L 3481 3500 
L 3481 434 
z
" id="DejaVuSans-67" transform="scale(0.015625)"/>
       <path d="M 794 531 
L 1825 531 
L 1825 4091 
L 703 3866 
L 703 4441 
L 1819 4666 
L 2450 4666 
L 2450 531 
L 3481 531 
L 3481 0 
L 794 0 
L 794 531 
z
" id="DejaVuSans-31" transform="scale(0.015625)"/>
       <path d="M 1984 4856 
Q 1566 4138 1362 3434 
Q 1159 2731 1159 2009 
Q 1159 1288 1364 580 
Q 1569 -128 1984 -844 
L 1484 -844 
Q 1016 -109 783 600 
Q 550 1309 550 2009 
Q 550 2706 781 3412 
Q 1013 4119 1484 4856 
L 1984 4856 
z
" id="DejaVuSans-28" transform="scale(0.015625)"/>
       <path d="M 3272 2816 
L 2363 2816 
L 2100 1772 
L 3016 1772 
L 3272 2816 
z
M 2803 4594 
L 2478 3297 
L 3391 3297 
L 3719 4594 
L 4219 4594 
L 3897 3297 
L 4872 3297 
L 4872 2816 
L 3775 2816 
L 3519 1772 
L 4513 1772 
L 4513 1294 
L 3397 1294 
L 3072 0 
L 2572 0 
L 2894 1294 
L 1978 1294 
L 1656 0 
L 1153 0 
L 1478 1294 
L 494 1294 
L 494 1772 
L 1594 1772 
L 1856 2816 
L 850 2816 
L 850 3297 
L 1978 3297 
L 2297 4594 
L 2803 4594 
z
" id="DejaVuSans-23" transform="scale(0.015625)"/>
       <path id="DejaVuSans-20" transform="scale(0.015625)"/>
       <path d="M 2375 4863 
L 2375 4384 
L 1825 4384 
Q 1516 4384 1395 4259 
Q 1275 4134 1275 3809 
L 1275 3500 
L 2222 3500 
L 2222 3053 
L 1275 3053 
L 1275 0 
L 697 0 
L 697 3053 
L 147 3053 
L 147 3500 
L 697 3500 
L 697 3744 
Q 697 4328 969 4595 
Q 1241 4863 1831 4863 
L 2375 4863 
z
" id="DejaVuSans-66" transform="scale(0.015625)"/>
       <path d="M 313 2009 
L 1997 2009 
L 1997 1497 
L 313 1497 
L 313 2009 
z
" id="DejaVuSans-2d" transform="scale(0.015625)"/>
       <path d="M 3597 1894 
L 3597 1613 
L 953 1613 
Q 991 1019 1311 708 
Q 1631 397 2203 397 
Q 2534 397 2845 478 
Q 3156 559 3463 722 
L 3463 178 
Q 3153 47 2828 -22 
Q 2503 -91 2169 -91 
Q 1331 -91 842 396 
Q 353 884 353 1716 
Q 353 2575 817 3079 
Q 1281 3584 2069 3584 
Q 2775 3584 3186 3129 
Q 3597 2675 3597 1894 
z
M 3022 2063 
Q 3016 2534 2758 2815 
Q 2500 3097 2075 3097 
Q 1594 3097 1305 2825 
Q 1016 2553 972 2059 
L 3022 2063 
z
" id="DejaVuSans-65" transform="scale(0.015625)"/>
       <path d="M 191 3500 
L 800 3500 
L 1894 563 
L 2988 3500 
L 3597 3500 
L 2284 0 
L 1503 0 
L 191 3500 
z
" id="DejaVuSans-76" transform="scale(0.015625)"/>
       <path d="M 2194 1759 
Q 1497 1759 1228 1600 
Q 959 1441 959 1056 
Q 959 750 1161 570 
Q 1363 391 1709 391 
Q 2188 391 2477 730 
Q 2766 1069 2766 1631 
L 2766 1759 
L 2194 1759 
z
M 3341 1997 
L 3341 0 
L 2766 0 
L 2766 531 
Q 2569 213 2275 61 
Q 1981 -91 1556 -91 
Q 1019 -91 701 211 
Q 384 513 384 1019 
Q 384 1609 779 1909 
Q 1175 2209 1959 2209 
L 2766 2209 
L 2766 2266 
Q 2766 2663 2505 2880 
Q 2244 3097 1772 3097 
Q 1472 3097 1187 3025 
Q 903 2953 641 2809 
L 641 3341 
Q 956 3463 1253 3523 
Q 1550 3584 1831 3584 
Q 2591 3584 2966 3190 
Q 3341 2797 3341 1997 
z
" id="DejaVuSans-61" transform="scale(0.015625)"/>
       <path d="M 2834 3397 
L 2834 2853 
Q 2591 2978 2328 3040 
Q 2066 3103 1784 3103 
Q 1356 3103 1142 2972 
Q 928 2841 928 2578 
Q 928 2378 1081 2264 
Q 1234 2150 1697 2047 
L 1894 2003 
Q 2506 1872 2764 1633 
Q 3022 1394 3022 966 
Q 3022 478 2636 193 
Q 2250 -91 1575 -91 
Q 1294 -91 989 -36 
Q 684 19 347 128 
L 347 722 
Q 666 556 975 473 
Q 1284 391 1588 391 
Q 1994 391 2212 530 
Q 2431 669 2431 922 
Q 2431 1156 2273 1281 
Q 2116 1406 1581 1522 
L 1381 1569 
Q 847 1681 609 1914 
Q 372 2147 372 2553 
Q 372 3047 722 3315 
Q 1072 3584 1716 3584 
Q 2034 3584 2315 3537 
Q 2597 3491 2834 3397 
z
" id="DejaVuSans-73" transform="scale(0.015625)"/>
       <path d="M 1625 4666 
L 2156 4666 
L 531 -594 
L 0 -594 
L 1625 4666 
z
" id="DejaVuSans-2f" transform="scale(0.015625)"/>
       <path d="M 2906 2969 
L 2906 4863 
L 3481 4863 
L 3481 0 
L 2906 0 
L 2906 525 
Q 2725 213 2448 61 
Q 2172 -91 1784 -91 
Q 1150 -91 751 415 
Q 353 922 353 1747 
Q 353 2572 751 3078 
Q 1150 3584 1784 3584 
Q 2172 3584 2448 3432 
Q 2725 3281 2906 2969 
z
M 947 1747 
Q 947 1113 1208 752 
Q 1469 391 1925 391 
Q 2381 391 2643 752 
Q 2906 1113 2906 1747 
Q 2906 2381 2643 2742 
Q 2381 3103 1925 3103 
Q 1469 3103 1208 2742 
Q 947 2381 947 1747 
z
" id="DejaVuSans-64" transform="scale(0.015625)"/>
       <path d="M 603 3500 
L 1178 3500 
L 1178 0 
L 603 0 
L 603 3500 
z
M 603 4863 
L 1178 4863 
L 1178 4134 
L 603 4134 
L 603 4863 
z
" id="DejaVuSans-69" transform="scale(0.015625)"/>
       <path d="M 3328 2828 
Q 3544 3216 3844 3400 
Q 4144 3584 4550 3584 
Q 5097 3584 5394 3201 
Q 5691 2819 5691 2113 
L 5691 0 
L 5113 0 
L 5113 2094 
Q 5113 2597 4934 2840 
Q 4756 3084 4391 3084 
Q 3944 3084 3684 2787 
Q 3425 2491 3425 1978 
L 3425 0 
L 2847 0 
L 2847 2094 
Q 2847 2600 2669 2842 
Q 2491 3084 2119 3084 
Q 1678 3084 1418 2786 
Q 1159 2488 1159 1978 
L 1159 0 
L 581 0 
L 581 3500 
L 1159 3500 
L 1159 2956 
Q 1356 3278 1631 3431 
Q 1906 3584 2284 3584 
Q 2666 3584 2933 3390 
Q 3200 3197 3328 2828 
z
" id="DejaVuSans-6d" transform="scale(0.015625)"/>
       <path d="M 3513 2113 
L 3513 0 
L 2938 0 
L 2938 2094 
Q 2938 2591 2744 2837 
Q 2550 3084 2163 3084 
Q 1697 3084 1428 2787 
Q 1159 2491 1159 1978 
L 1159 0 
L 581 0 
L 581 3500 
L 1159 3500 
L 1159 2956 
Q 1366 3272 1645 3428 
Q 1925 3584 2291 3584 
Q 2894 3584 3203 3211 
Q 3513 2838 3513 2113 
z
" id="DejaVuSans-6e" transform="scale(0.015625)"/>
       <path d="M 513 4856 
L 1013 4856 
Q 1481 4119 1714 3412 
Q 1947 2706 1947 2009 
Q 1947 1309 1714 600 
Q 1481 -109 1013 -844 
L 513 -844 
Q 928 -128 1133 580 
Q 1338 1288 1338 2009 
Q 1338 2731 1133 3434 
Q 928 4138 513 4856 
z
" id="DejaVuSans-29" transform="scale(0.015625)"/>
      </defs>
      <use xlink:href="#DejaVuSans-6c"/>
      <use x="27.783203" xlink:href="#DejaVuSans-6f"/>
      <use x="88.964844" xlink:href="#DejaVuSans-67"/>
      <use x="152.441406" xlink:href="#DejaVuSans-31"/>
      <use x="216.064453" xlink:href="#DejaVuSans-30"/>
      <use x="279.6875" xlink:href="#DejaVuSans-28"/>
      <use x="318.701172" xlink:href="#DejaVuSans-23"/>
      <use x="402.490234" xlink:href="#DejaVuSans-20"/>
      <use x="434.277344" xlink:href="#DejaVuSans-66"/>
      <use x="463.982422" xlink:href="#DejaVuSans-2d"/>
      <use x="500.066406" xlink:href="#DejaVuSans-65"/>
      <use x="561.589844" xlink:href="#DejaVuSans-76"/>
      <use x="620.769531" xlink:href="#DejaVuSans-61"/>
      <use x="682.048828" xlink:href="#DejaVuSans-6c"/>
      <use x="709.832031" xlink:href="#DejaVuSans-73"/>
      <use x="761.931641" xlink:href="#DejaVuSans-20"/>
      <use x="793.71875" xlink:href="#DejaVuSans-2f"/>
      <use x="827.410156" xlink:href="#DejaVuSans-20"/>
      <use x="859.197266" xlink:href="#DejaVuSans-64"/>
      <use x="922.673828" xlink:href="#DejaVuSans-69"/>
      <use x="950.457031" xlink:href="#DejaVuSans-6d"/>
      <use x="1047.869141" xlink:href="#DejaVuSans-65"/>
      <use x="1109.392578" xlink:href="#DejaVuSans-6e"/>
      <use x="1172.771484" xlink:href="#DejaVuSans-73"/>
      <use x="1224.871094" xlink:href="#DejaVuSans-69"/>
      <use x="1252.654297" xlink:href="#DejaVuSans-6f"/>
      <use x="1313.835938" xlink:href="#DejaVuSans-6e"/>
      <use x="1377.214844" xlink:href="#DejaVuSans-29"/>
     </g>
    </g>
   </g>
   <g id="matplotlib.axis_2">
    <g id="ytick_1">
     <g id="line2d_21">
      <path clip-path="url(#p8d2e04643e)" d="M 57.6 298.944 
L 338.688 298.944 
" style="fill:none;stroke:#b0b0b0;stroke-linecap:square;stroke-width:0.8;"/>
     </g>
     <g id="line2d_22">
      <defs>
       <path d="M 0 0 
L -3.5 0 
" id="m7e311c4829" style="stroke:#000000;stroke-width:0.8;"/>
      </defs>
      <g>
       <use style="stroke:#000000;stroke-width:0.8;" x="57.6" xlink:href="#m7e311c4829" y="298.944"/>
      </g>
     </g>
     <g id="text_6">
      <!-- 0.0 -->
      <g transform="translate(25.155 305.02275)scale(0.16 -0.16)">
       <defs>
        <path d="M 684 794 
L 1344 794 
L 1344 0 
L 684 0 
L 684 794 
z
" id="DejaVuSans-2e" transform="scale(0.015625)"/>
       </defs>
       <use xlink:href="#DejaVuSans-30"/>
       <use x="63.623047" xlink:href="#DejaVuSans-2e"/>
       <use x="95.410156" xlink:href="#DejaVuSans-30"/>
      </g>
     </g>
    </g>
    <g id="ytick_2">
     <g id="line2d_23">
      <path clip-path="url(#p8d2e04643e)" d="M 57.6 245.22202 
L 338.688 245.22202 
" style="fill:none;stroke:#b0b0b0;stroke-linecap:square;stroke-width:0.8;"/>
     </g>
     <g id="line2d_24">
      <g>
       <use style="stroke:#000000;stroke-width:0.8;" x="57.6" xlink:href="#m7e311c4829" y="245.22202"/>
      </g>
     </g>
     <g id="text_7">
      <!-- 0.2 -->
      <g transform="translate(25.155 251.30077)scale(0.16 -0.16)">
       <use xlink:href="#DejaVuSans-30"/>
       <use x="63.623047" xlink:href="#DejaVuSans-2e"/>
       <use x="95.410156" xlink:href="#DejaVuSans-32"/>
      </g>
     </g>
    </g>
    <g id="ytick_3">
     <g id="line2d_25">
      <path clip-path="url(#p8d2e04643e)" d="M 57.6 191.50004 
L 338.688 191.50004 
" style="fill:none;stroke:#b0b0b0;stroke-linecap:square;stroke-width:0.8;"/>
     </g>
     <g id="line2d_26">
      <g>
       <use style="stroke:#000000;stroke-width:0.8;" x="57.6" xlink:href="#m7e311c4829" y="191.50004"/>
      </g>
     </g>
     <g id="text_8">
      <!-- 0.4 -->
      <g transform="translate(25.155 197.57879)scale(0.16 -0.16)">
       <use xlink:href="#DejaVuSans-30"/>
       <use x="63.623047" xlink:href="#DejaVuSans-2e"/>
       <use x="95.410156" xlink:href="#DejaVuSans-34"/>
      </g>
     </g>
    </g>
    <g id="ytick_4">
     <g id="line2d_27">
      <path clip-path="url(#p8d2e04643e)" d="M 57.6 137.778059 
L 338.688 137.778059 
" style="fill:none;stroke:#b0b0b0;stroke-linecap:square;stroke-width:0.8;"/>
     </g>
     <g id="line2d_28">
      <g>
       <use style="stroke:#000000;stroke-width:0.8;" x="57.6" xlink:href="#m7e311c4829" y="137.778059"/>
      </g>
     </g>
     <g id="text_9">
      <!-- 0.6 -->
      <g transform="translate(25.155 143.856809)scale(0.16 -0.16)">
       <use xlink:href="#DejaVuSans-30"/>
       <use x="63.623047" xlink:href="#DejaVuSans-2e"/>
       <use x="95.410156" xlink:href="#DejaVuSans-36"/>
      </g>
     </g>
    </g>
    <g id="ytick_5">
     <g id="line2d_29">
      <path clip-path="url(#p8d2e04643e)" d="M 57.6 84.056079 
L 338.688 84.056079 
" style="fill:none;stroke:#b0b0b0;stroke-linecap:square;stroke-width:0.8;"/>
     </g>
     <g id="line2d_30">
      <g>
       <use style="stroke:#000000;stroke-width:0.8;" x="57.6" xlink:href="#m7e311c4829" y="84.056079"/>
      </g>
     </g>
     <g id="text_10">
      <!-- 0.8 -->
      <g transform="translate(25.155 90.134829)scale(0.16 -0.16)">
       <defs>
        <path d="M 2034 2216 
Q 1584 2216 1326 1975 
Q 1069 1734 1069 1313 
Q 1069 891 1326 650 
Q 1584 409 2034 409 
Q 2484 409 2743 651 
Q 3003 894 3003 1313 
Q 3003 1734 2745 1975 
Q 2488 2216 2034 2216 
z
M 1403 2484 
Q 997 2584 770 2862 
Q 544 3141 544 3541 
Q 544 4100 942 4425 
Q 1341 4750 2034 4750 
Q 2731 4750 3128 4425 
Q 3525 4100 3525 3541 
Q 3525 3141 3298 2862 
Q 3072 2584 2669 2484 
Q 3125 2378 3379 2068 
Q 3634 1759 3634 1313 
Q 3634 634 3220 271 
Q 2806 -91 2034 -91 
Q 1263 -91 848 271 
Q 434 634 434 1313 
Q 434 1759 690 2068 
Q 947 2378 1403 2484 
z
M 1172 3481 
Q 1172 3119 1398 2916 
Q 1625 2713 2034 2713 
Q 2441 2713 2670 2916 
Q 2900 3119 2900 3481 
Q 2900 3844 2670 4047 
Q 2441 4250 2034 4250 
Q 1625 4250 1398 4047 
Q 1172 3844 1172 3481 
z
" id="DejaVuSans-38" transform="scale(0.015625)"/>
       </defs>
       <use xlink:href="#DejaVuSans-30"/>
       <use x="63.623047" xlink:href="#DejaVuSans-2e"/>
       <use x="95.410156" xlink:href="#DejaVuSans-38"/>
      </g>
     </g>
    </g>
    <g id="ytick_6">
     <g id="line2d_31">
      <path clip-path="url(#p8d2e04643e)" d="M 57.6 30.334099 
L 338.688 30.334099 
" style="fill:none;stroke:#b0b0b0;stroke-linecap:square;stroke-width:0.8;"/>
     </g>
     <g id="line2d_32">
      <g>
       <use style="stroke:#000000;stroke-width:0.8;" x="57.6" xlink:href="#m7e311c4829" y="30.334099"/>
      </g>
     </g>
     <g id="text_11">
      <!-- 1.0 -->
      <g transform="translate(25.155 36.412849)scale(0.16 -0.16)">
       <use xlink:href="#DejaVuSans-31"/>
       <use x="63.623047" xlink:href="#DejaVuSans-2e"/>
       <use x="95.410156" xlink:href="#DejaVuSans-30"/>
      </g>
     </g>
    </g>
    <g id="text_12">
     <!-- Fraction of function,target pairs -->
     <g transform="translate(17.619531 297.681)rotate(-90)scale(0.17 -0.17)">
      <defs>
       <path d="M 628 4666 
L 3309 4666 
L 3309 4134 
L 1259 4134 
L 1259 2759 
L 3109 2759 
L 3109 2228 
L 1259 2228 
L 1259 0 
L 628 0 
L 628 4666 
z
" id="DejaVuSans-46" transform="scale(0.015625)"/>
       <path d="M 2631 2963 
Q 2534 3019 2420 3045 
Q 2306 3072 2169 3072 
Q 1681 3072 1420 2755 
Q 1159 2438 1159 1844 
L 1159 0 
L 581 0 
L 581 3500 
L 1159 3500 
L 1159 2956 
Q 1341 3275 1631 3429 
Q 1922 3584 2338 3584 
Q 2397 3584 2469 3576 
Q 2541 3569 2628 3553 
L 2631 2963 
z
" id="DejaVuSans-72" transform="scale(0.015625)"/>
       <path d="M 3122 3366 
L 3122 2828 
Q 2878 2963 2633 3030 
Q 2388 3097 2138 3097 
Q 1578 3097 1268 2742 
Q 959 2388 959 1747 
Q 959 1106 1268 751 
Q 1578 397 2138 397 
Q 2388 397 2633 464 
Q 2878 531 3122 666 
L 3122 134 
Q 2881 22 2623 -34 
Q 2366 -91 2075 -91 
Q 1284 -91 818 406 
Q 353 903 353 1747 
Q 353 2603 823 3093 
Q 1294 3584 2113 3584 
Q 2378 3584 2631 3529 
Q 2884 3475 3122 3366 
z
" id="DejaVuSans-63" transform="scale(0.015625)"/>
       <path d="M 1172 4494 
L 1172 3500 
L 2356 3500 
L 2356 3053 
L 1172 3053 
L 1172 1153 
Q 1172 725 1289 603 
Q 1406 481 1766 481 
L 2356 481 
L 2356 0 
L 1766 0 
Q 1100 0 847 248 
Q 594 497 594 1153 
L 594 3053 
L 172 3053 
L 172 3500 
L 594 3500 
L 594 4494 
L 1172 4494 
z
" id="DejaVuSans-74" transform="scale(0.015625)"/>
       <path d="M 544 1381 
L 544 3500 
L 1119 3500 
L 1119 1403 
Q 1119 906 1312 657 
Q 1506 409 1894 409 
Q 2359 409 2629 706 
Q 2900 1003 2900 1516 
L 2900 3500 
L 3475 3500 
L 3475 0 
L 2900 0 
L 2900 538 
Q 2691 219 2414 64 
Q 2138 -91 1772 -91 
Q 1169 -91 856 284 
Q 544 659 544 1381 
z
M 1991 3584 
L 1991 3584 
z
" id="DejaVuSans-75" transform="scale(0.015625)"/>
       <path d="M 750 794 
L 1409 794 
L 1409 256 
L 897 -744 
L 494 -744 
L 750 256 
L 750 794 
z
" id="DejaVuSans-2c" transform="scale(0.015625)"/>
       <path d="M 1159 525 
L 1159 -1331 
L 581 -1331 
L 581 3500 
L 1159 3500 
L 1159 2969 
Q 1341 3281 1617 3432 
Q 1894 3584 2278 3584 
Q 2916 3584 3314 3078 
Q 3713 2572 3713 1747 
Q 3713 922 3314 415 
Q 2916 -91 2278 -91 
Q 1894 -91 1617 61 
Q 1341 213 1159 525 
z
M 3116 1747 
Q 3116 2381 2855 2742 
Q 2594 3103 2138 3103 
Q 1681 3103 1420 2742 
Q 1159 2381 1159 1747 
Q 1159 1113 1420 752 
Q 1681 391 2138 391 
Q 2594 391 2855 752 
Q 3116 1113 3116 1747 
z
" id="DejaVuSans-70" transform="scale(0.015625)"/>
      </defs>
      <use xlink:href="#DejaVuSans-46"/>
      <use x="50.269531" xlink:href="#DejaVuSans-72"/>
      <use x="91.382812" xlink:href="#DejaVuSans-61"/>
      <use x="152.662109" xlink:href="#DejaVuSans-63"/>
      <use x="207.642578" xlink:href="#DejaVuSans-74"/>
      <use x="246.851562" xlink:href="#DejaVuSans-69"/>
      <use x="274.634766" xlink:href="#DejaVuSans-6f"/>
      <use x="335.816406" xlink:href="#DejaVuSans-6e"/>
      <use x="399.195312" xlink:href="#DejaVuSans-20"/>
      <use x="430.982422" xlink:href="#DejaVuSans-6f"/>
      <use x="492.164062" xlink:href="#DejaVuSans-66"/>
      <use x="527.369141" xlink:href="#DejaVuSans-20"/>
      <use x="559.15625" xlink:href="#DejaVuSans-66"/>
      <use x="594.361328" xlink:href="#DejaVuSans-75"/>
      <use x="657.740234" xlink:href="#DejaVuSans-6e"/>
      <use x="721.119141" xlink:href="#DejaVuSans-63"/>
      <use x="776.099609" xlink:href="#DejaVuSans-74"/>
      <use x="815.308594" xlink:href="#DejaVuSans-69"/>
      <use x="843.091797" xlink:href="#DejaVuSans-6f"/>
      <use x="904.273438" xlink:href="#DejaVuSans-6e"/>
      <use x="967.652344" xlink:href="#DejaVuSans-2c"/>
      <use x="999.439453" xlink:href="#DejaVuSans-74"/>
      <use x="1038.648438" xlink:href="#DejaVuSans-61"/>
      <use x="1099.927734" xlink:href="#DejaVuSans-72"/>
      <use x="1139.291016" xlink:href="#DejaVuSans-67"/>
      <use x="1202.767578" xlink:href="#DejaVuSans-65"/>
      <use x="1264.291016" xlink:href="#DejaVuSans-74"/>
      <use x="1303.5" xlink:href="#DejaVuSans-20"/>
      <use x="1335.287109" xlink:href="#DejaVuSans-70"/>
      <use x="1398.763672" xlink:href="#DejaVuSans-61"/>
      <use x="1460.042969" xlink:href="#DejaVuSans-69"/>
      <use x="1487.826172" xlink:href="#DejaVuSans-72"/>
      <use x="1528.939453" xlink:href="#DejaVuSans-73"/>
     </g>
    </g>
   </g>
   <g id="line2d_33">
    <defs>
     <path d="M 0 1.5 
C 0.397805 1.5 0.77937 1.341951 1.06066 1.06066 
C 1.341951 0.77937 1.5 0.397805 1.5 0 
C 1.5 -0.397805 1.341951 -0.77937 1.06066 -1.06066 
C 0.77937 -1.341951 0.397805 -1.5 0 -1.5 
C -0.397805 -1.5 -0.77937 -1.341951 -1.06066 -1.06066 
C -1.341951 -0.77937 -1.5 -0.397805 -1.5 0 
C -1.5 0.397805 -1.341951 0.77937 -1.06066 1.06066 
C -0.77937 1.341951 -0.397805 1.5 0 1.5 
z
" id="mc6d650dd2f" style="stroke:#f5deb3;"/>
    </defs>
    <g>
     <use style="fill:#f5deb3;stroke:#f5deb3;" x="132.80063" xlink:href="#mc6d650dd2f" y="30.334099"/>
     <use style="fill:#f5deb3;stroke:#f5deb3;" x="132.80063" xlink:href="#mc6d650dd2f" y="30.334099"/>
    </g>
   </g>
   <g id="line2d_34">
    <defs>
     <path d="M 0 1.5 
C 0.397805 1.5 0.77937 1.341951 1.06066 1.06066 
C 1.341951 0.77937 1.5 0.397805 1.5 0 
C 1.5 -0.397805 1.341951 -0.77937 1.06066 -1.06066 
C 0.77937 -1.341951 0.397805 -1.5 0 -1.5 
C -0.397805 -1.5 -0.77937 -1.341951 -1.06066 -1.06066 
C -1.341951 -0.77937 -1.5 -0.397805 -1.5 0 
C -1.5 0.397805 -1.341951 0.77937 -1.06066 1.06066 
C -0.77937 1.341951 -0.397805 1.5 0 1.5 
z
" id="mdf413e09af" style="stroke:#000080;"/>
    </defs>
    <g>
     <use style="fill:#000080;stroke:#000080;" x="175.533108" xlink:href="#mdf413e09af" y="30.334099"/>
     <use style="fill:#000080;stroke:#000080;" x="175.533108" xlink:href="#mdf413e09af" y="30.334099"/>
    </g>
   </g>
   <g id="line2d_35">
    <path d="M 29.53256 298.944 
L 29.53256 283.143418 
L 95.526106 283.143418 
L 95.526106 282.616732 
L 95.918017 282.616732 
L 95.918017 282.090045 
L 101.223245 282.090045 
L 101.223245 281.563359 
L 103.372333 281.563359 
L 103.372333 280.509987 
L 106.593963 280.509987 
L 106.593963 279.983301 
L 109.843417 279.983301 
L 109.843417 279.456615 
L 110.358901 279.456615 
L 110.358901 278.929929 
L 111.023335 278.929929 
L 111.023335 277.876557 
L 112.128456 277.876557 
L 112.128456 276.823185 
L 112.431755 276.823185 
L 112.431755 275.769812 
L 112.72987 275.769812 
L 112.72987 274.189754 
L 113.453595 274.189754 
L 113.453595 273.663068 
L 113.73488 273.663068 
L 113.73488 273.136382 
L 114.947365 273.136382 
L 114.947365 272.609696 
L 115.586238 272.609696 
L 115.586238 272.08301 
L 115.835374 272.08301 
L 115.835374 271.556324 
L 116.323218 271.556324 
L 116.323218 271.029638 
L 116.914437 271.029638 
L 116.914437 270.502952 
L 118.363901 270.502952 
L 118.363901 268.396207 
L 118.576578 268.396207 
L 118.681952 265.762777 
L 118.890808 265.762777 
L 118.890808 265.236091 
L 119.199476 265.236091 
L 119.301163 263.656033 
L 120.571812 263.656033 
L 120.571812 263.129347 
L 121.219499 263.129347 
L 121.219499 262.075974 
L 123.029641 262.075974 
L 123.029641 261.022602 
L 124.891598 261.022602 
L 124.891598 260.495916 
L 126.099688 260.495916 
L 126.099688 259.96923 
L 126.97016 259.96923 
L 126.97016 259.442544 
L 127.100304 259.442544 
L 127.100304 258.915858 
L 127.611382 258.915858 
L 127.611382 258.389172 
L 127.985095 258.389172 
L 127.985095 257.862486 
L 128.290519 257.862486 
L 128.290519 257.3358 
L 129.347769 257.3358 
L 129.347769 256.809114 
L 131.133813 256.809114 
L 131.133813 256.282427 
L 131.640805 256.282427 
L 131.640805 255.755741 
L 134.019394 255.755741 
L 134.106373 253.648997 
L 134.828688 253.648997 
L 134.828688 253.122311 
L 135.035562 253.122311 
L 135.035562 252.595625 
L 135.800036 252.595625 
L 135.800036 252.068939 
L 136.456742 252.068939 
L 136.456742 251.542253 
L 138.493936 251.542253 
L 138.493936 251.015567 
L 138.69516 251.015567 
L 138.761723 249.962195 
L 138.89409 249.962195 
L 138.89409 249.435508 
L 139.381706 249.435508 
L 139.381706 248.908822 
L 140.195896 248.908822 
L 140.195896 248.382136 
L 140.944478 248.382136 
L 140.944478 247.85545 
L 141.577657 247.85545 
L 141.634094 245.748706 
L 142.378651 245.748706 
L 142.378651 245.22202 
L 142.539878 245.22202 
L 142.566605 244.168648 
L 143.273169 244.168648 
L 143.273169 243.641962 
L 143.527762 243.641962 
L 143.527762 243.115275 
L 143.75376 243.115275 
L 143.75376 242.588589 
L 143.952218 242.588589 
L 143.952218 241.535217 
L 144.438701 241.535217 
L 144.486611 240.481845 
L 144.724207 240.481845 
L 144.724207 239.955159 
L 144.888619 239.955159 
L 144.888619 239.428473 
L 145.02832 239.428473 
L 145.120836 237.848415 
L 145.304409 237.848415 
L 145.304409 236.795043 
L 145.732804 236.795043 
L 145.732804 236.268356 
L 145.932112 236.268356 
L 145.976095 235.214984 
L 146.150926 235.214984 
L 146.194362 234.161612 
L 146.280909 234.161612 
L 146.280909 233.634926 
L 146.580487 233.634926 
L 146.622867 232.581554 
L 146.812312 232.581554 
L 146.812312 232.054868 
L 147.02042 232.054868 
L 147.02042 231.528182 
L 147.144103 231.528182 
L 147.144103 231.001496 
L 147.327999 231.001496 
L 147.429332 229.948123 
L 147.509976 229.948123 
L 147.61026 227.841379 
L 148.122637 227.841379 
L 148.122637 227.314693 
L 148.334961 227.314693 
L 148.373289 226.261321 
L 148.525764 226.261321 
L 148.525764 225.734635 
L 148.639252 225.734635 
L 148.733265 223.627891 
L 148.770728 223.627891 
L 148.770728 222.574518 
L 149.195872 222.574518 
L 149.232356 221.521146 
L 149.341352 221.521146 
L 149.341352 220.99446 
L 149.485628 220.99446 
L 149.557321 219.941088 
L 149.610898 219.941088 
L 149.628721 218.887716 
L 149.770648 218.887716 
L 149.788308 217.834344 
L 149.893895 217.834344 
L 149.893895 216.780971 
L 150.344189 216.780971 
L 150.344189 216.254285 
L 150.531253 216.254285 
L 150.615623 213.620855 
L 150.932558 213.620855 
L 150.998554 212.567483 
L 151.260066 212.567483 
L 151.260066 212.040797 
L 151.437608 212.040797 
L 151.453659 210.987425 
L 151.565603 210.987425 
L 151.62925 208.88068 
L 151.676833 208.88068 
L 151.676833 208.353994 
L 151.912822 208.353994 
L 151.975216 206.24725 
L 152.176471 206.24725 
L 152.207228 205.193878 
L 152.314453 205.193878 
L 152.329717 204.140506 
L 152.526944 204.140506 
L 152.617226 202.560447 
L 152.692105 202.560447 
L 152.751777 200.980389 
L 152.811246 200.980389 
L 152.914832 197.820273 
L 152.988446 197.820273 
L 153.061751 196.7669 
L 153.105587 196.7669 
L 153.149313 194.660156 
L 153.323128 194.660156 
L 153.395042 191.50004 
L 153.552218 191.50004 
L 153.566437 189.919981 
L 153.707991 189.919981 
L 153.778339 187.813237 
L 153.834414 187.813237 
L 153.890309 185.706493 
L 153.973817 185.706493 
L 154.029268 184.126434 
L 154.139643 184.126434 
L 154.208275 182.546376 
L 154.276638 182.546376 
L 154.385464 178.859574 
L 154.412564 178.859574 
L 154.520548 176.752829 
L 154.56087 176.752829 
L 154.641235 175.699457 
L 154.68128 175.699457 
L 154.77436 173.592713 
L 154.840544 173.592713 
L 154.880133 172.012655 
L 154.959044 172.012655 
L 155.063706 167.27248 
L 155.089774 167.27248 
L 155.180705 164.112363 
L 155.219531 164.112363 
L 155.28405 162.532305 
L 155.386785 162.532305 
L 155.476185 159.372189 
L 155.55245 159.372189 
L 155.590458 157.265444 
L 155.678822 157.265444 
L 155.779264 154.632014 
L 155.804285 154.632014 
L 155.86668 153.051956 
L 155.916435 153.051956 
L 156.003167 148.311781 
L 156.101764 148.311781 
L 156.212023 143.04492 
L 156.285144 143.04492 
L 156.382164 139.884804 
L 156.502685 139.884804 
L 156.502685 139.358118 
L 156.622378 139.358118 
L 156.693802 137.778059 
L 156.788581 137.778059 
L 156.894595 135.671315 
L 156.953214 135.671315 
L 157.011638 133.037885 
L 157.069866 133.037885 
L 157.162628 128.824396 
L 157.231877 128.824396 
L 157.323784 126.717652 
L 157.358125 126.717652 
L 157.426604 125.137593 
L 157.506157 125.137593 
L 157.528821 123.030849 
L 157.664184 123.030849 
L 157.765022 119.870733 
L 157.787352 119.870733 
L 157.876384 116.710616 
L 157.920731 116.710616 
L 157.998067 114.077186 
L 158.042106 114.077186 
L 158.118907 112.497128 
L 158.184468 112.497128 
L 158.293192 107.756953 
L 158.314856 107.756953 
L 158.412011 105.123522 
L 158.433528 105.123522 
L 158.540715 103.016778 
L 158.551397 103.016778 
L 158.657864 99.856662 
L 158.721434 99.856662 
L 158.826871 97.223231 
L 158.83738 97.223231 
L 158.921223 93.009743 
L 158.952561 93.009743 
L 159.025463 90.902998 
L 159.108409 90.902998 
L 159.16005 89.32294 
L 159.242359 89.32294 
L 159.293606 87.742882 
L 159.446449 87.742882 
L 159.527421 85.109451 
L 159.587904 85.109451 
L 159.688246 81.949335 
L 159.778062 81.949335 
L 159.847601 77.20916 
L 159.906985 77.20916 
L 160.005512 74.049044 
L 160.132771 74.049044 
L 160.220333 72.468985 
L 160.278464 72.468985 
L 160.384537 68.782183 
L 160.518612 68.782183 
L 160.613753 67.728811 
L 160.651664 67.728811 
L 160.651664 67.202125 
L 160.783709 67.202125 
L 160.783709 66.675439 
L 161.035578 66.675439 
L 161.035578 66.148752 
L 161.283861 66.148752 
L 161.283861 65.622066 
L 161.465522 65.622066 
L 161.465522 65.09538 
L 161.618459 65.09538 
L 161.618459 64.568694 
L 161.92917 64.568694 
L 161.92917 63.515322 
L 162.329291 63.515322 
L 162.329291 62.988636 
L 162.440724 62.988636 
L 162.440724 62.46195 
L 163.339941 62.46195 
L 163.339941 61.935264 
L 163.977355 61.935264 
L 163.977355 61.408578 
L 164.780093 61.408578 
L 164.780093 60.881892 
L 165.200871 60.881892 
L 165.200871 60.355206 
L 165.447111 60.355206 
L 165.447111 59.82852 
L 166.520851 59.82852 
L 166.520851 59.301833 
L 167.346259 59.301833 
L 167.346259 58.775147 
L 168.208177 58.775147 
L 168.238843 57.721775 
L 168.554604 57.721775 
L 168.554604 57.195089 
L 168.722291 57.195089 
L 168.78179 56.141717 
L 169.560096 56.141717 
L 169.560096 55.615031 
L 169.71843 55.615031 
L 169.740933 54.561659 
L 170.080543 54.561659 
L 170.080543 54.034973 
L 170.228776 54.034973 
L 170.228776 53.508287 
L 170.35949 53.508287 
L 170.402844 52.454914 
L 170.521516 52.454914 
L 170.548375 50.874856 
L 170.671394 50.874856 
L 170.671394 50.34817 
L 170.925369 50.34817 
L 171.03533 48.241426 
L 171.118647 48.241426 
L 171.2274 47.188054 
L 171.645677 47.188054 
L 171.645677 46.661368 
L 171.841148 46.661368 
L 171.900854 45.081309 
L 172.103323 45.081309 
L 172.191475 42.974565 
L 172.48694 42.974565 
L 172.520528 41.394507 
L 172.687503 41.394507 
L 172.687503 40.867821 
L 172.9233 40.867821 
L 172.9233 40.341135 
L 173.08184 40.341135 
L 173.14208 39.287762 
L 173.697489 39.287762 
L 173.697489 38.761076 
L 173.933369 38.761076 
L 173.933369 38.23439 
L 174.13554 38.23439 
L 174.18354 37.181018 
L 174.339714 37.181018 
L 174.339714 34.547588 
L 174.626698 34.547588 
L 174.626698 34.020902 
L 174.988278 34.020902 
L 174.988278 32.967529 
L 175.120928 32.967529 
L 175.219758 31.387471 
L 175.350666 31.387471 
L 175.350666 30.860785 
L 175.533108 30.860785 
L 175.533108 30.334099 
L 338.688 30.334099 
L 338.688 30.334099 
" style="fill:none;stroke:#000080;stroke-linecap:square;stroke-width:1.5;"/>
   </g>
   <g id="line2d_36">
    <defs>
     <path d="M 0 6 
C 1.591219 6 3.117479 5.367802 4.242641 4.242641 
C 5.367802 3.117479 6 1.591219 6 0 
C 6 -1.591219 5.367802 -3.117479 4.242641 -4.242641 
C 3.117479 -5.367802 1.591219 -6 0 -6 
C -1.591219 -6 -3.117479 -5.367802 -4.242641 -4.242641 
C -5.367802 -3.117479 -6 -1.591219 -6 0 
C -6 1.591219 -5.367802 3.117479 -4.242641 4.242641 
C -3.117479 5.367802 -1.591219 6 0 6 
z
" id="m719fa87915" style="stroke:#000080;stroke-width:1.5;"/>
    </defs>
    <g>
     <use style="fill-opacity:0;stroke:#000080;stroke-width:1.5;" x="112.431755" xlink:href="#m719fa87915" y="276.823185"/>
     <use style="fill-opacity:0;stroke:#000080;stroke-width:1.5;" x="157.709073" xlink:href="#m719fa87915" y="122.504163"/>
     <use style="fill-opacity:0;stroke:#000080;stroke-width:1.5;" x="175.533108" xlink:href="#m719fa87915" y="30.860785"/>
     <use style="fill-opacity:0;stroke:#000080;stroke-width:1.5;" x="175.533108" xlink:href="#m719fa87915" y="30.334099"/>
     <use style="fill-opacity:0;stroke:#000080;stroke-width:1.5;" x="175.533108" xlink:href="#m719fa87915" y="30.334099"/>
     <use style="fill-opacity:0;stroke:#000080;stroke-width:1.5;" x="338.688" xlink:href="#m719fa87915" y="30.334099"/>
    </g>
   </g>
   <g id="line2d_37">
    <path style="fill:none;stroke:#000080;stroke-linecap:square;stroke-width:1.5;"/>
    <g/>
   </g>
   <g id="line2d_38">
    <defs>
     <path d="M 0 1.5 
C 0.397805 1.5 0.77937 1.341951 1.06066 1.06066 
C 1.341951 0.77937 1.5 0.397805 1.5 0 
C 1.5 -0.397805 1.341951 -0.77937 1.06066 -1.06066 
C 0.77937 -1.341951 0.397805 -1.5 0 -1.5 
C -0.397805 -1.5 -0.77937 -1.341951 -1.06066 -1.06066 
C -1.341951 -0.77937 -1.5 -0.397805 -1.5 0 
C -1.5 0.397805 -1.341951 0.77937 -1.06066 1.06066 
C -0.77937 1.341951 -0.397805 1.5 0 1.5 
z
" id="me89cdcc0cc" style="stroke:#ff00ff;"/>
    </defs>
    <g>
     <use style="fill:#ff00ff;stroke:#ff00ff;" x="159.004665" xlink:href="#me89cdcc0cc" y="30.334099"/>
     <use style="fill:#ff00ff;stroke:#ff00ff;" x="159.004665" xlink:href="#me89cdcc0cc" y="30.334099"/>
    </g>
   </g>
   <g id="line2d_39">
    <path d="M 29.53256 298.944 
L 29.53256 283.143418 
L 108.389302 283.143418 
L 108.389302 282.090045 
L 111.505558 282.090045 
L 111.505558 279.456615 
L 112.877038 279.456615 
L 112.877038 277.876557 
L 114.148479 277.876557 
L 114.148479 276.823185 
L 115.33349 276.823185 
L 115.33349 274.189754 
L 116.443076 274.189754 
L 116.443076 272.08301 
L 118.039942 272.08301 
L 118.039942 271.029638 
L 118.363901 271.029638 
L 118.470564 266.816149 
L 119.199476 266.816149 
L 119.301163 265.762777 
L 119.40226 265.762777 
L 119.40226 264.182719 
L 119.602714 264.182719 
L 119.602714 263.656033 
L 120.286695 263.656033 
L 120.286695 263.129347 
L 120.944859 263.129347 
L 120.944859 262.60266 
L 121.931406 262.60266 
L 121.931406 262.075974 
L 122.699028 262.075974 
L 122.699028 261.549288 
L 124.817858 261.549288 
L 124.817858 261.022602 
L 125.470548 261.022602 
L 125.470548 260.495916 
L 126.099688 260.495916 
L 126.099688 259.96923 
L 126.236468 259.96923 
L 126.236468 259.442544 
L 126.70692 259.442544 
L 126.70692 258.915858 
L 127.229484 258.915858 
L 127.229484 258.389172 
L 128.411207 258.389172 
L 128.411207 257.3358 
L 129.46138 257.3358 
L 129.46138 256.809114 
L 130.290663 256.809114 
L 130.290663 256.282427 
L 130.926816 256.282427 
L 130.926816 255.755741 
L 131.839545 255.755741 
L 131.839545 255.229055 
L 131.987128 255.229055 
L 131.987128 254.702369 
L 133.124876 254.702369 
L 133.124876 254.175683 
L 133.352844 254.175683 
L 133.352844 253.648997 
L 134.321942 253.648997 
L 134.321942 253.122311 
L 134.703375 253.122311 
L 134.703375 252.595625 
L 136.494612 252.595625 
L 136.494612 252.068939 
L 137.162581 252.068939 
L 137.271464 250.488881 
L 138.290362 250.488881 
L 138.290362 249.962195 
L 139.123342 249.962195 
L 139.123342 249.435508 
L 139.253002 249.435508 
L 139.253002 248.908822 
L 139.793552 248.908822 
L 139.793552 247.85545 
L 140.317849 247.85545 
L 140.317849 247.328764 
L 140.438956 247.328764 
L 140.529237 245.748706 
L 140.708409 245.748706 
L 140.708409 245.22202 
L 140.973763 245.22202 
L 140.973763 244.695334 
L 141.235139 244.695334 
L 141.235139 244.168648 
L 141.492656 244.168648 
L 141.492656 243.115275 
L 141.996555 243.115275 
L 141.996555 242.588589 
L 142.243147 242.588589 
L 142.243147 242.061903 
L 142.726112 242.061903 
L 142.726112 241.535217 
L 142.936543 241.535217 
L 142.962669 240.481845 
L 143.11861 240.481845 
L 143.11861 239.955159 
L 143.273169 239.955159 
L 143.375453 238.901787 
L 143.40093 238.901787 
L 143.40093 238.375101 
L 143.553018 238.375101 
L 143.553018 237.848415 
L 143.87806 237.848415 
L 143.927534 236.795043 
L 144.124035 236.795043 
L 144.124035 236.268356 
L 144.318346 236.268356 
L 144.318346 235.74167 
L 144.53439 235.74167 
L 144.53439 234.688298 
L 144.724207 234.688298 
L 144.724207 234.161612 
L 144.958609 234.161612 
L 144.958609 233.10824 
L 145.166911 233.10824 
L 145.166911 232.581554 
L 145.372754 232.581554 
L 145.372754 232.054868 
L 145.576196 232.054868 
L 145.576196 231.528182 
L 145.755062 231.528182 
L 145.755062 231.001496 
L 145.976095 231.001496 
L 146.019967 229.421437 
L 146.172658 229.421437 
L 146.172658 228.894751 
L 146.367029 228.894751 
L 146.452726 226.788007 
L 146.60169 226.788007 
L 146.60169 226.261321 
L 146.749392 226.261321 
L 146.77039 225.207949 
L 146.916676 225.207949 
L 146.937474 223.627891 
L 147.12355 223.627891 
L 147.12355 223.101204 
L 147.307662 223.101204 
L 147.409112 222.047832 
L 147.48985 222.047832 
L 147.590249 220.467774 
L 147.61026 220.467774 
L 147.670154 218.887716 
L 147.96658 218.887716 
L 147.96658 218.36103 
L 148.161434 218.36103 
L 148.161434 217.834344 
L 148.373289 217.834344 
L 148.373289 217.307658 
L 148.48777 217.307658 
L 148.54473 215.727599 
L 148.658095 215.727599 
L 148.733265 214.147541 
L 148.826773 214.147541 
L 148.882639 213.094169 
L 149.085961 213.094169 
L 149.141003 212.040797 
L 149.214124 212.040797 
L 149.323233 210.987425 
L 149.377533 210.987425 
L 149.467659 209.407366 
L 149.521512 209.407366 
L 149.521512 208.88068 
L 149.664311 208.88068 
L 149.699829 207.300622 
L 149.85877 207.300622 
L 149.85877 206.24725 
L 150.016276 206.24725 
L 150.103169 203.087133 
L 150.327083 203.087133 
L 150.361278 202.033761 
L 150.463462 202.033761 
L 150.480434 200.453703 
L 150.632448 200.453703 
L 150.699587 197.820273 
L 150.783149 197.820273 
L 150.833094 195.713528 
L 150.91602 195.713528 
L 150.932558 193.606784 
L 151.047887 193.606784 
L 151.080698 192.553412 
L 151.227591 192.553412 
L 151.243836 189.919981 
L 151.373256 189.919981 
L 151.373256 188.866609 
L 151.517715 188.866609 
L 151.517715 186.759865 
L 151.660987 186.759865 
L 151.771612 184.126434 
L 151.803091 184.126434 
L 151.881541 182.546376 
L 152.083873 182.546376 
L 152.09934 180.966318 
L 152.222586 180.966318 
L 152.222586 180.439632 
L 152.360205 180.439632 
L 152.360205 176.752829 
L 152.496747 176.752829 
L 152.55709 174.646085 
L 152.632227 174.646085 
L 152.677155 171.485969 
L 152.766663 171.485969 
L 152.766663 169.90591 
L 152.885298 169.90591 
L 152.900071 166.745794 
L 153.032466 166.745794 
L 153.032466 165.165736 
L 153.163864 165.165736 
L 153.163864 161.478933 
L 153.294279 161.478933 
L 153.294279 157.79213 
L 153.423725 157.79213 
L 153.423725 155.685386 
L 153.552218 155.685386 
L 153.609024 151.998584 
L 153.679772 151.998584 
L 153.679772 147.258409 
L 153.806399 147.258409 
L 153.834414 144.624978 
L 153.932113 144.624978 
L 153.973817 141.991548 
L 154.056927 141.991548 
L 154.056927 140.41149 
L 154.180855 140.41149 
L 154.180855 133.564571 
L 154.303908 133.564571 
L 154.399019 129.351082 
L 154.426099 129.351082 
L 154.426099 126.717652 
L 154.547439 126.717652 
L 154.601099 123.557535 
L 154.667942 123.557535 
L 154.761093 119.870733 
L 154.787617 119.870733 
L 154.787617 116.18393 
L 154.906477 116.18393 
L 154.959044 110.390383 
L 155.024532 110.390383 
L 155.024532 108.810325 
L 155.141793 108.810325 
L 155.141793 105.650209 
L 155.258271 105.650209 
L 155.258271 103.543464 
L 155.373976 103.543464 
L 155.399584 97.223231 
L 155.488919 97.223231 
L 155.488919 92.483056 
L 155.603109 92.483056 
L 155.603109 88.269568 
L 155.716556 88.269568 
L 155.716556 84.582765 
L 155.82927 84.582765 
L 155.82927 80.895963 
L 155.94126 80.895963 
L 155.94126 77.735846 
L 156.052535 77.735846 
L 156.163105 72.995672 
L 156.272978 72.995672 
L 156.382164 63.515322 
L 156.49067 63.515322 
L 156.598505 58.775147 
L 156.705677 58.775147 
L 156.812195 55.088345 
L 156.918066 55.088345 
L 157.023299 50.874856 
L 157.1279 50.874856 
L 157.231877 46.661368 
L 157.335239 46.661368 
L 157.437991 43.501251 
L 157.540141 43.501251 
L 157.641697 40.867821 
L 157.742664 40.867821 
L 157.84305 37.707704 
L 157.942862 37.707704 
L 157.942862 37.181018 
L 158.238915 37.181018 
L 158.238915 35.074274 
L 158.433528 35.074274 
L 158.433528 34.020902 
L 158.625992 34.020902 
L 158.721434 32.440843 
L 158.910765 32.440843 
L 159.004665 30.334099 
L 338.688 30.334099 
L 338.688 30.334099 
" style="fill:none;stroke:#ff00ff;stroke-linecap:square;stroke-width:1.5;"/>
   </g>
   <g id="line2d_40">
    <defs>
     <path d="M 0 8.485281 
L 5.091169 0 
L 0 -8.485281 
L -5.091169 0 
z
" id="me1dff0c438" style="stroke:#ff00ff;stroke-linejoin:miter;stroke-width:1.5;"/>
    </defs>
    <g>
     <use style="fill-opacity:0;stroke:#ff00ff;stroke-linejoin:miter;stroke-width:1.5;" x="153.932113" xlink:href="#me1dff0c438" y="142.518234"/>
     <use style="fill-opacity:0;stroke:#ff00ff;stroke-linejoin:miter;stroke-width:1.5;" x="159.004665" xlink:href="#me1dff0c438" y="31.387471"/>
     <use style="fill-opacity:0;stroke:#ff00ff;stroke-linejoin:miter;stroke-width:1.5;" x="159.004665" xlink:href="#me1dff0c438" y="30.334099"/>
     <use style="fill-opacity:0;stroke:#ff00ff;stroke-linejoin:miter;stroke-width:1.5;" x="159.004665" xlink:href="#me1dff0c438" y="30.334099"/>
     <use style="fill-opacity:0;stroke:#ff00ff;stroke-linejoin:miter;stroke-width:1.5;" x="338.688" xlink:href="#me1dff0c438" y="30.334099"/>
    </g>
   </g>
   <g id="line2d_41">
    <path style="fill:none;stroke:#ff00ff;stroke-linecap:square;stroke-width:1.5;"/>
    <g/>
   </g>
   <g id="line2d_42">
    <defs>
     <path d="M 0 1.5 
C 0.397805 1.5 0.77937 1.341951 1.06066 1.06066 
C 1.341951 0.77937 1.5 0.397805 1.5 0 
C 1.5 -0.397805 1.341951 -0.77937 1.06066 -1.06066 
C 0.77937 -1.341951 0.397805 -1.5 0 -1.5 
C -0.397805 -1.5 -0.77937 -1.341951 -1.06066 -1.06066 
C -1.341951 -0.77937 -1.5 -0.397805 -1.5 0 
C -1.5 0.397805 -1.341951 0.77937 -1.06066 1.06066 
C -0.77937 1.341951 -0.397805 1.5 0 1.5 
z
" id="m423bc51f49" style="stroke:#ff7500;"/>
    </defs>
    <g>
     <use style="fill:#ff7500;stroke:#ff7500;" x="120.665825" xlink:href="#m423bc51f49" y="30.334099"/>
     <use style="fill:#ff7500;stroke:#ff7500;" x="120.665825" xlink:href="#m423bc51f49" y="30.334099"/>
    </g>
   </g>
   <g id="line2d_43">
    <path d="M 29.53256 298.944 
L 29.53256 283.143418 
L 72.867545 283.143418 
L 72.867545 272.609696 
L 83.438118 272.609696 
L 83.438118 256.809114 
L 94.714831 256.809114 
L 94.714831 251.542253 
L 98.100772 251.542253 
L 98.100772 246.275392 
L 100.343767 246.275392 
L 100.343767 241.008531 
L 102.330873 241.008531 
L 102.330873 235.74167 
L 107.213174 235.74167 
L 107.213174 230.47481 
L 108.577836 230.47481 
L 108.577836 225.207949 
L 109.843417 225.207949 
L 109.843417 219.941088 
L 112.280765 219.941088 
L 112.280765 214.674227 
L 113.311233 214.674227 
L 113.311233 209.407366 
L 114.284194 209.407366 
L 114.284194 204.140506 
L 115.33349 204.140506 
L 115.33349 193.606784 
L 116.202531 193.606784 
L 116.202531 187.813237 
L 117.030313 187.813237 
L 117.030313 172.539341 
L 117.820578 172.539341 
L 117.820578 151.471897 
L 118.576578 151.471897 
L 118.576578 130.404454 
L 119.301163 130.404454 
L 119.301163 109.337011 
L 119.996839 109.337011 
L 119.996839 72.468985 
L 120.665825 72.468985 
L 120.665825 30.334099 
L 338.688 30.334099 
" style="fill:none;stroke:#ff7500;stroke-linecap:square;stroke-width:1.5;"/>
   </g>
   <g id="line2d_44">
    <defs>
     <path d="M 0 -6 
L -1.347084 -1.854102 
L -5.706339 -1.854102 
L -2.179628 0.708204 
L -3.526712 4.854102 
L -0 2.291796 
L 3.526712 4.854102 
L 2.179628 0.708204 
L 5.706339 -1.854102 
L 1.347084 -1.854102 
z
" id="m516b347752" style="stroke:#ff7500;stroke-linejoin:bevel;stroke-width:1.5;"/>
    </defs>
    <g>
     <use style="fill-opacity:0;stroke:#ff7500;stroke-linejoin:bevel;stroke-width:1.5;" x="72.867545" xlink:href="#m516b347752" y="272.609696"/>
     <use style="fill-opacity:0;stroke:#ff7500;stroke-linejoin:bevel;stroke-width:1.5;" x="117.820578" xlink:href="#m516b347752" y="172.539341"/>
     <use style="fill-opacity:0;stroke:#ff7500;stroke-linejoin:bevel;stroke-width:1.5;" x="120.665825" xlink:href="#m516b347752" y="72.468985"/>
     <use style="fill-opacity:0;stroke:#ff7500;stroke-linejoin:bevel;stroke-width:1.5;" x="120.665825" xlink:href="#m516b347752" y="30.334099"/>
     <use style="fill-opacity:0;stroke:#ff7500;stroke-linejoin:bevel;stroke-width:1.5;" x="120.665825" xlink:href="#m516b347752" y="30.334099"/>
     <use style="fill-opacity:0;stroke:#ff7500;stroke-linejoin:bevel;stroke-width:1.5;" x="338.688" xlink:href="#m516b347752" y="30.334099"/>
    </g>
   </g>
   <g id="line2d_45">
    <path style="fill:none;stroke:#ff7500;stroke-linecap:square;stroke-width:1.5;"/>
    <g/>
   </g>
   <g id="line2d_46">
    <defs>
     <path d="M 0 1.5 
C 0.397805 1.5 0.77937 1.341951 1.06066 1.06066 
C 1.341951 0.77937 1.5 0.397805 1.5 0 
C 1.5 -0.397805 1.341951 -0.77937 1.06066 -1.06066 
C 0.77937 -1.341951 0.397805 -1.5 0 -1.5 
C -0.397805 -1.5 -0.77937 -1.341951 -1.06066 -1.06066 
C -1.341951 -0.77937 -1.5 -0.397805 -1.5 0 
C -1.5 0.397805 -1.341951 0.77937 -1.06066 1.06066 
C -0.77937 1.341951 -0.397805 1.5 0 1.5 
z
" id="m141b562020" style="stroke:#6495ed;"/>
    </defs>
    <g>
     <use style="fill:#6495ed;stroke:#6495ed;" x="120.665825" xlink:href="#m141b562020" y="30.334099"/>
     <use style="fill:#6495ed;stroke:#6495ed;" x="120.665825" xlink:href="#m141b562020" y="30.334099"/>
    </g>
   </g>
   <g id="line2d_47">
    <path d="M 29.53256 298.944 
L 29.53256 283.143418 
L 72.867545 283.143418 
L 72.867545 272.609696 
L 83.438118 272.609696 
L 83.438118 256.809114 
L 94.714831 256.809114 
L 94.714831 251.542253 
L 98.100772 251.542253 
L 98.100772 246.275392 
L 100.343767 246.275392 
L 100.343767 241.008531 
L 102.330873 241.008531 
L 102.330873 235.74167 
L 107.213174 235.74167 
L 107.213174 230.47481 
L 108.577836 230.47481 
L 108.577836 225.207949 
L 109.843417 225.207949 
L 109.843417 219.941088 
L 112.280765 219.941088 
L 112.280765 214.674227 
L 113.311233 214.674227 
L 113.311233 209.407366 
L 114.284194 209.407366 
L 114.284194 204.140506 
L 115.33349 204.140506 
L 115.33349 193.606784 
L 116.202531 193.606784 
L 116.202531 188.339923 
L 117.030313 188.339923 
L 117.030313 172.539341 
L 117.820578 172.539341 
L 117.820578 151.471897 
L 118.576578 151.471897 
L 118.576578 130.404454 
L 119.301163 130.404454 
L 119.301163 109.337011 
L 119.996839 109.337011 
L 119.996839 72.468985 
L 120.665825 72.468985 
L 120.665825 30.334099 
L 338.688 30.334099 
" style="fill:none;stroke:#6495ed;stroke-linecap:square;stroke-width:1.5;"/>
   </g>
   <g id="line2d_48">
    <defs>
     <path d="M -0 6 
L 6 -6 
L -6 -6 
z
" id="mf7e797eb61" style="stroke:#6495ed;stroke-linejoin:miter;stroke-width:1.5;"/>
    </defs>
    <g>
     <use style="fill-opacity:0;stroke:#6495ed;stroke-linejoin:miter;stroke-width:1.5;" x="83.438118" xlink:href="#mf7e797eb61" y="272.609696"/>
     <use style="fill-opacity:0;stroke:#6495ed;stroke-linejoin:miter;stroke-width:1.5;" x="118.576578" xlink:href="#mf7e797eb61" y="130.404454"/>
     <use style="fill-opacity:0;stroke:#6495ed;stroke-linejoin:miter;stroke-width:1.5;" x="120.665825" xlink:href="#mf7e797eb61" y="72.468985"/>
     <use style="fill-opacity:0;stroke:#6495ed;stroke-linejoin:miter;stroke-width:1.5;" x="120.665825" xlink:href="#mf7e797eb61" y="30.334099"/>
     <use style="fill-opacity:0;stroke:#6495ed;stroke-linejoin:miter;stroke-width:1.5;" x="120.665825" xlink:href="#mf7e797eb61" y="30.334099"/>
     <use style="fill-opacity:0;stroke:#6495ed;stroke-linejoin:miter;stroke-width:1.5;" x="338.688" xlink:href="#mf7e797eb61" y="30.334099"/>
    </g>
   </g>
   <g id="line2d_49">
    <path style="fill:none;stroke:#6495ed;stroke-linecap:square;stroke-width:1.5;"/>
    <g/>
   </g>
   <g id="line2d_50">
    <defs>
     <path d="M 0 1.5 
C 0.397805 1.5 0.77937 1.341951 1.06066 1.06066 
C 1.341951 0.77937 1.5 0.397805 1.5 0 
C 1.5 -0.397805 1.341951 -0.77937 1.06066 -1.06066 
C 0.77937 -1.341951 0.397805 -1.5 0 -1.5 
C -0.397805 -1.5 -0.77937 -1.341951 -1.06066 -1.06066 
C -1.341951 -0.77937 -1.5 -0.397805 -1.5 0 
C -1.5 0.397805 -1.341951 0.77937 -1.06066 1.06066 
C -0.77937 1.341951 -0.397805 1.5 0 1.5 
z
" id="m3a8e0a11de" style="stroke:#ff0000;"/>
    </defs>
    <g>
     <use style="fill:#ff0000;stroke:#ff0000;" x="154.290278" xlink:href="#m3a8e0a11de" y="30.334099"/>
     <use style="fill:#ff0000;stroke:#ff0000;" x="154.290278" xlink:href="#m3a8e0a11de" y="30.334099"/>
    </g>
   </g>
   <g id="line2d_51">
    <path d="M 29.53256 298.944 
L 29.53256 283.143418 
L 83.438118 283.143418 
L 83.438118 282.616732 
L 94.714831 282.616732 
L 94.714831 281.563359 
L 98.100772 281.563359 
L 98.100772 280.509987 
L 98.771596 280.509987 
L 98.771596 279.456615 
L 99.731799 279.456615 
L 99.731799 278.403243 
L 100.641881 278.403243 
L 100.641881 276.823185 
L 100.934985 276.823185 
L 100.934985 275.769812 
L 102.060491 275.769812 
L 102.060491 274.71644 
L 103.372333 274.71644 
L 103.372333 274.189754 
L 103.623262 274.189754 
L 103.623262 273.663068 
L 104.592361 273.663068 
L 104.592361 273.136382 
L 105.732589 273.136382 
L 105.732589 272.609696 
L 106.593963 272.609696 
L 106.593963 270.502952 
L 107.213174 270.502952 
L 107.213174 269.449579 
L 107.414787 269.449579 
L 107.414787 268.922893 
L 108.764355 268.922893 
L 108.764355 267.342835 
L 108.948899 267.342835 
L 108.948899 266.816149 
L 109.31223 266.816149 
L 109.31223 265.762777 
L 110.527398 265.762777 
L 110.527398 264.709405 
L 110.694282 264.709405 
L 110.694282 264.182719 
L 111.505558 264.182719 
L 111.505558 263.656033 
L 111.663381 263.656033 
L 111.663381 263.129347 
L 111.819788 263.129347 
L 111.819788 262.075974 
L 111.974805 262.075974 
L 111.974805 261.549288 
L 112.128456 261.549288 
L 112.128456 260.495916 
L 112.431755 260.495916 
L 112.431755 258.389172 
L 112.72987 258.389172 
L 112.72987 257.862486 
L 113.022974 257.862486 
L 113.022974 256.282427 
L 113.167699 256.282427 
L 113.167699 255.755741 
L 113.73488 255.755741 
L 113.73488 255.229055 
L 113.873839 255.229055 
L 113.873839 254.702369 
L 114.148479 254.702369 
L 114.148479 254.175683 
L 114.552496 254.175683 
L 114.552496 253.648997 
L 114.816733 253.648997 
L 114.816733 253.122311 
L 115.077025 253.122311 
L 115.077025 252.595625 
L 115.460322 252.595625 
L 115.460322 251.542253 
L 115.586238 251.542253 
L 115.586238 251.015567 
L 115.835374 251.015567 
L 115.835374 249.962195 
L 115.958621 249.962195 
L 115.958621 249.435508 
L 116.562116 249.435508 
L 116.562116 248.908822 
L 116.797786 248.908822 
L 116.797786 248.382136 
L 117.373392 248.382136 
L 117.373392 247.85545 
L 117.486268 247.85545 
L 117.486268 246.802078 
L 117.820578 246.802078 
L 117.820578 246.275392 
L 118.039942 246.275392 
L 118.039942 245.748706 
L 118.256582 245.748706 
L 118.256582 245.22202 
L 118.994305 245.22202 
L 118.994305 244.695334 
L 119.502775 244.695334 
L 119.502775 244.168648 
L 119.996839 244.168648 
L 120.093994 243.115275 
L 120.190611 243.115275 
L 120.190611 242.588589 
L 120.571812 242.588589 
L 120.571812 241.535217 
L 120.852343 241.535217 
L 120.852343 240.481845 
L 121.036887 240.481845 
L 121.036887 239.955159 
L 121.310093 239.955159 
L 121.310093 239.428473 
L 121.489881 239.428473 
L 121.489881 238.901787 
L 121.756135 238.901787 
L 121.756135 238.375101 
L 122.104932 238.375101 
L 122.104932 237.848415 
L 122.276749 237.848415 
L 122.362027 235.74167 
L 122.531342 235.74167 
L 122.531342 235.214984 
L 122.782271 235.214984 
L 122.865118 234.161612 
L 123.273551 234.161612 
L 123.354102 232.581554 
L 123.514096 232.581554 
L 123.593547 231.528182 
L 123.751369 231.528182 
L 123.829748 230.47481 
L 124.062793 230.47481 
L 124.139788 228.368065 
L 124.216444 228.368065 
L 124.292765 226.788007 
L 124.368753 226.788007 
L 124.444412 225.734635 
L 124.594752 225.734635 
L 124.594752 224.681263 
L 124.743806 224.681263 
L 124.817858 223.101204 
L 124.891598 223.101204 
L 124.965026 220.99446 
L 125.038147 220.99446 
L 125.110962 218.887716 
L 125.183475 218.887716 
L 125.183475 218.36103 
L 125.327602 218.36103 
L 125.399222 217.307658 
L 125.470548 217.307658 
L 125.541584 216.254285 
L 125.612332 216.254285 
L 125.682793 213.620855 
L 125.752972 213.620855 
L 125.752972 212.040797 
L 125.892487 212.040797 
L 125.892487 211.514111 
L 126.168212 211.514111 
L 126.236468 207.827308 
L 126.372183 207.827308 
L 126.439646 205.720564 
L 126.50685 205.720564 
L 126.573795 204.667192 
L 126.640485 204.667192 
L 126.70692 202.033761 
L 126.773103 202.033761 
L 126.839037 199.927017 
L 126.904721 199.927017 
L 126.97016 197.820273 
L 127.035353 197.820273 
L 127.100304 194.13347 
L 127.165014 194.13347 
L 127.229484 192.553412 
L 127.293718 192.553412 
L 127.293718 190.973354 
L 127.421479 190.973354 
L 127.48501 187.813237 
L 127.54831 187.813237 
L 127.611382 185.179807 
L 127.674226 185.179807 
L 127.736845 180.966318 
L 127.799239 180.966318 
L 127.861412 179.912946 
L 127.923363 179.912946 
L 127.985095 176.752829 
L 128.046609 176.752829 
L 128.046609 174.646085 
L 128.168991 174.646085 
L 128.229861 172.012655 
L 128.290519 172.012655 
L 128.350967 169.90591 
L 128.411207 169.90591 
L 128.471239 167.799166 
L 128.531065 167.799166 
L 128.590686 163.058991 
L 128.650105 163.058991 
L 128.709321 158.845503 
L 128.768338 158.845503 
L 128.827155 155.685386 
L 128.885774 155.685386 
L 128.885774 155.1587 
L 129.002426 155.1587 
L 129.06046 152.52527 
L 129.118302 152.52527 
L 129.175952 147.785095 
L 129.233413 147.785095 
L 129.290685 145.151665 
L 129.347769 145.151665 
L 129.347769 144.098292 
L 129.46138 144.098292 
L 129.51791 142.518234 
L 129.574256 142.518234 
L 129.630422 140.938176 
L 129.686407 140.938176 
L 129.742212 138.831432 
L 129.79784 138.831432 
L 129.908566 131.984513 
L 129.963666 131.984513 
L 130.073348 128.29771 
L 130.127931 128.29771 
L 130.236587 126.190966 
L 130.344571 126.190966 
L 130.45189 125.137593 
L 130.558552 125.137593 
L 130.664567 122.504163 
L 130.76994 122.504163 
L 130.822389 119.870733 
L 130.926816 119.870733 
L 131.030622 115.130558 
L 131.082294 115.130558 
L 131.082294 114.077186 
L 131.236397 114.077186 
L 131.338382 112.497128 
L 131.439773 112.497128 
L 131.540579 108.810325 
L 131.590764 108.810325 
L 131.590764 107.230267 
L 131.740458 107.230267 
L 131.839545 103.543464 
L 131.987128 103.543464 
L 131.987128 101.43672 
L 132.133473 101.43672 
L 132.230358 98.276603 
L 132.278599 98.276603 
L 132.278599 97.749917 
L 132.422528 97.749917 
L 132.517825 94.589801 
L 132.659801 94.589801 
L 132.753813 92.483056 
L 132.847322 92.483056 
L 132.847322 91.95637 
L 133.170708 91.95637 
L 133.170708 90.902998 
L 133.307488 90.902998 
L 133.398082 89.32294 
L 133.488207 89.32294 
L 133.533096 88.269568 
L 133.667073 88.269568 
L 133.755823 86.162824 
L 133.844123 86.162824 
L 133.931979 84.056079 
L 134.019394 84.056079 
L 134.062938 81.422649 
L 134.149701 81.422649 
L 134.236034 77.735846 
L 134.279041 77.735846 
L 134.279041 77.20916 
L 134.450015 77.20916 
L 134.534878 74.049044 
L 134.577155 74.049044 
L 134.61933 71.415613 
L 134.703375 71.415613 
L 134.787017 66.148752 
L 134.870259 66.148752 
L 134.870259 64.568694 
L 135.240011 64.568694 
L 135.321124 62.988636 
L 135.44209 62.988636 
L 135.44209 61.935264 
L 135.839358 61.935264 
L 135.839358 61.408578 
L 147.61026 61.408578 
L 147.61026 60.881892 
L 148.083753 60.881892 
L 148.083753 60.355206 
L 148.676918 60.355206 
L 148.676918 59.82852 
L 149.214124 59.82852 
L 149.214124 59.301833 
L 149.593058 59.301833 
L 149.593058 58.775147 
L 150.016276 58.775147 
L 150.016276 58.248461 
L 150.18963 58.248461 
L 150.18963 57.721775 
L 150.412445 57.721775 
L 150.412445 57.195089 
L 150.581924 57.195089 
L 150.682827 56.141717 
L 150.816462 56.141717 
L 150.91602 54.034973 
L 151.097081 54.034973 
L 151.195055 51.928228 
L 151.21133 51.928228 
L 151.308666 49.821484 
L 151.324836 49.821484 
L 151.389366 47.71474 
L 151.453659 47.71474 
L 151.501723 46.134681 
L 151.565603 46.134681 
L 151.581536 45.081309 
L 152.161072 45.081309 
L 152.161072 44.554623 
L 152.466496 44.554623 
L 152.466496 44.027937 
L 152.647216 44.027937 
L 152.707042 42.974565 
L 152.929579 42.974565 
L 152.973748 41.921193 
L 153.308709 41.921193 
L 153.380683 40.867821 
L 153.523746 40.867821 
L 153.609024 39.814448 
L 153.693887 39.814448 
L 153.722083 37.181018 
L 153.806399 37.181018 
L 153.806399 36.654332 
L 153.973817 36.654332 
L 154.070741 34.547588 
L 154.098334 34.547588 
L 154.167129 31.914157 
L 154.221969 31.914157 
L 154.290278 30.334099 
L 338.688 30.334099 
L 338.688 30.334099 
" style="fill:none;stroke:#ff0000;stroke-linecap:square;stroke-width:1.5;"/>
   </g>
   <g id="line2d_52">
    <defs>
     <path d="M 0 -6 
L -5.196152 -3 
L -5.196152 3 
L -0 6 
L 5.196152 3 
L 5.196152 -3 
z
" id="m7223d597df" style="stroke:#ff0000;stroke-linejoin:miter;stroke-width:1.5;"/>
    </defs>
    <g>
     <use style="fill-opacity:0;stroke:#ff0000;stroke-linejoin:miter;stroke-width:1.5;" x="103.372333" xlink:href="#m7223d597df" y="274.71644"/>
     <use style="fill-opacity:0;stroke:#ff0000;stroke-linejoin:miter;stroke-width:1.5;" x="128.768338" xlink:href="#m7223d597df" y="156.738758"/>
     <use style="fill-opacity:0;stroke:#ff0000;stroke-linejoin:miter;stroke-width:1.5;" x="154.290278" xlink:href="#m7223d597df" y="30.860785"/>
     <use style="fill-opacity:0;stroke:#ff0000;stroke-linejoin:miter;stroke-width:1.5;" x="154.290278" xlink:href="#m7223d597df" y="30.334099"/>
     <use style="fill-opacity:0;stroke:#ff0000;stroke-linejoin:miter;stroke-width:1.5;" x="154.290278" xlink:href="#m7223d597df" y="30.334099"/>
     <use style="fill-opacity:0;stroke:#ff0000;stroke-linejoin:miter;stroke-width:1.5;" x="338.688" xlink:href="#m7223d597df" y="30.334099"/>
    </g>
   </g>
   <g id="line2d_53">
    <path style="fill:none;stroke:#ff0000;stroke-linecap:square;stroke-width:1.5;"/>
    <g/>
   </g>
   <g id="line2d_54">
    <path d="M 338.688 30.334099 
L 369.60768 293.571802 
" style="fill:none;stroke:#000080;stroke-linecap:square;stroke-width:1.5;"/>
    <g>
     <use style="fill-opacity:0;stroke:#000080;stroke-width:1.5;" x="338.688" xlink:href="#m719fa87915" y="30.334099"/>
     <use style="fill-opacity:0;stroke:#000080;stroke-width:1.5;" x="369.60768" xlink:href="#m719fa87915" y="293.571802"/>
    </g>
   </g>
   <g id="line2d_55">
    <path d="M 338.688 30.334099 
L 369.60768 241.998701 
" style="fill:none;stroke:#ff00ff;stroke-linecap:square;stroke-width:1.5;"/>
    <g>
     <use style="fill-opacity:0;stroke:#ff00ff;stroke-linejoin:miter;stroke-width:1.5;" x="338.688" xlink:href="#me1dff0c438" y="30.334099"/>
     <use style="fill-opacity:0;stroke:#ff00ff;stroke-linejoin:miter;stroke-width:1.5;" x="369.60768" xlink:href="#me1dff0c438" y="241.998701"/>
    </g>
   </g>
   <g id="line2d_56">
    <path d="M 338.688 30.334099 
L 369.60768 190.4256 
" style="fill:none;stroke:#ff0000;stroke-linecap:square;stroke-width:1.5;"/>
    <g>
     <use style="fill-opacity:0;stroke:#ff0000;stroke-linejoin:miter;stroke-width:1.5;" x="338.688" xlink:href="#m7223d597df" y="30.334099"/>
     <use style="fill-opacity:0;stroke:#ff0000;stroke-linejoin:miter;stroke-width:1.5;" x="369.60768" xlink:href="#m7223d597df" y="190.4256"/>
    </g>
   </g>
   <g id="line2d_57">
    <path d="M 338.688 30.334099 
L 369.60768 87.279398 
" style="fill:none;stroke:#6495ed;stroke-linecap:square;stroke-width:1.5;"/>
    <g>
     <use style="fill-opacity:0;stroke:#6495ed;stroke-linejoin:miter;stroke-width:1.5;" x="338.688" xlink:href="#mf7e797eb61" y="30.334099"/>
     <use style="fill-opacity:0;stroke:#6495ed;stroke-linejoin:miter;stroke-width:1.5;" x="369.60768" xlink:href="#mf7e797eb61" y="87.279398"/>
    </g>
   </g>
   <g id="line2d_58">
    <path d="M 338.688 30.334099 
L 369.60768 35.706297 
" style="fill:none;stroke:#ff7500;stroke-linecap:square;stroke-width:1.5;"/>
    <g>
     <use style="fill-opacity:0;stroke:#ff7500;stroke-linejoin:bevel;stroke-width:1.5;" x="338.688" xlink:href="#m516b347752" y="30.334099"/>
     <use style="fill-opacity:0;stroke:#ff7500;stroke-linejoin:bevel;stroke-width:1.5;" x="369.60768" xlink:href="#m516b347752" y="35.706297"/>
    </g>
   </g>
   <g id="line2d_59">
    <path d="M 338.688 298.944 
L 338.688 30.334099 
" style="fill:none;stroke:#000000;stroke-linecap:square;stroke-width:1.5;"/>
   </g>
   <g id="patch_3">
    <path d="M 57.6 298.944 
L 57.6 27.648 
" style="fill:none;stroke:#000000;stroke-linecap:square;stroke-linejoin:miter;stroke-width:0.8;"/>
   </g>
   <g id="patch_4">
    <path d="M 338.688 298.944 
L 338.688 27.648 
" style="fill:none;stroke:#000000;stroke-linecap:square;stroke-linejoin:miter;stroke-width:0.8;"/>
   </g>
   <g id="patch_5">
    <path d="M 57.6 298.944 
L 338.688 298.944 
" style="fill:none;stroke:#000000;stroke-linecap:square;stroke-linejoin:miter;stroke-width:0.8;"/>
   </g>
   <g id="patch_6">
    <path d="M 57.6 27.648 
L 338.688 27.648 
" style="fill:none;stroke:#000000;stroke-linecap:square;stroke-linejoin:miter;stroke-width:0.8;"/>
   </g>
   <g id="text_13">
    <!-- CMA-ES-20 -->
    <g transform="translate(375.22944 298.262739)scale(0.17 -0.17)">
     <defs>
      <path d="M 4122 4306 
L 4122 3641 
Q 3803 3938 3442 4084 
Q 3081 4231 2675 4231 
Q 1875 4231 1450 3742 
Q 1025 3253 1025 2328 
Q 1025 1406 1450 917 
Q 1875 428 2675 428 
Q 3081 428 3442 575 
Q 3803 722 4122 1019 
L 4122 359 
Q 3791 134 3420 21 
Q 3050 -91 2638 -91 
Q 1578 -91 968 557 
Q 359 1206 359 2328 
Q 359 3453 968 4101 
Q 1578 4750 2638 4750 
Q 3056 4750 3426 4639 
Q 3797 4528 4122 4306 
z
" id="DejaVuSans-43" transform="scale(0.015625)"/>
      <path d="M 628 4666 
L 1569 4666 
L 2759 1491 
L 3956 4666 
L 4897 4666 
L 4897 0 
L 4281 0 
L 4281 4097 
L 3078 897 
L 2444 897 
L 1241 4097 
L 1241 0 
L 628 0 
L 628 4666 
z
" id="DejaVuSans-4d" transform="scale(0.015625)"/>
      <path d="M 2188 4044 
L 1331 1722 
L 3047 1722 
L 2188 4044 
z
M 1831 4666 
L 2547 4666 
L 4325 0 
L 3669 0 
L 3244 1197 
L 1141 1197 
L 716 0 
L 50 0 
L 1831 4666 
z
" id="DejaVuSans-41" transform="scale(0.015625)"/>
      <path d="M 628 4666 
L 3578 4666 
L 3578 4134 
L 1259 4134 
L 1259 2753 
L 3481 2753 
L 3481 2222 
L 1259 2222 
L 1259 531 
L 3634 531 
L 3634 0 
L 628 0 
L 628 4666 
z
" id="DejaVuSans-45" transform="scale(0.015625)"/>
      <path d="M 3425 4513 
L 3425 3897 
Q 3066 4069 2747 4153 
Q 2428 4238 2131 4238 
Q 1616 4238 1336 4038 
Q 1056 3838 1056 3469 
Q 1056 3159 1242 3001 
Q 1428 2844 1947 2747 
L 2328 2669 
Q 3034 2534 3370 2195 
Q 3706 1856 3706 1288 
Q 3706 609 3251 259 
Q 2797 -91 1919 -91 
Q 1588 -91 1214 -16 
Q 841 59 441 206 
L 441 856 
Q 825 641 1194 531 
Q 1563 422 1919 422 
Q 2459 422 2753 634 
Q 3047 847 3047 1241 
Q 3047 1584 2836 1778 
Q 2625 1972 2144 2069 
L 1759 2144 
Q 1053 2284 737 2584 
Q 422 2884 422 3419 
Q 422 4038 858 4394 
Q 1294 4750 2059 4750 
Q 2388 4750 2728 4690 
Q 3069 4631 3425 4513 
z
" id="DejaVuSans-53" transform="scale(0.015625)"/>
     </defs>
     <use xlink:href="#DejaVuSans-43"/>
     <use x="69.824219" xlink:href="#DejaVuSans-4d"/>
     <use x="156.103516" xlink:href="#DejaVuSans-41"/>
     <use x="222.261719" xlink:href="#DejaVuSans-2d"/>
     <use x="258.345703" xlink:href="#DejaVuSans-45"/>
     <use x="321.529297" xlink:href="#DejaVuSans-53"/>
     <use x="385.005859" xlink:href="#DejaVuSans-2d"/>
     <use x="421.089844" xlink:href="#DejaVuSans-32"/>
     <use x="484.712891" xlink:href="#DejaVuSans-30"/>
    </g>
   </g>
   <g id="text_14">
    <!-- HE-ES Gla -->
    <g transform="translate(375.22944 246.689638)scale(0.17 -0.17)">
     <defs>
      <path d="M 628 4666 
L 1259 4666 
L 1259 2753 
L 3553 2753 
L 3553 4666 
L 4184 4666 
L 4184 0 
L 3553 0 
L 3553 2222 
L 1259 2222 
L 1259 0 
L 628 0 
L 628 4666 
z
" id="DejaVuSans-48" transform="scale(0.015625)"/>
      <path d="M 3809 666 
L 3809 1919 
L 2778 1919 
L 2778 2438 
L 4434 2438 
L 4434 434 
Q 4069 175 3628 42 
Q 3188 -91 2688 -91 
Q 1594 -91 976 548 
Q 359 1188 359 2328 
Q 359 3472 976 4111 
Q 1594 4750 2688 4750 
Q 3144 4750 3555 4637 
Q 3966 4525 4313 4306 
L 4313 3634 
Q 3963 3931 3569 4081 
Q 3175 4231 2741 4231 
Q 1884 4231 1454 3753 
Q 1025 3275 1025 2328 
Q 1025 1384 1454 906 
Q 1884 428 2741 428 
Q 3075 428 3337 486 
Q 3600 544 3809 666 
z
" id="DejaVuSans-47" transform="scale(0.015625)"/>
     </defs>
     <use xlink:href="#DejaVuSans-48"/>
     <use x="75.195312" xlink:href="#DejaVuSans-45"/>
     <use x="138.378906" xlink:href="#DejaVuSans-2d"/>
     <use x="174.462891" xlink:href="#DejaVuSans-45"/>
     <use x="237.646484" xlink:href="#DejaVuSans-53"/>
     <use x="301.123047" xlink:href="#DejaVuSans-20"/>
     <use x="332.910156" xlink:href="#DejaVuSans-47"/>
     <use x="410.400391" xlink:href="#DejaVuSans-6c"/>
     <use x="438.183594" xlink:href="#DejaVuSans-61"/>
    </g>
   </g>
   <g id="text_15">
    <!-- lq-CMA-ES -->
    <g transform="translate(375.22944 195.116537)scale(0.17 -0.17)">
     <defs>
      <path d="M 947 1747 
Q 947 1113 1208 752 
Q 1469 391 1925 391 
Q 2381 391 2643 752 
Q 2906 1113 2906 1747 
Q 2906 2381 2643 2742 
Q 2381 3103 1925 3103 
Q 1469 3103 1208 2742 
Q 947 2381 947 1747 
z
M 2906 525 
Q 2725 213 2448 61 
Q 2172 -91 1784 -91 
Q 1150 -91 751 415 
Q 353 922 353 1747 
Q 353 2572 751 3078 
Q 1150 3584 1784 3584 
Q 2172 3584 2448 3432 
Q 2725 3281 2906 2969 
L 2906 3500 
L 3481 3500 
L 3481 -1331 
L 2906 -1331 
L 2906 525 
z
" id="DejaVuSans-71" transform="scale(0.015625)"/>
     </defs>
     <use xlink:href="#DejaVuSans-6c"/>
     <use x="27.783203" xlink:href="#DejaVuSans-71"/>
     <use x="91.259766" xlink:href="#DejaVuSans-2d"/>
     <use x="127.34375" xlink:href="#DejaVuSans-43"/>
     <use x="197.167969" xlink:href="#DejaVuSans-4d"/>
     <use x="283.447266" xlink:href="#DejaVuSans-41"/>
     <use x="349.605469" xlink:href="#DejaVuSans-2d"/>
     <use x="385.689453" xlink:href="#DejaVuSans-45"/>
     <use x="448.873047" xlink:href="#DejaVuSans-53"/>
    </g>
   </g>
   <g id="text_16">
    <!-- best 2009 -->
    <g transform="translate(375.22944 143.543437)scale(0.17 -0.17)">
     <defs>
      <path d="M 3116 1747 
Q 3116 2381 2855 2742 
Q 2594 3103 2138 3103 
Q 1681 3103 1420 2742 
Q 1159 2381 1159 1747 
Q 1159 1113 1420 752 
Q 1681 391 2138 391 
Q 2594 391 2855 752 
Q 3116 1113 3116 1747 
z
M 1159 2969 
Q 1341 3281 1617 3432 
Q 1894 3584 2278 3584 
Q 2916 3584 3314 3078 
Q 3713 2572 3713 1747 
Q 3713 922 3314 415 
Q 2916 -91 2278 -91 
Q 1894 -91 1617 61 
Q 1341 213 1159 525 
L 1159 0 
L 581 0 
L 581 4863 
L 1159 4863 
L 1159 2969 
z
" id="DejaVuSans-62" transform="scale(0.015625)"/>
      <path d="M 703 97 
L 703 672 
Q 941 559 1184 500 
Q 1428 441 1663 441 
Q 2288 441 2617 861 
Q 2947 1281 2994 2138 
Q 2813 1869 2534 1725 
Q 2256 1581 1919 1581 
Q 1219 1581 811 2004 
Q 403 2428 403 3163 
Q 403 3881 828 4315 
Q 1253 4750 1959 4750 
Q 2769 4750 3195 4129 
Q 3622 3509 3622 2328 
Q 3622 1225 3098 567 
Q 2575 -91 1691 -91 
Q 1453 -91 1209 -44 
Q 966 3 703 97 
z
M 1959 2075 
Q 2384 2075 2632 2365 
Q 2881 2656 2881 3163 
Q 2881 3666 2632 3958 
Q 2384 4250 1959 4250 
Q 1534 4250 1286 3958 
Q 1038 3666 1038 3163 
Q 1038 2656 1286 2365 
Q 1534 2075 1959 2075 
z
" id="DejaVuSans-39" transform="scale(0.015625)"/>
     </defs>
     <use xlink:href="#DejaVuSans-62"/>
     <use x="63.476562" xlink:href="#DejaVuSans-65"/>
     <use x="125" xlink:href="#DejaVuSans-73"/>
     <use x="177.099609" xlink:href="#DejaVuSans-74"/>
     <use x="216.308594" xlink:href="#DejaVuSans-20"/>
     <use x="248.095703" xlink:href="#DejaVuSans-32"/>
     <use x="311.71875" xlink:href="#DejaVuSans-30"/>
     <use x="375.341797" xlink:href="#DejaVuSans-30"/>
     <use x="438.964844" xlink:href="#DejaVuSans-39"/>
    </g>
   </g>
   <g id="text_17">
    <!-- SLSQP-11- -->
    <g transform="translate(375.22944 91.970336)scale(0.17 -0.17)">
     <defs>
      <path d="M 628 4666 
L 1259 4666 
L 1259 531 
L 3531 531 
L 3531 0 
L 628 0 
L 628 4666 
z
" id="DejaVuSans-4c" transform="scale(0.015625)"/>
      <path d="M 2522 4238 
Q 1834 4238 1429 3725 
Q 1025 3213 1025 2328 
Q 1025 1447 1429 934 
Q 1834 422 2522 422 
Q 3209 422 3611 934 
Q 4013 1447 4013 2328 
Q 4013 3213 3611 3725 
Q 3209 4238 2522 4238 
z
M 3406 84 
L 4238 -825 
L 3475 -825 
L 2784 -78 
Q 2681 -84 2626 -87 
Q 2572 -91 2522 -91 
Q 1538 -91 948 567 
Q 359 1225 359 2328 
Q 359 3434 948 4092 
Q 1538 4750 2522 4750 
Q 3503 4750 4090 4092 
Q 4678 3434 4678 2328 
Q 4678 1516 4351 937 
Q 4025 359 3406 84 
z
" id="DejaVuSans-51" transform="scale(0.015625)"/>
      <path d="M 1259 4147 
L 1259 2394 
L 2053 2394 
Q 2494 2394 2734 2622 
Q 2975 2850 2975 3272 
Q 2975 3691 2734 3919 
Q 2494 4147 2053 4147 
L 1259 4147 
z
M 628 4666 
L 2053 4666 
Q 2838 4666 3239 4311 
Q 3641 3956 3641 3272 
Q 3641 2581 3239 2228 
Q 2838 1875 2053 1875 
L 1259 1875 
L 1259 0 
L 628 0 
L 628 4666 
z
" id="DejaVuSans-50" transform="scale(0.015625)"/>
     </defs>
     <use xlink:href="#DejaVuSans-53"/>
     <use x="63.476562" xlink:href="#DejaVuSans-4c"/>
     <use x="119.189453" xlink:href="#DejaVuSans-53"/>
     <use x="182.666016" xlink:href="#DejaVuSans-51"/>
     <use x="261.376953" xlink:href="#DejaVuSans-50"/>
     <use x="319.429688" xlink:href="#DejaVuSans-2d"/>
     <use x="355.513672" xlink:href="#DejaVuSans-31"/>
     <use x="419.136719" xlink:href="#DejaVuSans-31"/>
     <use x="482.759766" xlink:href="#DejaVuSans-2d"/>
    </g>
   </g>
   <g id="text_18">
    <!-- SLSQP+lq- -->
    <g transform="translate(375.22944 40.397235)scale(0.17 -0.17)">
     <defs>
      <path d="M 2944 4013 
L 2944 2272 
L 4684 2272 
L 4684 1741 
L 2944 1741 
L 2944 0 
L 2419 0 
L 2419 1741 
L 678 1741 
L 678 2272 
L 2419 2272 
L 2419 4013 
L 2944 4013 
z
" id="DejaVuSans-2b" transform="scale(0.015625)"/>
     </defs>
     <use xlink:href="#DejaVuSans-53"/>
     <use x="63.476562" xlink:href="#DejaVuSans-4c"/>
     <use x="119.189453" xlink:href="#DejaVuSans-53"/>
     <use x="182.666016" xlink:href="#DejaVuSans-51"/>
     <use x="261.376953" xlink:href="#DejaVuSans-50"/>
     <use x="321.679688" xlink:href="#DejaVuSans-2b"/>
     <use x="405.46875" xlink:href="#DejaVuSans-6c"/>
     <use x="433.251953" xlink:href="#DejaVuSans-71"/>
     <use x="496.728516" xlink:href="#DejaVuSans-2d"/>
    </g>
   </g>
   <g id="text_19">
    <!-- bbob f9, 5-D -->
    <g transform="translate(60.41088 38.111366)scale(0.102 -0.102)">
     <defs>
      <path d="M 691 4666 
L 3169 4666 
L 3169 4134 
L 1269 4134 
L 1269 2991 
Q 1406 3038 1543 3061 
Q 1681 3084 1819 3084 
Q 2600 3084 3056 2656 
Q 3513 2228 3513 1497 
Q 3513 744 3044 326 
Q 2575 -91 1722 -91 
Q 1428 -91 1123 -41 
Q 819 9 494 109 
L 494 744 
Q 775 591 1075 516 
Q 1375 441 1709 441 
Q 2250 441 2565 725 
Q 2881 1009 2881 1497 
Q 2881 1984 2565 2268 
Q 2250 2553 1709 2553 
Q 1456 2553 1204 2497 
Q 953 2441 691 2322 
L 691 4666 
z
" id="DejaVuSans-35" transform="scale(0.015625)"/>
      <path d="M 1259 4147 
L 1259 519 
L 2022 519 
Q 2988 519 3436 956 
Q 3884 1394 3884 2338 
Q 3884 3275 3436 3711 
Q 2988 4147 2022 4147 
L 1259 4147 
z
M 628 4666 
L 1925 4666 
Q 3281 4666 3915 4102 
Q 4550 3538 4550 2338 
Q 4550 1131 3912 565 
Q 3275 0 1925 0 
L 628 0 
L 628 4666 
z
" id="DejaVuSans-44" transform="scale(0.015625)"/>
     </defs>
     <use xlink:href="#DejaVuSans-62"/>
     <use x="63.476562" xlink:href="#DejaVuSans-62"/>
     <use x="126.953125" xlink:href="#DejaVuSans-6f"/>
     <use x="188.134766" xlink:href="#DejaVuSans-62"/>
     <use x="251.611328" xlink:href="#DejaVuSans-20"/>
     <use x="283.398438" xlink:href="#DejaVuSans-66"/>
     <use x="318.603516" xlink:href="#DejaVuSans-39"/>
     <use x="382.226562" xlink:href="#DejaVuSans-2c"/>
     <use x="414.013672" xlink:href="#DejaVuSans-20"/>
     <use x="445.800781" xlink:href="#DejaVuSans-35"/>
     <use x="509.423828" xlink:href="#DejaVuSans-2d"/>
     <use x="545.507812" xlink:href="#DejaVuSans-44"/>
    </g>
    <!-- 51 targets: 100..1e-08 -->
    <g transform="translate(60.41088 49.533135)scale(0.102 -0.102)">
     <defs>
      <path d="M 750 794 
L 1409 794 
L 1409 0 
L 750 0 
L 750 794 
z
M 750 3309 
L 1409 3309 
L 1409 2516 
L 750 2516 
L 750 3309 
z
" id="DejaVuSans-3a" transform="scale(0.015625)"/>
     </defs>
     <use xlink:href="#DejaVuSans-35"/>
     <use x="63.623047" xlink:href="#DejaVuSans-31"/>
     <use x="127.246094" xlink:href="#DejaVuSans-20"/>
     <use x="159.033203" xlink:href="#DejaVuSans-74"/>
     <use x="198.242188" xlink:href="#DejaVuSans-61"/>
     <use x="259.521484" xlink:href="#DejaVuSans-72"/>
     <use x="298.884766" xlink:href="#DejaVuSans-67"/>
     <use x="362.361328" xlink:href="#DejaVuSans-65"/>
     <use x="423.884766" xlink:href="#DejaVuSans-74"/>
     <use x="463.09375" xlink:href="#DejaVuSans-73"/>
     <use x="515.193359" xlink:href="#DejaVuSans-3a"/>
     <use x="548.884766" xlink:href="#DejaVuSans-20"/>
     <use x="580.671875" xlink:href="#DejaVuSans-31"/>
     <use x="644.294922" xlink:href="#DejaVuSans-30"/>
     <use x="707.917969" xlink:href="#DejaVuSans-30"/>
     <use x="771.541016" xlink:href="#DejaVuSans-2e"/>
     <use x="803.328125" xlink:href="#DejaVuSans-2e"/>
     <use x="835.115234" xlink:href="#DejaVuSans-31"/>
     <use x="898.738281" xlink:href="#DejaVuSans-65"/>
     <use x="960.261719" xlink:href="#DejaVuSans-2d"/>
     <use x="996.345703" xlink:href="#DejaVuSans-30"/>
     <use x="1059.96875" xlink:href="#DejaVuSans-38"/>
    </g>
    <!-- 15 instances -->
    <g transform="translate(60.41088 60.954904)scale(0.102 -0.102)">
     <use xlink:href="#DejaVuSans-31"/>
     <use x="63.623047" xlink:href="#DejaVuSans-35"/>
     <use x="127.246094" xlink:href="#DejaVuSans-20"/>
     <use x="159.033203" xlink:href="#DejaVuSans-69"/>
     <use x="186.816406" xlink:href="#DejaVuSans-6e"/>
     <use x="250.195312" xlink:href="#DejaVuSans-73"/>
     <use x="302.294922" xlink:href="#DejaVuSans-74"/>
     <use x="341.503906" xlink:href="#DejaVuSans-61"/>
     <use x="402.783203" xlink:href="#DejaVuSans-6e"/>
     <use x="466.162109" xlink:href="#DejaVuSans-63"/>
     <use x="521.142578" xlink:href="#DejaVuSans-65"/>
     <use x="582.666016" xlink:href="#DejaVuSans-73"/>
    </g>
   </g>
   <g id="text_20">
    <!-- v2.4.1.1 -->
    <g style="fill:#808080;" transform="translate(177.692437 294.151352)scale(0.1 -0.1)">
     <use xlink:href="#DejaVuSans-76"/>
     <use x="59.179688" xlink:href="#DejaVuSans-32"/>
     <use x="122.802734" xlink:href="#DejaVuSans-2e"/>
     <use x="154.589844" xlink:href="#DejaVuSans-34"/>
     <use x="218.212891" xlink:href="#DejaVuSans-2e"/>
     <use x="250" xlink:href="#DejaVuSans-31"/>
     <use x="313.623047" xlink:href="#DejaVuSans-2e"/>
     <use x="345.410156" xlink:href="#DejaVuSans-31"/>
    </g>
   </g>
   <g id="text_21">
    <!-- 9 Rosenbrock rotated -->
    <g transform="translate(90.990875 21.648)scale(0.2 -0.2)">
     <defs>
      <path d="M 2841 2188 
Q 3044 2119 3236 1894 
Q 3428 1669 3622 1275 
L 4263 0 
L 3584 0 
L 2988 1197 
Q 2756 1666 2539 1819 
Q 2322 1972 1947 1972 
L 1259 1972 
L 1259 0 
L 628 0 
L 628 4666 
L 2053 4666 
Q 2853 4666 3247 4331 
Q 3641 3997 3641 3322 
Q 3641 2881 3436 2590 
Q 3231 2300 2841 2188 
z
M 1259 4147 
L 1259 2491 
L 2053 2491 
Q 2509 2491 2742 2702 
Q 2975 2913 2975 3322 
Q 2975 3731 2742 3939 
Q 2509 4147 2053 4147 
L 1259 4147 
z
" id="DejaVuSans-52" transform="scale(0.015625)"/>
      <path d="M 581 4863 
L 1159 4863 
L 1159 1991 
L 2875 3500 
L 3609 3500 
L 1753 1863 
L 3688 0 
L 2938 0 
L 1159 1709 
L 1159 0 
L 581 0 
L 581 4863 
z
" id="DejaVuSans-6b" transform="scale(0.015625)"/>
     </defs>
     <use xlink:href="#DejaVuSans-39"/>
     <use x="63.623047" xlink:href="#DejaVuSans-20"/>
     <use x="95.410156" xlink:href="#DejaVuSans-52"/>
     <use x="160.392578" xlink:href="#DejaVuSans-6f"/>
     <use x="221.574219" xlink:href="#DejaVuSans-73"/>
     <use x="273.673828" xlink:href="#DejaVuSans-65"/>
     <use x="335.197266" xlink:href="#DejaVuSans-6e"/>
     <use x="398.576172" xlink:href="#DejaVuSans-62"/>
     <use x="462.052734" xlink:href="#DejaVuSans-72"/>
     <use x="500.916016" xlink:href="#DejaVuSans-6f"/>
     <use x="562.097656" xlink:href="#DejaVuSans-63"/>
     <use x="617.078125" xlink:href="#DejaVuSans-6b"/>
     <use x="674.988281" xlink:href="#DejaVuSans-20"/>
     <use x="706.775391" xlink:href="#DejaVuSans-72"/>
     <use x="745.638672" xlink:href="#DejaVuSans-6f"/>
     <use x="806.820312" xlink:href="#DejaVuSans-74"/>
     <use x="846.029297" xlink:href="#DejaVuSans-61"/>
     <use x="907.308594" xlink:href="#DejaVuSans-74"/>
     <use x="946.517578" xlink:href="#DejaVuSans-65"/>
     <use x="1008.041016" xlink:href="#DejaVuSans-64"/>
    </g>
   </g>
  </g>
 </g>
 <defs>
  <clipPath id="p8d2e04643e">
   <rect height="271.296" width="281.088" x="57.6" y="27.648"/>
  </clipPath>
 </defs>
</svg>
