<?xml version="1.0" encoding="utf-8" standalone="no"?>
<!DOCTYPE svg PUBLIC "-//W3C//DTD SVG 1.1//EN"
  "http://www.w3.org/Graphics/SVG/1.1/DTD/svg11.dtd">
<svg height="345.6pt" version="1.1" viewBox="0 0 460.8 345.6" width="460.8pt" xmlns="http://www.w3.org/2000/svg" xmlns:xlink="http://www.w3.org/1999/xlink">
 <metadata>
  <rdf:RDF xmlns:cc="http://creativecommons.org/ns#" xmlns:dc="http://purl.org/dc/elements/1.1/" xmlns:rdf="http://www.w3.org/1999/02/22-rdf-syntax-ns#">
   <cc:Work>
    <dc:type rdf:resource="http://purl.org/dc/dcmitype/StillImage"/>
    <dc:date>2022-03-29T13:08:27.264832</dc:date>
    <dc:format>image/svg+xml</dc:format>
    <dc:creator>
     <cc:Agent>
      <dc:title>Matplotlib v3.4.3, https://matplotlib.org/</dc:title>
     </cc:Agent>
    </dc:creator>
   </cc:Work>
  </rdf:RDF>
 </metadata>
 <defs>
  <style type="text/css">*{stroke-linecap:butt;stroke-linejoin:round;}</style>
 </defs>
 <g id="figure_1">
  <g id="patch_1">
   <path d="M 0 345.6 
L 460.8 345.6 
L 460.8 0 
L 0 0 
z
" style="fill:#ffffff;"/>
  </g>
  <g id="axes_1">
   <g id="patch_2">
    <path d="M 57.6 298.944 
L 338.688 298.944 
L 338.688 3.456 
L 57.6 3.456 
z
" style="fill:#ffffff;"/>
   </g>
   <g id="line2d_1">
    <path d="M 57.6 298.944 
L 57.6 296.421911 
L 64.67102 296.421911 
L 64.67102 293.899821 
L 73.579452 293.899821 
L 73.579452 292.638776 
L 76.759008 292.638776 
L 76.759008 290.116687 
L 79.447285 290.116687 
L 79.447285 288.855642 
L 81.775977 288.855642 
L 81.775977 286.333553 
L 85.66744 286.333553 
L 85.66744 283.811463 
L 88.846997 283.811463 
L 88.846997 281.289374 
L 97.755429 281.289374 
L 97.755429 278.767284 
L 98.606294 278.767284 
L 98.606294 276.245195 
L 101.646892 276.245195 
L 101.646892 273.723105 
L 102.989037 273.723105 
L 102.989037 272.462061 
L 108.948899 272.462061 
L 108.948899 271.201016 
L 111.897469 271.201016 
L 111.897469 269.939971 
L 113.73488 269.939971 
L 113.73488 268.678927 
L 116.621333 268.678927 
L 116.621333 264.895792 
L 119.351785 264.895792 
L 119.351785 262.373703 
L 125.470548 262.373703 
L 125.470548 258.590569 
L 127.799239 258.590569 
L 127.799239 254.807435 
L 129.147151 254.807435 
L 129.147151 251.0243 
L 132.893889 251.0243 
L 132.893889 249.763256 
L 134.12805 249.763256 
L 134.12805 247.241166 
L 136.073445 247.241166 
L 136.073445 244.719077 
L 140.195896 244.719077 
L 140.195896 243.458032 
L 146.696785 243.458032 
L 146.696785 242.196987 
L 147.620256 242.196987 
L 147.620256 239.674898 
L 149.286939 239.674898 
L 149.286939 237.152808 
L 150.598782 237.152808 
L 150.598782 234.630719 
L 152.848312 234.630719 
L 152.848312 230.847585 
L 153.214697 230.847585 
L 153.214697 228.325495 
L 155.773004 228.325495 
L 155.773004 224.542361 
L 157.781772 224.542361 
L 157.781772 223.281316 
L 158.889829 223.281316 
L 158.889829 219.498182 
L 159.123917 219.498182 
L 159.123917 216.976093 
L 160.103486 216.976093 
L 160.103486 214.454003 
L 163.489428 214.454003 
L 163.489428 211.931914 
L 165.083779 211.931914 
L 165.083779 209.409825 
L 165.697012 209.409825 
L 165.697012 206.887735 
L 170.242438 206.887735 
L 170.242438 204.365646 
L 171.708567 204.365646 
L 171.783736 199.321467 
L 171.895887 199.321467 
L 171.895887 195.538333 
L 178.377401 195.538333 
L 178.377401 193.016243 
L 180.120337 193.016243 
L 180.120337 190.494154 
L 181.260369 190.494154 
L 181.260369 189.233109 
L 181.526953 189.233109 
L 181.526953 186.711019 
L 183.802832 186.711019 
L 183.802832 184.18893 
L 184.856021 184.18893 
L 184.856021 182.927885 
L 186.344367 182.927885 
L 186.344367 181.666841 
L 188.200211 181.666841 
L 188.200211 177.883706 
L 189.721691 177.883706 
L 189.721691 174.100572 
L 190.110621 174.100572 
L 190.110621 171.578483 
L 191.56089 171.578483 
L 191.56089 170.317438 
L 193.824606 170.317438 
L 193.824606 169.056393 
L 194.438888 169.056393 
L 194.438888 167.795349 
L 194.97945 167.795349 
L 194.97945 164.012214 
L 195.831102 164.012214 
L 195.831102 160.22908 
L 198.252427 160.22908 
L 198.252427 156.445946 
L 199.700512 156.445946 
L 199.700512 155.184901 
L 200.124059 155.184901 
L 200.124059 152.662812 
L 203.586426 152.662812 
L 203.586426 150.140722 
L 204.89625 150.140722 
L 204.997056 145.096544 
L 206.126749 145.096544 
L 206.126749 141.313409 
L 209.641521 141.313409 
L 209.641521 137.530275 
L 211.302624 137.530275 
L 211.302624 136.26923 
L 215.084309 136.26923 
L 215.084309 135.008186 
L 216.766651 135.008186 
L 216.766651 132.486096 
L 217.91205 132.486096 
L 217.91205 131.225052 
L 219.526681 131.225052 
L 219.56063 123.658783 
L 220.512871 123.658783 
L 220.512871 122.397738 
L 220.840094 122.397738 
L 220.840094 119.875649 
L 221.29632 119.875649 
L 221.29632 116.092515 
L 221.772242 116.092515 
L 221.772242 112.309381 
L 222.236905 112.309381 
L 222.236905 111.048336 
L 222.754178 111.048336 
L 222.754178 108.526247 
L 223.553224 108.526247 
L 223.553224 107.265202 
L 223.683123 107.265202 
L 223.683123 104.743112 
L 224.400052 104.743112 
L 224.400052 100.959978 
L 224.604428 100.959978 
L 224.604428 97.176844 
L 225.358878 97.176844 
L 225.358878 94.654755 
L 225.649472 94.654755 
L 225.649472 92.132665 
L 226.646179 92.132665 
L 226.646179 90.87162 
L 227.359699 90.87162 
L 227.359699 89.610576 
L 228.706624 89.610576 
L 228.706624 85.827441 
L 229.048809 85.827441 
L 229.048809 84.566397 
L 230.485819 84.566397 
L 230.485819 80.783263 
L 231.208253 80.783263 
L 231.208253 78.261173 
L 234.022372 78.261173 
L 234.022372 77.000128 
L 234.749804 77.000128 
L 234.83914 71.955949 
L 237.816448 71.955949 
L 237.816448 69.43386 
L 238.55412 69.43386 
L 238.55412 66.911771 
L 241.714373 66.911771 
L 241.714373 63.128636 
L 242.912752 63.128636 
L 242.912752 61.867592 
L 245.327872 61.867592 
L 245.327872 60.606547 
L 246.614825 60.606547 
L 246.614825 58.084457 
L 252.648147 58.084457 
L 252.648147 55.562368 
L 254.070964 55.562368 
L 254.070964 51.779234 
L 256.229081 51.779234 
L 256.229081 49.257144 
L 258.624243 49.257144 
L 258.624243 45.47401 
L 260.915874 45.47401 
L 260.915874 41.690876 
L 338.688 41.690876 
L 338.688 41.690876 
" style="fill:none;stroke:#f5deb3;stroke-linecap:square;stroke-width:4;"/>
   </g>
   <g id="line2d_2">
    <defs>
     <path d="M 0 7.778175 
L 7.778175 0 
L 0 -7.778175 
L -7.778175 0 
z
" id="med9e6b49ab" style="stroke:#f5deb3;stroke-linejoin:miter;stroke-width:1.5;"/>
    </defs>
    <g>
     <use style="fill:#f5deb3;stroke:#f5deb3;stroke-linejoin:miter;stroke-width:1.5;" x="136.073445" xlink:href="#med9e6b49ab" y="247.241166"/>
     <use style="fill:#f5deb3;stroke:#f5deb3;stroke-linejoin:miter;stroke-width:1.5;" x="194.438888" xlink:href="#med9e6b49ab" y="167.795349"/>
     <use style="fill:#f5deb3;stroke:#f5deb3;stroke-linejoin:miter;stroke-width:1.5;" x="245.327872" xlink:href="#med9e6b49ab" y="60.606547"/>
     <use style="fill:#f5deb3;stroke:#f5deb3;stroke-linejoin:miter;stroke-width:1.5;" x="260.915874" xlink:href="#med9e6b49ab" y="41.690876"/>
     <use style="fill:#f5deb3;stroke:#f5deb3;stroke-linejoin:miter;stroke-width:1.5;" x="338.688" xlink:href="#med9e6b49ab" y="41.690876"/>
    </g>
   </g>
   <g id="line2d_3">
    <path style="fill:none;stroke:#f5deb3;stroke-linecap:square;stroke-width:4;"/>
    <g/>
   </g>
   <g id="line2d_4">
    <path d="M 338.688 41.690876 
L 369.60768 12.232871 
" style="fill:none;stroke:#f5deb3;stroke-linecap:square;stroke-width:4;"/>
    <g>
     <use style="fill:#f5deb3;stroke:#f5deb3;stroke-linejoin:miter;stroke-width:1.5;" x="338.688" xlink:href="#med9e6b49ab" y="41.690876"/>
     <use style="fill:#f5deb3;stroke:#f5deb3;stroke-linejoin:miter;stroke-width:1.5;" x="369.60768" xlink:href="#med9e6b49ab" y="12.232871"/>
    </g>
   </g>
   <g id="matplotlib.axis_1">
    <g id="xtick_1">
     <g id="line2d_5">
      <path clip-path="url(#pd8243994b2)" d="M 57.6 298.944 
L 57.6 3.456 
" style="fill:none;stroke:#b0b0b0;stroke-linecap:square;stroke-width:0.8;"/>
     </g>
     <g id="line2d_6">
      <defs>
       <path d="M 0 0 
L 0 3.5 
" id="mfc7fd122f2" style="stroke:#000000;stroke-width:0.8;"/>
      </defs>
      <g>
       <use style="stroke:#000000;stroke-width:0.8;" x="57.6" xlink:href="#mfc7fd122f2" y="298.944"/>
      </g>
     </g>
     <g id="text_1">
      <!-- 0 -->
      <g transform="translate(51.2375 321.140875)scale(0.2 -0.2)">
       <defs>
        <path d="M 2034 4250 
Q 1547 4250 1301 3770 
Q 1056 3291 1056 2328 
Q 1056 1369 1301 889 
Q 1547 409 2034 409 
Q 2525 409 2770 889 
Q 3016 1369 3016 2328 
Q 3016 3291 2770 3770 
Q 2525 4250 2034 4250 
z
M 2034 4750 
Q 2819 4750 3233 4129 
Q 3647 3509 3647 2328 
Q 3647 1150 3233 529 
Q 2819 -91 2034 -91 
Q 1250 -91 836 529 
Q 422 1150 422 2328 
Q 422 3509 836 4129 
Q 1250 4750 2034 4750 
z
" id="DejaVuSans-30" transform="scale(0.015625)"/>
       </defs>
       <use xlink:href="#DejaVuSans-30"/>
      </g>
     </g>
    </g>
    <g id="xtick_2">
     <g id="line2d_7">
      <path clip-path="url(#pd8243994b2)" d="M 137.910857 298.944 
L 137.910857 3.456 
" style="fill:none;stroke:#b0b0b0;stroke-linecap:square;stroke-width:0.8;"/>
     </g>
     <g id="line2d_8">
      <g>
       <use style="stroke:#000000;stroke-width:0.8;" x="137.910857" xlink:href="#mfc7fd122f2" y="298.944"/>
      </g>
     </g>
     <g id="text_2">
      <!-- 2 -->
      <g transform="translate(131.548357 321.140875)scale(0.2 -0.2)">
       <defs>
        <path d="M 1228 531 
L 3431 531 
L 3431 0 
L 469 0 
L 469 531 
Q 828 903 1448 1529 
Q 2069 2156 2228 2338 
Q 2531 2678 2651 2914 
Q 2772 3150 2772 3378 
Q 2772 3750 2511 3984 
Q 2250 4219 1831 4219 
Q 1534 4219 1204 4116 
Q 875 4013 500 3803 
L 500 4441 
Q 881 4594 1212 4672 
Q 1544 4750 1819 4750 
Q 2544 4750 2975 4387 
Q 3406 4025 3406 3419 
Q 3406 3131 3298 2873 
Q 3191 2616 2906 2266 
Q 2828 2175 2409 1742 
Q 1991 1309 1228 531 
z
" id="DejaVuSans-32" transform="scale(0.015625)"/>
       </defs>
       <use xlink:href="#DejaVuSans-32"/>
      </g>
     </g>
    </g>
    <g id="xtick_3">
     <g id="line2d_9">
      <path clip-path="url(#pd8243994b2)" d="M 218.221714 298.944 
L 218.221714 3.456 
" style="fill:none;stroke:#b0b0b0;stroke-linecap:square;stroke-width:0.8;"/>
     </g>
     <g id="line2d_10">
      <g>
       <use style="stroke:#000000;stroke-width:0.8;" x="218.221714" xlink:href="#mfc7fd122f2" y="298.944"/>
      </g>
     </g>
     <g id="text_3">
      <!-- 4 -->
      <g transform="translate(211.859214 321.140875)scale(0.2 -0.2)">
       <defs>
        <path d="M 2419 4116 
L 825 1625 
L 2419 1625 
L 2419 4116 
z
M 2253 4666 
L 3047 4666 
L 3047 1625 
L 3713 1625 
L 3713 1100 
L 3047 1100 
L 3047 0 
L 2419 0 
L 2419 1100 
L 313 1100 
L 313 1709 
L 2253 4666 
z
" id="DejaVuSans-34" transform="scale(0.015625)"/>
       </defs>
       <use xlink:href="#DejaVuSans-34"/>
      </g>
     </g>
    </g>
    <g id="xtick_4">
     <g id="line2d_11">
      <path clip-path="url(#pd8243994b2)" d="M 298.532571 298.944 
L 298.532571 3.456 
" style="fill:none;stroke:#b0b0b0;stroke-linecap:square;stroke-width:0.8;"/>
     </g>
     <g id="line2d_12">
      <g>
       <use style="stroke:#000000;stroke-width:0.8;" x="298.532571" xlink:href="#mfc7fd122f2" y="298.944"/>
      </g>
     </g>
     <g id="text_4">
      <!-- 6 -->
      <g transform="translate(292.170071 321.140875)scale(0.2 -0.2)">
       <defs>
        <path d="M 2113 2584 
Q 1688 2584 1439 2293 
Q 1191 2003 1191 1497 
Q 1191 994 1439 701 
Q 1688 409 2113 409 
Q 2538 409 2786 701 
Q 3034 994 3034 1497 
Q 3034 2003 2786 2293 
Q 2538 2584 2113 2584 
z
M 3366 4563 
L 3366 3988 
Q 3128 4100 2886 4159 
Q 2644 4219 2406 4219 
Q 1781 4219 1451 3797 
Q 1122 3375 1075 2522 
Q 1259 2794 1537 2939 
Q 1816 3084 2150 3084 
Q 2853 3084 3261 2657 
Q 3669 2231 3669 1497 
Q 3669 778 3244 343 
Q 2819 -91 2113 -91 
Q 1303 -91 875 529 
Q 447 1150 447 2328 
Q 447 3434 972 4092 
Q 1497 4750 2381 4750 
Q 2619 4750 2861 4703 
Q 3103 4656 3366 4563 
z
" id="DejaVuSans-36" transform="scale(0.015625)"/>
       </defs>
       <use xlink:href="#DejaVuSans-36"/>
      </g>
     </g>
    </g>
    <g id="xtick_5">
     <g id="line2d_13">
      <path clip-path="url(#pd8243994b2)" d="M 97.755429 298.944 
L 97.755429 3.456 
" style="fill:none;stroke:#b0b0b0;stroke-linecap:square;stroke-width:0.8;"/>
     </g>
     <g id="line2d_14">
      <defs>
       <path d="M 0 0 
L 0 2 
" id="mc84586fa65" style="stroke:#000000;stroke-width:0.6;"/>
      </defs>
      <g>
       <use style="stroke:#000000;stroke-width:0.6;" x="97.755429" xlink:href="#mc84586fa65" y="298.944"/>
      </g>
     </g>
    </g>
    <g id="xtick_6">
     <g id="line2d_15">
      <path clip-path="url(#pd8243994b2)" d="M 178.066286 298.944 
L 178.066286 3.456 
" style="fill:none;stroke:#b0b0b0;stroke-linecap:square;stroke-width:0.8;"/>
     </g>
     <g id="line2d_16">
      <g>
       <use style="stroke:#000000;stroke-width:0.6;" x="178.066286" xlink:href="#mc84586fa65" y="298.944"/>
      </g>
     </g>
    </g>
    <g id="xtick_7">
     <g id="line2d_17">
      <path clip-path="url(#pd8243994b2)" d="M 258.377143 298.944 
L 258.377143 3.456 
" style="fill:none;stroke:#b0b0b0;stroke-linecap:square;stroke-width:0.8;"/>
     </g>
     <g id="line2d_18">
      <g>
       <use style="stroke:#000000;stroke-width:0.6;" x="258.377143" xlink:href="#mc84586fa65" y="298.944"/>
      </g>
     </g>
    </g>
    <g id="xtick_8">
     <g id="line2d_19">
      <path clip-path="url(#pd8243994b2)" d="M 338.688 298.944 
L 338.688 3.456 
" style="fill:none;stroke:#b0b0b0;stroke-linecap:square;stroke-width:0.8;"/>
     </g>
     <g id="line2d_20">
      <g>
       <use style="stroke:#000000;stroke-width:0.6;" x="338.688" xlink:href="#mc84586fa65" y="298.944"/>
      </g>
     </g>
    </g>
    <g id="text_5">
     <!-- log10(# f-evals / dimension) -->
     <g transform="translate(77.764078 342.217594)scale(0.17 -0.17)">
      <defs>
       <path d="M 603 4863 
L 1178 4863 
L 1178 0 
L 603 0 
L 603 4863 
z
" id="DejaVuSans-6c" transform="scale(0.015625)"/>
       <path d="M 1959 3097 
Q 1497 3097 1228 2736 
Q 959 2375 959 1747 
Q 959 1119 1226 758 
Q 1494 397 1959 397 
Q 2419 397 2687 759 
Q 2956 1122 2956 1747 
Q 2956 2369 2687 2733 
Q 2419 3097 1959 3097 
z
M 1959 3584 
Q 2709 3584 3137 3096 
Q 3566 2609 3566 1747 
Q 3566 888 3137 398 
Q 2709 -91 1959 -91 
Q 1206 -91 779 398 
Q 353 888 353 1747 
Q 353 2609 779 3096 
Q 1206 3584 1959 3584 
z
" id="DejaVuSans-6f" transform="scale(0.015625)"/>
       <path d="M 2906 1791 
Q 2906 2416 2648 2759 
Q 2391 3103 1925 3103 
Q 1463 3103 1205 2759 
Q 947 2416 947 1791 
Q 947 1169 1205 825 
Q 1463 481 1925 481 
Q 2391 481 2648 825 
Q 2906 1169 2906 1791 
z
M 3481 434 
Q 3481 -459 3084 -895 
Q 2688 -1331 1869 -1331 
Q 1566 -1331 1297 -1286 
Q 1028 -1241 775 -1147 
L 775 -588 
Q 1028 -725 1275 -790 
Q 1522 -856 1778 -856 
Q 2344 -856 2625 -561 
Q 2906 -266 2906 331 
L 2906 616 
Q 2728 306 2450 153 
Q 2172 0 1784 0 
Q 1141 0 747 490 
Q 353 981 353 1791 
Q 353 2603 747 3093 
Q 1141 3584 1784 3584 
Q 2172 3584 2450 3431 
Q 2728 3278 2906 2969 
L 2906 3500 
L 3481 3500 
L 3481 434 
z
" id="DejaVuSans-67" transform="scale(0.015625)"/>
       <path d="M 794 531 
L 1825 531 
L 1825 4091 
L 703 3866 
L 703 4441 
L 1819 4666 
L 2450 4666 
L 2450 531 
L 3481 531 
L 3481 0 
L 794 0 
L 794 531 
z
" id="DejaVuSans-31" transform="scale(0.015625)"/>
       <path d="M 1984 4856 
Q 1566 4138 1362 3434 
Q 1159 2731 1159 2009 
Q 1159 1288 1364 580 
Q 1569 -128 1984 -844 
L 1484 -844 
Q 1016 -109 783 600 
Q 550 1309 550 2009 
Q 550 2706 781 3412 
Q 1013 4119 1484 4856 
L 1984 4856 
z
" id="DejaVuSans-28" transform="scale(0.015625)"/>
       <path d="M 3272 2816 
L 2363 2816 
L 2100 1772 
L 3016 1772 
L 3272 2816 
z
M 2803 4594 
L 2478 3297 
L 3391 3297 
L 3719 4594 
L 4219 4594 
L 3897 3297 
L 4872 3297 
L 4872 2816 
L 3775 2816 
L 3519 1772 
L 4513 1772 
L 4513 1294 
L 3397 1294 
L 3072 0 
L 2572 0 
L 2894 1294 
L 1978 1294 
L 1656 0 
L 1153 0 
L 1478 1294 
L 494 1294 
L 494 1772 
L 1594 1772 
L 1856 2816 
L 850 2816 
L 850 3297 
L 1978 3297 
L 2297 4594 
L 2803 4594 
z
" id="DejaVuSans-23" transform="scale(0.015625)"/>
       <path id="DejaVuSans-20" transform="scale(0.015625)"/>
       <path d="M 2375 4863 
L 2375 4384 
L 1825 4384 
Q 1516 4384 1395 4259 
Q 1275 4134 1275 3809 
L 1275 3500 
L 2222 3500 
L 2222 3053 
L 1275 3053 
L 1275 0 
L 697 0 
L 697 3053 
L 147 3053 
L 147 3500 
L 697 3500 
L 697 3744 
Q 697 4328 969 4595 
Q 1241 4863 1831 4863 
L 2375 4863 
z
" id="DejaVuSans-66" transform="scale(0.015625)"/>
       <path d="M 313 2009 
L 1997 2009 
L 1997 1497 
L 313 1497 
L 313 2009 
z
" id="DejaVuSans-2d" transform="scale(0.015625)"/>
       <path d="M 3597 1894 
L 3597 1613 
L 953 1613 
Q 991 1019 1311 708 
Q 1631 397 2203 397 
Q 2534 397 2845 478 
Q 3156 559 3463 722 
L 3463 178 
Q 3153 47 2828 -22 
Q 2503 -91 2169 -91 
Q 1331 -91 842 396 
Q 353 884 353 1716 
Q 353 2575 817 3079 
Q 1281 3584 2069 3584 
Q 2775 3584 3186 3129 
Q 3597 2675 3597 1894 
z
M 3022 2063 
Q 3016 2534 2758 2815 
Q 2500 3097 2075 3097 
Q 1594 3097 1305 2825 
Q 1016 2553 972 2059 
L 3022 2063 
z
" id="DejaVuSans-65" transform="scale(0.015625)"/>
       <path d="M 191 3500 
L 800 3500 
L 1894 563 
L 2988 3500 
L 3597 3500 
L 2284 0 
L 1503 0 
L 191 3500 
z
" id="DejaVuSans-76" transform="scale(0.015625)"/>
       <path d="M 2194 1759 
Q 1497 1759 1228 1600 
Q 959 1441 959 1056 
Q 959 750 1161 570 
Q 1363 391 1709 391 
Q 2188 391 2477 730 
Q 2766 1069 2766 1631 
L 2766 1759 
L 2194 1759 
z
M 3341 1997 
L 3341 0 
L 2766 0 
L 2766 531 
Q 2569 213 2275 61 
Q 1981 -91 1556 -91 
Q 1019 -91 701 211 
Q 384 513 384 1019 
Q 384 1609 779 1909 
Q 1175 2209 1959 2209 
L 2766 2209 
L 2766 2266 
Q 2766 2663 2505 2880 
Q 2244 3097 1772 3097 
Q 1472 3097 1187 3025 
Q 903 2953 641 2809 
L 641 3341 
Q 956 3463 1253 3523 
Q 1550 3584 1831 3584 
Q 2591 3584 2966 3190 
Q 3341 2797 3341 1997 
z
" id="DejaVuSans-61" transform="scale(0.015625)"/>
       <path d="M 2834 3397 
L 2834 2853 
Q 2591 2978 2328 3040 
Q 2066 3103 1784 3103 
Q 1356 3103 1142 2972 
Q 928 2841 928 2578 
Q 928 2378 1081 2264 
Q 1234 2150 1697 2047 
L 1894 2003 
Q 2506 1872 2764 1633 
Q 3022 1394 3022 966 
Q 3022 478 2636 193 
Q 2250 -91 1575 -91 
Q 1294 -91 989 -36 
Q 684 19 347 128 
L 347 722 
Q 666 556 975 473 
Q 1284 391 1588 391 
Q 1994 391 2212 530 
Q 2431 669 2431 922 
Q 2431 1156 2273 1281 
Q 2116 1406 1581 1522 
L 1381 1569 
Q 847 1681 609 1914 
Q 372 2147 372 2553 
Q 372 3047 722 3315 
Q 1072 3584 1716 3584 
Q 2034 3584 2315 3537 
Q 2597 3491 2834 3397 
z
" id="DejaVuSans-73" transform="scale(0.015625)"/>
       <path d="M 1625 4666 
L 2156 4666 
L 531 -594 
L 0 -594 
L 1625 4666 
z
" id="DejaVuSans-2f" transform="scale(0.015625)"/>
       <path d="M 2906 2969 
L 2906 4863 
L 3481 4863 
L 3481 0 
L 2906 0 
L 2906 525 
Q 2725 213 2448 61 
Q 2172 -91 1784 -91 
Q 1150 -91 751 415 
Q 353 922 353 1747 
Q 353 2572 751 3078 
Q 1150 3584 1784 3584 
Q 2172 3584 2448 3432 
Q 2725 3281 2906 2969 
z
M 947 1747 
Q 947 1113 1208 752 
Q 1469 391 1925 391 
Q 2381 391 2643 752 
Q 2906 1113 2906 1747 
Q 2906 2381 2643 2742 
Q 2381 3103 1925 3103 
Q 1469 3103 1208 2742 
Q 947 2381 947 1747 
z
" id="DejaVuSans-64" transform="scale(0.015625)"/>
       <path d="M 603 3500 
L 1178 3500 
L 1178 0 
L 603 0 
L 603 3500 
z
M 603 4863 
L 1178 4863 
L 1178 4134 
L 603 4134 
L 603 4863 
z
" id="DejaVuSans-69" transform="scale(0.015625)"/>
       <path d="M 3328 2828 
Q 3544 3216 3844 3400 
Q 4144 3584 4550 3584 
Q 5097 3584 5394 3201 
Q 5691 2819 5691 2113 
L 5691 0 
L 5113 0 
L 5113 2094 
Q 5113 2597 4934 2840 
Q 4756 3084 4391 3084 
Q 3944 3084 3684 2787 
Q 3425 2491 3425 1978 
L 3425 0 
L 2847 0 
L 2847 2094 
Q 2847 2600 2669 2842 
Q 2491 3084 2119 3084 
Q 1678 3084 1418 2786 
Q 1159 2488 1159 1978 
L 1159 0 
L 581 0 
L 581 3500 
L 1159 3500 
L 1159 2956 
Q 1356 3278 1631 3431 
Q 1906 3584 2284 3584 
Q 2666 3584 2933 3390 
Q 3200 3197 3328 2828 
z
" id="DejaVuSans-6d" transform="scale(0.015625)"/>
       <path d="M 3513 2113 
L 3513 0 
L 2938 0 
L 2938 2094 
Q 2938 2591 2744 2837 
Q 2550 3084 2163 3084 
Q 1697 3084 1428 2787 
Q 1159 2491 1159 1978 
L 1159 0 
L 581 0 
L 581 3500 
L 1159 3500 
L 1159 2956 
Q 1366 3272 1645 3428 
Q 1925 3584 2291 3584 
Q 2894 3584 3203 3211 
Q 3513 2838 3513 2113 
z
" id="DejaVuSans-6e" transform="scale(0.015625)"/>
       <path d="M 513 4856 
L 1013 4856 
Q 1481 4119 1714 3412 
Q 1947 2706 1947 2009 
Q 1947 1309 1714 600 
Q 1481 -109 1013 -844 
L 513 -844 
Q 928 -128 1133 580 
Q 1338 1288 1338 2009 
Q 1338 2731 1133 3434 
Q 928 4138 513 4856 
z
" id="DejaVuSans-29" transform="scale(0.015625)"/>
      </defs>
      <use xlink:href="#DejaVuSans-6c"/>
      <use x="27.783203" xlink:href="#DejaVuSans-6f"/>
      <use x="88.964844" xlink:href="#DejaVuSans-67"/>
      <use x="152.441406" xlink:href="#DejaVuSans-31"/>
      <use x="216.064453" xlink:href="#DejaVuSans-30"/>
      <use x="279.6875" xlink:href="#DejaVuSans-28"/>
      <use x="318.701172" xlink:href="#DejaVuSans-23"/>
      <use x="402.490234" xlink:href="#DejaVuSans-20"/>
      <use x="434.277344" xlink:href="#DejaVuSans-66"/>
      <use x="463.982422" xlink:href="#DejaVuSans-2d"/>
      <use x="500.066406" xlink:href="#DejaVuSans-65"/>
      <use x="561.589844" xlink:href="#DejaVuSans-76"/>
      <use x="620.769531" xlink:href="#DejaVuSans-61"/>
      <use x="682.048828" xlink:href="#DejaVuSans-6c"/>
      <use x="709.832031" xlink:href="#DejaVuSans-73"/>
      <use x="761.931641" xlink:href="#DejaVuSans-20"/>
      <use x="793.71875" xlink:href="#DejaVuSans-2f"/>
      <use x="827.410156" xlink:href="#DejaVuSans-20"/>
      <use x="859.197266" xlink:href="#DejaVuSans-64"/>
      <use x="922.673828" xlink:href="#DejaVuSans-69"/>
      <use x="950.457031" xlink:href="#DejaVuSans-6d"/>
      <use x="1047.869141" xlink:href="#DejaVuSans-65"/>
      <use x="1109.392578" xlink:href="#DejaVuSans-6e"/>
      <use x="1172.771484" xlink:href="#DejaVuSans-73"/>
      <use x="1224.871094" xlink:href="#DejaVuSans-69"/>
      <use x="1252.654297" xlink:href="#DejaVuSans-6f"/>
      <use x="1313.835938" xlink:href="#DejaVuSans-6e"/>
      <use x="1377.214844" xlink:href="#DejaVuSans-29"/>
     </g>
    </g>
   </g>
   <g id="matplotlib.axis_2">
    <g id="ytick_1">
     <g id="line2d_21">
      <path clip-path="url(#pd8243994b2)" d="M 57.6 298.944 
L 338.688 298.944 
" style="fill:none;stroke:#b0b0b0;stroke-linecap:square;stroke-width:0.8;"/>
     </g>
     <g id="line2d_22">
      <defs>
       <path d="M 0 0 
L -3.5 0 
" id="mb7998a02a5" style="stroke:#000000;stroke-width:0.8;"/>
      </defs>
      <g>
       <use style="stroke:#000000;stroke-width:0.8;" x="57.6" xlink:href="#mb7998a02a5" y="298.944"/>
      </g>
     </g>
     <g id="text_6">
      <!-- 0.0 -->
      <g transform="translate(25.155 305.02275)scale(0.16 -0.16)">
       <defs>
        <path d="M 684 794 
L 1344 794 
L 1344 0 
L 684 0 
L 684 794 
z
" id="DejaVuSans-2e" transform="scale(0.015625)"/>
       </defs>
       <use xlink:href="#DejaVuSans-30"/>
       <use x="63.623047" xlink:href="#DejaVuSans-2e"/>
       <use x="95.410156" xlink:href="#DejaVuSans-30"/>
      </g>
     </g>
    </g>
    <g id="ytick_2">
     <g id="line2d_23">
      <path clip-path="url(#pd8243994b2)" d="M 57.6 240.431525 
L 338.688 240.431525 
" style="fill:none;stroke:#b0b0b0;stroke-linecap:square;stroke-width:0.8;"/>
     </g>
     <g id="line2d_24">
      <g>
       <use style="stroke:#000000;stroke-width:0.8;" x="57.6" xlink:href="#mb7998a02a5" y="240.431525"/>
      </g>
     </g>
     <g id="text_7">
      <!-- 0.2 -->
      <g transform="translate(25.155 246.510275)scale(0.16 -0.16)">
       <use xlink:href="#DejaVuSans-30"/>
       <use x="63.623047" xlink:href="#DejaVuSans-2e"/>
       <use x="95.410156" xlink:href="#DejaVuSans-32"/>
      </g>
     </g>
    </g>
    <g id="ytick_3">
     <g id="line2d_25">
      <path clip-path="url(#pd8243994b2)" d="M 57.6 181.91905 
L 338.688 181.91905 
" style="fill:none;stroke:#b0b0b0;stroke-linecap:square;stroke-width:0.8;"/>
     </g>
     <g id="line2d_26">
      <g>
       <use style="stroke:#000000;stroke-width:0.8;" x="57.6" xlink:href="#mb7998a02a5" y="181.91905"/>
      </g>
     </g>
     <g id="text_8">
      <!-- 0.4 -->
      <g transform="translate(25.155 187.9978)scale(0.16 -0.16)">
       <use xlink:href="#DejaVuSans-30"/>
       <use x="63.623047" xlink:href="#DejaVuSans-2e"/>
       <use x="95.410156" xlink:href="#DejaVuSans-34"/>
      </g>
     </g>
    </g>
    <g id="ytick_4">
     <g id="line2d_27">
      <path clip-path="url(#pd8243994b2)" d="M 57.6 123.406574 
L 338.688 123.406574 
" style="fill:none;stroke:#b0b0b0;stroke-linecap:square;stroke-width:0.8;"/>
     </g>
     <g id="line2d_28">
      <g>
       <use style="stroke:#000000;stroke-width:0.8;" x="57.6" xlink:href="#mb7998a02a5" y="123.406574"/>
      </g>
     </g>
     <g id="text_9">
      <!-- 0.6 -->
      <g transform="translate(25.155 129.485324)scale(0.16 -0.16)">
       <use xlink:href="#DejaVuSans-30"/>
       <use x="63.623047" xlink:href="#DejaVuSans-2e"/>
       <use x="95.410156" xlink:href="#DejaVuSans-36"/>
      </g>
     </g>
    </g>
    <g id="ytick_5">
     <g id="line2d_29">
      <path clip-path="url(#pd8243994b2)" d="M 57.6 64.894099 
L 338.688 64.894099 
" style="fill:none;stroke:#b0b0b0;stroke-linecap:square;stroke-width:0.8;"/>
     </g>
     <g id="line2d_30">
      <g>
       <use style="stroke:#000000;stroke-width:0.8;" x="57.6" xlink:href="#mb7998a02a5" y="64.894099"/>
      </g>
     </g>
     <g id="text_10">
      <!-- 0.8 -->
      <g transform="translate(25.155 70.972849)scale(0.16 -0.16)">
       <defs>
        <path d="M 2034 2216 
Q 1584 2216 1326 1975 
Q 1069 1734 1069 1313 
Q 1069 891 1326 650 
Q 1584 409 2034 409 
Q 2484 409 2743 651 
Q 3003 894 3003 1313 
Q 3003 1734 2745 1975 
Q 2488 2216 2034 2216 
z
M 1403 2484 
Q 997 2584 770 2862 
Q 544 3141 544 3541 
Q 544 4100 942 4425 
Q 1341 4750 2034 4750 
Q 2731 4750 3128 4425 
Q 3525 4100 3525 3541 
Q 3525 3141 3298 2862 
Q 3072 2584 2669 2484 
Q 3125 2378 3379 2068 
Q 3634 1759 3634 1313 
Q 3634 634 3220 271 
Q 2806 -91 2034 -91 
Q 1263 -91 848 271 
Q 434 634 434 1313 
Q 434 1759 690 2068 
Q 947 2378 1403 2484 
z
M 1172 3481 
Q 1172 3119 1398 2916 
Q 1625 2713 2034 2713 
Q 2441 2713 2670 2916 
Q 2900 3119 2900 3481 
Q 2900 3844 2670 4047 
Q 2441 4250 2034 4250 
Q 1625 4250 1398 4047 
Q 1172 3844 1172 3481 
z
" id="DejaVuSans-38" transform="scale(0.015625)"/>
       </defs>
       <use xlink:href="#DejaVuSans-30"/>
       <use x="63.623047" xlink:href="#DejaVuSans-2e"/>
       <use x="95.410156" xlink:href="#DejaVuSans-38"/>
      </g>
     </g>
    </g>
    <g id="ytick_6">
     <g id="line2d_31">
      <path clip-path="url(#pd8243994b2)" d="M 57.6 6.381624 
L 338.688 6.381624 
" style="fill:none;stroke:#b0b0b0;stroke-linecap:square;stroke-width:0.8;"/>
     </g>
     <g id="line2d_32">
      <g>
       <use style="stroke:#000000;stroke-width:0.8;" x="57.6" xlink:href="#mb7998a02a5" y="6.381624"/>
      </g>
     </g>
     <g id="text_11">
      <!-- 1.0 -->
      <g transform="translate(25.155 12.460374)scale(0.16 -0.16)">
       <use xlink:href="#DejaVuSans-31"/>
       <use x="63.623047" xlink:href="#DejaVuSans-2e"/>
       <use x="95.410156" xlink:href="#DejaVuSans-30"/>
      </g>
     </g>
    </g>
    <g id="text_12">
     <!-- Fraction of function,target pairs -->
     <g transform="translate(17.619531 285.585)rotate(-90)scale(0.17 -0.17)">
      <defs>
       <path d="M 628 4666 
L 3309 4666 
L 3309 4134 
L 1259 4134 
L 1259 2759 
L 3109 2759 
L 3109 2228 
L 1259 2228 
L 1259 0 
L 628 0 
L 628 4666 
z
" id="DejaVuSans-46" transform="scale(0.015625)"/>
       <path d="M 2631 2963 
Q 2534 3019 2420 3045 
Q 2306 3072 2169 3072 
Q 1681 3072 1420 2755 
Q 1159 2438 1159 1844 
L 1159 0 
L 581 0 
L 581 3500 
L 1159 3500 
L 1159 2956 
Q 1341 3275 1631 3429 
Q 1922 3584 2338 3584 
Q 2397 3584 2469 3576 
Q 2541 3569 2628 3553 
L 2631 2963 
z
" id="DejaVuSans-72" transform="scale(0.015625)"/>
       <path d="M 3122 3366 
L 3122 2828 
Q 2878 2963 2633 3030 
Q 2388 3097 2138 3097 
Q 1578 3097 1268 2742 
Q 959 2388 959 1747 
Q 959 1106 1268 751 
Q 1578 397 2138 397 
Q 2388 397 2633 464 
Q 2878 531 3122 666 
L 3122 134 
Q 2881 22 2623 -34 
Q 2366 -91 2075 -91 
Q 1284 -91 818 406 
Q 353 903 353 1747 
Q 353 2603 823 3093 
Q 1294 3584 2113 3584 
Q 2378 3584 2631 3529 
Q 2884 3475 3122 3366 
z
" id="DejaVuSans-63" transform="scale(0.015625)"/>
       <path d="M 1172 4494 
L 1172 3500 
L 2356 3500 
L 2356 3053 
L 1172 3053 
L 1172 1153 
Q 1172 725 1289 603 
Q 1406 481 1766 481 
L 2356 481 
L 2356 0 
L 1766 0 
Q 1100 0 847 248 
Q 594 497 594 1153 
L 594 3053 
L 172 3053 
L 172 3500 
L 594 3500 
L 594 4494 
L 1172 4494 
z
" id="DejaVuSans-74" transform="scale(0.015625)"/>
       <path d="M 544 1381 
L 544 3500 
L 1119 3500 
L 1119 1403 
Q 1119 906 1312 657 
Q 1506 409 1894 409 
Q 2359 409 2629 706 
Q 2900 1003 2900 1516 
L 2900 3500 
L 3475 3500 
L 3475 0 
L 2900 0 
L 2900 538 
Q 2691 219 2414 64 
Q 2138 -91 1772 -91 
Q 1169 -91 856 284 
Q 544 659 544 1381 
z
M 1991 3584 
L 1991 3584 
z
" id="DejaVuSans-75" transform="scale(0.015625)"/>
       <path d="M 750 794 
L 1409 794 
L 1409 256 
L 897 -744 
L 494 -744 
L 750 256 
L 750 794 
z
" id="DejaVuSans-2c" transform="scale(0.015625)"/>
       <path d="M 1159 525 
L 1159 -1331 
L 581 -1331 
L 581 3500 
L 1159 3500 
L 1159 2969 
Q 1341 3281 1617 3432 
Q 1894 3584 2278 3584 
Q 2916 3584 3314 3078 
Q 3713 2572 3713 1747 
Q 3713 922 3314 415 
Q 2916 -91 2278 -91 
Q 1894 -91 1617 61 
Q 1341 213 1159 525 
z
M 3116 1747 
Q 3116 2381 2855 2742 
Q 2594 3103 2138 3103 
Q 1681 3103 1420 2742 
Q 1159 2381 1159 1747 
Q 1159 1113 1420 752 
Q 1681 391 2138 391 
Q 2594 391 2855 752 
Q 3116 1113 3116 1747 
z
" id="DejaVuSans-70" transform="scale(0.015625)"/>
      </defs>
      <use xlink:href="#DejaVuSans-46"/>
      <use x="50.269531" xlink:href="#DejaVuSans-72"/>
      <use x="91.382812" xlink:href="#DejaVuSans-61"/>
      <use x="152.662109" xlink:href="#DejaVuSans-63"/>
      <use x="207.642578" xlink:href="#DejaVuSans-74"/>
      <use x="246.851562" xlink:href="#DejaVuSans-69"/>
      <use x="274.634766" xlink:href="#DejaVuSans-6f"/>
      <use x="335.816406" xlink:href="#DejaVuSans-6e"/>
      <use x="399.195312" xlink:href="#DejaVuSans-20"/>
      <use x="430.982422" xlink:href="#DejaVuSans-6f"/>
      <use x="492.164062" xlink:href="#DejaVuSans-66"/>
      <use x="527.369141" xlink:href="#DejaVuSans-20"/>
      <use x="559.15625" xlink:href="#DejaVuSans-66"/>
      <use x="594.361328" xlink:href="#DejaVuSans-75"/>
      <use x="657.740234" xlink:href="#DejaVuSans-6e"/>
      <use x="721.119141" xlink:href="#DejaVuSans-63"/>
      <use x="776.099609" xlink:href="#DejaVuSans-74"/>
      <use x="815.308594" xlink:href="#DejaVuSans-69"/>
      <use x="843.091797" xlink:href="#DejaVuSans-6f"/>
      <use x="904.273438" xlink:href="#DejaVuSans-6e"/>
      <use x="967.652344" xlink:href="#DejaVuSans-2c"/>
      <use x="999.439453" xlink:href="#DejaVuSans-74"/>
      <use x="1038.648438" xlink:href="#DejaVuSans-61"/>
      <use x="1099.927734" xlink:href="#DejaVuSans-72"/>
      <use x="1139.291016" xlink:href="#DejaVuSans-67"/>
      <use x="1202.767578" xlink:href="#DejaVuSans-65"/>
      <use x="1264.291016" xlink:href="#DejaVuSans-74"/>
      <use x="1303.5" xlink:href="#DejaVuSans-20"/>
      <use x="1335.287109" xlink:href="#DejaVuSans-70"/>
      <use x="1398.763672" xlink:href="#DejaVuSans-61"/>
      <use x="1460.042969" xlink:href="#DejaVuSans-69"/>
      <use x="1487.826172" xlink:href="#DejaVuSans-72"/>
      <use x="1528.939453" xlink:href="#DejaVuSans-73"/>
     </g>
    </g>
   </g>
   <g id="line2d_33">
    <defs>
     <path d="M 0 1.5 
C 0.397805 1.5 0.77937 1.341951 1.06066 1.06066 
C 1.341951 0.77937 1.5 0.397805 1.5 0 
C 1.5 -0.397805 1.341951 -0.77937 1.06066 -1.06066 
C 0.77937 -1.341951 0.397805 -1.5 0 -1.5 
C -0.397805 -1.5 -0.77937 -1.341951 -1.06066 -1.06066 
C -1.341951 -0.77937 -1.5 -0.397805 -1.5 0 
C -1.5 0.397805 -1.341951 0.77937 -1.06066 1.06066 
C -0.77937 1.341951 -0.397805 1.5 0 1.5 
z
" id="m5c8c488ebc" style="stroke:#f5deb3;"/>
    </defs>
    <g>
     <use style="fill:#f5deb3;stroke:#f5deb3;" x="260.915874" xlink:href="#m5c8c488ebc" y="41.690876"/>
     <use style="fill:#f5deb3;stroke:#f5deb3;" x="260.915874" xlink:href="#m5c8c488ebc" y="41.690876"/>
    </g>
   </g>
   <g id="line2d_34">
    <defs>
     <path d="M 0 1.5 
C 0.397805 1.5 0.77937 1.341951 1.06066 1.06066 
C 1.341951 0.77937 1.5 0.397805 1.5 0 
C 1.5 -0.397805 1.341951 -0.77937 1.06066 -1.06066 
C 0.77937 -1.341951 0.397805 -1.5 0 -1.5 
C -0.397805 -1.5 -0.77937 -1.341951 -1.06066 -1.06066 
C -1.341951 -0.77937 -1.5 -0.397805 -1.5 0 
C -1.5 0.397805 -1.341951 0.77937 -1.06066 1.06066 
C -0.77937 1.341951 -0.397805 1.5 0 1.5 
z
" id="m37ef809844" style="stroke:#000080;"/>
    </defs>
    <g>
     <use style="fill:#000080;stroke:#000080;" x="220.854346" xlink:href="#m37ef809844" y="226.055615"/>
     <use style="fill:#000080;stroke:#000080;" x="220.854346" xlink:href="#m37ef809844" y="226.055615"/>
    </g>
   </g>
   <g id="line2d_35">
    <path d="M 45.512012 298.944 
L 45.512012 288.729538 
L 73.579452 288.729538 
L 73.579452 286.837971 
L 76.759008 286.837971 
L 76.759008 285.576926 
L 79.447285 285.576926 
L 79.447285 282.046001 
L 81.775977 282.046001 
L 81.775977 280.784956 
L 83.830028 280.784956 
L 83.830028 279.523911 
L 85.66744 279.523911 
L 85.66744 278.515075 
L 87.329581 278.515075 
L 87.329581 276.875717 
L 88.846997 276.875717 
L 88.846997 276.245195 
L 90.242884 276.245195 
L 90.242884 274.731941 
L 91.535274 274.731941 
L 91.535274 274.101419 
L 92.73846 274.101419 
L 92.73846 272.462061 
L 93.863965 272.462061 
L 93.863965 271.327121 
L 94.921215 271.327121 
L 94.921215 270.948807 
L 95.918017 270.948807 
L 95.918017 269.939971 
L 96.86091 269.939971 
L 96.86091 269.309449 
L 97.755429 269.309449 
L 97.755429 268.678927 
L 98.606294 268.678927 
L 98.606294 268.426718 
L 99.41757 268.426718 
L 99.41757 268.174509 
L 100.192776 268.174509 
L 100.192776 267.417882 
L 100.934985 267.417882 
L 100.934985 266.78736 
L 101.646892 266.78736 
L 101.646892 266.661255 
L 102.330873 266.661255 
L 102.330873 266.409046 
L 103.623262 266.409046 
L 103.623262 266.282942 
L 104.23523 266.282942 
L 104.23523 265.40021 
L 104.826449 265.40021 
L 104.826449 265.148001 
L 105.951954 265.148001 
L 105.951954 264.895792 
L 106.48859 264.895792 
L 106.48859 264.391375 
L 107.009204 264.391375 
L 107.009204 264.013061 
L 107.514726 264.013061 
L 107.514726 263.760852 
L 108.006005 263.760852 
L 108.006005 263.382539 
L 108.483824 263.382539 
L 108.483824 263.004225 
L 108.948899 263.004225 
L 108.948899 262.373703 
L 109.401893 262.373703 
L 109.401893 262.247598 
L 109.843417 262.247598 
L 109.843417 262.121494 
L 110.274038 262.121494 
L 110.274038 261.99539 
L 110.694282 261.99539 
L 110.694282 261.869285 
L 111.104637 261.869285 
L 111.104637 261.490972 
L 111.505558 261.490972 
L 111.505558 261.112658 
L 112.280765 261.112658 
L 112.280765 260.734345 
L 112.655818 260.734345 
L 112.655818 260.60824 
L 113.022974 260.60824 
L 113.022974 259.977718 
L 113.382559 259.977718 
L 113.382559 259.4733 
L 113.73488 259.4733 
L 113.73488 259.347196 
L 114.080224 259.347196 
L 114.080224 259.094987 
L 114.751048 259.094987 
L 114.751048 258.968882 
L 115.397021 258.968882 
L 115.397021 258.716673 
L 115.711251 258.716673 
L 115.711251 258.33836 
L 116.323218 258.33836 
L 116.323218 258.086151 
L 116.914437 258.086151 
L 116.914437 257.833942 
L 117.486268 257.833942 
L 117.486268 257.581733 
L 118.310324 257.581733 
L 118.310324 257.20342 
L 119.097192 257.20342 
L 119.097192 257.077315 
L 120.33454 257.077315 
L 120.33454 256.825106 
L 120.571812 256.825106 
L 120.571812 256.699002 
L 121.036887 256.699002 
L 121.036887 256.320688 
L 121.931406 256.320688 
L 121.931406 256.194584 
L 122.148045 256.194584 
L 122.148045 255.437957 
L 122.573415 255.437957 
L 122.573415 255.311853 
L 122.988655 255.311853 
L 122.988655 254.933539 
L 123.192626 254.933539 
L 123.192626 254.807435 
L 123.593547 254.807435 
L 123.593547 254.68133 
L 123.790603 254.68133 
L 123.790603 254.555226 
L 123.985457 254.555226 
L 123.985457 254.429121 
L 124.92835 254.429121 
L 124.92835 254.176912 
L 125.470548 254.176912 
L 125.470548 253.54639 
L 125.996395 253.54639 
L 125.996395 253.168076 
L 127.002787 253.168076 
L 127.002787 253.041972 
L 127.325746 253.041972 
L 127.325746 252.663659 
L 127.48501 252.663659 
L 127.48501 252.41145 
L 127.799239 252.41145 
L 127.799239 252.159241 
L 128.260216 252.159241 
L 128.260216 251.907032 
L 128.411207 251.907032 
L 128.411207 251.654823 
L 128.709321 251.654823 
L 128.709321 251.402614 
L 129.574256 251.402614 
L 129.574256 251.276509 
L 130.531948 251.276509 
L 130.531948 250.898196 
L 131.312942 250.898196 
L 131.312942 250.772091 
L 131.690703 250.772091 
L 131.690703 250.645987 
L 132.060454 250.645987 
L 132.060454 250.519883 
L 132.181982 250.519883 
L 132.181982 250.393778 
L 132.30267 250.393778 
L 132.30267 250.141569 
L 132.422528 250.141569 
L 132.422528 249.88936 
L 132.541568 249.88936 
L 132.541568 249.763256 
L 132.659801 249.763256 
L 132.659801 249.637151 
L 134.019394 249.637151 
L 134.12805 249.384942 
L 134.343353 249.384942 
L 134.343353 249.258838 
L 135.482227 249.258838 
L 135.582166 248.75442 
L 137.910857 248.75442 
L 137.910857 248.502211 
L 140.723258 248.502211 
L 140.723258 248.250002 
L 141.017599 248.250002 
L 141.017599 248.123898 
L 141.162927 248.123898 
L 141.162927 247.997793 
L 141.307054 247.997793 
L 141.307054 247.745584 
L 141.521035 247.745584 
L 141.521035 247.61948 
L 142.949611 247.61948 
L 142.949611 247.367271 
L 143.527762 247.367271 
L 143.527762 247.115062 
L 144.510517 247.115062 
L 144.510517 246.862853 
L 147.215849 246.862853 
L 147.215849 246.610644 
L 149.646525 246.610644 
L 149.735275 245.601808 
L 150.344189 245.601808 
L 150.344189 245.349599 
L 150.47195 245.349599 
L 150.51433 244.592972 
L 150.766468 244.592972 
L 150.808139 244.214659 
L 152.322086 244.214659 
L 152.322086 243.96245 
L 153.105587 243.96245 
L 153.105587 243.710241 
L 153.430889 243.710241 
L 153.502361 243.205823 
L 153.644434 243.205823 
L 153.644434 243.079719 
L 153.994632 243.079719 
L 153.994632 242.82751 
L 154.269814 242.82751 
L 154.269814 242.701405 
L 154.807483 242.701405 
L 154.807483 242.575301 
L 156.568618 242.575301 
L 156.628341 241.944778 
L 157.243392 241.944778 
L 157.243392 241.818674 
L 157.415209 241.818674 
L 157.500487 241.566465 
L 158.222599 241.566465 
L 158.249784 241.062047 
L 159.201253 241.062047 
L 159.201253 240.809838 
L 159.807898 240.809838 
L 159.807898 240.683734 
L 161.667653 240.683734 
L 161.667653 240.431525 
L 163.103002 240.431525 
L 163.103002 240.179316 
L 163.629664 240.179316 
L 163.629664 239.927107 
L 164.102088 239.927107 
L 164.19892 239.548793 
L 164.390984 239.548793 
L 164.390984 239.422689 
L 164.693955 239.422689 
L 164.75018 238.918271 
L 165.248216 238.918271 
L 165.248216 238.792167 
L 165.9084 238.792167 
L 165.995728 238.413853 
L 166.047915 238.413853 
L 166.047915 238.03554 
L 166.978005 238.03554 
L 166.978005 237.909435 
L 167.798261 237.909435 
L 167.798261 237.783331 
L 169.345764 237.783331 
L 169.345764 237.657226 
L 172.191475 237.657226 
L 172.191475 237.405017 
L 172.708856 237.405017 
L 172.791647 236.774495 
L 172.850543 236.774495 
L 172.850543 236.648391 
L 174.795808 236.648391 
L 174.795808 236.522286 
L 175.767465 236.522286 
L 175.767465 236.270077 
L 177.042792 236.270077 
L 177.042792 236.143973 
L 177.235899 236.143973 
L 177.235899 236.017868 
L 178.767027 236.017868 
L 178.767027 235.765659 
L 178.89222 235.765659 
L 178.89222 235.639555 
L 179.886249 235.639555 
L 179.886249 235.387346 
L 181.361719 235.387346 
L 181.390568 234.882928 
L 181.491165 234.882928 
L 181.491165 234.756823 
L 181.619658 234.756823 
L 181.619658 234.630719 
L 181.796565 234.630719 
L 181.824704 234.37851 
L 181.964723 234.37851 
L 181.964723 234.126301 
L 182.316765 234.126301 
L 182.316765 233.874092 
L 182.688619 233.874092 
L 182.688619 233.747988 
L 183.486206 233.747988 
L 183.486206 233.495779 
L 184.101478 233.495779 
L 184.101478 233.24357 
L 184.903218 233.24357 
L 184.903218 233.117465 
L 185.368293 233.117465 
L 185.368293 232.991361 
L 186.420143 232.991361 
L 186.420143 232.865256 
L 186.629513 232.865256 
L 186.629513 232.739152 
L 186.978205 232.739152 
L 186.978205 232.613047 
L 187.242953 232.613047 
L 187.278979 232.234734 
L 188.077864 232.234734 
L 188.117109 231.856421 
L 189.019465 231.856421 
L 189.121531 231.478107 
L 191.456004 231.478107 
L 191.456004 231.352003 
L 191.576971 231.352003 
L 191.576971 231.099794 
L 191.792618 231.099794 
L 191.792618 230.973689 
L 192.20445 230.973689 
L 192.20445 230.847585 
L 192.693684 230.847585 
L 192.693684 230.595376 
L 193.30838 230.595376 
L 193.30838 230.343167 
L 193.424425 230.343167 
L 193.424425 230.217062 
L 193.83167 230.217062 
L 193.83167 230.090958 
L 194.739777 230.090958 
L 194.739777 229.712645 
L 195.235432 229.712645 
L 195.248458 229.334331 
L 195.723725 229.334331 
L 195.723725 229.082122 
L 196.177125 229.082122 
L 196.177125 228.956018 
L 196.703095 228.956018 
L 196.703095 228.829913 
L 199.379816 228.829913 
L 199.379816 228.703809 
L 204.046508 228.703809 
L 204.046508 228.577704 
L 204.531125 228.577704 
L 204.531125 228.4516 
L 206.68135 228.4516 
L 206.68135 228.199391 
L 206.986252 228.199391 
L 206.986252 227.947182 
L 207.456483 227.947182 
L 207.456483 227.821078 
L 208.94761 227.821078 
L 208.94761 227.694973 
L 211.537023 227.694973 
L 211.537023 227.568869 
L 212.145461 227.568869 
L 212.145461 227.442764 
L 214.249407 227.442764 
L 214.249407 227.190555 
L 217.194521 227.190555 
L 217.194521 226.938346 
L 218.915754 226.938346 
L 218.924968 226.307824 
L 220.854346 226.307824 
L 220.854346 226.055615 
L 338.688 226.055615 
L 338.688 226.055615 
" style="fill:none;stroke:#000080;stroke-linecap:square;stroke-width:1.5;"/>
   </g>
   <g id="line2d_36">
    <defs>
     <path d="M 0 6 
C 1.591219 6 3.117479 5.367802 4.242641 4.242641 
C 5.367802 3.117479 6 1.591219 6 0 
C 6 -1.591219 5.367802 -3.117479 4.242641 -4.242641 
C 3.117479 -5.367802 1.591219 -6 0 -6 
C -1.591219 -6 -3.117479 -5.367802 -4.242641 -4.242641 
C -5.367802 -3.117479 -6 -1.591219 -6 0 
C -6 1.591219 -5.367802 3.117479 -4.242641 4.242641 
C -3.117479 5.367802 -1.591219 6 0 6 
z
" id="m939011ebe6" style="stroke:#000080;stroke-width:1.5;"/>
    </defs>
    <g>
     <use style="fill-opacity:0;stroke:#000080;stroke-width:1.5;" x="108.483824" xlink:href="#m939011ebe6" y="263.004225"/>
     <use style="fill-opacity:0;stroke:#000080;stroke-width:1.5;" x="166.978005" xlink:href="#m939011ebe6" y="237.909435"/>
     <use style="fill-opacity:0;stroke:#000080;stroke-width:1.5;" x="220.854346" xlink:href="#m939011ebe6" y="226.307824"/>
     <use style="fill-opacity:0;stroke:#000080;stroke-width:1.5;" x="220.854346" xlink:href="#m939011ebe6" y="226.055615"/>
     <use style="fill-opacity:0;stroke:#000080;stroke-width:1.5;" x="220.854346" xlink:href="#m939011ebe6" y="226.055615"/>
     <use style="fill-opacity:0;stroke:#000080;stroke-width:1.5;" x="338.688" xlink:href="#m939011ebe6" y="226.055615"/>
    </g>
   </g>
   <g id="line2d_37">
    <path style="fill:none;stroke:#000080;stroke-linecap:square;stroke-width:1.5;"/>
    <g/>
   </g>
   <g id="line2d_38">
    <path clip-path="url(#pd8243994b2)" d="M 235.018782 226.055615 
" style="fill:none;stroke:#000080;stroke-linecap:square;stroke-width:1.5;"/>
    <defs>
     <path d="M -12 12 
L 12 -12 
M -12 -12 
L 12 12 
" id="mfcaaa3c32b" style="stroke:#000080;"/>
    </defs>
    <g clip-path="url(#pd8243994b2)">
     <use style="fill:#000080;stroke:#000080;" x="235.018782" xlink:href="#mfcaaa3c32b" y="226.055615"/>
    </g>
   </g>
   <g id="line2d_39">
    <defs>
     <path d="M 0 1.5 
C 0.397805 1.5 0.77937 1.341951 1.06066 1.06066 
C 1.341951 0.77937 1.5 0.397805 1.5 0 
C 1.5 -0.397805 1.341951 -0.77937 1.06066 -1.06066 
C 0.77937 -1.341951 0.397805 -1.5 0 -1.5 
C -0.397805 -1.5 -0.77937 -1.341951 -1.06066 -1.06066 
C -1.341951 -0.77937 -1.5 -0.397805 -1.5 0 
C -1.5 0.397805 -1.341951 0.77937 -1.06066 1.06066 
C -0.77937 1.341951 -0.397805 1.5 0 1.5 
z
" id="m5daf9098ef" style="stroke:#ff00ff;"/>
    </defs>
    <g>
     <use style="fill:#ff00ff;stroke:#ff00ff;" x="233.895051" xlink:href="#m5daf9098ef" y="175.866035"/>
     <use style="fill:#ff00ff;stroke:#ff00ff;" x="233.895051" xlink:href="#m5daf9098ef" y="175.866035"/>
    </g>
   </g>
   <g id="line2d_40">
    <path d="M 69.687988 298.944 
L 69.687988 293.269299 
L 76.759008 293.269299 
L 76.759008 292.764881 
L 85.66744 292.764881 
L 85.66744 292.638776 
L 93.863965 292.638776 
L 93.863965 291.125523 
L 100.934985 291.125523 
L 100.934985 290.116687 
L 101.646892 290.116687 
L 101.646892 289.486165 
L 102.330873 289.486165 
L 102.330873 289.107851 
L 103.623262 289.107851 
L 103.623262 288.729538 
L 104.826449 288.729538 
L 104.826449 288.603433 
L 105.398279 288.603433 
L 105.398279 288.351224 
L 107.009204 288.351224 
L 107.009204 288.22512 
L 108.483824 288.22512 
L 108.483824 288.099015 
L 108.948899 288.099015 
L 108.948899 287.720702 
L 109.401893 287.720702 
L 109.401893 287.342389 
L 109.843417 287.342389 
L 109.843417 286.964075 
L 110.694282 286.964075 
L 110.694282 286.333553 
L 111.505558 286.333553 
L 111.505558 286.081344 
L 111.897469 286.081344 
L 111.897469 285.829135 
L 112.280765 285.829135 
L 112.280765 285.70303 
L 112.655818 285.70303 
L 112.655818 285.576926 
L 113.382559 285.576926 
L 113.382559 285.324717 
L 113.73488 285.324717 
L 113.73488 284.694195 
L 114.080224 284.694195 
L 114.080224 283.937568 
L 114.418861 283.937568 
L 114.418861 283.685359 
L 114.751048 283.685359 
L 114.751048 283.43315 
L 115.077025 283.43315 
L 115.077025 282.928732 
L 115.397021 282.928732 
L 115.397021 282.802628 
L 116.621333 282.802628 
L 116.621333 282.424314 
L 116.914437 282.424314 
L 116.914437 281.919896 
L 117.202696 281.919896 
L 117.202696 281.541583 
L 117.765302 281.541583 
L 117.765302 280.91106 
L 118.576578 280.91106 
L 118.576578 280.784956 
L 118.838828 280.784956 
L 118.838828 280.406643 
L 119.097192 280.406643 
L 119.097192 279.902225 
L 119.850084 279.902225 
L 119.850084 279.523911 
L 120.33454 279.523911 
L 120.33454 278.893389 
L 120.571812 278.893389 
L 120.571812 278.767284 
L 120.8059 278.767284 
L 120.8059 278.515075 
L 121.489881 278.515075 
L 121.489881 278.388971 
L 121.712041 278.388971 
L 121.712041 278.262867 
L 121.931406 278.262867 
L 121.931406 278.136762 
L 122.362027 278.136762 
L 122.362027 278.010658 
L 122.573415 278.010658 
L 122.573415 277.758449 
L 122.988655 277.758449 
L 122.988655 277.632344 
L 123.192626 277.632344 
L 123.192626 277.50624 
L 123.394238 277.50624 
L 123.394238 277.254031 
L 123.593547 277.254031 
L 123.593547 276.875717 
L 124.178158 276.875717 
L 124.178158 276.371299 
L 124.557288 276.371299 
L 124.557288 275.992986 
L 124.743806 275.992986 
L 124.743806 275.614673 
L 124.92835 275.614673 
L 124.92835 275.110255 
L 125.291682 275.110255 
L 125.291682 274.227523 
L 125.470548 274.227523 
L 125.470548 273.975314 
L 125.822869 273.975314 
L 125.822869 273.597001 
L 126.168212 273.597001 
L 126.168212 272.966479 
L 126.338353 272.966479 
L 126.338353 272.840374 
L 126.50685 272.840374 
L 126.50685 272.71427 
L 127.002787 272.71427 
L 127.002787 272.588165 
L 127.165014 272.588165 
L 127.165014 272.335956 
L 127.325746 272.335956 
L 127.325746 272.209852 
L 127.48501 272.209852 
L 127.48501 272.083747 
L 127.799239 272.083747 
L 127.799239 271.957643 
L 128.107907 271.957643 
L 128.107907 271.453225 
L 128.260216 271.453225 
L 128.260216 271.201016 
L 128.411207 271.201016 
L 128.411207 271.074912 
L 128.560901 271.074912 
L 128.560901 270.318285 
L 129.290685 270.318285 
L 129.290685 269.939971 
L 129.574256 269.939971 
L 129.574256 269.813867 
L 129.714332 269.813867 
L 129.714332 269.435553 
L 130.127931 269.435553 
L 130.127931 269.309449 
L 130.263646 269.309449 
L 130.263646 269.05724 
L 130.398313 269.05724 
L 130.398313 268.805031 
L 130.531948 268.805031 
L 130.531948 268.300613 
L 130.664567 268.300613 
L 130.664567 268.174509 
L 130.796184 268.174509 
L 130.796184 267.543986 
L 130.926816 267.543986 
L 130.926816 267.417882 
L 131.312942 267.417882 
L 131.312942 267.291777 
L 131.439773 267.291777 
L 131.439773 267.165673 
L 131.565689 267.165673 
L 131.565689 267.039568 
L 131.690703 267.039568 
L 131.690703 266.78736 
L 131.938072 266.78736 
L 131.938072 266.661255 
L 132.060454 266.661255 
L 132.060454 266.535151 
L 132.30267 266.535151 
L 132.30267 265.904628 
L 132.541568 265.904628 
L 132.541568 265.652419 
L 132.893889 265.652419 
L 132.893889 265.526315 
L 133.009765 265.526315 
L 133.009765 265.274106 
L 133.239232 265.274106 
L 133.239232 264.895792 
L 133.352844 264.895792 
L 133.352844 264.26527 
L 133.57787 264.26527 
L 133.57787 264.139166 
L 133.910056 264.139166 
L 134.019394 263.382539 
L 134.12805 263.382539 
L 134.12805 263.13033 
L 134.343353 263.13033 
L 134.450015 262.373703 
L 134.55603 262.373703 
L 134.55603 262.121494 
L 134.766144 262.121494 
L 134.870259 261.490972 
L 135.076644 261.490972 
L 135.076644 261.364867 
L 135.381712 261.364867 
L 135.482227 260.860449 
L 135.582166 260.860449 
L 135.681535 260.103822 
L 136.170062 260.103822 
L 136.170062 259.977718 
L 136.645276 259.977718 
L 136.645276 259.599405 
L 136.924311 259.599405 
L 137.016339 259.094987 
L 137.107884 259.094987 
L 137.107884 258.842778 
L 137.37967 258.842778 
L 137.469333 258.464464 
L 137.558536 258.464464 
L 137.558536 258.33836 
L 138.084384 258.33836 
L 138.084384 258.212255 
L 138.256201 258.212255 
L 138.341479 257.581733 
L 138.426341 257.581733 
L 138.510793 257.20342 
L 138.594838 257.20342 
L 138.67848 256.825106 
L 139.009092 256.825106 
L 139.090775 256.320688 
L 139.172077 256.320688 
L 139.253002 254.933539 
L 139.333553 254.933539 
L 139.413734 254.555226 
L 139.493548 254.555226 
L 139.572998 253.924703 
L 140.042245 253.924703 
L 140.042245 253.798599 
L 140.195896 253.798599 
L 140.195896 253.54639 
L 140.499195 253.54639 
L 140.574203 253.294181 
L 140.64889 253.294181 
L 140.723258 253.041972 
L 140.944478 253.041972 
L 140.944478 252.789763 
L 141.162927 252.789763 
L 141.162927 252.663659 
L 141.307054 252.663659 
L 141.307054 252.41145 
L 141.45 252.41145 
L 141.521035 252.033136 
L 141.591783 252.033136 
L 141.591783 251.654823 
L 141.80232 251.654823 
L 141.871938 251.276509 
L 141.941279 251.276509 
L 142.010346 250.772091 
L 142.147664 250.772091 
L 142.147664 250.519883 
L 142.553247 250.519883 
L 142.553247 250.267674 
L 142.686372 250.267674 
L 142.686372 250.141569 
L 142.949611 250.141569 
L 143.014805 249.637151 
L 143.208936 249.637151 
L 143.273169 249.384942 
L 143.337167 249.384942 
L 143.40093 249.006629 
L 143.527762 249.006629 
L 143.590833 248.502211 
L 143.716296 248.502211 
L 143.778691 247.997793 
L 143.840863 247.997793 
L 143.840863 247.871689 
L 144.148442 247.871689 
L 144.148442 247.745584 
L 144.510517 247.745584 
L 144.510517 247.61948 
L 144.629556 247.61948 
L 144.688773 247.241166 
L 145.212864 247.241166 
L 145.212864 246.988957 
L 145.440832 246.988957 
L 145.497361 246.23233 
L 145.553708 246.23233 
L 145.553708 246.106226 
L 145.665858 246.106226 
L 145.721664 245.727913 
L 146.107383 245.727913 
L 146.107383 245.601808 
L 146.431341 245.601808 
L 146.484754 245.223495 
L 146.906268 245.223495 
L 147.010073 244.719077 
L 147.317833 244.719077 
L 147.368603 244.214659 
L 147.670154 244.214659 
L 147.670154 243.96245 
L 147.818997 243.96245 
L 147.917524 243.584137 
L 147.96658 243.584137 
L 147.96658 243.331928 
L 148.112924 243.331928 
L 148.161434 242.82751 
L 148.449693 242.82751 
L 148.449693 242.701405 
L 149.058374 242.701405 
L 149.15016 242.449196 
L 149.195872 242.449196 
L 149.286939 241.944778 
L 149.377533 241.944778 
L 149.422654 241.566465 
L 149.60198 241.566465 
L 149.646525 240.809838 
L 149.955193 240.809838 
L 149.955193 240.557629 
L 150.085825 240.557629 
L 150.172372 240.179316 
L 150.38688 240.179316 
L 150.38688 239.927107 
L 150.973835 239.927107 
L 150.973835 239.674898 
L 151.779487 239.674898 
L 151.779487 239.422689 
L 151.936246 239.422689 
L 152.0141 238.539958 
L 152.052897 238.539958 
L 152.052897 238.413853 
L 152.283884 238.413853 
L 152.283884 238.161644 
L 152.398241 238.161644 
L 152.398241 238.03554 
L 152.549559 238.03554 
L 152.549559 237.783331 
L 152.662192 237.783331 
L 152.736878 237.531122 
L 153.142033 237.531122 
L 153.142033 237.152808 
L 153.573542 237.152808 
L 153.573542 236.774495 
L 153.750233 236.774495 
L 153.750233 236.522286 
L 154.029268 236.522286 
L 154.029268 236.270077 
L 154.201424 236.270077 
L 154.269814 235.891764 
L 155.0376 235.891764 
L 155.0376 235.639555 
L 155.296925 235.639555 
L 155.329071 235.261241 
L 155.86668 235.261241 
L 155.86668 235.009032 
L 156.052535 235.009032 
L 156.144725 234.504615 
L 156.327657 234.504615 
L 156.418408 233.874092 
L 156.478647 233.874092 
L 156.478647 233.747988 
L 156.628341 233.747988 
L 156.628341 233.369674 
L 156.835778 233.369674 
L 156.835778 233.24357 
L 157.011638 233.24357 
L 157.098907 232.865256 
L 157.697862 232.865256 
L 157.697862 232.613047 
L 157.920731 232.613047 
L 157.920731 232.360839 
L 158.058592 232.360839 
L 158.113432 231.730316 
L 158.195371 231.730316 
L 158.195371 231.604212 
L 158.438903 231.604212 
L 158.51933 231.225898 
L 158.599388 231.225898 
L 158.67908 230.72148 
L 158.75841 230.72148 
L 158.83738 230.343167 
L 158.889829 230.343167 
L 158.942121 229.964854 
L 159.226956 229.964854 
L 159.226956 229.838749 
L 159.832723 229.838749 
L 159.832723 229.712645 
L 160.030058 229.712645 
L 160.030058 229.58654 
L 160.273627 229.58654 
L 160.321935 229.082122 
L 160.394148 229.082122 
L 160.394148 228.829913 
L 160.585265 228.829913 
L 160.585265 228.703809 
L 160.703658 228.703809 
L 160.703658 228.4516 
L 160.821253 228.4516 
L 160.821253 228.325495 
L 161.030947 228.325495 
L 161.12334 227.568869 
L 161.215247 227.568869 
L 161.238149 227.190555 
L 161.420284 227.190555 
L 161.420284 226.938346 
L 161.955547 226.938346 
L 162.065021 226.560033 
L 162.086834 226.560033 
L 162.086834 226.433928 
L 162.367945 226.433928 
L 162.367945 226.181719 
L 162.581141 226.181719 
L 162.581141 225.92951 
L 162.833584 225.92951 
L 162.833584 225.803406 
L 163.225959 225.803406 
L 163.225959 225.551197 
L 163.449152 225.551197 
L 163.449152 225.298988 
L 163.649606 225.298988 
L 163.649606 225.046779 
L 164.121498 225.046779 
L 164.121498 224.79457 
L 164.693955 224.79457 
L 164.787563 224.290152 
L 165.157053 224.290152 
L 165.175324 223.785734 
L 165.393091 223.785734 
L 165.429123 223.533525 
L 165.820633 223.533525 
L 165.820633 223.281316 
L 166.289413 223.281316 
L 166.289413 223.155212 
L 166.729224 223.155212 
L 166.729224 222.903003 
L 166.928532 222.903003 
L 166.928532 222.650794 
L 167.207042 222.650794 
L 167.207042 222.52469 
L 167.320442 222.52469 
L 167.320442 222.272481 
L 167.672117 222.272481 
L 167.719528 221.768063 
L 168.309168 221.768063 
L 168.309168 221.641958 
L 168.506396 221.641958 
L 168.506396 221.515854 
L 168.760989 221.515854 
L 168.760989 221.389749 
L 169.27373 221.389749 
L 169.27373 221.263645 
L 170.036379 221.263645 
L 170.036379 221.011436 
L 170.215104 221.011436 
L 170.215104 220.885332 
L 170.351349 220.885332 
L 170.459584 220.380914 
L 170.634045 220.380914 
L 170.660731 219.876496 
L 170.96472 219.876496 
L 170.96472 219.624287 
L 171.302098 219.624287 
L 171.404607 219.245973 
L 171.54458 219.245973 
L 171.54458 218.993764 
L 171.658273 218.993764 
L 171.658273 218.86766 
L 172.179258 218.86766 
L 172.215882 218.489347 
L 172.409924 218.489347 
L 172.409924 218.237138 
L 172.589897 218.237138 
L 172.589897 217.984929 
L 173.072554 217.984929 
L 173.072554 217.73272 
L 173.234351 217.73272 
L 173.303236 217.354406 
L 173.587362 217.354406 
L 173.587362 217.102197 
L 173.777957 217.102197 
L 173.777957 216.849988 
L 173.911252 216.849988 
L 173.911252 216.723884 
L 174.03255 216.723884 
L 174.07645 216.345571 
L 175.211544 216.345571 
L 175.211544 216.219466 
L 176.121974 216.219466 
L 176.121974 216.093362 
L 176.30621 216.093362 
L 176.34475 215.462839 
L 176.536182 215.462839 
L 176.536182 215.336735 
L 176.763161 215.336735 
L 176.763161 215.084526 
L 177.061275 215.084526 
L 177.061275 214.832317 
L 177.226752 214.832317 
L 177.226752 214.580108 
L 177.454007 214.580108 
L 177.454007 214.454003 
L 177.776137 214.454003 
L 177.79386 213.697377 
L 178.144586 213.697377 
L 178.144586 213.571272 
L 178.437256 213.571272 
L 178.53939 213.319063 
L 178.750267 213.319063 
L 178.750267 213.066854 
L 179.033027 213.066854 
L 179.033027 212.814645 
L 179.270634 212.814645 
L 179.376106 212.310227 
L 179.664896 212.310227 
L 179.760106 211.679705 
L 180.2131 211.679705 
L 180.2131 211.553601 
L 181.55553 211.553601 
L 181.605428 211.049183 
L 182.138181 211.049183 
L 182.138181 210.923078 
L 182.371348 210.923078 
L 182.371348 210.670869 
L 182.547572 210.670869 
L 182.635021 210.41866 
L 182.681928 210.41866 
L 182.681928 210.166451 
L 182.901377 210.166451 
L 182.940981 209.788138 
L 183.364365 209.788138 
L 183.428598 209.409825 
L 184.113812 209.409825 
L 184.113812 209.031511 
L 184.425399 209.031511 
L 184.425399 208.779302 
L 184.653996 208.779302 
L 184.749358 208.400989 
L 184.985507 208.400989 
L 184.985507 208.14878 
L 185.810104 208.14878 
L 185.899365 207.770466 
L 185.960468 207.770466 
L 186.026882 207.266048 
L 186.295479 207.266048 
L 186.295479 207.139944 
L 186.463296 207.139944 
L 186.517088 206.887735 
L 187.335442 206.887735 
L 187.335442 206.635526 
L 187.554422 206.635526 
L 187.554422 206.509422 
L 187.745678 206.509422 
L 187.745678 206.383317 
L 187.915041 206.383317 
L 187.915041 206.131108 
L 188.151376 206.131108 
L 188.156265 205.878899 
L 188.278065 205.878899 
L 188.278065 205.752795 
L 190.07124 205.752795 
L 190.145552 205.248377 
L 190.75421 205.248377 
L 190.75421 205.122272 
L 191.009291 205.122272 
L 191.009291 204.870064 
L 191.391144 204.870064 
L 191.411438 204.365646 
L 191.524655 204.365646 
L 191.524655 204.239541 
L 191.938852 204.239541 
L 191.938852 204.113437 
L 192.576451 204.113437 
L 192.674828 203.35681 
L 192.693684 203.35681 
L 192.693684 203.104601 
L 193.107106 203.104601 
L 193.107106 202.978496 
L 193.326563 202.978496 
L 193.395486 202.600183 
L 193.546882 202.600183 
L 193.546882 202.474079 
L 193.757362 202.474079 
L 193.803399 202.095765 
L 194.184696 202.095765 
L 194.277872 201.717452 
L 194.527326 201.717452 
L 194.527326 201.465243 
L 195.015778 201.465243 
L 195.101346 200.582511 
L 195.196294 200.582511 
L 195.284231 199.825885 
L 195.381422 199.825885 
L 195.381422 199.69978 
L 195.570999 199.69978 
L 195.570999 199.447571 
L 195.815353 199.447571 
L 195.903367 199.069258 
L 196.000295 199.069258 
L 196.099789 198.817049 
L 196.306283 198.817049 
L 196.397956 198.438735 
L 196.79569 198.438735 
L 196.79569 198.312631 
L 197.265938 198.312631 
L 197.265938 198.186526 
L 197.516412 198.186526 
L 197.516412 197.934318 
L 198.339897 197.934318 
L 198.345349 197.556004 
L 198.459456 197.556004 
L 198.459456 197.303795 
L 198.685454 197.303795 
L 198.685454 197.177691 
L 198.845107 197.177691 
L 198.845107 197.051586 
L 199.364397 197.051586 
L 199.364397 196.925482 
L 200.173218 196.925482 
L 200.263799 195.790541 
L 200.458056 195.790541 
L 200.458056 195.664437 
L 200.712159 195.664437 
L 200.712159 195.412228 
L 200.849645 195.412228 
L 200.941487 194.90781 
L 201.049195 194.90781 
L 201.049195 194.781706 
L 201.372967 194.781706 
L 201.46438 194.529497 
L 201.575712 194.529497 
L 201.602869 194.151183 
L 202.314052 194.151183 
L 202.314052 193.898974 
L 202.812687 193.898974 
L 202.812687 193.77287 
L 203.039066 193.77287 
L 203.039066 193.646765 
L 203.795066 193.646765 
L 203.846838 193.394557 
L 204.020936 193.394557 
L 204.09558 192.890139 
L 204.643557 192.890139 
L 204.643557 192.764034 
L 204.798625 192.764034 
L 204.798625 192.63793 
L 205.110232 192.63793 
L 205.110232 192.511825 
L 205.376346 192.511825 
L 205.376346 192.259616 
L 205.492523 192.259616 
L 205.564743 192.007407 
L 205.652807 192.007407 
L 205.652807 191.881303 
L 205.800969 191.881303 
L 205.809854 191.502989 
L 206.056824 191.502989 
L 206.056824 191.376885 
L 206.410546 191.376885 
L 206.410546 191.124676 
L 206.547325 191.124676 
L 206.617011 190.746363 
L 206.790857 190.746363 
L 206.790857 190.494154 
L 206.929696 190.494154 
L 207.009487 189.989736 
L 207.825963 189.989736 
L 207.841783 189.737527 
L 207.945832 189.737527 
L 207.945832 189.611422 
L 208.704014 189.611422 
L 208.704014 189.485318 
L 209.181995 189.485318 
L 209.266716 189.233109 
L 209.889332 189.233109 
L 209.906197 188.9809 
L 210.005646 188.9809 
L 210.005646 188.728691 
L 210.427885 188.728691 
L 210.44015 188.350378 
L 210.60152 188.350378 
L 210.60152 188.224273 
L 210.845467 188.224273 
L 210.845467 188.098169 
L 211.018967 188.098169 
L 211.018967 187.972064 
L 211.366042 187.972064 
L 211.366042 187.719855 
L 211.724072 187.719855 
L 211.743047 187.467646 
L 211.841381 187.467646 
L 211.841381 187.341542 
L 212.963587 187.341542 
L 212.963587 187.215437 
L 213.169832 187.215437 
L 213.278995 186.584915 
L 214.038994 186.584915 
L 214.038994 186.332706 
L 214.362919 186.332706 
L 214.362919 186.206602 
L 214.782127 186.206602 
L 214.782127 186.080497 
L 214.976462 186.080497 
L 214.976462 185.954393 
L 215.194606 185.954393 
L 215.194606 185.702184 
L 215.437695 185.702184 
L 215.537651 185.197766 
L 215.86909 185.197766 
L 215.86909 184.945557 
L 216.47321 184.945557 
L 216.47321 184.819452 
L 216.980494 184.819452 
L 216.980494 184.693348 
L 217.416002 184.693348 
L 217.416002 184.567243 
L 217.78019 184.567243 
L 217.78019 184.315034 
L 218.06317 184.315034 
L 218.167569 184.062826 
L 218.58927 184.062826 
L 218.600366 183.810617 
L 218.790451 183.810617 
L 218.790451 183.558408 
L 219.006017 183.558408 
L 219.006017 183.306199 
L 219.341224 183.306199 
L 219.341224 183.180094 
L 220.281965 183.180094 
L 220.281965 183.05399 
L 220.430097 183.05399 
L 220.430097 182.927885 
L 220.662095 182.927885 
L 220.741514 182.549572 
L 221.020009 182.549572 
L 221.020009 182.423467 
L 221.299975 182.423467 
L 221.321887 182.045154 
L 222.321203 182.045154 
L 222.321203 181.792945 
L 223.255896 181.792945 
L 223.332818 181.162423 
L 223.452093 181.162423 
L 223.452093 181.036318 
L 224.198204 181.036318 
L 224.198204 180.910214 
L 224.437334 180.910214 
L 224.489152 180.658005 
L 224.967678 180.658005 
L 224.967678 180.405796 
L 225.513393 180.405796 
L 225.590139 180.027482 
L 225.669395 180.027482 
L 225.735828 179.649169 
L 225.882558 179.649169 
L 225.882558 179.523065 
L 226.705784 179.523065 
L 226.705784 179.39696 
L 227.170732 179.39696 
L 227.170732 179.144751 
L 227.327657 179.144751 
L 227.327657 179.018647 
L 227.869041 179.018647 
L 227.952587 178.766438 
L 228.209704 178.766438 
L 228.209704 178.514229 
L 228.386337 178.514229 
L 228.386337 178.388124 
L 228.520666 178.388124 
L 228.520666 178.26202 
L 229.48983 178.26202 
L 229.48983 178.135915 
L 229.610962 178.135915 
L 229.617314 177.883706 
L 229.956047 177.883706 
L 229.956047 177.757602 
L 230.764127 177.757602 
L 230.764127 177.631497 
L 231.00835 177.631497 
L 231.00835 177.505393 
L 231.61386 177.505393 
L 231.630844 177.253184 
L 232.20609 177.253184 
L 232.268548 176.874871 
L 232.44842 176.874871 
L 232.44842 176.622662 
L 232.586708 176.622662 
L 232.586708 176.496557 
L 233.45471 176.496557 
L 233.56322 176.118244 
L 233.895051 176.118244 
L 233.895051 175.866035 
L 338.688 175.866035 
L 338.688 175.866035 
" style="fill:none;stroke:#ff00ff;stroke-linecap:square;stroke-width:1.5;"/>
   </g>
   <g id="line2d_41">
    <defs>
     <path d="M 0 8.485281 
L 5.091169 0 
L 0 -8.485281 
L -5.091169 0 
z
" id="md477b84a42" style="stroke:#ff00ff;stroke-linejoin:miter;stroke-width:1.5;"/>
    </defs>
    <g>
     <use style="fill-opacity:0;stroke:#ff00ff;stroke-linejoin:miter;stroke-width:1.5;" x="174.03255" xlink:href="#md477b84a42" y="216.597779"/>
     <use style="fill-opacity:0;stroke:#ff00ff;stroke-linejoin:miter;stroke-width:1.5;" x="231.630844" xlink:href="#md477b84a42" y="177.379288"/>
     <use style="fill-opacity:0;stroke:#ff00ff;stroke-linejoin:miter;stroke-width:1.5;" x="233.895051" xlink:href="#md477b84a42" y="175.866035"/>
     <use style="fill-opacity:0;stroke:#ff00ff;stroke-linejoin:miter;stroke-width:1.5;" x="233.895051" xlink:href="#md477b84a42" y="175.866035"/>
     <use style="fill-opacity:0;stroke:#ff00ff;stroke-linejoin:miter;stroke-width:1.5;" x="338.688" xlink:href="#md477b84a42" y="175.866035"/>
    </g>
   </g>
   <g id="line2d_42">
    <path style="fill:none;stroke:#ff00ff;stroke-linecap:square;stroke-width:1.5;"/>
    <g/>
   </g>
   <g id="line2d_43">
    <path clip-path="url(#pd8243994b2)" d="M 234.201515 175.866035 
" style="fill:none;stroke:#ff00ff;stroke-linecap:square;stroke-width:1.5;"/>
    <defs>
     <path d="M -12 12 
L 12 -12 
M -12 -12 
L 12 12 
" id="md2790bb9ca" style="stroke:#ff00ff;"/>
    </defs>
    <g clip-path="url(#pd8243994b2)">
     <use style="fill:#ff00ff;stroke:#ff00ff;" x="234.201515" xlink:href="#md2790bb9ca" y="175.866035"/>
    </g>
   </g>
   <g id="line2d_44">
    <path d="M 338.688 226.055615 
L 369.60768 293.092752 
" style="fill:none;stroke:#000080;stroke-linecap:square;stroke-width:1.5;"/>
    <g>
     <use style="fill-opacity:0;stroke:#000080;stroke-width:1.5;" x="338.688" xlink:href="#m939011ebe6" y="226.055615"/>
     <use style="fill-opacity:0;stroke:#000080;stroke-width:1.5;" x="369.60768" xlink:href="#m939011ebe6" y="293.092752"/>
    </g>
   </g>
   <g id="line2d_45">
    <path d="M 338.688 175.866035 
L 369.60768 152.662812 
" style="fill:none;stroke:#ff00ff;stroke-linecap:square;stroke-width:1.5;"/>
    <g>
     <use style="fill-opacity:0;stroke:#ff00ff;stroke-linejoin:miter;stroke-width:1.5;" x="338.688" xlink:href="#md477b84a42" y="175.866035"/>
     <use style="fill-opacity:0;stroke:#ff00ff;stroke-linejoin:miter;stroke-width:1.5;" x="369.60768" xlink:href="#md477b84a42" y="152.662812"/>
    </g>
   </g>
   <g id="line2d_46">
    <path d="M 338.688 298.944 
L 338.688 6.381624 
" style="fill:none;stroke:#000000;stroke-linecap:square;stroke-width:1.5;"/>
   </g>
   <g id="patch_3">
    <path d="M 57.6 298.944 
L 57.6 3.456 
" style="fill:none;stroke:#000000;stroke-linecap:square;stroke-linejoin:miter;stroke-width:0.8;"/>
   </g>
   <g id="patch_4">
    <path d="M 338.688 298.944 
L 338.688 3.456 
" style="fill:none;stroke:#000000;stroke-linecap:square;stroke-linejoin:miter;stroke-width:0.8;"/>
   </g>
   <g id="patch_5">
    <path d="M 57.6 298.944 
L 338.688 298.944 
" style="fill:none;stroke:#000000;stroke-linecap:square;stroke-linejoin:miter;stroke-width:0.8;"/>
   </g>
   <g id="patch_6">
    <path d="M 57.6 3.456 
L 338.688 3.456 
" style="fill:none;stroke:#000000;stroke-linecap:square;stroke-linejoin:miter;stroke-width:0.8;"/>
   </g>
   <g id="text_13">
    <!-- DMS Brock -->
    <g transform="translate(375.22944 297.78369)scale(0.17 -0.17)">
     <defs>
      <path d="M 1259 4147 
L 1259 519 
L 2022 519 
Q 2988 519 3436 956 
Q 3884 1394 3884 2338 
Q 3884 3275 3436 3711 
Q 2988 4147 2022 4147 
L 1259 4147 
z
M 628 4666 
L 1925 4666 
Q 3281 4666 3915 4102 
Q 4550 3538 4550 2338 
Q 4550 1131 3912 565 
Q 3275 0 1925 0 
L 628 0 
L 628 4666 
z
" id="DejaVuSans-44" transform="scale(0.015625)"/>
      <path d="M 628 4666 
L 1569 4666 
L 2759 1491 
L 3956 4666 
L 4897 4666 
L 4897 0 
L 4281 0 
L 4281 4097 
L 3078 897 
L 2444 897 
L 1241 4097 
L 1241 0 
L 628 0 
L 628 4666 
z
" id="DejaVuSans-4d" transform="scale(0.015625)"/>
      <path d="M 3425 4513 
L 3425 3897 
Q 3066 4069 2747 4153 
Q 2428 4238 2131 4238 
Q 1616 4238 1336 4038 
Q 1056 3838 1056 3469 
Q 1056 3159 1242 3001 
Q 1428 2844 1947 2747 
L 2328 2669 
Q 3034 2534 3370 2195 
Q 3706 1856 3706 1288 
Q 3706 609 3251 259 
Q 2797 -91 1919 -91 
Q 1588 -91 1214 -16 
Q 841 59 441 206 
L 441 856 
Q 825 641 1194 531 
Q 1563 422 1919 422 
Q 2459 422 2753 634 
Q 3047 847 3047 1241 
Q 3047 1584 2836 1778 
Q 2625 1972 2144 2069 
L 1759 2144 
Q 1053 2284 737 2584 
Q 422 2884 422 3419 
Q 422 4038 858 4394 
Q 1294 4750 2059 4750 
Q 2388 4750 2728 4690 
Q 3069 4631 3425 4513 
z
" id="DejaVuSans-53" transform="scale(0.015625)"/>
      <path d="M 1259 2228 
L 1259 519 
L 2272 519 
Q 2781 519 3026 730 
Q 3272 941 3272 1375 
Q 3272 1813 3026 2020 
Q 2781 2228 2272 2228 
L 1259 2228 
z
M 1259 4147 
L 1259 2741 
L 2194 2741 
Q 2656 2741 2882 2914 
Q 3109 3088 3109 3444 
Q 3109 3797 2882 3972 
Q 2656 4147 2194 4147 
L 1259 4147 
z
M 628 4666 
L 2241 4666 
Q 2963 4666 3353 4366 
Q 3744 4066 3744 3513 
Q 3744 3084 3544 2831 
Q 3344 2578 2956 2516 
Q 3422 2416 3680 2098 
Q 3938 1781 3938 1306 
Q 3938 681 3513 340 
Q 3088 0 2303 0 
L 628 0 
L 628 4666 
z
" id="DejaVuSans-42" transform="scale(0.015625)"/>
      <path d="M 581 4863 
L 1159 4863 
L 1159 1991 
L 2875 3500 
L 3609 3500 
L 1753 1863 
L 3688 0 
L 2938 0 
L 1159 1709 
L 1159 0 
L 581 0 
L 581 4863 
z
" id="DejaVuSans-6b" transform="scale(0.015625)"/>
     </defs>
     <use xlink:href="#DejaVuSans-44"/>
     <use x="77.001953" xlink:href="#DejaVuSans-4d"/>
     <use x="163.28125" xlink:href="#DejaVuSans-53"/>
     <use x="226.757812" xlink:href="#DejaVuSans-20"/>
     <use x="258.544922" xlink:href="#DejaVuSans-42"/>
     <use x="327.148438" xlink:href="#DejaVuSans-72"/>
     <use x="366.011719" xlink:href="#DejaVuSans-6f"/>
     <use x="427.193359" xlink:href="#DejaVuSans-63"/>
     <use x="482.173828" xlink:href="#DejaVuSans-6b"/>
    </g>
   </g>
   <g id="text_14">
    <!-- MultiGLOD -->
    <g transform="translate(375.22944 157.353749)scale(0.17 -0.17)">
     <defs>
      <path d="M 3809 666 
L 3809 1919 
L 2778 1919 
L 2778 2438 
L 4434 2438 
L 4434 434 
Q 4069 175 3628 42 
Q 3188 -91 2688 -91 
Q 1594 -91 976 548 
Q 359 1188 359 2328 
Q 359 3472 976 4111 
Q 1594 4750 2688 4750 
Q 3144 4750 3555 4637 
Q 3966 4525 4313 4306 
L 4313 3634 
Q 3963 3931 3569 4081 
Q 3175 4231 2741 4231 
Q 1884 4231 1454 3753 
Q 1025 3275 1025 2328 
Q 1025 1384 1454 906 
Q 1884 428 2741 428 
Q 3075 428 3337 486 
Q 3600 544 3809 666 
z
" id="DejaVuSans-47" transform="scale(0.015625)"/>
      <path d="M 628 4666 
L 1259 4666 
L 1259 531 
L 3531 531 
L 3531 0 
L 628 0 
L 628 4666 
z
" id="DejaVuSans-4c" transform="scale(0.015625)"/>
      <path d="M 2522 4238 
Q 1834 4238 1429 3725 
Q 1025 3213 1025 2328 
Q 1025 1447 1429 934 
Q 1834 422 2522 422 
Q 3209 422 3611 934 
Q 4013 1447 4013 2328 
Q 4013 3213 3611 3725 
Q 3209 4238 2522 4238 
z
M 2522 4750 
Q 3503 4750 4090 4092 
Q 4678 3434 4678 2328 
Q 4678 1225 4090 567 
Q 3503 -91 2522 -91 
Q 1538 -91 948 565 
Q 359 1222 359 2328 
Q 359 3434 948 4092 
Q 1538 4750 2522 4750 
z
" id="DejaVuSans-4f" transform="scale(0.015625)"/>
     </defs>
     <use xlink:href="#DejaVuSans-4d"/>
     <use x="86.279297" xlink:href="#DejaVuSans-75"/>
     <use x="149.658203" xlink:href="#DejaVuSans-6c"/>
     <use x="177.441406" xlink:href="#DejaVuSans-74"/>
     <use x="216.650391" xlink:href="#DejaVuSans-69"/>
     <use x="244.433594" xlink:href="#DejaVuSans-47"/>
     <use x="321.923828" xlink:href="#DejaVuSans-4c"/>
     <use x="374.011719" xlink:href="#DejaVuSans-4f"/>
     <use x="452.722656" xlink:href="#DejaVuSans-44"/>
    </g>
   </g>
   <g id="text_15">
    <!-- best 2016 -->
    <g transform="translate(375.22944 16.923809)scale(0.17 -0.17)">
     <defs>
      <path d="M 3116 1747 
Q 3116 2381 2855 2742 
Q 2594 3103 2138 3103 
Q 1681 3103 1420 2742 
Q 1159 2381 1159 1747 
Q 1159 1113 1420 752 
Q 1681 391 2138 391 
Q 2594 391 2855 752 
Q 3116 1113 3116 1747 
z
M 1159 2969 
Q 1341 3281 1617 3432 
Q 1894 3584 2278 3584 
Q 2916 3584 3314 3078 
Q 3713 2572 3713 1747 
Q 3713 922 3314 415 
Q 2916 -91 2278 -91 
Q 1894 -91 1617 61 
Q 1341 213 1159 525 
L 1159 0 
L 581 0 
L 581 4863 
L 1159 4863 
L 1159 2969 
z
" id="DejaVuSans-62" transform="scale(0.015625)"/>
     </defs>
     <use xlink:href="#DejaVuSans-62"/>
     <use x="63.476562" xlink:href="#DejaVuSans-65"/>
     <use x="125" xlink:href="#DejaVuSans-73"/>
     <use x="177.099609" xlink:href="#DejaVuSans-74"/>
     <use x="216.308594" xlink:href="#DejaVuSans-20"/>
     <use x="248.095703" xlink:href="#DejaVuSans-32"/>
     <use x="311.71875" xlink:href="#DejaVuSans-30"/>
     <use x="375.341797" xlink:href="#DejaVuSans-31"/>
     <use x="438.964844" xlink:href="#DejaVuSans-36"/>
    </g>
   </g>
   <g id="text_16">
    <!-- bbob-biobj f37, f38, f42, f43, 2-D -->
    <g transform="translate(60.41088 14.161286)scale(0.102 -0.102)">
     <defs>
      <path d="M 603 3500 
L 1178 3500 
L 1178 -63 
Q 1178 -731 923 -1031 
Q 669 -1331 103 -1331 
L -116 -1331 
L -116 -844 
L 38 -844 
Q 366 -844 484 -692 
Q 603 -541 603 -63 
L 603 3500 
z
M 603 4863 
L 1178 4863 
L 1178 4134 
L 603 4134 
L 603 4863 
z
" id="DejaVuSans-6a" transform="scale(0.015625)"/>
      <path d="M 2597 2516 
Q 3050 2419 3304 2112 
Q 3559 1806 3559 1356 
Q 3559 666 3084 287 
Q 2609 -91 1734 -91 
Q 1441 -91 1130 -33 
Q 819 25 488 141 
L 488 750 
Q 750 597 1062 519 
Q 1375 441 1716 441 
Q 2309 441 2620 675 
Q 2931 909 2931 1356 
Q 2931 1769 2642 2001 
Q 2353 2234 1838 2234 
L 1294 2234 
L 1294 2753 
L 1863 2753 
Q 2328 2753 2575 2939 
Q 2822 3125 2822 3475 
Q 2822 3834 2567 4026 
Q 2313 4219 1838 4219 
Q 1578 4219 1281 4162 
Q 984 4106 628 3988 
L 628 4550 
Q 988 4650 1302 4700 
Q 1616 4750 1894 4750 
Q 2613 4750 3031 4423 
Q 3450 4097 3450 3541 
Q 3450 3153 3228 2886 
Q 3006 2619 2597 2516 
z
" id="DejaVuSans-33" transform="scale(0.015625)"/>
      <path d="M 525 4666 
L 3525 4666 
L 3525 4397 
L 1831 0 
L 1172 0 
L 2766 4134 
L 525 4134 
L 525 4666 
z
" id="DejaVuSans-37" transform="scale(0.015625)"/>
     </defs>
     <use xlink:href="#DejaVuSans-62"/>
     <use x="63.476562" xlink:href="#DejaVuSans-62"/>
     <use x="126.953125" xlink:href="#DejaVuSans-6f"/>
     <use x="188.134766" xlink:href="#DejaVuSans-62"/>
     <use x="251.611328" xlink:href="#DejaVuSans-2d"/>
     <use x="287.695312" xlink:href="#DejaVuSans-62"/>
     <use x="351.171875" xlink:href="#DejaVuSans-69"/>
     <use x="378.955078" xlink:href="#DejaVuSans-6f"/>
     <use x="440.136719" xlink:href="#DejaVuSans-62"/>
     <use x="503.613281" xlink:href="#DejaVuSans-6a"/>
     <use x="531.396484" xlink:href="#DejaVuSans-20"/>
     <use x="563.183594" xlink:href="#DejaVuSans-66"/>
     <use x="598.388672" xlink:href="#DejaVuSans-33"/>
     <use x="662.011719" xlink:href="#DejaVuSans-37"/>
     <use x="725.634766" xlink:href="#DejaVuSans-2c"/>
     <use x="757.421875" xlink:href="#DejaVuSans-20"/>
     <use x="789.208984" xlink:href="#DejaVuSans-66"/>
     <use x="824.414062" xlink:href="#DejaVuSans-33"/>
     <use x="888.037109" xlink:href="#DejaVuSans-38"/>
     <use x="951.660156" xlink:href="#DejaVuSans-2c"/>
     <use x="983.447266" xlink:href="#DejaVuSans-20"/>
     <use x="1015.234375" xlink:href="#DejaVuSans-66"/>
     <use x="1050.439453" xlink:href="#DejaVuSans-34"/>
     <use x="1114.0625" xlink:href="#DejaVuSans-32"/>
     <use x="1177.685547" xlink:href="#DejaVuSans-2c"/>
     <use x="1209.472656" xlink:href="#DejaVuSans-20"/>
     <use x="1241.259766" xlink:href="#DejaVuSans-66"/>
     <use x="1276.464844" xlink:href="#DejaVuSans-34"/>
     <use x="1340.087891" xlink:href="#DejaVuSans-33"/>
     <use x="1403.710938" xlink:href="#DejaVuSans-2c"/>
     <use x="1435.498047" xlink:href="#DejaVuSans-20"/>
     <use x="1467.285156" xlink:href="#DejaVuSans-32"/>
     <use x="1530.908203" xlink:href="#DejaVuSans-2d"/>
     <use x="1566.992188" xlink:href="#DejaVuSans-44"/>
    </g>
    <!-- 58 targets: 1..-1.0e-4 -->
    <g transform="translate(60.41088 25.583055)scale(0.102 -0.102)">
     <defs>
      <path d="M 691 4666 
L 3169 4666 
L 3169 4134 
L 1269 4134 
L 1269 2991 
Q 1406 3038 1543 3061 
Q 1681 3084 1819 3084 
Q 2600 3084 3056 2656 
Q 3513 2228 3513 1497 
Q 3513 744 3044 326 
Q 2575 -91 1722 -91 
Q 1428 -91 1123 -41 
Q 819 9 494 109 
L 494 744 
Q 775 591 1075 516 
Q 1375 441 1709 441 
Q 2250 441 2565 725 
Q 2881 1009 2881 1497 
Q 2881 1984 2565 2268 
Q 2250 2553 1709 2553 
Q 1456 2553 1204 2497 
Q 953 2441 691 2322 
L 691 4666 
z
" id="DejaVuSans-35" transform="scale(0.015625)"/>
      <path d="M 750 794 
L 1409 794 
L 1409 0 
L 750 0 
L 750 794 
z
M 750 3309 
L 1409 3309 
L 1409 2516 
L 750 2516 
L 750 3309 
z
" id="DejaVuSans-3a" transform="scale(0.015625)"/>
     </defs>
     <use xlink:href="#DejaVuSans-35"/>
     <use x="63.623047" xlink:href="#DejaVuSans-38"/>
     <use x="127.246094" xlink:href="#DejaVuSans-20"/>
     <use x="159.033203" xlink:href="#DejaVuSans-74"/>
     <use x="198.242188" xlink:href="#DejaVuSans-61"/>
     <use x="259.521484" xlink:href="#DejaVuSans-72"/>
     <use x="298.884766" xlink:href="#DejaVuSans-67"/>
     <use x="362.361328" xlink:href="#DejaVuSans-65"/>
     <use x="423.884766" xlink:href="#DejaVuSans-74"/>
     <use x="463.09375" xlink:href="#DejaVuSans-73"/>
     <use x="515.193359" xlink:href="#DejaVuSans-3a"/>
     <use x="548.884766" xlink:href="#DejaVuSans-20"/>
     <use x="580.671875" xlink:href="#DejaVuSans-31"/>
     <use x="644.294922" xlink:href="#DejaVuSans-2e"/>
     <use x="676.082031" xlink:href="#DejaVuSans-2e"/>
     <use x="707.869141" xlink:href="#DejaVuSans-2d"/>
     <use x="743.953125" xlink:href="#DejaVuSans-31"/>
     <use x="807.576172" xlink:href="#DejaVuSans-2e"/>
     <use x="839.363281" xlink:href="#DejaVuSans-30"/>
     <use x="902.986328" xlink:href="#DejaVuSans-65"/>
     <use x="964.509766" xlink:href="#DejaVuSans-2d"/>
     <use x="1000.59375" xlink:href="#DejaVuSans-34"/>
    </g>
    <!-- 10 instances -->
    <g transform="translate(60.41088 37.004824)scale(0.102 -0.102)">
     <use xlink:href="#DejaVuSans-31"/>
     <use x="63.623047" xlink:href="#DejaVuSans-30"/>
     <use x="127.246094" xlink:href="#DejaVuSans-20"/>
     <use x="159.033203" xlink:href="#DejaVuSans-69"/>
     <use x="186.816406" xlink:href="#DejaVuSans-6e"/>
     <use x="250.195312" xlink:href="#DejaVuSans-73"/>
     <use x="302.294922" xlink:href="#DejaVuSans-74"/>
     <use x="341.503906" xlink:href="#DejaVuSans-61"/>
     <use x="402.783203" xlink:href="#DejaVuSans-6e"/>
     <use x="466.162109" xlink:href="#DejaVuSans-63"/>
     <use x="521.142578" xlink:href="#DejaVuSans-65"/>
     <use x="582.666016" xlink:href="#DejaVuSans-73"/>
    </g>
   </g>
   <g id="text_17">
    <!-- v2.4.1.1, hv-hash=ff0e71e8cd978373 -->
    <g style="fill:#808080;" transform="translate(103.108062 293.909432)scale(0.1 -0.1)">
     <defs>
      <path d="M 3513 2113 
L 3513 0 
L 2938 0 
L 2938 2094 
Q 2938 2591 2744 2837 
Q 2550 3084 2163 3084 
Q 1697 3084 1428 2787 
Q 1159 2491 1159 1978 
L 1159 0 
L 581 0 
L 581 4863 
L 1159 4863 
L 1159 2956 
Q 1366 3272 1645 3428 
Q 1925 3584 2291 3584 
Q 2894 3584 3203 3211 
Q 3513 2838 3513 2113 
z
" id="DejaVuSans-68" transform="scale(0.015625)"/>
      <path d="M 678 2906 
L 4684 2906 
L 4684 2381 
L 678 2381 
L 678 2906 
z
M 678 1631 
L 4684 1631 
L 4684 1100 
L 678 1100 
L 678 1631 
z
" id="DejaVuSans-3d" transform="scale(0.015625)"/>
      <path d="M 703 97 
L 703 672 
Q 941 559 1184 500 
Q 1428 441 1663 441 
Q 2288 441 2617 861 
Q 2947 1281 2994 2138 
Q 2813 1869 2534 1725 
Q 2256 1581 1919 1581 
Q 1219 1581 811 2004 
Q 403 2428 403 3163 
Q 403 3881 828 4315 
Q 1253 4750 1959 4750 
Q 2769 4750 3195 4129 
Q 3622 3509 3622 2328 
Q 3622 1225 3098 567 
Q 2575 -91 1691 -91 
Q 1453 -91 1209 -44 
Q 966 3 703 97 
z
M 1959 2075 
Q 2384 2075 2632 2365 
Q 2881 2656 2881 3163 
Q 2881 3666 2632 3958 
Q 2384 4250 1959 4250 
Q 1534 4250 1286 3958 
Q 1038 3666 1038 3163 
Q 1038 2656 1286 2365 
Q 1534 2075 1959 2075 
z
" id="DejaVuSans-39" transform="scale(0.015625)"/>
     </defs>
     <use xlink:href="#DejaVuSans-76"/>
     <use x="59.179688" xlink:href="#DejaVuSans-32"/>
     <use x="122.802734" xlink:href="#DejaVuSans-2e"/>
     <use x="154.589844" xlink:href="#DejaVuSans-34"/>
     <use x="218.212891" xlink:href="#DejaVuSans-2e"/>
     <use x="250" xlink:href="#DejaVuSans-31"/>
     <use x="313.623047" xlink:href="#DejaVuSans-2e"/>
     <use x="345.410156" xlink:href="#DejaVuSans-31"/>
     <use x="409.033203" xlink:href="#DejaVuSans-2c"/>
     <use x="440.820312" xlink:href="#DejaVuSans-20"/>
     <use x="472.607422" xlink:href="#DejaVuSans-68"/>
     <use x="535.986328" xlink:href="#DejaVuSans-76"/>
     <use x="592.541016" xlink:href="#DejaVuSans-2d"/>
     <use x="628.625" xlink:href="#DejaVuSans-68"/>
     <use x="692.003906" xlink:href="#DejaVuSans-61"/>
     <use x="753.283203" xlink:href="#DejaVuSans-73"/>
     <use x="805.382812" xlink:href="#DejaVuSans-68"/>
     <use x="868.761719" xlink:href="#DejaVuSans-3d"/>
     <use x="952.550781" xlink:href="#DejaVuSans-66"/>
     <use x="987.755859" xlink:href="#DejaVuSans-66"/>
     <use x="1022.960938" xlink:href="#DejaVuSans-30"/>
     <use x="1086.583984" xlink:href="#DejaVuSans-65"/>
     <use x="1148.107422" xlink:href="#DejaVuSans-37"/>
     <use x="1211.730469" xlink:href="#DejaVuSans-31"/>
     <use x="1275.353516" xlink:href="#DejaVuSans-65"/>
     <use x="1336.876953" xlink:href="#DejaVuSans-38"/>
     <use x="1400.5" xlink:href="#DejaVuSans-63"/>
     <use x="1455.480469" xlink:href="#DejaVuSans-64"/>
     <use x="1518.957031" xlink:href="#DejaVuSans-39"/>
     <use x="1582.580078" xlink:href="#DejaVuSans-37"/>
     <use x="1646.203125" xlink:href="#DejaVuSans-38"/>
     <use x="1709.826172" xlink:href="#DejaVuSans-33"/>
     <use x="1773.449219" xlink:href="#DejaVuSans-37"/>
     <use x="1837.072266" xlink:href="#DejaVuSans-33"/>
    </g>
   </g>
  </g>
 </g>
 <defs>
  <clipPath id="pd8243994b2">
   <rect height="295.488" width="281.088" x="57.6" y="3.456"/>
  </clipPath>
 </defs>
</svg>
