<?xml version="1.0" encoding="utf-8" standalone="no"?>
<!DOCTYPE svg PUBLIC "-//W3C//DTD SVG 1.1//EN"
  "http://www.w3.org/Graphics/SVG/1.1/DTD/svg11.dtd">
<svg height="345.6pt" version="1.1" viewBox="0 0 460.8 345.6" width="460.8pt" xmlns="http://www.w3.org/2000/svg" xmlns:xlink="http://www.w3.org/1999/xlink">
 <metadata>
  <rdf:RDF xmlns:cc="http://creativecommons.org/ns#" xmlns:dc="http://purl.org/dc/elements/1.1/" xmlns:rdf="http://www.w3.org/1999/02/22-rdf-syntax-ns#">
   <cc:Work>
    <dc:type rdf:resource="http://purl.org/dc/dcmitype/StillImage"/>
    <dc:date>2022-03-29T13:08:49.395131</dc:date>
    <dc:format>image/svg+xml</dc:format>
    <dc:creator>
     <cc:Agent>
      <dc:title>Matplotlib v3.4.3, https://matplotlib.org/</dc:title>
     </cc:Agent>
    </dc:creator>
   </cc:Work>
  </rdf:RDF>
 </metadata>
 <defs>
  <style type="text/css">*{stroke-linecap:butt;stroke-linejoin:round;}</style>
 </defs>
 <g id="figure_1">
  <g id="patch_1">
   <path d="M 0 345.6 
L 460.8 345.6 
L 460.8 0 
L 0 0 
z
" style="fill:#ffffff;"/>
  </g>
  <g id="axes_1">
   <g id="patch_2">
    <path d="M 57.6 298.944 
L 338.688 298.944 
L 338.688 3.456 
L 57.6 3.456 
z
" style="fill:#ffffff;"/>
   </g>
   <g id="line2d_1">
    <path d="M 64.67102 298.944 
L 64.67102 297.262607 
L 69.687988 297.262607 
L 69.687988 295.581214 
L 79.447285 295.581214 
L 79.447285 293.899821 
L 81.775977 293.899821 
L 81.775977 290.537035 
L 83.830028 290.537035 
L 83.830028 283.811463 
L 91.535274 283.811463 
L 91.535274 280.448677 
L 103.623262 280.448677 
L 103.623262 277.085891 
L 107.009204 277.085891 
L 107.009204 275.404498 
L 116.621333 275.404498 
L 116.621333 273.723105 
L 124.92835 273.723105 
L 124.92835 270.36032 
L 130.664567 270.36032 
L 130.664567 265.316141 
L 131.690703 265.316141 
L 131.690703 260.271962 
L 137.37967 260.271962 
L 137.37967 258.590569 
L 146.216039 258.590569 
L 146.216039 255.227783 
L 148.639252 255.227783 
L 148.639252 251.864997 
L 149.998846 251.864997 
L 149.998846 246.820818 
L 153.609024 246.820818 
L 153.609024 245.139425 
L 158.412011 245.139425 
L 158.412011 241.776639 
L 159.354904 241.776639 
L 159.354904 238.413853 
L 161.465522 238.413853 
L 161.465522 236.73246 
L 164.486229 236.73246 
L 164.486229 235.051067 
L 166.945039 235.051067 
L 166.945039 230.006888 
L 169.288161 230.006888 
L 169.288161 226.644102 
L 172.434028 226.644102 
L 172.434028 223.281316 
L 172.744386 223.281316 
L 172.744386 219.918531 
L 175.149812 219.918531 
L 175.149812 216.555745 
L 178.048838 216.555745 
L 178.048838 211.511566 
L 179.065994 211.511566 
L 179.065994 208.14878 
L 179.917643 208.14878 
L 179.917643 203.104601 
L 183.632568 203.104601 
L 183.632568 199.741815 
L 184.0149 199.741815 
L 184.0149 198.060422 
L 185.584933 198.060422 
L 185.584933 194.697636 
L 188.509564 194.697636 
L 188.509564 189.653457 
L 190.101878 189.653457 
L 190.101878 186.290671 
L 190.61889 186.290671 
L 190.61889 182.927885 
L 194.53411 182.927885 
L 194.53411 179.565099 
L 195.61887 179.565099 
L 195.61887 176.202313 
L 195.780654 176.202313 
L 195.780654 174.52092 
L 199.489924 174.52092 
L 199.489924 172.839527 
L 200.849645 172.839527 
L 200.849645 171.158135 
L 201.255716 171.158135 
L 201.255716 166.113956 
L 203.92025 166.113956 
L 203.92025 161.069777 
L 204.698556 161.069777 
L 204.698556 157.706991 
L 205.474421 157.706991 
L 205.474421 152.662812 
L 209.214179 152.662812 
L 209.214179 150.981419 
L 209.548572 150.981419 
L 209.548572 149.300026 
L 210.800153 149.300026 
L 210.800153 147.618633 
L 213.473554 147.618633 
L 213.473554 142.574454 
L 213.912187 142.574454 
L 213.912187 137.530275 
L 216.003288 137.530275 
L 216.003288 132.486096 
L 217.90406 132.486096 
L 217.90406 129.12331 
L 218.567058 129.12331 
L 218.567058 127.441917 
L 220.176272 127.441917 
L 220.176272 124.079131 
L 221.496924 124.079131 
L 221.496924 119.034953 
L 222.678031 119.034953 
L 222.678031 117.35356 
L 223.840514 117.35356 
L 223.840514 113.990774 
L 225.822322 113.990774 
L 225.822322 112.309381 
L 227.146183 112.309381 
L 227.146183 108.946595 
L 227.865029 108.946595 
L 227.865029 103.902416 
L 233.648751 103.902416 
L 233.648751 102.221023 
L 236.731075 102.221023 
L 236.731075 100.53963 
L 239.396754 100.53963 
L 239.396754 95.495451 
L 239.600113 95.495451 
L 239.600113 90.451272 
L 241.921701 90.451272 
L 241.921701 87.088486 
L 245.260482 87.088486 
L 245.260482 85.407093 
L 246.713479 85.407093 
L 246.713479 80.362914 
L 247.772021 80.362914 
L 247.772021 77.000128 
L 249.470019 77.000128 
L 249.470019 71.955949 
L 250.415092 71.955949 
L 250.425826 65.230378 
L 251.235963 65.230378 
L 251.235963 63.548985 
L 252.035237 63.548985 
L 252.035237 60.186199 
L 253.145989 60.186199 
L 253.145989 56.823413 
L 253.810634 56.823413 
L 253.810634 55.14202 
L 254.996507 55.14202 
L 254.996507 50.097841 
L 256.216945 50.097841 
L 256.216945 46.735055 
L 259.447847 46.735055 
L 259.447847 41.690876 
L 338.688 41.690876 
L 338.688 41.690876 
" style="fill:none;stroke:#f5deb3;stroke-linecap:square;stroke-width:4;"/>
   </g>
   <g id="line2d_2">
    <defs>
     <path d="M 0 7.778175 
L 7.778175 0 
L 0 -7.778175 
L -7.778175 0 
z
" id="me425dc1ecf" style="stroke:#f5deb3;stroke-linejoin:miter;stroke-width:1.5;"/>
    </defs>
    <g>
     <use style="fill:#f5deb3;stroke:#f5deb3;stroke-linejoin:miter;stroke-width:1.5;" x="153.609024" xlink:href="#me425dc1ecf" y="245.139425"/>
     <use style="fill:#f5deb3;stroke:#f5deb3;stroke-linejoin:miter;stroke-width:1.5;" x="213.912187" xlink:href="#me425dc1ecf" y="142.574454"/>
     <use style="fill:#f5deb3;stroke:#f5deb3;stroke-linejoin:miter;stroke-width:1.5;" x="259.447847" xlink:href="#me425dc1ecf" y="46.735055"/>
     <use style="fill:#f5deb3;stroke:#f5deb3;stroke-linejoin:miter;stroke-width:1.5;" x="259.447847" xlink:href="#me425dc1ecf" y="41.690876"/>
     <use style="fill:#f5deb3;stroke:#f5deb3;stroke-linejoin:miter;stroke-width:1.5;" x="338.688" xlink:href="#me425dc1ecf" y="41.690876"/>
    </g>
   </g>
   <g id="line2d_3">
    <path style="fill:none;stroke:#f5deb3;stroke-linecap:square;stroke-width:4;"/>
    <g/>
   </g>
   <g id="line2d_4">
    <path d="M 338.688 41.690876 
L 369.60768 12.232871 
" style="fill:none;stroke:#f5deb3;stroke-linecap:square;stroke-width:4;"/>
    <g>
     <use style="fill:#f5deb3;stroke:#f5deb3;stroke-linejoin:miter;stroke-width:1.5;" x="338.688" xlink:href="#me425dc1ecf" y="41.690876"/>
     <use style="fill:#f5deb3;stroke:#f5deb3;stroke-linejoin:miter;stroke-width:1.5;" x="369.60768" xlink:href="#me425dc1ecf" y="12.232871"/>
    </g>
   </g>
   <g id="matplotlib.axis_1">
    <g id="xtick_1">
     <g id="line2d_5">
      <path clip-path="url(#pceee7e0850)" d="M 57.6 298.944 
L 57.6 3.456 
" style="fill:none;stroke:#b0b0b0;stroke-linecap:square;stroke-width:0.8;"/>
     </g>
     <g id="line2d_6">
      <defs>
       <path d="M 0 0 
L 0 3.5 
" id="m10344704f4" style="stroke:#000000;stroke-width:0.8;"/>
      </defs>
      <g>
       <use style="stroke:#000000;stroke-width:0.8;" x="57.6" xlink:href="#m10344704f4" y="298.944"/>
      </g>
     </g>
     <g id="text_1">
      <!-- 0 -->
      <g transform="translate(51.2375 321.140875)scale(0.2 -0.2)">
       <defs>
        <path d="M 2034 4250 
Q 1547 4250 1301 3770 
Q 1056 3291 1056 2328 
Q 1056 1369 1301 889 
Q 1547 409 2034 409 
Q 2525 409 2770 889 
Q 3016 1369 3016 2328 
Q 3016 3291 2770 3770 
Q 2525 4250 2034 4250 
z
M 2034 4750 
Q 2819 4750 3233 4129 
Q 3647 3509 3647 2328 
Q 3647 1150 3233 529 
Q 2819 -91 2034 -91 
Q 1250 -91 836 529 
Q 422 1150 422 2328 
Q 422 3509 836 4129 
Q 1250 4750 2034 4750 
z
" id="DejaVuSans-30" transform="scale(0.015625)"/>
       </defs>
       <use xlink:href="#DejaVuSans-30"/>
      </g>
     </g>
    </g>
    <g id="xtick_2">
     <g id="line2d_7">
      <path clip-path="url(#pceee7e0850)" d="M 137.910857 298.944 
L 137.910857 3.456 
" style="fill:none;stroke:#b0b0b0;stroke-linecap:square;stroke-width:0.8;"/>
     </g>
     <g id="line2d_8">
      <g>
       <use style="stroke:#000000;stroke-width:0.8;" x="137.910857" xlink:href="#m10344704f4" y="298.944"/>
      </g>
     </g>
     <g id="text_2">
      <!-- 2 -->
      <g transform="translate(131.548357 321.140875)scale(0.2 -0.2)">
       <defs>
        <path d="M 1228 531 
L 3431 531 
L 3431 0 
L 469 0 
L 469 531 
Q 828 903 1448 1529 
Q 2069 2156 2228 2338 
Q 2531 2678 2651 2914 
Q 2772 3150 2772 3378 
Q 2772 3750 2511 3984 
Q 2250 4219 1831 4219 
Q 1534 4219 1204 4116 
Q 875 4013 500 3803 
L 500 4441 
Q 881 4594 1212 4672 
Q 1544 4750 1819 4750 
Q 2544 4750 2975 4387 
Q 3406 4025 3406 3419 
Q 3406 3131 3298 2873 
Q 3191 2616 2906 2266 
Q 2828 2175 2409 1742 
Q 1991 1309 1228 531 
z
" id="DejaVuSans-32" transform="scale(0.015625)"/>
       </defs>
       <use xlink:href="#DejaVuSans-32"/>
      </g>
     </g>
    </g>
    <g id="xtick_3">
     <g id="line2d_9">
      <path clip-path="url(#pceee7e0850)" d="M 218.221714 298.944 
L 218.221714 3.456 
" style="fill:none;stroke:#b0b0b0;stroke-linecap:square;stroke-width:0.8;"/>
     </g>
     <g id="line2d_10">
      <g>
       <use style="stroke:#000000;stroke-width:0.8;" x="218.221714" xlink:href="#m10344704f4" y="298.944"/>
      </g>
     </g>
     <g id="text_3">
      <!-- 4 -->
      <g transform="translate(211.859214 321.140875)scale(0.2 -0.2)">
       <defs>
        <path d="M 2419 4116 
L 825 1625 
L 2419 1625 
L 2419 4116 
z
M 2253 4666 
L 3047 4666 
L 3047 1625 
L 3713 1625 
L 3713 1100 
L 3047 1100 
L 3047 0 
L 2419 0 
L 2419 1100 
L 313 1100 
L 313 1709 
L 2253 4666 
z
" id="DejaVuSans-34" transform="scale(0.015625)"/>
       </defs>
       <use xlink:href="#DejaVuSans-34"/>
      </g>
     </g>
    </g>
    <g id="xtick_4">
     <g id="line2d_11">
      <path clip-path="url(#pceee7e0850)" d="M 298.532571 298.944 
L 298.532571 3.456 
" style="fill:none;stroke:#b0b0b0;stroke-linecap:square;stroke-width:0.8;"/>
     </g>
     <g id="line2d_12">
      <g>
       <use style="stroke:#000000;stroke-width:0.8;" x="298.532571" xlink:href="#m10344704f4" y="298.944"/>
      </g>
     </g>
     <g id="text_4">
      <!-- 6 -->
      <g transform="translate(292.170071 321.140875)scale(0.2 -0.2)">
       <defs>
        <path d="M 2113 2584 
Q 1688 2584 1439 2293 
Q 1191 2003 1191 1497 
Q 1191 994 1439 701 
Q 1688 409 2113 409 
Q 2538 409 2786 701 
Q 3034 994 3034 1497 
Q 3034 2003 2786 2293 
Q 2538 2584 2113 2584 
z
M 3366 4563 
L 3366 3988 
Q 3128 4100 2886 4159 
Q 2644 4219 2406 4219 
Q 1781 4219 1451 3797 
Q 1122 3375 1075 2522 
Q 1259 2794 1537 2939 
Q 1816 3084 2150 3084 
Q 2853 3084 3261 2657 
Q 3669 2231 3669 1497 
Q 3669 778 3244 343 
Q 2819 -91 2113 -91 
Q 1303 -91 875 529 
Q 447 1150 447 2328 
Q 447 3434 972 4092 
Q 1497 4750 2381 4750 
Q 2619 4750 2861 4703 
Q 3103 4656 3366 4563 
z
" id="DejaVuSans-36" transform="scale(0.015625)"/>
       </defs>
       <use xlink:href="#DejaVuSans-36"/>
      </g>
     </g>
    </g>
    <g id="xtick_5">
     <g id="line2d_13">
      <path clip-path="url(#pceee7e0850)" d="M 97.755429 298.944 
L 97.755429 3.456 
" style="fill:none;stroke:#b0b0b0;stroke-linecap:square;stroke-width:0.8;"/>
     </g>
     <g id="line2d_14">
      <defs>
       <path d="M 0 0 
L 0 2 
" id="m52849f70bc" style="stroke:#000000;stroke-width:0.6;"/>
      </defs>
      <g>
       <use style="stroke:#000000;stroke-width:0.6;" x="97.755429" xlink:href="#m52849f70bc" y="298.944"/>
      </g>
     </g>
    </g>
    <g id="xtick_6">
     <g id="line2d_15">
      <path clip-path="url(#pceee7e0850)" d="M 178.066286 298.944 
L 178.066286 3.456 
" style="fill:none;stroke:#b0b0b0;stroke-linecap:square;stroke-width:0.8;"/>
     </g>
     <g id="line2d_16">
      <g>
       <use style="stroke:#000000;stroke-width:0.6;" x="178.066286" xlink:href="#m52849f70bc" y="298.944"/>
      </g>
     </g>
    </g>
    <g id="xtick_7">
     <g id="line2d_17">
      <path clip-path="url(#pceee7e0850)" d="M 258.377143 298.944 
L 258.377143 3.456 
" style="fill:none;stroke:#b0b0b0;stroke-linecap:square;stroke-width:0.8;"/>
     </g>
     <g id="line2d_18">
      <g>
       <use style="stroke:#000000;stroke-width:0.6;" x="258.377143" xlink:href="#m52849f70bc" y="298.944"/>
      </g>
     </g>
    </g>
    <g id="xtick_8">
     <g id="line2d_19">
      <path clip-path="url(#pceee7e0850)" d="M 338.688 298.944 
L 338.688 3.456 
" style="fill:none;stroke:#b0b0b0;stroke-linecap:square;stroke-width:0.8;"/>
     </g>
     <g id="line2d_20">
      <g>
       <use style="stroke:#000000;stroke-width:0.6;" x="338.688" xlink:href="#m52849f70bc" y="298.944"/>
      </g>
     </g>
    </g>
    <g id="text_5">
     <!-- log10(# f-evals / dimension) -->
     <g transform="translate(77.764078 342.217594)scale(0.17 -0.17)">
      <defs>
       <path d="M 603 4863 
L 1178 4863 
L 1178 0 
L 603 0 
L 603 4863 
z
" id="DejaVuSans-6c" transform="scale(0.015625)"/>
       <path d="M 1959 3097 
Q 1497 3097 1228 2736 
Q 959 2375 959 1747 
Q 959 1119 1226 758 
Q 1494 397 1959 397 
Q 2419 397 2687 759 
Q 2956 1122 2956 1747 
Q 2956 2369 2687 2733 
Q 2419 3097 1959 3097 
z
M 1959 3584 
Q 2709 3584 3137 3096 
Q 3566 2609 3566 1747 
Q 3566 888 3137 398 
Q 2709 -91 1959 -91 
Q 1206 -91 779 398 
Q 353 888 353 1747 
Q 353 2609 779 3096 
Q 1206 3584 1959 3584 
z
" id="DejaVuSans-6f" transform="scale(0.015625)"/>
       <path d="M 2906 1791 
Q 2906 2416 2648 2759 
Q 2391 3103 1925 3103 
Q 1463 3103 1205 2759 
Q 947 2416 947 1791 
Q 947 1169 1205 825 
Q 1463 481 1925 481 
Q 2391 481 2648 825 
Q 2906 1169 2906 1791 
z
M 3481 434 
Q 3481 -459 3084 -895 
Q 2688 -1331 1869 -1331 
Q 1566 -1331 1297 -1286 
Q 1028 -1241 775 -1147 
L 775 -588 
Q 1028 -725 1275 -790 
Q 1522 -856 1778 -856 
Q 2344 -856 2625 -561 
Q 2906 -266 2906 331 
L 2906 616 
Q 2728 306 2450 153 
Q 2172 0 1784 0 
Q 1141 0 747 490 
Q 353 981 353 1791 
Q 353 2603 747 3093 
Q 1141 3584 1784 3584 
Q 2172 3584 2450 3431 
Q 2728 3278 2906 2969 
L 2906 3500 
L 3481 3500 
L 3481 434 
z
" id="DejaVuSans-67" transform="scale(0.015625)"/>
       <path d="M 794 531 
L 1825 531 
L 1825 4091 
L 703 3866 
L 703 4441 
L 1819 4666 
L 2450 4666 
L 2450 531 
L 3481 531 
L 3481 0 
L 794 0 
L 794 531 
z
" id="DejaVuSans-31" transform="scale(0.015625)"/>
       <path d="M 1984 4856 
Q 1566 4138 1362 3434 
Q 1159 2731 1159 2009 
Q 1159 1288 1364 580 
Q 1569 -128 1984 -844 
L 1484 -844 
Q 1016 -109 783 600 
Q 550 1309 550 2009 
Q 550 2706 781 3412 
Q 1013 4119 1484 4856 
L 1984 4856 
z
" id="DejaVuSans-28" transform="scale(0.015625)"/>
       <path d="M 3272 2816 
L 2363 2816 
L 2100 1772 
L 3016 1772 
L 3272 2816 
z
M 2803 4594 
L 2478 3297 
L 3391 3297 
L 3719 4594 
L 4219 4594 
L 3897 3297 
L 4872 3297 
L 4872 2816 
L 3775 2816 
L 3519 1772 
L 4513 1772 
L 4513 1294 
L 3397 1294 
L 3072 0 
L 2572 0 
L 2894 1294 
L 1978 1294 
L 1656 0 
L 1153 0 
L 1478 1294 
L 494 1294 
L 494 1772 
L 1594 1772 
L 1856 2816 
L 850 2816 
L 850 3297 
L 1978 3297 
L 2297 4594 
L 2803 4594 
z
" id="DejaVuSans-23" transform="scale(0.015625)"/>
       <path id="DejaVuSans-20" transform="scale(0.015625)"/>
       <path d="M 2375 4863 
L 2375 4384 
L 1825 4384 
Q 1516 4384 1395 4259 
Q 1275 4134 1275 3809 
L 1275 3500 
L 2222 3500 
L 2222 3053 
L 1275 3053 
L 1275 0 
L 697 0 
L 697 3053 
L 147 3053 
L 147 3500 
L 697 3500 
L 697 3744 
Q 697 4328 969 4595 
Q 1241 4863 1831 4863 
L 2375 4863 
z
" id="DejaVuSans-66" transform="scale(0.015625)"/>
       <path d="M 313 2009 
L 1997 2009 
L 1997 1497 
L 313 1497 
L 313 2009 
z
" id="DejaVuSans-2d" transform="scale(0.015625)"/>
       <path d="M 3597 1894 
L 3597 1613 
L 953 1613 
Q 991 1019 1311 708 
Q 1631 397 2203 397 
Q 2534 397 2845 478 
Q 3156 559 3463 722 
L 3463 178 
Q 3153 47 2828 -22 
Q 2503 -91 2169 -91 
Q 1331 -91 842 396 
Q 353 884 353 1716 
Q 353 2575 817 3079 
Q 1281 3584 2069 3584 
Q 2775 3584 3186 3129 
Q 3597 2675 3597 1894 
z
M 3022 2063 
Q 3016 2534 2758 2815 
Q 2500 3097 2075 3097 
Q 1594 3097 1305 2825 
Q 1016 2553 972 2059 
L 3022 2063 
z
" id="DejaVuSans-65" transform="scale(0.015625)"/>
       <path d="M 191 3500 
L 800 3500 
L 1894 563 
L 2988 3500 
L 3597 3500 
L 2284 0 
L 1503 0 
L 191 3500 
z
" id="DejaVuSans-76" transform="scale(0.015625)"/>
       <path d="M 2194 1759 
Q 1497 1759 1228 1600 
Q 959 1441 959 1056 
Q 959 750 1161 570 
Q 1363 391 1709 391 
Q 2188 391 2477 730 
Q 2766 1069 2766 1631 
L 2766 1759 
L 2194 1759 
z
M 3341 1997 
L 3341 0 
L 2766 0 
L 2766 531 
Q 2569 213 2275 61 
Q 1981 -91 1556 -91 
Q 1019 -91 701 211 
Q 384 513 384 1019 
Q 384 1609 779 1909 
Q 1175 2209 1959 2209 
L 2766 2209 
L 2766 2266 
Q 2766 2663 2505 2880 
Q 2244 3097 1772 3097 
Q 1472 3097 1187 3025 
Q 903 2953 641 2809 
L 641 3341 
Q 956 3463 1253 3523 
Q 1550 3584 1831 3584 
Q 2591 3584 2966 3190 
Q 3341 2797 3341 1997 
z
" id="DejaVuSans-61" transform="scale(0.015625)"/>
       <path d="M 2834 3397 
L 2834 2853 
Q 2591 2978 2328 3040 
Q 2066 3103 1784 3103 
Q 1356 3103 1142 2972 
Q 928 2841 928 2578 
Q 928 2378 1081 2264 
Q 1234 2150 1697 2047 
L 1894 2003 
Q 2506 1872 2764 1633 
Q 3022 1394 3022 966 
Q 3022 478 2636 193 
Q 2250 -91 1575 -91 
Q 1294 -91 989 -36 
Q 684 19 347 128 
L 347 722 
Q 666 556 975 473 
Q 1284 391 1588 391 
Q 1994 391 2212 530 
Q 2431 669 2431 922 
Q 2431 1156 2273 1281 
Q 2116 1406 1581 1522 
L 1381 1569 
Q 847 1681 609 1914 
Q 372 2147 372 2553 
Q 372 3047 722 3315 
Q 1072 3584 1716 3584 
Q 2034 3584 2315 3537 
Q 2597 3491 2834 3397 
z
" id="DejaVuSans-73" transform="scale(0.015625)"/>
       <path d="M 1625 4666 
L 2156 4666 
L 531 -594 
L 0 -594 
L 1625 4666 
z
" id="DejaVuSans-2f" transform="scale(0.015625)"/>
       <path d="M 2906 2969 
L 2906 4863 
L 3481 4863 
L 3481 0 
L 2906 0 
L 2906 525 
Q 2725 213 2448 61 
Q 2172 -91 1784 -91 
Q 1150 -91 751 415 
Q 353 922 353 1747 
Q 353 2572 751 3078 
Q 1150 3584 1784 3584 
Q 2172 3584 2448 3432 
Q 2725 3281 2906 2969 
z
M 947 1747 
Q 947 1113 1208 752 
Q 1469 391 1925 391 
Q 2381 391 2643 752 
Q 2906 1113 2906 1747 
Q 2906 2381 2643 2742 
Q 2381 3103 1925 3103 
Q 1469 3103 1208 2742 
Q 947 2381 947 1747 
z
" id="DejaVuSans-64" transform="scale(0.015625)"/>
       <path d="M 603 3500 
L 1178 3500 
L 1178 0 
L 603 0 
L 603 3500 
z
M 603 4863 
L 1178 4863 
L 1178 4134 
L 603 4134 
L 603 4863 
z
" id="DejaVuSans-69" transform="scale(0.015625)"/>
       <path d="M 3328 2828 
Q 3544 3216 3844 3400 
Q 4144 3584 4550 3584 
Q 5097 3584 5394 3201 
Q 5691 2819 5691 2113 
L 5691 0 
L 5113 0 
L 5113 2094 
Q 5113 2597 4934 2840 
Q 4756 3084 4391 3084 
Q 3944 3084 3684 2787 
Q 3425 2491 3425 1978 
L 3425 0 
L 2847 0 
L 2847 2094 
Q 2847 2600 2669 2842 
Q 2491 3084 2119 3084 
Q 1678 3084 1418 2786 
Q 1159 2488 1159 1978 
L 1159 0 
L 581 0 
L 581 3500 
L 1159 3500 
L 1159 2956 
Q 1356 3278 1631 3431 
Q 1906 3584 2284 3584 
Q 2666 3584 2933 3390 
Q 3200 3197 3328 2828 
z
" id="DejaVuSans-6d" transform="scale(0.015625)"/>
       <path d="M 3513 2113 
L 3513 0 
L 2938 0 
L 2938 2094 
Q 2938 2591 2744 2837 
Q 2550 3084 2163 3084 
Q 1697 3084 1428 2787 
Q 1159 2491 1159 1978 
L 1159 0 
L 581 0 
L 581 3500 
L 1159 3500 
L 1159 2956 
Q 1366 3272 1645 3428 
Q 1925 3584 2291 3584 
Q 2894 3584 3203 3211 
Q 3513 2838 3513 2113 
z
" id="DejaVuSans-6e" transform="scale(0.015625)"/>
       <path d="M 513 4856 
L 1013 4856 
Q 1481 4119 1714 3412 
Q 1947 2706 1947 2009 
Q 1947 1309 1714 600 
Q 1481 -109 1013 -844 
L 513 -844 
Q 928 -128 1133 580 
Q 1338 1288 1338 2009 
Q 1338 2731 1133 3434 
Q 928 4138 513 4856 
z
" id="DejaVuSans-29" transform="scale(0.015625)"/>
      </defs>
      <use xlink:href="#DejaVuSans-6c"/>
      <use x="27.783203" xlink:href="#DejaVuSans-6f"/>
      <use x="88.964844" xlink:href="#DejaVuSans-67"/>
      <use x="152.441406" xlink:href="#DejaVuSans-31"/>
      <use x="216.064453" xlink:href="#DejaVuSans-30"/>
      <use x="279.6875" xlink:href="#DejaVuSans-28"/>
      <use x="318.701172" xlink:href="#DejaVuSans-23"/>
      <use x="402.490234" xlink:href="#DejaVuSans-20"/>
      <use x="434.277344" xlink:href="#DejaVuSans-66"/>
      <use x="463.982422" xlink:href="#DejaVuSans-2d"/>
      <use x="500.066406" xlink:href="#DejaVuSans-65"/>
      <use x="561.589844" xlink:href="#DejaVuSans-76"/>
      <use x="620.769531" xlink:href="#DejaVuSans-61"/>
      <use x="682.048828" xlink:href="#DejaVuSans-6c"/>
      <use x="709.832031" xlink:href="#DejaVuSans-73"/>
      <use x="761.931641" xlink:href="#DejaVuSans-20"/>
      <use x="793.71875" xlink:href="#DejaVuSans-2f"/>
      <use x="827.410156" xlink:href="#DejaVuSans-20"/>
      <use x="859.197266" xlink:href="#DejaVuSans-64"/>
      <use x="922.673828" xlink:href="#DejaVuSans-69"/>
      <use x="950.457031" xlink:href="#DejaVuSans-6d"/>
      <use x="1047.869141" xlink:href="#DejaVuSans-65"/>
      <use x="1109.392578" xlink:href="#DejaVuSans-6e"/>
      <use x="1172.771484" xlink:href="#DejaVuSans-73"/>
      <use x="1224.871094" xlink:href="#DejaVuSans-69"/>
      <use x="1252.654297" xlink:href="#DejaVuSans-6f"/>
      <use x="1313.835938" xlink:href="#DejaVuSans-6e"/>
      <use x="1377.214844" xlink:href="#DejaVuSans-29"/>
     </g>
    </g>
   </g>
   <g id="matplotlib.axis_2">
    <g id="ytick_1">
     <g id="line2d_21">
      <path clip-path="url(#pceee7e0850)" d="M 57.6 298.944 
L 338.688 298.944 
" style="fill:none;stroke:#b0b0b0;stroke-linecap:square;stroke-width:0.8;"/>
     </g>
     <g id="line2d_22">
      <defs>
       <path d="M 0 0 
L -3.5 0 
" id="m9910ac33f6" style="stroke:#000000;stroke-width:0.8;"/>
      </defs>
      <g>
       <use style="stroke:#000000;stroke-width:0.8;" x="57.6" xlink:href="#m9910ac33f6" y="298.944"/>
      </g>
     </g>
     <g id="text_6">
      <!-- 0.0 -->
      <g transform="translate(25.155 305.02275)scale(0.16 -0.16)">
       <defs>
        <path d="M 684 794 
L 1344 794 
L 1344 0 
L 684 0 
L 684 794 
z
" id="DejaVuSans-2e" transform="scale(0.015625)"/>
       </defs>
       <use xlink:href="#DejaVuSans-30"/>
       <use x="63.623047" xlink:href="#DejaVuSans-2e"/>
       <use x="95.410156" xlink:href="#DejaVuSans-30"/>
      </g>
     </g>
    </g>
    <g id="ytick_2">
     <g id="line2d_23">
      <path clip-path="url(#pceee7e0850)" d="M 57.6 240.431525 
L 338.688 240.431525 
" style="fill:none;stroke:#b0b0b0;stroke-linecap:square;stroke-width:0.8;"/>
     </g>
     <g id="line2d_24">
      <g>
       <use style="stroke:#000000;stroke-width:0.8;" x="57.6" xlink:href="#m9910ac33f6" y="240.431525"/>
      </g>
     </g>
     <g id="text_7">
      <!-- 0.2 -->
      <g transform="translate(25.155 246.510275)scale(0.16 -0.16)">
       <use xlink:href="#DejaVuSans-30"/>
       <use x="63.623047" xlink:href="#DejaVuSans-2e"/>
       <use x="95.410156" xlink:href="#DejaVuSans-32"/>
      </g>
     </g>
    </g>
    <g id="ytick_3">
     <g id="line2d_25">
      <path clip-path="url(#pceee7e0850)" d="M 57.6 181.91905 
L 338.688 181.91905 
" style="fill:none;stroke:#b0b0b0;stroke-linecap:square;stroke-width:0.8;"/>
     </g>
     <g id="line2d_26">
      <g>
       <use style="stroke:#000000;stroke-width:0.8;" x="57.6" xlink:href="#m9910ac33f6" y="181.91905"/>
      </g>
     </g>
     <g id="text_8">
      <!-- 0.4 -->
      <g transform="translate(25.155 187.9978)scale(0.16 -0.16)">
       <use xlink:href="#DejaVuSans-30"/>
       <use x="63.623047" xlink:href="#DejaVuSans-2e"/>
       <use x="95.410156" xlink:href="#DejaVuSans-34"/>
      </g>
     </g>
    </g>
    <g id="ytick_4">
     <g id="line2d_27">
      <path clip-path="url(#pceee7e0850)" d="M 57.6 123.406574 
L 338.688 123.406574 
" style="fill:none;stroke:#b0b0b0;stroke-linecap:square;stroke-width:0.8;"/>
     </g>
     <g id="line2d_28">
      <g>
       <use style="stroke:#000000;stroke-width:0.8;" x="57.6" xlink:href="#m9910ac33f6" y="123.406574"/>
      </g>
     </g>
     <g id="text_9">
      <!-- 0.6 -->
      <g transform="translate(25.155 129.485324)scale(0.16 -0.16)">
       <use xlink:href="#DejaVuSans-30"/>
       <use x="63.623047" xlink:href="#DejaVuSans-2e"/>
       <use x="95.410156" xlink:href="#DejaVuSans-36"/>
      </g>
     </g>
    </g>
    <g id="ytick_5">
     <g id="line2d_29">
      <path clip-path="url(#pceee7e0850)" d="M 57.6 64.894099 
L 338.688 64.894099 
" style="fill:none;stroke:#b0b0b0;stroke-linecap:square;stroke-width:0.8;"/>
     </g>
     <g id="line2d_30">
      <g>
       <use style="stroke:#000000;stroke-width:0.8;" x="57.6" xlink:href="#m9910ac33f6" y="64.894099"/>
      </g>
     </g>
     <g id="text_10">
      <!-- 0.8 -->
      <g transform="translate(25.155 70.972849)scale(0.16 -0.16)">
       <defs>
        <path d="M 2034 2216 
Q 1584 2216 1326 1975 
Q 1069 1734 1069 1313 
Q 1069 891 1326 650 
Q 1584 409 2034 409 
Q 2484 409 2743 651 
Q 3003 894 3003 1313 
Q 3003 1734 2745 1975 
Q 2488 2216 2034 2216 
z
M 1403 2484 
Q 997 2584 770 2862 
Q 544 3141 544 3541 
Q 544 4100 942 4425 
Q 1341 4750 2034 4750 
Q 2731 4750 3128 4425 
Q 3525 4100 3525 3541 
Q 3525 3141 3298 2862 
Q 3072 2584 2669 2484 
Q 3125 2378 3379 2068 
Q 3634 1759 3634 1313 
Q 3634 634 3220 271 
Q 2806 -91 2034 -91 
Q 1263 -91 848 271 
Q 434 634 434 1313 
Q 434 1759 690 2068 
Q 947 2378 1403 2484 
z
M 1172 3481 
Q 1172 3119 1398 2916 
Q 1625 2713 2034 2713 
Q 2441 2713 2670 2916 
Q 2900 3119 2900 3481 
Q 2900 3844 2670 4047 
Q 2441 4250 2034 4250 
Q 1625 4250 1398 4047 
Q 1172 3844 1172 3481 
z
" id="DejaVuSans-38" transform="scale(0.015625)"/>
       </defs>
       <use xlink:href="#DejaVuSans-30"/>
       <use x="63.623047" xlink:href="#DejaVuSans-2e"/>
       <use x="95.410156" xlink:href="#DejaVuSans-38"/>
      </g>
     </g>
    </g>
    <g id="ytick_6">
     <g id="line2d_31">
      <path clip-path="url(#pceee7e0850)" d="M 57.6 6.381624 
L 338.688 6.381624 
" style="fill:none;stroke:#b0b0b0;stroke-linecap:square;stroke-width:0.8;"/>
     </g>
     <g id="line2d_32">
      <g>
       <use style="stroke:#000000;stroke-width:0.8;" x="57.6" xlink:href="#m9910ac33f6" y="6.381624"/>
      </g>
     </g>
     <g id="text_11">
      <!-- 1.0 -->
      <g transform="translate(25.155 12.460374)scale(0.16 -0.16)">
       <use xlink:href="#DejaVuSans-31"/>
       <use x="63.623047" xlink:href="#DejaVuSans-2e"/>
       <use x="95.410156" xlink:href="#DejaVuSans-30"/>
      </g>
     </g>
    </g>
    <g id="text_12">
     <!-- Fraction of function,target pairs -->
     <g transform="translate(17.619531 285.585)rotate(-90)scale(0.17 -0.17)">
      <defs>
       <path d="M 628 4666 
L 3309 4666 
L 3309 4134 
L 1259 4134 
L 1259 2759 
L 3109 2759 
L 3109 2228 
L 1259 2228 
L 1259 0 
L 628 0 
L 628 4666 
z
" id="DejaVuSans-46" transform="scale(0.015625)"/>
       <path d="M 2631 2963 
Q 2534 3019 2420 3045 
Q 2306 3072 2169 3072 
Q 1681 3072 1420 2755 
Q 1159 2438 1159 1844 
L 1159 0 
L 581 0 
L 581 3500 
L 1159 3500 
L 1159 2956 
Q 1341 3275 1631 3429 
Q 1922 3584 2338 3584 
Q 2397 3584 2469 3576 
Q 2541 3569 2628 3553 
L 2631 2963 
z
" id="DejaVuSans-72" transform="scale(0.015625)"/>
       <path d="M 3122 3366 
L 3122 2828 
Q 2878 2963 2633 3030 
Q 2388 3097 2138 3097 
Q 1578 3097 1268 2742 
Q 959 2388 959 1747 
Q 959 1106 1268 751 
Q 1578 397 2138 397 
Q 2388 397 2633 464 
Q 2878 531 3122 666 
L 3122 134 
Q 2881 22 2623 -34 
Q 2366 -91 2075 -91 
Q 1284 -91 818 406 
Q 353 903 353 1747 
Q 353 2603 823 3093 
Q 1294 3584 2113 3584 
Q 2378 3584 2631 3529 
Q 2884 3475 3122 3366 
z
" id="DejaVuSans-63" transform="scale(0.015625)"/>
       <path d="M 1172 4494 
L 1172 3500 
L 2356 3500 
L 2356 3053 
L 1172 3053 
L 1172 1153 
Q 1172 725 1289 603 
Q 1406 481 1766 481 
L 2356 481 
L 2356 0 
L 1766 0 
Q 1100 0 847 248 
Q 594 497 594 1153 
L 594 3053 
L 172 3053 
L 172 3500 
L 594 3500 
L 594 4494 
L 1172 4494 
z
" id="DejaVuSans-74" transform="scale(0.015625)"/>
       <path d="M 544 1381 
L 544 3500 
L 1119 3500 
L 1119 1403 
Q 1119 906 1312 657 
Q 1506 409 1894 409 
Q 2359 409 2629 706 
Q 2900 1003 2900 1516 
L 2900 3500 
L 3475 3500 
L 3475 0 
L 2900 0 
L 2900 538 
Q 2691 219 2414 64 
Q 2138 -91 1772 -91 
Q 1169 -91 856 284 
Q 544 659 544 1381 
z
M 1991 3584 
L 1991 3584 
z
" id="DejaVuSans-75" transform="scale(0.015625)"/>
       <path d="M 750 794 
L 1409 794 
L 1409 256 
L 897 -744 
L 494 -744 
L 750 256 
L 750 794 
z
" id="DejaVuSans-2c" transform="scale(0.015625)"/>
       <path d="M 1159 525 
L 1159 -1331 
L 581 -1331 
L 581 3500 
L 1159 3500 
L 1159 2969 
Q 1341 3281 1617 3432 
Q 1894 3584 2278 3584 
Q 2916 3584 3314 3078 
Q 3713 2572 3713 1747 
Q 3713 922 3314 415 
Q 2916 -91 2278 -91 
Q 1894 -91 1617 61 
Q 1341 213 1159 525 
z
M 3116 1747 
Q 3116 2381 2855 2742 
Q 2594 3103 2138 3103 
Q 1681 3103 1420 2742 
Q 1159 2381 1159 1747 
Q 1159 1113 1420 752 
Q 1681 391 2138 391 
Q 2594 391 2855 752 
Q 3116 1113 3116 1747 
z
" id="DejaVuSans-70" transform="scale(0.015625)"/>
      </defs>
      <use xlink:href="#DejaVuSans-46"/>
      <use x="50.269531" xlink:href="#DejaVuSans-72"/>
      <use x="91.382812" xlink:href="#DejaVuSans-61"/>
      <use x="152.662109" xlink:href="#DejaVuSans-63"/>
      <use x="207.642578" xlink:href="#DejaVuSans-74"/>
      <use x="246.851562" xlink:href="#DejaVuSans-69"/>
      <use x="274.634766" xlink:href="#DejaVuSans-6f"/>
      <use x="335.816406" xlink:href="#DejaVuSans-6e"/>
      <use x="399.195312" xlink:href="#DejaVuSans-20"/>
      <use x="430.982422" xlink:href="#DejaVuSans-6f"/>
      <use x="492.164062" xlink:href="#DejaVuSans-66"/>
      <use x="527.369141" xlink:href="#DejaVuSans-20"/>
      <use x="559.15625" xlink:href="#DejaVuSans-66"/>
      <use x="594.361328" xlink:href="#DejaVuSans-75"/>
      <use x="657.740234" xlink:href="#DejaVuSans-6e"/>
      <use x="721.119141" xlink:href="#DejaVuSans-63"/>
      <use x="776.099609" xlink:href="#DejaVuSans-74"/>
      <use x="815.308594" xlink:href="#DejaVuSans-69"/>
      <use x="843.091797" xlink:href="#DejaVuSans-6f"/>
      <use x="904.273438" xlink:href="#DejaVuSans-6e"/>
      <use x="967.652344" xlink:href="#DejaVuSans-2c"/>
      <use x="999.439453" xlink:href="#DejaVuSans-74"/>
      <use x="1038.648438" xlink:href="#DejaVuSans-61"/>
      <use x="1099.927734" xlink:href="#DejaVuSans-72"/>
      <use x="1139.291016" xlink:href="#DejaVuSans-67"/>
      <use x="1202.767578" xlink:href="#DejaVuSans-65"/>
      <use x="1264.291016" xlink:href="#DejaVuSans-74"/>
      <use x="1303.5" xlink:href="#DejaVuSans-20"/>
      <use x="1335.287109" xlink:href="#DejaVuSans-70"/>
      <use x="1398.763672" xlink:href="#DejaVuSans-61"/>
      <use x="1460.042969" xlink:href="#DejaVuSans-69"/>
      <use x="1487.826172" xlink:href="#DejaVuSans-72"/>
      <use x="1528.939453" xlink:href="#DejaVuSans-73"/>
     </g>
    </g>
   </g>
   <g id="line2d_33">
    <defs>
     <path d="M 0 1.5 
C 0.397805 1.5 0.77937 1.341951 1.06066 1.06066 
C 1.341951 0.77937 1.5 0.397805 1.5 0 
C 1.5 -0.397805 1.341951 -0.77937 1.06066 -1.06066 
C 0.77937 -1.341951 0.397805 -1.5 0 -1.5 
C -0.397805 -1.5 -0.77937 -1.341951 -1.06066 -1.06066 
C -1.341951 -0.77937 -1.5 -0.397805 -1.5 0 
C -1.5 0.397805 -1.341951 0.77937 -1.06066 1.06066 
C -0.77937 1.341951 -0.397805 1.5 0 1.5 
z
" id="m9be14d68dd" style="stroke:#f5deb3;"/>
    </defs>
    <g>
     <use style="fill:#f5deb3;stroke:#f5deb3;" x="259.447847" xlink:href="#m9be14d68dd" y="41.690876"/>
     <use style="fill:#f5deb3;stroke:#f5deb3;" x="259.447847" xlink:href="#m9be14d68dd" y="41.690876"/>
    </g>
   </g>
   <g id="line2d_34">
    <defs>
     <path d="M 0 1.5 
C 0.397805 1.5 0.77937 1.341951 1.06066 1.06066 
C 1.341951 0.77937 1.5 0.397805 1.5 0 
C 1.5 -0.397805 1.341951 -0.77937 1.06066 -1.06066 
C 0.77937 -1.341951 0.397805 -1.5 0 -1.5 
C -0.397805 -1.5 -0.77937 -1.341951 -1.06066 -1.06066 
C -1.341951 -0.77937 -1.5 -0.397805 -1.5 0 
C -1.5 0.397805 -1.341951 0.77937 -1.06066 1.06066 
C -0.77937 1.341951 -0.397805 1.5 0 1.5 
z
" id="md246a87d44" style="stroke:#000080;"/>
    </defs>
    <g>
     <use style="fill:#000080;stroke:#000080;" x="182.480004" xlink:href="#md246a87d44" y="247.661515"/>
     <use style="fill:#000080;stroke:#000080;" x="182.480004" xlink:href="#md246a87d44" y="247.661515"/>
    </g>
   </g>
   <g id="line2d_35">
    <path d="M 45.512012 298.944 
L 45.512012 294.572378 
L 73.579452 294.572378 
L 73.579452 293.227264 
L 76.759008 293.227264 
L 76.759008 291.041453 
L 79.447285 291.041453 
L 79.447285 289.191921 
L 81.775977 289.191921 
L 81.775977 288.183085 
L 83.830028 288.183085 
L 83.830028 287.510528 
L 85.66744 287.510528 
L 85.66744 284.315881 
L 87.329581 284.315881 
L 87.329581 283.979603 
L 88.846997 283.979603 
L 88.846997 283.138906 
L 90.242884 283.138906 
L 90.242884 282.634488 
L 91.535274 282.634488 
L 91.535274 281.457513 
L 92.73846 281.457513 
L 92.73846 280.448677 
L 93.863965 280.448677 
L 93.863965 278.767284 
L 94.921215 278.767284 
L 94.921215 277.926588 
L 95.918017 277.926588 
L 95.918017 276.581474 
L 96.86091 276.581474 
L 96.86091 276.245195 
L 97.755429 276.245195 
L 97.755429 276.077056 
L 98.606294 276.077056 
L 98.606294 275.908916 
L 99.41757 275.908916 
L 99.41757 275.572638 
L 100.192776 275.572638 
L 100.192776 275.404498 
L 100.934985 275.404498 
L 100.934985 275.06822 
L 102.989037 275.06822 
L 102.989037 274.227523 
L 103.623262 274.227523 
L 103.623262 273.891245 
L 104.23523 273.891245 
L 104.23523 273.554966 
L 105.398279 273.554966 
L 105.398279 273.050548 
L 105.951954 273.050548 
L 105.951954 272.882409 
L 106.48859 272.882409 
L 106.48859 272.54613 
L 107.009204 272.54613 
L 107.009204 271.873573 
L 107.514726 271.873573 
L 107.514726 271.537295 
L 108.006005 271.537295 
L 108.006005 270.696598 
L 108.483824 270.696598 
L 108.483824 270.19218 
L 108.948899 270.19218 
L 108.948899 270.024041 
L 109.401893 270.024041 
L 109.401893 269.855902 
L 109.843417 269.855902 
L 109.843417 269.351484 
L 112.280765 269.351484 
L 112.280765 269.015205 
L 112.655818 269.015205 
L 112.655818 268.342648 
L 113.73488 268.342648 
L 113.73488 267.83823 
L 114.080224 267.83823 
L 114.080224 267.165673 
L 114.418861 267.165673 
L 114.418861 266.829394 
L 116.019919 266.829394 
L 116.019919 266.493116 
L 116.914437 266.493116 
L 116.914437 266.324976 
L 117.765302 266.324976 
L 117.765302 265.652419 
L 118.039942 265.652419 
L 118.039942 265.316141 
L 118.310324 265.316141 
L 118.310324 264.979862 
L 118.576578 264.979862 
L 118.576578 264.811723 
L 119.097192 264.811723 
L 119.097192 264.475444 
L 119.351785 264.475444 
L 119.351785 264.139166 
L 119.850084 264.139166 
L 119.850084 263.971026 
L 120.571812 263.971026 
L 120.571812 263.466608 
L 120.8059 263.466608 
L 120.8059 263.298469 
L 121.036887 263.298469 
L 121.036887 262.794051 
L 121.489881 262.794051 
L 121.489881 262.625912 
L 122.573415 262.625912 
L 122.573415 262.457773 
L 122.782271 262.457773 
L 122.782271 262.121494 
L 123.192626 262.121494 
L 123.192626 260.60824 
L 123.593547 260.60824 
L 123.593547 259.767544 
L 124.178158 259.767544 
L 124.178158 259.599405 
L 124.368753 259.599405 
L 124.368753 259.094987 
L 125.470548 259.094987 
L 125.470548 258.758708 
L 125.647598 258.758708 
L 125.647598 258.590569 
L 126.168212 258.590569 
L 126.168212 258.422429 
L 127.799239 258.422429 
L 127.799239 258.086151 
L 128.856489 258.086151 
L 128.856489 257.918012 
L 131.565689 257.918012 
L 131.565689 257.581733 
L 134.450015 257.581733 
L 134.450015 257.245454 
L 134.661403 257.245454 
L 134.661403 256.909176 
L 136.361705 256.909176 
L 136.361705 256.741037 
L 139.090775 256.741037 
L 139.090775 256.572897 
L 140.944478 256.572897 
L 140.944478 256.404758 
L 141.45 256.404758 
L 141.45 256.068479 
L 142.147664 256.068479 
L 142.147664 255.90034 
L 144.923649 255.90034 
L 144.923649 255.564061 
L 146.161795 255.564061 
L 146.216039 253.882668 
L 146.696785 253.882668 
L 146.696785 253.714529 
L 148.54473 253.714529 
L 148.54473 253.378251 
L 150.085825 253.378251 
L 150.085825 253.210111 
L 150.849711 253.210111 
L 150.849711 252.873833 
L 151.461678 252.873833 
L 151.461678 252.705693 
L 152.398241 252.705693 
L 152.398241 252.537554 
L 157.528821 252.537554 
L 157.528821 252.033136 
L 158.031107 252.033136 
L 158.031107 251.864997 
L 159.405822 251.864997 
L 159.405822 251.696858 
L 162.217141 251.696858 
L 162.217141 251.360579 
L 165.083779 251.360579 
L 165.157053 250.519883 
L 166.408919 250.519883 
L 166.408919 250.351743 
L 168.581663 250.351743 
L 168.581663 250.183604 
L 169.911564 250.183604 
L 169.911564 250.015465 
L 172.720707 250.015465 
L 172.720707 249.847325 
L 172.944366 249.847325 
L 172.944366 249.679186 
L 173.866933 249.679186 
L 173.866933 249.342907 
L 176.431155 249.342907 
L 176.431155 249.174768 
L 178.966907 249.174768 
L 178.966907 248.83849 
L 179.156332 248.83849 
L 179.156332 248.67035 
L 179.472902 248.67035 
L 179.472902 248.334072 
L 179.807517 248.334072 
L 179.807517 247.997793 
L 180.556629 247.997793 
L 180.556629 247.829654 
L 182.480004 247.829654 
L 182.480004 247.661515 
L 338.688 247.661515 
L 338.688 247.661515 
" style="fill:none;stroke:#000080;stroke-linecap:square;stroke-width:1.5;"/>
   </g>
   <g id="line2d_36">
    <defs>
     <path d="M 0 6 
C 1.591219 6 3.117479 5.367802 4.242641 4.242641 
C 5.367802 3.117479 6 1.591219 6 0 
C 6 -1.591219 5.367802 -3.117479 4.242641 -4.242641 
C 3.117479 -5.367802 1.591219 -6 0 -6 
C -1.591219 -6 -3.117479 -5.367802 -4.242641 -4.242641 
C -5.367802 -3.117479 -6 -1.591219 -6 0 
C -6 1.591219 -5.367802 3.117479 -4.242641 4.242641 
C -3.117479 5.367802 -1.591219 6 0 6 
z
" id="m01dc25cb9f" style="stroke:#000080;stroke-width:1.5;"/>
    </defs>
    <g>
     <use style="fill-opacity:0;stroke:#000080;stroke-width:1.5;" x="76.759008" xlink:href="#m01dc25cb9f" y="291.041453"/>
     <use style="fill-opacity:0;stroke:#000080;stroke-width:1.5;" x="136.361705" xlink:href="#m01dc25cb9f" y="256.909176"/>
     <use style="fill-opacity:0;stroke:#000080;stroke-width:1.5;" x="182.480004" xlink:href="#m01dc25cb9f" y="247.829654"/>
     <use style="fill-opacity:0;stroke:#000080;stroke-width:1.5;" x="182.480004" xlink:href="#m01dc25cb9f" y="247.661515"/>
     <use style="fill-opacity:0;stroke:#000080;stroke-width:1.5;" x="182.480004" xlink:href="#m01dc25cb9f" y="247.661515"/>
     <use style="fill-opacity:0;stroke:#000080;stroke-width:1.5;" x="338.688" xlink:href="#m01dc25cb9f" y="247.661515"/>
    </g>
   </g>
   <g id="line2d_37">
    <path style="fill:none;stroke:#000080;stroke-linecap:square;stroke-width:1.5;"/>
    <g/>
   </g>
   <g id="line2d_38">
    <path clip-path="url(#pceee7e0850)" d="M 234.398159 247.661515 
" style="fill:none;stroke:#000080;stroke-linecap:square;stroke-width:1.5;"/>
    <defs>
     <path d="M -12 12 
L 12 -12 
M -12 -12 
L 12 12 
" id="m92a9ad1e72" style="stroke:#000080;"/>
    </defs>
    <g clip-path="url(#pceee7e0850)">
     <use style="fill:#000080;stroke:#000080;" x="234.398159" xlink:href="#m92a9ad1e72" y="247.661515"/>
    </g>
   </g>
   <g id="line2d_39">
    <defs>
     <path d="M 0 1.5 
C 0.397805 1.5 0.77937 1.341951 1.06066 1.06066 
C 1.341951 0.77937 1.5 0.397805 1.5 0 
C 1.5 -0.397805 1.341951 -0.77937 1.06066 -1.06066 
C 0.77937 -1.341951 0.397805 -1.5 0 -1.5 
C -0.397805 -1.5 -0.77937 -1.341951 -1.06066 -1.06066 
C -1.341951 -0.77937 -1.5 -0.397805 -1.5 0 
C -1.5 0.397805 -1.341951 0.77937 -1.06066 1.06066 
C -0.77937 1.341951 -0.397805 1.5 0 1.5 
z
" id="m7b8740809c" style="stroke:#ff00ff;"/>
    </defs>
    <g>
     <use style="fill:#ff00ff;stroke:#ff00ff;" x="233.591416" xlink:href="#m7b8740809c" y="192.848104"/>
     <use style="fill:#ff00ff;stroke:#ff00ff;" x="233.591416" xlink:href="#m7b8740809c" y="192.848104"/>
    </g>
   </g>
   <g id="line2d_40">
    <path d="M 69.687988 298.944 
L 69.687988 297.094468 
L 91.535274 297.094468 
L 91.535274 295.413075 
L 102.330873 295.413075 
L 102.330873 294.740518 
L 104.23523 294.740518 
L 104.23523 294.06796 
L 105.398279 294.06796 
L 105.398279 293.731682 
L 106.48859 293.731682 
L 106.48859 293.563543 
L 107.514726 293.563543 
L 107.514726 293.227264 
L 108.006005 293.227264 
L 108.006005 292.890985 
L 108.483824 292.890985 
L 108.483824 292.386567 
L 109.843417 292.386567 
L 109.843417 292.050289 
L 110.274038 292.050289 
L 110.274038 291.71401 
L 110.694282 291.71401 
L 110.694282 291.545871 
L 111.104637 291.545871 
L 111.104637 290.873314 
L 111.505558 290.873314 
L 111.505558 290.705174 
L 112.280765 290.705174 
L 112.280765 290.537035 
L 112.655818 290.537035 
L 112.655818 290.032617 
L 113.022974 290.032617 
L 113.022974 289.864478 
L 113.73488 289.864478 
L 113.73488 289.191921 
L 114.080224 289.191921 
L 114.080224 289.023781 
L 115.077025 289.023781 
L 115.077025 288.855642 
L 115.397021 288.855642 
L 115.397021 288.014946 
L 115.711251 288.014946 
L 115.711251 287.174249 
L 116.323218 287.174249 
L 116.323218 286.669831 
L 116.621333 286.669831 
L 116.621333 286.165413 
L 116.914437 286.165413 
L 116.914437 285.324717 
L 117.486268 285.324717 
L 117.486268 283.811463 
L 118.310324 283.811463 
L 118.310324 283.138906 
L 118.576578 283.138906 
L 118.576578 282.970767 
L 118.838828 282.970767 
L 118.838828 282.29821 
L 119.351785 282.29821 
L 119.351785 281.961931 
L 119.602714 281.961931 
L 119.602714 281.793792 
L 120.093994 281.793792 
L 120.093994 281.457513 
L 120.33454 281.457513 
L 120.33454 281.289374 
L 120.8059 281.289374 
L 120.8059 280.953095 
L 121.036887 280.953095 
L 121.036887 280.448677 
L 121.489881 280.448677 
L 121.489881 280.112399 
L 122.148045 280.112399 
L 122.148045 279.77612 
L 122.988655 279.77612 
L 122.988655 279.607981 
L 123.192626 279.607981 
L 123.192626 279.439842 
L 123.394238 279.439842 
L 123.394238 279.271702 
L 123.790603 279.271702 
L 123.790603 278.935424 
L 123.985457 278.935424 
L 123.985457 278.599145 
L 124.178158 278.599145 
L 124.178158 278.431006 
L 124.368753 278.431006 
L 124.368753 277.590309 
L 124.557288 277.590309 
L 124.557288 277.254031 
L 125.291682 277.254031 
L 125.291682 277.085891 
L 125.647598 277.085891 
L 125.647598 276.581474 
L 125.822869 276.581474 
L 125.822869 276.413334 
L 126.168212 276.413334 
L 126.168212 276.245195 
L 126.338353 276.245195 
L 126.338353 275.908916 
L 126.50685 275.908916 
L 126.50685 275.740777 
L 127.165014 275.740777 
L 127.165014 275.572638 
L 127.325746 275.572638 
L 127.325746 275.404498 
L 127.642832 275.404498 
L 127.642832 275.236359 
L 127.799239 275.236359 
L 127.799239 274.900081 
L 127.954256 274.900081 
L 127.954256 274.395663 
L 128.560901 274.395663 
L 128.560901 274.227523 
L 129.147151 274.227523 
L 129.147151 274.059384 
L 129.991152 274.059384 
L 129.991152 273.723105 
L 130.263646 273.723105 
L 130.263646 273.554966 
L 130.531948 273.554966 
L 130.531948 272.882409 
L 130.796184 272.882409 
L 130.796184 272.71427 
L 131.056477 272.71427 
L 131.056477 272.377991 
L 131.185181 272.377991 
L 131.185181 272.209852 
L 131.312942 272.209852 
L 131.312942 272.041713 
L 131.439773 272.041713 
L 131.439773 271.873573 
L 131.565689 271.873573 
L 131.565689 271.705434 
L 131.690703 271.705434 
L 131.690703 271.537295 
L 131.938072 271.537295 
L 131.938072 271.201016 
L 132.060454 271.201016 
L 132.060454 271.032877 
L 132.181982 271.032877 
L 132.181982 270.864737 
L 132.422528 270.864737 
L 132.422528 270.528459 
L 133.009765 270.528459 
L 133.009765 269.855902 
L 133.46572 269.855902 
L 133.46572 269.519623 
L 133.800029 269.519623 
L 133.910056 269.015205 
L 134.019394 269.015205 
L 134.019394 268.847066 
L 134.661403 268.847066 
L 134.766144 268.510787 
L 134.870259 268.510787 
L 134.870259 268.342648 
L 135.280614 268.342648 
L 135.280614 267.83823 
L 135.780341 267.83823 
L 135.780341 267.333812 
L 136.361705 267.333812 
L 136.361705 267.165673 
L 136.831795 267.165673 
L 136.924311 266.829394 
L 137.823442 266.829394 
L 137.823442 266.661255 
L 137.997836 266.661255 
L 138.084384 266.156837 
L 138.761723 266.156837 
L 138.84457 265.652419 
L 139.172077 265.652419 
L 139.172077 265.48428 
L 139.413734 265.48428 
L 139.413734 265.316141 
L 139.730821 265.316141 
L 139.730821 265.148001 
L 139.887228 265.148001 
L 139.964909 264.475444 
L 140.11924 264.475444 
L 140.11924 264.307305 
L 140.499195 264.307305 
L 140.574203 263.466608 
L 140.64889 263.466608 
L 140.64889 263.298469 
L 140.944478 263.298469 
L 141.017599 262.962191 
L 141.162927 262.962191 
L 141.162927 262.625912 
L 142.619936 262.625912 
L 142.619936 262.457773 
L 143.144465 262.457773 
L 143.144465 262.289633 
L 143.590833 262.289633 
L 143.590833 262.121494 
L 143.716296 262.121494 
L 143.716296 261.785215 
L 143.964547 261.785215 
L 143.964547 261.448937 
L 144.148442 261.448937 
L 144.148442 260.944519 
L 144.390658 260.944519 
L 144.390658 260.60824 
L 144.688773 260.60824 
L 144.688773 260.440101 
L 144.806606 260.440101 
L 144.806606 260.103822 
L 144.923649 260.103822 
L 144.923649 259.767544 
L 145.155404 259.767544 
L 145.155404 259.599405 
L 145.777292 259.599405 
L 145.832743 258.758708 
L 146.052799 258.758708 
L 146.107383 258.086151 
L 146.377764 258.086151 
L 146.484754 257.413594 
L 146.854132 257.413594 
L 146.906268 257.077315 
L 147.010073 257.077315 
L 147.010073 256.909176 
L 147.368603 256.909176 
L 147.419225 256.572897 
L 147.769524 256.572897 
L 147.769524 256.404758 
L 148.497276 256.404758 
L 148.497276 256.068479 
L 148.733265 256.068479 
L 148.826773 255.395922 
L 149.911431 255.395922 
L 149.911431 255.227783 
L 150.085825 255.227783 
L 150.172372 254.555226 
L 150.51433 254.555226 
L 150.51433 254.387086 
L 151.178764 254.387086 
L 151.178764 254.218947 
L 151.300575 254.218947 
L 151.300575 253.54639 
L 152.207228 253.54639 
L 152.207228 253.378251 
L 152.624728 253.378251 
L 152.624728 253.041972 
L 152.848312 253.041972 
L 152.848312 252.705693 
L 153.287059 252.705693 
L 153.395042 252.201276 
L 153.573542 252.201276 
L 153.573542 252.033136 
L 153.785358 252.033136 
L 153.785358 251.696858 
L 153.925152 251.696858 
L 153.925152 251.19244 
L 154.201424 251.19244 
L 154.201424 251.0243 
L 154.337936 251.0243 
L 154.405793 250.351743 
L 154.507086 250.351743 
L 154.607795 249.511047 
L 154.906477 249.511047 
L 154.906477 249.342907 
L 155.296925 249.342907 
L 155.296925 249.006629 
L 155.425155 249.006629 
L 155.425155 248.83849 
L 156.38821 248.83849 
L 156.478647 248.334072 
L 157.272146 248.334072 
L 157.272146 248.165932 
L 157.557108 248.165932 
L 157.557108 247.997793 
L 158.385078 247.997793 
L 158.385078 247.661515 
L 158.863624 247.661515 
L 158.863624 247.493375 
L 159.046236 247.493375 
L 159.098062 246.652679 
L 159.32939 246.652679 
L 159.32939 246.148261 
L 159.481921 246.148261 
L 159.481921 245.811982 
L 159.832723 245.811982 
L 159.832723 245.643843 
L 160.176607 245.643843 
L 160.176607 245.475704 
L 160.37011 245.475704 
L 160.37011 245.139425 
L 160.585265 245.139425 
L 160.680044 244.635007 
L 161.215247 244.635007 
L 161.215247 244.466868 
L 161.352206 244.466868 
L 161.442917 244.130589 
L 161.465522 244.130589 
L 161.465522 243.794311 
L 161.84538 243.794311 
L 161.955547 243.289893 
L 162.367945 243.289893 
L 162.389382 242.953614 
L 163.808326 242.953614 
L 163.887148 242.617336 
L 164.082658 242.617336 
L 164.082658 242.449196 
L 164.768882 242.449196 
L 164.768882 242.281057 
L 164.899235 242.281057 
L 164.899235 242.112918 
L 165.855793 242.112918 
L 165.855793 241.6085 
L 166.047915 241.6085 
L 166.117256 241.272221 
L 166.510705 241.272221 
L 166.510705 240.767803 
L 166.628709 240.767803 
L 166.628709 240.599664 
L 166.96153 240.599664 
L 166.96153 240.263385 
L 167.158215 240.263385 
L 167.207042 239.758968 
L 167.368818 239.758968 
L 167.400994 239.25455 
L 167.813965 239.25455 
L 167.813965 238.918271 
L 168.400474 238.918271 
L 168.400474 238.581992 
L 168.805533 238.581992 
L 168.805533 238.245714 
L 168.938489 238.245714 
L 168.938489 238.077575 
L 169.070439 238.077575 
L 169.114201 237.573157 
L 169.729685 237.573157 
L 169.799863 237.068739 
L 170.050192 237.068739 
L 170.050192 236.73246 
L 170.647393 236.73246 
L 170.647393 236.564321 
L 170.793552 236.564321 
L 170.793552 236.228042 
L 171.43014 236.228042 
L 171.43014 236.059903 
L 171.83367 236.059903 
L 171.895887 235.219207 
L 171.994974 235.219207 
L 171.994974 235.051067 
L 172.25243 235.051067 
L 172.25243 234.882928 
L 172.732551 234.882928 
L 172.732551 234.546649 
L 172.885786 234.546649 
L 172.920958 234.042231 
L 173.14208 234.042231 
L 173.14208 233.705953 
L 173.268827 233.705953 
L 173.291774 233.201535 
L 173.485609 233.201535 
L 173.485609 233.033396 
L 173.900183 233.033396 
L 173.900183 232.697117 
L 174.827334 232.697117 
L 174.827334 232.360839 
L 175.20127 232.360839 
L 175.262821 231.688281 
L 175.324155 231.688281 
L 175.324155 231.352003 
L 176.092705 231.352003 
L 176.092705 231.183863 
L 176.536182 231.183863 
L 176.536182 230.847585 
L 177.660498 230.847585 
L 177.767269 230.343167 
L 178.075003 230.343167 
L 178.170609 229.334331 
L 178.674645 229.334331 
L 178.674645 228.998053 
L 178.792138 228.998053 
L 178.792138 228.829913 
L 179.189066 228.829913 
L 179.262495 228.493635 
L 179.561161 228.493635 
L 179.561161 228.157356 
L 179.752191 228.157356 
L 179.760106 227.652938 
L 179.980262 227.652938 
L 179.980262 227.31666 
L 180.511214 227.31666 
L 180.564187 226.980381 
L 181.541248 226.980381 
L 181.541248 226.812242 
L 182.323597 226.812242 
L 182.391773 226.307824 
L 182.821896 226.307824 
L 182.821896 226.139685 
L 183.746262 226.139685 
L 183.746262 225.803406 
L 183.915425 225.803406 
L 183.915425 225.467127 
L 184.187629 225.467127 
L 184.187629 225.130849 
L 184.358664 225.130849 
L 184.358664 224.79457 
L 184.522016 224.79457 
L 184.522016 224.458292 
L 185.137306 224.458292 
L 185.241629 223.953874 
L 185.305076 223.953874 
L 185.305076 223.785734 
L 185.67535 223.785734 
L 185.67535 223.617595 
L 186.952032 223.617595 
L 186.952032 223.281316 
L 187.118866 223.281316 
L 187.118866 223.113177 
L 187.263548 223.113177 
L 187.263548 222.776899 
L 187.513889 222.776899 
L 187.579708 222.104341 
L 188.008973 222.104341 
L 188.097498 221.431784 
L 188.151376 221.431784 
L 188.151376 221.095506 
L 189.121531 221.095506 
L 189.232199 220.591088 
L 189.501307 220.591088 
L 189.501307 220.422948 
L 189.721691 220.422948 
L 189.793054 219.750391 
L 190.215205 219.750391 
L 190.228234 219.245973 
L 191.524655 219.245973 
L 191.544795 218.741555 
L 192.130645 218.741555 
L 192.188938 218.068998 
L 192.362657 218.068998 
L 192.362657 217.900859 
L 192.959252 217.900859 
L 192.959252 217.56458 
L 194.056198 217.56458 
L 194.056198 217.396441 
L 194.53411 217.396441 
L 194.53411 217.060163 
L 194.756527 217.060163 
L 194.756527 216.723884 
L 195.238689 216.723884 
L 195.248458 216.219466 
L 195.868843 216.219466 
L 195.868843 216.051327 
L 196.622044 216.051327 
L 196.622044 215.715048 
L 197.404575 215.715048 
L 197.507835 214.538073 
L 197.539264 214.538073 
L 197.539264 214.369934 
L 198.290749 214.369934 
L 198.290749 214.201794 
L 198.969155 214.201794 
L 198.969155 213.865516 
L 199.186087 213.865516 
L 199.186087 213.529237 
L 199.848676 213.529237 
L 199.848676 213.361098 
L 200.212446 213.361098 
L 200.212446 213.192959 
L 201.142316 213.192959 
L 201.142316 212.85668 
L 202.963932 212.85668 
L 202.963932 212.688541 
L 204.00321 212.688541 
L 204.00321 212.520402 
L 204.50051 212.520402 
L 204.50051 212.184123 
L 204.774133 212.184123 
L 204.864394 211.511566 
L 204.948592 211.511566 
L 204.948592 211.175287 
L 205.611526 211.175287 
L 205.611526 211.007148 
L 206.981269 211.007148 
L 206.981269 210.839009 
L 207.308754 210.839009 
L 207.308754 210.670869 
L 207.535515 210.670869 
L 207.535515 210.334591 
L 207.700483 210.334591 
L 207.700483 210.166451 
L 207.898614 210.166451 
L 207.898614 209.830173 
L 208.303653 209.830173 
L 208.342108 209.493894 
L 208.747603 209.493894 
L 208.747603 209.325755 
L 209.256513 209.325755 
L 209.256513 208.989476 
L 209.733976 208.989476 
L 209.784973 208.653198 
L 209.959494 208.653198 
L 210.016816 208.316919 
L 210.486409 208.316919 
L 210.486409 207.98064 
L 210.901281 207.98064 
L 210.901281 207.812501 
L 211.300031 207.812501 
L 211.300031 207.644362 
L 212.354229 207.644362 
L 212.46375 207.139944 
L 212.509786 207.139944 
L 212.509786 206.803665 
L 212.62555 206.803665 
L 212.62555 206.467387 
L 212.923461 206.467387 
L 212.923461 206.299248 
L 213.767573 206.299248 
L 213.767573 205.962969 
L 214.577007 205.962969 
L 214.643508 205.458551 
L 214.774691 205.458551 
L 214.774691 204.954133 
L 215.51628 204.954133 
L 215.51628 204.617855 
L 215.646137 204.617855 
L 215.646137 204.281576 
L 216.032971 204.281576 
L 216.060628 203.945297 
L 216.520378 203.945297 
L 216.520378 203.609019 
L 216.714442 203.609019 
L 216.714442 203.27274 
L 216.944879 203.27274 
L 216.944879 202.936462 
L 217.119446 202.936462 
L 217.119446 202.768322 
L 218.205139 202.768322 
L 218.205139 202.600183 
L 218.615717 202.600183 
L 218.615717 202.263904 
L 218.817438 202.263904 
L 218.817438 202.095765 
L 219.038498 202.095765 
L 219.038498 201.927626 
L 221.27218 201.927626 
L 221.27218 201.759487 
L 222.106898 201.759487 
L 222.106898 201.591347 
L 222.317756 201.591347 
L 222.317756 201.423208 
L 222.688833 201.423208 
L 222.703001 200.91879 
L 222.902815 200.91879 
L 223.010486 199.741815 
L 223.038954 199.741815 
L 223.038954 199.573676 
L 223.578255 199.573676 
L 223.661433 199.069258 
L 223.716242 199.069258 
L 223.716242 198.732979 
L 223.933141 198.732979 
L 223.933141 198.56484 
L 224.073347 198.56484 
L 224.167229 198.060422 
L 224.440997 198.060422 
L 224.546885 197.556004 
L 225.325257 197.556004 
L 225.329318 197.051586 
L 226.12144 197.051586 
L 226.171812 196.547168 
L 226.299028 196.547168 
L 226.396973 196.04275 
L 226.514977 196.04275 
L 226.514977 195.874611 
L 227.846962 195.874611 
L 227.857002 195.538333 
L 228.02033 195.538333 
L 228.02033 195.202054 
L 228.287231 195.202054 
L 228.287231 194.865775 
L 228.518734 194.865775 
L 228.518734 194.697636 
L 228.982601 194.697636 
L 228.982601 194.529497 
L 229.159067 194.529497 
L 229.159067 194.361357 
L 229.649493 194.361357 
L 229.649493 194.193218 
L 230.672989 194.193218 
L 230.672989 194.025079 
L 230.953813 194.025079 
L 231.040573 193.6888 
L 232.390474 193.6888 
L 232.390474 193.520661 
L 232.636378 193.520661 
L 232.636378 193.352522 
L 232.750841 193.352522 
L 232.750841 193.016243 
L 233.591416 193.016243 
L 233.591416 192.848104 
L 338.688 192.848104 
L 338.688 192.848104 
" style="fill:none;stroke:#ff00ff;stroke-linecap:square;stroke-width:1.5;"/>
   </g>
   <g id="line2d_41">
    <defs>
     <path d="M 0 8.485281 
L 5.091169 0 
L 0 -8.485281 
L -5.091169 0 
z
" id="md005c3ddc7" style="stroke:#ff00ff;stroke-linejoin:miter;stroke-width:1.5;"/>
    </defs>
    <g>
     <use style="fill-opacity:0;stroke:#ff00ff;stroke-linejoin:miter;stroke-width:1.5;" x="150.085825" xlink:href="#md005c3ddc7" y="255.227783"/>
     <use style="fill-opacity:0;stroke:#ff00ff;stroke-linejoin:miter;stroke-width:1.5;" x="230.672989" xlink:href="#md005c3ddc7" y="194.025079"/>
     <use style="fill-opacity:0;stroke:#ff00ff;stroke-linejoin:miter;stroke-width:1.5;" x="233.591416" xlink:href="#md005c3ddc7" y="192.848104"/>
     <use style="fill-opacity:0;stroke:#ff00ff;stroke-linejoin:miter;stroke-width:1.5;" x="233.591416" xlink:href="#md005c3ddc7" y="192.848104"/>
     <use style="fill-opacity:0;stroke:#ff00ff;stroke-linejoin:miter;stroke-width:1.5;" x="338.688" xlink:href="#md005c3ddc7" y="192.848104"/>
    </g>
   </g>
   <g id="line2d_42">
    <path style="fill:none;stroke:#ff00ff;stroke-linecap:square;stroke-width:1.5;"/>
    <g/>
   </g>
   <g id="line2d_43">
    <path clip-path="url(#pceee7e0850)" d="M 234.201166 192.848104 
" style="fill:none;stroke:#ff00ff;stroke-linecap:square;stroke-width:1.5;"/>
    <defs>
     <path d="M -12 12 
L 12 -12 
M -12 -12 
L 12 12 
" id="mcd14a45ad3" style="stroke:#ff00ff;"/>
    </defs>
    <g clip-path="url(#pceee7e0850)">
     <use style="fill:#ff00ff;stroke:#ff00ff;" x="234.201166" xlink:href="#mcd14a45ad3" y="192.848104"/>
    </g>
   </g>
   <g id="line2d_44">
    <path d="M 338.688 247.661515 
L 369.60768 293.092752 
" style="fill:none;stroke:#000080;stroke-linecap:square;stroke-width:1.5;"/>
    <g>
     <use style="fill-opacity:0;stroke:#000080;stroke-width:1.5;" x="338.688" xlink:href="#m01dc25cb9f" y="247.661515"/>
     <use style="fill-opacity:0;stroke:#000080;stroke-width:1.5;" x="369.60768" xlink:href="#m01dc25cb9f" y="293.092752"/>
    </g>
   </g>
   <g id="line2d_45">
    <path d="M 338.688 192.848104 
L 369.60768 152.662812 
" style="fill:none;stroke:#ff00ff;stroke-linecap:square;stroke-width:1.5;"/>
    <g>
     <use style="fill-opacity:0;stroke:#ff00ff;stroke-linejoin:miter;stroke-width:1.5;" x="338.688" xlink:href="#md005c3ddc7" y="192.848104"/>
     <use style="fill-opacity:0;stroke:#ff00ff;stroke-linejoin:miter;stroke-width:1.5;" x="369.60768" xlink:href="#md005c3ddc7" y="152.662812"/>
    </g>
   </g>
   <g id="line2d_46">
    <path d="M 338.688 298.944 
L 338.688 6.381624 
" style="fill:none;stroke:#000000;stroke-linecap:square;stroke-width:1.5;"/>
   </g>
   <g id="patch_3">
    <path d="M 57.6 298.944 
L 57.6 3.456 
" style="fill:none;stroke:#000000;stroke-linecap:square;stroke-linejoin:miter;stroke-width:0.8;"/>
   </g>
   <g id="patch_4">
    <path d="M 338.688 298.944 
L 338.688 3.456 
" style="fill:none;stroke:#000000;stroke-linecap:square;stroke-linejoin:miter;stroke-width:0.8;"/>
   </g>
   <g id="patch_5">
    <path d="M 57.6 298.944 
L 338.688 298.944 
" style="fill:none;stroke:#000000;stroke-linecap:square;stroke-linejoin:miter;stroke-width:0.8;"/>
   </g>
   <g id="patch_6">
    <path d="M 57.6 3.456 
L 338.688 3.456 
" style="fill:none;stroke:#000000;stroke-linecap:square;stroke-linejoin:miter;stroke-width:0.8;"/>
   </g>
   <g id="text_13">
    <!-- DMS Brock -->
    <g transform="translate(375.22944 297.78369)scale(0.17 -0.17)">
     <defs>
      <path d="M 1259 4147 
L 1259 519 
L 2022 519 
Q 2988 519 3436 956 
Q 3884 1394 3884 2338 
Q 3884 3275 3436 3711 
Q 2988 4147 2022 4147 
L 1259 4147 
z
M 628 4666 
L 1925 4666 
Q 3281 4666 3915 4102 
Q 4550 3538 4550 2338 
Q 4550 1131 3912 565 
Q 3275 0 1925 0 
L 628 0 
L 628 4666 
z
" id="DejaVuSans-44" transform="scale(0.015625)"/>
      <path d="M 628 4666 
L 1569 4666 
L 2759 1491 
L 3956 4666 
L 4897 4666 
L 4897 0 
L 4281 0 
L 4281 4097 
L 3078 897 
L 2444 897 
L 1241 4097 
L 1241 0 
L 628 0 
L 628 4666 
z
" id="DejaVuSans-4d" transform="scale(0.015625)"/>
      <path d="M 3425 4513 
L 3425 3897 
Q 3066 4069 2747 4153 
Q 2428 4238 2131 4238 
Q 1616 4238 1336 4038 
Q 1056 3838 1056 3469 
Q 1056 3159 1242 3001 
Q 1428 2844 1947 2747 
L 2328 2669 
Q 3034 2534 3370 2195 
Q 3706 1856 3706 1288 
Q 3706 609 3251 259 
Q 2797 -91 1919 -91 
Q 1588 -91 1214 -16 
Q 841 59 441 206 
L 441 856 
Q 825 641 1194 531 
Q 1563 422 1919 422 
Q 2459 422 2753 634 
Q 3047 847 3047 1241 
Q 3047 1584 2836 1778 
Q 2625 1972 2144 2069 
L 1759 2144 
Q 1053 2284 737 2584 
Q 422 2884 422 3419 
Q 422 4038 858 4394 
Q 1294 4750 2059 4750 
Q 2388 4750 2728 4690 
Q 3069 4631 3425 4513 
z
" id="DejaVuSans-53" transform="scale(0.015625)"/>
      <path d="M 1259 2228 
L 1259 519 
L 2272 519 
Q 2781 519 3026 730 
Q 3272 941 3272 1375 
Q 3272 1813 3026 2020 
Q 2781 2228 2272 2228 
L 1259 2228 
z
M 1259 4147 
L 1259 2741 
L 2194 2741 
Q 2656 2741 2882 2914 
Q 3109 3088 3109 3444 
Q 3109 3797 2882 3972 
Q 2656 4147 2194 4147 
L 1259 4147 
z
M 628 4666 
L 2241 4666 
Q 2963 4666 3353 4366 
Q 3744 4066 3744 3513 
Q 3744 3084 3544 2831 
Q 3344 2578 2956 2516 
Q 3422 2416 3680 2098 
Q 3938 1781 3938 1306 
Q 3938 681 3513 340 
Q 3088 0 2303 0 
L 628 0 
L 628 4666 
z
" id="DejaVuSans-42" transform="scale(0.015625)"/>
      <path d="M 581 4863 
L 1159 4863 
L 1159 1991 
L 2875 3500 
L 3609 3500 
L 1753 1863 
L 3688 0 
L 2938 0 
L 1159 1709 
L 1159 0 
L 581 0 
L 581 4863 
z
" id="DejaVuSans-6b" transform="scale(0.015625)"/>
     </defs>
     <use xlink:href="#DejaVuSans-44"/>
     <use x="77.001953" xlink:href="#DejaVuSans-4d"/>
     <use x="163.28125" xlink:href="#DejaVuSans-53"/>
     <use x="226.757812" xlink:href="#DejaVuSans-20"/>
     <use x="258.544922" xlink:href="#DejaVuSans-42"/>
     <use x="327.148438" xlink:href="#DejaVuSans-72"/>
     <use x="366.011719" xlink:href="#DejaVuSans-6f"/>
     <use x="427.193359" xlink:href="#DejaVuSans-63"/>
     <use x="482.173828" xlink:href="#DejaVuSans-6b"/>
    </g>
   </g>
   <g id="text_14">
    <!-- MultiGLOD -->
    <g transform="translate(375.22944 157.353749)scale(0.17 -0.17)">
     <defs>
      <path d="M 3809 666 
L 3809 1919 
L 2778 1919 
L 2778 2438 
L 4434 2438 
L 4434 434 
Q 4069 175 3628 42 
Q 3188 -91 2688 -91 
Q 1594 -91 976 548 
Q 359 1188 359 2328 
Q 359 3472 976 4111 
Q 1594 4750 2688 4750 
Q 3144 4750 3555 4637 
Q 3966 4525 4313 4306 
L 4313 3634 
Q 3963 3931 3569 4081 
Q 3175 4231 2741 4231 
Q 1884 4231 1454 3753 
Q 1025 3275 1025 2328 
Q 1025 1384 1454 906 
Q 1884 428 2741 428 
Q 3075 428 3337 486 
Q 3600 544 3809 666 
z
" id="DejaVuSans-47" transform="scale(0.015625)"/>
      <path d="M 628 4666 
L 1259 4666 
L 1259 531 
L 3531 531 
L 3531 0 
L 628 0 
L 628 4666 
z
" id="DejaVuSans-4c" transform="scale(0.015625)"/>
      <path d="M 2522 4238 
Q 1834 4238 1429 3725 
Q 1025 3213 1025 2328 
Q 1025 1447 1429 934 
Q 1834 422 2522 422 
Q 3209 422 3611 934 
Q 4013 1447 4013 2328 
Q 4013 3213 3611 3725 
Q 3209 4238 2522 4238 
z
M 2522 4750 
Q 3503 4750 4090 4092 
Q 4678 3434 4678 2328 
Q 4678 1225 4090 567 
Q 3503 -91 2522 -91 
Q 1538 -91 948 565 
Q 359 1222 359 2328 
Q 359 3434 948 4092 
Q 1538 4750 2522 4750 
z
" id="DejaVuSans-4f" transform="scale(0.015625)"/>
     </defs>
     <use xlink:href="#DejaVuSans-4d"/>
     <use x="86.279297" xlink:href="#DejaVuSans-75"/>
     <use x="149.658203" xlink:href="#DejaVuSans-6c"/>
     <use x="177.441406" xlink:href="#DejaVuSans-74"/>
     <use x="216.650391" xlink:href="#DejaVuSans-69"/>
     <use x="244.433594" xlink:href="#DejaVuSans-47"/>
     <use x="321.923828" xlink:href="#DejaVuSans-4c"/>
     <use x="374.011719" xlink:href="#DejaVuSans-4f"/>
     <use x="452.722656" xlink:href="#DejaVuSans-44"/>
    </g>
   </g>
   <g id="text_15">
    <!-- best 2016 -->
    <g transform="translate(375.22944 16.923809)scale(0.17 -0.17)">
     <defs>
      <path d="M 3116 1747 
Q 3116 2381 2855 2742 
Q 2594 3103 2138 3103 
Q 1681 3103 1420 2742 
Q 1159 2381 1159 1747 
Q 1159 1113 1420 752 
Q 1681 391 2138 391 
Q 2594 391 2855 752 
Q 3116 1113 3116 1747 
z
M 1159 2969 
Q 1341 3281 1617 3432 
Q 1894 3584 2278 3584 
Q 2916 3584 3314 3078 
Q 3713 2572 3713 1747 
Q 3713 922 3314 415 
Q 2916 -91 2278 -91 
Q 1894 -91 1617 61 
Q 1341 213 1159 525 
L 1159 0 
L 581 0 
L 581 4863 
L 1159 4863 
L 1159 2969 
z
" id="DejaVuSans-62" transform="scale(0.015625)"/>
     </defs>
     <use xlink:href="#DejaVuSans-62"/>
     <use x="63.476562" xlink:href="#DejaVuSans-65"/>
     <use x="125" xlink:href="#DejaVuSans-73"/>
     <use x="177.099609" xlink:href="#DejaVuSans-74"/>
     <use x="216.308594" xlink:href="#DejaVuSans-20"/>
     <use x="248.095703" xlink:href="#DejaVuSans-32"/>
     <use x="311.71875" xlink:href="#DejaVuSans-30"/>
     <use x="375.341797" xlink:href="#DejaVuSans-31"/>
     <use x="438.964844" xlink:href="#DejaVuSans-36"/>
    </g>
   </g>
   <g id="text_16">
    <!-- bbob-biobj f46, f47, f50, 2-D -->
    <g transform="translate(60.41088 14.161286)scale(0.102 -0.102)">
     <defs>
      <path d="M 603 3500 
L 1178 3500 
L 1178 -63 
Q 1178 -731 923 -1031 
Q 669 -1331 103 -1331 
L -116 -1331 
L -116 -844 
L 38 -844 
Q 366 -844 484 -692 
Q 603 -541 603 -63 
L 603 3500 
z
M 603 4863 
L 1178 4863 
L 1178 4134 
L 603 4134 
L 603 4863 
z
" id="DejaVuSans-6a" transform="scale(0.015625)"/>
      <path d="M 525 4666 
L 3525 4666 
L 3525 4397 
L 1831 0 
L 1172 0 
L 2766 4134 
L 525 4134 
L 525 4666 
z
" id="DejaVuSans-37" transform="scale(0.015625)"/>
      <path d="M 691 4666 
L 3169 4666 
L 3169 4134 
L 1269 4134 
L 1269 2991 
Q 1406 3038 1543 3061 
Q 1681 3084 1819 3084 
Q 2600 3084 3056 2656 
Q 3513 2228 3513 1497 
Q 3513 744 3044 326 
Q 2575 -91 1722 -91 
Q 1428 -91 1123 -41 
Q 819 9 494 109 
L 494 744 
Q 775 591 1075 516 
Q 1375 441 1709 441 
Q 2250 441 2565 725 
Q 2881 1009 2881 1497 
Q 2881 1984 2565 2268 
Q 2250 2553 1709 2553 
Q 1456 2553 1204 2497 
Q 953 2441 691 2322 
L 691 4666 
z
" id="DejaVuSans-35" transform="scale(0.015625)"/>
     </defs>
     <use xlink:href="#DejaVuSans-62"/>
     <use x="63.476562" xlink:href="#DejaVuSans-62"/>
     <use x="126.953125" xlink:href="#DejaVuSans-6f"/>
     <use x="188.134766" xlink:href="#DejaVuSans-62"/>
     <use x="251.611328" xlink:href="#DejaVuSans-2d"/>
     <use x="287.695312" xlink:href="#DejaVuSans-62"/>
     <use x="351.171875" xlink:href="#DejaVuSans-69"/>
     <use x="378.955078" xlink:href="#DejaVuSans-6f"/>
     <use x="440.136719" xlink:href="#DejaVuSans-62"/>
     <use x="503.613281" xlink:href="#DejaVuSans-6a"/>
     <use x="531.396484" xlink:href="#DejaVuSans-20"/>
     <use x="563.183594" xlink:href="#DejaVuSans-66"/>
     <use x="598.388672" xlink:href="#DejaVuSans-34"/>
     <use x="662.011719" xlink:href="#DejaVuSans-36"/>
     <use x="725.634766" xlink:href="#DejaVuSans-2c"/>
     <use x="757.421875" xlink:href="#DejaVuSans-20"/>
     <use x="789.208984" xlink:href="#DejaVuSans-66"/>
     <use x="824.414062" xlink:href="#DejaVuSans-34"/>
     <use x="888.037109" xlink:href="#DejaVuSans-37"/>
     <use x="951.660156" xlink:href="#DejaVuSans-2c"/>
     <use x="983.447266" xlink:href="#DejaVuSans-20"/>
     <use x="1015.234375" xlink:href="#DejaVuSans-66"/>
     <use x="1050.439453" xlink:href="#DejaVuSans-35"/>
     <use x="1114.0625" xlink:href="#DejaVuSans-30"/>
     <use x="1177.685547" xlink:href="#DejaVuSans-2c"/>
     <use x="1209.472656" xlink:href="#DejaVuSans-20"/>
     <use x="1241.259766" xlink:href="#DejaVuSans-32"/>
     <use x="1304.882812" xlink:href="#DejaVuSans-2d"/>
     <use x="1340.966797" xlink:href="#DejaVuSans-44"/>
    </g>
    <!-- 58 targets: 1..-1.0e-4 -->
    <g transform="translate(60.41088 25.583055)scale(0.102 -0.102)">
     <defs>
      <path d="M 750 794 
L 1409 794 
L 1409 0 
L 750 0 
L 750 794 
z
M 750 3309 
L 1409 3309 
L 1409 2516 
L 750 2516 
L 750 3309 
z
" id="DejaVuSans-3a" transform="scale(0.015625)"/>
     </defs>
     <use xlink:href="#DejaVuSans-35"/>
     <use x="63.623047" xlink:href="#DejaVuSans-38"/>
     <use x="127.246094" xlink:href="#DejaVuSans-20"/>
     <use x="159.033203" xlink:href="#DejaVuSans-74"/>
     <use x="198.242188" xlink:href="#DejaVuSans-61"/>
     <use x="259.521484" xlink:href="#DejaVuSans-72"/>
     <use x="298.884766" xlink:href="#DejaVuSans-67"/>
     <use x="362.361328" xlink:href="#DejaVuSans-65"/>
     <use x="423.884766" xlink:href="#DejaVuSans-74"/>
     <use x="463.09375" xlink:href="#DejaVuSans-73"/>
     <use x="515.193359" xlink:href="#DejaVuSans-3a"/>
     <use x="548.884766" xlink:href="#DejaVuSans-20"/>
     <use x="580.671875" xlink:href="#DejaVuSans-31"/>
     <use x="644.294922" xlink:href="#DejaVuSans-2e"/>
     <use x="676.082031" xlink:href="#DejaVuSans-2e"/>
     <use x="707.869141" xlink:href="#DejaVuSans-2d"/>
     <use x="743.953125" xlink:href="#DejaVuSans-31"/>
     <use x="807.576172" xlink:href="#DejaVuSans-2e"/>
     <use x="839.363281" xlink:href="#DejaVuSans-30"/>
     <use x="902.986328" xlink:href="#DejaVuSans-65"/>
     <use x="964.509766" xlink:href="#DejaVuSans-2d"/>
     <use x="1000.59375" xlink:href="#DejaVuSans-34"/>
    </g>
    <!-- 10 instances -->
    <g transform="translate(60.41088 37.004824)scale(0.102 -0.102)">
     <use xlink:href="#DejaVuSans-31"/>
     <use x="63.623047" xlink:href="#DejaVuSans-30"/>
     <use x="127.246094" xlink:href="#DejaVuSans-20"/>
     <use x="159.033203" xlink:href="#DejaVuSans-69"/>
     <use x="186.816406" xlink:href="#DejaVuSans-6e"/>
     <use x="250.195312" xlink:href="#DejaVuSans-73"/>
     <use x="302.294922" xlink:href="#DejaVuSans-74"/>
     <use x="341.503906" xlink:href="#DejaVuSans-61"/>
     <use x="402.783203" xlink:href="#DejaVuSans-6e"/>
     <use x="466.162109" xlink:href="#DejaVuSans-63"/>
     <use x="521.142578" xlink:href="#DejaVuSans-65"/>
     <use x="582.666016" xlink:href="#DejaVuSans-73"/>
    </g>
   </g>
   <g id="text_17">
    <!-- v2.4.1.1, hv-hash=ff0e71e8cd978373 -->
    <g style="fill:#808080;" transform="translate(103.108062 293.909432)scale(0.1 -0.1)">
     <defs>
      <path d="M 3513 2113 
L 3513 0 
L 2938 0 
L 2938 2094 
Q 2938 2591 2744 2837 
Q 2550 3084 2163 3084 
Q 1697 3084 1428 2787 
Q 1159 2491 1159 1978 
L 1159 0 
L 581 0 
L 581 4863 
L 1159 4863 
L 1159 2956 
Q 1366 3272 1645 3428 
Q 1925 3584 2291 3584 
Q 2894 3584 3203 3211 
Q 3513 2838 3513 2113 
z
" id="DejaVuSans-68" transform="scale(0.015625)"/>
      <path d="M 678 2906 
L 4684 2906 
L 4684 2381 
L 678 2381 
L 678 2906 
z
M 678 1631 
L 4684 1631 
L 4684 1100 
L 678 1100 
L 678 1631 
z
" id="DejaVuSans-3d" transform="scale(0.015625)"/>
      <path d="M 703 97 
L 703 672 
Q 941 559 1184 500 
Q 1428 441 1663 441 
Q 2288 441 2617 861 
Q 2947 1281 2994 2138 
Q 2813 1869 2534 1725 
Q 2256 1581 1919 1581 
Q 1219 1581 811 2004 
Q 403 2428 403 3163 
Q 403 3881 828 4315 
Q 1253 4750 1959 4750 
Q 2769 4750 3195 4129 
Q 3622 3509 3622 2328 
Q 3622 1225 3098 567 
Q 2575 -91 1691 -91 
Q 1453 -91 1209 -44 
Q 966 3 703 97 
z
M 1959 2075 
Q 2384 2075 2632 2365 
Q 2881 2656 2881 3163 
Q 2881 3666 2632 3958 
Q 2384 4250 1959 4250 
Q 1534 4250 1286 3958 
Q 1038 3666 1038 3163 
Q 1038 2656 1286 2365 
Q 1534 2075 1959 2075 
z
" id="DejaVuSans-39" transform="scale(0.015625)"/>
      <path d="M 2597 2516 
Q 3050 2419 3304 2112 
Q 3559 1806 3559 1356 
Q 3559 666 3084 287 
Q 2609 -91 1734 -91 
Q 1441 -91 1130 -33 
Q 819 25 488 141 
L 488 750 
Q 750 597 1062 519 
Q 1375 441 1716 441 
Q 2309 441 2620 675 
Q 2931 909 2931 1356 
Q 2931 1769 2642 2001 
Q 2353 2234 1838 2234 
L 1294 2234 
L 1294 2753 
L 1863 2753 
Q 2328 2753 2575 2939 
Q 2822 3125 2822 3475 
Q 2822 3834 2567 4026 
Q 2313 4219 1838 4219 
Q 1578 4219 1281 4162 
Q 984 4106 628 3988 
L 628 4550 
Q 988 4650 1302 4700 
Q 1616 4750 1894 4750 
Q 2613 4750 3031 4423 
Q 3450 4097 3450 3541 
Q 3450 3153 3228 2886 
Q 3006 2619 2597 2516 
z
" id="DejaVuSans-33" transform="scale(0.015625)"/>
     </defs>
     <use xlink:href="#DejaVuSans-76"/>
     <use x="59.179688" xlink:href="#DejaVuSans-32"/>
     <use x="122.802734" xlink:href="#DejaVuSans-2e"/>
     <use x="154.589844" xlink:href="#DejaVuSans-34"/>
     <use x="218.212891" xlink:href="#DejaVuSans-2e"/>
     <use x="250" xlink:href="#DejaVuSans-31"/>
     <use x="313.623047" xlink:href="#DejaVuSans-2e"/>
     <use x="345.410156" xlink:href="#DejaVuSans-31"/>
     <use x="409.033203" xlink:href="#DejaVuSans-2c"/>
     <use x="440.820312" xlink:href="#DejaVuSans-20"/>
     <use x="472.607422" xlink:href="#DejaVuSans-68"/>
     <use x="535.986328" xlink:href="#DejaVuSans-76"/>
     <use x="592.541016" xlink:href="#DejaVuSans-2d"/>
     <use x="628.625" xlink:href="#DejaVuSans-68"/>
     <use x="692.003906" xlink:href="#DejaVuSans-61"/>
     <use x="753.283203" xlink:href="#DejaVuSans-73"/>
     <use x="805.382812" xlink:href="#DejaVuSans-68"/>
     <use x="868.761719" xlink:href="#DejaVuSans-3d"/>
     <use x="952.550781" xlink:href="#DejaVuSans-66"/>
     <use x="987.755859" xlink:href="#DejaVuSans-66"/>
     <use x="1022.960938" xlink:href="#DejaVuSans-30"/>
     <use x="1086.583984" xlink:href="#DejaVuSans-65"/>
     <use x="1148.107422" xlink:href="#DejaVuSans-37"/>
     <use x="1211.730469" xlink:href="#DejaVuSans-31"/>
     <use x="1275.353516" xlink:href="#DejaVuSans-65"/>
     <use x="1336.876953" xlink:href="#DejaVuSans-38"/>
     <use x="1400.5" xlink:href="#DejaVuSans-63"/>
     <use x="1455.480469" xlink:href="#DejaVuSans-64"/>
     <use x="1518.957031" xlink:href="#DejaVuSans-39"/>
     <use x="1582.580078" xlink:href="#DejaVuSans-37"/>
     <use x="1646.203125" xlink:href="#DejaVuSans-38"/>
     <use x="1709.826172" xlink:href="#DejaVuSans-33"/>
     <use x="1773.449219" xlink:href="#DejaVuSans-37"/>
     <use x="1837.072266" xlink:href="#DejaVuSans-33"/>
    </g>
   </g>
  </g>
 </g>
 <defs>
  <clipPath id="pceee7e0850">
   <rect height="295.488" width="281.088" x="57.6" y="3.456"/>
  </clipPath>
 </defs>
</svg>
