<?xml version="1.0" encoding="utf-8" standalone="no"?>
<!DOCTYPE svg PUBLIC "-//W3C//DTD SVG 1.1//EN"
  "http://www.w3.org/Graphics/SVG/1.1/DTD/svg11.dtd">
<svg height="345.6pt" version="1.1" viewBox="0 0 460.8 345.6" width="460.8pt" xmlns="http://www.w3.org/2000/svg" xmlns:xlink="http://www.w3.org/1999/xlink">
 <metadata>
  <rdf:RDF xmlns:cc="http://creativecommons.org/ns#" xmlns:dc="http://purl.org/dc/elements/1.1/" xmlns:rdf="http://www.w3.org/1999/02/22-rdf-syntax-ns#">
   <cc:Work>
    <dc:type rdf:resource="http://purl.org/dc/dcmitype/StillImage"/>
    <dc:date>2022-03-29T13:08:45.239141</dc:date>
    <dc:format>image/svg+xml</dc:format>
    <dc:creator>
     <cc:Agent>
      <dc:title>Matplotlib v3.4.3, https://matplotlib.org/</dc:title>
     </cc:Agent>
    </dc:creator>
   </cc:Work>
  </rdf:RDF>
 </metadata>
 <defs>
  <style type="text/css">*{stroke-linecap:butt;stroke-linejoin:round;}</style>
 </defs>
 <g id="figure_1">
  <g id="patch_1">
   <path d="M 0 345.6 
L 460.8 345.6 
L 460.8 0 
L 0 0 
z
" style="fill:#ffffff;"/>
  </g>
  <g id="axes_1">
   <g id="patch_2">
    <path d="M 57.6 298.944 
L 338.688 298.944 
L 338.688 3.456 
L 57.6 3.456 
z
" style="fill:#ffffff;"/>
   </g>
   <g id="line2d_1">
    <path d="M 17.444571 298.944 
L 17.444571 297.682955 
L 29.53256 297.682955 
L 29.53256 296.421911 
L 41.620548 296.421911 
L 41.620548 292.638776 
L 51.379845 292.638776 
L 51.379845 291.377732 
L 60.779557 291.377732 
L 60.779557 288.855642 
L 65.796525 288.855642 
L 65.796525 286.333553 
L 73.579452 286.333553 
L 73.579452 285.072508 
L 83.830028 285.072508 
L 83.830028 282.550419 
L 87.643811 282.550419 
L 87.643811 278.767284 
L 89.418828 278.767284 
L 89.418828 276.245195 
L 89.697862 276.245195 
L 89.697862 273.723105 
L 92.73846 273.723105 
L 92.73846 271.201016 
L 92.969447 271.201016 
L 92.969447 269.939971 
L 97.580158 269.939971 
L 97.580158 266.156837 
L 98.100772 266.156837 
L 98.100772 264.895792 
L 100.343767 264.895792 
L 100.343767 262.373703 
L 102.060491 262.373703 
L 102.060491 259.851614 
L 105.621863 259.851614 
L 105.621863 258.590569 
L 106.382575 258.590569 
L 106.382575 256.068479 
L 109.756002 256.068479 
L 109.756002 252.285345 
L 111.819788 252.285345 
L 111.819788 249.763256 
L 118.786692 249.763256 
L 118.786692 247.241166 
L 122.018385 247.241166 
L 122.018385 244.719077 
L 128.531065 244.719077 
L 128.531065 240.935943 
L 130.398313 240.935943 
L 130.398313 238.413853 
L 132.446401 238.413853 
L 132.446401 235.891764 
L 136.189322 235.891764 
L 136.189322 233.369674 
L 137.858461 233.369674 
L 137.858461 230.847585 
L 140.011351 230.847585 
L 140.011351 229.58654 
L 141.235139 229.58654 
L 141.235139 227.064451 
L 141.982752 227.064451 
L 141.982752 225.803406 
L 145.395476 225.803406 
L 145.395476 224.542361 
L 147.010073 224.542361 
L 147.010073 223.281316 
L 150.059777 223.281316 
L 150.059777 219.498182 
L 155.653621 219.498182 
L 155.653621 218.237138 
L 156.376116 218.237138 
L 156.376116 214.454003 
L 159.216679 214.454003 
L 159.216679 210.670869 
L 160.882091 210.670869 
L 160.882091 206.887735 
L 161.442917 206.887735 
L 161.442917 204.365646 
L 163.335883 204.365646 
L 163.335883 203.104601 
L 165.869837 203.104601 
L 165.929399 196.799377 
L 166.574863 196.799377 
L 166.574863 195.538333 
L 170.938496 195.538333 
L 170.938496 194.277288 
L 171.52429 194.277288 
L 171.52429 191.755198 
L 172.956059 191.755198 
L 172.956059 190.494154 
L 175.482621 190.494154 
L 175.482621 187.972064 
L 176.168702 187.972064 
L 176.168702 184.18893 
L 180.044214 184.18893 
L 180.044214 180.405796 
L 186.906921 180.405796 
L 186.906921 177.883706 
L 188.952334 177.883706 
L 188.952334 176.622662 
L 197.06411 176.622662 
L 197.06411 174.100572 
L 197.276954 174.100572 
L 197.276954 170.317438 
L 197.582602 170.317438 
L 197.582602 166.534304 
L 197.882425 166.534304 
L 197.882425 165.273259 
L 204.5403 165.273259 
L 204.5403 161.490125 
L 205.586711 161.490125 
L 205.586711 158.968036 
L 205.966909 158.968036 
L 205.966909 155.184901 
L 207.097827 155.184901 
L 207.097827 152.662812 
L 208.8228 152.662812 
L 208.8228 150.140722 
L 210.945275 150.140722 
L 210.945275 147.618633 
L 213.927586 147.618633 
L 213.927586 145.096544 
L 214.986752 145.096544 
L 214.986752 143.835499 
L 216.501334 143.835499 
L 216.501334 141.313409 
L 217.903172 141.313409 
L 217.903172 138.79132 
L 218.961111 138.79132 
L 218.974812 135.008186 
L 225.098546 135.008186 
L 225.098546 131.225052 
L 229.5617 131.225052 
L 229.5617 128.702962 
L 235.997736 128.702962 
L 235.997736 126.180873 
L 241.150618 126.180873 
L 241.150618 124.919828 
L 246.522012 124.919828 
L 246.522012 121.136694 
L 252.961953 121.136694 
L 252.961953 118.614604 
L 261.525164 118.614604 
L 261.525164 117.35356 
L 261.749813 117.35356 
L 261.749813 113.570425 
L 264.598769 113.570425 
L 264.598769 112.309381 
L 265.17752 112.309381 
L 265.17752 108.526247 
L 265.40057 108.526247 
L 265.40057 107.265202 
L 269.552798 107.265202 
L 269.552798 104.743112 
L 272.332541 104.743112 
L 272.332541 100.959978 
L 275.062837 100.959978 
L 275.062837 99.698933 
L 275.483842 99.698933 
L 275.483842 95.915799 
L 276.453291 95.915799 
L 276.453291 93.39371 
L 276.694117 93.39371 
L 276.694117 92.132665 
L 277.658482 92.132665 
L 277.658482 89.610576 
L 278.377326 89.610576 
L 278.377326 88.349531 
L 278.524345 88.349531 
L 278.524345 84.566397 
L 278.801357 84.566397 
L 278.801357 83.305352 
L 280.13214 83.305352 
L 280.13214 79.522218 
L 280.365795 79.522218 
L 280.365795 78.261173 
L 280.738902 78.261173 
L 280.738902 74.478039 
L 281.2418 74.478039 
L 281.2418 71.955949 
L 281.432669 71.955949 
L 281.432669 68.172815 
L 281.776532 68.172815 
L 281.776532 65.650726 
L 282.015815 65.650726 
L 282.015815 63.128636 
L 282.84644 63.128636 
L 282.84644 61.867592 
L 283.046635 61.867592 
L 283.046635 59.345502 
L 283.889051 59.345502 
L 283.889051 56.823413 
L 284.489545 56.823413 
L 284.489545 55.562368 
L 284.757203 55.562368 
L 284.757203 53.040279 
L 285.152565 53.040279 
L 285.152565 49.257144 
L 285.483548 49.257144 
L 285.483548 45.47401 
L 289.349016 45.47401 
L 289.349016 41.690876 
L 338.688 41.690876 
L 338.688 41.690876 
" style="fill:none;stroke:#f5deb3;stroke-linecap:square;stroke-width:4;"/>
   </g>
   <g id="line2d_2">
    <defs>
     <path d="M 0 7.778175 
L 7.778175 0 
L 0 -7.778175 
L -7.778175 0 
z
" id="m363dbc8f1b" style="stroke:#f5deb3;stroke-linejoin:miter;stroke-width:1.5;"/>
    </defs>
    <g>
     <use style="fill:#f5deb3;stroke:#f5deb3;stroke-linejoin:miter;stroke-width:1.5;" x="83.830028" xlink:href="#m363dbc8f1b" y="282.550419"/>
     <use style="fill:#f5deb3;stroke:#f5deb3;stroke-linejoin:miter;stroke-width:1.5;" x="160.882091" xlink:href="#m363dbc8f1b" y="206.887735"/>
     <use style="fill:#f5deb3;stroke:#f5deb3;stroke-linejoin:miter;stroke-width:1.5;" x="210.945275" xlink:href="#m363dbc8f1b" y="147.618633"/>
     <use style="fill:#f5deb3;stroke:#f5deb3;stroke-linejoin:miter;stroke-width:1.5;" x="278.801357" xlink:href="#m363dbc8f1b" y="83.305352"/>
     <use style="fill:#f5deb3;stroke:#f5deb3;stroke-linejoin:miter;stroke-width:1.5;" x="289.349016" xlink:href="#m363dbc8f1b" y="41.690876"/>
     <use style="fill:#f5deb3;stroke:#f5deb3;stroke-linejoin:miter;stroke-width:1.5;" x="338.688" xlink:href="#m363dbc8f1b" y="41.690876"/>
    </g>
   </g>
   <g id="line2d_3">
    <path style="fill:none;stroke:#f5deb3;stroke-linecap:square;stroke-width:4;"/>
    <g/>
   </g>
   <g id="line2d_4">
    <path d="M 338.688 41.690876 
L 369.60768 12.232871 
" style="fill:none;stroke:#f5deb3;stroke-linecap:square;stroke-width:4;"/>
    <g>
     <use style="fill:#f5deb3;stroke:#f5deb3;stroke-linejoin:miter;stroke-width:1.5;" x="338.688" xlink:href="#m363dbc8f1b" y="41.690876"/>
     <use style="fill:#f5deb3;stroke:#f5deb3;stroke-linejoin:miter;stroke-width:1.5;" x="369.60768" xlink:href="#m363dbc8f1b" y="12.232871"/>
    </g>
   </g>
   <g id="matplotlib.axis_1">
    <g id="xtick_1">
     <g id="line2d_5">
      <path clip-path="url(#p60a6408e5d)" d="M 57.6 298.944 
L 57.6 3.456 
" style="fill:none;stroke:#b0b0b0;stroke-linecap:square;stroke-width:0.8;"/>
     </g>
     <g id="line2d_6">
      <defs>
       <path d="M 0 0 
L 0 3.5 
" id="ma1e521adff" style="stroke:#000000;stroke-width:0.8;"/>
      </defs>
      <g>
       <use style="stroke:#000000;stroke-width:0.8;" x="57.6" xlink:href="#ma1e521adff" y="298.944"/>
      </g>
     </g>
     <g id="text_1">
      <!-- 0 -->
      <g transform="translate(51.2375 321.140875)scale(0.2 -0.2)">
       <defs>
        <path d="M 2034 4250 
Q 1547 4250 1301 3770 
Q 1056 3291 1056 2328 
Q 1056 1369 1301 889 
Q 1547 409 2034 409 
Q 2525 409 2770 889 
Q 3016 1369 3016 2328 
Q 3016 3291 2770 3770 
Q 2525 4250 2034 4250 
z
M 2034 4750 
Q 2819 4750 3233 4129 
Q 3647 3509 3647 2328 
Q 3647 1150 3233 529 
Q 2819 -91 2034 -91 
Q 1250 -91 836 529 
Q 422 1150 422 2328 
Q 422 3509 836 4129 
Q 1250 4750 2034 4750 
z
" id="DejaVuSans-30" transform="scale(0.015625)"/>
       </defs>
       <use xlink:href="#DejaVuSans-30"/>
      </g>
     </g>
    </g>
    <g id="xtick_2">
     <g id="line2d_7">
      <path clip-path="url(#p60a6408e5d)" d="M 137.910857 298.944 
L 137.910857 3.456 
" style="fill:none;stroke:#b0b0b0;stroke-linecap:square;stroke-width:0.8;"/>
     </g>
     <g id="line2d_8">
      <g>
       <use style="stroke:#000000;stroke-width:0.8;" x="137.910857" xlink:href="#ma1e521adff" y="298.944"/>
      </g>
     </g>
     <g id="text_2">
      <!-- 2 -->
      <g transform="translate(131.548357 321.140875)scale(0.2 -0.2)">
       <defs>
        <path d="M 1228 531 
L 3431 531 
L 3431 0 
L 469 0 
L 469 531 
Q 828 903 1448 1529 
Q 2069 2156 2228 2338 
Q 2531 2678 2651 2914 
Q 2772 3150 2772 3378 
Q 2772 3750 2511 3984 
Q 2250 4219 1831 4219 
Q 1534 4219 1204 4116 
Q 875 4013 500 3803 
L 500 4441 
Q 881 4594 1212 4672 
Q 1544 4750 1819 4750 
Q 2544 4750 2975 4387 
Q 3406 4025 3406 3419 
Q 3406 3131 3298 2873 
Q 3191 2616 2906 2266 
Q 2828 2175 2409 1742 
Q 1991 1309 1228 531 
z
" id="DejaVuSans-32" transform="scale(0.015625)"/>
       </defs>
       <use xlink:href="#DejaVuSans-32"/>
      </g>
     </g>
    </g>
    <g id="xtick_3">
     <g id="line2d_9">
      <path clip-path="url(#p60a6408e5d)" d="M 218.221714 298.944 
L 218.221714 3.456 
" style="fill:none;stroke:#b0b0b0;stroke-linecap:square;stroke-width:0.8;"/>
     </g>
     <g id="line2d_10">
      <g>
       <use style="stroke:#000000;stroke-width:0.8;" x="218.221714" xlink:href="#ma1e521adff" y="298.944"/>
      </g>
     </g>
     <g id="text_3">
      <!-- 4 -->
      <g transform="translate(211.859214 321.140875)scale(0.2 -0.2)">
       <defs>
        <path d="M 2419 4116 
L 825 1625 
L 2419 1625 
L 2419 4116 
z
M 2253 4666 
L 3047 4666 
L 3047 1625 
L 3713 1625 
L 3713 1100 
L 3047 1100 
L 3047 0 
L 2419 0 
L 2419 1100 
L 313 1100 
L 313 1709 
L 2253 4666 
z
" id="DejaVuSans-34" transform="scale(0.015625)"/>
       </defs>
       <use xlink:href="#DejaVuSans-34"/>
      </g>
     </g>
    </g>
    <g id="xtick_4">
     <g id="line2d_11">
      <path clip-path="url(#p60a6408e5d)" d="M 298.532571 298.944 
L 298.532571 3.456 
" style="fill:none;stroke:#b0b0b0;stroke-linecap:square;stroke-width:0.8;"/>
     </g>
     <g id="line2d_12">
      <g>
       <use style="stroke:#000000;stroke-width:0.8;" x="298.532571" xlink:href="#ma1e521adff" y="298.944"/>
      </g>
     </g>
     <g id="text_4">
      <!-- 6 -->
      <g transform="translate(292.170071 321.140875)scale(0.2 -0.2)">
       <defs>
        <path d="M 2113 2584 
Q 1688 2584 1439 2293 
Q 1191 2003 1191 1497 
Q 1191 994 1439 701 
Q 1688 409 2113 409 
Q 2538 409 2786 701 
Q 3034 994 3034 1497 
Q 3034 2003 2786 2293 
Q 2538 2584 2113 2584 
z
M 3366 4563 
L 3366 3988 
Q 3128 4100 2886 4159 
Q 2644 4219 2406 4219 
Q 1781 4219 1451 3797 
Q 1122 3375 1075 2522 
Q 1259 2794 1537 2939 
Q 1816 3084 2150 3084 
Q 2853 3084 3261 2657 
Q 3669 2231 3669 1497 
Q 3669 778 3244 343 
Q 2819 -91 2113 -91 
Q 1303 -91 875 529 
Q 447 1150 447 2328 
Q 447 3434 972 4092 
Q 1497 4750 2381 4750 
Q 2619 4750 2861 4703 
Q 3103 4656 3366 4563 
z
" id="DejaVuSans-36" transform="scale(0.015625)"/>
       </defs>
       <use xlink:href="#DejaVuSans-36"/>
      </g>
     </g>
    </g>
    <g id="xtick_5">
     <g id="line2d_13">
      <path clip-path="url(#p60a6408e5d)" d="M 97.755429 298.944 
L 97.755429 3.456 
" style="fill:none;stroke:#b0b0b0;stroke-linecap:square;stroke-width:0.8;"/>
     </g>
     <g id="line2d_14">
      <defs>
       <path d="M 0 0 
L 0 2 
" id="m0eb78c8da9" style="stroke:#000000;stroke-width:0.6;"/>
      </defs>
      <g>
       <use style="stroke:#000000;stroke-width:0.6;" x="97.755429" xlink:href="#m0eb78c8da9" y="298.944"/>
      </g>
     </g>
    </g>
    <g id="xtick_6">
     <g id="line2d_15">
      <path clip-path="url(#p60a6408e5d)" d="M 178.066286 298.944 
L 178.066286 3.456 
" style="fill:none;stroke:#b0b0b0;stroke-linecap:square;stroke-width:0.8;"/>
     </g>
     <g id="line2d_16">
      <g>
       <use style="stroke:#000000;stroke-width:0.6;" x="178.066286" xlink:href="#m0eb78c8da9" y="298.944"/>
      </g>
     </g>
    </g>
    <g id="xtick_7">
     <g id="line2d_17">
      <path clip-path="url(#p60a6408e5d)" d="M 258.377143 298.944 
L 258.377143 3.456 
" style="fill:none;stroke:#b0b0b0;stroke-linecap:square;stroke-width:0.8;"/>
     </g>
     <g id="line2d_18">
      <g>
       <use style="stroke:#000000;stroke-width:0.6;" x="258.377143" xlink:href="#m0eb78c8da9" y="298.944"/>
      </g>
     </g>
    </g>
    <g id="xtick_8">
     <g id="line2d_19">
      <path clip-path="url(#p60a6408e5d)" d="M 338.688 298.944 
L 338.688 3.456 
" style="fill:none;stroke:#b0b0b0;stroke-linecap:square;stroke-width:0.8;"/>
     </g>
     <g id="line2d_20">
      <g>
       <use style="stroke:#000000;stroke-width:0.6;" x="338.688" xlink:href="#m0eb78c8da9" y="298.944"/>
      </g>
     </g>
    </g>
    <g id="text_5">
     <!-- log10(# f-evals / dimension) -->
     <g transform="translate(77.764078 342.217594)scale(0.17 -0.17)">
      <defs>
       <path d="M 603 4863 
L 1178 4863 
L 1178 0 
L 603 0 
L 603 4863 
z
" id="DejaVuSans-6c" transform="scale(0.015625)"/>
       <path d="M 1959 3097 
Q 1497 3097 1228 2736 
Q 959 2375 959 1747 
Q 959 1119 1226 758 
Q 1494 397 1959 397 
Q 2419 397 2687 759 
Q 2956 1122 2956 1747 
Q 2956 2369 2687 2733 
Q 2419 3097 1959 3097 
z
M 1959 3584 
Q 2709 3584 3137 3096 
Q 3566 2609 3566 1747 
Q 3566 888 3137 398 
Q 2709 -91 1959 -91 
Q 1206 -91 779 398 
Q 353 888 353 1747 
Q 353 2609 779 3096 
Q 1206 3584 1959 3584 
z
" id="DejaVuSans-6f" transform="scale(0.015625)"/>
       <path d="M 2906 1791 
Q 2906 2416 2648 2759 
Q 2391 3103 1925 3103 
Q 1463 3103 1205 2759 
Q 947 2416 947 1791 
Q 947 1169 1205 825 
Q 1463 481 1925 481 
Q 2391 481 2648 825 
Q 2906 1169 2906 1791 
z
M 3481 434 
Q 3481 -459 3084 -895 
Q 2688 -1331 1869 -1331 
Q 1566 -1331 1297 -1286 
Q 1028 -1241 775 -1147 
L 775 -588 
Q 1028 -725 1275 -790 
Q 1522 -856 1778 -856 
Q 2344 -856 2625 -561 
Q 2906 -266 2906 331 
L 2906 616 
Q 2728 306 2450 153 
Q 2172 0 1784 0 
Q 1141 0 747 490 
Q 353 981 353 1791 
Q 353 2603 747 3093 
Q 1141 3584 1784 3584 
Q 2172 3584 2450 3431 
Q 2728 3278 2906 2969 
L 2906 3500 
L 3481 3500 
L 3481 434 
z
" id="DejaVuSans-67" transform="scale(0.015625)"/>
       <path d="M 794 531 
L 1825 531 
L 1825 4091 
L 703 3866 
L 703 4441 
L 1819 4666 
L 2450 4666 
L 2450 531 
L 3481 531 
L 3481 0 
L 794 0 
L 794 531 
z
" id="DejaVuSans-31" transform="scale(0.015625)"/>
       <path d="M 1984 4856 
Q 1566 4138 1362 3434 
Q 1159 2731 1159 2009 
Q 1159 1288 1364 580 
Q 1569 -128 1984 -844 
L 1484 -844 
Q 1016 -109 783 600 
Q 550 1309 550 2009 
Q 550 2706 781 3412 
Q 1013 4119 1484 4856 
L 1984 4856 
z
" id="DejaVuSans-28" transform="scale(0.015625)"/>
       <path d="M 3272 2816 
L 2363 2816 
L 2100 1772 
L 3016 1772 
L 3272 2816 
z
M 2803 4594 
L 2478 3297 
L 3391 3297 
L 3719 4594 
L 4219 4594 
L 3897 3297 
L 4872 3297 
L 4872 2816 
L 3775 2816 
L 3519 1772 
L 4513 1772 
L 4513 1294 
L 3397 1294 
L 3072 0 
L 2572 0 
L 2894 1294 
L 1978 1294 
L 1656 0 
L 1153 0 
L 1478 1294 
L 494 1294 
L 494 1772 
L 1594 1772 
L 1856 2816 
L 850 2816 
L 850 3297 
L 1978 3297 
L 2297 4594 
L 2803 4594 
z
" id="DejaVuSans-23" transform="scale(0.015625)"/>
       <path id="DejaVuSans-20" transform="scale(0.015625)"/>
       <path d="M 2375 4863 
L 2375 4384 
L 1825 4384 
Q 1516 4384 1395 4259 
Q 1275 4134 1275 3809 
L 1275 3500 
L 2222 3500 
L 2222 3053 
L 1275 3053 
L 1275 0 
L 697 0 
L 697 3053 
L 147 3053 
L 147 3500 
L 697 3500 
L 697 3744 
Q 697 4328 969 4595 
Q 1241 4863 1831 4863 
L 2375 4863 
z
" id="DejaVuSans-66" transform="scale(0.015625)"/>
       <path d="M 313 2009 
L 1997 2009 
L 1997 1497 
L 313 1497 
L 313 2009 
z
" id="DejaVuSans-2d" transform="scale(0.015625)"/>
       <path d="M 3597 1894 
L 3597 1613 
L 953 1613 
Q 991 1019 1311 708 
Q 1631 397 2203 397 
Q 2534 397 2845 478 
Q 3156 559 3463 722 
L 3463 178 
Q 3153 47 2828 -22 
Q 2503 -91 2169 -91 
Q 1331 -91 842 396 
Q 353 884 353 1716 
Q 353 2575 817 3079 
Q 1281 3584 2069 3584 
Q 2775 3584 3186 3129 
Q 3597 2675 3597 1894 
z
M 3022 2063 
Q 3016 2534 2758 2815 
Q 2500 3097 2075 3097 
Q 1594 3097 1305 2825 
Q 1016 2553 972 2059 
L 3022 2063 
z
" id="DejaVuSans-65" transform="scale(0.015625)"/>
       <path d="M 191 3500 
L 800 3500 
L 1894 563 
L 2988 3500 
L 3597 3500 
L 2284 0 
L 1503 0 
L 191 3500 
z
" id="DejaVuSans-76" transform="scale(0.015625)"/>
       <path d="M 2194 1759 
Q 1497 1759 1228 1600 
Q 959 1441 959 1056 
Q 959 750 1161 570 
Q 1363 391 1709 391 
Q 2188 391 2477 730 
Q 2766 1069 2766 1631 
L 2766 1759 
L 2194 1759 
z
M 3341 1997 
L 3341 0 
L 2766 0 
L 2766 531 
Q 2569 213 2275 61 
Q 1981 -91 1556 -91 
Q 1019 -91 701 211 
Q 384 513 384 1019 
Q 384 1609 779 1909 
Q 1175 2209 1959 2209 
L 2766 2209 
L 2766 2266 
Q 2766 2663 2505 2880 
Q 2244 3097 1772 3097 
Q 1472 3097 1187 3025 
Q 903 2953 641 2809 
L 641 3341 
Q 956 3463 1253 3523 
Q 1550 3584 1831 3584 
Q 2591 3584 2966 3190 
Q 3341 2797 3341 1997 
z
" id="DejaVuSans-61" transform="scale(0.015625)"/>
       <path d="M 2834 3397 
L 2834 2853 
Q 2591 2978 2328 3040 
Q 2066 3103 1784 3103 
Q 1356 3103 1142 2972 
Q 928 2841 928 2578 
Q 928 2378 1081 2264 
Q 1234 2150 1697 2047 
L 1894 2003 
Q 2506 1872 2764 1633 
Q 3022 1394 3022 966 
Q 3022 478 2636 193 
Q 2250 -91 1575 -91 
Q 1294 -91 989 -36 
Q 684 19 347 128 
L 347 722 
Q 666 556 975 473 
Q 1284 391 1588 391 
Q 1994 391 2212 530 
Q 2431 669 2431 922 
Q 2431 1156 2273 1281 
Q 2116 1406 1581 1522 
L 1381 1569 
Q 847 1681 609 1914 
Q 372 2147 372 2553 
Q 372 3047 722 3315 
Q 1072 3584 1716 3584 
Q 2034 3584 2315 3537 
Q 2597 3491 2834 3397 
z
" id="DejaVuSans-73" transform="scale(0.015625)"/>
       <path d="M 1625 4666 
L 2156 4666 
L 531 -594 
L 0 -594 
L 1625 4666 
z
" id="DejaVuSans-2f" transform="scale(0.015625)"/>
       <path d="M 2906 2969 
L 2906 4863 
L 3481 4863 
L 3481 0 
L 2906 0 
L 2906 525 
Q 2725 213 2448 61 
Q 2172 -91 1784 -91 
Q 1150 -91 751 415 
Q 353 922 353 1747 
Q 353 2572 751 3078 
Q 1150 3584 1784 3584 
Q 2172 3584 2448 3432 
Q 2725 3281 2906 2969 
z
M 947 1747 
Q 947 1113 1208 752 
Q 1469 391 1925 391 
Q 2381 391 2643 752 
Q 2906 1113 2906 1747 
Q 2906 2381 2643 2742 
Q 2381 3103 1925 3103 
Q 1469 3103 1208 2742 
Q 947 2381 947 1747 
z
" id="DejaVuSans-64" transform="scale(0.015625)"/>
       <path d="M 603 3500 
L 1178 3500 
L 1178 0 
L 603 0 
L 603 3500 
z
M 603 4863 
L 1178 4863 
L 1178 4134 
L 603 4134 
L 603 4863 
z
" id="DejaVuSans-69" transform="scale(0.015625)"/>
       <path d="M 3328 2828 
Q 3544 3216 3844 3400 
Q 4144 3584 4550 3584 
Q 5097 3584 5394 3201 
Q 5691 2819 5691 2113 
L 5691 0 
L 5113 0 
L 5113 2094 
Q 5113 2597 4934 2840 
Q 4756 3084 4391 3084 
Q 3944 3084 3684 2787 
Q 3425 2491 3425 1978 
L 3425 0 
L 2847 0 
L 2847 2094 
Q 2847 2600 2669 2842 
Q 2491 3084 2119 3084 
Q 1678 3084 1418 2786 
Q 1159 2488 1159 1978 
L 1159 0 
L 581 0 
L 581 3500 
L 1159 3500 
L 1159 2956 
Q 1356 3278 1631 3431 
Q 1906 3584 2284 3584 
Q 2666 3584 2933 3390 
Q 3200 3197 3328 2828 
z
" id="DejaVuSans-6d" transform="scale(0.015625)"/>
       <path d="M 3513 2113 
L 3513 0 
L 2938 0 
L 2938 2094 
Q 2938 2591 2744 2837 
Q 2550 3084 2163 3084 
Q 1697 3084 1428 2787 
Q 1159 2491 1159 1978 
L 1159 0 
L 581 0 
L 581 3500 
L 1159 3500 
L 1159 2956 
Q 1366 3272 1645 3428 
Q 1925 3584 2291 3584 
Q 2894 3584 3203 3211 
Q 3513 2838 3513 2113 
z
" id="DejaVuSans-6e" transform="scale(0.015625)"/>
       <path d="M 513 4856 
L 1013 4856 
Q 1481 4119 1714 3412 
Q 1947 2706 1947 2009 
Q 1947 1309 1714 600 
Q 1481 -109 1013 -844 
L 513 -844 
Q 928 -128 1133 580 
Q 1338 1288 1338 2009 
Q 1338 2731 1133 3434 
Q 928 4138 513 4856 
z
" id="DejaVuSans-29" transform="scale(0.015625)"/>
      </defs>
      <use xlink:href="#DejaVuSans-6c"/>
      <use x="27.783203" xlink:href="#DejaVuSans-6f"/>
      <use x="88.964844" xlink:href="#DejaVuSans-67"/>
      <use x="152.441406" xlink:href="#DejaVuSans-31"/>
      <use x="216.064453" xlink:href="#DejaVuSans-30"/>
      <use x="279.6875" xlink:href="#DejaVuSans-28"/>
      <use x="318.701172" xlink:href="#DejaVuSans-23"/>
      <use x="402.490234" xlink:href="#DejaVuSans-20"/>
      <use x="434.277344" xlink:href="#DejaVuSans-66"/>
      <use x="463.982422" xlink:href="#DejaVuSans-2d"/>
      <use x="500.066406" xlink:href="#DejaVuSans-65"/>
      <use x="561.589844" xlink:href="#DejaVuSans-76"/>
      <use x="620.769531" xlink:href="#DejaVuSans-61"/>
      <use x="682.048828" xlink:href="#DejaVuSans-6c"/>
      <use x="709.832031" xlink:href="#DejaVuSans-73"/>
      <use x="761.931641" xlink:href="#DejaVuSans-20"/>
      <use x="793.71875" xlink:href="#DejaVuSans-2f"/>
      <use x="827.410156" xlink:href="#DejaVuSans-20"/>
      <use x="859.197266" xlink:href="#DejaVuSans-64"/>
      <use x="922.673828" xlink:href="#DejaVuSans-69"/>
      <use x="950.457031" xlink:href="#DejaVuSans-6d"/>
      <use x="1047.869141" xlink:href="#DejaVuSans-65"/>
      <use x="1109.392578" xlink:href="#DejaVuSans-6e"/>
      <use x="1172.771484" xlink:href="#DejaVuSans-73"/>
      <use x="1224.871094" xlink:href="#DejaVuSans-69"/>
      <use x="1252.654297" xlink:href="#DejaVuSans-6f"/>
      <use x="1313.835938" xlink:href="#DejaVuSans-6e"/>
      <use x="1377.214844" xlink:href="#DejaVuSans-29"/>
     </g>
    </g>
   </g>
   <g id="matplotlib.axis_2">
    <g id="ytick_1">
     <g id="line2d_21">
      <path clip-path="url(#p60a6408e5d)" d="M 57.6 298.944 
L 338.688 298.944 
" style="fill:none;stroke:#b0b0b0;stroke-linecap:square;stroke-width:0.8;"/>
     </g>
     <g id="line2d_22">
      <defs>
       <path d="M 0 0 
L -3.5 0 
" id="m8039bf1492" style="stroke:#000000;stroke-width:0.8;"/>
      </defs>
      <g>
       <use style="stroke:#000000;stroke-width:0.8;" x="57.6" xlink:href="#m8039bf1492" y="298.944"/>
      </g>
     </g>
     <g id="text_6">
      <!-- 0.0 -->
      <g transform="translate(25.155 305.02275)scale(0.16 -0.16)">
       <defs>
        <path d="M 684 794 
L 1344 794 
L 1344 0 
L 684 0 
L 684 794 
z
" id="DejaVuSans-2e" transform="scale(0.015625)"/>
       </defs>
       <use xlink:href="#DejaVuSans-30"/>
       <use x="63.623047" xlink:href="#DejaVuSans-2e"/>
       <use x="95.410156" xlink:href="#DejaVuSans-30"/>
      </g>
     </g>
    </g>
    <g id="ytick_2">
     <g id="line2d_23">
      <path clip-path="url(#p60a6408e5d)" d="M 57.6 240.431525 
L 338.688 240.431525 
" style="fill:none;stroke:#b0b0b0;stroke-linecap:square;stroke-width:0.8;"/>
     </g>
     <g id="line2d_24">
      <g>
       <use style="stroke:#000000;stroke-width:0.8;" x="57.6" xlink:href="#m8039bf1492" y="240.431525"/>
      </g>
     </g>
     <g id="text_7">
      <!-- 0.2 -->
      <g transform="translate(25.155 246.510275)scale(0.16 -0.16)">
       <use xlink:href="#DejaVuSans-30"/>
       <use x="63.623047" xlink:href="#DejaVuSans-2e"/>
       <use x="95.410156" xlink:href="#DejaVuSans-32"/>
      </g>
     </g>
    </g>
    <g id="ytick_3">
     <g id="line2d_25">
      <path clip-path="url(#p60a6408e5d)" d="M 57.6 181.91905 
L 338.688 181.91905 
" style="fill:none;stroke:#b0b0b0;stroke-linecap:square;stroke-width:0.8;"/>
     </g>
     <g id="line2d_26">
      <g>
       <use style="stroke:#000000;stroke-width:0.8;" x="57.6" xlink:href="#m8039bf1492" y="181.91905"/>
      </g>
     </g>
     <g id="text_8">
      <!-- 0.4 -->
      <g transform="translate(25.155 187.9978)scale(0.16 -0.16)">
       <use xlink:href="#DejaVuSans-30"/>
       <use x="63.623047" xlink:href="#DejaVuSans-2e"/>
       <use x="95.410156" xlink:href="#DejaVuSans-34"/>
      </g>
     </g>
    </g>
    <g id="ytick_4">
     <g id="line2d_27">
      <path clip-path="url(#p60a6408e5d)" d="M 57.6 123.406574 
L 338.688 123.406574 
" style="fill:none;stroke:#b0b0b0;stroke-linecap:square;stroke-width:0.8;"/>
     </g>
     <g id="line2d_28">
      <g>
       <use style="stroke:#000000;stroke-width:0.8;" x="57.6" xlink:href="#m8039bf1492" y="123.406574"/>
      </g>
     </g>
     <g id="text_9">
      <!-- 0.6 -->
      <g transform="translate(25.155 129.485324)scale(0.16 -0.16)">
       <use xlink:href="#DejaVuSans-30"/>
       <use x="63.623047" xlink:href="#DejaVuSans-2e"/>
       <use x="95.410156" xlink:href="#DejaVuSans-36"/>
      </g>
     </g>
    </g>
    <g id="ytick_5">
     <g id="line2d_29">
      <path clip-path="url(#p60a6408e5d)" d="M 57.6 64.894099 
L 338.688 64.894099 
" style="fill:none;stroke:#b0b0b0;stroke-linecap:square;stroke-width:0.8;"/>
     </g>
     <g id="line2d_30">
      <g>
       <use style="stroke:#000000;stroke-width:0.8;" x="57.6" xlink:href="#m8039bf1492" y="64.894099"/>
      </g>
     </g>
     <g id="text_10">
      <!-- 0.8 -->
      <g transform="translate(25.155 70.972849)scale(0.16 -0.16)">
       <defs>
        <path d="M 2034 2216 
Q 1584 2216 1326 1975 
Q 1069 1734 1069 1313 
Q 1069 891 1326 650 
Q 1584 409 2034 409 
Q 2484 409 2743 651 
Q 3003 894 3003 1313 
Q 3003 1734 2745 1975 
Q 2488 2216 2034 2216 
z
M 1403 2484 
Q 997 2584 770 2862 
Q 544 3141 544 3541 
Q 544 4100 942 4425 
Q 1341 4750 2034 4750 
Q 2731 4750 3128 4425 
Q 3525 4100 3525 3541 
Q 3525 3141 3298 2862 
Q 3072 2584 2669 2484 
Q 3125 2378 3379 2068 
Q 3634 1759 3634 1313 
Q 3634 634 3220 271 
Q 2806 -91 2034 -91 
Q 1263 -91 848 271 
Q 434 634 434 1313 
Q 434 1759 690 2068 
Q 947 2378 1403 2484 
z
M 1172 3481 
Q 1172 3119 1398 2916 
Q 1625 2713 2034 2713 
Q 2441 2713 2670 2916 
Q 2900 3119 2900 3481 
Q 2900 3844 2670 4047 
Q 2441 4250 2034 4250 
Q 1625 4250 1398 4047 
Q 1172 3844 1172 3481 
z
" id="DejaVuSans-38" transform="scale(0.015625)"/>
       </defs>
       <use xlink:href="#DejaVuSans-30"/>
       <use x="63.623047" xlink:href="#DejaVuSans-2e"/>
       <use x="95.410156" xlink:href="#DejaVuSans-38"/>
      </g>
     </g>
    </g>
    <g id="ytick_6">
     <g id="line2d_31">
      <path clip-path="url(#p60a6408e5d)" d="M 57.6 6.381624 
L 338.688 6.381624 
" style="fill:none;stroke:#b0b0b0;stroke-linecap:square;stroke-width:0.8;"/>
     </g>
     <g id="line2d_32">
      <g>
       <use style="stroke:#000000;stroke-width:0.8;" x="57.6" xlink:href="#m8039bf1492" y="6.381624"/>
      </g>
     </g>
     <g id="text_11">
      <!-- 1.0 -->
      <g transform="translate(25.155 12.460374)scale(0.16 -0.16)">
       <use xlink:href="#DejaVuSans-31"/>
       <use x="63.623047" xlink:href="#DejaVuSans-2e"/>
       <use x="95.410156" xlink:href="#DejaVuSans-30"/>
      </g>
     </g>
    </g>
    <g id="text_12">
     <!-- Fraction of function,target pairs -->
     <g transform="translate(17.619531 285.585)rotate(-90)scale(0.17 -0.17)">
      <defs>
       <path d="M 628 4666 
L 3309 4666 
L 3309 4134 
L 1259 4134 
L 1259 2759 
L 3109 2759 
L 3109 2228 
L 1259 2228 
L 1259 0 
L 628 0 
L 628 4666 
z
" id="DejaVuSans-46" transform="scale(0.015625)"/>
       <path d="M 2631 2963 
Q 2534 3019 2420 3045 
Q 2306 3072 2169 3072 
Q 1681 3072 1420 2755 
Q 1159 2438 1159 1844 
L 1159 0 
L 581 0 
L 581 3500 
L 1159 3500 
L 1159 2956 
Q 1341 3275 1631 3429 
Q 1922 3584 2338 3584 
Q 2397 3584 2469 3576 
Q 2541 3569 2628 3553 
L 2631 2963 
z
" id="DejaVuSans-72" transform="scale(0.015625)"/>
       <path d="M 3122 3366 
L 3122 2828 
Q 2878 2963 2633 3030 
Q 2388 3097 2138 3097 
Q 1578 3097 1268 2742 
Q 959 2388 959 1747 
Q 959 1106 1268 751 
Q 1578 397 2138 397 
Q 2388 397 2633 464 
Q 2878 531 3122 666 
L 3122 134 
Q 2881 22 2623 -34 
Q 2366 -91 2075 -91 
Q 1284 -91 818 406 
Q 353 903 353 1747 
Q 353 2603 823 3093 
Q 1294 3584 2113 3584 
Q 2378 3584 2631 3529 
Q 2884 3475 3122 3366 
z
" id="DejaVuSans-63" transform="scale(0.015625)"/>
       <path d="M 1172 4494 
L 1172 3500 
L 2356 3500 
L 2356 3053 
L 1172 3053 
L 1172 1153 
Q 1172 725 1289 603 
Q 1406 481 1766 481 
L 2356 481 
L 2356 0 
L 1766 0 
Q 1100 0 847 248 
Q 594 497 594 1153 
L 594 3053 
L 172 3053 
L 172 3500 
L 594 3500 
L 594 4494 
L 1172 4494 
z
" id="DejaVuSans-74" transform="scale(0.015625)"/>
       <path d="M 544 1381 
L 544 3500 
L 1119 3500 
L 1119 1403 
Q 1119 906 1312 657 
Q 1506 409 1894 409 
Q 2359 409 2629 706 
Q 2900 1003 2900 1516 
L 2900 3500 
L 3475 3500 
L 3475 0 
L 2900 0 
L 2900 538 
Q 2691 219 2414 64 
Q 2138 -91 1772 -91 
Q 1169 -91 856 284 
Q 544 659 544 1381 
z
M 1991 3584 
L 1991 3584 
z
" id="DejaVuSans-75" transform="scale(0.015625)"/>
       <path d="M 750 794 
L 1409 794 
L 1409 256 
L 897 -744 
L 494 -744 
L 750 256 
L 750 794 
z
" id="DejaVuSans-2c" transform="scale(0.015625)"/>
       <path d="M 1159 525 
L 1159 -1331 
L 581 -1331 
L 581 3500 
L 1159 3500 
L 1159 2969 
Q 1341 3281 1617 3432 
Q 1894 3584 2278 3584 
Q 2916 3584 3314 3078 
Q 3713 2572 3713 1747 
Q 3713 922 3314 415 
Q 2916 -91 2278 -91 
Q 1894 -91 1617 61 
Q 1341 213 1159 525 
z
M 3116 1747 
Q 3116 2381 2855 2742 
Q 2594 3103 2138 3103 
Q 1681 3103 1420 2742 
Q 1159 2381 1159 1747 
Q 1159 1113 1420 752 
Q 1681 391 2138 391 
Q 2594 391 2855 752 
Q 3116 1113 3116 1747 
z
" id="DejaVuSans-70" transform="scale(0.015625)"/>
      </defs>
      <use xlink:href="#DejaVuSans-46"/>
      <use x="50.269531" xlink:href="#DejaVuSans-72"/>
      <use x="91.382812" xlink:href="#DejaVuSans-61"/>
      <use x="152.662109" xlink:href="#DejaVuSans-63"/>
      <use x="207.642578" xlink:href="#DejaVuSans-74"/>
      <use x="246.851562" xlink:href="#DejaVuSans-69"/>
      <use x="274.634766" xlink:href="#DejaVuSans-6f"/>
      <use x="335.816406" xlink:href="#DejaVuSans-6e"/>
      <use x="399.195312" xlink:href="#DejaVuSans-20"/>
      <use x="430.982422" xlink:href="#DejaVuSans-6f"/>
      <use x="492.164062" xlink:href="#DejaVuSans-66"/>
      <use x="527.369141" xlink:href="#DejaVuSans-20"/>
      <use x="559.15625" xlink:href="#DejaVuSans-66"/>
      <use x="594.361328" xlink:href="#DejaVuSans-75"/>
      <use x="657.740234" xlink:href="#DejaVuSans-6e"/>
      <use x="721.119141" xlink:href="#DejaVuSans-63"/>
      <use x="776.099609" xlink:href="#DejaVuSans-74"/>
      <use x="815.308594" xlink:href="#DejaVuSans-69"/>
      <use x="843.091797" xlink:href="#DejaVuSans-6f"/>
      <use x="904.273438" xlink:href="#DejaVuSans-6e"/>
      <use x="967.652344" xlink:href="#DejaVuSans-2c"/>
      <use x="999.439453" xlink:href="#DejaVuSans-74"/>
      <use x="1038.648438" xlink:href="#DejaVuSans-61"/>
      <use x="1099.927734" xlink:href="#DejaVuSans-72"/>
      <use x="1139.291016" xlink:href="#DejaVuSans-67"/>
      <use x="1202.767578" xlink:href="#DejaVuSans-65"/>
      <use x="1264.291016" xlink:href="#DejaVuSans-74"/>
      <use x="1303.5" xlink:href="#DejaVuSans-20"/>
      <use x="1335.287109" xlink:href="#DejaVuSans-70"/>
      <use x="1398.763672" xlink:href="#DejaVuSans-61"/>
      <use x="1460.042969" xlink:href="#DejaVuSans-69"/>
      <use x="1487.826172" xlink:href="#DejaVuSans-72"/>
      <use x="1528.939453" xlink:href="#DejaVuSans-73"/>
     </g>
    </g>
   </g>
   <g id="line2d_33">
    <defs>
     <path d="M 0 1.5 
C 0.397805 1.5 0.77937 1.341951 1.06066 1.06066 
C 1.341951 0.77937 1.5 0.397805 1.5 0 
C 1.5 -0.397805 1.341951 -0.77937 1.06066 -1.06066 
C 0.77937 -1.341951 0.397805 -1.5 0 -1.5 
C -0.397805 -1.5 -0.77937 -1.341951 -1.06066 -1.06066 
C -1.341951 -0.77937 -1.5 -0.397805 -1.5 0 
C -1.5 0.397805 -1.341951 0.77937 -1.06066 1.06066 
C -0.77937 1.341951 -0.397805 1.5 0 1.5 
z
" id="m1a48d3b779" style="stroke:#f5deb3;"/>
    </defs>
    <g>
     <use style="fill:#f5deb3;stroke:#f5deb3;" x="289.349016" xlink:href="#m1a48d3b779" y="41.690876"/>
     <use style="fill:#f5deb3;stroke:#f5deb3;" x="289.349016" xlink:href="#m1a48d3b779" y="41.690876"/>
    </g>
   </g>
   <g id="line2d_34">
    <defs>
     <path d="M 0 1.5 
C 0.397805 1.5 0.77937 1.341951 1.06066 1.06066 
C 1.341951 0.77937 1.5 0.397805 1.5 0 
C 1.5 -0.397805 1.341951 -0.77937 1.06066 -1.06066 
C 0.77937 -1.341951 0.397805 -1.5 0 -1.5 
C -0.397805 -1.5 -0.77937 -1.341951 -1.06066 -1.06066 
C -1.341951 -0.77937 -1.5 -0.397805 -1.5 0 
C -1.5 0.397805 -1.341951 0.77937 -1.06066 1.06066 
C -0.77937 1.341951 -0.397805 1.5 0 1.5 
z
" id="m84cb9b7a11" style="stroke:#000080;"/>
    </defs>
    <g>
     <use style="fill:#000080;stroke:#000080;" x="234.1134" xlink:href="#m84cb9b7a11" y="187.215437"/>
     <use style="fill:#000080;stroke:#000080;" x="234.1134" xlink:href="#m84cb9b7a11" y="187.215437"/>
    </g>
   </g>
   <g id="line2d_35">
    <path d="M 17.444571 298.944 
L 17.444571 289.107851 
L 62.175444 289.107851 
L 62.175444 288.981747 
L 65.796525 288.981747 
L 65.796525 288.855642 
L 66.853775 288.855642 
L 66.853775 288.729538 
L 67.850577 288.729538 
L 67.850577 288.603433 
L 68.79347 288.603433 
L 68.79347 288.22512 
L 70.538854 288.22512 
L 70.538854 287.468493 
L 71.35013 287.468493 
L 71.35013 286.459657 
L 72.867545 286.459657 
L 72.867545 286.207448 
L 77.330839 286.207448 
L 77.330839 285.955239 
L 77.884514 285.955239 
L 77.884514 285.198612 
L 78.421149 285.198612 
L 78.421149 285.072508 
L 78.941764 285.072508 
L 78.941764 284.946404 
L 79.447285 284.946404 
L 79.447285 284.820299 
L 79.938565 284.820299 
L 79.938565 284.694195 
L 80.416384 284.694195 
L 80.416384 284.56809 
L 81.334453 284.56809 
L 81.334453 283.937568 
L 81.775977 283.937568 
L 81.775977 283.685359 
L 82.206598 283.685359 
L 82.206598 283.180941 
L 82.626842 283.180941 
L 82.626842 282.550419 
L 83.037197 282.550419 
L 83.037197 282.424314 
L 84.588378 282.424314 
L 84.588378 282.29821 
L 85.66744 282.29821 
L 85.66744 281.919896 
L 86.012784 281.919896 
L 86.012784 280.784956 
L 88.553893 280.784956 
L 88.553893 280.532747 
L 88.846997 280.532747 
L 88.846997 280.406643 
L 89.135256 280.406643 
L 89.135256 279.397807 
L 89.972502 279.397807 
L 89.972502 279.271702 
L 90.509138 279.271702 
L 90.509138 279.145598 
L 91.029752 279.145598 
L 91.029752 279.019493 
L 91.284345 279.019493 
L 91.284345 278.515075 
L 91.782644 278.515075 
L 91.782644 278.388971 
L 92.504372 278.388971 
L 92.504372 278.262867 
L 92.969447 278.262867 
L 92.969447 278.010658 
L 93.197415 278.010658 
L 93.197415 277.884553 
L 93.422441 277.884553 
L 93.422441 277.758449 
L 93.644601 277.758449 
L 93.644601 277.632344 
L 94.294587 277.632344 
L 94.294587 277.50624 
L 95.125186 277.50624 
L 95.125186 277.001822 
L 95.526106 277.001822 
L 95.526106 276.875717 
L 95.723163 276.875717 
L 95.723163 276.371299 
L 95.918017 276.371299 
L 95.918017 276.245195 
L 96.676366 276.245195 
L 96.676366 275.992986 
L 97.224242 275.992986 
L 97.224242 275.740777 
L 98.606294 275.740777 
L 98.606294 275.488568 
L 98.771596 275.488568 
L 98.771596 275.362464 
L 99.41757 275.362464 
L 99.41757 275.110255 
L 99.575392 275.110255 
L 99.575392 274.858046 
L 100.789049 274.858046 
L 100.789049 274.731941 
L 100.934985 274.731941 
L 100.934985 274.479732 
L 101.223245 274.479732 
L 101.223245 274.353628 
L 101.365607 274.353628 
L 101.365607 274.227523 
L 101.785851 274.227523 
L 101.785851 274.101419 
L 101.923711 274.101419 
L 101.923711 273.975314 
L 102.464508 273.975314 
L 102.464508 273.84921 
L 102.989037 273.84921 
L 102.989037 273.723105 
L 103.245502 273.723105 
L 103.245502 273.597001 
L 103.372333 273.597001 
L 103.372333 273.470897 
L 103.870632 273.470897 
L 103.870632 273.344792 
L 103.993014 273.344792 
L 103.993014 273.218688 
L 104.355088 273.218688 
L 104.355088 273.092583 
L 104.592361 273.092583 
L 104.592361 272.966479 
L 104.709797 272.966479 
L 104.709797 272.840374 
L 104.826449 272.840374 
L 104.826449 272.588165 
L 104.942325 272.588165 
L 104.942325 272.335956 
L 105.285403 272.335956 
L 105.285403 272.083747 
L 105.51043 272.083747 
L 105.51043 271.831538 
L 105.621863 271.831538 
L 105.732589 271.201016 
L 105.951954 271.201016 
L 105.951954 270.822703 
L 106.48859 270.822703 
L 106.48859 270.696598 
L 107.213174 270.696598 
L 107.213174 270.570494 
L 107.414787 270.570494 
L 107.514726 270.318285 
L 107.614095 270.318285 
L 107.712901 270.066076 
L 107.811151 270.066076 
L 107.90885 269.687762 
L 108.856871 269.687762 
L 108.856871 269.435553 
L 109.222105 269.435553 
L 109.31223 269.05724 
L 109.491096 269.05724 
L 109.491096 268.931136 
L 109.668146 268.931136 
L 109.668146 268.805031 
L 109.843417 268.805031 
L 109.843417 268.426718 
L 110.016944 268.426718 
L 110.103064 268.048404 
L 110.694282 268.048404 
L 110.77713 267.543986 
L 110.941652 267.543986 
L 111.023335 267.165673 
L 111.266113 267.165673 
L 111.346294 266.78736 
L 111.74176 266.78736 
L 111.74176 266.661255 
L 111.974805 266.661255 
L 112.051799 266.282942 
L 112.128456 266.282942 
L 112.128456 266.156837 
L 112.356423 266.156837 
L 112.431755 265.778524 
L 112.877038 265.778524 
L 112.950158 265.021897 
L 113.022974 265.021897 
L 113.022974 264.895792 
L 113.453595 264.895792 
L 113.524343 264.517479 
L 114.618932 264.517479 
L 114.685115 264.26527 
L 115.012316 264.26527 
L 115.012316 264.139166 
L 115.141496 264.139166 
L 115.141496 264.013061 
L 115.33349 264.013061 
L 115.397021 263.634748 
L 115.586238 263.634748 
L 115.586238 263.508643 
L 115.897107 263.508643 
L 115.958621 262.625912 
L 116.019919 262.625912 
L 116.081002 262.373703 
L 116.141872 262.373703 
L 116.141872 262.247598 
L 116.38325 262.247598 
L 116.38325 262.121494 
L 116.502698 262.121494 
L 116.562116 261.869285 
L 116.621333 261.869285 
L 116.621333 261.743181 
L 116.797786 261.743181 
L 116.797786 261.490972 
L 117.087964 261.490972 
L 117.145424 261.112658 
L 117.542433 261.112658 
L 117.542433 260.860449 
L 117.930605 260.860449 
L 118.039942 260.229927 
L 118.094355 260.229927 
L 118.202674 259.347196 
L 118.470564 259.347196 
L 118.576578 258.968882 
L 118.734401 258.968882 
L 118.734401 258.842778 
L 118.994305 258.842778 
L 119.045825 258.590569 
L 119.250393 258.590569 
L 119.250393 258.33836 
L 119.552816 258.33836 
L 119.552816 258.212255 
L 119.751557 258.212255 
L 119.751557 258.086151 
L 119.89914 258.086151 
L 119.89914 257.960046 
L 120.429836 257.960046 
L 120.429836 257.707837 
L 120.571812 257.707837 
L 120.665825 257.329524 
L 120.712642 257.329524 
L 120.712642 257.077315 
L 121.08272 257.077315 
L 121.128432 256.825106 
L 121.264855 256.825106 
L 121.264855 256.446793 
L 121.400219 256.446793 
L 121.489881 256.068479 
L 121.712041 256.068479 
L 121.712041 255.942375 
L 121.84399 255.942375 
L 121.931406 255.564061 
L 122.148045 255.564061 
L 122.191052 255.311853 
L 122.489167 255.311853 
L 122.531342 255.059644 
L 122.823744 255.059644 
L 122.865118 254.807435 
L 123.233135 254.807435 
L 123.233135 254.68133 
L 123.434283 254.68133 
L 123.434283 254.555226 
L 123.672636 254.555226 
L 123.751369 254.050808 
L 123.829748 254.050808 
L 123.907776 253.798599 
L 124.024168 253.798599 
L 124.024168 253.672494 
L 124.254646 253.672494 
L 124.254646 253.54639 
L 124.406624 253.54639 
L 124.406624 253.420285 
L 124.632135 253.420285 
L 124.706662 253.041972 
L 125.038147 253.041972 
L 125.038147 252.915868 
L 125.255688 252.915868 
L 125.363449 252.285345 
L 125.399222 252.285345 
L 125.506102 252.033136 
L 125.612332 252.033136 
L 125.612332 251.907032 
L 125.752972 251.907032 
L 125.752972 251.654823 
L 125.927192 251.654823 
L 125.996395 251.402614 
L 126.065325 251.402614 
L 126.168212 250.898196 
L 126.47328 250.898196 
L 126.47328 250.772091 
L 127.100304 250.772091 
L 127.100304 250.645987 
L 127.293718 250.645987 
L 127.293718 250.393778 
L 127.674226 250.393778 
L 127.736845 250.141569 
L 128.441249 250.141569 
L 128.441249 249.88936 
L 129.002426 249.88936 
L 129.002426 249.637151 
L 129.175952 249.637151 
L 129.204706 249.006629 
L 129.433047 249.006629 
L 129.489668 248.628315 
L 129.602362 248.628315 
L 129.602362 248.376107 
L 130.045992 248.376107 
L 130.045992 247.61948 
L 130.585116 247.61948 
L 130.585116 247.493375 
L 131.236397 247.493375 
L 131.236397 247.241166 
L 131.665771 247.241166 
L 131.665771 247.115062 
L 132.133473 247.115062 
L 132.133473 246.862853 
L 132.326708 246.862853 
L 132.326708 246.610644 
L 132.446401 246.610644 
L 132.446401 246.358435 
L 132.753813 246.358435 
L 132.753813 246.23233 
L 132.963507 246.23233 
L 132.963507 246.106226 
L 133.284766 246.106226 
L 133.375477 245.475704 
L 133.510666 245.475704 
L 133.555497 245.223495 
L 134.084669 245.223495 
L 134.106373 244.719077 
L 134.640379 244.719077 
L 134.640379 244.592972 
L 135.158519 244.592972 
L 135.158519 244.340763 
L 135.321124 244.340763 
L 135.321124 244.214659 
L 135.522271 244.214659 
L 135.522271 244.088554 
L 135.681535 244.088554 
L 135.701341 243.710241 
L 136.13148 243.710241 
L 136.13148 243.458032 
L 136.304433 243.458032 
L 136.304433 243.331928 
L 136.570107 243.331928 
L 136.570107 242.701405 
L 137.433523 242.701405 
L 137.433523 242.449196 
L 139.02546 242.449196 
L 139.090775 242.196987 
L 139.620495 242.196987 
L 139.652088 241.818674 
L 140.333034 241.818674 
L 140.333034 241.692569 
L 142.633244 241.692569 
L 142.673105 241.314256 
L 143.105668 241.314256 
L 143.105668 241.188152 
L 143.311596 241.188152 
L 143.311596 240.935943 
L 144.378627 240.935943 
L 144.378627 240.683734 
L 144.510517 240.683734 
L 144.510517 240.431525 
L 144.806606 240.431525 
L 144.806606 240.30542 
L 145.452153 240.30542 
L 145.452153 240.053211 
L 146.118279 240.053211 
L 146.118279 239.801002 
L 147.113265 239.801002 
L 147.113265 239.674898 
L 148.219468 239.674898 
L 148.219468 239.422689 
L 148.648676 239.422689 
L 148.648676 239.17048 
L 149.030744 239.17048 
L 149.030744 238.918271 
L 149.699829 238.918271 
L 149.797132 238.539958 
L 150.198253 238.539958 
L 150.198253 238.287749 
L 150.38688 238.287749 
L 150.412445 237.909435 
L 150.607205 237.909435 
L 150.607205 237.657226 
L 151.300575 237.657226 
L 151.300575 237.405017 
L 152.091608 237.405017 
L 152.091608 237.278913 
L 152.260923 237.278913 
L 152.306816 236.774495 
L 152.526944 236.774495 
L 152.594699 236.143973 
L 152.973748 236.143973 
L 152.973748 235.891764 
L 153.862384 235.891764 
L 153.862384 235.639555 
L 154.063835 235.639555 
L 154.063835 235.387346 
L 154.554156 235.387346 
L 154.554156 235.135137 
L 155.296925 235.135137 
L 155.393186 234.756823 
L 155.603109 234.756823 
L 155.603109 234.504615 
L 155.760475 234.504615 
L 155.760475 234.252406 
L 155.910223 234.252406 
L 155.935057 234.000197 
L 156.144725 234.000197 
L 156.156981 233.747988 
L 156.30945 233.747988 
L 156.315521 233.24357 
L 156.759018 233.24357 
L 156.759018 233.117465 
L 156.970762 233.117465 
L 156.970762 232.991361 
L 157.770607 232.991361 
L 157.770607 232.739152 
L 158.053098 232.739152 
L 158.053098 232.613047 
L 158.385078 232.613047 
L 158.385078 232.486943 
L 158.599388 232.486943 
L 158.599388 232.360839 
L 158.732007 232.360839 
L 158.732007 232.10863 
L 159.481921 232.10863 
L 159.481921 231.856421 
L 159.812866 231.856421 
L 159.812866 231.730316 
L 160.321935 231.730316 
L 160.413354 231.225898 
L 160.703658 231.225898 
L 160.783709 230.973689 
L 160.825941 230.973689 
L 160.928745 230.343167 
L 161.118732 230.343167 
L 161.118732 230.217062 
L 161.681046 230.217062 
L 161.703344 229.838749 
L 162.012559 229.838749 
L 162.012559 229.712645 
L 162.217141 229.712645 
L 162.217141 229.58654 
L 162.389382 229.58654 
L 162.389382 229.334331 
L 162.816868 229.334331 
L 162.816868 229.208227 
L 163.04945 229.208227 
L 163.04945 229.082122 
L 163.625673 229.082122 
L 163.625673 228.829913 
L 164.474827 228.829913 
L 164.524182 228.4516 
L 164.802494 228.4516 
L 164.802494 228.325495 
L 164.965896 228.325495 
L 164.965896 228.073286 
L 165.08745 228.073286 
L 165.182627 227.694973 
L 165.693467 227.694973 
L 165.693467 227.442764 
L 166.862349 227.442764 
L 166.862349 227.31666 
L 167.122322 227.31666 
L 167.158215 227.064451 
L 167.255733 227.064451 
L 167.255733 226.812242 
L 167.567357 226.812242 
L 167.621403 226.307824 
L 167.84533 226.307824 
L 167.848464 225.92951 
L 167.970232 225.92951 
L 167.998212 225.677301 
L 168.333563 225.677301 
L 168.333563 225.551197 
L 168.731229 225.551197 
L 168.731229 225.425093 
L 169.008987 225.425093 
L 169.008987 225.298988 
L 169.227472 225.298988 
L 169.227472 225.046779 
L 169.836245 225.046779 
L 169.836245 224.920675 
L 169.978243 224.920675 
L 170.044668 224.542361 
L 170.091567 224.542361 
L 170.091567 224.290152 
L 170.288808 224.290152 
L 170.288808 224.164048 
L 170.650062 224.164048 
L 170.706004 223.785734 
L 171.123841 223.785734 
L 171.123841 223.65963 
L 171.340609 223.65963 
L 171.340609 223.533525 
L 171.526827 223.533525 
L 171.526827 223.407421 
L 171.731152 223.407421 
L 171.731152 223.281316 
L 172.103323 223.281316 
L 172.16214 223.029108 
L 172.364034 223.029108 
L 172.419569 222.650794 
L 172.496543 222.650794 
L 172.496543 222.52469 
L 172.760942 222.52469 
L 172.760942 222.272481 
L 173.632396 222.272481 
L 173.717641 222.020272 
L 174.285645 222.020272 
L 174.382848 221.641958 
L 174.671249 221.641958 
L 174.675486 221.13754 
L 174.854611 221.13754 
L 174.854611 221.011436 
L 175.271011 221.011436 
L 175.285335 220.759227 
L 176.188135 220.759227 
L 176.188135 220.633123 
L 176.731185 220.633123 
L 176.804455 220.128705 
L 176.871817 220.128705 
L 176.931477 219.876496 
L 177.052036 219.876496 
L 177.052036 219.624287 
L 177.173603 219.624287 
L 177.202947 219.372078 
L 177.285212 219.372078 
L 177.285212 219.245973 
L 177.435935 219.245973 
L 177.448587 218.993764 
L 178.081974 218.993764 
L 178.081974 218.86766 
L 178.486696 218.86766 
L 178.586849 218.489347 
L 178.630802 218.489347 
L 178.674645 218.111033 
L 179.17598 218.111033 
L 179.17598 217.858824 
L 180.053553 217.858824 
L 180.053553 217.73272 
L 180.262372 217.73272 
L 180.262372 217.480511 
L 180.668149 217.480511 
L 180.722145 217.102197 
L 180.930556 217.102197 
L 180.930556 216.976093 
L 181.07791 216.976093 
L 181.07791 216.849988 
L 182.324963 216.849988 
L 182.324963 216.597779 
L 182.652458 216.597779 
L 182.727374 216.345571 
L 182.910626 216.345571 
L 182.910626 216.093362 
L 183.589424 216.093362 
L 183.655366 215.084526 
L 184.550897 215.084526 
L 184.656387 214.706212 
L 184.663556 214.706212 
L 184.663556 214.580108 
L 184.84893 214.580108 
L 184.84893 214.454003 
L 185.091905 214.454003 
L 185.091905 214.327899 
L 186.016936 214.327899 
L 186.016936 214.07569 
L 186.379048 214.07569 
L 186.38879 213.697377 
L 186.577138 213.697377 
L 186.577138 213.571272 
L 186.689179 213.571272 
L 186.699812 213.192959 
L 188.069022 213.192959 
L 188.069022 213.066854 
L 188.289714 213.066854 
L 188.305232 212.688541 
L 188.494226 212.688541 
L 188.541156 212.184123 
L 188.77393 212.184123 
L 188.77393 212.058018 
L 189.185251 212.058018 
L 189.185251 211.805809 
L 189.400536 211.805809 
L 189.400536 211.679705 
L 189.817073 211.679705 
L 189.817073 211.553601 
L 190.232575 211.553601 
L 190.232575 211.301392 
L 190.635863 211.301392 
L 190.635863 211.049183 
L 191.709072 211.049183 
L 191.709072 210.923078 
L 191.84572 210.923078 
L 191.912068 210.166451 
L 192.125973 210.166451 
L 192.13298 209.788138 
L 192.819865 209.788138 
L 192.819865 209.662033 
L 193.073948 209.662033 
L 193.073948 209.535929 
L 193.21718 209.535929 
L 193.21718 209.409825 
L 193.417195 209.409825 
L 193.417195 209.157616 
L 194.166694 209.157616 
L 194.166694 208.905407 
L 194.386977 208.905407 
L 194.386977 208.653198 
L 194.817365 208.653198 
L 194.848704 208.274884 
L 194.968206 208.274884 
L 194.968206 208.022675 
L 195.489637 208.022675 
L 195.589525 207.518257 
L 195.971586 207.518257 
L 196.078694 207.01384 
L 196.195018 207.01384 
L 196.290343 206.761631 
L 196.313634 206.761631 
L 196.313634 206.635526 
L 196.79569 206.635526 
L 196.856357 206.383317 
L 196.959362 206.383317 
L 196.959362 206.257213 
L 197.428724 206.257213 
L 197.428724 206.131108 
L 197.714232 206.131108 
L 197.714232 206.005004 
L 197.83253 206.005004 
L 197.83253 205.878899 
L 198.586806 205.878899 
L 198.671548 205.62669 
L 198.746827 205.62669 
L 198.746827 205.500586 
L 199.142395 205.500586 
L 199.142395 205.374481 
L 199.486861 205.374481 
L 199.486861 205.248377 
L 199.697486 205.248377 
L 199.697486 205.122272 
L 200.029777 205.122272 
L 200.029777 204.743959 
L 200.262334 204.743959 
L 200.314515 204.49175 
L 200.689774 204.49175 
L 200.689774 204.365646 
L 201.373426 204.365646 
L 201.373426 204.113437 
L 201.657507 204.113437 
L 201.657507 203.987332 
L 201.950784 203.987332 
L 202.018924 203.35681 
L 202.230923 203.35681 
L 202.276236 203.104601 
L 202.733179 203.104601 
L 202.733179 202.978496 
L 204.231086 202.978496 
L 204.231475 202.347974 
L 204.363616 202.347974 
L 204.389847 201.969661 
L 204.729204 201.969661 
L 204.792222 201.717452 
L 205.923895 201.717452 
L 205.923895 201.465243 
L 206.53983 201.465243 
L 206.53983 201.213034 
L 207.922239 201.213034 
L 207.959973 200.708616 
L 208.272211 200.708616 
L 208.313814 200.330302 
L 208.58411 200.330302 
L 208.58411 200.204198 
L 209.547998 200.204198 
L 209.549432 199.951989 
L 209.685676 199.951989 
L 209.685676 199.825885 
L 209.808437 199.825885 
L 209.808437 199.69978 
L 210.155565 199.69978 
L 210.196229 199.195362 
L 210.292394 199.195362 
L 210.297339 198.690944 
L 210.556378 198.690944 
L 210.556378 198.56484 
L 210.718021 198.56484 
L 210.718021 198.438735 
L 211.004465 198.438735 
L 211.004465 198.312631 
L 211.683778 198.312631 
L 211.683778 198.186526 
L 212.036403 198.186526 
L 212.144226 197.934318 
L 212.178046 197.934318 
L 212.178046 197.682109 
L 212.369847 197.682109 
L 212.383502 197.4299 
L 212.580542 197.4299 
L 212.580542 197.303795 
L 212.999386 197.303795 
L 213.107513 197.051586 
L 213.178684 197.051586 
L 213.178684 196.925482 
L 213.435504 196.925482 
L 213.495978 196.673273 
L 213.639904 196.673273 
L 213.639904 196.421064 
L 214.115301 196.421064 
L 214.115301 196.294959 
L 214.61222 196.294959 
L 214.61222 196.168855 
L 215.084518 196.168855 
L 215.084518 196.04275 
L 215.989816 196.04275 
L 215.989816 195.916646 
L 216.457008 195.916646 
L 216.457008 195.664437 
L 216.929673 195.664437 
L 216.929673 195.538333 
L 217.288971 195.538333 
L 217.288971 195.412228 
L 217.490723 195.412228 
L 217.490723 195.286124 
L 217.917375 195.286124 
L 217.917375 195.160019 
L 218.433531 195.160019 
L 218.510202 194.781706 
L 219.331408 194.781706 
L 219.406684 194.403392 
L 220.061933 194.403392 
L 220.169879 193.77287 
L 220.583378 193.77287 
L 220.662398 193.142348 
L 220.720824 193.142348 
L 220.720824 193.016243 
L 220.930806 193.016243 
L 220.930806 192.764034 
L 221.326412 192.764034 
L 221.326412 192.63793 
L 221.554498 192.63793 
L 221.5922 192.259616 
L 221.673513 192.259616 
L 221.673513 192.133512 
L 222.068895 192.133512 
L 222.086091 191.881303 
L 222.320376 191.881303 
L 222.320376 191.755198 
L 222.611993 191.755198 
L 222.611993 191.502989 
L 223.428044 191.502989 
L 223.428044 191.376885 
L 223.707586 191.376885 
L 223.707586 191.124676 
L 224.089424 191.124676 
L 224.089424 190.998572 
L 225.122278 190.998572 
L 225.175381 190.620258 
L 225.589339 190.620258 
L 225.614239 190.241945 
L 226.248363 190.241945 
L 226.299467 189.989736 
L 227.54664 189.989736 
L 227.54664 189.737527 
L 228.066801 189.737527 
L 228.066801 189.611422 
L 228.938888 189.611422 
L 228.938888 189.485318 
L 229.824301 189.485318 
L 229.824301 189.233109 
L 230.000038 189.233109 
L 230.000038 188.9809 
L 230.826965 188.9809 
L 230.826965 188.728691 
L 231.145531 188.728691 
L 231.145531 188.602587 
L 231.572789 188.602587 
L 231.671537 188.098169 
L 232.52423 188.098169 
L 232.52423 187.972064 
L 232.774931 187.972064 
L 232.774931 187.719855 
L 232.96384 187.719855 
L 232.96384 187.467646 
L 234.1134 187.467646 
L 234.1134 187.215437 
L 338.688 187.215437 
L 338.688 187.215437 
" style="fill:none;stroke:#000080;stroke-linecap:square;stroke-width:1.5;"/>
   </g>
   <g id="line2d_36">
    <defs>
     <path d="M 0 6 
C 1.591219 6 3.117479 5.367802 4.242641 4.242641 
C 5.367802 3.117479 6 1.591219 6 0 
C 6 -1.591219 5.367802 -3.117479 4.242641 -4.242641 
C 3.117479 -5.367802 1.591219 -6 0 -6 
C -1.591219 -6 -3.117479 -5.367802 -4.242641 -4.242641 
C -5.367802 -3.117479 -6 -1.591219 -6 0 
C -6 1.591219 -5.367802 3.117479 -4.242641 4.242641 
C -3.117479 5.367802 -1.591219 6 0 6 
z
" id="mb1c34cdcf6" style="stroke:#000080;stroke-width:1.5;"/>
    </defs>
    <g>
     <use style="fill-opacity:0;stroke:#000080;stroke-width:1.5;" x="78.941764" xlink:href="#mb1c34cdcf6" y="284.946404"/>
     <use style="fill-opacity:0;stroke:#000080;stroke-width:1.5;" x="152.55709" xlink:href="#mb1c34cdcf6" y="236.270077"/>
     <use style="fill-opacity:0;stroke:#000080;stroke-width:1.5;" x="204.389847" xlink:href="#mb1c34cdcf6" y="202.22187"/>
     <use style="fill-opacity:0;stroke:#000080;stroke-width:1.5;" x="234.1134" xlink:href="#mb1c34cdcf6" y="187.215437"/>
     <use style="fill-opacity:0;stroke:#000080;stroke-width:1.5;" x="234.1134" xlink:href="#mb1c34cdcf6" y="187.215437"/>
     <use style="fill-opacity:0;stroke:#000080;stroke-width:1.5;" x="338.688" xlink:href="#mb1c34cdcf6" y="187.215437"/>
    </g>
   </g>
   <g id="line2d_37">
    <path style="fill:none;stroke:#000080;stroke-linecap:square;stroke-width:1.5;"/>
    <g/>
   </g>
   <g id="line2d_38">
    <path clip-path="url(#p60a6408e5d)" d="M 234.201724 187.215437 
" style="fill:none;stroke:#000080;stroke-linecap:square;stroke-width:1.5;"/>
    <defs>
     <path d="M -12 12 
L 12 -12 
M -12 -12 
L 12 12 
" id="ma56d4e745d" style="stroke:#000080;"/>
    </defs>
    <g clip-path="url(#p60a6408e5d)">
     <use style="fill:#000080;stroke:#000080;" x="234.201724" xlink:href="#ma56d4e745d" y="187.215437"/>
    </g>
   </g>
   <g id="line2d_39">
    <defs>
     <path d="M 0 1.5 
C 0.397805 1.5 0.77937 1.341951 1.06066 1.06066 
C 1.341951 0.77937 1.5 0.397805 1.5 0 
C 1.5 -0.397805 1.341951 -0.77937 1.06066 -1.06066 
C 0.77937 -1.341951 0.397805 -1.5 0 -1.5 
C -0.397805 -1.5 -0.77937 -1.341951 -1.06066 -1.06066 
C -1.341951 -0.77937 -1.5 -0.397805 -1.5 0 
C -1.5 0.397805 -1.341951 0.77937 -1.06066 1.06066 
C -0.77937 1.341951 -0.397805 1.5 0 1.5 
z
" id="m9a37a76f23" style="stroke:#ff00ff;"/>
    </defs>
    <g>
     <use style="fill:#ff00ff;stroke:#ff00ff;" x="233.750338" xlink:href="#m9a37a76f23" y="247.871689"/>
     <use style="fill:#ff00ff;stroke:#ff00ff;" x="233.750338" xlink:href="#m9a37a76f23" y="247.871689"/>
    </g>
   </g>
   <g id="line2d_40">
    <path d="M 60.779557 298.944 
L 60.779557 289.107851 
L 102.330873 289.107851 
L 102.330873 288.981747 
L 102.464508 288.981747 
L 102.464508 288.729538 
L 102.859376 288.729538 
L 102.859376 288.603433 
L 102.989037 288.603433 
L 102.989037 288.099015 
L 103.117741 288.099015 
L 103.117741 287.846806 
L 103.245502 287.846806 
L 103.245502 287.594597 
L 103.372333 287.594597 
L 103.372333 287.468493 
L 103.498249 287.468493 
L 103.498249 287.342389 
L 103.623262 287.342389 
L 103.623262 285.70303 
L 103.747386 285.70303 
L 103.747386 285.450821 
L 103.870632 285.450821 
L 103.870632 285.324717 
L 104.23523 285.324717 
L 104.23523 285.072508 
L 104.709797 285.072508 
L 104.709797 284.946404 
L 104.826449 284.946404 
L 104.826449 284.189777 
L 105.057436 284.189777 
L 105.057436 284.063672 
L 105.621863 284.063672 
L 105.621863 283.937568 
L 105.951954 283.937568 
L 105.951954 283.811463 
L 106.802819 283.811463 
L 106.906317 283.559254 
L 107.009204 283.559254 
L 107.009204 283.307045 
L 107.712901 283.307045 
L 107.811151 283.054836 
L 108.102622 283.054836 
L 108.198707 282.802628 
L 108.764355 282.802628 
L 108.764355 282.676523 
L 109.756002 282.676523 
L 109.756002 282.550419 
L 110.016944 282.550419 
L 110.016944 282.424314 
L 110.527398 282.424314 
L 110.61104 282.172105 
L 111.584648 282.172105 
L 111.584648 281.919896 
L 111.74176 281.919896 
L 111.74176 281.793792 
L 113.382559 281.793792 
L 113.382559 281.667687 
L 113.524343 281.667687 
L 113.524343 281.541583 
L 113.73488 281.541583 
L 113.73488 281.415478 
L 114.618932 281.415478 
L 114.618932 281.163269 
L 115.205729 281.163269 
L 115.205729 281.037165 
L 115.33349 281.037165 
L 115.33349 280.91106 
L 115.711251 280.91106 
L 115.711251 280.784956 
L 115.897107 280.784956 
L 115.897107 280.658851 
L 117.030313 280.658851 
L 117.030313 280.532747 
L 117.542433 280.532747 
L 117.542433 280.406643 
L 118.470564 280.406643 
L 118.470564 280.280538 
L 118.838828 280.280538 
L 118.838828 280.154434 
L 118.994305 280.154434 
L 118.994305 280.028329 
L 124.368753 280.028329 
L 124.368753 279.902225 
L 125.470548 279.902225 
L 125.470548 279.77612 
L 125.787955 279.77612 
L 125.787955 279.650016 
L 126.540355 279.650016 
L 126.540355 279.523911 
L 126.97016 279.523911 
L 126.97016 279.271702 
L 128.077285 279.271702 
L 128.077285 279.145598 
L 129.290685 279.145598 
L 129.290685 279.019493 
L 130.478617 279.019493 
L 130.478617 278.893389 
L 132.278599 278.893389 
L 132.278599 278.767284 
L 133.216421 278.767284 
L 133.284766 278.515075 
L 133.46572 278.515075 
L 133.46572 278.262867 
L 133.800029 278.262867 
L 133.800029 278.010658 
L 134.911732 278.010658 
L 134.911732 277.884553 
L 135.878591 277.884553 
L 135.97629 277.632344 
L 136.227776 277.632344 
L 136.227776 277.380135 
L 136.456742 277.380135 
L 136.456742 277.254031 
L 138.711825 277.254031 
L 138.711825 277.127926 
L 139.074469 277.127926 
L 139.074469 277.001822 
L 139.413734 277.001822 
L 139.413734 276.875717 
L 139.667863 276.875717 
L 139.667863 276.749613 
L 139.887228 276.749613 
L 139.887228 276.371299 
L 140.011351 276.371299 
L 140.088482 276.11909 
L 140.499195 276.11909 
L 140.499195 275.866882 
L 140.64889 275.866882 
L 140.64889 275.740777 
L 140.900458 275.740777 
L 140.900458 275.614673 
L 141.364373 275.614673 
L 141.364373 275.488568 
L 141.899708 275.488568 
L 141.899708 275.362464 
L 142.324576 275.362464 
L 142.324576 275.236359 
L 142.975718 275.236359 
L 142.975718 275.110255 
L 144.124035 275.110255 
L 144.124035 274.98415 
L 145.688202 274.98415 
L 145.688202 274.858046 
L 146.345539 274.858046 
L 146.345539 274.731941 
L 146.916676 274.731941 
L 146.916676 274.353628 
L 148.054534 274.353628 
L 148.054534 274.227523 
L 149.368495 274.227523 
L 149.368495 274.101419 
L 149.805951 274.101419 
L 149.911431 273.597001 
L 150.258492 273.597001 
L 150.344189 273.344792 
L 150.56505 273.344792 
L 150.56505 273.218688 
L 151.437608 273.218688 
L 151.437608 273.092583 
L 151.763734 273.092583 
L 151.763734 272.966479 
L 152.436193 272.966479 
L 152.436193 272.71427 
L 152.654705 272.71427 
L 152.654705 272.588165 
L 152.959038 272.588165 
L 152.959038 272.462061 
L 153.380683 272.462061 
L 153.380683 272.335956 
L 153.67271 272.335956 
L 153.679772 271.831538 
L 154.426099 271.831538 
L 154.426099 271.705434 
L 155.167744 271.705434 
L 155.167744 271.579329 
L 155.741666 271.579329 
L 155.741666 271.453225 
L 156.175347 271.453225 
L 156.175347 271.327121 
L 156.634302 271.327121 
L 156.717545 271.074912 
L 157.697862 271.074912 
L 157.697862 270.948807 
L 159.303838 270.948807 
L 159.303838 270.822703 
L 159.643163 270.822703 
L 159.643163 270.696598 
L 159.797958 270.696598 
L 159.797958 270.570494 
L 160.152267 270.570494 
L 160.200913 269.939971 
L 161.329454 269.939971 
L 161.406689 269.687762 
L 161.703344 269.687762 
L 161.703344 269.561658 
L 163.303385 269.561658 
L 163.303385 269.309449 
L 163.669525 269.309449 
L 163.7569 269.05724 
L 163.89894 269.05724 
L 163.985177 268.678927 
L 164.063205 268.678927 
L 164.063205 268.552822 
L 165.072761 268.552822 
L 165.072761 268.426718 
L 165.615296 268.426718 
L 165.615296 268.300613 
L 165.834706 268.300613 
L 165.834706 268.174509 
L 166.303112 268.174509 
L 166.38849 267.796195 
L 166.885541 267.796195 
L 166.994465 267.417882 
L 167.086355 267.417882 
L 167.187528 266.78736 
L 168.010633 266.78736 
L 168.010633 266.661255 
L 169.067518 266.661255 
L 169.175285 266.409046 
L 169.972696 266.409046 
L 169.972696 266.282942 
L 171.074434 266.282942 
L 171.074434 266.030733 
L 171.696007 266.030733 
L 171.696007 265.904628 
L 172.479734 265.904628 
L 172.479734 265.778524 
L 173.294067 265.778524 
L 173.294067 265.526315 
L 173.458374 265.526315 
L 173.555769 265.148001 
L 174.074257 265.148001 
L 174.074257 265.021897 
L 175.29147 265.021897 
L 175.295559 264.643583 
L 175.429958 264.643583 
L 175.429958 264.517479 
L 176.086845 264.517479 
L 176.086845 264.26527 
L 177.151563 264.26527 
L 177.151563 264.139166 
L 177.753071 264.139166 
L 177.855749 263.634748 
L 178.573302 263.634748 
L 178.573302 263.508643 
L 179.580359 263.508643 
L 179.580359 263.382539 
L 179.760106 263.382539 
L 179.760106 263.13033 
L 180.857895 263.13033 
L 180.94239 262.878121 
L 180.982272 262.878121 
L 181.052948 262.625912 
L 181.245843 262.625912 
L 181.245843 262.499807 
L 181.469658 262.499807 
L 181.469658 262.373703 
L 182.492186 262.373703 
L 182.492186 262.247598 
L 182.984443 262.247598 
L 182.984443 262.121494 
L 183.129842 262.121494 
L 183.2287 261.869285 
L 183.374658 261.869285 
L 183.374658 261.743181 
L 184.061953 261.743181 
L 184.159369 261.364867 
L 184.181489 261.364867 
L 184.192539 261.112658 
L 184.662361 261.112658 
L 184.662361 260.986554 
L 185.523635 260.986554 
L 185.615501 260.734345 
L 185.855907 260.734345 
L 185.864831 260.356031 
L 187.430501 260.356031 
L 187.431521 260.103822 
L 187.919997 260.103822 
L 187.919997 259.977718 
L 188.2275 259.977718 
L 188.2275 259.851614 
L 189.70291 259.851614 
L 189.70291 259.725509 
L 190.07562 259.725509 
L 190.07562 259.599405 
L 190.396731 259.599405 
L 190.396731 259.4733 
L 190.768527 259.4733 
L 190.768527 259.347196 
L 191.803727 259.347196 
L 191.803727 259.221091 
L 192.208326 259.221091 
L 192.208326 259.094987 
L 192.406392 259.094987 
L 192.406392 258.968882 
L 194.335597 258.968882 
L 194.335597 258.842778 
L 194.838708 258.842778 
L 194.838708 258.716673 
L 198.971259 258.716673 
L 198.985453 258.464464 
L 200.48074 258.464464 
L 200.48074 258.33836 
L 202.150027 258.33836 
L 202.150027 258.212255 
L 203.248968 258.212255 
L 203.248968 258.086151 
L 203.600548 258.086151 
L 203.600548 257.960046 
L 204.970231 257.960046 
L 204.970231 257.833942 
L 205.701142 257.833942 
L 205.701142 257.707837 
L 206.347954 257.707837 
L 206.347954 257.581733 
L 207.899875 257.581733 
L 207.899875 257.455629 
L 208.047389 257.455629 
L 208.047389 257.329524 
L 209.284193 257.329524 
L 209.284193 257.20342 
L 209.498317 257.20342 
L 209.570066 256.951211 
L 209.706149 256.951211 
L 209.706149 256.825106 
L 209.848509 256.825106 
L 209.848509 256.699002 
L 210.912688 256.699002 
L 210.912688 256.572897 
L 211.315067 256.572897 
L 211.315067 256.446793 
L 211.648731 256.446793 
L 211.648731 256.320688 
L 212.056283 256.320688 
L 212.056283 256.194584 
L 212.435584 256.194584 
L 212.435584 256.068479 
L 213.362149 256.068479 
L 213.362149 255.942375 
L 213.821074 255.942375 
L 213.821074 255.690166 
L 215.361836 255.690166 
L 215.361836 255.564061 
L 215.560824 255.564061 
L 215.560824 255.437957 
L 215.8011 255.437957 
L 215.8011 255.311853 
L 216.18886 255.311853 
L 216.18886 255.185748 
L 217.965047 255.185748 
L 217.965047 255.059644 
L 218.640081 255.059644 
L 218.640081 254.807435 
L 221.001283 254.807435 
L 221.001283 254.555226 
L 221.248592 254.555226 
L 221.248592 254.429121 
L 221.470889 254.429121 
L 221.470889 254.303017 
L 222.355772 254.303017 
L 222.355772 254.176912 
L 223.059448 254.176912 
L 223.128029 253.798599 
L 223.482171 253.798599 
L 223.482171 253.54639 
L 224.766341 253.54639 
L 224.766341 253.420285 
L 225.215365 253.420285 
L 225.215365 253.168076 
L 225.412075 253.168076 
L 225.412075 252.915868 
L 225.646055 252.915868 
L 225.646055 252.663659 
L 226.638001 252.663659 
L 226.638001 252.41145 
L 226.954241 252.41145 
L 227.058148 252.159241 
L 227.234192 252.159241 
L 227.234192 252.033136 
L 227.852987 252.033136 
L 227.852987 251.780927 
L 228.327332 251.780927 
L 228.327332 251.528718 
L 228.737664 251.528718 
L 228.737664 251.402614 
L 229.333764 251.402614 
L 229.425462 250.519883 
L 229.557786 250.519883 
L 229.557786 250.267674 
L 230.276711 250.267674 
L 230.276711 250.015465 
L 231.68371 250.015465 
L 231.68371 249.88936 
L 231.954237 249.88936 
L 231.954237 249.637151 
L 232.646676 249.637151 
L 232.725579 248.75442 
L 233.06323 248.75442 
L 233.156947 248.502211 
L 233.428844 248.502211 
L 233.473557 248.123898 
L 233.547221 248.123898 
L 233.547221 247.997793 
L 233.750338 247.997793 
L 233.750338 247.871689 
L 338.688 247.871689 
L 338.688 247.871689 
" style="fill:none;stroke:#ff00ff;stroke-linecap:square;stroke-width:1.5;"/>
   </g>
   <g id="line2d_41">
    <defs>
     <path d="M 0 8.485281 
L 5.091169 0 
L 0 -8.485281 
L -5.091169 0 
z
" id="m8dad9b92be" style="stroke:#ff00ff;stroke-linejoin:miter;stroke-width:1.5;"/>
    </defs>
    <g>
     <use style="fill-opacity:0;stroke:#ff00ff;stroke-linejoin:miter;stroke-width:1.5;" x="156.175347" xlink:href="#m8dad9b92be" y="271.327121"/>
     <use style="fill-opacity:0;stroke:#ff00ff;stroke-linejoin:miter;stroke-width:1.5;" x="225.646055" xlink:href="#m8dad9b92be" y="252.663659"/>
     <use style="fill-opacity:0;stroke:#ff00ff;stroke-linejoin:miter;stroke-width:1.5;" x="233.750338" xlink:href="#m8dad9b92be" y="247.871689"/>
     <use style="fill-opacity:0;stroke:#ff00ff;stroke-linejoin:miter;stroke-width:1.5;" x="233.750338" xlink:href="#m8dad9b92be" y="247.871689"/>
     <use style="fill-opacity:0;stroke:#ff00ff;stroke-linejoin:miter;stroke-width:1.5;" x="338.688" xlink:href="#m8dad9b92be" y="247.871689"/>
    </g>
   </g>
   <g id="line2d_42">
    <path style="fill:none;stroke:#ff00ff;stroke-linecap:square;stroke-width:1.5;"/>
    <g/>
   </g>
   <g id="line2d_43">
    <path clip-path="url(#p60a6408e5d)" d="M 234.201166 247.871689 
" style="fill:none;stroke:#ff00ff;stroke-linecap:square;stroke-width:1.5;"/>
    <defs>
     <path d="M -12 12 
L 12 -12 
M -12 -12 
L 12 12 
" id="m89328cb130" style="stroke:#ff00ff;"/>
    </defs>
    <g clip-path="url(#p60a6408e5d)">
     <use style="fill:#ff00ff;stroke:#ff00ff;" x="234.201166" xlink:href="#m89328cb130" y="247.871689"/>
    </g>
   </g>
   <g id="line2d_44">
    <path d="M 338.688 247.871689 
L 369.60768 293.092752 
" style="fill:none;stroke:#ff00ff;stroke-linecap:square;stroke-width:1.5;"/>
    <g>
     <use style="fill-opacity:0;stroke:#ff00ff;stroke-linejoin:miter;stroke-width:1.5;" x="338.688" xlink:href="#m8dad9b92be" y="247.871689"/>
     <use style="fill-opacity:0;stroke:#ff00ff;stroke-linejoin:miter;stroke-width:1.5;" x="369.60768" xlink:href="#m8dad9b92be" y="293.092752"/>
    </g>
   </g>
   <g id="line2d_45">
    <path d="M 338.688 187.215437 
L 369.60768 152.662812 
" style="fill:none;stroke:#000080;stroke-linecap:square;stroke-width:1.5;"/>
    <g>
     <use style="fill-opacity:0;stroke:#000080;stroke-width:1.5;" x="338.688" xlink:href="#mb1c34cdcf6" y="187.215437"/>
     <use style="fill-opacity:0;stroke:#000080;stroke-width:1.5;" x="369.60768" xlink:href="#mb1c34cdcf6" y="152.662812"/>
    </g>
   </g>
   <g id="line2d_46">
    <path d="M 338.688 298.944 
L 338.688 6.381624 
" style="fill:none;stroke:#000000;stroke-linecap:square;stroke-width:1.5;"/>
   </g>
   <g id="patch_3">
    <path d="M 57.6 298.944 
L 57.6 3.456 
" style="fill:none;stroke:#000000;stroke-linecap:square;stroke-linejoin:miter;stroke-width:0.8;"/>
   </g>
   <g id="patch_4">
    <path d="M 338.688 298.944 
L 338.688 3.456 
" style="fill:none;stroke:#000000;stroke-linecap:square;stroke-linejoin:miter;stroke-width:0.8;"/>
   </g>
   <g id="patch_5">
    <path d="M 57.6 298.944 
L 338.688 298.944 
" style="fill:none;stroke:#000000;stroke-linecap:square;stroke-linejoin:miter;stroke-width:0.8;"/>
   </g>
   <g id="patch_6">
    <path d="M 57.6 3.456 
L 338.688 3.456 
" style="fill:none;stroke:#000000;stroke-linecap:square;stroke-linejoin:miter;stroke-width:0.8;"/>
   </g>
   <g id="text_13">
    <!-- MultiGLOD -->
    <g transform="translate(375.22944 297.78369)scale(0.17 -0.17)">
     <defs>
      <path d="M 628 4666 
L 1569 4666 
L 2759 1491 
L 3956 4666 
L 4897 4666 
L 4897 0 
L 4281 0 
L 4281 4097 
L 3078 897 
L 2444 897 
L 1241 4097 
L 1241 0 
L 628 0 
L 628 4666 
z
" id="DejaVuSans-4d" transform="scale(0.015625)"/>
      <path d="M 3809 666 
L 3809 1919 
L 2778 1919 
L 2778 2438 
L 4434 2438 
L 4434 434 
Q 4069 175 3628 42 
Q 3188 -91 2688 -91 
Q 1594 -91 976 548 
Q 359 1188 359 2328 
Q 359 3472 976 4111 
Q 1594 4750 2688 4750 
Q 3144 4750 3555 4637 
Q 3966 4525 4313 4306 
L 4313 3634 
Q 3963 3931 3569 4081 
Q 3175 4231 2741 4231 
Q 1884 4231 1454 3753 
Q 1025 3275 1025 2328 
Q 1025 1384 1454 906 
Q 1884 428 2741 428 
Q 3075 428 3337 486 
Q 3600 544 3809 666 
z
" id="DejaVuSans-47" transform="scale(0.015625)"/>
      <path d="M 628 4666 
L 1259 4666 
L 1259 531 
L 3531 531 
L 3531 0 
L 628 0 
L 628 4666 
z
" id="DejaVuSans-4c" transform="scale(0.015625)"/>
      <path d="M 2522 4238 
Q 1834 4238 1429 3725 
Q 1025 3213 1025 2328 
Q 1025 1447 1429 934 
Q 1834 422 2522 422 
Q 3209 422 3611 934 
Q 4013 1447 4013 2328 
Q 4013 3213 3611 3725 
Q 3209 4238 2522 4238 
z
M 2522 4750 
Q 3503 4750 4090 4092 
Q 4678 3434 4678 2328 
Q 4678 1225 4090 567 
Q 3503 -91 2522 -91 
Q 1538 -91 948 565 
Q 359 1222 359 2328 
Q 359 3434 948 4092 
Q 1538 4750 2522 4750 
z
" id="DejaVuSans-4f" transform="scale(0.015625)"/>
      <path d="M 1259 4147 
L 1259 519 
L 2022 519 
Q 2988 519 3436 956 
Q 3884 1394 3884 2338 
Q 3884 3275 3436 3711 
Q 2988 4147 2022 4147 
L 1259 4147 
z
M 628 4666 
L 1925 4666 
Q 3281 4666 3915 4102 
Q 4550 3538 4550 2338 
Q 4550 1131 3912 565 
Q 3275 0 1925 0 
L 628 0 
L 628 4666 
z
" id="DejaVuSans-44" transform="scale(0.015625)"/>
     </defs>
     <use xlink:href="#DejaVuSans-4d"/>
     <use x="86.279297" xlink:href="#DejaVuSans-75"/>
     <use x="149.658203" xlink:href="#DejaVuSans-6c"/>
     <use x="177.441406" xlink:href="#DejaVuSans-74"/>
     <use x="216.650391" xlink:href="#DejaVuSans-69"/>
     <use x="244.433594" xlink:href="#DejaVuSans-47"/>
     <use x="321.923828" xlink:href="#DejaVuSans-4c"/>
     <use x="374.011719" xlink:href="#DejaVuSans-4f"/>
     <use x="452.722656" xlink:href="#DejaVuSans-44"/>
    </g>
   </g>
   <g id="text_14">
    <!-- DMS Brock -->
    <g transform="translate(375.22944 157.353749)scale(0.17 -0.17)">
     <defs>
      <path d="M 3425 4513 
L 3425 3897 
Q 3066 4069 2747 4153 
Q 2428 4238 2131 4238 
Q 1616 4238 1336 4038 
Q 1056 3838 1056 3469 
Q 1056 3159 1242 3001 
Q 1428 2844 1947 2747 
L 2328 2669 
Q 3034 2534 3370 2195 
Q 3706 1856 3706 1288 
Q 3706 609 3251 259 
Q 2797 -91 1919 -91 
Q 1588 -91 1214 -16 
Q 841 59 441 206 
L 441 856 
Q 825 641 1194 531 
Q 1563 422 1919 422 
Q 2459 422 2753 634 
Q 3047 847 3047 1241 
Q 3047 1584 2836 1778 
Q 2625 1972 2144 2069 
L 1759 2144 
Q 1053 2284 737 2584 
Q 422 2884 422 3419 
Q 422 4038 858 4394 
Q 1294 4750 2059 4750 
Q 2388 4750 2728 4690 
Q 3069 4631 3425 4513 
z
" id="DejaVuSans-53" transform="scale(0.015625)"/>
      <path d="M 1259 2228 
L 1259 519 
L 2272 519 
Q 2781 519 3026 730 
Q 3272 941 3272 1375 
Q 3272 1813 3026 2020 
Q 2781 2228 2272 2228 
L 1259 2228 
z
M 1259 4147 
L 1259 2741 
L 2194 2741 
Q 2656 2741 2882 2914 
Q 3109 3088 3109 3444 
Q 3109 3797 2882 3972 
Q 2656 4147 2194 4147 
L 1259 4147 
z
M 628 4666 
L 2241 4666 
Q 2963 4666 3353 4366 
Q 3744 4066 3744 3513 
Q 3744 3084 3544 2831 
Q 3344 2578 2956 2516 
Q 3422 2416 3680 2098 
Q 3938 1781 3938 1306 
Q 3938 681 3513 340 
Q 3088 0 2303 0 
L 628 0 
L 628 4666 
z
" id="DejaVuSans-42" transform="scale(0.015625)"/>
      <path d="M 581 4863 
L 1159 4863 
L 1159 1991 
L 2875 3500 
L 3609 3500 
L 1753 1863 
L 3688 0 
L 2938 0 
L 1159 1709 
L 1159 0 
L 581 0 
L 581 4863 
z
" id="DejaVuSans-6b" transform="scale(0.015625)"/>
     </defs>
     <use xlink:href="#DejaVuSans-44"/>
     <use x="77.001953" xlink:href="#DejaVuSans-4d"/>
     <use x="163.28125" xlink:href="#DejaVuSans-53"/>
     <use x="226.757812" xlink:href="#DejaVuSans-20"/>
     <use x="258.544922" xlink:href="#DejaVuSans-42"/>
     <use x="327.148438" xlink:href="#DejaVuSans-72"/>
     <use x="366.011719" xlink:href="#DejaVuSans-6f"/>
     <use x="427.193359" xlink:href="#DejaVuSans-63"/>
     <use x="482.173828" xlink:href="#DejaVuSans-6b"/>
    </g>
   </g>
   <g id="text_15">
    <!-- best 2016 -->
    <g transform="translate(375.22944 16.923809)scale(0.17 -0.17)">
     <defs>
      <path d="M 3116 1747 
Q 3116 2381 2855 2742 
Q 2594 3103 2138 3103 
Q 1681 3103 1420 2742 
Q 1159 2381 1159 1747 
Q 1159 1113 1420 752 
Q 1681 391 2138 391 
Q 2594 391 2855 752 
Q 3116 1113 3116 1747 
z
M 1159 2969 
Q 1341 3281 1617 3432 
Q 1894 3584 2278 3584 
Q 2916 3584 3314 3078 
Q 3713 2572 3713 1747 
Q 3713 922 3314 415 
Q 2916 -91 2278 -91 
Q 1894 -91 1617 61 
Q 1341 213 1159 525 
L 1159 0 
L 581 0 
L 581 4863 
L 1159 4863 
L 1159 2969 
z
" id="DejaVuSans-62" transform="scale(0.015625)"/>
     </defs>
     <use xlink:href="#DejaVuSans-62"/>
     <use x="63.476562" xlink:href="#DejaVuSans-65"/>
     <use x="125" xlink:href="#DejaVuSans-73"/>
     <use x="177.099609" xlink:href="#DejaVuSans-74"/>
     <use x="216.308594" xlink:href="#DejaVuSans-20"/>
     <use x="248.095703" xlink:href="#DejaVuSans-32"/>
     <use x="311.71875" xlink:href="#DejaVuSans-30"/>
     <use x="375.341797" xlink:href="#DejaVuSans-31"/>
     <use x="438.964844" xlink:href="#DejaVuSans-36"/>
    </g>
   </g>
   <g id="text_16">
    <!-- bbob-biobj f9, f10, f18, f19, 10-D -->
    <g transform="translate(60.41088 14.161286)scale(0.102 -0.102)">
     <defs>
      <path d="M 603 3500 
L 1178 3500 
L 1178 -63 
Q 1178 -731 923 -1031 
Q 669 -1331 103 -1331 
L -116 -1331 
L -116 -844 
L 38 -844 
Q 366 -844 484 -692 
Q 603 -541 603 -63 
L 603 3500 
z
M 603 4863 
L 1178 4863 
L 1178 4134 
L 603 4134 
L 603 4863 
z
" id="DejaVuSans-6a" transform="scale(0.015625)"/>
      <path d="M 703 97 
L 703 672 
Q 941 559 1184 500 
Q 1428 441 1663 441 
Q 2288 441 2617 861 
Q 2947 1281 2994 2138 
Q 2813 1869 2534 1725 
Q 2256 1581 1919 1581 
Q 1219 1581 811 2004 
Q 403 2428 403 3163 
Q 403 3881 828 4315 
Q 1253 4750 1959 4750 
Q 2769 4750 3195 4129 
Q 3622 3509 3622 2328 
Q 3622 1225 3098 567 
Q 2575 -91 1691 -91 
Q 1453 -91 1209 -44 
Q 966 3 703 97 
z
M 1959 2075 
Q 2384 2075 2632 2365 
Q 2881 2656 2881 3163 
Q 2881 3666 2632 3958 
Q 2384 4250 1959 4250 
Q 1534 4250 1286 3958 
Q 1038 3666 1038 3163 
Q 1038 2656 1286 2365 
Q 1534 2075 1959 2075 
z
" id="DejaVuSans-39" transform="scale(0.015625)"/>
     </defs>
     <use xlink:href="#DejaVuSans-62"/>
     <use x="63.476562" xlink:href="#DejaVuSans-62"/>
     <use x="126.953125" xlink:href="#DejaVuSans-6f"/>
     <use x="188.134766" xlink:href="#DejaVuSans-62"/>
     <use x="251.611328" xlink:href="#DejaVuSans-2d"/>
     <use x="287.695312" xlink:href="#DejaVuSans-62"/>
     <use x="351.171875" xlink:href="#DejaVuSans-69"/>
     <use x="378.955078" xlink:href="#DejaVuSans-6f"/>
     <use x="440.136719" xlink:href="#DejaVuSans-62"/>
     <use x="503.613281" xlink:href="#DejaVuSans-6a"/>
     <use x="531.396484" xlink:href="#DejaVuSans-20"/>
     <use x="563.183594" xlink:href="#DejaVuSans-66"/>
     <use x="598.388672" xlink:href="#DejaVuSans-39"/>
     <use x="662.011719" xlink:href="#DejaVuSans-2c"/>
     <use x="693.798828" xlink:href="#DejaVuSans-20"/>
     <use x="725.585938" xlink:href="#DejaVuSans-66"/>
     <use x="760.791016" xlink:href="#DejaVuSans-31"/>
     <use x="824.414062" xlink:href="#DejaVuSans-30"/>
     <use x="888.037109" xlink:href="#DejaVuSans-2c"/>
     <use x="919.824219" xlink:href="#DejaVuSans-20"/>
     <use x="951.611328" xlink:href="#DejaVuSans-66"/>
     <use x="986.816406" xlink:href="#DejaVuSans-31"/>
     <use x="1050.439453" xlink:href="#DejaVuSans-38"/>
     <use x="1114.0625" xlink:href="#DejaVuSans-2c"/>
     <use x="1145.849609" xlink:href="#DejaVuSans-20"/>
     <use x="1177.636719" xlink:href="#DejaVuSans-66"/>
     <use x="1212.841797" xlink:href="#DejaVuSans-31"/>
     <use x="1276.464844" xlink:href="#DejaVuSans-39"/>
     <use x="1340.087891" xlink:href="#DejaVuSans-2c"/>
     <use x="1371.875" xlink:href="#DejaVuSans-20"/>
     <use x="1403.662109" xlink:href="#DejaVuSans-31"/>
     <use x="1467.285156" xlink:href="#DejaVuSans-30"/>
     <use x="1530.908203" xlink:href="#DejaVuSans-2d"/>
     <use x="1566.992188" xlink:href="#DejaVuSans-44"/>
    </g>
    <!-- 58 targets: 1..-1.0e-4 -->
    <g transform="translate(60.41088 25.583055)scale(0.102 -0.102)">
     <defs>
      <path d="M 691 4666 
L 3169 4666 
L 3169 4134 
L 1269 4134 
L 1269 2991 
Q 1406 3038 1543 3061 
Q 1681 3084 1819 3084 
Q 2600 3084 3056 2656 
Q 3513 2228 3513 1497 
Q 3513 744 3044 326 
Q 2575 -91 1722 -91 
Q 1428 -91 1123 -41 
Q 819 9 494 109 
L 494 744 
Q 775 591 1075 516 
Q 1375 441 1709 441 
Q 2250 441 2565 725 
Q 2881 1009 2881 1497 
Q 2881 1984 2565 2268 
Q 2250 2553 1709 2553 
Q 1456 2553 1204 2497 
Q 953 2441 691 2322 
L 691 4666 
z
" id="DejaVuSans-35" transform="scale(0.015625)"/>
      <path d="M 750 794 
L 1409 794 
L 1409 0 
L 750 0 
L 750 794 
z
M 750 3309 
L 1409 3309 
L 1409 2516 
L 750 2516 
L 750 3309 
z
" id="DejaVuSans-3a" transform="scale(0.015625)"/>
     </defs>
     <use xlink:href="#DejaVuSans-35"/>
     <use x="63.623047" xlink:href="#DejaVuSans-38"/>
     <use x="127.246094" xlink:href="#DejaVuSans-20"/>
     <use x="159.033203" xlink:href="#DejaVuSans-74"/>
     <use x="198.242188" xlink:href="#DejaVuSans-61"/>
     <use x="259.521484" xlink:href="#DejaVuSans-72"/>
     <use x="298.884766" xlink:href="#DejaVuSans-67"/>
     <use x="362.361328" xlink:href="#DejaVuSans-65"/>
     <use x="423.884766" xlink:href="#DejaVuSans-74"/>
     <use x="463.09375" xlink:href="#DejaVuSans-73"/>
     <use x="515.193359" xlink:href="#DejaVuSans-3a"/>
     <use x="548.884766" xlink:href="#DejaVuSans-20"/>
     <use x="580.671875" xlink:href="#DejaVuSans-31"/>
     <use x="644.294922" xlink:href="#DejaVuSans-2e"/>
     <use x="676.082031" xlink:href="#DejaVuSans-2e"/>
     <use x="707.869141" xlink:href="#DejaVuSans-2d"/>
     <use x="743.953125" xlink:href="#DejaVuSans-31"/>
     <use x="807.576172" xlink:href="#DejaVuSans-2e"/>
     <use x="839.363281" xlink:href="#DejaVuSans-30"/>
     <use x="902.986328" xlink:href="#DejaVuSans-65"/>
     <use x="964.509766" xlink:href="#DejaVuSans-2d"/>
     <use x="1000.59375" xlink:href="#DejaVuSans-34"/>
    </g>
    <!-- 10 instances -->
    <g transform="translate(60.41088 37.004824)scale(0.102 -0.102)">
     <use xlink:href="#DejaVuSans-31"/>
     <use x="63.623047" xlink:href="#DejaVuSans-30"/>
     <use x="127.246094" xlink:href="#DejaVuSans-20"/>
     <use x="159.033203" xlink:href="#DejaVuSans-69"/>
     <use x="186.816406" xlink:href="#DejaVuSans-6e"/>
     <use x="250.195312" xlink:href="#DejaVuSans-73"/>
     <use x="302.294922" xlink:href="#DejaVuSans-74"/>
     <use x="341.503906" xlink:href="#DejaVuSans-61"/>
     <use x="402.783203" xlink:href="#DejaVuSans-6e"/>
     <use x="466.162109" xlink:href="#DejaVuSans-63"/>
     <use x="521.142578" xlink:href="#DejaVuSans-65"/>
     <use x="582.666016" xlink:href="#DejaVuSans-73"/>
    </g>
   </g>
   <g id="text_17">
    <!-- v2.4.1.1, hv-hash=ff0e71e8cd978373 -->
    <g style="fill:#808080;" transform="translate(103.108062 293.909432)scale(0.1 -0.1)">
     <defs>
      <path d="M 3513 2113 
L 3513 0 
L 2938 0 
L 2938 2094 
Q 2938 2591 2744 2837 
Q 2550 3084 2163 3084 
Q 1697 3084 1428 2787 
Q 1159 2491 1159 1978 
L 1159 0 
L 581 0 
L 581 4863 
L 1159 4863 
L 1159 2956 
Q 1366 3272 1645 3428 
Q 1925 3584 2291 3584 
Q 2894 3584 3203 3211 
Q 3513 2838 3513 2113 
z
" id="DejaVuSans-68" transform="scale(0.015625)"/>
      <path d="M 678 2906 
L 4684 2906 
L 4684 2381 
L 678 2381 
L 678 2906 
z
M 678 1631 
L 4684 1631 
L 4684 1100 
L 678 1100 
L 678 1631 
z
" id="DejaVuSans-3d" transform="scale(0.015625)"/>
      <path d="M 525 4666 
L 3525 4666 
L 3525 4397 
L 1831 0 
L 1172 0 
L 2766 4134 
L 525 4134 
L 525 4666 
z
" id="DejaVuSans-37" transform="scale(0.015625)"/>
      <path d="M 2597 2516 
Q 3050 2419 3304 2112 
Q 3559 1806 3559 1356 
Q 3559 666 3084 287 
Q 2609 -91 1734 -91 
Q 1441 -91 1130 -33 
Q 819 25 488 141 
L 488 750 
Q 750 597 1062 519 
Q 1375 441 1716 441 
Q 2309 441 2620 675 
Q 2931 909 2931 1356 
Q 2931 1769 2642 2001 
Q 2353 2234 1838 2234 
L 1294 2234 
L 1294 2753 
L 1863 2753 
Q 2328 2753 2575 2939 
Q 2822 3125 2822 3475 
Q 2822 3834 2567 4026 
Q 2313 4219 1838 4219 
Q 1578 4219 1281 4162 
Q 984 4106 628 3988 
L 628 4550 
Q 988 4650 1302 4700 
Q 1616 4750 1894 4750 
Q 2613 4750 3031 4423 
Q 3450 4097 3450 3541 
Q 3450 3153 3228 2886 
Q 3006 2619 2597 2516 
z
" id="DejaVuSans-33" transform="scale(0.015625)"/>
     </defs>
     <use xlink:href="#DejaVuSans-76"/>
     <use x="59.179688" xlink:href="#DejaVuSans-32"/>
     <use x="122.802734" xlink:href="#DejaVuSans-2e"/>
     <use x="154.589844" xlink:href="#DejaVuSans-34"/>
     <use x="218.212891" xlink:href="#DejaVuSans-2e"/>
     <use x="250" xlink:href="#DejaVuSans-31"/>
     <use x="313.623047" xlink:href="#DejaVuSans-2e"/>
     <use x="345.410156" xlink:href="#DejaVuSans-31"/>
     <use x="409.033203" xlink:href="#DejaVuSans-2c"/>
     <use x="440.820312" xlink:href="#DejaVuSans-20"/>
     <use x="472.607422" xlink:href="#DejaVuSans-68"/>
     <use x="535.986328" xlink:href="#DejaVuSans-76"/>
     <use x="592.541016" xlink:href="#DejaVuSans-2d"/>
     <use x="628.625" xlink:href="#DejaVuSans-68"/>
     <use x="692.003906" xlink:href="#DejaVuSans-61"/>
     <use x="753.283203" xlink:href="#DejaVuSans-73"/>
     <use x="805.382812" xlink:href="#DejaVuSans-68"/>
     <use x="868.761719" xlink:href="#DejaVuSans-3d"/>
     <use x="952.550781" xlink:href="#DejaVuSans-66"/>
     <use x="987.755859" xlink:href="#DejaVuSans-66"/>
     <use x="1022.960938" xlink:href="#DejaVuSans-30"/>
     <use x="1086.583984" xlink:href="#DejaVuSans-65"/>
     <use x="1148.107422" xlink:href="#DejaVuSans-37"/>
     <use x="1211.730469" xlink:href="#DejaVuSans-31"/>
     <use x="1275.353516" xlink:href="#DejaVuSans-65"/>
     <use x="1336.876953" xlink:href="#DejaVuSans-38"/>
     <use x="1400.5" xlink:href="#DejaVuSans-63"/>
     <use x="1455.480469" xlink:href="#DejaVuSans-64"/>
     <use x="1518.957031" xlink:href="#DejaVuSans-39"/>
     <use x="1582.580078" xlink:href="#DejaVuSans-37"/>
     <use x="1646.203125" xlink:href="#DejaVuSans-38"/>
     <use x="1709.826172" xlink:href="#DejaVuSans-33"/>
     <use x="1773.449219" xlink:href="#DejaVuSans-37"/>
     <use x="1837.072266" xlink:href="#DejaVuSans-33"/>
    </g>
   </g>
  </g>
 </g>
 <defs>
  <clipPath id="p60a6408e5d">
   <rect height="295.488" width="281.088" x="57.6" y="3.456"/>
  </clipPath>
 </defs>
</svg>
