<?xml version="1.0" encoding="utf-8" standalone="no"?>
<!DOCTYPE svg PUBLIC "-//W3C//DTD SVG 1.1//EN"
  "http://www.w3.org/Graphics/SVG/1.1/DTD/svg11.dtd">
<svg height="345.6pt" version="1.1" viewBox="0 0 460.8 345.6" width="460.8pt" xmlns="http://www.w3.org/2000/svg" xmlns:xlink="http://www.w3.org/1999/xlink">
 <metadata>
  <rdf:RDF xmlns:cc="http://creativecommons.org/ns#" xmlns:dc="http://purl.org/dc/elements/1.1/" xmlns:rdf="http://www.w3.org/1999/02/22-rdf-syntax-ns#">
   <cc:Work>
    <dc:type rdf:resource="http://purl.org/dc/dcmitype/StillImage"/>
    <dc:date>2022-03-29T13:08:19.137822</dc:date>
    <dc:format>image/svg+xml</dc:format>
    <dc:creator>
     <cc:Agent>
      <dc:title>Matplotlib v3.4.3, https://matplotlib.org/</dc:title>
     </cc:Agent>
    </dc:creator>
   </cc:Work>
  </rdf:RDF>
 </metadata>
 <defs>
  <style type="text/css">*{stroke-linecap:butt;stroke-linejoin:round;}</style>
 </defs>
 <g id="figure_1">
  <g id="patch_1">
   <path d="M 0 345.6 
L 460.8 345.6 
L 460.8 0 
L 0 0 
z
" style="fill:#ffffff;"/>
  </g>
  <g id="axes_1">
   <g id="patch_2">
    <path d="M 57.6 298.944 
L 338.688 298.944 
L 338.688 3.456 
L 57.6 3.456 
z
" style="fill:#ffffff;"/>
   </g>
   <g id="line2d_1">
    <path d="M 5.356583 298.944 
L 5.356583 297.262607 
L 24.515591 297.262607 
L 24.515591 295.581214 
L 33.424023 295.581214 
L 33.424023 293.899821 
L 43.6746 293.899821 
L 43.6746 290.537035 
L 53.708537 290.537035 
L 53.708537 287.174249 
L 57.6 287.174249 
L 57.6 283.811463 
L 59.262141 283.811463 
L 59.262141 282.13007 
L 60.037348 282.13007 
L 60.037348 278.767284 
L 66.853775 278.767284 
L 66.853775 270.36032 
L 69.687988 270.36032 
L 69.687988 266.997534 
L 77.330839 266.997534 
L 77.330839 263.634748 
L 80.650472 263.634748 
L 80.650472 261.953355 
L 84.772922 261.953355 
L 84.772922 260.271962 
L 85.840967 260.271962 
L 85.840967 258.590569 
L 87.487404 258.590569 
L 87.487404 253.54639 
L 91.029752 253.54639 
L 91.029752 250.183604 
L 95.125186 250.183604 
L 95.125186 246.820818 
L 97.668013 246.820818 
L 97.668013 245.139425 
L 98.43941 245.139425 
L 98.43941 240.095246 
L 99.575392 240.095246 
L 99.575392 235.051067 
L 106.541356 235.051067 
L 106.541356 231.688281 
L 106.802819 231.688281 
L 106.802819 228.325495 
L 107.213174 228.325495 
L 107.213174 224.962709 
L 110.485426 224.962709 
L 110.485426 223.281316 
L 115.0447 223.281316 
L 115.0447 219.918531 
L 117.514373 219.918531 
L 117.514373 216.555745 
L 122.573415 216.555745 
L 122.573415 211.511566 
L 123.394238 211.511566 
L 123.394238 206.467387 
L 126.304457 206.467387 
L 126.304457 203.104601 
L 129.742212 203.104601 
L 129.742212 199.741815 
L 129.991152 199.741815 
L 129.991152 196.379029 
L 135.612036 196.379029 
L 135.612036 193.016243 
L 136.044356 193.016243 
L 136.044356 191.33485 
L 136.738785 191.33485 
L 136.738785 187.972064 
L 143.87806 187.972064 
L 143.87806 182.927885 
L 144.55823 182.927885 
L 144.55823 179.565099 
L 144.741897 179.565099 
L 144.741897 176.202313 
L 149.332295 176.202313 
L 149.332295 174.52092 
L 150.543935 174.52092 
L 150.543935 172.839527 
L 151.771612 172.839527 
L 151.771612 171.158135 
L 153.872861 171.158135 
L 153.872861 166.113956 
L 155.813658 166.113956 
L 155.813658 161.069777 
L 158.905533 161.069777 
L 158.952561 157.706991 
L 159.502158 157.706991 
L 159.502158 152.662812 
L 163.430998 152.662812 
L 163.430998 147.618633 
L 165.599263 147.618633 
L 165.599263 142.574454 
L 169.794259 142.574454 
L 169.794259 139.211668 
L 169.962985 139.211668 
L 169.962985 135.848882 
L 176.816637 135.848882 
L 176.816637 134.167489 
L 180.786423 134.167489 
L 180.786423 129.12331 
L 183.158516 129.12331 
L 183.158516 127.441917 
L 185.730501 127.441917 
L 185.730501 125.760524 
L 186.128229 125.760524 
L 186.128229 122.397738 
L 192.805641 122.397738 
L 192.805641 117.35356 
L 202.098671 117.35356 
L 202.098671 113.990774 
L 205.639536 113.990774 
L 205.639536 108.946595 
L 211.867385 108.946595 
L 211.867385 105.583809 
L 213.541653 105.583809 
L 213.541653 103.902416 
L 225.063713 103.902416 
L 225.063713 102.221023 
L 234.223892 102.221023 
L 234.223892 97.176844 
L 234.972026 97.176844 
L 234.972026 93.814058 
L 239.544361 93.814058 
L 239.544361 88.769879 
L 246.217646 88.769879 
L 246.217646 87.088486 
L 246.436917 87.088486 
L 246.436917 82.044307 
L 246.814371 82.044307 
L 246.814371 80.362914 
L 247.267903 80.362914 
L 247.267903 75.318735 
L 248.361535 75.318735 
L 248.361535 71.955949 
L 257.331582 71.955949 
L 257.331582 68.593164 
L 263.262964 68.593164 
L 263.262964 65.230378 
L 264.401487 65.230378 
L 264.401487 63.548985 
L 267.496902 63.548985 
L 267.496902 60.186199 
L 277.99247 60.186199 
L 277.99247 56.823413 
L 278.833378 56.823413 
L 278.833378 51.779234 
L 280.448414 51.779234 
L 280.448414 50.097841 
L 283.96159 50.097841 
L 283.96159 46.735055 
L 292.912422 46.735055 
L 292.912422 41.690876 
L 338.688 41.690876 
L 338.688 41.690876 
" style="fill:none;stroke:#f5deb3;stroke-linecap:square;stroke-width:4;"/>
   </g>
   <g id="line2d_2">
    <defs>
     <path d="M 0 7.778175 
L 7.778175 0 
L 0 -7.778175 
L -7.778175 0 
z
" id="mdbeee19d03" style="stroke:#f5deb3;stroke-linejoin:miter;stroke-width:1.5;"/>
    </defs>
    <g>
     <use style="fill:#f5deb3;stroke:#f5deb3;stroke-linejoin:miter;stroke-width:1.5;" x="91.029752" xlink:href="#mdbeee19d03" y="250.183604"/>
     <use style="fill:#f5deb3;stroke:#f5deb3;stroke-linejoin:miter;stroke-width:1.5;" x="143.87806" xlink:href="#mdbeee19d03" y="187.972064"/>
     <use style="fill:#f5deb3;stroke:#f5deb3;stroke-linejoin:miter;stroke-width:1.5;" x="205.639536" xlink:href="#mdbeee19d03" y="113.990774"/>
     <use style="fill:#f5deb3;stroke:#f5deb3;stroke-linejoin:miter;stroke-width:1.5;" x="277.99247" xlink:href="#mdbeee19d03" y="56.823413"/>
     <use style="fill:#f5deb3;stroke:#f5deb3;stroke-linejoin:miter;stroke-width:1.5;" x="292.912422" xlink:href="#mdbeee19d03" y="41.690876"/>
     <use style="fill:#f5deb3;stroke:#f5deb3;stroke-linejoin:miter;stroke-width:1.5;" x="338.688" xlink:href="#mdbeee19d03" y="41.690876"/>
    </g>
   </g>
   <g id="line2d_3">
    <path style="fill:none;stroke:#f5deb3;stroke-linecap:square;stroke-width:4;"/>
    <g/>
   </g>
   <g id="line2d_4">
    <path d="M 338.688 41.690876 
L 369.60768 12.232871 
" style="fill:none;stroke:#f5deb3;stroke-linecap:square;stroke-width:4;"/>
    <g>
     <use style="fill:#f5deb3;stroke:#f5deb3;stroke-linejoin:miter;stroke-width:1.5;" x="338.688" xlink:href="#mdbeee19d03" y="41.690876"/>
     <use style="fill:#f5deb3;stroke:#f5deb3;stroke-linejoin:miter;stroke-width:1.5;" x="369.60768" xlink:href="#mdbeee19d03" y="12.232871"/>
    </g>
   </g>
   <g id="matplotlib.axis_1">
    <g id="xtick_1">
     <g id="line2d_5">
      <path clip-path="url(#p87ccb64406)" d="M 57.6 298.944 
L 57.6 3.456 
" style="fill:none;stroke:#b0b0b0;stroke-linecap:square;stroke-width:0.8;"/>
     </g>
     <g id="line2d_6">
      <defs>
       <path d="M 0 0 
L 0 3.5 
" id="me27164bb4d" style="stroke:#000000;stroke-width:0.8;"/>
      </defs>
      <g>
       <use style="stroke:#000000;stroke-width:0.8;" x="57.6" xlink:href="#me27164bb4d" y="298.944"/>
      </g>
     </g>
     <g id="text_1">
      <!-- 0 -->
      <g transform="translate(51.2375 321.140875)scale(0.2 -0.2)">
       <defs>
        <path d="M 2034 4250 
Q 1547 4250 1301 3770 
Q 1056 3291 1056 2328 
Q 1056 1369 1301 889 
Q 1547 409 2034 409 
Q 2525 409 2770 889 
Q 3016 1369 3016 2328 
Q 3016 3291 2770 3770 
Q 2525 4250 2034 4250 
z
M 2034 4750 
Q 2819 4750 3233 4129 
Q 3647 3509 3647 2328 
Q 3647 1150 3233 529 
Q 2819 -91 2034 -91 
Q 1250 -91 836 529 
Q 422 1150 422 2328 
Q 422 3509 836 4129 
Q 1250 4750 2034 4750 
z
" id="DejaVuSans-30" transform="scale(0.015625)"/>
       </defs>
       <use xlink:href="#DejaVuSans-30"/>
      </g>
     </g>
    </g>
    <g id="xtick_2">
     <g id="line2d_7">
      <path clip-path="url(#p87ccb64406)" d="M 137.910857 298.944 
L 137.910857 3.456 
" style="fill:none;stroke:#b0b0b0;stroke-linecap:square;stroke-width:0.8;"/>
     </g>
     <g id="line2d_8">
      <g>
       <use style="stroke:#000000;stroke-width:0.8;" x="137.910857" xlink:href="#me27164bb4d" y="298.944"/>
      </g>
     </g>
     <g id="text_2">
      <!-- 2 -->
      <g transform="translate(131.548357 321.140875)scale(0.2 -0.2)">
       <defs>
        <path d="M 1228 531 
L 3431 531 
L 3431 0 
L 469 0 
L 469 531 
Q 828 903 1448 1529 
Q 2069 2156 2228 2338 
Q 2531 2678 2651 2914 
Q 2772 3150 2772 3378 
Q 2772 3750 2511 3984 
Q 2250 4219 1831 4219 
Q 1534 4219 1204 4116 
Q 875 4013 500 3803 
L 500 4441 
Q 881 4594 1212 4672 
Q 1544 4750 1819 4750 
Q 2544 4750 2975 4387 
Q 3406 4025 3406 3419 
Q 3406 3131 3298 2873 
Q 3191 2616 2906 2266 
Q 2828 2175 2409 1742 
Q 1991 1309 1228 531 
z
" id="DejaVuSans-32" transform="scale(0.015625)"/>
       </defs>
       <use xlink:href="#DejaVuSans-32"/>
      </g>
     </g>
    </g>
    <g id="xtick_3">
     <g id="line2d_9">
      <path clip-path="url(#p87ccb64406)" d="M 218.221714 298.944 
L 218.221714 3.456 
" style="fill:none;stroke:#b0b0b0;stroke-linecap:square;stroke-width:0.8;"/>
     </g>
     <g id="line2d_10">
      <g>
       <use style="stroke:#000000;stroke-width:0.8;" x="218.221714" xlink:href="#me27164bb4d" y="298.944"/>
      </g>
     </g>
     <g id="text_3">
      <!-- 4 -->
      <g transform="translate(211.859214 321.140875)scale(0.2 -0.2)">
       <defs>
        <path d="M 2419 4116 
L 825 1625 
L 2419 1625 
L 2419 4116 
z
M 2253 4666 
L 3047 4666 
L 3047 1625 
L 3713 1625 
L 3713 1100 
L 3047 1100 
L 3047 0 
L 2419 0 
L 2419 1100 
L 313 1100 
L 313 1709 
L 2253 4666 
z
" id="DejaVuSans-34" transform="scale(0.015625)"/>
       </defs>
       <use xlink:href="#DejaVuSans-34"/>
      </g>
     </g>
    </g>
    <g id="xtick_4">
     <g id="line2d_11">
      <path clip-path="url(#p87ccb64406)" d="M 298.532571 298.944 
L 298.532571 3.456 
" style="fill:none;stroke:#b0b0b0;stroke-linecap:square;stroke-width:0.8;"/>
     </g>
     <g id="line2d_12">
      <g>
       <use style="stroke:#000000;stroke-width:0.8;" x="298.532571" xlink:href="#me27164bb4d" y="298.944"/>
      </g>
     </g>
     <g id="text_4">
      <!-- 6 -->
      <g transform="translate(292.170071 321.140875)scale(0.2 -0.2)">
       <defs>
        <path d="M 2113 2584 
Q 1688 2584 1439 2293 
Q 1191 2003 1191 1497 
Q 1191 994 1439 701 
Q 1688 409 2113 409 
Q 2538 409 2786 701 
Q 3034 994 3034 1497 
Q 3034 2003 2786 2293 
Q 2538 2584 2113 2584 
z
M 3366 4563 
L 3366 3988 
Q 3128 4100 2886 4159 
Q 2644 4219 2406 4219 
Q 1781 4219 1451 3797 
Q 1122 3375 1075 2522 
Q 1259 2794 1537 2939 
Q 1816 3084 2150 3084 
Q 2853 3084 3261 2657 
Q 3669 2231 3669 1497 
Q 3669 778 3244 343 
Q 2819 -91 2113 -91 
Q 1303 -91 875 529 
Q 447 1150 447 2328 
Q 447 3434 972 4092 
Q 1497 4750 2381 4750 
Q 2619 4750 2861 4703 
Q 3103 4656 3366 4563 
z
" id="DejaVuSans-36" transform="scale(0.015625)"/>
       </defs>
       <use xlink:href="#DejaVuSans-36"/>
      </g>
     </g>
    </g>
    <g id="xtick_5">
     <g id="line2d_13">
      <path clip-path="url(#p87ccb64406)" d="M 97.755429 298.944 
L 97.755429 3.456 
" style="fill:none;stroke:#b0b0b0;stroke-linecap:square;stroke-width:0.8;"/>
     </g>
     <g id="line2d_14">
      <defs>
       <path d="M 0 0 
L 0 2 
" id="mfc7cba7b3a" style="stroke:#000000;stroke-width:0.6;"/>
      </defs>
      <g>
       <use style="stroke:#000000;stroke-width:0.6;" x="97.755429" xlink:href="#mfc7cba7b3a" y="298.944"/>
      </g>
     </g>
    </g>
    <g id="xtick_6">
     <g id="line2d_15">
      <path clip-path="url(#p87ccb64406)" d="M 178.066286 298.944 
L 178.066286 3.456 
" style="fill:none;stroke:#b0b0b0;stroke-linecap:square;stroke-width:0.8;"/>
     </g>
     <g id="line2d_16">
      <g>
       <use style="stroke:#000000;stroke-width:0.6;" x="178.066286" xlink:href="#mfc7cba7b3a" y="298.944"/>
      </g>
     </g>
    </g>
    <g id="xtick_7">
     <g id="line2d_17">
      <path clip-path="url(#p87ccb64406)" d="M 258.377143 298.944 
L 258.377143 3.456 
" style="fill:none;stroke:#b0b0b0;stroke-linecap:square;stroke-width:0.8;"/>
     </g>
     <g id="line2d_18">
      <g>
       <use style="stroke:#000000;stroke-width:0.6;" x="258.377143" xlink:href="#mfc7cba7b3a" y="298.944"/>
      </g>
     </g>
    </g>
    <g id="xtick_8">
     <g id="line2d_19">
      <path clip-path="url(#p87ccb64406)" d="M 338.688 298.944 
L 338.688 3.456 
" style="fill:none;stroke:#b0b0b0;stroke-linecap:square;stroke-width:0.8;"/>
     </g>
     <g id="line2d_20">
      <g>
       <use style="stroke:#000000;stroke-width:0.6;" x="338.688" xlink:href="#mfc7cba7b3a" y="298.944"/>
      </g>
     </g>
    </g>
    <g id="text_5">
     <!-- log10(# f-evals / dimension) -->
     <g transform="translate(77.764078 342.217594)scale(0.17 -0.17)">
      <defs>
       <path d="M 603 4863 
L 1178 4863 
L 1178 0 
L 603 0 
L 603 4863 
z
" id="DejaVuSans-6c" transform="scale(0.015625)"/>
       <path d="M 1959 3097 
Q 1497 3097 1228 2736 
Q 959 2375 959 1747 
Q 959 1119 1226 758 
Q 1494 397 1959 397 
Q 2419 397 2687 759 
Q 2956 1122 2956 1747 
Q 2956 2369 2687 2733 
Q 2419 3097 1959 3097 
z
M 1959 3584 
Q 2709 3584 3137 3096 
Q 3566 2609 3566 1747 
Q 3566 888 3137 398 
Q 2709 -91 1959 -91 
Q 1206 -91 779 398 
Q 353 888 353 1747 
Q 353 2609 779 3096 
Q 1206 3584 1959 3584 
z
" id="DejaVuSans-6f" transform="scale(0.015625)"/>
       <path d="M 2906 1791 
Q 2906 2416 2648 2759 
Q 2391 3103 1925 3103 
Q 1463 3103 1205 2759 
Q 947 2416 947 1791 
Q 947 1169 1205 825 
Q 1463 481 1925 481 
Q 2391 481 2648 825 
Q 2906 1169 2906 1791 
z
M 3481 434 
Q 3481 -459 3084 -895 
Q 2688 -1331 1869 -1331 
Q 1566 -1331 1297 -1286 
Q 1028 -1241 775 -1147 
L 775 -588 
Q 1028 -725 1275 -790 
Q 1522 -856 1778 -856 
Q 2344 -856 2625 -561 
Q 2906 -266 2906 331 
L 2906 616 
Q 2728 306 2450 153 
Q 2172 0 1784 0 
Q 1141 0 747 490 
Q 353 981 353 1791 
Q 353 2603 747 3093 
Q 1141 3584 1784 3584 
Q 2172 3584 2450 3431 
Q 2728 3278 2906 2969 
L 2906 3500 
L 3481 3500 
L 3481 434 
z
" id="DejaVuSans-67" transform="scale(0.015625)"/>
       <path d="M 794 531 
L 1825 531 
L 1825 4091 
L 703 3866 
L 703 4441 
L 1819 4666 
L 2450 4666 
L 2450 531 
L 3481 531 
L 3481 0 
L 794 0 
L 794 531 
z
" id="DejaVuSans-31" transform="scale(0.015625)"/>
       <path d="M 1984 4856 
Q 1566 4138 1362 3434 
Q 1159 2731 1159 2009 
Q 1159 1288 1364 580 
Q 1569 -128 1984 -844 
L 1484 -844 
Q 1016 -109 783 600 
Q 550 1309 550 2009 
Q 550 2706 781 3412 
Q 1013 4119 1484 4856 
L 1984 4856 
z
" id="DejaVuSans-28" transform="scale(0.015625)"/>
       <path d="M 3272 2816 
L 2363 2816 
L 2100 1772 
L 3016 1772 
L 3272 2816 
z
M 2803 4594 
L 2478 3297 
L 3391 3297 
L 3719 4594 
L 4219 4594 
L 3897 3297 
L 4872 3297 
L 4872 2816 
L 3775 2816 
L 3519 1772 
L 4513 1772 
L 4513 1294 
L 3397 1294 
L 3072 0 
L 2572 0 
L 2894 1294 
L 1978 1294 
L 1656 0 
L 1153 0 
L 1478 1294 
L 494 1294 
L 494 1772 
L 1594 1772 
L 1856 2816 
L 850 2816 
L 850 3297 
L 1978 3297 
L 2297 4594 
L 2803 4594 
z
" id="DejaVuSans-23" transform="scale(0.015625)"/>
       <path id="DejaVuSans-20" transform="scale(0.015625)"/>
       <path d="M 2375 4863 
L 2375 4384 
L 1825 4384 
Q 1516 4384 1395 4259 
Q 1275 4134 1275 3809 
L 1275 3500 
L 2222 3500 
L 2222 3053 
L 1275 3053 
L 1275 0 
L 697 0 
L 697 3053 
L 147 3053 
L 147 3500 
L 697 3500 
L 697 3744 
Q 697 4328 969 4595 
Q 1241 4863 1831 4863 
L 2375 4863 
z
" id="DejaVuSans-66" transform="scale(0.015625)"/>
       <path d="M 313 2009 
L 1997 2009 
L 1997 1497 
L 313 1497 
L 313 2009 
z
" id="DejaVuSans-2d" transform="scale(0.015625)"/>
       <path d="M 3597 1894 
L 3597 1613 
L 953 1613 
Q 991 1019 1311 708 
Q 1631 397 2203 397 
Q 2534 397 2845 478 
Q 3156 559 3463 722 
L 3463 178 
Q 3153 47 2828 -22 
Q 2503 -91 2169 -91 
Q 1331 -91 842 396 
Q 353 884 353 1716 
Q 353 2575 817 3079 
Q 1281 3584 2069 3584 
Q 2775 3584 3186 3129 
Q 3597 2675 3597 1894 
z
M 3022 2063 
Q 3016 2534 2758 2815 
Q 2500 3097 2075 3097 
Q 1594 3097 1305 2825 
Q 1016 2553 972 2059 
L 3022 2063 
z
" id="DejaVuSans-65" transform="scale(0.015625)"/>
       <path d="M 191 3500 
L 800 3500 
L 1894 563 
L 2988 3500 
L 3597 3500 
L 2284 0 
L 1503 0 
L 191 3500 
z
" id="DejaVuSans-76" transform="scale(0.015625)"/>
       <path d="M 2194 1759 
Q 1497 1759 1228 1600 
Q 959 1441 959 1056 
Q 959 750 1161 570 
Q 1363 391 1709 391 
Q 2188 391 2477 730 
Q 2766 1069 2766 1631 
L 2766 1759 
L 2194 1759 
z
M 3341 1997 
L 3341 0 
L 2766 0 
L 2766 531 
Q 2569 213 2275 61 
Q 1981 -91 1556 -91 
Q 1019 -91 701 211 
Q 384 513 384 1019 
Q 384 1609 779 1909 
Q 1175 2209 1959 2209 
L 2766 2209 
L 2766 2266 
Q 2766 2663 2505 2880 
Q 2244 3097 1772 3097 
Q 1472 3097 1187 3025 
Q 903 2953 641 2809 
L 641 3341 
Q 956 3463 1253 3523 
Q 1550 3584 1831 3584 
Q 2591 3584 2966 3190 
Q 3341 2797 3341 1997 
z
" id="DejaVuSans-61" transform="scale(0.015625)"/>
       <path d="M 2834 3397 
L 2834 2853 
Q 2591 2978 2328 3040 
Q 2066 3103 1784 3103 
Q 1356 3103 1142 2972 
Q 928 2841 928 2578 
Q 928 2378 1081 2264 
Q 1234 2150 1697 2047 
L 1894 2003 
Q 2506 1872 2764 1633 
Q 3022 1394 3022 966 
Q 3022 478 2636 193 
Q 2250 -91 1575 -91 
Q 1294 -91 989 -36 
Q 684 19 347 128 
L 347 722 
Q 666 556 975 473 
Q 1284 391 1588 391 
Q 1994 391 2212 530 
Q 2431 669 2431 922 
Q 2431 1156 2273 1281 
Q 2116 1406 1581 1522 
L 1381 1569 
Q 847 1681 609 1914 
Q 372 2147 372 2553 
Q 372 3047 722 3315 
Q 1072 3584 1716 3584 
Q 2034 3584 2315 3537 
Q 2597 3491 2834 3397 
z
" id="DejaVuSans-73" transform="scale(0.015625)"/>
       <path d="M 1625 4666 
L 2156 4666 
L 531 -594 
L 0 -594 
L 1625 4666 
z
" id="DejaVuSans-2f" transform="scale(0.015625)"/>
       <path d="M 2906 2969 
L 2906 4863 
L 3481 4863 
L 3481 0 
L 2906 0 
L 2906 525 
Q 2725 213 2448 61 
Q 2172 -91 1784 -91 
Q 1150 -91 751 415 
Q 353 922 353 1747 
Q 353 2572 751 3078 
Q 1150 3584 1784 3584 
Q 2172 3584 2448 3432 
Q 2725 3281 2906 2969 
z
M 947 1747 
Q 947 1113 1208 752 
Q 1469 391 1925 391 
Q 2381 391 2643 752 
Q 2906 1113 2906 1747 
Q 2906 2381 2643 2742 
Q 2381 3103 1925 3103 
Q 1469 3103 1208 2742 
Q 947 2381 947 1747 
z
" id="DejaVuSans-64" transform="scale(0.015625)"/>
       <path d="M 603 3500 
L 1178 3500 
L 1178 0 
L 603 0 
L 603 3500 
z
M 603 4863 
L 1178 4863 
L 1178 4134 
L 603 4134 
L 603 4863 
z
" id="DejaVuSans-69" transform="scale(0.015625)"/>
       <path d="M 3328 2828 
Q 3544 3216 3844 3400 
Q 4144 3584 4550 3584 
Q 5097 3584 5394 3201 
Q 5691 2819 5691 2113 
L 5691 0 
L 5113 0 
L 5113 2094 
Q 5113 2597 4934 2840 
Q 4756 3084 4391 3084 
Q 3944 3084 3684 2787 
Q 3425 2491 3425 1978 
L 3425 0 
L 2847 0 
L 2847 2094 
Q 2847 2600 2669 2842 
Q 2491 3084 2119 3084 
Q 1678 3084 1418 2786 
Q 1159 2488 1159 1978 
L 1159 0 
L 581 0 
L 581 3500 
L 1159 3500 
L 1159 2956 
Q 1356 3278 1631 3431 
Q 1906 3584 2284 3584 
Q 2666 3584 2933 3390 
Q 3200 3197 3328 2828 
z
" id="DejaVuSans-6d" transform="scale(0.015625)"/>
       <path d="M 3513 2113 
L 3513 0 
L 2938 0 
L 2938 2094 
Q 2938 2591 2744 2837 
Q 2550 3084 2163 3084 
Q 1697 3084 1428 2787 
Q 1159 2491 1159 1978 
L 1159 0 
L 581 0 
L 581 3500 
L 1159 3500 
L 1159 2956 
Q 1366 3272 1645 3428 
Q 1925 3584 2291 3584 
Q 2894 3584 3203 3211 
Q 3513 2838 3513 2113 
z
" id="DejaVuSans-6e" transform="scale(0.015625)"/>
       <path d="M 513 4856 
L 1013 4856 
Q 1481 4119 1714 3412 
Q 1947 2706 1947 2009 
Q 1947 1309 1714 600 
Q 1481 -109 1013 -844 
L 513 -844 
Q 928 -128 1133 580 
Q 1338 1288 1338 2009 
Q 1338 2731 1133 3434 
Q 928 4138 513 4856 
z
" id="DejaVuSans-29" transform="scale(0.015625)"/>
      </defs>
      <use xlink:href="#DejaVuSans-6c"/>
      <use x="27.783203" xlink:href="#DejaVuSans-6f"/>
      <use x="88.964844" xlink:href="#DejaVuSans-67"/>
      <use x="152.441406" xlink:href="#DejaVuSans-31"/>
      <use x="216.064453" xlink:href="#DejaVuSans-30"/>
      <use x="279.6875" xlink:href="#DejaVuSans-28"/>
      <use x="318.701172" xlink:href="#DejaVuSans-23"/>
      <use x="402.490234" xlink:href="#DejaVuSans-20"/>
      <use x="434.277344" xlink:href="#DejaVuSans-66"/>
      <use x="463.982422" xlink:href="#DejaVuSans-2d"/>
      <use x="500.066406" xlink:href="#DejaVuSans-65"/>
      <use x="561.589844" xlink:href="#DejaVuSans-76"/>
      <use x="620.769531" xlink:href="#DejaVuSans-61"/>
      <use x="682.048828" xlink:href="#DejaVuSans-6c"/>
      <use x="709.832031" xlink:href="#DejaVuSans-73"/>
      <use x="761.931641" xlink:href="#DejaVuSans-20"/>
      <use x="793.71875" xlink:href="#DejaVuSans-2f"/>
      <use x="827.410156" xlink:href="#DejaVuSans-20"/>
      <use x="859.197266" xlink:href="#DejaVuSans-64"/>
      <use x="922.673828" xlink:href="#DejaVuSans-69"/>
      <use x="950.457031" xlink:href="#DejaVuSans-6d"/>
      <use x="1047.869141" xlink:href="#DejaVuSans-65"/>
      <use x="1109.392578" xlink:href="#DejaVuSans-6e"/>
      <use x="1172.771484" xlink:href="#DejaVuSans-73"/>
      <use x="1224.871094" xlink:href="#DejaVuSans-69"/>
      <use x="1252.654297" xlink:href="#DejaVuSans-6f"/>
      <use x="1313.835938" xlink:href="#DejaVuSans-6e"/>
      <use x="1377.214844" xlink:href="#DejaVuSans-29"/>
     </g>
    </g>
   </g>
   <g id="matplotlib.axis_2">
    <g id="ytick_1">
     <g id="line2d_21">
      <path clip-path="url(#p87ccb64406)" d="M 57.6 298.944 
L 338.688 298.944 
" style="fill:none;stroke:#b0b0b0;stroke-linecap:square;stroke-width:0.8;"/>
     </g>
     <g id="line2d_22">
      <defs>
       <path d="M 0 0 
L -3.5 0 
" id="mbff4d11a03" style="stroke:#000000;stroke-width:0.8;"/>
      </defs>
      <g>
       <use style="stroke:#000000;stroke-width:0.8;" x="57.6" xlink:href="#mbff4d11a03" y="298.944"/>
      </g>
     </g>
     <g id="text_6">
      <!-- 0.0 -->
      <g transform="translate(25.155 305.02275)scale(0.16 -0.16)">
       <defs>
        <path d="M 684 794 
L 1344 794 
L 1344 0 
L 684 0 
L 684 794 
z
" id="DejaVuSans-2e" transform="scale(0.015625)"/>
       </defs>
       <use xlink:href="#DejaVuSans-30"/>
       <use x="63.623047" xlink:href="#DejaVuSans-2e"/>
       <use x="95.410156" xlink:href="#DejaVuSans-30"/>
      </g>
     </g>
    </g>
    <g id="ytick_2">
     <g id="line2d_23">
      <path clip-path="url(#p87ccb64406)" d="M 57.6 240.431525 
L 338.688 240.431525 
" style="fill:none;stroke:#b0b0b0;stroke-linecap:square;stroke-width:0.8;"/>
     </g>
     <g id="line2d_24">
      <g>
       <use style="stroke:#000000;stroke-width:0.8;" x="57.6" xlink:href="#mbff4d11a03" y="240.431525"/>
      </g>
     </g>
     <g id="text_7">
      <!-- 0.2 -->
      <g transform="translate(25.155 246.510275)scale(0.16 -0.16)">
       <use xlink:href="#DejaVuSans-30"/>
       <use x="63.623047" xlink:href="#DejaVuSans-2e"/>
       <use x="95.410156" xlink:href="#DejaVuSans-32"/>
      </g>
     </g>
    </g>
    <g id="ytick_3">
     <g id="line2d_25">
      <path clip-path="url(#p87ccb64406)" d="M 57.6 181.91905 
L 338.688 181.91905 
" style="fill:none;stroke:#b0b0b0;stroke-linecap:square;stroke-width:0.8;"/>
     </g>
     <g id="line2d_26">
      <g>
       <use style="stroke:#000000;stroke-width:0.8;" x="57.6" xlink:href="#mbff4d11a03" y="181.91905"/>
      </g>
     </g>
     <g id="text_8">
      <!-- 0.4 -->
      <g transform="translate(25.155 187.9978)scale(0.16 -0.16)">
       <use xlink:href="#DejaVuSans-30"/>
       <use x="63.623047" xlink:href="#DejaVuSans-2e"/>
       <use x="95.410156" xlink:href="#DejaVuSans-34"/>
      </g>
     </g>
    </g>
    <g id="ytick_4">
     <g id="line2d_27">
      <path clip-path="url(#p87ccb64406)" d="M 57.6 123.406574 
L 338.688 123.406574 
" style="fill:none;stroke:#b0b0b0;stroke-linecap:square;stroke-width:0.8;"/>
     </g>
     <g id="line2d_28">
      <g>
       <use style="stroke:#000000;stroke-width:0.8;" x="57.6" xlink:href="#mbff4d11a03" y="123.406574"/>
      </g>
     </g>
     <g id="text_9">
      <!-- 0.6 -->
      <g transform="translate(25.155 129.485324)scale(0.16 -0.16)">
       <use xlink:href="#DejaVuSans-30"/>
       <use x="63.623047" xlink:href="#DejaVuSans-2e"/>
       <use x="95.410156" xlink:href="#DejaVuSans-36"/>
      </g>
     </g>
    </g>
    <g id="ytick_5">
     <g id="line2d_29">
      <path clip-path="url(#p87ccb64406)" d="M 57.6 64.894099 
L 338.688 64.894099 
" style="fill:none;stroke:#b0b0b0;stroke-linecap:square;stroke-width:0.8;"/>
     </g>
     <g id="line2d_30">
      <g>
       <use style="stroke:#000000;stroke-width:0.8;" x="57.6" xlink:href="#mbff4d11a03" y="64.894099"/>
      </g>
     </g>
     <g id="text_10">
      <!-- 0.8 -->
      <g transform="translate(25.155 70.972849)scale(0.16 -0.16)">
       <defs>
        <path d="M 2034 2216 
Q 1584 2216 1326 1975 
Q 1069 1734 1069 1313 
Q 1069 891 1326 650 
Q 1584 409 2034 409 
Q 2484 409 2743 651 
Q 3003 894 3003 1313 
Q 3003 1734 2745 1975 
Q 2488 2216 2034 2216 
z
M 1403 2484 
Q 997 2584 770 2862 
Q 544 3141 544 3541 
Q 544 4100 942 4425 
Q 1341 4750 2034 4750 
Q 2731 4750 3128 4425 
Q 3525 4100 3525 3541 
Q 3525 3141 3298 2862 
Q 3072 2584 2669 2484 
Q 3125 2378 3379 2068 
Q 3634 1759 3634 1313 
Q 3634 634 3220 271 
Q 2806 -91 2034 -91 
Q 1263 -91 848 271 
Q 434 634 434 1313 
Q 434 1759 690 2068 
Q 947 2378 1403 2484 
z
M 1172 3481 
Q 1172 3119 1398 2916 
Q 1625 2713 2034 2713 
Q 2441 2713 2670 2916 
Q 2900 3119 2900 3481 
Q 2900 3844 2670 4047 
Q 2441 4250 2034 4250 
Q 1625 4250 1398 4047 
Q 1172 3844 1172 3481 
z
" id="DejaVuSans-38" transform="scale(0.015625)"/>
       </defs>
       <use xlink:href="#DejaVuSans-30"/>
       <use x="63.623047" xlink:href="#DejaVuSans-2e"/>
       <use x="95.410156" xlink:href="#DejaVuSans-38"/>
      </g>
     </g>
    </g>
    <g id="ytick_6">
     <g id="line2d_31">
      <path clip-path="url(#p87ccb64406)" d="M 57.6 6.381624 
L 338.688 6.381624 
" style="fill:none;stroke:#b0b0b0;stroke-linecap:square;stroke-width:0.8;"/>
     </g>
     <g id="line2d_32">
      <g>
       <use style="stroke:#000000;stroke-width:0.8;" x="57.6" xlink:href="#mbff4d11a03" y="6.381624"/>
      </g>
     </g>
     <g id="text_11">
      <!-- 1.0 -->
      <g transform="translate(25.155 12.460374)scale(0.16 -0.16)">
       <use xlink:href="#DejaVuSans-31"/>
       <use x="63.623047" xlink:href="#DejaVuSans-2e"/>
       <use x="95.410156" xlink:href="#DejaVuSans-30"/>
      </g>
     </g>
    </g>
    <g id="text_12">
     <!-- Fraction of function,target pairs -->
     <g transform="translate(17.619531 285.585)rotate(-90)scale(0.17 -0.17)">
      <defs>
       <path d="M 628 4666 
L 3309 4666 
L 3309 4134 
L 1259 4134 
L 1259 2759 
L 3109 2759 
L 3109 2228 
L 1259 2228 
L 1259 0 
L 628 0 
L 628 4666 
z
" id="DejaVuSans-46" transform="scale(0.015625)"/>
       <path d="M 2631 2963 
Q 2534 3019 2420 3045 
Q 2306 3072 2169 3072 
Q 1681 3072 1420 2755 
Q 1159 2438 1159 1844 
L 1159 0 
L 581 0 
L 581 3500 
L 1159 3500 
L 1159 2956 
Q 1341 3275 1631 3429 
Q 1922 3584 2338 3584 
Q 2397 3584 2469 3576 
Q 2541 3569 2628 3553 
L 2631 2963 
z
" id="DejaVuSans-72" transform="scale(0.015625)"/>
       <path d="M 3122 3366 
L 3122 2828 
Q 2878 2963 2633 3030 
Q 2388 3097 2138 3097 
Q 1578 3097 1268 2742 
Q 959 2388 959 1747 
Q 959 1106 1268 751 
Q 1578 397 2138 397 
Q 2388 397 2633 464 
Q 2878 531 3122 666 
L 3122 134 
Q 2881 22 2623 -34 
Q 2366 -91 2075 -91 
Q 1284 -91 818 406 
Q 353 903 353 1747 
Q 353 2603 823 3093 
Q 1294 3584 2113 3584 
Q 2378 3584 2631 3529 
Q 2884 3475 3122 3366 
z
" id="DejaVuSans-63" transform="scale(0.015625)"/>
       <path d="M 1172 4494 
L 1172 3500 
L 2356 3500 
L 2356 3053 
L 1172 3053 
L 1172 1153 
Q 1172 725 1289 603 
Q 1406 481 1766 481 
L 2356 481 
L 2356 0 
L 1766 0 
Q 1100 0 847 248 
Q 594 497 594 1153 
L 594 3053 
L 172 3053 
L 172 3500 
L 594 3500 
L 594 4494 
L 1172 4494 
z
" id="DejaVuSans-74" transform="scale(0.015625)"/>
       <path d="M 544 1381 
L 544 3500 
L 1119 3500 
L 1119 1403 
Q 1119 906 1312 657 
Q 1506 409 1894 409 
Q 2359 409 2629 706 
Q 2900 1003 2900 1516 
L 2900 3500 
L 3475 3500 
L 3475 0 
L 2900 0 
L 2900 538 
Q 2691 219 2414 64 
Q 2138 -91 1772 -91 
Q 1169 -91 856 284 
Q 544 659 544 1381 
z
M 1991 3584 
L 1991 3584 
z
" id="DejaVuSans-75" transform="scale(0.015625)"/>
       <path d="M 750 794 
L 1409 794 
L 1409 256 
L 897 -744 
L 494 -744 
L 750 256 
L 750 794 
z
" id="DejaVuSans-2c" transform="scale(0.015625)"/>
       <path d="M 1159 525 
L 1159 -1331 
L 581 -1331 
L 581 3500 
L 1159 3500 
L 1159 2969 
Q 1341 3281 1617 3432 
Q 1894 3584 2278 3584 
Q 2916 3584 3314 3078 
Q 3713 2572 3713 1747 
Q 3713 922 3314 415 
Q 2916 -91 2278 -91 
Q 1894 -91 1617 61 
Q 1341 213 1159 525 
z
M 3116 1747 
Q 3116 2381 2855 2742 
Q 2594 3103 2138 3103 
Q 1681 3103 1420 2742 
Q 1159 2381 1159 1747 
Q 1159 1113 1420 752 
Q 1681 391 2138 391 
Q 2594 391 2855 752 
Q 3116 1113 3116 1747 
z
" id="DejaVuSans-70" transform="scale(0.015625)"/>
      </defs>
      <use xlink:href="#DejaVuSans-46"/>
      <use x="50.269531" xlink:href="#DejaVuSans-72"/>
      <use x="91.382812" xlink:href="#DejaVuSans-61"/>
      <use x="152.662109" xlink:href="#DejaVuSans-63"/>
      <use x="207.642578" xlink:href="#DejaVuSans-74"/>
      <use x="246.851562" xlink:href="#DejaVuSans-69"/>
      <use x="274.634766" xlink:href="#DejaVuSans-6f"/>
      <use x="335.816406" xlink:href="#DejaVuSans-6e"/>
      <use x="399.195312" xlink:href="#DejaVuSans-20"/>
      <use x="430.982422" xlink:href="#DejaVuSans-6f"/>
      <use x="492.164062" xlink:href="#DejaVuSans-66"/>
      <use x="527.369141" xlink:href="#DejaVuSans-20"/>
      <use x="559.15625" xlink:href="#DejaVuSans-66"/>
      <use x="594.361328" xlink:href="#DejaVuSans-75"/>
      <use x="657.740234" xlink:href="#DejaVuSans-6e"/>
      <use x="721.119141" xlink:href="#DejaVuSans-63"/>
      <use x="776.099609" xlink:href="#DejaVuSans-74"/>
      <use x="815.308594" xlink:href="#DejaVuSans-69"/>
      <use x="843.091797" xlink:href="#DejaVuSans-6f"/>
      <use x="904.273438" xlink:href="#DejaVuSans-6e"/>
      <use x="967.652344" xlink:href="#DejaVuSans-2c"/>
      <use x="999.439453" xlink:href="#DejaVuSans-74"/>
      <use x="1038.648438" xlink:href="#DejaVuSans-61"/>
      <use x="1099.927734" xlink:href="#DejaVuSans-72"/>
      <use x="1139.291016" xlink:href="#DejaVuSans-67"/>
      <use x="1202.767578" xlink:href="#DejaVuSans-65"/>
      <use x="1264.291016" xlink:href="#DejaVuSans-74"/>
      <use x="1303.5" xlink:href="#DejaVuSans-20"/>
      <use x="1335.287109" xlink:href="#DejaVuSans-70"/>
      <use x="1398.763672" xlink:href="#DejaVuSans-61"/>
      <use x="1460.042969" xlink:href="#DejaVuSans-69"/>
      <use x="1487.826172" xlink:href="#DejaVuSans-72"/>
      <use x="1528.939453" xlink:href="#DejaVuSans-73"/>
     </g>
    </g>
   </g>
   <g id="line2d_33">
    <defs>
     <path d="M 0 1.5 
C 0.397805 1.5 0.77937 1.341951 1.06066 1.06066 
C 1.341951 0.77937 1.5 0.397805 1.5 0 
C 1.5 -0.397805 1.341951 -0.77937 1.06066 -1.06066 
C 0.77937 -1.341951 0.397805 -1.5 0 -1.5 
C -0.397805 -1.5 -0.77937 -1.341951 -1.06066 -1.06066 
C -1.341951 -0.77937 -1.5 -0.397805 -1.5 0 
C -1.5 0.397805 -1.341951 0.77937 -1.06066 1.06066 
C -0.77937 1.341951 -0.397805 1.5 0 1.5 
z
" id="mfa2493db99" style="stroke:#f5deb3;"/>
    </defs>
    <g>
     <use style="fill:#f5deb3;stroke:#f5deb3;" x="292.912422" xlink:href="#mfa2493db99" y="41.690876"/>
     <use style="fill:#f5deb3;stroke:#f5deb3;" x="292.912422" xlink:href="#mfa2493db99" y="41.690876"/>
    </g>
   </g>
   <g id="line2d_34">
    <defs>
     <path d="M 0 1.5 
C 0.397805 1.5 0.77937 1.341951 1.06066 1.06066 
C 1.341951 0.77937 1.5 0.397805 1.5 0 
C 1.5 -0.397805 1.341951 -0.77937 1.06066 -1.06066 
C 0.77937 -1.341951 0.397805 -1.5 0 -1.5 
C -0.397805 -1.5 -0.77937 -1.341951 -1.06066 -1.06066 
C -1.341951 -0.77937 -1.5 -0.397805 -1.5 0 
C -1.5 0.397805 -1.341951 0.77937 -1.06066 1.06066 
C -0.77937 1.341951 -0.397805 1.5 0 1.5 
z
" id="ma6e8b7ae0a" style="stroke:#000080;"/>
    </defs>
    <g>
     <use style="fill:#000080;stroke:#000080;" x="233.425599" xlink:href="#ma6e8b7ae0a" y="124.751689"/>
     <use style="fill:#000080;stroke:#000080;" x="233.425599" xlink:href="#ma6e8b7ae0a" y="124.751689"/>
    </g>
   </g>
   <g id="line2d_35">
    <path d="M 5.356583 298.944 
L 5.356583 287.342389 
L 60.037348 287.342389 
L 60.037348 287.00611 
L 60.779557 287.00611 
L 60.779557 286.669831 
L 62.833608 286.669831 
L 62.833608 286.501692 
L 67.359297 286.501692 
L 67.359297 286.333553 
L 68.328395 286.333553 
L 68.328395 286.165413 
L 69.246464 286.165413 
L 69.246464 285.997274 
L 70.949209 285.997274 
L 70.949209 285.660996 
L 71.35013 285.660996 
L 71.35013 285.492856 
L 72.500389 285.492856 
L 72.500389 285.324717 
L 72.867545 285.324717 
L 72.867545 285.156578 
L 78.154896 285.156578 
L 78.154896 284.988438 
L 78.941764 284.988438 
L 78.941764 284.48402 
L 79.447285 284.48402 
L 79.447285 284.315881 
L 80.650472 284.315881 
L 80.650472 284.147742 
L 82.206598 284.147742 
L 82.206598 283.979603 
L 83.830028 283.979603 
L 83.830028 283.811463 
L 84.401859 283.811463 
L 84.401859 283.643324 
L 84.772922 283.643324 
L 84.772922 283.475185 
L 84.955534 283.475185 
L 84.955534 283.307045 
L 85.136253 283.307045 
L 85.136253 283.138906 
L 86.683608 283.138906 
L 86.683608 282.970767 
L 86.847358 282.970767 
L 86.847358 282.802628 
L 88.991722 282.802628 
L 88.991722 282.634488 
L 90.108217 282.634488 
L 90.108217 282.466349 
L 90.640756 282.466349 
L 90.640756 282.29821 
L 91.029752 282.29821 
L 91.029752 282.13007 
L 91.659398 282.13007 
L 91.659398 281.793792 
L 91.905025 281.793792 
L 91.905025 281.625652 
L 92.147241 281.625652 
L 92.147241 281.457513 
L 93.644601 281.457513 
L 93.644601 281.121235 
L 93.863965 281.121235 
L 93.863965 280.953095 
L 95.023499 280.953095 
L 95.023499 280.784956 
L 95.526106 280.784956 
L 95.526106 280.616817 
L 95.723163 280.616817 
L 95.820862 280.112399 
L 96.110718 280.112399 
L 96.110718 279.944259 
L 98.689141 279.944259 
L 98.771596 279.439842 
L 98.853664 279.439842 
L 98.853664 279.271702 
L 99.097574 279.271702 
L 99.097574 279.103563 
L 99.653771 279.103563 
L 99.653771 278.935424 
L 99.80948 278.935424 
L 99.80948 278.767284 
L 100.418775 278.767284 
L 100.418775 278.599145 
L 100.86217 278.599145 
L 100.86217 278.262867 
L 101.365607 278.262867 
L 101.436355 277.926588 
L 102.12848 277.926588 
L 102.12848 277.758449 
L 104.414709 277.758449 
L 104.414709 277.590309 
L 104.592361 277.590309 
L 104.592361 277.42217 
L 105.171792 277.42217 
L 105.171792 277.254031 
L 106.329326 277.254031 
L 106.382575 276.581474 
L 106.48859 276.581474 
L 106.48859 276.413334 
L 107.06042 276.413334 
L 107.06042 276.245195 
L 107.762095 276.245195 
L 107.860069 275.908916 
L 108.054381 275.908916 
L 108.054381 275.740777 
L 108.341848 275.740777 
L 108.389302 275.404498 
L 108.530893 275.404498 
L 108.577836 275.06822 
L 108.717912 275.06822 
L 108.717912 274.900081 
L 109.930396 274.900081 
L 109.930396 274.731941 
L 110.103064 274.731941 
L 110.188761 274.395663 
L 111.386247 274.395663 
L 111.465878 274.059384 
L 111.819788 274.059384 
L 111.819788 273.891245 
L 112.506763 273.891245 
L 112.506763 273.723105 
L 113.022974 273.723105 
L 113.022974 273.554966 
L 113.167699 273.554966 
L 113.167699 273.218688 
L 113.629929 273.218688 
L 113.629929 273.050548 
L 113.873839 273.050548 
L 113.873839 272.882409 
L 114.250364 272.882409 
L 114.250364 272.71427 
L 114.452366 272.71427 
L 114.452366 272.54613 
L 114.914798 272.54613 
L 114.97987 272.041713 
L 115.33349 272.041713 
L 115.4287 271.537295 
L 115.523393 271.537295 
L 115.586238 271.201016 
L 115.804426 271.201016 
L 115.804426 271.032877 
L 116.081002 271.032877 
L 116.081002 270.864737 
L 116.413189 270.864737 
L 116.413189 270.696598 
L 116.562116 270.696598 
L 116.562116 270.528459 
L 117.202696 270.528459 
L 117.202696 270.36032 
L 117.737599 270.36032 
L 117.737599 270.19218 
L 118.443959 270.19218 
L 118.443959 270.024041 
L 118.942633 270.024041 
L 118.942633 269.855902 
L 119.224953 269.855902 
L 119.224953 269.687762 
L 119.577783 269.687762 
L 119.577783 269.519623 
L 120.069756 269.519623 
L 120.069756 269.351484 
L 120.595363 269.351484 
L 120.595363 269.183344 
L 120.875518 269.183344 
L 120.921776 268.678927 
L 121.734102 268.678927 
L 121.77814 268.174509 
L 121.909593 268.174509 
L 121.909593 268.006369 
L 122.552391 268.006369 
L 122.552391 267.83823 
L 122.906394 267.83823 
L 122.906394 267.670091 
L 123.192626 267.670091 
L 123.293723 267.165673 
L 123.907776 267.165673 
L 123.985457 266.661255 
L 124.178158 266.661255 
L 124.178158 266.493116 
L 125.201556 266.493116 
L 125.201556 266.156837 
L 125.700364 266.156837 
L 125.700364 265.988698 
L 125.961828 265.988698 
L 126.065325 265.652419 
L 126.219429 265.652419 
L 126.219429 265.48428 
L 126.422805 265.48428 
L 126.422805 265.316141 
L 126.78961 265.316141 
L 126.78961 265.148001 
L 127.116504 265.148001 
L 127.116504 264.979862 
L 127.229484 264.979862 
L 127.309739 263.971026 
L 127.389626 263.971026 
L 127.389626 263.802887 
L 127.674226 263.802887 
L 127.783662 263.466608 
L 128.275374 263.466608 
L 128.275374 263.298469 
L 128.768338 263.298469 
L 128.783061 262.625912 
L 129.51791 262.625912 
L 129.560187 262.121494 
L 129.644435 262.121494 
L 129.742212 261.785215 
L 130.304155 261.785215 
L 130.304155 261.617076 
L 130.624887 261.617076 
L 130.704156 260.944519 
L 130.743656 260.944519 
L 130.848555 260.440101 
L 130.861623 260.440101 
L 130.861623 260.271962 
L 131.236397 260.271962 
L 131.338382 259.935683 
L 131.565689 259.935683 
L 131.603287 259.263126 
L 131.690703 259.263126 
L 131.690703 259.094987 
L 132.194089 259.094987 
L 132.194089 258.926847 
L 132.350712 258.926847 
L 132.350712 258.758708 
L 132.505941 258.758708 
L 132.565279 258.422429 
L 132.70687 258.422429 
L 132.730358 257.918012 
L 132.905511 257.918012 
L 132.905511 257.749872 
L 133.711505 257.749872 
L 133.811063 257.245454 
L 133.85513 257.245454 
L 133.931979 256.572897 
L 134.311226 256.572897 
L 134.386096 256.236619 
L 134.942772 256.236619 
L 134.994383 255.732201 
L 135.701341 255.732201 
L 135.701341 255.564061 
L 135.868791 255.564061 
L 135.868791 255.227783 
L 136.121821 255.227783 
L 136.121821 255.059644 
L 136.275726 255.059644 
L 136.275726 254.891504 
L 136.437776 254.891504 
L 136.437776 254.723365 
L 136.598334 254.723365 
L 136.598334 254.387086 
L 136.79465 254.387086 
L 136.79465 254.050808 
L 137.053015 254.050808 
L 137.135254 253.54639 
L 137.171681 253.54639 
L 137.171681 253.378251 
L 137.567432 253.378251 
L 137.567432 253.210111 
L 138.170504 253.210111 
L 138.170504 253.041972 
L 138.636709 253.041972 
L 138.636709 252.873833 
L 139.009092 252.873833 
L 139.009092 252.705693 
L 139.413734 252.705693 
L 139.413734 252.369415 
L 139.902792 252.369415 
L 139.902792 252.201276 
L 140.080785 252.201276 
L 140.080785 252.033136 
L 140.484155 252.033136 
L 140.484155 251.864997 
L 140.708409 251.864997 
L 140.708409 251.528718 
L 140.907802 251.528718 
L 140.907802 251.360579 
L 141.350061 251.360579 
L 141.350061 251.0243 
L 141.521035 251.0243 
L 141.62705 250.351743 
L 141.71841 250.351743 
L 141.71841 250.183604 
L 142.277122 250.183604 
L 142.277122 249.847325 
L 142.472881 249.847325 
L 142.472881 249.511047 
L 143.292393 249.511047 
L 143.311596 249.174768 
L 143.797366 249.174768 
L 143.834656 248.67035 
L 144.576089 248.67035 
L 144.576089 248.502211 
L 144.724207 248.502211 
L 144.724207 248.334072 
L 145.080421 248.334072 
L 145.080421 248.165932 
L 145.570577 248.165932 
L 145.570577 247.829654 
L 145.99256 247.829654 
L 145.99256 247.661515 
L 146.463409 247.661515 
L 146.463409 247.325236 
L 146.638733 247.325236 
L 146.638733 247.157097 
L 147.072061 247.157097 
L 147.180013 245.811982 
L 147.231185 245.811982 
L 147.231185 245.643843 
L 147.56019 245.643843 
L 147.56019 245.307564 
L 147.86833 245.307564 
L 147.942069 244.635007 
L 148.643965 244.635007 
L 148.672214 243.96245 
L 149.044564 243.96245 
L 149.044564 243.626171 
L 149.305096 243.626171 
L 149.305096 243.458032 
L 149.624267 243.458032 
L 149.659866 242.953614 
L 149.770648 242.953614 
L 149.827978 242.449196 
L 150.01192 242.449196 
L 150.120495 241.944778 
L 150.446473 241.944778 
L 150.446473 241.776639 
L 150.703775 241.776639 
L 150.753948 241.104082 
L 151.105266 241.104082 
L 151.105266 240.935943 
L 151.243836 240.935943 
L 151.243836 240.599664 
L 151.437608 240.599664 
L 151.437608 240.263385 
L 152.234096 240.263385 
L 152.26858 239.422689 
L 152.462711 239.422689 
L 152.462711 239.25455 
L 152.684631 239.25455 
L 152.762943 238.750132 
L 152.984773 238.750132 
L 152.984773 238.581992 
L 153.142033 238.581992 
L 153.189299 238.245714 
L 153.537988 238.245714 
L 153.537988 237.909435 
L 153.686831 237.909435 
L 153.70094 237.405017 
L 153.900769 237.405017 
L 153.907739 236.9006 
L 154.129325 236.9006 
L 154.129325 236.564321 
L 154.415949 236.564321 
L 154.415949 236.396182 
L 154.929494 236.396182 
L 154.929494 236.059903 
L 155.073486 236.059903 
L 155.073486 235.723624 
L 155.335493 235.723624 
L 155.335493 235.555485 
L 155.463441 235.555485 
L 155.463441 235.219207 
L 155.779264 235.219207 
L 155.779264 235.051067 
L 155.916435 235.051067 
L 155.916435 234.882928 
L 156.14779 234.882928 
L 156.14779 234.546649 
L 156.32159 234.546649 
L 156.345845 233.705953 
L 156.493674 233.705953 
L 156.493674 233.537814 
L 156.68489 233.537814 
L 156.756059 232.865256 
L 156.826938 232.865256 
L 156.909268 232.360839 
L 156.950288 232.360839 
L 156.950288 232.192699 
L 157.142378 232.192699 
L 157.142378 231.856421 
L 157.352406 231.856421 
L 157.392398 231.352003 
L 157.474947 231.352003 
L 157.582528 230.847585 
L 157.67261 230.847585 
L 157.748256 229.334331 
L 157.784562 229.334331 
L 157.80408 228.829913 
L 157.898572 228.829913 
L 157.998067 227.989217 
L 158.18992 227.989217 
L 158.247067 227.652938 
L 158.320268 227.652938 
L 158.320268 227.31666 
L 158.505951 227.31666 
L 158.615355 225.635267 
L 158.726721 225.635267 
L 158.726721 225.467127 
L 158.884591 225.467127 
L 158.991653 224.626431 
L 159.017667 224.626431 
L 159.110994 224.290152 
L 159.190962 224.290152 
L 159.219249 223.953874 
L 159.367648 223.953874 
L 159.367648 223.785734 
L 159.572803 223.785734 
L 159.577838 223.113177 
L 159.758143 223.113177 
L 159.852557 222.44062 
L 160.025151 222.44062 
L 160.061915 222.104341 
L 160.300213 222.104341 
L 160.300213 221.768063 
L 160.432539 221.768063 
L 160.540064 220.927366 
L 160.55911 220.927366 
L 160.658763 220.254809 
L 160.998493 220.254809 
L 160.998493 219.918531 
L 161.121037 219.918531 
L 161.121037 219.750391 
L 161.329454 219.750391 
L 161.424813 219.245973 
L 161.454223 219.245973 
L 161.50839 218.573416 
L 161.63189 218.573416 
L 161.63189 218.405277 
L 161.836537 218.405277 
L 161.836537 218.068998 
L 161.955547 218.068998 
L 161.955547 217.73272 
L 162.080293 217.73272 
L 162.186823 217.228302 
L 162.423627 217.228302 
L 162.506819 216.555745 
L 163.256563 216.555745 
L 163.256563 216.387605 
L 163.725178 216.387605 
L 163.816224 215.883187 
L 164.173795 215.883187 
L 164.189261 215.546909 
L 164.387164 215.546909 
L 164.480529 214.201794 
L 164.605502 214.201794 
L 164.611161 213.697377 
L 164.938151 213.697377 
L 164.938151 213.361098 
L 165.21363 213.361098 
L 165.320804 212.85668 
L 165.818873 212.85668 
L 165.889129 212.352262 
L 166.172531 212.352262 
L 166.172531 212.184123 
L 166.390193 212.184123 
L 166.390193 211.847844 
L 166.630389 211.847844 
L 166.630389 211.511566 
L 167.081444 211.511566 
L 167.084718 210.839009 
L 168.001318 210.839009 
L 168.001318 210.50273 
L 168.16054 210.50273 
L 168.217383 209.998312 
L 168.350315 209.998312 
L 168.350315 209.830173 
L 168.47922 209.830173 
L 168.515445 209.493894 
L 168.71633 209.493894 
L 168.71633 209.157616 
L 169.226025 209.157616 
L 169.226025 208.989476 
L 169.41034 208.989476 
L 169.488944 208.14878 
L 169.702943 208.14878 
L 169.711392 207.812501 
L 169.86976 207.812501 
L 169.939378 207.139944 
L 170.039142 207.139944 
L 170.039142 206.971805 
L 170.15619 206.971805 
L 170.15619 206.635526 
L 170.404197 206.635526 
L 170.439341 206.131108 
L 170.579211 206.131108 
L 170.638051 205.62669 
L 170.706004 205.62669 
L 170.784287 204.785994 
L 170.8266 204.785994 
L 170.880663 204.281576 
L 171.122543 204.281576 
L 171.122543 203.945297 
L 171.241592 203.945297 
L 171.241592 203.609019 
L 171.414825 203.609019 
L 171.449266 203.104601 
L 171.683438 203.104601 
L 171.739927 202.768322 
L 171.986326 202.768322 
L 172.06031 201.927626 
L 172.178036 201.927626 
L 172.192696 201.591347 
L 172.478533 201.591347 
L 172.478533 201.423208 
L 172.639959 201.423208 
L 172.679192 200.750651 
L 172.764487 200.750651 
L 172.858773 200.246233 
L 172.992256 200.246233 
L 173.05048 199.909954 
L 173.132825 199.909954 
L 173.132825 199.741815 
L 173.38554 199.741815 
L 173.457239 199.237397 
L 173.518461 199.237397 
L 173.592998 198.56484 
L 173.66385 198.56484 
L 173.66385 198.396701 
L 174.03255 198.396701 
L 174.109302 197.724143 
L 174.149736 197.724143 
L 174.182451 197.387865 
L 174.602254 197.387865 
L 174.602254 197.219726 
L 174.965377 197.219726 
L 175.006993 196.715308 
L 175.332316 196.715308 
L 175.398488 196.379029 
L 175.683698 196.379029 
L 175.683698 196.04275 
L 175.820111 196.04275 
L 175.921971 195.202054 
L 176.544747 195.202054 
L 176.595102 194.697636 
L 176.785697 194.697636 
L 176.785697 194.361357 
L 177.470256 194.361357 
L 177.470256 194.025079 
L 177.656035 194.025079 
L 177.656035 193.85694 
L 177.833671 193.85694 
L 177.833671 193.6888 
L 177.976241 193.6888 
L 178.051456 193.016243 
L 178.419321 193.016243 
L 178.463698 192.511825 
L 178.783772 192.511825 
L 178.840583 192.007407 
L 178.921303 192.007407 
L 179.012391 191.33485 
L 179.09972 191.33485 
L 179.151416 190.662293 
L 179.432635 190.662293 
L 179.522703 190.157875 
L 179.764853 190.157875 
L 179.764853 189.989736 
L 179.941935 189.989736 
L 179.993539 189.317179 
L 180.434498 189.317179 
L 180.434498 189.149039 
L 180.866809 189.149039 
L 180.925376 188.644621 
L 181.019854 188.644621 
L 181.019854 188.476482 
L 181.366049 188.476482 
L 181.472527 187.467646 
L 181.53839 187.467646 
L 181.621792 186.795089 
L 181.730965 186.795089 
L 181.794453 186.290671 
L 181.887151 186.290671 
L 181.980057 185.449975 
L 182.053055 185.449975 
L 182.053055 185.281835 
L 182.167153 185.281835 
L 182.167153 185.113696 
L 182.354991 185.113696 
L 182.378159 184.273 
L 182.509766 184.273 
L 182.509766 183.936721 
L 182.651118 183.936721 
L 182.752719 183.432303 
L 182.792662 183.432303 
L 182.867642 182.759746 
L 183.222862 182.759746 
L 183.222862 182.423467 
L 183.431162 182.423467 
L 183.431162 182.255328 
L 183.576078 182.255328 
L 183.576078 181.91905 
L 183.721061 181.91905 
L 183.778341 181.414632 
L 184.476794 181.414632 
L 184.476794 181.246492 
L 184.846566 181.246492 
L 184.846566 181.078353 
L 184.979055 181.078353 
L 185.060404 180.069517 
L 185.140212 180.069517 
L 185.223128 179.565099 
L 185.402106 179.565099 
L 185.402106 179.228821 
L 185.528751 179.228821 
L 185.528751 179.060681 
L 186.058892 179.060681 
L 186.128229 178.556264 
L 186.20112 178.556264 
L 186.20276 178.219985 
L 186.514402 178.219985 
L 186.565894 177.883706 
L 186.952032 177.883706 
L 186.961458 177.379288 
L 187.13287 177.379288 
L 187.13287 177.04301 
L 187.475296 177.04301 
L 187.564541 176.538592 
L 187.786675 176.538592 
L 187.840026 176.202313 
L 188.097007 176.202313 
L 188.151865 175.697896 
L 188.224578 175.697896 
L 188.3188 174.68906 
L 188.348805 174.68906 
L 188.348805 174.352781 
L 188.474554 174.352781 
L 188.565051 173.343945 
L 188.589391 173.343945 
L 188.636066 173.007667 
L 188.734719 173.007667 
L 188.819173 172.33511 
L 188.920543 172.33511 
L 188.920543 172.16697 
L 189.245064 172.16697 
L 189.245064 171.998831 
L 189.400081 171.998831 
L 189.400081 171.830692 
L 190.20521 171.830692 
L 190.20521 171.662552 
L 191.139567 171.662552 
L 191.139567 171.494413 
L 191.468947 171.494413 
L 191.538352 170.989995 
L 191.858378 170.989995 
L 191.858378 170.821856 
L 192.230401 170.821856 
L 192.328051 170.485577 
L 192.968901 170.485577 
L 193.051439 169.981159 
L 193.378824 169.981159 
L 193.378824 169.81302 
L 193.632808 169.81302 
L 193.632808 169.476742 
L 193.78252 169.476742 
L 193.78252 169.308602 
L 194.588629 169.308602 
L 194.697493 168.972324 
L 194.822703 168.972324 
L 194.913204 168.467906 
L 194.968536 168.467906 
L 195.056311 167.627209 
L 195.511777 167.627209 
L 195.511777 167.290931 
L 195.908383 167.290931 
L 195.908383 167.122791 
L 196.030514 167.122791 
L 196.115593 166.618374 
L 196.331388 166.618374 
L 196.436315 165.777677 
L 196.453337 165.777677 
L 196.477018 165.273259 
L 196.593738 165.273259 
L 196.6995 164.096284 
L 196.71896 164.096284 
L 196.770648 163.255588 
L 196.920954 163.255588 
L 196.920954 163.087448 
L 197.042976 163.087448 
L 197.042976 162.919309 
L 197.276954 162.919309 
L 197.38241 162.246752 
L 197.389897 162.246752 
L 197.389897 161.910473 
L 198.247219 161.910473 
L 198.247219 161.742334 
L 198.569861 161.742334 
L 198.569861 161.574195 
L 198.98414 161.574195 
L 199.039234 161.069777 
L 199.161654 161.069777 
L 199.258923 160.733498 
L 199.627728 160.733498 
L 199.673254 160.39722 
L 200.097948 160.39722 
L 200.155536 160.060941 
L 200.551258 160.060941 
L 200.551258 159.892802 
L 200.720249 159.892802 
L 200.814665 159.220244 
L 200.836418 159.220244 
L 200.836418 159.052105 
L 201.054329 159.052105 
L 201.142781 158.547687 
L 201.20952 158.547687 
L 201.20952 158.211409 
L 201.533308 158.211409 
L 201.542841 157.87513 
L 201.749239 157.87513 
L 201.749239 157.706991 
L 202.283197 157.706991 
L 202.377329 157.034434 
L 202.415142 157.034434 
L 202.44598 156.530016 
L 202.715791 156.530016 
L 202.715791 156.361876 
L 203.168328 156.361876 
L 203.204673 155.857459 
L 203.368722 155.857459 
L 203.368722 155.689319 
L 203.708904 155.689319 
L 203.74414 155.184901 
L 204.041987 155.184901 
L 204.114583 154.680483 
L 205.767876 154.680483 
L 205.767876 154.512344 
L 205.920717 154.512344 
L 206.031231 154.176066 
L 206.310533 154.176066 
L 206.365172 153.503508 
L 206.438673 153.503508 
L 206.527217 152.158394 
L 206.780273 152.158394 
L 206.876465 151.653976 
L 206.967476 151.653976 
L 206.967476 151.317698 
L 207.491204 151.317698 
L 207.491204 150.981419 
L 207.871169 150.981419 
L 207.89625 150.64514 
L 208.060823 150.64514 
L 208.060823 150.308862 
L 208.436195 150.308862 
L 208.436195 150.140722 
L 208.571225 150.140722 
L 208.613634 149.804444 
L 208.770856 149.804444 
L 208.806201 149.468165 
L 208.913295 149.468165 
L 208.919539 148.963747 
L 209.732842 148.963747 
L 209.732842 148.795608 
L 210.018351 148.795608 
L 210.018351 148.459329 
L 210.142127 148.459329 
L 210.142127 148.29119 
L 210.263105 148.29119 
L 210.263105 147.954912 
L 210.460574 147.954912 
L 210.546767 147.618633 
L 210.671568 147.618633 
L 210.760339 147.114215 
L 211.037145 147.114215 
L 211.145418 146.609797 
L 211.15562 146.609797 
L 211.15562 146.441658 
L 211.561185 146.441658 
L 211.561185 146.273519 
L 211.919152 146.273519 
L 211.919152 146.105379 
L 212.264274 146.105379 
L 212.264274 145.93724 
L 212.480725 145.93724 
L 212.480725 145.600961 
L 212.824642 145.600961 
L 212.824642 145.432822 
L 213.045087 145.432822 
L 213.151416 144.928404 
L 213.261969 144.928404 
L 213.261969 144.592126 
L 213.689275 144.592126 
L 213.765209 144.087708 
L 213.815911 144.087708 
L 213.815911 143.919568 
L 213.933943 143.919568 
L 213.933943 143.751429 
L 214.052178 143.751429 
L 214.070774 143.415151 
L 214.318367 143.415151 
L 214.406599 143.078872 
L 214.478939 143.078872 
L 214.558513 142.574454 
L 214.623263 142.574454 
L 214.623263 142.406315 
L 214.857055 142.406315 
L 214.857583 142.070036 
L 214.985492 142.070036 
L 214.985492 141.901897 
L 215.302148 141.901897 
L 215.401549 141.565618 
L 215.612042 141.565618 
L 215.612042 141.22934 
L 216.367727 141.22934 
L 216.410152 140.724922 
L 216.89593 140.724922 
L 216.89593 140.556783 
L 217.026218 140.556783 
L 217.026218 140.388643 
L 217.428508 140.388643 
L 217.516891 139.884225 
L 217.721603 139.884225 
L 217.721603 139.547947 
L 217.908322 139.547947 
L 217.929349 139.043529 
L 218.19964 139.043529 
L 218.239668 138.539111 
L 218.566801 138.539111 
L 218.566801 138.370972 
L 219.281754 138.370972 
L 219.281754 138.202832 
L 219.49761 138.202832 
L 219.514216 137.866554 
L 219.635166 137.866554 
L 219.735228 137.193997 
L 219.84632 137.193997 
L 219.84632 137.025857 
L 220.200888 137.025857 
L 220.200888 136.857718 
L 220.724904 136.857718 
L 220.776419 136.3533 
L 220.915945 136.3533 
L 220.915945 136.017022 
L 221.089018 136.017022 
L 221.148172 135.008186 
L 221.383823 135.008186 
L 221.383823 134.840046 
L 221.780136 134.840046 
L 221.780136 134.671907 
L 221.926488 134.671907 
L 221.926488 134.503768 
L 222.444016 134.503768 
L 222.445591 134.167489 
L 223.112095 134.167489 
L 223.112095 133.831211 
L 223.563177 133.831211 
L 223.563177 133.663071 
L 224.038713 133.663071 
L 224.038713 133.326793 
L 224.370352 133.326793 
L 224.429334 132.822375 
L 224.684248 132.822375 
L 224.684248 132.486096 
L 225.206663 132.486096 
L 225.206663 132.149818 
L 225.481334 132.149818 
L 225.481334 131.981678 
L 225.606134 131.981678 
L 225.606134 131.813539 
L 225.813015 131.813539 
L 225.832244 131.140982 
L 225.991298 131.140982 
L 225.991298 130.804703 
L 226.122438 130.804703 
L 226.122438 130.636564 
L 226.377537 130.636564 
L 226.377537 130.468425 
L 226.682825 130.468425 
L 226.682825 130.300285 
L 226.825079 130.300285 
L 226.870009 129.964007 
L 226.964332 129.964007 
L 226.964332 129.795868 
L 227.531411 129.795868 
L 227.531411 129.627728 
L 227.751602 129.627728 
L 227.838826 129.12331 
L 228.009389 129.12331 
L 228.009389 128.955171 
L 228.443735 128.955171 
L 228.443735 128.787032 
L 228.5678 128.787032 
L 228.5678 128.618892 
L 229.190707 128.618892 
L 229.21932 128.114475 
L 229.537609 128.114475 
L 229.537609 127.778196 
L 229.707897 127.778196 
L 229.707897 127.610057 
L 230.120687 127.610057 
L 230.120687 127.441917 
L 230.577466 127.441917 
L 230.577466 127.273778 
L 230.750104 127.273778 
L 230.750104 127.105639 
L 231.10713 127.105639 
L 231.10713 126.937499 
L 231.873431 126.937499 
L 231.873431 126.601221 
L 232.323132 126.601221 
L 232.323132 126.264942 
L 232.606211 126.264942 
L 232.705298 125.760524 
L 232.846512 125.760524 
L 232.926394 125.424246 
L 233.033346 125.424246 
L 233.033346 125.256107 
L 233.145019 125.256107 
L 233.145019 124.919828 
L 233.425599 124.919828 
L 233.425599 124.751689 
L 338.688 124.751689 
L 338.688 124.751689 
" style="fill:none;stroke:#000080;stroke-linecap:square;stroke-width:1.5;"/>
   </g>
   <g id="line2d_36">
    <defs>
     <path d="M 0 6 
C 1.591219 6 3.117479 5.367802 4.242641 4.242641 
C 5.367802 3.117479 6 1.591219 6 0 
C 6 -1.591219 5.367802 -3.117479 4.242641 -4.242641 
C 3.117479 -5.367802 1.591219 -6 0 -6 
C -1.591219 -6 -3.117479 -5.367802 -4.242641 -4.242641 
C -5.367802 -3.117479 -6 -1.591219 -6 0 
C -6 1.591219 -5.367802 3.117479 -4.242641 4.242641 
C -3.117479 5.367802 -1.591219 6 0 6 
z
" id="m5da9fc5cb4" style="stroke:#000080;stroke-width:1.5;"/>
    </defs>
    <g>
     <use style="fill-opacity:0;stroke:#000080;stroke-width:1.5;" x="107.06042" xlink:href="#m5da9fc5cb4" y="276.245195"/>
     <use style="fill-opacity:0;stroke:#000080;stroke-width:1.5;" x="159.017667" xlink:href="#m5da9fc5cb4" y="224.458292"/>
     <use style="fill-opacity:0;stroke:#000080;stroke-width:1.5;" x="206.527217" xlink:href="#m5da9fc5cb4" y="152.158394"/>
     <use style="fill-opacity:0;stroke:#000080;stroke-width:1.5;" x="233.425599" xlink:href="#m5da9fc5cb4" y="124.751689"/>
     <use style="fill-opacity:0;stroke:#000080;stroke-width:1.5;" x="233.425599" xlink:href="#m5da9fc5cb4" y="124.751689"/>
     <use style="fill-opacity:0;stroke:#000080;stroke-width:1.5;" x="338.688" xlink:href="#m5da9fc5cb4" y="124.751689"/>
    </g>
   </g>
   <g id="line2d_37">
    <path style="fill:none;stroke:#000080;stroke-linecap:square;stroke-width:1.5;"/>
    <g/>
   </g>
   <g id="line2d_38">
    <path clip-path="url(#p87ccb64406)" d="M 234.201968 124.751689 
" style="fill:none;stroke:#000080;stroke-linecap:square;stroke-width:1.5;"/>
    <defs>
     <path d="M -12 12 
L 12 -12 
M -12 -12 
L 12 12 
" id="m92a87fc82b" style="stroke:#000080;"/>
    </defs>
    <g clip-path="url(#p87ccb64406)">
     <use style="fill:#000080;stroke:#000080;" x="234.201968" xlink:href="#m92a87fc82b" y="124.751689"/>
    </g>
   </g>
   <g id="line2d_39">
    <defs>
     <path d="M 0 1.5 
C 0.397805 1.5 0.77937 1.341951 1.06066 1.06066 
C 1.341951 0.77937 1.5 0.397805 1.5 0 
C 1.5 -0.397805 1.341951 -0.77937 1.06066 -1.06066 
C 0.77937 -1.341951 0.397805 -1.5 0 -1.5 
C -0.397805 -1.5 -0.77937 -1.341951 -1.06066 -1.06066 
C -1.341951 -0.77937 -1.5 -0.397805 -1.5 0 
C -1.5 0.397805 -1.341951 0.77937 -1.06066 1.06066 
C -0.77937 1.341951 -0.397805 1.5 0 1.5 
z
" id="mfce640fb11" style="stroke:#ff00ff;"/>
    </defs>
    <g>
     <use style="fill:#ff00ff;stroke:#ff00ff;" x="233.67893" xlink:href="#mfce640fb11" y="268.174509"/>
     <use style="fill:#ff00ff;stroke:#ff00ff;" x="233.67893" xlink:href="#mfce640fb11" y="268.174509"/>
    </g>
   </g>
   <g id="line2d_40">
    <path d="M 59.262141 298.944 
L 59.262141 287.342389 
L 95.918017 287.342389 
L 95.918017 287.00611 
L 99.886816 287.00611 
L 99.886816 286.837971 
L 100.934985 286.837971 
L 100.934985 286.333553 
L 101.151625 286.333553 
L 101.151625 286.165413 
L 103.747386 286.165413 
L 103.747386 285.997274 
L 104.474128 285.997274 
L 104.474128 285.829135 
L 106.168594 285.829135 
L 106.168594 285.660996 
L 106.646412 285.660996 
L 106.646412 285.492856 
L 106.957836 285.492856 
L 106.957836 285.324717 
L 107.464828 285.324717 
L 107.564481 284.988438 
L 108.577836 284.988438 
L 108.577836 284.820299 
L 108.764355 284.820299 
L 108.856871 284.48402 
L 108.994731 284.48402 
L 108.994731 284.315881 
L 109.131511 284.315881 
L 109.131511 284.147742 
L 110.941652 284.147742 
L 110.941652 283.979603 
L 111.185562 283.979603 
L 111.185562 283.811463 
L 111.819788 283.811463 
L 111.819788 283.643324 
L 113.382559 283.643324 
L 113.453595 283.307045 
L 113.699967 283.307045 
L 113.699967 283.138906 
L 116.141872 283.138906 
L 116.141872 282.970767 
L 116.562116 282.970767 
L 116.562116 282.634488 
L 118.602981 282.634488 
L 118.602981 282.466349 
L 120.286695 282.466349 
L 120.286695 282.29821 
L 122.699028 282.29821 
L 122.699028 282.13007 
L 122.823744 282.13007 
L 122.823744 281.961931 
L 123.00916 281.961931 
L 123.00916 281.793792 
L 127.357715 281.793792 
L 127.357715 281.625652 
L 127.907896 281.625652 
L 127.907896 281.457513 
L 128.545989 281.457513 
L 128.545989 281.289374 
L 129.672427 281.289374 
L 129.672427 281.121235 
L 131.004728 281.121235 
L 131.004728 280.784956 
L 137.098751 280.784956 
L 137.098751 280.616817 
L 138.69516 280.616817 
L 138.703494 280.280538 
L 139.691499 280.280538 
L 139.691499 280.112399 
L 140.900458 280.112399 
L 140.900458 279.944259 
L 141.278324 279.944259 
L 141.278324 279.77612 
L 142.311031 279.77612 
L 142.311031 279.607981 
L 142.466167 279.607981 
L 142.466167 279.439842 
L 148.035027 279.439842 
L 148.035027 279.271702 
L 148.629823 279.271702 
L 148.629823 279.103563 
L 154.866947 279.103563 
L 154.866947 278.935424 
L 156.156981 278.935424 
L 156.156981 278.767284 
L 156.86227 278.767284 
L 156.86227 278.599145 
L 157.868057 278.599145 
L 157.906885 278.262867 
L 160.989209 278.262867 
L 160.989209 278.094727 
L 161.676583 278.094727 
L 161.676583 277.926588 
L 169.925477 277.926588 
L 169.925477 277.758449 
L 170.94899 277.758449 
L 170.94899 277.42217 
L 174.326753 277.42217 
L 174.326753 277.254031 
L 176.653823 277.254031 
L 176.653823 277.085891 
L 177.179109 277.085891 
L 177.179109 276.917752 
L 178.370547 276.917752 
L 178.370547 276.749613 
L 179.978699 276.749613 
L 179.978699 276.581474 
L 180.115686 276.581474 
L 180.115686 276.413334 
L 181.244389 276.413334 
L 181.244389 276.077056 
L 182.257897 276.077056 
L 182.257897 275.908916 
L 184.031012 275.908916 
L 184.031012 275.740777 
L 192.558228 275.740777 
L 192.558228 275.572638 
L 193.252987 275.572638 
L 193.252987 275.06822 
L 194.376371 275.06822 
L 194.376371 274.900081 
L 195.691065 274.900081 
L 195.793911 274.563802 
L 195.941264 274.563802 
L 195.941264 274.227523 
L 196.19286 274.227523 
L 196.19286 274.059384 
L 197.06059 274.059384 
L 197.06059 273.891245 
L 198.565017 273.891245 
L 198.565017 273.723105 
L 200.177635 273.723105 
L 200.177635 273.554966 
L 200.853894 273.554966 
L 200.853894 273.386827 
L 204.609523 273.386827 
L 204.609523 273.218688 
L 205.045756 273.218688 
L 205.045756 272.882409 
L 207.112013 272.882409 
L 207.112013 272.54613 
L 210.007043 272.54613 
L 210.007043 272.377991 
L 210.381608 272.377991 
L 210.381608 272.209852 
L 212.034539 272.209852 
L 212.034539 271.873573 
L 212.164847 271.873573 
L 212.164847 271.705434 
L 213.033468 271.705434 
L 213.033468 271.369155 
L 214.025135 271.369155 
L 214.025135 271.201016 
L 214.503562 271.201016 
L 214.503562 271.032877 
L 214.617688 271.032877 
L 214.617688 270.864737 
L 214.86213 270.864737 
L 214.86213 270.528459 
L 219.533314 270.528459 
L 219.533314 270.36032 
L 224.171321 270.36032 
L 224.171321 270.19218 
L 226.030237 270.19218 
L 226.030237 270.024041 
L 230.243964 270.024041 
L 230.243964 269.855902 
L 231.476577 269.855902 
L 231.476577 269.687762 
L 232.143958 269.687762 
L 232.217857 269.015205 
L 232.49633 269.015205 
L 232.49633 268.847066 
L 232.964851 268.847066 
L 232.964851 268.678927 
L 233.434968 268.678927 
L 233.434968 268.342648 
L 233.67893 268.342648 
L 233.67893 268.174509 
L 338.688 268.174509 
L 338.688 268.174509 
" style="fill:none;stroke:#ff00ff;stroke-linecap:square;stroke-width:1.5;"/>
   </g>
   <g id="line2d_41">
    <defs>
     <path d="M 0 8.485281 
L 5.091169 0 
L 0 -8.485281 
L -5.091169 0 
z
" id="me40024e9d5" style="stroke:#ff00ff;stroke-linejoin:miter;stroke-width:1.5;"/>
    </defs>
    <g>
     <use style="fill-opacity:0;stroke:#ff00ff;stroke-linejoin:miter;stroke-width:1.5;" x="109.131511" xlink:href="#me40024e9d5" y="284.147742"/>
     <use style="fill-opacity:0;stroke:#ff00ff;stroke-linejoin:miter;stroke-width:1.5;" x="219.533314" xlink:href="#me40024e9d5" y="270.36032"/>
     <use style="fill-opacity:0;stroke:#ff00ff;stroke-linejoin:miter;stroke-width:1.5;" x="233.67893" xlink:href="#me40024e9d5" y="268.342648"/>
     <use style="fill-opacity:0;stroke:#ff00ff;stroke-linejoin:miter;stroke-width:1.5;" x="233.67893" xlink:href="#me40024e9d5" y="268.174509"/>
     <use style="fill-opacity:0;stroke:#ff00ff;stroke-linejoin:miter;stroke-width:1.5;" x="338.688" xlink:href="#me40024e9d5" y="268.174509"/>
    </g>
   </g>
   <g id="line2d_42">
    <path style="fill:none;stroke:#ff00ff;stroke-linecap:square;stroke-width:1.5;"/>
    <g/>
   </g>
   <g id="line2d_43">
    <path clip-path="url(#p87ccb64406)" d="M 234.201236 268.174509 
" style="fill:none;stroke:#ff00ff;stroke-linecap:square;stroke-width:1.5;"/>
    <defs>
     <path d="M -12 12 
L 12 -12 
M -12 -12 
L 12 12 
" id="m35deade5be" style="stroke:#ff00ff;"/>
    </defs>
    <g clip-path="url(#p87ccb64406)">
     <use style="fill:#ff00ff;stroke:#ff00ff;" x="234.201236" xlink:href="#m35deade5be" y="268.174509"/>
    </g>
   </g>
   <g id="line2d_44">
    <path d="M 338.688 268.174509 
L 369.60768 293.092752 
" style="fill:none;stroke:#ff00ff;stroke-linecap:square;stroke-width:1.5;"/>
    <g>
     <use style="fill-opacity:0;stroke:#ff00ff;stroke-linejoin:miter;stroke-width:1.5;" x="338.688" xlink:href="#me40024e9d5" y="268.174509"/>
     <use style="fill-opacity:0;stroke:#ff00ff;stroke-linejoin:miter;stroke-width:1.5;" x="369.60768" xlink:href="#me40024e9d5" y="293.092752"/>
    </g>
   </g>
   <g id="line2d_45">
    <path d="M 338.688 124.751689 
L 369.60768 152.662812 
" style="fill:none;stroke:#000080;stroke-linecap:square;stroke-width:1.5;"/>
    <g>
     <use style="fill-opacity:0;stroke:#000080;stroke-width:1.5;" x="338.688" xlink:href="#m5da9fc5cb4" y="124.751689"/>
     <use style="fill-opacity:0;stroke:#000080;stroke-width:1.5;" x="369.60768" xlink:href="#m5da9fc5cb4" y="152.662812"/>
    </g>
   </g>
   <g id="line2d_46">
    <path d="M 338.688 298.944 
L 338.688 6.381624 
" style="fill:none;stroke:#000000;stroke-linecap:square;stroke-width:1.5;"/>
   </g>
   <g id="patch_3">
    <path d="M 57.6 298.944 
L 57.6 3.456 
" style="fill:none;stroke:#000000;stroke-linecap:square;stroke-linejoin:miter;stroke-width:0.8;"/>
   </g>
   <g id="patch_4">
    <path d="M 338.688 298.944 
L 338.688 3.456 
" style="fill:none;stroke:#000000;stroke-linecap:square;stroke-linejoin:miter;stroke-width:0.8;"/>
   </g>
   <g id="patch_5">
    <path d="M 57.6 298.944 
L 338.688 298.944 
" style="fill:none;stroke:#000000;stroke-linecap:square;stroke-linejoin:miter;stroke-width:0.8;"/>
   </g>
   <g id="patch_6">
    <path d="M 57.6 3.456 
L 338.688 3.456 
" style="fill:none;stroke:#000000;stroke-linecap:square;stroke-linejoin:miter;stroke-width:0.8;"/>
   </g>
   <g id="text_13">
    <!-- MultiGLOD -->
    <g transform="translate(375.22944 297.78369)scale(0.17 -0.17)">
     <defs>
      <path d="M 628 4666 
L 1569 4666 
L 2759 1491 
L 3956 4666 
L 4897 4666 
L 4897 0 
L 4281 0 
L 4281 4097 
L 3078 897 
L 2444 897 
L 1241 4097 
L 1241 0 
L 628 0 
L 628 4666 
z
" id="DejaVuSans-4d" transform="scale(0.015625)"/>
      <path d="M 3809 666 
L 3809 1919 
L 2778 1919 
L 2778 2438 
L 4434 2438 
L 4434 434 
Q 4069 175 3628 42 
Q 3188 -91 2688 -91 
Q 1594 -91 976 548 
Q 359 1188 359 2328 
Q 359 3472 976 4111 
Q 1594 4750 2688 4750 
Q 3144 4750 3555 4637 
Q 3966 4525 4313 4306 
L 4313 3634 
Q 3963 3931 3569 4081 
Q 3175 4231 2741 4231 
Q 1884 4231 1454 3753 
Q 1025 3275 1025 2328 
Q 1025 1384 1454 906 
Q 1884 428 2741 428 
Q 3075 428 3337 486 
Q 3600 544 3809 666 
z
" id="DejaVuSans-47" transform="scale(0.015625)"/>
      <path d="M 628 4666 
L 1259 4666 
L 1259 531 
L 3531 531 
L 3531 0 
L 628 0 
L 628 4666 
z
" id="DejaVuSans-4c" transform="scale(0.015625)"/>
      <path d="M 2522 4238 
Q 1834 4238 1429 3725 
Q 1025 3213 1025 2328 
Q 1025 1447 1429 934 
Q 1834 422 2522 422 
Q 3209 422 3611 934 
Q 4013 1447 4013 2328 
Q 4013 3213 3611 3725 
Q 3209 4238 2522 4238 
z
M 2522 4750 
Q 3503 4750 4090 4092 
Q 4678 3434 4678 2328 
Q 4678 1225 4090 567 
Q 3503 -91 2522 -91 
Q 1538 -91 948 565 
Q 359 1222 359 2328 
Q 359 3434 948 4092 
Q 1538 4750 2522 4750 
z
" id="DejaVuSans-4f" transform="scale(0.015625)"/>
      <path d="M 1259 4147 
L 1259 519 
L 2022 519 
Q 2988 519 3436 956 
Q 3884 1394 3884 2338 
Q 3884 3275 3436 3711 
Q 2988 4147 2022 4147 
L 1259 4147 
z
M 628 4666 
L 1925 4666 
Q 3281 4666 3915 4102 
Q 4550 3538 4550 2338 
Q 4550 1131 3912 565 
Q 3275 0 1925 0 
L 628 0 
L 628 4666 
z
" id="DejaVuSans-44" transform="scale(0.015625)"/>
     </defs>
     <use xlink:href="#DejaVuSans-4d"/>
     <use x="86.279297" xlink:href="#DejaVuSans-75"/>
     <use x="149.658203" xlink:href="#DejaVuSans-6c"/>
     <use x="177.441406" xlink:href="#DejaVuSans-74"/>
     <use x="216.650391" xlink:href="#DejaVuSans-69"/>
     <use x="244.433594" xlink:href="#DejaVuSans-47"/>
     <use x="321.923828" xlink:href="#DejaVuSans-4c"/>
     <use x="374.011719" xlink:href="#DejaVuSans-4f"/>
     <use x="452.722656" xlink:href="#DejaVuSans-44"/>
    </g>
   </g>
   <g id="text_14">
    <!-- DMS Brock -->
    <g transform="translate(375.22944 157.353749)scale(0.17 -0.17)">
     <defs>
      <path d="M 3425 4513 
L 3425 3897 
Q 3066 4069 2747 4153 
Q 2428 4238 2131 4238 
Q 1616 4238 1336 4038 
Q 1056 3838 1056 3469 
Q 1056 3159 1242 3001 
Q 1428 2844 1947 2747 
L 2328 2669 
Q 3034 2534 3370 2195 
Q 3706 1856 3706 1288 
Q 3706 609 3251 259 
Q 2797 -91 1919 -91 
Q 1588 -91 1214 -16 
Q 841 59 441 206 
L 441 856 
Q 825 641 1194 531 
Q 1563 422 1919 422 
Q 2459 422 2753 634 
Q 3047 847 3047 1241 
Q 3047 1584 2836 1778 
Q 2625 1972 2144 2069 
L 1759 2144 
Q 1053 2284 737 2584 
Q 422 2884 422 3419 
Q 422 4038 858 4394 
Q 1294 4750 2059 4750 
Q 2388 4750 2728 4690 
Q 3069 4631 3425 4513 
z
" id="DejaVuSans-53" transform="scale(0.015625)"/>
      <path d="M 1259 2228 
L 1259 519 
L 2272 519 
Q 2781 519 3026 730 
Q 3272 941 3272 1375 
Q 3272 1813 3026 2020 
Q 2781 2228 2272 2228 
L 1259 2228 
z
M 1259 4147 
L 1259 2741 
L 2194 2741 
Q 2656 2741 2882 2914 
Q 3109 3088 3109 3444 
Q 3109 3797 2882 3972 
Q 2656 4147 2194 4147 
L 1259 4147 
z
M 628 4666 
L 2241 4666 
Q 2963 4666 3353 4366 
Q 3744 4066 3744 3513 
Q 3744 3084 3544 2831 
Q 3344 2578 2956 2516 
Q 3422 2416 3680 2098 
Q 3938 1781 3938 1306 
Q 3938 681 3513 340 
Q 3088 0 2303 0 
L 628 0 
L 628 4666 
z
" id="DejaVuSans-42" transform="scale(0.015625)"/>
      <path d="M 581 4863 
L 1159 4863 
L 1159 1991 
L 2875 3500 
L 3609 3500 
L 1753 1863 
L 3688 0 
L 2938 0 
L 1159 1709 
L 1159 0 
L 581 0 
L 581 4863 
z
" id="DejaVuSans-6b" transform="scale(0.015625)"/>
     </defs>
     <use xlink:href="#DejaVuSans-44"/>
     <use x="77.001953" xlink:href="#DejaVuSans-4d"/>
     <use x="163.28125" xlink:href="#DejaVuSans-53"/>
     <use x="226.757812" xlink:href="#DejaVuSans-20"/>
     <use x="258.544922" xlink:href="#DejaVuSans-42"/>
     <use x="327.148438" xlink:href="#DejaVuSans-72"/>
     <use x="366.011719" xlink:href="#DejaVuSans-6f"/>
     <use x="427.193359" xlink:href="#DejaVuSans-63"/>
     <use x="482.173828" xlink:href="#DejaVuSans-6b"/>
    </g>
   </g>
   <g id="text_15">
    <!-- best 2016 -->
    <g transform="translate(375.22944 16.923809)scale(0.17 -0.17)">
     <defs>
      <path d="M 3116 1747 
Q 3116 2381 2855 2742 
Q 2594 3103 2138 3103 
Q 1681 3103 1420 2742 
Q 1159 2381 1159 1747 
Q 1159 1113 1420 752 
Q 1681 391 2138 391 
Q 2594 391 2855 752 
Q 3116 1113 3116 1747 
z
M 1159 2969 
Q 1341 3281 1617 3432 
Q 1894 3584 2278 3584 
Q 2916 3584 3314 3078 
Q 3713 2572 3713 1747 
Q 3713 922 3314 415 
Q 2916 -91 2278 -91 
Q 1894 -91 1617 61 
Q 1341 213 1159 525 
L 1159 0 
L 581 0 
L 581 4863 
L 1159 4863 
L 1159 2969 
z
" id="DejaVuSans-62" transform="scale(0.015625)"/>
     </defs>
     <use xlink:href="#DejaVuSans-62"/>
     <use x="63.476562" xlink:href="#DejaVuSans-65"/>
     <use x="125" xlink:href="#DejaVuSans-73"/>
     <use x="177.099609" xlink:href="#DejaVuSans-74"/>
     <use x="216.308594" xlink:href="#DejaVuSans-20"/>
     <use x="248.095703" xlink:href="#DejaVuSans-32"/>
     <use x="311.71875" xlink:href="#DejaVuSans-30"/>
     <use x="375.341797" xlink:href="#DejaVuSans-31"/>
     <use x="438.964844" xlink:href="#DejaVuSans-36"/>
    </g>
   </g>
   <g id="text_16">
    <!-- bbob-biobj f20, f21, f28, 20-D -->
    <g transform="translate(60.41088 14.161286)scale(0.102 -0.102)">
     <defs>
      <path d="M 603 3500 
L 1178 3500 
L 1178 -63 
Q 1178 -731 923 -1031 
Q 669 -1331 103 -1331 
L -116 -1331 
L -116 -844 
L 38 -844 
Q 366 -844 484 -692 
Q 603 -541 603 -63 
L 603 3500 
z
M 603 4863 
L 1178 4863 
L 1178 4134 
L 603 4134 
L 603 4863 
z
" id="DejaVuSans-6a" transform="scale(0.015625)"/>
     </defs>
     <use xlink:href="#DejaVuSans-62"/>
     <use x="63.476562" xlink:href="#DejaVuSans-62"/>
     <use x="126.953125" xlink:href="#DejaVuSans-6f"/>
     <use x="188.134766" xlink:href="#DejaVuSans-62"/>
     <use x="251.611328" xlink:href="#DejaVuSans-2d"/>
     <use x="287.695312" xlink:href="#DejaVuSans-62"/>
     <use x="351.171875" xlink:href="#DejaVuSans-69"/>
     <use x="378.955078" xlink:href="#DejaVuSans-6f"/>
     <use x="440.136719" xlink:href="#DejaVuSans-62"/>
     <use x="503.613281" xlink:href="#DejaVuSans-6a"/>
     <use x="531.396484" xlink:href="#DejaVuSans-20"/>
     <use x="563.183594" xlink:href="#DejaVuSans-66"/>
     <use x="598.388672" xlink:href="#DejaVuSans-32"/>
     <use x="662.011719" xlink:href="#DejaVuSans-30"/>
     <use x="725.634766" xlink:href="#DejaVuSans-2c"/>
     <use x="757.421875" xlink:href="#DejaVuSans-20"/>
     <use x="789.208984" xlink:href="#DejaVuSans-66"/>
     <use x="824.414062" xlink:href="#DejaVuSans-32"/>
     <use x="888.037109" xlink:href="#DejaVuSans-31"/>
     <use x="951.660156" xlink:href="#DejaVuSans-2c"/>
     <use x="983.447266" xlink:href="#DejaVuSans-20"/>
     <use x="1015.234375" xlink:href="#DejaVuSans-66"/>
     <use x="1050.439453" xlink:href="#DejaVuSans-32"/>
     <use x="1114.0625" xlink:href="#DejaVuSans-38"/>
     <use x="1177.685547" xlink:href="#DejaVuSans-2c"/>
     <use x="1209.472656" xlink:href="#DejaVuSans-20"/>
     <use x="1241.259766" xlink:href="#DejaVuSans-32"/>
     <use x="1304.882812" xlink:href="#DejaVuSans-30"/>
     <use x="1368.505859" xlink:href="#DejaVuSans-2d"/>
     <use x="1404.589844" xlink:href="#DejaVuSans-44"/>
    </g>
    <!-- 58 targets: 1..-1.0e-4 -->
    <g transform="translate(60.41088 25.583055)scale(0.102 -0.102)">
     <defs>
      <path d="M 691 4666 
L 3169 4666 
L 3169 4134 
L 1269 4134 
L 1269 2991 
Q 1406 3038 1543 3061 
Q 1681 3084 1819 3084 
Q 2600 3084 3056 2656 
Q 3513 2228 3513 1497 
Q 3513 744 3044 326 
Q 2575 -91 1722 -91 
Q 1428 -91 1123 -41 
Q 819 9 494 109 
L 494 744 
Q 775 591 1075 516 
Q 1375 441 1709 441 
Q 2250 441 2565 725 
Q 2881 1009 2881 1497 
Q 2881 1984 2565 2268 
Q 2250 2553 1709 2553 
Q 1456 2553 1204 2497 
Q 953 2441 691 2322 
L 691 4666 
z
" id="DejaVuSans-35" transform="scale(0.015625)"/>
      <path d="M 750 794 
L 1409 794 
L 1409 0 
L 750 0 
L 750 794 
z
M 750 3309 
L 1409 3309 
L 1409 2516 
L 750 2516 
L 750 3309 
z
" id="DejaVuSans-3a" transform="scale(0.015625)"/>
     </defs>
     <use xlink:href="#DejaVuSans-35"/>
     <use x="63.623047" xlink:href="#DejaVuSans-38"/>
     <use x="127.246094" xlink:href="#DejaVuSans-20"/>
     <use x="159.033203" xlink:href="#DejaVuSans-74"/>
     <use x="198.242188" xlink:href="#DejaVuSans-61"/>
     <use x="259.521484" xlink:href="#DejaVuSans-72"/>
     <use x="298.884766" xlink:href="#DejaVuSans-67"/>
     <use x="362.361328" xlink:href="#DejaVuSans-65"/>
     <use x="423.884766" xlink:href="#DejaVuSans-74"/>
     <use x="463.09375" xlink:href="#DejaVuSans-73"/>
     <use x="515.193359" xlink:href="#DejaVuSans-3a"/>
     <use x="548.884766" xlink:href="#DejaVuSans-20"/>
     <use x="580.671875" xlink:href="#DejaVuSans-31"/>
     <use x="644.294922" xlink:href="#DejaVuSans-2e"/>
     <use x="676.082031" xlink:href="#DejaVuSans-2e"/>
     <use x="707.869141" xlink:href="#DejaVuSans-2d"/>
     <use x="743.953125" xlink:href="#DejaVuSans-31"/>
     <use x="807.576172" xlink:href="#DejaVuSans-2e"/>
     <use x="839.363281" xlink:href="#DejaVuSans-30"/>
     <use x="902.986328" xlink:href="#DejaVuSans-65"/>
     <use x="964.509766" xlink:href="#DejaVuSans-2d"/>
     <use x="1000.59375" xlink:href="#DejaVuSans-34"/>
    </g>
    <!-- 10 instances -->
    <g transform="translate(60.41088 37.004824)scale(0.102 -0.102)">
     <use xlink:href="#DejaVuSans-31"/>
     <use x="63.623047" xlink:href="#DejaVuSans-30"/>
     <use x="127.246094" xlink:href="#DejaVuSans-20"/>
     <use x="159.033203" xlink:href="#DejaVuSans-69"/>
     <use x="186.816406" xlink:href="#DejaVuSans-6e"/>
     <use x="250.195312" xlink:href="#DejaVuSans-73"/>
     <use x="302.294922" xlink:href="#DejaVuSans-74"/>
     <use x="341.503906" xlink:href="#DejaVuSans-61"/>
     <use x="402.783203" xlink:href="#DejaVuSans-6e"/>
     <use x="466.162109" xlink:href="#DejaVuSans-63"/>
     <use x="521.142578" xlink:href="#DejaVuSans-65"/>
     <use x="582.666016" xlink:href="#DejaVuSans-73"/>
    </g>
   </g>
   <g id="text_17">
    <!-- v2.4.1.1, hv-hash=ff0e71e8cd978373 -->
    <g style="fill:#808080;" transform="translate(103.108062 293.909432)scale(0.1 -0.1)">
     <defs>
      <path d="M 3513 2113 
L 3513 0 
L 2938 0 
L 2938 2094 
Q 2938 2591 2744 2837 
Q 2550 3084 2163 3084 
Q 1697 3084 1428 2787 
Q 1159 2491 1159 1978 
L 1159 0 
L 581 0 
L 581 4863 
L 1159 4863 
L 1159 2956 
Q 1366 3272 1645 3428 
Q 1925 3584 2291 3584 
Q 2894 3584 3203 3211 
Q 3513 2838 3513 2113 
z
" id="DejaVuSans-68" transform="scale(0.015625)"/>
      <path d="M 678 2906 
L 4684 2906 
L 4684 2381 
L 678 2381 
L 678 2906 
z
M 678 1631 
L 4684 1631 
L 4684 1100 
L 678 1100 
L 678 1631 
z
" id="DejaVuSans-3d" transform="scale(0.015625)"/>
      <path d="M 525 4666 
L 3525 4666 
L 3525 4397 
L 1831 0 
L 1172 0 
L 2766 4134 
L 525 4134 
L 525 4666 
z
" id="DejaVuSans-37" transform="scale(0.015625)"/>
      <path d="M 703 97 
L 703 672 
Q 941 559 1184 500 
Q 1428 441 1663 441 
Q 2288 441 2617 861 
Q 2947 1281 2994 2138 
Q 2813 1869 2534 1725 
Q 2256 1581 1919 1581 
Q 1219 1581 811 2004 
Q 403 2428 403 3163 
Q 403 3881 828 4315 
Q 1253 4750 1959 4750 
Q 2769 4750 3195 4129 
Q 3622 3509 3622 2328 
Q 3622 1225 3098 567 
Q 2575 -91 1691 -91 
Q 1453 -91 1209 -44 
Q 966 3 703 97 
z
M 1959 2075 
Q 2384 2075 2632 2365 
Q 2881 2656 2881 3163 
Q 2881 3666 2632 3958 
Q 2384 4250 1959 4250 
Q 1534 4250 1286 3958 
Q 1038 3666 1038 3163 
Q 1038 2656 1286 2365 
Q 1534 2075 1959 2075 
z
" id="DejaVuSans-39" transform="scale(0.015625)"/>
      <path d="M 2597 2516 
Q 3050 2419 3304 2112 
Q 3559 1806 3559 1356 
Q 3559 666 3084 287 
Q 2609 -91 1734 -91 
Q 1441 -91 1130 -33 
Q 819 25 488 141 
L 488 750 
Q 750 597 1062 519 
Q 1375 441 1716 441 
Q 2309 441 2620 675 
Q 2931 909 2931 1356 
Q 2931 1769 2642 2001 
Q 2353 2234 1838 2234 
L 1294 2234 
L 1294 2753 
L 1863 2753 
Q 2328 2753 2575 2939 
Q 2822 3125 2822 3475 
Q 2822 3834 2567 4026 
Q 2313 4219 1838 4219 
Q 1578 4219 1281 4162 
Q 984 4106 628 3988 
L 628 4550 
Q 988 4650 1302 4700 
Q 1616 4750 1894 4750 
Q 2613 4750 3031 4423 
Q 3450 4097 3450 3541 
Q 3450 3153 3228 2886 
Q 3006 2619 2597 2516 
z
" id="DejaVuSans-33" transform="scale(0.015625)"/>
     </defs>
     <use xlink:href="#DejaVuSans-76"/>
     <use x="59.179688" xlink:href="#DejaVuSans-32"/>
     <use x="122.802734" xlink:href="#DejaVuSans-2e"/>
     <use x="154.589844" xlink:href="#DejaVuSans-34"/>
     <use x="218.212891" xlink:href="#DejaVuSans-2e"/>
     <use x="250" xlink:href="#DejaVuSans-31"/>
     <use x="313.623047" xlink:href="#DejaVuSans-2e"/>
     <use x="345.410156" xlink:href="#DejaVuSans-31"/>
     <use x="409.033203" xlink:href="#DejaVuSans-2c"/>
     <use x="440.820312" xlink:href="#DejaVuSans-20"/>
     <use x="472.607422" xlink:href="#DejaVuSans-68"/>
     <use x="535.986328" xlink:href="#DejaVuSans-76"/>
     <use x="592.541016" xlink:href="#DejaVuSans-2d"/>
     <use x="628.625" xlink:href="#DejaVuSans-68"/>
     <use x="692.003906" xlink:href="#DejaVuSans-61"/>
     <use x="753.283203" xlink:href="#DejaVuSans-73"/>
     <use x="805.382812" xlink:href="#DejaVuSans-68"/>
     <use x="868.761719" xlink:href="#DejaVuSans-3d"/>
     <use x="952.550781" xlink:href="#DejaVuSans-66"/>
     <use x="987.755859" xlink:href="#DejaVuSans-66"/>
     <use x="1022.960938" xlink:href="#DejaVuSans-30"/>
     <use x="1086.583984" xlink:href="#DejaVuSans-65"/>
     <use x="1148.107422" xlink:href="#DejaVuSans-37"/>
     <use x="1211.730469" xlink:href="#DejaVuSans-31"/>
     <use x="1275.353516" xlink:href="#DejaVuSans-65"/>
     <use x="1336.876953" xlink:href="#DejaVuSans-38"/>
     <use x="1400.5" xlink:href="#DejaVuSans-63"/>
     <use x="1455.480469" xlink:href="#DejaVuSans-64"/>
     <use x="1518.957031" xlink:href="#DejaVuSans-39"/>
     <use x="1582.580078" xlink:href="#DejaVuSans-37"/>
     <use x="1646.203125" xlink:href="#DejaVuSans-38"/>
     <use x="1709.826172" xlink:href="#DejaVuSans-33"/>
     <use x="1773.449219" xlink:href="#DejaVuSans-37"/>
     <use x="1837.072266" xlink:href="#DejaVuSans-33"/>
    </g>
   </g>
  </g>
 </g>
 <defs>
  <clipPath id="p87ccb64406">
   <rect height="295.488" width="281.088" x="57.6" y="3.456"/>
  </clipPath>
 </defs>
</svg>
