<?xml version="1.0" encoding="utf-8" standalone="no"?>
<!DOCTYPE svg PUBLIC "-//W3C//DTD SVG 1.1//EN"
  "http://www.w3.org/Graphics/SVG/1.1/DTD/svg11.dtd">
<svg height="345.6pt" version="1.1" viewBox="0 0 460.8 345.6" width="460.8pt" xmlns="http://www.w3.org/2000/svg" xmlns:xlink="http://www.w3.org/1999/xlink">
 <metadata>
  <rdf:RDF xmlns:cc="http://creativecommons.org/ns#" xmlns:dc="http://purl.org/dc/elements/1.1/" xmlns:rdf="http://www.w3.org/1999/02/22-rdf-syntax-ns#">
   <cc:Work>
    <dc:type rdf:resource="http://purl.org/dc/dcmitype/StillImage"/>
    <dc:date>2022-03-29T13:08:16.000329</dc:date>
    <dc:format>image/svg+xml</dc:format>
    <dc:creator>
     <cc:Agent>
      <dc:title>Matplotlib v3.4.3, https://matplotlib.org/</dc:title>
     </cc:Agent>
    </dc:creator>
   </cc:Work>
  </rdf:RDF>
 </metadata>
 <defs>
  <style type="text/css">*{stroke-linecap:butt;stroke-linejoin:round;}</style>
 </defs>
 <g id="figure_1">
  <g id="patch_1">
   <path d="M 0 345.6 
L 460.8 345.6 
L 460.8 0 
L 0 0 
z
" style="fill:#ffffff;"/>
  </g>
  <g id="axes_1">
   <g id="patch_2">
    <path d="M 57.6 298.944 
L 338.688 298.944 
L 338.688 3.456 
L 57.6 3.456 
z
" style="fill:#ffffff;"/>
   </g>
   <g id="line2d_1">
    <path d="M 29.53256 298.944 
L 29.53256 297.262607 
L 36.60358 297.262607 
L 36.60358 292.218428 
L 45.512012 292.218428 
L 45.512012 290.537035 
L 53.708537 290.537035 
L 53.708537 287.174249 
L 60.779557 287.174249 
L 60.779557 285.492856 
L 65.796525 285.492856 
L 65.796525 280.448677 
L 74.263433 280.448677 
L 74.263433 277.085891 
L 77.884514 277.085891 
L 77.884514 275.404498 
L 80.881459 275.404498 
L 80.881459 272.041713 
L 84.955534 272.041713 
L 84.955534 268.678927 
L 88.255778 268.678927 
L 88.255778 263.634748 
L 95.326798 263.634748 
L 95.326798 260.271962 
L 100.493461 260.271962 
L 100.493461 256.909176 
L 102.989037 256.909176 
L 102.989037 253.54639 
L 109.222105 253.54639 
L 109.222105 251.864997 
L 124.519744 251.864997 
L 124.519744 246.820818 
L 129.06046 246.820818 
L 129.06046 245.139425 
L 131.056477 245.139425 
L 131.056477 241.776639 
L 141.704386 241.776639 
L 141.704386 238.413853 
L 151.365195 238.413853 
L 151.365195 233.369674 
L 152.352588 233.369674 
L 152.352588 231.688281 
L 159.602992 231.688281 
L 159.602992 228.325495 
L 162.636148 228.325495 
L 162.636148 226.644102 
L 164.432956 226.644102 
L 164.432956 223.281316 
L 167.073257 223.281316 
L 167.073257 218.237138 
L 175.731614 218.237138 
L 175.731614 214.874352 
L 178.020885 214.874352 
L 178.020885 213.192959 
L 184.250129 213.192959 
L 184.250129 208.14878 
L 188.130824 208.14878 
L 188.130824 206.467387 
L 192.160982 206.467387 
L 192.160982 203.104601 
L 192.798898 203.104601 
L 192.798898 199.741815 
L 193.258826 199.741815 
L 193.258826 194.697636 
L 198.491921 194.697636 
L 198.491921 189.653457 
L 200.419378 189.653457 
L 200.419378 187.972064 
L 204.539153 187.972064 
L 204.539153 184.609278 
L 205.256822 184.609278 
L 205.256822 182.927885 
L 208.990003 182.927885 
L 208.990003 179.565099 
L 209.644658 179.565099 
L 209.644658 176.202313 
L 213.080837 176.202313 
L 213.080837 172.839527 
L 217.684953 172.839527 
L 217.684953 171.158135 
L 228.450672 171.158135 
L 228.450672 166.113956 
L 246.837928 166.113956 
L 246.837928 162.75117 
L 249.549471 162.75117 
L 249.549471 157.706991 
L 251.578351 157.706991 
L 251.578351 154.344205 
L 256.239315 154.344205 
L 256.239315 149.300026 
L 256.672192 149.300026 
L 256.672192 147.618633 
L 257.508672 147.618633 
L 257.508672 142.574454 
L 258.007321 142.574454 
L 258.007321 139.211668 
L 258.304934 139.211668 
L 258.304934 137.530275 
L 258.713901 137.530275 
L 258.713901 134.167489 
L 259.554486 134.167489 
L 259.554486 130.804703 
L 259.964181 130.804703 
L 259.964181 129.12331 
L 260.931351 129.12331 
L 260.995118 119.034953 
L 261.255584 119.034953 
L 261.255584 117.35356 
L 261.751782 117.35356 
L 261.751782 112.309381 
L 262.906661 112.309381 
L 262.906661 108.946595 
L 267.074458 108.946595 
L 267.074458 105.583809 
L 268.956519 105.583809 
L 268.956519 102.221023 
L 271.345817 102.221023 
L 271.345817 100.53963 
L 274.580295 100.53963 
L 274.580295 98.858237 
L 277.423391 98.858237 
L 277.423391 93.814058 
L 277.850641 93.814058 
L 277.850641 90.451272 
L 279.006215 90.451272 
L 279.006215 88.769879 
L 279.628682 88.769879 
L 279.628682 83.7257 
L 281.577472 83.7257 
L 281.577472 80.362914 
L 282.704038 80.362914 
L 282.704038 75.318735 
L 284.603869 75.318735 
L 284.672493 70.274557 
L 284.79824 70.274557 
L 284.79824 65.230378 
L 287.325232 65.230378 
L 287.325232 63.548985 
L 287.581688 63.548985 
L 287.581688 58.504806 
L 287.792201 58.504806 
L 287.792201 55.14202 
L 288.092031 55.14202 
L 288.092031 51.779234 
L 288.576045 51.779234 
L 288.576045 50.097841 
L 289.173255 50.097841 
L 289.173255 46.735055 
L 289.983979 46.735055 
L 289.983979 41.690876 
L 338.688 41.690876 
L 338.688 41.690876 
" style="fill:none;stroke:#f5deb3;stroke-linecap:square;stroke-width:4;"/>
   </g>
   <g id="line2d_2">
    <defs>
     <path d="M 0 7.778175 
L 7.778175 0 
L 0 -7.778175 
L -7.778175 0 
z
" id="m5fe51fa84b" style="stroke:#f5deb3;stroke-linejoin:miter;stroke-width:1.5;"/>
    </defs>
    <g>
     <use style="fill:#f5deb3;stroke:#f5deb3;stroke-linejoin:miter;stroke-width:1.5;" x="159.602992" xlink:href="#m5fe51fa84b" y="228.325495"/>
     <use style="fill:#f5deb3;stroke:#f5deb3;stroke-linejoin:miter;stroke-width:1.5;" x="228.450672" xlink:href="#m5fe51fa84b" y="171.158135"/>
     <use style="fill:#f5deb3;stroke:#f5deb3;stroke-linejoin:miter;stroke-width:1.5;" x="271.345817" xlink:href="#m5fe51fa84b" y="100.53963"/>
     <use style="fill:#f5deb3;stroke:#f5deb3;stroke-linejoin:miter;stroke-width:1.5;" x="289.983979" xlink:href="#m5fe51fa84b" y="41.690876"/>
     <use style="fill:#f5deb3;stroke:#f5deb3;stroke-linejoin:miter;stroke-width:1.5;" x="289.983979" xlink:href="#m5fe51fa84b" y="41.690876"/>
     <use style="fill:#f5deb3;stroke:#f5deb3;stroke-linejoin:miter;stroke-width:1.5;" x="338.688" xlink:href="#m5fe51fa84b" y="41.690876"/>
    </g>
   </g>
   <g id="line2d_3">
    <path style="fill:none;stroke:#f5deb3;stroke-linecap:square;stroke-width:4;"/>
    <g/>
   </g>
   <g id="line2d_4">
    <path d="M 338.688 41.690876 
L 369.60768 12.232871 
" style="fill:none;stroke:#f5deb3;stroke-linecap:square;stroke-width:4;"/>
    <g>
     <use style="fill:#f5deb3;stroke:#f5deb3;stroke-linejoin:miter;stroke-width:1.5;" x="338.688" xlink:href="#m5fe51fa84b" y="41.690876"/>
     <use style="fill:#f5deb3;stroke:#f5deb3;stroke-linejoin:miter;stroke-width:1.5;" x="369.60768" xlink:href="#m5fe51fa84b" y="12.232871"/>
    </g>
   </g>
   <g id="matplotlib.axis_1">
    <g id="xtick_1">
     <g id="line2d_5">
      <path clip-path="url(#p0e9005049e)" d="M 57.6 298.944 
L 57.6 3.456 
" style="fill:none;stroke:#b0b0b0;stroke-linecap:square;stroke-width:0.8;"/>
     </g>
     <g id="line2d_6">
      <defs>
       <path d="M 0 0 
L 0 3.5 
" id="m928198330a" style="stroke:#000000;stroke-width:0.8;"/>
      </defs>
      <g>
       <use style="stroke:#000000;stroke-width:0.8;" x="57.6" xlink:href="#m928198330a" y="298.944"/>
      </g>
     </g>
     <g id="text_1">
      <!-- 0 -->
      <g transform="translate(51.2375 321.140875)scale(0.2 -0.2)">
       <defs>
        <path d="M 2034 4250 
Q 1547 4250 1301 3770 
Q 1056 3291 1056 2328 
Q 1056 1369 1301 889 
Q 1547 409 2034 409 
Q 2525 409 2770 889 
Q 3016 1369 3016 2328 
Q 3016 3291 2770 3770 
Q 2525 4250 2034 4250 
z
M 2034 4750 
Q 2819 4750 3233 4129 
Q 3647 3509 3647 2328 
Q 3647 1150 3233 529 
Q 2819 -91 2034 -91 
Q 1250 -91 836 529 
Q 422 1150 422 2328 
Q 422 3509 836 4129 
Q 1250 4750 2034 4750 
z
" id="DejaVuSans-30" transform="scale(0.015625)"/>
       </defs>
       <use xlink:href="#DejaVuSans-30"/>
      </g>
     </g>
    </g>
    <g id="xtick_2">
     <g id="line2d_7">
      <path clip-path="url(#p0e9005049e)" d="M 137.910857 298.944 
L 137.910857 3.456 
" style="fill:none;stroke:#b0b0b0;stroke-linecap:square;stroke-width:0.8;"/>
     </g>
     <g id="line2d_8">
      <g>
       <use style="stroke:#000000;stroke-width:0.8;" x="137.910857" xlink:href="#m928198330a" y="298.944"/>
      </g>
     </g>
     <g id="text_2">
      <!-- 2 -->
      <g transform="translate(131.548357 321.140875)scale(0.2 -0.2)">
       <defs>
        <path d="M 1228 531 
L 3431 531 
L 3431 0 
L 469 0 
L 469 531 
Q 828 903 1448 1529 
Q 2069 2156 2228 2338 
Q 2531 2678 2651 2914 
Q 2772 3150 2772 3378 
Q 2772 3750 2511 3984 
Q 2250 4219 1831 4219 
Q 1534 4219 1204 4116 
Q 875 4013 500 3803 
L 500 4441 
Q 881 4594 1212 4672 
Q 1544 4750 1819 4750 
Q 2544 4750 2975 4387 
Q 3406 4025 3406 3419 
Q 3406 3131 3298 2873 
Q 3191 2616 2906 2266 
Q 2828 2175 2409 1742 
Q 1991 1309 1228 531 
z
" id="DejaVuSans-32" transform="scale(0.015625)"/>
       </defs>
       <use xlink:href="#DejaVuSans-32"/>
      </g>
     </g>
    </g>
    <g id="xtick_3">
     <g id="line2d_9">
      <path clip-path="url(#p0e9005049e)" d="M 218.221714 298.944 
L 218.221714 3.456 
" style="fill:none;stroke:#b0b0b0;stroke-linecap:square;stroke-width:0.8;"/>
     </g>
     <g id="line2d_10">
      <g>
       <use style="stroke:#000000;stroke-width:0.8;" x="218.221714" xlink:href="#m928198330a" y="298.944"/>
      </g>
     </g>
     <g id="text_3">
      <!-- 4 -->
      <g transform="translate(211.859214 321.140875)scale(0.2 -0.2)">
       <defs>
        <path d="M 2419 4116 
L 825 1625 
L 2419 1625 
L 2419 4116 
z
M 2253 4666 
L 3047 4666 
L 3047 1625 
L 3713 1625 
L 3713 1100 
L 3047 1100 
L 3047 0 
L 2419 0 
L 2419 1100 
L 313 1100 
L 313 1709 
L 2253 4666 
z
" id="DejaVuSans-34" transform="scale(0.015625)"/>
       </defs>
       <use xlink:href="#DejaVuSans-34"/>
      </g>
     </g>
    </g>
    <g id="xtick_4">
     <g id="line2d_11">
      <path clip-path="url(#p0e9005049e)" d="M 298.532571 298.944 
L 298.532571 3.456 
" style="fill:none;stroke:#b0b0b0;stroke-linecap:square;stroke-width:0.8;"/>
     </g>
     <g id="line2d_12">
      <g>
       <use style="stroke:#000000;stroke-width:0.8;" x="298.532571" xlink:href="#m928198330a" y="298.944"/>
      </g>
     </g>
     <g id="text_4">
      <!-- 6 -->
      <g transform="translate(292.170071 321.140875)scale(0.2 -0.2)">
       <defs>
        <path d="M 2113 2584 
Q 1688 2584 1439 2293 
Q 1191 2003 1191 1497 
Q 1191 994 1439 701 
Q 1688 409 2113 409 
Q 2538 409 2786 701 
Q 3034 994 3034 1497 
Q 3034 2003 2786 2293 
Q 2538 2584 2113 2584 
z
M 3366 4563 
L 3366 3988 
Q 3128 4100 2886 4159 
Q 2644 4219 2406 4219 
Q 1781 4219 1451 3797 
Q 1122 3375 1075 2522 
Q 1259 2794 1537 2939 
Q 1816 3084 2150 3084 
Q 2853 3084 3261 2657 
Q 3669 2231 3669 1497 
Q 3669 778 3244 343 
Q 2819 -91 2113 -91 
Q 1303 -91 875 529 
Q 447 1150 447 2328 
Q 447 3434 972 4092 
Q 1497 4750 2381 4750 
Q 2619 4750 2861 4703 
Q 3103 4656 3366 4563 
z
" id="DejaVuSans-36" transform="scale(0.015625)"/>
       </defs>
       <use xlink:href="#DejaVuSans-36"/>
      </g>
     </g>
    </g>
    <g id="xtick_5">
     <g id="line2d_13">
      <path clip-path="url(#p0e9005049e)" d="M 97.755429 298.944 
L 97.755429 3.456 
" style="fill:none;stroke:#b0b0b0;stroke-linecap:square;stroke-width:0.8;"/>
     </g>
     <g id="line2d_14">
      <defs>
       <path d="M 0 0 
L 0 2 
" id="m9c7a9aaf0d" style="stroke:#000000;stroke-width:0.6;"/>
      </defs>
      <g>
       <use style="stroke:#000000;stroke-width:0.6;" x="97.755429" xlink:href="#m9c7a9aaf0d" y="298.944"/>
      </g>
     </g>
    </g>
    <g id="xtick_6">
     <g id="line2d_15">
      <path clip-path="url(#p0e9005049e)" d="M 178.066286 298.944 
L 178.066286 3.456 
" style="fill:none;stroke:#b0b0b0;stroke-linecap:square;stroke-width:0.8;"/>
     </g>
     <g id="line2d_16">
      <g>
       <use style="stroke:#000000;stroke-width:0.6;" x="178.066286" xlink:href="#m9c7a9aaf0d" y="298.944"/>
      </g>
     </g>
    </g>
    <g id="xtick_7">
     <g id="line2d_17">
      <path clip-path="url(#p0e9005049e)" d="M 258.377143 298.944 
L 258.377143 3.456 
" style="fill:none;stroke:#b0b0b0;stroke-linecap:square;stroke-width:0.8;"/>
     </g>
     <g id="line2d_18">
      <g>
       <use style="stroke:#000000;stroke-width:0.6;" x="258.377143" xlink:href="#m9c7a9aaf0d" y="298.944"/>
      </g>
     </g>
    </g>
    <g id="xtick_8">
     <g id="line2d_19">
      <path clip-path="url(#p0e9005049e)" d="M 338.688 298.944 
L 338.688 3.456 
" style="fill:none;stroke:#b0b0b0;stroke-linecap:square;stroke-width:0.8;"/>
     </g>
     <g id="line2d_20">
      <g>
       <use style="stroke:#000000;stroke-width:0.6;" x="338.688" xlink:href="#m9c7a9aaf0d" y="298.944"/>
      </g>
     </g>
    </g>
    <g id="text_5">
     <!-- log10(# f-evals / dimension) -->
     <g transform="translate(77.764078 342.217594)scale(0.17 -0.17)">
      <defs>
       <path d="M 603 4863 
L 1178 4863 
L 1178 0 
L 603 0 
L 603 4863 
z
" id="DejaVuSans-6c" transform="scale(0.015625)"/>
       <path d="M 1959 3097 
Q 1497 3097 1228 2736 
Q 959 2375 959 1747 
Q 959 1119 1226 758 
Q 1494 397 1959 397 
Q 2419 397 2687 759 
Q 2956 1122 2956 1747 
Q 2956 2369 2687 2733 
Q 2419 3097 1959 3097 
z
M 1959 3584 
Q 2709 3584 3137 3096 
Q 3566 2609 3566 1747 
Q 3566 888 3137 398 
Q 2709 -91 1959 -91 
Q 1206 -91 779 398 
Q 353 888 353 1747 
Q 353 2609 779 3096 
Q 1206 3584 1959 3584 
z
" id="DejaVuSans-6f" transform="scale(0.015625)"/>
       <path d="M 2906 1791 
Q 2906 2416 2648 2759 
Q 2391 3103 1925 3103 
Q 1463 3103 1205 2759 
Q 947 2416 947 1791 
Q 947 1169 1205 825 
Q 1463 481 1925 481 
Q 2391 481 2648 825 
Q 2906 1169 2906 1791 
z
M 3481 434 
Q 3481 -459 3084 -895 
Q 2688 -1331 1869 -1331 
Q 1566 -1331 1297 -1286 
Q 1028 -1241 775 -1147 
L 775 -588 
Q 1028 -725 1275 -790 
Q 1522 -856 1778 -856 
Q 2344 -856 2625 -561 
Q 2906 -266 2906 331 
L 2906 616 
Q 2728 306 2450 153 
Q 2172 0 1784 0 
Q 1141 0 747 490 
Q 353 981 353 1791 
Q 353 2603 747 3093 
Q 1141 3584 1784 3584 
Q 2172 3584 2450 3431 
Q 2728 3278 2906 2969 
L 2906 3500 
L 3481 3500 
L 3481 434 
z
" id="DejaVuSans-67" transform="scale(0.015625)"/>
       <path d="M 794 531 
L 1825 531 
L 1825 4091 
L 703 3866 
L 703 4441 
L 1819 4666 
L 2450 4666 
L 2450 531 
L 3481 531 
L 3481 0 
L 794 0 
L 794 531 
z
" id="DejaVuSans-31" transform="scale(0.015625)"/>
       <path d="M 1984 4856 
Q 1566 4138 1362 3434 
Q 1159 2731 1159 2009 
Q 1159 1288 1364 580 
Q 1569 -128 1984 -844 
L 1484 -844 
Q 1016 -109 783 600 
Q 550 1309 550 2009 
Q 550 2706 781 3412 
Q 1013 4119 1484 4856 
L 1984 4856 
z
" id="DejaVuSans-28" transform="scale(0.015625)"/>
       <path d="M 3272 2816 
L 2363 2816 
L 2100 1772 
L 3016 1772 
L 3272 2816 
z
M 2803 4594 
L 2478 3297 
L 3391 3297 
L 3719 4594 
L 4219 4594 
L 3897 3297 
L 4872 3297 
L 4872 2816 
L 3775 2816 
L 3519 1772 
L 4513 1772 
L 4513 1294 
L 3397 1294 
L 3072 0 
L 2572 0 
L 2894 1294 
L 1978 1294 
L 1656 0 
L 1153 0 
L 1478 1294 
L 494 1294 
L 494 1772 
L 1594 1772 
L 1856 2816 
L 850 2816 
L 850 3297 
L 1978 3297 
L 2297 4594 
L 2803 4594 
z
" id="DejaVuSans-23" transform="scale(0.015625)"/>
       <path id="DejaVuSans-20" transform="scale(0.015625)"/>
       <path d="M 2375 4863 
L 2375 4384 
L 1825 4384 
Q 1516 4384 1395 4259 
Q 1275 4134 1275 3809 
L 1275 3500 
L 2222 3500 
L 2222 3053 
L 1275 3053 
L 1275 0 
L 697 0 
L 697 3053 
L 147 3053 
L 147 3500 
L 697 3500 
L 697 3744 
Q 697 4328 969 4595 
Q 1241 4863 1831 4863 
L 2375 4863 
z
" id="DejaVuSans-66" transform="scale(0.015625)"/>
       <path d="M 313 2009 
L 1997 2009 
L 1997 1497 
L 313 1497 
L 313 2009 
z
" id="DejaVuSans-2d" transform="scale(0.015625)"/>
       <path d="M 3597 1894 
L 3597 1613 
L 953 1613 
Q 991 1019 1311 708 
Q 1631 397 2203 397 
Q 2534 397 2845 478 
Q 3156 559 3463 722 
L 3463 178 
Q 3153 47 2828 -22 
Q 2503 -91 2169 -91 
Q 1331 -91 842 396 
Q 353 884 353 1716 
Q 353 2575 817 3079 
Q 1281 3584 2069 3584 
Q 2775 3584 3186 3129 
Q 3597 2675 3597 1894 
z
M 3022 2063 
Q 3016 2534 2758 2815 
Q 2500 3097 2075 3097 
Q 1594 3097 1305 2825 
Q 1016 2553 972 2059 
L 3022 2063 
z
" id="DejaVuSans-65" transform="scale(0.015625)"/>
       <path d="M 191 3500 
L 800 3500 
L 1894 563 
L 2988 3500 
L 3597 3500 
L 2284 0 
L 1503 0 
L 191 3500 
z
" id="DejaVuSans-76" transform="scale(0.015625)"/>
       <path d="M 2194 1759 
Q 1497 1759 1228 1600 
Q 959 1441 959 1056 
Q 959 750 1161 570 
Q 1363 391 1709 391 
Q 2188 391 2477 730 
Q 2766 1069 2766 1631 
L 2766 1759 
L 2194 1759 
z
M 3341 1997 
L 3341 0 
L 2766 0 
L 2766 531 
Q 2569 213 2275 61 
Q 1981 -91 1556 -91 
Q 1019 -91 701 211 
Q 384 513 384 1019 
Q 384 1609 779 1909 
Q 1175 2209 1959 2209 
L 2766 2209 
L 2766 2266 
Q 2766 2663 2505 2880 
Q 2244 3097 1772 3097 
Q 1472 3097 1187 3025 
Q 903 2953 641 2809 
L 641 3341 
Q 956 3463 1253 3523 
Q 1550 3584 1831 3584 
Q 2591 3584 2966 3190 
Q 3341 2797 3341 1997 
z
" id="DejaVuSans-61" transform="scale(0.015625)"/>
       <path d="M 2834 3397 
L 2834 2853 
Q 2591 2978 2328 3040 
Q 2066 3103 1784 3103 
Q 1356 3103 1142 2972 
Q 928 2841 928 2578 
Q 928 2378 1081 2264 
Q 1234 2150 1697 2047 
L 1894 2003 
Q 2506 1872 2764 1633 
Q 3022 1394 3022 966 
Q 3022 478 2636 193 
Q 2250 -91 1575 -91 
Q 1294 -91 989 -36 
Q 684 19 347 128 
L 347 722 
Q 666 556 975 473 
Q 1284 391 1588 391 
Q 1994 391 2212 530 
Q 2431 669 2431 922 
Q 2431 1156 2273 1281 
Q 2116 1406 1581 1522 
L 1381 1569 
Q 847 1681 609 1914 
Q 372 2147 372 2553 
Q 372 3047 722 3315 
Q 1072 3584 1716 3584 
Q 2034 3584 2315 3537 
Q 2597 3491 2834 3397 
z
" id="DejaVuSans-73" transform="scale(0.015625)"/>
       <path d="M 1625 4666 
L 2156 4666 
L 531 -594 
L 0 -594 
L 1625 4666 
z
" id="DejaVuSans-2f" transform="scale(0.015625)"/>
       <path d="M 2906 2969 
L 2906 4863 
L 3481 4863 
L 3481 0 
L 2906 0 
L 2906 525 
Q 2725 213 2448 61 
Q 2172 -91 1784 -91 
Q 1150 -91 751 415 
Q 353 922 353 1747 
Q 353 2572 751 3078 
Q 1150 3584 1784 3584 
Q 2172 3584 2448 3432 
Q 2725 3281 2906 2969 
z
M 947 1747 
Q 947 1113 1208 752 
Q 1469 391 1925 391 
Q 2381 391 2643 752 
Q 2906 1113 2906 1747 
Q 2906 2381 2643 2742 
Q 2381 3103 1925 3103 
Q 1469 3103 1208 2742 
Q 947 2381 947 1747 
z
" id="DejaVuSans-64" transform="scale(0.015625)"/>
       <path d="M 603 3500 
L 1178 3500 
L 1178 0 
L 603 0 
L 603 3500 
z
M 603 4863 
L 1178 4863 
L 1178 4134 
L 603 4134 
L 603 4863 
z
" id="DejaVuSans-69" transform="scale(0.015625)"/>
       <path d="M 3328 2828 
Q 3544 3216 3844 3400 
Q 4144 3584 4550 3584 
Q 5097 3584 5394 3201 
Q 5691 2819 5691 2113 
L 5691 0 
L 5113 0 
L 5113 2094 
Q 5113 2597 4934 2840 
Q 4756 3084 4391 3084 
Q 3944 3084 3684 2787 
Q 3425 2491 3425 1978 
L 3425 0 
L 2847 0 
L 2847 2094 
Q 2847 2600 2669 2842 
Q 2491 3084 2119 3084 
Q 1678 3084 1418 2786 
Q 1159 2488 1159 1978 
L 1159 0 
L 581 0 
L 581 3500 
L 1159 3500 
L 1159 2956 
Q 1356 3278 1631 3431 
Q 1906 3584 2284 3584 
Q 2666 3584 2933 3390 
Q 3200 3197 3328 2828 
z
" id="DejaVuSans-6d" transform="scale(0.015625)"/>
       <path d="M 3513 2113 
L 3513 0 
L 2938 0 
L 2938 2094 
Q 2938 2591 2744 2837 
Q 2550 3084 2163 3084 
Q 1697 3084 1428 2787 
Q 1159 2491 1159 1978 
L 1159 0 
L 581 0 
L 581 3500 
L 1159 3500 
L 1159 2956 
Q 1366 3272 1645 3428 
Q 1925 3584 2291 3584 
Q 2894 3584 3203 3211 
Q 3513 2838 3513 2113 
z
" id="DejaVuSans-6e" transform="scale(0.015625)"/>
       <path d="M 513 4856 
L 1013 4856 
Q 1481 4119 1714 3412 
Q 1947 2706 1947 2009 
Q 1947 1309 1714 600 
Q 1481 -109 1013 -844 
L 513 -844 
Q 928 -128 1133 580 
Q 1338 1288 1338 2009 
Q 1338 2731 1133 3434 
Q 928 4138 513 4856 
z
" id="DejaVuSans-29" transform="scale(0.015625)"/>
      </defs>
      <use xlink:href="#DejaVuSans-6c"/>
      <use x="27.783203" xlink:href="#DejaVuSans-6f"/>
      <use x="88.964844" xlink:href="#DejaVuSans-67"/>
      <use x="152.441406" xlink:href="#DejaVuSans-31"/>
      <use x="216.064453" xlink:href="#DejaVuSans-30"/>
      <use x="279.6875" xlink:href="#DejaVuSans-28"/>
      <use x="318.701172" xlink:href="#DejaVuSans-23"/>
      <use x="402.490234" xlink:href="#DejaVuSans-20"/>
      <use x="434.277344" xlink:href="#DejaVuSans-66"/>
      <use x="463.982422" xlink:href="#DejaVuSans-2d"/>
      <use x="500.066406" xlink:href="#DejaVuSans-65"/>
      <use x="561.589844" xlink:href="#DejaVuSans-76"/>
      <use x="620.769531" xlink:href="#DejaVuSans-61"/>
      <use x="682.048828" xlink:href="#DejaVuSans-6c"/>
      <use x="709.832031" xlink:href="#DejaVuSans-73"/>
      <use x="761.931641" xlink:href="#DejaVuSans-20"/>
      <use x="793.71875" xlink:href="#DejaVuSans-2f"/>
      <use x="827.410156" xlink:href="#DejaVuSans-20"/>
      <use x="859.197266" xlink:href="#DejaVuSans-64"/>
      <use x="922.673828" xlink:href="#DejaVuSans-69"/>
      <use x="950.457031" xlink:href="#DejaVuSans-6d"/>
      <use x="1047.869141" xlink:href="#DejaVuSans-65"/>
      <use x="1109.392578" xlink:href="#DejaVuSans-6e"/>
      <use x="1172.771484" xlink:href="#DejaVuSans-73"/>
      <use x="1224.871094" xlink:href="#DejaVuSans-69"/>
      <use x="1252.654297" xlink:href="#DejaVuSans-6f"/>
      <use x="1313.835938" xlink:href="#DejaVuSans-6e"/>
      <use x="1377.214844" xlink:href="#DejaVuSans-29"/>
     </g>
    </g>
   </g>
   <g id="matplotlib.axis_2">
    <g id="ytick_1">
     <g id="line2d_21">
      <path clip-path="url(#p0e9005049e)" d="M 57.6 298.944 
L 338.688 298.944 
" style="fill:none;stroke:#b0b0b0;stroke-linecap:square;stroke-width:0.8;"/>
     </g>
     <g id="line2d_22">
      <defs>
       <path d="M 0 0 
L -3.5 0 
" id="m66c728a02b" style="stroke:#000000;stroke-width:0.8;"/>
      </defs>
      <g>
       <use style="stroke:#000000;stroke-width:0.8;" x="57.6" xlink:href="#m66c728a02b" y="298.944"/>
      </g>
     </g>
     <g id="text_6">
      <!-- 0.0 -->
      <g transform="translate(25.155 305.02275)scale(0.16 -0.16)">
       <defs>
        <path d="M 684 794 
L 1344 794 
L 1344 0 
L 684 0 
L 684 794 
z
" id="DejaVuSans-2e" transform="scale(0.015625)"/>
       </defs>
       <use xlink:href="#DejaVuSans-30"/>
       <use x="63.623047" xlink:href="#DejaVuSans-2e"/>
       <use x="95.410156" xlink:href="#DejaVuSans-30"/>
      </g>
     </g>
    </g>
    <g id="ytick_2">
     <g id="line2d_23">
      <path clip-path="url(#p0e9005049e)" d="M 57.6 240.431525 
L 338.688 240.431525 
" style="fill:none;stroke:#b0b0b0;stroke-linecap:square;stroke-width:0.8;"/>
     </g>
     <g id="line2d_24">
      <g>
       <use style="stroke:#000000;stroke-width:0.8;" x="57.6" xlink:href="#m66c728a02b" y="240.431525"/>
      </g>
     </g>
     <g id="text_7">
      <!-- 0.2 -->
      <g transform="translate(25.155 246.510275)scale(0.16 -0.16)">
       <use xlink:href="#DejaVuSans-30"/>
       <use x="63.623047" xlink:href="#DejaVuSans-2e"/>
       <use x="95.410156" xlink:href="#DejaVuSans-32"/>
      </g>
     </g>
    </g>
    <g id="ytick_3">
     <g id="line2d_25">
      <path clip-path="url(#p0e9005049e)" d="M 57.6 181.91905 
L 338.688 181.91905 
" style="fill:none;stroke:#b0b0b0;stroke-linecap:square;stroke-width:0.8;"/>
     </g>
     <g id="line2d_26">
      <g>
       <use style="stroke:#000000;stroke-width:0.8;" x="57.6" xlink:href="#m66c728a02b" y="181.91905"/>
      </g>
     </g>
     <g id="text_8">
      <!-- 0.4 -->
      <g transform="translate(25.155 187.9978)scale(0.16 -0.16)">
       <use xlink:href="#DejaVuSans-30"/>
       <use x="63.623047" xlink:href="#DejaVuSans-2e"/>
       <use x="95.410156" xlink:href="#DejaVuSans-34"/>
      </g>
     </g>
    </g>
    <g id="ytick_4">
     <g id="line2d_27">
      <path clip-path="url(#p0e9005049e)" d="M 57.6 123.406574 
L 338.688 123.406574 
" style="fill:none;stroke:#b0b0b0;stroke-linecap:square;stroke-width:0.8;"/>
     </g>
     <g id="line2d_28">
      <g>
       <use style="stroke:#000000;stroke-width:0.8;" x="57.6" xlink:href="#m66c728a02b" y="123.406574"/>
      </g>
     </g>
     <g id="text_9">
      <!-- 0.6 -->
      <g transform="translate(25.155 129.485324)scale(0.16 -0.16)">
       <use xlink:href="#DejaVuSans-30"/>
       <use x="63.623047" xlink:href="#DejaVuSans-2e"/>
       <use x="95.410156" xlink:href="#DejaVuSans-36"/>
      </g>
     </g>
    </g>
    <g id="ytick_5">
     <g id="line2d_29">
      <path clip-path="url(#p0e9005049e)" d="M 57.6 64.894099 
L 338.688 64.894099 
" style="fill:none;stroke:#b0b0b0;stroke-linecap:square;stroke-width:0.8;"/>
     </g>
     <g id="line2d_30">
      <g>
       <use style="stroke:#000000;stroke-width:0.8;" x="57.6" xlink:href="#m66c728a02b" y="64.894099"/>
      </g>
     </g>
     <g id="text_10">
      <!-- 0.8 -->
      <g transform="translate(25.155 70.972849)scale(0.16 -0.16)">
       <defs>
        <path d="M 2034 2216 
Q 1584 2216 1326 1975 
Q 1069 1734 1069 1313 
Q 1069 891 1326 650 
Q 1584 409 2034 409 
Q 2484 409 2743 651 
Q 3003 894 3003 1313 
Q 3003 1734 2745 1975 
Q 2488 2216 2034 2216 
z
M 1403 2484 
Q 997 2584 770 2862 
Q 544 3141 544 3541 
Q 544 4100 942 4425 
Q 1341 4750 2034 4750 
Q 2731 4750 3128 4425 
Q 3525 4100 3525 3541 
Q 3525 3141 3298 2862 
Q 3072 2584 2669 2484 
Q 3125 2378 3379 2068 
Q 3634 1759 3634 1313 
Q 3634 634 3220 271 
Q 2806 -91 2034 -91 
Q 1263 -91 848 271 
Q 434 634 434 1313 
Q 434 1759 690 2068 
Q 947 2378 1403 2484 
z
M 1172 3481 
Q 1172 3119 1398 2916 
Q 1625 2713 2034 2713 
Q 2441 2713 2670 2916 
Q 2900 3119 2900 3481 
Q 2900 3844 2670 4047 
Q 2441 4250 2034 4250 
Q 1625 4250 1398 4047 
Q 1172 3844 1172 3481 
z
" id="DejaVuSans-38" transform="scale(0.015625)"/>
       </defs>
       <use xlink:href="#DejaVuSans-30"/>
       <use x="63.623047" xlink:href="#DejaVuSans-2e"/>
       <use x="95.410156" xlink:href="#DejaVuSans-38"/>
      </g>
     </g>
    </g>
    <g id="ytick_6">
     <g id="line2d_31">
      <path clip-path="url(#p0e9005049e)" d="M 57.6 6.381624 
L 338.688 6.381624 
" style="fill:none;stroke:#b0b0b0;stroke-linecap:square;stroke-width:0.8;"/>
     </g>
     <g id="line2d_32">
      <g>
       <use style="stroke:#000000;stroke-width:0.8;" x="57.6" xlink:href="#m66c728a02b" y="6.381624"/>
      </g>
     </g>
     <g id="text_11">
      <!-- 1.0 -->
      <g transform="translate(25.155 12.460374)scale(0.16 -0.16)">
       <use xlink:href="#DejaVuSans-31"/>
       <use x="63.623047" xlink:href="#DejaVuSans-2e"/>
       <use x="95.410156" xlink:href="#DejaVuSans-30"/>
      </g>
     </g>
    </g>
    <g id="text_12">
     <!-- Fraction of function,target pairs -->
     <g transform="translate(17.619531 285.585)rotate(-90)scale(0.17 -0.17)">
      <defs>
       <path d="M 628 4666 
L 3309 4666 
L 3309 4134 
L 1259 4134 
L 1259 2759 
L 3109 2759 
L 3109 2228 
L 1259 2228 
L 1259 0 
L 628 0 
L 628 4666 
z
" id="DejaVuSans-46" transform="scale(0.015625)"/>
       <path d="M 2631 2963 
Q 2534 3019 2420 3045 
Q 2306 3072 2169 3072 
Q 1681 3072 1420 2755 
Q 1159 2438 1159 1844 
L 1159 0 
L 581 0 
L 581 3500 
L 1159 3500 
L 1159 2956 
Q 1341 3275 1631 3429 
Q 1922 3584 2338 3584 
Q 2397 3584 2469 3576 
Q 2541 3569 2628 3553 
L 2631 2963 
z
" id="DejaVuSans-72" transform="scale(0.015625)"/>
       <path d="M 3122 3366 
L 3122 2828 
Q 2878 2963 2633 3030 
Q 2388 3097 2138 3097 
Q 1578 3097 1268 2742 
Q 959 2388 959 1747 
Q 959 1106 1268 751 
Q 1578 397 2138 397 
Q 2388 397 2633 464 
Q 2878 531 3122 666 
L 3122 134 
Q 2881 22 2623 -34 
Q 2366 -91 2075 -91 
Q 1284 -91 818 406 
Q 353 903 353 1747 
Q 353 2603 823 3093 
Q 1294 3584 2113 3584 
Q 2378 3584 2631 3529 
Q 2884 3475 3122 3366 
z
" id="DejaVuSans-63" transform="scale(0.015625)"/>
       <path d="M 1172 4494 
L 1172 3500 
L 2356 3500 
L 2356 3053 
L 1172 3053 
L 1172 1153 
Q 1172 725 1289 603 
Q 1406 481 1766 481 
L 2356 481 
L 2356 0 
L 1766 0 
Q 1100 0 847 248 
Q 594 497 594 1153 
L 594 3053 
L 172 3053 
L 172 3500 
L 594 3500 
L 594 4494 
L 1172 4494 
z
" id="DejaVuSans-74" transform="scale(0.015625)"/>
       <path d="M 544 1381 
L 544 3500 
L 1119 3500 
L 1119 1403 
Q 1119 906 1312 657 
Q 1506 409 1894 409 
Q 2359 409 2629 706 
Q 2900 1003 2900 1516 
L 2900 3500 
L 3475 3500 
L 3475 0 
L 2900 0 
L 2900 538 
Q 2691 219 2414 64 
Q 2138 -91 1772 -91 
Q 1169 -91 856 284 
Q 544 659 544 1381 
z
M 1991 3584 
L 1991 3584 
z
" id="DejaVuSans-75" transform="scale(0.015625)"/>
       <path d="M 750 794 
L 1409 794 
L 1409 256 
L 897 -744 
L 494 -744 
L 750 256 
L 750 794 
z
" id="DejaVuSans-2c" transform="scale(0.015625)"/>
       <path d="M 1159 525 
L 1159 -1331 
L 581 -1331 
L 581 3500 
L 1159 3500 
L 1159 2969 
Q 1341 3281 1617 3432 
Q 1894 3584 2278 3584 
Q 2916 3584 3314 3078 
Q 3713 2572 3713 1747 
Q 3713 922 3314 415 
Q 2916 -91 2278 -91 
Q 1894 -91 1617 61 
Q 1341 213 1159 525 
z
M 3116 1747 
Q 3116 2381 2855 2742 
Q 2594 3103 2138 3103 
Q 1681 3103 1420 2742 
Q 1159 2381 1159 1747 
Q 1159 1113 1420 752 
Q 1681 391 2138 391 
Q 2594 391 2855 752 
Q 3116 1113 3116 1747 
z
" id="DejaVuSans-70" transform="scale(0.015625)"/>
      </defs>
      <use xlink:href="#DejaVuSans-46"/>
      <use x="50.269531" xlink:href="#DejaVuSans-72"/>
      <use x="91.382812" xlink:href="#DejaVuSans-61"/>
      <use x="152.662109" xlink:href="#DejaVuSans-63"/>
      <use x="207.642578" xlink:href="#DejaVuSans-74"/>
      <use x="246.851562" xlink:href="#DejaVuSans-69"/>
      <use x="274.634766" xlink:href="#DejaVuSans-6f"/>
      <use x="335.816406" xlink:href="#DejaVuSans-6e"/>
      <use x="399.195312" xlink:href="#DejaVuSans-20"/>
      <use x="430.982422" xlink:href="#DejaVuSans-6f"/>
      <use x="492.164062" xlink:href="#DejaVuSans-66"/>
      <use x="527.369141" xlink:href="#DejaVuSans-20"/>
      <use x="559.15625" xlink:href="#DejaVuSans-66"/>
      <use x="594.361328" xlink:href="#DejaVuSans-75"/>
      <use x="657.740234" xlink:href="#DejaVuSans-6e"/>
      <use x="721.119141" xlink:href="#DejaVuSans-63"/>
      <use x="776.099609" xlink:href="#DejaVuSans-74"/>
      <use x="815.308594" xlink:href="#DejaVuSans-69"/>
      <use x="843.091797" xlink:href="#DejaVuSans-6f"/>
      <use x="904.273438" xlink:href="#DejaVuSans-6e"/>
      <use x="967.652344" xlink:href="#DejaVuSans-2c"/>
      <use x="999.439453" xlink:href="#DejaVuSans-74"/>
      <use x="1038.648438" xlink:href="#DejaVuSans-61"/>
      <use x="1099.927734" xlink:href="#DejaVuSans-72"/>
      <use x="1139.291016" xlink:href="#DejaVuSans-67"/>
      <use x="1202.767578" xlink:href="#DejaVuSans-65"/>
      <use x="1264.291016" xlink:href="#DejaVuSans-74"/>
      <use x="1303.5" xlink:href="#DejaVuSans-20"/>
      <use x="1335.287109" xlink:href="#DejaVuSans-70"/>
      <use x="1398.763672" xlink:href="#DejaVuSans-61"/>
      <use x="1460.042969" xlink:href="#DejaVuSans-69"/>
      <use x="1487.826172" xlink:href="#DejaVuSans-72"/>
      <use x="1528.939453" xlink:href="#DejaVuSans-73"/>
     </g>
    </g>
   </g>
   <g id="line2d_33">
    <defs>
     <path d="M 0 1.5 
C 0.397805 1.5 0.77937 1.341951 1.06066 1.06066 
C 1.341951 0.77937 1.5 0.397805 1.5 0 
C 1.5 -0.397805 1.341951 -0.77937 1.06066 -1.06066 
C 0.77937 -1.341951 0.397805 -1.5 0 -1.5 
C -0.397805 -1.5 -0.77937 -1.341951 -1.06066 -1.06066 
C -1.341951 -0.77937 -1.5 -0.397805 -1.5 0 
C -1.5 0.397805 -1.341951 0.77937 -1.06066 1.06066 
C -0.77937 1.341951 -0.397805 1.5 0 1.5 
z
" id="m702fd1e733" style="stroke:#f5deb3;"/>
    </defs>
    <g>
     <use style="fill:#f5deb3;stroke:#f5deb3;" x="289.983979" xlink:href="#m702fd1e733" y="41.690876"/>
     <use style="fill:#f5deb3;stroke:#f5deb3;" x="289.983979" xlink:href="#m702fd1e733" y="41.690876"/>
    </g>
   </g>
   <g id="line2d_34">
    <defs>
     <path d="M 0 1.5 
C 0.397805 1.5 0.77937 1.341951 1.06066 1.06066 
C 1.341951 0.77937 1.5 0.397805 1.5 0 
C 1.5 -0.397805 1.341951 -0.77937 1.06066 -1.06066 
C 0.77937 -1.341951 0.397805 -1.5 0 -1.5 
C -0.397805 -1.5 -0.77937 -1.341951 -1.06066 -1.06066 
C -1.341951 -0.77937 -1.5 -0.397805 -1.5 0 
C -1.5 0.397805 -1.341951 0.77937 -1.06066 1.06066 
C -0.77937 1.341951 -0.397805 1.5 0 1.5 
z
" id="m5a2886f607" style="stroke:#000080;"/>
    </defs>
    <g>
     <use style="fill:#000080;stroke:#000080;" x="233.667318" xlink:href="#m5a2886f607" y="213.697377"/>
     <use style="fill:#000080;stroke:#000080;" x="233.667318" xlink:href="#m5a2886f607" y="213.697377"/>
    </g>
   </g>
   <g id="line2d_35">
    <path d="M 17.444571 298.944 
L 17.444571 288.855642 
L 63.467834 288.855642 
L 63.467834 288.687503 
L 65.796525 288.687503 
L 65.796525 288.519364 
L 67.850577 288.519364 
L 67.850577 288.183085 
L 68.79347 288.183085 
L 68.79347 288.014946 
L 69.687988 288.014946 
L 69.687988 287.510528 
L 70.538854 287.510528 
L 70.538854 286.165413 
L 71.35013 286.165413 
L 71.35013 284.65216 
L 73.579452 284.65216 
L 73.579452 284.315881 
L 74.921597 284.315881 
L 74.921597 284.147742 
L 76.759008 284.147742 
L 76.759008 283.979603 
L 77.330839 283.979603 
L 77.330839 283.475185 
L 77.884514 283.475185 
L 77.884514 283.138906 
L 80.881459 283.138906 
L 80.881459 282.970767 
L 81.334453 282.970767 
L 81.334453 282.13007 
L 81.775977 282.13007 
L 81.775977 281.961931 
L 82.206598 281.961931 
L 82.206598 280.953095 
L 82.626842 280.953095 
L 82.626842 280.280538 
L 84.588378 280.280538 
L 84.588378 280.112399 
L 85.315119 280.112399 
L 85.315119 279.607981 
L 85.66744 279.607981 
L 85.66744 278.935424 
L 86.012784 278.935424 
L 86.012784 278.094727 
L 87.952479 278.094727 
L 87.952479 277.590309 
L 88.255778 277.590309 
L 88.255778 275.572638 
L 88.553893 275.572638 
L 88.553893 275.404498 
L 88.846997 275.404498 
L 88.846997 275.06822 
L 89.135256 275.06822 
L 89.135256 274.563802 
L 89.418828 274.563802 
L 89.418828 274.395663 
L 89.972502 274.395663 
L 89.972502 274.227523 
L 90.242884 274.227523 
L 90.242884 273.891245 
L 91.029752 273.891245 
L 91.029752 273.723105 
L 91.284345 273.723105 
L 91.284345 273.050548 
L 91.535274 273.050548 
L 91.535274 272.882409 
L 91.782644 272.882409 
L 91.782644 272.71427 
L 92.73846 272.71427 
L 92.73846 271.537295 
L 92.969447 271.537295 
L 92.969447 268.847066 
L 93.197415 268.847066 
L 93.197415 268.342648 
L 93.863965 268.342648 
L 93.863965 268.174509 
L 94.714831 268.174509 
L 94.714831 267.501952 
L 94.921215 267.501952 
L 94.921215 266.661255 
L 95.125186 266.661255 
L 95.125186 265.820559 
L 95.326798 265.820559 
L 95.326798 265.48428 
L 95.526106 265.48428 
L 95.526106 265.148001 
L 96.110718 265.148001 
L 96.110718 264.979862 
L 96.301313 264.979862 
L 96.301313 264.811723 
L 96.489848 264.811723 
L 96.489848 262.794051 
L 96.676366 262.794051 
L 96.676366 262.289633 
L 96.86091 262.289633 
L 96.86091 261.953355 
L 97.928955 261.953355 
L 97.928955 261.785215 
L 98.270913 261.785215 
L 98.270913 261.448937 
L 98.606294 261.448937 
L 98.606294 261.112658 
L 98.771596 261.112658 
L 98.771596 260.77638 
L 99.097574 260.77638 
L 99.097574 260.60824 
L 99.258306 260.60824 
L 99.258306 260.440101 
L 99.41757 260.440101 
L 99.41757 260.103822 
L 99.575392 260.103822 
L 99.575392 259.935683 
L 100.641881 259.935683 
L 100.641881 259.599405 
L 101.079711 259.599405 
L 101.079711 259.431265 
L 101.365607 259.431265 
L 101.365607 259.263126 
L 101.506816 259.263126 
L 101.506816 258.926847 
L 101.785851 258.926847 
L 101.785851 258.758708 
L 102.060491 258.758708 
L 102.060491 258.422429 
L 102.196206 258.422429 
L 102.196206 257.918012 
L 102.464508 257.918012 
L 102.464508 257.749872 
L 102.989037 257.749872 
L 102.989037 257.581733 
L 103.245502 257.581733 
L 103.245502 257.413594 
L 103.498249 257.413594 
L 103.498249 256.572897 
L 103.623262 256.572897 
L 103.623262 256.236619 
L 103.747386 256.236619 
L 103.747386 256.068479 
L 104.474128 256.068479 
L 104.474128 255.564061 
L 105.057436 255.564061 
L 105.057436 255.395922 
L 105.51043 255.395922 
L 105.51043 255.059644 
L 105.621863 255.059644 
L 105.621863 254.387086 
L 106.382575 254.387086 
L 106.382575 254.218947 
L 106.593963 254.218947 
L 106.593963 253.54639 
L 106.906317 253.54639 
L 106.906317 253.378251 
L 107.213174 253.378251 
L 107.314272 252.537554 
L 107.514726 252.537554 
L 107.514726 252.369415 
L 107.712901 252.369415 
L 107.712901 252.201276 
L 108.198707 252.201276 
L 108.294265 251.528718 
L 108.389302 251.528718 
L 108.389302 251.360579 
L 108.577836 251.360579 
L 108.577836 251.19244 
L 109.040444 251.19244 
L 109.040444 251.0243 
L 109.222105 251.0243 
L 109.222105 250.688022 
L 109.491096 250.688022 
L 109.579846 250.015465 
L 110.188761 250.015465 
L 110.188761 249.847325 
L 110.527398 249.847325 
L 110.527398 249.511047 
L 110.694282 249.511047 
L 110.694282 249.342907 
L 111.023335 249.342907 
L 111.023335 249.174768 
L 111.266113 249.174768 
L 111.266113 249.006629 
L 111.663381 249.006629 
L 111.663381 248.83849 
L 111.897469 248.83849 
L 111.897469 248.67035 
L 112.655818 248.67035 
L 112.655818 248.502211 
L 112.950158 248.502211 
L 112.950158 248.334072 
L 113.095487 248.334072 
L 113.167699 247.829654 
L 113.594805 247.829654 
L 113.594805 247.661515 
L 113.942906 247.661515 
L 113.942906 247.493375 
L 114.816733 247.493375 
L 114.816733 247.325236 
L 115.141496 247.325236 
L 115.141496 247.157097 
L 115.897107 247.157097 
L 115.897107 246.988957 
L 116.502698 246.988957 
L 116.502698 246.820818 
L 116.680349 246.820818 
L 116.680349 246.484539 
L 117.030313 246.484539 
L 117.030313 246.3164 
L 117.316679 246.3164 
L 117.316679 246.148261 
L 117.820578 246.148261 
L 117.820578 245.980122 
L 117.985359 245.980122 
L 117.985359 245.811982 
L 118.202674 245.811982 
L 118.202674 245.643843 
L 118.363901 245.643843 
L 118.363901 245.475704 
L 119.502775 245.475704 
L 119.552816 244.803146 
L 120.286695 244.803146 
L 120.286695 244.298729 
L 121.310093 244.298729 
L 121.310093 244.130589 
L 121.887753 244.130589 
L 121.931406 243.794311 
L 122.31944 243.794311 
L 122.362027 243.289893 
L 122.44689 243.289893 
L 122.44689 243.121753 
L 122.947573 243.121753 
L 122.947573 242.953614 
L 123.07053 242.953614 
L 123.07053 242.617336 
L 123.354102 242.617336 
L 123.354102 242.281057 
L 123.593547 242.281057 
L 123.593547 242.112918 
L 123.751369 242.112918 
L 123.751369 241.6085 
L 123.868806 241.6085 
L 123.868806 241.440361 
L 124.101333 241.440361 
L 124.101333 241.272221 
L 124.254646 241.272221 
L 124.330801 240.935943 
L 124.557288 240.935943 
L 124.557288 240.767803 
L 124.669438 240.767803 
L 124.669438 240.599664 
L 124.891598 240.599664 
L 124.965026 239.758968 
L 125.074593 239.758968 
L 125.074593 239.590828 
L 125.717918 239.590828 
L 125.717918 239.422689 
L 126.270496 239.422689 
L 126.270496 239.25455 
L 127.035353 239.25455 
L 127.035353 239.08641 
L 127.229484 239.08641 
L 127.261631 238.077575 
L 127.389626 238.077575 
L 127.389626 237.909435 
L 127.674226 237.909435 
L 127.674226 237.741296 
L 128.229861 237.741296 
L 128.229861 237.405017 
L 129.742212 237.405017 
L 129.853291 236.73246 
L 130.182344 236.73246 
L 130.182344 236.564321 
L 130.317637 236.564321 
L 130.425122 235.891764 
L 130.531948 235.891764 
L 130.531948 235.555485 
L 130.76994 235.555485 
L 130.76994 235.219207 
L 131.312942 235.219207 
L 131.312942 235.051067 
L 131.938072 235.051067 
L 131.938072 234.882928 
L 132.133473 234.882928 
L 132.133473 234.546649 
L 132.278599 234.546649 
L 132.278599 234.37851 
L 132.446401 234.37851 
L 132.446401 234.210371 
L 132.659801 234.210371 
L 132.730358 233.369674 
L 133.032848 233.369674 
L 133.032848 233.201535 
L 133.284766 233.201535 
L 133.284766 232.865256 
L 133.443203 232.865256 
L 133.443203 232.697117 
L 133.931979 232.697117 
L 133.931979 232.528978 
L 134.192921 232.528978 
L 134.257551 232.02456 
L 134.47127 232.02456 
L 134.513701 231.520142 
L 135.076644 231.520142 
L 135.076644 231.015724 
L 136.150782 231.015724 
L 136.150782 230.679446 
L 136.475687 230.679446 
L 136.475687 230.511306 
L 136.664018 230.511306 
L 136.664018 230.343167 
L 136.776048 230.343167 
L 136.776048 230.175028 
L 136.905847 230.175028 
L 136.905847 230.006888 
L 137.415591 230.006888 
L 137.415591 229.838749 
L 137.647286 229.838749 
L 137.70032 229.50247 
L 138.392446 229.50247 
L 138.392446 229.334331 
L 138.861092 229.334331 
L 138.861092 229.166192 
L 139.02546 229.166192 
L 139.041811 228.493635 
L 139.445704 228.493635 
L 139.445704 228.325495 
L 139.557137 228.325495 
L 139.557137 228.157356 
L 139.902792 228.157356 
L 139.902792 227.989217 
L 140.499195 227.989217 
L 140.499195 227.821078 
L 142.20229 227.821078 
L 142.20229 227.652938 
L 142.472881 227.652938 
L 142.472881 227.484799 
L 142.89728 227.484799 
L 142.89728 227.31666 
L 144.001481 227.31666 
L 144.001481 226.980381 
L 144.221461 226.980381 
L 144.221461 226.644102 
L 144.759569 226.644102 
L 144.759569 226.475963 
L 145.005114 226.475963 
L 145.005114 226.307824 
L 145.235796 226.307824 
L 145.235796 226.139685 
L 146.052799 226.139685 
L 146.052799 225.803406 
L 146.194362 225.803406 
L 146.194362 225.635267 
L 147.600257 225.635267 
L 147.600257 225.467127 
L 147.769524 225.467127 
L 147.858474 225.130849 
L 149.214124 225.130849 
L 149.305096 224.626431 
L 149.735275 224.626431 
L 149.735275 224.458292 
L 150.607205 224.458292 
L 150.607205 224.290152 
L 151.113448 224.290152 
L 151.113448 224.122013 
L 151.397416 224.122013 
L 151.397416 223.953874 
L 151.912822 223.953874 
L 151.928441 223.449456 
L 153.185667 223.449456 
L 153.185667 223.281316 
L 153.686831 223.281316 
L 153.686831 223.113177 
L 153.84141 223.113177 
L 153.84141 222.776899 
L 154.601099 222.776899 
L 154.601099 222.44062 
L 156.212023 222.44062 
L 156.212023 222.272481 
L 157.139484 222.272481 
L 157.139484 222.104341 
L 158.064083 222.104341 
L 158.129851 221.599924 
L 158.705563 221.599924 
L 158.705563 221.431784 
L 159.314063 221.431784 
L 159.39565 221.095506 
L 159.758143 221.095506 
L 159.758143 220.759227 
L 160.278464 220.759227 
L 160.278464 220.591088 
L 161.858637 220.591088 
L 161.858637 220.254809 
L 162.169475 220.254809 
L 162.169475 219.918531 
L 162.678343 219.918531 
L 162.678343 219.750391 
L 163.792519 219.750391 
L 163.792519 219.582252 
L 165.608172 219.582252 
L 165.608172 219.245973 
L 168.566635 219.245973 
L 168.566635 219.077834 
L 170.124596 219.077834 
L 170.124596 218.909695 
L 170.337772 218.909695 
L 170.337772 218.573416 
L 170.59394 218.573416 
L 170.59394 218.405277 
L 171.43014 218.405277 
L 171.43014 218.237138 
L 172.967743 218.237138 
L 172.967743 218.068998 
L 174.359138 218.068998 
L 174.359138 217.900859 
L 176.640581 217.900859 
L 176.640581 217.73272 
L 177.123974 217.73272 
L 177.123974 217.56458 
L 177.753071 217.56458 
L 177.753071 217.228302 
L 178.83224 217.228302 
L 178.83224 216.892023 
L 183.486206 216.892023 
L 183.486206 216.555745 
L 184.274578 216.555745 
L 184.274578 216.387605 
L 186.015831 216.387605 
L 186.015831 216.219466 
L 188.753154 216.219466 
L 188.753154 216.051327 
L 188.940185 216.051327 
L 188.940185 215.883187 
L 189.632075 215.883187 
L 189.632075 215.546909 
L 191.408193 215.546909 
L 191.408193 215.21063 
L 192.19592 215.21063 
L 192.19592 215.042491 
L 195.052031 215.042491 
L 195.052031 214.706212 
L 196.84923 214.706212 
L 196.84923 214.538073 
L 233.074098 214.538073 
L 233.120545 214.033655 
L 233.667318 214.033655 
L 233.667318 213.697377 
L 338.688 213.697377 
L 338.688 213.697377 
" style="fill:none;stroke:#000080;stroke-linecap:square;stroke-width:1.5;"/>
   </g>
   <g id="line2d_36">
    <defs>
     <path d="M 0 6 
C 1.591219 6 3.117479 5.367802 4.242641 4.242641 
C 5.367802 3.117479 6 1.591219 6 0 
C 6 -1.591219 5.367802 -3.117479 4.242641 -4.242641 
C 3.117479 -5.367802 1.591219 -6 0 -6 
C -1.591219 -6 -3.117479 -5.367802 -4.242641 -4.242641 
C -5.367802 -3.117479 -6 -1.591219 -6 0 
C -6 1.591219 -5.367802 3.117479 -4.242641 4.242641 
C -3.117479 5.367802 -1.591219 6 0 6 
z
" id="mb76d60b8a0" style="stroke:#000080;stroke-width:1.5;"/>
    </defs>
    <g>
     <use style="fill-opacity:0;stroke:#000080;stroke-width:1.5;" x="69.687988" xlink:href="#mb76d60b8a0" y="287.510528"/>
     <use style="fill-opacity:0;stroke:#000080;stroke-width:1.5;" x="119.552816" xlink:href="#mb76d60b8a0" y="244.803146"/>
     <use style="fill-opacity:0;stroke:#000080;stroke-width:1.5;" x="196.84923" xlink:href="#mb76d60b8a0" y="214.706212"/>
     <use style="fill-opacity:0;stroke:#000080;stroke-width:1.5;" x="233.667318" xlink:href="#mb76d60b8a0" y="214.033655"/>
     <use style="fill-opacity:0;stroke:#000080;stroke-width:1.5;" x="233.667318" xlink:href="#mb76d60b8a0" y="213.697377"/>
     <use style="fill-opacity:0;stroke:#000080;stroke-width:1.5;" x="338.688" xlink:href="#mb76d60b8a0" y="213.697377"/>
    </g>
   </g>
   <g id="line2d_37">
    <path style="fill:none;stroke:#000080;stroke-linecap:square;stroke-width:1.5;"/>
    <g/>
   </g>
   <g id="line2d_38">
    <path clip-path="url(#p0e9005049e)" d="M 234.201724 213.697377 
" style="fill:none;stroke:#000080;stroke-linecap:square;stroke-width:1.5;"/>
    <defs>
     <path d="M -12 12 
L 12 -12 
M -12 -12 
L 12 12 
" id="m4c11692209" style="stroke:#000080;"/>
    </defs>
    <g clip-path="url(#p0e9005049e)">
     <use style="fill:#000080;stroke:#000080;" x="234.201724" xlink:href="#m4c11692209" y="213.697377"/>
    </g>
   </g>
   <g id="line2d_39">
    <defs>
     <path d="M 0 1.5 
C 0.397805 1.5 0.77937 1.341951 1.06066 1.06066 
C 1.341951 0.77937 1.5 0.397805 1.5 0 
C 1.5 -0.397805 1.341951 -0.77937 1.06066 -1.06066 
C 0.77937 -1.341951 0.397805 -1.5 0 -1.5 
C -0.397805 -1.5 -0.77937 -1.341951 -1.06066 -1.06066 
C -1.341951 -0.77937 -1.5 -0.397805 -1.5 0 
C -1.5 0.397805 -1.341951 0.77937 -1.06066 1.06066 
C -0.77937 1.341951 -0.397805 1.5 0 1.5 
z
" id="m53e382f7f7" style="stroke:#ff00ff;"/>
    </defs>
    <g>
     <use style="fill:#ff00ff;stroke:#ff00ff;" x="234.071495" xlink:href="#m53e382f7f7" y="239.927107"/>
     <use style="fill:#ff00ff;stroke:#ff00ff;" x="234.071495" xlink:href="#m53e382f7f7" y="239.927107"/>
    </g>
   </g>
   <g id="line2d_40">
    <path d="M 60.779557 298.944 
L 60.779557 288.855642 
L 98.43941 288.855642 
L 98.43941 288.687503 
L 102.196206 288.687503 
L 102.196206 288.351224 
L 102.330873 288.351224 
L 102.330873 288.183085 
L 102.464508 288.183085 
L 102.464508 288.014946 
L 103.372333 288.014946 
L 103.372333 287.846806 
L 103.498249 287.846806 
L 103.498249 286.837971 
L 103.747386 286.837971 
L 103.747386 286.669831 
L 104.114542 286.669831 
L 104.114542 286.501692 
L 104.23523 286.501692 
L 104.23523 285.829135 
L 104.474128 285.829135 
L 104.474128 285.660996 
L 104.592361 285.660996 
L 104.592361 284.820299 
L 105.951954 284.820299 
L 105.951954 284.65216 
L 107.614095 284.65216 
L 107.614095 284.48402 
L 110.61104 284.48402 
L 110.61104 284.315881 
L 111.897469 284.315881 
L 111.897469 284.147742 
L 112.280765 284.147742 
L 112.280765 283.979603 
L 112.877038 283.979603 
L 112.950158 283.475185 
L 113.022974 283.475185 
L 113.022974 282.970767 
L 113.73488 282.970767 
L 113.73488 282.802628 
L 116.856209 282.802628 
L 116.856209 282.634488 
L 117.030313 282.634488 
L 117.030313 282.29821 
L 117.429921 282.29821 
L 117.486268 281.625652 
L 117.875678 281.625652 
L 117.985359 281.289374 
L 118.202674 281.289374 
L 118.202674 281.121235 
L 118.576578 281.121235 
L 118.576578 280.953095 
L 119.097192 280.953095 
L 119.097192 280.784956 
L 119.45259 280.784956 
L 119.45259 280.616817 
L 120.47729 280.616817 
L 120.571812 279.944259 
L 122.233953 279.944259 
L 122.233953 279.77612 
L 123.029641 279.77612 
L 123.029641 279.607981 
L 123.593547 279.607981 
L 123.593547 279.439842 
L 124.743806 279.439842 
L 124.743806 278.431006 
L 126.439646 278.431006 
L 126.439646 278.262867 
L 127.985095 278.262867 
L 127.985095 278.094727 
L 130.398313 278.094727 
L 130.398313 277.42217 
L 132.422528 277.42217 
L 132.422528 277.085891 
L 132.659801 277.085891 
L 132.659801 276.581474 
L 133.555497 276.581474 
L 133.555497 276.413334 
L 135.542259 276.413334 
L 135.542259 276.245195 
L 136.034648 276.245195 
L 136.034648 276.077056 
L 136.418789 276.077056 
L 136.418789 275.404498 
L 138.828032 275.404498 
L 138.828032 275.236359 
L 139.715103 275.236359 
L 139.715103 274.900081 
L 140.499195 274.900081 
L 140.499195 273.386827 
L 141.521035 273.386827 
L 141.521035 273.218688 
L 143.234658 273.218688 
L 143.234658 273.050548 
L 143.51512 273.050548 
L 143.51512 272.882409 
L 143.641127 272.882409 
L 143.653678 272.377991 
L 143.840863 272.377991 
L 143.890442 269.855902 
L 144.111818 269.855902 
L 144.111818 269.687762 
L 144.269971 269.687762 
L 144.269971 269.351484 
L 144.853518 269.351484 
L 144.865226 268.678927 
L 144.981877 268.678927 
L 144.981877 266.829394 
L 145.865929 266.829394 
L 145.865929 266.661255 
L 147.154371 266.661255 
L 147.256714 265.820559 
L 147.307662 265.820559 
L 147.307662 265.652419 
L 148.639252 265.652419 
L 148.639252 265.48428 
L 149.195872 265.48428 
L 149.205001 264.979862 
L 150.649257 264.979862 
L 150.649257 264.811723 
L 151.405461 264.811723 
L 151.405461 264.643583 
L 151.881541 264.643583 
L 151.881541 264.307305 
L 152.137948 264.307305 
L 152.137948 264.139166 
L 152.283884 264.139166 
L 152.283884 263.971026 
L 154.36511 263.971026 
L 154.36511 263.634748 
L 154.794242 263.634748 
L 154.794242 263.466608 
L 155.290488 263.466608 
L 155.290488 262.289633 
L 155.672525 262.289633 
L 155.672525 261.953355 
L 155.798033 261.953355 
L 155.798033 261.785215 
L 155.916435 261.785215 
L 155.916435 261.448937 
L 156.107908 261.448937 
L 156.107908 261.280798 
L 156.953214 261.280798 
L 156.953214 260.944519 
L 158.195371 260.944519 
L 158.195371 260.60824 
L 159.349804 260.60824 
L 159.349804 260.440101 
L 160.437332 260.440101 
L 160.437332 260.103822 
L 160.788407 260.103822 
L 160.788407 259.935683 
L 161.3249 259.935683 
L 161.3249 259.599405 
L 162.299167 259.599405 
L 162.299167 259.431265 
L 163.537636 259.431265 
L 163.537636 259.263126 
L 164.310575 259.263126 
L 164.329754 258.926847 
L 165.010195 258.926847 
L 165.120455 258.25429 
L 165.35337 258.25429 
L 165.35337 258.086151 
L 165.788929 258.086151 
L 165.788929 257.918012 
L 166.068747 257.918012 
L 166.068747 257.749872 
L 166.862349 257.749872 
L 166.862349 257.581733 
L 167.320442 257.581733 
L 167.320442 257.413594 
L 169.360135 257.413594 
L 169.360135 257.077315 
L 169.571453 257.077315 
L 169.571453 256.909176 
L 173.728826 256.909176 
L 173.728826 256.741037 
L 174.196608 256.741037 
L 174.196608 256.572897 
L 174.647927 256.572897 
L 174.647927 256.404758 
L 174.806323 256.404758 
L 174.806323 256.236619 
L 175.597519 256.236619 
L 175.597519 256.068479 
L 176.02618 256.068479 
L 176.02618 255.90034 
L 180.023962 255.90034 
L 180.023962 255.732201 
L 184.033489 255.732201 
L 184.033489 255.564061 
L 184.56532 255.564061 
L 184.56532 255.395922 
L 186.015831 255.395922 
L 186.015831 255.227783 
L 186.500968 255.227783 
L 186.500968 255.059644 
L 189.513976 255.059644 
L 189.513976 254.723365 
L 189.632075 254.723365 
L 189.632075 254.387086 
L 190.223892 254.387086 
L 190.223892 254.218947 
L 190.988523 254.218947 
L 190.988523 253.714529 
L 191.130912 253.714529 
L 191.130912 253.54639 
L 195.762331 253.54639 
L 195.762331 253.378251 
L 196.776017 253.378251 
L 196.776017 253.210111 
L 197.547826 253.210111 
L 197.547826 252.873833 
L 197.667255 252.873833 
L 197.727793 252.369415 
L 198.163965 252.369415 
L 198.265575 251.864997 
L 198.397061 251.864997 
L 198.397061 251.528718 
L 199.437773 251.528718 
L 199.437773 251.19244 
L 200.500986 251.19244 
L 200.503395 250.688022 
L 200.740218 250.688022 
L 200.740218 250.351743 
L 203.072355 250.351743 
L 203.072355 250.183604 
L 204.528066 250.183604 
L 204.528066 250.015465 
L 204.648495 250.015465 
L 204.730338 249.511047 
L 204.90486 249.511047 
L 204.953445 249.174768 
L 205.077653 249.174768 
L 205.138689 248.165932 
L 205.71258 248.165932 
L 205.71258 247.661515 
L 206.82039 247.661515 
L 206.82039 247.493375 
L 206.937691 247.493375 
L 206.937691 247.325236 
L 207.188349 247.325236 
L 207.188349 247.157097 
L 208.103244 247.157097 
L 208.103244 246.988957 
L 209.434644 246.988957 
L 209.434644 246.820818 
L 209.87611 246.820818 
L 209.87611 246.652679 
L 210.930976 246.652679 
L 210.930976 246.484539 
L 213.142785 246.484539 
L 213.142785 246.3164 
L 213.39369 246.3164 
L 213.39369 246.148261 
L 214.849545 246.148261 
L 214.849545 245.980122 
L 216.778779 245.980122 
L 216.778779 245.811982 
L 217.769813 245.811982 
L 217.769813 245.643843 
L 218.211946 245.643843 
L 218.211946 245.475704 
L 218.484453 245.475704 
L 218.58705 244.635007 
L 218.797539 244.635007 
L 218.797539 244.466868 
L 219.380595 244.466868 
L 219.380595 244.298729 
L 220.2815 244.298729 
L 220.2815 243.96245 
L 220.425487 243.96245 
L 220.425487 243.794311 
L 220.718708 243.794311 
L 220.718708 243.458032 
L 221.177491 243.458032 
L 221.177491 243.289893 
L 221.526528 243.289893 
L 221.526528 243.121753 
L 224.288463 243.121753 
L 224.288463 242.953614 
L 224.540939 242.953614 
L 224.540939 242.785475 
L 224.654909 242.785475 
L 224.654909 242.617336 
L 224.850375 242.617336 
L 224.88528 242.281057 
L 227.443043 242.281057 
L 227.443043 241.944778 
L 228.107311 241.944778 
L 228.107311 241.776639 
L 228.950581 241.776639 
L 228.950581 241.6085 
L 230.882574 241.6085 
L 230.882574 241.440361 
L 231.045505 241.440361 
L 231.045505 241.104082 
L 231.18878 241.104082 
L 231.18878 240.935943 
L 231.46997 240.935943 
L 231.46997 240.599664 
L 232.278832 240.599664 
L 232.278832 240.431525 
L 233.212257 240.431525 
L 233.212257 240.263385 
L 233.778091 240.263385 
L 233.778091 240.095246 
L 234.071495 240.095246 
L 234.071495 239.927107 
L 338.688 239.927107 
L 338.688 239.927107 
" style="fill:none;stroke:#ff00ff;stroke-linecap:square;stroke-width:1.5;"/>
   </g>
   <g id="line2d_41">
    <defs>
     <path d="M 0 8.485281 
L 5.091169 0 
L 0 -8.485281 
L -5.091169 0 
z
" id="mfb750853ff" style="stroke:#ff00ff;stroke-linejoin:miter;stroke-width:1.5;"/>
    </defs>
    <g>
     <use style="fill-opacity:0;stroke:#ff00ff;stroke-linejoin:miter;stroke-width:1.5;" x="145.865929" xlink:href="#mfb750853ff" y="266.829394"/>
     <use style="fill-opacity:0;stroke:#ff00ff;stroke-linejoin:miter;stroke-width:1.5;" x="228.107311" xlink:href="#mfb750853ff" y="241.944778"/>
     <use style="fill-opacity:0;stroke:#ff00ff;stroke-linejoin:miter;stroke-width:1.5;" x="234.071495" xlink:href="#mfb750853ff" y="239.927107"/>
     <use style="fill-opacity:0;stroke:#ff00ff;stroke-linejoin:miter;stroke-width:1.5;" x="234.071495" xlink:href="#mfb750853ff" y="239.927107"/>
     <use style="fill-opacity:0;stroke:#ff00ff;stroke-linejoin:miter;stroke-width:1.5;" x="338.688" xlink:href="#mfb750853ff" y="239.927107"/>
    </g>
   </g>
   <g id="line2d_42">
    <path style="fill:none;stroke:#ff00ff;stroke-linecap:square;stroke-width:1.5;"/>
    <g/>
   </g>
   <g id="line2d_43">
    <path clip-path="url(#p0e9005049e)" d="M 234.201863 239.927107 
" style="fill:none;stroke:#ff00ff;stroke-linecap:square;stroke-width:1.5;"/>
    <defs>
     <path d="M -12 12 
L 12 -12 
M -12 -12 
L 12 12 
" id="m2ecfc5d6c4" style="stroke:#ff00ff;"/>
    </defs>
    <g clip-path="url(#p0e9005049e)">
     <use style="fill:#ff00ff;stroke:#ff00ff;" x="234.201863" xlink:href="#m2ecfc5d6c4" y="239.927107"/>
    </g>
   </g>
   <g id="line2d_44">
    <path d="M 338.688 239.927107 
L 369.60768 293.092752 
" style="fill:none;stroke:#ff00ff;stroke-linecap:square;stroke-width:1.5;"/>
    <g>
     <use style="fill-opacity:0;stroke:#ff00ff;stroke-linejoin:miter;stroke-width:1.5;" x="338.688" xlink:href="#mfb750853ff" y="239.927107"/>
     <use style="fill-opacity:0;stroke:#ff00ff;stroke-linejoin:miter;stroke-width:1.5;" x="369.60768" xlink:href="#mfb750853ff" y="293.092752"/>
    </g>
   </g>
   <g id="line2d_45">
    <path d="M 338.688 213.697377 
L 369.60768 152.662812 
" style="fill:none;stroke:#000080;stroke-linecap:square;stroke-width:1.5;"/>
    <g>
     <use style="fill-opacity:0;stroke:#000080;stroke-width:1.5;" x="338.688" xlink:href="#mb76d60b8a0" y="213.697377"/>
     <use style="fill-opacity:0;stroke:#000080;stroke-width:1.5;" x="369.60768" xlink:href="#mb76d60b8a0" y="152.662812"/>
    </g>
   </g>
   <g id="line2d_46">
    <path d="M 338.688 298.944 
L 338.688 6.381624 
" style="fill:none;stroke:#000000;stroke-linecap:square;stroke-width:1.5;"/>
   </g>
   <g id="patch_3">
    <path d="M 57.6 298.944 
L 57.6 3.456 
" style="fill:none;stroke:#000000;stroke-linecap:square;stroke-linejoin:miter;stroke-width:0.8;"/>
   </g>
   <g id="patch_4">
    <path d="M 338.688 298.944 
L 338.688 3.456 
" style="fill:none;stroke:#000000;stroke-linecap:square;stroke-linejoin:miter;stroke-width:0.8;"/>
   </g>
   <g id="patch_5">
    <path d="M 57.6 298.944 
L 338.688 298.944 
" style="fill:none;stroke:#000000;stroke-linecap:square;stroke-linejoin:miter;stroke-width:0.8;"/>
   </g>
   <g id="patch_6">
    <path d="M 57.6 3.456 
L 338.688 3.456 
" style="fill:none;stroke:#000000;stroke-linecap:square;stroke-linejoin:miter;stroke-width:0.8;"/>
   </g>
   <g id="text_13">
    <!-- MultiGLOD -->
    <g transform="translate(375.22944 297.78369)scale(0.17 -0.17)">
     <defs>
      <path d="M 628 4666 
L 1569 4666 
L 2759 1491 
L 3956 4666 
L 4897 4666 
L 4897 0 
L 4281 0 
L 4281 4097 
L 3078 897 
L 2444 897 
L 1241 4097 
L 1241 0 
L 628 0 
L 628 4666 
z
" id="DejaVuSans-4d" transform="scale(0.015625)"/>
      <path d="M 3809 666 
L 3809 1919 
L 2778 1919 
L 2778 2438 
L 4434 2438 
L 4434 434 
Q 4069 175 3628 42 
Q 3188 -91 2688 -91 
Q 1594 -91 976 548 
Q 359 1188 359 2328 
Q 359 3472 976 4111 
Q 1594 4750 2688 4750 
Q 3144 4750 3555 4637 
Q 3966 4525 4313 4306 
L 4313 3634 
Q 3963 3931 3569 4081 
Q 3175 4231 2741 4231 
Q 1884 4231 1454 3753 
Q 1025 3275 1025 2328 
Q 1025 1384 1454 906 
Q 1884 428 2741 428 
Q 3075 428 3337 486 
Q 3600 544 3809 666 
z
" id="DejaVuSans-47" transform="scale(0.015625)"/>
      <path d="M 628 4666 
L 1259 4666 
L 1259 531 
L 3531 531 
L 3531 0 
L 628 0 
L 628 4666 
z
" id="DejaVuSans-4c" transform="scale(0.015625)"/>
      <path d="M 2522 4238 
Q 1834 4238 1429 3725 
Q 1025 3213 1025 2328 
Q 1025 1447 1429 934 
Q 1834 422 2522 422 
Q 3209 422 3611 934 
Q 4013 1447 4013 2328 
Q 4013 3213 3611 3725 
Q 3209 4238 2522 4238 
z
M 2522 4750 
Q 3503 4750 4090 4092 
Q 4678 3434 4678 2328 
Q 4678 1225 4090 567 
Q 3503 -91 2522 -91 
Q 1538 -91 948 565 
Q 359 1222 359 2328 
Q 359 3434 948 4092 
Q 1538 4750 2522 4750 
z
" id="DejaVuSans-4f" transform="scale(0.015625)"/>
      <path d="M 1259 4147 
L 1259 519 
L 2022 519 
Q 2988 519 3436 956 
Q 3884 1394 3884 2338 
Q 3884 3275 3436 3711 
Q 2988 4147 2022 4147 
L 1259 4147 
z
M 628 4666 
L 1925 4666 
Q 3281 4666 3915 4102 
Q 4550 3538 4550 2338 
Q 4550 1131 3912 565 
Q 3275 0 1925 0 
L 628 0 
L 628 4666 
z
" id="DejaVuSans-44" transform="scale(0.015625)"/>
     </defs>
     <use xlink:href="#DejaVuSans-4d"/>
     <use x="86.279297" xlink:href="#DejaVuSans-75"/>
     <use x="149.658203" xlink:href="#DejaVuSans-6c"/>
     <use x="177.441406" xlink:href="#DejaVuSans-74"/>
     <use x="216.650391" xlink:href="#DejaVuSans-69"/>
     <use x="244.433594" xlink:href="#DejaVuSans-47"/>
     <use x="321.923828" xlink:href="#DejaVuSans-4c"/>
     <use x="374.011719" xlink:href="#DejaVuSans-4f"/>
     <use x="452.722656" xlink:href="#DejaVuSans-44"/>
    </g>
   </g>
   <g id="text_14">
    <!-- DMS Brock -->
    <g transform="translate(375.22944 157.353749)scale(0.17 -0.17)">
     <defs>
      <path d="M 3425 4513 
L 3425 3897 
Q 3066 4069 2747 4153 
Q 2428 4238 2131 4238 
Q 1616 4238 1336 4038 
Q 1056 3838 1056 3469 
Q 1056 3159 1242 3001 
Q 1428 2844 1947 2747 
L 2328 2669 
Q 3034 2534 3370 2195 
Q 3706 1856 3706 1288 
Q 3706 609 3251 259 
Q 2797 -91 1919 -91 
Q 1588 -91 1214 -16 
Q 841 59 441 206 
L 441 856 
Q 825 641 1194 531 
Q 1563 422 1919 422 
Q 2459 422 2753 634 
Q 3047 847 3047 1241 
Q 3047 1584 2836 1778 
Q 2625 1972 2144 2069 
L 1759 2144 
Q 1053 2284 737 2584 
Q 422 2884 422 3419 
Q 422 4038 858 4394 
Q 1294 4750 2059 4750 
Q 2388 4750 2728 4690 
Q 3069 4631 3425 4513 
z
" id="DejaVuSans-53" transform="scale(0.015625)"/>
      <path d="M 1259 2228 
L 1259 519 
L 2272 519 
Q 2781 519 3026 730 
Q 3272 941 3272 1375 
Q 3272 1813 3026 2020 
Q 2781 2228 2272 2228 
L 1259 2228 
z
M 1259 4147 
L 1259 2741 
L 2194 2741 
Q 2656 2741 2882 2914 
Q 3109 3088 3109 3444 
Q 3109 3797 2882 3972 
Q 2656 4147 2194 4147 
L 1259 4147 
z
M 628 4666 
L 2241 4666 
Q 2963 4666 3353 4366 
Q 3744 4066 3744 3513 
Q 3744 3084 3544 2831 
Q 3344 2578 2956 2516 
Q 3422 2416 3680 2098 
Q 3938 1781 3938 1306 
Q 3938 681 3513 340 
Q 3088 0 2303 0 
L 628 0 
L 628 4666 
z
" id="DejaVuSans-42" transform="scale(0.015625)"/>
      <path d="M 581 4863 
L 1159 4863 
L 1159 1991 
L 2875 3500 
L 3609 3500 
L 1753 1863 
L 3688 0 
L 2938 0 
L 1159 1709 
L 1159 0 
L 581 0 
L 581 4863 
z
" id="DejaVuSans-6b" transform="scale(0.015625)"/>
     </defs>
     <use xlink:href="#DejaVuSans-44"/>
     <use x="77.001953" xlink:href="#DejaVuSans-4d"/>
     <use x="163.28125" xlink:href="#DejaVuSans-53"/>
     <use x="226.757812" xlink:href="#DejaVuSans-20"/>
     <use x="258.544922" xlink:href="#DejaVuSans-42"/>
     <use x="327.148438" xlink:href="#DejaVuSans-72"/>
     <use x="366.011719" xlink:href="#DejaVuSans-6f"/>
     <use x="427.193359" xlink:href="#DejaVuSans-63"/>
     <use x="482.173828" xlink:href="#DejaVuSans-6b"/>
    </g>
   </g>
   <g id="text_15">
    <!-- best 2016 -->
    <g transform="translate(375.22944 16.923809)scale(0.17 -0.17)">
     <defs>
      <path d="M 3116 1747 
Q 3116 2381 2855 2742 
Q 2594 3103 2138 3103 
Q 1681 3103 1420 2742 
Q 1159 2381 1159 1747 
Q 1159 1113 1420 752 
Q 1681 391 2138 391 
Q 2594 391 2855 752 
Q 3116 1113 3116 1747 
z
M 1159 2969 
Q 1341 3281 1617 3432 
Q 1894 3584 2278 3584 
Q 2916 3584 3314 3078 
Q 3713 2572 3713 1747 
Q 3713 922 3314 415 
Q 2916 -91 2278 -91 
Q 1894 -91 1617 61 
Q 1341 213 1159 525 
L 1159 0 
L 581 0 
L 581 4863 
L 1159 4863 
L 1159 2969 
z
" id="DejaVuSans-62" transform="scale(0.015625)"/>
     </defs>
     <use xlink:href="#DejaVuSans-62"/>
     <use x="63.476562" xlink:href="#DejaVuSans-65"/>
     <use x="125" xlink:href="#DejaVuSans-73"/>
     <use x="177.099609" xlink:href="#DejaVuSans-74"/>
     <use x="216.308594" xlink:href="#DejaVuSans-20"/>
     <use x="248.095703" xlink:href="#DejaVuSans-32"/>
     <use x="311.71875" xlink:href="#DejaVuSans-30"/>
     <use x="375.341797" xlink:href="#DejaVuSans-31"/>
     <use x="438.964844" xlink:href="#DejaVuSans-36"/>
    </g>
   </g>
   <g id="text_16">
    <!-- bbob-biobj f53-f55, 10-D -->
    <g transform="translate(60.41088 14.161286)scale(0.102 -0.102)">
     <defs>
      <path d="M 603 3500 
L 1178 3500 
L 1178 -63 
Q 1178 -731 923 -1031 
Q 669 -1331 103 -1331 
L -116 -1331 
L -116 -844 
L 38 -844 
Q 366 -844 484 -692 
Q 603 -541 603 -63 
L 603 3500 
z
M 603 4863 
L 1178 4863 
L 1178 4134 
L 603 4134 
L 603 4863 
z
" id="DejaVuSans-6a" transform="scale(0.015625)"/>
      <path d="M 691 4666 
L 3169 4666 
L 3169 4134 
L 1269 4134 
L 1269 2991 
Q 1406 3038 1543 3061 
Q 1681 3084 1819 3084 
Q 2600 3084 3056 2656 
Q 3513 2228 3513 1497 
Q 3513 744 3044 326 
Q 2575 -91 1722 -91 
Q 1428 -91 1123 -41 
Q 819 9 494 109 
L 494 744 
Q 775 591 1075 516 
Q 1375 441 1709 441 
Q 2250 441 2565 725 
Q 2881 1009 2881 1497 
Q 2881 1984 2565 2268 
Q 2250 2553 1709 2553 
Q 1456 2553 1204 2497 
Q 953 2441 691 2322 
L 691 4666 
z
" id="DejaVuSans-35" transform="scale(0.015625)"/>
      <path d="M 2597 2516 
Q 3050 2419 3304 2112 
Q 3559 1806 3559 1356 
Q 3559 666 3084 287 
Q 2609 -91 1734 -91 
Q 1441 -91 1130 -33 
Q 819 25 488 141 
L 488 750 
Q 750 597 1062 519 
Q 1375 441 1716 441 
Q 2309 441 2620 675 
Q 2931 909 2931 1356 
Q 2931 1769 2642 2001 
Q 2353 2234 1838 2234 
L 1294 2234 
L 1294 2753 
L 1863 2753 
Q 2328 2753 2575 2939 
Q 2822 3125 2822 3475 
Q 2822 3834 2567 4026 
Q 2313 4219 1838 4219 
Q 1578 4219 1281 4162 
Q 984 4106 628 3988 
L 628 4550 
Q 988 4650 1302 4700 
Q 1616 4750 1894 4750 
Q 2613 4750 3031 4423 
Q 3450 4097 3450 3541 
Q 3450 3153 3228 2886 
Q 3006 2619 2597 2516 
z
" id="DejaVuSans-33" transform="scale(0.015625)"/>
     </defs>
     <use xlink:href="#DejaVuSans-62"/>
     <use x="63.476562" xlink:href="#DejaVuSans-62"/>
     <use x="126.953125" xlink:href="#DejaVuSans-6f"/>
     <use x="188.134766" xlink:href="#DejaVuSans-62"/>
     <use x="251.611328" xlink:href="#DejaVuSans-2d"/>
     <use x="287.695312" xlink:href="#DejaVuSans-62"/>
     <use x="351.171875" xlink:href="#DejaVuSans-69"/>
     <use x="378.955078" xlink:href="#DejaVuSans-6f"/>
     <use x="440.136719" xlink:href="#DejaVuSans-62"/>
     <use x="503.613281" xlink:href="#DejaVuSans-6a"/>
     <use x="531.396484" xlink:href="#DejaVuSans-20"/>
     <use x="563.183594" xlink:href="#DejaVuSans-66"/>
     <use x="598.388672" xlink:href="#DejaVuSans-35"/>
     <use x="662.011719" xlink:href="#DejaVuSans-33"/>
     <use x="725.634766" xlink:href="#DejaVuSans-2d"/>
     <use x="761.71875" xlink:href="#DejaVuSans-66"/>
     <use x="796.923828" xlink:href="#DejaVuSans-35"/>
     <use x="860.546875" xlink:href="#DejaVuSans-35"/>
     <use x="924.169922" xlink:href="#DejaVuSans-2c"/>
     <use x="955.957031" xlink:href="#DejaVuSans-20"/>
     <use x="987.744141" xlink:href="#DejaVuSans-31"/>
     <use x="1051.367188" xlink:href="#DejaVuSans-30"/>
     <use x="1114.990234" xlink:href="#DejaVuSans-2d"/>
     <use x="1151.074219" xlink:href="#DejaVuSans-44"/>
    </g>
    <!-- 58 targets: 1..-1.0e-4 -->
    <g transform="translate(60.41088 25.583055)scale(0.102 -0.102)">
     <defs>
      <path d="M 750 794 
L 1409 794 
L 1409 0 
L 750 0 
L 750 794 
z
M 750 3309 
L 1409 3309 
L 1409 2516 
L 750 2516 
L 750 3309 
z
" id="DejaVuSans-3a" transform="scale(0.015625)"/>
     </defs>
     <use xlink:href="#DejaVuSans-35"/>
     <use x="63.623047" xlink:href="#DejaVuSans-38"/>
     <use x="127.246094" xlink:href="#DejaVuSans-20"/>
     <use x="159.033203" xlink:href="#DejaVuSans-74"/>
     <use x="198.242188" xlink:href="#DejaVuSans-61"/>
     <use x="259.521484" xlink:href="#DejaVuSans-72"/>
     <use x="298.884766" xlink:href="#DejaVuSans-67"/>
     <use x="362.361328" xlink:href="#DejaVuSans-65"/>
     <use x="423.884766" xlink:href="#DejaVuSans-74"/>
     <use x="463.09375" xlink:href="#DejaVuSans-73"/>
     <use x="515.193359" xlink:href="#DejaVuSans-3a"/>
     <use x="548.884766" xlink:href="#DejaVuSans-20"/>
     <use x="580.671875" xlink:href="#DejaVuSans-31"/>
     <use x="644.294922" xlink:href="#DejaVuSans-2e"/>
     <use x="676.082031" xlink:href="#DejaVuSans-2e"/>
     <use x="707.869141" xlink:href="#DejaVuSans-2d"/>
     <use x="743.953125" xlink:href="#DejaVuSans-31"/>
     <use x="807.576172" xlink:href="#DejaVuSans-2e"/>
     <use x="839.363281" xlink:href="#DejaVuSans-30"/>
     <use x="902.986328" xlink:href="#DejaVuSans-65"/>
     <use x="964.509766" xlink:href="#DejaVuSans-2d"/>
     <use x="1000.59375" xlink:href="#DejaVuSans-34"/>
    </g>
    <!-- 10 instances -->
    <g transform="translate(60.41088 37.004824)scale(0.102 -0.102)">
     <use xlink:href="#DejaVuSans-31"/>
     <use x="63.623047" xlink:href="#DejaVuSans-30"/>
     <use x="127.246094" xlink:href="#DejaVuSans-20"/>
     <use x="159.033203" xlink:href="#DejaVuSans-69"/>
     <use x="186.816406" xlink:href="#DejaVuSans-6e"/>
     <use x="250.195312" xlink:href="#DejaVuSans-73"/>
     <use x="302.294922" xlink:href="#DejaVuSans-74"/>
     <use x="341.503906" xlink:href="#DejaVuSans-61"/>
     <use x="402.783203" xlink:href="#DejaVuSans-6e"/>
     <use x="466.162109" xlink:href="#DejaVuSans-63"/>
     <use x="521.142578" xlink:href="#DejaVuSans-65"/>
     <use x="582.666016" xlink:href="#DejaVuSans-73"/>
    </g>
   </g>
   <g id="text_17">
    <!-- v2.4.1.1, hv-hash=ff0e71e8cd978373 -->
    <g style="fill:#808080;" transform="translate(103.108062 293.909432)scale(0.1 -0.1)">
     <defs>
      <path d="M 3513 2113 
L 3513 0 
L 2938 0 
L 2938 2094 
Q 2938 2591 2744 2837 
Q 2550 3084 2163 3084 
Q 1697 3084 1428 2787 
Q 1159 2491 1159 1978 
L 1159 0 
L 581 0 
L 581 4863 
L 1159 4863 
L 1159 2956 
Q 1366 3272 1645 3428 
Q 1925 3584 2291 3584 
Q 2894 3584 3203 3211 
Q 3513 2838 3513 2113 
z
" id="DejaVuSans-68" transform="scale(0.015625)"/>
      <path d="M 678 2906 
L 4684 2906 
L 4684 2381 
L 678 2381 
L 678 2906 
z
M 678 1631 
L 4684 1631 
L 4684 1100 
L 678 1100 
L 678 1631 
z
" id="DejaVuSans-3d" transform="scale(0.015625)"/>
      <path d="M 525 4666 
L 3525 4666 
L 3525 4397 
L 1831 0 
L 1172 0 
L 2766 4134 
L 525 4134 
L 525 4666 
z
" id="DejaVuSans-37" transform="scale(0.015625)"/>
      <path d="M 703 97 
L 703 672 
Q 941 559 1184 500 
Q 1428 441 1663 441 
Q 2288 441 2617 861 
Q 2947 1281 2994 2138 
Q 2813 1869 2534 1725 
Q 2256 1581 1919 1581 
Q 1219 1581 811 2004 
Q 403 2428 403 3163 
Q 403 3881 828 4315 
Q 1253 4750 1959 4750 
Q 2769 4750 3195 4129 
Q 3622 3509 3622 2328 
Q 3622 1225 3098 567 
Q 2575 -91 1691 -91 
Q 1453 -91 1209 -44 
Q 966 3 703 97 
z
M 1959 2075 
Q 2384 2075 2632 2365 
Q 2881 2656 2881 3163 
Q 2881 3666 2632 3958 
Q 2384 4250 1959 4250 
Q 1534 4250 1286 3958 
Q 1038 3666 1038 3163 
Q 1038 2656 1286 2365 
Q 1534 2075 1959 2075 
z
" id="DejaVuSans-39" transform="scale(0.015625)"/>
     </defs>
     <use xlink:href="#DejaVuSans-76"/>
     <use x="59.179688" xlink:href="#DejaVuSans-32"/>
     <use x="122.802734" xlink:href="#DejaVuSans-2e"/>
     <use x="154.589844" xlink:href="#DejaVuSans-34"/>
     <use x="218.212891" xlink:href="#DejaVuSans-2e"/>
     <use x="250" xlink:href="#DejaVuSans-31"/>
     <use x="313.623047" xlink:href="#DejaVuSans-2e"/>
     <use x="345.410156" xlink:href="#DejaVuSans-31"/>
     <use x="409.033203" xlink:href="#DejaVuSans-2c"/>
     <use x="440.820312" xlink:href="#DejaVuSans-20"/>
     <use x="472.607422" xlink:href="#DejaVuSans-68"/>
     <use x="535.986328" xlink:href="#DejaVuSans-76"/>
     <use x="592.541016" xlink:href="#DejaVuSans-2d"/>
     <use x="628.625" xlink:href="#DejaVuSans-68"/>
     <use x="692.003906" xlink:href="#DejaVuSans-61"/>
     <use x="753.283203" xlink:href="#DejaVuSans-73"/>
     <use x="805.382812" xlink:href="#DejaVuSans-68"/>
     <use x="868.761719" xlink:href="#DejaVuSans-3d"/>
     <use x="952.550781" xlink:href="#DejaVuSans-66"/>
     <use x="987.755859" xlink:href="#DejaVuSans-66"/>
     <use x="1022.960938" xlink:href="#DejaVuSans-30"/>
     <use x="1086.583984" xlink:href="#DejaVuSans-65"/>
     <use x="1148.107422" xlink:href="#DejaVuSans-37"/>
     <use x="1211.730469" xlink:href="#DejaVuSans-31"/>
     <use x="1275.353516" xlink:href="#DejaVuSans-65"/>
     <use x="1336.876953" xlink:href="#DejaVuSans-38"/>
     <use x="1400.5" xlink:href="#DejaVuSans-63"/>
     <use x="1455.480469" xlink:href="#DejaVuSans-64"/>
     <use x="1518.957031" xlink:href="#DejaVuSans-39"/>
     <use x="1582.580078" xlink:href="#DejaVuSans-37"/>
     <use x="1646.203125" xlink:href="#DejaVuSans-38"/>
     <use x="1709.826172" xlink:href="#DejaVuSans-33"/>
     <use x="1773.449219" xlink:href="#DejaVuSans-37"/>
     <use x="1837.072266" xlink:href="#DejaVuSans-33"/>
    </g>
   </g>
  </g>
 </g>
 <defs>
  <clipPath id="p0e9005049e">
   <rect height="295.488" width="281.088" x="57.6" y="3.456"/>
  </clipPath>
 </defs>
</svg>
