<?xml version="1.0" encoding="utf-8" standalone="no"?>
<!DOCTYPE svg PUBLIC "-//W3C//DTD SVG 1.1//EN"
  "http://www.w3.org/Graphics/SVG/1.1/DTD/svg11.dtd">
<svg height="345.6pt" version="1.1" viewBox="0 0 460.8 345.6" width="460.8pt" xmlns="http://www.w3.org/2000/svg" xmlns:xlink="http://www.w3.org/1999/xlink">
 <metadata>
  <rdf:RDF xmlns:cc="http://creativecommons.org/ns#" xmlns:dc="http://purl.org/dc/elements/1.1/" xmlns:rdf="http://www.w3.org/1999/02/22-rdf-syntax-ns#">
   <cc:Work>
    <dc:type rdf:resource="http://purl.org/dc/dcmitype/StillImage"/>
    <dc:date>2022-03-29T13:08:17.181274</dc:date>
    <dc:format>image/svg+xml</dc:format>
    <dc:creator>
     <cc:Agent>
      <dc:title>Matplotlib v3.4.3, https://matplotlib.org/</dc:title>
     </cc:Agent>
    </dc:creator>
   </cc:Work>
  </rdf:RDF>
 </metadata>
 <defs>
  <style type="text/css">*{stroke-linecap:butt;stroke-linejoin:round;}</style>
 </defs>
 <g id="figure_1">
  <g id="patch_1">
   <path d="M 0 345.6 
L 460.8 345.6 
L 460.8 0 
L 0 0 
z
" style="fill:#ffffff;"/>
  </g>
  <g id="axes_1">
   <g id="patch_2">
    <path d="M 57.6 298.944 
L 338.688 298.944 
L 338.688 3.456 
L 57.6 3.456 
z
" style="fill:#ffffff;"/>
   </g>
   <g id="line2d_1">
    <path d="M 64.67102 298.944 
L 64.67102 297.262607 
L 69.687988 297.262607 
L 69.687988 295.581214 
L 73.579452 295.581214 
L 73.579452 292.218428 
L 81.775977 292.218428 
L 81.775977 290.537035 
L 85.66744 290.537035 
L 85.66744 287.174249 
L 87.329581 287.174249 
L 87.329581 283.811463 
L 93.863965 283.811463 
L 93.863965 282.13007 
L 97.755429 282.13007 
L 97.755429 273.723105 
L 101.646892 273.723105 
L 101.646892 270.36032 
L 102.330873 270.36032 
L 102.330873 266.997534 
L 102.989037 266.997534 
L 102.989037 265.316141 
L 107.514726 265.316141 
L 107.514726 261.953355 
L 113.022974 261.953355 
L 113.022974 260.271962 
L 116.914437 260.271962 
L 116.914437 255.227783 
L 119.351785 255.227783 
L 119.351785 253.54639 
L 119.850084 253.54639 
L 119.850084 248.502211 
L 120.093994 248.502211 
L 120.093994 245.139425 
L 124.368753 245.139425 
L 124.368753 240.095246 
L 127.48501 240.095246 
L 127.48501 236.73246 
L 127.799239 236.73246 
L 127.799239 231.688281 
L 132.541568 231.688281 
L 132.541568 228.325495 
L 132.893889 228.325495 
L 132.893889 223.281316 
L 136.551264 223.281316 
L 136.645276 218.237138 
L 137.558536 218.237138 
L 137.558536 214.874352 
L 138.761723 214.874352 
L 138.761723 211.511566 
L 140.871049 211.511566 
L 140.871049 208.14878 
L 142.351634 208.14878 
L 142.351634 203.104601 
L 143.079756 203.104601 
L 143.079756 199.741815 
L 145.777292 199.741815 
L 145.777292 196.379029 
L 146.644018 196.379029 
L 146.644018 193.016243 
L 148.306159 193.016243 
L 148.306159 191.33485 
L 148.686322 191.33485 
L 148.686322 187.972064 
L 149.60198 187.972064 
L 149.60198 184.609278 
L 152.398241 184.609278 
L 152.398241 181.246492 
L 152.624728 181.246492 
L 152.624728 176.202313 
L 153.287059 176.202313 
L 153.287059 174.52092 
L 156.205916 174.52092 
L 156.205916 172.839527 
L 157.185742 172.839527 
L 157.185742 167.795349 
L 157.920731 167.795349 
L 157.920731 166.113956 
L 159.783038 166.113956 
L 159.783038 161.069777 
L 163.185069 161.069777 
L 163.185069 159.388384 
L 163.709295 159.388384 
L 163.709295 154.344205 
L 164.276 154.344205 
L 164.276 152.662812 
L 169.157854 152.662812 
L 169.157854 147.618633 
L 176.151193 147.618633 
L 176.151193 144.255847 
L 177.208443 144.255847 
L 177.208443 142.574454 
L 178.360262 142.574454 
L 178.44579 132.486096 
L 183.370799 132.486096 
L 183.370799 130.804703 
L 184.248905 130.804703 
L 184.248905 127.441917 
L 185.310832 127.441917 
L 185.310832 122.397738 
L 188.643199 122.397738 
L 188.643199 119.034953 
L 192.473699 119.034953 
L 192.473699 115.672167 
L 192.659729 115.672167 
L 192.659729 113.990774 
L 193.088693 113.990774 
L 193.088693 112.309381 
L 196.306283 112.309381 
L 196.306283 108.946595 
L 196.858138 108.946595 
L 196.858138 103.902416 
L 200.537562 103.902416 
L 200.537562 98.858237 
L 204.596005 98.858237 
L 204.596005 97.176844 
L 205.246549 97.176844 
L 205.246549 95.495451 
L 205.363592 95.495451 
L 205.363592 93.814058 
L 205.571949 93.814058 
L 205.571949 90.451272 
L 210.812159 90.451272 
L 210.812159 85.407093 
L 211.67718 85.407093 
L 211.67718 80.362914 
L 217.196371 80.362914 
L 217.196371 77.000128 
L 217.537036 77.000128 
L 217.537036 73.637342 
L 218.168443 73.637342 
L 218.168443 68.593164 
L 222.888809 68.593164 
L 222.888809 65.230378 
L 225.888177 65.230378 
L 225.888177 61.867592 
L 229.672118 61.867592 
L 229.672118 60.186199 
L 233.38175 60.186199 
L 233.38175 58.504806 
L 234.322123 58.504806 
L 234.322123 55.14202 
L 238.469676 55.14202 
L 238.469676 51.779234 
L 239.703964 51.779234 
L 239.703964 46.735055 
L 244.203509 46.735055 
L 244.203509 41.690876 
L 338.688 41.690876 
L 338.688 41.690876 
" style="fill:none;stroke:#f5deb3;stroke-linecap:square;stroke-width:4;"/>
   </g>
   <g id="line2d_2">
    <defs>
     <path d="M 0 7.778175 
L 7.778175 0 
L 0 -7.778175 
L -7.778175 0 
z
" id="mbfb38881c2" style="stroke:#f5deb3;stroke-linejoin:miter;stroke-width:1.5;"/>
    </defs>
    <g>
     <use style="fill:#f5deb3;stroke:#f5deb3;stroke-linejoin:miter;stroke-width:1.5;" x="127.799239" xlink:href="#mbfb38881c2" y="236.73246"/>
     <use style="fill:#f5deb3;stroke:#f5deb3;stroke-linejoin:miter;stroke-width:1.5;" x="200.537562" xlink:href="#mbfb38881c2" y="103.902416"/>
     <use style="fill:#f5deb3;stroke:#f5deb3;stroke-linejoin:miter;stroke-width:1.5;" x="244.203509" xlink:href="#mbfb38881c2" y="46.735055"/>
     <use style="fill:#f5deb3;stroke:#f5deb3;stroke-linejoin:miter;stroke-width:1.5;" x="244.203509" xlink:href="#mbfb38881c2" y="41.690876"/>
     <use style="fill:#f5deb3;stroke:#f5deb3;stroke-linejoin:miter;stroke-width:1.5;" x="338.688" xlink:href="#mbfb38881c2" y="41.690876"/>
    </g>
   </g>
   <g id="line2d_3">
    <path style="fill:none;stroke:#f5deb3;stroke-linecap:square;stroke-width:4;"/>
    <g/>
   </g>
   <g id="line2d_4">
    <path d="M 338.688 41.690876 
L 369.60768 12.232871 
" style="fill:none;stroke:#f5deb3;stroke-linecap:square;stroke-width:4;"/>
    <g>
     <use style="fill:#f5deb3;stroke:#f5deb3;stroke-linejoin:miter;stroke-width:1.5;" x="338.688" xlink:href="#mbfb38881c2" y="41.690876"/>
     <use style="fill:#f5deb3;stroke:#f5deb3;stroke-linejoin:miter;stroke-width:1.5;" x="369.60768" xlink:href="#mbfb38881c2" y="12.232871"/>
    </g>
   </g>
   <g id="matplotlib.axis_1">
    <g id="xtick_1">
     <g id="line2d_5">
      <path clip-path="url(#p44e148bd3c)" d="M 57.6 298.944 
L 57.6 3.456 
" style="fill:none;stroke:#b0b0b0;stroke-linecap:square;stroke-width:0.8;"/>
     </g>
     <g id="line2d_6">
      <defs>
       <path d="M 0 0 
L 0 3.5 
" id="me0c7317899" style="stroke:#000000;stroke-width:0.8;"/>
      </defs>
      <g>
       <use style="stroke:#000000;stroke-width:0.8;" x="57.6" xlink:href="#me0c7317899" y="298.944"/>
      </g>
     </g>
     <g id="text_1">
      <!-- 0 -->
      <g transform="translate(51.2375 321.140875)scale(0.2 -0.2)">
       <defs>
        <path d="M 2034 4250 
Q 1547 4250 1301 3770 
Q 1056 3291 1056 2328 
Q 1056 1369 1301 889 
Q 1547 409 2034 409 
Q 2525 409 2770 889 
Q 3016 1369 3016 2328 
Q 3016 3291 2770 3770 
Q 2525 4250 2034 4250 
z
M 2034 4750 
Q 2819 4750 3233 4129 
Q 3647 3509 3647 2328 
Q 3647 1150 3233 529 
Q 2819 -91 2034 -91 
Q 1250 -91 836 529 
Q 422 1150 422 2328 
Q 422 3509 836 4129 
Q 1250 4750 2034 4750 
z
" id="DejaVuSans-30" transform="scale(0.015625)"/>
       </defs>
       <use xlink:href="#DejaVuSans-30"/>
      </g>
     </g>
    </g>
    <g id="xtick_2">
     <g id="line2d_7">
      <path clip-path="url(#p44e148bd3c)" d="M 137.910857 298.944 
L 137.910857 3.456 
" style="fill:none;stroke:#b0b0b0;stroke-linecap:square;stroke-width:0.8;"/>
     </g>
     <g id="line2d_8">
      <g>
       <use style="stroke:#000000;stroke-width:0.8;" x="137.910857" xlink:href="#me0c7317899" y="298.944"/>
      </g>
     </g>
     <g id="text_2">
      <!-- 2 -->
      <g transform="translate(131.548357 321.140875)scale(0.2 -0.2)">
       <defs>
        <path d="M 1228 531 
L 3431 531 
L 3431 0 
L 469 0 
L 469 531 
Q 828 903 1448 1529 
Q 2069 2156 2228 2338 
Q 2531 2678 2651 2914 
Q 2772 3150 2772 3378 
Q 2772 3750 2511 3984 
Q 2250 4219 1831 4219 
Q 1534 4219 1204 4116 
Q 875 4013 500 3803 
L 500 4441 
Q 881 4594 1212 4672 
Q 1544 4750 1819 4750 
Q 2544 4750 2975 4387 
Q 3406 4025 3406 3419 
Q 3406 3131 3298 2873 
Q 3191 2616 2906 2266 
Q 2828 2175 2409 1742 
Q 1991 1309 1228 531 
z
" id="DejaVuSans-32" transform="scale(0.015625)"/>
       </defs>
       <use xlink:href="#DejaVuSans-32"/>
      </g>
     </g>
    </g>
    <g id="xtick_3">
     <g id="line2d_9">
      <path clip-path="url(#p44e148bd3c)" d="M 218.221714 298.944 
L 218.221714 3.456 
" style="fill:none;stroke:#b0b0b0;stroke-linecap:square;stroke-width:0.8;"/>
     </g>
     <g id="line2d_10">
      <g>
       <use style="stroke:#000000;stroke-width:0.8;" x="218.221714" xlink:href="#me0c7317899" y="298.944"/>
      </g>
     </g>
     <g id="text_3">
      <!-- 4 -->
      <g transform="translate(211.859214 321.140875)scale(0.2 -0.2)">
       <defs>
        <path d="M 2419 4116 
L 825 1625 
L 2419 1625 
L 2419 4116 
z
M 2253 4666 
L 3047 4666 
L 3047 1625 
L 3713 1625 
L 3713 1100 
L 3047 1100 
L 3047 0 
L 2419 0 
L 2419 1100 
L 313 1100 
L 313 1709 
L 2253 4666 
z
" id="DejaVuSans-34" transform="scale(0.015625)"/>
       </defs>
       <use xlink:href="#DejaVuSans-34"/>
      </g>
     </g>
    </g>
    <g id="xtick_4">
     <g id="line2d_11">
      <path clip-path="url(#p44e148bd3c)" d="M 298.532571 298.944 
L 298.532571 3.456 
" style="fill:none;stroke:#b0b0b0;stroke-linecap:square;stroke-width:0.8;"/>
     </g>
     <g id="line2d_12">
      <g>
       <use style="stroke:#000000;stroke-width:0.8;" x="298.532571" xlink:href="#me0c7317899" y="298.944"/>
      </g>
     </g>
     <g id="text_4">
      <!-- 6 -->
      <g transform="translate(292.170071 321.140875)scale(0.2 -0.2)">
       <defs>
        <path d="M 2113 2584 
Q 1688 2584 1439 2293 
Q 1191 2003 1191 1497 
Q 1191 994 1439 701 
Q 1688 409 2113 409 
Q 2538 409 2786 701 
Q 3034 994 3034 1497 
Q 3034 2003 2786 2293 
Q 2538 2584 2113 2584 
z
M 3366 4563 
L 3366 3988 
Q 3128 4100 2886 4159 
Q 2644 4219 2406 4219 
Q 1781 4219 1451 3797 
Q 1122 3375 1075 2522 
Q 1259 2794 1537 2939 
Q 1816 3084 2150 3084 
Q 2853 3084 3261 2657 
Q 3669 2231 3669 1497 
Q 3669 778 3244 343 
Q 2819 -91 2113 -91 
Q 1303 -91 875 529 
Q 447 1150 447 2328 
Q 447 3434 972 4092 
Q 1497 4750 2381 4750 
Q 2619 4750 2861 4703 
Q 3103 4656 3366 4563 
z
" id="DejaVuSans-36" transform="scale(0.015625)"/>
       </defs>
       <use xlink:href="#DejaVuSans-36"/>
      </g>
     </g>
    </g>
    <g id="xtick_5">
     <g id="line2d_13">
      <path clip-path="url(#p44e148bd3c)" d="M 97.755429 298.944 
L 97.755429 3.456 
" style="fill:none;stroke:#b0b0b0;stroke-linecap:square;stroke-width:0.8;"/>
     </g>
     <g id="line2d_14">
      <defs>
       <path d="M 0 0 
L 0 2 
" id="maa8b55f4bb" style="stroke:#000000;stroke-width:0.6;"/>
      </defs>
      <g>
       <use style="stroke:#000000;stroke-width:0.6;" x="97.755429" xlink:href="#maa8b55f4bb" y="298.944"/>
      </g>
     </g>
    </g>
    <g id="xtick_6">
     <g id="line2d_15">
      <path clip-path="url(#p44e148bd3c)" d="M 178.066286 298.944 
L 178.066286 3.456 
" style="fill:none;stroke:#b0b0b0;stroke-linecap:square;stroke-width:0.8;"/>
     </g>
     <g id="line2d_16">
      <g>
       <use style="stroke:#000000;stroke-width:0.6;" x="178.066286" xlink:href="#maa8b55f4bb" y="298.944"/>
      </g>
     </g>
    </g>
    <g id="xtick_7">
     <g id="line2d_17">
      <path clip-path="url(#p44e148bd3c)" d="M 258.377143 298.944 
L 258.377143 3.456 
" style="fill:none;stroke:#b0b0b0;stroke-linecap:square;stroke-width:0.8;"/>
     </g>
     <g id="line2d_18">
      <g>
       <use style="stroke:#000000;stroke-width:0.6;" x="258.377143" xlink:href="#maa8b55f4bb" y="298.944"/>
      </g>
     </g>
    </g>
    <g id="xtick_8">
     <g id="line2d_19">
      <path clip-path="url(#p44e148bd3c)" d="M 338.688 298.944 
L 338.688 3.456 
" style="fill:none;stroke:#b0b0b0;stroke-linecap:square;stroke-width:0.8;"/>
     </g>
     <g id="line2d_20">
      <g>
       <use style="stroke:#000000;stroke-width:0.6;" x="338.688" xlink:href="#maa8b55f4bb" y="298.944"/>
      </g>
     </g>
    </g>
    <g id="text_5">
     <!-- log10(# f-evals / dimension) -->
     <g transform="translate(77.764078 342.217594)scale(0.17 -0.17)">
      <defs>
       <path d="M 603 4863 
L 1178 4863 
L 1178 0 
L 603 0 
L 603 4863 
z
" id="DejaVuSans-6c" transform="scale(0.015625)"/>
       <path d="M 1959 3097 
Q 1497 3097 1228 2736 
Q 959 2375 959 1747 
Q 959 1119 1226 758 
Q 1494 397 1959 397 
Q 2419 397 2687 759 
Q 2956 1122 2956 1747 
Q 2956 2369 2687 2733 
Q 2419 3097 1959 3097 
z
M 1959 3584 
Q 2709 3584 3137 3096 
Q 3566 2609 3566 1747 
Q 3566 888 3137 398 
Q 2709 -91 1959 -91 
Q 1206 -91 779 398 
Q 353 888 353 1747 
Q 353 2609 779 3096 
Q 1206 3584 1959 3584 
z
" id="DejaVuSans-6f" transform="scale(0.015625)"/>
       <path d="M 2906 1791 
Q 2906 2416 2648 2759 
Q 2391 3103 1925 3103 
Q 1463 3103 1205 2759 
Q 947 2416 947 1791 
Q 947 1169 1205 825 
Q 1463 481 1925 481 
Q 2391 481 2648 825 
Q 2906 1169 2906 1791 
z
M 3481 434 
Q 3481 -459 3084 -895 
Q 2688 -1331 1869 -1331 
Q 1566 -1331 1297 -1286 
Q 1028 -1241 775 -1147 
L 775 -588 
Q 1028 -725 1275 -790 
Q 1522 -856 1778 -856 
Q 2344 -856 2625 -561 
Q 2906 -266 2906 331 
L 2906 616 
Q 2728 306 2450 153 
Q 2172 0 1784 0 
Q 1141 0 747 490 
Q 353 981 353 1791 
Q 353 2603 747 3093 
Q 1141 3584 1784 3584 
Q 2172 3584 2450 3431 
Q 2728 3278 2906 2969 
L 2906 3500 
L 3481 3500 
L 3481 434 
z
" id="DejaVuSans-67" transform="scale(0.015625)"/>
       <path d="M 794 531 
L 1825 531 
L 1825 4091 
L 703 3866 
L 703 4441 
L 1819 4666 
L 2450 4666 
L 2450 531 
L 3481 531 
L 3481 0 
L 794 0 
L 794 531 
z
" id="DejaVuSans-31" transform="scale(0.015625)"/>
       <path d="M 1984 4856 
Q 1566 4138 1362 3434 
Q 1159 2731 1159 2009 
Q 1159 1288 1364 580 
Q 1569 -128 1984 -844 
L 1484 -844 
Q 1016 -109 783 600 
Q 550 1309 550 2009 
Q 550 2706 781 3412 
Q 1013 4119 1484 4856 
L 1984 4856 
z
" id="DejaVuSans-28" transform="scale(0.015625)"/>
       <path d="M 3272 2816 
L 2363 2816 
L 2100 1772 
L 3016 1772 
L 3272 2816 
z
M 2803 4594 
L 2478 3297 
L 3391 3297 
L 3719 4594 
L 4219 4594 
L 3897 3297 
L 4872 3297 
L 4872 2816 
L 3775 2816 
L 3519 1772 
L 4513 1772 
L 4513 1294 
L 3397 1294 
L 3072 0 
L 2572 0 
L 2894 1294 
L 1978 1294 
L 1656 0 
L 1153 0 
L 1478 1294 
L 494 1294 
L 494 1772 
L 1594 1772 
L 1856 2816 
L 850 2816 
L 850 3297 
L 1978 3297 
L 2297 4594 
L 2803 4594 
z
" id="DejaVuSans-23" transform="scale(0.015625)"/>
       <path id="DejaVuSans-20" transform="scale(0.015625)"/>
       <path d="M 2375 4863 
L 2375 4384 
L 1825 4384 
Q 1516 4384 1395 4259 
Q 1275 4134 1275 3809 
L 1275 3500 
L 2222 3500 
L 2222 3053 
L 1275 3053 
L 1275 0 
L 697 0 
L 697 3053 
L 147 3053 
L 147 3500 
L 697 3500 
L 697 3744 
Q 697 4328 969 4595 
Q 1241 4863 1831 4863 
L 2375 4863 
z
" id="DejaVuSans-66" transform="scale(0.015625)"/>
       <path d="M 313 2009 
L 1997 2009 
L 1997 1497 
L 313 1497 
L 313 2009 
z
" id="DejaVuSans-2d" transform="scale(0.015625)"/>
       <path d="M 3597 1894 
L 3597 1613 
L 953 1613 
Q 991 1019 1311 708 
Q 1631 397 2203 397 
Q 2534 397 2845 478 
Q 3156 559 3463 722 
L 3463 178 
Q 3153 47 2828 -22 
Q 2503 -91 2169 -91 
Q 1331 -91 842 396 
Q 353 884 353 1716 
Q 353 2575 817 3079 
Q 1281 3584 2069 3584 
Q 2775 3584 3186 3129 
Q 3597 2675 3597 1894 
z
M 3022 2063 
Q 3016 2534 2758 2815 
Q 2500 3097 2075 3097 
Q 1594 3097 1305 2825 
Q 1016 2553 972 2059 
L 3022 2063 
z
" id="DejaVuSans-65" transform="scale(0.015625)"/>
       <path d="M 191 3500 
L 800 3500 
L 1894 563 
L 2988 3500 
L 3597 3500 
L 2284 0 
L 1503 0 
L 191 3500 
z
" id="DejaVuSans-76" transform="scale(0.015625)"/>
       <path d="M 2194 1759 
Q 1497 1759 1228 1600 
Q 959 1441 959 1056 
Q 959 750 1161 570 
Q 1363 391 1709 391 
Q 2188 391 2477 730 
Q 2766 1069 2766 1631 
L 2766 1759 
L 2194 1759 
z
M 3341 1997 
L 3341 0 
L 2766 0 
L 2766 531 
Q 2569 213 2275 61 
Q 1981 -91 1556 -91 
Q 1019 -91 701 211 
Q 384 513 384 1019 
Q 384 1609 779 1909 
Q 1175 2209 1959 2209 
L 2766 2209 
L 2766 2266 
Q 2766 2663 2505 2880 
Q 2244 3097 1772 3097 
Q 1472 3097 1187 3025 
Q 903 2953 641 2809 
L 641 3341 
Q 956 3463 1253 3523 
Q 1550 3584 1831 3584 
Q 2591 3584 2966 3190 
Q 3341 2797 3341 1997 
z
" id="DejaVuSans-61" transform="scale(0.015625)"/>
       <path d="M 2834 3397 
L 2834 2853 
Q 2591 2978 2328 3040 
Q 2066 3103 1784 3103 
Q 1356 3103 1142 2972 
Q 928 2841 928 2578 
Q 928 2378 1081 2264 
Q 1234 2150 1697 2047 
L 1894 2003 
Q 2506 1872 2764 1633 
Q 3022 1394 3022 966 
Q 3022 478 2636 193 
Q 2250 -91 1575 -91 
Q 1294 -91 989 -36 
Q 684 19 347 128 
L 347 722 
Q 666 556 975 473 
Q 1284 391 1588 391 
Q 1994 391 2212 530 
Q 2431 669 2431 922 
Q 2431 1156 2273 1281 
Q 2116 1406 1581 1522 
L 1381 1569 
Q 847 1681 609 1914 
Q 372 2147 372 2553 
Q 372 3047 722 3315 
Q 1072 3584 1716 3584 
Q 2034 3584 2315 3537 
Q 2597 3491 2834 3397 
z
" id="DejaVuSans-73" transform="scale(0.015625)"/>
       <path d="M 1625 4666 
L 2156 4666 
L 531 -594 
L 0 -594 
L 1625 4666 
z
" id="DejaVuSans-2f" transform="scale(0.015625)"/>
       <path d="M 2906 2969 
L 2906 4863 
L 3481 4863 
L 3481 0 
L 2906 0 
L 2906 525 
Q 2725 213 2448 61 
Q 2172 -91 1784 -91 
Q 1150 -91 751 415 
Q 353 922 353 1747 
Q 353 2572 751 3078 
Q 1150 3584 1784 3584 
Q 2172 3584 2448 3432 
Q 2725 3281 2906 2969 
z
M 947 1747 
Q 947 1113 1208 752 
Q 1469 391 1925 391 
Q 2381 391 2643 752 
Q 2906 1113 2906 1747 
Q 2906 2381 2643 2742 
Q 2381 3103 1925 3103 
Q 1469 3103 1208 2742 
Q 947 2381 947 1747 
z
" id="DejaVuSans-64" transform="scale(0.015625)"/>
       <path d="M 603 3500 
L 1178 3500 
L 1178 0 
L 603 0 
L 603 3500 
z
M 603 4863 
L 1178 4863 
L 1178 4134 
L 603 4134 
L 603 4863 
z
" id="DejaVuSans-69" transform="scale(0.015625)"/>
       <path d="M 3328 2828 
Q 3544 3216 3844 3400 
Q 4144 3584 4550 3584 
Q 5097 3584 5394 3201 
Q 5691 2819 5691 2113 
L 5691 0 
L 5113 0 
L 5113 2094 
Q 5113 2597 4934 2840 
Q 4756 3084 4391 3084 
Q 3944 3084 3684 2787 
Q 3425 2491 3425 1978 
L 3425 0 
L 2847 0 
L 2847 2094 
Q 2847 2600 2669 2842 
Q 2491 3084 2119 3084 
Q 1678 3084 1418 2786 
Q 1159 2488 1159 1978 
L 1159 0 
L 581 0 
L 581 3500 
L 1159 3500 
L 1159 2956 
Q 1356 3278 1631 3431 
Q 1906 3584 2284 3584 
Q 2666 3584 2933 3390 
Q 3200 3197 3328 2828 
z
" id="DejaVuSans-6d" transform="scale(0.015625)"/>
       <path d="M 3513 2113 
L 3513 0 
L 2938 0 
L 2938 2094 
Q 2938 2591 2744 2837 
Q 2550 3084 2163 3084 
Q 1697 3084 1428 2787 
Q 1159 2491 1159 1978 
L 1159 0 
L 581 0 
L 581 3500 
L 1159 3500 
L 1159 2956 
Q 1366 3272 1645 3428 
Q 1925 3584 2291 3584 
Q 2894 3584 3203 3211 
Q 3513 2838 3513 2113 
z
" id="DejaVuSans-6e" transform="scale(0.015625)"/>
       <path d="M 513 4856 
L 1013 4856 
Q 1481 4119 1714 3412 
Q 1947 2706 1947 2009 
Q 1947 1309 1714 600 
Q 1481 -109 1013 -844 
L 513 -844 
Q 928 -128 1133 580 
Q 1338 1288 1338 2009 
Q 1338 2731 1133 3434 
Q 928 4138 513 4856 
z
" id="DejaVuSans-29" transform="scale(0.015625)"/>
      </defs>
      <use xlink:href="#DejaVuSans-6c"/>
      <use x="27.783203" xlink:href="#DejaVuSans-6f"/>
      <use x="88.964844" xlink:href="#DejaVuSans-67"/>
      <use x="152.441406" xlink:href="#DejaVuSans-31"/>
      <use x="216.064453" xlink:href="#DejaVuSans-30"/>
      <use x="279.6875" xlink:href="#DejaVuSans-28"/>
      <use x="318.701172" xlink:href="#DejaVuSans-23"/>
      <use x="402.490234" xlink:href="#DejaVuSans-20"/>
      <use x="434.277344" xlink:href="#DejaVuSans-66"/>
      <use x="463.982422" xlink:href="#DejaVuSans-2d"/>
      <use x="500.066406" xlink:href="#DejaVuSans-65"/>
      <use x="561.589844" xlink:href="#DejaVuSans-76"/>
      <use x="620.769531" xlink:href="#DejaVuSans-61"/>
      <use x="682.048828" xlink:href="#DejaVuSans-6c"/>
      <use x="709.832031" xlink:href="#DejaVuSans-73"/>
      <use x="761.931641" xlink:href="#DejaVuSans-20"/>
      <use x="793.71875" xlink:href="#DejaVuSans-2f"/>
      <use x="827.410156" xlink:href="#DejaVuSans-20"/>
      <use x="859.197266" xlink:href="#DejaVuSans-64"/>
      <use x="922.673828" xlink:href="#DejaVuSans-69"/>
      <use x="950.457031" xlink:href="#DejaVuSans-6d"/>
      <use x="1047.869141" xlink:href="#DejaVuSans-65"/>
      <use x="1109.392578" xlink:href="#DejaVuSans-6e"/>
      <use x="1172.771484" xlink:href="#DejaVuSans-73"/>
      <use x="1224.871094" xlink:href="#DejaVuSans-69"/>
      <use x="1252.654297" xlink:href="#DejaVuSans-6f"/>
      <use x="1313.835938" xlink:href="#DejaVuSans-6e"/>
      <use x="1377.214844" xlink:href="#DejaVuSans-29"/>
     </g>
    </g>
   </g>
   <g id="matplotlib.axis_2">
    <g id="ytick_1">
     <g id="line2d_21">
      <path clip-path="url(#p44e148bd3c)" d="M 57.6 298.944 
L 338.688 298.944 
" style="fill:none;stroke:#b0b0b0;stroke-linecap:square;stroke-width:0.8;"/>
     </g>
     <g id="line2d_22">
      <defs>
       <path d="M 0 0 
L -3.5 0 
" id="m10668a301d" style="stroke:#000000;stroke-width:0.8;"/>
      </defs>
      <g>
       <use style="stroke:#000000;stroke-width:0.8;" x="57.6" xlink:href="#m10668a301d" y="298.944"/>
      </g>
     </g>
     <g id="text_6">
      <!-- 0.0 -->
      <g transform="translate(25.155 305.02275)scale(0.16 -0.16)">
       <defs>
        <path d="M 684 794 
L 1344 794 
L 1344 0 
L 684 0 
L 684 794 
z
" id="DejaVuSans-2e" transform="scale(0.015625)"/>
       </defs>
       <use xlink:href="#DejaVuSans-30"/>
       <use x="63.623047" xlink:href="#DejaVuSans-2e"/>
       <use x="95.410156" xlink:href="#DejaVuSans-30"/>
      </g>
     </g>
    </g>
    <g id="ytick_2">
     <g id="line2d_23">
      <path clip-path="url(#p44e148bd3c)" d="M 57.6 240.431525 
L 338.688 240.431525 
" style="fill:none;stroke:#b0b0b0;stroke-linecap:square;stroke-width:0.8;"/>
     </g>
     <g id="line2d_24">
      <g>
       <use style="stroke:#000000;stroke-width:0.8;" x="57.6" xlink:href="#m10668a301d" y="240.431525"/>
      </g>
     </g>
     <g id="text_7">
      <!-- 0.2 -->
      <g transform="translate(25.155 246.510275)scale(0.16 -0.16)">
       <use xlink:href="#DejaVuSans-30"/>
       <use x="63.623047" xlink:href="#DejaVuSans-2e"/>
       <use x="95.410156" xlink:href="#DejaVuSans-32"/>
      </g>
     </g>
    </g>
    <g id="ytick_3">
     <g id="line2d_25">
      <path clip-path="url(#p44e148bd3c)" d="M 57.6 181.91905 
L 338.688 181.91905 
" style="fill:none;stroke:#b0b0b0;stroke-linecap:square;stroke-width:0.8;"/>
     </g>
     <g id="line2d_26">
      <g>
       <use style="stroke:#000000;stroke-width:0.8;" x="57.6" xlink:href="#m10668a301d" y="181.91905"/>
      </g>
     </g>
     <g id="text_8">
      <!-- 0.4 -->
      <g transform="translate(25.155 187.9978)scale(0.16 -0.16)">
       <use xlink:href="#DejaVuSans-30"/>
       <use x="63.623047" xlink:href="#DejaVuSans-2e"/>
       <use x="95.410156" xlink:href="#DejaVuSans-34"/>
      </g>
     </g>
    </g>
    <g id="ytick_4">
     <g id="line2d_27">
      <path clip-path="url(#p44e148bd3c)" d="M 57.6 123.406574 
L 338.688 123.406574 
" style="fill:none;stroke:#b0b0b0;stroke-linecap:square;stroke-width:0.8;"/>
     </g>
     <g id="line2d_28">
      <g>
       <use style="stroke:#000000;stroke-width:0.8;" x="57.6" xlink:href="#m10668a301d" y="123.406574"/>
      </g>
     </g>
     <g id="text_9">
      <!-- 0.6 -->
      <g transform="translate(25.155 129.485324)scale(0.16 -0.16)">
       <use xlink:href="#DejaVuSans-30"/>
       <use x="63.623047" xlink:href="#DejaVuSans-2e"/>
       <use x="95.410156" xlink:href="#DejaVuSans-36"/>
      </g>
     </g>
    </g>
    <g id="ytick_5">
     <g id="line2d_29">
      <path clip-path="url(#p44e148bd3c)" d="M 57.6 64.894099 
L 338.688 64.894099 
" style="fill:none;stroke:#b0b0b0;stroke-linecap:square;stroke-width:0.8;"/>
     </g>
     <g id="line2d_30">
      <g>
       <use style="stroke:#000000;stroke-width:0.8;" x="57.6" xlink:href="#m10668a301d" y="64.894099"/>
      </g>
     </g>
     <g id="text_10">
      <!-- 0.8 -->
      <g transform="translate(25.155 70.972849)scale(0.16 -0.16)">
       <defs>
        <path d="M 2034 2216 
Q 1584 2216 1326 1975 
Q 1069 1734 1069 1313 
Q 1069 891 1326 650 
Q 1584 409 2034 409 
Q 2484 409 2743 651 
Q 3003 894 3003 1313 
Q 3003 1734 2745 1975 
Q 2488 2216 2034 2216 
z
M 1403 2484 
Q 997 2584 770 2862 
Q 544 3141 544 3541 
Q 544 4100 942 4425 
Q 1341 4750 2034 4750 
Q 2731 4750 3128 4425 
Q 3525 4100 3525 3541 
Q 3525 3141 3298 2862 
Q 3072 2584 2669 2484 
Q 3125 2378 3379 2068 
Q 3634 1759 3634 1313 
Q 3634 634 3220 271 
Q 2806 -91 2034 -91 
Q 1263 -91 848 271 
Q 434 634 434 1313 
Q 434 1759 690 2068 
Q 947 2378 1403 2484 
z
M 1172 3481 
Q 1172 3119 1398 2916 
Q 1625 2713 2034 2713 
Q 2441 2713 2670 2916 
Q 2900 3119 2900 3481 
Q 2900 3844 2670 4047 
Q 2441 4250 2034 4250 
Q 1625 4250 1398 4047 
Q 1172 3844 1172 3481 
z
" id="DejaVuSans-38" transform="scale(0.015625)"/>
       </defs>
       <use xlink:href="#DejaVuSans-30"/>
       <use x="63.623047" xlink:href="#DejaVuSans-2e"/>
       <use x="95.410156" xlink:href="#DejaVuSans-38"/>
      </g>
     </g>
    </g>
    <g id="ytick_6">
     <g id="line2d_31">
      <path clip-path="url(#p44e148bd3c)" d="M 57.6 6.381624 
L 338.688 6.381624 
" style="fill:none;stroke:#b0b0b0;stroke-linecap:square;stroke-width:0.8;"/>
     </g>
     <g id="line2d_32">
      <g>
       <use style="stroke:#000000;stroke-width:0.8;" x="57.6" xlink:href="#m10668a301d" y="6.381624"/>
      </g>
     </g>
     <g id="text_11">
      <!-- 1.0 -->
      <g transform="translate(25.155 12.460374)scale(0.16 -0.16)">
       <use xlink:href="#DejaVuSans-31"/>
       <use x="63.623047" xlink:href="#DejaVuSans-2e"/>
       <use x="95.410156" xlink:href="#DejaVuSans-30"/>
      </g>
     </g>
    </g>
    <g id="text_12">
     <!-- Fraction of function,target pairs -->
     <g transform="translate(17.619531 285.585)rotate(-90)scale(0.17 -0.17)">
      <defs>
       <path d="M 628 4666 
L 3309 4666 
L 3309 4134 
L 1259 4134 
L 1259 2759 
L 3109 2759 
L 3109 2228 
L 1259 2228 
L 1259 0 
L 628 0 
L 628 4666 
z
" id="DejaVuSans-46" transform="scale(0.015625)"/>
       <path d="M 2631 2963 
Q 2534 3019 2420 3045 
Q 2306 3072 2169 3072 
Q 1681 3072 1420 2755 
Q 1159 2438 1159 1844 
L 1159 0 
L 581 0 
L 581 3500 
L 1159 3500 
L 1159 2956 
Q 1341 3275 1631 3429 
Q 1922 3584 2338 3584 
Q 2397 3584 2469 3576 
Q 2541 3569 2628 3553 
L 2631 2963 
z
" id="DejaVuSans-72" transform="scale(0.015625)"/>
       <path d="M 3122 3366 
L 3122 2828 
Q 2878 2963 2633 3030 
Q 2388 3097 2138 3097 
Q 1578 3097 1268 2742 
Q 959 2388 959 1747 
Q 959 1106 1268 751 
Q 1578 397 2138 397 
Q 2388 397 2633 464 
Q 2878 531 3122 666 
L 3122 134 
Q 2881 22 2623 -34 
Q 2366 -91 2075 -91 
Q 1284 -91 818 406 
Q 353 903 353 1747 
Q 353 2603 823 3093 
Q 1294 3584 2113 3584 
Q 2378 3584 2631 3529 
Q 2884 3475 3122 3366 
z
" id="DejaVuSans-63" transform="scale(0.015625)"/>
       <path d="M 1172 4494 
L 1172 3500 
L 2356 3500 
L 2356 3053 
L 1172 3053 
L 1172 1153 
Q 1172 725 1289 603 
Q 1406 481 1766 481 
L 2356 481 
L 2356 0 
L 1766 0 
Q 1100 0 847 248 
Q 594 497 594 1153 
L 594 3053 
L 172 3053 
L 172 3500 
L 594 3500 
L 594 4494 
L 1172 4494 
z
" id="DejaVuSans-74" transform="scale(0.015625)"/>
       <path d="M 544 1381 
L 544 3500 
L 1119 3500 
L 1119 1403 
Q 1119 906 1312 657 
Q 1506 409 1894 409 
Q 2359 409 2629 706 
Q 2900 1003 2900 1516 
L 2900 3500 
L 3475 3500 
L 3475 0 
L 2900 0 
L 2900 538 
Q 2691 219 2414 64 
Q 2138 -91 1772 -91 
Q 1169 -91 856 284 
Q 544 659 544 1381 
z
M 1991 3584 
L 1991 3584 
z
" id="DejaVuSans-75" transform="scale(0.015625)"/>
       <path d="M 750 794 
L 1409 794 
L 1409 256 
L 897 -744 
L 494 -744 
L 750 256 
L 750 794 
z
" id="DejaVuSans-2c" transform="scale(0.015625)"/>
       <path d="M 1159 525 
L 1159 -1331 
L 581 -1331 
L 581 3500 
L 1159 3500 
L 1159 2969 
Q 1341 3281 1617 3432 
Q 1894 3584 2278 3584 
Q 2916 3584 3314 3078 
Q 3713 2572 3713 1747 
Q 3713 922 3314 415 
Q 2916 -91 2278 -91 
Q 1894 -91 1617 61 
Q 1341 213 1159 525 
z
M 3116 1747 
Q 3116 2381 2855 2742 
Q 2594 3103 2138 3103 
Q 1681 3103 1420 2742 
Q 1159 2381 1159 1747 
Q 1159 1113 1420 752 
Q 1681 391 2138 391 
Q 2594 391 2855 752 
Q 3116 1113 3116 1747 
z
" id="DejaVuSans-70" transform="scale(0.015625)"/>
      </defs>
      <use xlink:href="#DejaVuSans-46"/>
      <use x="50.269531" xlink:href="#DejaVuSans-72"/>
      <use x="91.382812" xlink:href="#DejaVuSans-61"/>
      <use x="152.662109" xlink:href="#DejaVuSans-63"/>
      <use x="207.642578" xlink:href="#DejaVuSans-74"/>
      <use x="246.851562" xlink:href="#DejaVuSans-69"/>
      <use x="274.634766" xlink:href="#DejaVuSans-6f"/>
      <use x="335.816406" xlink:href="#DejaVuSans-6e"/>
      <use x="399.195312" xlink:href="#DejaVuSans-20"/>
      <use x="430.982422" xlink:href="#DejaVuSans-6f"/>
      <use x="492.164062" xlink:href="#DejaVuSans-66"/>
      <use x="527.369141" xlink:href="#DejaVuSans-20"/>
      <use x="559.15625" xlink:href="#DejaVuSans-66"/>
      <use x="594.361328" xlink:href="#DejaVuSans-75"/>
      <use x="657.740234" xlink:href="#DejaVuSans-6e"/>
      <use x="721.119141" xlink:href="#DejaVuSans-63"/>
      <use x="776.099609" xlink:href="#DejaVuSans-74"/>
      <use x="815.308594" xlink:href="#DejaVuSans-69"/>
      <use x="843.091797" xlink:href="#DejaVuSans-6f"/>
      <use x="904.273438" xlink:href="#DejaVuSans-6e"/>
      <use x="967.652344" xlink:href="#DejaVuSans-2c"/>
      <use x="999.439453" xlink:href="#DejaVuSans-74"/>
      <use x="1038.648438" xlink:href="#DejaVuSans-61"/>
      <use x="1099.927734" xlink:href="#DejaVuSans-72"/>
      <use x="1139.291016" xlink:href="#DejaVuSans-67"/>
      <use x="1202.767578" xlink:href="#DejaVuSans-65"/>
      <use x="1264.291016" xlink:href="#DejaVuSans-74"/>
      <use x="1303.5" xlink:href="#DejaVuSans-20"/>
      <use x="1335.287109" xlink:href="#DejaVuSans-70"/>
      <use x="1398.763672" xlink:href="#DejaVuSans-61"/>
      <use x="1460.042969" xlink:href="#DejaVuSans-69"/>
      <use x="1487.826172" xlink:href="#DejaVuSans-72"/>
      <use x="1528.939453" xlink:href="#DejaVuSans-73"/>
     </g>
    </g>
   </g>
   <g id="line2d_33">
    <defs>
     <path d="M 0 1.5 
C 0.397805 1.5 0.77937 1.341951 1.06066 1.06066 
C 1.341951 0.77937 1.5 0.397805 1.5 0 
C 1.5 -0.397805 1.341951 -0.77937 1.06066 -1.06066 
C 0.77937 -1.341951 0.397805 -1.5 0 -1.5 
C -0.397805 -1.5 -0.77937 -1.341951 -1.06066 -1.06066 
C -1.341951 -0.77937 -1.5 -0.397805 -1.5 0 
C -1.5 0.397805 -1.341951 0.77937 -1.06066 1.06066 
C -0.77937 1.341951 -0.397805 1.5 0 1.5 
z
" id="m93ff95ef4a" style="stroke:#f5deb3;"/>
    </defs>
    <g>
     <use style="fill:#f5deb3;stroke:#f5deb3;" x="244.203509" xlink:href="#m93ff95ef4a" y="41.690876"/>
     <use style="fill:#f5deb3;stroke:#f5deb3;" x="244.203509" xlink:href="#m93ff95ef4a" y="41.690876"/>
    </g>
   </g>
   <g id="line2d_34">
    <defs>
     <path d="M 0 1.5 
C 0.397805 1.5 0.77937 1.341951 1.06066 1.06066 
C 1.341951 0.77937 1.5 0.397805 1.5 0 
C 1.5 -0.397805 1.341951 -0.77937 1.06066 -1.06066 
C 0.77937 -1.341951 0.397805 -1.5 0 -1.5 
C -0.397805 -1.5 -0.77937 -1.341951 -1.06066 -1.06066 
C -1.341951 -0.77937 -1.5 -0.397805 -1.5 0 
C -1.5 0.397805 -1.341951 0.77937 -1.06066 1.06066 
C -0.77937 1.341951 -0.397805 1.5 0 1.5 
z
" id="m2ed7d74a5c" style="stroke:#000080;"/>
    </defs>
    <g>
     <use style="fill:#000080;stroke:#000080;" x="232.521158" xlink:href="#m2ed7d74a5c" y="101.044048"/>
     <use style="fill:#000080;stroke:#000080;" x="232.521158" xlink:href="#m2ed7d74a5c" y="101.044048"/>
    </g>
   </g>
   <g id="line2d_35">
    <path d="M 45.512012 298.944 
L 45.512012 287.00611 
L 57.6 287.00611 
L 57.6 286.837971 
L 73.579452 286.837971 
L 73.579452 285.660996 
L 76.759008 285.660996 
L 76.759008 281.625652 
L 79.447285 281.625652 
L 79.447285 276.077056 
L 81.775977 276.077056 
L 81.775977 274.395663 
L 83.830028 274.395663 
L 83.830028 273.723105 
L 85.66744 273.723105 
L 85.66744 269.855902 
L 87.329581 269.855902 
L 87.329581 268.678927 
L 88.846997 268.678927 
L 88.846997 263.634748 
L 90.242884 263.634748 
L 90.242884 261.785215 
L 91.535274 261.785215 
L 91.535274 259.935683 
L 92.73846 259.935683 
L 92.73846 258.086151 
L 93.863965 258.086151 
L 93.863965 255.059644 
L 94.921215 255.059644 
L 94.921215 253.54639 
L 95.918017 253.54639 
L 95.918017 251.528718 
L 96.86091 251.528718 
L 96.86091 251.19244 
L 97.755429 251.19244 
L 97.755429 248.67035 
L 98.606294 248.67035 
L 98.606294 247.997793 
L 99.41757 247.997793 
L 99.41757 244.803146 
L 100.192776 244.803146 
L 100.192776 243.96245 
L 100.934985 243.96245 
L 100.934985 243.121753 
L 101.646892 243.121753 
L 101.646892 240.935943 
L 102.330873 240.935943 
L 102.330873 240.599664 
L 102.989037 240.599664 
L 102.989037 240.263385 
L 103.623262 240.263385 
L 103.623262 239.25455 
L 104.23523 239.25455 
L 104.23523 238.245714 
L 104.826449 238.245714 
L 104.826449 237.573157 
L 105.398279 237.573157 
L 105.398279 236.228042 
L 105.951954 236.228042 
L 105.951954 235.891764 
L 106.48859 235.891764 
L 106.48859 235.387346 
L 107.009204 235.387346 
L 107.009204 234.37851 
L 108.006005 234.37851 
L 108.006005 233.537814 
L 108.483824 233.537814 
L 108.483824 233.369674 
L 108.948899 233.369674 
L 108.948899 232.865256 
L 109.401893 232.865256 
L 109.401893 231.856421 
L 109.843417 231.856421 
L 109.843417 231.688281 
L 110.694282 231.688281 
L 110.694282 230.175028 
L 111.104637 230.175028 
L 111.104637 229.50247 
L 111.505558 229.50247 
L 111.505558 228.829913 
L 111.897469 228.829913 
L 111.897469 227.989217 
L 112.280765 227.989217 
L 112.280765 227.652938 
L 112.655818 227.652938 
L 112.655818 227.484799 
L 113.022974 227.484799 
L 113.022974 226.475963 
L 113.382559 226.475963 
L 113.382559 225.971545 
L 113.73488 225.971545 
L 113.73488 225.130849 
L 114.080224 225.130849 
L 114.080224 224.962709 
L 114.418861 224.962709 
L 114.418861 224.458292 
L 115.397021 224.458292 
L 115.397021 223.953874 
L 115.711251 223.953874 
L 115.711251 223.113177 
L 116.019919 223.113177 
L 116.019919 222.44062 
L 116.621333 222.44062 
L 116.621333 221.768063 
L 116.914437 221.768063 
L 116.914437 221.599924 
L 117.202696 221.599924 
L 117.202696 220.927366 
L 117.486268 220.927366 
L 117.486268 220.591088 
L 118.310324 220.591088 
L 118.310324 220.422948 
L 118.576578 220.422948 
L 118.576578 219.918531 
L 119.351785 219.918531 
L 119.351785 219.750391 
L 119.850084 219.750391 
L 119.850084 218.909695 
L 120.33454 218.909695 
L 120.33454 218.573416 
L 121.036887 218.573416 
L 121.036887 218.237138 
L 121.489881 218.237138 
L 121.489881 217.73272 
L 121.712041 217.73272 
L 121.712041 217.396441 
L 122.148045 217.396441 
L 122.148045 216.555745 
L 122.782271 216.555745 
L 122.782271 215.883187 
L 123.192626 215.883187 
L 123.192626 214.538073 
L 123.593547 214.538073 
L 123.593547 214.369934 
L 123.790603 214.369934 
L 123.790603 214.033655 
L 124.178158 214.033655 
L 124.178158 213.865516 
L 124.368753 213.865516 
L 124.368753 213.361098 
L 124.557288 213.361098 
L 124.557288 213.192959 
L 124.743806 213.192959 
L 124.743806 212.688541 
L 125.110962 212.688541 
L 125.110962 211.847844 
L 125.822869 211.847844 
L 125.822869 211.679705 
L 126.168212 211.679705 
L 126.168212 211.511566 
L 126.338353 211.511566 
L 126.338353 211.175287 
L 126.839037 211.175287 
L 126.839037 211.007148 
L 127.165014 211.007148 
L 127.165014 210.839009 
L 127.325746 210.839009 
L 127.325746 210.334591 
L 127.48501 210.334591 
L 127.48501 210.166451 
L 127.642832 210.166451 
L 127.642832 209.830173 
L 127.799239 209.830173 
L 127.799239 209.493894 
L 128.107907 209.493894 
L 128.107907 208.316919 
L 128.411207 208.316919 
L 128.411207 207.812501 
L 128.709321 207.812501 
L 128.709321 207.644362 
L 128.856489 207.644362 
L 128.856489 207.476223 
L 129.147151 207.476223 
L 129.147151 207.308083 
L 129.290685 207.308083 
L 129.290685 206.635526 
L 129.433047 206.635526 
L 129.433047 206.467387 
L 129.853291 206.467387 
L 129.853291 206.131108 
L 129.991152 206.131108 
L 129.991152 205.962969 
L 130.127931 205.962969 
L 130.127931 204.954133 
L 130.263646 204.954133 
L 130.263646 204.785994 
L 130.398313 204.785994 
L 130.398313 204.113437 
L 131.312942 204.113437 
L 131.312942 203.609019 
L 132.181982 203.609019 
L 132.181982 203.27274 
L 132.422528 203.27274 
L 132.422528 202.600183 
L 132.541568 202.600183 
L 132.541568 202.263904 
L 132.893889 202.263904 
L 132.893889 201.927626 
L 133.009765 201.927626 
L 133.009765 201.255069 
L 133.239232 201.255069 
L 133.239232 200.91879 
L 133.57787 200.91879 
L 133.57787 200.582511 
L 133.910056 200.582511 
L 133.910056 200.078094 
L 134.236034 200.078094 
L 134.343353 199.069258 
L 134.450015 199.069258 
L 134.55603 198.732979 
L 134.973757 198.732979 
L 135.076644 198.060422 
L 135.582166 198.060422 
L 135.582166 196.883447 
L 135.97629 196.883447 
L 135.97629 196.379029 
L 136.266147 196.379029 
L 136.266147 196.21089 
L 136.551264 196.21089 
L 136.645276 195.706472 
L 137.107884 195.706472 
L 137.198951 194.865775 
L 137.289545 194.865775 
L 137.37967 194.025079 
L 137.647286 194.025079 
L 137.647286 193.6888 
L 137.997836 193.6888 
L 138.084384 192.175547 
L 138.170504 192.175547 
L 138.170504 191.671129 
L 138.341479 191.671129 
L 138.341479 191.33485 
L 138.67848 191.33485 
L 138.761723 190.157875 
L 138.927025 190.157875 
L 138.927025 189.989736 
L 139.253002 189.989736 
L 139.333553 189.317179 
L 139.730821 189.317179 
L 139.730821 188.9809 
L 140.11924 188.9809 
L 140.195896 188.476482 
L 141.017599 188.476482 
L 141.090414 187.803925 
L 141.307054 187.803925 
L 141.307054 187.467646 
L 141.521035 187.467646 
L 141.521035 187.131368 
L 142.147664 187.131368 
L 142.147664 186.963228 
L 142.351634 186.963228 
L 142.419098 186.62695 
L 142.486301 186.62695 
L 142.486301 186.458811 
L 142.818488 186.458811 
L 142.884173 185.954393 
L 143.079756 185.954393 
L 143.079756 185.786253 
L 143.273169 185.786253 
L 143.273169 185.618114 
L 143.527762 185.618114 
L 143.527762 185.449975 
L 143.964547 185.449975 
L 143.964547 185.113696 
L 144.087359 185.113696 
L 144.087359 184.777418 
L 144.209312 184.777418 
L 144.209312 184.609278 
L 145.097753 184.609278 
L 145.097753 184.273 
L 145.270136 184.273 
L 145.270136 184.10486 
L 145.384119 184.10486 
L 145.384119 183.936721 
L 146.052799 183.936721 
L 146.107383 183.600442 
L 146.431341 183.600442 
L 146.431341 182.927885 
L 146.644018 182.927885 
L 146.696785 182.591607 
L 146.801841 182.591607 
L 146.801841 182.423467 
L 147.061745 182.423467 
L 147.061745 182.255328 
L 147.215849 182.255328 
L 147.215849 182.087189 
L 147.4697 182.087189 
L 147.4697 181.91905 
L 147.818997 181.91905 
L 147.818997 181.75091 
L 148.015498 181.75091 
L 148.015498 181.582771 
L 149.15016 181.582771 
L 149.15016 181.246492 
L 149.377533 181.246492 
L 149.422654 180.742074 
L 149.911431 180.742074 
L 149.911431 180.405796 
L 150.51433 180.405796 
L 150.51433 180.237657 
L 150.640855 180.237657 
L 150.640855 179.901378 
L 151.260066 179.901378 
L 151.340991 179.565099 
L 151.660987 179.565099 
L 151.660987 179.39696 
L 151.779487 179.39696 
L 151.779487 179.060681 
L 152.130233 179.060681 
L 152.130233 178.892542 
L 152.587184 178.892542 
L 152.624728 178.556264 
L 152.736878 178.556264 
L 152.811246 176.706731 
L 152.959038 176.706731 
L 152.959038 176.370453 
L 153.395042 176.370453 
L 153.466662 175.697896 
L 153.679772 175.697896 
L 153.785358 174.857199 
L 154.337936 174.857199 
L 154.405793 174.52092 
L 155.070227 174.52092 
L 155.070227 174.016503 
L 155.200129 174.016503 
L 155.232454 173.343945 
L 155.520713 173.343945 
L 155.520713 173.007667 
L 155.647315 173.007667 
L 155.647315 172.839527 
L 156.144725 172.839527 
L 156.144725 172.671388 
L 156.297301 172.671388 
L 156.297301 172.503249 
L 156.835778 172.503249 
L 156.923929 171.830692 
L 157.011638 171.830692 
L 157.069866 170.989995 
L 157.415209 170.989995 
L 157.415209 170.821856 
L 158.031107 170.821856 
L 158.031107 170.653717 
L 158.331086 170.653717 
L 158.331086 170.485577 
L 158.51933 170.485577 
L 158.599388 169.981159 
L 158.83738 169.981159 
L 158.83738 169.644881 
L 159.303838 169.644881 
L 159.303838 169.476742 
L 159.532469 169.476742 
L 159.532469 169.140463 
L 159.832723 169.140463 
L 159.882266 167.795349 
L 160.152267 167.795349 
L 160.152267 167.45907 
L 160.56149 167.45907 
L 160.56149 167.290931 
L 160.914762 167.290931 
L 160.914762 167.122791 
L 161.26102 167.122791 
L 161.26102 166.954652 
L 161.578106 166.954652 
L 161.578106 166.786513 
L 161.689969 166.786513 
L 161.689969 166.450234 
L 161.84538 166.450234 
L 161.933569 166.113956 
L 162.043181 166.113956 
L 162.043181 165.777677 
L 162.581141 165.777677 
L 162.581141 165.609538 
L 162.916926 165.609538 
L 162.999872 164.936981 
L 163.307451 164.936981 
L 163.307451 164.600702 
L 163.788565 164.600702 
L 163.788565 164.432563 
L 163.926426 164.432563 
L 163.926426 164.096284 
L 164.787563 164.096284 
L 164.787563 163.928145 
L 165.065412 163.928145 
L 165.065412 163.760005 
L 165.76776 163.760005 
L 165.76776 163.591866 
L 166.065276 163.591866 
L 166.065276 163.423727 
L 166.357802 163.423727 
L 166.442913 162.919309 
L 166.561376 162.919309 
L 166.628709 162.414891 
L 166.712511 162.414891 
L 166.712511 162.246752 
L 166.978005 162.246752 
L 166.978005 162.078612 
L 167.970232 162.078612 
L 167.970232 161.910473 
L 168.217383 161.910473 
L 168.217383 161.574195 
L 168.354881 161.574195 
L 168.445948 160.901637 
L 169.026567 160.901637 
L 169.026567 160.565359 
L 169.215888 160.565359 
L 169.215888 160.39722 
L 169.51744 160.39722 
L 169.616809 159.724662 
L 169.743743 159.724662 
L 169.743743 159.388384 
L 170.337772 159.388384 
L 170.432588 159.052105 
L 170.620687 159.052105 
L 170.687376 158.547687 
L 170.819995 158.547687 
L 170.859585 158.043269 
L 171.056197 158.043269 
L 171.056197 157.706991 
L 171.557249 157.706991 
L 171.645677 157.202573 
L 172.167033 157.202573 
L 172.191475 156.866294 
L 172.373705 156.866294 
L 172.458099 156.530016 
L 172.649478 156.530016 
L 172.649478 156.361876 
L 172.850543 156.361876 
L 172.897518 156.025598 
L 173.474266 156.025598 
L 173.474266 155.689319 
L 173.966492 155.689319 
L 173.966492 155.52118 
L 174.488079 155.52118 
L 174.488079 155.353041 
L 174.753684 155.353041 
L 174.753684 155.184901 
L 175.098201 155.184901 
L 175.098201 154.848623 
L 176.931477 154.848623 
L 176.950079 154.344205 
L 177.180944 154.344205 
L 177.180944 154.176066 
L 177.66942 154.176066 
L 177.66942 154.007926 
L 177.79386 154.007926 
L 177.79386 153.671648 
L 178.377401 153.671648 
L 178.377401 153.503508 
L 178.674645 153.503508 
L 178.674645 153.335369 
L 179.327506 153.335369 
L 179.327506 153.16723 
L 179.480944 153.16723 
L 179.480944 152.99909 
L 180.189955 152.99909 
L 180.189955 152.662812 
L 180.601926 152.662812 
L 180.699667 152.158394 
L 180.714656 152.158394 
L 180.737115 151.822115 
L 181.332822 151.822115 
L 181.332822 151.653976 
L 181.619658 151.653976 
L 181.669373 150.81328 
L 181.775431 150.81328 
L 181.775431 150.64514 
L 182.371348 150.64514 
L 182.371348 150.477001 
L 183.402933 150.477001 
L 183.402933 150.140722 
L 183.940347 150.140722 
L 183.940347 149.804444 
L 184.419343 149.804444 
L 184.503941 149.468165 
L 184.779052 149.468165 
L 184.808696 148.963747 
L 185.055732 148.963747 
L 185.055732 148.795608 
L 185.339586 148.795608 
L 185.339586 148.627469 
L 185.488347 148.627469 
L 185.488347 148.459329 
L 186.441733 148.459329 
L 186.538558 147.786772 
L 186.602811 147.786772 
L 186.602811 147.618633 
L 186.873275 147.618633 
L 186.915323 147.114215 
L 187.149971 147.114215 
L 187.149971 146.946076 
L 187.355928 146.946076 
L 187.355928 146.609797 
L 187.815615 146.609797 
L 187.870369 145.93724 
L 187.984303 145.93724 
L 188.033608 145.432822 
L 188.102403 145.432822 
L 188.102403 145.264683 
L 188.302324 145.264683 
L 188.302324 144.760265 
L 188.7333 144.760265 
L 188.7333 144.592126 
L 189.005501 144.592126 
L 189.047361 144.255847 
L 189.236794 144.255847 
L 189.236794 144.087708 
L 189.578083 144.087708 
L 189.587093 143.751429 
L 190.128096 143.751429 
L 190.197818 143.247011 
L 190.959405 143.247011 
L 190.959405 143.078872 
L 191.11689 143.078872 
L 191.190995 142.742593 
L 191.354553 142.742593 
L 191.354553 142.406315 
L 191.496419 142.406315 
L 191.496419 142.070036 
L 192.06825 142.070036 
L 192.142319 141.397479 
L 192.557468 141.397479 
L 192.56886 141.0612 
L 192.892307 141.0612 
L 192.892307 140.724922 
L 193.092377 140.724922 
L 193.092377 140.388643 
L 193.253717 140.388643 
L 193.253717 140.220504 
L 193.525334 140.220504 
L 193.525334 139.884225 
L 194.10493 139.884225 
L 194.191615 139.379807 
L 194.281313 139.379807 
L 194.384241 138.70725 
L 194.699509 138.70725 
L 194.793323 138.370972 
L 194.933104 138.370972 
L 194.966221 138.034693 
L 195.445917 138.034693 
L 195.45557 137.362136 
L 195.922169 137.362136 
L 195.981577 137.025857 
L 196.093587 137.025857 
L 196.093587 136.857718 
L 196.257192 136.857718 
L 196.257192 136.689579 
L 196.440572 136.689579 
L 196.440572 136.521439 
L 197.242725 136.521439 
L 197.242725 136.3533 
L 197.587727 136.3533 
L 197.587727 136.017022 
L 197.928828 136.017022 
L 198.037362 135.512604 
L 198.101055 135.512604 
L 198.189286 134.840046 
L 198.274335 134.840046 
L 198.274335 134.671907 
L 198.462164 134.671907 
L 198.462164 134.503768 
L 198.685454 134.503768 
L 198.690799 133.99935 
L 198.977043 133.99935 
L 198.977043 133.663071 
L 199.123637 133.663071 
L 199.20426 132.990514 
L 199.418305 132.990514 
L 199.502682 131.813539 
L 199.576497 131.813539 
L 199.584115 131.47726 
L 199.838671 131.47726 
L 199.838671 131.309121 
L 200.143739 131.309121 
L 200.192843 130.972843 
L 200.414537 130.972843 
L 200.414537 130.804703 
L 200.733564 130.804703 
L 200.745445 130.468425 
L 200.899158 130.468425 
L 201.009467 129.964007 
L 201.430157 129.964007 
L 201.530356 129.459589 
L 201.600608 129.459589 
L 201.652547 129.12331 
L 201.787318 129.12331 
L 201.811914 128.618892 
L 202.06479 128.618892 
L 202.121954 128.282614 
L 202.20298 128.282614 
L 202.298848 127.778196 
L 202.353085 127.778196 
L 202.353085 127.610057 
L 202.640954 127.610057 
L 202.742926 126.937499 
L 202.863248 126.937499 
L 202.953471 126.433082 
L 203.161505 126.433082 
L 203.161505 126.096803 
L 203.65491 126.096803 
L 203.65491 125.760524 
L 203.813005 125.760524 
L 203.892509 125.424246 
L 204.107337 125.424246 
L 204.185514 124.583549 
L 204.317616 124.583549 
L 204.317616 124.41541 
L 204.431428 124.41541 
L 204.489015 124.079131 
L 204.654951 124.079131 
L 204.715589 123.574714 
L 204.935522 123.574714 
L 204.935522 123.406574 
L 205.089877 123.406574 
L 205.198775 122.565878 
L 205.244714 122.565878 
L 205.354476 121.725181 
L 205.365414 121.725181 
L 205.394549 121.388903 
L 205.564743 121.388903 
L 205.564743 121.220763 
L 205.717224 121.220763 
L 205.781405 120.884485 
L 206.105801 120.884485 
L 206.182488 120.211928 
L 206.322785 120.211928 
L 206.367581 119.53937 
L 206.698242 119.53937 
L 206.780777 119.034953 
L 206.847864 119.034953 
L 206.956333 118.530535 
L 206.989573 118.530535 
L 206.989573 118.362395 
L 207.133434 118.362395 
L 207.217217 118.026117 
L 207.524246 118.026117 
L 207.596559 116.849142 
L 207.83862 116.849142 
L 207.928534 116.176584 
L 208.133437 116.176584 
L 208.2203 115.504027 
L 208.266657 115.504027 
L 208.297493 115.167749 
L 208.456967 115.167749 
L 208.456967 114.83147 
L 208.610457 114.83147 
L 208.610457 114.663331 
L 208.737091 114.663331 
L 208.737091 114.495192 
L 208.941673 114.495192 
L 209.039381 113.654495 
L 209.120388 113.654495 
L 209.120388 113.486356 
L 209.390137 113.486356 
L 209.390137 113.150077 
L 209.927254 113.150077 
L 209.927254 112.813799 
L 210.240106 112.813799 
L 210.240106 112.645659 
L 210.499991 112.645659 
L 210.499991 112.47752 
L 210.715876 112.47752 
L 210.73062 111.973102 
L 210.968817 111.973102 
L 210.968817 111.804963 
L 211.107042 111.804963 
L 211.107042 111.636823 
L 211.380247 111.636823 
L 211.438239 110.964266 
L 211.590671 110.964266 
L 211.590671 110.796127 
L 212.010277 110.796127 
L 212.010277 110.459848 
L 212.738162 110.459848 
L 212.738162 110.291709 
L 213.137183 110.291709 
L 213.151183 109.619152 
L 213.41392 109.619152 
L 213.41392 109.451013 
L 214.615651 109.451013 
L 214.615651 109.114734 
L 215.056103 109.114734 
L 215.056103 108.946595 
L 215.289773 108.946595 
L 215.289773 108.778455 
L 216.268627 108.778455 
L 216.268627 108.610316 
L 216.635356 108.610316 
L 216.635356 108.442177 
L 218.011177 108.442177 
L 218.026174 108.105898 
L 218.168443 108.105898 
L 218.168443 107.937759 
L 218.45815 107.937759 
L 218.45815 107.60148 
L 218.800576 107.60148 
L 218.800576 107.433341 
L 218.979321 107.433341 
L 218.979321 107.097062 
L 219.109081 107.097062 
L 219.109081 106.760784 
L 219.724591 106.760784 
L 219.724591 106.592645 
L 220.27344 106.592645 
L 220.27344 106.256366 
L 221.007379 106.256366 
L 221.007379 106.088227 
L 221.635843 106.088227 
L 221.648743 105.583809 
L 221.943543 105.583809 
L 221.943543 105.24753 
L 222.067077 105.24753 
L 222.067077 105.079391 
L 222.288085 105.079391 
L 222.288085 104.911252 
L 222.69828 104.911252 
L 222.69828 104.743112 
L 223.517863 104.743112 
L 223.517863 104.574973 
L 223.940681 104.574973 
L 223.940681 104.406834 
L 224.717745 104.406834 
L 224.717745 104.070555 
L 225.06277 104.070555 
L 225.06277 103.902416 
L 225.763576 103.902416 
L 225.824578 103.397998 
L 226.469392 103.397998 
L 226.469392 103.061719 
L 227.047638 103.061719 
L 227.047638 102.89358 
L 227.370539 102.89358 
L 227.370539 102.725441 
L 227.650032 102.725441 
L 227.650032 102.557301 
L 228.270087 102.557301 
L 228.270087 102.221023 
L 228.433494 102.221023 
L 228.433494 102.052884 
L 228.823808 102.052884 
L 228.823808 101.884744 
L 229.139496 101.884744 
L 229.139496 101.716605 
L 229.606877 101.716605 
L 229.687939 101.380326 
L 232.184177 101.380326 
L 232.184177 101.212187 
L 232.521158 101.212187 
L 232.521158 101.044048 
L 338.688 101.044048 
L 338.688 101.044048 
" style="fill:none;stroke:#000080;stroke-linecap:square;stroke-width:1.5;"/>
   </g>
   <g id="line2d_36">
    <defs>
     <path d="M 0 6 
C 1.591219 6 3.117479 5.367802 4.242641 4.242641 
C 5.367802 3.117479 6 1.591219 6 0 
C 6 -1.591219 5.367802 -3.117479 4.242641 -4.242641 
C 3.117479 -5.367802 1.591219 -6 0 -6 
C -1.591219 -6 -3.117479 -5.367802 -4.242641 -4.242641 
C -5.367802 -3.117479 -6 -1.591219 -6 0 
C -6 1.591219 -5.367802 3.117479 -4.242641 4.242641 
C -3.117479 5.367802 -1.591219 6 0 6 
z
" id="m819f284e42" style="stroke:#000080;stroke-width:1.5;"/>
    </defs>
    <g>
     <use style="fill-opacity:0;stroke:#000080;stroke-width:1.5;" x="92.73846" xlink:href="#m819f284e42" y="259.935683"/>
     <use style="fill-opacity:0;stroke:#000080;stroke-width:1.5;" x="132.181982" xlink:href="#m819f284e42" y="203.609019"/>
     <use style="fill-opacity:0;stroke:#000080;stroke-width:1.5;" x="201.811914" xlink:href="#m819f284e42" y="128.618892"/>
     <use style="fill-opacity:0;stroke:#000080;stroke-width:1.5;" x="232.521158" xlink:href="#m819f284e42" y="101.212187"/>
     <use style="fill-opacity:0;stroke:#000080;stroke-width:1.5;" x="232.521158" xlink:href="#m819f284e42" y="101.044048"/>
     <use style="fill-opacity:0;stroke:#000080;stroke-width:1.5;" x="338.688" xlink:href="#m819f284e42" y="101.044048"/>
    </g>
   </g>
   <g id="line2d_37">
    <path style="fill:none;stroke:#000080;stroke-linecap:square;stroke-width:1.5;"/>
    <g/>
   </g>
   <g id="line2d_38">
    <path clip-path="url(#p44e148bd3c)" d="M 234.675968 101.044048 
" style="fill:none;stroke:#000080;stroke-linecap:square;stroke-width:1.5;"/>
    <defs>
     <path d="M -12 12 
L 12 -12 
M -12 -12 
L 12 12 
" id="m23a568924f" style="stroke:#000080;"/>
    </defs>
    <g clip-path="url(#p44e148bd3c)">
     <use style="fill:#000080;stroke:#000080;" x="234.675968" xlink:href="#m23a568924f" y="101.044048"/>
    </g>
   </g>
   <g id="line2d_39">
    <defs>
     <path d="M 0 1.5 
C 0.397805 1.5 0.77937 1.341951 1.06066 1.06066 
C 1.341951 0.77937 1.5 0.397805 1.5 0 
C 1.5 -0.397805 1.341951 -0.77937 1.06066 -1.06066 
C 0.77937 -1.341951 0.397805 -1.5 0 -1.5 
C -0.397805 -1.5 -0.77937 -1.341951 -1.06066 -1.06066 
C -1.341951 -0.77937 -1.5 -0.397805 -1.5 0 
C -1.5 0.397805 -1.341951 0.77937 -1.06066 1.06066 
C -0.77937 1.341951 -0.397805 1.5 0 1.5 
z
" id="m668c4b6131" style="stroke:#ff00ff;"/>
    </defs>
    <g>
     <use style="fill:#ff00ff;stroke:#ff00ff;" x="233.94326" xlink:href="#m668c4b6131" y="133.158653"/>
     <use style="fill:#ff00ff;stroke:#ff00ff;" x="233.94326" xlink:href="#m668c4b6131" y="133.158653"/>
    </g>
   </g>
   <g id="line2d_40">
    <path d="M 64.67102 298.944 
L 64.67102 298.775861 
L 69.687988 298.775861 
L 69.687988 293.563543 
L 76.759008 293.563543 
L 76.759008 289.864478 
L 90.242884 289.864478 
L 90.242884 289.023781 
L 100.934985 289.023781 
L 100.934985 288.183085 
L 103.623262 288.183085 
L 103.623262 287.342389 
L 104.826449 287.342389 
L 104.826449 286.501692 
L 107.009204 286.501692 
L 107.009204 284.48402 
L 108.006005 284.48402 
L 108.006005 282.802628 
L 108.948899 282.802628 
L 108.948899 282.634488 
L 110.694282 282.634488 
L 110.694282 282.466349 
L 111.897469 282.466349 
L 111.897469 281.625652 
L 113.73488 281.625652 
L 113.73488 281.289374 
L 114.418861 281.289374 
L 114.418861 280.448677 
L 116.019919 280.448677 
L 116.019919 279.944259 
L 116.914437 279.944259 
L 116.914437 278.935424 
L 117.202696 278.935424 
L 117.202696 278.767284 
L 117.486268 278.767284 
L 117.486268 278.599145 
L 118.576578 278.599145 
L 118.576578 277.758449 
L 119.850084 277.758449 
L 119.850084 277.42217 
L 120.8059 277.42217 
L 120.8059 277.085891 
L 121.036887 277.085891 
L 121.036887 275.572638 
L 121.264855 275.572638 
L 121.264855 275.06822 
L 122.362027 275.06822 
L 122.362027 274.731941 
L 123.192626 274.731941 
L 123.192626 273.723105 
L 123.790603 273.723105 
L 123.790603 273.050548 
L 123.985457 273.050548 
L 123.985457 271.032877 
L 124.557288 271.032877 
L 124.557288 270.36032 
L 125.291682 270.36032 
L 125.291682 270.19218 
L 125.822869 270.19218 
L 125.822869 269.519623 
L 127.325746 269.519623 
L 127.325746 268.678927 
L 127.48501 268.678927 
L 127.48501 268.510787 
L 127.799239 268.510787 
L 127.799239 267.83823 
L 128.107907 267.83823 
L 128.107907 266.829394 
L 128.411207 266.829394 
L 128.411207 266.156837 
L 129.002426 266.156837 
L 129.002426 265.820559 
L 129.147151 265.820559 
L 129.147151 264.307305 
L 129.290685 264.307305 
L 129.290685 264.139166 
L 129.574256 264.139166 
L 129.574256 263.802887 
L 129.714332 263.802887 
L 129.714332 263.634748 
L 129.991152 263.634748 
L 129.991152 262.457773 
L 130.263646 262.457773 
L 130.263646 262.121494 
L 130.398313 262.121494 
L 130.398313 261.953355 
L 130.531948 261.953355 
L 130.531948 261.617076 
L 130.796184 261.617076 
L 130.796184 261.280798 
L 130.926816 261.280798 
L 130.926816 261.112658 
L 131.185181 261.112658 
L 131.185181 260.103822 
L 132.181982 260.103822 
L 132.181982 259.263126 
L 132.541568 259.263126 
L 132.541568 257.245454 
L 132.659801 257.245454 
L 132.659801 256.068479 
L 133.009765 256.068479 
L 133.009765 255.227783 
L 133.239232 255.227783 
L 133.239232 255.059644 
L 133.352844 255.059644 
L 133.352844 254.555226 
L 133.46572 254.555226 
L 133.46572 254.218947 
L 133.57787 254.218947 
L 133.57787 252.705693 
L 134.12805 252.705693 
L 134.236034 251.696858 
L 134.450015 251.696858 
L 134.55603 249.342907 
L 134.870259 249.342907 
L 134.870259 248.502211 
L 135.076644 248.502211 
L 135.076644 247.997793 
L 135.381712 247.997793 
L 135.482227 245.139425 
L 135.878591 245.139425 
L 135.878591 244.298729 
L 136.170062 244.298729 
L 136.170062 244.130589 
L 136.456742 244.130589 
L 136.456742 243.96245 
L 136.738785 243.96245 
L 136.738785 243.626171 
L 137.198951 243.626171 
L 137.198951 243.289893 
L 137.469333 243.289893 
L 137.558536 241.944778 
L 137.647286 241.944778 
L 137.647286 241.6085 
L 137.997836 241.6085 
L 138.084384 241.272221 
L 138.170504 241.272221 
L 138.170504 240.935943 
L 138.426341 240.935943 
L 138.426341 240.767803 
L 138.761723 240.767803 
L 138.84457 240.263385 
L 138.927025 240.263385 
L 138.927025 239.927107 
L 139.253002 239.927107 
L 139.253002 239.590828 
L 139.493548 239.590828 
L 139.572998 239.25455 
L 139.652088 239.25455 
L 139.652088 236.9006 
L 139.8092 236.9006 
L 139.887228 236.228042 
L 139.964909 236.228042 
L 140.042245 234.37851 
L 140.195896 234.37851 
L 140.272217 233.537814 
L 140.499195 233.537814 
L 140.499195 232.697117 
L 141.017599 232.697117 
L 141.090414 231.856421 
L 141.162927 231.856421 
L 141.162927 231.520142 
L 141.591783 231.520142 
L 141.591783 231.183863 
L 141.80232 231.183863 
L 141.80232 230.847585 
L 142.619936 230.847585 
L 142.619936 230.511306 
L 142.752555 230.511306 
L 142.818488 229.334331 
L 142.949611 229.334331 
L 142.949611 228.157356 
L 143.144465 228.157356 
L 143.144465 227.989217 
L 143.337167 227.989217 
L 143.337167 227.821078 
L 143.464461 227.821078 
L 143.464461 227.652938 
L 144.570138 227.652938 
L 144.629556 225.971545 
L 144.865226 225.971545 
L 144.865226 225.298988 
L 145.155404 225.298988 
L 145.212864 224.79457 
L 145.270136 224.79457 
L 145.270136 224.290152 
L 145.384119 224.290152 
L 145.384119 224.122013 
L 145.832743 224.122013 
L 145.832743 223.449456 
L 146.377764 223.449456 
L 146.377764 222.945038 
L 146.749392 222.945038 
L 146.801841 221.768063 
L 148.306159 221.768063 
L 148.306159 221.431784 
L 148.449693 221.431784 
L 148.497276 221.095506 
L 148.592055 221.095506 
L 148.592055 220.591088 
L 148.826773 220.591088 
L 148.826773 220.422948 
L 149.377533 220.422948 
L 149.467659 220.08667 
L 149.779481 220.08667 
L 149.867558 218.405277 
L 149.955193 218.405277 
L 150.042389 217.56458 
L 150.085825 217.56458 
L 150.172372 216.892023 
L 150.258492 216.892023 
L 150.258492 216.555745 
L 150.640855 216.555745 
L 150.724698 215.715048 
L 150.849711 215.715048 
L 150.849711 215.37877 
L 151.056095 215.37877 
L 151.056095 215.21063 
L 152.052897 215.21063 
L 152.052897 215.042491 
L 152.207228 215.042491 
L 152.207228 214.874352 
L 153.430889 214.874352 
L 153.430889 214.706212 
L 153.644434 214.706212 
L 153.644434 214.538073 
L 154.098334 214.538073 
L 154.098334 214.369934 
L 154.235652 214.369934 
L 154.337936 213.865516 
L 154.405793 213.865516 
L 154.473387 212.85668 
L 155.004911 212.85668 
L 155.004911 212.520402 
L 155.264719 212.520402 
L 155.264719 212.184123 
L 155.710272 212.184123 
L 155.710272 212.015984 
L 155.83551 212.015984 
L 155.83551 211.847844 
L 156.205916 211.847844 
L 156.205916 211.511566 
L 156.835778 211.511566 
L 156.835778 211.343426 
L 157.329512 211.343426 
L 157.415209 210.166451 
L 157.472107 210.166451 
L 157.472107 209.998312 
L 157.641697 209.998312 
L 157.641697 209.493894 
L 158.113432 209.493894 
L 158.113432 209.325755 
L 158.385078 209.325755 
L 158.385078 209.157616 
L 158.75841 209.157616 
L 158.811096 208.653198 
L 159.020266 208.653198 
L 159.020266 208.485058 
L 159.201253 208.485058 
L 159.252621 207.812501 
L 159.354904 207.812501 
L 159.354904 207.308083 
L 159.507213 207.308083 
L 159.507213 207.139944 
L 159.758143 207.139944 
L 159.758143 206.803665 
L 160.225184 206.803665 
L 160.225184 206.635526 
L 160.821253 206.635526 
L 160.914762 205.79483 
L 160.984566 205.79483 
L 161.054091 205.290412 
L 161.238149 205.290412 
L 161.306672 204.954133 
L 161.420284 204.954133 
L 161.420284 204.617855 
L 161.555647 204.617855 
L 161.64531 204.113437 
L 161.689969 204.113437 
L 161.712255 203.777158 
L 161.933569 203.777158 
L 161.933569 203.609019 
L 162.130378 203.609019 
L 162.130378 203.440879 
L 162.324991 203.440879 
L 162.410793 202.936462 
L 162.749842 202.936462 
L 162.749842 202.432044 
L 162.875305 202.432044 
L 162.958448 201.591347 
L 163.020547 201.591347 
L 163.020547 201.423208 
L 163.307451 201.423208 
L 163.307451 201.255069 
L 163.428979 201.255069 
L 163.428979 200.750651 
L 163.867476 200.750651 
L 163.867476 200.414372 
L 164.024234 200.414372 
L 164.024234 200.078094 
L 164.256762 200.078094 
L 164.256762 199.741815 
L 164.637547 199.741815 
L 164.712717 198.732979 
L 165.230021 198.732979 
L 165.230021 198.56484 
L 165.356985 198.56484 
L 165.356985 198.396701 
L 165.643763 198.396701 
L 165.732422 197.724143 
L 165.943384 197.724143 
L 165.943384 197.556004 
L 166.220754 197.556004 
L 166.272273 197.219726 
L 166.442913 197.219726 
L 166.442913 196.547168 
L 166.6119 196.547168 
L 166.712511 196.21089 
L 166.978005 196.21089 
L 166.978005 195.874611 
L 167.76681 195.874611 
L 167.76681 195.370193 
L 167.907893 195.370193 
L 167.907893 195.202054 
L 168.309168 195.202054 
L 168.339657 194.865775 
L 168.77585 194.865775 
L 168.879523 193.85694 
L 169.026567 193.85694 
L 169.026567 193.6888 
L 169.813865 193.6888 
L 169.813865 193.352522 
L 169.925477 193.352522 
L 169.967148 192.511825 
L 170.119095 192.511825 
L 170.14658 192.007407 
L 170.28336 192.007407 
L 170.310587 191.671129 
L 170.567151 191.671129 
L 170.567151 191.502989 
L 170.700684 191.502989 
L 170.700684 190.494154 
L 170.872762 190.494154 
L 170.872762 190.157875 
L 171.237722 190.157875 
L 171.237722 189.989736 
L 171.683438 189.989736 
L 171.683438 189.653457 
L 172.720707 189.653457 
L 172.720707 189.317179 
L 173.360433 189.317179 
L 173.360433 188.9809 
L 174.065485 188.9809 
L 174.065485 188.644621 
L 174.229235 188.644621 
L 174.229235 188.476482 
L 174.455933 188.476482 
L 174.455933 187.635786 
L 174.626698 187.635786 
L 174.626698 187.467646 
L 174.743137 187.467646 
L 174.743137 187.131368 
L 175.067161 187.131368 
L 175.077514 186.795089 
L 175.211544 186.795089 
L 175.313947 186.122532 
L 175.717652 186.122532 
L 175.717652 185.954393 
L 176.043814 185.954393 
L 176.082938 185.281835 
L 176.286908 185.281835 
L 176.286908 184.609278 
L 176.52666 184.609278 
L 176.621646 184.10486 
L 176.687829 184.10486 
L 176.687829 183.936721 
L 177.033543 183.936721 
L 177.116609 183.264164 
L 177.226752 183.264164 
L 177.308905 182.759746 
L 177.417845 182.759746 
L 177.417845 182.591607 
L 177.65157 182.591607 
L 177.65157 182.423467 
L 178.196592 182.423467 
L 178.196592 182.087189 
L 178.858923 182.087189 
L 178.966907 181.246492 
L 179.448753 181.246492 
L 179.480944 180.573935 
L 180.290026 180.573935 
L 180.290026 180.405796 
L 181.282137 180.405796 
L 181.282137 180.237657 
L 182.124367 180.237657 
L 182.124367 180.069517 
L 182.65514 180.069517 
L 182.65514 179.901378 
L 182.801969 179.901378 
L 182.88154 179.39696 
L 183.150701 179.39696 
L 183.157214 178.724403 
L 183.505367 178.724403 
L 183.505367 178.388124 
L 183.815378 178.388124 
L 183.815378 178.219985 
L 184.749358 178.219985 
L 184.749358 178.051846 
L 185.114038 178.051846 
L 185.114038 177.883706 
L 185.45413 177.883706 
L 185.45413 177.547428 
L 186.026882 177.547428 
L 186.026882 177.211149 
L 186.527826 177.211149 
L 186.527826 177.04301 
L 187.442729 177.04301 
L 187.442729 176.874871 
L 187.610002 176.874871 
L 187.610002 176.538592 
L 188.214836 176.538592 
L 188.214836 176.370453 
L 188.466391 176.370453 
L 188.54785 175.697896 
L 188.700159 175.697896 
L 188.756934 174.184642 
L 188.818232 174.184642 
L 188.818232 174.016503 
L 188.982202 174.016503 
L 188.982202 173.848363 
L 189.501307 173.848363 
L 189.501307 173.680224 
L 189.757409 173.680224 
L 189.757409 173.343945 
L 189.91282 173.343945 
L 189.921659 172.671388 
L 190.657055 172.671388 
L 190.657055 172.503249 
L 191.484305 172.503249 
L 191.484305 172.33511 
L 191.859959 172.33511 
L 191.859959 172.16697 
L 192.06825 172.16697 
L 192.165644 171.494413 
L 192.576451 171.494413 
L 192.576451 171.326274 
L 192.88858 171.326274 
L 192.907206 170.989995 
L 194.129246 170.989995 
L 194.129246 170.821856 
L 194.401336 170.821856 
L 194.462742 170.485577 
L 194.786638 170.485577 
L 194.786638 170.317438 
L 195.26798 170.317438 
L 195.26798 170.149299 
L 195.510174 170.149299 
L 195.510174 169.981159 
L 195.969087 169.981159 
L 195.969087 169.644881 
L 196.40405 169.644881 
L 196.40405 169.308602 
L 196.79569 169.308602 
L 196.79569 168.972324 
L 197.746421 168.972324 
L 197.746421 168.804184 
L 198.274335 168.804184 
L 198.345349 168.131627 
L 198.597018 168.131627 
L 198.597018 167.963488 
L 198.969155 167.963488 
L 198.969155 167.795349 
L 199.29484 167.795349 
L 199.29484 167.627209 
L 199.65 167.627209 
L 199.735784 166.786513 
L 199.770984 166.786513 
L 199.770984 166.450234 
L 200.506285 166.450234 
L 200.587968 165.945816 
L 200.652562 165.945816 
L 200.652562 165.777677 
L 201.067859 165.777677 
L 201.093489 165.10512 
L 201.771649 165.10512 
L 201.771649 164.768841 
L 202.376896 164.768841 
L 202.383384 163.928145 
L 202.675011 163.928145 
L 202.675011 163.760005 
L 203.276929 163.760005 
L 203.276929 163.423727 
L 203.442542 163.423727 
L 203.519698 162.58303 
L 204.834359 162.58303 
L 204.834359 162.246752 
L 204.956057 162.246752 
L 204.956057 162.078612 
L 205.358123 162.078612 
L 205.358123 161.742334 
L 205.852441 161.742334 
L 205.852441 161.574195 
L 206.770692 161.574195 
L 206.770692 161.406055 
L 207.633403 161.406055 
L 207.674959 161.069777 
L 207.919091 161.069777 
L 207.919091 160.901637 
L 208.166062 160.901637 
L 208.211014 160.39722 
L 208.434055 160.39722 
L 208.434055 160.22908 
L 208.640692 160.22908 
L 208.640692 160.060941 
L 208.874739 160.060941 
L 208.926821 159.556523 
L 209.966494 159.556523 
L 209.966494 159.388384 
L 210.087858 159.388384 
L 210.087858 159.220244 
L 210.201478 159.220244 
L 210.201478 159.052105 
L 210.707828 159.052105 
L 210.777452 158.379548 
L 210.962207 158.379548 
L 211.00974 157.706991 
L 211.27927 157.706991 
L 211.318177 156.866294 
L 211.522945 156.866294 
L 211.522945 156.530016 
L 211.814961 156.530016 
L 211.814961 156.361876 
L 212.216969 156.361876 
L 212.285734 155.857459 
L 212.763221 155.857459 
L 212.847679 155.353041 
L 213.537547 155.353041 
L 213.537547 155.016762 
L 213.716843 155.016762 
L 213.716843 154.512344 
L 213.975706 154.512344 
L 214.017924 154.007926 
L 214.238454 154.007926 
L 214.297522 153.503508 
L 214.531813 153.503508 
L 214.626371 152.662812 
L 214.871114 152.662812 
L 214.871114 152.494673 
L 215.106216 152.494673 
L 215.122889 151.822115 
L 215.465291 151.822115 
L 215.465291 151.485837 
L 215.952712 151.485837 
L 215.952712 151.149558 
L 216.714442 151.149558 
L 216.794117 150.64514 
L 216.89226 150.64514 
L 216.89226 150.477001 
L 217.105507 150.477001 
L 217.105507 150.308862 
L 217.677038 150.308862 
L 217.696819 149.972583 
L 217.884513 149.972583 
L 217.900507 149.300026 
L 218.03499 149.300026 
L 218.121149 148.459329 
L 218.347693 148.459329 
L 218.347693 148.123051 
L 218.553375 148.123051 
L 218.64638 147.786772 
L 219.030176 147.786772 
L 219.030176 147.618633 
L 219.148813 147.618633 
L 219.195054 146.946076 
L 219.384511 146.946076 
L 219.384511 146.609797 
L 219.573545 146.609797 
L 219.592095 146.105379 
L 219.742981 146.105379 
L 219.742981 145.93724 
L 220.35233 145.93724 
L 220.416263 145.096544 
L 220.471533 145.096544 
L 220.551823 144.592126 
L 220.612749 144.592126 
L 220.616549 144.087708 
L 220.884312 144.087708 
L 220.884312 143.919568 
L 221.286814 143.919568 
L 221.286814 143.751429 
L 221.449888 143.751429 
L 221.449888 143.58329 
L 223.009823 143.58329 
L 223.088496 142.910733 
L 223.718151 142.910733 
L 223.718151 142.742593 
L 223.839883 142.742593 
L 223.839883 142.574454 
L 224.154823 142.574454 
L 224.154823 142.406315 
L 224.289571 142.406315 
L 224.392708 142.070036 
L 224.524423 142.070036 
L 224.524423 141.901897 
L 224.763945 141.901897 
L 224.783109 141.565618 
L 225.392434 141.565618 
L 225.495015 141.0612 
L 225.524295 141.0612 
L 225.524295 140.893061 
L 225.744893 140.893061 
L 225.744893 140.724922 
L 226.030292 140.724922 
L 226.030292 140.556783 
L 226.271021 140.556783 
L 226.339586 139.884225 
L 226.461783 139.884225 
L 226.513893 139.211668 
L 226.707928 139.211668 
L 226.707928 139.043529 
L 226.945889 139.043529 
L 226.945889 138.87539 
L 227.487283 138.87539 
L 227.487283 138.539111 
L 228.041694 138.539111 
L 228.041694 138.370972 
L 228.265186 138.370972 
L 228.33661 137.866554 
L 228.515352 137.866554 
L 228.572761 137.193997 
L 228.72239 137.193997 
L 228.72239 136.857718 
L 229.298225 136.857718 
L 229.298225 136.689579 
L 229.759628 136.689579 
L 229.759628 136.521439 
L 229.879354 136.521439 
L 229.879354 136.3533 
L 230.194222 136.3533 
L 230.194222 136.185161 
L 230.408824 136.185161 
L 230.408824 135.848882 
L 230.828573 135.848882 
L 230.828573 135.680743 
L 231.0623 135.680743 
L 231.141458 135.176325 
L 231.425123 135.176325 
L 231.506319 134.671907 
L 231.600909 134.671907 
L 231.600909 134.503768 
L 232.244372 134.503768 
L 232.244372 134.167489 
L 233.341125 134.167489 
L 233.341125 133.99935 
L 233.582022 133.99935 
L 233.692977 133.494932 
L 233.94326 133.494932 
L 233.94326 133.158653 
L 338.688 133.158653 
L 338.688 133.158653 
" style="fill:none;stroke:#ff00ff;stroke-linecap:square;stroke-width:1.5;"/>
   </g>
   <g id="line2d_41">
    <defs>
     <path d="M 0 8.485281 
L 5.091169 0 
L 0 -8.485281 
L -5.091169 0 
z
" id="m1cd45c36de" style="stroke:#ff00ff;stroke-linejoin:miter;stroke-width:1.5;"/>
    </defs>
    <g>
     <use style="fill-opacity:0;stroke:#ff00ff;stroke-linejoin:miter;stroke-width:1.5;" x="134.870259" xlink:href="#m1cd45c36de" y="249.342907"/>
     <use style="fill-opacity:0;stroke:#ff00ff;stroke-linejoin:miter;stroke-width:1.5;" x="218.121149" xlink:href="#m1cd45c36de" y="148.795608"/>
     <use style="fill-opacity:0;stroke:#ff00ff;stroke-linejoin:miter;stroke-width:1.5;" x="233.94326" xlink:href="#m1cd45c36de" y="133.158653"/>
     <use style="fill-opacity:0;stroke:#ff00ff;stroke-linejoin:miter;stroke-width:1.5;" x="233.94326" xlink:href="#m1cd45c36de" y="133.158653"/>
     <use style="fill-opacity:0;stroke:#ff00ff;stroke-linejoin:miter;stroke-width:1.5;" x="338.688" xlink:href="#m1cd45c36de" y="133.158653"/>
    </g>
   </g>
   <g id="line2d_42">
    <path style="fill:none;stroke:#ff00ff;stroke-linecap:square;stroke-width:1.5;"/>
    <g/>
   </g>
   <g id="line2d_43">
    <path clip-path="url(#p44e148bd3c)" d="M 234.201515 133.158653 
" style="fill:none;stroke:#ff00ff;stroke-linecap:square;stroke-width:1.5;"/>
    <defs>
     <path d="M -12 12 
L 12 -12 
M -12 -12 
L 12 12 
" id="mb18a2351b6" style="stroke:#ff00ff;"/>
    </defs>
    <g clip-path="url(#p44e148bd3c)">
     <use style="fill:#ff00ff;stroke:#ff00ff;" x="234.201515" xlink:href="#mb18a2351b6" y="133.158653"/>
    </g>
   </g>
   <g id="line2d_44">
    <path d="M 338.688 133.158653 
L 369.60768 293.092752 
" style="fill:none;stroke:#ff00ff;stroke-linecap:square;stroke-width:1.5;"/>
    <g>
     <use style="fill-opacity:0;stroke:#ff00ff;stroke-linejoin:miter;stroke-width:1.5;" x="338.688" xlink:href="#m1cd45c36de" y="133.158653"/>
     <use style="fill-opacity:0;stroke:#ff00ff;stroke-linejoin:miter;stroke-width:1.5;" x="369.60768" xlink:href="#m1cd45c36de" y="293.092752"/>
    </g>
   </g>
   <g id="line2d_45">
    <path d="M 338.688 101.044048 
L 369.60768 152.662812 
" style="fill:none;stroke:#000080;stroke-linecap:square;stroke-width:1.5;"/>
    <g>
     <use style="fill-opacity:0;stroke:#000080;stroke-width:1.5;" x="338.688" xlink:href="#m819f284e42" y="101.044048"/>
     <use style="fill-opacity:0;stroke:#000080;stroke-width:1.5;" x="369.60768" xlink:href="#m819f284e42" y="152.662812"/>
    </g>
   </g>
   <g id="line2d_46">
    <path d="M 338.688 298.944 
L 338.688 6.381624 
" style="fill:none;stroke:#000000;stroke-linecap:square;stroke-width:1.5;"/>
   </g>
   <g id="patch_3">
    <path d="M 57.6 298.944 
L 57.6 3.456 
" style="fill:none;stroke:#000000;stroke-linecap:square;stroke-linejoin:miter;stroke-width:0.8;"/>
   </g>
   <g id="patch_4">
    <path d="M 338.688 298.944 
L 338.688 3.456 
" style="fill:none;stroke:#000000;stroke-linecap:square;stroke-linejoin:miter;stroke-width:0.8;"/>
   </g>
   <g id="patch_5">
    <path d="M 57.6 298.944 
L 338.688 298.944 
" style="fill:none;stroke:#000000;stroke-linecap:square;stroke-linejoin:miter;stroke-width:0.8;"/>
   </g>
   <g id="patch_6">
    <path d="M 57.6 3.456 
L 338.688 3.456 
" style="fill:none;stroke:#000000;stroke-linecap:square;stroke-linejoin:miter;stroke-width:0.8;"/>
   </g>
   <g id="text_13">
    <!-- MultiGLOD -->
    <g transform="translate(375.22944 297.78369)scale(0.17 -0.17)">
     <defs>
      <path d="M 628 4666 
L 1569 4666 
L 2759 1491 
L 3956 4666 
L 4897 4666 
L 4897 0 
L 4281 0 
L 4281 4097 
L 3078 897 
L 2444 897 
L 1241 4097 
L 1241 0 
L 628 0 
L 628 4666 
z
" id="DejaVuSans-4d" transform="scale(0.015625)"/>
      <path d="M 3809 666 
L 3809 1919 
L 2778 1919 
L 2778 2438 
L 4434 2438 
L 4434 434 
Q 4069 175 3628 42 
Q 3188 -91 2688 -91 
Q 1594 -91 976 548 
Q 359 1188 359 2328 
Q 359 3472 976 4111 
Q 1594 4750 2688 4750 
Q 3144 4750 3555 4637 
Q 3966 4525 4313 4306 
L 4313 3634 
Q 3963 3931 3569 4081 
Q 3175 4231 2741 4231 
Q 1884 4231 1454 3753 
Q 1025 3275 1025 2328 
Q 1025 1384 1454 906 
Q 1884 428 2741 428 
Q 3075 428 3337 486 
Q 3600 544 3809 666 
z
" id="DejaVuSans-47" transform="scale(0.015625)"/>
      <path d="M 628 4666 
L 1259 4666 
L 1259 531 
L 3531 531 
L 3531 0 
L 628 0 
L 628 4666 
z
" id="DejaVuSans-4c" transform="scale(0.015625)"/>
      <path d="M 2522 4238 
Q 1834 4238 1429 3725 
Q 1025 3213 1025 2328 
Q 1025 1447 1429 934 
Q 1834 422 2522 422 
Q 3209 422 3611 934 
Q 4013 1447 4013 2328 
Q 4013 3213 3611 3725 
Q 3209 4238 2522 4238 
z
M 2522 4750 
Q 3503 4750 4090 4092 
Q 4678 3434 4678 2328 
Q 4678 1225 4090 567 
Q 3503 -91 2522 -91 
Q 1538 -91 948 565 
Q 359 1222 359 2328 
Q 359 3434 948 4092 
Q 1538 4750 2522 4750 
z
" id="DejaVuSans-4f" transform="scale(0.015625)"/>
      <path d="M 1259 4147 
L 1259 519 
L 2022 519 
Q 2988 519 3436 956 
Q 3884 1394 3884 2338 
Q 3884 3275 3436 3711 
Q 2988 4147 2022 4147 
L 1259 4147 
z
M 628 4666 
L 1925 4666 
Q 3281 4666 3915 4102 
Q 4550 3538 4550 2338 
Q 4550 1131 3912 565 
Q 3275 0 1925 0 
L 628 0 
L 628 4666 
z
" id="DejaVuSans-44" transform="scale(0.015625)"/>
     </defs>
     <use xlink:href="#DejaVuSans-4d"/>
     <use x="86.279297" xlink:href="#DejaVuSans-75"/>
     <use x="149.658203" xlink:href="#DejaVuSans-6c"/>
     <use x="177.441406" xlink:href="#DejaVuSans-74"/>
     <use x="216.650391" xlink:href="#DejaVuSans-69"/>
     <use x="244.433594" xlink:href="#DejaVuSans-47"/>
     <use x="321.923828" xlink:href="#DejaVuSans-4c"/>
     <use x="374.011719" xlink:href="#DejaVuSans-4f"/>
     <use x="452.722656" xlink:href="#DejaVuSans-44"/>
    </g>
   </g>
   <g id="text_14">
    <!-- DMS Brock -->
    <g transform="translate(375.22944 157.353749)scale(0.17 -0.17)">
     <defs>
      <path d="M 3425 4513 
L 3425 3897 
Q 3066 4069 2747 4153 
Q 2428 4238 2131 4238 
Q 1616 4238 1336 4038 
Q 1056 3838 1056 3469 
Q 1056 3159 1242 3001 
Q 1428 2844 1947 2747 
L 2328 2669 
Q 3034 2534 3370 2195 
Q 3706 1856 3706 1288 
Q 3706 609 3251 259 
Q 2797 -91 1919 -91 
Q 1588 -91 1214 -16 
Q 841 59 441 206 
L 441 856 
Q 825 641 1194 531 
Q 1563 422 1919 422 
Q 2459 422 2753 634 
Q 3047 847 3047 1241 
Q 3047 1584 2836 1778 
Q 2625 1972 2144 2069 
L 1759 2144 
Q 1053 2284 737 2584 
Q 422 2884 422 3419 
Q 422 4038 858 4394 
Q 1294 4750 2059 4750 
Q 2388 4750 2728 4690 
Q 3069 4631 3425 4513 
z
" id="DejaVuSans-53" transform="scale(0.015625)"/>
      <path d="M 1259 2228 
L 1259 519 
L 2272 519 
Q 2781 519 3026 730 
Q 3272 941 3272 1375 
Q 3272 1813 3026 2020 
Q 2781 2228 2272 2228 
L 1259 2228 
z
M 1259 4147 
L 1259 2741 
L 2194 2741 
Q 2656 2741 2882 2914 
Q 3109 3088 3109 3444 
Q 3109 3797 2882 3972 
Q 2656 4147 2194 4147 
L 1259 4147 
z
M 628 4666 
L 2241 4666 
Q 2963 4666 3353 4366 
Q 3744 4066 3744 3513 
Q 3744 3084 3544 2831 
Q 3344 2578 2956 2516 
Q 3422 2416 3680 2098 
Q 3938 1781 3938 1306 
Q 3938 681 3513 340 
Q 3088 0 2303 0 
L 628 0 
L 628 4666 
z
" id="DejaVuSans-42" transform="scale(0.015625)"/>
      <path d="M 581 4863 
L 1159 4863 
L 1159 1991 
L 2875 3500 
L 3609 3500 
L 1753 1863 
L 3688 0 
L 2938 0 
L 1159 1709 
L 1159 0 
L 581 0 
L 581 4863 
z
" id="DejaVuSans-6b" transform="scale(0.015625)"/>
     </defs>
     <use xlink:href="#DejaVuSans-44"/>
     <use x="77.001953" xlink:href="#DejaVuSans-4d"/>
     <use x="163.28125" xlink:href="#DejaVuSans-53"/>
     <use x="226.757812" xlink:href="#DejaVuSans-20"/>
     <use x="258.544922" xlink:href="#DejaVuSans-42"/>
     <use x="327.148438" xlink:href="#DejaVuSans-72"/>
     <use x="366.011719" xlink:href="#DejaVuSans-6f"/>
     <use x="427.193359" xlink:href="#DejaVuSans-63"/>
     <use x="482.173828" xlink:href="#DejaVuSans-6b"/>
    </g>
   </g>
   <g id="text_15">
    <!-- best 2016 -->
    <g transform="translate(375.22944 16.923809)scale(0.17 -0.17)">
     <defs>
      <path d="M 3116 1747 
Q 3116 2381 2855 2742 
Q 2594 3103 2138 3103 
Q 1681 3103 1420 2742 
Q 1159 2381 1159 1747 
Q 1159 1113 1420 752 
Q 1681 391 2138 391 
Q 2594 391 2855 752 
Q 3116 1113 3116 1747 
z
M 1159 2969 
Q 1341 3281 1617 3432 
Q 1894 3584 2278 3584 
Q 2916 3584 3314 3078 
Q 3713 2572 3713 1747 
Q 3713 922 3314 415 
Q 2916 -91 2278 -91 
Q 1894 -91 1617 61 
Q 1341 213 1159 525 
L 1159 0 
L 581 0 
L 581 4863 
L 1159 4863 
L 1159 2969 
z
" id="DejaVuSans-62" transform="scale(0.015625)"/>
     </defs>
     <use xlink:href="#DejaVuSans-62"/>
     <use x="63.476562" xlink:href="#DejaVuSans-65"/>
     <use x="125" xlink:href="#DejaVuSans-73"/>
     <use x="177.099609" xlink:href="#DejaVuSans-74"/>
     <use x="216.308594" xlink:href="#DejaVuSans-20"/>
     <use x="248.095703" xlink:href="#DejaVuSans-32"/>
     <use x="311.71875" xlink:href="#DejaVuSans-30"/>
     <use x="375.341797" xlink:href="#DejaVuSans-31"/>
     <use x="438.964844" xlink:href="#DejaVuSans-36"/>
    </g>
   </g>
   <g id="text_16">
    <!-- bbob-biobj f20, f21, f28, 2-D -->
    <g transform="translate(60.41088 14.161286)scale(0.102 -0.102)">
     <defs>
      <path d="M 603 3500 
L 1178 3500 
L 1178 -63 
Q 1178 -731 923 -1031 
Q 669 -1331 103 -1331 
L -116 -1331 
L -116 -844 
L 38 -844 
Q 366 -844 484 -692 
Q 603 -541 603 -63 
L 603 3500 
z
M 603 4863 
L 1178 4863 
L 1178 4134 
L 603 4134 
L 603 4863 
z
" id="DejaVuSans-6a" transform="scale(0.015625)"/>
     </defs>
     <use xlink:href="#DejaVuSans-62"/>
     <use x="63.476562" xlink:href="#DejaVuSans-62"/>
     <use x="126.953125" xlink:href="#DejaVuSans-6f"/>
     <use x="188.134766" xlink:href="#DejaVuSans-62"/>
     <use x="251.611328" xlink:href="#DejaVuSans-2d"/>
     <use x="287.695312" xlink:href="#DejaVuSans-62"/>
     <use x="351.171875" xlink:href="#DejaVuSans-69"/>
     <use x="378.955078" xlink:href="#DejaVuSans-6f"/>
     <use x="440.136719" xlink:href="#DejaVuSans-62"/>
     <use x="503.613281" xlink:href="#DejaVuSans-6a"/>
     <use x="531.396484" xlink:href="#DejaVuSans-20"/>
     <use x="563.183594" xlink:href="#DejaVuSans-66"/>
     <use x="598.388672" xlink:href="#DejaVuSans-32"/>
     <use x="662.011719" xlink:href="#DejaVuSans-30"/>
     <use x="725.634766" xlink:href="#DejaVuSans-2c"/>
     <use x="757.421875" xlink:href="#DejaVuSans-20"/>
     <use x="789.208984" xlink:href="#DejaVuSans-66"/>
     <use x="824.414062" xlink:href="#DejaVuSans-32"/>
     <use x="888.037109" xlink:href="#DejaVuSans-31"/>
     <use x="951.660156" xlink:href="#DejaVuSans-2c"/>
     <use x="983.447266" xlink:href="#DejaVuSans-20"/>
     <use x="1015.234375" xlink:href="#DejaVuSans-66"/>
     <use x="1050.439453" xlink:href="#DejaVuSans-32"/>
     <use x="1114.0625" xlink:href="#DejaVuSans-38"/>
     <use x="1177.685547" xlink:href="#DejaVuSans-2c"/>
     <use x="1209.472656" xlink:href="#DejaVuSans-20"/>
     <use x="1241.259766" xlink:href="#DejaVuSans-32"/>
     <use x="1304.882812" xlink:href="#DejaVuSans-2d"/>
     <use x="1340.966797" xlink:href="#DejaVuSans-44"/>
    </g>
    <!-- 58 targets: 1..-1.0e-4 -->
    <g transform="translate(60.41088 25.583055)scale(0.102 -0.102)">
     <defs>
      <path d="M 691 4666 
L 3169 4666 
L 3169 4134 
L 1269 4134 
L 1269 2991 
Q 1406 3038 1543 3061 
Q 1681 3084 1819 3084 
Q 2600 3084 3056 2656 
Q 3513 2228 3513 1497 
Q 3513 744 3044 326 
Q 2575 -91 1722 -91 
Q 1428 -91 1123 -41 
Q 819 9 494 109 
L 494 744 
Q 775 591 1075 516 
Q 1375 441 1709 441 
Q 2250 441 2565 725 
Q 2881 1009 2881 1497 
Q 2881 1984 2565 2268 
Q 2250 2553 1709 2553 
Q 1456 2553 1204 2497 
Q 953 2441 691 2322 
L 691 4666 
z
" id="DejaVuSans-35" transform="scale(0.015625)"/>
      <path d="M 750 794 
L 1409 794 
L 1409 0 
L 750 0 
L 750 794 
z
M 750 3309 
L 1409 3309 
L 1409 2516 
L 750 2516 
L 750 3309 
z
" id="DejaVuSans-3a" transform="scale(0.015625)"/>
     </defs>
     <use xlink:href="#DejaVuSans-35"/>
     <use x="63.623047" xlink:href="#DejaVuSans-38"/>
     <use x="127.246094" xlink:href="#DejaVuSans-20"/>
     <use x="159.033203" xlink:href="#DejaVuSans-74"/>
     <use x="198.242188" xlink:href="#DejaVuSans-61"/>
     <use x="259.521484" xlink:href="#DejaVuSans-72"/>
     <use x="298.884766" xlink:href="#DejaVuSans-67"/>
     <use x="362.361328" xlink:href="#DejaVuSans-65"/>
     <use x="423.884766" xlink:href="#DejaVuSans-74"/>
     <use x="463.09375" xlink:href="#DejaVuSans-73"/>
     <use x="515.193359" xlink:href="#DejaVuSans-3a"/>
     <use x="548.884766" xlink:href="#DejaVuSans-20"/>
     <use x="580.671875" xlink:href="#DejaVuSans-31"/>
     <use x="644.294922" xlink:href="#DejaVuSans-2e"/>
     <use x="676.082031" xlink:href="#DejaVuSans-2e"/>
     <use x="707.869141" xlink:href="#DejaVuSans-2d"/>
     <use x="743.953125" xlink:href="#DejaVuSans-31"/>
     <use x="807.576172" xlink:href="#DejaVuSans-2e"/>
     <use x="839.363281" xlink:href="#DejaVuSans-30"/>
     <use x="902.986328" xlink:href="#DejaVuSans-65"/>
     <use x="964.509766" xlink:href="#DejaVuSans-2d"/>
     <use x="1000.59375" xlink:href="#DejaVuSans-34"/>
    </g>
    <!-- 10 instances -->
    <g transform="translate(60.41088 37.004824)scale(0.102 -0.102)">
     <use xlink:href="#DejaVuSans-31"/>
     <use x="63.623047" xlink:href="#DejaVuSans-30"/>
     <use x="127.246094" xlink:href="#DejaVuSans-20"/>
     <use x="159.033203" xlink:href="#DejaVuSans-69"/>
     <use x="186.816406" xlink:href="#DejaVuSans-6e"/>
     <use x="250.195312" xlink:href="#DejaVuSans-73"/>
     <use x="302.294922" xlink:href="#DejaVuSans-74"/>
     <use x="341.503906" xlink:href="#DejaVuSans-61"/>
     <use x="402.783203" xlink:href="#DejaVuSans-6e"/>
     <use x="466.162109" xlink:href="#DejaVuSans-63"/>
     <use x="521.142578" xlink:href="#DejaVuSans-65"/>
     <use x="582.666016" xlink:href="#DejaVuSans-73"/>
    </g>
   </g>
   <g id="text_17">
    <!-- v2.4.1.1, hv-hash=ff0e71e8cd978373 -->
    <g style="fill:#808080;" transform="translate(103.108062 293.909432)scale(0.1 -0.1)">
     <defs>
      <path d="M 3513 2113 
L 3513 0 
L 2938 0 
L 2938 2094 
Q 2938 2591 2744 2837 
Q 2550 3084 2163 3084 
Q 1697 3084 1428 2787 
Q 1159 2491 1159 1978 
L 1159 0 
L 581 0 
L 581 4863 
L 1159 4863 
L 1159 2956 
Q 1366 3272 1645 3428 
Q 1925 3584 2291 3584 
Q 2894 3584 3203 3211 
Q 3513 2838 3513 2113 
z
" id="DejaVuSans-68" transform="scale(0.015625)"/>
      <path d="M 678 2906 
L 4684 2906 
L 4684 2381 
L 678 2381 
L 678 2906 
z
M 678 1631 
L 4684 1631 
L 4684 1100 
L 678 1100 
L 678 1631 
z
" id="DejaVuSans-3d" transform="scale(0.015625)"/>
      <path d="M 525 4666 
L 3525 4666 
L 3525 4397 
L 1831 0 
L 1172 0 
L 2766 4134 
L 525 4134 
L 525 4666 
z
" id="DejaVuSans-37" transform="scale(0.015625)"/>
      <path d="M 703 97 
L 703 672 
Q 941 559 1184 500 
Q 1428 441 1663 441 
Q 2288 441 2617 861 
Q 2947 1281 2994 2138 
Q 2813 1869 2534 1725 
Q 2256 1581 1919 1581 
Q 1219 1581 811 2004 
Q 403 2428 403 3163 
Q 403 3881 828 4315 
Q 1253 4750 1959 4750 
Q 2769 4750 3195 4129 
Q 3622 3509 3622 2328 
Q 3622 1225 3098 567 
Q 2575 -91 1691 -91 
Q 1453 -91 1209 -44 
Q 966 3 703 97 
z
M 1959 2075 
Q 2384 2075 2632 2365 
Q 2881 2656 2881 3163 
Q 2881 3666 2632 3958 
Q 2384 4250 1959 4250 
Q 1534 4250 1286 3958 
Q 1038 3666 1038 3163 
Q 1038 2656 1286 2365 
Q 1534 2075 1959 2075 
z
" id="DejaVuSans-39" transform="scale(0.015625)"/>
      <path d="M 2597 2516 
Q 3050 2419 3304 2112 
Q 3559 1806 3559 1356 
Q 3559 666 3084 287 
Q 2609 -91 1734 -91 
Q 1441 -91 1130 -33 
Q 819 25 488 141 
L 488 750 
Q 750 597 1062 519 
Q 1375 441 1716 441 
Q 2309 441 2620 675 
Q 2931 909 2931 1356 
Q 2931 1769 2642 2001 
Q 2353 2234 1838 2234 
L 1294 2234 
L 1294 2753 
L 1863 2753 
Q 2328 2753 2575 2939 
Q 2822 3125 2822 3475 
Q 2822 3834 2567 4026 
Q 2313 4219 1838 4219 
Q 1578 4219 1281 4162 
Q 984 4106 628 3988 
L 628 4550 
Q 988 4650 1302 4700 
Q 1616 4750 1894 4750 
Q 2613 4750 3031 4423 
Q 3450 4097 3450 3541 
Q 3450 3153 3228 2886 
Q 3006 2619 2597 2516 
z
" id="DejaVuSans-33" transform="scale(0.015625)"/>
     </defs>
     <use xlink:href="#DejaVuSans-76"/>
     <use x="59.179688" xlink:href="#DejaVuSans-32"/>
     <use x="122.802734" xlink:href="#DejaVuSans-2e"/>
     <use x="154.589844" xlink:href="#DejaVuSans-34"/>
     <use x="218.212891" xlink:href="#DejaVuSans-2e"/>
     <use x="250" xlink:href="#DejaVuSans-31"/>
     <use x="313.623047" xlink:href="#DejaVuSans-2e"/>
     <use x="345.410156" xlink:href="#DejaVuSans-31"/>
     <use x="409.033203" xlink:href="#DejaVuSans-2c"/>
     <use x="440.820312" xlink:href="#DejaVuSans-20"/>
     <use x="472.607422" xlink:href="#DejaVuSans-68"/>
     <use x="535.986328" xlink:href="#DejaVuSans-76"/>
     <use x="592.541016" xlink:href="#DejaVuSans-2d"/>
     <use x="628.625" xlink:href="#DejaVuSans-68"/>
     <use x="692.003906" xlink:href="#DejaVuSans-61"/>
     <use x="753.283203" xlink:href="#DejaVuSans-73"/>
     <use x="805.382812" xlink:href="#DejaVuSans-68"/>
     <use x="868.761719" xlink:href="#DejaVuSans-3d"/>
     <use x="952.550781" xlink:href="#DejaVuSans-66"/>
     <use x="987.755859" xlink:href="#DejaVuSans-66"/>
     <use x="1022.960938" xlink:href="#DejaVuSans-30"/>
     <use x="1086.583984" xlink:href="#DejaVuSans-65"/>
     <use x="1148.107422" xlink:href="#DejaVuSans-37"/>
     <use x="1211.730469" xlink:href="#DejaVuSans-31"/>
     <use x="1275.353516" xlink:href="#DejaVuSans-65"/>
     <use x="1336.876953" xlink:href="#DejaVuSans-38"/>
     <use x="1400.5" xlink:href="#DejaVuSans-63"/>
     <use x="1455.480469" xlink:href="#DejaVuSans-64"/>
     <use x="1518.957031" xlink:href="#DejaVuSans-39"/>
     <use x="1582.580078" xlink:href="#DejaVuSans-37"/>
     <use x="1646.203125" xlink:href="#DejaVuSans-38"/>
     <use x="1709.826172" xlink:href="#DejaVuSans-33"/>
     <use x="1773.449219" xlink:href="#DejaVuSans-37"/>
     <use x="1837.072266" xlink:href="#DejaVuSans-33"/>
    </g>
   </g>
  </g>
 </g>
 <defs>
  <clipPath id="p44e148bd3c">
   <rect height="295.488" width="281.088" x="57.6" y="3.456"/>
  </clipPath>
 </defs>
</svg>
