<?xml version="1.0" encoding="utf-8" standalone="no"?>
<!DOCTYPE svg PUBLIC "-//W3C//DTD SVG 1.1//EN"
  "http://www.w3.org/Graphics/SVG/1.1/DTD/svg11.dtd">
<svg height="345.6pt" version="1.1" viewBox="0 0 460.8 345.6" width="460.8pt" xmlns="http://www.w3.org/2000/svg" xmlns:xlink="http://www.w3.org/1999/xlink">
 <metadata>
  <rdf:RDF xmlns:cc="http://creativecommons.org/ns#" xmlns:dc="http://purl.org/dc/elements/1.1/" xmlns:rdf="http://www.w3.org/1999/02/22-rdf-syntax-ns#">
   <cc:Work>
    <dc:type rdf:resource="http://purl.org/dc/dcmitype/StillImage"/>
    <dc:date>2022-03-29T13:08:44.493396</dc:date>
    <dc:format>image/svg+xml</dc:format>
    <dc:creator>
     <cc:Agent>
      <dc:title>Matplotlib v3.4.3, https://matplotlib.org/</dc:title>
     </cc:Agent>
    </dc:creator>
   </cc:Work>
  </rdf:RDF>
 </metadata>
 <defs>
  <style type="text/css">*{stroke-linecap:butt;stroke-linejoin:round;}</style>
 </defs>
 <g id="figure_1">
  <g id="patch_1">
   <path d="M 0 345.6 
L 460.8 345.6 
L 460.8 0 
L 0 0 
z
" style="fill:#ffffff;"/>
  </g>
  <g id="axes_1">
   <g id="patch_2">
    <path d="M 57.6 298.944 
L 338.688 298.944 
L 338.688 3.456 
L 57.6 3.456 
z
" style="fill:#ffffff;"/>
   </g>
   <g id="line2d_1">
    <path d="M 41.620548 298.944 
L 41.620548 297.682955 
L 53.708537 297.682955 
L 53.708537 295.160866 
L 60.779557 295.160866 
L 60.779557 290.116687 
L 67.850577 290.116687 
L 67.850577 288.855642 
L 75.555822 288.855642 
L 75.555822 286.333553 
L 79.938565 286.333553 
L 79.938565 281.289374 
L 82.626842 281.289374 
L 82.626842 280.028329 
L 86.351421 280.028329 
L 86.351421 277.50624 
L 89.972502 277.50624 
L 89.972502 273.723105 
L 96.301313 273.723105 
L 96.301313 271.201016 
L 99.41757 271.201016 
L 99.41757 268.678927 
L 99.731799 268.678927 
L 99.731799 266.156837 
L 101.785851 266.156837 
L 101.785851 264.895792 
L 104.826449 264.895792 
L 104.826449 261.112658 
L 105.51043 261.112658 
L 105.51043 259.851614 
L 105.951954 259.851614 
L 105.951954 258.590569 
L 109.131511 258.590569 
L 109.131511 256.068479 
L 113.022974 256.068479 
L 113.022974 253.54639 
L 116.443076 253.54639 
L 116.443076 249.763256 
L 117.373392 249.763256 
L 117.373392 248.502211 
L 117.709852 248.502211 
L 117.709852 244.719077 
L 123.751369 244.719077 
L 123.751369 242.196987 
L 127.674226 242.196987 
L 127.674226 238.413853 
L 128.768338 238.413853 
L 128.768338 235.891764 
L 129.347769 235.891764 
L 129.347769 234.630719 
L 130.290663 234.630719 
L 130.290663 232.10863 
L 133.622529 232.10863 
L 133.622529 229.58654 
L 136.68274 229.58654 
L 136.68274 225.803406 
L 138.628343 225.803406 
L 138.628343 223.281316 
L 139.793552 223.281316 
L 139.793552 220.759227 
L 142.486301 220.759227 
L 142.486301 218.237138 
L 146.367029 218.237138 
L 146.367029 215.715048 
L 146.895853 215.715048 
L 146.895853 214.454003 
L 151.21133 214.454003 
L 151.21133 210.670869 
L 154.46664 210.670869 
L 154.46664 208.14878 
L 155.966049 208.14878 
L 155.966049 206.887735 
L 156.941506 206.887735 
L 156.941506 205.62669 
L 158.0201 205.62669 
L 158.0201 204.365646 
L 158.858379 204.365646 
L 158.858379 203.104601 
L 161.96433 203.104601 
L 161.96433 199.321467 
L 163.50953 199.321467 
L 163.50953 195.538333 
L 163.77274 195.538333 
L 163.77274 193.016243 
L 163.922502 193.016243 
L 163.922502 190.494154 
L 167.911015 190.494154 
L 167.911015 187.972064 
L 169.514592 187.972064 
L 169.514592 184.18893 
L 170.041906 184.18893 
L 170.041906 182.927885 
L 171.144602 182.927885 
L 171.144602 179.144751 
L 174.218366 179.144751 
L 174.218366 177.883706 
L 179.485767 177.883706 
L 179.485767 175.361617 
L 181.716118 175.361617 
L 181.716118 172.839527 
L 182.471879 172.839527 
L 182.471879 170.317438 
L 183.713493 170.317438 
L 183.713493 166.534304 
L 188.118089 166.534304 
L 188.118089 162.75117 
L 189.691273 162.75117 
L 189.691273 160.22908 
L 189.871217 160.22908 
L 189.871217 157.706991 
L 191.255784 157.706991 
L 191.255784 155.184901 
L 191.838597 155.184901 
L 191.838597 153.923857 
L 196.235057 153.923857 
L 196.235057 152.662812 
L 198.054 152.662812 
L 198.054 151.401767 
L 203.925002 151.401767 
L 203.925002 147.618633 
L 205.161937 147.618633 
L 205.161937 143.835499 
L 206.639726 143.835499 
L 206.639726 141.313409 
L 208.433444 141.313409 
L 208.433444 137.530275 
L 209.797698 137.530275 
L 209.797698 136.26923 
L 212.875662 136.26923 
L 212.875662 135.008186 
L 214.63794 135.008186 
L 214.63794 132.486096 
L 217.466155 132.486096 
L 217.466155 128.702962 
L 218.473799 128.702962 
L 218.498534 126.180873 
L 218.941543 126.180873 
L 218.941543 122.397738 
L 219.881953 122.397738 
L 219.881953 119.875649 
L 221.508483 119.875649 
L 221.508483 118.614604 
L 222.782396 118.614604 
L 222.782396 114.83147 
L 223.292835 114.83147 
L 223.292835 111.048336 
L 225.335466 111.048336 
L 225.335466 108.526247 
L 226.1675 108.526247 
L 226.1675 106.004157 
L 226.685187 106.004157 
L 226.685187 104.743112 
L 228.172092 104.743112 
L 228.172092 100.959978 
L 230.433431 100.959978 
L 230.433431 97.176844 
L 231.831609 97.176844 
L 231.831609 94.654755 
L 235.557515 94.654755 
L 235.557515 92.132665 
L 238.471861 92.132665 
L 238.471861 90.87162 
L 239.740661 90.87162 
L 239.740661 88.349531 
L 240.467703 88.349531 
L 240.467703 87.088486 
L 241.985297 87.088486 
L 241.985297 83.305352 
L 243.375319 83.305352 
L 243.414106 80.783263 
L 244.815769 80.783263 
L 244.815769 77.000128 
L 247.574238 77.000128 
L 247.574238 74.478039 
L 253.698313 74.478039 
L 253.698313 71.955949 
L 256.978442 71.955949 
L 256.978442 68.172815 
L 261.969135 68.172815 
L 261.969135 65.650726 
L 262.148125 65.650726 
L 262.148125 63.128636 
L 262.374926 63.128636 
L 262.374926 61.867592 
L 262.771516 61.867592 
L 262.771516 59.345502 
L 262.932641 59.345502 
L 262.932641 55.562368 
L 264.737104 55.562368 
L 264.737104 51.779234 
L 267.45428 51.779234 
L 267.45428 49.257144 
L 270.8195 49.257144 
L 270.8195 47.9961 
L 274.641693 47.9961 
L 274.641693 45.47401 
L 278.566013 45.47401 
L 278.566013 41.690876 
L 338.688 41.690876 
L 338.688 41.690876 
" style="fill:none;stroke:#f5deb3;stroke-linecap:square;stroke-width:4;"/>
   </g>
   <g id="line2d_2">
    <defs>
     <path d="M 0 7.778175 
L 7.778175 0 
L 0 -7.778175 
L -7.778175 0 
z
" id="m78fffecfbe" style="stroke:#f5deb3;stroke-linejoin:miter;stroke-width:1.5;"/>
    </defs>
    <g>
     <use style="fill:#f5deb3;stroke:#f5deb3;stroke-linejoin:miter;stroke-width:1.5;" x="101.785851" xlink:href="#m78fffecfbe" y="266.156837"/>
     <use style="fill:#f5deb3;stroke:#f5deb3;stroke-linejoin:miter;stroke-width:1.5;" x="156.941506" xlink:href="#m78fffecfbe" y="205.62669"/>
     <use style="fill:#f5deb3;stroke:#f5deb3;stroke-linejoin:miter;stroke-width:1.5;" x="209.797698" xlink:href="#m78fffecfbe" y="137.530275"/>
     <use style="fill:#f5deb3;stroke:#f5deb3;stroke-linejoin:miter;stroke-width:1.5;" x="261.969135" xlink:href="#m78fffecfbe" y="65.650726"/>
     <use style="fill:#f5deb3;stroke:#f5deb3;stroke-linejoin:miter;stroke-width:1.5;" x="278.566013" xlink:href="#m78fffecfbe" y="41.690876"/>
     <use style="fill:#f5deb3;stroke:#f5deb3;stroke-linejoin:miter;stroke-width:1.5;" x="338.688" xlink:href="#m78fffecfbe" y="41.690876"/>
    </g>
   </g>
   <g id="line2d_3">
    <path style="fill:none;stroke:#f5deb3;stroke-linecap:square;stroke-width:4;"/>
    <g/>
   </g>
   <g id="line2d_4">
    <path d="M 338.688 41.690876 
L 369.60768 12.232871 
" style="fill:none;stroke:#f5deb3;stroke-linecap:square;stroke-width:4;"/>
    <g>
     <use style="fill:#f5deb3;stroke:#f5deb3;stroke-linejoin:miter;stroke-width:1.5;" x="338.688" xlink:href="#m78fffecfbe" y="41.690876"/>
     <use style="fill:#f5deb3;stroke:#f5deb3;stroke-linejoin:miter;stroke-width:1.5;" x="369.60768" xlink:href="#m78fffecfbe" y="12.232871"/>
    </g>
   </g>
   <g id="matplotlib.axis_1">
    <g id="xtick_1">
     <g id="line2d_5">
      <path clip-path="url(#pcc38b72856)" d="M 57.6 298.944 
L 57.6 3.456 
" style="fill:none;stroke:#b0b0b0;stroke-linecap:square;stroke-width:0.8;"/>
     </g>
     <g id="line2d_6">
      <defs>
       <path d="M 0 0 
L 0 3.5 
" id="m82c910c482" style="stroke:#000000;stroke-width:0.8;"/>
      </defs>
      <g>
       <use style="stroke:#000000;stroke-width:0.8;" x="57.6" xlink:href="#m82c910c482" y="298.944"/>
      </g>
     </g>
     <g id="text_1">
      <!-- 0 -->
      <g transform="translate(51.2375 321.140875)scale(0.2 -0.2)">
       <defs>
        <path d="M 2034 4250 
Q 1547 4250 1301 3770 
Q 1056 3291 1056 2328 
Q 1056 1369 1301 889 
Q 1547 409 2034 409 
Q 2525 409 2770 889 
Q 3016 1369 3016 2328 
Q 3016 3291 2770 3770 
Q 2525 4250 2034 4250 
z
M 2034 4750 
Q 2819 4750 3233 4129 
Q 3647 3509 3647 2328 
Q 3647 1150 3233 529 
Q 2819 -91 2034 -91 
Q 1250 -91 836 529 
Q 422 1150 422 2328 
Q 422 3509 836 4129 
Q 1250 4750 2034 4750 
z
" id="DejaVuSans-30" transform="scale(0.015625)"/>
       </defs>
       <use xlink:href="#DejaVuSans-30"/>
      </g>
     </g>
    </g>
    <g id="xtick_2">
     <g id="line2d_7">
      <path clip-path="url(#pcc38b72856)" d="M 137.910857 298.944 
L 137.910857 3.456 
" style="fill:none;stroke:#b0b0b0;stroke-linecap:square;stroke-width:0.8;"/>
     </g>
     <g id="line2d_8">
      <g>
       <use style="stroke:#000000;stroke-width:0.8;" x="137.910857" xlink:href="#m82c910c482" y="298.944"/>
      </g>
     </g>
     <g id="text_2">
      <!-- 2 -->
      <g transform="translate(131.548357 321.140875)scale(0.2 -0.2)">
       <defs>
        <path d="M 1228 531 
L 3431 531 
L 3431 0 
L 469 0 
L 469 531 
Q 828 903 1448 1529 
Q 2069 2156 2228 2338 
Q 2531 2678 2651 2914 
Q 2772 3150 2772 3378 
Q 2772 3750 2511 3984 
Q 2250 4219 1831 4219 
Q 1534 4219 1204 4116 
Q 875 4013 500 3803 
L 500 4441 
Q 881 4594 1212 4672 
Q 1544 4750 1819 4750 
Q 2544 4750 2975 4387 
Q 3406 4025 3406 3419 
Q 3406 3131 3298 2873 
Q 3191 2616 2906 2266 
Q 2828 2175 2409 1742 
Q 1991 1309 1228 531 
z
" id="DejaVuSans-32" transform="scale(0.015625)"/>
       </defs>
       <use xlink:href="#DejaVuSans-32"/>
      </g>
     </g>
    </g>
    <g id="xtick_3">
     <g id="line2d_9">
      <path clip-path="url(#pcc38b72856)" d="M 218.221714 298.944 
L 218.221714 3.456 
" style="fill:none;stroke:#b0b0b0;stroke-linecap:square;stroke-width:0.8;"/>
     </g>
     <g id="line2d_10">
      <g>
       <use style="stroke:#000000;stroke-width:0.8;" x="218.221714" xlink:href="#m82c910c482" y="298.944"/>
      </g>
     </g>
     <g id="text_3">
      <!-- 4 -->
      <g transform="translate(211.859214 321.140875)scale(0.2 -0.2)">
       <defs>
        <path d="M 2419 4116 
L 825 1625 
L 2419 1625 
L 2419 4116 
z
M 2253 4666 
L 3047 4666 
L 3047 1625 
L 3713 1625 
L 3713 1100 
L 3047 1100 
L 3047 0 
L 2419 0 
L 2419 1100 
L 313 1100 
L 313 1709 
L 2253 4666 
z
" id="DejaVuSans-34" transform="scale(0.015625)"/>
       </defs>
       <use xlink:href="#DejaVuSans-34"/>
      </g>
     </g>
    </g>
    <g id="xtick_4">
     <g id="line2d_11">
      <path clip-path="url(#pcc38b72856)" d="M 298.532571 298.944 
L 298.532571 3.456 
" style="fill:none;stroke:#b0b0b0;stroke-linecap:square;stroke-width:0.8;"/>
     </g>
     <g id="line2d_12">
      <g>
       <use style="stroke:#000000;stroke-width:0.8;" x="298.532571" xlink:href="#m82c910c482" y="298.944"/>
      </g>
     </g>
     <g id="text_4">
      <!-- 6 -->
      <g transform="translate(292.170071 321.140875)scale(0.2 -0.2)">
       <defs>
        <path d="M 2113 2584 
Q 1688 2584 1439 2293 
Q 1191 2003 1191 1497 
Q 1191 994 1439 701 
Q 1688 409 2113 409 
Q 2538 409 2786 701 
Q 3034 994 3034 1497 
Q 3034 2003 2786 2293 
Q 2538 2584 2113 2584 
z
M 3366 4563 
L 3366 3988 
Q 3128 4100 2886 4159 
Q 2644 4219 2406 4219 
Q 1781 4219 1451 3797 
Q 1122 3375 1075 2522 
Q 1259 2794 1537 2939 
Q 1816 3084 2150 3084 
Q 2853 3084 3261 2657 
Q 3669 2231 3669 1497 
Q 3669 778 3244 343 
Q 2819 -91 2113 -91 
Q 1303 -91 875 529 
Q 447 1150 447 2328 
Q 447 3434 972 4092 
Q 1497 4750 2381 4750 
Q 2619 4750 2861 4703 
Q 3103 4656 3366 4563 
z
" id="DejaVuSans-36" transform="scale(0.015625)"/>
       </defs>
       <use xlink:href="#DejaVuSans-36"/>
      </g>
     </g>
    </g>
    <g id="xtick_5">
     <g id="line2d_13">
      <path clip-path="url(#pcc38b72856)" d="M 97.755429 298.944 
L 97.755429 3.456 
" style="fill:none;stroke:#b0b0b0;stroke-linecap:square;stroke-width:0.8;"/>
     </g>
     <g id="line2d_14">
      <defs>
       <path d="M 0 0 
L 0 2 
" id="m88616796ef" style="stroke:#000000;stroke-width:0.6;"/>
      </defs>
      <g>
       <use style="stroke:#000000;stroke-width:0.6;" x="97.755429" xlink:href="#m88616796ef" y="298.944"/>
      </g>
     </g>
    </g>
    <g id="xtick_6">
     <g id="line2d_15">
      <path clip-path="url(#pcc38b72856)" d="M 178.066286 298.944 
L 178.066286 3.456 
" style="fill:none;stroke:#b0b0b0;stroke-linecap:square;stroke-width:0.8;"/>
     </g>
     <g id="line2d_16">
      <g>
       <use style="stroke:#000000;stroke-width:0.6;" x="178.066286" xlink:href="#m88616796ef" y="298.944"/>
      </g>
     </g>
    </g>
    <g id="xtick_7">
     <g id="line2d_17">
      <path clip-path="url(#pcc38b72856)" d="M 258.377143 298.944 
L 258.377143 3.456 
" style="fill:none;stroke:#b0b0b0;stroke-linecap:square;stroke-width:0.8;"/>
     </g>
     <g id="line2d_18">
      <g>
       <use style="stroke:#000000;stroke-width:0.6;" x="258.377143" xlink:href="#m88616796ef" y="298.944"/>
      </g>
     </g>
    </g>
    <g id="xtick_8">
     <g id="line2d_19">
      <path clip-path="url(#pcc38b72856)" d="M 338.688 298.944 
L 338.688 3.456 
" style="fill:none;stroke:#b0b0b0;stroke-linecap:square;stroke-width:0.8;"/>
     </g>
     <g id="line2d_20">
      <g>
       <use style="stroke:#000000;stroke-width:0.6;" x="338.688" xlink:href="#m88616796ef" y="298.944"/>
      </g>
     </g>
    </g>
    <g id="text_5">
     <!-- log10(# f-evals / dimension) -->
     <g transform="translate(77.764078 342.217594)scale(0.17 -0.17)">
      <defs>
       <path d="M 603 4863 
L 1178 4863 
L 1178 0 
L 603 0 
L 603 4863 
z
" id="DejaVuSans-6c" transform="scale(0.015625)"/>
       <path d="M 1959 3097 
Q 1497 3097 1228 2736 
Q 959 2375 959 1747 
Q 959 1119 1226 758 
Q 1494 397 1959 397 
Q 2419 397 2687 759 
Q 2956 1122 2956 1747 
Q 2956 2369 2687 2733 
Q 2419 3097 1959 3097 
z
M 1959 3584 
Q 2709 3584 3137 3096 
Q 3566 2609 3566 1747 
Q 3566 888 3137 398 
Q 2709 -91 1959 -91 
Q 1206 -91 779 398 
Q 353 888 353 1747 
Q 353 2609 779 3096 
Q 1206 3584 1959 3584 
z
" id="DejaVuSans-6f" transform="scale(0.015625)"/>
       <path d="M 2906 1791 
Q 2906 2416 2648 2759 
Q 2391 3103 1925 3103 
Q 1463 3103 1205 2759 
Q 947 2416 947 1791 
Q 947 1169 1205 825 
Q 1463 481 1925 481 
Q 2391 481 2648 825 
Q 2906 1169 2906 1791 
z
M 3481 434 
Q 3481 -459 3084 -895 
Q 2688 -1331 1869 -1331 
Q 1566 -1331 1297 -1286 
Q 1028 -1241 775 -1147 
L 775 -588 
Q 1028 -725 1275 -790 
Q 1522 -856 1778 -856 
Q 2344 -856 2625 -561 
Q 2906 -266 2906 331 
L 2906 616 
Q 2728 306 2450 153 
Q 2172 0 1784 0 
Q 1141 0 747 490 
Q 353 981 353 1791 
Q 353 2603 747 3093 
Q 1141 3584 1784 3584 
Q 2172 3584 2450 3431 
Q 2728 3278 2906 2969 
L 2906 3500 
L 3481 3500 
L 3481 434 
z
" id="DejaVuSans-67" transform="scale(0.015625)"/>
       <path d="M 794 531 
L 1825 531 
L 1825 4091 
L 703 3866 
L 703 4441 
L 1819 4666 
L 2450 4666 
L 2450 531 
L 3481 531 
L 3481 0 
L 794 0 
L 794 531 
z
" id="DejaVuSans-31" transform="scale(0.015625)"/>
       <path d="M 1984 4856 
Q 1566 4138 1362 3434 
Q 1159 2731 1159 2009 
Q 1159 1288 1364 580 
Q 1569 -128 1984 -844 
L 1484 -844 
Q 1016 -109 783 600 
Q 550 1309 550 2009 
Q 550 2706 781 3412 
Q 1013 4119 1484 4856 
L 1984 4856 
z
" id="DejaVuSans-28" transform="scale(0.015625)"/>
       <path d="M 3272 2816 
L 2363 2816 
L 2100 1772 
L 3016 1772 
L 3272 2816 
z
M 2803 4594 
L 2478 3297 
L 3391 3297 
L 3719 4594 
L 4219 4594 
L 3897 3297 
L 4872 3297 
L 4872 2816 
L 3775 2816 
L 3519 1772 
L 4513 1772 
L 4513 1294 
L 3397 1294 
L 3072 0 
L 2572 0 
L 2894 1294 
L 1978 1294 
L 1656 0 
L 1153 0 
L 1478 1294 
L 494 1294 
L 494 1772 
L 1594 1772 
L 1856 2816 
L 850 2816 
L 850 3297 
L 1978 3297 
L 2297 4594 
L 2803 4594 
z
" id="DejaVuSans-23" transform="scale(0.015625)"/>
       <path id="DejaVuSans-20" transform="scale(0.015625)"/>
       <path d="M 2375 4863 
L 2375 4384 
L 1825 4384 
Q 1516 4384 1395 4259 
Q 1275 4134 1275 3809 
L 1275 3500 
L 2222 3500 
L 2222 3053 
L 1275 3053 
L 1275 0 
L 697 0 
L 697 3053 
L 147 3053 
L 147 3500 
L 697 3500 
L 697 3744 
Q 697 4328 969 4595 
Q 1241 4863 1831 4863 
L 2375 4863 
z
" id="DejaVuSans-66" transform="scale(0.015625)"/>
       <path d="M 313 2009 
L 1997 2009 
L 1997 1497 
L 313 1497 
L 313 2009 
z
" id="DejaVuSans-2d" transform="scale(0.015625)"/>
       <path d="M 3597 1894 
L 3597 1613 
L 953 1613 
Q 991 1019 1311 708 
Q 1631 397 2203 397 
Q 2534 397 2845 478 
Q 3156 559 3463 722 
L 3463 178 
Q 3153 47 2828 -22 
Q 2503 -91 2169 -91 
Q 1331 -91 842 396 
Q 353 884 353 1716 
Q 353 2575 817 3079 
Q 1281 3584 2069 3584 
Q 2775 3584 3186 3129 
Q 3597 2675 3597 1894 
z
M 3022 2063 
Q 3016 2534 2758 2815 
Q 2500 3097 2075 3097 
Q 1594 3097 1305 2825 
Q 1016 2553 972 2059 
L 3022 2063 
z
" id="DejaVuSans-65" transform="scale(0.015625)"/>
       <path d="M 191 3500 
L 800 3500 
L 1894 563 
L 2988 3500 
L 3597 3500 
L 2284 0 
L 1503 0 
L 191 3500 
z
" id="DejaVuSans-76" transform="scale(0.015625)"/>
       <path d="M 2194 1759 
Q 1497 1759 1228 1600 
Q 959 1441 959 1056 
Q 959 750 1161 570 
Q 1363 391 1709 391 
Q 2188 391 2477 730 
Q 2766 1069 2766 1631 
L 2766 1759 
L 2194 1759 
z
M 3341 1997 
L 3341 0 
L 2766 0 
L 2766 531 
Q 2569 213 2275 61 
Q 1981 -91 1556 -91 
Q 1019 -91 701 211 
Q 384 513 384 1019 
Q 384 1609 779 1909 
Q 1175 2209 1959 2209 
L 2766 2209 
L 2766 2266 
Q 2766 2663 2505 2880 
Q 2244 3097 1772 3097 
Q 1472 3097 1187 3025 
Q 903 2953 641 2809 
L 641 3341 
Q 956 3463 1253 3523 
Q 1550 3584 1831 3584 
Q 2591 3584 2966 3190 
Q 3341 2797 3341 1997 
z
" id="DejaVuSans-61" transform="scale(0.015625)"/>
       <path d="M 2834 3397 
L 2834 2853 
Q 2591 2978 2328 3040 
Q 2066 3103 1784 3103 
Q 1356 3103 1142 2972 
Q 928 2841 928 2578 
Q 928 2378 1081 2264 
Q 1234 2150 1697 2047 
L 1894 2003 
Q 2506 1872 2764 1633 
Q 3022 1394 3022 966 
Q 3022 478 2636 193 
Q 2250 -91 1575 -91 
Q 1294 -91 989 -36 
Q 684 19 347 128 
L 347 722 
Q 666 556 975 473 
Q 1284 391 1588 391 
Q 1994 391 2212 530 
Q 2431 669 2431 922 
Q 2431 1156 2273 1281 
Q 2116 1406 1581 1522 
L 1381 1569 
Q 847 1681 609 1914 
Q 372 2147 372 2553 
Q 372 3047 722 3315 
Q 1072 3584 1716 3584 
Q 2034 3584 2315 3537 
Q 2597 3491 2834 3397 
z
" id="DejaVuSans-73" transform="scale(0.015625)"/>
       <path d="M 1625 4666 
L 2156 4666 
L 531 -594 
L 0 -594 
L 1625 4666 
z
" id="DejaVuSans-2f" transform="scale(0.015625)"/>
       <path d="M 2906 2969 
L 2906 4863 
L 3481 4863 
L 3481 0 
L 2906 0 
L 2906 525 
Q 2725 213 2448 61 
Q 2172 -91 1784 -91 
Q 1150 -91 751 415 
Q 353 922 353 1747 
Q 353 2572 751 3078 
Q 1150 3584 1784 3584 
Q 2172 3584 2448 3432 
Q 2725 3281 2906 2969 
z
M 947 1747 
Q 947 1113 1208 752 
Q 1469 391 1925 391 
Q 2381 391 2643 752 
Q 2906 1113 2906 1747 
Q 2906 2381 2643 2742 
Q 2381 3103 1925 3103 
Q 1469 3103 1208 2742 
Q 947 2381 947 1747 
z
" id="DejaVuSans-64" transform="scale(0.015625)"/>
       <path d="M 603 3500 
L 1178 3500 
L 1178 0 
L 603 0 
L 603 3500 
z
M 603 4863 
L 1178 4863 
L 1178 4134 
L 603 4134 
L 603 4863 
z
" id="DejaVuSans-69" transform="scale(0.015625)"/>
       <path d="M 3328 2828 
Q 3544 3216 3844 3400 
Q 4144 3584 4550 3584 
Q 5097 3584 5394 3201 
Q 5691 2819 5691 2113 
L 5691 0 
L 5113 0 
L 5113 2094 
Q 5113 2597 4934 2840 
Q 4756 3084 4391 3084 
Q 3944 3084 3684 2787 
Q 3425 2491 3425 1978 
L 3425 0 
L 2847 0 
L 2847 2094 
Q 2847 2600 2669 2842 
Q 2491 3084 2119 3084 
Q 1678 3084 1418 2786 
Q 1159 2488 1159 1978 
L 1159 0 
L 581 0 
L 581 3500 
L 1159 3500 
L 1159 2956 
Q 1356 3278 1631 3431 
Q 1906 3584 2284 3584 
Q 2666 3584 2933 3390 
Q 3200 3197 3328 2828 
z
" id="DejaVuSans-6d" transform="scale(0.015625)"/>
       <path d="M 3513 2113 
L 3513 0 
L 2938 0 
L 2938 2094 
Q 2938 2591 2744 2837 
Q 2550 3084 2163 3084 
Q 1697 3084 1428 2787 
Q 1159 2491 1159 1978 
L 1159 0 
L 581 0 
L 581 3500 
L 1159 3500 
L 1159 2956 
Q 1366 3272 1645 3428 
Q 1925 3584 2291 3584 
Q 2894 3584 3203 3211 
Q 3513 2838 3513 2113 
z
" id="DejaVuSans-6e" transform="scale(0.015625)"/>
       <path d="M 513 4856 
L 1013 4856 
Q 1481 4119 1714 3412 
Q 1947 2706 1947 2009 
Q 1947 1309 1714 600 
Q 1481 -109 1013 -844 
L 513 -844 
Q 928 -128 1133 580 
Q 1338 1288 1338 2009 
Q 1338 2731 1133 3434 
Q 928 4138 513 4856 
z
" id="DejaVuSans-29" transform="scale(0.015625)"/>
      </defs>
      <use xlink:href="#DejaVuSans-6c"/>
      <use x="27.783203" xlink:href="#DejaVuSans-6f"/>
      <use x="88.964844" xlink:href="#DejaVuSans-67"/>
      <use x="152.441406" xlink:href="#DejaVuSans-31"/>
      <use x="216.064453" xlink:href="#DejaVuSans-30"/>
      <use x="279.6875" xlink:href="#DejaVuSans-28"/>
      <use x="318.701172" xlink:href="#DejaVuSans-23"/>
      <use x="402.490234" xlink:href="#DejaVuSans-20"/>
      <use x="434.277344" xlink:href="#DejaVuSans-66"/>
      <use x="463.982422" xlink:href="#DejaVuSans-2d"/>
      <use x="500.066406" xlink:href="#DejaVuSans-65"/>
      <use x="561.589844" xlink:href="#DejaVuSans-76"/>
      <use x="620.769531" xlink:href="#DejaVuSans-61"/>
      <use x="682.048828" xlink:href="#DejaVuSans-6c"/>
      <use x="709.832031" xlink:href="#DejaVuSans-73"/>
      <use x="761.931641" xlink:href="#DejaVuSans-20"/>
      <use x="793.71875" xlink:href="#DejaVuSans-2f"/>
      <use x="827.410156" xlink:href="#DejaVuSans-20"/>
      <use x="859.197266" xlink:href="#DejaVuSans-64"/>
      <use x="922.673828" xlink:href="#DejaVuSans-69"/>
      <use x="950.457031" xlink:href="#DejaVuSans-6d"/>
      <use x="1047.869141" xlink:href="#DejaVuSans-65"/>
      <use x="1109.392578" xlink:href="#DejaVuSans-6e"/>
      <use x="1172.771484" xlink:href="#DejaVuSans-73"/>
      <use x="1224.871094" xlink:href="#DejaVuSans-69"/>
      <use x="1252.654297" xlink:href="#DejaVuSans-6f"/>
      <use x="1313.835938" xlink:href="#DejaVuSans-6e"/>
      <use x="1377.214844" xlink:href="#DejaVuSans-29"/>
     </g>
    </g>
   </g>
   <g id="matplotlib.axis_2">
    <g id="ytick_1">
     <g id="line2d_21">
      <path clip-path="url(#pcc38b72856)" d="M 57.6 298.944 
L 338.688 298.944 
" style="fill:none;stroke:#b0b0b0;stroke-linecap:square;stroke-width:0.8;"/>
     </g>
     <g id="line2d_22">
      <defs>
       <path d="M 0 0 
L -3.5 0 
" id="ma55f50999e" style="stroke:#000000;stroke-width:0.8;"/>
      </defs>
      <g>
       <use style="stroke:#000000;stroke-width:0.8;" x="57.6" xlink:href="#ma55f50999e" y="298.944"/>
      </g>
     </g>
     <g id="text_6">
      <!-- 0.0 -->
      <g transform="translate(25.155 305.02275)scale(0.16 -0.16)">
       <defs>
        <path d="M 684 794 
L 1344 794 
L 1344 0 
L 684 0 
L 684 794 
z
" id="DejaVuSans-2e" transform="scale(0.015625)"/>
       </defs>
       <use xlink:href="#DejaVuSans-30"/>
       <use x="63.623047" xlink:href="#DejaVuSans-2e"/>
       <use x="95.410156" xlink:href="#DejaVuSans-30"/>
      </g>
     </g>
    </g>
    <g id="ytick_2">
     <g id="line2d_23">
      <path clip-path="url(#pcc38b72856)" d="M 57.6 240.431525 
L 338.688 240.431525 
" style="fill:none;stroke:#b0b0b0;stroke-linecap:square;stroke-width:0.8;"/>
     </g>
     <g id="line2d_24">
      <g>
       <use style="stroke:#000000;stroke-width:0.8;" x="57.6" xlink:href="#ma55f50999e" y="240.431525"/>
      </g>
     </g>
     <g id="text_7">
      <!-- 0.2 -->
      <g transform="translate(25.155 246.510275)scale(0.16 -0.16)">
       <use xlink:href="#DejaVuSans-30"/>
       <use x="63.623047" xlink:href="#DejaVuSans-2e"/>
       <use x="95.410156" xlink:href="#DejaVuSans-32"/>
      </g>
     </g>
    </g>
    <g id="ytick_3">
     <g id="line2d_25">
      <path clip-path="url(#pcc38b72856)" d="M 57.6 181.91905 
L 338.688 181.91905 
" style="fill:none;stroke:#b0b0b0;stroke-linecap:square;stroke-width:0.8;"/>
     </g>
     <g id="line2d_26">
      <g>
       <use style="stroke:#000000;stroke-width:0.8;" x="57.6" xlink:href="#ma55f50999e" y="181.91905"/>
      </g>
     </g>
     <g id="text_8">
      <!-- 0.4 -->
      <g transform="translate(25.155 187.9978)scale(0.16 -0.16)">
       <use xlink:href="#DejaVuSans-30"/>
       <use x="63.623047" xlink:href="#DejaVuSans-2e"/>
       <use x="95.410156" xlink:href="#DejaVuSans-34"/>
      </g>
     </g>
    </g>
    <g id="ytick_4">
     <g id="line2d_27">
      <path clip-path="url(#pcc38b72856)" d="M 57.6 123.406574 
L 338.688 123.406574 
" style="fill:none;stroke:#b0b0b0;stroke-linecap:square;stroke-width:0.8;"/>
     </g>
     <g id="line2d_28">
      <g>
       <use style="stroke:#000000;stroke-width:0.8;" x="57.6" xlink:href="#ma55f50999e" y="123.406574"/>
      </g>
     </g>
     <g id="text_9">
      <!-- 0.6 -->
      <g transform="translate(25.155 129.485324)scale(0.16 -0.16)">
       <use xlink:href="#DejaVuSans-30"/>
       <use x="63.623047" xlink:href="#DejaVuSans-2e"/>
       <use x="95.410156" xlink:href="#DejaVuSans-36"/>
      </g>
     </g>
    </g>
    <g id="ytick_5">
     <g id="line2d_29">
      <path clip-path="url(#pcc38b72856)" d="M 57.6 64.894099 
L 338.688 64.894099 
" style="fill:none;stroke:#b0b0b0;stroke-linecap:square;stroke-width:0.8;"/>
     </g>
     <g id="line2d_30">
      <g>
       <use style="stroke:#000000;stroke-width:0.8;" x="57.6" xlink:href="#ma55f50999e" y="64.894099"/>
      </g>
     </g>
     <g id="text_10">
      <!-- 0.8 -->
      <g transform="translate(25.155 70.972849)scale(0.16 -0.16)">
       <defs>
        <path d="M 2034 2216 
Q 1584 2216 1326 1975 
Q 1069 1734 1069 1313 
Q 1069 891 1326 650 
Q 1584 409 2034 409 
Q 2484 409 2743 651 
Q 3003 894 3003 1313 
Q 3003 1734 2745 1975 
Q 2488 2216 2034 2216 
z
M 1403 2484 
Q 997 2584 770 2862 
Q 544 3141 544 3541 
Q 544 4100 942 4425 
Q 1341 4750 2034 4750 
Q 2731 4750 3128 4425 
Q 3525 4100 3525 3541 
Q 3525 3141 3298 2862 
Q 3072 2584 2669 2484 
Q 3125 2378 3379 2068 
Q 3634 1759 3634 1313 
Q 3634 634 3220 271 
Q 2806 -91 2034 -91 
Q 1263 -91 848 271 
Q 434 634 434 1313 
Q 434 1759 690 2068 
Q 947 2378 1403 2484 
z
M 1172 3481 
Q 1172 3119 1398 2916 
Q 1625 2713 2034 2713 
Q 2441 2713 2670 2916 
Q 2900 3119 2900 3481 
Q 2900 3844 2670 4047 
Q 2441 4250 2034 4250 
Q 1625 4250 1398 4047 
Q 1172 3844 1172 3481 
z
" id="DejaVuSans-38" transform="scale(0.015625)"/>
       </defs>
       <use xlink:href="#DejaVuSans-30"/>
       <use x="63.623047" xlink:href="#DejaVuSans-2e"/>
       <use x="95.410156" xlink:href="#DejaVuSans-38"/>
      </g>
     </g>
    </g>
    <g id="ytick_6">
     <g id="line2d_31">
      <path clip-path="url(#pcc38b72856)" d="M 57.6 6.381624 
L 338.688 6.381624 
" style="fill:none;stroke:#b0b0b0;stroke-linecap:square;stroke-width:0.8;"/>
     </g>
     <g id="line2d_32">
      <g>
       <use style="stroke:#000000;stroke-width:0.8;" x="57.6" xlink:href="#ma55f50999e" y="6.381624"/>
      </g>
     </g>
     <g id="text_11">
      <!-- 1.0 -->
      <g transform="translate(25.155 12.460374)scale(0.16 -0.16)">
       <use xlink:href="#DejaVuSans-31"/>
       <use x="63.623047" xlink:href="#DejaVuSans-2e"/>
       <use x="95.410156" xlink:href="#DejaVuSans-30"/>
      </g>
     </g>
    </g>
    <g id="text_12">
     <!-- Fraction of function,target pairs -->
     <g transform="translate(17.619531 285.585)rotate(-90)scale(0.17 -0.17)">
      <defs>
       <path d="M 628 4666 
L 3309 4666 
L 3309 4134 
L 1259 4134 
L 1259 2759 
L 3109 2759 
L 3109 2228 
L 1259 2228 
L 1259 0 
L 628 0 
L 628 4666 
z
" id="DejaVuSans-46" transform="scale(0.015625)"/>
       <path d="M 2631 2963 
Q 2534 3019 2420 3045 
Q 2306 3072 2169 3072 
Q 1681 3072 1420 2755 
Q 1159 2438 1159 1844 
L 1159 0 
L 581 0 
L 581 3500 
L 1159 3500 
L 1159 2956 
Q 1341 3275 1631 3429 
Q 1922 3584 2338 3584 
Q 2397 3584 2469 3576 
Q 2541 3569 2628 3553 
L 2631 2963 
z
" id="DejaVuSans-72" transform="scale(0.015625)"/>
       <path d="M 3122 3366 
L 3122 2828 
Q 2878 2963 2633 3030 
Q 2388 3097 2138 3097 
Q 1578 3097 1268 2742 
Q 959 2388 959 1747 
Q 959 1106 1268 751 
Q 1578 397 2138 397 
Q 2388 397 2633 464 
Q 2878 531 3122 666 
L 3122 134 
Q 2881 22 2623 -34 
Q 2366 -91 2075 -91 
Q 1284 -91 818 406 
Q 353 903 353 1747 
Q 353 2603 823 3093 
Q 1294 3584 2113 3584 
Q 2378 3584 2631 3529 
Q 2884 3475 3122 3366 
z
" id="DejaVuSans-63" transform="scale(0.015625)"/>
       <path d="M 1172 4494 
L 1172 3500 
L 2356 3500 
L 2356 3053 
L 1172 3053 
L 1172 1153 
Q 1172 725 1289 603 
Q 1406 481 1766 481 
L 2356 481 
L 2356 0 
L 1766 0 
Q 1100 0 847 248 
Q 594 497 594 1153 
L 594 3053 
L 172 3053 
L 172 3500 
L 594 3500 
L 594 4494 
L 1172 4494 
z
" id="DejaVuSans-74" transform="scale(0.015625)"/>
       <path d="M 544 1381 
L 544 3500 
L 1119 3500 
L 1119 1403 
Q 1119 906 1312 657 
Q 1506 409 1894 409 
Q 2359 409 2629 706 
Q 2900 1003 2900 1516 
L 2900 3500 
L 3475 3500 
L 3475 0 
L 2900 0 
L 2900 538 
Q 2691 219 2414 64 
Q 2138 -91 1772 -91 
Q 1169 -91 856 284 
Q 544 659 544 1381 
z
M 1991 3584 
L 1991 3584 
z
" id="DejaVuSans-75" transform="scale(0.015625)"/>
       <path d="M 750 794 
L 1409 794 
L 1409 256 
L 897 -744 
L 494 -744 
L 750 256 
L 750 794 
z
" id="DejaVuSans-2c" transform="scale(0.015625)"/>
       <path d="M 1159 525 
L 1159 -1331 
L 581 -1331 
L 581 3500 
L 1159 3500 
L 1159 2969 
Q 1341 3281 1617 3432 
Q 1894 3584 2278 3584 
Q 2916 3584 3314 3078 
Q 3713 2572 3713 1747 
Q 3713 922 3314 415 
Q 2916 -91 2278 -91 
Q 1894 -91 1617 61 
Q 1341 213 1159 525 
z
M 3116 1747 
Q 3116 2381 2855 2742 
Q 2594 3103 2138 3103 
Q 1681 3103 1420 2742 
Q 1159 2381 1159 1747 
Q 1159 1113 1420 752 
Q 1681 391 2138 391 
Q 2594 391 2855 752 
Q 3116 1113 3116 1747 
z
" id="DejaVuSans-70" transform="scale(0.015625)"/>
      </defs>
      <use xlink:href="#DejaVuSans-46"/>
      <use x="50.269531" xlink:href="#DejaVuSans-72"/>
      <use x="91.382812" xlink:href="#DejaVuSans-61"/>
      <use x="152.662109" xlink:href="#DejaVuSans-63"/>
      <use x="207.642578" xlink:href="#DejaVuSans-74"/>
      <use x="246.851562" xlink:href="#DejaVuSans-69"/>
      <use x="274.634766" xlink:href="#DejaVuSans-6f"/>
      <use x="335.816406" xlink:href="#DejaVuSans-6e"/>
      <use x="399.195312" xlink:href="#DejaVuSans-20"/>
      <use x="430.982422" xlink:href="#DejaVuSans-6f"/>
      <use x="492.164062" xlink:href="#DejaVuSans-66"/>
      <use x="527.369141" xlink:href="#DejaVuSans-20"/>
      <use x="559.15625" xlink:href="#DejaVuSans-66"/>
      <use x="594.361328" xlink:href="#DejaVuSans-75"/>
      <use x="657.740234" xlink:href="#DejaVuSans-6e"/>
      <use x="721.119141" xlink:href="#DejaVuSans-63"/>
      <use x="776.099609" xlink:href="#DejaVuSans-74"/>
      <use x="815.308594" xlink:href="#DejaVuSans-69"/>
      <use x="843.091797" xlink:href="#DejaVuSans-6f"/>
      <use x="904.273438" xlink:href="#DejaVuSans-6e"/>
      <use x="967.652344" xlink:href="#DejaVuSans-2c"/>
      <use x="999.439453" xlink:href="#DejaVuSans-74"/>
      <use x="1038.648438" xlink:href="#DejaVuSans-61"/>
      <use x="1099.927734" xlink:href="#DejaVuSans-72"/>
      <use x="1139.291016" xlink:href="#DejaVuSans-67"/>
      <use x="1202.767578" xlink:href="#DejaVuSans-65"/>
      <use x="1264.291016" xlink:href="#DejaVuSans-74"/>
      <use x="1303.5" xlink:href="#DejaVuSans-20"/>
      <use x="1335.287109" xlink:href="#DejaVuSans-70"/>
      <use x="1398.763672" xlink:href="#DejaVuSans-61"/>
      <use x="1460.042969" xlink:href="#DejaVuSans-69"/>
      <use x="1487.826172" xlink:href="#DejaVuSans-72"/>
      <use x="1528.939453" xlink:href="#DejaVuSans-73"/>
     </g>
    </g>
   </g>
   <g id="line2d_33">
    <defs>
     <path d="M 0 1.5 
C 0.397805 1.5 0.77937 1.341951 1.06066 1.06066 
C 1.341951 0.77937 1.5 0.397805 1.5 0 
C 1.5 -0.397805 1.341951 -0.77937 1.06066 -1.06066 
C 0.77937 -1.341951 0.397805 -1.5 0 -1.5 
C -0.397805 -1.5 -0.77937 -1.341951 -1.06066 -1.06066 
C -1.341951 -0.77937 -1.5 -0.397805 -1.5 0 
C -1.5 0.397805 -1.341951 0.77937 -1.06066 1.06066 
C -0.77937 1.341951 -0.397805 1.5 0 1.5 
z
" id="mb6ea05286d" style="stroke:#f5deb3;"/>
    </defs>
    <g>
     <use style="fill:#f5deb3;stroke:#f5deb3;" x="278.566013" xlink:href="#mb6ea05286d" y="41.690876"/>
     <use style="fill:#f5deb3;stroke:#f5deb3;" x="278.566013" xlink:href="#mb6ea05286d" y="41.690876"/>
    </g>
   </g>
   <g id="line2d_34">
    <defs>
     <path d="M 0 1.5 
C 0.397805 1.5 0.77937 1.341951 1.06066 1.06066 
C 1.341951 0.77937 1.5 0.397805 1.5 0 
C 1.5 -0.397805 1.341951 -0.77937 1.06066 -1.06066 
C 0.77937 -1.341951 0.397805 -1.5 0 -1.5 
C -0.397805 -1.5 -0.77937 -1.341951 -1.06066 -1.06066 
C -1.341951 -0.77937 -1.5 -0.397805 -1.5 0 
C -1.5 0.397805 -1.341951 0.77937 -1.06066 1.06066 
C -0.77937 1.341951 -0.397805 1.5 0 1.5 
z
" id="mb2e1b95d26" style="stroke:#000080;"/>
    </defs>
    <g>
     <use style="fill:#000080;stroke:#000080;" x="234.192514" xlink:href="#mb2e1b95d26" y="178.892542"/>
     <use style="fill:#000080;stroke:#000080;" x="234.192514" xlink:href="#mb2e1b95d26" y="178.892542"/>
    </g>
   </g>
   <g id="line2d_35">
    <path d="M 29.53256 298.944 
L 29.53256 291.629941 
L 63.467834 291.629941 
L 63.467834 291.503836 
L 65.796525 291.503836 
L 65.796525 290.873314 
L 69.687988 290.873314 
L 69.687988 290.368896 
L 71.35013 290.368896 
L 71.35013 288.477329 
L 72.867545 288.477329 
L 72.867545 288.22512 
L 75.555822 288.22512 
L 75.555822 288.099015 
L 76.759008 288.099015 
L 76.759008 287.468493 
L 77.884514 287.468493 
L 77.884514 284.694195 
L 78.941764 284.694195 
L 78.941764 284.56809 
L 80.881459 284.56809 
L 80.881459 284.441986 
L 81.775977 284.441986 
L 81.775977 283.307045 
L 82.626842 283.307045 
L 82.626842 282.29821 
L 83.438118 282.29821 
L 83.438118 281.793792 
L 84.955534 281.793792 
L 84.955534 281.667687 
L 85.66744 281.667687 
L 85.66744 280.028329 
L 86.351421 280.028329 
L 86.351421 279.902225 
L 88.846997 279.902225 
L 88.846997 279.019493 
L 89.418828 279.019493 
L 89.418828 278.515075 
L 90.509138 278.515075 
L 90.509138 277.50624 
L 91.029752 277.50624 
L 91.029752 277.127926 
L 91.535274 277.127926 
L 91.535274 277.001822 
L 92.504372 277.001822 
L 92.504372 275.866882 
L 92.969447 275.866882 
L 92.969447 275.488568 
L 93.422441 275.488568 
L 93.422441 275.362464 
L 94.294587 275.362464 
L 94.294587 275.236359 
L 94.714831 275.236359 
L 94.714831 274.605837 
L 95.125186 274.605837 
L 95.125186 274.479732 
L 95.526106 274.479732 
L 95.526106 274.353628 
L 96.301313 274.353628 
L 96.301313 274.227523 
L 97.043522 274.227523 
L 97.043522 273.723105 
L 97.403108 273.723105 
L 97.403108 273.470897 
L 97.755429 273.470897 
L 97.755429 272.209852 
L 98.100772 272.209852 
L 98.100772 272.083747 
L 98.43941 272.083747 
L 98.43941 271.831538 
L 98.771596 271.831538 
L 98.771596 271.705434 
L 99.097574 271.705434 
L 99.097574 271.327121 
L 99.41757 271.327121 
L 99.41757 271.201016 
L 99.731799 271.201016 
L 99.731799 270.318285 
L 100.040467 270.318285 
L 100.040467 269.813867 
L 100.343767 269.813867 
L 100.343767 269.435553 
L 100.641881 269.435553 
L 100.641881 269.183344 
L 100.934985 269.183344 
L 100.934985 269.05724 
L 101.223245 269.05724 
L 101.223245 268.805031 
L 101.785851 268.805031 
L 101.785851 268.678927 
L 102.060491 268.678927 
L 102.060491 268.552822 
L 102.330873 268.552822 
L 102.330873 267.543986 
L 102.597126 267.543986 
L 102.597126 267.417882 
L 102.859376 267.417882 
L 102.859376 267.165673 
L 103.117741 267.165673 
L 103.117741 266.913464 
L 103.372333 266.913464 
L 103.372333 266.78736 
L 103.623262 266.78736 
L 103.623262 265.274106 
L 103.870632 265.274106 
L 103.870632 264.895792 
L 104.355088 264.895792 
L 104.355088 264.391375 
L 104.592361 264.391375 
L 104.592361 263.760852 
L 104.826449 263.760852 
L 104.826449 263.508643 
L 105.057436 263.508643 
L 105.057436 263.004225 
L 105.51043 263.004225 
L 105.51043 262.878121 
L 105.732589 262.878121 
L 105.732589 262.499807 
L 105.951954 262.499807 
L 105.951954 262.247598 
L 106.168594 262.247598 
L 106.168594 261.743181 
L 106.382575 261.743181 
L 106.382575 261.617076 
L 106.593963 261.617076 
L 106.593963 261.490972 
L 107.009204 261.490972 
L 107.009204 261.238763 
L 107.414787 261.238763 
L 107.414787 260.734345 
L 107.614095 260.734345 
L 107.614095 260.482136 
L 107.811151 260.482136 
L 107.811151 260.229927 
L 108.006005 260.229927 
L 108.006005 259.851614 
L 108.577836 259.851614 
L 108.577836 259.725509 
L 108.764355 259.725509 
L 108.764355 259.221091 
L 108.948899 259.221091 
L 108.948899 258.968882 
L 109.131511 258.968882 
L 109.131511 258.464464 
L 109.31223 258.464464 
L 109.31223 258.212255 
L 109.491096 258.212255 
L 109.491096 258.086151 
L 109.668146 258.086151 
L 109.668146 257.581733 
L 110.016944 257.581733 
L 110.016944 257.455629 
L 110.527398 257.455629 
L 110.527398 257.329524 
L 110.859585 257.329524 
L 110.859585 257.20342 
L 111.023335 257.20342 
L 111.023335 256.825106 
L 111.185562 256.825106 
L 111.185562 256.572897 
L 111.346294 256.572897 
L 111.346294 256.446793 
L 111.505558 256.446793 
L 111.505558 255.81627 
L 111.819788 255.81627 
L 111.819788 255.690166 
L 111.974805 255.690166 
L 111.974805 255.185748 
L 112.280765 255.185748 
L 112.280765 254.429121 
L 112.431755 254.429121 
L 112.431755 254.303017 
L 112.58145 254.303017 
L 112.58145 253.924703 
L 112.72987 253.924703 
L 112.72987 253.798599 
L 113.167699 253.798599 
L 113.167699 253.54639 
L 113.594805 253.54639 
L 113.594805 253.294181 
L 113.873839 253.294181 
L 113.873839 252.789763 
L 114.148479 252.789763 
L 114.148479 252.663659 
L 114.284194 252.663659 
L 114.284194 252.285345 
L 114.418861 252.285345 
L 114.418861 252.159241 
L 114.552496 252.159241 
L 114.552496 251.907032 
L 114.816733 251.907032 
L 114.816733 251.780927 
L 115.077025 251.780927 
L 115.077025 251.402614 
L 115.33349 251.402614 
L 115.33349 251.150405 
L 115.586238 251.150405 
L 115.586238 250.898196 
L 115.711251 250.898196 
L 115.711251 250.772091 
L 115.835374 250.772091 
L 115.835374 250.519883 
L 116.323218 250.519883 
L 116.323218 250.393778 
L 117.030313 250.393778 
L 117.030313 249.88936 
L 117.259781 249.88936 
L 117.259781 249.637151 
L 117.373392 249.637151 
L 117.373392 249.384942 
L 117.486268 249.384942 
L 117.486268 249.006629 
L 117.709852 249.006629 
L 117.709852 248.75442 
L 118.039942 248.75442 
L 118.039942 248.502211 
L 118.681952 248.502211 
L 118.681952 248.376107 
L 119.301163 248.376107 
L 119.301163 248.250002 
L 119.502775 248.250002 
L 119.502775 248.123898 
L 120.093994 248.123898 
L 120.093994 247.871689 
L 120.286695 247.871689 
L 120.286695 247.493375 
L 120.759333 247.493375 
L 120.852343 246.736748 
L 120.944859 246.736748 
L 120.944859 246.610644 
L 121.128432 246.610644 
L 121.128432 246.358435 
L 121.400219 246.358435 
L 121.489881 246.106226 
L 121.84399 246.106226 
L 121.84399 245.980122 
L 122.018385 245.980122 
L 122.104932 245.727913 
L 122.191052 245.727913 
L 122.191052 245.475704 
L 122.531342 245.475704 
L 122.615387 245.09739 
L 122.865118 245.09739 
L 122.865118 244.845181 
L 123.434283 244.845181 
L 123.434283 244.592972 
L 123.593547 244.592972 
L 123.672636 244.340763 
L 123.829748 244.340763 
L 123.829748 244.214659 
L 123.985457 244.214659 
L 123.985457 244.088554 
L 124.519744 244.088554 
L 124.519744 243.836346 
L 124.965026 243.836346 
L 124.965026 243.331928 
L 125.110962 243.331928 
L 125.183475 243.079719 
L 126.439646 243.079719 
L 126.439646 242.953614 
L 126.640485 242.953614 
L 126.70692 242.575301 
L 127.035353 242.575301 
L 127.035353 242.449196 
L 127.165014 242.449196 
L 127.165014 242.196987 
L 127.923363 242.196987 
L 127.923363 241.944778 
L 128.107907 241.944778 
L 128.168991 241.188152 
L 128.411207 241.188152 
L 128.411207 240.935943 
L 129.347769 240.935943 
L 129.404667 240.683734 
L 129.46138 240.683734 
L 129.46138 240.431525 
L 129.742212 240.431525 
L 129.742212 240.179316 
L 129.908566 240.179316 
L 129.963666 239.927107 
L 130.290663 239.927107 
L 130.290663 239.801002 
L 130.45189 239.801002 
L 130.45189 239.674898 
L 130.717333 239.674898 
L 130.76994 239.422689 
L 130.926816 239.422689 
L 130.926816 239.17048 
L 131.490249 239.17048 
L 131.490249 239.044376 
L 131.640805 239.044376 
L 131.640805 238.918271 
L 132.036046 238.918271 
L 132.084827 238.666062 
L 132.80063 238.666062 
L 132.80063 238.539958 
L 133.216421 238.539958 
L 133.216421 238.161644 
L 133.667073 238.161644 
L 133.667073 238.03554 
L 133.844123 238.03554 
L 133.844123 237.909435 
L 134.534878 237.909435 
L 134.534878 237.657226 
L 135.361539 237.657226 
L 135.361539 237.405017 
L 136.304433 237.405017 
L 136.304433 237.278913 
L 137.089613 237.278913 
L 137.089613 237.152808 
L 138.084384 237.152808 
L 138.084384 236.9006 
L 138.256201 236.9006 
L 138.358484 236.522286 
L 138.493936 236.522286 
L 138.493936 236.017868 
L 138.728473 236.017868 
L 138.728473 235.891764 
L 139.220677 235.891764 
L 139.220677 235.639555 
L 139.824833 235.639555 
L 139.824833 235.009032 
L 140.103868 235.009032 
L 140.195896 234.756823 
L 140.348205 234.756823 
L 140.348205 234.504615 
L 140.678675 234.504615 
L 140.678675 234.252406 
L 141.830201 234.252406 
L 141.830201 234.126301 
L 142.024126 234.126301 
L 142.133981 233.621883 
L 142.161336 233.621883 
L 142.161336 233.495779 
L 143.221802 233.495779 
L 143.221802 233.117465 
L 143.451774 233.117465 
L 143.553018 232.739152 
L 143.578237 232.739152 
L 143.653678 232.360839 
L 143.803587 232.360839 
L 143.803587 232.234734 
L 144.001481 232.234734 
L 144.001481 232.10863 
L 144.462672 232.10863 
L 144.462672 231.982525 
L 145.005114 231.982525 
L 145.005114 231.856421 
L 145.576196 231.856421 
L 145.576196 231.604212 
L 145.998045 231.604212 
L 145.998045 231.352003 
L 146.172658 231.352003 
L 146.172658 231.225898 
L 146.559258 231.225898 
L 146.559258 231.099794 
L 146.895853 231.099794 
L 146.895853 230.847585 
L 148.563676 230.847585 
L 148.563676 230.72148 
L 148.695721 230.72148 
L 148.695721 230.469271 
L 148.826773 230.469271 
L 148.845415 230.090958 
L 149.067574 230.090958 
L 149.067574 229.964854 
L 149.232356 229.964854 
L 149.232356 229.712645 
L 149.998846 229.712645 
L 149.998846 229.58654 
L 150.327083 229.58654 
L 150.327083 229.334331 
L 150.463462 229.334331 
L 150.463462 229.208227 
L 150.598782 229.208227 
L 150.66605 228.703809 
L 151.113448 228.703809 
L 151.113448 228.577704 
L 151.565603 228.577704 
L 151.565603 228.4516 
L 152.436193 228.4516 
L 152.436193 228.073286 
L 152.632227 228.073286 
L 152.632227 227.821078 
L 153.236437 227.821078 
L 153.236437 227.568869 
L 153.552218 227.568869 
L 153.637357 227.190555 
L 153.750233 227.190555 
L 153.750233 226.938346 
L 153.946025 226.938346 
L 153.946025 226.812242 
L 154.262987 226.812242 
L 154.262987 226.686137 
L 154.93278 226.686137 
L 154.93278 226.560033 
L 155.180705 226.560033 
L 155.245367 226.181719 
L 155.527065 226.181719 
L 155.527065 226.055615 
L 156.126326 226.055615 
L 156.126326 225.92951 
L 156.430472 225.92951 
L 156.430472 225.803406 
L 156.670026 225.803406 
L 156.670026 225.551197 
L 156.918066 225.551197 
L 156.918066 225.172884 
L 157.44937 225.172884 
L 157.44937 224.920675 
L 157.709073 224.920675 
L 157.709073 224.79457 
L 157.909655 224.79457 
L 157.998067 224.416257 
L 158.422772 224.416257 
L 158.455018 224.037943 
L 159.527421 224.037943 
L 159.527421 223.911839 
L 159.738201 223.911839 
L 159.817832 223.281316 
L 159.926735 223.281316 
L 159.926735 223.029108 
L 160.556731 223.029108 
L 160.556731 222.776899 
L 161.411222 222.776899 
L 161.411222 222.52469 
L 161.698887 222.52469 
L 161.698887 222.398585 
L 161.911563 222.398585 
L 161.911563 222.272481 
L 162.372234 222.272481 
L 162.372234 222.146376 
L 163.209614 222.146376 
L 163.209614 222.020272 
L 163.437051 222.020272 
L 163.437051 221.894167 
L 163.883215 221.894167 
L 163.883215 221.641958 
L 164.37952 221.641958 
L 164.425332 220.885332 
L 164.524182 220.885332 
L 164.53934 220.633123 
L 164.921483 220.633123 
L 164.921483 220.380914 
L 165.439918 220.380914 
L 165.439918 220.254809 
L 165.697012 220.254809 
L 165.7041 219.876496 
L 165.85228 219.876496 
L 165.85228 219.750391 
L 166.46667 219.750391 
L 166.46667 219.624287 
L 166.888852 219.624287 
L 166.888852 219.498182 
L 167.007622 219.498182 
L 167.007622 219.245973 
L 167.346259 219.245973 
L 167.372038 218.741555 
L 167.684773 218.741555 
L 167.691097 218.363242 
L 168.091155 218.363242 
L 168.091155 218.111033 
L 168.373132 218.111033 
L 168.373132 217.858824 
L 169.400311 217.858824 
L 169.400311 217.73272 
L 169.554414 217.73272 
L 169.554414 217.606615 
L 169.695899 217.606615 
L 169.729685 217.228302 
L 170.708663 217.228302 
L 170.708663 217.102197 
L 170.935871 217.102197 
L 170.935871 216.976093 
L 172.103323 216.976093 
L 172.142557 216.597779 
L 172.592284 216.597779 
L 172.630434 216.219466 
L 172.706485 216.219466 
L 172.810515 215.967257 
L 172.913929 215.967257 
L 172.913929 215.841153 
L 174.567121 215.841153 
L 174.567121 215.588944 
L 174.934099 215.588944 
L 175.042289 215.084526 
L 175.058874 215.084526 
L 175.058874 214.958421 
L 175.264868 214.958421 
L 175.264868 214.706212 
L 175.395439 214.706212 
L 175.504853 214.327899 
L 175.971204 214.327899 
L 176.053603 213.823481 
L 176.379363 213.823481 
L 176.379363 213.571272 
L 176.505694 213.571272 
L 176.505694 213.445168 
L 176.916581 213.445168 
L 176.916581 213.192959 
L 177.383421 213.192959 
L 177.383421 212.94075 
L 178.291535 212.94075 
L 178.3911 212.688541 
L 178.554659 212.688541 
L 178.554659 212.436332 
L 178.976841 212.436332 
L 178.976841 212.310227 
L 179.395508 212.310227 
L 179.395508 212.058018 
L 179.51789 212.058018 
L 179.562762 211.553601 
L 179.851651 211.553601 
L 179.851651 211.301392 
L 180.451998 211.301392 
L 180.552093 211.049183 
L 180.798355 211.049183 
L 180.798355 210.923078 
L 180.967511 210.923078 
L 181.002915 210.670869 
L 181.51694 210.670869 
L 181.571228 210.166451 
L 181.679299 210.166451 
L 181.679299 209.914242 
L 182.517875 209.914242 
L 182.517875 209.662033 
L 182.673896 209.662033 
L 182.689957 209.031511 
L 183.0972 209.031511 
L 183.0972 208.905407 
L 184.665945 208.905407 
L 184.689818 208.653198 
L 185.193022 208.653198 
L 185.193022 208.527093 
L 185.623418 208.527093 
L 185.623418 208.400989 
L 186.135916 208.400989 
L 186.135916 208.274884 
L 186.735916 208.274884 
L 186.74652 207.770466 
L 186.87117 207.770466 
L 186.87117 207.644362 
L 187.647292 207.644362 
L 187.653332 207.392153 
L 188.311048 207.392153 
L 188.311048 207.266048 
L 188.534459 207.266048 
L 188.534459 207.139944 
L 189.378671 207.139944 
L 189.385963 206.761631 
L 189.968431 206.761631 
L 189.968431 206.635526 
L 190.121108 206.635526 
L 190.213467 205.878899 
L 190.251662 205.878899 
L 190.27246 205.500586 
L 190.87176 205.500586 
L 190.87176 205.248377 
L 191.078066 205.248377 
L 191.078066 205.122272 
L 191.588218 205.122272 
L 191.588218 204.996168 
L 193.015585 204.996168 
L 193.085008 204.743959 
L 193.950609 204.743959 
L 193.950609 204.617855 
L 194.777945 204.617855 
L 194.777945 204.49175 
L 195.47679 204.49175 
L 195.583139 204.239541 
L 195.744621 204.239541 
L 195.744621 203.987332 
L 196.097928 203.987332 
L 196.097928 203.861228 
L 196.914446 203.861228 
L 196.957001 203.609019 
L 197.843194 203.609019 
L 197.903685 203.35681 
L 198.315886 203.35681 
L 198.315886 203.104601 
L 198.551284 203.104601 
L 198.551284 202.978496 
L 198.726038 202.978496 
L 198.726038 202.852392 
L 199.975247 202.852392 
L 200.067353 202.600183 
L 200.131441 202.600183 
L 200.131441 202.474079 
L 200.272587 202.474079 
L 200.272587 202.22187 
L 200.608089 202.22187 
L 200.695016 201.843556 
L 200.727383 201.843556 
L 200.731187 201.213034 
L 201.363341 201.213034 
L 201.363341 200.960825 
L 201.543976 200.960825 
L 201.651645 200.582511 
L 201.897948 200.582511 
L 201.897948 200.456407 
L 202.525947 200.456407 
L 202.567077 200.204198 
L 203.199927 200.204198 
L 203.288019 199.951989 
L 203.399348 199.951989 
L 203.399348 199.69978 
L 204.607429 199.69978 
L 204.690222 199.195362 
L 205.090248 199.195362 
L 205.090248 199.069258 
L 205.334404 199.069258 
L 205.380352 198.690944 
L 205.909769 198.690944 
L 205.909769 198.56484 
L 207.32342 198.56484 
L 207.32342 198.312631 
L 208.437112 198.312631 
L 208.485944 197.934318 
L 208.664238 197.934318 
L 208.741897 196.673273 
L 208.775503 196.673273 
L 208.835949 196.294959 
L 209.196632 196.294959 
L 209.196632 196.168855 
L 209.480477 196.168855 
L 209.480477 196.04275 
L 210.15141 196.04275 
L 210.15141 195.790541 
L 210.275624 195.790541 
L 210.361776 195.412228 
L 210.647352 195.412228 
L 210.652736 195.160019 
L 210.924087 195.160019 
L 210.924087 195.033915 
L 211.062403 195.033915 
L 211.151043 194.277288 
L 211.920653 194.277288 
L 211.952661 193.898974 
L 212.596681 193.898974 
L 212.596681 193.646765 
L 212.789197 193.646765 
L 212.885611 193.142348 
L 213.189858 193.142348 
L 213.189858 193.016243 
L 214.528365 193.016243 
L 214.539138 192.63793 
L 214.696526 192.63793 
L 214.696526 192.385721 
L 215.14329 192.385721 
L 215.180701 192.133512 
L 215.273053 192.133512 
L 215.273053 192.007407 
L 215.718356 192.007407 
L 215.718356 191.755198 
L 216.175727 191.755198 
L 216.175727 191.629094 
L 216.400572 191.629094 
L 216.417599 190.998572 
L 216.512493 190.998572 
L 216.525568 190.746363 
L 216.81757 190.746363 
L 216.866645 190.494154 
L 217.088394 190.494154 
L 217.088394 190.368049 
L 217.3305 190.368049 
L 217.3305 190.241945 
L 217.587024 190.241945 
L 217.683694 189.863631 
L 217.773392 189.863631 
L 217.773392 189.737527 
L 218.438354 189.737527 
L 218.438354 189.485318 
L 218.732118 189.485318 
L 218.732118 189.359213 
L 219.090508 189.359213 
L 219.090508 189.233109 
L 219.386958 189.233109 
L 219.386958 189.107004 
L 219.919965 189.107004 
L 220.003616 188.854795 
L 220.401494 188.854795 
L 220.401494 188.728691 
L 220.971369 188.728691 
L 220.971369 188.602587 
L 222.361412 188.602587 
L 222.379558 188.098169 
L 222.851538 188.098169 
L 222.851538 187.84596 
L 223.315508 187.84596 
L 223.315508 187.593751 
L 223.734939 187.593751 
L 223.734939 187.467646 
L 224.524544 187.467646 
L 224.546157 186.711019 
L 224.705123 186.711019 
L 224.705123 186.458811 
L 225.362121 186.458811 
L 225.370688 185.954393 
L 225.708604 185.954393 
L 225.708604 185.702184 
L 225.982751 185.702184 
L 226.08415 185.449975 
L 226.27267 185.449975 
L 226.27267 185.197766 
L 226.548546 185.197766 
L 226.551791 184.693348 
L 227.064871 184.693348 
L 227.064871 184.567243 
L 227.403326 184.567243 
L 227.403326 184.441139 
L 227.711673 184.441139 
L 227.711673 184.315034 
L 228.307391 184.315034 
L 228.387213 183.05399 
L 228.459692 183.05399 
L 228.462794 182.423467 
L 229.326109 182.423467 
L 229.361683 181.666841 
L 229.836132 181.666841 
L 229.875868 181.036318 
L 230.363159 181.036318 
L 230.372198 180.5319 
L 231.261424 180.5319 
L 231.261424 180.405796 
L 232.865989 180.405796 
L 232.942634 180.027482 
L 233.268276 180.027482 
L 233.268276 179.901378 
L 233.410752 179.901378 
L 233.410752 179.649169 
L 233.783521 179.649169 
L 233.783521 179.523065 
L 234.191118 179.523065 
L 234.192514 178.892542 
L 338.688 178.892542 
L 338.688 178.892542 
" style="fill:none;stroke:#000080;stroke-linecap:square;stroke-width:1.5;"/>
   </g>
   <g id="line2d_36">
    <defs>
     <path d="M 0 6 
C 1.591219 6 3.117479 5.367802 4.242641 4.242641 
C 5.367802 3.117479 6 1.591219 6 0 
C 6 -1.591219 5.367802 -3.117479 4.242641 -4.242641 
C 3.117479 -5.367802 1.591219 -6 0 -6 
C -1.591219 -6 -3.117479 -5.367802 -4.242641 -4.242641 
C -5.367802 -3.117479 -6 -1.591219 -6 0 
C -6 1.591219 -5.367802 3.117479 -4.242641 4.242641 
C -3.117479 5.367802 -1.591219 6 0 6 
z
" id="maa3d98c823" style="stroke:#000080;stroke-width:1.5;"/>
    </defs>
    <g>
     <use style="fill-opacity:0;stroke:#000080;stroke-width:1.5;" x="100.343767" xlink:href="#maa3d98c823" y="269.813867"/>
     <use style="fill-opacity:0;stroke:#000080;stroke-width:1.5;" x="180.552093" xlink:href="#maa3d98c823" y="211.175287"/>
     <use style="fill-opacity:0;stroke:#000080;stroke-width:1.5;" x="226.27267" xlink:href="#maa3d98c823" y="185.449975"/>
     <use style="fill-opacity:0;stroke:#000080;stroke-width:1.5;" x="234.192514" xlink:href="#maa3d98c823" y="178.892542"/>
     <use style="fill-opacity:0;stroke:#000080;stroke-width:1.5;" x="234.192514" xlink:href="#maa3d98c823" y="178.892542"/>
     <use style="fill-opacity:0;stroke:#000080;stroke-width:1.5;" x="338.688" xlink:href="#maa3d98c823" y="178.892542"/>
    </g>
   </g>
   <g id="line2d_37">
    <path style="fill:none;stroke:#000080;stroke-linecap:square;stroke-width:1.5;"/>
    <g/>
   </g>
   <g id="line2d_38">
    <path clip-path="url(#pcc38b72856)" d="M 234.201584 178.892542 
" style="fill:none;stroke:#000080;stroke-linecap:square;stroke-width:1.5;"/>
    <defs>
     <path d="M -12 12 
L 12 -12 
M -12 -12 
L 12 12 
" id="m591c350a3c" style="stroke:#000080;"/>
    </defs>
    <g clip-path="url(#pcc38b72856)">
     <use style="fill:#000080;stroke:#000080;" x="234.201584" xlink:href="#m591c350a3c" y="178.892542"/>
    </g>
   </g>
   <g id="line2d_39">
    <defs>
     <path d="M 0 1.5 
C 0.397805 1.5 0.77937 1.341951 1.06066 1.06066 
C 1.341951 0.77937 1.5 0.397805 1.5 0 
C 1.5 -0.397805 1.341951 -0.77937 1.06066 -1.06066 
C 0.77937 -1.341951 0.397805 -1.5 0 -1.5 
C -0.397805 -1.5 -0.77937 -1.341951 -1.06066 -1.06066 
C -1.341951 -0.77937 -1.5 -0.397805 -1.5 0 
C -1.5 0.397805 -1.341951 0.77937 -1.06066 1.06066 
C -0.77937 1.341951 -0.397805 1.5 0 1.5 
z
" id="me3a8d2a873" style="stroke:#ff00ff;"/>
    </defs>
    <g>
     <use style="fill:#ff00ff;stroke:#ff00ff;" x="233.880847" xlink:href="#me3a8d2a873" y="206.257213"/>
     <use style="fill:#ff00ff;stroke:#ff00ff;" x="233.880847" xlink:href="#me3a8d2a873" y="206.257213"/>
    </g>
   </g>
   <g id="line2d_40">
    <path d="M 63.467834 298.944 
L 63.467834 291.629941 
L 99.731799 291.629941 
L 99.731799 291.377732 
L 100.040467 291.377732 
L 100.040467 291.251627 
L 101.223245 291.251627 
L 101.223245 290.242791 
L 101.506816 290.242791 
L 101.506816 289.990582 
L 102.060491 289.990582 
L 102.060491 289.612269 
L 102.597126 289.612269 
L 102.597126 288.981747 
L 102.859376 288.981747 
L 102.859376 288.855642 
L 103.372333 288.855642 
L 103.372333 287.468493 
L 103.623262 287.468493 
L 103.623262 286.081344 
L 103.870632 286.081344 
L 103.870632 285.955239 
L 104.355088 285.955239 
L 104.355088 285.829135 
L 105.732589 285.829135 
L 105.732589 285.576926 
L 105.951954 285.576926 
L 105.951954 285.450821 
L 106.382575 285.450821 
L 106.382575 285.198612 
L 106.593963 285.198612 
L 106.593963 285.072508 
L 107.009204 285.072508 
L 107.009204 284.315881 
L 108.006005 284.315881 
L 108.006005 284.063672 
L 108.389302 284.063672 
L 108.389302 283.937568 
L 108.577836 283.937568 
L 108.577836 283.811463 
L 108.948899 283.811463 
L 108.948899 283.685359 
L 109.668146 283.685359 
L 109.668146 283.180941 
L 109.843417 283.180941 
L 109.843417 282.802628 
L 111.505558 282.802628 
L 111.505558 282.676523 
L 112.128456 282.676523 
L 112.128456 282.550419 
L 112.58145 282.550419 
L 112.58145 282.29821 
L 113.022974 282.29821 
L 113.022974 281.667687 
L 113.73488 281.667687 
L 113.73488 281.541583 
L 114.284194 281.541583 
L 114.284194 281.289374 
L 114.418861 281.289374 
L 114.418861 280.784956 
L 114.947365 280.784956 
L 114.947365 280.406643 
L 115.205729 280.406643 
L 115.205729 280.154434 
L 115.460322 280.154434 
L 115.460322 280.028329 
L 115.586238 280.028329 
L 115.586238 279.902225 
L 116.081002 279.902225 
L 116.081002 279.77612 
L 116.202531 279.77612 
L 116.202531 279.523911 
L 116.323218 279.523911 
L 116.323218 278.767284 
L 117.486268 278.767284 
L 117.486268 278.388971 
L 117.930605 278.388971 
L 118.039942 277.884553 
L 118.890808 277.884553 
L 118.890808 277.758449 
L 119.40226 277.758449 
L 119.40226 277.632344 
L 119.602714 277.632344 
L 119.602714 277.127926 
L 120.093994 277.127926 
L 120.093994 277.001822 
L 120.571812 277.001822 
L 120.571812 276.245195 
L 121.128432 276.245195 
L 121.128432 275.992986 
L 121.400219 275.992986 
L 121.489881 275.740777 
L 121.579085 275.740777 
L 121.579085 275.488568 
L 121.931406 275.488568 
L 121.931406 275.362464 
L 122.276749 275.362464 
L 122.276749 275.236359 
L 122.615387 275.236359 
L 122.615387 275.110255 
L 122.782271 275.110255 
L 122.782271 274.858046 
L 123.192626 274.858046 
L 123.273551 274.479732 
L 123.354102 274.479732 
L 123.354102 274.353628 
L 123.593547 274.353628 
L 123.593547 274.101419 
L 125.470548 274.101419 
L 125.470548 273.975314 
L 125.752972 273.975314 
L 125.752972 273.723105 
L 126.030894 273.723105 
L 126.099688 273.218688 
L 126.168212 273.218688 
L 126.168212 272.966479 
L 126.372183 272.966479 
L 126.372183 272.71427 
L 126.50685 272.71427 
L 126.50685 272.462061 
L 126.839037 272.462061 
L 126.839037 272.335956 
L 127.357715 272.335956 
L 127.357715 272.209852 
L 128.411207 272.209852 
L 128.411207 271.957643 
L 128.709321 271.957643 
L 128.709321 271.831538 
L 129.290685 271.831538 
L 129.290685 271.705434 
L 130.398313 271.705434 
L 130.505303 271.074912 
L 130.558552 271.074912 
L 130.558552 270.948807 
L 130.926816 270.948807 
L 130.926816 270.822703 
L 131.133813 270.822703 
L 131.133813 270.444389 
L 131.490249 270.444389 
L 131.490249 270.19218 
L 132.181982 270.19218 
L 132.181982 269.687762 
L 132.374684 269.687762 
L 132.422528 269.435553 
L 132.893889 269.435553 
L 132.893889 269.309449 
L 133.078923 269.309449 
L 133.078923 269.183344 
L 133.262014 269.183344 
L 133.262014 268.931136 
L 133.57787 268.931136 
L 133.57787 268.805031 
L 133.755823 268.805031 
L 133.755823 268.552822 
L 135.321124 268.552822 
L 135.321124 268.300613 
L 135.878591 268.300613 
L 135.878591 268.174509 
L 136.266147 268.174509 
L 136.266147 267.796195 
L 136.645276 267.796195 
L 136.645276 267.670091 
L 136.79465 267.670091 
L 136.79465 267.543986 
L 137.016339 267.543986 
L 137.016339 267.417882 
L 137.37967 267.417882 
L 137.37967 267.291777 
L 137.735587 267.291777 
L 137.805906 267.039568 
L 137.875944 267.039568 
L 137.875944 266.78736 
L 138.049816 266.78736 
L 138.049816 266.661255 
L 138.392446 266.661255 
L 138.426341 266.156837 
L 138.594838 266.156837 
L 138.594838 265.904628 
L 138.761723 265.904628 
L 138.761723 265.778524 
L 138.927025 265.778524 
L 138.959898 265.526315 
L 139.253002 265.526315 
L 139.253002 265.40021 
L 139.413734 265.40021 
L 139.413734 265.274106 
L 139.541262 265.274106 
L 139.541262 265.148001 
L 140.042245 265.148001 
L 140.042245 265.021897 
L 140.64889 265.021897 
L 140.64889 264.895792 
L 140.767727 264.895792 
L 140.767727 264.769688 
L 141.263941 264.769688 
L 141.263941 264.643583 
L 141.521035 264.643583 
L 141.521035 264.013061 
L 141.634094 264.013061 
L 141.634094 263.886957 
L 141.80232 263.886957 
L 141.80232 263.634748 
L 141.913576 263.634748 
L 141.913576 263.508643 
L 142.351634 263.508643 
L 142.351634 263.256434 
L 143.502469 263.256434 
L 143.502469 262.625912 
L 144.124035 262.625912 
L 144.124035 262.373703 
L 144.414696 262.373703 
L 144.414696 262.247598 
L 144.676946 262.247598 
L 144.676946 261.99539 
L 144.841802 261.99539 
L 144.841802 261.743181 
L 144.958609 261.743181 
L 144.958609 261.112658 
L 145.074639 261.112658 
L 145.074639 260.986554 
L 145.281568 260.986554 
L 145.304409 260.734345 
L 145.932112 260.734345 
L 145.932112 260.60824 
L 146.08557 260.60824 
L 146.08557 260.229927 
L 146.580487 260.229927 
L 146.580487 260.103822 
L 146.707319 260.103822 
L 146.707319 259.851614 
L 146.854132 259.851614 
L 146.937474 259.599405 
L 147.12355 259.599405 
L 147.144103 259.094987 
L 147.266916 259.094987 
L 147.266916 258.968882 
L 147.530079 258.968882 
L 147.530079 258.842778 
L 149.141003 258.842778 
L 149.141003 258.716673 
L 150.206871 258.716673 
L 150.258492 258.464464 
L 150.49739 258.464464 
L 150.49739 257.581733 
L 150.998554 257.581733 
L 151.097081 257.20342 
L 151.1298 257.20342 
L 151.1298 257.077315 
L 151.373256 257.077315 
L 151.373256 256.951211 
L 151.501723 256.951211 
L 151.597455 256.699002 
L 151.959639 256.699002 
L 151.959639 256.572897 
L 152.360205 256.572897 
L 152.360205 256.194584 
L 152.959038 256.194584 
L 152.959038 256.068479 
L 153.380683 256.068479 
L 153.380683 255.942375 
L 153.637357 255.942375 
L 153.637357 255.690166 
L 153.750233 255.690166 
L 153.750233 255.564061 
L 154.084543 255.564061 
L 154.180855 255.185748 
L 154.734529 255.185748 
L 154.787617 254.303017 
L 154.972161 254.303017 
L 155.024532 253.672494 
L 155.206599 253.672494 
L 155.206599 253.54639 
L 156.114049 253.54639 
L 156.114049 253.420285 
L 156.658127 253.420285 
L 156.658127 253.168076 
L 156.953214 253.168076 
L 156.953214 252.915868 
L 157.185742 252.915868 
L 157.2549 252.537554 
L 157.686643 252.537554 
L 157.697862 252.033136 
L 158.096998 252.033136 
L 158.096998 251.907032 
L 158.422772 251.907032 
L 158.422772 251.654823 
L 158.721434 251.654823 
L 158.721434 251.402614 
L 159.897102 251.402614 
L 159.985851 249.88936 
L 160.025151 249.88936 
L 160.025151 249.637151 
L 161.192316 249.637151 
L 161.192316 249.258838 
L 161.447441 249.258838 
L 161.510643 248.880524 
L 161.689969 248.880524 
L 161.743409 248.376107 
L 161.8498 248.376107 
L 161.92917 248.123898 
L 162.38081 248.123898 
L 162.474869 247.871689 
L 162.636148 247.871689 
L 162.636148 247.61948 
L 162.762429 247.61948 
L 162.762429 247.493375 
L 162.929393 247.493375 
L 162.929393 247.367271 
L 163.119446 247.367271 
L 163.135875 246.736748 
L 163.258601 246.736748 
L 163.356164 246.23233 
L 163.412824 246.23233 
L 163.420904 245.980122 
L 163.693398 245.980122 
L 163.693398 245.727913 
L 164.00081 245.727913 
L 164.024234 245.223495 
L 164.140886 245.223495 
L 164.140886 245.09739 
L 164.486229 245.09739 
L 164.486229 244.971286 
L 164.839766 244.971286 
L 164.839766 244.845181 
L 165.447111 244.845181 
L 165.447111 244.466868 
L 165.59035 244.466868 
L 165.59035 244.340763 
L 165.859305 244.340763 
L 165.859305 244.088554 
L 165.978297 244.088554 
L 165.978297 243.96245 
L 166.595075 243.96245 
L 166.595075 243.836346 
L 166.7626 243.836346 
L 166.7626 243.584137 
L 166.968122 243.584137 
L 167.053592 243.205823 
L 167.487573 243.205823 
L 167.487573 243.079719 
L 167.754214 243.079719 
L 167.817104 242.701405 
L 168.004423 242.701405 
L 168.035449 242.070883 
L 168.202038 242.070883 
L 168.202038 241.818674 
L 168.445948 241.818674 
L 168.445948 241.692569 
L 169.146224 241.692569 
L 169.146224 241.440361 
L 169.325624 241.440361 
L 169.325624 241.314256 
L 169.474679 241.314256 
L 169.474679 241.188152 
L 169.908781 241.188152 
L 169.908781 240.935943 
L 170.256089 240.935943 
L 170.256089 240.683734 
L 170.569832 240.683734 
L 170.655397 240.053211 
L 171.391826 240.053211 
L 171.391826 239.674898 
L 171.519214 239.674898 
L 171.519214 239.548793 
L 171.675893 239.548793 
L 171.675893 239.422689 
L 172.16214 239.422689 
L 172.16214 239.296584 
L 172.322872 239.296584 
L 172.322872 239.17048 
L 172.932666 239.17048 
L 173.021392 238.792167 
L 173.243551 238.792167 
L 173.243551 238.539958 
L 173.643636 238.539958 
L 173.693007 238.161644 
L 173.773496 238.161644 
L 173.773496 237.909435 
L 174.126799 237.909435 
L 174.235754 237.152808 
L 174.404376 237.152808 
L 174.404376 237.026704 
L 174.963293 237.026704 
L 175.071303 236.522286 
L 175.293514 236.522286 
L 175.330276 236.017868 
L 175.673699 236.017868 
L 175.673699 235.891764 
L 176.894213 235.891764 
L 176.894213 235.639555 
L 177.40517 235.639555 
L 177.40517 235.387346 
L 178.629113 235.387346 
L 178.629113 235.135137 
L 178.927114 235.135137 
L 178.927114 235.009032 
L 179.046221 235.009032 
L 179.046221 234.756823 
L 179.533929 234.756823 
L 179.533929 234.504615 
L 179.97401 234.504615 
L 180.055109 234.252406 
L 180.375783 234.252406 
L 180.375783 234.000197 
L 180.609464 234.000197 
L 180.609464 233.874092 
L 181.690637 233.874092 
L 181.690637 233.747988 
L 182.019027 233.747988 
L 182.091171 233.117465 
L 182.61488 233.117465 
L 182.61488 232.991361 
L 183.24037 232.991361 
L 183.24037 232.613047 
L 183.632568 232.613047 
L 183.660429 232.10863 
L 184.342852 232.10863 
L 184.342852 231.856421 
L 184.718423 231.856421 
L 184.735087 231.478107 
L 184.96908 231.478107 
L 184.96908 231.225898 
L 185.33154 231.225898 
L 185.33154 230.973689 
L 185.500877 230.973689 
L 185.57133 230.72148 
L 186.25627 230.72148 
L 186.25627 230.469271 
L 186.573926 230.469271 
L 186.573926 230.343167 
L 187.328266 230.343167 
L 187.328266 230.090958 
L 187.446803 230.090958 
L 187.446803 229.838749 
L 187.572631 229.838749 
L 187.572631 229.58654 
L 187.845502 229.58654 
L 187.889244 229.082122 
L 188.002069 229.082122 
L 188.070987 228.703809 
L 188.114169 228.703809 
L 188.114169 228.577704 
L 188.407697 228.577704 
L 188.407697 228.4516 
L 188.969141 228.4516 
L 188.969141 228.199391 
L 189.158498 228.199391 
L 189.158498 228.073286 
L 189.411459 228.073286 
L 189.455079 227.694973 
L 191.904972 227.694973 
L 191.92389 227.31666 
L 192.04323 227.31666 
L 192.04323 227.064451 
L 192.236206 227.064451 
L 192.236206 226.812242 
L 193.011144 226.812242 
L 193.090904 226.560033 
L 193.259556 226.560033 
L 193.259556 226.307824 
L 193.80835 226.307824 
L 193.839436 226.055615 
L 194.27856 226.055615 
L 194.27856 225.92951 
L 194.487924 225.92951 
L 194.487924 225.677301 
L 194.702868 225.677301 
L 194.702868 225.425093 
L 194.948345 225.425093 
L 194.976143 225.046779 
L 195.212612 225.046779 
L 195.212612 224.920675 
L 196.018371 224.920675 
L 196.071864 224.290152 
L 196.163539 224.290152 
L 196.236287 223.911839 
L 196.365009 223.911839 
L 196.365009 223.785734 
L 196.477018 223.785734 
L 196.477018 223.533525 
L 197.07584 223.533525 
L 197.087563 223.029108 
L 197.420678 223.029108 
L 197.420678 222.903003 
L 197.572917 222.903003 
L 197.572917 222.776899 
L 197.763339 222.776899 
L 197.763339 222.650794 
L 198.340987 222.650794 
L 198.340987 222.52469 
L 198.815416 222.52469 
L 198.915949 222.020272 
L 199.408049 222.020272 
L 199.408049 221.894167 
L 199.658598 221.894167 
L 199.69799 221.515854 
L 199.918553 221.515854 
L 199.918553 221.389749 
L 200.116673 221.389749 
L 200.116673 221.13754 
L 200.615749 221.13754 
L 200.615749 220.759227 
L 201.305472 220.759227 
L 201.305472 220.633123 
L 201.5739 220.633123 
L 201.5739 220.380914 
L 202.20298 220.380914 
L 202.271014 220.128705 
L 202.464069 220.128705 
L 202.536239 219.624287 
L 202.697537 219.624287 
L 202.697537 219.498182 
L 203.894889 219.498182 
L 203.894889 219.245973 
L 204.152332 219.245973 
L 204.257517 218.741555 
L 204.518886 218.741555 
L 204.518886 218.615451 
L 204.963892 218.615451 
L 204.987746 218.237138 
L 205.396369 218.237138 
L 205.396369 217.984929 
L 206.126051 217.984929 
L 206.220705 217.606615 
L 207.23851 217.606615 
L 207.27187 217.228302 
L 207.391052 217.228302 
L 207.39235 216.849988 
L 208.901544 216.849988 
L 208.901544 216.597779 
L 209.152685 216.597779 
L 209.152685 216.471675 
L 209.856963 216.471675 
L 209.934549 215.967257 
L 210.123686 215.967257 
L 210.123686 215.841153 
L 211.139006 215.841153 
L 211.139006 215.588944 
L 212.361552 215.588944 
L 212.361552 215.084526 
L 212.972543 215.084526 
L 212.972543 214.832317 
L 213.340475 214.832317 
L 213.340475 214.580108 
L 213.755862 214.580108 
L 213.755862 214.454003 
L 214.862236 214.454003 
L 214.862236 214.327899 
L 216.043051 214.327899 
L 216.045422 214.07569 
L 216.496329 214.07569 
L 216.496329 213.823481 
L 216.670656 213.823481 
L 216.752428 213.445168 
L 217.032474 213.445168 
L 217.032474 213.319063 
L 217.183419 213.319063 
L 217.183419 213.192959 
L 217.814141 213.192959 
L 217.814141 212.94075 
L 217.988216 212.94075 
L 218.074606 212.184123 
L 218.301751 212.184123 
L 218.301751 212.058018 
L 218.776097 212.058018 
L 218.776097 211.931914 
L 219.345803 211.931914 
L 219.345803 211.679705 
L 219.980297 211.679705 
L 219.980297 211.553601 
L 220.289092 211.553601 
L 220.289092 211.301392 
L 220.634478 211.301392 
L 220.634478 211.175287 
L 222.174178 211.175287 
L 222.174178 210.923078 
L 222.496777 210.923078 
L 222.496777 210.796974 
L 222.777025 210.796974 
L 222.777025 210.670869 
L 222.95341 210.670869 
L 222.95341 210.544765 
L 223.343613 210.544765 
L 223.343613 210.41866 
L 223.632686 210.41866 
L 223.632686 210.292556 
L 223.99462 210.292556 
L 223.99462 210.040347 
L 224.346495 210.040347 
L 224.346495 209.914242 
L 224.911918 209.914242 
L 224.911918 209.662033 
L 225.055347 209.662033 
L 225.055347 209.409825 
L 225.227506 209.409825 
L 225.327578 209.157616 
L 226.151127 209.157616 
L 226.240767 208.653198 
L 226.895587 208.653198 
L 226.895587 208.527093 
L 227.328174 208.527093 
L 227.355258 208.14878 
L 227.510333 208.14878 
L 227.510333 207.896571 
L 227.791441 207.896571 
L 227.791441 207.644362 
L 228.223468 207.644362 
L 228.223468 207.518257 
L 228.347055 207.518257 
L 228.347055 207.392153 
L 229.625568 207.392153 
L 229.625568 207.139944 
L 232.035618 207.139944 
L 232.035618 207.01384 
L 232.584795 207.01384 
L 232.675326 206.635526 
L 233.658181 206.635526 
L 233.658181 206.383317 
L 233.880847 206.383317 
L 233.880847 206.257213 
L 338.688 206.257213 
L 338.688 206.257213 
" style="fill:none;stroke:#ff00ff;stroke-linecap:square;stroke-width:1.5;"/>
   </g>
   <g id="line2d_41">
    <defs>
     <path d="M 0 8.485281 
L 5.091169 0 
L 0 -8.485281 
L -5.091169 0 
z
" id="m284f787dea" style="stroke:#ff00ff;stroke-linejoin:miter;stroke-width:1.5;"/>
    </defs>
    <g>
     <use style="fill-opacity:0;stroke:#ff00ff;stroke-linejoin:miter;stroke-width:1.5;" x="109.843417" xlink:href="#m284f787dea" y="282.802628"/>
     <use style="fill-opacity:0;stroke:#ff00ff;stroke-linejoin:miter;stroke-width:1.5;" x="193.259556" xlink:href="#m284f787dea" y="226.560033"/>
     <use style="fill-opacity:0;stroke:#ff00ff;stroke-linejoin:miter;stroke-width:1.5;" x="233.880847" xlink:href="#m284f787dea" y="206.383317"/>
     <use style="fill-opacity:0;stroke:#ff00ff;stroke-linejoin:miter;stroke-width:1.5;" x="233.880847" xlink:href="#m284f787dea" y="206.257213"/>
     <use style="fill-opacity:0;stroke:#ff00ff;stroke-linejoin:miter;stroke-width:1.5;" x="338.688" xlink:href="#m284f787dea" y="206.257213"/>
    </g>
   </g>
   <g id="line2d_42">
    <path style="fill:none;stroke:#ff00ff;stroke-linecap:square;stroke-width:1.5;"/>
    <g/>
   </g>
   <g id="line2d_43">
    <path clip-path="url(#pcc38b72856)" d="M 234.201445 206.257213 
" style="fill:none;stroke:#ff00ff;stroke-linecap:square;stroke-width:1.5;"/>
    <defs>
     <path d="M -12 12 
L 12 -12 
M -12 -12 
L 12 12 
" id="m139e1a096e" style="stroke:#ff00ff;"/>
    </defs>
    <g clip-path="url(#pcc38b72856)">
     <use style="fill:#ff00ff;stroke:#ff00ff;" x="234.201445" xlink:href="#m139e1a096e" y="206.257213"/>
    </g>
   </g>
   <g id="line2d_44">
    <path d="M 338.688 206.257213 
L 369.60768 293.092752 
" style="fill:none;stroke:#ff00ff;stroke-linecap:square;stroke-width:1.5;"/>
    <g>
     <use style="fill-opacity:0;stroke:#ff00ff;stroke-linejoin:miter;stroke-width:1.5;" x="338.688" xlink:href="#m284f787dea" y="206.257213"/>
     <use style="fill-opacity:0;stroke:#ff00ff;stroke-linejoin:miter;stroke-width:1.5;" x="369.60768" xlink:href="#m284f787dea" y="293.092752"/>
    </g>
   </g>
   <g id="line2d_45">
    <path d="M 338.688 178.892542 
L 369.60768 152.662812 
" style="fill:none;stroke:#000080;stroke-linecap:square;stroke-width:1.5;"/>
    <g>
     <use style="fill-opacity:0;stroke:#000080;stroke-width:1.5;" x="338.688" xlink:href="#maa3d98c823" y="178.892542"/>
     <use style="fill-opacity:0;stroke:#000080;stroke-width:1.5;" x="369.60768" xlink:href="#maa3d98c823" y="152.662812"/>
    </g>
   </g>
   <g id="line2d_46">
    <path d="M 338.688 298.944 
L 338.688 6.381624 
" style="fill:none;stroke:#000000;stroke-linecap:square;stroke-width:1.5;"/>
   </g>
   <g id="patch_3">
    <path d="M 57.6 298.944 
L 57.6 3.456 
" style="fill:none;stroke:#000000;stroke-linecap:square;stroke-linejoin:miter;stroke-width:0.8;"/>
   </g>
   <g id="patch_4">
    <path d="M 338.688 298.944 
L 338.688 3.456 
" style="fill:none;stroke:#000000;stroke-linecap:square;stroke-linejoin:miter;stroke-width:0.8;"/>
   </g>
   <g id="patch_5">
    <path d="M 57.6 298.944 
L 338.688 298.944 
" style="fill:none;stroke:#000000;stroke-linecap:square;stroke-linejoin:miter;stroke-width:0.8;"/>
   </g>
   <g id="patch_6">
    <path d="M 57.6 3.456 
L 338.688 3.456 
" style="fill:none;stroke:#000000;stroke-linecap:square;stroke-linejoin:miter;stroke-width:0.8;"/>
   </g>
   <g id="text_13">
    <!-- MultiGLOD -->
    <g transform="translate(375.22944 297.78369)scale(0.17 -0.17)">
     <defs>
      <path d="M 628 4666 
L 1569 4666 
L 2759 1491 
L 3956 4666 
L 4897 4666 
L 4897 0 
L 4281 0 
L 4281 4097 
L 3078 897 
L 2444 897 
L 1241 4097 
L 1241 0 
L 628 0 
L 628 4666 
z
" id="DejaVuSans-4d" transform="scale(0.015625)"/>
      <path d="M 3809 666 
L 3809 1919 
L 2778 1919 
L 2778 2438 
L 4434 2438 
L 4434 434 
Q 4069 175 3628 42 
Q 3188 -91 2688 -91 
Q 1594 -91 976 548 
Q 359 1188 359 2328 
Q 359 3472 976 4111 
Q 1594 4750 2688 4750 
Q 3144 4750 3555 4637 
Q 3966 4525 4313 4306 
L 4313 3634 
Q 3963 3931 3569 4081 
Q 3175 4231 2741 4231 
Q 1884 4231 1454 3753 
Q 1025 3275 1025 2328 
Q 1025 1384 1454 906 
Q 1884 428 2741 428 
Q 3075 428 3337 486 
Q 3600 544 3809 666 
z
" id="DejaVuSans-47" transform="scale(0.015625)"/>
      <path d="M 628 4666 
L 1259 4666 
L 1259 531 
L 3531 531 
L 3531 0 
L 628 0 
L 628 4666 
z
" id="DejaVuSans-4c" transform="scale(0.015625)"/>
      <path d="M 2522 4238 
Q 1834 4238 1429 3725 
Q 1025 3213 1025 2328 
Q 1025 1447 1429 934 
Q 1834 422 2522 422 
Q 3209 422 3611 934 
Q 4013 1447 4013 2328 
Q 4013 3213 3611 3725 
Q 3209 4238 2522 4238 
z
M 2522 4750 
Q 3503 4750 4090 4092 
Q 4678 3434 4678 2328 
Q 4678 1225 4090 567 
Q 3503 -91 2522 -91 
Q 1538 -91 948 565 
Q 359 1222 359 2328 
Q 359 3434 948 4092 
Q 1538 4750 2522 4750 
z
" id="DejaVuSans-4f" transform="scale(0.015625)"/>
      <path d="M 1259 4147 
L 1259 519 
L 2022 519 
Q 2988 519 3436 956 
Q 3884 1394 3884 2338 
Q 3884 3275 3436 3711 
Q 2988 4147 2022 4147 
L 1259 4147 
z
M 628 4666 
L 1925 4666 
Q 3281 4666 3915 4102 
Q 4550 3538 4550 2338 
Q 4550 1131 3912 565 
Q 3275 0 1925 0 
L 628 0 
L 628 4666 
z
" id="DejaVuSans-44" transform="scale(0.015625)"/>
     </defs>
     <use xlink:href="#DejaVuSans-4d"/>
     <use x="86.279297" xlink:href="#DejaVuSans-75"/>
     <use x="149.658203" xlink:href="#DejaVuSans-6c"/>
     <use x="177.441406" xlink:href="#DejaVuSans-74"/>
     <use x="216.650391" xlink:href="#DejaVuSans-69"/>
     <use x="244.433594" xlink:href="#DejaVuSans-47"/>
     <use x="321.923828" xlink:href="#DejaVuSans-4c"/>
     <use x="374.011719" xlink:href="#DejaVuSans-4f"/>
     <use x="452.722656" xlink:href="#DejaVuSans-44"/>
    </g>
   </g>
   <g id="text_14">
    <!-- DMS Brock -->
    <g transform="translate(375.22944 157.353749)scale(0.17 -0.17)">
     <defs>
      <path d="M 3425 4513 
L 3425 3897 
Q 3066 4069 2747 4153 
Q 2428 4238 2131 4238 
Q 1616 4238 1336 4038 
Q 1056 3838 1056 3469 
Q 1056 3159 1242 3001 
Q 1428 2844 1947 2747 
L 2328 2669 
Q 3034 2534 3370 2195 
Q 3706 1856 3706 1288 
Q 3706 609 3251 259 
Q 2797 -91 1919 -91 
Q 1588 -91 1214 -16 
Q 841 59 441 206 
L 441 856 
Q 825 641 1194 531 
Q 1563 422 1919 422 
Q 2459 422 2753 634 
Q 3047 847 3047 1241 
Q 3047 1584 2836 1778 
Q 2625 1972 2144 2069 
L 1759 2144 
Q 1053 2284 737 2584 
Q 422 2884 422 3419 
Q 422 4038 858 4394 
Q 1294 4750 2059 4750 
Q 2388 4750 2728 4690 
Q 3069 4631 3425 4513 
z
" id="DejaVuSans-53" transform="scale(0.015625)"/>
      <path d="M 1259 2228 
L 1259 519 
L 2272 519 
Q 2781 519 3026 730 
Q 3272 941 3272 1375 
Q 3272 1813 3026 2020 
Q 2781 2228 2272 2228 
L 1259 2228 
z
M 1259 4147 
L 1259 2741 
L 2194 2741 
Q 2656 2741 2882 2914 
Q 3109 3088 3109 3444 
Q 3109 3797 2882 3972 
Q 2656 4147 2194 4147 
L 1259 4147 
z
M 628 4666 
L 2241 4666 
Q 2963 4666 3353 4366 
Q 3744 4066 3744 3513 
Q 3744 3084 3544 2831 
Q 3344 2578 2956 2516 
Q 3422 2416 3680 2098 
Q 3938 1781 3938 1306 
Q 3938 681 3513 340 
Q 3088 0 2303 0 
L 628 0 
L 628 4666 
z
" id="DejaVuSans-42" transform="scale(0.015625)"/>
      <path d="M 581 4863 
L 1159 4863 
L 1159 1991 
L 2875 3500 
L 3609 3500 
L 1753 1863 
L 3688 0 
L 2938 0 
L 1159 1709 
L 1159 0 
L 581 0 
L 581 4863 
z
" id="DejaVuSans-6b" transform="scale(0.015625)"/>
     </defs>
     <use xlink:href="#DejaVuSans-44"/>
     <use x="77.001953" xlink:href="#DejaVuSans-4d"/>
     <use x="163.28125" xlink:href="#DejaVuSans-53"/>
     <use x="226.757812" xlink:href="#DejaVuSans-20"/>
     <use x="258.544922" xlink:href="#DejaVuSans-42"/>
     <use x="327.148438" xlink:href="#DejaVuSans-72"/>
     <use x="366.011719" xlink:href="#DejaVuSans-6f"/>
     <use x="427.193359" xlink:href="#DejaVuSans-63"/>
     <use x="482.173828" xlink:href="#DejaVuSans-6b"/>
    </g>
   </g>
   <g id="text_15">
    <!-- best 2016 -->
    <g transform="translate(375.22944 16.923809)scale(0.17 -0.17)">
     <defs>
      <path d="M 3116 1747 
Q 3116 2381 2855 2742 
Q 2594 3103 2138 3103 
Q 1681 3103 1420 2742 
Q 1159 2381 1159 1747 
Q 1159 1113 1420 752 
Q 1681 391 2138 391 
Q 2594 391 2855 752 
Q 3116 1113 3116 1747 
z
M 1159 2969 
Q 1341 3281 1617 3432 
Q 1894 3584 2278 3584 
Q 2916 3584 3314 3078 
Q 3713 2572 3713 1747 
Q 3713 922 3314 415 
Q 2916 -91 2278 -91 
Q 1894 -91 1617 61 
Q 1341 213 1159 525 
L 1159 0 
L 581 0 
L 581 4863 
L 1159 4863 
L 1159 2969 
z
" id="DejaVuSans-62" transform="scale(0.015625)"/>
     </defs>
     <use xlink:href="#DejaVuSans-62"/>
     <use x="63.476562" xlink:href="#DejaVuSans-65"/>
     <use x="125" xlink:href="#DejaVuSans-73"/>
     <use x="177.099609" xlink:href="#DejaVuSans-74"/>
     <use x="216.308594" xlink:href="#DejaVuSans-20"/>
     <use x="248.095703" xlink:href="#DejaVuSans-32"/>
     <use x="311.71875" xlink:href="#DejaVuSans-30"/>
     <use x="375.341797" xlink:href="#DejaVuSans-31"/>
     <use x="438.964844" xlink:href="#DejaVuSans-36"/>
    </g>
   </g>
   <g id="text_16">
    <!-- bbob-biobj f9, f10, f18, f19, 5-D -->
    <g transform="translate(60.41088 14.161286)scale(0.102 -0.102)">
     <defs>
      <path d="M 603 3500 
L 1178 3500 
L 1178 -63 
Q 1178 -731 923 -1031 
Q 669 -1331 103 -1331 
L -116 -1331 
L -116 -844 
L 38 -844 
Q 366 -844 484 -692 
Q 603 -541 603 -63 
L 603 3500 
z
M 603 4863 
L 1178 4863 
L 1178 4134 
L 603 4134 
L 603 4863 
z
" id="DejaVuSans-6a" transform="scale(0.015625)"/>
      <path d="M 703 97 
L 703 672 
Q 941 559 1184 500 
Q 1428 441 1663 441 
Q 2288 441 2617 861 
Q 2947 1281 2994 2138 
Q 2813 1869 2534 1725 
Q 2256 1581 1919 1581 
Q 1219 1581 811 2004 
Q 403 2428 403 3163 
Q 403 3881 828 4315 
Q 1253 4750 1959 4750 
Q 2769 4750 3195 4129 
Q 3622 3509 3622 2328 
Q 3622 1225 3098 567 
Q 2575 -91 1691 -91 
Q 1453 -91 1209 -44 
Q 966 3 703 97 
z
M 1959 2075 
Q 2384 2075 2632 2365 
Q 2881 2656 2881 3163 
Q 2881 3666 2632 3958 
Q 2384 4250 1959 4250 
Q 1534 4250 1286 3958 
Q 1038 3666 1038 3163 
Q 1038 2656 1286 2365 
Q 1534 2075 1959 2075 
z
" id="DejaVuSans-39" transform="scale(0.015625)"/>
      <path d="M 691 4666 
L 3169 4666 
L 3169 4134 
L 1269 4134 
L 1269 2991 
Q 1406 3038 1543 3061 
Q 1681 3084 1819 3084 
Q 2600 3084 3056 2656 
Q 3513 2228 3513 1497 
Q 3513 744 3044 326 
Q 2575 -91 1722 -91 
Q 1428 -91 1123 -41 
Q 819 9 494 109 
L 494 744 
Q 775 591 1075 516 
Q 1375 441 1709 441 
Q 2250 441 2565 725 
Q 2881 1009 2881 1497 
Q 2881 1984 2565 2268 
Q 2250 2553 1709 2553 
Q 1456 2553 1204 2497 
Q 953 2441 691 2322 
L 691 4666 
z
" id="DejaVuSans-35" transform="scale(0.015625)"/>
     </defs>
     <use xlink:href="#DejaVuSans-62"/>
     <use x="63.476562" xlink:href="#DejaVuSans-62"/>
     <use x="126.953125" xlink:href="#DejaVuSans-6f"/>
     <use x="188.134766" xlink:href="#DejaVuSans-62"/>
     <use x="251.611328" xlink:href="#DejaVuSans-2d"/>
     <use x="287.695312" xlink:href="#DejaVuSans-62"/>
     <use x="351.171875" xlink:href="#DejaVuSans-69"/>
     <use x="378.955078" xlink:href="#DejaVuSans-6f"/>
     <use x="440.136719" xlink:href="#DejaVuSans-62"/>
     <use x="503.613281" xlink:href="#DejaVuSans-6a"/>
     <use x="531.396484" xlink:href="#DejaVuSans-20"/>
     <use x="563.183594" xlink:href="#DejaVuSans-66"/>
     <use x="598.388672" xlink:href="#DejaVuSans-39"/>
     <use x="662.011719" xlink:href="#DejaVuSans-2c"/>
     <use x="693.798828" xlink:href="#DejaVuSans-20"/>
     <use x="725.585938" xlink:href="#DejaVuSans-66"/>
     <use x="760.791016" xlink:href="#DejaVuSans-31"/>
     <use x="824.414062" xlink:href="#DejaVuSans-30"/>
     <use x="888.037109" xlink:href="#DejaVuSans-2c"/>
     <use x="919.824219" xlink:href="#DejaVuSans-20"/>
     <use x="951.611328" xlink:href="#DejaVuSans-66"/>
     <use x="986.816406" xlink:href="#DejaVuSans-31"/>
     <use x="1050.439453" xlink:href="#DejaVuSans-38"/>
     <use x="1114.0625" xlink:href="#DejaVuSans-2c"/>
     <use x="1145.849609" xlink:href="#DejaVuSans-20"/>
     <use x="1177.636719" xlink:href="#DejaVuSans-66"/>
     <use x="1212.841797" xlink:href="#DejaVuSans-31"/>
     <use x="1276.464844" xlink:href="#DejaVuSans-39"/>
     <use x="1340.087891" xlink:href="#DejaVuSans-2c"/>
     <use x="1371.875" xlink:href="#DejaVuSans-20"/>
     <use x="1403.662109" xlink:href="#DejaVuSans-35"/>
     <use x="1467.285156" xlink:href="#DejaVuSans-2d"/>
     <use x="1503.369141" xlink:href="#DejaVuSans-44"/>
    </g>
    <!-- 58 targets: 1..-1.0e-4 -->
    <g transform="translate(60.41088 25.583055)scale(0.102 -0.102)">
     <defs>
      <path d="M 750 794 
L 1409 794 
L 1409 0 
L 750 0 
L 750 794 
z
M 750 3309 
L 1409 3309 
L 1409 2516 
L 750 2516 
L 750 3309 
z
" id="DejaVuSans-3a" transform="scale(0.015625)"/>
     </defs>
     <use xlink:href="#DejaVuSans-35"/>
     <use x="63.623047" xlink:href="#DejaVuSans-38"/>
     <use x="127.246094" xlink:href="#DejaVuSans-20"/>
     <use x="159.033203" xlink:href="#DejaVuSans-74"/>
     <use x="198.242188" xlink:href="#DejaVuSans-61"/>
     <use x="259.521484" xlink:href="#DejaVuSans-72"/>
     <use x="298.884766" xlink:href="#DejaVuSans-67"/>
     <use x="362.361328" xlink:href="#DejaVuSans-65"/>
     <use x="423.884766" xlink:href="#DejaVuSans-74"/>
     <use x="463.09375" xlink:href="#DejaVuSans-73"/>
     <use x="515.193359" xlink:href="#DejaVuSans-3a"/>
     <use x="548.884766" xlink:href="#DejaVuSans-20"/>
     <use x="580.671875" xlink:href="#DejaVuSans-31"/>
     <use x="644.294922" xlink:href="#DejaVuSans-2e"/>
     <use x="676.082031" xlink:href="#DejaVuSans-2e"/>
     <use x="707.869141" xlink:href="#DejaVuSans-2d"/>
     <use x="743.953125" xlink:href="#DejaVuSans-31"/>
     <use x="807.576172" xlink:href="#DejaVuSans-2e"/>
     <use x="839.363281" xlink:href="#DejaVuSans-30"/>
     <use x="902.986328" xlink:href="#DejaVuSans-65"/>
     <use x="964.509766" xlink:href="#DejaVuSans-2d"/>
     <use x="1000.59375" xlink:href="#DejaVuSans-34"/>
    </g>
    <!-- 10 instances -->
    <g transform="translate(60.41088 37.004824)scale(0.102 -0.102)">
     <use xlink:href="#DejaVuSans-31"/>
     <use x="63.623047" xlink:href="#DejaVuSans-30"/>
     <use x="127.246094" xlink:href="#DejaVuSans-20"/>
     <use x="159.033203" xlink:href="#DejaVuSans-69"/>
     <use x="186.816406" xlink:href="#DejaVuSans-6e"/>
     <use x="250.195312" xlink:href="#DejaVuSans-73"/>
     <use x="302.294922" xlink:href="#DejaVuSans-74"/>
     <use x="341.503906" xlink:href="#DejaVuSans-61"/>
     <use x="402.783203" xlink:href="#DejaVuSans-6e"/>
     <use x="466.162109" xlink:href="#DejaVuSans-63"/>
     <use x="521.142578" xlink:href="#DejaVuSans-65"/>
     <use x="582.666016" xlink:href="#DejaVuSans-73"/>
    </g>
   </g>
   <g id="text_17">
    <!-- v2.4.1.1, hv-hash=ff0e71e8cd978373 -->
    <g style="fill:#808080;" transform="translate(103.108062 293.909432)scale(0.1 -0.1)">
     <defs>
      <path d="M 3513 2113 
L 3513 0 
L 2938 0 
L 2938 2094 
Q 2938 2591 2744 2837 
Q 2550 3084 2163 3084 
Q 1697 3084 1428 2787 
Q 1159 2491 1159 1978 
L 1159 0 
L 581 0 
L 581 4863 
L 1159 4863 
L 1159 2956 
Q 1366 3272 1645 3428 
Q 1925 3584 2291 3584 
Q 2894 3584 3203 3211 
Q 3513 2838 3513 2113 
z
" id="DejaVuSans-68" transform="scale(0.015625)"/>
      <path d="M 678 2906 
L 4684 2906 
L 4684 2381 
L 678 2381 
L 678 2906 
z
M 678 1631 
L 4684 1631 
L 4684 1100 
L 678 1100 
L 678 1631 
z
" id="DejaVuSans-3d" transform="scale(0.015625)"/>
      <path d="M 525 4666 
L 3525 4666 
L 3525 4397 
L 1831 0 
L 1172 0 
L 2766 4134 
L 525 4134 
L 525 4666 
z
" id="DejaVuSans-37" transform="scale(0.015625)"/>
      <path d="M 2597 2516 
Q 3050 2419 3304 2112 
Q 3559 1806 3559 1356 
Q 3559 666 3084 287 
Q 2609 -91 1734 -91 
Q 1441 -91 1130 -33 
Q 819 25 488 141 
L 488 750 
Q 750 597 1062 519 
Q 1375 441 1716 441 
Q 2309 441 2620 675 
Q 2931 909 2931 1356 
Q 2931 1769 2642 2001 
Q 2353 2234 1838 2234 
L 1294 2234 
L 1294 2753 
L 1863 2753 
Q 2328 2753 2575 2939 
Q 2822 3125 2822 3475 
Q 2822 3834 2567 4026 
Q 2313 4219 1838 4219 
Q 1578 4219 1281 4162 
Q 984 4106 628 3988 
L 628 4550 
Q 988 4650 1302 4700 
Q 1616 4750 1894 4750 
Q 2613 4750 3031 4423 
Q 3450 4097 3450 3541 
Q 3450 3153 3228 2886 
Q 3006 2619 2597 2516 
z
" id="DejaVuSans-33" transform="scale(0.015625)"/>
     </defs>
     <use xlink:href="#DejaVuSans-76"/>
     <use x="59.179688" xlink:href="#DejaVuSans-32"/>
     <use x="122.802734" xlink:href="#DejaVuSans-2e"/>
     <use x="154.589844" xlink:href="#DejaVuSans-34"/>
     <use x="218.212891" xlink:href="#DejaVuSans-2e"/>
     <use x="250" xlink:href="#DejaVuSans-31"/>
     <use x="313.623047" xlink:href="#DejaVuSans-2e"/>
     <use x="345.410156" xlink:href="#DejaVuSans-31"/>
     <use x="409.033203" xlink:href="#DejaVuSans-2c"/>
     <use x="440.820312" xlink:href="#DejaVuSans-20"/>
     <use x="472.607422" xlink:href="#DejaVuSans-68"/>
     <use x="535.986328" xlink:href="#DejaVuSans-76"/>
     <use x="592.541016" xlink:href="#DejaVuSans-2d"/>
     <use x="628.625" xlink:href="#DejaVuSans-68"/>
     <use x="692.003906" xlink:href="#DejaVuSans-61"/>
     <use x="753.283203" xlink:href="#DejaVuSans-73"/>
     <use x="805.382812" xlink:href="#DejaVuSans-68"/>
     <use x="868.761719" xlink:href="#DejaVuSans-3d"/>
     <use x="952.550781" xlink:href="#DejaVuSans-66"/>
     <use x="987.755859" xlink:href="#DejaVuSans-66"/>
     <use x="1022.960938" xlink:href="#DejaVuSans-30"/>
     <use x="1086.583984" xlink:href="#DejaVuSans-65"/>
     <use x="1148.107422" xlink:href="#DejaVuSans-37"/>
     <use x="1211.730469" xlink:href="#DejaVuSans-31"/>
     <use x="1275.353516" xlink:href="#DejaVuSans-65"/>
     <use x="1336.876953" xlink:href="#DejaVuSans-38"/>
     <use x="1400.5" xlink:href="#DejaVuSans-63"/>
     <use x="1455.480469" xlink:href="#DejaVuSans-64"/>
     <use x="1518.957031" xlink:href="#DejaVuSans-39"/>
     <use x="1582.580078" xlink:href="#DejaVuSans-37"/>
     <use x="1646.203125" xlink:href="#DejaVuSans-38"/>
     <use x="1709.826172" xlink:href="#DejaVuSans-33"/>
     <use x="1773.449219" xlink:href="#DejaVuSans-37"/>
     <use x="1837.072266" xlink:href="#DejaVuSans-33"/>
    </g>
   </g>
  </g>
 </g>
 <defs>
  <clipPath id="pcc38b72856">
   <rect height="295.488" width="281.088" x="57.6" y="3.456"/>
  </clipPath>
 </defs>
</svg>
