<?xml version="1.0" encoding="utf-8" standalone="no"?>
<!DOCTYPE svg PUBLIC "-//W3C//DTD SVG 1.1//EN"
  "http://www.w3.org/Graphics/SVG/1.1/DTD/svg11.dtd">
<svg height="345.6pt" version="1.1" viewBox="0 0 460.8 345.6" width="460.8pt" xmlns="http://www.w3.org/2000/svg" xmlns:xlink="http://www.w3.org/1999/xlink">
 <metadata>
  <rdf:RDF xmlns:cc="http://creativecommons.org/ns#" xmlns:dc="http://purl.org/dc/elements/1.1/" xmlns:rdf="http://www.w3.org/1999/02/22-rdf-syntax-ns#">
   <cc:Work>
    <dc:type rdf:resource="http://purl.org/dc/dcmitype/StillImage"/>
    <dc:date>2022-03-29T13:08:25.250007</dc:date>
    <dc:format>image/svg+xml</dc:format>
    <dc:creator>
     <cc:Agent>
      <dc:title>Matplotlib v3.4.3, https://matplotlib.org/</dc:title>
     </cc:Agent>
    </dc:creator>
   </cc:Work>
  </rdf:RDF>
 </metadata>
 <defs>
  <style type="text/css">*{stroke-linecap:butt;stroke-linejoin:round;}</style>
 </defs>
 <g id="figure_1">
  <g id="patch_1">
   <path d="M 0 345.6 
L 460.8 345.6 
L 460.8 0 
L 0 0 
z
" style="fill:#ffffff;"/>
  </g>
  <g id="axes_1">
   <g id="patch_2">
    <path d="M 57.6 298.944 
L 338.688 298.944 
L 338.688 3.456 
L 57.6 3.456 
z
" style="fill:#ffffff;"/>
   </g>
   <g id="line2d_1">
    <path d="M 62.616969 298.944 
L 62.616969 297.682955 
L 72.376266 297.682955 
L 72.376266 296.421911 
L 76.759008 296.421911 
L 76.759008 293.899821 
L 78.59642 293.899821 
L 78.59642 292.638776 
L 84.464254 292.638776 
L 84.464254 290.116687 
L 89.78989 290.116687 
L 89.78989 287.594597 
L 90.684409 287.594597 
L 90.684409 285.072508 
L 92.34655 285.072508 
L 92.34655 283.811463 
L 95.918017 283.811463 
L 95.918017 281.289374 
L 101.412804 281.289374 
L 101.412804 276.245195 
L 108.326001 276.245195 
L 108.326001 273.723105 
L 113.26352 273.723105 
L 113.26352 272.462061 
L 115.711251 272.462061 
L 115.711251 271.201016 
L 120.571812 271.201016 
L 120.571812 269.939971 
L 122.920132 269.939971 
L 122.920132 268.678927 
L 129.290685 268.678927 
L 129.290685 264.895792 
L 135.943785 264.895792 
L 135.943785 261.112658 
L 136.645276 261.112658 
L 136.645276 257.329524 
L 140.549236 257.329524 
L 140.549236 254.807435 
L 141.47371 254.807435 
L 141.47371 251.0243 
L 148.449693 251.0243 
L 148.449693 248.502211 
L 151.923236 248.502211 
L 151.923236 245.980122 
L 160.038232 245.980122 
L 160.038232 244.719077 
L 160.961329 244.719077 
L 160.961329 242.196987 
L 161.344625 242.196987 
L 161.344625 240.935943 
L 165.849938 240.935943 
L 165.849938 239.674898 
L 168.982583 239.674898 
L 168.982583 237.152808 
L 169.654516 237.152808 
L 169.654516 234.630719 
L 170.109924 234.630719 
L 170.109924 233.369674 
L 174.174823 233.369674 
L 174.174823 230.847585 
L 178.750267 230.847585 
L 178.750267 228.325495 
L 180.351324 228.325495 
L 180.351324 224.542361 
L 183.598738 224.542361 
L 183.598738 220.759227 
L 184.993323 220.759227 
L 184.993323 216.976093 
L 188.531907 216.976093 
L 188.531907 214.454003 
L 189.268932 214.454003 
L 189.268932 211.931914 
L 193.212302 211.931914 
L 193.212302 209.409825 
L 194.592798 209.409825 
L 194.592798 206.887735 
L 197.714421 206.887735 
L 197.714421 203.104601 
L 203.656921 203.104601 
L 203.656921 200.582511 
L 204.986505 200.582511 
L 204.986505 198.060422 
L 205.907884 198.060422 
L 205.907884 196.799377 
L 208.109059 196.799377 
L 208.109059 194.277288 
L 212.457279 194.277288 
L 212.457279 191.755198 
L 215.482984 191.755198 
L 215.482984 189.233109 
L 217.007937 189.233109 
L 217.007937 186.711019 
L 217.44368 186.711019 
L 217.44368 185.449975 
L 218.180392 185.449975 
L 218.218807 180.405796 
L 219.901814 180.405796 
L 219.901814 177.883706 
L 230.014825 177.883706 
L 230.014825 176.622662 
L 233.162871 176.622662 
L 233.162871 174.100572 
L 234.717553 174.100572 
L 234.717553 170.317438 
L 238.703839 170.317438 
L 238.711022 165.273259 
L 240.74787 165.273259 
L 240.74787 161.490125 
L 242.208029 161.490125 
L 242.208029 160.22908 
L 243.623456 160.22908 
L 243.623456 158.968036 
L 247.043533 158.968036 
L 247.043533 157.706991 
L 248.384391 157.706991 
L 248.384391 153.923857 
L 248.812023 153.923857 
L 248.812023 150.140722 
L 250.938403 150.140722 
L 250.938403 146.357588 
L 251.754515 146.357588 
L 251.754515 142.574454 
L 254.100184 142.574454 
L 254.100184 140.052365 
L 258.047585 140.052365 
L 258.047585 137.530275 
L 258.19459 137.530275 
L 258.19459 135.008186 
L 260.604567 135.008186 
L 260.604567 133.747141 
L 261.276006 133.747141 
L 261.276006 132.486096 
L 262.039231 132.486096 
L 262.039231 129.964007 
L 264.44541 129.964007 
L 264.44541 126.180873 
L 264.846397 126.180873 
L 264.846397 124.919828 
L 266.875788 124.919828 
L 266.875788 123.658783 
L 269.667058 123.658783 
L 269.667058 119.875649 
L 271.143857 119.875649 
L 271.143857 118.614604 
L 272.029471 118.614604 
L 272.029471 114.83147 
L 275.31022 114.83147 
L 275.31022 111.048336 
L 276.342596 111.048336 
L 276.342596 107.265202 
L 277.136411 107.265202 
L 277.136411 106.004157 
L 279.321884 106.004157 
L 279.321884 102.221023 
L 279.694748 102.221023 
L 279.694748 100.959978 
L 281.358838 100.959978 
L 281.358838 97.176844 
L 283.293714 97.176844 
L 283.293714 94.654755 
L 284.619142 94.654755 
L 284.619142 92.132665 
L 285.319611 92.132665 
L 285.319611 90.87162 
L 285.458947 90.87162 
L 285.458947 88.349531 
L 285.617927 88.349531 
L 285.617927 85.827441 
L 286.106552 85.827441 
L 286.106552 82.044307 
L 286.611754 82.044307 
L 286.611754 80.783263 
L 289.227938 80.783263 
L 289.227938 79.522218 
L 289.43246 79.522218 
L 289.43246 77.000128 
L 289.91561 77.000128 
L 289.91662 71.955949 
L 291.297243 71.955949 
L 291.297243 69.43386 
L 291.413335 69.43386 
L 291.413335 65.650726 
L 292.422394 65.650726 
L 292.422394 63.128636 
L 292.812543 63.128636 
L 292.812543 60.606547 
L 293.79976 60.606547 
L 293.79976 59.345502 
L 294.965688 59.345502 
L 294.965688 56.823413 
L 295.606055 56.823413 
L 295.606055 53.040279 
L 296.117393 53.040279 
L 296.117393 49.257144 
L 306.967347 49.257144 
L 306.967347 47.9961 
L 313.070889 47.9961 
L 313.070889 45.47401 
L 326.008163 45.47401 
L 326.008163 41.690876 
L 338.688 41.690876 
L 338.688 41.690876 
" style="fill:none;stroke:#f5deb3;stroke-linecap:square;stroke-width:4;"/>
   </g>
   <g id="line2d_2">
    <defs>
     <path d="M 0 7.778175 
L 7.778175 0 
L 0 -7.778175 
L -7.778175 0 
z
" id="m1a93e39e16" style="stroke:#f5deb3;stroke-linejoin:miter;stroke-width:1.5;"/>
    </defs>
    <g>
     <use style="fill:#f5deb3;stroke:#f5deb3;stroke-linejoin:miter;stroke-width:1.5;" x="120.571812" xlink:href="#m1a93e39e16" y="271.201016"/>
     <use style="fill:#f5deb3;stroke:#f5deb3;stroke-linejoin:miter;stroke-width:1.5;" x="208.109059" xlink:href="#m1a93e39e16" y="194.277288"/>
     <use style="fill:#f5deb3;stroke:#f5deb3;stroke-linejoin:miter;stroke-width:1.5;" x="285.617927" xlink:href="#m1a93e39e16" y="88.349531"/>
     <use style="fill:#f5deb3;stroke:#f5deb3;stroke-linejoin:miter;stroke-width:1.5;" x="326.008163" xlink:href="#m1a93e39e16" y="41.690876"/>
     <use style="fill:#f5deb3;stroke:#f5deb3;stroke-linejoin:miter;stroke-width:1.5;" x="338.688" xlink:href="#m1a93e39e16" y="41.690876"/>
    </g>
   </g>
   <g id="line2d_3">
    <path style="fill:none;stroke:#f5deb3;stroke-linecap:square;stroke-width:4;"/>
    <g/>
   </g>
   <g id="line2d_4">
    <path d="M 338.688 41.690876 
L 369.60768 12.232871 
" style="fill:none;stroke:#f5deb3;stroke-linecap:square;stroke-width:4;"/>
    <g>
     <use style="fill:#f5deb3;stroke:#f5deb3;stroke-linejoin:miter;stroke-width:1.5;" x="338.688" xlink:href="#m1a93e39e16" y="41.690876"/>
     <use style="fill:#f5deb3;stroke:#f5deb3;stroke-linejoin:miter;stroke-width:1.5;" x="369.60768" xlink:href="#m1a93e39e16" y="12.232871"/>
    </g>
   </g>
   <g id="matplotlib.axis_1">
    <g id="xtick_1">
     <g id="line2d_5">
      <path clip-path="url(#p536a16394d)" d="M 57.6 298.944 
L 57.6 3.456 
" style="fill:none;stroke:#b0b0b0;stroke-linecap:square;stroke-width:0.8;"/>
     </g>
     <g id="line2d_6">
      <defs>
       <path d="M 0 0 
L 0 3.5 
" id="m940ef0aa75" style="stroke:#000000;stroke-width:0.8;"/>
      </defs>
      <g>
       <use style="stroke:#000000;stroke-width:0.8;" x="57.6" xlink:href="#m940ef0aa75" y="298.944"/>
      </g>
     </g>
     <g id="text_1">
      <!-- 0 -->
      <g transform="translate(51.2375 321.140875)scale(0.2 -0.2)">
       <defs>
        <path d="M 2034 4250 
Q 1547 4250 1301 3770 
Q 1056 3291 1056 2328 
Q 1056 1369 1301 889 
Q 1547 409 2034 409 
Q 2525 409 2770 889 
Q 3016 1369 3016 2328 
Q 3016 3291 2770 3770 
Q 2525 4250 2034 4250 
z
M 2034 4750 
Q 2819 4750 3233 4129 
Q 3647 3509 3647 2328 
Q 3647 1150 3233 529 
Q 2819 -91 2034 -91 
Q 1250 -91 836 529 
Q 422 1150 422 2328 
Q 422 3509 836 4129 
Q 1250 4750 2034 4750 
z
" id="DejaVuSans-30" transform="scale(0.015625)"/>
       </defs>
       <use xlink:href="#DejaVuSans-30"/>
      </g>
     </g>
    </g>
    <g id="xtick_2">
     <g id="line2d_7">
      <path clip-path="url(#p536a16394d)" d="M 137.910857 298.944 
L 137.910857 3.456 
" style="fill:none;stroke:#b0b0b0;stroke-linecap:square;stroke-width:0.8;"/>
     </g>
     <g id="line2d_8">
      <g>
       <use style="stroke:#000000;stroke-width:0.8;" x="137.910857" xlink:href="#m940ef0aa75" y="298.944"/>
      </g>
     </g>
     <g id="text_2">
      <!-- 2 -->
      <g transform="translate(131.548357 321.140875)scale(0.2 -0.2)">
       <defs>
        <path d="M 1228 531 
L 3431 531 
L 3431 0 
L 469 0 
L 469 531 
Q 828 903 1448 1529 
Q 2069 2156 2228 2338 
Q 2531 2678 2651 2914 
Q 2772 3150 2772 3378 
Q 2772 3750 2511 3984 
Q 2250 4219 1831 4219 
Q 1534 4219 1204 4116 
Q 875 4013 500 3803 
L 500 4441 
Q 881 4594 1212 4672 
Q 1544 4750 1819 4750 
Q 2544 4750 2975 4387 
Q 3406 4025 3406 3419 
Q 3406 3131 3298 2873 
Q 3191 2616 2906 2266 
Q 2828 2175 2409 1742 
Q 1991 1309 1228 531 
z
" id="DejaVuSans-32" transform="scale(0.015625)"/>
       </defs>
       <use xlink:href="#DejaVuSans-32"/>
      </g>
     </g>
    </g>
    <g id="xtick_3">
     <g id="line2d_9">
      <path clip-path="url(#p536a16394d)" d="M 218.221714 298.944 
L 218.221714 3.456 
" style="fill:none;stroke:#b0b0b0;stroke-linecap:square;stroke-width:0.8;"/>
     </g>
     <g id="line2d_10">
      <g>
       <use style="stroke:#000000;stroke-width:0.8;" x="218.221714" xlink:href="#m940ef0aa75" y="298.944"/>
      </g>
     </g>
     <g id="text_3">
      <!-- 4 -->
      <g transform="translate(211.859214 321.140875)scale(0.2 -0.2)">
       <defs>
        <path d="M 2419 4116 
L 825 1625 
L 2419 1625 
L 2419 4116 
z
M 2253 4666 
L 3047 4666 
L 3047 1625 
L 3713 1625 
L 3713 1100 
L 3047 1100 
L 3047 0 
L 2419 0 
L 2419 1100 
L 313 1100 
L 313 1709 
L 2253 4666 
z
" id="DejaVuSans-34" transform="scale(0.015625)"/>
       </defs>
       <use xlink:href="#DejaVuSans-34"/>
      </g>
     </g>
    </g>
    <g id="xtick_4">
     <g id="line2d_11">
      <path clip-path="url(#p536a16394d)" d="M 298.532571 298.944 
L 298.532571 3.456 
" style="fill:none;stroke:#b0b0b0;stroke-linecap:square;stroke-width:0.8;"/>
     </g>
     <g id="line2d_12">
      <g>
       <use style="stroke:#000000;stroke-width:0.8;" x="298.532571" xlink:href="#m940ef0aa75" y="298.944"/>
      </g>
     </g>
     <g id="text_4">
      <!-- 6 -->
      <g transform="translate(292.170071 321.140875)scale(0.2 -0.2)">
       <defs>
        <path d="M 2113 2584 
Q 1688 2584 1439 2293 
Q 1191 2003 1191 1497 
Q 1191 994 1439 701 
Q 1688 409 2113 409 
Q 2538 409 2786 701 
Q 3034 994 3034 1497 
Q 3034 2003 2786 2293 
Q 2538 2584 2113 2584 
z
M 3366 4563 
L 3366 3988 
Q 3128 4100 2886 4159 
Q 2644 4219 2406 4219 
Q 1781 4219 1451 3797 
Q 1122 3375 1075 2522 
Q 1259 2794 1537 2939 
Q 1816 3084 2150 3084 
Q 2853 3084 3261 2657 
Q 3669 2231 3669 1497 
Q 3669 778 3244 343 
Q 2819 -91 2113 -91 
Q 1303 -91 875 529 
Q 447 1150 447 2328 
Q 447 3434 972 4092 
Q 1497 4750 2381 4750 
Q 2619 4750 2861 4703 
Q 3103 4656 3366 4563 
z
" id="DejaVuSans-36" transform="scale(0.015625)"/>
       </defs>
       <use xlink:href="#DejaVuSans-36"/>
      </g>
     </g>
    </g>
    <g id="xtick_5">
     <g id="line2d_13">
      <path clip-path="url(#p536a16394d)" d="M 97.755429 298.944 
L 97.755429 3.456 
" style="fill:none;stroke:#b0b0b0;stroke-linecap:square;stroke-width:0.8;"/>
     </g>
     <g id="line2d_14">
      <defs>
       <path d="M 0 0 
L 0 2 
" id="m7c0da0354e" style="stroke:#000000;stroke-width:0.6;"/>
      </defs>
      <g>
       <use style="stroke:#000000;stroke-width:0.6;" x="97.755429" xlink:href="#m7c0da0354e" y="298.944"/>
      </g>
     </g>
    </g>
    <g id="xtick_6">
     <g id="line2d_15">
      <path clip-path="url(#p536a16394d)" d="M 178.066286 298.944 
L 178.066286 3.456 
" style="fill:none;stroke:#b0b0b0;stroke-linecap:square;stroke-width:0.8;"/>
     </g>
     <g id="line2d_16">
      <g>
       <use style="stroke:#000000;stroke-width:0.6;" x="178.066286" xlink:href="#m7c0da0354e" y="298.944"/>
      </g>
     </g>
    </g>
    <g id="xtick_7">
     <g id="line2d_17">
      <path clip-path="url(#p536a16394d)" d="M 258.377143 298.944 
L 258.377143 3.456 
" style="fill:none;stroke:#b0b0b0;stroke-linecap:square;stroke-width:0.8;"/>
     </g>
     <g id="line2d_18">
      <g>
       <use style="stroke:#000000;stroke-width:0.6;" x="258.377143" xlink:href="#m7c0da0354e" y="298.944"/>
      </g>
     </g>
    </g>
    <g id="xtick_8">
     <g id="line2d_19">
      <path clip-path="url(#p536a16394d)" d="M 338.688 298.944 
L 338.688 3.456 
" style="fill:none;stroke:#b0b0b0;stroke-linecap:square;stroke-width:0.8;"/>
     </g>
     <g id="line2d_20">
      <g>
       <use style="stroke:#000000;stroke-width:0.6;" x="338.688" xlink:href="#m7c0da0354e" y="298.944"/>
      </g>
     </g>
    </g>
    <g id="text_5">
     <!-- log10(# f-evals / dimension) -->
     <g transform="translate(77.764078 342.217594)scale(0.17 -0.17)">
      <defs>
       <path d="M 603 4863 
L 1178 4863 
L 1178 0 
L 603 0 
L 603 4863 
z
" id="DejaVuSans-6c" transform="scale(0.015625)"/>
       <path d="M 1959 3097 
Q 1497 3097 1228 2736 
Q 959 2375 959 1747 
Q 959 1119 1226 758 
Q 1494 397 1959 397 
Q 2419 397 2687 759 
Q 2956 1122 2956 1747 
Q 2956 2369 2687 2733 
Q 2419 3097 1959 3097 
z
M 1959 3584 
Q 2709 3584 3137 3096 
Q 3566 2609 3566 1747 
Q 3566 888 3137 398 
Q 2709 -91 1959 -91 
Q 1206 -91 779 398 
Q 353 888 353 1747 
Q 353 2609 779 3096 
Q 1206 3584 1959 3584 
z
" id="DejaVuSans-6f" transform="scale(0.015625)"/>
       <path d="M 2906 1791 
Q 2906 2416 2648 2759 
Q 2391 3103 1925 3103 
Q 1463 3103 1205 2759 
Q 947 2416 947 1791 
Q 947 1169 1205 825 
Q 1463 481 1925 481 
Q 2391 481 2648 825 
Q 2906 1169 2906 1791 
z
M 3481 434 
Q 3481 -459 3084 -895 
Q 2688 -1331 1869 -1331 
Q 1566 -1331 1297 -1286 
Q 1028 -1241 775 -1147 
L 775 -588 
Q 1028 -725 1275 -790 
Q 1522 -856 1778 -856 
Q 2344 -856 2625 -561 
Q 2906 -266 2906 331 
L 2906 616 
Q 2728 306 2450 153 
Q 2172 0 1784 0 
Q 1141 0 747 490 
Q 353 981 353 1791 
Q 353 2603 747 3093 
Q 1141 3584 1784 3584 
Q 2172 3584 2450 3431 
Q 2728 3278 2906 2969 
L 2906 3500 
L 3481 3500 
L 3481 434 
z
" id="DejaVuSans-67" transform="scale(0.015625)"/>
       <path d="M 794 531 
L 1825 531 
L 1825 4091 
L 703 3866 
L 703 4441 
L 1819 4666 
L 2450 4666 
L 2450 531 
L 3481 531 
L 3481 0 
L 794 0 
L 794 531 
z
" id="DejaVuSans-31" transform="scale(0.015625)"/>
       <path d="M 1984 4856 
Q 1566 4138 1362 3434 
Q 1159 2731 1159 2009 
Q 1159 1288 1364 580 
Q 1569 -128 1984 -844 
L 1484 -844 
Q 1016 -109 783 600 
Q 550 1309 550 2009 
Q 550 2706 781 3412 
Q 1013 4119 1484 4856 
L 1984 4856 
z
" id="DejaVuSans-28" transform="scale(0.015625)"/>
       <path d="M 3272 2816 
L 2363 2816 
L 2100 1772 
L 3016 1772 
L 3272 2816 
z
M 2803 4594 
L 2478 3297 
L 3391 3297 
L 3719 4594 
L 4219 4594 
L 3897 3297 
L 4872 3297 
L 4872 2816 
L 3775 2816 
L 3519 1772 
L 4513 1772 
L 4513 1294 
L 3397 1294 
L 3072 0 
L 2572 0 
L 2894 1294 
L 1978 1294 
L 1656 0 
L 1153 0 
L 1478 1294 
L 494 1294 
L 494 1772 
L 1594 1772 
L 1856 2816 
L 850 2816 
L 850 3297 
L 1978 3297 
L 2297 4594 
L 2803 4594 
z
" id="DejaVuSans-23" transform="scale(0.015625)"/>
       <path id="DejaVuSans-20" transform="scale(0.015625)"/>
       <path d="M 2375 4863 
L 2375 4384 
L 1825 4384 
Q 1516 4384 1395 4259 
Q 1275 4134 1275 3809 
L 1275 3500 
L 2222 3500 
L 2222 3053 
L 1275 3053 
L 1275 0 
L 697 0 
L 697 3053 
L 147 3053 
L 147 3500 
L 697 3500 
L 697 3744 
Q 697 4328 969 4595 
Q 1241 4863 1831 4863 
L 2375 4863 
z
" id="DejaVuSans-66" transform="scale(0.015625)"/>
       <path d="M 313 2009 
L 1997 2009 
L 1997 1497 
L 313 1497 
L 313 2009 
z
" id="DejaVuSans-2d" transform="scale(0.015625)"/>
       <path d="M 3597 1894 
L 3597 1613 
L 953 1613 
Q 991 1019 1311 708 
Q 1631 397 2203 397 
Q 2534 397 2845 478 
Q 3156 559 3463 722 
L 3463 178 
Q 3153 47 2828 -22 
Q 2503 -91 2169 -91 
Q 1331 -91 842 396 
Q 353 884 353 1716 
Q 353 2575 817 3079 
Q 1281 3584 2069 3584 
Q 2775 3584 3186 3129 
Q 3597 2675 3597 1894 
z
M 3022 2063 
Q 3016 2534 2758 2815 
Q 2500 3097 2075 3097 
Q 1594 3097 1305 2825 
Q 1016 2553 972 2059 
L 3022 2063 
z
" id="DejaVuSans-65" transform="scale(0.015625)"/>
       <path d="M 191 3500 
L 800 3500 
L 1894 563 
L 2988 3500 
L 3597 3500 
L 2284 0 
L 1503 0 
L 191 3500 
z
" id="DejaVuSans-76" transform="scale(0.015625)"/>
       <path d="M 2194 1759 
Q 1497 1759 1228 1600 
Q 959 1441 959 1056 
Q 959 750 1161 570 
Q 1363 391 1709 391 
Q 2188 391 2477 730 
Q 2766 1069 2766 1631 
L 2766 1759 
L 2194 1759 
z
M 3341 1997 
L 3341 0 
L 2766 0 
L 2766 531 
Q 2569 213 2275 61 
Q 1981 -91 1556 -91 
Q 1019 -91 701 211 
Q 384 513 384 1019 
Q 384 1609 779 1909 
Q 1175 2209 1959 2209 
L 2766 2209 
L 2766 2266 
Q 2766 2663 2505 2880 
Q 2244 3097 1772 3097 
Q 1472 3097 1187 3025 
Q 903 2953 641 2809 
L 641 3341 
Q 956 3463 1253 3523 
Q 1550 3584 1831 3584 
Q 2591 3584 2966 3190 
Q 3341 2797 3341 1997 
z
" id="DejaVuSans-61" transform="scale(0.015625)"/>
       <path d="M 2834 3397 
L 2834 2853 
Q 2591 2978 2328 3040 
Q 2066 3103 1784 3103 
Q 1356 3103 1142 2972 
Q 928 2841 928 2578 
Q 928 2378 1081 2264 
Q 1234 2150 1697 2047 
L 1894 2003 
Q 2506 1872 2764 1633 
Q 3022 1394 3022 966 
Q 3022 478 2636 193 
Q 2250 -91 1575 -91 
Q 1294 -91 989 -36 
Q 684 19 347 128 
L 347 722 
Q 666 556 975 473 
Q 1284 391 1588 391 
Q 1994 391 2212 530 
Q 2431 669 2431 922 
Q 2431 1156 2273 1281 
Q 2116 1406 1581 1522 
L 1381 1569 
Q 847 1681 609 1914 
Q 372 2147 372 2553 
Q 372 3047 722 3315 
Q 1072 3584 1716 3584 
Q 2034 3584 2315 3537 
Q 2597 3491 2834 3397 
z
" id="DejaVuSans-73" transform="scale(0.015625)"/>
       <path d="M 1625 4666 
L 2156 4666 
L 531 -594 
L 0 -594 
L 1625 4666 
z
" id="DejaVuSans-2f" transform="scale(0.015625)"/>
       <path d="M 2906 2969 
L 2906 4863 
L 3481 4863 
L 3481 0 
L 2906 0 
L 2906 525 
Q 2725 213 2448 61 
Q 2172 -91 1784 -91 
Q 1150 -91 751 415 
Q 353 922 353 1747 
Q 353 2572 751 3078 
Q 1150 3584 1784 3584 
Q 2172 3584 2448 3432 
Q 2725 3281 2906 2969 
z
M 947 1747 
Q 947 1113 1208 752 
Q 1469 391 1925 391 
Q 2381 391 2643 752 
Q 2906 1113 2906 1747 
Q 2906 2381 2643 2742 
Q 2381 3103 1925 3103 
Q 1469 3103 1208 2742 
Q 947 2381 947 1747 
z
" id="DejaVuSans-64" transform="scale(0.015625)"/>
       <path d="M 603 3500 
L 1178 3500 
L 1178 0 
L 603 0 
L 603 3500 
z
M 603 4863 
L 1178 4863 
L 1178 4134 
L 603 4134 
L 603 4863 
z
" id="DejaVuSans-69" transform="scale(0.015625)"/>
       <path d="M 3328 2828 
Q 3544 3216 3844 3400 
Q 4144 3584 4550 3584 
Q 5097 3584 5394 3201 
Q 5691 2819 5691 2113 
L 5691 0 
L 5113 0 
L 5113 2094 
Q 5113 2597 4934 2840 
Q 4756 3084 4391 3084 
Q 3944 3084 3684 2787 
Q 3425 2491 3425 1978 
L 3425 0 
L 2847 0 
L 2847 2094 
Q 2847 2600 2669 2842 
Q 2491 3084 2119 3084 
Q 1678 3084 1418 2786 
Q 1159 2488 1159 1978 
L 1159 0 
L 581 0 
L 581 3500 
L 1159 3500 
L 1159 2956 
Q 1356 3278 1631 3431 
Q 1906 3584 2284 3584 
Q 2666 3584 2933 3390 
Q 3200 3197 3328 2828 
z
" id="DejaVuSans-6d" transform="scale(0.015625)"/>
       <path d="M 3513 2113 
L 3513 0 
L 2938 0 
L 2938 2094 
Q 2938 2591 2744 2837 
Q 2550 3084 2163 3084 
Q 1697 3084 1428 2787 
Q 1159 2491 1159 1978 
L 1159 0 
L 581 0 
L 581 3500 
L 1159 3500 
L 1159 2956 
Q 1366 3272 1645 3428 
Q 1925 3584 2291 3584 
Q 2894 3584 3203 3211 
Q 3513 2838 3513 2113 
z
" id="DejaVuSans-6e" transform="scale(0.015625)"/>
       <path d="M 513 4856 
L 1013 4856 
Q 1481 4119 1714 3412 
Q 1947 2706 1947 2009 
Q 1947 1309 1714 600 
Q 1481 -109 1013 -844 
L 513 -844 
Q 928 -128 1133 580 
Q 1338 1288 1338 2009 
Q 1338 2731 1133 3434 
Q 928 4138 513 4856 
z
" id="DejaVuSans-29" transform="scale(0.015625)"/>
      </defs>
      <use xlink:href="#DejaVuSans-6c"/>
      <use x="27.783203" xlink:href="#DejaVuSans-6f"/>
      <use x="88.964844" xlink:href="#DejaVuSans-67"/>
      <use x="152.441406" xlink:href="#DejaVuSans-31"/>
      <use x="216.064453" xlink:href="#DejaVuSans-30"/>
      <use x="279.6875" xlink:href="#DejaVuSans-28"/>
      <use x="318.701172" xlink:href="#DejaVuSans-23"/>
      <use x="402.490234" xlink:href="#DejaVuSans-20"/>
      <use x="434.277344" xlink:href="#DejaVuSans-66"/>
      <use x="463.982422" xlink:href="#DejaVuSans-2d"/>
      <use x="500.066406" xlink:href="#DejaVuSans-65"/>
      <use x="561.589844" xlink:href="#DejaVuSans-76"/>
      <use x="620.769531" xlink:href="#DejaVuSans-61"/>
      <use x="682.048828" xlink:href="#DejaVuSans-6c"/>
      <use x="709.832031" xlink:href="#DejaVuSans-73"/>
      <use x="761.931641" xlink:href="#DejaVuSans-20"/>
      <use x="793.71875" xlink:href="#DejaVuSans-2f"/>
      <use x="827.410156" xlink:href="#DejaVuSans-20"/>
      <use x="859.197266" xlink:href="#DejaVuSans-64"/>
      <use x="922.673828" xlink:href="#DejaVuSans-69"/>
      <use x="950.457031" xlink:href="#DejaVuSans-6d"/>
      <use x="1047.869141" xlink:href="#DejaVuSans-65"/>
      <use x="1109.392578" xlink:href="#DejaVuSans-6e"/>
      <use x="1172.771484" xlink:href="#DejaVuSans-73"/>
      <use x="1224.871094" xlink:href="#DejaVuSans-69"/>
      <use x="1252.654297" xlink:href="#DejaVuSans-6f"/>
      <use x="1313.835938" xlink:href="#DejaVuSans-6e"/>
      <use x="1377.214844" xlink:href="#DejaVuSans-29"/>
     </g>
    </g>
   </g>
   <g id="matplotlib.axis_2">
    <g id="ytick_1">
     <g id="line2d_21">
      <path clip-path="url(#p536a16394d)" d="M 57.6 298.944 
L 338.688 298.944 
" style="fill:none;stroke:#b0b0b0;stroke-linecap:square;stroke-width:0.8;"/>
     </g>
     <g id="line2d_22">
      <defs>
       <path d="M 0 0 
L -3.5 0 
" id="m8860c2786a" style="stroke:#000000;stroke-width:0.8;"/>
      </defs>
      <g>
       <use style="stroke:#000000;stroke-width:0.8;" x="57.6" xlink:href="#m8860c2786a" y="298.944"/>
      </g>
     </g>
     <g id="text_6">
      <!-- 0.0 -->
      <g transform="translate(25.155 305.02275)scale(0.16 -0.16)">
       <defs>
        <path d="M 684 794 
L 1344 794 
L 1344 0 
L 684 0 
L 684 794 
z
" id="DejaVuSans-2e" transform="scale(0.015625)"/>
       </defs>
       <use xlink:href="#DejaVuSans-30"/>
       <use x="63.623047" xlink:href="#DejaVuSans-2e"/>
       <use x="95.410156" xlink:href="#DejaVuSans-30"/>
      </g>
     </g>
    </g>
    <g id="ytick_2">
     <g id="line2d_23">
      <path clip-path="url(#p536a16394d)" d="M 57.6 240.431525 
L 338.688 240.431525 
" style="fill:none;stroke:#b0b0b0;stroke-linecap:square;stroke-width:0.8;"/>
     </g>
     <g id="line2d_24">
      <g>
       <use style="stroke:#000000;stroke-width:0.8;" x="57.6" xlink:href="#m8860c2786a" y="240.431525"/>
      </g>
     </g>
     <g id="text_7">
      <!-- 0.2 -->
      <g transform="translate(25.155 246.510275)scale(0.16 -0.16)">
       <use xlink:href="#DejaVuSans-30"/>
       <use x="63.623047" xlink:href="#DejaVuSans-2e"/>
       <use x="95.410156" xlink:href="#DejaVuSans-32"/>
      </g>
     </g>
    </g>
    <g id="ytick_3">
     <g id="line2d_25">
      <path clip-path="url(#p536a16394d)" d="M 57.6 181.91905 
L 338.688 181.91905 
" style="fill:none;stroke:#b0b0b0;stroke-linecap:square;stroke-width:0.8;"/>
     </g>
     <g id="line2d_26">
      <g>
       <use style="stroke:#000000;stroke-width:0.8;" x="57.6" xlink:href="#m8860c2786a" y="181.91905"/>
      </g>
     </g>
     <g id="text_8">
      <!-- 0.4 -->
      <g transform="translate(25.155 187.9978)scale(0.16 -0.16)">
       <use xlink:href="#DejaVuSans-30"/>
       <use x="63.623047" xlink:href="#DejaVuSans-2e"/>
       <use x="95.410156" xlink:href="#DejaVuSans-34"/>
      </g>
     </g>
    </g>
    <g id="ytick_4">
     <g id="line2d_27">
      <path clip-path="url(#p536a16394d)" d="M 57.6 123.406574 
L 338.688 123.406574 
" style="fill:none;stroke:#b0b0b0;stroke-linecap:square;stroke-width:0.8;"/>
     </g>
     <g id="line2d_28">
      <g>
       <use style="stroke:#000000;stroke-width:0.8;" x="57.6" xlink:href="#m8860c2786a" y="123.406574"/>
      </g>
     </g>
     <g id="text_9">
      <!-- 0.6 -->
      <g transform="translate(25.155 129.485324)scale(0.16 -0.16)">
       <use xlink:href="#DejaVuSans-30"/>
       <use x="63.623047" xlink:href="#DejaVuSans-2e"/>
       <use x="95.410156" xlink:href="#DejaVuSans-36"/>
      </g>
     </g>
    </g>
    <g id="ytick_5">
     <g id="line2d_29">
      <path clip-path="url(#p536a16394d)" d="M 57.6 64.894099 
L 338.688 64.894099 
" style="fill:none;stroke:#b0b0b0;stroke-linecap:square;stroke-width:0.8;"/>
     </g>
     <g id="line2d_30">
      <g>
       <use style="stroke:#000000;stroke-width:0.8;" x="57.6" xlink:href="#m8860c2786a" y="64.894099"/>
      </g>
     </g>
     <g id="text_10">
      <!-- 0.8 -->
      <g transform="translate(25.155 70.972849)scale(0.16 -0.16)">
       <defs>
        <path d="M 2034 2216 
Q 1584 2216 1326 1975 
Q 1069 1734 1069 1313 
Q 1069 891 1326 650 
Q 1584 409 2034 409 
Q 2484 409 2743 651 
Q 3003 894 3003 1313 
Q 3003 1734 2745 1975 
Q 2488 2216 2034 2216 
z
M 1403 2484 
Q 997 2584 770 2862 
Q 544 3141 544 3541 
Q 544 4100 942 4425 
Q 1341 4750 2034 4750 
Q 2731 4750 3128 4425 
Q 3525 4100 3525 3541 
Q 3525 3141 3298 2862 
Q 3072 2584 2669 2484 
Q 3125 2378 3379 2068 
Q 3634 1759 3634 1313 
Q 3634 634 3220 271 
Q 2806 -91 2034 -91 
Q 1263 -91 848 271 
Q 434 634 434 1313 
Q 434 1759 690 2068 
Q 947 2378 1403 2484 
z
M 1172 3481 
Q 1172 3119 1398 2916 
Q 1625 2713 2034 2713 
Q 2441 2713 2670 2916 
Q 2900 3119 2900 3481 
Q 2900 3844 2670 4047 
Q 2441 4250 2034 4250 
Q 1625 4250 1398 4047 
Q 1172 3844 1172 3481 
z
" id="DejaVuSans-38" transform="scale(0.015625)"/>
       </defs>
       <use xlink:href="#DejaVuSans-30"/>
       <use x="63.623047" xlink:href="#DejaVuSans-2e"/>
       <use x="95.410156" xlink:href="#DejaVuSans-38"/>
      </g>
     </g>
    </g>
    <g id="ytick_6">
     <g id="line2d_31">
      <path clip-path="url(#p536a16394d)" d="M 57.6 6.381624 
L 338.688 6.381624 
" style="fill:none;stroke:#b0b0b0;stroke-linecap:square;stroke-width:0.8;"/>
     </g>
     <g id="line2d_32">
      <g>
       <use style="stroke:#000000;stroke-width:0.8;" x="57.6" xlink:href="#m8860c2786a" y="6.381624"/>
      </g>
     </g>
     <g id="text_11">
      <!-- 1.0 -->
      <g transform="translate(25.155 12.460374)scale(0.16 -0.16)">
       <use xlink:href="#DejaVuSans-31"/>
       <use x="63.623047" xlink:href="#DejaVuSans-2e"/>
       <use x="95.410156" xlink:href="#DejaVuSans-30"/>
      </g>
     </g>
    </g>
    <g id="text_12">
     <!-- Fraction of function,target pairs -->
     <g transform="translate(17.619531 285.585)rotate(-90)scale(0.17 -0.17)">
      <defs>
       <path d="M 628 4666 
L 3309 4666 
L 3309 4134 
L 1259 4134 
L 1259 2759 
L 3109 2759 
L 3109 2228 
L 1259 2228 
L 1259 0 
L 628 0 
L 628 4666 
z
" id="DejaVuSans-46" transform="scale(0.015625)"/>
       <path d="M 2631 2963 
Q 2534 3019 2420 3045 
Q 2306 3072 2169 3072 
Q 1681 3072 1420 2755 
Q 1159 2438 1159 1844 
L 1159 0 
L 581 0 
L 581 3500 
L 1159 3500 
L 1159 2956 
Q 1341 3275 1631 3429 
Q 1922 3584 2338 3584 
Q 2397 3584 2469 3576 
Q 2541 3569 2628 3553 
L 2631 2963 
z
" id="DejaVuSans-72" transform="scale(0.015625)"/>
       <path d="M 3122 3366 
L 3122 2828 
Q 2878 2963 2633 3030 
Q 2388 3097 2138 3097 
Q 1578 3097 1268 2742 
Q 959 2388 959 1747 
Q 959 1106 1268 751 
Q 1578 397 2138 397 
Q 2388 397 2633 464 
Q 2878 531 3122 666 
L 3122 134 
Q 2881 22 2623 -34 
Q 2366 -91 2075 -91 
Q 1284 -91 818 406 
Q 353 903 353 1747 
Q 353 2603 823 3093 
Q 1294 3584 2113 3584 
Q 2378 3584 2631 3529 
Q 2884 3475 3122 3366 
z
" id="DejaVuSans-63" transform="scale(0.015625)"/>
       <path d="M 1172 4494 
L 1172 3500 
L 2356 3500 
L 2356 3053 
L 1172 3053 
L 1172 1153 
Q 1172 725 1289 603 
Q 1406 481 1766 481 
L 2356 481 
L 2356 0 
L 1766 0 
Q 1100 0 847 248 
Q 594 497 594 1153 
L 594 3053 
L 172 3053 
L 172 3500 
L 594 3500 
L 594 4494 
L 1172 4494 
z
" id="DejaVuSans-74" transform="scale(0.015625)"/>
       <path d="M 544 1381 
L 544 3500 
L 1119 3500 
L 1119 1403 
Q 1119 906 1312 657 
Q 1506 409 1894 409 
Q 2359 409 2629 706 
Q 2900 1003 2900 1516 
L 2900 3500 
L 3475 3500 
L 3475 0 
L 2900 0 
L 2900 538 
Q 2691 219 2414 64 
Q 2138 -91 1772 -91 
Q 1169 -91 856 284 
Q 544 659 544 1381 
z
M 1991 3584 
L 1991 3584 
z
" id="DejaVuSans-75" transform="scale(0.015625)"/>
       <path d="M 750 794 
L 1409 794 
L 1409 256 
L 897 -744 
L 494 -744 
L 750 256 
L 750 794 
z
" id="DejaVuSans-2c" transform="scale(0.015625)"/>
       <path d="M 1159 525 
L 1159 -1331 
L 581 -1331 
L 581 3500 
L 1159 3500 
L 1159 2969 
Q 1341 3281 1617 3432 
Q 1894 3584 2278 3584 
Q 2916 3584 3314 3078 
Q 3713 2572 3713 1747 
Q 3713 922 3314 415 
Q 2916 -91 2278 -91 
Q 1894 -91 1617 61 
Q 1341 213 1159 525 
z
M 3116 1747 
Q 3116 2381 2855 2742 
Q 2594 3103 2138 3103 
Q 1681 3103 1420 2742 
Q 1159 2381 1159 1747 
Q 1159 1113 1420 752 
Q 1681 391 2138 391 
Q 2594 391 2855 752 
Q 3116 1113 3116 1747 
z
" id="DejaVuSans-70" transform="scale(0.015625)"/>
      </defs>
      <use xlink:href="#DejaVuSans-46"/>
      <use x="50.269531" xlink:href="#DejaVuSans-72"/>
      <use x="91.382812" xlink:href="#DejaVuSans-61"/>
      <use x="152.662109" xlink:href="#DejaVuSans-63"/>
      <use x="207.642578" xlink:href="#DejaVuSans-74"/>
      <use x="246.851562" xlink:href="#DejaVuSans-69"/>
      <use x="274.634766" xlink:href="#DejaVuSans-6f"/>
      <use x="335.816406" xlink:href="#DejaVuSans-6e"/>
      <use x="399.195312" xlink:href="#DejaVuSans-20"/>
      <use x="430.982422" xlink:href="#DejaVuSans-6f"/>
      <use x="492.164062" xlink:href="#DejaVuSans-66"/>
      <use x="527.369141" xlink:href="#DejaVuSans-20"/>
      <use x="559.15625" xlink:href="#DejaVuSans-66"/>
      <use x="594.361328" xlink:href="#DejaVuSans-75"/>
      <use x="657.740234" xlink:href="#DejaVuSans-6e"/>
      <use x="721.119141" xlink:href="#DejaVuSans-63"/>
      <use x="776.099609" xlink:href="#DejaVuSans-74"/>
      <use x="815.308594" xlink:href="#DejaVuSans-69"/>
      <use x="843.091797" xlink:href="#DejaVuSans-6f"/>
      <use x="904.273438" xlink:href="#DejaVuSans-6e"/>
      <use x="967.652344" xlink:href="#DejaVuSans-2c"/>
      <use x="999.439453" xlink:href="#DejaVuSans-74"/>
      <use x="1038.648438" xlink:href="#DejaVuSans-61"/>
      <use x="1099.927734" xlink:href="#DejaVuSans-72"/>
      <use x="1139.291016" xlink:href="#DejaVuSans-67"/>
      <use x="1202.767578" xlink:href="#DejaVuSans-65"/>
      <use x="1264.291016" xlink:href="#DejaVuSans-74"/>
      <use x="1303.5" xlink:href="#DejaVuSans-20"/>
      <use x="1335.287109" xlink:href="#DejaVuSans-70"/>
      <use x="1398.763672" xlink:href="#DejaVuSans-61"/>
      <use x="1460.042969" xlink:href="#DejaVuSans-69"/>
      <use x="1487.826172" xlink:href="#DejaVuSans-72"/>
      <use x="1528.939453" xlink:href="#DejaVuSans-73"/>
     </g>
    </g>
   </g>
   <g id="line2d_33">
    <defs>
     <path d="M 0 1.5 
C 0.397805 1.5 0.77937 1.341951 1.06066 1.06066 
C 1.341951 0.77937 1.5 0.397805 1.5 0 
C 1.5 -0.397805 1.341951 -0.77937 1.06066 -1.06066 
C 0.77937 -1.341951 0.397805 -1.5 0 -1.5 
C -0.397805 -1.5 -0.77937 -1.341951 -1.06066 -1.06066 
C -1.341951 -0.77937 -1.5 -0.397805 -1.5 0 
C -1.5 0.397805 -1.341951 0.77937 -1.06066 1.06066 
C -0.77937 1.341951 -0.397805 1.5 0 1.5 
z
" id="md08e27ba6c" style="stroke:#f5deb3;"/>
    </defs>
    <g>
     <use style="fill:#f5deb3;stroke:#f5deb3;" x="326.008163" xlink:href="#md08e27ba6c" y="41.690876"/>
     <use style="fill:#f5deb3;stroke:#f5deb3;" x="326.008163" xlink:href="#md08e27ba6c" y="41.690876"/>
    </g>
   </g>
   <g id="line2d_34">
    <defs>
     <path d="M 0 1.5 
C 0.397805 1.5 0.77937 1.341951 1.06066 1.06066 
C 1.341951 0.77937 1.5 0.397805 1.5 0 
C 1.5 -0.397805 1.341951 -0.77937 1.06066 -1.06066 
C 0.77937 -1.341951 0.397805 -1.5 0 -1.5 
C -0.397805 -1.5 -0.77937 -1.341951 -1.06066 -1.06066 
C -1.341951 -0.77937 -1.5 -0.397805 -1.5 0 
C -1.5 0.397805 -1.341951 0.77937 -1.06066 1.06066 
C -0.77937 1.341951 -0.397805 1.5 0 1.5 
z
" id="m780361e304" style="stroke:#000080;"/>
    </defs>
    <g>
     <use style="fill:#000080;stroke:#000080;" x="229.212697" xlink:href="#m780361e304" y="232.865256"/>
     <use style="fill:#000080;stroke:#000080;" x="229.212697" xlink:href="#m780361e304" y="232.865256"/>
    </g>
   </g>
   <g id="line2d_35">
    <path d="M 38.440992 298.944 
L 38.440992 289.612269 
L 66.508432 289.612269 
L 66.508432 288.477329 
L 69.687988 288.477329 
L 69.687988 288.22512 
L 72.376266 288.22512 
L 72.376266 287.468493 
L 74.704957 287.468493 
L 74.704957 285.955239 
L 76.759008 285.955239 
L 76.759008 285.70303 
L 78.59642 285.70303 
L 78.59642 284.946404 
L 80.258561 284.946404 
L 80.258561 284.694195 
L 83.171864 284.694195 
L 83.171864 284.063672 
L 84.464254 284.063672 
L 84.464254 283.43315 
L 85.66744 283.43315 
L 85.66744 282.046001 
L 86.792945 282.046001 
L 86.792945 281.541583 
L 87.850195 281.541583 
L 87.850195 280.784956 
L 88.846997 280.784956 
L 88.846997 280.028329 
L 89.78989 280.028329 
L 89.78989 279.397807 
L 90.684409 279.397807 
L 90.684409 279.019493 
L 91.535274 279.019493 
L 91.535274 278.893389 
L 92.34655 278.893389 
L 92.34655 278.515075 
L 93.121756 278.515075 
L 93.121756 278.010658 
L 93.863965 278.010658 
L 93.863965 277.758449 
L 94.575872 277.758449 
L 94.575872 277.632344 
L 95.259853 277.632344 
L 95.259853 276.497404 
L 95.918017 276.497404 
L 95.918017 274.98415 
L 96.552242 274.98415 
L 96.552242 274.605837 
L 97.16421 274.605837 
L 97.16421 274.101419 
L 98.32726 274.101419 
L 98.32726 273.723105 
L 98.880934 273.723105 
L 98.880934 273.344792 
L 99.41757 273.344792 
L 99.41757 272.71427 
L 99.938184 272.71427 
L 99.938184 272.335956 
L 100.443706 272.335956 
L 100.443706 272.209852 
L 100.934985 272.209852 
L 100.934985 271.831538 
L 101.412804 271.831538 
L 101.412804 270.822703 
L 101.877879 270.822703 
L 101.877879 270.318285 
L 102.330873 270.318285 
L 102.330873 270.19218 
L 102.772397 270.19218 
L 102.772397 270.066076 
L 103.203018 270.066076 
L 103.203018 269.561658 
L 103.623262 269.561658 
L 103.623262 269.183344 
L 104.033617 269.183344 
L 104.033617 269.05724 
L 104.434538 269.05724 
L 104.434538 268.552822 
L 104.826449 268.552822 
L 104.826449 268.048404 
L 105.209745 268.048404 
L 105.209745 267.670091 
L 105.584798 267.670091 
L 105.584798 267.543986 
L 106.311539 267.543986 
L 106.311539 267.165673 
L 106.66386 267.165673 
L 106.66386 267.039568 
L 107.009204 267.039568 
L 107.009204 266.156837 
L 107.347841 266.156837 
L 107.347841 265.526315 
L 107.680028 265.526315 
L 107.680028 265.40021 
L 108.006005 265.40021 
L 108.006005 265.148001 
L 108.326001 265.148001 
L 108.326001 264.769688 
L 108.640231 264.769688 
L 108.640231 264.139166 
L 109.550313 264.139166 
L 109.550313 264.013061 
L 110.131676 264.013061 
L 110.131676 263.634748 
L 110.415248 263.634748 
L 110.415248 263.13033 
L 110.694282 263.13033 
L 110.694282 262.878121 
L 111.767808 262.878121 
L 111.767808 262.625912 
L 112.026172 262.625912 
L 112.026172 262.373703 
L 112.531694 262.373703 
L 112.531694 262.247598 
L 112.779064 262.247598 
L 112.779064 261.869285 
L 113.022974 261.869285 
L 113.022974 261.364867 
L 113.26352 261.364867 
L 113.26352 261.238763 
L 113.500792 261.238763 
L 113.500792 260.986554 
L 113.73488 260.986554 
L 113.73488 260.860449 
L 114.641021 260.860449 
L 114.641021 260.734345 
L 115.077025 260.734345 
L 115.077025 260.60824 
L 115.291007 260.60824 
L 115.291007 259.851614 
L 115.917635 259.851614 
L 115.917635 259.4733 
L 116.121606 259.4733 
L 116.121606 258.968882 
L 116.522527 258.968882 
L 116.522527 258.842778 
L 116.914437 258.842778 
L 116.914437 258.590569 
L 117.107138 258.590569 
L 117.107138 258.33836 
L 117.486268 258.33836 
L 117.486268 258.212255 
L 117.672786 258.212255 
L 117.672786 258.086151 
L 117.857331 258.086151 
L 117.857331 257.833942 
L 118.039942 257.833942 
L 118.039942 257.707837 
L 118.399528 257.707837 
L 118.399528 257.455629 
L 118.751849 257.455629 
L 118.751849 257.329524 
L 118.925375 257.329524 
L 118.925375 256.951211 
L 119.267333 256.951211 
L 119.267333 256.572897 
L 119.43583 256.572897 
L 119.43583 256.320688 
L 120.093994 256.320688 
L 120.093994 256.068479 
L 121.036887 256.068479 
L 121.036887 255.942375 
L 121.638301 255.942375 
L 121.638301 255.81627 
L 121.931406 255.81627 
L 121.931406 255.690166 
L 122.076131 255.690166 
L 122.076131 255.564061 
L 122.643312 255.564061 
L 122.643312 255.437957 
L 122.920132 255.437957 
L 122.920132 255.185748 
L 123.056911 255.185748 
L 123.056911 254.807435 
L 123.460928 254.807435 
L 123.460928 254.68133 
L 124.114161 254.68133 
L 124.114161 254.555226 
L 124.368753 254.555226 
L 124.368753 254.303017 
L 125.822869 254.303017 
L 125.822869 254.176912 
L 126.50685 254.176912 
L 126.50685 253.924703 
L 126.729009 253.924703 
L 126.729009 253.672494 
L 126.948374 253.672494 
L 126.948374 253.54639 
L 127.48501 253.54639 
L 127.48501 253.294181 
L 128.209594 253.294181 
L 128.310692 252.915868 
L 128.610515 252.915868 
L 128.610515 252.789763 
L 130.127931 252.789763 
L 130.127931 252.663659 
L 130.30865 252.663659 
L 130.30865 252.537554 
L 131.185181 252.537554 
L 131.185181 252.285345 
L 131.856005 252.285345 
L 131.856005 252.159241 
L 134.870259 252.159241 
L 134.870259 252.033136 
L 135.076644 252.033136 
L 135.076644 251.907032 
L 135.212889 251.907032 
L 135.212889 251.780927 
L 135.747468 251.780927 
L 135.747468 251.654823 
L 136.073445 251.654823 
L 136.073445 251.402614 
L 136.456742 251.402614 
L 136.519813 251.150405 
L 136.707671 251.150405 
L 136.707671 251.0243 
L 136.831795 251.0243 
L 136.831795 250.772091 
L 137.198951 250.772091 
L 137.259399 250.519883 
L 137.558536 250.519883 
L 137.558536 250.393778 
L 138.141844 250.393778 
L 138.141844 250.015465 
L 138.872098 250.015465 
L 138.872098 249.763256 
L 140.44901 249.763256 
L 140.44901 249.637151 
L 141.138789 249.637151 
L 141.138789 249.384942 
L 141.941279 249.384942 
L 141.941279 249.258838 
L 142.884173 249.258838 
L 142.884173 249.132733 
L 144.669057 249.132733 
L 144.669057 249.006629 
L 144.787023 249.006629 
L 144.865226 248.75442 
L 145.591172 248.75442 
L 145.591172 248.628315 
L 146.923612 248.628315 
L 146.923612 248.502211 
L 150.822008 248.502211 
L 150.822008 248.250002 
L 151.124351 248.250002 
L 151.205907 247.745584 
L 152.207228 247.745584 
L 152.207228 247.493375 
L 154.81851 247.493375 
L 154.81851 247.241166 
L 156.031982 247.241166 
L 156.031982 247.115062 
L 157.108577 247.115062 
L 157.108577 246.862853 
L 157.58535 246.862853 
L 157.58535 246.610644 
L 158.159001 246.610644 
L 158.177196 246.23233 
L 160.054568 246.23233 
L 160.054568 246.106226 
L 161.999419 246.106226 
L 161.999419 245.980122 
L 164.800007 245.980122 
L 164.800007 245.727913 
L 169.011918 245.727913 
L 169.011918 245.601808 
L 169.340971 245.601808 
L 169.340971 245.349599 
L 169.906925 245.349599 
L 169.906925 245.223495 
L 175.225232 245.223495 
L 175.279879 244.971286 
L 178.621232 244.971286 
L 178.621232 244.719077 
L 180.2131 244.719077 
L 180.305371 244.466868 
L 180.346224 244.466868 
L 180.346224 244.340763 
L 180.614487 244.340763 
L 180.614487 244.088554 
L 182.389504 244.088554 
L 182.389504 243.96245 
L 183.636792 243.96245 
L 183.636792 243.710241 
L 183.754654 243.710241 
L 183.754654 243.584137 
L 184.538067 243.584137 
L 184.538067 243.331928 
L 185.352989 243.331928 
L 185.440806 242.953614 
L 185.543334 242.953614 
L 185.543334 242.701405 
L 185.656552 242.701405 
L 185.656552 242.449196 
L 185.991862 242.449196 
L 185.991862 242.323092 
L 187.401936 242.323092 
L 187.401936 242.070883 
L 188.387767 242.070883 
L 188.387767 241.944778 
L 188.819801 241.944778 
L 188.819801 241.818674 
L 189.103018 241.818674 
L 189.103018 241.566465 
L 189.472618 241.566465 
L 189.472618 241.440361 
L 189.632075 241.440361 
L 189.632075 241.314256 
L 189.843426 241.314256 
L 189.843426 241.188152 
L 191.271603 241.188152 
L 191.271603 241.062047 
L 193.331409 241.062047 
L 193.374959 240.683734 
L 193.6768 240.683734 
L 193.6768 240.557629 
L 195.355558 240.557629 
L 195.355558 240.431525 
L 195.806947 240.431525 
L 195.806947 240.30542 
L 196.168892 240.30542 
L 196.168892 240.179316 
L 197.787747 240.179316 
L 197.877573 239.927107 
L 199.568028 239.927107 
L 199.568028 239.801002 
L 201.667573 239.801002 
L 201.667573 239.674898 
L 202.290155 239.674898 
L 202.361026 239.17048 
L 203.215877 239.17048 
L 203.247459 238.918271 
L 204.864394 238.918271 
L 204.864394 238.792167 
L 205.330753 238.792167 
L 205.330753 238.539958 
L 206.32911 238.539958 
L 206.32911 238.287749 
L 206.440272 238.287749 
L 206.440272 238.161644 
L 207.307123 238.161644 
L 207.336447 237.783331 
L 208.723066 237.783331 
L 208.723066 237.657226 
L 209.683305 237.657226 
L 209.683305 237.405017 
L 209.905729 237.405017 
L 209.905729 237.152808 
L 210.518535 237.152808 
L 210.518535 237.026704 
L 211.016771 237.026704 
L 211.016771 236.774495 
L 211.182927 236.774495 
L 211.182927 236.648391 
L 211.4481 236.648391 
L 211.4481 236.522286 
L 213.319852 236.522286 
L 213.319852 236.270077 
L 213.807303 236.270077 
L 213.807303 236.017868 
L 214.288784 236.017868 
L 214.288784 235.765659 
L 214.637797 235.765659 
L 214.637797 235.639555 
L 214.919653 235.639555 
L 214.919653 235.51345 
L 215.915596 235.51345 
L 215.915596 235.387346 
L 216.239669 235.387346 
L 216.239669 235.261241 
L 217.388279 235.261241 
L 217.388279 235.009032 
L 218.785105 235.009032 
L 218.785105 234.882928 
L 219.036002 234.882928 
L 219.036002 234.630719 
L 221.071674 234.630719 
L 221.099297 234.252406 
L 221.663304 234.252406 
L 221.663304 234.126301 
L 222.993692 234.126301 
L 222.993692 234.000197 
L 225.033097 234.000197 
L 225.033097 233.747988 
L 226.102953 233.747988 
L 226.102953 233.495779 
L 228.475843 233.495779 
L 228.475843 233.369674 
L 228.618938 233.369674 
L 228.618938 233.117465 
L 229.212697 233.117465 
L 229.212697 232.865256 
L 338.688 232.865256 
L 338.688 232.865256 
" style="fill:none;stroke:#000080;stroke-linecap:square;stroke-width:1.5;"/>
   </g>
   <g id="line2d_36">
    <defs>
     <path d="M 0 6 
C 1.591219 6 3.117479 5.367802 4.242641 4.242641 
C 5.367802 3.117479 6 1.591219 6 0 
C 6 -1.591219 5.367802 -3.117479 4.242641 -4.242641 
C 3.117479 -5.367802 1.591219 -6 0 -6 
C -1.591219 -6 -3.117479 -5.367802 -4.242641 -4.242641 
C -5.367802 -3.117479 -6 -1.591219 -6 0 
C -6 1.591219 -5.367802 3.117479 -4.242641 4.242641 
C -3.117479 5.367802 -1.591219 6 0 6 
z
" id="mdab159ebb2" style="stroke:#000080;stroke-width:1.5;"/>
    </defs>
    <g>
     <use style="fill-opacity:0;stroke:#000080;stroke-width:1.5;" x="130.30865" xlink:href="#mdab159ebb2" y="252.537554"/>
     <use style="fill-opacity:0;stroke:#000080;stroke-width:1.5;" x="211.4481" xlink:href="#mdab159ebb2" y="236.648391"/>
     <use style="fill-opacity:0;stroke:#000080;stroke-width:1.5;" x="229.212697" xlink:href="#mdab159ebb2" y="233.117465"/>
     <use style="fill-opacity:0;stroke:#000080;stroke-width:1.5;" x="229.212697" xlink:href="#mdab159ebb2" y="232.865256"/>
     <use style="fill-opacity:0;stroke:#000080;stroke-width:1.5;" x="338.688" xlink:href="#mdab159ebb2" y="232.865256"/>
    </g>
   </g>
   <g id="line2d_37">
    <path style="fill:none;stroke:#000080;stroke-linecap:square;stroke-width:1.5;"/>
    <g/>
   </g>
   <g id="line2d_38">
    <path clip-path="url(#p536a16394d)" d="M 235.892243 232.865256 
" style="fill:none;stroke:#000080;stroke-linecap:square;stroke-width:1.5;"/>
    <defs>
     <path d="M -12 12 
L 12 -12 
M -12 -12 
L 12 12 
" id="m09a3b4cdd3" style="stroke:#000080;"/>
    </defs>
    <g clip-path="url(#p536a16394d)">
     <use style="fill:#000080;stroke:#000080;" x="235.892243" xlink:href="#m09a3b4cdd3" y="232.865256"/>
    </g>
   </g>
   <g id="line2d_39">
    <defs>
     <path d="M 0 1.5 
C 0.397805 1.5 0.77937 1.341951 1.06066 1.06066 
C 1.341951 0.77937 1.5 0.397805 1.5 0 
C 1.5 -0.397805 1.341951 -0.77937 1.06066 -1.06066 
C 0.77937 -1.341951 0.397805 -1.5 0 -1.5 
C -0.397805 -1.5 -0.77937 -1.341951 -1.06066 -1.06066 
C -1.341951 -0.77937 -1.5 -0.397805 -1.5 0 
C -1.5 0.397805 -1.341951 0.77937 -1.06066 1.06066 
C -0.77937 1.341951 -0.397805 1.5 0 1.5 
z
" id="m5966aa1240" style="stroke:#ff00ff;"/>
    </defs>
    <g>
     <use style="fill:#ff00ff;stroke:#ff00ff;" x="234.117489" xlink:href="#m5966aa1240" y="202.095765"/>
     <use style="fill:#ff00ff;stroke:#ff00ff;" x="234.117489" xlink:href="#m5966aa1240" y="202.095765"/>
    </g>
   </g>
   <g id="line2d_40">
    <path d="M 66.508432 298.944 
L 66.508432 292.260463 
L 72.376266 292.260463 
L 72.376266 291.88215 
L 98.32726 291.88215 
L 98.32726 291.756045 
L 100.934985 291.756045 
L 100.934985 290.999418 
L 101.412804 290.999418 
L 101.412804 290.747209 
L 102.772397 290.747209 
L 102.772397 290.621105 
L 103.203018 290.621105 
L 103.203018 290.116687 
L 103.623262 290.116687 
L 103.623262 289.990582 
L 106.311539 289.990582 
L 106.311539 289.864478 
L 106.66386 289.864478 
L 106.66386 289.738374 
L 107.680028 289.738374 
L 107.680028 289.36006 
L 108.326001 289.36006 
L 108.326001 288.477329 
L 109.252198 288.477329 
L 109.252198 288.22512 
L 109.550313 288.22512 
L 109.550313 288.099015 
L 109.843417 288.099015 
L 109.843417 287.846806 
L 110.415248 287.846806 
L 110.415248 287.720702 
L 111.505558 287.720702 
L 111.505558 287.216284 
L 111.767808 287.216284 
L 111.767808 287.09018 
L 112.531694 287.09018 
L 112.531694 286.837971 
L 112.779064 286.837971 
L 112.779064 286.711866 
L 113.022974 286.711866 
L 113.022974 286.585762 
L 113.26352 286.585762 
L 113.26352 286.459657 
L 113.500792 286.459657 
L 113.500792 285.955239 
L 114.418861 285.955239 
L 114.418861 285.70303 
L 114.641021 285.70303 
L 114.641021 285.576926 
L 115.077025 285.576926 
L 115.077025 285.450821 
L 115.291007 285.450821 
L 115.291007 285.072508 
L 115.502395 285.072508 
L 115.502395 284.694195 
L 115.711251 284.694195 
L 115.711251 284.56809 
L 116.522527 284.56809 
L 116.522527 284.441986 
L 116.719583 284.441986 
L 116.719583 284.315881 
L 118.039942 284.315881 
L 118.039942 284.189777 
L 118.399528 284.189777 
L 118.399528 283.811463 
L 118.576578 283.811463 
L 118.576578 283.180941 
L 119.097192 283.180941 
L 119.097192 283.054836 
L 119.267333 283.054836 
L 119.267333 282.928732 
L 119.43583 282.928732 
L 119.43583 282.676523 
L 119.602714 282.676523 
L 119.602714 282.550419 
L 119.931767 282.550419 
L 119.931767 282.29821 
L 120.254726 282.29821 
L 120.254726 282.172105 
L 120.883236 282.172105 
L 120.883236 281.793792 
L 121.036887 281.793792 
L 121.036887 281.415478 
L 121.340187 281.415478 
L 121.340187 280.658851 
L 121.489881 280.658851 
L 121.489881 280.532747 
L 121.638301 280.532747 
L 121.638301 280.280538 
L 121.785469 280.280538 
L 121.785469 280.154434 
L 121.931406 280.154434 
L 121.931406 279.523911 
L 122.362027 279.523911 
L 122.362027 279.397807 
L 122.643312 279.397807 
L 122.643312 279.271702 
L 123.056911 279.271702 
L 123.056911 279.019493 
L 123.192626 279.019493 
L 123.192626 278.893389 
L 123.593547 278.893389 
L 123.593547 278.136762 
L 123.985457 278.136762 
L 123.985457 278.010658 
L 124.368753 278.010658 
L 124.368753 277.758449 
L 125.110962 277.758449 
L 125.110962 277.380135 
L 125.351508 277.380135 
L 125.351508 277.254031 
L 125.822869 277.254031 
L 125.822869 276.875717 
L 125.938745 276.875717 
L 125.938745 276.371299 
L 126.053856 276.371299 
L 126.053856 276.11909 
L 126.281824 276.11909 
L 126.281824 275.992986 
L 126.3947 275.992986 
L 126.3947 275.866882 
L 126.729009 275.866882 
L 126.839037 274.731941 
L 127.05703 274.731941 
L 127.165014 274.353628 
L 127.902737 274.353628 
L 127.902737 274.101419 
L 128.107907 274.101419 
L 128.209594 273.723105 
L 128.310692 273.723105 
L 128.310692 273.597001 
L 128.905271 273.597001 
L 128.905271 273.344792 
L 129.195127 273.344792 
L 129.195127 273.092583 
L 129.385722 273.092583 
L 129.385722 272.840374 
L 129.574256 272.840374 
L 129.574256 272.588165 
L 129.853291 272.588165 
L 129.853291 272.462061 
L 130.398313 272.462061 
L 130.398313 272.335956 
L 130.576266 272.335956 
L 130.576266 271.957643 
L 131.185181 271.957643 
L 131.270459 271.579329 
L 131.439773 271.579329 
L 131.439773 271.327121 
L 131.690703 271.327121 
L 131.690703 271.074912 
L 131.938072 271.074912 
L 131.938072 270.570494 
L 132.181982 270.570494 
L 132.181982 270.444389 
L 132.422528 270.444389 
L 132.501978 269.687762 
L 132.659801 269.687762 
L 132.659801 269.309449 
L 132.816208 269.309449 
L 132.816208 269.183344 
L 132.971225 269.183344 
L 132.971225 268.805031 
L 133.277185 268.805031 
L 133.277185 268.678927 
L 133.428175 268.678927 
L 133.428175 268.300613 
L 133.57787 268.300613 
L 133.652238 267.9223 
L 133.800029 267.9223 
L 133.873458 267.670091 
L 134.019394 267.670091 
L 134.019394 267.543986 
L 134.236034 267.543986 
L 134.236034 267.417882 
L 134.37898 267.417882 
L 134.37898 267.165673 
L 134.661403 267.165673 
L 134.661403 267.039568 
L 134.870259 267.039568 
L 134.870259 266.913464 
L 135.076644 266.913464 
L 135.076644 266.78736 
L 135.482227 266.78736 
L 135.482227 266.535151 
L 135.615352 266.535151 
L 135.615352 266.409046 
L 135.878591 266.409046 
L 135.943785 266.156837 
L 136.32991 266.156837 
L 136.32991 266.030733 
L 136.456742 266.030733 
L 136.456742 265.904628 
L 136.645276 265.904628 
L 136.645276 265.652419 
L 136.893527 265.652419 
L 136.893527 265.526315 
L 137.077422 265.526315 
L 137.138292 265.274106 
L 137.37967 265.274106 
L 137.439497 265.021897 
L 137.499118 265.021897 
L 137.499118 264.769688 
L 137.676769 264.769688 
L 137.676769 264.643583 
L 137.910857 264.643583 
L 137.968891 264.013061 
L 138.141844 264.013061 
L 138.141844 263.886957 
L 138.313099 263.886957 
L 138.369812 263.508643 
L 138.538853 263.508643 
L 138.538853 263.382539 
L 138.872098 263.382539 
L 138.872098 263.256434 
L 139.036363 263.256434 
L 139.036363 263.13033 
L 139.306744 263.13033 
L 139.306744 263.004225 
L 139.520072 263.004225 
L 139.520072 262.878121 
L 139.939053 262.878121 
L 139.939053 262.752016 
L 140.093612 262.752016 
L 140.093612 262.625912 
L 140.39868 262.625912 
L 140.499195 261.99539 
L 140.599134 261.99539 
L 140.599134 261.869285 
L 140.944478 261.869285 
L 140.944478 261.490972 
L 141.615302 261.490972 
L 141.615302 261.364867 
L 141.895083 261.364867 
L 141.895083 260.986554 
L 142.170445 260.986554 
L 142.215919 260.482136 
L 142.396639 260.482136 
L 142.396639 260.229927 
L 142.664255 260.229927 
L 142.664255 260.103822 
L 142.796538 260.103822 
L 142.796538 259.977718 
L 143.40093 259.977718 
L 143.40093 259.725509 
L 143.527762 259.725509 
L 143.527762 259.599405 
L 143.653678 259.599405 
L 143.737119 259.347196 
L 143.861538 259.347196 
L 143.902815 259.094987 
L 144.107744 259.094987 
L 144.107744 258.842778 
L 144.310293 258.842778 
L 144.390658 258.590569 
L 144.430703 258.590569 
L 144.510517 257.833942 
L 144.904196 257.833942 
L 144.981877 257.455629 
L 145.020588 257.455629 
L 145.020588 257.329524 
L 145.136208 257.329524 
L 145.174578 257.077315 
L 145.365173 257.077315 
L 145.403044 256.699002 
L 145.665858 256.699002 
L 145.665858 256.572897 
L 146.071013 256.572897 
L 146.071013 256.320688 
L 146.288102 256.320688 
L 146.324022 256.068479 
L 146.466968 256.068479 
L 146.466968 255.942375 
L 147.061745 255.942375 
L 147.061745 255.81627 
L 147.570215 255.81627 
L 147.570215 255.690166 
L 147.769524 255.690166 
L 147.769524 255.564061 
L 148.064279 255.564061 
L 148.096724 255.311853 
L 148.701984 255.311853 
L 148.701984 255.185748 
L 148.950676 255.185748 
L 149.043029 254.68133 
L 149.165411 254.68133 
L 149.165411 254.555226 
L 149.467659 254.555226 
L 149.467659 254.303017 
L 149.735275 254.303017 
L 149.794191 253.924703 
L 149.940618 253.924703 
L 149.940618 253.798599 
L 150.05688 253.798599 
L 150.05688 253.672494 
L 150.229833 253.672494 
L 150.229833 253.54639 
L 150.570677 253.54639 
L 150.654857 253.168076 
L 150.932558 253.168076 
L 150.932558 253.041972 
L 151.314058 253.041972 
L 151.314058 252.915868 
L 151.60806 252.915868 
L 151.60806 252.789763 
L 151.818809 252.789763 
L 151.818809 252.663659 
L 151.949246 252.663659 
L 151.949246 252.537554 
L 152.283884 252.537554 
L 152.309362 251.402614 
L 152.562109 251.402614 
L 152.562109 251.150405 
L 153.008024 251.150405 
L 153.056874 250.645987 
L 153.395042 250.645987 
L 153.395042 250.519883 
L 153.959927 250.519883 
L 153.959927 250.393778 
L 154.098334 250.393778 
L 154.167129 250.141569 
L 154.685723 250.141569 
L 154.685723 250.015465 
L 154.906477 250.015465 
L 154.906477 249.88936 
L 155.762564 249.88936 
L 155.845906 249.637151 
L 156.052535 249.637151 
L 156.052535 249.511047 
L 156.398281 249.511047 
L 156.43851 249.258838 
L 156.538679 249.258838 
L 156.538679 249.132733 
L 156.737306 249.132733 
L 156.796456 248.880524 
L 156.933697 248.880524 
L 156.933697 248.75442 
L 157.069866 248.75442 
L 157.089232 248.250002 
L 158.012759 248.250002 
L 158.067744 247.871689 
L 158.159001 247.871689 
L 158.159001 247.745584 
L 158.340096 247.745584 
L 158.340096 247.493375 
L 158.67908 247.493375 
L 158.67908 247.115062 
L 159.337899 247.115062 
L 159.337899 246.862853 
L 159.98913 246.862853 
L 160.054568 246.610644 
L 160.184713 246.610644 
L 160.184713 246.484539 
L 160.505887 246.484539 
L 160.505887 246.23233 
L 160.883648 246.23233 
L 160.976823 245.601808 
L 161.038665 245.601808 
L 161.084903 245.223495 
L 161.585586 245.223495 
L 161.585586 245.09739 
L 161.749336 245.09739 
L 161.749336 244.971286 
L 162.742845 244.971286 
L 162.742845 244.845181 
L 163.867476 244.845181 
L 163.867476 244.592972 
L 164.050224 244.592972 
L 164.050224 244.466868 
L 164.320806 244.466868 
L 164.320806 244.214659 
L 164.837283 244.214659 
L 164.837283 244.088554 
L 165.034758 244.088554 
L 165.034758 243.96245 
L 165.471066 243.96245 
L 165.471066 243.710241 
L 165.803027 243.710241 
L 165.896723 243.458032 
L 166.117256 243.458032 
L 166.117256 243.205823 
L 166.884438 243.205823 
L 166.972515 242.701405 
L 167.352708 242.701405 
L 167.449146 242.323092 
L 167.629866 242.323092 
L 167.735303 241.944778 
L 167.881853 241.944778 
L 167.881853 241.692569 
L 168.027181 241.692569 
L 168.027181 241.440361 
L 168.395414 241.440361 
L 168.445948 240.935943 
L 168.546579 240.935943 
L 168.546579 240.809838 
L 169.48419 240.809838 
L 169.569561 240.431525 
L 169.654516 240.431525 
L 169.654516 240.179316 
L 171.073566 240.179316 
L 171.073566 240.053211 
L 171.56147 240.053211 
L 171.586775 239.801002 
L 171.829514 239.801002 
L 171.91244 239.296584 
L 172.068921 239.296584 
L 172.068921 239.17048 
L 172.240256 239.17048 
L 172.240256 239.044376 
L 172.369676 239.044376 
L 172.369676 238.918271 
L 172.514135 238.918271 
L 172.577957 238.287749 
L 172.917053 238.287749 
L 172.917053 238.161644 
L 173.371849 238.161644 
L 173.432614 237.783331 
L 173.785389 237.783331 
L 173.785389 237.657226 
L 173.918627 237.657226 
L 173.918627 237.405017 
L 174.816832 237.405017 
L 174.816832 237.152808 
L 174.942445 237.152808 
L 174.942445 237.026704 
L 175.429282 237.026704 
L 175.429282 236.9006 
L 175.651014 236.9006 
L 175.651014 236.774495 
L 175.909476 236.774495 
L 175.909476 236.648391 
L 176.190077 236.648391 
L 176.190077 236.522286 
L 176.351165 236.522286 
L 176.459861 236.017868 
L 177.122746 236.017868 
L 177.122746 235.765659 
L 177.576999 235.765659 
L 177.576999 235.639555 
L 177.708032 235.639555 
L 177.708032 235.51345 
L 178.245567 235.51345 
L 178.245567 235.261241 
L 178.530902 235.261241 
L 178.530902 235.009032 
L 180.001085 235.009032 
L 180.016686 234.756823 
L 180.422568 234.756823 
L 180.422568 234.630719 
L 180.659634 234.630719 
L 180.659634 234.504615 
L 180.853932 234.504615 
L 180.853932 234.252406 
L 181.472049 234.252406 
L 181.472049 234.000197 
L 181.652818 234.000197 
L 181.761327 233.369674 
L 182.574526 233.369674 
L 182.664074 232.865256 
L 183.118098 232.865256 
L 183.118098 232.613047 
L 183.390086 232.613047 
L 183.479815 232.234734 
L 183.842531 232.234734 
L 183.842531 231.982525 
L 184.02523 231.982525 
L 184.02523 231.856421 
L 184.267247 231.856421 
L 184.267247 231.604212 
L 184.749358 231.604212 
L 184.749358 231.478107 
L 185.539547 231.478107 
L 185.577377 231.099794 
L 185.761563 231.099794 
L 185.869662 230.595376 
L 185.973401 230.595376 
L 185.973401 230.469271 
L 186.168092 230.469271 
L 186.168092 230.343167 
L 186.53677 230.343167 
L 186.53677 230.090958 
L 186.873275 230.090958 
L 186.873275 229.838749 
L 187.148244 229.838749 
L 187.148244 229.58654 
L 187.58476 229.58654 
L 187.58476 229.334331 
L 188.579691 229.334331 
L 188.579691 229.082122 
L 188.810385 229.082122 
L 188.810385 228.956018 
L 188.979093 228.956018 
L 188.979093 228.829913 
L 189.195387 228.829913 
L 189.241389 228.4516 
L 189.4575 228.4516 
L 189.4575 228.325495 
L 189.864126 228.325495 
L 189.875943 227.947182 
L 190.03177 227.947182 
L 190.03177 227.694973 
L 190.436815 227.694973 
L 190.436815 227.442764 
L 190.61889 227.442764 
L 190.61889 227.31666 
L 191.043851 227.31666 
L 191.043851 227.190555 
L 191.230663 227.190555 
L 191.230663 227.064451 
L 191.353197 227.064451 
L 191.353197 226.938346 
L 191.558209 226.938346 
L 191.558209 226.686137 
L 191.789972 226.686137 
L 191.789972 226.560033 
L 192.008245 226.560033 
L 192.008245 226.433928 
L 192.717538 226.433928 
L 192.717538 226.181719 
L 193.050577 226.181719 
L 193.050577 225.92951 
L 193.253717 225.92951 
L 193.273173 225.551197 
L 193.691044 225.551197 
L 193.691044 225.425093 
L 194.565736 225.425093 
L 194.565736 225.172884 
L 194.83004 225.172884 
L 194.83004 224.79457 
L 195.475933 224.79457 
L 195.475933 224.542361 
L 196.682118 224.542361 
L 196.682118 224.416257 
L 198.434163 224.416257 
L 198.434163 224.290152 
L 198.621181 224.290152 
L 198.692581 223.911839 
L 198.852169 223.911839 
L 198.896241 223.533525 
L 199.012058 223.533525 
L 199.067937 223.029108 
L 199.236232 223.029108 
L 199.29484 222.650794 
L 199.557861 222.650794 
L 199.557861 222.398585 
L 199.716477 222.398585 
L 199.756745 221.894167 
L 199.873664 221.894167 
L 199.873664 221.641958 
L 200.232842 221.641958 
L 200.232842 221.389749 
L 200.632651 221.389749 
L 200.632651 221.263645 
L 200.987617 221.263645 
L 200.987617 221.011436 
L 201.335502 221.011436 
L 201.335502 220.759227 
L 201.553049 220.759227 
L 201.553049 220.507018 
L 202.264048 220.507018 
L 202.264048 220.380914 
L 202.546239 220.380914 
L 202.614656 219.876496 
L 203.004322 219.876496 
L 203.004322 219.750391 
L 203.248831 219.750391 
L 203.248831 219.624287 
L 203.405875 219.624287 
L 203.405875 219.498182 
L 204.092313 219.498182 
L 204.092313 219.245973 
L 204.253633 219.245973 
L 204.253633 218.993764 
L 204.665704 218.993764 
L 204.665704 218.741555 
L 204.939257 218.741555 
L 204.939257 218.489347 
L 206.151156 218.489347 
L 206.151156 218.237138 
L 206.373889 218.237138 
L 206.373889 218.111033 
L 206.514368 218.111033 
L 206.514368 217.984929 
L 206.63227 217.984929 
L 206.63227 217.73272 
L 206.750503 217.73272 
L 206.750503 217.354406 
L 206.974623 217.354406 
L 207.044281 216.849988 
L 207.640869 216.849988 
L 207.640869 216.723884 
L 207.872852 216.723884 
L 207.976717 216.471675 
L 208.345181 216.471675 
L 208.440168 216.093362 
L 208.488992 216.093362 
L 208.536667 215.715048 
L 209.103726 215.715048 
L 209.199557 215.462839 
L 209.254083 215.462839 
L 209.254083 215.21063 
L 209.409899 215.21063 
L 209.409899 215.084526 
L 209.870106 215.084526 
L 209.870106 214.958421 
L 210.706487 214.958421 
L 210.73955 214.454003 
L 211.465236 214.454003 
L 211.465236 214.07569 
L 211.60257 214.07569 
L 211.60257 213.823481 
L 211.824611 213.823481 
L 211.824611 213.697377 
L 212.11001 213.697377 
L 212.11001 213.445168 
L 213.099795 213.445168 
L 213.099795 213.319063 
L 213.644817 213.319063 
L 213.644817 213.192959 
L 213.872323 213.192959 
L 213.872323 213.066854 
L 214.152778 213.066854 
L 214.152778 212.814645 
L 214.408552 212.814645 
L 214.499461 212.436332 
L 215.09996 212.436332 
L 215.182501 211.931914 
L 215.298367 211.931914 
L 215.298367 211.679705 
L 215.730162 211.679705 
L 215.730162 211.553601 
L 215.855779 211.553601 
L 215.855779 211.301392 
L 216.543114 211.301392 
L 216.543114 211.175287 
L 216.749898 211.175287 
L 216.749898 211.049183 
L 217.866427 211.049183 
L 217.866427 210.923078 
L 219.283887 210.923078 
L 219.383151 210.292556 
L 219.734721 210.292556 
L 219.734721 210.040347 
L 220.43573 210.040347 
L 220.43573 209.914242 
L 220.653501 209.914242 
L 220.653501 209.788138 
L 221.194166 209.788138 
L 221.194166 209.535929 
L 222.398234 209.535929 
L 222.398234 209.28372 
L 222.922804 209.28372 
L 222.922804 208.653198 
L 223.392774 208.653198 
L 223.392774 208.400989 
L 224.205012 208.400989 
L 224.205012 208.274884 
L 224.317257 208.274884 
L 224.317257 208.022675 
L 224.662585 208.022675 
L 224.686676 207.392153 
L 225.159299 207.392153 
L 225.159299 207.266048 
L 225.329512 207.266048 
L 225.40322 206.887735 
L 225.713523 206.887735 
L 225.713523 206.635526 
L 226.717574 206.635526 
L 226.717574 206.383317 
L 227.373978 206.383317 
L 227.373978 206.257213 
L 227.504872 206.257213 
L 227.594762 205.500586 
L 228.364741 205.500586 
L 228.463892 205.248377 
L 229.052558 205.248377 
L 229.052558 204.996168 
L 229.517683 204.996168 
L 229.591134 204.49175 
L 229.719386 204.49175 
L 229.719386 204.239541 
L 229.982574 204.239541 
L 229.982574 204.113437 
L 230.532657 204.113437 
L 230.532657 203.861228 
L 231.016028 203.861228 
L 231.016028 203.609019 
L 231.687336 203.609019 
L 231.736953 203.35681 
L 232.34747 203.35681 
L 232.34747 203.104601 
L 232.694147 203.104601 
L 232.694147 202.600183 
L 233.573346 202.600183 
L 233.573346 202.474079 
L 233.80323 202.474079 
L 233.80323 202.22187 
L 234.117489 202.22187 
L 234.117489 202.095765 
L 338.688 202.095765 
L 338.688 202.095765 
" style="fill:none;stroke:#ff00ff;stroke-linecap:square;stroke-width:1.5;"/>
   </g>
   <g id="line2d_41">
    <defs>
     <path d="M 0 8.485281 
L 5.091169 0 
L 0 -8.485281 
L -5.091169 0 
z
" id="m55e5b889c6" style="stroke:#ff00ff;stroke-linejoin:miter;stroke-width:1.5;"/>
    </defs>
    <g>
     <use style="fill-opacity:0;stroke:#ff00ff;stroke-linejoin:miter;stroke-width:1.5;" x="127.165014" xlink:href="#m55e5b889c6" y="274.605837"/>
     <use style="fill-opacity:0;stroke:#ff00ff;stroke-linejoin:miter;stroke-width:1.5;" x="207.976717" xlink:href="#m55e5b889c6" y="216.597779"/>
     <use style="fill-opacity:0;stroke:#ff00ff;stroke-linejoin:miter;stroke-width:1.5;" x="234.117489" xlink:href="#m55e5b889c6" y="202.22187"/>
     <use style="fill-opacity:0;stroke:#ff00ff;stroke-linejoin:miter;stroke-width:1.5;" x="234.117489" xlink:href="#m55e5b889c6" y="202.095765"/>
     <use style="fill-opacity:0;stroke:#ff00ff;stroke-linejoin:miter;stroke-width:1.5;" x="338.688" xlink:href="#m55e5b889c6" y="202.095765"/>
    </g>
   </g>
   <g id="line2d_42">
    <path style="fill:none;stroke:#ff00ff;stroke-linecap:square;stroke-width:1.5;"/>
    <g/>
   </g>
   <g id="line2d_43">
    <path clip-path="url(#p536a16394d)" d="M 234.201863 202.095765 
" style="fill:none;stroke:#ff00ff;stroke-linecap:square;stroke-width:1.5;"/>
    <defs>
     <path d="M -12 12 
L 12 -12 
M -12 -12 
L 12 12 
" id="mc78125f542" style="stroke:#ff00ff;"/>
    </defs>
    <g clip-path="url(#p536a16394d)">
     <use style="fill:#ff00ff;stroke:#ff00ff;" x="234.201863" xlink:href="#mc78125f542" y="202.095765"/>
    </g>
   </g>
   <g id="line2d_44">
    <path d="M 338.688 232.865256 
L 369.60768 293.092752 
" style="fill:none;stroke:#000080;stroke-linecap:square;stroke-width:1.5;"/>
    <g>
     <use style="fill-opacity:0;stroke:#000080;stroke-width:1.5;" x="338.688" xlink:href="#mdab159ebb2" y="232.865256"/>
     <use style="fill-opacity:0;stroke:#000080;stroke-width:1.5;" x="369.60768" xlink:href="#mdab159ebb2" y="293.092752"/>
    </g>
   </g>
   <g id="line2d_45">
    <path d="M 338.688 202.095765 
L 369.60768 152.662812 
" style="fill:none;stroke:#ff00ff;stroke-linecap:square;stroke-width:1.5;"/>
    <g>
     <use style="fill-opacity:0;stroke:#ff00ff;stroke-linejoin:miter;stroke-width:1.5;" x="338.688" xlink:href="#m55e5b889c6" y="202.095765"/>
     <use style="fill-opacity:0;stroke:#ff00ff;stroke-linejoin:miter;stroke-width:1.5;" x="369.60768" xlink:href="#m55e5b889c6" y="152.662812"/>
    </g>
   </g>
   <g id="line2d_46">
    <path d="M 338.688 298.944 
L 338.688 6.381624 
" style="fill:none;stroke:#000000;stroke-linecap:square;stroke-width:1.5;"/>
   </g>
   <g id="patch_3">
    <path d="M 57.6 298.944 
L 57.6 3.456 
" style="fill:none;stroke:#000000;stroke-linecap:square;stroke-linejoin:miter;stroke-width:0.8;"/>
   </g>
   <g id="patch_4">
    <path d="M 338.688 298.944 
L 338.688 3.456 
" style="fill:none;stroke:#000000;stroke-linecap:square;stroke-linejoin:miter;stroke-width:0.8;"/>
   </g>
   <g id="patch_5">
    <path d="M 57.6 298.944 
L 338.688 298.944 
" style="fill:none;stroke:#000000;stroke-linecap:square;stroke-linejoin:miter;stroke-width:0.8;"/>
   </g>
   <g id="patch_6">
    <path d="M 57.6 3.456 
L 338.688 3.456 
" style="fill:none;stroke:#000000;stroke-linecap:square;stroke-linejoin:miter;stroke-width:0.8;"/>
   </g>
   <g id="text_13">
    <!-- DMS Brock -->
    <g transform="translate(375.22944 297.78369)scale(0.17 -0.17)">
     <defs>
      <path d="M 1259 4147 
L 1259 519 
L 2022 519 
Q 2988 519 3436 956 
Q 3884 1394 3884 2338 
Q 3884 3275 3436 3711 
Q 2988 4147 2022 4147 
L 1259 4147 
z
M 628 4666 
L 1925 4666 
Q 3281 4666 3915 4102 
Q 4550 3538 4550 2338 
Q 4550 1131 3912 565 
Q 3275 0 1925 0 
L 628 0 
L 628 4666 
z
" id="DejaVuSans-44" transform="scale(0.015625)"/>
      <path d="M 628 4666 
L 1569 4666 
L 2759 1491 
L 3956 4666 
L 4897 4666 
L 4897 0 
L 4281 0 
L 4281 4097 
L 3078 897 
L 2444 897 
L 1241 4097 
L 1241 0 
L 628 0 
L 628 4666 
z
" id="DejaVuSans-4d" transform="scale(0.015625)"/>
      <path d="M 3425 4513 
L 3425 3897 
Q 3066 4069 2747 4153 
Q 2428 4238 2131 4238 
Q 1616 4238 1336 4038 
Q 1056 3838 1056 3469 
Q 1056 3159 1242 3001 
Q 1428 2844 1947 2747 
L 2328 2669 
Q 3034 2534 3370 2195 
Q 3706 1856 3706 1288 
Q 3706 609 3251 259 
Q 2797 -91 1919 -91 
Q 1588 -91 1214 -16 
Q 841 59 441 206 
L 441 856 
Q 825 641 1194 531 
Q 1563 422 1919 422 
Q 2459 422 2753 634 
Q 3047 847 3047 1241 
Q 3047 1584 2836 1778 
Q 2625 1972 2144 2069 
L 1759 2144 
Q 1053 2284 737 2584 
Q 422 2884 422 3419 
Q 422 4038 858 4394 
Q 1294 4750 2059 4750 
Q 2388 4750 2728 4690 
Q 3069 4631 3425 4513 
z
" id="DejaVuSans-53" transform="scale(0.015625)"/>
      <path d="M 1259 2228 
L 1259 519 
L 2272 519 
Q 2781 519 3026 730 
Q 3272 941 3272 1375 
Q 3272 1813 3026 2020 
Q 2781 2228 2272 2228 
L 1259 2228 
z
M 1259 4147 
L 1259 2741 
L 2194 2741 
Q 2656 2741 2882 2914 
Q 3109 3088 3109 3444 
Q 3109 3797 2882 3972 
Q 2656 4147 2194 4147 
L 1259 4147 
z
M 628 4666 
L 2241 4666 
Q 2963 4666 3353 4366 
Q 3744 4066 3744 3513 
Q 3744 3084 3544 2831 
Q 3344 2578 2956 2516 
Q 3422 2416 3680 2098 
Q 3938 1781 3938 1306 
Q 3938 681 3513 340 
Q 3088 0 2303 0 
L 628 0 
L 628 4666 
z
" id="DejaVuSans-42" transform="scale(0.015625)"/>
      <path d="M 581 4863 
L 1159 4863 
L 1159 1991 
L 2875 3500 
L 3609 3500 
L 1753 1863 
L 3688 0 
L 2938 0 
L 1159 1709 
L 1159 0 
L 581 0 
L 581 4863 
z
" id="DejaVuSans-6b" transform="scale(0.015625)"/>
     </defs>
     <use xlink:href="#DejaVuSans-44"/>
     <use x="77.001953" xlink:href="#DejaVuSans-4d"/>
     <use x="163.28125" xlink:href="#DejaVuSans-53"/>
     <use x="226.757812" xlink:href="#DejaVuSans-20"/>
     <use x="258.544922" xlink:href="#DejaVuSans-42"/>
     <use x="327.148438" xlink:href="#DejaVuSans-72"/>
     <use x="366.011719" xlink:href="#DejaVuSans-6f"/>
     <use x="427.193359" xlink:href="#DejaVuSans-63"/>
     <use x="482.173828" xlink:href="#DejaVuSans-6b"/>
    </g>
   </g>
   <g id="text_14">
    <!-- MultiGLOD -->
    <g transform="translate(375.22944 157.353749)scale(0.17 -0.17)">
     <defs>
      <path d="M 3809 666 
L 3809 1919 
L 2778 1919 
L 2778 2438 
L 4434 2438 
L 4434 434 
Q 4069 175 3628 42 
Q 3188 -91 2688 -91 
Q 1594 -91 976 548 
Q 359 1188 359 2328 
Q 359 3472 976 4111 
Q 1594 4750 2688 4750 
Q 3144 4750 3555 4637 
Q 3966 4525 4313 4306 
L 4313 3634 
Q 3963 3931 3569 4081 
Q 3175 4231 2741 4231 
Q 1884 4231 1454 3753 
Q 1025 3275 1025 2328 
Q 1025 1384 1454 906 
Q 1884 428 2741 428 
Q 3075 428 3337 486 
Q 3600 544 3809 666 
z
" id="DejaVuSans-47" transform="scale(0.015625)"/>
      <path d="M 628 4666 
L 1259 4666 
L 1259 531 
L 3531 531 
L 3531 0 
L 628 0 
L 628 4666 
z
" id="DejaVuSans-4c" transform="scale(0.015625)"/>
      <path d="M 2522 4238 
Q 1834 4238 1429 3725 
Q 1025 3213 1025 2328 
Q 1025 1447 1429 934 
Q 1834 422 2522 422 
Q 3209 422 3611 934 
Q 4013 1447 4013 2328 
Q 4013 3213 3611 3725 
Q 3209 4238 2522 4238 
z
M 2522 4750 
Q 3503 4750 4090 4092 
Q 4678 3434 4678 2328 
Q 4678 1225 4090 567 
Q 3503 -91 2522 -91 
Q 1538 -91 948 565 
Q 359 1222 359 2328 
Q 359 3434 948 4092 
Q 1538 4750 2522 4750 
z
" id="DejaVuSans-4f" transform="scale(0.015625)"/>
     </defs>
     <use xlink:href="#DejaVuSans-4d"/>
     <use x="86.279297" xlink:href="#DejaVuSans-75"/>
     <use x="149.658203" xlink:href="#DejaVuSans-6c"/>
     <use x="177.441406" xlink:href="#DejaVuSans-74"/>
     <use x="216.650391" xlink:href="#DejaVuSans-69"/>
     <use x="244.433594" xlink:href="#DejaVuSans-47"/>
     <use x="321.923828" xlink:href="#DejaVuSans-4c"/>
     <use x="374.011719" xlink:href="#DejaVuSans-4f"/>
     <use x="452.722656" xlink:href="#DejaVuSans-44"/>
    </g>
   </g>
   <g id="text_15">
    <!-- best 2016 -->
    <g transform="translate(375.22944 16.923809)scale(0.17 -0.17)">
     <defs>
      <path d="M 3116 1747 
Q 3116 2381 2855 2742 
Q 2594 3103 2138 3103 
Q 1681 3103 1420 2742 
Q 1159 2381 1159 1747 
Q 1159 1113 1420 752 
Q 1681 391 2138 391 
Q 2594 391 2855 752 
Q 3116 1113 3116 1747 
z
M 1159 2969 
Q 1341 3281 1617 3432 
Q 1894 3584 2278 3584 
Q 2916 3584 3314 3078 
Q 3713 2572 3713 1747 
Q 3713 922 3314 415 
Q 2916 -91 2278 -91 
Q 1894 -91 1617 61 
Q 1341 213 1159 525 
L 1159 0 
L 581 0 
L 581 4863 
L 1159 4863 
L 1159 2969 
z
" id="DejaVuSans-62" transform="scale(0.015625)"/>
     </defs>
     <use xlink:href="#DejaVuSans-62"/>
     <use x="63.476562" xlink:href="#DejaVuSans-65"/>
     <use x="125" xlink:href="#DejaVuSans-73"/>
     <use x="177.099609" xlink:href="#DejaVuSans-74"/>
     <use x="216.308594" xlink:href="#DejaVuSans-20"/>
     <use x="248.095703" xlink:href="#DejaVuSans-32"/>
     <use x="311.71875" xlink:href="#DejaVuSans-30"/>
     <use x="375.341797" xlink:href="#DejaVuSans-31"/>
     <use x="438.964844" xlink:href="#DejaVuSans-36"/>
    </g>
   </g>
   <g id="text_16">
    <!-- bbob-biobj f7, f8, f16, f17, 3-D -->
    <g transform="translate(60.41088 14.161286)scale(0.102 -0.102)">
     <defs>
      <path d="M 603 3500 
L 1178 3500 
L 1178 -63 
Q 1178 -731 923 -1031 
Q 669 -1331 103 -1331 
L -116 -1331 
L -116 -844 
L 38 -844 
Q 366 -844 484 -692 
Q 603 -541 603 -63 
L 603 3500 
z
M 603 4863 
L 1178 4863 
L 1178 4134 
L 603 4134 
L 603 4863 
z
" id="DejaVuSans-6a" transform="scale(0.015625)"/>
      <path d="M 525 4666 
L 3525 4666 
L 3525 4397 
L 1831 0 
L 1172 0 
L 2766 4134 
L 525 4134 
L 525 4666 
z
" id="DejaVuSans-37" transform="scale(0.015625)"/>
      <path d="M 2597 2516 
Q 3050 2419 3304 2112 
Q 3559 1806 3559 1356 
Q 3559 666 3084 287 
Q 2609 -91 1734 -91 
Q 1441 -91 1130 -33 
Q 819 25 488 141 
L 488 750 
Q 750 597 1062 519 
Q 1375 441 1716 441 
Q 2309 441 2620 675 
Q 2931 909 2931 1356 
Q 2931 1769 2642 2001 
Q 2353 2234 1838 2234 
L 1294 2234 
L 1294 2753 
L 1863 2753 
Q 2328 2753 2575 2939 
Q 2822 3125 2822 3475 
Q 2822 3834 2567 4026 
Q 2313 4219 1838 4219 
Q 1578 4219 1281 4162 
Q 984 4106 628 3988 
L 628 4550 
Q 988 4650 1302 4700 
Q 1616 4750 1894 4750 
Q 2613 4750 3031 4423 
Q 3450 4097 3450 3541 
Q 3450 3153 3228 2886 
Q 3006 2619 2597 2516 
z
" id="DejaVuSans-33" transform="scale(0.015625)"/>
     </defs>
     <use xlink:href="#DejaVuSans-62"/>
     <use x="63.476562" xlink:href="#DejaVuSans-62"/>
     <use x="126.953125" xlink:href="#DejaVuSans-6f"/>
     <use x="188.134766" xlink:href="#DejaVuSans-62"/>
     <use x="251.611328" xlink:href="#DejaVuSans-2d"/>
     <use x="287.695312" xlink:href="#DejaVuSans-62"/>
     <use x="351.171875" xlink:href="#DejaVuSans-69"/>
     <use x="378.955078" xlink:href="#DejaVuSans-6f"/>
     <use x="440.136719" xlink:href="#DejaVuSans-62"/>
     <use x="503.613281" xlink:href="#DejaVuSans-6a"/>
     <use x="531.396484" xlink:href="#DejaVuSans-20"/>
     <use x="563.183594" xlink:href="#DejaVuSans-66"/>
     <use x="598.388672" xlink:href="#DejaVuSans-37"/>
     <use x="662.011719" xlink:href="#DejaVuSans-2c"/>
     <use x="693.798828" xlink:href="#DejaVuSans-20"/>
     <use x="725.585938" xlink:href="#DejaVuSans-66"/>
     <use x="760.791016" xlink:href="#DejaVuSans-38"/>
     <use x="824.414062" xlink:href="#DejaVuSans-2c"/>
     <use x="856.201172" xlink:href="#DejaVuSans-20"/>
     <use x="887.988281" xlink:href="#DejaVuSans-66"/>
     <use x="923.193359" xlink:href="#DejaVuSans-31"/>
     <use x="986.816406" xlink:href="#DejaVuSans-36"/>
     <use x="1050.439453" xlink:href="#DejaVuSans-2c"/>
     <use x="1082.226562" xlink:href="#DejaVuSans-20"/>
     <use x="1114.013672" xlink:href="#DejaVuSans-66"/>
     <use x="1149.21875" xlink:href="#DejaVuSans-31"/>
     <use x="1212.841797" xlink:href="#DejaVuSans-37"/>
     <use x="1276.464844" xlink:href="#DejaVuSans-2c"/>
     <use x="1308.251953" xlink:href="#DejaVuSans-20"/>
     <use x="1340.039062" xlink:href="#DejaVuSans-33"/>
     <use x="1403.662109" xlink:href="#DejaVuSans-2d"/>
     <use x="1439.746094" xlink:href="#DejaVuSans-44"/>
    </g>
    <!-- 58 targets: 1..-1.0e-4 -->
    <g transform="translate(60.41088 25.583055)scale(0.102 -0.102)">
     <defs>
      <path d="M 691 4666 
L 3169 4666 
L 3169 4134 
L 1269 4134 
L 1269 2991 
Q 1406 3038 1543 3061 
Q 1681 3084 1819 3084 
Q 2600 3084 3056 2656 
Q 3513 2228 3513 1497 
Q 3513 744 3044 326 
Q 2575 -91 1722 -91 
Q 1428 -91 1123 -41 
Q 819 9 494 109 
L 494 744 
Q 775 591 1075 516 
Q 1375 441 1709 441 
Q 2250 441 2565 725 
Q 2881 1009 2881 1497 
Q 2881 1984 2565 2268 
Q 2250 2553 1709 2553 
Q 1456 2553 1204 2497 
Q 953 2441 691 2322 
L 691 4666 
z
" id="DejaVuSans-35" transform="scale(0.015625)"/>
      <path d="M 750 794 
L 1409 794 
L 1409 0 
L 750 0 
L 750 794 
z
M 750 3309 
L 1409 3309 
L 1409 2516 
L 750 2516 
L 750 3309 
z
" id="DejaVuSans-3a" transform="scale(0.015625)"/>
     </defs>
     <use xlink:href="#DejaVuSans-35"/>
     <use x="63.623047" xlink:href="#DejaVuSans-38"/>
     <use x="127.246094" xlink:href="#DejaVuSans-20"/>
     <use x="159.033203" xlink:href="#DejaVuSans-74"/>
     <use x="198.242188" xlink:href="#DejaVuSans-61"/>
     <use x="259.521484" xlink:href="#DejaVuSans-72"/>
     <use x="298.884766" xlink:href="#DejaVuSans-67"/>
     <use x="362.361328" xlink:href="#DejaVuSans-65"/>
     <use x="423.884766" xlink:href="#DejaVuSans-74"/>
     <use x="463.09375" xlink:href="#DejaVuSans-73"/>
     <use x="515.193359" xlink:href="#DejaVuSans-3a"/>
     <use x="548.884766" xlink:href="#DejaVuSans-20"/>
     <use x="580.671875" xlink:href="#DejaVuSans-31"/>
     <use x="644.294922" xlink:href="#DejaVuSans-2e"/>
     <use x="676.082031" xlink:href="#DejaVuSans-2e"/>
     <use x="707.869141" xlink:href="#DejaVuSans-2d"/>
     <use x="743.953125" xlink:href="#DejaVuSans-31"/>
     <use x="807.576172" xlink:href="#DejaVuSans-2e"/>
     <use x="839.363281" xlink:href="#DejaVuSans-30"/>
     <use x="902.986328" xlink:href="#DejaVuSans-65"/>
     <use x="964.509766" xlink:href="#DejaVuSans-2d"/>
     <use x="1000.59375" xlink:href="#DejaVuSans-34"/>
    </g>
    <!-- 10 instances -->
    <g transform="translate(60.41088 37.004824)scale(0.102 -0.102)">
     <use xlink:href="#DejaVuSans-31"/>
     <use x="63.623047" xlink:href="#DejaVuSans-30"/>
     <use x="127.246094" xlink:href="#DejaVuSans-20"/>
     <use x="159.033203" xlink:href="#DejaVuSans-69"/>
     <use x="186.816406" xlink:href="#DejaVuSans-6e"/>
     <use x="250.195312" xlink:href="#DejaVuSans-73"/>
     <use x="302.294922" xlink:href="#DejaVuSans-74"/>
     <use x="341.503906" xlink:href="#DejaVuSans-61"/>
     <use x="402.783203" xlink:href="#DejaVuSans-6e"/>
     <use x="466.162109" xlink:href="#DejaVuSans-63"/>
     <use x="521.142578" xlink:href="#DejaVuSans-65"/>
     <use x="582.666016" xlink:href="#DejaVuSans-73"/>
    </g>
   </g>
   <g id="text_17">
    <!-- v2.4.1.1, hv-hash=ff0e71e8cd978373 -->
    <g style="fill:#808080;" transform="translate(103.108062 293.909432)scale(0.1 -0.1)">
     <defs>
      <path d="M 3513 2113 
L 3513 0 
L 2938 0 
L 2938 2094 
Q 2938 2591 2744 2837 
Q 2550 3084 2163 3084 
Q 1697 3084 1428 2787 
Q 1159 2491 1159 1978 
L 1159 0 
L 581 0 
L 581 4863 
L 1159 4863 
L 1159 2956 
Q 1366 3272 1645 3428 
Q 1925 3584 2291 3584 
Q 2894 3584 3203 3211 
Q 3513 2838 3513 2113 
z
" id="DejaVuSans-68" transform="scale(0.015625)"/>
      <path d="M 678 2906 
L 4684 2906 
L 4684 2381 
L 678 2381 
L 678 2906 
z
M 678 1631 
L 4684 1631 
L 4684 1100 
L 678 1100 
L 678 1631 
z
" id="DejaVuSans-3d" transform="scale(0.015625)"/>
      <path d="M 703 97 
L 703 672 
Q 941 559 1184 500 
Q 1428 441 1663 441 
Q 2288 441 2617 861 
Q 2947 1281 2994 2138 
Q 2813 1869 2534 1725 
Q 2256 1581 1919 1581 
Q 1219 1581 811 2004 
Q 403 2428 403 3163 
Q 403 3881 828 4315 
Q 1253 4750 1959 4750 
Q 2769 4750 3195 4129 
Q 3622 3509 3622 2328 
Q 3622 1225 3098 567 
Q 2575 -91 1691 -91 
Q 1453 -91 1209 -44 
Q 966 3 703 97 
z
M 1959 2075 
Q 2384 2075 2632 2365 
Q 2881 2656 2881 3163 
Q 2881 3666 2632 3958 
Q 2384 4250 1959 4250 
Q 1534 4250 1286 3958 
Q 1038 3666 1038 3163 
Q 1038 2656 1286 2365 
Q 1534 2075 1959 2075 
z
" id="DejaVuSans-39" transform="scale(0.015625)"/>
     </defs>
     <use xlink:href="#DejaVuSans-76"/>
     <use x="59.179688" xlink:href="#DejaVuSans-32"/>
     <use x="122.802734" xlink:href="#DejaVuSans-2e"/>
     <use x="154.589844" xlink:href="#DejaVuSans-34"/>
     <use x="218.212891" xlink:href="#DejaVuSans-2e"/>
     <use x="250" xlink:href="#DejaVuSans-31"/>
     <use x="313.623047" xlink:href="#DejaVuSans-2e"/>
     <use x="345.410156" xlink:href="#DejaVuSans-31"/>
     <use x="409.033203" xlink:href="#DejaVuSans-2c"/>
     <use x="440.820312" xlink:href="#DejaVuSans-20"/>
     <use x="472.607422" xlink:href="#DejaVuSans-68"/>
     <use x="535.986328" xlink:href="#DejaVuSans-76"/>
     <use x="592.541016" xlink:href="#DejaVuSans-2d"/>
     <use x="628.625" xlink:href="#DejaVuSans-68"/>
     <use x="692.003906" xlink:href="#DejaVuSans-61"/>
     <use x="753.283203" xlink:href="#DejaVuSans-73"/>
     <use x="805.382812" xlink:href="#DejaVuSans-68"/>
     <use x="868.761719" xlink:href="#DejaVuSans-3d"/>
     <use x="952.550781" xlink:href="#DejaVuSans-66"/>
     <use x="987.755859" xlink:href="#DejaVuSans-66"/>
     <use x="1022.960938" xlink:href="#DejaVuSans-30"/>
     <use x="1086.583984" xlink:href="#DejaVuSans-65"/>
     <use x="1148.107422" xlink:href="#DejaVuSans-37"/>
     <use x="1211.730469" xlink:href="#DejaVuSans-31"/>
     <use x="1275.353516" xlink:href="#DejaVuSans-65"/>
     <use x="1336.876953" xlink:href="#DejaVuSans-38"/>
     <use x="1400.5" xlink:href="#DejaVuSans-63"/>
     <use x="1455.480469" xlink:href="#DejaVuSans-64"/>
     <use x="1518.957031" xlink:href="#DejaVuSans-39"/>
     <use x="1582.580078" xlink:href="#DejaVuSans-37"/>
     <use x="1646.203125" xlink:href="#DejaVuSans-38"/>
     <use x="1709.826172" xlink:href="#DejaVuSans-33"/>
     <use x="1773.449219" xlink:href="#DejaVuSans-37"/>
     <use x="1837.072266" xlink:href="#DejaVuSans-33"/>
    </g>
   </g>
  </g>
 </g>
 <defs>
  <clipPath id="p536a16394d">
   <rect height="295.488" width="281.088" x="57.6" y="3.456"/>
  </clipPath>
 </defs>
</svg>
