<?xml version="1.0" encoding="utf-8" standalone="no"?>
<!DOCTYPE svg PUBLIC "-//W3C//DTD SVG 1.1//EN"
  "http://www.w3.org/Graphics/SVG/1.1/DTD/svg11.dtd">
<svg height="345.6pt" version="1.1" viewBox="0 0 460.8 345.6" width="460.8pt" xmlns="http://www.w3.org/2000/svg" xmlns:xlink="http://www.w3.org/1999/xlink">
 <metadata>
  <rdf:RDF xmlns:cc="http://creativecommons.org/ns#" xmlns:dc="http://purl.org/dc/elements/1.1/" xmlns:rdf="http://www.w3.org/1999/02/22-rdf-syntax-ns#">
   <cc:Work>
    <dc:type rdf:resource="http://purl.org/dc/dcmitype/StillImage"/>
    <dc:date>2022-03-29T13:08:19.712809</dc:date>
    <dc:format>image/svg+xml</dc:format>
    <dc:creator>
     <cc:Agent>
      <dc:title>Matplotlib v3.4.3, https://matplotlib.org/</dc:title>
     </cc:Agent>
    </dc:creator>
   </cc:Work>
  </rdf:RDF>
 </metadata>
 <defs>
  <style type="text/css">*{stroke-linecap:butt;stroke-linejoin:round;}</style>
 </defs>
 <g id="figure_1">
  <g id="patch_1">
   <path d="M 0 345.6 
L 460.8 345.6 
L 460.8 0 
L 0 0 
z
" style="fill:#ffffff;"/>
  </g>
  <g id="axes_1">
   <g id="patch_2">
    <path d="M 57.6 298.944 
L 338.688 298.944 
L 338.688 3.456 
L 57.6 3.456 
z
" style="fill:#ffffff;"/>
   </g>
   <g id="line2d_1">
    <path d="M 64.67102 298.944 
L 64.67102 297.682955 
L 69.687988 297.682955 
L 69.687988 295.160866 
L 79.447285 295.160866 
L 79.447285 292.638776 
L 81.775977 292.638776 
L 81.775977 291.377732 
L 83.830028 291.377732 
L 83.830028 288.855642 
L 91.535274 288.855642 
L 91.535274 286.333553 
L 97.755429 286.333553 
L 97.755429 283.811463 
L 100.934985 283.811463 
L 100.934985 281.289374 
L 101.646892 281.289374 
L 101.646892 278.767284 
L 107.009204 278.767284 
L 107.009204 276.245195 
L 113.73488 276.245195 
L 113.73488 274.98415 
L 114.751048 274.98415 
L 114.751048 272.462061 
L 117.202696 272.462061 
L 117.202696 271.201016 
L 121.264855 271.201016 
L 121.264855 269.939971 
L 122.782271 269.939971 
L 122.782271 268.678927 
L 128.560901 268.678927 
L 128.560901 264.895792 
L 129.574256 264.895792 
L 129.574256 261.112658 
L 130.127931 261.112658 
L 130.127931 257.329524 
L 134.661403 257.329524 
L 134.661403 254.807435 
L 135.381712 254.807435 
L 135.381712 252.285345 
L 135.681535 252.285345 
L 135.681535 249.763256 
L 136.073445 249.763256 
L 136.073445 245.980122 
L 139.253002 245.980122 
L 139.253002 244.719077 
L 143.527762 244.719077 
L 143.527762 243.458032 
L 146.801841 243.458032 
L 146.801841 240.935943 
L 147.317833 240.935943 
L 147.317833 238.413853 
L 147.670154 238.413853 
L 147.670154 235.891764 
L 149.058374 235.891764 
L 149.058374 234.630719 
L 151.461678 234.630719 
L 151.461678 232.10863 
L 153.820412 232.10863 
L 153.820412 228.325495 
L 155.0376 228.325495 
L 155.0376 224.542361 
L 155.86668 224.542361 
L 155.86668 223.281316 
L 159.980933 223.281316 
L 159.980933 220.759227 
L 160.466062 220.759227 
L 160.466062 216.976093 
L 162.770815 216.976093 
L 162.770815 214.454003 
L 165.302685 214.454003 
L 165.302685 211.931914 
L 165.536773 211.931914 
L 165.536773 209.409825 
L 167.43311 209.409825 
L 167.43311 206.887735 
L 167.892273 206.887735 
L 167.892273 204.365646 
L 169.897641 204.365646 
L 169.897641 200.582511 
L 170.40555 200.582511 
L 170.40555 198.060422 
L 171.198983 198.060422 
L 171.198983 195.538333 
L 171.871027 195.538333 
L 171.871027 193.016243 
L 173.072554 193.016243 
L 173.072554 191.755198 
L 177.107399 191.755198 
L 177.107399 190.494154 
L 179.049518 190.494154 
L 179.049518 187.972064 
L 181.640982 187.972064 
L 181.640982 184.18893 
L 182.513821 184.18893 
L 182.513821 181.666841 
L 183.695823 181.666841 
L 183.695823 177.883706 
L 186.76771 177.883706 
L 186.76771 176.622662 
L 186.978205 176.622662 
L 186.978205 174.100572 
L 188.013903 174.100572 
L 188.013903 172.839527 
L 190.267263 172.839527 
L 190.267263 171.578483 
L 190.745784 171.578483 
L 190.745784 169.056393 
L 191.942787 169.056393 
L 191.942787 165.273259 
L 193.051808 165.273259 
L 193.051808 161.490125 
L 193.982843 161.490125 
L 193.982843 160.22908 
L 194.913204 160.22908 
L 194.913204 156.445946 
L 195.796435 156.445946 
L 195.796435 153.923857 
L 196.834375 153.923857 
L 196.834375 152.662812 
L 197.439063 152.662812 
L 197.439063 150.140722 
L 198.312609 150.140722 
L 198.312609 146.357588 
L 200.010463 146.357588 
L 200.010463 145.096544 
L 200.566383 145.096544 
L 200.566383 141.313409 
L 204.222526 141.313409 
L 204.222526 140.052365 
L 205.420003 140.052365 
L 205.420003 137.530275 
L 205.670724 137.530275 
L 205.670724 133.747141 
L 206.025266 133.747141 
L 206.025266 132.486096 
L 208.197076 132.486096 
L 208.197076 128.702962 
L 210.786803 128.702962 
L 210.786803 127.441917 
L 211.10573 127.441917 
L 211.10573 126.180873 
L 213.331013 126.180873 
L 213.331013 122.397738 
L 215.145787 122.397738 
L 215.145787 118.614604 
L 217.67074 118.614604 
L 217.67074 114.83147 
L 217.792706 114.83147 
L 217.792706 112.309381 
L 217.935998 112.309381 
L 217.935998 111.048336 
L 219.03184 111.048336 
L 219.03184 108.526247 
L 219.640392 108.526247 
L 219.640392 104.743112 
L 219.842586 104.743112 
L 219.842586 102.221023 
L 221.090423 102.221023 
L 221.145813 99.698933 
L 221.942134 99.698933 
L 221.942134 97.176844 
L 222.726588 97.176844 
L 222.726588 93.39371 
L 223.456614 93.39371 
L 223.456614 90.87162 
L 223.824713 90.87162 
L 223.824713 89.610576 
L 225.248499 89.610576 
L 225.248499 85.827441 
L 225.684748 85.827441 
L 225.684748 84.566397 
L 227.980015 84.566397 
L 227.980015 82.044307 
L 229.270945 82.044307 
L 229.270945 79.522218 
L 230.1951 79.522218 
L 230.1951 77.000128 
L 233.912436 77.000128 
L 233.912436 73.216994 
L 234.072338 73.216994 
L 234.072338 69.43386 
L 241.361941 69.43386 
L 241.361941 68.172815 
L 243.501248 68.172815 
L 243.501248 65.650726 
L 243.759203 65.650726 
L 243.759203 61.867592 
L 245.362665 61.867592 
L 245.362665 60.606547 
L 245.492389 60.606547 
L 245.492389 58.084457 
L 246.283573 58.084457 
L 246.283573 55.562368 
L 248.420696 55.562368 
L 248.420696 51.779234 
L 250.182989 51.779234 
L 250.182989 49.257144 
L 252.035111 49.257144 
L 252.035111 47.9961 
L 255.230863 47.9961 
L 255.230863 45.47401 
L 257.684754 45.47401 
L 257.684754 41.690876 
L 338.688 41.690876 
L 338.688 41.690876 
" style="fill:none;stroke:#f5deb3;stroke-linecap:square;stroke-width:4;"/>
   </g>
   <g id="line2d_2">
    <defs>
     <path d="M 0 7.778175 
L 7.778175 0 
L 0 -7.778175 
L -7.778175 0 
z
" id="mc6edbe1b61" style="stroke:#f5deb3;stroke-linejoin:miter;stroke-width:1.5;"/>
    </defs>
    <g>
     <use style="fill:#f5deb3;stroke:#f5deb3;stroke-linejoin:miter;stroke-width:1.5;" x="162.770815" xlink:href="#mc6edbe1b61" y="214.454003"/>
     <use style="fill:#f5deb3;stroke:#f5deb3;stroke-linejoin:miter;stroke-width:1.5;" x="221.145813" xlink:href="#mc6edbe1b61" y="99.698933"/>
     <use style="fill:#f5deb3;stroke:#f5deb3;stroke-linejoin:miter;stroke-width:1.5;" x="257.684754" xlink:href="#mc6edbe1b61" y="45.47401"/>
     <use style="fill:#f5deb3;stroke:#f5deb3;stroke-linejoin:miter;stroke-width:1.5;" x="257.684754" xlink:href="#mc6edbe1b61" y="41.690876"/>
     <use style="fill:#f5deb3;stroke:#f5deb3;stroke-linejoin:miter;stroke-width:1.5;" x="338.688" xlink:href="#mc6edbe1b61" y="41.690876"/>
    </g>
   </g>
   <g id="line2d_3">
    <path style="fill:none;stroke:#f5deb3;stroke-linecap:square;stroke-width:4;"/>
    <g/>
   </g>
   <g id="line2d_4">
    <path d="M 338.688 41.690876 
L 369.60768 12.232871 
" style="fill:none;stroke:#f5deb3;stroke-linecap:square;stroke-width:4;"/>
    <g>
     <use style="fill:#f5deb3;stroke:#f5deb3;stroke-linejoin:miter;stroke-width:1.5;" x="338.688" xlink:href="#mc6edbe1b61" y="41.690876"/>
     <use style="fill:#f5deb3;stroke:#f5deb3;stroke-linejoin:miter;stroke-width:1.5;" x="369.60768" xlink:href="#mc6edbe1b61" y="12.232871"/>
    </g>
   </g>
   <g id="matplotlib.axis_1">
    <g id="xtick_1">
     <g id="line2d_5">
      <path clip-path="url(#p114c9fd62d)" d="M 57.6 298.944 
L 57.6 3.456 
" style="fill:none;stroke:#b0b0b0;stroke-linecap:square;stroke-width:0.8;"/>
     </g>
     <g id="line2d_6">
      <defs>
       <path d="M 0 0 
L 0 3.5 
" id="md8777a4f98" style="stroke:#000000;stroke-width:0.8;"/>
      </defs>
      <g>
       <use style="stroke:#000000;stroke-width:0.8;" x="57.6" xlink:href="#md8777a4f98" y="298.944"/>
      </g>
     </g>
     <g id="text_1">
      <!-- 0 -->
      <g transform="translate(51.2375 321.140875)scale(0.2 -0.2)">
       <defs>
        <path d="M 2034 4250 
Q 1547 4250 1301 3770 
Q 1056 3291 1056 2328 
Q 1056 1369 1301 889 
Q 1547 409 2034 409 
Q 2525 409 2770 889 
Q 3016 1369 3016 2328 
Q 3016 3291 2770 3770 
Q 2525 4250 2034 4250 
z
M 2034 4750 
Q 2819 4750 3233 4129 
Q 3647 3509 3647 2328 
Q 3647 1150 3233 529 
Q 2819 -91 2034 -91 
Q 1250 -91 836 529 
Q 422 1150 422 2328 
Q 422 3509 836 4129 
Q 1250 4750 2034 4750 
z
" id="DejaVuSans-30" transform="scale(0.015625)"/>
       </defs>
       <use xlink:href="#DejaVuSans-30"/>
      </g>
     </g>
    </g>
    <g id="xtick_2">
     <g id="line2d_7">
      <path clip-path="url(#p114c9fd62d)" d="M 137.910857 298.944 
L 137.910857 3.456 
" style="fill:none;stroke:#b0b0b0;stroke-linecap:square;stroke-width:0.8;"/>
     </g>
     <g id="line2d_8">
      <g>
       <use style="stroke:#000000;stroke-width:0.8;" x="137.910857" xlink:href="#md8777a4f98" y="298.944"/>
      </g>
     </g>
     <g id="text_2">
      <!-- 2 -->
      <g transform="translate(131.548357 321.140875)scale(0.2 -0.2)">
       <defs>
        <path d="M 1228 531 
L 3431 531 
L 3431 0 
L 469 0 
L 469 531 
Q 828 903 1448 1529 
Q 2069 2156 2228 2338 
Q 2531 2678 2651 2914 
Q 2772 3150 2772 3378 
Q 2772 3750 2511 3984 
Q 2250 4219 1831 4219 
Q 1534 4219 1204 4116 
Q 875 4013 500 3803 
L 500 4441 
Q 881 4594 1212 4672 
Q 1544 4750 1819 4750 
Q 2544 4750 2975 4387 
Q 3406 4025 3406 3419 
Q 3406 3131 3298 2873 
Q 3191 2616 2906 2266 
Q 2828 2175 2409 1742 
Q 1991 1309 1228 531 
z
" id="DejaVuSans-32" transform="scale(0.015625)"/>
       </defs>
       <use xlink:href="#DejaVuSans-32"/>
      </g>
     </g>
    </g>
    <g id="xtick_3">
     <g id="line2d_9">
      <path clip-path="url(#p114c9fd62d)" d="M 218.221714 298.944 
L 218.221714 3.456 
" style="fill:none;stroke:#b0b0b0;stroke-linecap:square;stroke-width:0.8;"/>
     </g>
     <g id="line2d_10">
      <g>
       <use style="stroke:#000000;stroke-width:0.8;" x="218.221714" xlink:href="#md8777a4f98" y="298.944"/>
      </g>
     </g>
     <g id="text_3">
      <!-- 4 -->
      <g transform="translate(211.859214 321.140875)scale(0.2 -0.2)">
       <defs>
        <path d="M 2419 4116 
L 825 1625 
L 2419 1625 
L 2419 4116 
z
M 2253 4666 
L 3047 4666 
L 3047 1625 
L 3713 1625 
L 3713 1100 
L 3047 1100 
L 3047 0 
L 2419 0 
L 2419 1100 
L 313 1100 
L 313 1709 
L 2253 4666 
z
" id="DejaVuSans-34" transform="scale(0.015625)"/>
       </defs>
       <use xlink:href="#DejaVuSans-34"/>
      </g>
     </g>
    </g>
    <g id="xtick_4">
     <g id="line2d_11">
      <path clip-path="url(#p114c9fd62d)" d="M 298.532571 298.944 
L 298.532571 3.456 
" style="fill:none;stroke:#b0b0b0;stroke-linecap:square;stroke-width:0.8;"/>
     </g>
     <g id="line2d_12">
      <g>
       <use style="stroke:#000000;stroke-width:0.8;" x="298.532571" xlink:href="#md8777a4f98" y="298.944"/>
      </g>
     </g>
     <g id="text_4">
      <!-- 6 -->
      <g transform="translate(292.170071 321.140875)scale(0.2 -0.2)">
       <defs>
        <path d="M 2113 2584 
Q 1688 2584 1439 2293 
Q 1191 2003 1191 1497 
Q 1191 994 1439 701 
Q 1688 409 2113 409 
Q 2538 409 2786 701 
Q 3034 994 3034 1497 
Q 3034 2003 2786 2293 
Q 2538 2584 2113 2584 
z
M 3366 4563 
L 3366 3988 
Q 3128 4100 2886 4159 
Q 2644 4219 2406 4219 
Q 1781 4219 1451 3797 
Q 1122 3375 1075 2522 
Q 1259 2794 1537 2939 
Q 1816 3084 2150 3084 
Q 2853 3084 3261 2657 
Q 3669 2231 3669 1497 
Q 3669 778 3244 343 
Q 2819 -91 2113 -91 
Q 1303 -91 875 529 
Q 447 1150 447 2328 
Q 447 3434 972 4092 
Q 1497 4750 2381 4750 
Q 2619 4750 2861 4703 
Q 3103 4656 3366 4563 
z
" id="DejaVuSans-36" transform="scale(0.015625)"/>
       </defs>
       <use xlink:href="#DejaVuSans-36"/>
      </g>
     </g>
    </g>
    <g id="xtick_5">
     <g id="line2d_13">
      <path clip-path="url(#p114c9fd62d)" d="M 97.755429 298.944 
L 97.755429 3.456 
" style="fill:none;stroke:#b0b0b0;stroke-linecap:square;stroke-width:0.8;"/>
     </g>
     <g id="line2d_14">
      <defs>
       <path d="M 0 0 
L 0 2 
" id="mfa87dd9c27" style="stroke:#000000;stroke-width:0.6;"/>
      </defs>
      <g>
       <use style="stroke:#000000;stroke-width:0.6;" x="97.755429" xlink:href="#mfa87dd9c27" y="298.944"/>
      </g>
     </g>
    </g>
    <g id="xtick_6">
     <g id="line2d_15">
      <path clip-path="url(#p114c9fd62d)" d="M 178.066286 298.944 
L 178.066286 3.456 
" style="fill:none;stroke:#b0b0b0;stroke-linecap:square;stroke-width:0.8;"/>
     </g>
     <g id="line2d_16">
      <g>
       <use style="stroke:#000000;stroke-width:0.6;" x="178.066286" xlink:href="#mfa87dd9c27" y="298.944"/>
      </g>
     </g>
    </g>
    <g id="xtick_7">
     <g id="line2d_17">
      <path clip-path="url(#p114c9fd62d)" d="M 258.377143 298.944 
L 258.377143 3.456 
" style="fill:none;stroke:#b0b0b0;stroke-linecap:square;stroke-width:0.8;"/>
     </g>
     <g id="line2d_18">
      <g>
       <use style="stroke:#000000;stroke-width:0.6;" x="258.377143" xlink:href="#mfa87dd9c27" y="298.944"/>
      </g>
     </g>
    </g>
    <g id="xtick_8">
     <g id="line2d_19">
      <path clip-path="url(#p114c9fd62d)" d="M 338.688 298.944 
L 338.688 3.456 
" style="fill:none;stroke:#b0b0b0;stroke-linecap:square;stroke-width:0.8;"/>
     </g>
     <g id="line2d_20">
      <g>
       <use style="stroke:#000000;stroke-width:0.6;" x="338.688" xlink:href="#mfa87dd9c27" y="298.944"/>
      </g>
     </g>
    </g>
    <g id="text_5">
     <!-- log10(# f-evals / dimension) -->
     <g transform="translate(77.764078 342.217594)scale(0.17 -0.17)">
      <defs>
       <path d="M 603 4863 
L 1178 4863 
L 1178 0 
L 603 0 
L 603 4863 
z
" id="DejaVuSans-6c" transform="scale(0.015625)"/>
       <path d="M 1959 3097 
Q 1497 3097 1228 2736 
Q 959 2375 959 1747 
Q 959 1119 1226 758 
Q 1494 397 1959 397 
Q 2419 397 2687 759 
Q 2956 1122 2956 1747 
Q 2956 2369 2687 2733 
Q 2419 3097 1959 3097 
z
M 1959 3584 
Q 2709 3584 3137 3096 
Q 3566 2609 3566 1747 
Q 3566 888 3137 398 
Q 2709 -91 1959 -91 
Q 1206 -91 779 398 
Q 353 888 353 1747 
Q 353 2609 779 3096 
Q 1206 3584 1959 3584 
z
" id="DejaVuSans-6f" transform="scale(0.015625)"/>
       <path d="M 2906 1791 
Q 2906 2416 2648 2759 
Q 2391 3103 1925 3103 
Q 1463 3103 1205 2759 
Q 947 2416 947 1791 
Q 947 1169 1205 825 
Q 1463 481 1925 481 
Q 2391 481 2648 825 
Q 2906 1169 2906 1791 
z
M 3481 434 
Q 3481 -459 3084 -895 
Q 2688 -1331 1869 -1331 
Q 1566 -1331 1297 -1286 
Q 1028 -1241 775 -1147 
L 775 -588 
Q 1028 -725 1275 -790 
Q 1522 -856 1778 -856 
Q 2344 -856 2625 -561 
Q 2906 -266 2906 331 
L 2906 616 
Q 2728 306 2450 153 
Q 2172 0 1784 0 
Q 1141 0 747 490 
Q 353 981 353 1791 
Q 353 2603 747 3093 
Q 1141 3584 1784 3584 
Q 2172 3584 2450 3431 
Q 2728 3278 2906 2969 
L 2906 3500 
L 3481 3500 
L 3481 434 
z
" id="DejaVuSans-67" transform="scale(0.015625)"/>
       <path d="M 794 531 
L 1825 531 
L 1825 4091 
L 703 3866 
L 703 4441 
L 1819 4666 
L 2450 4666 
L 2450 531 
L 3481 531 
L 3481 0 
L 794 0 
L 794 531 
z
" id="DejaVuSans-31" transform="scale(0.015625)"/>
       <path d="M 1984 4856 
Q 1566 4138 1362 3434 
Q 1159 2731 1159 2009 
Q 1159 1288 1364 580 
Q 1569 -128 1984 -844 
L 1484 -844 
Q 1016 -109 783 600 
Q 550 1309 550 2009 
Q 550 2706 781 3412 
Q 1013 4119 1484 4856 
L 1984 4856 
z
" id="DejaVuSans-28" transform="scale(0.015625)"/>
       <path d="M 3272 2816 
L 2363 2816 
L 2100 1772 
L 3016 1772 
L 3272 2816 
z
M 2803 4594 
L 2478 3297 
L 3391 3297 
L 3719 4594 
L 4219 4594 
L 3897 3297 
L 4872 3297 
L 4872 2816 
L 3775 2816 
L 3519 1772 
L 4513 1772 
L 4513 1294 
L 3397 1294 
L 3072 0 
L 2572 0 
L 2894 1294 
L 1978 1294 
L 1656 0 
L 1153 0 
L 1478 1294 
L 494 1294 
L 494 1772 
L 1594 1772 
L 1856 2816 
L 850 2816 
L 850 3297 
L 1978 3297 
L 2297 4594 
L 2803 4594 
z
" id="DejaVuSans-23" transform="scale(0.015625)"/>
       <path id="DejaVuSans-20" transform="scale(0.015625)"/>
       <path d="M 2375 4863 
L 2375 4384 
L 1825 4384 
Q 1516 4384 1395 4259 
Q 1275 4134 1275 3809 
L 1275 3500 
L 2222 3500 
L 2222 3053 
L 1275 3053 
L 1275 0 
L 697 0 
L 697 3053 
L 147 3053 
L 147 3500 
L 697 3500 
L 697 3744 
Q 697 4328 969 4595 
Q 1241 4863 1831 4863 
L 2375 4863 
z
" id="DejaVuSans-66" transform="scale(0.015625)"/>
       <path d="M 313 2009 
L 1997 2009 
L 1997 1497 
L 313 1497 
L 313 2009 
z
" id="DejaVuSans-2d" transform="scale(0.015625)"/>
       <path d="M 3597 1894 
L 3597 1613 
L 953 1613 
Q 991 1019 1311 708 
Q 1631 397 2203 397 
Q 2534 397 2845 478 
Q 3156 559 3463 722 
L 3463 178 
Q 3153 47 2828 -22 
Q 2503 -91 2169 -91 
Q 1331 -91 842 396 
Q 353 884 353 1716 
Q 353 2575 817 3079 
Q 1281 3584 2069 3584 
Q 2775 3584 3186 3129 
Q 3597 2675 3597 1894 
z
M 3022 2063 
Q 3016 2534 2758 2815 
Q 2500 3097 2075 3097 
Q 1594 3097 1305 2825 
Q 1016 2553 972 2059 
L 3022 2063 
z
" id="DejaVuSans-65" transform="scale(0.015625)"/>
       <path d="M 191 3500 
L 800 3500 
L 1894 563 
L 2988 3500 
L 3597 3500 
L 2284 0 
L 1503 0 
L 191 3500 
z
" id="DejaVuSans-76" transform="scale(0.015625)"/>
       <path d="M 2194 1759 
Q 1497 1759 1228 1600 
Q 959 1441 959 1056 
Q 959 750 1161 570 
Q 1363 391 1709 391 
Q 2188 391 2477 730 
Q 2766 1069 2766 1631 
L 2766 1759 
L 2194 1759 
z
M 3341 1997 
L 3341 0 
L 2766 0 
L 2766 531 
Q 2569 213 2275 61 
Q 1981 -91 1556 -91 
Q 1019 -91 701 211 
Q 384 513 384 1019 
Q 384 1609 779 1909 
Q 1175 2209 1959 2209 
L 2766 2209 
L 2766 2266 
Q 2766 2663 2505 2880 
Q 2244 3097 1772 3097 
Q 1472 3097 1187 3025 
Q 903 2953 641 2809 
L 641 3341 
Q 956 3463 1253 3523 
Q 1550 3584 1831 3584 
Q 2591 3584 2966 3190 
Q 3341 2797 3341 1997 
z
" id="DejaVuSans-61" transform="scale(0.015625)"/>
       <path d="M 2834 3397 
L 2834 2853 
Q 2591 2978 2328 3040 
Q 2066 3103 1784 3103 
Q 1356 3103 1142 2972 
Q 928 2841 928 2578 
Q 928 2378 1081 2264 
Q 1234 2150 1697 2047 
L 1894 2003 
Q 2506 1872 2764 1633 
Q 3022 1394 3022 966 
Q 3022 478 2636 193 
Q 2250 -91 1575 -91 
Q 1294 -91 989 -36 
Q 684 19 347 128 
L 347 722 
Q 666 556 975 473 
Q 1284 391 1588 391 
Q 1994 391 2212 530 
Q 2431 669 2431 922 
Q 2431 1156 2273 1281 
Q 2116 1406 1581 1522 
L 1381 1569 
Q 847 1681 609 1914 
Q 372 2147 372 2553 
Q 372 3047 722 3315 
Q 1072 3584 1716 3584 
Q 2034 3584 2315 3537 
Q 2597 3491 2834 3397 
z
" id="DejaVuSans-73" transform="scale(0.015625)"/>
       <path d="M 1625 4666 
L 2156 4666 
L 531 -594 
L 0 -594 
L 1625 4666 
z
" id="DejaVuSans-2f" transform="scale(0.015625)"/>
       <path d="M 2906 2969 
L 2906 4863 
L 3481 4863 
L 3481 0 
L 2906 0 
L 2906 525 
Q 2725 213 2448 61 
Q 2172 -91 1784 -91 
Q 1150 -91 751 415 
Q 353 922 353 1747 
Q 353 2572 751 3078 
Q 1150 3584 1784 3584 
Q 2172 3584 2448 3432 
Q 2725 3281 2906 2969 
z
M 947 1747 
Q 947 1113 1208 752 
Q 1469 391 1925 391 
Q 2381 391 2643 752 
Q 2906 1113 2906 1747 
Q 2906 2381 2643 2742 
Q 2381 3103 1925 3103 
Q 1469 3103 1208 2742 
Q 947 2381 947 1747 
z
" id="DejaVuSans-64" transform="scale(0.015625)"/>
       <path d="M 603 3500 
L 1178 3500 
L 1178 0 
L 603 0 
L 603 3500 
z
M 603 4863 
L 1178 4863 
L 1178 4134 
L 603 4134 
L 603 4863 
z
" id="DejaVuSans-69" transform="scale(0.015625)"/>
       <path d="M 3328 2828 
Q 3544 3216 3844 3400 
Q 4144 3584 4550 3584 
Q 5097 3584 5394 3201 
Q 5691 2819 5691 2113 
L 5691 0 
L 5113 0 
L 5113 2094 
Q 5113 2597 4934 2840 
Q 4756 3084 4391 3084 
Q 3944 3084 3684 2787 
Q 3425 2491 3425 1978 
L 3425 0 
L 2847 0 
L 2847 2094 
Q 2847 2600 2669 2842 
Q 2491 3084 2119 3084 
Q 1678 3084 1418 2786 
Q 1159 2488 1159 1978 
L 1159 0 
L 581 0 
L 581 3500 
L 1159 3500 
L 1159 2956 
Q 1356 3278 1631 3431 
Q 1906 3584 2284 3584 
Q 2666 3584 2933 3390 
Q 3200 3197 3328 2828 
z
" id="DejaVuSans-6d" transform="scale(0.015625)"/>
       <path d="M 3513 2113 
L 3513 0 
L 2938 0 
L 2938 2094 
Q 2938 2591 2744 2837 
Q 2550 3084 2163 3084 
Q 1697 3084 1428 2787 
Q 1159 2491 1159 1978 
L 1159 0 
L 581 0 
L 581 3500 
L 1159 3500 
L 1159 2956 
Q 1366 3272 1645 3428 
Q 1925 3584 2291 3584 
Q 2894 3584 3203 3211 
Q 3513 2838 3513 2113 
z
" id="DejaVuSans-6e" transform="scale(0.015625)"/>
       <path d="M 513 4856 
L 1013 4856 
Q 1481 4119 1714 3412 
Q 1947 2706 1947 2009 
Q 1947 1309 1714 600 
Q 1481 -109 1013 -844 
L 513 -844 
Q 928 -128 1133 580 
Q 1338 1288 1338 2009 
Q 1338 2731 1133 3434 
Q 928 4138 513 4856 
z
" id="DejaVuSans-29" transform="scale(0.015625)"/>
      </defs>
      <use xlink:href="#DejaVuSans-6c"/>
      <use x="27.783203" xlink:href="#DejaVuSans-6f"/>
      <use x="88.964844" xlink:href="#DejaVuSans-67"/>
      <use x="152.441406" xlink:href="#DejaVuSans-31"/>
      <use x="216.064453" xlink:href="#DejaVuSans-30"/>
      <use x="279.6875" xlink:href="#DejaVuSans-28"/>
      <use x="318.701172" xlink:href="#DejaVuSans-23"/>
      <use x="402.490234" xlink:href="#DejaVuSans-20"/>
      <use x="434.277344" xlink:href="#DejaVuSans-66"/>
      <use x="463.982422" xlink:href="#DejaVuSans-2d"/>
      <use x="500.066406" xlink:href="#DejaVuSans-65"/>
      <use x="561.589844" xlink:href="#DejaVuSans-76"/>
      <use x="620.769531" xlink:href="#DejaVuSans-61"/>
      <use x="682.048828" xlink:href="#DejaVuSans-6c"/>
      <use x="709.832031" xlink:href="#DejaVuSans-73"/>
      <use x="761.931641" xlink:href="#DejaVuSans-20"/>
      <use x="793.71875" xlink:href="#DejaVuSans-2f"/>
      <use x="827.410156" xlink:href="#DejaVuSans-20"/>
      <use x="859.197266" xlink:href="#DejaVuSans-64"/>
      <use x="922.673828" xlink:href="#DejaVuSans-69"/>
      <use x="950.457031" xlink:href="#DejaVuSans-6d"/>
      <use x="1047.869141" xlink:href="#DejaVuSans-65"/>
      <use x="1109.392578" xlink:href="#DejaVuSans-6e"/>
      <use x="1172.771484" xlink:href="#DejaVuSans-73"/>
      <use x="1224.871094" xlink:href="#DejaVuSans-69"/>
      <use x="1252.654297" xlink:href="#DejaVuSans-6f"/>
      <use x="1313.835938" xlink:href="#DejaVuSans-6e"/>
      <use x="1377.214844" xlink:href="#DejaVuSans-29"/>
     </g>
    </g>
   </g>
   <g id="matplotlib.axis_2">
    <g id="ytick_1">
     <g id="line2d_21">
      <path clip-path="url(#p114c9fd62d)" d="M 57.6 298.944 
L 338.688 298.944 
" style="fill:none;stroke:#b0b0b0;stroke-linecap:square;stroke-width:0.8;"/>
     </g>
     <g id="line2d_22">
      <defs>
       <path d="M 0 0 
L -3.5 0 
" id="m46e7d850ad" style="stroke:#000000;stroke-width:0.8;"/>
      </defs>
      <g>
       <use style="stroke:#000000;stroke-width:0.8;" x="57.6" xlink:href="#m46e7d850ad" y="298.944"/>
      </g>
     </g>
     <g id="text_6">
      <!-- 0.0 -->
      <g transform="translate(25.155 305.02275)scale(0.16 -0.16)">
       <defs>
        <path d="M 684 794 
L 1344 794 
L 1344 0 
L 684 0 
L 684 794 
z
" id="DejaVuSans-2e" transform="scale(0.015625)"/>
       </defs>
       <use xlink:href="#DejaVuSans-30"/>
       <use x="63.623047" xlink:href="#DejaVuSans-2e"/>
       <use x="95.410156" xlink:href="#DejaVuSans-30"/>
      </g>
     </g>
    </g>
    <g id="ytick_2">
     <g id="line2d_23">
      <path clip-path="url(#p114c9fd62d)" d="M 57.6 240.431525 
L 338.688 240.431525 
" style="fill:none;stroke:#b0b0b0;stroke-linecap:square;stroke-width:0.8;"/>
     </g>
     <g id="line2d_24">
      <g>
       <use style="stroke:#000000;stroke-width:0.8;" x="57.6" xlink:href="#m46e7d850ad" y="240.431525"/>
      </g>
     </g>
     <g id="text_7">
      <!-- 0.2 -->
      <g transform="translate(25.155 246.510275)scale(0.16 -0.16)">
       <use xlink:href="#DejaVuSans-30"/>
       <use x="63.623047" xlink:href="#DejaVuSans-2e"/>
       <use x="95.410156" xlink:href="#DejaVuSans-32"/>
      </g>
     </g>
    </g>
    <g id="ytick_3">
     <g id="line2d_25">
      <path clip-path="url(#p114c9fd62d)" d="M 57.6 181.91905 
L 338.688 181.91905 
" style="fill:none;stroke:#b0b0b0;stroke-linecap:square;stroke-width:0.8;"/>
     </g>
     <g id="line2d_26">
      <g>
       <use style="stroke:#000000;stroke-width:0.8;" x="57.6" xlink:href="#m46e7d850ad" y="181.91905"/>
      </g>
     </g>
     <g id="text_8">
      <!-- 0.4 -->
      <g transform="translate(25.155 187.9978)scale(0.16 -0.16)">
       <use xlink:href="#DejaVuSans-30"/>
       <use x="63.623047" xlink:href="#DejaVuSans-2e"/>
       <use x="95.410156" xlink:href="#DejaVuSans-34"/>
      </g>
     </g>
    </g>
    <g id="ytick_4">
     <g id="line2d_27">
      <path clip-path="url(#p114c9fd62d)" d="M 57.6 123.406574 
L 338.688 123.406574 
" style="fill:none;stroke:#b0b0b0;stroke-linecap:square;stroke-width:0.8;"/>
     </g>
     <g id="line2d_28">
      <g>
       <use style="stroke:#000000;stroke-width:0.8;" x="57.6" xlink:href="#m46e7d850ad" y="123.406574"/>
      </g>
     </g>
     <g id="text_9">
      <!-- 0.6 -->
      <g transform="translate(25.155 129.485324)scale(0.16 -0.16)">
       <use xlink:href="#DejaVuSans-30"/>
       <use x="63.623047" xlink:href="#DejaVuSans-2e"/>
       <use x="95.410156" xlink:href="#DejaVuSans-36"/>
      </g>
     </g>
    </g>
    <g id="ytick_5">
     <g id="line2d_29">
      <path clip-path="url(#p114c9fd62d)" d="M 57.6 64.894099 
L 338.688 64.894099 
" style="fill:none;stroke:#b0b0b0;stroke-linecap:square;stroke-width:0.8;"/>
     </g>
     <g id="line2d_30">
      <g>
       <use style="stroke:#000000;stroke-width:0.8;" x="57.6" xlink:href="#m46e7d850ad" y="64.894099"/>
      </g>
     </g>
     <g id="text_10">
      <!-- 0.8 -->
      <g transform="translate(25.155 70.972849)scale(0.16 -0.16)">
       <defs>
        <path d="M 2034 2216 
Q 1584 2216 1326 1975 
Q 1069 1734 1069 1313 
Q 1069 891 1326 650 
Q 1584 409 2034 409 
Q 2484 409 2743 651 
Q 3003 894 3003 1313 
Q 3003 1734 2745 1975 
Q 2488 2216 2034 2216 
z
M 1403 2484 
Q 997 2584 770 2862 
Q 544 3141 544 3541 
Q 544 4100 942 4425 
Q 1341 4750 2034 4750 
Q 2731 4750 3128 4425 
Q 3525 4100 3525 3541 
Q 3525 3141 3298 2862 
Q 3072 2584 2669 2484 
Q 3125 2378 3379 2068 
Q 3634 1759 3634 1313 
Q 3634 634 3220 271 
Q 2806 -91 2034 -91 
Q 1263 -91 848 271 
Q 434 634 434 1313 
Q 434 1759 690 2068 
Q 947 2378 1403 2484 
z
M 1172 3481 
Q 1172 3119 1398 2916 
Q 1625 2713 2034 2713 
Q 2441 2713 2670 2916 
Q 2900 3119 2900 3481 
Q 2900 3844 2670 4047 
Q 2441 4250 2034 4250 
Q 1625 4250 1398 4047 
Q 1172 3844 1172 3481 
z
" id="DejaVuSans-38" transform="scale(0.015625)"/>
       </defs>
       <use xlink:href="#DejaVuSans-30"/>
       <use x="63.623047" xlink:href="#DejaVuSans-2e"/>
       <use x="95.410156" xlink:href="#DejaVuSans-38"/>
      </g>
     </g>
    </g>
    <g id="ytick_6">
     <g id="line2d_31">
      <path clip-path="url(#p114c9fd62d)" d="M 57.6 6.381624 
L 338.688 6.381624 
" style="fill:none;stroke:#b0b0b0;stroke-linecap:square;stroke-width:0.8;"/>
     </g>
     <g id="line2d_32">
      <g>
       <use style="stroke:#000000;stroke-width:0.8;" x="57.6" xlink:href="#m46e7d850ad" y="6.381624"/>
      </g>
     </g>
     <g id="text_11">
      <!-- 1.0 -->
      <g transform="translate(25.155 12.460374)scale(0.16 -0.16)">
       <use xlink:href="#DejaVuSans-31"/>
       <use x="63.623047" xlink:href="#DejaVuSans-2e"/>
       <use x="95.410156" xlink:href="#DejaVuSans-30"/>
      </g>
     </g>
    </g>
    <g id="text_12">
     <!-- Fraction of function,target pairs -->
     <g transform="translate(17.619531 285.585)rotate(-90)scale(0.17 -0.17)">
      <defs>
       <path d="M 628 4666 
L 3309 4666 
L 3309 4134 
L 1259 4134 
L 1259 2759 
L 3109 2759 
L 3109 2228 
L 1259 2228 
L 1259 0 
L 628 0 
L 628 4666 
z
" id="DejaVuSans-46" transform="scale(0.015625)"/>
       <path d="M 2631 2963 
Q 2534 3019 2420 3045 
Q 2306 3072 2169 3072 
Q 1681 3072 1420 2755 
Q 1159 2438 1159 1844 
L 1159 0 
L 581 0 
L 581 3500 
L 1159 3500 
L 1159 2956 
Q 1341 3275 1631 3429 
Q 1922 3584 2338 3584 
Q 2397 3584 2469 3576 
Q 2541 3569 2628 3553 
L 2631 2963 
z
" id="DejaVuSans-72" transform="scale(0.015625)"/>
       <path d="M 3122 3366 
L 3122 2828 
Q 2878 2963 2633 3030 
Q 2388 3097 2138 3097 
Q 1578 3097 1268 2742 
Q 959 2388 959 1747 
Q 959 1106 1268 751 
Q 1578 397 2138 397 
Q 2388 397 2633 464 
Q 2878 531 3122 666 
L 3122 134 
Q 2881 22 2623 -34 
Q 2366 -91 2075 -91 
Q 1284 -91 818 406 
Q 353 903 353 1747 
Q 353 2603 823 3093 
Q 1294 3584 2113 3584 
Q 2378 3584 2631 3529 
Q 2884 3475 3122 3366 
z
" id="DejaVuSans-63" transform="scale(0.015625)"/>
       <path d="M 1172 4494 
L 1172 3500 
L 2356 3500 
L 2356 3053 
L 1172 3053 
L 1172 1153 
Q 1172 725 1289 603 
Q 1406 481 1766 481 
L 2356 481 
L 2356 0 
L 1766 0 
Q 1100 0 847 248 
Q 594 497 594 1153 
L 594 3053 
L 172 3053 
L 172 3500 
L 594 3500 
L 594 4494 
L 1172 4494 
z
" id="DejaVuSans-74" transform="scale(0.015625)"/>
       <path d="M 544 1381 
L 544 3500 
L 1119 3500 
L 1119 1403 
Q 1119 906 1312 657 
Q 1506 409 1894 409 
Q 2359 409 2629 706 
Q 2900 1003 2900 1516 
L 2900 3500 
L 3475 3500 
L 3475 0 
L 2900 0 
L 2900 538 
Q 2691 219 2414 64 
Q 2138 -91 1772 -91 
Q 1169 -91 856 284 
Q 544 659 544 1381 
z
M 1991 3584 
L 1991 3584 
z
" id="DejaVuSans-75" transform="scale(0.015625)"/>
       <path d="M 750 794 
L 1409 794 
L 1409 256 
L 897 -744 
L 494 -744 
L 750 256 
L 750 794 
z
" id="DejaVuSans-2c" transform="scale(0.015625)"/>
       <path d="M 1159 525 
L 1159 -1331 
L 581 -1331 
L 581 3500 
L 1159 3500 
L 1159 2969 
Q 1341 3281 1617 3432 
Q 1894 3584 2278 3584 
Q 2916 3584 3314 3078 
Q 3713 2572 3713 1747 
Q 3713 922 3314 415 
Q 2916 -91 2278 -91 
Q 1894 -91 1617 61 
Q 1341 213 1159 525 
z
M 3116 1747 
Q 3116 2381 2855 2742 
Q 2594 3103 2138 3103 
Q 1681 3103 1420 2742 
Q 1159 2381 1159 1747 
Q 1159 1113 1420 752 
Q 1681 391 2138 391 
Q 2594 391 2855 752 
Q 3116 1113 3116 1747 
z
" id="DejaVuSans-70" transform="scale(0.015625)"/>
      </defs>
      <use xlink:href="#DejaVuSans-46"/>
      <use x="50.269531" xlink:href="#DejaVuSans-72"/>
      <use x="91.382812" xlink:href="#DejaVuSans-61"/>
      <use x="152.662109" xlink:href="#DejaVuSans-63"/>
      <use x="207.642578" xlink:href="#DejaVuSans-74"/>
      <use x="246.851562" xlink:href="#DejaVuSans-69"/>
      <use x="274.634766" xlink:href="#DejaVuSans-6f"/>
      <use x="335.816406" xlink:href="#DejaVuSans-6e"/>
      <use x="399.195312" xlink:href="#DejaVuSans-20"/>
      <use x="430.982422" xlink:href="#DejaVuSans-6f"/>
      <use x="492.164062" xlink:href="#DejaVuSans-66"/>
      <use x="527.369141" xlink:href="#DejaVuSans-20"/>
      <use x="559.15625" xlink:href="#DejaVuSans-66"/>
      <use x="594.361328" xlink:href="#DejaVuSans-75"/>
      <use x="657.740234" xlink:href="#DejaVuSans-6e"/>
      <use x="721.119141" xlink:href="#DejaVuSans-63"/>
      <use x="776.099609" xlink:href="#DejaVuSans-74"/>
      <use x="815.308594" xlink:href="#DejaVuSans-69"/>
      <use x="843.091797" xlink:href="#DejaVuSans-6f"/>
      <use x="904.273438" xlink:href="#DejaVuSans-6e"/>
      <use x="967.652344" xlink:href="#DejaVuSans-2c"/>
      <use x="999.439453" xlink:href="#DejaVuSans-74"/>
      <use x="1038.648438" xlink:href="#DejaVuSans-61"/>
      <use x="1099.927734" xlink:href="#DejaVuSans-72"/>
      <use x="1139.291016" xlink:href="#DejaVuSans-67"/>
      <use x="1202.767578" xlink:href="#DejaVuSans-65"/>
      <use x="1264.291016" xlink:href="#DejaVuSans-74"/>
      <use x="1303.5" xlink:href="#DejaVuSans-20"/>
      <use x="1335.287109" xlink:href="#DejaVuSans-70"/>
      <use x="1398.763672" xlink:href="#DejaVuSans-61"/>
      <use x="1460.042969" xlink:href="#DejaVuSans-69"/>
      <use x="1487.826172" xlink:href="#DejaVuSans-72"/>
      <use x="1528.939453" xlink:href="#DejaVuSans-73"/>
     </g>
    </g>
   </g>
   <g id="line2d_33">
    <defs>
     <path d="M 0 1.5 
C 0.397805 1.5 0.77937 1.341951 1.06066 1.06066 
C 1.341951 0.77937 1.5 0.397805 1.5 0 
C 1.5 -0.397805 1.341951 -0.77937 1.06066 -1.06066 
C 0.77937 -1.341951 0.397805 -1.5 0 -1.5 
C -0.397805 -1.5 -0.77937 -1.341951 -1.06066 -1.06066 
C -1.341951 -0.77937 -1.5 -0.397805 -1.5 0 
C -1.5 0.397805 -1.341951 0.77937 -1.06066 1.06066 
C -0.77937 1.341951 -0.397805 1.5 0 1.5 
z
" id="m3473212799" style="stroke:#f5deb3;"/>
    </defs>
    <g>
     <use style="fill:#f5deb3;stroke:#f5deb3;" x="257.684754" xlink:href="#m3473212799" y="41.690876"/>
     <use style="fill:#f5deb3;stroke:#f5deb3;" x="257.684754" xlink:href="#m3473212799" y="41.690876"/>
    </g>
   </g>
   <g id="line2d_34">
    <defs>
     <path d="M 0 1.5 
C 0.397805 1.5 0.77937 1.341951 1.06066 1.06066 
C 1.341951 0.77937 1.5 0.397805 1.5 0 
C 1.5 -0.397805 1.341951 -0.77937 1.06066 -1.06066 
C 0.77937 -1.341951 0.397805 -1.5 0 -1.5 
C -0.397805 -1.5 -0.77937 -1.341951 -1.06066 -1.06066 
C -1.341951 -0.77937 -1.5 -0.397805 -1.5 0 
C -1.5 0.397805 -1.341951 0.77937 -1.06066 1.06066 
C -0.77937 1.341951 -0.397805 1.5 0 1.5 
z
" id="mfb77748b92" style="stroke:#000080;"/>
    </defs>
    <g>
     <use style="fill:#000080;stroke:#000080;" x="215.405956" xlink:href="#mfb77748b92" y="222.272481"/>
     <use style="fill:#000080;stroke:#000080;" x="215.405956" xlink:href="#mfb77748b92" y="222.272481"/>
    </g>
   </g>
   <g id="line2d_35">
    <path d="M 45.512012 298.944 
L 45.512012 292.638776 
L 73.579452 292.638776 
L 73.579452 291.251627 
L 76.759008 291.251627 
L 76.759008 290.368896 
L 79.447285 290.368896 
L 79.447285 286.964075 
L 81.775977 286.964075 
L 81.775977 286.207448 
L 83.830028 286.207448 
L 83.830028 285.198612 
L 85.66744 285.198612 
L 85.66744 280.91106 
L 87.329581 280.91106 
L 87.329581 280.028329 
L 88.846997 280.028329 
L 88.846997 279.145598 
L 90.242884 279.145598 
L 90.242884 278.010658 
L 91.535274 278.010658 
L 91.535274 277.001822 
L 92.73846 277.001822 
L 92.73846 275.992986 
L 93.863965 275.992986 
L 93.863965 273.597001 
L 94.921215 273.597001 
L 94.921215 271.957643 
L 95.918017 271.957643 
L 95.918017 271.453225 
L 96.86091 271.453225 
L 96.86091 270.066076 
L 97.755429 270.066076 
L 97.755429 269.05724 
L 98.606294 269.05724 
L 98.606294 267.9223 
L 99.41757 267.9223 
L 99.41757 266.661255 
L 100.192776 266.661255 
L 100.192776 266.156837 
L 100.934985 266.156837 
L 100.934985 265.778524 
L 101.646892 265.778524 
L 101.646892 264.517479 
L 102.330873 264.517479 
L 102.330873 263.634748 
L 102.989037 263.634748 
L 102.989037 261.490972 
L 103.623262 261.490972 
L 103.623262 260.986554 
L 104.23523 260.986554 
L 104.23523 259.599405 
L 104.826449 259.599405 
L 104.826449 258.842778 
L 105.398279 258.842778 
L 105.398279 258.716673 
L 105.951954 258.716673 
L 105.951954 257.833942 
L 106.48859 257.833942 
L 106.48859 257.455629 
L 107.514726 257.455629 
L 107.514726 256.320688 
L 108.006005 256.320688 
L 108.006005 255.437957 
L 108.483824 255.437957 
L 108.483824 254.933539 
L 108.948899 254.933539 
L 108.948899 254.555226 
L 109.401893 254.555226 
L 109.401893 253.924703 
L 109.843417 253.924703 
L 109.843417 253.168076 
L 110.274038 253.168076 
L 110.274038 252.663659 
L 110.694282 252.663659 
L 110.694282 252.033136 
L 111.505558 252.033136 
L 111.505558 250.898196 
L 111.897469 250.898196 
L 111.897469 250.772091 
L 112.655818 250.772091 
L 112.655818 250.267674 
L 113.022974 250.267674 
L 113.022974 250.141569 
L 113.382559 250.141569 
L 113.382559 249.763256 
L 113.73488 249.763256 
L 113.73488 249.511047 
L 114.080224 249.511047 
L 114.080224 249.384942 
L 114.751048 249.384942 
L 114.751048 249.132733 
L 115.077025 249.132733 
L 115.077025 248.880524 
L 115.711251 248.880524 
L 115.711251 248.502211 
L 116.019919 248.502211 
L 116.019919 248.376107 
L 116.323218 248.376107 
L 116.323218 248.250002 
L 116.621333 248.250002 
L 116.621333 247.871689 
L 116.914437 247.871689 
L 116.914437 247.115062 
L 117.202696 247.115062 
L 117.202696 246.610644 
L 117.486268 246.610644 
L 117.486268 246.484539 
L 117.765302 246.484539 
L 117.765302 245.854017 
L 118.310324 245.854017 
L 118.310324 245.09739 
L 118.838828 245.09739 
L 118.838828 244.719077 
L 119.602714 244.719077 
L 119.602714 244.088554 
L 119.850084 244.088554 
L 119.850084 243.710241 
L 120.093994 243.710241 
L 120.093994 243.458032 
L 120.33454 243.458032 
L 120.33454 243.205823 
L 121.036887 243.205823 
L 121.036887 243.079719 
L 121.931406 243.079719 
L 121.931406 242.82751 
L 122.362027 242.82751 
L 122.362027 242.575301 
L 122.573415 242.575301 
L 122.573415 242.323092 
L 122.988655 242.323092 
L 122.988655 242.196987 
L 123.593547 242.196987 
L 123.593547 242.070883 
L 124.178158 242.070883 
L 124.178158 241.944778 
L 124.368753 241.944778 
L 124.368753 241.818674 
L 124.557288 241.818674 
L 124.557288 241.566465 
L 128.260216 241.566465 
L 128.260216 241.314256 
L 129.147151 241.314256 
L 129.147151 240.809838 
L 130.263646 240.809838 
L 130.263646 240.683734 
L 130.531948 240.683734 
L 130.531948 240.431525 
L 132.541568 240.431525 
L 132.541568 240.179316 
L 134.12805 240.179316 
L 134.12805 239.927107 
L 144.209312 239.927107 
L 144.209312 239.674898 
L 144.45069 239.674898 
L 144.45069 239.548793 
L 144.688773 239.548793 
L 144.688773 239.422689 
L 145.327221 239.422689 
L 145.327221 239.17048 
L 146.538004 239.17048 
L 146.538004 239.044376 
L 146.696785 239.044376 
L 146.801841 238.539958 
L 147.010073 238.539958 
L 147.010073 238.287749 
L 147.266916 238.287749 
L 147.266916 238.03554 
L 147.96658 238.03554 
L 147.96658 237.909435 
L 149.60198 237.909435 
L 149.60198 237.783331 
L 150.042389 237.783331 
L 150.042389 237.657226 
L 150.808139 237.657226 
L 150.808139 237.405017 
L 152.959038 237.405017 
L 152.959038 237.152808 
L 155.329071 237.152808 
L 155.393186 236.9006 
L 155.678822 236.9006 
L 155.773004 236.648391 
L 157.1279 236.648391 
L 157.1279 236.522286 
L 158.276927 236.522286 
L 158.276927 236.396182 
L 160.273627 236.396182 
L 160.273627 236.143973 
L 160.442124 236.143973 
L 160.442124 235.765659 
L 160.891432 235.765659 
L 160.891432 235.51345 
L 161.374928 235.51345 
L 161.374928 235.261241 
L 162.130378 235.261241 
L 162.130378 235.135137 
L 167.687935 235.135137 
L 167.687935 234.756823 
L 167.87664 234.756823 
L 167.87664 234.504615 
L 168.01684 234.504615 
L 168.01684 234.252406 
L 170.40555 234.252406 
L 170.446091 233.621883 
L 171.134225 233.621883 
L 171.134225 233.369674 
L 171.366236 233.369674 
L 171.455636 232.991361 
L 172.288901 232.991361 
L 172.288901 232.739152 
L 172.470121 232.739152 
L 172.470121 232.486943 
L 173.291774 232.486943 
L 173.291774 232.360839 
L 173.911252 232.360839 
L 173.911252 232.234734 
L 174.13117 232.234734 
L 174.207491 231.099794 
L 174.391462 231.099794 
L 174.434469 230.847585 
L 176.112223 230.847585 
L 176.141459 230.595376 
L 176.706692 230.595376 
L 176.706692 230.469271 
L 176.912855 230.469271 
L 176.912855 230.217062 
L 177.042792 230.217062 
L 177.042792 230.090958 
L 177.571019 230.090958 
L 177.65157 229.712645 
L 178.005141 229.712645 
L 178.005141 229.58654 
L 178.179274 229.58654 
L 178.179274 229.334331 
L 178.513913 229.334331 
L 178.513913 229.082122 
L 178.850589 229.082122 
L 178.850589 228.4516 
L 179.521099 228.4516 
L 179.521099 228.325495 
L 180.135832 228.325495 
L 180.135832 228.073286 
L 180.526366 228.073286 
L 180.526366 227.947182 
L 181.38336 227.947182 
L 181.38336 227.821078 
L 183.209233 227.821078 
L 183.209233 227.568869 
L 183.428598 227.568869 
L 183.486206 227.190555 
L 183.600855 227.190555 
L 183.638904 226.938346 
L 183.721061 226.938346 
L 183.721061 226.686137 
L 184.594129 226.686137 
L 184.594129 226.433928 
L 184.832374 226.433928 
L 184.832374 226.307824 
L 185.465544 226.307824 
L 185.539547 225.92951 
L 187.325189 225.92951 
L 187.325189 225.803406 
L 187.835545 225.803406 
L 187.835545 225.677301 
L 189.014812 225.677301 
L 189.024118 225.172884 
L 193.384622 225.172884 
L 193.384622 225.046779 
L 193.979342 225.046779 
L 193.979342 224.920675 
L 194.156993 224.920675 
L 194.156993 224.668466 
L 194.312255 224.668466 
L 194.312255 224.542361 
L 194.632189 224.542361 
L 194.632189 224.416257 
L 195.02897 224.416257 
L 195.02897 224.290152 
L 195.238689 224.290152 
L 195.238689 224.037943 
L 197.047087 224.037943 
L 197.047087 223.911839 
L 202.886373 223.911839 
L 202.886373 223.407421 
L 205.264889 223.407421 
L 205.264889 223.155212 
L 208.999476 223.155212 
L 208.999476 222.903003 
L 212.13063 222.903003 
L 212.13063 222.776899 
L 214.900676 222.776899 
L 214.900676 222.398585 
L 215.405956 222.398585 
L 215.405956 222.272481 
L 338.688 222.272481 
L 338.688 222.272481 
" style="fill:none;stroke:#000080;stroke-linecap:square;stroke-width:1.5;"/>
   </g>
   <g id="line2d_36">
    <defs>
     <path d="M 0 6 
C 1.591219 6 3.117479 5.367802 4.242641 4.242641 
C 5.367802 3.117479 6 1.591219 6 0 
C 6 -1.591219 5.367802 -3.117479 4.242641 -4.242641 
C 3.117479 -5.367802 1.591219 -6 0 -6 
C -1.591219 -6 -3.117479 -5.367802 -4.242641 -4.242641 
C -5.367802 -3.117479 -6 -1.591219 -6 0 
C -6 1.591219 -5.367802 3.117479 -4.242641 4.242641 
C -3.117479 5.367802 -1.591219 6 0 6 
z
" id="m6c77a98952" style="stroke:#000080;stroke-width:1.5;"/>
    </defs>
    <g>
     <use style="fill-opacity:0;stroke:#000080;stroke-width:1.5;" x="130.531948" xlink:href="#m6c77a98952" y="240.431525"/>
     <use style="fill-opacity:0;stroke:#000080;stroke-width:1.5;" x="197.047087" xlink:href="#m6c77a98952" y="224.037943"/>
     <use style="fill-opacity:0;stroke:#000080;stroke-width:1.5;" x="215.405956" xlink:href="#m6c77a98952" y="222.398585"/>
     <use style="fill-opacity:0;stroke:#000080;stroke-width:1.5;" x="215.405956" xlink:href="#m6c77a98952" y="222.272481"/>
     <use style="fill-opacity:0;stroke:#000080;stroke-width:1.5;" x="215.405956" xlink:href="#m6c77a98952" y="222.272481"/>
     <use style="fill-opacity:0;stroke:#000080;stroke-width:1.5;" x="338.688" xlink:href="#m6c77a98952" y="222.272481"/>
    </g>
   </g>
   <g id="line2d_37">
    <path style="fill:none;stroke:#000080;stroke-linecap:square;stroke-width:1.5;"/>
    <g/>
   </g>
   <g id="line2d_38">
    <path clip-path="url(#p114c9fd62d)" d="M 234.732897 222.272481 
" style="fill:none;stroke:#000080;stroke-linecap:square;stroke-width:1.5;"/>
    <defs>
     <path d="M -12 12 
L 12 -12 
M -12 -12 
L 12 12 
" id="m420e4ac061" style="stroke:#000080;"/>
    </defs>
    <g clip-path="url(#p114c9fd62d)">
     <use style="fill:#000080;stroke:#000080;" x="234.732897" xlink:href="#m420e4ac061" y="222.272481"/>
    </g>
   </g>
   <g id="line2d_39">
    <defs>
     <path d="M 0 1.5 
C 0.397805 1.5 0.77937 1.341951 1.06066 1.06066 
C 1.341951 0.77937 1.5 0.397805 1.5 0 
C 1.5 -0.397805 1.341951 -0.77937 1.06066 -1.06066 
C 0.77937 -1.341951 0.397805 -1.5 0 -1.5 
C -0.397805 -1.5 -0.77937 -1.341951 -1.06066 -1.06066 
C -1.341951 -0.77937 -1.5 -0.397805 -1.5 0 
C -1.5 0.397805 -1.341951 0.77937 -1.06066 1.06066 
C -0.77937 1.341951 -0.397805 1.5 0 1.5 
z
" id="m5af9cbe0cb" style="stroke:#ff00ff;"/>
    </defs>
    <g>
     <use style="fill:#ff00ff;stroke:#ff00ff;" x="234.129518" xlink:href="#m5af9cbe0cb" y="177.379288"/>
     <use style="fill:#ff00ff;stroke:#ff00ff;" x="234.129518" xlink:href="#m5af9cbe0cb" y="177.379288"/>
    </g>
   </g>
   <g id="line2d_40">
    <path d="M 69.687988 298.944 
L 69.687988 296.169702 
L 76.759008 296.169702 
L 76.759008 296.043597 
L 81.775977 296.043597 
L 81.775977 295.917493 
L 100.192776 295.917493 
L 100.192776 295.160866 
L 101.646892 295.160866 
L 101.646892 294.15203 
L 102.330873 294.15203 
L 102.330873 293.899821 
L 108.483824 293.899821 
L 108.483824 293.521508 
L 109.843417 293.521508 
L 109.843417 293.395403 
L 112.655818 293.395403 
L 112.655818 293.143194 
L 113.73488 293.143194 
L 113.73488 292.638776 
L 114.080224 292.638776 
L 114.080224 291.88215 
L 114.418861 291.88215 
L 114.418861 291.629941 
L 116.019919 291.629941 
L 116.019919 291.125523 
L 116.323218 291.125523 
L 116.323218 290.873314 
L 117.202696 290.873314 
L 117.202696 290.621105 
L 118.310324 290.621105 
L 118.310324 290.242791 
L 118.576578 290.242791 
L 118.576578 289.990582 
L 119.850084 289.990582 
L 119.850084 289.738374 
L 120.33454 289.738374 
L 120.33454 289.612269 
L 120.571812 289.612269 
L 120.571812 289.107851 
L 120.8059 289.107851 
L 120.8059 288.981747 
L 121.036887 288.981747 
L 121.036887 288.603433 
L 121.264855 288.603433 
L 121.264855 288.22512 
L 122.573415 288.22512 
L 122.573415 287.972911 
L 122.988655 287.972911 
L 122.988655 287.720702 
L 123.192626 287.720702 
L 123.192626 287.468493 
L 123.394238 287.468493 
L 123.394238 287.342389 
L 124.178158 287.342389 
L 124.178158 286.837971 
L 124.557288 286.837971 
L 124.557288 286.711866 
L 124.743806 286.711866 
L 124.743806 286.207448 
L 125.291682 286.207448 
L 125.291682 285.955239 
L 125.470548 285.955239 
L 125.470548 285.829135 
L 125.647598 285.829135 
L 125.647598 285.450821 
L 125.996395 285.450821 
L 125.996395 284.946404 
L 126.168212 284.946404 
L 126.168212 283.811463 
L 126.839037 283.811463 
L 126.839037 283.307045 
L 127.002787 283.307045 
L 127.002787 283.054836 
L 127.165014 283.054836 
L 127.165014 282.928732 
L 127.48501 282.928732 
L 127.48501 282.802628 
L 127.642832 282.802628 
L 127.642832 282.550419 
L 127.799239 282.550419 
L 127.799239 282.424314 
L 127.954256 282.424314 
L 127.954256 282.29821 
L 128.107907 282.29821 
L 128.107907 281.541583 
L 128.411207 281.541583 
L 128.411207 281.415478 
L 128.560901 281.415478 
L 128.560901 281.163269 
L 128.709321 281.163269 
L 128.709321 281.037165 
L 128.856489 281.037165 
L 128.856489 280.028329 
L 129.002426 280.028329 
L 129.002426 279.902225 
L 129.147151 279.902225 
L 129.147151 279.145598 
L 129.290685 279.145598 
L 129.290685 278.262867 
L 129.574256 278.262867 
L 129.574256 278.010658 
L 129.714332 278.010658 
L 129.714332 277.884553 
L 129.853291 277.884553 
L 129.853291 277.758449 
L 129.991152 277.758449 
L 129.991152 277.632344 
L 130.127931 277.632344 
L 130.127931 277.001822 
L 130.263646 277.001822 
L 130.263646 276.371299 
L 130.398313 276.371299 
L 130.398313 276.245195 
L 130.796184 276.245195 
L 130.796184 275.362464 
L 130.926816 275.362464 
L 130.926816 275.236359 
L 131.565689 275.236359 
L 131.565689 274.98415 
L 131.814826 274.98415 
L 131.814826 274.731941 
L 131.938072 274.731941 
L 131.938072 274.605837 
L 132.060454 274.605837 
L 132.060454 274.479732 
L 132.181982 274.479732 
L 132.181982 274.353628 
L 132.422528 274.353628 
L 132.422528 273.723105 
L 132.541568 273.723105 
L 132.541568 273.597001 
L 132.659801 273.597001 
L 132.659801 273.470897 
L 132.777237 273.470897 
L 132.777237 273.218688 
L 133.009765 273.218688 
L 133.009765 272.966479 
L 133.124876 272.966479 
L 133.124876 272.840374 
L 133.352844 272.840374 
L 133.352844 272.083747 
L 133.800029 272.083747 
L 133.910056 271.705434 
L 134.019394 271.705434 
L 134.12805 270.066076 
L 134.343353 270.066076 
L 134.450015 269.687762 
L 134.55603 269.687762 
L 134.661403 268.805031 
L 134.766144 268.805031 
L 134.766144 268.552822 
L 134.973757 268.552822 
L 135.076644 267.9223 
L 135.280614 267.9223 
L 135.280614 267.796195 
L 135.582166 267.796195 
L 135.582166 266.661255 
L 135.780341 266.661255 
L 135.780341 266.409046 
L 136.073445 266.409046 
L 136.073445 265.904628 
L 136.645276 265.904628 
L 136.738785 265.40021 
L 136.831795 265.40021 
L 136.924311 265.148001 
L 137.289545 265.148001 
L 137.289545 264.26527 
L 137.469333 264.26527 
L 137.469333 263.886957 
L 137.735587 263.886957 
L 137.823442 263.634748 
L 137.910857 263.634748 
L 137.997836 263.382539 
L 138.256201 263.382539 
L 138.256201 263.13033 
L 138.510793 263.13033 
L 138.594838 262.625912 
L 138.927025 262.625912 
L 139.009092 262.247598 
L 139.253002 262.247598 
L 139.253002 261.99539 
L 139.572998 261.99539 
L 139.572998 261.617076 
L 139.730821 261.617076 
L 139.8092 260.229927 
L 139.964909 260.229927 
L 140.042245 259.977718 
L 140.11924 259.977718 
L 140.11924 259.851614 
L 140.423864 259.851614 
L 140.423864 259.094987 
L 140.723258 259.094987 
L 140.723258 258.842778 
L 140.944478 258.842778 
L 141.017599 257.960046 
L 141.162927 257.960046 
L 141.162927 257.707837 
L 141.307054 257.707837 
L 141.378673 257.20342 
L 141.662245 257.20342 
L 141.662245 256.951211 
L 141.80232 256.951211 
L 141.80232 256.699002 
L 141.941279 256.699002 
L 142.010346 255.942375 
L 142.486301 255.942375 
L 142.486301 255.81627 
L 142.619936 255.81627 
L 142.686372 255.185748 
L 142.818488 255.185748 
L 142.818488 255.059644 
L 143.014805 255.059644 
L 143.014805 254.807435 
L 143.337167 254.807435 
L 143.40093 253.924703 
L 143.464461 253.924703 
L 143.464461 253.672494 
L 143.653678 253.672494 
L 143.716296 253.168076 
L 143.778691 253.168076 
L 143.778691 252.915868 
L 143.964547 252.915868 
L 144.026061 252.033136 
L 144.209312 252.033136 
L 144.269971 250.898196 
L 144.923649 250.898196 
L 144.923649 250.772091 
L 145.039911 250.772091 
L 145.039911 250.645987 
L 145.155404 250.645987 
L 145.155404 250.519883 
L 145.384119 250.519883 
L 145.384119 250.393778 
L 145.609873 250.393778 
L 145.609873 250.015465 
L 146.591092 250.015465 
L 146.591092 249.763256 
L 147.010073 249.763256 
L 147.061745 249.006629 
L 147.266916 249.006629 
L 147.266916 248.880524 
L 147.419225 248.880524 
L 147.419225 248.75442 
L 147.670154 248.75442 
L 147.670154 248.628315 
L 147.96658 248.628315 
L 148.064279 247.493375 
L 148.639252 247.493375 
L 148.639252 247.367271 
L 148.780082 247.367271 
L 148.826773 246.610644 
L 149.012299 246.610644 
L 149.012299 246.358435 
L 149.15016 246.358435 
L 149.195872 245.601808 
L 149.286939 245.601808 
L 149.286939 245.475704 
L 149.467659 245.475704 
L 149.467659 245.349599 
L 149.646525 245.349599 
L 149.646525 245.223495 
L 149.779481 245.223495 
L 149.779481 244.971286 
L 149.955193 244.971286 
L 150.042389 244.466868 
L 150.47195 244.466868 
L 150.47195 244.340763 
L 150.682827 244.340763 
L 150.766468 244.088554 
L 150.891184 244.088554 
L 150.973835 243.836346 
L 151.015013 243.836346 
L 151.015013 243.584137 
L 151.178764 243.584137 
L 151.178764 243.331928 
L 151.300575 243.331928 
L 151.340991 242.953614 
L 151.421542 242.953614 
L 151.501723 242.323092 
L 151.541675 242.323092 
L 151.541675 242.196987 
L 151.660987 242.196987 
L 151.660987 242.070883 
L 152.848312 242.070883 
L 152.848312 241.944778 
L 153.430889 241.944778 
L 153.430889 241.440361 
L 153.715038 241.440361 
L 153.715038 241.314256 
L 153.925152 241.314256 
L 153.925152 241.062047 
L 154.371897 241.062047 
L 154.371897 240.935943 
L 154.674612 240.935943 
L 154.674612 240.683734 
L 154.873541 240.683734 
L 154.873541 240.431525 
L 155.004911 240.431525 
L 155.004911 240.30542 
L 155.425155 240.30542 
L 155.520713 239.17048 
L 155.741666 239.17048 
L 155.83551 238.792167 
L 156.021696 238.792167 
L 156.052535 238.539958 
L 156.327657 238.539958 
L 156.327657 238.03554 
L 156.628341 238.03554 
L 156.628341 237.657226 
L 156.776762 237.657226 
L 156.776762 237.531122 
L 157.156845 237.531122 
L 157.156845 237.405017 
L 157.697862 237.405017 
L 157.753847 236.774495 
L 157.809652 236.774495 
L 157.809652 236.522286 
L 158.140788 236.522286 
L 158.140788 236.270077 
L 158.492562 236.270077 
L 158.599388 235.891764 
L 158.705563 235.891764 
L 158.705563 235.639555 
L 158.863624 235.639555 
L 158.863624 235.261241 
L 159.046236 235.261241 
L 159.046236 235.135137 
L 159.931669 235.135137 
L 159.931669 234.882928 
L 160.37011 234.882928 
L 160.418152 234.252406 
L 160.961329 234.252406 
L 161.007772 233.874092 
L 161.352206 233.874092 
L 161.352206 233.621883 
L 161.64531 233.621883 
L 161.64531 233.495779 
L 161.999419 233.495779 
L 161.999419 233.369674 
L 162.581141 233.369674 
L 162.644595 232.613047 
L 162.707819 232.613047 
L 162.707819 232.234734 
L 162.979172 232.234734 
L 162.979172 231.982525 
L 163.549667 231.982525 
L 163.549667 231.730316 
L 163.669525 231.730316 
L 163.689421 231.225898 
L 164.140886 231.225898 
L 164.140886 231.099794 
L 164.917777 231.099794 
L 164.9363 230.595376 
L 165.572509 230.595376 
L 165.572509 230.469271 
L 165.9084 230.469271 
L 165.960849 230.090958 
L 166.595075 230.090958 
L 166.595075 229.838749 
L 167.608702 229.838749 
L 167.608702 229.334331 
L 168.125111 229.334331 
L 168.202038 228.4516 
L 168.849965 228.4516 
L 168.849965 228.199391 
L 169.715615 228.199391 
L 169.813865 227.442764 
L 169.939378 227.442764 
L 169.939378 227.190555 
L 170.105336 227.190555 
L 170.119095 226.812242 
L 170.780315 226.812242 
L 170.780315 226.560033 
L 171.442893 226.560033 
L 171.442893 226.307824 
L 171.871027 226.307824 
L 171.871027 226.181719 
L 172.313173 226.181719 
L 172.313173 226.055615 
L 172.768032 226.055615 
L 172.83878 225.551197 
L 172.909242 225.551197 
L 172.909242 224.542361 
L 173.417442 224.542361 
L 173.417442 224.290152 
L 173.966492 224.290152 
L 174.065485 223.911839 
L 174.616074 223.911839 
L 174.700886 223.281316 
L 174.785287 223.281316 
L 174.879752 223.029108 
L 175.262821 223.029108 
L 175.262821 222.776899 
L 175.506873 222.776899 
L 175.506873 222.650794 
L 175.77741 222.650794 
L 175.85677 222.146376 
L 176.043814 222.146376 
L 176.043814 222.020272 
L 176.697263 222.020272 
L 176.697263 221.768063 
L 176.931477 221.768063 
L 176.931477 221.515854 
L 177.50811 221.515854 
L 177.562046 220.885332 
L 177.705065 220.885332 
L 177.705065 220.759227 
L 177.873391 220.759227 
L 177.873391 220.633123 
L 177.996389 220.633123 
L 177.996389 220.380914 
L 178.783772 220.380914 
L 178.792138 220.0026 
L 178.917151 220.0026 
L 178.917151 219.750391 
L 179.351823 219.750391 
L 179.384193 219.498182 
L 179.561161 219.498182 
L 179.561161 219.372078 
L 179.744273 219.372078 
L 179.823292 218.86766 
L 180.220807 218.86766 
L 180.220807 218.615451 
L 180.863838 218.615451 
L 180.863838 218.489347 
L 181.033834 218.489347 
L 181.033834 218.363242 
L 181.376149 218.363242 
L 181.376149 217.984929 
L 182.103627 217.984929 
L 182.110543 217.228302 
L 182.337254 217.228302 
L 182.337254 216.976093 
L 182.547572 216.976093 
L 182.547572 216.849988 
L 182.914588 216.849988 
L 182.914588 216.597779 
L 183.033044 216.597779 
L 183.085434 216.093362 
L 183.435008 216.093362 
L 183.435008 215.841153 
L 184.255021 215.841153 
L 184.334333 215.21063 
L 184.497912 215.21063 
L 184.497912 214.958421 
L 185.579266 214.958421 
L 185.579266 214.706212 
L 186.409338 214.706212 
L 186.436338 214.201794 
L 186.804731 214.201794 
L 186.804731 213.949586 
L 187.232646 213.949586 
L 187.232646 213.823481 
L 187.386613 213.823481 
L 187.386613 212.688541 
L 188.590821 212.688541 
L 188.590821 212.436332 
L 189.282687 212.436332 
L 189.282687 212.184123 
L 189.541995 212.184123 
L 189.560048 211.553601 
L 189.721691 211.553601 
L 189.757409 211.049183 
L 189.846385 211.049183 
L 189.921659 210.670869 
L 190.525245 210.670869 
L 190.525245 210.41866 
L 191.305647 210.41866 
L 191.305647 210.292556 
L 191.43171 210.292556 
L 191.43171 210.166451 
L 191.552844 210.166451 
L 191.552844 210.040347 
L 191.713059 210.040347 
L 191.713059 209.662033 
L 191.923102 209.662033 
L 191.923102 209.409825 
L 192.320352 209.409825 
L 192.320352 209.28372 
L 192.884852 209.28372 
L 192.884852 209.031511 
L 193.597057 209.031511 
L 193.597057 208.905407 
L 193.909178 208.905407 
L 193.909178 208.653198 
L 194.459336 208.653198 
L 194.459336 208.527093 
L 194.76657 208.527093 
L 194.76657 208.400989 
L 195.10791 208.400989 
L 195.199559 208.14878 
L 195.362027 208.14878 
L 195.362027 207.896571 
L 195.685669 207.896571 
L 195.685669 207.770466 
L 195.824804 207.770466 
L 195.824804 207.518257 
L 196.263336 207.518257 
L 196.297089 207.01384 
L 196.416233 207.01384 
L 196.416233 206.635526 
L 196.549682 206.635526 
L 196.619035 206.131108 
L 196.822481 206.131108 
L 196.914446 205.500586 
L 197.225294 205.500586 
L 197.318057 205.122272 
L 197.370019 205.122272 
L 197.370019 204.996168 
L 198.139711 204.996168 
L 198.139711 204.870064 
L 198.481106 204.870064 
L 198.481106 204.617855 
L 198.781421 204.617855 
L 198.868929 204.239541 
L 198.89536 204.239541 
L 198.924388 203.861228 
L 199.115815 203.861228 
L 199.115815 203.609019 
L 199.328365 203.609019 
L 199.328365 203.482914 
L 199.680325 203.482914 
L 199.69799 203.230705 
L 199.88864 203.230705 
L 199.88864 203.104601 
L 200.170763 203.104601 
L 200.170763 202.978496 
L 200.361198 202.978496 
L 200.361198 202.852392 
L 200.499059 202.852392 
L 200.535158 202.600183 
L 200.697874 202.600183 
L 200.697874 202.347974 
L 201.514454 202.347974 
L 201.518999 200.960825 
L 202.135119 200.960825 
L 202.146082 200.582511 
L 202.564082 200.582511 
L 202.564082 200.456407 
L 202.982746 200.456407 
L 203.078589 199.951989 
L 203.422181 199.951989 
L 203.422181 199.825885 
L 203.572293 199.825885 
L 203.572293 199.69978 
L 204.323421 199.69978 
L 204.375579 199.321467 
L 204.469841 199.321467 
L 204.546413 199.069258 
L 204.634057 199.069258 
L 204.634057 198.943153 
L 205.091729 198.943153 
L 205.091729 198.817049 
L 206.118023 198.817049 
L 206.130238 198.438735 
L 206.302072 198.438735 
L 206.302072 198.186526 
L 206.473939 198.186526 
L 206.473939 198.060422 
L 206.829441 198.060422 
L 206.829441 197.934318 
L 207.110364 197.934318 
L 207.110364 197.682109 
L 207.517804 197.682109 
L 207.6254 196.294959 
L 208.241949 196.294959 
L 208.241949 196.04275 
L 208.530081 196.04275 
L 208.530081 195.790541 
L 208.782096 195.790541 
L 208.782096 195.664437 
L 209.138012 195.664437 
L 209.138012 195.538333 
L 209.557172 195.538333 
L 209.637241 194.90781 
L 209.793458 194.90781 
L 209.793458 194.781706 
L 209.920238 194.781706 
L 209.920238 194.529497 
L 210.490484 194.529497 
L 210.490484 194.277288 
L 210.769432 194.277288 
L 210.769432 194.025079 
L 210.907914 194.025079 
L 210.907914 193.898974 
L 211.14895 193.898974 
L 211.171173 193.394557 
L 211.371209 193.394557 
L 211.4112 193.142348 
L 211.522945 193.142348 
L 211.58812 192.511825 
L 211.749367 192.511825 
L 211.749367 191.881303 
L 211.877801 191.881303 
L 211.877801 191.755198 
L 212.16028 191.755198 
L 212.202198 191.124676 
L 213.078729 191.124676 
L 213.078729 190.998572 
L 213.60017 190.998572 
L 213.60017 190.872467 
L 213.712327 190.872467 
L 213.712327 190.746363 
L 214.280041 190.746363 
L 214.280041 190.620258 
L 214.569483 190.620258 
L 214.569483 190.494154 
L 214.829855 190.494154 
L 214.829855 190.368049 
L 215.959663 190.368049 
L 215.960656 189.989736 
L 216.110893 189.989736 
L 216.189448 189.737527 
L 216.366855 189.737527 
L 216.366855 189.611422 
L 216.654446 189.611422 
L 216.744837 189.359213 
L 216.778022 189.359213 
L 216.801686 188.9809 
L 217.012299 188.9809 
L 217.098069 188.350378 
L 217.220398 188.350378 
L 217.30791 188.098169 
L 217.560599 188.098169 
L 217.560599 187.84596 
L 217.712986 187.84596 
L 217.712986 187.719855 
L 217.995284 187.719855 
L 218.006764 187.341542 
L 218.495959 187.341542 
L 218.495959 187.089333 
L 219.01935 187.089333 
L 219.028511 186.837124 
L 219.228831 186.837124 
L 219.228831 186.711019 
L 219.759754 186.711019 
L 219.767736 186.458811 
L 220.112235 186.458811 
L 220.112235 186.206602 
L 220.332255 186.206602 
L 220.332255 185.954393 
L 220.496807 185.954393 
L 220.496807 185.702184 
L 220.707521 185.702184 
L 220.74755 185.449975 
L 221.254602 185.449975 
L 221.254602 185.197766 
L 221.82622 185.197766 
L 221.920988 184.945557 
L 222.117362 184.945557 
L 222.117362 184.819452 
L 222.72322 184.819452 
L 222.72322 184.567243 
L 223.091134 184.567243 
L 223.091134 184.441139 
L 223.272874 184.441139 
L 223.272874 184.18893 
L 223.480495 184.18893 
L 223.480495 184.062826 
L 223.635882 184.062826 
L 223.635882 183.810617 
L 223.751839 183.810617 
L 223.751839 183.684512 
L 224.160407 183.684512 
L 224.160407 183.558408 
L 224.325861 183.558408 
L 224.325861 183.432303 
L 224.712337 183.432303 
L 224.712337 183.306199 
L 225.071603 183.306199 
L 225.071603 183.180094 
L 225.432847 183.180094 
L 225.432847 182.927885 
L 226.170154 182.927885 
L 226.215423 182.675676 
L 226.687012 182.675676 
L 226.687012 182.549572 
L 227.339033 182.549572 
L 227.339033 182.297363 
L 228.919918 182.297363 
L 228.919918 182.045154 
L 229.185127 182.045154 
L 229.185127 181.792945 
L 229.984943 181.792945 
L 229.984943 181.666841 
L 230.154678 181.666841 
L 230.154678 181.414632 
L 230.512558 181.414632 
L 230.596818 180.910214 
L 231.273969 180.910214 
L 231.273969 180.784109 
L 231.678874 180.784109 
L 231.760905 180.279691 
L 231.795372 180.279691 
L 231.906324 179.649169 
L 232.002732 179.649169 
L 232.015783 179.39696 
L 232.182219 179.39696 
L 232.259193 179.018647 
L 232.449577 179.018647 
L 232.449577 178.766438 
L 232.728844 178.766438 
L 232.728844 178.640333 
L 232.975668 178.640333 
L 232.975668 178.514229 
L 233.163611 178.514229 
L 233.163611 178.388124 
L 233.332695 178.388124 
L 233.332695 178.135915 
L 233.521202 178.135915 
L 233.521202 178.009811 
L 233.777876 178.009811 
L 233.777876 177.757602 
L 233.957413 177.757602 
L 234.01215 177.505393 
L 234.129518 177.505393 
L 234.129518 177.379288 
L 338.688 177.379288 
L 338.688 177.379288 
" style="fill:none;stroke:#ff00ff;stroke-linecap:square;stroke-width:1.5;"/>
   </g>
   <g id="line2d_41">
    <defs>
     <path d="M 0 8.485281 
L 5.091169 0 
L 0 -8.485281 
L -5.091169 0 
z
" id="m455aaba2b3" style="stroke:#ff00ff;stroke-linejoin:miter;stroke-width:1.5;"/>
    </defs>
    <g>
     <use style="fill-opacity:0;stroke:#ff00ff;stroke-linejoin:miter;stroke-width:1.5;" x="183.435008" xlink:href="#m455aaba2b3" y="216.093362"/>
     <use style="fill-opacity:0;stroke:#ff00ff;stroke-linejoin:miter;stroke-width:1.5;" x="234.129518" xlink:href="#m455aaba2b3" y="177.505393"/>
     <use style="fill-opacity:0;stroke:#ff00ff;stroke-linejoin:miter;stroke-width:1.5;" x="234.129518" xlink:href="#m455aaba2b3" y="177.379288"/>
     <use style="fill-opacity:0;stroke:#ff00ff;stroke-linejoin:miter;stroke-width:1.5;" x="234.129518" xlink:href="#m455aaba2b3" y="177.379288"/>
     <use style="fill-opacity:0;stroke:#ff00ff;stroke-linejoin:miter;stroke-width:1.5;" x="338.688" xlink:href="#m455aaba2b3" y="177.379288"/>
    </g>
   </g>
   <g id="line2d_42">
    <path style="fill:none;stroke:#ff00ff;stroke-linecap:square;stroke-width:1.5;"/>
    <g/>
   </g>
   <g id="line2d_43">
    <path clip-path="url(#p114c9fd62d)" d="M 234.201863 177.379288 
" style="fill:none;stroke:#ff00ff;stroke-linecap:square;stroke-width:1.5;"/>
    <defs>
     <path d="M -12 12 
L 12 -12 
M -12 -12 
L 12 12 
" id="mabe446ffaa" style="stroke:#ff00ff;"/>
    </defs>
    <g clip-path="url(#p114c9fd62d)">
     <use style="fill:#ff00ff;stroke:#ff00ff;" x="234.201863" xlink:href="#mabe446ffaa" y="177.379288"/>
    </g>
   </g>
   <g id="line2d_44">
    <path d="M 338.688 222.272481 
L 369.60768 293.092752 
" style="fill:none;stroke:#000080;stroke-linecap:square;stroke-width:1.5;"/>
    <g>
     <use style="fill-opacity:0;stroke:#000080;stroke-width:1.5;" x="338.688" xlink:href="#m6c77a98952" y="222.272481"/>
     <use style="fill-opacity:0;stroke:#000080;stroke-width:1.5;" x="369.60768" xlink:href="#m6c77a98952" y="293.092752"/>
    </g>
   </g>
   <g id="line2d_45">
    <path d="M 338.688 177.379288 
L 369.60768 152.662812 
" style="fill:none;stroke:#ff00ff;stroke-linecap:square;stroke-width:1.5;"/>
    <g>
     <use style="fill-opacity:0;stroke:#ff00ff;stroke-linejoin:miter;stroke-width:1.5;" x="338.688" xlink:href="#m455aaba2b3" y="177.379288"/>
     <use style="fill-opacity:0;stroke:#ff00ff;stroke-linejoin:miter;stroke-width:1.5;" x="369.60768" xlink:href="#m455aaba2b3" y="152.662812"/>
    </g>
   </g>
   <g id="line2d_46">
    <path d="M 338.688 298.944 
L 338.688 6.381624 
" style="fill:none;stroke:#000000;stroke-linecap:square;stroke-width:1.5;"/>
   </g>
   <g id="patch_3">
    <path d="M 57.6 298.944 
L 57.6 3.456 
" style="fill:none;stroke:#000000;stroke-linecap:square;stroke-linejoin:miter;stroke-width:0.8;"/>
   </g>
   <g id="patch_4">
    <path d="M 338.688 298.944 
L 338.688 3.456 
" style="fill:none;stroke:#000000;stroke-linecap:square;stroke-linejoin:miter;stroke-width:0.8;"/>
   </g>
   <g id="patch_5">
    <path d="M 57.6 298.944 
L 338.688 298.944 
" style="fill:none;stroke:#000000;stroke-linecap:square;stroke-linejoin:miter;stroke-width:0.8;"/>
   </g>
   <g id="patch_6">
    <path d="M 57.6 3.456 
L 338.688 3.456 
" style="fill:none;stroke:#000000;stroke-linecap:square;stroke-linejoin:miter;stroke-width:0.8;"/>
   </g>
   <g id="text_13">
    <!-- DMS Brock -->
    <g transform="translate(375.22944 297.78369)scale(0.17 -0.17)">
     <defs>
      <path d="M 1259 4147 
L 1259 519 
L 2022 519 
Q 2988 519 3436 956 
Q 3884 1394 3884 2338 
Q 3884 3275 3436 3711 
Q 2988 4147 2022 4147 
L 1259 4147 
z
M 628 4666 
L 1925 4666 
Q 3281 4666 3915 4102 
Q 4550 3538 4550 2338 
Q 4550 1131 3912 565 
Q 3275 0 1925 0 
L 628 0 
L 628 4666 
z
" id="DejaVuSans-44" transform="scale(0.015625)"/>
      <path d="M 628 4666 
L 1569 4666 
L 2759 1491 
L 3956 4666 
L 4897 4666 
L 4897 0 
L 4281 0 
L 4281 4097 
L 3078 897 
L 2444 897 
L 1241 4097 
L 1241 0 
L 628 0 
L 628 4666 
z
" id="DejaVuSans-4d" transform="scale(0.015625)"/>
      <path d="M 3425 4513 
L 3425 3897 
Q 3066 4069 2747 4153 
Q 2428 4238 2131 4238 
Q 1616 4238 1336 4038 
Q 1056 3838 1056 3469 
Q 1056 3159 1242 3001 
Q 1428 2844 1947 2747 
L 2328 2669 
Q 3034 2534 3370 2195 
Q 3706 1856 3706 1288 
Q 3706 609 3251 259 
Q 2797 -91 1919 -91 
Q 1588 -91 1214 -16 
Q 841 59 441 206 
L 441 856 
Q 825 641 1194 531 
Q 1563 422 1919 422 
Q 2459 422 2753 634 
Q 3047 847 3047 1241 
Q 3047 1584 2836 1778 
Q 2625 1972 2144 2069 
L 1759 2144 
Q 1053 2284 737 2584 
Q 422 2884 422 3419 
Q 422 4038 858 4394 
Q 1294 4750 2059 4750 
Q 2388 4750 2728 4690 
Q 3069 4631 3425 4513 
z
" id="DejaVuSans-53" transform="scale(0.015625)"/>
      <path d="M 1259 2228 
L 1259 519 
L 2272 519 
Q 2781 519 3026 730 
Q 3272 941 3272 1375 
Q 3272 1813 3026 2020 
Q 2781 2228 2272 2228 
L 1259 2228 
z
M 1259 4147 
L 1259 2741 
L 2194 2741 
Q 2656 2741 2882 2914 
Q 3109 3088 3109 3444 
Q 3109 3797 2882 3972 
Q 2656 4147 2194 4147 
L 1259 4147 
z
M 628 4666 
L 2241 4666 
Q 2963 4666 3353 4366 
Q 3744 4066 3744 3513 
Q 3744 3084 3544 2831 
Q 3344 2578 2956 2516 
Q 3422 2416 3680 2098 
Q 3938 1781 3938 1306 
Q 3938 681 3513 340 
Q 3088 0 2303 0 
L 628 0 
L 628 4666 
z
" id="DejaVuSans-42" transform="scale(0.015625)"/>
      <path d="M 581 4863 
L 1159 4863 
L 1159 1991 
L 2875 3500 
L 3609 3500 
L 1753 1863 
L 3688 0 
L 2938 0 
L 1159 1709 
L 1159 0 
L 581 0 
L 581 4863 
z
" id="DejaVuSans-6b" transform="scale(0.015625)"/>
     </defs>
     <use xlink:href="#DejaVuSans-44"/>
     <use x="77.001953" xlink:href="#DejaVuSans-4d"/>
     <use x="163.28125" xlink:href="#DejaVuSans-53"/>
     <use x="226.757812" xlink:href="#DejaVuSans-20"/>
     <use x="258.544922" xlink:href="#DejaVuSans-42"/>
     <use x="327.148438" xlink:href="#DejaVuSans-72"/>
     <use x="366.011719" xlink:href="#DejaVuSans-6f"/>
     <use x="427.193359" xlink:href="#DejaVuSans-63"/>
     <use x="482.173828" xlink:href="#DejaVuSans-6b"/>
    </g>
   </g>
   <g id="text_14">
    <!-- MultiGLOD -->
    <g transform="translate(375.22944 157.353749)scale(0.17 -0.17)">
     <defs>
      <path d="M 3809 666 
L 3809 1919 
L 2778 1919 
L 2778 2438 
L 4434 2438 
L 4434 434 
Q 4069 175 3628 42 
Q 3188 -91 2688 -91 
Q 1594 -91 976 548 
Q 359 1188 359 2328 
Q 359 3472 976 4111 
Q 1594 4750 2688 4750 
Q 3144 4750 3555 4637 
Q 3966 4525 4313 4306 
L 4313 3634 
Q 3963 3931 3569 4081 
Q 3175 4231 2741 4231 
Q 1884 4231 1454 3753 
Q 1025 3275 1025 2328 
Q 1025 1384 1454 906 
Q 1884 428 2741 428 
Q 3075 428 3337 486 
Q 3600 544 3809 666 
z
" id="DejaVuSans-47" transform="scale(0.015625)"/>
      <path d="M 628 4666 
L 1259 4666 
L 1259 531 
L 3531 531 
L 3531 0 
L 628 0 
L 628 4666 
z
" id="DejaVuSans-4c" transform="scale(0.015625)"/>
      <path d="M 2522 4238 
Q 1834 4238 1429 3725 
Q 1025 3213 1025 2328 
Q 1025 1447 1429 934 
Q 1834 422 2522 422 
Q 3209 422 3611 934 
Q 4013 1447 4013 2328 
Q 4013 3213 3611 3725 
Q 3209 4238 2522 4238 
z
M 2522 4750 
Q 3503 4750 4090 4092 
Q 4678 3434 4678 2328 
Q 4678 1225 4090 567 
Q 3503 -91 2522 -91 
Q 1538 -91 948 565 
Q 359 1222 359 2328 
Q 359 3434 948 4092 
Q 1538 4750 2522 4750 
z
" id="DejaVuSans-4f" transform="scale(0.015625)"/>
     </defs>
     <use xlink:href="#DejaVuSans-4d"/>
     <use x="86.279297" xlink:href="#DejaVuSans-75"/>
     <use x="149.658203" xlink:href="#DejaVuSans-6c"/>
     <use x="177.441406" xlink:href="#DejaVuSans-74"/>
     <use x="216.650391" xlink:href="#DejaVuSans-69"/>
     <use x="244.433594" xlink:href="#DejaVuSans-47"/>
     <use x="321.923828" xlink:href="#DejaVuSans-4c"/>
     <use x="374.011719" xlink:href="#DejaVuSans-4f"/>
     <use x="452.722656" xlink:href="#DejaVuSans-44"/>
    </g>
   </g>
   <g id="text_15">
    <!-- best 2016 -->
    <g transform="translate(375.22944 16.923809)scale(0.17 -0.17)">
     <defs>
      <path d="M 3116 1747 
Q 3116 2381 2855 2742 
Q 2594 3103 2138 3103 
Q 1681 3103 1420 2742 
Q 1159 2381 1159 1747 
Q 1159 1113 1420 752 
Q 1681 391 2138 391 
Q 2594 391 2855 752 
Q 3116 1113 3116 1747 
z
M 1159 2969 
Q 1341 3281 1617 3432 
Q 1894 3584 2278 3584 
Q 2916 3584 3314 3078 
Q 3713 2572 3713 1747 
Q 3713 922 3314 415 
Q 2916 -91 2278 -91 
Q 1894 -91 1617 61 
Q 1341 213 1159 525 
L 1159 0 
L 581 0 
L 581 4863 
L 1159 4863 
L 1159 2969 
z
" id="DejaVuSans-62" transform="scale(0.015625)"/>
     </defs>
     <use xlink:href="#DejaVuSans-62"/>
     <use x="63.476562" xlink:href="#DejaVuSans-65"/>
     <use x="125" xlink:href="#DejaVuSans-73"/>
     <use x="177.099609" xlink:href="#DejaVuSans-74"/>
     <use x="216.308594" xlink:href="#DejaVuSans-20"/>
     <use x="248.095703" xlink:href="#DejaVuSans-32"/>
     <use x="311.71875" xlink:href="#DejaVuSans-30"/>
     <use x="375.341797" xlink:href="#DejaVuSans-31"/>
     <use x="438.964844" xlink:href="#DejaVuSans-36"/>
    </g>
   </g>
   <g id="text_16">
    <!-- bbob-biobj f24, f25, f31, f32, 2-D -->
    <g transform="translate(60.41088 14.161286)scale(0.102 -0.102)">
     <defs>
      <path d="M 603 3500 
L 1178 3500 
L 1178 -63 
Q 1178 -731 923 -1031 
Q 669 -1331 103 -1331 
L -116 -1331 
L -116 -844 
L 38 -844 
Q 366 -844 484 -692 
Q 603 -541 603 -63 
L 603 3500 
z
M 603 4863 
L 1178 4863 
L 1178 4134 
L 603 4134 
L 603 4863 
z
" id="DejaVuSans-6a" transform="scale(0.015625)"/>
      <path d="M 691 4666 
L 3169 4666 
L 3169 4134 
L 1269 4134 
L 1269 2991 
Q 1406 3038 1543 3061 
Q 1681 3084 1819 3084 
Q 2600 3084 3056 2656 
Q 3513 2228 3513 1497 
Q 3513 744 3044 326 
Q 2575 -91 1722 -91 
Q 1428 -91 1123 -41 
Q 819 9 494 109 
L 494 744 
Q 775 591 1075 516 
Q 1375 441 1709 441 
Q 2250 441 2565 725 
Q 2881 1009 2881 1497 
Q 2881 1984 2565 2268 
Q 2250 2553 1709 2553 
Q 1456 2553 1204 2497 
Q 953 2441 691 2322 
L 691 4666 
z
" id="DejaVuSans-35" transform="scale(0.015625)"/>
      <path d="M 2597 2516 
Q 3050 2419 3304 2112 
Q 3559 1806 3559 1356 
Q 3559 666 3084 287 
Q 2609 -91 1734 -91 
Q 1441 -91 1130 -33 
Q 819 25 488 141 
L 488 750 
Q 750 597 1062 519 
Q 1375 441 1716 441 
Q 2309 441 2620 675 
Q 2931 909 2931 1356 
Q 2931 1769 2642 2001 
Q 2353 2234 1838 2234 
L 1294 2234 
L 1294 2753 
L 1863 2753 
Q 2328 2753 2575 2939 
Q 2822 3125 2822 3475 
Q 2822 3834 2567 4026 
Q 2313 4219 1838 4219 
Q 1578 4219 1281 4162 
Q 984 4106 628 3988 
L 628 4550 
Q 988 4650 1302 4700 
Q 1616 4750 1894 4750 
Q 2613 4750 3031 4423 
Q 3450 4097 3450 3541 
Q 3450 3153 3228 2886 
Q 3006 2619 2597 2516 
z
" id="DejaVuSans-33" transform="scale(0.015625)"/>
     </defs>
     <use xlink:href="#DejaVuSans-62"/>
     <use x="63.476562" xlink:href="#DejaVuSans-62"/>
     <use x="126.953125" xlink:href="#DejaVuSans-6f"/>
     <use x="188.134766" xlink:href="#DejaVuSans-62"/>
     <use x="251.611328" xlink:href="#DejaVuSans-2d"/>
     <use x="287.695312" xlink:href="#DejaVuSans-62"/>
     <use x="351.171875" xlink:href="#DejaVuSans-69"/>
     <use x="378.955078" xlink:href="#DejaVuSans-6f"/>
     <use x="440.136719" xlink:href="#DejaVuSans-62"/>
     <use x="503.613281" xlink:href="#DejaVuSans-6a"/>
     <use x="531.396484" xlink:href="#DejaVuSans-20"/>
     <use x="563.183594" xlink:href="#DejaVuSans-66"/>
     <use x="598.388672" xlink:href="#DejaVuSans-32"/>
     <use x="662.011719" xlink:href="#DejaVuSans-34"/>
     <use x="725.634766" xlink:href="#DejaVuSans-2c"/>
     <use x="757.421875" xlink:href="#DejaVuSans-20"/>
     <use x="789.208984" xlink:href="#DejaVuSans-66"/>
     <use x="824.414062" xlink:href="#DejaVuSans-32"/>
     <use x="888.037109" xlink:href="#DejaVuSans-35"/>
     <use x="951.660156" xlink:href="#DejaVuSans-2c"/>
     <use x="983.447266" xlink:href="#DejaVuSans-20"/>
     <use x="1015.234375" xlink:href="#DejaVuSans-66"/>
     <use x="1050.439453" xlink:href="#DejaVuSans-33"/>
     <use x="1114.0625" xlink:href="#DejaVuSans-31"/>
     <use x="1177.685547" xlink:href="#DejaVuSans-2c"/>
     <use x="1209.472656" xlink:href="#DejaVuSans-20"/>
     <use x="1241.259766" xlink:href="#DejaVuSans-66"/>
     <use x="1276.464844" xlink:href="#DejaVuSans-33"/>
     <use x="1340.087891" xlink:href="#DejaVuSans-32"/>
     <use x="1403.710938" xlink:href="#DejaVuSans-2c"/>
     <use x="1435.498047" xlink:href="#DejaVuSans-20"/>
     <use x="1467.285156" xlink:href="#DejaVuSans-32"/>
     <use x="1530.908203" xlink:href="#DejaVuSans-2d"/>
     <use x="1566.992188" xlink:href="#DejaVuSans-44"/>
    </g>
    <!-- 58 targets: 1..-1.0e-4 -->
    <g transform="translate(60.41088 25.583055)scale(0.102 -0.102)">
     <defs>
      <path d="M 750 794 
L 1409 794 
L 1409 0 
L 750 0 
L 750 794 
z
M 750 3309 
L 1409 3309 
L 1409 2516 
L 750 2516 
L 750 3309 
z
" id="DejaVuSans-3a" transform="scale(0.015625)"/>
     </defs>
     <use xlink:href="#DejaVuSans-35"/>
     <use x="63.623047" xlink:href="#DejaVuSans-38"/>
     <use x="127.246094" xlink:href="#DejaVuSans-20"/>
     <use x="159.033203" xlink:href="#DejaVuSans-74"/>
     <use x="198.242188" xlink:href="#DejaVuSans-61"/>
     <use x="259.521484" xlink:href="#DejaVuSans-72"/>
     <use x="298.884766" xlink:href="#DejaVuSans-67"/>
     <use x="362.361328" xlink:href="#DejaVuSans-65"/>
     <use x="423.884766" xlink:href="#DejaVuSans-74"/>
     <use x="463.09375" xlink:href="#DejaVuSans-73"/>
     <use x="515.193359" xlink:href="#DejaVuSans-3a"/>
     <use x="548.884766" xlink:href="#DejaVuSans-20"/>
     <use x="580.671875" xlink:href="#DejaVuSans-31"/>
     <use x="644.294922" xlink:href="#DejaVuSans-2e"/>
     <use x="676.082031" xlink:href="#DejaVuSans-2e"/>
     <use x="707.869141" xlink:href="#DejaVuSans-2d"/>
     <use x="743.953125" xlink:href="#DejaVuSans-31"/>
     <use x="807.576172" xlink:href="#DejaVuSans-2e"/>
     <use x="839.363281" xlink:href="#DejaVuSans-30"/>
     <use x="902.986328" xlink:href="#DejaVuSans-65"/>
     <use x="964.509766" xlink:href="#DejaVuSans-2d"/>
     <use x="1000.59375" xlink:href="#DejaVuSans-34"/>
    </g>
    <!-- 10 instances -->
    <g transform="translate(60.41088 37.004824)scale(0.102 -0.102)">
     <use xlink:href="#DejaVuSans-31"/>
     <use x="63.623047" xlink:href="#DejaVuSans-30"/>
     <use x="127.246094" xlink:href="#DejaVuSans-20"/>
     <use x="159.033203" xlink:href="#DejaVuSans-69"/>
     <use x="186.816406" xlink:href="#DejaVuSans-6e"/>
     <use x="250.195312" xlink:href="#DejaVuSans-73"/>
     <use x="302.294922" xlink:href="#DejaVuSans-74"/>
     <use x="341.503906" xlink:href="#DejaVuSans-61"/>
     <use x="402.783203" xlink:href="#DejaVuSans-6e"/>
     <use x="466.162109" xlink:href="#DejaVuSans-63"/>
     <use x="521.142578" xlink:href="#DejaVuSans-65"/>
     <use x="582.666016" xlink:href="#DejaVuSans-73"/>
    </g>
   </g>
   <g id="text_17">
    <!-- v2.4.1.1, hv-hash=ff0e71e8cd978373 -->
    <g style="fill:#808080;" transform="translate(103.108062 293.909432)scale(0.1 -0.1)">
     <defs>
      <path d="M 3513 2113 
L 3513 0 
L 2938 0 
L 2938 2094 
Q 2938 2591 2744 2837 
Q 2550 3084 2163 3084 
Q 1697 3084 1428 2787 
Q 1159 2491 1159 1978 
L 1159 0 
L 581 0 
L 581 4863 
L 1159 4863 
L 1159 2956 
Q 1366 3272 1645 3428 
Q 1925 3584 2291 3584 
Q 2894 3584 3203 3211 
Q 3513 2838 3513 2113 
z
" id="DejaVuSans-68" transform="scale(0.015625)"/>
      <path d="M 678 2906 
L 4684 2906 
L 4684 2381 
L 678 2381 
L 678 2906 
z
M 678 1631 
L 4684 1631 
L 4684 1100 
L 678 1100 
L 678 1631 
z
" id="DejaVuSans-3d" transform="scale(0.015625)"/>
      <path d="M 525 4666 
L 3525 4666 
L 3525 4397 
L 1831 0 
L 1172 0 
L 2766 4134 
L 525 4134 
L 525 4666 
z
" id="DejaVuSans-37" transform="scale(0.015625)"/>
      <path d="M 703 97 
L 703 672 
Q 941 559 1184 500 
Q 1428 441 1663 441 
Q 2288 441 2617 861 
Q 2947 1281 2994 2138 
Q 2813 1869 2534 1725 
Q 2256 1581 1919 1581 
Q 1219 1581 811 2004 
Q 403 2428 403 3163 
Q 403 3881 828 4315 
Q 1253 4750 1959 4750 
Q 2769 4750 3195 4129 
Q 3622 3509 3622 2328 
Q 3622 1225 3098 567 
Q 2575 -91 1691 -91 
Q 1453 -91 1209 -44 
Q 966 3 703 97 
z
M 1959 2075 
Q 2384 2075 2632 2365 
Q 2881 2656 2881 3163 
Q 2881 3666 2632 3958 
Q 2384 4250 1959 4250 
Q 1534 4250 1286 3958 
Q 1038 3666 1038 3163 
Q 1038 2656 1286 2365 
Q 1534 2075 1959 2075 
z
" id="DejaVuSans-39" transform="scale(0.015625)"/>
     </defs>
     <use xlink:href="#DejaVuSans-76"/>
     <use x="59.179688" xlink:href="#DejaVuSans-32"/>
     <use x="122.802734" xlink:href="#DejaVuSans-2e"/>
     <use x="154.589844" xlink:href="#DejaVuSans-34"/>
     <use x="218.212891" xlink:href="#DejaVuSans-2e"/>
     <use x="250" xlink:href="#DejaVuSans-31"/>
     <use x="313.623047" xlink:href="#DejaVuSans-2e"/>
     <use x="345.410156" xlink:href="#DejaVuSans-31"/>
     <use x="409.033203" xlink:href="#DejaVuSans-2c"/>
     <use x="440.820312" xlink:href="#DejaVuSans-20"/>
     <use x="472.607422" xlink:href="#DejaVuSans-68"/>
     <use x="535.986328" xlink:href="#DejaVuSans-76"/>
     <use x="592.541016" xlink:href="#DejaVuSans-2d"/>
     <use x="628.625" xlink:href="#DejaVuSans-68"/>
     <use x="692.003906" xlink:href="#DejaVuSans-61"/>
     <use x="753.283203" xlink:href="#DejaVuSans-73"/>
     <use x="805.382812" xlink:href="#DejaVuSans-68"/>
     <use x="868.761719" xlink:href="#DejaVuSans-3d"/>
     <use x="952.550781" xlink:href="#DejaVuSans-66"/>
     <use x="987.755859" xlink:href="#DejaVuSans-66"/>
     <use x="1022.960938" xlink:href="#DejaVuSans-30"/>
     <use x="1086.583984" xlink:href="#DejaVuSans-65"/>
     <use x="1148.107422" xlink:href="#DejaVuSans-37"/>
     <use x="1211.730469" xlink:href="#DejaVuSans-31"/>
     <use x="1275.353516" xlink:href="#DejaVuSans-65"/>
     <use x="1336.876953" xlink:href="#DejaVuSans-38"/>
     <use x="1400.5" xlink:href="#DejaVuSans-63"/>
     <use x="1455.480469" xlink:href="#DejaVuSans-64"/>
     <use x="1518.957031" xlink:href="#DejaVuSans-39"/>
     <use x="1582.580078" xlink:href="#DejaVuSans-37"/>
     <use x="1646.203125" xlink:href="#DejaVuSans-38"/>
     <use x="1709.826172" xlink:href="#DejaVuSans-33"/>
     <use x="1773.449219" xlink:href="#DejaVuSans-37"/>
     <use x="1837.072266" xlink:href="#DejaVuSans-33"/>
    </g>
   </g>
  </g>
 </g>
 <defs>
  <clipPath id="p114c9fd62d">
   <rect height="295.488" width="281.088" x="57.6" y="3.456"/>
  </clipPath>
 </defs>
</svg>
