<?xml version="1.0" encoding="utf-8" standalone="no"?>
<!DOCTYPE svg PUBLIC "-//W3C//DTD SVG 1.1//EN"
  "http://www.w3.org/Graphics/SVG/1.1/DTD/svg11.dtd">
<!-- Created with matplotlib (http://matplotlib.org/) -->
<svg height="345pt" version="1.1" viewBox="0 0 460 345" width="460pt" xmlns="http://www.w3.org/2000/svg" xmlns:xlink="http://www.w3.org/1999/xlink">
 <defs>
  <style type="text/css">
*{stroke-linecap:butt;stroke-linejoin:round;}
  </style>
 </defs>
 <g id="figure_1">
  <g id="patch_1">
   <path d="M 0 345.6 
L 460.8 345.6 
L 460.8 0 
L 0 0 
z
" style="fill:#ffffff;"/>
  </g>
  <g id="axes_1">
   <g id="patch_2">
    <path d="M 56.66 294.16 
L 399.984 294.16 
L 399.984 24.84 
L 56.66 24.84 
z
" style="fill:#ffffff;"/>
   </g>
   <g id="line2d_1">
    <path d="M 140.823166 294.16 
L 140.823166 288.931501 
L 145.720074 288.931501 
L 145.720074 283.703001 
L 149.85464 283.703001 
L 149.85464 278.474502 
L 153.804247 278.474502 
L 153.804247 273.246003 
L 158.645026 273.246003 
L 158.645026 268.017503 
L 159.074942 268.017503 
L 159.074942 262.789004 
L 159.129035 262.789004 
L 159.129035 257.560505 
L 159.133444 257.560505 
L 159.133444 252.332005 
L 159.137851 252.332005 
L 159.137851 247.103506 
L 159.138952 247.103506 
L 159.138952 241.875007 
L 159.146662 241.875007 
L 159.146662 236.646507 
L 159.16537 236.646507 
L 159.16537 231.418008 
L 159.173067 231.418008 
L 159.173067 226.189509 
L 159.201627 226.189509 
L 159.201627 220.96101 
L 159.210405 220.96101 
L 159.210405 210.504011 
L 159.216986 210.504011 
L 159.216986 205.275512 
L 159.225757 205.275512 
L 159.225757 200.047012 
L 159.227948 200.047012 
L 159.227948 194.818513 
L 159.231236 194.818513 
L 159.231236 184.361514 
L 159.232331 184.361514 
L 159.232331 179.133015 
L 159.247663 179.133015 
L 159.247663 168.676016 
L 159.248757 168.676016 
L 159.248757 163.447517 
L 159.258606 163.447517 
L 159.258606 147.762019 
L 159.279377 147.762019 
L 159.279377 142.53352 
L 159.283747 142.53352 
L 159.283747 126.848022 
L 159.28484 126.848022 
L 159.28484 121.619522 
L 159.289208 121.619522 
L 159.289208 111.162524 
L 159.291392 111.162524 
L 159.291392 100.705525 
L 159.303398 100.705525 
L 159.303398 95.477026 
L 159.307762 95.477026 
L 159.307762 90.248526 
L 159.308852 90.248526 
L 159.308852 79.791528 
L 159.309943 79.791528 
L 159.309943 74.563029 
L 193.570966 74.563029 
L 193.570966 69.334529 
L 193.571411 69.334529 
L 193.571411 64.10603 
L 208.894137 64.10603 
L 208.894137 53.649031 
L 208.894197 53.649031 
L 208.894197 48.420532 
L 222.283889 48.420532 
L 222.283889 43.192033 
L 222.283917 43.192033 
L 222.283917 37.963533 
L 222.283972 37.963533 
L 222.283972 32.735034 
L 222.285535 32.735034 
L 222.285535 27.506535 
L 333.534194 27.506535 
" style="fill:none;stroke:#f5deb3;stroke-linecap:square;stroke-width:6;"/>
   </g>
   <g id="line2d_2">
    <path d="M 0 0 
" style="fill:none;stroke:#f5deb3;stroke-linecap:square;stroke-width:6;"/>
    <defs>
     <path d="M -0 7.778175 
L 7.778175 0 
L 0 -7.778175 
L -7.778175 -0 
z
" id="m96ce91b65f" style="stroke:#f5deb3;stroke-linejoin:miter;stroke-width:1.5;"/>
    </defs>
    <g>
     <use style="fill:#f5deb3;stroke:#f5deb3;stroke-linejoin:miter;stroke-width:1.5;" x="0" xlink:href="#m96ce91b65f" y="0"/>
    </g>
   </g>
   <g id="line2d_3">
    <path d="M 333.534194 27.506535 
L 363.990355 288.826931 
" style="fill:none;stroke:#f5deb3;stroke-linecap:square;stroke-width:6;"/>
    <g>
     <use style="fill:#f5deb3;stroke:#f5deb3;stroke-linejoin:miter;stroke-width:1.5;" x="333.534194" xlink:href="#m96ce91b65f" y="27.506535"/>
     <use style="fill:#f5deb3;stroke:#f5deb3;stroke-linejoin:miter;stroke-width:1.5;" x="363.990355" xlink:href="#m96ce91b65f" y="288.826931"/>
    </g>
   </g>
   <g id="matplotlib.axis_1">
    <g id="xtick_1">
     <g id="line2d_4">
      <path clip-path="url(#pc967aa9a47)" d="M 56.66 294.16 
L 56.66 24.84 
" style="fill:none;stroke:#b0b0b0;stroke-linecap:square;stroke-width:0.8;"/>
     </g>
     <g id="line2d_5">
      <defs>
       <path d="M 0 0 
L 0 3.5 
" id="ma561197e40" style="stroke:#000000;stroke-width:0.8;"/>
      </defs>
      <g>
       <use style="stroke:#000000;stroke-width:0.8;" x="56.66" xlink:href="#ma561197e40" y="294.16"/>
      </g>
     </g>
     <g id="text_1">
      <!-- 0 -->
      <defs>
       <path d="M 31.78125 66.40625 
Q 24.171875 66.40625 20.328125 58.90625 
Q 16.5 51.421875 16.5 36.375 
Q 16.5 21.390625 20.328125 13.890625 
Q 24.171875 6.390625 31.78125 6.390625 
Q 39.453125 6.390625 43.28125 13.890625 
Q 47.125 21.390625 47.125 36.375 
Q 47.125 51.421875 43.28125 58.90625 
Q 39.453125 66.40625 31.78125 66.40625 
z
M 31.78125 74.21875 
Q 44.046875 74.21875 50.515625 64.515625 
Q 56.984375 54.828125 56.984375 36.375 
Q 56.984375 17.96875 50.515625 8.265625 
Q 44.046875 -1.421875 31.78125 -1.421875 
Q 19.53125 -1.421875 13.0625 8.265625 
Q 6.59375 17.96875 6.59375 36.375 
Q 6.59375 54.828125 13.0625 64.515625 
Q 19.53125 74.21875 31.78125 74.21875 
z
" id="DejaVuSans-30"/>
      </defs>
      <g transform="translate(50.2975 316.356875)scale(0.2 -0.2)">
       <use xlink:href="#DejaVuSans-30"/>
      </g>
     </g>
    </g>
    <g id="xtick_2">
     <g id="line2d_6">
      <path clip-path="url(#pc967aa9a47)" d="M 135.766912 294.16 
L 135.766912 24.84 
" style="fill:none;stroke:#b0b0b0;stroke-linecap:square;stroke-width:0.8;"/>
     </g>
     <g id="line2d_7">
      <g>
       <use style="stroke:#000000;stroke-width:0.8;" x="135.766912" xlink:href="#ma561197e40" y="294.16"/>
      </g>
     </g>
     <g id="text_2">
      <!-- 2 -->
      <defs>
       <path d="M 19.1875 8.296875 
L 53.609375 8.296875 
L 53.609375 0 
L 7.328125 0 
L 7.328125 8.296875 
Q 12.9375 14.109375 22.625 23.890625 
Q 32.328125 33.6875 34.8125 36.53125 
Q 39.546875 41.84375 41.421875 45.53125 
Q 43.3125 49.21875 43.3125 52.78125 
Q 43.3125 58.59375 39.234375 62.25 
Q 35.15625 65.921875 28.609375 65.921875 
Q 23.96875 65.921875 18.8125 64.3125 
Q 13.671875 62.703125 7.8125 59.421875 
L 7.8125 69.390625 
Q 13.765625 71.78125 18.9375 73 
Q 24.125 74.21875 28.421875 74.21875 
Q 39.75 74.21875 46.484375 68.546875 
Q 53.21875 62.890625 53.21875 53.421875 
Q 53.21875 48.921875 51.53125 44.890625 
Q 49.859375 40.875 45.40625 35.40625 
Q 44.1875 33.984375 37.640625 27.21875 
Q 31.109375 20.453125 19.1875 8.296875 
z
" id="DejaVuSans-32"/>
      </defs>
      <g transform="translate(129.404412 316.356875)scale(0.2 -0.2)">
       <use xlink:href="#DejaVuSans-32"/>
      </g>
     </g>
    </g>
    <g id="xtick_3">
     <g id="line2d_8">
      <path clip-path="url(#pc967aa9a47)" d="M 214.873825 294.16 
L 214.873825 24.84 
" style="fill:none;stroke:#b0b0b0;stroke-linecap:square;stroke-width:0.8;"/>
     </g>
     <g id="line2d_9">
      <g>
       <use style="stroke:#000000;stroke-width:0.8;" x="214.873825" xlink:href="#ma561197e40" y="294.16"/>
      </g>
     </g>
     <g id="text_3">
      <!-- 4 -->
      <defs>
       <path d="M 37.796875 64.3125 
L 12.890625 25.390625 
L 37.796875 25.390625 
z
M 35.203125 72.90625 
L 47.609375 72.90625 
L 47.609375 25.390625 
L 58.015625 25.390625 
L 58.015625 17.1875 
L 47.609375 17.1875 
L 47.609375 0 
L 37.796875 0 
L 37.796875 17.1875 
L 4.890625 17.1875 
L 4.890625 26.703125 
z
" id="DejaVuSans-34"/>
      </defs>
      <g transform="translate(208.511325 316.356875)scale(0.2 -0.2)">
       <use xlink:href="#DejaVuSans-34"/>
      </g>
     </g>
    </g>
    <g id="xtick_4">
     <g id="line2d_10">
      <path clip-path="url(#pc967aa9a47)" d="M 293.980737 294.16 
L 293.980737 24.84 
" style="fill:none;stroke:#b0b0b0;stroke-linecap:square;stroke-width:0.8;"/>
     </g>
     <g id="line2d_11">
      <g>
       <use style="stroke:#000000;stroke-width:0.8;" x="293.980737" xlink:href="#ma561197e40" y="294.16"/>
      </g>
     </g>
     <g id="text_4">
      <!-- 6 -->
      <defs>
       <path d="M 33.015625 40.375 
Q 26.375 40.375 22.484375 35.828125 
Q 18.609375 31.296875 18.609375 23.390625 
Q 18.609375 15.53125 22.484375 10.953125 
Q 26.375 6.390625 33.015625 6.390625 
Q 39.65625 6.390625 43.53125 10.953125 
Q 47.40625 15.53125 47.40625 23.390625 
Q 47.40625 31.296875 43.53125 35.828125 
Q 39.65625 40.375 33.015625 40.375 
z
M 52.59375 71.296875 
L 52.59375 62.3125 
Q 48.875 64.0625 45.09375 64.984375 
Q 41.3125 65.921875 37.59375 65.921875 
Q 27.828125 65.921875 22.671875 59.328125 
Q 17.53125 52.734375 16.796875 39.40625 
Q 19.671875 43.65625 24.015625 45.921875 
Q 28.375 48.1875 33.59375 48.1875 
Q 44.578125 48.1875 50.953125 41.515625 
Q 57.328125 34.859375 57.328125 23.390625 
Q 57.328125 12.15625 50.6875 5.359375 
Q 44.046875 -1.421875 33.015625 -1.421875 
Q 20.359375 -1.421875 13.671875 8.265625 
Q 6.984375 17.96875 6.984375 36.375 
Q 6.984375 53.65625 15.1875 63.9375 
Q 23.390625 74.21875 37.203125 74.21875 
Q 40.921875 74.21875 44.703125 73.484375 
Q 48.484375 72.75 52.59375 71.296875 
z
" id="DejaVuSans-36"/>
      </defs>
      <g transform="translate(287.618237 316.356875)scale(0.2 -0.2)">
       <use xlink:href="#DejaVuSans-36"/>
      </g>
     </g>
    </g>
    <g id="xtick_5">
     <g id="line2d_12">
      <path clip-path="url(#pc967aa9a47)" d="M 373.08765 294.16 
L 373.08765 24.84 
" style="fill:none;stroke:#b0b0b0;stroke-linecap:square;stroke-width:0.8;"/>
     </g>
     <g id="line2d_13">
      <g>
       <use style="stroke:#000000;stroke-width:0.8;" x="373.08765" xlink:href="#ma561197e40" y="294.16"/>
      </g>
     </g>
     <g id="text_5">
      <!-- 8 -->
      <defs>
       <path d="M 31.78125 34.625 
Q 24.75 34.625 20.71875 30.859375 
Q 16.703125 27.09375 16.703125 20.515625 
Q 16.703125 13.921875 20.71875 10.15625 
Q 24.75 6.390625 31.78125 6.390625 
Q 38.8125 6.390625 42.859375 10.171875 
Q 46.921875 13.96875 46.921875 20.515625 
Q 46.921875 27.09375 42.890625 30.859375 
Q 38.875 34.625 31.78125 34.625 
z
M 21.921875 38.8125 
Q 15.578125 40.375 12.03125 44.71875 
Q 8.5 49.078125 8.5 55.328125 
Q 8.5 64.0625 14.71875 69.140625 
Q 20.953125 74.21875 31.78125 74.21875 
Q 42.671875 74.21875 48.875 69.140625 
Q 55.078125 64.0625 55.078125 55.328125 
Q 55.078125 49.078125 51.53125 44.71875 
Q 48 40.375 41.703125 38.8125 
Q 48.828125 37.15625 52.796875 32.3125 
Q 56.78125 27.484375 56.78125 20.515625 
Q 56.78125 9.90625 50.3125 4.234375 
Q 43.84375 -1.421875 31.78125 -1.421875 
Q 19.734375 -1.421875 13.25 4.234375 
Q 6.78125 9.90625 6.78125 20.515625 
Q 6.78125 27.484375 10.78125 32.3125 
Q 14.796875 37.15625 21.921875 38.8125 
z
M 18.3125 54.390625 
Q 18.3125 48.734375 21.84375 45.5625 
Q 25.390625 42.390625 31.78125 42.390625 
Q 38.140625 42.390625 41.71875 45.5625 
Q 45.3125 48.734375 45.3125 54.390625 
Q 45.3125 60.0625 41.71875 63.234375 
Q 38.140625 66.40625 31.78125 66.40625 
Q 25.390625 66.40625 21.84375 63.234375 
Q 18.3125 60.0625 18.3125 54.390625 
z
" id="DejaVuSans-38"/>
      </defs>
      <g transform="translate(366.72515 316.356875)scale(0.2 -0.2)">
       <use xlink:href="#DejaVuSans-38"/>
      </g>
     </g>
    </g>
    <g id="text_6">
     <!-- log10(# f-evals / dimension) -->
     <defs>
      <path d="M 9.421875 75.984375 
L 18.40625 75.984375 
L 18.40625 0 
L 9.421875 0 
z
" id="DejaVuSans-6c"/>
      <path d="M 30.609375 48.390625 
Q 23.390625 48.390625 19.1875 42.75 
Q 14.984375 37.109375 14.984375 27.296875 
Q 14.984375 17.484375 19.15625 11.84375 
Q 23.34375 6.203125 30.609375 6.203125 
Q 37.796875 6.203125 41.984375 11.859375 
Q 46.1875 17.53125 46.1875 27.296875 
Q 46.1875 37.015625 41.984375 42.703125 
Q 37.796875 48.390625 30.609375 48.390625 
z
M 30.609375 56 
Q 42.328125 56 49.015625 48.375 
Q 55.71875 40.765625 55.71875 27.296875 
Q 55.71875 13.875 49.015625 6.21875 
Q 42.328125 -1.421875 30.609375 -1.421875 
Q 18.84375 -1.421875 12.171875 6.21875 
Q 5.515625 13.875 5.515625 27.296875 
Q 5.515625 40.765625 12.171875 48.375 
Q 18.84375 56 30.609375 56 
z
" id="DejaVuSans-6f"/>
      <path d="M 45.40625 27.984375 
Q 45.40625 37.75 41.375 43.109375 
Q 37.359375 48.484375 30.078125 48.484375 
Q 22.859375 48.484375 18.828125 43.109375 
Q 14.796875 37.75 14.796875 27.984375 
Q 14.796875 18.265625 18.828125 12.890625 
Q 22.859375 7.515625 30.078125 7.515625 
Q 37.359375 7.515625 41.375 12.890625 
Q 45.40625 18.265625 45.40625 27.984375 
z
M 54.390625 6.78125 
Q 54.390625 -7.171875 48.1875 -13.984375 
Q 42 -20.796875 29.203125 -20.796875 
Q 24.46875 -20.796875 20.265625 -20.09375 
Q 16.0625 -19.390625 12.109375 -17.921875 
L 12.109375 -9.1875 
Q 16.0625 -11.328125 19.921875 -12.34375 
Q 23.78125 -13.375 27.78125 -13.375 
Q 36.625 -13.375 41.015625 -8.765625 
Q 45.40625 -4.15625 45.40625 5.171875 
L 45.40625 9.625 
Q 42.625 4.78125 38.28125 2.390625 
Q 33.9375 0 27.875 0 
Q 17.828125 0 11.671875 7.65625 
Q 5.515625 15.328125 5.515625 27.984375 
Q 5.515625 40.671875 11.671875 48.328125 
Q 17.828125 56 27.875 56 
Q 33.9375 56 38.28125 53.609375 
Q 42.625 51.21875 45.40625 46.390625 
L 45.40625 54.6875 
L 54.390625 54.6875 
z
" id="DejaVuSans-67"/>
      <path d="M 12.40625 8.296875 
L 28.515625 8.296875 
L 28.515625 63.921875 
L 10.984375 60.40625 
L 10.984375 69.390625 
L 28.421875 72.90625 
L 38.28125 72.90625 
L 38.28125 8.296875 
L 54.390625 8.296875 
L 54.390625 0 
L 12.40625 0 
z
" id="DejaVuSans-31"/>
      <path d="M 31 75.875 
Q 24.46875 64.65625 21.28125 53.65625 
Q 18.109375 42.671875 18.109375 31.390625 
Q 18.109375 20.125 21.3125 9.0625 
Q 24.515625 -2 31 -13.1875 
L 23.1875 -13.1875 
Q 15.875 -1.703125 12.234375 9.375 
Q 8.59375 20.453125 8.59375 31.390625 
Q 8.59375 42.28125 12.203125 53.3125 
Q 15.828125 64.359375 23.1875 75.875 
z
" id="DejaVuSans-28"/>
      <path d="M 51.125 44 
L 36.921875 44 
L 32.8125 27.6875 
L 47.125 27.6875 
z
M 43.796875 71.78125 
L 38.71875 51.515625 
L 52.984375 51.515625 
L 58.109375 71.78125 
L 65.921875 71.78125 
L 60.890625 51.515625 
L 76.125 51.515625 
L 76.125 44 
L 58.984375 44 
L 54.984375 27.6875 
L 70.515625 27.6875 
L 70.515625 20.21875 
L 53.078125 20.21875 
L 48 0 
L 40.1875 0 
L 45.21875 20.21875 
L 30.90625 20.21875 
L 25.875 0 
L 18.015625 0 
L 23.09375 20.21875 
L 7.71875 20.21875 
L 7.71875 27.6875 
L 24.90625 27.6875 
L 29 44 
L 13.28125 44 
L 13.28125 51.515625 
L 30.90625 51.515625 
L 35.890625 71.78125 
z
" id="DejaVuSans-23"/>
      <path id="DejaVuSans-20"/>
      <path d="M 37.109375 75.984375 
L 37.109375 68.5 
L 28.515625 68.5 
Q 23.6875 68.5 21.796875 66.546875 
Q 19.921875 64.59375 19.921875 59.515625 
L 19.921875 54.6875 
L 34.71875 54.6875 
L 34.71875 47.703125 
L 19.921875 47.703125 
L 19.921875 0 
L 10.890625 0 
L 10.890625 47.703125 
L 2.296875 47.703125 
L 2.296875 54.6875 
L 10.890625 54.6875 
L 10.890625 58.5 
Q 10.890625 67.625 15.140625 71.796875 
Q 19.390625 75.984375 28.609375 75.984375 
z
" id="DejaVuSans-66"/>
      <path d="M 4.890625 31.390625 
L 31.203125 31.390625 
L 31.203125 23.390625 
L 4.890625 23.390625 
z
" id="DejaVuSans-2d"/>
      <path d="M 56.203125 29.59375 
L 56.203125 25.203125 
L 14.890625 25.203125 
Q 15.484375 15.921875 20.484375 11.0625 
Q 25.484375 6.203125 34.421875 6.203125 
Q 39.59375 6.203125 44.453125 7.46875 
Q 49.3125 8.734375 54.109375 11.28125 
L 54.109375 2.78125 
Q 49.265625 0.734375 44.1875 -0.34375 
Q 39.109375 -1.421875 33.890625 -1.421875 
Q 20.796875 -1.421875 13.15625 6.1875 
Q 5.515625 13.8125 5.515625 26.8125 
Q 5.515625 40.234375 12.765625 48.109375 
Q 20.015625 56 32.328125 56 
Q 43.359375 56 49.78125 48.890625 
Q 56.203125 41.796875 56.203125 29.59375 
z
M 47.21875 32.234375 
Q 47.125 39.59375 43.09375 43.984375 
Q 39.0625 48.390625 32.421875 48.390625 
Q 24.90625 48.390625 20.390625 44.140625 
Q 15.875 39.890625 15.1875 32.171875 
z
" id="DejaVuSans-65"/>
      <path d="M 2.984375 54.6875 
L 12.5 54.6875 
L 29.59375 8.796875 
L 46.6875 54.6875 
L 56.203125 54.6875 
L 35.6875 0 
L 23.484375 0 
z
" id="DejaVuSans-76"/>
      <path d="M 34.28125 27.484375 
Q 23.390625 27.484375 19.1875 25 
Q 14.984375 22.515625 14.984375 16.5 
Q 14.984375 11.71875 18.140625 8.90625 
Q 21.296875 6.109375 26.703125 6.109375 
Q 34.1875 6.109375 38.703125 11.40625 
Q 43.21875 16.703125 43.21875 25.484375 
L 43.21875 27.484375 
z
M 52.203125 31.203125 
L 52.203125 0 
L 43.21875 0 
L 43.21875 8.296875 
Q 40.140625 3.328125 35.546875 0.953125 
Q 30.953125 -1.421875 24.3125 -1.421875 
Q 15.921875 -1.421875 10.953125 3.296875 
Q 6 8.015625 6 15.921875 
Q 6 25.140625 12.171875 29.828125 
Q 18.359375 34.515625 30.609375 34.515625 
L 43.21875 34.515625 
L 43.21875 35.40625 
Q 43.21875 41.609375 39.140625 45 
Q 35.0625 48.390625 27.6875 48.390625 
Q 23 48.390625 18.546875 47.265625 
Q 14.109375 46.140625 10.015625 43.890625 
L 10.015625 52.203125 
Q 14.9375 54.109375 19.578125 55.046875 
Q 24.21875 56 28.609375 56 
Q 40.484375 56 46.34375 49.84375 
Q 52.203125 43.703125 52.203125 31.203125 
z
" id="DejaVuSans-61"/>
      <path d="M 44.28125 53.078125 
L 44.28125 44.578125 
Q 40.484375 46.53125 36.375 47.5 
Q 32.28125 48.484375 27.875 48.484375 
Q 21.1875 48.484375 17.84375 46.4375 
Q 14.5 44.390625 14.5 40.28125 
Q 14.5 37.15625 16.890625 35.375 
Q 19.28125 33.59375 26.515625 31.984375 
L 29.59375 31.296875 
Q 39.15625 29.25 43.1875 25.515625 
Q 47.21875 21.78125 47.21875 15.09375 
Q 47.21875 7.46875 41.1875 3.015625 
Q 35.15625 -1.421875 24.609375 -1.421875 
Q 20.21875 -1.421875 15.453125 -0.5625 
Q 10.6875 0.296875 5.421875 2 
L 5.421875 11.28125 
Q 10.40625 8.6875 15.234375 7.390625 
Q 20.0625 6.109375 24.8125 6.109375 
Q 31.15625 6.109375 34.5625 8.28125 
Q 37.984375 10.453125 37.984375 14.40625 
Q 37.984375 18.0625 35.515625 20.015625 
Q 33.0625 21.96875 24.703125 23.78125 
L 21.578125 24.515625 
Q 13.234375 26.265625 9.515625 29.90625 
Q 5.8125 33.546875 5.8125 39.890625 
Q 5.8125 47.609375 11.28125 51.796875 
Q 16.75 56 26.8125 56 
Q 31.78125 56 36.171875 55.265625 
Q 40.578125 54.546875 44.28125 53.078125 
z
" id="DejaVuSans-73"/>
      <path d="M 25.390625 72.90625 
L 33.6875 72.90625 
L 8.296875 -9.28125 
L 0 -9.28125 
z
" id="DejaVuSans-2f"/>
      <path d="M 45.40625 46.390625 
L 45.40625 75.984375 
L 54.390625 75.984375 
L 54.390625 0 
L 45.40625 0 
L 45.40625 8.203125 
Q 42.578125 3.328125 38.25 0.953125 
Q 33.9375 -1.421875 27.875 -1.421875 
Q 17.96875 -1.421875 11.734375 6.484375 
Q 5.515625 14.40625 5.515625 27.296875 
Q 5.515625 40.1875 11.734375 48.09375 
Q 17.96875 56 27.875 56 
Q 33.9375 56 38.25 53.625 
Q 42.578125 51.265625 45.40625 46.390625 
z
M 14.796875 27.296875 
Q 14.796875 17.390625 18.875 11.75 
Q 22.953125 6.109375 30.078125 6.109375 
Q 37.203125 6.109375 41.296875 11.75 
Q 45.40625 17.390625 45.40625 27.296875 
Q 45.40625 37.203125 41.296875 42.84375 
Q 37.203125 48.484375 30.078125 48.484375 
Q 22.953125 48.484375 18.875 42.84375 
Q 14.796875 37.203125 14.796875 27.296875 
z
" id="DejaVuSans-64"/>
      <path d="M 9.421875 54.6875 
L 18.40625 54.6875 
L 18.40625 0 
L 9.421875 0 
z
M 9.421875 75.984375 
L 18.40625 75.984375 
L 18.40625 64.59375 
L 9.421875 64.59375 
z
" id="DejaVuSans-69"/>
      <path d="M 52 44.1875 
Q 55.375 50.25 60.0625 53.125 
Q 64.75 56 71.09375 56 
Q 79.640625 56 84.28125 50.015625 
Q 88.921875 44.046875 88.921875 33.015625 
L 88.921875 0 
L 79.890625 0 
L 79.890625 32.71875 
Q 79.890625 40.578125 77.09375 44.375 
Q 74.3125 48.1875 68.609375 48.1875 
Q 61.625 48.1875 57.5625 43.546875 
Q 53.515625 38.921875 53.515625 30.90625 
L 53.515625 0 
L 44.484375 0 
L 44.484375 32.71875 
Q 44.484375 40.625 41.703125 44.40625 
Q 38.921875 48.1875 33.109375 48.1875 
Q 26.21875 48.1875 22.15625 43.53125 
Q 18.109375 38.875 18.109375 30.90625 
L 18.109375 0 
L 9.078125 0 
L 9.078125 54.6875 
L 18.109375 54.6875 
L 18.109375 46.1875 
Q 21.1875 51.21875 25.484375 53.609375 
Q 29.78125 56 35.6875 56 
Q 41.65625 56 45.828125 52.96875 
Q 50 49.953125 52 44.1875 
z
" id="DejaVuSans-6d"/>
      <path d="M 54.890625 33.015625 
L 54.890625 0 
L 45.90625 0 
L 45.90625 32.71875 
Q 45.90625 40.484375 42.875 44.328125 
Q 39.84375 48.1875 33.796875 48.1875 
Q 26.515625 48.1875 22.3125 43.546875 
Q 18.109375 38.921875 18.109375 30.90625 
L 18.109375 0 
L 9.078125 0 
L 9.078125 54.6875 
L 18.109375 54.6875 
L 18.109375 46.1875 
Q 21.34375 51.125 25.703125 53.5625 
Q 30.078125 56 35.796875 56 
Q 45.21875 56 50.046875 50.171875 
Q 54.890625 44.34375 54.890625 33.015625 
z
" id="DejaVuSans-6e"/>
      <path d="M 8.015625 75.875 
L 15.828125 75.875 
Q 23.140625 64.359375 26.78125 53.3125 
Q 30.421875 42.28125 30.421875 31.390625 
Q 30.421875 20.453125 26.78125 9.375 
Q 23.140625 -1.703125 15.828125 -13.1875 
L 8.015625 -13.1875 
Q 14.5 -2 17.703125 9.0625 
Q 20.90625 20.125 20.90625 31.390625 
Q 20.90625 42.671875 17.703125 53.65625 
Q 14.5 64.65625 8.015625 75.875 
z
" id="DejaVuSans-29"/>
     </defs>
     <g transform="translate(107.481219 337.433594)scale(0.17 -0.17)">
      <use xlink:href="#DejaVuSans-6c"/>
      <use x="27.783203" xlink:href="#DejaVuSans-6f"/>
      <use x="88.964844" xlink:href="#DejaVuSans-67"/>
      <use x="152.441406" xlink:href="#DejaVuSans-31"/>
      <use x="216.064453" xlink:href="#DejaVuSans-30"/>
      <use x="279.6875" xlink:href="#DejaVuSans-28"/>
      <use x="318.701172" xlink:href="#DejaVuSans-23"/>
      <use x="402.490234" xlink:href="#DejaVuSans-20"/>
      <use x="434.277344" xlink:href="#DejaVuSans-66"/>
      <use x="469.404297" xlink:href="#DejaVuSans-2d"/>
      <use x="505.488281" xlink:href="#DejaVuSans-65"/>
      <use x="567.011719" xlink:href="#DejaVuSans-76"/>
      <use x="626.191406" xlink:href="#DejaVuSans-61"/>
      <use x="687.470703" xlink:href="#DejaVuSans-6c"/>
      <use x="715.253906" xlink:href="#DejaVuSans-73"/>
      <use x="767.353516" xlink:href="#DejaVuSans-20"/>
      <use x="799.140625" xlink:href="#DejaVuSans-2f"/>
      <use x="832.832031" xlink:href="#DejaVuSans-20"/>
      <use x="864.619141" xlink:href="#DejaVuSans-64"/>
      <use x="928.095703" xlink:href="#DejaVuSans-69"/>
      <use x="955.878906" xlink:href="#DejaVuSans-6d"/>
      <use x="1053.291016" xlink:href="#DejaVuSans-65"/>
      <use x="1114.814453" xlink:href="#DejaVuSans-6e"/>
      <use x="1178.193359" xlink:href="#DejaVuSans-73"/>
      <use x="1230.292969" xlink:href="#DejaVuSans-69"/>
      <use x="1258.076172" xlink:href="#DejaVuSans-6f"/>
      <use x="1319.257812" xlink:href="#DejaVuSans-6e"/>
      <use x="1382.636719" xlink:href="#DejaVuSans-29"/>
     </g>
    </g>
   </g>
   <g id="matplotlib.axis_2">
    <g id="ytick_1">
     <g id="line2d_14">
      <path clip-path="url(#pc967aa9a47)" d="M 56.66 294.16 
L 399.984 294.16 
" style="fill:none;stroke:#b0b0b0;stroke-linecap:square;stroke-width:0.8;"/>
     </g>
     <g id="line2d_15">
      <defs>
       <path d="M 0 0 
L -3.5 0 
" id="m263b1e24a4" style="stroke:#000000;stroke-width:0.8;"/>
      </defs>
      <g>
       <use style="stroke:#000000;stroke-width:0.8;" x="56.66" xlink:href="#m263b1e24a4" y="294.16"/>
      </g>
     </g>
     <g id="text_7">
      <!-- 0.0 -->
      <defs>
       <path d="M 10.6875 12.40625 
L 21 12.40625 
L 21 0 
L 10.6875 0 
z
" id="DejaVuSans-2e"/>
      </defs>
      <g transform="translate(24.215 300.23875)scale(0.16 -0.16)">
       <use xlink:href="#DejaVuSans-30"/>
       <use x="63.623047" xlink:href="#DejaVuSans-2e"/>
       <use x="95.410156" xlink:href="#DejaVuSans-30"/>
      </g>
     </g>
    </g>
    <g id="ytick_2">
     <g id="line2d_16">
      <path clip-path="url(#pc967aa9a47)" d="M 56.66 240.829307 
L 399.984 240.829307 
" style="fill:none;stroke:#b0b0b0;stroke-linecap:square;stroke-width:0.8;"/>
     </g>
     <g id="line2d_17">
      <g>
       <use style="stroke:#000000;stroke-width:0.8;" x="56.66" xlink:href="#m263b1e24a4" y="240.829307"/>
      </g>
     </g>
     <g id="text_8">
      <!-- 0.2 -->
      <g transform="translate(24.215 246.908057)scale(0.16 -0.16)">
       <use xlink:href="#DejaVuSans-30"/>
       <use x="63.623047" xlink:href="#DejaVuSans-2e"/>
       <use x="95.410156" xlink:href="#DejaVuSans-32"/>
      </g>
     </g>
    </g>
    <g id="ytick_3">
     <g id="line2d_18">
      <path clip-path="url(#pc967aa9a47)" d="M 56.66 187.498614 
L 399.984 187.498614 
" style="fill:none;stroke:#b0b0b0;stroke-linecap:square;stroke-width:0.8;"/>
     </g>
     <g id="line2d_19">
      <g>
       <use style="stroke:#000000;stroke-width:0.8;" x="56.66" xlink:href="#m263b1e24a4" y="187.498614"/>
      </g>
     </g>
     <g id="text_9">
      <!-- 0.4 -->
      <g transform="translate(24.215 193.577364)scale(0.16 -0.16)">
       <use xlink:href="#DejaVuSans-30"/>
       <use x="63.623047" xlink:href="#DejaVuSans-2e"/>
       <use x="95.410156" xlink:href="#DejaVuSans-34"/>
      </g>
     </g>
    </g>
    <g id="ytick_4">
     <g id="line2d_20">
      <path clip-path="url(#pc967aa9a47)" d="M 56.66 134.167921 
L 399.984 134.167921 
" style="fill:none;stroke:#b0b0b0;stroke-linecap:square;stroke-width:0.8;"/>
     </g>
     <g id="line2d_21">
      <g>
       <use style="stroke:#000000;stroke-width:0.8;" x="56.66" xlink:href="#m263b1e24a4" y="134.167921"/>
      </g>
     </g>
     <g id="text_10">
      <!-- 0.6 -->
      <g transform="translate(24.215 140.246671)scale(0.16 -0.16)">
       <use xlink:href="#DejaVuSans-30"/>
       <use x="63.623047" xlink:href="#DejaVuSans-2e"/>
       <use x="95.410156" xlink:href="#DejaVuSans-36"/>
      </g>
     </g>
    </g>
    <g id="ytick_5">
     <g id="line2d_22">
      <path clip-path="url(#pc967aa9a47)" d="M 56.66 80.837228 
L 399.984 80.837228 
" style="fill:none;stroke:#b0b0b0;stroke-linecap:square;stroke-width:0.8;"/>
     </g>
     <g id="line2d_23">
      <g>
       <use style="stroke:#000000;stroke-width:0.8;" x="56.66" xlink:href="#m263b1e24a4" y="80.837228"/>
      </g>
     </g>
     <g id="text_11">
      <!-- 0.8 -->
      <g transform="translate(24.215 86.915978)scale(0.16 -0.16)">
       <use xlink:href="#DejaVuSans-30"/>
       <use x="63.623047" xlink:href="#DejaVuSans-2e"/>
       <use x="95.410156" xlink:href="#DejaVuSans-38"/>
      </g>
     </g>
    </g>
    <g id="ytick_6">
     <g id="line2d_24">
      <path clip-path="url(#pc967aa9a47)" d="M 56.66 27.506535 
L 399.984 27.506535 
" style="fill:none;stroke:#b0b0b0;stroke-linecap:square;stroke-width:0.8;"/>
     </g>
     <g id="line2d_25">
      <g>
       <use style="stroke:#000000;stroke-width:0.8;" x="56.66" xlink:href="#m263b1e24a4" y="27.506535"/>
      </g>
     </g>
     <g id="text_12">
      <!-- 1.0 -->
      <g transform="translate(24.215 33.585285)scale(0.16 -0.16)">
       <use xlink:href="#DejaVuSans-31"/>
       <use x="63.623047" xlink:href="#DejaVuSans-2e"/>
       <use x="95.410156" xlink:href="#DejaVuSans-30"/>
      </g>
     </g>
    </g>
    <g id="text_13">
     <!-- Fraction of function,target pairs -->
     <defs>
      <path d="M 9.8125 72.90625 
L 51.703125 72.90625 
L 51.703125 64.59375 
L 19.671875 64.59375 
L 19.671875 43.109375 
L 48.578125 43.109375 
L 48.578125 34.8125 
L 19.671875 34.8125 
L 19.671875 0 
L 9.8125 0 
z
" id="DejaVuSans-46"/>
      <path d="M 41.109375 46.296875 
Q 39.59375 47.171875 37.8125 47.578125 
Q 36.03125 48 33.890625 48 
Q 26.265625 48 22.1875 43.046875 
Q 18.109375 38.09375 18.109375 28.8125 
L 18.109375 0 
L 9.078125 0 
L 9.078125 54.6875 
L 18.109375 54.6875 
L 18.109375 46.1875 
Q 20.953125 51.171875 25.484375 53.578125 
Q 30.03125 56 36.53125 56 
Q 37.453125 56 38.578125 55.875 
Q 39.703125 55.765625 41.0625 55.515625 
z
" id="DejaVuSans-72"/>
      <path d="M 48.78125 52.59375 
L 48.78125 44.1875 
Q 44.96875 46.296875 41.140625 47.34375 
Q 37.3125 48.390625 33.40625 48.390625 
Q 24.65625 48.390625 19.8125 42.84375 
Q 14.984375 37.3125 14.984375 27.296875 
Q 14.984375 17.28125 19.8125 11.734375 
Q 24.65625 6.203125 33.40625 6.203125 
Q 37.3125 6.203125 41.140625 7.25 
Q 44.96875 8.296875 48.78125 10.40625 
L 48.78125 2.09375 
Q 45.015625 0.34375 40.984375 -0.53125 
Q 36.96875 -1.421875 32.421875 -1.421875 
Q 20.0625 -1.421875 12.78125 6.34375 
Q 5.515625 14.109375 5.515625 27.296875 
Q 5.515625 40.671875 12.859375 48.328125 
Q 20.21875 56 33.015625 56 
Q 37.15625 56 41.109375 55.140625 
Q 45.0625 54.296875 48.78125 52.59375 
z
" id="DejaVuSans-63"/>
      <path d="M 18.3125 70.21875 
L 18.3125 54.6875 
L 36.8125 54.6875 
L 36.8125 47.703125 
L 18.3125 47.703125 
L 18.3125 18.015625 
Q 18.3125 11.328125 20.140625 9.421875 
Q 21.96875 7.515625 27.59375 7.515625 
L 36.8125 7.515625 
L 36.8125 0 
L 27.59375 0 
Q 17.1875 0 13.234375 3.875 
Q 9.28125 7.765625 9.28125 18.015625 
L 9.28125 47.703125 
L 2.6875 47.703125 
L 2.6875 54.6875 
L 9.28125 54.6875 
L 9.28125 70.21875 
z
" id="DejaVuSans-74"/>
      <path d="M 8.5 21.578125 
L 8.5 54.6875 
L 17.484375 54.6875 
L 17.484375 21.921875 
Q 17.484375 14.15625 20.5 10.265625 
Q 23.53125 6.390625 29.59375 6.390625 
Q 36.859375 6.390625 41.078125 11.03125 
Q 45.3125 15.671875 45.3125 23.6875 
L 45.3125 54.6875 
L 54.296875 54.6875 
L 54.296875 0 
L 45.3125 0 
L 45.3125 8.40625 
Q 42.046875 3.421875 37.71875 1 
Q 33.40625 -1.421875 27.6875 -1.421875 
Q 18.265625 -1.421875 13.375 4.4375 
Q 8.5 10.296875 8.5 21.578125 
z
M 31.109375 56 
z
" id="DejaVuSans-75"/>
      <path d="M 11.71875 12.40625 
L 22.015625 12.40625 
L 22.015625 4 
L 14.015625 -11.625 
L 7.71875 -11.625 
L 11.71875 4 
z
" id="DejaVuSans-2c"/>
      <path d="M 18.109375 8.203125 
L 18.109375 -20.796875 
L 9.078125 -20.796875 
L 9.078125 54.6875 
L 18.109375 54.6875 
L 18.109375 46.390625 
Q 20.953125 51.265625 25.265625 53.625 
Q 29.59375 56 35.59375 56 
Q 45.5625 56 51.78125 48.09375 
Q 58.015625 40.1875 58.015625 27.296875 
Q 58.015625 14.40625 51.78125 6.484375 
Q 45.5625 -1.421875 35.59375 -1.421875 
Q 29.59375 -1.421875 25.265625 0.953125 
Q 20.953125 3.328125 18.109375 8.203125 
z
M 48.6875 27.296875 
Q 48.6875 37.203125 44.609375 42.84375 
Q 40.53125 48.484375 33.40625 48.484375 
Q 26.265625 48.484375 22.1875 42.84375 
Q 18.109375 37.203125 18.109375 27.296875 
Q 18.109375 17.390625 22.1875 11.75 
Q 26.265625 6.109375 33.40625 6.109375 
Q 40.53125 6.109375 44.609375 11.75 
Q 48.6875 17.390625 48.6875 27.296875 
z
" id="DejaVuSans-70"/>
     </defs>
     <g transform="translate(16.679531 294.639375)rotate(-90)scale(0.17 -0.17)">
      <use xlink:href="#DejaVuSans-46"/>
      <use x="57.410156" xlink:href="#DejaVuSans-72"/>
      <use x="98.523438" xlink:href="#DejaVuSans-61"/>
      <use x="159.802734" xlink:href="#DejaVuSans-63"/>
      <use x="214.783203" xlink:href="#DejaVuSans-74"/>
      <use x="253.992188" xlink:href="#DejaVuSans-69"/>
      <use x="281.775391" xlink:href="#DejaVuSans-6f"/>
      <use x="342.957031" xlink:href="#DejaVuSans-6e"/>
      <use x="406.335938" xlink:href="#DejaVuSans-20"/>
      <use x="438.123047" xlink:href="#DejaVuSans-6f"/>
      <use x="499.304688" xlink:href="#DejaVuSans-66"/>
      <use x="534.509766" xlink:href="#DejaVuSans-20"/>
      <use x="566.296875" xlink:href="#DejaVuSans-66"/>
      <use x="601.501953" xlink:href="#DejaVuSans-75"/>
      <use x="664.880859" xlink:href="#DejaVuSans-6e"/>
      <use x="728.259766" xlink:href="#DejaVuSans-63"/>
      <use x="783.240234" xlink:href="#DejaVuSans-74"/>
      <use x="822.449219" xlink:href="#DejaVuSans-69"/>
      <use x="850.232422" xlink:href="#DejaVuSans-6f"/>
      <use x="911.414062" xlink:href="#DejaVuSans-6e"/>
      <use x="974.792969" xlink:href="#DejaVuSans-2c"/>
      <use x="1006.580078" xlink:href="#DejaVuSans-74"/>
      <use x="1045.789062" xlink:href="#DejaVuSans-61"/>
      <use x="1107.068359" xlink:href="#DejaVuSans-72"/>
      <use x="1148.166016" xlink:href="#DejaVuSans-67"/>
      <use x="1211.642578" xlink:href="#DejaVuSans-65"/>
      <use x="1273.166016" xlink:href="#DejaVuSans-74"/>
      <use x="1312.375" xlink:href="#DejaVuSans-20"/>
      <use x="1344.162109" xlink:href="#DejaVuSans-70"/>
      <use x="1407.638672" xlink:href="#DejaVuSans-61"/>
      <use x="1468.917969" xlink:href="#DejaVuSans-69"/>
      <use x="1496.701172" xlink:href="#DejaVuSans-72"/>
      <use x="1537.814453" xlink:href="#DejaVuSans-73"/>
     </g>
    </g>
   </g>
   <g id="line2d_26">
    <defs>
     <path d="M 0 1.5 
C 0.397805 1.5 0.77937 1.341951 1.06066 1.06066 
C 1.341951 0.77937 1.5 0.397805 1.5 0 
C 1.5 -0.397805 1.341951 -0.77937 1.06066 -1.06066 
C 0.77937 -1.341951 0.397805 -1.5 0 -1.5 
C -0.397805 -1.5 -0.77937 -1.341951 -1.06066 -1.06066 
C -1.341951 -0.77937 -1.5 -0.397805 -1.5 0 
C -1.5 0.397805 -1.341951 0.77937 -1.06066 1.06066 
C -0.77937 1.341951 -0.397805 1.5 0 1.5 
z
" id="meaaa28ee6b" style="stroke:#f5deb3;"/>
    </defs>
    <g>
     <use style="fill:#f5deb3;stroke:#f5deb3;" x="222.285535" xlink:href="#meaaa28ee6b" y="27.506535"/>
     <use style="fill:#f5deb3;stroke:#f5deb3;" x="222.285535" xlink:href="#meaaa28ee6b" y="27.506535"/>
    </g>
   </g>
   <g id="line2d_27">
    <g>
     <use style="fill:#f5deb3;stroke:#f5deb3;stroke-linejoin:miter;stroke-width:1.5;" x="159.137851" xlink:href="#m96ce91b65f" y="247.103506"/>
     <use style="fill:#f5deb3;stroke:#f5deb3;stroke-linejoin:miter;stroke-width:1.5;" x="159.308852" xlink:href="#m96ce91b65f" y="90.248526"/>
     <use style="fill:#f5deb3;stroke:#f5deb3;stroke-linejoin:miter;stroke-width:1.5;" x="222.285535" xlink:href="#m96ce91b65f" y="32.735034"/>
     <use style="fill:#f5deb3;stroke:#f5deb3;stroke-linejoin:miter;stroke-width:1.5;" x="222.285535" xlink:href="#m96ce91b65f" y="27.506535"/>
     <use style="fill:#f5deb3;stroke:#f5deb3;stroke-linejoin:miter;stroke-width:1.5;" x="333.534194" xlink:href="#m96ce91b65f" y="27.506535"/>
    </g>
   </g>
   <g id="line2d_28">
    <defs>
     <path d="M 0 1.5 
C 0.397805 1.5 0.77937 1.341951 1.06066 1.06066 
C 1.341951 0.77937 1.5 0.397805 1.5 0 
C 1.5 -0.397805 1.341951 -0.77937 1.06066 -1.06066 
C 0.77937 -1.341951 0.397805 -1.5 0 -1.5 
C -0.397805 -1.5 -0.77937 -1.341951 -1.06066 -1.06066 
C -1.341951 -0.77937 -1.5 -0.397805 -1.5 0 
C -1.5 0.397805 -1.341951 0.77937 -1.06066 1.06066 
C -0.77937 1.341951 -0.397805 1.5 0 1.5 
z
" id="m6359898e07" style="stroke:#e6e6e6;"/>
    </defs>
    <g>
     <use style="fill:#e6e6e6;stroke:#e6e6e6;" x="295.991525" xlink:href="#m6359898e07" y="273.246003"/>
     <use style="fill:#e6e6e6;stroke:#e6e6e6;" x="295.991525" xlink:href="#m6359898e07" y="273.246003"/>
    </g>
   </g>
   <g id="line2d_29">
    <path d="M 183.450024 294.16 
L 183.450024 293.63715 
L 203.849926 293.63715 
L 203.849926 293.1143 
L 208.308236 293.1143 
L 208.308236 292.0686 
L 208.687428 292.0686 
L 208.687428 291.54575 
L 208.828196 291.54575 
L 208.828196 291.0229 
L 209.364098 291.0229 
L 209.364098 289.977201 
L 215.477335 289.977201 
L 215.477335 289.454351 
L 218.169377 289.454351 
L 218.169377 288.408651 
L 219.893181 288.408651 
L 219.893181 287.885801 
L 224.838194 287.885801 
L 224.838194 287.362951 
L 229.618997 287.362951 
L 229.618997 286.840101 
L 233.290323 286.840101 
L 233.290323 286.317251 
L 236.394774 286.317251 
L 236.394774 285.794401 
L 236.628195 285.794401 
L 236.628195 285.271551 
L 238.389786 285.271551 
L 238.389786 284.225851 
L 238.939684 284.225851 
L 238.939684 283.703001 
L 238.995011 283.703001 
L 238.995011 283.180151 
L 241.106168 283.180151 
L 241.106168 282.657301 
L 243.207284 282.657301 
L 243.207284 282.134452 
L 243.765806 282.134452 
L 243.765806 281.611602 
L 244.41429 281.611602 
L 244.41429 280.565902 
L 244.434832 280.565902 
L 244.434832 280.043052 
L 247.260699 280.043052 
L 247.260699 279.520202 
L 248.369858 279.520202 
L 248.369858 278.997352 
L 250.533065 278.997352 
L 250.533065 278.474502 
L 252.419197 278.474502 
L 252.419197 277.951652 
L 256.002765 277.951652 
L 256.002765 277.428802 
L 257.292696 277.428802 
L 257.292696 276.383102 
L 258.147833 276.383102 
L 258.147833 275.860252 
L 267.493675 275.860252 
L 267.493675 275.337402 
L 273.951815 275.337402 
L 273.951815 274.814553 
L 276.81565 274.814553 
L 276.81565 274.291703 
L 285.015291 274.291703 
L 285.015291 273.768853 
L 295.991525 273.768853 
L 295.991525 273.246003 
L 333.534194 273.246003 
" style="fill:none;stroke:#e6e6e6;stroke-linecap:square;stroke-width:1.5;"/>
   </g>
   <g id="line2d_30"/>
   <g id="line2d_31">
    <path d="M 0 0 
" style="fill:none;stroke:#e6e6e6;stroke-linecap:square;stroke-width:1.5;"/>
   </g>
   <g id="line2d_32">
    <path clip-path="url(#pc967aa9a47)" d="M 258.260407 275.860252 
" style="fill:none;stroke:#e6e6e6;stroke-linecap:square;stroke-width:1.5;"/>
    <defs>
     <path d="M -12 12 
L 12 -12 
M -12 -12 
L 12 12 
" id="m52873c325f" style="stroke:#e6e6e6;stroke-width:3;"/>
    </defs>
    <g clip-path="url(#pc967aa9a47)">
     <use style="fill:#e6e6e6;stroke:#e6e6e6;stroke-width:3;" x="258.260407" xlink:href="#m52873c325f" y="275.860252"/>
    </g>
   </g>
   <g id="line2d_33">
    <g>
     <use style="fill:#e6e6e6;stroke:#e6e6e6;" x="253.134526" xlink:href="#m6359898e07" y="278.474502"/>
     <use style="fill:#e6e6e6;stroke:#e6e6e6;" x="253.134526" xlink:href="#m6359898e07" y="278.474502"/>
    </g>
   </g>
   <g id="line2d_34">
    <path d="M 186.720295 294.16 
L 186.720295 293.63715 
L 187.338013 293.63715 
L 187.338013 293.1143 
L 188.074047 293.1143 
L 188.074047 292.59145 
L 188.677918 292.59145 
L 188.677918 290.50005 
L 190.645791 290.50005 
L 190.645791 288.931501 
L 190.835669 288.931501 
L 190.835669 288.408651 
L 191.252783 288.408651 
L 191.252783 287.885801 
L 192.333557 287.885801 
L 192.333557 287.362951 
L 192.95048 287.362951 
L 192.95048 286.840101 
L 195.794215 286.840101 
L 195.794215 285.271551 
L 197.504545 285.271551 
L 197.504545 284.748701 
L 227.312982 284.748701 
L 227.312982 284.225851 
L 228.096582 284.225851 
L 228.096582 283.180151 
L 229.005184 283.180151 
L 229.005184 282.657301 
L 229.354887 282.657301 
L 229.354887 282.134452 
L 230.226941 282.134452 
L 230.226941 281.611602 
L 231.202313 281.611602 
L 231.202313 281.088752 
L 231.88789 281.088752 
L 231.88789 280.043052 
L 235.025151 280.043052 
L 235.025151 278.997352 
L 253.134526 278.997352 
L 253.134526 278.474502 
L 333.534194 278.474502 
" style="fill:none;stroke:#e6e6e6;stroke-linecap:square;stroke-width:1.5;"/>
   </g>
   <g id="line2d_35"/>
   <g id="line2d_36">
    <path d="M 0 0 
" style="fill:none;stroke:#e6e6e6;stroke-linecap:square;stroke-width:1.5;"/>
   </g>
   <g id="line2d_37">
    <path clip-path="url(#pc967aa9a47)" d="M 293.985583 278.474502 
" style="fill:none;stroke:#e6e6e6;stroke-linecap:square;stroke-width:1.5;"/>
    <g clip-path="url(#pc967aa9a47)">
     <use style="fill:#e6e6e6;stroke:#e6e6e6;stroke-width:3;" x="293.985583" xlink:href="#m52873c325f" y="278.474502"/>
    </g>
   </g>
   <g id="line2d_38">
    <path clip-path="url(#pc967aa9a47)" d="M 56.66 294.16 
L 56.66 294.16 
L 56.66 294.16 
L 56.66 294.16 
L 399.984 294.16 
" style="fill:none;stroke:#e6e6e6;stroke-linecap:square;stroke-width:1.5;"/>
   </g>
   <g id="line2d_39"/>
   <g id="line2d_40">
    <path clip-path="url(#pc967aa9a47)" d="M 0 0 
" style="fill:none;stroke:#e6e6e6;stroke-linecap:square;stroke-width:1.5;"/>
   </g>
   <g id="line2d_41">
    <path clip-path="url(#pc967aa9a47)" d="M 56.66 294.16 
L 56.66 294.16 
L 56.66 294.16 
L 56.66 294.16 
L 399.984 294.16 
" style="fill:none;stroke:#e6e6e6;stroke-linecap:square;stroke-width:1.5;"/>
   </g>
   <g id="line2d_42"/>
   <g id="line2d_43">
    <path clip-path="url(#pc967aa9a47)" d="M 0 0 
" style="fill:none;stroke:#e6e6e6;stroke-linecap:square;stroke-width:1.5;"/>
   </g>
   <g id="line2d_44">
    <g>
     <use style="fill:#e6e6e6;stroke:#e6e6e6;" x="306.921502" xlink:href="#m6359898e07" y="273.246003"/>
     <use style="fill:#e6e6e6;stroke:#e6e6e6;" x="306.921502" xlink:href="#m6359898e07" y="273.246003"/>
    </g>
   </g>
   <g id="line2d_45">
    <path d="M 135.44177 294.16 
L 135.44177 293.63715 
L 164.265602 293.63715 
L 164.265602 293.1143 
L 164.867127 293.1143 
L 164.867127 292.0686 
L 165.036755 292.0686 
L 165.036755 291.54575 
L 165.290408 291.54575 
L 165.290408 291.0229 
L 165.587355 291.0229 
L 165.587355 290.50005 
L 165.588112 290.50005 
L 165.588112 289.977201 
L 165.708018 289.977201 
L 165.708018 288.408651 
L 178.052922 288.408651 
L 178.052922 287.362951 
L 178.75379 287.362951 
L 178.75379 286.317251 
L 179.258644 286.317251 
L 179.258644 285.794401 
L 179.579672 285.794401 
L 179.579672 284.748701 
L 179.890202 284.748701 
L 179.890202 283.703001 
L 180.013513 283.703001 
L 180.013513 283.180151 
L 180.045507 283.180151 
L 180.045507 282.657301 
L 195.572542 282.657301 
L 195.572542 282.134452 
L 195.691805 282.134452 
L 195.691805 280.565902 
L 196.069877 280.565902 
L 196.069877 280.043052 
L 208.425463 280.043052 
L 208.425463 279.520202 
L 208.696414 279.520202 
L 208.696414 278.474502 
L 209.120312 278.474502 
L 209.120312 277.951652 
L 209.652437 277.951652 
L 209.652437 277.428802 
L 229.234971 277.428802 
L 229.234971 276.905952 
L 272.975165 276.905952 
L 272.975165 276.383102 
L 286.629522 276.383102 
L 286.629522 275.860252 
L 293.16262 275.860252 
L 293.16262 275.337402 
L 293.465613 275.337402 
L 293.465613 274.814553 
L 297.176605 274.814553 
L 297.176605 274.291703 
L 304.68 274.291703 
L 304.68 273.768853 
L 306.921502 273.768853 
L 306.921502 273.246003 
L 333.534194 273.246003 
" style="fill:none;stroke:#e6e6e6;stroke-linecap:square;stroke-width:1.5;"/>
   </g>
   <g id="line2d_46"/>
   <g id="line2d_47">
    <path d="M 0 0 
" style="fill:none;stroke:#e6e6e6;stroke-linecap:square;stroke-width:1.5;"/>
   </g>
   <g id="line2d_48">
    <path clip-path="url(#pc967aa9a47)" d="M 272.873422 276.905952 
" style="fill:none;stroke:#e6e6e6;stroke-linecap:square;stroke-width:1.5;"/>
    <g clip-path="url(#pc967aa9a47)">
     <use style="fill:#e6e6e6;stroke:#e6e6e6;stroke-width:3;" x="272.873422" xlink:href="#m52873c325f" y="276.905952"/>
    </g>
   </g>
   <g id="line2d_49">
    <path clip-path="url(#pc967aa9a47)" d="M 56.66 294.16 
L 56.66 294.16 
L 56.66 294.16 
L 56.66 294.16 
L 399.984 294.16 
" style="fill:none;stroke:#e6e6e6;stroke-linecap:square;stroke-width:1.5;"/>
   </g>
   <g id="line2d_50"/>
   <g id="line2d_51">
    <path clip-path="url(#pc967aa9a47)" d="M 0 0 
" style="fill:none;stroke:#e6e6e6;stroke-linecap:square;stroke-width:1.5;"/>
   </g>
   <g id="line2d_52">
    <path clip-path="url(#pc967aa9a47)" d="M 56.66 294.16 
L 56.66 294.16 
L 56.66 294.16 
L 56.66 294.16 
L 399.984 294.16 
" style="fill:none;stroke:#e6e6e6;stroke-linecap:square;stroke-width:1.5;"/>
   </g>
   <g id="line2d_53"/>
   <g id="line2d_54">
    <path clip-path="url(#pc967aa9a47)" d="M 0 0 
" style="fill:none;stroke:#e6e6e6;stroke-linecap:square;stroke-width:1.5;"/>
   </g>
   <g id="line2d_55">
    <g>
     <use style="fill:#e6e6e6;stroke:#e6e6e6;" x="324.925941" xlink:href="#m6359898e07" y="236.646507"/>
     <use style="fill:#e6e6e6;stroke:#e6e6e6;" x="324.925941" xlink:href="#m6359898e07" y="236.646507"/>
    </g>
   </g>
   <g id="line2d_56">
    <path d="M 136.399297 294.16 
L 136.399297 293.1143 
L 138.77309 293.1143 
L 138.77309 292.59145 
L 139.71304 292.59145 
L 139.71304 291.54575 
L 141.583552 291.54575 
L 141.583552 291.0229 
L 143.27301 291.0229 
L 143.27301 290.50005 
L 143.676052 290.50005 
L 143.740966 288.931501 
L 144.083091 288.931501 
L 144.178098 287.885801 
L 144.836433 287.885801 
L 144.864272 286.840101 
L 145.954245 286.840101 
L 145.954245 286.317251 
L 147.61777 286.317251 
L 147.712296 284.748701 
L 147.812695 284.748701 
L 147.812695 284.225851 
L 148.289509 284.225851 
L 148.396897 282.657301 
L 149.986517 282.657301 
L 150.09316 281.088752 
L 150.297109 281.088752 
L 150.297109 280.043052 
L 150.645585 280.043052 
L 150.645585 279.520202 
L 150.76617 279.520202 
L 150.76617 278.997352 
L 151.456927 278.997352 
L 151.456927 278.474502 
L 152.549832 278.474502 
L 152.549832 277.951652 
L 153.279366 277.951652 
L 153.359744 276.383102 
L 153.464291 276.383102 
L 153.464291 275.860252 
L 153.880716 275.860252 
L 153.880716 275.337402 
L 154.043019 275.337402 
L 154.043019 274.814553 
L 156.17936 274.814553 
L 156.17936 272.723153 
L 156.875672 272.723153 
L 156.910824 271.154603 
L 157.777755 271.154603 
L 157.7861 270.108903 
L 158.814245 270.108903 
L 158.814245 269.586053 
L 159.113598 269.586053 
L 159.113598 269.063203 
L 160.158956 269.063203 
L 160.158956 268.540353 
L 160.902491 268.540353 
L 160.902491 268.017503 
L 161.924232 268.017503 
L 161.924232 266.448954 
L 163.37748 266.448954 
L 163.37748 265.926104 
L 164.626318 265.926104 
L 164.626318 264.880404 
L 165.41699 264.880404 
L 165.41699 264.357554 
L 165.990502 264.357554 
L 165.990502 263.834704 
L 166.142848 263.834704 
L 166.142848 263.311854 
L 166.708612 263.311854 
L 166.708612 262.266154 
L 167.102507 262.266154 
L 167.102507 261.220454 
L 190.898903 261.220454 
L 190.898903 260.697604 
L 191.928131 260.697604 
L 191.928131 260.174754 
L 192.459582 260.174754 
L 192.459582 259.129055 
L 199.473668 259.129055 
L 199.473668 258.606205 
L 200.382426 258.606205 
L 200.382426 258.083355 
L 205.695425 258.083355 
L 205.695425 257.560505 
L 206.012763 257.560505 
L 206.012763 256.514805 
L 206.843819 256.514805 
L 206.843819 255.469105 
L 210.004689 255.469105 
L 210.004689 254.423405 
L 214.594793 254.423405 
L 214.594793 253.900555 
L 225.956447 253.900555 
L 226.031974 251.286306 
L 226.143441 251.286306 
L 226.143441 250.763456 
L 235.73264 250.763456 
L 235.73264 249.717756 
L 239.939157 249.717756 
L 239.939157 249.194906 
L 245.212381 249.194906 
L 245.212381 248.672056 
L 254.429398 248.672056 
L 254.458542 247.103506 
L 255.283226 247.103506 
L 255.283226 246.057806 
L 258.566254 246.057806 
L 258.566254 245.012106 
L 260.002554 245.012106 
L 260.002554 244.489256 
L 261.532626 244.489256 
L 261.532626 243.966407 
L 262.2827 243.966407 
L 262.2827 243.443557 
L 276.37701 243.443557 
L 276.37701 242.920707 
L 283.500977 242.920707 
L 283.500977 242.397857 
L 294.308643 242.397857 
L 294.308643 241.875007 
L 300.432864 241.875007 
L 300.432887 239.783607 
L 301.435307 239.783607 
L 301.435307 239.260757 
L 310.016043 239.260757 
L 310.016043 238.737907 
L 312.877151 238.737907 
L 312.877151 238.215057 
L 313.184648 238.215057 
L 313.184648 237.692207 
L 321.642303 237.692207 
L 321.642303 237.169357 
L 324.925941 237.169357 
L 324.925941 236.646507 
L 333.534194 236.646507 
L 333.534194 236.646507 
" style="fill:none;stroke:#e6e6e6;stroke-linecap:square;stroke-width:1.5;"/>
   </g>
   <g id="line2d_57"/>
   <g id="line2d_58">
    <path d="M 0 0 
" style="fill:none;stroke:#e6e6e6;stroke-linecap:square;stroke-width:1.5;"/>
   </g>
   <g id="line2d_59">
    <path clip-path="url(#pc967aa9a47)" d="M 293.980747 242.397857 
" style="fill:none;stroke:#e6e6e6;stroke-linecap:square;stroke-width:1.5;"/>
    <g clip-path="url(#pc967aa9a47)">
     <use style="fill:#e6e6e6;stroke:#e6e6e6;stroke-width:3;" x="293.980747" xlink:href="#m52873c325f" y="242.397857"/>
    </g>
   </g>
   <g id="line2d_60">
    <path clip-path="url(#pc967aa9a47)" d="M 56.66 294.16 
L 56.66 294.16 
L 56.66 294.16 
L 56.66 294.16 
L 399.984 294.16 
" style="fill:none;stroke:#e6e6e6;stroke-linecap:square;stroke-width:1.5;"/>
   </g>
   <g id="line2d_61"/>
   <g id="line2d_62">
    <path clip-path="url(#pc967aa9a47)" d="M 0 0 
" style="fill:none;stroke:#e6e6e6;stroke-linecap:square;stroke-width:1.5;"/>
   </g>
   <g id="line2d_63">
    <path clip-path="url(#pc967aa9a47)" d="M 56.66 294.16 
L 56.66 294.16 
L 56.66 294.16 
L 56.66 294.16 
L 399.984 294.16 
" style="fill:none;stroke:#e6e6e6;stroke-linecap:square;stroke-width:1.5;"/>
   </g>
   <g id="line2d_64"/>
   <g id="line2d_65">
    <path clip-path="url(#pc967aa9a47)" d="M 0 0 
" style="fill:none;stroke:#e6e6e6;stroke-linecap:square;stroke-width:1.5;"/>
   </g>
   <g id="line2d_66">
    <path clip-path="url(#pc967aa9a47)" d="M 56.66 294.16 
L 56.66 294.16 
L 56.66 294.16 
L 56.66 294.16 
L 399.984 294.16 
" style="fill:none;stroke:#e6e6e6;stroke-linecap:square;stroke-width:1.5;"/>
   </g>
   <g id="line2d_67"/>
   <g id="line2d_68">
    <path clip-path="url(#pc967aa9a47)" d="M 0 0 
" style="fill:none;stroke:#e6e6e6;stroke-linecap:square;stroke-width:1.5;"/>
   </g>
   <g id="line2d_69">
    <g>
     <use style="fill:#e6e6e6;stroke:#e6e6e6;" x="302.513594" xlink:href="#m6359898e07" y="262.789004"/>
     <use style="fill:#e6e6e6;stroke:#e6e6e6;" x="302.513594" xlink:href="#m6359898e07" y="262.789004"/>
    </g>
   </g>
   <g id="line2d_70">
    <path d="M 202.609577 294.16 
L 202.609577 293.63715 
L 203.162192 293.63715 
L 203.162192 293.1143 
L 203.805404 293.1143 
L 203.805404 291.54575 
L 203.807121 291.54575 
L 203.807121 291.0229 
L 203.904177 291.0229 
L 203.904177 290.50005 
L 203.9106 290.50005 
L 203.9106 289.454351 
L 205.380251 289.454351 
L 205.380251 288.931501 
L 207.206634 288.931501 
L 207.206634 287.885801 
L 207.514881 287.885801 
L 207.514881 287.362951 
L 208.134156 287.362951 
L 208.134156 286.840101 
L 208.274027 286.840101 
L 208.274027 286.317251 
L 208.347652 286.317251 
L 208.347652 285.794401 
L 208.593907 285.794401 
L 208.593907 285.271551 
L 208.75814 285.271551 
L 208.75814 284.748701 
L 208.780932 284.748701 
L 208.780932 283.703001 
L 210.888107 283.703001 
L 210.888107 283.180151 
L 211.668012 283.180151 
L 211.668012 282.657301 
L 212.214715 282.657301 
L 212.214715 282.134452 
L 212.228596 282.134452 
L 212.228596 281.611602 
L 214.547588 281.611602 
L 214.547588 281.088752 
L 214.882283 281.088752 
L 214.882283 280.043052 
L 215.300421 280.043052 
L 215.300421 278.997352 
L 215.811441 278.997352 
L 215.811441 278.474502 
L 216.897618 278.474502 
L 216.897618 277.951652 
L 217.287364 277.951652 
L 217.287364 276.905952 
L 218.401789 276.905952 
L 218.401789 276.383102 
L 219.057488 276.383102 
L 219.057488 275.860252 
L 222.368405 275.860252 
L 222.368405 274.814553 
L 228.246109 274.814553 
L 228.246109 274.291703 
L 229.351837 274.291703 
L 229.351837 273.768853 
L 229.725294 273.768853 
L 229.725294 273.246003 
L 230.130551 273.246003 
L 230.130551 272.723153 
L 232.324891 272.723153 
L 232.324891 272.200303 
L 232.603147 272.200303 
L 232.603147 271.677453 
L 240.234093 271.677453 
L 240.234093 271.154603 
L 249.057897 271.154603 
L 249.057897 270.108903 
L 257.812272 270.108903 
L 257.812272 269.586053 
L 260.613198 269.586053 
L 260.613198 269.063203 
L 263.85831 269.063203 
L 263.85831 268.017503 
L 275.617469 268.017503 
L 275.617469 266.971804 
L 278.116872 266.971804 
L 278.116872 266.448954 
L 283.502182 266.448954 
L 283.502182 265.926104 
L 292.978938 265.926104 
L 292.978938 265.403254 
L 294.709687 265.403254 
L 294.709687 264.880404 
L 296.281906 264.880404 
L 296.281906 264.357554 
L 299.051046 264.357554 
L 299.051046 263.834704 
L 302.513594 263.834704 
L 302.513594 262.789004 
L 333.534194 262.789004 
" style="fill:none;stroke:#e6e6e6;stroke-linecap:square;stroke-width:1.5;"/>
   </g>
   <g id="line2d_71"/>
   <g id="line2d_72">
    <path d="M 0 0 
" style="fill:none;stroke:#e6e6e6;stroke-linecap:square;stroke-width:1.5;"/>
   </g>
   <g id="line2d_73">
    <path clip-path="url(#pc967aa9a47)" d="M 254.427281 270.108903 
" style="fill:none;stroke:#e6e6e6;stroke-linecap:square;stroke-width:1.5;"/>
    <g clip-path="url(#pc967aa9a47)">
     <use style="fill:#e6e6e6;stroke:#e6e6e6;stroke-width:3;" x="254.427281" xlink:href="#m52873c325f" y="270.108903"/>
    </g>
   </g>
   <g id="line2d_74">
    <g>
     <use style="fill:#e6e6e6;stroke:#e6e6e6;" x="203.859224" xlink:href="#m6359898e07" y="278.474502"/>
     <use style="fill:#e6e6e6;stroke:#e6e6e6;" x="203.859224" xlink:href="#m6359898e07" y="278.474502"/>
    </g>
   </g>
   <g id="line2d_75">
    <path d="M 133.52214 294.16 
L 133.52214 293.63715 
L 135.771206 293.63715 
L 135.771206 293.1143 
L 137.636797 293.1143 
L 137.636797 292.59145 
L 158.382275 292.59145 
L 158.382275 292.0686 
L 160.735671 292.0686 
L 160.735671 291.0229 
L 171.591603 291.0229 
L 171.591603 290.50005 
L 171.634766 290.50005 
L 171.634766 289.977201 
L 172.498809 289.977201 
L 172.498809 289.454351 
L 172.623867 289.454351 
L 172.623867 288.931501 
L 172.761984 288.931501 
L 172.761984 288.408651 
L 181.517818 288.408651 
L 181.517818 287.885801 
L 181.831972 287.885801 
L 181.831972 286.840101 
L 182.06148 286.840101 
L 182.06148 286.317251 
L 182.27479 286.317251 
L 182.27479 285.794401 
L 182.384161 285.794401 
L 182.384161 285.271551 
L 182.532959 285.271551 
L 182.532959 284.748701 
L 182.734672 284.748701 
L 182.734672 284.225851 
L 183.331367 284.225851 
L 183.331367 283.180151 
L 191.078299 283.180151 
L 191.078299 282.657301 
L 191.455588 282.657301 
L 191.455588 282.134452 
L 192.026004 282.134452 
L 192.026004 281.088752 
L 192.671709 281.088752 
L 192.671709 280.565902 
L 192.897772 280.565902 
L 192.897772 280.043052 
L 202.041219 280.043052 
L 202.041219 279.520202 
L 202.817987 279.520202 
L 202.817987 278.997352 
L 203.859224 278.997352 
L 203.859224 278.474502 
L 333.534194 278.474502 
" style="fill:none;stroke:#e6e6e6;stroke-linecap:square;stroke-width:1.5;"/>
   </g>
   <g id="line2d_76"/>
   <g id="line2d_77">
    <path d="M 0 0 
" style="fill:none;stroke:#e6e6e6;stroke-linecap:square;stroke-width:1.5;"/>
   </g>
   <g id="line2d_78">
    <path clip-path="url(#pc967aa9a47)" d="M 214.8843 278.474502 
" style="fill:none;stroke:#e6e6e6;stroke-linecap:square;stroke-width:1.5;"/>
    <g clip-path="url(#pc967aa9a47)">
     <use style="fill:#e6e6e6;stroke:#e6e6e6;stroke-width:3;" x="214.8843" xlink:href="#m52873c325f" y="278.474502"/>
    </g>
   </g>
   <g id="line2d_79">
    <g>
     <use style="fill:#e6e6e6;stroke:#e6e6e6;" x="240.125024" xlink:href="#m6359898e07" y="288.931501"/>
     <use style="fill:#e6e6e6;stroke:#e6e6e6;" x="240.125024" xlink:href="#m6359898e07" y="288.931501"/>
    </g>
   </g>
   <g id="line2d_80">
    <path d="M 106.781021 294.16 
L 106.781021 293.63715 
L 151.982855 293.63715 
L 151.982855 293.1143 
L 203.633837 293.1143 
L 203.633837 292.59145 
L 209.105358 292.59145 
L 209.105358 292.0686 
L 221.860273 292.0686 
L 221.860273 291.54575 
L 226.535516 291.54575 
L 226.535516 291.0229 
L 228.951488 291.0229 
L 228.951488 290.50005 
L 236.792438 290.50005 
L 236.792438 289.977201 
L 237.106896 289.977201 
L 237.106896 289.454351 
L 240.125024 289.454351 
L 240.125024 288.931501 
L 333.534194 288.931501 
" style="fill:none;stroke:#e6e6e6;stroke-linecap:square;stroke-width:1.5;"/>
   </g>
   <g id="line2d_81"/>
   <g id="line2d_82">
    <path d="M 0 0 
" style="fill:none;stroke:#e6e6e6;stroke-linecap:square;stroke-width:1.5;"/>
   </g>
   <g id="line2d_83">
    <path clip-path="url(#pc967aa9a47)" d="M 209.395378 292.0686 
" style="fill:none;stroke:#e6e6e6;stroke-linecap:square;stroke-width:1.5;"/>
    <g clip-path="url(#pc967aa9a47)">
     <use style="fill:#e6e6e6;stroke:#e6e6e6;stroke-width:3;" x="209.395378" xlink:href="#m52873c325f" y="292.0686"/>
    </g>
   </g>
   <g id="line2d_84">
    <g>
     <use style="fill:#e6e6e6;stroke:#e6e6e6;" x="245.764516" xlink:href="#m6359898e07" y="27.506535"/>
     <use style="fill:#e6e6e6;stroke:#e6e6e6;" x="245.764516" xlink:href="#m6359898e07" y="27.506535"/>
    </g>
   </g>
   <g id="line2d_85">
    <path d="M 157.774177 294.16 
L 157.774177 293.63715 
L 157.774177 293.63715 
L 157.774177 293.63715 
L 157.784908 293.63715 
L 157.790866 292.59145 
L 158.244736 292.59145 
L 158.300347 285.794401 
L 158.702748 285.794401 
L 158.738866 276.383102 
L 159.148864 276.383102 
L 159.23014 128.939421 
L 159.260793 128.939421 
L 159.358953 92.339926 
L 159.382862 92.339926 
L 159.463041 66.72028 
L 159.494361 66.72028 
L 159.525624 52.080481 
L 215.532722 52.080481 
L 215.545446 39.009233 
L 227.113314 39.009233 
L 227.119695 32.735034 
L 233.96827 32.735034 
L 233.972424 30.120784 
L 238.854668 30.120784 
L 238.854668 29.597934 
L 242.65444 29.597934 
L 242.656792 28.552235 
L 245.76416 28.552235 
L 245.764516 27.506535 
L 333.534194 27.506535 
L 333.534194 27.506535 
" style="fill:none;stroke:#e6e6e6;stroke-linecap:square;stroke-width:1.5;"/>
   </g>
   <g id="line2d_86"/>
   <g id="line2d_87">
    <path d="M 0 0 
" style="fill:none;stroke:#e6e6e6;stroke-linecap:square;stroke-width:1.5;"/>
   </g>
   <g id="line2d_88">
    <path clip-path="url(#pc967aa9a47)" d="M 214.873825 52.080481 
" style="fill:none;stroke:#e6e6e6;stroke-linecap:square;stroke-width:1.5;"/>
    <g clip-path="url(#pc967aa9a47)">
     <use style="fill:#e6e6e6;stroke:#e6e6e6;stroke-width:3;" x="214.873825" xlink:href="#m52873c325f" y="52.080481"/>
    </g>
   </g>
   <g id="line2d_89">
    <path clip-path="url(#pc967aa9a47)" d="M 56.66 294.16 
L 56.66 294.16 
L 56.66 294.16 
L 56.66 294.16 
L 399.984 294.16 
" style="fill:none;stroke:#e6e6e6;stroke-linecap:square;stroke-width:1.5;"/>
   </g>
   <g id="line2d_90"/>
   <g id="line2d_91">
    <path clip-path="url(#pc967aa9a47)" d="M 0 0 
" style="fill:none;stroke:#e6e6e6;stroke-linecap:square;stroke-width:1.5;"/>
   </g>
   <g id="line2d_92">
    <path clip-path="url(#pc967aa9a47)" d="M 56.66 294.16 
L 56.66 294.16 
L 56.66 294.16 
L 56.66 294.16 
L 399.984 294.16 
" style="fill:none;stroke:#e6e6e6;stroke-linecap:square;stroke-width:1.5;"/>
   </g>
   <g id="line2d_93"/>
   <g id="line2d_94">
    <path clip-path="url(#pc967aa9a47)" d="M 0 0 
" style="fill:none;stroke:#e6e6e6;stroke-linecap:square;stroke-width:1.5;"/>
   </g>
   <g id="line2d_95">
    <path clip-path="url(#pc967aa9a47)" d="M 56.66 294.16 
L 56.66 294.16 
L 56.66 294.16 
L 56.66 294.16 
L 399.984 294.16 
" style="fill:none;stroke:#e6e6e6;stroke-linecap:square;stroke-width:1.5;"/>
   </g>
   <g id="line2d_96"/>
   <g id="line2d_97">
    <path clip-path="url(#pc967aa9a47)" d="M 0 0 
" style="fill:none;stroke:#e6e6e6;stroke-linecap:square;stroke-width:1.5;"/>
   </g>
   <g id="line2d_98">
    <path clip-path="url(#pc967aa9a47)" d="M 56.66 294.16 
L 56.66 294.16 
L 56.66 294.16 
L 56.66 294.16 
L 399.984 294.16 
" style="fill:none;stroke:#e6e6e6;stroke-linecap:square;stroke-width:1.5;"/>
   </g>
   <g id="line2d_99"/>
   <g id="line2d_100">
    <path clip-path="url(#pc967aa9a47)" d="M 0 0 
" style="fill:none;stroke:#e6e6e6;stroke-linecap:square;stroke-width:1.5;"/>
   </g>
   <g id="line2d_101">
    <path clip-path="url(#pc967aa9a47)" d="M 56.66 294.16 
L 56.66 294.16 
L 56.66 294.16 
L 56.66 294.16 
L 399.984 294.16 
" style="fill:none;stroke:#e6e6e6;stroke-linecap:square;stroke-width:1.5;"/>
   </g>
   <g id="line2d_102"/>
   <g id="line2d_103">
    <path clip-path="url(#pc967aa9a47)" d="M 0 0 
" style="fill:none;stroke:#e6e6e6;stroke-linecap:square;stroke-width:1.5;"/>
   </g>
   <g id="line2d_104">
    <g>
     <use style="fill:#e6e6e6;stroke:#e6e6e6;" x="272.948661" xlink:href="#m6359898e07" y="278.474502"/>
     <use style="fill:#e6e6e6;stroke:#e6e6e6;" x="272.948661" xlink:href="#m6359898e07" y="278.474502"/>
    </g>
   </g>
   <g id="line2d_105">
    <path d="M 165.050035 294.16 
L 165.050035 293.63715 
L 165.171417 293.63715 
L 165.171417 293.1143 
L 165.338081 293.1143 
L 165.338081 292.0686 
L 165.485643 292.0686 
L 165.485643 291.54575 
L 165.516828 291.54575 
L 165.516828 291.0229 
L 165.84425 291.0229 
L 165.84425 290.50005 
L 166.518981 290.50005 
L 166.518981 289.977201 
L 166.847716 289.977201 
L 166.847716 289.454351 
L 166.858262 289.454351 
L 166.858262 288.931501 
L 166.909492 288.931501 
L 166.909492 288.408651 
L 167.285153 288.408651 
L 167.285153 287.885801 
L 167.729774 287.885801 
L 167.729774 287.362951 
L 171.817407 287.362951 
L 171.817407 286.840101 
L 172.010627 286.840101 
L 172.010627 285.794401 
L 199.55725 285.794401 
L 199.55725 285.271551 
L 233.135772 285.271551 
L 233.135772 284.748701 
L 241.557225 284.748701 
L 241.557225 283.703001 
L 255.381249 283.703001 
L 255.381249 282.657301 
L 255.653696 282.657301 
L 255.653696 282.134452 
L 257.522635 282.134452 
L 257.522635 281.088752 
L 257.739939 281.088752 
L 257.739939 280.565902 
L 258.040082 280.565902 
L 258.040082 280.043052 
L 258.780497 280.043052 
L 258.780497 279.520202 
L 272.558003 279.520202 
L 272.558003 278.997352 
L 272.948661 278.997352 
L 272.948661 278.474502 
L 333.534194 278.474502 
" style="fill:none;stroke:#e6e6e6;stroke-linecap:square;stroke-width:1.5;"/>
   </g>
   <g id="line2d_106"/>
   <g id="line2d_107">
    <path d="M 0 0 
" style="fill:none;stroke:#e6e6e6;stroke-linecap:square;stroke-width:1.5;"/>
   </g>
   <g id="line2d_108">
    <path clip-path="url(#pc967aa9a47)" d="M 293.982364 278.474502 
" style="fill:none;stroke:#e6e6e6;stroke-linecap:square;stroke-width:1.5;"/>
    <g clip-path="url(#pc967aa9a47)">
     <use style="fill:#e6e6e6;stroke:#e6e6e6;stroke-width:3;" x="293.982364" xlink:href="#m52873c325f" y="278.474502"/>
    </g>
   </g>
   <g id="line2d_109">
    <path d="M 333.534194 294.16 
L 333.534194 27.506535 
" style="fill:none;stroke:#000000;stroke-linecap:square;stroke-width:1.5;"/>
   </g>
   <g id="patch_3">
    <path d="M 56.66 294.16 
L 56.66 24.84 
" style="fill:none;stroke:#000000;stroke-linecap:square;stroke-linejoin:miter;stroke-width:0.8;"/>
   </g>
   <g id="patch_4">
    <path d="M 399.984 294.16 
L 399.984 24.84 
" style="fill:none;stroke:#000000;stroke-linecap:square;stroke-linejoin:miter;stroke-width:0.8;"/>
   </g>
   <g id="patch_5">
    <path d="M 56.66 294.16 
L 399.984 294.16 
" style="fill:none;stroke:#000000;stroke-linecap:square;stroke-linejoin:miter;stroke-width:0.8;"/>
   </g>
   <g id="patch_6">
    <path d="M 56.66 24.84 
L 399.984 24.84 
" style="fill:none;stroke:#000000;stroke-linecap:square;stroke-linejoin:miter;stroke-width:0.8;"/>
   </g>
   <g id="text_14">
    <!-- best 2009 -->
    <defs>
     <path d="M 48.6875 27.296875 
Q 48.6875 37.203125 44.609375 42.84375 
Q 40.53125 48.484375 33.40625 48.484375 
Q 26.265625 48.484375 22.1875 42.84375 
Q 18.109375 37.203125 18.109375 27.296875 
Q 18.109375 17.390625 22.1875 11.75 
Q 26.265625 6.109375 33.40625 6.109375 
Q 40.53125 6.109375 44.609375 11.75 
Q 48.6875 17.390625 48.6875 27.296875 
z
M 18.109375 46.390625 
Q 20.953125 51.265625 25.265625 53.625 
Q 29.59375 56 35.59375 56 
Q 45.5625 56 51.78125 48.09375 
Q 58.015625 40.1875 58.015625 27.296875 
Q 58.015625 14.40625 51.78125 6.484375 
Q 45.5625 -1.421875 35.59375 -1.421875 
Q 29.59375 -1.421875 25.265625 0.953125 
Q 20.953125 3.328125 18.109375 8.203125 
L 18.109375 0 
L 9.078125 0 
L 9.078125 75.984375 
L 18.109375 75.984375 
z
" id="DejaVuSans-62"/>
     <path d="M 10.984375 1.515625 
L 10.984375 10.5 
Q 14.703125 8.734375 18.5 7.8125 
Q 22.3125 6.890625 25.984375 6.890625 
Q 35.75 6.890625 40.890625 13.453125 
Q 46.046875 20.015625 46.78125 33.40625 
Q 43.953125 29.203125 39.59375 26.953125 
Q 35.25 24.703125 29.984375 24.703125 
Q 19.046875 24.703125 12.671875 31.3125 
Q 6.296875 37.9375 6.296875 49.421875 
Q 6.296875 60.640625 12.9375 67.421875 
Q 19.578125 74.21875 30.609375 74.21875 
Q 43.265625 74.21875 49.921875 64.515625 
Q 56.59375 54.828125 56.59375 36.375 
Q 56.59375 19.140625 48.40625 8.859375 
Q 40.234375 -1.421875 26.421875 -1.421875 
Q 22.703125 -1.421875 18.890625 -0.6875 
Q 15.09375 0.046875 10.984375 1.515625 
z
M 30.609375 32.421875 
Q 37.25 32.421875 41.125 36.953125 
Q 45.015625 41.5 45.015625 49.421875 
Q 45.015625 57.28125 41.125 61.84375 
Q 37.25 66.40625 30.609375 66.40625 
Q 23.96875 66.40625 20.09375 61.84375 
Q 16.21875 57.28125 16.21875 49.421875 
Q 16.21875 41.5 20.09375 36.953125 
Q 23.96875 32.421875 30.609375 32.421875 
z
" id="DejaVuSans-39"/>
    </defs>
    <g transform="translate(369.527839 293.517868)scale(0.17 -0.17)">
     <use xlink:href="#DejaVuSans-62"/>
     <use x="63.476562" xlink:href="#DejaVuSans-65"/>
     <use x="125" xlink:href="#DejaVuSans-73"/>
     <use x="177.099609" xlink:href="#DejaVuSans-74"/>
     <use x="216.308594" xlink:href="#DejaVuSans-20"/>
     <use x="248.095703" xlink:href="#DejaVuSans-32"/>
     <use x="311.71875" xlink:href="#DejaVuSans-30"/>
     <use x="375.341797" xlink:href="#DejaVuSans-30"/>
     <use x="438.964844" xlink:href="#DejaVuSans-39"/>
    </g>
   </g>
   <g id="text_15">
    <!-- bbob f4, 40-D -->
    <defs>
     <path d="M 19.671875 64.796875 
L 19.671875 8.109375 
L 31.59375 8.109375 
Q 46.6875 8.109375 53.6875 14.9375 
Q 60.6875 21.78125 60.6875 36.53125 
Q 60.6875 51.171875 53.6875 57.984375 
Q 46.6875 64.796875 31.59375 64.796875 
z
M 9.8125 72.90625 
L 30.078125 72.90625 
Q 51.265625 72.90625 61.171875 64.09375 
Q 71.09375 55.28125 71.09375 36.53125 
Q 71.09375 17.671875 61.125 8.828125 
Q 51.171875 0 30.078125 0 
L 9.8125 0 
z
" id="DejaVuSans-44"/>
    </defs>
    <g transform="translate(60.09324 35.283606)scale(0.102 -0.102)">
     <use xlink:href="#DejaVuSans-62"/>
     <use x="63.476562" xlink:href="#DejaVuSans-62"/>
     <use x="126.953125" xlink:href="#DejaVuSans-6f"/>
     <use x="188.134766" xlink:href="#DejaVuSans-62"/>
     <use x="251.611328" xlink:href="#DejaVuSans-20"/>
     <use x="283.398438" xlink:href="#DejaVuSans-66"/>
     <use x="318.603516" xlink:href="#DejaVuSans-34"/>
     <use x="382.226562" xlink:href="#DejaVuSans-2c"/>
     <use x="414.013672" xlink:href="#DejaVuSans-20"/>
     <use x="445.800781" xlink:href="#DejaVuSans-34"/>
     <use x="509.423828" xlink:href="#DejaVuSans-30"/>
     <use x="573.046875" xlink:href="#DejaVuSans-2d"/>
     <use x="609.130859" xlink:href="#DejaVuSans-44"/>
    </g>
    <!-- 51 targets: 100..1e-08 -->
    <defs>
     <path d="M 10.796875 72.90625 
L 49.515625 72.90625 
L 49.515625 64.59375 
L 19.828125 64.59375 
L 19.828125 46.734375 
Q 21.96875 47.46875 24.109375 47.828125 
Q 26.265625 48.1875 28.421875 48.1875 
Q 40.625 48.1875 47.75 41.5 
Q 54.890625 34.8125 54.890625 23.390625 
Q 54.890625 11.625 47.5625 5.09375 
Q 40.234375 -1.421875 26.90625 -1.421875 
Q 22.3125 -1.421875 17.546875 -0.640625 
Q 12.796875 0.140625 7.71875 1.703125 
L 7.71875 11.625 
Q 12.109375 9.234375 16.796875 8.0625 
Q 21.484375 6.890625 26.703125 6.890625 
Q 35.15625 6.890625 40.078125 11.328125 
Q 45.015625 15.765625 45.015625 23.390625 
Q 45.015625 31 40.078125 35.4375 
Q 35.15625 39.890625 26.703125 39.890625 
Q 22.75 39.890625 18.8125 39.015625 
Q 14.890625 38.140625 10.796875 36.28125 
z
" id="DejaVuSans-35"/>
     <path d="M 11.71875 12.40625 
L 22.015625 12.40625 
L 22.015625 0 
L 11.71875 0 
z
M 11.71875 51.703125 
L 22.015625 51.703125 
L 22.015625 39.3125 
L 11.71875 39.3125 
z
" id="DejaVuSans-3a"/>
    </defs>
    <g transform="translate(60.09324 46.705375)scale(0.102 -0.102)">
     <use xlink:href="#DejaVuSans-35"/>
     <use x="63.623047" xlink:href="#DejaVuSans-31"/>
     <use x="127.246094" xlink:href="#DejaVuSans-20"/>
     <use x="159.033203" xlink:href="#DejaVuSans-74"/>
     <use x="198.242188" xlink:href="#DejaVuSans-61"/>
     <use x="259.521484" xlink:href="#DejaVuSans-72"/>
     <use x="300.619141" xlink:href="#DejaVuSans-67"/>
     <use x="364.095703" xlink:href="#DejaVuSans-65"/>
     <use x="425.619141" xlink:href="#DejaVuSans-74"/>
     <use x="464.828125" xlink:href="#DejaVuSans-73"/>
     <use x="516.927734" xlink:href="#DejaVuSans-3a"/>
     <use x="550.619141" xlink:href="#DejaVuSans-20"/>
     <use x="582.40625" xlink:href="#DejaVuSans-31"/>
     <use x="646.029297" xlink:href="#DejaVuSans-30"/>
     <use x="709.652344" xlink:href="#DejaVuSans-30"/>
     <use x="773.275391" xlink:href="#DejaVuSans-2e"/>
     <use x="805.0625" xlink:href="#DejaVuSans-2e"/>
     <use x="836.849609" xlink:href="#DejaVuSans-31"/>
     <use x="900.472656" xlink:href="#DejaVuSans-65"/>
     <use x="961.996094" xlink:href="#DejaVuSans-2d"/>
     <use x="998.080078" xlink:href="#DejaVuSans-30"/>
     <use x="1061.703125" xlink:href="#DejaVuSans-38"/>
    </g>
    <!-- 5, 15 instances -->
    <g transform="translate(60.09324 58.127144)scale(0.102 -0.102)">
     <use xlink:href="#DejaVuSans-35"/>
     <use x="63.623047" xlink:href="#DejaVuSans-2c"/>
     <use x="95.410156" xlink:href="#DejaVuSans-20"/>
     <use x="127.197266" xlink:href="#DejaVuSans-31"/>
     <use x="190.820312" xlink:href="#DejaVuSans-35"/>
     <use x="254.443359" xlink:href="#DejaVuSans-20"/>
     <use x="286.230469" xlink:href="#DejaVuSans-69"/>
     <use x="314.013672" xlink:href="#DejaVuSans-6e"/>
     <use x="377.392578" xlink:href="#DejaVuSans-73"/>
     <use x="429.492188" xlink:href="#DejaVuSans-74"/>
     <use x="468.701172" xlink:href="#DejaVuSans-61"/>
     <use x="529.980469" xlink:href="#DejaVuSans-6e"/>
     <use x="593.359375" xlink:href="#DejaVuSans-63"/>
     <use x="648.339844" xlink:href="#DejaVuSans-65"/>
     <use x="709.863281" xlink:href="#DejaVuSans-73"/>
    </g>
   </g>
   <g id="text_16">
    <!-- v2.0.760 -->
    <defs>
     <path d="M 8.203125 72.90625 
L 55.078125 72.90625 
L 55.078125 68.703125 
L 28.609375 0 
L 18.3125 0 
L 43.21875 64.59375 
L 8.203125 64.59375 
z
" id="DejaVuSans-37"/>
    </defs>
    <g style="fill:#808080;" transform="translate(206.27825 289.387113)scale(0.1 -0.1)">
     <use xlink:href="#DejaVuSans-76"/>
     <use x="59.179688" xlink:href="#DejaVuSans-32"/>
     <use x="122.802734" xlink:href="#DejaVuSans-2e"/>
     <use x="154.589844" xlink:href="#DejaVuSans-30"/>
     <use x="218.212891" xlink:href="#DejaVuSans-2e"/>
     <use x="250" xlink:href="#DejaVuSans-37"/>
     <use x="313.623047" xlink:href="#DejaVuSans-36"/>
     <use x="377.246094" xlink:href="#DejaVuSans-30"/>
    </g>
   </g>
   <g id="text_17">
    <!-- 4 Skew Rastrigin-Bueche separ -->
    <defs>
     <path d="M 53.515625 70.515625 
L 53.515625 60.890625 
Q 47.90625 63.578125 42.921875 64.890625 
Q 37.9375 66.21875 33.296875 66.21875 
Q 25.25 66.21875 20.875 63.09375 
Q 16.5 59.96875 16.5 54.203125 
Q 16.5 49.359375 19.40625 46.890625 
Q 22.3125 44.4375 30.421875 42.921875 
L 36.375 41.703125 
Q 47.40625 39.59375 52.65625 34.296875 
Q 57.90625 29 57.90625 20.125 
Q 57.90625 9.515625 50.796875 4.046875 
Q 43.703125 -1.421875 29.984375 -1.421875 
Q 24.8125 -1.421875 18.96875 -0.25 
Q 13.140625 0.921875 6.890625 3.21875 
L 6.890625 13.375 
Q 12.890625 10.015625 18.65625 8.296875 
Q 24.421875 6.59375 29.984375 6.59375 
Q 38.421875 6.59375 43.015625 9.90625 
Q 47.609375 13.234375 47.609375 19.390625 
Q 47.609375 24.75 44.3125 27.78125 
Q 41.015625 30.8125 33.5 32.328125 
L 27.484375 33.5 
Q 16.453125 35.6875 11.515625 40.375 
Q 6.59375 45.0625 6.59375 53.421875 
Q 6.59375 63.09375 13.40625 68.65625 
Q 20.21875 74.21875 32.171875 74.21875 
Q 37.3125 74.21875 42.625 73.28125 
Q 47.953125 72.359375 53.515625 70.515625 
z
" id="DejaVuSans-53"/>
     <path d="M 9.078125 75.984375 
L 18.109375 75.984375 
L 18.109375 31.109375 
L 44.921875 54.6875 
L 56.390625 54.6875 
L 27.390625 29.109375 
L 57.625 0 
L 45.90625 0 
L 18.109375 26.703125 
L 18.109375 0 
L 9.078125 0 
z
" id="DejaVuSans-6b"/>
     <path d="M 4.203125 54.6875 
L 13.1875 54.6875 
L 24.421875 12.015625 
L 35.59375 54.6875 
L 46.1875 54.6875 
L 57.421875 12.015625 
L 68.609375 54.6875 
L 77.59375 54.6875 
L 63.28125 0 
L 52.6875 0 
L 40.921875 44.828125 
L 29.109375 0 
L 18.5 0 
z
" id="DejaVuSans-77"/>
     <path d="M 44.390625 34.1875 
Q 47.5625 33.109375 50.5625 29.59375 
Q 53.5625 26.078125 56.59375 19.921875 
L 66.609375 0 
L 56 0 
L 46.6875 18.703125 
Q 43.0625 26.03125 39.671875 28.421875 
Q 36.28125 30.8125 30.421875 30.8125 
L 19.671875 30.8125 
L 19.671875 0 
L 9.8125 0 
L 9.8125 72.90625 
L 32.078125 72.90625 
Q 44.578125 72.90625 50.734375 67.671875 
Q 56.890625 62.453125 56.890625 51.90625 
Q 56.890625 45.015625 53.6875 40.46875 
Q 50.484375 35.9375 44.390625 34.1875 
z
M 19.671875 64.796875 
L 19.671875 38.921875 
L 32.078125 38.921875 
Q 39.203125 38.921875 42.84375 42.21875 
Q 46.484375 45.515625 46.484375 51.90625 
Q 46.484375 58.296875 42.84375 61.546875 
Q 39.203125 64.796875 32.078125 64.796875 
z
" id="DejaVuSans-52"/>
     <path d="M 19.671875 34.8125 
L 19.671875 8.109375 
L 35.5 8.109375 
Q 43.453125 8.109375 47.28125 11.40625 
Q 51.125 14.703125 51.125 21.484375 
Q 51.125 28.328125 47.28125 31.5625 
Q 43.453125 34.8125 35.5 34.8125 
z
M 19.671875 64.796875 
L 19.671875 42.828125 
L 34.28125 42.828125 
Q 41.5 42.828125 45.03125 45.53125 
Q 48.578125 48.25 48.578125 53.8125 
Q 48.578125 59.328125 45.03125 62.0625 
Q 41.5 64.796875 34.28125 64.796875 
z
M 9.8125 72.90625 
L 35.015625 72.90625 
Q 46.296875 72.90625 52.390625 68.21875 
Q 58.5 63.53125 58.5 54.890625 
Q 58.5 48.1875 55.375 44.234375 
Q 52.25 40.28125 46.1875 39.3125 
Q 53.46875 37.75 57.5 32.78125 
Q 61.53125 27.828125 61.53125 20.40625 
Q 61.53125 10.640625 54.890625 5.3125 
Q 48.25 0 35.984375 0 
L 9.8125 0 
z
" id="DejaVuSans-42"/>
     <path d="M 54.890625 33.015625 
L 54.890625 0 
L 45.90625 0 
L 45.90625 32.71875 
Q 45.90625 40.484375 42.875 44.328125 
Q 39.84375 48.1875 33.796875 48.1875 
Q 26.515625 48.1875 22.3125 43.546875 
Q 18.109375 38.921875 18.109375 30.90625 
L 18.109375 0 
L 9.078125 0 
L 9.078125 75.984375 
L 18.109375 75.984375 
L 18.109375 46.1875 
Q 21.34375 51.125 25.703125 53.5625 
Q 30.078125 56 35.796875 56 
Q 45.21875 56 50.046875 50.171875 
Q 54.890625 44.34375 54.890625 33.015625 
z
" id="DejaVuSans-68"/>
    </defs>
    <g transform="translate(72.5095 18.84)scale(0.2 -0.2)">
     <use xlink:href="#DejaVuSans-34"/>
     <use x="63.623047" xlink:href="#DejaVuSans-20"/>
     <use x="95.410156" xlink:href="#DejaVuSans-53"/>
     <use x="158.886719" xlink:href="#DejaVuSans-6b"/>
     <use x="216.75" xlink:href="#DejaVuSans-65"/>
     <use x="278.273438" xlink:href="#DejaVuSans-77"/>
     <use x="360.060547" xlink:href="#DejaVuSans-20"/>
     <use x="391.847656" xlink:href="#DejaVuSans-52"/>
     <use x="461.298828" xlink:href="#DejaVuSans-61"/>
     <use x="522.578125" xlink:href="#DejaVuSans-73"/>
     <use x="574.677734" xlink:href="#DejaVuSans-74"/>
     <use x="613.886719" xlink:href="#DejaVuSans-72"/>
     <use x="655" xlink:href="#DejaVuSans-69"/>
     <use x="682.783203" xlink:href="#DejaVuSans-67"/>
     <use x="746.259766" xlink:href="#DejaVuSans-69"/>
     <use x="774.042969" xlink:href="#DejaVuSans-6e"/>
     <use x="837.421875" xlink:href="#DejaVuSans-2d"/>
     <use x="873.458984" xlink:href="#DejaVuSans-42"/>
     <use x="942.0625" xlink:href="#DejaVuSans-75"/>
     <use x="1005.441406" xlink:href="#DejaVuSans-65"/>
     <use x="1066.964844" xlink:href="#DejaVuSans-63"/>
     <use x="1121.945312" xlink:href="#DejaVuSans-68"/>
     <use x="1185.324219" xlink:href="#DejaVuSans-65"/>
     <use x="1246.847656" xlink:href="#DejaVuSans-20"/>
     <use x="1278.634766" xlink:href="#DejaVuSans-73"/>
     <use x="1330.734375" xlink:href="#DejaVuSans-65"/>
     <use x="1392.257812" xlink:href="#DejaVuSans-70"/>
     <use x="1455.734375" xlink:href="#DejaVuSans-61"/>
     <use x="1517.013672" xlink:href="#DejaVuSans-72"/>
    </g>
   </g>
  </g>
 </g>
 <defs>
  <clipPath id="pc967aa9a47">
   <rect height="269.32" width="343.324" x="56.66" y="24.84"/>
  </clipPath>
 </defs>
</svg>
