<?xml version="1.0" encoding="utf-8" standalone="no"?>
<!DOCTYPE svg PUBLIC "-//W3C//DTD SVG 1.1//EN"
  "http://www.w3.org/Graphics/SVG/1.1/DTD/svg11.dtd">
<!-- Created with matplotlib (http://matplotlib.org/) -->
<svg height="345.6pt" version="1.1" viewBox="0 0 460.8 345.6" width="460.8pt" xmlns="http://www.w3.org/2000/svg" xmlns:xlink="http://www.w3.org/1999/xlink">
 <defs>
  <style type="text/css">
*{stroke-linecap:butt;stroke-linejoin:round;}
  </style>
 </defs>
 <g id="figure_1">
  <g id="patch_1">
   <path d="M 0 345.6 
L 460.8 345.6 
L 460.8 0 
L 0 0 
z
" style="fill:#ffffff;"/>
  </g>
  <g id="axes_1">
   <g id="patch_2">
    <path d="M 56.12 294.88 
L 333.168 294.88 
L 333.168 6.845228 
L 56.12 6.845228 
z
" style="fill:#ffffff;"/>
   </g>
   <g id="line2d_1">
    <path d="M 33.929749 294.88 
L 33.929749 292.421526 
L 49.989246 292.421526 
L 49.989246 291.19229 
L 52.284468 291.19229 
L 52.284468 289.963053 
L 117.535798 289.963053 
L 117.535798 287.504579 
L 121.242993 287.504579 
L 121.242993 285.046105 
L 134.408475 285.046105 
L 134.408475 282.587632 
L 137.186126 282.587632 
L 137.186126 280.129158 
L 139.871983 280.129158 
L 139.871983 277.670684 
L 140.800286 277.670684 
L 140.800286 275.212211 
L 143.449035 275.212211 
L 143.449035 273.982974 
L 143.53164 273.982974 
L 143.53164 272.753737 
L 147.761364 272.753737 
L 147.761364 270.295264 
L 150.84492 270.295264 
L 150.84492 266.607553 
L 152.042505 266.607553 
L 152.042505 264.149079 
L 152.102348 264.149079 
L 152.102348 262.919843 
L 159.737856 262.919843 
L 159.737856 259.232132 
L 160.769674 259.232132 
L 160.769674 255.544422 
L 165.374282 255.544422 
L 165.374282 253.085948 
L 167.659897 253.085948 
L 167.659897 250.627474 
L 167.977608 250.627474 
L 167.977608 249.398238 
L 185.476144 249.398238 
L 185.476144 248.169001 
L 188.447355 248.169001 
L 188.447355 246.939764 
L 214.271413 246.939764 
L 214.271413 244.48129 
L 217.565461 244.48129 
L 217.565461 242.022817 
L 231.155438 242.022817 
L 231.155438 238.335106 
L 234.890719 238.335106 
L 234.890719 235.876633 
L 238.538345 235.876633 
L 238.538345 232.188922 
L 239.917857 232.188922 
L 239.917857 230.959685 
L 247.779011 230.959685 
L 247.779011 228.501212 
L 254.619893 228.501212 
L 254.619893 226.042738 
L 255.796378 226.042738 
L 255.796378 223.584264 
L 256.845485 223.584264 
L 256.845485 221.125791 
L 257.0279 221.125791 
L 257.0279 217.43808 
L 258.30353 217.43808 
L 258.30353 214.979607 
L 260.396559 214.979607 
L 260.396559 213.75037 
L 267.189982 213.75037 
L 267.189982 210.062659 
L 270.301876 210.062659 
L 270.301876 207.604186 
L 271.237121 207.604186 
L 271.237121 203.916475 
L 274.01362 203.916475 
L 274.01362 202.687238 
L 277.991837 202.687238 
L 277.991837 201.458001 
L 278.609748 201.458001 
L 278.609748 198.999528 
L 281.422834 198.999528 
L 281.422834 195.311817 
L 292.314382 195.311817 
L 292.314382 192.853344 
L 292.756877 192.853344 
L 292.756877 191.624107 
L 293.34196 191.624107 
L 293.34196 187.936396 
L 293.569127 187.936396 
L 293.569127 185.477923 
L 333.168 185.477923 
" style="fill:none;stroke:#f5deb3;stroke-linecap:square;stroke-width:4;"/>
   </g>
   <g id="line2d_2">
    <defs>
     <path d="M -0 7.778175 
L 7.778175 0 
L 0 -7.778175 
L -7.778175 -0 
z
" id="m1dad365a1d" style="stroke:#f5deb3;stroke-linejoin:miter;stroke-width:1.5;"/>
    </defs>
    <g>
     <use style="fill:#f5deb3;stroke:#f5deb3;stroke-linejoin:miter;stroke-width:1.5;" x="139.871983" xlink:href="#m1dad365a1d" y="280.129158"/>
     <use style="fill:#f5deb3;stroke:#f5deb3;stroke-linejoin:miter;stroke-width:1.5;" x="188.447355" xlink:href="#m1dad365a1d" y="246.939764"/>
     <use style="fill:#f5deb3;stroke:#f5deb3;stroke-linejoin:miter;stroke-width:1.5;" x="258.30353" xlink:href="#m1dad365a1d" y="217.43808"/>
     <use style="fill:#f5deb3;stroke:#f5deb3;stroke-linejoin:miter;stroke-width:1.5;" x="293.569127" xlink:href="#m1dad365a1d" y="187.936396"/>
     <use style="fill:#f5deb3;stroke:#f5deb3;stroke-linejoin:miter;stroke-width:1.5;" x="293.569127" xlink:href="#m1dad365a1d" y="185.477923"/>
     <use style="fill:#f5deb3;stroke:#f5deb3;stroke-linejoin:miter;stroke-width:1.5;" x="333.168" xlink:href="#m1dad365a1d" y="185.477923"/>
    </g>
   </g>
   <g id="line2d_3">
    <path style="fill:none;stroke:#f5deb3;stroke-linecap:square;stroke-width:4;"/>
    <g/>
   </g>
   <g id="line2d_4">
    <path d="M 333.168 185.477923 
L 363.64328 15.400716 
" style="fill:none;stroke:#f5deb3;stroke-linecap:square;stroke-width:4;"/>
    <g>
     <use style="fill:#f5deb3;stroke:#f5deb3;stroke-linejoin:miter;stroke-width:1.5;" x="333.168" xlink:href="#m1dad365a1d" y="185.477923"/>
     <use style="fill:#f5deb3;stroke:#f5deb3;stroke-linejoin:miter;stroke-width:1.5;" x="363.64328" xlink:href="#m1dad365a1d" y="15.400716"/>
    </g>
   </g>
   <g id="matplotlib.axis_1">
    <g id="xtick_1">
     <g id="line2d_5">
      <path clip-path="url(#p940215e7ed)" d="M 56.12 294.88 
L 56.12 6.845228 
" style="fill:none;stroke:#b0b0b0;stroke-linecap:square;stroke-width:0.8;"/>
     </g>
     <g id="line2d_6">
      <defs>
       <path d="M 0 0 
L 0 3.5 
" id="mb81266f0b6" style="stroke:#000000;stroke-width:0.8;"/>
      </defs>
      <g>
       <use style="stroke:#000000;stroke-width:0.8;" x="56.12" xlink:href="#mb81266f0b6" y="294.88"/>
      </g>
     </g>
     <g id="text_1">
      <!-- 0 -->
      <defs>
       <path d="M 31.78125 66.40625 
Q 24.171875 66.40625 20.328125 58.90625 
Q 16.5 51.421875 16.5 36.375 
Q 16.5 21.390625 20.328125 13.890625 
Q 24.171875 6.390625 31.78125 6.390625 
Q 39.453125 6.390625 43.28125 13.890625 
Q 47.125 21.390625 47.125 36.375 
Q 47.125 51.421875 43.28125 58.90625 
Q 39.453125 66.40625 31.78125 66.40625 
z
M 31.78125 74.21875 
Q 44.046875 74.21875 50.515625 64.515625 
Q 56.984375 54.828125 56.984375 36.375 
Q 56.984375 17.96875 50.515625 8.265625 
Q 44.046875 -1.421875 31.78125 -1.421875 
Q 19.53125 -1.421875 13.0625 8.265625 
Q 6.59375 17.96875 6.59375 36.375 
Q 6.59375 54.828125 13.0625 64.515625 
Q 19.53125 74.21875 31.78125 74.21875 
z
" id="DejaVuSans-30"/>
      </defs>
      <g transform="translate(49.7575 317.076875)scale(0.2 -0.2)">
       <use xlink:href="#DejaVuSans-30"/>
      </g>
     </g>
    </g>
    <g id="xtick_2">
     <g id="line2d_7">
      <path clip-path="url(#p940215e7ed)" d="M 135.276571 294.88 
L 135.276571 6.845228 
" style="fill:none;stroke:#b0b0b0;stroke-linecap:square;stroke-width:0.8;"/>
     </g>
     <g id="line2d_8">
      <g>
       <use style="stroke:#000000;stroke-width:0.8;" x="135.276571" xlink:href="#mb81266f0b6" y="294.88"/>
      </g>
     </g>
     <g id="text_2">
      <!-- 2 -->
      <defs>
       <path d="M 19.1875 8.296875 
L 53.609375 8.296875 
L 53.609375 0 
L 7.328125 0 
L 7.328125 8.296875 
Q 12.9375 14.109375 22.625 23.890625 
Q 32.328125 33.6875 34.8125 36.53125 
Q 39.546875 41.84375 41.421875 45.53125 
Q 43.3125 49.21875 43.3125 52.78125 
Q 43.3125 58.59375 39.234375 62.25 
Q 35.15625 65.921875 28.609375 65.921875 
Q 23.96875 65.921875 18.8125 64.3125 
Q 13.671875 62.703125 7.8125 59.421875 
L 7.8125 69.390625 
Q 13.765625 71.78125 18.9375 73 
Q 24.125 74.21875 28.421875 74.21875 
Q 39.75 74.21875 46.484375 68.546875 
Q 53.21875 62.890625 53.21875 53.421875 
Q 53.21875 48.921875 51.53125 44.890625 
Q 49.859375 40.875 45.40625 35.40625 
Q 44.1875 33.984375 37.640625 27.21875 
Q 31.109375 20.453125 19.1875 8.296875 
z
" id="DejaVuSans-32"/>
      </defs>
      <g transform="translate(128.914071 317.076875)scale(0.2 -0.2)">
       <use xlink:href="#DejaVuSans-32"/>
      </g>
     </g>
    </g>
    <g id="xtick_3">
     <g id="line2d_9">
      <path clip-path="url(#p940215e7ed)" d="M 214.433143 294.88 
L 214.433143 6.845228 
" style="fill:none;stroke:#b0b0b0;stroke-linecap:square;stroke-width:0.8;"/>
     </g>
     <g id="line2d_10">
      <g>
       <use style="stroke:#000000;stroke-width:0.8;" x="214.433143" xlink:href="#mb81266f0b6" y="294.88"/>
      </g>
     </g>
     <g id="text_3">
      <!-- 4 -->
      <defs>
       <path d="M 37.796875 64.3125 
L 12.890625 25.390625 
L 37.796875 25.390625 
z
M 35.203125 72.90625 
L 47.609375 72.90625 
L 47.609375 25.390625 
L 58.015625 25.390625 
L 58.015625 17.1875 
L 47.609375 17.1875 
L 47.609375 0 
L 37.796875 0 
L 37.796875 17.1875 
L 4.890625 17.1875 
L 4.890625 26.703125 
z
" id="DejaVuSans-34"/>
      </defs>
      <g transform="translate(208.070643 317.076875)scale(0.2 -0.2)">
       <use xlink:href="#DejaVuSans-34"/>
      </g>
     </g>
    </g>
    <g id="xtick_4">
     <g id="line2d_11">
      <path clip-path="url(#p940215e7ed)" d="M 293.589714 294.88 
L 293.589714 6.845228 
" style="fill:none;stroke:#b0b0b0;stroke-linecap:square;stroke-width:0.8;"/>
     </g>
     <g id="line2d_12">
      <g>
       <use style="stroke:#000000;stroke-width:0.8;" x="293.589714" xlink:href="#mb81266f0b6" y="294.88"/>
      </g>
     </g>
     <g id="text_4">
      <!-- 6 -->
      <defs>
       <path d="M 33.015625 40.375 
Q 26.375 40.375 22.484375 35.828125 
Q 18.609375 31.296875 18.609375 23.390625 
Q 18.609375 15.53125 22.484375 10.953125 
Q 26.375 6.390625 33.015625 6.390625 
Q 39.65625 6.390625 43.53125 10.953125 
Q 47.40625 15.53125 47.40625 23.390625 
Q 47.40625 31.296875 43.53125 35.828125 
Q 39.65625 40.375 33.015625 40.375 
z
M 52.59375 71.296875 
L 52.59375 62.3125 
Q 48.875 64.0625 45.09375 64.984375 
Q 41.3125 65.921875 37.59375 65.921875 
Q 27.828125 65.921875 22.671875 59.328125 
Q 17.53125 52.734375 16.796875 39.40625 
Q 19.671875 43.65625 24.015625 45.921875 
Q 28.375 48.1875 33.59375 48.1875 
Q 44.578125 48.1875 50.953125 41.515625 
Q 57.328125 34.859375 57.328125 23.390625 
Q 57.328125 12.15625 50.6875 5.359375 
Q 44.046875 -1.421875 33.015625 -1.421875 
Q 20.359375 -1.421875 13.671875 8.265625 
Q 6.984375 17.96875 6.984375 36.375 
Q 6.984375 53.65625 15.1875 63.9375 
Q 23.390625 74.21875 37.203125 74.21875 
Q 40.921875 74.21875 44.703125 73.484375 
Q 48.484375 72.75 52.59375 71.296875 
z
" id="DejaVuSans-36"/>
      </defs>
      <g transform="translate(287.227214 317.076875)scale(0.2 -0.2)">
       <use xlink:href="#DejaVuSans-36"/>
      </g>
     </g>
    </g>
    <g id="xtick_5">
     <g id="line2d_13">
      <path clip-path="url(#p940215e7ed)" d="M 56.12 294.88 
L 56.12 6.845228 
" style="fill:none;stroke:#b0b0b0;stroke-linecap:square;stroke-width:0.8;"/>
     </g>
     <g id="line2d_14">
      <defs>
       <path d="M 0 0 
L 0 2 
" id="m46bb6d15d5" style="stroke:#000000;stroke-width:0.6;"/>
      </defs>
      <g>
       <use style="stroke:#000000;stroke-width:0.6;" x="56.12" xlink:href="#m46bb6d15d5" y="294.88"/>
      </g>
     </g>
    </g>
    <g id="xtick_6">
     <g id="line2d_15">
      <path clip-path="url(#p940215e7ed)" d="M 95.698286 294.88 
L 95.698286 6.845228 
" style="fill:none;stroke:#b0b0b0;stroke-linecap:square;stroke-width:0.8;"/>
     </g>
     <g id="line2d_16">
      <g>
       <use style="stroke:#000000;stroke-width:0.6;" x="95.698286" xlink:href="#m46bb6d15d5" y="294.88"/>
      </g>
     </g>
    </g>
    <g id="xtick_7">
     <g id="line2d_17">
      <path clip-path="url(#p940215e7ed)" d="M 135.276571 294.88 
L 135.276571 6.845228 
" style="fill:none;stroke:#b0b0b0;stroke-linecap:square;stroke-width:0.8;"/>
     </g>
     <g id="line2d_18">
      <g>
       <use style="stroke:#000000;stroke-width:0.6;" x="135.276571" xlink:href="#m46bb6d15d5" y="294.88"/>
      </g>
     </g>
    </g>
    <g id="xtick_8">
     <g id="line2d_19">
      <path clip-path="url(#p940215e7ed)" d="M 174.854857 294.88 
L 174.854857 6.845228 
" style="fill:none;stroke:#b0b0b0;stroke-linecap:square;stroke-width:0.8;"/>
     </g>
     <g id="line2d_20">
      <g>
       <use style="stroke:#000000;stroke-width:0.6;" x="174.854857" xlink:href="#m46bb6d15d5" y="294.88"/>
      </g>
     </g>
    </g>
    <g id="xtick_9">
     <g id="line2d_21">
      <path clip-path="url(#p940215e7ed)" d="M 214.433143 294.88 
L 214.433143 6.845228 
" style="fill:none;stroke:#b0b0b0;stroke-linecap:square;stroke-width:0.8;"/>
     </g>
     <g id="line2d_22">
      <g>
       <use style="stroke:#000000;stroke-width:0.6;" x="214.433143" xlink:href="#m46bb6d15d5" y="294.88"/>
      </g>
     </g>
    </g>
    <g id="xtick_10">
     <g id="line2d_23">
      <path clip-path="url(#p940215e7ed)" d="M 254.011429 294.88 
L 254.011429 6.845228 
" style="fill:none;stroke:#b0b0b0;stroke-linecap:square;stroke-width:0.8;"/>
     </g>
     <g id="line2d_24">
      <g>
       <use style="stroke:#000000;stroke-width:0.6;" x="254.011429" xlink:href="#m46bb6d15d5" y="294.88"/>
      </g>
     </g>
    </g>
    <g id="xtick_11">
     <g id="line2d_25">
      <path clip-path="url(#p940215e7ed)" d="M 293.589714 294.88 
L 293.589714 6.845228 
" style="fill:none;stroke:#b0b0b0;stroke-linecap:square;stroke-width:0.8;"/>
     </g>
     <g id="line2d_26">
      <g>
       <use style="stroke:#000000;stroke-width:0.6;" x="293.589714" xlink:href="#m46bb6d15d5" y="294.88"/>
      </g>
     </g>
    </g>
    <g id="xtick_12">
     <g id="line2d_27">
      <path clip-path="url(#p940215e7ed)" d="M 333.168 294.88 
L 333.168 6.845228 
" style="fill:none;stroke:#b0b0b0;stroke-linecap:square;stroke-width:0.8;"/>
     </g>
     <g id="line2d_28">
      <g>
       <use style="stroke:#000000;stroke-width:0.6;" x="333.168" xlink:href="#m46bb6d15d5" y="294.88"/>
      </g>
     </g>
    </g>
    <g id="text_5">
     <!-- log10(# f-evals / dimension) -->
     <defs>
      <path d="M 9.421875 75.984375 
L 18.40625 75.984375 
L 18.40625 0 
L 9.421875 0 
z
" id="DejaVuSans-6c"/>
      <path d="M 30.609375 48.390625 
Q 23.390625 48.390625 19.1875 42.75 
Q 14.984375 37.109375 14.984375 27.296875 
Q 14.984375 17.484375 19.15625 11.84375 
Q 23.34375 6.203125 30.609375 6.203125 
Q 37.796875 6.203125 41.984375 11.859375 
Q 46.1875 17.53125 46.1875 27.296875 
Q 46.1875 37.015625 41.984375 42.703125 
Q 37.796875 48.390625 30.609375 48.390625 
z
M 30.609375 56 
Q 42.328125 56 49.015625 48.375 
Q 55.71875 40.765625 55.71875 27.296875 
Q 55.71875 13.875 49.015625 6.21875 
Q 42.328125 -1.421875 30.609375 -1.421875 
Q 18.84375 -1.421875 12.171875 6.21875 
Q 5.515625 13.875 5.515625 27.296875 
Q 5.515625 40.765625 12.171875 48.375 
Q 18.84375 56 30.609375 56 
z
" id="DejaVuSans-6f"/>
      <path d="M 45.40625 27.984375 
Q 45.40625 37.75 41.375 43.109375 
Q 37.359375 48.484375 30.078125 48.484375 
Q 22.859375 48.484375 18.828125 43.109375 
Q 14.796875 37.75 14.796875 27.984375 
Q 14.796875 18.265625 18.828125 12.890625 
Q 22.859375 7.515625 30.078125 7.515625 
Q 37.359375 7.515625 41.375 12.890625 
Q 45.40625 18.265625 45.40625 27.984375 
z
M 54.390625 6.78125 
Q 54.390625 -7.171875 48.1875 -13.984375 
Q 42 -20.796875 29.203125 -20.796875 
Q 24.46875 -20.796875 20.265625 -20.09375 
Q 16.0625 -19.390625 12.109375 -17.921875 
L 12.109375 -9.1875 
Q 16.0625 -11.328125 19.921875 -12.34375 
Q 23.78125 -13.375 27.78125 -13.375 
Q 36.625 -13.375 41.015625 -8.765625 
Q 45.40625 -4.15625 45.40625 5.171875 
L 45.40625 9.625 
Q 42.625 4.78125 38.28125 2.390625 
Q 33.9375 0 27.875 0 
Q 17.828125 0 11.671875 7.65625 
Q 5.515625 15.328125 5.515625 27.984375 
Q 5.515625 40.671875 11.671875 48.328125 
Q 17.828125 56 27.875 56 
Q 33.9375 56 38.28125 53.609375 
Q 42.625 51.21875 45.40625 46.390625 
L 45.40625 54.6875 
L 54.390625 54.6875 
z
" id="DejaVuSans-67"/>
      <path d="M 12.40625 8.296875 
L 28.515625 8.296875 
L 28.515625 63.921875 
L 10.984375 60.40625 
L 10.984375 69.390625 
L 28.421875 72.90625 
L 38.28125 72.90625 
L 38.28125 8.296875 
L 54.390625 8.296875 
L 54.390625 0 
L 12.40625 0 
z
" id="DejaVuSans-31"/>
      <path d="M 31 75.875 
Q 24.46875 64.65625 21.28125 53.65625 
Q 18.109375 42.671875 18.109375 31.390625 
Q 18.109375 20.125 21.3125 9.0625 
Q 24.515625 -2 31 -13.1875 
L 23.1875 -13.1875 
Q 15.875 -1.703125 12.234375 9.375 
Q 8.59375 20.453125 8.59375 31.390625 
Q 8.59375 42.28125 12.203125 53.3125 
Q 15.828125 64.359375 23.1875 75.875 
z
" id="DejaVuSans-28"/>
      <path d="M 51.125 44 
L 36.921875 44 
L 32.8125 27.6875 
L 47.125 27.6875 
z
M 43.796875 71.78125 
L 38.71875 51.515625 
L 52.984375 51.515625 
L 58.109375 71.78125 
L 65.921875 71.78125 
L 60.890625 51.515625 
L 76.125 51.515625 
L 76.125 44 
L 58.984375 44 
L 54.984375 27.6875 
L 70.515625 27.6875 
L 70.515625 20.21875 
L 53.078125 20.21875 
L 48 0 
L 40.1875 0 
L 45.21875 20.21875 
L 30.90625 20.21875 
L 25.875 0 
L 18.015625 0 
L 23.09375 20.21875 
L 7.71875 20.21875 
L 7.71875 27.6875 
L 24.90625 27.6875 
L 29 44 
L 13.28125 44 
L 13.28125 51.515625 
L 30.90625 51.515625 
L 35.890625 71.78125 
z
" id="DejaVuSans-23"/>
      <path id="DejaVuSans-20"/>
      <path d="M 37.109375 75.984375 
L 37.109375 68.5 
L 28.515625 68.5 
Q 23.6875 68.5 21.796875 66.546875 
Q 19.921875 64.59375 19.921875 59.515625 
L 19.921875 54.6875 
L 34.71875 54.6875 
L 34.71875 47.703125 
L 19.921875 47.703125 
L 19.921875 0 
L 10.890625 0 
L 10.890625 47.703125 
L 2.296875 47.703125 
L 2.296875 54.6875 
L 10.890625 54.6875 
L 10.890625 58.5 
Q 10.890625 67.625 15.140625 71.796875 
Q 19.390625 75.984375 28.609375 75.984375 
z
" id="DejaVuSans-66"/>
      <path d="M 4.890625 31.390625 
L 31.203125 31.390625 
L 31.203125 23.390625 
L 4.890625 23.390625 
z
" id="DejaVuSans-2d"/>
      <path d="M 56.203125 29.59375 
L 56.203125 25.203125 
L 14.890625 25.203125 
Q 15.484375 15.921875 20.484375 11.0625 
Q 25.484375 6.203125 34.421875 6.203125 
Q 39.59375 6.203125 44.453125 7.46875 
Q 49.3125 8.734375 54.109375 11.28125 
L 54.109375 2.78125 
Q 49.265625 0.734375 44.1875 -0.34375 
Q 39.109375 -1.421875 33.890625 -1.421875 
Q 20.796875 -1.421875 13.15625 6.1875 
Q 5.515625 13.8125 5.515625 26.8125 
Q 5.515625 40.234375 12.765625 48.109375 
Q 20.015625 56 32.328125 56 
Q 43.359375 56 49.78125 48.890625 
Q 56.203125 41.796875 56.203125 29.59375 
z
M 47.21875 32.234375 
Q 47.125 39.59375 43.09375 43.984375 
Q 39.0625 48.390625 32.421875 48.390625 
Q 24.90625 48.390625 20.390625 44.140625 
Q 15.875 39.890625 15.1875 32.171875 
z
" id="DejaVuSans-65"/>
      <path d="M 2.984375 54.6875 
L 12.5 54.6875 
L 29.59375 8.796875 
L 46.6875 54.6875 
L 56.203125 54.6875 
L 35.6875 0 
L 23.484375 0 
z
" id="DejaVuSans-76"/>
      <path d="M 34.28125 27.484375 
Q 23.390625 27.484375 19.1875 25 
Q 14.984375 22.515625 14.984375 16.5 
Q 14.984375 11.71875 18.140625 8.90625 
Q 21.296875 6.109375 26.703125 6.109375 
Q 34.1875 6.109375 38.703125 11.40625 
Q 43.21875 16.703125 43.21875 25.484375 
L 43.21875 27.484375 
z
M 52.203125 31.203125 
L 52.203125 0 
L 43.21875 0 
L 43.21875 8.296875 
Q 40.140625 3.328125 35.546875 0.953125 
Q 30.953125 -1.421875 24.3125 -1.421875 
Q 15.921875 -1.421875 10.953125 3.296875 
Q 6 8.015625 6 15.921875 
Q 6 25.140625 12.171875 29.828125 
Q 18.359375 34.515625 30.609375 34.515625 
L 43.21875 34.515625 
L 43.21875 35.40625 
Q 43.21875 41.609375 39.140625 45 
Q 35.0625 48.390625 27.6875 48.390625 
Q 23 48.390625 18.546875 47.265625 
Q 14.109375 46.140625 10.015625 43.890625 
L 10.015625 52.203125 
Q 14.9375 54.109375 19.578125 55.046875 
Q 24.21875 56 28.609375 56 
Q 40.484375 56 46.34375 49.84375 
Q 52.203125 43.703125 52.203125 31.203125 
z
" id="DejaVuSans-61"/>
      <path d="M 44.28125 53.078125 
L 44.28125 44.578125 
Q 40.484375 46.53125 36.375 47.5 
Q 32.28125 48.484375 27.875 48.484375 
Q 21.1875 48.484375 17.84375 46.4375 
Q 14.5 44.390625 14.5 40.28125 
Q 14.5 37.15625 16.890625 35.375 
Q 19.28125 33.59375 26.515625 31.984375 
L 29.59375 31.296875 
Q 39.15625 29.25 43.1875 25.515625 
Q 47.21875 21.78125 47.21875 15.09375 
Q 47.21875 7.46875 41.1875 3.015625 
Q 35.15625 -1.421875 24.609375 -1.421875 
Q 20.21875 -1.421875 15.453125 -0.5625 
Q 10.6875 0.296875 5.421875 2 
L 5.421875 11.28125 
Q 10.40625 8.6875 15.234375 7.390625 
Q 20.0625 6.109375 24.8125 6.109375 
Q 31.15625 6.109375 34.5625 8.28125 
Q 37.984375 10.453125 37.984375 14.40625 
Q 37.984375 18.0625 35.515625 20.015625 
Q 33.0625 21.96875 24.703125 23.78125 
L 21.578125 24.515625 
Q 13.234375 26.265625 9.515625 29.90625 
Q 5.8125 33.546875 5.8125 39.890625 
Q 5.8125 47.609375 11.28125 51.796875 
Q 16.75 56 26.8125 56 
Q 31.78125 56 36.171875 55.265625 
Q 40.578125 54.546875 44.28125 53.078125 
z
" id="DejaVuSans-73"/>
      <path d="M 25.390625 72.90625 
L 33.6875 72.90625 
L 8.296875 -9.28125 
L 0 -9.28125 
z
" id="DejaVuSans-2f"/>
      <path d="M 45.40625 46.390625 
L 45.40625 75.984375 
L 54.390625 75.984375 
L 54.390625 0 
L 45.40625 0 
L 45.40625 8.203125 
Q 42.578125 3.328125 38.25 0.953125 
Q 33.9375 -1.421875 27.875 -1.421875 
Q 17.96875 -1.421875 11.734375 6.484375 
Q 5.515625 14.40625 5.515625 27.296875 
Q 5.515625 40.1875 11.734375 48.09375 
Q 17.96875 56 27.875 56 
Q 33.9375 56 38.25 53.625 
Q 42.578125 51.265625 45.40625 46.390625 
z
M 14.796875 27.296875 
Q 14.796875 17.390625 18.875 11.75 
Q 22.953125 6.109375 30.078125 6.109375 
Q 37.203125 6.109375 41.296875 11.75 
Q 45.40625 17.390625 45.40625 27.296875 
Q 45.40625 37.203125 41.296875 42.84375 
Q 37.203125 48.484375 30.078125 48.484375 
Q 22.953125 48.484375 18.875 42.84375 
Q 14.796875 37.203125 14.796875 27.296875 
z
" id="DejaVuSans-64"/>
      <path d="M 9.421875 54.6875 
L 18.40625 54.6875 
L 18.40625 0 
L 9.421875 0 
z
M 9.421875 75.984375 
L 18.40625 75.984375 
L 18.40625 64.59375 
L 9.421875 64.59375 
z
" id="DejaVuSans-69"/>
      <path d="M 52 44.1875 
Q 55.375 50.25 60.0625 53.125 
Q 64.75 56 71.09375 56 
Q 79.640625 56 84.28125 50.015625 
Q 88.921875 44.046875 88.921875 33.015625 
L 88.921875 0 
L 79.890625 0 
L 79.890625 32.71875 
Q 79.890625 40.578125 77.09375 44.375 
Q 74.3125 48.1875 68.609375 48.1875 
Q 61.625 48.1875 57.5625 43.546875 
Q 53.515625 38.921875 53.515625 30.90625 
L 53.515625 0 
L 44.484375 0 
L 44.484375 32.71875 
Q 44.484375 40.625 41.703125 44.40625 
Q 38.921875 48.1875 33.109375 48.1875 
Q 26.21875 48.1875 22.15625 43.53125 
Q 18.109375 38.875 18.109375 30.90625 
L 18.109375 0 
L 9.078125 0 
L 9.078125 54.6875 
L 18.109375 54.6875 
L 18.109375 46.1875 
Q 21.1875 51.21875 25.484375 53.609375 
Q 29.78125 56 35.6875 56 
Q 41.65625 56 45.828125 52.96875 
Q 50 49.953125 52 44.1875 
z
" id="DejaVuSans-6d"/>
      <path d="M 54.890625 33.015625 
L 54.890625 0 
L 45.90625 0 
L 45.90625 32.71875 
Q 45.90625 40.484375 42.875 44.328125 
Q 39.84375 48.1875 33.796875 48.1875 
Q 26.515625 48.1875 22.3125 43.546875 
Q 18.109375 38.921875 18.109375 30.90625 
L 18.109375 0 
L 9.078125 0 
L 9.078125 54.6875 
L 18.109375 54.6875 
L 18.109375 46.1875 
Q 21.34375 51.125 25.703125 53.5625 
Q 30.078125 56 35.796875 56 
Q 45.21875 56 50.046875 50.171875 
Q 54.890625 44.34375 54.890625 33.015625 
z
" id="DejaVuSans-6e"/>
      <path d="M 8.015625 75.875 
L 15.828125 75.875 
Q 23.140625 64.359375 26.78125 53.3125 
Q 30.421875 42.28125 30.421875 31.390625 
Q 30.421875 20.453125 26.78125 9.375 
Q 23.140625 -1.703125 15.828125 -13.1875 
L 8.015625 -13.1875 
Q 14.5 -2 17.703125 9.0625 
Q 20.90625 20.125 20.90625 31.390625 
Q 20.90625 42.671875 17.703125 53.65625 
Q 14.5 64.65625 8.015625 75.875 
z
" id="DejaVuSans-29"/>
     </defs>
     <g transform="translate(73.803219 338.153594)scale(0.17 -0.17)">
      <use xlink:href="#DejaVuSans-6c"/>
      <use x="27.783203" xlink:href="#DejaVuSans-6f"/>
      <use x="88.964844" xlink:href="#DejaVuSans-67"/>
      <use x="152.441406" xlink:href="#DejaVuSans-31"/>
      <use x="216.064453" xlink:href="#DejaVuSans-30"/>
      <use x="279.6875" xlink:href="#DejaVuSans-28"/>
      <use x="318.701172" xlink:href="#DejaVuSans-23"/>
      <use x="402.490234" xlink:href="#DejaVuSans-20"/>
      <use x="434.277344" xlink:href="#DejaVuSans-66"/>
      <use x="469.404297" xlink:href="#DejaVuSans-2d"/>
      <use x="505.488281" xlink:href="#DejaVuSans-65"/>
      <use x="567.011719" xlink:href="#DejaVuSans-76"/>
      <use x="626.191406" xlink:href="#DejaVuSans-61"/>
      <use x="687.470703" xlink:href="#DejaVuSans-6c"/>
      <use x="715.253906" xlink:href="#DejaVuSans-73"/>
      <use x="767.353516" xlink:href="#DejaVuSans-20"/>
      <use x="799.140625" xlink:href="#DejaVuSans-2f"/>
      <use x="832.832031" xlink:href="#DejaVuSans-20"/>
      <use x="864.619141" xlink:href="#DejaVuSans-64"/>
      <use x="928.095703" xlink:href="#DejaVuSans-69"/>
      <use x="955.878906" xlink:href="#DejaVuSans-6d"/>
      <use x="1053.291016" xlink:href="#DejaVuSans-65"/>
      <use x="1114.814453" xlink:href="#DejaVuSans-6e"/>
      <use x="1178.193359" xlink:href="#DejaVuSans-73"/>
      <use x="1230.292969" xlink:href="#DejaVuSans-69"/>
      <use x="1258.076172" xlink:href="#DejaVuSans-6f"/>
      <use x="1319.257812" xlink:href="#DejaVuSans-6e"/>
      <use x="1382.636719" xlink:href="#DejaVuSans-29"/>
     </g>
    </g>
   </g>
   <g id="matplotlib.axis_2">
    <g id="ytick_1">
     <g id="line2d_29">
      <path clip-path="url(#p940215e7ed)" d="M 56.12 294.88 
L 333.168 294.88 
" style="fill:none;stroke:#b0b0b0;stroke-linecap:square;stroke-width:0.8;"/>
     </g>
     <g id="line2d_30">
      <defs>
       <path d="M 0 0 
L -3.5 0 
" id="m6697049312" style="stroke:#000000;stroke-width:0.8;"/>
      </defs>
      <g>
       <use style="stroke:#000000;stroke-width:0.8;" x="56.12" xlink:href="#m6697049312" y="294.88"/>
      </g>
     </g>
     <g id="text_6">
      <!-- 0.0 -->
      <defs>
       <path d="M 10.6875 12.40625 
L 21 12.40625 
L 21 0 
L 10.6875 0 
z
" id="DejaVuSans-2e"/>
      </defs>
      <g transform="translate(23.675 300.95875)scale(0.16 -0.16)">
       <use xlink:href="#DejaVuSans-30"/>
       <use x="63.623047" xlink:href="#DejaVuSans-2e"/>
       <use x="95.410156" xlink:href="#DejaVuSans-30"/>
      </g>
     </g>
    </g>
    <g id="ytick_2">
     <g id="line2d_31">
      <path clip-path="url(#p940215e7ed)" d="M 56.12 237.843411 
L 333.168 237.843411 
" style="fill:none;stroke:#b0b0b0;stroke-linecap:square;stroke-width:0.8;"/>
     </g>
     <g id="line2d_32">
      <g>
       <use style="stroke:#000000;stroke-width:0.8;" x="56.12" xlink:href="#m6697049312" y="237.843411"/>
      </g>
     </g>
     <g id="text_7">
      <!-- 0.2 -->
      <g transform="translate(23.675 243.922161)scale(0.16 -0.16)">
       <use xlink:href="#DejaVuSans-30"/>
       <use x="63.623047" xlink:href="#DejaVuSans-2e"/>
       <use x="95.410156" xlink:href="#DejaVuSans-32"/>
      </g>
     </g>
    </g>
    <g id="ytick_3">
     <g id="line2d_33">
      <path clip-path="url(#p940215e7ed)" d="M 56.12 180.806823 
L 333.168 180.806823 
" style="fill:none;stroke:#b0b0b0;stroke-linecap:square;stroke-width:0.8;"/>
     </g>
     <g id="line2d_34">
      <g>
       <use style="stroke:#000000;stroke-width:0.8;" x="56.12" xlink:href="#m6697049312" y="180.806823"/>
      </g>
     </g>
     <g id="text_8">
      <!-- 0.4 -->
      <g transform="translate(23.675 186.885573)scale(0.16 -0.16)">
       <use xlink:href="#DejaVuSans-30"/>
       <use x="63.623047" xlink:href="#DejaVuSans-2e"/>
       <use x="95.410156" xlink:href="#DejaVuSans-34"/>
      </g>
     </g>
    </g>
    <g id="ytick_4">
     <g id="line2d_35">
      <path clip-path="url(#p940215e7ed)" d="M 56.12 123.770234 
L 333.168 123.770234 
" style="fill:none;stroke:#b0b0b0;stroke-linecap:square;stroke-width:0.8;"/>
     </g>
     <g id="line2d_36">
      <g>
       <use style="stroke:#000000;stroke-width:0.8;" x="56.12" xlink:href="#m6697049312" y="123.770234"/>
      </g>
     </g>
     <g id="text_9">
      <!-- 0.6 -->
      <g transform="translate(23.675 129.848984)scale(0.16 -0.16)">
       <use xlink:href="#DejaVuSans-30"/>
       <use x="63.623047" xlink:href="#DejaVuSans-2e"/>
       <use x="95.410156" xlink:href="#DejaVuSans-36"/>
      </g>
     </g>
    </g>
    <g id="ytick_5">
     <g id="line2d_37">
      <path clip-path="url(#p940215e7ed)" d="M 56.12 66.733646 
L 333.168 66.733646 
" style="fill:none;stroke:#b0b0b0;stroke-linecap:square;stroke-width:0.8;"/>
     </g>
     <g id="line2d_38">
      <g>
       <use style="stroke:#000000;stroke-width:0.8;" x="56.12" xlink:href="#m6697049312" y="66.733646"/>
      </g>
     </g>
     <g id="text_10">
      <!-- 0.8 -->
      <defs>
       <path d="M 31.78125 34.625 
Q 24.75 34.625 20.71875 30.859375 
Q 16.703125 27.09375 16.703125 20.515625 
Q 16.703125 13.921875 20.71875 10.15625 
Q 24.75 6.390625 31.78125 6.390625 
Q 38.8125 6.390625 42.859375 10.171875 
Q 46.921875 13.96875 46.921875 20.515625 
Q 46.921875 27.09375 42.890625 30.859375 
Q 38.875 34.625 31.78125 34.625 
z
M 21.921875 38.8125 
Q 15.578125 40.375 12.03125 44.71875 
Q 8.5 49.078125 8.5 55.328125 
Q 8.5 64.0625 14.71875 69.140625 
Q 20.953125 74.21875 31.78125 74.21875 
Q 42.671875 74.21875 48.875 69.140625 
Q 55.078125 64.0625 55.078125 55.328125 
Q 55.078125 49.078125 51.53125 44.71875 
Q 48 40.375 41.703125 38.8125 
Q 48.828125 37.15625 52.796875 32.3125 
Q 56.78125 27.484375 56.78125 20.515625 
Q 56.78125 9.90625 50.3125 4.234375 
Q 43.84375 -1.421875 31.78125 -1.421875 
Q 19.734375 -1.421875 13.25 4.234375 
Q 6.78125 9.90625 6.78125 20.515625 
Q 6.78125 27.484375 10.78125 32.3125 
Q 14.796875 37.15625 21.921875 38.8125 
z
M 18.3125 54.390625 
Q 18.3125 48.734375 21.84375 45.5625 
Q 25.390625 42.390625 31.78125 42.390625 
Q 38.140625 42.390625 41.71875 45.5625 
Q 45.3125 48.734375 45.3125 54.390625 
Q 45.3125 60.0625 41.71875 63.234375 
Q 38.140625 66.40625 31.78125 66.40625 
Q 25.390625 66.40625 21.84375 63.234375 
Q 18.3125 60.0625 18.3125 54.390625 
z
" id="DejaVuSans-38"/>
      </defs>
      <g transform="translate(23.675 72.812396)scale(0.16 -0.16)">
       <use xlink:href="#DejaVuSans-30"/>
       <use x="63.623047" xlink:href="#DejaVuSans-2e"/>
       <use x="95.410156" xlink:href="#DejaVuSans-38"/>
      </g>
     </g>
    </g>
    <g id="ytick_6">
     <g id="line2d_39">
      <path clip-path="url(#p940215e7ed)" d="M 56.12 9.697057 
L 333.168 9.697057 
" style="fill:none;stroke:#b0b0b0;stroke-linecap:square;stroke-width:0.8;"/>
     </g>
     <g id="line2d_40">
      <g>
       <use style="stroke:#000000;stroke-width:0.8;" x="56.12" xlink:href="#m6697049312" y="9.697057"/>
      </g>
     </g>
     <g id="text_11">
      <!-- 1.0 -->
      <g transform="translate(23.675 15.775807)scale(0.16 -0.16)">
       <use xlink:href="#DejaVuSans-31"/>
       <use x="63.623047" xlink:href="#DejaVuSans-2e"/>
       <use x="95.410156" xlink:href="#DejaVuSans-30"/>
      </g>
     </g>
    </g>
    <g id="text_12">
     <!-- Fraction of function,target pairs -->
     <defs>
      <path d="M 9.8125 72.90625 
L 51.703125 72.90625 
L 51.703125 64.59375 
L 19.671875 64.59375 
L 19.671875 43.109375 
L 48.578125 43.109375 
L 48.578125 34.8125 
L 19.671875 34.8125 
L 19.671875 0 
L 9.8125 0 
z
" id="DejaVuSans-46"/>
      <path d="M 41.109375 46.296875 
Q 39.59375 47.171875 37.8125 47.578125 
Q 36.03125 48 33.890625 48 
Q 26.265625 48 22.1875 43.046875 
Q 18.109375 38.09375 18.109375 28.8125 
L 18.109375 0 
L 9.078125 0 
L 9.078125 54.6875 
L 18.109375 54.6875 
L 18.109375 46.1875 
Q 20.953125 51.171875 25.484375 53.578125 
Q 30.03125 56 36.53125 56 
Q 37.453125 56 38.578125 55.875 
Q 39.703125 55.765625 41.0625 55.515625 
z
" id="DejaVuSans-72"/>
      <path d="M 48.78125 52.59375 
L 48.78125 44.1875 
Q 44.96875 46.296875 41.140625 47.34375 
Q 37.3125 48.390625 33.40625 48.390625 
Q 24.65625 48.390625 19.8125 42.84375 
Q 14.984375 37.3125 14.984375 27.296875 
Q 14.984375 17.28125 19.8125 11.734375 
Q 24.65625 6.203125 33.40625 6.203125 
Q 37.3125 6.203125 41.140625 7.25 
Q 44.96875 8.296875 48.78125 10.40625 
L 48.78125 2.09375 
Q 45.015625 0.34375 40.984375 -0.53125 
Q 36.96875 -1.421875 32.421875 -1.421875 
Q 20.0625 -1.421875 12.78125 6.34375 
Q 5.515625 14.109375 5.515625 27.296875 
Q 5.515625 40.671875 12.859375 48.328125 
Q 20.21875 56 33.015625 56 
Q 37.15625 56 41.109375 55.140625 
Q 45.0625 54.296875 48.78125 52.59375 
z
" id="DejaVuSans-63"/>
      <path d="M 18.3125 70.21875 
L 18.3125 54.6875 
L 36.8125 54.6875 
L 36.8125 47.703125 
L 18.3125 47.703125 
L 18.3125 18.015625 
Q 18.3125 11.328125 20.140625 9.421875 
Q 21.96875 7.515625 27.59375 7.515625 
L 36.8125 7.515625 
L 36.8125 0 
L 27.59375 0 
Q 17.1875 0 13.234375 3.875 
Q 9.28125 7.765625 9.28125 18.015625 
L 9.28125 47.703125 
L 2.6875 47.703125 
L 2.6875 54.6875 
L 9.28125 54.6875 
L 9.28125 70.21875 
z
" id="DejaVuSans-74"/>
      <path d="M 8.5 21.578125 
L 8.5 54.6875 
L 17.484375 54.6875 
L 17.484375 21.921875 
Q 17.484375 14.15625 20.5 10.265625 
Q 23.53125 6.390625 29.59375 6.390625 
Q 36.859375 6.390625 41.078125 11.03125 
Q 45.3125 15.671875 45.3125 23.6875 
L 45.3125 54.6875 
L 54.296875 54.6875 
L 54.296875 0 
L 45.3125 0 
L 45.3125 8.40625 
Q 42.046875 3.421875 37.71875 1 
Q 33.40625 -1.421875 27.6875 -1.421875 
Q 18.265625 -1.421875 13.375 4.4375 
Q 8.5 10.296875 8.5 21.578125 
z
M 31.109375 56 
z
" id="DejaVuSans-75"/>
      <path d="M 11.71875 12.40625 
L 22.015625 12.40625 
L 22.015625 4 
L 14.015625 -11.625 
L 7.71875 -11.625 
L 11.71875 4 
z
" id="DejaVuSans-2c"/>
      <path d="M 18.109375 8.203125 
L 18.109375 -20.796875 
L 9.078125 -20.796875 
L 9.078125 54.6875 
L 18.109375 54.6875 
L 18.109375 46.390625 
Q 20.953125 51.265625 25.265625 53.625 
Q 29.59375 56 35.59375 56 
Q 45.5625 56 51.78125 48.09375 
Q 58.015625 40.1875 58.015625 27.296875 
Q 58.015625 14.40625 51.78125 6.484375 
Q 45.5625 -1.421875 35.59375 -1.421875 
Q 29.59375 -1.421875 25.265625 0.953125 
Q 20.953125 3.328125 18.109375 8.203125 
z
M 48.6875 27.296875 
Q 48.6875 37.203125 44.609375 42.84375 
Q 40.53125 48.484375 33.40625 48.484375 
Q 26.265625 48.484375 22.1875 42.84375 
Q 18.109375 37.203125 18.109375 27.296875 
Q 18.109375 17.390625 22.1875 11.75 
Q 26.265625 6.109375 33.40625 6.109375 
Q 40.53125 6.109375 44.609375 11.75 
Q 48.6875 17.390625 48.6875 27.296875 
z
" id="DejaVuSans-70"/>
     </defs>
     <g transform="translate(16.139531 286.001989)rotate(-90)scale(0.17 -0.17)">
      <use xlink:href="#DejaVuSans-46"/>
      <use x="57.410156" xlink:href="#DejaVuSans-72"/>
      <use x="98.523438" xlink:href="#DejaVuSans-61"/>
      <use x="159.802734" xlink:href="#DejaVuSans-63"/>
      <use x="214.783203" xlink:href="#DejaVuSans-74"/>
      <use x="253.992188" xlink:href="#DejaVuSans-69"/>
      <use x="281.775391" xlink:href="#DejaVuSans-6f"/>
      <use x="342.957031" xlink:href="#DejaVuSans-6e"/>
      <use x="406.335938" xlink:href="#DejaVuSans-20"/>
      <use x="438.123047" xlink:href="#DejaVuSans-6f"/>
      <use x="499.304688" xlink:href="#DejaVuSans-66"/>
      <use x="534.509766" xlink:href="#DejaVuSans-20"/>
      <use x="566.296875" xlink:href="#DejaVuSans-66"/>
      <use x="601.501953" xlink:href="#DejaVuSans-75"/>
      <use x="664.880859" xlink:href="#DejaVuSans-6e"/>
      <use x="728.259766" xlink:href="#DejaVuSans-63"/>
      <use x="783.240234" xlink:href="#DejaVuSans-74"/>
      <use x="822.449219" xlink:href="#DejaVuSans-69"/>
      <use x="850.232422" xlink:href="#DejaVuSans-6f"/>
      <use x="911.414062" xlink:href="#DejaVuSans-6e"/>
      <use x="974.792969" xlink:href="#DejaVuSans-2c"/>
      <use x="1006.580078" xlink:href="#DejaVuSans-74"/>
      <use x="1045.789062" xlink:href="#DejaVuSans-61"/>
      <use x="1107.068359" xlink:href="#DejaVuSans-72"/>
      <use x="1148.166016" xlink:href="#DejaVuSans-67"/>
      <use x="1211.642578" xlink:href="#DejaVuSans-65"/>
      <use x="1273.166016" xlink:href="#DejaVuSans-74"/>
      <use x="1312.375" xlink:href="#DejaVuSans-20"/>
      <use x="1344.162109" xlink:href="#DejaVuSans-70"/>
      <use x="1407.638672" xlink:href="#DejaVuSans-61"/>
      <use x="1468.917969" xlink:href="#DejaVuSans-69"/>
      <use x="1496.701172" xlink:href="#DejaVuSans-72"/>
      <use x="1537.814453" xlink:href="#DejaVuSans-73"/>
     </g>
    </g>
   </g>
   <g id="line2d_41">
    <defs>
     <path d="M 0 1.5 
C 0.397805 1.5 0.77937 1.341951 1.06066 1.06066 
C 1.341951 0.77937 1.5 0.397805 1.5 0 
C 1.5 -0.397805 1.341951 -0.77937 1.06066 -1.06066 
C 0.77937 -1.341951 0.397805 -1.5 0 -1.5 
C -0.397805 -1.5 -0.77937 -1.341951 -1.06066 -1.06066 
C -1.341951 -0.77937 -1.5 -0.397805 -1.5 0 
C -1.5 0.397805 -1.341951 0.77937 -1.06066 1.06066 
C -0.77937 1.341951 -0.397805 1.5 0 1.5 
z
" id="mfb2298a359" style="stroke:#f5deb3;"/>
    </defs>
    <g>
     <use style="fill:#f5deb3;stroke:#f5deb3;" x="293.569127" xlink:href="#mfb2298a359" y="185.477923"/>
     <use style="fill:#f5deb3;stroke:#f5deb3;" x="293.569127" xlink:href="#mfb2298a359" y="185.477923"/>
    </g>
   </g>
   <g id="line2d_42">
    <defs>
     <path d="M 0 1.5 
C 0.397805 1.5 0.77937 1.341951 1.06066 1.06066 
C 1.341951 0.77937 1.5 0.397805 1.5 0 
C 1.5 -0.397805 1.341951 -0.77937 1.06066 -1.06066 
C 0.77937 -1.341951 0.397805 -1.5 0 -1.5 
C -0.397805 -1.5 -0.77937 -1.341951 -1.06066 -1.06066 
C -1.341951 -0.77937 -1.5 -0.397805 -1.5 0 
C -1.5 0.397805 -1.341951 0.77937 -1.06066 1.06066 
C -0.77937 1.341951 -0.397805 1.5 0 1.5 
z
" id="m724b503557" style="stroke:#000080;"/>
    </defs>
    <g>
     <use style="fill:#000080;stroke:#000080;" x="313.95809" xlink:href="#m724b503557" y="210.062659"/>
     <use style="fill:#000080;stroke:#000080;" x="313.95809" xlink:href="#m724b503557" y="210.062659"/>
    </g>
   </g>
   <g id="line2d_43">
    <path d="M -1 285.660724 
L 20.377246 285.660724 
L 20.377246 285.5378 
L 61.278387 285.5378 
L 61.278387 285.414876 
L 66.460336 285.414876 
L 66.460336 285.169029 
L 69.277344 285.169029 
L 69.277344 284.923182 
L 70.05878 284.923182 
L 70.05878 284.800258 
L 91.149885 284.800258 
L 91.205783 283.939792 
L 93.501005 283.939792 
L 93.501005 283.816869 
L 96.16459 283.816869 
L 96.16459 283.693945 
L 99.636642 283.693945 
L 99.636642 283.448098 
L 99.874198 283.448098 
L 99.874198 283.079327 
L 102.581517 283.079327 
L 102.581517 282.833479 
L 102.838708 282.833479 
L 102.838708 282.710555 
L 103.036119 282.710555 
L 103.036119 282.587632 
L 104.017036 282.587632 
L 104.017036 282.464708 
L 105.464018 282.464708 
L 105.464018 282.218861 
L 107.783569 282.218861 
L 107.783569 282.095937 
L 108.09974 282.095937 
L 108.09974 281.727166 
L 108.471624 281.727166 
L 108.471624 281.481319 
L 109.770238 281.481319 
L 109.845876 281.112548 
L 111.550893 281.112548 
L 111.619102 280.8667 
L 111.670081 280.8667 
L 111.73782 280.497929 
L 113.179822 280.497929 
L 113.210876 279.883311 
L 114.710361 279.883311 
L 114.767136 279.145769 
L 115.984175 279.145769 
L 115.984175 278.899921 
L 116.529892 278.899921 
L 116.529892 278.654074 
L 117.390438 278.654074 
L 117.475381 278.285303 
L 118.463235 278.285303 
L 118.463235 278.039456 
L 118.611168 278.039456 
L 118.6903 277.670684 
L 119.580419 277.670684 
L 119.612517 277.056066 
L 120.076533 277.056066 
L 120.076533 276.933142 
L 120.659601 276.933142 
L 120.659601 276.687295 
L 120.789856 276.687295 
L 120.789856 276.564371 
L 121.608517 276.564371 
L 121.608517 276.318524 
L 121.901057 276.318524 
L 121.994372 276.072677 
L 122.04084 276.072677 
L 122.04084 275.949753 
L 122.516807 275.949753 
L 122.55288 275.335135 
L 122.678542 275.335135 
L 122.767741 274.966363 
L 122.865328 274.966363 
L 122.865328 274.720516 
L 123.456599 274.720516 
L 123.482222 274.351745 
L 124.258157 274.351745 
L 124.307034 273.982974 
L 124.404375 273.982974 
L 124.404375 273.737127 
L 125.047386 273.737127 
L 125.062963 273.245432 
L 125.861516 273.245432 
L 125.972626 272.876661 
L 126.524802 272.876661 
L 126.524802 272.630814 
L 126.645925 272.630814 
L 126.702629 272.384966 
L 127.287002 272.384966 
L 127.327992 271.893271 
L 127.891824 271.893271 
L 127.931399 271.032806 
L 128.003717 271.032806 
L 128.003717 270.786958 
L 128.199415 270.786958 
L 128.199415 270.541111 
L 128.533435 270.541111 
L 128.533435 270.418187 
L 129.207096 270.418187 
L 129.298606 269.803569 
L 129.365405 269.803569 
L 129.365405 269.680645 
L 129.766761 269.680645 
L 129.790429 269.311874 
L 129.972757 269.311874 
L 129.978606 269.066027 
L 130.100987 269.066027 
L 130.210967 268.328485 
L 130.354613 268.328485 
L 130.354613 267.959714 
L 130.604552 267.959714 
L 130.604552 267.590943 
L 131.175802 267.590943 
L 131.175802 267.468019 
L 131.457146 267.468019 
L 131.548134 267.099248 
L 131.670473 267.099248 
L 131.670473 266.976324 
L 132.016776 266.976324 
L 132.037542 266.484629 
L 132.182202 266.484629 
L 132.182202 266.361706 
L 132.719074 266.361706 
L 132.719074 266.115858 
L 133.982912 266.115858 
L 133.982912 265.870011 
L 134.121345 265.870011 
L 134.121345 265.747087 
L 134.713102 265.747087 
L 134.713102 265.50124 
L 135.021151 265.50124 
L 135.021151 265.378316 
L 135.315202 265.378316 
L 135.315202 265.255393 
L 135.709386 265.255393 
L 135.809661 264.763698 
L 136.213149 264.763698 
L 136.213149 264.51785 
L 136.702566 264.51785 
L 136.702566 264.149079 
L 136.926538 264.149079 
L 136.957741 263.288614 
L 137.170738 263.288614 
L 137.236043 262.551072 
L 137.358301 262.551072 
L 137.358301 262.182301 
L 137.690094 262.182301 
L 137.690094 262.059377 
L 137.805467 262.059377 
L 137.805467 261.813529 
L 138.237678 261.813529 
L 138.288243 261.567682 
L 139.21151 261.567682 
L 139.21151 261.321835 
L 139.438997 261.321835 
L 139.533182 260.83014 
L 140.479464 260.83014 
L 140.479464 260.338445 
L 140.800286 260.338445 
L 140.843857 259.846751 
L 141.148851 259.846751 
L 141.148851 259.723827 
L 142.04135 259.723827 
L 142.04135 259.600903 
L 142.544161 259.600903 
L 142.583533 259.232132 
L 142.928374 259.232132 
L 142.928374 258.986285 
L 143.37408 258.986285 
L 143.37408 258.740437 
L 143.65085 258.740437 
L 143.748251 258.125819 
L 144.298479 258.125819 
L 144.298479 257.634124 
L 144.455385 257.634124 
L 144.455385 257.511201 
L 144.668195 257.511201 
L 144.668195 257.14243 
L 144.784746 257.14243 
L 144.784746 256.773658 
L 145.231165 256.773658 
L 145.257634 255.790269 
L 145.37982 255.790269 
L 145.37982 255.667345 
L 145.621616 255.667345 
L 145.621616 255.421498 
L 145.894847 255.421498 
L 145.901796 255.175651 
L 146.352079 255.175651 
L 146.352079 254.315185 
L 146.757848 254.315185 
L 146.757848 254.192261 
L 146.948481 254.192261 
L 147.007216 253.946414 
L 147.400104 253.946414 
L 147.408592 253.700566 
L 148.109078 253.700566 
L 148.109078 253.454719 
L 148.495763 253.454719 
L 148.55342 253.085948 
L 149.213442 253.085948 
L 149.213442 252.963024 
L 149.628601 252.963024 
L 149.628601 252.717177 
L 149.766021 252.717177 
L 149.834322 252.348406 
L 150.193476 252.348406 
L 150.260102 251.610864 
L 150.365812 251.610864 
L 150.397934 251.365016 
L 150.571773 251.365016 
L 150.642226 250.996245 
L 150.820583 250.996245 
L 150.902149 250.258703 
L 151.297504 250.258703 
L 151.297504 249.889932 
L 151.584421 249.889932 
L 151.692239 249.644085 
L 154.909948 249.644085 
L 154.994756 249.275314 
L 155.582252 249.275314 
L 155.633603 249.029467 
L 155.840083 249.029467 
L 155.868638 248.783619 
L 157.666019 248.783619 
L 157.666019 248.537772 
L 157.961333 248.537772 
L 157.961333 248.414848 
L 158.111094 248.414848 
L 158.170181 247.80023 
L 158.25166 247.80023 
L 158.25166 247.431459 
L 158.369795 247.431459 
L 158.369795 247.185611 
L 159.23564 247.185611 
L 159.23564 247.062688 
L 160.047754 247.062688 
L 160.047754 246.939764 
L 161.119096 246.939764 
L 161.119096 246.81684 
L 161.444687 246.81684 
L 161.450312 246.325146 
L 163.737448 246.325146 
L 163.737448 246.079298 
L 164.253909 246.079298 
L 164.253909 245.956374 
L 164.469126 245.956374 
L 164.469126 245.833451 
L 164.690222 245.833451 
L 164.690222 245.710527 
L 165.711853 245.710527 
L 165.711853 245.587603 
L 165.858252 245.587603 
L 165.858252 245.46468 
L 167.907583 245.46468 
L 167.907583 245.341756 
L 170.584697 245.341756 
L 170.584697 244.727138 
L 171.391798 244.727138 
L 171.391798 244.604214 
L 173.010878 244.604214 
L 173.010878 244.48129 
L 173.157116 244.48129 
L 173.157116 244.358367 
L 173.987664 244.358367 
L 173.987664 244.235443 
L 174.415712 244.235443 
L 174.415712 244.112519 
L 174.854857 244.112519 
L 174.863449 243.497901 
L 175.236474 243.497901 
L 175.236474 243.374977 
L 177.257174 243.374977 
L 177.257174 243.252053 
L 178.183132 243.252053 
L 178.183132 243.12913 
L 178.560296 243.12913 
L 178.560296 242.637435 
L 180.784449 242.637435 
L 180.784449 242.268664 
L 184.314771 242.268664 
L 184.314771 242.022817 
L 184.796925 242.022817 
L 184.796925 241.899893 
L 186.068777 241.899893 
L 186.068777 241.654046 
L 188.597721 241.654046 
L 188.597721 241.285275 
L 188.889056 241.285275 
L 188.889056 241.162351 
L 189.045977 241.162351 
L 189.045977 241.039427 
L 190.899799 241.039427 
L 190.899799 240.916503 
L 191.798736 240.916503 
L 191.798736 240.79358 
L 195.034807 240.79358 
L 195.034807 240.547732 
L 195.635487 240.547732 
L 195.635487 240.301885 
L 198.037547 240.301885 
L 198.104342 239.933114 
L 202.004197 239.933114 
L 202.004197 239.81019 
L 202.276376 239.81019 
L 202.276376 239.564343 
L 203.623036 239.564343 
L 203.623036 239.441419 
L 204.273941 239.441419 
L 204.273941 239.072648 
L 206.654042 239.072648 
L 206.654042 238.703877 
L 207.101142 238.703877 
L 207.101142 238.580954 
L 207.933758 238.580954 
L 207.933758 238.45803 
L 209.471142 238.45803 
L 209.471142 238.089259 
L 210.974867 238.089259 
L 210.974867 237.720488 
L 212.835336 237.720488 
L 212.835336 237.597564 
L 215.132108 237.597564 
L 215.132108 237.47464 
L 216.133396 237.47464 
L 216.133396 237.228793 
L 216.492968 237.228793 
L 216.545263 236.614175 
L 216.775606 236.614175 
L 216.775606 236.12248 
L 218.147966 236.12248 
L 218.147966 235.999556 
L 220.799084 235.999556 
L 220.799084 235.753709 
L 221.756249 235.753709 
L 221.756249 235.630785 
L 222.060148 235.630785 
L 222.060148 235.13909 
L 223.183455 235.13909 
L 223.183455 234.893243 
L 225.215086 234.893243 
L 225.215086 234.278625 
L 226.731974 234.278625 
L 226.731974 234.155701 
L 227.000893 234.155701 
L 227.000893 233.78693 
L 229.664707 233.78693 
L 229.664707 233.295235 
L 230.765801 233.295235 
L 230.765801 233.172312 
L 231.308915 233.172312 
L 231.308915 233.049388 
L 234.821003 233.049388 
L 234.821003 232.926464 
L 236.807141 232.926464 
L 236.807141 232.80354 
L 236.991147 232.80354 
L 236.991147 232.680617 
L 240.561816 232.680617 
L 240.561816 232.557693 
L 240.720851 232.557693 
L 240.720851 232.311846 
L 241.736752 232.311846 
L 241.736752 232.188922 
L 242.755619 232.188922 
L 242.755619 231.943075 
L 243.53418 231.943075 
L 243.53418 231.697227 
L 246.004073 231.697227 
L 246.004073 231.205533 
L 246.419418 231.205533 
L 246.419418 231.082609 
L 248.041274 231.082609 
L 248.041274 230.590914 
L 248.424479 230.590914 
L 248.424479 230.46799 
L 250.367658 230.46799 
L 250.367658 230.222143 
L 254.03512 230.222143 
L 254.106322 228.501212 
L 254.182465 228.501212 
L 254.25243 227.886593 
L 254.55868 227.886593 
L 254.561598 227.640746 
L 254.825906 227.640746 
L 254.904287 227.271975 
L 254.974862 227.271975 
L 254.974862 227.149051 
L 255.25333 227.149051 
L 255.362518 226.903204 
L 255.852786 226.903204 
L 255.852786 226.78028 
L 256.022591 226.78028 
L 256.022591 226.657356 
L 257.744563 226.657356 
L 257.744563 226.534433 
L 257.965131 226.534433 
L 257.965131 226.411509 
L 259.391762 226.411509 
L 259.44141 226.165662 
L 260.53418 226.165662 
L 260.53418 226.042738 
L 261.203117 226.042738 
L 261.203117 225.919814 
L 261.473292 225.919814 
L 261.473292 225.551043 
L 262.384128 225.551043 
L 262.384128 225.42812 
L 263.198515 225.42812 
L 263.198515 225.182272 
L 263.358211 225.182272 
L 263.358211 224.690577 
L 263.798091 224.690577 
L 263.798091 224.44473 
L 264.200171 224.44473 
L 264.200171 224.321806 
L 265.944218 224.321806 
L 266.029823 223.584264 
L 266.201486 223.584264 
L 266.201486 223.215493 
L 266.344242 223.215493 
L 266.377908 222.846722 
L 266.477718 222.846722 
L 266.477718 222.600875 
L 266.868211 222.600875 
L 266.88341 222.355027 
L 267.299196 222.355027 
L 267.299196 222.232104 
L 267.624382 222.232104 
L 267.624382 221.986256 
L 268.53183 221.986256 
L 268.53183 221.740409 
L 269.494626 221.740409 
L 269.494626 221.494562 
L 270.616869 221.494562 
L 270.71699 221.125791 
L 271.125851 221.125791 
L 271.226717 220.511172 
L 271.861505 220.511172 
L 271.861505 220.388249 
L 272.913109 220.388249 
L 273.004739 219.404859 
L 273.175242 219.404859 
L 273.175242 219.036088 
L 273.516241 219.036088 
L 273.516241 218.913164 
L 274.675644 218.913164 
L 274.675644 218.790241 
L 274.90177 218.790241 
L 274.90177 218.667317 
L 277.070643 218.667317 
L 277.070643 218.175622 
L 277.85394 218.175622 
L 277.900502 217.683928 
L 277.978389 217.683928 
L 278.050488 217.43808 
L 278.158922 217.43808 
L 278.158922 217.315156 
L 279.36649 217.315156 
L 279.36649 217.192233 
L 280.855754 217.192233 
L 280.855754 217.069309 
L 281.723938 217.069309 
L 281.730507 216.577614 
L 281.931129 216.577614 
L 281.931129 216.454691 
L 282.23811 216.454691 
L 282.23811 216.331767 
L 283.947467 216.331767 
L 283.99538 215.840072 
L 284.253181 215.840072 
L 284.253181 215.717149 
L 284.855204 215.717149 
L 284.855204 215.348378 
L 285.122715 215.348378 
L 285.122715 215.10253 
L 285.841941 215.10253 
L 285.841941 214.979607 
L 286.083104 214.979607 
L 286.083104 214.856683 
L 286.722906 214.856683 
L 286.722906 214.733759 
L 286.877471 214.733759 
L 286.877471 214.610835 
L 287.023594 214.610835 
L 287.023594 214.487912 
L 287.462617 214.487912 
L 287.538218 214.119141 
L 287.641967 214.119141 
L 287.641967 213.996217 
L 289.338774 213.996217 
L 289.373844 213.75037 
L 289.788607 213.75037 
L 289.788607 213.627446 
L 291.988275 213.627446 
L 291.988275 213.504522 
L 293.61726 213.504522 
L 293.718025 213.135751 
L 294.952195 213.135751 
L 294.952195 212.889904 
L 295.25301 212.889904 
L 295.304834 212.521133 
L 296.298049 212.521133 
L 296.298049 212.398209 
L 296.470952 212.398209 
L 296.470952 212.275286 
L 297.706983 212.275286 
L 297.706983 212.152362 
L 298.120591 212.152362 
L 298.164462 211.783591 
L 301.350283 211.783591 
L 301.350283 211.660667 
L 302.726698 211.660667 
L 302.726698 211.537743 
L 305.517746 211.537743 
L 305.517746 211.41482 
L 306.355726 211.41482 
L 306.355726 211.291896 
L 307.200661 211.291896 
L 307.200661 211.168972 
L 307.774946 211.168972 
L 307.774946 211.046049 
L 307.962189 211.046049 
L 307.962189 210.923125 
L 308.649309 210.923125 
L 308.673099 210.677278 
L 309.818563 210.677278 
L 309.818563 210.554354 
L 310.474533 210.554354 
L 310.474533 210.43143 
L 311.179654 210.43143 
L 311.179654 210.308507 
L 312.304411 210.308507 
L 312.304411 210.185583 
L 313.95809 210.185583 
L 313.95809 210.062659 
L 333.168 210.062659 
L 333.168 210.062659 
" style="fill:none;stroke:#000080;stroke-linecap:square;stroke-width:1.5;"/>
   </g>
   <g id="line2d_44">
    <defs>
     <path d="M 0 6 
C 1.591219 6 3.117479 5.367802 4.242641 4.242641 
C 5.367802 3.117479 6 1.591219 6 0 
C 6 -1.591219 5.367802 -3.117479 4.242641 -4.242641 
C 3.117479 -5.367802 1.591219 -6 0 -6 
C -1.591219 -6 -3.117479 -5.367802 -4.242641 -4.242641 
C -5.367802 -3.117479 -6 -1.591219 -6 0 
C -6 1.591219 -5.367802 3.117479 -4.242641 4.242641 
C -3.117479 5.367802 -1.591219 6 0 6 
z
" id="mcd6fbd2733" style="stroke:#000080;stroke-width:1.5;"/>
    </defs>
    <g>
     <use style="fill-opacity:0;stroke:#000080;stroke-width:1.5;" x="105.464018" xlink:href="#mcd6fbd2733" y="282.218861"/>
     <use style="fill-opacity:0;stroke:#000080;stroke-width:1.5;" x="186.068777" xlink:href="#mcd6fbd2733" y="241.654046"/>
     <use style="fill-opacity:0;stroke:#000080;stroke-width:1.5;" x="256.022591" xlink:href="#mcd6fbd2733" y="226.657356"/>
     <use style="fill-opacity:0;stroke:#000080;stroke-width:1.5;" x="313.95809" xlink:href="#mcd6fbd2733" y="210.062659"/>
     <use style="fill-opacity:0;stroke:#000080;stroke-width:1.5;" x="333.168" xlink:href="#mcd6fbd2733" y="210.062659"/>
    </g>
   </g>
   <g id="line2d_45">
    <path style="fill:none;stroke:#000080;stroke-linecap:square;stroke-width:1.5;"/>
    <g/>
   </g>
   <g id="line2d_46">
    <path clip-path="url(#p940215e7ed)" d="M 254.011433 230.222143 
" style="fill:none;stroke:#000080;stroke-linecap:square;stroke-width:1.5;"/>
    <defs>
     <path d="M -12 12 
L 12 -12 
M -12 -12 
L 12 12 
" id="ma3937fce89" style="stroke:#000080;"/>
    </defs>
    <g clip-path="url(#p940215e7ed)">
     <use style="fill:#000080;stroke:#000080;" x="254.011433" xlink:href="#ma3937fce89" y="230.222143"/>
    </g>
   </g>
   <g id="line2d_47">
    <defs>
     <path d="M 0 1.5 
C 0.397805 1.5 0.77937 1.341951 1.06066 1.06066 
C 1.341951 0.77937 1.5 0.397805 1.5 0 
C 1.5 -0.397805 1.341951 -0.77937 1.06066 -1.06066 
C 0.77937 -1.341951 0.397805 -1.5 0 -1.5 
C -0.397805 -1.5 -0.77937 -1.341951 -1.06066 -1.06066 
C -1.341951 -0.77937 -1.5 -0.397805 -1.5 0 
C -1.5 0.397805 -1.341951 0.77937 -1.06066 1.06066 
C -0.77937 1.341951 -0.397805 1.5 0 1.5 
z
" id="mdb7b460e85" style="stroke:#ffa500;"/>
    </defs>
    <g>
     <use style="fill:#ffa500;stroke:#ffa500;" x="278.268146" xlink:href="#mdb7b460e85" y="240.79358"/>
     <use style="fill:#ffa500;stroke:#ffa500;" x="278.268146" xlink:href="#mdb7b460e85" y="240.79358"/>
    </g>
   </g>
   <g id="line2d_48">
    <path d="M -1 285.5378 
L 45.844 285.5378 
L 45.844 285.414876 
L 63.928026 285.414876 
L 63.928026 285.169029 
L 67.377281 285.169029 
L 67.377281 285.046105 
L 78.60845 285.046105 
L 78.60845 284.923182 
L 88.293717 284.923182 
L 88.293717 284.677334 
L 91.317037 284.677334 
L 91.317037 284.431487 
L 93.695229 284.431487 
L 93.695229 284.308563 
L 95.394822 284.308563 
L 95.394822 284.18564 
L 100.535381 284.18564 
L 100.535381 283.939792 
L 102.923591 283.939792 
L 102.923591 283.571021 
L 103.092108 283.571021 
L 103.092108 283.20225 
L 106.01506 283.20225 
L 106.062152 282.464708 
L 106.662891 282.464708 
L 106.662891 282.095937 
L 107.088985 282.095937 
L 107.088985 281.973013 
L 108.81561 281.973013 
L 108.81561 281.85009 
L 112.514373 281.85009 
L 112.514373 281.604242 
L 112.723111 281.604242 
L 112.723111 281.481319 
L 113.272818 281.481319 
L 113.272818 281.235471 
L 114.394701 281.235471 
L 114.394701 281.112548 
L 115.159395 281.112548 
L 115.228509 280.8667 
L 115.311081 280.8667 
L 115.406916 280.620853 
L 115.569971 280.620853 
L 115.569971 280.497929 
L 116.934349 280.497929 
L 116.934349 280.252082 
L 117.133064 280.252082 
L 117.133064 280.006234 
L 118.093572 280.006234 
L 118.140217 279.391616 
L 119.440629 279.391616 
L 119.440629 279.268692 
L 120.066125 279.268692 
L 120.076533 278.776998 
L 120.899307 278.776998 
L 120.899307 278.53115 
L 121.272134 278.53115 
L 121.272134 278.285303 
L 122.821039 278.285303 
L 122.821039 278.162379 
L 123.319295 278.162379 
L 123.319295 277.916532 
L 125.070745 277.916532 
L 125.070745 277.793608 
L 126.265455 277.793608 
L 126.265455 277.670684 
L 127.605507 277.670684 
L 127.605507 277.424837 
L 128.469703 277.424837 
L 128.469703 277.17899 
L 128.804823 277.17899 
L 128.804823 277.056066 
L 128.948245 277.056066 
L 128.948245 276.933142 
L 129.213212 276.933142 
L 129.213212 276.810219 
L 129.444017 276.810219 
L 129.444017 276.687295 
L 129.890654 276.687295 
L 129.984454 276.318524 
L 131.241138 276.318524 
L 131.241138 276.072677 
L 132.120354 276.072677 
L 132.120354 275.826829 
L 133.263855 275.826829 
L 133.287993 275.580982 
L 134.019937 275.580982 
L 134.019937 275.335135 
L 134.606202 275.335135 
L 134.606202 275.212211 
L 136.135658 275.212211 
L 136.135658 275.089287 
L 136.419439 275.089287 
L 136.419439 274.966363 
L 137.615247 274.966363 
L 137.615247 274.720516 
L 138.335064 274.720516 
L 138.335064 274.597592 
L 138.977507 274.597592 
L 138.977507 274.474669 
L 139.361243 274.474669 
L 139.361243 274.351745 
L 139.901559 274.351745 
L 139.901559 274.228821 
L 141.6217 274.228821 
L 141.6217 273.86005 
L 142.04135 273.86005 
L 142.04135 273.614203 
L 142.237365 273.614203 
L 142.237365 273.491279 
L 142.792932 273.491279 
L 142.792932 273.245432 
L 143.179826 273.245432 
L 143.179826 273.122508 
L 144.181133 273.122508 
L 144.181133 272.999585 
L 144.503183 272.999585 
L 144.503183 272.876661 
L 144.917686 272.876661 
L 144.917686 272.630814 
L 145.550852 272.630814 
L 145.550852 272.50789 
L 146.560619 272.50789 
L 146.580667 272.139119 
L 148.037642 272.139119 
L 148.135537 271.893271 
L 148.439911 271.893271 
L 148.439911 271.647424 
L 149.217261 271.647424 
L 149.217261 271.278653 
L 149.499468 271.278653 
L 149.499468 270.541111 
L 149.79559 270.541111 
L 149.79559 270.418187 
L 149.928023 270.418187 
L 149.928023 270.17234 
L 150.820583 270.17234 
L 150.831018 269.926493 
L 151.28227 269.926493 
L 151.353248 269.680645 
L 151.472573 269.680645 
L 151.472573 269.557721 
L 151.810884 269.557721 
L 151.810884 269.434798 
L 152.742559 269.434798 
L 152.742559 269.311874 
L 153.442118 269.311874 
L 153.442118 269.18895 
L 153.590822 269.18895 
L 153.590822 268.943103 
L 154.608385 268.943103 
L 154.608385 268.820179 
L 155.05197 268.820179 
L 155.05197 268.205561 
L 155.530748 268.205561 
L 155.530748 267.959714 
L 156.264769 267.959714 
L 156.264769 267.713866 
L 157.024591 267.713866 
L 157.024591 267.468019 
L 157.761537 267.468019 
L 157.855372 266.976324 
L 157.980842 266.976324 
L 157.980842 266.8534 
L 159.263338 266.8534 
L 159.263338 266.730477 
L 159.51063 266.730477 
L 159.53265 266.361706 
L 159.799871 266.361706 
L 159.799871 266.238782 
L 160.133979 266.238782 
L 160.206679 265.992935 
L 160.935618 265.992935 
L 160.935618 265.870011 
L 161.229579 265.870011 
L 161.229579 265.747087 
L 162.358477 265.747087 
L 162.358477 265.624164 
L 162.649384 265.624164 
L 162.649384 265.50124 
L 163.637054 265.50124 
L 163.637054 265.132469 
L 164.880896 265.132469 
L 164.880896 265.009545 
L 165.433113 265.009545 
L 165.433113 264.640774 
L 165.869127 264.640774 
L 165.942177 263.903232 
L 166.449916 263.903232 
L 166.449916 263.780308 
L 166.667853 263.780308 
L 166.667853 263.657385 
L 167.284213 263.657385 
L 167.284213 263.16569 
L 167.545882 263.16569 
L 167.545882 263.042766 
L 169.716397 263.042766 
L 169.716397 262.919843 
L 170.038999 262.919843 
L 170.038999 262.796919 
L 171.884031 262.796919 
L 171.884031 262.673995 
L 174.205029 262.673995 
L 174.205029 262.551072 
L 174.533014 262.551072 
L 174.533014 262.305224 
L 175.829237 262.305224 
L 175.899338 261.936453 
L 176.836552 261.936453 
L 176.836552 261.690606 
L 177.704921 261.690606 
L 177.704921 261.567682 
L 178.153365 261.567682 
L 178.153365 261.444758 
L 181.136593 261.444758 
L 181.136593 261.198911 
L 185.268735 261.198911 
L 185.268735 260.953064 
L 185.681767 260.953064 
L 185.681767 260.707216 
L 186.284718 260.707216 
L 186.284718 260.584293 
L 192.091751 260.584293 
L 192.186546 260.338445 
L 193.05621 260.338445 
L 193.082719 259.969674 
L 199.575422 259.969674 
L 199.575422 259.846751 
L 210.6658 259.846751 
L 210.6658 259.600903 
L 213.705846 259.600903 
L 213.705846 259.47798 
L 214.414655 259.47798 
L 214.522976 258.49459 
L 214.620165 258.49459 
L 214.728935 257.634124 
L 214.747088 257.634124 
L 214.85682 257.14243 
L 214.868095 257.14243 
L 214.972063 256.404887 
L 215.0105 256.404887 
L 215.061699 256.15904 
L 215.248641 256.15904 
L 215.248641 256.036116 
L 215.373423 256.036116 
L 215.431341 255.544422 
L 215.525516 255.544422 
L 215.525516 255.421498 
L 216.046609 255.421498 
L 216.046609 255.298574 
L 216.166217 255.298574 
L 216.166217 255.175651 
L 216.402695 255.175651 
L 216.402695 254.929803 
L 216.793745 254.929803 
L 216.793745 254.80688 
L 220.108133 254.80688 
L 220.108133 254.683956 
L 224.209852 254.683956 
L 224.209852 254.561032 
L 224.569138 254.561032 
L 224.569138 254.438109 
L 226.340324 254.438109 
L 226.374852 254.192261 
L 226.498078 254.192261 
L 226.501634 253.946414 
L 226.712802 253.946414 
L 226.736301 253.454719 
L 226.826073 253.454719 
L 226.870732 252.840101 
L 227.237825 252.840101 
L 227.237825 252.594253 
L 228.66603 252.594253 
L 228.66603 252.47133 
L 229.419854 252.47133 
L 229.419854 252.225482 
L 232.153498 252.225482 
L 232.153498 252.102559 
L 233.334136 252.102559 
L 233.389424 251.610864 
L 233.496607 251.610864 
L 233.496607 251.48794 
L 233.657417 251.48794 
L 233.657417 251.365016 
L 234.815661 251.365016 
L 234.815661 250.996245 
L 235.42613 250.996245 
L 235.42613 250.873322 
L 238.260281 250.873322 
L 238.339312 250.012856 
L 238.51882 250.012856 
L 238.51882 249.889932 
L 239.398893 249.889932 
L 239.398893 249.644085 
L 239.868411 249.644085 
L 239.868411 249.398238 
L 242.188866 249.398238 
L 242.207022 249.029467 
L 242.304081 249.029467 
L 242.304081 248.906543 
L 242.461453 248.906543 
L 242.461453 248.660695 
L 243.064938 248.660695 
L 243.064938 248.537772 
L 245.295786 248.537772 
L 245.308196 248.291924 
L 247.394282 248.291924 
L 247.394282 248.169001 
L 247.881755 248.169001 
L 247.960441 247.431459 
L 248.029946 247.431459 
L 248.029946 247.308535 
L 250.177384 247.308535 
L 250.177384 247.062688 
L 250.756022 247.062688 
L 250.788672 246.81684 
L 251.000116 246.81684 
L 251.000116 246.448069 
L 252.20223 246.448069 
L 252.263459 245.833451 
L 252.317596 245.833451 
L 252.317596 245.710527 
L 252.746651 245.710527 
L 252.746651 245.587603 
L 254.036287 245.587603 
L 254.059498 245.341756 
L 255.651946 245.341756 
L 255.74639 244.850061 
L 256.254146 244.850061 
L 256.254146 244.727138 
L 258.523696 244.727138 
L 258.559099 244.358367 
L 259.034603 244.358367 
L 259.034603 244.235443 
L 259.797636 244.235443 
L 259.825182 243.743748 
L 260.272545 243.743748 
L 260.272545 243.620824 
L 260.983637 243.620824 
L 261.020399 243.252053 
L 261.105976 243.252053 
L 261.105976 243.12913 
L 262.093061 243.12913 
L 262.093061 243.006206 
L 262.207779 243.006206 
L 262.207779 242.883282 
L 262.509315 242.883282 
L 262.509315 242.760359 
L 264.117749 242.760359 
L 264.148388 242.391588 
L 265.101896 242.391588 
L 265.101896 242.268664 
L 265.940282 242.268664 
L 265.940282 242.14574 
L 266.767569 242.14574 
L 266.817102 241.776969 
L 267.567234 241.776969 
L 267.567234 241.654046 
L 268.355327 241.654046 
L 268.355327 241.531122 
L 270.456534 241.531122 
L 270.509508 241.162351 
L 271.778346 241.162351 
L 271.778346 241.039427 
L 272.913998 241.039427 
L 272.913998 240.916503 
L 278.268146 240.916503 
L 278.268146 240.79358 
L 333.168 240.79358 
L 333.168 240.79358 
" style="fill:none;stroke:#ffa500;stroke-linecap:square;stroke-width:1.5;"/>
   </g>
   <g id="line2d_49">
    <defs>
     <path d="M 0 -6 
L -1.347084 -1.854102 
L -5.706339 -1.854102 
L -2.179628 0.708204 
L -3.526712 4.854102 
L -0 2.291796 
L 3.526712 4.854102 
L 2.179628 0.708204 
L 5.706339 -1.854102 
L 1.347084 -1.854102 
z
" id="m335ddf3ef2" style="stroke:#ffa500;stroke-linejoin:bevel;stroke-width:1.5;"/>
    </defs>
    <g>
     <use style="fill-opacity:0;stroke:#ffa500;stroke-linejoin:bevel;stroke-width:1.5;" x="78.60845" xlink:href="#m335ddf3ef2" y="285.046105"/>
     <use style="fill-opacity:0;stroke:#ffa500;stroke-linejoin:bevel;stroke-width:1.5;" x="149.928023" xlink:href="#m335ddf3ef2" y="270.17234"/>
     <use style="fill-opacity:0;stroke:#ffa500;stroke-linejoin:bevel;stroke-width:1.5;" x="233.657417" xlink:href="#m335ddf3ef2" y="251.365016"/>
     <use style="fill-opacity:0;stroke:#ffa500;stroke-linejoin:bevel;stroke-width:1.5;" x="278.268146" xlink:href="#m335ddf3ef2" y="240.79358"/>
     <use style="fill-opacity:0;stroke:#ffa500;stroke-linejoin:bevel;stroke-width:1.5;" x="278.268146" xlink:href="#m335ddf3ef2" y="240.79358"/>
     <use style="fill-opacity:0;stroke:#ffa500;stroke-linejoin:bevel;stroke-width:1.5;" x="333.168" xlink:href="#m335ddf3ef2" y="240.79358"/>
    </g>
   </g>
   <g id="line2d_50">
    <path style="fill:none;stroke:#ffa500;stroke-linecap:square;stroke-width:1.5;"/>
    <g/>
   </g>
   <g id="line2d_51">
    <path clip-path="url(#p940215e7ed)" d="M 214.437482 259.355056 
" style="fill:none;stroke:#ffa500;stroke-linecap:square;stroke-width:1.5;"/>
    <defs>
     <path d="M -12 12 
L 12 -12 
M -12 -12 
L 12 12 
" id="mc0f5201a34" style="stroke:#ffa500;"/>
    </defs>
    <g clip-path="url(#p940215e7ed)">
     <use style="fill:#ffa500;stroke:#ffa500;" x="214.437482" xlink:href="#mc0f5201a34" y="259.355056"/>
    </g>
   </g>
   <g id="line2d_52">
    <defs>
     <path d="M 0 1.5 
C 0.397805 1.5 0.77937 1.341951 1.06066 1.06066 
C 1.341951 0.77937 1.5 0.397805 1.5 0 
C 1.5 -0.397805 1.341951 -0.77937 1.06066 -1.06066 
C 0.77937 -1.341951 0.397805 -1.5 0 -1.5 
C -0.397805 -1.5 -0.77937 -1.341951 -1.06066 -1.06066 
C -1.341951 -0.77937 -1.5 -0.397805 -1.5 0 
C -1.5 0.397805 -1.341951 0.77937 -1.06066 1.06066 
C -0.77937 1.341951 -0.397805 1.5 0 1.5 
z
" id="me9dad40faf" style="stroke:#00bfbf;"/>
    </defs>
    <g>
     <use style="fill:#00bfbf;stroke:#00bfbf;" x="238.51828" xlink:href="#me9dad40faf" y="230.959685"/>
     <use style="fill:#00bfbf;stroke:#00bfbf;" x="238.51828" xlink:href="#me9dad40faf" y="230.959685"/>
    </g>
   </g>
   <g id="line2d_53">
    <path d="M -1 285.291953 
L 62.207729 285.291953 
L 62.207729 285.046105 
L 70.988122 285.046105 
L 70.988122 284.923182 
L 96.861245 284.923182 
L 96.861245 284.677334 
L 97.988135 284.677334 
L 97.988135 284.431487 
L 101.296625 284.431487 
L 101.296625 284.308563 
L 105.439655 284.308563 
L 105.439655 284.18564 
L 107.461475 284.18564 
L 107.461475 284.062716 
L 108.694987 284.062716 
L 108.694987 283.693945 
L 109.713291 283.693945 
L 109.713291 283.448098 
L 110.108017 283.448098 
L 110.108017 283.079327 
L 112.105684 283.079327 
L 112.105684 282.956403 
L 112.270327 282.956403 
L 112.270327 282.833479 
L 113.639848 282.833479 
L 113.639848 282.587632 
L 114.014017 282.587632 
L 114.014017 282.464708 
L 114.380214 282.464708 
L 114.380214 282.095937 
L 114.610551 282.095937 
L 114.681903 281.604242 
L 115.324805 281.604242 
L 115.324805 281.235471 
L 115.811691 281.235471 
L 115.811691 280.989624 
L 115.944525 280.989624 
L 115.944525 280.8667 
L 116.31109 280.8667 
L 116.31109 280.620853 
L 116.478659 280.620853 
L 116.478659 280.375005 
L 116.619184 280.375005 
L 116.619184 280.252082 
L 117.679938 280.252082 
L 117.679938 280.006234 
L 117.799138 280.006234 
L 117.799138 279.760387 
L 118.302485 279.760387 
L 118.302485 279.637463 
L 118.6903 279.637463 
L 118.6903 279.51454 
L 119.46221 279.51454 
L 119.46221 279.391616 
L 119.993093 279.391616 
L 119.993093 279.268692 
L 120.180267 279.268692 
L 120.180267 279.145769 
L 120.958715 279.145769 
L 120.958715 278.899921 
L 121.174803 278.899921 
L 121.242993 278.53115 
L 121.465158 278.53115 
L 121.465158 278.408227 
L 121.598997 278.408227 
L 121.598997 278.285303 
L 122.068661 278.285303 
L 122.068661 278.039456 
L 122.516807 278.039456 
L 122.516807 277.916532 
L 123.293428 277.916532 
L 123.293428 277.670684 
L 123.430938 277.670684 
L 123.430938 277.424837 
L 123.601292 277.424837 
L 123.601292 277.17899 
L 123.820259 277.17899 
L 123.820259 276.810219 
L 124.225494 276.810219 
L 124.282613 276.564371 
L 124.444771 276.564371 
L 124.444771 276.318524 
L 124.629381 276.318524 
L 124.629381 276.072677 
L 124.859359 276.072677 
L 124.859359 275.949753 
L 125.697245 275.949753 
L 125.742202 275.580982 
L 125.876373 275.580982 
L 125.876373 275.335135 
L 126.126983 275.335135 
L 126.126983 275.212211 
L 126.272712 275.212211 
L 126.272712 275.089287 
L 126.815481 275.089287 
L 126.82251 274.84344 
L 127.66583 274.84344 
L 127.66583 274.597592 
L 127.891824 274.597592 
L 127.891824 274.351745 
L 128.315773 274.351745 
L 128.315773 274.228821 
L 128.463316 274.228821 
L 128.463316 274.105898 
L 129.164224 274.105898 
L 129.188735 273.491279 
L 129.624067 273.491279 
L 129.624067 273.368356 
L 130.06611 273.368356 
L 130.06611 273.122508 
L 130.354613 273.122508 
L 130.354613 272.876661 
L 130.694545 272.876661 
L 130.694545 272.753737 
L 130.911949 272.753737 
L 130.928559 272.384966 
L 131.246571 272.384966 
L 131.327867 271.770348 
L 131.462512 271.770348 
L 131.462512 271.278653 
L 131.638643 271.278653 
L 131.728677 271.032806 
L 131.896885 271.032806 
L 131.896885 270.909882 
L 132.213043 270.909882 
L 132.274559 270.418187 
L 132.376599 270.418187 
L 132.376599 270.049416 
L 132.548689 270.049416 
L 132.548689 269.680645 
L 132.877907 269.680645 
L 132.897659 269.18895 
L 133.098812 269.18895 
L 133.098812 268.820179 
L 133.365008 268.820179 
L 133.365008 268.697256 
L 133.522769 268.697256 
L 133.522769 268.451408 
L 133.959731 268.451408 
L 134.043037 267.83679 
L 134.176407 267.83679 
L 134.176407 267.590943 
L 134.385861 267.590943 
L 134.385861 266.976324 
L 134.650825 266.976324 
L 134.659735 266.730477 
L 135.366576 266.730477 
L 135.366576 266.607553 
L 135.485853 266.607553 
L 135.502825 266.238782 
L 136.1193 266.238782 
L 136.1193 265.992935 
L 136.249733 265.992935 
L 136.249733 265.50124 
L 136.651074 265.50124 
L 136.651074 265.255393 
L 137.236043 265.255393 
L 137.236043 265.132469 
L 137.524998 265.132469 
L 137.524998 265.009545 
L 138.291849 265.009545 
L 138.291849 264.51785 
L 138.424747 264.51785 
L 138.424747 264.394927 
L 138.778873 264.394927 
L 138.782377 264.149079 
L 139.67017 264.149079 
L 139.696773 263.903232 
L 139.88842 263.903232 
L 139.88842 263.780308 
L 140.265422 263.780308 
L 140.265422 263.657385 
L 140.998571 263.657385 
L 140.998571 263.534461 
L 141.127463 263.534461 
L 141.188502 263.16569 
L 141.373344 263.16569 
L 141.391419 262.919843 
L 141.571124 262.919843 
L 141.571124 262.796919 
L 142.294594 262.796919 
L 142.294594 262.551072 
L 142.493407 262.551072 
L 142.586342 262.059377 
L 142.636822 262.059377 
L 142.636822 261.936453 
L 143.314957 261.936453 
L 143.314957 261.813529 
L 143.473058 261.813529 
L 143.473058 261.567682 
L 143.687769 261.567682 
L 143.687769 261.198911 
L 143.964759 261.198911 
L 143.964759 260.953064 
L 144.417555 260.953064 
L 144.478043 260.584293 
L 144.573382 260.584293 
L 144.678145 259.600903 
L 144.727809 259.600903 
L 144.834103 258.863361 
L 144.969109 258.863361 
L 144.969109 258.740437 
L 145.103063 258.740437 
L 145.103063 258.617514 
L 145.303255 258.617514 
L 145.303255 258.49459 
L 145.529566 258.49459 
L 145.529566 258.125819 
L 146.159239 258.125819 
L 146.257064 257.265353 
L 146.304637 257.265353 
L 146.304637 257.019506 
L 146.64067 257.019506 
L 146.678342 256.15904 
L 146.998527 256.15904 
L 146.998527 256.036116 
L 147.29151 256.036116 
L 147.29151 255.790269 
L 147.667579 255.790269 
L 147.725995 255.421498 
L 148.041732 255.421498 
L 148.115188 254.929803 
L 148.196439 254.929803 
L 148.307536 254.683956 
L 148.461875 254.683956 
L 148.461875 254.561032 
L 148.668156 254.561032 
L 148.668156 254.438109 
L 148.908972 254.438109 
L 148.908972 254.069337 
L 149.109988 254.069337 
L 149.159877 253.700566 
L 149.318175 253.700566 
L 149.318175 253.577643 
L 149.701162 253.577643 
L 149.701162 253.331795 
L 149.883992 253.331795 
L 149.883992 253.208872 
L 150.001159 253.208872 
L 150.001159 253.085948 
L 150.22412 253.085948 
L 150.22412 252.963024 
L 151.178657 252.963024 
L 151.239881 252.717177 
L 151.464197 252.717177 
L 151.464197 252.47133 
L 151.725279 252.47133 
L 151.725279 252.348406 
L 151.842057 252.348406 
L 151.917296 251.610864 
L 152.202161 251.610864 
L 152.202161 251.48794 
L 152.625497 251.48794 
L 152.625497 251.119169 
L 153.136233 251.119169 
L 153.136233 250.996245 
L 153.30567 250.996245 
L 153.30567 250.627474 
L 154.394946 250.627474 
L 154.394946 250.504551 
L 155.889375 250.504551 
L 155.983673 249.889932 
L 156.024847 249.889932 
L 156.042829 249.398238 
L 156.426225 249.398238 
L 156.426225 249.275314 
L 156.56502 249.275314 
L 156.56502 249.15239 
L 156.81599 249.15239 
L 156.90413 248.783619 
L 156.984531 248.783619 
L 156.984531 248.660695 
L 157.171885 248.660695 
L 157.175491 248.291924 
L 158.056371 248.291924 
L 158.056371 248.169001 
L 158.256175 248.169001 
L 158.256175 247.677306 
L 158.52939 247.677306 
L 158.52939 247.554382 
L 158.678708 247.554382 
L 158.678708 247.185611 
L 159.024313 247.185611 
L 159.125473 246.81684 
L 159.830795 246.81684 
L 159.830795 246.570993 
L 160.45973 246.570993 
L 160.45973 246.448069 
L 162.04718 246.448069 
L 162.053516 246.079298 
L 162.280957 246.079298 
L 162.280957 245.956374 
L 163.709528 245.956374 
L 163.709528 245.710527 
L 164.132457 245.710527 
L 164.132457 245.46468 
L 164.919238 245.46468 
L 164.919238 245.341756 
L 165.045162 245.341756 
L 165.045162 245.218832 
L 166.042205 245.218832 
L 166.094506 244.358367 
L 166.206452 244.358367 
L 166.206452 244.112519 
L 166.396578 244.112519 
L 166.396578 243.620824 
L 167.420513 243.620824 
L 167.466148 243.006206 
L 167.684696 243.006206 
L 167.684696 242.760359 
L 168.895743 242.760359 
L 168.895743 242.637435 
L 169.291081 242.637435 
L 169.291081 242.268664 
L 169.558646 242.268664 
L 169.558646 242.14574 
L 169.762113 242.14574 
L 169.762113 242.022817 
L 170.01282 242.022817 
L 170.051505 241.654046 
L 170.754088 241.654046 
L 170.754088 241.531122 
L 170.868804 241.531122 
L 170.868804 241.408198 
L 171.234973 241.408198 
L 171.234973 241.285275 
L 171.524793 241.285275 
L 171.600775 240.79358 
L 174.286503 240.79358 
L 174.286503 240.424809 
L 176.79054 240.424809 
L 176.79054 240.301885 
L 176.945721 240.301885 
L 176.945721 240.178961 
L 177.491723 240.178961 
L 177.491723 240.056038 
L 178.779197 240.056038 
L 178.832807 239.81019 
L 179.082258 239.81019 
L 179.082258 239.687267 
L 179.419324 239.687267 
L 179.419324 239.564343 
L 179.813464 239.564343 
L 179.813464 239.441419 
L 180.015154 239.441419 
L 180.038054 239.195572 
L 180.476141 239.195572 
L 180.476141 239.072648 
L 180.903641 239.072648 
L 180.903641 238.949725 
L 181.53186 238.949725 
L 181.53186 238.826801 
L 182.084677 238.826801 
L 182.084677 238.703877 
L 182.941363 238.703877 
L 182.983458 238.335106 
L 183.451036 238.335106 
L 183.451036 238.212182 
L 184.324434 238.212182 
L 184.324434 238.089259 
L 185.18483 238.089259 
L 185.18483 237.966335 
L 186.487499 237.966335 
L 186.487499 237.720488 
L 187.953139 237.720488 
L 187.953139 237.597564 
L 188.200244 237.597564 
L 188.200244 237.47464 
L 188.547422 237.47464 
L 188.547422 237.351717 
L 189.429364 237.351717 
L 189.429364 237.228793 
L 189.542367 237.228793 
L 189.546572 236.982946 
L 189.732927 236.982946 
L 189.732927 236.860022 
L 190.431194 236.860022 
L 190.431194 236.737098 
L 190.761542 236.737098 
L 190.850053 236.491251 
L 191.599229 236.491251 
L 191.599229 236.368327 
L 191.972477 236.368327 
L 192.076611 235.999556 
L 192.148094 235.999556 
L 192.148094 235.876633 
L 192.614802 235.876633 
L 192.721055 235.630785 
L 193.113049 235.630785 
L 193.113049 235.384938 
L 195.639207 235.384938 
L 195.639207 235.262014 
L 196.876056 235.262014 
L 196.876056 234.893243 
L 197.504678 234.893243 
L 197.504678 234.770319 
L 197.847661 234.770319 
L 197.847661 234.647396 
L 198.543348 234.647396 
L 198.543348 234.524472 
L 199.85736 234.524472 
L 199.85736 234.401548 
L 200.611938 234.401548 
L 200.611938 234.278625 
L 201.088665 234.278625 
L 201.088665 234.155701 
L 201.267712 234.155701 
L 201.267712 234.032777 
L 201.915858 234.032777 
L 201.915858 233.909854 
L 202.40706 233.909854 
L 202.40706 233.664006 
L 203.684502 233.664006 
L 203.684502 233.541083 
L 204.078756 233.541083 
L 204.078756 233.418159 
L 204.469389 233.418159 
L 204.469389 232.926464 
L 204.621851 232.926464 
L 204.621851 232.80354 
L 206.585325 232.80354 
L 206.628009 232.557693 
L 207.293215 232.557693 
L 207.293215 232.434769 
L 207.873946 232.434769 
L 207.873946 232.311846 
L 208.03737 232.311846 
L 208.03737 232.188922 
L 208.222707 232.188922 
L 208.222707 232.065998 
L 208.989815 232.065998 
L 208.989815 231.943075 
L 213.27856 231.943075 
L 213.27856 231.820151 
L 213.733125 231.820151 
L 213.733125 231.697227 
L 222.077868 231.697227 
L 222.077868 231.574304 
L 224.151212 231.574304 
L 224.151212 231.45138 
L 226.856471 231.45138 
L 226.856471 231.328456 
L 230.59147 231.328456 
L 230.59147 231.205533 
L 238.089621 231.205533 
L 238.089621 231.082609 
L 238.51828 231.082609 
L 238.51828 230.959685 
L 333.168 230.959685 
L 333.168 230.959685 
" style="fill:none;stroke:#00bfbf;stroke-linecap:square;stroke-width:1.5;"/>
   </g>
   <g id="line2d_54">
    <defs>
     <path d="M 0 -6 
L -5.706339 -1.854102 
L -3.526712 4.854102 
L 3.526712 4.854102 
L 5.706339 -1.854102 
z
" id="medea01a2a9" style="stroke:#00bfbf;stroke-linejoin:miter;stroke-width:1.5;"/>
    </defs>
    <g>
     <use style="fill-opacity:0;stroke:#00bfbf;stroke-linejoin:miter;stroke-width:1.5;" x="70.988122" xlink:href="#medea01a2a9" y="285.046105"/>
     <use style="fill-opacity:0;stroke:#00bfbf;stroke-linejoin:miter;stroke-width:1.5;" x="156.024847" xlink:href="#medea01a2a9" y="249.889932"/>
     <use style="fill-opacity:0;stroke:#00bfbf;stroke-linejoin:miter;stroke-width:1.5;" x="213.733125" xlink:href="#medea01a2a9" y="231.697227"/>
     <use style="fill-opacity:0;stroke:#00bfbf;stroke-linejoin:miter;stroke-width:1.5;" x="238.51828" xlink:href="#medea01a2a9" y="230.959685"/>
     <use style="fill-opacity:0;stroke:#00bfbf;stroke-linejoin:miter;stroke-width:1.5;" x="238.51828" xlink:href="#medea01a2a9" y="230.959685"/>
     <use style="fill-opacity:0;stroke:#00bfbf;stroke-linejoin:miter;stroke-width:1.5;" x="333.168" xlink:href="#medea01a2a9" y="230.959685"/>
    </g>
   </g>
   <g id="line2d_55">
    <path style="fill:none;stroke:#00bfbf;stroke-linecap:square;stroke-width:1.5;"/>
    <g/>
   </g>
   <g id="line2d_56">
    <path clip-path="url(#p940215e7ed)" d="M 174.855287 240.424809 
" style="fill:none;stroke:#00bfbf;stroke-linecap:square;stroke-width:1.5;"/>
    <defs>
     <path d="M -12 12 
L 12 -12 
M -12 -12 
L 12 12 
" id="m4202ce6716" style="stroke:#00bfbf;"/>
    </defs>
    <g clip-path="url(#p940215e7ed)">
     <use style="fill:#00bfbf;stroke:#00bfbf;" x="174.855287" xlink:href="#m4202ce6716" y="240.424809"/>
    </g>
   </g>
   <g id="line2d_57">
    <path d="M 333.168 240.79358 
L 363.64328 289.176341 
" style="fill:none;stroke:#ffa500;stroke-linecap:square;stroke-width:1.5;"/>
    <g>
     <use style="fill-opacity:0;stroke:#ffa500;stroke-linejoin:bevel;stroke-width:1.5;" x="333.168" xlink:href="#m335ddf3ef2" y="240.79358"/>
     <use style="fill-opacity:0;stroke:#ffa500;stroke-linejoin:bevel;stroke-width:1.5;" x="363.64328" xlink:href="#m335ddf3ef2" y="289.176341"/>
    </g>
   </g>
   <g id="line2d_58">
    <path d="M 333.168 230.959685 
L 363.64328 197.917799 
" style="fill:none;stroke:#00bfbf;stroke-linecap:square;stroke-width:1.5;"/>
    <g>
     <use style="fill-opacity:0;stroke:#00bfbf;stroke-linejoin:miter;stroke-width:1.5;" x="333.168" xlink:href="#medea01a2a9" y="230.959685"/>
     <use style="fill-opacity:0;stroke:#00bfbf;stroke-linejoin:miter;stroke-width:1.5;" x="363.64328" xlink:href="#medea01a2a9" y="197.917799"/>
    </g>
   </g>
   <g id="line2d_59">
    <path d="M 333.168 210.062659 
L 363.64328 106.659258 
" style="fill:none;stroke:#000080;stroke-linecap:square;stroke-width:1.5;"/>
    <g>
     <use style="fill-opacity:0;stroke:#000080;stroke-width:1.5;" x="333.168" xlink:href="#mcd6fbd2733" y="210.062659"/>
     <use style="fill-opacity:0;stroke:#000080;stroke-width:1.5;" x="363.64328" xlink:href="#mcd6fbd2733" y="106.659258"/>
    </g>
   </g>
   <g id="line2d_60">
    <path d="M 333.168 294.88 
L 333.168 9.697057 
" style="fill:none;stroke:#000000;stroke-linecap:square;stroke-width:1.5;"/>
   </g>
   <g id="patch_3">
    <path d="M 56.12 294.88 
L 56.12 6.845228 
" style="fill:none;stroke:#000000;stroke-linecap:square;stroke-linejoin:miter;stroke-width:0.8;"/>
   </g>
   <g id="patch_4">
    <path d="M 333.168 294.88 
L 333.168 6.845228 
" style="fill:none;stroke:#000000;stroke-linecap:square;stroke-linejoin:miter;stroke-width:0.8;"/>
   </g>
   <g id="patch_5">
    <path d="M 56.12 294.88 
L 333.168 294.88 
" style="fill:none;stroke:#000000;stroke-linecap:square;stroke-linejoin:miter;stroke-width:0.8;"/>
   </g>
   <g id="patch_6">
    <path d="M 56.12 6.845228 
L 333.168 6.845228 
" style="fill:none;stroke:#000000;stroke-linecap:square;stroke-linejoin:miter;stroke-width:0.8;"/>
   </g>
   <g id="text_13">
    <!-- MOEAD -->
    <defs>
     <path d="M 9.8125 72.90625 
L 24.515625 72.90625 
L 43.109375 23.296875 
L 61.8125 72.90625 
L 76.515625 72.90625 
L 76.515625 0 
L 66.890625 0 
L 66.890625 64.015625 
L 48.09375 14.015625 
L 38.1875 14.015625 
L 19.390625 64.015625 
L 19.390625 0 
L 9.8125 0 
z
" id="DejaVuSans-4d"/>
     <path d="M 39.40625 66.21875 
Q 28.65625 66.21875 22.328125 58.203125 
Q 16.015625 50.203125 16.015625 36.375 
Q 16.015625 22.609375 22.328125 14.59375 
Q 28.65625 6.59375 39.40625 6.59375 
Q 50.140625 6.59375 56.421875 14.59375 
Q 62.703125 22.609375 62.703125 36.375 
Q 62.703125 50.203125 56.421875 58.203125 
Q 50.140625 66.21875 39.40625 66.21875 
z
M 39.40625 74.21875 
Q 54.734375 74.21875 63.90625 63.9375 
Q 73.09375 53.65625 73.09375 36.375 
Q 73.09375 19.140625 63.90625 8.859375 
Q 54.734375 -1.421875 39.40625 -1.421875 
Q 24.03125 -1.421875 14.8125 8.828125 
Q 5.609375 19.09375 5.609375 36.375 
Q 5.609375 53.65625 14.8125 63.9375 
Q 24.03125 74.21875 39.40625 74.21875 
z
" id="DejaVuSans-4f"/>
     <path d="M 9.8125 72.90625 
L 55.90625 72.90625 
L 55.90625 64.59375 
L 19.671875 64.59375 
L 19.671875 43.015625 
L 54.390625 43.015625 
L 54.390625 34.71875 
L 19.671875 34.71875 
L 19.671875 8.296875 
L 56.78125 8.296875 
L 56.78125 0 
L 9.8125 0 
z
" id="DejaVuSans-45"/>
     <path d="M 34.1875 63.1875 
L 20.796875 26.90625 
L 47.609375 26.90625 
z
M 28.609375 72.90625 
L 39.796875 72.90625 
L 67.578125 0 
L 57.328125 0 
L 50.6875 18.703125 
L 17.828125 18.703125 
L 11.1875 0 
L 0.78125 0 
z
" id="DejaVuSans-41"/>
     <path d="M 19.671875 64.796875 
L 19.671875 8.109375 
L 31.59375 8.109375 
Q 46.6875 8.109375 53.6875 14.9375 
Q 60.6875 21.78125 60.6875 36.53125 
Q 60.6875 51.171875 53.6875 57.984375 
Q 46.6875 64.796875 31.59375 64.796875 
z
M 9.8125 72.90625 
L 30.078125 72.90625 
Q 51.265625 72.90625 61.171875 64.09375 
Q 71.09375 55.28125 71.09375 36.53125 
Q 71.09375 17.671875 61.125 8.828125 
Q 51.171875 0 30.078125 0 
L 9.8125 0 
z
" id="DejaVuSans-44"/>
    </defs>
    <g transform="translate(369.18424 293.867279)scale(0.17 -0.17)">
     <use xlink:href="#DejaVuSans-4d"/>
     <use x="86.279297" xlink:href="#DejaVuSans-4f"/>
     <use x="164.990234" xlink:href="#DejaVuSans-45"/>
     <use x="228.173828" xlink:href="#DejaVuSans-41"/>
     <use x="296.582031" xlink:href="#DejaVuSans-44"/>
    </g>
   </g>
   <g id="text_14">
    <!-- SPEA2 -->
    <defs>
     <path d="M 53.515625 70.515625 
L 53.515625 60.890625 
Q 47.90625 63.578125 42.921875 64.890625 
Q 37.9375 66.21875 33.296875 66.21875 
Q 25.25 66.21875 20.875 63.09375 
Q 16.5 59.96875 16.5 54.203125 
Q 16.5 49.359375 19.40625 46.890625 
Q 22.3125 44.4375 30.421875 42.921875 
L 36.375 41.703125 
Q 47.40625 39.59375 52.65625 34.296875 
Q 57.90625 29 57.90625 20.125 
Q 57.90625 9.515625 50.796875 4.046875 
Q 43.703125 -1.421875 29.984375 -1.421875 
Q 24.8125 -1.421875 18.96875 -0.25 
Q 13.140625 0.921875 6.890625 3.21875 
L 6.890625 13.375 
Q 12.890625 10.015625 18.65625 8.296875 
Q 24.421875 6.59375 29.984375 6.59375 
Q 38.421875 6.59375 43.015625 9.90625 
Q 47.609375 13.234375 47.609375 19.390625 
Q 47.609375 24.75 44.3125 27.78125 
Q 41.015625 30.8125 33.5 32.328125 
L 27.484375 33.5 
Q 16.453125 35.6875 11.515625 40.375 
Q 6.59375 45.0625 6.59375 53.421875 
Q 6.59375 63.09375 13.40625 68.65625 
Q 20.21875 74.21875 32.171875 74.21875 
Q 37.3125 74.21875 42.625 73.28125 
Q 47.953125 72.359375 53.515625 70.515625 
z
" id="DejaVuSans-53"/>
     <path d="M 19.671875 64.796875 
L 19.671875 37.40625 
L 32.078125 37.40625 
Q 38.96875 37.40625 42.71875 40.96875 
Q 46.484375 44.53125 46.484375 51.125 
Q 46.484375 57.671875 42.71875 61.234375 
Q 38.96875 64.796875 32.078125 64.796875 
z
M 9.8125 72.90625 
L 32.078125 72.90625 
Q 44.34375 72.90625 50.609375 67.359375 
Q 56.890625 61.8125 56.890625 51.125 
Q 56.890625 40.328125 50.609375 34.8125 
Q 44.34375 29.296875 32.078125 29.296875 
L 19.671875 29.296875 
L 19.671875 0 
L 9.8125 0 
z
" id="DejaVuSans-50"/>
    </defs>
    <g transform="translate(369.18424 202.608737)scale(0.17 -0.17)">
     <use xlink:href="#DejaVuSans-53"/>
     <use x="63.476562" xlink:href="#DejaVuSans-50"/>
     <use x="123.779297" xlink:href="#DejaVuSans-45"/>
     <use x="186.962891" xlink:href="#DejaVuSans-41"/>
     <use x="255.371094" xlink:href="#DejaVuSans-32"/>
    </g>
   </g>
   <g id="text_15">
    <!-- GDE3 -->
    <defs>
     <path d="M 59.515625 10.40625 
L 59.515625 29.984375 
L 43.40625 29.984375 
L 43.40625 38.09375 
L 69.28125 38.09375 
L 69.28125 6.78125 
Q 63.578125 2.734375 56.6875 0.65625 
Q 49.8125 -1.421875 42 -1.421875 
Q 24.90625 -1.421875 15.25 8.5625 
Q 5.609375 18.5625 5.609375 36.375 
Q 5.609375 54.25 15.25 64.234375 
Q 24.90625 74.21875 42 74.21875 
Q 49.125 74.21875 55.546875 72.453125 
Q 61.96875 70.703125 67.390625 67.28125 
L 67.390625 56.78125 
Q 61.921875 61.421875 55.765625 63.765625 
Q 49.609375 66.109375 42.828125 66.109375 
Q 29.4375 66.109375 22.71875 58.640625 
Q 16.015625 51.171875 16.015625 36.375 
Q 16.015625 21.625 22.71875 14.15625 
Q 29.4375 6.6875 42.828125 6.6875 
Q 48.046875 6.6875 52.140625 7.59375 
Q 56.25 8.5 59.515625 10.40625 
z
" id="DejaVuSans-47"/>
     <path d="M 40.578125 39.3125 
Q 47.65625 37.796875 51.625 33 
Q 55.609375 28.21875 55.609375 21.1875 
Q 55.609375 10.40625 48.1875 4.484375 
Q 40.765625 -1.421875 27.09375 -1.421875 
Q 22.515625 -1.421875 17.65625 -0.515625 
Q 12.796875 0.390625 7.625 2.203125 
L 7.625 11.71875 
Q 11.71875 9.328125 16.59375 8.109375 
Q 21.484375 6.890625 26.8125 6.890625 
Q 36.078125 6.890625 40.9375 10.546875 
Q 45.796875 14.203125 45.796875 21.1875 
Q 45.796875 27.640625 41.28125 31.265625 
Q 36.765625 34.90625 28.71875 34.90625 
L 20.21875 34.90625 
L 20.21875 43.015625 
L 29.109375 43.015625 
Q 36.375 43.015625 40.234375 45.921875 
Q 44.09375 48.828125 44.09375 54.296875 
Q 44.09375 59.90625 40.109375 62.90625 
Q 36.140625 65.921875 28.71875 65.921875 
Q 24.65625 65.921875 20.015625 65.03125 
Q 15.375 64.15625 9.8125 62.3125 
L 9.8125 71.09375 
Q 15.4375 72.65625 20.34375 73.4375 
Q 25.25 74.21875 29.59375 74.21875 
Q 40.828125 74.21875 47.359375 69.109375 
Q 53.90625 64.015625 53.90625 55.328125 
Q 53.90625 49.265625 50.4375 45.09375 
Q 46.96875 40.921875 40.578125 39.3125 
z
" id="DejaVuSans-33"/>
    </defs>
    <g transform="translate(369.18424 111.350195)scale(0.17 -0.17)">
     <use xlink:href="#DejaVuSans-47"/>
     <use x="77.490234" xlink:href="#DejaVuSans-44"/>
     <use x="154.492188" xlink:href="#DejaVuSans-45"/>
     <use x="217.675781" xlink:href="#DejaVuSans-33"/>
    </g>
   </g>
   <g id="text_16">
    <!-- best 2016 -->
    <defs>
     <path d="M 48.6875 27.296875 
Q 48.6875 37.203125 44.609375 42.84375 
Q 40.53125 48.484375 33.40625 48.484375 
Q 26.265625 48.484375 22.1875 42.84375 
Q 18.109375 37.203125 18.109375 27.296875 
Q 18.109375 17.390625 22.1875 11.75 
Q 26.265625 6.109375 33.40625 6.109375 
Q 40.53125 6.109375 44.609375 11.75 
Q 48.6875 17.390625 48.6875 27.296875 
z
M 18.109375 46.390625 
Q 20.953125 51.265625 25.265625 53.625 
Q 29.59375 56 35.59375 56 
Q 45.5625 56 51.78125 48.09375 
Q 58.015625 40.1875 58.015625 27.296875 
Q 58.015625 14.40625 51.78125 6.484375 
Q 45.5625 -1.421875 35.59375 -1.421875 
Q 29.59375 -1.421875 25.265625 0.953125 
Q 20.953125 3.328125 18.109375 8.203125 
L 18.109375 0 
L 9.078125 0 
L 9.078125 75.984375 
L 18.109375 75.984375 
z
" id="DejaVuSans-62"/>
    </defs>
    <g transform="translate(369.18424 20.091654)scale(0.17 -0.17)">
     <use xlink:href="#DejaVuSans-62"/>
     <use x="63.476562" xlink:href="#DejaVuSans-65"/>
     <use x="125" xlink:href="#DejaVuSans-73"/>
     <use x="177.099609" xlink:href="#DejaVuSans-74"/>
     <use x="216.308594" xlink:href="#DejaVuSans-20"/>
     <use x="248.095703" xlink:href="#DejaVuSans-32"/>
     <use x="311.71875" xlink:href="#DejaVuSans-30"/>
     <use x="375.341797" xlink:href="#DejaVuSans-31"/>
     <use x="438.964844" xlink:href="#DejaVuSans-36"/>
    </g>
   </g>
   <g id="text_17">
    <!-- bbob-biobj f7, f8, f16, f17, 40-D -->
    <defs>
     <path d="M 9.421875 54.6875 
L 18.40625 54.6875 
L 18.40625 -0.984375 
Q 18.40625 -11.421875 14.421875 -16.109375 
Q 10.453125 -20.796875 1.609375 -20.796875 
L -1.8125 -20.796875 
L -1.8125 -13.1875 
L 0.59375 -13.1875 
Q 5.71875 -13.1875 7.5625 -10.8125 
Q 9.421875 -8.453125 9.421875 -0.984375 
z
M 9.421875 75.984375 
L 18.40625 75.984375 
L 18.40625 64.59375 
L 9.421875 64.59375 
z
" id="DejaVuSans-6a"/>
     <path d="M 8.203125 72.90625 
L 55.078125 72.90625 
L 55.078125 68.703125 
L 28.609375 0 
L 18.3125 0 
L 43.21875 64.59375 
L 8.203125 64.59375 
z
" id="DejaVuSans-37"/>
    </defs>
    <g transform="translate(58.89048 17.475982)scale(0.102 -0.102)">
     <use xlink:href="#DejaVuSans-62"/>
     <use x="63.476562" xlink:href="#DejaVuSans-62"/>
     <use x="126.953125" xlink:href="#DejaVuSans-6f"/>
     <use x="188.134766" xlink:href="#DejaVuSans-62"/>
     <use x="251.611328" xlink:href="#DejaVuSans-2d"/>
     <use x="287.695312" xlink:href="#DejaVuSans-62"/>
     <use x="351.171875" xlink:href="#DejaVuSans-69"/>
     <use x="378.955078" xlink:href="#DejaVuSans-6f"/>
     <use x="440.136719" xlink:href="#DejaVuSans-62"/>
     <use x="503.613281" xlink:href="#DejaVuSans-6a"/>
     <use x="531.396484" xlink:href="#DejaVuSans-20"/>
     <use x="563.183594" xlink:href="#DejaVuSans-66"/>
     <use x="598.388672" xlink:href="#DejaVuSans-37"/>
     <use x="662.011719" xlink:href="#DejaVuSans-2c"/>
     <use x="693.798828" xlink:href="#DejaVuSans-20"/>
     <use x="725.585938" xlink:href="#DejaVuSans-66"/>
     <use x="760.791016" xlink:href="#DejaVuSans-38"/>
     <use x="824.414062" xlink:href="#DejaVuSans-2c"/>
     <use x="856.201172" xlink:href="#DejaVuSans-20"/>
     <use x="887.988281" xlink:href="#DejaVuSans-66"/>
     <use x="923.193359" xlink:href="#DejaVuSans-31"/>
     <use x="986.816406" xlink:href="#DejaVuSans-36"/>
     <use x="1050.439453" xlink:href="#DejaVuSans-2c"/>
     <use x="1082.226562" xlink:href="#DejaVuSans-20"/>
     <use x="1114.013672" xlink:href="#DejaVuSans-66"/>
     <use x="1149.21875" xlink:href="#DejaVuSans-31"/>
     <use x="1212.841797" xlink:href="#DejaVuSans-37"/>
     <use x="1276.464844" xlink:href="#DejaVuSans-2c"/>
     <use x="1308.251953" xlink:href="#DejaVuSans-20"/>
     <use x="1340.039062" xlink:href="#DejaVuSans-34"/>
     <use x="1403.662109" xlink:href="#DejaVuSans-30"/>
     <use x="1467.285156" xlink:href="#DejaVuSans-2d"/>
     <use x="1503.369141" xlink:href="#DejaVuSans-44"/>
    </g>
    <!-- 58 targets: 1..-1.0e-4 -->
    <defs>
     <path d="M 10.796875 72.90625 
L 49.515625 72.90625 
L 49.515625 64.59375 
L 19.828125 64.59375 
L 19.828125 46.734375 
Q 21.96875 47.46875 24.109375 47.828125 
Q 26.265625 48.1875 28.421875 48.1875 
Q 40.625 48.1875 47.75 41.5 
Q 54.890625 34.8125 54.890625 23.390625 
Q 54.890625 11.625 47.5625 5.09375 
Q 40.234375 -1.421875 26.90625 -1.421875 
Q 22.3125 -1.421875 17.546875 -0.640625 
Q 12.796875 0.140625 7.71875 1.703125 
L 7.71875 11.625 
Q 12.109375 9.234375 16.796875 8.0625 
Q 21.484375 6.890625 26.703125 6.890625 
Q 35.15625 6.890625 40.078125 11.328125 
Q 45.015625 15.765625 45.015625 23.390625 
Q 45.015625 31 40.078125 35.4375 
Q 35.15625 39.890625 26.703125 39.890625 
Q 22.75 39.890625 18.8125 39.015625 
Q 14.890625 38.140625 10.796875 36.28125 
z
" id="DejaVuSans-35"/>
     <path d="M 11.71875 12.40625 
L 22.015625 12.40625 
L 22.015625 0 
L 11.71875 0 
z
M 11.71875 51.703125 
L 22.015625 51.703125 
L 22.015625 39.3125 
L 11.71875 39.3125 
z
" id="DejaVuSans-3a"/>
    </defs>
    <g transform="translate(58.89048 28.89775)scale(0.102 -0.102)">
     <use xlink:href="#DejaVuSans-35"/>
     <use x="63.623047" xlink:href="#DejaVuSans-38"/>
     <use x="127.246094" xlink:href="#DejaVuSans-20"/>
     <use x="159.033203" xlink:href="#DejaVuSans-74"/>
     <use x="198.242188" xlink:href="#DejaVuSans-61"/>
     <use x="259.521484" xlink:href="#DejaVuSans-72"/>
     <use x="300.619141" xlink:href="#DejaVuSans-67"/>
     <use x="364.095703" xlink:href="#DejaVuSans-65"/>
     <use x="425.619141" xlink:href="#DejaVuSans-74"/>
     <use x="464.828125" xlink:href="#DejaVuSans-73"/>
     <use x="516.927734" xlink:href="#DejaVuSans-3a"/>
     <use x="550.619141" xlink:href="#DejaVuSans-20"/>
     <use x="582.40625" xlink:href="#DejaVuSans-31"/>
     <use x="646.029297" xlink:href="#DejaVuSans-2e"/>
     <use x="677.816406" xlink:href="#DejaVuSans-2e"/>
     <use x="709.603516" xlink:href="#DejaVuSans-2d"/>
     <use x="745.6875" xlink:href="#DejaVuSans-31"/>
     <use x="809.310547" xlink:href="#DejaVuSans-2e"/>
     <use x="841.097656" xlink:href="#DejaVuSans-30"/>
     <use x="904.720703" xlink:href="#DejaVuSans-65"/>
     <use x="966.244141" xlink:href="#DejaVuSans-2d"/>
     <use x="1002.328125" xlink:href="#DejaVuSans-34"/>
    </g>
    <!-- 10 instances -->
    <g transform="translate(58.89048 40.319519)scale(0.102 -0.102)">
     <use xlink:href="#DejaVuSans-31"/>
     <use x="63.623047" xlink:href="#DejaVuSans-30"/>
     <use x="127.246094" xlink:href="#DejaVuSans-20"/>
     <use x="159.033203" xlink:href="#DejaVuSans-69"/>
     <use x="186.816406" xlink:href="#DejaVuSans-6e"/>
     <use x="250.195312" xlink:href="#DejaVuSans-73"/>
     <use x="302.294922" xlink:href="#DejaVuSans-74"/>
     <use x="341.503906" xlink:href="#DejaVuSans-61"/>
     <use x="402.783203" xlink:href="#DejaVuSans-6e"/>
     <use x="466.162109" xlink:href="#DejaVuSans-63"/>
     <use x="521.142578" xlink:href="#DejaVuSans-65"/>
     <use x="582.666016" xlink:href="#DejaVuSans-73"/>
    </g>
   </g>
   <g id="text_18">
    <!-- v2.2.2.644, hv-hash=ff0e71e8cd978373 -->
    <defs>
     <path d="M 54.890625 33.015625 
L 54.890625 0 
L 45.90625 0 
L 45.90625 32.71875 
Q 45.90625 40.484375 42.875 44.328125 
Q 39.84375 48.1875 33.796875 48.1875 
Q 26.515625 48.1875 22.3125 43.546875 
Q 18.109375 38.921875 18.109375 30.90625 
L 18.109375 0 
L 9.078125 0 
L 9.078125 75.984375 
L 18.109375 75.984375 
L 18.109375 46.1875 
Q 21.34375 51.125 25.703125 53.5625 
Q 30.078125 56 35.796875 56 
Q 45.21875 56 50.046875 50.171875 
Q 54.890625 44.34375 54.890625 33.015625 
z
" id="DejaVuSans-68"/>
     <path d="M 10.59375 45.40625 
L 73.1875 45.40625 
L 73.1875 37.203125 
L 10.59375 37.203125 
z
M 10.59375 25.484375 
L 73.1875 25.484375 
L 73.1875 17.1875 
L 10.59375 17.1875 
z
" id="DejaVuSans-3d"/>
     <path d="M 10.984375 1.515625 
L 10.984375 10.5 
Q 14.703125 8.734375 18.5 7.8125 
Q 22.3125 6.890625 25.984375 6.890625 
Q 35.75 6.890625 40.890625 13.453125 
Q 46.046875 20.015625 46.78125 33.40625 
Q 43.953125 29.203125 39.59375 26.953125 
Q 35.25 24.703125 29.984375 24.703125 
Q 19.046875 24.703125 12.671875 31.3125 
Q 6.296875 37.9375 6.296875 49.421875 
Q 6.296875 60.640625 12.9375 67.421875 
Q 19.578125 74.21875 30.609375 74.21875 
Q 43.265625 74.21875 49.921875 64.515625 
Q 56.59375 54.828125 56.59375 36.375 
Q 56.59375 19.140625 48.40625 8.859375 
Q 40.234375 -1.421875 26.421875 -1.421875 
Q 22.703125 -1.421875 18.890625 -0.6875 
Q 15.09375 0.046875 10.984375 1.515625 
z
M 30.609375 32.421875 
Q 37.25 32.421875 41.125 36.953125 
Q 45.015625 41.5 45.015625 49.421875 
Q 45.015625 57.28125 41.125 61.84375 
Q 37.25 66.40625 30.609375 66.40625 
Q 23.96875 66.40625 20.09375 61.84375 
Q 16.21875 57.28125 16.21875 49.421875 
Q 16.21875 41.5 20.09375 36.953125 
Q 23.96875 32.421875 30.609375 32.421875 
z
" id="DejaVuSans-39"/>
    </defs>
    <g style="fill:#808080;" transform="translate(93.115875 289.919965)scale(0.1 -0.1)">
     <use xlink:href="#DejaVuSans-76"/>
     <use x="59.179688" xlink:href="#DejaVuSans-32"/>
     <use x="122.802734" xlink:href="#DejaVuSans-2e"/>
     <use x="154.589844" xlink:href="#DejaVuSans-32"/>
     <use x="218.212891" xlink:href="#DejaVuSans-2e"/>
     <use x="250" xlink:href="#DejaVuSans-32"/>
     <use x="313.623047" xlink:href="#DejaVuSans-2e"/>
     <use x="345.410156" xlink:href="#DejaVuSans-36"/>
     <use x="409.033203" xlink:href="#DejaVuSans-34"/>
     <use x="472.65625" xlink:href="#DejaVuSans-34"/>
     <use x="536.279297" xlink:href="#DejaVuSans-2c"/>
     <use x="568.066406" xlink:href="#DejaVuSans-20"/>
     <use x="599.853516" xlink:href="#DejaVuSans-68"/>
     <use x="663.232422" xlink:href="#DejaVuSans-76"/>
     <use x="722.380859" xlink:href="#DejaVuSans-2d"/>
     <use x="758.464844" xlink:href="#DejaVuSans-68"/>
     <use x="821.84375" xlink:href="#DejaVuSans-61"/>
     <use x="883.123047" xlink:href="#DejaVuSans-73"/>
     <use x="935.222656" xlink:href="#DejaVuSans-68"/>
     <use x="998.601562" xlink:href="#DejaVuSans-3d"/>
     <use x="1082.390625" xlink:href="#DejaVuSans-66"/>
     <use x="1117.595703" xlink:href="#DejaVuSans-66"/>
     <use x="1152.800781" xlink:href="#DejaVuSans-30"/>
     <use x="1216.423828" xlink:href="#DejaVuSans-65"/>
     <use x="1277.947266" xlink:href="#DejaVuSans-37"/>
     <use x="1341.570312" xlink:href="#DejaVuSans-31"/>
     <use x="1405.193359" xlink:href="#DejaVuSans-65"/>
     <use x="1466.716797" xlink:href="#DejaVuSans-38"/>
     <use x="1530.339844" xlink:href="#DejaVuSans-63"/>
     <use x="1585.320312" xlink:href="#DejaVuSans-64"/>
     <use x="1648.796875" xlink:href="#DejaVuSans-39"/>
     <use x="1712.419922" xlink:href="#DejaVuSans-37"/>
     <use x="1776.042969" xlink:href="#DejaVuSans-38"/>
     <use x="1839.666016" xlink:href="#DejaVuSans-33"/>
     <use x="1903.289062" xlink:href="#DejaVuSans-37"/>
     <use x="1966.912109" xlink:href="#DejaVuSans-33"/>
    </g>
   </g>
  </g>
 </g>
 <defs>
  <clipPath id="p940215e7ed">
   <rect height="288.034772" width="277.048" x="56.12" y="6.845228"/>
  </clipPath>
 </defs>
</svg>
