<?xml version="1.0" encoding="utf-8" standalone="no"?>
<!DOCTYPE svg PUBLIC "-//W3C//DTD SVG 1.1//EN"
  "http://www.w3.org/Graphics/SVG/1.1/DTD/svg11.dtd">
<!-- Created with matplotlib (http://matplotlib.org/) -->
<svg height="345pt" version="1.1" viewBox="0 0 460 345" width="460pt" xmlns="http://www.w3.org/2000/svg" xmlns:xlink="http://www.w3.org/1999/xlink">
 <defs>
  <style type="text/css">
*{stroke-linecap:butt;stroke-linejoin:round;}
  </style>
 </defs>
 <g id="figure_1">
  <g id="patch_1">
   <path d="M 0 345.6 
L 460.8 345.6 
L 460.8 0 
L 0 0 
z
" style="fill:#ffffff;"/>
  </g>
  <g id="axes_1">
   <g id="patch_2">
    <path d="M 56.12 294.88 
L 399.984 294.88 
L 399.984 24.84 
L 56.12 24.84 
z
" style="fill:#ffffff;"/>
   </g>
   <g id="line2d_1">
    <path d="M 32.268991 294.88 
L 32.268991 290.270236 
L 104.009174 290.270236 
L 104.009174 281.050707 
L 140.306244 281.050707 
L 140.306244 271.831178 
L 143.188571 271.831178 
L 143.188571 267.221413 
L 150.374186 267.221413 
L 150.374186 253.39212 
L 166.91503 253.39212 
L 166.91503 244.172591 
L 217.434554 244.172591 
L 217.434554 239.562827 
L 231.273239 239.562827 
L 231.273239 230.343298 
L 261.437893 230.343298 
L 261.437893 216.514005 
L 269.054097 216.514005 
L 269.054097 207.294476 
L 278.450111 207.294476 
L 278.450111 198.074947 
L 333.429677 198.074947 
" style="fill:none;stroke:#f5deb3;stroke-linecap:square;stroke-width:6;"/>
   </g>
   <g id="line2d_2">
    <path d="M 0 0 
" style="fill:none;stroke:#f5deb3;stroke-linecap:square;stroke-width:6;"/>
    <defs>
     <path d="M -0 7.778175 
L 7.778175 0 
L 0 -7.778175 
L -7.778175 -0 
z
" id="m7c5cbca133" style="stroke:#f5deb3;stroke-linejoin:miter;stroke-width:1.5;"/>
    </defs>
    <g>
     <use style="fill:#f5deb3;stroke:#f5deb3;stroke-linejoin:miter;stroke-width:1.5;" x="0" xlink:href="#m7c5cbca133" y="0"/>
    </g>
   </g>
   <g id="line2d_3">
    <path d="M 333.429677 198.074947 
L 363.933742 289.532673 
" style="fill:none;stroke:#f5deb3;stroke-linecap:square;stroke-width:6;"/>
    <g>
     <use style="fill:#f5deb3;stroke:#f5deb3;stroke-linejoin:miter;stroke-width:1.5;" x="333.429677" xlink:href="#m7c5cbca133" y="198.074947"/>
     <use style="fill:#f5deb3;stroke:#f5deb3;stroke-linejoin:miter;stroke-width:1.5;" x="363.933742" xlink:href="#m7c5cbca133" y="289.532673"/>
    </g>
   </g>
   <g id="matplotlib.axis_1">
    <g id="xtick_1">
     <g id="line2d_4">
      <path clip-path="url(#pc7fe6cbd52)" d="M 56.12 294.88 
L 56.12 24.84 
" style="fill:none;stroke:#b0b0b0;stroke-linecap:square;stroke-width:0.8;"/>
     </g>
     <g id="line2d_5">
      <defs>
       <path d="M 0 0 
L 0 3.5 
" id="mc608f7e090" style="stroke:#000000;stroke-width:0.8;"/>
      </defs>
      <g>
       <use style="stroke:#000000;stroke-width:0.8;" x="56.12" xlink:href="#mc608f7e090" y="294.88"/>
      </g>
     </g>
     <g id="text_1">
      <!-- 0 -->
      <defs>
       <path d="M 31.78125 66.40625 
Q 24.171875 66.40625 20.328125 58.90625 
Q 16.5 51.421875 16.5 36.375 
Q 16.5 21.390625 20.328125 13.890625 
Q 24.171875 6.390625 31.78125 6.390625 
Q 39.453125 6.390625 43.28125 13.890625 
Q 47.125 21.390625 47.125 36.375 
Q 47.125 51.421875 43.28125 58.90625 
Q 39.453125 66.40625 31.78125 66.40625 
z
M 31.78125 74.21875 
Q 44.046875 74.21875 50.515625 64.515625 
Q 56.984375 54.828125 56.984375 36.375 
Q 56.984375 17.96875 50.515625 8.265625 
Q 44.046875 -1.421875 31.78125 -1.421875 
Q 19.53125 -1.421875 13.0625 8.265625 
Q 6.59375 17.96875 6.59375 36.375 
Q 6.59375 54.828125 13.0625 64.515625 
Q 19.53125 74.21875 31.78125 74.21875 
z
" id="DejaVuSans-30"/>
      </defs>
      <g transform="translate(49.7575 317.076875)scale(0.2 -0.2)">
       <use xlink:href="#DejaVuSans-30"/>
      </g>
     </g>
    </g>
    <g id="xtick_2">
     <g id="line2d_6">
      <path clip-path="url(#pc7fe6cbd52)" d="M 135.351336 294.88 
L 135.351336 24.84 
" style="fill:none;stroke:#b0b0b0;stroke-linecap:square;stroke-width:0.8;"/>
     </g>
     <g id="line2d_7">
      <g>
       <use style="stroke:#000000;stroke-width:0.8;" x="135.351336" xlink:href="#mc608f7e090" y="294.88"/>
      </g>
     </g>
     <g id="text_2">
      <!-- 2 -->
      <defs>
       <path d="M 19.1875 8.296875 
L 53.609375 8.296875 
L 53.609375 0 
L 7.328125 0 
L 7.328125 8.296875 
Q 12.9375 14.109375 22.625 23.890625 
Q 32.328125 33.6875 34.8125 36.53125 
Q 39.546875 41.84375 41.421875 45.53125 
Q 43.3125 49.21875 43.3125 52.78125 
Q 43.3125 58.59375 39.234375 62.25 
Q 35.15625 65.921875 28.609375 65.921875 
Q 23.96875 65.921875 18.8125 64.3125 
Q 13.671875 62.703125 7.8125 59.421875 
L 7.8125 69.390625 
Q 13.765625 71.78125 18.9375 73 
Q 24.125 74.21875 28.421875 74.21875 
Q 39.75 74.21875 46.484375 68.546875 
Q 53.21875 62.890625 53.21875 53.421875 
Q 53.21875 48.921875 51.53125 44.890625 
Q 49.859375 40.875 45.40625 35.40625 
Q 44.1875 33.984375 37.640625 27.21875 
Q 31.109375 20.453125 19.1875 8.296875 
z
" id="DejaVuSans-32"/>
      </defs>
      <g transform="translate(128.988836 317.076875)scale(0.2 -0.2)">
       <use xlink:href="#DejaVuSans-32"/>
      </g>
     </g>
    </g>
    <g id="xtick_3">
     <g id="line2d_8">
      <path clip-path="url(#pc7fe6cbd52)" d="M 214.582673 294.88 
L 214.582673 24.84 
" style="fill:none;stroke:#b0b0b0;stroke-linecap:square;stroke-width:0.8;"/>
     </g>
     <g id="line2d_9">
      <g>
       <use style="stroke:#000000;stroke-width:0.8;" x="214.582673" xlink:href="#mc608f7e090" y="294.88"/>
      </g>
     </g>
     <g id="text_3">
      <!-- 4 -->
      <defs>
       <path d="M 37.796875 64.3125 
L 12.890625 25.390625 
L 37.796875 25.390625 
z
M 35.203125 72.90625 
L 47.609375 72.90625 
L 47.609375 25.390625 
L 58.015625 25.390625 
L 58.015625 17.1875 
L 47.609375 17.1875 
L 47.609375 0 
L 37.796875 0 
L 37.796875 17.1875 
L 4.890625 17.1875 
L 4.890625 26.703125 
z
" id="DejaVuSans-34"/>
      </defs>
      <g transform="translate(208.220173 317.076875)scale(0.2 -0.2)">
       <use xlink:href="#DejaVuSans-34"/>
      </g>
     </g>
    </g>
    <g id="xtick_4">
     <g id="line2d_10">
      <path clip-path="url(#pc7fe6cbd52)" d="M 293.814009 294.88 
L 293.814009 24.84 
" style="fill:none;stroke:#b0b0b0;stroke-linecap:square;stroke-width:0.8;"/>
     </g>
     <g id="line2d_11">
      <g>
       <use style="stroke:#000000;stroke-width:0.8;" x="293.814009" xlink:href="#mc608f7e090" y="294.88"/>
      </g>
     </g>
     <g id="text_4">
      <!-- 6 -->
      <defs>
       <path d="M 33.015625 40.375 
Q 26.375 40.375 22.484375 35.828125 
Q 18.609375 31.296875 18.609375 23.390625 
Q 18.609375 15.53125 22.484375 10.953125 
Q 26.375 6.390625 33.015625 6.390625 
Q 39.65625 6.390625 43.53125 10.953125 
Q 47.40625 15.53125 47.40625 23.390625 
Q 47.40625 31.296875 43.53125 35.828125 
Q 39.65625 40.375 33.015625 40.375 
z
M 52.59375 71.296875 
L 52.59375 62.3125 
Q 48.875 64.0625 45.09375 64.984375 
Q 41.3125 65.921875 37.59375 65.921875 
Q 27.828125 65.921875 22.671875 59.328125 
Q 17.53125 52.734375 16.796875 39.40625 
Q 19.671875 43.65625 24.015625 45.921875 
Q 28.375 48.1875 33.59375 48.1875 
Q 44.578125 48.1875 50.953125 41.515625 
Q 57.328125 34.859375 57.328125 23.390625 
Q 57.328125 12.15625 50.6875 5.359375 
Q 44.046875 -1.421875 33.015625 -1.421875 
Q 20.359375 -1.421875 13.671875 8.265625 
Q 6.984375 17.96875 6.984375 36.375 
Q 6.984375 53.65625 15.1875 63.9375 
Q 23.390625 74.21875 37.203125 74.21875 
Q 40.921875 74.21875 44.703125 73.484375 
Q 48.484375 72.75 52.59375 71.296875 
z
" id="DejaVuSans-36"/>
      </defs>
      <g transform="translate(287.451509 317.076875)scale(0.2 -0.2)">
       <use xlink:href="#DejaVuSans-36"/>
      </g>
     </g>
    </g>
    <g id="xtick_5">
     <g id="line2d_12">
      <path clip-path="url(#pc7fe6cbd52)" d="M 373.045346 294.88 
L 373.045346 24.84 
" style="fill:none;stroke:#b0b0b0;stroke-linecap:square;stroke-width:0.8;"/>
     </g>
     <g id="line2d_13">
      <g>
       <use style="stroke:#000000;stroke-width:0.8;" x="373.045346" xlink:href="#mc608f7e090" y="294.88"/>
      </g>
     </g>
     <g id="text_5">
      <!-- 8 -->
      <defs>
       <path d="M 31.78125 34.625 
Q 24.75 34.625 20.71875 30.859375 
Q 16.703125 27.09375 16.703125 20.515625 
Q 16.703125 13.921875 20.71875 10.15625 
Q 24.75 6.390625 31.78125 6.390625 
Q 38.8125 6.390625 42.859375 10.171875 
Q 46.921875 13.96875 46.921875 20.515625 
Q 46.921875 27.09375 42.890625 30.859375 
Q 38.875 34.625 31.78125 34.625 
z
M 21.921875 38.8125 
Q 15.578125 40.375 12.03125 44.71875 
Q 8.5 49.078125 8.5 55.328125 
Q 8.5 64.0625 14.71875 69.140625 
Q 20.953125 74.21875 31.78125 74.21875 
Q 42.671875 74.21875 48.875 69.140625 
Q 55.078125 64.0625 55.078125 55.328125 
Q 55.078125 49.078125 51.53125 44.71875 
Q 48 40.375 41.703125 38.8125 
Q 48.828125 37.15625 52.796875 32.3125 
Q 56.78125 27.484375 56.78125 20.515625 
Q 56.78125 9.90625 50.3125 4.234375 
Q 43.84375 -1.421875 31.78125 -1.421875 
Q 19.734375 -1.421875 13.25 4.234375 
Q 6.78125 9.90625 6.78125 20.515625 
Q 6.78125 27.484375 10.78125 32.3125 
Q 14.796875 37.15625 21.921875 38.8125 
z
M 18.3125 54.390625 
Q 18.3125 48.734375 21.84375 45.5625 
Q 25.390625 42.390625 31.78125 42.390625 
Q 38.140625 42.390625 41.71875 45.5625 
Q 45.3125 48.734375 45.3125 54.390625 
Q 45.3125 60.0625 41.71875 63.234375 
Q 38.140625 66.40625 31.78125 66.40625 
Q 25.390625 66.40625 21.84375 63.234375 
Q 18.3125 60.0625 18.3125 54.390625 
z
" id="DejaVuSans-38"/>
      </defs>
      <g transform="translate(366.682846 317.076875)scale(0.2 -0.2)">
       <use xlink:href="#DejaVuSans-38"/>
      </g>
     </g>
    </g>
    <g id="text_6">
     <!-- log10(# f-evals / dimension) -->
     <defs>
      <path d="M 9.421875 75.984375 
L 18.40625 75.984375 
L 18.40625 0 
L 9.421875 0 
z
" id="DejaVuSans-6c"/>
      <path d="M 30.609375 48.390625 
Q 23.390625 48.390625 19.1875 42.75 
Q 14.984375 37.109375 14.984375 27.296875 
Q 14.984375 17.484375 19.15625 11.84375 
Q 23.34375 6.203125 30.609375 6.203125 
Q 37.796875 6.203125 41.984375 11.859375 
Q 46.1875 17.53125 46.1875 27.296875 
Q 46.1875 37.015625 41.984375 42.703125 
Q 37.796875 48.390625 30.609375 48.390625 
z
M 30.609375 56 
Q 42.328125 56 49.015625 48.375 
Q 55.71875 40.765625 55.71875 27.296875 
Q 55.71875 13.875 49.015625 6.21875 
Q 42.328125 -1.421875 30.609375 -1.421875 
Q 18.84375 -1.421875 12.171875 6.21875 
Q 5.515625 13.875 5.515625 27.296875 
Q 5.515625 40.765625 12.171875 48.375 
Q 18.84375 56 30.609375 56 
z
" id="DejaVuSans-6f"/>
      <path d="M 45.40625 27.984375 
Q 45.40625 37.75 41.375 43.109375 
Q 37.359375 48.484375 30.078125 48.484375 
Q 22.859375 48.484375 18.828125 43.109375 
Q 14.796875 37.75 14.796875 27.984375 
Q 14.796875 18.265625 18.828125 12.890625 
Q 22.859375 7.515625 30.078125 7.515625 
Q 37.359375 7.515625 41.375 12.890625 
Q 45.40625 18.265625 45.40625 27.984375 
z
M 54.390625 6.78125 
Q 54.390625 -7.171875 48.1875 -13.984375 
Q 42 -20.796875 29.203125 -20.796875 
Q 24.46875 -20.796875 20.265625 -20.09375 
Q 16.0625 -19.390625 12.109375 -17.921875 
L 12.109375 -9.1875 
Q 16.0625 -11.328125 19.921875 -12.34375 
Q 23.78125 -13.375 27.78125 -13.375 
Q 36.625 -13.375 41.015625 -8.765625 
Q 45.40625 -4.15625 45.40625 5.171875 
L 45.40625 9.625 
Q 42.625 4.78125 38.28125 2.390625 
Q 33.9375 0 27.875 0 
Q 17.828125 0 11.671875 7.65625 
Q 5.515625 15.328125 5.515625 27.984375 
Q 5.515625 40.671875 11.671875 48.328125 
Q 17.828125 56 27.875 56 
Q 33.9375 56 38.28125 53.609375 
Q 42.625 51.21875 45.40625 46.390625 
L 45.40625 54.6875 
L 54.390625 54.6875 
z
" id="DejaVuSans-67"/>
      <path d="M 12.40625 8.296875 
L 28.515625 8.296875 
L 28.515625 63.921875 
L 10.984375 60.40625 
L 10.984375 69.390625 
L 28.421875 72.90625 
L 38.28125 72.90625 
L 38.28125 8.296875 
L 54.390625 8.296875 
L 54.390625 0 
L 12.40625 0 
z
" id="DejaVuSans-31"/>
      <path d="M 31 75.875 
Q 24.46875 64.65625 21.28125 53.65625 
Q 18.109375 42.671875 18.109375 31.390625 
Q 18.109375 20.125 21.3125 9.0625 
Q 24.515625 -2 31 -13.1875 
L 23.1875 -13.1875 
Q 15.875 -1.703125 12.234375 9.375 
Q 8.59375 20.453125 8.59375 31.390625 
Q 8.59375 42.28125 12.203125 53.3125 
Q 15.828125 64.359375 23.1875 75.875 
z
" id="DejaVuSans-28"/>
      <path d="M 51.125 44 
L 36.921875 44 
L 32.8125 27.6875 
L 47.125 27.6875 
z
M 43.796875 71.78125 
L 38.71875 51.515625 
L 52.984375 51.515625 
L 58.109375 71.78125 
L 65.921875 71.78125 
L 60.890625 51.515625 
L 76.125 51.515625 
L 76.125 44 
L 58.984375 44 
L 54.984375 27.6875 
L 70.515625 27.6875 
L 70.515625 20.21875 
L 53.078125 20.21875 
L 48 0 
L 40.1875 0 
L 45.21875 20.21875 
L 30.90625 20.21875 
L 25.875 0 
L 18.015625 0 
L 23.09375 20.21875 
L 7.71875 20.21875 
L 7.71875 27.6875 
L 24.90625 27.6875 
L 29 44 
L 13.28125 44 
L 13.28125 51.515625 
L 30.90625 51.515625 
L 35.890625 71.78125 
z
" id="DejaVuSans-23"/>
      <path id="DejaVuSans-20"/>
      <path d="M 37.109375 75.984375 
L 37.109375 68.5 
L 28.515625 68.5 
Q 23.6875 68.5 21.796875 66.546875 
Q 19.921875 64.59375 19.921875 59.515625 
L 19.921875 54.6875 
L 34.71875 54.6875 
L 34.71875 47.703125 
L 19.921875 47.703125 
L 19.921875 0 
L 10.890625 0 
L 10.890625 47.703125 
L 2.296875 47.703125 
L 2.296875 54.6875 
L 10.890625 54.6875 
L 10.890625 58.5 
Q 10.890625 67.625 15.140625 71.796875 
Q 19.390625 75.984375 28.609375 75.984375 
z
" id="DejaVuSans-66"/>
      <path d="M 4.890625 31.390625 
L 31.203125 31.390625 
L 31.203125 23.390625 
L 4.890625 23.390625 
z
" id="DejaVuSans-2d"/>
      <path d="M 56.203125 29.59375 
L 56.203125 25.203125 
L 14.890625 25.203125 
Q 15.484375 15.921875 20.484375 11.0625 
Q 25.484375 6.203125 34.421875 6.203125 
Q 39.59375 6.203125 44.453125 7.46875 
Q 49.3125 8.734375 54.109375 11.28125 
L 54.109375 2.78125 
Q 49.265625 0.734375 44.1875 -0.34375 
Q 39.109375 -1.421875 33.890625 -1.421875 
Q 20.796875 -1.421875 13.15625 6.1875 
Q 5.515625 13.8125 5.515625 26.8125 
Q 5.515625 40.234375 12.765625 48.109375 
Q 20.015625 56 32.328125 56 
Q 43.359375 56 49.78125 48.890625 
Q 56.203125 41.796875 56.203125 29.59375 
z
M 47.21875 32.234375 
Q 47.125 39.59375 43.09375 43.984375 
Q 39.0625 48.390625 32.421875 48.390625 
Q 24.90625 48.390625 20.390625 44.140625 
Q 15.875 39.890625 15.1875 32.171875 
z
" id="DejaVuSans-65"/>
      <path d="M 2.984375 54.6875 
L 12.5 54.6875 
L 29.59375 8.796875 
L 46.6875 54.6875 
L 56.203125 54.6875 
L 35.6875 0 
L 23.484375 0 
z
" id="DejaVuSans-76"/>
      <path d="M 34.28125 27.484375 
Q 23.390625 27.484375 19.1875 25 
Q 14.984375 22.515625 14.984375 16.5 
Q 14.984375 11.71875 18.140625 8.90625 
Q 21.296875 6.109375 26.703125 6.109375 
Q 34.1875 6.109375 38.703125 11.40625 
Q 43.21875 16.703125 43.21875 25.484375 
L 43.21875 27.484375 
z
M 52.203125 31.203125 
L 52.203125 0 
L 43.21875 0 
L 43.21875 8.296875 
Q 40.140625 3.328125 35.546875 0.953125 
Q 30.953125 -1.421875 24.3125 -1.421875 
Q 15.921875 -1.421875 10.953125 3.296875 
Q 6 8.015625 6 15.921875 
Q 6 25.140625 12.171875 29.828125 
Q 18.359375 34.515625 30.609375 34.515625 
L 43.21875 34.515625 
L 43.21875 35.40625 
Q 43.21875 41.609375 39.140625 45 
Q 35.0625 48.390625 27.6875 48.390625 
Q 23 48.390625 18.546875 47.265625 
Q 14.109375 46.140625 10.015625 43.890625 
L 10.015625 52.203125 
Q 14.9375 54.109375 19.578125 55.046875 
Q 24.21875 56 28.609375 56 
Q 40.484375 56 46.34375 49.84375 
Q 52.203125 43.703125 52.203125 31.203125 
z
" id="DejaVuSans-61"/>
      <path d="M 44.28125 53.078125 
L 44.28125 44.578125 
Q 40.484375 46.53125 36.375 47.5 
Q 32.28125 48.484375 27.875 48.484375 
Q 21.1875 48.484375 17.84375 46.4375 
Q 14.5 44.390625 14.5 40.28125 
Q 14.5 37.15625 16.890625 35.375 
Q 19.28125 33.59375 26.515625 31.984375 
L 29.59375 31.296875 
Q 39.15625 29.25 43.1875 25.515625 
Q 47.21875 21.78125 47.21875 15.09375 
Q 47.21875 7.46875 41.1875 3.015625 
Q 35.15625 -1.421875 24.609375 -1.421875 
Q 20.21875 -1.421875 15.453125 -0.5625 
Q 10.6875 0.296875 5.421875 2 
L 5.421875 11.28125 
Q 10.40625 8.6875 15.234375 7.390625 
Q 20.0625 6.109375 24.8125 6.109375 
Q 31.15625 6.109375 34.5625 8.28125 
Q 37.984375 10.453125 37.984375 14.40625 
Q 37.984375 18.0625 35.515625 20.015625 
Q 33.0625 21.96875 24.703125 23.78125 
L 21.578125 24.515625 
Q 13.234375 26.265625 9.515625 29.90625 
Q 5.8125 33.546875 5.8125 39.890625 
Q 5.8125 47.609375 11.28125 51.796875 
Q 16.75 56 26.8125 56 
Q 31.78125 56 36.171875 55.265625 
Q 40.578125 54.546875 44.28125 53.078125 
z
" id="DejaVuSans-73"/>
      <path d="M 25.390625 72.90625 
L 33.6875 72.90625 
L 8.296875 -9.28125 
L 0 -9.28125 
z
" id="DejaVuSans-2f"/>
      <path d="M 45.40625 46.390625 
L 45.40625 75.984375 
L 54.390625 75.984375 
L 54.390625 0 
L 45.40625 0 
L 45.40625 8.203125 
Q 42.578125 3.328125 38.25 0.953125 
Q 33.9375 -1.421875 27.875 -1.421875 
Q 17.96875 -1.421875 11.734375 6.484375 
Q 5.515625 14.40625 5.515625 27.296875 
Q 5.515625 40.1875 11.734375 48.09375 
Q 17.96875 56 27.875 56 
Q 33.9375 56 38.25 53.625 
Q 42.578125 51.265625 45.40625 46.390625 
z
M 14.796875 27.296875 
Q 14.796875 17.390625 18.875 11.75 
Q 22.953125 6.109375 30.078125 6.109375 
Q 37.203125 6.109375 41.296875 11.75 
Q 45.40625 17.390625 45.40625 27.296875 
Q 45.40625 37.203125 41.296875 42.84375 
Q 37.203125 48.484375 30.078125 48.484375 
Q 22.953125 48.484375 18.875 42.84375 
Q 14.796875 37.203125 14.796875 27.296875 
z
" id="DejaVuSans-64"/>
      <path d="M 9.421875 54.6875 
L 18.40625 54.6875 
L 18.40625 0 
L 9.421875 0 
z
M 9.421875 75.984375 
L 18.40625 75.984375 
L 18.40625 64.59375 
L 9.421875 64.59375 
z
" id="DejaVuSans-69"/>
      <path d="M 52 44.1875 
Q 55.375 50.25 60.0625 53.125 
Q 64.75 56 71.09375 56 
Q 79.640625 56 84.28125 50.015625 
Q 88.921875 44.046875 88.921875 33.015625 
L 88.921875 0 
L 79.890625 0 
L 79.890625 32.71875 
Q 79.890625 40.578125 77.09375 44.375 
Q 74.3125 48.1875 68.609375 48.1875 
Q 61.625 48.1875 57.5625 43.546875 
Q 53.515625 38.921875 53.515625 30.90625 
L 53.515625 0 
L 44.484375 0 
L 44.484375 32.71875 
Q 44.484375 40.625 41.703125 44.40625 
Q 38.921875 48.1875 33.109375 48.1875 
Q 26.21875 48.1875 22.15625 43.53125 
Q 18.109375 38.875 18.109375 30.90625 
L 18.109375 0 
L 9.078125 0 
L 9.078125 54.6875 
L 18.109375 54.6875 
L 18.109375 46.1875 
Q 21.1875 51.21875 25.484375 53.609375 
Q 29.78125 56 35.6875 56 
Q 41.65625 56 45.828125 52.96875 
Q 50 49.953125 52 44.1875 
z
" id="DejaVuSans-6d"/>
      <path d="M 54.890625 33.015625 
L 54.890625 0 
L 45.90625 0 
L 45.90625 32.71875 
Q 45.90625 40.484375 42.875 44.328125 
Q 39.84375 48.1875 33.796875 48.1875 
Q 26.515625 48.1875 22.3125 43.546875 
Q 18.109375 38.921875 18.109375 30.90625 
L 18.109375 0 
L 9.078125 0 
L 9.078125 54.6875 
L 18.109375 54.6875 
L 18.109375 46.1875 
Q 21.34375 51.125 25.703125 53.5625 
Q 30.078125 56 35.796875 56 
Q 45.21875 56 50.046875 50.171875 
Q 54.890625 44.34375 54.890625 33.015625 
z
" id="DejaVuSans-6e"/>
      <path d="M 8.015625 75.875 
L 15.828125 75.875 
Q 23.140625 64.359375 26.78125 53.3125 
Q 30.421875 42.28125 30.421875 31.390625 
Q 30.421875 20.453125 26.78125 9.375 
Q 23.140625 -1.703125 15.828125 -13.1875 
L 8.015625 -13.1875 
Q 14.5 -2 17.703125 9.0625 
Q 20.90625 20.125 20.90625 31.390625 
Q 20.90625 42.671875 17.703125 53.65625 
Q 14.5 64.65625 8.015625 75.875 
z
" id="DejaVuSans-29"/>
     </defs>
     <g transform="translate(107.211219 338.153594)scale(0.17 -0.17)">
      <use xlink:href="#DejaVuSans-6c"/>
      <use x="27.783203" xlink:href="#DejaVuSans-6f"/>
      <use x="88.964844" xlink:href="#DejaVuSans-67"/>
      <use x="152.441406" xlink:href="#DejaVuSans-31"/>
      <use x="216.064453" xlink:href="#DejaVuSans-30"/>
      <use x="279.6875" xlink:href="#DejaVuSans-28"/>
      <use x="318.701172" xlink:href="#DejaVuSans-23"/>
      <use x="402.490234" xlink:href="#DejaVuSans-20"/>
      <use x="434.277344" xlink:href="#DejaVuSans-66"/>
      <use x="469.404297" xlink:href="#DejaVuSans-2d"/>
      <use x="505.488281" xlink:href="#DejaVuSans-65"/>
      <use x="567.011719" xlink:href="#DejaVuSans-76"/>
      <use x="626.191406" xlink:href="#DejaVuSans-61"/>
      <use x="687.470703" xlink:href="#DejaVuSans-6c"/>
      <use x="715.253906" xlink:href="#DejaVuSans-73"/>
      <use x="767.353516" xlink:href="#DejaVuSans-20"/>
      <use x="799.140625" xlink:href="#DejaVuSans-2f"/>
      <use x="832.832031" xlink:href="#DejaVuSans-20"/>
      <use x="864.619141" xlink:href="#DejaVuSans-64"/>
      <use x="928.095703" xlink:href="#DejaVuSans-69"/>
      <use x="955.878906" xlink:href="#DejaVuSans-6d"/>
      <use x="1053.291016" xlink:href="#DejaVuSans-65"/>
      <use x="1114.814453" xlink:href="#DejaVuSans-6e"/>
      <use x="1178.193359" xlink:href="#DejaVuSans-73"/>
      <use x="1230.292969" xlink:href="#DejaVuSans-69"/>
      <use x="1258.076172" xlink:href="#DejaVuSans-6f"/>
      <use x="1319.257812" xlink:href="#DejaVuSans-6e"/>
      <use x="1382.636719" xlink:href="#DejaVuSans-29"/>
     </g>
    </g>
   </g>
   <g id="matplotlib.axis_2">
    <g id="ytick_1">
     <g id="line2d_14">
      <path clip-path="url(#pc7fe6cbd52)" d="M 56.12 294.88 
L 399.984 294.88 
" style="fill:none;stroke:#b0b0b0;stroke-linecap:square;stroke-width:0.8;"/>
     </g>
     <g id="line2d_15">
      <defs>
       <path d="M 0 0 
L -3.5 0 
" id="m49ee5bbafd" style="stroke:#000000;stroke-width:0.8;"/>
      </defs>
      <g>
       <use style="stroke:#000000;stroke-width:0.8;" x="56.12" xlink:href="#m49ee5bbafd" y="294.88"/>
      </g>
     </g>
     <g id="text_7">
      <!-- 0.0 -->
      <defs>
       <path d="M 10.6875 12.40625 
L 21 12.40625 
L 21 0 
L 10.6875 0 
z
" id="DejaVuSans-2e"/>
      </defs>
      <g transform="translate(23.675 300.95875)scale(0.16 -0.16)">
       <use xlink:href="#DejaVuSans-30"/>
       <use x="63.623047" xlink:href="#DejaVuSans-2e"/>
       <use x="95.410156" xlink:href="#DejaVuSans-30"/>
      </g>
     </g>
    </g>
    <g id="ytick_2">
     <g id="line2d_16">
      <path clip-path="url(#pc7fe6cbd52)" d="M 56.12 241.406733 
L 399.984 241.406733 
" style="fill:none;stroke:#b0b0b0;stroke-linecap:square;stroke-width:0.8;"/>
     </g>
     <g id="line2d_17">
      <g>
       <use style="stroke:#000000;stroke-width:0.8;" x="56.12" xlink:href="#m49ee5bbafd" y="241.406733"/>
      </g>
     </g>
     <g id="text_8">
      <!-- 0.2 -->
      <g transform="translate(23.675 247.485483)scale(0.16 -0.16)">
       <use xlink:href="#DejaVuSans-30"/>
       <use x="63.623047" xlink:href="#DejaVuSans-2e"/>
       <use x="95.410156" xlink:href="#DejaVuSans-32"/>
      </g>
     </g>
    </g>
    <g id="ytick_3">
     <g id="line2d_18">
      <path clip-path="url(#pc7fe6cbd52)" d="M 56.12 187.933465 
L 399.984 187.933465 
" style="fill:none;stroke:#b0b0b0;stroke-linecap:square;stroke-width:0.8;"/>
     </g>
     <g id="line2d_19">
      <g>
       <use style="stroke:#000000;stroke-width:0.8;" x="56.12" xlink:href="#m49ee5bbafd" y="187.933465"/>
      </g>
     </g>
     <g id="text_9">
      <!-- 0.4 -->
      <g transform="translate(23.675 194.012215)scale(0.16 -0.16)">
       <use xlink:href="#DejaVuSans-30"/>
       <use x="63.623047" xlink:href="#DejaVuSans-2e"/>
       <use x="95.410156" xlink:href="#DejaVuSans-34"/>
      </g>
     </g>
    </g>
    <g id="ytick_4">
     <g id="line2d_20">
      <path clip-path="url(#pc7fe6cbd52)" d="M 56.12 134.460198 
L 399.984 134.460198 
" style="fill:none;stroke:#b0b0b0;stroke-linecap:square;stroke-width:0.8;"/>
     </g>
     <g id="line2d_21">
      <g>
       <use style="stroke:#000000;stroke-width:0.8;" x="56.12" xlink:href="#m49ee5bbafd" y="134.460198"/>
      </g>
     </g>
     <g id="text_10">
      <!-- 0.6 -->
      <g transform="translate(23.675 140.538948)scale(0.16 -0.16)">
       <use xlink:href="#DejaVuSans-30"/>
       <use x="63.623047" xlink:href="#DejaVuSans-2e"/>
       <use x="95.410156" xlink:href="#DejaVuSans-36"/>
      </g>
     </g>
    </g>
    <g id="ytick_5">
     <g id="line2d_22">
      <path clip-path="url(#pc7fe6cbd52)" d="M 56.12 80.986931 
L 399.984 80.986931 
" style="fill:none;stroke:#b0b0b0;stroke-linecap:square;stroke-width:0.8;"/>
     </g>
     <g id="line2d_23">
      <g>
       <use style="stroke:#000000;stroke-width:0.8;" x="56.12" xlink:href="#m49ee5bbafd" y="80.986931"/>
      </g>
     </g>
     <g id="text_11">
      <!-- 0.8 -->
      <g transform="translate(23.675 87.065681)scale(0.16 -0.16)">
       <use xlink:href="#DejaVuSans-30"/>
       <use x="63.623047" xlink:href="#DejaVuSans-2e"/>
       <use x="95.410156" xlink:href="#DejaVuSans-38"/>
      </g>
     </g>
    </g>
    <g id="ytick_6">
     <g id="line2d_24">
      <path clip-path="url(#pc7fe6cbd52)" d="M 56.12 27.513663 
L 399.984 27.513663 
" style="fill:none;stroke:#b0b0b0;stroke-linecap:square;stroke-width:0.8;"/>
     </g>
     <g id="line2d_25">
      <g>
       <use style="stroke:#000000;stroke-width:0.8;" x="56.12" xlink:href="#m49ee5bbafd" y="27.513663"/>
      </g>
     </g>
     <g id="text_12">
      <!-- 1.0 -->
      <g transform="translate(23.675 33.592413)scale(0.16 -0.16)">
       <use xlink:href="#DejaVuSans-31"/>
       <use x="63.623047" xlink:href="#DejaVuSans-2e"/>
       <use x="95.410156" xlink:href="#DejaVuSans-30"/>
      </g>
     </g>
    </g>
    <g id="text_13">
     <!-- Fraction of function,target pairs -->
     <defs>
      <path d="M 9.8125 72.90625 
L 51.703125 72.90625 
L 51.703125 64.59375 
L 19.671875 64.59375 
L 19.671875 43.109375 
L 48.578125 43.109375 
L 48.578125 34.8125 
L 19.671875 34.8125 
L 19.671875 0 
L 9.8125 0 
z
" id="DejaVuSans-46"/>
      <path d="M 41.109375 46.296875 
Q 39.59375 47.171875 37.8125 47.578125 
Q 36.03125 48 33.890625 48 
Q 26.265625 48 22.1875 43.046875 
Q 18.109375 38.09375 18.109375 28.8125 
L 18.109375 0 
L 9.078125 0 
L 9.078125 54.6875 
L 18.109375 54.6875 
L 18.109375 46.1875 
Q 20.953125 51.171875 25.484375 53.578125 
Q 30.03125 56 36.53125 56 
Q 37.453125 56 38.578125 55.875 
Q 39.703125 55.765625 41.0625 55.515625 
z
" id="DejaVuSans-72"/>
      <path d="M 48.78125 52.59375 
L 48.78125 44.1875 
Q 44.96875 46.296875 41.140625 47.34375 
Q 37.3125 48.390625 33.40625 48.390625 
Q 24.65625 48.390625 19.8125 42.84375 
Q 14.984375 37.3125 14.984375 27.296875 
Q 14.984375 17.28125 19.8125 11.734375 
Q 24.65625 6.203125 33.40625 6.203125 
Q 37.3125 6.203125 41.140625 7.25 
Q 44.96875 8.296875 48.78125 10.40625 
L 48.78125 2.09375 
Q 45.015625 0.34375 40.984375 -0.53125 
Q 36.96875 -1.421875 32.421875 -1.421875 
Q 20.0625 -1.421875 12.78125 6.34375 
Q 5.515625 14.109375 5.515625 27.296875 
Q 5.515625 40.671875 12.859375 48.328125 
Q 20.21875 56 33.015625 56 
Q 37.15625 56 41.109375 55.140625 
Q 45.0625 54.296875 48.78125 52.59375 
z
" id="DejaVuSans-63"/>
      <path d="M 18.3125 70.21875 
L 18.3125 54.6875 
L 36.8125 54.6875 
L 36.8125 47.703125 
L 18.3125 47.703125 
L 18.3125 18.015625 
Q 18.3125 11.328125 20.140625 9.421875 
Q 21.96875 7.515625 27.59375 7.515625 
L 36.8125 7.515625 
L 36.8125 0 
L 27.59375 0 
Q 17.1875 0 13.234375 3.875 
Q 9.28125 7.765625 9.28125 18.015625 
L 9.28125 47.703125 
L 2.6875 47.703125 
L 2.6875 54.6875 
L 9.28125 54.6875 
L 9.28125 70.21875 
z
" id="DejaVuSans-74"/>
      <path d="M 8.5 21.578125 
L 8.5 54.6875 
L 17.484375 54.6875 
L 17.484375 21.921875 
Q 17.484375 14.15625 20.5 10.265625 
Q 23.53125 6.390625 29.59375 6.390625 
Q 36.859375 6.390625 41.078125 11.03125 
Q 45.3125 15.671875 45.3125 23.6875 
L 45.3125 54.6875 
L 54.296875 54.6875 
L 54.296875 0 
L 45.3125 0 
L 45.3125 8.40625 
Q 42.046875 3.421875 37.71875 1 
Q 33.40625 -1.421875 27.6875 -1.421875 
Q 18.265625 -1.421875 13.375 4.4375 
Q 8.5 10.296875 8.5 21.578125 
z
M 31.109375 56 
z
" id="DejaVuSans-75"/>
      <path d="M 11.71875 12.40625 
L 22.015625 12.40625 
L 22.015625 4 
L 14.015625 -11.625 
L 7.71875 -11.625 
L 11.71875 4 
z
" id="DejaVuSans-2c"/>
      <path d="M 18.109375 8.203125 
L 18.109375 -20.796875 
L 9.078125 -20.796875 
L 9.078125 54.6875 
L 18.109375 54.6875 
L 18.109375 46.390625 
Q 20.953125 51.265625 25.265625 53.625 
Q 29.59375 56 35.59375 56 
Q 45.5625 56 51.78125 48.09375 
Q 58.015625 40.1875 58.015625 27.296875 
Q 58.015625 14.40625 51.78125 6.484375 
Q 45.5625 -1.421875 35.59375 -1.421875 
Q 29.59375 -1.421875 25.265625 0.953125 
Q 20.953125 3.328125 18.109375 8.203125 
z
M 48.6875 27.296875 
Q 48.6875 37.203125 44.609375 42.84375 
Q 40.53125 48.484375 33.40625 48.484375 
Q 26.265625 48.484375 22.1875 42.84375 
Q 18.109375 37.203125 18.109375 27.296875 
Q 18.109375 17.390625 22.1875 11.75 
Q 26.265625 6.109375 33.40625 6.109375 
Q 40.53125 6.109375 44.609375 11.75 
Q 48.6875 17.390625 48.6875 27.296875 
z
" id="DejaVuSans-70"/>
     </defs>
     <g transform="translate(16.139531 294.999375)rotate(-90)scale(0.17 -0.17)">
      <use xlink:href="#DejaVuSans-46"/>
      <use x="57.410156" xlink:href="#DejaVuSans-72"/>
      <use x="98.523438" xlink:href="#DejaVuSans-61"/>
      <use x="159.802734" xlink:href="#DejaVuSans-63"/>
      <use x="214.783203" xlink:href="#DejaVuSans-74"/>
      <use x="253.992188" xlink:href="#DejaVuSans-69"/>
      <use x="281.775391" xlink:href="#DejaVuSans-6f"/>
      <use x="342.957031" xlink:href="#DejaVuSans-6e"/>
      <use x="406.335938" xlink:href="#DejaVuSans-20"/>
      <use x="438.123047" xlink:href="#DejaVuSans-6f"/>
      <use x="499.304688" xlink:href="#DejaVuSans-66"/>
      <use x="534.509766" xlink:href="#DejaVuSans-20"/>
      <use x="566.296875" xlink:href="#DejaVuSans-66"/>
      <use x="601.501953" xlink:href="#DejaVuSans-75"/>
      <use x="664.880859" xlink:href="#DejaVuSans-6e"/>
      <use x="728.259766" xlink:href="#DejaVuSans-63"/>
      <use x="783.240234" xlink:href="#DejaVuSans-74"/>
      <use x="822.449219" xlink:href="#DejaVuSans-69"/>
      <use x="850.232422" xlink:href="#DejaVuSans-6f"/>
      <use x="911.414062" xlink:href="#DejaVuSans-6e"/>
      <use x="974.792969" xlink:href="#DejaVuSans-2c"/>
      <use x="1006.580078" xlink:href="#DejaVuSans-74"/>
      <use x="1045.789062" xlink:href="#DejaVuSans-61"/>
      <use x="1107.068359" xlink:href="#DejaVuSans-72"/>
      <use x="1148.166016" xlink:href="#DejaVuSans-67"/>
      <use x="1211.642578" xlink:href="#DejaVuSans-65"/>
      <use x="1273.166016" xlink:href="#DejaVuSans-74"/>
      <use x="1312.375" xlink:href="#DejaVuSans-20"/>
      <use x="1344.162109" xlink:href="#DejaVuSans-70"/>
      <use x="1407.638672" xlink:href="#DejaVuSans-61"/>
      <use x="1468.917969" xlink:href="#DejaVuSans-69"/>
      <use x="1496.701172" xlink:href="#DejaVuSans-72"/>
      <use x="1537.814453" xlink:href="#DejaVuSans-73"/>
     </g>
    </g>
   </g>
   <g id="line2d_26">
    <defs>
     <path d="M 0 1.5 
C 0.397805 1.5 0.77937 1.341951 1.06066 1.06066 
C 1.341951 0.77937 1.5 0.397805 1.5 0 
C 1.5 -0.397805 1.341951 -0.77937 1.06066 -1.06066 
C 0.77937 -1.341951 0.397805 -1.5 0 -1.5 
C -0.397805 -1.5 -0.77937 -1.341951 -1.06066 -1.06066 
C -1.341951 -0.77937 -1.5 -0.397805 -1.5 0 
C -1.5 0.397805 -1.341951 0.77937 -1.06066 1.06066 
C -0.77937 1.341951 -0.397805 1.5 0 1.5 
z
" id="m41feaf942c" style="stroke:#f5deb3;"/>
    </defs>
    <g>
     <use style="fill:#f5deb3;stroke:#f5deb3;" x="278.450111" xlink:href="#m41feaf942c" y="198.074947"/>
     <use style="fill:#f5deb3;stroke:#f5deb3;" x="278.450111" xlink:href="#m41feaf942c" y="198.074947"/>
    </g>
   </g>
   <g id="line2d_27">
    <g>
     <use style="fill:#f5deb3;stroke:#f5deb3;stroke-linejoin:miter;stroke-width:1.5;" x="143.188571" xlink:href="#m7c5cbca133" y="267.221413"/>
     <use style="fill:#f5deb3;stroke:#f5deb3;stroke-linejoin:miter;stroke-width:1.5;" x="166.91503" xlink:href="#m7c5cbca133" y="244.172591"/>
     <use style="fill:#f5deb3;stroke:#f5deb3;stroke-linejoin:miter;stroke-width:1.5;" x="261.437893" xlink:href="#m7c5cbca133" y="230.343298"/>
     <use style="fill:#f5deb3;stroke:#f5deb3;stroke-linejoin:miter;stroke-width:1.5;" x="278.450111" xlink:href="#m7c5cbca133" y="198.074947"/>
     <use style="fill:#f5deb3;stroke:#f5deb3;stroke-linejoin:miter;stroke-width:1.5;" x="333.429677" xlink:href="#m7c5cbca133" y="198.074947"/>
    </g>
   </g>
   <g id="line2d_28">
    <defs>
     <path d="M 0 1.5 
C 0.397805 1.5 0.77937 1.341951 1.06066 1.06066 
C 1.341951 0.77937 1.5 0.397805 1.5 0 
C 1.5 -0.397805 1.341951 -0.77937 1.06066 -1.06066 
C 0.77937 -1.341951 0.397805 -1.5 0 -1.5 
C -0.397805 -1.5 -0.77937 -1.341951 -1.06066 -1.06066 
C -1.341951 -0.77937 -1.5 -0.397805 -1.5 0 
C -1.5 0.397805 -1.341951 0.77937 -1.06066 1.06066 
C -0.77937 1.341951 -0.397805 1.5 0 1.5 
z
" id="m32c897024c" style="stroke:#999999;"/>
    </defs>
    <g>
     <use style="fill:#999999;stroke:#999999;" x="319.433009" xlink:href="#m32c897024c" y="230.343298"/>
     <use style="fill:#999999;stroke:#999999;" x="319.433009" xlink:href="#m32c897024c" y="230.343298"/>
    </g>
   </g>
   <g id="line2d_29">
    <path d="M -1 284.738518 
L 95.033331 284.738518 
L 95.033331 283.816565 
L 102.654196 283.816565 
L 102.654196 283.355589 
L 109.456673 283.355589 
L 109.456673 282.433636 
L 110.270248 282.433636 
L 110.288718 281.050707 
L 113.450132 281.050707 
L 113.450132 279.667777 
L 113.66386 279.667777 
L 113.66386 279.206801 
L 113.784809 279.206801 
L 113.784809 278.745825 
L 114.6944 278.745825 
L 114.6944 277.362895 
L 114.949712 277.362895 
L 114.949712 276.901919 
L 115.747522 276.901919 
L 115.747522 275.979966 
L 116.714489 275.979966 
L 116.714489 275.058013 
L 118.579221 275.058013 
L 118.579221 274.597037 
L 118.895538 274.597037 
L 118.895538 274.13606 
L 119.60817 274.13606 
L 119.60817 273.675084 
L 121.660843 273.675084 
L 121.660843 273.214107 
L 121.822125 273.214107 
L 121.822125 272.753131 
L 124.557701 272.753131 
L 124.557701 271.831178 
L 134.3416 271.831178 
L 134.3416 271.370201 
L 142.464401 271.370201 
L 142.464401 270.909225 
L 145.909929 270.909225 
L 145.909929 269.987272 
L 147.735212 269.987272 
L 147.735212 269.526296 
L 153.198929 269.526296 
L 153.198929 268.604343 
L 158.958685 268.604343 
L 158.958685 268.143366 
L 162.904175 268.143366 
L 162.904175 267.68239 
L 167.154431 267.68239 
L 167.154431 267.221413 
L 168.176699 267.221413 
L 168.176699 266.760437 
L 173.192005 266.760437 
L 173.192005 264.455555 
L 176.247244 264.455555 
L 176.247244 262.611649 
L 177.644689 262.611649 
L 177.644689 262.150673 
L 179.253135 262.150673 
L 179.253135 261.689696 
L 186.818585 261.689696 
L 186.818585 261.22872 
L 194.947377 261.22872 
L 194.947377 259.84579 
L 196.248489 259.84579 
L 196.248489 258.923837 
L 198.503205 258.923837 
L 198.503205 258.462861 
L 198.883161 258.462861 
L 198.883161 258.001885 
L 211.543524 258.001885 
L 211.543524 257.079932 
L 211.890081 257.079932 
L 211.890081 256.618955 
L 213.419914 256.618955 
L 213.419914 256.157979 
L 214.889691 256.157979 
L 214.889691 255.697002 
L 219.61246 255.697002 
L 219.61246 254.77505 
L 228.181766 254.77505 
L 228.181766 254.314073 
L 235.018311 254.314073 
L 235.018311 253.853097 
L 249.02225 253.853097 
L 249.02225 252.470167 
L 254.214502 252.470167 
L 254.314404 248.782356 
L 254.739646 248.782356 
L 254.739792 247.860403 
L 254.876077 247.860403 
L 254.876077 247.399426 
L 257.626061 247.399426 
L 257.626061 246.93845 
L 259.078675 246.93845 
L 259.079019 246.016497 
L 265.435867 246.016497 
L 265.435945 245.094544 
L 266.234287 245.094544 
L 266.234287 244.633568 
L 266.844644 244.633568 
L 266.844644 244.172591 
L 267.923141 244.172591 
L 267.923141 243.711615 
L 268.736687 243.711615 
L 268.736892 242.328686 
L 273.173672 242.328686 
L 273.28248 241.406733 
L 273.58379 241.406733 
L 273.58381 240.48478 
L 274.885124 240.48478 
L 274.885319 239.10185 
L 278.07876 239.10185 
L 278.096074 238.179898 
L 278.972719 238.179898 
L 278.972719 237.718921 
L 282.180632 237.718921 
L 282.180632 237.257945 
L 284.799371 237.257945 
L 284.799371 236.796968 
L 285.941446 236.796968 
L 285.941446 236.335992 
L 289.805679 236.335992 
L 289.805679 235.875015 
L 290.666509 235.875015 
L 290.666509 235.414039 
L 293.883363 235.414039 
L 293.883363 234.953062 
L 295.95972 234.953062 
L 295.959751 234.03111 
L 297.073422 234.03111 
L 297.073422 233.570133 
L 297.415228 233.570133 
L 297.415228 233.109157 
L 298.757089 233.109157 
L 298.757089 232.64818 
L 301.162477 232.64818 
L 301.162568 231.726227 
L 307.63434 231.726227 
L 307.63434 231.265251 
L 308.388146 231.265251 
L 308.388146 230.804274 
L 319.433009 230.804274 
L 319.433009 230.343298 
L 333.429677 230.343298 
L 333.429677 230.343298 
" style="fill:none;stroke:#999999;stroke-linecap:square;stroke-width:1.5;"/>
   </g>
   <g id="line2d_30"/>
   <g id="line2d_31">
    <path d="M 0 0 
" style="fill:none;stroke:#999999;stroke-linecap:square;stroke-width:1.5;"/>
   </g>
   <g id="line2d_32">
    <path clip-path="url(#pc7fe6cbd52)" d="M 254.198823 252.470167 
" style="fill:none;stroke:#999999;stroke-linecap:square;stroke-width:1.5;"/>
    <defs>
     <path d="M -12 12 
L 12 -12 
M -12 -12 
L 12 12 
" id="m314a06fb11" style="stroke:#999999;stroke-width:3;"/>
    </defs>
    <g clip-path="url(#pc7fe6cbd52)">
     <use style="fill:#999999;stroke:#999999;stroke-width:3;" x="254.198823" xlink:href="#m314a06fb11" y="252.470167"/>
    </g>
   </g>
   <g id="line2d_33">
    <path clip-path="url(#pc7fe6cbd52)" d="M 56.12 294.88 
L 56.12 294.88 
L 56.12 294.88 
L 56.12 294.88 
L 399.984 294.88 
" style="fill:none;stroke:#999999;stroke-linecap:square;stroke-width:1.5;"/>
   </g>
   <g id="line2d_34"/>
   <g id="line2d_35">
    <path clip-path="url(#pc7fe6cbd52)" d="M 0 0 
" style="fill:none;stroke:#999999;stroke-linecap:square;stroke-width:1.5;"/>
   </g>
   <g id="line2d_36">
    <g>
     <use style="fill:#999999;stroke:#999999;" x="312.931923" xlink:href="#m32c897024c" y="253.39212"/>
     <use style="fill:#999999;stroke:#999999;" x="312.931923" xlink:href="#m32c897024c" y="253.39212"/>
    </g>
   </g>
   <g id="line2d_37">
    <path d="M -1 293.958047 
L 4.578827 293.958047 
L 4.578827 292.575118 
L 11.5548 292.575118 
L 11.5548 290.731212 
L 16.504332 290.731212 
L 16.504332 289.809259 
L 20.343487 289.809259 
L 20.343487 289.348283 
L 23.480305 289.348283 
L 23.480305 288.42633 
L 26.132446 288.42633 
L 26.132446 287.965353 
L 28.429836 287.965353 
L 28.429836 287.0434 
L 39.244964 287.0434 
L 39.244964 286.582424 
L 43.312001 286.582424 
L 43.312001 286.121448 
L 48.03365 286.121448 
L 48.03365 284.738518 
L 58.894597 284.738518 
L 58.894597 284.277542 
L 62.213479 284.277542 
L 62.213479 283.355589 
L 62.512701 283.355589 
L 62.512701 282.433636 
L 68.678884 282.433636 
L 68.678884 281.97266 
L 70.071946 281.97266 
L 70.071946 281.511683 
L 84.649592 281.511683 
L 84.649592 280.128754 
L 102.682942 280.128754 
L 102.682942 279.667777 
L 111.551865 279.667777 
L 111.551865 278.745825 
L 140.140982 278.745825 
L 140.140982 277.362895 
L 140.827162 277.362895 
L 140.827162 276.901919 
L 141.776637 276.901919 
L 141.776637 275.979966 
L 145.375485 275.979966 
L 145.375485 275.518989 
L 160.648481 275.518989 
L 160.648481 275.058013 
L 173.089652 275.058013 
L 173.089652 274.13606 
L 175.21638 274.13606 
L 175.21638 272.753131 
L 185.429865 272.753131 
L 185.429865 271.831178 
L 194.64745 271.831178 
L 194.64745 271.370201 
L 206.001057 271.370201 
L 206.001057 270.448249 
L 224.572801 270.448249 
L 224.572801 269.526296 
L 234.177938 269.526296 
L 234.177938 268.604343 
L 237.541337 268.604343 
L 237.541337 268.143366 
L 246.833954 268.143366 
L 246.833954 267.221413 
L 254.204525 267.221413 
L 254.204525 266.760437 
L 254.205763 266.760437 
L 254.205763 266.299461 
L 254.221054 266.299461 
L 254.221054 265.838484 
L 254.273033 265.838484 
L 254.273033 265.377508 
L 254.73009 265.377508 
L 254.73009 264.916531 
L 255.212638 264.916531 
L 255.212638 264.455555 
L 259.737033 264.455555 
L 259.737033 263.072625 
L 269.115116 263.072625 
L 269.115116 262.611649 
L 273.157907 262.611649 
L 273.157907 262.150673 
L 274.803858 262.150673 
L 274.803858 261.689696 
L 279.609912 261.689696 
L 279.609912 260.306767 
L 282.93104 260.306767 
L 282.93104 259.84579 
L 283.148074 259.84579 
L 283.148074 259.384814 
L 285.898431 259.384814 
L 285.898431 258.923837 
L 286.081263 258.923837 
L 286.081263 258.001885 
L 287.702384 258.001885 
L 287.702384 257.540908 
L 290.772823 257.540908 
L 290.772823 257.079932 
L 292.712407 257.079932 
L 292.712407 256.618955 
L 296.037794 256.618955 
L 296.037794 256.157979 
L 297.486897 256.157979 
L 297.486897 255.697002 
L 298.823373 255.697002 
L 298.823373 255.236026 
L 305.197528 255.236026 
L 305.197528 254.77505 
L 306.063156 254.77505 
L 306.063156 254.314073 
L 307.673783 254.314073 
L 307.673783 253.853097 
L 312.931923 253.853097 
L 312.931923 253.39212 
L 333.429677 253.39212 
" style="fill:none;stroke:#999999;stroke-linecap:square;stroke-width:1.5;"/>
   </g>
   <g id="line2d_38"/>
   <g id="line2d_39">
    <path d="M 0 0 
" style="fill:none;stroke:#999999;stroke-linecap:square;stroke-width:1.5;"/>
   </g>
   <g id="line2d_40">
    <path clip-path="url(#pc7fe6cbd52)" d="M 254.198341 267.221413 
" style="fill:none;stroke:#999999;stroke-linecap:square;stroke-width:1.5;"/>
    <g clip-path="url(#pc7fe6cbd52)">
     <use style="fill:#999999;stroke:#999999;stroke-width:3;" x="254.198341" xlink:href="#m314a06fb11" y="267.221413"/>
    </g>
   </g>
   <g id="line2d_41">
    <g>
     <use style="fill:#999999;stroke:#999999;" x="340.653051" xlink:href="#m32c897024c" y="262.611649"/>
     <use style="fill:#999999;stroke:#999999;" x="340.653051" xlink:href="#m32c897024c" y="262.611649"/>
    </g>
   </g>
   <g id="line2d_42">
    <path d="M 4.578827 294.88 
L 4.578827 293.958047 
L 16.504332 293.958047 
L 16.504332 293.497071 
L 20.343487 293.497071 
L 20.343487 293.036094 
L 23.480305 293.036094 
L 23.480305 292.114141 
L 26.132446 292.114141 
L 26.132446 291.653165 
L 40.355341 291.653165 
L 40.355341 290.270236 
L 41.398379 290.270236 
L 41.398379 288.42633 
L 42.381782 288.42633 
L 42.381782 287.965353 
L 48.708438 287.965353 
L 48.708438 286.582424 
L 78.513047 286.582424 
L 78.513047 285.660471 
L 78.860632 285.660471 
L 78.860632 285.199495 
L 83.286117 285.199495 
L 83.286117 284.738518 
L 94.579351 284.738518 
L 94.579351 284.277542 
L 96.859481 284.277542 
L 96.859481 283.355589 
L 115.558307 283.355589 
L 115.558307 282.433636 
L 123.034301 282.433636 
L 123.034301 281.050707 
L 125.314081 281.050707 
L 125.314081 280.58973 
L 126.966489 280.58973 
L 126.966489 280.128754 
L 150.303987 280.128754 
L 150.303987 279.667777 
L 156.919696 279.667777 
L 156.919696 278.745825 
L 162.552891 278.745825 
L 162.552891 278.284848 
L 162.581189 278.284848 
L 162.581189 277.823872 
L 164.312954 277.823872 
L 164.312954 277.362895 
L 186.414517 277.362895 
L 186.414517 276.901919 
L 205.833083 276.901919 
L 205.833083 276.440942 
L 210.039221 276.440942 
L 210.039221 275.058013 
L 212.454238 275.058013 
L 212.454238 274.13606 
L 240.955524 274.13606 
L 240.955524 273.214107 
L 248.343614 273.214107 
L 248.343614 272.292154 
L 267.547503 272.292154 
L 267.547503 271.831178 
L 267.946343 271.831178 
L 267.946343 270.448249 
L 272.463742 270.448249 
L 272.463742 269.987272 
L 286.843228 269.987272 
L 286.843228 269.526296 
L 293.822369 269.526296 
L 293.822369 269.065319 
L 293.82664 269.065319 
L 293.82664 268.604343 
L 293.834429 268.604343 
L 293.834429 268.143366 
L 293.917163 268.143366 
L 293.917163 267.68239 
L 293.945623 267.68239 
L 293.945623 267.221413 
L 297.196435 267.221413 
L 297.196435 266.760437 
L 305.805446 266.760437 
L 305.805446 266.299461 
L 307.513715 266.299461 
L 307.513715 265.377508 
L 313.918378 265.377508 
L 313.918378 264.916531 
L 322.235951 264.916531 
L 322.235951 263.994578 
L 330.051518 263.994578 
L 330.051518 263.533602 
L 332.027343 263.533602 
L 332.027343 263.072625 
L 333.429677 263.072625 
" style="fill:none;stroke:#999999;stroke-linecap:square;stroke-width:1.5;"/>
   </g>
   <g id="line2d_43"/>
   <g id="line2d_44">
    <path d="M 0 0 
" style="fill:none;stroke:#999999;stroke-linecap:square;stroke-width:1.5;"/>
   </g>
   <g id="line2d_45">
    <path clip-path="url(#pc7fe6cbd52)" d="M 293.814009 269.526296 
" style="fill:none;stroke:#999999;stroke-linecap:square;stroke-width:1.5;"/>
    <g clip-path="url(#pc7fe6cbd52)">
     <use style="fill:#999999;stroke:#999999;stroke-width:3;" x="293.814009" xlink:href="#m314a06fb11" y="269.526296"/>
    </g>
   </g>
   <g id="line2d_46">
    <g>
     <use style="fill:#999999;stroke:#999999;" x="308.926494" xlink:href="#m32c897024c" y="193.465183"/>
     <use style="fill:#999999;stroke:#999999;" x="308.926494" xlink:href="#m32c897024c" y="193.465183"/>
    </g>
   </g>
   <g id="line2d_47">
    <path d="M 135.415734 294.88 
L 135.445704 293.036094 
L 135.70047 293.036094 
L 135.70047 292.575118 
L 135.934895 292.575118 
L 135.934895 292.114141 
L 136.292871 292.114141 
L 136.292871 291.192188 
L 136.599604 291.192188 
L 136.619594 289.348283 
L 137.162329 289.348283 
L 137.162329 288.887306 
L 137.312659 288.887306 
L 137.312659 287.965353 
L 137.548972 287.965353 
L 137.583007 287.0434 
L 137.826839 287.0434 
L 137.916003 284.738518 
L 138.158847 284.738518 
L 138.228126 282.894612 
L 138.35502 282.894612 
L 138.35502 282.433636 
L 138.495322 282.433636 
L 138.495322 281.97266 
L 138.620267 281.97266 
L 138.620267 281.050707 
L 138.881486 281.050707 
L 138.979301 278.745825 
L 139.30367 278.745825 
L 139.399121 277.362895 
L 139.947796 277.362895 
L 139.947796 276.901919 
L 140.225432 276.901919 
L 140.238387 275.058013 
L 140.692098 275.058013 
L 140.692098 274.597037 
L 140.852173 274.597037 
L 140.852173 274.13606 
L 141.164857 274.13606 
L 141.210814 270.909225 
L 141.290184 270.909225 
L 141.290184 270.448249 
L 141.791434 270.448249 
L 141.850496 269.065319 
L 142.324442 269.065319 
L 142.398847 267.221413 
L 142.620153 267.221413 
L 142.620153 265.838484 
L 142.732548 265.838484 
L 142.752142 264.916531 
L 143.0599 264.916531 
L 143.114771 263.533602 
L 143.445749 263.533602 
L 143.445749 262.611649 
L 143.646103 262.611649 
L 143.646103 261.689696 
L 144.295027 261.689696 
L 144.295027 260.767743 
L 144.457938 260.767743 
L 144.457938 260.306767 
L 144.601744 260.306767 
L 144.601744 259.384814 
L 145.136038 259.384814 
L 145.136038 258.462861 
L 145.416269 258.462861 
L 145.495164 256.618955 
L 145.533285 256.618955 
L 145.533285 256.157979 
L 145.786077 256.157979 
L 145.786077 255.697002 
L 146.446335 255.697002 
L 146.446335 255.236026 
L 146.992779 255.236026 
L 146.992779 254.314073 
L 149.553788 254.314073 
L 149.553788 253.853097 
L 150.568876 253.853097 
L 150.568876 252.931144 
L 151.99307 252.931144 
L 152.046939 251.548214 
L 152.236585 251.548214 
L 152.236585 250.165285 
L 154.156484 250.165285 
L 154.156484 248.321379 
L 154.378522 248.321379 
L 154.378522 247.399426 
L 155.880878 247.399426 
L 155.880878 246.477474 
L 156.124353 246.477474 
L 156.124353 245.094544 
L 156.607458 245.094544 
L 156.607458 243.711615 
L 158.643899 243.711615 
L 158.643899 243.250638 
L 159.443664 243.250638 
L 159.443664 242.789662 
L 161.572299 242.789662 
L 161.572299 241.406733 
L 165.620983 241.406733 
L 165.620983 240.48478 
L 168.106988 240.48478 
L 168.106988 238.640874 
L 169.402729 238.640874 
L 169.402729 238.179898 
L 170.494262 238.179898 
L 170.519346 236.335992 
L 170.926128 236.335992 
L 170.926128 235.875015 
L 174.173924 235.875015 
L 174.173924 234.953062 
L 176.28354 234.953062 
L 176.28354 233.570133 
L 177.914608 233.570133 
L 177.914608 233.109157 
L 178.346555 233.109157 
L 178.346555 232.64818 
L 178.795489 232.64818 
L 178.795489 231.726227 
L 179.580249 231.726227 
L 179.580249 231.265251 
L 182.395205 231.265251 
L 182.395205 230.804274 
L 184.53011 230.804274 
L 184.53011 229.882322 
L 185.514184 229.882322 
L 185.514184 229.421345 
L 187.080304 229.421345 
L 187.080304 228.499392 
L 195.507368 228.499392 
L 195.507368 227.577439 
L 196.859638 227.577439 
L 196.859638 227.116463 
L 197.958029 227.116463 
L 197.958029 225.733534 
L 202.590888 225.733534 
L 202.590888 223.889628 
L 203.578167 223.889628 
L 203.578167 223.428651 
L 207.348593 223.428651 
L 207.348593 222.506699 
L 217.496976 222.506699 
L 217.496976 221.123769 
L 232.748821 221.123769 
L 232.748821 219.74084 
L 254.239669 219.74084 
L 254.239669 219.279863 
L 254.36422 219.279863 
L 254.461268 216.053028 
L 254.756906 216.053028 
L 254.756906 215.592052 
L 255.292699 215.592052 
L 255.363637 212.826193 
L 256.124442 212.826193 
L 256.124442 211.90424 
L 266.205799 211.90424 
L 266.28192 210.521311 
L 266.405394 210.521311 
L 266.405394 209.138382 
L 266.571739 209.138382 
L 266.571739 208.677405 
L 266.716357 208.677405 
L 266.716357 207.755452 
L 267.113836 207.755452 
L 267.113836 207.294476 
L 268.148385 207.294476 
L 268.148385 206.372523 
L 273.155289 206.372523 
L 273.187908 204.067641 
L 273.288029 204.067641 
L 273.288029 203.606664 
L 273.472392 203.606664 
L 273.472392 202.684712 
L 274.475626 202.684712 
L 274.475626 202.223735 
L 278.115459 202.223735 
L 278.1907 201.301782 
L 278.329534 201.301782 
L 278.348156 200.379829 
L 282.127964 200.379829 
L 282.127964 199.918853 
L 282.727118 199.918853 
L 282.727118 199.457876 
L 285.361689 199.457876 
L 285.361689 198.535924 
L 287.758378 198.535924 
L 287.758378 198.074947 
L 288.280616 198.074947 
L 288.280616 197.613971 
L 292.13474 197.613971 
L 292.13474 197.152994 
L 292.472229 197.152994 
L 292.472229 196.231041 
L 294.016617 196.231041 
L 294.016617 195.770065 
L 295.84007 195.770065 
L 295.84007 195.309088 
L 297.30523 195.309088 
L 297.30523 194.848112 
L 304.963952 194.848112 
L 304.963952 194.387136 
L 305.0817 194.387136 
L 305.0817 193.926159 
L 308.926494 193.926159 
L 308.926494 193.465183 
L 333.429677 193.465183 
L 333.429677 193.465183 
" style="fill:none;stroke:#999999;stroke-linecap:square;stroke-width:1.5;"/>
   </g>
   <g id="line2d_48"/>
   <g id="line2d_49">
    <path d="M 0 0 
" style="fill:none;stroke:#999999;stroke-linecap:square;stroke-width:1.5;"/>
   </g>
   <g id="line2d_50">
    <path clip-path="url(#pc7fe6cbd52)" d="M 254.198341 219.74084 
" style="fill:none;stroke:#999999;stroke-linecap:square;stroke-width:1.5;"/>
    <g clip-path="url(#pc7fe6cbd52)">
     <use style="fill:#999999;stroke:#999999;stroke-width:3;" x="254.198341" xlink:href="#m314a06fb11" y="219.74084"/>
    </g>
   </g>
   <g id="line2d_51">
    <g>
     <use style="fill:#999999;stroke:#999999;" x="300.957299" xlink:href="#m32c897024c" y="239.562827"/>
     <use style="fill:#999999;stroke:#999999;" x="300.957299" xlink:href="#m32c897024c" y="239.562827"/>
    </g>
   </g>
   <g id="line2d_52">
    <path d="M 152.097391 294.88 
L 152.097391 294.419024 
L 152.933182 294.419024 
L 152.933182 293.036094 
L 154.114621 293.036094 
L 154.114621 291.653165 
L 156.323803 291.653165 
L 156.323803 291.192188 
L 157.072499 291.192188 
L 157.072499 290.731212 
L 157.49564 290.731212 
L 157.49564 290.270236 
L 159.05114 290.270236 
L 159.05114 289.809259 
L 159.796295 289.809259 
L 159.796295 289.348283 
L 159.97405 289.348283 
L 159.97405 288.887306 
L 160.678114 288.887306 
L 160.678114 287.965353 
L 161.247893 287.965353 
L 161.247893 287.504377 
L 161.499063 287.504377 
L 161.499063 287.0434 
L 161.648024 287.0434 
L 161.648024 286.121448 
L 161.825275 286.121448 
L 161.825275 285.199495 
L 162.231295 285.199495 
L 162.231295 284.738518 
L 163.12303 284.738518 
L 163.12303 284.277542 
L 163.60509 284.277542 
L 163.60509 283.816565 
L 163.839916 283.816565 
L 163.883386 282.894612 
L 165.268637 282.894612 
L 165.319954 281.050707 
L 165.567586 281.050707 
L 165.567586 280.58973 
L 166.082709 280.58973 
L 166.082709 280.128754 
L 166.679216 280.128754 
L 166.779884 278.745825 
L 167.806382 278.745825 
L 167.806382 278.284848 
L 168.691029 278.284848 
L 168.691029 277.823872 
L 170.292265 277.823872 
L 170.292265 276.901919 
L 170.484218 276.901919 
L 170.484218 276.440942 
L 170.931567 276.440942 
L 170.931567 275.979966 
L 171.322982 275.979966 
L 171.322982 275.518989 
L 172.226966 275.518989 
L 172.226966 275.058013 
L 172.753957 275.058013 
L 172.753957 274.13606 
L 173.05027 274.13606 
L 173.05027 272.292154 
L 174.051881 272.292154 
L 174.051881 271.370201 
L 178.746527 271.370201 
L 178.746527 270.448249 
L 179.71427 270.448249 
L 179.71427 269.526296 
L 180.501862 269.526296 
L 180.501862 268.604343 
L 203.551401 268.604343 
L 203.551401 268.143366 
L 208.640425 268.143366 
L 208.640425 267.68239 
L 218.425096 267.68239 
L 218.425096 267.221413 
L 219.563521 267.221413 
L 219.563521 266.760437 
L 220.289066 266.760437 
L 220.289066 265.377508 
L 220.420566 265.377508 
L 220.420566 264.916531 
L 220.706942 264.916531 
L 220.786991 263.072625 
L 221.162156 263.072625 
L 221.162156 262.611649 
L 238.383327 262.611649 
L 238.45671 261.22872 
L 238.501561 261.22872 
L 238.53269 258.462861 
L 240.373969 258.462861 
L 240.373969 258.001885 
L 244.075217 258.001885 
L 244.075217 257.079932 
L 254.297687 257.079932 
L 254.351571 255.697002 
L 254.43406 255.697002 
L 254.43406 254.77505 
L 255.081426 254.77505 
L 255.081426 254.314073 
L 256.504221 254.314073 
L 256.55173 252.009191 
L 261.796328 252.009191 
L 261.796328 251.548214 
L 266.160674 251.548214 
L 266.200633 248.321379 
L 267.315389 248.321379 
L 267.340749 247.399426 
L 272.860409 247.399426 
L 272.860409 246.93845 
L 273.146163 246.93845 
L 273.178754 245.094544 
L 273.399248 245.094544 
L 273.399248 244.633568 
L 278.657671 244.633568 
L 278.657671 244.172591 
L 281.916328 244.172591 
L 281.916328 243.711615 
L 285.05096 243.711615 
L 285.05096 243.250638 
L 287.575271 243.250638 
L 287.575271 242.789662 
L 287.806432 242.789662 
L 287.806432 242.328686 
L 290.087755 242.328686 
L 290.087755 241.867709 
L 290.280569 241.867709 
L 290.280569 241.406733 
L 291.921865 241.406733 
L 291.921865 240.945756 
L 293.742539 240.945756 
L 293.742539 240.48478 
L 297.026178 240.48478 
L 297.026178 240.023803 
L 300.957299 240.023803 
L 300.957299 239.562827 
L 333.429677 239.562827 
L 333.429677 239.562827 
" style="fill:none;stroke:#999999;stroke-linecap:square;stroke-width:1.5;"/>
   </g>
   <g id="line2d_53"/>
   <g id="line2d_54">
    <path d="M 0 0 
" style="fill:none;stroke:#999999;stroke-linecap:square;stroke-width:1.5;"/>
   </g>
   <g id="line2d_55">
    <path clip-path="url(#pc7fe6cbd52)" d="M 254.198345 257.079932 
" style="fill:none;stroke:#999999;stroke-linecap:square;stroke-width:1.5;"/>
    <g clip-path="url(#pc7fe6cbd52)">
     <use style="fill:#999999;stroke:#999999;stroke-width:3;" x="254.198345" xlink:href="#m314a06fb11" y="257.079932"/>
    </g>
   </g>
   <g id="line2d_56">
    <g>
     <use style="fill:#999999;stroke:#999999;" x="328.071988" xlink:href="#m32c897024c" y="230.343298"/>
     <use style="fill:#999999;stroke:#999999;" x="328.071988" xlink:href="#m32c897024c" y="230.343298"/>
    </g>
   </g>
   <g id="line2d_57">
    <path d="M 137.266543 294.88 
L 137.266543 294.419024 
L 137.938222 294.419024 
L 137.938222 293.036094 
L 138.369462 293.036094 
L 138.455865 291.653165 
L 139.162941 291.653165 
L 139.162941 290.731212 
L 139.405918 290.731212 
L 139.405918 289.348283 
L 140.254568 289.348283 
L 140.254568 288.887306 
L 140.367408 288.887306 
L 140.367408 288.42633 
L 141.050968 288.42633 
L 141.050968 287.965353 
L 141.192446 287.965353 
L 141.284092 286.582424 
L 141.326693 286.582424 
L 141.326693 286.121448 
L 142.006038 286.121448 
L 142.006038 285.660471 
L 142.668011 285.660471 
L 142.668011 285.199495 
L 142.808002 285.199495 
L 142.808002 284.738518 
L 143.040654 284.738518 
L 143.040654 282.894612 
L 143.504761 282.894612 
L 143.558234 281.050707 
L 144.238668 281.050707 
L 144.238668 280.58973 
L 144.394484 280.58973 
L 144.442731 278.745825 
L 144.604256 278.745825 
L 144.604256 278.284848 
L 144.838781 278.284848 
L 144.851166 275.979966 
L 145.317743 275.979966 
L 145.397089 274.13606 
L 145.762608 274.13606 
L 145.762608 273.675084 
L 146.17793 273.675084 
L 146.17793 273.214107 
L 146.810343 273.214107 
L 146.810343 271.831178 
L 147.093061 271.831178 
L 147.093061 271.370201 
L 149.632735 271.370201 
L 149.632735 270.909225 
L 150.584853 270.909225 
L 150.584853 269.065319 
L 150.929173 269.065319 
L 150.929173 268.143366 
L 152.58288 268.143366 
L 152.58288 266.760437 
L 153.700661 266.760437 
L 153.700661 265.838484 
L 153.848077 265.838484 
L 153.848077 265.377508 
L 154.114621 265.377508 
L 154.114621 263.533602 
L 155.000512 263.533602 
L 155.000512 263.072625 
L 156.272882 263.072625 
L 156.272882 262.611649 
L 157.469496 262.611649 
L 157.469496 262.150673 
L 160.37645 262.150673 
L 160.37645 261.22872 
L 161.20296 261.22872 
L 161.20296 260.767743 
L 162.504146 260.767743 
L 162.504146 260.306767 
L 163.117892 260.306767 
L 163.117892 259.84579 
L 163.518289 259.84579 
L 163.518289 258.923837 
L 174.186081 258.923837 
L 174.186081 258.462861 
L 197.568172 258.462861 
L 197.568172 257.540908 
L 209.469203 257.540908 
L 209.469203 257.079932 
L 211.524268 257.079932 
L 211.524268 256.157979 
L 216.851064 256.157979 
L 216.851064 255.236026 
L 239.736934 255.236026 
L 239.736934 253.853097 
L 254.245122 253.853097 
L 254.284536 250.165285 
L 254.361979 250.165285 
L 254.361979 249.704309 
L 255.431225 249.704309 
L 255.431225 249.243332 
L 255.581514 249.243332 
L 255.581514 248.782356 
L 257.922407 248.782356 
L 257.922407 247.399426 
L 259.378233 247.399426 
L 259.378233 246.93845 
L 266.147963 246.93845 
L 266.16065 245.094544 
L 266.82933 245.094544 
L 266.82933 244.633568 
L 268.086445 244.633568 
L 268.086445 243.250638 
L 268.908001 243.250638 
L 268.908001 242.328686 
L 273.112916 242.328686 
L 273.133361 239.562827 
L 278.40571 239.562827 
L 278.40571 239.10185 
L 279.058622 239.10185 
L 279.058622 238.179898 
L 281.897875 238.179898 
L 281.897875 237.718921 
L 282.700604 237.718921 
L 282.700604 236.796968 
L 285.042104 236.796968 
L 285.042104 236.335992 
L 285.704707 236.335992 
L 285.704707 235.875015 
L 290.486892 235.875015 
L 290.486892 234.953062 
L 292.160592 234.953062 
L 292.160592 234.492086 
L 292.457187 234.492086 
L 292.457187 234.03111 
L 293.82138 234.03111 
L 293.82138 233.570133 
L 299.608235 233.570133 
L 299.608235 233.109157 
L 299.897427 233.109157 
L 299.897427 232.187204 
L 303.186258 232.187204 
L 303.186258 231.726227 
L 309.744187 231.726227 
L 309.744187 231.265251 
L 313.955311 231.265251 
L 313.955311 230.804274 
L 328.071988 230.804274 
L 328.071988 230.343298 
L 333.429677 230.343298 
L 333.429677 230.343298 
" style="fill:none;stroke:#999999;stroke-linecap:square;stroke-width:1.5;"/>
   </g>
   <g id="line2d_58"/>
   <g id="line2d_59">
    <path d="M 0 0 
" style="fill:none;stroke:#999999;stroke-linecap:square;stroke-width:1.5;"/>
   </g>
   <g id="line2d_60">
    <path clip-path="url(#pc7fe6cbd52)" d="M 254.198345 253.853097 
" style="fill:none;stroke:#999999;stroke-linecap:square;stroke-width:1.5;"/>
    <g clip-path="url(#pc7fe6cbd52)">
     <use style="fill:#999999;stroke:#999999;stroke-width:3;" x="254.198345" xlink:href="#m314a06fb11" y="253.853097"/>
    </g>
   </g>
   <g id="line2d_61">
    <path d="M 333.429677 294.88 
L 333.429677 27.513663 
" style="fill:none;stroke:#000000;stroke-linecap:square;stroke-width:1.5;"/>
   </g>
   <g id="patch_3">
    <path d="M 56.12 294.88 
L 56.12 24.84 
" style="fill:none;stroke:#000000;stroke-linecap:square;stroke-linejoin:miter;stroke-width:0.8;"/>
   </g>
   <g id="patch_4">
    <path d="M 399.984 294.88 
L 399.984 24.84 
" style="fill:none;stroke:#000000;stroke-linecap:square;stroke-linejoin:miter;stroke-width:0.8;"/>
   </g>
   <g id="patch_5">
    <path d="M 56.12 294.88 
L 399.984 294.88 
" style="fill:none;stroke:#000000;stroke-linecap:square;stroke-linejoin:miter;stroke-width:0.8;"/>
   </g>
   <g id="patch_6">
    <path d="M 56.12 24.84 
L 399.984 24.84 
" style="fill:none;stroke:#000000;stroke-linecap:square;stroke-linejoin:miter;stroke-width:0.8;"/>
   </g>
   <g id="text_14">
    <!-- best 2016 -->
    <defs>
     <path d="M 48.6875 27.296875 
Q 48.6875 37.203125 44.609375 42.84375 
Q 40.53125 48.484375 33.40625 48.484375 
Q 26.265625 48.484375 22.1875 42.84375 
Q 18.109375 37.203125 18.109375 27.296875 
Q 18.109375 17.390625 22.1875 11.75 
Q 26.265625 6.109375 33.40625 6.109375 
Q 40.53125 6.109375 44.609375 11.75 
Q 48.6875 17.390625 48.6875 27.296875 
z
M 18.109375 46.390625 
Q 20.953125 51.265625 25.265625 53.625 
Q 29.59375 56 35.59375 56 
Q 45.5625 56 51.78125 48.09375 
Q 58.015625 40.1875 58.015625 27.296875 
Q 58.015625 14.40625 51.78125 6.484375 
Q 45.5625 -1.421875 35.59375 -1.421875 
Q 29.59375 -1.421875 25.265625 0.953125 
Q 20.953125 3.328125 18.109375 8.203125 
L 18.109375 0 
L 9.078125 0 
L 9.078125 75.984375 
L 18.109375 75.984375 
z
" id="DejaVuSans-62"/>
    </defs>
    <g transform="translate(369.479935 294.223611)scale(0.17 -0.17)">
     <use xlink:href="#DejaVuSans-62"/>
     <use x="63.476562" xlink:href="#DejaVuSans-65"/>
     <use x="125" xlink:href="#DejaVuSans-73"/>
     <use x="177.099609" xlink:href="#DejaVuSans-74"/>
     <use x="216.308594" xlink:href="#DejaVuSans-20"/>
     <use x="248.095703" xlink:href="#DejaVuSans-32"/>
     <use x="311.71875" xlink:href="#DejaVuSans-30"/>
     <use x="375.341797" xlink:href="#DejaVuSans-31"/>
     <use x="438.964844" xlink:href="#DejaVuSans-36"/>
    </g>
   </g>
   <g id="text_15">
    <!-- bbob-biobj f51, 40-D -->
    <defs>
     <path d="M 9.421875 54.6875 
L 18.40625 54.6875 
L 18.40625 -0.984375 
Q 18.40625 -11.421875 14.421875 -16.109375 
Q 10.453125 -20.796875 1.609375 -20.796875 
L -1.8125 -20.796875 
L -1.8125 -13.1875 
L 0.59375 -13.1875 
Q 5.71875 -13.1875 7.5625 -10.8125 
Q 9.421875 -8.453125 9.421875 -0.984375 
z
M 9.421875 75.984375 
L 18.40625 75.984375 
L 18.40625 64.59375 
L 9.421875 64.59375 
z
" id="DejaVuSans-6a"/>
     <path d="M 10.796875 72.90625 
L 49.515625 72.90625 
L 49.515625 64.59375 
L 19.828125 64.59375 
L 19.828125 46.734375 
Q 21.96875 47.46875 24.109375 47.828125 
Q 26.265625 48.1875 28.421875 48.1875 
Q 40.625 48.1875 47.75 41.5 
Q 54.890625 34.8125 54.890625 23.390625 
Q 54.890625 11.625 47.5625 5.09375 
Q 40.234375 -1.421875 26.90625 -1.421875 
Q 22.3125 -1.421875 17.546875 -0.640625 
Q 12.796875 0.140625 7.71875 1.703125 
L 7.71875 11.625 
Q 12.109375 9.234375 16.796875 8.0625 
Q 21.484375 6.890625 26.703125 6.890625 
Q 35.15625 6.890625 40.078125 11.328125 
Q 45.015625 15.765625 45.015625 23.390625 
Q 45.015625 31 40.078125 35.4375 
Q 35.15625 39.890625 26.703125 39.890625 
Q 22.75 39.890625 18.8125 39.015625 
Q 14.890625 38.140625 10.796875 36.28125 
z
" id="DejaVuSans-35"/>
     <path d="M 19.671875 64.796875 
L 19.671875 8.109375 
L 31.59375 8.109375 
Q 46.6875 8.109375 53.6875 14.9375 
Q 60.6875 21.78125 60.6875 36.53125 
Q 60.6875 51.171875 53.6875 57.984375 
Q 46.6875 64.796875 31.59375 64.796875 
z
M 9.8125 72.90625 
L 30.078125 72.90625 
Q 51.265625 72.90625 61.171875 64.09375 
Q 71.09375 55.28125 71.09375 36.53125 
Q 71.09375 17.671875 61.125 8.828125 
Q 51.171875 0 30.078125 0 
L 9.8125 0 
z
" id="DejaVuSans-44"/>
    </defs>
    <g transform="translate(59.55864 35.290806)scale(0.102 -0.102)">
     <use xlink:href="#DejaVuSans-62"/>
     <use x="63.476562" xlink:href="#DejaVuSans-62"/>
     <use x="126.953125" xlink:href="#DejaVuSans-6f"/>
     <use x="188.134766" xlink:href="#DejaVuSans-62"/>
     <use x="251.611328" xlink:href="#DejaVuSans-2d"/>
     <use x="287.695312" xlink:href="#DejaVuSans-62"/>
     <use x="351.171875" xlink:href="#DejaVuSans-69"/>
     <use x="378.955078" xlink:href="#DejaVuSans-6f"/>
     <use x="440.136719" xlink:href="#DejaVuSans-62"/>
     <use x="503.613281" xlink:href="#DejaVuSans-6a"/>
     <use x="531.396484" xlink:href="#DejaVuSans-20"/>
     <use x="563.183594" xlink:href="#DejaVuSans-66"/>
     <use x="598.388672" xlink:href="#DejaVuSans-35"/>
     <use x="662.011719" xlink:href="#DejaVuSans-31"/>
     <use x="725.634766" xlink:href="#DejaVuSans-2c"/>
     <use x="757.421875" xlink:href="#DejaVuSans-20"/>
     <use x="789.208984" xlink:href="#DejaVuSans-34"/>
     <use x="852.832031" xlink:href="#DejaVuSans-30"/>
     <use x="916.455078" xlink:href="#DejaVuSans-2d"/>
     <use x="952.539062" xlink:href="#DejaVuSans-44"/>
    </g>
    <!-- 58 targets: 1..-1.0e-4 -->
    <defs>
     <path d="M 11.71875 12.40625 
L 22.015625 12.40625 
L 22.015625 0 
L 11.71875 0 
z
M 11.71875 51.703125 
L 22.015625 51.703125 
L 22.015625 39.3125 
L 11.71875 39.3125 
z
" id="DejaVuSans-3a"/>
    </defs>
    <g transform="translate(59.55864 46.712575)scale(0.102 -0.102)">
     <use xlink:href="#DejaVuSans-35"/>
     <use x="63.623047" xlink:href="#DejaVuSans-38"/>
     <use x="127.246094" xlink:href="#DejaVuSans-20"/>
     <use x="159.033203" xlink:href="#DejaVuSans-74"/>
     <use x="198.242188" xlink:href="#DejaVuSans-61"/>
     <use x="259.521484" xlink:href="#DejaVuSans-72"/>
     <use x="300.619141" xlink:href="#DejaVuSans-67"/>
     <use x="364.095703" xlink:href="#DejaVuSans-65"/>
     <use x="425.619141" xlink:href="#DejaVuSans-74"/>
     <use x="464.828125" xlink:href="#DejaVuSans-73"/>
     <use x="516.927734" xlink:href="#DejaVuSans-3a"/>
     <use x="550.619141" xlink:href="#DejaVuSans-20"/>
     <use x="582.40625" xlink:href="#DejaVuSans-31"/>
     <use x="646.029297" xlink:href="#DejaVuSans-2e"/>
     <use x="677.816406" xlink:href="#DejaVuSans-2e"/>
     <use x="709.603516" xlink:href="#DejaVuSans-2d"/>
     <use x="745.6875" xlink:href="#DejaVuSans-31"/>
     <use x="809.310547" xlink:href="#DejaVuSans-2e"/>
     <use x="841.097656" xlink:href="#DejaVuSans-30"/>
     <use x="904.720703" xlink:href="#DejaVuSans-65"/>
     <use x="966.244141" xlink:href="#DejaVuSans-2d"/>
     <use x="1002.328125" xlink:href="#DejaVuSans-34"/>
    </g>
    <!-- 10 instances -->
    <g transform="translate(59.55864 58.134344)scale(0.102 -0.102)">
     <use xlink:href="#DejaVuSans-31"/>
     <use x="63.623047" xlink:href="#DejaVuSans-30"/>
     <use x="127.246094" xlink:href="#DejaVuSans-20"/>
     <use x="159.033203" xlink:href="#DejaVuSans-69"/>
     <use x="186.816406" xlink:href="#DejaVuSans-6e"/>
     <use x="250.195312" xlink:href="#DejaVuSans-73"/>
     <use x="302.294922" xlink:href="#DejaVuSans-74"/>
     <use x="341.503906" xlink:href="#DejaVuSans-61"/>
     <use x="402.783203" xlink:href="#DejaVuSans-6e"/>
     <use x="466.162109" xlink:href="#DejaVuSans-63"/>
     <use x="521.142578" xlink:href="#DejaVuSans-65"/>
     <use x="582.666016" xlink:href="#DejaVuSans-73"/>
    </g>
   </g>
   <g id="text_16">
    <!-- v2.0.778, hv-hash=ff0e71e8cd978373 -->
    <defs>
     <path d="M 8.203125 72.90625 
L 55.078125 72.90625 
L 55.078125 68.703125 
L 28.609375 0 
L 18.3125 0 
L 43.21875 64.59375 
L 8.203125 64.59375 
z
" id="DejaVuSans-37"/>
     <path d="M 54.890625 33.015625 
L 54.890625 0 
L 45.90625 0 
L 45.90625 32.71875 
Q 45.90625 40.484375 42.875 44.328125 
Q 39.84375 48.1875 33.796875 48.1875 
Q 26.515625 48.1875 22.3125 43.546875 
Q 18.109375 38.921875 18.109375 30.90625 
L 18.109375 0 
L 9.078125 0 
L 9.078125 75.984375 
L 18.109375 75.984375 
L 18.109375 46.1875 
Q 21.34375 51.125 25.703125 53.5625 
Q 30.078125 56 35.796875 56 
Q 45.21875 56 50.046875 50.171875 
Q 54.890625 44.34375 54.890625 33.015625 
z
" id="DejaVuSans-68"/>
     <path d="M 10.59375 45.40625 
L 73.1875 45.40625 
L 73.1875 37.203125 
L 10.59375 37.203125 
z
M 10.59375 25.484375 
L 73.1875 25.484375 
L 73.1875 17.1875 
L 10.59375 17.1875 
z
" id="DejaVuSans-3d"/>
     <path d="M 10.984375 1.515625 
L 10.984375 10.5 
Q 14.703125 8.734375 18.5 7.8125 
Q 22.3125 6.890625 25.984375 6.890625 
Q 35.75 6.890625 40.890625 13.453125 
Q 46.046875 20.015625 46.78125 33.40625 
Q 43.953125 29.203125 39.59375 26.953125 
Q 35.25 24.703125 29.984375 24.703125 
Q 19.046875 24.703125 12.671875 31.3125 
Q 6.296875 37.9375 6.296875 49.421875 
Q 6.296875 60.640625 12.9375 67.421875 
Q 19.578125 74.21875 30.609375 74.21875 
Q 43.265625 74.21875 49.921875 64.515625 
Q 56.59375 54.828125 56.59375 36.375 
Q 56.59375 19.140625 48.40625 8.859375 
Q 40.234375 -1.421875 26.421875 -1.421875 
Q 22.703125 -1.421875 18.890625 -0.6875 
Q 15.09375 0.046875 10.984375 1.515625 
z
M 30.609375 32.421875 
Q 37.25 32.421875 41.125 36.953125 
Q 45.015625 41.5 45.015625 49.421875 
Q 45.015625 57.28125 41.125 61.84375 
Q 37.25 66.40625 30.609375 66.40625 
Q 23.96875 66.40625 20.09375 61.84375 
Q 16.21875 57.28125 16.21875 49.421875 
Q 16.21875 41.5 20.09375 36.953125 
Q 23.96875 32.421875 30.609375 32.421875 
z
" id="DejaVuSans-39"/>
     <path d="M 40.578125 39.3125 
Q 47.65625 37.796875 51.625 33 
Q 55.609375 28.21875 55.609375 21.1875 
Q 55.609375 10.40625 48.1875 4.484375 
Q 40.765625 -1.421875 27.09375 -1.421875 
Q 22.515625 -1.421875 17.65625 -0.515625 
Q 12.796875 0.390625 7.625 2.203125 
L 7.625 11.71875 
Q 11.71875 9.328125 16.59375 8.109375 
Q 21.484375 6.890625 26.8125 6.890625 
Q 36.078125 6.890625 40.9375 10.546875 
Q 45.796875 14.203125 45.796875 21.1875 
Q 45.796875 27.640625 41.28125 31.265625 
Q 36.765625 34.90625 28.71875 34.90625 
L 20.21875 34.90625 
L 20.21875 43.015625 
L 29.109375 43.015625 
Q 36.375 43.015625 40.234375 45.921875 
Q 44.09375 48.828125 44.09375 54.296875 
Q 44.09375 59.90625 40.109375 62.90625 
Q 36.140625 65.921875 28.71875 65.921875 
Q 24.65625 65.921875 20.015625 65.03125 
Q 15.375 64.15625 9.8125 62.3125 
L 9.8125 71.09375 
Q 15.4375 72.65625 20.34375 73.4375 
Q 25.25 74.21875 29.59375 74.21875 
Q 40.828125 74.21875 47.359375 69.109375 
Q 53.90625 64.015625 53.90625 55.328125 
Q 53.90625 49.265625 50.4375 45.09375 
Q 46.96875 40.921875 40.578125 39.3125 
z
" id="DejaVuSans-33"/>
    </defs>
    <g style="fill:#808080;" transform="translate(131.294188 290.099912)scale(0.1 -0.1)">
     <use xlink:href="#DejaVuSans-76"/>
     <use x="59.179688" xlink:href="#DejaVuSans-32"/>
     <use x="122.802734" xlink:href="#DejaVuSans-2e"/>
     <use x="154.589844" xlink:href="#DejaVuSans-30"/>
     <use x="218.212891" xlink:href="#DejaVuSans-2e"/>
     <use x="250" xlink:href="#DejaVuSans-37"/>
     <use x="313.623047" xlink:href="#DejaVuSans-37"/>
     <use x="377.246094" xlink:href="#DejaVuSans-38"/>
     <use x="440.869141" xlink:href="#DejaVuSans-2c"/>
     <use x="472.65625" xlink:href="#DejaVuSans-20"/>
     <use x="504.443359" xlink:href="#DejaVuSans-68"/>
     <use x="567.822266" xlink:href="#DejaVuSans-76"/>
     <use x="626.970703" xlink:href="#DejaVuSans-2d"/>
     <use x="663.054688" xlink:href="#DejaVuSans-68"/>
     <use x="726.433594" xlink:href="#DejaVuSans-61"/>
     <use x="787.712891" xlink:href="#DejaVuSans-73"/>
     <use x="839.8125" xlink:href="#DejaVuSans-68"/>
     <use x="903.191406" xlink:href="#DejaVuSans-3d"/>
     <use x="986.980469" xlink:href="#DejaVuSans-66"/>
     <use x="1022.185547" xlink:href="#DejaVuSans-66"/>
     <use x="1057.390625" xlink:href="#DejaVuSans-30"/>
     <use x="1121.013672" xlink:href="#DejaVuSans-65"/>
     <use x="1182.537109" xlink:href="#DejaVuSans-37"/>
     <use x="1246.160156" xlink:href="#DejaVuSans-31"/>
     <use x="1309.783203" xlink:href="#DejaVuSans-65"/>
     <use x="1371.306641" xlink:href="#DejaVuSans-38"/>
     <use x="1434.929688" xlink:href="#DejaVuSans-63"/>
     <use x="1489.910156" xlink:href="#DejaVuSans-64"/>
     <use x="1553.386719" xlink:href="#DejaVuSans-39"/>
     <use x="1617.009766" xlink:href="#DejaVuSans-37"/>
     <use x="1680.632812" xlink:href="#DejaVuSans-38"/>
     <use x="1744.255859" xlink:href="#DejaVuSans-33"/>
     <use x="1807.878906" xlink:href="#DejaVuSans-37"/>
     <use x="1871.501953" xlink:href="#DejaVuSans-33"/>
    </g>
   </g>
   <g id="text_17">
    <!-- 51 Schaffer F7/Schwefel -->
    <defs>
     <path d="M 53.515625 70.515625 
L 53.515625 60.890625 
Q 47.90625 63.578125 42.921875 64.890625 
Q 37.9375 66.21875 33.296875 66.21875 
Q 25.25 66.21875 20.875 63.09375 
Q 16.5 59.96875 16.5 54.203125 
Q 16.5 49.359375 19.40625 46.890625 
Q 22.3125 44.4375 30.421875 42.921875 
L 36.375 41.703125 
Q 47.40625 39.59375 52.65625 34.296875 
Q 57.90625 29 57.90625 20.125 
Q 57.90625 9.515625 50.796875 4.046875 
Q 43.703125 -1.421875 29.984375 -1.421875 
Q 24.8125 -1.421875 18.96875 -0.25 
Q 13.140625 0.921875 6.890625 3.21875 
L 6.890625 13.375 
Q 12.890625 10.015625 18.65625 8.296875 
Q 24.421875 6.59375 29.984375 6.59375 
Q 38.421875 6.59375 43.015625 9.90625 
Q 47.609375 13.234375 47.609375 19.390625 
Q 47.609375 24.75 44.3125 27.78125 
Q 41.015625 30.8125 33.5 32.328125 
L 27.484375 33.5 
Q 16.453125 35.6875 11.515625 40.375 
Q 6.59375 45.0625 6.59375 53.421875 
Q 6.59375 63.09375 13.40625 68.65625 
Q 20.21875 74.21875 32.171875 74.21875 
Q 37.3125 74.21875 42.625 73.28125 
Q 47.953125 72.359375 53.515625 70.515625 
z
" id="DejaVuSans-53"/>
     <path d="M 4.203125 54.6875 
L 13.1875 54.6875 
L 24.421875 12.015625 
L 35.59375 54.6875 
L 46.1875 54.6875 
L 57.421875 12.015625 
L 68.609375 54.6875 
L 77.59375 54.6875 
L 63.28125 0 
L 52.6875 0 
L 40.921875 44.828125 
L 29.109375 0 
L 18.5 0 
z
" id="DejaVuSans-77"/>
    </defs>
    <g transform="translate(106.903563 18.84)scale(0.2 -0.2)">
     <use xlink:href="#DejaVuSans-35"/>
     <use x="63.623047" xlink:href="#DejaVuSans-31"/>
     <use x="127.246094" xlink:href="#DejaVuSans-20"/>
     <use x="159.033203" xlink:href="#DejaVuSans-53"/>
     <use x="222.509766" xlink:href="#DejaVuSans-63"/>
     <use x="277.490234" xlink:href="#DejaVuSans-68"/>
     <use x="340.869141" xlink:href="#DejaVuSans-61"/>
     <use x="402.148438" xlink:href="#DejaVuSans-66"/>
     <use x="437.353516" xlink:href="#DejaVuSans-66"/>
     <use x="472.558594" xlink:href="#DejaVuSans-65"/>
     <use x="534.082031" xlink:href="#DejaVuSans-72"/>
     <use x="575.195312" xlink:href="#DejaVuSans-20"/>
     <use x="606.982422" xlink:href="#DejaVuSans-46"/>
     <use x="664.501953" xlink:href="#DejaVuSans-37"/>
     <use x="728.125" xlink:href="#DejaVuSans-2f"/>
     <use x="761.816406" xlink:href="#DejaVuSans-53"/>
     <use x="825.292969" xlink:href="#DejaVuSans-63"/>
     <use x="880.273438" xlink:href="#DejaVuSans-68"/>
     <use x="943.652344" xlink:href="#DejaVuSans-77"/>
     <use x="1025.439453" xlink:href="#DejaVuSans-65"/>
     <use x="1086.962891" xlink:href="#DejaVuSans-66"/>
     <use x="1122.167969" xlink:href="#DejaVuSans-65"/>
     <use x="1183.691406" xlink:href="#DejaVuSans-6c"/>
    </g>
   </g>
  </g>
 </g>
 <defs>
  <clipPath id="pc7fe6cbd52">
   <rect height="270.04" width="343.864" x="56.12" y="24.84"/>
  </clipPath>
 </defs>
</svg>
