<?xml version="1.0" encoding="utf-8" standalone="no"?>
<!DOCTYPE svg PUBLIC "-//W3C//DTD SVG 1.1//EN"
  "http://www.w3.org/Graphics/SVG/1.1/DTD/svg11.dtd">
<!-- Created with matplotlib (http://matplotlib.org/) -->
<svg height="345pt" version="1.1" viewBox="0 0 460 345" width="460pt" xmlns="http://www.w3.org/2000/svg" xmlns:xlink="http://www.w3.org/1999/xlink">
 <defs>
  <style type="text/css">
*{stroke-linecap:butt;stroke-linejoin:round;}
  </style>
 </defs>
 <g id="figure_1">
  <g id="patch_1">
   <path d="M 0 345.6 
L 460.8 345.6 
L 460.8 0 
L 0 0 
z
" style="fill:#ffffff;"/>
  </g>
  <g id="axes_1">
   <g id="patch_2">
    <path d="M 56.12 294.88 
L 399.984 294.88 
L 399.984 24.84 
L 56.12 24.84 
z
" style="fill:#ffffff;"/>
   </g>
   <g id="line2d_1">
    <path d="M 62.213479 294.88 
L 62.213479 290.270236 
L 138.7972 290.270236 
L 138.7972 281.050707 
L 141.405531 281.050707 
L 141.405531 271.831178 
L 145.271892 271.831178 
L 145.271892 267.221413 
L 153.565405 267.221413 
L 153.565405 253.39212 
L 169.159109 253.39212 
L 169.159109 244.172591 
L 216.768456 244.172591 
L 216.768456 239.562827 
L 249.137525 239.562827 
L 249.137525 230.343298 
L 261.779925 230.343298 
L 261.779925 216.514005 
L 269.077423 216.514005 
L 269.077423 207.294476 
L 278.191068 207.294476 
L 278.191068 198.074947 
L 278.326007 198.074947 
L 278.326007 188.855418 
L 278.495424 188.855418 
L 278.495424 184.245654 
L 278.759734 184.245654 
L 278.759734 170.416361 
L 279.242171 170.416361 
L 279.242171 165.806596 
L 280.742673 165.806596 
L 280.742673 151.977303 
L 293.307428 151.977303 
L 293.307428 142.757774 
L 293.792394 142.757774 
L 293.792394 138.14801 
L 333.429677 138.14801 
" style="fill:none;stroke:#f5deb3;stroke-linecap:square;stroke-width:6;"/>
   </g>
   <g id="line2d_2">
    <path d="M 0 0 
" style="fill:none;stroke:#f5deb3;stroke-linecap:square;stroke-width:6;"/>
    <defs>
     <path d="M -0 7.778175 
L 7.778175 0 
L 0 -7.778175 
L -7.778175 -0 
z
" id="mb03cfe5a99" style="stroke:#f5deb3;stroke-linejoin:miter;stroke-width:1.5;"/>
    </defs>
    <g>
     <use style="fill:#f5deb3;stroke:#f5deb3;stroke-linejoin:miter;stroke-width:1.5;" x="0" xlink:href="#mb03cfe5a99" y="0"/>
    </g>
   </g>
   <g id="line2d_3">
    <path d="M 333.429677 138.14801 
L 363.933742 289.532673 
" style="fill:none;stroke:#f5deb3;stroke-linecap:square;stroke-width:6;"/>
    <g>
     <use style="fill:#f5deb3;stroke:#f5deb3;stroke-linejoin:miter;stroke-width:1.5;" x="333.429677" xlink:href="#mb03cfe5a99" y="138.14801"/>
     <use style="fill:#f5deb3;stroke:#f5deb3;stroke-linejoin:miter;stroke-width:1.5;" x="363.933742" xlink:href="#mb03cfe5a99" y="289.532673"/>
    </g>
   </g>
   <g id="matplotlib.axis_1">
    <g id="xtick_1">
     <g id="line2d_4">
      <path clip-path="url(#p81b8b10b26)" d="M 56.12 294.88 
L 56.12 24.84 
" style="fill:none;stroke:#b0b0b0;stroke-linecap:square;stroke-width:0.8;"/>
     </g>
     <g id="line2d_5">
      <defs>
       <path d="M 0 0 
L 0 3.5 
" id="m8ecbca443e" style="stroke:#000000;stroke-width:0.8;"/>
      </defs>
      <g>
       <use style="stroke:#000000;stroke-width:0.8;" x="56.12" xlink:href="#m8ecbca443e" y="294.88"/>
      </g>
     </g>
     <g id="text_1">
      <!-- 0 -->
      <defs>
       <path d="M 31.78125 66.40625 
Q 24.171875 66.40625 20.328125 58.90625 
Q 16.5 51.421875 16.5 36.375 
Q 16.5 21.390625 20.328125 13.890625 
Q 24.171875 6.390625 31.78125 6.390625 
Q 39.453125 6.390625 43.28125 13.890625 
Q 47.125 21.390625 47.125 36.375 
Q 47.125 51.421875 43.28125 58.90625 
Q 39.453125 66.40625 31.78125 66.40625 
z
M 31.78125 74.21875 
Q 44.046875 74.21875 50.515625 64.515625 
Q 56.984375 54.828125 56.984375 36.375 
Q 56.984375 17.96875 50.515625 8.265625 
Q 44.046875 -1.421875 31.78125 -1.421875 
Q 19.53125 -1.421875 13.0625 8.265625 
Q 6.59375 17.96875 6.59375 36.375 
Q 6.59375 54.828125 13.0625 64.515625 
Q 19.53125 74.21875 31.78125 74.21875 
z
" id="DejaVuSans-30"/>
      </defs>
      <g transform="translate(49.7575 317.076875)scale(0.2 -0.2)">
       <use xlink:href="#DejaVuSans-30"/>
      </g>
     </g>
    </g>
    <g id="xtick_2">
     <g id="line2d_6">
      <path clip-path="url(#p81b8b10b26)" d="M 135.351336 294.88 
L 135.351336 24.84 
" style="fill:none;stroke:#b0b0b0;stroke-linecap:square;stroke-width:0.8;"/>
     </g>
     <g id="line2d_7">
      <g>
       <use style="stroke:#000000;stroke-width:0.8;" x="135.351336" xlink:href="#m8ecbca443e" y="294.88"/>
      </g>
     </g>
     <g id="text_2">
      <!-- 2 -->
      <defs>
       <path d="M 19.1875 8.296875 
L 53.609375 8.296875 
L 53.609375 0 
L 7.328125 0 
L 7.328125 8.296875 
Q 12.9375 14.109375 22.625 23.890625 
Q 32.328125 33.6875 34.8125 36.53125 
Q 39.546875 41.84375 41.421875 45.53125 
Q 43.3125 49.21875 43.3125 52.78125 
Q 43.3125 58.59375 39.234375 62.25 
Q 35.15625 65.921875 28.609375 65.921875 
Q 23.96875 65.921875 18.8125 64.3125 
Q 13.671875 62.703125 7.8125 59.421875 
L 7.8125 69.390625 
Q 13.765625 71.78125 18.9375 73 
Q 24.125 74.21875 28.421875 74.21875 
Q 39.75 74.21875 46.484375 68.546875 
Q 53.21875 62.890625 53.21875 53.421875 
Q 53.21875 48.921875 51.53125 44.890625 
Q 49.859375 40.875 45.40625 35.40625 
Q 44.1875 33.984375 37.640625 27.21875 
Q 31.109375 20.453125 19.1875 8.296875 
z
" id="DejaVuSans-32"/>
      </defs>
      <g transform="translate(128.988836 317.076875)scale(0.2 -0.2)">
       <use xlink:href="#DejaVuSans-32"/>
      </g>
     </g>
    </g>
    <g id="xtick_3">
     <g id="line2d_8">
      <path clip-path="url(#p81b8b10b26)" d="M 214.582673 294.88 
L 214.582673 24.84 
" style="fill:none;stroke:#b0b0b0;stroke-linecap:square;stroke-width:0.8;"/>
     </g>
     <g id="line2d_9">
      <g>
       <use style="stroke:#000000;stroke-width:0.8;" x="214.582673" xlink:href="#m8ecbca443e" y="294.88"/>
      </g>
     </g>
     <g id="text_3">
      <!-- 4 -->
      <defs>
       <path d="M 37.796875 64.3125 
L 12.890625 25.390625 
L 37.796875 25.390625 
z
M 35.203125 72.90625 
L 47.609375 72.90625 
L 47.609375 25.390625 
L 58.015625 25.390625 
L 58.015625 17.1875 
L 47.609375 17.1875 
L 47.609375 0 
L 37.796875 0 
L 37.796875 17.1875 
L 4.890625 17.1875 
L 4.890625 26.703125 
z
" id="DejaVuSans-34"/>
      </defs>
      <g transform="translate(208.220173 317.076875)scale(0.2 -0.2)">
       <use xlink:href="#DejaVuSans-34"/>
      </g>
     </g>
    </g>
    <g id="xtick_4">
     <g id="line2d_10">
      <path clip-path="url(#p81b8b10b26)" d="M 293.814009 294.88 
L 293.814009 24.84 
" style="fill:none;stroke:#b0b0b0;stroke-linecap:square;stroke-width:0.8;"/>
     </g>
     <g id="line2d_11">
      <g>
       <use style="stroke:#000000;stroke-width:0.8;" x="293.814009" xlink:href="#m8ecbca443e" y="294.88"/>
      </g>
     </g>
     <g id="text_4">
      <!-- 6 -->
      <defs>
       <path d="M 33.015625 40.375 
Q 26.375 40.375 22.484375 35.828125 
Q 18.609375 31.296875 18.609375 23.390625 
Q 18.609375 15.53125 22.484375 10.953125 
Q 26.375 6.390625 33.015625 6.390625 
Q 39.65625 6.390625 43.53125 10.953125 
Q 47.40625 15.53125 47.40625 23.390625 
Q 47.40625 31.296875 43.53125 35.828125 
Q 39.65625 40.375 33.015625 40.375 
z
M 52.59375 71.296875 
L 52.59375 62.3125 
Q 48.875 64.0625 45.09375 64.984375 
Q 41.3125 65.921875 37.59375 65.921875 
Q 27.828125 65.921875 22.671875 59.328125 
Q 17.53125 52.734375 16.796875 39.40625 
Q 19.671875 43.65625 24.015625 45.921875 
Q 28.375 48.1875 33.59375 48.1875 
Q 44.578125 48.1875 50.953125 41.515625 
Q 57.328125 34.859375 57.328125 23.390625 
Q 57.328125 12.15625 50.6875 5.359375 
Q 44.046875 -1.421875 33.015625 -1.421875 
Q 20.359375 -1.421875 13.671875 8.265625 
Q 6.984375 17.96875 6.984375 36.375 
Q 6.984375 53.65625 15.1875 63.9375 
Q 23.390625 74.21875 37.203125 74.21875 
Q 40.921875 74.21875 44.703125 73.484375 
Q 48.484375 72.75 52.59375 71.296875 
z
" id="DejaVuSans-36"/>
      </defs>
      <g transform="translate(287.451509 317.076875)scale(0.2 -0.2)">
       <use xlink:href="#DejaVuSans-36"/>
      </g>
     </g>
    </g>
    <g id="xtick_5">
     <g id="line2d_12">
      <path clip-path="url(#p81b8b10b26)" d="M 373.045346 294.88 
L 373.045346 24.84 
" style="fill:none;stroke:#b0b0b0;stroke-linecap:square;stroke-width:0.8;"/>
     </g>
     <g id="line2d_13">
      <g>
       <use style="stroke:#000000;stroke-width:0.8;" x="373.045346" xlink:href="#m8ecbca443e" y="294.88"/>
      </g>
     </g>
     <g id="text_5">
      <!-- 8 -->
      <defs>
       <path d="M 31.78125 34.625 
Q 24.75 34.625 20.71875 30.859375 
Q 16.703125 27.09375 16.703125 20.515625 
Q 16.703125 13.921875 20.71875 10.15625 
Q 24.75 6.390625 31.78125 6.390625 
Q 38.8125 6.390625 42.859375 10.171875 
Q 46.921875 13.96875 46.921875 20.515625 
Q 46.921875 27.09375 42.890625 30.859375 
Q 38.875 34.625 31.78125 34.625 
z
M 21.921875 38.8125 
Q 15.578125 40.375 12.03125 44.71875 
Q 8.5 49.078125 8.5 55.328125 
Q 8.5 64.0625 14.71875 69.140625 
Q 20.953125 74.21875 31.78125 74.21875 
Q 42.671875 74.21875 48.875 69.140625 
Q 55.078125 64.0625 55.078125 55.328125 
Q 55.078125 49.078125 51.53125 44.71875 
Q 48 40.375 41.703125 38.8125 
Q 48.828125 37.15625 52.796875 32.3125 
Q 56.78125 27.484375 56.78125 20.515625 
Q 56.78125 9.90625 50.3125 4.234375 
Q 43.84375 -1.421875 31.78125 -1.421875 
Q 19.734375 -1.421875 13.25 4.234375 
Q 6.78125 9.90625 6.78125 20.515625 
Q 6.78125 27.484375 10.78125 32.3125 
Q 14.796875 37.15625 21.921875 38.8125 
z
M 18.3125 54.390625 
Q 18.3125 48.734375 21.84375 45.5625 
Q 25.390625 42.390625 31.78125 42.390625 
Q 38.140625 42.390625 41.71875 45.5625 
Q 45.3125 48.734375 45.3125 54.390625 
Q 45.3125 60.0625 41.71875 63.234375 
Q 38.140625 66.40625 31.78125 66.40625 
Q 25.390625 66.40625 21.84375 63.234375 
Q 18.3125 60.0625 18.3125 54.390625 
z
" id="DejaVuSans-38"/>
      </defs>
      <g transform="translate(366.682846 317.076875)scale(0.2 -0.2)">
       <use xlink:href="#DejaVuSans-38"/>
      </g>
     </g>
    </g>
    <g id="text_6">
     <!-- log10(# f-evals / dimension) -->
     <defs>
      <path d="M 9.421875 75.984375 
L 18.40625 75.984375 
L 18.40625 0 
L 9.421875 0 
z
" id="DejaVuSans-6c"/>
      <path d="M 30.609375 48.390625 
Q 23.390625 48.390625 19.1875 42.75 
Q 14.984375 37.109375 14.984375 27.296875 
Q 14.984375 17.484375 19.15625 11.84375 
Q 23.34375 6.203125 30.609375 6.203125 
Q 37.796875 6.203125 41.984375 11.859375 
Q 46.1875 17.53125 46.1875 27.296875 
Q 46.1875 37.015625 41.984375 42.703125 
Q 37.796875 48.390625 30.609375 48.390625 
z
M 30.609375 56 
Q 42.328125 56 49.015625 48.375 
Q 55.71875 40.765625 55.71875 27.296875 
Q 55.71875 13.875 49.015625 6.21875 
Q 42.328125 -1.421875 30.609375 -1.421875 
Q 18.84375 -1.421875 12.171875 6.21875 
Q 5.515625 13.875 5.515625 27.296875 
Q 5.515625 40.765625 12.171875 48.375 
Q 18.84375 56 30.609375 56 
z
" id="DejaVuSans-6f"/>
      <path d="M 45.40625 27.984375 
Q 45.40625 37.75 41.375 43.109375 
Q 37.359375 48.484375 30.078125 48.484375 
Q 22.859375 48.484375 18.828125 43.109375 
Q 14.796875 37.75 14.796875 27.984375 
Q 14.796875 18.265625 18.828125 12.890625 
Q 22.859375 7.515625 30.078125 7.515625 
Q 37.359375 7.515625 41.375 12.890625 
Q 45.40625 18.265625 45.40625 27.984375 
z
M 54.390625 6.78125 
Q 54.390625 -7.171875 48.1875 -13.984375 
Q 42 -20.796875 29.203125 -20.796875 
Q 24.46875 -20.796875 20.265625 -20.09375 
Q 16.0625 -19.390625 12.109375 -17.921875 
L 12.109375 -9.1875 
Q 16.0625 -11.328125 19.921875 -12.34375 
Q 23.78125 -13.375 27.78125 -13.375 
Q 36.625 -13.375 41.015625 -8.765625 
Q 45.40625 -4.15625 45.40625 5.171875 
L 45.40625 9.625 
Q 42.625 4.78125 38.28125 2.390625 
Q 33.9375 0 27.875 0 
Q 17.828125 0 11.671875 7.65625 
Q 5.515625 15.328125 5.515625 27.984375 
Q 5.515625 40.671875 11.671875 48.328125 
Q 17.828125 56 27.875 56 
Q 33.9375 56 38.28125 53.609375 
Q 42.625 51.21875 45.40625 46.390625 
L 45.40625 54.6875 
L 54.390625 54.6875 
z
" id="DejaVuSans-67"/>
      <path d="M 12.40625 8.296875 
L 28.515625 8.296875 
L 28.515625 63.921875 
L 10.984375 60.40625 
L 10.984375 69.390625 
L 28.421875 72.90625 
L 38.28125 72.90625 
L 38.28125 8.296875 
L 54.390625 8.296875 
L 54.390625 0 
L 12.40625 0 
z
" id="DejaVuSans-31"/>
      <path d="M 31 75.875 
Q 24.46875 64.65625 21.28125 53.65625 
Q 18.109375 42.671875 18.109375 31.390625 
Q 18.109375 20.125 21.3125 9.0625 
Q 24.515625 -2 31 -13.1875 
L 23.1875 -13.1875 
Q 15.875 -1.703125 12.234375 9.375 
Q 8.59375 20.453125 8.59375 31.390625 
Q 8.59375 42.28125 12.203125 53.3125 
Q 15.828125 64.359375 23.1875 75.875 
z
" id="DejaVuSans-28"/>
      <path d="M 51.125 44 
L 36.921875 44 
L 32.8125 27.6875 
L 47.125 27.6875 
z
M 43.796875 71.78125 
L 38.71875 51.515625 
L 52.984375 51.515625 
L 58.109375 71.78125 
L 65.921875 71.78125 
L 60.890625 51.515625 
L 76.125 51.515625 
L 76.125 44 
L 58.984375 44 
L 54.984375 27.6875 
L 70.515625 27.6875 
L 70.515625 20.21875 
L 53.078125 20.21875 
L 48 0 
L 40.1875 0 
L 45.21875 20.21875 
L 30.90625 20.21875 
L 25.875 0 
L 18.015625 0 
L 23.09375 20.21875 
L 7.71875 20.21875 
L 7.71875 27.6875 
L 24.90625 27.6875 
L 29 44 
L 13.28125 44 
L 13.28125 51.515625 
L 30.90625 51.515625 
L 35.890625 71.78125 
z
" id="DejaVuSans-23"/>
      <path id="DejaVuSans-20"/>
      <path d="M 37.109375 75.984375 
L 37.109375 68.5 
L 28.515625 68.5 
Q 23.6875 68.5 21.796875 66.546875 
Q 19.921875 64.59375 19.921875 59.515625 
L 19.921875 54.6875 
L 34.71875 54.6875 
L 34.71875 47.703125 
L 19.921875 47.703125 
L 19.921875 0 
L 10.890625 0 
L 10.890625 47.703125 
L 2.296875 47.703125 
L 2.296875 54.6875 
L 10.890625 54.6875 
L 10.890625 58.5 
Q 10.890625 67.625 15.140625 71.796875 
Q 19.390625 75.984375 28.609375 75.984375 
z
" id="DejaVuSans-66"/>
      <path d="M 4.890625 31.390625 
L 31.203125 31.390625 
L 31.203125 23.390625 
L 4.890625 23.390625 
z
" id="DejaVuSans-2d"/>
      <path d="M 56.203125 29.59375 
L 56.203125 25.203125 
L 14.890625 25.203125 
Q 15.484375 15.921875 20.484375 11.0625 
Q 25.484375 6.203125 34.421875 6.203125 
Q 39.59375 6.203125 44.453125 7.46875 
Q 49.3125 8.734375 54.109375 11.28125 
L 54.109375 2.78125 
Q 49.265625 0.734375 44.1875 -0.34375 
Q 39.109375 -1.421875 33.890625 -1.421875 
Q 20.796875 -1.421875 13.15625 6.1875 
Q 5.515625 13.8125 5.515625 26.8125 
Q 5.515625 40.234375 12.765625 48.109375 
Q 20.015625 56 32.328125 56 
Q 43.359375 56 49.78125 48.890625 
Q 56.203125 41.796875 56.203125 29.59375 
z
M 47.21875 32.234375 
Q 47.125 39.59375 43.09375 43.984375 
Q 39.0625 48.390625 32.421875 48.390625 
Q 24.90625 48.390625 20.390625 44.140625 
Q 15.875 39.890625 15.1875 32.171875 
z
" id="DejaVuSans-65"/>
      <path d="M 2.984375 54.6875 
L 12.5 54.6875 
L 29.59375 8.796875 
L 46.6875 54.6875 
L 56.203125 54.6875 
L 35.6875 0 
L 23.484375 0 
z
" id="DejaVuSans-76"/>
      <path d="M 34.28125 27.484375 
Q 23.390625 27.484375 19.1875 25 
Q 14.984375 22.515625 14.984375 16.5 
Q 14.984375 11.71875 18.140625 8.90625 
Q 21.296875 6.109375 26.703125 6.109375 
Q 34.1875 6.109375 38.703125 11.40625 
Q 43.21875 16.703125 43.21875 25.484375 
L 43.21875 27.484375 
z
M 52.203125 31.203125 
L 52.203125 0 
L 43.21875 0 
L 43.21875 8.296875 
Q 40.140625 3.328125 35.546875 0.953125 
Q 30.953125 -1.421875 24.3125 -1.421875 
Q 15.921875 -1.421875 10.953125 3.296875 
Q 6 8.015625 6 15.921875 
Q 6 25.140625 12.171875 29.828125 
Q 18.359375 34.515625 30.609375 34.515625 
L 43.21875 34.515625 
L 43.21875 35.40625 
Q 43.21875 41.609375 39.140625 45 
Q 35.0625 48.390625 27.6875 48.390625 
Q 23 48.390625 18.546875 47.265625 
Q 14.109375 46.140625 10.015625 43.890625 
L 10.015625 52.203125 
Q 14.9375 54.109375 19.578125 55.046875 
Q 24.21875 56 28.609375 56 
Q 40.484375 56 46.34375 49.84375 
Q 52.203125 43.703125 52.203125 31.203125 
z
" id="DejaVuSans-61"/>
      <path d="M 44.28125 53.078125 
L 44.28125 44.578125 
Q 40.484375 46.53125 36.375 47.5 
Q 32.28125 48.484375 27.875 48.484375 
Q 21.1875 48.484375 17.84375 46.4375 
Q 14.5 44.390625 14.5 40.28125 
Q 14.5 37.15625 16.890625 35.375 
Q 19.28125 33.59375 26.515625 31.984375 
L 29.59375 31.296875 
Q 39.15625 29.25 43.1875 25.515625 
Q 47.21875 21.78125 47.21875 15.09375 
Q 47.21875 7.46875 41.1875 3.015625 
Q 35.15625 -1.421875 24.609375 -1.421875 
Q 20.21875 -1.421875 15.453125 -0.5625 
Q 10.6875 0.296875 5.421875 2 
L 5.421875 11.28125 
Q 10.40625 8.6875 15.234375 7.390625 
Q 20.0625 6.109375 24.8125 6.109375 
Q 31.15625 6.109375 34.5625 8.28125 
Q 37.984375 10.453125 37.984375 14.40625 
Q 37.984375 18.0625 35.515625 20.015625 
Q 33.0625 21.96875 24.703125 23.78125 
L 21.578125 24.515625 
Q 13.234375 26.265625 9.515625 29.90625 
Q 5.8125 33.546875 5.8125 39.890625 
Q 5.8125 47.609375 11.28125 51.796875 
Q 16.75 56 26.8125 56 
Q 31.78125 56 36.171875 55.265625 
Q 40.578125 54.546875 44.28125 53.078125 
z
" id="DejaVuSans-73"/>
      <path d="M 25.390625 72.90625 
L 33.6875 72.90625 
L 8.296875 -9.28125 
L 0 -9.28125 
z
" id="DejaVuSans-2f"/>
      <path d="M 45.40625 46.390625 
L 45.40625 75.984375 
L 54.390625 75.984375 
L 54.390625 0 
L 45.40625 0 
L 45.40625 8.203125 
Q 42.578125 3.328125 38.25 0.953125 
Q 33.9375 -1.421875 27.875 -1.421875 
Q 17.96875 -1.421875 11.734375 6.484375 
Q 5.515625 14.40625 5.515625 27.296875 
Q 5.515625 40.1875 11.734375 48.09375 
Q 17.96875 56 27.875 56 
Q 33.9375 56 38.25 53.625 
Q 42.578125 51.265625 45.40625 46.390625 
z
M 14.796875 27.296875 
Q 14.796875 17.390625 18.875 11.75 
Q 22.953125 6.109375 30.078125 6.109375 
Q 37.203125 6.109375 41.296875 11.75 
Q 45.40625 17.390625 45.40625 27.296875 
Q 45.40625 37.203125 41.296875 42.84375 
Q 37.203125 48.484375 30.078125 48.484375 
Q 22.953125 48.484375 18.875 42.84375 
Q 14.796875 37.203125 14.796875 27.296875 
z
" id="DejaVuSans-64"/>
      <path d="M 9.421875 54.6875 
L 18.40625 54.6875 
L 18.40625 0 
L 9.421875 0 
z
M 9.421875 75.984375 
L 18.40625 75.984375 
L 18.40625 64.59375 
L 9.421875 64.59375 
z
" id="DejaVuSans-69"/>
      <path d="M 52 44.1875 
Q 55.375 50.25 60.0625 53.125 
Q 64.75 56 71.09375 56 
Q 79.640625 56 84.28125 50.015625 
Q 88.921875 44.046875 88.921875 33.015625 
L 88.921875 0 
L 79.890625 0 
L 79.890625 32.71875 
Q 79.890625 40.578125 77.09375 44.375 
Q 74.3125 48.1875 68.609375 48.1875 
Q 61.625 48.1875 57.5625 43.546875 
Q 53.515625 38.921875 53.515625 30.90625 
L 53.515625 0 
L 44.484375 0 
L 44.484375 32.71875 
Q 44.484375 40.625 41.703125 44.40625 
Q 38.921875 48.1875 33.109375 48.1875 
Q 26.21875 48.1875 22.15625 43.53125 
Q 18.109375 38.875 18.109375 30.90625 
L 18.109375 0 
L 9.078125 0 
L 9.078125 54.6875 
L 18.109375 54.6875 
L 18.109375 46.1875 
Q 21.1875 51.21875 25.484375 53.609375 
Q 29.78125 56 35.6875 56 
Q 41.65625 56 45.828125 52.96875 
Q 50 49.953125 52 44.1875 
z
" id="DejaVuSans-6d"/>
      <path d="M 54.890625 33.015625 
L 54.890625 0 
L 45.90625 0 
L 45.90625 32.71875 
Q 45.90625 40.484375 42.875 44.328125 
Q 39.84375 48.1875 33.796875 48.1875 
Q 26.515625 48.1875 22.3125 43.546875 
Q 18.109375 38.921875 18.109375 30.90625 
L 18.109375 0 
L 9.078125 0 
L 9.078125 54.6875 
L 18.109375 54.6875 
L 18.109375 46.1875 
Q 21.34375 51.125 25.703125 53.5625 
Q 30.078125 56 35.796875 56 
Q 45.21875 56 50.046875 50.171875 
Q 54.890625 44.34375 54.890625 33.015625 
z
" id="DejaVuSans-6e"/>
      <path d="M 8.015625 75.875 
L 15.828125 75.875 
Q 23.140625 64.359375 26.78125 53.3125 
Q 30.421875 42.28125 30.421875 31.390625 
Q 30.421875 20.453125 26.78125 9.375 
Q 23.140625 -1.703125 15.828125 -13.1875 
L 8.015625 -13.1875 
Q 14.5 -2 17.703125 9.0625 
Q 20.90625 20.125 20.90625 31.390625 
Q 20.90625 42.671875 17.703125 53.65625 
Q 14.5 64.65625 8.015625 75.875 
z
" id="DejaVuSans-29"/>
     </defs>
     <g transform="translate(107.211219 338.153594)scale(0.17 -0.17)">
      <use xlink:href="#DejaVuSans-6c"/>
      <use x="27.783203" xlink:href="#DejaVuSans-6f"/>
      <use x="88.964844" xlink:href="#DejaVuSans-67"/>
      <use x="152.441406" xlink:href="#DejaVuSans-31"/>
      <use x="216.064453" xlink:href="#DejaVuSans-30"/>
      <use x="279.6875" xlink:href="#DejaVuSans-28"/>
      <use x="318.701172" xlink:href="#DejaVuSans-23"/>
      <use x="402.490234" xlink:href="#DejaVuSans-20"/>
      <use x="434.277344" xlink:href="#DejaVuSans-66"/>
      <use x="469.404297" xlink:href="#DejaVuSans-2d"/>
      <use x="505.488281" xlink:href="#DejaVuSans-65"/>
      <use x="567.011719" xlink:href="#DejaVuSans-76"/>
      <use x="626.191406" xlink:href="#DejaVuSans-61"/>
      <use x="687.470703" xlink:href="#DejaVuSans-6c"/>
      <use x="715.253906" xlink:href="#DejaVuSans-73"/>
      <use x="767.353516" xlink:href="#DejaVuSans-20"/>
      <use x="799.140625" xlink:href="#DejaVuSans-2f"/>
      <use x="832.832031" xlink:href="#DejaVuSans-20"/>
      <use x="864.619141" xlink:href="#DejaVuSans-64"/>
      <use x="928.095703" xlink:href="#DejaVuSans-69"/>
      <use x="955.878906" xlink:href="#DejaVuSans-6d"/>
      <use x="1053.291016" xlink:href="#DejaVuSans-65"/>
      <use x="1114.814453" xlink:href="#DejaVuSans-6e"/>
      <use x="1178.193359" xlink:href="#DejaVuSans-73"/>
      <use x="1230.292969" xlink:href="#DejaVuSans-69"/>
      <use x="1258.076172" xlink:href="#DejaVuSans-6f"/>
      <use x="1319.257812" xlink:href="#DejaVuSans-6e"/>
      <use x="1382.636719" xlink:href="#DejaVuSans-29"/>
     </g>
    </g>
   </g>
   <g id="matplotlib.axis_2">
    <g id="ytick_1">
     <g id="line2d_14">
      <path clip-path="url(#p81b8b10b26)" d="M 56.12 294.88 
L 399.984 294.88 
" style="fill:none;stroke:#b0b0b0;stroke-linecap:square;stroke-width:0.8;"/>
     </g>
     <g id="line2d_15">
      <defs>
       <path d="M 0 0 
L -3.5 0 
" id="mb0c523be63" style="stroke:#000000;stroke-width:0.8;"/>
      </defs>
      <g>
       <use style="stroke:#000000;stroke-width:0.8;" x="56.12" xlink:href="#mb0c523be63" y="294.88"/>
      </g>
     </g>
     <g id="text_7">
      <!-- 0.0 -->
      <defs>
       <path d="M 10.6875 12.40625 
L 21 12.40625 
L 21 0 
L 10.6875 0 
z
" id="DejaVuSans-2e"/>
      </defs>
      <g transform="translate(23.675 300.95875)scale(0.16 -0.16)">
       <use xlink:href="#DejaVuSans-30"/>
       <use x="63.623047" xlink:href="#DejaVuSans-2e"/>
       <use x="95.410156" xlink:href="#DejaVuSans-30"/>
      </g>
     </g>
    </g>
    <g id="ytick_2">
     <g id="line2d_16">
      <path clip-path="url(#p81b8b10b26)" d="M 56.12 241.406733 
L 399.984 241.406733 
" style="fill:none;stroke:#b0b0b0;stroke-linecap:square;stroke-width:0.8;"/>
     </g>
     <g id="line2d_17">
      <g>
       <use style="stroke:#000000;stroke-width:0.8;" x="56.12" xlink:href="#mb0c523be63" y="241.406733"/>
      </g>
     </g>
     <g id="text_8">
      <!-- 0.2 -->
      <g transform="translate(23.675 247.485483)scale(0.16 -0.16)">
       <use xlink:href="#DejaVuSans-30"/>
       <use x="63.623047" xlink:href="#DejaVuSans-2e"/>
       <use x="95.410156" xlink:href="#DejaVuSans-32"/>
      </g>
     </g>
    </g>
    <g id="ytick_3">
     <g id="line2d_18">
      <path clip-path="url(#p81b8b10b26)" d="M 56.12 187.933465 
L 399.984 187.933465 
" style="fill:none;stroke:#b0b0b0;stroke-linecap:square;stroke-width:0.8;"/>
     </g>
     <g id="line2d_19">
      <g>
       <use style="stroke:#000000;stroke-width:0.8;" x="56.12" xlink:href="#mb0c523be63" y="187.933465"/>
      </g>
     </g>
     <g id="text_9">
      <!-- 0.4 -->
      <g transform="translate(23.675 194.012215)scale(0.16 -0.16)">
       <use xlink:href="#DejaVuSans-30"/>
       <use x="63.623047" xlink:href="#DejaVuSans-2e"/>
       <use x="95.410156" xlink:href="#DejaVuSans-34"/>
      </g>
     </g>
    </g>
    <g id="ytick_4">
     <g id="line2d_20">
      <path clip-path="url(#p81b8b10b26)" d="M 56.12 134.460198 
L 399.984 134.460198 
" style="fill:none;stroke:#b0b0b0;stroke-linecap:square;stroke-width:0.8;"/>
     </g>
     <g id="line2d_21">
      <g>
       <use style="stroke:#000000;stroke-width:0.8;" x="56.12" xlink:href="#mb0c523be63" y="134.460198"/>
      </g>
     </g>
     <g id="text_10">
      <!-- 0.6 -->
      <g transform="translate(23.675 140.538948)scale(0.16 -0.16)">
       <use xlink:href="#DejaVuSans-30"/>
       <use x="63.623047" xlink:href="#DejaVuSans-2e"/>
       <use x="95.410156" xlink:href="#DejaVuSans-36"/>
      </g>
     </g>
    </g>
    <g id="ytick_5">
     <g id="line2d_22">
      <path clip-path="url(#p81b8b10b26)" d="M 56.12 80.986931 
L 399.984 80.986931 
" style="fill:none;stroke:#b0b0b0;stroke-linecap:square;stroke-width:0.8;"/>
     </g>
     <g id="line2d_23">
      <g>
       <use style="stroke:#000000;stroke-width:0.8;" x="56.12" xlink:href="#mb0c523be63" y="80.986931"/>
      </g>
     </g>
     <g id="text_11">
      <!-- 0.8 -->
      <g transform="translate(23.675 87.065681)scale(0.16 -0.16)">
       <use xlink:href="#DejaVuSans-30"/>
       <use x="63.623047" xlink:href="#DejaVuSans-2e"/>
       <use x="95.410156" xlink:href="#DejaVuSans-38"/>
      </g>
     </g>
    </g>
    <g id="ytick_6">
     <g id="line2d_24">
      <path clip-path="url(#p81b8b10b26)" d="M 56.12 27.513663 
L 399.984 27.513663 
" style="fill:none;stroke:#b0b0b0;stroke-linecap:square;stroke-width:0.8;"/>
     </g>
     <g id="line2d_25">
      <g>
       <use style="stroke:#000000;stroke-width:0.8;" x="56.12" xlink:href="#mb0c523be63" y="27.513663"/>
      </g>
     </g>
     <g id="text_12">
      <!-- 1.0 -->
      <g transform="translate(23.675 33.592413)scale(0.16 -0.16)">
       <use xlink:href="#DejaVuSans-31"/>
       <use x="63.623047" xlink:href="#DejaVuSans-2e"/>
       <use x="95.410156" xlink:href="#DejaVuSans-30"/>
      </g>
     </g>
    </g>
    <g id="text_13">
     <!-- Fraction of function,target pairs -->
     <defs>
      <path d="M 9.8125 72.90625 
L 51.703125 72.90625 
L 51.703125 64.59375 
L 19.671875 64.59375 
L 19.671875 43.109375 
L 48.578125 43.109375 
L 48.578125 34.8125 
L 19.671875 34.8125 
L 19.671875 0 
L 9.8125 0 
z
" id="DejaVuSans-46"/>
      <path d="M 41.109375 46.296875 
Q 39.59375 47.171875 37.8125 47.578125 
Q 36.03125 48 33.890625 48 
Q 26.265625 48 22.1875 43.046875 
Q 18.109375 38.09375 18.109375 28.8125 
L 18.109375 0 
L 9.078125 0 
L 9.078125 54.6875 
L 18.109375 54.6875 
L 18.109375 46.1875 
Q 20.953125 51.171875 25.484375 53.578125 
Q 30.03125 56 36.53125 56 
Q 37.453125 56 38.578125 55.875 
Q 39.703125 55.765625 41.0625 55.515625 
z
" id="DejaVuSans-72"/>
      <path d="M 48.78125 52.59375 
L 48.78125 44.1875 
Q 44.96875 46.296875 41.140625 47.34375 
Q 37.3125 48.390625 33.40625 48.390625 
Q 24.65625 48.390625 19.8125 42.84375 
Q 14.984375 37.3125 14.984375 27.296875 
Q 14.984375 17.28125 19.8125 11.734375 
Q 24.65625 6.203125 33.40625 6.203125 
Q 37.3125 6.203125 41.140625 7.25 
Q 44.96875 8.296875 48.78125 10.40625 
L 48.78125 2.09375 
Q 45.015625 0.34375 40.984375 -0.53125 
Q 36.96875 -1.421875 32.421875 -1.421875 
Q 20.0625 -1.421875 12.78125 6.34375 
Q 5.515625 14.109375 5.515625 27.296875 
Q 5.515625 40.671875 12.859375 48.328125 
Q 20.21875 56 33.015625 56 
Q 37.15625 56 41.109375 55.140625 
Q 45.0625 54.296875 48.78125 52.59375 
z
" id="DejaVuSans-63"/>
      <path d="M 18.3125 70.21875 
L 18.3125 54.6875 
L 36.8125 54.6875 
L 36.8125 47.703125 
L 18.3125 47.703125 
L 18.3125 18.015625 
Q 18.3125 11.328125 20.140625 9.421875 
Q 21.96875 7.515625 27.59375 7.515625 
L 36.8125 7.515625 
L 36.8125 0 
L 27.59375 0 
Q 17.1875 0 13.234375 3.875 
Q 9.28125 7.765625 9.28125 18.015625 
L 9.28125 47.703125 
L 2.6875 47.703125 
L 2.6875 54.6875 
L 9.28125 54.6875 
L 9.28125 70.21875 
z
" id="DejaVuSans-74"/>
      <path d="M 8.5 21.578125 
L 8.5 54.6875 
L 17.484375 54.6875 
L 17.484375 21.921875 
Q 17.484375 14.15625 20.5 10.265625 
Q 23.53125 6.390625 29.59375 6.390625 
Q 36.859375 6.390625 41.078125 11.03125 
Q 45.3125 15.671875 45.3125 23.6875 
L 45.3125 54.6875 
L 54.296875 54.6875 
L 54.296875 0 
L 45.3125 0 
L 45.3125 8.40625 
Q 42.046875 3.421875 37.71875 1 
Q 33.40625 -1.421875 27.6875 -1.421875 
Q 18.265625 -1.421875 13.375 4.4375 
Q 8.5 10.296875 8.5 21.578125 
z
M 31.109375 56 
z
" id="DejaVuSans-75"/>
      <path d="M 11.71875 12.40625 
L 22.015625 12.40625 
L 22.015625 4 
L 14.015625 -11.625 
L 7.71875 -11.625 
L 11.71875 4 
z
" id="DejaVuSans-2c"/>
      <path d="M 18.109375 8.203125 
L 18.109375 -20.796875 
L 9.078125 -20.796875 
L 9.078125 54.6875 
L 18.109375 54.6875 
L 18.109375 46.390625 
Q 20.953125 51.265625 25.265625 53.625 
Q 29.59375 56 35.59375 56 
Q 45.5625 56 51.78125 48.09375 
Q 58.015625 40.1875 58.015625 27.296875 
Q 58.015625 14.40625 51.78125 6.484375 
Q 45.5625 -1.421875 35.59375 -1.421875 
Q 29.59375 -1.421875 25.265625 0.953125 
Q 20.953125 3.328125 18.109375 8.203125 
z
M 48.6875 27.296875 
Q 48.6875 37.203125 44.609375 42.84375 
Q 40.53125 48.484375 33.40625 48.484375 
Q 26.265625 48.484375 22.1875 42.84375 
Q 18.109375 37.203125 18.109375 27.296875 
Q 18.109375 17.390625 22.1875 11.75 
Q 26.265625 6.109375 33.40625 6.109375 
Q 40.53125 6.109375 44.609375 11.75 
Q 48.6875 17.390625 48.6875 27.296875 
z
" id="DejaVuSans-70"/>
     </defs>
     <g transform="translate(16.139531 294.999375)rotate(-90)scale(0.17 -0.17)">
      <use xlink:href="#DejaVuSans-46"/>
      <use x="57.410156" xlink:href="#DejaVuSans-72"/>
      <use x="98.523438" xlink:href="#DejaVuSans-61"/>
      <use x="159.802734" xlink:href="#DejaVuSans-63"/>
      <use x="214.783203" xlink:href="#DejaVuSans-74"/>
      <use x="253.992188" xlink:href="#DejaVuSans-69"/>
      <use x="281.775391" xlink:href="#DejaVuSans-6f"/>
      <use x="342.957031" xlink:href="#DejaVuSans-6e"/>
      <use x="406.335938" xlink:href="#DejaVuSans-20"/>
      <use x="438.123047" xlink:href="#DejaVuSans-6f"/>
      <use x="499.304688" xlink:href="#DejaVuSans-66"/>
      <use x="534.509766" xlink:href="#DejaVuSans-20"/>
      <use x="566.296875" xlink:href="#DejaVuSans-66"/>
      <use x="601.501953" xlink:href="#DejaVuSans-75"/>
      <use x="664.880859" xlink:href="#DejaVuSans-6e"/>
      <use x="728.259766" xlink:href="#DejaVuSans-63"/>
      <use x="783.240234" xlink:href="#DejaVuSans-74"/>
      <use x="822.449219" xlink:href="#DejaVuSans-69"/>
      <use x="850.232422" xlink:href="#DejaVuSans-6f"/>
      <use x="911.414062" xlink:href="#DejaVuSans-6e"/>
      <use x="974.792969" xlink:href="#DejaVuSans-2c"/>
      <use x="1006.580078" xlink:href="#DejaVuSans-74"/>
      <use x="1045.789062" xlink:href="#DejaVuSans-61"/>
      <use x="1107.068359" xlink:href="#DejaVuSans-72"/>
      <use x="1148.166016" xlink:href="#DejaVuSans-67"/>
      <use x="1211.642578" xlink:href="#DejaVuSans-65"/>
      <use x="1273.166016" xlink:href="#DejaVuSans-74"/>
      <use x="1312.375" xlink:href="#DejaVuSans-20"/>
      <use x="1344.162109" xlink:href="#DejaVuSans-70"/>
      <use x="1407.638672" xlink:href="#DejaVuSans-61"/>
      <use x="1468.917969" xlink:href="#DejaVuSans-69"/>
      <use x="1496.701172" xlink:href="#DejaVuSans-72"/>
      <use x="1537.814453" xlink:href="#DejaVuSans-73"/>
     </g>
    </g>
   </g>
   <g id="line2d_26">
    <defs>
     <path d="M 0 1.5 
C 0.397805 1.5 0.77937 1.341951 1.06066 1.06066 
C 1.341951 0.77937 1.5 0.397805 1.5 0 
C 1.5 -0.397805 1.341951 -0.77937 1.06066 -1.06066 
C 0.77937 -1.341951 0.397805 -1.5 0 -1.5 
C -0.397805 -1.5 -0.77937 -1.341951 -1.06066 -1.06066 
C -1.341951 -0.77937 -1.5 -0.397805 -1.5 0 
C -1.5 0.397805 -1.341951 0.77937 -1.06066 1.06066 
C -0.77937 1.341951 -0.397805 1.5 0 1.5 
z
" id="md638c3ac6e" style="stroke:#f5deb3;"/>
    </defs>
    <g>
     <use style="fill:#f5deb3;stroke:#f5deb3;" x="293.792394" xlink:href="#md638c3ac6e" y="138.14801"/>
     <use style="fill:#f5deb3;stroke:#f5deb3;" x="293.792394" xlink:href="#md638c3ac6e" y="138.14801"/>
    </g>
   </g>
   <g id="line2d_27">
    <g>
     <use style="fill:#f5deb3;stroke:#f5deb3;stroke-linejoin:miter;stroke-width:1.5;" x="145.271892" xlink:href="#mb03cfe5a99" y="267.221413"/>
     <use style="fill:#f5deb3;stroke:#f5deb3;stroke-linejoin:miter;stroke-width:1.5;" x="249.137525" xlink:href="#mb03cfe5a99" y="230.343298"/>
     <use style="fill:#f5deb3;stroke:#f5deb3;stroke-linejoin:miter;stroke-width:1.5;" x="278.759734" xlink:href="#mb03cfe5a99" y="184.245654"/>
     <use style="fill:#f5deb3;stroke:#f5deb3;stroke-linejoin:miter;stroke-width:1.5;" x="293.792394" xlink:href="#mb03cfe5a99" y="138.14801"/>
     <use style="fill:#f5deb3;stroke:#f5deb3;stroke-linejoin:miter;stroke-width:1.5;" x="333.429677" xlink:href="#mb03cfe5a99" y="138.14801"/>
    </g>
   </g>
   <g id="line2d_28">
    <defs>
     <path d="M 0 1.5 
C 0.397805 1.5 0.77937 1.341951 1.06066 1.06066 
C 1.341951 0.77937 1.5 0.397805 1.5 0 
C 1.5 -0.397805 1.341951 -0.77937 1.06066 -1.06066 
C 0.77937 -1.341951 0.397805 -1.5 0 -1.5 
C -0.397805 -1.5 -0.77937 -1.341951 -1.06066 -1.06066 
C -1.341951 -0.77937 -1.5 -0.397805 -1.5 0 
C -1.5 0.397805 -1.341951 0.77937 -1.06066 1.06066 
C -0.77937 1.341951 -0.397805 1.5 0 1.5 
z
" id="mc899867398" style="stroke:#999999;"/>
    </defs>
    <g>
     <use style="fill:#999999;stroke:#999999;" x="318.644186" xlink:href="#mc899867398" y="253.39212"/>
     <use style="fill:#999999;stroke:#999999;" x="318.644186" xlink:href="#mc899867398" y="253.39212"/>
    </g>
   </g>
   <g id="line2d_29">
    <path d="M -1 292.114141 
L 95.167222 292.114141 
L 95.167222 290.731212 
L 95.692602 290.731212 
L 95.692602 290.270236 
L 99.227238 290.270236 
L 99.227238 289.809259 
L 109.124107 289.809259 
L 109.124107 289.348283 
L 111.414087 289.348283 
L 111.414087 288.42633 
L 111.620342 288.42633 
L 111.620342 287.965353 
L 111.992171 287.965353 
L 111.992171 287.504377 
L 112.24116 287.504377 
L 112.24116 286.582424 
L 114.039036 286.582424 
L 114.039036 286.121448 
L 114.722956 286.121448 
L 114.722956 285.199495 
L 117.472645 285.199495 
L 117.472645 284.738518 
L 119.693873 284.738518 
L 119.693873 284.277542 
L 121.059485 284.277542 
L 121.059485 283.816565 
L 122.990242 283.816565 
L 123.060682 282.894612 
L 123.825469 282.894612 
L 123.825469 282.433636 
L 125.566592 282.433636 
L 125.566592 280.58973 
L 125.96454 280.58973 
L 125.96454 279.667777 
L 135.947364 279.667777 
L 135.947364 278.284848 
L 138.351407 278.284848 
L 138.351407 277.823872 
L 155.981016 277.823872 
L 155.981016 276.901919 
L 158.70599 276.901919 
L 158.70599 275.979966 
L 165.29205 275.979966 
L 165.29205 275.058013 
L 167.676771 275.058013 
L 167.676771 274.597037 
L 168.196474 274.597037 
L 168.196474 274.13606 
L 175.099828 274.13606 
L 175.099828 273.675084 
L 178.52271 273.675084 
L 178.52271 273.214107 
L 181.355552 273.214107 
L 181.355552 272.292154 
L 190.498688 272.292154 
L 190.498688 271.831178 
L 204.639892 271.831178 
L 204.639892 270.909225 
L 216.541155 270.909225 
L 216.541155 270.448249 
L 231.502898 270.448249 
L 231.502898 269.987272 
L 232.06427 269.987272 
L 232.06427 269.065319 
L 235.722809 269.065319 
L 235.722809 268.143366 
L 239.704486 268.143366 
L 239.704486 267.68239 
L 247.021173 267.68239 
L 247.021173 267.221413 
L 254.265361 267.221413 
L 254.29646 266.299461 
L 256.029756 266.299461 
L 256.029756 265.838484 
L 259.255566 265.838484 
L 259.255566 265.377508 
L 268.837763 265.377508 
L 268.837763 264.916531 
L 273.731093 264.916531 
L 273.731117 263.994578 
L 274.955926 263.994578 
L 274.955931 263.072625 
L 278.525047 263.072625 
L 278.525047 262.611649 
L 282.270185 262.611649 
L 282.270189 261.689696 
L 283.026131 261.689696 
L 283.026131 261.22872 
L 285.978543 261.22872 
L 285.978543 260.767743 
L 287.95101 260.767743 
L 287.95101 260.306767 
L 288.497758 260.306767 
L 288.497758 259.84579 
L 290.694753 259.84579 
L 290.694761 258.462861 
L 292.642727 258.462861 
L 292.642727 258.001885 
L 294.006069 258.001885 
L 294.006069 257.540908 
L 294.392383 257.540908 
L 294.392383 257.079932 
L 295.980428 257.079932 
L 295.980429 256.157979 
L 297.111095 256.157979 
L 297.111095 255.697002 
L 297.434188 255.697002 
L 297.434188 255.236026 
L 298.774646 255.236026 
L 298.774646 254.77505 
L 306.67083 254.77505 
L 306.67083 254.314073 
L 311.11947 254.314073 
L 311.11947 253.853097 
L 318.644186 253.853097 
L 318.644186 253.39212 
L 333.429677 253.39212 
L 333.429677 253.39212 
" style="fill:none;stroke:#999999;stroke-linecap:square;stroke-width:1.5;"/>
   </g>
   <g id="line2d_30"/>
   <g id="line2d_31">
    <path d="M 0 0 
" style="fill:none;stroke:#999999;stroke-linecap:square;stroke-width:1.5;"/>
   </g>
   <g id="line2d_32">
    <path clip-path="url(#p81b8b10b26)" d="M 254.198685 267.221413 
" style="fill:none;stroke:#999999;stroke-linecap:square;stroke-width:1.5;"/>
    <defs>
     <path d="M -12 12 
L 12 -12 
M -12 -12 
L 12 12 
" id="me164354858" style="stroke:#999999;stroke-width:3;"/>
    </defs>
    <g clip-path="url(#p81b8b10b26)">
     <use style="fill:#999999;stroke:#999999;stroke-width:3;" x="254.198685" xlink:href="#me164354858" y="267.221413"/>
    </g>
   </g>
   <g id="line2d_33">
    <path clip-path="url(#p81b8b10b26)" d="M 56.12 294.88 
L 56.12 294.88 
L 56.12 294.88 
L 56.12 294.88 
L 399.984 294.88 
" style="fill:none;stroke:#999999;stroke-linecap:square;stroke-width:1.5;"/>
   </g>
   <g id="line2d_34"/>
   <g id="line2d_35">
    <path clip-path="url(#p81b8b10b26)" d="M 0 0 
" style="fill:none;stroke:#999999;stroke-linecap:square;stroke-width:1.5;"/>
   </g>
   <g id="line2d_36">
    <g>
     <use style="fill:#999999;stroke:#999999;" x="309.733287" xlink:href="#mc899867398" y="267.221413"/>
     <use style="fill:#999999;stroke:#999999;" x="309.733287" xlink:href="#mc899867398" y="267.221413"/>
    </g>
   </g>
   <g id="line2d_37">
    <path d="M 11.5548 294.88 
L 11.5548 294.419024 
L 16.504332 294.419024 
L 16.504332 293.036094 
L 40.355341 293.036094 
L 40.355341 292.575118 
L 56.544833 292.575118 
L 56.544833 292.114141 
L 56.959428 292.114141 
L 56.959428 291.653165 
L 69.088543 291.653165 
L 69.088543 291.192188 
L 69.879711 291.192188 
L 69.879711 290.270236 
L 79.645355 290.270236 
L 79.645355 289.809259 
L 80.395842 289.809259 
L 80.395842 289.348283 
L 83.197203 289.348283 
L 83.197203 288.887306 
L 83.374574 288.887306 
L 83.374574 287.965353 
L 88.845505 287.965353 
L 88.845505 287.504377 
L 122.732454 287.504377 
L 122.732454 286.582424 
L 128.753975 286.582424 
L 128.753975 286.121448 
L 138.445088 286.121448 
L 138.445088 285.660471 
L 140.131211 285.660471 
L 140.131211 285.199495 
L 140.698403 285.199495 
L 140.698403 284.738518 
L 140.93632 284.738518 
L 140.93632 283.816565 
L 143.646103 283.816565 
L 143.646103 282.433636 
L 179.983719 282.433636 
L 179.983719 281.511683 
L 191.082989 281.511683 
L 191.082989 281.050707 
L 191.723944 281.050707 
L 191.723944 280.128754 
L 223.618267 280.128754 
L 223.618267 279.667777 
L 228.586937 279.667777 
L 228.586937 279.206801 
L 235.17585 279.206801 
L 235.17585 278.284848 
L 239.083388 278.284848 
L 239.083388 277.823872 
L 254.427109 277.823872 
L 254.427109 277.362895 
L 254.631829 277.362895 
L 254.631829 276.901919 
L 257.699533 276.901919 
L 257.699533 276.440942 
L 265.913332 276.440942 
L 265.913332 275.518989 
L 266.135579 275.518989 
L 266.135579 275.058013 
L 266.23861 275.058013 
L 266.23861 274.597037 
L 266.433647 274.597037 
L 266.433647 274.13606 
L 267.96335 274.13606 
L 267.96335 273.675084 
L 272.959763 273.675084 
L 272.959763 273.214107 
L 273.251038 273.214107 
L 273.251038 272.753131 
L 277.944415 272.753131 
L 277.944415 272.292154 
L 278.993675 272.292154 
L 278.993675 271.831178 
L 281.804608 271.831178 
L 281.804608 271.370201 
L 281.976081 271.370201 
L 281.976081 270.909225 
L 282.648066 270.909225 
L 282.648066 270.448249 
L 285.660596 270.448249 
L 285.660596 269.987272 
L 287.742436 269.987272 
L 287.742436 269.526296 
L 288.223408 269.526296 
L 288.223408 269.065319 
L 292.427407 269.065319 
L 292.427407 268.604343 
L 299.573053 268.604343 
L 299.573053 268.143366 
L 299.878106 268.143366 
L 299.878106 267.68239 
L 309.733287 267.68239 
L 309.733287 267.221413 
L 333.429677 267.221413 
" style="fill:none;stroke:#999999;stroke-linecap:square;stroke-width:1.5;"/>
   </g>
   <g id="line2d_38"/>
   <g id="line2d_39">
    <path d="M 0 0 
" style="fill:none;stroke:#999999;stroke-linecap:square;stroke-width:1.5;"/>
   </g>
   <g id="line2d_40">
    <path clip-path="url(#p81b8b10b26)" d="M 254.198341 277.823872 
" style="fill:none;stroke:#999999;stroke-linecap:square;stroke-width:1.5;"/>
    <g clip-path="url(#p81b8b10b26)">
     <use style="fill:#999999;stroke:#999999;stroke-width:3;" x="254.198341" xlink:href="#me164354858" y="277.823872"/>
    </g>
   </g>
   <g id="line2d_41">
    <g>
     <use style="fill:#999999;stroke:#999999;" x="341.623237" xlink:href="#mc899867398" y="271.831178"/>
     <use style="fill:#999999;stroke:#999999;" x="341.623237" xlink:href="#mc899867398" y="271.831178"/>
    </g>
   </g>
   <g id="line2d_42">
    <path d="M 4.578827 294.88 
L 4.578827 294.419024 
L 11.5548 294.419024 
L 11.5548 293.958047 
L 66.935128 293.958047 
L 66.935128 293.497071 
L 83.017984 293.497071 
L 83.017984 293.036094 
L 95.821478 293.036094 
L 95.821478 292.575118 
L 107.938504 292.575118 
L 107.938504 291.653165 
L 109.242218 291.653165 
L 109.242218 291.192188 
L 128.215478 291.192188 
L 128.215478 290.731212 
L 132.331116 290.731212 
L 132.331116 289.348283 
L 145.28397 289.348283 
L 145.28397 287.965353 
L 155.368566 287.965353 
L 155.368566 287.504377 
L 155.465042 287.504377 
L 155.465042 286.582424 
L 173.534305 286.582424 
L 173.534305 285.660471 
L 190.439117 285.660471 
L 190.439117 285.199495 
L 211.057844 285.199495 
L 211.057844 284.738518 
L 224.924973 284.738518 
L 224.924973 284.277542 
L 228.166657 284.277542 
L 228.166657 283.816565 
L 235.851418 283.816565 
L 235.851418 283.355589 
L 254.200565 283.355589 
L 254.200565 282.433636 
L 275.702007 282.433636 
L 275.702007 281.97266 
L 293.817074 281.97266 
L 293.817074 281.511683 
L 293.829832 281.511683 
L 293.829832 281.050707 
L 293.834245 281.050707 
L 293.834245 280.58973 
L 293.856244 280.58973 
L 293.856244 280.128754 
L 294.321955 280.128754 
L 294.321955 279.667777 
L 295.085314 279.667777 
L 295.085314 279.206801 
L 305.747427 279.206801 
L 305.747427 278.745825 
L 305.760644 278.745825 
L 305.760644 277.823872 
L 306.386906 277.823872 
L 306.386906 277.362895 
L 313.149777 277.362895 
L 313.149777 276.901919 
L 313.279703 276.901919 
L 313.279703 275.979966 
L 317.700027 275.979966 
L 317.700027 275.518989 
L 318.089905 275.518989 
L 318.089905 275.058013 
L 319.104174 275.058013 
L 319.104174 274.597037 
L 321.844918 274.597037 
L 321.844918 274.13606 
L 324.859506 274.13606 
L 324.859506 273.675084 
L 327.537209 273.675084 
L 327.537209 273.214107 
L 329.804278 273.214107 
L 329.804278 272.753131 
L 331.807099 272.753131 
L 331.807099 272.292154 
L 333.429677 272.292154 
" style="fill:none;stroke:#999999;stroke-linecap:square;stroke-width:1.5;"/>
   </g>
   <g id="line2d_43"/>
   <g id="line2d_44">
    <path d="M 0 0 
" style="fill:none;stroke:#999999;stroke-linecap:square;stroke-width:1.5;"/>
   </g>
   <g id="line2d_45">
    <path clip-path="url(#p81b8b10b26)" d="M 293.814009 281.97266 
" style="fill:none;stroke:#999999;stroke-linecap:square;stroke-width:1.5;"/>
    <g clip-path="url(#p81b8b10b26)">
     <use style="fill:#999999;stroke:#999999;stroke-width:3;" x="293.814009" xlink:href="#me164354858" y="281.97266"/>
    </g>
   </g>
   <g id="line2d_46">
    <g>
     <use style="fill:#999999;stroke:#999999;" x="313.819111" xlink:href="#mc899867398" y="138.14801"/>
     <use style="fill:#999999;stroke:#999999;" x="313.819111" xlink:href="#mc899867398" y="138.14801"/>
    </g>
   </g>
   <g id="line2d_47">
    <path d="M 135.012527 294.88 
L 135.012527 294.419024 
L 136.539496 294.419024 
L 136.539496 293.958047 
L 136.778678 293.958047 
L 136.778678 293.497071 
L 136.912753 293.497071 
L 137.018485 291.653165 
L 137.045791 291.653165 
L 137.045791 291.192188 
L 137.181676 291.192188 
L 137.181676 289.809259 
L 137.789551 289.809259 
L 137.845453 287.965353 
L 137.949321 287.965353 
L 137.967803 287.0434 
L 138.151538 287.0434 
L 138.217206 284.738518 
L 138.329716 284.738518 
L 138.329716 282.894612 
L 138.495322 282.894612 
L 138.495322 282.433636 
L 138.944431 282.433636 
L 139.024527 280.128754 
L 139.214561 280.128754 
L 139.214561 279.667777 
L 139.405918 279.667777 
L 139.405918 279.206801 
L 139.635455 279.206801 
L 139.705727 278.284848 
L 139.779038 278.284848 
L 139.779038 276.901919 
L 140.0004 276.901919 
L 140.079006 275.518989 
L 140.622583 275.518989 
L 140.622583 274.597037 
L 140.973587 274.597037 
L 141.007678 273.675084 
L 141.447833 273.675084 
L 141.447833 272.292154 
L 141.95923 272.292154 
L 141.95923 271.831178 
L 142.134108 271.831178 
L 142.134108 271.370201 
L 142.732548 271.370201 
L 142.732548 270.909225 
L 143.00761 270.909225 
L 143.00761 269.987272 
L 143.161275 269.987272 
L 143.161275 269.526296 
L 143.74145 269.526296 
L 143.775752 268.143366 
L 143.993156 268.143366 
L 143.993156 267.68239 
L 144.115058 267.68239 
L 144.115058 267.221413 
L 144.784178 267.221413 
L 144.826386 265.377508 
L 145.699083 265.377508 
L 145.699083 263.072625 
L 147.770774 263.072625 
L 147.770774 262.150673 
L 148.244824 262.150673 
L 148.244824 261.22872 
L 149.109114 261.22872 
L 149.109114 260.767743 
L 150.275105 260.767743 
L 150.275105 260.306767 
L 150.535097 260.306767 
L 150.535097 258.462861 
L 151.853532 258.462861 
L 151.853532 258.001885 
L 152.210773 258.001885 
L 152.210773 257.540908 
L 152.675841 257.540908 
L 152.675841 257.079932 
L 152.961024 257.079932 
L 152.961024 255.236026 
L 153.373338 255.236026 
L 153.373338 254.314073 
L 153.502619 254.314073 
L 153.502619 253.39212 
L 154.311497 253.39212 
L 154.311497 252.470167 
L 155.494413 252.470167 
L 155.494413 252.009191 
L 155.731543 252.009191 
L 155.731543 251.548214 
L 157.116256 251.548214 
L 157.116256 251.087238 
L 158.728112 251.087238 
L 158.728112 250.165285 
L 159.632423 250.165285 
L 159.632423 249.243332 
L 160.527445 249.243332 
L 160.527445 248.782356 
L 160.97846 248.782356 
L 160.97846 248.321379 
L 162.387484 248.321379 
L 162.387484 247.860403 
L 163.118748 247.860403 
L 163.118748 247.399426 
L 164.257737 247.399426 
L 164.257737 246.016497 
L 166.826202 246.016497 
L 166.826202 245.094544 
L 167.720739 245.094544 
L 167.720739 244.172591 
L 169.207869 244.172591 
L 169.207869 243.711615 
L 169.865979 243.711615 
L 169.865979 242.789662 
L 171.658315 242.789662 
L 171.658315 241.867709 
L 171.855287 241.867709 
L 171.855287 240.945756 
L 174.041898 240.945756 
L 174.041898 240.023803 
L 175.936614 240.023803 
L 175.936614 239.562827 
L 176.831341 239.562827 
L 176.865271 237.718921 
L 181.396745 237.718921 
L 181.396745 236.796968 
L 181.864517 236.796968 
L 181.864517 236.335992 
L 182.008232 236.335992 
L 182.008232 235.875015 
L 184.826559 235.875015 
L 184.826559 234.953062 
L 184.976736 234.953062 
L 184.976736 234.03111 
L 186.422917 234.03111 
L 186.422917 233.570133 
L 188.898675 233.570133 
L 188.898675 232.64818 
L 189.278758 232.64818 
L 189.278758 232.187204 
L 193.228757 232.187204 
L 193.228757 231.726227 
L 194.390117 231.726227 
L 194.390117 230.804274 
L 195.946461 230.804274 
L 195.946461 229.882322 
L 196.340384 229.882322 
L 196.340384 228.960369 
L 197.855307 228.960369 
L 197.855307 227.577439 
L 199.034184 227.577439 
L 199.034184 227.116463 
L 202.053743 227.116463 
L 202.053743 226.19451 
L 202.819417 226.19451 
L 202.819417 225.733534 
L 207.533013 225.733534 
L 207.533013 225.272557 
L 210.035579 225.272557 
L 210.035579 224.811581 
L 210.423123 224.811581 
L 210.423123 224.350604 
L 211.052511 224.350604 
L 211.052511 222.506699 
L 215.560777 222.506699 
L 215.560777 221.584746 
L 222.474343 221.584746 
L 222.474343 221.123769 
L 223.673991 221.123769 
L 223.673991 220.201816 
L 228.100794 220.201816 
L 228.100794 219.279863 
L 231.725515 219.279863 
L 231.725515 218.357911 
L 236.569899 218.357911 
L 236.569899 217.896934 
L 246.463458 217.896934 
L 246.463458 217.435958 
L 248.302254 217.435958 
L 248.302254 216.974981 
L 249.937377 216.974981 
L 249.937377 215.592052 
L 253.980958 215.592052 
L 253.980958 214.209123 
L 254.29042 214.209123 
L 254.379408 210.982287 
L 254.453341 210.982287 
L 254.503458 209.138382 
L 254.580714 209.138382 
L 254.688596 206.372523 
L 254.722315 206.372523 
L 254.722315 205.45057 
L 254.83708 205.45057 
L 254.83708 204.528617 
L 255.00951 204.528617 
L 255.04553 203.145688 
L 255.470993 203.145688 
L 255.545525 201.762759 
L 255.929392 201.762759 
L 255.929392 201.301782 
L 256.725166 201.301782 
L 256.725166 200.379829 
L 256.894043 200.379829 
L 256.894043 199.918853 
L 257.611045 199.918853 
L 257.611045 198.9969 
L 258.322106 198.9969 
L 258.322106 197.613971 
L 259.475071 197.613971 
L 259.475071 197.152994 
L 261.036116 197.152994 
L 261.036116 196.692018 
L 262.687468 196.692018 
L 262.687468 195.770065 
L 263.427148 195.770065 
L 263.427148 194.848112 
L 264.124937 194.848112 
L 264.124937 194.387136 
L 265.696634 194.387136 
L 265.696634 193.926159 
L 266.015497 193.926159 
L 266.015497 193.004206 
L 266.195488 193.004206 
L 266.27708 191.1603 
L 266.387827 191.1603 
L 266.387827 190.238348 
L 266.53421 190.238348 
L 266.552654 189.316395 
L 266.685618 189.316395 
L 266.786419 188.394442 
L 266.81062 188.394442 
L 266.81062 187.472489 
L 267.011133 187.472489 
L 267.011133 186.550536 
L 269.880215 186.550536 
L 269.880215 186.08956 
L 270.472055 186.08956 
L 270.472055 185.167607 
L 271.79334 185.167607 
L 271.79334 184.70663 
L 273.185954 184.70663 
L 273.276255 181.940772 
L 273.330563 181.940772 
L 273.386875 179.635889 
L 273.5607 179.635889 
L 273.668269 178.713936 
L 273.696398 178.713936 
L 273.696398 178.25296 
L 275.692868 178.25296 
L 275.692868 177.791984 
L 276.117101 177.791984 
L 276.117101 177.331007 
L 276.416814 177.331007 
L 276.416814 176.870031 
L 277.83707 176.870031 
L 277.83707 176.409054 
L 277.995261 176.409054 
L 278.085208 175.026125 
L 278.145743 175.026125 
L 278.255756 173.182219 
L 278.26509 173.182219 
L 278.26509 172.260266 
L 278.477439 172.260266 
L 278.477439 171.79929 
L 279.314408 171.79929 
L 279.314408 171.338313 
L 279.527815 171.338313 
L 279.527815 170.877337 
L 280.360457 170.877337 
L 280.360457 169.955384 
L 280.595104 169.955384 
L 280.595104 169.494408 
L 281.116581 169.494408 
L 281.116581 168.111478 
L 281.845247 168.111478 
L 281.949963 167.189525 
L 281.965662 167.189525 
L 282.061313 164.884643 
L 282.150678 164.884643 
L 282.156604 163.501714 
L 282.462495 163.501714 
L 282.462495 163.040737 
L 282.627352 163.040737 
L 282.627352 162.579761 
L 283.761561 162.579761 
L 283.761561 162.118785 
L 285.071214 162.118785 
L 285.076553 160.735855 
L 285.311896 160.735855 
L 285.326198 159.813902 
L 285.504968 159.813902 
L 285.504968 159.352926 
L 285.643211 159.352926 
L 285.643211 158.891949 
L 286.600024 158.891949 
L 286.600024 157.969997 
L 286.949127 157.969997 
L 286.949127 157.048044 
L 287.697964 157.048044 
L 287.801076 155.204138 
L 288.330614 155.204138 
L 288.330614 154.743161 
L 288.53779 154.743161 
L 288.53779 154.282185 
L 289.339263 154.282185 
L 289.339263 153.821209 
L 290.009284 153.821209 
L 290.061747 152.438279 
L 290.19023 152.438279 
L 290.19023 151.977303 
L 290.547703 151.977303 
L 290.619008 151.05535 
L 290.729963 151.05535 
L 290.729963 150.594374 
L 291.169185 150.594374 
L 291.169185 150.133397 
L 291.294774 150.133397 
L 291.294774 149.672421 
L 292.097514 149.672421 
L 292.150755 148.289491 
L 292.909768 148.289491 
L 292.909768 147.828515 
L 293.90063 147.828515 
L 293.90063 147.367538 
L 294.776014 147.367538 
L 294.776014 146.906562 
L 295.517046 146.906562 
L 295.517046 146.445586 
L 296.200632 146.445586 
L 296.200632 145.984609 
L 296.932816 145.984609 
L 297.023042 144.60168 
L 297.09471 144.60168 
L 297.09471 144.140703 
L 297.841928 144.140703 
L 297.841928 143.679727 
L 299.33124 143.679727 
L 299.33124 143.21875 
L 299.624943 143.21875 
L 299.624943 142.757774 
L 299.974005 142.757774 
L 299.974005 142.296798 
L 300.29556 142.296798 
L 300.29556 141.835821 
L 301.585498 141.835821 
L 301.585498 141.374845 
L 302.008384 141.374845 
L 302.008384 140.913868 
L 302.647218 140.913868 
L 302.647218 140.452892 
L 303.577166 140.452892 
L 303.64721 139.530939 
L 304.592258 139.530939 
L 304.592258 139.069962 
L 307.369491 139.069962 
L 307.369491 138.608986 
L 313.819111 138.608986 
L 313.819111 138.14801 
L 333.429677 138.14801 
L 333.429677 138.14801 
" style="fill:none;stroke:#999999;stroke-linecap:square;stroke-width:1.5;"/>
   </g>
   <g id="line2d_48"/>
   <g id="line2d_49">
    <path d="M 0 0 
" style="fill:none;stroke:#999999;stroke-linecap:square;stroke-width:1.5;"/>
   </g>
   <g id="line2d_50">
    <path clip-path="url(#p81b8b10b26)" d="M 254.198341 214.209123 
" style="fill:none;stroke:#999999;stroke-linecap:square;stroke-width:1.5;"/>
    <g clip-path="url(#p81b8b10b26)">
     <use style="fill:#999999;stroke:#999999;stroke-width:3;" x="254.198341" xlink:href="#me164354858" y="214.209123"/>
    </g>
   </g>
   <g id="line2d_51">
    <g>
     <use style="fill:#999999;stroke:#999999;" x="312.145315" xlink:href="#mc899867398" y="253.39212"/>
     <use style="fill:#999999;stroke:#999999;" x="312.145315" xlink:href="#mc899867398" y="253.39212"/>
    </g>
   </g>
   <g id="line2d_52">
    <path d="M 161.466099 294.88 
L 161.466099 293.958047 
L 183.109447 293.958047 
L 183.109447 293.497071 
L 184.212387 293.497071 
L 184.212387 293.036094 
L 184.755846 293.036094 
L 184.755846 292.575118 
L 185.20669 292.575118 
L 185.20669 291.653165 
L 185.64209 291.653165 
L 185.64209 291.192188 
L 186.183898 291.192188 
L 186.183898 290.731212 
L 187.271752 290.731212 
L 187.271752 289.809259 
L 188.577412 289.809259 
L 188.577412 289.348283 
L 188.596121 289.348283 
L 188.596121 287.965353 
L 188.648245 287.965353 
L 188.648245 287.504377 
L 189.03004 287.504377 
L 189.03004 286.582424 
L 189.567432 286.582424 
L 189.567432 286.121448 
L 189.965587 286.121448 
L 189.965587 285.660471 
L 190.329393 285.660471 
L 190.329393 285.199495 
L 191.616911 285.199495 
L 191.616911 284.738518 
L 203.076461 284.738518 
L 203.076461 284.277542 
L 203.199599 284.277542 
L 203.199599 283.816565 
L 203.261918 283.816565 
L 203.261918 282.894612 
L 203.514038 282.894612 
L 203.514038 282.433636 
L 221.268169 282.433636 
L 221.268169 281.97266 
L 221.442956 281.97266 
L 221.442956 280.128754 
L 221.532733 280.128754 
L 221.532733 279.667777 
L 221.55334 279.667777 
L 221.55334 278.284848 
L 221.567103 278.284848 
L 221.567103 277.823872 
L 221.631297 277.823872 
L 221.631297 277.362895 
L 224.744261 277.362895 
L 224.744261 276.901919 
L 224.806102 276.901919 
L 224.806102 276.440942 
L 225.082699 276.440942 
L 225.082699 275.979966 
L 225.121019 275.979966 
L 225.121019 275.058013 
L 225.281008 275.058013 
L 225.281008 274.597037 
L 227.816782 274.597037 
L 227.816782 273.675084 
L 228.017409 273.675084 
L 228.017409 273.214107 
L 228.067551 273.214107 
L 228.067551 272.753131 
L 231.131419 272.753131 
L 231.131419 272.292154 
L 231.656583 272.292154 
L 231.656583 271.831178 
L 232.004202 271.831178 
L 232.004202 270.448249 
L 235.724823 270.448249 
L 235.724823 269.987272 
L 235.756034 269.987272 
L 235.756034 268.143366 
L 235.883798 268.143366 
L 235.883798 267.68239 
L 254.574125 267.68239 
L 254.574125 266.760437 
L 256.612424 266.760437 
L 256.612424 266.299461 
L 257.136617 266.299461 
L 257.136617 265.377508 
L 258.307441 265.377508 
L 258.307441 264.916531 
L 266.283098 264.916531 
L 266.283098 264.455555 
L 266.288169 264.455555 
L 266.288169 263.994578 
L 273.209543 263.994578 
L 273.209543 263.533602 
L 273.250108 263.533602 
L 273.250108 263.072625 
L 274.581272 263.072625 
L 274.581272 262.611649 
L 278.13171 262.611649 
L 278.13171 262.150673 
L 278.144071 262.150673 
L 278.144071 261.22872 
L 281.954425 261.22872 
L 281.954425 260.767743 
L 285.08853 260.767743 
L 285.08853 260.306767 
L 287.731657 260.306767 
L 287.731657 259.384814 
L 290.022282 259.384814 
L 290.022282 258.462861 
L 290.03137 258.462861 
L 290.03137 258.001885 
L 292.043461 258.001885 
L 292.043461 256.157979 
L 295.483806 256.157979 
L 295.483806 255.697002 
L 296.982462 255.697002 
L 296.982462 254.77505 
L 299.630089 254.77505 
L 299.630089 254.314073 
L 300.820149 254.314073 
L 300.820149 253.853097 
L 312.145315 253.853097 
L 312.145315 253.39212 
L 333.429677 253.39212 
" style="fill:none;stroke:#999999;stroke-linecap:square;stroke-width:1.5;"/>
   </g>
   <g id="line2d_53"/>
   <g id="line2d_54">
    <path d="M 0 0 
" style="fill:none;stroke:#999999;stroke-linecap:square;stroke-width:1.5;"/>
   </g>
   <g id="line2d_55">
    <path clip-path="url(#p81b8b10b26)" d="M 254.198345 267.68239 
" style="fill:none;stroke:#999999;stroke-linecap:square;stroke-width:1.5;"/>
    <g clip-path="url(#p81b8b10b26)">
     <use style="fill:#999999;stroke:#999999;stroke-width:3;" x="254.198345" xlink:href="#me164354858" y="267.68239"/>
    </g>
   </g>
   <g id="line2d_56">
    <g>
     <use style="fill:#999999;stroke:#999999;" x="323.763813" xlink:href="#mc899867398" y="253.39212"/>
     <use style="fill:#999999;stroke:#999999;" x="323.763813" xlink:href="#mc899867398" y="253.39212"/>
    </g>
   </g>
   <g id="line2d_57">
    <path d="M 141.347954 294.88 
L 141.347954 294.419024 
L 141.562132 294.419024 
L 141.645868 293.497071 
L 141.86523 293.497071 
L 141.86523 293.036094 
L 142.390278 293.036094 
L 142.390278 292.575118 
L 143.275629 292.575118 
L 143.275629 292.114141 
L 143.651414 292.114141 
L 143.651414 291.653165 
L 143.862519 291.653165 
L 143.862519 290.731212 
L 144.148623 290.731212 
L 144.220696 289.348283 
L 144.419894 289.348283 
L 144.419894 288.887306 
L 144.581633 288.887306 
L 144.581633 288.42633 
L 144.754321 288.42633 
L 144.754321 287.0434 
L 145.062815 287.0434 
L 145.062815 286.582424 
L 145.291213 286.582424 
L 145.363472 284.738518 
L 145.609277 284.738518 
L 145.609277 283.355589 
L 146.453105 283.355589 
L 146.453105 282.433636 
L 146.79708 282.433636 
L 146.805923 281.050707 
L 146.953379 281.050707 
L 146.953379 280.58973 
L 147.186277 280.58973 
L 147.186277 280.128754 
L 147.369069 280.128754 
L 147.369069 279.667777 
L 147.84376 279.667777 
L 147.920582 278.284848 
L 148.265142 278.284848 
L 148.360314 277.362895 
L 149.068466 277.362895 
L 149.068466 276.901919 
L 149.604581 276.901919 
L 149.604581 276.440942 
L 150.453042 276.440942 
L 150.488766 275.518989 
L 151.036671 275.518989 
L 151.036671 274.597037 
L 152.357062 274.597037 
L 152.357062 274.13606 
L 152.587619 274.13606 
L 152.587619 273.675084 
L 155.090876 273.675084 
L 155.090876 273.214107 
L 157.73736 273.214107 
L 157.73736 272.753131 
L 158.679407 272.753131 
L 158.679407 272.292154 
L 159.373539 272.292154 
L 159.373539 270.909225 
L 160.95711 270.909225 
L 160.95711 270.448249 
L 165.204274 270.448249 
L 165.204274 269.526296 
L 167.146301 269.526296 
L 167.146301 269.065319 
L 169.611268 269.065319 
L 169.611268 268.604343 
L 184.694619 268.604343 
L 184.694619 268.143366 
L 190.755906 268.143366 
L 190.755906 267.68239 
L 254.232905 267.68239 
L 254.307204 265.377508 
L 254.414188 265.377508 
L 254.498542 263.994578 
L 266.178142 263.994578 
L 266.274603 262.150673 
L 273.136037 262.150673 
L 273.172072 260.767743 
L 281.948969 260.767743 
L 281.948969 260.306767 
L 285.061489 260.306767 
L 285.075725 258.923837 
L 287.720676 258.923837 
L 287.720676 258.001885 
L 290.012671 258.001885 
L 290.012671 257.540908 
L 292.034915 257.540908 
L 292.034915 257.079932 
L 293.84427 257.079932 
L 293.84427 256.618955 
L 296.976049 256.618955 
L 296.976049 256.157979 
L 302.961206 256.157979 
L 302.961206 255.697002 
L 304.872955 255.697002 
L 304.872955 255.236026 
L 309.590782 255.236026 
L 309.590782 254.77505 
L 310.25766 254.77505 
L 310.265103 253.853097 
L 323.763813 253.853097 
L 323.763813 253.39212 
L 333.429677 253.39212 
L 333.429677 253.39212 
" style="fill:none;stroke:#999999;stroke-linecap:square;stroke-width:1.5;"/>
   </g>
   <g id="line2d_58"/>
   <g id="line2d_59">
    <path d="M 0 0 
" style="fill:none;stroke:#999999;stroke-linecap:square;stroke-width:1.5;"/>
   </g>
   <g id="line2d_60">
    <path clip-path="url(#p81b8b10b26)" d="M 254.198345 267.68239 
" style="fill:none;stroke:#999999;stroke-linecap:square;stroke-width:1.5;"/>
    <g clip-path="url(#p81b8b10b26)">
     <use style="fill:#999999;stroke:#999999;stroke-width:3;" x="254.198345" xlink:href="#me164354858" y="267.68239"/>
    </g>
   </g>
   <g id="line2d_61">
    <path d="M 333.429677 294.88 
L 333.429677 27.513663 
" style="fill:none;stroke:#000000;stroke-linecap:square;stroke-width:1.5;"/>
   </g>
   <g id="patch_3">
    <path d="M 56.12 294.88 
L 56.12 24.84 
" style="fill:none;stroke:#000000;stroke-linecap:square;stroke-linejoin:miter;stroke-width:0.8;"/>
   </g>
   <g id="patch_4">
    <path d="M 399.984 294.88 
L 399.984 24.84 
" style="fill:none;stroke:#000000;stroke-linecap:square;stroke-linejoin:miter;stroke-width:0.8;"/>
   </g>
   <g id="patch_5">
    <path d="M 56.12 294.88 
L 399.984 294.88 
" style="fill:none;stroke:#000000;stroke-linecap:square;stroke-linejoin:miter;stroke-width:0.8;"/>
   </g>
   <g id="patch_6">
    <path d="M 56.12 24.84 
L 399.984 24.84 
" style="fill:none;stroke:#000000;stroke-linecap:square;stroke-linejoin:miter;stroke-width:0.8;"/>
   </g>
   <g id="text_14">
    <!-- best 2016 -->
    <defs>
     <path d="M 48.6875 27.296875 
Q 48.6875 37.203125 44.609375 42.84375 
Q 40.53125 48.484375 33.40625 48.484375 
Q 26.265625 48.484375 22.1875 42.84375 
Q 18.109375 37.203125 18.109375 27.296875 
Q 18.109375 17.390625 22.1875 11.75 
Q 26.265625 6.109375 33.40625 6.109375 
Q 40.53125 6.109375 44.609375 11.75 
Q 48.6875 17.390625 48.6875 27.296875 
z
M 18.109375 46.390625 
Q 20.953125 51.265625 25.265625 53.625 
Q 29.59375 56 35.59375 56 
Q 45.5625 56 51.78125 48.09375 
Q 58.015625 40.1875 58.015625 27.296875 
Q 58.015625 14.40625 51.78125 6.484375 
Q 45.5625 -1.421875 35.59375 -1.421875 
Q 29.59375 -1.421875 25.265625 0.953125 
Q 20.953125 3.328125 18.109375 8.203125 
L 18.109375 0 
L 9.078125 0 
L 9.078125 75.984375 
L 18.109375 75.984375 
z
" id="DejaVuSans-62"/>
    </defs>
    <g transform="translate(369.479935 294.223611)scale(0.17 -0.17)">
     <use xlink:href="#DejaVuSans-62"/>
     <use x="63.476562" xlink:href="#DejaVuSans-65"/>
     <use x="125" xlink:href="#DejaVuSans-73"/>
     <use x="177.099609" xlink:href="#DejaVuSans-74"/>
     <use x="216.308594" xlink:href="#DejaVuSans-20"/>
     <use x="248.095703" xlink:href="#DejaVuSans-32"/>
     <use x="311.71875" xlink:href="#DejaVuSans-30"/>
     <use x="375.341797" xlink:href="#DejaVuSans-31"/>
     <use x="438.964844" xlink:href="#DejaVuSans-36"/>
    </g>
   </g>
   <g id="text_15">
    <!-- bbob-biobj f32, 40-D -->
    <defs>
     <path d="M 9.421875 54.6875 
L 18.40625 54.6875 
L 18.40625 -0.984375 
Q 18.40625 -11.421875 14.421875 -16.109375 
Q 10.453125 -20.796875 1.609375 -20.796875 
L -1.8125 -20.796875 
L -1.8125 -13.1875 
L 0.59375 -13.1875 
Q 5.71875 -13.1875 7.5625 -10.8125 
Q 9.421875 -8.453125 9.421875 -0.984375 
z
M 9.421875 75.984375 
L 18.40625 75.984375 
L 18.40625 64.59375 
L 9.421875 64.59375 
z
" id="DejaVuSans-6a"/>
     <path d="M 40.578125 39.3125 
Q 47.65625 37.796875 51.625 33 
Q 55.609375 28.21875 55.609375 21.1875 
Q 55.609375 10.40625 48.1875 4.484375 
Q 40.765625 -1.421875 27.09375 -1.421875 
Q 22.515625 -1.421875 17.65625 -0.515625 
Q 12.796875 0.390625 7.625 2.203125 
L 7.625 11.71875 
Q 11.71875 9.328125 16.59375 8.109375 
Q 21.484375 6.890625 26.8125 6.890625 
Q 36.078125 6.890625 40.9375 10.546875 
Q 45.796875 14.203125 45.796875 21.1875 
Q 45.796875 27.640625 41.28125 31.265625 
Q 36.765625 34.90625 28.71875 34.90625 
L 20.21875 34.90625 
L 20.21875 43.015625 
L 29.109375 43.015625 
Q 36.375 43.015625 40.234375 45.921875 
Q 44.09375 48.828125 44.09375 54.296875 
Q 44.09375 59.90625 40.109375 62.90625 
Q 36.140625 65.921875 28.71875 65.921875 
Q 24.65625 65.921875 20.015625 65.03125 
Q 15.375 64.15625 9.8125 62.3125 
L 9.8125 71.09375 
Q 15.4375 72.65625 20.34375 73.4375 
Q 25.25 74.21875 29.59375 74.21875 
Q 40.828125 74.21875 47.359375 69.109375 
Q 53.90625 64.015625 53.90625 55.328125 
Q 53.90625 49.265625 50.4375 45.09375 
Q 46.96875 40.921875 40.578125 39.3125 
z
" id="DejaVuSans-33"/>
     <path d="M 19.671875 64.796875 
L 19.671875 8.109375 
L 31.59375 8.109375 
Q 46.6875 8.109375 53.6875 14.9375 
Q 60.6875 21.78125 60.6875 36.53125 
Q 60.6875 51.171875 53.6875 57.984375 
Q 46.6875 64.796875 31.59375 64.796875 
z
M 9.8125 72.90625 
L 30.078125 72.90625 
Q 51.265625 72.90625 61.171875 64.09375 
Q 71.09375 55.28125 71.09375 36.53125 
Q 71.09375 17.671875 61.125 8.828125 
Q 51.171875 0 30.078125 0 
L 9.8125 0 
z
" id="DejaVuSans-44"/>
    </defs>
    <g transform="translate(59.55864 35.290806)scale(0.102 -0.102)">
     <use xlink:href="#DejaVuSans-62"/>
     <use x="63.476562" xlink:href="#DejaVuSans-62"/>
     <use x="126.953125" xlink:href="#DejaVuSans-6f"/>
     <use x="188.134766" xlink:href="#DejaVuSans-62"/>
     <use x="251.611328" xlink:href="#DejaVuSans-2d"/>
     <use x="287.695312" xlink:href="#DejaVuSans-62"/>
     <use x="351.171875" xlink:href="#DejaVuSans-69"/>
     <use x="378.955078" xlink:href="#DejaVuSans-6f"/>
     <use x="440.136719" xlink:href="#DejaVuSans-62"/>
     <use x="503.613281" xlink:href="#DejaVuSans-6a"/>
     <use x="531.396484" xlink:href="#DejaVuSans-20"/>
     <use x="563.183594" xlink:href="#DejaVuSans-66"/>
     <use x="598.388672" xlink:href="#DejaVuSans-33"/>
     <use x="662.011719" xlink:href="#DejaVuSans-32"/>
     <use x="725.634766" xlink:href="#DejaVuSans-2c"/>
     <use x="757.421875" xlink:href="#DejaVuSans-20"/>
     <use x="789.208984" xlink:href="#DejaVuSans-34"/>
     <use x="852.832031" xlink:href="#DejaVuSans-30"/>
     <use x="916.455078" xlink:href="#DejaVuSans-2d"/>
     <use x="952.539062" xlink:href="#DejaVuSans-44"/>
    </g>
    <!-- 58 targets: 1..-1.0e-4 -->
    <defs>
     <path d="M 10.796875 72.90625 
L 49.515625 72.90625 
L 49.515625 64.59375 
L 19.828125 64.59375 
L 19.828125 46.734375 
Q 21.96875 47.46875 24.109375 47.828125 
Q 26.265625 48.1875 28.421875 48.1875 
Q 40.625 48.1875 47.75 41.5 
Q 54.890625 34.8125 54.890625 23.390625 
Q 54.890625 11.625 47.5625 5.09375 
Q 40.234375 -1.421875 26.90625 -1.421875 
Q 22.3125 -1.421875 17.546875 -0.640625 
Q 12.796875 0.140625 7.71875 1.703125 
L 7.71875 11.625 
Q 12.109375 9.234375 16.796875 8.0625 
Q 21.484375 6.890625 26.703125 6.890625 
Q 35.15625 6.890625 40.078125 11.328125 
Q 45.015625 15.765625 45.015625 23.390625 
Q 45.015625 31 40.078125 35.4375 
Q 35.15625 39.890625 26.703125 39.890625 
Q 22.75 39.890625 18.8125 39.015625 
Q 14.890625 38.140625 10.796875 36.28125 
z
" id="DejaVuSans-35"/>
     <path d="M 11.71875 12.40625 
L 22.015625 12.40625 
L 22.015625 0 
L 11.71875 0 
z
M 11.71875 51.703125 
L 22.015625 51.703125 
L 22.015625 39.3125 
L 11.71875 39.3125 
z
" id="DejaVuSans-3a"/>
    </defs>
    <g transform="translate(59.55864 46.712575)scale(0.102 -0.102)">
     <use xlink:href="#DejaVuSans-35"/>
     <use x="63.623047" xlink:href="#DejaVuSans-38"/>
     <use x="127.246094" xlink:href="#DejaVuSans-20"/>
     <use x="159.033203" xlink:href="#DejaVuSans-74"/>
     <use x="198.242188" xlink:href="#DejaVuSans-61"/>
     <use x="259.521484" xlink:href="#DejaVuSans-72"/>
     <use x="300.619141" xlink:href="#DejaVuSans-67"/>
     <use x="364.095703" xlink:href="#DejaVuSans-65"/>
     <use x="425.619141" xlink:href="#DejaVuSans-74"/>
     <use x="464.828125" xlink:href="#DejaVuSans-73"/>
     <use x="516.927734" xlink:href="#DejaVuSans-3a"/>
     <use x="550.619141" xlink:href="#DejaVuSans-20"/>
     <use x="582.40625" xlink:href="#DejaVuSans-31"/>
     <use x="646.029297" xlink:href="#DejaVuSans-2e"/>
     <use x="677.816406" xlink:href="#DejaVuSans-2e"/>
     <use x="709.603516" xlink:href="#DejaVuSans-2d"/>
     <use x="745.6875" xlink:href="#DejaVuSans-31"/>
     <use x="809.310547" xlink:href="#DejaVuSans-2e"/>
     <use x="841.097656" xlink:href="#DejaVuSans-30"/>
     <use x="904.720703" xlink:href="#DejaVuSans-65"/>
     <use x="966.244141" xlink:href="#DejaVuSans-2d"/>
     <use x="1002.328125" xlink:href="#DejaVuSans-34"/>
    </g>
    <!-- 10 instances -->
    <g transform="translate(59.55864 58.134344)scale(0.102 -0.102)">
     <use xlink:href="#DejaVuSans-31"/>
     <use x="63.623047" xlink:href="#DejaVuSans-30"/>
     <use x="127.246094" xlink:href="#DejaVuSans-20"/>
     <use x="159.033203" xlink:href="#DejaVuSans-69"/>
     <use x="186.816406" xlink:href="#DejaVuSans-6e"/>
     <use x="250.195312" xlink:href="#DejaVuSans-73"/>
     <use x="302.294922" xlink:href="#DejaVuSans-74"/>
     <use x="341.503906" xlink:href="#DejaVuSans-61"/>
     <use x="402.783203" xlink:href="#DejaVuSans-6e"/>
     <use x="466.162109" xlink:href="#DejaVuSans-63"/>
     <use x="521.142578" xlink:href="#DejaVuSans-65"/>
     <use x="582.666016" xlink:href="#DejaVuSans-73"/>
    </g>
   </g>
   <g id="text_16">
    <!-- v2.0.778, hv-hash=ff0e71e8cd978373 -->
    <defs>
     <path d="M 8.203125 72.90625 
L 55.078125 72.90625 
L 55.078125 68.703125 
L 28.609375 0 
L 18.3125 0 
L 43.21875 64.59375 
L 8.203125 64.59375 
z
" id="DejaVuSans-37"/>
     <path d="M 54.890625 33.015625 
L 54.890625 0 
L 45.90625 0 
L 45.90625 32.71875 
Q 45.90625 40.484375 42.875 44.328125 
Q 39.84375 48.1875 33.796875 48.1875 
Q 26.515625 48.1875 22.3125 43.546875 
Q 18.109375 38.921875 18.109375 30.90625 
L 18.109375 0 
L 9.078125 0 
L 9.078125 75.984375 
L 18.109375 75.984375 
L 18.109375 46.1875 
Q 21.34375 51.125 25.703125 53.5625 
Q 30.078125 56 35.796875 56 
Q 45.21875 56 50.046875 50.171875 
Q 54.890625 44.34375 54.890625 33.015625 
z
" id="DejaVuSans-68"/>
     <path d="M 10.59375 45.40625 
L 73.1875 45.40625 
L 73.1875 37.203125 
L 10.59375 37.203125 
z
M 10.59375 25.484375 
L 73.1875 25.484375 
L 73.1875 17.1875 
L 10.59375 17.1875 
z
" id="DejaVuSans-3d"/>
     <path d="M 10.984375 1.515625 
L 10.984375 10.5 
Q 14.703125 8.734375 18.5 7.8125 
Q 22.3125 6.890625 25.984375 6.890625 
Q 35.75 6.890625 40.890625 13.453125 
Q 46.046875 20.015625 46.78125 33.40625 
Q 43.953125 29.203125 39.59375 26.953125 
Q 35.25 24.703125 29.984375 24.703125 
Q 19.046875 24.703125 12.671875 31.3125 
Q 6.296875 37.9375 6.296875 49.421875 
Q 6.296875 60.640625 12.9375 67.421875 
Q 19.578125 74.21875 30.609375 74.21875 
Q 43.265625 74.21875 49.921875 64.515625 
Q 56.59375 54.828125 56.59375 36.375 
Q 56.59375 19.140625 48.40625 8.859375 
Q 40.234375 -1.421875 26.421875 -1.421875 
Q 22.703125 -1.421875 18.890625 -0.6875 
Q 15.09375 0.046875 10.984375 1.515625 
z
M 30.609375 32.421875 
Q 37.25 32.421875 41.125 36.953125 
Q 45.015625 41.5 45.015625 49.421875 
Q 45.015625 57.28125 41.125 61.84375 
Q 37.25 66.40625 30.609375 66.40625 
Q 23.96875 66.40625 20.09375 61.84375 
Q 16.21875 57.28125 16.21875 49.421875 
Q 16.21875 41.5 20.09375 36.953125 
Q 23.96875 32.421875 30.609375 32.421875 
z
" id="DejaVuSans-39"/>
    </defs>
    <g style="fill:#808080;" transform="translate(131.294188 290.099912)scale(0.1 -0.1)">
     <use xlink:href="#DejaVuSans-76"/>
     <use x="59.179688" xlink:href="#DejaVuSans-32"/>
     <use x="122.802734" xlink:href="#DejaVuSans-2e"/>
     <use x="154.589844" xlink:href="#DejaVuSans-30"/>
     <use x="218.212891" xlink:href="#DejaVuSans-2e"/>
     <use x="250" xlink:href="#DejaVuSans-37"/>
     <use x="313.623047" xlink:href="#DejaVuSans-37"/>
     <use x="377.246094" xlink:href="#DejaVuSans-38"/>
     <use x="440.869141" xlink:href="#DejaVuSans-2c"/>
     <use x="472.65625" xlink:href="#DejaVuSans-20"/>
     <use x="504.443359" xlink:href="#DejaVuSans-68"/>
     <use x="567.822266" xlink:href="#DejaVuSans-76"/>
     <use x="626.970703" xlink:href="#DejaVuSans-2d"/>
     <use x="663.054688" xlink:href="#DejaVuSans-68"/>
     <use x="726.433594" xlink:href="#DejaVuSans-61"/>
     <use x="787.712891" xlink:href="#DejaVuSans-73"/>
     <use x="839.8125" xlink:href="#DejaVuSans-68"/>
     <use x="903.191406" xlink:href="#DejaVuSans-3d"/>
     <use x="986.980469" xlink:href="#DejaVuSans-66"/>
     <use x="1022.185547" xlink:href="#DejaVuSans-66"/>
     <use x="1057.390625" xlink:href="#DejaVuSans-30"/>
     <use x="1121.013672" xlink:href="#DejaVuSans-65"/>
     <use x="1182.537109" xlink:href="#DejaVuSans-37"/>
     <use x="1246.160156" xlink:href="#DejaVuSans-31"/>
     <use x="1309.783203" xlink:href="#DejaVuSans-65"/>
     <use x="1371.306641" xlink:href="#DejaVuSans-38"/>
     <use x="1434.929688" xlink:href="#DejaVuSans-63"/>
     <use x="1489.910156" xlink:href="#DejaVuSans-64"/>
     <use x="1553.386719" xlink:href="#DejaVuSans-39"/>
     <use x="1617.009766" xlink:href="#DejaVuSans-37"/>
     <use x="1680.632812" xlink:href="#DejaVuSans-38"/>
     <use x="1744.255859" xlink:href="#DejaVuSans-33"/>
     <use x="1807.878906" xlink:href="#DejaVuSans-37"/>
     <use x="1871.501953" xlink:href="#DejaVuSans-33"/>
    </g>
   </g>
   <g id="text_17">
    <!-- 32 Rosenbrock/Schaffer F7 -->
    <defs>
     <path d="M 44.390625 34.1875 
Q 47.5625 33.109375 50.5625 29.59375 
Q 53.5625 26.078125 56.59375 19.921875 
L 66.609375 0 
L 56 0 
L 46.6875 18.703125 
Q 43.0625 26.03125 39.671875 28.421875 
Q 36.28125 30.8125 30.421875 30.8125 
L 19.671875 30.8125 
L 19.671875 0 
L 9.8125 0 
L 9.8125 72.90625 
L 32.078125 72.90625 
Q 44.578125 72.90625 50.734375 67.671875 
Q 56.890625 62.453125 56.890625 51.90625 
Q 56.890625 45.015625 53.6875 40.46875 
Q 50.484375 35.9375 44.390625 34.1875 
z
M 19.671875 64.796875 
L 19.671875 38.921875 
L 32.078125 38.921875 
Q 39.203125 38.921875 42.84375 42.21875 
Q 46.484375 45.515625 46.484375 51.90625 
Q 46.484375 58.296875 42.84375 61.546875 
Q 39.203125 64.796875 32.078125 64.796875 
z
" id="DejaVuSans-52"/>
     <path d="M 9.078125 75.984375 
L 18.109375 75.984375 
L 18.109375 31.109375 
L 44.921875 54.6875 
L 56.390625 54.6875 
L 27.390625 29.109375 
L 57.625 0 
L 45.90625 0 
L 18.109375 26.703125 
L 18.109375 0 
L 9.078125 0 
z
" id="DejaVuSans-6b"/>
     <path d="M 53.515625 70.515625 
L 53.515625 60.890625 
Q 47.90625 63.578125 42.921875 64.890625 
Q 37.9375 66.21875 33.296875 66.21875 
Q 25.25 66.21875 20.875 63.09375 
Q 16.5 59.96875 16.5 54.203125 
Q 16.5 49.359375 19.40625 46.890625 
Q 22.3125 44.4375 30.421875 42.921875 
L 36.375 41.703125 
Q 47.40625 39.59375 52.65625 34.296875 
Q 57.90625 29 57.90625 20.125 
Q 57.90625 9.515625 50.796875 4.046875 
Q 43.703125 -1.421875 29.984375 -1.421875 
Q 24.8125 -1.421875 18.96875 -0.25 
Q 13.140625 0.921875 6.890625 3.21875 
L 6.890625 13.375 
Q 12.890625 10.015625 18.65625 8.296875 
Q 24.421875 6.59375 29.984375 6.59375 
Q 38.421875 6.59375 43.015625 9.90625 
Q 47.609375 13.234375 47.609375 19.390625 
Q 47.609375 24.75 44.3125 27.78125 
Q 41.015625 30.8125 33.5 32.328125 
L 27.484375 33.5 
Q 16.453125 35.6875 11.515625 40.375 
Q 6.59375 45.0625 6.59375 53.421875 
Q 6.59375 63.09375 13.40625 68.65625 
Q 20.21875 74.21875 32.171875 74.21875 
Q 37.3125 74.21875 42.625 73.28125 
Q 47.953125 72.359375 53.515625 70.515625 
z
" id="DejaVuSans-53"/>
    </defs>
    <g transform="translate(93.24575 18.84)scale(0.2 -0.2)">
     <use xlink:href="#DejaVuSans-33"/>
     <use x="63.623047" xlink:href="#DejaVuSans-32"/>
     <use x="127.246094" xlink:href="#DejaVuSans-20"/>
     <use x="159.033203" xlink:href="#DejaVuSans-52"/>
     <use x="228.453125" xlink:href="#DejaVuSans-6f"/>
     <use x="289.634766" xlink:href="#DejaVuSans-73"/>
     <use x="341.734375" xlink:href="#DejaVuSans-65"/>
     <use x="403.257812" xlink:href="#DejaVuSans-6e"/>
     <use x="466.636719" xlink:href="#DejaVuSans-62"/>
     <use x="530.113281" xlink:href="#DejaVuSans-72"/>
     <use x="571.195312" xlink:href="#DejaVuSans-6f"/>
     <use x="632.376953" xlink:href="#DejaVuSans-63"/>
     <use x="687.357422" xlink:href="#DejaVuSans-6b"/>
     <use x="745.267578" xlink:href="#DejaVuSans-2f"/>
     <use x="778.958984" xlink:href="#DejaVuSans-53"/>
     <use x="842.435547" xlink:href="#DejaVuSans-63"/>
     <use x="897.416016" xlink:href="#DejaVuSans-68"/>
     <use x="960.794922" xlink:href="#DejaVuSans-61"/>
     <use x="1022.074219" xlink:href="#DejaVuSans-66"/>
     <use x="1057.279297" xlink:href="#DejaVuSans-66"/>
     <use x="1092.484375" xlink:href="#DejaVuSans-65"/>
     <use x="1154.007812" xlink:href="#DejaVuSans-72"/>
     <use x="1195.121094" xlink:href="#DejaVuSans-20"/>
     <use x="1226.908203" xlink:href="#DejaVuSans-46"/>
     <use x="1284.427734" xlink:href="#DejaVuSans-37"/>
    </g>
   </g>
  </g>
 </g>
 <defs>
  <clipPath id="p81b8b10b26">
   <rect height="270.04" width="343.864" x="56.12" y="24.84"/>
  </clipPath>
 </defs>
</svg>
