<?xml version="1.0" encoding="utf-8" standalone="no"?>
<!DOCTYPE svg PUBLIC "-//W3C//DTD SVG 1.1//EN"
  "http://www.w3.org/Graphics/SVG/1.1/DTD/svg11.dtd">
<!-- Created with matplotlib (http://matplotlib.org/) -->
<svg height="345pt" version="1.1" viewBox="0 0 460 345" width="460pt" xmlns="http://www.w3.org/2000/svg" xmlns:xlink="http://www.w3.org/1999/xlink">
 <defs>
  <style type="text/css">
*{stroke-linecap:butt;stroke-linejoin:round;}
  </style>
 </defs>
 <g id="figure_1">
  <g id="patch_1">
   <path d="M 0 345.6 
L 460.8 345.6 
L 460.8 0 
L 0 0 
z
" style="fill:#ffffff;"/>
  </g>
  <g id="axes_1">
   <g id="patch_2">
    <path d="M 56.12 294.88 
L 399.984 294.88 
L 399.984 24.84 
L 56.12 24.84 
z
" style="fill:#ffffff;"/>
   </g>
   <g id="line2d_1">
    <path d="M 26.132446 294.88 
L 26.132446 290.270236 
L 143.738809 290.270236 
L 143.738809 281.050707 
L 146.592416 281.050707 
L 146.592416 271.831178 
L 152.510052 271.831178 
L 152.510052 267.221413 
L 179.593731 267.221413 
L 179.593731 253.39212 
L 230.872633 253.39212 
L 230.872633 244.172591 
L 232.240082 244.172591 
L 232.240082 239.562827 
L 241.454262 239.562827 
L 241.454262 230.343298 
L 248.206244 230.343298 
L 248.206244 216.514005 
L 250.764684 216.514005 
L 250.764684 207.294476 
L 263.324252 207.294476 
L 263.324252 198.074947 
L 265.636068 198.074947 
L 265.636068 188.855418 
L 267.272754 188.855418 
L 267.272754 184.245654 
L 273.490375 184.245654 
L 273.490375 170.416361 
L 281.054962 170.416361 
L 281.054962 165.806596 
L 281.293717 165.806596 
L 281.293717 151.977303 
L 281.552107 151.977303 
L 281.552107 142.757774 
L 281.758686 142.757774 
L 281.758686 138.14801 
L 293.782922 138.14801 
L 293.782922 124.318716 
L 333.429677 124.318716 
" style="fill:none;stroke:#f5deb3;stroke-linecap:square;stroke-width:6;"/>
   </g>
   <g id="line2d_2">
    <path d="M 0 0 
" style="fill:none;stroke:#f5deb3;stroke-linecap:square;stroke-width:6;"/>
    <defs>
     <path d="M -0 7.778175 
L 7.778175 0 
L 0 -7.778175 
L -7.778175 -0 
z
" id="mc71454b8fd" style="stroke:#f5deb3;stroke-linejoin:miter;stroke-width:1.5;"/>
    </defs>
    <g>
     <use style="fill:#f5deb3;stroke:#f5deb3;stroke-linejoin:miter;stroke-width:1.5;" x="0" xlink:href="#mc71454b8fd" y="0"/>
    </g>
   </g>
   <g id="line2d_3">
    <path d="M 333.429677 124.318716 
L 363.933742 289.532673 
" style="fill:none;stroke:#f5deb3;stroke-linecap:square;stroke-width:6;"/>
    <g>
     <use style="fill:#f5deb3;stroke:#f5deb3;stroke-linejoin:miter;stroke-width:1.5;" x="333.429677" xlink:href="#mc71454b8fd" y="124.318716"/>
     <use style="fill:#f5deb3;stroke:#f5deb3;stroke-linejoin:miter;stroke-width:1.5;" x="363.933742" xlink:href="#mc71454b8fd" y="289.532673"/>
    </g>
   </g>
   <g id="matplotlib.axis_1">
    <g id="xtick_1">
     <g id="line2d_4">
      <path clip-path="url(#pf8da318c5d)" d="M 56.12 294.88 
L 56.12 24.84 
" style="fill:none;stroke:#b0b0b0;stroke-linecap:square;stroke-width:0.8;"/>
     </g>
     <g id="line2d_5">
      <defs>
       <path d="M 0 0 
L 0 3.5 
" id="m6dbb14f64f" style="stroke:#000000;stroke-width:0.8;"/>
      </defs>
      <g>
       <use style="stroke:#000000;stroke-width:0.8;" x="56.12" xlink:href="#m6dbb14f64f" y="294.88"/>
      </g>
     </g>
     <g id="text_1">
      <!-- 0 -->
      <defs>
       <path d="M 31.78125 66.40625 
Q 24.171875 66.40625 20.328125 58.90625 
Q 16.5 51.421875 16.5 36.375 
Q 16.5 21.390625 20.328125 13.890625 
Q 24.171875 6.390625 31.78125 6.390625 
Q 39.453125 6.390625 43.28125 13.890625 
Q 47.125 21.390625 47.125 36.375 
Q 47.125 51.421875 43.28125 58.90625 
Q 39.453125 66.40625 31.78125 66.40625 
z
M 31.78125 74.21875 
Q 44.046875 74.21875 50.515625 64.515625 
Q 56.984375 54.828125 56.984375 36.375 
Q 56.984375 17.96875 50.515625 8.265625 
Q 44.046875 -1.421875 31.78125 -1.421875 
Q 19.53125 -1.421875 13.0625 8.265625 
Q 6.59375 17.96875 6.59375 36.375 
Q 6.59375 54.828125 13.0625 64.515625 
Q 19.53125 74.21875 31.78125 74.21875 
z
" id="DejaVuSans-30"/>
      </defs>
      <g transform="translate(49.7575 317.076875)scale(0.2 -0.2)">
       <use xlink:href="#DejaVuSans-30"/>
      </g>
     </g>
    </g>
    <g id="xtick_2">
     <g id="line2d_6">
      <path clip-path="url(#pf8da318c5d)" d="M 135.351336 294.88 
L 135.351336 24.84 
" style="fill:none;stroke:#b0b0b0;stroke-linecap:square;stroke-width:0.8;"/>
     </g>
     <g id="line2d_7">
      <g>
       <use style="stroke:#000000;stroke-width:0.8;" x="135.351336" xlink:href="#m6dbb14f64f" y="294.88"/>
      </g>
     </g>
     <g id="text_2">
      <!-- 2 -->
      <defs>
       <path d="M 19.1875 8.296875 
L 53.609375 8.296875 
L 53.609375 0 
L 7.328125 0 
L 7.328125 8.296875 
Q 12.9375 14.109375 22.625 23.890625 
Q 32.328125 33.6875 34.8125 36.53125 
Q 39.546875 41.84375 41.421875 45.53125 
Q 43.3125 49.21875 43.3125 52.78125 
Q 43.3125 58.59375 39.234375 62.25 
Q 35.15625 65.921875 28.609375 65.921875 
Q 23.96875 65.921875 18.8125 64.3125 
Q 13.671875 62.703125 7.8125 59.421875 
L 7.8125 69.390625 
Q 13.765625 71.78125 18.9375 73 
Q 24.125 74.21875 28.421875 74.21875 
Q 39.75 74.21875 46.484375 68.546875 
Q 53.21875 62.890625 53.21875 53.421875 
Q 53.21875 48.921875 51.53125 44.890625 
Q 49.859375 40.875 45.40625 35.40625 
Q 44.1875 33.984375 37.640625 27.21875 
Q 31.109375 20.453125 19.1875 8.296875 
z
" id="DejaVuSans-32"/>
      </defs>
      <g transform="translate(128.988836 317.076875)scale(0.2 -0.2)">
       <use xlink:href="#DejaVuSans-32"/>
      </g>
     </g>
    </g>
    <g id="xtick_3">
     <g id="line2d_8">
      <path clip-path="url(#pf8da318c5d)" d="M 214.582673 294.88 
L 214.582673 24.84 
" style="fill:none;stroke:#b0b0b0;stroke-linecap:square;stroke-width:0.8;"/>
     </g>
     <g id="line2d_9">
      <g>
       <use style="stroke:#000000;stroke-width:0.8;" x="214.582673" xlink:href="#m6dbb14f64f" y="294.88"/>
      </g>
     </g>
     <g id="text_3">
      <!-- 4 -->
      <defs>
       <path d="M 37.796875 64.3125 
L 12.890625 25.390625 
L 37.796875 25.390625 
z
M 35.203125 72.90625 
L 47.609375 72.90625 
L 47.609375 25.390625 
L 58.015625 25.390625 
L 58.015625 17.1875 
L 47.609375 17.1875 
L 47.609375 0 
L 37.796875 0 
L 37.796875 17.1875 
L 4.890625 17.1875 
L 4.890625 26.703125 
z
" id="DejaVuSans-34"/>
      </defs>
      <g transform="translate(208.220173 317.076875)scale(0.2 -0.2)">
       <use xlink:href="#DejaVuSans-34"/>
      </g>
     </g>
    </g>
    <g id="xtick_4">
     <g id="line2d_10">
      <path clip-path="url(#pf8da318c5d)" d="M 293.814009 294.88 
L 293.814009 24.84 
" style="fill:none;stroke:#b0b0b0;stroke-linecap:square;stroke-width:0.8;"/>
     </g>
     <g id="line2d_11">
      <g>
       <use style="stroke:#000000;stroke-width:0.8;" x="293.814009" xlink:href="#m6dbb14f64f" y="294.88"/>
      </g>
     </g>
     <g id="text_4">
      <!-- 6 -->
      <defs>
       <path d="M 33.015625 40.375 
Q 26.375 40.375 22.484375 35.828125 
Q 18.609375 31.296875 18.609375 23.390625 
Q 18.609375 15.53125 22.484375 10.953125 
Q 26.375 6.390625 33.015625 6.390625 
Q 39.65625 6.390625 43.53125 10.953125 
Q 47.40625 15.53125 47.40625 23.390625 
Q 47.40625 31.296875 43.53125 35.828125 
Q 39.65625 40.375 33.015625 40.375 
z
M 52.59375 71.296875 
L 52.59375 62.3125 
Q 48.875 64.0625 45.09375 64.984375 
Q 41.3125 65.921875 37.59375 65.921875 
Q 27.828125 65.921875 22.671875 59.328125 
Q 17.53125 52.734375 16.796875 39.40625 
Q 19.671875 43.65625 24.015625 45.921875 
Q 28.375 48.1875 33.59375 48.1875 
Q 44.578125 48.1875 50.953125 41.515625 
Q 57.328125 34.859375 57.328125 23.390625 
Q 57.328125 12.15625 50.6875 5.359375 
Q 44.046875 -1.421875 33.015625 -1.421875 
Q 20.359375 -1.421875 13.671875 8.265625 
Q 6.984375 17.96875 6.984375 36.375 
Q 6.984375 53.65625 15.1875 63.9375 
Q 23.390625 74.21875 37.203125 74.21875 
Q 40.921875 74.21875 44.703125 73.484375 
Q 48.484375 72.75 52.59375 71.296875 
z
" id="DejaVuSans-36"/>
      </defs>
      <g transform="translate(287.451509 317.076875)scale(0.2 -0.2)">
       <use xlink:href="#DejaVuSans-36"/>
      </g>
     </g>
    </g>
    <g id="xtick_5">
     <g id="line2d_12">
      <path clip-path="url(#pf8da318c5d)" d="M 373.045346 294.88 
L 373.045346 24.84 
" style="fill:none;stroke:#b0b0b0;stroke-linecap:square;stroke-width:0.8;"/>
     </g>
     <g id="line2d_13">
      <g>
       <use style="stroke:#000000;stroke-width:0.8;" x="373.045346" xlink:href="#m6dbb14f64f" y="294.88"/>
      </g>
     </g>
     <g id="text_5">
      <!-- 8 -->
      <defs>
       <path d="M 31.78125 34.625 
Q 24.75 34.625 20.71875 30.859375 
Q 16.703125 27.09375 16.703125 20.515625 
Q 16.703125 13.921875 20.71875 10.15625 
Q 24.75 6.390625 31.78125 6.390625 
Q 38.8125 6.390625 42.859375 10.171875 
Q 46.921875 13.96875 46.921875 20.515625 
Q 46.921875 27.09375 42.890625 30.859375 
Q 38.875 34.625 31.78125 34.625 
z
M 21.921875 38.8125 
Q 15.578125 40.375 12.03125 44.71875 
Q 8.5 49.078125 8.5 55.328125 
Q 8.5 64.0625 14.71875 69.140625 
Q 20.953125 74.21875 31.78125 74.21875 
Q 42.671875 74.21875 48.875 69.140625 
Q 55.078125 64.0625 55.078125 55.328125 
Q 55.078125 49.078125 51.53125 44.71875 
Q 48 40.375 41.703125 38.8125 
Q 48.828125 37.15625 52.796875 32.3125 
Q 56.78125 27.484375 56.78125 20.515625 
Q 56.78125 9.90625 50.3125 4.234375 
Q 43.84375 -1.421875 31.78125 -1.421875 
Q 19.734375 -1.421875 13.25 4.234375 
Q 6.78125 9.90625 6.78125 20.515625 
Q 6.78125 27.484375 10.78125 32.3125 
Q 14.796875 37.15625 21.921875 38.8125 
z
M 18.3125 54.390625 
Q 18.3125 48.734375 21.84375 45.5625 
Q 25.390625 42.390625 31.78125 42.390625 
Q 38.140625 42.390625 41.71875 45.5625 
Q 45.3125 48.734375 45.3125 54.390625 
Q 45.3125 60.0625 41.71875 63.234375 
Q 38.140625 66.40625 31.78125 66.40625 
Q 25.390625 66.40625 21.84375 63.234375 
Q 18.3125 60.0625 18.3125 54.390625 
z
" id="DejaVuSans-38"/>
      </defs>
      <g transform="translate(366.682846 317.076875)scale(0.2 -0.2)">
       <use xlink:href="#DejaVuSans-38"/>
      </g>
     </g>
    </g>
    <g id="text_6">
     <!-- log10(# f-evals / dimension) -->
     <defs>
      <path d="M 9.421875 75.984375 
L 18.40625 75.984375 
L 18.40625 0 
L 9.421875 0 
z
" id="DejaVuSans-6c"/>
      <path d="M 30.609375 48.390625 
Q 23.390625 48.390625 19.1875 42.75 
Q 14.984375 37.109375 14.984375 27.296875 
Q 14.984375 17.484375 19.15625 11.84375 
Q 23.34375 6.203125 30.609375 6.203125 
Q 37.796875 6.203125 41.984375 11.859375 
Q 46.1875 17.53125 46.1875 27.296875 
Q 46.1875 37.015625 41.984375 42.703125 
Q 37.796875 48.390625 30.609375 48.390625 
z
M 30.609375 56 
Q 42.328125 56 49.015625 48.375 
Q 55.71875 40.765625 55.71875 27.296875 
Q 55.71875 13.875 49.015625 6.21875 
Q 42.328125 -1.421875 30.609375 -1.421875 
Q 18.84375 -1.421875 12.171875 6.21875 
Q 5.515625 13.875 5.515625 27.296875 
Q 5.515625 40.765625 12.171875 48.375 
Q 18.84375 56 30.609375 56 
z
" id="DejaVuSans-6f"/>
      <path d="M 45.40625 27.984375 
Q 45.40625 37.75 41.375 43.109375 
Q 37.359375 48.484375 30.078125 48.484375 
Q 22.859375 48.484375 18.828125 43.109375 
Q 14.796875 37.75 14.796875 27.984375 
Q 14.796875 18.265625 18.828125 12.890625 
Q 22.859375 7.515625 30.078125 7.515625 
Q 37.359375 7.515625 41.375 12.890625 
Q 45.40625 18.265625 45.40625 27.984375 
z
M 54.390625 6.78125 
Q 54.390625 -7.171875 48.1875 -13.984375 
Q 42 -20.796875 29.203125 -20.796875 
Q 24.46875 -20.796875 20.265625 -20.09375 
Q 16.0625 -19.390625 12.109375 -17.921875 
L 12.109375 -9.1875 
Q 16.0625 -11.328125 19.921875 -12.34375 
Q 23.78125 -13.375 27.78125 -13.375 
Q 36.625 -13.375 41.015625 -8.765625 
Q 45.40625 -4.15625 45.40625 5.171875 
L 45.40625 9.625 
Q 42.625 4.78125 38.28125 2.390625 
Q 33.9375 0 27.875 0 
Q 17.828125 0 11.671875 7.65625 
Q 5.515625 15.328125 5.515625 27.984375 
Q 5.515625 40.671875 11.671875 48.328125 
Q 17.828125 56 27.875 56 
Q 33.9375 56 38.28125 53.609375 
Q 42.625 51.21875 45.40625 46.390625 
L 45.40625 54.6875 
L 54.390625 54.6875 
z
" id="DejaVuSans-67"/>
      <path d="M 12.40625 8.296875 
L 28.515625 8.296875 
L 28.515625 63.921875 
L 10.984375 60.40625 
L 10.984375 69.390625 
L 28.421875 72.90625 
L 38.28125 72.90625 
L 38.28125 8.296875 
L 54.390625 8.296875 
L 54.390625 0 
L 12.40625 0 
z
" id="DejaVuSans-31"/>
      <path d="M 31 75.875 
Q 24.46875 64.65625 21.28125 53.65625 
Q 18.109375 42.671875 18.109375 31.390625 
Q 18.109375 20.125 21.3125 9.0625 
Q 24.515625 -2 31 -13.1875 
L 23.1875 -13.1875 
Q 15.875 -1.703125 12.234375 9.375 
Q 8.59375 20.453125 8.59375 31.390625 
Q 8.59375 42.28125 12.203125 53.3125 
Q 15.828125 64.359375 23.1875 75.875 
z
" id="DejaVuSans-28"/>
      <path d="M 51.125 44 
L 36.921875 44 
L 32.8125 27.6875 
L 47.125 27.6875 
z
M 43.796875 71.78125 
L 38.71875 51.515625 
L 52.984375 51.515625 
L 58.109375 71.78125 
L 65.921875 71.78125 
L 60.890625 51.515625 
L 76.125 51.515625 
L 76.125 44 
L 58.984375 44 
L 54.984375 27.6875 
L 70.515625 27.6875 
L 70.515625 20.21875 
L 53.078125 20.21875 
L 48 0 
L 40.1875 0 
L 45.21875 20.21875 
L 30.90625 20.21875 
L 25.875 0 
L 18.015625 0 
L 23.09375 20.21875 
L 7.71875 20.21875 
L 7.71875 27.6875 
L 24.90625 27.6875 
L 29 44 
L 13.28125 44 
L 13.28125 51.515625 
L 30.90625 51.515625 
L 35.890625 71.78125 
z
" id="DejaVuSans-23"/>
      <path id="DejaVuSans-20"/>
      <path d="M 37.109375 75.984375 
L 37.109375 68.5 
L 28.515625 68.5 
Q 23.6875 68.5 21.796875 66.546875 
Q 19.921875 64.59375 19.921875 59.515625 
L 19.921875 54.6875 
L 34.71875 54.6875 
L 34.71875 47.703125 
L 19.921875 47.703125 
L 19.921875 0 
L 10.890625 0 
L 10.890625 47.703125 
L 2.296875 47.703125 
L 2.296875 54.6875 
L 10.890625 54.6875 
L 10.890625 58.5 
Q 10.890625 67.625 15.140625 71.796875 
Q 19.390625 75.984375 28.609375 75.984375 
z
" id="DejaVuSans-66"/>
      <path d="M 4.890625 31.390625 
L 31.203125 31.390625 
L 31.203125 23.390625 
L 4.890625 23.390625 
z
" id="DejaVuSans-2d"/>
      <path d="M 56.203125 29.59375 
L 56.203125 25.203125 
L 14.890625 25.203125 
Q 15.484375 15.921875 20.484375 11.0625 
Q 25.484375 6.203125 34.421875 6.203125 
Q 39.59375 6.203125 44.453125 7.46875 
Q 49.3125 8.734375 54.109375 11.28125 
L 54.109375 2.78125 
Q 49.265625 0.734375 44.1875 -0.34375 
Q 39.109375 -1.421875 33.890625 -1.421875 
Q 20.796875 -1.421875 13.15625 6.1875 
Q 5.515625 13.8125 5.515625 26.8125 
Q 5.515625 40.234375 12.765625 48.109375 
Q 20.015625 56 32.328125 56 
Q 43.359375 56 49.78125 48.890625 
Q 56.203125 41.796875 56.203125 29.59375 
z
M 47.21875 32.234375 
Q 47.125 39.59375 43.09375 43.984375 
Q 39.0625 48.390625 32.421875 48.390625 
Q 24.90625 48.390625 20.390625 44.140625 
Q 15.875 39.890625 15.1875 32.171875 
z
" id="DejaVuSans-65"/>
      <path d="M 2.984375 54.6875 
L 12.5 54.6875 
L 29.59375 8.796875 
L 46.6875 54.6875 
L 56.203125 54.6875 
L 35.6875 0 
L 23.484375 0 
z
" id="DejaVuSans-76"/>
      <path d="M 34.28125 27.484375 
Q 23.390625 27.484375 19.1875 25 
Q 14.984375 22.515625 14.984375 16.5 
Q 14.984375 11.71875 18.140625 8.90625 
Q 21.296875 6.109375 26.703125 6.109375 
Q 34.1875 6.109375 38.703125 11.40625 
Q 43.21875 16.703125 43.21875 25.484375 
L 43.21875 27.484375 
z
M 52.203125 31.203125 
L 52.203125 0 
L 43.21875 0 
L 43.21875 8.296875 
Q 40.140625 3.328125 35.546875 0.953125 
Q 30.953125 -1.421875 24.3125 -1.421875 
Q 15.921875 -1.421875 10.953125 3.296875 
Q 6 8.015625 6 15.921875 
Q 6 25.140625 12.171875 29.828125 
Q 18.359375 34.515625 30.609375 34.515625 
L 43.21875 34.515625 
L 43.21875 35.40625 
Q 43.21875 41.609375 39.140625 45 
Q 35.0625 48.390625 27.6875 48.390625 
Q 23 48.390625 18.546875 47.265625 
Q 14.109375 46.140625 10.015625 43.890625 
L 10.015625 52.203125 
Q 14.9375 54.109375 19.578125 55.046875 
Q 24.21875 56 28.609375 56 
Q 40.484375 56 46.34375 49.84375 
Q 52.203125 43.703125 52.203125 31.203125 
z
" id="DejaVuSans-61"/>
      <path d="M 44.28125 53.078125 
L 44.28125 44.578125 
Q 40.484375 46.53125 36.375 47.5 
Q 32.28125 48.484375 27.875 48.484375 
Q 21.1875 48.484375 17.84375 46.4375 
Q 14.5 44.390625 14.5 40.28125 
Q 14.5 37.15625 16.890625 35.375 
Q 19.28125 33.59375 26.515625 31.984375 
L 29.59375 31.296875 
Q 39.15625 29.25 43.1875 25.515625 
Q 47.21875 21.78125 47.21875 15.09375 
Q 47.21875 7.46875 41.1875 3.015625 
Q 35.15625 -1.421875 24.609375 -1.421875 
Q 20.21875 -1.421875 15.453125 -0.5625 
Q 10.6875 0.296875 5.421875 2 
L 5.421875 11.28125 
Q 10.40625 8.6875 15.234375 7.390625 
Q 20.0625 6.109375 24.8125 6.109375 
Q 31.15625 6.109375 34.5625 8.28125 
Q 37.984375 10.453125 37.984375 14.40625 
Q 37.984375 18.0625 35.515625 20.015625 
Q 33.0625 21.96875 24.703125 23.78125 
L 21.578125 24.515625 
Q 13.234375 26.265625 9.515625 29.90625 
Q 5.8125 33.546875 5.8125 39.890625 
Q 5.8125 47.609375 11.28125 51.796875 
Q 16.75 56 26.8125 56 
Q 31.78125 56 36.171875 55.265625 
Q 40.578125 54.546875 44.28125 53.078125 
z
" id="DejaVuSans-73"/>
      <path d="M 25.390625 72.90625 
L 33.6875 72.90625 
L 8.296875 -9.28125 
L 0 -9.28125 
z
" id="DejaVuSans-2f"/>
      <path d="M 45.40625 46.390625 
L 45.40625 75.984375 
L 54.390625 75.984375 
L 54.390625 0 
L 45.40625 0 
L 45.40625 8.203125 
Q 42.578125 3.328125 38.25 0.953125 
Q 33.9375 -1.421875 27.875 -1.421875 
Q 17.96875 -1.421875 11.734375 6.484375 
Q 5.515625 14.40625 5.515625 27.296875 
Q 5.515625 40.1875 11.734375 48.09375 
Q 17.96875 56 27.875 56 
Q 33.9375 56 38.25 53.625 
Q 42.578125 51.265625 45.40625 46.390625 
z
M 14.796875 27.296875 
Q 14.796875 17.390625 18.875 11.75 
Q 22.953125 6.109375 30.078125 6.109375 
Q 37.203125 6.109375 41.296875 11.75 
Q 45.40625 17.390625 45.40625 27.296875 
Q 45.40625 37.203125 41.296875 42.84375 
Q 37.203125 48.484375 30.078125 48.484375 
Q 22.953125 48.484375 18.875 42.84375 
Q 14.796875 37.203125 14.796875 27.296875 
z
" id="DejaVuSans-64"/>
      <path d="M 9.421875 54.6875 
L 18.40625 54.6875 
L 18.40625 0 
L 9.421875 0 
z
M 9.421875 75.984375 
L 18.40625 75.984375 
L 18.40625 64.59375 
L 9.421875 64.59375 
z
" id="DejaVuSans-69"/>
      <path d="M 52 44.1875 
Q 55.375 50.25 60.0625 53.125 
Q 64.75 56 71.09375 56 
Q 79.640625 56 84.28125 50.015625 
Q 88.921875 44.046875 88.921875 33.015625 
L 88.921875 0 
L 79.890625 0 
L 79.890625 32.71875 
Q 79.890625 40.578125 77.09375 44.375 
Q 74.3125 48.1875 68.609375 48.1875 
Q 61.625 48.1875 57.5625 43.546875 
Q 53.515625 38.921875 53.515625 30.90625 
L 53.515625 0 
L 44.484375 0 
L 44.484375 32.71875 
Q 44.484375 40.625 41.703125 44.40625 
Q 38.921875 48.1875 33.109375 48.1875 
Q 26.21875 48.1875 22.15625 43.53125 
Q 18.109375 38.875 18.109375 30.90625 
L 18.109375 0 
L 9.078125 0 
L 9.078125 54.6875 
L 18.109375 54.6875 
L 18.109375 46.1875 
Q 21.1875 51.21875 25.484375 53.609375 
Q 29.78125 56 35.6875 56 
Q 41.65625 56 45.828125 52.96875 
Q 50 49.953125 52 44.1875 
z
" id="DejaVuSans-6d"/>
      <path d="M 54.890625 33.015625 
L 54.890625 0 
L 45.90625 0 
L 45.90625 32.71875 
Q 45.90625 40.484375 42.875 44.328125 
Q 39.84375 48.1875 33.796875 48.1875 
Q 26.515625 48.1875 22.3125 43.546875 
Q 18.109375 38.921875 18.109375 30.90625 
L 18.109375 0 
L 9.078125 0 
L 9.078125 54.6875 
L 18.109375 54.6875 
L 18.109375 46.1875 
Q 21.34375 51.125 25.703125 53.5625 
Q 30.078125 56 35.796875 56 
Q 45.21875 56 50.046875 50.171875 
Q 54.890625 44.34375 54.890625 33.015625 
z
" id="DejaVuSans-6e"/>
      <path d="M 8.015625 75.875 
L 15.828125 75.875 
Q 23.140625 64.359375 26.78125 53.3125 
Q 30.421875 42.28125 30.421875 31.390625 
Q 30.421875 20.453125 26.78125 9.375 
Q 23.140625 -1.703125 15.828125 -13.1875 
L 8.015625 -13.1875 
Q 14.5 -2 17.703125 9.0625 
Q 20.90625 20.125 20.90625 31.390625 
Q 20.90625 42.671875 17.703125 53.65625 
Q 14.5 64.65625 8.015625 75.875 
z
" id="DejaVuSans-29"/>
     </defs>
     <g transform="translate(107.211219 338.153594)scale(0.17 -0.17)">
      <use xlink:href="#DejaVuSans-6c"/>
      <use x="27.783203" xlink:href="#DejaVuSans-6f"/>
      <use x="88.964844" xlink:href="#DejaVuSans-67"/>
      <use x="152.441406" xlink:href="#DejaVuSans-31"/>
      <use x="216.064453" xlink:href="#DejaVuSans-30"/>
      <use x="279.6875" xlink:href="#DejaVuSans-28"/>
      <use x="318.701172" xlink:href="#DejaVuSans-23"/>
      <use x="402.490234" xlink:href="#DejaVuSans-20"/>
      <use x="434.277344" xlink:href="#DejaVuSans-66"/>
      <use x="469.404297" xlink:href="#DejaVuSans-2d"/>
      <use x="505.488281" xlink:href="#DejaVuSans-65"/>
      <use x="567.011719" xlink:href="#DejaVuSans-76"/>
      <use x="626.191406" xlink:href="#DejaVuSans-61"/>
      <use x="687.470703" xlink:href="#DejaVuSans-6c"/>
      <use x="715.253906" xlink:href="#DejaVuSans-73"/>
      <use x="767.353516" xlink:href="#DejaVuSans-20"/>
      <use x="799.140625" xlink:href="#DejaVuSans-2f"/>
      <use x="832.832031" xlink:href="#DejaVuSans-20"/>
      <use x="864.619141" xlink:href="#DejaVuSans-64"/>
      <use x="928.095703" xlink:href="#DejaVuSans-69"/>
      <use x="955.878906" xlink:href="#DejaVuSans-6d"/>
      <use x="1053.291016" xlink:href="#DejaVuSans-65"/>
      <use x="1114.814453" xlink:href="#DejaVuSans-6e"/>
      <use x="1178.193359" xlink:href="#DejaVuSans-73"/>
      <use x="1230.292969" xlink:href="#DejaVuSans-69"/>
      <use x="1258.076172" xlink:href="#DejaVuSans-6f"/>
      <use x="1319.257812" xlink:href="#DejaVuSans-6e"/>
      <use x="1382.636719" xlink:href="#DejaVuSans-29"/>
     </g>
    </g>
   </g>
   <g id="matplotlib.axis_2">
    <g id="ytick_1">
     <g id="line2d_14">
      <path clip-path="url(#pf8da318c5d)" d="M 56.12 294.88 
L 399.984 294.88 
" style="fill:none;stroke:#b0b0b0;stroke-linecap:square;stroke-width:0.8;"/>
     </g>
     <g id="line2d_15">
      <defs>
       <path d="M 0 0 
L -3.5 0 
" id="mfdc28ca118" style="stroke:#000000;stroke-width:0.8;"/>
      </defs>
      <g>
       <use style="stroke:#000000;stroke-width:0.8;" x="56.12" xlink:href="#mfdc28ca118" y="294.88"/>
      </g>
     </g>
     <g id="text_7">
      <!-- 0.0 -->
      <defs>
       <path d="M 10.6875 12.40625 
L 21 12.40625 
L 21 0 
L 10.6875 0 
z
" id="DejaVuSans-2e"/>
      </defs>
      <g transform="translate(23.675 300.95875)scale(0.16 -0.16)">
       <use xlink:href="#DejaVuSans-30"/>
       <use x="63.623047" xlink:href="#DejaVuSans-2e"/>
       <use x="95.410156" xlink:href="#DejaVuSans-30"/>
      </g>
     </g>
    </g>
    <g id="ytick_2">
     <g id="line2d_16">
      <path clip-path="url(#pf8da318c5d)" d="M 56.12 241.406733 
L 399.984 241.406733 
" style="fill:none;stroke:#b0b0b0;stroke-linecap:square;stroke-width:0.8;"/>
     </g>
     <g id="line2d_17">
      <g>
       <use style="stroke:#000000;stroke-width:0.8;" x="56.12" xlink:href="#mfdc28ca118" y="241.406733"/>
      </g>
     </g>
     <g id="text_8">
      <!-- 0.2 -->
      <g transform="translate(23.675 247.485483)scale(0.16 -0.16)">
       <use xlink:href="#DejaVuSans-30"/>
       <use x="63.623047" xlink:href="#DejaVuSans-2e"/>
       <use x="95.410156" xlink:href="#DejaVuSans-32"/>
      </g>
     </g>
    </g>
    <g id="ytick_3">
     <g id="line2d_18">
      <path clip-path="url(#pf8da318c5d)" d="M 56.12 187.933465 
L 399.984 187.933465 
" style="fill:none;stroke:#b0b0b0;stroke-linecap:square;stroke-width:0.8;"/>
     </g>
     <g id="line2d_19">
      <g>
       <use style="stroke:#000000;stroke-width:0.8;" x="56.12" xlink:href="#mfdc28ca118" y="187.933465"/>
      </g>
     </g>
     <g id="text_9">
      <!-- 0.4 -->
      <g transform="translate(23.675 194.012215)scale(0.16 -0.16)">
       <use xlink:href="#DejaVuSans-30"/>
       <use x="63.623047" xlink:href="#DejaVuSans-2e"/>
       <use x="95.410156" xlink:href="#DejaVuSans-34"/>
      </g>
     </g>
    </g>
    <g id="ytick_4">
     <g id="line2d_20">
      <path clip-path="url(#pf8da318c5d)" d="M 56.12 134.460198 
L 399.984 134.460198 
" style="fill:none;stroke:#b0b0b0;stroke-linecap:square;stroke-width:0.8;"/>
     </g>
     <g id="line2d_21">
      <g>
       <use style="stroke:#000000;stroke-width:0.8;" x="56.12" xlink:href="#mfdc28ca118" y="134.460198"/>
      </g>
     </g>
     <g id="text_10">
      <!-- 0.6 -->
      <g transform="translate(23.675 140.538948)scale(0.16 -0.16)">
       <use xlink:href="#DejaVuSans-30"/>
       <use x="63.623047" xlink:href="#DejaVuSans-2e"/>
       <use x="95.410156" xlink:href="#DejaVuSans-36"/>
      </g>
     </g>
    </g>
    <g id="ytick_5">
     <g id="line2d_22">
      <path clip-path="url(#pf8da318c5d)" d="M 56.12 80.986931 
L 399.984 80.986931 
" style="fill:none;stroke:#b0b0b0;stroke-linecap:square;stroke-width:0.8;"/>
     </g>
     <g id="line2d_23">
      <g>
       <use style="stroke:#000000;stroke-width:0.8;" x="56.12" xlink:href="#mfdc28ca118" y="80.986931"/>
      </g>
     </g>
     <g id="text_11">
      <!-- 0.8 -->
      <g transform="translate(23.675 87.065681)scale(0.16 -0.16)">
       <use xlink:href="#DejaVuSans-30"/>
       <use x="63.623047" xlink:href="#DejaVuSans-2e"/>
       <use x="95.410156" xlink:href="#DejaVuSans-38"/>
      </g>
     </g>
    </g>
    <g id="ytick_6">
     <g id="line2d_24">
      <path clip-path="url(#pf8da318c5d)" d="M 56.12 27.513663 
L 399.984 27.513663 
" style="fill:none;stroke:#b0b0b0;stroke-linecap:square;stroke-width:0.8;"/>
     </g>
     <g id="line2d_25">
      <g>
       <use style="stroke:#000000;stroke-width:0.8;" x="56.12" xlink:href="#mfdc28ca118" y="27.513663"/>
      </g>
     </g>
     <g id="text_12">
      <!-- 1.0 -->
      <g transform="translate(23.675 33.592413)scale(0.16 -0.16)">
       <use xlink:href="#DejaVuSans-31"/>
       <use x="63.623047" xlink:href="#DejaVuSans-2e"/>
       <use x="95.410156" xlink:href="#DejaVuSans-30"/>
      </g>
     </g>
    </g>
    <g id="text_13">
     <!-- Fraction of function,target pairs -->
     <defs>
      <path d="M 9.8125 72.90625 
L 51.703125 72.90625 
L 51.703125 64.59375 
L 19.671875 64.59375 
L 19.671875 43.109375 
L 48.578125 43.109375 
L 48.578125 34.8125 
L 19.671875 34.8125 
L 19.671875 0 
L 9.8125 0 
z
" id="DejaVuSans-46"/>
      <path d="M 41.109375 46.296875 
Q 39.59375 47.171875 37.8125 47.578125 
Q 36.03125 48 33.890625 48 
Q 26.265625 48 22.1875 43.046875 
Q 18.109375 38.09375 18.109375 28.8125 
L 18.109375 0 
L 9.078125 0 
L 9.078125 54.6875 
L 18.109375 54.6875 
L 18.109375 46.1875 
Q 20.953125 51.171875 25.484375 53.578125 
Q 30.03125 56 36.53125 56 
Q 37.453125 56 38.578125 55.875 
Q 39.703125 55.765625 41.0625 55.515625 
z
" id="DejaVuSans-72"/>
      <path d="M 48.78125 52.59375 
L 48.78125 44.1875 
Q 44.96875 46.296875 41.140625 47.34375 
Q 37.3125 48.390625 33.40625 48.390625 
Q 24.65625 48.390625 19.8125 42.84375 
Q 14.984375 37.3125 14.984375 27.296875 
Q 14.984375 17.28125 19.8125 11.734375 
Q 24.65625 6.203125 33.40625 6.203125 
Q 37.3125 6.203125 41.140625 7.25 
Q 44.96875 8.296875 48.78125 10.40625 
L 48.78125 2.09375 
Q 45.015625 0.34375 40.984375 -0.53125 
Q 36.96875 -1.421875 32.421875 -1.421875 
Q 20.0625 -1.421875 12.78125 6.34375 
Q 5.515625 14.109375 5.515625 27.296875 
Q 5.515625 40.671875 12.859375 48.328125 
Q 20.21875 56 33.015625 56 
Q 37.15625 56 41.109375 55.140625 
Q 45.0625 54.296875 48.78125 52.59375 
z
" id="DejaVuSans-63"/>
      <path d="M 18.3125 70.21875 
L 18.3125 54.6875 
L 36.8125 54.6875 
L 36.8125 47.703125 
L 18.3125 47.703125 
L 18.3125 18.015625 
Q 18.3125 11.328125 20.140625 9.421875 
Q 21.96875 7.515625 27.59375 7.515625 
L 36.8125 7.515625 
L 36.8125 0 
L 27.59375 0 
Q 17.1875 0 13.234375 3.875 
Q 9.28125 7.765625 9.28125 18.015625 
L 9.28125 47.703125 
L 2.6875 47.703125 
L 2.6875 54.6875 
L 9.28125 54.6875 
L 9.28125 70.21875 
z
" id="DejaVuSans-74"/>
      <path d="M 8.5 21.578125 
L 8.5 54.6875 
L 17.484375 54.6875 
L 17.484375 21.921875 
Q 17.484375 14.15625 20.5 10.265625 
Q 23.53125 6.390625 29.59375 6.390625 
Q 36.859375 6.390625 41.078125 11.03125 
Q 45.3125 15.671875 45.3125 23.6875 
L 45.3125 54.6875 
L 54.296875 54.6875 
L 54.296875 0 
L 45.3125 0 
L 45.3125 8.40625 
Q 42.046875 3.421875 37.71875 1 
Q 33.40625 -1.421875 27.6875 -1.421875 
Q 18.265625 -1.421875 13.375 4.4375 
Q 8.5 10.296875 8.5 21.578125 
z
M 31.109375 56 
z
" id="DejaVuSans-75"/>
      <path d="M 11.71875 12.40625 
L 22.015625 12.40625 
L 22.015625 4 
L 14.015625 -11.625 
L 7.71875 -11.625 
L 11.71875 4 
z
" id="DejaVuSans-2c"/>
      <path d="M 18.109375 8.203125 
L 18.109375 -20.796875 
L 9.078125 -20.796875 
L 9.078125 54.6875 
L 18.109375 54.6875 
L 18.109375 46.390625 
Q 20.953125 51.265625 25.265625 53.625 
Q 29.59375 56 35.59375 56 
Q 45.5625 56 51.78125 48.09375 
Q 58.015625 40.1875 58.015625 27.296875 
Q 58.015625 14.40625 51.78125 6.484375 
Q 45.5625 -1.421875 35.59375 -1.421875 
Q 29.59375 -1.421875 25.265625 0.953125 
Q 20.953125 3.328125 18.109375 8.203125 
z
M 48.6875 27.296875 
Q 48.6875 37.203125 44.609375 42.84375 
Q 40.53125 48.484375 33.40625 48.484375 
Q 26.265625 48.484375 22.1875 42.84375 
Q 18.109375 37.203125 18.109375 27.296875 
Q 18.109375 17.390625 22.1875 11.75 
Q 26.265625 6.109375 33.40625 6.109375 
Q 40.53125 6.109375 44.609375 11.75 
Q 48.6875 17.390625 48.6875 27.296875 
z
" id="DejaVuSans-70"/>
     </defs>
     <g transform="translate(16.139531 294.999375)rotate(-90)scale(0.17 -0.17)">
      <use xlink:href="#DejaVuSans-46"/>
      <use x="57.410156" xlink:href="#DejaVuSans-72"/>
      <use x="98.523438" xlink:href="#DejaVuSans-61"/>
      <use x="159.802734" xlink:href="#DejaVuSans-63"/>
      <use x="214.783203" xlink:href="#DejaVuSans-74"/>
      <use x="253.992188" xlink:href="#DejaVuSans-69"/>
      <use x="281.775391" xlink:href="#DejaVuSans-6f"/>
      <use x="342.957031" xlink:href="#DejaVuSans-6e"/>
      <use x="406.335938" xlink:href="#DejaVuSans-20"/>
      <use x="438.123047" xlink:href="#DejaVuSans-6f"/>
      <use x="499.304688" xlink:href="#DejaVuSans-66"/>
      <use x="534.509766" xlink:href="#DejaVuSans-20"/>
      <use x="566.296875" xlink:href="#DejaVuSans-66"/>
      <use x="601.501953" xlink:href="#DejaVuSans-75"/>
      <use x="664.880859" xlink:href="#DejaVuSans-6e"/>
      <use x="728.259766" xlink:href="#DejaVuSans-63"/>
      <use x="783.240234" xlink:href="#DejaVuSans-74"/>
      <use x="822.449219" xlink:href="#DejaVuSans-69"/>
      <use x="850.232422" xlink:href="#DejaVuSans-6f"/>
      <use x="911.414062" xlink:href="#DejaVuSans-6e"/>
      <use x="974.792969" xlink:href="#DejaVuSans-2c"/>
      <use x="1006.580078" xlink:href="#DejaVuSans-74"/>
      <use x="1045.789062" xlink:href="#DejaVuSans-61"/>
      <use x="1107.068359" xlink:href="#DejaVuSans-72"/>
      <use x="1148.166016" xlink:href="#DejaVuSans-67"/>
      <use x="1211.642578" xlink:href="#DejaVuSans-65"/>
      <use x="1273.166016" xlink:href="#DejaVuSans-74"/>
      <use x="1312.375" xlink:href="#DejaVuSans-20"/>
      <use x="1344.162109" xlink:href="#DejaVuSans-70"/>
      <use x="1407.638672" xlink:href="#DejaVuSans-61"/>
      <use x="1468.917969" xlink:href="#DejaVuSans-69"/>
      <use x="1496.701172" xlink:href="#DejaVuSans-72"/>
      <use x="1537.814453" xlink:href="#DejaVuSans-73"/>
     </g>
    </g>
   </g>
   <g id="line2d_26">
    <defs>
     <path d="M 0 1.5 
C 0.397805 1.5 0.77937 1.341951 1.06066 1.06066 
C 1.341951 0.77937 1.5 0.397805 1.5 0 
C 1.5 -0.397805 1.341951 -0.77937 1.06066 -1.06066 
C 0.77937 -1.341951 0.397805 -1.5 0 -1.5 
C -0.397805 -1.5 -0.77937 -1.341951 -1.06066 -1.06066 
C -1.341951 -0.77937 -1.5 -0.397805 -1.5 0 
C -1.5 0.397805 -1.341951 0.77937 -1.06066 1.06066 
C -0.77937 1.341951 -0.397805 1.5 0 1.5 
z
" id="m202fd2c4be" style="stroke:#f5deb3;"/>
    </defs>
    <g>
     <use style="fill:#f5deb3;stroke:#f5deb3;" x="293.782922" xlink:href="#m202fd2c4be" y="124.318716"/>
     <use style="fill:#f5deb3;stroke:#f5deb3;" x="293.782922" xlink:href="#m202fd2c4be" y="124.318716"/>
    </g>
   </g>
   <g id="line2d_27">
    <g>
     <use style="fill:#f5deb3;stroke:#f5deb3;stroke-linejoin:miter;stroke-width:1.5;" x="179.593731" xlink:href="#mc71454b8fd" y="267.221413"/>
     <use style="fill:#f5deb3;stroke:#f5deb3;stroke-linejoin:miter;stroke-width:1.5;" x="241.454262" xlink:href="#mc71454b8fd" y="239.562827"/>
     <use style="fill:#f5deb3;stroke:#f5deb3;stroke-linejoin:miter;stroke-width:1.5;" x="281.293717" xlink:href="#mc71454b8fd" y="165.806596"/>
     <use style="fill:#f5deb3;stroke:#f5deb3;stroke-linejoin:miter;stroke-width:1.5;" x="293.782922" xlink:href="#mc71454b8fd" y="124.318716"/>
     <use style="fill:#f5deb3;stroke:#f5deb3;stroke-linejoin:miter;stroke-width:1.5;" x="333.429677" xlink:href="#mc71454b8fd" y="124.318716"/>
    </g>
   </g>
   <g id="line2d_28">
    <defs>
     <path d="M 0 1.5 
C 0.397805 1.5 0.77937 1.341951 1.06066 1.06066 
C 1.341951 0.77937 1.5 0.397805 1.5 0 
C 1.5 -0.397805 1.341951 -0.77937 1.06066 -1.06066 
C 0.77937 -1.341951 0.397805 -1.5 0 -1.5 
C -0.397805 -1.5 -0.77937 -1.341951 -1.06066 -1.06066 
C -1.341951 -0.77937 -1.5 -0.397805 -1.5 0 
C -1.5 0.397805 -1.341951 0.77937 -1.06066 1.06066 
C -0.77937 1.341951 -0.397805 1.5 0 1.5 
z
" id="mc74f0e4d69" style="stroke:#999999;"/>
    </defs>
    <g>
     <use style="fill:#999999;stroke:#999999;" x="328.50694" xlink:href="#mc74f0e4d69" y="267.221413"/>
     <use style="fill:#999999;stroke:#999999;" x="328.50694" xlink:href="#mc74f0e4d69" y="267.221413"/>
    </g>
   </g>
   <g id="line2d_29">
    <path d="M -1 290.270236 
L 117.313848 290.270236 
L 117.313848 289.809259 
L 123.579983 289.809259 
L 123.579983 289.348283 
L 123.825469 289.348283 
L 123.825469 288.887306 
L 144.651919 288.887306 
L 144.651919 288.42633 
L 167.646519 288.42633 
L 167.646519 286.121448 
L 169.479823 286.121448 
L 169.479823 285.199495 
L 170.60602 285.199495 
L 170.60602 284.738518 
L 174.773223 284.738518 
L 174.773223 284.277542 
L 177.908083 284.277542 
L 177.908083 283.355589 
L 187.750157 283.355589 
L 187.750157 281.511683 
L 216.959596 281.511683 
L 216.959596 281.050707 
L 243.915169 281.050707 
L 243.915169 280.128754 
L 253.045929 280.128754 
L 253.045929 279.667777 
L 254.310738 279.667777 
L 254.310738 279.206801 
L 254.311046 279.206801 
L 254.311046 278.745825 
L 254.493415 278.745825 
L 254.493415 278.284848 
L 254.736866 278.284848 
L 254.736866 277.823872 
L 256.066888 277.823872 
L 256.066888 277.362895 
L 256.066919 277.362895 
L 256.066919 276.901919 
L 256.068898 276.901919 
L 256.068898 276.440942 
L 257.970908 276.440942 
L 257.970908 275.979966 
L 266.180414 275.979966 
L 266.180414 275.058013 
L 266.191127 275.058013 
L 266.191127 274.597037 
L 273.14482 274.597037 
L 273.14482 274.13606 
L 273.745726 274.13606 
L 273.745726 273.675084 
L 281.91566 273.675084 
L 281.91566 273.214107 
L 282.279187 273.214107 
L 282.279187 272.753131 
L 285.351582 272.753131 
L 285.351582 272.292154 
L 287.957519 272.292154 
L 287.957519 271.831178 
L 292.016655 271.831178 
L 292.016655 271.370201 
L 293.827821 271.370201 
L 293.827821 270.909225 
L 295.466401 270.909225 
L 295.466401 270.448249 
L 299.612949 270.448249 
L 299.612949 269.987272 
L 304.961012 269.987272 
L 304.961012 269.526296 
L 307.469217 269.526296 
L 307.469217 269.065319 
L 308.150412 269.065319 
L 308.150412 268.604343 
L 312.200588 268.604343 
L 312.200588 268.143366 
L 315.856536 268.143366 
L 315.856536 267.68239 
L 328.50694 267.68239 
L 328.50694 267.221413 
L 333.429677 267.221413 
" style="fill:none;stroke:#999999;stroke-linecap:square;stroke-width:1.5;"/>
   </g>
   <g id="line2d_30"/>
   <g id="line2d_31">
    <path d="M 0 0 
" style="fill:none;stroke:#999999;stroke-linecap:square;stroke-width:1.5;"/>
   </g>
   <g id="line2d_32">
    <path clip-path="url(#pf8da318c5d)" d="M 254.198956 279.667777 
" style="fill:none;stroke:#999999;stroke-linecap:square;stroke-width:1.5;"/>
    <defs>
     <path d="M -12 12 
L 12 -12 
M -12 -12 
L 12 12 
" id="me101390218" style="stroke:#999999;stroke-width:3;"/>
    </defs>
    <g clip-path="url(#pf8da318c5d)">
     <use style="fill:#999999;stroke:#999999;stroke-width:3;" x="254.198956" xlink:href="#me101390218" y="279.667777"/>
    </g>
   </g>
   <g id="line2d_33">
    <path clip-path="url(#pf8da318c5d)" d="M 56.12 294.88 
L 56.12 294.88 
L 56.12 294.88 
L 56.12 294.88 
L 399.984 294.88 
" style="fill:none;stroke:#999999;stroke-linecap:square;stroke-width:1.5;"/>
   </g>
   <g id="line2d_34"/>
   <g id="line2d_35">
    <path clip-path="url(#pf8da318c5d)" d="M 0 0 
" style="fill:none;stroke:#999999;stroke-linecap:square;stroke-width:1.5;"/>
   </g>
   <g id="line2d_36">
    <g>
     <use style="fill:#999999;stroke:#999999;" x="266.12385" xlink:href="#mc74f0e4d69" y="285.660471"/>
     <use style="fill:#999999;stroke:#999999;" x="266.12385" xlink:href="#mc74f0e4d69" y="285.660471"/>
    </g>
   </g>
   <g id="line2d_37">
    <path d="M -1 292.575118 
L 4.578827 292.575118 
L 4.578827 289.809259 
L 127.112914 289.809259 
L 127.112914 289.348283 
L 133.509924 289.348283 
L 133.509924 288.42633 
L 229.010645 288.42633 
L 229.010645 287.504377 
L 247.307716 287.504377 
L 247.307716 286.582424 
L 254.19835 286.582424 
L 254.19835 286.121448 
L 266.12385 286.121448 
L 266.12385 285.660471 
L 333.429677 285.660471 
" style="fill:none;stroke:#999999;stroke-linecap:square;stroke-width:1.5;"/>
   </g>
   <g id="line2d_38"/>
   <g id="line2d_39">
    <path d="M 0 0 
" style="fill:none;stroke:#999999;stroke-linecap:square;stroke-width:1.5;"/>
   </g>
   <g id="line2d_40">
    <path clip-path="url(#pf8da318c5d)" d="M 254.198341 286.582424 
" style="fill:none;stroke:#999999;stroke-linecap:square;stroke-width:1.5;"/>
    <g clip-path="url(#pf8da318c5d)">
     <use style="fill:#999999;stroke:#999999;stroke-width:3;" x="254.198341" xlink:href="#me101390218" y="286.582424"/>
    </g>
   </g>
   <g id="line2d_41">
    <g>
     <use style="fill:#999999;stroke:#999999;" x="293.951727" xlink:href="#mc74f0e4d69" y="285.660471"/>
     <use style="fill:#999999;stroke:#999999;" x="293.951727" xlink:href="#mc74f0e4d69" y="285.660471"/>
    </g>
   </g>
   <g id="line2d_42">
    <path d="M -1 292.114141 
L 4.578827 292.114141 
L 4.578827 291.192188 
L 30.456278 291.192188 
L 30.456278 290.270236 
L 176.650152 290.270236 
L 176.650152 289.809259 
L 193.364673 289.809259 
L 193.364673 288.887306 
L 210.822318 288.887306 
L 210.822318 288.42633 
L 238.073573 288.42633 
L 238.073573 287.965353 
L 274.910979 287.965353 
L 274.910979 287.0434 
L 293.951727 287.0434 
L 293.951727 285.660471 
L 333.429677 285.660471 
" style="fill:none;stroke:#999999;stroke-linecap:square;stroke-width:1.5;"/>
   </g>
   <g id="line2d_43"/>
   <g id="line2d_44">
    <path d="M 0 0 
" style="fill:none;stroke:#999999;stroke-linecap:square;stroke-width:1.5;"/>
   </g>
   <g id="line2d_45">
    <path clip-path="url(#pf8da318c5d)" d="M 293.814009 287.0434 
" style="fill:none;stroke:#999999;stroke-linecap:square;stroke-width:1.5;"/>
    <g clip-path="url(#pf8da318c5d)">
     <use style="fill:#999999;stroke:#999999;stroke-width:3;" x="293.814009" xlink:href="#me101390218" y="287.0434"/>
    </g>
   </g>
   <g id="line2d_46">
    <g>
     <use style="fill:#999999;stroke:#999999;" x="310.891266" xlink:href="#mc74f0e4d69" y="119.708952"/>
     <use style="fill:#999999;stroke:#999999;" x="310.891266" xlink:href="#mc74f0e4d69" y="119.708952"/>
    </g>
   </g>
   <g id="line2d_47">
    <path d="M 133.288296 294.88 
L 133.288296 293.958047 
L 133.954128 293.958047 
L 133.954128 293.036094 
L 134.162787 293.036094 
L 134.162787 292.114141 
L 134.532112 292.114141 
L 134.532112 291.653165 
L 135.809707 291.653165 
L 135.809707 291.192188 
L 136.215325 291.192188 
L 136.215325 290.731212 
L 136.611601 290.731212 
L 136.611601 290.270236 
L 139.581721 290.270236 
L 139.581721 289.809259 
L 139.911537 289.809259 
L 139.911537 289.348283 
L 140.088807 289.348283 
L 140.088807 288.887306 
L 140.469933 288.887306 
L 140.469933 288.42633 
L 141.265801 288.42633 
L 141.265801 285.660471 
L 142.791263 285.660471 
L 142.791263 283.816565 
L 143.177658 283.816565 
L 143.177658 283.355589 
L 143.972321 283.355589 
L 144.068474 281.050707 
L 144.243799 281.050707 
L 144.243799 279.667777 
L 144.704445 279.667777 
L 144.704445 279.206801 
L 144.912961 279.206801 
L 144.912961 278.745825 
L 145.174963 278.745825 
L 145.247711 277.823872 
L 145.471294 277.823872 
L 145.521381 276.901919 
L 145.767305 276.901919 
L 145.814197 275.518989 
L 145.972683 275.518989 
L 146.065232 272.753131 
L 146.125123 272.753131 
L 146.125123 272.292154 
L 146.992779 272.292154 
L 146.992779 271.370201 
L 147.129974 271.370201 
L 147.129974 269.987272 
L 147.722643 269.987272 
L 147.722643 269.065319 
L 148.003248 269.065319 
L 148.077309 267.221413 
L 148.712098 267.221413 
L 148.712098 266.760437 
L 149.172796 266.760437 
L 149.172796 266.299461 
L 149.371964 266.299461 
L 149.371964 265.377508 
L 149.72998 265.377508 
L 149.72998 263.994578 
L 149.987257 263.994578 
L 149.987257 263.072625 
L 150.424408 263.072625 
L 150.424408 262.611649 
L 151.158954 262.611649 
L 151.158954 261.689696 
L 151.609511 261.689696 
L 151.609511 260.767743 
L 152.498942 260.767743 
L 152.498942 259.84579 
L 152.801093 259.84579 
L 152.880468 258.923837 
L 153.916929 258.923837 
L 153.916929 257.540908 
L 154.920706 257.540908 
L 154.920706 256.618955 
L 155.724963 256.618955 
L 155.810302 254.77505 
L 155.849547 254.77505 
L 155.935571 252.470167 
L 156.531017 252.470167 
L 156.531017 251.548214 
L 157.612797 251.548214 
L 157.612797 250.626262 
L 158.531343 250.626262 
L 158.531343 250.165285 
L 159.622982 250.165285 
L 159.622982 249.243332 
L 159.960679 249.243332 
L 159.960679 248.782356 
L 160.529436 248.782356 
L 160.529436 248.321379 
L 160.650458 248.321379 
L 160.650458 247.860403 
L 161.881502 247.860403 
L 161.881502 246.93845 
L 162.772736 246.93845 
L 162.772736 246.477474 
L 165.068706 246.477474 
L 165.068706 245.094544 
L 166.681305 245.094544 
L 166.681305 244.633568 
L 166.827582 244.633568 
L 166.827582 243.711615 
L 167.214608 243.711615 
L 167.214608 243.250638 
L 167.561397 243.250638 
L 167.561397 242.789662 
L 175.016398 242.789662 
L 175.016398 242.328686 
L 177.446604 242.328686 
L 177.446604 241.406733 
L 177.941766 241.406733 
L 177.941766 240.945756 
L 179.315049 240.945756 
L 179.406341 239.10185 
L 180.097735 239.10185 
L 180.097735 238.640874 
L 182.198852 238.640874 
L 182.198852 237.257945 
L 183.976299 237.257945 
L 183.976299 236.335992 
L 188.567659 236.335992 
L 188.567659 235.414039 
L 189.297469 235.414039 
L 189.297469 234.03111 
L 191.086528 234.03111 
L 191.086528 232.64818 
L 195.111816 232.64818 
L 195.111816 232.187204 
L 195.417193 232.187204 
L 195.417193 230.804274 
L 196.308936 230.804274 
L 196.308936 229.882322 
L 201.036834 229.882322 
L 201.036834 228.499392 
L 202.0655 228.499392 
L 202.0655 228.038416 
L 206.337306 228.038416 
L 206.337306 227.116463 
L 208.564983 227.116463 
L 208.564983 226.655487 
L 209.766363 226.655487 
L 209.859778 225.272557 
L 214.37897 225.272557 
L 214.37897 224.350604 
L 214.647028 224.350604 
L 214.647028 222.506699 
L 214.817586 222.506699 
L 214.817586 221.584746 
L 224.944556 221.584746 
L 224.944556 220.662793 
L 226.053144 220.662793 
L 226.053144 220.201816 
L 230.632247 220.201816 
L 230.632247 219.74084 
L 234.771017 219.74084 
L 234.771017 219.279863 
L 235.468599 219.279863 
L 235.468599 218.818887 
L 238.353266 218.818887 
L 238.425142 217.435958 
L 239.524211 217.435958 
L 239.524211 216.053028 
L 240.839165 216.053028 
L 240.839165 213.748146 
L 241.623886 213.748146 
L 241.623886 212.365217 
L 241.996207 212.365217 
L 241.996207 210.060335 
L 242.609228 210.060335 
L 242.609228 209.599358 
L 243.276141 209.599358 
L 243.276141 208.677405 
L 244.238725 208.677405 
L 244.238725 208.216429 
L 245.833047 208.216429 
L 245.833047 207.294476 
L 248.183641 207.294476 
L 248.183641 206.372523 
L 249.194206 206.372523 
L 249.217997 205.45057 
L 250.178123 205.45057 
L 250.244819 203.606664 
L 251.528278 203.606664 
L 251.528278 203.145688 
L 251.713109 203.145688 
L 251.713109 202.223735 
L 252.025773 202.223735 
L 252.025773 201.762759 
L 252.336965 201.762759 
L 252.336965 200.840806 
L 253.199193 200.840806 
L 253.199193 199.918853 
L 253.810238 199.918853 
L 253.810238 198.9969 
L 254.074118 198.9969 
L 254.074118 198.535924 
L 254.26872 198.535924 
L 254.303741 196.692018 
L 254.395923 196.692018 
L 254.401658 195.770065 
L 254.603692 195.770065 
L 254.631917 193.465183 
L 254.963974 193.465183 
L 254.963974 193.004206 
L 255.3702 193.004206 
L 255.3702 192.54323 
L 255.859629 192.54323 
L 255.859629 191.621277 
L 257.084226 191.621277 
L 257.084226 190.238348 
L 257.260151 190.238348 
L 257.260151 189.777371 
L 258.094858 189.777371 
L 258.094858 189.316395 
L 259.984861 189.316395 
L 259.984861 188.855418 
L 260.709572 188.855418 
L 260.709572 187.933465 
L 261.515291 187.933465 
L 261.515291 187.472489 
L 261.854876 187.472489 
L 261.854876 186.550536 
L 262.444686 186.550536 
L 262.530711 185.628583 
L 262.782777 185.628583 
L 262.782777 185.167607 
L 263.378005 185.167607 
L 263.378005 184.70663 
L 263.586366 184.70663 
L 263.586366 184.245654 
L 264.230895 184.245654 
L 264.260396 182.401748 
L 264.879875 182.401748 
L 264.879875 181.479795 
L 265.071832 181.479795 
L 265.071832 180.557842 
L 265.248589 180.557842 
L 265.29176 178.25296 
L 265.930888 178.25296 
L 265.967845 175.948078 
L 266.061846 175.948078 
L 266.061846 175.487101 
L 266.320577 175.487101 
L 266.418708 174.565149 
L 266.966344 174.565149 
L 266.966344 174.104172 
L 267.503989 174.104172 
L 267.503989 173.643196 
L 267.722771 173.643196 
L 267.722771 172.721243 
L 268.062886 172.721243 
L 268.062886 172.260266 
L 268.182178 172.260266 
L 268.182178 171.79929 
L 268.329427 171.79929 
L 268.329427 171.338313 
L 269.247287 171.338313 
L 269.247287 170.416361 
L 269.447286 170.416361 
L 269.447286 169.955384 
L 269.685664 169.955384 
L 269.685664 169.494408 
L 270.736422 169.494408 
L 270.736422 169.033431 
L 271.318777 169.033431 
L 271.318777 168.572455 
L 271.450403 168.572455 
L 271.450403 167.189525 
L 271.587925 167.189525 
L 271.587925 166.728549 
L 271.880206 166.728549 
L 271.880206 166.267573 
L 272.255016 166.267573 
L 272.310633 164.884643 
L 272.405671 164.884643 
L 272.501459 163.96269 
L 272.773174 163.96269 
L 272.773174 163.501714 
L 272.971421 163.501714 
L 273.05851 162.579761 
L 273.165931 162.579761 
L 273.165931 162.118785 
L 273.283774 162.118785 
L 273.374666 161.196832 
L 273.671591 161.196832 
L 273.671591 160.735855 
L 274.032104 160.735855 
L 274.032104 160.274879 
L 274.182105 160.274879 
L 274.182105 158.891949 
L 275.252229 158.891949 
L 275.252229 158.430973 
L 275.800421 158.430973 
L 275.898921 157.50902 
L 276.45979 157.50902 
L 276.45979 157.048044 
L 276.928067 157.048044 
L 276.932815 156.126091 
L 277.128895 156.126091 
L 277.142841 154.743161 
L 277.445971 154.743161 
L 277.445971 154.282185 
L 277.617287 154.282185 
L 277.617287 153.821209 
L 277.80495 153.821209 
L 277.80495 153.360232 
L 277.953142 153.360232 
L 278.018378 151.977303 
L 278.313662 151.977303 
L 278.313662 151.516326 
L 279.681854 151.516326 
L 279.681854 151.05535 
L 279.922268 151.05535 
L 279.922268 150.594374 
L 280.509755 150.594374 
L 280.509755 150.133397 
L 280.842149 150.133397 
L 280.917946 149.211444 
L 281.167159 149.211444 
L 281.167159 148.289491 
L 281.407506 148.289491 
L 281.407506 147.828515 
L 281.560484 147.828515 
L 281.560484 146.906562 
L 281.811581 146.906562 
L 281.811581 146.445586 
L 282.505708 146.445586 
L 282.505708 145.984609 
L 283.206665 145.984609 
L 283.206665 145.062656 
L 284.157838 145.062656 
L 284.220373 144.140703 
L 284.426321 144.140703 
L 284.426321 143.679727 
L 284.62543 143.679727 
L 284.68175 142.296798 
L 284.961244 142.296798 
L 284.97348 139.530939 
L 285.49778 139.530939 
L 285.49778 139.069962 
L 286.936617 139.069962 
L 286.936617 138.608986 
L 287.048343 138.608986 
L 287.048343 138.14801 
L 287.331127 138.14801 
L 287.383395 137.226057 
L 287.622554 137.226057 
L 287.659773 135.843127 
L 288.694285 135.843127 
L 288.694285 135.382151 
L 289.126167 135.382151 
L 289.126167 134.921174 
L 289.52757 134.921174 
L 289.52757 134.460198 
L 289.959375 134.460198 
L 289.959375 133.999222 
L 290.363193 133.999222 
L 290.363193 133.538245 
L 291.139965 133.538245 
L 291.139965 133.077269 
L 291.819834 133.077269 
L 291.819834 132.616292 
L 291.958603 132.616292 
L 291.958603 132.155316 
L 293.298785 132.155316 
L 293.298785 131.694339 
L 293.457117 131.694339 
L 293.457117 131.233363 
L 295.234219 131.233363 
L 295.236838 130.31141 
L 295.425549 130.31141 
L 295.425549 129.850434 
L 296.869746 129.850434 
L 296.924925 128.467504 
L 298.202528 128.467504 
L 298.304043 127.545551 
L 299.575536 127.545551 
L 299.575536 127.084575 
L 301.481248 127.084575 
L 301.481248 126.623598 
L 301.876357 126.623598 
L 301.880936 125.701646 
L 302.924409 125.701646 
L 302.936115 124.779693 
L 304.840665 124.779693 
L 304.850504 123.85774 
L 306.560658 123.85774 
L 306.564145 122.935787 
L 307.989837 122.935787 
L 307.989837 122.474811 
L 308.127406 122.474811 
L 308.138717 121.091881 
L 308.871174 121.091881 
L 308.871174 120.630905 
L 310.238689 120.630905 
L 310.238689 120.169928 
L 310.891266 120.169928 
L 310.891266 119.708952 
L 333.429677 119.708952 
L 333.429677 119.708952 
" style="fill:none;stroke:#999999;stroke-linecap:square;stroke-width:1.5;"/>
   </g>
   <g id="line2d_48"/>
   <g id="line2d_49">
    <path d="M 0 0 
" style="fill:none;stroke:#999999;stroke-linecap:square;stroke-width:1.5;"/>
   </g>
   <g id="line2d_50">
    <path clip-path="url(#pf8da318c5d)" d="M 254.198341 198.535924 
" style="fill:none;stroke:#999999;stroke-linecap:square;stroke-width:1.5;"/>
    <g clip-path="url(#pf8da318c5d)">
     <use style="fill:#999999;stroke:#999999;stroke-width:3;" x="254.198341" xlink:href="#me101390218" y="198.535924"/>
    </g>
   </g>
   <g id="line2d_51">
    <g>
     <use style="fill:#999999;stroke:#999999;" x="306.718784" xlink:href="#mc74f0e4d69" y="239.562827"/>
     <use style="fill:#999999;stroke:#999999;" x="306.718784" xlink:href="#mc74f0e4d69" y="239.562827"/>
    </g>
   </g>
   <g id="line2d_52">
    <path d="M 148.996613 294.88 
L 148.996613 294.419024 
L 154.734901 294.419024 
L 154.734901 293.958047 
L 156.923379 293.958047 
L 156.923379 292.575118 
L 162.593554 292.575118 
L 162.593554 292.114141 
L 164.630391 292.114141 
L 164.630391 291.653165 
L 173.409035 291.653165 
L 173.409035 291.192188 
L 176.35749 291.192188 
L 176.35749 290.270236 
L 178.306573 290.270236 
L 178.306573 289.809259 
L 186.81448 289.809259 
L 186.81448 289.348283 
L 188.214423 289.348283 
L 188.214423 288.887306 
L 188.853255 288.887306 
L 188.853255 287.965353 
L 192.218601 287.965353 
L 192.218601 287.0434 
L 195.804712 287.0434 
L 195.804712 286.582424 
L 196.435989 286.582424 
L 196.435989 285.199495 
L 196.725975 285.199495 
L 196.725975 283.816565 
L 197.839038 283.816565 
L 197.839038 283.355589 
L 198.772899 283.355589 
L 198.772899 282.433636 
L 199.556889 282.433636 
L 199.556889 281.97266 
L 200.4266 281.97266 
L 200.4266 281.511683 
L 209.122274 281.511683 
L 209.122274 280.58973 
L 213.005386 280.58973 
L 213.005386 280.128754 
L 221.050791 280.128754 
L 221.099659 278.745825 
L 221.72825 278.745825 
L 221.72825 277.823872 
L 221.978638 277.823872 
L 221.978638 276.440942 
L 223.729055 276.440942 
L 223.729055 275.979966 
L 223.85111 275.979966 
L 223.85111 275.058013 
L 229.724349 275.058013 
L 229.724349 274.597037 
L 235.514376 274.597037 
L 235.514376 273.214107 
L 239.227621 273.214107 
L 239.227621 272.292154 
L 242.912127 272.292154 
L 242.912127 271.370201 
L 249.418652 271.370201 
L 249.486186 269.526296 
L 249.575252 269.526296 
L 249.593975 268.604343 
L 250.055583 268.604343 
L 250.055583 268.143366 
L 253.965243 268.143366 
L 253.965243 266.299461 
L 254.354785 266.299461 
L 254.458103 263.994578 
L 254.500542 263.994578 
L 254.579721 262.611649 
L 254.614935 262.611649 
L 254.614935 262.150673 
L 254.787362 262.150673 
L 254.787362 261.689696 
L 254.924517 261.689696 
L 254.924517 261.22872 
L 255.407458 261.22872 
L 255.407458 260.767743 
L 255.700582 260.767743 
L 255.700582 260.306767 
L 256.902043 260.306767 
L 256.902043 259.84579 
L 257.914694 259.84579 
L 257.914694 258.923837 
L 263.967121 258.923837 
L 263.975235 258.001885 
L 266.007693 258.001885 
L 266.007693 257.079932 
L 266.252193 257.079932 
L 266.315594 254.77505 
L 266.410266 254.77505 
L 266.420879 253.39212 
L 267.538356 253.39212 
L 267.538356 252.009191 
L 269.475556 252.009191 
L 269.475556 251.548214 
L 271.667867 251.548214 
L 271.697627 250.626262 
L 273.022472 250.626262 
L 273.022472 249.704309 
L 273.186845 249.704309 
L 273.255433 248.321379 
L 277.991374 248.321379 
L 277.991374 247.860403 
L 278.114662 247.860403 
L 278.114662 247.399426 
L 278.359692 247.399426 
L 278.359692 246.93845 
L 281.925775 246.93845 
L 282.007937 245.094544 
L 282.46834 245.094544 
L 282.46834 244.633568 
L 282.698777 244.633568 
L 282.698777 244.172591 
L 287.644361 244.172591 
L 287.644361 243.250638 
L 287.75979 243.250638 
L 287.75979 242.789662 
L 290.339536 242.789662 
L 290.339536 242.328686 
L 290.48573 242.328686 
L 290.48573 241.867709 
L 292.048089 241.867709 
L 292.048089 241.406733 
L 294.106371 241.406733 
L 294.106371 240.945756 
L 298.553286 240.945756 
L 298.553286 240.48478 
L 300.873292 240.48478 
L 300.873292 240.023803 
L 306.718784 240.023803 
L 306.718784 239.562827 
L 333.429677 239.562827 
L 333.429677 239.562827 
" style="fill:none;stroke:#999999;stroke-linecap:square;stroke-width:1.5;"/>
   </g>
   <g id="line2d_53"/>
   <g id="line2d_54">
    <path d="M 0 0 
" style="fill:none;stroke:#999999;stroke-linecap:square;stroke-width:1.5;"/>
   </g>
   <g id="line2d_55">
    <path clip-path="url(#pf8da318c5d)" d="M 254.198345 266.299461 
" style="fill:none;stroke:#999999;stroke-linecap:square;stroke-width:1.5;"/>
    <g clip-path="url(#pf8da318c5d)">
     <use style="fill:#999999;stroke:#999999;stroke-width:3;" x="254.198345" xlink:href="#me101390218" y="266.299461"/>
    </g>
   </g>
   <g id="line2d_56">
    <g>
     <use style="fill:#999999;stroke:#999999;" x="319.731799" xlink:href="#mc74f0e4d69" y="221.123769"/>
     <use style="fill:#999999;stroke:#999999;" x="319.731799" xlink:href="#mc74f0e4d69" y="221.123769"/>
    </g>
   </g>
   <g id="line2d_57">
    <path d="M 136.223505 294.88 
L 136.223505 294.419024 
L 137.57545 294.419024 
L 137.57545 293.497071 
L 138.541836 293.497071 
L 138.541836 292.575118 
L 139.14915 292.575118 
L 139.14915 291.653165 
L 139.951088 291.653165 
L 139.951088 291.192188 
L 140.167011 291.192188 
L 140.167011 290.731212 
L 140.933211 290.731212 
L 140.933211 290.270236 
L 141.906419 290.270236 
L 141.906419 289.809259 
L 144.445266 289.809259 
L 144.445266 288.887306 
L 145.018732 288.887306 
L 145.018732 288.42633 
L 146.448592 288.42633 
L 146.448592 287.504377 
L 146.650503 287.504377 
L 146.650503 286.582424 
L 147.123466 286.582424 
L 147.123466 286.121448 
L 148.759517 286.121448 
L 148.759517 285.660471 
L 149.349101 285.660471 
L 149.349101 285.199495 
L 149.933898 285.199495 
L 149.933898 284.738518 
L 150.630926 284.738518 
L 150.630926 283.816565 
L 151.213785 283.816565 
L 151.213785 283.355589 
L 151.82879 283.355589 
L 151.82879 282.433636 
L 151.940671 282.433636 
L 151.940671 281.511683 
L 154.117512 281.511683 
L 154.117512 281.050707 
L 154.75023 281.050707 
L 154.75023 280.128754 
L 155.636554 280.128754 
L 155.636554 279.667777 
L 155.760463 279.667777 
L 155.760463 279.206801 
L 157.73736 279.206801 
L 157.73736 277.823872 
L 158.269975 277.823872 
L 158.269975 277.362895 
L 160.22817 277.362895 
L 160.22817 276.440942 
L 162.041796 276.440942 
L 162.041796 275.518989 
L 163.72869 275.518989 
L 163.72869 275.058013 
L 165.493894 275.058013 
L 165.493894 274.597037 
L 167.239564 274.597037 
L 167.239564 272.753131 
L 168.76397 272.753131 
L 168.76397 272.292154 
L 169.496974 272.292154 
L 169.496974 270.909225 
L 173.017062 270.909225 
L 173.017062 270.448249 
L 173.518404 270.448249 
L 173.518404 269.526296 
L 174.530092 269.526296 
L 174.613274 268.143366 
L 187.848087 268.143366 
L 187.848087 266.760437 
L 190.643349 266.760437 
L 190.643349 265.377508 
L 192.503433 265.377508 
L 192.503433 264.916531 
L 200.864038 264.916531 
L 200.864038 263.994578 
L 201.928287 263.994578 
L 201.928287 263.533602 
L 202.652522 263.533602 
L 202.652522 263.072625 
L 205.266762 263.072625 
L 205.266762 262.611649 
L 206.435241 262.611649 
L 206.435241 261.689696 
L 210.40767 261.689696 
L 210.40767 260.767743 
L 210.816484 260.767743 
L 210.816484 260.306767 
L 211.011377 260.306767 
L 211.011377 259.84579 
L 214.019205 259.84579 
L 214.019205 258.923837 
L 215.523597 258.923837 
L 215.523597 257.540908 
L 217.546902 257.540908 
L 217.546902 257.079932 
L 225.292045 257.079932 
L 225.292045 256.618955 
L 228.247768 256.618955 
L 228.247768 255.236026 
L 229.185751 255.236026 
L 229.185751 254.77505 
L 239.865764 254.77505 
L 239.865764 253.853097 
L 250.940879 253.853097 
L 250.940879 252.009191 
L 254.282927 252.009191 
L 254.355779 249.243332 
L 254.62103 249.243332 
L 254.62103 248.321379 
L 255.062559 248.321379 
L 255.171438 247.399426 
L 255.497795 247.399426 
L 255.542434 246.477474 
L 255.925841 246.477474 
L 255.925841 245.555521 
L 256.129741 245.555521 
L 256.129741 244.633568 
L 257.637585 244.633568 
L 257.637585 244.172591 
L 261.395556 244.172591 
L 261.395556 243.711615 
L 264.572095 243.711615 
L 264.572095 242.789662 
L 266.150394 242.789662 
L 266.150394 242.328686 
L 266.33649 242.328686 
L 266.33649 241.867709 
L 267.00927 241.867709 
L 267.116635 240.48478 
L 267.929265 240.48478 
L 267.929265 240.023803 
L 269.507779 240.023803 
L 269.507779 239.562827 
L 270.096089 239.562827 
L 270.096089 239.10185 
L 272.081023 239.10185 
L 272.081023 237.257945 
L 273.152461 237.257945 
L 273.152461 236.796968 
L 273.543967 236.796968 
L 273.543967 236.335992 
L 273.695136 236.335992 
L 273.695136 235.414039 
L 274.607611 235.414039 
L 274.607611 234.953062 
L 277.290966 234.953062 
L 277.290966 234.492086 
L 278.080624 234.492086 
L 278.080624 234.03111 
L 278.263025 234.03111 
L 278.263025 233.570133 
L 278.497759 233.570133 
L 278.497759 233.109157 
L 281.284496 233.109157 
L 281.284496 232.64818 
L 282.059657 232.64818 
L 282.059657 232.187204 
L 282.248163 232.187204 
L 282.248163 231.265251 
L 285.168068 231.265251 
L 285.168068 230.804274 
L 285.325559 230.804274 
L 285.325559 229.882322 
L 287.248206 229.882322 
L 287.248206 229.421345 
L 287.799891 229.421345 
L 287.799891 228.960369 
L 287.93513 228.960369 
L 287.93513 228.499392 
L 290.085289 228.499392 
L 290.085289 228.038416 
L 290.200522 228.038416 
L 290.200522 227.577439 
L 291.668358 227.577439 
L 291.668358 226.655487 
L 292.048781 226.655487 
L 292.048781 226.19451 
L 293.99478 226.19451 
L 293.99478 225.733534 
L 296.701731 225.733534 
L 296.701731 225.272557 
L 299.38968 225.272557 
L 299.38968 224.811581 
L 299.664293 224.811581 
L 299.664293 224.350604 
L 300.129082 224.350604 
L 300.129082 223.889628 
L 307.243891 223.889628 
L 307.243891 223.428651 
L 309.459555 223.428651 
L 309.459555 222.967675 
L 312.194767 222.967675 
L 312.194767 222.506699 
L 312.775958 222.506699 
L 312.775958 222.045722 
L 314.781399 222.045722 
L 314.781399 221.584746 
L 319.731799 221.584746 
L 319.731799 221.123769 
L 333.429677 221.123769 
L 333.429677 221.123769 
" style="fill:none;stroke:#999999;stroke-linecap:square;stroke-width:1.5;"/>
   </g>
   <g id="line2d_58"/>
   <g id="line2d_59">
    <path d="M 0 0 
" style="fill:none;stroke:#999999;stroke-linecap:square;stroke-width:1.5;"/>
   </g>
   <g id="line2d_60">
    <path clip-path="url(#pf8da318c5d)" d="M 254.198345 252.009191 
" style="fill:none;stroke:#999999;stroke-linecap:square;stroke-width:1.5;"/>
    <g clip-path="url(#pf8da318c5d)">
     <use style="fill:#999999;stroke:#999999;stroke-width:3;" x="254.198345" xlink:href="#me101390218" y="252.009191"/>
    </g>
   </g>
   <g id="line2d_61">
    <path d="M 333.429677 294.88 
L 333.429677 27.513663 
" style="fill:none;stroke:#000000;stroke-linecap:square;stroke-width:1.5;"/>
   </g>
   <g id="patch_3">
    <path d="M 56.12 294.88 
L 56.12 24.84 
" style="fill:none;stroke:#000000;stroke-linecap:square;stroke-linejoin:miter;stroke-width:0.8;"/>
   </g>
   <g id="patch_4">
    <path d="M 399.984 294.88 
L 399.984 24.84 
" style="fill:none;stroke:#000000;stroke-linecap:square;stroke-linejoin:miter;stroke-width:0.8;"/>
   </g>
   <g id="patch_5">
    <path d="M 56.12 294.88 
L 399.984 294.88 
" style="fill:none;stroke:#000000;stroke-linecap:square;stroke-linejoin:miter;stroke-width:0.8;"/>
   </g>
   <g id="patch_6">
    <path d="M 56.12 24.84 
L 399.984 24.84 
" style="fill:none;stroke:#000000;stroke-linecap:square;stroke-linejoin:miter;stroke-width:0.8;"/>
   </g>
   <g id="text_14">
    <!-- best 2016 -->
    <defs>
     <path d="M 48.6875 27.296875 
Q 48.6875 37.203125 44.609375 42.84375 
Q 40.53125 48.484375 33.40625 48.484375 
Q 26.265625 48.484375 22.1875 42.84375 
Q 18.109375 37.203125 18.109375 27.296875 
Q 18.109375 17.390625 22.1875 11.75 
Q 26.265625 6.109375 33.40625 6.109375 
Q 40.53125 6.109375 44.609375 11.75 
Q 48.6875 17.390625 48.6875 27.296875 
z
M 18.109375 46.390625 
Q 20.953125 51.265625 25.265625 53.625 
Q 29.59375 56 35.59375 56 
Q 45.5625 56 51.78125 48.09375 
Q 58.015625 40.1875 58.015625 27.296875 
Q 58.015625 14.40625 51.78125 6.484375 
Q 45.5625 -1.421875 35.59375 -1.421875 
Q 29.59375 -1.421875 25.265625 0.953125 
Q 20.953125 3.328125 18.109375 8.203125 
L 18.109375 0 
L 9.078125 0 
L 9.078125 75.984375 
L 18.109375 75.984375 
z
" id="DejaVuSans-62"/>
    </defs>
    <g transform="translate(369.479935 294.223611)scale(0.17 -0.17)">
     <use xlink:href="#DejaVuSans-62"/>
     <use x="63.476562" xlink:href="#DejaVuSans-65"/>
     <use x="125" xlink:href="#DejaVuSans-73"/>
     <use x="177.099609" xlink:href="#DejaVuSans-74"/>
     <use x="216.308594" xlink:href="#DejaVuSans-20"/>
     <use x="248.095703" xlink:href="#DejaVuSans-32"/>
     <use x="311.71875" xlink:href="#DejaVuSans-30"/>
     <use x="375.341797" xlink:href="#DejaVuSans-31"/>
     <use x="438.964844" xlink:href="#DejaVuSans-36"/>
    </g>
   </g>
   <g id="text_15">
    <!-- bbob-biobj f52, 40-D -->
    <defs>
     <path d="M 9.421875 54.6875 
L 18.40625 54.6875 
L 18.40625 -0.984375 
Q 18.40625 -11.421875 14.421875 -16.109375 
Q 10.453125 -20.796875 1.609375 -20.796875 
L -1.8125 -20.796875 
L -1.8125 -13.1875 
L 0.59375 -13.1875 
Q 5.71875 -13.1875 7.5625 -10.8125 
Q 9.421875 -8.453125 9.421875 -0.984375 
z
M 9.421875 75.984375 
L 18.40625 75.984375 
L 18.40625 64.59375 
L 9.421875 64.59375 
z
" id="DejaVuSans-6a"/>
     <path d="M 10.796875 72.90625 
L 49.515625 72.90625 
L 49.515625 64.59375 
L 19.828125 64.59375 
L 19.828125 46.734375 
Q 21.96875 47.46875 24.109375 47.828125 
Q 26.265625 48.1875 28.421875 48.1875 
Q 40.625 48.1875 47.75 41.5 
Q 54.890625 34.8125 54.890625 23.390625 
Q 54.890625 11.625 47.5625 5.09375 
Q 40.234375 -1.421875 26.90625 -1.421875 
Q 22.3125 -1.421875 17.546875 -0.640625 
Q 12.796875 0.140625 7.71875 1.703125 
L 7.71875 11.625 
Q 12.109375 9.234375 16.796875 8.0625 
Q 21.484375 6.890625 26.703125 6.890625 
Q 35.15625 6.890625 40.078125 11.328125 
Q 45.015625 15.765625 45.015625 23.390625 
Q 45.015625 31 40.078125 35.4375 
Q 35.15625 39.890625 26.703125 39.890625 
Q 22.75 39.890625 18.8125 39.015625 
Q 14.890625 38.140625 10.796875 36.28125 
z
" id="DejaVuSans-35"/>
     <path d="M 19.671875 64.796875 
L 19.671875 8.109375 
L 31.59375 8.109375 
Q 46.6875 8.109375 53.6875 14.9375 
Q 60.6875 21.78125 60.6875 36.53125 
Q 60.6875 51.171875 53.6875 57.984375 
Q 46.6875 64.796875 31.59375 64.796875 
z
M 9.8125 72.90625 
L 30.078125 72.90625 
Q 51.265625 72.90625 61.171875 64.09375 
Q 71.09375 55.28125 71.09375 36.53125 
Q 71.09375 17.671875 61.125 8.828125 
Q 51.171875 0 30.078125 0 
L 9.8125 0 
z
" id="DejaVuSans-44"/>
    </defs>
    <g transform="translate(59.55864 35.290806)scale(0.102 -0.102)">
     <use xlink:href="#DejaVuSans-62"/>
     <use x="63.476562" xlink:href="#DejaVuSans-62"/>
     <use x="126.953125" xlink:href="#DejaVuSans-6f"/>
     <use x="188.134766" xlink:href="#DejaVuSans-62"/>
     <use x="251.611328" xlink:href="#DejaVuSans-2d"/>
     <use x="287.695312" xlink:href="#DejaVuSans-62"/>
     <use x="351.171875" xlink:href="#DejaVuSans-69"/>
     <use x="378.955078" xlink:href="#DejaVuSans-6f"/>
     <use x="440.136719" xlink:href="#DejaVuSans-62"/>
     <use x="503.613281" xlink:href="#DejaVuSans-6a"/>
     <use x="531.396484" xlink:href="#DejaVuSans-20"/>
     <use x="563.183594" xlink:href="#DejaVuSans-66"/>
     <use x="598.388672" xlink:href="#DejaVuSans-35"/>
     <use x="662.011719" xlink:href="#DejaVuSans-32"/>
     <use x="725.634766" xlink:href="#DejaVuSans-2c"/>
     <use x="757.421875" xlink:href="#DejaVuSans-20"/>
     <use x="789.208984" xlink:href="#DejaVuSans-34"/>
     <use x="852.832031" xlink:href="#DejaVuSans-30"/>
     <use x="916.455078" xlink:href="#DejaVuSans-2d"/>
     <use x="952.539062" xlink:href="#DejaVuSans-44"/>
    </g>
    <!-- 58 targets: 1..-1.0e-4 -->
    <defs>
     <path d="M 11.71875 12.40625 
L 22.015625 12.40625 
L 22.015625 0 
L 11.71875 0 
z
M 11.71875 51.703125 
L 22.015625 51.703125 
L 22.015625 39.3125 
L 11.71875 39.3125 
z
" id="DejaVuSans-3a"/>
    </defs>
    <g transform="translate(59.55864 46.712575)scale(0.102 -0.102)">
     <use xlink:href="#DejaVuSans-35"/>
     <use x="63.623047" xlink:href="#DejaVuSans-38"/>
     <use x="127.246094" xlink:href="#DejaVuSans-20"/>
     <use x="159.033203" xlink:href="#DejaVuSans-74"/>
     <use x="198.242188" xlink:href="#DejaVuSans-61"/>
     <use x="259.521484" xlink:href="#DejaVuSans-72"/>
     <use x="300.619141" xlink:href="#DejaVuSans-67"/>
     <use x="364.095703" xlink:href="#DejaVuSans-65"/>
     <use x="425.619141" xlink:href="#DejaVuSans-74"/>
     <use x="464.828125" xlink:href="#DejaVuSans-73"/>
     <use x="516.927734" xlink:href="#DejaVuSans-3a"/>
     <use x="550.619141" xlink:href="#DejaVuSans-20"/>
     <use x="582.40625" xlink:href="#DejaVuSans-31"/>
     <use x="646.029297" xlink:href="#DejaVuSans-2e"/>
     <use x="677.816406" xlink:href="#DejaVuSans-2e"/>
     <use x="709.603516" xlink:href="#DejaVuSans-2d"/>
     <use x="745.6875" xlink:href="#DejaVuSans-31"/>
     <use x="809.310547" xlink:href="#DejaVuSans-2e"/>
     <use x="841.097656" xlink:href="#DejaVuSans-30"/>
     <use x="904.720703" xlink:href="#DejaVuSans-65"/>
     <use x="966.244141" xlink:href="#DejaVuSans-2d"/>
     <use x="1002.328125" xlink:href="#DejaVuSans-34"/>
    </g>
    <!-- 10 instances -->
    <g transform="translate(59.55864 58.134344)scale(0.102 -0.102)">
     <use xlink:href="#DejaVuSans-31"/>
     <use x="63.623047" xlink:href="#DejaVuSans-30"/>
     <use x="127.246094" xlink:href="#DejaVuSans-20"/>
     <use x="159.033203" xlink:href="#DejaVuSans-69"/>
     <use x="186.816406" xlink:href="#DejaVuSans-6e"/>
     <use x="250.195312" xlink:href="#DejaVuSans-73"/>
     <use x="302.294922" xlink:href="#DejaVuSans-74"/>
     <use x="341.503906" xlink:href="#DejaVuSans-61"/>
     <use x="402.783203" xlink:href="#DejaVuSans-6e"/>
     <use x="466.162109" xlink:href="#DejaVuSans-63"/>
     <use x="521.142578" xlink:href="#DejaVuSans-65"/>
     <use x="582.666016" xlink:href="#DejaVuSans-73"/>
    </g>
   </g>
   <g id="text_16">
    <!-- v2.0.778, hv-hash=ff0e71e8cd978373 -->
    <defs>
     <path d="M 8.203125 72.90625 
L 55.078125 72.90625 
L 55.078125 68.703125 
L 28.609375 0 
L 18.3125 0 
L 43.21875 64.59375 
L 8.203125 64.59375 
z
" id="DejaVuSans-37"/>
     <path d="M 54.890625 33.015625 
L 54.890625 0 
L 45.90625 0 
L 45.90625 32.71875 
Q 45.90625 40.484375 42.875 44.328125 
Q 39.84375 48.1875 33.796875 48.1875 
Q 26.515625 48.1875 22.3125 43.546875 
Q 18.109375 38.921875 18.109375 30.90625 
L 18.109375 0 
L 9.078125 0 
L 9.078125 75.984375 
L 18.109375 75.984375 
L 18.109375 46.1875 
Q 21.34375 51.125 25.703125 53.5625 
Q 30.078125 56 35.796875 56 
Q 45.21875 56 50.046875 50.171875 
Q 54.890625 44.34375 54.890625 33.015625 
z
" id="DejaVuSans-68"/>
     <path d="M 10.59375 45.40625 
L 73.1875 45.40625 
L 73.1875 37.203125 
L 10.59375 37.203125 
z
M 10.59375 25.484375 
L 73.1875 25.484375 
L 73.1875 17.1875 
L 10.59375 17.1875 
z
" id="DejaVuSans-3d"/>
     <path d="M 10.984375 1.515625 
L 10.984375 10.5 
Q 14.703125 8.734375 18.5 7.8125 
Q 22.3125 6.890625 25.984375 6.890625 
Q 35.75 6.890625 40.890625 13.453125 
Q 46.046875 20.015625 46.78125 33.40625 
Q 43.953125 29.203125 39.59375 26.953125 
Q 35.25 24.703125 29.984375 24.703125 
Q 19.046875 24.703125 12.671875 31.3125 
Q 6.296875 37.9375 6.296875 49.421875 
Q 6.296875 60.640625 12.9375 67.421875 
Q 19.578125 74.21875 30.609375 74.21875 
Q 43.265625 74.21875 49.921875 64.515625 
Q 56.59375 54.828125 56.59375 36.375 
Q 56.59375 19.140625 48.40625 8.859375 
Q 40.234375 -1.421875 26.421875 -1.421875 
Q 22.703125 -1.421875 18.890625 -0.6875 
Q 15.09375 0.046875 10.984375 1.515625 
z
M 30.609375 32.421875 
Q 37.25 32.421875 41.125 36.953125 
Q 45.015625 41.5 45.015625 49.421875 
Q 45.015625 57.28125 41.125 61.84375 
Q 37.25 66.40625 30.609375 66.40625 
Q 23.96875 66.40625 20.09375 61.84375 
Q 16.21875 57.28125 16.21875 49.421875 
Q 16.21875 41.5 20.09375 36.953125 
Q 23.96875 32.421875 30.609375 32.421875 
z
" id="DejaVuSans-39"/>
     <path d="M 40.578125 39.3125 
Q 47.65625 37.796875 51.625 33 
Q 55.609375 28.21875 55.609375 21.1875 
Q 55.609375 10.40625 48.1875 4.484375 
Q 40.765625 -1.421875 27.09375 -1.421875 
Q 22.515625 -1.421875 17.65625 -0.515625 
Q 12.796875 0.390625 7.625 2.203125 
L 7.625 11.71875 
Q 11.71875 9.328125 16.59375 8.109375 
Q 21.484375 6.890625 26.8125 6.890625 
Q 36.078125 6.890625 40.9375 10.546875 
Q 45.796875 14.203125 45.796875 21.1875 
Q 45.796875 27.640625 41.28125 31.265625 
Q 36.765625 34.90625 28.71875 34.90625 
L 20.21875 34.90625 
L 20.21875 43.015625 
L 29.109375 43.015625 
Q 36.375 43.015625 40.234375 45.921875 
Q 44.09375 48.828125 44.09375 54.296875 
Q 44.09375 59.90625 40.109375 62.90625 
Q 36.140625 65.921875 28.71875 65.921875 
Q 24.65625 65.921875 20.015625 65.03125 
Q 15.375 64.15625 9.8125 62.3125 
L 9.8125 71.09375 
Q 15.4375 72.65625 20.34375 73.4375 
Q 25.25 74.21875 29.59375 74.21875 
Q 40.828125 74.21875 47.359375 69.109375 
Q 53.90625 64.015625 53.90625 55.328125 
Q 53.90625 49.265625 50.4375 45.09375 
Q 46.96875 40.921875 40.578125 39.3125 
z
" id="DejaVuSans-33"/>
    </defs>
    <g style="fill:#808080;" transform="translate(131.294188 290.099912)scale(0.1 -0.1)">
     <use xlink:href="#DejaVuSans-76"/>
     <use x="59.179688" xlink:href="#DejaVuSans-32"/>
     <use x="122.802734" xlink:href="#DejaVuSans-2e"/>
     <use x="154.589844" xlink:href="#DejaVuSans-30"/>
     <use x="218.212891" xlink:href="#DejaVuSans-2e"/>
     <use x="250" xlink:href="#DejaVuSans-37"/>
     <use x="313.623047" xlink:href="#DejaVuSans-37"/>
     <use x="377.246094" xlink:href="#DejaVuSans-38"/>
     <use x="440.869141" xlink:href="#DejaVuSans-2c"/>
     <use x="472.65625" xlink:href="#DejaVuSans-20"/>
     <use x="504.443359" xlink:href="#DejaVuSans-68"/>
     <use x="567.822266" xlink:href="#DejaVuSans-76"/>
     <use x="626.970703" xlink:href="#DejaVuSans-2d"/>
     <use x="663.054688" xlink:href="#DejaVuSans-68"/>
     <use x="726.433594" xlink:href="#DejaVuSans-61"/>
     <use x="787.712891" xlink:href="#DejaVuSans-73"/>
     <use x="839.8125" xlink:href="#DejaVuSans-68"/>
     <use x="903.191406" xlink:href="#DejaVuSans-3d"/>
     <use x="986.980469" xlink:href="#DejaVuSans-66"/>
     <use x="1022.185547" xlink:href="#DejaVuSans-66"/>
     <use x="1057.390625" xlink:href="#DejaVuSans-30"/>
     <use x="1121.013672" xlink:href="#DejaVuSans-65"/>
     <use x="1182.537109" xlink:href="#DejaVuSans-37"/>
     <use x="1246.160156" xlink:href="#DejaVuSans-31"/>
     <use x="1309.783203" xlink:href="#DejaVuSans-65"/>
     <use x="1371.306641" xlink:href="#DejaVuSans-38"/>
     <use x="1434.929688" xlink:href="#DejaVuSans-63"/>
     <use x="1489.910156" xlink:href="#DejaVuSans-64"/>
     <use x="1553.386719" xlink:href="#DejaVuSans-39"/>
     <use x="1617.009766" xlink:href="#DejaVuSans-37"/>
     <use x="1680.632812" xlink:href="#DejaVuSans-38"/>
     <use x="1744.255859" xlink:href="#DejaVuSans-33"/>
     <use x="1807.878906" xlink:href="#DejaVuSans-37"/>
     <use x="1871.501953" xlink:href="#DejaVuSans-33"/>
    </g>
   </g>
   <g id="text_17">
    <!-- 52 Schaffer F7/Gallagher 101 -->
    <defs>
     <path d="M 53.515625 70.515625 
L 53.515625 60.890625 
Q 47.90625 63.578125 42.921875 64.890625 
Q 37.9375 66.21875 33.296875 66.21875 
Q 25.25 66.21875 20.875 63.09375 
Q 16.5 59.96875 16.5 54.203125 
Q 16.5 49.359375 19.40625 46.890625 
Q 22.3125 44.4375 30.421875 42.921875 
L 36.375 41.703125 
Q 47.40625 39.59375 52.65625 34.296875 
Q 57.90625 29 57.90625 20.125 
Q 57.90625 9.515625 50.796875 4.046875 
Q 43.703125 -1.421875 29.984375 -1.421875 
Q 24.8125 -1.421875 18.96875 -0.25 
Q 13.140625 0.921875 6.890625 3.21875 
L 6.890625 13.375 
Q 12.890625 10.015625 18.65625 8.296875 
Q 24.421875 6.59375 29.984375 6.59375 
Q 38.421875 6.59375 43.015625 9.90625 
Q 47.609375 13.234375 47.609375 19.390625 
Q 47.609375 24.75 44.3125 27.78125 
Q 41.015625 30.8125 33.5 32.328125 
L 27.484375 33.5 
Q 16.453125 35.6875 11.515625 40.375 
Q 6.59375 45.0625 6.59375 53.421875 
Q 6.59375 63.09375 13.40625 68.65625 
Q 20.21875 74.21875 32.171875 74.21875 
Q 37.3125 74.21875 42.625 73.28125 
Q 47.953125 72.359375 53.515625 70.515625 
z
" id="DejaVuSans-53"/>
     <path d="M 59.515625 10.40625 
L 59.515625 29.984375 
L 43.40625 29.984375 
L 43.40625 38.09375 
L 69.28125 38.09375 
L 69.28125 6.78125 
Q 63.578125 2.734375 56.6875 0.65625 
Q 49.8125 -1.421875 42 -1.421875 
Q 24.90625 -1.421875 15.25 8.5625 
Q 5.609375 18.5625 5.609375 36.375 
Q 5.609375 54.25 15.25 64.234375 
Q 24.90625 74.21875 42 74.21875 
Q 49.125 74.21875 55.546875 72.453125 
Q 61.96875 70.703125 67.390625 67.28125 
L 67.390625 56.78125 
Q 61.921875 61.421875 55.765625 63.765625 
Q 49.609375 66.109375 42.828125 66.109375 
Q 29.4375 66.109375 22.71875 58.640625 
Q 16.015625 51.171875 16.015625 36.375 
Q 16.015625 21.625 22.71875 14.15625 
Q 29.4375 6.6875 42.828125 6.6875 
Q 48.046875 6.6875 52.140625 7.59375 
Q 56.25 8.5 59.515625 10.40625 
z
" id="DejaVuSans-47"/>
    </defs>
    <g transform="translate(81.094188 18.84)scale(0.2 -0.2)">
     <use xlink:href="#DejaVuSans-35"/>
     <use x="63.623047" xlink:href="#DejaVuSans-32"/>
     <use x="127.246094" xlink:href="#DejaVuSans-20"/>
     <use x="159.033203" xlink:href="#DejaVuSans-53"/>
     <use x="222.509766" xlink:href="#DejaVuSans-63"/>
     <use x="277.490234" xlink:href="#DejaVuSans-68"/>
     <use x="340.869141" xlink:href="#DejaVuSans-61"/>
     <use x="402.148438" xlink:href="#DejaVuSans-66"/>
     <use x="437.353516" xlink:href="#DejaVuSans-66"/>
     <use x="472.558594" xlink:href="#DejaVuSans-65"/>
     <use x="534.082031" xlink:href="#DejaVuSans-72"/>
     <use x="575.195312" xlink:href="#DejaVuSans-20"/>
     <use x="606.982422" xlink:href="#DejaVuSans-46"/>
     <use x="664.501953" xlink:href="#DejaVuSans-37"/>
     <use x="728.125" xlink:href="#DejaVuSans-2f"/>
     <use x="761.816406" xlink:href="#DejaVuSans-47"/>
     <use x="839.306641" xlink:href="#DejaVuSans-61"/>
     <use x="900.585938" xlink:href="#DejaVuSans-6c"/>
     <use x="928.369141" xlink:href="#DejaVuSans-6c"/>
     <use x="956.152344" xlink:href="#DejaVuSans-61"/>
     <use x="1017.431641" xlink:href="#DejaVuSans-67"/>
     <use x="1080.908203" xlink:href="#DejaVuSans-68"/>
     <use x="1144.287109" xlink:href="#DejaVuSans-65"/>
     <use x="1205.810547" xlink:href="#DejaVuSans-72"/>
     <use x="1246.923828" xlink:href="#DejaVuSans-20"/>
     <use x="1278.710938" xlink:href="#DejaVuSans-31"/>
     <use x="1342.333984" xlink:href="#DejaVuSans-30"/>
     <use x="1405.957031" xlink:href="#DejaVuSans-31"/>
    </g>
   </g>
  </g>
 </g>
 <defs>
  <clipPath id="pf8da318c5d">
   <rect height="270.04" width="343.864" x="56.12" y="24.84"/>
  </clipPath>
 </defs>
</svg>
