<?xml version="1.0" encoding="utf-8" standalone="no"?>
<!DOCTYPE svg PUBLIC "-//W3C//DTD SVG 1.1//EN"
  "http://www.w3.org/Graphics/SVG/1.1/DTD/svg11.dtd">
<!-- Created with matplotlib (http://matplotlib.org/) -->
<svg height="345pt" version="1.1" viewBox="0 0 460 345" width="460pt" xmlns="http://www.w3.org/2000/svg" xmlns:xlink="http://www.w3.org/1999/xlink">
 <defs>
  <style type="text/css">
*{stroke-linecap:butt;stroke-linejoin:round;}
  </style>
 </defs>
 <g id="figure_1">
  <g id="patch_1">
   <path d="M 0 345.6 
L 460.8 345.6 
L 460.8 0 
L 0 0 
z
" style="fill:#ffffff;"/>
  </g>
  <g id="axes_1">
   <g id="patch_2">
    <path d="M 56.12 294.88 
L 399.984 294.88 
L 399.984 24.84 
L 56.12 24.84 
z
" style="fill:#ffffff;"/>
   </g>
   <g id="line2d_1">
    <path d="M 62.806809 294.88 
L 62.806809 290.270236 
L 115.005937 290.270236 
L 115.005937 281.050707 
L 138.584661 281.050707 
L 138.584661 271.831178 
L 151.448261 271.831178 
L 151.448261 267.221413 
L 153.526565 267.221413 
L 153.526565 253.39212 
L 155.916058 253.39212 
L 155.916058 244.172591 
L 157.906305 244.172591 
L 157.906305 239.562827 
L 159.610385 239.562827 
L 159.610385 230.343298 
L 161.21253 230.343298 
L 161.21253 216.514005 
L 162.798058 216.514005 
L 162.798058 207.294476 
L 165.333513 207.294476 
L 165.333513 198.074947 
L 171.007534 198.074947 
L 171.007534 188.855418 
L 176.419269 188.855418 
L 176.419269 184.245654 
L 180.573737 184.245654 
L 180.573737 170.416361 
L 188.409481 170.416361 
L 188.409481 165.806596 
L 195.329309 165.806596 
L 195.329309 151.977303 
L 206.572133 151.977303 
L 206.572133 142.757774 
L 212.853772 142.757774 
L 212.853772 138.14801 
L 221.676211 138.14801 
L 221.676211 124.318716 
L 237.824944 124.318716 
L 237.824944 119.708952 
L 252.700132 119.708952 
L 252.700132 105.879659 
L 263.957189 105.879659 
L 263.957189 96.66013 
L 271.11364 96.66013 
L 271.11364 87.440601 
L 273.092509 87.440601 
L 273.092509 82.830836 
L 293.491557 82.830836 
L 293.491557 73.611308 
L 333.429677 73.611308 
" style="fill:none;stroke:#f5deb3;stroke-linecap:square;stroke-width:6;"/>
   </g>
   <g id="line2d_2">
    <path d="M 0 0 
" style="fill:none;stroke:#f5deb3;stroke-linecap:square;stroke-width:6;"/>
    <defs>
     <path d="M -0 7.778175 
L 7.778175 0 
L 0 -7.778175 
L -7.778175 -0 
z
" id="m8016508f6e" style="stroke:#f5deb3;stroke-linejoin:miter;stroke-width:1.5;"/>
    </defs>
    <g>
     <use style="fill:#f5deb3;stroke:#f5deb3;stroke-linejoin:miter;stroke-width:1.5;" x="0" xlink:href="#m8016508f6e" y="0"/>
    </g>
   </g>
   <g id="line2d_3">
    <path d="M 333.429677 73.611308 
L 363.933742 289.532673 
" style="fill:none;stroke:#f5deb3;stroke-linecap:square;stroke-width:6;"/>
    <g>
     <use style="fill:#f5deb3;stroke:#f5deb3;stroke-linejoin:miter;stroke-width:1.5;" x="333.429677" xlink:href="#m8016508f6e" y="73.611308"/>
     <use style="fill:#f5deb3;stroke:#f5deb3;stroke-linejoin:miter;stroke-width:1.5;" x="363.933742" xlink:href="#m8016508f6e" y="289.532673"/>
    </g>
   </g>
   <g id="matplotlib.axis_1">
    <g id="xtick_1">
     <g id="line2d_4">
      <path clip-path="url(#p07ae1de4f4)" d="M 56.12 294.88 
L 56.12 24.84 
" style="fill:none;stroke:#b0b0b0;stroke-linecap:square;stroke-width:0.8;"/>
     </g>
     <g id="line2d_5">
      <defs>
       <path d="M 0 0 
L 0 3.5 
" id="mb6ae503090" style="stroke:#000000;stroke-width:0.8;"/>
      </defs>
      <g>
       <use style="stroke:#000000;stroke-width:0.8;" x="56.12" xlink:href="#mb6ae503090" y="294.88"/>
      </g>
     </g>
     <g id="text_1">
      <!-- 0 -->
      <defs>
       <path d="M 31.78125 66.40625 
Q 24.171875 66.40625 20.328125 58.90625 
Q 16.5 51.421875 16.5 36.375 
Q 16.5 21.390625 20.328125 13.890625 
Q 24.171875 6.390625 31.78125 6.390625 
Q 39.453125 6.390625 43.28125 13.890625 
Q 47.125 21.390625 47.125 36.375 
Q 47.125 51.421875 43.28125 58.90625 
Q 39.453125 66.40625 31.78125 66.40625 
z
M 31.78125 74.21875 
Q 44.046875 74.21875 50.515625 64.515625 
Q 56.984375 54.828125 56.984375 36.375 
Q 56.984375 17.96875 50.515625 8.265625 
Q 44.046875 -1.421875 31.78125 -1.421875 
Q 19.53125 -1.421875 13.0625 8.265625 
Q 6.59375 17.96875 6.59375 36.375 
Q 6.59375 54.828125 13.0625 64.515625 
Q 19.53125 74.21875 31.78125 74.21875 
z
" id="DejaVuSans-30"/>
      </defs>
      <g transform="translate(49.7575 317.076875)scale(0.2 -0.2)">
       <use xlink:href="#DejaVuSans-30"/>
      </g>
     </g>
    </g>
    <g id="xtick_2">
     <g id="line2d_6">
      <path clip-path="url(#p07ae1de4f4)" d="M 135.351336 294.88 
L 135.351336 24.84 
" style="fill:none;stroke:#b0b0b0;stroke-linecap:square;stroke-width:0.8;"/>
     </g>
     <g id="line2d_7">
      <g>
       <use style="stroke:#000000;stroke-width:0.8;" x="135.351336" xlink:href="#mb6ae503090" y="294.88"/>
      </g>
     </g>
     <g id="text_2">
      <!-- 2 -->
      <defs>
       <path d="M 19.1875 8.296875 
L 53.609375 8.296875 
L 53.609375 0 
L 7.328125 0 
L 7.328125 8.296875 
Q 12.9375 14.109375 22.625 23.890625 
Q 32.328125 33.6875 34.8125 36.53125 
Q 39.546875 41.84375 41.421875 45.53125 
Q 43.3125 49.21875 43.3125 52.78125 
Q 43.3125 58.59375 39.234375 62.25 
Q 35.15625 65.921875 28.609375 65.921875 
Q 23.96875 65.921875 18.8125 64.3125 
Q 13.671875 62.703125 7.8125 59.421875 
L 7.8125 69.390625 
Q 13.765625 71.78125 18.9375 73 
Q 24.125 74.21875 28.421875 74.21875 
Q 39.75 74.21875 46.484375 68.546875 
Q 53.21875 62.890625 53.21875 53.421875 
Q 53.21875 48.921875 51.53125 44.890625 
Q 49.859375 40.875 45.40625 35.40625 
Q 44.1875 33.984375 37.640625 27.21875 
Q 31.109375 20.453125 19.1875 8.296875 
z
" id="DejaVuSans-32"/>
      </defs>
      <g transform="translate(128.988836 317.076875)scale(0.2 -0.2)">
       <use xlink:href="#DejaVuSans-32"/>
      </g>
     </g>
    </g>
    <g id="xtick_3">
     <g id="line2d_8">
      <path clip-path="url(#p07ae1de4f4)" d="M 214.582673 294.88 
L 214.582673 24.84 
" style="fill:none;stroke:#b0b0b0;stroke-linecap:square;stroke-width:0.8;"/>
     </g>
     <g id="line2d_9">
      <g>
       <use style="stroke:#000000;stroke-width:0.8;" x="214.582673" xlink:href="#mb6ae503090" y="294.88"/>
      </g>
     </g>
     <g id="text_3">
      <!-- 4 -->
      <defs>
       <path d="M 37.796875 64.3125 
L 12.890625 25.390625 
L 37.796875 25.390625 
z
M 35.203125 72.90625 
L 47.609375 72.90625 
L 47.609375 25.390625 
L 58.015625 25.390625 
L 58.015625 17.1875 
L 47.609375 17.1875 
L 47.609375 0 
L 37.796875 0 
L 37.796875 17.1875 
L 4.890625 17.1875 
L 4.890625 26.703125 
z
" id="DejaVuSans-34"/>
      </defs>
      <g transform="translate(208.220173 317.076875)scale(0.2 -0.2)">
       <use xlink:href="#DejaVuSans-34"/>
      </g>
     </g>
    </g>
    <g id="xtick_4">
     <g id="line2d_10">
      <path clip-path="url(#p07ae1de4f4)" d="M 293.814009 294.88 
L 293.814009 24.84 
" style="fill:none;stroke:#b0b0b0;stroke-linecap:square;stroke-width:0.8;"/>
     </g>
     <g id="line2d_11">
      <g>
       <use style="stroke:#000000;stroke-width:0.8;" x="293.814009" xlink:href="#mb6ae503090" y="294.88"/>
      </g>
     </g>
     <g id="text_4">
      <!-- 6 -->
      <defs>
       <path d="M 33.015625 40.375 
Q 26.375 40.375 22.484375 35.828125 
Q 18.609375 31.296875 18.609375 23.390625 
Q 18.609375 15.53125 22.484375 10.953125 
Q 26.375 6.390625 33.015625 6.390625 
Q 39.65625 6.390625 43.53125 10.953125 
Q 47.40625 15.53125 47.40625 23.390625 
Q 47.40625 31.296875 43.53125 35.828125 
Q 39.65625 40.375 33.015625 40.375 
z
M 52.59375 71.296875 
L 52.59375 62.3125 
Q 48.875 64.0625 45.09375 64.984375 
Q 41.3125 65.921875 37.59375 65.921875 
Q 27.828125 65.921875 22.671875 59.328125 
Q 17.53125 52.734375 16.796875 39.40625 
Q 19.671875 43.65625 24.015625 45.921875 
Q 28.375 48.1875 33.59375 48.1875 
Q 44.578125 48.1875 50.953125 41.515625 
Q 57.328125 34.859375 57.328125 23.390625 
Q 57.328125 12.15625 50.6875 5.359375 
Q 44.046875 -1.421875 33.015625 -1.421875 
Q 20.359375 -1.421875 13.671875 8.265625 
Q 6.984375 17.96875 6.984375 36.375 
Q 6.984375 53.65625 15.1875 63.9375 
Q 23.390625 74.21875 37.203125 74.21875 
Q 40.921875 74.21875 44.703125 73.484375 
Q 48.484375 72.75 52.59375 71.296875 
z
" id="DejaVuSans-36"/>
      </defs>
      <g transform="translate(287.451509 317.076875)scale(0.2 -0.2)">
       <use xlink:href="#DejaVuSans-36"/>
      </g>
     </g>
    </g>
    <g id="xtick_5">
     <g id="line2d_12">
      <path clip-path="url(#p07ae1de4f4)" d="M 373.045346 294.88 
L 373.045346 24.84 
" style="fill:none;stroke:#b0b0b0;stroke-linecap:square;stroke-width:0.8;"/>
     </g>
     <g id="line2d_13">
      <g>
       <use style="stroke:#000000;stroke-width:0.8;" x="373.045346" xlink:href="#mb6ae503090" y="294.88"/>
      </g>
     </g>
     <g id="text_5">
      <!-- 8 -->
      <defs>
       <path d="M 31.78125 34.625 
Q 24.75 34.625 20.71875 30.859375 
Q 16.703125 27.09375 16.703125 20.515625 
Q 16.703125 13.921875 20.71875 10.15625 
Q 24.75 6.390625 31.78125 6.390625 
Q 38.8125 6.390625 42.859375 10.171875 
Q 46.921875 13.96875 46.921875 20.515625 
Q 46.921875 27.09375 42.890625 30.859375 
Q 38.875 34.625 31.78125 34.625 
z
M 21.921875 38.8125 
Q 15.578125 40.375 12.03125 44.71875 
Q 8.5 49.078125 8.5 55.328125 
Q 8.5 64.0625 14.71875 69.140625 
Q 20.953125 74.21875 31.78125 74.21875 
Q 42.671875 74.21875 48.875 69.140625 
Q 55.078125 64.0625 55.078125 55.328125 
Q 55.078125 49.078125 51.53125 44.71875 
Q 48 40.375 41.703125 38.8125 
Q 48.828125 37.15625 52.796875 32.3125 
Q 56.78125 27.484375 56.78125 20.515625 
Q 56.78125 9.90625 50.3125 4.234375 
Q 43.84375 -1.421875 31.78125 -1.421875 
Q 19.734375 -1.421875 13.25 4.234375 
Q 6.78125 9.90625 6.78125 20.515625 
Q 6.78125 27.484375 10.78125 32.3125 
Q 14.796875 37.15625 21.921875 38.8125 
z
M 18.3125 54.390625 
Q 18.3125 48.734375 21.84375 45.5625 
Q 25.390625 42.390625 31.78125 42.390625 
Q 38.140625 42.390625 41.71875 45.5625 
Q 45.3125 48.734375 45.3125 54.390625 
Q 45.3125 60.0625 41.71875 63.234375 
Q 38.140625 66.40625 31.78125 66.40625 
Q 25.390625 66.40625 21.84375 63.234375 
Q 18.3125 60.0625 18.3125 54.390625 
z
" id="DejaVuSans-38"/>
      </defs>
      <g transform="translate(366.682846 317.076875)scale(0.2 -0.2)">
       <use xlink:href="#DejaVuSans-38"/>
      </g>
     </g>
    </g>
    <g id="text_6">
     <!-- log10(# f-evals / dimension) -->
     <defs>
      <path d="M 9.421875 75.984375 
L 18.40625 75.984375 
L 18.40625 0 
L 9.421875 0 
z
" id="DejaVuSans-6c"/>
      <path d="M 30.609375 48.390625 
Q 23.390625 48.390625 19.1875 42.75 
Q 14.984375 37.109375 14.984375 27.296875 
Q 14.984375 17.484375 19.15625 11.84375 
Q 23.34375 6.203125 30.609375 6.203125 
Q 37.796875 6.203125 41.984375 11.859375 
Q 46.1875 17.53125 46.1875 27.296875 
Q 46.1875 37.015625 41.984375 42.703125 
Q 37.796875 48.390625 30.609375 48.390625 
z
M 30.609375 56 
Q 42.328125 56 49.015625 48.375 
Q 55.71875 40.765625 55.71875 27.296875 
Q 55.71875 13.875 49.015625 6.21875 
Q 42.328125 -1.421875 30.609375 -1.421875 
Q 18.84375 -1.421875 12.171875 6.21875 
Q 5.515625 13.875 5.515625 27.296875 
Q 5.515625 40.765625 12.171875 48.375 
Q 18.84375 56 30.609375 56 
z
" id="DejaVuSans-6f"/>
      <path d="M 45.40625 27.984375 
Q 45.40625 37.75 41.375 43.109375 
Q 37.359375 48.484375 30.078125 48.484375 
Q 22.859375 48.484375 18.828125 43.109375 
Q 14.796875 37.75 14.796875 27.984375 
Q 14.796875 18.265625 18.828125 12.890625 
Q 22.859375 7.515625 30.078125 7.515625 
Q 37.359375 7.515625 41.375 12.890625 
Q 45.40625 18.265625 45.40625 27.984375 
z
M 54.390625 6.78125 
Q 54.390625 -7.171875 48.1875 -13.984375 
Q 42 -20.796875 29.203125 -20.796875 
Q 24.46875 -20.796875 20.265625 -20.09375 
Q 16.0625 -19.390625 12.109375 -17.921875 
L 12.109375 -9.1875 
Q 16.0625 -11.328125 19.921875 -12.34375 
Q 23.78125 -13.375 27.78125 -13.375 
Q 36.625 -13.375 41.015625 -8.765625 
Q 45.40625 -4.15625 45.40625 5.171875 
L 45.40625 9.625 
Q 42.625 4.78125 38.28125 2.390625 
Q 33.9375 0 27.875 0 
Q 17.828125 0 11.671875 7.65625 
Q 5.515625 15.328125 5.515625 27.984375 
Q 5.515625 40.671875 11.671875 48.328125 
Q 17.828125 56 27.875 56 
Q 33.9375 56 38.28125 53.609375 
Q 42.625 51.21875 45.40625 46.390625 
L 45.40625 54.6875 
L 54.390625 54.6875 
z
" id="DejaVuSans-67"/>
      <path d="M 12.40625 8.296875 
L 28.515625 8.296875 
L 28.515625 63.921875 
L 10.984375 60.40625 
L 10.984375 69.390625 
L 28.421875 72.90625 
L 38.28125 72.90625 
L 38.28125 8.296875 
L 54.390625 8.296875 
L 54.390625 0 
L 12.40625 0 
z
" id="DejaVuSans-31"/>
      <path d="M 31 75.875 
Q 24.46875 64.65625 21.28125 53.65625 
Q 18.109375 42.671875 18.109375 31.390625 
Q 18.109375 20.125 21.3125 9.0625 
Q 24.515625 -2 31 -13.1875 
L 23.1875 -13.1875 
Q 15.875 -1.703125 12.234375 9.375 
Q 8.59375 20.453125 8.59375 31.390625 
Q 8.59375 42.28125 12.203125 53.3125 
Q 15.828125 64.359375 23.1875 75.875 
z
" id="DejaVuSans-28"/>
      <path d="M 51.125 44 
L 36.921875 44 
L 32.8125 27.6875 
L 47.125 27.6875 
z
M 43.796875 71.78125 
L 38.71875 51.515625 
L 52.984375 51.515625 
L 58.109375 71.78125 
L 65.921875 71.78125 
L 60.890625 51.515625 
L 76.125 51.515625 
L 76.125 44 
L 58.984375 44 
L 54.984375 27.6875 
L 70.515625 27.6875 
L 70.515625 20.21875 
L 53.078125 20.21875 
L 48 0 
L 40.1875 0 
L 45.21875 20.21875 
L 30.90625 20.21875 
L 25.875 0 
L 18.015625 0 
L 23.09375 20.21875 
L 7.71875 20.21875 
L 7.71875 27.6875 
L 24.90625 27.6875 
L 29 44 
L 13.28125 44 
L 13.28125 51.515625 
L 30.90625 51.515625 
L 35.890625 71.78125 
z
" id="DejaVuSans-23"/>
      <path id="DejaVuSans-20"/>
      <path d="M 37.109375 75.984375 
L 37.109375 68.5 
L 28.515625 68.5 
Q 23.6875 68.5 21.796875 66.546875 
Q 19.921875 64.59375 19.921875 59.515625 
L 19.921875 54.6875 
L 34.71875 54.6875 
L 34.71875 47.703125 
L 19.921875 47.703125 
L 19.921875 0 
L 10.890625 0 
L 10.890625 47.703125 
L 2.296875 47.703125 
L 2.296875 54.6875 
L 10.890625 54.6875 
L 10.890625 58.5 
Q 10.890625 67.625 15.140625 71.796875 
Q 19.390625 75.984375 28.609375 75.984375 
z
" id="DejaVuSans-66"/>
      <path d="M 4.890625 31.390625 
L 31.203125 31.390625 
L 31.203125 23.390625 
L 4.890625 23.390625 
z
" id="DejaVuSans-2d"/>
      <path d="M 56.203125 29.59375 
L 56.203125 25.203125 
L 14.890625 25.203125 
Q 15.484375 15.921875 20.484375 11.0625 
Q 25.484375 6.203125 34.421875 6.203125 
Q 39.59375 6.203125 44.453125 7.46875 
Q 49.3125 8.734375 54.109375 11.28125 
L 54.109375 2.78125 
Q 49.265625 0.734375 44.1875 -0.34375 
Q 39.109375 -1.421875 33.890625 -1.421875 
Q 20.796875 -1.421875 13.15625 6.1875 
Q 5.515625 13.8125 5.515625 26.8125 
Q 5.515625 40.234375 12.765625 48.109375 
Q 20.015625 56 32.328125 56 
Q 43.359375 56 49.78125 48.890625 
Q 56.203125 41.796875 56.203125 29.59375 
z
M 47.21875 32.234375 
Q 47.125 39.59375 43.09375 43.984375 
Q 39.0625 48.390625 32.421875 48.390625 
Q 24.90625 48.390625 20.390625 44.140625 
Q 15.875 39.890625 15.1875 32.171875 
z
" id="DejaVuSans-65"/>
      <path d="M 2.984375 54.6875 
L 12.5 54.6875 
L 29.59375 8.796875 
L 46.6875 54.6875 
L 56.203125 54.6875 
L 35.6875 0 
L 23.484375 0 
z
" id="DejaVuSans-76"/>
      <path d="M 34.28125 27.484375 
Q 23.390625 27.484375 19.1875 25 
Q 14.984375 22.515625 14.984375 16.5 
Q 14.984375 11.71875 18.140625 8.90625 
Q 21.296875 6.109375 26.703125 6.109375 
Q 34.1875 6.109375 38.703125 11.40625 
Q 43.21875 16.703125 43.21875 25.484375 
L 43.21875 27.484375 
z
M 52.203125 31.203125 
L 52.203125 0 
L 43.21875 0 
L 43.21875 8.296875 
Q 40.140625 3.328125 35.546875 0.953125 
Q 30.953125 -1.421875 24.3125 -1.421875 
Q 15.921875 -1.421875 10.953125 3.296875 
Q 6 8.015625 6 15.921875 
Q 6 25.140625 12.171875 29.828125 
Q 18.359375 34.515625 30.609375 34.515625 
L 43.21875 34.515625 
L 43.21875 35.40625 
Q 43.21875 41.609375 39.140625 45 
Q 35.0625 48.390625 27.6875 48.390625 
Q 23 48.390625 18.546875 47.265625 
Q 14.109375 46.140625 10.015625 43.890625 
L 10.015625 52.203125 
Q 14.9375 54.109375 19.578125 55.046875 
Q 24.21875 56 28.609375 56 
Q 40.484375 56 46.34375 49.84375 
Q 52.203125 43.703125 52.203125 31.203125 
z
" id="DejaVuSans-61"/>
      <path d="M 44.28125 53.078125 
L 44.28125 44.578125 
Q 40.484375 46.53125 36.375 47.5 
Q 32.28125 48.484375 27.875 48.484375 
Q 21.1875 48.484375 17.84375 46.4375 
Q 14.5 44.390625 14.5 40.28125 
Q 14.5 37.15625 16.890625 35.375 
Q 19.28125 33.59375 26.515625 31.984375 
L 29.59375 31.296875 
Q 39.15625 29.25 43.1875 25.515625 
Q 47.21875 21.78125 47.21875 15.09375 
Q 47.21875 7.46875 41.1875 3.015625 
Q 35.15625 -1.421875 24.609375 -1.421875 
Q 20.21875 -1.421875 15.453125 -0.5625 
Q 10.6875 0.296875 5.421875 2 
L 5.421875 11.28125 
Q 10.40625 8.6875 15.234375 7.390625 
Q 20.0625 6.109375 24.8125 6.109375 
Q 31.15625 6.109375 34.5625 8.28125 
Q 37.984375 10.453125 37.984375 14.40625 
Q 37.984375 18.0625 35.515625 20.015625 
Q 33.0625 21.96875 24.703125 23.78125 
L 21.578125 24.515625 
Q 13.234375 26.265625 9.515625 29.90625 
Q 5.8125 33.546875 5.8125 39.890625 
Q 5.8125 47.609375 11.28125 51.796875 
Q 16.75 56 26.8125 56 
Q 31.78125 56 36.171875 55.265625 
Q 40.578125 54.546875 44.28125 53.078125 
z
" id="DejaVuSans-73"/>
      <path d="M 25.390625 72.90625 
L 33.6875 72.90625 
L 8.296875 -9.28125 
L 0 -9.28125 
z
" id="DejaVuSans-2f"/>
      <path d="M 45.40625 46.390625 
L 45.40625 75.984375 
L 54.390625 75.984375 
L 54.390625 0 
L 45.40625 0 
L 45.40625 8.203125 
Q 42.578125 3.328125 38.25 0.953125 
Q 33.9375 -1.421875 27.875 -1.421875 
Q 17.96875 -1.421875 11.734375 6.484375 
Q 5.515625 14.40625 5.515625 27.296875 
Q 5.515625 40.1875 11.734375 48.09375 
Q 17.96875 56 27.875 56 
Q 33.9375 56 38.25 53.625 
Q 42.578125 51.265625 45.40625 46.390625 
z
M 14.796875 27.296875 
Q 14.796875 17.390625 18.875 11.75 
Q 22.953125 6.109375 30.078125 6.109375 
Q 37.203125 6.109375 41.296875 11.75 
Q 45.40625 17.390625 45.40625 27.296875 
Q 45.40625 37.203125 41.296875 42.84375 
Q 37.203125 48.484375 30.078125 48.484375 
Q 22.953125 48.484375 18.875 42.84375 
Q 14.796875 37.203125 14.796875 27.296875 
z
" id="DejaVuSans-64"/>
      <path d="M 9.421875 54.6875 
L 18.40625 54.6875 
L 18.40625 0 
L 9.421875 0 
z
M 9.421875 75.984375 
L 18.40625 75.984375 
L 18.40625 64.59375 
L 9.421875 64.59375 
z
" id="DejaVuSans-69"/>
      <path d="M 52 44.1875 
Q 55.375 50.25 60.0625 53.125 
Q 64.75 56 71.09375 56 
Q 79.640625 56 84.28125 50.015625 
Q 88.921875 44.046875 88.921875 33.015625 
L 88.921875 0 
L 79.890625 0 
L 79.890625 32.71875 
Q 79.890625 40.578125 77.09375 44.375 
Q 74.3125 48.1875 68.609375 48.1875 
Q 61.625 48.1875 57.5625 43.546875 
Q 53.515625 38.921875 53.515625 30.90625 
L 53.515625 0 
L 44.484375 0 
L 44.484375 32.71875 
Q 44.484375 40.625 41.703125 44.40625 
Q 38.921875 48.1875 33.109375 48.1875 
Q 26.21875 48.1875 22.15625 43.53125 
Q 18.109375 38.875 18.109375 30.90625 
L 18.109375 0 
L 9.078125 0 
L 9.078125 54.6875 
L 18.109375 54.6875 
L 18.109375 46.1875 
Q 21.1875 51.21875 25.484375 53.609375 
Q 29.78125 56 35.6875 56 
Q 41.65625 56 45.828125 52.96875 
Q 50 49.953125 52 44.1875 
z
" id="DejaVuSans-6d"/>
      <path d="M 54.890625 33.015625 
L 54.890625 0 
L 45.90625 0 
L 45.90625 32.71875 
Q 45.90625 40.484375 42.875 44.328125 
Q 39.84375 48.1875 33.796875 48.1875 
Q 26.515625 48.1875 22.3125 43.546875 
Q 18.109375 38.921875 18.109375 30.90625 
L 18.109375 0 
L 9.078125 0 
L 9.078125 54.6875 
L 18.109375 54.6875 
L 18.109375 46.1875 
Q 21.34375 51.125 25.703125 53.5625 
Q 30.078125 56 35.796875 56 
Q 45.21875 56 50.046875 50.171875 
Q 54.890625 44.34375 54.890625 33.015625 
z
" id="DejaVuSans-6e"/>
      <path d="M 8.015625 75.875 
L 15.828125 75.875 
Q 23.140625 64.359375 26.78125 53.3125 
Q 30.421875 42.28125 30.421875 31.390625 
Q 30.421875 20.453125 26.78125 9.375 
Q 23.140625 -1.703125 15.828125 -13.1875 
L 8.015625 -13.1875 
Q 14.5 -2 17.703125 9.0625 
Q 20.90625 20.125 20.90625 31.390625 
Q 20.90625 42.671875 17.703125 53.65625 
Q 14.5 64.65625 8.015625 75.875 
z
" id="DejaVuSans-29"/>
     </defs>
     <g transform="translate(107.211219 338.153594)scale(0.17 -0.17)">
      <use xlink:href="#DejaVuSans-6c"/>
      <use x="27.783203" xlink:href="#DejaVuSans-6f"/>
      <use x="88.964844" xlink:href="#DejaVuSans-67"/>
      <use x="152.441406" xlink:href="#DejaVuSans-31"/>
      <use x="216.064453" xlink:href="#DejaVuSans-30"/>
      <use x="279.6875" xlink:href="#DejaVuSans-28"/>
      <use x="318.701172" xlink:href="#DejaVuSans-23"/>
      <use x="402.490234" xlink:href="#DejaVuSans-20"/>
      <use x="434.277344" xlink:href="#DejaVuSans-66"/>
      <use x="469.404297" xlink:href="#DejaVuSans-2d"/>
      <use x="505.488281" xlink:href="#DejaVuSans-65"/>
      <use x="567.011719" xlink:href="#DejaVuSans-76"/>
      <use x="626.191406" xlink:href="#DejaVuSans-61"/>
      <use x="687.470703" xlink:href="#DejaVuSans-6c"/>
      <use x="715.253906" xlink:href="#DejaVuSans-73"/>
      <use x="767.353516" xlink:href="#DejaVuSans-20"/>
      <use x="799.140625" xlink:href="#DejaVuSans-2f"/>
      <use x="832.832031" xlink:href="#DejaVuSans-20"/>
      <use x="864.619141" xlink:href="#DejaVuSans-64"/>
      <use x="928.095703" xlink:href="#DejaVuSans-69"/>
      <use x="955.878906" xlink:href="#DejaVuSans-6d"/>
      <use x="1053.291016" xlink:href="#DejaVuSans-65"/>
      <use x="1114.814453" xlink:href="#DejaVuSans-6e"/>
      <use x="1178.193359" xlink:href="#DejaVuSans-73"/>
      <use x="1230.292969" xlink:href="#DejaVuSans-69"/>
      <use x="1258.076172" xlink:href="#DejaVuSans-6f"/>
      <use x="1319.257812" xlink:href="#DejaVuSans-6e"/>
      <use x="1382.636719" xlink:href="#DejaVuSans-29"/>
     </g>
    </g>
   </g>
   <g id="matplotlib.axis_2">
    <g id="ytick_1">
     <g id="line2d_14">
      <path clip-path="url(#p07ae1de4f4)" d="M 56.12 294.88 
L 399.984 294.88 
" style="fill:none;stroke:#b0b0b0;stroke-linecap:square;stroke-width:0.8;"/>
     </g>
     <g id="line2d_15">
      <defs>
       <path d="M 0 0 
L -3.5 0 
" id="m1a518a5a11" style="stroke:#000000;stroke-width:0.8;"/>
      </defs>
      <g>
       <use style="stroke:#000000;stroke-width:0.8;" x="56.12" xlink:href="#m1a518a5a11" y="294.88"/>
      </g>
     </g>
     <g id="text_7">
      <!-- 0.0 -->
      <defs>
       <path d="M 10.6875 12.40625 
L 21 12.40625 
L 21 0 
L 10.6875 0 
z
" id="DejaVuSans-2e"/>
      </defs>
      <g transform="translate(23.675 300.95875)scale(0.16 -0.16)">
       <use xlink:href="#DejaVuSans-30"/>
       <use x="63.623047" xlink:href="#DejaVuSans-2e"/>
       <use x="95.410156" xlink:href="#DejaVuSans-30"/>
      </g>
     </g>
    </g>
    <g id="ytick_2">
     <g id="line2d_16">
      <path clip-path="url(#p07ae1de4f4)" d="M 56.12 241.406733 
L 399.984 241.406733 
" style="fill:none;stroke:#b0b0b0;stroke-linecap:square;stroke-width:0.8;"/>
     </g>
     <g id="line2d_17">
      <g>
       <use style="stroke:#000000;stroke-width:0.8;" x="56.12" xlink:href="#m1a518a5a11" y="241.406733"/>
      </g>
     </g>
     <g id="text_8">
      <!-- 0.2 -->
      <g transform="translate(23.675 247.485483)scale(0.16 -0.16)">
       <use xlink:href="#DejaVuSans-30"/>
       <use x="63.623047" xlink:href="#DejaVuSans-2e"/>
       <use x="95.410156" xlink:href="#DejaVuSans-32"/>
      </g>
     </g>
    </g>
    <g id="ytick_3">
     <g id="line2d_18">
      <path clip-path="url(#p07ae1de4f4)" d="M 56.12 187.933465 
L 399.984 187.933465 
" style="fill:none;stroke:#b0b0b0;stroke-linecap:square;stroke-width:0.8;"/>
     </g>
     <g id="line2d_19">
      <g>
       <use style="stroke:#000000;stroke-width:0.8;" x="56.12" xlink:href="#m1a518a5a11" y="187.933465"/>
      </g>
     </g>
     <g id="text_9">
      <!-- 0.4 -->
      <g transform="translate(23.675 194.012215)scale(0.16 -0.16)">
       <use xlink:href="#DejaVuSans-30"/>
       <use x="63.623047" xlink:href="#DejaVuSans-2e"/>
       <use x="95.410156" xlink:href="#DejaVuSans-34"/>
      </g>
     </g>
    </g>
    <g id="ytick_4">
     <g id="line2d_20">
      <path clip-path="url(#p07ae1de4f4)" d="M 56.12 134.460198 
L 399.984 134.460198 
" style="fill:none;stroke:#b0b0b0;stroke-linecap:square;stroke-width:0.8;"/>
     </g>
     <g id="line2d_21">
      <g>
       <use style="stroke:#000000;stroke-width:0.8;" x="56.12" xlink:href="#m1a518a5a11" y="134.460198"/>
      </g>
     </g>
     <g id="text_10">
      <!-- 0.6 -->
      <g transform="translate(23.675 140.538948)scale(0.16 -0.16)">
       <use xlink:href="#DejaVuSans-30"/>
       <use x="63.623047" xlink:href="#DejaVuSans-2e"/>
       <use x="95.410156" xlink:href="#DejaVuSans-36"/>
      </g>
     </g>
    </g>
    <g id="ytick_5">
     <g id="line2d_22">
      <path clip-path="url(#p07ae1de4f4)" d="M 56.12 80.986931 
L 399.984 80.986931 
" style="fill:none;stroke:#b0b0b0;stroke-linecap:square;stroke-width:0.8;"/>
     </g>
     <g id="line2d_23">
      <g>
       <use style="stroke:#000000;stroke-width:0.8;" x="56.12" xlink:href="#m1a518a5a11" y="80.986931"/>
      </g>
     </g>
     <g id="text_11">
      <!-- 0.8 -->
      <g transform="translate(23.675 87.065681)scale(0.16 -0.16)">
       <use xlink:href="#DejaVuSans-30"/>
       <use x="63.623047" xlink:href="#DejaVuSans-2e"/>
       <use x="95.410156" xlink:href="#DejaVuSans-38"/>
      </g>
     </g>
    </g>
    <g id="ytick_6">
     <g id="line2d_24">
      <path clip-path="url(#p07ae1de4f4)" d="M 56.12 27.513663 
L 399.984 27.513663 
" style="fill:none;stroke:#b0b0b0;stroke-linecap:square;stroke-width:0.8;"/>
     </g>
     <g id="line2d_25">
      <g>
       <use style="stroke:#000000;stroke-width:0.8;" x="56.12" xlink:href="#m1a518a5a11" y="27.513663"/>
      </g>
     </g>
     <g id="text_12">
      <!-- 1.0 -->
      <g transform="translate(23.675 33.592413)scale(0.16 -0.16)">
       <use xlink:href="#DejaVuSans-31"/>
       <use x="63.623047" xlink:href="#DejaVuSans-2e"/>
       <use x="95.410156" xlink:href="#DejaVuSans-30"/>
      </g>
     </g>
    </g>
    <g id="text_13">
     <!-- Fraction of function,target pairs -->
     <defs>
      <path d="M 9.8125 72.90625 
L 51.703125 72.90625 
L 51.703125 64.59375 
L 19.671875 64.59375 
L 19.671875 43.109375 
L 48.578125 43.109375 
L 48.578125 34.8125 
L 19.671875 34.8125 
L 19.671875 0 
L 9.8125 0 
z
" id="DejaVuSans-46"/>
      <path d="M 41.109375 46.296875 
Q 39.59375 47.171875 37.8125 47.578125 
Q 36.03125 48 33.890625 48 
Q 26.265625 48 22.1875 43.046875 
Q 18.109375 38.09375 18.109375 28.8125 
L 18.109375 0 
L 9.078125 0 
L 9.078125 54.6875 
L 18.109375 54.6875 
L 18.109375 46.1875 
Q 20.953125 51.171875 25.484375 53.578125 
Q 30.03125 56 36.53125 56 
Q 37.453125 56 38.578125 55.875 
Q 39.703125 55.765625 41.0625 55.515625 
z
" id="DejaVuSans-72"/>
      <path d="M 48.78125 52.59375 
L 48.78125 44.1875 
Q 44.96875 46.296875 41.140625 47.34375 
Q 37.3125 48.390625 33.40625 48.390625 
Q 24.65625 48.390625 19.8125 42.84375 
Q 14.984375 37.3125 14.984375 27.296875 
Q 14.984375 17.28125 19.8125 11.734375 
Q 24.65625 6.203125 33.40625 6.203125 
Q 37.3125 6.203125 41.140625 7.25 
Q 44.96875 8.296875 48.78125 10.40625 
L 48.78125 2.09375 
Q 45.015625 0.34375 40.984375 -0.53125 
Q 36.96875 -1.421875 32.421875 -1.421875 
Q 20.0625 -1.421875 12.78125 6.34375 
Q 5.515625 14.109375 5.515625 27.296875 
Q 5.515625 40.671875 12.859375 48.328125 
Q 20.21875 56 33.015625 56 
Q 37.15625 56 41.109375 55.140625 
Q 45.0625 54.296875 48.78125 52.59375 
z
" id="DejaVuSans-63"/>
      <path d="M 18.3125 70.21875 
L 18.3125 54.6875 
L 36.8125 54.6875 
L 36.8125 47.703125 
L 18.3125 47.703125 
L 18.3125 18.015625 
Q 18.3125 11.328125 20.140625 9.421875 
Q 21.96875 7.515625 27.59375 7.515625 
L 36.8125 7.515625 
L 36.8125 0 
L 27.59375 0 
Q 17.1875 0 13.234375 3.875 
Q 9.28125 7.765625 9.28125 18.015625 
L 9.28125 47.703125 
L 2.6875 47.703125 
L 2.6875 54.6875 
L 9.28125 54.6875 
L 9.28125 70.21875 
z
" id="DejaVuSans-74"/>
      <path d="M 8.5 21.578125 
L 8.5 54.6875 
L 17.484375 54.6875 
L 17.484375 21.921875 
Q 17.484375 14.15625 20.5 10.265625 
Q 23.53125 6.390625 29.59375 6.390625 
Q 36.859375 6.390625 41.078125 11.03125 
Q 45.3125 15.671875 45.3125 23.6875 
L 45.3125 54.6875 
L 54.296875 54.6875 
L 54.296875 0 
L 45.3125 0 
L 45.3125 8.40625 
Q 42.046875 3.421875 37.71875 1 
Q 33.40625 -1.421875 27.6875 -1.421875 
Q 18.265625 -1.421875 13.375 4.4375 
Q 8.5 10.296875 8.5 21.578125 
z
M 31.109375 56 
z
" id="DejaVuSans-75"/>
      <path d="M 11.71875 12.40625 
L 22.015625 12.40625 
L 22.015625 4 
L 14.015625 -11.625 
L 7.71875 -11.625 
L 11.71875 4 
z
" id="DejaVuSans-2c"/>
      <path d="M 18.109375 8.203125 
L 18.109375 -20.796875 
L 9.078125 -20.796875 
L 9.078125 54.6875 
L 18.109375 54.6875 
L 18.109375 46.390625 
Q 20.953125 51.265625 25.265625 53.625 
Q 29.59375 56 35.59375 56 
Q 45.5625 56 51.78125 48.09375 
Q 58.015625 40.1875 58.015625 27.296875 
Q 58.015625 14.40625 51.78125 6.484375 
Q 45.5625 -1.421875 35.59375 -1.421875 
Q 29.59375 -1.421875 25.265625 0.953125 
Q 20.953125 3.328125 18.109375 8.203125 
z
M 48.6875 27.296875 
Q 48.6875 37.203125 44.609375 42.84375 
Q 40.53125 48.484375 33.40625 48.484375 
Q 26.265625 48.484375 22.1875 42.84375 
Q 18.109375 37.203125 18.109375 27.296875 
Q 18.109375 17.390625 22.1875 11.75 
Q 26.265625 6.109375 33.40625 6.109375 
Q 40.53125 6.109375 44.609375 11.75 
Q 48.6875 17.390625 48.6875 27.296875 
z
" id="DejaVuSans-70"/>
     </defs>
     <g transform="translate(16.139531 294.999375)rotate(-90)scale(0.17 -0.17)">
      <use xlink:href="#DejaVuSans-46"/>
      <use x="57.410156" xlink:href="#DejaVuSans-72"/>
      <use x="98.523438" xlink:href="#DejaVuSans-61"/>
      <use x="159.802734" xlink:href="#DejaVuSans-63"/>
      <use x="214.783203" xlink:href="#DejaVuSans-74"/>
      <use x="253.992188" xlink:href="#DejaVuSans-69"/>
      <use x="281.775391" xlink:href="#DejaVuSans-6f"/>
      <use x="342.957031" xlink:href="#DejaVuSans-6e"/>
      <use x="406.335938" xlink:href="#DejaVuSans-20"/>
      <use x="438.123047" xlink:href="#DejaVuSans-6f"/>
      <use x="499.304688" xlink:href="#DejaVuSans-66"/>
      <use x="534.509766" xlink:href="#DejaVuSans-20"/>
      <use x="566.296875" xlink:href="#DejaVuSans-66"/>
      <use x="601.501953" xlink:href="#DejaVuSans-75"/>
      <use x="664.880859" xlink:href="#DejaVuSans-6e"/>
      <use x="728.259766" xlink:href="#DejaVuSans-63"/>
      <use x="783.240234" xlink:href="#DejaVuSans-74"/>
      <use x="822.449219" xlink:href="#DejaVuSans-69"/>
      <use x="850.232422" xlink:href="#DejaVuSans-6f"/>
      <use x="911.414062" xlink:href="#DejaVuSans-6e"/>
      <use x="974.792969" xlink:href="#DejaVuSans-2c"/>
      <use x="1006.580078" xlink:href="#DejaVuSans-74"/>
      <use x="1045.789062" xlink:href="#DejaVuSans-61"/>
      <use x="1107.068359" xlink:href="#DejaVuSans-72"/>
      <use x="1148.166016" xlink:href="#DejaVuSans-67"/>
      <use x="1211.642578" xlink:href="#DejaVuSans-65"/>
      <use x="1273.166016" xlink:href="#DejaVuSans-74"/>
      <use x="1312.375" xlink:href="#DejaVuSans-20"/>
      <use x="1344.162109" xlink:href="#DejaVuSans-70"/>
      <use x="1407.638672" xlink:href="#DejaVuSans-61"/>
      <use x="1468.917969" xlink:href="#DejaVuSans-69"/>
      <use x="1496.701172" xlink:href="#DejaVuSans-72"/>
      <use x="1537.814453" xlink:href="#DejaVuSans-73"/>
     </g>
    </g>
   </g>
   <g id="line2d_26">
    <defs>
     <path d="M 0 1.5 
C 0.397805 1.5 0.77937 1.341951 1.06066 1.06066 
C 1.341951 0.77937 1.5 0.397805 1.5 0 
C 1.5 -0.397805 1.341951 -0.77937 1.06066 -1.06066 
C 0.77937 -1.341951 0.397805 -1.5 0 -1.5 
C -0.397805 -1.5 -0.77937 -1.341951 -1.06066 -1.06066 
C -1.341951 -0.77937 -1.5 -0.397805 -1.5 0 
C -1.5 0.397805 -1.341951 0.77937 -1.06066 1.06066 
C -0.77937 1.341951 -0.397805 1.5 0 1.5 
z
" id="m778cc9f5e5" style="stroke:#f5deb3;"/>
    </defs>
    <g>
     <use style="fill:#f5deb3;stroke:#f5deb3;" x="293.491557" xlink:href="#m778cc9f5e5" y="73.611308"/>
     <use style="fill:#f5deb3;stroke:#f5deb3;" x="293.491557" xlink:href="#m778cc9f5e5" y="73.611308"/>
    </g>
   </g>
   <g id="line2d_27">
    <g>
     <use style="fill:#f5deb3;stroke:#f5deb3;stroke-linejoin:miter;stroke-width:1.5;" x="165.333513" xlink:href="#m8016508f6e" y="207.294476"/>
     <use style="fill:#f5deb3;stroke:#f5deb3;stroke-linejoin:miter;stroke-width:1.5;" x="237.824944" xlink:href="#m8016508f6e" y="124.318716"/>
     <use style="fill:#f5deb3;stroke:#f5deb3;stroke-linejoin:miter;stroke-width:1.5;" x="293.491557" xlink:href="#m8016508f6e" y="73.611308"/>
     <use style="fill:#f5deb3;stroke:#f5deb3;stroke-linejoin:miter;stroke-width:1.5;" x="293.491557" xlink:href="#m8016508f6e" y="73.611308"/>
     <use style="fill:#f5deb3;stroke:#f5deb3;stroke-linejoin:miter;stroke-width:1.5;" x="333.429677" xlink:href="#m8016508f6e" y="73.611308"/>
    </g>
   </g>
   <g id="line2d_28">
    <defs>
     <path d="M 0 1.5 
C 0.397805 1.5 0.77937 1.341951 1.06066 1.06066 
C 1.341951 0.77937 1.5 0.397805 1.5 0 
C 1.5 -0.397805 1.341951 -0.77937 1.06066 -1.06066 
C 0.77937 -1.341951 0.397805 -1.5 0 -1.5 
C -0.397805 -1.5 -0.77937 -1.341951 -1.06066 -1.06066 
C -1.341951 -0.77937 -1.5 -0.397805 -1.5 0 
C -1.5 0.397805 -1.341951 0.77937 -1.06066 1.06066 
C -0.77937 1.341951 -0.397805 1.5 0 1.5 
z
" id="m96bc5a6abf" style="stroke:#999999;"/>
    </defs>
    <g>
     <use style="fill:#999999;stroke:#999999;" x="307.411712" xlink:href="#m96bc5a6abf" y="175.026125"/>
     <use style="fill:#999999;stroke:#999999;" x="307.411712" xlink:href="#m96bc5a6abf" y="175.026125"/>
    </g>
   </g>
   <g id="line2d_29">
    <path d="M -1 286.121448 
L 111.082375 286.121448 
L 111.082375 285.660471 
L 112.092199 285.660471 
L 112.092199 285.199495 
L 112.680457 285.199495 
L 112.728583 284.277542 
L 113.357716 284.277542 
L 113.357716 283.816565 
L 113.814914 283.816565 
L 113.814914 283.355589 
L 114.053874 283.355589 
L 114.053874 282.894612 
L 115.019964 282.894612 
L 115.019964 281.97266 
L 115.284339 281.97266 
L 115.284339 281.511683 
L 115.734076 281.511683 
L 115.734076 280.128754 
L 116.419724 280.128754 
L 116.497108 279.206801 
L 116.828471 279.206801 
L 116.828471 277.823872 
L 117.313848 277.823872 
L 117.313848 276.901919 
L 119.140055 276.901919 
L 119.140055 275.518989 
L 121.679896 275.518989 
L 121.765375 272.753131 
L 122.333797 272.753131 
L 122.333797 271.831178 
L 122.821783 271.831178 
L 122.821783 271.370201 
L 128.182887 271.370201 
L 128.182887 270.448249 
L 128.823261 270.448249 
L 128.823261 269.526296 
L 137.427409 269.526296 
L 137.427409 269.065319 
L 147.082189 269.065319 
L 147.082189 268.143366 
L 151.774232 268.143366 
L 151.774232 267.68239 
L 154.688833 267.68239 
L 154.688833 266.299461 
L 158.899689 266.299461 
L 158.899689 265.377508 
L 159.217393 265.377508 
L 159.217393 264.455555 
L 162.238508 264.455555 
L 162.238508 263.994578 
L 163.54755 263.994578 
L 163.54755 263.072625 
L 164.243303 263.072625 
L 164.243303 262.611649 
L 165.891341 262.611649 
L 165.891341 262.150673 
L 166.742463 262.150673 
L 166.742463 261.689696 
L 168.749777 261.689696 
L 168.749777 260.767743 
L 170.414308 260.767743 
L 170.414308 259.84579 
L 171.656229 259.84579 
L 171.656229 258.462861 
L 172.095833 258.462861 
L 172.095833 258.001885 
L 172.350097 258.001885 
L 172.350097 257.079932 
L 174.081341 257.079932 
L 174.081341 256.618955 
L 174.690812 256.618955 
L 174.690812 256.157979 
L 176.891829 256.157979 
L 176.891829 255.697002 
L 177.509052 255.697002 
L 177.509052 254.314073 
L 178.562542 254.314073 
L 178.663457 252.931144 
L 178.9569 252.931144 
L 178.9569 252.470167 
L 181.266906 252.470167 
L 181.266906 251.548214 
L 181.543524 251.548214 
L 181.543524 249.704309 
L 182.511561 249.704309 
L 182.511561 249.243332 
L 184.166083 249.243332 
L 184.166083 248.321379 
L 184.535537 248.321379 
L 184.535537 247.860403 
L 188.275654 247.860403 
L 188.275654 246.477474 
L 189.081246 246.477474 
L 189.081246 245.555521 
L 189.985542 245.555521 
L 189.985542 244.172591 
L 191.538618 244.172591 
L 191.538618 243.250638 
L 191.930739 243.250638 
L 191.930739 242.789662 
L 193.219826 242.789662 
L 193.219826 242.328686 
L 194.107114 242.328686 
L 194.107114 241.406733 
L 194.353078 241.406733 
L 194.353078 240.023803 
L 196.439817 240.023803 
L 196.439817 239.10185 
L 199.160191 239.10185 
L 199.160191 238.640874 
L 199.70275 238.640874 
L 199.70275 237.718921 
L 201.882995 237.718921 
L 201.882995 237.257945 
L 202.781966 237.257945 
L 202.781966 236.796968 
L 203.283416 236.796968 
L 203.298837 234.953062 
L 204.198068 234.953062 
L 204.198068 234.03111 
L 204.855712 234.03111 
L 204.855712 232.64818 
L 205.363249 232.64818 
L 205.363249 231.726227 
L 205.624837 231.726227 
L 205.624837 230.804274 
L 212.566895 230.804274 
L 212.566895 229.882322 
L 213.930444 229.882322 
L 213.930444 228.038416 
L 214.119754 228.038416 
L 214.119754 227.577439 
L 218.843673 227.577439 
L 218.843673 226.19451 
L 219.20141 226.19451 
L 219.20141 223.889628 
L 219.46383 223.889628 
L 219.46383 222.506699 
L 219.627834 222.506699 
L 219.627834 221.584746 
L 221.40148 221.584746 
L 221.40148 221.123769 
L 223.123126 221.123769 
L 223.123126 220.662793 
L 229.896031 220.662793 
L 229.896031 219.279863 
L 231.479475 219.279863 
L 231.479475 218.357911 
L 235.547625 218.357911 
L 235.547625 217.896934 
L 240.746867 217.896934 
L 240.746867 216.514005 
L 242.259412 216.514005 
L 242.259412 215.592052 
L 246.765418 215.592052 
L 246.765418 214.670099 
L 247.374884 214.670099 
L 247.374884 212.826193 
L 254.585311 212.826193 
L 254.643875 211.90424 
L 254.721656 211.90424 
L 254.801907 208.677405 
L 255.071204 208.677405 
L 255.114907 206.372523 
L 255.780277 206.372523 
L 255.780383 204.528617 
L 256.272576 204.528617 
L 256.363444 200.379829 
L 257.50482 200.379829 
L 257.50482 199.918853 
L 258.23491 199.918853 
L 258.299028 197.152994 
L 259.12366 197.152994 
L 259.211315 196.231041 
L 260.68094 196.231041 
L 260.68094 195.309088 
L 263.048497 195.309088 
L 263.04852 193.926159 
L 266.318631 193.926159 
L 266.406913 193.004206 
L 266.471815 193.004206 
L 266.471847 192.082253 
L 267.856571 192.082253 
L 267.856571 191.621277 
L 268.260446 191.621277 
L 268.296259 189.316395 
L 268.762388 189.316395 
L 268.762388 188.855418 
L 273.249921 188.855418 
L 273.303726 187.011512 
L 274.938236 187.011512 
L 274.938236 186.550536 
L 278.200251 186.550536 
L 278.292509 184.70663 
L 279.446365 184.70663 
L 279.446365 184.245654 
L 280.074761 184.245654 
L 280.074761 183.784677 
L 280.723784 183.784677 
L 280.723785 182.862724 
L 282.009422 182.862724 
L 282.028858 181.940772 
L 282.217138 181.940772 
L 282.324231 180.557842 
L 282.775533 180.557842 
L 282.775533 180.096866 
L 283.015155 180.096866 
L 283.015155 179.635889 
L 284.060377 179.635889 
L 284.060377 179.174913 
L 285.181931 179.174913 
L 285.181931 178.713936 
L 286.853801 178.713936 
L 286.853801 178.25296 
L 287.764063 178.25296 
L 287.764063 177.791984 
L 290.673766 177.791984 
L 290.673766 177.331007 
L 292.623994 177.331007 
L 292.623994 176.870031 
L 293.875791 176.870031 
L 293.875791 176.409054 
L 294.375465 176.409054 
L 294.375465 175.948078 
L 304.558462 175.948078 
L 304.558462 175.487101 
L 307.411712 175.487101 
L 307.411712 175.026125 
L 333.429677 175.026125 
L 333.429677 175.026125 
" style="fill:none;stroke:#999999;stroke-linecap:square;stroke-width:1.5;"/>
   </g>
   <g id="line2d_30"/>
   <g id="line2d_31">
    <path d="M 0 0 
" style="fill:none;stroke:#999999;stroke-linecap:square;stroke-width:1.5;"/>
   </g>
   <g id="line2d_32">
    <path clip-path="url(#p07ae1de4f4)" d="M 254.198844 212.826193 
" style="fill:none;stroke:#999999;stroke-linecap:square;stroke-width:1.5;"/>
    <defs>
     <path d="M -12 12 
L 12 -12 
M -12 -12 
L 12 12 
" id="mae6318d415" style="stroke:#999999;stroke-width:3;"/>
    </defs>
    <g clip-path="url(#p07ae1de4f4)">
     <use style="fill:#999999;stroke:#999999;stroke-width:3;" x="254.198844" xlink:href="#mae6318d415" y="212.826193"/>
    </g>
   </g>
   <g id="line2d_33">
    <path clip-path="url(#p07ae1de4f4)" d="M 56.12 294.88 
L 56.12 294.88 
L 56.12 294.88 
L 56.12 294.88 
L 399.984 294.88 
" style="fill:none;stroke:#999999;stroke-linecap:square;stroke-width:1.5;"/>
   </g>
   <g id="line2d_34"/>
   <g id="line2d_35">
    <path clip-path="url(#p07ae1de4f4)" d="M 0 0 
" style="fill:none;stroke:#999999;stroke-linecap:square;stroke-width:1.5;"/>
   </g>
   <g id="line2d_36">
    <g>
     <use style="fill:#999999;stroke:#999999;" x="309.199779" xlink:href="#m96bc5a6abf" y="262.611649"/>
     <use style="fill:#999999;stroke:#999999;" x="309.199779" xlink:href="#m96bc5a6abf" y="262.611649"/>
    </g>
   </g>
   <g id="line2d_37">
    <path d="M 4.578827 294.88 
L 4.578827 293.958047 
L 30.456278 293.958047 
L 30.456278 293.497071 
L 32.268991 293.497071 
L 32.268991 293.036094 
L 36.782933 293.036094 
L 36.782933 292.575118 
L 39.244964 292.575118 
L 39.244964 292.114141 
L 60.961664 292.114141 
L 60.961664 291.192188 
L 70.820101 291.192188 
L 70.820101 290.731212 
L 71.360613 290.731212 
L 71.360613 290.270236 
L 71.537074 290.270236 
L 71.537074 289.348283 
L 73.834464 289.348283 
L 73.834464 288.42633 
L 74.585888 288.42633 
L 74.585888 287.0434 
L 85.836605 287.0434 
L 85.836605 286.582424 
L 87.854548 286.582424 
L 87.854548 285.660471 
L 95.388083 285.660471 
L 95.388083 285.199495 
L 96.575096 285.199495 
L 96.575096 284.738518 
L 100.867037 284.738518 
L 100.867037 283.816565 
L 112.486598 283.816565 
L 112.486598 283.355589 
L 130.949291 283.355589 
L 130.949291 282.433636 
L 145.830579 282.433636 
L 145.830579 281.97266 
L 146.244283 281.97266 
L 146.244283 280.58973 
L 161.294613 280.58973 
L 161.294613 279.206801 
L 162.827697 279.206801 
L 162.827697 278.284848 
L 167.096082 278.284848 
L 167.096082 277.823872 
L 188.001004 277.823872 
L 188.001004 276.440942 
L 189.881014 276.440942 
L 189.881014 275.979966 
L 193.28254 275.979966 
L 193.28254 275.058013 
L 193.858873 275.058013 
L 193.858873 274.597037 
L 196.877222 274.597037 
L 196.877222 273.675084 
L 197.81204 273.675084 
L 197.81204 273.214107 
L 198.785509 273.214107 
L 198.785509 272.753131 
L 221.239478 272.753131 
L 221.239478 270.909225 
L 235.583652 270.909225 
L 235.583652 270.448249 
L 237.703846 270.448249 
L 237.703846 269.987272 
L 239.358879 269.987272 
L 239.358879 269.526296 
L 240.667676 269.526296 
L 240.667676 269.065319 
L 254.283094 269.065319 
L 254.283094 268.604343 
L 254.602919 268.604343 
L 254.602919 268.143366 
L 254.706616 268.143366 
L 254.706616 267.221413 
L 260.655724 267.221413 
L 260.655724 266.760437 
L 266.306372 266.760437 
L 266.306372 266.299461 
L 275.531618 266.299461 
L 275.531618 265.838484 
L 283.388413 265.838484 
L 283.388413 265.377508 
L 286.284152 265.377508 
L 286.284152 264.916531 
L 288.762003 264.916531 
L 288.762003 264.455555 
L 294.580303 264.455555 
L 294.580303 263.994578 
L 297.591752 263.994578 
L 297.591752 263.533602 
L 303.398281 263.533602 
L 303.398281 263.072625 
L 309.199779 263.072625 
L 309.199779 262.611649 
L 333.429677 262.611649 
" style="fill:none;stroke:#999999;stroke-linecap:square;stroke-width:1.5;"/>
   </g>
   <g id="line2d_38"/>
   <g id="line2d_39">
    <path d="M 0 0 
" style="fill:none;stroke:#999999;stroke-linecap:square;stroke-width:1.5;"/>
   </g>
   <g id="line2d_40">
    <path clip-path="url(#p07ae1de4f4)" d="M 254.198341 269.065319 
" style="fill:none;stroke:#999999;stroke-linecap:square;stroke-width:1.5;"/>
    <g clip-path="url(#p07ae1de4f4)">
     <use style="fill:#999999;stroke:#999999;stroke-width:3;" x="254.198341" xlink:href="#mae6318d415" y="269.065319"/>
    </g>
   </g>
   <g id="line2d_41">
    <g>
     <use style="fill:#999999;stroke:#999999;" x="333.347343" xlink:href="#m96bc5a6abf" y="267.221413"/>
     <use style="fill:#999999;stroke:#999999;" x="333.347343" xlink:href="#m96bc5a6abf" y="267.221413"/>
    </g>
   </g>
   <g id="line2d_42">
    <path d="M 57.759799 294.88 
L 57.759799 293.958047 
L 63.380357 293.958047 
L 63.380357 292.575118 
L 63.660117 292.575118 
L 63.660117 292.114141 
L 96.492973 292.114141 
L 96.492973 291.653165 
L 101.277072 291.653165 
L 101.277072 290.731212 
L 120.528212 290.731212 
L 120.528212 289.348283 
L 131.581935 289.348283 
L 131.581935 288.42633 
L 136.770759 288.42633 
L 136.770759 287.504377 
L 136.987225 287.504377 
L 136.987225 286.582424 
L 143.356848 286.582424 
L 143.356848 286.121448 
L 149.432786 286.121448 
L 149.432786 285.660471 
L 154.072656 285.660471 
L 154.072656 285.199495 
L 157.827282 285.199495 
L 157.827282 283.816565 
L 185.183904 283.816565 
L 185.183904 283.355589 
L 186.213455 283.355589 
L 186.213455 282.433636 
L 198.099876 282.433636 
L 198.099876 281.97266 
L 207.01049 281.97266 
L 207.01049 281.511683 
L 207.590713 281.511683 
L 207.590713 281.050707 
L 240.673266 281.050707 
L 240.673266 280.128754 
L 242.23478 280.128754 
L 242.23478 279.206801 
L 250.012342 279.206801 
L 250.012342 278.745825 
L 258.233338 278.745825 
L 258.233338 278.284848 
L 261.378503 278.284848 
L 261.378503 276.901919 
L 280.331311 276.901919 
L 280.331311 275.518989 
L 288.266843 275.518989 
L 288.266843 275.058013 
L 292.972379 275.058013 
L 292.972379 274.597037 
L 293.847845 274.597037 
L 293.847845 273.214107 
L 293.896724 273.214107 
L 293.896724 272.753131 
L 293.997031 272.753131 
L 293.997031 272.292154 
L 295.690085 272.292154 
L 295.690085 271.370201 
L 306.16342 271.370201 
L 306.16342 270.909225 
L 306.703111 270.909225 
L 306.703111 270.448249 
L 312.439493 270.448249 
L 312.439493 269.987272 
L 312.752378 269.987272 
L 312.752378 269.526296 
L 313.363843 269.526296 
L 313.363843 269.065319 
L 321.339108 269.065319 
L 321.339108 268.604343 
L 321.710202 268.604343 
L 321.710202 268.143366 
L 324.503547 268.143366 
L 324.503547 267.68239 
L 333.347343 267.68239 
L 333.347343 267.221413 
L 333.429677 267.221413 
" style="fill:none;stroke:#999999;stroke-linecap:square;stroke-width:1.5;"/>
   </g>
   <g id="line2d_43"/>
   <g id="line2d_44">
    <path d="M 0 0 
" style="fill:none;stroke:#999999;stroke-linecap:square;stroke-width:1.5;"/>
   </g>
   <g id="line2d_45">
    <path clip-path="url(#p07ae1de4f4)" d="M 293.814009 274.597037 
" style="fill:none;stroke:#999999;stroke-linecap:square;stroke-width:1.5;"/>
    <g clip-path="url(#p07ae1de4f4)">
     <use style="fill:#999999;stroke:#999999;stroke-width:3;" x="293.814009" xlink:href="#mae6318d415" y="274.597037"/>
    </g>
   </g>
   <g id="line2d_46">
    <g>
     <use style="fill:#999999;stroke:#999999;" x="308.051918" xlink:href="#m96bc5a6abf" y="73.611308"/>
     <use style="fill:#999999;stroke:#999999;" x="308.051918" xlink:href="#m96bc5a6abf" y="73.611308"/>
    </g>
   </g>
   <g id="line2d_47">
    <path d="M 141.502069 294.88 
L 141.502069 293.958047 
L 142.586291 293.958047 
L 142.586291 293.497071 
L 142.788472 293.497071 
L 142.788472 293.036094 
L 143.354147 293.036094 
L 143.354147 292.114141 
L 143.472598 292.114141 
L 143.472598 291.653165 
L 143.654069 291.653165 
L 143.709726 290.731212 
L 143.985346 290.731212 
L 143.985346 289.348283 
L 144.508533 289.348283 
L 144.508533 288.42633 
L 144.754321 288.42633 
L 144.754321 287.965353 
L 144.873438 287.965353 
L 144.873438 287.504377 
L 145.25255 287.504377 
L 145.274308 286.121448 
L 145.790767 286.121448 
L 145.790767 285.199495 
L 146.032896 285.199495 
L 146.118223 282.894612 
L 146.801502 282.894612 
L 146.801502 282.433636 
L 147.158149 282.433636 
L 147.168973 281.511683 
L 147.537235 281.511683 
L 147.630188 279.667777 
L 147.70587 279.667777 
L 147.747772 278.284848 
L 147.930937 278.284848 
L 147.930937 277.823872 
L 148.116269 277.823872 
L 148.171482 276.901919 
L 148.48506 276.901919 
L 148.48506 275.979966 
L 148.720011 275.979966 
L 148.808772 275.058013 
L 149.13809 275.058013 
L 149.215121 271.370201 
L 149.272669 271.370201 
L 149.272669 270.909225 
L 149.457433 270.909225 
L 149.457433 270.448249 
L 149.642109 270.448249 
L 149.703853 269.065319 
L 149.81926 269.065319 
L 149.906233 266.760437 
L 150.171816 266.760437 
L 150.171816 266.299461 
L 150.472699 266.299461 
L 150.472699 265.838484 
L 150.761387 265.838484 
L 150.871681 262.150673 
L 151.114275 262.150673 
L 151.153805 259.84579 
L 151.468501 259.84579 
L 151.522355 258.462861 
L 151.916054 258.462861 
L 151.916054 258.001885 
L 152.222071 258.001885 
L 152.249476 255.697002 
L 152.403421 255.697002 
L 152.403421 254.314073 
L 152.530665 254.314073 
L 152.570236 251.548214 
L 152.699395 251.548214 
L 152.71508 249.243332 
L 153.078085 249.243332 
L 153.078085 248.321379 
L 153.270423 248.321379 
L 153.270423 247.399426 
L 153.545996 247.399426 
L 153.554957 245.555521 
L 153.745018 245.555521 
L 153.745018 244.172591 
L 153.867149 244.172591 
L 153.867149 243.250638 
L 154.026231 243.250638 
L 154.074105 241.867709 
L 154.201122 241.867709 
L 154.201122 241.406733 
L 154.341477 241.406733 
L 154.341477 240.945756 
L 154.47362 240.945756 
L 154.50897 239.562827 
L 154.604757 239.562827 
L 154.604757 239.10185 
L 154.930358 239.10185 
L 154.930358 238.640874 
L 155.12907 238.640874 
L 155.176693 235.875015 
L 155.470386 235.875015 
L 155.470386 235.414039 
L 155.801132 235.414039 
L 155.801132 234.492086 
L 155.93167 234.492086 
L 155.99657 233.109157 
L 156.206459 233.109157 
L 156.232036 230.343298 
L 156.795233 230.343298 
L 156.795233 229.882322 
L 157.022529 229.882322 
L 157.022529 228.038416 
L 157.232399 228.038416 
L 157.232399 227.577439 
L 157.378875 227.577439 
L 157.378875 225.733534 
L 157.617514 225.733534 
L 157.665788 223.428651 
L 158.428172 223.428651 
L 158.428172 222.967675 
L 158.569315 222.967675 
L 158.656113 220.662793 
L 158.749101 220.662793 
L 158.749101 218.818887 
L 159.008781 218.818887 
L 159.008781 218.357911 
L 159.190513 218.357911 
L 159.190513 217.896934 
L 159.842978 217.896934 
L 159.895733 216.974981 
L 160.009997 216.974981 
L 160.08371 216.053028 
L 160.154057 216.053028 
L 160.154057 215.131075 
L 160.276729 215.131075 
L 160.291875 213.748146 
L 160.634635 213.748146 
L 160.691925 212.365217 
L 161.125246 212.365217 
L 161.125246 211.443264 
L 161.398088 211.443264 
L 161.398088 210.060335 
L 161.66667 210.060335 
L 161.769791 207.755452 
L 162.351704 207.755452 
L 162.420514 205.45057 
L 162.714093 205.45057 
L 162.820728 204.528617 
L 162.839016 204.528617 
L 162.92584 202.223735 
L 163.299352 202.223735 
L 163.299352 199.918853 
L 163.474724 199.918853 
L 163.474724 199.457876 
L 163.793041 199.457876 
L 163.793041 198.9969 
L 164.009077 198.9969 
L 164.099915 198.074947 
L 164.176591 198.074947 
L 164.176591 197.152994 
L 164.369587 197.152994 
L 164.369587 196.692018 
L 164.485461 196.692018 
L 164.554928 195.309088 
L 164.609986 195.309088 
L 164.609986 194.848112 
L 165.012798 194.848112 
L 165.012798 194.387136 
L 165.498369 194.387136 
L 165.498369 193.926159 
L 165.641703 193.926159 
L 165.700031 191.621277 
L 165.851934 191.621277 
L 165.851934 191.1603 
L 166.665981 191.1603 
L 166.665981 190.238348 
L 167.008869 190.238348 
L 167.008869 189.777371 
L 167.344386 189.777371 
L 167.378517 187.933465 
L 167.643227 187.933465 
L 167.643227 186.550536 
L 167.985439 186.550536 
L 167.985439 185.628583 
L 168.312114 185.628583 
L 168.312114 185.167607 
L 168.443957 185.167607 
L 168.443957 184.245654 
L 169.139808 184.245654 
L 169.187419 182.401748 
L 169.311551 182.401748 
L 169.311551 181.018819 
L 169.452583 181.018819 
L 169.452583 180.557842 
L 170.01862 180.557842 
L 170.09415 178.713936 
L 170.45517 178.713936 
L 170.45517 177.331007 
L 171.118707 177.331007 
L 171.16759 175.948078 
L 171.933962 175.948078 
L 171.985702 172.721243 
L 172.477325 172.721243 
L 172.477325 172.260266 
L 172.659289 172.260266 
L 172.659289 171.79929 
L 173.034396 171.79929 
L 173.034396 168.572455 
L 173.658206 168.572455 
L 173.658206 168.111478 
L 174.607126 168.111478 
L 174.607126 167.189525 
L 174.830113 167.189525 
L 174.830113 165.34562 
L 174.951083 165.34562 
L 174.951083 163.96269 
L 175.202808 163.96269 
L 175.202808 163.501714 
L 175.396873 163.501714 
L 175.396873 162.579761 
L 176.417292 162.579761 
L 176.417292 162.118785 
L 176.563345 162.118785 
L 176.63103 159.352926 
L 177.356623 159.352926 
L 177.453306 157.50902 
L 180.07186 157.50902 
L 180.07186 157.048044 
L 180.328566 157.048044 
L 180.328566 156.126091 
L 180.445333 156.126091 
L 180.445333 154.743161 
L 182.13772 154.743161 
L 182.13772 153.821209 
L 182.465447 153.821209 
L 182.465447 152.899256 
L 182.72496 152.899256 
L 182.72496 152.438279 
L 183.062223 152.438279 
L 183.062223 151.516326 
L 183.756035 151.516326 
L 183.756035 151.05535 
L 184.023878 151.05535 
L 184.023878 150.594374 
L 185.316872 150.594374 
L 185.316872 150.133397 
L 185.547006 150.133397 
L 185.547006 149.672421 
L 188.22597 149.672421 
L 188.22597 148.750468 
L 188.684134 148.750468 
L 188.684134 147.367538 
L 190.899451 147.367538 
L 190.908649 145.523633 
L 191.145079 145.523633 
L 191.145079 145.062656 
L 192.477337 145.062656 
L 192.477337 144.60168 
L 192.643484 144.60168 
L 192.643484 144.140703 
L 194.517884 144.140703 
L 194.517884 143.21875 
L 194.978321 143.21875 
L 194.978321 141.835821 
L 197.685026 141.835821 
L 197.685026 139.991915 
L 198.234 139.991915 
L 198.234 139.069962 
L 200.795351 139.069962 
L 200.795351 138.14801 
L 201.373692 138.14801 
L 201.373692 137.687033 
L 201.684065 137.687033 
L 201.684065 137.226057 
L 203.384812 137.226057 
L 203.384812 136.76508 
L 203.963262 136.76508 
L 203.963262 136.304104 
L 205.133416 136.304104 
L 205.133416 135.843127 
L 207.9694 135.843127 
L 207.9694 135.382151 
L 208.531143 135.382151 
L 208.531143 134.460198 
L 212.320149 134.460198 
L 212.371338 133.538245 
L 213.882173 133.538245 
L 213.882173 132.155316 
L 214.021694 132.155316 
L 214.021694 131.694339 
L 217.568069 131.694339 
L 217.568069 131.233363 
L 217.773494 131.233363 
L 217.773494 130.772386 
L 219.388006 130.772386 
L 219.388006 129.389457 
L 219.742491 129.389457 
L 219.742491 128.928481 
L 220.839006 128.928481 
L 220.839006 128.467504 
L 222.045667 128.467504 
L 222.045667 127.084575 
L 222.383102 127.084575 
L 222.383102 126.162622 
L 223.157391 126.162622 
L 223.157391 125.701646 
L 223.597343 125.701646 
L 223.597343 125.240669 
L 224.426603 125.240669 
L 224.426603 124.779693 
L 224.598605 124.779693 
L 224.598605 123.396763 
L 225.029323 123.396763 
L 225.029323 122.935787 
L 226.290498 122.935787 
L 226.346729 122.013834 
L 226.52286 122.013834 
L 226.52286 120.630905 
L 226.795537 120.630905 
L 226.795537 119.247975 
L 226.972473 119.247975 
L 226.972473 117.865046 
L 228.979731 117.865046 
L 228.979731 117.40407 
L 230.681403 117.40407 
L 230.681403 116.482117 
L 231.447081 116.482117 
L 231.447081 115.560164 
L 232.395079 115.560164 
L 232.395079 115.099187 
L 233.28844 115.099187 
L 233.28844 114.638211 
L 234.039315 114.638211 
L 234.039315 114.177235 
L 234.602496 114.177235 
L 234.602496 111.872352 
L 235.527979 111.872352 
L 235.527979 110.950399 
L 235.924927 110.950399 
L 236.010335 108.645517 
L 236.181114 108.645517 
L 236.241619 106.801611 
L 237.150135 106.801611 
L 237.150135 105.879659 
L 239.660425 105.879659 
L 239.660425 104.957706 
L 239.947188 104.957706 
L 239.947188 104.496729 
L 242.008144 104.496729 
L 242.008144 104.035753 
L 242.95271 104.035753 
L 242.95271 102.652823 
L 246.008258 102.652823 
L 246.008258 100.808918 
L 246.28726 100.808918 
L 246.28726 99.425988 
L 246.760925 99.425988 
L 246.760925 98.504036 
L 251.942164 98.504036 
L 251.942164 96.66013 
L 254.953534 96.66013 
L 254.953534 96.199153 
L 255.440055 96.199153 
L 255.440055 95.738177 
L 255.648451 95.738177 
L 255.648451 94.816224 
L 256.51075 94.816224 
L 256.51075 94.355248 
L 257.337607 94.355248 
L 257.337607 93.894271 
L 257.756908 93.894271 
L 257.756908 93.433295 
L 257.930629 93.433295 
L 257.930629 92.972318 
L 258.667316 92.972318 
L 258.667316 92.050365 
L 259.329033 92.050365 
L 259.329033 91.589389 
L 259.630239 91.589389 
L 259.630239 91.128412 
L 260.346814 91.128412 
L 260.346814 90.667436 
L 262.61906 90.667436 
L 262.61906 89.284507 
L 267.31887 89.284507 
L 267.31887 88.82353 
L 267.598075 88.82353 
L 267.598075 88.362554 
L 267.806375 88.362554 
L 267.806375 87.901577 
L 267.99497 87.901577 
L 268.090998 86.057672 
L 268.678491 86.057672 
L 268.678491 85.596695 
L 268.879741 85.596695 
L 268.879741 85.135719 
L 269.471292 85.135719 
L 269.471292 84.674742 
L 270.844321 84.674742 
L 270.844321 84.213766 
L 270.959171 84.213766 
L 270.959171 83.752789 
L 273.841862 83.752789 
L 273.905652 81.447907 
L 274.369565 81.447907 
L 274.435918 80.525954 
L 275.714395 80.525954 
L 275.714395 80.064978 
L 276.386048 80.064978 
L 276.386048 79.604001 
L 277.512433 79.604001 
L 277.512433 79.143025 
L 279.57634 79.143025 
L 279.57634 78.682048 
L 280.570976 78.682048 
L 280.570976 78.221072 
L 281.46032 78.221072 
L 281.46032 77.760096 
L 283.30654 77.760096 
L 283.30654 77.299119 
L 283.934509 77.299119 
L 283.934509 76.838143 
L 287.372709 76.838143 
L 287.372709 76.377166 
L 289.103864 76.377166 
L 289.103864 75.91619 
L 292.43504 75.91619 
L 292.43504 75.455213 
L 294.119134 75.455213 
L 294.119134 74.994237 
L 295.260499 74.994237 
L 295.260499 74.53326 
L 300.361919 74.53326 
L 300.361919 74.072284 
L 308.051918 74.072284 
L 308.051918 73.611308 
L 333.429677 73.611308 
L 333.429677 73.611308 
" style="fill:none;stroke:#999999;stroke-linecap:square;stroke-width:1.5;"/>
   </g>
   <g id="line2d_48"/>
   <g id="line2d_49">
    <path d="M 0 0 
" style="fill:none;stroke:#999999;stroke-linecap:square;stroke-width:1.5;"/>
   </g>
   <g id="line2d_50">
    <path clip-path="url(#p07ae1de4f4)" d="M 254.198341 96.66013 
" style="fill:none;stroke:#999999;stroke-linecap:square;stroke-width:1.5;"/>
    <g clip-path="url(#p07ae1de4f4)">
     <use style="fill:#999999;stroke:#999999;stroke-width:3;" x="254.198341" xlink:href="#mae6318d415" y="96.66013"/>
    </g>
   </g>
   <g id="line2d_51">
    <g>
     <use style="fill:#999999;stroke:#999999;" x="320.452123" xlink:href="#m96bc5a6abf" y="147.367538"/>
     <use style="fill:#999999;stroke:#999999;" x="320.452123" xlink:href="#m96bc5a6abf" y="147.367538"/>
    </g>
   </g>
   <g id="line2d_52">
    <path d="M 161.310792 294.88 
L 161.310792 294.419024 
L 162.641167 294.419024 
L 162.661406 292.114141 
L 163.350968 292.114141 
L 163.444499 289.809259 
L 164.130626 289.809259 
L 164.130626 289.348283 
L 164.586411 289.348283 
L 164.586411 288.887306 
L 164.898116 288.887306 
L 164.935144 287.0434 
L 165.107658 287.0434 
L 165.111472 285.199495 
L 165.27997 285.199495 
L 165.27997 284.277542 
L 166.054573 284.277542 
L 166.054573 283.816565 
L 166.232 283.816565 
L 166.232 282.894612 
L 166.343123 282.894612 
L 166.343123 281.97266 
L 166.753559 281.97266 
L 166.786113 280.128754 
L 166.989048 280.128754 
L 167.094723 279.206801 
L 167.138846 279.206801 
L 167.138846 278.284848 
L 167.553457 278.284848 
L 167.580569 277.362895 
L 167.90263 277.362895 
L 167.929198 275.518989 
L 168.047929 275.518989 
L 168.103142 273.214107 
L 168.291838 273.214107 
L 168.291838 272.292154 
L 168.818166 272.292154 
L 168.818166 270.448249 
L 168.996178 270.448249 
L 168.996178 269.526296 
L 169.107792 269.526296 
L 169.107792 268.604343 
L 169.483373 268.604343 
L 169.584824 267.221413 
L 169.771413 267.221413 
L 169.771413 266.760437 
L 169.921432 266.760437 
L 169.950243 262.611649 
L 170.063864 262.611649 
L 170.142612 261.22872 
L 170.267413 261.22872 
L 170.267413 260.767743 
L 170.444544 260.767743 
L 170.526028 259.84579 
L 170.651958 259.84579 
L 170.651958 258.923837 
L 170.791782 258.923837 
L 170.899996 256.157979 
L 171.297979 256.157979 
L 171.297979 255.236026 
L 171.471714 255.236026 
L 171.502253 253.39212 
L 171.827434 253.39212 
L 171.865077 250.165285 
L 171.944733 250.165285 
L 171.944733 249.704309 
L 172.161777 249.704309 
L 172.161777 249.243332 
L 172.431531 249.243332 
L 172.507124 245.094544 
L 172.584363 245.094544 
L 172.584363 244.633568 
L 172.933034 244.633568 
L 173.034877 242.789662 
L 173.400557 242.789662 
L 173.400557 241.867709 
L 173.548791 241.867709 
L 173.628012 240.945756 
L 173.754011 240.945756 
L 173.824023 236.796968 
L 173.928509 236.796968 
L 174.026005 235.414039 
L 174.281685 235.414039 
L 174.281685 234.953062 
L 174.631705 234.953062 
L 174.631705 233.570133 
L 174.755814 233.570133 
L 174.755814 232.64818 
L 174.89632 232.64818 
L 174.89632 232.187204 
L 175.017684 232.187204 
L 175.017684 231.726227 
L 175.217651 231.726227 
L 175.217651 230.343298 
L 175.401067 230.343298 
L 175.459266 228.499392 
L 175.650888 228.499392 
L 175.73912 227.116463 
L 175.855928 227.116463 
L 175.855928 226.655487 
L 176.180436 226.655487 
L 176.190453 225.733534 
L 176.687944 225.733534 
L 176.700782 222.506699 
L 176.820531 222.506699 
L 176.820531 221.584746 
L 177.312393 221.584746 
L 177.312393 220.662793 
L 177.579776 220.662793 
L 177.579776 219.279863 
L 177.816116 219.279863 
L 177.816116 218.818887 
L 178.647142 218.818887 
L 178.714039 216.974981 
L 178.891285 216.974981 
L 178.891285 216.514005 
L 179.648209 216.514005 
L 179.648209 216.053028 
L 179.78463 216.053028 
L 179.78463 215.131075 
L 180.076015 215.131075 
L 180.076015 213.748146 
L 180.269252 213.748146 
L 180.269252 211.90424 
L 180.581808 211.90424 
L 180.581808 210.521311 
L 180.906766 210.521311 
L 180.906766 209.599358 
L 181.032389 209.599358 
L 181.032389 208.677405 
L 181.461447 208.677405 
L 181.527081 205.911547 
L 181.578413 205.911547 
L 181.579585 204.989594 
L 181.96132 204.989594 
L 181.96132 204.528617 
L 182.313733 204.528617 
L 182.313733 203.145688 
L 182.440672 203.145688 
L 182.440672 202.684712 
L 182.908657 202.684712 
L 182.908657 202.223735 
L 183.041253 202.223735 
L 183.041253 201.762759 
L 183.665214 201.762759 
L 183.665214 201.301782 
L 184.095887 201.301782 
L 184.095887 200.379829 
L 196.108336 200.379829 
L 196.108336 199.918853 
L 254.318274 199.918853 
L 254.410739 190.699324 
L 254.430916 190.699324 
L 254.488361 184.70663 
L 266.183569 184.70663 
L 266.260845 176.870031 
L 273.14754 176.870031 
L 273.192898 172.721243 
L 273.294685 172.721243 
L 273.294685 171.338313 
L 278.085155 171.338313 
L 278.113176 168.572455 
L 281.922986 168.572455 
L 281.94968 164.423667 
L 285.064308 164.423667 
L 285.067902 162.579761 
L 287.713968 162.579761 
L 287.761252 161.657808 
L 289.997222 161.657808 
L 290.006799 159.813902 
L 292.027773 159.813902 
L 292.029695 158.891949 
L 293.838222 158.891949 
L 293.838222 158.430973 
L 295.47008 158.430973 
L 295.507176 154.282185 
L 296.968631 154.282185 
L 296.972132 153.360232 
L 298.341224 153.360232 
L 298.37312 152.438279 
L 300.801486 152.438279 
L 300.801486 151.977303 
L 302.958258 151.977303 
L 302.958258 151.05535 
L 304.87048 151.05535 
L 304.87048 150.594374 
L 307.389028 150.594374 
L 307.390938 149.672421 
L 310.276057 149.672421 
L 310.276057 149.211444 
L 314.363038 149.211444 
L 314.363038 148.750468 
L 318.096017 148.750468 
L 318.096017 148.289491 
L 319.697146 148.289491 
L 319.697146 147.828515 
L 320.452123 147.828515 
L 320.452123 147.367538 
L 333.429677 147.367538 
L 333.429677 147.367538 
" style="fill:none;stroke:#999999;stroke-linecap:square;stroke-width:1.5;"/>
   </g>
   <g id="line2d_53"/>
   <g id="line2d_54">
    <path d="M 0 0 
" style="fill:none;stroke:#999999;stroke-linecap:square;stroke-width:1.5;"/>
   </g>
   <g id="line2d_55">
    <path clip-path="url(#p07ae1de4f4)" d="M 254.198345 199.918853 
" style="fill:none;stroke:#999999;stroke-linecap:square;stroke-width:1.5;"/>
    <g clip-path="url(#p07ae1de4f4)">
     <use style="fill:#999999;stroke:#999999;stroke-width:3;" x="254.198345" xlink:href="#mae6318d415" y="199.918853"/>
    </g>
   </g>
   <g id="line2d_56">
    <g>
     <use style="fill:#999999;stroke:#999999;" x="322.955382" xlink:href="#m96bc5a6abf" y="151.977303"/>
     <use style="fill:#999999;stroke:#999999;" x="322.955382" xlink:href="#m96bc5a6abf" y="151.977303"/>
    </g>
   </g>
   <g id="line2d_57">
    <path d="M 149.287982 294.88 
L 149.287982 294.419024 
L 150.433361 294.419024 
L 150.433361 293.958047 
L 151.312723 293.958047 
L 151.312723 293.497071 
L 152.144455 293.497071 
L 152.144455 293.036094 
L 152.625484 293.036094 
L 152.625484 292.575118 
L 153.671025 292.575118 
L 153.671025 292.114141 
L 153.98405 292.114141 
L 153.98405 291.653165 
L 154.504732 291.653165 
L 154.504732 290.731212 
L 154.846071 290.731212 
L 154.846071 290.270236 
L 155.014234 290.270236 
L 155.014234 289.809259 
L 155.590188 289.809259 
L 155.590188 288.887306 
L 155.840397 288.887306 
L 155.840397 288.42633 
L 156.065097 288.42633 
L 156.065097 286.582424 
L 156.765524 286.582424 
L 156.864353 285.199495 
L 157.042047 285.199495 
L 157.099252 284.277542 
L 157.833105 284.277542 
L 157.833105 282.894612 
L 158.060972 282.894612 
L 158.060972 281.97266 
L 158.269975 281.97266 
L 158.269975 281.050707 
L 158.424797 281.050707 
L 158.424797 280.58973 
L 158.70267 280.58973 
L 158.70267 280.128754 
L 158.871211 280.128754 
L 158.871211 279.667777 
L 159.582009 279.667777 
L 159.678506 278.284848 
L 160.581124 278.284848 
L 160.614835 276.901919 
L 161.304132 276.901919 
L 161.304132 275.979966 
L 161.866772 275.979966 
L 161.866772 275.518989 
L 162.374075 275.518989 
L 162.374075 275.058013 
L 162.521001 275.058013 
L 162.528979 273.214107 
L 162.81114 273.214107 
L 162.81114 272.753131 
L 163.478079 272.753131 
L 163.478079 272.292154 
L 163.662438 272.292154 
L 163.662438 271.831178 
L 164.601346 271.831178 
L 164.641369 269.987272 
L 165.938656 269.987272 
L 165.963354 267.221413 
L 166.566044 267.221413 
L 166.566044 265.838484 
L 166.691745 265.838484 
L 166.691745 264.916531 
L 166.929448 264.916531 
L 166.929448 263.994578 
L 167.24226 263.994578 
L 167.24226 263.072625 
L 167.445244 263.072625 
L 167.445244 262.150673 
L 167.566027 262.150673 
L 167.566027 261.22872 
L 167.728602 261.22872 
L 167.728602 260.306767 
L 167.988021 260.306767 
L 167.988021 259.384814 
L 168.403061 259.384814 
L 168.403061 258.923837 
L 168.875257 258.923837 
L 168.875257 258.462861 
L 169.030224 258.462861 
L 169.099325 257.079932 
L 169.198249 257.079932 
L 169.198249 255.236026 
L 169.386079 255.236026 
L 169.386079 253.853097 
L 169.813829 253.853097 
L 169.813829 253.39212 
L 170.426633 253.39212 
L 170.426633 252.009191 
L 170.644218 252.009191 
L 170.644218 251.548214 
L 170.943526 251.548214 
L 170.943526 250.165285 
L 171.204563 250.165285 
L 171.204563 249.704309 
L 171.64632 249.704309 
L 171.64632 248.782356 
L 171.760193 248.782356 
L 171.760193 248.321379 
L 172.093292 248.321379 
L 172.093292 247.399426 
L 172.575468 247.399426 
L 172.575468 246.477474 
L 173.12272 246.477474 
L 173.190574 244.633568 
L 173.305126 244.633568 
L 173.305126 242.789662 
L 173.933534 242.789662 
L 173.933534 242.328686 
L 174.10442 242.328686 
L 174.179328 240.023803 
L 174.321029 240.023803 
L 174.321029 239.10185 
L 174.441628 239.10185 
L 174.441628 238.640874 
L 174.569312 238.640874 
L 174.569312 238.179898 
L 175.363279 238.179898 
L 175.363279 237.718921 
L 175.652128 237.718921 
L 175.652128 236.796968 
L 176.051285 236.796968 
L 176.051285 236.335992 
L 176.291507 236.335992 
L 176.291507 235.875015 
L 176.511522 235.875015 
L 176.511522 234.953062 
L 177.342392 234.953062 
L 177.342392 234.492086 
L 177.55981 234.492086 
L 177.55981 233.570133 
L 177.795328 233.570133 
L 177.839427 230.343298 
L 178.178573 230.343298 
L 178.178573 229.882322 
L 179.171133 229.882322 
L 179.171133 229.421345 
L 179.53974 229.421345 
L 179.53974 228.960369 
L 180.029929 228.960369 
L 180.029929 228.499392 
L 180.222096 228.499392 
L 180.256289 226.19451 
L 180.71105 226.19451 
L 180.71105 225.272557 
L 181.34368 225.272557 
L 181.400297 224.350604 
L 181.829049 224.350604 
L 181.829049 223.889628 
L 183.245828 223.889628 
L 183.245828 223.428651 
L 183.43144 223.428651 
L 183.43144 222.967675 
L 183.737961 222.967675 
L 183.737961 222.506699 
L 185.21333 222.506699 
L 185.21333 221.123769 
L 188.140577 221.123769 
L 188.140577 220.662793 
L 190.028072 220.662793 
L 190.028072 220.201816 
L 193.177342 220.201816 
L 193.177342 218.357911 
L 200.922655 218.357911 
L 200.922655 217.896934 
L 205.05023 217.896934 
L 205.090007 216.514005 
L 207.649122 216.514005 
L 207.649122 215.592052 
L 209.869171 215.592052 
L 209.869171 214.209123 
L 215.210911 214.209123 
L 215.210911 213.748146 
L 225.359655 213.748146 
L 225.359655 212.365217 
L 226.790926 212.365217 
L 226.790926 211.90424 
L 236.712341 211.90424 
L 236.712341 211.443264 
L 237.92208 211.443264 
L 237.92208 210.982287 
L 238.450835 210.982287 
L 238.450835 209.138382 
L 240.297343 209.138382 
L 240.297343 208.677405 
L 250.419218 208.677405 
L 250.419218 208.216429 
L 253.090965 208.216429 
L 253.090965 207.294476 
L 254.292276 207.294476 
L 254.383166 201.301782 
L 254.404463 201.301782 
L 254.507649 198.074947 
L 255.009579 198.074947 
L 255.009579 197.152994 
L 255.311376 197.152994 
L 255.311376 196.692018 
L 255.780415 196.692018 
L 255.780415 196.231041 
L 255.896214 196.231041 
L 255.896214 194.848112 
L 256.252681 194.848112 
L 256.252681 194.387136 
L 257.148988 194.387136 
L 257.148988 193.465183 
L 258.386194 193.465183 
L 258.386194 193.004206 
L 259.512811 193.004206 
L 259.512811 192.082253 
L 259.842678 192.082253 
L 259.842678 191.621277 
L 259.992207 191.621277 
L 259.992207 190.238348 
L 265.579067 190.238348 
L 265.579067 189.777371 
L 266.184662 189.777371 
L 266.263975 185.167607 
L 266.329064 185.167607 
L 266.329064 183.784677 
L 266.933063 183.784677 
L 266.99372 182.401748 
L 267.181662 182.401748 
L 267.181662 181.940772 
L 268.344882 181.940772 
L 268.344882 181.479795 
L 268.985472 181.479795 
L 268.985472 181.018819 
L 269.263527 181.018819 
L 269.263527 180.096866 
L 269.585636 180.096866 
L 269.585636 179.635889 
L 273.155259 179.635889 
L 273.236904 177.331007 
L 273.426994 177.331007 
L 273.426994 176.870031 
L 273.684595 176.870031 
L 273.684595 176.409054 
L 275.255256 176.409054 
L 275.255256 175.026125 
L 278.095746 175.026125 
L 278.101116 174.104172 
L 278.255777 174.104172 
L 278.255777 173.643196 
L 278.489786 173.643196 
L 278.586389 171.338313 
L 279.195685 171.338313 
L 279.195685 170.877337 
L 281.917601 170.877337 
L 281.970889 169.494408 
L 282.319469 169.494408 
L 282.319469 169.033431 
L 285.056269 169.033431 
L 285.163217 167.189525 
L 285.79797 167.189525 
L 285.79797 166.267573 
L 286.136776 166.267573 
L 286.136776 165.34562 
L 287.698254 165.34562 
L 287.721997 163.501714 
L 287.986395 163.501714 
L 287.986395 163.040737 
L 290.000759 163.040737 
L 290.000759 162.579761 
L 290.245471 162.579761 
L 290.245471 162.118785 
L 292.019799 162.118785 
L 292.019799 161.657808 
L 292.198441 161.657808 
L 292.198441 161.196832 
L 293.836442 161.196832 
L 293.836442 160.735855 
L 295.479375 160.735855 
L 295.479375 160.274879 
L 295.651043 160.274879 
L 295.651043 159.813902 
L 295.879549 159.813902 
L 295.879549 159.352926 
L 296.068939 159.352926 
L 296.068939 158.891949 
L 298.391734 158.891949 
L 298.391734 158.430973 
L 300.808736 158.430973 
L 300.810781 157.50902 
L 300.934843 157.50902 
L 300.934843 157.048044 
L 301.243218 157.048044 
L 301.243218 156.587067 
L 302.325615 156.587067 
L 302.325615 156.126091 
L 304.971485 156.126091 
L 304.971485 155.665114 
L 305.215825 155.665114 
L 305.215825 155.204138 
L 305.750736 155.204138 
L 305.848274 154.282185 
L 308.153858 154.282185 
L 308.153858 153.821209 
L 314.875506 153.821209 
L 314.875506 152.899256 
L 322.636175 152.899256 
L 322.636175 152.438279 
L 322.955382 152.438279 
L 322.955382 151.977303 
L 333.429677 151.977303 
L 333.429677 151.977303 
" style="fill:none;stroke:#999999;stroke-linecap:square;stroke-width:1.5;"/>
   </g>
   <g id="line2d_58"/>
   <g id="line2d_59">
    <path d="M 0 0 
" style="fill:none;stroke:#999999;stroke-linecap:square;stroke-width:1.5;"/>
   </g>
   <g id="line2d_60">
    <path clip-path="url(#p07ae1de4f4)" d="M 254.198345 207.294476 
" style="fill:none;stroke:#999999;stroke-linecap:square;stroke-width:1.5;"/>
    <g clip-path="url(#p07ae1de4f4)">
     <use style="fill:#999999;stroke:#999999;stroke-width:3;" x="254.198345" xlink:href="#mae6318d415" y="207.294476"/>
    </g>
   </g>
   <g id="line2d_61">
    <path d="M 333.429677 294.88 
L 333.429677 27.513663 
" style="fill:none;stroke:#000000;stroke-linecap:square;stroke-width:1.5;"/>
   </g>
   <g id="patch_3">
    <path d="M 56.12 294.88 
L 56.12 24.84 
" style="fill:none;stroke:#000000;stroke-linecap:square;stroke-linejoin:miter;stroke-width:0.8;"/>
   </g>
   <g id="patch_4">
    <path d="M 399.984 294.88 
L 399.984 24.84 
" style="fill:none;stroke:#000000;stroke-linecap:square;stroke-linejoin:miter;stroke-width:0.8;"/>
   </g>
   <g id="patch_5">
    <path d="M 56.12 294.88 
L 399.984 294.88 
" style="fill:none;stroke:#000000;stroke-linecap:square;stroke-linejoin:miter;stroke-width:0.8;"/>
   </g>
   <g id="patch_6">
    <path d="M 56.12 24.84 
L 399.984 24.84 
" style="fill:none;stroke:#000000;stroke-linecap:square;stroke-linejoin:miter;stroke-width:0.8;"/>
   </g>
   <g id="text_14">
    <!-- best 2016 -->
    <defs>
     <path d="M 48.6875 27.296875 
Q 48.6875 37.203125 44.609375 42.84375 
Q 40.53125 48.484375 33.40625 48.484375 
Q 26.265625 48.484375 22.1875 42.84375 
Q 18.109375 37.203125 18.109375 27.296875 
Q 18.109375 17.390625 22.1875 11.75 
Q 26.265625 6.109375 33.40625 6.109375 
Q 40.53125 6.109375 44.609375 11.75 
Q 48.6875 17.390625 48.6875 27.296875 
z
M 18.109375 46.390625 
Q 20.953125 51.265625 25.265625 53.625 
Q 29.59375 56 35.59375 56 
Q 45.5625 56 51.78125 48.09375 
Q 58.015625 40.1875 58.015625 27.296875 
Q 58.015625 14.40625 51.78125 6.484375 
Q 45.5625 -1.421875 35.59375 -1.421875 
Q 29.59375 -1.421875 25.265625 0.953125 
Q 20.953125 3.328125 18.109375 8.203125 
L 18.109375 0 
L 9.078125 0 
L 9.078125 75.984375 
L 18.109375 75.984375 
z
" id="DejaVuSans-62"/>
    </defs>
    <g transform="translate(369.479935 294.223611)scale(0.17 -0.17)">
     <use xlink:href="#DejaVuSans-62"/>
     <use x="63.476562" xlink:href="#DejaVuSans-65"/>
     <use x="125" xlink:href="#DejaVuSans-73"/>
     <use x="177.099609" xlink:href="#DejaVuSans-74"/>
     <use x="216.308594" xlink:href="#DejaVuSans-20"/>
     <use x="248.095703" xlink:href="#DejaVuSans-32"/>
     <use x="311.71875" xlink:href="#DejaVuSans-30"/>
     <use x="375.341797" xlink:href="#DejaVuSans-31"/>
     <use x="438.964844" xlink:href="#DejaVuSans-36"/>
    </g>
   </g>
   <g id="text_15">
    <!-- bbob-biobj f26, 40-D -->
    <defs>
     <path d="M 9.421875 54.6875 
L 18.40625 54.6875 
L 18.40625 -0.984375 
Q 18.40625 -11.421875 14.421875 -16.109375 
Q 10.453125 -20.796875 1.609375 -20.796875 
L -1.8125 -20.796875 
L -1.8125 -13.1875 
L 0.59375 -13.1875 
Q 5.71875 -13.1875 7.5625 -10.8125 
Q 9.421875 -8.453125 9.421875 -0.984375 
z
M 9.421875 75.984375 
L 18.40625 75.984375 
L 18.40625 64.59375 
L 9.421875 64.59375 
z
" id="DejaVuSans-6a"/>
     <path d="M 19.671875 64.796875 
L 19.671875 8.109375 
L 31.59375 8.109375 
Q 46.6875 8.109375 53.6875 14.9375 
Q 60.6875 21.78125 60.6875 36.53125 
Q 60.6875 51.171875 53.6875 57.984375 
Q 46.6875 64.796875 31.59375 64.796875 
z
M 9.8125 72.90625 
L 30.078125 72.90625 
Q 51.265625 72.90625 61.171875 64.09375 
Q 71.09375 55.28125 71.09375 36.53125 
Q 71.09375 17.671875 61.125 8.828125 
Q 51.171875 0 30.078125 0 
L 9.8125 0 
z
" id="DejaVuSans-44"/>
    </defs>
    <g transform="translate(59.55864 35.290806)scale(0.102 -0.102)">
     <use xlink:href="#DejaVuSans-62"/>
     <use x="63.476562" xlink:href="#DejaVuSans-62"/>
     <use x="126.953125" xlink:href="#DejaVuSans-6f"/>
     <use x="188.134766" xlink:href="#DejaVuSans-62"/>
     <use x="251.611328" xlink:href="#DejaVuSans-2d"/>
     <use x="287.695312" xlink:href="#DejaVuSans-62"/>
     <use x="351.171875" xlink:href="#DejaVuSans-69"/>
     <use x="378.955078" xlink:href="#DejaVuSans-6f"/>
     <use x="440.136719" xlink:href="#DejaVuSans-62"/>
     <use x="503.613281" xlink:href="#DejaVuSans-6a"/>
     <use x="531.396484" xlink:href="#DejaVuSans-20"/>
     <use x="563.183594" xlink:href="#DejaVuSans-66"/>
     <use x="598.388672" xlink:href="#DejaVuSans-32"/>
     <use x="662.011719" xlink:href="#DejaVuSans-36"/>
     <use x="725.634766" xlink:href="#DejaVuSans-2c"/>
     <use x="757.421875" xlink:href="#DejaVuSans-20"/>
     <use x="789.208984" xlink:href="#DejaVuSans-34"/>
     <use x="852.832031" xlink:href="#DejaVuSans-30"/>
     <use x="916.455078" xlink:href="#DejaVuSans-2d"/>
     <use x="952.539062" xlink:href="#DejaVuSans-44"/>
    </g>
    <!-- 58 targets: 1..-1.0e-4 -->
    <defs>
     <path d="M 10.796875 72.90625 
L 49.515625 72.90625 
L 49.515625 64.59375 
L 19.828125 64.59375 
L 19.828125 46.734375 
Q 21.96875 47.46875 24.109375 47.828125 
Q 26.265625 48.1875 28.421875 48.1875 
Q 40.625 48.1875 47.75 41.5 
Q 54.890625 34.8125 54.890625 23.390625 
Q 54.890625 11.625 47.5625 5.09375 
Q 40.234375 -1.421875 26.90625 -1.421875 
Q 22.3125 -1.421875 17.546875 -0.640625 
Q 12.796875 0.140625 7.71875 1.703125 
L 7.71875 11.625 
Q 12.109375 9.234375 16.796875 8.0625 
Q 21.484375 6.890625 26.703125 6.890625 
Q 35.15625 6.890625 40.078125 11.328125 
Q 45.015625 15.765625 45.015625 23.390625 
Q 45.015625 31 40.078125 35.4375 
Q 35.15625 39.890625 26.703125 39.890625 
Q 22.75 39.890625 18.8125 39.015625 
Q 14.890625 38.140625 10.796875 36.28125 
z
" id="DejaVuSans-35"/>
     <path d="M 11.71875 12.40625 
L 22.015625 12.40625 
L 22.015625 0 
L 11.71875 0 
z
M 11.71875 51.703125 
L 22.015625 51.703125 
L 22.015625 39.3125 
L 11.71875 39.3125 
z
" id="DejaVuSans-3a"/>
    </defs>
    <g transform="translate(59.55864 46.712575)scale(0.102 -0.102)">
     <use xlink:href="#DejaVuSans-35"/>
     <use x="63.623047" xlink:href="#DejaVuSans-38"/>
     <use x="127.246094" xlink:href="#DejaVuSans-20"/>
     <use x="159.033203" xlink:href="#DejaVuSans-74"/>
     <use x="198.242188" xlink:href="#DejaVuSans-61"/>
     <use x="259.521484" xlink:href="#DejaVuSans-72"/>
     <use x="300.619141" xlink:href="#DejaVuSans-67"/>
     <use x="364.095703" xlink:href="#DejaVuSans-65"/>
     <use x="425.619141" xlink:href="#DejaVuSans-74"/>
     <use x="464.828125" xlink:href="#DejaVuSans-73"/>
     <use x="516.927734" xlink:href="#DejaVuSans-3a"/>
     <use x="550.619141" xlink:href="#DejaVuSans-20"/>
     <use x="582.40625" xlink:href="#DejaVuSans-31"/>
     <use x="646.029297" xlink:href="#DejaVuSans-2e"/>
     <use x="677.816406" xlink:href="#DejaVuSans-2e"/>
     <use x="709.603516" xlink:href="#DejaVuSans-2d"/>
     <use x="745.6875" xlink:href="#DejaVuSans-31"/>
     <use x="809.310547" xlink:href="#DejaVuSans-2e"/>
     <use x="841.097656" xlink:href="#DejaVuSans-30"/>
     <use x="904.720703" xlink:href="#DejaVuSans-65"/>
     <use x="966.244141" xlink:href="#DejaVuSans-2d"/>
     <use x="1002.328125" xlink:href="#DejaVuSans-34"/>
    </g>
    <!-- 10 instances -->
    <g transform="translate(59.55864 58.134344)scale(0.102 -0.102)">
     <use xlink:href="#DejaVuSans-31"/>
     <use x="63.623047" xlink:href="#DejaVuSans-30"/>
     <use x="127.246094" xlink:href="#DejaVuSans-20"/>
     <use x="159.033203" xlink:href="#DejaVuSans-69"/>
     <use x="186.816406" xlink:href="#DejaVuSans-6e"/>
     <use x="250.195312" xlink:href="#DejaVuSans-73"/>
     <use x="302.294922" xlink:href="#DejaVuSans-74"/>
     <use x="341.503906" xlink:href="#DejaVuSans-61"/>
     <use x="402.783203" xlink:href="#DejaVuSans-6e"/>
     <use x="466.162109" xlink:href="#DejaVuSans-63"/>
     <use x="521.142578" xlink:href="#DejaVuSans-65"/>
     <use x="582.666016" xlink:href="#DejaVuSans-73"/>
    </g>
   </g>
   <g id="text_16">
    <!-- v2.0.778, hv-hash=ff0e71e8cd978373 -->
    <defs>
     <path d="M 8.203125 72.90625 
L 55.078125 72.90625 
L 55.078125 68.703125 
L 28.609375 0 
L 18.3125 0 
L 43.21875 64.59375 
L 8.203125 64.59375 
z
" id="DejaVuSans-37"/>
     <path d="M 54.890625 33.015625 
L 54.890625 0 
L 45.90625 0 
L 45.90625 32.71875 
Q 45.90625 40.484375 42.875 44.328125 
Q 39.84375 48.1875 33.796875 48.1875 
Q 26.515625 48.1875 22.3125 43.546875 
Q 18.109375 38.921875 18.109375 30.90625 
L 18.109375 0 
L 9.078125 0 
L 9.078125 75.984375 
L 18.109375 75.984375 
L 18.109375 46.1875 
Q 21.34375 51.125 25.703125 53.5625 
Q 30.078125 56 35.796875 56 
Q 45.21875 56 50.046875 50.171875 
Q 54.890625 44.34375 54.890625 33.015625 
z
" id="DejaVuSans-68"/>
     <path d="M 10.59375 45.40625 
L 73.1875 45.40625 
L 73.1875 37.203125 
L 10.59375 37.203125 
z
M 10.59375 25.484375 
L 73.1875 25.484375 
L 73.1875 17.1875 
L 10.59375 17.1875 
z
" id="DejaVuSans-3d"/>
     <path d="M 10.984375 1.515625 
L 10.984375 10.5 
Q 14.703125 8.734375 18.5 7.8125 
Q 22.3125 6.890625 25.984375 6.890625 
Q 35.75 6.890625 40.890625 13.453125 
Q 46.046875 20.015625 46.78125 33.40625 
Q 43.953125 29.203125 39.59375 26.953125 
Q 35.25 24.703125 29.984375 24.703125 
Q 19.046875 24.703125 12.671875 31.3125 
Q 6.296875 37.9375 6.296875 49.421875 
Q 6.296875 60.640625 12.9375 67.421875 
Q 19.578125 74.21875 30.609375 74.21875 
Q 43.265625 74.21875 49.921875 64.515625 
Q 56.59375 54.828125 56.59375 36.375 
Q 56.59375 19.140625 48.40625 8.859375 
Q 40.234375 -1.421875 26.421875 -1.421875 
Q 22.703125 -1.421875 18.890625 -0.6875 
Q 15.09375 0.046875 10.984375 1.515625 
z
M 30.609375 32.421875 
Q 37.25 32.421875 41.125 36.953125 
Q 45.015625 41.5 45.015625 49.421875 
Q 45.015625 57.28125 41.125 61.84375 
Q 37.25 66.40625 30.609375 66.40625 
Q 23.96875 66.40625 20.09375 61.84375 
Q 16.21875 57.28125 16.21875 49.421875 
Q 16.21875 41.5 20.09375 36.953125 
Q 23.96875 32.421875 30.609375 32.421875 
z
" id="DejaVuSans-39"/>
     <path d="M 40.578125 39.3125 
Q 47.65625 37.796875 51.625 33 
Q 55.609375 28.21875 55.609375 21.1875 
Q 55.609375 10.40625 48.1875 4.484375 
Q 40.765625 -1.421875 27.09375 -1.421875 
Q 22.515625 -1.421875 17.65625 -0.515625 
Q 12.796875 0.390625 7.625 2.203125 
L 7.625 11.71875 
Q 11.71875 9.328125 16.59375 8.109375 
Q 21.484375 6.890625 26.8125 6.890625 
Q 36.078125 6.890625 40.9375 10.546875 
Q 45.796875 14.203125 45.796875 21.1875 
Q 45.796875 27.640625 41.28125 31.265625 
Q 36.765625 34.90625 28.71875 34.90625 
L 20.21875 34.90625 
L 20.21875 43.015625 
L 29.109375 43.015625 
Q 36.375 43.015625 40.234375 45.921875 
Q 44.09375 48.828125 44.09375 54.296875 
Q 44.09375 59.90625 40.109375 62.90625 
Q 36.140625 65.921875 28.71875 65.921875 
Q 24.65625 65.921875 20.015625 65.03125 
Q 15.375 64.15625 9.8125 62.3125 
L 9.8125 71.09375 
Q 15.4375 72.65625 20.34375 73.4375 
Q 25.25 74.21875 29.59375 74.21875 
Q 40.828125 74.21875 47.359375 69.109375 
Q 53.90625 64.015625 53.90625 55.328125 
Q 53.90625 49.265625 50.4375 45.09375 
Q 46.96875 40.921875 40.578125 39.3125 
z
" id="DejaVuSans-33"/>
    </defs>
    <g style="fill:#808080;" transform="translate(131.294188 290.099912)scale(0.1 -0.1)">
     <use xlink:href="#DejaVuSans-76"/>
     <use x="59.179688" xlink:href="#DejaVuSans-32"/>
     <use x="122.802734" xlink:href="#DejaVuSans-2e"/>
     <use x="154.589844" xlink:href="#DejaVuSans-30"/>
     <use x="218.212891" xlink:href="#DejaVuSans-2e"/>
     <use x="250" xlink:href="#DejaVuSans-37"/>
     <use x="313.623047" xlink:href="#DejaVuSans-37"/>
     <use x="377.246094" xlink:href="#DejaVuSans-38"/>
     <use x="440.869141" xlink:href="#DejaVuSans-2c"/>
     <use x="472.65625" xlink:href="#DejaVuSans-20"/>
     <use x="504.443359" xlink:href="#DejaVuSans-68"/>
     <use x="567.822266" xlink:href="#DejaVuSans-76"/>
     <use x="626.970703" xlink:href="#DejaVuSans-2d"/>
     <use x="663.054688" xlink:href="#DejaVuSans-68"/>
     <use x="726.433594" xlink:href="#DejaVuSans-61"/>
     <use x="787.712891" xlink:href="#DejaVuSans-73"/>
     <use x="839.8125" xlink:href="#DejaVuSans-68"/>
     <use x="903.191406" xlink:href="#DejaVuSans-3d"/>
     <use x="986.980469" xlink:href="#DejaVuSans-66"/>
     <use x="1022.185547" xlink:href="#DejaVuSans-66"/>
     <use x="1057.390625" xlink:href="#DejaVuSans-30"/>
     <use x="1121.013672" xlink:href="#DejaVuSans-65"/>
     <use x="1182.537109" xlink:href="#DejaVuSans-37"/>
     <use x="1246.160156" xlink:href="#DejaVuSans-31"/>
     <use x="1309.783203" xlink:href="#DejaVuSans-65"/>
     <use x="1371.306641" xlink:href="#DejaVuSans-38"/>
     <use x="1434.929688" xlink:href="#DejaVuSans-63"/>
     <use x="1489.910156" xlink:href="#DejaVuSans-64"/>
     <use x="1553.386719" xlink:href="#DejaVuSans-39"/>
     <use x="1617.009766" xlink:href="#DejaVuSans-37"/>
     <use x="1680.632812" xlink:href="#DejaVuSans-38"/>
     <use x="1744.255859" xlink:href="#DejaVuSans-33"/>
     <use x="1807.878906" xlink:href="#DejaVuSans-37"/>
     <use x="1871.501953" xlink:href="#DejaVuSans-33"/>
    </g>
   </g>
   <g id="text_17">
    <!-- 26 Attractive sector/Schwefel -->
    <defs>
     <path d="M 34.1875 63.1875 
L 20.796875 26.90625 
L 47.609375 26.90625 
z
M 28.609375 72.90625 
L 39.796875 72.90625 
L 67.578125 0 
L 57.328125 0 
L 50.6875 18.703125 
L 17.828125 18.703125 
L 11.1875 0 
L 0.78125 0 
z
" id="DejaVuSans-41"/>
     <path d="M 53.515625 70.515625 
L 53.515625 60.890625 
Q 47.90625 63.578125 42.921875 64.890625 
Q 37.9375 66.21875 33.296875 66.21875 
Q 25.25 66.21875 20.875 63.09375 
Q 16.5 59.96875 16.5 54.203125 
Q 16.5 49.359375 19.40625 46.890625 
Q 22.3125 44.4375 30.421875 42.921875 
L 36.375 41.703125 
Q 47.40625 39.59375 52.65625 34.296875 
Q 57.90625 29 57.90625 20.125 
Q 57.90625 9.515625 50.796875 4.046875 
Q 43.703125 -1.421875 29.984375 -1.421875 
Q 24.8125 -1.421875 18.96875 -0.25 
Q 13.140625 0.921875 6.890625 3.21875 
L 6.890625 13.375 
Q 12.890625 10.015625 18.65625 8.296875 
Q 24.421875 6.59375 29.984375 6.59375 
Q 38.421875 6.59375 43.015625 9.90625 
Q 47.609375 13.234375 47.609375 19.390625 
Q 47.609375 24.75 44.3125 27.78125 
Q 41.015625 30.8125 33.5 32.328125 
L 27.484375 33.5 
Q 16.453125 35.6875 11.515625 40.375 
Q 6.59375 45.0625 6.59375 53.421875 
Q 6.59375 63.09375 13.40625 68.65625 
Q 20.21875 74.21875 32.171875 74.21875 
Q 37.3125 74.21875 42.625 73.28125 
Q 47.953125 72.359375 53.515625 70.515625 
z
" id="DejaVuSans-53"/>
     <path d="M 4.203125 54.6875 
L 13.1875 54.6875 
L 24.421875 12.015625 
L 35.59375 54.6875 
L 46.1875 54.6875 
L 57.421875 12.015625 
L 68.609375 54.6875 
L 77.59375 54.6875 
L 63.28125 0 
L 52.6875 0 
L 40.921875 44.828125 
L 29.109375 0 
L 18.5 0 
z
" id="DejaVuSans-77"/>
    </defs>
    <g transform="translate(80.436375 18.84)scale(0.2 -0.2)">
     <use xlink:href="#DejaVuSans-32"/>
     <use x="63.623047" xlink:href="#DejaVuSans-36"/>
     <use x="127.246094" xlink:href="#DejaVuSans-20"/>
     <use x="159.033203" xlink:href="#DejaVuSans-41"/>
     <use x="227.425781" xlink:href="#DejaVuSans-74"/>
     <use x="266.634766" xlink:href="#DejaVuSans-74"/>
     <use x="305.84375" xlink:href="#DejaVuSans-72"/>
     <use x="346.957031" xlink:href="#DejaVuSans-61"/>
     <use x="408.236328" xlink:href="#DejaVuSans-63"/>
     <use x="463.216797" xlink:href="#DejaVuSans-74"/>
     <use x="502.425781" xlink:href="#DejaVuSans-69"/>
     <use x="530.208984" xlink:href="#DejaVuSans-76"/>
     <use x="589.388672" xlink:href="#DejaVuSans-65"/>
     <use x="650.912109" xlink:href="#DejaVuSans-20"/>
     <use x="682.699219" xlink:href="#DejaVuSans-73"/>
     <use x="734.798828" xlink:href="#DejaVuSans-65"/>
     <use x="796.322266" xlink:href="#DejaVuSans-63"/>
     <use x="851.302734" xlink:href="#DejaVuSans-74"/>
     <use x="890.511719" xlink:href="#DejaVuSans-6f"/>
     <use x="951.693359" xlink:href="#DejaVuSans-72"/>
     <use x="992.806641" xlink:href="#DejaVuSans-2f"/>
     <use x="1026.498047" xlink:href="#DejaVuSans-53"/>
     <use x="1089.974609" xlink:href="#DejaVuSans-63"/>
     <use x="1144.955078" xlink:href="#DejaVuSans-68"/>
     <use x="1208.333984" xlink:href="#DejaVuSans-77"/>
     <use x="1290.121094" xlink:href="#DejaVuSans-65"/>
     <use x="1351.644531" xlink:href="#DejaVuSans-66"/>
     <use x="1386.849609" xlink:href="#DejaVuSans-65"/>
     <use x="1448.373047" xlink:href="#DejaVuSans-6c"/>
    </g>
   </g>
  </g>
 </g>
 <defs>
  <clipPath id="p07ae1de4f4">
   <rect height="270.04" width="343.864" x="56.12" y="24.84"/>
  </clipPath>
 </defs>
</svg>
