<?xml version="1.0" encoding="utf-8" standalone="no"?>
<!DOCTYPE svg PUBLIC "-//W3C//DTD SVG 1.1//EN"
  "http://www.w3.org/Graphics/SVG/1.1/DTD/svg11.dtd">
<!-- Created with matplotlib (http://matplotlib.org/) -->
<svg height="345pt" version="1.1" viewBox="0 0 460 345" width="460pt" xmlns="http://www.w3.org/2000/svg" xmlns:xlink="http://www.w3.org/1999/xlink">
 <defs>
  <style type="text/css">
*{stroke-linecap:butt;stroke-linejoin:round;}
  </style>
 </defs>
 <g id="figure_1">
  <g id="patch_1">
   <path d="M 0 345.6 
L 460.8 345.6 
L 460.8 0 
L 0 0 
z
" style="fill:#ffffff;"/>
  </g>
  <g id="axes_1">
   <g id="patch_2">
    <path d="M 56.12 294.88 
L 399.984 294.88 
L 399.984 24.84 
L 56.12 24.84 
z
" style="fill:#ffffff;"/>
   </g>
   <g id="line2d_1">
    <path d="M 11.5548 294.88 
L 11.5548 290.270236 
L 68.045504 290.270236 
L 68.045504 281.050707 
L 116.13297 281.050707 
L 116.13297 271.831178 
L 139.835475 271.831178 
L 139.835475 267.221413 
L 143.767842 267.221413 
L 143.767842 253.39212 
L 150.513729 253.39212 
L 150.513729 244.172591 
L 201.096091 244.172591 
L 201.096091 239.562827 
L 222.264313 239.562827 
L 222.264313 230.343298 
L 233.634208 230.343298 
L 233.634208 216.514005 
L 248.260825 216.514005 
L 248.260825 207.294476 
L 256.02089 207.294476 
L 256.02089 198.074947 
L 281.588513 198.074947 
L 281.588513 188.855418 
L 333.429677 188.855418 
" style="fill:none;stroke:#f5deb3;stroke-linecap:square;stroke-width:6;"/>
   </g>
   <g id="line2d_2">
    <path d="M 0 0 
" style="fill:none;stroke:#f5deb3;stroke-linecap:square;stroke-width:6;"/>
    <defs>
     <path d="M -0 7.778175 
L 7.778175 0 
L 0 -7.778175 
L -7.778175 -0 
z
" id="m6ef4d05692" style="stroke:#f5deb3;stroke-linejoin:miter;stroke-width:1.5;"/>
    </defs>
    <g>
     <use style="fill:#f5deb3;stroke:#f5deb3;stroke-linejoin:miter;stroke-width:1.5;" x="0" xlink:href="#m6ef4d05692" y="0"/>
    </g>
   </g>
   <g id="line2d_3">
    <path d="M 333.429677 188.855418 
L 363.933742 289.532673 
" style="fill:none;stroke:#f5deb3;stroke-linecap:square;stroke-width:6;"/>
    <g>
     <use style="fill:#f5deb3;stroke:#f5deb3;stroke-linejoin:miter;stroke-width:1.5;" x="333.429677" xlink:href="#m6ef4d05692" y="188.855418"/>
     <use style="fill:#f5deb3;stroke:#f5deb3;stroke-linejoin:miter;stroke-width:1.5;" x="363.933742" xlink:href="#m6ef4d05692" y="289.532673"/>
    </g>
   </g>
   <g id="matplotlib.axis_1">
    <g id="xtick_1">
     <g id="line2d_4">
      <path clip-path="url(#pba0c70d291)" d="M 56.12 294.88 
L 56.12 24.84 
" style="fill:none;stroke:#b0b0b0;stroke-linecap:square;stroke-width:0.8;"/>
     </g>
     <g id="line2d_5">
      <defs>
       <path d="M 0 0 
L 0 3.5 
" id="mecbb744172" style="stroke:#000000;stroke-width:0.8;"/>
      </defs>
      <g>
       <use style="stroke:#000000;stroke-width:0.8;" x="56.12" xlink:href="#mecbb744172" y="294.88"/>
      </g>
     </g>
     <g id="text_1">
      <!-- 0 -->
      <defs>
       <path d="M 31.78125 66.40625 
Q 24.171875 66.40625 20.328125 58.90625 
Q 16.5 51.421875 16.5 36.375 
Q 16.5 21.390625 20.328125 13.890625 
Q 24.171875 6.390625 31.78125 6.390625 
Q 39.453125 6.390625 43.28125 13.890625 
Q 47.125 21.390625 47.125 36.375 
Q 47.125 51.421875 43.28125 58.90625 
Q 39.453125 66.40625 31.78125 66.40625 
z
M 31.78125 74.21875 
Q 44.046875 74.21875 50.515625 64.515625 
Q 56.984375 54.828125 56.984375 36.375 
Q 56.984375 17.96875 50.515625 8.265625 
Q 44.046875 -1.421875 31.78125 -1.421875 
Q 19.53125 -1.421875 13.0625 8.265625 
Q 6.59375 17.96875 6.59375 36.375 
Q 6.59375 54.828125 13.0625 64.515625 
Q 19.53125 74.21875 31.78125 74.21875 
z
" id="DejaVuSans-30"/>
      </defs>
      <g transform="translate(49.7575 317.076875)scale(0.2 -0.2)">
       <use xlink:href="#DejaVuSans-30"/>
      </g>
     </g>
    </g>
    <g id="xtick_2">
     <g id="line2d_6">
      <path clip-path="url(#pba0c70d291)" d="M 135.351336 294.88 
L 135.351336 24.84 
" style="fill:none;stroke:#b0b0b0;stroke-linecap:square;stroke-width:0.8;"/>
     </g>
     <g id="line2d_7">
      <g>
       <use style="stroke:#000000;stroke-width:0.8;" x="135.351336" xlink:href="#mecbb744172" y="294.88"/>
      </g>
     </g>
     <g id="text_2">
      <!-- 2 -->
      <defs>
       <path d="M 19.1875 8.296875 
L 53.609375 8.296875 
L 53.609375 0 
L 7.328125 0 
L 7.328125 8.296875 
Q 12.9375 14.109375 22.625 23.890625 
Q 32.328125 33.6875 34.8125 36.53125 
Q 39.546875 41.84375 41.421875 45.53125 
Q 43.3125 49.21875 43.3125 52.78125 
Q 43.3125 58.59375 39.234375 62.25 
Q 35.15625 65.921875 28.609375 65.921875 
Q 23.96875 65.921875 18.8125 64.3125 
Q 13.671875 62.703125 7.8125 59.421875 
L 7.8125 69.390625 
Q 13.765625 71.78125 18.9375 73 
Q 24.125 74.21875 28.421875 74.21875 
Q 39.75 74.21875 46.484375 68.546875 
Q 53.21875 62.890625 53.21875 53.421875 
Q 53.21875 48.921875 51.53125 44.890625 
Q 49.859375 40.875 45.40625 35.40625 
Q 44.1875 33.984375 37.640625 27.21875 
Q 31.109375 20.453125 19.1875 8.296875 
z
" id="DejaVuSans-32"/>
      </defs>
      <g transform="translate(128.988836 317.076875)scale(0.2 -0.2)">
       <use xlink:href="#DejaVuSans-32"/>
      </g>
     </g>
    </g>
    <g id="xtick_3">
     <g id="line2d_8">
      <path clip-path="url(#pba0c70d291)" d="M 214.582673 294.88 
L 214.582673 24.84 
" style="fill:none;stroke:#b0b0b0;stroke-linecap:square;stroke-width:0.8;"/>
     </g>
     <g id="line2d_9">
      <g>
       <use style="stroke:#000000;stroke-width:0.8;" x="214.582673" xlink:href="#mecbb744172" y="294.88"/>
      </g>
     </g>
     <g id="text_3">
      <!-- 4 -->
      <defs>
       <path d="M 37.796875 64.3125 
L 12.890625 25.390625 
L 37.796875 25.390625 
z
M 35.203125 72.90625 
L 47.609375 72.90625 
L 47.609375 25.390625 
L 58.015625 25.390625 
L 58.015625 17.1875 
L 47.609375 17.1875 
L 47.609375 0 
L 37.796875 0 
L 37.796875 17.1875 
L 4.890625 17.1875 
L 4.890625 26.703125 
z
" id="DejaVuSans-34"/>
      </defs>
      <g transform="translate(208.220173 317.076875)scale(0.2 -0.2)">
       <use xlink:href="#DejaVuSans-34"/>
      </g>
     </g>
    </g>
    <g id="xtick_4">
     <g id="line2d_10">
      <path clip-path="url(#pba0c70d291)" d="M 293.814009 294.88 
L 293.814009 24.84 
" style="fill:none;stroke:#b0b0b0;stroke-linecap:square;stroke-width:0.8;"/>
     </g>
     <g id="line2d_11">
      <g>
       <use style="stroke:#000000;stroke-width:0.8;" x="293.814009" xlink:href="#mecbb744172" y="294.88"/>
      </g>
     </g>
     <g id="text_4">
      <!-- 6 -->
      <defs>
       <path d="M 33.015625 40.375 
Q 26.375 40.375 22.484375 35.828125 
Q 18.609375 31.296875 18.609375 23.390625 
Q 18.609375 15.53125 22.484375 10.953125 
Q 26.375 6.390625 33.015625 6.390625 
Q 39.65625 6.390625 43.53125 10.953125 
Q 47.40625 15.53125 47.40625 23.390625 
Q 47.40625 31.296875 43.53125 35.828125 
Q 39.65625 40.375 33.015625 40.375 
z
M 52.59375 71.296875 
L 52.59375 62.3125 
Q 48.875 64.0625 45.09375 64.984375 
Q 41.3125 65.921875 37.59375 65.921875 
Q 27.828125 65.921875 22.671875 59.328125 
Q 17.53125 52.734375 16.796875 39.40625 
Q 19.671875 43.65625 24.015625 45.921875 
Q 28.375 48.1875 33.59375 48.1875 
Q 44.578125 48.1875 50.953125 41.515625 
Q 57.328125 34.859375 57.328125 23.390625 
Q 57.328125 12.15625 50.6875 5.359375 
Q 44.046875 -1.421875 33.015625 -1.421875 
Q 20.359375 -1.421875 13.671875 8.265625 
Q 6.984375 17.96875 6.984375 36.375 
Q 6.984375 53.65625 15.1875 63.9375 
Q 23.390625 74.21875 37.203125 74.21875 
Q 40.921875 74.21875 44.703125 73.484375 
Q 48.484375 72.75 52.59375 71.296875 
z
" id="DejaVuSans-36"/>
      </defs>
      <g transform="translate(287.451509 317.076875)scale(0.2 -0.2)">
       <use xlink:href="#DejaVuSans-36"/>
      </g>
     </g>
    </g>
    <g id="xtick_5">
     <g id="line2d_12">
      <path clip-path="url(#pba0c70d291)" d="M 373.045346 294.88 
L 373.045346 24.84 
" style="fill:none;stroke:#b0b0b0;stroke-linecap:square;stroke-width:0.8;"/>
     </g>
     <g id="line2d_13">
      <g>
       <use style="stroke:#000000;stroke-width:0.8;" x="373.045346" xlink:href="#mecbb744172" y="294.88"/>
      </g>
     </g>
     <g id="text_5">
      <!-- 8 -->
      <defs>
       <path d="M 31.78125 34.625 
Q 24.75 34.625 20.71875 30.859375 
Q 16.703125 27.09375 16.703125 20.515625 
Q 16.703125 13.921875 20.71875 10.15625 
Q 24.75 6.390625 31.78125 6.390625 
Q 38.8125 6.390625 42.859375 10.171875 
Q 46.921875 13.96875 46.921875 20.515625 
Q 46.921875 27.09375 42.890625 30.859375 
Q 38.875 34.625 31.78125 34.625 
z
M 21.921875 38.8125 
Q 15.578125 40.375 12.03125 44.71875 
Q 8.5 49.078125 8.5 55.328125 
Q 8.5 64.0625 14.71875 69.140625 
Q 20.953125 74.21875 31.78125 74.21875 
Q 42.671875 74.21875 48.875 69.140625 
Q 55.078125 64.0625 55.078125 55.328125 
Q 55.078125 49.078125 51.53125 44.71875 
Q 48 40.375 41.703125 38.8125 
Q 48.828125 37.15625 52.796875 32.3125 
Q 56.78125 27.484375 56.78125 20.515625 
Q 56.78125 9.90625 50.3125 4.234375 
Q 43.84375 -1.421875 31.78125 -1.421875 
Q 19.734375 -1.421875 13.25 4.234375 
Q 6.78125 9.90625 6.78125 20.515625 
Q 6.78125 27.484375 10.78125 32.3125 
Q 14.796875 37.15625 21.921875 38.8125 
z
M 18.3125 54.390625 
Q 18.3125 48.734375 21.84375 45.5625 
Q 25.390625 42.390625 31.78125 42.390625 
Q 38.140625 42.390625 41.71875 45.5625 
Q 45.3125 48.734375 45.3125 54.390625 
Q 45.3125 60.0625 41.71875 63.234375 
Q 38.140625 66.40625 31.78125 66.40625 
Q 25.390625 66.40625 21.84375 63.234375 
Q 18.3125 60.0625 18.3125 54.390625 
z
" id="DejaVuSans-38"/>
      </defs>
      <g transform="translate(366.682846 317.076875)scale(0.2 -0.2)">
       <use xlink:href="#DejaVuSans-38"/>
      </g>
     </g>
    </g>
    <g id="text_6">
     <!-- log10(# f-evals / dimension) -->
     <defs>
      <path d="M 9.421875 75.984375 
L 18.40625 75.984375 
L 18.40625 0 
L 9.421875 0 
z
" id="DejaVuSans-6c"/>
      <path d="M 30.609375 48.390625 
Q 23.390625 48.390625 19.1875 42.75 
Q 14.984375 37.109375 14.984375 27.296875 
Q 14.984375 17.484375 19.15625 11.84375 
Q 23.34375 6.203125 30.609375 6.203125 
Q 37.796875 6.203125 41.984375 11.859375 
Q 46.1875 17.53125 46.1875 27.296875 
Q 46.1875 37.015625 41.984375 42.703125 
Q 37.796875 48.390625 30.609375 48.390625 
z
M 30.609375 56 
Q 42.328125 56 49.015625 48.375 
Q 55.71875 40.765625 55.71875 27.296875 
Q 55.71875 13.875 49.015625 6.21875 
Q 42.328125 -1.421875 30.609375 -1.421875 
Q 18.84375 -1.421875 12.171875 6.21875 
Q 5.515625 13.875 5.515625 27.296875 
Q 5.515625 40.765625 12.171875 48.375 
Q 18.84375 56 30.609375 56 
z
" id="DejaVuSans-6f"/>
      <path d="M 45.40625 27.984375 
Q 45.40625 37.75 41.375 43.109375 
Q 37.359375 48.484375 30.078125 48.484375 
Q 22.859375 48.484375 18.828125 43.109375 
Q 14.796875 37.75 14.796875 27.984375 
Q 14.796875 18.265625 18.828125 12.890625 
Q 22.859375 7.515625 30.078125 7.515625 
Q 37.359375 7.515625 41.375 12.890625 
Q 45.40625 18.265625 45.40625 27.984375 
z
M 54.390625 6.78125 
Q 54.390625 -7.171875 48.1875 -13.984375 
Q 42 -20.796875 29.203125 -20.796875 
Q 24.46875 -20.796875 20.265625 -20.09375 
Q 16.0625 -19.390625 12.109375 -17.921875 
L 12.109375 -9.1875 
Q 16.0625 -11.328125 19.921875 -12.34375 
Q 23.78125 -13.375 27.78125 -13.375 
Q 36.625 -13.375 41.015625 -8.765625 
Q 45.40625 -4.15625 45.40625 5.171875 
L 45.40625 9.625 
Q 42.625 4.78125 38.28125 2.390625 
Q 33.9375 0 27.875 0 
Q 17.828125 0 11.671875 7.65625 
Q 5.515625 15.328125 5.515625 27.984375 
Q 5.515625 40.671875 11.671875 48.328125 
Q 17.828125 56 27.875 56 
Q 33.9375 56 38.28125 53.609375 
Q 42.625 51.21875 45.40625 46.390625 
L 45.40625 54.6875 
L 54.390625 54.6875 
z
" id="DejaVuSans-67"/>
      <path d="M 12.40625 8.296875 
L 28.515625 8.296875 
L 28.515625 63.921875 
L 10.984375 60.40625 
L 10.984375 69.390625 
L 28.421875 72.90625 
L 38.28125 72.90625 
L 38.28125 8.296875 
L 54.390625 8.296875 
L 54.390625 0 
L 12.40625 0 
z
" id="DejaVuSans-31"/>
      <path d="M 31 75.875 
Q 24.46875 64.65625 21.28125 53.65625 
Q 18.109375 42.671875 18.109375 31.390625 
Q 18.109375 20.125 21.3125 9.0625 
Q 24.515625 -2 31 -13.1875 
L 23.1875 -13.1875 
Q 15.875 -1.703125 12.234375 9.375 
Q 8.59375 20.453125 8.59375 31.390625 
Q 8.59375 42.28125 12.203125 53.3125 
Q 15.828125 64.359375 23.1875 75.875 
z
" id="DejaVuSans-28"/>
      <path d="M 51.125 44 
L 36.921875 44 
L 32.8125 27.6875 
L 47.125 27.6875 
z
M 43.796875 71.78125 
L 38.71875 51.515625 
L 52.984375 51.515625 
L 58.109375 71.78125 
L 65.921875 71.78125 
L 60.890625 51.515625 
L 76.125 51.515625 
L 76.125 44 
L 58.984375 44 
L 54.984375 27.6875 
L 70.515625 27.6875 
L 70.515625 20.21875 
L 53.078125 20.21875 
L 48 0 
L 40.1875 0 
L 45.21875 20.21875 
L 30.90625 20.21875 
L 25.875 0 
L 18.015625 0 
L 23.09375 20.21875 
L 7.71875 20.21875 
L 7.71875 27.6875 
L 24.90625 27.6875 
L 29 44 
L 13.28125 44 
L 13.28125 51.515625 
L 30.90625 51.515625 
L 35.890625 71.78125 
z
" id="DejaVuSans-23"/>
      <path id="DejaVuSans-20"/>
      <path d="M 37.109375 75.984375 
L 37.109375 68.5 
L 28.515625 68.5 
Q 23.6875 68.5 21.796875 66.546875 
Q 19.921875 64.59375 19.921875 59.515625 
L 19.921875 54.6875 
L 34.71875 54.6875 
L 34.71875 47.703125 
L 19.921875 47.703125 
L 19.921875 0 
L 10.890625 0 
L 10.890625 47.703125 
L 2.296875 47.703125 
L 2.296875 54.6875 
L 10.890625 54.6875 
L 10.890625 58.5 
Q 10.890625 67.625 15.140625 71.796875 
Q 19.390625 75.984375 28.609375 75.984375 
z
" id="DejaVuSans-66"/>
      <path d="M 4.890625 31.390625 
L 31.203125 31.390625 
L 31.203125 23.390625 
L 4.890625 23.390625 
z
" id="DejaVuSans-2d"/>
      <path d="M 56.203125 29.59375 
L 56.203125 25.203125 
L 14.890625 25.203125 
Q 15.484375 15.921875 20.484375 11.0625 
Q 25.484375 6.203125 34.421875 6.203125 
Q 39.59375 6.203125 44.453125 7.46875 
Q 49.3125 8.734375 54.109375 11.28125 
L 54.109375 2.78125 
Q 49.265625 0.734375 44.1875 -0.34375 
Q 39.109375 -1.421875 33.890625 -1.421875 
Q 20.796875 -1.421875 13.15625 6.1875 
Q 5.515625 13.8125 5.515625 26.8125 
Q 5.515625 40.234375 12.765625 48.109375 
Q 20.015625 56 32.328125 56 
Q 43.359375 56 49.78125 48.890625 
Q 56.203125 41.796875 56.203125 29.59375 
z
M 47.21875 32.234375 
Q 47.125 39.59375 43.09375 43.984375 
Q 39.0625 48.390625 32.421875 48.390625 
Q 24.90625 48.390625 20.390625 44.140625 
Q 15.875 39.890625 15.1875 32.171875 
z
" id="DejaVuSans-65"/>
      <path d="M 2.984375 54.6875 
L 12.5 54.6875 
L 29.59375 8.796875 
L 46.6875 54.6875 
L 56.203125 54.6875 
L 35.6875 0 
L 23.484375 0 
z
" id="DejaVuSans-76"/>
      <path d="M 34.28125 27.484375 
Q 23.390625 27.484375 19.1875 25 
Q 14.984375 22.515625 14.984375 16.5 
Q 14.984375 11.71875 18.140625 8.90625 
Q 21.296875 6.109375 26.703125 6.109375 
Q 34.1875 6.109375 38.703125 11.40625 
Q 43.21875 16.703125 43.21875 25.484375 
L 43.21875 27.484375 
z
M 52.203125 31.203125 
L 52.203125 0 
L 43.21875 0 
L 43.21875 8.296875 
Q 40.140625 3.328125 35.546875 0.953125 
Q 30.953125 -1.421875 24.3125 -1.421875 
Q 15.921875 -1.421875 10.953125 3.296875 
Q 6 8.015625 6 15.921875 
Q 6 25.140625 12.171875 29.828125 
Q 18.359375 34.515625 30.609375 34.515625 
L 43.21875 34.515625 
L 43.21875 35.40625 
Q 43.21875 41.609375 39.140625 45 
Q 35.0625 48.390625 27.6875 48.390625 
Q 23 48.390625 18.546875 47.265625 
Q 14.109375 46.140625 10.015625 43.890625 
L 10.015625 52.203125 
Q 14.9375 54.109375 19.578125 55.046875 
Q 24.21875 56 28.609375 56 
Q 40.484375 56 46.34375 49.84375 
Q 52.203125 43.703125 52.203125 31.203125 
z
" id="DejaVuSans-61"/>
      <path d="M 44.28125 53.078125 
L 44.28125 44.578125 
Q 40.484375 46.53125 36.375 47.5 
Q 32.28125 48.484375 27.875 48.484375 
Q 21.1875 48.484375 17.84375 46.4375 
Q 14.5 44.390625 14.5 40.28125 
Q 14.5 37.15625 16.890625 35.375 
Q 19.28125 33.59375 26.515625 31.984375 
L 29.59375 31.296875 
Q 39.15625 29.25 43.1875 25.515625 
Q 47.21875 21.78125 47.21875 15.09375 
Q 47.21875 7.46875 41.1875 3.015625 
Q 35.15625 -1.421875 24.609375 -1.421875 
Q 20.21875 -1.421875 15.453125 -0.5625 
Q 10.6875 0.296875 5.421875 2 
L 5.421875 11.28125 
Q 10.40625 8.6875 15.234375 7.390625 
Q 20.0625 6.109375 24.8125 6.109375 
Q 31.15625 6.109375 34.5625 8.28125 
Q 37.984375 10.453125 37.984375 14.40625 
Q 37.984375 18.0625 35.515625 20.015625 
Q 33.0625 21.96875 24.703125 23.78125 
L 21.578125 24.515625 
Q 13.234375 26.265625 9.515625 29.90625 
Q 5.8125 33.546875 5.8125 39.890625 
Q 5.8125 47.609375 11.28125 51.796875 
Q 16.75 56 26.8125 56 
Q 31.78125 56 36.171875 55.265625 
Q 40.578125 54.546875 44.28125 53.078125 
z
" id="DejaVuSans-73"/>
      <path d="M 25.390625 72.90625 
L 33.6875 72.90625 
L 8.296875 -9.28125 
L 0 -9.28125 
z
" id="DejaVuSans-2f"/>
      <path d="M 45.40625 46.390625 
L 45.40625 75.984375 
L 54.390625 75.984375 
L 54.390625 0 
L 45.40625 0 
L 45.40625 8.203125 
Q 42.578125 3.328125 38.25 0.953125 
Q 33.9375 -1.421875 27.875 -1.421875 
Q 17.96875 -1.421875 11.734375 6.484375 
Q 5.515625 14.40625 5.515625 27.296875 
Q 5.515625 40.1875 11.734375 48.09375 
Q 17.96875 56 27.875 56 
Q 33.9375 56 38.25 53.625 
Q 42.578125 51.265625 45.40625 46.390625 
z
M 14.796875 27.296875 
Q 14.796875 17.390625 18.875 11.75 
Q 22.953125 6.109375 30.078125 6.109375 
Q 37.203125 6.109375 41.296875 11.75 
Q 45.40625 17.390625 45.40625 27.296875 
Q 45.40625 37.203125 41.296875 42.84375 
Q 37.203125 48.484375 30.078125 48.484375 
Q 22.953125 48.484375 18.875 42.84375 
Q 14.796875 37.203125 14.796875 27.296875 
z
" id="DejaVuSans-64"/>
      <path d="M 9.421875 54.6875 
L 18.40625 54.6875 
L 18.40625 0 
L 9.421875 0 
z
M 9.421875 75.984375 
L 18.40625 75.984375 
L 18.40625 64.59375 
L 9.421875 64.59375 
z
" id="DejaVuSans-69"/>
      <path d="M 52 44.1875 
Q 55.375 50.25 60.0625 53.125 
Q 64.75 56 71.09375 56 
Q 79.640625 56 84.28125 50.015625 
Q 88.921875 44.046875 88.921875 33.015625 
L 88.921875 0 
L 79.890625 0 
L 79.890625 32.71875 
Q 79.890625 40.578125 77.09375 44.375 
Q 74.3125 48.1875 68.609375 48.1875 
Q 61.625 48.1875 57.5625 43.546875 
Q 53.515625 38.921875 53.515625 30.90625 
L 53.515625 0 
L 44.484375 0 
L 44.484375 32.71875 
Q 44.484375 40.625 41.703125 44.40625 
Q 38.921875 48.1875 33.109375 48.1875 
Q 26.21875 48.1875 22.15625 43.53125 
Q 18.109375 38.875 18.109375 30.90625 
L 18.109375 0 
L 9.078125 0 
L 9.078125 54.6875 
L 18.109375 54.6875 
L 18.109375 46.1875 
Q 21.1875 51.21875 25.484375 53.609375 
Q 29.78125 56 35.6875 56 
Q 41.65625 56 45.828125 52.96875 
Q 50 49.953125 52 44.1875 
z
" id="DejaVuSans-6d"/>
      <path d="M 54.890625 33.015625 
L 54.890625 0 
L 45.90625 0 
L 45.90625 32.71875 
Q 45.90625 40.484375 42.875 44.328125 
Q 39.84375 48.1875 33.796875 48.1875 
Q 26.515625 48.1875 22.3125 43.546875 
Q 18.109375 38.921875 18.109375 30.90625 
L 18.109375 0 
L 9.078125 0 
L 9.078125 54.6875 
L 18.109375 54.6875 
L 18.109375 46.1875 
Q 21.34375 51.125 25.703125 53.5625 
Q 30.078125 56 35.796875 56 
Q 45.21875 56 50.046875 50.171875 
Q 54.890625 44.34375 54.890625 33.015625 
z
" id="DejaVuSans-6e"/>
      <path d="M 8.015625 75.875 
L 15.828125 75.875 
Q 23.140625 64.359375 26.78125 53.3125 
Q 30.421875 42.28125 30.421875 31.390625 
Q 30.421875 20.453125 26.78125 9.375 
Q 23.140625 -1.703125 15.828125 -13.1875 
L 8.015625 -13.1875 
Q 14.5 -2 17.703125 9.0625 
Q 20.90625 20.125 20.90625 31.390625 
Q 20.90625 42.671875 17.703125 53.65625 
Q 14.5 64.65625 8.015625 75.875 
z
" id="DejaVuSans-29"/>
     </defs>
     <g transform="translate(107.211219 338.153594)scale(0.17 -0.17)">
      <use xlink:href="#DejaVuSans-6c"/>
      <use x="27.783203" xlink:href="#DejaVuSans-6f"/>
      <use x="88.964844" xlink:href="#DejaVuSans-67"/>
      <use x="152.441406" xlink:href="#DejaVuSans-31"/>
      <use x="216.064453" xlink:href="#DejaVuSans-30"/>
      <use x="279.6875" xlink:href="#DejaVuSans-28"/>
      <use x="318.701172" xlink:href="#DejaVuSans-23"/>
      <use x="402.490234" xlink:href="#DejaVuSans-20"/>
      <use x="434.277344" xlink:href="#DejaVuSans-66"/>
      <use x="469.404297" xlink:href="#DejaVuSans-2d"/>
      <use x="505.488281" xlink:href="#DejaVuSans-65"/>
      <use x="567.011719" xlink:href="#DejaVuSans-76"/>
      <use x="626.191406" xlink:href="#DejaVuSans-61"/>
      <use x="687.470703" xlink:href="#DejaVuSans-6c"/>
      <use x="715.253906" xlink:href="#DejaVuSans-73"/>
      <use x="767.353516" xlink:href="#DejaVuSans-20"/>
      <use x="799.140625" xlink:href="#DejaVuSans-2f"/>
      <use x="832.832031" xlink:href="#DejaVuSans-20"/>
      <use x="864.619141" xlink:href="#DejaVuSans-64"/>
      <use x="928.095703" xlink:href="#DejaVuSans-69"/>
      <use x="955.878906" xlink:href="#DejaVuSans-6d"/>
      <use x="1053.291016" xlink:href="#DejaVuSans-65"/>
      <use x="1114.814453" xlink:href="#DejaVuSans-6e"/>
      <use x="1178.193359" xlink:href="#DejaVuSans-73"/>
      <use x="1230.292969" xlink:href="#DejaVuSans-69"/>
      <use x="1258.076172" xlink:href="#DejaVuSans-6f"/>
      <use x="1319.257812" xlink:href="#DejaVuSans-6e"/>
      <use x="1382.636719" xlink:href="#DejaVuSans-29"/>
     </g>
    </g>
   </g>
   <g id="matplotlib.axis_2">
    <g id="ytick_1">
     <g id="line2d_14">
      <path clip-path="url(#pba0c70d291)" d="M 56.12 294.88 
L 399.984 294.88 
" style="fill:none;stroke:#b0b0b0;stroke-linecap:square;stroke-width:0.8;"/>
     </g>
     <g id="line2d_15">
      <defs>
       <path d="M 0 0 
L -3.5 0 
" id="ma112a1503e" style="stroke:#000000;stroke-width:0.8;"/>
      </defs>
      <g>
       <use style="stroke:#000000;stroke-width:0.8;" x="56.12" xlink:href="#ma112a1503e" y="294.88"/>
      </g>
     </g>
     <g id="text_7">
      <!-- 0.0 -->
      <defs>
       <path d="M 10.6875 12.40625 
L 21 12.40625 
L 21 0 
L 10.6875 0 
z
" id="DejaVuSans-2e"/>
      </defs>
      <g transform="translate(23.675 300.95875)scale(0.16 -0.16)">
       <use xlink:href="#DejaVuSans-30"/>
       <use x="63.623047" xlink:href="#DejaVuSans-2e"/>
       <use x="95.410156" xlink:href="#DejaVuSans-30"/>
      </g>
     </g>
    </g>
    <g id="ytick_2">
     <g id="line2d_16">
      <path clip-path="url(#pba0c70d291)" d="M 56.12 241.406733 
L 399.984 241.406733 
" style="fill:none;stroke:#b0b0b0;stroke-linecap:square;stroke-width:0.8;"/>
     </g>
     <g id="line2d_17">
      <g>
       <use style="stroke:#000000;stroke-width:0.8;" x="56.12" xlink:href="#ma112a1503e" y="241.406733"/>
      </g>
     </g>
     <g id="text_8">
      <!-- 0.2 -->
      <g transform="translate(23.675 247.485483)scale(0.16 -0.16)">
       <use xlink:href="#DejaVuSans-30"/>
       <use x="63.623047" xlink:href="#DejaVuSans-2e"/>
       <use x="95.410156" xlink:href="#DejaVuSans-32"/>
      </g>
     </g>
    </g>
    <g id="ytick_3">
     <g id="line2d_18">
      <path clip-path="url(#pba0c70d291)" d="M 56.12 187.933465 
L 399.984 187.933465 
" style="fill:none;stroke:#b0b0b0;stroke-linecap:square;stroke-width:0.8;"/>
     </g>
     <g id="line2d_19">
      <g>
       <use style="stroke:#000000;stroke-width:0.8;" x="56.12" xlink:href="#ma112a1503e" y="187.933465"/>
      </g>
     </g>
     <g id="text_9">
      <!-- 0.4 -->
      <g transform="translate(23.675 194.012215)scale(0.16 -0.16)">
       <use xlink:href="#DejaVuSans-30"/>
       <use x="63.623047" xlink:href="#DejaVuSans-2e"/>
       <use x="95.410156" xlink:href="#DejaVuSans-34"/>
      </g>
     </g>
    </g>
    <g id="ytick_4">
     <g id="line2d_20">
      <path clip-path="url(#pba0c70d291)" d="M 56.12 134.460198 
L 399.984 134.460198 
" style="fill:none;stroke:#b0b0b0;stroke-linecap:square;stroke-width:0.8;"/>
     </g>
     <g id="line2d_21">
      <g>
       <use style="stroke:#000000;stroke-width:0.8;" x="56.12" xlink:href="#ma112a1503e" y="134.460198"/>
      </g>
     </g>
     <g id="text_10">
      <!-- 0.6 -->
      <g transform="translate(23.675 140.538948)scale(0.16 -0.16)">
       <use xlink:href="#DejaVuSans-30"/>
       <use x="63.623047" xlink:href="#DejaVuSans-2e"/>
       <use x="95.410156" xlink:href="#DejaVuSans-36"/>
      </g>
     </g>
    </g>
    <g id="ytick_5">
     <g id="line2d_22">
      <path clip-path="url(#pba0c70d291)" d="M 56.12 80.986931 
L 399.984 80.986931 
" style="fill:none;stroke:#b0b0b0;stroke-linecap:square;stroke-width:0.8;"/>
     </g>
     <g id="line2d_23">
      <g>
       <use style="stroke:#000000;stroke-width:0.8;" x="56.12" xlink:href="#ma112a1503e" y="80.986931"/>
      </g>
     </g>
     <g id="text_11">
      <!-- 0.8 -->
      <g transform="translate(23.675 87.065681)scale(0.16 -0.16)">
       <use xlink:href="#DejaVuSans-30"/>
       <use x="63.623047" xlink:href="#DejaVuSans-2e"/>
       <use x="95.410156" xlink:href="#DejaVuSans-38"/>
      </g>
     </g>
    </g>
    <g id="ytick_6">
     <g id="line2d_24">
      <path clip-path="url(#pba0c70d291)" d="M 56.12 27.513663 
L 399.984 27.513663 
" style="fill:none;stroke:#b0b0b0;stroke-linecap:square;stroke-width:0.8;"/>
     </g>
     <g id="line2d_25">
      <g>
       <use style="stroke:#000000;stroke-width:0.8;" x="56.12" xlink:href="#ma112a1503e" y="27.513663"/>
      </g>
     </g>
     <g id="text_12">
      <!-- 1.0 -->
      <g transform="translate(23.675 33.592413)scale(0.16 -0.16)">
       <use xlink:href="#DejaVuSans-31"/>
       <use x="63.623047" xlink:href="#DejaVuSans-2e"/>
       <use x="95.410156" xlink:href="#DejaVuSans-30"/>
      </g>
     </g>
    </g>
    <g id="text_13">
     <!-- Fraction of function,target pairs -->
     <defs>
      <path d="M 9.8125 72.90625 
L 51.703125 72.90625 
L 51.703125 64.59375 
L 19.671875 64.59375 
L 19.671875 43.109375 
L 48.578125 43.109375 
L 48.578125 34.8125 
L 19.671875 34.8125 
L 19.671875 0 
L 9.8125 0 
z
" id="DejaVuSans-46"/>
      <path d="M 41.109375 46.296875 
Q 39.59375 47.171875 37.8125 47.578125 
Q 36.03125 48 33.890625 48 
Q 26.265625 48 22.1875 43.046875 
Q 18.109375 38.09375 18.109375 28.8125 
L 18.109375 0 
L 9.078125 0 
L 9.078125 54.6875 
L 18.109375 54.6875 
L 18.109375 46.1875 
Q 20.953125 51.171875 25.484375 53.578125 
Q 30.03125 56 36.53125 56 
Q 37.453125 56 38.578125 55.875 
Q 39.703125 55.765625 41.0625 55.515625 
z
" id="DejaVuSans-72"/>
      <path d="M 48.78125 52.59375 
L 48.78125 44.1875 
Q 44.96875 46.296875 41.140625 47.34375 
Q 37.3125 48.390625 33.40625 48.390625 
Q 24.65625 48.390625 19.8125 42.84375 
Q 14.984375 37.3125 14.984375 27.296875 
Q 14.984375 17.28125 19.8125 11.734375 
Q 24.65625 6.203125 33.40625 6.203125 
Q 37.3125 6.203125 41.140625 7.25 
Q 44.96875 8.296875 48.78125 10.40625 
L 48.78125 2.09375 
Q 45.015625 0.34375 40.984375 -0.53125 
Q 36.96875 -1.421875 32.421875 -1.421875 
Q 20.0625 -1.421875 12.78125 6.34375 
Q 5.515625 14.109375 5.515625 27.296875 
Q 5.515625 40.671875 12.859375 48.328125 
Q 20.21875 56 33.015625 56 
Q 37.15625 56 41.109375 55.140625 
Q 45.0625 54.296875 48.78125 52.59375 
z
" id="DejaVuSans-63"/>
      <path d="M 18.3125 70.21875 
L 18.3125 54.6875 
L 36.8125 54.6875 
L 36.8125 47.703125 
L 18.3125 47.703125 
L 18.3125 18.015625 
Q 18.3125 11.328125 20.140625 9.421875 
Q 21.96875 7.515625 27.59375 7.515625 
L 36.8125 7.515625 
L 36.8125 0 
L 27.59375 0 
Q 17.1875 0 13.234375 3.875 
Q 9.28125 7.765625 9.28125 18.015625 
L 9.28125 47.703125 
L 2.6875 47.703125 
L 2.6875 54.6875 
L 9.28125 54.6875 
L 9.28125 70.21875 
z
" id="DejaVuSans-74"/>
      <path d="M 8.5 21.578125 
L 8.5 54.6875 
L 17.484375 54.6875 
L 17.484375 21.921875 
Q 17.484375 14.15625 20.5 10.265625 
Q 23.53125 6.390625 29.59375 6.390625 
Q 36.859375 6.390625 41.078125 11.03125 
Q 45.3125 15.671875 45.3125 23.6875 
L 45.3125 54.6875 
L 54.296875 54.6875 
L 54.296875 0 
L 45.3125 0 
L 45.3125 8.40625 
Q 42.046875 3.421875 37.71875 1 
Q 33.40625 -1.421875 27.6875 -1.421875 
Q 18.265625 -1.421875 13.375 4.4375 
Q 8.5 10.296875 8.5 21.578125 
z
M 31.109375 56 
z
" id="DejaVuSans-75"/>
      <path d="M 11.71875 12.40625 
L 22.015625 12.40625 
L 22.015625 4 
L 14.015625 -11.625 
L 7.71875 -11.625 
L 11.71875 4 
z
" id="DejaVuSans-2c"/>
      <path d="M 18.109375 8.203125 
L 18.109375 -20.796875 
L 9.078125 -20.796875 
L 9.078125 54.6875 
L 18.109375 54.6875 
L 18.109375 46.390625 
Q 20.953125 51.265625 25.265625 53.625 
Q 29.59375 56 35.59375 56 
Q 45.5625 56 51.78125 48.09375 
Q 58.015625 40.1875 58.015625 27.296875 
Q 58.015625 14.40625 51.78125 6.484375 
Q 45.5625 -1.421875 35.59375 -1.421875 
Q 29.59375 -1.421875 25.265625 0.953125 
Q 20.953125 3.328125 18.109375 8.203125 
z
M 48.6875 27.296875 
Q 48.6875 37.203125 44.609375 42.84375 
Q 40.53125 48.484375 33.40625 48.484375 
Q 26.265625 48.484375 22.1875 42.84375 
Q 18.109375 37.203125 18.109375 27.296875 
Q 18.109375 17.390625 22.1875 11.75 
Q 26.265625 6.109375 33.40625 6.109375 
Q 40.53125 6.109375 44.609375 11.75 
Q 48.6875 17.390625 48.6875 27.296875 
z
" id="DejaVuSans-70"/>
     </defs>
     <g transform="translate(16.139531 294.999375)rotate(-90)scale(0.17 -0.17)">
      <use xlink:href="#DejaVuSans-46"/>
      <use x="57.410156" xlink:href="#DejaVuSans-72"/>
      <use x="98.523438" xlink:href="#DejaVuSans-61"/>
      <use x="159.802734" xlink:href="#DejaVuSans-63"/>
      <use x="214.783203" xlink:href="#DejaVuSans-74"/>
      <use x="253.992188" xlink:href="#DejaVuSans-69"/>
      <use x="281.775391" xlink:href="#DejaVuSans-6f"/>
      <use x="342.957031" xlink:href="#DejaVuSans-6e"/>
      <use x="406.335938" xlink:href="#DejaVuSans-20"/>
      <use x="438.123047" xlink:href="#DejaVuSans-6f"/>
      <use x="499.304688" xlink:href="#DejaVuSans-66"/>
      <use x="534.509766" xlink:href="#DejaVuSans-20"/>
      <use x="566.296875" xlink:href="#DejaVuSans-66"/>
      <use x="601.501953" xlink:href="#DejaVuSans-75"/>
      <use x="664.880859" xlink:href="#DejaVuSans-6e"/>
      <use x="728.259766" xlink:href="#DejaVuSans-63"/>
      <use x="783.240234" xlink:href="#DejaVuSans-74"/>
      <use x="822.449219" xlink:href="#DejaVuSans-69"/>
      <use x="850.232422" xlink:href="#DejaVuSans-6f"/>
      <use x="911.414062" xlink:href="#DejaVuSans-6e"/>
      <use x="974.792969" xlink:href="#DejaVuSans-2c"/>
      <use x="1006.580078" xlink:href="#DejaVuSans-74"/>
      <use x="1045.789062" xlink:href="#DejaVuSans-61"/>
      <use x="1107.068359" xlink:href="#DejaVuSans-72"/>
      <use x="1148.166016" xlink:href="#DejaVuSans-67"/>
      <use x="1211.642578" xlink:href="#DejaVuSans-65"/>
      <use x="1273.166016" xlink:href="#DejaVuSans-74"/>
      <use x="1312.375" xlink:href="#DejaVuSans-20"/>
      <use x="1344.162109" xlink:href="#DejaVuSans-70"/>
      <use x="1407.638672" xlink:href="#DejaVuSans-61"/>
      <use x="1468.917969" xlink:href="#DejaVuSans-69"/>
      <use x="1496.701172" xlink:href="#DejaVuSans-72"/>
      <use x="1537.814453" xlink:href="#DejaVuSans-73"/>
     </g>
    </g>
   </g>
   <g id="line2d_26">
    <defs>
     <path d="M 0 1.5 
C 0.397805 1.5 0.77937 1.341951 1.06066 1.06066 
C 1.341951 0.77937 1.5 0.397805 1.5 0 
C 1.5 -0.397805 1.341951 -0.77937 1.06066 -1.06066 
C 0.77937 -1.341951 0.397805 -1.5 0 -1.5 
C -0.397805 -1.5 -0.77937 -1.341951 -1.06066 -1.06066 
C -1.341951 -0.77937 -1.5 -0.397805 -1.5 0 
C -1.5 0.397805 -1.341951 0.77937 -1.06066 1.06066 
C -0.77937 1.341951 -0.397805 1.5 0 1.5 
z
" id="m4aa717fea2" style="stroke:#f5deb3;"/>
    </defs>
    <g>
     <use style="fill:#f5deb3;stroke:#f5deb3;" x="281.588513" xlink:href="#m4aa717fea2" y="188.855418"/>
     <use style="fill:#f5deb3;stroke:#f5deb3;" x="281.588513" xlink:href="#m4aa717fea2" y="188.855418"/>
    </g>
   </g>
   <g id="line2d_27">
    <g>
     <use style="fill:#f5deb3;stroke:#f5deb3;stroke-linejoin:miter;stroke-width:1.5;" x="68.045504" xlink:href="#m6ef4d05692" y="290.270236"/>
     <use style="fill:#f5deb3;stroke:#f5deb3;stroke-linejoin:miter;stroke-width:1.5;" x="143.767842" xlink:href="#m6ef4d05692" y="267.221413"/>
     <use style="fill:#f5deb3;stroke:#f5deb3;stroke-linejoin:miter;stroke-width:1.5;" x="222.264313" xlink:href="#m6ef4d05692" y="239.562827"/>
     <use style="fill:#f5deb3;stroke:#f5deb3;stroke-linejoin:miter;stroke-width:1.5;" x="256.02089" xlink:href="#m6ef4d05692" y="198.074947"/>
     <use style="fill:#f5deb3;stroke:#f5deb3;stroke-linejoin:miter;stroke-width:1.5;" x="281.588513" xlink:href="#m6ef4d05692" y="188.855418"/>
     <use style="fill:#f5deb3;stroke:#f5deb3;stroke-linejoin:miter;stroke-width:1.5;" x="333.429677" xlink:href="#m6ef4d05692" y="188.855418"/>
    </g>
   </g>
   <g id="line2d_28">
    <defs>
     <path d="M 0 1.5 
C 0.397805 1.5 0.77937 1.341951 1.06066 1.06066 
C 1.341951 0.77937 1.5 0.397805 1.5 0 
C 1.5 -0.397805 1.341951 -0.77937 1.06066 -1.06066 
C 0.77937 -1.341951 0.397805 -1.5 0 -1.5 
C -0.397805 -1.5 -0.77937 -1.341951 -1.06066 -1.06066 
C -1.341951 -0.77937 -1.5 -0.397805 -1.5 0 
C -1.5 0.397805 -1.341951 0.77937 -1.06066 1.06066 
C -0.77937 1.341951 -0.397805 1.5 0 1.5 
z
" id="m52a237646f" style="stroke:#999999;"/>
    </defs>
    <g>
     <use style="fill:#999999;stroke:#999999;" x="323.997305" xlink:href="#m52a237646f" y="207.294476"/>
     <use style="fill:#999999;stroke:#999999;" x="323.997305" xlink:href="#m52a237646f" y="207.294476"/>
    </g>
   </g>
   <g id="line2d_29">
    <path d="M -1 287.504377 
L 90.555195 287.504377 
L 90.555195 286.582424 
L 95.431917 286.582424 
L 95.519252 284.738518 
L 99.471283 284.738518 
L 99.471283 284.277542 
L 102.246616 284.277542 
L 102.246616 283.816565 
L 105.607828 283.816565 
L 105.607828 282.894612 
L 109.222589 282.894612 
L 109.222589 282.433636 
L 109.971998 282.433636 
L 109.971998 281.97266 
L 110.815903 281.97266 
L 110.815903 281.511683 
L 111.29262 281.511683 
L 111.29262 281.050707 
L 111.56901 281.050707 
L 111.56901 280.58973 
L 111.807261 280.58973 
L 111.807261 279.667777 
L 112.092199 279.667777 
L 112.092199 278.745825 
L 112.224673 278.745825 
L 112.224673 278.284848 
L 113.17138 278.284848 
L 113.17138 277.823872 
L 113.311321 277.823872 
L 113.311321 277.362895 
L 113.709316 277.362895 
L 113.709316 276.901919 
L 113.919867 276.901919 
L 113.919867 275.979966 
L 114.680104 275.979966 
L 114.680104 274.597037 
L 114.836707 274.597037 
L 114.836707 273.214107 
L 115.476574 273.214107 
L 115.558307 269.987272 
L 116.093494 269.987272 
L 116.093494 269.526296 
L 117.362865 269.526296 
L 117.460481 268.604343 
L 117.617936 268.604343 
L 117.617936 267.68239 
L 118.738106 267.68239 
L 118.760685 265.838484 
L 120.850938 265.838484 
L 120.850938 265.377508 
L 123.365509 265.377508 
L 123.365509 264.916531 
L 126.769296 264.916531 
L 126.769296 263.994578 
L 127.112914 263.994578 
L 127.112914 263.533602 
L 132.036389 263.533602 
L 132.036389 262.150673 
L 133.220273 262.150673 
L 133.220273 260.306767 
L 136.57158 260.306767 
L 136.57158 258.923837 
L 136.790551 258.923837 
L 136.790551 257.079932 
L 137.041893 257.079932 
L 137.041893 256.618955 
L 142.682061 256.618955 
L 142.682061 255.697002 
L 145.0897 255.697002 
L 145.0897 254.77505 
L 148.118317 254.77505 
L 148.118317 253.39212 
L 151.093615 253.39212 
L 151.093615 252.931144 
L 156.996878 252.931144 
L 156.996878 252.009191 
L 157.618693 252.009191 
L 157.618693 251.087238 
L 162.378546 251.087238 
L 162.468608 250.165285 
L 164.861008 250.165285 
L 164.861008 249.704309 
L 165.208067 249.704309 
L 165.208067 248.782356 
L 167.641252 248.782356 
L 167.641252 248.321379 
L 167.938908 248.321379 
L 167.938908 246.93845 
L 169.200654 246.93845 
L 169.200654 245.094544 
L 172.135937 245.094544 
L 172.135937 244.172591 
L 174.52259 244.172591 
L 174.52259 243.250638 
L 177.285726 243.250638 
L 177.285726 242.789662 
L 183.900461 242.789662 
L 183.900461 241.867709 
L 186.444342 241.867709 
L 186.444342 240.945756 
L 189.457917 240.945756 
L 189.457917 240.48478 
L 190.651993 240.48478 
L 190.651993 239.562827 
L 192.34454 239.562827 
L 192.34454 239.10185 
L 195.563716 239.10185 
L 195.563716 238.640874 
L 196.405211 238.640874 
L 196.405211 238.179898 
L 197.327836 238.179898 
L 197.327836 236.335992 
L 200.798418 236.335992 
L 200.798418 235.875015 
L 210.164343 235.875015 
L 210.164343 234.953062 
L 211.176794 234.953062 
L 211.176794 233.570133 
L 212.695339 233.570133 
L 212.695339 232.187204 
L 213.054109 232.187204 
L 213.054109 229.882322 
L 218.590773 229.882322 
L 218.590773 228.960369 
L 221.647109 228.960369 
L 221.647109 228.499392 
L 232.220003 228.499392 
L 232.220003 228.038416 
L 232.940967 228.038416 
L 232.940967 227.116463 
L 235.665791 227.116463 
L 235.665791 226.19451 
L 237.778191 226.19451 
L 237.80373 224.811581 
L 241.983535 224.811581 
L 241.983535 222.967675 
L 245.98606 222.967675 
L 245.98606 222.045722 
L 246.323327 222.045722 
L 246.323327 221.584746 
L 250.252124 221.584746 
L 250.252124 219.279863 
L 251.897697 219.279863 
L 251.897697 218.818887 
L 254.664906 218.818887 
L 254.664906 218.357911 
L 259.241263 218.357911 
L 259.241263 217.896934 
L 262.503406 217.896934 
L 262.503454 216.974981 
L 264.263921 216.974981 
L 264.263921 216.514005 
L 269.157661 216.514005 
L 269.157661 216.053028 
L 270.853334 216.053028 
L 270.853375 215.131075 
L 280.576318 215.131075 
L 280.576318 214.670099 
L 281.168761 214.670099 
L 281.168805 213.28717 
L 283.939024 213.28717 
L 283.939024 212.826193 
L 284.42773 212.826193 
L 284.427752 211.90424 
L 287.166603 211.90424 
L 287.166628 210.982287 
L 289.528758 210.982287 
L 289.528758 210.521311 
L 292.640784 210.521311 
L 292.640784 210.060335 
L 300.553735 210.060335 
L 300.553735 209.599358 
L 303.730235 209.599358 
L 303.730235 209.138382 
L 306.410668 209.138382 
L 306.410668 208.677405 
L 310.117763 208.677405 
L 310.117763 208.216429 
L 315.754545 208.216429 
L 315.754545 207.755452 
L 323.997305 207.755452 
L 323.997305 207.294476 
L 333.429677 207.294476 
L 333.429677 207.294476 
" style="fill:none;stroke:#999999;stroke-linecap:square;stroke-width:1.5;"/>
   </g>
   <g id="line2d_30"/>
   <g id="line2d_31">
    <path d="M 0 0 
" style="fill:none;stroke:#999999;stroke-linecap:square;stroke-width:1.5;"/>
   </g>
   <g id="line2d_32">
    <path clip-path="url(#pba0c70d291)" d="M 254.198823 218.818887 
" style="fill:none;stroke:#999999;stroke-linecap:square;stroke-width:1.5;"/>
    <defs>
     <path d="M -12 12 
L 12 -12 
M -12 -12 
L 12 12 
" id="m0590deb24b" style="stroke:#999999;stroke-width:3;"/>
    </defs>
    <g clip-path="url(#pba0c70d291)">
     <use style="fill:#999999;stroke:#999999;stroke-width:3;" x="254.198823" xlink:href="#m0590deb24b" y="218.818887"/>
    </g>
   </g>
   <g id="line2d_33">
    <path clip-path="url(#pba0c70d291)" d="M 56.12 294.88 
L 56.12 294.88 
L 56.12 294.88 
L 56.12 294.88 
L 399.984 294.88 
" style="fill:none;stroke:#999999;stroke-linecap:square;stroke-width:1.5;"/>
   </g>
   <g id="line2d_34"/>
   <g id="line2d_35">
    <path clip-path="url(#pba0c70d291)" d="M 0 0 
" style="fill:none;stroke:#999999;stroke-linecap:square;stroke-width:1.5;"/>
   </g>
   <g id="line2d_36">
    <g>
     <use style="fill:#999999;stroke:#999999;" x="291.61408" xlink:href="#m52a237646f" y="239.562827"/>
     <use style="fill:#999999;stroke:#999999;" x="291.61408" xlink:href="#m52a237646f" y="239.562827"/>
    </g>
   </g>
   <g id="line2d_37">
    <path d="M -1 292.575118 
L 4.578827 292.575118 
L 4.578827 289.809259 
L 11.5548 289.809259 
L 11.5548 288.42633 
L 20.343487 288.42633 
L 20.343487 287.504377 
L 23.480305 287.504377 
L 23.480305 286.121448 
L 35.405809 286.121448 
L 35.405809 285.660471 
L 36.782933 285.660471 
L 36.782933 283.816565 
L 39.244964 283.816565 
L 39.244964 283.355589 
L 45.834294 283.355589 
L 45.834294 281.97266 
L 53.323884 281.97266 
L 53.323884 281.050707 
L 57.759799 281.050707 
L 57.759799 280.128754 
L 58.894597 280.128754 
L 58.894597 279.667777 
L 61.598954 279.667777 
L 61.598954 278.745825 
L 64.994496 278.745825 
L 64.994496 278.284848 
L 68.259232 278.284848 
L 68.259232 277.823872 
L 76.265745 277.823872 
L 76.265745 277.362895 
L 82.836878 277.362895 
L 82.836878 276.440942 
L 102.422477 276.440942 
L 102.422477 275.518989 
L 102.654196 275.518989 
L 102.654196 274.13606 
L 105.680371 274.13606 
L 105.75261 271.831178 
L 110.472337 271.831178 
L 110.472337 271.370201 
L 117.821689 271.370201 
L 117.821689 270.448249 
L 119.725902 270.448249 
L 119.757871 268.604343 
L 131.715286 268.604343 
L 131.715286 268.143366 
L 133.73346 268.143366 
L 133.73346 266.760437 
L 137.17394 266.760437 
L 137.17394 266.299461 
L 145.710864 266.299461 
L 145.710864 265.838484 
L 146.189389 265.838484 
L 146.189389 265.377508 
L 147.48632 265.377508 
L 147.48632 264.916531 
L 159.116105 264.916531 
L 159.116105 264.455555 
L 161.884263 264.455555 
L 161.884263 263.994578 
L 167.190968 263.994578 
L 167.190968 262.611649 
L 172.456434 262.611649 
L 172.456434 261.689696 
L 175.425794 261.689696 
L 175.425794 261.22872 
L 185.763311 261.22872 
L 185.763311 260.767743 
L 191.523344 260.767743 
L 191.523344 259.384814 
L 192.246352 259.384814 
L 192.246352 258.923837 
L 193.536398 258.923837 
L 193.536398 258.001885 
L 196.580123 258.001885 
L 196.580123 257.540908 
L 212.261967 257.540908 
L 212.261967 256.157979 
L 216.619778 256.157979 
L 216.619778 254.77505 
L 217.594807 254.77505 
L 217.594807 253.853097 
L 218.826372 253.853097 
L 218.880701 252.931144 
L 221.227702 252.931144 
L 221.227702 252.470167 
L 227.307804 252.470167 
L 227.307804 250.626262 
L 234.389309 250.626262 
L 234.389309 250.165285 
L 239.638242 250.165285 
L 239.638242 249.704309 
L 241.874722 249.704309 
L 241.874722 249.243332 
L 244.888815 249.243332 
L 244.888815 248.782356 
L 250.103377 248.782356 
L 250.103377 248.321379 
L 250.352878 248.321379 
L 250.352878 247.399426 
L 254.278582 247.399426 
L 254.334852 246.016497 
L 254.697314 246.016497 
L 254.697314 245.555521 
L 254.924397 245.555521 
L 254.924397 245.094544 
L 255.425022 245.094544 
L 255.425022 244.172591 
L 262.091219 244.172591 
L 262.091219 243.250638 
L 264.308329 243.250638 
L 264.308329 242.789662 
L 264.887101 242.789662 
L 264.887101 242.328686 
L 267.190946 242.328686 
L 267.190946 241.867709 
L 273.300067 241.867709 
L 273.300067 241.406733 
L 277.165528 241.406733 
L 277.165528 240.945756 
L 278.805693 240.945756 
L 278.805693 240.48478 
L 291.61408 240.48478 
L 291.61408 239.562827 
L 333.429677 239.562827 
L 333.429677 239.562827 
" style="fill:none;stroke:#999999;stroke-linecap:square;stroke-width:1.5;"/>
   </g>
   <g id="line2d_38"/>
   <g id="line2d_39">
    <path d="M 0 0 
" style="fill:none;stroke:#999999;stroke-linecap:square;stroke-width:1.5;"/>
   </g>
   <g id="line2d_40">
    <path clip-path="url(#pba0c70d291)" d="M 254.198341 247.399426 
" style="fill:none;stroke:#999999;stroke-linecap:square;stroke-width:1.5;"/>
    <g clip-path="url(#pba0c70d291)">
     <use style="fill:#999999;stroke:#999999;stroke-width:3;" x="254.198341" xlink:href="#m0590deb24b" y="247.399426"/>
    </g>
   </g>
   <g id="line2d_41">
    <g>
     <use style="fill:#999999;stroke:#999999;" x="331.793067" xlink:href="#m52a237646f" y="239.562827"/>
     <use style="fill:#999999;stroke:#999999;" x="331.793067" xlink:href="#m52a237646f" y="239.562827"/>
    </g>
   </g>
   <g id="line2d_42">
    <path d="M -1 293.958047 
L 30.456278 293.958047 
L 30.456278 291.653165 
L 39.244964 291.653165 
L 39.244964 291.192188 
L 41.398379 291.192188 
L 41.398379 289.348283 
L 42.381782 289.348283 
L 42.381782 283.355589 
L 47.331314 283.355589 
L 47.331314 282.894612 
L 48.708438 282.894612 
L 48.708438 282.433636 
L 57.364267 282.433636 
L 57.364267 281.511683 
L 59.256818 281.511683 
L 59.256818 281.050707 
L 69.088543 281.050707 
L 69.088543 280.128754 
L 71.884659 280.128754 
L 71.884659 279.667777 
L 96.979936 279.667777 
L 96.979936 279.206801 
L 107.832367 279.206801 
L 107.832367 278.284848 
L 112.872157 278.284848 
L 112.872157 277.362895 
L 116.159237 277.362895 
L 116.159237 275.979966 
L 116.58695 275.979966 
L 116.58695 274.597037 
L 117.016778 274.597037 
L 117.016778 274.13606 
L 122.972587 274.13606 
L 122.972587 273.675084 
L 127.477015 273.675084 
L 127.477015 273.214107 
L 142.701713 273.214107 
L 142.701713 272.753131 
L 144.094369 272.753131 
L 144.094369 271.370201 
L 157.886583 271.370201 
L 157.886583 270.909225 
L 162.32751 270.909225 
L 162.32751 270.448249 
L 162.861633 270.448249 
L 162.861633 269.987272 
L 166.003955 269.987272 
L 166.003955 269.526296 
L 172.523492 269.526296 
L 172.523492 269.065319 
L 173.873137 269.065319 
L 173.873137 268.604343 
L 191.453205 268.604343 
L 191.453205 268.143366 
L 194.64608 268.143366 
L 194.64608 267.221413 
L 199.308707 267.221413 
L 199.308707 265.838484 
L 205.011637 265.838484 
L 205.011637 265.377508 
L 206.268125 265.377508 
L 206.268125 263.533602 
L 207.732651 263.533602 
L 207.732651 263.072625 
L 210.324739 263.072625 
L 210.324739 262.150673 
L 222.985328 262.150673 
L 222.985328 261.689696 
L 240.43802 261.689696 
L 240.43802 260.306767 
L 242.831172 260.306767 
L 242.831172 259.384814 
L 244.977432 259.384814 
L 244.977432 258.923837 
L 253.100187 258.923837 
L 253.100187 258.462861 
L 256.993743 258.462861 
L 256.993743 258.001885 
L 266.833163 258.001885 
L 266.833163 257.540908 
L 271.855078 257.540908 
L 271.855078 256.618955 
L 278.991023 256.618955 
L 278.991023 256.157979 
L 287.598168 256.157979 
L 287.598168 255.236026 
L 291.310567 255.236026 
L 291.310567 253.39212 
L 292.8616 253.39212 
L 292.8616 252.931144 
L 293.82893 252.931144 
L 293.919797 251.548214 
L 294.238917 251.548214 
L 294.238917 251.087238 
L 295.337582 251.087238 
L 295.337582 250.626262 
L 297.071096 250.626262 
L 297.071096 250.165285 
L 297.479536 250.165285 
L 297.479536 249.704309 
L 299.422667 249.704309 
L 299.422667 248.782356 
L 302.91079 248.782356 
L 302.91079 248.321379 
L 305.269899 248.321379 
L 305.269899 247.399426 
L 305.757819 247.399426 
L 305.764806 246.477474 
L 305.914365 246.477474 
L 305.984831 245.555521 
L 306.739911 245.555521 
L 306.739911 245.094544 
L 307.669711 245.094544 
L 307.669711 244.633568 
L 310.88225 244.633568 
L 310.88225 244.172591 
L 312.403838 244.172591 
L 312.403838 243.711615 
L 312.87942 243.711615 
L 312.87942 243.250638 
L 316.308726 243.250638 
L 316.308726 242.789662 
L 317.788114 242.789662 
L 317.788114 242.328686 
L 318.657171 242.328686 
L 318.657171 241.867709 
L 321.819872 241.867709 
L 321.819872 241.406733 
L 323.748778 241.406733 
L 323.748778 240.48478 
L 324.723153 240.48478 
L 324.723153 240.023803 
L 331.793067 240.023803 
L 331.793067 239.562827 
L 333.429677 239.562827 
L 333.429677 239.562827 
" style="fill:none;stroke:#999999;stroke-linecap:square;stroke-width:1.5;"/>
   </g>
   <g id="line2d_43"/>
   <g id="line2d_44">
    <path d="M 0 0 
" style="fill:none;stroke:#999999;stroke-linecap:square;stroke-width:1.5;"/>
   </g>
   <g id="line2d_45">
    <path clip-path="url(#pba0c70d291)" d="M 293.814009 252.931144 
" style="fill:none;stroke:#999999;stroke-linecap:square;stroke-width:1.5;"/>
    <g clip-path="url(#pba0c70d291)">
     <use style="fill:#999999;stroke:#999999;stroke-width:3;" x="293.814009" xlink:href="#m0590deb24b" y="252.931144"/>
    </g>
   </g>
   <g id="line2d_46">
    <g>
     <use style="fill:#999999;stroke:#999999;" x="293.678435" xlink:href="#m52a237646f" y="188.855418"/>
     <use style="fill:#999999;stroke:#999999;" x="293.678435" xlink:href="#m52a237646f" y="188.855418"/>
    </g>
   </g>
   <g id="line2d_47">
    <path d="M 137.108043 294.88 
L 137.108043 294.419024 
L 143.730882 294.419024 
L 143.730882 293.497071 
L 146.069846 293.497071 
L 146.069846 293.036094 
L 147.164644 293.036094 
L 147.164644 292.575118 
L 147.737306 292.575118 
L 147.737306 291.653165 
L 148.372426 291.653165 
L 148.473027 289.348283 
L 148.947893 289.348283 
L 148.947893 288.887306 
L 149.178574 288.887306 
L 149.178574 288.42633 
L 149.824824 288.42633 
L 149.865577 287.504377 
L 150.260646 287.504377 
L 150.313003 285.660471 
L 151.343312 285.660471 
L 151.343312 285.199495 
L 151.586089 285.199495 
L 151.586089 284.277542 
L 152.050199 284.277542 
L 152.147696 281.97266 
L 152.40821 281.97266 
L 152.40821 281.511683 
L 152.813568 281.511683 
L 152.822919 280.128754 
L 153.07655 280.128754 
L 153.07655 279.667777 
L 153.346155 279.667777 
L 153.346155 279.206801 
L 153.569881 279.206801 
L 153.569881 278.745825 
L 153.95344 278.745825 
L 153.95344 277.362895 
L 155.114076 277.362895 
L 155.201134 275.979966 
L 155.232313 275.979966 
L 155.232313 274.597037 
L 155.392736 274.597037 
L 155.392736 273.675084 
L 155.789335 273.675084 
L 155.789335 273.214107 
L 156.102478 273.214107 
L 156.102478 272.753131 
L 156.366967 272.753131 
L 156.366967 272.292154 
L 156.626203 272.292154 
L 156.626203 271.370201 
L 157.963024 271.370201 
L 157.990736 270.448249 
L 158.14808 270.448249 
L 158.14808 269.987272 
L 158.401155 269.987272 
L 158.401155 268.604343 
L 158.625005 268.604343 
L 158.625005 268.143366 
L 159.336236 268.143366 
L 159.336236 267.221413 
L 160.164229 267.221413 
L 160.164229 265.377508 
L 160.734276 265.377508 
L 160.734276 264.916531 
L 161.097338 264.916531 
L 161.097338 264.455555 
L 163.552561 264.455555 
L 163.552561 263.994578 
L 164.109619 263.994578 
L 164.109619 262.611649 
L 164.732836 262.611649 
L 164.732836 262.150673 
L 164.882664 262.150673 
L 164.882664 261.22872 
L 165.857777 261.22872 
L 165.857777 260.767743 
L 165.981491 260.767743 
L 165.981491 259.84579 
L 166.163257 259.84579 
L 166.163257 258.923837 
L 166.677127 258.923837 
L 166.677127 257.540908 
L 167.973172 257.540908 
L 167.973172 257.079932 
L 168.317812 257.079932 
L 168.317812 256.157979 
L 169.172366 256.157979 
L 169.172366 255.236026 
L 172.09939 255.236026 
L 172.148609 253.39212 
L 173.673051 253.39212 
L 173.682786 252.009191 
L 174.309414 252.009191 
L 174.309414 251.087238 
L 176.374937 251.087238 
L 176.374937 250.626262 
L 178.473315 250.626262 
L 178.4933 249.704309 
L 182.582436 249.704309 
L 182.582436 249.243332 
L 183.393792 249.243332 
L 183.393792 248.321379 
L 184.3301 248.321379 
L 184.3301 247.860403 
L 186.784858 247.860403 
L 186.787022 246.93845 
L 190.39303 246.93845 
L 190.39303 246.477474 
L 190.961187 246.477474 
L 190.961187 245.555521 
L 194.017659 245.555521 
L 194.017659 243.250638 
L 194.464509 243.250638 
L 194.464509 242.328686 
L 197.255217 242.328686 
L 197.255217 240.945756 
L 197.510491 240.945756 
L 197.510491 240.48478 
L 198.105481 240.48478 
L 198.105481 238.640874 
L 201.645243 238.640874 
L 201.645243 237.718921 
L 202.190936 237.718921 
L 202.190936 237.257945 
L 202.435089 237.257945 
L 202.435089 236.796968 
L 203.939564 236.796968 
L 203.939564 235.414039 
L 204.094721 235.414039 
L 204.094721 234.953062 
L 206.763731 234.953062 
L 206.763731 234.03111 
L 206.911284 234.03111 
L 206.911284 233.570133 
L 215.635101 233.570133 
L 215.635101 232.187204 
L 218.956655 232.187204 
L 218.956655 231.265251 
L 220.984508 231.265251 
L 220.984508 230.343298 
L 222.010649 230.343298 
L 222.052161 229.421345 
L 222.439153 229.421345 
L 222.439153 227.116463 
L 223.258608 227.116463 
L 223.258608 226.655487 
L 226.638077 226.655487 
L 226.638077 224.350604 
L 227.746922 224.350604 
L 227.757005 222.045722 
L 228.481066 222.045722 
L 228.481066 221.584746 
L 228.928913 221.584746 
L 228.928913 221.123769 
L 230.30418 221.123769 
L 230.30418 220.201816 
L 232.226992 220.201816 
L 232.226992 218.818887 
L 233.390127 218.818887 
L 233.390127 218.357911 
L 237.17896 218.357911 
L 237.17896 217.435958 
L 237.441827 217.435958 
L 237.51283 215.592052 
L 239.59783 215.592052 
L 239.59783 214.670099 
L 241.732553 214.670099 
L 241.732553 212.365217 
L 242.706756 212.365217 
L 242.706756 211.90424 
L 243.534516 211.90424 
L 243.534516 210.982287 
L 243.945028 210.982287 
L 243.945028 210.521311 
L 244.589859 210.521311 
L 244.597436 208.216429 
L 245.781512 208.216429 
L 245.781512 207.755452 
L 245.9885 207.755452 
L 245.9885 206.833499 
L 246.184896 206.833499 
L 246.184896 206.372523 
L 247.54459 206.372523 
L 247.54459 205.911547 
L 248.408111 205.911547 
L 248.408111 203.606664 
L 249.392789 203.606664 
L 249.392789 203.145688 
L 249.786444 203.145688 
L 249.786444 201.762759 
L 252.308458 201.762759 
L 252.308458 200.379829 
L 252.493061 200.379829 
L 252.493061 199.918853 
L 252.791978 199.918853 
L 252.791978 199.457876 
L 253.819227 199.457876 
L 253.819227 197.613971 
L 258.430216 197.613971 
L 258.430216 197.152994 
L 259.638048 197.152994 
L 259.729191 196.231041 
L 262.579515 196.231041 
L 262.579515 195.770065 
L 263.116641 195.770065 
L 263.116641 194.848112 
L 265.292324 194.848112 
L 265.292324 194.387136 
L 265.43503 194.387136 
L 265.43503 193.465183 
L 269.057795 193.465183 
L 269.057795 193.004206 
L 271.1545 193.004206 
L 271.1545 192.082253 
L 277.41198 192.082253 
L 277.41198 191.621277 
L 277.595983 191.621277 
L 277.638612 190.699324 
L 281.560703 190.699324 
L 281.616279 189.777371 
L 289.770711 189.777371 
L 289.770711 189.316395 
L 293.678435 189.316395 
L 293.678435 188.855418 
L 333.429677 188.855418 
L 333.429677 188.855418 
" style="fill:none;stroke:#999999;stroke-linecap:square;stroke-width:1.5;"/>
   </g>
   <g id="line2d_48"/>
   <g id="line2d_49">
    <path d="M 0 0 
" style="fill:none;stroke:#999999;stroke-linecap:square;stroke-width:1.5;"/>
   </g>
   <g id="line2d_50">
    <path clip-path="url(#pba0c70d291)" d="M 254.198341 197.613971 
" style="fill:none;stroke:#999999;stroke-linecap:square;stroke-width:1.5;"/>
    <g clip-path="url(#pba0c70d291)">
     <use style="fill:#999999;stroke:#999999;stroke-width:3;" x="254.198341" xlink:href="#m0590deb24b" y="197.613971"/>
    </g>
   </g>
   <g id="line2d_51">
    <g>
     <use style="fill:#999999;stroke:#999999;" x="287.691919" xlink:href="#m52a237646f" y="230.343298"/>
     <use style="fill:#999999;stroke:#999999;" x="287.691919" xlink:href="#m52a237646f" y="230.343298"/>
    </g>
   </g>
   <g id="line2d_52">
    <path d="M 131.06556 294.88 
L 131.06556 293.958047 
L 133.336719 293.958047 
L 133.336719 293.497071 
L 133.865262 293.497071 
L 133.865262 293.036094 
L 134.902507 293.036094 
L 134.902507 292.575118 
L 137.018485 292.575118 
L 137.073054 290.731212 
L 137.60566 290.731212 
L 137.60566 289.809259 
L 138.867467 289.809259 
L 138.867467 288.42633 
L 139.692364 288.42633 
L 139.692364 287.965353 
L 140.283654 287.965353 
L 140.348116 287.0434 
L 140.552786 287.0434 
L 140.552786 286.582424 
L 140.89274 286.582424 
L 140.89274 285.660471 
L 141.474973 285.660471 
L 141.474973 284.738518 
L 142.933028 284.738518 
L 142.933028 283.355589 
L 143.964501 283.355589 
L 144.013967 281.97266 
L 144.076247 281.97266 
L 144.138302 281.050707 
L 145.545181 281.050707 
L 145.571323 279.667777 
L 146.659422 279.667777 
L 146.759444 278.284848 
L 146.88971 278.284848 
L 146.88971 277.823872 
L 147.095235 277.823872 
L 147.095235 277.362895 
L 147.84376 277.362895 
L 147.84376 276.901919 
L 148.533107 276.901919 
L 148.596962 274.13606 
L 148.654627 274.13606 
L 148.654627 272.753131 
L 150.743815 272.753131 
L 150.743815 272.292154 
L 150.925694 272.292154 
L 150.925694 271.831178 
L 151.355193 271.831178 
L 151.355193 271.370201 
L 152.783925 271.370201 
L 152.783925 270.448249 
L 153.47414 270.448249 
L 153.47414 269.987272 
L 153.995697 269.987272 
L 153.995697 268.604343 
L 154.19393 268.604343 
L 154.211185 267.221413 
L 154.732113 267.221413 
L 154.732113 266.760437 
L 155.207917 266.760437 
L 155.207917 266.299461 
L 155.549017 266.299461 
L 155.549017 264.455555 
L 156.211577 264.455555 
L 156.211577 263.994578 
L 158.332297 263.994578 
L 158.395522 261.689696 
L 158.510086 261.689696 
L 158.510086 261.22872 
L 158.866826 261.22872 
L 158.866826 260.767743 
L 160.438608 260.767743 
L 160.438608 260.306767 
L 160.669229 260.306767 
L 160.669229 259.384814 
L 160.827475 259.384814 
L 160.827475 258.462861 
L 161.231654 258.462861 
L 161.231654 257.079932 
L 162.212349 257.079932 
L 162.295199 254.314073 
L 163.001021 254.314073 
L 163.001021 253.853097 
L 164.083729 253.853097 
L 164.152414 252.470167 
L 164.968247 252.470167 
L 164.968247 252.009191 
L 165.546032 252.009191 
L 165.546032 250.626262 
L 165.835122 250.626262 
L 165.835122 249.704309 
L 166.610843 249.704309 
L 166.610843 249.243332 
L 168.842745 249.243332 
L 168.842745 247.860403 
L 254.21735 247.860403 
L 254.299239 236.796968 
L 266.149255 236.796968 
L 266.197392 233.109157 
L 273.118364 233.109157 
L 273.13352 232.187204 
L 281.899546 232.187204 
L 281.908735 230.804274 
L 287.691919 230.804274 
L 287.691919 230.343298 
L 333.429677 230.343298 
L 333.429677 230.343298 
" style="fill:none;stroke:#999999;stroke-linecap:square;stroke-width:1.5;"/>
   </g>
   <g id="line2d_53"/>
   <g id="line2d_54">
    <path d="M 0 0 
" style="fill:none;stroke:#999999;stroke-linecap:square;stroke-width:1.5;"/>
   </g>
   <g id="line2d_55">
    <path clip-path="url(#pba0c70d291)" d="M 254.198345 247.860403 
" style="fill:none;stroke:#999999;stroke-linecap:square;stroke-width:1.5;"/>
    <g clip-path="url(#pba0c70d291)">
     <use style="fill:#999999;stroke:#999999;stroke-width:3;" x="254.198345" xlink:href="#m0590deb24b" y="247.860403"/>
    </g>
   </g>
   <g id="line2d_56">
    <g>
     <use style="fill:#999999;stroke:#999999;" x="319.259795" xlink:href="#m52a237646f" y="207.294476"/>
     <use style="fill:#999999;stroke:#999999;" x="319.259795" xlink:href="#m52a237646f" y="207.294476"/>
    </g>
   </g>
   <g id="line2d_57">
    <path d="M 124.670099 294.88 
L 124.670099 293.497071 
L 126.18578 293.497071 
L 126.18578 293.036094 
L 126.396975 293.036094 
L 126.396975 291.653165 
L 127.209843 291.653165 
L 127.209843 290.731212 
L 127.381584 290.731212 
L 127.381584 290.270236 
L 127.760174 290.270236 
L 127.760174 289.348283 
L 129.208646 289.348283 
L 129.208646 288.887306 
L 129.627631 288.887306 
L 129.699468 287.504377 
L 130.147598 287.504377 
L 130.252046 286.121448 
L 131.306651 286.121448 
L 131.306651 285.660471 
L 131.757741 285.660471 
L 131.757741 283.816565 
L 131.91602 283.816565 
L 131.91602 282.894612 
L 132.377193 282.894612 
L 132.377193 282.433636 
L 132.816361 282.433636 
L 132.816361 281.97266 
L 133.42835 281.97266 
L 133.42835 281.050707 
L 134.314211 281.050707 
L 134.396248 279.206801 
L 134.446189 279.206801 
L 134.446189 278.284848 
L 134.613119 278.284848 
L 134.648999 276.901919 
L 135.178422 276.901919 
L 135.178422 276.440942 
L 135.963975 276.440942 
L 135.963975 274.597037 
L 136.345728 274.597037 
L 136.345728 273.675084 
L 136.826118 273.675084 
L 136.826118 272.753131 
L 136.975487 272.753131 
L 136.975487 271.831178 
L 137.115809 271.831178 
L 137.115809 271.370201 
L 137.228019 271.370201 
L 137.228019 270.448249 
L 138.08195 270.448249 
L 138.08195 269.987272 
L 138.376679 269.987272 
L 138.376679 269.065319 
L 138.541836 269.065319 
L 138.541836 268.604343 
L 138.712499 268.604343 
L 138.776064 266.299461 
L 140.0692 266.299461 
L 140.0692 265.838484 
L 140.425153 265.838484 
L 140.425153 265.377508 
L 140.606745 265.377508 
L 140.606745 264.455555 
L 140.976689 264.455555 
L 140.976689 263.994578 
L 141.201633 263.994578 
L 141.201633 263.072625 
L 141.396453 263.072625 
L 141.396453 262.150673 
L 142.1167 262.150673 
L 142.1167 261.689696 
L 142.252593 261.689696 
L 142.292865 259.84579 
L 142.704518 259.84579 
L 142.704518 258.923837 
L 143.531519 258.923837 
L 143.638133 256.157979 
L 143.990553 256.157979 
L 144.091782 254.314073 
L 144.277114 254.314073 
L 144.277114 253.853097 
L 145.065261 253.853097 
L 145.160376 252.931144 
L 145.179822 252.931144 
L 145.179822 251.548214 
L 145.91924 251.548214 
L 145.91924 251.087238 
L 146.558815 251.087238 
L 146.558815 250.626262 
L 147.758231 250.626262 
L 147.839598 248.782356 
L 147.976425 248.782356 
L 148.003248 246.93845 
L 149.293721 246.93845 
L 149.293721 245.555521 
L 149.932055 245.555521 
L 149.932055 245.094544 
L 150.049607 245.094544 
L 150.049607 244.172591 
L 150.202686 244.172591 
L 150.264262 243.250638 
L 150.979538 243.250638 
L 150.979538 242.789662 
L 151.312723 242.789662 
L 151.312723 242.328686 
L 152.223684 242.328686 
L 152.223684 241.867709 
L 156.284352 241.867709 
L 156.284352 241.406733 
L 163.260325 241.406733 
L 163.260325 240.48478 
L 166.132377 240.48478 
L 166.173299 238.640874 
L 193.842655 238.640874 
L 193.842655 237.257945 
L 197.775519 237.257945 
L 197.775519 236.335992 
L 205.196841 236.335992 
L 205.196841 235.414039 
L 208.829368 235.414039 
L 208.829368 234.492086 
L 213.458756 234.492086 
L 213.458756 234.03111 
L 215.073346 234.03111 
L 215.073346 232.64818 
L 217.568611 232.64818 
L 217.568611 231.265251 
L 219.140959 231.265251 
L 219.140959 229.421345 
L 252.096439 229.421345 
L 252.204156 226.655487 
L 254.285251 226.655487 
L 254.300992 225.733534 
L 254.706149 225.733534 
L 254.706149 224.811581 
L 254.834183 224.811581 
L 254.834183 223.889628 
L 256.30619 223.889628 
L 256.30619 223.428651 
L 265.104975 223.428651 
L 265.155632 222.045722 
L 266.444706 222.045722 
L 266.444706 221.584746 
L 272.427321 221.584746 
L 272.460436 219.74084 
L 273.611309 219.74084 
L 273.611309 218.357911 
L 277.547458 218.357911 
L 277.547458 216.974981 
L 278.177717 216.974981 
L 278.177717 216.514005 
L 281.507735 216.514005 
L 281.507735 216.053028 
L 284.708604 216.053028 
L 284.708604 215.592052 
L 287.392466 215.592052 
L 287.392466 214.670099 
L 287.898542 214.670099 
L 287.898542 214.209123 
L 289.725741 214.209123 
L 289.725741 213.748146 
L 291.780041 213.748146 
L 291.780041 212.365217 
L 292.173491 212.365217 
L 292.173491 211.90424 
L 293.615009 211.90424 
L 293.615009 210.982287 
L 298.447348 210.982287 
L 298.447348 210.521311 
L 300.657573 210.521311 
L 300.657573 210.060335 
L 303.034776 210.060335 
L 303.034776 209.138382 
L 304.938802 209.138382 
L 304.938802 208.677405 
L 306.652953 208.677405 
L 306.652953 208.216429 
L 308.057862 208.216429 
L 308.057862 207.755452 
L 319.259795 207.755452 
L 319.259795 207.294476 
L 333.429677 207.294476 
L 333.429677 207.294476 
" style="fill:none;stroke:#999999;stroke-linecap:square;stroke-width:1.5;"/>
   </g>
   <g id="line2d_58"/>
   <g id="line2d_59">
    <path d="M 0 0 
" style="fill:none;stroke:#999999;stroke-linecap:square;stroke-width:1.5;"/>
   </g>
   <g id="line2d_60">
    <path clip-path="url(#pba0c70d291)" d="M 254.198345 226.655487 
" style="fill:none;stroke:#999999;stroke-linecap:square;stroke-width:1.5;"/>
    <g clip-path="url(#pba0c70d291)">
     <use style="fill:#999999;stroke:#999999;stroke-width:3;" x="254.198345" xlink:href="#m0590deb24b" y="226.655487"/>
    </g>
   </g>
   <g id="line2d_61">
    <path d="M 333.429677 294.88 
L 333.429677 27.513663 
" style="fill:none;stroke:#000000;stroke-linecap:square;stroke-width:1.5;"/>
   </g>
   <g id="patch_3">
    <path d="M 56.12 294.88 
L 56.12 24.84 
" style="fill:none;stroke:#000000;stroke-linecap:square;stroke-linejoin:miter;stroke-width:0.8;"/>
   </g>
   <g id="patch_4">
    <path d="M 399.984 294.88 
L 399.984 24.84 
" style="fill:none;stroke:#000000;stroke-linecap:square;stroke-linejoin:miter;stroke-width:0.8;"/>
   </g>
   <g id="patch_5">
    <path d="M 56.12 294.88 
L 399.984 294.88 
" style="fill:none;stroke:#000000;stroke-linecap:square;stroke-linejoin:miter;stroke-width:0.8;"/>
   </g>
   <g id="patch_6">
    <path d="M 56.12 24.84 
L 399.984 24.84 
" style="fill:none;stroke:#000000;stroke-linecap:square;stroke-linejoin:miter;stroke-width:0.8;"/>
   </g>
   <g id="text_14">
    <!-- best 2016 -->
    <defs>
     <path d="M 48.6875 27.296875 
Q 48.6875 37.203125 44.609375 42.84375 
Q 40.53125 48.484375 33.40625 48.484375 
Q 26.265625 48.484375 22.1875 42.84375 
Q 18.109375 37.203125 18.109375 27.296875 
Q 18.109375 17.390625 22.1875 11.75 
Q 26.265625 6.109375 33.40625 6.109375 
Q 40.53125 6.109375 44.609375 11.75 
Q 48.6875 17.390625 48.6875 27.296875 
z
M 18.109375 46.390625 
Q 20.953125 51.265625 25.265625 53.625 
Q 29.59375 56 35.59375 56 
Q 45.5625 56 51.78125 48.09375 
Q 58.015625 40.1875 58.015625 27.296875 
Q 58.015625 14.40625 51.78125 6.484375 
Q 45.5625 -1.421875 35.59375 -1.421875 
Q 29.59375 -1.421875 25.265625 0.953125 
Q 20.953125 3.328125 18.109375 8.203125 
L 18.109375 0 
L 9.078125 0 
L 9.078125 75.984375 
L 18.109375 75.984375 
z
" id="DejaVuSans-62"/>
    </defs>
    <g transform="translate(369.479935 294.223611)scale(0.17 -0.17)">
     <use xlink:href="#DejaVuSans-62"/>
     <use x="63.476562" xlink:href="#DejaVuSans-65"/>
     <use x="125" xlink:href="#DejaVuSans-73"/>
     <use x="177.099609" xlink:href="#DejaVuSans-74"/>
     <use x="216.308594" xlink:href="#DejaVuSans-20"/>
     <use x="248.095703" xlink:href="#DejaVuSans-32"/>
     <use x="311.71875" xlink:href="#DejaVuSans-30"/>
     <use x="375.341797" xlink:href="#DejaVuSans-31"/>
     <use x="438.964844" xlink:href="#DejaVuSans-36"/>
    </g>
   </g>
   <g id="text_15">
    <!-- bbob-biobj f11, 40-D -->
    <defs>
     <path d="M 9.421875 54.6875 
L 18.40625 54.6875 
L 18.40625 -0.984375 
Q 18.40625 -11.421875 14.421875 -16.109375 
Q 10.453125 -20.796875 1.609375 -20.796875 
L -1.8125 -20.796875 
L -1.8125 -13.1875 
L 0.59375 -13.1875 
Q 5.71875 -13.1875 7.5625 -10.8125 
Q 9.421875 -8.453125 9.421875 -0.984375 
z
M 9.421875 75.984375 
L 18.40625 75.984375 
L 18.40625 64.59375 
L 9.421875 64.59375 
z
" id="DejaVuSans-6a"/>
     <path d="M 19.671875 64.796875 
L 19.671875 8.109375 
L 31.59375 8.109375 
Q 46.6875 8.109375 53.6875 14.9375 
Q 60.6875 21.78125 60.6875 36.53125 
Q 60.6875 51.171875 53.6875 57.984375 
Q 46.6875 64.796875 31.59375 64.796875 
z
M 9.8125 72.90625 
L 30.078125 72.90625 
Q 51.265625 72.90625 61.171875 64.09375 
Q 71.09375 55.28125 71.09375 36.53125 
Q 71.09375 17.671875 61.125 8.828125 
Q 51.171875 0 30.078125 0 
L 9.8125 0 
z
" id="DejaVuSans-44"/>
    </defs>
    <g transform="translate(59.55864 35.290806)scale(0.102 -0.102)">
     <use xlink:href="#DejaVuSans-62"/>
     <use x="63.476562" xlink:href="#DejaVuSans-62"/>
     <use x="126.953125" xlink:href="#DejaVuSans-6f"/>
     <use x="188.134766" xlink:href="#DejaVuSans-62"/>
     <use x="251.611328" xlink:href="#DejaVuSans-2d"/>
     <use x="287.695312" xlink:href="#DejaVuSans-62"/>
     <use x="351.171875" xlink:href="#DejaVuSans-69"/>
     <use x="378.955078" xlink:href="#DejaVuSans-6f"/>
     <use x="440.136719" xlink:href="#DejaVuSans-62"/>
     <use x="503.613281" xlink:href="#DejaVuSans-6a"/>
     <use x="531.396484" xlink:href="#DejaVuSans-20"/>
     <use x="563.183594" xlink:href="#DejaVuSans-66"/>
     <use x="598.388672" xlink:href="#DejaVuSans-31"/>
     <use x="662.011719" xlink:href="#DejaVuSans-31"/>
     <use x="725.634766" xlink:href="#DejaVuSans-2c"/>
     <use x="757.421875" xlink:href="#DejaVuSans-20"/>
     <use x="789.208984" xlink:href="#DejaVuSans-34"/>
     <use x="852.832031" xlink:href="#DejaVuSans-30"/>
     <use x="916.455078" xlink:href="#DejaVuSans-2d"/>
     <use x="952.539062" xlink:href="#DejaVuSans-44"/>
    </g>
    <!-- 58 targets: 1..-1.0e-4 -->
    <defs>
     <path d="M 10.796875 72.90625 
L 49.515625 72.90625 
L 49.515625 64.59375 
L 19.828125 64.59375 
L 19.828125 46.734375 
Q 21.96875 47.46875 24.109375 47.828125 
Q 26.265625 48.1875 28.421875 48.1875 
Q 40.625 48.1875 47.75 41.5 
Q 54.890625 34.8125 54.890625 23.390625 
Q 54.890625 11.625 47.5625 5.09375 
Q 40.234375 -1.421875 26.90625 -1.421875 
Q 22.3125 -1.421875 17.546875 -0.640625 
Q 12.796875 0.140625 7.71875 1.703125 
L 7.71875 11.625 
Q 12.109375 9.234375 16.796875 8.0625 
Q 21.484375 6.890625 26.703125 6.890625 
Q 35.15625 6.890625 40.078125 11.328125 
Q 45.015625 15.765625 45.015625 23.390625 
Q 45.015625 31 40.078125 35.4375 
Q 35.15625 39.890625 26.703125 39.890625 
Q 22.75 39.890625 18.8125 39.015625 
Q 14.890625 38.140625 10.796875 36.28125 
z
" id="DejaVuSans-35"/>
     <path d="M 11.71875 12.40625 
L 22.015625 12.40625 
L 22.015625 0 
L 11.71875 0 
z
M 11.71875 51.703125 
L 22.015625 51.703125 
L 22.015625 39.3125 
L 11.71875 39.3125 
z
" id="DejaVuSans-3a"/>
    </defs>
    <g transform="translate(59.55864 46.712575)scale(0.102 -0.102)">
     <use xlink:href="#DejaVuSans-35"/>
     <use x="63.623047" xlink:href="#DejaVuSans-38"/>
     <use x="127.246094" xlink:href="#DejaVuSans-20"/>
     <use x="159.033203" xlink:href="#DejaVuSans-74"/>
     <use x="198.242188" xlink:href="#DejaVuSans-61"/>
     <use x="259.521484" xlink:href="#DejaVuSans-72"/>
     <use x="300.619141" xlink:href="#DejaVuSans-67"/>
     <use x="364.095703" xlink:href="#DejaVuSans-65"/>
     <use x="425.619141" xlink:href="#DejaVuSans-74"/>
     <use x="464.828125" xlink:href="#DejaVuSans-73"/>
     <use x="516.927734" xlink:href="#DejaVuSans-3a"/>
     <use x="550.619141" xlink:href="#DejaVuSans-20"/>
     <use x="582.40625" xlink:href="#DejaVuSans-31"/>
     <use x="646.029297" xlink:href="#DejaVuSans-2e"/>
     <use x="677.816406" xlink:href="#DejaVuSans-2e"/>
     <use x="709.603516" xlink:href="#DejaVuSans-2d"/>
     <use x="745.6875" xlink:href="#DejaVuSans-31"/>
     <use x="809.310547" xlink:href="#DejaVuSans-2e"/>
     <use x="841.097656" xlink:href="#DejaVuSans-30"/>
     <use x="904.720703" xlink:href="#DejaVuSans-65"/>
     <use x="966.244141" xlink:href="#DejaVuSans-2d"/>
     <use x="1002.328125" xlink:href="#DejaVuSans-34"/>
    </g>
    <!-- 10 instances -->
    <g transform="translate(59.55864 58.134344)scale(0.102 -0.102)">
     <use xlink:href="#DejaVuSans-31"/>
     <use x="63.623047" xlink:href="#DejaVuSans-30"/>
     <use x="127.246094" xlink:href="#DejaVuSans-20"/>
     <use x="159.033203" xlink:href="#DejaVuSans-69"/>
     <use x="186.816406" xlink:href="#DejaVuSans-6e"/>
     <use x="250.195312" xlink:href="#DejaVuSans-73"/>
     <use x="302.294922" xlink:href="#DejaVuSans-74"/>
     <use x="341.503906" xlink:href="#DejaVuSans-61"/>
     <use x="402.783203" xlink:href="#DejaVuSans-6e"/>
     <use x="466.162109" xlink:href="#DejaVuSans-63"/>
     <use x="521.142578" xlink:href="#DejaVuSans-65"/>
     <use x="582.666016" xlink:href="#DejaVuSans-73"/>
    </g>
   </g>
   <g id="text_16">
    <!-- v2.0.778, hv-hash=ff0e71e8cd978373 -->
    <defs>
     <path d="M 8.203125 72.90625 
L 55.078125 72.90625 
L 55.078125 68.703125 
L 28.609375 0 
L 18.3125 0 
L 43.21875 64.59375 
L 8.203125 64.59375 
z
" id="DejaVuSans-37"/>
     <path d="M 54.890625 33.015625 
L 54.890625 0 
L 45.90625 0 
L 45.90625 32.71875 
Q 45.90625 40.484375 42.875 44.328125 
Q 39.84375 48.1875 33.796875 48.1875 
Q 26.515625 48.1875 22.3125 43.546875 
Q 18.109375 38.921875 18.109375 30.90625 
L 18.109375 0 
L 9.078125 0 
L 9.078125 75.984375 
L 18.109375 75.984375 
L 18.109375 46.1875 
Q 21.34375 51.125 25.703125 53.5625 
Q 30.078125 56 35.796875 56 
Q 45.21875 56 50.046875 50.171875 
Q 54.890625 44.34375 54.890625 33.015625 
z
" id="DejaVuSans-68"/>
     <path d="M 10.59375 45.40625 
L 73.1875 45.40625 
L 73.1875 37.203125 
L 10.59375 37.203125 
z
M 10.59375 25.484375 
L 73.1875 25.484375 
L 73.1875 17.1875 
L 10.59375 17.1875 
z
" id="DejaVuSans-3d"/>
     <path d="M 10.984375 1.515625 
L 10.984375 10.5 
Q 14.703125 8.734375 18.5 7.8125 
Q 22.3125 6.890625 25.984375 6.890625 
Q 35.75 6.890625 40.890625 13.453125 
Q 46.046875 20.015625 46.78125 33.40625 
Q 43.953125 29.203125 39.59375 26.953125 
Q 35.25 24.703125 29.984375 24.703125 
Q 19.046875 24.703125 12.671875 31.3125 
Q 6.296875 37.9375 6.296875 49.421875 
Q 6.296875 60.640625 12.9375 67.421875 
Q 19.578125 74.21875 30.609375 74.21875 
Q 43.265625 74.21875 49.921875 64.515625 
Q 56.59375 54.828125 56.59375 36.375 
Q 56.59375 19.140625 48.40625 8.859375 
Q 40.234375 -1.421875 26.421875 -1.421875 
Q 22.703125 -1.421875 18.890625 -0.6875 
Q 15.09375 0.046875 10.984375 1.515625 
z
M 30.609375 32.421875 
Q 37.25 32.421875 41.125 36.953125 
Q 45.015625 41.5 45.015625 49.421875 
Q 45.015625 57.28125 41.125 61.84375 
Q 37.25 66.40625 30.609375 66.40625 
Q 23.96875 66.40625 20.09375 61.84375 
Q 16.21875 57.28125 16.21875 49.421875 
Q 16.21875 41.5 20.09375 36.953125 
Q 23.96875 32.421875 30.609375 32.421875 
z
" id="DejaVuSans-39"/>
     <path d="M 40.578125 39.3125 
Q 47.65625 37.796875 51.625 33 
Q 55.609375 28.21875 55.609375 21.1875 
Q 55.609375 10.40625 48.1875 4.484375 
Q 40.765625 -1.421875 27.09375 -1.421875 
Q 22.515625 -1.421875 17.65625 -0.515625 
Q 12.796875 0.390625 7.625 2.203125 
L 7.625 11.71875 
Q 11.71875 9.328125 16.59375 8.109375 
Q 21.484375 6.890625 26.8125 6.890625 
Q 36.078125 6.890625 40.9375 10.546875 
Q 45.796875 14.203125 45.796875 21.1875 
Q 45.796875 27.640625 41.28125 31.265625 
Q 36.765625 34.90625 28.71875 34.90625 
L 20.21875 34.90625 
L 20.21875 43.015625 
L 29.109375 43.015625 
Q 36.375 43.015625 40.234375 45.921875 
Q 44.09375 48.828125 44.09375 54.296875 
Q 44.09375 59.90625 40.109375 62.90625 
Q 36.140625 65.921875 28.71875 65.921875 
Q 24.65625 65.921875 20.015625 65.03125 
Q 15.375 64.15625 9.8125 62.3125 
L 9.8125 71.09375 
Q 15.4375 72.65625 20.34375 73.4375 
Q 25.25 74.21875 29.59375 74.21875 
Q 40.828125 74.21875 47.359375 69.109375 
Q 53.90625 64.015625 53.90625 55.328125 
Q 53.90625 49.265625 50.4375 45.09375 
Q 46.96875 40.921875 40.578125 39.3125 
z
" id="DejaVuSans-33"/>
    </defs>
    <g style="fill:#808080;" transform="translate(131.294188 290.099912)scale(0.1 -0.1)">
     <use xlink:href="#DejaVuSans-76"/>
     <use x="59.179688" xlink:href="#DejaVuSans-32"/>
     <use x="122.802734" xlink:href="#DejaVuSans-2e"/>
     <use x="154.589844" xlink:href="#DejaVuSans-30"/>
     <use x="218.212891" xlink:href="#DejaVuSans-2e"/>
     <use x="250" xlink:href="#DejaVuSans-37"/>
     <use x="313.623047" xlink:href="#DejaVuSans-37"/>
     <use x="377.246094" xlink:href="#DejaVuSans-38"/>
     <use x="440.869141" xlink:href="#DejaVuSans-2c"/>
     <use x="472.65625" xlink:href="#DejaVuSans-20"/>
     <use x="504.443359" xlink:href="#DejaVuSans-68"/>
     <use x="567.822266" xlink:href="#DejaVuSans-76"/>
     <use x="626.970703" xlink:href="#DejaVuSans-2d"/>
     <use x="663.054688" xlink:href="#DejaVuSans-68"/>
     <use x="726.433594" xlink:href="#DejaVuSans-61"/>
     <use x="787.712891" xlink:href="#DejaVuSans-73"/>
     <use x="839.8125" xlink:href="#DejaVuSans-68"/>
     <use x="903.191406" xlink:href="#DejaVuSans-3d"/>
     <use x="986.980469" xlink:href="#DejaVuSans-66"/>
     <use x="1022.185547" xlink:href="#DejaVuSans-66"/>
     <use x="1057.390625" xlink:href="#DejaVuSans-30"/>
     <use x="1121.013672" xlink:href="#DejaVuSans-65"/>
     <use x="1182.537109" xlink:href="#DejaVuSans-37"/>
     <use x="1246.160156" xlink:href="#DejaVuSans-31"/>
     <use x="1309.783203" xlink:href="#DejaVuSans-65"/>
     <use x="1371.306641" xlink:href="#DejaVuSans-38"/>
     <use x="1434.929688" xlink:href="#DejaVuSans-63"/>
     <use x="1489.910156" xlink:href="#DejaVuSans-64"/>
     <use x="1553.386719" xlink:href="#DejaVuSans-39"/>
     <use x="1617.009766" xlink:href="#DejaVuSans-37"/>
     <use x="1680.632812" xlink:href="#DejaVuSans-38"/>
     <use x="1744.255859" xlink:href="#DejaVuSans-33"/>
     <use x="1807.878906" xlink:href="#DejaVuSans-37"/>
     <use x="1871.501953" xlink:href="#DejaVuSans-33"/>
    </g>
   </g>
   <g id="text_17">
    <!-- 11 sep. Ellipsoid/sep. Ellipsoid -->
    <defs>
     <path d="M 9.8125 72.90625 
L 55.90625 72.90625 
L 55.90625 64.59375 
L 19.671875 64.59375 
L 19.671875 43.015625 
L 54.390625 43.015625 
L 54.390625 34.71875 
L 19.671875 34.71875 
L 19.671875 8.296875 
L 56.78125 8.296875 
L 56.78125 0 
L 9.8125 0 
z
" id="DejaVuSans-45"/>
    </defs>
    <g transform="translate(77.73325 18.84)scale(0.2 -0.2)">
     <use xlink:href="#DejaVuSans-31"/>
     <use x="63.623047" xlink:href="#DejaVuSans-31"/>
     <use x="127.246094" xlink:href="#DejaVuSans-20"/>
     <use x="159.033203" xlink:href="#DejaVuSans-73"/>
     <use x="211.132812" xlink:href="#DejaVuSans-65"/>
     <use x="272.65625" xlink:href="#DejaVuSans-70"/>
     <use x="336.132812" xlink:href="#DejaVuSans-2e"/>
     <use x="367.919922" xlink:href="#DejaVuSans-20"/>
     <use x="399.707031" xlink:href="#DejaVuSans-45"/>
     <use x="462.890625" xlink:href="#DejaVuSans-6c"/>
     <use x="490.673828" xlink:href="#DejaVuSans-6c"/>
     <use x="518.457031" xlink:href="#DejaVuSans-69"/>
     <use x="546.240234" xlink:href="#DejaVuSans-70"/>
     <use x="609.716797" xlink:href="#DejaVuSans-73"/>
     <use x="661.816406" xlink:href="#DejaVuSans-6f"/>
     <use x="722.998047" xlink:href="#DejaVuSans-69"/>
     <use x="750.78125" xlink:href="#DejaVuSans-64"/>
     <use x="814.257812" xlink:href="#DejaVuSans-2f"/>
     <use x="847.949219" xlink:href="#DejaVuSans-73"/>
     <use x="900.048828" xlink:href="#DejaVuSans-65"/>
     <use x="961.572266" xlink:href="#DejaVuSans-70"/>
     <use x="1025.048828" xlink:href="#DejaVuSans-2e"/>
     <use x="1056.835938" xlink:href="#DejaVuSans-20"/>
     <use x="1088.623047" xlink:href="#DejaVuSans-45"/>
     <use x="1151.806641" xlink:href="#DejaVuSans-6c"/>
     <use x="1179.589844" xlink:href="#DejaVuSans-6c"/>
     <use x="1207.373047" xlink:href="#DejaVuSans-69"/>
     <use x="1235.15625" xlink:href="#DejaVuSans-70"/>
     <use x="1298.632812" xlink:href="#DejaVuSans-73"/>
     <use x="1350.732422" xlink:href="#DejaVuSans-6f"/>
     <use x="1411.914062" xlink:href="#DejaVuSans-69"/>
     <use x="1439.697266" xlink:href="#DejaVuSans-64"/>
    </g>
   </g>
  </g>
 </g>
 <defs>
  <clipPath id="pba0c70d291">
   <rect height="270.04" width="343.864" x="56.12" y="24.84"/>
  </clipPath>
 </defs>
</svg>
