<?xml version="1.0" encoding="utf-8" standalone="no"?>
<!DOCTYPE svg PUBLIC "-//W3C//DTD SVG 1.1//EN"
  "http://www.w3.org/Graphics/SVG/1.1/DTD/svg11.dtd">
<!-- Created with matplotlib (http://matplotlib.org/) -->
<svg height="345.6pt" version="1.1" viewBox="0 0 460.8 345.6" width="460.8pt" xmlns="http://www.w3.org/2000/svg" xmlns:xlink="http://www.w3.org/1999/xlink">
 <defs>
  <style type="text/css">
*{stroke-linecap:butt;stroke-linejoin:round;}
  </style>
 </defs>
 <g id="figure_1">
  <g id="patch_1">
   <path d="M 0 345.6 
L 460.8 345.6 
L 460.8 0 
L 0 0 
z
" style="fill:#ffffff;"/>
  </g>
  <g id="axes_1">
   <g id="patch_2">
    <path d="M 56.12 294.88 
L 333.168 294.88 
L 333.168 24.84 
L 56.12 24.84 
z
" style="fill:#ffffff;"/>
   </g>
   <g id="matplotlib.axis_1">
    <g id="xtick_1">
     <g id="line2d_1">
      <path clip-path="url(#p62aeaad185)" d="M 56.12 294.88 
L 56.12 24.84 
" style="fill:none;stroke:#b0b0b0;stroke-linecap:square;stroke-width:0.8;"/>
     </g>
     <g id="line2d_2">
      <defs>
       <path d="M 0 0 
L 0 3.5 
" id="m3166d77b43" style="stroke:#000000;stroke-width:0.8;"/>
      </defs>
      <g>
       <use style="stroke:#000000;stroke-width:0.8;" x="56.12" xlink:href="#m3166d77b43" y="294.88"/>
      </g>
     </g>
     <g id="text_1">
      <!-- 0 -->
      <defs>
       <path d="M 31.78125 66.40625 
Q 24.171875 66.40625 20.328125 58.90625 
Q 16.5 51.421875 16.5 36.375 
Q 16.5 21.390625 20.328125 13.890625 
Q 24.171875 6.390625 31.78125 6.390625 
Q 39.453125 6.390625 43.28125 13.890625 
Q 47.125 21.390625 47.125 36.375 
Q 47.125 51.421875 43.28125 58.90625 
Q 39.453125 66.40625 31.78125 66.40625 
z
M 31.78125 74.21875 
Q 44.046875 74.21875 50.515625 64.515625 
Q 56.984375 54.828125 56.984375 36.375 
Q 56.984375 17.96875 50.515625 8.265625 
Q 44.046875 -1.421875 31.78125 -1.421875 
Q 19.53125 -1.421875 13.0625 8.265625 
Q 6.59375 17.96875 6.59375 36.375 
Q 6.59375 54.828125 13.0625 64.515625 
Q 19.53125 74.21875 31.78125 74.21875 
z
" id="DejaVuSans-30"/>
      </defs>
      <g transform="translate(49.7575 317.076875)scale(0.2 -0.2)">
       <use xlink:href="#DejaVuSans-30"/>
      </g>
     </g>
    </g>
    <g id="xtick_2">
     <g id="line2d_3">
      <path clip-path="url(#p62aeaad185)" d="M 135.276571 294.88 
L 135.276571 24.84 
" style="fill:none;stroke:#b0b0b0;stroke-linecap:square;stroke-width:0.8;"/>
     </g>
     <g id="line2d_4">
      <g>
       <use style="stroke:#000000;stroke-width:0.8;" x="135.276571" xlink:href="#m3166d77b43" y="294.88"/>
      </g>
     </g>
     <g id="text_2">
      <!-- 2 -->
      <defs>
       <path d="M 19.1875 8.296875 
L 53.609375 8.296875 
L 53.609375 0 
L 7.328125 0 
L 7.328125 8.296875 
Q 12.9375 14.109375 22.625 23.890625 
Q 32.328125 33.6875 34.8125 36.53125 
Q 39.546875 41.84375 41.421875 45.53125 
Q 43.3125 49.21875 43.3125 52.78125 
Q 43.3125 58.59375 39.234375 62.25 
Q 35.15625 65.921875 28.609375 65.921875 
Q 23.96875 65.921875 18.8125 64.3125 
Q 13.671875 62.703125 7.8125 59.421875 
L 7.8125 69.390625 
Q 13.765625 71.78125 18.9375 73 
Q 24.125 74.21875 28.421875 74.21875 
Q 39.75 74.21875 46.484375 68.546875 
Q 53.21875 62.890625 53.21875 53.421875 
Q 53.21875 48.921875 51.53125 44.890625 
Q 49.859375 40.875 45.40625 35.40625 
Q 44.1875 33.984375 37.640625 27.21875 
Q 31.109375 20.453125 19.1875 8.296875 
z
" id="DejaVuSans-32"/>
      </defs>
      <g transform="translate(128.914071 317.076875)scale(0.2 -0.2)">
       <use xlink:href="#DejaVuSans-32"/>
      </g>
     </g>
    </g>
    <g id="xtick_3">
     <g id="line2d_5">
      <path clip-path="url(#p62aeaad185)" d="M 214.433143 294.88 
L 214.433143 24.84 
" style="fill:none;stroke:#b0b0b0;stroke-linecap:square;stroke-width:0.8;"/>
     </g>
     <g id="line2d_6">
      <g>
       <use style="stroke:#000000;stroke-width:0.8;" x="214.433143" xlink:href="#m3166d77b43" y="294.88"/>
      </g>
     </g>
     <g id="text_3">
      <!-- 4 -->
      <defs>
       <path d="M 37.796875 64.3125 
L 12.890625 25.390625 
L 37.796875 25.390625 
z
M 35.203125 72.90625 
L 47.609375 72.90625 
L 47.609375 25.390625 
L 58.015625 25.390625 
L 58.015625 17.1875 
L 47.609375 17.1875 
L 47.609375 0 
L 37.796875 0 
L 37.796875 17.1875 
L 4.890625 17.1875 
L 4.890625 26.703125 
z
" id="DejaVuSans-34"/>
      </defs>
      <g transform="translate(208.070643 317.076875)scale(0.2 -0.2)">
       <use xlink:href="#DejaVuSans-34"/>
      </g>
     </g>
    </g>
    <g id="xtick_4">
     <g id="line2d_7">
      <path clip-path="url(#p62aeaad185)" d="M 293.589714 294.88 
L 293.589714 24.84 
" style="fill:none;stroke:#b0b0b0;stroke-linecap:square;stroke-width:0.8;"/>
     </g>
     <g id="line2d_8">
      <g>
       <use style="stroke:#000000;stroke-width:0.8;" x="293.589714" xlink:href="#m3166d77b43" y="294.88"/>
      </g>
     </g>
     <g id="text_4">
      <!-- 6 -->
      <defs>
       <path d="M 33.015625 40.375 
Q 26.375 40.375 22.484375 35.828125 
Q 18.609375 31.296875 18.609375 23.390625 
Q 18.609375 15.53125 22.484375 10.953125 
Q 26.375 6.390625 33.015625 6.390625 
Q 39.65625 6.390625 43.53125 10.953125 
Q 47.40625 15.53125 47.40625 23.390625 
Q 47.40625 31.296875 43.53125 35.828125 
Q 39.65625 40.375 33.015625 40.375 
z
M 52.59375 71.296875 
L 52.59375 62.3125 
Q 48.875 64.0625 45.09375 64.984375 
Q 41.3125 65.921875 37.59375 65.921875 
Q 27.828125 65.921875 22.671875 59.328125 
Q 17.53125 52.734375 16.796875 39.40625 
Q 19.671875 43.65625 24.015625 45.921875 
Q 28.375 48.1875 33.59375 48.1875 
Q 44.578125 48.1875 50.953125 41.515625 
Q 57.328125 34.859375 57.328125 23.390625 
Q 57.328125 12.15625 50.6875 5.359375 
Q 44.046875 -1.421875 33.015625 -1.421875 
Q 20.359375 -1.421875 13.671875 8.265625 
Q 6.984375 17.96875 6.984375 36.375 
Q 6.984375 53.65625 15.1875 63.9375 
Q 23.390625 74.21875 37.203125 74.21875 
Q 40.921875 74.21875 44.703125 73.484375 
Q 48.484375 72.75 52.59375 71.296875 
z
" id="DejaVuSans-36"/>
      </defs>
      <g transform="translate(287.227214 317.076875)scale(0.2 -0.2)">
       <use xlink:href="#DejaVuSans-36"/>
      </g>
     </g>
    </g>
    <g id="xtick_5">
     <g id="line2d_9">
      <path clip-path="url(#p62aeaad185)" d="M 56.12 294.88 
L 56.12 24.84 
" style="fill:none;stroke:#b0b0b0;stroke-linecap:square;stroke-width:0.8;"/>
     </g>
     <g id="line2d_10">
      <defs>
       <path d="M 0 0 
L 0 2 
" id="mebff5c3de3" style="stroke:#000000;stroke-width:0.6;"/>
      </defs>
      <g>
       <use style="stroke:#000000;stroke-width:0.6;" x="56.12" xlink:href="#mebff5c3de3" y="294.88"/>
      </g>
     </g>
    </g>
    <g id="xtick_6">
     <g id="line2d_11">
      <path clip-path="url(#p62aeaad185)" d="M 95.698286 294.88 
L 95.698286 24.84 
" style="fill:none;stroke:#b0b0b0;stroke-linecap:square;stroke-width:0.8;"/>
     </g>
     <g id="line2d_12">
      <g>
       <use style="stroke:#000000;stroke-width:0.6;" x="95.698286" xlink:href="#mebff5c3de3" y="294.88"/>
      </g>
     </g>
    </g>
    <g id="xtick_7">
     <g id="line2d_13">
      <path clip-path="url(#p62aeaad185)" d="M 135.276571 294.88 
L 135.276571 24.84 
" style="fill:none;stroke:#b0b0b0;stroke-linecap:square;stroke-width:0.8;"/>
     </g>
     <g id="line2d_14">
      <g>
       <use style="stroke:#000000;stroke-width:0.6;" x="135.276571" xlink:href="#mebff5c3de3" y="294.88"/>
      </g>
     </g>
    </g>
    <g id="xtick_8">
     <g id="line2d_15">
      <path clip-path="url(#p62aeaad185)" d="M 174.854857 294.88 
L 174.854857 24.84 
" style="fill:none;stroke:#b0b0b0;stroke-linecap:square;stroke-width:0.8;"/>
     </g>
     <g id="line2d_16">
      <g>
       <use style="stroke:#000000;stroke-width:0.6;" x="174.854857" xlink:href="#mebff5c3de3" y="294.88"/>
      </g>
     </g>
    </g>
    <g id="xtick_9">
     <g id="line2d_17">
      <path clip-path="url(#p62aeaad185)" d="M 214.433143 294.88 
L 214.433143 24.84 
" style="fill:none;stroke:#b0b0b0;stroke-linecap:square;stroke-width:0.8;"/>
     </g>
     <g id="line2d_18">
      <g>
       <use style="stroke:#000000;stroke-width:0.6;" x="214.433143" xlink:href="#mebff5c3de3" y="294.88"/>
      </g>
     </g>
    </g>
    <g id="xtick_10">
     <g id="line2d_19">
      <path clip-path="url(#p62aeaad185)" d="M 254.011429 294.88 
L 254.011429 24.84 
" style="fill:none;stroke:#b0b0b0;stroke-linecap:square;stroke-width:0.8;"/>
     </g>
     <g id="line2d_20">
      <g>
       <use style="stroke:#000000;stroke-width:0.6;" x="254.011429" xlink:href="#mebff5c3de3" y="294.88"/>
      </g>
     </g>
    </g>
    <g id="xtick_11">
     <g id="line2d_21">
      <path clip-path="url(#p62aeaad185)" d="M 293.589714 294.88 
L 293.589714 24.84 
" style="fill:none;stroke:#b0b0b0;stroke-linecap:square;stroke-width:0.8;"/>
     </g>
     <g id="line2d_22">
      <g>
       <use style="stroke:#000000;stroke-width:0.6;" x="293.589714" xlink:href="#mebff5c3de3" y="294.88"/>
      </g>
     </g>
    </g>
    <g id="xtick_12">
     <g id="line2d_23">
      <path clip-path="url(#p62aeaad185)" d="M 333.168 294.88 
L 333.168 24.84 
" style="fill:none;stroke:#b0b0b0;stroke-linecap:square;stroke-width:0.8;"/>
     </g>
     <g id="line2d_24">
      <g>
       <use style="stroke:#000000;stroke-width:0.6;" x="333.168" xlink:href="#mebff5c3de3" y="294.88"/>
      </g>
     </g>
    </g>
    <g id="text_5">
     <!-- log10(# f-evals / dimension) -->
     <defs>
      <path d="M 9.421875 75.984375 
L 18.40625 75.984375 
L 18.40625 0 
L 9.421875 0 
z
" id="DejaVuSans-6c"/>
      <path d="M 30.609375 48.390625 
Q 23.390625 48.390625 19.1875 42.75 
Q 14.984375 37.109375 14.984375 27.296875 
Q 14.984375 17.484375 19.15625 11.84375 
Q 23.34375 6.203125 30.609375 6.203125 
Q 37.796875 6.203125 41.984375 11.859375 
Q 46.1875 17.53125 46.1875 27.296875 
Q 46.1875 37.015625 41.984375 42.703125 
Q 37.796875 48.390625 30.609375 48.390625 
z
M 30.609375 56 
Q 42.328125 56 49.015625 48.375 
Q 55.71875 40.765625 55.71875 27.296875 
Q 55.71875 13.875 49.015625 6.21875 
Q 42.328125 -1.421875 30.609375 -1.421875 
Q 18.84375 -1.421875 12.171875 6.21875 
Q 5.515625 13.875 5.515625 27.296875 
Q 5.515625 40.765625 12.171875 48.375 
Q 18.84375 56 30.609375 56 
z
" id="DejaVuSans-6f"/>
      <path d="M 45.40625 27.984375 
Q 45.40625 37.75 41.375 43.109375 
Q 37.359375 48.484375 30.078125 48.484375 
Q 22.859375 48.484375 18.828125 43.109375 
Q 14.796875 37.75 14.796875 27.984375 
Q 14.796875 18.265625 18.828125 12.890625 
Q 22.859375 7.515625 30.078125 7.515625 
Q 37.359375 7.515625 41.375 12.890625 
Q 45.40625 18.265625 45.40625 27.984375 
z
M 54.390625 6.78125 
Q 54.390625 -7.171875 48.1875 -13.984375 
Q 42 -20.796875 29.203125 -20.796875 
Q 24.46875 -20.796875 20.265625 -20.09375 
Q 16.0625 -19.390625 12.109375 -17.921875 
L 12.109375 -9.1875 
Q 16.0625 -11.328125 19.921875 -12.34375 
Q 23.78125 -13.375 27.78125 -13.375 
Q 36.625 -13.375 41.015625 -8.765625 
Q 45.40625 -4.15625 45.40625 5.171875 
L 45.40625 9.625 
Q 42.625 4.78125 38.28125 2.390625 
Q 33.9375 0 27.875 0 
Q 17.828125 0 11.671875 7.65625 
Q 5.515625 15.328125 5.515625 27.984375 
Q 5.515625 40.671875 11.671875 48.328125 
Q 17.828125 56 27.875 56 
Q 33.9375 56 38.28125 53.609375 
Q 42.625 51.21875 45.40625 46.390625 
L 45.40625 54.6875 
L 54.390625 54.6875 
z
" id="DejaVuSans-67"/>
      <path d="M 12.40625 8.296875 
L 28.515625 8.296875 
L 28.515625 63.921875 
L 10.984375 60.40625 
L 10.984375 69.390625 
L 28.421875 72.90625 
L 38.28125 72.90625 
L 38.28125 8.296875 
L 54.390625 8.296875 
L 54.390625 0 
L 12.40625 0 
z
" id="DejaVuSans-31"/>
      <path d="M 31 75.875 
Q 24.46875 64.65625 21.28125 53.65625 
Q 18.109375 42.671875 18.109375 31.390625 
Q 18.109375 20.125 21.3125 9.0625 
Q 24.515625 -2 31 -13.1875 
L 23.1875 -13.1875 
Q 15.875 -1.703125 12.234375 9.375 
Q 8.59375 20.453125 8.59375 31.390625 
Q 8.59375 42.28125 12.203125 53.3125 
Q 15.828125 64.359375 23.1875 75.875 
z
" id="DejaVuSans-28"/>
      <path d="M 51.125 44 
L 36.921875 44 
L 32.8125 27.6875 
L 47.125 27.6875 
z
M 43.796875 71.78125 
L 38.71875 51.515625 
L 52.984375 51.515625 
L 58.109375 71.78125 
L 65.921875 71.78125 
L 60.890625 51.515625 
L 76.125 51.515625 
L 76.125 44 
L 58.984375 44 
L 54.984375 27.6875 
L 70.515625 27.6875 
L 70.515625 20.21875 
L 53.078125 20.21875 
L 48 0 
L 40.1875 0 
L 45.21875 20.21875 
L 30.90625 20.21875 
L 25.875 0 
L 18.015625 0 
L 23.09375 20.21875 
L 7.71875 20.21875 
L 7.71875 27.6875 
L 24.90625 27.6875 
L 29 44 
L 13.28125 44 
L 13.28125 51.515625 
L 30.90625 51.515625 
L 35.890625 71.78125 
z
" id="DejaVuSans-23"/>
      <path id="DejaVuSans-20"/>
      <path d="M 37.109375 75.984375 
L 37.109375 68.5 
L 28.515625 68.5 
Q 23.6875 68.5 21.796875 66.546875 
Q 19.921875 64.59375 19.921875 59.515625 
L 19.921875 54.6875 
L 34.71875 54.6875 
L 34.71875 47.703125 
L 19.921875 47.703125 
L 19.921875 0 
L 10.890625 0 
L 10.890625 47.703125 
L 2.296875 47.703125 
L 2.296875 54.6875 
L 10.890625 54.6875 
L 10.890625 58.5 
Q 10.890625 67.625 15.140625 71.796875 
Q 19.390625 75.984375 28.609375 75.984375 
z
" id="DejaVuSans-66"/>
      <path d="M 4.890625 31.390625 
L 31.203125 31.390625 
L 31.203125 23.390625 
L 4.890625 23.390625 
z
" id="DejaVuSans-2d"/>
      <path d="M 56.203125 29.59375 
L 56.203125 25.203125 
L 14.890625 25.203125 
Q 15.484375 15.921875 20.484375 11.0625 
Q 25.484375 6.203125 34.421875 6.203125 
Q 39.59375 6.203125 44.453125 7.46875 
Q 49.3125 8.734375 54.109375 11.28125 
L 54.109375 2.78125 
Q 49.265625 0.734375 44.1875 -0.34375 
Q 39.109375 -1.421875 33.890625 -1.421875 
Q 20.796875 -1.421875 13.15625 6.1875 
Q 5.515625 13.8125 5.515625 26.8125 
Q 5.515625 40.234375 12.765625 48.109375 
Q 20.015625 56 32.328125 56 
Q 43.359375 56 49.78125 48.890625 
Q 56.203125 41.796875 56.203125 29.59375 
z
M 47.21875 32.234375 
Q 47.125 39.59375 43.09375 43.984375 
Q 39.0625 48.390625 32.421875 48.390625 
Q 24.90625 48.390625 20.390625 44.140625 
Q 15.875 39.890625 15.1875 32.171875 
z
" id="DejaVuSans-65"/>
      <path d="M 2.984375 54.6875 
L 12.5 54.6875 
L 29.59375 8.796875 
L 46.6875 54.6875 
L 56.203125 54.6875 
L 35.6875 0 
L 23.484375 0 
z
" id="DejaVuSans-76"/>
      <path d="M 34.28125 27.484375 
Q 23.390625 27.484375 19.1875 25 
Q 14.984375 22.515625 14.984375 16.5 
Q 14.984375 11.71875 18.140625 8.90625 
Q 21.296875 6.109375 26.703125 6.109375 
Q 34.1875 6.109375 38.703125 11.40625 
Q 43.21875 16.703125 43.21875 25.484375 
L 43.21875 27.484375 
z
M 52.203125 31.203125 
L 52.203125 0 
L 43.21875 0 
L 43.21875 8.296875 
Q 40.140625 3.328125 35.546875 0.953125 
Q 30.953125 -1.421875 24.3125 -1.421875 
Q 15.921875 -1.421875 10.953125 3.296875 
Q 6 8.015625 6 15.921875 
Q 6 25.140625 12.171875 29.828125 
Q 18.359375 34.515625 30.609375 34.515625 
L 43.21875 34.515625 
L 43.21875 35.40625 
Q 43.21875 41.609375 39.140625 45 
Q 35.0625 48.390625 27.6875 48.390625 
Q 23 48.390625 18.546875 47.265625 
Q 14.109375 46.140625 10.015625 43.890625 
L 10.015625 52.203125 
Q 14.9375 54.109375 19.578125 55.046875 
Q 24.21875 56 28.609375 56 
Q 40.484375 56 46.34375 49.84375 
Q 52.203125 43.703125 52.203125 31.203125 
z
" id="DejaVuSans-61"/>
      <path d="M 44.28125 53.078125 
L 44.28125 44.578125 
Q 40.484375 46.53125 36.375 47.5 
Q 32.28125 48.484375 27.875 48.484375 
Q 21.1875 48.484375 17.84375 46.4375 
Q 14.5 44.390625 14.5 40.28125 
Q 14.5 37.15625 16.890625 35.375 
Q 19.28125 33.59375 26.515625 31.984375 
L 29.59375 31.296875 
Q 39.15625 29.25 43.1875 25.515625 
Q 47.21875 21.78125 47.21875 15.09375 
Q 47.21875 7.46875 41.1875 3.015625 
Q 35.15625 -1.421875 24.609375 -1.421875 
Q 20.21875 -1.421875 15.453125 -0.5625 
Q 10.6875 0.296875 5.421875 2 
L 5.421875 11.28125 
Q 10.40625 8.6875 15.234375 7.390625 
Q 20.0625 6.109375 24.8125 6.109375 
Q 31.15625 6.109375 34.5625 8.28125 
Q 37.984375 10.453125 37.984375 14.40625 
Q 37.984375 18.0625 35.515625 20.015625 
Q 33.0625 21.96875 24.703125 23.78125 
L 21.578125 24.515625 
Q 13.234375 26.265625 9.515625 29.90625 
Q 5.8125 33.546875 5.8125 39.890625 
Q 5.8125 47.609375 11.28125 51.796875 
Q 16.75 56 26.8125 56 
Q 31.78125 56 36.171875 55.265625 
Q 40.578125 54.546875 44.28125 53.078125 
z
" id="DejaVuSans-73"/>
      <path d="M 25.390625 72.90625 
L 33.6875 72.90625 
L 8.296875 -9.28125 
L 0 -9.28125 
z
" id="DejaVuSans-2f"/>
      <path d="M 45.40625 46.390625 
L 45.40625 75.984375 
L 54.390625 75.984375 
L 54.390625 0 
L 45.40625 0 
L 45.40625 8.203125 
Q 42.578125 3.328125 38.25 0.953125 
Q 33.9375 -1.421875 27.875 -1.421875 
Q 17.96875 -1.421875 11.734375 6.484375 
Q 5.515625 14.40625 5.515625 27.296875 
Q 5.515625 40.1875 11.734375 48.09375 
Q 17.96875 56 27.875 56 
Q 33.9375 56 38.25 53.625 
Q 42.578125 51.265625 45.40625 46.390625 
z
M 14.796875 27.296875 
Q 14.796875 17.390625 18.875 11.75 
Q 22.953125 6.109375 30.078125 6.109375 
Q 37.203125 6.109375 41.296875 11.75 
Q 45.40625 17.390625 45.40625 27.296875 
Q 45.40625 37.203125 41.296875 42.84375 
Q 37.203125 48.484375 30.078125 48.484375 
Q 22.953125 48.484375 18.875 42.84375 
Q 14.796875 37.203125 14.796875 27.296875 
z
" id="DejaVuSans-64"/>
      <path d="M 9.421875 54.6875 
L 18.40625 54.6875 
L 18.40625 0 
L 9.421875 0 
z
M 9.421875 75.984375 
L 18.40625 75.984375 
L 18.40625 64.59375 
L 9.421875 64.59375 
z
" id="DejaVuSans-69"/>
      <path d="M 52 44.1875 
Q 55.375 50.25 60.0625 53.125 
Q 64.75 56 71.09375 56 
Q 79.640625 56 84.28125 50.015625 
Q 88.921875 44.046875 88.921875 33.015625 
L 88.921875 0 
L 79.890625 0 
L 79.890625 32.71875 
Q 79.890625 40.578125 77.09375 44.375 
Q 74.3125 48.1875 68.609375 48.1875 
Q 61.625 48.1875 57.5625 43.546875 
Q 53.515625 38.921875 53.515625 30.90625 
L 53.515625 0 
L 44.484375 0 
L 44.484375 32.71875 
Q 44.484375 40.625 41.703125 44.40625 
Q 38.921875 48.1875 33.109375 48.1875 
Q 26.21875 48.1875 22.15625 43.53125 
Q 18.109375 38.875 18.109375 30.90625 
L 18.109375 0 
L 9.078125 0 
L 9.078125 54.6875 
L 18.109375 54.6875 
L 18.109375 46.1875 
Q 21.1875 51.21875 25.484375 53.609375 
Q 29.78125 56 35.6875 56 
Q 41.65625 56 45.828125 52.96875 
Q 50 49.953125 52 44.1875 
z
" id="DejaVuSans-6d"/>
      <path d="M 54.890625 33.015625 
L 54.890625 0 
L 45.90625 0 
L 45.90625 32.71875 
Q 45.90625 40.484375 42.875 44.328125 
Q 39.84375 48.1875 33.796875 48.1875 
Q 26.515625 48.1875 22.3125 43.546875 
Q 18.109375 38.921875 18.109375 30.90625 
L 18.109375 0 
L 9.078125 0 
L 9.078125 54.6875 
L 18.109375 54.6875 
L 18.109375 46.1875 
Q 21.34375 51.125 25.703125 53.5625 
Q 30.078125 56 35.796875 56 
Q 45.21875 56 50.046875 50.171875 
Q 54.890625 44.34375 54.890625 33.015625 
z
" id="DejaVuSans-6e"/>
      <path d="M 8.015625 75.875 
L 15.828125 75.875 
Q 23.140625 64.359375 26.78125 53.3125 
Q 30.421875 42.28125 30.421875 31.390625 
Q 30.421875 20.453125 26.78125 9.375 
Q 23.140625 -1.703125 15.828125 -13.1875 
L 8.015625 -13.1875 
Q 14.5 -2 17.703125 9.0625 
Q 20.90625 20.125 20.90625 31.390625 
Q 20.90625 42.671875 17.703125 53.65625 
Q 14.5 64.65625 8.015625 75.875 
z
" id="DejaVuSans-29"/>
     </defs>
     <g transform="translate(73.803219 338.153594)scale(0.17 -0.17)">
      <use xlink:href="#DejaVuSans-6c"/>
      <use x="27.783203" xlink:href="#DejaVuSans-6f"/>
      <use x="88.964844" xlink:href="#DejaVuSans-67"/>
      <use x="152.441406" xlink:href="#DejaVuSans-31"/>
      <use x="216.064453" xlink:href="#DejaVuSans-30"/>
      <use x="279.6875" xlink:href="#DejaVuSans-28"/>
      <use x="318.701172" xlink:href="#DejaVuSans-23"/>
      <use x="402.490234" xlink:href="#DejaVuSans-20"/>
      <use x="434.277344" xlink:href="#DejaVuSans-66"/>
      <use x="469.404297" xlink:href="#DejaVuSans-2d"/>
      <use x="505.488281" xlink:href="#DejaVuSans-65"/>
      <use x="567.011719" xlink:href="#DejaVuSans-76"/>
      <use x="626.191406" xlink:href="#DejaVuSans-61"/>
      <use x="687.470703" xlink:href="#DejaVuSans-6c"/>
      <use x="715.253906" xlink:href="#DejaVuSans-73"/>
      <use x="767.353516" xlink:href="#DejaVuSans-20"/>
      <use x="799.140625" xlink:href="#DejaVuSans-2f"/>
      <use x="832.832031" xlink:href="#DejaVuSans-20"/>
      <use x="864.619141" xlink:href="#DejaVuSans-64"/>
      <use x="928.095703" xlink:href="#DejaVuSans-69"/>
      <use x="955.878906" xlink:href="#DejaVuSans-6d"/>
      <use x="1053.291016" xlink:href="#DejaVuSans-65"/>
      <use x="1114.814453" xlink:href="#DejaVuSans-6e"/>
      <use x="1178.193359" xlink:href="#DejaVuSans-73"/>
      <use x="1230.292969" xlink:href="#DejaVuSans-69"/>
      <use x="1258.076172" xlink:href="#DejaVuSans-6f"/>
      <use x="1319.257812" xlink:href="#DejaVuSans-6e"/>
      <use x="1382.636719" xlink:href="#DejaVuSans-29"/>
     </g>
    </g>
   </g>
   <g id="matplotlib.axis_2">
    <g id="ytick_1">
     <g id="line2d_25">
      <path clip-path="url(#p62aeaad185)" d="M 56.12 294.88 
L 333.168 294.88 
" style="fill:none;stroke:#b0b0b0;stroke-linecap:square;stroke-width:0.8;"/>
     </g>
     <g id="line2d_26">
      <defs>
       <path d="M 0 0 
L -3.5 0 
" id="ma878d1c894" style="stroke:#000000;stroke-width:0.8;"/>
      </defs>
      <g>
       <use style="stroke:#000000;stroke-width:0.8;" x="56.12" xlink:href="#ma878d1c894" y="294.88"/>
      </g>
     </g>
     <g id="text_6">
      <!-- 0.0 -->
      <defs>
       <path d="M 10.6875 12.40625 
L 21 12.40625 
L 21 0 
L 10.6875 0 
z
" id="DejaVuSans-2e"/>
      </defs>
      <g transform="translate(23.675 300.95875)scale(0.16 -0.16)">
       <use xlink:href="#DejaVuSans-30"/>
       <use x="63.623047" xlink:href="#DejaVuSans-2e"/>
       <use x="95.410156" xlink:href="#DejaVuSans-30"/>
      </g>
     </g>
    </g>
    <g id="ytick_2">
     <g id="line2d_27">
      <path clip-path="url(#p62aeaad185)" d="M 56.12 241.406733 
L 333.168 241.406733 
" style="fill:none;stroke:#b0b0b0;stroke-linecap:square;stroke-width:0.8;"/>
     </g>
     <g id="line2d_28">
      <g>
       <use style="stroke:#000000;stroke-width:0.8;" x="56.12" xlink:href="#ma878d1c894" y="241.406733"/>
      </g>
     </g>
     <g id="text_7">
      <!-- 0.2 -->
      <g transform="translate(23.675 247.485483)scale(0.16 -0.16)">
       <use xlink:href="#DejaVuSans-30"/>
       <use x="63.623047" xlink:href="#DejaVuSans-2e"/>
       <use x="95.410156" xlink:href="#DejaVuSans-32"/>
      </g>
     </g>
    </g>
    <g id="ytick_3">
     <g id="line2d_29">
      <path clip-path="url(#p62aeaad185)" d="M 56.12 187.933465 
L 333.168 187.933465 
" style="fill:none;stroke:#b0b0b0;stroke-linecap:square;stroke-width:0.8;"/>
     </g>
     <g id="line2d_30">
      <g>
       <use style="stroke:#000000;stroke-width:0.8;" x="56.12" xlink:href="#ma878d1c894" y="187.933465"/>
      </g>
     </g>
     <g id="text_8">
      <!-- 0.4 -->
      <g transform="translate(23.675 194.012215)scale(0.16 -0.16)">
       <use xlink:href="#DejaVuSans-30"/>
       <use x="63.623047" xlink:href="#DejaVuSans-2e"/>
       <use x="95.410156" xlink:href="#DejaVuSans-34"/>
      </g>
     </g>
    </g>
    <g id="ytick_4">
     <g id="line2d_31">
      <path clip-path="url(#p62aeaad185)" d="M 56.12 134.460198 
L 333.168 134.460198 
" style="fill:none;stroke:#b0b0b0;stroke-linecap:square;stroke-width:0.8;"/>
     </g>
     <g id="line2d_32">
      <g>
       <use style="stroke:#000000;stroke-width:0.8;" x="56.12" xlink:href="#ma878d1c894" y="134.460198"/>
      </g>
     </g>
     <g id="text_9">
      <!-- 0.6 -->
      <g transform="translate(23.675 140.538948)scale(0.16 -0.16)">
       <use xlink:href="#DejaVuSans-30"/>
       <use x="63.623047" xlink:href="#DejaVuSans-2e"/>
       <use x="95.410156" xlink:href="#DejaVuSans-36"/>
      </g>
     </g>
    </g>
    <g id="ytick_5">
     <g id="line2d_33">
      <path clip-path="url(#p62aeaad185)" d="M 56.12 80.986931 
L 333.168 80.986931 
" style="fill:none;stroke:#b0b0b0;stroke-linecap:square;stroke-width:0.8;"/>
     </g>
     <g id="line2d_34">
      <g>
       <use style="stroke:#000000;stroke-width:0.8;" x="56.12" xlink:href="#ma878d1c894" y="80.986931"/>
      </g>
     </g>
     <g id="text_10">
      <!-- 0.8 -->
      <defs>
       <path d="M 31.78125 34.625 
Q 24.75 34.625 20.71875 30.859375 
Q 16.703125 27.09375 16.703125 20.515625 
Q 16.703125 13.921875 20.71875 10.15625 
Q 24.75 6.390625 31.78125 6.390625 
Q 38.8125 6.390625 42.859375 10.171875 
Q 46.921875 13.96875 46.921875 20.515625 
Q 46.921875 27.09375 42.890625 30.859375 
Q 38.875 34.625 31.78125 34.625 
z
M 21.921875 38.8125 
Q 15.578125 40.375 12.03125 44.71875 
Q 8.5 49.078125 8.5 55.328125 
Q 8.5 64.0625 14.71875 69.140625 
Q 20.953125 74.21875 31.78125 74.21875 
Q 42.671875 74.21875 48.875 69.140625 
Q 55.078125 64.0625 55.078125 55.328125 
Q 55.078125 49.078125 51.53125 44.71875 
Q 48 40.375 41.703125 38.8125 
Q 48.828125 37.15625 52.796875 32.3125 
Q 56.78125 27.484375 56.78125 20.515625 
Q 56.78125 9.90625 50.3125 4.234375 
Q 43.84375 -1.421875 31.78125 -1.421875 
Q 19.734375 -1.421875 13.25 4.234375 
Q 6.78125 9.90625 6.78125 20.515625 
Q 6.78125 27.484375 10.78125 32.3125 
Q 14.796875 37.15625 21.921875 38.8125 
z
M 18.3125 54.390625 
Q 18.3125 48.734375 21.84375 45.5625 
Q 25.390625 42.390625 31.78125 42.390625 
Q 38.140625 42.390625 41.71875 45.5625 
Q 45.3125 48.734375 45.3125 54.390625 
Q 45.3125 60.0625 41.71875 63.234375 
Q 38.140625 66.40625 31.78125 66.40625 
Q 25.390625 66.40625 21.84375 63.234375 
Q 18.3125 60.0625 18.3125 54.390625 
z
" id="DejaVuSans-38"/>
      </defs>
      <g transform="translate(23.675 87.065681)scale(0.16 -0.16)">
       <use xlink:href="#DejaVuSans-30"/>
       <use x="63.623047" xlink:href="#DejaVuSans-2e"/>
       <use x="95.410156" xlink:href="#DejaVuSans-38"/>
      </g>
     </g>
    </g>
    <g id="ytick_6">
     <g id="line2d_35">
      <path clip-path="url(#p62aeaad185)" d="M 56.12 27.513663 
L 333.168 27.513663 
" style="fill:none;stroke:#b0b0b0;stroke-linecap:square;stroke-width:0.8;"/>
     </g>
     <g id="line2d_36">
      <g>
       <use style="stroke:#000000;stroke-width:0.8;" x="56.12" xlink:href="#ma878d1c894" y="27.513663"/>
      </g>
     </g>
     <g id="text_11">
      <!-- 1.0 -->
      <g transform="translate(23.675 33.592413)scale(0.16 -0.16)">
       <use xlink:href="#DejaVuSans-31"/>
       <use x="63.623047" xlink:href="#DejaVuSans-2e"/>
       <use x="95.410156" xlink:href="#DejaVuSans-30"/>
      </g>
     </g>
    </g>
    <g id="text_12">
     <!-- Fraction of function,target pairs -->
     <defs>
      <path d="M 9.8125 72.90625 
L 51.703125 72.90625 
L 51.703125 64.59375 
L 19.671875 64.59375 
L 19.671875 43.109375 
L 48.578125 43.109375 
L 48.578125 34.8125 
L 19.671875 34.8125 
L 19.671875 0 
L 9.8125 0 
z
" id="DejaVuSans-46"/>
      <path d="M 41.109375 46.296875 
Q 39.59375 47.171875 37.8125 47.578125 
Q 36.03125 48 33.890625 48 
Q 26.265625 48 22.1875 43.046875 
Q 18.109375 38.09375 18.109375 28.8125 
L 18.109375 0 
L 9.078125 0 
L 9.078125 54.6875 
L 18.109375 54.6875 
L 18.109375 46.1875 
Q 20.953125 51.171875 25.484375 53.578125 
Q 30.03125 56 36.53125 56 
Q 37.453125 56 38.578125 55.875 
Q 39.703125 55.765625 41.0625 55.515625 
z
" id="DejaVuSans-72"/>
      <path d="M 48.78125 52.59375 
L 48.78125 44.1875 
Q 44.96875 46.296875 41.140625 47.34375 
Q 37.3125 48.390625 33.40625 48.390625 
Q 24.65625 48.390625 19.8125 42.84375 
Q 14.984375 37.3125 14.984375 27.296875 
Q 14.984375 17.28125 19.8125 11.734375 
Q 24.65625 6.203125 33.40625 6.203125 
Q 37.3125 6.203125 41.140625 7.25 
Q 44.96875 8.296875 48.78125 10.40625 
L 48.78125 2.09375 
Q 45.015625 0.34375 40.984375 -0.53125 
Q 36.96875 -1.421875 32.421875 -1.421875 
Q 20.0625 -1.421875 12.78125 6.34375 
Q 5.515625 14.109375 5.515625 27.296875 
Q 5.515625 40.671875 12.859375 48.328125 
Q 20.21875 56 33.015625 56 
Q 37.15625 56 41.109375 55.140625 
Q 45.0625 54.296875 48.78125 52.59375 
z
" id="DejaVuSans-63"/>
      <path d="M 18.3125 70.21875 
L 18.3125 54.6875 
L 36.8125 54.6875 
L 36.8125 47.703125 
L 18.3125 47.703125 
L 18.3125 18.015625 
Q 18.3125 11.328125 20.140625 9.421875 
Q 21.96875 7.515625 27.59375 7.515625 
L 36.8125 7.515625 
L 36.8125 0 
L 27.59375 0 
Q 17.1875 0 13.234375 3.875 
Q 9.28125 7.765625 9.28125 18.015625 
L 9.28125 47.703125 
L 2.6875 47.703125 
L 2.6875 54.6875 
L 9.28125 54.6875 
L 9.28125 70.21875 
z
" id="DejaVuSans-74"/>
      <path d="M 8.5 21.578125 
L 8.5 54.6875 
L 17.484375 54.6875 
L 17.484375 21.921875 
Q 17.484375 14.15625 20.5 10.265625 
Q 23.53125 6.390625 29.59375 6.390625 
Q 36.859375 6.390625 41.078125 11.03125 
Q 45.3125 15.671875 45.3125 23.6875 
L 45.3125 54.6875 
L 54.296875 54.6875 
L 54.296875 0 
L 45.3125 0 
L 45.3125 8.40625 
Q 42.046875 3.421875 37.71875 1 
Q 33.40625 -1.421875 27.6875 -1.421875 
Q 18.265625 -1.421875 13.375 4.4375 
Q 8.5 10.296875 8.5 21.578125 
z
M 31.109375 56 
z
" id="DejaVuSans-75"/>
      <path d="M 11.71875 12.40625 
L 22.015625 12.40625 
L 22.015625 4 
L 14.015625 -11.625 
L 7.71875 -11.625 
L 11.71875 4 
z
" id="DejaVuSans-2c"/>
      <path d="M 18.109375 8.203125 
L 18.109375 -20.796875 
L 9.078125 -20.796875 
L 9.078125 54.6875 
L 18.109375 54.6875 
L 18.109375 46.390625 
Q 20.953125 51.265625 25.265625 53.625 
Q 29.59375 56 35.59375 56 
Q 45.5625 56 51.78125 48.09375 
Q 58.015625 40.1875 58.015625 27.296875 
Q 58.015625 14.40625 51.78125 6.484375 
Q 45.5625 -1.421875 35.59375 -1.421875 
Q 29.59375 -1.421875 25.265625 0.953125 
Q 20.953125 3.328125 18.109375 8.203125 
z
M 48.6875 27.296875 
Q 48.6875 37.203125 44.609375 42.84375 
Q 40.53125 48.484375 33.40625 48.484375 
Q 26.265625 48.484375 22.1875 42.84375 
Q 18.109375 37.203125 18.109375 27.296875 
Q 18.109375 17.390625 22.1875 11.75 
Q 26.265625 6.109375 33.40625 6.109375 
Q 40.53125 6.109375 44.609375 11.75 
Q 48.6875 17.390625 48.6875 27.296875 
z
" id="DejaVuSans-70"/>
     </defs>
     <g transform="translate(16.139531 294.999375)rotate(-90)scale(0.17 -0.17)">
      <use xlink:href="#DejaVuSans-46"/>
      <use x="57.410156" xlink:href="#DejaVuSans-72"/>
      <use x="98.523438" xlink:href="#DejaVuSans-61"/>
      <use x="159.802734" xlink:href="#DejaVuSans-63"/>
      <use x="214.783203" xlink:href="#DejaVuSans-74"/>
      <use x="253.992188" xlink:href="#DejaVuSans-69"/>
      <use x="281.775391" xlink:href="#DejaVuSans-6f"/>
      <use x="342.957031" xlink:href="#DejaVuSans-6e"/>
      <use x="406.335938" xlink:href="#DejaVuSans-20"/>
      <use x="438.123047" xlink:href="#DejaVuSans-6f"/>
      <use x="499.304688" xlink:href="#DejaVuSans-66"/>
      <use x="534.509766" xlink:href="#DejaVuSans-20"/>
      <use x="566.296875" xlink:href="#DejaVuSans-66"/>
      <use x="601.501953" xlink:href="#DejaVuSans-75"/>
      <use x="664.880859" xlink:href="#DejaVuSans-6e"/>
      <use x="728.259766" xlink:href="#DejaVuSans-63"/>
      <use x="783.240234" xlink:href="#DejaVuSans-74"/>
      <use x="822.449219" xlink:href="#DejaVuSans-69"/>
      <use x="850.232422" xlink:href="#DejaVuSans-6f"/>
      <use x="911.414062" xlink:href="#DejaVuSans-6e"/>
      <use x="974.792969" xlink:href="#DejaVuSans-2c"/>
      <use x="1006.580078" xlink:href="#DejaVuSans-74"/>
      <use x="1045.789062" xlink:href="#DejaVuSans-61"/>
      <use x="1107.068359" xlink:href="#DejaVuSans-72"/>
      <use x="1148.166016" xlink:href="#DejaVuSans-67"/>
      <use x="1211.642578" xlink:href="#DejaVuSans-65"/>
      <use x="1273.166016" xlink:href="#DejaVuSans-74"/>
      <use x="1312.375" xlink:href="#DejaVuSans-20"/>
      <use x="1344.162109" xlink:href="#DejaVuSans-70"/>
      <use x="1407.638672" xlink:href="#DejaVuSans-61"/>
      <use x="1468.917969" xlink:href="#DejaVuSans-69"/>
      <use x="1496.701172" xlink:href="#DejaVuSans-72"/>
      <use x="1537.814453" xlink:href="#DejaVuSans-73"/>
     </g>
    </g>
   </g>
   <g id="line2d_37">
    <defs>
     <path d="M 0 1.5 
C 0.397805 1.5 0.77937 1.341951 1.06066 1.06066 
C 1.341951 0.77937 1.5 0.397805 1.5 0 
C 1.5 -0.397805 1.341951 -0.77937 1.06066 -1.06066 
C 0.77937 -1.341951 0.397805 -1.5 0 -1.5 
C -0.397805 -1.5 -0.77937 -1.341951 -1.06066 -1.06066 
C -1.341951 -0.77937 -1.5 -0.397805 -1.5 0 
C -1.5 0.397805 -1.341951 0.77937 -1.06066 1.06066 
C -0.77937 1.341951 -0.397805 1.5 0 1.5 
z
" id="mf39c9e2cdf" style="stroke:#000080;"/>
    </defs>
    <g>
     <use style="fill:#000080;stroke:#000080;" x="188.572203" xlink:href="#mf39c9e2cdf" y="27.513663"/>
     <use style="fill:#000080;stroke:#000080;" x="188.572203" xlink:href="#mf39c9e2cdf" y="27.513663"/>
    </g>
   </g>
   <g id="line2d_38">
    <path d="M 28.455965 294.88 
L 28.455965 293.307257 
L 40.370217 293.307257 
L 40.370217 291.734514 
L 47.339607 291.734514 
L 47.339607 289.637523 
L 52.284468 289.637523 
L 52.284468 288.06478 
L 61.903497 288.06478 
L 61.903497 287.016284 
L 71.168109 287.016284 
L 71.168109 285.443541 
L 72.543934 285.443541 
L 72.543934 284.919293 
L 73.817748 284.919293 
L 73.817748 284.395046 
L 75.003641 284.395046 
L 75.003641 283.870798 
L 77.155024 283.870798 
L 77.155024 283.34655 
L 78.137499 283.34655 
L 78.137499 281.773807 
L 84.458185 281.773807 
L 84.458185 279.676816 
L 86.917893 279.676816 
L 86.917893 279.152568 
L 90.981092 279.152568 
L 90.981092 278.628321 
L 92.287186 278.628321 
L 92.287186 278.104073 
L 92.70139 278.104073 
L 92.70139 277.055578 
L 96.038666 277.055578 
L 96.038666 275.482834 
L 97.646251 275.482834 
L 97.646251 274.958587 
L 102.667676 274.958587 
L 102.667676 274.434339 
L 102.895343 274.434339 
L 102.895343 273.910091 
L 103.560793 273.910091 
L 103.560793 273.385844 
L 103.990531 273.385844 
L 103.990531 269.191862 
L 104.201437 269.191862 
L 104.201437 267.619119 
L 104.615641 267.619119 
L 104.615641 267.094871 
L 106.365146 267.094871 
L 106.365146 265.522128 
L 109.560502 265.522128 
L 109.560502 264.99788 
L 110.014853 264.99788 
L 110.014853 264.473632 
L 110.163674 264.473632 
L 110.163674 263.425137 
L 112.253934 263.425137 
L 112.253934 262.900889 
L 113.148711 262.900889 
L 113.148711 262.376641 
L 113.518374 262.376641 
L 113.518374 261.852394 
L 113.999206 261.852394 
L 113.999206 259.755403 
L 114.23467 259.755403 
L 114.23467 258.706907 
L 114.922307 258.706907 
L 114.922307 257.658412 
L 115.798351 257.658412 
L 115.798351 256.085669 
L 117.811013 256.085669 
L 117.811013 255.037173 
L 118.735356 255.037173 
L 118.825114 251.891687 
L 119.179531 251.891687 
L 119.179531 242.979476 
L 119.526788 242.979476 
L 119.526788 240.358237 
L 120.283378 240.358237 
L 120.283378 239.83399 
L 123.293428 239.83399 
L 123.293428 239.309742 
L 123.430938 239.309742 
L 123.430938 238.261246 
L 124.428624 238.261246 
L 124.493121 236.164255 
L 124.875107 236.164255 
L 124.875107 235.11576 
L 125.310285 235.11576 
L 125.310285 234.591512 
L 125.794504 234.591512 
L 125.794504 234.067265 
L 126.323427 234.067265 
L 126.323427 232.494521 
L 126.836558 232.494521 
L 126.836558 231.446026 
L 127.05979 231.446026 
L 127.05979 228.824787 
L 127.334814 228.824787 
L 127.334814 225.155053 
L 127.605507 225.155053 
L 127.605507 223.58231 
L 128.495224 223.58231 
L 128.495224 223.058063 
L 129.047315 223.058063 
L 129.047315 222.533815 
L 129.486197 222.533815 
L 129.534278 217.815585 
L 130.514085 217.815585 
L 130.559378 212.04886 
L 131.612072 212.04886 
L 131.612072 211.000365 
L 131.739239 211.000365 
L 131.739239 210.476117 
L 132.442602 210.476117 
L 132.442602 208.903374 
L 133.118312 208.903374 
L 133.118312 208.379126 
L 133.427329 208.379126 
L 133.427329 207.330631 
L 134.286006 207.330631 
L 134.39491 205.757888 
L 135.207679 205.757888 
L 135.207679 204.709392 
L 136.213149 204.709392 
L 136.213149 203.660897 
L 136.471629 203.660897 
L 136.471629 202.088154 
L 137.193815 202.088154 
L 137.224536 199.991163 
L 137.346876 199.991163 
L 137.346876 199.466915 
L 138.150647 199.466915 
L 138.150647 197.894172 
L 138.553074 197.894172 
L 138.553074 196.321429 
L 141.035496 196.321429 
L 141.035496 195.272933 
L 141.206772 195.272933 
L 141.206772 194.748686 
L 141.520398 194.748686 
L 141.520398 194.224438 
L 142.200064 194.224438 
L 142.200064 192.651695 
L 143.117307 192.651695 
L 143.182539 186.88497 
L 143.35529 186.88497 
L 143.376763 182.690988 
L 143.611205 182.690988 
L 143.611205 182.16674 
L 144.316266 182.16674 
L 144.316266 178.497006 
L 144.856267 178.497006 
L 144.856267 177.448511 
L 145.626324 177.448511 
L 145.626324 176.924263 
L 145.869343 176.924263 
L 145.869343 173.254529 
L 146.127269 173.254529 
L 146.127269 172.730281 
L 146.254795 172.730281 
L 146.254795 170.109043 
L 146.773264 170.109043 
L 146.773264 168.5363 
L 147.327785 168.5363 
L 147.327785 168.012052 
L 147.980278 168.012052 
L 147.980278 166.439309 
L 148.735061 166.439309 
L 148.735061 165.915061 
L 149.741959 165.915061 
L 149.741959 164.866566 
L 150.05035 164.866566 
L 150.108469 161.721079 
L 150.367599 161.721079 
L 150.367599 158.575593 
L 150.594702 158.575593 
L 150.679098 155.430107 
L 151.204193 155.430107 
L 151.204193 154.381611 
L 151.434009 154.381611 
L 151.434009 151.760373 
L 151.832219 151.760373 
L 151.832219 150.711877 
L 152.739448 150.711877 
L 152.739448 150.18763 
L 152.97432 150.18763 
L 152.986593 145.4694 
L 153.157504 145.4694 
L 153.206025 143.896657 
L 153.422692 143.896657 
L 153.422692 143.372409 
L 153.754391 143.372409 
L 153.754391 140.751171 
L 153.871321 140.751171 
L 153.871321 140.226923 
L 154.194556 140.226923 
L 154.22883 139.178427 
L 154.466857 139.178427 
L 154.489355 137.081437 
L 154.966077 137.081437 
L 154.966077 135.508693 
L 155.451207 135.508693 
L 155.451207 134.984446 
L 155.788044 134.984446 
L 155.788044 131.314712 
L 156.291362 131.314712 
L 156.291362 128.169225 
L 156.67179 128.169225 
L 156.67179 127.644978 
L 156.966291 127.644978 
L 156.966291 126.596482 
L 157.351271 126.596482 
L 157.351271 126.072235 
L 157.77431 126.072235 
L 157.802146 125.023739 
L 157.894608 125.023739 
L 158.00491 122.4025 
L 158.643431 122.4025 
L 158.678708 120.829757 
L 159.182249 120.829757 
L 159.276106 113.490289 
L 159.352519 113.490289 
L 159.462297 111.917546 
L 159.487531 111.917546 
L 159.537889 106.675069 
L 160.130943 106.675069 
L 160.130943 105.626573 
L 160.515241 105.626573 
L 160.578464 103.529583 
L 161.213431 103.529583 
L 161.243814 100.908344 
L 161.559624 100.908344 
L 161.559624 98.811353 
L 161.796406 98.811353 
L 161.796406 98.287105 
L 162.310402 98.287105 
L 162.310402 96.190115 
L 162.501901 96.190115 
L 162.508953 93.568876 
L 162.809473 93.568876 
L 162.919967 89.899142 
L 163.022914 89.899142 
L 163.022914 89.374894 
L 163.388499 89.374894 
L 163.388499 88.326399 
L 163.707062 88.326399 
L 163.707062 87.277903 
L 163.968094 87.277903 
L 163.968094 83.608169 
L 164.746796 83.608169 
L 164.790068 82.559674 
L 165.402605 82.559674 
L 165.402605 82.035426 
L 165.550912 82.035426 
L 165.550912 81.511178 
L 165.994063 81.511178 
L 165.994063 80.986931 
L 166.487713 80.986931 
L 166.582539 78.88994 
L 167.232068 78.88994 
L 167.317557 74.695958 
L 167.697082 74.695958 
L 167.697082 74.17171 
L 169.155721 74.17171 
L 169.155721 73.123215 
L 169.374626 73.123215 
L 169.374626 72.598967 
L 169.511213 72.598967 
L 169.511213 71.550472 
L 169.946626 71.550472 
L 169.946626 71.026224 
L 170.083298 71.026224 
L 170.083298 70.501976 
L 170.335546 70.501976 
L 170.335546 69.977729 
L 170.711487 69.977729 
L 170.803113 66.832242 
L 170.911559 66.832242 
L 170.963371 64.211004 
L 171.190358 64.211004 
L 171.190358 63.162508 
L 171.42698 63.162508 
L 171.42698 62.638261 
L 171.718249 62.638261 
L 171.742987 61.589765 
L 172.008722 61.589765 
L 172.008722 58.968526 
L 172.587115 58.968526 
L 172.587115 58.444279 
L 172.747192 58.444279 
L 172.747192 55.82304 
L 173.017095 55.82304 
L 173.017095 54.774545 
L 173.911568 54.774545 
L 173.911568 54.250297 
L 174.099384 54.250297 
L 174.14602 50.580563 
L 174.785965 50.580563 
L 174.785965 50.056315 
L 174.923475 50.056315 
L 174.923475 48.483572 
L 175.164878 48.483572 
L 175.185123 46.910829 
L 175.336211 46.910829 
L 175.336211 45.338086 
L 175.820708 45.338086 
L 175.830455 43.241095 
L 177.14922 43.241095 
L 177.14922 41.144104 
L 178.13136 41.144104 
L 178.13136 39.571361 
L 178.739821 39.571361 
L 178.739821 38.522865 
L 178.865506 38.522865 
L 178.865506 37.998618 
L 179.55912 37.998618 
L 179.55912 35.901627 
L 179.676378 35.901627 
L 179.676378 34.853131 
L 180.015791 34.853131 
L 180.015791 34.328884 
L 180.32364 34.328884 
L 180.32364 33.804636 
L 180.682497 33.804636 
L 180.682497 32.756141 
L 181.434844 32.756141 
L 181.434844 30.65915 
L 183.178904 30.65915 
L 183.178904 30.134902 
L 183.506196 30.134902 
L 183.506196 29.610654 
L 188.572203 29.610654 
L 188.572203 27.513663 
L 333.168 27.513663 
L 333.168 27.513663 
" style="fill:none;stroke:#000080;stroke-linecap:square;stroke-width:1.5;"/>
   </g>
   <g id="line2d_39">
    <defs>
     <path d="M 0 6 
C 1.591219 6 3.117479 5.367802 4.242641 4.242641 
C 5.367802 3.117479 6 1.591219 6 0 
C 6 -1.591219 5.367802 -3.117479 4.242641 -4.242641 
C 3.117479 -5.367802 1.591219 -6 0 -6 
C -1.591219 -6 -3.117479 -5.367802 -4.242641 -4.242641 
C -5.367802 -3.117479 -6 -1.591219 -6 0 
C -6 1.591219 -5.367802 3.117479 -4.242641 4.242641 
C -3.117479 5.367802 -1.591219 6 0 6 
z
" id="m8ce39be397" style="stroke:#000080;stroke-width:1.5;"/>
    </defs>
    <g>
     <use style="fill-opacity:0;stroke:#000080;stroke-width:1.5;" x="113.999206" xlink:href="#m8ce39be397" y="259.755403"/>
     <use style="fill-opacity:0;stroke:#000080;stroke-width:1.5;" x="151.832219" xlink:href="#m8ce39be397" y="150.711877"/>
     <use style="fill-opacity:0;stroke:#000080;stroke-width:1.5;" x="179.55912" xlink:href="#m8ce39be397" y="35.901627"/>
     <use style="fill-opacity:0;stroke:#000080;stroke-width:1.5;" x="188.572203" xlink:href="#m8ce39be397" y="29.610654"/>
     <use style="fill-opacity:0;stroke:#000080;stroke-width:1.5;" x="188.572203" xlink:href="#m8ce39be397" y="27.513663"/>
     <use style="fill-opacity:0;stroke:#000080;stroke-width:1.5;" x="333.168" xlink:href="#m8ce39be397" y="27.513663"/>
    </g>
   </g>
   <g id="line2d_40">
    <path style="fill:none;stroke:#000080;stroke-linecap:square;stroke-width:1.5;"/>
    <g/>
   </g>
   <g id="line2d_41">
    <defs>
     <path d="M 0 1.5 
C 0.397805 1.5 0.77937 1.341951 1.06066 1.06066 
C 1.341951 0.77937 1.5 0.397805 1.5 0 
C 1.5 -0.397805 1.341951 -0.77937 1.06066 -1.06066 
C 0.77937 -1.341951 0.397805 -1.5 0 -1.5 
C -0.397805 -1.5 -0.77937 -1.341951 -1.06066 -1.06066 
C -1.341951 -0.77937 -1.5 -0.397805 -1.5 0 
C -1.5 0.397805 -1.341951 0.77937 -1.06066 1.06066 
C -0.77937 1.341951 -0.397805 1.5 0 1.5 
z
" id="m2e8e6262f1" style="stroke:#ff00ff;"/>
    </defs>
    <g>
     <use style="fill:#ff00ff;stroke:#ff00ff;" x="175.788179" xlink:href="#m2e8e6262f1" y="27.513663"/>
     <use style="fill:#ff00ff;stroke:#ff00ff;" x="175.788179" xlink:href="#m2e8e6262f1" y="27.513663"/>
    </g>
   </g>
   <g id="line2d_42">
    <path d="M 28.455965 294.88 
L 28.455965 291.734514 
L 40.370217 291.734514 
L 40.370217 289.637523 
L 47.339607 289.637523 
L 47.339607 285.443541 
L 59.253858 285.443541 
L 59.253858 284.395046 
L 77.155024 284.395046 
L 77.155024 283.34655 
L 79.948502 283.34655 
L 79.948502 282.822302 
L 85.106889 282.822302 
L 85.106889 277.579825 
L 94.26507 277.579825 
L 94.26507 276.53133 
L 98.832144 276.53133 
L 98.832144 276.007082 
L 103.777005 276.007082 
L 103.777005 274.958587 
L 103.990531 274.958587 
L 103.990531 274.434339 
L 104.409787 274.434339 
L 104.409787 271.8131 
L 106.548983 271.8131 
L 106.548983 271.288853 
L 108.935392 271.288853 
L 108.935392 270.764605 
L 114.351204 270.764605 
L 114.351204 270.240357 
L 115.798351 270.240357 
L 115.798351 269.191862 
L 117.811013 269.191862 
L 117.811013 268.667614 
L 120.528351 268.667614 
L 120.528351 268.143366 
L 123.430938 268.143366 
L 123.430938 267.094871 
L 124.428624 267.094871 
L 124.428624 266.570623 
L 125.125128 266.570623 
L 125.125128 265.522128 
L 125.5541 265.522128 
L 125.5541 264.99788 
L 127.05979 264.99788 
L 127.05979 263.949385 
L 128.186438 263.949385 
L 128.186438 263.425137 
L 128.444143 263.425137 
L 128.444143 261.852394 
L 131.049878 261.852394 
L 131.049878 260.803898 
L 131.483957 260.803898 
L 131.483957 259.755403 
L 132.073821 259.755403 
L 132.156459 256.085669 
L 132.882847 256.085669 
L 132.882847 255.037173 
L 133.389004 255.037173 
L 133.389004 254.512926 
L 134.574897 254.512926 
L 134.574897 253.46443 
L 135.413533 253.46443 
L 135.413533 252.415935 
L 136.082436 252.415935 
L 136.082436 251.891687 
L 136.407373 251.891687 
L 136.407373 246.64921 
L 136.883542 246.64921 
L 136.977214 245.600714 
L 137.316373 245.600714 
L 137.316373 245.076467 
L 137.618997 245.076467 
L 137.618997 244.027971 
L 138.004608 244.027971 
L 138.033915 242.455228 
L 138.150647 242.455228 
L 138.150647 239.83399 
L 138.638097 239.83399 
L 138.638097 239.309742 
L 138.750809 239.309742 
L 138.750809 238.261246 
L 139.276327 238.261246 
L 139.276327 237.736999 
L 139.438997 237.736999 
L 139.438997 236.164255 
L 139.812678 236.164255 
L 139.812678 231.970274 
L 140.358394 231.970274 
L 140.358394 231.446026 
L 141.424506 231.446026 
L 141.424506 230.921778 
L 143.800672 230.921778 
L 143.800672 229.873283 
L 144.132429 229.873283 
L 144.173452 228.30054 
L 144.51825 228.30054 
L 144.51825 226.203549 
L 144.954432 226.203549 
L 144.954432 225.679301 
L 146.072324 225.679301 
L 146.072324 225.155053 
L 146.489148 225.155053 
L 146.57844 220.436824 
L 148.1274 220.436824 
L 148.176162 218.339833 
L 148.353782 218.339833 
L 148.353782 217.815585 
L 149.092685 217.815585 
L 149.154128 210.476117 
L 150.467326 210.476117 
L 150.552348 205.23364 
L 151.312725 205.23364 
L 151.380211 202.612401 
L 151.594402 202.612401 
L 151.607701 201.039658 
L 151.792811 201.039658 
L 151.792811 198.942667 
L 151.936869 198.942667 
L 151.936869 197.894172 
L 152.272646 197.894172 
L 152.272646 196.845677 
L 152.925139 196.845677 
L 152.925139 196.321429 
L 153.553767 196.321429 
L 153.553767 195.272933 
L 153.859664 195.272933 
L 153.859664 193.175943 
L 154.05677 193.175943 
L 154.05677 192.651695 
L 154.274423 192.651695 
L 154.274423 190.554704 
L 154.823341 190.554704 
L 154.823341 189.506209 
L 155.514869 189.506209 
L 155.599386 178.497006 
L 155.630973 178.497006 
L 155.725388 174.827272 
L 156.097943 174.827272 
L 156.118406 172.730281 
L 156.917557 172.730281 
L 156.917557 172.206034 
L 157.718503 172.206034 
L 157.718503 169.584795 
L 158.205309 169.584795 
L 158.205309 169.060547 
L 158.492691 169.060547 
L 158.492691 168.012052 
L 159.470713 168.012052 
L 159.554642 166.439309 
L 159.66314 166.439309 
L 159.671458 165.390813 
L 159.935523 165.390813 
L 159.951893 162.245327 
L 160.292113 162.245327 
L 160.292113 158.575593 
L 160.507322 158.575593 
L 160.546882 156.478602 
L 160.665017 156.478602 
L 160.665017 155.954354 
L 160.867881 155.954354 
L 160.945273 153.857364 
L 161.221032 153.857364 
L 161.221032 153.333116 
L 161.409962 153.333116 
L 161.499915 152.28462 
L 161.559624 152.28462 
L 161.641386 148.090639 
L 161.671022 148.090639 
L 161.671022 145.993648 
L 161.877052 145.993648 
L 161.877052 144.420905 
L 162.080643 144.420905 
L 162.159969 143.372409 
L 162.381577 143.372409 
L 162.417054 137.605684 
L 162.501901 137.605684 
L 162.501901 137.081437 
L 162.621389 137.081437 
L 162.621389 136.557189 
L 162.878615 136.557189 
L 162.885514 134.984446 
L 163.009223 134.984446 
L 163.118445 130.266216 
L 163.700485 130.266216 
L 163.792333 127.644978 
L 163.993981 127.644978 
L 163.993981 126.072235 
L 164.250724 126.072235 
L 164.320661 125.023739 
L 164.491128 125.023739 
L 164.491128 124.499491 
L 164.833233 124.499491 
L 164.833233 122.926748 
L 165.096033 122.926748 
L 165.096033 121.878253 
L 165.271028 121.878253 
L 165.360849 119.781262 
L 165.621647 119.781262 
L 165.692092 116.111528 
L 165.756415 116.111528 
L 165.791398 113.490289 
L 166.080193 113.490289 
L 166.177288 109.820555 
L 166.381108 109.820555 
L 166.381108 109.296308 
L 166.869391 109.296308 
L 166.874861 107.723564 
L 167.048979 107.723564 
L 167.048979 106.675069 
L 167.162294 106.675069 
L 167.162294 104.578078 
L 167.555741 104.578078 
L 167.560996 101.956839 
L 168.230902 101.956839 
L 168.321634 97.23861 
L 168.386866 97.23861 
L 168.45684 96.190115 
L 168.571183 96.190115 
L 168.59594 94.617371 
L 168.733922 94.617371 
L 168.822044 93.044628 
L 169.22264 93.044628 
L 169.322533 90.947637 
L 169.44541 90.947637 
L 169.534653 85.180912 
L 169.683918 85.180912 
L 169.683918 84.132417 
L 169.942052 84.132417 
L 170.046958 81.511178 
L 170.196366 81.511178 
L 170.196366 80.986931 
L 170.645739 80.986931 
L 170.645739 79.938435 
L 170.915883 79.938435 
L 170.959059 75.220206 
L 171.032212 75.220206 
L 171.032212 73.647463 
L 171.156287 73.647463 
L 171.262534 71.550472 
L 171.393375 71.550472 
L 171.45214 65.783747 
L 171.535742 65.783747 
L 171.606486 63.686756 
L 171.67694 63.686756 
L 171.67694 61.065517 
L 171.816987 61.065517 
L 171.816987 60.017022 
L 172.061379 60.017022 
L 172.109843 55.82304 
L 172.206364 55.82304 
L 172.206364 53.726049 
L 172.547845 53.726049 
L 172.547845 53.201802 
L 172.681 53.201802 
L 172.704391 52.153306 
L 172.855663 52.153306 
L 172.855663 51.629058 
L 172.986463 51.629058 
L 173.062942 47.435077 
L 173.180816 47.435077 
L 173.252664 41.144104 
L 173.384234 41.144104 
L 173.384234 37.47437 
L 173.496213 37.47437 
L 173.496213 36.950122 
L 174.113747 36.950122 
L 174.167501 33.804636 
L 174.327761 33.804636 
L 174.356096 30.65915 
L 174.851419 30.65915 
L 174.851419 29.086407 
L 175.788179 29.086407 
L 175.788179 27.513663 
L 333.168 27.513663 
L 333.168 27.513663 
" style="fill:none;stroke:#ff00ff;stroke-linecap:square;stroke-width:1.5;"/>
   </g>
   <g id="line2d_43">
    <defs>
     <path d="M -0 8.485281 
L 5.091169 0 
L 0 -8.485281 
L -5.091169 -0 
z
" id="mdf26f46614" style="stroke:#ff00ff;stroke-linejoin:miter;stroke-width:1.5;"/>
    </defs>
    <g>
     <use style="fill-opacity:0;stroke:#ff00ff;stroke-linejoin:miter;stroke-width:1.5;" x="125.125128" xlink:href="#mdf26f46614" y="265.522128"/>
     <use style="fill-opacity:0;stroke:#ff00ff;stroke-linejoin:miter;stroke-width:1.5;" x="159.671458" xlink:href="#mdf26f46614" y="165.915061"/>
     <use style="fill-opacity:0;stroke:#ff00ff;stroke-linejoin:miter;stroke-width:1.5;" x="175.788179" xlink:href="#mdf26f46614" y="29.086407"/>
     <use style="fill-opacity:0;stroke:#ff00ff;stroke-linejoin:miter;stroke-width:1.5;" x="175.788179" xlink:href="#mdf26f46614" y="27.513663"/>
     <use style="fill-opacity:0;stroke:#ff00ff;stroke-linejoin:miter;stroke-width:1.5;" x="175.788179" xlink:href="#mdf26f46614" y="27.513663"/>
     <use style="fill-opacity:0;stroke:#ff00ff;stroke-linejoin:miter;stroke-width:1.5;" x="333.168" xlink:href="#mdf26f46614" y="27.513663"/>
    </g>
   </g>
   <g id="line2d_44">
    <path style="fill:none;stroke:#ff00ff;stroke-linecap:square;stroke-width:1.5;"/>
    <g/>
   </g>
   <g id="line2d_45">
    <defs>
     <path d="M 0 1.5 
C 0.397805 1.5 0.77937 1.341951 1.06066 1.06066 
C 1.341951 0.77937 1.5 0.397805 1.5 0 
C 1.5 -0.397805 1.341951 -0.77937 1.06066 -1.06066 
C 0.77937 -1.341951 0.397805 -1.5 0 -1.5 
C -0.397805 -1.5 -0.77937 -1.341951 -1.06066 -1.06066 
C -1.341951 -0.77937 -1.5 -0.397805 -1.5 0 
C -1.5 0.397805 -1.341951 0.77937 -1.06066 1.06066 
C -0.77937 1.341951 -0.397805 1.5 0 1.5 
z
" id="m5f00489031" style="stroke:#ffa500;"/>
    </defs>
    <g>
     <use style="fill:#ffa500;stroke:#ffa500;" x="298.74982" xlink:href="#m5f00489031" y="169.060547"/>
     <use style="fill:#ffa500;stroke:#ffa500;" x="298.74982" xlink:href="#m5f00489031" y="169.060547"/>
    </g>
   </g>
   <g id="line2d_46">
    <path d="M 28.455965 294.88 
L 28.455965 291.734514 
L 40.370217 291.734514 
L 40.370217 289.113275 
L 52.284468 289.113275 
L 52.284468 288.589027 
L 56.12 288.589027 
L 56.12 287.540532 
L 61.903497 287.540532 
L 61.903497 285.443541 
L 64.198719 285.443541 
L 64.198719 284.919293 
L 66.223248 284.919293 
L 66.223248 283.870798 
L 72.543934 283.870798 
L 72.543934 282.822302 
L 78.137499 282.822302 
L 78.137499 282.298055 
L 85.732 282.298055 
L 85.732 281.773807 
L 88.027221 281.773807 
L 88.027221 281.249559 
L 92.70139 281.249559 
L 92.70139 280.725312 
L 96.038666 280.725312 
L 96.038666 280.201064 
L 97.336537 280.201064 
L 97.336537 279.676816 
L 100.983527 279.676816 
L 100.983527 278.628321 
L 107.952917 278.628321 
L 107.952917 278.104073 
L 110.457504 278.104073 
L 110.457504 277.055578 
L 111.030511 277.055578 
L 111.030511 276.53133 
L 116.73331 276.53133 
L 116.73331 276.007082 
L 119.526788 276.007082 
L 119.526788 275.482834 
L 123.635161 275.482834 
L 123.635161 274.958587 
L 134.249551 274.958587 
L 134.249551 274.434339 
L 140.434959 274.434339 
L 140.434959 267.619119 
L 140.762851 267.619119 
L 140.762851 266.570623 
L 143.925832 266.570623 
L 143.925832 266.046375 
L 144.214377 266.046375 
L 144.214377 265.522128 
L 146.39939 265.522128 
L 146.39939 264.99788 
L 147.378865 264.99788 
L 147.378865 264.473632 
L 153.035598 264.473632 
L 153.060049 261.852394 
L 162.89241 261.852394 
L 162.89241 261.328146 
L 163.395197 261.328146 
L 163.395197 260.279651 
L 164.740605 260.279651 
L 164.740605 258.706907 
L 166.710007 258.706907 
L 166.710007 258.18266 
L 167.081431 258.18266 
L 167.081431 257.658412 
L 172.101776 257.658412 
L 172.101776 255.037173 
L 172.898089 255.037173 
L 172.898089 253.988678 
L 176.046708 253.988678 
L 176.046708 252.940182 
L 178.371173 252.940182 
L 178.371173 252.415935 
L 182.697771 252.415935 
L 182.697771 250.843192 
L 183.628374 250.843192 
L 183.628374 249.794696 
L 188.883547 249.794696 
L 188.883547 248.746201 
L 192.36 248.746201 
L 192.36 248.221953 
L 197.879324 248.221953 
L 197.879324 244.552219 
L 202.03428 244.552219 
L 202.03428 243.503724 
L 204.623296 243.503724 
L 204.623296 240.358237 
L 205.912051 240.358237 
L 205.912051 239.83399 
L 207.07136 239.83399 
L 207.07136 238.261246 
L 208.928306 238.261246 
L 208.928306 237.736999 
L 214.663637 237.736999 
L 214.668046 233.543017 
L 214.909482 233.543017 
L 214.91015 230.921778 
L 215.493306 230.921778 
L 215.493306 230.397531 
L 215.838559 230.397531 
L 215.838559 228.824787 
L 217.937967 228.824787 
L 217.937967 228.30054 
L 218.902318 228.30054 
L 218.902318 226.727797 
L 219.990727 226.727797 
L 219.990727 226.203549 
L 221.242509 226.203549 
L 221.242509 225.155053 
L 223.057652 225.155053 
L 223.057652 224.630806 
L 223.814413 224.630806 
L 223.814413 224.106558 
L 226.463027 224.106558 
L 226.463027 221.485319 
L 227.652892 221.485319 
L 227.652892 220.961072 
L 229.349831 220.961072 
L 229.349831 220.436824 
L 230.021422 220.436824 
L 230.021422 219.912576 
L 230.624924 219.912576 
L 230.624924 218.864081 
L 233.39396 218.864081 
L 233.477035 215.718594 
L 233.798138 215.718594 
L 233.798138 215.194347 
L 234.93909 215.194347 
L 234.93909 214.670099 
L 235.851218 214.670099 
L 235.898024 212.573108 
L 236.283291 212.573108 
L 236.283291 211.524613 
L 238.319559 211.524613 
L 238.319559 209.427622 
L 240.232998 209.427622 
L 240.232998 208.903374 
L 240.53313 208.903374 
L 240.53313 208.379126 
L 242.143524 208.379126 
L 242.143524 205.757888 
L 243.088813 205.757888 
L 243.088813 205.23364 
L 243.937747 205.23364 
L 243.937747 204.709392 
L 245.269666 204.709392 
L 245.269666 201.039658 
L 246.570063 201.039658 
L 246.570063 199.466915 
L 247.487855 199.466915 
L 247.487855 198.942667 
L 247.913792 198.942667 
L 247.913792 197.369924 
L 249.034682 197.369924 
L 249.034682 196.845677 
L 249.215167 196.845677 
L 249.215167 195.797181 
L 250.204878 195.797181 
L 250.204878 193.175943 
L 252.226189 193.175943 
L 252.226189 191.078952 
L 254.034618 191.078952 
L 254.034618 190.554704 
L 256.107527 190.554704 
L 256.107527 190.030456 
L 256.510803 190.030456 
L 256.510803 189.506209 
L 257.164613 189.506209 
L 257.164613 186.88497 
L 258.538952 186.88497 
L 258.538952 184.787979 
L 259.811492 184.787979 
L 259.811492 184.263731 
L 260.996282 184.263731 
L 260.996282 183.215236 
L 262.104644 183.215236 
L 262.104644 182.16674 
L 263.145846 182.16674 
L 263.145846 180.593997 
L 264.127563 180.593997 
L 264.127563 179.545502 
L 265.056227 179.545502 
L 265.056227 179.021254 
L 265.937278 179.021254 
L 265.937278 178.497006 
L 266.338453 178.497006 
L 266.338453 177.972759 
L 266.775362 177.972759 
L 266.775362 176.400016 
L 267.574476 176.400016 
L 267.574476 175.35152 
L 269.069204 175.35152 
L 269.069204 174.827272 
L 269.770491 174.827272 
L 269.770491 174.303025 
L 270.09222 174.303025 
L 270.09222 173.778777 
L 270.444285 173.778777 
L 270.444285 173.254529 
L 273.466166 173.254529 
L 273.466166 171.681786 
L 279.869616 171.681786 
L 279.869616 171.157538 
L 280.616846 171.157538 
L 280.616846 170.633291 
L 283.002615 170.633291 
L 283.002615 170.109043 
L 283.317933 170.109043 
L 283.317933 169.584795 
L 298.74982 169.584795 
L 298.74982 169.060547 
L 333.168 169.060547 
L 333.168 169.060547 
" style="fill:none;stroke:#ffa500;stroke-linecap:square;stroke-width:1.5;"/>
   </g>
   <g id="line2d_47">
    <defs>
     <path d="M 0 -6 
L -1.347084 -1.854102 
L -5.706339 -1.854102 
L -2.179628 0.708204 
L -3.526712 4.854102 
L -0 2.291796 
L 3.526712 4.854102 
L 2.179628 0.708204 
L 5.706339 -1.854102 
L 1.347084 -1.854102 
z
" id="m7f715f033f" style="stroke:#ffa500;stroke-linejoin:bevel;stroke-width:1.5;"/>
    </defs>
    <g>
     <use style="fill-opacity:0;stroke:#ffa500;stroke-linejoin:bevel;stroke-width:1.5;" x="134.249551" xlink:href="#m7f715f033f" y="274.958587"/>
     <use style="fill-opacity:0;stroke:#ffa500;stroke-linejoin:bevel;stroke-width:1.5;" x="197.879324" xlink:href="#m7f715f033f" y="244.552219"/>
     <use style="fill-opacity:0;stroke:#ffa500;stroke-linejoin:bevel;stroke-width:1.5;" x="240.232998" xlink:href="#m7f715f033f" y="209.427622"/>
     <use style="fill-opacity:0;stroke:#ffa500;stroke-linejoin:bevel;stroke-width:1.5;" x="298.74982" xlink:href="#m7f715f033f" y="169.584795"/>
     <use style="fill-opacity:0;stroke:#ffa500;stroke-linejoin:bevel;stroke-width:1.5;" x="298.74982" xlink:href="#m7f715f033f" y="169.060547"/>
     <use style="fill-opacity:0;stroke:#ffa500;stroke-linejoin:bevel;stroke-width:1.5;" x="333.168" xlink:href="#m7f715f033f" y="169.060547"/>
    </g>
   </g>
   <g id="line2d_48">
    <path style="fill:none;stroke:#ffa500;stroke-linecap:square;stroke-width:1.5;"/>
    <g/>
   </g>
   <g id="line2d_49">
    <path clip-path="url(#p62aeaad185)" d="M 214.433143 237.736999 
" style="fill:none;stroke:#ffa500;stroke-linecap:square;stroke-width:1.5;"/>
    <defs>
     <path d="M -12 12 
L 12 -12 
M -12 -12 
L 12 12 
" id="m574a44fce1" style="stroke:#ffa500;"/>
    </defs>
    <g clip-path="url(#p62aeaad185)">
     <use style="fill:#ffa500;stroke:#ffa500;" x="214.433143" xlink:href="#m574a44fce1" y="237.736999"/>
    </g>
   </g>
   <g id="line2d_50">
    <defs>
     <path d="M 0 1.5 
C 0.397805 1.5 0.77937 1.341951 1.06066 1.06066 
C 1.341951 0.77937 1.5 0.397805 1.5 0 
C 1.5 -0.397805 1.341951 -0.77937 1.06066 -1.06066 
C 0.77937 -1.341951 0.397805 -1.5 0 -1.5 
C -0.397805 -1.5 -0.77937 -1.341951 -1.06066 -1.06066 
C -1.341951 -0.77937 -1.5 -0.397805 -1.5 0 
C -1.5 0.397805 -1.341951 0.77937 -1.06066 1.06066 
C -0.77937 1.341951 -0.397805 1.5 0 1.5 
z
" id="mc164f53fd2" style="stroke:#6495ed;"/>
    </defs>
    <g>
     <use style="fill:#6495ed;stroke:#6495ed;" x="204.625121" xlink:href="#mc164f53fd2" y="137.605684"/>
     <use style="fill:#6495ed;stroke:#6495ed;" x="204.625121" xlink:href="#mc164f53fd2" y="137.605684"/>
    </g>
   </g>
   <g id="line2d_51">
    <path d="M 28.455965 294.88 
L 28.455965 291.734514 
L 40.370217 291.734514 
L 40.370217 289.637523 
L 47.339607 289.637523 
L 47.339607 288.06478 
L 64.198719 288.06478 
L 64.198719 287.540532 
L 68.034251 287.540532 
L 68.034251 286.492036 
L 72.543934 286.492036 
L 72.543934 285.967789 
L 75.003641 285.967789 
L 75.003641 285.443541 
L 76.11297 285.443541 
L 76.11297 284.919293 
L 79.066841 284.919293 
L 79.066841 284.395046 
L 79.948502 284.395046 
L 79.948502 283.34655 
L 80.787138 283.34655 
L 80.787138 282.298055 
L 81.586754 282.298055 
L 81.586754 281.249559 
L 83.784035 281.249559 
L 83.784035 280.201064 
L 84.458185 280.201064 
L 84.458185 278.104073 
L 85.732 278.104073 
L 85.732 277.055578 
L 86.335171 277.055578 
L 86.335171 275.482834 
L 88.556144 275.482834 
L 88.556144 273.910091 
L 89.069276 273.910091 
L 89.069276 272.861596 
L 90.981092 272.861596 
L 90.981092 272.337348 
L 95.351029 272.337348 
L 95.351029 271.8131 
L 98.543252 271.8131 
L 98.543252 271.288853 
L 101.725597 271.288853 
L 101.725597 267.619119 
L 103.560793 267.619119 
L 103.560793 267.094871 
L 106.179321 267.094871 
L 106.179321 265.522128 
L 106.910863 265.522128 
L 106.910863 264.473632 
L 110.746395 264.473632 
L 110.746395 263.949385 
L 111.72091 263.949385 
L 111.72091 263.425137 
L 114.466953 263.425137 
L 114.466953 262.900889 
L 114.809594 262.900889 
L 114.809594 261.852394 
L 115.034286 261.852394 
L 115.034286 261.328146 
L 115.145539 261.328146 
L 115.145539 260.279651 
L 116.220179 260.279651 
L 116.220179 257.658412 
L 116.73331 257.658412 
L 116.73331 257.134164 
L 119.697821 257.134164 
L 119.697821 255.561421 
L 120.769881 255.561421 
L 120.769881 254.512926 
L 122.298767 254.512926 
L 122.298767 253.988678 
L 122.444434 253.988678 
L 122.444434 253.46443 
L 123.499282 253.46443 
L 123.499282 252.415935 
L 123.970233 252.415935 
L 123.970233 245.600714 
L 124.102454 245.600714 
L 124.102454 245.076467 
L 124.233665 245.076467 
L 124.233665 243.503724 
L 124.363883 243.503724 
L 124.363883 242.455228 
L 125.187069 242.455228 
L 125.187069 238.785494 
L 127.7659 238.785494 
L 127.7659 238.261246 
L 128.444143 238.261246 
L 128.444143 237.736999 
L 129.047315 237.736999 
L 129.047315 235.11576 
L 129.582224 235.11576 
L 129.582224 234.067265 
L 129.819968 234.067265 
L 129.867125 228.30054 
L 130.377486 228.30054 
L 130.377486 227.252044 
L 131.526768 227.252044 
L 131.612072 219.912576 
L 131.654565 219.912576 
L 131.739239 215.194347 
L 131.990784 215.194347 
L 132.032353 213.097356 
L 133.579779 213.097356 
L 133.579779 212.573108 
L 133.843356 212.573108 
L 133.843356 212.04886 
L 133.992176 212.04886 
L 133.992176 211.524613 
L 137.558897 211.524613 
L 137.558897 209.427622 
L 138.179706 209.427622 
L 138.179706 208.903374 
L 138.295455 208.903374 
L 138.295455 208.379126 
L 141.424506 208.379126 
L 141.424506 207.854879 
L 141.945413 207.854879 
L 141.945413 207.330631 
L 142.450997 207.330631 
L 142.450997 203.136649 
L 142.875982 203.136649 
L 142.875982 202.088154 
L 144.698028 202.088154 
L 144.698028 201.039658 
L 145.43702 201.039658 
L 145.512992 196.845677 
L 145.588629 196.845677 
L 145.64514 194.748686 
L 148.369839 194.748686 
L 148.369839 194.224438 
L 151.14967 194.224438 
L 151.14967 193.175943 
L 151.407131 193.175943 
L 151.407131 191.603199 
L 153.02336 191.603199 
L 153.060049 190.554704 
L 156.898024 190.554704 
L 156.898024 186.360722 
L 158.259561 186.360722 
L 158.259561 185.836474 
L 161.19822 185.836474 
L 161.19822 182.16674 
L 164.635019 182.16674 
L 164.635019 180.06975 
L 165.509515 180.06975 
L 165.574523 174.827272 
L 167.497822 174.827272 
L 167.497822 171.157538 
L 168.256153 171.157538 
L 168.256153 170.633291 
L 169.951199 170.633291 
L 169.951199 168.5363 
L 170.597363 168.5363 
L 170.601767 167.487804 
L 172.09774 167.487804 
L 172.09774 165.915061 
L 172.673195 165.915061 
L 172.673195 165.390813 
L 174.005733 165.390813 
L 174.005733 162.769575 
L 174.518121 162.769575 
L 174.518121 162.245327 
L 175.722934 162.245327 
L 175.722934 161.196832 
L 177.284057 161.196832 
L 177.284057 159.099841 
L 179.114151 159.099841 
L 179.114151 158.575593 
L 180.036147 158.575593 
L 180.036147 157.527098 
L 181.26285 157.527098 
L 181.26285 156.478602 
L 182.407809 156.478602 
L 182.407809 154.905859 
L 183.48124 154.905859 
L 183.48124 153.857364 
L 183.780395 153.857364 
L 183.780395 153.333116 
L 185.445772 153.333116 
L 185.445772 151.760373 
L 185.712868 151.760373 
L 185.712868 151.236125 
L 186.349789 151.236125 
L 186.349789 150.18763 
L 186.6033 150.18763 
L 186.6033 149.663382 
L 187.208626 149.663382 
L 187.208626 149.139134 
L 188.026586 149.139134 
L 188.026586 148.614886 
L 189.554248 148.614886 
L 189.554248 148.090639 
L 190.270007 148.090639 
L 190.270007 147.566391 
L 191.617875 147.566391 
L 191.617875 145.993648 
L 192.254139 145.993648 
L 192.254139 143.896657 
L 194.586954 143.896657 
L 194.586954 142.848162 
L 195.12384 142.848162 
L 195.12384 142.323914 
L 196.640665 142.323914 
L 196.640665 141.799666 
L 197.117919 141.799666 
L 197.117919 140.751171 
L 197.582279 140.751171 
L 197.582279 139.702675 
L 201.278153 139.702675 
L 201.278153 138.65418 
L 202.352389 138.65418 
L 202.352389 138.129932 
L 204.625121 138.129932 
L 204.625121 137.605684 
L 333.168 137.605684 
L 333.168 137.605684 
" style="fill:none;stroke:#6495ed;stroke-linecap:square;stroke-width:1.5;"/>
   </g>
   <g id="line2d_52">
    <defs>
     <path d="M -0 6 
L 6 -6 
L -6 -6 
z
" id="m9dd1059453" style="stroke:#6495ed;stroke-linejoin:miter;stroke-width:1.5;"/>
    </defs>
    <g>
     <use style="fill-opacity:0;stroke:#6495ed;stroke-linejoin:miter;stroke-width:1.5;" x="114.466953" xlink:href="#m9dd1059453" y="262.900889"/>
     <use style="fill-opacity:0;stroke:#6495ed;stroke-linejoin:miter;stroke-width:1.5;" x="145.456044" xlink:href="#m9dd1059453" y="200.515411"/>
     <use style="fill-opacity:0;stroke:#6495ed;stroke-linejoin:miter;stroke-width:1.5;" x="204.625121" xlink:href="#m9dd1059453" y="138.129932"/>
     <use style="fill-opacity:0;stroke:#6495ed;stroke-linejoin:miter;stroke-width:1.5;" x="204.625121" xlink:href="#m9dd1059453" y="137.605684"/>
     <use style="fill-opacity:0;stroke:#6495ed;stroke-linejoin:miter;stroke-width:1.5;" x="204.625121" xlink:href="#m9dd1059453" y="137.605684"/>
     <use style="fill-opacity:0;stroke:#6495ed;stroke-linejoin:miter;stroke-width:1.5;" x="333.168" xlink:href="#m9dd1059453" y="137.605684"/>
    </g>
   </g>
   <g id="line2d_53">
    <path style="fill:none;stroke:#6495ed;stroke-linecap:square;stroke-width:1.5;"/>
    <g/>
   </g>
   <g id="line2d_54">
    <path clip-path="url(#p62aeaad185)" d="M 135.276571 211.524613 
" style="fill:none;stroke:#6495ed;stroke-linecap:square;stroke-width:1.5;"/>
    <defs>
     <path d="M -12 12 
L 12 -12 
M -12 -12 
L 12 12 
" id="m5fa631c211" style="stroke:#6495ed;"/>
    </defs>
    <g clip-path="url(#p62aeaad185)">
     <use style="fill:#6495ed;stroke:#6495ed;" x="135.276571" xlink:href="#m5fa631c211" y="211.524613"/>
    </g>
   </g>
   <g id="line2d_55">
    <path d="M 333.168 169.060547 
L 363.64328 289.532673 
" style="fill:none;stroke:#ffa500;stroke-linecap:square;stroke-width:1.5;"/>
    <g>
     <use style="fill-opacity:0;stroke:#ffa500;stroke-linejoin:bevel;stroke-width:1.5;" x="333.168" xlink:href="#m7f715f033f" y="169.060547"/>
     <use style="fill-opacity:0;stroke:#ffa500;stroke-linejoin:bevel;stroke-width:1.5;" x="363.64328" xlink:href="#m7f715f033f" y="289.532673"/>
    </g>
   </g>
   <g id="line2d_56">
    <path d="M 333.168 137.605684 
L 363.64328 203.975446 
" style="fill:none;stroke:#6495ed;stroke-linecap:square;stroke-width:1.5;"/>
    <g>
     <use style="fill-opacity:0;stroke:#6495ed;stroke-linejoin:miter;stroke-width:1.5;" x="333.168" xlink:href="#m9dd1059453" y="137.605684"/>
     <use style="fill-opacity:0;stroke:#6495ed;stroke-linejoin:miter;stroke-width:1.5;" x="363.64328" xlink:href="#m9dd1059453" y="203.975446"/>
    </g>
   </g>
   <g id="line2d_57">
    <path d="M 333.168 27.513663 
L 363.64328 118.418218 
" style="fill:none;stroke:#000080;stroke-linecap:square;stroke-width:1.5;"/>
    <g>
     <use style="fill-opacity:0;stroke:#000080;stroke-width:1.5;" x="333.168" xlink:href="#m8ce39be397" y="27.513663"/>
     <use style="fill-opacity:0;stroke:#000080;stroke-width:1.5;" x="363.64328" xlink:href="#m8ce39be397" y="118.418218"/>
    </g>
   </g>
   <g id="line2d_58">
    <path d="M 333.168 27.513663 
L 363.64328 32.86099 
" style="fill:none;stroke:#ff00ff;stroke-linecap:square;stroke-width:1.5;"/>
    <g>
     <use style="fill-opacity:0;stroke:#ff00ff;stroke-linejoin:miter;stroke-width:1.5;" x="333.168" xlink:href="#mdf26f46614" y="27.513663"/>
     <use style="fill-opacity:0;stroke:#ff00ff;stroke-linejoin:miter;stroke-width:1.5;" x="363.64328" xlink:href="#mdf26f46614" y="32.86099"/>
    </g>
   </g>
   <g id="line2d_59">
    <path d="M 333.168 294.88 
L 333.168 27.513663 
" style="fill:none;stroke:#000000;stroke-linecap:square;stroke-width:1.5;"/>
   </g>
   <g id="patch_3">
    <path d="M 56.12 294.88 
L 56.12 24.84 
" style="fill:none;stroke:#000000;stroke-linecap:square;stroke-linejoin:miter;stroke-width:0.8;"/>
   </g>
   <g id="patch_4">
    <path d="M 333.168 294.88 
L 333.168 24.84 
" style="fill:none;stroke:#000000;stroke-linecap:square;stroke-linejoin:miter;stroke-width:0.8;"/>
   </g>
   <g id="patch_5">
    <path d="M 56.12 294.88 
L 333.168 294.88 
" style="fill:none;stroke:#000000;stroke-linecap:square;stroke-linejoin:miter;stroke-width:0.8;"/>
   </g>
   <g id="patch_6">
    <path d="M 56.12 24.84 
L 333.168 24.84 
" style="fill:none;stroke:#000000;stroke-linecap:square;stroke-linejoin:miter;stroke-width:0.8;"/>
   </g>
   <g id="text_13">
    <!-- RS -->
    <defs>
     <path d="M 44.390625 34.1875 
Q 47.5625 33.109375 50.5625 29.59375 
Q 53.5625 26.078125 56.59375 19.921875 
L 66.609375 0 
L 56 0 
L 46.6875 18.703125 
Q 43.0625 26.03125 39.671875 28.421875 
Q 36.28125 30.8125 30.421875 30.8125 
L 19.671875 30.8125 
L 19.671875 0 
L 9.8125 0 
L 9.8125 72.90625 
L 32.078125 72.90625 
Q 44.578125 72.90625 50.734375 67.671875 
Q 56.890625 62.453125 56.890625 51.90625 
Q 56.890625 45.015625 53.6875 40.46875 
Q 50.484375 35.9375 44.390625 34.1875 
z
M 19.671875 64.796875 
L 19.671875 38.921875 
L 32.078125 38.921875 
Q 39.203125 38.921875 42.84375 42.21875 
Q 46.484375 45.515625 46.484375 51.90625 
Q 46.484375 58.296875 42.84375 61.546875 
Q 39.203125 64.796875 32.078125 64.796875 
z
" id="DejaVuSans-52"/>
     <path d="M 53.515625 70.515625 
L 53.515625 60.890625 
Q 47.90625 63.578125 42.921875 64.890625 
Q 37.9375 66.21875 33.296875 66.21875 
Q 25.25 66.21875 20.875 63.09375 
Q 16.5 59.96875 16.5 54.203125 
Q 16.5 49.359375 19.40625 46.890625 
Q 22.3125 44.4375 30.421875 42.921875 
L 36.375 41.703125 
Q 47.40625 39.59375 52.65625 34.296875 
Q 57.90625 29 57.90625 20.125 
Q 57.90625 9.515625 50.796875 4.046875 
Q 43.703125 -1.421875 29.984375 -1.421875 
Q 24.8125 -1.421875 18.96875 -0.25 
Q 13.140625 0.921875 6.890625 3.21875 
L 6.890625 13.375 
Q 12.890625 10.015625 18.65625 8.296875 
Q 24.421875 6.59375 29.984375 6.59375 
Q 38.421875 6.59375 43.015625 9.90625 
Q 47.609375 13.234375 47.609375 19.390625 
Q 47.609375 24.75 44.3125 27.78125 
Q 41.015625 30.8125 33.5 32.328125 
L 27.484375 33.5 
Q 16.453125 35.6875 11.515625 40.375 
Q 6.59375 45.0625 6.59375 53.421875 
Q 6.59375 63.09375 13.40625 68.65625 
Q 20.21875 74.21875 32.171875 74.21875 
Q 37.3125 74.21875 42.625 73.28125 
Q 47.953125 72.359375 53.515625 70.515625 
z
" id="DejaVuSans-53"/>
    </defs>
    <g transform="translate(369.18424 294.223611)scale(0.17 -0.17)">
     <use xlink:href="#DejaVuSans-52"/>
     <use x="69.482422" xlink:href="#DejaVuSans-53"/>
    </g>
   </g>
   <g id="text_14">
    <!-- TPE -->
    <defs>
     <path d="M -0.296875 72.90625 
L 61.375 72.90625 
L 61.375 64.59375 
L 35.5 64.59375 
L 35.5 0 
L 25.59375 0 
L 25.59375 64.59375 
L -0.296875 64.59375 
z
" id="DejaVuSans-54"/>
     <path d="M 19.671875 64.796875 
L 19.671875 37.40625 
L 32.078125 37.40625 
Q 38.96875 37.40625 42.71875 40.96875 
Q 46.484375 44.53125 46.484375 51.125 
Q 46.484375 57.671875 42.71875 61.234375 
Q 38.96875 64.796875 32.078125 64.796875 
z
M 9.8125 72.90625 
L 32.078125 72.90625 
Q 44.34375 72.90625 50.609375 67.359375 
Q 56.890625 61.8125 56.890625 51.125 
Q 56.890625 40.328125 50.609375 34.8125 
Q 44.34375 29.296875 32.078125 29.296875 
L 19.671875 29.296875 
L 19.671875 0 
L 9.8125 0 
z
" id="DejaVuSans-50"/>
     <path d="M 9.8125 72.90625 
L 55.90625 72.90625 
L 55.90625 64.59375 
L 19.671875 64.59375 
L 19.671875 43.015625 
L 54.390625 43.015625 
L 54.390625 34.71875 
L 19.671875 34.71875 
L 19.671875 8.296875 
L 56.78125 8.296875 
L 56.78125 0 
L 9.8125 0 
z
" id="DejaVuSans-45"/>
    </defs>
    <g transform="translate(369.18424 208.666383)scale(0.17 -0.17)">
     <use xlink:href="#DejaVuSans-54"/>
     <use x="61.083984" xlink:href="#DejaVuSans-50"/>
     <use x="121.386719" xlink:href="#DejaVuSans-45"/>
    </g>
   </g>
   <g id="text_15">
    <!-- CMA-ES -->
    <defs>
     <path d="M 64.40625 67.28125 
L 64.40625 56.890625 
Q 59.421875 61.53125 53.78125 63.8125 
Q 48.140625 66.109375 41.796875 66.109375 
Q 29.296875 66.109375 22.65625 58.46875 
Q 16.015625 50.828125 16.015625 36.375 
Q 16.015625 21.96875 22.65625 14.328125 
Q 29.296875 6.6875 41.796875 6.6875 
Q 48.140625 6.6875 53.78125 8.984375 
Q 59.421875 11.28125 64.40625 15.921875 
L 64.40625 5.609375 
Q 59.234375 2.09375 53.4375 0.328125 
Q 47.65625 -1.421875 41.21875 -1.421875 
Q 24.65625 -1.421875 15.125 8.703125 
Q 5.609375 18.84375 5.609375 36.375 
Q 5.609375 53.953125 15.125 64.078125 
Q 24.65625 74.21875 41.21875 74.21875 
Q 47.75 74.21875 53.53125 72.484375 
Q 59.328125 70.75 64.40625 67.28125 
z
" id="DejaVuSans-43"/>
     <path d="M 9.8125 72.90625 
L 24.515625 72.90625 
L 43.109375 23.296875 
L 61.8125 72.90625 
L 76.515625 72.90625 
L 76.515625 0 
L 66.890625 0 
L 66.890625 64.015625 
L 48.09375 14.015625 
L 38.1875 14.015625 
L 19.390625 64.015625 
L 19.390625 0 
L 9.8125 0 
z
" id="DejaVuSans-4d"/>
     <path d="M 34.1875 63.1875 
L 20.796875 26.90625 
L 47.609375 26.90625 
z
M 28.609375 72.90625 
L 39.796875 72.90625 
L 67.578125 0 
L 57.328125 0 
L 50.6875 18.703125 
L 17.828125 18.703125 
L 11.1875 0 
L 0.78125 0 
z
" id="DejaVuSans-41"/>
    </defs>
    <g transform="translate(369.18424 123.109155)scale(0.17 -0.17)">
     <use xlink:href="#DejaVuSans-43"/>
     <use x="69.824219" xlink:href="#DejaVuSans-4d"/>
     <use x="156.103516" xlink:href="#DejaVuSans-41"/>
     <use x="224.480469" xlink:href="#DejaVuSans-2d"/>
     <use x="260.564453" xlink:href="#DejaVuSans-45"/>
     <use x="323.748047" xlink:href="#DejaVuSans-53"/>
    </g>
   </g>
   <g id="text_16">
    <!-- DE -->
    <defs>
     <path d="M 19.671875 64.796875 
L 19.671875 8.109375 
L 31.59375 8.109375 
Q 46.6875 8.109375 53.6875 14.9375 
Q 60.6875 21.78125 60.6875 36.53125 
Q 60.6875 51.171875 53.6875 57.984375 
Q 46.6875 64.796875 31.59375 64.796875 
z
M 9.8125 72.90625 
L 30.078125 72.90625 
Q 51.265625 72.90625 61.171875 64.09375 
Q 71.09375 55.28125 71.09375 36.53125 
Q 71.09375 17.671875 61.125 8.828125 
Q 51.171875 0 30.078125 0 
L 9.8125 0 
z
" id="DejaVuSans-44"/>
    </defs>
    <g transform="translate(369.18424 37.551928)scale(0.17 -0.17)">
     <use xlink:href="#DejaVuSans-44"/>
     <use x="77.001953" xlink:href="#DejaVuSans-45"/>
    </g>
   </g>
   <g id="text_17">
    <!-- bbob-mixint f13, 5-D -->
    <defs>
     <path d="M 48.6875 27.296875 
Q 48.6875 37.203125 44.609375 42.84375 
Q 40.53125 48.484375 33.40625 48.484375 
Q 26.265625 48.484375 22.1875 42.84375 
Q 18.109375 37.203125 18.109375 27.296875 
Q 18.109375 17.390625 22.1875 11.75 
Q 26.265625 6.109375 33.40625 6.109375 
Q 40.53125 6.109375 44.609375 11.75 
Q 48.6875 17.390625 48.6875 27.296875 
z
M 18.109375 46.390625 
Q 20.953125 51.265625 25.265625 53.625 
Q 29.59375 56 35.59375 56 
Q 45.5625 56 51.78125 48.09375 
Q 58.015625 40.1875 58.015625 27.296875 
Q 58.015625 14.40625 51.78125 6.484375 
Q 45.5625 -1.421875 35.59375 -1.421875 
Q 29.59375 -1.421875 25.265625 0.953125 
Q 20.953125 3.328125 18.109375 8.203125 
L 18.109375 0 
L 9.078125 0 
L 9.078125 75.984375 
L 18.109375 75.984375 
z
" id="DejaVuSans-62"/>
     <path d="M 54.890625 54.6875 
L 35.109375 28.078125 
L 55.90625 0 
L 45.3125 0 
L 29.390625 21.484375 
L 13.484375 0 
L 2.875 0 
L 24.125 28.609375 
L 4.6875 54.6875 
L 15.28125 54.6875 
L 29.78125 35.203125 
L 44.28125 54.6875 
z
" id="DejaVuSans-78"/>
     <path d="M 40.578125 39.3125 
Q 47.65625 37.796875 51.625 33 
Q 55.609375 28.21875 55.609375 21.1875 
Q 55.609375 10.40625 48.1875 4.484375 
Q 40.765625 -1.421875 27.09375 -1.421875 
Q 22.515625 -1.421875 17.65625 -0.515625 
Q 12.796875 0.390625 7.625 2.203125 
L 7.625 11.71875 
Q 11.71875 9.328125 16.59375 8.109375 
Q 21.484375 6.890625 26.8125 6.890625 
Q 36.078125 6.890625 40.9375 10.546875 
Q 45.796875 14.203125 45.796875 21.1875 
Q 45.796875 27.640625 41.28125 31.265625 
Q 36.765625 34.90625 28.71875 34.90625 
L 20.21875 34.90625 
L 20.21875 43.015625 
L 29.109375 43.015625 
Q 36.375 43.015625 40.234375 45.921875 
Q 44.09375 48.828125 44.09375 54.296875 
Q 44.09375 59.90625 40.109375 62.90625 
Q 36.140625 65.921875 28.71875 65.921875 
Q 24.65625 65.921875 20.015625 65.03125 
Q 15.375 64.15625 9.8125 62.3125 
L 9.8125 71.09375 
Q 15.4375 72.65625 20.34375 73.4375 
Q 25.25 74.21875 29.59375 74.21875 
Q 40.828125 74.21875 47.359375 69.109375 
Q 53.90625 64.015625 53.90625 55.328125 
Q 53.90625 49.265625 50.4375 45.09375 
Q 46.96875 40.921875 40.578125 39.3125 
z
" id="DejaVuSans-33"/>
     <path d="M 10.796875 72.90625 
L 49.515625 72.90625 
L 49.515625 64.59375 
L 19.828125 64.59375 
L 19.828125 46.734375 
Q 21.96875 47.46875 24.109375 47.828125 
Q 26.265625 48.1875 28.421875 48.1875 
Q 40.625 48.1875 47.75 41.5 
Q 54.890625 34.8125 54.890625 23.390625 
Q 54.890625 11.625 47.5625 5.09375 
Q 40.234375 -1.421875 26.90625 -1.421875 
Q 22.3125 -1.421875 17.546875 -0.640625 
Q 12.796875 0.140625 7.71875 1.703125 
L 7.71875 11.625 
Q 12.109375 9.234375 16.796875 8.0625 
Q 21.484375 6.890625 26.703125 6.890625 
Q 35.15625 6.890625 40.078125 11.328125 
Q 45.015625 15.765625 45.015625 23.390625 
Q 45.015625 31 40.078125 35.4375 
Q 35.15625 39.890625 26.703125 39.890625 
Q 22.75 39.890625 18.8125 39.015625 
Q 14.890625 38.140625 10.796875 36.28125 
z
" id="DejaVuSans-35"/>
    </defs>
    <g transform="translate(58.89048 35.290806)scale(0.102 -0.102)">
     <use xlink:href="#DejaVuSans-62"/>
     <use x="63.476562" xlink:href="#DejaVuSans-62"/>
     <use x="126.953125" xlink:href="#DejaVuSans-6f"/>
     <use x="188.134766" xlink:href="#DejaVuSans-62"/>
     <use x="251.611328" xlink:href="#DejaVuSans-2d"/>
     <use x="287.695312" xlink:href="#DejaVuSans-6d"/>
     <use x="385.107422" xlink:href="#DejaVuSans-69"/>
     <use x="412.890625" xlink:href="#DejaVuSans-78"/>
     <use x="472.070312" xlink:href="#DejaVuSans-69"/>
     <use x="499.853516" xlink:href="#DejaVuSans-6e"/>
     <use x="563.232422" xlink:href="#DejaVuSans-74"/>
     <use x="602.441406" xlink:href="#DejaVuSans-20"/>
     <use x="634.228516" xlink:href="#DejaVuSans-66"/>
     <use x="669.433594" xlink:href="#DejaVuSans-31"/>
     <use x="733.056641" xlink:href="#DejaVuSans-33"/>
     <use x="796.679688" xlink:href="#DejaVuSans-2c"/>
     <use x="828.466797" xlink:href="#DejaVuSans-20"/>
     <use x="860.253906" xlink:href="#DejaVuSans-35"/>
     <use x="923.876953" xlink:href="#DejaVuSans-2d"/>
     <use x="959.960938" xlink:href="#DejaVuSans-44"/>
    </g>
    <!-- 51 targets: 100..1e-08 -->
    <defs>
     <path d="M 11.71875 12.40625 
L 22.015625 12.40625 
L 22.015625 0 
L 11.71875 0 
z
M 11.71875 51.703125 
L 22.015625 51.703125 
L 22.015625 39.3125 
L 11.71875 39.3125 
z
" id="DejaVuSans-3a"/>
    </defs>
    <g transform="translate(58.89048 46.712575)scale(0.102 -0.102)">
     <use xlink:href="#DejaVuSans-35"/>
     <use x="63.623047" xlink:href="#DejaVuSans-31"/>
     <use x="127.246094" xlink:href="#DejaVuSans-20"/>
     <use x="159.033203" xlink:href="#DejaVuSans-74"/>
     <use x="198.242188" xlink:href="#DejaVuSans-61"/>
     <use x="259.521484" xlink:href="#DejaVuSans-72"/>
     <use x="300.619141" xlink:href="#DejaVuSans-67"/>
     <use x="364.095703" xlink:href="#DejaVuSans-65"/>
     <use x="425.619141" xlink:href="#DejaVuSans-74"/>
     <use x="464.828125" xlink:href="#DejaVuSans-73"/>
     <use x="516.927734" xlink:href="#DejaVuSans-3a"/>
     <use x="550.619141" xlink:href="#DejaVuSans-20"/>
     <use x="582.40625" xlink:href="#DejaVuSans-31"/>
     <use x="646.029297" xlink:href="#DejaVuSans-30"/>
     <use x="709.652344" xlink:href="#DejaVuSans-30"/>
     <use x="773.275391" xlink:href="#DejaVuSans-2e"/>
     <use x="805.0625" xlink:href="#DejaVuSans-2e"/>
     <use x="836.849609" xlink:href="#DejaVuSans-31"/>
     <use x="900.472656" xlink:href="#DejaVuSans-65"/>
     <use x="961.996094" xlink:href="#DejaVuSans-2d"/>
     <use x="998.080078" xlink:href="#DejaVuSans-30"/>
     <use x="1061.703125" xlink:href="#DejaVuSans-38"/>
    </g>
    <!-- 15 instances -->
    <g transform="translate(58.89048 58.134344)scale(0.102 -0.102)">
     <use xlink:href="#DejaVuSans-31"/>
     <use x="63.623047" xlink:href="#DejaVuSans-35"/>
     <use x="127.246094" xlink:href="#DejaVuSans-20"/>
     <use x="159.033203" xlink:href="#DejaVuSans-69"/>
     <use x="186.816406" xlink:href="#DejaVuSans-6e"/>
     <use x="250.195312" xlink:href="#DejaVuSans-73"/>
     <use x="302.294922" xlink:href="#DejaVuSans-74"/>
     <use x="341.503906" xlink:href="#DejaVuSans-61"/>
     <use x="402.783203" xlink:href="#DejaVuSans-6e"/>
     <use x="466.162109" xlink:href="#DejaVuSans-63"/>
     <use x="521.142578" xlink:href="#DejaVuSans-65"/>
     <use x="582.666016" xlink:href="#DejaVuSans-73"/>
    </g>
   </g>
   <g id="text_18">
    <!-- v2.2.2.645 -->
    <g style="fill:#808080;" transform="translate(167.829937 290.099912)scale(0.1 -0.1)">
     <use xlink:href="#DejaVuSans-76"/>
     <use x="59.179688" xlink:href="#DejaVuSans-32"/>
     <use x="122.802734" xlink:href="#DejaVuSans-2e"/>
     <use x="154.589844" xlink:href="#DejaVuSans-32"/>
     <use x="218.212891" xlink:href="#DejaVuSans-2e"/>
     <use x="250" xlink:href="#DejaVuSans-32"/>
     <use x="313.623047" xlink:href="#DejaVuSans-2e"/>
     <use x="345.410156" xlink:href="#DejaVuSans-36"/>
     <use x="409.033203" xlink:href="#DejaVuSans-34"/>
     <use x="472.65625" xlink:href="#DejaVuSans-35"/>
    </g>
   </g>
   <g id="text_19">
    <!-- 13 Sharp ridge -->
    <defs>
     <path d="M 54.890625 33.015625 
L 54.890625 0 
L 45.90625 0 
L 45.90625 32.71875 
Q 45.90625 40.484375 42.875 44.328125 
Q 39.84375 48.1875 33.796875 48.1875 
Q 26.515625 48.1875 22.3125 43.546875 
Q 18.109375 38.921875 18.109375 30.90625 
L 18.109375 0 
L 9.078125 0 
L 9.078125 75.984375 
L 18.109375 75.984375 
L 18.109375 46.1875 
Q 21.34375 51.125 25.703125 53.5625 
Q 30.078125 56 35.796875 56 
Q 45.21875 56 50.046875 50.171875 
Q 54.890625 44.34375 54.890625 33.015625 
z
" id="DejaVuSans-68"/>
    </defs>
    <g transform="translate(120.55025 18.84)scale(0.2 -0.2)">
     <use xlink:href="#DejaVuSans-31"/>
     <use x="63.623047" xlink:href="#DejaVuSans-33"/>
     <use x="127.246094" xlink:href="#DejaVuSans-20"/>
     <use x="159.033203" xlink:href="#DejaVuSans-53"/>
     <use x="222.509766" xlink:href="#DejaVuSans-68"/>
     <use x="285.888672" xlink:href="#DejaVuSans-61"/>
     <use x="347.167969" xlink:href="#DejaVuSans-72"/>
     <use x="388.28125" xlink:href="#DejaVuSans-70"/>
     <use x="451.757812" xlink:href="#DejaVuSans-20"/>
     <use x="483.544922" xlink:href="#DejaVuSans-72"/>
     <use x="524.658203" xlink:href="#DejaVuSans-69"/>
     <use x="552.441406" xlink:href="#DejaVuSans-64"/>
     <use x="615.917969" xlink:href="#DejaVuSans-67"/>
     <use x="679.394531" xlink:href="#DejaVuSans-65"/>
    </g>
   </g>
  </g>
 </g>
 <defs>
  <clipPath id="p62aeaad185">
   <rect height="270.04" width="277.048" x="56.12" y="24.84"/>
  </clipPath>
 </defs>
</svg>
