<?xml version="1.0" encoding="utf-8" standalone="no"?>
<!DOCTYPE svg PUBLIC "-//W3C//DTD SVG 1.1//EN"
  "http://www.w3.org/Graphics/SVG/1.1/DTD/svg11.dtd">
<!-- Created with matplotlib (http://matplotlib.org/) -->
<svg height="345.6pt" version="1.1" viewBox="0 0 460.8 345.6" width="460.8pt" xmlns="http://www.w3.org/2000/svg" xmlns:xlink="http://www.w3.org/1999/xlink">
 <defs>
  <style type="text/css">
*{stroke-linecap:butt;stroke-linejoin:round;}
  </style>
 </defs>
 <g id="figure_1">
  <g id="patch_1">
   <path d="M 0 345.6 
L 460.8 345.6 
L 460.8 0 
L 0 0 
z
" style="fill:#ffffff;"/>
  </g>
  <g id="axes_1">
   <g id="patch_2">
    <path d="M 56.12 294.88 
L 333.168 294.88 
L 333.168 24.84 
L 56.12 24.84 
z
" style="fill:#ffffff;"/>
   </g>
   <g id="matplotlib.axis_1">
    <g id="xtick_1">
     <g id="line2d_1">
      <path clip-path="url(#pee25c87fa4)" d="M 56.12 294.88 
L 56.12 24.84 
" style="fill:none;stroke:#b0b0b0;stroke-linecap:square;stroke-width:0.8;"/>
     </g>
     <g id="line2d_2">
      <defs>
       <path d="M 0 0 
L 0 3.5 
" id="m90c8b6d50f" style="stroke:#000000;stroke-width:0.8;"/>
      </defs>
      <g>
       <use style="stroke:#000000;stroke-width:0.8;" x="56.12" xlink:href="#m90c8b6d50f" y="294.88"/>
      </g>
     </g>
     <g id="text_1">
      <!-- 0 -->
      <defs>
       <path d="M 31.78125 66.40625 
Q 24.171875 66.40625 20.328125 58.90625 
Q 16.5 51.421875 16.5 36.375 
Q 16.5 21.390625 20.328125 13.890625 
Q 24.171875 6.390625 31.78125 6.390625 
Q 39.453125 6.390625 43.28125 13.890625 
Q 47.125 21.390625 47.125 36.375 
Q 47.125 51.421875 43.28125 58.90625 
Q 39.453125 66.40625 31.78125 66.40625 
z
M 31.78125 74.21875 
Q 44.046875 74.21875 50.515625 64.515625 
Q 56.984375 54.828125 56.984375 36.375 
Q 56.984375 17.96875 50.515625 8.265625 
Q 44.046875 -1.421875 31.78125 -1.421875 
Q 19.53125 -1.421875 13.0625 8.265625 
Q 6.59375 17.96875 6.59375 36.375 
Q 6.59375 54.828125 13.0625 64.515625 
Q 19.53125 74.21875 31.78125 74.21875 
z
" id="DejaVuSans-30"/>
      </defs>
      <g transform="translate(49.7575 317.076875)scale(0.2 -0.2)">
       <use xlink:href="#DejaVuSans-30"/>
      </g>
     </g>
    </g>
    <g id="xtick_2">
     <g id="line2d_3">
      <path clip-path="url(#pee25c87fa4)" d="M 135.276571 294.88 
L 135.276571 24.84 
" style="fill:none;stroke:#b0b0b0;stroke-linecap:square;stroke-width:0.8;"/>
     </g>
     <g id="line2d_4">
      <g>
       <use style="stroke:#000000;stroke-width:0.8;" x="135.276571" xlink:href="#m90c8b6d50f" y="294.88"/>
      </g>
     </g>
     <g id="text_2">
      <!-- 2 -->
      <defs>
       <path d="M 19.1875 8.296875 
L 53.609375 8.296875 
L 53.609375 0 
L 7.328125 0 
L 7.328125 8.296875 
Q 12.9375 14.109375 22.625 23.890625 
Q 32.328125 33.6875 34.8125 36.53125 
Q 39.546875 41.84375 41.421875 45.53125 
Q 43.3125 49.21875 43.3125 52.78125 
Q 43.3125 58.59375 39.234375 62.25 
Q 35.15625 65.921875 28.609375 65.921875 
Q 23.96875 65.921875 18.8125 64.3125 
Q 13.671875 62.703125 7.8125 59.421875 
L 7.8125 69.390625 
Q 13.765625 71.78125 18.9375 73 
Q 24.125 74.21875 28.421875 74.21875 
Q 39.75 74.21875 46.484375 68.546875 
Q 53.21875 62.890625 53.21875 53.421875 
Q 53.21875 48.921875 51.53125 44.890625 
Q 49.859375 40.875 45.40625 35.40625 
Q 44.1875 33.984375 37.640625 27.21875 
Q 31.109375 20.453125 19.1875 8.296875 
z
" id="DejaVuSans-32"/>
      </defs>
      <g transform="translate(128.914071 317.076875)scale(0.2 -0.2)">
       <use xlink:href="#DejaVuSans-32"/>
      </g>
     </g>
    </g>
    <g id="xtick_3">
     <g id="line2d_5">
      <path clip-path="url(#pee25c87fa4)" d="M 214.433143 294.88 
L 214.433143 24.84 
" style="fill:none;stroke:#b0b0b0;stroke-linecap:square;stroke-width:0.8;"/>
     </g>
     <g id="line2d_6">
      <g>
       <use style="stroke:#000000;stroke-width:0.8;" x="214.433143" xlink:href="#m90c8b6d50f" y="294.88"/>
      </g>
     </g>
     <g id="text_3">
      <!-- 4 -->
      <defs>
       <path d="M 37.796875 64.3125 
L 12.890625 25.390625 
L 37.796875 25.390625 
z
M 35.203125 72.90625 
L 47.609375 72.90625 
L 47.609375 25.390625 
L 58.015625 25.390625 
L 58.015625 17.1875 
L 47.609375 17.1875 
L 47.609375 0 
L 37.796875 0 
L 37.796875 17.1875 
L 4.890625 17.1875 
L 4.890625 26.703125 
z
" id="DejaVuSans-34"/>
      </defs>
      <g transform="translate(208.070643 317.076875)scale(0.2 -0.2)">
       <use xlink:href="#DejaVuSans-34"/>
      </g>
     </g>
    </g>
    <g id="xtick_4">
     <g id="line2d_7">
      <path clip-path="url(#pee25c87fa4)" d="M 293.589714 294.88 
L 293.589714 24.84 
" style="fill:none;stroke:#b0b0b0;stroke-linecap:square;stroke-width:0.8;"/>
     </g>
     <g id="line2d_8">
      <g>
       <use style="stroke:#000000;stroke-width:0.8;" x="293.589714" xlink:href="#m90c8b6d50f" y="294.88"/>
      </g>
     </g>
     <g id="text_4">
      <!-- 6 -->
      <defs>
       <path d="M 33.015625 40.375 
Q 26.375 40.375 22.484375 35.828125 
Q 18.609375 31.296875 18.609375 23.390625 
Q 18.609375 15.53125 22.484375 10.953125 
Q 26.375 6.390625 33.015625 6.390625 
Q 39.65625 6.390625 43.53125 10.953125 
Q 47.40625 15.53125 47.40625 23.390625 
Q 47.40625 31.296875 43.53125 35.828125 
Q 39.65625 40.375 33.015625 40.375 
z
M 52.59375 71.296875 
L 52.59375 62.3125 
Q 48.875 64.0625 45.09375 64.984375 
Q 41.3125 65.921875 37.59375 65.921875 
Q 27.828125 65.921875 22.671875 59.328125 
Q 17.53125 52.734375 16.796875 39.40625 
Q 19.671875 43.65625 24.015625 45.921875 
Q 28.375 48.1875 33.59375 48.1875 
Q 44.578125 48.1875 50.953125 41.515625 
Q 57.328125 34.859375 57.328125 23.390625 
Q 57.328125 12.15625 50.6875 5.359375 
Q 44.046875 -1.421875 33.015625 -1.421875 
Q 20.359375 -1.421875 13.671875 8.265625 
Q 6.984375 17.96875 6.984375 36.375 
Q 6.984375 53.65625 15.1875 63.9375 
Q 23.390625 74.21875 37.203125 74.21875 
Q 40.921875 74.21875 44.703125 73.484375 
Q 48.484375 72.75 52.59375 71.296875 
z
" id="DejaVuSans-36"/>
      </defs>
      <g transform="translate(287.227214 317.076875)scale(0.2 -0.2)">
       <use xlink:href="#DejaVuSans-36"/>
      </g>
     </g>
    </g>
    <g id="xtick_5">
     <g id="line2d_9">
      <path clip-path="url(#pee25c87fa4)" d="M 56.12 294.88 
L 56.12 24.84 
" style="fill:none;stroke:#b0b0b0;stroke-linecap:square;stroke-width:0.8;"/>
     </g>
     <g id="line2d_10">
      <defs>
       <path d="M 0 0 
L 0 2 
" id="m4ee58d0d68" style="stroke:#000000;stroke-width:0.6;"/>
      </defs>
      <g>
       <use style="stroke:#000000;stroke-width:0.6;" x="56.12" xlink:href="#m4ee58d0d68" y="294.88"/>
      </g>
     </g>
    </g>
    <g id="xtick_6">
     <g id="line2d_11">
      <path clip-path="url(#pee25c87fa4)" d="M 95.698286 294.88 
L 95.698286 24.84 
" style="fill:none;stroke:#b0b0b0;stroke-linecap:square;stroke-width:0.8;"/>
     </g>
     <g id="line2d_12">
      <g>
       <use style="stroke:#000000;stroke-width:0.6;" x="95.698286" xlink:href="#m4ee58d0d68" y="294.88"/>
      </g>
     </g>
    </g>
    <g id="xtick_7">
     <g id="line2d_13">
      <path clip-path="url(#pee25c87fa4)" d="M 135.276571 294.88 
L 135.276571 24.84 
" style="fill:none;stroke:#b0b0b0;stroke-linecap:square;stroke-width:0.8;"/>
     </g>
     <g id="line2d_14">
      <g>
       <use style="stroke:#000000;stroke-width:0.6;" x="135.276571" xlink:href="#m4ee58d0d68" y="294.88"/>
      </g>
     </g>
    </g>
    <g id="xtick_8">
     <g id="line2d_15">
      <path clip-path="url(#pee25c87fa4)" d="M 174.854857 294.88 
L 174.854857 24.84 
" style="fill:none;stroke:#b0b0b0;stroke-linecap:square;stroke-width:0.8;"/>
     </g>
     <g id="line2d_16">
      <g>
       <use style="stroke:#000000;stroke-width:0.6;" x="174.854857" xlink:href="#m4ee58d0d68" y="294.88"/>
      </g>
     </g>
    </g>
    <g id="xtick_9">
     <g id="line2d_17">
      <path clip-path="url(#pee25c87fa4)" d="M 214.433143 294.88 
L 214.433143 24.84 
" style="fill:none;stroke:#b0b0b0;stroke-linecap:square;stroke-width:0.8;"/>
     </g>
     <g id="line2d_18">
      <g>
       <use style="stroke:#000000;stroke-width:0.6;" x="214.433143" xlink:href="#m4ee58d0d68" y="294.88"/>
      </g>
     </g>
    </g>
    <g id="xtick_10">
     <g id="line2d_19">
      <path clip-path="url(#pee25c87fa4)" d="M 254.011429 294.88 
L 254.011429 24.84 
" style="fill:none;stroke:#b0b0b0;stroke-linecap:square;stroke-width:0.8;"/>
     </g>
     <g id="line2d_20">
      <g>
       <use style="stroke:#000000;stroke-width:0.6;" x="254.011429" xlink:href="#m4ee58d0d68" y="294.88"/>
      </g>
     </g>
    </g>
    <g id="xtick_11">
     <g id="line2d_21">
      <path clip-path="url(#pee25c87fa4)" d="M 293.589714 294.88 
L 293.589714 24.84 
" style="fill:none;stroke:#b0b0b0;stroke-linecap:square;stroke-width:0.8;"/>
     </g>
     <g id="line2d_22">
      <g>
       <use style="stroke:#000000;stroke-width:0.6;" x="293.589714" xlink:href="#m4ee58d0d68" y="294.88"/>
      </g>
     </g>
    </g>
    <g id="xtick_12">
     <g id="line2d_23">
      <path clip-path="url(#pee25c87fa4)" d="M 333.168 294.88 
L 333.168 24.84 
" style="fill:none;stroke:#b0b0b0;stroke-linecap:square;stroke-width:0.8;"/>
     </g>
     <g id="line2d_24">
      <g>
       <use style="stroke:#000000;stroke-width:0.6;" x="333.168" xlink:href="#m4ee58d0d68" y="294.88"/>
      </g>
     </g>
    </g>
    <g id="text_5">
     <!-- log10(# f-evals / dimension) -->
     <defs>
      <path d="M 9.421875 75.984375 
L 18.40625 75.984375 
L 18.40625 0 
L 9.421875 0 
z
" id="DejaVuSans-6c"/>
      <path d="M 30.609375 48.390625 
Q 23.390625 48.390625 19.1875 42.75 
Q 14.984375 37.109375 14.984375 27.296875 
Q 14.984375 17.484375 19.15625 11.84375 
Q 23.34375 6.203125 30.609375 6.203125 
Q 37.796875 6.203125 41.984375 11.859375 
Q 46.1875 17.53125 46.1875 27.296875 
Q 46.1875 37.015625 41.984375 42.703125 
Q 37.796875 48.390625 30.609375 48.390625 
z
M 30.609375 56 
Q 42.328125 56 49.015625 48.375 
Q 55.71875 40.765625 55.71875 27.296875 
Q 55.71875 13.875 49.015625 6.21875 
Q 42.328125 -1.421875 30.609375 -1.421875 
Q 18.84375 -1.421875 12.171875 6.21875 
Q 5.515625 13.875 5.515625 27.296875 
Q 5.515625 40.765625 12.171875 48.375 
Q 18.84375 56 30.609375 56 
z
" id="DejaVuSans-6f"/>
      <path d="M 45.40625 27.984375 
Q 45.40625 37.75 41.375 43.109375 
Q 37.359375 48.484375 30.078125 48.484375 
Q 22.859375 48.484375 18.828125 43.109375 
Q 14.796875 37.75 14.796875 27.984375 
Q 14.796875 18.265625 18.828125 12.890625 
Q 22.859375 7.515625 30.078125 7.515625 
Q 37.359375 7.515625 41.375 12.890625 
Q 45.40625 18.265625 45.40625 27.984375 
z
M 54.390625 6.78125 
Q 54.390625 -7.171875 48.1875 -13.984375 
Q 42 -20.796875 29.203125 -20.796875 
Q 24.46875 -20.796875 20.265625 -20.09375 
Q 16.0625 -19.390625 12.109375 -17.921875 
L 12.109375 -9.1875 
Q 16.0625 -11.328125 19.921875 -12.34375 
Q 23.78125 -13.375 27.78125 -13.375 
Q 36.625 -13.375 41.015625 -8.765625 
Q 45.40625 -4.15625 45.40625 5.171875 
L 45.40625 9.625 
Q 42.625 4.78125 38.28125 2.390625 
Q 33.9375 0 27.875 0 
Q 17.828125 0 11.671875 7.65625 
Q 5.515625 15.328125 5.515625 27.984375 
Q 5.515625 40.671875 11.671875 48.328125 
Q 17.828125 56 27.875 56 
Q 33.9375 56 38.28125 53.609375 
Q 42.625 51.21875 45.40625 46.390625 
L 45.40625 54.6875 
L 54.390625 54.6875 
z
" id="DejaVuSans-67"/>
      <path d="M 12.40625 8.296875 
L 28.515625 8.296875 
L 28.515625 63.921875 
L 10.984375 60.40625 
L 10.984375 69.390625 
L 28.421875 72.90625 
L 38.28125 72.90625 
L 38.28125 8.296875 
L 54.390625 8.296875 
L 54.390625 0 
L 12.40625 0 
z
" id="DejaVuSans-31"/>
      <path d="M 31 75.875 
Q 24.46875 64.65625 21.28125 53.65625 
Q 18.109375 42.671875 18.109375 31.390625 
Q 18.109375 20.125 21.3125 9.0625 
Q 24.515625 -2 31 -13.1875 
L 23.1875 -13.1875 
Q 15.875 -1.703125 12.234375 9.375 
Q 8.59375 20.453125 8.59375 31.390625 
Q 8.59375 42.28125 12.203125 53.3125 
Q 15.828125 64.359375 23.1875 75.875 
z
" id="DejaVuSans-28"/>
      <path d="M 51.125 44 
L 36.921875 44 
L 32.8125 27.6875 
L 47.125 27.6875 
z
M 43.796875 71.78125 
L 38.71875 51.515625 
L 52.984375 51.515625 
L 58.109375 71.78125 
L 65.921875 71.78125 
L 60.890625 51.515625 
L 76.125 51.515625 
L 76.125 44 
L 58.984375 44 
L 54.984375 27.6875 
L 70.515625 27.6875 
L 70.515625 20.21875 
L 53.078125 20.21875 
L 48 0 
L 40.1875 0 
L 45.21875 20.21875 
L 30.90625 20.21875 
L 25.875 0 
L 18.015625 0 
L 23.09375 20.21875 
L 7.71875 20.21875 
L 7.71875 27.6875 
L 24.90625 27.6875 
L 29 44 
L 13.28125 44 
L 13.28125 51.515625 
L 30.90625 51.515625 
L 35.890625 71.78125 
z
" id="DejaVuSans-23"/>
      <path id="DejaVuSans-20"/>
      <path d="M 37.109375 75.984375 
L 37.109375 68.5 
L 28.515625 68.5 
Q 23.6875 68.5 21.796875 66.546875 
Q 19.921875 64.59375 19.921875 59.515625 
L 19.921875 54.6875 
L 34.71875 54.6875 
L 34.71875 47.703125 
L 19.921875 47.703125 
L 19.921875 0 
L 10.890625 0 
L 10.890625 47.703125 
L 2.296875 47.703125 
L 2.296875 54.6875 
L 10.890625 54.6875 
L 10.890625 58.5 
Q 10.890625 67.625 15.140625 71.796875 
Q 19.390625 75.984375 28.609375 75.984375 
z
" id="DejaVuSans-66"/>
      <path d="M 4.890625 31.390625 
L 31.203125 31.390625 
L 31.203125 23.390625 
L 4.890625 23.390625 
z
" id="DejaVuSans-2d"/>
      <path d="M 56.203125 29.59375 
L 56.203125 25.203125 
L 14.890625 25.203125 
Q 15.484375 15.921875 20.484375 11.0625 
Q 25.484375 6.203125 34.421875 6.203125 
Q 39.59375 6.203125 44.453125 7.46875 
Q 49.3125 8.734375 54.109375 11.28125 
L 54.109375 2.78125 
Q 49.265625 0.734375 44.1875 -0.34375 
Q 39.109375 -1.421875 33.890625 -1.421875 
Q 20.796875 -1.421875 13.15625 6.1875 
Q 5.515625 13.8125 5.515625 26.8125 
Q 5.515625 40.234375 12.765625 48.109375 
Q 20.015625 56 32.328125 56 
Q 43.359375 56 49.78125 48.890625 
Q 56.203125 41.796875 56.203125 29.59375 
z
M 47.21875 32.234375 
Q 47.125 39.59375 43.09375 43.984375 
Q 39.0625 48.390625 32.421875 48.390625 
Q 24.90625 48.390625 20.390625 44.140625 
Q 15.875 39.890625 15.1875 32.171875 
z
" id="DejaVuSans-65"/>
      <path d="M 2.984375 54.6875 
L 12.5 54.6875 
L 29.59375 8.796875 
L 46.6875 54.6875 
L 56.203125 54.6875 
L 35.6875 0 
L 23.484375 0 
z
" id="DejaVuSans-76"/>
      <path d="M 34.28125 27.484375 
Q 23.390625 27.484375 19.1875 25 
Q 14.984375 22.515625 14.984375 16.5 
Q 14.984375 11.71875 18.140625 8.90625 
Q 21.296875 6.109375 26.703125 6.109375 
Q 34.1875 6.109375 38.703125 11.40625 
Q 43.21875 16.703125 43.21875 25.484375 
L 43.21875 27.484375 
z
M 52.203125 31.203125 
L 52.203125 0 
L 43.21875 0 
L 43.21875 8.296875 
Q 40.140625 3.328125 35.546875 0.953125 
Q 30.953125 -1.421875 24.3125 -1.421875 
Q 15.921875 -1.421875 10.953125 3.296875 
Q 6 8.015625 6 15.921875 
Q 6 25.140625 12.171875 29.828125 
Q 18.359375 34.515625 30.609375 34.515625 
L 43.21875 34.515625 
L 43.21875 35.40625 
Q 43.21875 41.609375 39.140625 45 
Q 35.0625 48.390625 27.6875 48.390625 
Q 23 48.390625 18.546875 47.265625 
Q 14.109375 46.140625 10.015625 43.890625 
L 10.015625 52.203125 
Q 14.9375 54.109375 19.578125 55.046875 
Q 24.21875 56 28.609375 56 
Q 40.484375 56 46.34375 49.84375 
Q 52.203125 43.703125 52.203125 31.203125 
z
" id="DejaVuSans-61"/>
      <path d="M 44.28125 53.078125 
L 44.28125 44.578125 
Q 40.484375 46.53125 36.375 47.5 
Q 32.28125 48.484375 27.875 48.484375 
Q 21.1875 48.484375 17.84375 46.4375 
Q 14.5 44.390625 14.5 40.28125 
Q 14.5 37.15625 16.890625 35.375 
Q 19.28125 33.59375 26.515625 31.984375 
L 29.59375 31.296875 
Q 39.15625 29.25 43.1875 25.515625 
Q 47.21875 21.78125 47.21875 15.09375 
Q 47.21875 7.46875 41.1875 3.015625 
Q 35.15625 -1.421875 24.609375 -1.421875 
Q 20.21875 -1.421875 15.453125 -0.5625 
Q 10.6875 0.296875 5.421875 2 
L 5.421875 11.28125 
Q 10.40625 8.6875 15.234375 7.390625 
Q 20.0625 6.109375 24.8125 6.109375 
Q 31.15625 6.109375 34.5625 8.28125 
Q 37.984375 10.453125 37.984375 14.40625 
Q 37.984375 18.0625 35.515625 20.015625 
Q 33.0625 21.96875 24.703125 23.78125 
L 21.578125 24.515625 
Q 13.234375 26.265625 9.515625 29.90625 
Q 5.8125 33.546875 5.8125 39.890625 
Q 5.8125 47.609375 11.28125 51.796875 
Q 16.75 56 26.8125 56 
Q 31.78125 56 36.171875 55.265625 
Q 40.578125 54.546875 44.28125 53.078125 
z
" id="DejaVuSans-73"/>
      <path d="M 25.390625 72.90625 
L 33.6875 72.90625 
L 8.296875 -9.28125 
L 0 -9.28125 
z
" id="DejaVuSans-2f"/>
      <path d="M 45.40625 46.390625 
L 45.40625 75.984375 
L 54.390625 75.984375 
L 54.390625 0 
L 45.40625 0 
L 45.40625 8.203125 
Q 42.578125 3.328125 38.25 0.953125 
Q 33.9375 -1.421875 27.875 -1.421875 
Q 17.96875 -1.421875 11.734375 6.484375 
Q 5.515625 14.40625 5.515625 27.296875 
Q 5.515625 40.1875 11.734375 48.09375 
Q 17.96875 56 27.875 56 
Q 33.9375 56 38.25 53.625 
Q 42.578125 51.265625 45.40625 46.390625 
z
M 14.796875 27.296875 
Q 14.796875 17.390625 18.875 11.75 
Q 22.953125 6.109375 30.078125 6.109375 
Q 37.203125 6.109375 41.296875 11.75 
Q 45.40625 17.390625 45.40625 27.296875 
Q 45.40625 37.203125 41.296875 42.84375 
Q 37.203125 48.484375 30.078125 48.484375 
Q 22.953125 48.484375 18.875 42.84375 
Q 14.796875 37.203125 14.796875 27.296875 
z
" id="DejaVuSans-64"/>
      <path d="M 9.421875 54.6875 
L 18.40625 54.6875 
L 18.40625 0 
L 9.421875 0 
z
M 9.421875 75.984375 
L 18.40625 75.984375 
L 18.40625 64.59375 
L 9.421875 64.59375 
z
" id="DejaVuSans-69"/>
      <path d="M 52 44.1875 
Q 55.375 50.25 60.0625 53.125 
Q 64.75 56 71.09375 56 
Q 79.640625 56 84.28125 50.015625 
Q 88.921875 44.046875 88.921875 33.015625 
L 88.921875 0 
L 79.890625 0 
L 79.890625 32.71875 
Q 79.890625 40.578125 77.09375 44.375 
Q 74.3125 48.1875 68.609375 48.1875 
Q 61.625 48.1875 57.5625 43.546875 
Q 53.515625 38.921875 53.515625 30.90625 
L 53.515625 0 
L 44.484375 0 
L 44.484375 32.71875 
Q 44.484375 40.625 41.703125 44.40625 
Q 38.921875 48.1875 33.109375 48.1875 
Q 26.21875 48.1875 22.15625 43.53125 
Q 18.109375 38.875 18.109375 30.90625 
L 18.109375 0 
L 9.078125 0 
L 9.078125 54.6875 
L 18.109375 54.6875 
L 18.109375 46.1875 
Q 21.1875 51.21875 25.484375 53.609375 
Q 29.78125 56 35.6875 56 
Q 41.65625 56 45.828125 52.96875 
Q 50 49.953125 52 44.1875 
z
" id="DejaVuSans-6d"/>
      <path d="M 54.890625 33.015625 
L 54.890625 0 
L 45.90625 0 
L 45.90625 32.71875 
Q 45.90625 40.484375 42.875 44.328125 
Q 39.84375 48.1875 33.796875 48.1875 
Q 26.515625 48.1875 22.3125 43.546875 
Q 18.109375 38.921875 18.109375 30.90625 
L 18.109375 0 
L 9.078125 0 
L 9.078125 54.6875 
L 18.109375 54.6875 
L 18.109375 46.1875 
Q 21.34375 51.125 25.703125 53.5625 
Q 30.078125 56 35.796875 56 
Q 45.21875 56 50.046875 50.171875 
Q 54.890625 44.34375 54.890625 33.015625 
z
" id="DejaVuSans-6e"/>
      <path d="M 8.015625 75.875 
L 15.828125 75.875 
Q 23.140625 64.359375 26.78125 53.3125 
Q 30.421875 42.28125 30.421875 31.390625 
Q 30.421875 20.453125 26.78125 9.375 
Q 23.140625 -1.703125 15.828125 -13.1875 
L 8.015625 -13.1875 
Q 14.5 -2 17.703125 9.0625 
Q 20.90625 20.125 20.90625 31.390625 
Q 20.90625 42.671875 17.703125 53.65625 
Q 14.5 64.65625 8.015625 75.875 
z
" id="DejaVuSans-29"/>
     </defs>
     <g transform="translate(73.803219 338.153594)scale(0.17 -0.17)">
      <use xlink:href="#DejaVuSans-6c"/>
      <use x="27.783203" xlink:href="#DejaVuSans-6f"/>
      <use x="88.964844" xlink:href="#DejaVuSans-67"/>
      <use x="152.441406" xlink:href="#DejaVuSans-31"/>
      <use x="216.064453" xlink:href="#DejaVuSans-30"/>
      <use x="279.6875" xlink:href="#DejaVuSans-28"/>
      <use x="318.701172" xlink:href="#DejaVuSans-23"/>
      <use x="402.490234" xlink:href="#DejaVuSans-20"/>
      <use x="434.277344" xlink:href="#DejaVuSans-66"/>
      <use x="469.404297" xlink:href="#DejaVuSans-2d"/>
      <use x="505.488281" xlink:href="#DejaVuSans-65"/>
      <use x="567.011719" xlink:href="#DejaVuSans-76"/>
      <use x="626.191406" xlink:href="#DejaVuSans-61"/>
      <use x="687.470703" xlink:href="#DejaVuSans-6c"/>
      <use x="715.253906" xlink:href="#DejaVuSans-73"/>
      <use x="767.353516" xlink:href="#DejaVuSans-20"/>
      <use x="799.140625" xlink:href="#DejaVuSans-2f"/>
      <use x="832.832031" xlink:href="#DejaVuSans-20"/>
      <use x="864.619141" xlink:href="#DejaVuSans-64"/>
      <use x="928.095703" xlink:href="#DejaVuSans-69"/>
      <use x="955.878906" xlink:href="#DejaVuSans-6d"/>
      <use x="1053.291016" xlink:href="#DejaVuSans-65"/>
      <use x="1114.814453" xlink:href="#DejaVuSans-6e"/>
      <use x="1178.193359" xlink:href="#DejaVuSans-73"/>
      <use x="1230.292969" xlink:href="#DejaVuSans-69"/>
      <use x="1258.076172" xlink:href="#DejaVuSans-6f"/>
      <use x="1319.257812" xlink:href="#DejaVuSans-6e"/>
      <use x="1382.636719" xlink:href="#DejaVuSans-29"/>
     </g>
    </g>
   </g>
   <g id="matplotlib.axis_2">
    <g id="ytick_1">
     <g id="line2d_25">
      <path clip-path="url(#pee25c87fa4)" d="M 56.12 294.88 
L 333.168 294.88 
" style="fill:none;stroke:#b0b0b0;stroke-linecap:square;stroke-width:0.8;"/>
     </g>
     <g id="line2d_26">
      <defs>
       <path d="M 0 0 
L -3.5 0 
" id="m244f2ff5ec" style="stroke:#000000;stroke-width:0.8;"/>
      </defs>
      <g>
       <use style="stroke:#000000;stroke-width:0.8;" x="56.12" xlink:href="#m244f2ff5ec" y="294.88"/>
      </g>
     </g>
     <g id="text_6">
      <!-- 0.0 -->
      <defs>
       <path d="M 10.6875 12.40625 
L 21 12.40625 
L 21 0 
L 10.6875 0 
z
" id="DejaVuSans-2e"/>
      </defs>
      <g transform="translate(23.675 300.95875)scale(0.16 -0.16)">
       <use xlink:href="#DejaVuSans-30"/>
       <use x="63.623047" xlink:href="#DejaVuSans-2e"/>
       <use x="95.410156" xlink:href="#DejaVuSans-30"/>
      </g>
     </g>
    </g>
    <g id="ytick_2">
     <g id="line2d_27">
      <path clip-path="url(#pee25c87fa4)" d="M 56.12 241.406733 
L 333.168 241.406733 
" style="fill:none;stroke:#b0b0b0;stroke-linecap:square;stroke-width:0.8;"/>
     </g>
     <g id="line2d_28">
      <g>
       <use style="stroke:#000000;stroke-width:0.8;" x="56.12" xlink:href="#m244f2ff5ec" y="241.406733"/>
      </g>
     </g>
     <g id="text_7">
      <!-- 0.2 -->
      <g transform="translate(23.675 247.485483)scale(0.16 -0.16)">
       <use xlink:href="#DejaVuSans-30"/>
       <use x="63.623047" xlink:href="#DejaVuSans-2e"/>
       <use x="95.410156" xlink:href="#DejaVuSans-32"/>
      </g>
     </g>
    </g>
    <g id="ytick_3">
     <g id="line2d_29">
      <path clip-path="url(#pee25c87fa4)" d="M 56.12 187.933465 
L 333.168 187.933465 
" style="fill:none;stroke:#b0b0b0;stroke-linecap:square;stroke-width:0.8;"/>
     </g>
     <g id="line2d_30">
      <g>
       <use style="stroke:#000000;stroke-width:0.8;" x="56.12" xlink:href="#m244f2ff5ec" y="187.933465"/>
      </g>
     </g>
     <g id="text_8">
      <!-- 0.4 -->
      <g transform="translate(23.675 194.012215)scale(0.16 -0.16)">
       <use xlink:href="#DejaVuSans-30"/>
       <use x="63.623047" xlink:href="#DejaVuSans-2e"/>
       <use x="95.410156" xlink:href="#DejaVuSans-34"/>
      </g>
     </g>
    </g>
    <g id="ytick_4">
     <g id="line2d_31">
      <path clip-path="url(#pee25c87fa4)" d="M 56.12 134.460198 
L 333.168 134.460198 
" style="fill:none;stroke:#b0b0b0;stroke-linecap:square;stroke-width:0.8;"/>
     </g>
     <g id="line2d_32">
      <g>
       <use style="stroke:#000000;stroke-width:0.8;" x="56.12" xlink:href="#m244f2ff5ec" y="134.460198"/>
      </g>
     </g>
     <g id="text_9">
      <!-- 0.6 -->
      <g transform="translate(23.675 140.538948)scale(0.16 -0.16)">
       <use xlink:href="#DejaVuSans-30"/>
       <use x="63.623047" xlink:href="#DejaVuSans-2e"/>
       <use x="95.410156" xlink:href="#DejaVuSans-36"/>
      </g>
     </g>
    </g>
    <g id="ytick_5">
     <g id="line2d_33">
      <path clip-path="url(#pee25c87fa4)" d="M 56.12 80.986931 
L 333.168 80.986931 
" style="fill:none;stroke:#b0b0b0;stroke-linecap:square;stroke-width:0.8;"/>
     </g>
     <g id="line2d_34">
      <g>
       <use style="stroke:#000000;stroke-width:0.8;" x="56.12" xlink:href="#m244f2ff5ec" y="80.986931"/>
      </g>
     </g>
     <g id="text_10">
      <!-- 0.8 -->
      <defs>
       <path d="M 31.78125 34.625 
Q 24.75 34.625 20.71875 30.859375 
Q 16.703125 27.09375 16.703125 20.515625 
Q 16.703125 13.921875 20.71875 10.15625 
Q 24.75 6.390625 31.78125 6.390625 
Q 38.8125 6.390625 42.859375 10.171875 
Q 46.921875 13.96875 46.921875 20.515625 
Q 46.921875 27.09375 42.890625 30.859375 
Q 38.875 34.625 31.78125 34.625 
z
M 21.921875 38.8125 
Q 15.578125 40.375 12.03125 44.71875 
Q 8.5 49.078125 8.5 55.328125 
Q 8.5 64.0625 14.71875 69.140625 
Q 20.953125 74.21875 31.78125 74.21875 
Q 42.671875 74.21875 48.875 69.140625 
Q 55.078125 64.0625 55.078125 55.328125 
Q 55.078125 49.078125 51.53125 44.71875 
Q 48 40.375 41.703125 38.8125 
Q 48.828125 37.15625 52.796875 32.3125 
Q 56.78125 27.484375 56.78125 20.515625 
Q 56.78125 9.90625 50.3125 4.234375 
Q 43.84375 -1.421875 31.78125 -1.421875 
Q 19.734375 -1.421875 13.25 4.234375 
Q 6.78125 9.90625 6.78125 20.515625 
Q 6.78125 27.484375 10.78125 32.3125 
Q 14.796875 37.15625 21.921875 38.8125 
z
M 18.3125 54.390625 
Q 18.3125 48.734375 21.84375 45.5625 
Q 25.390625 42.390625 31.78125 42.390625 
Q 38.140625 42.390625 41.71875 45.5625 
Q 45.3125 48.734375 45.3125 54.390625 
Q 45.3125 60.0625 41.71875 63.234375 
Q 38.140625 66.40625 31.78125 66.40625 
Q 25.390625 66.40625 21.84375 63.234375 
Q 18.3125 60.0625 18.3125 54.390625 
z
" id="DejaVuSans-38"/>
      </defs>
      <g transform="translate(23.675 87.065681)scale(0.16 -0.16)">
       <use xlink:href="#DejaVuSans-30"/>
       <use x="63.623047" xlink:href="#DejaVuSans-2e"/>
       <use x="95.410156" xlink:href="#DejaVuSans-38"/>
      </g>
     </g>
    </g>
    <g id="ytick_6">
     <g id="line2d_35">
      <path clip-path="url(#pee25c87fa4)" d="M 56.12 27.513663 
L 333.168 27.513663 
" style="fill:none;stroke:#b0b0b0;stroke-linecap:square;stroke-width:0.8;"/>
     </g>
     <g id="line2d_36">
      <g>
       <use style="stroke:#000000;stroke-width:0.8;" x="56.12" xlink:href="#m244f2ff5ec" y="27.513663"/>
      </g>
     </g>
     <g id="text_11">
      <!-- 1.0 -->
      <g transform="translate(23.675 33.592413)scale(0.16 -0.16)">
       <use xlink:href="#DejaVuSans-31"/>
       <use x="63.623047" xlink:href="#DejaVuSans-2e"/>
       <use x="95.410156" xlink:href="#DejaVuSans-30"/>
      </g>
     </g>
    </g>
    <g id="text_12">
     <!-- Fraction of function,target pairs -->
     <defs>
      <path d="M 9.8125 72.90625 
L 51.703125 72.90625 
L 51.703125 64.59375 
L 19.671875 64.59375 
L 19.671875 43.109375 
L 48.578125 43.109375 
L 48.578125 34.8125 
L 19.671875 34.8125 
L 19.671875 0 
L 9.8125 0 
z
" id="DejaVuSans-46"/>
      <path d="M 41.109375 46.296875 
Q 39.59375 47.171875 37.8125 47.578125 
Q 36.03125 48 33.890625 48 
Q 26.265625 48 22.1875 43.046875 
Q 18.109375 38.09375 18.109375 28.8125 
L 18.109375 0 
L 9.078125 0 
L 9.078125 54.6875 
L 18.109375 54.6875 
L 18.109375 46.1875 
Q 20.953125 51.171875 25.484375 53.578125 
Q 30.03125 56 36.53125 56 
Q 37.453125 56 38.578125 55.875 
Q 39.703125 55.765625 41.0625 55.515625 
z
" id="DejaVuSans-72"/>
      <path d="M 48.78125 52.59375 
L 48.78125 44.1875 
Q 44.96875 46.296875 41.140625 47.34375 
Q 37.3125 48.390625 33.40625 48.390625 
Q 24.65625 48.390625 19.8125 42.84375 
Q 14.984375 37.3125 14.984375 27.296875 
Q 14.984375 17.28125 19.8125 11.734375 
Q 24.65625 6.203125 33.40625 6.203125 
Q 37.3125 6.203125 41.140625 7.25 
Q 44.96875 8.296875 48.78125 10.40625 
L 48.78125 2.09375 
Q 45.015625 0.34375 40.984375 -0.53125 
Q 36.96875 -1.421875 32.421875 -1.421875 
Q 20.0625 -1.421875 12.78125 6.34375 
Q 5.515625 14.109375 5.515625 27.296875 
Q 5.515625 40.671875 12.859375 48.328125 
Q 20.21875 56 33.015625 56 
Q 37.15625 56 41.109375 55.140625 
Q 45.0625 54.296875 48.78125 52.59375 
z
" id="DejaVuSans-63"/>
      <path d="M 18.3125 70.21875 
L 18.3125 54.6875 
L 36.8125 54.6875 
L 36.8125 47.703125 
L 18.3125 47.703125 
L 18.3125 18.015625 
Q 18.3125 11.328125 20.140625 9.421875 
Q 21.96875 7.515625 27.59375 7.515625 
L 36.8125 7.515625 
L 36.8125 0 
L 27.59375 0 
Q 17.1875 0 13.234375 3.875 
Q 9.28125 7.765625 9.28125 18.015625 
L 9.28125 47.703125 
L 2.6875 47.703125 
L 2.6875 54.6875 
L 9.28125 54.6875 
L 9.28125 70.21875 
z
" id="DejaVuSans-74"/>
      <path d="M 8.5 21.578125 
L 8.5 54.6875 
L 17.484375 54.6875 
L 17.484375 21.921875 
Q 17.484375 14.15625 20.5 10.265625 
Q 23.53125 6.390625 29.59375 6.390625 
Q 36.859375 6.390625 41.078125 11.03125 
Q 45.3125 15.671875 45.3125 23.6875 
L 45.3125 54.6875 
L 54.296875 54.6875 
L 54.296875 0 
L 45.3125 0 
L 45.3125 8.40625 
Q 42.046875 3.421875 37.71875 1 
Q 33.40625 -1.421875 27.6875 -1.421875 
Q 18.265625 -1.421875 13.375 4.4375 
Q 8.5 10.296875 8.5 21.578125 
z
M 31.109375 56 
z
" id="DejaVuSans-75"/>
      <path d="M 11.71875 12.40625 
L 22.015625 12.40625 
L 22.015625 4 
L 14.015625 -11.625 
L 7.71875 -11.625 
L 11.71875 4 
z
" id="DejaVuSans-2c"/>
      <path d="M 18.109375 8.203125 
L 18.109375 -20.796875 
L 9.078125 -20.796875 
L 9.078125 54.6875 
L 18.109375 54.6875 
L 18.109375 46.390625 
Q 20.953125 51.265625 25.265625 53.625 
Q 29.59375 56 35.59375 56 
Q 45.5625 56 51.78125 48.09375 
Q 58.015625 40.1875 58.015625 27.296875 
Q 58.015625 14.40625 51.78125 6.484375 
Q 45.5625 -1.421875 35.59375 -1.421875 
Q 29.59375 -1.421875 25.265625 0.953125 
Q 20.953125 3.328125 18.109375 8.203125 
z
M 48.6875 27.296875 
Q 48.6875 37.203125 44.609375 42.84375 
Q 40.53125 48.484375 33.40625 48.484375 
Q 26.265625 48.484375 22.1875 42.84375 
Q 18.109375 37.203125 18.109375 27.296875 
Q 18.109375 17.390625 22.1875 11.75 
Q 26.265625 6.109375 33.40625 6.109375 
Q 40.53125 6.109375 44.609375 11.75 
Q 48.6875 17.390625 48.6875 27.296875 
z
" id="DejaVuSans-70"/>
     </defs>
     <g transform="translate(16.139531 294.999375)rotate(-90)scale(0.17 -0.17)">
      <use xlink:href="#DejaVuSans-46"/>
      <use x="57.410156" xlink:href="#DejaVuSans-72"/>
      <use x="98.523438" xlink:href="#DejaVuSans-61"/>
      <use x="159.802734" xlink:href="#DejaVuSans-63"/>
      <use x="214.783203" xlink:href="#DejaVuSans-74"/>
      <use x="253.992188" xlink:href="#DejaVuSans-69"/>
      <use x="281.775391" xlink:href="#DejaVuSans-6f"/>
      <use x="342.957031" xlink:href="#DejaVuSans-6e"/>
      <use x="406.335938" xlink:href="#DejaVuSans-20"/>
      <use x="438.123047" xlink:href="#DejaVuSans-6f"/>
      <use x="499.304688" xlink:href="#DejaVuSans-66"/>
      <use x="534.509766" xlink:href="#DejaVuSans-20"/>
      <use x="566.296875" xlink:href="#DejaVuSans-66"/>
      <use x="601.501953" xlink:href="#DejaVuSans-75"/>
      <use x="664.880859" xlink:href="#DejaVuSans-6e"/>
      <use x="728.259766" xlink:href="#DejaVuSans-63"/>
      <use x="783.240234" xlink:href="#DejaVuSans-74"/>
      <use x="822.449219" xlink:href="#DejaVuSans-69"/>
      <use x="850.232422" xlink:href="#DejaVuSans-6f"/>
      <use x="911.414062" xlink:href="#DejaVuSans-6e"/>
      <use x="974.792969" xlink:href="#DejaVuSans-2c"/>
      <use x="1006.580078" xlink:href="#DejaVuSans-74"/>
      <use x="1045.789062" xlink:href="#DejaVuSans-61"/>
      <use x="1107.068359" xlink:href="#DejaVuSans-72"/>
      <use x="1148.166016" xlink:href="#DejaVuSans-67"/>
      <use x="1211.642578" xlink:href="#DejaVuSans-65"/>
      <use x="1273.166016" xlink:href="#DejaVuSans-74"/>
      <use x="1312.375" xlink:href="#DejaVuSans-20"/>
      <use x="1344.162109" xlink:href="#DejaVuSans-70"/>
      <use x="1407.638672" xlink:href="#DejaVuSans-61"/>
      <use x="1468.917969" xlink:href="#DejaVuSans-69"/>
      <use x="1496.701172" xlink:href="#DejaVuSans-72"/>
      <use x="1537.814453" xlink:href="#DejaVuSans-73"/>
     </g>
    </g>
   </g>
   <g id="line2d_37">
    <defs>
     <path d="M 0 1.5 
C 0.397805 1.5 0.77937 1.341951 1.06066 1.06066 
C 1.341951 0.77937 1.5 0.397805 1.5 0 
C 1.5 -0.397805 1.341951 -0.77937 1.06066 -1.06066 
C 0.77937 -1.341951 0.397805 -1.5 0 -1.5 
C -0.397805 -1.5 -0.77937 -1.341951 -1.06066 -1.06066 
C -1.341951 -0.77937 -1.5 -0.397805 -1.5 0 
C -1.5 0.397805 -1.341951 0.77937 -1.06066 1.06066 
C -0.77937 1.341951 -0.397805 1.5 0 1.5 
z
" id="mcc36ed6580" style="stroke:#000080;"/>
    </defs>
    <g>
     <use style="fill:#000080;stroke:#000080;" x="248.041006" xlink:href="#mcc36ed6580" y="27.513663"/>
     <use style="fill:#000080;stroke:#000080;" x="248.041006" xlink:href="#mcc36ed6580" y="27.513663"/>
    </g>
   </g>
   <g id="line2d_38">
    <path d="M 28.455965 294.88 
L 28.455965 291.734514 
L 40.370217 291.734514 
L 40.370217 288.589027 
L 59.253858 288.589027 
L 59.253858 288.06478 
L 66.223248 288.06478 
L 66.223248 286.492036 
L 72.543934 286.492036 
L 72.543934 285.967789 
L 79.066841 285.967789 
L 79.066841 285.443541 
L 80.787138 285.443541 
L 80.787138 284.919293 
L 83.784035 284.919293 
L 83.784035 282.298055 
L 84.458185 282.298055 
L 84.458185 279.676816 
L 85.106889 279.676816 
L 85.106889 278.628321 
L 86.335171 278.628321 
L 86.335171 275.482834 
L 88.027221 275.482834 
L 88.027221 268.667614 
L 90.05175 268.667614 
L 90.05175 268.143366 
L 92.287186 268.143366 
L 92.287186 267.094871 
L 95.351029 267.094871 
L 95.351029 266.046375 
L 96.372436 266.046375 
L 96.372436 262.376641 
L 96.699848 262.376641 
L 96.699848 256.609917 
L 99.941473 256.609917 
L 99.941473 255.037173 
L 101.725597 255.037173 
L 101.725597 252.940182 
L 102.20309 252.940182 
L 102.20309 252.415935 
L 102.895343 252.415935 
L 102.895343 248.746201 
L 107.26528 248.746201 
L 107.26528 248.221953 
L 107.952917 248.221953 
L 107.952917 245.076467 
L 108.451173 245.076467 
L 108.451173 244.552219 
L 108.775496 244.552219 
L 108.775496 242.455228 
L 109.093814 242.455228 
L 109.093814 240.882485 
L 109.250788 240.882485 
L 109.250788 238.261246 
L 111.72091 238.261246 
L 111.72091 236.164255 
L 112.122219 236.164255 
L 112.122219 235.640008 
L 114.581927 235.640008 
L 114.581927 234.591512 
L 116.115688 234.591512 
L 116.115688 233.543017 
L 116.73331 233.543017 
L 116.73331 233.018769 
L 117.133064 233.018769 
L 117.231566 231.970274 
L 117.523731 231.970274 
L 117.523731 231.446026 
L 118.735356 231.446026 
L 118.735356 230.921778 
L 119.179531 230.921778 
L 119.179531 228.824787 
L 119.867168 228.824787 
L 119.867168 226.727797 
L 123.635161 226.727797 
L 123.635161 225.155053 
L 125.000572 225.155053 
L 125.000572 224.630806 
L 125.854083 224.630806 
L 125.854083 223.058063 
L 126.836558 223.058063 
L 126.836558 219.388328 
L 128.898495 219.388328 
L 128.898495 217.291338 
L 129.145817 217.291338 
L 129.194858 216.242842 
L 129.772681 216.242842 
L 129.867125 214.670099 
L 130.007824 214.670099 
L 130.007824 214.145851 
L 130.14738 214.145851 
L 130.14738 211.524613 
L 130.42314 211.524613 
L 130.42314 210.476117 
L 130.604552 210.476117 
L 130.604552 209.427622 
L 130.739365 209.427622 
L 130.739365 205.757888 
L 132.11519 205.757888 
L 132.11519 203.660897 
L 132.644112 203.660897 
L 132.644112 202.612401 
L 132.803637 202.612401 
L 132.803637 201.039658 
L 133.350594 201.039658 
L 133.389004 198.942667 
L 133.992176 198.942667 
L 133.992176 193.70019 
L 134.859013 193.70019 
L 134.859013 192.127447 
L 135.276571 192.127447 
L 135.276571 191.078952 
L 135.983745 191.078952 
L 135.983745 190.030456 
L 136.503668 190.030456 
L 136.503668 187.409218 
L 136.72628 187.409218 
L 136.72628 185.312227 
L 138.033915 185.312227 
L 138.033915 183.739484 
L 138.46763 183.739484 
L 138.46763 183.215236 
L 139.194412 183.215236 
L 139.194412 181.118245 
L 139.573389 181.118245 
L 139.573389 177.448511 
L 139.996515 177.448511 
L 139.996515 176.400016 
L 140.255775 176.400016 
L 140.255775 174.827272 
L 141.182408 174.827272 
L 141.182408 172.730281 
L 145.99879 172.730281 
L 145.99879 172.206034 
L 146.560619 172.206034 
L 146.560619 170.633291 
L 147.480573 170.633291 
L 147.480573 166.963557 
L 147.648761 166.963557 
L 147.648761 166.439309 
L 147.798735 166.439309 
L 147.897996 163.293823 
L 148.369839 163.293823 
L 148.369839 161.196832 
L 149.123434 161.196832 
L 149.123434 160.672584 
L 149.741959 160.672584 
L 149.741959 160.148336 
L 149.992034 160.148336 
L 149.992034 159.099841 
L 150.267289 159.099841 
L 150.267289 158.575593 
L 152.259852 158.575593 
L 152.272646 156.478602 
L 153.326732 156.478602 
L 153.326732 155.954354 
L 154.14875 155.954354 
L 154.14875 151.760373 
L 154.87838 151.760373 
L 154.87838 150.711877 
L 167.842442 150.711877 
L 167.842442 147.042143 
L 169.165297 147.042143 
L 169.25124 143.896657 
L 169.646723 143.896657 
L 169.646723 138.65418 
L 170.984913 138.65418 
L 170.984913 137.605684 
L 171.309076 137.605684 
L 171.309076 134.460198 
L 172.457181 134.460198 
L 172.457181 128.693473 
L 177.170264 128.693473 
L 177.170264 127.644978 
L 186.140688 127.644978 
L 186.140688 125.547987 
L 187.803072 125.547987 
L 187.803072 120.829757 
L 188.894183 120.829757 
L 188.894183 119.257014 
L 192.114908 119.257014 
L 192.114908 116.635776 
L 196.324175 116.635776 
L 196.324175 112.966042 
L 199.779523 112.966042 
L 199.779523 112.441794 
L 203.807973 112.441794 
L 203.807973 111.917546 
L 205.814136 111.917546 
L 205.814136 110.869051 
L 212.674009 110.869051 
L 212.674009 108.77206 
L 214.111474 108.77206 
L 214.111474 107.723564 
L 214.573174 107.723564 
L 214.679572 100.908344 
L 214.700231 100.908344 
L 214.800801 97.762858 
L 214.813583 97.762858 
L 214.919844 87.277903 
L 214.951228 87.277903 
L 215.060291 82.559674 
L 215.734339 82.559674 
L 215.838242 80.462683 
L 215.867362 80.462683 
L 215.977382 77.317197 
L 215.979895 77.317197 
L 216.020064 76.268701 
L 216.10792 76.268701 
L 216.10792 75.744454 
L 216.304818 75.744454 
L 216.304818 74.695958 
L 216.430148 74.695958 
L 216.430148 74.17171 
L 217.567001 74.17171 
L 217.567001 73.647463 
L 217.81134 73.647463 
L 217.81134 73.123215 
L 217.960102 73.123215 
L 217.960102 72.598967 
L 218.589901 72.598967 
L 218.589901 72.074719 
L 219.431635 72.074719 
L 219.431635 71.550472 
L 219.58287 71.550472 
L 219.635781 68.929233 
L 221.896362 68.929233 
L 221.896362 68.404985 
L 222.613404 68.404985 
L 222.623653 67.35649 
L 226.492198 67.35649 
L 226.591959 64.735251 
L 226.604325 64.735251 
L 226.684909 61.589765 
L 226.717576 61.589765 
L 226.748837 60.54127 
L 226.974376 60.54127 
L 227.075999 57.920031 
L 227.091149 57.920031 
L 227.168177 54.250297 
L 227.210077 54.250297 
L 227.210077 53.726049 
L 227.466603 53.726049 
L 227.466603 53.201802 
L 228.155131 53.201802 
L 228.255257 51.629058 
L 228.268788 51.629058 
L 228.268788 51.104811 
L 228.654687 51.104811 
L 228.654687 50.580563 
L 229.182015 50.580563 
L 229.188136 49.532068 
L 233.393617 49.532068 
L 233.498025 45.862334 
L 233.504827 45.862334 
L 233.605183 42.192599 
L 233.845096 42.192599 
L 233.936418 40.095609 
L 234.598103 40.095609 
L 234.655865 39.047113 
L 237.901492 39.047113 
L 237.901492 38.522865 
L 238.379839 38.522865 
L 238.465662 34.853131 
L 238.514173 34.853131 
L 238.581791 33.804636 
L 238.69622 33.804636 
L 238.697477 32.756141 
L 239.773094 32.756141 
L 239.773094 32.231893 
L 242.273519 32.231893 
L 242.31566 31.183397 
L 242.470959 31.183397 
L 242.470959 30.65915 
L 242.909864 30.65915 
L 242.909864 30.134902 
L 245.380157 30.134902 
L 245.423838 29.086407 
L 245.531825 29.086407 
L 245.531825 28.562159 
L 245.82495 28.562159 
L 245.82495 28.037911 
L 248.041006 28.037911 
L 248.041006 27.513663 
L 333.168 27.513663 
L 333.168 27.513663 
" style="fill:none;stroke:#000080;stroke-linecap:square;stroke-width:1.5;"/>
   </g>
   <g id="line2d_39">
    <defs>
     <path d="M 0 6 
C 1.591219 6 3.117479 5.367802 4.242641 4.242641 
C 5.367802 3.117479 6 1.591219 6 0 
C 6 -1.591219 5.367802 -3.117479 4.242641 -4.242641 
C 3.117479 -5.367802 1.591219 -6 0 -6 
C -1.591219 -6 -3.117479 -5.367802 -4.242641 -4.242641 
C -5.367802 -3.117479 -6 -1.591219 -6 0 
C -6 1.591219 -5.367802 3.117479 -4.242641 4.242641 
C -3.117479 5.367802 -1.591219 6 0 6 
z
" id="m1fbc791608" style="stroke:#000080;stroke-width:1.5;"/>
    </defs>
    <g>
     <use style="fill-opacity:0;stroke:#000080;stroke-width:1.5;" x="83.784035" xlink:href="#m1fbc791608" y="282.298055"/>
     <use style="fill-opacity:0;stroke:#000080;stroke-width:1.5;" x="135.276571" xlink:href="#m1fbc791608" y="191.078952"/>
     <use style="fill-opacity:0;stroke:#000080;stroke-width:1.5;" x="192.114908" xlink:href="#m1fbc791608" y="119.257014"/>
     <use style="fill-opacity:0;stroke:#000080;stroke-width:1.5;" x="248.041006" xlink:href="#m1fbc791608" y="28.037911"/>
     <use style="fill-opacity:0;stroke:#000080;stroke-width:1.5;" x="248.041006" xlink:href="#m1fbc791608" y="27.513663"/>
     <use style="fill-opacity:0;stroke:#000080;stroke-width:1.5;" x="333.168" xlink:href="#m1fbc791608" y="27.513663"/>
    </g>
   </g>
   <g id="line2d_40">
    <path style="fill:none;stroke:#000080;stroke-linecap:square;stroke-width:1.5;"/>
    <g/>
   </g>
   <g id="line2d_41">
    <path clip-path="url(#pee25c87fa4)" d="M 214.515109 107.723564 
" style="fill:none;stroke:#000080;stroke-linecap:square;stroke-width:1.5;"/>
    <defs>
     <path d="M -12 12 
L 12 -12 
M -12 -12 
L 12 12 
" id="m8ae773ffdd" style="stroke:#000080;"/>
    </defs>
    <g clip-path="url(#pee25c87fa4)">
     <use style="fill:#000080;stroke:#000080;" x="214.515109" xlink:href="#m8ae773ffdd" y="107.723564"/>
    </g>
   </g>
   <g id="line2d_42">
    <defs>
     <path d="M 0 1.5 
C 0.397805 1.5 0.77937 1.341951 1.06066 1.06066 
C 1.341951 0.77937 1.5 0.397805 1.5 0 
C 1.5 -0.397805 1.341951 -0.77937 1.06066 -1.06066 
C 0.77937 -1.341951 0.397805 -1.5 0 -1.5 
C -0.397805 -1.5 -0.77937 -1.341951 -1.06066 -1.06066 
C -1.341951 -0.77937 -1.5 -0.397805 -1.5 0 
C -1.5 0.397805 -1.341951 0.77937 -1.06066 1.06066 
C -0.77937 1.341951 -0.397805 1.5 0 1.5 
z
" id="m3e6c3129be" style="stroke:#ff00ff;"/>
    </defs>
    <g>
     <use style="fill:#ff00ff;stroke:#ff00ff;" x="242.376784" xlink:href="#m3e6c3129be" y="27.513663"/>
     <use style="fill:#ff00ff;stroke:#ff00ff;" x="242.376784" xlink:href="#m3e6c3129be" y="27.513663"/>
    </g>
   </g>
   <g id="line2d_43">
    <path d="M 47.339607 294.88 
L 47.339607 290.686018 
L 56.12 290.686018 
L 56.12 284.919293 
L 79.066841 284.919293 
L 79.066841 283.34655 
L 81.586754 283.34655 
L 81.586754 280.201064 
L 86.917893 280.201064 
L 86.917893 279.152568 
L 88.027221 279.152568 
L 88.027221 276.007082 
L 90.981092 276.007082 
L 90.981092 274.958587 
L 93.105847 274.958587 
L 93.105847 271.8131 
L 94.996612 271.8131 
L 94.996612 271.288853 
L 96.038666 271.288853 
L 96.038666 270.240357 
L 96.699848 270.240357 
L 96.699848 268.143366 
L 100.983527 268.143366 
L 100.983527 264.99788 
L 108.120612 264.99788 
L 108.120612 263.949385 
L 108.286687 263.949385 
L 108.286687 261.852394 
L 109.093814 261.852394 
L 109.093814 261.328146 
L 110.311216 261.328146 
L 110.311216 260.803898 
L 110.88904 260.803898 
L 110.88904 260.279651 
L 112.897778 260.279651 
L 112.897778 258.706907 
L 113.518374 258.706907 
L 113.518374 257.658412 
L 114.23467 257.658412 
L 114.23467 254.512926 
L 114.581927 254.512926 
L 114.581927 253.46443 
L 116.220179 253.46443 
L 116.220179 251.367439 
L 117.329507 251.367439 
L 117.426894 246.64921 
L 120.200938 246.64921 
L 120.200938 245.076467 
L 121.16504 245.076467 
L 121.16504 244.552219 
L 121.397846 244.552219 
L 121.397846 242.455228 
L 121.627542 242.455228 
L 121.627542 241.406733 
L 123.635161 241.406733 
L 123.635161 240.882485 
L 123.769975 240.882485 
L 123.769975 239.83399 
L 123.903739 239.83399 
L 123.903739 236.688503 
L 125.187069 236.688503 
L 125.187069 236.164255 
L 125.614517 236.164255 
L 125.614517 235.640008 
L 126.323427 235.640008 
L 126.323427 234.591512 
L 126.836558 234.591512 
L 126.836558 233.543017 
L 127.05979 233.543017 
L 127.05979 233.018769 
L 127.712602 233.018769 
L 127.712602 232.494521 
L 130.007824 232.494521 
L 130.007824 231.446026 
L 132.032353 231.446026 
L 132.032353 229.873283 
L 133.312097 229.873283 
L 133.312097 228.824787 
L 134.029181 228.824787 
L 134.029181 223.058063 
L 134.286006 223.058063 
L 134.286006 222.533815 
L 136.567566 222.533815 
L 136.567566 222.009567 
L 137.255203 222.009567 
L 137.255203 220.961072 
L 137.618997 220.961072 
L 137.618997 219.912576 
L 138.237678 219.912576 
L 138.237678 218.339833 
L 139.546595 218.339833 
L 139.546595 217.815585 
L 139.706738 217.815585 
L 139.812678 215.194347 
L 140.178407 215.194347 
L 140.230025 213.097356 
L 141.303883 213.097356 
L 141.303883 211.524613 
L 142.360172 211.524613 
L 142.360172 209.95187 
L 143.35529 209.95187 
L 143.35529 209.427622 
L 143.946604 209.427622 
L 143.946604 208.379126 
L 145.05204 208.379126 
L 145.05204 207.854879 
L 145.168442 207.854879 
L 145.226349 206.806383 
L 146.108974 206.806383 
L 146.163802 205.23364 
L 147.018071 205.23364 
L 147.035425 203.136649 
L 147.531203 203.136649 
L 147.531203 202.088154 
L 147.682202 202.088154 
L 147.682202 200.515411 
L 148.703609 200.515411 
L 148.735061 197.369924 
L 149.276358 197.369924 
L 149.276358 195.272933 
L 150.252912 195.272933 
L 150.252912 194.224438 
L 152.476064 194.224438 
L 152.526544 191.078952 
L 152.664606 191.078952 
L 152.664606 190.030456 
L 154.545472 190.030456 
L 154.623729 186.88497 
L 154.856386 186.88497 
L 154.856386 182.16674 
L 155.891966 182.16674 
L 155.943692 179.021254 
L 157.398793 179.021254 
L 157.398793 178.497006 
L 157.578187 178.497006 
L 157.578187 176.924263 
L 157.727817 176.924263 
L 157.727817 175.875768 
L 157.968221 175.875768 
L 157.968221 174.827272 
L 158.268586 174.827272 
L 158.268586 169.584795 
L 158.696319 169.584795 
L 158.696319 168.5363 
L 158.906259 168.5363 
L 158.906259 165.390813 
L 160.348167 165.390813 
L 160.348167 161.721079 
L 160.696383 161.721079 
L 160.696383 157.527098 
L 160.929822 157.527098 
L 160.952993 155.954354 
L 161.477471 155.954354 
L 161.477471 154.381611 
L 161.811097 154.381611 
L 161.811097 152.28462 
L 162.203085 152.28462 
L 162.203085 148.614886 
L 162.466599 148.614886 
L 162.466599 142.848162 
L 162.712205 142.848162 
L 162.712205 139.702675 
L 163.029755 139.702675 
L 163.029755 136.032941 
L 163.240495 136.032941 
L 163.314656 134.460198 
L 163.354974 134.460198 
L 163.408583 133.411703 
L 164.484845 133.411703 
L 164.535049 129.741969 
L 164.94985 129.741969 
L 164.94985 129.217721 
L 165.259017 129.217721 
L 165.259017 128.693473 
L 165.438316 128.693473 
L 165.438316 128.169225 
L 165.662775 128.169225 
L 165.692092 126.072235 
L 166.125953 126.072235 
L 166.125953 123.975244 
L 166.442907 123.975244 
L 166.442907 116.635776 
L 166.638076 116.635776 
L 166.638076 115.58728 
L 166.776138 115.58728 
L 166.776138 115.063032 
L 167.097634 115.063032 
L 167.097634 114.538785 
L 167.370773 114.538785 
L 167.423824 112.441794 
L 167.481992 112.441794 
L 167.481992 111.917546 
L 167.945522 111.917546 
L 167.945522 108.77206 
L 168.586041 108.77206 
L 168.586041 107.723564 
L 168.948539 107.723564 
L 168.948539 106.150821 
L 169.679273 106.150821 
L 169.679273 102.481087 
L 171.422783 102.481087 
L 171.422783 101.956839 
L 171.68521 101.956839 
L 171.68521 97.762858 
L 172.817002 97.762858 
L 172.817002 96.714362 
L 173.218668 96.714362 
L 173.218668 95.141619 
L 177.459255 95.141619 
L 177.459255 94.093124 
L 177.62391 94.093124 
L 177.62391 93.568876 
L 177.942818 93.568876 
L 177.942818 92.520381 
L 179.504125 92.520381 
L 179.504125 91.996133 
L 214.483603 91.996133 
L 214.592599 89.899142 
L 214.594983 89.899142 
L 214.69109 86.753656 
L 214.754301 86.753656 
L 214.804838 85.180912 
L 214.896101 85.180912 
L 214.994537 80.462683 
L 215.045037 80.462683 
L 215.10002 74.17171 
L 215.157134 74.17171 
L 215.249829 70.501976 
L 215.276362 70.501976 
L 215.35148 65.783747 
L 215.399644 65.783747 
L 215.508813 61.589765 
L 215.514302 61.589765 
L 215.611196 59.492774 
L 215.660559 59.492774 
L 215.674957 55.82304 
L 215.806534 55.82304 
L 215.806534 55.298792 
L 215.929236 55.298792 
L 215.929236 53.726049 
L 216.325462 53.726049 
L 216.376503 52.677554 
L 216.550317 52.677554 
L 216.550317 51.104811 
L 226.449534 51.104811 
L 226.55192 49.532068 
L 226.582467 49.532068 
L 226.672095 44.28959 
L 226.720772 44.28959 
L 226.811858 40.095609 
L 226.837604 40.095609 
L 226.857305 39.047113 
L 226.972222 39.047113 
L 227.047968 34.853131 
L 227.094606 34.853131 
L 227.094606 34.328884 
L 233.352156 34.328884 
L 233.352156 33.804636 
L 233.525556 33.804636 
L 233.628605 30.65915 
L 233.650085 30.65915 
L 233.650085 30.134902 
L 233.9712 30.134902 
L 233.9712 29.610654 
L 238.452068 29.610654 
L 238.505956 28.562159 
L 242.225748 28.562159 
L 242.225748 28.037911 
L 242.376784 28.037911 
L 242.376784 27.513663 
L 333.168 27.513663 
L 333.168 27.513663 
" style="fill:none;stroke:#ff00ff;stroke-linecap:square;stroke-width:1.5;"/>
   </g>
   <g id="line2d_44">
    <defs>
     <path d="M -0 8.485281 
L 5.091169 0 
L 0 -8.485281 
L -5.091169 -0 
z
" id="m168a210cce" style="stroke:#ff00ff;stroke-linejoin:miter;stroke-width:1.5;"/>
    </defs>
    <g>
     <use style="fill-opacity:0;stroke:#ff00ff;stroke-linejoin:miter;stroke-width:1.5;" x="125.187069" xlink:href="#m168a210cce" y="236.688503"/>
     <use style="fill-opacity:0;stroke:#ff00ff;stroke-linejoin:miter;stroke-width:1.5;" x="164.94985" xlink:href="#m168a210cce" y="129.741969"/>
     <use style="fill-opacity:0;stroke:#ff00ff;stroke-linejoin:miter;stroke-width:1.5;" x="216.550317" xlink:href="#m168a210cce" y="51.104811"/>
     <use style="fill-opacity:0;stroke:#ff00ff;stroke-linejoin:miter;stroke-width:1.5;" x="242.376784" xlink:href="#m168a210cce" y="27.513663"/>
     <use style="fill-opacity:0;stroke:#ff00ff;stroke-linejoin:miter;stroke-width:1.5;" x="242.376784" xlink:href="#m168a210cce" y="27.513663"/>
     <use style="fill-opacity:0;stroke:#ff00ff;stroke-linejoin:miter;stroke-width:1.5;" x="333.168" xlink:href="#m168a210cce" y="27.513663"/>
    </g>
   </g>
   <g id="line2d_45">
    <path style="fill:none;stroke:#ff00ff;stroke-linecap:square;stroke-width:1.5;"/>
    <g/>
   </g>
   <g id="line2d_46">
    <path clip-path="url(#pee25c87fa4)" d="M 214.433487 91.996133 
" style="fill:none;stroke:#ff00ff;stroke-linecap:square;stroke-width:1.5;"/>
    <defs>
     <path d="M -12 12 
L 12 -12 
M -12 -12 
L 12 12 
" id="m41304fea78" style="stroke:#ff00ff;"/>
    </defs>
    <g clip-path="url(#pee25c87fa4)">
     <use style="fill:#ff00ff;stroke:#ff00ff;" x="214.433487" xlink:href="#m41304fea78" y="91.996133"/>
    </g>
   </g>
   <g id="line2d_47">
    <defs>
     <path d="M 0 1.5 
C 0.397805 1.5 0.77937 1.341951 1.06066 1.06066 
C 1.341951 0.77937 1.5 0.397805 1.5 0 
C 1.5 -0.397805 1.341951 -0.77937 1.06066 -1.06066 
C 0.77937 -1.341951 0.397805 -1.5 0 -1.5 
C -0.397805 -1.5 -0.77937 -1.341951 -1.06066 -1.06066 
C -1.341951 -0.77937 -1.5 -0.397805 -1.5 0 
C -1.5 0.397805 -1.341951 0.77937 -1.06066 1.06066 
C -0.77937 1.341951 -0.397805 1.5 0 1.5 
z
" id="m1e05fed48b" style="stroke:#ffa500;"/>
    </defs>
    <g>
     <use style="fill:#ffa500;stroke:#ffa500;" x="284.008455" xlink:href="#m1e05fed48b" y="85.180912"/>
     <use style="fill:#ffa500;stroke:#ffa500;" x="284.008455" xlink:href="#m1e05fed48b" y="85.180912"/>
    </g>
   </g>
   <g id="line2d_48">
    <path d="M 47.339607 294.88 
L 47.339607 294.355752 
L 52.284468 294.355752 
L 52.284468 293.307257 
L 56.12 293.307257 
L 56.12 292.258761 
L 59.253858 292.258761 
L 59.253858 287.540532 
L 69.672503 287.540532 
L 69.672503 283.34655 
L 76.11297 283.34655 
L 76.11297 282.298055 
L 77.155024 282.298055 
L 77.155024 281.773807 
L 79.948502 281.773807 
L 79.948502 278.104073 
L 88.027221 278.104073 
L 88.027221 277.579825 
L 90.981092 277.579825 
L 90.981092 270.240357 
L 95.698286 270.240357 
L 95.698286 269.191862 
L 96.038666 269.191862 
L 96.038666 268.143366 
L 96.372436 268.143366 
L 96.372436 266.570623 
L 97.336537 266.570623 
L 97.336537 266.046375 
L 97.646251 266.046375 
L 97.646251 262.900889 
L 98.543252 262.900889 
L 98.543252 261.852394 
L 102.895343 261.852394 
L 102.895343 261.328146 
L 103.990531 261.328146 
L 103.990531 256.085669 
L 108.120612 256.085669 
L 108.120612 255.561421 
L 110.602556 255.561421 
L 110.602556 252.415935 
L 112.384646 252.415935 
L 112.384646 251.367439 
L 116.115688 251.367439 
L 116.115688 250.318944 
L 117.426894 250.318944 
L 117.426894 248.746201 
L 122.151854 248.746201 
L 122.151854 247.697705 
L 125.854083 247.697705 
L 125.854083 247.173458 
L 128.698042 247.173458 
L 128.698042 245.076467 
L 128.8486 245.076467 
L 128.8486 244.552219 
L 129.341145 244.552219 
L 129.341145 244.027971 
L 143.095508 244.027971 
L 143.095508 243.503724 
L 146.090659 243.503724 
L 146.090659 241.93098 
L 148.369839 241.93098 
L 148.369839 240.882485 
L 148.875888 240.882485 
L 148.875888 240.358237 
L 150.80492 240.358237 
L 150.80492 239.309742 
L 153.3147 239.309742 
L 153.3147 237.212751 
L 153.577492 237.212751 
L 153.577492 236.688503 
L 155.620451 236.688503 
L 155.620451 236.164255 
L 161.205828 236.164255 
L 161.205828 235.11576 
L 164.672359 235.11576 
L 164.672359 234.067265 
L 166.638076 234.067265 
L 166.638076 233.018769 
L 168.461827 233.018769 
L 168.461827 232.494521 
L 174.099384 232.494521 
L 174.099384 231.970274 
L 175.946989 231.970274 
L 175.946989 231.446026 
L 183.706607 231.446026 
L 183.706607 230.921778 
L 188.321201 230.921778 
L 188.321201 229.873283 
L 189.408923 229.873283 
L 189.408923 228.30054 
L 191.835577 228.30054 
L 191.835577 224.106558 
L 194.215395 224.106558 
L 194.215395 223.058063 
L 198.873102 223.058063 
L 198.873102 220.961072 
L 203.90973 220.961072 
L 203.90973 219.912576 
L 204.0279 219.912576 
L 204.0279 218.864081 
L 207.371028 218.864081 
L 207.371028 218.339833 
L 208.346042 218.339833 
L 208.346042 217.815585 
L 210.702997 217.815585 
L 210.702997 215.194347 
L 212.779552 215.194347 
L 212.779552 213.621604 
L 214.436924 213.621604 
L 214.474003 207.854879 
L 214.549971 207.854879 
L 214.55441 206.282136 
L 215.126454 206.282136 
L 215.193022 204.709392 
L 215.917888 204.709392 
L 215.917888 204.185145 
L 217.092994 204.185145 
L 217.092994 203.660897 
L 218.036093 203.660897 
L 218.036093 203.136649 
L 218.522016 203.136649 
L 218.522016 194.224438 
L 219.054059 194.224438 
L 219.054059 193.70019 
L 221.908161 193.70019 
L 221.920396 192.651695 
L 223.422987 192.651695 
L 223.422987 192.127447 
L 224.583309 192.127447 
L 224.583309 190.554704 
L 225.540476 190.554704 
L 225.540476 190.030456 
L 226.350144 190.030456 
L 226.405908 187.933465 
L 226.530505 187.933465 
L 226.625817 186.88497 
L 228.2431 186.88497 
L 228.2431 185.836474 
L 228.4632 185.836474 
L 228.513129 176.400016 
L 231.423461 176.400016 
L 231.423461 175.35152 
L 232.161068 175.35152 
L 232.161068 172.730281 
L 232.78307 172.730281 
L 232.78307 171.157538 
L 233.643453 171.157538 
L 233.643453 170.633291 
L 233.826083 170.633291 
L 233.826083 170.109043 
L 234.622017 170.109043 
L 234.622017 169.584795 
L 234.79049 169.584795 
L 234.79049 164.866566 
L 236.184945 164.866566 
L 236.190278 163.81807 
L 237.402224 163.81807 
L 237.402224 162.245327 
L 238.353445 162.245327 
L 238.353445 161.721079 
L 238.507227 161.721079 
L 238.507227 161.196832 
L 239.3786 161.196832 
L 239.3786 156.478602 
L 240.986382 156.478602 
L 240.986382 155.954354 
L 241.413113 155.954354 
L 241.413113 154.381611 
L 242.166959 154.381611 
L 242.166959 153.857364 
L 242.293923 153.857364 
L 242.293923 153.333116 
L 242.996472 153.333116 
L 242.996472 150.18763 
L 243.878219 150.18763 
L 243.878219 149.663382 
L 244.662889 149.663382 
L 244.662889 148.614886 
L 245.29229 148.614886 
L 245.29229 148.090639 
L 245.983677 148.090639 
L 245.983677 144.945152 
L 247.39485 144.945152 
L 247.39485 143.896657 
L 247.653966 143.896657 
L 247.653966 143.372409 
L 248.527793 143.372409 
L 248.527793 140.226923 
L 249.751557 140.226923 
L 249.751557 139.702675 
L 249.97769 139.702675 
L 249.97769 139.178427 
L 250.729761 139.178427 
L 250.743445 134.984446 
L 251.823755 134.984446 
L 251.823755 133.93595 
L 252.705831 133.93595 
L 252.705831 128.693473 
L 253.672799 128.693473 
L 253.672799 126.072235 
L 254.466957 126.072235 
L 254.466957 121.878253 
L 255.342112 121.878253 
L 255.342112 120.829757 
L 256.064292 120.829757 
L 256.064292 118.732766 
L 256.86356 118.732766 
L 256.86356 118.208519 
L 257.525727 118.208519 
L 257.525727 116.635776 
L 258.872584 116.635776 
L 258.872584 115.58728 
L 259.55373 115.58728 
L 259.55373 115.063032 
L 260.12153 115.063032 
L 260.12153 114.014537 
L 260.755808 114.014537 
L 260.755808 112.966042 
L 261.285841 112.966042 
L 261.285841 112.441794 
L 261.879287 112.441794 
L 261.879287 111.393298 
L 262.376264 111.393298 
L 262.376264 110.344803 
L 263.401619 110.344803 
L 263.401619 109.296308 
L 264.369237 109.296308 
L 264.369237 107.723564 
L 265.285274 107.723564 
L 265.285274 107.199317 
L 266.154953 107.199317 
L 266.154953 105.102326 
L 266.98274 105.102326 
L 266.98274 104.578078 
L 267.410835 104.578078 
L 267.410835 103.529583 
L 267.772487 103.529583 
L 267.772487 102.481087 
L 268.181585 102.481087 
L 268.181585 101.956839 
L 268.527537 101.956839 
L 268.527537 100.384096 
L 269.25081 100.384096 
L 269.25081 98.287105 
L 269.944874 98.287105 
L 269.944874 97.23861 
L 270.611997 97.23861 
L 270.611997 96.190115 
L 271.254192 96.190115 
L 271.254192 95.665867 
L 273.60695 95.665867 
L 273.60695 94.093124 
L 274.148052 94.093124 
L 274.148052 91.996133 
L 274.67264 91.996133 
L 274.67264 91.471885 
L 275.676096 91.471885 
L 275.676096 90.42339 
L 277.52271 90.42339 
L 277.52271 89.374894 
L 277.95495 89.374894 
L 277.95495 88.850646 
L 278.376586 88.850646 
L 278.376586 88.326399 
L 279.966737 88.326399 
L 279.966737 87.802151 
L 280.342307 87.802151 
L 280.342307 87.277903 
L 283.083591 87.277903 
L 283.083591 86.229408 
L 284.008455 86.229408 
L 284.008455 85.180912 
L 333.168 85.180912 
L 333.168 85.180912 
" style="fill:none;stroke:#ffa500;stroke-linecap:square;stroke-width:1.5;"/>
   </g>
   <g id="line2d_49">
    <defs>
     <path d="M 0 -6 
L -1.347084 -1.854102 
L -5.706339 -1.854102 
L -2.179628 0.708204 
L -3.526712 4.854102 
L -0 2.291796 
L 3.526712 4.854102 
L 2.179628 0.708204 
L 5.706339 -1.854102 
L 1.347084 -1.854102 
z
" id="m08672e0299" style="stroke:#ffa500;stroke-linejoin:bevel;stroke-width:1.5;"/>
    </defs>
    <g>
     <use style="fill-opacity:0;stroke:#ffa500;stroke-linejoin:bevel;stroke-width:1.5;" x="129.341145" xlink:href="#m08672e0299" y="244.027971"/>
     <use style="fill-opacity:0;stroke:#ffa500;stroke-linejoin:bevel;stroke-width:1.5;" x="218.036093" xlink:href="#m08672e0299" y="203.136649"/>
     <use style="fill-opacity:0;stroke:#ffa500;stroke-linejoin:bevel;stroke-width:1.5;" x="260.12153" xlink:href="#m08672e0299" y="115.063032"/>
     <use style="fill-opacity:0;stroke:#ffa500;stroke-linejoin:bevel;stroke-width:1.5;" x="284.008455" xlink:href="#m08672e0299" y="85.180912"/>
     <use style="fill-opacity:0;stroke:#ffa500;stroke-linejoin:bevel;stroke-width:1.5;" x="284.008455" xlink:href="#m08672e0299" y="85.180912"/>
     <use style="fill-opacity:0;stroke:#ffa500;stroke-linejoin:bevel;stroke-width:1.5;" x="333.168" xlink:href="#m08672e0299" y="85.180912"/>
    </g>
   </g>
   <g id="line2d_50">
    <path style="fill:none;stroke:#ffa500;stroke-linecap:square;stroke-width:1.5;"/>
    <g/>
   </g>
   <g id="line2d_51">
    <path clip-path="url(#pee25c87fa4)" d="M 214.433143 213.621604 
" style="fill:none;stroke:#ffa500;stroke-linecap:square;stroke-width:1.5;"/>
    <defs>
     <path d="M -12 12 
L 12 -12 
M -12 -12 
L 12 12 
" id="m38a76ced78" style="stroke:#ffa500;"/>
    </defs>
    <g clip-path="url(#pee25c87fa4)">
     <use style="fill:#ffa500;stroke:#ffa500;" x="214.433143" xlink:href="#m38a76ced78" y="213.621604"/>
    </g>
   </g>
   <g id="line2d_52">
    <defs>
     <path d="M 0 1.5 
C 0.397805 1.5 0.77937 1.341951 1.06066 1.06066 
C 1.341951 0.77937 1.5 0.397805 1.5 0 
C 1.5 -0.397805 1.341951 -0.77937 1.06066 -1.06066 
C 0.77937 -1.341951 0.397805 -1.5 0 -1.5 
C -0.397805 -1.5 -0.77937 -1.341951 -1.06066 -1.06066 
C -1.341951 -0.77937 -1.5 -0.397805 -1.5 0 
C -1.5 0.397805 -1.341951 0.77937 -1.06066 1.06066 
C -0.77937 1.341951 -0.397805 1.5 0 1.5 
z
" id="m756c0bb3df" style="stroke:#6495ed;"/>
    </defs>
    <g>
     <use style="fill:#6495ed;stroke:#6495ed;" x="213.364103" xlink:href="#m756c0bb3df" y="132.363207"/>
     <use style="fill:#6495ed;stroke:#6495ed;" x="213.364103" xlink:href="#m756c0bb3df" y="132.363207"/>
    </g>
   </g>
   <g id="line2d_53">
    <path d="M 28.455965 294.88 
L 28.455965 292.258761 
L 47.339607 292.258761 
L 47.339607 290.161771 
L 61.903497 290.161771 
L 61.903497 287.540532 
L 64.198719 287.540532 
L 64.198719 284.395046 
L 66.223248 284.395046 
L 66.223248 279.152568 
L 71.168109 279.152568 
L 71.168109 278.104073 
L 79.066841 278.104073 
L 79.066841 277.579825 
L 80.787138 277.579825 
L 80.787138 272.861596 
L 82.350819 272.861596 
L 82.350819 271.8131 
L 83.08236 271.8131 
L 83.08236 269.716109 
L 83.784035 269.716109 
L 83.784035 266.046375 
L 86.335171 266.046375 
L 86.335171 264.99788 
L 88.027221 264.99788 
L 88.027221 261.328146 
L 89.567532 261.328146 
L 89.567532 260.279651 
L 92.70139 260.279651 
L 92.70139 258.706907 
L 93.501005 258.706907 
L 93.501005 258.18266 
L 94.26507 258.18266 
L 94.26507 257.134164 
L 94.634732 257.134164 
L 94.634732 254.512926 
L 94.996612 254.512926 
L 94.996612 253.988678 
L 95.698286 253.988678 
L 95.698286 253.46443 
L 97.950482 253.46443 
L 97.950482 251.367439 
L 99.11626 251.367439 
L 99.11626 250.318944 
L 99.395756 250.318944 
L 99.395756 249.794696 
L 101.966002 249.794696 
L 101.966002 248.221953 
L 103.990531 248.221953 
L 103.990531 247.173458 
L 104.819059 247.173458 
L 104.819059 246.124962 
L 105.991465 246.124962 
L 105.991465 244.552219 
L 106.910863 244.552219 
L 106.910863 243.503724 
L 109.093814 243.503724 
L 109.093814 242.979476 
L 110.163674 242.979476 
L 110.163674 242.455228 
L 110.311216 242.455228 
L 110.311216 239.309742 
L 110.457504 239.309742 
L 110.457504 237.212751 
L 111.030511 237.212751 
L 111.030511 236.688503 
L 111.585031 236.688503 
L 111.585031 235.640008 
L 112.122219 235.640008 
L 112.122219 235.11576 
L 112.897778 235.11576 
L 112.897778 234.591512 
L 114.23467 234.591512 
L 114.23467 234.067265 
L 115.365909 234.067265 
L 115.365909 233.543017 
L 115.691256 233.543017 
L 115.691256 232.494521 
L 116.220179 232.494521 
L 116.220179 230.921778 
L 117.033994 230.921778 
L 117.033994 230.397531 
L 118.186736 230.397531 
L 118.186736 228.824787 
L 120.929036 228.824787 
L 120.929036 227.776292 
L 123.36232 227.776292 
L 123.36232 227.252044 
L 123.635161 227.252044 
L 123.635161 224.106558 
L 123.970233 224.106558 
L 123.970233 223.058063 
L 124.168185 223.058063 
L 124.168185 222.533815 
L 124.298898 222.533815 
L 124.298898 220.436824 
L 126.148921 220.436824 
L 126.207287 219.388328 
L 126.780294 219.388328 
L 126.780294 214.145851 
L 126.948537 214.145851 
L 126.948537 210.476117 
L 127.443604 210.476117 
L 127.443604 209.95187 
L 128.698042 209.95187 
L 128.698042 208.379126 
L 131.398014 208.379126 
L 131.398014 207.854879 
L 131.823497 207.854879 
L 131.823497 206.806383 
L 132.882847 206.806383 
L 132.882847 203.136649 
L 133.579779 203.136649 
L 133.579779 199.991163 
L 134.574897 199.991163 
L 134.574897 198.41842 
L 135.549413 198.41842 
L 135.549413 197.894172 
L 136.115208 197.894172 
L 136.115208 197.369924 
L 137.132207 197.369924 
L 137.132207 196.845677 
L 137.285815 196.845677 
L 137.285815 196.321429 
L 138.150647 196.321429 
L 138.150647 195.272933 
L 138.890669 195.272933 
L 138.918505 193.70019 
L 139.08458 193.70019 
L 139.139583 192.651695 
L 140.383954 192.651695 
L 140.383954 192.127447 
L 142.337391 192.127447 
L 142.337391 191.603199 
L 142.563858 191.603199 
L 142.653616 188.981961 
L 143.526323 188.981961 
L 143.526323 188.457713 
L 144.07071 188.457713 
L 144.07071 187.933465 
L 144.214377 187.933465 
L 144.214377 186.360722 
L 146.035596 186.360722 
L 146.035596 185.312227 
L 146.363355 185.312227 
L 146.363355 184.787979 
L 146.684982 184.787979 
L 146.684982 183.739484 
L 146.843566 183.739484 
L 146.93104 180.06975 
L 149.092685 180.06975 
L 149.108066 179.021254 
L 149.548241 179.021254 
L 149.548241 178.497006 
L 151.081271 178.497006 
L 151.081271 177.448511 
L 151.217797 177.448511 
L 151.217797 175.35152 
L 153.398752 175.35152 
L 153.398752 172.730281 
L 153.613017 172.730281 
L 153.613017 172.206034 
L 153.929489 172.206034 
L 153.987461 168.012052 
L 155.829688 168.012052 
L 155.829688 167.487804 
L 156.849095 167.487804 
L 156.946814 164.866566 
L 157.370295 164.866566 
L 157.370295 163.293823 
L 158.30464 163.293823 
L 158.30464 162.769575 
L 158.537164 162.769575 
L 158.537164 161.721079 
L 158.696319 161.721079 
L 158.696319 160.148336 
L 158.932322 160.148336 
L 158.975673 158.051345 
L 161.19822 158.051345 
L 161.236223 157.00285 
L 162.614384 157.00285 
L 162.614384 156.478602 
L 162.740052 156.478602 
L 162.802544 155.430107 
L 164.666141 155.430107 
L 164.666141 154.381611 
L 165.69795 154.381611 
L 165.69795 152.808868 
L 165.959489 152.808868 
L 165.988305 151.236125 
L 166.836536 151.236125 
L 166.836536 150.711877 
L 167.471431 150.711877 
L 167.471431 150.18763 
L 168.401884 150.18763 
L 168.401884 149.663382 
L 168.650279 149.663382 
L 168.650279 149.139134 
L 170.737715 149.139134 
L 170.816163 147.566391 
L 170.954746 147.566391 
L 170.954746 147.042143 
L 172.397794 147.042143 
L 172.397794 146.517896 
L 172.793763 146.517896 
L 172.793763 145.993648 
L 172.986463 145.993648 
L 172.986463 145.4694 
L 174.023782 145.4694 
L 174.023782 144.945152 
L 174.803214 144.945152 
L 174.803214 143.896657 
L 175.739269 143.896657 
L 175.739269 143.372409 
L 176.446167 143.372409 
L 176.446167 142.848162 
L 177.853541 142.848162 
L 177.853541 142.323914 
L 179.191788 142.323914 
L 179.191788 141.799666 
L 180.601482 141.799666 
L 180.601482 140.751171 
L 181.67463 140.751171 
L 181.67463 140.226923 
L 181.789836 140.226923 
L 181.789836 139.178427 
L 185.860285 139.178427 
L 185.860285 138.65418 
L 186.734697 138.65418 
L 186.734697 138.129932 
L 187.501008 138.129932 
L 187.501008 137.605684 
L 188.383905 137.605684 
L 188.383905 136.557189 
L 189.881467 136.557189 
L 189.881467 136.032941 
L 190.584002 136.032941 
L 190.584002 135.508693 
L 191.908386 135.508693 
L 191.908386 134.984446 
L 195.361117 134.984446 
L 195.361117 134.460198 
L 197.329365 134.460198 
L 197.329365 133.93595 
L 202.161108 133.93595 
L 202.161108 133.411703 
L 208.295021 133.411703 
L 208.295021 132.887455 
L 213.364103 132.887455 
L 213.364103 132.363207 
L 333.168 132.363207 
L 333.168 132.363207 
" style="fill:none;stroke:#6495ed;stroke-linecap:square;stroke-width:1.5;"/>
   </g>
   <g id="line2d_54">
    <defs>
     <path d="M -0 6 
L 6 -6 
L -6 -6 
z
" id="m421fb06330" style="stroke:#6495ed;stroke-linejoin:miter;stroke-width:1.5;"/>
    </defs>
    <g>
     <use style="fill-opacity:0;stroke:#6495ed;stroke-linejoin:miter;stroke-width:1.5;" x="95.698286" xlink:href="#m421fb06330" y="253.988678"/>
     <use style="fill-opacity:0;stroke:#6495ed;stroke-linejoin:miter;stroke-width:1.5;" x="133.579779" xlink:href="#m421fb06330" y="203.136649"/>
     <use style="fill-opacity:0;stroke:#6495ed;stroke-linejoin:miter;stroke-width:1.5;" x="202.161108" xlink:href="#m421fb06330" y="133.93595"/>
     <use style="fill-opacity:0;stroke:#6495ed;stroke-linejoin:miter;stroke-width:1.5;" x="213.364103" xlink:href="#m421fb06330" y="132.363207"/>
     <use style="fill-opacity:0;stroke:#6495ed;stroke-linejoin:miter;stroke-width:1.5;" x="213.364103" xlink:href="#m421fb06330" y="132.363207"/>
     <use style="fill-opacity:0;stroke:#6495ed;stroke-linejoin:miter;stroke-width:1.5;" x="333.168" xlink:href="#m421fb06330" y="132.363207"/>
    </g>
   </g>
   <g id="line2d_55">
    <path style="fill:none;stroke:#6495ed;stroke-linecap:square;stroke-width:1.5;"/>
    <g/>
   </g>
   <g id="line2d_56">
    <path clip-path="url(#pee25c87fa4)" d="M 135.276571 198.41842 
" style="fill:none;stroke:#6495ed;stroke-linecap:square;stroke-width:1.5;"/>
    <defs>
     <path d="M -12 12 
L 12 -12 
M -12 -12 
L 12 12 
" id="m68434cf3be" style="stroke:#6495ed;"/>
    </defs>
    <g clip-path="url(#pee25c87fa4)">
     <use style="fill:#6495ed;stroke:#6495ed;" x="135.276571" xlink:href="#m68434cf3be" y="198.41842"/>
    </g>
   </g>
   <g id="line2d_57">
    <path d="M 333.168 132.363207 
L 363.64328 289.532673 
" style="fill:none;stroke:#6495ed;stroke-linecap:square;stroke-width:1.5;"/>
    <g>
     <use style="fill-opacity:0;stroke:#6495ed;stroke-linejoin:miter;stroke-width:1.5;" x="333.168" xlink:href="#m421fb06330" y="132.363207"/>
     <use style="fill-opacity:0;stroke:#6495ed;stroke-linejoin:miter;stroke-width:1.5;" x="363.64328" xlink:href="#m421fb06330" y="289.532673"/>
    </g>
   </g>
   <g id="line2d_58">
    <path d="M 333.168 85.180912 
L 363.64328 203.975446 
" style="fill:none;stroke:#ffa500;stroke-linecap:square;stroke-width:1.5;"/>
    <g>
     <use style="fill-opacity:0;stroke:#ffa500;stroke-linejoin:bevel;stroke-width:1.5;" x="333.168" xlink:href="#m08672e0299" y="85.180912"/>
     <use style="fill-opacity:0;stroke:#ffa500;stroke-linejoin:bevel;stroke-width:1.5;" x="363.64328" xlink:href="#m08672e0299" y="203.975446"/>
    </g>
   </g>
   <g id="line2d_59">
    <path d="M 333.168 27.513663 
L 363.64328 118.418218 
" style="fill:none;stroke:#000080;stroke-linecap:square;stroke-width:1.5;"/>
    <g>
     <use style="fill-opacity:0;stroke:#000080;stroke-width:1.5;" x="333.168" xlink:href="#m1fbc791608" y="27.513663"/>
     <use style="fill-opacity:0;stroke:#000080;stroke-width:1.5;" x="363.64328" xlink:href="#m1fbc791608" y="118.418218"/>
    </g>
   </g>
   <g id="line2d_60">
    <path d="M 333.168 27.513663 
L 363.64328 32.86099 
" style="fill:none;stroke:#ff00ff;stroke-linecap:square;stroke-width:1.5;"/>
    <g>
     <use style="fill-opacity:0;stroke:#ff00ff;stroke-linejoin:miter;stroke-width:1.5;" x="333.168" xlink:href="#m168a210cce" y="27.513663"/>
     <use style="fill-opacity:0;stroke:#ff00ff;stroke-linejoin:miter;stroke-width:1.5;" x="363.64328" xlink:href="#m168a210cce" y="32.86099"/>
    </g>
   </g>
   <g id="line2d_61">
    <path d="M 333.168 294.88 
L 333.168 27.513663 
" style="fill:none;stroke:#000000;stroke-linecap:square;stroke-width:1.5;"/>
   </g>
   <g id="patch_3">
    <path d="M 56.12 294.88 
L 56.12 24.84 
" style="fill:none;stroke:#000000;stroke-linecap:square;stroke-linejoin:miter;stroke-width:0.8;"/>
   </g>
   <g id="patch_4">
    <path d="M 333.168 294.88 
L 333.168 24.84 
" style="fill:none;stroke:#000000;stroke-linecap:square;stroke-linejoin:miter;stroke-width:0.8;"/>
   </g>
   <g id="patch_5">
    <path d="M 56.12 294.88 
L 333.168 294.88 
" style="fill:none;stroke:#000000;stroke-linecap:square;stroke-linejoin:miter;stroke-width:0.8;"/>
   </g>
   <g id="patch_6">
    <path d="M 56.12 24.84 
L 333.168 24.84 
" style="fill:none;stroke:#000000;stroke-linecap:square;stroke-linejoin:miter;stroke-width:0.8;"/>
   </g>
   <g id="text_13">
    <!-- TPE -->
    <defs>
     <path d="M -0.296875 72.90625 
L 61.375 72.90625 
L 61.375 64.59375 
L 35.5 64.59375 
L 35.5 0 
L 25.59375 0 
L 25.59375 64.59375 
L -0.296875 64.59375 
z
" id="DejaVuSans-54"/>
     <path d="M 19.671875 64.796875 
L 19.671875 37.40625 
L 32.078125 37.40625 
Q 38.96875 37.40625 42.71875 40.96875 
Q 46.484375 44.53125 46.484375 51.125 
Q 46.484375 57.671875 42.71875 61.234375 
Q 38.96875 64.796875 32.078125 64.796875 
z
M 9.8125 72.90625 
L 32.078125 72.90625 
Q 44.34375 72.90625 50.609375 67.359375 
Q 56.890625 61.8125 56.890625 51.125 
Q 56.890625 40.328125 50.609375 34.8125 
Q 44.34375 29.296875 32.078125 29.296875 
L 19.671875 29.296875 
L 19.671875 0 
L 9.8125 0 
z
" id="DejaVuSans-50"/>
     <path d="M 9.8125 72.90625 
L 55.90625 72.90625 
L 55.90625 64.59375 
L 19.671875 64.59375 
L 19.671875 43.015625 
L 54.390625 43.015625 
L 54.390625 34.71875 
L 19.671875 34.71875 
L 19.671875 8.296875 
L 56.78125 8.296875 
L 56.78125 0 
L 9.8125 0 
z
" id="DejaVuSans-45"/>
    </defs>
    <g transform="translate(369.18424 294.223611)scale(0.17 -0.17)">
     <use xlink:href="#DejaVuSans-54"/>
     <use x="61.083984" xlink:href="#DejaVuSans-50"/>
     <use x="121.386719" xlink:href="#DejaVuSans-45"/>
    </g>
   </g>
   <g id="text_14">
    <!-- RS -->
    <defs>
     <path d="M 44.390625 34.1875 
Q 47.5625 33.109375 50.5625 29.59375 
Q 53.5625 26.078125 56.59375 19.921875 
L 66.609375 0 
L 56 0 
L 46.6875 18.703125 
Q 43.0625 26.03125 39.671875 28.421875 
Q 36.28125 30.8125 30.421875 30.8125 
L 19.671875 30.8125 
L 19.671875 0 
L 9.8125 0 
L 9.8125 72.90625 
L 32.078125 72.90625 
Q 44.578125 72.90625 50.734375 67.671875 
Q 56.890625 62.453125 56.890625 51.90625 
Q 56.890625 45.015625 53.6875 40.46875 
Q 50.484375 35.9375 44.390625 34.1875 
z
M 19.671875 64.796875 
L 19.671875 38.921875 
L 32.078125 38.921875 
Q 39.203125 38.921875 42.84375 42.21875 
Q 46.484375 45.515625 46.484375 51.90625 
Q 46.484375 58.296875 42.84375 61.546875 
Q 39.203125 64.796875 32.078125 64.796875 
z
" id="DejaVuSans-52"/>
     <path d="M 53.515625 70.515625 
L 53.515625 60.890625 
Q 47.90625 63.578125 42.921875 64.890625 
Q 37.9375 66.21875 33.296875 66.21875 
Q 25.25 66.21875 20.875 63.09375 
Q 16.5 59.96875 16.5 54.203125 
Q 16.5 49.359375 19.40625 46.890625 
Q 22.3125 44.4375 30.421875 42.921875 
L 36.375 41.703125 
Q 47.40625 39.59375 52.65625 34.296875 
Q 57.90625 29 57.90625 20.125 
Q 57.90625 9.515625 50.796875 4.046875 
Q 43.703125 -1.421875 29.984375 -1.421875 
Q 24.8125 -1.421875 18.96875 -0.25 
Q 13.140625 0.921875 6.890625 3.21875 
L 6.890625 13.375 
Q 12.890625 10.015625 18.65625 8.296875 
Q 24.421875 6.59375 29.984375 6.59375 
Q 38.421875 6.59375 43.015625 9.90625 
Q 47.609375 13.234375 47.609375 19.390625 
Q 47.609375 24.75 44.3125 27.78125 
Q 41.015625 30.8125 33.5 32.328125 
L 27.484375 33.5 
Q 16.453125 35.6875 11.515625 40.375 
Q 6.59375 45.0625 6.59375 53.421875 
Q 6.59375 63.09375 13.40625 68.65625 
Q 20.21875 74.21875 32.171875 74.21875 
Q 37.3125 74.21875 42.625 73.28125 
Q 47.953125 72.359375 53.515625 70.515625 
z
" id="DejaVuSans-53"/>
    </defs>
    <g transform="translate(369.18424 208.666383)scale(0.17 -0.17)">
     <use xlink:href="#DejaVuSans-52"/>
     <use x="69.482422" xlink:href="#DejaVuSans-53"/>
    </g>
   </g>
   <g id="text_15">
    <!-- CMA-ES -->
    <defs>
     <path d="M 64.40625 67.28125 
L 64.40625 56.890625 
Q 59.421875 61.53125 53.78125 63.8125 
Q 48.140625 66.109375 41.796875 66.109375 
Q 29.296875 66.109375 22.65625 58.46875 
Q 16.015625 50.828125 16.015625 36.375 
Q 16.015625 21.96875 22.65625 14.328125 
Q 29.296875 6.6875 41.796875 6.6875 
Q 48.140625 6.6875 53.78125 8.984375 
Q 59.421875 11.28125 64.40625 15.921875 
L 64.40625 5.609375 
Q 59.234375 2.09375 53.4375 0.328125 
Q 47.65625 -1.421875 41.21875 -1.421875 
Q 24.65625 -1.421875 15.125 8.703125 
Q 5.609375 18.84375 5.609375 36.375 
Q 5.609375 53.953125 15.125 64.078125 
Q 24.65625 74.21875 41.21875 74.21875 
Q 47.75 74.21875 53.53125 72.484375 
Q 59.328125 70.75 64.40625 67.28125 
z
" id="DejaVuSans-43"/>
     <path d="M 9.8125 72.90625 
L 24.515625 72.90625 
L 43.109375 23.296875 
L 61.8125 72.90625 
L 76.515625 72.90625 
L 76.515625 0 
L 66.890625 0 
L 66.890625 64.015625 
L 48.09375 14.015625 
L 38.1875 14.015625 
L 19.390625 64.015625 
L 19.390625 0 
L 9.8125 0 
z
" id="DejaVuSans-4d"/>
     <path d="M 34.1875 63.1875 
L 20.796875 26.90625 
L 47.609375 26.90625 
z
M 28.609375 72.90625 
L 39.796875 72.90625 
L 67.578125 0 
L 57.328125 0 
L 50.6875 18.703125 
L 17.828125 18.703125 
L 11.1875 0 
L 0.78125 0 
z
" id="DejaVuSans-41"/>
    </defs>
    <g transform="translate(369.18424 123.109155)scale(0.17 -0.17)">
     <use xlink:href="#DejaVuSans-43"/>
     <use x="69.824219" xlink:href="#DejaVuSans-4d"/>
     <use x="156.103516" xlink:href="#DejaVuSans-41"/>
     <use x="224.480469" xlink:href="#DejaVuSans-2d"/>
     <use x="260.564453" xlink:href="#DejaVuSans-45"/>
     <use x="323.748047" xlink:href="#DejaVuSans-53"/>
    </g>
   </g>
   <g id="text_16">
    <!-- DE -->
    <defs>
     <path d="M 19.671875 64.796875 
L 19.671875 8.109375 
L 31.59375 8.109375 
Q 46.6875 8.109375 53.6875 14.9375 
Q 60.6875 21.78125 60.6875 36.53125 
Q 60.6875 51.171875 53.6875 57.984375 
Q 46.6875 64.796875 31.59375 64.796875 
z
M 9.8125 72.90625 
L 30.078125 72.90625 
Q 51.265625 72.90625 61.171875 64.09375 
Q 71.09375 55.28125 71.09375 36.53125 
Q 71.09375 17.671875 61.125 8.828125 
Q 51.171875 0 30.078125 0 
L 9.8125 0 
z
" id="DejaVuSans-44"/>
    </defs>
    <g transform="translate(369.18424 37.551928)scale(0.17 -0.17)">
     <use xlink:href="#DejaVuSans-44"/>
     <use x="77.001953" xlink:href="#DejaVuSans-45"/>
    </g>
   </g>
   <g id="text_17">
    <!-- bbob-mixint f6, 5-D -->
    <defs>
     <path d="M 48.6875 27.296875 
Q 48.6875 37.203125 44.609375 42.84375 
Q 40.53125 48.484375 33.40625 48.484375 
Q 26.265625 48.484375 22.1875 42.84375 
Q 18.109375 37.203125 18.109375 27.296875 
Q 18.109375 17.390625 22.1875 11.75 
Q 26.265625 6.109375 33.40625 6.109375 
Q 40.53125 6.109375 44.609375 11.75 
Q 48.6875 17.390625 48.6875 27.296875 
z
M 18.109375 46.390625 
Q 20.953125 51.265625 25.265625 53.625 
Q 29.59375 56 35.59375 56 
Q 45.5625 56 51.78125 48.09375 
Q 58.015625 40.1875 58.015625 27.296875 
Q 58.015625 14.40625 51.78125 6.484375 
Q 45.5625 -1.421875 35.59375 -1.421875 
Q 29.59375 -1.421875 25.265625 0.953125 
Q 20.953125 3.328125 18.109375 8.203125 
L 18.109375 0 
L 9.078125 0 
L 9.078125 75.984375 
L 18.109375 75.984375 
z
" id="DejaVuSans-62"/>
     <path d="M 54.890625 54.6875 
L 35.109375 28.078125 
L 55.90625 0 
L 45.3125 0 
L 29.390625 21.484375 
L 13.484375 0 
L 2.875 0 
L 24.125 28.609375 
L 4.6875 54.6875 
L 15.28125 54.6875 
L 29.78125 35.203125 
L 44.28125 54.6875 
z
" id="DejaVuSans-78"/>
     <path d="M 10.796875 72.90625 
L 49.515625 72.90625 
L 49.515625 64.59375 
L 19.828125 64.59375 
L 19.828125 46.734375 
Q 21.96875 47.46875 24.109375 47.828125 
Q 26.265625 48.1875 28.421875 48.1875 
Q 40.625 48.1875 47.75 41.5 
Q 54.890625 34.8125 54.890625 23.390625 
Q 54.890625 11.625 47.5625 5.09375 
Q 40.234375 -1.421875 26.90625 -1.421875 
Q 22.3125 -1.421875 17.546875 -0.640625 
Q 12.796875 0.140625 7.71875 1.703125 
L 7.71875 11.625 
Q 12.109375 9.234375 16.796875 8.0625 
Q 21.484375 6.890625 26.703125 6.890625 
Q 35.15625 6.890625 40.078125 11.328125 
Q 45.015625 15.765625 45.015625 23.390625 
Q 45.015625 31 40.078125 35.4375 
Q 35.15625 39.890625 26.703125 39.890625 
Q 22.75 39.890625 18.8125 39.015625 
Q 14.890625 38.140625 10.796875 36.28125 
z
" id="DejaVuSans-35"/>
    </defs>
    <g transform="translate(58.89048 35.290806)scale(0.102 -0.102)">
     <use xlink:href="#DejaVuSans-62"/>
     <use x="63.476562" xlink:href="#DejaVuSans-62"/>
     <use x="126.953125" xlink:href="#DejaVuSans-6f"/>
     <use x="188.134766" xlink:href="#DejaVuSans-62"/>
     <use x="251.611328" xlink:href="#DejaVuSans-2d"/>
     <use x="287.695312" xlink:href="#DejaVuSans-6d"/>
     <use x="385.107422" xlink:href="#DejaVuSans-69"/>
     <use x="412.890625" xlink:href="#DejaVuSans-78"/>
     <use x="472.070312" xlink:href="#DejaVuSans-69"/>
     <use x="499.853516" xlink:href="#DejaVuSans-6e"/>
     <use x="563.232422" xlink:href="#DejaVuSans-74"/>
     <use x="602.441406" xlink:href="#DejaVuSans-20"/>
     <use x="634.228516" xlink:href="#DejaVuSans-66"/>
     <use x="669.433594" xlink:href="#DejaVuSans-36"/>
     <use x="733.056641" xlink:href="#DejaVuSans-2c"/>
     <use x="764.84375" xlink:href="#DejaVuSans-20"/>
     <use x="796.630859" xlink:href="#DejaVuSans-35"/>
     <use x="860.253906" xlink:href="#DejaVuSans-2d"/>
     <use x="896.337891" xlink:href="#DejaVuSans-44"/>
    </g>
    <!-- 51 targets: 100..1e-08 -->
    <defs>
     <path d="M 11.71875 12.40625 
L 22.015625 12.40625 
L 22.015625 0 
L 11.71875 0 
z
M 11.71875 51.703125 
L 22.015625 51.703125 
L 22.015625 39.3125 
L 11.71875 39.3125 
z
" id="DejaVuSans-3a"/>
    </defs>
    <g transform="translate(58.89048 46.712575)scale(0.102 -0.102)">
     <use xlink:href="#DejaVuSans-35"/>
     <use x="63.623047" xlink:href="#DejaVuSans-31"/>
     <use x="127.246094" xlink:href="#DejaVuSans-20"/>
     <use x="159.033203" xlink:href="#DejaVuSans-74"/>
     <use x="198.242188" xlink:href="#DejaVuSans-61"/>
     <use x="259.521484" xlink:href="#DejaVuSans-72"/>
     <use x="300.619141" xlink:href="#DejaVuSans-67"/>
     <use x="364.095703" xlink:href="#DejaVuSans-65"/>
     <use x="425.619141" xlink:href="#DejaVuSans-74"/>
     <use x="464.828125" xlink:href="#DejaVuSans-73"/>
     <use x="516.927734" xlink:href="#DejaVuSans-3a"/>
     <use x="550.619141" xlink:href="#DejaVuSans-20"/>
     <use x="582.40625" xlink:href="#DejaVuSans-31"/>
     <use x="646.029297" xlink:href="#DejaVuSans-30"/>
     <use x="709.652344" xlink:href="#DejaVuSans-30"/>
     <use x="773.275391" xlink:href="#DejaVuSans-2e"/>
     <use x="805.0625" xlink:href="#DejaVuSans-2e"/>
     <use x="836.849609" xlink:href="#DejaVuSans-31"/>
     <use x="900.472656" xlink:href="#DejaVuSans-65"/>
     <use x="961.996094" xlink:href="#DejaVuSans-2d"/>
     <use x="998.080078" xlink:href="#DejaVuSans-30"/>
     <use x="1061.703125" xlink:href="#DejaVuSans-38"/>
    </g>
    <!-- 15 instances -->
    <g transform="translate(58.89048 58.134344)scale(0.102 -0.102)">
     <use xlink:href="#DejaVuSans-31"/>
     <use x="63.623047" xlink:href="#DejaVuSans-35"/>
     <use x="127.246094" xlink:href="#DejaVuSans-20"/>
     <use x="159.033203" xlink:href="#DejaVuSans-69"/>
     <use x="186.816406" xlink:href="#DejaVuSans-6e"/>
     <use x="250.195312" xlink:href="#DejaVuSans-73"/>
     <use x="302.294922" xlink:href="#DejaVuSans-74"/>
     <use x="341.503906" xlink:href="#DejaVuSans-61"/>
     <use x="402.783203" xlink:href="#DejaVuSans-6e"/>
     <use x="466.162109" xlink:href="#DejaVuSans-63"/>
     <use x="521.142578" xlink:href="#DejaVuSans-65"/>
     <use x="582.666016" xlink:href="#DejaVuSans-73"/>
    </g>
   </g>
   <g id="text_18">
    <!-- v2.2.2.645 -->
    <g style="fill:#808080;" transform="translate(167.829937 290.099912)scale(0.1 -0.1)">
     <use xlink:href="#DejaVuSans-76"/>
     <use x="59.179688" xlink:href="#DejaVuSans-32"/>
     <use x="122.802734" xlink:href="#DejaVuSans-2e"/>
     <use x="154.589844" xlink:href="#DejaVuSans-32"/>
     <use x="218.212891" xlink:href="#DejaVuSans-2e"/>
     <use x="250" xlink:href="#DejaVuSans-32"/>
     <use x="313.623047" xlink:href="#DejaVuSans-2e"/>
     <use x="345.410156" xlink:href="#DejaVuSans-36"/>
     <use x="409.033203" xlink:href="#DejaVuSans-34"/>
     <use x="472.65625" xlink:href="#DejaVuSans-35"/>
    </g>
   </g>
   <g id="text_19">
    <!-- 6 Attractive sector -->
    <g transform="translate(101.726812 18.84)scale(0.2 -0.2)">
     <use xlink:href="#DejaVuSans-36"/>
     <use x="63.623047" xlink:href="#DejaVuSans-20"/>
     <use x="95.410156" xlink:href="#DejaVuSans-41"/>
     <use x="163.802734" xlink:href="#DejaVuSans-74"/>
     <use x="203.011719" xlink:href="#DejaVuSans-74"/>
     <use x="242.220703" xlink:href="#DejaVuSans-72"/>
     <use x="283.333984" xlink:href="#DejaVuSans-61"/>
     <use x="344.613281" xlink:href="#DejaVuSans-63"/>
     <use x="399.59375" xlink:href="#DejaVuSans-74"/>
     <use x="438.802734" xlink:href="#DejaVuSans-69"/>
     <use x="466.585938" xlink:href="#DejaVuSans-76"/>
     <use x="525.765625" xlink:href="#DejaVuSans-65"/>
     <use x="587.289062" xlink:href="#DejaVuSans-20"/>
     <use x="619.076172" xlink:href="#DejaVuSans-73"/>
     <use x="671.175781" xlink:href="#DejaVuSans-65"/>
     <use x="732.699219" xlink:href="#DejaVuSans-63"/>
     <use x="787.679688" xlink:href="#DejaVuSans-74"/>
     <use x="826.888672" xlink:href="#DejaVuSans-6f"/>
     <use x="888.070312" xlink:href="#DejaVuSans-72"/>
    </g>
   </g>
  </g>
 </g>
 <defs>
  <clipPath id="pee25c87fa4">
   <rect height="270.04" width="277.048" x="56.12" y="24.84"/>
  </clipPath>
 </defs>
</svg>
