<?xml version="1.0" encoding="utf-8" standalone="no"?>
<!DOCTYPE svg PUBLIC "-//W3C//DTD SVG 1.1//EN"
  "http://www.w3.org/Graphics/SVG/1.1/DTD/svg11.dtd">
<!-- Created with matplotlib (http://matplotlib.org/) -->
<svg height="345.6pt" version="1.1" viewBox="0 0 460.8 345.6" width="460.8pt" xmlns="http://www.w3.org/2000/svg" xmlns:xlink="http://www.w3.org/1999/xlink">
 <defs>
  <style type="text/css">
*{stroke-linecap:butt;stroke-linejoin:round;}
  </style>
 </defs>
 <g id="figure_1">
  <g id="patch_1">
   <path d="M 0 345.6 
L 460.8 345.6 
L 460.8 0 
L 0 0 
z
" style="fill:#ffffff;"/>
  </g>
  <g id="axes_1">
   <g id="patch_2">
    <path d="M 56.12 294.88 
L 333.168 294.88 
L 333.168 24.84 
L 56.12 24.84 
z
" style="fill:#ffffff;"/>
   </g>
   <g id="matplotlib.axis_1">
    <g id="xtick_1">
     <g id="line2d_1">
      <path clip-path="url(#pba87e976d7)" d="M 56.12 294.88 
L 56.12 24.84 
" style="fill:none;stroke:#b0b0b0;stroke-linecap:square;stroke-width:0.8;"/>
     </g>
     <g id="line2d_2">
      <defs>
       <path d="M 0 0 
L 0 3.5 
" id="m72a70b9372" style="stroke:#000000;stroke-width:0.8;"/>
      </defs>
      <g>
       <use style="stroke:#000000;stroke-width:0.8;" x="56.12" xlink:href="#m72a70b9372" y="294.88"/>
      </g>
     </g>
     <g id="text_1">
      <!-- 0 -->
      <defs>
       <path d="M 31.78125 66.40625 
Q 24.171875 66.40625 20.328125 58.90625 
Q 16.5 51.421875 16.5 36.375 
Q 16.5 21.390625 20.328125 13.890625 
Q 24.171875 6.390625 31.78125 6.390625 
Q 39.453125 6.390625 43.28125 13.890625 
Q 47.125 21.390625 47.125 36.375 
Q 47.125 51.421875 43.28125 58.90625 
Q 39.453125 66.40625 31.78125 66.40625 
z
M 31.78125 74.21875 
Q 44.046875 74.21875 50.515625 64.515625 
Q 56.984375 54.828125 56.984375 36.375 
Q 56.984375 17.96875 50.515625 8.265625 
Q 44.046875 -1.421875 31.78125 -1.421875 
Q 19.53125 -1.421875 13.0625 8.265625 
Q 6.59375 17.96875 6.59375 36.375 
Q 6.59375 54.828125 13.0625 64.515625 
Q 19.53125 74.21875 31.78125 74.21875 
z
" id="DejaVuSans-30"/>
      </defs>
      <g transform="translate(49.7575 317.076875)scale(0.2 -0.2)">
       <use xlink:href="#DejaVuSans-30"/>
      </g>
     </g>
    </g>
    <g id="xtick_2">
     <g id="line2d_3">
      <path clip-path="url(#pba87e976d7)" d="M 135.276571 294.88 
L 135.276571 24.84 
" style="fill:none;stroke:#b0b0b0;stroke-linecap:square;stroke-width:0.8;"/>
     </g>
     <g id="line2d_4">
      <g>
       <use style="stroke:#000000;stroke-width:0.8;" x="135.276571" xlink:href="#m72a70b9372" y="294.88"/>
      </g>
     </g>
     <g id="text_2">
      <!-- 2 -->
      <defs>
       <path d="M 19.1875 8.296875 
L 53.609375 8.296875 
L 53.609375 0 
L 7.328125 0 
L 7.328125 8.296875 
Q 12.9375 14.109375 22.625 23.890625 
Q 32.328125 33.6875 34.8125 36.53125 
Q 39.546875 41.84375 41.421875 45.53125 
Q 43.3125 49.21875 43.3125 52.78125 
Q 43.3125 58.59375 39.234375 62.25 
Q 35.15625 65.921875 28.609375 65.921875 
Q 23.96875 65.921875 18.8125 64.3125 
Q 13.671875 62.703125 7.8125 59.421875 
L 7.8125 69.390625 
Q 13.765625 71.78125 18.9375 73 
Q 24.125 74.21875 28.421875 74.21875 
Q 39.75 74.21875 46.484375 68.546875 
Q 53.21875 62.890625 53.21875 53.421875 
Q 53.21875 48.921875 51.53125 44.890625 
Q 49.859375 40.875 45.40625 35.40625 
Q 44.1875 33.984375 37.640625 27.21875 
Q 31.109375 20.453125 19.1875 8.296875 
z
" id="DejaVuSans-32"/>
      </defs>
      <g transform="translate(128.914071 317.076875)scale(0.2 -0.2)">
       <use xlink:href="#DejaVuSans-32"/>
      </g>
     </g>
    </g>
    <g id="xtick_3">
     <g id="line2d_5">
      <path clip-path="url(#pba87e976d7)" d="M 214.433143 294.88 
L 214.433143 24.84 
" style="fill:none;stroke:#b0b0b0;stroke-linecap:square;stroke-width:0.8;"/>
     </g>
     <g id="line2d_6">
      <g>
       <use style="stroke:#000000;stroke-width:0.8;" x="214.433143" xlink:href="#m72a70b9372" y="294.88"/>
      </g>
     </g>
     <g id="text_3">
      <!-- 4 -->
      <defs>
       <path d="M 37.796875 64.3125 
L 12.890625 25.390625 
L 37.796875 25.390625 
z
M 35.203125 72.90625 
L 47.609375 72.90625 
L 47.609375 25.390625 
L 58.015625 25.390625 
L 58.015625 17.1875 
L 47.609375 17.1875 
L 47.609375 0 
L 37.796875 0 
L 37.796875 17.1875 
L 4.890625 17.1875 
L 4.890625 26.703125 
z
" id="DejaVuSans-34"/>
      </defs>
      <g transform="translate(208.070643 317.076875)scale(0.2 -0.2)">
       <use xlink:href="#DejaVuSans-34"/>
      </g>
     </g>
    </g>
    <g id="xtick_4">
     <g id="line2d_7">
      <path clip-path="url(#pba87e976d7)" d="M 293.589714 294.88 
L 293.589714 24.84 
" style="fill:none;stroke:#b0b0b0;stroke-linecap:square;stroke-width:0.8;"/>
     </g>
     <g id="line2d_8">
      <g>
       <use style="stroke:#000000;stroke-width:0.8;" x="293.589714" xlink:href="#m72a70b9372" y="294.88"/>
      </g>
     </g>
     <g id="text_4">
      <!-- 6 -->
      <defs>
       <path d="M 33.015625 40.375 
Q 26.375 40.375 22.484375 35.828125 
Q 18.609375 31.296875 18.609375 23.390625 
Q 18.609375 15.53125 22.484375 10.953125 
Q 26.375 6.390625 33.015625 6.390625 
Q 39.65625 6.390625 43.53125 10.953125 
Q 47.40625 15.53125 47.40625 23.390625 
Q 47.40625 31.296875 43.53125 35.828125 
Q 39.65625 40.375 33.015625 40.375 
z
M 52.59375 71.296875 
L 52.59375 62.3125 
Q 48.875 64.0625 45.09375 64.984375 
Q 41.3125 65.921875 37.59375 65.921875 
Q 27.828125 65.921875 22.671875 59.328125 
Q 17.53125 52.734375 16.796875 39.40625 
Q 19.671875 43.65625 24.015625 45.921875 
Q 28.375 48.1875 33.59375 48.1875 
Q 44.578125 48.1875 50.953125 41.515625 
Q 57.328125 34.859375 57.328125 23.390625 
Q 57.328125 12.15625 50.6875 5.359375 
Q 44.046875 -1.421875 33.015625 -1.421875 
Q 20.359375 -1.421875 13.671875 8.265625 
Q 6.984375 17.96875 6.984375 36.375 
Q 6.984375 53.65625 15.1875 63.9375 
Q 23.390625 74.21875 37.203125 74.21875 
Q 40.921875 74.21875 44.703125 73.484375 
Q 48.484375 72.75 52.59375 71.296875 
z
" id="DejaVuSans-36"/>
      </defs>
      <g transform="translate(287.227214 317.076875)scale(0.2 -0.2)">
       <use xlink:href="#DejaVuSans-36"/>
      </g>
     </g>
    </g>
    <g id="xtick_5">
     <g id="line2d_9">
      <path clip-path="url(#pba87e976d7)" d="M 56.12 294.88 
L 56.12 24.84 
" style="fill:none;stroke:#b0b0b0;stroke-linecap:square;stroke-width:0.8;"/>
     </g>
     <g id="line2d_10">
      <defs>
       <path d="M 0 0 
L 0 2 
" id="mf70de5d8ba" style="stroke:#000000;stroke-width:0.6;"/>
      </defs>
      <g>
       <use style="stroke:#000000;stroke-width:0.6;" x="56.12" xlink:href="#mf70de5d8ba" y="294.88"/>
      </g>
     </g>
    </g>
    <g id="xtick_6">
     <g id="line2d_11">
      <path clip-path="url(#pba87e976d7)" d="M 95.698286 294.88 
L 95.698286 24.84 
" style="fill:none;stroke:#b0b0b0;stroke-linecap:square;stroke-width:0.8;"/>
     </g>
     <g id="line2d_12">
      <g>
       <use style="stroke:#000000;stroke-width:0.6;" x="95.698286" xlink:href="#mf70de5d8ba" y="294.88"/>
      </g>
     </g>
    </g>
    <g id="xtick_7">
     <g id="line2d_13">
      <path clip-path="url(#pba87e976d7)" d="M 135.276571 294.88 
L 135.276571 24.84 
" style="fill:none;stroke:#b0b0b0;stroke-linecap:square;stroke-width:0.8;"/>
     </g>
     <g id="line2d_14">
      <g>
       <use style="stroke:#000000;stroke-width:0.6;" x="135.276571" xlink:href="#mf70de5d8ba" y="294.88"/>
      </g>
     </g>
    </g>
    <g id="xtick_8">
     <g id="line2d_15">
      <path clip-path="url(#pba87e976d7)" d="M 174.854857 294.88 
L 174.854857 24.84 
" style="fill:none;stroke:#b0b0b0;stroke-linecap:square;stroke-width:0.8;"/>
     </g>
     <g id="line2d_16">
      <g>
       <use style="stroke:#000000;stroke-width:0.6;" x="174.854857" xlink:href="#mf70de5d8ba" y="294.88"/>
      </g>
     </g>
    </g>
    <g id="xtick_9">
     <g id="line2d_17">
      <path clip-path="url(#pba87e976d7)" d="M 214.433143 294.88 
L 214.433143 24.84 
" style="fill:none;stroke:#b0b0b0;stroke-linecap:square;stroke-width:0.8;"/>
     </g>
     <g id="line2d_18">
      <g>
       <use style="stroke:#000000;stroke-width:0.6;" x="214.433143" xlink:href="#mf70de5d8ba" y="294.88"/>
      </g>
     </g>
    </g>
    <g id="xtick_10">
     <g id="line2d_19">
      <path clip-path="url(#pba87e976d7)" d="M 254.011429 294.88 
L 254.011429 24.84 
" style="fill:none;stroke:#b0b0b0;stroke-linecap:square;stroke-width:0.8;"/>
     </g>
     <g id="line2d_20">
      <g>
       <use style="stroke:#000000;stroke-width:0.6;" x="254.011429" xlink:href="#mf70de5d8ba" y="294.88"/>
      </g>
     </g>
    </g>
    <g id="xtick_11">
     <g id="line2d_21">
      <path clip-path="url(#pba87e976d7)" d="M 293.589714 294.88 
L 293.589714 24.84 
" style="fill:none;stroke:#b0b0b0;stroke-linecap:square;stroke-width:0.8;"/>
     </g>
     <g id="line2d_22">
      <g>
       <use style="stroke:#000000;stroke-width:0.6;" x="293.589714" xlink:href="#mf70de5d8ba" y="294.88"/>
      </g>
     </g>
    </g>
    <g id="xtick_12">
     <g id="line2d_23">
      <path clip-path="url(#pba87e976d7)" d="M 333.168 294.88 
L 333.168 24.84 
" style="fill:none;stroke:#b0b0b0;stroke-linecap:square;stroke-width:0.8;"/>
     </g>
     <g id="line2d_24">
      <g>
       <use style="stroke:#000000;stroke-width:0.6;" x="333.168" xlink:href="#mf70de5d8ba" y="294.88"/>
      </g>
     </g>
    </g>
    <g id="text_5">
     <!-- log10(# f-evals / dimension) -->
     <defs>
      <path d="M 9.421875 75.984375 
L 18.40625 75.984375 
L 18.40625 0 
L 9.421875 0 
z
" id="DejaVuSans-6c"/>
      <path d="M 30.609375 48.390625 
Q 23.390625 48.390625 19.1875 42.75 
Q 14.984375 37.109375 14.984375 27.296875 
Q 14.984375 17.484375 19.15625 11.84375 
Q 23.34375 6.203125 30.609375 6.203125 
Q 37.796875 6.203125 41.984375 11.859375 
Q 46.1875 17.53125 46.1875 27.296875 
Q 46.1875 37.015625 41.984375 42.703125 
Q 37.796875 48.390625 30.609375 48.390625 
z
M 30.609375 56 
Q 42.328125 56 49.015625 48.375 
Q 55.71875 40.765625 55.71875 27.296875 
Q 55.71875 13.875 49.015625 6.21875 
Q 42.328125 -1.421875 30.609375 -1.421875 
Q 18.84375 -1.421875 12.171875 6.21875 
Q 5.515625 13.875 5.515625 27.296875 
Q 5.515625 40.765625 12.171875 48.375 
Q 18.84375 56 30.609375 56 
z
" id="DejaVuSans-6f"/>
      <path d="M 45.40625 27.984375 
Q 45.40625 37.75 41.375 43.109375 
Q 37.359375 48.484375 30.078125 48.484375 
Q 22.859375 48.484375 18.828125 43.109375 
Q 14.796875 37.75 14.796875 27.984375 
Q 14.796875 18.265625 18.828125 12.890625 
Q 22.859375 7.515625 30.078125 7.515625 
Q 37.359375 7.515625 41.375 12.890625 
Q 45.40625 18.265625 45.40625 27.984375 
z
M 54.390625 6.78125 
Q 54.390625 -7.171875 48.1875 -13.984375 
Q 42 -20.796875 29.203125 -20.796875 
Q 24.46875 -20.796875 20.265625 -20.09375 
Q 16.0625 -19.390625 12.109375 -17.921875 
L 12.109375 -9.1875 
Q 16.0625 -11.328125 19.921875 -12.34375 
Q 23.78125 -13.375 27.78125 -13.375 
Q 36.625 -13.375 41.015625 -8.765625 
Q 45.40625 -4.15625 45.40625 5.171875 
L 45.40625 9.625 
Q 42.625 4.78125 38.28125 2.390625 
Q 33.9375 0 27.875 0 
Q 17.828125 0 11.671875 7.65625 
Q 5.515625 15.328125 5.515625 27.984375 
Q 5.515625 40.671875 11.671875 48.328125 
Q 17.828125 56 27.875 56 
Q 33.9375 56 38.28125 53.609375 
Q 42.625 51.21875 45.40625 46.390625 
L 45.40625 54.6875 
L 54.390625 54.6875 
z
" id="DejaVuSans-67"/>
      <path d="M 12.40625 8.296875 
L 28.515625 8.296875 
L 28.515625 63.921875 
L 10.984375 60.40625 
L 10.984375 69.390625 
L 28.421875 72.90625 
L 38.28125 72.90625 
L 38.28125 8.296875 
L 54.390625 8.296875 
L 54.390625 0 
L 12.40625 0 
z
" id="DejaVuSans-31"/>
      <path d="M 31 75.875 
Q 24.46875 64.65625 21.28125 53.65625 
Q 18.109375 42.671875 18.109375 31.390625 
Q 18.109375 20.125 21.3125 9.0625 
Q 24.515625 -2 31 -13.1875 
L 23.1875 -13.1875 
Q 15.875 -1.703125 12.234375 9.375 
Q 8.59375 20.453125 8.59375 31.390625 
Q 8.59375 42.28125 12.203125 53.3125 
Q 15.828125 64.359375 23.1875 75.875 
z
" id="DejaVuSans-28"/>
      <path d="M 51.125 44 
L 36.921875 44 
L 32.8125 27.6875 
L 47.125 27.6875 
z
M 43.796875 71.78125 
L 38.71875 51.515625 
L 52.984375 51.515625 
L 58.109375 71.78125 
L 65.921875 71.78125 
L 60.890625 51.515625 
L 76.125 51.515625 
L 76.125 44 
L 58.984375 44 
L 54.984375 27.6875 
L 70.515625 27.6875 
L 70.515625 20.21875 
L 53.078125 20.21875 
L 48 0 
L 40.1875 0 
L 45.21875 20.21875 
L 30.90625 20.21875 
L 25.875 0 
L 18.015625 0 
L 23.09375 20.21875 
L 7.71875 20.21875 
L 7.71875 27.6875 
L 24.90625 27.6875 
L 29 44 
L 13.28125 44 
L 13.28125 51.515625 
L 30.90625 51.515625 
L 35.890625 71.78125 
z
" id="DejaVuSans-23"/>
      <path id="DejaVuSans-20"/>
      <path d="M 37.109375 75.984375 
L 37.109375 68.5 
L 28.515625 68.5 
Q 23.6875 68.5 21.796875 66.546875 
Q 19.921875 64.59375 19.921875 59.515625 
L 19.921875 54.6875 
L 34.71875 54.6875 
L 34.71875 47.703125 
L 19.921875 47.703125 
L 19.921875 0 
L 10.890625 0 
L 10.890625 47.703125 
L 2.296875 47.703125 
L 2.296875 54.6875 
L 10.890625 54.6875 
L 10.890625 58.5 
Q 10.890625 67.625 15.140625 71.796875 
Q 19.390625 75.984375 28.609375 75.984375 
z
" id="DejaVuSans-66"/>
      <path d="M 4.890625 31.390625 
L 31.203125 31.390625 
L 31.203125 23.390625 
L 4.890625 23.390625 
z
" id="DejaVuSans-2d"/>
      <path d="M 56.203125 29.59375 
L 56.203125 25.203125 
L 14.890625 25.203125 
Q 15.484375 15.921875 20.484375 11.0625 
Q 25.484375 6.203125 34.421875 6.203125 
Q 39.59375 6.203125 44.453125 7.46875 
Q 49.3125 8.734375 54.109375 11.28125 
L 54.109375 2.78125 
Q 49.265625 0.734375 44.1875 -0.34375 
Q 39.109375 -1.421875 33.890625 -1.421875 
Q 20.796875 -1.421875 13.15625 6.1875 
Q 5.515625 13.8125 5.515625 26.8125 
Q 5.515625 40.234375 12.765625 48.109375 
Q 20.015625 56 32.328125 56 
Q 43.359375 56 49.78125 48.890625 
Q 56.203125 41.796875 56.203125 29.59375 
z
M 47.21875 32.234375 
Q 47.125 39.59375 43.09375 43.984375 
Q 39.0625 48.390625 32.421875 48.390625 
Q 24.90625 48.390625 20.390625 44.140625 
Q 15.875 39.890625 15.1875 32.171875 
z
" id="DejaVuSans-65"/>
      <path d="M 2.984375 54.6875 
L 12.5 54.6875 
L 29.59375 8.796875 
L 46.6875 54.6875 
L 56.203125 54.6875 
L 35.6875 0 
L 23.484375 0 
z
" id="DejaVuSans-76"/>
      <path d="M 34.28125 27.484375 
Q 23.390625 27.484375 19.1875 25 
Q 14.984375 22.515625 14.984375 16.5 
Q 14.984375 11.71875 18.140625 8.90625 
Q 21.296875 6.109375 26.703125 6.109375 
Q 34.1875 6.109375 38.703125 11.40625 
Q 43.21875 16.703125 43.21875 25.484375 
L 43.21875 27.484375 
z
M 52.203125 31.203125 
L 52.203125 0 
L 43.21875 0 
L 43.21875 8.296875 
Q 40.140625 3.328125 35.546875 0.953125 
Q 30.953125 -1.421875 24.3125 -1.421875 
Q 15.921875 -1.421875 10.953125 3.296875 
Q 6 8.015625 6 15.921875 
Q 6 25.140625 12.171875 29.828125 
Q 18.359375 34.515625 30.609375 34.515625 
L 43.21875 34.515625 
L 43.21875 35.40625 
Q 43.21875 41.609375 39.140625 45 
Q 35.0625 48.390625 27.6875 48.390625 
Q 23 48.390625 18.546875 47.265625 
Q 14.109375 46.140625 10.015625 43.890625 
L 10.015625 52.203125 
Q 14.9375 54.109375 19.578125 55.046875 
Q 24.21875 56 28.609375 56 
Q 40.484375 56 46.34375 49.84375 
Q 52.203125 43.703125 52.203125 31.203125 
z
" id="DejaVuSans-61"/>
      <path d="M 44.28125 53.078125 
L 44.28125 44.578125 
Q 40.484375 46.53125 36.375 47.5 
Q 32.28125 48.484375 27.875 48.484375 
Q 21.1875 48.484375 17.84375 46.4375 
Q 14.5 44.390625 14.5 40.28125 
Q 14.5 37.15625 16.890625 35.375 
Q 19.28125 33.59375 26.515625 31.984375 
L 29.59375 31.296875 
Q 39.15625 29.25 43.1875 25.515625 
Q 47.21875 21.78125 47.21875 15.09375 
Q 47.21875 7.46875 41.1875 3.015625 
Q 35.15625 -1.421875 24.609375 -1.421875 
Q 20.21875 -1.421875 15.453125 -0.5625 
Q 10.6875 0.296875 5.421875 2 
L 5.421875 11.28125 
Q 10.40625 8.6875 15.234375 7.390625 
Q 20.0625 6.109375 24.8125 6.109375 
Q 31.15625 6.109375 34.5625 8.28125 
Q 37.984375 10.453125 37.984375 14.40625 
Q 37.984375 18.0625 35.515625 20.015625 
Q 33.0625 21.96875 24.703125 23.78125 
L 21.578125 24.515625 
Q 13.234375 26.265625 9.515625 29.90625 
Q 5.8125 33.546875 5.8125 39.890625 
Q 5.8125 47.609375 11.28125 51.796875 
Q 16.75 56 26.8125 56 
Q 31.78125 56 36.171875 55.265625 
Q 40.578125 54.546875 44.28125 53.078125 
z
" id="DejaVuSans-73"/>
      <path d="M 25.390625 72.90625 
L 33.6875 72.90625 
L 8.296875 -9.28125 
L 0 -9.28125 
z
" id="DejaVuSans-2f"/>
      <path d="M 45.40625 46.390625 
L 45.40625 75.984375 
L 54.390625 75.984375 
L 54.390625 0 
L 45.40625 0 
L 45.40625 8.203125 
Q 42.578125 3.328125 38.25 0.953125 
Q 33.9375 -1.421875 27.875 -1.421875 
Q 17.96875 -1.421875 11.734375 6.484375 
Q 5.515625 14.40625 5.515625 27.296875 
Q 5.515625 40.1875 11.734375 48.09375 
Q 17.96875 56 27.875 56 
Q 33.9375 56 38.25 53.625 
Q 42.578125 51.265625 45.40625 46.390625 
z
M 14.796875 27.296875 
Q 14.796875 17.390625 18.875 11.75 
Q 22.953125 6.109375 30.078125 6.109375 
Q 37.203125 6.109375 41.296875 11.75 
Q 45.40625 17.390625 45.40625 27.296875 
Q 45.40625 37.203125 41.296875 42.84375 
Q 37.203125 48.484375 30.078125 48.484375 
Q 22.953125 48.484375 18.875 42.84375 
Q 14.796875 37.203125 14.796875 27.296875 
z
" id="DejaVuSans-64"/>
      <path d="M 9.421875 54.6875 
L 18.40625 54.6875 
L 18.40625 0 
L 9.421875 0 
z
M 9.421875 75.984375 
L 18.40625 75.984375 
L 18.40625 64.59375 
L 9.421875 64.59375 
z
" id="DejaVuSans-69"/>
      <path d="M 52 44.1875 
Q 55.375 50.25 60.0625 53.125 
Q 64.75 56 71.09375 56 
Q 79.640625 56 84.28125 50.015625 
Q 88.921875 44.046875 88.921875 33.015625 
L 88.921875 0 
L 79.890625 0 
L 79.890625 32.71875 
Q 79.890625 40.578125 77.09375 44.375 
Q 74.3125 48.1875 68.609375 48.1875 
Q 61.625 48.1875 57.5625 43.546875 
Q 53.515625 38.921875 53.515625 30.90625 
L 53.515625 0 
L 44.484375 0 
L 44.484375 32.71875 
Q 44.484375 40.625 41.703125 44.40625 
Q 38.921875 48.1875 33.109375 48.1875 
Q 26.21875 48.1875 22.15625 43.53125 
Q 18.109375 38.875 18.109375 30.90625 
L 18.109375 0 
L 9.078125 0 
L 9.078125 54.6875 
L 18.109375 54.6875 
L 18.109375 46.1875 
Q 21.1875 51.21875 25.484375 53.609375 
Q 29.78125 56 35.6875 56 
Q 41.65625 56 45.828125 52.96875 
Q 50 49.953125 52 44.1875 
z
" id="DejaVuSans-6d"/>
      <path d="M 54.890625 33.015625 
L 54.890625 0 
L 45.90625 0 
L 45.90625 32.71875 
Q 45.90625 40.484375 42.875 44.328125 
Q 39.84375 48.1875 33.796875 48.1875 
Q 26.515625 48.1875 22.3125 43.546875 
Q 18.109375 38.921875 18.109375 30.90625 
L 18.109375 0 
L 9.078125 0 
L 9.078125 54.6875 
L 18.109375 54.6875 
L 18.109375 46.1875 
Q 21.34375 51.125 25.703125 53.5625 
Q 30.078125 56 35.796875 56 
Q 45.21875 56 50.046875 50.171875 
Q 54.890625 44.34375 54.890625 33.015625 
z
" id="DejaVuSans-6e"/>
      <path d="M 8.015625 75.875 
L 15.828125 75.875 
Q 23.140625 64.359375 26.78125 53.3125 
Q 30.421875 42.28125 30.421875 31.390625 
Q 30.421875 20.453125 26.78125 9.375 
Q 23.140625 -1.703125 15.828125 -13.1875 
L 8.015625 -13.1875 
Q 14.5 -2 17.703125 9.0625 
Q 20.90625 20.125 20.90625 31.390625 
Q 20.90625 42.671875 17.703125 53.65625 
Q 14.5 64.65625 8.015625 75.875 
z
" id="DejaVuSans-29"/>
     </defs>
     <g transform="translate(73.803219 338.153594)scale(0.17 -0.17)">
      <use xlink:href="#DejaVuSans-6c"/>
      <use x="27.783203" xlink:href="#DejaVuSans-6f"/>
      <use x="88.964844" xlink:href="#DejaVuSans-67"/>
      <use x="152.441406" xlink:href="#DejaVuSans-31"/>
      <use x="216.064453" xlink:href="#DejaVuSans-30"/>
      <use x="279.6875" xlink:href="#DejaVuSans-28"/>
      <use x="318.701172" xlink:href="#DejaVuSans-23"/>
      <use x="402.490234" xlink:href="#DejaVuSans-20"/>
      <use x="434.277344" xlink:href="#DejaVuSans-66"/>
      <use x="469.404297" xlink:href="#DejaVuSans-2d"/>
      <use x="505.488281" xlink:href="#DejaVuSans-65"/>
      <use x="567.011719" xlink:href="#DejaVuSans-76"/>
      <use x="626.191406" xlink:href="#DejaVuSans-61"/>
      <use x="687.470703" xlink:href="#DejaVuSans-6c"/>
      <use x="715.253906" xlink:href="#DejaVuSans-73"/>
      <use x="767.353516" xlink:href="#DejaVuSans-20"/>
      <use x="799.140625" xlink:href="#DejaVuSans-2f"/>
      <use x="832.832031" xlink:href="#DejaVuSans-20"/>
      <use x="864.619141" xlink:href="#DejaVuSans-64"/>
      <use x="928.095703" xlink:href="#DejaVuSans-69"/>
      <use x="955.878906" xlink:href="#DejaVuSans-6d"/>
      <use x="1053.291016" xlink:href="#DejaVuSans-65"/>
      <use x="1114.814453" xlink:href="#DejaVuSans-6e"/>
      <use x="1178.193359" xlink:href="#DejaVuSans-73"/>
      <use x="1230.292969" xlink:href="#DejaVuSans-69"/>
      <use x="1258.076172" xlink:href="#DejaVuSans-6f"/>
      <use x="1319.257812" xlink:href="#DejaVuSans-6e"/>
      <use x="1382.636719" xlink:href="#DejaVuSans-29"/>
     </g>
    </g>
   </g>
   <g id="matplotlib.axis_2">
    <g id="ytick_1">
     <g id="line2d_25">
      <path clip-path="url(#pba87e976d7)" d="M 56.12 294.88 
L 333.168 294.88 
" style="fill:none;stroke:#b0b0b0;stroke-linecap:square;stroke-width:0.8;"/>
     </g>
     <g id="line2d_26">
      <defs>
       <path d="M 0 0 
L -3.5 0 
" id="ma388588a99" style="stroke:#000000;stroke-width:0.8;"/>
      </defs>
      <g>
       <use style="stroke:#000000;stroke-width:0.8;" x="56.12" xlink:href="#ma388588a99" y="294.88"/>
      </g>
     </g>
     <g id="text_6">
      <!-- 0.0 -->
      <defs>
       <path d="M 10.6875 12.40625 
L 21 12.40625 
L 21 0 
L 10.6875 0 
z
" id="DejaVuSans-2e"/>
      </defs>
      <g transform="translate(23.675 300.95875)scale(0.16 -0.16)">
       <use xlink:href="#DejaVuSans-30"/>
       <use x="63.623047" xlink:href="#DejaVuSans-2e"/>
       <use x="95.410156" xlink:href="#DejaVuSans-30"/>
      </g>
     </g>
    </g>
    <g id="ytick_2">
     <g id="line2d_27">
      <path clip-path="url(#pba87e976d7)" d="M 56.12 241.406733 
L 333.168 241.406733 
" style="fill:none;stroke:#b0b0b0;stroke-linecap:square;stroke-width:0.8;"/>
     </g>
     <g id="line2d_28">
      <g>
       <use style="stroke:#000000;stroke-width:0.8;" x="56.12" xlink:href="#ma388588a99" y="241.406733"/>
      </g>
     </g>
     <g id="text_7">
      <!-- 0.2 -->
      <g transform="translate(23.675 247.485483)scale(0.16 -0.16)">
       <use xlink:href="#DejaVuSans-30"/>
       <use x="63.623047" xlink:href="#DejaVuSans-2e"/>
       <use x="95.410156" xlink:href="#DejaVuSans-32"/>
      </g>
     </g>
    </g>
    <g id="ytick_3">
     <g id="line2d_29">
      <path clip-path="url(#pba87e976d7)" d="M 56.12 187.933465 
L 333.168 187.933465 
" style="fill:none;stroke:#b0b0b0;stroke-linecap:square;stroke-width:0.8;"/>
     </g>
     <g id="line2d_30">
      <g>
       <use style="stroke:#000000;stroke-width:0.8;" x="56.12" xlink:href="#ma388588a99" y="187.933465"/>
      </g>
     </g>
     <g id="text_8">
      <!-- 0.4 -->
      <g transform="translate(23.675 194.012215)scale(0.16 -0.16)">
       <use xlink:href="#DejaVuSans-30"/>
       <use x="63.623047" xlink:href="#DejaVuSans-2e"/>
       <use x="95.410156" xlink:href="#DejaVuSans-34"/>
      </g>
     </g>
    </g>
    <g id="ytick_4">
     <g id="line2d_31">
      <path clip-path="url(#pba87e976d7)" d="M 56.12 134.460198 
L 333.168 134.460198 
" style="fill:none;stroke:#b0b0b0;stroke-linecap:square;stroke-width:0.8;"/>
     </g>
     <g id="line2d_32">
      <g>
       <use style="stroke:#000000;stroke-width:0.8;" x="56.12" xlink:href="#ma388588a99" y="134.460198"/>
      </g>
     </g>
     <g id="text_9">
      <!-- 0.6 -->
      <g transform="translate(23.675 140.538948)scale(0.16 -0.16)">
       <use xlink:href="#DejaVuSans-30"/>
       <use x="63.623047" xlink:href="#DejaVuSans-2e"/>
       <use x="95.410156" xlink:href="#DejaVuSans-36"/>
      </g>
     </g>
    </g>
    <g id="ytick_5">
     <g id="line2d_33">
      <path clip-path="url(#pba87e976d7)" d="M 56.12 80.986931 
L 333.168 80.986931 
" style="fill:none;stroke:#b0b0b0;stroke-linecap:square;stroke-width:0.8;"/>
     </g>
     <g id="line2d_34">
      <g>
       <use style="stroke:#000000;stroke-width:0.8;" x="56.12" xlink:href="#ma388588a99" y="80.986931"/>
      </g>
     </g>
     <g id="text_10">
      <!-- 0.8 -->
      <defs>
       <path d="M 31.78125 34.625 
Q 24.75 34.625 20.71875 30.859375 
Q 16.703125 27.09375 16.703125 20.515625 
Q 16.703125 13.921875 20.71875 10.15625 
Q 24.75 6.390625 31.78125 6.390625 
Q 38.8125 6.390625 42.859375 10.171875 
Q 46.921875 13.96875 46.921875 20.515625 
Q 46.921875 27.09375 42.890625 30.859375 
Q 38.875 34.625 31.78125 34.625 
z
M 21.921875 38.8125 
Q 15.578125 40.375 12.03125 44.71875 
Q 8.5 49.078125 8.5 55.328125 
Q 8.5 64.0625 14.71875 69.140625 
Q 20.953125 74.21875 31.78125 74.21875 
Q 42.671875 74.21875 48.875 69.140625 
Q 55.078125 64.0625 55.078125 55.328125 
Q 55.078125 49.078125 51.53125 44.71875 
Q 48 40.375 41.703125 38.8125 
Q 48.828125 37.15625 52.796875 32.3125 
Q 56.78125 27.484375 56.78125 20.515625 
Q 56.78125 9.90625 50.3125 4.234375 
Q 43.84375 -1.421875 31.78125 -1.421875 
Q 19.734375 -1.421875 13.25 4.234375 
Q 6.78125 9.90625 6.78125 20.515625 
Q 6.78125 27.484375 10.78125 32.3125 
Q 14.796875 37.15625 21.921875 38.8125 
z
M 18.3125 54.390625 
Q 18.3125 48.734375 21.84375 45.5625 
Q 25.390625 42.390625 31.78125 42.390625 
Q 38.140625 42.390625 41.71875 45.5625 
Q 45.3125 48.734375 45.3125 54.390625 
Q 45.3125 60.0625 41.71875 63.234375 
Q 38.140625 66.40625 31.78125 66.40625 
Q 25.390625 66.40625 21.84375 63.234375 
Q 18.3125 60.0625 18.3125 54.390625 
z
" id="DejaVuSans-38"/>
      </defs>
      <g transform="translate(23.675 87.065681)scale(0.16 -0.16)">
       <use xlink:href="#DejaVuSans-30"/>
       <use x="63.623047" xlink:href="#DejaVuSans-2e"/>
       <use x="95.410156" xlink:href="#DejaVuSans-38"/>
      </g>
     </g>
    </g>
    <g id="ytick_6">
     <g id="line2d_35">
      <path clip-path="url(#pba87e976d7)" d="M 56.12 27.513663 
L 333.168 27.513663 
" style="fill:none;stroke:#b0b0b0;stroke-linecap:square;stroke-width:0.8;"/>
     </g>
     <g id="line2d_36">
      <g>
       <use style="stroke:#000000;stroke-width:0.8;" x="56.12" xlink:href="#ma388588a99" y="27.513663"/>
      </g>
     </g>
     <g id="text_11">
      <!-- 1.0 -->
      <g transform="translate(23.675 33.592413)scale(0.16 -0.16)">
       <use xlink:href="#DejaVuSans-31"/>
       <use x="63.623047" xlink:href="#DejaVuSans-2e"/>
       <use x="95.410156" xlink:href="#DejaVuSans-30"/>
      </g>
     </g>
    </g>
    <g id="text_12">
     <!-- Fraction of function,target pairs -->
     <defs>
      <path d="M 9.8125 72.90625 
L 51.703125 72.90625 
L 51.703125 64.59375 
L 19.671875 64.59375 
L 19.671875 43.109375 
L 48.578125 43.109375 
L 48.578125 34.8125 
L 19.671875 34.8125 
L 19.671875 0 
L 9.8125 0 
z
" id="DejaVuSans-46"/>
      <path d="M 41.109375 46.296875 
Q 39.59375 47.171875 37.8125 47.578125 
Q 36.03125 48 33.890625 48 
Q 26.265625 48 22.1875 43.046875 
Q 18.109375 38.09375 18.109375 28.8125 
L 18.109375 0 
L 9.078125 0 
L 9.078125 54.6875 
L 18.109375 54.6875 
L 18.109375 46.1875 
Q 20.953125 51.171875 25.484375 53.578125 
Q 30.03125 56 36.53125 56 
Q 37.453125 56 38.578125 55.875 
Q 39.703125 55.765625 41.0625 55.515625 
z
" id="DejaVuSans-72"/>
      <path d="M 48.78125 52.59375 
L 48.78125 44.1875 
Q 44.96875 46.296875 41.140625 47.34375 
Q 37.3125 48.390625 33.40625 48.390625 
Q 24.65625 48.390625 19.8125 42.84375 
Q 14.984375 37.3125 14.984375 27.296875 
Q 14.984375 17.28125 19.8125 11.734375 
Q 24.65625 6.203125 33.40625 6.203125 
Q 37.3125 6.203125 41.140625 7.25 
Q 44.96875 8.296875 48.78125 10.40625 
L 48.78125 2.09375 
Q 45.015625 0.34375 40.984375 -0.53125 
Q 36.96875 -1.421875 32.421875 -1.421875 
Q 20.0625 -1.421875 12.78125 6.34375 
Q 5.515625 14.109375 5.515625 27.296875 
Q 5.515625 40.671875 12.859375 48.328125 
Q 20.21875 56 33.015625 56 
Q 37.15625 56 41.109375 55.140625 
Q 45.0625 54.296875 48.78125 52.59375 
z
" id="DejaVuSans-63"/>
      <path d="M 18.3125 70.21875 
L 18.3125 54.6875 
L 36.8125 54.6875 
L 36.8125 47.703125 
L 18.3125 47.703125 
L 18.3125 18.015625 
Q 18.3125 11.328125 20.140625 9.421875 
Q 21.96875 7.515625 27.59375 7.515625 
L 36.8125 7.515625 
L 36.8125 0 
L 27.59375 0 
Q 17.1875 0 13.234375 3.875 
Q 9.28125 7.765625 9.28125 18.015625 
L 9.28125 47.703125 
L 2.6875 47.703125 
L 2.6875 54.6875 
L 9.28125 54.6875 
L 9.28125 70.21875 
z
" id="DejaVuSans-74"/>
      <path d="M 8.5 21.578125 
L 8.5 54.6875 
L 17.484375 54.6875 
L 17.484375 21.921875 
Q 17.484375 14.15625 20.5 10.265625 
Q 23.53125 6.390625 29.59375 6.390625 
Q 36.859375 6.390625 41.078125 11.03125 
Q 45.3125 15.671875 45.3125 23.6875 
L 45.3125 54.6875 
L 54.296875 54.6875 
L 54.296875 0 
L 45.3125 0 
L 45.3125 8.40625 
Q 42.046875 3.421875 37.71875 1 
Q 33.40625 -1.421875 27.6875 -1.421875 
Q 18.265625 -1.421875 13.375 4.4375 
Q 8.5 10.296875 8.5 21.578125 
z
M 31.109375 56 
z
" id="DejaVuSans-75"/>
      <path d="M 11.71875 12.40625 
L 22.015625 12.40625 
L 22.015625 4 
L 14.015625 -11.625 
L 7.71875 -11.625 
L 11.71875 4 
z
" id="DejaVuSans-2c"/>
      <path d="M 18.109375 8.203125 
L 18.109375 -20.796875 
L 9.078125 -20.796875 
L 9.078125 54.6875 
L 18.109375 54.6875 
L 18.109375 46.390625 
Q 20.953125 51.265625 25.265625 53.625 
Q 29.59375 56 35.59375 56 
Q 45.5625 56 51.78125 48.09375 
Q 58.015625 40.1875 58.015625 27.296875 
Q 58.015625 14.40625 51.78125 6.484375 
Q 45.5625 -1.421875 35.59375 -1.421875 
Q 29.59375 -1.421875 25.265625 0.953125 
Q 20.953125 3.328125 18.109375 8.203125 
z
M 48.6875 27.296875 
Q 48.6875 37.203125 44.609375 42.84375 
Q 40.53125 48.484375 33.40625 48.484375 
Q 26.265625 48.484375 22.1875 42.84375 
Q 18.109375 37.203125 18.109375 27.296875 
Q 18.109375 17.390625 22.1875 11.75 
Q 26.265625 6.109375 33.40625 6.109375 
Q 40.53125 6.109375 44.609375 11.75 
Q 48.6875 17.390625 48.6875 27.296875 
z
" id="DejaVuSans-70"/>
     </defs>
     <g transform="translate(16.139531 294.999375)rotate(-90)scale(0.17 -0.17)">
      <use xlink:href="#DejaVuSans-46"/>
      <use x="57.410156" xlink:href="#DejaVuSans-72"/>
      <use x="98.523438" xlink:href="#DejaVuSans-61"/>
      <use x="159.802734" xlink:href="#DejaVuSans-63"/>
      <use x="214.783203" xlink:href="#DejaVuSans-74"/>
      <use x="253.992188" xlink:href="#DejaVuSans-69"/>
      <use x="281.775391" xlink:href="#DejaVuSans-6f"/>
      <use x="342.957031" xlink:href="#DejaVuSans-6e"/>
      <use x="406.335938" xlink:href="#DejaVuSans-20"/>
      <use x="438.123047" xlink:href="#DejaVuSans-6f"/>
      <use x="499.304688" xlink:href="#DejaVuSans-66"/>
      <use x="534.509766" xlink:href="#DejaVuSans-20"/>
      <use x="566.296875" xlink:href="#DejaVuSans-66"/>
      <use x="601.501953" xlink:href="#DejaVuSans-75"/>
      <use x="664.880859" xlink:href="#DejaVuSans-6e"/>
      <use x="728.259766" xlink:href="#DejaVuSans-63"/>
      <use x="783.240234" xlink:href="#DejaVuSans-74"/>
      <use x="822.449219" xlink:href="#DejaVuSans-69"/>
      <use x="850.232422" xlink:href="#DejaVuSans-6f"/>
      <use x="911.414062" xlink:href="#DejaVuSans-6e"/>
      <use x="974.792969" xlink:href="#DejaVuSans-2c"/>
      <use x="1006.580078" xlink:href="#DejaVuSans-74"/>
      <use x="1045.789062" xlink:href="#DejaVuSans-61"/>
      <use x="1107.068359" xlink:href="#DejaVuSans-72"/>
      <use x="1148.166016" xlink:href="#DejaVuSans-67"/>
      <use x="1211.642578" xlink:href="#DejaVuSans-65"/>
      <use x="1273.166016" xlink:href="#DejaVuSans-74"/>
      <use x="1312.375" xlink:href="#DejaVuSans-20"/>
      <use x="1344.162109" xlink:href="#DejaVuSans-70"/>
      <use x="1407.638672" xlink:href="#DejaVuSans-61"/>
      <use x="1468.917969" xlink:href="#DejaVuSans-69"/>
      <use x="1496.701172" xlink:href="#DejaVuSans-72"/>
      <use x="1537.814453" xlink:href="#DejaVuSans-73"/>
     </g>
    </g>
   </g>
   <g id="line2d_37">
    <defs>
     <path d="M 0 1.5 
C 0.397805 1.5 0.77937 1.341951 1.06066 1.06066 
C 1.341951 0.77937 1.5 0.397805 1.5 0 
C 1.5 -0.397805 1.341951 -0.77937 1.06066 -1.06066 
C 0.77937 -1.341951 0.397805 -1.5 0 -1.5 
C -0.397805 -1.5 -0.77937 -1.341951 -1.06066 -1.06066 
C -1.341951 -0.77937 -1.5 -0.397805 -1.5 0 
C -1.5 0.397805 -1.341951 0.77937 -1.06066 1.06066 
C -0.77937 1.341951 -0.397805 1.5 0 1.5 
z
" id="me32aee89f4" style="stroke:#000080;"/>
    </defs>
    <g>
     <use style="fill:#000080;stroke:#000080;" x="263.611155" xlink:href="#me32aee89f4" y="27.513663"/>
     <use style="fill:#000080;stroke:#000080;" x="263.611155" xlink:href="#me32aee89f4" y="27.513663"/>
    </g>
   </g>
   <g id="line2d_38">
    <path d="M -1 288.06478 
L -0.317398 288.06478 
L -0.317398 287.540532 
L 16.541714 287.540532 
L 16.541714 287.016284 
L 32.291498 287.016284 
L 32.291498 285.967789 
L 34.693814 285.967789 
L 34.693814 285.443541 
L 41.412271 285.443541 
L 41.412271 284.919293 
L 42.394746 284.919293 
L 42.394746 284.395046 
L 47.339607 284.395046 
L 47.339607 283.34655 
L 49.042844 283.34655 
L 49.042844 282.822302 
L 49.679533 282.822302 
L 49.679533 282.298055 
L 50.592418 282.298055 
L 50.592418 281.773807 
L 51.459255 281.773807 
L 51.459255 280.725312 
L 55.46303 280.725312 
L 55.46303 279.676816 
L 57.363093 279.676816 
L 57.363093 279.152568 
L 64.198719 279.152568 
L 64.198719 278.104073 
L 65.366698 278.104073 
L 65.366698 277.579825 
L 66.924922 277.579825 
L 66.924922 277.055578 
L 69.963022 277.055578 
L 69.963022 276.53133 
L 71.168109 276.53133 
L 71.168109 276.007082 
L 76.379466 276.007082 
L 76.379466 275.482834 
L 78.953384 275.482834 
L 78.953384 274.958587 
L 79.402786 274.958587 
L 79.402786 274.434339 
L 83.567822 274.434339 
L 83.567822 273.385844 
L 84.29211 273.385844 
L 84.29211 272.861596 
L 86.186351 272.861596 
L 86.186351 272.337348 
L 86.372176 272.337348 
L 86.372176 271.288853 
L 87.307353 271.288853 
L 87.307353 270.240357 
L 90.464533 270.240357 
L 90.464533 269.191862 
L 93.427602 269.191862 
L 93.427602 268.667614 
L 97.627056 268.667614 
L 97.627056 267.619119 
L 98.634054 267.619119 
L 98.634054 267.094871 
L 99.72186 267.094871 
L 99.806659 265.522128 
L 102.923591 265.522128 
L 102.923591 264.99788 
L 103.587968 264.99788 
L 103.587968 264.473632 
L 103.817243 264.473632 
L 103.817243 263.425137 
L 104.422725 263.425137 
L 104.422725 262.376641 
L 105.107318 262.376641 
L 105.107318 261.328146 
L 108.120612 261.328146 
L 108.120612 259.755403 
L 109.550907 259.755403 
L 109.550907 259.231155 
L 110.070812 259.231155 
L 110.070812 258.706907 
L 110.457504 258.706907 
L 110.457504 258.18266 
L 110.692596 258.18266 
L 110.692596 257.134164 
L 111.09204 257.134164 
L 111.09204 256.609917 
L 112.562769 256.609917 
L 112.562769 256.085669 
L 113.449665 256.085669 
L 113.449665 255.561421 
L 115.610495 255.561421 
L 115.610495 254.512926 
L 116.561835 254.512926 
L 116.561835 253.988678 
L 117.384355 253.988678 
L 117.384355 253.46443 
L 119.152104 253.46443 
L 119.152104 252.415935 
L 147.075488 252.415935 
L 147.075488 251.891687 
L 154.661333 251.891687 
L 154.661333 251.367439 
L 155.562461 251.367439 
L 155.562461 250.843192 
L 155.750869 250.843192 
L 155.750869 250.318944 
L 160.481559 250.318944 
L 160.481559 249.794696 
L 167.1848 249.794696 
L 167.1848 249.270448 
L 172.966091 249.270448 
L 172.966091 247.697705 
L 178.232101 247.697705 
L 178.232101 247.173458 
L 179.904998 247.173458 
L 179.904998 246.64921 
L 181.467634 246.64921 
L 181.467634 245.600714 
L 182.733811 245.600714 
L 182.733811 245.076467 
L 183.977905 245.076467 
L 183.977905 244.027971 
L 184.267991 244.027971 
L 184.267991 242.979476 
L 187.666882 242.979476 
L 187.666882 241.93098 
L 188.14004 241.93098 
L 188.14004 241.406733 
L 188.857689 241.406733 
L 188.857689 239.83399 
L 189.352906 239.83399 
L 189.352906 236.164255 
L 189.610979 236.164255 
L 189.610979 235.640008 
L 189.849437 235.640008 
L 189.955258 231.446026 
L 190.732477 231.446026 
L 190.732477 230.921778 
L 192.145972 230.921778 
L 192.145972 230.397531 
L 192.624891 230.397531 
L 192.624891 229.873283 
L 193.439553 229.873283 
L 193.439553 229.349035 
L 193.647012 229.349035 
L 193.707388 226.727797 
L 194.244835 226.727797 
L 194.267143 225.679301 
L 194.420498 225.679301 
L 194.482611 224.630806 
L 194.593838 224.630806 
L 194.593838 223.58231 
L 194.797127 223.58231 
L 194.903399 221.485319 
L 194.916578 221.485319 
L 194.916578 220.961072 
L 195.039124 220.961072 
L 195.143783 217.815585 
L 195.33379 217.815585 
L 195.373038 216.76709 
L 195.524366 216.76709 
L 195.531917 214.670099 
L 196.004699 214.670099 
L 196.028787 213.097356 
L 196.191807 213.097356 
L 196.191807 211.524613 
L 196.934315 211.524613 
L 197.028965 210.476117 
L 197.109621 210.476117 
L 197.109621 209.95187 
L 197.421754 209.95187 
L 197.421754 208.903374 
L 197.874651 208.903374 
L 197.88225 205.23364 
L 198.05544 205.23364 
L 198.15233 202.088154 
L 198.30626 202.088154 
L 198.356918 199.991163 
L 198.661322 199.991163 
L 198.675408 198.942667 
L 198.909507 198.942667 
L 198.909507 198.41842 
L 199.201914 198.41842 
L 199.201914 197.894172 
L 199.318989 197.894172 
L 199.318989 197.369924 
L 200.302752 197.369924 
L 200.302752 196.321429 
L 200.459832 196.321429 
L 200.497284 195.272933 
L 201.158712 195.272933 
L 201.158712 193.70019 
L 201.294173 193.70019 
L 201.294173 192.127447 
L 201.589261 192.127447 
L 201.589261 191.603199 
L 201.814442 191.603199 
L 201.870313 187.933465 
L 202.094464 187.933465 
L 202.094464 187.409218 
L 202.311859 187.409218 
L 202.327205 184.787979 
L 202.522973 184.787979 
L 202.522973 184.263731 
L 203.344713 184.263731 
L 203.344713 183.739484 
L 203.826819 183.739484 
L 203.875772 180.06975 
L 204.723414 180.06975 
L 204.723414 179.545502 
L 204.849464 179.545502 
L 204.862405 178.497006 
L 205.021469 178.497006 
L 205.021469 177.972759 
L 205.690666 177.972759 
L 205.690666 177.448511 
L 206.02659 177.448511 
L 206.12665 175.875768 
L 206.323009 175.875768 
L 206.416808 173.778777 
L 207.173831 173.778777 
L 207.173831 173.254529 
L 207.770354 173.254529 
L 207.770354 172.730281 
L 208.610178 172.730281 
L 208.610178 171.681786 
L 213.122773 171.681786 
L 213.122773 170.633291 
L 213.282627 170.633291 
L 213.302487 169.584795 
L 213.395262 169.584795 
L 213.395262 169.060547 
L 213.63757 169.060547 
L 213.669429 168.012052 
L 213.898778 168.012052 
L 213.898778 167.487804 
L 214.054066 167.487804 
L 214.07696 166.439309 
L 214.345775 166.439309 
L 214.345775 165.915061 
L 215.361722 165.915061 
L 215.361722 165.390813 
L 216.597381 165.390813 
L 216.597381 164.866566 
L 216.791404 164.866566 
L 216.791404 164.342318 
L 218.025915 164.342318 
L 218.136694 159.624089 
L 218.140833 159.624089 
L 218.222186 157.527098 
L 218.294404 157.527098 
L 218.296189 155.430107 
L 218.684603 155.430107 
L 218.684603 154.905859 
L 218.915086 154.905859 
L 218.945651 151.236125 
L 219.231179 151.236125 
L 219.340648 149.139134 
L 219.372094 149.139134 
L 219.372094 147.566391 
L 219.681249 147.566391 
L 219.781855 146.517896 
L 219.886522 146.517896 
L 219.990323 144.420905 
L 220.067203 144.420905 
L 220.124881 142.323914 
L 220.2107 142.323914 
L 220.214706 141.275418 
L 220.462573 141.275418 
L 220.462573 140.751171 
L 220.743286 140.751171 
L 220.797808 137.081437 
L 221.098282 137.081437 
L 221.177819 134.460198 
L 221.404209 134.460198 
L 221.404209 133.93595 
L 221.579521 133.93595 
L 221.683042 132.887455 
L 221.813922 132.887455 
L 221.853901 130.790464 
L 222.095005 130.790464 
L 222.095487 129.217721 
L 222.220039 129.217721 
L 222.220039 128.693473 
L 222.503265 128.693473 
L 222.560391 126.072235 
L 222.653073 126.072235 
L 222.721369 123.975244 
L 222.767036 123.975244 
L 222.767036 123.450996 
L 223.199745 123.450996 
L 223.199745 122.926748 
L 223.337128 122.926748 
L 223.340379 121.878253 
L 223.58421 121.878253 
L 223.682036 120.30551 
L 225.706188 120.30551 
L 225.706188 119.781262 
L 228.027278 119.781262 
L 228.027278 119.257014 
L 228.238529 119.257014 
L 228.301065 116.111528 
L 228.386432 116.111528 
L 228.386604 115.063032 
L 228.575374 115.063032 
L 228.575374 114.538785 
L 228.746403 114.538785 
L 228.841276 113.490289 
L 228.892121 113.490289 
L 228.959435 110.869051 
L 229.050425 110.869051 
L 229.063226 109.296308 
L 229.170861 109.296308 
L 229.229711 108.247812 
L 229.330822 108.247812 
L 229.419693 106.150821 
L 229.484278 106.150821 
L 229.569324 104.05383 
L 229.762673 104.05383 
L 229.797786 101.956839 
L 230.00137 101.956839 
L 230.048953 99.335601 
L 230.360331 99.335601 
L 230.452976 98.287105 
L 230.641961 98.287105 
L 230.714541 97.23861 
L 230.816702 97.23861 
L 230.816702 96.714362 
L 230.967973 96.714362 
L 231.036665 95.141619 
L 231.306395 95.141619 
L 231.372516 93.044628 
L 231.524909 93.044628 
L 231.524909 92.520381 
L 232.891336 92.520381 
L 232.891461 91.471885 
L 233.519768 91.471885 
L 233.550734 89.899142 
L 234.635282 89.899142 
L 234.635282 89.374894 
L 234.833637 89.374894 
L 234.944407 87.802151 
L 234.953779 87.802151 
L 235.054681 86.753656 
L 235.088083 86.753656 
L 235.088083 86.229408 
L 235.250573 86.229408 
L 235.291573 83.608169 
L 235.375847 83.608169 
L 235.376597 82.559674 
L 235.530962 82.559674 
L 235.5445 81.511178 
L 235.692556 81.511178 
L 235.778994 79.938435 
L 235.860449 79.938435 
L 235.868489 78.88994 
L 236.043189 78.88994 
L 236.043189 78.365692 
L 236.163147 78.365692 
L 236.250511 77.317197 
L 236.295581 77.317197 
L 236.34753 76.268701 
L 236.447198 76.268701 
L 236.447198 75.744454 
L 236.76034 75.744454 
L 236.824173 74.695958 
L 238.066824 74.695958 
L 238.066824 74.17171 
L 238.882132 74.17171 
L 238.882132 73.647463 
L 239.248674 73.647463 
L 239.261125 72.074719 
L 239.581456 72.074719 
L 239.67543 69.977729 
L 239.818233 69.977729 
L 239.828729 68.929233 
L 239.959022 68.929233 
L 239.959022 68.404985 
L 240.204415 68.404985 
L 240.264054 66.832242 
L 240.34553 66.832242 
L 240.34553 66.307995 
L 240.520668 66.307995 
L 240.560453 65.259499 
L 240.713364 65.259499 
L 240.80489 63.686756 
L 240.870816 63.686756 
L 240.870816 63.162508 
L 241.894867 63.162508 
L 241.894867 62.638261 
L 242.672561 62.638261 
L 242.672561 62.114013 
L 243.164858 62.114013 
L 243.237725 58.444279 
L 243.362006 58.444279 
L 243.459501 57.395783 
L 243.524549 57.395783 
L 243.524549 56.871536 
L 243.667317 56.871536 
L 243.718666 54.774545 
L 243.864278 54.774545 
L 243.961413 52.153306 
L 244.119178 52.153306 
L 244.119178 51.629058 
L 244.285669 51.629058 
L 244.358554 50.056315 
L 245.048157 50.056315 
L 245.048157 49.532068 
L 245.903333 49.532068 
L 245.908016 48.483572 
L 246.137657 48.483572 
L 246.185908 47.435077 
L 246.557981 47.435077 
L 246.575432 46.386581 
L 246.703101 46.386581 
L 246.785327 45.338086 
L 247.039008 45.338086 
L 247.039008 44.813838 
L 248.328242 44.813838 
L 248.328242 44.28959 
L 248.460854 44.28959 
L 248.460854 43.765343 
L 248.66933 43.765343 
L 248.702506 42.716847 
L 248.978491 42.716847 
L 248.978491 42.192599 
L 249.102394 42.192599 
L 249.102394 41.668352 
L 249.525895 41.668352 
L 249.525895 41.144104 
L 250.078964 41.144104 
L 250.078964 40.619856 
L 250.676327 40.619856 
L 250.684676 39.571361 
L 250.871367 39.571361 
L 250.871367 39.047113 
L 251.178587 39.047113 
L 251.18054 37.998618 
L 252.816664 37.998618 
L 252.816664 37.47437 
L 252.970765 37.47437 
L 252.970765 36.950122 
L 253.096531 36.950122 
L 253.096531 36.425875 
L 254.439468 36.425875 
L 254.439468 35.901627 
L 254.656069 35.901627 
L 254.656069 35.377379 
L 254.818808 35.377379 
L 254.892764 33.804636 
L 255.045433 33.804636 
L 255.141147 32.756141 
L 256.021936 32.756141 
L 256.021936 32.231893 
L 256.356462 32.231893 
L 256.356462 31.707645 
L 256.530997 31.707645 
L 256.530997 31.183397 
L 257.486897 31.183397 
L 257.486897 30.65915 
L 257.680396 30.65915 
L 257.680396 30.134902 
L 257.83968 30.134902 
L 257.83968 29.610654 
L 260.131925 29.610654 
L 260.131925 29.086407 
L 260.446254 29.086407 
L 260.446254 28.562159 
L 263.498024 28.562159 
L 263.498024 28.037911 
L 263.611155 28.037911 
L 263.611155 27.513663 
L 333.168 27.513663 
L 333.168 27.513663 
" style="fill:none;stroke:#000080;stroke-linecap:square;stroke-width:1.5;"/>
   </g>
   <g id="line2d_39">
    <defs>
     <path d="M 0 6 
C 1.591219 6 3.117479 5.367802 4.242641 4.242641 
C 5.367802 3.117479 6 1.591219 6 0 
C 6 -1.591219 5.367802 -3.117479 4.242641 -4.242641 
C 3.117479 -5.367802 1.591219 -6 0 -6 
C -1.591219 -6 -3.117479 -5.367802 -4.242641 -4.242641 
C -5.367802 -3.117479 -6 -1.591219 -6 0 
C -6 1.591219 -5.367802 3.117479 -4.242641 4.242641 
C -3.117479 5.367802 -1.591219 6 0 6 
z
" id="m1d425ab2af" style="stroke:#000080;stroke-width:1.5;"/>
    </defs>
    <g>
     <use style="fill-opacity:0;stroke:#000080;stroke-width:1.5;" x="87.307353" xlink:href="#m1d425ab2af" y="270.240357"/>
     <use style="fill-opacity:0;stroke:#000080;stroke-width:1.5;" x="160.481559" xlink:href="#m1d425ab2af" y="249.794696"/>
     <use style="fill-opacity:0;stroke:#000080;stroke-width:1.5;" x="221.85365" xlink:href="#m1d425ab2af" y="131.838959"/>
     <use style="fill-opacity:0;stroke:#000080;stroke-width:1.5;" x="249.102394" xlink:href="#m1d425ab2af" y="42.192599"/>
     <use style="fill-opacity:0;stroke:#000080;stroke-width:1.5;" x="263.611155" xlink:href="#m1d425ab2af" y="27.513663"/>
     <use style="fill-opacity:0;stroke:#000080;stroke-width:1.5;" x="333.168" xlink:href="#m1d425ab2af" y="27.513663"/>
    </g>
   </g>
   <g id="line2d_40">
    <path style="fill:none;stroke:#000080;stroke-linecap:square;stroke-width:1.5;"/>
    <g/>
   </g>
   <g id="line2d_41">
    <path clip-path="url(#pba87e976d7)" d="M 214.433637 165.915061 
" style="fill:none;stroke:#000080;stroke-linecap:square;stroke-width:1.5;"/>
    <defs>
     <path d="M -12 12 
L 12 -12 
M -12 -12 
L 12 12 
" id="m43c37948f8" style="stroke:#000080;"/>
    </defs>
    <g clip-path="url(#pba87e976d7)">
     <use style="fill:#000080;stroke:#000080;" x="214.433637" xlink:href="#m43c37948f8" y="165.915061"/>
    </g>
   </g>
   <g id="line2d_42">
    <defs>
     <path d="M 0 1.5 
C 0.397805 1.5 0.77937 1.341951 1.06066 1.06066 
C 1.341951 0.77937 1.5 0.397805 1.5 0 
C 1.5 -0.397805 1.341951 -0.77937 1.06066 -1.06066 
C 0.77937 -1.341951 0.397805 -1.5 0 -1.5 
C -0.397805 -1.5 -0.77937 -1.341951 -1.06066 -1.06066 
C -1.341951 -0.77937 -1.5 -0.397805 -1.5 0 
C -1.5 0.397805 -1.341951 0.77937 -1.06066 1.06066 
C -0.77937 1.341951 -0.397805 1.5 0 1.5 
z
" id="mf744f63caa" style="stroke:#ff00ff;"/>
    </defs>
    <g>
     <use style="fill:#ff00ff;stroke:#ff00ff;" x="276.206356" xlink:href="#mf744f63caa" y="27.513663"/>
     <use style="fill:#ff00ff;stroke:#ff00ff;" x="276.206356" xlink:href="#mf744f63caa" y="27.513663"/>
    </g>
   </g>
   <g id="line2d_43">
    <path d="M -1 291.734514 
L 14.246492 291.734514 
L 14.246492 291.210266 
L 24.886929 291.210266 
L 24.886929 289.637523 
L 26.160744 289.637523 
L 26.160744 288.589027 
L 54.308997 288.589027 
L 54.308997 287.540532 
L 60.629683 287.540532 
L 60.629683 287.016284 
L 63.513822 287.016284 
L 63.513822 285.967789 
L 69.177119 285.967789 
L 69.177119 284.919293 
L 71.257401 284.919293 
L 71.257401 284.395046 
L 81.041037 284.395046 
L 81.041037 283.870798 
L 83.524252 283.870798 
L 83.524252 282.822302 
L 86.036231 282.822302 
L 86.036231 282.298055 
L 97.684575 282.298055 
L 97.684575 281.773807 
L 98.921435 281.773807 
L 98.957023 279.676816 
L 99.11626 279.676816 
L 99.11626 279.152568 
L 106.606032 279.152568 
L 106.606032 278.628321 
L 108.885584 278.628321 
L 108.885584 278.104073 
L 111.396426 278.104073 
L 111.396426 277.055578 
L 111.653105 277.055578 
L 111.653105 276.53133 
L 112.171731 276.53133 
L 112.171731 276.007082 
L 113.023703 276.007082 
L 113.023703 275.482834 
L 113.880253 275.482834 
L 113.880253 274.434339 
L 120.614282 274.434339 
L 120.614282 273.910091 
L 123.706913 273.910091 
L 123.706913 273.385844 
L 124.217319 273.385844 
L 124.217319 271.8131 
L 124.468963 271.8131 
L 124.468963 271.288853 
L 124.60941 271.288853 
L 124.60941 270.764605 
L 125.712244 270.764605 
L 125.712244 270.240357 
L 129.878894 270.240357 
L 129.878894 269.716109 
L 130.225386 269.716109 
L 130.225386 269.191862 
L 130.87868 269.191862 
L 130.87868 268.667614 
L 133.417756 268.667614 
L 133.417756 267.619119 
L 134.428801 267.619119 
L 134.428801 267.094871 
L 137.483475 267.094871 
L 137.483475 266.046375 
L 138.077782 266.046375 
L 138.077782 264.99788 
L 141.02012 264.99788 
L 141.02012 263.949385 
L 142.524441 263.949385 
L 142.524441 263.425137 
L 144.084873 263.425137 
L 144.084873 262.376641 
L 144.578385 262.376641 
L 144.578385 261.852394 
L 146.114693 261.852394 
L 146.114693 261.328146 
L 147.139179 261.328146 
L 147.139179 260.803898 
L 147.565924 260.803898 
L 147.565924 260.279651 
L 148.886599 260.279651 
L 148.886599 258.706907 
L 149.783584 258.706907 
L 149.783584 258.18266 
L 150.137454 258.18266 
L 150.137454 257.658412 
L 151.553611 257.658412 
L 151.553611 257.134164 
L 152.574521 257.134164 
L 152.650537 256.085669 
L 153.090563 256.085669 
L 153.090563 255.561421 
L 153.326732 255.561421 
L 153.326732 255.037173 
L 154.866699 255.037173 
L 154.866699 253.988678 
L 155.19013 253.988678 
L 155.19013 253.46443 
L 155.374634 253.46443 
L 155.374634 252.940182 
L 156.015848 252.940182 
L 156.015848 252.415935 
L 156.382857 252.415935 
L 156.382857 251.891687 
L 157.200113 251.891687 
L 157.200113 251.367439 
L 157.981415 251.367439 
L 157.981415 250.843192 
L 158.917667 250.843192 
L 158.917667 250.318944 
L 159.266531 250.318944 
L 159.266531 249.794696 
L 159.887859 249.794696 
L 159.887859 249.270448 
L 160.33267 249.270448 
L 160.33267 247.173458 
L 162.413953 247.173458 
L 162.413953 246.64921 
L 162.587648 246.64921 
L 162.67646 244.552219 
L 163.089074 244.552219 
L 163.089074 243.503724 
L 163.507406 243.503724 
L 163.507406 241.406733 
L 163.631276 241.406733 
L 163.631276 240.882485 
L 165.664609 240.882485 
L 165.664609 240.358237 
L 166.137017 240.358237 
L 166.137017 238.261246 
L 167.297225 238.261246 
L 167.307561 237.212751 
L 167.687956 237.212751 
L 167.687956 236.164255 
L 167.84438 236.164255 
L 167.84438 235.640008 
L 168.674615 235.640008 
L 168.674615 235.11576 
L 168.950054 235.11576 
L 168.950054 234.591512 
L 170.386892 234.591512 
L 170.386892 233.543017 
L 170.662748 233.543017 
L 170.662748 233.018769 
L 172.603043 233.018769 
L 172.603043 232.494521 
L 173.532913 232.494521 
L 173.532913 231.970274 
L 173.97116 231.970274 
L 174.010473 230.921778 
L 174.483686 230.921778 
L 174.483686 229.873283 
L 176.86238 229.873283 
L 176.86238 229.349035 
L 177.23848 229.349035 
L 177.23848 228.824787 
L 179.297307 228.824787 
L 179.297307 228.30054 
L 179.717554 228.30054 
L 179.804122 225.155053 
L 180.289061 225.155053 
L 180.289061 224.630806 
L 180.444507 224.630806 
L 180.444507 224.106558 
L 181.755499 224.106558 
L 181.838851 222.533815 
L 181.917671 222.533815 
L 181.917671 222.009567 
L 182.169822 222.009567 
L 182.178384 220.436824 
L 182.426629 220.436824 
L 182.426629 219.912576 
L 182.887723 219.912576 
L 182.887723 219.388328 
L 183.216327 219.388328 
L 183.216327 218.864081 
L 183.542137 218.864081 
L 183.644744 217.815585 
L 183.907372 217.815585 
L 183.907372 217.291338 
L 184.157171 217.291338 
L 184.157171 216.76709 
L 184.585861 216.76709 
L 184.585861 216.242842 
L 184.878184 216.242842 
L 184.878184 215.718594 
L 185.013997 215.718594 
L 185.013997 215.194347 
L 185.487028 215.194347 
L 185.487028 214.670099 
L 185.794127 214.670099 
L 185.794127 213.621604 
L 186.246774 213.621604 
L 186.246774 213.097356 
L 187.074591 213.097356 
L 187.150305 212.04886 
L 188.899593 212.04886 
L 188.933441 211.000365 
L 189.423658 211.000365 
L 189.423658 210.476117 
L 190.280432 210.476117 
L 190.280432 209.95187 
L 192.156733 209.95187 
L 192.156733 208.379126 
L 193.57674 208.379126 
L 193.57674 207.854879 
L 193.966943 207.854879 
L 193.966943 207.330631 
L 194.581704 207.330631 
L 194.581704 206.806383 
L 195.757807 206.806383 
L 195.757807 205.757888 
L 196.029978 205.757888 
L 196.134337 204.709392 
L 196.411878 204.709392 
L 196.411878 204.185145 
L 197.504505 204.185145 
L 197.504505 202.612401 
L 197.725027 202.612401 
L 197.725027 201.563906 
L 199.327165 201.563906 
L 199.327165 197.894172 
L 199.729053 197.894172 
L 199.729053 196.845677 
L 199.876313 196.845677 
L 199.876313 196.321429 
L 203.046398 196.321429 
L 203.046398 195.272933 
L 215.608387 195.272933 
L 215.675377 194.224438 
L 215.729857 194.224438 
L 215.729857 192.651695 
L 215.878467 192.651695 
L 215.955351 191.078952 
L 215.992164 191.078952 
L 216.103027 188.457713 
L 216.232832 188.457713 
L 216.302293 186.360722 
L 216.411889 186.360722 
L 216.411889 185.836474 
L 216.526194 185.836474 
L 216.577061 184.787979 
L 216.642843 184.787979 
L 216.701408 183.215236 
L 216.832694 183.215236 
L 216.915257 180.593997 
L 217.069529 180.593997 
L 217.084157 179.545502 
L 217.692946 179.545502 
L 217.743652 178.497006 
L 218.038898 178.497006 
L 218.070086 177.448511 
L 218.204338 177.448511 
L 218.20558 175.875768 
L 218.349358 175.875768 
L 218.349358 175.35152 
L 218.590525 175.35152 
L 218.590525 174.827272 
L 219.141131 174.827272 
L 219.197731 172.730281 
L 219.526105 172.730281 
L 219.526105 172.206034 
L 219.888009 172.206034 
L 219.948255 171.157538 
L 220.403073 171.157538 
L 220.403073 169.060547 
L 220.56603 169.060547 
L 220.610306 168.012052 
L 221.580187 168.012052 
L 221.580187 167.487804 
L 221.712131 167.487804 
L 221.712131 166.963557 
L 227.124994 166.963557 
L 227.124994 166.439309 
L 227.270792 166.439309 
L 227.365236 164.342318 
L 227.452737 164.342318 
L 227.556426 159.099841 
L 227.614844 159.099841 
L 227.723969 152.808868 
L 227.798258 152.808868 
L 227.833312 151.760373 
L 228.013662 151.760373 
L 228.082235 150.711877 
L 228.194078 150.711877 
L 228.194078 150.18763 
L 228.416803 150.18763 
L 228.416803 149.663382 
L 228.551482 149.663382 
L 228.551482 149.139134 
L 228.779699 149.139134 
L 228.862087 147.566391 
L 228.894261 147.566391 
L 228.894261 147.042143 
L 229.066519 147.042143 
L 229.122929 145.4694 
L 229.685934 145.4694 
L 229.711994 144.420905 
L 230.289748 144.420905 
L 230.289748 143.372409 
L 233.852609 143.372409 
L 233.944947 141.275418 
L 234.060869 141.275418 
L 234.159901 137.081437 
L 234.241258 137.081437 
L 234.348745 134.984446 
L 234.616513 134.984446 
L 234.668382 133.411703 
L 234.975949 133.411703 
L 235.033443 132.363207 
L 235.148751 132.363207 
L 235.148751 131.838959 
L 235.358175 131.838959 
L 235.358175 131.314712 
L 236.099804 131.314712 
L 236.099804 130.790464 
L 238.634544 130.790464 
L 238.737958 128.693473 
L 238.748347 128.693473 
L 238.857401 124.499491 
L 238.92416 124.499491 
L 239.002391 122.926748 
L 239.055107 122.926748 
L 239.136375 121.354005 
L 239.209786 121.354005 
L 239.285181 118.208519 
L 239.410668 118.208519 
L 239.410668 117.160023 
L 239.959451 117.160023 
L 239.959451 116.635776 
L 242.396145 116.635776 
L 242.491411 115.58728 
L 242.511587 115.58728 
L 242.615692 109.820555 
L 242.69231 109.820555 
L 242.783199 107.723564 
L 242.881399 107.723564 
L 242.955074 106.150821 
L 243.022463 106.150821 
L 243.022463 105.626573 
L 243.161631 105.626573 
L 243.243667 104.578078 
L 243.564457 104.578078 
L 243.564457 104.05383 
L 245.520878 104.05383 
L 245.630498 99.335601 
L 245.690818 99.335601 
L 245.740762 98.287105 
L 245.804608 98.287105 
L 245.804608 97.762858 
L 246.427269 97.762858 
L 246.427269 97.23861 
L 248.112374 97.23861 
L 248.205101 95.141619 
L 248.224503 95.141619 
L 248.330562 93.568876 
L 248.385966 93.568876 
L 248.473002 91.996133 
L 248.539787 91.996133 
L 248.539787 91.471885 
L 248.785406 91.471885 
L 248.871288 90.42339 
L 249.102263 90.42339 
L 249.128952 89.374894 
L 250.415713 89.374894 
L 250.495489 87.277903 
L 250.55027 87.277903 
L 250.656514 85.180912 
L 250.760018 85.180912 
L 250.839908 84.132417 
L 250.885972 84.132417 
L 250.901371 82.559674 
L 251.045763 82.559674 
L 251.045763 82.035426 
L 252.376308 82.035426 
L 252.484213 78.365692 
L 252.544056 78.365692 
L 252.567046 76.792949 
L 252.799916 76.792949 
L 252.799916 76.268701 
L 254.174322 76.268701 
L 254.268749 73.123215 
L 254.28878 73.123215 
L 254.319083 71.026224 
L 255.771709 71.026224 
L 255.875942 66.832242 
L 256.02884 66.832242 
L 256.135132 65.259499 
L 256.43704 65.259499 
L 256.43704 64.735251 
L 257.280833 64.735251 
L 257.346189 62.638261 
L 257.409159 62.638261 
L 257.467194 61.065517 
L 257.596859 61.065517 
L 257.596859 60.54127 
L 258.666459 60.54127 
L 258.76483 58.968526 
L 258.795045 58.968526 
L 258.842601 56.871536 
L 258.938366 56.871536 
L 258.938366 56.347288 
L 259.978286 56.347288 
L 260.044189 55.298792 
L 260.313446 55.298792 
L 260.313446 54.774545 
L 261.089593 54.774545 
L 261.187829 51.629058 
L 261.246236 51.629058 
L 261.259792 50.056315 
L 261.561723 50.056315 
L 261.561723 49.532068 
L 262.232284 49.532068 
L 262.313055 46.910829 
L 262.351723 46.910829 
L 262.351723 46.386581 
L 263.406681 46.386581 
L 263.406681 45.862334 
L 263.563985 45.862334 
L 263.563985 45.338086 
L 264.220996 45.338086 
L 264.220996 44.813838 
L 265.148659 44.813838 
L 265.248036 42.716847 
L 265.262576 42.716847 
L 265.262576 42.192599 
L 265.442466 42.192599 
L 265.442466 41.668352 
L 266.043199 41.668352 
L 266.125131 39.571361 
L 267.038304 39.571361 
L 267.038304 39.047113 
L 267.651539 39.047113 
L 267.674094 36.950122 
L 267.825561 36.950122 
L 267.83131 35.901627 
L 268.418956 35.901627 
L 268.452173 34.853131 
L 269.366507 34.853131 
L 269.366507 34.328884 
L 269.850035 34.328884 
L 269.870599 32.756141 
L 270.053517 32.756141 
L 270.053517 32.231893 
L 270.548591 32.231893 
L 270.630742 31.183397 
L 271.216517 31.183397 
L 271.216517 30.65915 
L 271.822774 30.65915 
L 271.822774 30.134902 
L 272.393489 30.134902 
L 272.393489 29.610654 
L 274.064293 29.610654 
L 274.064293 29.086407 
L 275.13056 29.086407 
L 275.13056 28.562159 
L 275.618638 28.562159 
L 275.618638 28.037911 
L 276.206356 28.037911 
L 276.206356 27.513663 
L 333.168 27.513663 
L 333.168 27.513663 
" style="fill:none;stroke:#ff00ff;stroke-linecap:square;stroke-width:1.5;"/>
   </g>
   <g id="line2d_44">
    <defs>
     <path d="M -0 8.485281 
L 5.091169 0 
L 0 -8.485281 
L -5.091169 -0 
z
" id="m4b17395596" style="stroke:#ff00ff;stroke-linejoin:miter;stroke-width:1.5;"/>
    </defs>
    <g>
     <use style="fill-opacity:0;stroke:#ff00ff;stroke-linejoin:miter;stroke-width:1.5;" x="144.084873" xlink:href="#m4b17395596" y="262.376641"/>
     <use style="fill-opacity:0;stroke:#ff00ff;stroke-linejoin:miter;stroke-width:1.5;" x="190.280432" xlink:href="#m4b17395596" y="209.95187"/>
     <use style="fill-opacity:0;stroke:#ff00ff;stroke-linejoin:miter;stroke-width:1.5;" x="254.319083" xlink:href="#m4b17395596" y="71.026224"/>
     <use style="fill-opacity:0;stroke:#ff00ff;stroke-linejoin:miter;stroke-width:1.5;" x="276.206356" xlink:href="#m4b17395596" y="27.513663"/>
     <use style="fill-opacity:0;stroke:#ff00ff;stroke-linejoin:miter;stroke-width:1.5;" x="276.206356" xlink:href="#m4b17395596" y="27.513663"/>
     <use style="fill-opacity:0;stroke:#ff00ff;stroke-linejoin:miter;stroke-width:1.5;" x="333.168" xlink:href="#m4b17395596" y="27.513663"/>
    </g>
   </g>
   <g id="line2d_45">
    <path style="fill:none;stroke:#ff00ff;stroke-linecap:square;stroke-width:1.5;"/>
    <g/>
   </g>
   <g id="line2d_46">
    <path clip-path="url(#pba87e976d7)" d="M 214.433164 195.272933 
" style="fill:none;stroke:#ff00ff;stroke-linecap:square;stroke-width:1.5;"/>
    <defs>
     <path d="M -12 12 
L 12 -12 
M -12 -12 
L 12 12 
" id="ma5e3fcb557" style="stroke:#ff00ff;"/>
    </defs>
    <g clip-path="url(#pba87e976d7)">
     <use style="fill:#ff00ff;stroke:#ff00ff;" x="214.433164" xlink:href="#ma5e3fcb557" y="195.272933"/>
    </g>
   </g>
   <g id="line2d_47">
    <defs>
     <path d="M 0 1.5 
C 0.397805 1.5 0.77937 1.341951 1.06066 1.06066 
C 1.341951 0.77937 1.5 0.397805 1.5 0 
C 1.5 -0.397805 1.341951 -0.77937 1.06066 -1.06066 
C 0.77937 -1.341951 0.397805 -1.5 0 -1.5 
C -0.397805 -1.5 -0.77937 -1.341951 -1.06066 -1.06066 
C -1.341951 -0.77937 -1.5 -0.397805 -1.5 0 
C -1.5 0.397805 -1.341951 0.77937 -1.06066 1.06066 
C -0.77937 1.341951 -0.397805 1.5 0 1.5 
z
" id="m94d7640cd0" style="stroke:#ffa500;"/>
    </defs>
    <g>
     <use style="fill:#ffa500;stroke:#ffa500;" x="183.408635" xlink:href="#m94d7640cd0" y="279.152568"/>
     <use style="fill:#ffa500;stroke:#ffa500;" x="183.408635" xlink:href="#m94d7640cd0" y="279.152568"/>
    </g>
   </g>
   <g id="line2d_48">
    <path d="M -1 292.258761 
L 23.511104 292.258761 
L 23.511104 291.734514 
L 24.886929 291.734514 
L 24.886929 290.686018 
L 27.346637 290.686018 
L 27.346637 289.637523 
L 51.738751 289.637523 
L 51.738751 288.06478 
L 56.12 288.06478 
L 56.12 287.540532 
L 58.144529 287.540532 
L 58.144529 287.016284 
L 71.522526 287.016284 
L 71.522526 286.492036 
L 73.112877 286.492036 
L 73.112877 285.443541 
L 96.638932 285.443541 
L 96.638932 283.870798 
L 101.84622 283.870798 
L 101.84622 282.822302 
L 105.693768 282.822302 
L 105.693768 282.298055 
L 117.0836 282.298055 
L 117.0836 281.773807 
L 156.465101 281.773807 
L 156.465101 281.249559 
L 171.588568 281.249559 
L 171.588568 280.201064 
L 179.519692 280.201064 
L 179.519692 279.676816 
L 183.408635 279.676816 
L 183.408635 279.152568 
L 333.168 279.152568 
" style="fill:none;stroke:#ffa500;stroke-linecap:square;stroke-width:1.5;"/>
   </g>
   <g id="line2d_49">
    <defs>
     <path d="M 0 -6 
L -1.347084 -1.854102 
L -5.706339 -1.854102 
L -2.179628 0.708204 
L -3.526712 4.854102 
L -0 2.291796 
L 3.526712 4.854102 
L 2.179628 0.708204 
L 5.706339 -1.854102 
L 1.347084 -1.854102 
z
" id="m2b87067f06" style="stroke:#ffa500;stroke-linejoin:bevel;stroke-width:1.5;"/>
    </defs>
    <g>
     <use style="fill-opacity:0;stroke:#ffa500;stroke-linejoin:bevel;stroke-width:1.5;" x="58.144529" xlink:href="#m2b87067f06" y="287.016284"/>
     <use style="fill-opacity:0;stroke:#ffa500;stroke-linejoin:bevel;stroke-width:1.5;" x="117.0836" xlink:href="#m2b87067f06" y="281.773807"/>
     <use style="fill-opacity:0;stroke:#ffa500;stroke-linejoin:bevel;stroke-width:1.5;" x="183.408635" xlink:href="#m2b87067f06" y="279.676816"/>
     <use style="fill-opacity:0;stroke:#ffa500;stroke-linejoin:bevel;stroke-width:1.5;" x="183.408635" xlink:href="#m2b87067f06" y="279.152568"/>
     <use style="fill-opacity:0;stroke:#ffa500;stroke-linejoin:bevel;stroke-width:1.5;" x="183.408635" xlink:href="#m2b87067f06" y="279.152568"/>
     <use style="fill-opacity:0;stroke:#ffa500;stroke-linejoin:bevel;stroke-width:1.5;" x="333.168" xlink:href="#m2b87067f06" y="279.152568"/>
    </g>
   </g>
   <g id="line2d_50">
    <path style="fill:none;stroke:#ffa500;stroke-linecap:square;stroke-width:1.5;"/>
    <g/>
   </g>
   <g id="line2d_51">
    <path clip-path="url(#pba87e976d7)" d="M 214.433143 279.152568 
" style="fill:none;stroke:#ffa500;stroke-linecap:square;stroke-width:1.5;"/>
    <defs>
     <path d="M -12 12 
L 12 -12 
M -12 -12 
L 12 12 
" id="m98f0787006" style="stroke:#ffa500;"/>
    </defs>
    <g clip-path="url(#pba87e976d7)">
     <use style="fill:#ffa500;stroke:#ffa500;" x="214.433143" xlink:href="#m98f0787006" y="279.152568"/>
    </g>
   </g>
   <g id="line2d_52">
    <defs>
     <path d="M 0 1.5 
C 0.397805 1.5 0.77937 1.341951 1.06066 1.06066 
C 1.341951 0.77937 1.5 0.397805 1.5 0 
C 1.5 -0.397805 1.341951 -0.77937 1.06066 -1.06066 
C 0.77937 -1.341951 0.397805 -1.5 0 -1.5 
C -0.397805 -1.5 -0.77937 -1.341951 -1.06066 -1.06066 
C -1.341951 -0.77937 -1.5 -0.397805 -1.5 0 
C -1.5 0.397805 -1.341951 0.77937 -1.06066 1.06066 
C -0.77937 1.341951 -0.397805 1.5 0 1.5 
z
" id="mfe3eb72704" style="stroke:#6495ed;"/>
    </defs>
    <g>
     <use style="fill:#6495ed;stroke:#6495ed;" x="153.562667" xlink:href="#mfe3eb72704" y="268.667614"/>
     <use style="fill:#6495ed;stroke:#6495ed;" x="153.562667" xlink:href="#mfe3eb72704" y="268.667614"/>
    </g>
   </g>
   <g id="line2d_53">
    <path d="M -1 289.637523 
L 8.462995 289.637523 
L 8.462995 289.113275 
L 20.377246 289.113275 
L 20.377246 288.589027 
L 28.455965 288.589027 
L 28.455965 288.06478 
L 31.409836 288.06478 
L 31.409836 287.016284 
L 32.291498 287.016284 
L 32.291498 286.492036 
L 33.130134 286.492036 
L 33.130134 285.967789 
L 54.068593 285.967789 
L 54.068593 285.443541 
L 58.522316 285.443541 
L 58.522316 284.919293 
L 68.353554 284.919293 
L 68.353554 283.870798 
L 71.955512 283.870798 
L 71.955512 282.822302 
L 75.567254 282.822302 
L 75.567254 282.298055 
L 76.246735 282.298055 
L 76.246735 281.249559 
L 84.29211 281.249559 
L 84.29211 280.201064 
L 92.980473 280.201064 
L 92.980473 279.676816 
L 102.247182 279.676816 
L 102.247182 278.628321 
L 105.231156 278.628321 
L 105.231156 278.104073 
L 110.033527 278.104073 
L 110.033527 277.579825 
L 114.205413 277.579825 
L 114.205413 277.055578 
L 114.667656 277.055578 
L 114.667656 276.53133 
L 126.123324 276.53133 
L 126.123324 276.007082 
L 128.296435 276.007082 
L 128.296435 275.482834 
L 131.6996 275.482834 
L 131.6996 274.958587 
L 132.973981 274.958587 
L 132.973981 273.910091 
L 133.742639 273.910091 
L 133.742639 272.861596 
L 134.26323 272.861596 
L 134.26323 272.337348 
L 138.035745 272.337348 
L 138.035745 271.8131 
L 139.586771 271.8131 
L 139.586771 271.288853 
L 139.700095 271.288853 
L 139.700095 270.764605 
L 145.78794 270.764605 
L 145.78794 270.240357 
L 151.615177 270.240357 
L 151.615177 269.716109 
L 152.132998 269.716109 
L 152.132998 269.191862 
L 153.562667 269.191862 
L 153.562667 268.667614 
L 333.168 268.667614 
" style="fill:none;stroke:#6495ed;stroke-linecap:square;stroke-width:1.5;"/>
   </g>
   <g id="line2d_54">
    <defs>
     <path d="M -0 6 
L 6 -6 
L -6 -6 
z
" id="m4a1d4c5d9f" style="stroke:#6495ed;stroke-linejoin:miter;stroke-width:1.5;"/>
    </defs>
    <g>
     <use style="fill-opacity:0;stroke:#6495ed;stroke-linejoin:miter;stroke-width:1.5;" x="110.033527" xlink:href="#m4a1d4c5d9f" y="278.104073"/>
     <use style="fill-opacity:0;stroke:#6495ed;stroke-linejoin:miter;stroke-width:1.5;" x="153.562667" xlink:href="#m4a1d4c5d9f" y="269.191862"/>
     <use style="fill-opacity:0;stroke:#6495ed;stroke-linejoin:miter;stroke-width:1.5;" x="153.562667" xlink:href="#m4a1d4c5d9f" y="268.667614"/>
     <use style="fill-opacity:0;stroke:#6495ed;stroke-linejoin:miter;stroke-width:1.5;" x="153.562667" xlink:href="#m4a1d4c5d9f" y="268.667614"/>
     <use style="fill-opacity:0;stroke:#6495ed;stroke-linejoin:miter;stroke-width:1.5;" x="333.168" xlink:href="#m4a1d4c5d9f" y="268.667614"/>
    </g>
   </g>
   <g id="line2d_55">
    <path style="fill:none;stroke:#6495ed;stroke-linecap:square;stroke-width:1.5;"/>
    <g/>
   </g>
   <g id="line2d_56">
    <path clip-path="url(#pba87e976d7)" d="M 135.276571 272.337348 
" style="fill:none;stroke:#6495ed;stroke-linecap:square;stroke-width:1.5;"/>
    <defs>
     <path d="M -12 12 
L 12 -12 
M -12 -12 
L 12 12 
" id="m27ba76bef7" style="stroke:#6495ed;"/>
    </defs>
    <g clip-path="url(#pba87e976d7)">
     <use style="fill:#6495ed;stroke:#6495ed;" x="135.276571" xlink:href="#m27ba76bef7" y="272.337348"/>
    </g>
   </g>
   <g id="line2d_57">
    <path d="M 333.168 279.152568 
L 363.64328 289.532673 
" style="fill:none;stroke:#ffa500;stroke-linecap:square;stroke-width:1.5;"/>
    <g>
     <use style="fill-opacity:0;stroke:#ffa500;stroke-linejoin:bevel;stroke-width:1.5;" x="333.168" xlink:href="#m2b87067f06" y="279.152568"/>
     <use style="fill-opacity:0;stroke:#ffa500;stroke-linejoin:bevel;stroke-width:1.5;" x="363.64328" xlink:href="#m2b87067f06" y="289.532673"/>
    </g>
   </g>
   <g id="line2d_58">
    <path d="M 333.168 268.667614 
L 363.64328 203.975446 
" style="fill:none;stroke:#6495ed;stroke-linecap:square;stroke-width:1.5;"/>
    <g>
     <use style="fill-opacity:0;stroke:#6495ed;stroke-linejoin:miter;stroke-width:1.5;" x="333.168" xlink:href="#m4a1d4c5d9f" y="268.667614"/>
     <use style="fill-opacity:0;stroke:#6495ed;stroke-linejoin:miter;stroke-width:1.5;" x="363.64328" xlink:href="#m4a1d4c5d9f" y="203.975446"/>
    </g>
   </g>
   <g id="line2d_59">
    <path d="M 333.168 27.513663 
L 363.64328 118.418218 
" style="fill:none;stroke:#ff00ff;stroke-linecap:square;stroke-width:1.5;"/>
    <g>
     <use style="fill-opacity:0;stroke:#ff00ff;stroke-linejoin:miter;stroke-width:1.5;" x="333.168" xlink:href="#m4b17395596" y="27.513663"/>
     <use style="fill-opacity:0;stroke:#ff00ff;stroke-linejoin:miter;stroke-width:1.5;" x="363.64328" xlink:href="#m4b17395596" y="118.418218"/>
    </g>
   </g>
   <g id="line2d_60">
    <path d="M 333.168 27.513663 
L 363.64328 32.86099 
" style="fill:none;stroke:#000080;stroke-linecap:square;stroke-width:1.5;"/>
    <g>
     <use style="fill-opacity:0;stroke:#000080;stroke-width:1.5;" x="333.168" xlink:href="#m1d425ab2af" y="27.513663"/>
     <use style="fill-opacity:0;stroke:#000080;stroke-width:1.5;" x="363.64328" xlink:href="#m1d425ab2af" y="32.86099"/>
    </g>
   </g>
   <g id="line2d_61">
    <path d="M 333.168 294.88 
L 333.168 27.513663 
" style="fill:none;stroke:#000000;stroke-linecap:square;stroke-width:1.5;"/>
   </g>
   <g id="patch_3">
    <path d="M 56.12 294.88 
L 56.12 24.84 
" style="fill:none;stroke:#000000;stroke-linecap:square;stroke-linejoin:miter;stroke-width:0.8;"/>
   </g>
   <g id="patch_4">
    <path d="M 333.168 294.88 
L 333.168 24.84 
" style="fill:none;stroke:#000000;stroke-linecap:square;stroke-linejoin:miter;stroke-width:0.8;"/>
   </g>
   <g id="patch_5">
    <path d="M 56.12 294.88 
L 333.168 294.88 
" style="fill:none;stroke:#000000;stroke-linecap:square;stroke-linejoin:miter;stroke-width:0.8;"/>
   </g>
   <g id="patch_6">
    <path d="M 56.12 24.84 
L 333.168 24.84 
" style="fill:none;stroke:#000000;stroke-linecap:square;stroke-linejoin:miter;stroke-width:0.8;"/>
   </g>
   <g id="text_13">
    <!-- RS -->
    <defs>
     <path d="M 44.390625 34.1875 
Q 47.5625 33.109375 50.5625 29.59375 
Q 53.5625 26.078125 56.59375 19.921875 
L 66.609375 0 
L 56 0 
L 46.6875 18.703125 
Q 43.0625 26.03125 39.671875 28.421875 
Q 36.28125 30.8125 30.421875 30.8125 
L 19.671875 30.8125 
L 19.671875 0 
L 9.8125 0 
L 9.8125 72.90625 
L 32.078125 72.90625 
Q 44.578125 72.90625 50.734375 67.671875 
Q 56.890625 62.453125 56.890625 51.90625 
Q 56.890625 45.015625 53.6875 40.46875 
Q 50.484375 35.9375 44.390625 34.1875 
z
M 19.671875 64.796875 
L 19.671875 38.921875 
L 32.078125 38.921875 
Q 39.203125 38.921875 42.84375 42.21875 
Q 46.484375 45.515625 46.484375 51.90625 
Q 46.484375 58.296875 42.84375 61.546875 
Q 39.203125 64.796875 32.078125 64.796875 
z
" id="DejaVuSans-52"/>
     <path d="M 53.515625 70.515625 
L 53.515625 60.890625 
Q 47.90625 63.578125 42.921875 64.890625 
Q 37.9375 66.21875 33.296875 66.21875 
Q 25.25 66.21875 20.875 63.09375 
Q 16.5 59.96875 16.5 54.203125 
Q 16.5 49.359375 19.40625 46.890625 
Q 22.3125 44.4375 30.421875 42.921875 
L 36.375 41.703125 
Q 47.40625 39.59375 52.65625 34.296875 
Q 57.90625 29 57.90625 20.125 
Q 57.90625 9.515625 50.796875 4.046875 
Q 43.703125 -1.421875 29.984375 -1.421875 
Q 24.8125 -1.421875 18.96875 -0.25 
Q 13.140625 0.921875 6.890625 3.21875 
L 6.890625 13.375 
Q 12.890625 10.015625 18.65625 8.296875 
Q 24.421875 6.59375 29.984375 6.59375 
Q 38.421875 6.59375 43.015625 9.90625 
Q 47.609375 13.234375 47.609375 19.390625 
Q 47.609375 24.75 44.3125 27.78125 
Q 41.015625 30.8125 33.5 32.328125 
L 27.484375 33.5 
Q 16.453125 35.6875 11.515625 40.375 
Q 6.59375 45.0625 6.59375 53.421875 
Q 6.59375 63.09375 13.40625 68.65625 
Q 20.21875 74.21875 32.171875 74.21875 
Q 37.3125 74.21875 42.625 73.28125 
Q 47.953125 72.359375 53.515625 70.515625 
z
" id="DejaVuSans-53"/>
    </defs>
    <g transform="translate(369.18424 294.223611)scale(0.17 -0.17)">
     <use xlink:href="#DejaVuSans-52"/>
     <use x="69.482422" xlink:href="#DejaVuSans-53"/>
    </g>
   </g>
   <g id="text_14">
    <!-- TPE -->
    <defs>
     <path d="M -0.296875 72.90625 
L 61.375 72.90625 
L 61.375 64.59375 
L 35.5 64.59375 
L 35.5 0 
L 25.59375 0 
L 25.59375 64.59375 
L -0.296875 64.59375 
z
" id="DejaVuSans-54"/>
     <path d="M 19.671875 64.796875 
L 19.671875 37.40625 
L 32.078125 37.40625 
Q 38.96875 37.40625 42.71875 40.96875 
Q 46.484375 44.53125 46.484375 51.125 
Q 46.484375 57.671875 42.71875 61.234375 
Q 38.96875 64.796875 32.078125 64.796875 
z
M 9.8125 72.90625 
L 32.078125 72.90625 
Q 44.34375 72.90625 50.609375 67.359375 
Q 56.890625 61.8125 56.890625 51.125 
Q 56.890625 40.328125 50.609375 34.8125 
Q 44.34375 29.296875 32.078125 29.296875 
L 19.671875 29.296875 
L 19.671875 0 
L 9.8125 0 
z
" id="DejaVuSans-50"/>
     <path d="M 9.8125 72.90625 
L 55.90625 72.90625 
L 55.90625 64.59375 
L 19.671875 64.59375 
L 19.671875 43.015625 
L 54.390625 43.015625 
L 54.390625 34.71875 
L 19.671875 34.71875 
L 19.671875 8.296875 
L 56.78125 8.296875 
L 56.78125 0 
L 9.8125 0 
z
" id="DejaVuSans-45"/>
    </defs>
    <g transform="translate(369.18424 208.666383)scale(0.17 -0.17)">
     <use xlink:href="#DejaVuSans-54"/>
     <use x="61.083984" xlink:href="#DejaVuSans-50"/>
     <use x="121.386719" xlink:href="#DejaVuSans-45"/>
    </g>
   </g>
   <g id="text_15">
    <!-- DE -->
    <defs>
     <path d="M 19.671875 64.796875 
L 19.671875 8.109375 
L 31.59375 8.109375 
Q 46.6875 8.109375 53.6875 14.9375 
Q 60.6875 21.78125 60.6875 36.53125 
Q 60.6875 51.171875 53.6875 57.984375 
Q 46.6875 64.796875 31.59375 64.796875 
z
M 9.8125 72.90625 
L 30.078125 72.90625 
Q 51.265625 72.90625 61.171875 64.09375 
Q 71.09375 55.28125 71.09375 36.53125 
Q 71.09375 17.671875 61.125 8.828125 
Q 51.171875 0 30.078125 0 
L 9.8125 0 
z
" id="DejaVuSans-44"/>
    </defs>
    <g transform="translate(369.18424 123.109155)scale(0.17 -0.17)">
     <use xlink:href="#DejaVuSans-44"/>
     <use x="77.001953" xlink:href="#DejaVuSans-45"/>
    </g>
   </g>
   <g id="text_16">
    <!-- CMA-ES -->
    <defs>
     <path d="M 64.40625 67.28125 
L 64.40625 56.890625 
Q 59.421875 61.53125 53.78125 63.8125 
Q 48.140625 66.109375 41.796875 66.109375 
Q 29.296875 66.109375 22.65625 58.46875 
Q 16.015625 50.828125 16.015625 36.375 
Q 16.015625 21.96875 22.65625 14.328125 
Q 29.296875 6.6875 41.796875 6.6875 
Q 48.140625 6.6875 53.78125 8.984375 
Q 59.421875 11.28125 64.40625 15.921875 
L 64.40625 5.609375 
Q 59.234375 2.09375 53.4375 0.328125 
Q 47.65625 -1.421875 41.21875 -1.421875 
Q 24.65625 -1.421875 15.125 8.703125 
Q 5.609375 18.84375 5.609375 36.375 
Q 5.609375 53.953125 15.125 64.078125 
Q 24.65625 74.21875 41.21875 74.21875 
Q 47.75 74.21875 53.53125 72.484375 
Q 59.328125 70.75 64.40625 67.28125 
z
" id="DejaVuSans-43"/>
     <path d="M 9.8125 72.90625 
L 24.515625 72.90625 
L 43.109375 23.296875 
L 61.8125 72.90625 
L 76.515625 72.90625 
L 76.515625 0 
L 66.890625 0 
L 66.890625 64.015625 
L 48.09375 14.015625 
L 38.1875 14.015625 
L 19.390625 64.015625 
L 19.390625 0 
L 9.8125 0 
z
" id="DejaVuSans-4d"/>
     <path d="M 34.1875 63.1875 
L 20.796875 26.90625 
L 47.609375 26.90625 
z
M 28.609375 72.90625 
L 39.796875 72.90625 
L 67.578125 0 
L 57.328125 0 
L 50.6875 18.703125 
L 17.828125 18.703125 
L 11.1875 0 
L 0.78125 0 
z
" id="DejaVuSans-41"/>
    </defs>
    <g transform="translate(369.18424 37.551928)scale(0.17 -0.17)">
     <use xlink:href="#DejaVuSans-43"/>
     <use x="69.824219" xlink:href="#DejaVuSans-4d"/>
     <use x="156.103516" xlink:href="#DejaVuSans-41"/>
     <use x="224.480469" xlink:href="#DejaVuSans-2d"/>
     <use x="260.564453" xlink:href="#DejaVuSans-45"/>
     <use x="323.748047" xlink:href="#DejaVuSans-53"/>
    </g>
   </g>
   <g id="text_17">
    <!-- bbob-mixint f14, 80-D -->
    <defs>
     <path d="M 48.6875 27.296875 
Q 48.6875 37.203125 44.609375 42.84375 
Q 40.53125 48.484375 33.40625 48.484375 
Q 26.265625 48.484375 22.1875 42.84375 
Q 18.109375 37.203125 18.109375 27.296875 
Q 18.109375 17.390625 22.1875 11.75 
Q 26.265625 6.109375 33.40625 6.109375 
Q 40.53125 6.109375 44.609375 11.75 
Q 48.6875 17.390625 48.6875 27.296875 
z
M 18.109375 46.390625 
Q 20.953125 51.265625 25.265625 53.625 
Q 29.59375 56 35.59375 56 
Q 45.5625 56 51.78125 48.09375 
Q 58.015625 40.1875 58.015625 27.296875 
Q 58.015625 14.40625 51.78125 6.484375 
Q 45.5625 -1.421875 35.59375 -1.421875 
Q 29.59375 -1.421875 25.265625 0.953125 
Q 20.953125 3.328125 18.109375 8.203125 
L 18.109375 0 
L 9.078125 0 
L 9.078125 75.984375 
L 18.109375 75.984375 
z
" id="DejaVuSans-62"/>
     <path d="M 54.890625 54.6875 
L 35.109375 28.078125 
L 55.90625 0 
L 45.3125 0 
L 29.390625 21.484375 
L 13.484375 0 
L 2.875 0 
L 24.125 28.609375 
L 4.6875 54.6875 
L 15.28125 54.6875 
L 29.78125 35.203125 
L 44.28125 54.6875 
z
" id="DejaVuSans-78"/>
    </defs>
    <g transform="translate(58.89048 35.290806)scale(0.102 -0.102)">
     <use xlink:href="#DejaVuSans-62"/>
     <use x="63.476562" xlink:href="#DejaVuSans-62"/>
     <use x="126.953125" xlink:href="#DejaVuSans-6f"/>
     <use x="188.134766" xlink:href="#DejaVuSans-62"/>
     <use x="251.611328" xlink:href="#DejaVuSans-2d"/>
     <use x="287.695312" xlink:href="#DejaVuSans-6d"/>
     <use x="385.107422" xlink:href="#DejaVuSans-69"/>
     <use x="412.890625" xlink:href="#DejaVuSans-78"/>
     <use x="472.070312" xlink:href="#DejaVuSans-69"/>
     <use x="499.853516" xlink:href="#DejaVuSans-6e"/>
     <use x="563.232422" xlink:href="#DejaVuSans-74"/>
     <use x="602.441406" xlink:href="#DejaVuSans-20"/>
     <use x="634.228516" xlink:href="#DejaVuSans-66"/>
     <use x="669.433594" xlink:href="#DejaVuSans-31"/>
     <use x="733.056641" xlink:href="#DejaVuSans-34"/>
     <use x="796.679688" xlink:href="#DejaVuSans-2c"/>
     <use x="828.466797" xlink:href="#DejaVuSans-20"/>
     <use x="860.253906" xlink:href="#DejaVuSans-38"/>
     <use x="923.876953" xlink:href="#DejaVuSans-30"/>
     <use x="987.5" xlink:href="#DejaVuSans-2d"/>
     <use x="1023.583984" xlink:href="#DejaVuSans-44"/>
    </g>
    <!-- 51 targets: 100..1e-08 -->
    <defs>
     <path d="M 10.796875 72.90625 
L 49.515625 72.90625 
L 49.515625 64.59375 
L 19.828125 64.59375 
L 19.828125 46.734375 
Q 21.96875 47.46875 24.109375 47.828125 
Q 26.265625 48.1875 28.421875 48.1875 
Q 40.625 48.1875 47.75 41.5 
Q 54.890625 34.8125 54.890625 23.390625 
Q 54.890625 11.625 47.5625 5.09375 
Q 40.234375 -1.421875 26.90625 -1.421875 
Q 22.3125 -1.421875 17.546875 -0.640625 
Q 12.796875 0.140625 7.71875 1.703125 
L 7.71875 11.625 
Q 12.109375 9.234375 16.796875 8.0625 
Q 21.484375 6.890625 26.703125 6.890625 
Q 35.15625 6.890625 40.078125 11.328125 
Q 45.015625 15.765625 45.015625 23.390625 
Q 45.015625 31 40.078125 35.4375 
Q 35.15625 39.890625 26.703125 39.890625 
Q 22.75 39.890625 18.8125 39.015625 
Q 14.890625 38.140625 10.796875 36.28125 
z
" id="DejaVuSans-35"/>
     <path d="M 11.71875 12.40625 
L 22.015625 12.40625 
L 22.015625 0 
L 11.71875 0 
z
M 11.71875 51.703125 
L 22.015625 51.703125 
L 22.015625 39.3125 
L 11.71875 39.3125 
z
" id="DejaVuSans-3a"/>
    </defs>
    <g transform="translate(58.89048 46.712575)scale(0.102 -0.102)">
     <use xlink:href="#DejaVuSans-35"/>
     <use x="63.623047" xlink:href="#DejaVuSans-31"/>
     <use x="127.246094" xlink:href="#DejaVuSans-20"/>
     <use x="159.033203" xlink:href="#DejaVuSans-74"/>
     <use x="198.242188" xlink:href="#DejaVuSans-61"/>
     <use x="259.521484" xlink:href="#DejaVuSans-72"/>
     <use x="300.619141" xlink:href="#DejaVuSans-67"/>
     <use x="364.095703" xlink:href="#DejaVuSans-65"/>
     <use x="425.619141" xlink:href="#DejaVuSans-74"/>
     <use x="464.828125" xlink:href="#DejaVuSans-73"/>
     <use x="516.927734" xlink:href="#DejaVuSans-3a"/>
     <use x="550.619141" xlink:href="#DejaVuSans-20"/>
     <use x="582.40625" xlink:href="#DejaVuSans-31"/>
     <use x="646.029297" xlink:href="#DejaVuSans-30"/>
     <use x="709.652344" xlink:href="#DejaVuSans-30"/>
     <use x="773.275391" xlink:href="#DejaVuSans-2e"/>
     <use x="805.0625" xlink:href="#DejaVuSans-2e"/>
     <use x="836.849609" xlink:href="#DejaVuSans-31"/>
     <use x="900.472656" xlink:href="#DejaVuSans-65"/>
     <use x="961.996094" xlink:href="#DejaVuSans-2d"/>
     <use x="998.080078" xlink:href="#DejaVuSans-30"/>
     <use x="1061.703125" xlink:href="#DejaVuSans-38"/>
    </g>
    <!-- 15 instances -->
    <g transform="translate(58.89048 58.134344)scale(0.102 -0.102)">
     <use xlink:href="#DejaVuSans-31"/>
     <use x="63.623047" xlink:href="#DejaVuSans-35"/>
     <use x="127.246094" xlink:href="#DejaVuSans-20"/>
     <use x="159.033203" xlink:href="#DejaVuSans-69"/>
     <use x="186.816406" xlink:href="#DejaVuSans-6e"/>
     <use x="250.195312" xlink:href="#DejaVuSans-73"/>
     <use x="302.294922" xlink:href="#DejaVuSans-74"/>
     <use x="341.503906" xlink:href="#DejaVuSans-61"/>
     <use x="402.783203" xlink:href="#DejaVuSans-6e"/>
     <use x="466.162109" xlink:href="#DejaVuSans-63"/>
     <use x="521.142578" xlink:href="#DejaVuSans-65"/>
     <use x="582.666016" xlink:href="#DejaVuSans-73"/>
    </g>
   </g>
   <g id="text_18">
    <!-- v2.2.2.645 -->
    <g style="fill:#808080;" transform="translate(167.829937 290.099912)scale(0.1 -0.1)">
     <use xlink:href="#DejaVuSans-76"/>
     <use x="59.179688" xlink:href="#DejaVuSans-32"/>
     <use x="122.802734" xlink:href="#DejaVuSans-2e"/>
     <use x="154.589844" xlink:href="#DejaVuSans-32"/>
     <use x="218.212891" xlink:href="#DejaVuSans-2e"/>
     <use x="250" xlink:href="#DejaVuSans-32"/>
     <use x="313.623047" xlink:href="#DejaVuSans-2e"/>
     <use x="345.410156" xlink:href="#DejaVuSans-36"/>
     <use x="409.033203" xlink:href="#DejaVuSans-34"/>
     <use x="472.65625" xlink:href="#DejaVuSans-35"/>
    </g>
   </g>
   <g id="text_19">
    <!-- 14 Sum of different powers -->
    <defs>
     <path d="M 4.203125 54.6875 
L 13.1875 54.6875 
L 24.421875 12.015625 
L 35.59375 54.6875 
L 46.1875 54.6875 
L 57.421875 12.015625 
L 68.609375 54.6875 
L 77.59375 54.6875 
L 63.28125 0 
L 52.6875 0 
L 40.921875 44.828125 
L 29.109375 0 
L 18.5 0 
z
" id="DejaVuSans-77"/>
    </defs>
    <g transform="translate(58.183063 18.84)scale(0.2 -0.2)">
     <use xlink:href="#DejaVuSans-31"/>
     <use x="63.623047" xlink:href="#DejaVuSans-34"/>
     <use x="127.246094" xlink:href="#DejaVuSans-20"/>
     <use x="159.033203" xlink:href="#DejaVuSans-53"/>
     <use x="222.509766" xlink:href="#DejaVuSans-75"/>
     <use x="285.888672" xlink:href="#DejaVuSans-6d"/>
     <use x="383.300781" xlink:href="#DejaVuSans-20"/>
     <use x="415.087891" xlink:href="#DejaVuSans-6f"/>
     <use x="476.269531" xlink:href="#DejaVuSans-66"/>
     <use x="511.474609" xlink:href="#DejaVuSans-20"/>
     <use x="543.261719" xlink:href="#DejaVuSans-64"/>
     <use x="606.738281" xlink:href="#DejaVuSans-69"/>
     <use x="634.521484" xlink:href="#DejaVuSans-66"/>
     <use x="669.726562" xlink:href="#DejaVuSans-66"/>
     <use x="704.931641" xlink:href="#DejaVuSans-65"/>
     <use x="766.455078" xlink:href="#DejaVuSans-72"/>
     <use x="807.537109" xlink:href="#DejaVuSans-65"/>
     <use x="869.060547" xlink:href="#DejaVuSans-6e"/>
     <use x="932.439453" xlink:href="#DejaVuSans-74"/>
     <use x="971.648438" xlink:href="#DejaVuSans-20"/>
     <use x="1003.435547" xlink:href="#DejaVuSans-70"/>
     <use x="1066.912109" xlink:href="#DejaVuSans-6f"/>
     <use x="1128.09375" xlink:href="#DejaVuSans-77"/>
     <use x="1209.880859" xlink:href="#DejaVuSans-65"/>
     <use x="1271.404297" xlink:href="#DejaVuSans-72"/>
     <use x="1312.517578" xlink:href="#DejaVuSans-73"/>
    </g>
   </g>
  </g>
 </g>
 <defs>
  <clipPath id="pba87e976d7">
   <rect height="270.04" width="277.048" x="56.12" y="24.84"/>
  </clipPath>
 </defs>
</svg>
