<?xml version="1.0" encoding="utf-8" standalone="no"?>
<!DOCTYPE svg PUBLIC "-//W3C//DTD SVG 1.1//EN"
  "http://www.w3.org/Graphics/SVG/1.1/DTD/svg11.dtd">
<!-- Created with matplotlib (http://matplotlib.org/) -->
<svg height="345.6pt" version="1.1" viewBox="0 0 460.8 345.6" width="460.8pt" xmlns="http://www.w3.org/2000/svg" xmlns:xlink="http://www.w3.org/1999/xlink">
 <defs>
  <style type="text/css">
*{stroke-linecap:butt;stroke-linejoin:round;}
  </style>
 </defs>
 <g id="figure_1">
  <g id="patch_1">
   <path d="M 0 345.6 
L 460.8 345.6 
L 460.8 0 
L 0 0 
z
" style="fill:#ffffff;"/>
  </g>
  <g id="axes_1">
   <g id="patch_2">
    <path d="M 56.12 294.88 
L 333.168 294.88 
L 333.168 24.84 
L 56.12 24.84 
z
" style="fill:#ffffff;"/>
   </g>
   <g id="matplotlib.axis_1">
    <g id="xtick_1">
     <g id="line2d_1">
      <path clip-path="url(#p77b37fb225)" d="M 56.12 294.88 
L 56.12 24.84 
" style="fill:none;stroke:#b0b0b0;stroke-linecap:square;stroke-width:0.8;"/>
     </g>
     <g id="line2d_2">
      <defs>
       <path d="M 0 0 
L 0 3.5 
" id="m95491e54f1" style="stroke:#000000;stroke-width:0.8;"/>
      </defs>
      <g>
       <use style="stroke:#000000;stroke-width:0.8;" x="56.12" xlink:href="#m95491e54f1" y="294.88"/>
      </g>
     </g>
     <g id="text_1">
      <!-- 0 -->
      <defs>
       <path d="M 31.78125 66.40625 
Q 24.171875 66.40625 20.328125 58.90625 
Q 16.5 51.421875 16.5 36.375 
Q 16.5 21.390625 20.328125 13.890625 
Q 24.171875 6.390625 31.78125 6.390625 
Q 39.453125 6.390625 43.28125 13.890625 
Q 47.125 21.390625 47.125 36.375 
Q 47.125 51.421875 43.28125 58.90625 
Q 39.453125 66.40625 31.78125 66.40625 
z
M 31.78125 74.21875 
Q 44.046875 74.21875 50.515625 64.515625 
Q 56.984375 54.828125 56.984375 36.375 
Q 56.984375 17.96875 50.515625 8.265625 
Q 44.046875 -1.421875 31.78125 -1.421875 
Q 19.53125 -1.421875 13.0625 8.265625 
Q 6.59375 17.96875 6.59375 36.375 
Q 6.59375 54.828125 13.0625 64.515625 
Q 19.53125 74.21875 31.78125 74.21875 
z
" id="DejaVuSans-30"/>
      </defs>
      <g transform="translate(49.7575 317.076875)scale(0.2 -0.2)">
       <use xlink:href="#DejaVuSans-30"/>
      </g>
     </g>
    </g>
    <g id="xtick_2">
     <g id="line2d_3">
      <path clip-path="url(#p77b37fb225)" d="M 135.276571 294.88 
L 135.276571 24.84 
" style="fill:none;stroke:#b0b0b0;stroke-linecap:square;stroke-width:0.8;"/>
     </g>
     <g id="line2d_4">
      <g>
       <use style="stroke:#000000;stroke-width:0.8;" x="135.276571" xlink:href="#m95491e54f1" y="294.88"/>
      </g>
     </g>
     <g id="text_2">
      <!-- 2 -->
      <defs>
       <path d="M 19.1875 8.296875 
L 53.609375 8.296875 
L 53.609375 0 
L 7.328125 0 
L 7.328125 8.296875 
Q 12.9375 14.109375 22.625 23.890625 
Q 32.328125 33.6875 34.8125 36.53125 
Q 39.546875 41.84375 41.421875 45.53125 
Q 43.3125 49.21875 43.3125 52.78125 
Q 43.3125 58.59375 39.234375 62.25 
Q 35.15625 65.921875 28.609375 65.921875 
Q 23.96875 65.921875 18.8125 64.3125 
Q 13.671875 62.703125 7.8125 59.421875 
L 7.8125 69.390625 
Q 13.765625 71.78125 18.9375 73 
Q 24.125 74.21875 28.421875 74.21875 
Q 39.75 74.21875 46.484375 68.546875 
Q 53.21875 62.890625 53.21875 53.421875 
Q 53.21875 48.921875 51.53125 44.890625 
Q 49.859375 40.875 45.40625 35.40625 
Q 44.1875 33.984375 37.640625 27.21875 
Q 31.109375 20.453125 19.1875 8.296875 
z
" id="DejaVuSans-32"/>
      </defs>
      <g transform="translate(128.914071 317.076875)scale(0.2 -0.2)">
       <use xlink:href="#DejaVuSans-32"/>
      </g>
     </g>
    </g>
    <g id="xtick_3">
     <g id="line2d_5">
      <path clip-path="url(#p77b37fb225)" d="M 214.433143 294.88 
L 214.433143 24.84 
" style="fill:none;stroke:#b0b0b0;stroke-linecap:square;stroke-width:0.8;"/>
     </g>
     <g id="line2d_6">
      <g>
       <use style="stroke:#000000;stroke-width:0.8;" x="214.433143" xlink:href="#m95491e54f1" y="294.88"/>
      </g>
     </g>
     <g id="text_3">
      <!-- 4 -->
      <defs>
       <path d="M 37.796875 64.3125 
L 12.890625 25.390625 
L 37.796875 25.390625 
z
M 35.203125 72.90625 
L 47.609375 72.90625 
L 47.609375 25.390625 
L 58.015625 25.390625 
L 58.015625 17.1875 
L 47.609375 17.1875 
L 47.609375 0 
L 37.796875 0 
L 37.796875 17.1875 
L 4.890625 17.1875 
L 4.890625 26.703125 
z
" id="DejaVuSans-34"/>
      </defs>
      <g transform="translate(208.070643 317.076875)scale(0.2 -0.2)">
       <use xlink:href="#DejaVuSans-34"/>
      </g>
     </g>
    </g>
    <g id="xtick_4">
     <g id="line2d_7">
      <path clip-path="url(#p77b37fb225)" d="M 293.589714 294.88 
L 293.589714 24.84 
" style="fill:none;stroke:#b0b0b0;stroke-linecap:square;stroke-width:0.8;"/>
     </g>
     <g id="line2d_8">
      <g>
       <use style="stroke:#000000;stroke-width:0.8;" x="293.589714" xlink:href="#m95491e54f1" y="294.88"/>
      </g>
     </g>
     <g id="text_4">
      <!-- 6 -->
      <defs>
       <path d="M 33.015625 40.375 
Q 26.375 40.375 22.484375 35.828125 
Q 18.609375 31.296875 18.609375 23.390625 
Q 18.609375 15.53125 22.484375 10.953125 
Q 26.375 6.390625 33.015625 6.390625 
Q 39.65625 6.390625 43.53125 10.953125 
Q 47.40625 15.53125 47.40625 23.390625 
Q 47.40625 31.296875 43.53125 35.828125 
Q 39.65625 40.375 33.015625 40.375 
z
M 52.59375 71.296875 
L 52.59375 62.3125 
Q 48.875 64.0625 45.09375 64.984375 
Q 41.3125 65.921875 37.59375 65.921875 
Q 27.828125 65.921875 22.671875 59.328125 
Q 17.53125 52.734375 16.796875 39.40625 
Q 19.671875 43.65625 24.015625 45.921875 
Q 28.375 48.1875 33.59375 48.1875 
Q 44.578125 48.1875 50.953125 41.515625 
Q 57.328125 34.859375 57.328125 23.390625 
Q 57.328125 12.15625 50.6875 5.359375 
Q 44.046875 -1.421875 33.015625 -1.421875 
Q 20.359375 -1.421875 13.671875 8.265625 
Q 6.984375 17.96875 6.984375 36.375 
Q 6.984375 53.65625 15.1875 63.9375 
Q 23.390625 74.21875 37.203125 74.21875 
Q 40.921875 74.21875 44.703125 73.484375 
Q 48.484375 72.75 52.59375 71.296875 
z
" id="DejaVuSans-36"/>
      </defs>
      <g transform="translate(287.227214 317.076875)scale(0.2 -0.2)">
       <use xlink:href="#DejaVuSans-36"/>
      </g>
     </g>
    </g>
    <g id="xtick_5">
     <g id="line2d_9">
      <path clip-path="url(#p77b37fb225)" d="M 56.12 294.88 
L 56.12 24.84 
" style="fill:none;stroke:#b0b0b0;stroke-linecap:square;stroke-width:0.8;"/>
     </g>
     <g id="line2d_10">
      <defs>
       <path d="M 0 0 
L 0 2 
" id="m09bbb0606e" style="stroke:#000000;stroke-width:0.6;"/>
      </defs>
      <g>
       <use style="stroke:#000000;stroke-width:0.6;" x="56.12" xlink:href="#m09bbb0606e" y="294.88"/>
      </g>
     </g>
    </g>
    <g id="xtick_6">
     <g id="line2d_11">
      <path clip-path="url(#p77b37fb225)" d="M 95.698286 294.88 
L 95.698286 24.84 
" style="fill:none;stroke:#b0b0b0;stroke-linecap:square;stroke-width:0.8;"/>
     </g>
     <g id="line2d_12">
      <g>
       <use style="stroke:#000000;stroke-width:0.6;" x="95.698286" xlink:href="#m09bbb0606e" y="294.88"/>
      </g>
     </g>
    </g>
    <g id="xtick_7">
     <g id="line2d_13">
      <path clip-path="url(#p77b37fb225)" d="M 135.276571 294.88 
L 135.276571 24.84 
" style="fill:none;stroke:#b0b0b0;stroke-linecap:square;stroke-width:0.8;"/>
     </g>
     <g id="line2d_14">
      <g>
       <use style="stroke:#000000;stroke-width:0.6;" x="135.276571" xlink:href="#m09bbb0606e" y="294.88"/>
      </g>
     </g>
    </g>
    <g id="xtick_8">
     <g id="line2d_15">
      <path clip-path="url(#p77b37fb225)" d="M 174.854857 294.88 
L 174.854857 24.84 
" style="fill:none;stroke:#b0b0b0;stroke-linecap:square;stroke-width:0.8;"/>
     </g>
     <g id="line2d_16">
      <g>
       <use style="stroke:#000000;stroke-width:0.6;" x="174.854857" xlink:href="#m09bbb0606e" y="294.88"/>
      </g>
     </g>
    </g>
    <g id="xtick_9">
     <g id="line2d_17">
      <path clip-path="url(#p77b37fb225)" d="M 214.433143 294.88 
L 214.433143 24.84 
" style="fill:none;stroke:#b0b0b0;stroke-linecap:square;stroke-width:0.8;"/>
     </g>
     <g id="line2d_18">
      <g>
       <use style="stroke:#000000;stroke-width:0.6;" x="214.433143" xlink:href="#m09bbb0606e" y="294.88"/>
      </g>
     </g>
    </g>
    <g id="xtick_10">
     <g id="line2d_19">
      <path clip-path="url(#p77b37fb225)" d="M 254.011429 294.88 
L 254.011429 24.84 
" style="fill:none;stroke:#b0b0b0;stroke-linecap:square;stroke-width:0.8;"/>
     </g>
     <g id="line2d_20">
      <g>
       <use style="stroke:#000000;stroke-width:0.6;" x="254.011429" xlink:href="#m09bbb0606e" y="294.88"/>
      </g>
     </g>
    </g>
    <g id="xtick_11">
     <g id="line2d_21">
      <path clip-path="url(#p77b37fb225)" d="M 293.589714 294.88 
L 293.589714 24.84 
" style="fill:none;stroke:#b0b0b0;stroke-linecap:square;stroke-width:0.8;"/>
     </g>
     <g id="line2d_22">
      <g>
       <use style="stroke:#000000;stroke-width:0.6;" x="293.589714" xlink:href="#m09bbb0606e" y="294.88"/>
      </g>
     </g>
    </g>
    <g id="xtick_12">
     <g id="line2d_23">
      <path clip-path="url(#p77b37fb225)" d="M 333.168 294.88 
L 333.168 24.84 
" style="fill:none;stroke:#b0b0b0;stroke-linecap:square;stroke-width:0.8;"/>
     </g>
     <g id="line2d_24">
      <g>
       <use style="stroke:#000000;stroke-width:0.6;" x="333.168" xlink:href="#m09bbb0606e" y="294.88"/>
      </g>
     </g>
    </g>
    <g id="text_5">
     <!-- log10(# f-evals / dimension) -->
     <defs>
      <path d="M 9.421875 75.984375 
L 18.40625 75.984375 
L 18.40625 0 
L 9.421875 0 
z
" id="DejaVuSans-6c"/>
      <path d="M 30.609375 48.390625 
Q 23.390625 48.390625 19.1875 42.75 
Q 14.984375 37.109375 14.984375 27.296875 
Q 14.984375 17.484375 19.15625 11.84375 
Q 23.34375 6.203125 30.609375 6.203125 
Q 37.796875 6.203125 41.984375 11.859375 
Q 46.1875 17.53125 46.1875 27.296875 
Q 46.1875 37.015625 41.984375 42.703125 
Q 37.796875 48.390625 30.609375 48.390625 
z
M 30.609375 56 
Q 42.328125 56 49.015625 48.375 
Q 55.71875 40.765625 55.71875 27.296875 
Q 55.71875 13.875 49.015625 6.21875 
Q 42.328125 -1.421875 30.609375 -1.421875 
Q 18.84375 -1.421875 12.171875 6.21875 
Q 5.515625 13.875 5.515625 27.296875 
Q 5.515625 40.765625 12.171875 48.375 
Q 18.84375 56 30.609375 56 
z
" id="DejaVuSans-6f"/>
      <path d="M 45.40625 27.984375 
Q 45.40625 37.75 41.375 43.109375 
Q 37.359375 48.484375 30.078125 48.484375 
Q 22.859375 48.484375 18.828125 43.109375 
Q 14.796875 37.75 14.796875 27.984375 
Q 14.796875 18.265625 18.828125 12.890625 
Q 22.859375 7.515625 30.078125 7.515625 
Q 37.359375 7.515625 41.375 12.890625 
Q 45.40625 18.265625 45.40625 27.984375 
z
M 54.390625 6.78125 
Q 54.390625 -7.171875 48.1875 -13.984375 
Q 42 -20.796875 29.203125 -20.796875 
Q 24.46875 -20.796875 20.265625 -20.09375 
Q 16.0625 -19.390625 12.109375 -17.921875 
L 12.109375 -9.1875 
Q 16.0625 -11.328125 19.921875 -12.34375 
Q 23.78125 -13.375 27.78125 -13.375 
Q 36.625 -13.375 41.015625 -8.765625 
Q 45.40625 -4.15625 45.40625 5.171875 
L 45.40625 9.625 
Q 42.625 4.78125 38.28125 2.390625 
Q 33.9375 0 27.875 0 
Q 17.828125 0 11.671875 7.65625 
Q 5.515625 15.328125 5.515625 27.984375 
Q 5.515625 40.671875 11.671875 48.328125 
Q 17.828125 56 27.875 56 
Q 33.9375 56 38.28125 53.609375 
Q 42.625 51.21875 45.40625 46.390625 
L 45.40625 54.6875 
L 54.390625 54.6875 
z
" id="DejaVuSans-67"/>
      <path d="M 12.40625 8.296875 
L 28.515625 8.296875 
L 28.515625 63.921875 
L 10.984375 60.40625 
L 10.984375 69.390625 
L 28.421875 72.90625 
L 38.28125 72.90625 
L 38.28125 8.296875 
L 54.390625 8.296875 
L 54.390625 0 
L 12.40625 0 
z
" id="DejaVuSans-31"/>
      <path d="M 31 75.875 
Q 24.46875 64.65625 21.28125 53.65625 
Q 18.109375 42.671875 18.109375 31.390625 
Q 18.109375 20.125 21.3125 9.0625 
Q 24.515625 -2 31 -13.1875 
L 23.1875 -13.1875 
Q 15.875 -1.703125 12.234375 9.375 
Q 8.59375 20.453125 8.59375 31.390625 
Q 8.59375 42.28125 12.203125 53.3125 
Q 15.828125 64.359375 23.1875 75.875 
z
" id="DejaVuSans-28"/>
      <path d="M 51.125 44 
L 36.921875 44 
L 32.8125 27.6875 
L 47.125 27.6875 
z
M 43.796875 71.78125 
L 38.71875 51.515625 
L 52.984375 51.515625 
L 58.109375 71.78125 
L 65.921875 71.78125 
L 60.890625 51.515625 
L 76.125 51.515625 
L 76.125 44 
L 58.984375 44 
L 54.984375 27.6875 
L 70.515625 27.6875 
L 70.515625 20.21875 
L 53.078125 20.21875 
L 48 0 
L 40.1875 0 
L 45.21875 20.21875 
L 30.90625 20.21875 
L 25.875 0 
L 18.015625 0 
L 23.09375 20.21875 
L 7.71875 20.21875 
L 7.71875 27.6875 
L 24.90625 27.6875 
L 29 44 
L 13.28125 44 
L 13.28125 51.515625 
L 30.90625 51.515625 
L 35.890625 71.78125 
z
" id="DejaVuSans-23"/>
      <path id="DejaVuSans-20"/>
      <path d="M 37.109375 75.984375 
L 37.109375 68.5 
L 28.515625 68.5 
Q 23.6875 68.5 21.796875 66.546875 
Q 19.921875 64.59375 19.921875 59.515625 
L 19.921875 54.6875 
L 34.71875 54.6875 
L 34.71875 47.703125 
L 19.921875 47.703125 
L 19.921875 0 
L 10.890625 0 
L 10.890625 47.703125 
L 2.296875 47.703125 
L 2.296875 54.6875 
L 10.890625 54.6875 
L 10.890625 58.5 
Q 10.890625 67.625 15.140625 71.796875 
Q 19.390625 75.984375 28.609375 75.984375 
z
" id="DejaVuSans-66"/>
      <path d="M 4.890625 31.390625 
L 31.203125 31.390625 
L 31.203125 23.390625 
L 4.890625 23.390625 
z
" id="DejaVuSans-2d"/>
      <path d="M 56.203125 29.59375 
L 56.203125 25.203125 
L 14.890625 25.203125 
Q 15.484375 15.921875 20.484375 11.0625 
Q 25.484375 6.203125 34.421875 6.203125 
Q 39.59375 6.203125 44.453125 7.46875 
Q 49.3125 8.734375 54.109375 11.28125 
L 54.109375 2.78125 
Q 49.265625 0.734375 44.1875 -0.34375 
Q 39.109375 -1.421875 33.890625 -1.421875 
Q 20.796875 -1.421875 13.15625 6.1875 
Q 5.515625 13.8125 5.515625 26.8125 
Q 5.515625 40.234375 12.765625 48.109375 
Q 20.015625 56 32.328125 56 
Q 43.359375 56 49.78125 48.890625 
Q 56.203125 41.796875 56.203125 29.59375 
z
M 47.21875 32.234375 
Q 47.125 39.59375 43.09375 43.984375 
Q 39.0625 48.390625 32.421875 48.390625 
Q 24.90625 48.390625 20.390625 44.140625 
Q 15.875 39.890625 15.1875 32.171875 
z
" id="DejaVuSans-65"/>
      <path d="M 2.984375 54.6875 
L 12.5 54.6875 
L 29.59375 8.796875 
L 46.6875 54.6875 
L 56.203125 54.6875 
L 35.6875 0 
L 23.484375 0 
z
" id="DejaVuSans-76"/>
      <path d="M 34.28125 27.484375 
Q 23.390625 27.484375 19.1875 25 
Q 14.984375 22.515625 14.984375 16.5 
Q 14.984375 11.71875 18.140625 8.90625 
Q 21.296875 6.109375 26.703125 6.109375 
Q 34.1875 6.109375 38.703125 11.40625 
Q 43.21875 16.703125 43.21875 25.484375 
L 43.21875 27.484375 
z
M 52.203125 31.203125 
L 52.203125 0 
L 43.21875 0 
L 43.21875 8.296875 
Q 40.140625 3.328125 35.546875 0.953125 
Q 30.953125 -1.421875 24.3125 -1.421875 
Q 15.921875 -1.421875 10.953125 3.296875 
Q 6 8.015625 6 15.921875 
Q 6 25.140625 12.171875 29.828125 
Q 18.359375 34.515625 30.609375 34.515625 
L 43.21875 34.515625 
L 43.21875 35.40625 
Q 43.21875 41.609375 39.140625 45 
Q 35.0625 48.390625 27.6875 48.390625 
Q 23 48.390625 18.546875 47.265625 
Q 14.109375 46.140625 10.015625 43.890625 
L 10.015625 52.203125 
Q 14.9375 54.109375 19.578125 55.046875 
Q 24.21875 56 28.609375 56 
Q 40.484375 56 46.34375 49.84375 
Q 52.203125 43.703125 52.203125 31.203125 
z
" id="DejaVuSans-61"/>
      <path d="M 44.28125 53.078125 
L 44.28125 44.578125 
Q 40.484375 46.53125 36.375 47.5 
Q 32.28125 48.484375 27.875 48.484375 
Q 21.1875 48.484375 17.84375 46.4375 
Q 14.5 44.390625 14.5 40.28125 
Q 14.5 37.15625 16.890625 35.375 
Q 19.28125 33.59375 26.515625 31.984375 
L 29.59375 31.296875 
Q 39.15625 29.25 43.1875 25.515625 
Q 47.21875 21.78125 47.21875 15.09375 
Q 47.21875 7.46875 41.1875 3.015625 
Q 35.15625 -1.421875 24.609375 -1.421875 
Q 20.21875 -1.421875 15.453125 -0.5625 
Q 10.6875 0.296875 5.421875 2 
L 5.421875 11.28125 
Q 10.40625 8.6875 15.234375 7.390625 
Q 20.0625 6.109375 24.8125 6.109375 
Q 31.15625 6.109375 34.5625 8.28125 
Q 37.984375 10.453125 37.984375 14.40625 
Q 37.984375 18.0625 35.515625 20.015625 
Q 33.0625 21.96875 24.703125 23.78125 
L 21.578125 24.515625 
Q 13.234375 26.265625 9.515625 29.90625 
Q 5.8125 33.546875 5.8125 39.890625 
Q 5.8125 47.609375 11.28125 51.796875 
Q 16.75 56 26.8125 56 
Q 31.78125 56 36.171875 55.265625 
Q 40.578125 54.546875 44.28125 53.078125 
z
" id="DejaVuSans-73"/>
      <path d="M 25.390625 72.90625 
L 33.6875 72.90625 
L 8.296875 -9.28125 
L 0 -9.28125 
z
" id="DejaVuSans-2f"/>
      <path d="M 45.40625 46.390625 
L 45.40625 75.984375 
L 54.390625 75.984375 
L 54.390625 0 
L 45.40625 0 
L 45.40625 8.203125 
Q 42.578125 3.328125 38.25 0.953125 
Q 33.9375 -1.421875 27.875 -1.421875 
Q 17.96875 -1.421875 11.734375 6.484375 
Q 5.515625 14.40625 5.515625 27.296875 
Q 5.515625 40.1875 11.734375 48.09375 
Q 17.96875 56 27.875 56 
Q 33.9375 56 38.25 53.625 
Q 42.578125 51.265625 45.40625 46.390625 
z
M 14.796875 27.296875 
Q 14.796875 17.390625 18.875 11.75 
Q 22.953125 6.109375 30.078125 6.109375 
Q 37.203125 6.109375 41.296875 11.75 
Q 45.40625 17.390625 45.40625 27.296875 
Q 45.40625 37.203125 41.296875 42.84375 
Q 37.203125 48.484375 30.078125 48.484375 
Q 22.953125 48.484375 18.875 42.84375 
Q 14.796875 37.203125 14.796875 27.296875 
z
" id="DejaVuSans-64"/>
      <path d="M 9.421875 54.6875 
L 18.40625 54.6875 
L 18.40625 0 
L 9.421875 0 
z
M 9.421875 75.984375 
L 18.40625 75.984375 
L 18.40625 64.59375 
L 9.421875 64.59375 
z
" id="DejaVuSans-69"/>
      <path d="M 52 44.1875 
Q 55.375 50.25 60.0625 53.125 
Q 64.75 56 71.09375 56 
Q 79.640625 56 84.28125 50.015625 
Q 88.921875 44.046875 88.921875 33.015625 
L 88.921875 0 
L 79.890625 0 
L 79.890625 32.71875 
Q 79.890625 40.578125 77.09375 44.375 
Q 74.3125 48.1875 68.609375 48.1875 
Q 61.625 48.1875 57.5625 43.546875 
Q 53.515625 38.921875 53.515625 30.90625 
L 53.515625 0 
L 44.484375 0 
L 44.484375 32.71875 
Q 44.484375 40.625 41.703125 44.40625 
Q 38.921875 48.1875 33.109375 48.1875 
Q 26.21875 48.1875 22.15625 43.53125 
Q 18.109375 38.875 18.109375 30.90625 
L 18.109375 0 
L 9.078125 0 
L 9.078125 54.6875 
L 18.109375 54.6875 
L 18.109375 46.1875 
Q 21.1875 51.21875 25.484375 53.609375 
Q 29.78125 56 35.6875 56 
Q 41.65625 56 45.828125 52.96875 
Q 50 49.953125 52 44.1875 
z
" id="DejaVuSans-6d"/>
      <path d="M 54.890625 33.015625 
L 54.890625 0 
L 45.90625 0 
L 45.90625 32.71875 
Q 45.90625 40.484375 42.875 44.328125 
Q 39.84375 48.1875 33.796875 48.1875 
Q 26.515625 48.1875 22.3125 43.546875 
Q 18.109375 38.921875 18.109375 30.90625 
L 18.109375 0 
L 9.078125 0 
L 9.078125 54.6875 
L 18.109375 54.6875 
L 18.109375 46.1875 
Q 21.34375 51.125 25.703125 53.5625 
Q 30.078125 56 35.796875 56 
Q 45.21875 56 50.046875 50.171875 
Q 54.890625 44.34375 54.890625 33.015625 
z
" id="DejaVuSans-6e"/>
      <path d="M 8.015625 75.875 
L 15.828125 75.875 
Q 23.140625 64.359375 26.78125 53.3125 
Q 30.421875 42.28125 30.421875 31.390625 
Q 30.421875 20.453125 26.78125 9.375 
Q 23.140625 -1.703125 15.828125 -13.1875 
L 8.015625 -13.1875 
Q 14.5 -2 17.703125 9.0625 
Q 20.90625 20.125 20.90625 31.390625 
Q 20.90625 42.671875 17.703125 53.65625 
Q 14.5 64.65625 8.015625 75.875 
z
" id="DejaVuSans-29"/>
     </defs>
     <g transform="translate(73.803219 338.153594)scale(0.17 -0.17)">
      <use xlink:href="#DejaVuSans-6c"/>
      <use x="27.783203" xlink:href="#DejaVuSans-6f"/>
      <use x="88.964844" xlink:href="#DejaVuSans-67"/>
      <use x="152.441406" xlink:href="#DejaVuSans-31"/>
      <use x="216.064453" xlink:href="#DejaVuSans-30"/>
      <use x="279.6875" xlink:href="#DejaVuSans-28"/>
      <use x="318.701172" xlink:href="#DejaVuSans-23"/>
      <use x="402.490234" xlink:href="#DejaVuSans-20"/>
      <use x="434.277344" xlink:href="#DejaVuSans-66"/>
      <use x="469.404297" xlink:href="#DejaVuSans-2d"/>
      <use x="505.488281" xlink:href="#DejaVuSans-65"/>
      <use x="567.011719" xlink:href="#DejaVuSans-76"/>
      <use x="626.191406" xlink:href="#DejaVuSans-61"/>
      <use x="687.470703" xlink:href="#DejaVuSans-6c"/>
      <use x="715.253906" xlink:href="#DejaVuSans-73"/>
      <use x="767.353516" xlink:href="#DejaVuSans-20"/>
      <use x="799.140625" xlink:href="#DejaVuSans-2f"/>
      <use x="832.832031" xlink:href="#DejaVuSans-20"/>
      <use x="864.619141" xlink:href="#DejaVuSans-64"/>
      <use x="928.095703" xlink:href="#DejaVuSans-69"/>
      <use x="955.878906" xlink:href="#DejaVuSans-6d"/>
      <use x="1053.291016" xlink:href="#DejaVuSans-65"/>
      <use x="1114.814453" xlink:href="#DejaVuSans-6e"/>
      <use x="1178.193359" xlink:href="#DejaVuSans-73"/>
      <use x="1230.292969" xlink:href="#DejaVuSans-69"/>
      <use x="1258.076172" xlink:href="#DejaVuSans-6f"/>
      <use x="1319.257812" xlink:href="#DejaVuSans-6e"/>
      <use x="1382.636719" xlink:href="#DejaVuSans-29"/>
     </g>
    </g>
   </g>
   <g id="matplotlib.axis_2">
    <g id="ytick_1">
     <g id="line2d_25">
      <path clip-path="url(#p77b37fb225)" d="M 56.12 294.88 
L 333.168 294.88 
" style="fill:none;stroke:#b0b0b0;stroke-linecap:square;stroke-width:0.8;"/>
     </g>
     <g id="line2d_26">
      <defs>
       <path d="M 0 0 
L -3.5 0 
" id="m34b7397ca4" style="stroke:#000000;stroke-width:0.8;"/>
      </defs>
      <g>
       <use style="stroke:#000000;stroke-width:0.8;" x="56.12" xlink:href="#m34b7397ca4" y="294.88"/>
      </g>
     </g>
     <g id="text_6">
      <!-- 0.0 -->
      <defs>
       <path d="M 10.6875 12.40625 
L 21 12.40625 
L 21 0 
L 10.6875 0 
z
" id="DejaVuSans-2e"/>
      </defs>
      <g transform="translate(23.675 300.95875)scale(0.16 -0.16)">
       <use xlink:href="#DejaVuSans-30"/>
       <use x="63.623047" xlink:href="#DejaVuSans-2e"/>
       <use x="95.410156" xlink:href="#DejaVuSans-30"/>
      </g>
     </g>
    </g>
    <g id="ytick_2">
     <g id="line2d_27">
      <path clip-path="url(#p77b37fb225)" d="M 56.12 241.406733 
L 333.168 241.406733 
" style="fill:none;stroke:#b0b0b0;stroke-linecap:square;stroke-width:0.8;"/>
     </g>
     <g id="line2d_28">
      <g>
       <use style="stroke:#000000;stroke-width:0.8;" x="56.12" xlink:href="#m34b7397ca4" y="241.406733"/>
      </g>
     </g>
     <g id="text_7">
      <!-- 0.2 -->
      <g transform="translate(23.675 247.485483)scale(0.16 -0.16)">
       <use xlink:href="#DejaVuSans-30"/>
       <use x="63.623047" xlink:href="#DejaVuSans-2e"/>
       <use x="95.410156" xlink:href="#DejaVuSans-32"/>
      </g>
     </g>
    </g>
    <g id="ytick_3">
     <g id="line2d_29">
      <path clip-path="url(#p77b37fb225)" d="M 56.12 187.933465 
L 333.168 187.933465 
" style="fill:none;stroke:#b0b0b0;stroke-linecap:square;stroke-width:0.8;"/>
     </g>
     <g id="line2d_30">
      <g>
       <use style="stroke:#000000;stroke-width:0.8;" x="56.12" xlink:href="#m34b7397ca4" y="187.933465"/>
      </g>
     </g>
     <g id="text_8">
      <!-- 0.4 -->
      <g transform="translate(23.675 194.012215)scale(0.16 -0.16)">
       <use xlink:href="#DejaVuSans-30"/>
       <use x="63.623047" xlink:href="#DejaVuSans-2e"/>
       <use x="95.410156" xlink:href="#DejaVuSans-34"/>
      </g>
     </g>
    </g>
    <g id="ytick_4">
     <g id="line2d_31">
      <path clip-path="url(#p77b37fb225)" d="M 56.12 134.460198 
L 333.168 134.460198 
" style="fill:none;stroke:#b0b0b0;stroke-linecap:square;stroke-width:0.8;"/>
     </g>
     <g id="line2d_32">
      <g>
       <use style="stroke:#000000;stroke-width:0.8;" x="56.12" xlink:href="#m34b7397ca4" y="134.460198"/>
      </g>
     </g>
     <g id="text_9">
      <!-- 0.6 -->
      <g transform="translate(23.675 140.538948)scale(0.16 -0.16)">
       <use xlink:href="#DejaVuSans-30"/>
       <use x="63.623047" xlink:href="#DejaVuSans-2e"/>
       <use x="95.410156" xlink:href="#DejaVuSans-36"/>
      </g>
     </g>
    </g>
    <g id="ytick_5">
     <g id="line2d_33">
      <path clip-path="url(#p77b37fb225)" d="M 56.12 80.986931 
L 333.168 80.986931 
" style="fill:none;stroke:#b0b0b0;stroke-linecap:square;stroke-width:0.8;"/>
     </g>
     <g id="line2d_34">
      <g>
       <use style="stroke:#000000;stroke-width:0.8;" x="56.12" xlink:href="#m34b7397ca4" y="80.986931"/>
      </g>
     </g>
     <g id="text_10">
      <!-- 0.8 -->
      <defs>
       <path d="M 31.78125 34.625 
Q 24.75 34.625 20.71875 30.859375 
Q 16.703125 27.09375 16.703125 20.515625 
Q 16.703125 13.921875 20.71875 10.15625 
Q 24.75 6.390625 31.78125 6.390625 
Q 38.8125 6.390625 42.859375 10.171875 
Q 46.921875 13.96875 46.921875 20.515625 
Q 46.921875 27.09375 42.890625 30.859375 
Q 38.875 34.625 31.78125 34.625 
z
M 21.921875 38.8125 
Q 15.578125 40.375 12.03125 44.71875 
Q 8.5 49.078125 8.5 55.328125 
Q 8.5 64.0625 14.71875 69.140625 
Q 20.953125 74.21875 31.78125 74.21875 
Q 42.671875 74.21875 48.875 69.140625 
Q 55.078125 64.0625 55.078125 55.328125 
Q 55.078125 49.078125 51.53125 44.71875 
Q 48 40.375 41.703125 38.8125 
Q 48.828125 37.15625 52.796875 32.3125 
Q 56.78125 27.484375 56.78125 20.515625 
Q 56.78125 9.90625 50.3125 4.234375 
Q 43.84375 -1.421875 31.78125 -1.421875 
Q 19.734375 -1.421875 13.25 4.234375 
Q 6.78125 9.90625 6.78125 20.515625 
Q 6.78125 27.484375 10.78125 32.3125 
Q 14.796875 37.15625 21.921875 38.8125 
z
M 18.3125 54.390625 
Q 18.3125 48.734375 21.84375 45.5625 
Q 25.390625 42.390625 31.78125 42.390625 
Q 38.140625 42.390625 41.71875 45.5625 
Q 45.3125 48.734375 45.3125 54.390625 
Q 45.3125 60.0625 41.71875 63.234375 
Q 38.140625 66.40625 31.78125 66.40625 
Q 25.390625 66.40625 21.84375 63.234375 
Q 18.3125 60.0625 18.3125 54.390625 
z
" id="DejaVuSans-38"/>
      </defs>
      <g transform="translate(23.675 87.065681)scale(0.16 -0.16)">
       <use xlink:href="#DejaVuSans-30"/>
       <use x="63.623047" xlink:href="#DejaVuSans-2e"/>
       <use x="95.410156" xlink:href="#DejaVuSans-38"/>
      </g>
     </g>
    </g>
    <g id="ytick_6">
     <g id="line2d_35">
      <path clip-path="url(#p77b37fb225)" d="M 56.12 27.513663 
L 333.168 27.513663 
" style="fill:none;stroke:#b0b0b0;stroke-linecap:square;stroke-width:0.8;"/>
     </g>
     <g id="line2d_36">
      <g>
       <use style="stroke:#000000;stroke-width:0.8;" x="56.12" xlink:href="#m34b7397ca4" y="27.513663"/>
      </g>
     </g>
     <g id="text_11">
      <!-- 1.0 -->
      <g transform="translate(23.675 33.592413)scale(0.16 -0.16)">
       <use xlink:href="#DejaVuSans-31"/>
       <use x="63.623047" xlink:href="#DejaVuSans-2e"/>
       <use x="95.410156" xlink:href="#DejaVuSans-30"/>
      </g>
     </g>
    </g>
    <g id="text_12">
     <!-- Fraction of function,target pairs -->
     <defs>
      <path d="M 9.8125 72.90625 
L 51.703125 72.90625 
L 51.703125 64.59375 
L 19.671875 64.59375 
L 19.671875 43.109375 
L 48.578125 43.109375 
L 48.578125 34.8125 
L 19.671875 34.8125 
L 19.671875 0 
L 9.8125 0 
z
" id="DejaVuSans-46"/>
      <path d="M 41.109375 46.296875 
Q 39.59375 47.171875 37.8125 47.578125 
Q 36.03125 48 33.890625 48 
Q 26.265625 48 22.1875 43.046875 
Q 18.109375 38.09375 18.109375 28.8125 
L 18.109375 0 
L 9.078125 0 
L 9.078125 54.6875 
L 18.109375 54.6875 
L 18.109375 46.1875 
Q 20.953125 51.171875 25.484375 53.578125 
Q 30.03125 56 36.53125 56 
Q 37.453125 56 38.578125 55.875 
Q 39.703125 55.765625 41.0625 55.515625 
z
" id="DejaVuSans-72"/>
      <path d="M 48.78125 52.59375 
L 48.78125 44.1875 
Q 44.96875 46.296875 41.140625 47.34375 
Q 37.3125 48.390625 33.40625 48.390625 
Q 24.65625 48.390625 19.8125 42.84375 
Q 14.984375 37.3125 14.984375 27.296875 
Q 14.984375 17.28125 19.8125 11.734375 
Q 24.65625 6.203125 33.40625 6.203125 
Q 37.3125 6.203125 41.140625 7.25 
Q 44.96875 8.296875 48.78125 10.40625 
L 48.78125 2.09375 
Q 45.015625 0.34375 40.984375 -0.53125 
Q 36.96875 -1.421875 32.421875 -1.421875 
Q 20.0625 -1.421875 12.78125 6.34375 
Q 5.515625 14.109375 5.515625 27.296875 
Q 5.515625 40.671875 12.859375 48.328125 
Q 20.21875 56 33.015625 56 
Q 37.15625 56 41.109375 55.140625 
Q 45.0625 54.296875 48.78125 52.59375 
z
" id="DejaVuSans-63"/>
      <path d="M 18.3125 70.21875 
L 18.3125 54.6875 
L 36.8125 54.6875 
L 36.8125 47.703125 
L 18.3125 47.703125 
L 18.3125 18.015625 
Q 18.3125 11.328125 20.140625 9.421875 
Q 21.96875 7.515625 27.59375 7.515625 
L 36.8125 7.515625 
L 36.8125 0 
L 27.59375 0 
Q 17.1875 0 13.234375 3.875 
Q 9.28125 7.765625 9.28125 18.015625 
L 9.28125 47.703125 
L 2.6875 47.703125 
L 2.6875 54.6875 
L 9.28125 54.6875 
L 9.28125 70.21875 
z
" id="DejaVuSans-74"/>
      <path d="M 8.5 21.578125 
L 8.5 54.6875 
L 17.484375 54.6875 
L 17.484375 21.921875 
Q 17.484375 14.15625 20.5 10.265625 
Q 23.53125 6.390625 29.59375 6.390625 
Q 36.859375 6.390625 41.078125 11.03125 
Q 45.3125 15.671875 45.3125 23.6875 
L 45.3125 54.6875 
L 54.296875 54.6875 
L 54.296875 0 
L 45.3125 0 
L 45.3125 8.40625 
Q 42.046875 3.421875 37.71875 1 
Q 33.40625 -1.421875 27.6875 -1.421875 
Q 18.265625 -1.421875 13.375 4.4375 
Q 8.5 10.296875 8.5 21.578125 
z
M 31.109375 56 
z
" id="DejaVuSans-75"/>
      <path d="M 11.71875 12.40625 
L 22.015625 12.40625 
L 22.015625 4 
L 14.015625 -11.625 
L 7.71875 -11.625 
L 11.71875 4 
z
" id="DejaVuSans-2c"/>
      <path d="M 18.109375 8.203125 
L 18.109375 -20.796875 
L 9.078125 -20.796875 
L 9.078125 54.6875 
L 18.109375 54.6875 
L 18.109375 46.390625 
Q 20.953125 51.265625 25.265625 53.625 
Q 29.59375 56 35.59375 56 
Q 45.5625 56 51.78125 48.09375 
Q 58.015625 40.1875 58.015625 27.296875 
Q 58.015625 14.40625 51.78125 6.484375 
Q 45.5625 -1.421875 35.59375 -1.421875 
Q 29.59375 -1.421875 25.265625 0.953125 
Q 20.953125 3.328125 18.109375 8.203125 
z
M 48.6875 27.296875 
Q 48.6875 37.203125 44.609375 42.84375 
Q 40.53125 48.484375 33.40625 48.484375 
Q 26.265625 48.484375 22.1875 42.84375 
Q 18.109375 37.203125 18.109375 27.296875 
Q 18.109375 17.390625 22.1875 11.75 
Q 26.265625 6.109375 33.40625 6.109375 
Q 40.53125 6.109375 44.609375 11.75 
Q 48.6875 17.390625 48.6875 27.296875 
z
" id="DejaVuSans-70"/>
     </defs>
     <g transform="translate(16.139531 294.999375)rotate(-90)scale(0.17 -0.17)">
      <use xlink:href="#DejaVuSans-46"/>
      <use x="57.410156" xlink:href="#DejaVuSans-72"/>
      <use x="98.523438" xlink:href="#DejaVuSans-61"/>
      <use x="159.802734" xlink:href="#DejaVuSans-63"/>
      <use x="214.783203" xlink:href="#DejaVuSans-74"/>
      <use x="253.992188" xlink:href="#DejaVuSans-69"/>
      <use x="281.775391" xlink:href="#DejaVuSans-6f"/>
      <use x="342.957031" xlink:href="#DejaVuSans-6e"/>
      <use x="406.335938" xlink:href="#DejaVuSans-20"/>
      <use x="438.123047" xlink:href="#DejaVuSans-6f"/>
      <use x="499.304688" xlink:href="#DejaVuSans-66"/>
      <use x="534.509766" xlink:href="#DejaVuSans-20"/>
      <use x="566.296875" xlink:href="#DejaVuSans-66"/>
      <use x="601.501953" xlink:href="#DejaVuSans-75"/>
      <use x="664.880859" xlink:href="#DejaVuSans-6e"/>
      <use x="728.259766" xlink:href="#DejaVuSans-63"/>
      <use x="783.240234" xlink:href="#DejaVuSans-74"/>
      <use x="822.449219" xlink:href="#DejaVuSans-69"/>
      <use x="850.232422" xlink:href="#DejaVuSans-6f"/>
      <use x="911.414062" xlink:href="#DejaVuSans-6e"/>
      <use x="974.792969" xlink:href="#DejaVuSans-2c"/>
      <use x="1006.580078" xlink:href="#DejaVuSans-74"/>
      <use x="1045.789062" xlink:href="#DejaVuSans-61"/>
      <use x="1107.068359" xlink:href="#DejaVuSans-72"/>
      <use x="1148.166016" xlink:href="#DejaVuSans-67"/>
      <use x="1211.642578" xlink:href="#DejaVuSans-65"/>
      <use x="1273.166016" xlink:href="#DejaVuSans-74"/>
      <use x="1312.375" xlink:href="#DejaVuSans-20"/>
      <use x="1344.162109" xlink:href="#DejaVuSans-70"/>
      <use x="1407.638672" xlink:href="#DejaVuSans-61"/>
      <use x="1468.917969" xlink:href="#DejaVuSans-69"/>
      <use x="1496.701172" xlink:href="#DejaVuSans-72"/>
      <use x="1537.814453" xlink:href="#DejaVuSans-73"/>
     </g>
    </g>
   </g>
   <g id="line2d_37">
    <defs>
     <path d="M 0 1.5 
C 0.397805 1.5 0.77937 1.341951 1.06066 1.06066 
C 1.341951 0.77937 1.5 0.397805 1.5 0 
C 1.5 -0.397805 1.341951 -0.77937 1.06066 -1.06066 
C 0.77937 -1.341951 0.397805 -1.5 0 -1.5 
C -0.397805 -1.5 -0.77937 -1.341951 -1.06066 -1.06066 
C -1.341951 -0.77937 -1.5 -0.397805 -1.5 0 
C -1.5 0.397805 -1.341951 0.77937 -1.06066 1.06066 
C -0.77937 1.341951 -0.397805 1.5 0 1.5 
z
" id="md3628389ad" style="stroke:#000080;"/>
    </defs>
    <g>
     <use style="fill:#000080;stroke:#000080;" x="199.271559" xlink:href="#md3628389ad" y="27.513663"/>
     <use style="fill:#000080;stroke:#000080;" x="199.271559" xlink:href="#md3628389ad" y="27.513663"/>
    </g>
   </g>
   <g id="line2d_38">
    <path d="M 4.627463 294.88 
L 4.627463 285.443541 
L 16.541714 285.443541 
L 16.541714 282.298055 
L 23.511104 282.298055 
L 23.511104 281.249559 
L 28.455965 281.249559 
L 28.455965 280.201064 
L 32.291498 280.201064 
L 32.291498 279.152568 
L 35.425356 279.152568 
L 35.425356 278.628321 
L 38.074995 278.628321 
L 38.074995 277.579825 
L 47.339607 277.579825 
L 47.339607 277.055578 
L 48.715431 277.055578 
L 48.715431 276.53133 
L 49.989246 276.53133 
L 49.989246 276.007082 
L 51.175139 276.007082 
L 51.175139 275.482834 
L 52.284468 275.482834 
L 52.284468 274.958587 
L 59.955532 274.958587 
L 59.955532 273.910091 
L 63.08939 273.910091 
L 63.08939 273.385844 
L 68.458683 273.385844 
L 68.458683 272.337348 
L 68.872887 272.337348 
L 68.872887 271.8131 
L 70.436568 271.8131 
L 70.436568 271.288853 
L 71.869783 271.288853 
L 71.869783 270.764605 
L 74.42092 270.764605 
L 74.42092 269.716109 
L 76.379466 269.716109 
L 76.379466 269.191862 
L 77.405958 269.191862 
L 77.405958 268.667614 
L 81.191596 268.667614 
L 81.191596 268.143366 
L 81.39031 268.143366 
L 81.39031 267.619119 
L 83.260482 267.619119 
L 83.260482 267.094871 
L 88.425431 267.094871 
L 88.425431 266.570623 
L 88.814625 266.570623 
L 88.814625 266.046375 
L 89.320209 266.046375 
L 89.320209 265.522128 
L 89.567532 265.522128 
L 89.567532 264.99788 
L 89.689871 264.99788 
L 89.689871 264.473632 
L 90.867635 264.473632 
L 90.867635 263.949385 
L 91.862754 263.949385 
L 91.862754 263.425137 
L 93.403064 263.425137 
L 93.403064 262.900889 
L 94.26507 262.900889 
L 94.26507 262.376641 
L 98.323352 262.376641 
L 98.323352 261.852394 
L 99.806659 261.852394 
L 99.806659 261.328146 
L 100.535381 261.328146 
L 100.535381 260.803898 
L 100.983527 260.803898 
L 100.983527 260.279651 
L 102.025581 260.279651 
L 102.025581 259.755403 
L 102.378785 259.755403 
L 102.378785 259.231155 
L 102.951792 259.231155 
L 102.951792 258.706907 
L 103.615101 258.706907 
L 103.615101 258.18266 
L 103.937397 258.18266 
L 103.937397 257.658412 
L 104.615641 257.658412 
L 104.615641 257.134164 
L 105.218813 257.134164 
L 105.218813 256.085669 
L 106.318878 256.085669 
L 106.318878 255.561421 
L 107.698266 255.561421 
L 107.698266 253.988678 
L 109.902386 253.988678 
L 109.902386 252.415935 
L 110.530183 252.415935 
L 110.530183 251.891687 
L 110.88904 251.891687 
L 110.88904 251.367439 
L 111.205728 251.367439 
L 111.205728 249.794696 
L 112.286705 249.794696 
L 112.286705 249.270448 
L 112.57887 249.270448 
L 112.57887 248.746201 
L 112.992308 248.746201 
L 112.992308 248.221953 
L 113.579218 248.221953 
L 113.579218 247.697705 
L 113.790495 247.697705 
L 113.790495 245.600714 
L 113.910068 245.600714 
L 113.999206 244.027971 
L 114.146749 244.027971 
L 114.146749 243.503724 
L 114.866043 243.503724 
L 114.866043 242.979476 
L 115.034286 242.979476 
L 115.034286 242.455228 
L 115.771639 242.455228 
L 115.771639 241.93098 
L 116.246202 241.93098 
L 116.246202 239.309742 
L 116.884309 239.309742 
L 116.884309 238.261246 
L 117.0836 238.261246 
L 117.0836 237.736999 
L 117.37827 237.736999 
L 117.37827 237.212751 
L 118.892126 237.212751 
L 118.892126 235.640008 
L 119.909246 235.640008 
L 119.909246 235.11576 
L 120.034863 235.11576 
L 120.034863 234.067265 
L 120.589052 234.067265 
L 120.589052 233.543017 
L 120.809808 233.543017 
L 120.869526 232.494521 
L 121.20406 232.494521 
L 121.20406 231.970274 
L 121.570405 231.970274 
L 121.570405 231.446026 
L 121.778985 231.446026 
L 121.778985 230.921778 
L 121.910411 230.921778 
L 121.910411 230.397531 
L 122.389953 230.397531 
L 122.480659 226.727797 
L 123.189569 226.727797 
L 123.189569 226.203549 
L 123.413809 226.203549 
L 123.413809 225.155053 
L 123.68584 225.155053 
L 123.68584 223.58231 
L 124.298898 223.58231 
L 124.298898 222.533815 
L 124.95363 222.533815 
L 124.95363 222.009567 
L 125.279564 222.009567 
L 125.279564 221.485319 
L 125.674722 221.485319 
L 125.779577 220.436824 
L 126.163531 220.436824 
L 126.207287 218.339833 
L 126.567649 218.339833 
L 126.567649 216.76709 
L 127.858776 216.76709 
L 127.951152 215.718594 
L 130.784069 215.718594 
L 130.784069 215.194347 
L 132.084173 215.194347 
L 132.084173 214.670099 
L 133.166963 214.670099 
L 133.166963 213.621604 
L 134.797263 213.621604 
L 134.797263 213.097356 
L 135.901068 213.097356 
L 135.901068 212.573108 
L 137.339255 212.573108 
L 137.339255 212.04886 
L 139.180721 212.04886 
L 139.22176 209.95187 
L 140.035654 209.95187 
L 140.035654 209.427622 
L 140.249341 209.427622 
L 140.249341 208.903374 
L 143.231301 208.903374 
L 143.231301 206.806383 
L 144.081012 206.806383 
L 144.101597 205.757888 
L 144.593386 205.757888 
L 144.593386 205.23364 
L 144.821777 205.23364 
L 144.821777 203.136649 
L 145.673326 203.136649 
L 145.673326 202.088154 
L 147.323521 202.088154 
L 147.323521 201.563906 
L 149.686303 201.563906 
L 149.686303 201.039658 
L 150.492167 201.039658 
L 150.492167 200.515411 
L 151.343126 200.515411 
L 151.343126 196.845677 
L 151.614346 196.845677 
L 151.660793 195.797181 
L 152.69583 195.797181 
L 152.779852 194.224438 
L 153.929489 194.224438 
L 153.929489 193.175943 
L 154.163077 193.175943 
L 154.234536 192.127447 
L 154.897602 192.127447 
L 154.897602 191.603199 
L 155.935943 191.603199 
L 155.935943 190.030456 
L 156.547576 190.030456 
L 156.547576 189.506209 
L 157.027015 189.506209 
L 157.027015 188.457713 
L 157.195911 188.457713 
L 157.195911 187.933465 
L 157.526449 187.933465 
L 157.538221 185.836474 
L 157.988868 185.836474 
L 157.988868 185.312227 
L 158.196251 185.312227 
L 158.196251 184.787979 
L 158.60587 184.787979 
L 158.60587 184.263731 
L 159.259079 184.263731 
L 159.259079 183.739484 
L 159.529506 183.739484 
L 159.600629 182.16674 
L 159.708838 182.16674 
L 159.762689 178.497006 
L 159.849323 178.497006 
L 159.865775 177.448511 
L 160.021293 177.448511 
L 160.09447 176.400016 
L 160.272049 176.400016 
L 160.272049 175.35152 
L 160.688547 175.35152 
L 160.688547 174.827272 
L 161.232427 174.827272 
L 161.232427 174.303025 
L 161.398684 174.303025 
L 161.398684 173.254529 
L 162.131166 173.254529 
L 162.131166 172.730281 
L 162.427683 172.730281 
L 162.454226 170.109043 
L 162.85272 170.109043 
L 162.85272 169.584795 
L 163.2016 169.584795 
L 163.2016 169.060547 
L 163.536901 169.060547 
L 163.604837 168.012052 
L 163.990747 168.012052 
L 164.000446 166.963557 
L 164.129249 166.963557 
L 164.129249 166.439309 
L 164.701862 166.439309 
L 164.701862 164.866566 
L 164.880896 164.866566 
L 164.885501 163.81807 
L 165.059603 163.81807 
L 165.14751 161.721079 
L 165.747658 161.721079 
L 165.747658 161.196832 
L 165.88579 161.196832 
L 165.982546 160.148336 
L 166.114524 160.148336 
L 166.123096 158.575593 
L 166.231309 158.575593 
L 166.340254 157.527098 
L 166.351534 157.527098 
L 166.412035 155.430107 
L 166.814598 155.430107 
L 166.814598 154.381611 
L 166.98525 154.381611 
L 166.98525 153.857364 
L 167.206606 153.857364 
L 167.289553 152.808868 
L 167.353496 152.808868 
L 167.460863 150.711877 
L 167.620012 150.711877 
L 167.704901 148.614886 
L 167.786779 148.614886 
L 167.786779 148.090639 
L 168.17902 148.090639 
L 168.280108 145.993648 
L 168.310318 145.993648 
L 168.310318 144.945152 
L 168.429384 144.945152 
L 168.495454 143.896657 
L 168.914574 143.896657 
L 169.015061 142.848162 
L 169.093347 142.848162 
L 169.196381 141.275418 
L 169.474818 141.275418 
L 169.565078 138.65418 
L 170.147838 138.65418 
L 170.147838 138.129932 
L 170.352306 138.129932 
L 170.352306 137.081437 
L 170.470281 137.081437 
L 170.472499 134.460198 
L 171.164811 134.460198 
L 171.164811 133.93595 
L 171.309076 133.93595 
L 171.309076 132.887455 
L 171.492947 132.887455 
L 171.492947 131.314712 
L 171.693475 131.314712 
L 171.737836 128.169225 
L 171.886585 128.169225 
L 171.908022 126.596482 
L 172.115892 126.596482 
L 172.115892 125.023739 
L 172.386884 125.023739 
L 172.487784 121.354005 
L 172.765642 121.354005 
L 172.820872 118.732766 
L 172.878817 118.732766 
L 172.943294 116.111528 
L 172.999871 116.111528 
L 173.094391 114.538785 
L 173.127683 114.538785 
L 173.127683 114.014537 
L 173.634245 114.014537 
L 173.691356 112.441794 
L 173.876123 112.441794 
L 173.876123 111.393298 
L 174.306479 111.393298 
L 174.368477 109.296308 
L 174.453142 109.296308 
L 174.544394 107.199317 
L 174.769562 107.199317 
L 174.813555 106.150821 
L 174.890915 106.150821 
L 174.890915 105.626573 
L 175.064139 105.626573 
L 175.072627 104.05383 
L 175.252437 104.05383 
L 175.350412 99.859849 
L 175.422905 99.859849 
L 175.422905 99.335601 
L 175.599929 99.335601 
L 175.706584 96.714362 
L 175.823958 96.714362 
L 175.907424 95.141619 
L 175.966334 95.141619 
L 175.966334 94.617371 
L 176.250767 94.617371 
L 176.250767 94.093124 
L 176.596709 94.093124 
L 176.596709 93.568876 
L 176.709721 93.568876 
L 176.709721 93.044628 
L 176.824294 93.044628 
L 176.903052 88.326399 
L 176.951047 88.326399 
L 176.963975 87.277903 
L 177.141697 87.277903 
L 177.204781 86.229408 
L 177.446695 86.229408 
L 177.476235 84.132417 
L 177.725296 84.132417 
L 177.810899 82.559674 
L 177.917665 82.559674 
L 178.011618 79.938435 
L 178.04877 79.938435 
L 178.04877 79.414188 
L 178.23969 79.414188 
L 178.276353 77.841444 
L 178.591097 77.841444 
L 178.679385 74.695958 
L 178.843714 74.695958 
L 178.90765 72.598967 
L 178.960523 72.598967 
L 179.009861 70.501976 
L 179.304937 70.501976 
L 179.366523 68.929233 
L 179.508715 68.929233 
L 179.571535 67.880738 
L 179.909161 67.880738 
L 179.98266 64.735251 
L 180.634671 64.735251 
L 180.672085 62.638261 
L 181.158941 62.638261 
L 181.158941 62.114013 
L 181.428396 62.114013 
L 181.512617 61.065517 
L 181.981092 61.065517 
L 182.081291 58.968526 
L 182.094833 58.968526 
L 182.136518 57.395783 
L 182.280512 57.395783 
L 182.280512 56.871536 
L 182.500601 56.871536 
L 182.597278 52.677554 
L 182.724434 52.677554 
L 182.76191 51.104811 
L 182.907774 51.104811 
L 182.951293 50.056315 
L 183.416079 50.056315 
L 183.416079 49.00782 
L 183.542007 49.00782 
L 183.595843 47.959324 
L 184.2927 47.959324 
L 184.2927 46.386581 
L 185.240343 46.386581 
L 185.240343 45.338086 
L 185.99027 45.338086 
L 185.99027 44.813838 
L 187.64127 44.813838 
L 187.745518 43.765343 
L 187.766211 43.765343 
L 187.871722 40.619856 
L 187.87978 40.619856 
L 187.980593 37.998618 
L 188.027385 37.998618 
L 188.027385 36.950122 
L 188.354541 36.950122 
L 188.354541 36.425875 
L 189.189725 36.425875 
L 189.189725 35.901627 
L 189.627544 35.901627 
L 189.627544 34.853131 
L 189.86999 34.853131 
L 189.86999 34.328884 
L 190.175103 34.328884 
L 190.175103 33.804636 
L 190.403391 33.804636 
L 190.403391 32.756141 
L 190.794043 32.756141 
L 190.841917 31.707645 
L 191.29432 31.707645 
L 191.29432 31.183397 
L 191.777236 31.183397 
L 191.777236 30.65915 
L 193.084504 30.65915 
L 193.084504 30.134902 
L 193.321234 30.134902 
L 193.321234 29.086407 
L 198.005169 29.086407 
L 198.005169 28.562159 
L 198.845668 28.562159 
L 198.845668 28.037911 
L 199.271559 28.037911 
L 199.271559 27.513663 
L 333.168 27.513663 
L 333.168 27.513663 
" style="fill:none;stroke:#000080;stroke-linecap:square;stroke-width:1.5;"/>
   </g>
   <g id="line2d_39">
    <defs>
     <path d="M 0 6 
C 1.591219 6 3.117479 5.367802 4.242641 4.242641 
C 5.367802 3.117479 6 1.591219 6 0 
C 6 -1.591219 5.367802 -3.117479 4.242641 -4.242641 
C 3.117479 -5.367802 1.591219 -6 0 -6 
C -1.591219 -6 -3.117479 -5.367802 -4.242641 -4.242641 
C -5.367802 -3.117479 -6 -1.591219 -6 0 
C -6 1.591219 -5.367802 3.117479 -4.242641 4.242641 
C -3.117479 5.367802 -1.591219 6 0 6 
z
" id="m6de2de79b0" style="stroke:#000080;stroke-width:1.5;"/>
    </defs>
    <g>
     <use style="fill-opacity:0;stroke:#000080;stroke-width:1.5;" x="74.42092" xlink:href="#m6de2de79b0" y="270.764605"/>
     <use style="fill-opacity:0;stroke:#000080;stroke-width:1.5;" x="151.660793" xlink:href="#m6de2de79b0" y="195.797181"/>
     <use style="fill-opacity:0;stroke:#000080;stroke-width:1.5;" x="175.636923" xlink:href="#m6de2de79b0" y="97.23861"/>
     <use style="fill-opacity:0;stroke:#000080;stroke-width:1.5;" x="199.271559" xlink:href="#m6de2de79b0" y="27.513663"/>
     <use style="fill-opacity:0;stroke:#000080;stroke-width:1.5;" x="199.271559" xlink:href="#m6de2de79b0" y="27.513663"/>
     <use style="fill-opacity:0;stroke:#000080;stroke-width:1.5;" x="333.168" xlink:href="#m6de2de79b0" y="27.513663"/>
    </g>
   </g>
   <g id="line2d_40">
    <path style="fill:none;stroke:#000080;stroke-linecap:square;stroke-width:1.5;"/>
    <g/>
   </g>
   <g id="line2d_41">
    <defs>
     <path d="M 0 1.5 
C 0.397805 1.5 0.77937 1.341951 1.06066 1.06066 
C 1.341951 0.77937 1.5 0.397805 1.5 0 
C 1.5 -0.397805 1.341951 -0.77937 1.06066 -1.06066 
C 0.77937 -1.341951 0.397805 -1.5 0 -1.5 
C -0.397805 -1.5 -0.77937 -1.341951 -1.06066 -1.06066 
C -1.341951 -0.77937 -1.5 -0.397805 -1.5 0 
C -1.5 0.397805 -1.341951 0.77937 -1.06066 1.06066 
C -0.77937 1.341951 -0.397805 1.5 0 1.5 
z
" id="me2f074c906" style="stroke:#ff00ff;"/>
    </defs>
    <g>
     <use style="fill:#ff00ff;stroke:#ff00ff;" x="191.892765" xlink:href="#me2f074c906" y="27.513663"/>
     <use style="fill:#ff00ff;stroke:#ff00ff;" x="191.892765" xlink:href="#me2f074c906" y="27.513663"/>
    </g>
   </g>
   <g id="line2d_42">
    <path d="M 4.627463 294.88 
L 4.627463 291.210266 
L 16.541714 291.210266 
L 16.541714 285.443541 
L 23.511104 285.443541 
L 23.511104 284.919293 
L 28.455965 284.919293 
L 28.455965 283.34655 
L 35.425356 283.34655 
L 35.425356 282.822302 
L 40.370217 282.822302 
L 40.370217 281.773807 
L 45.844 281.773807 
L 45.844 281.249559 
L 48.715431 281.249559 
L 48.715431 280.201064 
L 51.175139 280.201064 
L 51.175139 279.676816 
L 58.522316 279.676816 
L 58.522316 278.628321 
L 63.653002 278.628321 
L 63.653002 278.104073 
L 68.872887 278.104073 
L 68.872887 276.53133 
L 78.137499 276.53133 
L 78.137499 276.007082 
L 78.60845 276.007082 
L 78.60845 275.482834 
L 83.784035 275.482834 
L 83.784035 274.434339 
L 84.946994 274.434339 
L 84.946994 273.910091 
L 87.619567 273.910091 
L 87.619567 273.385844 
L 87.892408 273.385844 
L 87.892408 272.861596 
L 95.174734 272.861596 
L 95.174734 272.337348 
L 95.869318 272.337348 
L 95.869318 271.8131 
L 96.618578 271.8131 
L 96.618578 271.288853 
L 100.600121 271.288853 
L 100.600121 270.764605 
L 102.724876 270.764605 
L 102.724876 270.240357 
L 106.318878 270.240357 
L 106.318878 269.191862 
L 111.135855 269.191862 
L 111.205728 268.143366 
L 111.72091 268.143366 
L 111.72091 267.619119 
L 112.929346 267.619119 
L 112.929346 267.094871 
L 113.365313 267.094871 
L 113.365313 266.570623 
L 114.028816 266.570623 
L 114.028816 266.046375 
L 118.599834 266.046375 
L 118.599834 264.99788 
L 119.003236 264.99788 
L 119.003236 263.949385 
L 119.930246 263.949385 
L 119.930246 263.425137 
L 120.849643 263.425137 
L 120.849643 262.900889 
L 122.243822 262.900889 
L 122.243822 262.376641 
L 123.953634 262.376641 
L 123.953634 261.852394 
L 124.653315 261.852394 
L 124.653315 261.328146 
L 126.178129 261.328146 
L 126.178129 260.803898 
L 127.538232 260.803898 
L 127.538232 260.279651 
L 130.019497 260.279651 
L 130.042819 259.231155 
L 131.990784 259.231155 
L 131.990784 258.706907 
L 132.310342 258.706907 
L 132.391853 257.134164 
L 133.196088 257.134164 
L 133.196088 256.085669 
L 133.6555 256.085669 
L 133.6555 255.561421 
L 135.709386 255.561421 
L 135.709386 255.037173 
L 138.715666 255.037173 
L 138.785881 253.46443 
L 138.925457 253.46443 
L 138.932406 249.270448 
L 139.228591 249.270448 
L 139.228591 248.221953 
L 139.839061 248.221953 
L 139.839061 247.697705 
L 140.074705 247.697705 
L 140.074705 246.64921 
L 142.171316 246.64921 
L 142.171316 245.076467 
L 142.467974 245.076467 
L 142.467974 244.552219 
L 142.815118 244.552219 
L 142.903576 241.93098 
L 143.7062 241.93098 
L 143.7902 240.882485 
L 144.553354 240.882485 
L 144.553354 239.83399 
L 144.797098 239.83399 
L 144.797098 238.785494 
L 148.029459 238.785494 
L 148.029459 238.261246 
L 148.228832 238.261246 
L 148.228832 237.736999 
L 149.123434 237.736999 
L 149.123434 236.688503 
L 149.272552 236.688503 
L 149.272552 236.164255 
L 149.431707 236.164255 
L 149.431707 235.640008 
L 149.652822 235.640008 
L 149.652822 234.067265 
L 150.492167 234.067265 
L 150.492167 233.018769 
L 150.790985 233.018769 
L 150.818844 231.970274 
L 151.077843 231.970274 
L 151.183767 229.873283 
L 151.393676 229.873283 
L 151.450787 228.30054 
L 151.933608 228.30054 
L 151.933608 227.776292 
L 152.160375 227.776292 
L 152.160375 227.252044 
L 153.108845 227.252044 
L 153.169647 224.106558 
L 153.25139 224.106558 
L 153.25139 223.058063 
L 153.532981 223.058063 
L 153.532981 222.009567 
L 153.757324 222.009567 
L 153.847999 220.961072 
L 154.339752 220.961072 
L 154.362418 219.388328 
L 154.497784 219.388328 
L 154.497784 218.339833 
L 154.74599 218.339833 
L 154.74599 217.815585 
L 154.897602 217.815585 
L 154.897602 217.291338 
L 155.349925 217.291338 
L 155.349925 216.76709 
L 156.205102 216.76709 
L 156.283768 214.670099 
L 156.319177 214.670099 
L 156.319177 214.145851 
L 156.614763 214.145851 
L 156.614763 213.621604 
L 157.147824 213.621604 
L 157.147824 213.097356 
L 157.265399 213.097356 
L 157.327461 212.04886 
L 157.926853 212.04886 
L 157.926853 211.524613 
L 158.059796 211.524613 
L 158.059796 211.000365 
L 158.19172 211.000365 
L 158.22115 208.379126 
L 158.786295 208.379126 
L 158.786295 207.330631 
L 158.94317 207.330631 
L 158.94317 206.806383 
L 159.165129 206.806383 
L 159.195078 205.757888 
L 159.44124 205.757888 
L 159.472816 203.660897 
L 159.71506 203.660897 
L 159.71506 203.136649 
L 160.078236 203.136649 
L 160.078236 202.612401 
L 160.392082 202.612401 
L 160.398061 201.039658 
L 160.666979 201.039658 
L 160.706173 199.466915 
L 160.780397 199.466915 
L 160.780397 198.942667 
L 161.091363 198.942667 
L 161.091363 197.894172 
L 161.609842 197.894172 
L 161.713534 195.272933 
L 161.818438 195.272933 
L 161.900808 193.175943 
L 161.975513 193.175943 
L 162.026346 191.078952 
L 162.25325 191.078952 
L 162.25325 190.554704 
L 162.680823 190.554704 
L 162.680823 190.030456 
L 162.873439 190.030456 
L 162.87689 188.981961 
L 163.036594 188.981961 
L 163.036594 187.933465 
L 163.233737 187.933465 
L 163.233737 186.88497 
L 163.438666 186.88497 
L 163.447012 185.312227 
L 163.652728 185.312227 
L 163.652728 184.787979 
L 163.860898 184.787979 
L 163.938925 183.215236 
L 164.413996 183.215236 
L 164.503688 180.06975 
L 164.808581 180.06975 
L 164.808581 179.545502 
L 165.039839 179.545502 
L 165.086933 177.448511 
L 165.374282 177.448511 
L 165.374282 176.924263 
L 165.656906 176.924263 
L 165.656906 175.35152 
L 165.875649 175.35152 
L 165.875649 174.827272 
L 166.047227 174.827272 
L 166.047227 172.730281 
L 166.551917 172.730281 
L 166.551917 172.206034 
L 166.914464 172.206034 
L 166.914464 171.681786 
L 167.501777 171.681786 
L 167.542594 170.633291 
L 167.756932 170.633291 
L 167.756932 169.060547 
L 168.018592 169.060547 
L 168.08753 167.487804 
L 168.161269 167.487804 
L 168.161269 166.963557 
L 168.344242 166.963557 
L 168.430633 165.390813 
L 168.563749 165.390813 
L 168.563749 164.866566 
L 168.740057 164.866566 
L 168.812275 163.81807 
L 168.870806 163.81807 
L 168.878109 162.245327 
L 169.092146 162.245327 
L 169.141347 160.672584 
L 169.277415 160.672584 
L 169.381718 159.624089 
L 169.527625 159.624089 
L 169.600116 158.051345 
L 169.650213 158.051345 
L 169.731456 154.905859 
L 170.024207 154.905859 
L 170.060594 152.28462 
L 170.649032 152.28462 
L 170.649032 150.711877 
L 170.798761 150.711877 
L 170.882346 147.042143 
L 170.948275 147.042143 
L 170.948275 146.517896 
L 171.195675 146.517896 
L 171.291109 144.945152 
L 171.450045 144.945152 
L 171.450045 144.420905 
L 171.664528 144.420905 
L 171.754313 142.848162 
L 171.947762 142.848162 
L 172.005679 141.275418 
L 172.085628 141.275418 
L 172.113876 139.178427 
L 172.567491 139.178427 
L 172.591037 137.605684 
L 172.812163 137.605684 
L 172.812163 137.081437 
L 173.046719 137.081437 
L 173.046719 136.557189 
L 173.263981 136.557189 
L 173.263981 136.032941 
L 173.457103 136.032941 
L 173.469218 132.363207 
L 173.606542 132.363207 
L 173.65361 130.790464 
L 173.93969 130.790464 
L 174.018369 129.217721 
L 174.249598 129.217721 
L 174.319783 122.4025 
L 174.437299 122.4025 
L 174.491808 120.30551 
L 174.584601 120.30551 
L 174.655173 117.684271 
L 175.011418 117.684271 
L 175.060742 116.111528 
L 175.357925 116.111528 
L 175.372108 114.538785 
L 175.974389 114.538785 
L 176.004157 112.966042 
L 176.144257 112.966042 
L 176.218249 111.917546 
L 176.27294 111.917546 
L 176.315621 110.869051 
L 176.475911 110.869051 
L 176.499358 108.77206 
L 176.61301 108.77206 
L 176.692739 106.675069 
L 176.957132 106.675069 
L 176.964735 104.578078 
L 177.077627 104.578078 
L 177.077627 103.529583 
L 177.225757 103.529583 
L 177.2295 101.956839 
L 177.39117 101.956839 
L 177.39117 101.432592 
L 177.551333 101.432592 
L 177.62903 98.287105 
L 177.916946 98.287105 
L 177.916946 97.762858 
L 178.082994 97.762858 
L 178.097945 93.568876 
L 178.198704 93.568876 
L 178.270013 90.947637 
L 178.355055 90.947637 
L 178.355055 90.42339 
L 178.543315 90.42339 
L 178.618045 89.374894 
L 178.955785 89.374894 
L 178.955785 88.326399 
L 179.125551 88.326399 
L 179.125551 87.802151 
L 179.275723 87.802151 
L 179.288344 86.229408 
L 179.617198 86.229408 
L 179.66144 85.180912 
L 179.794131 85.180912 
L 179.794131 83.083922 
L 180.10214 83.083922 
L 180.184277 82.035426 
L 180.24154 82.035426 
L 180.24154 81.511178 
L 180.679435 81.511178 
L 180.679435 80.986931 
L 180.822753 80.986931 
L 180.921464 79.414188 
L 181.110632 79.414188 
L 181.139872 77.317197 
L 181.354363 77.317197 
L 181.354363 76.792949 
L 181.603973 76.792949 
L 181.664223 75.744454 
L 181.718499 75.744454 
L 181.74327 73.647463 
L 181.959504 73.647463 
L 182.057568 72.598967 
L 182.250356 72.598967 
L 182.250356 72.074719 
L 182.453715 72.074719 
L 182.505558 71.026224 
L 182.629565 71.026224 
L 182.629565 70.501976 
L 182.752684 70.501976 
L 182.752684 69.453481 
L 182.874388 69.453481 
L 182.953439 67.880738 
L 183.096097 67.880738 
L 183.101417 66.832242 
L 183.490083 66.832242 
L 183.490083 66.307995 
L 183.686568 66.307995 
L 183.784997 62.114013 
L 184.090008 62.114013 
L 184.168673 60.54127 
L 184.222578 60.54127 
L 184.238019 56.347288 
L 184.519988 56.347288 
L 184.519988 55.82304 
L 184.664843 55.82304 
L 184.664843 55.298792 
L 184.801744 55.298792 
L 184.801744 54.774545 
L 184.931825 54.774545 
L 184.931825 53.726049 
L 185.233296 53.726049 
L 185.302698 50.056315 
L 185.612963 50.056315 
L 185.653361 47.959324 
L 185.731136 47.959324 
L 185.833989 46.910829 
L 185.9105 46.910829 
L 185.9105 46.386581 
L 186.115709 46.386581 
L 186.115709 45.862334 
L 186.411763 45.862334 
L 186.518921 44.813838 
L 186.584633 44.813838 
L 186.584633 44.28959 
L 186.713154 44.28959 
L 186.794872 43.241095 
L 186.960551 43.241095 
L 187.027563 41.144104 
L 187.283858 41.144104 
L 187.391532 39.571361 
L 188.082013 39.571361 
L 188.105884 36.425875 
L 188.241315 36.425875 
L 188.241315 35.901627 
L 188.590765 35.901627 
L 188.696342 33.804636 
L 188.784468 33.804636 
L 188.784468 33.280388 
L 189.077754 33.280388 
L 189.077754 32.231893 
L 189.309869 32.231893 
L 189.412976 29.086407 
L 189.628635 29.086407 
L 189.628635 28.562159 
L 191.892765 28.562159 
L 191.892765 27.513663 
L 333.168 27.513663 
L 333.168 27.513663 
" style="fill:none;stroke:#ff00ff;stroke-linecap:square;stroke-width:1.5;"/>
   </g>
   <g id="line2d_43">
    <defs>
     <path d="M -0 8.485281 
L 5.091169 0 
L 0 -8.485281 
L -5.091169 -0 
z
" id="mb683ba876b" style="stroke:#ff00ff;stroke-linejoin:miter;stroke-width:1.5;"/>
    </defs>
    <g>
     <use style="fill-opacity:0;stroke:#ff00ff;stroke-linejoin:miter;stroke-width:1.5;" x="114.028816" xlink:href="#mb683ba876b" y="266.046375"/>
     <use style="fill-opacity:0;stroke:#ff00ff;stroke-linejoin:miter;stroke-width:1.5;" x="166.551917" xlink:href="#mb683ba876b" y="172.730281"/>
     <use style="fill-opacity:0;stroke:#ff00ff;stroke-linejoin:miter;stroke-width:1.5;" x="191.892765" xlink:href="#mb683ba876b" y="28.562159"/>
     <use style="fill-opacity:0;stroke:#ff00ff;stroke-linejoin:miter;stroke-width:1.5;" x="191.892765" xlink:href="#mb683ba876b" y="27.513663"/>
     <use style="fill-opacity:0;stroke:#ff00ff;stroke-linejoin:miter;stroke-width:1.5;" x="191.892765" xlink:href="#mb683ba876b" y="27.513663"/>
     <use style="fill-opacity:0;stroke:#ff00ff;stroke-linejoin:miter;stroke-width:1.5;" x="333.168" xlink:href="#mb683ba876b" y="27.513663"/>
    </g>
   </g>
   <g id="line2d_44">
    <path style="fill:none;stroke:#ff00ff;stroke-linecap:square;stroke-width:1.5;"/>
    <g/>
   </g>
   <g id="line2d_45">
    <defs>
     <path d="M 0 1.5 
C 0.397805 1.5 0.77937 1.341951 1.06066 1.06066 
C 1.341951 0.77937 1.5 0.397805 1.5 0 
C 1.5 -0.397805 1.341951 -0.77937 1.06066 -1.06066 
C 0.77937 -1.341951 0.397805 -1.5 0 -1.5 
C -0.397805 -1.5 -0.77937 -1.341951 -1.06066 -1.06066 
C -1.341951 -0.77937 -1.5 -0.397805 -1.5 0 
C -1.5 0.397805 -1.341951 0.77937 -1.06066 1.06066 
C -0.77937 1.341951 -0.397805 1.5 0 1.5 
z
" id="md0928dc61d" style="stroke:#ffa500;"/>
    </defs>
    <g>
     <use style="fill:#ffa500;stroke:#ffa500;" x="202.432215" xlink:href="#md0928dc61d" y="263.425137"/>
     <use style="fill:#ffa500;stroke:#ffa500;" x="202.432215" xlink:href="#md0928dc61d" y="263.425137"/>
    </g>
   </g>
   <g id="line2d_46">
    <path d="M 4.627463 294.88 
L 4.627463 285.967789 
L 16.541714 285.967789 
L 16.541714 283.34655 
L 23.511104 283.34655 
L 23.511104 282.298055 
L 28.455965 282.298055 
L 28.455965 278.628321 
L 35.425356 278.628321 
L 35.425356 278.104073 
L 65.739029 278.104073 
L 65.739029 277.055578 
L 69.277344 277.055578 
L 69.277344 276.53133 
L 85.265311 276.53133 
L 85.265311 275.482834 
L 87.892408 275.482834 
L 87.892408 274.958587 
L 91.093805 274.958587 
L 91.093805 273.910091 
L 92.287186 273.910091 
L 92.287186 273.385844 
L 102.436953 273.385844 
L 102.436953 272.861596 
L 104.819059 272.861596 
L 104.819059 272.337348 
L 105.512642 272.337348 
L 105.512642 271.8131 
L 113.334536 271.8131 
L 113.334536 270.764605 
L 114.809594 270.764605 
L 114.809594 269.716109 
L 133.098812 269.716109 
L 133.098812 269.191862 
L 135.709386 269.191862 
L 135.709386 268.667614 
L 136.511668 268.667614 
L 136.511668 268.143366 
L 140.403098 268.143366 
L 140.403098 267.619119 
L 177.24222 267.619119 
L 177.24222 267.094871 
L 180.155258 267.094871 
L 180.155258 266.570623 
L 182.756484 266.570623 
L 182.756484 266.046375 
L 185.695952 266.046375 
L 185.695952 265.522128 
L 188.699031 265.522128 
L 188.699031 264.99788 
L 193.045178 264.99788 
L 193.045178 264.473632 
L 197.369999 264.473632 
L 197.369999 263.949385 
L 202.432215 263.949385 
L 202.432215 263.425137 
L 333.168 263.425137 
" style="fill:none;stroke:#ffa500;stroke-linecap:square;stroke-width:1.5;"/>
   </g>
   <g id="line2d_47">
    <defs>
     <path d="M 0 -6 
L -1.347084 -1.854102 
L -5.706339 -1.854102 
L -2.179628 0.708204 
L -3.526712 4.854102 
L -0 2.291796 
L 3.526712 4.854102 
L 2.179628 0.708204 
L 5.706339 -1.854102 
L 1.347084 -1.854102 
z
" id="mc1941b31fc" style="stroke:#ffa500;stroke-linejoin:bevel;stroke-width:1.5;"/>
    </defs>
    <g>
     <use style="fill-opacity:0;stroke:#ffa500;stroke-linejoin:bevel;stroke-width:1.5;" x="92.287186" xlink:href="#mc1941b31fc" y="273.385844"/>
     <use style="fill-opacity:0;stroke:#ffa500;stroke-linejoin:bevel;stroke-width:1.5;" x="188.699031" xlink:href="#mc1941b31fc" y="264.99788"/>
     <use style="fill-opacity:0;stroke:#ffa500;stroke-linejoin:bevel;stroke-width:1.5;" x="202.432215" xlink:href="#mc1941b31fc" y="263.949385"/>
     <use style="fill-opacity:0;stroke:#ffa500;stroke-linejoin:bevel;stroke-width:1.5;" x="202.432215" xlink:href="#mc1941b31fc" y="263.425137"/>
     <use style="fill-opacity:0;stroke:#ffa500;stroke-linejoin:bevel;stroke-width:1.5;" x="202.432215" xlink:href="#mc1941b31fc" y="263.425137"/>
     <use style="fill-opacity:0;stroke:#ffa500;stroke-linejoin:bevel;stroke-width:1.5;" x="333.168" xlink:href="#mc1941b31fc" y="263.425137"/>
    </g>
   </g>
   <g id="line2d_48">
    <path style="fill:none;stroke:#ffa500;stroke-linecap:square;stroke-width:1.5;"/>
    <g/>
   </g>
   <g id="line2d_49">
    <path clip-path="url(#p77b37fb225)" d="M 214.433143 263.425137 
" style="fill:none;stroke:#ffa500;stroke-linecap:square;stroke-width:1.5;"/>
    <defs>
     <path d="M -12 12 
L 12 -12 
M -12 -12 
L 12 12 
" id="mdca81f991e" style="stroke:#ffa500;"/>
    </defs>
    <g clip-path="url(#p77b37fb225)">
     <use style="fill:#ffa500;stroke:#ffa500;" x="214.433143" xlink:href="#mdca81f991e" y="263.425137"/>
    </g>
   </g>
   <g id="line2d_50">
    <defs>
     <path d="M 0 1.5 
C 0.397805 1.5 0.77937 1.341951 1.06066 1.06066 
C 1.341951 0.77937 1.5 0.397805 1.5 0 
C 1.5 -0.397805 1.341951 -0.77937 1.06066 -1.06066 
C 0.77937 -1.341951 0.397805 -1.5 0 -1.5 
C -0.397805 -1.5 -0.77937 -1.341951 -1.06066 -1.06066 
C -1.341951 -0.77937 -1.5 -0.397805 -1.5 0 
C -1.5 0.397805 -1.341951 0.77937 -1.06066 1.06066 
C -0.77937 1.341951 -0.397805 1.5 0 1.5 
z
" id="m1261dc2539" style="stroke:#6495ed;"/>
    </defs>
    <g>
     <use style="fill:#6495ed;stroke:#6495ed;" x="186.604168" xlink:href="#m1261dc2539" y="247.697705"/>
     <use style="fill:#6495ed;stroke:#6495ed;" x="186.604168" xlink:href="#m1261dc2539" y="247.697705"/>
    </g>
   </g>
   <g id="line2d_51">
    <path d="M 4.627463 294.88 
L 4.627463 289.637523 
L 16.541714 289.637523 
L 16.541714 286.492036 
L 23.511104 286.492036 
L 23.511104 284.919293 
L 32.291498 284.919293 
L 32.291498 283.34655 
L 38.074995 283.34655 
L 38.074995 282.822302 
L 40.370217 282.822302 
L 40.370217 282.298055 
L 42.394746 282.298055 
L 42.394746 280.725312 
L 44.205749 280.725312 
L 44.205749 280.201064 
L 47.339607 280.201064 
L 47.339607 278.104073 
L 49.989246 278.104073 
L 49.989246 277.579825 
L 51.175139 277.579825 
L 51.175139 277.055578 
L 58.522316 277.055578 
L 58.522316 276.007082 
L 68.034251 276.007082 
L 68.034251 275.482834 
L 71.869783 275.482834 
L 71.869783 274.434339 
L 77.405958 274.434339 
L 77.405958 273.910091 
L 89.567532 273.910091 
L 89.567532 273.385844 
L 98.249422 273.385844 
L 98.249422 272.337348 
L 98.615932 272.337348 
L 98.615932 271.288853 
L 101.23446 271.288853 
L 101.23446 270.764605 
L 102.261855 270.764605 
L 102.261855 269.716109 
L 104.096307 269.716109 
L 104.096307 268.667614 
L 104.717651 268.667614 
L 104.717651 268.143366 
L 109.289809 268.143366 
L 109.289809 266.046375 
L 113.730395 266.046375 
L 113.730395 265.522128 
L 116.063204 265.522128 
L 116.063204 264.99788 
L 116.73331 264.99788 
L 116.73331 264.473632 
L 118.6903 264.473632 
L 118.6903 263.949385 
L 118.825114 263.949385 
L 118.825114 262.376641 
L 123.327909 262.376641 
L 123.327909 261.852394 
L 126.850596 261.852394 
L 126.850596 260.803898 
L 128.13443 260.803898 
L 128.13443 260.279651 
L 129.878894 260.279651 
L 129.878894 259.755403 
L 130.604552 259.755403 
L 130.604552 259.231155 
L 131.633332 259.231155 
L 131.633332 258.706907 
L 132.371512 258.706907 
L 132.371512 258.18266 
L 133.176677 258.18266 
L 133.176677 257.658412 
L 134.548019 257.658412 
L 134.548019 256.085669 
L 135.042944 256.085669 
L 135.042944 255.561421 
L 140.139592 255.561421 
L 140.139592 255.037173 
L 143.988072 255.037173 
L 143.988072 254.512926 
L 144.18881 254.512926 
L 144.18881 253.988678 
L 145.550852 253.988678 
L 145.550852 253.46443 
L 146.172923 253.46443 
L 146.172923 252.415935 
L 153.488354 252.415935 
L 153.488354 251.891687 
L 154.082689 251.891687 
L 154.082689 251.367439 
L 157.38455 251.367439 
L 157.38455 250.843192 
L 162.797345 250.843192 
L 162.797345 250.318944 
L 162.894134 250.318944 
L 162.894134 249.794696 
L 165.518394 249.794696 
L 165.518394 249.270448 
L 165.741817 249.270448 
L 165.741817 248.221953 
L 186.604168 248.221953 
L 186.604168 247.697705 
L 333.168 247.697705 
" style="fill:none;stroke:#6495ed;stroke-linecap:square;stroke-width:1.5;"/>
   </g>
   <g id="line2d_52">
    <defs>
     <path d="M -0 6 
L 6 -6 
L -6 -6 
z
" id="m73174ea2d1" style="stroke:#6495ed;stroke-linejoin:miter;stroke-width:1.5;"/>
    </defs>
    <g>
     <use style="fill-opacity:0;stroke:#6495ed;stroke-linejoin:miter;stroke-width:1.5;" x="118.825114" xlink:href="#m73174ea2d1" y="262.376641"/>
     <use style="fill-opacity:0;stroke:#6495ed;stroke-linejoin:miter;stroke-width:1.5;" x="186.604168" xlink:href="#m73174ea2d1" y="248.221953"/>
     <use style="fill-opacity:0;stroke:#6495ed;stroke-linejoin:miter;stroke-width:1.5;" x="186.604168" xlink:href="#m73174ea2d1" y="248.221953"/>
     <use style="fill-opacity:0;stroke:#6495ed;stroke-linejoin:miter;stroke-width:1.5;" x="186.604168" xlink:href="#m73174ea2d1" y="247.697705"/>
     <use style="fill-opacity:0;stroke:#6495ed;stroke-linejoin:miter;stroke-width:1.5;" x="186.604168" xlink:href="#m73174ea2d1" y="247.697705"/>
     <use style="fill-opacity:0;stroke:#6495ed;stroke-linejoin:miter;stroke-width:1.5;" x="333.168" xlink:href="#m73174ea2d1" y="247.697705"/>
    </g>
   </g>
   <g id="line2d_53">
    <path style="fill:none;stroke:#6495ed;stroke-linecap:square;stroke-width:1.5;"/>
    <g/>
   </g>
   <g id="line2d_54">
    <path clip-path="url(#p77b37fb225)" d="M 135.276571 255.561421 
" style="fill:none;stroke:#6495ed;stroke-linecap:square;stroke-width:1.5;"/>
    <defs>
     <path d="M -12 12 
L 12 -12 
M -12 -12 
L 12 12 
" id="m11fe7d3faf" style="stroke:#6495ed;"/>
    </defs>
    <g clip-path="url(#p77b37fb225)">
     <use style="fill:#6495ed;stroke:#6495ed;" x="135.276571" xlink:href="#m11fe7d3faf" y="255.561421"/>
    </g>
   </g>
   <g id="line2d_55">
    <path d="M 333.168 263.425137 
L 363.64328 289.532673 
" style="fill:none;stroke:#ffa500;stroke-linecap:square;stroke-width:1.5;"/>
    <g>
     <use style="fill-opacity:0;stroke:#ffa500;stroke-linejoin:bevel;stroke-width:1.5;" x="333.168" xlink:href="#mc1941b31fc" y="263.425137"/>
     <use style="fill-opacity:0;stroke:#ffa500;stroke-linejoin:bevel;stroke-width:1.5;" x="363.64328" xlink:href="#mc1941b31fc" y="289.532673"/>
    </g>
   </g>
   <g id="line2d_56">
    <path d="M 333.168 247.697705 
L 363.64328 203.975446 
" style="fill:none;stroke:#6495ed;stroke-linecap:square;stroke-width:1.5;"/>
    <g>
     <use style="fill-opacity:0;stroke:#6495ed;stroke-linejoin:miter;stroke-width:1.5;" x="333.168" xlink:href="#m73174ea2d1" y="247.697705"/>
     <use style="fill-opacity:0;stroke:#6495ed;stroke-linejoin:miter;stroke-width:1.5;" x="363.64328" xlink:href="#m73174ea2d1" y="203.975446"/>
    </g>
   </g>
   <g id="line2d_57">
    <path d="M 333.168 27.513663 
L 363.64328 118.418218 
" style="fill:none;stroke:#000080;stroke-linecap:square;stroke-width:1.5;"/>
    <g>
     <use style="fill-opacity:0;stroke:#000080;stroke-width:1.5;" x="333.168" xlink:href="#m6de2de79b0" y="27.513663"/>
     <use style="fill-opacity:0;stroke:#000080;stroke-width:1.5;" x="363.64328" xlink:href="#m6de2de79b0" y="118.418218"/>
    </g>
   </g>
   <g id="line2d_58">
    <path d="M 333.168 27.513663 
L 363.64328 32.86099 
" style="fill:none;stroke:#ff00ff;stroke-linecap:square;stroke-width:1.5;"/>
    <g>
     <use style="fill-opacity:0;stroke:#ff00ff;stroke-linejoin:miter;stroke-width:1.5;" x="333.168" xlink:href="#mb683ba876b" y="27.513663"/>
     <use style="fill-opacity:0;stroke:#ff00ff;stroke-linejoin:miter;stroke-width:1.5;" x="363.64328" xlink:href="#mb683ba876b" y="32.86099"/>
    </g>
   </g>
   <g id="line2d_59">
    <path d="M 333.168 294.88 
L 333.168 27.513663 
" style="fill:none;stroke:#000000;stroke-linecap:square;stroke-width:1.5;"/>
   </g>
   <g id="patch_3">
    <path d="M 56.12 294.88 
L 56.12 24.84 
" style="fill:none;stroke:#000000;stroke-linecap:square;stroke-linejoin:miter;stroke-width:0.8;"/>
   </g>
   <g id="patch_4">
    <path d="M 333.168 294.88 
L 333.168 24.84 
" style="fill:none;stroke:#000000;stroke-linecap:square;stroke-linejoin:miter;stroke-width:0.8;"/>
   </g>
   <g id="patch_5">
    <path d="M 56.12 294.88 
L 333.168 294.88 
" style="fill:none;stroke:#000000;stroke-linecap:square;stroke-linejoin:miter;stroke-width:0.8;"/>
   </g>
   <g id="patch_6">
    <path d="M 56.12 24.84 
L 333.168 24.84 
" style="fill:none;stroke:#000000;stroke-linecap:square;stroke-linejoin:miter;stroke-width:0.8;"/>
   </g>
   <g id="text_13">
    <!-- RS -->
    <defs>
     <path d="M 44.390625 34.1875 
Q 47.5625 33.109375 50.5625 29.59375 
Q 53.5625 26.078125 56.59375 19.921875 
L 66.609375 0 
L 56 0 
L 46.6875 18.703125 
Q 43.0625 26.03125 39.671875 28.421875 
Q 36.28125 30.8125 30.421875 30.8125 
L 19.671875 30.8125 
L 19.671875 0 
L 9.8125 0 
L 9.8125 72.90625 
L 32.078125 72.90625 
Q 44.578125 72.90625 50.734375 67.671875 
Q 56.890625 62.453125 56.890625 51.90625 
Q 56.890625 45.015625 53.6875 40.46875 
Q 50.484375 35.9375 44.390625 34.1875 
z
M 19.671875 64.796875 
L 19.671875 38.921875 
L 32.078125 38.921875 
Q 39.203125 38.921875 42.84375 42.21875 
Q 46.484375 45.515625 46.484375 51.90625 
Q 46.484375 58.296875 42.84375 61.546875 
Q 39.203125 64.796875 32.078125 64.796875 
z
" id="DejaVuSans-52"/>
     <path d="M 53.515625 70.515625 
L 53.515625 60.890625 
Q 47.90625 63.578125 42.921875 64.890625 
Q 37.9375 66.21875 33.296875 66.21875 
Q 25.25 66.21875 20.875 63.09375 
Q 16.5 59.96875 16.5 54.203125 
Q 16.5 49.359375 19.40625 46.890625 
Q 22.3125 44.4375 30.421875 42.921875 
L 36.375 41.703125 
Q 47.40625 39.59375 52.65625 34.296875 
Q 57.90625 29 57.90625 20.125 
Q 57.90625 9.515625 50.796875 4.046875 
Q 43.703125 -1.421875 29.984375 -1.421875 
Q 24.8125 -1.421875 18.96875 -0.25 
Q 13.140625 0.921875 6.890625 3.21875 
L 6.890625 13.375 
Q 12.890625 10.015625 18.65625 8.296875 
Q 24.421875 6.59375 29.984375 6.59375 
Q 38.421875 6.59375 43.015625 9.90625 
Q 47.609375 13.234375 47.609375 19.390625 
Q 47.609375 24.75 44.3125 27.78125 
Q 41.015625 30.8125 33.5 32.328125 
L 27.484375 33.5 
Q 16.453125 35.6875 11.515625 40.375 
Q 6.59375 45.0625 6.59375 53.421875 
Q 6.59375 63.09375 13.40625 68.65625 
Q 20.21875 74.21875 32.171875 74.21875 
Q 37.3125 74.21875 42.625 73.28125 
Q 47.953125 72.359375 53.515625 70.515625 
z
" id="DejaVuSans-53"/>
    </defs>
    <g transform="translate(369.18424 294.223611)scale(0.17 -0.17)">
     <use xlink:href="#DejaVuSans-52"/>
     <use x="69.482422" xlink:href="#DejaVuSans-53"/>
    </g>
   </g>
   <g id="text_14">
    <!-- TPE -->
    <defs>
     <path d="M -0.296875 72.90625 
L 61.375 72.90625 
L 61.375 64.59375 
L 35.5 64.59375 
L 35.5 0 
L 25.59375 0 
L 25.59375 64.59375 
L -0.296875 64.59375 
z
" id="DejaVuSans-54"/>
     <path d="M 19.671875 64.796875 
L 19.671875 37.40625 
L 32.078125 37.40625 
Q 38.96875 37.40625 42.71875 40.96875 
Q 46.484375 44.53125 46.484375 51.125 
Q 46.484375 57.671875 42.71875 61.234375 
Q 38.96875 64.796875 32.078125 64.796875 
z
M 9.8125 72.90625 
L 32.078125 72.90625 
Q 44.34375 72.90625 50.609375 67.359375 
Q 56.890625 61.8125 56.890625 51.125 
Q 56.890625 40.328125 50.609375 34.8125 
Q 44.34375 29.296875 32.078125 29.296875 
L 19.671875 29.296875 
L 19.671875 0 
L 9.8125 0 
z
" id="DejaVuSans-50"/>
     <path d="M 9.8125 72.90625 
L 55.90625 72.90625 
L 55.90625 64.59375 
L 19.671875 64.59375 
L 19.671875 43.015625 
L 54.390625 43.015625 
L 54.390625 34.71875 
L 19.671875 34.71875 
L 19.671875 8.296875 
L 56.78125 8.296875 
L 56.78125 0 
L 9.8125 0 
z
" id="DejaVuSans-45"/>
    </defs>
    <g transform="translate(369.18424 208.666383)scale(0.17 -0.17)">
     <use xlink:href="#DejaVuSans-54"/>
     <use x="61.083984" xlink:href="#DejaVuSans-50"/>
     <use x="121.386719" xlink:href="#DejaVuSans-45"/>
    </g>
   </g>
   <g id="text_15">
    <!-- CMA-ES -->
    <defs>
     <path d="M 64.40625 67.28125 
L 64.40625 56.890625 
Q 59.421875 61.53125 53.78125 63.8125 
Q 48.140625 66.109375 41.796875 66.109375 
Q 29.296875 66.109375 22.65625 58.46875 
Q 16.015625 50.828125 16.015625 36.375 
Q 16.015625 21.96875 22.65625 14.328125 
Q 29.296875 6.6875 41.796875 6.6875 
Q 48.140625 6.6875 53.78125 8.984375 
Q 59.421875 11.28125 64.40625 15.921875 
L 64.40625 5.609375 
Q 59.234375 2.09375 53.4375 0.328125 
Q 47.65625 -1.421875 41.21875 -1.421875 
Q 24.65625 -1.421875 15.125 8.703125 
Q 5.609375 18.84375 5.609375 36.375 
Q 5.609375 53.953125 15.125 64.078125 
Q 24.65625 74.21875 41.21875 74.21875 
Q 47.75 74.21875 53.53125 72.484375 
Q 59.328125 70.75 64.40625 67.28125 
z
" id="DejaVuSans-43"/>
     <path d="M 9.8125 72.90625 
L 24.515625 72.90625 
L 43.109375 23.296875 
L 61.8125 72.90625 
L 76.515625 72.90625 
L 76.515625 0 
L 66.890625 0 
L 66.890625 64.015625 
L 48.09375 14.015625 
L 38.1875 14.015625 
L 19.390625 64.015625 
L 19.390625 0 
L 9.8125 0 
z
" id="DejaVuSans-4d"/>
     <path d="M 34.1875 63.1875 
L 20.796875 26.90625 
L 47.609375 26.90625 
z
M 28.609375 72.90625 
L 39.796875 72.90625 
L 67.578125 0 
L 57.328125 0 
L 50.6875 18.703125 
L 17.828125 18.703125 
L 11.1875 0 
L 0.78125 0 
z
" id="DejaVuSans-41"/>
    </defs>
    <g transform="translate(369.18424 123.109155)scale(0.17 -0.17)">
     <use xlink:href="#DejaVuSans-43"/>
     <use x="69.824219" xlink:href="#DejaVuSans-4d"/>
     <use x="156.103516" xlink:href="#DejaVuSans-41"/>
     <use x="224.480469" xlink:href="#DejaVuSans-2d"/>
     <use x="260.564453" xlink:href="#DejaVuSans-45"/>
     <use x="323.748047" xlink:href="#DejaVuSans-53"/>
    </g>
   </g>
   <g id="text_16">
    <!-- DE -->
    <defs>
     <path d="M 19.671875 64.796875 
L 19.671875 8.109375 
L 31.59375 8.109375 
Q 46.6875 8.109375 53.6875 14.9375 
Q 60.6875 21.78125 60.6875 36.53125 
Q 60.6875 51.171875 53.6875 57.984375 
Q 46.6875 64.796875 31.59375 64.796875 
z
M 9.8125 72.90625 
L 30.078125 72.90625 
Q 51.265625 72.90625 61.171875 64.09375 
Q 71.09375 55.28125 71.09375 36.53125 
Q 71.09375 17.671875 61.125 8.828125 
Q 51.171875 0 30.078125 0 
L 9.8125 0 
z
" id="DejaVuSans-44"/>
    </defs>
    <g transform="translate(369.18424 37.551928)scale(0.17 -0.17)">
     <use xlink:href="#DejaVuSans-44"/>
     <use x="77.001953" xlink:href="#DejaVuSans-45"/>
    </g>
   </g>
   <g id="text_17">
    <!-- bbob-mixint f14, 20-D -->
    <defs>
     <path d="M 48.6875 27.296875 
Q 48.6875 37.203125 44.609375 42.84375 
Q 40.53125 48.484375 33.40625 48.484375 
Q 26.265625 48.484375 22.1875 42.84375 
Q 18.109375 37.203125 18.109375 27.296875 
Q 18.109375 17.390625 22.1875 11.75 
Q 26.265625 6.109375 33.40625 6.109375 
Q 40.53125 6.109375 44.609375 11.75 
Q 48.6875 17.390625 48.6875 27.296875 
z
M 18.109375 46.390625 
Q 20.953125 51.265625 25.265625 53.625 
Q 29.59375 56 35.59375 56 
Q 45.5625 56 51.78125 48.09375 
Q 58.015625 40.1875 58.015625 27.296875 
Q 58.015625 14.40625 51.78125 6.484375 
Q 45.5625 -1.421875 35.59375 -1.421875 
Q 29.59375 -1.421875 25.265625 0.953125 
Q 20.953125 3.328125 18.109375 8.203125 
L 18.109375 0 
L 9.078125 0 
L 9.078125 75.984375 
L 18.109375 75.984375 
z
" id="DejaVuSans-62"/>
     <path d="M 54.890625 54.6875 
L 35.109375 28.078125 
L 55.90625 0 
L 45.3125 0 
L 29.390625 21.484375 
L 13.484375 0 
L 2.875 0 
L 24.125 28.609375 
L 4.6875 54.6875 
L 15.28125 54.6875 
L 29.78125 35.203125 
L 44.28125 54.6875 
z
" id="DejaVuSans-78"/>
    </defs>
    <g transform="translate(58.89048 35.290806)scale(0.102 -0.102)">
     <use xlink:href="#DejaVuSans-62"/>
     <use x="63.476562" xlink:href="#DejaVuSans-62"/>
     <use x="126.953125" xlink:href="#DejaVuSans-6f"/>
     <use x="188.134766" xlink:href="#DejaVuSans-62"/>
     <use x="251.611328" xlink:href="#DejaVuSans-2d"/>
     <use x="287.695312" xlink:href="#DejaVuSans-6d"/>
     <use x="385.107422" xlink:href="#DejaVuSans-69"/>
     <use x="412.890625" xlink:href="#DejaVuSans-78"/>
     <use x="472.070312" xlink:href="#DejaVuSans-69"/>
     <use x="499.853516" xlink:href="#DejaVuSans-6e"/>
     <use x="563.232422" xlink:href="#DejaVuSans-74"/>
     <use x="602.441406" xlink:href="#DejaVuSans-20"/>
     <use x="634.228516" xlink:href="#DejaVuSans-66"/>
     <use x="669.433594" xlink:href="#DejaVuSans-31"/>
     <use x="733.056641" xlink:href="#DejaVuSans-34"/>
     <use x="796.679688" xlink:href="#DejaVuSans-2c"/>
     <use x="828.466797" xlink:href="#DejaVuSans-20"/>
     <use x="860.253906" xlink:href="#DejaVuSans-32"/>
     <use x="923.876953" xlink:href="#DejaVuSans-30"/>
     <use x="987.5" xlink:href="#DejaVuSans-2d"/>
     <use x="1023.583984" xlink:href="#DejaVuSans-44"/>
    </g>
    <!-- 51 targets: 100..1e-08 -->
    <defs>
     <path d="M 10.796875 72.90625 
L 49.515625 72.90625 
L 49.515625 64.59375 
L 19.828125 64.59375 
L 19.828125 46.734375 
Q 21.96875 47.46875 24.109375 47.828125 
Q 26.265625 48.1875 28.421875 48.1875 
Q 40.625 48.1875 47.75 41.5 
Q 54.890625 34.8125 54.890625 23.390625 
Q 54.890625 11.625 47.5625 5.09375 
Q 40.234375 -1.421875 26.90625 -1.421875 
Q 22.3125 -1.421875 17.546875 -0.640625 
Q 12.796875 0.140625 7.71875 1.703125 
L 7.71875 11.625 
Q 12.109375 9.234375 16.796875 8.0625 
Q 21.484375 6.890625 26.703125 6.890625 
Q 35.15625 6.890625 40.078125 11.328125 
Q 45.015625 15.765625 45.015625 23.390625 
Q 45.015625 31 40.078125 35.4375 
Q 35.15625 39.890625 26.703125 39.890625 
Q 22.75 39.890625 18.8125 39.015625 
Q 14.890625 38.140625 10.796875 36.28125 
z
" id="DejaVuSans-35"/>
     <path d="M 11.71875 12.40625 
L 22.015625 12.40625 
L 22.015625 0 
L 11.71875 0 
z
M 11.71875 51.703125 
L 22.015625 51.703125 
L 22.015625 39.3125 
L 11.71875 39.3125 
z
" id="DejaVuSans-3a"/>
    </defs>
    <g transform="translate(58.89048 46.712575)scale(0.102 -0.102)">
     <use xlink:href="#DejaVuSans-35"/>
     <use x="63.623047" xlink:href="#DejaVuSans-31"/>
     <use x="127.246094" xlink:href="#DejaVuSans-20"/>
     <use x="159.033203" xlink:href="#DejaVuSans-74"/>
     <use x="198.242188" xlink:href="#DejaVuSans-61"/>
     <use x="259.521484" xlink:href="#DejaVuSans-72"/>
     <use x="300.619141" xlink:href="#DejaVuSans-67"/>
     <use x="364.095703" xlink:href="#DejaVuSans-65"/>
     <use x="425.619141" xlink:href="#DejaVuSans-74"/>
     <use x="464.828125" xlink:href="#DejaVuSans-73"/>
     <use x="516.927734" xlink:href="#DejaVuSans-3a"/>
     <use x="550.619141" xlink:href="#DejaVuSans-20"/>
     <use x="582.40625" xlink:href="#DejaVuSans-31"/>
     <use x="646.029297" xlink:href="#DejaVuSans-30"/>
     <use x="709.652344" xlink:href="#DejaVuSans-30"/>
     <use x="773.275391" xlink:href="#DejaVuSans-2e"/>
     <use x="805.0625" xlink:href="#DejaVuSans-2e"/>
     <use x="836.849609" xlink:href="#DejaVuSans-31"/>
     <use x="900.472656" xlink:href="#DejaVuSans-65"/>
     <use x="961.996094" xlink:href="#DejaVuSans-2d"/>
     <use x="998.080078" xlink:href="#DejaVuSans-30"/>
     <use x="1061.703125" xlink:href="#DejaVuSans-38"/>
    </g>
    <!-- 15 instances -->
    <g transform="translate(58.89048 58.134344)scale(0.102 -0.102)">
     <use xlink:href="#DejaVuSans-31"/>
     <use x="63.623047" xlink:href="#DejaVuSans-35"/>
     <use x="127.246094" xlink:href="#DejaVuSans-20"/>
     <use x="159.033203" xlink:href="#DejaVuSans-69"/>
     <use x="186.816406" xlink:href="#DejaVuSans-6e"/>
     <use x="250.195312" xlink:href="#DejaVuSans-73"/>
     <use x="302.294922" xlink:href="#DejaVuSans-74"/>
     <use x="341.503906" xlink:href="#DejaVuSans-61"/>
     <use x="402.783203" xlink:href="#DejaVuSans-6e"/>
     <use x="466.162109" xlink:href="#DejaVuSans-63"/>
     <use x="521.142578" xlink:href="#DejaVuSans-65"/>
     <use x="582.666016" xlink:href="#DejaVuSans-73"/>
    </g>
   </g>
   <g id="text_18">
    <!-- v2.2.2.645 -->
    <g style="fill:#808080;" transform="translate(167.829937 290.099912)scale(0.1 -0.1)">
     <use xlink:href="#DejaVuSans-76"/>
     <use x="59.179688" xlink:href="#DejaVuSans-32"/>
     <use x="122.802734" xlink:href="#DejaVuSans-2e"/>
     <use x="154.589844" xlink:href="#DejaVuSans-32"/>
     <use x="218.212891" xlink:href="#DejaVuSans-2e"/>
     <use x="250" xlink:href="#DejaVuSans-32"/>
     <use x="313.623047" xlink:href="#DejaVuSans-2e"/>
     <use x="345.410156" xlink:href="#DejaVuSans-36"/>
     <use x="409.033203" xlink:href="#DejaVuSans-34"/>
     <use x="472.65625" xlink:href="#DejaVuSans-35"/>
    </g>
   </g>
   <g id="text_19">
    <!-- 14 Sum of different powers -->
    <defs>
     <path d="M 4.203125 54.6875 
L 13.1875 54.6875 
L 24.421875 12.015625 
L 35.59375 54.6875 
L 46.1875 54.6875 
L 57.421875 12.015625 
L 68.609375 54.6875 
L 77.59375 54.6875 
L 63.28125 0 
L 52.6875 0 
L 40.921875 44.828125 
L 29.109375 0 
L 18.5 0 
z
" id="DejaVuSans-77"/>
    </defs>
    <g transform="translate(58.183063 18.84)scale(0.2 -0.2)">
     <use xlink:href="#DejaVuSans-31"/>
     <use x="63.623047" xlink:href="#DejaVuSans-34"/>
     <use x="127.246094" xlink:href="#DejaVuSans-20"/>
     <use x="159.033203" xlink:href="#DejaVuSans-53"/>
     <use x="222.509766" xlink:href="#DejaVuSans-75"/>
     <use x="285.888672" xlink:href="#DejaVuSans-6d"/>
     <use x="383.300781" xlink:href="#DejaVuSans-20"/>
     <use x="415.087891" xlink:href="#DejaVuSans-6f"/>
     <use x="476.269531" xlink:href="#DejaVuSans-66"/>
     <use x="511.474609" xlink:href="#DejaVuSans-20"/>
     <use x="543.261719" xlink:href="#DejaVuSans-64"/>
     <use x="606.738281" xlink:href="#DejaVuSans-69"/>
     <use x="634.521484" xlink:href="#DejaVuSans-66"/>
     <use x="669.726562" xlink:href="#DejaVuSans-66"/>
     <use x="704.931641" xlink:href="#DejaVuSans-65"/>
     <use x="766.455078" xlink:href="#DejaVuSans-72"/>
     <use x="807.537109" xlink:href="#DejaVuSans-65"/>
     <use x="869.060547" xlink:href="#DejaVuSans-6e"/>
     <use x="932.439453" xlink:href="#DejaVuSans-74"/>
     <use x="971.648438" xlink:href="#DejaVuSans-20"/>
     <use x="1003.435547" xlink:href="#DejaVuSans-70"/>
     <use x="1066.912109" xlink:href="#DejaVuSans-6f"/>
     <use x="1128.09375" xlink:href="#DejaVuSans-77"/>
     <use x="1209.880859" xlink:href="#DejaVuSans-65"/>
     <use x="1271.404297" xlink:href="#DejaVuSans-72"/>
     <use x="1312.517578" xlink:href="#DejaVuSans-73"/>
    </g>
   </g>
  </g>
 </g>
 <defs>
  <clipPath id="p77b37fb225">
   <rect height="270.04" width="277.048" x="56.12" y="24.84"/>
  </clipPath>
 </defs>
</svg>
