<?xml version="1.0" encoding="utf-8" standalone="no"?>
<!DOCTYPE svg PUBLIC "-//W3C//DTD SVG 1.1//EN"
  "http://www.w3.org/Graphics/SVG/1.1/DTD/svg11.dtd">
<!-- Created with matplotlib (http://matplotlib.org/) -->
<svg height="345.6pt" version="1.1" viewBox="0 0 460.8 345.6" width="460.8pt" xmlns="http://www.w3.org/2000/svg" xmlns:xlink="http://www.w3.org/1999/xlink">
 <defs>
  <style type="text/css">
*{stroke-linecap:butt;stroke-linejoin:round;}
  </style>
 </defs>
 <g id="figure_1">
  <g id="patch_1">
   <path d="M 0 345.6 
L 460.8 345.6 
L 460.8 0 
L 0 0 
z
" style="fill:#ffffff;"/>
  </g>
  <g id="axes_1">
   <g id="patch_2">
    <path d="M 56.12 294.88 
L 333.168 294.88 
L 333.168 24.84 
L 56.12 24.84 
z
" style="fill:#ffffff;"/>
   </g>
   <g id="matplotlib.axis_1">
    <g id="xtick_1">
     <g id="line2d_1">
      <path clip-path="url(#p31a7a937dd)" d="M 56.12 294.88 
L 56.12 24.84 
" style="fill:none;stroke:#b0b0b0;stroke-linecap:square;stroke-width:0.8;"/>
     </g>
     <g id="line2d_2">
      <defs>
       <path d="M 0 0 
L 0 3.5 
" id="m5cd9db8f64" style="stroke:#000000;stroke-width:0.8;"/>
      </defs>
      <g>
       <use style="stroke:#000000;stroke-width:0.8;" x="56.12" xlink:href="#m5cd9db8f64" y="294.88"/>
      </g>
     </g>
     <g id="text_1">
      <!-- 0 -->
      <defs>
       <path d="M 31.78125 66.40625 
Q 24.171875 66.40625 20.328125 58.90625 
Q 16.5 51.421875 16.5 36.375 
Q 16.5 21.390625 20.328125 13.890625 
Q 24.171875 6.390625 31.78125 6.390625 
Q 39.453125 6.390625 43.28125 13.890625 
Q 47.125 21.390625 47.125 36.375 
Q 47.125 51.421875 43.28125 58.90625 
Q 39.453125 66.40625 31.78125 66.40625 
z
M 31.78125 74.21875 
Q 44.046875 74.21875 50.515625 64.515625 
Q 56.984375 54.828125 56.984375 36.375 
Q 56.984375 17.96875 50.515625 8.265625 
Q 44.046875 -1.421875 31.78125 -1.421875 
Q 19.53125 -1.421875 13.0625 8.265625 
Q 6.59375 17.96875 6.59375 36.375 
Q 6.59375 54.828125 13.0625 64.515625 
Q 19.53125 74.21875 31.78125 74.21875 
z
" id="DejaVuSans-30"/>
      </defs>
      <g transform="translate(49.7575 317.076875)scale(0.2 -0.2)">
       <use xlink:href="#DejaVuSans-30"/>
      </g>
     </g>
    </g>
    <g id="xtick_2">
     <g id="line2d_3">
      <path clip-path="url(#p31a7a937dd)" d="M 135.276571 294.88 
L 135.276571 24.84 
" style="fill:none;stroke:#b0b0b0;stroke-linecap:square;stroke-width:0.8;"/>
     </g>
     <g id="line2d_4">
      <g>
       <use style="stroke:#000000;stroke-width:0.8;" x="135.276571" xlink:href="#m5cd9db8f64" y="294.88"/>
      </g>
     </g>
     <g id="text_2">
      <!-- 2 -->
      <defs>
       <path d="M 19.1875 8.296875 
L 53.609375 8.296875 
L 53.609375 0 
L 7.328125 0 
L 7.328125 8.296875 
Q 12.9375 14.109375 22.625 23.890625 
Q 32.328125 33.6875 34.8125 36.53125 
Q 39.546875 41.84375 41.421875 45.53125 
Q 43.3125 49.21875 43.3125 52.78125 
Q 43.3125 58.59375 39.234375 62.25 
Q 35.15625 65.921875 28.609375 65.921875 
Q 23.96875 65.921875 18.8125 64.3125 
Q 13.671875 62.703125 7.8125 59.421875 
L 7.8125 69.390625 
Q 13.765625 71.78125 18.9375 73 
Q 24.125 74.21875 28.421875 74.21875 
Q 39.75 74.21875 46.484375 68.546875 
Q 53.21875 62.890625 53.21875 53.421875 
Q 53.21875 48.921875 51.53125 44.890625 
Q 49.859375 40.875 45.40625 35.40625 
Q 44.1875 33.984375 37.640625 27.21875 
Q 31.109375 20.453125 19.1875 8.296875 
z
" id="DejaVuSans-32"/>
      </defs>
      <g transform="translate(128.914071 317.076875)scale(0.2 -0.2)">
       <use xlink:href="#DejaVuSans-32"/>
      </g>
     </g>
    </g>
    <g id="xtick_3">
     <g id="line2d_5">
      <path clip-path="url(#p31a7a937dd)" d="M 214.433143 294.88 
L 214.433143 24.84 
" style="fill:none;stroke:#b0b0b0;stroke-linecap:square;stroke-width:0.8;"/>
     </g>
     <g id="line2d_6">
      <g>
       <use style="stroke:#000000;stroke-width:0.8;" x="214.433143" xlink:href="#m5cd9db8f64" y="294.88"/>
      </g>
     </g>
     <g id="text_3">
      <!-- 4 -->
      <defs>
       <path d="M 37.796875 64.3125 
L 12.890625 25.390625 
L 37.796875 25.390625 
z
M 35.203125 72.90625 
L 47.609375 72.90625 
L 47.609375 25.390625 
L 58.015625 25.390625 
L 58.015625 17.1875 
L 47.609375 17.1875 
L 47.609375 0 
L 37.796875 0 
L 37.796875 17.1875 
L 4.890625 17.1875 
L 4.890625 26.703125 
z
" id="DejaVuSans-34"/>
      </defs>
      <g transform="translate(208.070643 317.076875)scale(0.2 -0.2)">
       <use xlink:href="#DejaVuSans-34"/>
      </g>
     </g>
    </g>
    <g id="xtick_4">
     <g id="line2d_7">
      <path clip-path="url(#p31a7a937dd)" d="M 293.589714 294.88 
L 293.589714 24.84 
" style="fill:none;stroke:#b0b0b0;stroke-linecap:square;stroke-width:0.8;"/>
     </g>
     <g id="line2d_8">
      <g>
       <use style="stroke:#000000;stroke-width:0.8;" x="293.589714" xlink:href="#m5cd9db8f64" y="294.88"/>
      </g>
     </g>
     <g id="text_4">
      <!-- 6 -->
      <defs>
       <path d="M 33.015625 40.375 
Q 26.375 40.375 22.484375 35.828125 
Q 18.609375 31.296875 18.609375 23.390625 
Q 18.609375 15.53125 22.484375 10.953125 
Q 26.375 6.390625 33.015625 6.390625 
Q 39.65625 6.390625 43.53125 10.953125 
Q 47.40625 15.53125 47.40625 23.390625 
Q 47.40625 31.296875 43.53125 35.828125 
Q 39.65625 40.375 33.015625 40.375 
z
M 52.59375 71.296875 
L 52.59375 62.3125 
Q 48.875 64.0625 45.09375 64.984375 
Q 41.3125 65.921875 37.59375 65.921875 
Q 27.828125 65.921875 22.671875 59.328125 
Q 17.53125 52.734375 16.796875 39.40625 
Q 19.671875 43.65625 24.015625 45.921875 
Q 28.375 48.1875 33.59375 48.1875 
Q 44.578125 48.1875 50.953125 41.515625 
Q 57.328125 34.859375 57.328125 23.390625 
Q 57.328125 12.15625 50.6875 5.359375 
Q 44.046875 -1.421875 33.015625 -1.421875 
Q 20.359375 -1.421875 13.671875 8.265625 
Q 6.984375 17.96875 6.984375 36.375 
Q 6.984375 53.65625 15.1875 63.9375 
Q 23.390625 74.21875 37.203125 74.21875 
Q 40.921875 74.21875 44.703125 73.484375 
Q 48.484375 72.75 52.59375 71.296875 
z
" id="DejaVuSans-36"/>
      </defs>
      <g transform="translate(287.227214 317.076875)scale(0.2 -0.2)">
       <use xlink:href="#DejaVuSans-36"/>
      </g>
     </g>
    </g>
    <g id="xtick_5">
     <g id="line2d_9">
      <path clip-path="url(#p31a7a937dd)" d="M 56.12 294.88 
L 56.12 24.84 
" style="fill:none;stroke:#b0b0b0;stroke-linecap:square;stroke-width:0.8;"/>
     </g>
     <g id="line2d_10">
      <defs>
       <path d="M 0 0 
L 0 2 
" id="m7388897618" style="stroke:#000000;stroke-width:0.6;"/>
      </defs>
      <g>
       <use style="stroke:#000000;stroke-width:0.6;" x="56.12" xlink:href="#m7388897618" y="294.88"/>
      </g>
     </g>
    </g>
    <g id="xtick_6">
     <g id="line2d_11">
      <path clip-path="url(#p31a7a937dd)" d="M 95.698286 294.88 
L 95.698286 24.84 
" style="fill:none;stroke:#b0b0b0;stroke-linecap:square;stroke-width:0.8;"/>
     </g>
     <g id="line2d_12">
      <g>
       <use style="stroke:#000000;stroke-width:0.6;" x="95.698286" xlink:href="#m7388897618" y="294.88"/>
      </g>
     </g>
    </g>
    <g id="xtick_7">
     <g id="line2d_13">
      <path clip-path="url(#p31a7a937dd)" d="M 135.276571 294.88 
L 135.276571 24.84 
" style="fill:none;stroke:#b0b0b0;stroke-linecap:square;stroke-width:0.8;"/>
     </g>
     <g id="line2d_14">
      <g>
       <use style="stroke:#000000;stroke-width:0.6;" x="135.276571" xlink:href="#m7388897618" y="294.88"/>
      </g>
     </g>
    </g>
    <g id="xtick_8">
     <g id="line2d_15">
      <path clip-path="url(#p31a7a937dd)" d="M 174.854857 294.88 
L 174.854857 24.84 
" style="fill:none;stroke:#b0b0b0;stroke-linecap:square;stroke-width:0.8;"/>
     </g>
     <g id="line2d_16">
      <g>
       <use style="stroke:#000000;stroke-width:0.6;" x="174.854857" xlink:href="#m7388897618" y="294.88"/>
      </g>
     </g>
    </g>
    <g id="xtick_9">
     <g id="line2d_17">
      <path clip-path="url(#p31a7a937dd)" d="M 214.433143 294.88 
L 214.433143 24.84 
" style="fill:none;stroke:#b0b0b0;stroke-linecap:square;stroke-width:0.8;"/>
     </g>
     <g id="line2d_18">
      <g>
       <use style="stroke:#000000;stroke-width:0.6;" x="214.433143" xlink:href="#m7388897618" y="294.88"/>
      </g>
     </g>
    </g>
    <g id="xtick_10">
     <g id="line2d_19">
      <path clip-path="url(#p31a7a937dd)" d="M 254.011429 294.88 
L 254.011429 24.84 
" style="fill:none;stroke:#b0b0b0;stroke-linecap:square;stroke-width:0.8;"/>
     </g>
     <g id="line2d_20">
      <g>
       <use style="stroke:#000000;stroke-width:0.6;" x="254.011429" xlink:href="#m7388897618" y="294.88"/>
      </g>
     </g>
    </g>
    <g id="xtick_11">
     <g id="line2d_21">
      <path clip-path="url(#p31a7a937dd)" d="M 293.589714 294.88 
L 293.589714 24.84 
" style="fill:none;stroke:#b0b0b0;stroke-linecap:square;stroke-width:0.8;"/>
     </g>
     <g id="line2d_22">
      <g>
       <use style="stroke:#000000;stroke-width:0.6;" x="293.589714" xlink:href="#m7388897618" y="294.88"/>
      </g>
     </g>
    </g>
    <g id="xtick_12">
     <g id="line2d_23">
      <path clip-path="url(#p31a7a937dd)" d="M 333.168 294.88 
L 333.168 24.84 
" style="fill:none;stroke:#b0b0b0;stroke-linecap:square;stroke-width:0.8;"/>
     </g>
     <g id="line2d_24">
      <g>
       <use style="stroke:#000000;stroke-width:0.6;" x="333.168" xlink:href="#m7388897618" y="294.88"/>
      </g>
     </g>
    </g>
    <g id="text_5">
     <!-- log10(# f-evals / dimension) -->
     <defs>
      <path d="M 9.421875 75.984375 
L 18.40625 75.984375 
L 18.40625 0 
L 9.421875 0 
z
" id="DejaVuSans-6c"/>
      <path d="M 30.609375 48.390625 
Q 23.390625 48.390625 19.1875 42.75 
Q 14.984375 37.109375 14.984375 27.296875 
Q 14.984375 17.484375 19.15625 11.84375 
Q 23.34375 6.203125 30.609375 6.203125 
Q 37.796875 6.203125 41.984375 11.859375 
Q 46.1875 17.53125 46.1875 27.296875 
Q 46.1875 37.015625 41.984375 42.703125 
Q 37.796875 48.390625 30.609375 48.390625 
z
M 30.609375 56 
Q 42.328125 56 49.015625 48.375 
Q 55.71875 40.765625 55.71875 27.296875 
Q 55.71875 13.875 49.015625 6.21875 
Q 42.328125 -1.421875 30.609375 -1.421875 
Q 18.84375 -1.421875 12.171875 6.21875 
Q 5.515625 13.875 5.515625 27.296875 
Q 5.515625 40.765625 12.171875 48.375 
Q 18.84375 56 30.609375 56 
z
" id="DejaVuSans-6f"/>
      <path d="M 45.40625 27.984375 
Q 45.40625 37.75 41.375 43.109375 
Q 37.359375 48.484375 30.078125 48.484375 
Q 22.859375 48.484375 18.828125 43.109375 
Q 14.796875 37.75 14.796875 27.984375 
Q 14.796875 18.265625 18.828125 12.890625 
Q 22.859375 7.515625 30.078125 7.515625 
Q 37.359375 7.515625 41.375 12.890625 
Q 45.40625 18.265625 45.40625 27.984375 
z
M 54.390625 6.78125 
Q 54.390625 -7.171875 48.1875 -13.984375 
Q 42 -20.796875 29.203125 -20.796875 
Q 24.46875 -20.796875 20.265625 -20.09375 
Q 16.0625 -19.390625 12.109375 -17.921875 
L 12.109375 -9.1875 
Q 16.0625 -11.328125 19.921875 -12.34375 
Q 23.78125 -13.375 27.78125 -13.375 
Q 36.625 -13.375 41.015625 -8.765625 
Q 45.40625 -4.15625 45.40625 5.171875 
L 45.40625 9.625 
Q 42.625 4.78125 38.28125 2.390625 
Q 33.9375 0 27.875 0 
Q 17.828125 0 11.671875 7.65625 
Q 5.515625 15.328125 5.515625 27.984375 
Q 5.515625 40.671875 11.671875 48.328125 
Q 17.828125 56 27.875 56 
Q 33.9375 56 38.28125 53.609375 
Q 42.625 51.21875 45.40625 46.390625 
L 45.40625 54.6875 
L 54.390625 54.6875 
z
" id="DejaVuSans-67"/>
      <path d="M 12.40625 8.296875 
L 28.515625 8.296875 
L 28.515625 63.921875 
L 10.984375 60.40625 
L 10.984375 69.390625 
L 28.421875 72.90625 
L 38.28125 72.90625 
L 38.28125 8.296875 
L 54.390625 8.296875 
L 54.390625 0 
L 12.40625 0 
z
" id="DejaVuSans-31"/>
      <path d="M 31 75.875 
Q 24.46875 64.65625 21.28125 53.65625 
Q 18.109375 42.671875 18.109375 31.390625 
Q 18.109375 20.125 21.3125 9.0625 
Q 24.515625 -2 31 -13.1875 
L 23.1875 -13.1875 
Q 15.875 -1.703125 12.234375 9.375 
Q 8.59375 20.453125 8.59375 31.390625 
Q 8.59375 42.28125 12.203125 53.3125 
Q 15.828125 64.359375 23.1875 75.875 
z
" id="DejaVuSans-28"/>
      <path d="M 51.125 44 
L 36.921875 44 
L 32.8125 27.6875 
L 47.125 27.6875 
z
M 43.796875 71.78125 
L 38.71875 51.515625 
L 52.984375 51.515625 
L 58.109375 71.78125 
L 65.921875 71.78125 
L 60.890625 51.515625 
L 76.125 51.515625 
L 76.125 44 
L 58.984375 44 
L 54.984375 27.6875 
L 70.515625 27.6875 
L 70.515625 20.21875 
L 53.078125 20.21875 
L 48 0 
L 40.1875 0 
L 45.21875 20.21875 
L 30.90625 20.21875 
L 25.875 0 
L 18.015625 0 
L 23.09375 20.21875 
L 7.71875 20.21875 
L 7.71875 27.6875 
L 24.90625 27.6875 
L 29 44 
L 13.28125 44 
L 13.28125 51.515625 
L 30.90625 51.515625 
L 35.890625 71.78125 
z
" id="DejaVuSans-23"/>
      <path id="DejaVuSans-20"/>
      <path d="M 37.109375 75.984375 
L 37.109375 68.5 
L 28.515625 68.5 
Q 23.6875 68.5 21.796875 66.546875 
Q 19.921875 64.59375 19.921875 59.515625 
L 19.921875 54.6875 
L 34.71875 54.6875 
L 34.71875 47.703125 
L 19.921875 47.703125 
L 19.921875 0 
L 10.890625 0 
L 10.890625 47.703125 
L 2.296875 47.703125 
L 2.296875 54.6875 
L 10.890625 54.6875 
L 10.890625 58.5 
Q 10.890625 67.625 15.140625 71.796875 
Q 19.390625 75.984375 28.609375 75.984375 
z
" id="DejaVuSans-66"/>
      <path d="M 4.890625 31.390625 
L 31.203125 31.390625 
L 31.203125 23.390625 
L 4.890625 23.390625 
z
" id="DejaVuSans-2d"/>
      <path d="M 56.203125 29.59375 
L 56.203125 25.203125 
L 14.890625 25.203125 
Q 15.484375 15.921875 20.484375 11.0625 
Q 25.484375 6.203125 34.421875 6.203125 
Q 39.59375 6.203125 44.453125 7.46875 
Q 49.3125 8.734375 54.109375 11.28125 
L 54.109375 2.78125 
Q 49.265625 0.734375 44.1875 -0.34375 
Q 39.109375 -1.421875 33.890625 -1.421875 
Q 20.796875 -1.421875 13.15625 6.1875 
Q 5.515625 13.8125 5.515625 26.8125 
Q 5.515625 40.234375 12.765625 48.109375 
Q 20.015625 56 32.328125 56 
Q 43.359375 56 49.78125 48.890625 
Q 56.203125 41.796875 56.203125 29.59375 
z
M 47.21875 32.234375 
Q 47.125 39.59375 43.09375 43.984375 
Q 39.0625 48.390625 32.421875 48.390625 
Q 24.90625 48.390625 20.390625 44.140625 
Q 15.875 39.890625 15.1875 32.171875 
z
" id="DejaVuSans-65"/>
      <path d="M 2.984375 54.6875 
L 12.5 54.6875 
L 29.59375 8.796875 
L 46.6875 54.6875 
L 56.203125 54.6875 
L 35.6875 0 
L 23.484375 0 
z
" id="DejaVuSans-76"/>
      <path d="M 34.28125 27.484375 
Q 23.390625 27.484375 19.1875 25 
Q 14.984375 22.515625 14.984375 16.5 
Q 14.984375 11.71875 18.140625 8.90625 
Q 21.296875 6.109375 26.703125 6.109375 
Q 34.1875 6.109375 38.703125 11.40625 
Q 43.21875 16.703125 43.21875 25.484375 
L 43.21875 27.484375 
z
M 52.203125 31.203125 
L 52.203125 0 
L 43.21875 0 
L 43.21875 8.296875 
Q 40.140625 3.328125 35.546875 0.953125 
Q 30.953125 -1.421875 24.3125 -1.421875 
Q 15.921875 -1.421875 10.953125 3.296875 
Q 6 8.015625 6 15.921875 
Q 6 25.140625 12.171875 29.828125 
Q 18.359375 34.515625 30.609375 34.515625 
L 43.21875 34.515625 
L 43.21875 35.40625 
Q 43.21875 41.609375 39.140625 45 
Q 35.0625 48.390625 27.6875 48.390625 
Q 23 48.390625 18.546875 47.265625 
Q 14.109375 46.140625 10.015625 43.890625 
L 10.015625 52.203125 
Q 14.9375 54.109375 19.578125 55.046875 
Q 24.21875 56 28.609375 56 
Q 40.484375 56 46.34375 49.84375 
Q 52.203125 43.703125 52.203125 31.203125 
z
" id="DejaVuSans-61"/>
      <path d="M 44.28125 53.078125 
L 44.28125 44.578125 
Q 40.484375 46.53125 36.375 47.5 
Q 32.28125 48.484375 27.875 48.484375 
Q 21.1875 48.484375 17.84375 46.4375 
Q 14.5 44.390625 14.5 40.28125 
Q 14.5 37.15625 16.890625 35.375 
Q 19.28125 33.59375 26.515625 31.984375 
L 29.59375 31.296875 
Q 39.15625 29.25 43.1875 25.515625 
Q 47.21875 21.78125 47.21875 15.09375 
Q 47.21875 7.46875 41.1875 3.015625 
Q 35.15625 -1.421875 24.609375 -1.421875 
Q 20.21875 -1.421875 15.453125 -0.5625 
Q 10.6875 0.296875 5.421875 2 
L 5.421875 11.28125 
Q 10.40625 8.6875 15.234375 7.390625 
Q 20.0625 6.109375 24.8125 6.109375 
Q 31.15625 6.109375 34.5625 8.28125 
Q 37.984375 10.453125 37.984375 14.40625 
Q 37.984375 18.0625 35.515625 20.015625 
Q 33.0625 21.96875 24.703125 23.78125 
L 21.578125 24.515625 
Q 13.234375 26.265625 9.515625 29.90625 
Q 5.8125 33.546875 5.8125 39.890625 
Q 5.8125 47.609375 11.28125 51.796875 
Q 16.75 56 26.8125 56 
Q 31.78125 56 36.171875 55.265625 
Q 40.578125 54.546875 44.28125 53.078125 
z
" id="DejaVuSans-73"/>
      <path d="M 25.390625 72.90625 
L 33.6875 72.90625 
L 8.296875 -9.28125 
L 0 -9.28125 
z
" id="DejaVuSans-2f"/>
      <path d="M 45.40625 46.390625 
L 45.40625 75.984375 
L 54.390625 75.984375 
L 54.390625 0 
L 45.40625 0 
L 45.40625 8.203125 
Q 42.578125 3.328125 38.25 0.953125 
Q 33.9375 -1.421875 27.875 -1.421875 
Q 17.96875 -1.421875 11.734375 6.484375 
Q 5.515625 14.40625 5.515625 27.296875 
Q 5.515625 40.1875 11.734375 48.09375 
Q 17.96875 56 27.875 56 
Q 33.9375 56 38.25 53.625 
Q 42.578125 51.265625 45.40625 46.390625 
z
M 14.796875 27.296875 
Q 14.796875 17.390625 18.875 11.75 
Q 22.953125 6.109375 30.078125 6.109375 
Q 37.203125 6.109375 41.296875 11.75 
Q 45.40625 17.390625 45.40625 27.296875 
Q 45.40625 37.203125 41.296875 42.84375 
Q 37.203125 48.484375 30.078125 48.484375 
Q 22.953125 48.484375 18.875 42.84375 
Q 14.796875 37.203125 14.796875 27.296875 
z
" id="DejaVuSans-64"/>
      <path d="M 9.421875 54.6875 
L 18.40625 54.6875 
L 18.40625 0 
L 9.421875 0 
z
M 9.421875 75.984375 
L 18.40625 75.984375 
L 18.40625 64.59375 
L 9.421875 64.59375 
z
" id="DejaVuSans-69"/>
      <path d="M 52 44.1875 
Q 55.375 50.25 60.0625 53.125 
Q 64.75 56 71.09375 56 
Q 79.640625 56 84.28125 50.015625 
Q 88.921875 44.046875 88.921875 33.015625 
L 88.921875 0 
L 79.890625 0 
L 79.890625 32.71875 
Q 79.890625 40.578125 77.09375 44.375 
Q 74.3125 48.1875 68.609375 48.1875 
Q 61.625 48.1875 57.5625 43.546875 
Q 53.515625 38.921875 53.515625 30.90625 
L 53.515625 0 
L 44.484375 0 
L 44.484375 32.71875 
Q 44.484375 40.625 41.703125 44.40625 
Q 38.921875 48.1875 33.109375 48.1875 
Q 26.21875 48.1875 22.15625 43.53125 
Q 18.109375 38.875 18.109375 30.90625 
L 18.109375 0 
L 9.078125 0 
L 9.078125 54.6875 
L 18.109375 54.6875 
L 18.109375 46.1875 
Q 21.1875 51.21875 25.484375 53.609375 
Q 29.78125 56 35.6875 56 
Q 41.65625 56 45.828125 52.96875 
Q 50 49.953125 52 44.1875 
z
" id="DejaVuSans-6d"/>
      <path d="M 54.890625 33.015625 
L 54.890625 0 
L 45.90625 0 
L 45.90625 32.71875 
Q 45.90625 40.484375 42.875 44.328125 
Q 39.84375 48.1875 33.796875 48.1875 
Q 26.515625 48.1875 22.3125 43.546875 
Q 18.109375 38.921875 18.109375 30.90625 
L 18.109375 0 
L 9.078125 0 
L 9.078125 54.6875 
L 18.109375 54.6875 
L 18.109375 46.1875 
Q 21.34375 51.125 25.703125 53.5625 
Q 30.078125 56 35.796875 56 
Q 45.21875 56 50.046875 50.171875 
Q 54.890625 44.34375 54.890625 33.015625 
z
" id="DejaVuSans-6e"/>
      <path d="M 8.015625 75.875 
L 15.828125 75.875 
Q 23.140625 64.359375 26.78125 53.3125 
Q 30.421875 42.28125 30.421875 31.390625 
Q 30.421875 20.453125 26.78125 9.375 
Q 23.140625 -1.703125 15.828125 -13.1875 
L 8.015625 -13.1875 
Q 14.5 -2 17.703125 9.0625 
Q 20.90625 20.125 20.90625 31.390625 
Q 20.90625 42.671875 17.703125 53.65625 
Q 14.5 64.65625 8.015625 75.875 
z
" id="DejaVuSans-29"/>
     </defs>
     <g transform="translate(73.803219 338.153594)scale(0.17 -0.17)">
      <use xlink:href="#DejaVuSans-6c"/>
      <use x="27.783203" xlink:href="#DejaVuSans-6f"/>
      <use x="88.964844" xlink:href="#DejaVuSans-67"/>
      <use x="152.441406" xlink:href="#DejaVuSans-31"/>
      <use x="216.064453" xlink:href="#DejaVuSans-30"/>
      <use x="279.6875" xlink:href="#DejaVuSans-28"/>
      <use x="318.701172" xlink:href="#DejaVuSans-23"/>
      <use x="402.490234" xlink:href="#DejaVuSans-20"/>
      <use x="434.277344" xlink:href="#DejaVuSans-66"/>
      <use x="469.404297" xlink:href="#DejaVuSans-2d"/>
      <use x="505.488281" xlink:href="#DejaVuSans-65"/>
      <use x="567.011719" xlink:href="#DejaVuSans-76"/>
      <use x="626.191406" xlink:href="#DejaVuSans-61"/>
      <use x="687.470703" xlink:href="#DejaVuSans-6c"/>
      <use x="715.253906" xlink:href="#DejaVuSans-73"/>
      <use x="767.353516" xlink:href="#DejaVuSans-20"/>
      <use x="799.140625" xlink:href="#DejaVuSans-2f"/>
      <use x="832.832031" xlink:href="#DejaVuSans-20"/>
      <use x="864.619141" xlink:href="#DejaVuSans-64"/>
      <use x="928.095703" xlink:href="#DejaVuSans-69"/>
      <use x="955.878906" xlink:href="#DejaVuSans-6d"/>
      <use x="1053.291016" xlink:href="#DejaVuSans-65"/>
      <use x="1114.814453" xlink:href="#DejaVuSans-6e"/>
      <use x="1178.193359" xlink:href="#DejaVuSans-73"/>
      <use x="1230.292969" xlink:href="#DejaVuSans-69"/>
      <use x="1258.076172" xlink:href="#DejaVuSans-6f"/>
      <use x="1319.257812" xlink:href="#DejaVuSans-6e"/>
      <use x="1382.636719" xlink:href="#DejaVuSans-29"/>
     </g>
    </g>
   </g>
   <g id="matplotlib.axis_2">
    <g id="ytick_1">
     <g id="line2d_25">
      <path clip-path="url(#p31a7a937dd)" d="M 56.12 294.88 
L 333.168 294.88 
" style="fill:none;stroke:#b0b0b0;stroke-linecap:square;stroke-width:0.8;"/>
     </g>
     <g id="line2d_26">
      <defs>
       <path d="M 0 0 
L -3.5 0 
" id="me9e461a1bd" style="stroke:#000000;stroke-width:0.8;"/>
      </defs>
      <g>
       <use style="stroke:#000000;stroke-width:0.8;" x="56.12" xlink:href="#me9e461a1bd" y="294.88"/>
      </g>
     </g>
     <g id="text_6">
      <!-- 0.0 -->
      <defs>
       <path d="M 10.6875 12.40625 
L 21 12.40625 
L 21 0 
L 10.6875 0 
z
" id="DejaVuSans-2e"/>
      </defs>
      <g transform="translate(23.675 300.95875)scale(0.16 -0.16)">
       <use xlink:href="#DejaVuSans-30"/>
       <use x="63.623047" xlink:href="#DejaVuSans-2e"/>
       <use x="95.410156" xlink:href="#DejaVuSans-30"/>
      </g>
     </g>
    </g>
    <g id="ytick_2">
     <g id="line2d_27">
      <path clip-path="url(#p31a7a937dd)" d="M 56.12 241.406733 
L 333.168 241.406733 
" style="fill:none;stroke:#b0b0b0;stroke-linecap:square;stroke-width:0.8;"/>
     </g>
     <g id="line2d_28">
      <g>
       <use style="stroke:#000000;stroke-width:0.8;" x="56.12" xlink:href="#me9e461a1bd" y="241.406733"/>
      </g>
     </g>
     <g id="text_7">
      <!-- 0.2 -->
      <g transform="translate(23.675 247.485483)scale(0.16 -0.16)">
       <use xlink:href="#DejaVuSans-30"/>
       <use x="63.623047" xlink:href="#DejaVuSans-2e"/>
       <use x="95.410156" xlink:href="#DejaVuSans-32"/>
      </g>
     </g>
    </g>
    <g id="ytick_3">
     <g id="line2d_29">
      <path clip-path="url(#p31a7a937dd)" d="M 56.12 187.933465 
L 333.168 187.933465 
" style="fill:none;stroke:#b0b0b0;stroke-linecap:square;stroke-width:0.8;"/>
     </g>
     <g id="line2d_30">
      <g>
       <use style="stroke:#000000;stroke-width:0.8;" x="56.12" xlink:href="#me9e461a1bd" y="187.933465"/>
      </g>
     </g>
     <g id="text_8">
      <!-- 0.4 -->
      <g transform="translate(23.675 194.012215)scale(0.16 -0.16)">
       <use xlink:href="#DejaVuSans-30"/>
       <use x="63.623047" xlink:href="#DejaVuSans-2e"/>
       <use x="95.410156" xlink:href="#DejaVuSans-34"/>
      </g>
     </g>
    </g>
    <g id="ytick_4">
     <g id="line2d_31">
      <path clip-path="url(#p31a7a937dd)" d="M 56.12 134.460198 
L 333.168 134.460198 
" style="fill:none;stroke:#b0b0b0;stroke-linecap:square;stroke-width:0.8;"/>
     </g>
     <g id="line2d_32">
      <g>
       <use style="stroke:#000000;stroke-width:0.8;" x="56.12" xlink:href="#me9e461a1bd" y="134.460198"/>
      </g>
     </g>
     <g id="text_9">
      <!-- 0.6 -->
      <g transform="translate(23.675 140.538948)scale(0.16 -0.16)">
       <use xlink:href="#DejaVuSans-30"/>
       <use x="63.623047" xlink:href="#DejaVuSans-2e"/>
       <use x="95.410156" xlink:href="#DejaVuSans-36"/>
      </g>
     </g>
    </g>
    <g id="ytick_5">
     <g id="line2d_33">
      <path clip-path="url(#p31a7a937dd)" d="M 56.12 80.986931 
L 333.168 80.986931 
" style="fill:none;stroke:#b0b0b0;stroke-linecap:square;stroke-width:0.8;"/>
     </g>
     <g id="line2d_34">
      <g>
       <use style="stroke:#000000;stroke-width:0.8;" x="56.12" xlink:href="#me9e461a1bd" y="80.986931"/>
      </g>
     </g>
     <g id="text_10">
      <!-- 0.8 -->
      <defs>
       <path d="M 31.78125 34.625 
Q 24.75 34.625 20.71875 30.859375 
Q 16.703125 27.09375 16.703125 20.515625 
Q 16.703125 13.921875 20.71875 10.15625 
Q 24.75 6.390625 31.78125 6.390625 
Q 38.8125 6.390625 42.859375 10.171875 
Q 46.921875 13.96875 46.921875 20.515625 
Q 46.921875 27.09375 42.890625 30.859375 
Q 38.875 34.625 31.78125 34.625 
z
M 21.921875 38.8125 
Q 15.578125 40.375 12.03125 44.71875 
Q 8.5 49.078125 8.5 55.328125 
Q 8.5 64.0625 14.71875 69.140625 
Q 20.953125 74.21875 31.78125 74.21875 
Q 42.671875 74.21875 48.875 69.140625 
Q 55.078125 64.0625 55.078125 55.328125 
Q 55.078125 49.078125 51.53125 44.71875 
Q 48 40.375 41.703125 38.8125 
Q 48.828125 37.15625 52.796875 32.3125 
Q 56.78125 27.484375 56.78125 20.515625 
Q 56.78125 9.90625 50.3125 4.234375 
Q 43.84375 -1.421875 31.78125 -1.421875 
Q 19.734375 -1.421875 13.25 4.234375 
Q 6.78125 9.90625 6.78125 20.515625 
Q 6.78125 27.484375 10.78125 32.3125 
Q 14.796875 37.15625 21.921875 38.8125 
z
M 18.3125 54.390625 
Q 18.3125 48.734375 21.84375 45.5625 
Q 25.390625 42.390625 31.78125 42.390625 
Q 38.140625 42.390625 41.71875 45.5625 
Q 45.3125 48.734375 45.3125 54.390625 
Q 45.3125 60.0625 41.71875 63.234375 
Q 38.140625 66.40625 31.78125 66.40625 
Q 25.390625 66.40625 21.84375 63.234375 
Q 18.3125 60.0625 18.3125 54.390625 
z
" id="DejaVuSans-38"/>
      </defs>
      <g transform="translate(23.675 87.065681)scale(0.16 -0.16)">
       <use xlink:href="#DejaVuSans-30"/>
       <use x="63.623047" xlink:href="#DejaVuSans-2e"/>
       <use x="95.410156" xlink:href="#DejaVuSans-38"/>
      </g>
     </g>
    </g>
    <g id="ytick_6">
     <g id="line2d_35">
      <path clip-path="url(#p31a7a937dd)" d="M 56.12 27.513663 
L 333.168 27.513663 
" style="fill:none;stroke:#b0b0b0;stroke-linecap:square;stroke-width:0.8;"/>
     </g>
     <g id="line2d_36">
      <g>
       <use style="stroke:#000000;stroke-width:0.8;" x="56.12" xlink:href="#me9e461a1bd" y="27.513663"/>
      </g>
     </g>
     <g id="text_11">
      <!-- 1.0 -->
      <g transform="translate(23.675 33.592413)scale(0.16 -0.16)">
       <use xlink:href="#DejaVuSans-31"/>
       <use x="63.623047" xlink:href="#DejaVuSans-2e"/>
       <use x="95.410156" xlink:href="#DejaVuSans-30"/>
      </g>
     </g>
    </g>
    <g id="text_12">
     <!-- Fraction of function,target pairs -->
     <defs>
      <path d="M 9.8125 72.90625 
L 51.703125 72.90625 
L 51.703125 64.59375 
L 19.671875 64.59375 
L 19.671875 43.109375 
L 48.578125 43.109375 
L 48.578125 34.8125 
L 19.671875 34.8125 
L 19.671875 0 
L 9.8125 0 
z
" id="DejaVuSans-46"/>
      <path d="M 41.109375 46.296875 
Q 39.59375 47.171875 37.8125 47.578125 
Q 36.03125 48 33.890625 48 
Q 26.265625 48 22.1875 43.046875 
Q 18.109375 38.09375 18.109375 28.8125 
L 18.109375 0 
L 9.078125 0 
L 9.078125 54.6875 
L 18.109375 54.6875 
L 18.109375 46.1875 
Q 20.953125 51.171875 25.484375 53.578125 
Q 30.03125 56 36.53125 56 
Q 37.453125 56 38.578125 55.875 
Q 39.703125 55.765625 41.0625 55.515625 
z
" id="DejaVuSans-72"/>
      <path d="M 48.78125 52.59375 
L 48.78125 44.1875 
Q 44.96875 46.296875 41.140625 47.34375 
Q 37.3125 48.390625 33.40625 48.390625 
Q 24.65625 48.390625 19.8125 42.84375 
Q 14.984375 37.3125 14.984375 27.296875 
Q 14.984375 17.28125 19.8125 11.734375 
Q 24.65625 6.203125 33.40625 6.203125 
Q 37.3125 6.203125 41.140625 7.25 
Q 44.96875 8.296875 48.78125 10.40625 
L 48.78125 2.09375 
Q 45.015625 0.34375 40.984375 -0.53125 
Q 36.96875 -1.421875 32.421875 -1.421875 
Q 20.0625 -1.421875 12.78125 6.34375 
Q 5.515625 14.109375 5.515625 27.296875 
Q 5.515625 40.671875 12.859375 48.328125 
Q 20.21875 56 33.015625 56 
Q 37.15625 56 41.109375 55.140625 
Q 45.0625 54.296875 48.78125 52.59375 
z
" id="DejaVuSans-63"/>
      <path d="M 18.3125 70.21875 
L 18.3125 54.6875 
L 36.8125 54.6875 
L 36.8125 47.703125 
L 18.3125 47.703125 
L 18.3125 18.015625 
Q 18.3125 11.328125 20.140625 9.421875 
Q 21.96875 7.515625 27.59375 7.515625 
L 36.8125 7.515625 
L 36.8125 0 
L 27.59375 0 
Q 17.1875 0 13.234375 3.875 
Q 9.28125 7.765625 9.28125 18.015625 
L 9.28125 47.703125 
L 2.6875 47.703125 
L 2.6875 54.6875 
L 9.28125 54.6875 
L 9.28125 70.21875 
z
" id="DejaVuSans-74"/>
      <path d="M 8.5 21.578125 
L 8.5 54.6875 
L 17.484375 54.6875 
L 17.484375 21.921875 
Q 17.484375 14.15625 20.5 10.265625 
Q 23.53125 6.390625 29.59375 6.390625 
Q 36.859375 6.390625 41.078125 11.03125 
Q 45.3125 15.671875 45.3125 23.6875 
L 45.3125 54.6875 
L 54.296875 54.6875 
L 54.296875 0 
L 45.3125 0 
L 45.3125 8.40625 
Q 42.046875 3.421875 37.71875 1 
Q 33.40625 -1.421875 27.6875 -1.421875 
Q 18.265625 -1.421875 13.375 4.4375 
Q 8.5 10.296875 8.5 21.578125 
z
M 31.109375 56 
z
" id="DejaVuSans-75"/>
      <path d="M 11.71875 12.40625 
L 22.015625 12.40625 
L 22.015625 4 
L 14.015625 -11.625 
L 7.71875 -11.625 
L 11.71875 4 
z
" id="DejaVuSans-2c"/>
      <path d="M 18.109375 8.203125 
L 18.109375 -20.796875 
L 9.078125 -20.796875 
L 9.078125 54.6875 
L 18.109375 54.6875 
L 18.109375 46.390625 
Q 20.953125 51.265625 25.265625 53.625 
Q 29.59375 56 35.59375 56 
Q 45.5625 56 51.78125 48.09375 
Q 58.015625 40.1875 58.015625 27.296875 
Q 58.015625 14.40625 51.78125 6.484375 
Q 45.5625 -1.421875 35.59375 -1.421875 
Q 29.59375 -1.421875 25.265625 0.953125 
Q 20.953125 3.328125 18.109375 8.203125 
z
M 48.6875 27.296875 
Q 48.6875 37.203125 44.609375 42.84375 
Q 40.53125 48.484375 33.40625 48.484375 
Q 26.265625 48.484375 22.1875 42.84375 
Q 18.109375 37.203125 18.109375 27.296875 
Q 18.109375 17.390625 22.1875 11.75 
Q 26.265625 6.109375 33.40625 6.109375 
Q 40.53125 6.109375 44.609375 11.75 
Q 48.6875 17.390625 48.6875 27.296875 
z
" id="DejaVuSans-70"/>
     </defs>
     <g transform="translate(16.139531 294.999375)rotate(-90)scale(0.17 -0.17)">
      <use xlink:href="#DejaVuSans-46"/>
      <use x="57.410156" xlink:href="#DejaVuSans-72"/>
      <use x="98.523438" xlink:href="#DejaVuSans-61"/>
      <use x="159.802734" xlink:href="#DejaVuSans-63"/>
      <use x="214.783203" xlink:href="#DejaVuSans-74"/>
      <use x="253.992188" xlink:href="#DejaVuSans-69"/>
      <use x="281.775391" xlink:href="#DejaVuSans-6f"/>
      <use x="342.957031" xlink:href="#DejaVuSans-6e"/>
      <use x="406.335938" xlink:href="#DejaVuSans-20"/>
      <use x="438.123047" xlink:href="#DejaVuSans-6f"/>
      <use x="499.304688" xlink:href="#DejaVuSans-66"/>
      <use x="534.509766" xlink:href="#DejaVuSans-20"/>
      <use x="566.296875" xlink:href="#DejaVuSans-66"/>
      <use x="601.501953" xlink:href="#DejaVuSans-75"/>
      <use x="664.880859" xlink:href="#DejaVuSans-6e"/>
      <use x="728.259766" xlink:href="#DejaVuSans-63"/>
      <use x="783.240234" xlink:href="#DejaVuSans-74"/>
      <use x="822.449219" xlink:href="#DejaVuSans-69"/>
      <use x="850.232422" xlink:href="#DejaVuSans-6f"/>
      <use x="911.414062" xlink:href="#DejaVuSans-6e"/>
      <use x="974.792969" xlink:href="#DejaVuSans-2c"/>
      <use x="1006.580078" xlink:href="#DejaVuSans-74"/>
      <use x="1045.789062" xlink:href="#DejaVuSans-61"/>
      <use x="1107.068359" xlink:href="#DejaVuSans-72"/>
      <use x="1148.166016" xlink:href="#DejaVuSans-67"/>
      <use x="1211.642578" xlink:href="#DejaVuSans-65"/>
      <use x="1273.166016" xlink:href="#DejaVuSans-74"/>
      <use x="1312.375" xlink:href="#DejaVuSans-20"/>
      <use x="1344.162109" xlink:href="#DejaVuSans-70"/>
      <use x="1407.638672" xlink:href="#DejaVuSans-61"/>
      <use x="1468.917969" xlink:href="#DejaVuSans-69"/>
      <use x="1496.701172" xlink:href="#DejaVuSans-72"/>
      <use x="1537.814453" xlink:href="#DejaVuSans-73"/>
     </g>
    </g>
   </g>
   <g id="line2d_37">
    <defs>
     <path d="M 0 1.5 
C 0.397805 1.5 0.77937 1.341951 1.06066 1.06066 
C 1.341951 0.77937 1.5 0.397805 1.5 0 
C 1.5 -0.397805 1.341951 -0.77937 1.06066 -1.06066 
C 0.77937 -1.341951 0.397805 -1.5 0 -1.5 
C -0.397805 -1.5 -0.77937 -1.341951 -1.06066 -1.06066 
C -1.341951 -0.77937 -1.5 -0.397805 -1.5 0 
C -1.5 0.397805 -1.341951 0.77937 -1.06066 1.06066 
C -0.77937 1.341951 -0.397805 1.5 0 1.5 
z
" id="macdecb2158" style="stroke:#000080;"/>
    </defs>
    <g>
     <use style="fill:#000080;stroke:#000080;" x="233.934096" xlink:href="#macdecb2158" y="27.513663"/>
     <use style="fill:#000080;stroke:#000080;" x="233.934096" xlink:href="#macdecb2158" y="27.513663"/>
    </g>
   </g>
   <g id="line2d_38">
    <path d="M 28.455965 294.88 
L 28.455965 293.307257 
L 40.370217 293.307257 
L 40.370217 289.637523 
L 47.339607 289.637523 
L 47.339607 288.06478 
L 59.253858 288.06478 
L 59.253858 287.540532 
L 64.198719 287.540532 
L 64.198719 285.967789 
L 66.223248 285.967789 
L 66.223248 285.443541 
L 68.034251 285.443541 
L 68.034251 284.919293 
L 69.672503 284.919293 
L 69.672503 284.395046 
L 71.168109 284.395046 
L 71.168109 283.870798 
L 73.817748 283.870798 
L 73.817748 283.34655 
L 75.003641 283.34655 
L 75.003641 282.822302 
L 76.11297 282.822302 
L 76.11297 281.773807 
L 77.155024 281.773807 
L 77.155024 280.725312 
L 79.948502 280.725312 
L 79.948502 277.055578 
L 80.787138 277.055578 
L 80.787138 274.958587 
L 81.586754 274.958587 
L 81.586754 273.385844 
L 83.08236 273.385844 
L 83.08236 271.288853 
L 83.784035 271.288853 
L 83.784035 270.764605 
L 93.887283 270.764605 
L 93.887283 270.240357 
L 97.021141 270.240357 
L 97.021141 269.191862 
L 97.950482 269.191862 
L 97.950482 268.143366 
L 98.249422 268.143366 
L 98.249422 267.619119 
L 99.941473 267.619119 
L 99.941473 266.570623 
L 100.983527 266.570623 
L 100.983527 265.522128 
L 102.20309 265.522128 
L 102.20309 264.99788 
L 102.667676 264.99788 
L 102.667676 264.473632 
L 103.120034 264.473632 
L 103.120034 263.949385 
L 105.415256 263.949385 
L 105.415256 263.425137 
L 105.801534 263.425137 
L 105.801534 262.376641 
L 106.910863 262.376641 
L 106.910863 260.279651 
L 107.612537 260.279651 
L 107.612537 259.231155 
L 109.713291 259.231155 
L 109.713291 245.600714 
L 110.746395 245.600714 
L 110.746395 244.552219 
L 111.855724 244.552219 
L 111.855724 244.027971 
L 112.122219 244.027971 
L 112.122219 243.503724 
L 113.023703 243.503724 
L 113.023703 242.455228 
L 113.148711 242.455228 
L 113.148711 241.93098 
L 113.639848 241.93098 
L 113.639848 241.406733 
L 113.999206 241.406733 
L 113.999206 238.785494 
L 115.58349 238.785494 
L 115.58349 238.261246 
L 116.010559 238.261246 
L 116.010559 235.640008 
L 116.73331 235.640008 
L 116.73331 226.203549 
L 117.523731 226.203549 
L 117.523731 217.815585 
L 119.612517 217.815585 
L 119.612517 217.291338 
L 120.689748 217.291338 
L 120.689748 216.242842 
L 122.151854 216.242842 
L 122.151854 215.718594 
L 123.154809 215.718594 
L 123.154809 214.145851 
L 124.493121 214.145851 
L 124.493121 212.04886 
L 125.614517 212.04886 
L 125.614517 211.524613 
L 127.443604 211.524613 
L 127.443604 210.476117 
L 128.39291 210.476117 
L 128.39291 209.427622 
L 128.596932 209.427622 
L 128.596932 208.903374 
L 128.798561 208.903374 
L 128.798561 207.854879 
L 129.867125 207.854879 
L 129.867125 207.330631 
L 130.239792 207.330631 
L 130.239792 206.806383 
L 132.361332 206.806383 
L 132.361332 194.224438 
L 133.196088 194.224438 
L 133.196088 186.88497 
L 134.8942 186.88497 
L 134.8942 186.360722 
L 138.381758 186.360722 
L 138.381758 184.787979 
L 138.496158 184.787979 
L 138.496158 184.263731 
L 138.80689 184.263731 
L 138.80689 183.739484 
L 138.974042 183.739484 
L 138.974042 183.215236 
L 139.330722 183.215236 
L 139.330722 182.690988 
L 140.511183 182.690988 
L 140.511183 179.021254 
L 142.986095 179.021254 
L 142.986095 177.972759 
L 143.967351 177.972759 
L 143.967351 175.35152 
L 144.152952 175.35152 
L 144.152952 166.439309 
L 144.816844 166.439309 
L 144.816844 165.915061 
L 145.226349 165.915061 
L 145.226349 163.81807 
L 146.560619 163.81807 
L 146.560619 150.711877 
L 147.514343 150.711877 
L 147.514343 150.18763 
L 152.801568 150.18763 
L 152.801568 147.566391 
L 152.986593 147.566391 
L 152.986593 147.042143 
L 153.482395 147.042143 
L 153.482395 146.517896 
L 153.719157 146.517896 
L 153.719157 135.508693 
L 156.552562 135.508693 
L 156.552562 133.411703 
L 156.681688 133.411703 
L 156.681688 132.887455 
L 157.398793 132.887455 
L 157.398793 132.363207 
L 158.563792 132.363207 
L 158.563792 131.838959 
L 158.923639 131.838959 
L 158.923639 131.314712 
L 161.913585 131.314712 
L 161.913585 130.266216 
L 167.221352 130.266216 
L 167.221352 127.644978 
L 167.386705 127.644978 
L 167.386705 127.12073 
L 168.521562 127.12073 
L 168.521562 116.635776 
L 168.640412 116.635776 
L 168.640412 116.111528 
L 168.807389 116.111528 
L 168.807389 114.014537 
L 169.030747 114.014537 
L 169.030747 112.441794 
L 169.646723 112.441794 
L 169.646723 111.917546 
L 173.089629 111.917546 
L 173.089629 103.005335 
L 173.410428 103.005335 
L 173.410428 101.432592 
L 173.581571 101.432592 
L 173.581571 100.908344 
L 173.783988 100.908344 
L 173.783988 100.384096 
L 175.01227 100.384096 
L 175.053098 91.471885 
L 175.801198 91.471885 
L 175.801198 88.850646 
L 176.402238 88.850646 
L 176.402238 87.802151 
L 176.961694 87.802151 
L 176.961694 87.277903 
L 177.091969 87.277903 
L 177.091969 85.70516 
L 177.456301 85.70516 
L 177.497619 77.317197 
L 177.726024 77.317197 
L 177.830426 76.268701 
L 214.698538 76.268701 
L 214.720527 72.598967 
L 214.809884 72.598967 
L 214.916836 68.404985 
L 214.928865 68.404985 
L 215.005181 65.783747 
L 215.117868 65.783747 
L 215.177557 58.444279 
L 215.26392 58.444279 
L 215.340722 54.774545 
L 215.389892 54.774545 
L 215.433733 51.104811 
L 215.594496 51.104811 
L 215.594496 50.056315 
L 215.979895 50.056315 
L 215.979895 49.00782 
L 216.126622 49.00782 
L 216.224471 45.338086 
L 216.292173 45.338086 
L 216.345466 41.668352 
L 216.475081 41.668352 
L 216.5734 39.571361 
L 216.655459 39.571361 
L 216.709146 38.522865 
L 216.780368 38.522865 
L 216.780368 37.998618 
L 216.943928 37.998618 
L 216.943928 37.47437 
L 226.700745 37.47437 
L 226.787247 35.901627 
L 226.820723 35.901627 
L 226.921261 33.804636 
L 226.935552 33.804636 
L 226.96559 32.756141 
L 227.417897 32.756141 
L 227.468697 31.183397 
L 227.627383 31.183397 
L 227.627383 30.65915 
L 227.754236 30.65915 
L 227.846481 29.610654 
L 233.593911 29.610654 
L 233.593911 29.086407 
L 233.710557 29.086407 
L 233.710557 28.562159 
L 233.927794 28.562159 
L 233.934096 27.513663 
L 333.168 27.513663 
L 333.168 27.513663 
" style="fill:none;stroke:#000080;stroke-linecap:square;stroke-width:1.5;"/>
   </g>
   <g id="line2d_39">
    <defs>
     <path d="M 0 6 
C 1.591219 6 3.117479 5.367802 4.242641 4.242641 
C 5.367802 3.117479 6 1.591219 6 0 
C 6 -1.591219 5.367802 -3.117479 4.242641 -4.242641 
C 3.117479 -5.367802 1.591219 -6 0 -6 
C -1.591219 -6 -3.117479 -5.367802 -4.242641 -4.242641 
C -5.367802 -3.117479 -6 -1.591219 -6 0 
C -6 1.591219 -5.367802 3.117479 -4.242641 4.242641 
C -3.117479 5.367802 -1.591219 6 0 6 
z
" id="mdb2483bc67" style="stroke:#000080;stroke-width:1.5;"/>
    </defs>
    <g>
     <use style="fill-opacity:0;stroke:#000080;stroke-width:1.5;" x="105.801534" xlink:href="#mdb2483bc67" y="262.376641"/>
     <use style="fill-opacity:0;stroke:#000080;stroke-width:1.5;" x="153.482395" xlink:href="#mdb2483bc67" y="146.517896"/>
     <use style="fill-opacity:0;stroke:#000080;stroke-width:1.5;" x="214.895098" xlink:href="#mdb2483bc67" y="71.026224"/>
     <use style="fill-opacity:0;stroke:#000080;stroke-width:1.5;" x="233.934096" xlink:href="#mdb2483bc67" y="28.037911"/>
     <use style="fill-opacity:0;stroke:#000080;stroke-width:1.5;" x="233.934096" xlink:href="#mdb2483bc67" y="27.513663"/>
     <use style="fill-opacity:0;stroke:#000080;stroke-width:1.5;" x="333.168" xlink:href="#mdb2483bc67" y="27.513663"/>
    </g>
   </g>
   <g id="line2d_40">
    <path style="fill:none;stroke:#000080;stroke-linecap:square;stroke-width:1.5;"/>
    <g/>
   </g>
   <g id="line2d_41">
    <path clip-path="url(#p31a7a937dd)" d="M 214.85724 71.550472 
" style="fill:none;stroke:#000080;stroke-linecap:square;stroke-width:1.5;"/>
    <defs>
     <path d="M -12 12 
L 12 -12 
M -12 -12 
L 12 12 
" id="m91e1df2b54" style="stroke:#000080;"/>
    </defs>
    <g clip-path="url(#p31a7a937dd)">
     <use style="fill:#000080;stroke:#000080;" x="214.85724" xlink:href="#m91e1df2b54" y="71.550472"/>
    </g>
   </g>
   <g id="line2d_42">
    <defs>
     <path d="M 0 1.5 
C 0.397805 1.5 0.77937 1.341951 1.06066 1.06066 
C 1.341951 0.77937 1.5 0.397805 1.5 0 
C 1.5 -0.397805 1.341951 -0.77937 1.06066 -1.06066 
C 0.77937 -1.341951 0.397805 -1.5 0 -1.5 
C -0.397805 -1.5 -0.77937 -1.341951 -1.06066 -1.06066 
C -1.341951 -0.77937 -1.5 -0.397805 -1.5 0 
C -1.5 0.397805 -1.341951 0.77937 -1.06066 1.06066 
C -0.77937 1.341951 -0.397805 1.5 0 1.5 
z
" id="ma186c8edf6" style="stroke:#ff00ff;"/>
    </defs>
    <g>
     <use style="fill:#ff00ff;stroke:#ff00ff;" x="161.34973" xlink:href="#ma186c8edf6" y="27.513663"/>
     <use style="fill:#ff00ff;stroke:#ff00ff;" x="161.34973" xlink:href="#ma186c8edf6" y="27.513663"/>
    </g>
   </g>
   <g id="line2d_43">
    <path d="M 28.455965 294.88 
L 28.455965 293.307257 
L 40.370217 293.307257 
L 40.370217 290.686018 
L 52.284468 290.686018 
L 52.284468 289.637523 
L 59.253858 289.637523 
L 59.253858 286.492036 
L 61.903497 286.492036 
L 61.903497 285.443541 
L 68.034251 285.443541 
L 68.034251 284.919293 
L 69.672503 284.919293 
L 69.672503 283.870798 
L 77.155024 283.870798 
L 77.155024 282.822302 
L 78.137499 282.822302 
L 78.137499 281.249559 
L 80.787138 281.249559 
L 80.787138 278.628321 
L 83.784035 278.628321 
L 83.784035 277.055578 
L 88.556144 277.055578 
L 88.556144 276.007082 
L 96.699848 276.007082 
L 96.699848 275.482834 
L 100.470395 275.482834 
L 100.470395 273.910091 
L 101.725597 273.910091 
L 101.725597 272.861596 
L 103.120034 272.861596 
L 103.120034 272.337348 
L 105.218813 272.337348 
L 105.218813 270.240357 
L 105.801534 270.240357 
L 105.801534 269.191862 
L 106.730875 269.191862 
L 106.730875 268.667614 
L 107.088985 268.667614 
L 107.088985 268.143366 
L 110.602556 268.143366 
L 110.602556 267.619119 
L 111.72091 267.619119 
L 111.72091 267.094871 
L 111.855724 267.094871 
L 111.855724 266.046375 
L 112.643127 266.046375 
L 112.643127 263.425137 
L 113.272818 263.425137 
L 113.272818 262.900889 
L 114.809594 262.900889 
L 114.809594 261.328146 
L 118.093572 261.328146 
L 118.093572 260.803898 
L 118.645127 260.803898 
L 118.645127 259.755403 
L 119.697821 259.755403 
L 119.697821 259.231155 
L 119.95122 259.231155 
L 119.95122 257.658412 
L 120.929036 257.658412 
L 120.929036 256.609917 
L 122.444434 256.609917 
L 122.444434 255.561421 
L 123.635161 255.561421 
L 123.635161 255.037173 
L 124.428624 255.037173 
L 124.428624 253.988678 
L 124.557378 253.988678 
L 124.621395 251.367439 
L 127.389295 251.367439 
L 127.389295 250.843192 
L 127.872003 250.843192 
L 127.872003 250.318944 
L 130.14738 250.318944 
L 130.14738 248.221953 
L 130.828657 248.221953 
L 130.828657 246.124962 
L 131.354881 246.124962 
L 131.354881 245.600714 
L 131.949115 245.600714 
L 131.949115 240.882485 
L 133.196088 240.882485 
L 133.196088 240.358237 
L 133.389004 240.358237 
L 133.389004 236.164255 
L 133.76846 236.164255 
L 133.76846 233.543017 
L 134.999329 233.543017 
L 134.999329 233.018769 
L 135.481607 233.018769 
L 135.481607 232.494521 
L 136.245672 232.494521 
L 136.245672 231.970274 
L 136.503668 231.970274 
L 136.503668 220.436824 
L 137.768335 220.436824 
L 137.768335 218.339833 
L 137.886877 218.339833 
L 137.886877 214.670099 
L 138.09238 214.670099 
L 138.09238 213.097356 
L 138.353038 213.097356 
L 138.353038 211.000365 
L 139.08458 211.000365 
L 139.08458 209.95187 
L 139.438997 209.95187 
L 139.438997 207.854879 
L 139.573389 207.854879 
L 139.680151 206.806383 
L 140.887317 206.806383 
L 140.887317 205.23364 
L 142.428336 205.23364 
L 142.450997 203.136649 
L 142.653616 203.136649 
L 142.653616 191.603199 
L 143.095508 191.603199 
L 143.095508 191.078952 
L 143.611205 191.078952 
L 143.611205 180.593997 
L 143.758748 180.593997 
L 143.758748 168.5363 
L 144.295937 168.5363 
L 144.295937 158.575593 
L 144.757539 158.575593 
L 144.757539 151.760373 
L 144.895601 151.760373 
L 144.895601 150.711877 
L 145.85077 150.711877 
L 145.85077 149.139134 
L 146.327245 149.139134 
L 146.43535 147.566391 
L 147.0007 147.566391 
L 147.0007 144.420905 
L 147.173625 144.420905 
L 147.173625 137.605684 
L 147.947413 137.605684 
L 147.947413 135.508693 
L 148.159923 135.508693 
L 148.159923 134.984446 
L 148.38588 134.984446 
L 148.481817 118.732766 
L 148.577222 118.732766 
L 148.656323 101.956839 
L 148.735061 101.956839 
L 148.750766 91.996133 
L 149.593139 91.996133 
L 149.593139 84.132417 
L 149.830637 84.132417 
L 149.830637 70.501976 
L 150.438891 70.501976 
L 150.438891 56.871536 
L 150.763082 56.871536 
L 150.763082 56.347288 
L 151.012598 56.347288 
L 151.012598 55.298792 
L 152.272646 55.298792 
L 152.272646 54.774545 
L 152.488698 54.774545 
L 152.513938 53.726049 
L 152.888161 53.726049 
L 152.888161 52.153306 
L 153.230235 52.153306 
L 153.326732 50.580563 
L 153.76612 50.580563 
L 153.76612 37.47437 
L 154.331245 37.47437 
L 154.331245 35.377379 
L 154.478109 35.377379 
L 154.579054 33.804636 
L 155.31246 33.804636 
L 155.31246 32.756141 
L 155.578296 32.756141 
L 155.578296 30.65915 
L 155.829688 30.65915 
L 155.829688 29.610654 
L 156.097943 29.610654 
L 156.097943 29.086407 
L 158.749045 29.086407 
L 158.749045 28.562159 
L 161.34973 28.562159 
L 161.34973 27.513663 
L 333.168 27.513663 
L 333.168 27.513663 
" style="fill:none;stroke:#ff00ff;stroke-linecap:square;stroke-width:1.5;"/>
   </g>
   <g id="line2d_44">
    <defs>
     <path d="M -0 8.485281 
L 5.091169 0 
L 0 -8.485281 
L -5.091169 -0 
z
" id="md59cd982c0" style="stroke:#ff00ff;stroke-linejoin:miter;stroke-width:1.5;"/>
    </defs>
    <g>
     <use style="fill-opacity:0;stroke:#ff00ff;stroke-linejoin:miter;stroke-width:1.5;" x="142.450997" xlink:href="#md59cd982c0" y="204.185145"/>
     <use style="fill-opacity:0;stroke:#ff00ff;stroke-linejoin:miter;stroke-width:1.5;" x="152.488698" xlink:href="#md59cd982c0" y="54.250297"/>
     <use style="fill-opacity:0;stroke:#ff00ff;stroke-linejoin:miter;stroke-width:1.5;" x="161.34973" xlink:href="#md59cd982c0" y="28.562159"/>
     <use style="fill-opacity:0;stroke:#ff00ff;stroke-linejoin:miter;stroke-width:1.5;" x="161.34973" xlink:href="#md59cd982c0" y="27.513663"/>
     <use style="fill-opacity:0;stroke:#ff00ff;stroke-linejoin:miter;stroke-width:1.5;" x="161.34973" xlink:href="#md59cd982c0" y="27.513663"/>
     <use style="fill-opacity:0;stroke:#ff00ff;stroke-linejoin:miter;stroke-width:1.5;" x="333.168" xlink:href="#md59cd982c0" y="27.513663"/>
    </g>
   </g>
   <g id="line2d_45">
    <path style="fill:none;stroke:#ff00ff;stroke-linecap:square;stroke-width:1.5;"/>
    <g/>
   </g>
   <g id="line2d_46">
    <defs>
     <path d="M 0 1.5 
C 0.397805 1.5 0.77937 1.341951 1.06066 1.06066 
C 1.341951 0.77937 1.5 0.397805 1.5 0 
C 1.5 -0.397805 1.341951 -0.77937 1.06066 -1.06066 
C 0.77937 -1.341951 0.397805 -1.5 0 -1.5 
C -0.397805 -1.5 -0.77937 -1.341951 -1.06066 -1.06066 
C -1.341951 -0.77937 -1.5 -0.397805 -1.5 0 
C -1.5 0.397805 -1.341951 0.77937 -1.06066 1.06066 
C -0.77937 1.341951 -0.397805 1.5 0 1.5 
z
" id="m20312a1563" style="stroke:#ffa500;"/>
    </defs>
    <g>
     <use style="fill:#ffa500;stroke:#ffa500;" x="277.456109" xlink:href="#m20312a1563" y="37.998618"/>
     <use style="fill:#ffa500;stroke:#ffa500;" x="277.456109" xlink:href="#m20312a1563" y="37.998618"/>
    </g>
   </g>
   <g id="line2d_47">
    <path d="M 28.455965 294.88 
L 28.455965 294.355752 
L 40.370217 294.355752 
L 40.370217 293.831505 
L 47.339607 293.831505 
L 47.339607 289.637523 
L 59.253858 289.637523 
L 59.253858 287.540532 
L 64.198719 287.540532 
L 64.198719 286.492036 
L 72.543934 286.492036 
L 72.543934 284.919293 
L 73.817748 284.919293 
L 73.817748 284.395046 
L 76.11297 284.395046 
L 76.11297 282.822302 
L 77.155024 282.822302 
L 77.155024 280.201064 
L 84.458185 280.201064 
L 84.458185 278.104073 
L 85.106889 278.104073 
L 85.106889 277.055578 
L 85.732 277.055578 
L 85.732 275.482834 
L 89.567532 275.482834 
L 89.567532 274.434339 
L 90.522701 274.434339 
L 90.522701 273.385844 
L 96.372436 273.385844 
L 96.372436 271.288853 
L 99.67078 271.288853 
L 99.67078 269.716109 
L 102.436953 269.716109 
L 102.436953 269.191862 
L 103.990531 269.191862 
L 103.990531 268.143366 
L 109.560502 268.143366 
L 109.560502 267.619119 
L 110.014853 267.619119 
L 110.014853 267.094871 
L 116.220179 267.094871 
L 116.220179 266.046375 
L 124.036471 266.046375 
L 124.036471 265.522128 
L 124.493121 265.522128 
L 124.493121 264.473632 
L 126.090357 264.473632 
L 126.090357 263.425137 
L 126.948537 263.425137 
L 126.948537 261.852394 
L 130.14738 261.852394 
L 130.14738 260.279651 
L 137.255203 260.279651 
L 137.255203 259.755403 
L 137.975251 259.755403 
L 137.975251 259.231155 
L 144.214377 259.231155 
L 144.214377 258.706907 
L 146.381382 258.706907 
L 146.381382 257.658412 
L 148.719342 257.658412 
L 148.719342 257.134164 
L 149.948166 257.134164 
L 149.948166 255.561421 
L 150.353304 255.561421 
L 150.353304 255.037173 
L 151.012598 255.037173 
L 151.012598 254.512926 
L 151.674041 254.512926 
L 151.674041 253.988678 
L 152.336473 253.988678 
L 152.336473 253.46443 
L 156.552562 253.46443 
L 156.552562 252.940182 
L 158.845291 252.940182 
L 158.845291 251.891687 
L 159.386372 251.891687 
L 159.386372 250.318944 
L 162.677333 250.318944 
L 162.677333 249.270448 
L 162.988667 249.270448 
L 162.988667 245.076467 
L 163.766141 245.076467 
L 163.766141 243.503724 
L 171.431176 243.503724 
L 171.431176 241.93098 
L 173.226229 241.93098 
L 173.226229 240.882485 
L 174.782513 240.882485 
L 174.782513 240.358237 
L 177.509407 240.358237 
L 177.509407 223.58231 
L 179.116834 223.58231 
L 179.116834 210.476117 
L 182.599469 210.476117 
L 182.599469 208.903374 
L 185.322809 208.903374 
L 185.322809 208.379126 
L 185.970475 208.379126 
L 185.970475 206.806383 
L 186.871932 206.806383 
L 186.871932 206.282136 
L 190.72659 206.282136 
L 190.72659 205.23364 
L 197.611575 205.23364 
L 197.611575 196.321429 
L 200.509654 196.321429 
L 200.509654 194.224438 
L 201.282587 194.224438 
L 201.393054 190.030456 
L 202.445857 190.030456 
L 202.445857 181.642493 
L 209.43227 181.642493 
L 209.43227 171.681786 
L 211.896177 171.681786 
L 211.896177 169.584795 
L 212.800734 169.584795 
L 212.800734 168.012052 
L 213.306571 168.012052 
L 213.306571 164.866566 
L 215.274071 164.866566 
L 215.312002 162.769575 
L 215.786846 162.769575 
L 215.786846 162.245327 
L 216.330388 162.245327 
L 216.330388 153.857364 
L 216.505581 153.857364 
L 216.505581 143.896657 
L 216.93858 143.896657 
L 216.93858 143.372409 
L 218.293134 143.372409 
L 218.293134 142.323914 
L 219.917174 142.323914 
L 219.917174 132.363207 
L 221.035387 132.363207 
L 221.035387 131.314712 
L 221.378223 131.314712 
L 221.378223 123.975244 
L 224.02819 123.975244 
L 224.02819 120.30551 
L 225.125675 120.30551 
L 225.125675 119.781262 
L 225.550561 119.781262 
L 225.550561 119.257014 
L 225.793336 119.257014 
L 225.793336 117.684271 
L 226.773 117.684271 
L 226.773 117.160023 
L 227.32218 117.160023 
L 227.414828 103.529583 
L 229.307198 103.529583 
L 229.307198 100.384096 
L 230.168344 100.384096 
L 230.168344 97.762858 
L 231.80592 97.762858 
L 231.80592 91.996133 
L 232.512028 91.996133 
L 232.512028 91.471885 
L 233.972745 91.471885 
L 234.035721 84.132417 
L 234.377271 84.132417 
L 234.377271 83.608169 
L 235.345489 83.608169 
L 235.345489 83.083922 
L 235.956009 83.083922 
L 235.956009 80.462683 
L 237.141129 80.462683 
L 237.141129 78.365692 
L 237.661638 78.365692 
L 237.661638 76.792949 
L 238.755947 76.792949 
L 238.803647 74.17171 
L 239.805177 74.17171 
L 239.805177 70.501976 
L 240.278075 70.501976 
L 240.278075 68.404985 
L 241.206684 68.404985 
L 241.206684 66.832242 
L 241.618859 66.832242 
L 241.618859 65.783747 
L 242.49375 65.783747 
L 242.532138 60.017022 
L 243.728802 60.017022 
L 243.728802 58.444279 
L 244.492198 58.444279 
L 244.492198 57.920031 
L 244.833367 57.920031 
L 244.833367 57.395783 
L 245.562145 57.395783 
L 245.594262 52.677554 
L 247.24935 52.677554 
L 247.24935 51.629058 
L 248.164871 51.629058 
L 248.164871 50.056315 
L 249.061708 50.056315 
L 249.061708 49.532068 
L 249.624767 49.532068 
L 249.624767 49.00782 
L 250.449034 49.00782 
L 250.449034 47.959324 
L 251.711413 47.959324 
L 251.711413 47.435077 
L 252.421872 47.435077 
L 252.421872 46.910829 
L 253.125931 46.910829 
L 253.125931 46.386581 
L 253.571948 46.386581 
L 253.571948 45.862334 
L 254.210858 45.862334 
L 254.210858 45.338086 
L 254.645569 45.338086 
L 254.645569 44.28959 
L 254.846594 44.28959 
L 254.846594 43.765343 
L 255.848755 43.765343 
L 255.848755 43.241095 
L 256.779838 43.241095 
L 256.779838 42.716847 
L 257.311638 42.716847 
L 257.327859 41.144104 
L 258.689709 41.144104 
L 258.689709 40.619856 
L 265.14927 40.619856 
L 265.14927 40.095609 
L 266.025684 40.095609 
L 266.025684 39.571361 
L 271.780668 39.571361 
L 271.780668 39.047113 
L 276.382204 39.047113 
L 276.382204 38.522865 
L 277.456109 38.522865 
L 277.456109 37.998618 
L 333.168 37.998618 
L 333.168 37.998618 
" style="fill:none;stroke:#ffa500;stroke-linecap:square;stroke-width:1.5;"/>
   </g>
   <g id="line2d_48">
    <defs>
     <path d="M 0 -6 
L -1.347084 -1.854102 
L -5.706339 -1.854102 
L -2.179628 0.708204 
L -3.526712 4.854102 
L -0 2.291796 
L 3.526712 4.854102 
L 2.179628 0.708204 
L 5.706339 -1.854102 
L 1.347084 -1.854102 
z
" id="m0dbb3fd727" style="stroke:#ffa500;stroke-linejoin:bevel;stroke-width:1.5;"/>
    </defs>
    <g>
     <use style="fill-opacity:0;stroke:#ffa500;stroke-linejoin:bevel;stroke-width:1.5;" x="102.436953" xlink:href="#m0dbb3fd727" y="269.191862"/>
     <use style="fill-opacity:0;stroke:#ffa500;stroke-linejoin:bevel;stroke-width:1.5;" x="171.431176" xlink:href="#m0dbb3fd727" y="243.503724"/>
     <use style="fill-opacity:0;stroke:#ffa500;stroke-linejoin:bevel;stroke-width:1.5;" x="219.917174" xlink:href="#m0dbb3fd727" y="142.323914"/>
     <use style="fill-opacity:0;stroke:#ffa500;stroke-linejoin:bevel;stroke-width:1.5;" x="277.456109" xlink:href="#m0dbb3fd727" y="38.522865"/>
     <use style="fill-opacity:0;stroke:#ffa500;stroke-linejoin:bevel;stroke-width:1.5;" x="277.456109" xlink:href="#m0dbb3fd727" y="37.998618"/>
     <use style="fill-opacity:0;stroke:#ffa500;stroke-linejoin:bevel;stroke-width:1.5;" x="333.168" xlink:href="#m0dbb3fd727" y="37.998618"/>
    </g>
   </g>
   <g id="line2d_49">
    <path style="fill:none;stroke:#ffa500;stroke-linecap:square;stroke-width:1.5;"/>
    <g/>
   </g>
   <g id="line2d_50">
    <path clip-path="url(#p31a7a937dd)" d="M 214.433143 164.866566 
" style="fill:none;stroke:#ffa500;stroke-linecap:square;stroke-width:1.5;"/>
    <defs>
     <path d="M -12 12 
L 12 -12 
M -12 -12 
L 12 12 
" id="mc0f7e3a742" style="stroke:#ffa500;"/>
    </defs>
    <g clip-path="url(#p31a7a937dd)">
     <use style="fill:#ffa500;stroke:#ffa500;" x="214.433143" xlink:href="#mc0f7e3a742" y="164.866566"/>
    </g>
   </g>
   <g id="line2d_51">
    <defs>
     <path d="M 0 1.5 
C 0.397805 1.5 0.77937 1.341951 1.06066 1.06066 
C 1.341951 0.77937 1.5 0.397805 1.5 0 
C 1.5 -0.397805 1.341951 -0.77937 1.06066 -1.06066 
C 0.77937 -1.341951 0.397805 -1.5 0 -1.5 
C -0.397805 -1.5 -0.77937 -1.341951 -1.06066 -1.06066 
C -1.341951 -0.77937 -1.5 -0.397805 -1.5 0 
C -1.5 0.397805 -1.341951 0.77937 -1.06066 1.06066 
C -0.77937 1.341951 -0.397805 1.5 0 1.5 
z
" id="mff0fc8514e" style="stroke:#6495ed;"/>
    </defs>
    <g>
     <use style="fill:#6495ed;stroke:#6495ed;" x="188.259844" xlink:href="#mff0fc8514e" y="37.998618"/>
     <use style="fill:#6495ed;stroke:#6495ed;" x="188.259844" xlink:href="#mff0fc8514e" y="37.998618"/>
    </g>
   </g>
   <g id="line2d_52">
    <path d="M 28.455965 294.88 
L 28.455965 292.783009 
L 40.370217 292.783009 
L 40.370217 291.734514 
L 47.339607 291.734514 
L 47.339607 290.686018 
L 56.12 290.686018 
L 56.12 290.161771 
L 59.253858 290.161771 
L 59.253858 287.540532 
L 66.223248 287.540532 
L 66.223248 285.443541 
L 68.034251 285.443541 
L 68.034251 284.395046 
L 69.672503 284.395046 
L 69.672503 282.298055 
L 76.11297 282.298055 
L 76.11297 281.773807 
L 80.787138 281.773807 
L 80.787138 279.152568 
L 81.586754 279.152568 
L 81.586754 278.104073 
L 83.784035 278.104073 
L 83.784035 277.055578 
L 84.458185 277.055578 
L 84.458185 276.53133 
L 85.106889 276.53133 
L 85.106889 276.007082 
L 88.027221 276.007082 
L 88.027221 275.482834 
L 89.567532 275.482834 
L 89.567532 274.958587 
L 90.522701 274.958587 
L 90.522701 274.434339 
L 91.862754 274.434339 
L 91.862754 272.861596 
L 92.70139 272.861596 
L 92.70139 272.337348 
L 93.105847 272.337348 
L 93.105847 271.8131 
L 94.26507 271.8131 
L 94.26507 269.191862 
L 97.646251 269.191862 
L 97.646251 268.667614 
L 98.543252 268.667614 
L 98.543252 267.094871 
L 101.481783 267.094871 
L 101.481783 264.99788 
L 102.436953 264.99788 
L 102.436953 262.900889 
L 103.777005 262.900889 
L 103.777005 262.376641 
L 104.615641 262.376641 
L 104.615641 259.755403 
L 109.560502 259.755403 
L 109.560502 259.231155 
L 109.864733 259.231155 
L 109.864733 258.706907 
L 111.989488 258.706907 
L 111.989488 258.18266 
L 112.643127 258.18266 
L 112.643127 257.658412 
L 113.880253 257.658412 
L 113.880253 256.609917 
L 114.466953 256.609917 
L 114.466953 242.455228 
L 114.581927 242.455228 
L 114.581927 241.93098 
L 118.645127 241.93098 
L 118.645127 239.83399 
L 122.944762 239.83399 
L 122.944762 238.785494 
L 124.748719 238.785494 
L 124.748719 230.921778 
L 126.381204 230.921778 
L 126.381204 229.873283 
L 126.610389 229.873283 
L 126.610389 227.776292 
L 127.659138 227.776292 
L 127.659138 224.630806 
L 130.377486 224.630806 
L 130.377486 217.291338 
L 131.696954 217.291338 
L 131.696954 209.95187 
L 133.196088 209.95187 
L 133.196088 209.427622 
L 134.39491 209.427622 
L 134.39491 198.41842 
L 136.789358 198.41842 
L 136.789358 197.369924 
L 137.528768 197.369924 
L 137.528768 195.797181 
L 139.75979 195.797181 
L 139.75979 187.933465 
L 140.383954 187.933465 
L 140.383954 187.409218 
L 140.587071 187.409218 
L 140.662626 185.836474 
L 141.851869 185.836474 
L 141.851869 185.312227 
L 142.1079 185.312227 
L 142.1079 183.215236 
L 142.720629 183.215236 
L 142.720629 179.545502 
L 143.312265 179.545502 
L 143.398208 178.497006 
L 143.800672 178.497006 
L 143.800672 176.400016 
L 144.457904 176.400016 
L 144.457904 175.875768 
L 144.915234 175.875768 
L 144.915234 172.206034 
L 145.49403 172.206034 
L 145.49403 162.769575 
L 145.832178 162.769575 
L 145.887895 161.721079 
L 145.99879 161.721079 
L 145.99879 161.196832 
L 146.417379 161.196832 
L 146.417379 160.672584 
L 146.755644 160.672584 
L 146.755644 154.381611 
L 147.190823 154.381611 
L 147.190823 153.857364 
L 148.353782 153.857364 
L 148.353782 153.333116 
L 149.015571 153.333116 
L 149.015571 152.808868 
L 149.578186 152.808868 
L 149.578186 143.896657 
L 149.933519 143.896657 
L 149.933519 143.372409 
L 150.093957 143.372409 
L 150.180842 142.323914 
L 150.943651 142.323914 
L 150.943651 141.275418 
L 151.312725 141.275418 
L 151.312725 133.93595 
L 151.674041 133.93595 
L 151.674041 132.887455 
L 151.975949 132.887455 
L 151.975949 131.838959 
L 152.677103 131.838959 
L 152.677103 129.217721 
L 153.047828 129.217721 
L 153.047828 126.072235 
L 153.707396 126.072235 
L 153.707396 125.547987 
L 153.871321 125.547987 
L 153.871321 123.975244 
L 155.788044 123.975244 
L 155.788044 121.354005 
L 156.750818 121.354005 
L 156.750818 120.829757 
L 157.014888 120.829757 
L 157.014888 117.684271 
L 157.493444 117.684271 
L 157.493444 116.111528 
L 158.277607 116.111528 
L 158.30464 107.199317 
L 158.766584 107.199317 
L 158.766584 106.675069 
L 158.888862 106.675069 
L 158.888862 104.05383 
L 160.34017 104.05383 
L 160.34017 100.384096 
L 160.594233 100.384096 
L 160.594233 99.859849 
L 161.289286 99.859849 
L 161.289286 97.23861 
L 161.52233 97.23861 
L 161.52233 96.714362 
L 161.663618 96.714362 
L 161.663618 96.190115 
L 162.06618 96.190115 
L 162.06618 95.665867 
L 162.28185 95.665867 
L 162.303269 93.568876 
L 162.635392 93.568876 
L 162.635392 93.044628 
L 162.767854 93.044628 
L 162.767854 89.899142 
L 162.940606 89.899142 
L 162.940606 89.374894 
L 163.935681 89.374894 
L 163.935681 86.229408 
L 164.541314 86.229408 
L 164.541314 85.70516 
L 164.709617 85.70516 
L 164.709617 83.608169 
L 165.3489 83.608169 
L 165.3489 83.083922 
L 165.527269 83.083922 
L 165.527269 78.365692 
L 165.849547 78.365692 
L 165.930625 76.792949 
L 166.074464 76.792949 
L 166.074464 76.268701 
L 166.907643 76.268701 
L 166.907643 74.695958 
L 167.418526 74.695958 
L 167.418526 74.17171 
L 167.560996 74.17171 
L 167.560996 73.123215 
L 168.104085 73.123215 
L 168.104085 72.598967 
L 168.256153 72.598967 
L 168.256153 71.550472 
L 168.391873 71.550472 
L 168.391873 71.026224 
L 168.531498 71.026224 
L 168.600887 69.453481 
L 169.4407 69.453481 
L 169.4407 68.929233 
L 170.005984 68.929233 
L 170.005984 67.35649 
L 170.128614 67.35649 
L 170.128614 66.832242 
L 170.478044 66.832242 
L 170.478044 66.307995 
L 170.61057 66.307995 
L 170.61057 64.211004 
L 170.850913 64.211004 
L 170.911559 62.638261 
L 171.647964 62.638261 
L 171.647964 61.589765 
L 172.037096 61.589765 
L 172.146102 59.492774 
L 172.681 59.492774 
L 172.681 57.395783 
L 172.894237 57.395783 
L 172.948095 55.82304 
L 173.603769 55.82304 
L 173.603769 55.298792 
L 174.04902 55.298792 
L 174.04902 53.726049 
L 174.528635 53.726049 
L 174.528635 53.201802 
L 174.72026 53.201802 
L 174.72026 52.677554 
L 176.1968 52.677554 
L 176.1968 51.104811 
L 176.952568 51.104811 
L 176.952568 50.580563 
L 177.319835 50.580563 
L 177.319835 49.00782 
L 177.629761 49.00782 
L 177.717295 47.435077 
L 177.862201 47.435077 
L 177.862201 46.910829 
L 179.114151 46.910829 
L 179.114151 46.386581 
L 179.24779 46.386581 
L 179.261097 45.338086 
L 179.754108 45.338086 
L 179.754108 44.813838 
L 180.066637 44.813838 
L 180.066637 44.28959 
L 180.576856 44.28959 
L 180.576856 43.241095 
L 181.291242 43.241095 
L 181.291242 42.716847 
L 182.730414 42.716847 
L 182.730414 42.192599 
L 182.849577 42.192599 
L 182.849577 41.668352 
L 183.784485 41.668352 
L 183.784485 41.144104 
L 184.51509 41.144104 
L 184.51509 40.619856 
L 184.777635 40.619856 
L 184.777635 40.095609 
L 185.240343 40.095609 
L 185.240343 39.571361 
L 185.716523 39.571361 
L 185.716523 39.047113 
L 186.606771 39.047113 
L 186.606771 38.522865 
L 188.259844 38.522865 
L 188.259844 37.998618 
L 333.168 37.998618 
L 333.168 37.998618 
" style="fill:none;stroke:#6495ed;stroke-linecap:square;stroke-width:1.5;"/>
   </g>
   <g id="line2d_53">
    <defs>
     <path d="M -0 6 
L 6 -6 
L -6 -6 
z
" id="mfe22758382" style="stroke:#6495ed;stroke-linejoin:miter;stroke-width:1.5;"/>
    </defs>
    <g>
     <use style="fill-opacity:0;stroke:#6495ed;stroke-linejoin:miter;stroke-width:1.5;" x="126.381204" xlink:href="#mfe22758382" y="230.921778"/>
     <use style="fill-opacity:0;stroke:#6495ed;stroke-linejoin:miter;stroke-width:1.5;" x="168.600887" xlink:href="#mfe22758382" y="70.501976"/>
     <use style="fill-opacity:0;stroke:#6495ed;stroke-linejoin:miter;stroke-width:1.5;" x="188.259844" xlink:href="#mfe22758382" y="38.522865"/>
     <use style="fill-opacity:0;stroke:#6495ed;stroke-linejoin:miter;stroke-width:1.5;" x="188.259844" xlink:href="#mfe22758382" y="37.998618"/>
     <use style="fill-opacity:0;stroke:#6495ed;stroke-linejoin:miter;stroke-width:1.5;" x="188.259844" xlink:href="#mfe22758382" y="37.998618"/>
     <use style="fill-opacity:0;stroke:#6495ed;stroke-linejoin:miter;stroke-width:1.5;" x="333.168" xlink:href="#mfe22758382" y="37.998618"/>
    </g>
   </g>
   <g id="line2d_54">
    <path style="fill:none;stroke:#6495ed;stroke-linecap:square;stroke-width:1.5;"/>
    <g/>
   </g>
   <g id="line2d_55">
    <path clip-path="url(#p31a7a937dd)" d="M 135.276571 198.41842 
" style="fill:none;stroke:#6495ed;stroke-linecap:square;stroke-width:1.5;"/>
    <defs>
     <path d="M -12 12 
L 12 -12 
M -12 -12 
L 12 12 
" id="m0bd3bce2f2" style="stroke:#6495ed;"/>
    </defs>
    <g clip-path="url(#p31a7a937dd)">
     <use style="fill:#6495ed;stroke:#6495ed;" x="135.276571" xlink:href="#m0bd3bce2f2" y="198.41842"/>
    </g>
   </g>
   <g id="line2d_56">
    <path d="M 333.168 37.998618 
L 363.64328 289.532673 
" style="fill:none;stroke:#ffa500;stroke-linecap:square;stroke-width:1.5;"/>
    <g>
     <use style="fill-opacity:0;stroke:#ffa500;stroke-linejoin:bevel;stroke-width:1.5;" x="333.168" xlink:href="#m0dbb3fd727" y="37.998618"/>
     <use style="fill-opacity:0;stroke:#ffa500;stroke-linejoin:bevel;stroke-width:1.5;" x="363.64328" xlink:href="#m0dbb3fd727" y="289.532673"/>
    </g>
   </g>
   <g id="line2d_57">
    <path d="M 333.168 37.998618 
L 363.64328 203.975446 
" style="fill:none;stroke:#6495ed;stroke-linecap:square;stroke-width:1.5;"/>
    <g>
     <use style="fill-opacity:0;stroke:#6495ed;stroke-linejoin:miter;stroke-width:1.5;" x="333.168" xlink:href="#mfe22758382" y="37.998618"/>
     <use style="fill-opacity:0;stroke:#6495ed;stroke-linejoin:miter;stroke-width:1.5;" x="363.64328" xlink:href="#mfe22758382" y="203.975446"/>
    </g>
   </g>
   <g id="line2d_58">
    <path d="M 333.168 27.513663 
L 363.64328 118.418218 
" style="fill:none;stroke:#000080;stroke-linecap:square;stroke-width:1.5;"/>
    <g>
     <use style="fill-opacity:0;stroke:#000080;stroke-width:1.5;" x="333.168" xlink:href="#mdb2483bc67" y="27.513663"/>
     <use style="fill-opacity:0;stroke:#000080;stroke-width:1.5;" x="363.64328" xlink:href="#mdb2483bc67" y="118.418218"/>
    </g>
   </g>
   <g id="line2d_59">
    <path d="M 333.168 27.513663 
L 363.64328 32.86099 
" style="fill:none;stroke:#ff00ff;stroke-linecap:square;stroke-width:1.5;"/>
    <g>
     <use style="fill-opacity:0;stroke:#ff00ff;stroke-linejoin:miter;stroke-width:1.5;" x="333.168" xlink:href="#md59cd982c0" y="27.513663"/>
     <use style="fill-opacity:0;stroke:#ff00ff;stroke-linejoin:miter;stroke-width:1.5;" x="363.64328" xlink:href="#md59cd982c0" y="32.86099"/>
    </g>
   </g>
   <g id="line2d_60">
    <path d="M 333.168 294.88 
L 333.168 27.513663 
" style="fill:none;stroke:#000000;stroke-linecap:square;stroke-width:1.5;"/>
   </g>
   <g id="patch_3">
    <path d="M 56.12 294.88 
L 56.12 24.84 
" style="fill:none;stroke:#000000;stroke-linecap:square;stroke-linejoin:miter;stroke-width:0.8;"/>
   </g>
   <g id="patch_4">
    <path d="M 333.168 294.88 
L 333.168 24.84 
" style="fill:none;stroke:#000000;stroke-linecap:square;stroke-linejoin:miter;stroke-width:0.8;"/>
   </g>
   <g id="patch_5">
    <path d="M 56.12 294.88 
L 333.168 294.88 
" style="fill:none;stroke:#000000;stroke-linecap:square;stroke-linejoin:miter;stroke-width:0.8;"/>
   </g>
   <g id="patch_6">
    <path d="M 56.12 24.84 
L 333.168 24.84 
" style="fill:none;stroke:#000000;stroke-linecap:square;stroke-linejoin:miter;stroke-width:0.8;"/>
   </g>
   <g id="text_13">
    <!-- RS -->
    <defs>
     <path d="M 44.390625 34.1875 
Q 47.5625 33.109375 50.5625 29.59375 
Q 53.5625 26.078125 56.59375 19.921875 
L 66.609375 0 
L 56 0 
L 46.6875 18.703125 
Q 43.0625 26.03125 39.671875 28.421875 
Q 36.28125 30.8125 30.421875 30.8125 
L 19.671875 30.8125 
L 19.671875 0 
L 9.8125 0 
L 9.8125 72.90625 
L 32.078125 72.90625 
Q 44.578125 72.90625 50.734375 67.671875 
Q 56.890625 62.453125 56.890625 51.90625 
Q 56.890625 45.015625 53.6875 40.46875 
Q 50.484375 35.9375 44.390625 34.1875 
z
M 19.671875 64.796875 
L 19.671875 38.921875 
L 32.078125 38.921875 
Q 39.203125 38.921875 42.84375 42.21875 
Q 46.484375 45.515625 46.484375 51.90625 
Q 46.484375 58.296875 42.84375 61.546875 
Q 39.203125 64.796875 32.078125 64.796875 
z
" id="DejaVuSans-52"/>
     <path d="M 53.515625 70.515625 
L 53.515625 60.890625 
Q 47.90625 63.578125 42.921875 64.890625 
Q 37.9375 66.21875 33.296875 66.21875 
Q 25.25 66.21875 20.875 63.09375 
Q 16.5 59.96875 16.5 54.203125 
Q 16.5 49.359375 19.40625 46.890625 
Q 22.3125 44.4375 30.421875 42.921875 
L 36.375 41.703125 
Q 47.40625 39.59375 52.65625 34.296875 
Q 57.90625 29 57.90625 20.125 
Q 57.90625 9.515625 50.796875 4.046875 
Q 43.703125 -1.421875 29.984375 -1.421875 
Q 24.8125 -1.421875 18.96875 -0.25 
Q 13.140625 0.921875 6.890625 3.21875 
L 6.890625 13.375 
Q 12.890625 10.015625 18.65625 8.296875 
Q 24.421875 6.59375 29.984375 6.59375 
Q 38.421875 6.59375 43.015625 9.90625 
Q 47.609375 13.234375 47.609375 19.390625 
Q 47.609375 24.75 44.3125 27.78125 
Q 41.015625 30.8125 33.5 32.328125 
L 27.484375 33.5 
Q 16.453125 35.6875 11.515625 40.375 
Q 6.59375 45.0625 6.59375 53.421875 
Q 6.59375 63.09375 13.40625 68.65625 
Q 20.21875 74.21875 32.171875 74.21875 
Q 37.3125 74.21875 42.625 73.28125 
Q 47.953125 72.359375 53.515625 70.515625 
z
" id="DejaVuSans-53"/>
    </defs>
    <g transform="translate(369.18424 294.223611)scale(0.17 -0.17)">
     <use xlink:href="#DejaVuSans-52"/>
     <use x="69.482422" xlink:href="#DejaVuSans-53"/>
    </g>
   </g>
   <g id="text_14">
    <!-- TPE -->
    <defs>
     <path d="M -0.296875 72.90625 
L 61.375 72.90625 
L 61.375 64.59375 
L 35.5 64.59375 
L 35.5 0 
L 25.59375 0 
L 25.59375 64.59375 
L -0.296875 64.59375 
z
" id="DejaVuSans-54"/>
     <path d="M 19.671875 64.796875 
L 19.671875 37.40625 
L 32.078125 37.40625 
Q 38.96875 37.40625 42.71875 40.96875 
Q 46.484375 44.53125 46.484375 51.125 
Q 46.484375 57.671875 42.71875 61.234375 
Q 38.96875 64.796875 32.078125 64.796875 
z
M 9.8125 72.90625 
L 32.078125 72.90625 
Q 44.34375 72.90625 50.609375 67.359375 
Q 56.890625 61.8125 56.890625 51.125 
Q 56.890625 40.328125 50.609375 34.8125 
Q 44.34375 29.296875 32.078125 29.296875 
L 19.671875 29.296875 
L 19.671875 0 
L 9.8125 0 
z
" id="DejaVuSans-50"/>
     <path d="M 9.8125 72.90625 
L 55.90625 72.90625 
L 55.90625 64.59375 
L 19.671875 64.59375 
L 19.671875 43.015625 
L 54.390625 43.015625 
L 54.390625 34.71875 
L 19.671875 34.71875 
L 19.671875 8.296875 
L 56.78125 8.296875 
L 56.78125 0 
L 9.8125 0 
z
" id="DejaVuSans-45"/>
    </defs>
    <g transform="translate(369.18424 208.666383)scale(0.17 -0.17)">
     <use xlink:href="#DejaVuSans-54"/>
     <use x="61.083984" xlink:href="#DejaVuSans-50"/>
     <use x="121.386719" xlink:href="#DejaVuSans-45"/>
    </g>
   </g>
   <g id="text_15">
    <!-- CMA-ES -->
    <defs>
     <path d="M 64.40625 67.28125 
L 64.40625 56.890625 
Q 59.421875 61.53125 53.78125 63.8125 
Q 48.140625 66.109375 41.796875 66.109375 
Q 29.296875 66.109375 22.65625 58.46875 
Q 16.015625 50.828125 16.015625 36.375 
Q 16.015625 21.96875 22.65625 14.328125 
Q 29.296875 6.6875 41.796875 6.6875 
Q 48.140625 6.6875 53.78125 8.984375 
Q 59.421875 11.28125 64.40625 15.921875 
L 64.40625 5.609375 
Q 59.234375 2.09375 53.4375 0.328125 
Q 47.65625 -1.421875 41.21875 -1.421875 
Q 24.65625 -1.421875 15.125 8.703125 
Q 5.609375 18.84375 5.609375 36.375 
Q 5.609375 53.953125 15.125 64.078125 
Q 24.65625 74.21875 41.21875 74.21875 
Q 47.75 74.21875 53.53125 72.484375 
Q 59.328125 70.75 64.40625 67.28125 
z
" id="DejaVuSans-43"/>
     <path d="M 9.8125 72.90625 
L 24.515625 72.90625 
L 43.109375 23.296875 
L 61.8125 72.90625 
L 76.515625 72.90625 
L 76.515625 0 
L 66.890625 0 
L 66.890625 64.015625 
L 48.09375 14.015625 
L 38.1875 14.015625 
L 19.390625 64.015625 
L 19.390625 0 
L 9.8125 0 
z
" id="DejaVuSans-4d"/>
     <path d="M 34.1875 63.1875 
L 20.796875 26.90625 
L 47.609375 26.90625 
z
M 28.609375 72.90625 
L 39.796875 72.90625 
L 67.578125 0 
L 57.328125 0 
L 50.6875 18.703125 
L 17.828125 18.703125 
L 11.1875 0 
L 0.78125 0 
z
" id="DejaVuSans-41"/>
    </defs>
    <g transform="translate(369.18424 123.109155)scale(0.17 -0.17)">
     <use xlink:href="#DejaVuSans-43"/>
     <use x="69.824219" xlink:href="#DejaVuSans-4d"/>
     <use x="156.103516" xlink:href="#DejaVuSans-41"/>
     <use x="224.480469" xlink:href="#DejaVuSans-2d"/>
     <use x="260.564453" xlink:href="#DejaVuSans-45"/>
     <use x="323.748047" xlink:href="#DejaVuSans-53"/>
    </g>
   </g>
   <g id="text_16">
    <!-- DE -->
    <defs>
     <path d="M 19.671875 64.796875 
L 19.671875 8.109375 
L 31.59375 8.109375 
Q 46.6875 8.109375 53.6875 14.9375 
Q 60.6875 21.78125 60.6875 36.53125 
Q 60.6875 51.171875 53.6875 57.984375 
Q 46.6875 64.796875 31.59375 64.796875 
z
M 9.8125 72.90625 
L 30.078125 72.90625 
Q 51.265625 72.90625 61.171875 64.09375 
Q 71.09375 55.28125 71.09375 36.53125 
Q 71.09375 17.671875 61.125 8.828125 
Q 51.171875 0 30.078125 0 
L 9.8125 0 
z
" id="DejaVuSans-44"/>
    </defs>
    <g transform="translate(369.18424 37.551928)scale(0.17 -0.17)">
     <use xlink:href="#DejaVuSans-44"/>
     <use x="77.001953" xlink:href="#DejaVuSans-45"/>
    </g>
   </g>
   <g id="text_17">
    <!-- bbob-mixint f7, 5-D -->
    <defs>
     <path d="M 48.6875 27.296875 
Q 48.6875 37.203125 44.609375 42.84375 
Q 40.53125 48.484375 33.40625 48.484375 
Q 26.265625 48.484375 22.1875 42.84375 
Q 18.109375 37.203125 18.109375 27.296875 
Q 18.109375 17.390625 22.1875 11.75 
Q 26.265625 6.109375 33.40625 6.109375 
Q 40.53125 6.109375 44.609375 11.75 
Q 48.6875 17.390625 48.6875 27.296875 
z
M 18.109375 46.390625 
Q 20.953125 51.265625 25.265625 53.625 
Q 29.59375 56 35.59375 56 
Q 45.5625 56 51.78125 48.09375 
Q 58.015625 40.1875 58.015625 27.296875 
Q 58.015625 14.40625 51.78125 6.484375 
Q 45.5625 -1.421875 35.59375 -1.421875 
Q 29.59375 -1.421875 25.265625 0.953125 
Q 20.953125 3.328125 18.109375 8.203125 
L 18.109375 0 
L 9.078125 0 
L 9.078125 75.984375 
L 18.109375 75.984375 
z
" id="DejaVuSans-62"/>
     <path d="M 54.890625 54.6875 
L 35.109375 28.078125 
L 55.90625 0 
L 45.3125 0 
L 29.390625 21.484375 
L 13.484375 0 
L 2.875 0 
L 24.125 28.609375 
L 4.6875 54.6875 
L 15.28125 54.6875 
L 29.78125 35.203125 
L 44.28125 54.6875 
z
" id="DejaVuSans-78"/>
     <path d="M 8.203125 72.90625 
L 55.078125 72.90625 
L 55.078125 68.703125 
L 28.609375 0 
L 18.3125 0 
L 43.21875 64.59375 
L 8.203125 64.59375 
z
" id="DejaVuSans-37"/>
     <path d="M 10.796875 72.90625 
L 49.515625 72.90625 
L 49.515625 64.59375 
L 19.828125 64.59375 
L 19.828125 46.734375 
Q 21.96875 47.46875 24.109375 47.828125 
Q 26.265625 48.1875 28.421875 48.1875 
Q 40.625 48.1875 47.75 41.5 
Q 54.890625 34.8125 54.890625 23.390625 
Q 54.890625 11.625 47.5625 5.09375 
Q 40.234375 -1.421875 26.90625 -1.421875 
Q 22.3125 -1.421875 17.546875 -0.640625 
Q 12.796875 0.140625 7.71875 1.703125 
L 7.71875 11.625 
Q 12.109375 9.234375 16.796875 8.0625 
Q 21.484375 6.890625 26.703125 6.890625 
Q 35.15625 6.890625 40.078125 11.328125 
Q 45.015625 15.765625 45.015625 23.390625 
Q 45.015625 31 40.078125 35.4375 
Q 35.15625 39.890625 26.703125 39.890625 
Q 22.75 39.890625 18.8125 39.015625 
Q 14.890625 38.140625 10.796875 36.28125 
z
" id="DejaVuSans-35"/>
    </defs>
    <g transform="translate(58.89048 35.290806)scale(0.102 -0.102)">
     <use xlink:href="#DejaVuSans-62"/>
     <use x="63.476562" xlink:href="#DejaVuSans-62"/>
     <use x="126.953125" xlink:href="#DejaVuSans-6f"/>
     <use x="188.134766" xlink:href="#DejaVuSans-62"/>
     <use x="251.611328" xlink:href="#DejaVuSans-2d"/>
     <use x="287.695312" xlink:href="#DejaVuSans-6d"/>
     <use x="385.107422" xlink:href="#DejaVuSans-69"/>
     <use x="412.890625" xlink:href="#DejaVuSans-78"/>
     <use x="472.070312" xlink:href="#DejaVuSans-69"/>
     <use x="499.853516" xlink:href="#DejaVuSans-6e"/>
     <use x="563.232422" xlink:href="#DejaVuSans-74"/>
     <use x="602.441406" xlink:href="#DejaVuSans-20"/>
     <use x="634.228516" xlink:href="#DejaVuSans-66"/>
     <use x="669.433594" xlink:href="#DejaVuSans-37"/>
     <use x="733.056641" xlink:href="#DejaVuSans-2c"/>
     <use x="764.84375" xlink:href="#DejaVuSans-20"/>
     <use x="796.630859" xlink:href="#DejaVuSans-35"/>
     <use x="860.253906" xlink:href="#DejaVuSans-2d"/>
     <use x="896.337891" xlink:href="#DejaVuSans-44"/>
    </g>
    <!-- 51 targets: 100..1e-08 -->
    <defs>
     <path d="M 11.71875 12.40625 
L 22.015625 12.40625 
L 22.015625 0 
L 11.71875 0 
z
M 11.71875 51.703125 
L 22.015625 51.703125 
L 22.015625 39.3125 
L 11.71875 39.3125 
z
" id="DejaVuSans-3a"/>
    </defs>
    <g transform="translate(58.89048 46.712575)scale(0.102 -0.102)">
     <use xlink:href="#DejaVuSans-35"/>
     <use x="63.623047" xlink:href="#DejaVuSans-31"/>
     <use x="127.246094" xlink:href="#DejaVuSans-20"/>
     <use x="159.033203" xlink:href="#DejaVuSans-74"/>
     <use x="198.242188" xlink:href="#DejaVuSans-61"/>
     <use x="259.521484" xlink:href="#DejaVuSans-72"/>
     <use x="300.619141" xlink:href="#DejaVuSans-67"/>
     <use x="364.095703" xlink:href="#DejaVuSans-65"/>
     <use x="425.619141" xlink:href="#DejaVuSans-74"/>
     <use x="464.828125" xlink:href="#DejaVuSans-73"/>
     <use x="516.927734" xlink:href="#DejaVuSans-3a"/>
     <use x="550.619141" xlink:href="#DejaVuSans-20"/>
     <use x="582.40625" xlink:href="#DejaVuSans-31"/>
     <use x="646.029297" xlink:href="#DejaVuSans-30"/>
     <use x="709.652344" xlink:href="#DejaVuSans-30"/>
     <use x="773.275391" xlink:href="#DejaVuSans-2e"/>
     <use x="805.0625" xlink:href="#DejaVuSans-2e"/>
     <use x="836.849609" xlink:href="#DejaVuSans-31"/>
     <use x="900.472656" xlink:href="#DejaVuSans-65"/>
     <use x="961.996094" xlink:href="#DejaVuSans-2d"/>
     <use x="998.080078" xlink:href="#DejaVuSans-30"/>
     <use x="1061.703125" xlink:href="#DejaVuSans-38"/>
    </g>
    <!-- 15 instances -->
    <g transform="translate(58.89048 58.134344)scale(0.102 -0.102)">
     <use xlink:href="#DejaVuSans-31"/>
     <use x="63.623047" xlink:href="#DejaVuSans-35"/>
     <use x="127.246094" xlink:href="#DejaVuSans-20"/>
     <use x="159.033203" xlink:href="#DejaVuSans-69"/>
     <use x="186.816406" xlink:href="#DejaVuSans-6e"/>
     <use x="250.195312" xlink:href="#DejaVuSans-73"/>
     <use x="302.294922" xlink:href="#DejaVuSans-74"/>
     <use x="341.503906" xlink:href="#DejaVuSans-61"/>
     <use x="402.783203" xlink:href="#DejaVuSans-6e"/>
     <use x="466.162109" xlink:href="#DejaVuSans-63"/>
     <use x="521.142578" xlink:href="#DejaVuSans-65"/>
     <use x="582.666016" xlink:href="#DejaVuSans-73"/>
    </g>
   </g>
   <g id="text_18">
    <!-- v2.2.2.645 -->
    <g style="fill:#808080;" transform="translate(167.829937 290.099912)scale(0.1 -0.1)">
     <use xlink:href="#DejaVuSans-76"/>
     <use x="59.179688" xlink:href="#DejaVuSans-32"/>
     <use x="122.802734" xlink:href="#DejaVuSans-2e"/>
     <use x="154.589844" xlink:href="#DejaVuSans-32"/>
     <use x="218.212891" xlink:href="#DejaVuSans-2e"/>
     <use x="250" xlink:href="#DejaVuSans-32"/>
     <use x="313.623047" xlink:href="#DejaVuSans-2e"/>
     <use x="345.410156" xlink:href="#DejaVuSans-36"/>
     <use x="409.033203" xlink:href="#DejaVuSans-34"/>
     <use x="472.65625" xlink:href="#DejaVuSans-35"/>
    </g>
   </g>
   <g id="text_19">
    <!-- 7 Step-ellipsoid -->
    <g transform="translate(117.434625 18.84)scale(0.2 -0.2)">
     <use xlink:href="#DejaVuSans-37"/>
     <use x="63.623047" xlink:href="#DejaVuSans-20"/>
     <use x="95.410156" xlink:href="#DejaVuSans-53"/>
     <use x="158.886719" xlink:href="#DejaVuSans-74"/>
     <use x="198.095703" xlink:href="#DejaVuSans-65"/>
     <use x="259.619141" xlink:href="#DejaVuSans-70"/>
     <use x="323.095703" xlink:href="#DejaVuSans-2d"/>
     <use x="359.179688" xlink:href="#DejaVuSans-65"/>
     <use x="420.703125" xlink:href="#DejaVuSans-6c"/>
     <use x="448.486328" xlink:href="#DejaVuSans-6c"/>
     <use x="476.269531" xlink:href="#DejaVuSans-69"/>
     <use x="504.052734" xlink:href="#DejaVuSans-70"/>
     <use x="567.529297" xlink:href="#DejaVuSans-73"/>
     <use x="619.628906" xlink:href="#DejaVuSans-6f"/>
     <use x="680.810547" xlink:href="#DejaVuSans-69"/>
     <use x="708.59375" xlink:href="#DejaVuSans-64"/>
    </g>
   </g>
  </g>
 </g>
 <defs>
  <clipPath id="p31a7a937dd">
   <rect height="270.04" width="277.048" x="56.12" y="24.84"/>
  </clipPath>
 </defs>
</svg>
