<?xml version="1.0" encoding="utf-8" standalone="no"?>
<!DOCTYPE svg PUBLIC "-//W3C//DTD SVG 1.1//EN"
  "http://www.w3.org/Graphics/SVG/1.1/DTD/svg11.dtd">
<!-- Created with matplotlib (http://matplotlib.org/) -->
<svg height="345.6pt" version="1.1" viewBox="0 0 460.8 345.6" width="460.8pt" xmlns="http://www.w3.org/2000/svg" xmlns:xlink="http://www.w3.org/1999/xlink">
 <defs>
  <style type="text/css">
*{stroke-linecap:butt;stroke-linejoin:round;}
  </style>
 </defs>
 <g id="figure_1">
  <g id="patch_1">
   <path d="M 0 345.6 
L 460.8 345.6 
L 460.8 0 
L 0 0 
z
" style="fill:#ffffff;"/>
  </g>
  <g id="axes_1">
   <g id="patch_2">
    <path d="M 56.12 294.88 
L 333.168 294.88 
L 333.168 24.84 
L 56.12 24.84 
z
" style="fill:#ffffff;"/>
   </g>
   <g id="matplotlib.axis_1">
    <g id="xtick_1">
     <g id="line2d_1">
      <path clip-path="url(#p2180fec2b0)" d="M 56.12 294.88 
L 56.12 24.84 
" style="fill:none;stroke:#b0b0b0;stroke-linecap:square;stroke-width:0.8;"/>
     </g>
     <g id="line2d_2">
      <defs>
       <path d="M 0 0 
L 0 3.5 
" id="mfa124d2551" style="stroke:#000000;stroke-width:0.8;"/>
      </defs>
      <g>
       <use style="stroke:#000000;stroke-width:0.8;" x="56.12" xlink:href="#mfa124d2551" y="294.88"/>
      </g>
     </g>
     <g id="text_1">
      <!-- 0 -->
      <defs>
       <path d="M 31.78125 66.40625 
Q 24.171875 66.40625 20.328125 58.90625 
Q 16.5 51.421875 16.5 36.375 
Q 16.5 21.390625 20.328125 13.890625 
Q 24.171875 6.390625 31.78125 6.390625 
Q 39.453125 6.390625 43.28125 13.890625 
Q 47.125 21.390625 47.125 36.375 
Q 47.125 51.421875 43.28125 58.90625 
Q 39.453125 66.40625 31.78125 66.40625 
z
M 31.78125 74.21875 
Q 44.046875 74.21875 50.515625 64.515625 
Q 56.984375 54.828125 56.984375 36.375 
Q 56.984375 17.96875 50.515625 8.265625 
Q 44.046875 -1.421875 31.78125 -1.421875 
Q 19.53125 -1.421875 13.0625 8.265625 
Q 6.59375 17.96875 6.59375 36.375 
Q 6.59375 54.828125 13.0625 64.515625 
Q 19.53125 74.21875 31.78125 74.21875 
z
" id="DejaVuSans-30"/>
      </defs>
      <g transform="translate(49.7575 317.076875)scale(0.2 -0.2)">
       <use xlink:href="#DejaVuSans-30"/>
      </g>
     </g>
    </g>
    <g id="xtick_2">
     <g id="line2d_3">
      <path clip-path="url(#p2180fec2b0)" d="M 135.276571 294.88 
L 135.276571 24.84 
" style="fill:none;stroke:#b0b0b0;stroke-linecap:square;stroke-width:0.8;"/>
     </g>
     <g id="line2d_4">
      <g>
       <use style="stroke:#000000;stroke-width:0.8;" x="135.276571" xlink:href="#mfa124d2551" y="294.88"/>
      </g>
     </g>
     <g id="text_2">
      <!-- 2 -->
      <defs>
       <path d="M 19.1875 8.296875 
L 53.609375 8.296875 
L 53.609375 0 
L 7.328125 0 
L 7.328125 8.296875 
Q 12.9375 14.109375 22.625 23.890625 
Q 32.328125 33.6875 34.8125 36.53125 
Q 39.546875 41.84375 41.421875 45.53125 
Q 43.3125 49.21875 43.3125 52.78125 
Q 43.3125 58.59375 39.234375 62.25 
Q 35.15625 65.921875 28.609375 65.921875 
Q 23.96875 65.921875 18.8125 64.3125 
Q 13.671875 62.703125 7.8125 59.421875 
L 7.8125 69.390625 
Q 13.765625 71.78125 18.9375 73 
Q 24.125 74.21875 28.421875 74.21875 
Q 39.75 74.21875 46.484375 68.546875 
Q 53.21875 62.890625 53.21875 53.421875 
Q 53.21875 48.921875 51.53125 44.890625 
Q 49.859375 40.875 45.40625 35.40625 
Q 44.1875 33.984375 37.640625 27.21875 
Q 31.109375 20.453125 19.1875 8.296875 
z
" id="DejaVuSans-32"/>
      </defs>
      <g transform="translate(128.914071 317.076875)scale(0.2 -0.2)">
       <use xlink:href="#DejaVuSans-32"/>
      </g>
     </g>
    </g>
    <g id="xtick_3">
     <g id="line2d_5">
      <path clip-path="url(#p2180fec2b0)" d="M 214.433143 294.88 
L 214.433143 24.84 
" style="fill:none;stroke:#b0b0b0;stroke-linecap:square;stroke-width:0.8;"/>
     </g>
     <g id="line2d_6">
      <g>
       <use style="stroke:#000000;stroke-width:0.8;" x="214.433143" xlink:href="#mfa124d2551" y="294.88"/>
      </g>
     </g>
     <g id="text_3">
      <!-- 4 -->
      <defs>
       <path d="M 37.796875 64.3125 
L 12.890625 25.390625 
L 37.796875 25.390625 
z
M 35.203125 72.90625 
L 47.609375 72.90625 
L 47.609375 25.390625 
L 58.015625 25.390625 
L 58.015625 17.1875 
L 47.609375 17.1875 
L 47.609375 0 
L 37.796875 0 
L 37.796875 17.1875 
L 4.890625 17.1875 
L 4.890625 26.703125 
z
" id="DejaVuSans-34"/>
      </defs>
      <g transform="translate(208.070643 317.076875)scale(0.2 -0.2)">
       <use xlink:href="#DejaVuSans-34"/>
      </g>
     </g>
    </g>
    <g id="xtick_4">
     <g id="line2d_7">
      <path clip-path="url(#p2180fec2b0)" d="M 293.589714 294.88 
L 293.589714 24.84 
" style="fill:none;stroke:#b0b0b0;stroke-linecap:square;stroke-width:0.8;"/>
     </g>
     <g id="line2d_8">
      <g>
       <use style="stroke:#000000;stroke-width:0.8;" x="293.589714" xlink:href="#mfa124d2551" y="294.88"/>
      </g>
     </g>
     <g id="text_4">
      <!-- 6 -->
      <defs>
       <path d="M 33.015625 40.375 
Q 26.375 40.375 22.484375 35.828125 
Q 18.609375 31.296875 18.609375 23.390625 
Q 18.609375 15.53125 22.484375 10.953125 
Q 26.375 6.390625 33.015625 6.390625 
Q 39.65625 6.390625 43.53125 10.953125 
Q 47.40625 15.53125 47.40625 23.390625 
Q 47.40625 31.296875 43.53125 35.828125 
Q 39.65625 40.375 33.015625 40.375 
z
M 52.59375 71.296875 
L 52.59375 62.3125 
Q 48.875 64.0625 45.09375 64.984375 
Q 41.3125 65.921875 37.59375 65.921875 
Q 27.828125 65.921875 22.671875 59.328125 
Q 17.53125 52.734375 16.796875 39.40625 
Q 19.671875 43.65625 24.015625 45.921875 
Q 28.375 48.1875 33.59375 48.1875 
Q 44.578125 48.1875 50.953125 41.515625 
Q 57.328125 34.859375 57.328125 23.390625 
Q 57.328125 12.15625 50.6875 5.359375 
Q 44.046875 -1.421875 33.015625 -1.421875 
Q 20.359375 -1.421875 13.671875 8.265625 
Q 6.984375 17.96875 6.984375 36.375 
Q 6.984375 53.65625 15.1875 63.9375 
Q 23.390625 74.21875 37.203125 74.21875 
Q 40.921875 74.21875 44.703125 73.484375 
Q 48.484375 72.75 52.59375 71.296875 
z
" id="DejaVuSans-36"/>
      </defs>
      <g transform="translate(287.227214 317.076875)scale(0.2 -0.2)">
       <use xlink:href="#DejaVuSans-36"/>
      </g>
     </g>
    </g>
    <g id="xtick_5">
     <g id="line2d_9">
      <path clip-path="url(#p2180fec2b0)" d="M 56.12 294.88 
L 56.12 24.84 
" style="fill:none;stroke:#b0b0b0;stroke-linecap:square;stroke-width:0.8;"/>
     </g>
     <g id="line2d_10">
      <defs>
       <path d="M 0 0 
L 0 2 
" id="ma1186f32a0" style="stroke:#000000;stroke-width:0.6;"/>
      </defs>
      <g>
       <use style="stroke:#000000;stroke-width:0.6;" x="56.12" xlink:href="#ma1186f32a0" y="294.88"/>
      </g>
     </g>
    </g>
    <g id="xtick_6">
     <g id="line2d_11">
      <path clip-path="url(#p2180fec2b0)" d="M 95.698286 294.88 
L 95.698286 24.84 
" style="fill:none;stroke:#b0b0b0;stroke-linecap:square;stroke-width:0.8;"/>
     </g>
     <g id="line2d_12">
      <g>
       <use style="stroke:#000000;stroke-width:0.6;" x="95.698286" xlink:href="#ma1186f32a0" y="294.88"/>
      </g>
     </g>
    </g>
    <g id="xtick_7">
     <g id="line2d_13">
      <path clip-path="url(#p2180fec2b0)" d="M 135.276571 294.88 
L 135.276571 24.84 
" style="fill:none;stroke:#b0b0b0;stroke-linecap:square;stroke-width:0.8;"/>
     </g>
     <g id="line2d_14">
      <g>
       <use style="stroke:#000000;stroke-width:0.6;" x="135.276571" xlink:href="#ma1186f32a0" y="294.88"/>
      </g>
     </g>
    </g>
    <g id="xtick_8">
     <g id="line2d_15">
      <path clip-path="url(#p2180fec2b0)" d="M 174.854857 294.88 
L 174.854857 24.84 
" style="fill:none;stroke:#b0b0b0;stroke-linecap:square;stroke-width:0.8;"/>
     </g>
     <g id="line2d_16">
      <g>
       <use style="stroke:#000000;stroke-width:0.6;" x="174.854857" xlink:href="#ma1186f32a0" y="294.88"/>
      </g>
     </g>
    </g>
    <g id="xtick_9">
     <g id="line2d_17">
      <path clip-path="url(#p2180fec2b0)" d="M 214.433143 294.88 
L 214.433143 24.84 
" style="fill:none;stroke:#b0b0b0;stroke-linecap:square;stroke-width:0.8;"/>
     </g>
     <g id="line2d_18">
      <g>
       <use style="stroke:#000000;stroke-width:0.6;" x="214.433143" xlink:href="#ma1186f32a0" y="294.88"/>
      </g>
     </g>
    </g>
    <g id="xtick_10">
     <g id="line2d_19">
      <path clip-path="url(#p2180fec2b0)" d="M 254.011429 294.88 
L 254.011429 24.84 
" style="fill:none;stroke:#b0b0b0;stroke-linecap:square;stroke-width:0.8;"/>
     </g>
     <g id="line2d_20">
      <g>
       <use style="stroke:#000000;stroke-width:0.6;" x="254.011429" xlink:href="#ma1186f32a0" y="294.88"/>
      </g>
     </g>
    </g>
    <g id="xtick_11">
     <g id="line2d_21">
      <path clip-path="url(#p2180fec2b0)" d="M 293.589714 294.88 
L 293.589714 24.84 
" style="fill:none;stroke:#b0b0b0;stroke-linecap:square;stroke-width:0.8;"/>
     </g>
     <g id="line2d_22">
      <g>
       <use style="stroke:#000000;stroke-width:0.6;" x="293.589714" xlink:href="#ma1186f32a0" y="294.88"/>
      </g>
     </g>
    </g>
    <g id="xtick_12">
     <g id="line2d_23">
      <path clip-path="url(#p2180fec2b0)" d="M 333.168 294.88 
L 333.168 24.84 
" style="fill:none;stroke:#b0b0b0;stroke-linecap:square;stroke-width:0.8;"/>
     </g>
     <g id="line2d_24">
      <g>
       <use style="stroke:#000000;stroke-width:0.6;" x="333.168" xlink:href="#ma1186f32a0" y="294.88"/>
      </g>
     </g>
    </g>
    <g id="text_5">
     <!-- log10(# f-evals / dimension) -->
     <defs>
      <path d="M 9.421875 75.984375 
L 18.40625 75.984375 
L 18.40625 0 
L 9.421875 0 
z
" id="DejaVuSans-6c"/>
      <path d="M 30.609375 48.390625 
Q 23.390625 48.390625 19.1875 42.75 
Q 14.984375 37.109375 14.984375 27.296875 
Q 14.984375 17.484375 19.15625 11.84375 
Q 23.34375 6.203125 30.609375 6.203125 
Q 37.796875 6.203125 41.984375 11.859375 
Q 46.1875 17.53125 46.1875 27.296875 
Q 46.1875 37.015625 41.984375 42.703125 
Q 37.796875 48.390625 30.609375 48.390625 
z
M 30.609375 56 
Q 42.328125 56 49.015625 48.375 
Q 55.71875 40.765625 55.71875 27.296875 
Q 55.71875 13.875 49.015625 6.21875 
Q 42.328125 -1.421875 30.609375 -1.421875 
Q 18.84375 -1.421875 12.171875 6.21875 
Q 5.515625 13.875 5.515625 27.296875 
Q 5.515625 40.765625 12.171875 48.375 
Q 18.84375 56 30.609375 56 
z
" id="DejaVuSans-6f"/>
      <path d="M 45.40625 27.984375 
Q 45.40625 37.75 41.375 43.109375 
Q 37.359375 48.484375 30.078125 48.484375 
Q 22.859375 48.484375 18.828125 43.109375 
Q 14.796875 37.75 14.796875 27.984375 
Q 14.796875 18.265625 18.828125 12.890625 
Q 22.859375 7.515625 30.078125 7.515625 
Q 37.359375 7.515625 41.375 12.890625 
Q 45.40625 18.265625 45.40625 27.984375 
z
M 54.390625 6.78125 
Q 54.390625 -7.171875 48.1875 -13.984375 
Q 42 -20.796875 29.203125 -20.796875 
Q 24.46875 -20.796875 20.265625 -20.09375 
Q 16.0625 -19.390625 12.109375 -17.921875 
L 12.109375 -9.1875 
Q 16.0625 -11.328125 19.921875 -12.34375 
Q 23.78125 -13.375 27.78125 -13.375 
Q 36.625 -13.375 41.015625 -8.765625 
Q 45.40625 -4.15625 45.40625 5.171875 
L 45.40625 9.625 
Q 42.625 4.78125 38.28125 2.390625 
Q 33.9375 0 27.875 0 
Q 17.828125 0 11.671875 7.65625 
Q 5.515625 15.328125 5.515625 27.984375 
Q 5.515625 40.671875 11.671875 48.328125 
Q 17.828125 56 27.875 56 
Q 33.9375 56 38.28125 53.609375 
Q 42.625 51.21875 45.40625 46.390625 
L 45.40625 54.6875 
L 54.390625 54.6875 
z
" id="DejaVuSans-67"/>
      <path d="M 12.40625 8.296875 
L 28.515625 8.296875 
L 28.515625 63.921875 
L 10.984375 60.40625 
L 10.984375 69.390625 
L 28.421875 72.90625 
L 38.28125 72.90625 
L 38.28125 8.296875 
L 54.390625 8.296875 
L 54.390625 0 
L 12.40625 0 
z
" id="DejaVuSans-31"/>
      <path d="M 31 75.875 
Q 24.46875 64.65625 21.28125 53.65625 
Q 18.109375 42.671875 18.109375 31.390625 
Q 18.109375 20.125 21.3125 9.0625 
Q 24.515625 -2 31 -13.1875 
L 23.1875 -13.1875 
Q 15.875 -1.703125 12.234375 9.375 
Q 8.59375 20.453125 8.59375 31.390625 
Q 8.59375 42.28125 12.203125 53.3125 
Q 15.828125 64.359375 23.1875 75.875 
z
" id="DejaVuSans-28"/>
      <path d="M 51.125 44 
L 36.921875 44 
L 32.8125 27.6875 
L 47.125 27.6875 
z
M 43.796875 71.78125 
L 38.71875 51.515625 
L 52.984375 51.515625 
L 58.109375 71.78125 
L 65.921875 71.78125 
L 60.890625 51.515625 
L 76.125 51.515625 
L 76.125 44 
L 58.984375 44 
L 54.984375 27.6875 
L 70.515625 27.6875 
L 70.515625 20.21875 
L 53.078125 20.21875 
L 48 0 
L 40.1875 0 
L 45.21875 20.21875 
L 30.90625 20.21875 
L 25.875 0 
L 18.015625 0 
L 23.09375 20.21875 
L 7.71875 20.21875 
L 7.71875 27.6875 
L 24.90625 27.6875 
L 29 44 
L 13.28125 44 
L 13.28125 51.515625 
L 30.90625 51.515625 
L 35.890625 71.78125 
z
" id="DejaVuSans-23"/>
      <path id="DejaVuSans-20"/>
      <path d="M 37.109375 75.984375 
L 37.109375 68.5 
L 28.515625 68.5 
Q 23.6875 68.5 21.796875 66.546875 
Q 19.921875 64.59375 19.921875 59.515625 
L 19.921875 54.6875 
L 34.71875 54.6875 
L 34.71875 47.703125 
L 19.921875 47.703125 
L 19.921875 0 
L 10.890625 0 
L 10.890625 47.703125 
L 2.296875 47.703125 
L 2.296875 54.6875 
L 10.890625 54.6875 
L 10.890625 58.5 
Q 10.890625 67.625 15.140625 71.796875 
Q 19.390625 75.984375 28.609375 75.984375 
z
" id="DejaVuSans-66"/>
      <path d="M 4.890625 31.390625 
L 31.203125 31.390625 
L 31.203125 23.390625 
L 4.890625 23.390625 
z
" id="DejaVuSans-2d"/>
      <path d="M 56.203125 29.59375 
L 56.203125 25.203125 
L 14.890625 25.203125 
Q 15.484375 15.921875 20.484375 11.0625 
Q 25.484375 6.203125 34.421875 6.203125 
Q 39.59375 6.203125 44.453125 7.46875 
Q 49.3125 8.734375 54.109375 11.28125 
L 54.109375 2.78125 
Q 49.265625 0.734375 44.1875 -0.34375 
Q 39.109375 -1.421875 33.890625 -1.421875 
Q 20.796875 -1.421875 13.15625 6.1875 
Q 5.515625 13.8125 5.515625 26.8125 
Q 5.515625 40.234375 12.765625 48.109375 
Q 20.015625 56 32.328125 56 
Q 43.359375 56 49.78125 48.890625 
Q 56.203125 41.796875 56.203125 29.59375 
z
M 47.21875 32.234375 
Q 47.125 39.59375 43.09375 43.984375 
Q 39.0625 48.390625 32.421875 48.390625 
Q 24.90625 48.390625 20.390625 44.140625 
Q 15.875 39.890625 15.1875 32.171875 
z
" id="DejaVuSans-65"/>
      <path d="M 2.984375 54.6875 
L 12.5 54.6875 
L 29.59375 8.796875 
L 46.6875 54.6875 
L 56.203125 54.6875 
L 35.6875 0 
L 23.484375 0 
z
" id="DejaVuSans-76"/>
      <path d="M 34.28125 27.484375 
Q 23.390625 27.484375 19.1875 25 
Q 14.984375 22.515625 14.984375 16.5 
Q 14.984375 11.71875 18.140625 8.90625 
Q 21.296875 6.109375 26.703125 6.109375 
Q 34.1875 6.109375 38.703125 11.40625 
Q 43.21875 16.703125 43.21875 25.484375 
L 43.21875 27.484375 
z
M 52.203125 31.203125 
L 52.203125 0 
L 43.21875 0 
L 43.21875 8.296875 
Q 40.140625 3.328125 35.546875 0.953125 
Q 30.953125 -1.421875 24.3125 -1.421875 
Q 15.921875 -1.421875 10.953125 3.296875 
Q 6 8.015625 6 15.921875 
Q 6 25.140625 12.171875 29.828125 
Q 18.359375 34.515625 30.609375 34.515625 
L 43.21875 34.515625 
L 43.21875 35.40625 
Q 43.21875 41.609375 39.140625 45 
Q 35.0625 48.390625 27.6875 48.390625 
Q 23 48.390625 18.546875 47.265625 
Q 14.109375 46.140625 10.015625 43.890625 
L 10.015625 52.203125 
Q 14.9375 54.109375 19.578125 55.046875 
Q 24.21875 56 28.609375 56 
Q 40.484375 56 46.34375 49.84375 
Q 52.203125 43.703125 52.203125 31.203125 
z
" id="DejaVuSans-61"/>
      <path d="M 44.28125 53.078125 
L 44.28125 44.578125 
Q 40.484375 46.53125 36.375 47.5 
Q 32.28125 48.484375 27.875 48.484375 
Q 21.1875 48.484375 17.84375 46.4375 
Q 14.5 44.390625 14.5 40.28125 
Q 14.5 37.15625 16.890625 35.375 
Q 19.28125 33.59375 26.515625 31.984375 
L 29.59375 31.296875 
Q 39.15625 29.25 43.1875 25.515625 
Q 47.21875 21.78125 47.21875 15.09375 
Q 47.21875 7.46875 41.1875 3.015625 
Q 35.15625 -1.421875 24.609375 -1.421875 
Q 20.21875 -1.421875 15.453125 -0.5625 
Q 10.6875 0.296875 5.421875 2 
L 5.421875 11.28125 
Q 10.40625 8.6875 15.234375 7.390625 
Q 20.0625 6.109375 24.8125 6.109375 
Q 31.15625 6.109375 34.5625 8.28125 
Q 37.984375 10.453125 37.984375 14.40625 
Q 37.984375 18.0625 35.515625 20.015625 
Q 33.0625 21.96875 24.703125 23.78125 
L 21.578125 24.515625 
Q 13.234375 26.265625 9.515625 29.90625 
Q 5.8125 33.546875 5.8125 39.890625 
Q 5.8125 47.609375 11.28125 51.796875 
Q 16.75 56 26.8125 56 
Q 31.78125 56 36.171875 55.265625 
Q 40.578125 54.546875 44.28125 53.078125 
z
" id="DejaVuSans-73"/>
      <path d="M 25.390625 72.90625 
L 33.6875 72.90625 
L 8.296875 -9.28125 
L 0 -9.28125 
z
" id="DejaVuSans-2f"/>
      <path d="M 45.40625 46.390625 
L 45.40625 75.984375 
L 54.390625 75.984375 
L 54.390625 0 
L 45.40625 0 
L 45.40625 8.203125 
Q 42.578125 3.328125 38.25 0.953125 
Q 33.9375 -1.421875 27.875 -1.421875 
Q 17.96875 -1.421875 11.734375 6.484375 
Q 5.515625 14.40625 5.515625 27.296875 
Q 5.515625 40.1875 11.734375 48.09375 
Q 17.96875 56 27.875 56 
Q 33.9375 56 38.25 53.625 
Q 42.578125 51.265625 45.40625 46.390625 
z
M 14.796875 27.296875 
Q 14.796875 17.390625 18.875 11.75 
Q 22.953125 6.109375 30.078125 6.109375 
Q 37.203125 6.109375 41.296875 11.75 
Q 45.40625 17.390625 45.40625 27.296875 
Q 45.40625 37.203125 41.296875 42.84375 
Q 37.203125 48.484375 30.078125 48.484375 
Q 22.953125 48.484375 18.875 42.84375 
Q 14.796875 37.203125 14.796875 27.296875 
z
" id="DejaVuSans-64"/>
      <path d="M 9.421875 54.6875 
L 18.40625 54.6875 
L 18.40625 0 
L 9.421875 0 
z
M 9.421875 75.984375 
L 18.40625 75.984375 
L 18.40625 64.59375 
L 9.421875 64.59375 
z
" id="DejaVuSans-69"/>
      <path d="M 52 44.1875 
Q 55.375 50.25 60.0625 53.125 
Q 64.75 56 71.09375 56 
Q 79.640625 56 84.28125 50.015625 
Q 88.921875 44.046875 88.921875 33.015625 
L 88.921875 0 
L 79.890625 0 
L 79.890625 32.71875 
Q 79.890625 40.578125 77.09375 44.375 
Q 74.3125 48.1875 68.609375 48.1875 
Q 61.625 48.1875 57.5625 43.546875 
Q 53.515625 38.921875 53.515625 30.90625 
L 53.515625 0 
L 44.484375 0 
L 44.484375 32.71875 
Q 44.484375 40.625 41.703125 44.40625 
Q 38.921875 48.1875 33.109375 48.1875 
Q 26.21875 48.1875 22.15625 43.53125 
Q 18.109375 38.875 18.109375 30.90625 
L 18.109375 0 
L 9.078125 0 
L 9.078125 54.6875 
L 18.109375 54.6875 
L 18.109375 46.1875 
Q 21.1875 51.21875 25.484375 53.609375 
Q 29.78125 56 35.6875 56 
Q 41.65625 56 45.828125 52.96875 
Q 50 49.953125 52 44.1875 
z
" id="DejaVuSans-6d"/>
      <path d="M 54.890625 33.015625 
L 54.890625 0 
L 45.90625 0 
L 45.90625 32.71875 
Q 45.90625 40.484375 42.875 44.328125 
Q 39.84375 48.1875 33.796875 48.1875 
Q 26.515625 48.1875 22.3125 43.546875 
Q 18.109375 38.921875 18.109375 30.90625 
L 18.109375 0 
L 9.078125 0 
L 9.078125 54.6875 
L 18.109375 54.6875 
L 18.109375 46.1875 
Q 21.34375 51.125 25.703125 53.5625 
Q 30.078125 56 35.796875 56 
Q 45.21875 56 50.046875 50.171875 
Q 54.890625 44.34375 54.890625 33.015625 
z
" id="DejaVuSans-6e"/>
      <path d="M 8.015625 75.875 
L 15.828125 75.875 
Q 23.140625 64.359375 26.78125 53.3125 
Q 30.421875 42.28125 30.421875 31.390625 
Q 30.421875 20.453125 26.78125 9.375 
Q 23.140625 -1.703125 15.828125 -13.1875 
L 8.015625 -13.1875 
Q 14.5 -2 17.703125 9.0625 
Q 20.90625 20.125 20.90625 31.390625 
Q 20.90625 42.671875 17.703125 53.65625 
Q 14.5 64.65625 8.015625 75.875 
z
" id="DejaVuSans-29"/>
     </defs>
     <g transform="translate(73.803219 338.153594)scale(0.17 -0.17)">
      <use xlink:href="#DejaVuSans-6c"/>
      <use x="27.783203" xlink:href="#DejaVuSans-6f"/>
      <use x="88.964844" xlink:href="#DejaVuSans-67"/>
      <use x="152.441406" xlink:href="#DejaVuSans-31"/>
      <use x="216.064453" xlink:href="#DejaVuSans-30"/>
      <use x="279.6875" xlink:href="#DejaVuSans-28"/>
      <use x="318.701172" xlink:href="#DejaVuSans-23"/>
      <use x="402.490234" xlink:href="#DejaVuSans-20"/>
      <use x="434.277344" xlink:href="#DejaVuSans-66"/>
      <use x="469.404297" xlink:href="#DejaVuSans-2d"/>
      <use x="505.488281" xlink:href="#DejaVuSans-65"/>
      <use x="567.011719" xlink:href="#DejaVuSans-76"/>
      <use x="626.191406" xlink:href="#DejaVuSans-61"/>
      <use x="687.470703" xlink:href="#DejaVuSans-6c"/>
      <use x="715.253906" xlink:href="#DejaVuSans-73"/>
      <use x="767.353516" xlink:href="#DejaVuSans-20"/>
      <use x="799.140625" xlink:href="#DejaVuSans-2f"/>
      <use x="832.832031" xlink:href="#DejaVuSans-20"/>
      <use x="864.619141" xlink:href="#DejaVuSans-64"/>
      <use x="928.095703" xlink:href="#DejaVuSans-69"/>
      <use x="955.878906" xlink:href="#DejaVuSans-6d"/>
      <use x="1053.291016" xlink:href="#DejaVuSans-65"/>
      <use x="1114.814453" xlink:href="#DejaVuSans-6e"/>
      <use x="1178.193359" xlink:href="#DejaVuSans-73"/>
      <use x="1230.292969" xlink:href="#DejaVuSans-69"/>
      <use x="1258.076172" xlink:href="#DejaVuSans-6f"/>
      <use x="1319.257812" xlink:href="#DejaVuSans-6e"/>
      <use x="1382.636719" xlink:href="#DejaVuSans-29"/>
     </g>
    </g>
   </g>
   <g id="matplotlib.axis_2">
    <g id="ytick_1">
     <g id="line2d_25">
      <path clip-path="url(#p2180fec2b0)" d="M 56.12 294.88 
L 333.168 294.88 
" style="fill:none;stroke:#b0b0b0;stroke-linecap:square;stroke-width:0.8;"/>
     </g>
     <g id="line2d_26">
      <defs>
       <path d="M 0 0 
L -3.5 0 
" id="m45a048067e" style="stroke:#000000;stroke-width:0.8;"/>
      </defs>
      <g>
       <use style="stroke:#000000;stroke-width:0.8;" x="56.12" xlink:href="#m45a048067e" y="294.88"/>
      </g>
     </g>
     <g id="text_6">
      <!-- 0.0 -->
      <defs>
       <path d="M 10.6875 12.40625 
L 21 12.40625 
L 21 0 
L 10.6875 0 
z
" id="DejaVuSans-2e"/>
      </defs>
      <g transform="translate(23.675 300.95875)scale(0.16 -0.16)">
       <use xlink:href="#DejaVuSans-30"/>
       <use x="63.623047" xlink:href="#DejaVuSans-2e"/>
       <use x="95.410156" xlink:href="#DejaVuSans-30"/>
      </g>
     </g>
    </g>
    <g id="ytick_2">
     <g id="line2d_27">
      <path clip-path="url(#p2180fec2b0)" d="M 56.12 241.406733 
L 333.168 241.406733 
" style="fill:none;stroke:#b0b0b0;stroke-linecap:square;stroke-width:0.8;"/>
     </g>
     <g id="line2d_28">
      <g>
       <use style="stroke:#000000;stroke-width:0.8;" x="56.12" xlink:href="#m45a048067e" y="241.406733"/>
      </g>
     </g>
     <g id="text_7">
      <!-- 0.2 -->
      <g transform="translate(23.675 247.485483)scale(0.16 -0.16)">
       <use xlink:href="#DejaVuSans-30"/>
       <use x="63.623047" xlink:href="#DejaVuSans-2e"/>
       <use x="95.410156" xlink:href="#DejaVuSans-32"/>
      </g>
     </g>
    </g>
    <g id="ytick_3">
     <g id="line2d_29">
      <path clip-path="url(#p2180fec2b0)" d="M 56.12 187.933465 
L 333.168 187.933465 
" style="fill:none;stroke:#b0b0b0;stroke-linecap:square;stroke-width:0.8;"/>
     </g>
     <g id="line2d_30">
      <g>
       <use style="stroke:#000000;stroke-width:0.8;" x="56.12" xlink:href="#m45a048067e" y="187.933465"/>
      </g>
     </g>
     <g id="text_8">
      <!-- 0.4 -->
      <g transform="translate(23.675 194.012215)scale(0.16 -0.16)">
       <use xlink:href="#DejaVuSans-30"/>
       <use x="63.623047" xlink:href="#DejaVuSans-2e"/>
       <use x="95.410156" xlink:href="#DejaVuSans-34"/>
      </g>
     </g>
    </g>
    <g id="ytick_4">
     <g id="line2d_31">
      <path clip-path="url(#p2180fec2b0)" d="M 56.12 134.460198 
L 333.168 134.460198 
" style="fill:none;stroke:#b0b0b0;stroke-linecap:square;stroke-width:0.8;"/>
     </g>
     <g id="line2d_32">
      <g>
       <use style="stroke:#000000;stroke-width:0.8;" x="56.12" xlink:href="#m45a048067e" y="134.460198"/>
      </g>
     </g>
     <g id="text_9">
      <!-- 0.6 -->
      <g transform="translate(23.675 140.538948)scale(0.16 -0.16)">
       <use xlink:href="#DejaVuSans-30"/>
       <use x="63.623047" xlink:href="#DejaVuSans-2e"/>
       <use x="95.410156" xlink:href="#DejaVuSans-36"/>
      </g>
     </g>
    </g>
    <g id="ytick_5">
     <g id="line2d_33">
      <path clip-path="url(#p2180fec2b0)" d="M 56.12 80.986931 
L 333.168 80.986931 
" style="fill:none;stroke:#b0b0b0;stroke-linecap:square;stroke-width:0.8;"/>
     </g>
     <g id="line2d_34">
      <g>
       <use style="stroke:#000000;stroke-width:0.8;" x="56.12" xlink:href="#m45a048067e" y="80.986931"/>
      </g>
     </g>
     <g id="text_10">
      <!-- 0.8 -->
      <defs>
       <path d="M 31.78125 34.625 
Q 24.75 34.625 20.71875 30.859375 
Q 16.703125 27.09375 16.703125 20.515625 
Q 16.703125 13.921875 20.71875 10.15625 
Q 24.75 6.390625 31.78125 6.390625 
Q 38.8125 6.390625 42.859375 10.171875 
Q 46.921875 13.96875 46.921875 20.515625 
Q 46.921875 27.09375 42.890625 30.859375 
Q 38.875 34.625 31.78125 34.625 
z
M 21.921875 38.8125 
Q 15.578125 40.375 12.03125 44.71875 
Q 8.5 49.078125 8.5 55.328125 
Q 8.5 64.0625 14.71875 69.140625 
Q 20.953125 74.21875 31.78125 74.21875 
Q 42.671875 74.21875 48.875 69.140625 
Q 55.078125 64.0625 55.078125 55.328125 
Q 55.078125 49.078125 51.53125 44.71875 
Q 48 40.375 41.703125 38.8125 
Q 48.828125 37.15625 52.796875 32.3125 
Q 56.78125 27.484375 56.78125 20.515625 
Q 56.78125 9.90625 50.3125 4.234375 
Q 43.84375 -1.421875 31.78125 -1.421875 
Q 19.734375 -1.421875 13.25 4.234375 
Q 6.78125 9.90625 6.78125 20.515625 
Q 6.78125 27.484375 10.78125 32.3125 
Q 14.796875 37.15625 21.921875 38.8125 
z
M 18.3125 54.390625 
Q 18.3125 48.734375 21.84375 45.5625 
Q 25.390625 42.390625 31.78125 42.390625 
Q 38.140625 42.390625 41.71875 45.5625 
Q 45.3125 48.734375 45.3125 54.390625 
Q 45.3125 60.0625 41.71875 63.234375 
Q 38.140625 66.40625 31.78125 66.40625 
Q 25.390625 66.40625 21.84375 63.234375 
Q 18.3125 60.0625 18.3125 54.390625 
z
" id="DejaVuSans-38"/>
      </defs>
      <g transform="translate(23.675 87.065681)scale(0.16 -0.16)">
       <use xlink:href="#DejaVuSans-30"/>
       <use x="63.623047" xlink:href="#DejaVuSans-2e"/>
       <use x="95.410156" xlink:href="#DejaVuSans-38"/>
      </g>
     </g>
    </g>
    <g id="ytick_6">
     <g id="line2d_35">
      <path clip-path="url(#p2180fec2b0)" d="M 56.12 27.513663 
L 333.168 27.513663 
" style="fill:none;stroke:#b0b0b0;stroke-linecap:square;stroke-width:0.8;"/>
     </g>
     <g id="line2d_36">
      <g>
       <use style="stroke:#000000;stroke-width:0.8;" x="56.12" xlink:href="#m45a048067e" y="27.513663"/>
      </g>
     </g>
     <g id="text_11">
      <!-- 1.0 -->
      <g transform="translate(23.675 33.592413)scale(0.16 -0.16)">
       <use xlink:href="#DejaVuSans-31"/>
       <use x="63.623047" xlink:href="#DejaVuSans-2e"/>
       <use x="95.410156" xlink:href="#DejaVuSans-30"/>
      </g>
     </g>
    </g>
    <g id="text_12">
     <!-- Fraction of function,target pairs -->
     <defs>
      <path d="M 9.8125 72.90625 
L 51.703125 72.90625 
L 51.703125 64.59375 
L 19.671875 64.59375 
L 19.671875 43.109375 
L 48.578125 43.109375 
L 48.578125 34.8125 
L 19.671875 34.8125 
L 19.671875 0 
L 9.8125 0 
z
" id="DejaVuSans-46"/>
      <path d="M 41.109375 46.296875 
Q 39.59375 47.171875 37.8125 47.578125 
Q 36.03125 48 33.890625 48 
Q 26.265625 48 22.1875 43.046875 
Q 18.109375 38.09375 18.109375 28.8125 
L 18.109375 0 
L 9.078125 0 
L 9.078125 54.6875 
L 18.109375 54.6875 
L 18.109375 46.1875 
Q 20.953125 51.171875 25.484375 53.578125 
Q 30.03125 56 36.53125 56 
Q 37.453125 56 38.578125 55.875 
Q 39.703125 55.765625 41.0625 55.515625 
z
" id="DejaVuSans-72"/>
      <path d="M 48.78125 52.59375 
L 48.78125 44.1875 
Q 44.96875 46.296875 41.140625 47.34375 
Q 37.3125 48.390625 33.40625 48.390625 
Q 24.65625 48.390625 19.8125 42.84375 
Q 14.984375 37.3125 14.984375 27.296875 
Q 14.984375 17.28125 19.8125 11.734375 
Q 24.65625 6.203125 33.40625 6.203125 
Q 37.3125 6.203125 41.140625 7.25 
Q 44.96875 8.296875 48.78125 10.40625 
L 48.78125 2.09375 
Q 45.015625 0.34375 40.984375 -0.53125 
Q 36.96875 -1.421875 32.421875 -1.421875 
Q 20.0625 -1.421875 12.78125 6.34375 
Q 5.515625 14.109375 5.515625 27.296875 
Q 5.515625 40.671875 12.859375 48.328125 
Q 20.21875 56 33.015625 56 
Q 37.15625 56 41.109375 55.140625 
Q 45.0625 54.296875 48.78125 52.59375 
z
" id="DejaVuSans-63"/>
      <path d="M 18.3125 70.21875 
L 18.3125 54.6875 
L 36.8125 54.6875 
L 36.8125 47.703125 
L 18.3125 47.703125 
L 18.3125 18.015625 
Q 18.3125 11.328125 20.140625 9.421875 
Q 21.96875 7.515625 27.59375 7.515625 
L 36.8125 7.515625 
L 36.8125 0 
L 27.59375 0 
Q 17.1875 0 13.234375 3.875 
Q 9.28125 7.765625 9.28125 18.015625 
L 9.28125 47.703125 
L 2.6875 47.703125 
L 2.6875 54.6875 
L 9.28125 54.6875 
L 9.28125 70.21875 
z
" id="DejaVuSans-74"/>
      <path d="M 8.5 21.578125 
L 8.5 54.6875 
L 17.484375 54.6875 
L 17.484375 21.921875 
Q 17.484375 14.15625 20.5 10.265625 
Q 23.53125 6.390625 29.59375 6.390625 
Q 36.859375 6.390625 41.078125 11.03125 
Q 45.3125 15.671875 45.3125 23.6875 
L 45.3125 54.6875 
L 54.296875 54.6875 
L 54.296875 0 
L 45.3125 0 
L 45.3125 8.40625 
Q 42.046875 3.421875 37.71875 1 
Q 33.40625 -1.421875 27.6875 -1.421875 
Q 18.265625 -1.421875 13.375 4.4375 
Q 8.5 10.296875 8.5 21.578125 
z
M 31.109375 56 
z
" id="DejaVuSans-75"/>
      <path d="M 11.71875 12.40625 
L 22.015625 12.40625 
L 22.015625 4 
L 14.015625 -11.625 
L 7.71875 -11.625 
L 11.71875 4 
z
" id="DejaVuSans-2c"/>
      <path d="M 18.109375 8.203125 
L 18.109375 -20.796875 
L 9.078125 -20.796875 
L 9.078125 54.6875 
L 18.109375 54.6875 
L 18.109375 46.390625 
Q 20.953125 51.265625 25.265625 53.625 
Q 29.59375 56 35.59375 56 
Q 45.5625 56 51.78125 48.09375 
Q 58.015625 40.1875 58.015625 27.296875 
Q 58.015625 14.40625 51.78125 6.484375 
Q 45.5625 -1.421875 35.59375 -1.421875 
Q 29.59375 -1.421875 25.265625 0.953125 
Q 20.953125 3.328125 18.109375 8.203125 
z
M 48.6875 27.296875 
Q 48.6875 37.203125 44.609375 42.84375 
Q 40.53125 48.484375 33.40625 48.484375 
Q 26.265625 48.484375 22.1875 42.84375 
Q 18.109375 37.203125 18.109375 27.296875 
Q 18.109375 17.390625 22.1875 11.75 
Q 26.265625 6.109375 33.40625 6.109375 
Q 40.53125 6.109375 44.609375 11.75 
Q 48.6875 17.390625 48.6875 27.296875 
z
" id="DejaVuSans-70"/>
     </defs>
     <g transform="translate(16.139531 294.999375)rotate(-90)scale(0.17 -0.17)">
      <use xlink:href="#DejaVuSans-46"/>
      <use x="57.410156" xlink:href="#DejaVuSans-72"/>
      <use x="98.523438" xlink:href="#DejaVuSans-61"/>
      <use x="159.802734" xlink:href="#DejaVuSans-63"/>
      <use x="214.783203" xlink:href="#DejaVuSans-74"/>
      <use x="253.992188" xlink:href="#DejaVuSans-69"/>
      <use x="281.775391" xlink:href="#DejaVuSans-6f"/>
      <use x="342.957031" xlink:href="#DejaVuSans-6e"/>
      <use x="406.335938" xlink:href="#DejaVuSans-20"/>
      <use x="438.123047" xlink:href="#DejaVuSans-6f"/>
      <use x="499.304688" xlink:href="#DejaVuSans-66"/>
      <use x="534.509766" xlink:href="#DejaVuSans-20"/>
      <use x="566.296875" xlink:href="#DejaVuSans-66"/>
      <use x="601.501953" xlink:href="#DejaVuSans-75"/>
      <use x="664.880859" xlink:href="#DejaVuSans-6e"/>
      <use x="728.259766" xlink:href="#DejaVuSans-63"/>
      <use x="783.240234" xlink:href="#DejaVuSans-74"/>
      <use x="822.449219" xlink:href="#DejaVuSans-69"/>
      <use x="850.232422" xlink:href="#DejaVuSans-6f"/>
      <use x="911.414062" xlink:href="#DejaVuSans-6e"/>
      <use x="974.792969" xlink:href="#DejaVuSans-2c"/>
      <use x="1006.580078" xlink:href="#DejaVuSans-74"/>
      <use x="1045.789062" xlink:href="#DejaVuSans-61"/>
      <use x="1107.068359" xlink:href="#DejaVuSans-72"/>
      <use x="1148.166016" xlink:href="#DejaVuSans-67"/>
      <use x="1211.642578" xlink:href="#DejaVuSans-65"/>
      <use x="1273.166016" xlink:href="#DejaVuSans-74"/>
      <use x="1312.375" xlink:href="#DejaVuSans-20"/>
      <use x="1344.162109" xlink:href="#DejaVuSans-70"/>
      <use x="1407.638672" xlink:href="#DejaVuSans-61"/>
      <use x="1468.917969" xlink:href="#DejaVuSans-69"/>
      <use x="1496.701172" xlink:href="#DejaVuSans-72"/>
      <use x="1537.814453" xlink:href="#DejaVuSans-73"/>
     </g>
    </g>
   </g>
   <g id="line2d_37">
    <defs>
     <path d="M 0 1.5 
C 0.397805 1.5 0.77937 1.341951 1.06066 1.06066 
C 1.341951 0.77937 1.5 0.397805 1.5 0 
C 1.5 -0.397805 1.341951 -0.77937 1.06066 -1.06066 
C 0.77937 -1.341951 0.397805 -1.5 0 -1.5 
C -0.397805 -1.5 -0.77937 -1.341951 -1.06066 -1.06066 
C -1.341951 -0.77937 -1.5 -0.397805 -1.5 0 
C -1.5 0.397805 -1.341951 0.77937 -1.06066 1.06066 
C -0.77937 1.341951 -0.397805 1.5 0 1.5 
z
" id="m29fcbd0fe4" style="stroke:#000080;"/>
    </defs>
    <g>
     <use style="fill:#000080;stroke:#000080;" x="229.129591" xlink:href="#m29fcbd0fe4" y="27.513663"/>
     <use style="fill:#000080;stroke:#000080;" x="229.129591" xlink:href="#m29fcbd0fe4" y="27.513663"/>
    </g>
   </g>
   <g id="line2d_38">
    <path d="M -1 289.637523 
L 4.627463 289.637523 
L 4.627463 288.06478 
L 20.377246 288.06478 
L 20.377246 287.540532 
L 33.929749 287.540532 
L 33.929749 286.492036 
L 40.370217 286.492036 
L 40.370217 285.967789 
L 42.394746 285.967789 
L 42.394746 285.443541 
L 43.324087 285.443541 
L 43.324087 284.919293 
L 44.205749 284.919293 
L 44.205749 283.34655 
L 45.044385 283.34655 
L 45.044385 282.822302 
L 47.339607 282.822302 
L 47.339607 282.298055 
L 53.326522 282.298055 
L 53.326522 281.773807 
L 55.238338 281.773807 
L 55.238338 281.249559 
L 59.253858 281.249559 
L 59.253858 280.725312 
L 60.957095 280.725312 
L 60.957095 280.201064 
L 61.278387 280.201064 
L 61.278387 279.676816 
L 62.207729 279.676816 
L 62.207729 279.152568 
L 64.986122 279.152568 
L 64.986122 278.628321 
L 67.818039 278.628321 
L 67.818039 278.104073 
L 68.667033 278.104073 
L 68.667033 277.579825 
L 70.988122 277.579825 
L 70.988122 277.055578 
L 72.708419 277.055578 
L 72.708419 276.53133 
L 74.42092 276.53133 
L 74.42092 276.007082 
L 75.003641 276.007082 
L 75.003641 275.482834 
L 76.900373 275.482834 
L 76.900373 274.958587 
L 77.02817 274.958587 
L 77.02817 273.910091 
L 77.405958 273.910091 
L 77.405958 273.385844 
L 84.866485 273.385844 
L 84.866485 272.861596 
L 86.70168 272.861596 
L 86.70168 272.337348 
L 88.094234 272.337348 
L 88.160986 270.764605 
L 92.75247 270.764605 
L 92.75247 270.240357 
L 96.861245 270.240357 
L 96.861245 269.191862 
L 99.533818 269.191862 
L 99.533818 267.619119 
L 100.696777 267.619119 
L 100.696777 267.094871 
L 101.786014 267.094871 
L 101.786014 266.046375 
L 102.20309 266.046375 
L 102.20309 264.473632 
L 102.378785 264.473632 
L 102.378785 263.949385 
L 103.036119 263.949385 
L 103.036119 263.425137 
L 103.669239 263.425137 
L 103.669239 262.376641 
L 105.681752 262.376641 
L 105.681752 261.852394 
L 106.295697 261.852394 
L 106.342027 260.279651 
L 107.044627 260.279651 
L 107.06682 258.706907 
L 108.015995 258.706907 
L 108.015995 257.134164 
L 110.674626 257.134164 
L 110.674626 256.609917 
L 112.449632 256.609917 
L 112.449632 256.085669 
L 112.562769 256.085669 
L 112.562769 255.561421 
L 112.755001 255.561421 
L 112.755001 255.037173 
L 115.187074 255.037173 
L 115.187074 253.988678 
L 116.708014 253.988678 
L 116.708014 252.940182 
L 117.329507 252.940182 
L 117.426894 251.891687 
L 118.093572 251.891687 
L 118.093572 251.367439 
L 118.221542 251.367439 
L 118.221542 249.794696 
L 118.622495 249.794696 
L 118.622495 249.270448 
L 118.914406 249.270448 
L 118.914406 248.746201 
L 120.118102 248.746201 
L 120.118102 247.697705 
L 121.067098 247.697705 
L 121.067098 247.173458 
L 122.050119 247.173458 
L 122.050119 246.64921 
L 123.015063 246.64921 
L 123.015063 246.124962 
L 123.396663 246.124962 
L 123.396663 245.600714 
L 124.83571 245.600714 
L 124.83571 244.552219 
L 130.285813 244.552219 
L 130.285813 244.027971 
L 136.499666 244.027971 
L 136.499666 243.503724 
L 139.633524 243.503724 
L 139.633524 242.979476 
L 141.376358 242.979476 
L 141.376358 242.455228 
L 141.681012 242.455228 
L 141.681012 241.406733 
L 157.401165 241.406733 
L 157.401165 240.882485 
L 159.044808 240.882485 
L 159.044808 240.358237 
L 163.671682 240.358237 
L 163.75057 238.261246 
L 164.096335 238.261246 
L 164.096335 236.688503 
L 164.412418 236.688503 
L 164.412418 236.164255 
L 164.538965 236.164255 
L 164.589011 234.067265 
L 164.703413 234.067265 
L 164.7669 232.494521 
L 164.93302 232.494521 
L 164.93302 231.970274 
L 166.878278 231.970274 
L 166.878278 231.446026 
L 167.049656 231.446026 
L 167.098309 230.397531 
L 167.217332 230.397531 
L 167.306894 229.349035 
L 167.404612 229.349035 
L 167.404612 228.824787 
L 168.126346 228.824787 
L 168.126346 228.30054 
L 168.885408 228.30054 
L 168.885408 227.776292 
L 170.249253 227.776292 
L 170.249253 227.252044 
L 170.439197 227.252044 
L 170.439197 225.679301 
L 170.877472 225.679301 
L 170.877472 225.155053 
L 171.463659 225.155053 
L 171.463659 224.106558 
L 172.026461 224.106558 
L 172.026461 223.58231 
L 172.170232 223.58231 
L 172.170232 222.533815 
L 173.249833 222.533815 
L 173.249833 222.009567 
L 173.40996 222.009567 
L 173.489701 220.961072 
L 173.603769 220.961072 
L 173.603769 219.912576 
L 173.751028 219.912576 
L 173.799987 218.339833 
L 173.881581 218.339833 
L 173.905666 216.76709 
L 174.071972 216.76709 
L 174.071972 215.718594 
L 174.194315 215.718594 
L 174.194315 214.670099 
L 174.414389 214.670099 
L 174.414389 214.145851 
L 175.069232 214.145851 
L 175.069232 213.621604 
L 175.656621 213.621604 
L 175.722934 212.573108 
L 176.215867 212.573108 
L 176.215867 211.524613 
L 176.446558 211.524613 
L 176.446558 211.000365 
L 177.176272 211.000365 
L 177.176272 210.476117 
L 177.683064 210.476117 
L 177.683064 209.95187 
L 178.291137 209.95187 
L 178.291137 209.427622 
L 178.415243 209.427622 
L 178.415243 208.903374 
L 178.5395 208.903374 
L 178.5395 208.379126 
L 178.666308 208.379126 
L 178.762088 205.23364 
L 178.853932 205.23364 
L 178.963569 203.660897 
L 178.979802 203.660897 
L 179.078898 202.088154 
L 179.197797 202.088154 
L 179.261762 200.515411 
L 179.364209 200.515411 
L 179.410425 198.41842 
L 179.613614 198.41842 
L 179.613614 197.894172 
L 179.8511 197.894172 
L 179.8511 196.845677 
L 180.175135 196.845677 
L 180.269786 195.272933 
L 180.369532 195.272933 
L 180.369532 194.748686 
L 180.490388 194.748686 
L 180.490388 194.224438 
L 180.635592 194.224438 
L 180.635592 193.175943 
L 180.821539 193.175943 
L 180.821539 192.651695 
L 181.001289 192.651695 
L 181.001289 192.127447 
L 181.229371 192.127447 
L 181.229371 191.603199 
L 181.83513 191.603199 
L 181.83513 191.078952 
L 182.173893 191.078952 
L 182.267116 190.030456 
L 182.296685 190.030456 
L 182.296685 189.506209 
L 182.597278 189.506209 
L 182.702944 187.409218 
L 183.1593 187.409218 
L 183.1593 186.88497 
L 183.279222 186.88497 
L 183.332836 185.312227 
L 183.473694 185.312227 
L 183.473694 184.787979 
L 183.810282 184.787979 
L 183.810282 184.263731 
L 184.658528 184.263731 
L 184.680621 182.690988 
L 184.913644 182.690988 
L 184.913644 182.16674 
L 185.514785 182.16674 
L 185.592268 180.593997 
L 185.825819 180.593997 
L 185.825819 178.497006 
L 186.117718 178.497006 
L 186.117718 177.972759 
L 186.341421 177.972759 
L 186.341421 177.448511 
L 186.557682 177.448511 
L 186.557682 176.924263 
L 186.772546 176.924263 
L 186.772546 175.875768 
L 187.277392 175.875768 
L 187.277392 175.35152 
L 187.428998 175.35152 
L 187.527343 173.254529 
L 187.711992 173.254529 
L 187.711992 172.730281 
L 187.898904 172.730281 
L 187.901921 171.681786 
L 188.088979 171.681786 
L 188.189763 169.060547 
L 188.289567 169.060547 
L 188.289567 168.5363 
L 188.4532 168.5363 
L 188.524739 166.439309 
L 188.58342 166.439309 
L 188.6095 164.866566 
L 188.778352 164.866566 
L 188.778352 164.342318 
L 188.925672 164.342318 
L 188.925672 163.81807 
L 189.038071 163.81807 
L 189.143938 159.099841 
L 189.325616 159.099841 
L 189.366673 158.051345 
L 189.497512 158.051345 
L 189.510706 154.905859 
L 189.647546 154.905859 
L 189.663893 152.808868 
L 189.770138 152.808868 
L 189.770138 152.28462 
L 189.888099 152.28462 
L 189.888099 151.760373 
L 190.026423 151.760373 
L 190.11437 149.139134 
L 190.143174 149.139134 
L 190.143174 148.614886 
L 190.534367 148.614886 
L 190.612889 147.566391 
L 190.693448 147.566391 
L 190.715322 146.517896 
L 190.827501 146.517896 
L 190.827501 144.945152 
L 191.160045 144.945152 
L 191.194791 143.896657 
L 191.571142 143.896657 
L 191.571142 143.372409 
L 191.710961 143.372409 
L 191.755226 141.799666 
L 191.936406 141.799666 
L 191.936406 141.275418 
L 192.077084 141.275418 
L 192.16427 140.226923 
L 192.262726 140.226923 
L 192.352704 138.129932 
L 192.549229 138.129932 
L 192.571472 133.411703 
L 192.693678 133.411703 
L 192.693678 132.887455 
L 192.864223 132.887455 
L 192.972396 131.314712 
L 192.981379 131.314712 
L 193.07751 128.693473 
L 193.152369 128.693473 
L 193.163481 127.644978 
L 193.281122 127.644978 
L 193.363448 125.547987 
L 193.420741 125.547987 
L 193.51924 122.926748 
L 193.577752 122.926748 
L 193.602169 121.354005 
L 193.691883 121.354005 
L 193.785274 118.732766 
L 193.934898 118.732766 
L 193.934898 117.684271 
L 194.176201 117.684271 
L 194.176201 117.160023 
L 194.341018 117.160023 
L 194.341018 116.635776 
L 194.463396 116.635776 
L 194.463396 116.111528 
L 194.620189 116.111528 
L 194.679009 115.063032 
L 194.773136 115.063032 
L 194.796453 111.917546 
L 194.88887 111.917546 
L 194.902529 109.820555 
L 195.065995 109.820555 
L 195.175696 107.199317 
L 195.177672 107.199317 
L 195.235537 106.150821 
L 195.308381 106.150821 
L 195.308381 105.626573 
L 195.464422 105.626573 
L 195.548943 103.529583 
L 195.629072 103.529583 
L 195.694007 101.956839 
L 195.761754 101.956839 
L 195.761754 100.384096 
L 196.146793 100.384096 
L 196.146793 99.335601 
L 196.281236 99.335601 
L 196.281236 98.811353 
L 196.454309 98.811353 
L 196.531067 96.714362 
L 196.589048 96.714362 
L 196.692731 95.665867 
L 196.89216 95.665867 
L 196.89216 95.141619 
L 197.033932 95.141619 
L 197.033932 94.617371 
L 197.209577 94.617371 
L 197.209577 94.093124 
L 197.359443 94.093124 
L 197.463785 91.471885 
L 197.504333 91.471885 
L 197.560504 90.42339 
L 197.810855 90.42339 
L 197.810855 89.374894 
L 197.988734 89.374894 
L 197.988734 88.850646 
L 198.225468 88.850646 
L 198.225468 88.326399 
L 198.351005 88.326399 
L 198.351005 87.802151 
L 198.494866 87.802151 
L 198.505073 86.229408 
L 198.679707 86.229408 
L 198.679707 85.70516 
L 199.245897 85.70516 
L 199.287435 84.656665 
L 199.777507 84.656665 
L 199.777507 83.608169 
L 200.222295 83.608169 
L 200.271535 81.511178 
L 200.353322 81.511178 
L 200.353322 80.986931 
L 200.621538 80.986931 
L 200.719058 79.414188 
L 200.840682 79.414188 
L 200.840682 78.88994 
L 201.003742 78.88994 
L 201.003742 78.365692 
L 201.154759 78.365692 
L 201.154759 77.317197 
L 201.706568 77.317197 
L 201.787649 76.268701 
L 202.433165 76.268701 
L 202.445425 74.695958 
L 202.709484 74.695958 
L 202.709484 74.17171 
L 203.075377 74.17171 
L 203.119503 72.598967 
L 203.218723 72.598967 
L 203.237032 71.026224 
L 203.414973 71.026224 
L 203.467835 69.453481 
L 203.658945 69.453481 
L 203.694778 68.404985 
L 203.804783 68.404985 
L 203.876884 66.832242 
L 203.978709 66.832242 
L 203.978709 66.307995 
L 204.495838 66.307995 
L 204.495838 65.783747 
L 204.684778 65.783747 
L 204.715966 64.735251 
L 204.87601 64.735251 
L 204.87601 63.686756 
L 205.198315 63.686756 
L 205.297964 61.589765 
L 205.675867 61.589765 
L 205.675867 61.065517 
L 205.805194 61.065517 
L 205.91445 58.444279 
L 205.970365 58.444279 
L 206.067047 57.395783 
L 206.174379 57.395783 
L 206.213035 56.347288 
L 206.430367 56.347288 
L 206.539542 54.774545 
L 206.609797 54.774545 
L 206.609797 53.201802 
L 206.854754 53.201802 
L 206.903902 52.153306 
L 207.027847 52.153306 
L 207.027847 51.629058 
L 207.293345 51.629058 
L 207.293345 51.104811 
L 207.509157 51.104811 
L 207.530423 50.056315 
L 207.893068 50.056315 
L 207.893068 48.483572 
L 208.014226 48.483572 
L 208.014226 47.959324 
L 208.147548 47.959324 
L 208.242862 46.910829 
L 208.4154 46.910829 
L 208.4154 45.862334 
L 208.664482 45.862334 
L 208.664482 45.338086 
L 208.838215 45.338086 
L 208.838215 44.28959 
L 209.151896 44.28959 
L 209.151896 43.765343 
L 209.570419 43.765343 
L 209.570419 43.241095 
L 209.773187 43.241095 
L 209.773187 42.192599 
L 210.720285 42.192599 
L 210.720285 41.668352 
L 215.168501 41.668352 
L 215.168501 41.144104 
L 216.027233 41.144104 
L 216.027233 40.619856 
L 216.553242 40.619856 
L 216.553242 40.095609 
L 216.929663 40.095609 
L 217.032666 39.047113 
L 217.088429 39.047113 
L 217.158613 37.998618 
L 217.280549 37.998618 
L 217.376661 36.950122 
L 217.730019 36.950122 
L 217.794421 35.901627 
L 217.87674 35.901627 
L 217.966855 34.853131 
L 218.49598 34.853131 
L 218.505308 33.804636 
L 218.720051 33.804636 
L 218.720051 33.280388 
L 219.04509 33.280388 
L 219.04509 32.756141 
L 219.21879 32.756141 
L 219.21879 32.231893 
L 219.608964 32.231893 
L 219.608964 31.707645 
L 219.851521 31.707645 
L 219.851521 31.183397 
L 221.583037 31.183397 
L 221.583037 30.65915 
L 221.791237 30.65915 
L 221.791237 30.134902 
L 222.37989 30.134902 
L 222.37989 29.610654 
L 222.655191 29.610654 
L 222.655191 29.086407 
L 224.650388 29.086407 
L 224.650388 28.562159 
L 227.200532 28.562159 
L 227.200532 28.037911 
L 229.129591 28.037911 
L 229.129591 27.513663 
L 333.168 27.513663 
L 333.168 27.513663 
" style="fill:none;stroke:#000080;stroke-linecap:square;stroke-width:1.5;"/>
   </g>
   <g id="line2d_39">
    <defs>
     <path d="M 0 6 
C 1.591219 6 3.117479 5.367802 4.242641 4.242641 
C 5.367802 3.117479 6 1.591219 6 0 
C 6 -1.591219 5.367802 -3.117479 4.242641 -4.242641 
C 3.117479 -5.367802 1.591219 -6 0 -6 
C -1.591219 -6 -3.117479 -5.367802 -4.242641 -4.242641 
C -5.367802 -3.117479 -6 -1.591219 -6 0 
C -6 1.591219 -5.367802 3.117479 -4.242641 4.242641 
C -3.117479 5.367802 -1.591219 6 0 6 
z
" id="m8b40a8cd4e" style="stroke:#000080;stroke-width:1.5;"/>
    </defs>
    <g>
     <use style="fill-opacity:0;stroke:#000080;stroke-width:1.5;" x="101.786014" xlink:href="#m8b40a8cd4e" y="266.046375"/>
     <use style="fill-opacity:0;stroke:#000080;stroke-width:1.5;" x="179.197797" xlink:href="#m8b40a8cd4e" y="202.088154"/>
     <use style="fill-opacity:0;stroke:#000080;stroke-width:1.5;" x="197.560504" xlink:href="#m8b40a8cd4e" y="90.42339"/>
     <use style="fill-opacity:0;stroke:#000080;stroke-width:1.5;" x="229.129591" xlink:href="#m8b40a8cd4e" y="27.513663"/>
     <use style="fill-opacity:0;stroke:#000080;stroke-width:1.5;" x="229.129591" xlink:href="#m8b40a8cd4e" y="27.513663"/>
     <use style="fill-opacity:0;stroke:#000080;stroke-width:1.5;" x="333.168" xlink:href="#m8b40a8cd4e" y="27.513663"/>
    </g>
   </g>
   <g id="line2d_40">
    <path style="fill:none;stroke:#000080;stroke-linecap:square;stroke-width:1.5;"/>
    <g/>
   </g>
   <g id="line2d_41">
    <path clip-path="url(#p2180fec2b0)" d="M 214.433487 41.668352 
" style="fill:none;stroke:#000080;stroke-linecap:square;stroke-width:1.5;"/>
    <defs>
     <path d="M -12 12 
L 12 -12 
M -12 -12 
L 12 12 
" id="m72176e0edd" style="stroke:#000080;"/>
    </defs>
    <g clip-path="url(#p2180fec2b0)">
     <use style="fill:#000080;stroke:#000080;" x="214.433487" xlink:href="#m72176e0edd" y="41.668352"/>
    </g>
   </g>
   <g id="line2d_42">
    <defs>
     <path d="M 0 1.5 
C 0.397805 1.5 0.77937 1.341951 1.06066 1.06066 
C 1.341951 0.77937 1.5 0.397805 1.5 0 
C 1.5 -0.397805 1.341951 -0.77937 1.06066 -1.06066 
C 0.77937 -1.341951 0.397805 -1.5 0 -1.5 
C -0.397805 -1.5 -0.77937 -1.341951 -1.06066 -1.06066 
C -1.341951 -0.77937 -1.5 -0.397805 -1.5 0 
C -1.5 0.397805 -1.341951 0.77937 -1.06066 1.06066 
C -0.77937 1.341951 -0.397805 1.5 0 1.5 
z
" id="m441ef7028a" style="stroke:#ff00ff;"/>
    </defs>
    <g>
     <use style="fill:#ff00ff;stroke:#ff00ff;" x="251.099009" xlink:href="#m441ef7028a" y="27.513663"/>
     <use style="fill:#ff00ff;stroke:#ff00ff;" x="251.099009" xlink:href="#m441ef7028a" y="27.513663"/>
    </g>
   </g>
   <g id="line2d_43">
    <path d="M 11.596853 294.88 
L 11.596853 293.307257 
L 16.541714 293.307257 
L 16.541714 291.210266 
L 23.511104 291.210266 
L 23.511104 290.161771 
L 26.160744 290.161771 
L 26.160744 289.637523 
L 30.480495 289.637523 
L 30.480495 289.113275 
L 32.291498 289.113275 
L 32.291498 288.06478 
L 33.929749 288.06478 
L 33.929749 287.540532 
L 45.844 287.540532 
L 45.844 287.016284 
L 52.284468 287.016284 
L 52.284468 286.492036 
L 53.326522 286.492036 
L 53.326522 285.967789 
L 62.506669 285.967789 
L 62.506669 285.443541 
L 81.586754 285.443541 
L 81.586754 284.919293 
L 88.160986 284.919293 
L 88.22748 283.34655 
L 89.931969 283.34655 
L 89.931969 282.298055 
L 93.549767 282.298055 
L 93.549767 281.249559 
L 94.906853 281.249559 
L 94.906853 280.725312 
L 97.218941 280.725312 
L 97.218941 279.676816 
L 105.439655 279.676816 
L 105.439655 279.152568 
L 106.933229 279.152568 
L 106.933229 278.628321 
L 108.471624 278.628321 
L 108.471624 277.579825 
L 113.179822 277.579825 
L 113.179822 276.007082 
L 114.596245 276.007082 
L 114.596245 275.482834 
L 115.58349 275.482834 
L 115.58349 274.958587 
L 117.739642 274.958587 
L 117.834738 271.8131 
L 125.734717 271.8131 
L 125.734717 271.288853 
L 127.204727 271.288853 
L 127.204727 270.240357 
L 127.692572 270.240357 
L 127.692572 269.716109 
L 129.731199 269.716109 
L 129.731199 269.191862 
L 134.399433 269.191862 
L 134.399433 268.667614 
L 135.638003 268.667614 
L 135.638003 267.619119 
L 137.081987 267.619119 
L 137.13992 266.570623 
L 139.516401 266.570623 
L 139.516401 266.046375 
L 139.739914 266.046375 
L 139.739914 265.522128 
L 139.921248 265.522128 
L 139.921248 264.99788 
L 140.3392 264.99788 
L 140.425407 263.949385 
L 141.409474 263.949385 
L 141.409474 263.425137 
L 143.813752 263.425137 
L 143.813752 262.900889 
L 145.332007 262.900889 
L 145.332007 262.376641 
L 147.085218 262.376641 
L 147.085218 261.852394 
L 147.289374 261.852394 
L 147.289374 261.328146 
L 147.474234 261.328146 
L 147.495356 259.231155 
L 147.920663 259.231155 
L 147.920663 258.706907 
L 149.834322 258.706907 
L 149.871128 257.658412 
L 151.236485 257.658412 
L 151.326243 256.609917 
L 151.787879 256.609917 
L 151.787879 255.561421 
L 152.187708 255.561421 
L 152.187708 255.037173 
L 152.866554 255.037173 
L 152.900496 253.46443 
L 153.614496 253.46443 
L 153.614496 252.940182 
L 153.744122 252.940182 
L 153.744122 251.891687 
L 155.041086 251.891687 
L 155.125251 250.843192 
L 155.276255 250.843192 
L 155.276255 250.318944 
L 155.508249 250.318944 
L 155.528102 248.746201 
L 156.154157 248.746201 
L 156.219085 247.697705 
L 156.412409 247.697705 
L 156.412409 247.173458 
L 157.322695 247.173458 
L 157.322695 246.64921 
L 158.201913 246.64921 
L 158.201913 245.600714 
L 158.685314 245.600714 
L 158.773157 244.027971 
L 159.362047 244.027971 
L 159.362047 243.503724 
L 159.499085 243.503724 
L 159.521119 242.455228 
L 159.865775 242.455228 
L 159.865775 241.93098 
L 160.244926 241.93098 
L 160.287099 239.83399 
L 160.815444 239.83399 
L 160.921125 238.261246 
L 161.240967 238.261246 
L 161.240967 237.212751 
L 161.696911 237.212751 
L 161.778944 235.11576 
L 161.834027 235.11576 
L 161.834027 234.591512 
L 162.044464 234.591512 
L 162.044464 234.067265 
L 162.252355 234.067265 
L 162.252355 233.543017 
L 162.95521 233.543017 
L 162.95521 233.018769 
L 163.296146 233.018769 
L 163.398544 231.970274 
L 163.478693 231.970274 
L 163.478693 231.446026 
L 163.942169 231.446026 
L 164.044831 228.824787 
L 164.490343 228.824787 
L 164.55462 227.252044 
L 164.947556 227.252044 
L 164.947556 226.203549 
L 166.147361 226.203549 
L 166.147361 225.679301 
L 167.892126 225.679301 
L 167.892126 225.155053 
L 168.043518 225.155053 
L 168.043518 224.630806 
L 168.757833 224.630806 
L 168.757833 224.106558 
L 169.081928 224.106558 
L 169.081928 223.058063 
L 169.280387 223.058063 
L 169.280387 222.533815 
L 169.410055 222.533815 
L 169.410055 222.009567 
L 170.680836 222.009567 
L 170.680836 221.485319 
L 171.581031 221.485319 
L 171.581031 220.961072 
L 171.951833 220.961072 
L 172.050254 219.388328 
L 172.74039 219.388328 
L 172.74039 218.339833 
L 172.890865 218.339833 
L 172.890865 217.815585 
L 173.21725 217.815585 
L 173.21725 217.291338 
L 173.568146 217.291338 
L 173.568146 216.76709 
L 174.287836 216.76709 
L 174.287836 215.718594 
L 174.701627 215.718594 
L 174.701627 214.670099 
L 174.827333 214.670099 
L 174.827333 213.621604 
L 175.185966 213.621604 
L 175.185966 212.573108 
L 175.690628 212.573108 
L 175.690628 212.04886 
L 176.135484 212.04886 
L 176.135484 211.524613 
L 176.863718 211.524613 
L 176.863718 211.000365 
L 176.997391 211.000365 
L 176.997391 210.476117 
L 177.389316 210.476117 
L 177.389316 209.427622 
L 177.853541 209.427622 
L 177.853541 208.903374 
L 178.140236 208.903374 
L 178.151591 207.854879 
L 178.633573 207.854879 
L 178.633573 207.330631 
L 178.803462 207.330631 
L 178.812339 206.282136 
L 179.038519 206.282136 
L 179.14565 204.185145 
L 179.63673 204.185145 
L 179.63673 203.136649 
L 180.418101 203.136649 
L 180.511428 199.991163 
L 180.541087 199.991163 
L 180.551579 198.41842 
L 180.863093 198.41842 
L 180.953438 197.369924 
L 181.407276 197.369924 
L 181.407276 196.321429 
L 182.201381 196.321429 
L 182.227985 194.748686 
L 182.673793 194.748686 
L 182.673793 194.224438 
L 183.012356 194.224438 
L 183.012356 193.70019 
L 183.431218 193.70019 
L 183.431218 193.175943 
L 183.566358 193.175943 
L 183.623988 191.603199 
L 183.67834 191.603199 
L 183.779373 190.554704 
L 183.907499 190.554704 
L 183.907499 189.506209 
L 184.464307 189.506209 
L 184.464307 188.457713 
L 185.214961 188.457713 
L 185.214961 187.409218 
L 185.381373 187.409218 
L 185.465949 185.312227 
L 185.572008 185.312227 
L 185.572008 184.787979 
L 185.80697 184.787979 
L 185.858926 183.739484 
L 186.051984 183.739484 
L 186.051984 183.215236 
L 186.581158 183.215236 
L 186.657234 181.118245 
L 186.877698 181.118245 
L 186.983908 180.06975 
L 187.797406 180.06975 
L 187.797406 179.021254 
L 188.115422 179.021254 
L 188.115422 178.497006 
L 188.379797 178.497006 
L 188.379797 177.448511 
L 189.049929 177.448511 
L 189.049929 176.400016 
L 189.274434 176.400016 
L 189.274434 174.303025 
L 189.764543 174.303025 
L 189.867119 172.206034 
L 190.036553 172.206034 
L 190.036553 171.157538 
L 190.177217 171.157538 
L 190.206268 169.584795 
L 190.387558 169.584795 
L 190.387558 169.060547 
L 191.927177 169.060547 
L 191.98644 167.487804 
L 192.596595 167.487804 
L 192.62321 166.439309 
L 192.731234 166.439309 
L 192.731234 165.915061 
L 193.106214 165.915061 
L 193.106214 165.390813 
L 193.251971 165.390813 
L 193.251971 164.866566 
L 193.487729 164.866566 
L 193.487729 164.342318 
L 193.626696 164.342318 
L 193.626696 163.293823 
L 193.754391 163.293823 
L 193.754391 162.245327 
L 193.87475 162.245327 
L 193.87475 161.721079 
L 194.262837 161.721079 
L 194.371418 160.672584 
L 194.420911 160.672584 
L 194.420911 159.624089 
L 194.669106 159.624089 
L 194.669106 159.099841 
L 194.92166 159.099841 
L 194.92166 158.051345 
L 195.350035 158.051345 
L 195.350035 157.527098 
L 195.537078 157.527098 
L 195.537078 157.00285 
L 195.930152 157.00285 
L 195.930152 156.478602 
L 196.180129 156.478602 
L 196.268136 155.430107 
L 196.599723 155.430107 
L 196.599723 154.905859 
L 196.934672 154.905859 
L 196.934672 154.381611 
L 197.298768 154.381611 
L 197.298768 153.333116 
L 197.849466 153.333116 
L 197.916433 152.28462 
L 198.072647 152.28462 
L 198.154269 151.236125 
L 198.230763 151.236125 
L 198.230763 150.711877 
L 198.560236 150.711877 
L 198.560236 149.663382 
L 199.029321 149.663382 
L 199.129787 148.614886 
L 199.522814 148.614886 
L 199.531304 147.566391 
L 200.362386 147.566391 
L 200.471551 145.993648 
L 200.749664 145.993648 
L 200.852617 144.420905 
L 201.062961 144.420905 
L 201.062961 143.896657 
L 201.395164 143.896657 
L 201.395164 142.848162 
L 201.561615 142.848162 
L 201.561615 142.323914 
L 202.101862 142.323914 
L 202.153472 141.275418 
L 202.501953 141.275418 
L 202.501953 140.751171 
L 202.627524 140.751171 
L 202.627524 140.226923 
L 202.752862 140.226923 
L 202.752862 139.178427 
L 203.232003 139.178427 
L 203.232003 138.129932 
L 203.363584 138.129932 
L 203.363584 137.605684 
L 203.676549 137.605684 
L 203.692932 136.032941 
L 203.840633 136.032941 
L 203.897122 133.93595 
L 204.46325 133.93595 
L 204.560219 132.363207 
L 204.650496 132.363207 
L 204.650496 131.838959 
L 204.878408 131.838959 
L 204.878408 130.790464 
L 205.126244 130.790464 
L 205.191254 129.741969 
L 205.340609 129.741969 
L 205.395148 128.693473 
L 205.467116 128.693473 
L 205.467116 127.644978 
L 205.831439 127.644978 
L 205.831439 127.12073 
L 206.244409 127.12073 
L 206.244409 124.499491 
L 206.495819 124.499491 
L 206.495819 123.975244 
L 207.084874 123.975244 
L 207.084874 123.450996 
L 208.167235 123.450996 
L 208.167235 122.926748 
L 208.384941 122.926748 
L 208.384941 122.4025 
L 208.539484 122.4025 
L 208.539484 121.878253 
L 208.924043 121.878253 
L 208.924043 120.829757 
L 209.205682 120.829757 
L 209.268646 119.781262 
L 210.192211 119.781262 
L 210.192211 119.257014 
L 210.315619 119.257014 
L 210.315619 118.732766 
L 211.568133 118.732766 
L 211.568133 118.208519 
L 211.729066 118.208519 
L 211.799632 117.160023 
L 215.22071 117.160023 
L 215.23019 116.111528 
L 215.352213 116.111528 
L 215.352213 115.58728 
L 215.518942 115.58728 
L 215.552433 114.014537 
L 215.730435 114.014537 
L 215.826874 111.393298 
L 215.95836 111.393298 
L 216.032559 109.820555 
L 216.264073 109.820555 
L 216.353615 107.199317 
L 216.466188 107.199317 
L 216.466188 106.675069 
L 216.65848 106.675069 
L 216.728784 104.05383 
L 216.88516 104.05383 
L 216.88516 103.005335 
L 217.010413 103.005335 
L 217.103482 101.432592 
L 217.317576 101.432592 
L 217.37963 100.384096 
L 217.603023 100.384096 
L 217.659427 98.287105 
L 217.720403 98.287105 
L 217.720403 97.23861 
L 218.032051 97.23861 
L 218.132346 94.617371 
L 218.225512 94.617371 
L 218.225512 94.093124 
L 218.554099 94.093124 
L 218.554099 93.568876 
L 218.783091 93.568876 
L 218.831799 92.520381 
L 219.143549 92.520381 
L 219.215276 89.899142 
L 219.537875 89.899142 
L 219.537875 89.374894 
L 219.832322 89.374894 
L 219.832322 88.850646 
L 220.067157 88.850646 
L 220.157514 87.277903 
L 220.316229 87.277903 
L 220.345409 85.70516 
L 220.463238 85.70516 
L 220.569774 84.656665 
L 220.588828 84.656665 
L 220.634603 83.608169 
L 220.713358 83.608169 
L 220.713358 82.559674 
L 220.936358 82.559674 
L 220.943274 80.986931 
L 221.089356 80.986931 
L 221.167512 79.938435 
L 221.264673 79.938435 
L 221.360513 78.365692 
L 221.396917 78.365692 
L 221.438849 76.268701 
L 221.859049 76.268701 
L 221.859049 75.744454 
L 222.41574 75.744454 
L 222.41574 75.220206 
L 222.736154 75.220206 
L 222.832904 73.647463 
L 223.321468 73.647463 
L 223.321468 73.123215 
L 223.958411 73.123215 
L 223.958411 72.598967 
L 224.974536 72.598967 
L 224.974536 71.550472 
L 225.716232 71.550472 
L 225.716232 71.026224 
L 226.745709 71.026224 
L 226.745709 70.501976 
L 226.913612 70.501976 
L 227.008813 67.35649 
L 227.062401 67.35649 
L 227.126935 65.783747 
L 227.341374 65.783747 
L 227.447488 64.211004 
L 227.523882 64.211004 
L 227.604552 63.162508 
L 227.864056 63.162508 
L 227.944911 61.065517 
L 228.008952 61.065517 
L 228.008952 60.54127 
L 228.159289 60.54127 
L 228.240887 59.492774 
L 228.30976 59.492774 
L 228.30976 58.968526 
L 228.571202 58.968526 
L 228.628948 57.920031 
L 228.751822 57.920031 
L 228.819054 55.82304 
L 228.874027 55.82304 
L 228.880833 54.774545 
L 229.059254 54.774545 
L 229.059254 54.250297 
L 229.34384 54.250297 
L 229.34384 53.726049 
L 229.473032 53.726049 
L 229.473032 53.201802 
L 229.688145 53.201802 
L 229.775016 52.153306 
L 229.978007 52.153306 
L 229.978007 51.629058 
L 230.157744 51.629058 
L 230.157744 51.104811 
L 230.995465 51.104811 
L 230.995465 50.580563 
L 231.953768 50.580563 
L 231.953768 50.056315 
L 232.19373 50.056315 
L 232.19373 49.532068 
L 232.461865 49.532068 
L 232.461865 49.00782 
L 232.89861 49.00782 
L 232.89861 47.959324 
L 233.751205 47.959324 
L 233.751205 47.435077 
L 233.879551 47.435077 
L 233.906174 46.386581 
L 234.11286 46.386581 
L 234.196882 45.338086 
L 234.275173 45.338086 
L 234.382199 42.716847 
L 234.50643 42.716847 
L 234.50643 42.192599 
L 234.661668 42.192599 
L 234.661668 41.668352 
L 234.976092 41.668352 
L 235.001408 40.619856 
L 235.371297 40.619856 
L 235.443871 39.047113 
L 235.738085 39.047113 
L 235.738085 38.522865 
L 236.742236 38.522865 
L 236.742236 37.998618 
L 237.534639 37.998618 
L 237.534639 37.47437 
L 238.484739 37.47437 
L 238.507725 36.425875 
L 239.005082 36.425875 
L 239.045169 34.853131 
L 239.5497 34.853131 
L 239.568687 33.804636 
L 239.895433 33.804636 
L 239.895433 33.280388 
L 240.298317 33.280388 
L 240.298317 32.756141 
L 240.426868 32.756141 
L 240.426868 32.231893 
L 242.339615 32.231893 
L 242.339615 31.707645 
L 242.662223 31.707645 
L 242.744334 29.610654 
L 242.948365 29.610654 
L 242.948365 29.086407 
L 244.1788 29.086407 
L 244.1788 28.562159 
L 246.780589 28.562159 
L 246.780589 28.037911 
L 251.099009 28.037911 
L 251.099009 27.513663 
L 333.168 27.513663 
L 333.168 27.513663 
" style="fill:none;stroke:#ff00ff;stroke-linecap:square;stroke-width:1.5;"/>
   </g>
   <g id="line2d_44">
    <defs>
     <path d="M -0 8.485281 
L 5.091169 0 
L 0 -8.485281 
L -5.091169 -0 
z
" id="m16aa1ab759" style="stroke:#ff00ff;stroke-linejoin:miter;stroke-width:1.5;"/>
    </defs>
    <g>
     <use style="fill-opacity:0;stroke:#ff00ff;stroke-linejoin:miter;stroke-width:1.5;" x="97.218941" xlink:href="#m16aa1ab759" y="279.676816"/>
     <use style="fill-opacity:0;stroke:#ff00ff;stroke-linejoin:miter;stroke-width:1.5;" x="169.410055" xlink:href="#m16aa1ab759" y="222.533815"/>
     <use style="fill-opacity:0;stroke:#ff00ff;stroke-linejoin:miter;stroke-width:1.5;" x="219.215276" xlink:href="#m16aa1ab759" y="89.899142"/>
     <use style="fill-opacity:0;stroke:#ff00ff;stroke-linejoin:miter;stroke-width:1.5;" x="251.099009" xlink:href="#m16aa1ab759" y="28.037911"/>
     <use style="fill-opacity:0;stroke:#ff00ff;stroke-linejoin:miter;stroke-width:1.5;" x="251.099009" xlink:href="#m16aa1ab759" y="27.513663"/>
     <use style="fill-opacity:0;stroke:#ff00ff;stroke-linejoin:miter;stroke-width:1.5;" x="333.168" xlink:href="#m16aa1ab759" y="27.513663"/>
    </g>
   </g>
   <g id="line2d_45">
    <path style="fill:none;stroke:#ff00ff;stroke-linecap:square;stroke-width:1.5;"/>
    <g/>
   </g>
   <g id="line2d_46">
    <path clip-path="url(#p2180fec2b0)" d="M 214.433186 117.160023 
" style="fill:none;stroke:#ff00ff;stroke-linecap:square;stroke-width:1.5;"/>
    <defs>
     <path d="M -12 12 
L 12 -12 
M -12 -12 
L 12 12 
" id="m7595ef4d88" style="stroke:#ff00ff;"/>
    </defs>
    <g clip-path="url(#p2180fec2b0)">
     <use style="fill:#ff00ff;stroke:#ff00ff;" x="214.433186" xlink:href="#m7595ef4d88" y="117.160023"/>
    </g>
   </g>
   <g id="line2d_47">
    <defs>
     <path d="M 0 1.5 
C 0.397805 1.5 0.77937 1.341951 1.06066 1.06066 
C 1.341951 0.77937 1.5 0.397805 1.5 0 
C 1.5 -0.397805 1.341951 -0.77937 1.06066 -1.06066 
C 0.77937 -1.341951 0.397805 -1.5 0 -1.5 
C -0.397805 -1.5 -0.77937 -1.341951 -1.06066 -1.06066 
C -1.341951 -0.77937 -1.5 -0.397805 -1.5 0 
C -1.5 0.397805 -1.341951 0.77937 -1.06066 1.06066 
C -0.77937 1.341951 -0.397805 1.5 0 1.5 
z
" id="mbf11b892f1" style="stroke:#ffa500;"/>
    </defs>
    <g>
     <use style="fill:#ffa500;stroke:#ffa500;" x="215.623751" xlink:href="#mbf11b892f1" y="273.910091"/>
     <use style="fill:#ffa500;stroke:#ffa500;" x="215.623751" xlink:href="#mbf11b892f1" y="273.910091"/>
    </g>
   </g>
   <g id="line2d_48">
    <path d="M -1 294.355752 
L 4.627463 294.355752 
L 4.627463 292.258761 
L 11.596853 292.258761 
L 11.596853 290.161771 
L 20.377246 290.161771 
L 20.377246 289.113275 
L 32.291498 289.113275 
L 32.291498 288.589027 
L 40.370217 288.589027 
L 40.370217 287.540532 
L 45.044385 287.540532 
L 45.044385 287.016284 
L 46.608065 287.016284 
L 46.608065 285.967789 
L 57.363093 285.967789 
L 57.363093 285.443541 
L 69.476059 285.443541 
L 69.476059 284.919293 
L 75.978157 284.919293 
L 75.978157 284.395046 
L 106.038622 284.395046 
L 106.038622 283.870798 
L 109.637066 283.870798 
L 109.637066 283.34655 
L 117.329507 283.34655 
L 117.329507 282.298055 
L 117.366092 282.298055 
L 117.366092 281.773807 
L 124.621395 281.773807 
L 124.621395 281.249559 
L 131.896885 281.249559 
L 131.896885 280.725312 
L 142.280305 280.725312 
L 142.280305 279.676816 
L 149.100377 279.676816 
L 149.100377 279.152568 
L 156.744657 279.152568 
L 156.744657 278.628321 
L 174.898204 278.628321 
L 174.898204 277.579825 
L 176.904578 277.579825 
L 176.904578 277.055578 
L 185.297549 277.055578 
L 185.297549 276.007082 
L 197.649723 276.007082 
L 197.649723 275.482834 
L 212.173538 275.482834 
L 212.173538 274.958587 
L 215.623751 274.958587 
L 215.623751 273.910091 
L 333.168 273.910091 
" style="fill:none;stroke:#ffa500;stroke-linecap:square;stroke-width:1.5;"/>
   </g>
   <g id="line2d_49">
    <defs>
     <path d="M 0 -6 
L -1.347084 -1.854102 
L -5.706339 -1.854102 
L -2.179628 0.708204 
L -3.526712 4.854102 
L -0 2.291796 
L 3.526712 4.854102 
L 2.179628 0.708204 
L 5.706339 -1.854102 
L 1.347084 -1.854102 
z
" id="m6937a8b248" style="stroke:#ffa500;stroke-linejoin:bevel;stroke-width:1.5;"/>
    </defs>
    <g>
     <use style="fill-opacity:0;stroke:#ffa500;stroke-linejoin:bevel;stroke-width:1.5;" x="75.978157" xlink:href="#m6937a8b248" y="284.395046"/>
     <use style="fill-opacity:0;stroke:#ffa500;stroke-linejoin:bevel;stroke-width:1.5;" x="176.904578" xlink:href="#m6937a8b248" y="277.055578"/>
     <use style="fill-opacity:0;stroke:#ffa500;stroke-linejoin:bevel;stroke-width:1.5;" x="215.623751" xlink:href="#m6937a8b248" y="274.958587"/>
     <use style="fill-opacity:0;stroke:#ffa500;stroke-linejoin:bevel;stroke-width:1.5;" x="215.623751" xlink:href="#m6937a8b248" y="273.910091"/>
     <use style="fill-opacity:0;stroke:#ffa500;stroke-linejoin:bevel;stroke-width:1.5;" x="333.168" xlink:href="#m6937a8b248" y="273.910091"/>
    </g>
   </g>
   <g id="line2d_50">
    <path style="fill:none;stroke:#ffa500;stroke-linecap:square;stroke-width:1.5;"/>
    <g/>
   </g>
   <g id="line2d_51">
    <path clip-path="url(#p2180fec2b0)" d="M 214.433143 274.958587 
" style="fill:none;stroke:#ffa500;stroke-linecap:square;stroke-width:1.5;"/>
    <defs>
     <path d="M -12 12 
L 12 -12 
M -12 -12 
L 12 12 
" id="me691ce5695" style="stroke:#ffa500;"/>
    </defs>
    <g clip-path="url(#p2180fec2b0)">
     <use style="fill:#ffa500;stroke:#ffa500;" x="214.433143" xlink:href="#me691ce5695" y="274.958587"/>
    </g>
   </g>
   <g id="line2d_52">
    <defs>
     <path d="M 0 1.5 
C 0.397805 1.5 0.77937 1.341951 1.06066 1.06066 
C 1.341951 0.77937 1.5 0.397805 1.5 0 
C 1.5 -0.397805 1.341951 -0.77937 1.06066 -1.06066 
C 0.77937 -1.341951 0.397805 -1.5 0 -1.5 
C -0.397805 -1.5 -0.77937 -1.341951 -1.06066 -1.06066 
C -1.341951 -0.77937 -1.5 -0.397805 -1.5 0 
C -1.5 0.397805 -1.341951 0.77937 -1.06066 1.06066 
C -0.77937 1.341951 -0.397805 1.5 0 1.5 
z
" id="m805a87c8e7" style="stroke:#6495ed;"/>
    </defs>
    <g>
     <use style="fill:#6495ed;stroke:#6495ed;" x="187.283023" xlink:href="#m805a87c8e7" y="263.425137"/>
     <use style="fill:#6495ed;stroke:#6495ed;" x="187.283023" xlink:href="#m805a87c8e7" y="263.425137"/>
    </g>
   </g>
   <g id="line2d_53">
    <path d="M -1 294.355752 
L 4.627463 294.355752 
L 4.627463 291.734514 
L 16.541714 291.734514 
L 16.541714 289.113275 
L 23.511104 289.113275 
L 23.511104 288.06478 
L 30.480495 288.06478 
L 30.480495 287.540532 
L 38.074995 287.540532 
L 38.074995 286.492036 
L 42.394746 286.492036 
L 42.394746 285.967789 
L 56.12 285.967789 
L 56.12 285.443541 
L 60.629683 285.443541 
L 60.629683 283.870798 
L 64.198719 283.870798 
L 64.198719 283.34655 
L 64.986122 283.34655 
L 64.986122 282.298055 
L 65.739029 282.298055 
L 65.739029 281.773807 
L 68.458683 281.773807 
L 68.458683 281.249559 
L 82.628808 281.249559 
L 82.628808 280.725312 
L 90.753425 280.725312 
L 90.753425 279.152568 
L 92.904808 279.152568 
L 92.904808 278.628321 
L 97.179562 278.628321 
L 97.179562 278.104073 
L 97.336537 278.104073 
L 97.336537 277.579825 
L 103.314258 277.579825 
L 103.314258 277.055578 
L 104.357935 277.055578 
L 104.357935 276.53133 
L 110.089425 276.53133 
L 110.089425 276.007082 
L 112.352061 276.007082 
L 112.352061 275.482834 
L 113.969545 275.482834 
L 113.969545 274.958587 
L 115.691256 274.958587 
L 115.691256 273.910091 
L 116.181069 273.910091 
L 116.181069 272.337348 
L 117.145407 272.337348 
L 117.145407 271.8131 
L 121.067098 271.8131 
L 121.067098 271.288853 
L 122.821039 271.288853 
L 122.821039 270.764605 
L 128.596932 270.764605 
L 128.596932 269.716109 
L 129.371465 269.716109 
L 129.371465 269.191862 
L 143.430327 269.191862 
L 143.430327 268.667614 
L 151.74672 268.667614 
L 151.74672 267.094871 
L 152.963573 267.094871 
L 152.963573 266.570623 
L 164.910043 266.570623 
L 164.910043 266.046375 
L 167.730936 266.046375 
L 167.730936 265.522128 
L 175.867767 265.522128 
L 175.867767 264.99788 
L 177.416363 264.99788 
L 177.416363 264.473632 
L 180.148943 264.473632 
L 180.148943 263.949385 
L 187.283023 263.949385 
L 187.283023 263.425137 
L 333.168 263.425137 
" style="fill:none;stroke:#6495ed;stroke-linecap:square;stroke-width:1.5;"/>
   </g>
   <g id="line2d_54">
    <defs>
     <path d="M -0 6 
L 6 -6 
L -6 -6 
z
" id="m755752923b" style="stroke:#6495ed;stroke-linejoin:miter;stroke-width:1.5;"/>
    </defs>
    <g>
     <use style="fill-opacity:0;stroke:#6495ed;stroke-linejoin:miter;stroke-width:1.5;" x="68.458683" xlink:href="#m755752923b" y="281.249559"/>
     <use style="fill-opacity:0;stroke:#6495ed;stroke-linejoin:miter;stroke-width:1.5;" x="152.963573" xlink:href="#m755752923b" y="267.094871"/>
     <use style="fill-opacity:0;stroke:#6495ed;stroke-linejoin:miter;stroke-width:1.5;" x="187.283023" xlink:href="#m755752923b" y="263.949385"/>
     <use style="fill-opacity:0;stroke:#6495ed;stroke-linejoin:miter;stroke-width:1.5;" x="187.283023" xlink:href="#m755752923b" y="263.425137"/>
     <use style="fill-opacity:0;stroke:#6495ed;stroke-linejoin:miter;stroke-width:1.5;" x="187.283023" xlink:href="#m755752923b" y="263.425137"/>
     <use style="fill-opacity:0;stroke:#6495ed;stroke-linejoin:miter;stroke-width:1.5;" x="333.168" xlink:href="#m755752923b" y="263.425137"/>
    </g>
   </g>
   <g id="line2d_55">
    <path style="fill:none;stroke:#6495ed;stroke-linecap:square;stroke-width:1.5;"/>
    <g/>
   </g>
   <g id="line2d_56">
    <path clip-path="url(#p2180fec2b0)" d="M 135.276571 269.191862 
" style="fill:none;stroke:#6495ed;stroke-linecap:square;stroke-width:1.5;"/>
    <defs>
     <path d="M -12 12 
L 12 -12 
M -12 -12 
L 12 12 
" id="m9d6a3c85c4" style="stroke:#6495ed;"/>
    </defs>
    <g clip-path="url(#p2180fec2b0)">
     <use style="fill:#6495ed;stroke:#6495ed;" x="135.276571" xlink:href="#m9d6a3c85c4" y="269.191862"/>
    </g>
   </g>
   <g id="line2d_57">
    <path d="M 333.168 273.910091 
L 363.64328 289.532673 
" style="fill:none;stroke:#ffa500;stroke-linecap:square;stroke-width:1.5;"/>
    <g>
     <use style="fill-opacity:0;stroke:#ffa500;stroke-linejoin:bevel;stroke-width:1.5;" x="333.168" xlink:href="#m6937a8b248" y="273.910091"/>
     <use style="fill-opacity:0;stroke:#ffa500;stroke-linejoin:bevel;stroke-width:1.5;" x="363.64328" xlink:href="#m6937a8b248" y="289.532673"/>
    </g>
   </g>
   <g id="line2d_58">
    <path d="M 333.168 263.425137 
L 363.64328 203.975446 
" style="fill:none;stroke:#6495ed;stroke-linecap:square;stroke-width:1.5;"/>
    <g>
     <use style="fill-opacity:0;stroke:#6495ed;stroke-linejoin:miter;stroke-width:1.5;" x="333.168" xlink:href="#m755752923b" y="263.425137"/>
     <use style="fill-opacity:0;stroke:#6495ed;stroke-linejoin:miter;stroke-width:1.5;" x="363.64328" xlink:href="#m755752923b" y="203.975446"/>
    </g>
   </g>
   <g id="line2d_59">
    <path d="M 333.168 27.513663 
L 363.64328 118.418218 
" style="fill:none;stroke:#ff00ff;stroke-linecap:square;stroke-width:1.5;"/>
    <g>
     <use style="fill-opacity:0;stroke:#ff00ff;stroke-linejoin:miter;stroke-width:1.5;" x="333.168" xlink:href="#m16aa1ab759" y="27.513663"/>
     <use style="fill-opacity:0;stroke:#ff00ff;stroke-linejoin:miter;stroke-width:1.5;" x="363.64328" xlink:href="#m16aa1ab759" y="118.418218"/>
    </g>
   </g>
   <g id="line2d_60">
    <path d="M 333.168 27.513663 
L 363.64328 32.86099 
" style="fill:none;stroke:#000080;stroke-linecap:square;stroke-width:1.5;"/>
    <g>
     <use style="fill-opacity:0;stroke:#000080;stroke-width:1.5;" x="333.168" xlink:href="#m8b40a8cd4e" y="27.513663"/>
     <use style="fill-opacity:0;stroke:#000080;stroke-width:1.5;" x="363.64328" xlink:href="#m8b40a8cd4e" y="32.86099"/>
    </g>
   </g>
   <g id="line2d_61">
    <path d="M 333.168 294.88 
L 333.168 27.513663 
" style="fill:none;stroke:#000000;stroke-linecap:square;stroke-width:1.5;"/>
   </g>
   <g id="patch_3">
    <path d="M 56.12 294.88 
L 56.12 24.84 
" style="fill:none;stroke:#000000;stroke-linecap:square;stroke-linejoin:miter;stroke-width:0.8;"/>
   </g>
   <g id="patch_4">
    <path d="M 333.168 294.88 
L 333.168 24.84 
" style="fill:none;stroke:#000000;stroke-linecap:square;stroke-linejoin:miter;stroke-width:0.8;"/>
   </g>
   <g id="patch_5">
    <path d="M 56.12 294.88 
L 333.168 294.88 
" style="fill:none;stroke:#000000;stroke-linecap:square;stroke-linejoin:miter;stroke-width:0.8;"/>
   </g>
   <g id="patch_6">
    <path d="M 56.12 24.84 
L 333.168 24.84 
" style="fill:none;stroke:#000000;stroke-linecap:square;stroke-linejoin:miter;stroke-width:0.8;"/>
   </g>
   <g id="text_13">
    <!-- RS -->
    <defs>
     <path d="M 44.390625 34.1875 
Q 47.5625 33.109375 50.5625 29.59375 
Q 53.5625 26.078125 56.59375 19.921875 
L 66.609375 0 
L 56 0 
L 46.6875 18.703125 
Q 43.0625 26.03125 39.671875 28.421875 
Q 36.28125 30.8125 30.421875 30.8125 
L 19.671875 30.8125 
L 19.671875 0 
L 9.8125 0 
L 9.8125 72.90625 
L 32.078125 72.90625 
Q 44.578125 72.90625 50.734375 67.671875 
Q 56.890625 62.453125 56.890625 51.90625 
Q 56.890625 45.015625 53.6875 40.46875 
Q 50.484375 35.9375 44.390625 34.1875 
z
M 19.671875 64.796875 
L 19.671875 38.921875 
L 32.078125 38.921875 
Q 39.203125 38.921875 42.84375 42.21875 
Q 46.484375 45.515625 46.484375 51.90625 
Q 46.484375 58.296875 42.84375 61.546875 
Q 39.203125 64.796875 32.078125 64.796875 
z
" id="DejaVuSans-52"/>
     <path d="M 53.515625 70.515625 
L 53.515625 60.890625 
Q 47.90625 63.578125 42.921875 64.890625 
Q 37.9375 66.21875 33.296875 66.21875 
Q 25.25 66.21875 20.875 63.09375 
Q 16.5 59.96875 16.5 54.203125 
Q 16.5 49.359375 19.40625 46.890625 
Q 22.3125 44.4375 30.421875 42.921875 
L 36.375 41.703125 
Q 47.40625 39.59375 52.65625 34.296875 
Q 57.90625 29 57.90625 20.125 
Q 57.90625 9.515625 50.796875 4.046875 
Q 43.703125 -1.421875 29.984375 -1.421875 
Q 24.8125 -1.421875 18.96875 -0.25 
Q 13.140625 0.921875 6.890625 3.21875 
L 6.890625 13.375 
Q 12.890625 10.015625 18.65625 8.296875 
Q 24.421875 6.59375 29.984375 6.59375 
Q 38.421875 6.59375 43.015625 9.90625 
Q 47.609375 13.234375 47.609375 19.390625 
Q 47.609375 24.75 44.3125 27.78125 
Q 41.015625 30.8125 33.5 32.328125 
L 27.484375 33.5 
Q 16.453125 35.6875 11.515625 40.375 
Q 6.59375 45.0625 6.59375 53.421875 
Q 6.59375 63.09375 13.40625 68.65625 
Q 20.21875 74.21875 32.171875 74.21875 
Q 37.3125 74.21875 42.625 73.28125 
Q 47.953125 72.359375 53.515625 70.515625 
z
" id="DejaVuSans-53"/>
    </defs>
    <g transform="translate(369.18424 294.223611)scale(0.17 -0.17)">
     <use xlink:href="#DejaVuSans-52"/>
     <use x="69.482422" xlink:href="#DejaVuSans-53"/>
    </g>
   </g>
   <g id="text_14">
    <!-- TPE -->
    <defs>
     <path d="M -0.296875 72.90625 
L 61.375 72.90625 
L 61.375 64.59375 
L 35.5 64.59375 
L 35.5 0 
L 25.59375 0 
L 25.59375 64.59375 
L -0.296875 64.59375 
z
" id="DejaVuSans-54"/>
     <path d="M 19.671875 64.796875 
L 19.671875 37.40625 
L 32.078125 37.40625 
Q 38.96875 37.40625 42.71875 40.96875 
Q 46.484375 44.53125 46.484375 51.125 
Q 46.484375 57.671875 42.71875 61.234375 
Q 38.96875 64.796875 32.078125 64.796875 
z
M 9.8125 72.90625 
L 32.078125 72.90625 
Q 44.34375 72.90625 50.609375 67.359375 
Q 56.890625 61.8125 56.890625 51.125 
Q 56.890625 40.328125 50.609375 34.8125 
Q 44.34375 29.296875 32.078125 29.296875 
L 19.671875 29.296875 
L 19.671875 0 
L 9.8125 0 
z
" id="DejaVuSans-50"/>
     <path d="M 9.8125 72.90625 
L 55.90625 72.90625 
L 55.90625 64.59375 
L 19.671875 64.59375 
L 19.671875 43.015625 
L 54.390625 43.015625 
L 54.390625 34.71875 
L 19.671875 34.71875 
L 19.671875 8.296875 
L 56.78125 8.296875 
L 56.78125 0 
L 9.8125 0 
z
" id="DejaVuSans-45"/>
    </defs>
    <g transform="translate(369.18424 208.666383)scale(0.17 -0.17)">
     <use xlink:href="#DejaVuSans-54"/>
     <use x="61.083984" xlink:href="#DejaVuSans-50"/>
     <use x="121.386719" xlink:href="#DejaVuSans-45"/>
    </g>
   </g>
   <g id="text_15">
    <!-- DE -->
    <defs>
     <path d="M 19.671875 64.796875 
L 19.671875 8.109375 
L 31.59375 8.109375 
Q 46.6875 8.109375 53.6875 14.9375 
Q 60.6875 21.78125 60.6875 36.53125 
Q 60.6875 51.171875 53.6875 57.984375 
Q 46.6875 64.796875 31.59375 64.796875 
z
M 9.8125 72.90625 
L 30.078125 72.90625 
Q 51.265625 72.90625 61.171875 64.09375 
Q 71.09375 55.28125 71.09375 36.53125 
Q 71.09375 17.671875 61.125 8.828125 
Q 51.171875 0 30.078125 0 
L 9.8125 0 
z
" id="DejaVuSans-44"/>
    </defs>
    <g transform="translate(369.18424 123.109155)scale(0.17 -0.17)">
     <use xlink:href="#DejaVuSans-44"/>
     <use x="77.001953" xlink:href="#DejaVuSans-45"/>
    </g>
   </g>
   <g id="text_16">
    <!-- CMA-ES -->
    <defs>
     <path d="M 64.40625 67.28125 
L 64.40625 56.890625 
Q 59.421875 61.53125 53.78125 63.8125 
Q 48.140625 66.109375 41.796875 66.109375 
Q 29.296875 66.109375 22.65625 58.46875 
Q 16.015625 50.828125 16.015625 36.375 
Q 16.015625 21.96875 22.65625 14.328125 
Q 29.296875 6.6875 41.796875 6.6875 
Q 48.140625 6.6875 53.78125 8.984375 
Q 59.421875 11.28125 64.40625 15.921875 
L 64.40625 5.609375 
Q 59.234375 2.09375 53.4375 0.328125 
Q 47.65625 -1.421875 41.21875 -1.421875 
Q 24.65625 -1.421875 15.125 8.703125 
Q 5.609375 18.84375 5.609375 36.375 
Q 5.609375 53.953125 15.125 64.078125 
Q 24.65625 74.21875 41.21875 74.21875 
Q 47.75 74.21875 53.53125 72.484375 
Q 59.328125 70.75 64.40625 67.28125 
z
" id="DejaVuSans-43"/>
     <path d="M 9.8125 72.90625 
L 24.515625 72.90625 
L 43.109375 23.296875 
L 61.8125 72.90625 
L 76.515625 72.90625 
L 76.515625 0 
L 66.890625 0 
L 66.890625 64.015625 
L 48.09375 14.015625 
L 38.1875 14.015625 
L 19.390625 64.015625 
L 19.390625 0 
L 9.8125 0 
z
" id="DejaVuSans-4d"/>
     <path d="M 34.1875 63.1875 
L 20.796875 26.90625 
L 47.609375 26.90625 
z
M 28.609375 72.90625 
L 39.796875 72.90625 
L 67.578125 0 
L 57.328125 0 
L 50.6875 18.703125 
L 17.828125 18.703125 
L 11.1875 0 
L 0.78125 0 
z
" id="DejaVuSans-41"/>
    </defs>
    <g transform="translate(369.18424 37.551928)scale(0.17 -0.17)">
     <use xlink:href="#DejaVuSans-43"/>
     <use x="69.824219" xlink:href="#DejaVuSans-4d"/>
     <use x="156.103516" xlink:href="#DejaVuSans-41"/>
     <use x="224.480469" xlink:href="#DejaVuSans-2d"/>
     <use x="260.564453" xlink:href="#DejaVuSans-45"/>
     <use x="323.748047" xlink:href="#DejaVuSans-53"/>
    </g>
   </g>
   <g id="text_17">
    <!-- bbob-mixint f14, 40-D -->
    <defs>
     <path d="M 48.6875 27.296875 
Q 48.6875 37.203125 44.609375 42.84375 
Q 40.53125 48.484375 33.40625 48.484375 
Q 26.265625 48.484375 22.1875 42.84375 
Q 18.109375 37.203125 18.109375 27.296875 
Q 18.109375 17.390625 22.1875 11.75 
Q 26.265625 6.109375 33.40625 6.109375 
Q 40.53125 6.109375 44.609375 11.75 
Q 48.6875 17.390625 48.6875 27.296875 
z
M 18.109375 46.390625 
Q 20.953125 51.265625 25.265625 53.625 
Q 29.59375 56 35.59375 56 
Q 45.5625 56 51.78125 48.09375 
Q 58.015625 40.1875 58.015625 27.296875 
Q 58.015625 14.40625 51.78125 6.484375 
Q 45.5625 -1.421875 35.59375 -1.421875 
Q 29.59375 -1.421875 25.265625 0.953125 
Q 20.953125 3.328125 18.109375 8.203125 
L 18.109375 0 
L 9.078125 0 
L 9.078125 75.984375 
L 18.109375 75.984375 
z
" id="DejaVuSans-62"/>
     <path d="M 54.890625 54.6875 
L 35.109375 28.078125 
L 55.90625 0 
L 45.3125 0 
L 29.390625 21.484375 
L 13.484375 0 
L 2.875 0 
L 24.125 28.609375 
L 4.6875 54.6875 
L 15.28125 54.6875 
L 29.78125 35.203125 
L 44.28125 54.6875 
z
" id="DejaVuSans-78"/>
    </defs>
    <g transform="translate(58.89048 35.290806)scale(0.102 -0.102)">
     <use xlink:href="#DejaVuSans-62"/>
     <use x="63.476562" xlink:href="#DejaVuSans-62"/>
     <use x="126.953125" xlink:href="#DejaVuSans-6f"/>
     <use x="188.134766" xlink:href="#DejaVuSans-62"/>
     <use x="251.611328" xlink:href="#DejaVuSans-2d"/>
     <use x="287.695312" xlink:href="#DejaVuSans-6d"/>
     <use x="385.107422" xlink:href="#DejaVuSans-69"/>
     <use x="412.890625" xlink:href="#DejaVuSans-78"/>
     <use x="472.070312" xlink:href="#DejaVuSans-69"/>
     <use x="499.853516" xlink:href="#DejaVuSans-6e"/>
     <use x="563.232422" xlink:href="#DejaVuSans-74"/>
     <use x="602.441406" xlink:href="#DejaVuSans-20"/>
     <use x="634.228516" xlink:href="#DejaVuSans-66"/>
     <use x="669.433594" xlink:href="#DejaVuSans-31"/>
     <use x="733.056641" xlink:href="#DejaVuSans-34"/>
     <use x="796.679688" xlink:href="#DejaVuSans-2c"/>
     <use x="828.466797" xlink:href="#DejaVuSans-20"/>
     <use x="860.253906" xlink:href="#DejaVuSans-34"/>
     <use x="923.876953" xlink:href="#DejaVuSans-30"/>
     <use x="987.5" xlink:href="#DejaVuSans-2d"/>
     <use x="1023.583984" xlink:href="#DejaVuSans-44"/>
    </g>
    <!-- 51 targets: 100..1e-08 -->
    <defs>
     <path d="M 10.796875 72.90625 
L 49.515625 72.90625 
L 49.515625 64.59375 
L 19.828125 64.59375 
L 19.828125 46.734375 
Q 21.96875 47.46875 24.109375 47.828125 
Q 26.265625 48.1875 28.421875 48.1875 
Q 40.625 48.1875 47.75 41.5 
Q 54.890625 34.8125 54.890625 23.390625 
Q 54.890625 11.625 47.5625 5.09375 
Q 40.234375 -1.421875 26.90625 -1.421875 
Q 22.3125 -1.421875 17.546875 -0.640625 
Q 12.796875 0.140625 7.71875 1.703125 
L 7.71875 11.625 
Q 12.109375 9.234375 16.796875 8.0625 
Q 21.484375 6.890625 26.703125 6.890625 
Q 35.15625 6.890625 40.078125 11.328125 
Q 45.015625 15.765625 45.015625 23.390625 
Q 45.015625 31 40.078125 35.4375 
Q 35.15625 39.890625 26.703125 39.890625 
Q 22.75 39.890625 18.8125 39.015625 
Q 14.890625 38.140625 10.796875 36.28125 
z
" id="DejaVuSans-35"/>
     <path d="M 11.71875 12.40625 
L 22.015625 12.40625 
L 22.015625 0 
L 11.71875 0 
z
M 11.71875 51.703125 
L 22.015625 51.703125 
L 22.015625 39.3125 
L 11.71875 39.3125 
z
" id="DejaVuSans-3a"/>
    </defs>
    <g transform="translate(58.89048 46.712575)scale(0.102 -0.102)">
     <use xlink:href="#DejaVuSans-35"/>
     <use x="63.623047" xlink:href="#DejaVuSans-31"/>
     <use x="127.246094" xlink:href="#DejaVuSans-20"/>
     <use x="159.033203" xlink:href="#DejaVuSans-74"/>
     <use x="198.242188" xlink:href="#DejaVuSans-61"/>
     <use x="259.521484" xlink:href="#DejaVuSans-72"/>
     <use x="300.619141" xlink:href="#DejaVuSans-67"/>
     <use x="364.095703" xlink:href="#DejaVuSans-65"/>
     <use x="425.619141" xlink:href="#DejaVuSans-74"/>
     <use x="464.828125" xlink:href="#DejaVuSans-73"/>
     <use x="516.927734" xlink:href="#DejaVuSans-3a"/>
     <use x="550.619141" xlink:href="#DejaVuSans-20"/>
     <use x="582.40625" xlink:href="#DejaVuSans-31"/>
     <use x="646.029297" xlink:href="#DejaVuSans-30"/>
     <use x="709.652344" xlink:href="#DejaVuSans-30"/>
     <use x="773.275391" xlink:href="#DejaVuSans-2e"/>
     <use x="805.0625" xlink:href="#DejaVuSans-2e"/>
     <use x="836.849609" xlink:href="#DejaVuSans-31"/>
     <use x="900.472656" xlink:href="#DejaVuSans-65"/>
     <use x="961.996094" xlink:href="#DejaVuSans-2d"/>
     <use x="998.080078" xlink:href="#DejaVuSans-30"/>
     <use x="1061.703125" xlink:href="#DejaVuSans-38"/>
    </g>
    <!-- 15 instances -->
    <g transform="translate(58.89048 58.134344)scale(0.102 -0.102)">
     <use xlink:href="#DejaVuSans-31"/>
     <use x="63.623047" xlink:href="#DejaVuSans-35"/>
     <use x="127.246094" xlink:href="#DejaVuSans-20"/>
     <use x="159.033203" xlink:href="#DejaVuSans-69"/>
     <use x="186.816406" xlink:href="#DejaVuSans-6e"/>
     <use x="250.195312" xlink:href="#DejaVuSans-73"/>
     <use x="302.294922" xlink:href="#DejaVuSans-74"/>
     <use x="341.503906" xlink:href="#DejaVuSans-61"/>
     <use x="402.783203" xlink:href="#DejaVuSans-6e"/>
     <use x="466.162109" xlink:href="#DejaVuSans-63"/>
     <use x="521.142578" xlink:href="#DejaVuSans-65"/>
     <use x="582.666016" xlink:href="#DejaVuSans-73"/>
    </g>
   </g>
   <g id="text_18">
    <!-- v2.2.2.645 -->
    <g style="fill:#808080;" transform="translate(167.829937 290.099912)scale(0.1 -0.1)">
     <use xlink:href="#DejaVuSans-76"/>
     <use x="59.179688" xlink:href="#DejaVuSans-32"/>
     <use x="122.802734" xlink:href="#DejaVuSans-2e"/>
     <use x="154.589844" xlink:href="#DejaVuSans-32"/>
     <use x="218.212891" xlink:href="#DejaVuSans-2e"/>
     <use x="250" xlink:href="#DejaVuSans-32"/>
     <use x="313.623047" xlink:href="#DejaVuSans-2e"/>
     <use x="345.410156" xlink:href="#DejaVuSans-36"/>
     <use x="409.033203" xlink:href="#DejaVuSans-34"/>
     <use x="472.65625" xlink:href="#DejaVuSans-35"/>
    </g>
   </g>
   <g id="text_19">
    <!-- 14 Sum of different powers -->
    <defs>
     <path d="M 4.203125 54.6875 
L 13.1875 54.6875 
L 24.421875 12.015625 
L 35.59375 54.6875 
L 46.1875 54.6875 
L 57.421875 12.015625 
L 68.609375 54.6875 
L 77.59375 54.6875 
L 63.28125 0 
L 52.6875 0 
L 40.921875 44.828125 
L 29.109375 0 
L 18.5 0 
z
" id="DejaVuSans-77"/>
    </defs>
    <g transform="translate(58.183063 18.84)scale(0.2 -0.2)">
     <use xlink:href="#DejaVuSans-31"/>
     <use x="63.623047" xlink:href="#DejaVuSans-34"/>
     <use x="127.246094" xlink:href="#DejaVuSans-20"/>
     <use x="159.033203" xlink:href="#DejaVuSans-53"/>
     <use x="222.509766" xlink:href="#DejaVuSans-75"/>
     <use x="285.888672" xlink:href="#DejaVuSans-6d"/>
     <use x="383.300781" xlink:href="#DejaVuSans-20"/>
     <use x="415.087891" xlink:href="#DejaVuSans-6f"/>
     <use x="476.269531" xlink:href="#DejaVuSans-66"/>
     <use x="511.474609" xlink:href="#DejaVuSans-20"/>
     <use x="543.261719" xlink:href="#DejaVuSans-64"/>
     <use x="606.738281" xlink:href="#DejaVuSans-69"/>
     <use x="634.521484" xlink:href="#DejaVuSans-66"/>
     <use x="669.726562" xlink:href="#DejaVuSans-66"/>
     <use x="704.931641" xlink:href="#DejaVuSans-65"/>
     <use x="766.455078" xlink:href="#DejaVuSans-72"/>
     <use x="807.537109" xlink:href="#DejaVuSans-65"/>
     <use x="869.060547" xlink:href="#DejaVuSans-6e"/>
     <use x="932.439453" xlink:href="#DejaVuSans-74"/>
     <use x="971.648438" xlink:href="#DejaVuSans-20"/>
     <use x="1003.435547" xlink:href="#DejaVuSans-70"/>
     <use x="1066.912109" xlink:href="#DejaVuSans-6f"/>
     <use x="1128.09375" xlink:href="#DejaVuSans-77"/>
     <use x="1209.880859" xlink:href="#DejaVuSans-65"/>
     <use x="1271.404297" xlink:href="#DejaVuSans-72"/>
     <use x="1312.517578" xlink:href="#DejaVuSans-73"/>
    </g>
   </g>
  </g>
 </g>
 <defs>
  <clipPath id="p2180fec2b0">
   <rect height="270.04" width="277.048" x="56.12" y="24.84"/>
  </clipPath>
 </defs>
</svg>
