<?xml version="1.0" encoding="utf-8" standalone="no"?>
<!DOCTYPE svg PUBLIC "-//W3C//DTD SVG 1.1//EN"
  "http://www.w3.org/Graphics/SVG/1.1/DTD/svg11.dtd">
<!-- Created with matplotlib (http://matplotlib.org/) -->
<svg height="345pt" version="1.1" viewBox="0 0 460 345" width="460pt" xmlns="http://www.w3.org/2000/svg" xmlns:xlink="http://www.w3.org/1999/xlink">
 <defs>
  <style type="text/css">
*{stroke-linecap:butt;stroke-linejoin:round;}
  </style>
 </defs>
 <g id="figure_1">
  <g id="patch_1">
   <path d="M 0 345.6 
L 460.8 345.6 
L 460.8 0 
L 0 0 
z
" style="fill:#ffffff;"/>
  </g>
  <g id="axes_1">
   <g id="patch_2">
    <path d="M 56.12 294.88 
L 399.984 294.88 
L 399.984 24.84 
L 56.12 24.84 
z
" style="fill:#ffffff;"/>
   </g>
   <g id="line2d_1">
    <path d="M 189.61523 294.88 
L 189.61523 289.637523 
L 192.5719 289.637523 
L 192.5719 284.395046 
L 194.725106 284.395046 
L 194.725106 279.152568 
L 197.082429 279.152568 
L 197.082429 273.910091 
L 199.844244 273.910091 
L 199.844244 268.667614 
L 203.872603 268.667614 
L 203.872603 263.425137 
L 208.005811 263.425137 
L 208.005811 258.18266 
L 211.687903 258.18266 
L 211.687903 252.940182 
L 212.902546 252.940182 
L 212.902546 247.697705 
L 215.199088 247.697705 
L 215.199088 242.455228 
L 220.425957 242.455228 
L 220.425957 237.212751 
L 222.411068 237.212751 
L 222.411068 231.970274 
L 224.361967 231.970274 
L 224.361967 226.727797 
L 225.098369 226.727797 
L 225.098369 221.485319 
L 227.682724 221.485319 
L 227.682724 216.242842 
L 229.193903 216.242842 
L 229.193903 211.000365 
L 231.152185 211.000365 
L 231.152185 205.757888 
L 232.836447 205.757888 
L 232.836447 200.515411 
L 233.500802 200.515411 
L 233.500802 195.272933 
L 234.132724 195.272933 
L 234.132724 190.030456 
L 237.26632 190.030456 
L 237.26632 184.787979 
L 238.688578 184.787979 
L 238.688578 179.545502 
L 239.217812 179.545502 
L 239.217812 174.303025 
L 239.742606 174.303025 
L 239.742606 169.060547 
L 240.217311 169.060547 
L 240.217311 163.81807 
L 240.804038 163.81807 
L 240.804038 158.575593 
L 241.460738 158.575593 
L 241.460738 153.333116 
L 241.903688 153.333116 
L 241.903688 148.090639 
L 242.25645 148.090639 
L 242.25645 142.848162 
L 242.566371 142.848162 
L 242.566371 137.605684 
L 243.120407 137.605684 
L 243.120407 132.363207 
L 243.698927 132.363207 
L 243.698927 127.12073 
L 246.900142 127.12073 
L 246.900142 121.878253 
L 247.385081 121.878253 
L 247.385081 116.635776 
L 247.793407 116.635776 
L 247.793407 111.393298 
L 248.169236 111.393298 
L 248.169236 106.150821 
L 248.468786 106.150821 
L 248.468786 100.908344 
L 248.856774 100.908344 
L 248.856774 95.665867 
L 251.184906 95.665867 
L 251.184906 90.42339 
L 251.566754 90.42339 
L 251.566754 85.180912 
L 251.859078 85.180912 
L 251.859078 79.938435 
L 252.074428 79.938435 
L 252.074428 74.695958 
L 252.409554 74.695958 
L 252.409554 69.453481 
L 252.697025 69.453481 
L 252.697025 64.211004 
L 253.227099 64.211004 
L 253.227099 58.968526 
L 255.274834 58.968526 
L 255.274834 53.726049 
L 255.554694 53.726049 
L 255.554694 48.483572 
L 255.860101 48.483572 
L 255.860101 43.241095 
L 256.273907 43.241095 
L 256.273907 37.998618 
L 256.571555 37.998618 
L 256.571555 32.756141 
L 256.925277 32.756141 
L 256.925277 27.513663 
L 333.429677 27.513663 
" style="fill:none;stroke:#f5deb3;stroke-linecap:square;stroke-width:6;"/>
   </g>
   <g id="line2d_2">
    <path d="M 0 0 
" style="fill:none;stroke:#f5deb3;stroke-linecap:square;stroke-width:6;"/>
    <defs>
     <path d="M -0 7.778175 
L 7.778175 0 
L 0 -7.778175 
L -7.778175 -0 
z
" id="m7182e68e48" style="stroke:#f5deb3;stroke-linejoin:miter;stroke-width:1.5;"/>
    </defs>
    <g>
     <use style="fill:#f5deb3;stroke:#f5deb3;stroke-linejoin:miter;stroke-width:1.5;" x="0" xlink:href="#m7182e68e48" y="0"/>
    </g>
   </g>
   <g id="line2d_3">
    <path d="M 333.429677 27.513663 
L 363.933742 289.532673 
" style="fill:none;stroke:#f5deb3;stroke-linecap:square;stroke-width:6;"/>
    <g>
     <use style="fill:#f5deb3;stroke:#f5deb3;stroke-linejoin:miter;stroke-width:1.5;" x="333.429677" xlink:href="#m7182e68e48" y="27.513663"/>
     <use style="fill:#f5deb3;stroke:#f5deb3;stroke-linejoin:miter;stroke-width:1.5;" x="363.933742" xlink:href="#m7182e68e48" y="289.532673"/>
    </g>
   </g>
   <g id="matplotlib.axis_1">
    <g id="xtick_1">
     <g id="line2d_4">
      <path clip-path="url(#pb08e75635a)" d="M 56.12 294.88 
L 56.12 24.84 
" style="fill:none;stroke:#b0b0b0;stroke-linecap:square;stroke-width:0.8;"/>
     </g>
     <g id="line2d_5">
      <defs>
       <path d="M 0 0 
L 0 3.5 
" id="m2d029e096f" style="stroke:#000000;stroke-width:0.8;"/>
      </defs>
      <g>
       <use style="stroke:#000000;stroke-width:0.8;" x="56.12" xlink:href="#m2d029e096f" y="294.88"/>
      </g>
     </g>
     <g id="text_1">
      <!-- 0 -->
      <defs>
       <path d="M 31.78125 66.40625 
Q 24.171875 66.40625 20.328125 58.90625 
Q 16.5 51.421875 16.5 36.375 
Q 16.5 21.390625 20.328125 13.890625 
Q 24.171875 6.390625 31.78125 6.390625 
Q 39.453125 6.390625 43.28125 13.890625 
Q 47.125 21.390625 47.125 36.375 
Q 47.125 51.421875 43.28125 58.90625 
Q 39.453125 66.40625 31.78125 66.40625 
z
M 31.78125 74.21875 
Q 44.046875 74.21875 50.515625 64.515625 
Q 56.984375 54.828125 56.984375 36.375 
Q 56.984375 17.96875 50.515625 8.265625 
Q 44.046875 -1.421875 31.78125 -1.421875 
Q 19.53125 -1.421875 13.0625 8.265625 
Q 6.59375 17.96875 6.59375 36.375 
Q 6.59375 54.828125 13.0625 64.515625 
Q 19.53125 74.21875 31.78125 74.21875 
z
" id="DejaVuSans-30"/>
      </defs>
      <g transform="translate(49.7575 317.076875)scale(0.2 -0.2)">
       <use xlink:href="#DejaVuSans-30"/>
      </g>
     </g>
    </g>
    <g id="xtick_2">
     <g id="line2d_6">
      <path clip-path="url(#pb08e75635a)" d="M 135.351336 294.88 
L 135.351336 24.84 
" style="fill:none;stroke:#b0b0b0;stroke-linecap:square;stroke-width:0.8;"/>
     </g>
     <g id="line2d_7">
      <g>
       <use style="stroke:#000000;stroke-width:0.8;" x="135.351336" xlink:href="#m2d029e096f" y="294.88"/>
      </g>
     </g>
     <g id="text_2">
      <!-- 2 -->
      <defs>
       <path d="M 19.1875 8.296875 
L 53.609375 8.296875 
L 53.609375 0 
L 7.328125 0 
L 7.328125 8.296875 
Q 12.9375 14.109375 22.625 23.890625 
Q 32.328125 33.6875 34.8125 36.53125 
Q 39.546875 41.84375 41.421875 45.53125 
Q 43.3125 49.21875 43.3125 52.78125 
Q 43.3125 58.59375 39.234375 62.25 
Q 35.15625 65.921875 28.609375 65.921875 
Q 23.96875 65.921875 18.8125 64.3125 
Q 13.671875 62.703125 7.8125 59.421875 
L 7.8125 69.390625 
Q 13.765625 71.78125 18.9375 73 
Q 24.125 74.21875 28.421875 74.21875 
Q 39.75 74.21875 46.484375 68.546875 
Q 53.21875 62.890625 53.21875 53.421875 
Q 53.21875 48.921875 51.53125 44.890625 
Q 49.859375 40.875 45.40625 35.40625 
Q 44.1875 33.984375 37.640625 27.21875 
Q 31.109375 20.453125 19.1875 8.296875 
z
" id="DejaVuSans-32"/>
      </defs>
      <g transform="translate(128.988836 317.076875)scale(0.2 -0.2)">
       <use xlink:href="#DejaVuSans-32"/>
      </g>
     </g>
    </g>
    <g id="xtick_3">
     <g id="line2d_8">
      <path clip-path="url(#pb08e75635a)" d="M 214.582673 294.88 
L 214.582673 24.84 
" style="fill:none;stroke:#b0b0b0;stroke-linecap:square;stroke-width:0.8;"/>
     </g>
     <g id="line2d_9">
      <g>
       <use style="stroke:#000000;stroke-width:0.8;" x="214.582673" xlink:href="#m2d029e096f" y="294.88"/>
      </g>
     </g>
     <g id="text_3">
      <!-- 4 -->
      <defs>
       <path d="M 37.796875 64.3125 
L 12.890625 25.390625 
L 37.796875 25.390625 
z
M 35.203125 72.90625 
L 47.609375 72.90625 
L 47.609375 25.390625 
L 58.015625 25.390625 
L 58.015625 17.1875 
L 47.609375 17.1875 
L 47.609375 0 
L 37.796875 0 
L 37.796875 17.1875 
L 4.890625 17.1875 
L 4.890625 26.703125 
z
" id="DejaVuSans-34"/>
      </defs>
      <g transform="translate(208.220173 317.076875)scale(0.2 -0.2)">
       <use xlink:href="#DejaVuSans-34"/>
      </g>
     </g>
    </g>
    <g id="xtick_4">
     <g id="line2d_10">
      <path clip-path="url(#pb08e75635a)" d="M 293.814009 294.88 
L 293.814009 24.84 
" style="fill:none;stroke:#b0b0b0;stroke-linecap:square;stroke-width:0.8;"/>
     </g>
     <g id="line2d_11">
      <g>
       <use style="stroke:#000000;stroke-width:0.8;" x="293.814009" xlink:href="#m2d029e096f" y="294.88"/>
      </g>
     </g>
     <g id="text_4">
      <!-- 6 -->
      <defs>
       <path d="M 33.015625 40.375 
Q 26.375 40.375 22.484375 35.828125 
Q 18.609375 31.296875 18.609375 23.390625 
Q 18.609375 15.53125 22.484375 10.953125 
Q 26.375 6.390625 33.015625 6.390625 
Q 39.65625 6.390625 43.53125 10.953125 
Q 47.40625 15.53125 47.40625 23.390625 
Q 47.40625 31.296875 43.53125 35.828125 
Q 39.65625 40.375 33.015625 40.375 
z
M 52.59375 71.296875 
L 52.59375 62.3125 
Q 48.875 64.0625 45.09375 64.984375 
Q 41.3125 65.921875 37.59375 65.921875 
Q 27.828125 65.921875 22.671875 59.328125 
Q 17.53125 52.734375 16.796875 39.40625 
Q 19.671875 43.65625 24.015625 45.921875 
Q 28.375 48.1875 33.59375 48.1875 
Q 44.578125 48.1875 50.953125 41.515625 
Q 57.328125 34.859375 57.328125 23.390625 
Q 57.328125 12.15625 50.6875 5.359375 
Q 44.046875 -1.421875 33.015625 -1.421875 
Q 20.359375 -1.421875 13.671875 8.265625 
Q 6.984375 17.96875 6.984375 36.375 
Q 6.984375 53.65625 15.1875 63.9375 
Q 23.390625 74.21875 37.203125 74.21875 
Q 40.921875 74.21875 44.703125 73.484375 
Q 48.484375 72.75 52.59375 71.296875 
z
" id="DejaVuSans-36"/>
      </defs>
      <g transform="translate(287.451509 317.076875)scale(0.2 -0.2)">
       <use xlink:href="#DejaVuSans-36"/>
      </g>
     </g>
    </g>
    <g id="xtick_5">
     <g id="line2d_12">
      <path clip-path="url(#pb08e75635a)" d="M 373.045346 294.88 
L 373.045346 24.84 
" style="fill:none;stroke:#b0b0b0;stroke-linecap:square;stroke-width:0.8;"/>
     </g>
     <g id="line2d_13">
      <g>
       <use style="stroke:#000000;stroke-width:0.8;" x="373.045346" xlink:href="#m2d029e096f" y="294.88"/>
      </g>
     </g>
     <g id="text_5">
      <!-- 8 -->
      <defs>
       <path d="M 31.78125 34.625 
Q 24.75 34.625 20.71875 30.859375 
Q 16.703125 27.09375 16.703125 20.515625 
Q 16.703125 13.921875 20.71875 10.15625 
Q 24.75 6.390625 31.78125 6.390625 
Q 38.8125 6.390625 42.859375 10.171875 
Q 46.921875 13.96875 46.921875 20.515625 
Q 46.921875 27.09375 42.890625 30.859375 
Q 38.875 34.625 31.78125 34.625 
z
M 21.921875 38.8125 
Q 15.578125 40.375 12.03125 44.71875 
Q 8.5 49.078125 8.5 55.328125 
Q 8.5 64.0625 14.71875 69.140625 
Q 20.953125 74.21875 31.78125 74.21875 
Q 42.671875 74.21875 48.875 69.140625 
Q 55.078125 64.0625 55.078125 55.328125 
Q 55.078125 49.078125 51.53125 44.71875 
Q 48 40.375 41.703125 38.8125 
Q 48.828125 37.15625 52.796875 32.3125 
Q 56.78125 27.484375 56.78125 20.515625 
Q 56.78125 9.90625 50.3125 4.234375 
Q 43.84375 -1.421875 31.78125 -1.421875 
Q 19.734375 -1.421875 13.25 4.234375 
Q 6.78125 9.90625 6.78125 20.515625 
Q 6.78125 27.484375 10.78125 32.3125 
Q 14.796875 37.15625 21.921875 38.8125 
z
M 18.3125 54.390625 
Q 18.3125 48.734375 21.84375 45.5625 
Q 25.390625 42.390625 31.78125 42.390625 
Q 38.140625 42.390625 41.71875 45.5625 
Q 45.3125 48.734375 45.3125 54.390625 
Q 45.3125 60.0625 41.71875 63.234375 
Q 38.140625 66.40625 31.78125 66.40625 
Q 25.390625 66.40625 21.84375 63.234375 
Q 18.3125 60.0625 18.3125 54.390625 
z
" id="DejaVuSans-38"/>
      </defs>
      <g transform="translate(366.682846 317.076875)scale(0.2 -0.2)">
       <use xlink:href="#DejaVuSans-38"/>
      </g>
     </g>
    </g>
    <g id="text_6">
     <!-- log10(# f-evals / dimension) -->
     <defs>
      <path d="M 9.421875 75.984375 
L 18.40625 75.984375 
L 18.40625 0 
L 9.421875 0 
z
" id="DejaVuSans-6c"/>
      <path d="M 30.609375 48.390625 
Q 23.390625 48.390625 19.1875 42.75 
Q 14.984375 37.109375 14.984375 27.296875 
Q 14.984375 17.484375 19.15625 11.84375 
Q 23.34375 6.203125 30.609375 6.203125 
Q 37.796875 6.203125 41.984375 11.859375 
Q 46.1875 17.53125 46.1875 27.296875 
Q 46.1875 37.015625 41.984375 42.703125 
Q 37.796875 48.390625 30.609375 48.390625 
z
M 30.609375 56 
Q 42.328125 56 49.015625 48.375 
Q 55.71875 40.765625 55.71875 27.296875 
Q 55.71875 13.875 49.015625 6.21875 
Q 42.328125 -1.421875 30.609375 -1.421875 
Q 18.84375 -1.421875 12.171875 6.21875 
Q 5.515625 13.875 5.515625 27.296875 
Q 5.515625 40.765625 12.171875 48.375 
Q 18.84375 56 30.609375 56 
z
" id="DejaVuSans-6f"/>
      <path d="M 45.40625 27.984375 
Q 45.40625 37.75 41.375 43.109375 
Q 37.359375 48.484375 30.078125 48.484375 
Q 22.859375 48.484375 18.828125 43.109375 
Q 14.796875 37.75 14.796875 27.984375 
Q 14.796875 18.265625 18.828125 12.890625 
Q 22.859375 7.515625 30.078125 7.515625 
Q 37.359375 7.515625 41.375 12.890625 
Q 45.40625 18.265625 45.40625 27.984375 
z
M 54.390625 6.78125 
Q 54.390625 -7.171875 48.1875 -13.984375 
Q 42 -20.796875 29.203125 -20.796875 
Q 24.46875 -20.796875 20.265625 -20.09375 
Q 16.0625 -19.390625 12.109375 -17.921875 
L 12.109375 -9.1875 
Q 16.0625 -11.328125 19.921875 -12.34375 
Q 23.78125 -13.375 27.78125 -13.375 
Q 36.625 -13.375 41.015625 -8.765625 
Q 45.40625 -4.15625 45.40625 5.171875 
L 45.40625 9.625 
Q 42.625 4.78125 38.28125 2.390625 
Q 33.9375 0 27.875 0 
Q 17.828125 0 11.671875 7.65625 
Q 5.515625 15.328125 5.515625 27.984375 
Q 5.515625 40.671875 11.671875 48.328125 
Q 17.828125 56 27.875 56 
Q 33.9375 56 38.28125 53.609375 
Q 42.625 51.21875 45.40625 46.390625 
L 45.40625 54.6875 
L 54.390625 54.6875 
z
" id="DejaVuSans-67"/>
      <path d="M 12.40625 8.296875 
L 28.515625 8.296875 
L 28.515625 63.921875 
L 10.984375 60.40625 
L 10.984375 69.390625 
L 28.421875 72.90625 
L 38.28125 72.90625 
L 38.28125 8.296875 
L 54.390625 8.296875 
L 54.390625 0 
L 12.40625 0 
z
" id="DejaVuSans-31"/>
      <path d="M 31 75.875 
Q 24.46875 64.65625 21.28125 53.65625 
Q 18.109375 42.671875 18.109375 31.390625 
Q 18.109375 20.125 21.3125 9.0625 
Q 24.515625 -2 31 -13.1875 
L 23.1875 -13.1875 
Q 15.875 -1.703125 12.234375 9.375 
Q 8.59375 20.453125 8.59375 31.390625 
Q 8.59375 42.28125 12.203125 53.3125 
Q 15.828125 64.359375 23.1875 75.875 
z
" id="DejaVuSans-28"/>
      <path d="M 51.125 44 
L 36.921875 44 
L 32.8125 27.6875 
L 47.125 27.6875 
z
M 43.796875 71.78125 
L 38.71875 51.515625 
L 52.984375 51.515625 
L 58.109375 71.78125 
L 65.921875 71.78125 
L 60.890625 51.515625 
L 76.125 51.515625 
L 76.125 44 
L 58.984375 44 
L 54.984375 27.6875 
L 70.515625 27.6875 
L 70.515625 20.21875 
L 53.078125 20.21875 
L 48 0 
L 40.1875 0 
L 45.21875 20.21875 
L 30.90625 20.21875 
L 25.875 0 
L 18.015625 0 
L 23.09375 20.21875 
L 7.71875 20.21875 
L 7.71875 27.6875 
L 24.90625 27.6875 
L 29 44 
L 13.28125 44 
L 13.28125 51.515625 
L 30.90625 51.515625 
L 35.890625 71.78125 
z
" id="DejaVuSans-23"/>
      <path id="DejaVuSans-20"/>
      <path d="M 37.109375 75.984375 
L 37.109375 68.5 
L 28.515625 68.5 
Q 23.6875 68.5 21.796875 66.546875 
Q 19.921875 64.59375 19.921875 59.515625 
L 19.921875 54.6875 
L 34.71875 54.6875 
L 34.71875 47.703125 
L 19.921875 47.703125 
L 19.921875 0 
L 10.890625 0 
L 10.890625 47.703125 
L 2.296875 47.703125 
L 2.296875 54.6875 
L 10.890625 54.6875 
L 10.890625 58.5 
Q 10.890625 67.625 15.140625 71.796875 
Q 19.390625 75.984375 28.609375 75.984375 
z
" id="DejaVuSans-66"/>
      <path d="M 4.890625 31.390625 
L 31.203125 31.390625 
L 31.203125 23.390625 
L 4.890625 23.390625 
z
" id="DejaVuSans-2d"/>
      <path d="M 56.203125 29.59375 
L 56.203125 25.203125 
L 14.890625 25.203125 
Q 15.484375 15.921875 20.484375 11.0625 
Q 25.484375 6.203125 34.421875 6.203125 
Q 39.59375 6.203125 44.453125 7.46875 
Q 49.3125 8.734375 54.109375 11.28125 
L 54.109375 2.78125 
Q 49.265625 0.734375 44.1875 -0.34375 
Q 39.109375 -1.421875 33.890625 -1.421875 
Q 20.796875 -1.421875 13.15625 6.1875 
Q 5.515625 13.8125 5.515625 26.8125 
Q 5.515625 40.234375 12.765625 48.109375 
Q 20.015625 56 32.328125 56 
Q 43.359375 56 49.78125 48.890625 
Q 56.203125 41.796875 56.203125 29.59375 
z
M 47.21875 32.234375 
Q 47.125 39.59375 43.09375 43.984375 
Q 39.0625 48.390625 32.421875 48.390625 
Q 24.90625 48.390625 20.390625 44.140625 
Q 15.875 39.890625 15.1875 32.171875 
z
" id="DejaVuSans-65"/>
      <path d="M 2.984375 54.6875 
L 12.5 54.6875 
L 29.59375 8.796875 
L 46.6875 54.6875 
L 56.203125 54.6875 
L 35.6875 0 
L 23.484375 0 
z
" id="DejaVuSans-76"/>
      <path d="M 34.28125 27.484375 
Q 23.390625 27.484375 19.1875 25 
Q 14.984375 22.515625 14.984375 16.5 
Q 14.984375 11.71875 18.140625 8.90625 
Q 21.296875 6.109375 26.703125 6.109375 
Q 34.1875 6.109375 38.703125 11.40625 
Q 43.21875 16.703125 43.21875 25.484375 
L 43.21875 27.484375 
z
M 52.203125 31.203125 
L 52.203125 0 
L 43.21875 0 
L 43.21875 8.296875 
Q 40.140625 3.328125 35.546875 0.953125 
Q 30.953125 -1.421875 24.3125 -1.421875 
Q 15.921875 -1.421875 10.953125 3.296875 
Q 6 8.015625 6 15.921875 
Q 6 25.140625 12.171875 29.828125 
Q 18.359375 34.515625 30.609375 34.515625 
L 43.21875 34.515625 
L 43.21875 35.40625 
Q 43.21875 41.609375 39.140625 45 
Q 35.0625 48.390625 27.6875 48.390625 
Q 23 48.390625 18.546875 47.265625 
Q 14.109375 46.140625 10.015625 43.890625 
L 10.015625 52.203125 
Q 14.9375 54.109375 19.578125 55.046875 
Q 24.21875 56 28.609375 56 
Q 40.484375 56 46.34375 49.84375 
Q 52.203125 43.703125 52.203125 31.203125 
z
" id="DejaVuSans-61"/>
      <path d="M 44.28125 53.078125 
L 44.28125 44.578125 
Q 40.484375 46.53125 36.375 47.5 
Q 32.28125 48.484375 27.875 48.484375 
Q 21.1875 48.484375 17.84375 46.4375 
Q 14.5 44.390625 14.5 40.28125 
Q 14.5 37.15625 16.890625 35.375 
Q 19.28125 33.59375 26.515625 31.984375 
L 29.59375 31.296875 
Q 39.15625 29.25 43.1875 25.515625 
Q 47.21875 21.78125 47.21875 15.09375 
Q 47.21875 7.46875 41.1875 3.015625 
Q 35.15625 -1.421875 24.609375 -1.421875 
Q 20.21875 -1.421875 15.453125 -0.5625 
Q 10.6875 0.296875 5.421875 2 
L 5.421875 11.28125 
Q 10.40625 8.6875 15.234375 7.390625 
Q 20.0625 6.109375 24.8125 6.109375 
Q 31.15625 6.109375 34.5625 8.28125 
Q 37.984375 10.453125 37.984375 14.40625 
Q 37.984375 18.0625 35.515625 20.015625 
Q 33.0625 21.96875 24.703125 23.78125 
L 21.578125 24.515625 
Q 13.234375 26.265625 9.515625 29.90625 
Q 5.8125 33.546875 5.8125 39.890625 
Q 5.8125 47.609375 11.28125 51.796875 
Q 16.75 56 26.8125 56 
Q 31.78125 56 36.171875 55.265625 
Q 40.578125 54.546875 44.28125 53.078125 
z
" id="DejaVuSans-73"/>
      <path d="M 25.390625 72.90625 
L 33.6875 72.90625 
L 8.296875 -9.28125 
L 0 -9.28125 
z
" id="DejaVuSans-2f"/>
      <path d="M 45.40625 46.390625 
L 45.40625 75.984375 
L 54.390625 75.984375 
L 54.390625 0 
L 45.40625 0 
L 45.40625 8.203125 
Q 42.578125 3.328125 38.25 0.953125 
Q 33.9375 -1.421875 27.875 -1.421875 
Q 17.96875 -1.421875 11.734375 6.484375 
Q 5.515625 14.40625 5.515625 27.296875 
Q 5.515625 40.1875 11.734375 48.09375 
Q 17.96875 56 27.875 56 
Q 33.9375 56 38.25 53.625 
Q 42.578125 51.265625 45.40625 46.390625 
z
M 14.796875 27.296875 
Q 14.796875 17.390625 18.875 11.75 
Q 22.953125 6.109375 30.078125 6.109375 
Q 37.203125 6.109375 41.296875 11.75 
Q 45.40625 17.390625 45.40625 27.296875 
Q 45.40625 37.203125 41.296875 42.84375 
Q 37.203125 48.484375 30.078125 48.484375 
Q 22.953125 48.484375 18.875 42.84375 
Q 14.796875 37.203125 14.796875 27.296875 
z
" id="DejaVuSans-64"/>
      <path d="M 9.421875 54.6875 
L 18.40625 54.6875 
L 18.40625 0 
L 9.421875 0 
z
M 9.421875 75.984375 
L 18.40625 75.984375 
L 18.40625 64.59375 
L 9.421875 64.59375 
z
" id="DejaVuSans-69"/>
      <path d="M 52 44.1875 
Q 55.375 50.25 60.0625 53.125 
Q 64.75 56 71.09375 56 
Q 79.640625 56 84.28125 50.015625 
Q 88.921875 44.046875 88.921875 33.015625 
L 88.921875 0 
L 79.890625 0 
L 79.890625 32.71875 
Q 79.890625 40.578125 77.09375 44.375 
Q 74.3125 48.1875 68.609375 48.1875 
Q 61.625 48.1875 57.5625 43.546875 
Q 53.515625 38.921875 53.515625 30.90625 
L 53.515625 0 
L 44.484375 0 
L 44.484375 32.71875 
Q 44.484375 40.625 41.703125 44.40625 
Q 38.921875 48.1875 33.109375 48.1875 
Q 26.21875 48.1875 22.15625 43.53125 
Q 18.109375 38.875 18.109375 30.90625 
L 18.109375 0 
L 9.078125 0 
L 9.078125 54.6875 
L 18.109375 54.6875 
L 18.109375 46.1875 
Q 21.1875 51.21875 25.484375 53.609375 
Q 29.78125 56 35.6875 56 
Q 41.65625 56 45.828125 52.96875 
Q 50 49.953125 52 44.1875 
z
" id="DejaVuSans-6d"/>
      <path d="M 54.890625 33.015625 
L 54.890625 0 
L 45.90625 0 
L 45.90625 32.71875 
Q 45.90625 40.484375 42.875 44.328125 
Q 39.84375 48.1875 33.796875 48.1875 
Q 26.515625 48.1875 22.3125 43.546875 
Q 18.109375 38.921875 18.109375 30.90625 
L 18.109375 0 
L 9.078125 0 
L 9.078125 54.6875 
L 18.109375 54.6875 
L 18.109375 46.1875 
Q 21.34375 51.125 25.703125 53.5625 
Q 30.078125 56 35.796875 56 
Q 45.21875 56 50.046875 50.171875 
Q 54.890625 44.34375 54.890625 33.015625 
z
" id="DejaVuSans-6e"/>
      <path d="M 8.015625 75.875 
L 15.828125 75.875 
Q 23.140625 64.359375 26.78125 53.3125 
Q 30.421875 42.28125 30.421875 31.390625 
Q 30.421875 20.453125 26.78125 9.375 
Q 23.140625 -1.703125 15.828125 -13.1875 
L 8.015625 -13.1875 
Q 14.5 -2 17.703125 9.0625 
Q 20.90625 20.125 20.90625 31.390625 
Q 20.90625 42.671875 17.703125 53.65625 
Q 14.5 64.65625 8.015625 75.875 
z
" id="DejaVuSans-29"/>
     </defs>
     <g transform="translate(107.211219 338.153594)scale(0.17 -0.17)">
      <use xlink:href="#DejaVuSans-6c"/>
      <use x="27.783203" xlink:href="#DejaVuSans-6f"/>
      <use x="88.964844" xlink:href="#DejaVuSans-67"/>
      <use x="152.441406" xlink:href="#DejaVuSans-31"/>
      <use x="216.064453" xlink:href="#DejaVuSans-30"/>
      <use x="279.6875" xlink:href="#DejaVuSans-28"/>
      <use x="318.701172" xlink:href="#DejaVuSans-23"/>
      <use x="402.490234" xlink:href="#DejaVuSans-20"/>
      <use x="434.277344" xlink:href="#DejaVuSans-66"/>
      <use x="469.404297" xlink:href="#DejaVuSans-2d"/>
      <use x="505.488281" xlink:href="#DejaVuSans-65"/>
      <use x="567.011719" xlink:href="#DejaVuSans-76"/>
      <use x="626.191406" xlink:href="#DejaVuSans-61"/>
      <use x="687.470703" xlink:href="#DejaVuSans-6c"/>
      <use x="715.253906" xlink:href="#DejaVuSans-73"/>
      <use x="767.353516" xlink:href="#DejaVuSans-20"/>
      <use x="799.140625" xlink:href="#DejaVuSans-2f"/>
      <use x="832.832031" xlink:href="#DejaVuSans-20"/>
      <use x="864.619141" xlink:href="#DejaVuSans-64"/>
      <use x="928.095703" xlink:href="#DejaVuSans-69"/>
      <use x="955.878906" xlink:href="#DejaVuSans-6d"/>
      <use x="1053.291016" xlink:href="#DejaVuSans-65"/>
      <use x="1114.814453" xlink:href="#DejaVuSans-6e"/>
      <use x="1178.193359" xlink:href="#DejaVuSans-73"/>
      <use x="1230.292969" xlink:href="#DejaVuSans-69"/>
      <use x="1258.076172" xlink:href="#DejaVuSans-6f"/>
      <use x="1319.257812" xlink:href="#DejaVuSans-6e"/>
      <use x="1382.636719" xlink:href="#DejaVuSans-29"/>
     </g>
    </g>
   </g>
   <g id="matplotlib.axis_2">
    <g id="ytick_1">
     <g id="line2d_14">
      <path clip-path="url(#pb08e75635a)" d="M 56.12 294.88 
L 399.984 294.88 
" style="fill:none;stroke:#b0b0b0;stroke-linecap:square;stroke-width:0.8;"/>
     </g>
     <g id="line2d_15">
      <defs>
       <path d="M 0 0 
L -3.5 0 
" id="m30937bf84c" style="stroke:#000000;stroke-width:0.8;"/>
      </defs>
      <g>
       <use style="stroke:#000000;stroke-width:0.8;" x="56.12" xlink:href="#m30937bf84c" y="294.88"/>
      </g>
     </g>
     <g id="text_7">
      <!-- 0.0 -->
      <defs>
       <path d="M 10.6875 12.40625 
L 21 12.40625 
L 21 0 
L 10.6875 0 
z
" id="DejaVuSans-2e"/>
      </defs>
      <g transform="translate(23.675 300.95875)scale(0.16 -0.16)">
       <use xlink:href="#DejaVuSans-30"/>
       <use x="63.623047" xlink:href="#DejaVuSans-2e"/>
       <use x="95.410156" xlink:href="#DejaVuSans-30"/>
      </g>
     </g>
    </g>
    <g id="ytick_2">
     <g id="line2d_16">
      <path clip-path="url(#pb08e75635a)" d="M 56.12 241.406733 
L 399.984 241.406733 
" style="fill:none;stroke:#b0b0b0;stroke-linecap:square;stroke-width:0.8;"/>
     </g>
     <g id="line2d_17">
      <g>
       <use style="stroke:#000000;stroke-width:0.8;" x="56.12" xlink:href="#m30937bf84c" y="241.406733"/>
      </g>
     </g>
     <g id="text_8">
      <!-- 0.2 -->
      <g transform="translate(23.675 247.485483)scale(0.16 -0.16)">
       <use xlink:href="#DejaVuSans-30"/>
       <use x="63.623047" xlink:href="#DejaVuSans-2e"/>
       <use x="95.410156" xlink:href="#DejaVuSans-32"/>
      </g>
     </g>
    </g>
    <g id="ytick_3">
     <g id="line2d_18">
      <path clip-path="url(#pb08e75635a)" d="M 56.12 187.933465 
L 399.984 187.933465 
" style="fill:none;stroke:#b0b0b0;stroke-linecap:square;stroke-width:0.8;"/>
     </g>
     <g id="line2d_19">
      <g>
       <use style="stroke:#000000;stroke-width:0.8;" x="56.12" xlink:href="#m30937bf84c" y="187.933465"/>
      </g>
     </g>
     <g id="text_9">
      <!-- 0.4 -->
      <g transform="translate(23.675 194.012215)scale(0.16 -0.16)">
       <use xlink:href="#DejaVuSans-30"/>
       <use x="63.623047" xlink:href="#DejaVuSans-2e"/>
       <use x="95.410156" xlink:href="#DejaVuSans-34"/>
      </g>
     </g>
    </g>
    <g id="ytick_4">
     <g id="line2d_20">
      <path clip-path="url(#pb08e75635a)" d="M 56.12 134.460198 
L 399.984 134.460198 
" style="fill:none;stroke:#b0b0b0;stroke-linecap:square;stroke-width:0.8;"/>
     </g>
     <g id="line2d_21">
      <g>
       <use style="stroke:#000000;stroke-width:0.8;" x="56.12" xlink:href="#m30937bf84c" y="134.460198"/>
      </g>
     </g>
     <g id="text_10">
      <!-- 0.6 -->
      <g transform="translate(23.675 140.538948)scale(0.16 -0.16)">
       <use xlink:href="#DejaVuSans-30"/>
       <use x="63.623047" xlink:href="#DejaVuSans-2e"/>
       <use x="95.410156" xlink:href="#DejaVuSans-36"/>
      </g>
     </g>
    </g>
    <g id="ytick_5">
     <g id="line2d_22">
      <path clip-path="url(#pb08e75635a)" d="M 56.12 80.986931 
L 399.984 80.986931 
" style="fill:none;stroke:#b0b0b0;stroke-linecap:square;stroke-width:0.8;"/>
     </g>
     <g id="line2d_23">
      <g>
       <use style="stroke:#000000;stroke-width:0.8;" x="56.12" xlink:href="#m30937bf84c" y="80.986931"/>
      </g>
     </g>
     <g id="text_11">
      <!-- 0.8 -->
      <g transform="translate(23.675 87.065681)scale(0.16 -0.16)">
       <use xlink:href="#DejaVuSans-30"/>
       <use x="63.623047" xlink:href="#DejaVuSans-2e"/>
       <use x="95.410156" xlink:href="#DejaVuSans-38"/>
      </g>
     </g>
    </g>
    <g id="ytick_6">
     <g id="line2d_24">
      <path clip-path="url(#pb08e75635a)" d="M 56.12 27.513663 
L 399.984 27.513663 
" style="fill:none;stroke:#b0b0b0;stroke-linecap:square;stroke-width:0.8;"/>
     </g>
     <g id="line2d_25">
      <g>
       <use style="stroke:#000000;stroke-width:0.8;" x="56.12" xlink:href="#m30937bf84c" y="27.513663"/>
      </g>
     </g>
     <g id="text_12">
      <!-- 1.0 -->
      <g transform="translate(23.675 33.592413)scale(0.16 -0.16)">
       <use xlink:href="#DejaVuSans-31"/>
       <use x="63.623047" xlink:href="#DejaVuSans-2e"/>
       <use x="95.410156" xlink:href="#DejaVuSans-30"/>
      </g>
     </g>
    </g>
    <g id="text_13">
     <!-- Fraction of function,target pairs -->
     <defs>
      <path d="M 9.8125 72.90625 
L 51.703125 72.90625 
L 51.703125 64.59375 
L 19.671875 64.59375 
L 19.671875 43.109375 
L 48.578125 43.109375 
L 48.578125 34.8125 
L 19.671875 34.8125 
L 19.671875 0 
L 9.8125 0 
z
" id="DejaVuSans-46"/>
      <path d="M 41.109375 46.296875 
Q 39.59375 47.171875 37.8125 47.578125 
Q 36.03125 48 33.890625 48 
Q 26.265625 48 22.1875 43.046875 
Q 18.109375 38.09375 18.109375 28.8125 
L 18.109375 0 
L 9.078125 0 
L 9.078125 54.6875 
L 18.109375 54.6875 
L 18.109375 46.1875 
Q 20.953125 51.171875 25.484375 53.578125 
Q 30.03125 56 36.53125 56 
Q 37.453125 56 38.578125 55.875 
Q 39.703125 55.765625 41.0625 55.515625 
z
" id="DejaVuSans-72"/>
      <path d="M 48.78125 52.59375 
L 48.78125 44.1875 
Q 44.96875 46.296875 41.140625 47.34375 
Q 37.3125 48.390625 33.40625 48.390625 
Q 24.65625 48.390625 19.8125 42.84375 
Q 14.984375 37.3125 14.984375 27.296875 
Q 14.984375 17.28125 19.8125 11.734375 
Q 24.65625 6.203125 33.40625 6.203125 
Q 37.3125 6.203125 41.140625 7.25 
Q 44.96875 8.296875 48.78125 10.40625 
L 48.78125 2.09375 
Q 45.015625 0.34375 40.984375 -0.53125 
Q 36.96875 -1.421875 32.421875 -1.421875 
Q 20.0625 -1.421875 12.78125 6.34375 
Q 5.515625 14.109375 5.515625 27.296875 
Q 5.515625 40.671875 12.859375 48.328125 
Q 20.21875 56 33.015625 56 
Q 37.15625 56 41.109375 55.140625 
Q 45.0625 54.296875 48.78125 52.59375 
z
" id="DejaVuSans-63"/>
      <path d="M 18.3125 70.21875 
L 18.3125 54.6875 
L 36.8125 54.6875 
L 36.8125 47.703125 
L 18.3125 47.703125 
L 18.3125 18.015625 
Q 18.3125 11.328125 20.140625 9.421875 
Q 21.96875 7.515625 27.59375 7.515625 
L 36.8125 7.515625 
L 36.8125 0 
L 27.59375 0 
Q 17.1875 0 13.234375 3.875 
Q 9.28125 7.765625 9.28125 18.015625 
L 9.28125 47.703125 
L 2.6875 47.703125 
L 2.6875 54.6875 
L 9.28125 54.6875 
L 9.28125 70.21875 
z
" id="DejaVuSans-74"/>
      <path d="M 8.5 21.578125 
L 8.5 54.6875 
L 17.484375 54.6875 
L 17.484375 21.921875 
Q 17.484375 14.15625 20.5 10.265625 
Q 23.53125 6.390625 29.59375 6.390625 
Q 36.859375 6.390625 41.078125 11.03125 
Q 45.3125 15.671875 45.3125 23.6875 
L 45.3125 54.6875 
L 54.296875 54.6875 
L 54.296875 0 
L 45.3125 0 
L 45.3125 8.40625 
Q 42.046875 3.421875 37.71875 1 
Q 33.40625 -1.421875 27.6875 -1.421875 
Q 18.265625 -1.421875 13.375 4.4375 
Q 8.5 10.296875 8.5 21.578125 
z
M 31.109375 56 
z
" id="DejaVuSans-75"/>
      <path d="M 11.71875 12.40625 
L 22.015625 12.40625 
L 22.015625 4 
L 14.015625 -11.625 
L 7.71875 -11.625 
L 11.71875 4 
z
" id="DejaVuSans-2c"/>
      <path d="M 18.109375 8.203125 
L 18.109375 -20.796875 
L 9.078125 -20.796875 
L 9.078125 54.6875 
L 18.109375 54.6875 
L 18.109375 46.390625 
Q 20.953125 51.265625 25.265625 53.625 
Q 29.59375 56 35.59375 56 
Q 45.5625 56 51.78125 48.09375 
Q 58.015625 40.1875 58.015625 27.296875 
Q 58.015625 14.40625 51.78125 6.484375 
Q 45.5625 -1.421875 35.59375 -1.421875 
Q 29.59375 -1.421875 25.265625 0.953125 
Q 20.953125 3.328125 18.109375 8.203125 
z
M 48.6875 27.296875 
Q 48.6875 37.203125 44.609375 42.84375 
Q 40.53125 48.484375 33.40625 48.484375 
Q 26.265625 48.484375 22.1875 42.84375 
Q 18.109375 37.203125 18.109375 27.296875 
Q 18.109375 17.390625 22.1875 11.75 
Q 26.265625 6.109375 33.40625 6.109375 
Q 40.53125 6.109375 44.609375 11.75 
Q 48.6875 17.390625 48.6875 27.296875 
z
" id="DejaVuSans-70"/>
     </defs>
     <g transform="translate(16.139531 294.999375)rotate(-90)scale(0.17 -0.17)">
      <use xlink:href="#DejaVuSans-46"/>
      <use x="57.410156" xlink:href="#DejaVuSans-72"/>
      <use x="98.523438" xlink:href="#DejaVuSans-61"/>
      <use x="159.802734" xlink:href="#DejaVuSans-63"/>
      <use x="214.783203" xlink:href="#DejaVuSans-74"/>
      <use x="253.992188" xlink:href="#DejaVuSans-69"/>
      <use x="281.775391" xlink:href="#DejaVuSans-6f"/>
      <use x="342.957031" xlink:href="#DejaVuSans-6e"/>
      <use x="406.335938" xlink:href="#DejaVuSans-20"/>
      <use x="438.123047" xlink:href="#DejaVuSans-6f"/>
      <use x="499.304688" xlink:href="#DejaVuSans-66"/>
      <use x="534.509766" xlink:href="#DejaVuSans-20"/>
      <use x="566.296875" xlink:href="#DejaVuSans-66"/>
      <use x="601.501953" xlink:href="#DejaVuSans-75"/>
      <use x="664.880859" xlink:href="#DejaVuSans-6e"/>
      <use x="728.259766" xlink:href="#DejaVuSans-63"/>
      <use x="783.240234" xlink:href="#DejaVuSans-74"/>
      <use x="822.449219" xlink:href="#DejaVuSans-69"/>
      <use x="850.232422" xlink:href="#DejaVuSans-6f"/>
      <use x="911.414062" xlink:href="#DejaVuSans-6e"/>
      <use x="974.792969" xlink:href="#DejaVuSans-2c"/>
      <use x="1006.580078" xlink:href="#DejaVuSans-74"/>
      <use x="1045.789062" xlink:href="#DejaVuSans-61"/>
      <use x="1107.068359" xlink:href="#DejaVuSans-72"/>
      <use x="1148.166016" xlink:href="#DejaVuSans-67"/>
      <use x="1211.642578" xlink:href="#DejaVuSans-65"/>
      <use x="1273.166016" xlink:href="#DejaVuSans-74"/>
      <use x="1312.375" xlink:href="#DejaVuSans-20"/>
      <use x="1344.162109" xlink:href="#DejaVuSans-70"/>
      <use x="1407.638672" xlink:href="#DejaVuSans-61"/>
      <use x="1468.917969" xlink:href="#DejaVuSans-69"/>
      <use x="1496.701172" xlink:href="#DejaVuSans-72"/>
      <use x="1537.814453" xlink:href="#DejaVuSans-73"/>
     </g>
    </g>
   </g>
   <g id="line2d_26">
    <defs>
     <path d="M 0 1.5 
C 0.397805 1.5 0.77937 1.341951 1.06066 1.06066 
C 1.341951 0.77937 1.5 0.397805 1.5 0 
C 1.5 -0.397805 1.341951 -0.77937 1.06066 -1.06066 
C 0.77937 -1.341951 0.397805 -1.5 0 -1.5 
C -0.397805 -1.5 -0.77937 -1.341951 -1.06066 -1.06066 
C -1.341951 -0.77937 -1.5 -0.397805 -1.5 0 
C -1.5 0.397805 -1.341951 0.77937 -1.06066 1.06066 
C -0.77937 1.341951 -0.397805 1.5 0 1.5 
z
" id="m875e7364fe" style="stroke:#f5deb3;"/>
    </defs>
    <g>
     <use style="fill:#f5deb3;stroke:#f5deb3;" x="256.925277" xlink:href="#m875e7364fe" y="27.513663"/>
     <use style="fill:#f5deb3;stroke:#f5deb3;" x="256.925277" xlink:href="#m875e7364fe" y="27.513663"/>
    </g>
   </g>
   <g id="line2d_27">
    <g>
     <use style="fill:#f5deb3;stroke:#f5deb3;stroke-linejoin:miter;stroke-width:1.5;" x="240.217311" xlink:href="#m7182e68e48" y="163.81807"/>
     <use style="fill:#f5deb3;stroke:#f5deb3;stroke-linejoin:miter;stroke-width:1.5;" x="256.925277" xlink:href="#m7182e68e48" y="27.513663"/>
     <use style="fill:#f5deb3;stroke:#f5deb3;stroke-linejoin:miter;stroke-width:1.5;" x="256.925277" xlink:href="#m7182e68e48" y="27.513663"/>
     <use style="fill:#f5deb3;stroke:#f5deb3;stroke-linejoin:miter;stroke-width:1.5;" x="333.429677" xlink:href="#m7182e68e48" y="27.513663"/>
    </g>
   </g>
   <g id="line2d_28">
    <defs>
     <path d="M 0 1.5 
C 0.397805 1.5 0.77937 1.341951 1.06066 1.06066 
C 1.341951 0.77937 1.5 0.397805 1.5 0 
C 1.5 -0.397805 1.341951 -0.77937 1.06066 -1.06066 
C 0.77937 -1.341951 0.397805 -1.5 0 -1.5 
C -0.397805 -1.5 -0.77937 -1.341951 -1.06066 -1.06066 
C -1.341951 -0.77937 -1.5 -0.397805 -1.5 0 
C -1.5 0.397805 -1.341951 0.77937 -1.06066 1.06066 
C -0.77937 1.341951 -0.397805 1.5 0 1.5 
z
" id="maef6bef203" style="stroke:#999999;"/>
    </defs>
    <g>
     <use style="fill:#999999;stroke:#999999;" x="293.825523" xlink:href="#maef6bef203" y="289.637523"/>
     <use style="fill:#999999;stroke:#999999;" x="293.825523" xlink:href="#maef6bef203" y="289.637523"/>
    </g>
   </g>
   <g id="line2d_29">
    <path d="M 235.505531 294.88 
L 235.505531 293.831505 
L 248.078489 293.831505 
L 248.078489 293.307257 
L 258.129389 293.307257 
L 258.129389 292.783009 
L 262.148674 292.783009 
L 262.148674 292.258761 
L 265.69425 292.258761 
L 265.69425 291.734514 
L 272.141096 291.734514 
L 272.141096 291.210266 
L 273.796314 291.210266 
L 273.796314 290.161771 
L 293.825523 290.161771 
L 293.825523 289.637523 
L 333.429677 289.637523 
" style="fill:none;stroke:#999999;stroke-linecap:square;stroke-width:1.5;"/>
   </g>
   <g id="line2d_30"/>
   <g id="line2d_31">
    <path d="M 0 0 
" style="fill:none;stroke:#999999;stroke-linecap:square;stroke-width:1.5;"/>
   </g>
   <g id="line2d_32">
    <path clip-path="url(#pb08e75635a)" d="M 258.037496 293.307257 
" style="fill:none;stroke:#999999;stroke-linecap:square;stroke-width:1.5;"/>
    <defs>
     <path d="M -12 12 
L 12 -12 
M -12 -12 
L 12 12 
" id="m0f1a1748f2" style="stroke:#999999;stroke-width:3;"/>
    </defs>
    <g clip-path="url(#pb08e75635a)">
     <use style="fill:#999999;stroke:#999999;stroke-width:3;" x="258.037496" xlink:href="#m0f1a1748f2" y="293.307257"/>
    </g>
   </g>
   <g id="line2d_33">
    <g>
     <use style="fill:#999999;stroke:#999999;" x="366.374974" xlink:href="#maef6bef203" y="211.000365"/>
     <use style="fill:#999999;stroke:#999999;" x="366.374974" xlink:href="#maef6bef203" y="211.000365"/>
    </g>
   </g>
   <g id="line2d_34">
    <path d="M 153.931543 294.88 
L 153.931543 294.355752 
L 172.532413 294.355752 
L 172.532413 293.831505 
L 173.527759 293.831505 
L 173.527759 293.307257 
L 177.642848 293.307257 
L 177.642848 292.783009 
L 179.952521 292.783009 
L 179.952521 292.258761 
L 214.956655 292.258761 
L 214.956655 291.210266 
L 218.757603 291.210266 
L 218.773692 289.113275 
L 224.189096 289.113275 
L 224.189096 288.589027 
L 227.522936 288.589027 
L 227.522936 288.06478 
L 234.379186 288.06478 
L 234.379186 287.540532 
L 235.536914 287.540532 
L 235.588969 285.443541 
L 235.769824 285.443541 
L 235.769824 284.919293 
L 242.571757 284.919293 
L 242.571757 283.34655 
L 245.760249 283.34655 
L 245.760249 282.822302 
L 250.957036 282.822302 
L 251.024236 281.249559 
L 251.318634 281.249559 
L 251.318634 280.725312 
L 252.289394 280.725312 
L 252.289394 280.201064 
L 253.462135 280.201064 
L 253.462135 279.676816 
L 255.029292 279.676816 
L 255.029292 278.628321 
L 259.047486 278.628321 
L 259.047486 278.104073 
L 261.040072 278.104073 
L 261.040072 277.579825 
L 262.42196 277.579825 
L 262.42196 276.53133 
L 269.025978 276.53133 
L 269.025978 276.007082 
L 269.935943 276.007082 
L 269.935943 275.482834 
L 270.491628 275.482834 
L 270.556451 273.385844 
L 270.634439 273.385844 
L 270.634439 272.861596 
L 270.96217 272.861596 
L 271.020959 271.8131 
L 271.351502 271.8131 
L 271.357102 270.764605 
L 272.034836 270.764605 
L 272.034836 270.240357 
L 273.146735 270.240357 
L 273.146735 269.716109 
L 273.315387 269.716109 
L 273.315387 268.143366 
L 273.544026 268.143366 
L 273.544026 267.094871 
L 280.34516 267.094871 
L 280.34516 266.046375 
L 288.308717 266.046375 
L 288.308717 265.522128 
L 288.577916 265.522128 
L 288.577916 264.473632 
L 288.88908 264.473632 
L 288.976209 262.376641 
L 289.022227 262.376641 
L 289.022227 261.328146 
L 289.187338 261.328146 
L 289.253654 259.231155 
L 289.368095 259.231155 
L 289.368095 258.706907 
L 289.649731 258.706907 
L 289.649731 258.18266 
L 289.809285 258.18266 
L 289.809285 257.134164 
L 289.944202 257.134164 
L 289.944202 256.609917 
L 290.157824 256.609917 
L 290.26371 255.037173 
L 290.873298 255.037173 
L 290.873298 254.512926 
L 297.564951 254.512926 
L 297.652096 252.415935 
L 297.777811 252.415935 
L 297.866056 250.318944 
L 297.917385 250.318944 
L 297.931452 249.270448 
L 303.325908 249.270448 
L 303.325908 248.746201 
L 303.456011 248.746201 
L 303.504519 247.173458 
L 303.699107 247.173458 
L 303.76005 245.600714 
L 303.86753 245.600714 
L 303.927404 244.552219 
L 304.263318 244.552219 
L 304.263318 244.027971 
L 308.059769 244.027971 
L 308.059769 243.503724 
L 311.421862 243.503724 
L 311.429744 242.455228 
L 314.162101 242.455228 
L 314.25249 240.882485 
L 316.594621 240.882485 
L 316.670981 239.83399 
L 316.713192 239.83399 
L 316.728217 238.261246 
L 320.68389 238.261246 
L 320.784587 234.591512 
L 320.850192 234.591512 
L 320.850192 234.067265 
L 323.964972 234.067265 
L 323.979198 233.018769 
L 324.101984 233.018769 
L 324.101984 232.494521 
L 326.773737 232.494521 
L 326.827097 231.446026 
L 329.164423 231.446026 
L 329.195174 229.349035 
L 331.263931 229.349035 
L 331.263931 228.824787 
L 333.031893 228.824787 
L 333.063048 227.252044 
L 333.429677 227.252044 
L 333.429677 227.252044 
" style="fill:none;stroke:#999999;stroke-linecap:square;stroke-width:1.5;"/>
   </g>
   <g id="line2d_35"/>
   <g id="line2d_36">
    <path d="M 0 0 
" style="fill:none;stroke:#999999;stroke-linecap:square;stroke-width:1.5;"/>
   </g>
   <g id="line2d_37">
    <path clip-path="url(#pb08e75635a)" d="M 293.829633 254.512926 
" style="fill:none;stroke:#999999;stroke-linecap:square;stroke-width:1.5;"/>
    <g clip-path="url(#pb08e75635a)">
     <use style="fill:#999999;stroke:#999999;stroke-width:3;" x="293.829633" xlink:href="#m0f1a1748f2" y="254.512926"/>
    </g>
   </g>
   <g id="line2d_38">
    <path clip-path="url(#pb08e75635a)" d="M 56.12 294.88 
L 56.12 294.88 
L 56.12 294.88 
L 56.12 294.88 
L 399.984 294.88 
" style="fill:none;stroke:#999999;stroke-linecap:square;stroke-width:1.5;"/>
   </g>
   <g id="line2d_39"/>
   <g id="line2d_40">
    <path clip-path="url(#pb08e75635a)" d="M 0 0 
" style="fill:none;stroke:#999999;stroke-linecap:square;stroke-width:1.5;"/>
   </g>
   <g id="line2d_41">
    <path clip-path="url(#pb08e75635a)" d="M 56.12 294.88 
L 56.12 294.88 
L 56.12 294.88 
L 56.12 294.88 
L 399.984 294.88 
" style="fill:none;stroke:#999999;stroke-linecap:square;stroke-width:1.5;"/>
   </g>
   <g id="line2d_42"/>
   <g id="line2d_43">
    <path clip-path="url(#pb08e75635a)" d="M 0 0 
" style="fill:none;stroke:#999999;stroke-linecap:square;stroke-width:1.5;"/>
   </g>
   <g id="line2d_44">
    <g>
     <use style="fill:#999999;stroke:#999999;" x="269.246508" xlink:href="#maef6bef203" y="27.513663"/>
     <use style="fill:#999999;stroke:#999999;" x="269.246508" xlink:href="#maef6bef203" y="27.513663"/>
    </g>
   </g>
   <g id="line2d_45">
    <path d="M 169.789438 294.88 
L 169.789438 294.355752 
L 181.376309 294.355752 
L 181.376309 293.831505 
L 181.595393 293.831505 
L 181.595393 292.783009 
L 182.860605 292.783009 
L 182.860605 292.258761 
L 183.067596 292.258761 
L 183.138362 291.210266 
L 184.106257 291.210266 
L 184.106257 290.161771 
L 185.071908 290.161771 
L 185.071908 289.113275 
L 186.972968 289.113275 
L 186.972968 288.589027 
L 187.639521 288.589027 
L 187.639521 288.06478 
L 188.573511 288.06478 
L 188.573511 287.540532 
L 189.149096 287.540532 
L 189.149096 287.016284 
L 189.499367 287.016284 
L 189.499367 286.492036 
L 191.1897 286.492036 
L 191.1897 284.919293 
L 191.707371 284.919293 
L 191.749261 283.870798 
L 192.521273 283.870798 
L 192.521273 283.34655 
L 192.713238 283.34655 
L 192.713238 282.822302 
L 192.899899 282.822302 
L 192.899899 282.298055 
L 193.173014 282.298055 
L 193.212679 280.725312 
L 196.21312 280.725312 
L 196.21312 280.201064 
L 196.397415 280.201064 
L 196.397415 279.152568 
L 198.015021 279.152568 
L 198.015021 278.104073 
L 198.792725 278.104073 
L 198.792725 277.579825 
L 198.943046 277.579825 
L 198.943046 277.055578 
L 199.063891 277.055578 
L 199.063891 276.53133 
L 199.581594 276.53133 
L 199.581594 276.007082 
L 200.062981 276.007082 
L 200.062981 275.482834 
L 200.563259 275.482834 
L 200.563259 274.958587 
L 201.149792 274.958587 
L 201.19415 273.385844 
L 201.288301 273.385844 
L 201.288301 272.337348 
L 201.402216 272.337348 
L 201.402216 271.288853 
L 201.556516 271.288853 
L 201.556516 270.764605 
L 201.905925 270.764605 
L 201.940309 269.191862 
L 202.712222 269.191862 
L 202.712222 268.667614 
L 202.989518 268.667614 
L 202.989518 268.143366 
L 203.158957 268.143366 
L 203.158957 267.619119 
L 203.376399 267.619119 
L 203.376399 267.094871 
L 203.85865 267.094871 
L 203.89159 266.046375 
L 204.398955 266.046375 
L 204.398955 264.99788 
L 204.597446 264.99788 
L 204.597446 264.473632 
L 204.821156 264.473632 
L 204.821156 263.949385 
L 205.020413 263.949385 
L 205.020413 263.425137 
L 205.841163 263.425137 
L 205.841163 262.376641 
L 205.969297 262.376641 
L 205.969297 261.328146 
L 206.119711 261.328146 
L 206.195794 260.279651 
L 206.389529 260.279651 
L 206.389529 259.755403 
L 206.568021 259.755403 
L 206.568021 259.231155 
L 206.875978 259.231155 
L 206.972644 256.609917 
L 207.527375 256.609917 
L 207.603302 255.561421 
L 208.414085 255.561421 
L 208.414085 255.037173 
L 208.610081 255.037173 
L 208.610081 254.512926 
L 208.918613 254.512926 
L 208.918613 253.988678 
L 209.071984 253.988678 
L 209.14465 252.415935 
L 209.527466 252.415935 
L 209.527466 251.891687 
L 210.014221 251.891687 
L 210.015287 250.843192 
L 210.474317 250.843192 
L 210.577608 249.794696 
L 210.963511 249.794696 
L 210.965156 247.697705 
L 211.272471 247.697705 
L 211.272471 247.173458 
L 211.395388 247.173458 
L 211.395388 246.64921 
L 211.704334 246.64921 
L 211.722577 245.600714 
L 211.92671 245.600714 
L 211.951186 243.503724 
L 212.331772 243.503724 
L 212.331772 242.979476 
L 213.157825 242.979476 
L 213.170203 240.882485 
L 213.425113 240.882485 
L 213.525297 238.261246 
L 213.631403 238.261246 
L 213.631403 237.212751 
L 213.844275 237.212751 
L 213.844275 236.688503 
L 214.136581 236.688503 
L 214.136581 236.164255 
L 214.255309 236.164255 
L 214.351005 234.591512 
L 214.748159 234.591512 
L 214.784289 233.543017 
L 214.989368 233.543017 
L 214.989368 233.018769 
L 215.340266 233.018769 
L 215.340266 232.494521 
L 215.575318 232.494521 
L 215.575318 231.970274 
L 216.253139 231.970274 
L 216.253139 230.921778 
L 216.680728 230.921778 
L 216.680728 230.397531 
L 217.009311 230.397531 
L 217.009311 229.349035 
L 217.353902 229.349035 
L 217.353902 228.824787 
L 217.575878 228.824787 
L 217.575878 228.30054 
L 217.760661 228.30054 
L 217.760661 227.776292 
L 218.471581 227.776292 
L 218.514997 225.155053 
L 219.114637 225.155053 
L 219.114637 224.630806 
L 219.381336 224.630806 
L 219.381336 224.106558 
L 219.652133 224.106558 
L 219.652133 223.58231 
L 220.438173 223.58231 
L 220.438173 222.009567 
L 220.767247 222.009567 
L 220.776492 220.436824 
L 220.92862 220.436824 
L 220.92862 219.912576 
L 221.045268 219.912576 
L 221.154848 218.339833 
L 221.977351 218.339833 
L 221.977351 217.815585 
L 222.109049 217.815585 
L 222.109049 217.291338 
L 223.14521 217.291338 
L 223.148896 216.242842 
L 225.317531 216.242842 
L 225.317531 215.718594 
L 225.598949 215.718594 
L 225.598949 214.670099 
L 226.181362 214.670099 
L 226.181362 214.145851 
L 226.836034 214.145851 
L 226.882118 211.524613 
L 227.08895 211.524613 
L 227.08895 211.000365 
L 227.287201 211.000365 
L 227.287201 209.95187 
L 227.930075 209.95187 
L 227.930075 209.427622 
L 228.08369 209.427622 
L 228.08369 208.903374 
L 228.508218 208.903374 
L 228.508218 207.854879 
L 228.753651 207.854879 
L 228.753651 207.330631 
L 229.296898 207.330631 
L 229.296898 205.757888 
L 229.495869 205.757888 
L 229.569019 204.185145 
L 230.61247 204.185145 
L 230.628964 203.136649 
L 230.824054 203.136649 
L 230.898763 202.088154 
L 230.979501 202.088154 
L 230.989714 201.039658 
L 231.165692 201.039658 
L 231.236027 199.466915 
L 231.31068 199.466915 
L 231.313136 198.41842 
L 231.421837 198.41842 
L 231.421837 197.369924 
L 231.630479 197.369924 
L 231.696604 195.272933 
L 232.212904 195.272933 
L 232.212904 194.748686 
L 232.378667 194.748686 
L 232.403218 193.175943 
L 233.055206 193.175943 
L 233.16022 192.127447 
L 233.489741 192.127447 
L 233.489741 191.603199 
L 233.695669 191.603199 
L 233.695669 191.078952 
L 233.885006 191.078952 
L 233.995809 189.506209 
L 234.054523 189.506209 
L 234.054523 188.981961 
L 234.25824 188.981961 
L 234.25824 187.933465 
L 234.562197 187.933465 
L 234.607412 184.787979 
L 234.684308 184.787979 
L 234.754472 183.739484 
L 234.840165 183.739484 
L 234.840165 183.215236 
L 235.029454 183.215236 
L 235.086762 179.545502 
L 235.591557 179.545502 
L 235.591557 179.021254 
L 235.750631 179.021254 
L 235.813957 177.972759 
L 235.878971 177.972759 
L 235.878971 176.924263 
L 236.246089 176.924263 
L 236.27481 175.35152 
L 236.431886 175.35152 
L 236.474764 173.254529 
L 236.600896 173.254529 
L 236.702652 172.206034 
L 236.805347 172.206034 
L 236.805347 171.681786 
L 236.964176 171.681786 
L 236.964176 171.157538 
L 237.487082 171.157538 
L 237.54632 170.109043 
L 237.608964 170.109043 
L 237.67182 166.963557 
L 237.863879 166.963557 
L 237.931205 165.390813 
L 238.084736 165.390813 
L 238.158582 161.721079 
L 238.434359 161.721079 
L 238.434359 161.196832 
L 238.558309 161.196832 
L 238.558309 160.672584 
L 238.896366 160.672584 
L 238.996106 157.527098 
L 239.017011 157.527098 
L 239.078469 155.954354 
L 239.346524 155.954354 
L 239.438229 154.905859 
L 239.499385 154.905859 
L 239.519325 153.333116 
L 239.970216 153.333116 
L 240.055788 151.760373 
L 240.107973 151.760373 
L 240.107973 151.236125 
L 240.431922 151.236125 
L 240.468924 149.663382 
L 240.596863 149.663382 
L 240.630399 148.614886 
L 240.719415 148.614886 
L 240.807954 146.517896 
L 240.901081 146.517896 
L 240.901081 145.4694 
L 241.163965 145.4694 
L 241.171046 143.896657 
L 241.27779 143.896657 
L 241.27779 143.372409 
L 241.534673 143.372409 
L 241.534673 142.323914 
L 241.79358 142.323914 
L 241.876773 140.751171 
L 242.099218 140.751171 
L 242.175103 138.65418 
L 242.269352 138.65418 
L 242.269352 138.129932 
L 242.556753 138.129932 
L 242.585878 136.557189 
L 243.020161 136.557189 
L 243.129428 133.93595 
L 243.191242 133.93595 
L 243.264175 130.266216 
L 243.303904 130.266216 
L 243.409385 127.644978 
L 243.544386 127.644978 
L 243.642005 125.023739 
L 243.976636 125.023739 
L 244.027159 122.4025 
L 244.113444 122.4025 
L 244.205928 120.829757 
L 244.235648 120.829757 
L 244.328807 119.781262 
L 244.547221 119.781262 
L 244.579962 117.160023 
L 244.735901 117.160023 
L 244.83674 115.58728 
L 244.884559 115.58728 
L 244.958588 114.538785 
L 245.095481 114.538785 
L 245.195133 112.441794 
L 245.430875 112.441794 
L 245.521388 109.820555 
L 245.608444 109.820555 
L 245.608444 108.77206 
L 245.775751 108.77206 
L 245.775751 108.247812 
L 245.887426 108.247812 
L 245.95719 106.150821 
L 246.038625 106.150821 
L 246.094082 105.102326 
L 246.266354 105.102326 
L 246.266354 103.529583 
L 246.391984 103.529583 
L 246.423075 100.908344 
L 246.677233 100.908344 
L 246.677233 99.859849 
L 246.93622 99.859849 
L 247.029187 98.287105 
L 247.088888 98.287105 
L 247.104869 97.23861 
L 247.213529 97.23861 
L 247.295064 96.190115 
L 247.508288 96.190115 
L 247.598897 93.568876 
L 247.647035 93.568876 
L 247.702627 92.520381 
L 247.870873 92.520381 
L 247.879383 91.471885 
L 247.985224 91.471885 
L 248.088824 90.42339 
L 248.105423 90.42339 
L 248.153664 88.326399 
L 248.23793 88.326399 
L 248.335204 86.229408 
L 248.487595 86.229408 
L 248.487595 85.180912 
L 248.658928 85.180912 
L 248.718589 82.559674 
L 248.814585 82.559674 
L 248.814585 82.035426 
L 248.928479 82.035426 
L 248.928479 81.511178 
L 249.085242 81.511178 
L 249.124995 80.462683 
L 249.246194 80.462683 
L 249.279493 78.88994 
L 249.479635 78.88994 
L 249.521547 77.841444 
L 250.28436 77.841444 
L 250.28436 77.317197 
L 250.415285 77.317197 
L 250.522489 74.17171 
L 250.58015 74.17171 
L 250.586725 72.598967 
L 250.957649 72.598967 
L 251.056741 71.026224 
L 251.089644 71.026224 
L 251.089644 69.977729 
L 251.248094 69.977729 
L 251.248094 68.929233 
L 251.654567 68.929233 
L 251.654567 68.404985 
L 251.891275 68.404985 
L 251.891275 67.880738 
L 252.176909 67.880738 
L 252.246312 66.307995 
L 253.043564 66.307995 
L 253.043564 64.211004 
L 254.111215 64.211004 
L 254.182419 63.162508 
L 254.393805 63.162508 
L 254.393805 62.114013 
L 254.705067 62.114013 
L 254.705067 61.589765 
L 254.876941 61.589765 
L 254.876941 61.065517 
L 255.258374 61.065517 
L 255.332139 60.017022 
L 255.425451 60.017022 
L 255.425451 59.492774 
L 255.537318 59.492774 
L 255.537318 58.444279 
L 255.957428 58.444279 
L 256.039895 56.347288 
L 256.083703 56.347288 
L 256.125619 54.774545 
L 256.217153 54.774545 
L 256.307918 53.201802 
L 256.435606 53.201802 
L 256.435606 52.677554 
L 256.59174 52.677554 
L 256.59174 52.153306 
L 256.762581 52.153306 
L 256.762581 51.629058 
L 257.064986 51.629058 
L 257.078668 49.00782 
L 257.417384 49.00782 
L 257.475401 47.959324 
L 257.542035 47.959324 
L 257.650329 46.910829 
L 258.076569 46.910829 
L 258.076569 46.386581 
L 258.224171 46.386581 
L 258.224171 45.862334 
L 258.336078 45.862334 
L 258.409081 44.813838 
L 258.640794 44.813838 
L 258.640794 44.28959 
L 259.186652 44.28959 
L 259.186652 43.765343 
L 259.345972 43.765343 
L 259.424896 41.668352 
L 259.710562 41.668352 
L 259.710562 40.619856 
L 259.82691 40.619856 
L 259.82691 40.095609 
L 260.149936 40.095609 
L 260.163899 39.047113 
L 260.394407 39.047113 
L 260.394407 37.998618 
L 260.550251 37.998618 
L 260.550251 37.47437 
L 260.681689 37.47437 
L 260.681689 36.425875 
L 260.837871 36.425875 
L 260.837871 35.901627 
L 261.08763 35.901627 
L 261.08763 35.377379 
L 261.591259 35.377379 
L 261.591259 34.853131 
L 262.18638 34.853131 
L 262.274711 33.804636 
L 263.167164 33.804636 
L 263.167164 33.280388 
L 263.296872 33.280388 
L 263.296872 32.756141 
L 263.883591 32.756141 
L 263.883591 32.231893 
L 265.018806 32.231893 
L 265.018806 31.183397 
L 265.415575 31.183397 
L 265.415575 30.134902 
L 265.897528 30.134902 
L 265.897528 29.610654 
L 268.508357 29.610654 
L 268.596633 28.562159 
L 268.829318 28.562159 
L 268.829318 28.037911 
L 269.246508 28.037911 
L 269.246508 27.513663 
L 333.429677 27.513663 
L 333.429677 27.513663 
" style="fill:none;stroke:#999999;stroke-linecap:square;stroke-width:1.5;"/>
   </g>
   <g id="line2d_46"/>
   <g id="line2d_47">
    <path d="M 0 0 
" style="fill:none;stroke:#999999;stroke-linecap:square;stroke-width:1.5;"/>
   </g>
   <g id="line2d_48">
    <path clip-path="url(#pb08e75635a)" d="M 56.12 294.88 
L 56.12 294.88 
L 56.12 294.88 
L 56.12 294.88 
L 399.984 294.88 
" style="fill:none;stroke:#999999;stroke-linecap:square;stroke-width:1.5;"/>
   </g>
   <g id="line2d_49"/>
   <g id="line2d_50">
    <path clip-path="url(#pb08e75635a)" d="M 0 0 
" style="fill:none;stroke:#999999;stroke-linecap:square;stroke-width:1.5;"/>
   </g>
   <g id="line2d_51">
    <path clip-path="url(#pb08e75635a)" d="M 56.12 294.88 
L 56.12 294.88 
L 56.12 294.88 
L 56.12 294.88 
L 399.984 294.88 
" style="fill:none;stroke:#999999;stroke-linecap:square;stroke-width:1.5;"/>
   </g>
   <g id="line2d_52"/>
   <g id="line2d_53">
    <path clip-path="url(#pb08e75635a)" d="M 0 0 
" style="fill:none;stroke:#999999;stroke-linecap:square;stroke-width:1.5;"/>
   </g>
   <g id="line2d_54">
    <path clip-path="url(#pb08e75635a)" d="M 56.12 294.88 
L 56.12 294.88 
L 56.12 294.88 
L 56.12 294.88 
L 399.984 294.88 
" style="fill:none;stroke:#999999;stroke-linecap:square;stroke-width:1.5;"/>
   </g>
   <g id="line2d_55"/>
   <g id="line2d_56">
    <path clip-path="url(#pb08e75635a)" d="M 0 0 
" style="fill:none;stroke:#999999;stroke-linecap:square;stroke-width:1.5;"/>
   </g>
   <g id="line2d_57">
    <path clip-path="url(#pb08e75635a)" d="M 56.12 294.88 
L 56.12 294.88 
L 56.12 294.88 
L 56.12 294.88 
L 399.984 294.88 
" style="fill:none;stroke:#999999;stroke-linecap:square;stroke-width:1.5;"/>
   </g>
   <g id="line2d_58"/>
   <g id="line2d_59">
    <path clip-path="url(#pb08e75635a)" d="M 0 0 
" style="fill:none;stroke:#999999;stroke-linecap:square;stroke-width:1.5;"/>
   </g>
   <g id="line2d_60">
    <path clip-path="url(#pb08e75635a)" d="M 56.12 294.88 
L 56.12 294.88 
L 56.12 294.88 
L 56.12 294.88 
L 399.984 294.88 
" style="fill:none;stroke:#999999;stroke-linecap:square;stroke-width:1.5;"/>
   </g>
   <g id="line2d_61"/>
   <g id="line2d_62">
    <path clip-path="url(#pb08e75635a)" d="M 0 0 
" style="fill:none;stroke:#999999;stroke-linecap:square;stroke-width:1.5;"/>
   </g>
   <g id="line2d_63">
    <path clip-path="url(#pb08e75635a)" d="M 56.12 294.88 
L 56.12 294.88 
L 56.12 294.88 
L 56.12 294.88 
L 399.984 294.88 
" style="fill:none;stroke:#999999;stroke-linecap:square;stroke-width:1.5;"/>
   </g>
   <g id="line2d_64"/>
   <g id="line2d_65">
    <path clip-path="url(#pb08e75635a)" d="M 0 0 
" style="fill:none;stroke:#999999;stroke-linecap:square;stroke-width:1.5;"/>
   </g>
   <g id="line2d_66">
    <g>
     <use style="fill:#999999;stroke:#999999;" x="341.338438" xlink:href="#maef6bef203" y="237.212751"/>
     <use style="fill:#999999;stroke:#999999;" x="341.338438" xlink:href="#maef6bef203" y="237.212751"/>
    </g>
   </g>
   <g id="line2d_67">
    <path d="M 206.569049 294.88 
L 206.569049 293.831505 
L 208.601436 293.831505 
L 208.601436 293.307257 
L 213.032471 293.307257 
L 213.032471 292.783009 
L 216.074816 292.783009 
L 216.074816 291.734514 
L 222.972734 291.734514 
L 222.972734 291.210266 
L 243.843874 291.210266 
L 243.843874 290.686018 
L 244.126325 290.686018 
L 244.126325 289.637523 
L 244.33315 289.637523 
L 244.33315 289.113275 
L 245.787649 289.113275 
L 245.787649 288.06478 
L 250.397451 288.06478 
L 250.397451 287.540532 
L 260.271273 287.540532 
L 260.271273 287.016284 
L 260.459615 287.016284 
L 260.529785 285.443541 
L 260.791481 285.443541 
L 260.791481 284.919293 
L 261.04911 284.919293 
L 261.04911 283.870798 
L 261.527358 283.870798 
L 261.527358 283.34655 
L 261.766358 283.34655 
L 261.766358 282.298055 
L 274.674346 282.298055 
L 274.674346 281.773807 
L 275.067056 281.773807 
L 275.067056 281.249559 
L 275.185095 281.249559 
L 275.185095 280.201064 
L 275.309621 280.201064 
L 275.41433 279.152568 
L 275.539986 279.152568 
L 275.539986 278.628321 
L 275.862963 278.628321 
L 275.862963 278.104073 
L 275.991695 278.104073 
L 275.991695 277.579825 
L 276.352474 277.579825 
L 276.352474 277.055578 
L 276.469396 277.055578 
L 276.469396 276.53133 
L 276.610627 276.53133 
L 276.610627 275.482834 
L 276.994925 275.482834 
L 276.994925 274.958587 
L 277.168791 274.958587 
L 277.168791 274.434339 
L 277.438576 274.434339 
L 277.438576 273.910091 
L 288.715421 273.910091 
L 288.715421 273.385844 
L 289.587182 273.385844 
L 289.587182 272.861596 
L 289.707019 272.861596 
L 289.707019 271.8131 
L 289.911371 271.8131 
L 289.911371 271.288853 
L 290.057438 271.288853 
L 290.142707 268.667614 
L 290.25989 268.667614 
L 290.294787 266.570623 
L 290.406351 266.570623 
L 290.493059 262.376641 
L 290.717944 262.376641 
L 290.717944 261.852394 
L 296.280212 261.852394 
L 296.280212 261.328146 
L 298.882976 261.328146 
L 298.957228 260.279651 
L 299.039753 260.279651 
L 299.131235 259.231155 
L 303.388425 259.231155 
L 303.388425 258.706907 
L 304.055486 258.706907 
L 304.165185 254.512926 
L 304.168622 254.512926 
L 304.267137 252.940182 
L 308.481025 252.940182 
L 308.481025 252.415935 
L 308.614538 252.415935 
L 308.614538 251.891687 
L 311.581963 251.891687 
L 311.691513 250.843192 
L 311.702417 250.843192 
L 311.745057 248.746201 
L 314.649578 248.746201 
L 314.68427 247.697705 
L 316.877737 247.697705 
L 316.952126 245.076467 
L 319.258205 245.076467 
L 319.258205 244.552219 
L 320.832438 244.552219 
L 320.932718 241.93098 
L 324.124469 241.93098 
L 324.12765 240.882485 
L 331.296533 240.882485 
L 331.299918 239.83399 
L 333.151708 239.83399 
L 333.151708 239.309742 
L 333.429677 239.309742 
L 333.429677 239.309742 
" style="fill:none;stroke:#999999;stroke-linecap:square;stroke-width:1.5;"/>
   </g>
   <g id="line2d_68"/>
   <g id="line2d_69">
    <path d="M 0 0 
" style="fill:none;stroke:#999999;stroke-linecap:square;stroke-width:1.5;"/>
   </g>
   <g id="line2d_70">
    <path clip-path="url(#pb08e75635a)" d="M 293.826502 261.852394 
" style="fill:none;stroke:#999999;stroke-linecap:square;stroke-width:1.5;"/>
    <g clip-path="url(#pb08e75635a)">
     <use style="fill:#999999;stroke:#999999;stroke-width:3;" x="293.826502" xlink:href="#m0f1a1748f2" y="261.852394"/>
    </g>
   </g>
   <g id="line2d_71">
    <path d="M 333.429677 294.88 
L 333.429677 27.513663 
" style="fill:none;stroke:#000000;stroke-linecap:square;stroke-width:1.5;"/>
   </g>
   <g id="patch_3">
    <path d="M 56.12 294.88 
L 56.12 24.84 
" style="fill:none;stroke:#000000;stroke-linecap:square;stroke-linejoin:miter;stroke-width:0.8;"/>
   </g>
   <g id="patch_4">
    <path d="M 399.984 294.88 
L 399.984 24.84 
" style="fill:none;stroke:#000000;stroke-linecap:square;stroke-linejoin:miter;stroke-width:0.8;"/>
   </g>
   <g id="patch_5">
    <path d="M 56.12 294.88 
L 399.984 294.88 
" style="fill:none;stroke:#000000;stroke-linecap:square;stroke-linejoin:miter;stroke-width:0.8;"/>
   </g>
   <g id="patch_6">
    <path d="M 56.12 24.84 
L 399.984 24.84 
" style="fill:none;stroke:#000000;stroke-linecap:square;stroke-linejoin:miter;stroke-width:0.8;"/>
   </g>
   <g id="text_14">
    <!-- best 2009 -->
    <defs>
     <path d="M 48.6875 27.296875 
Q 48.6875 37.203125 44.609375 42.84375 
Q 40.53125 48.484375 33.40625 48.484375 
Q 26.265625 48.484375 22.1875 42.84375 
Q 18.109375 37.203125 18.109375 27.296875 
Q 18.109375 17.390625 22.1875 11.75 
Q 26.265625 6.109375 33.40625 6.109375 
Q 40.53125 6.109375 44.609375 11.75 
Q 48.6875 17.390625 48.6875 27.296875 
z
M 18.109375 46.390625 
Q 20.953125 51.265625 25.265625 53.625 
Q 29.59375 56 35.59375 56 
Q 45.5625 56 51.78125 48.09375 
Q 58.015625 40.1875 58.015625 27.296875 
Q 58.015625 14.40625 51.78125 6.484375 
Q 45.5625 -1.421875 35.59375 -1.421875 
Q 29.59375 -1.421875 25.265625 0.953125 
Q 20.953125 3.328125 18.109375 8.203125 
L 18.109375 0 
L 9.078125 0 
L 9.078125 75.984375 
L 18.109375 75.984375 
z
" id="DejaVuSans-62"/>
     <path d="M 10.984375 1.515625 
L 10.984375 10.5 
Q 14.703125 8.734375 18.5 7.8125 
Q 22.3125 6.890625 25.984375 6.890625 
Q 35.75 6.890625 40.890625 13.453125 
Q 46.046875 20.015625 46.78125 33.40625 
Q 43.953125 29.203125 39.59375 26.953125 
Q 35.25 24.703125 29.984375 24.703125 
Q 19.046875 24.703125 12.671875 31.3125 
Q 6.296875 37.9375 6.296875 49.421875 
Q 6.296875 60.640625 12.9375 67.421875 
Q 19.578125 74.21875 30.609375 74.21875 
Q 43.265625 74.21875 49.921875 64.515625 
Q 56.59375 54.828125 56.59375 36.375 
Q 56.59375 19.140625 48.40625 8.859375 
Q 40.234375 -1.421875 26.421875 -1.421875 
Q 22.703125 -1.421875 18.890625 -0.6875 
Q 15.09375 0.046875 10.984375 1.515625 
z
M 30.609375 32.421875 
Q 37.25 32.421875 41.125 36.953125 
Q 45.015625 41.5 45.015625 49.421875 
Q 45.015625 57.28125 41.125 61.84375 
Q 37.25 66.40625 30.609375 66.40625 
Q 23.96875 66.40625 20.09375 61.84375 
Q 16.21875 57.28125 16.21875 49.421875 
Q 16.21875 41.5 20.09375 36.953125 
Q 23.96875 32.421875 30.609375 32.421875 
z
" id="DejaVuSans-39"/>
    </defs>
    <g transform="translate(369.479935 294.223611)scale(0.17 -0.17)">
     <use xlink:href="#DejaVuSans-62"/>
     <use x="63.476562" xlink:href="#DejaVuSans-65"/>
     <use x="125" xlink:href="#DejaVuSans-73"/>
     <use x="177.099609" xlink:href="#DejaVuSans-74"/>
     <use x="216.308594" xlink:href="#DejaVuSans-20"/>
     <use x="248.095703" xlink:href="#DejaVuSans-32"/>
     <use x="311.71875" xlink:href="#DejaVuSans-30"/>
     <use x="375.341797" xlink:href="#DejaVuSans-30"/>
     <use x="438.964844" xlink:href="#DejaVuSans-39"/>
    </g>
   </g>
   <g id="text_15">
    <!-- bbob f108, 40-D -->
    <defs>
     <path d="M 19.671875 64.796875 
L 19.671875 8.109375 
L 31.59375 8.109375 
Q 46.6875 8.109375 53.6875 14.9375 
Q 60.6875 21.78125 60.6875 36.53125 
Q 60.6875 51.171875 53.6875 57.984375 
Q 46.6875 64.796875 31.59375 64.796875 
z
M 9.8125 72.90625 
L 30.078125 72.90625 
Q 51.265625 72.90625 61.171875 64.09375 
Q 71.09375 55.28125 71.09375 36.53125 
Q 71.09375 17.671875 61.125 8.828125 
Q 51.171875 0 30.078125 0 
L 9.8125 0 
z
" id="DejaVuSans-44"/>
    </defs>
    <g transform="translate(59.55864 35.290806)scale(0.102 -0.102)">
     <use xlink:href="#DejaVuSans-62"/>
     <use x="63.476562" xlink:href="#DejaVuSans-62"/>
     <use x="126.953125" xlink:href="#DejaVuSans-6f"/>
     <use x="188.134766" xlink:href="#DejaVuSans-62"/>
     <use x="251.611328" xlink:href="#DejaVuSans-20"/>
     <use x="283.398438" xlink:href="#DejaVuSans-66"/>
     <use x="318.603516" xlink:href="#DejaVuSans-31"/>
     <use x="382.226562" xlink:href="#DejaVuSans-30"/>
     <use x="445.849609" xlink:href="#DejaVuSans-38"/>
     <use x="509.472656" xlink:href="#DejaVuSans-2c"/>
     <use x="541.259766" xlink:href="#DejaVuSans-20"/>
     <use x="573.046875" xlink:href="#DejaVuSans-34"/>
     <use x="636.669922" xlink:href="#DejaVuSans-30"/>
     <use x="700.292969" xlink:href="#DejaVuSans-2d"/>
     <use x="736.376953" xlink:href="#DejaVuSans-44"/>
    </g>
    <!-- 51 targets: 100..1e-08 -->
    <defs>
     <path d="M 10.796875 72.90625 
L 49.515625 72.90625 
L 49.515625 64.59375 
L 19.828125 64.59375 
L 19.828125 46.734375 
Q 21.96875 47.46875 24.109375 47.828125 
Q 26.265625 48.1875 28.421875 48.1875 
Q 40.625 48.1875 47.75 41.5 
Q 54.890625 34.8125 54.890625 23.390625 
Q 54.890625 11.625 47.5625 5.09375 
Q 40.234375 -1.421875 26.90625 -1.421875 
Q 22.3125 -1.421875 17.546875 -0.640625 
Q 12.796875 0.140625 7.71875 1.703125 
L 7.71875 11.625 
Q 12.109375 9.234375 16.796875 8.0625 
Q 21.484375 6.890625 26.703125 6.890625 
Q 35.15625 6.890625 40.078125 11.328125 
Q 45.015625 15.765625 45.015625 23.390625 
Q 45.015625 31 40.078125 35.4375 
Q 35.15625 39.890625 26.703125 39.890625 
Q 22.75 39.890625 18.8125 39.015625 
Q 14.890625 38.140625 10.796875 36.28125 
z
" id="DejaVuSans-35"/>
     <path d="M 11.71875 12.40625 
L 22.015625 12.40625 
L 22.015625 0 
L 11.71875 0 
z
M 11.71875 51.703125 
L 22.015625 51.703125 
L 22.015625 39.3125 
L 11.71875 39.3125 
z
" id="DejaVuSans-3a"/>
    </defs>
    <g transform="translate(59.55864 46.712575)scale(0.102 -0.102)">
     <use xlink:href="#DejaVuSans-35"/>
     <use x="63.623047" xlink:href="#DejaVuSans-31"/>
     <use x="127.246094" xlink:href="#DejaVuSans-20"/>
     <use x="159.033203" xlink:href="#DejaVuSans-74"/>
     <use x="198.242188" xlink:href="#DejaVuSans-61"/>
     <use x="259.521484" xlink:href="#DejaVuSans-72"/>
     <use x="300.619141" xlink:href="#DejaVuSans-67"/>
     <use x="364.095703" xlink:href="#DejaVuSans-65"/>
     <use x="425.619141" xlink:href="#DejaVuSans-74"/>
     <use x="464.828125" xlink:href="#DejaVuSans-73"/>
     <use x="516.927734" xlink:href="#DejaVuSans-3a"/>
     <use x="550.619141" xlink:href="#DejaVuSans-20"/>
     <use x="582.40625" xlink:href="#DejaVuSans-31"/>
     <use x="646.029297" xlink:href="#DejaVuSans-30"/>
     <use x="709.652344" xlink:href="#DejaVuSans-30"/>
     <use x="773.275391" xlink:href="#DejaVuSans-2e"/>
     <use x="805.0625" xlink:href="#DejaVuSans-2e"/>
     <use x="836.849609" xlink:href="#DejaVuSans-31"/>
     <use x="900.472656" xlink:href="#DejaVuSans-65"/>
     <use x="961.996094" xlink:href="#DejaVuSans-2d"/>
     <use x="998.080078" xlink:href="#DejaVuSans-30"/>
     <use x="1061.703125" xlink:href="#DejaVuSans-38"/>
    </g>
    <!-- 15 instances -->
    <g transform="translate(59.55864 58.134344)scale(0.102 -0.102)">
     <use xlink:href="#DejaVuSans-31"/>
     <use x="63.623047" xlink:href="#DejaVuSans-35"/>
     <use x="127.246094" xlink:href="#DejaVuSans-20"/>
     <use x="159.033203" xlink:href="#DejaVuSans-69"/>
     <use x="186.816406" xlink:href="#DejaVuSans-6e"/>
     <use x="250.195312" xlink:href="#DejaVuSans-73"/>
     <use x="302.294922" xlink:href="#DejaVuSans-74"/>
     <use x="341.503906" xlink:href="#DejaVuSans-61"/>
     <use x="402.783203" xlink:href="#DejaVuSans-6e"/>
     <use x="466.162109" xlink:href="#DejaVuSans-63"/>
     <use x="521.142578" xlink:href="#DejaVuSans-65"/>
     <use x="582.666016" xlink:href="#DejaVuSans-73"/>
    </g>
   </g>
   <g id="text_16">
    <!-- v2.0.778 -->
    <defs>
     <path d="M 8.203125 72.90625 
L 55.078125 72.90625 
L 55.078125 68.703125 
L 28.609375 0 
L 18.3125 0 
L 43.21875 64.59375 
L 8.203125 64.59375 
z
" id="DejaVuSans-37"/>
    </defs>
    <g style="fill:#808080;" transform="translate(206.00825 290.099912)scale(0.1 -0.1)">
     <use xlink:href="#DejaVuSans-76"/>
     <use x="59.179688" xlink:href="#DejaVuSans-32"/>
     <use x="122.802734" xlink:href="#DejaVuSans-2e"/>
     <use x="154.589844" xlink:href="#DejaVuSans-30"/>
     <use x="218.212891" xlink:href="#DejaVuSans-2e"/>
     <use x="250" xlink:href="#DejaVuSans-37"/>
     <use x="313.623047" xlink:href="#DejaVuSans-37"/>
     <use x="377.246094" xlink:href="#DejaVuSans-38"/>
    </g>
   </g>
   <g id="text_17">
    <!-- 108 Sphere unif -->
    <defs>
     <path d="M 53.515625 70.515625 
L 53.515625 60.890625 
Q 47.90625 63.578125 42.921875 64.890625 
Q 37.9375 66.21875 33.296875 66.21875 
Q 25.25 66.21875 20.875 63.09375 
Q 16.5 59.96875 16.5 54.203125 
Q 16.5 49.359375 19.40625 46.890625 
Q 22.3125 44.4375 30.421875 42.921875 
L 36.375 41.703125 
Q 47.40625 39.59375 52.65625 34.296875 
Q 57.90625 29 57.90625 20.125 
Q 57.90625 9.515625 50.796875 4.046875 
Q 43.703125 -1.421875 29.984375 -1.421875 
Q 24.8125 -1.421875 18.96875 -0.25 
Q 13.140625 0.921875 6.890625 3.21875 
L 6.890625 13.375 
Q 12.890625 10.015625 18.65625 8.296875 
Q 24.421875 6.59375 29.984375 6.59375 
Q 38.421875 6.59375 43.015625 9.90625 
Q 47.609375 13.234375 47.609375 19.390625 
Q 47.609375 24.75 44.3125 27.78125 
Q 41.015625 30.8125 33.5 32.328125 
L 27.484375 33.5 
Q 16.453125 35.6875 11.515625 40.375 
Q 6.59375 45.0625 6.59375 53.421875 
Q 6.59375 63.09375 13.40625 68.65625 
Q 20.21875 74.21875 32.171875 74.21875 
Q 37.3125 74.21875 42.625 73.28125 
Q 47.953125 72.359375 53.515625 70.515625 
z
" id="DejaVuSans-53"/>
     <path d="M 54.890625 33.015625 
L 54.890625 0 
L 45.90625 0 
L 45.90625 32.71875 
Q 45.90625 40.484375 42.875 44.328125 
Q 39.84375 48.1875 33.796875 48.1875 
Q 26.515625 48.1875 22.3125 43.546875 
Q 18.109375 38.921875 18.109375 30.90625 
L 18.109375 0 
L 9.078125 0 
L 9.078125 75.984375 
L 18.109375 75.984375 
L 18.109375 46.1875 
Q 21.34375 51.125 25.703125 53.5625 
Q 30.078125 56 35.796875 56 
Q 45.21875 56 50.046875 50.171875 
Q 54.890625 44.34375 54.890625 33.015625 
z
" id="DejaVuSans-68"/>
    </defs>
    <g transform="translate(148.186375 18.84)scale(0.2 -0.2)">
     <use xlink:href="#DejaVuSans-31"/>
     <use x="63.623047" xlink:href="#DejaVuSans-30"/>
     <use x="127.246094" xlink:href="#DejaVuSans-38"/>
     <use x="190.869141" xlink:href="#DejaVuSans-20"/>
     <use x="222.65625" xlink:href="#DejaVuSans-53"/>
     <use x="286.132812" xlink:href="#DejaVuSans-70"/>
     <use x="349.609375" xlink:href="#DejaVuSans-68"/>
     <use x="412.988281" xlink:href="#DejaVuSans-65"/>
     <use x="474.511719" xlink:href="#DejaVuSans-72"/>
     <use x="515.59375" xlink:href="#DejaVuSans-65"/>
     <use x="577.117188" xlink:href="#DejaVuSans-20"/>
     <use x="608.904297" xlink:href="#DejaVuSans-75"/>
     <use x="672.283203" xlink:href="#DejaVuSans-6e"/>
     <use x="735.662109" xlink:href="#DejaVuSans-69"/>
     <use x="763.445312" xlink:href="#DejaVuSans-66"/>
    </g>
   </g>
  </g>
 </g>
 <defs>
  <clipPath id="pb08e75635a">
   <rect height="270.04" width="343.864" x="56.12" y="24.84"/>
  </clipPath>
 </defs>
</svg>
