<?xml version="1.0" encoding="utf-8" standalone="no"?>
<!DOCTYPE svg PUBLIC "-//W3C//DTD SVG 1.1//EN"
  "http://www.w3.org/Graphics/SVG/1.1/DTD/svg11.dtd">
<!-- Created with matplotlib (https://matplotlib.org/) -->
<svg height="345.6pt" version="1.1" viewBox="0 0 460.8 345.6" width="460.8pt" xmlns="http://www.w3.org/2000/svg" xmlns:xlink="http://www.w3.org/1999/xlink">
 <defs>
  <style type="text/css">
*{stroke-linecap:butt;stroke-linejoin:round;}
  </style>
 </defs>
 <g id="figure_1">
  <g id="patch_1">
   <path d="M 0 345.6 
L 460.8 345.6 
L 460.8 0 
L 0 0 
z
" style="fill:#ffffff;"/>
  </g>
  <g id="axes_1">
   <g id="patch_2">
    <path d="M 57.6 298.944 
L 338.688 298.944 
L 338.688 41.472 
L 57.6 41.472 
z
" style="fill:#ffffff;"/>
   </g>
   <g id="line2d_1">
    <path d="M 89.135256 298.944 
L 89.135256 294.54878 
L 140.874728 294.54878 
L 140.874728 285.758339 
L 142.017238 285.758339 
L 142.017238 276.967899 
L 143.511958 276.967899 
L 143.511958 272.572679 
L 145.868691 272.572679 
L 145.868691 259.387018 
L 149.209563 259.387018 
L 149.209563 250.596578 
L 154.010227 250.596578 
L 154.010227 246.201357 
L 158.643264 246.201357 
L 158.643264 237.410917 
L 161.854219 237.410917 
L 161.854219 224.225256 
L 167.931296 224.225256 
L 167.931296 215.434816 
L 184.996058 215.434816 
L 184.996058 206.644376 
L 186.435528 206.644376 
L 186.435528 197.853935 
L 187.900659 197.853935 
L 187.900659 193.458715 
L 190.015078 193.458715 
L 190.015078 180.273054 
L 224.429884 180.273054 
L 224.429884 175.877834 
L 229.621918 175.877834 
L 229.621918 162.692173 
L 245.72336 162.692173 
L 245.72336 153.901733 
L 259.53034 153.901733 
L 259.53034 149.506513 
L 282.643089 149.506513 
L 282.643089 136.320852 
L 283.241064 136.320852 
L 283.241064 131.925632 
L 297.850061 131.925632 
L 297.850061 118.739971 
L 338.688 118.739971 
" style="fill:none;stroke:#f5deb3;stroke-linecap:square;stroke-width:4;"/>
   </g>
   <g id="line2d_2">
    <defs>
     <path d="M 0 7.778175 
L 7.778175 0 
L 0 -7.778175 
L -7.778175 0 
z
" id="mffa493679d" style="stroke:#f5deb3;stroke-linejoin:miter;stroke-width:1.5;"/>
    </defs>
    <g>
     <use style="fill:#f5deb3;stroke:#f5deb3;stroke-linejoin:miter;stroke-width:1.5;" x="161.854219" xlink:href="#mffa493679d" y="237.410917"/>
     <use style="fill:#f5deb3;stroke:#f5deb3;stroke-linejoin:miter;stroke-width:1.5;" x="190.015078" xlink:href="#mffa493679d" y="180.273054"/>
     <use style="fill:#f5deb3;stroke:#f5deb3;stroke-linejoin:miter;stroke-width:1.5;" x="297.850061" xlink:href="#mffa493679d" y="131.925632"/>
     <use style="fill:#f5deb3;stroke:#f5deb3;stroke-linejoin:miter;stroke-width:1.5;" x="297.850061" xlink:href="#mffa493679d" y="118.739971"/>
     <use style="fill:#f5deb3;stroke:#f5deb3;stroke-linejoin:miter;stroke-width:1.5;" x="338.688" xlink:href="#mffa493679d" y="118.739971"/>
    </g>
   </g>
   <g id="line2d_3">
    <path style="fill:none;stroke:#f5deb3;stroke-linecap:square;stroke-width:4;"/>
    <g/>
   </g>
   <g id="line2d_4">
    <path d="M 338.688 118.739971 
L 369.60768 49.119683 
" style="fill:none;stroke:#f5deb3;stroke-linecap:square;stroke-width:4;"/>
    <g>
     <use style="fill:#f5deb3;stroke:#f5deb3;stroke-linejoin:miter;stroke-width:1.5;" x="338.688" xlink:href="#mffa493679d" y="118.739971"/>
     <use style="fill:#f5deb3;stroke:#f5deb3;stroke-linejoin:miter;stroke-width:1.5;" x="369.60768" xlink:href="#mffa493679d" y="49.119683"/>
    </g>
   </g>
   <g id="matplotlib.axis_1">
    <g id="xtick_1">
     <g id="line2d_5">
      <path clip-path="url(#pa9028c4cd5)" d="M 57.6 298.944 
L 57.6 41.472 
" style="fill:none;stroke:#b0b0b0;stroke-linecap:square;stroke-width:0.8;"/>
     </g>
     <g id="line2d_6">
      <defs>
       <path d="M 0 0 
L 0 3.5 
" id="mf6135c4225" style="stroke:#000000;stroke-width:0.8;"/>
      </defs>
      <g>
       <use style="stroke:#000000;stroke-width:0.8;" x="57.6" xlink:href="#mf6135c4225" y="298.944"/>
      </g>
     </g>
     <g id="text_1">
      <!-- 0 -->
      <defs>
       <path d="M 31.78125 66.40625 
Q 24.171875 66.40625 20.328125 58.90625 
Q 16.5 51.421875 16.5 36.375 
Q 16.5 21.390625 20.328125 13.890625 
Q 24.171875 6.390625 31.78125 6.390625 
Q 39.453125 6.390625 43.28125 13.890625 
Q 47.125 21.390625 47.125 36.375 
Q 47.125 51.421875 43.28125 58.90625 
Q 39.453125 66.40625 31.78125 66.40625 
z
M 31.78125 74.21875 
Q 44.046875 74.21875 50.515625 64.515625 
Q 56.984375 54.828125 56.984375 36.375 
Q 56.984375 17.96875 50.515625 8.265625 
Q 44.046875 -1.421875 31.78125 -1.421875 
Q 19.53125 -1.421875 13.0625 8.265625 
Q 6.59375 17.96875 6.59375 36.375 
Q 6.59375 54.828125 13.0625 64.515625 
Q 19.53125 74.21875 31.78125 74.21875 
z
" id="DejaVuSans-48"/>
      </defs>
      <g transform="translate(51.2375 321.140875)scale(0.2 -0.2)">
       <use xlink:href="#DejaVuSans-48"/>
      </g>
     </g>
    </g>
    <g id="xtick_2">
     <g id="line2d_7">
      <path clip-path="url(#pa9028c4cd5)" d="M 137.910857 298.944 
L 137.910857 41.472 
" style="fill:none;stroke:#b0b0b0;stroke-linecap:square;stroke-width:0.8;"/>
     </g>
     <g id="line2d_8">
      <g>
       <use style="stroke:#000000;stroke-width:0.8;" x="137.910857" xlink:href="#mf6135c4225" y="298.944"/>
      </g>
     </g>
     <g id="text_2">
      <!-- 2 -->
      <defs>
       <path d="M 19.1875 8.296875 
L 53.609375 8.296875 
L 53.609375 0 
L 7.328125 0 
L 7.328125 8.296875 
Q 12.9375 14.109375 22.625 23.890625 
Q 32.328125 33.6875 34.8125 36.53125 
Q 39.546875 41.84375 41.421875 45.53125 
Q 43.3125 49.21875 43.3125 52.78125 
Q 43.3125 58.59375 39.234375 62.25 
Q 35.15625 65.921875 28.609375 65.921875 
Q 23.96875 65.921875 18.8125 64.3125 
Q 13.671875 62.703125 7.8125 59.421875 
L 7.8125 69.390625 
Q 13.765625 71.78125 18.9375 73 
Q 24.125 74.21875 28.421875 74.21875 
Q 39.75 74.21875 46.484375 68.546875 
Q 53.21875 62.890625 53.21875 53.421875 
Q 53.21875 48.921875 51.53125 44.890625 
Q 49.859375 40.875 45.40625 35.40625 
Q 44.1875 33.984375 37.640625 27.21875 
Q 31.109375 20.453125 19.1875 8.296875 
z
" id="DejaVuSans-50"/>
      </defs>
      <g transform="translate(131.548357 321.140875)scale(0.2 -0.2)">
       <use xlink:href="#DejaVuSans-50"/>
      </g>
     </g>
    </g>
    <g id="xtick_3">
     <g id="line2d_9">
      <path clip-path="url(#pa9028c4cd5)" d="M 218.221714 298.944 
L 218.221714 41.472 
" style="fill:none;stroke:#b0b0b0;stroke-linecap:square;stroke-width:0.8;"/>
     </g>
     <g id="line2d_10">
      <g>
       <use style="stroke:#000000;stroke-width:0.8;" x="218.221714" xlink:href="#mf6135c4225" y="298.944"/>
      </g>
     </g>
     <g id="text_3">
      <!-- 4 -->
      <defs>
       <path d="M 37.796875 64.3125 
L 12.890625 25.390625 
L 37.796875 25.390625 
z
M 35.203125 72.90625 
L 47.609375 72.90625 
L 47.609375 25.390625 
L 58.015625 25.390625 
L 58.015625 17.1875 
L 47.609375 17.1875 
L 47.609375 0 
L 37.796875 0 
L 37.796875 17.1875 
L 4.890625 17.1875 
L 4.890625 26.703125 
z
" id="DejaVuSans-52"/>
      </defs>
      <g transform="translate(211.859214 321.140875)scale(0.2 -0.2)">
       <use xlink:href="#DejaVuSans-52"/>
      </g>
     </g>
    </g>
    <g id="xtick_4">
     <g id="line2d_11">
      <path clip-path="url(#pa9028c4cd5)" d="M 298.532571 298.944 
L 298.532571 41.472 
" style="fill:none;stroke:#b0b0b0;stroke-linecap:square;stroke-width:0.8;"/>
     </g>
     <g id="line2d_12">
      <g>
       <use style="stroke:#000000;stroke-width:0.8;" x="298.532571" xlink:href="#mf6135c4225" y="298.944"/>
      </g>
     </g>
     <g id="text_4">
      <!-- 6 -->
      <defs>
       <path d="M 33.015625 40.375 
Q 26.375 40.375 22.484375 35.828125 
Q 18.609375 31.296875 18.609375 23.390625 
Q 18.609375 15.53125 22.484375 10.953125 
Q 26.375 6.390625 33.015625 6.390625 
Q 39.65625 6.390625 43.53125 10.953125 
Q 47.40625 15.53125 47.40625 23.390625 
Q 47.40625 31.296875 43.53125 35.828125 
Q 39.65625 40.375 33.015625 40.375 
z
M 52.59375 71.296875 
L 52.59375 62.3125 
Q 48.875 64.0625 45.09375 64.984375 
Q 41.3125 65.921875 37.59375 65.921875 
Q 27.828125 65.921875 22.671875 59.328125 
Q 17.53125 52.734375 16.796875 39.40625 
Q 19.671875 43.65625 24.015625 45.921875 
Q 28.375 48.1875 33.59375 48.1875 
Q 44.578125 48.1875 50.953125 41.515625 
Q 57.328125 34.859375 57.328125 23.390625 
Q 57.328125 12.15625 50.6875 5.359375 
Q 44.046875 -1.421875 33.015625 -1.421875 
Q 20.359375 -1.421875 13.671875 8.265625 
Q 6.984375 17.96875 6.984375 36.375 
Q 6.984375 53.65625 15.1875 63.9375 
Q 23.390625 74.21875 37.203125 74.21875 
Q 40.921875 74.21875 44.703125 73.484375 
Q 48.484375 72.75 52.59375 71.296875 
z
" id="DejaVuSans-54"/>
      </defs>
      <g transform="translate(292.170071 321.140875)scale(0.2 -0.2)">
       <use xlink:href="#DejaVuSans-54"/>
      </g>
     </g>
    </g>
    <g id="xtick_5">
     <g id="line2d_13">
      <path clip-path="url(#pa9028c4cd5)" d="M 57.6 298.944 
L 57.6 41.472 
" style="fill:none;stroke:#b0b0b0;stroke-linecap:square;stroke-width:0.8;"/>
     </g>
     <g id="line2d_14">
      <defs>
       <path d="M 0 0 
L 0 2 
" id="m04868913db" style="stroke:#000000;stroke-width:0.6;"/>
      </defs>
      <g>
       <use style="stroke:#000000;stroke-width:0.6;" x="57.6" xlink:href="#m04868913db" y="298.944"/>
      </g>
     </g>
    </g>
    <g id="xtick_6">
     <g id="line2d_15">
      <path clip-path="url(#pa9028c4cd5)" d="M 97.755429 298.944 
L 97.755429 41.472 
" style="fill:none;stroke:#b0b0b0;stroke-linecap:square;stroke-width:0.8;"/>
     </g>
     <g id="line2d_16">
      <g>
       <use style="stroke:#000000;stroke-width:0.6;" x="97.755429" xlink:href="#m04868913db" y="298.944"/>
      </g>
     </g>
    </g>
    <g id="xtick_7">
     <g id="line2d_17">
      <path clip-path="url(#pa9028c4cd5)" d="M 137.910857 298.944 
L 137.910857 41.472 
" style="fill:none;stroke:#b0b0b0;stroke-linecap:square;stroke-width:0.8;"/>
     </g>
     <g id="line2d_18">
      <g>
       <use style="stroke:#000000;stroke-width:0.6;" x="137.910857" xlink:href="#m04868913db" y="298.944"/>
      </g>
     </g>
    </g>
    <g id="xtick_8">
     <g id="line2d_19">
      <path clip-path="url(#pa9028c4cd5)" d="M 178.066286 298.944 
L 178.066286 41.472 
" style="fill:none;stroke:#b0b0b0;stroke-linecap:square;stroke-width:0.8;"/>
     </g>
     <g id="line2d_20">
      <g>
       <use style="stroke:#000000;stroke-width:0.6;" x="178.066286" xlink:href="#m04868913db" y="298.944"/>
      </g>
     </g>
    </g>
    <g id="xtick_9">
     <g id="line2d_21">
      <path clip-path="url(#pa9028c4cd5)" d="M 218.221714 298.944 
L 218.221714 41.472 
" style="fill:none;stroke:#b0b0b0;stroke-linecap:square;stroke-width:0.8;"/>
     </g>
     <g id="line2d_22">
      <g>
       <use style="stroke:#000000;stroke-width:0.6;" x="218.221714" xlink:href="#m04868913db" y="298.944"/>
      </g>
     </g>
    </g>
    <g id="xtick_10">
     <g id="line2d_23">
      <path clip-path="url(#pa9028c4cd5)" d="M 258.377143 298.944 
L 258.377143 41.472 
" style="fill:none;stroke:#b0b0b0;stroke-linecap:square;stroke-width:0.8;"/>
     </g>
     <g id="line2d_24">
      <g>
       <use style="stroke:#000000;stroke-width:0.6;" x="258.377143" xlink:href="#m04868913db" y="298.944"/>
      </g>
     </g>
    </g>
    <g id="xtick_11">
     <g id="line2d_25">
      <path clip-path="url(#pa9028c4cd5)" d="M 298.532571 298.944 
L 298.532571 41.472 
" style="fill:none;stroke:#b0b0b0;stroke-linecap:square;stroke-width:0.8;"/>
     </g>
     <g id="line2d_26">
      <g>
       <use style="stroke:#000000;stroke-width:0.6;" x="298.532571" xlink:href="#m04868913db" y="298.944"/>
      </g>
     </g>
    </g>
    <g id="xtick_12">
     <g id="line2d_27">
      <path clip-path="url(#pa9028c4cd5)" d="M 338.688 298.944 
L 338.688 41.472 
" style="fill:none;stroke:#b0b0b0;stroke-linecap:square;stroke-width:0.8;"/>
     </g>
     <g id="line2d_28">
      <g>
       <use style="stroke:#000000;stroke-width:0.6;" x="338.688" xlink:href="#m04868913db" y="298.944"/>
      </g>
     </g>
    </g>
    <g id="text_5">
     <!-- log10(# f-evals / dimension) -->
     <defs>
      <path d="M 9.421875 75.984375 
L 18.40625 75.984375 
L 18.40625 0 
L 9.421875 0 
z
" id="DejaVuSans-108"/>
      <path d="M 30.609375 48.390625 
Q 23.390625 48.390625 19.1875 42.75 
Q 14.984375 37.109375 14.984375 27.296875 
Q 14.984375 17.484375 19.15625 11.84375 
Q 23.34375 6.203125 30.609375 6.203125 
Q 37.796875 6.203125 41.984375 11.859375 
Q 46.1875 17.53125 46.1875 27.296875 
Q 46.1875 37.015625 41.984375 42.703125 
Q 37.796875 48.390625 30.609375 48.390625 
z
M 30.609375 56 
Q 42.328125 56 49.015625 48.375 
Q 55.71875 40.765625 55.71875 27.296875 
Q 55.71875 13.875 49.015625 6.21875 
Q 42.328125 -1.421875 30.609375 -1.421875 
Q 18.84375 -1.421875 12.171875 6.21875 
Q 5.515625 13.875 5.515625 27.296875 
Q 5.515625 40.765625 12.171875 48.375 
Q 18.84375 56 30.609375 56 
z
" id="DejaVuSans-111"/>
      <path d="M 45.40625 27.984375 
Q 45.40625 37.75 41.375 43.109375 
Q 37.359375 48.484375 30.078125 48.484375 
Q 22.859375 48.484375 18.828125 43.109375 
Q 14.796875 37.75 14.796875 27.984375 
Q 14.796875 18.265625 18.828125 12.890625 
Q 22.859375 7.515625 30.078125 7.515625 
Q 37.359375 7.515625 41.375 12.890625 
Q 45.40625 18.265625 45.40625 27.984375 
z
M 54.390625 6.78125 
Q 54.390625 -7.171875 48.1875 -13.984375 
Q 42 -20.796875 29.203125 -20.796875 
Q 24.46875 -20.796875 20.265625 -20.09375 
Q 16.0625 -19.390625 12.109375 -17.921875 
L 12.109375 -9.1875 
Q 16.0625 -11.328125 19.921875 -12.34375 
Q 23.78125 -13.375 27.78125 -13.375 
Q 36.625 -13.375 41.015625 -8.765625 
Q 45.40625 -4.15625 45.40625 5.171875 
L 45.40625 9.625 
Q 42.625 4.78125 38.28125 2.390625 
Q 33.9375 0 27.875 0 
Q 17.828125 0 11.671875 7.65625 
Q 5.515625 15.328125 5.515625 27.984375 
Q 5.515625 40.671875 11.671875 48.328125 
Q 17.828125 56 27.875 56 
Q 33.9375 56 38.28125 53.609375 
Q 42.625 51.21875 45.40625 46.390625 
L 45.40625 54.6875 
L 54.390625 54.6875 
z
" id="DejaVuSans-103"/>
      <path d="M 12.40625 8.296875 
L 28.515625 8.296875 
L 28.515625 63.921875 
L 10.984375 60.40625 
L 10.984375 69.390625 
L 28.421875 72.90625 
L 38.28125 72.90625 
L 38.28125 8.296875 
L 54.390625 8.296875 
L 54.390625 0 
L 12.40625 0 
z
" id="DejaVuSans-49"/>
      <path d="M 31 75.875 
Q 24.46875 64.65625 21.28125 53.65625 
Q 18.109375 42.671875 18.109375 31.390625 
Q 18.109375 20.125 21.3125 9.0625 
Q 24.515625 -2 31 -13.1875 
L 23.1875 -13.1875 
Q 15.875 -1.703125 12.234375 9.375 
Q 8.59375 20.453125 8.59375 31.390625 
Q 8.59375 42.28125 12.203125 53.3125 
Q 15.828125 64.359375 23.1875 75.875 
z
" id="DejaVuSans-40"/>
      <path d="M 51.125 44 
L 36.921875 44 
L 32.8125 27.6875 
L 47.125 27.6875 
z
M 43.796875 71.78125 
L 38.71875 51.515625 
L 52.984375 51.515625 
L 58.109375 71.78125 
L 65.921875 71.78125 
L 60.890625 51.515625 
L 76.125 51.515625 
L 76.125 44 
L 58.984375 44 
L 54.984375 27.6875 
L 70.515625 27.6875 
L 70.515625 20.21875 
L 53.078125 20.21875 
L 48 0 
L 40.1875 0 
L 45.21875 20.21875 
L 30.90625 20.21875 
L 25.875 0 
L 18.015625 0 
L 23.09375 20.21875 
L 7.71875 20.21875 
L 7.71875 27.6875 
L 24.90625 27.6875 
L 29 44 
L 13.28125 44 
L 13.28125 51.515625 
L 30.90625 51.515625 
L 35.890625 71.78125 
z
" id="DejaVuSans-35"/>
      <path id="DejaVuSans-32"/>
      <path d="M 37.109375 75.984375 
L 37.109375 68.5 
L 28.515625 68.5 
Q 23.6875 68.5 21.796875 66.546875 
Q 19.921875 64.59375 19.921875 59.515625 
L 19.921875 54.6875 
L 34.71875 54.6875 
L 34.71875 47.703125 
L 19.921875 47.703125 
L 19.921875 0 
L 10.890625 0 
L 10.890625 47.703125 
L 2.296875 47.703125 
L 2.296875 54.6875 
L 10.890625 54.6875 
L 10.890625 58.5 
Q 10.890625 67.625 15.140625 71.796875 
Q 19.390625 75.984375 28.609375 75.984375 
z
" id="DejaVuSans-102"/>
      <path d="M 4.890625 31.390625 
L 31.203125 31.390625 
L 31.203125 23.390625 
L 4.890625 23.390625 
z
" id="DejaVuSans-45"/>
      <path d="M 56.203125 29.59375 
L 56.203125 25.203125 
L 14.890625 25.203125 
Q 15.484375 15.921875 20.484375 11.0625 
Q 25.484375 6.203125 34.421875 6.203125 
Q 39.59375 6.203125 44.453125 7.46875 
Q 49.3125 8.734375 54.109375 11.28125 
L 54.109375 2.78125 
Q 49.265625 0.734375 44.1875 -0.34375 
Q 39.109375 -1.421875 33.890625 -1.421875 
Q 20.796875 -1.421875 13.15625 6.1875 
Q 5.515625 13.8125 5.515625 26.8125 
Q 5.515625 40.234375 12.765625 48.109375 
Q 20.015625 56 32.328125 56 
Q 43.359375 56 49.78125 48.890625 
Q 56.203125 41.796875 56.203125 29.59375 
z
M 47.21875 32.234375 
Q 47.125 39.59375 43.09375 43.984375 
Q 39.0625 48.390625 32.421875 48.390625 
Q 24.90625 48.390625 20.390625 44.140625 
Q 15.875 39.890625 15.1875 32.171875 
z
" id="DejaVuSans-101"/>
      <path d="M 2.984375 54.6875 
L 12.5 54.6875 
L 29.59375 8.796875 
L 46.6875 54.6875 
L 56.203125 54.6875 
L 35.6875 0 
L 23.484375 0 
z
" id="DejaVuSans-118"/>
      <path d="M 34.28125 27.484375 
Q 23.390625 27.484375 19.1875 25 
Q 14.984375 22.515625 14.984375 16.5 
Q 14.984375 11.71875 18.140625 8.90625 
Q 21.296875 6.109375 26.703125 6.109375 
Q 34.1875 6.109375 38.703125 11.40625 
Q 43.21875 16.703125 43.21875 25.484375 
L 43.21875 27.484375 
z
M 52.203125 31.203125 
L 52.203125 0 
L 43.21875 0 
L 43.21875 8.296875 
Q 40.140625 3.328125 35.546875 0.953125 
Q 30.953125 -1.421875 24.3125 -1.421875 
Q 15.921875 -1.421875 10.953125 3.296875 
Q 6 8.015625 6 15.921875 
Q 6 25.140625 12.171875 29.828125 
Q 18.359375 34.515625 30.609375 34.515625 
L 43.21875 34.515625 
L 43.21875 35.40625 
Q 43.21875 41.609375 39.140625 45 
Q 35.0625 48.390625 27.6875 48.390625 
Q 23 48.390625 18.546875 47.265625 
Q 14.109375 46.140625 10.015625 43.890625 
L 10.015625 52.203125 
Q 14.9375 54.109375 19.578125 55.046875 
Q 24.21875 56 28.609375 56 
Q 40.484375 56 46.34375 49.84375 
Q 52.203125 43.703125 52.203125 31.203125 
z
" id="DejaVuSans-97"/>
      <path d="M 44.28125 53.078125 
L 44.28125 44.578125 
Q 40.484375 46.53125 36.375 47.5 
Q 32.28125 48.484375 27.875 48.484375 
Q 21.1875 48.484375 17.84375 46.4375 
Q 14.5 44.390625 14.5 40.28125 
Q 14.5 37.15625 16.890625 35.375 
Q 19.28125 33.59375 26.515625 31.984375 
L 29.59375 31.296875 
Q 39.15625 29.25 43.1875 25.515625 
Q 47.21875 21.78125 47.21875 15.09375 
Q 47.21875 7.46875 41.1875 3.015625 
Q 35.15625 -1.421875 24.609375 -1.421875 
Q 20.21875 -1.421875 15.453125 -0.5625 
Q 10.6875 0.296875 5.421875 2 
L 5.421875 11.28125 
Q 10.40625 8.6875 15.234375 7.390625 
Q 20.0625 6.109375 24.8125 6.109375 
Q 31.15625 6.109375 34.5625 8.28125 
Q 37.984375 10.453125 37.984375 14.40625 
Q 37.984375 18.0625 35.515625 20.015625 
Q 33.0625 21.96875 24.703125 23.78125 
L 21.578125 24.515625 
Q 13.234375 26.265625 9.515625 29.90625 
Q 5.8125 33.546875 5.8125 39.890625 
Q 5.8125 47.609375 11.28125 51.796875 
Q 16.75 56 26.8125 56 
Q 31.78125 56 36.171875 55.265625 
Q 40.578125 54.546875 44.28125 53.078125 
z
" id="DejaVuSans-115"/>
      <path d="M 25.390625 72.90625 
L 33.6875 72.90625 
L 8.296875 -9.28125 
L 0 -9.28125 
z
" id="DejaVuSans-47"/>
      <path d="M 45.40625 46.390625 
L 45.40625 75.984375 
L 54.390625 75.984375 
L 54.390625 0 
L 45.40625 0 
L 45.40625 8.203125 
Q 42.578125 3.328125 38.25 0.953125 
Q 33.9375 -1.421875 27.875 -1.421875 
Q 17.96875 -1.421875 11.734375 6.484375 
Q 5.515625 14.40625 5.515625 27.296875 
Q 5.515625 40.1875 11.734375 48.09375 
Q 17.96875 56 27.875 56 
Q 33.9375 56 38.25 53.625 
Q 42.578125 51.265625 45.40625 46.390625 
z
M 14.796875 27.296875 
Q 14.796875 17.390625 18.875 11.75 
Q 22.953125 6.109375 30.078125 6.109375 
Q 37.203125 6.109375 41.296875 11.75 
Q 45.40625 17.390625 45.40625 27.296875 
Q 45.40625 37.203125 41.296875 42.84375 
Q 37.203125 48.484375 30.078125 48.484375 
Q 22.953125 48.484375 18.875 42.84375 
Q 14.796875 37.203125 14.796875 27.296875 
z
" id="DejaVuSans-100"/>
      <path d="M 9.421875 54.6875 
L 18.40625 54.6875 
L 18.40625 0 
L 9.421875 0 
z
M 9.421875 75.984375 
L 18.40625 75.984375 
L 18.40625 64.59375 
L 9.421875 64.59375 
z
" id="DejaVuSans-105"/>
      <path d="M 52 44.1875 
Q 55.375 50.25 60.0625 53.125 
Q 64.75 56 71.09375 56 
Q 79.640625 56 84.28125 50.015625 
Q 88.921875 44.046875 88.921875 33.015625 
L 88.921875 0 
L 79.890625 0 
L 79.890625 32.71875 
Q 79.890625 40.578125 77.09375 44.375 
Q 74.3125 48.1875 68.609375 48.1875 
Q 61.625 48.1875 57.5625 43.546875 
Q 53.515625 38.921875 53.515625 30.90625 
L 53.515625 0 
L 44.484375 0 
L 44.484375 32.71875 
Q 44.484375 40.625 41.703125 44.40625 
Q 38.921875 48.1875 33.109375 48.1875 
Q 26.21875 48.1875 22.15625 43.53125 
Q 18.109375 38.875 18.109375 30.90625 
L 18.109375 0 
L 9.078125 0 
L 9.078125 54.6875 
L 18.109375 54.6875 
L 18.109375 46.1875 
Q 21.1875 51.21875 25.484375 53.609375 
Q 29.78125 56 35.6875 56 
Q 41.65625 56 45.828125 52.96875 
Q 50 49.953125 52 44.1875 
z
" id="DejaVuSans-109"/>
      <path d="M 54.890625 33.015625 
L 54.890625 0 
L 45.90625 0 
L 45.90625 32.71875 
Q 45.90625 40.484375 42.875 44.328125 
Q 39.84375 48.1875 33.796875 48.1875 
Q 26.515625 48.1875 22.3125 43.546875 
Q 18.109375 38.921875 18.109375 30.90625 
L 18.109375 0 
L 9.078125 0 
L 9.078125 54.6875 
L 18.109375 54.6875 
L 18.109375 46.1875 
Q 21.34375 51.125 25.703125 53.5625 
Q 30.078125 56 35.796875 56 
Q 45.21875 56 50.046875 50.171875 
Q 54.890625 44.34375 54.890625 33.015625 
z
" id="DejaVuSans-110"/>
      <path d="M 8.015625 75.875 
L 15.828125 75.875 
Q 23.140625 64.359375 26.78125 53.3125 
Q 30.421875 42.28125 30.421875 31.390625 
Q 30.421875 20.453125 26.78125 9.375 
Q 23.140625 -1.703125 15.828125 -13.1875 
L 8.015625 -13.1875 
Q 14.5 -2 17.703125 9.0625 
Q 20.90625 20.125 20.90625 31.390625 
Q 20.90625 42.671875 17.703125 53.65625 
Q 14.5 64.65625 8.015625 75.875 
z
" id="DejaVuSans-41"/>
     </defs>
     <g transform="translate(77.303219 342.217594)scale(0.17 -0.17)">
      <use xlink:href="#DejaVuSans-108"/>
      <use x="27.783203" xlink:href="#DejaVuSans-111"/>
      <use x="88.964844" xlink:href="#DejaVuSans-103"/>
      <use x="152.441406" xlink:href="#DejaVuSans-49"/>
      <use x="216.064453" xlink:href="#DejaVuSans-48"/>
      <use x="279.6875" xlink:href="#DejaVuSans-40"/>
      <use x="318.701172" xlink:href="#DejaVuSans-35"/>
      <use x="402.490234" xlink:href="#DejaVuSans-32"/>
      <use x="434.277344" xlink:href="#DejaVuSans-102"/>
      <use x="469.404297" xlink:href="#DejaVuSans-45"/>
      <use x="505.488281" xlink:href="#DejaVuSans-101"/>
      <use x="567.011719" xlink:href="#DejaVuSans-118"/>
      <use x="626.191406" xlink:href="#DejaVuSans-97"/>
      <use x="687.470703" xlink:href="#DejaVuSans-108"/>
      <use x="715.253906" xlink:href="#DejaVuSans-115"/>
      <use x="767.353516" xlink:href="#DejaVuSans-32"/>
      <use x="799.140625" xlink:href="#DejaVuSans-47"/>
      <use x="832.832031" xlink:href="#DejaVuSans-32"/>
      <use x="864.619141" xlink:href="#DejaVuSans-100"/>
      <use x="928.095703" xlink:href="#DejaVuSans-105"/>
      <use x="955.878906" xlink:href="#DejaVuSans-109"/>
      <use x="1053.291016" xlink:href="#DejaVuSans-101"/>
      <use x="1114.814453" xlink:href="#DejaVuSans-110"/>
      <use x="1178.193359" xlink:href="#DejaVuSans-115"/>
      <use x="1230.292969" xlink:href="#DejaVuSans-105"/>
      <use x="1258.076172" xlink:href="#DejaVuSans-111"/>
      <use x="1319.257812" xlink:href="#DejaVuSans-110"/>
      <use x="1382.636719" xlink:href="#DejaVuSans-41"/>
     </g>
    </g>
   </g>
   <g id="matplotlib.axis_2">
    <g id="ytick_1">
     <g id="line2d_29">
      <path clip-path="url(#pa9028c4cd5)" d="M 57.6 298.944 
L 338.688 298.944 
" style="fill:none;stroke:#b0b0b0;stroke-linecap:square;stroke-width:0.8;"/>
     </g>
     <g id="line2d_30">
      <defs>
       <path d="M 0 0 
L -3.5 0 
" id="mfc2a9af911" style="stroke:#000000;stroke-width:0.8;"/>
      </defs>
      <g>
       <use style="stroke:#000000;stroke-width:0.8;" x="57.6" xlink:href="#mfc2a9af911" y="298.944"/>
      </g>
     </g>
     <g id="text_6">
      <!-- 0.0 -->
      <defs>
       <path d="M 10.6875 12.40625 
L 21 12.40625 
L 21 0 
L 10.6875 0 
z
" id="DejaVuSans-46"/>
      </defs>
      <g transform="translate(25.155 305.02275)scale(0.16 -0.16)">
       <use xlink:href="#DejaVuSans-48"/>
       <use x="63.623047" xlink:href="#DejaVuSans-46"/>
       <use x="95.410156" xlink:href="#DejaVuSans-48"/>
      </g>
     </g>
    </g>
    <g id="ytick_2">
     <g id="line2d_31">
      <path clip-path="url(#pa9028c4cd5)" d="M 57.6 247.959446 
L 338.688 247.959446 
" style="fill:none;stroke:#b0b0b0;stroke-linecap:square;stroke-width:0.8;"/>
     </g>
     <g id="line2d_32">
      <g>
       <use style="stroke:#000000;stroke-width:0.8;" x="57.6" xlink:href="#mfc2a9af911" y="247.959446"/>
      </g>
     </g>
     <g id="text_7">
      <!-- 0.2 -->
      <g transform="translate(25.155 254.038196)scale(0.16 -0.16)">
       <use xlink:href="#DejaVuSans-48"/>
       <use x="63.623047" xlink:href="#DejaVuSans-46"/>
       <use x="95.410156" xlink:href="#DejaVuSans-50"/>
      </g>
     </g>
    </g>
    <g id="ytick_3">
     <g id="line2d_33">
      <path clip-path="url(#pa9028c4cd5)" d="M 57.6 196.974891 
L 338.688 196.974891 
" style="fill:none;stroke:#b0b0b0;stroke-linecap:square;stroke-width:0.8;"/>
     </g>
     <g id="line2d_34">
      <g>
       <use style="stroke:#000000;stroke-width:0.8;" x="57.6" xlink:href="#mfc2a9af911" y="196.974891"/>
      </g>
     </g>
     <g id="text_8">
      <!-- 0.4 -->
      <g transform="translate(25.155 203.053641)scale(0.16 -0.16)">
       <use xlink:href="#DejaVuSans-48"/>
       <use x="63.623047" xlink:href="#DejaVuSans-46"/>
       <use x="95.410156" xlink:href="#DejaVuSans-52"/>
      </g>
     </g>
    </g>
    <g id="ytick_4">
     <g id="line2d_35">
      <path clip-path="url(#pa9028c4cd5)" d="M 57.6 145.990337 
L 338.688 145.990337 
" style="fill:none;stroke:#b0b0b0;stroke-linecap:square;stroke-width:0.8;"/>
     </g>
     <g id="line2d_36">
      <g>
       <use style="stroke:#000000;stroke-width:0.8;" x="57.6" xlink:href="#mfc2a9af911" y="145.990337"/>
      </g>
     </g>
     <g id="text_9">
      <!-- 0.6 -->
      <g transform="translate(25.155 152.069087)scale(0.16 -0.16)">
       <use xlink:href="#DejaVuSans-48"/>
       <use x="63.623047" xlink:href="#DejaVuSans-46"/>
       <use x="95.410156" xlink:href="#DejaVuSans-54"/>
      </g>
     </g>
    </g>
    <g id="ytick_5">
     <g id="line2d_37">
      <path clip-path="url(#pa9028c4cd5)" d="M 57.6 95.005782 
L 338.688 95.005782 
" style="fill:none;stroke:#b0b0b0;stroke-linecap:square;stroke-width:0.8;"/>
     </g>
     <g id="line2d_38">
      <g>
       <use style="stroke:#000000;stroke-width:0.8;" x="57.6" xlink:href="#mfc2a9af911" y="95.005782"/>
      </g>
     </g>
     <g id="text_10">
      <!-- 0.8 -->
      <defs>
       <path d="M 31.78125 34.625 
Q 24.75 34.625 20.71875 30.859375 
Q 16.703125 27.09375 16.703125 20.515625 
Q 16.703125 13.921875 20.71875 10.15625 
Q 24.75 6.390625 31.78125 6.390625 
Q 38.8125 6.390625 42.859375 10.171875 
Q 46.921875 13.96875 46.921875 20.515625 
Q 46.921875 27.09375 42.890625 30.859375 
Q 38.875 34.625 31.78125 34.625 
z
M 21.921875 38.8125 
Q 15.578125 40.375 12.03125 44.71875 
Q 8.5 49.078125 8.5 55.328125 
Q 8.5 64.0625 14.71875 69.140625 
Q 20.953125 74.21875 31.78125 74.21875 
Q 42.671875 74.21875 48.875 69.140625 
Q 55.078125 64.0625 55.078125 55.328125 
Q 55.078125 49.078125 51.53125 44.71875 
Q 48 40.375 41.703125 38.8125 
Q 48.828125 37.15625 52.796875 32.3125 
Q 56.78125 27.484375 56.78125 20.515625 
Q 56.78125 9.90625 50.3125 4.234375 
Q 43.84375 -1.421875 31.78125 -1.421875 
Q 19.734375 -1.421875 13.25 4.234375 
Q 6.78125 9.90625 6.78125 20.515625 
Q 6.78125 27.484375 10.78125 32.3125 
Q 14.796875 37.15625 21.921875 38.8125 
z
M 18.3125 54.390625 
Q 18.3125 48.734375 21.84375 45.5625 
Q 25.390625 42.390625 31.78125 42.390625 
Q 38.140625 42.390625 41.71875 45.5625 
Q 45.3125 48.734375 45.3125 54.390625 
Q 45.3125 60.0625 41.71875 63.234375 
Q 38.140625 66.40625 31.78125 66.40625 
Q 25.390625 66.40625 21.84375 63.234375 
Q 18.3125 60.0625 18.3125 54.390625 
z
" id="DejaVuSans-56"/>
      </defs>
      <g transform="translate(25.155 101.084532)scale(0.16 -0.16)">
       <use xlink:href="#DejaVuSans-48"/>
       <use x="63.623047" xlink:href="#DejaVuSans-46"/>
       <use x="95.410156" xlink:href="#DejaVuSans-56"/>
      </g>
     </g>
    </g>
    <g id="ytick_6">
     <g id="line2d_39">
      <path clip-path="url(#pa9028c4cd5)" d="M 57.6 44.021228 
L 338.688 44.021228 
" style="fill:none;stroke:#b0b0b0;stroke-linecap:square;stroke-width:0.8;"/>
     </g>
     <g id="line2d_40">
      <g>
       <use style="stroke:#000000;stroke-width:0.8;" x="57.6" xlink:href="#mfc2a9af911" y="44.021228"/>
      </g>
     </g>
     <g id="text_11">
      <!-- 1.0 -->
      <g transform="translate(25.155 50.099978)scale(0.16 -0.16)">
       <use xlink:href="#DejaVuSans-49"/>
       <use x="63.623047" xlink:href="#DejaVuSans-46"/>
       <use x="95.410156" xlink:href="#DejaVuSans-48"/>
      </g>
     </g>
    </g>
    <g id="text_12">
     <!-- Fraction of function,target pairs -->
     <defs>
      <path d="M 9.8125 72.90625 
L 51.703125 72.90625 
L 51.703125 64.59375 
L 19.671875 64.59375 
L 19.671875 43.109375 
L 48.578125 43.109375 
L 48.578125 34.8125 
L 19.671875 34.8125 
L 19.671875 0 
L 9.8125 0 
z
" id="DejaVuSans-70"/>
      <path d="M 41.109375 46.296875 
Q 39.59375 47.171875 37.8125 47.578125 
Q 36.03125 48 33.890625 48 
Q 26.265625 48 22.1875 43.046875 
Q 18.109375 38.09375 18.109375 28.8125 
L 18.109375 0 
L 9.078125 0 
L 9.078125 54.6875 
L 18.109375 54.6875 
L 18.109375 46.1875 
Q 20.953125 51.171875 25.484375 53.578125 
Q 30.03125 56 36.53125 56 
Q 37.453125 56 38.578125 55.875 
Q 39.703125 55.765625 41.0625 55.515625 
z
" id="DejaVuSans-114"/>
      <path d="M 48.78125 52.59375 
L 48.78125 44.1875 
Q 44.96875 46.296875 41.140625 47.34375 
Q 37.3125 48.390625 33.40625 48.390625 
Q 24.65625 48.390625 19.8125 42.84375 
Q 14.984375 37.3125 14.984375 27.296875 
Q 14.984375 17.28125 19.8125 11.734375 
Q 24.65625 6.203125 33.40625 6.203125 
Q 37.3125 6.203125 41.140625 7.25 
Q 44.96875 8.296875 48.78125 10.40625 
L 48.78125 2.09375 
Q 45.015625 0.34375 40.984375 -0.53125 
Q 36.96875 -1.421875 32.421875 -1.421875 
Q 20.0625 -1.421875 12.78125 6.34375 
Q 5.515625 14.109375 5.515625 27.296875 
Q 5.515625 40.671875 12.859375 48.328125 
Q 20.21875 56 33.015625 56 
Q 37.15625 56 41.109375 55.140625 
Q 45.0625 54.296875 48.78125 52.59375 
z
" id="DejaVuSans-99"/>
      <path d="M 18.3125 70.21875 
L 18.3125 54.6875 
L 36.8125 54.6875 
L 36.8125 47.703125 
L 18.3125 47.703125 
L 18.3125 18.015625 
Q 18.3125 11.328125 20.140625 9.421875 
Q 21.96875 7.515625 27.59375 7.515625 
L 36.8125 7.515625 
L 36.8125 0 
L 27.59375 0 
Q 17.1875 0 13.234375 3.875 
Q 9.28125 7.765625 9.28125 18.015625 
L 9.28125 47.703125 
L 2.6875 47.703125 
L 2.6875 54.6875 
L 9.28125 54.6875 
L 9.28125 70.21875 
z
" id="DejaVuSans-116"/>
      <path d="M 8.5 21.578125 
L 8.5 54.6875 
L 17.484375 54.6875 
L 17.484375 21.921875 
Q 17.484375 14.15625 20.5 10.265625 
Q 23.53125 6.390625 29.59375 6.390625 
Q 36.859375 6.390625 41.078125 11.03125 
Q 45.3125 15.671875 45.3125 23.6875 
L 45.3125 54.6875 
L 54.296875 54.6875 
L 54.296875 0 
L 45.3125 0 
L 45.3125 8.40625 
Q 42.046875 3.421875 37.71875 1 
Q 33.40625 -1.421875 27.6875 -1.421875 
Q 18.265625 -1.421875 13.375 4.4375 
Q 8.5 10.296875 8.5 21.578125 
z
M 31.109375 56 
z
" id="DejaVuSans-117"/>
      <path d="M 11.71875 12.40625 
L 22.015625 12.40625 
L 22.015625 4 
L 14.015625 -11.625 
L 7.71875 -11.625 
L 11.71875 4 
z
" id="DejaVuSans-44"/>
      <path d="M 18.109375 8.203125 
L 18.109375 -20.796875 
L 9.078125 -20.796875 
L 9.078125 54.6875 
L 18.109375 54.6875 
L 18.109375 46.390625 
Q 20.953125 51.265625 25.265625 53.625 
Q 29.59375 56 35.59375 56 
Q 45.5625 56 51.78125 48.09375 
Q 58.015625 40.1875 58.015625 27.296875 
Q 58.015625 14.40625 51.78125 6.484375 
Q 45.5625 -1.421875 35.59375 -1.421875 
Q 29.59375 -1.421875 25.265625 0.953125 
Q 20.953125 3.328125 18.109375 8.203125 
z
M 48.6875 27.296875 
Q 48.6875 37.203125 44.609375 42.84375 
Q 40.53125 48.484375 33.40625 48.484375 
Q 26.265625 48.484375 22.1875 42.84375 
Q 18.109375 37.203125 18.109375 27.296875 
Q 18.109375 17.390625 22.1875 11.75 
Q 26.265625 6.109375 33.40625 6.109375 
Q 40.53125 6.109375 44.609375 11.75 
Q 48.6875 17.390625 48.6875 27.296875 
z
" id="DejaVuSans-112"/>
     </defs>
     <g transform="translate(17.619531 305.347375)rotate(-90)scale(0.17 -0.17)">
      <use xlink:href="#DejaVuSans-70"/>
      <use x="57.410156" xlink:href="#DejaVuSans-114"/>
      <use x="98.523438" xlink:href="#DejaVuSans-97"/>
      <use x="159.802734" xlink:href="#DejaVuSans-99"/>
      <use x="214.783203" xlink:href="#DejaVuSans-116"/>
      <use x="253.992188" xlink:href="#DejaVuSans-105"/>
      <use x="281.775391" xlink:href="#DejaVuSans-111"/>
      <use x="342.957031" xlink:href="#DejaVuSans-110"/>
      <use x="406.335938" xlink:href="#DejaVuSans-32"/>
      <use x="438.123047" xlink:href="#DejaVuSans-111"/>
      <use x="499.304688" xlink:href="#DejaVuSans-102"/>
      <use x="534.509766" xlink:href="#DejaVuSans-32"/>
      <use x="566.296875" xlink:href="#DejaVuSans-102"/>
      <use x="601.501953" xlink:href="#DejaVuSans-117"/>
      <use x="664.880859" xlink:href="#DejaVuSans-110"/>
      <use x="728.259766" xlink:href="#DejaVuSans-99"/>
      <use x="783.240234" xlink:href="#DejaVuSans-116"/>
      <use x="822.449219" xlink:href="#DejaVuSans-105"/>
      <use x="850.232422" xlink:href="#DejaVuSans-111"/>
      <use x="911.414062" xlink:href="#DejaVuSans-110"/>
      <use x="974.792969" xlink:href="#DejaVuSans-44"/>
      <use x="1006.580078" xlink:href="#DejaVuSans-116"/>
      <use x="1045.789062" xlink:href="#DejaVuSans-97"/>
      <use x="1107.068359" xlink:href="#DejaVuSans-114"/>
      <use x="1148.166016" xlink:href="#DejaVuSans-103"/>
      <use x="1211.642578" xlink:href="#DejaVuSans-101"/>
      <use x="1273.166016" xlink:href="#DejaVuSans-116"/>
      <use x="1312.375" xlink:href="#DejaVuSans-32"/>
      <use x="1344.162109" xlink:href="#DejaVuSans-112"/>
      <use x="1407.638672" xlink:href="#DejaVuSans-97"/>
      <use x="1468.917969" xlink:href="#DejaVuSans-105"/>
      <use x="1496.701172" xlink:href="#DejaVuSans-114"/>
      <use x="1537.814453" xlink:href="#DejaVuSans-115"/>
     </g>
    </g>
   </g>
   <g id="line2d_41">
    <defs>
     <path d="M 0 1.5 
C 0.397805 1.5 0.77937 1.341951 1.06066 1.06066 
C 1.341951 0.77937 1.5 0.397805 1.5 0 
C 1.5 -0.397805 1.341951 -0.77937 1.06066 -1.06066 
C 0.77937 -1.341951 0.397805 -1.5 0 -1.5 
C -0.397805 -1.5 -0.77937 -1.341951 -1.06066 -1.06066 
C -1.341951 -0.77937 -1.5 -0.397805 -1.5 0 
C -1.5 0.397805 -1.341951 0.77937 -1.06066 1.06066 
C -0.77937 1.341951 -0.397805 1.5 0 1.5 
z
" id="me524d8a994" style="stroke:#f5deb3;"/>
    </defs>
    <g>
     <use style="fill:#f5deb3;stroke:#f5deb3;" x="297.850061" xlink:href="#me524d8a994" y="118.739971"/>
     <use style="fill:#f5deb3;stroke:#f5deb3;" x="297.850061" xlink:href="#me524d8a994" y="118.739971"/>
    </g>
   </g>
   <g id="line2d_42">
    <defs>
     <path d="M 0 1.5 
C 0.397805 1.5 0.77937 1.341951 1.06066 1.06066 
C 1.341951 0.77937 1.5 0.397805 1.5 0 
C 1.5 -0.397805 1.341951 -0.77937 1.06066 -1.06066 
C 0.77937 -1.341951 0.397805 -1.5 0 -1.5 
C -0.397805 -1.5 -0.77937 -1.341951 -1.06066 -1.06066 
C -1.341951 -0.77937 -1.5 -0.397805 -1.5 0 
C -1.5 0.397805 -1.341951 0.77937 -1.06066 1.06066 
C -0.77937 1.341951 -0.397805 1.5 0 1.5 
z
" id="m2a966350cf" style="stroke:#00bfbf;"/>
    </defs>
    <g>
     <use style="fill:#00bfbf;stroke:#00bfbf;" x="258.368421" xlink:href="#m2a966350cf" y="151.704123"/>
     <use style="fill:#00bfbf;stroke:#00bfbf;" x="258.368421" xlink:href="#m2a966350cf" y="151.704123"/>
    </g>
   </g>
   <g id="line2d_43">
    <path d="M -1 283.560729 
L 122.040062 283.560729 
L 122.040062 283.121207 
L 123.141856 283.121207 
L 123.141856 282.681685 
L 124.965026 282.681685 
L 125.010763 281.802641 
L 126.756581 281.802641 
L 126.756581 281.363119 
L 128.298087 281.363119 
L 128.373582 280.044553 
L 129.340644 280.044553 
L 129.340644 279.605031 
L 129.88095 279.605031 
L 129.88095 279.165509 
L 130.411722 279.165509 
L 130.411722 278.286465 
L 131.082294 278.286465 
L 131.133813 277.407421 
L 131.703155 277.407421 
L 131.703155 276.967899 
L 132.326708 276.967899 
L 132.374684 276.088855 
L 132.511884 276.088855 
L 132.511884 275.649333 
L 132.905511 275.649333 
L 132.905511 275.209811 
L 133.164986 275.209811 
L 133.176429 274.330767 
L 134.04118 274.330767 
L 134.068373 273.012201 
L 135.194218 273.012201 
L 135.194218 272.572679 
L 135.612036 272.572679 
L 135.681535 271.254113 
L 136.626514 271.254113 
L 136.626514 270.375069 
L 136.762084 270.375069 
L 136.762084 269.496025 
L 137.030101 269.496025 
L 137.080471 267.298414 
L 137.185321 267.298414 
L 137.185321 266.41937 
L 137.505069 266.41937 
L 137.607405 265.540326 
L 138.400926 265.540326 
L 138.400926 265.100804 
L 138.774175 265.100804 
L 138.778323 262.903194 
L 138.951686 262.903194 
L 139.049982 261.584628 
L 139.18424 261.584628 
L 139.188293 260.705584 
L 139.656033 260.705584 
L 139.656033 259.82654 
L 140.374723 259.82654 
L 140.389858 258.507974 
L 140.686113 258.507974 
L 140.793615 256.749886 
L 140.86737 256.749886 
L 140.86737 256.310364 
L 141.137582 256.310364 
L 141.137582 255.870842 
L 141.503304 255.870842 
L 141.581189 254.991798 
L 141.826718 254.991798 
L 141.851082 254.112754 
L 141.941279 254.112754 
L 141.941279 253.673232 
L 142.168169 253.673232 
L 142.198881 252.794188 
L 142.32119 252.794188 
L 142.32119 252.354666 
L 142.606619 252.354666 
L 142.606619 251.915144 
L 142.825068 251.915144 
L 142.857929 250.596578 
L 143.353129 250.596578 
L 143.353129 250.157056 
L 143.840863 250.157056 
L 143.85017 249.278012 
L 144.227532 249.278012 
L 144.227532 248.83849 
L 144.402681 248.83849 
L 144.405686 247.959446 
L 144.727156 247.959446 
L 144.727156 247.519924 
L 145.879738 247.519924 
L 145.896294 246.640879 
L 146.172658 246.640879 
L 146.172658 245.761835 
L 146.463409 245.761835 
L 146.484754 243.564225 
L 146.709951 243.564225 
L 146.788743 241.806137 
L 147.739772 241.806137 
L 147.739772 240.927093 
L 147.922436 240.927093 
L 147.922436 240.048049 
L 148.875665 240.048049 
L 148.959162 238.289961 
L 149.184456 238.289961 
L 149.184456 237.410917 
L 150.469828 237.410917 
L 150.469828 236.531873 
L 150.626141 236.531873 
L 150.73515 233.894741 
L 150.866312 233.894741 
L 150.866312 233.015697 
L 151.334935 233.015697 
L 151.334935 232.576175 
L 151.565603 232.576175 
L 151.565603 231.697131 
L 152.381135 231.697131 
L 152.443774 230.818087 
L 152.632227 230.818087 
L 152.632227 230.378565 
L 152.992119 230.378565 
L 152.992119 229.499521 
L 153.218322 229.499521 
L 153.218322 228.620477 
L 153.498795 228.620477 
L 153.498795 227.741433 
L 153.678006 227.741433 
L 153.678006 226.862389 
L 154.382073 226.862389 
L 154.382073 226.422867 
L 154.742835 226.422867 
L 154.742835 225.983344 
L 155.306575 225.983344 
L 155.381983 224.664778 
L 155.533415 224.664778 
L 155.609431 222.90669 
L 156.307931 222.90669 
L 156.307931 222.027646 
L 156.487665 222.027646 
L 156.487665 221.588124 
L 158.728043 221.588124 
L 158.728043 220.70908 
L 159.122625 220.70908 
L 159.122625 219.830036 
L 159.883503 219.830036 
L 159.883503 218.950992 
L 160.727241 218.950992 
L 160.727241 218.071948 
L 161.07836 218.071948 
L 161.160161 216.31386 
L 161.534285 216.31386 
L 161.534285 215.434816 
L 162.061747 215.434816 
L 162.061747 214.555772 
L 162.593851 214.555772 
L 162.593851 213.676728 
L 162.9377 213.676728 
L 162.9377 212.797684 
L 163.271845 212.797684 
L 163.271845 212.358162 
L 163.449152 212.358162 
L 163.449152 211.479118 
L 163.930348 211.479118 
L 163.930348 210.600074 
L 164.70709 210.600074 
L 164.70709 210.160552 
L 165.616186 210.160552 
L 165.616186 209.281508 
L 166.066144 209.281508 
L 166.146643 208.402464 
L 166.493781 208.402464 
L 166.493781 207.52342 
L 166.744251 207.52342 
L 166.829993 206.204854 
L 166.994465 206.204854 
L 166.995288 205.325809 
L 167.149249 205.325809 
L 167.149249 204.446765 
L 167.618229 204.446765 
L 167.618229 204.007243 
L 168.339657 204.007243 
L 168.339657 202.688677 
L 169.226025 202.688677 
L 169.226025 202.249155 
L 169.588476 202.249155 
L 169.588476 201.809633 
L 169.725465 201.809633 
L 169.793559 200.930589 
L 169.863481 200.930589 
L 169.863481 200.491067 
L 170.147267 200.491067 
L 170.147267 200.051545 
L 170.877371 200.051545 
L 170.877371 199.612023 
L 171.405246 199.612023 
L 171.405246 199.172501 
L 172.388805 199.172501 
L 172.388805 198.732979 
L 172.638173 198.732979 
L 172.638173 198.293457 
L 172.814051 198.293457 
L 172.814051 197.853935 
L 173.50714 197.853935 
L 173.50714 197.414413 
L 173.845287 197.414413 
L 173.845287 196.974891 
L 175.180705 196.974891 
L 175.232072 195.656325 
L 175.386799 195.656325 
L 175.386799 195.216803 
L 176.614066 195.216803 
L 176.614066 194.777281 
L 176.847054 194.777281 
L 176.847054 194.337759 
L 177.580436 194.337759 
L 177.580436 193.458715 
L 178.020885 193.458715 
L 178.020885 193.019193 
L 178.153265 193.019193 
L 178.227722 191.261105 
L 178.283356 191.261105 
L 178.283356 190.821583 
L 178.666222 190.821583 
L 178.666222 189.942539 
L 179.030552 189.942539 
L 179.123536 188.623973 
L 179.408431 188.623973 
L 179.408431 188.184451 
L 180.803573 188.184451 
L 180.803573 187.305407 
L 181.282137 187.305407 
L 181.282137 186.865885 
L 181.650214 186.865885 
L 181.650214 186.426363 
L 181.818025 186.426363 
L 181.818025 185.986841 
L 182.371007 185.986841 
L 182.405376 184.228752 
L 182.907984 184.228752 
L 182.907984 183.78923 
L 183.428918 183.78923 
L 183.459026 182.910186 
L 183.809106 182.910186 
L 183.809106 182.031142 
L 184.273661 182.031142 
L 184.273661 181.59162 
L 185.310545 181.59162 
L 185.310545 180.712576 
L 185.453274 180.712576 
L 185.453274 180.273054 
L 185.709137 180.273054 
L 185.709137 179.833532 
L 186.157586 179.833532 
L 186.157586 179.39401 
L 190.643707 179.39401 
L 190.643707 178.954488 
L 190.940453 178.954488 
L 190.940453 178.514966 
L 191.577171 178.514966 
L 191.577171 178.075444 
L 191.736169 178.075444 
L 191.736169 177.635922 
L 191.875964 177.635922 
L 191.905169 176.756878 
L 193.640128 176.756878 
L 193.640128 176.317356 
L 194.115355 176.317356 
L 194.115355 175.877834 
L 194.253763 175.877834 
L 194.253763 175.438312 
L 197.395943 175.438312 
L 197.395943 174.99879 
L 197.895296 174.99879 
L 197.895296 174.559268 
L 198.553978 174.559268 
L 198.553978 174.119746 
L 199.240549 174.119746 
L 199.240549 173.240702 
L 199.687141 173.240702 
L 199.687141 172.361658 
L 199.950901 172.361658 
L 199.950901 171.482614 
L 200.271123 171.482614 
L 200.271123 171.043092 
L 205.119476 171.043092 
L 205.119476 170.164048 
L 205.38545 170.164048 
L 205.38545 169.724526 
L 206.781197 169.724526 
L 206.781197 169.285004 
L 208.133437 169.285004 
L 208.133437 168.845482 
L 208.83453 168.845482 
L 208.83453 168.40596 
L 209.53351 168.40596 
L 209.53351 167.966438 
L 209.667173 167.966438 
L 209.667173 167.087394 
L 212.207493 167.087394 
L 212.207493 166.647872 
L 213.152349 166.647872 
L 213.152349 166.20835 
L 213.984047 166.20835 
L 213.984047 165.768828 
L 217.564221 165.768828 
L 217.564221 164.889784 
L 219.584032 164.889784 
L 219.584032 164.450262 
L 220.624794 164.450262 
L 220.624794 163.571217 
L 221.920318 163.571217 
L 221.920318 163.131695 
L 224.204362 163.131695 
L 224.204362 162.252651 
L 225.142489 162.252651 
L 225.142489 161.813129 
L 225.382634 161.813129 
L 225.382634 161.373607 
L 226.059662 161.373607 
L 226.059662 160.934085 
L 229.137747 160.934085 
L 229.137747 160.055041 
L 230.437846 160.055041 
L 230.437846 159.175997 
L 230.909639 159.175997 
L 230.909639 158.736475 
L 232.756526 158.736475 
L 232.756526 158.296953 
L 234.710909 158.296953 
L 234.710909 157.857431 
L 238.454392 157.857431 
L 238.454392 157.417909 
L 242.504181 157.417909 
L 242.504181 156.978387 
L 244.513639 156.978387 
L 244.513639 156.099343 
L 245.001996 156.099343 
L 245.001996 155.659821 
L 246.412467 155.659821 
L 246.412467 155.220299 
L 247.407028 155.220299 
L 247.407028 154.780777 
L 252.366842 154.780777 
L 252.366842 154.341255 
L 254.197459 154.341255 
L 254.197459 153.901733 
L 254.674853 153.901733 
L 254.674853 153.462211 
L 255.457066 153.462211 
L 255.457066 153.022689 
L 258.04039 153.022689 
L 258.04039 152.143645 
L 258.368421 152.143645 
L 258.368421 151.704123 
L 338.688 151.704123 
L 338.688 151.704123 
" style="fill:none;stroke:#00bfbf;stroke-linecap:square;stroke-width:1.5;"/>
   </g>
   <g id="line2d_44">
    <defs>
     <path d="M 0 -6 
L -5.706339 -1.854102 
L -3.526712 4.854102 
L 3.526712 4.854102 
L 5.706339 -1.854102 
z
" id="maba5b297a2" style="stroke:#00bfbf;stroke-linejoin:miter;stroke-width:1.5;"/>
    </defs>
    <g>
     <use style="fill-opacity:0;stroke:#00bfbf;stroke-linejoin:miter;stroke-width:1.5;" x="140.389858" xlink:href="#maba5b297a2" y="258.507974"/>
     <use style="fill-opacity:0;stroke:#00bfbf;stroke-linejoin:miter;stroke-width:1.5;" x="205.38545" xlink:href="#maba5b297a2" y="170.164048"/>
     <use style="fill-opacity:0;stroke:#00bfbf;stroke-linejoin:miter;stroke-width:1.5;" x="258.368421" xlink:href="#maba5b297a2" y="152.143645"/>
     <use style="fill-opacity:0;stroke:#00bfbf;stroke-linejoin:miter;stroke-width:1.5;" x="258.368421" xlink:href="#maba5b297a2" y="151.704123"/>
     <use style="fill-opacity:0;stroke:#00bfbf;stroke-linejoin:miter;stroke-width:1.5;" x="338.688" xlink:href="#maba5b297a2" y="151.704123"/>
    </g>
   </g>
   <g id="line2d_45">
    <path style="fill:none;stroke:#00bfbf;stroke-linecap:square;stroke-width:1.5;"/>
    <g/>
   </g>
   <g id="line2d_46">
    <path clip-path="url(#pa9028c4cd5)" d="M 258.377147 151.704123 
" style="fill:none;stroke:#00bfbf;stroke-linecap:square;stroke-width:1.5;"/>
    <defs>
     <path d="M -12 12 
L 12 -12 
M -12 -12 
L 12 12 
" id="m45ae638f8a" style="stroke:#00bfbf;"/>
    </defs>
    <g clip-path="url(#pa9028c4cd5)">
     <use style="fill:#00bfbf;stroke:#00bfbf;" x="258.377147" xlink:href="#m45ae638f8a" y="151.704123"/>
    </g>
   </g>
   <g id="line2d_47">
    <defs>
     <path d="M 0 1.5 
C 0.397805 1.5 0.77937 1.341951 1.06066 1.06066 
C 1.341951 0.77937 1.5 0.397805 1.5 0 
C 1.5 -0.397805 1.341951 -0.77937 1.06066 -1.06066 
C 0.77937 -1.341951 0.397805 -1.5 0 -1.5 
C -0.397805 -1.5 -0.77937 -1.341951 -1.06066 -1.06066 
C -1.341951 -0.77937 -1.5 -0.397805 -1.5 0 
C -1.5 0.397805 -1.341951 0.77937 -1.06066 1.06066 
C -0.77937 1.341951 -0.397805 1.5 0 1.5 
z
" id="mdfb48df8b6" style="stroke:#000080;"/>
    </defs>
    <g>
     <use style="fill:#000080;stroke:#000080;" x="216.754515" xlink:href="#mdfb48df8b6" y="175.438312"/>
     <use style="fill:#000080;stroke:#000080;" x="216.754515" xlink:href="#mdfb48df8b6" y="175.438312"/>
    </g>
   </g>
   <g id="line2d_48">
    <path d="M -1 283.560729 
L 120.770987 283.560729 
L 120.770987 283.121207 
L 122.834096 283.121207 
L 122.834096 282.681685 
L 125.291682 282.681685 
L 125.291682 282.242163 
L 125.674001 282.242163 
L 125.674001 281.802641 
L 126.945649 281.802641 
L 126.945649 281.363119 
L 127.900157 281.363119 
L 127.900157 280.923597 
L 128.214663 280.923597 
L 128.214663 280.484075 
L 130.032298 280.484075 
L 130.032298 280.044553 
L 130.776505 280.044553 
L 130.776505 279.605031 
L 131.306576 279.605031 
L 131.306576 279.165509 
L 131.845719 279.165509 
L 131.845719 278.725987 
L 132.230358 278.725987 
L 132.230358 278.286465 
L 132.410579 278.286465 
L 132.410579 277.846943 
L 132.794785 277.846943 
L 132.794785 277.407421 
L 133.318838 277.407421 
L 133.318838 276.967899 
L 133.521885 276.967899 
L 133.521885 276.528377 
L 134.046622 276.528377 
L 134.046622 276.088855 
L 134.418085 276.088855 
L 134.418085 275.649333 
L 135.009836 275.649333 
L 135.009836 275.209811 
L 135.765556 275.209811 
L 135.765556 274.770289 
L 136.116989 274.770289 
L 136.116989 274.330767 
L 136.328319 274.330767 
L 136.328319 273.891245 
L 137.814676 273.891245 
L 137.814676 273.451723 
L 138.286095 273.451723 
L 138.286095 273.012201 
L 139.139602 273.012201 
L 139.139602 272.572679 
L 139.413734 272.572679 
L 139.413734 272.133157 
L 139.793552 272.133157 
L 139.832645 271.254113 
L 140.130759 271.254113 
L 140.241728 269.935547 
L 140.472866 269.935547 
L 140.472866 269.496025 
L 142.243147 269.496025 
L 142.243147 269.056503 
L 142.355014 269.056503 
L 142.378651 267.737936 
L 142.593291 267.737936 
L 142.593291 266.858892 
L 143.241082 266.858892 
L 143.241082 265.979848 
L 143.612855 265.979848 
L 143.706918 264.661282 
L 143.73816 264.661282 
L 143.73816 264.22176 
L 143.921357 264.22176 
L 143.936794 262.463672 
L 144.078178 262.463672 
L 144.078178 262.02415 
L 144.673988 262.02415 
L 144.718306 261.145106 
L 144.800734 261.145106 
L 144.909062 260.266062 
L 144.914898 260.266062 
L 144.914898 259.82654 
L 145.275853 259.82654 
L 145.275853 258.947496 
L 145.704941 258.947496 
L 145.704941 258.507974 
L 146.153644 258.507974 
L 146.153644 258.068452 
L 146.564568 258.068452 
L 146.564568 257.62893 
L 146.767767 257.62893 
L 146.788743 256.310364 
L 146.934876 256.310364 
L 147.017834 255.43132 
L 147.343237 255.43132 
L 147.343237 254.991798 
L 147.747215 254.991798 
L 147.747215 254.552276 
L 148.202562 254.552276 
L 148.202562 254.112754 
L 148.471122 254.112754 
L 148.471122 253.23371 
L 148.721541 253.23371 
L 148.721541 252.794188 
L 149.131841 252.794188 
L 149.205001 251.475622 
L 149.400108 251.475622 
L 149.400108 251.0361 
L 149.836782 251.0361 
L 149.836782 250.596578 
L 150.120495 250.596578 
L 150.176688 249.278012 
L 150.47195 249.278012 
L 150.47195 248.398968 
L 150.640855 248.398968 
L 150.640855 247.959446 
L 150.764382 247.959446 
L 150.764382 247.519924 
L 151.684751 247.519924 
L 151.684751 247.080402 
L 152.083873 247.080402 
L 152.083873 246.640879 
L 153.232815 246.640879 
L 153.232815 245.761835 
L 153.445207 245.761835 
L 153.445207 244.882791 
L 153.571766 244.882791 
L 153.571766 244.003747 
L 154.502036 244.003747 
L 154.502036 243.124703 
L 154.696273 243.124703 
L 154.696273 242.685181 
L 154.878485 242.685181 
L 154.878485 241.806137 
L 155.151529 241.806137 
L 155.16126 240.048049 
L 155.87602 240.048049 
L 155.87602 239.169005 
L 156.153918 239.169005 
L 156.153918 238.289961 
L 157.433721 238.289961 
L 157.433721 237.410917 
L 157.805473 237.410917 
L 157.805473 236.531873 
L 158.668475 236.531873 
L 158.692327 234.773785 
L 159.122625 234.773785 
L 159.122625 234.334263 
L 159.494572 234.334263 
L 159.494572 233.455219 
L 159.620579 233.455219 
L 159.620579 232.576175 
L 159.830242 232.576175 
L 159.830242 231.697131 
L 160.358079 231.697131 
L 160.434936 230.818087 
L 160.748438 230.818087 
L 160.825941 229.059999 
L 161.122189 229.059999 
L 161.188874 228.180955 
L 161.898347 228.180955 
L 161.898347 227.301911 
L 162.187906 227.301911 
L 162.187906 226.862389 
L 162.433246 226.862389 
L 162.433246 225.983344 
L 162.581141 225.983344 
L 162.581141 225.543822 
L 162.770815 225.543822 
L 162.770815 225.1043 
L 164.007646 225.1043 
L 164.007646 224.225256 
L 164.618704 224.225256 
L 164.618704 223.346212 
L 164.969592 223.346212 
L 164.969592 222.90669 
L 165.569831 222.90669 
L 165.569831 222.027646 
L 165.879486 222.027646 
L 165.879486 221.588124 
L 166.363773 221.588124 
L 166.454796 219.830036 
L 167.004334 219.830036 
L 167.004334 218.950992 
L 167.396171 218.950992 
L 167.396171 218.071948 
L 168.572648 218.071948 
L 168.572648 217.192904 
L 169.271565 217.192904 
L 169.271565 216.31386 
L 169.635908 216.31386 
L 169.635908 215.434816 
L 171.004637 215.434816 
L 171.004637 214.555772 
L 171.298242 214.555772 
L 171.357271 212.797684 
L 172.314386 212.797684 
L 172.314386 211.91864 
L 173.155374 211.91864 
L 173.155374 211.039596 
L 173.576085 211.039596 
L 173.576085 210.600074 
L 174.240641 210.600074 
L 174.240641 209.72103 
L 174.508408 209.72103 
L 174.508408 208.841986 
L 174.953915 208.841986 
L 175.037103 207.52342 
L 175.373576 207.52342 
L 175.373576 207.083898 
L 176.229843 207.083898 
L 176.229843 206.644376 
L 176.651459 206.644376 
L 176.651459 206.204854 
L 176.967268 206.204854 
L 176.967268 205.325809 
L 177.125814 205.325809 
L 177.141452 204.446765 
L 178.428291 204.446765 
L 178.428291 204.007243 
L 178.547026 204.007243 
L 178.646834 203.128199 
L 179.163293 203.128199 
L 179.163293 202.688677 
L 179.752983 202.688677 
L 179.752983 202.249155 
L 180.183392 202.249155 
L 180.183392 201.809633 
L 180.361265 201.809633 
L 180.361265 200.930589 
L 180.538099 200.930589 
L 180.538099 200.491067 
L 181.123704 200.491067 
L 181.123704 200.051545 
L 181.305325 200.051545 
L 181.305325 199.612023 
L 183.02878 199.612023 
L 183.02878 199.172501 
L 183.650303 199.172501 
L 183.650303 198.732979 
L 184.47951 198.732979 
L 184.47951 198.293457 
L 186.030196 198.293457 
L 186.030196 197.853935 
L 186.506343 197.853935 
L 186.506343 197.414413 
L 187.40653 197.414413 
L 187.40653 196.974891 
L 189.088425 196.974891 
L 189.088425 196.535369 
L 189.345594 196.535369 
L 189.345594 196.095847 
L 190.151876 196.095847 
L 190.251228 194.777281 
L 191.166329 194.777281 
L 191.166329 193.898237 
L 191.53795 193.898237 
L 191.53795 193.019193 
L 192.314575 193.019193 
L 192.348246 191.261105 
L 192.481331 191.261105 
L 192.481331 190.821583 
L 192.857431 190.821583 
L 192.857431 190.382061 
L 195.417407 190.382061 
L 195.42192 189.503017 
L 195.540773 189.503017 
L 195.540773 189.063495 
L 195.856115 189.063495 
L 195.856115 188.623973 
L 195.973616 188.623973 
L 195.973616 188.184451 
L 196.165237 188.184451 
L 196.165237 187.744929 
L 196.573836 187.744929 
L 196.573836 187.305407 
L 197.404863 187.305407 
L 197.404863 186.865885 
L 200.515553 186.865885 
L 200.530709 185.107797 
L 200.821761 185.107797 
L 200.821761 184.228752 
L 202.83177 184.228752 
L 202.83177 183.78923 
L 202.97794 183.78923 
L 202.984835 182.470664 
L 203.18682 182.470664 
L 203.18682 182.031142 
L 204.156434 182.031142 
L 204.156434 181.59162 
L 204.60029 181.59162 
L 204.60029 181.152098 
L 205.538417 181.152098 
L 205.538417 180.712576 
L 208.957625 180.712576 
L 208.965929 179.833532 
L 209.82531 179.833532 
L 209.82531 179.39401 
L 211.150782 179.39401 
L 211.211886 178.075444 
L 213.737548 178.075444 
L 213.737548 177.635922 
L 214.068008 177.635922 
L 214.068008 176.756878 
L 215.741944 176.756878 
L 215.741944 176.317356 
L 216.099424 176.317356 
L 216.099424 175.877834 
L 216.754515 175.877834 
L 216.754515 175.438312 
L 338.688 175.438312 
L 338.688 175.438312 
" style="fill:none;stroke:#000080;stroke-linecap:square;stroke-width:1.5;"/>
   </g>
   <g id="line2d_49">
    <defs>
     <path d="M -0 6 
L 6 -6 
L -6 -6 
z
" id="m61436c8133" style="stroke:#000080;stroke-linejoin:miter;stroke-width:1.5;"/>
    </defs>
    <g>
     <use style="fill-opacity:0;stroke:#000080;stroke-linejoin:miter;stroke-width:1.5;" x="154.696273" xlink:href="#m61436c8133" y="242.685181"/>
     <use style="fill-opacity:0;stroke:#000080;stroke-linejoin:miter;stroke-width:1.5;" x="205.538417" xlink:href="#m61436c8133" y="181.152098"/>
     <use style="fill-opacity:0;stroke:#000080;stroke-linejoin:miter;stroke-width:1.5;" x="216.754515" xlink:href="#m61436c8133" y="175.438312"/>
     <use style="fill-opacity:0;stroke:#000080;stroke-linejoin:miter;stroke-width:1.5;" x="216.754515" xlink:href="#m61436c8133" y="175.438312"/>
     <use style="fill-opacity:0;stroke:#000080;stroke-linejoin:miter;stroke-width:1.5;" x="338.688" xlink:href="#m61436c8133" y="175.438312"/>
    </g>
   </g>
   <g id="line2d_50">
    <path style="fill:none;stroke:#000080;stroke-linecap:square;stroke-width:1.5;"/>
    <g/>
   </g>
   <g id="line2d_51">
    <path clip-path="url(#pa9028c4cd5)" d="M 218.226117 175.438312 
" style="fill:none;stroke:#000080;stroke-linecap:square;stroke-width:1.5;"/>
    <defs>
     <path d="M -12 12 
L 12 -12 
M -12 -12 
L 12 12 
" id="mfeac55c533" style="stroke:#000080;"/>
    </defs>
    <g clip-path="url(#pa9028c4cd5)">
     <use style="fill:#000080;stroke:#000080;" x="218.226117" xlink:href="#mfeac55c533" y="175.438312"/>
    </g>
   </g>
   <g id="line2d_52">
    <defs>
     <path d="M 0 1.5 
C 0.397805 1.5 0.77937 1.341951 1.06066 1.06066 
C 1.341951 0.77937 1.5 0.397805 1.5 0 
C 1.5 -0.397805 1.341951 -0.77937 1.06066 -1.06066 
C 0.77937 -1.341951 0.397805 -1.5 0 -1.5 
C -0.397805 -1.5 -0.77937 -1.341951 -1.06066 -1.06066 
C -1.341951 -0.77937 -1.5 -0.397805 -1.5 0 
C -1.5 0.397805 -1.341951 0.77937 -1.06066 1.06066 
C -0.77937 1.341951 -0.397805 1.5 0 1.5 
z
" id="m1b4d981b84" style="stroke:#6495ed;"/>
    </defs>
    <g>
     <use style="fill:#6495ed;stroke:#6495ed;" x="175.751042" xlink:href="#m1b4d981b84" y="225.543822"/>
     <use style="fill:#6495ed;stroke:#6495ed;" x="175.751042" xlink:href="#m1b4d981b84" y="225.543822"/>
    </g>
   </g>
   <g id="line2d_53">
    <path d="M -1 283.560729 
L 129.88095 283.560729 
L 129.88095 283.121207 
L 130.018593 283.121207 
L 130.018593 282.681685 
L 130.378179 282.681685 
L 130.378179 282.242163 
L 130.531948 282.242163 
L 130.531948 281.802641 
L 130.842017 281.802641 
L 130.842017 281.363119 
L 131.420807 281.363119 
L 131.420807 280.923597 
L 133.130612 280.923597 
L 133.130612 280.484075 
L 133.392433 280.484075 
L 133.493825 279.605031 
L 133.655948 279.605031 
L 133.655948 279.165509 
L 133.964811 279.165509 
L 133.964811 278.725987 
L 134.37008 278.725987 
L 134.37008 278.286465 
L 135.557235 278.286465 
L 135.557235 277.846943 
L 135.721125 277.846943 
L 135.721125 277.407421 
L 136.044356 277.407421 
L 136.044356 276.967899 
L 136.456742 276.967899 
L 136.475687 276.088855 
L 136.58893 276.088855 
L 136.58893 275.649333 
L 137.602968 275.649333 
L 137.602968 275.209811 
L 137.757592 275.209811 
L 137.80152 274.330767 
L 137.971788 274.330767 
L 137.971788 273.891245 
L 138.557068 273.891245 
L 138.640891 273.012201 
L 138.670134 273.012201 
L 138.75757 272.133157 
L 139.671805 272.133157 
L 139.671805 271.693635 
L 140.100023 271.693635 
L 140.195896 268.616981 
L 140.40498 268.616981 
L 140.40498 268.177459 
L 140.871049 268.177459 
L 140.871049 267.737936 
L 141.371524 267.737936 
L 141.371524 267.298414 
L 141.823235 267.298414 
L 141.823235 266.858892 
L 141.948198 266.858892 
L 141.948198 266.41937 
L 142.181825 266.41937 
L 142.181825 265.979848 
L 142.633244 265.979848 
L 142.633244 265.540326 
L 142.811906 265.540326 
L 142.811906 265.100804 
L 143.108905 265.100804 
L 143.218586 264.22176 
L 143.228231 264.22176 
L 143.327582 262.02415 
L 143.868769 262.02415 
L 143.868769 261.145106 
L 144.543334 261.145106 
L 144.543334 260.266062 
L 144.788982 260.266062 
L 144.888619 258.507974 
L 145.051495 258.507974 
L 145.080421 257.189408 
L 145.545268 257.189408 
L 145.651879 256.310364 
L 145.657472 256.310364 
L 145.702152 255.43132 
L 146.492752 255.43132 
L 146.577835 254.552276 
L 147.028176 254.552276 
L 147.028176 254.112754 
L 147.373672 254.112754 
L 147.373672 253.673232 
L 147.76209 253.673232 
L 147.76209 253.23371 
L 147.937163 253.23371 
L 147.937163 252.794188 
L 148.385249 252.794188 
L 148.433008 251.915144 
L 148.740295 251.915144 
L 148.740295 251.0361 
L 149.019218 251.0361 
L 149.019218 250.596578 
L 149.207282 250.596578 
L 149.207282 250.157056 
L 149.463164 250.157056 
L 149.463164 249.717534 
L 149.759602 249.717534 
L 149.869754 248.83849 
L 150.301393 248.83849 
L 150.301393 247.959446 
L 150.495272 247.959446 
L 150.531253 247.080402 
L 150.663952 247.080402 
L 150.663952 246.640879 
L 151.278307 246.640879 
L 151.349063 244.882791 
L 153.200188 244.882791 
L 153.200188 244.003747 
L 153.571766 244.003747 
L 153.580644 241.366615 
L 153.715038 241.366615 
L 153.715038 240.487571 
L 154.424408 240.487571 
L 154.424408 240.048049 
L 154.747816 240.048049 
L 154.747816 239.169005 
L 155.107673 239.169005 
L 155.146662 237.410917 
L 157.499069 237.410917 
L 157.499069 236.531873 
L 158.509966 236.531873 
L 158.509966 236.092351 
L 158.698946 236.092351 
L 158.803204 234.334263 
L 159.046236 234.334263 
L 159.046236 233.455219 
L 159.237226 233.455219 
L 159.237226 232.576175 
L 159.422338 232.576175 
L 159.422338 231.697131 
L 160.478019 231.697131 
L 160.478019 231.257609 
L 161.353343 231.257609 
L 161.353343 230.378565 
L 161.826582 230.378565 
L 161.826582 229.939043 
L 164.157348 229.939043 
L 164.157348 229.059999 
L 167.671326 229.059999 
L 167.671326 228.620477 
L 168.583165 228.620477 
L 168.62442 227.301911 
L 168.69918 227.301911 
L 168.69918 226.862389 
L 173.908485 226.862389 
L 173.908485 226.422867 
L 175.751042 226.422867 
L 175.751042 225.543822 
L 338.688 225.543822 
L 338.688 225.543822 
" style="fill:none;stroke:#6495ed;stroke-linecap:square;stroke-width:1.5;"/>
   </g>
   <g id="line2d_54">
    <defs>
     <path d="M 0 -6 
L -6 6 
L 6 6 
z
" id="m8b3ea3e48a" style="stroke:#6495ed;stroke-linejoin:miter;stroke-width:1.5;"/>
    </defs>
    <g>
     <use style="fill-opacity:0;stroke:#6495ed;stroke-linejoin:miter;stroke-width:1.5;" x="168.69918" xlink:href="#m8b3ea3e48a" y="226.862389"/>
     <use style="fill-opacity:0;stroke:#6495ed;stroke-linejoin:miter;stroke-width:1.5;" x="175.751042" xlink:href="#m8b3ea3e48a" y="226.422867"/>
     <use style="fill-opacity:0;stroke:#6495ed;stroke-linejoin:miter;stroke-width:1.5;" x="175.751042" xlink:href="#m8b3ea3e48a" y="225.543822"/>
     <use style="fill-opacity:0;stroke:#6495ed;stroke-linejoin:miter;stroke-width:1.5;" x="175.751042" xlink:href="#m8b3ea3e48a" y="225.543822"/>
     <use style="fill-opacity:0;stroke:#6495ed;stroke-linejoin:miter;stroke-width:1.5;" x="338.688" xlink:href="#m8b3ea3e48a" y="225.543822"/>
    </g>
   </g>
   <g id="line2d_55">
    <path style="fill:none;stroke:#6495ed;stroke-linecap:square;stroke-width:1.5;"/>
    <g/>
   </g>
   <g id="line2d_56">
    <path clip-path="url(#pa9028c4cd5)" d="M 178.066722 225.543822 
" style="fill:none;stroke:#6495ed;stroke-linecap:square;stroke-width:1.5;"/>
    <defs>
     <path d="M -12 12 
L 12 -12 
M -12 -12 
L 12 12 
" id="m8d8b1b060e" style="stroke:#6495ed;"/>
    </defs>
    <g clip-path="url(#pa9028c4cd5)">
     <use style="fill:#6495ed;stroke:#6495ed;" x="178.066722" xlink:href="#m8d8b1b060e" y="225.543822"/>
    </g>
   </g>
   <g id="line2d_57">
    <path d="M 338.688 225.543822 
L 369.60768 293.845545 
" style="fill:none;stroke:#6495ed;stroke-linecap:square;stroke-width:1.5;"/>
    <g>
     <use style="fill-opacity:0;stroke:#6495ed;stroke-linejoin:miter;stroke-width:1.5;" x="338.688" xlink:href="#m8b3ea3e48a" y="225.543822"/>
     <use style="fill-opacity:0;stroke:#6495ed;stroke-linejoin:miter;stroke-width:1.5;" x="369.60768" xlink:href="#m8b3ea3e48a" y="293.845545"/>
    </g>
   </g>
   <g id="line2d_58">
    <path d="M 338.688 175.438312 
L 369.60768 212.270257 
" style="fill:none;stroke:#000080;stroke-linecap:square;stroke-width:1.5;"/>
    <g>
     <use style="fill-opacity:0;stroke:#000080;stroke-linejoin:miter;stroke-width:1.5;" x="338.688" xlink:href="#m61436c8133" y="175.438312"/>
     <use style="fill-opacity:0;stroke:#000080;stroke-linejoin:miter;stroke-width:1.5;" x="369.60768" xlink:href="#m61436c8133" y="212.270257"/>
    </g>
   </g>
   <g id="line2d_59">
    <path d="M 338.688 151.704123 
L 369.60768 130.69497 
" style="fill:none;stroke:#00bfbf;stroke-linecap:square;stroke-width:1.5;"/>
    <g>
     <use style="fill-opacity:0;stroke:#00bfbf;stroke-linejoin:miter;stroke-width:1.5;" x="338.688" xlink:href="#maba5b297a2" y="151.704123"/>
     <use style="fill-opacity:0;stroke:#00bfbf;stroke-linejoin:miter;stroke-width:1.5;" x="369.60768" xlink:href="#maba5b297a2" y="130.69497"/>
    </g>
   </g>
   <g id="line2d_60">
    <path d="M 338.688 298.944 
L 338.688 44.021228 
" style="fill:none;stroke:#000000;stroke-linecap:square;stroke-width:1.5;"/>
   </g>
   <g id="patch_3">
    <path d="M 57.6 298.944 
L 57.6 41.472 
" style="fill:none;stroke:#000000;stroke-linecap:square;stroke-linejoin:miter;stroke-width:0.8;"/>
   </g>
   <g id="patch_4">
    <path d="M 338.688 298.944 
L 338.688 41.472 
" style="fill:none;stroke:#000000;stroke-linecap:square;stroke-linejoin:miter;stroke-width:0.8;"/>
   </g>
   <g id="patch_5">
    <path d="M 57.6 298.944 
L 338.688 298.944 
" style="fill:none;stroke:#000000;stroke-linecap:square;stroke-linejoin:miter;stroke-width:0.8;"/>
   </g>
   <g id="patch_6">
    <path d="M 57.6 41.472 
L 338.688 41.472 
" style="fill:none;stroke:#000000;stroke-linecap:square;stroke-linejoin:miter;stroke-width:0.8;"/>
   </g>
   <g id="text_13">
    <!-- SPEA2-pla -->
    <defs>
     <path d="M 53.515625 70.515625 
L 53.515625 60.890625 
Q 47.90625 63.578125 42.921875 64.890625 
Q 37.9375 66.21875 33.296875 66.21875 
Q 25.25 66.21875 20.875 63.09375 
Q 16.5 59.96875 16.5 54.203125 
Q 16.5 49.359375 19.40625 46.890625 
Q 22.3125 44.4375 30.421875 42.921875 
L 36.375 41.703125 
Q 47.40625 39.59375 52.65625 34.296875 
Q 57.90625 29 57.90625 20.125 
Q 57.90625 9.515625 50.796875 4.046875 
Q 43.703125 -1.421875 29.984375 -1.421875 
Q 24.8125 -1.421875 18.96875 -0.25 
Q 13.140625 0.921875 6.890625 3.21875 
L 6.890625 13.375 
Q 12.890625 10.015625 18.65625 8.296875 
Q 24.421875 6.59375 29.984375 6.59375 
Q 38.421875 6.59375 43.015625 9.90625 
Q 47.609375 13.234375 47.609375 19.390625 
Q 47.609375 24.75 44.3125 27.78125 
Q 41.015625 30.8125 33.5 32.328125 
L 27.484375 33.5 
Q 16.453125 35.6875 11.515625 40.375 
Q 6.59375 45.0625 6.59375 53.421875 
Q 6.59375 63.09375 13.40625 68.65625 
Q 20.21875 74.21875 32.171875 74.21875 
Q 37.3125 74.21875 42.625 73.28125 
Q 47.953125 72.359375 53.515625 70.515625 
z
" id="DejaVuSans-83"/>
     <path d="M 19.671875 64.796875 
L 19.671875 37.40625 
L 32.078125 37.40625 
Q 38.96875 37.40625 42.71875 40.96875 
Q 46.484375 44.53125 46.484375 51.125 
Q 46.484375 57.671875 42.71875 61.234375 
Q 38.96875 64.796875 32.078125 64.796875 
z
M 9.8125 72.90625 
L 32.078125 72.90625 
Q 44.34375 72.90625 50.609375 67.359375 
Q 56.890625 61.8125 56.890625 51.125 
Q 56.890625 40.328125 50.609375 34.8125 
Q 44.34375 29.296875 32.078125 29.296875 
L 19.671875 29.296875 
L 19.671875 0 
L 9.8125 0 
z
" id="DejaVuSans-80"/>
     <path d="M 9.8125 72.90625 
L 55.90625 72.90625 
L 55.90625 64.59375 
L 19.671875 64.59375 
L 19.671875 43.015625 
L 54.390625 43.015625 
L 54.390625 34.71875 
L 19.671875 34.71875 
L 19.671875 8.296875 
L 56.78125 8.296875 
L 56.78125 0 
L 9.8125 0 
z
" id="DejaVuSans-69"/>
     <path d="M 34.1875 63.1875 
L 20.796875 26.90625 
L 47.609375 26.90625 
z
M 28.609375 72.90625 
L 39.796875 72.90625 
L 67.578125 0 
L 57.328125 0 
L 50.6875 18.703125 
L 17.828125 18.703125 
L 11.1875 0 
L 0.78125 0 
z
" id="DejaVuSans-65"/>
    </defs>
    <g transform="translate(375.22944 298.536482)scale(0.17 -0.17)">
     <use xlink:href="#DejaVuSans-83"/>
     <use x="63.476562" xlink:href="#DejaVuSans-80"/>
     <use x="123.779297" xlink:href="#DejaVuSans-69"/>
     <use x="186.962891" xlink:href="#DejaVuSans-65"/>
     <use x="255.371094" xlink:href="#DejaVuSans-50"/>
     <use x="318.994141" xlink:href="#DejaVuSans-45"/>
     <use x="355.078125" xlink:href="#DejaVuSans-112"/>
     <use x="418.554688" xlink:href="#DejaVuSans-108"/>
     <use x="446.337891" xlink:href="#DejaVuSans-97"/>
    </g>
   </g>
   <g id="text_14">
    <!-- MOEAD-pla -->
    <defs>
     <path d="M 9.8125 72.90625 
L 24.515625 72.90625 
L 43.109375 23.296875 
L 61.8125 72.90625 
L 76.515625 72.90625 
L 76.515625 0 
L 66.890625 0 
L 66.890625 64.015625 
L 48.09375 14.015625 
L 38.1875 14.015625 
L 19.390625 64.015625 
L 19.390625 0 
L 9.8125 0 
z
" id="DejaVuSans-77"/>
     <path d="M 39.40625 66.21875 
Q 28.65625 66.21875 22.328125 58.203125 
Q 16.015625 50.203125 16.015625 36.375 
Q 16.015625 22.609375 22.328125 14.59375 
Q 28.65625 6.59375 39.40625 6.59375 
Q 50.140625 6.59375 56.421875 14.59375 
Q 62.703125 22.609375 62.703125 36.375 
Q 62.703125 50.203125 56.421875 58.203125 
Q 50.140625 66.21875 39.40625 66.21875 
z
M 39.40625 74.21875 
Q 54.734375 74.21875 63.90625 63.9375 
Q 73.09375 53.65625 73.09375 36.375 
Q 73.09375 19.140625 63.90625 8.859375 
Q 54.734375 -1.421875 39.40625 -1.421875 
Q 24.03125 -1.421875 14.8125 8.828125 
Q 5.609375 19.09375 5.609375 36.375 
Q 5.609375 53.65625 14.8125 63.9375 
Q 24.03125 74.21875 39.40625 74.21875 
z
" id="DejaVuSans-79"/>
     <path d="M 19.671875 64.796875 
L 19.671875 8.109375 
L 31.59375 8.109375 
Q 46.6875 8.109375 53.6875 14.9375 
Q 60.6875 21.78125 60.6875 36.53125 
Q 60.6875 51.171875 53.6875 57.984375 
Q 46.6875 64.796875 31.59375 64.796875 
z
M 9.8125 72.90625 
L 30.078125 72.90625 
Q 51.265625 72.90625 61.171875 64.09375 
Q 71.09375 55.28125 71.09375 36.53125 
Q 71.09375 17.671875 61.125 8.828125 
Q 51.171875 0 30.078125 0 
L 9.8125 0 
z
" id="DejaVuSans-68"/>
    </defs>
    <g transform="translate(375.22944 216.961195)scale(0.17 -0.17)">
     <use xlink:href="#DejaVuSans-77"/>
     <use x="86.279297" xlink:href="#DejaVuSans-79"/>
     <use x="164.990234" xlink:href="#DejaVuSans-69"/>
     <use x="228.173828" xlink:href="#DejaVuSans-65"/>
     <use x="296.582031" xlink:href="#DejaVuSans-68"/>
     <use x="373.583984" xlink:href="#DejaVuSans-45"/>
     <use x="409.667969" xlink:href="#DejaVuSans-112"/>
     <use x="473.144531" xlink:href="#DejaVuSans-108"/>
     <use x="500.927734" xlink:href="#DejaVuSans-97"/>
    </g>
   </g>
   <g id="text_15">
    <!-- GDE3-plat -->
    <defs>
     <path d="M 59.515625 10.40625 
L 59.515625 29.984375 
L 43.40625 29.984375 
L 43.40625 38.09375 
L 69.28125 38.09375 
L 69.28125 6.78125 
Q 63.578125 2.734375 56.6875 0.65625 
Q 49.8125 -1.421875 42 -1.421875 
Q 24.90625 -1.421875 15.25 8.5625 
Q 5.609375 18.5625 5.609375 36.375 
Q 5.609375 54.25 15.25 64.234375 
Q 24.90625 74.21875 42 74.21875 
Q 49.125 74.21875 55.546875 72.453125 
Q 61.96875 70.703125 67.390625 67.28125 
L 67.390625 56.78125 
Q 61.921875 61.421875 55.765625 63.765625 
Q 49.609375 66.109375 42.828125 66.109375 
Q 29.4375 66.109375 22.71875 58.640625 
Q 16.015625 51.171875 16.015625 36.375 
Q 16.015625 21.625 22.71875 14.15625 
Q 29.4375 6.6875 42.828125 6.6875 
Q 48.046875 6.6875 52.140625 7.59375 
Q 56.25 8.5 59.515625 10.40625 
z
" id="DejaVuSans-71"/>
     <path d="M 40.578125 39.3125 
Q 47.65625 37.796875 51.625 33 
Q 55.609375 28.21875 55.609375 21.1875 
Q 55.609375 10.40625 48.1875 4.484375 
Q 40.765625 -1.421875 27.09375 -1.421875 
Q 22.515625 -1.421875 17.65625 -0.515625 
Q 12.796875 0.390625 7.625 2.203125 
L 7.625 11.71875 
Q 11.71875 9.328125 16.59375 8.109375 
Q 21.484375 6.890625 26.8125 6.890625 
Q 36.078125 6.890625 40.9375 10.546875 
Q 45.796875 14.203125 45.796875 21.1875 
Q 45.796875 27.640625 41.28125 31.265625 
Q 36.765625 34.90625 28.71875 34.90625 
L 20.21875 34.90625 
L 20.21875 43.015625 
L 29.109375 43.015625 
Q 36.375 43.015625 40.234375 45.921875 
Q 44.09375 48.828125 44.09375 54.296875 
Q 44.09375 59.90625 40.109375 62.90625 
Q 36.140625 65.921875 28.71875 65.921875 
Q 24.65625 65.921875 20.015625 65.03125 
Q 15.375 64.15625 9.8125 62.3125 
L 9.8125 71.09375 
Q 15.4375 72.65625 20.34375 73.4375 
Q 25.25 74.21875 29.59375 74.21875 
Q 40.828125 74.21875 47.359375 69.109375 
Q 53.90625 64.015625 53.90625 55.328125 
Q 53.90625 49.265625 50.4375 45.09375 
Q 46.96875 40.921875 40.578125 39.3125 
z
" id="DejaVuSans-51"/>
    </defs>
    <g transform="translate(375.22944 135.385908)scale(0.17 -0.17)">
     <use xlink:href="#DejaVuSans-71"/>
     <use x="77.490234" xlink:href="#DejaVuSans-68"/>
     <use x="154.492188" xlink:href="#DejaVuSans-69"/>
     <use x="217.675781" xlink:href="#DejaVuSans-51"/>
     <use x="281.298828" xlink:href="#DejaVuSans-45"/>
     <use x="317.382812" xlink:href="#DejaVuSans-112"/>
     <use x="380.859375" xlink:href="#DejaVuSans-108"/>
     <use x="408.642578" xlink:href="#DejaVuSans-97"/>
     <use x="469.921875" xlink:href="#DejaVuSans-116"/>
    </g>
   </g>
   <g id="text_16">
    <!-- best 2016 -->
    <defs>
     <path d="M 48.6875 27.296875 
Q 48.6875 37.203125 44.609375 42.84375 
Q 40.53125 48.484375 33.40625 48.484375 
Q 26.265625 48.484375 22.1875 42.84375 
Q 18.109375 37.203125 18.109375 27.296875 
Q 18.109375 17.390625 22.1875 11.75 
Q 26.265625 6.109375 33.40625 6.109375 
Q 40.53125 6.109375 44.609375 11.75 
Q 48.6875 17.390625 48.6875 27.296875 
z
M 18.109375 46.390625 
Q 20.953125 51.265625 25.265625 53.625 
Q 29.59375 56 35.59375 56 
Q 45.5625 56 51.78125 48.09375 
Q 58.015625 40.1875 58.015625 27.296875 
Q 58.015625 14.40625 51.78125 6.484375 
Q 45.5625 -1.421875 35.59375 -1.421875 
Q 29.59375 -1.421875 25.265625 0.953125 
Q 20.953125 3.328125 18.109375 8.203125 
L 18.109375 0 
L 9.078125 0 
L 9.078125 75.984375 
L 18.109375 75.984375 
z
" id="DejaVuSans-98"/>
    </defs>
    <g transform="translate(375.22944 53.810621)scale(0.17 -0.17)">
     <use xlink:href="#DejaVuSans-98"/>
     <use x="63.476562" xlink:href="#DejaVuSans-101"/>
     <use x="125" xlink:href="#DejaVuSans-115"/>
     <use x="177.099609" xlink:href="#DejaVuSans-116"/>
     <use x="216.308594" xlink:href="#DejaVuSans-32"/>
     <use x="248.095703" xlink:href="#DejaVuSans-50"/>
     <use x="311.71875" xlink:href="#DejaVuSans-48"/>
     <use x="375.341797" xlink:href="#DejaVuSans-49"/>
     <use x="438.964844" xlink:href="#DejaVuSans-54"/>
    </g>
   </g>
   <g id="text_17">
    <!-- bbob-biobj f28, 40-D -->
    <defs>
     <path d="M 9.421875 54.6875 
L 18.40625 54.6875 
L 18.40625 -0.984375 
Q 18.40625 -11.421875 14.421875 -16.109375 
Q 10.453125 -20.796875 1.609375 -20.796875 
L -1.8125 -20.796875 
L -1.8125 -13.1875 
L 0.59375 -13.1875 
Q 5.71875 -13.1875 7.5625 -10.8125 
Q 9.421875 -8.453125 9.421875 -0.984375 
z
M 9.421875 75.984375 
L 18.40625 75.984375 
L 18.40625 64.59375 
L 9.421875 64.59375 
z
" id="DejaVuSans-106"/>
    </defs>
    <g transform="translate(60.41088 51.797126)scale(0.102 -0.102)">
     <use xlink:href="#DejaVuSans-98"/>
     <use x="63.476562" xlink:href="#DejaVuSans-98"/>
     <use x="126.953125" xlink:href="#DejaVuSans-111"/>
     <use x="188.134766" xlink:href="#DejaVuSans-98"/>
     <use x="251.611328" xlink:href="#DejaVuSans-45"/>
     <use x="287.695312" xlink:href="#DejaVuSans-98"/>
     <use x="351.171875" xlink:href="#DejaVuSans-105"/>
     <use x="378.955078" xlink:href="#DejaVuSans-111"/>
     <use x="440.136719" xlink:href="#DejaVuSans-98"/>
     <use x="503.613281" xlink:href="#DejaVuSans-106"/>
     <use x="531.396484" xlink:href="#DejaVuSans-32"/>
     <use x="563.183594" xlink:href="#DejaVuSans-102"/>
     <use x="598.388672" xlink:href="#DejaVuSans-50"/>
     <use x="662.011719" xlink:href="#DejaVuSans-56"/>
     <use x="725.634766" xlink:href="#DejaVuSans-44"/>
     <use x="757.421875" xlink:href="#DejaVuSans-32"/>
     <use x="789.208984" xlink:href="#DejaVuSans-52"/>
     <use x="852.832031" xlink:href="#DejaVuSans-48"/>
     <use x="916.455078" xlink:href="#DejaVuSans-45"/>
     <use x="952.539062" xlink:href="#DejaVuSans-68"/>
    </g>
    <!-- 58 targets: 1..-1.0e-4 -->
    <defs>
     <path d="M 10.796875 72.90625 
L 49.515625 72.90625 
L 49.515625 64.59375 
L 19.828125 64.59375 
L 19.828125 46.734375 
Q 21.96875 47.46875 24.109375 47.828125 
Q 26.265625 48.1875 28.421875 48.1875 
Q 40.625 48.1875 47.75 41.5 
Q 54.890625 34.8125 54.890625 23.390625 
Q 54.890625 11.625 47.5625 5.09375 
Q 40.234375 -1.421875 26.90625 -1.421875 
Q 22.3125 -1.421875 17.546875 -0.640625 
Q 12.796875 0.140625 7.71875 1.703125 
L 7.71875 11.625 
Q 12.109375 9.234375 16.796875 8.0625 
Q 21.484375 6.890625 26.703125 6.890625 
Q 35.15625 6.890625 40.078125 11.328125 
Q 45.015625 15.765625 45.015625 23.390625 
Q 45.015625 31 40.078125 35.4375 
Q 35.15625 39.890625 26.703125 39.890625 
Q 22.75 39.890625 18.8125 39.015625 
Q 14.890625 38.140625 10.796875 36.28125 
z
" id="DejaVuSans-53"/>
     <path d="M 11.71875 12.40625 
L 22.015625 12.40625 
L 22.015625 0 
L 11.71875 0 
z
M 11.71875 51.703125 
L 22.015625 51.703125 
L 22.015625 39.3125 
L 11.71875 39.3125 
z
" id="DejaVuSans-58"/>
    </defs>
    <g transform="translate(60.41088 63.218895)scale(0.102 -0.102)">
     <use xlink:href="#DejaVuSans-53"/>
     <use x="63.623047" xlink:href="#DejaVuSans-56"/>
     <use x="127.246094" xlink:href="#DejaVuSans-32"/>
     <use x="159.033203" xlink:href="#DejaVuSans-116"/>
     <use x="198.242188" xlink:href="#DejaVuSans-97"/>
     <use x="259.521484" xlink:href="#DejaVuSans-114"/>
     <use x="300.619141" xlink:href="#DejaVuSans-103"/>
     <use x="364.095703" xlink:href="#DejaVuSans-101"/>
     <use x="425.619141" xlink:href="#DejaVuSans-116"/>
     <use x="464.828125" xlink:href="#DejaVuSans-115"/>
     <use x="516.927734" xlink:href="#DejaVuSans-58"/>
     <use x="550.619141" xlink:href="#DejaVuSans-32"/>
     <use x="582.40625" xlink:href="#DejaVuSans-49"/>
     <use x="646.029297" xlink:href="#DejaVuSans-46"/>
     <use x="677.816406" xlink:href="#DejaVuSans-46"/>
     <use x="709.603516" xlink:href="#DejaVuSans-45"/>
     <use x="745.6875" xlink:href="#DejaVuSans-49"/>
     <use x="809.310547" xlink:href="#DejaVuSans-46"/>
     <use x="841.097656" xlink:href="#DejaVuSans-48"/>
     <use x="904.720703" xlink:href="#DejaVuSans-101"/>
     <use x="966.244141" xlink:href="#DejaVuSans-45"/>
     <use x="1002.328125" xlink:href="#DejaVuSans-52"/>
    </g>
    <!-- 10 instances -->
    <g transform="translate(60.41088 74.640664)scale(0.102 -0.102)">
     <use xlink:href="#DejaVuSans-49"/>
     <use x="63.623047" xlink:href="#DejaVuSans-48"/>
     <use x="127.246094" xlink:href="#DejaVuSans-32"/>
     <use x="159.033203" xlink:href="#DejaVuSans-105"/>
     <use x="186.816406" xlink:href="#DejaVuSans-110"/>
     <use x="250.195312" xlink:href="#DejaVuSans-115"/>
     <use x="302.294922" xlink:href="#DejaVuSans-116"/>
     <use x="341.503906" xlink:href="#DejaVuSans-97"/>
     <use x="402.783203" xlink:href="#DejaVuSans-110"/>
     <use x="466.162109" xlink:href="#DejaVuSans-99"/>
     <use x="521.142578" xlink:href="#DejaVuSans-101"/>
     <use x="582.666016" xlink:href="#DejaVuSans-115"/>
    </g>
   </g>
   <g id="text_18">
    <!-- v2.3.1.31, hv-hash=9c62f617dadcb154 -->
    <defs>
     <path d="M 54.890625 33.015625 
L 54.890625 0 
L 45.90625 0 
L 45.90625 32.71875 
Q 45.90625 40.484375 42.875 44.328125 
Q 39.84375 48.1875 33.796875 48.1875 
Q 26.515625 48.1875 22.3125 43.546875 
Q 18.109375 38.921875 18.109375 30.90625 
L 18.109375 0 
L 9.078125 0 
L 9.078125 75.984375 
L 18.109375 75.984375 
L 18.109375 46.1875 
Q 21.34375 51.125 25.703125 53.5625 
Q 30.078125 56 35.796875 56 
Q 45.21875 56 50.046875 50.171875 
Q 54.890625 44.34375 54.890625 33.015625 
z
" id="DejaVuSans-104"/>
     <path d="M 10.59375 45.40625 
L 73.1875 45.40625 
L 73.1875 37.203125 
L 10.59375 37.203125 
z
M 10.59375 25.484375 
L 73.1875 25.484375 
L 73.1875 17.1875 
L 10.59375 17.1875 
z
" id="DejaVuSans-61"/>
     <path d="M 10.984375 1.515625 
L 10.984375 10.5 
Q 14.703125 8.734375 18.5 7.8125 
Q 22.3125 6.890625 25.984375 6.890625 
Q 35.75 6.890625 40.890625 13.453125 
Q 46.046875 20.015625 46.78125 33.40625 
Q 43.953125 29.203125 39.59375 26.953125 
Q 35.25 24.703125 29.984375 24.703125 
Q 19.046875 24.703125 12.671875 31.3125 
Q 6.296875 37.9375 6.296875 49.421875 
Q 6.296875 60.640625 12.9375 67.421875 
Q 19.578125 74.21875 30.609375 74.21875 
Q 43.265625 74.21875 49.921875 64.515625 
Q 56.59375 54.828125 56.59375 36.375 
Q 56.59375 19.140625 48.40625 8.859375 
Q 40.234375 -1.421875 26.421875 -1.421875 
Q 22.703125 -1.421875 18.890625 -0.6875 
Q 15.09375 0.046875 10.984375 1.515625 
z
M 30.609375 32.421875 
Q 37.25 32.421875 41.125 36.953125 
Q 45.015625 41.5 45.015625 49.421875 
Q 45.015625 57.28125 41.125 61.84375 
Q 37.25 66.40625 30.609375 66.40625 
Q 23.96875 66.40625 20.09375 61.84375 
Q 16.21875 57.28125 16.21875 49.421875 
Q 16.21875 41.5 20.09375 36.953125 
Q 23.96875 32.421875 30.609375 32.421875 
z
" id="DejaVuSans-57"/>
     <path d="M 8.203125 72.90625 
L 55.078125 72.90625 
L 55.078125 68.703125 
L 28.609375 0 
L 18.3125 0 
L 43.21875 64.59375 
L 8.203125 64.59375 
z
" id="DejaVuSans-55"/>
    </defs>
    <g style="fill:#808080;" transform="translate(98.729937 294.289592)scale(0.1 -0.1)">
     <use xlink:href="#DejaVuSans-118"/>
     <use x="59.179688" xlink:href="#DejaVuSans-50"/>
     <use x="122.802734" xlink:href="#DejaVuSans-46"/>
     <use x="154.589844" xlink:href="#DejaVuSans-51"/>
     <use x="218.212891" xlink:href="#DejaVuSans-46"/>
     <use x="250" xlink:href="#DejaVuSans-49"/>
     <use x="313.623047" xlink:href="#DejaVuSans-46"/>
     <use x="345.410156" xlink:href="#DejaVuSans-51"/>
     <use x="409.033203" xlink:href="#DejaVuSans-49"/>
     <use x="472.65625" xlink:href="#DejaVuSans-44"/>
     <use x="504.443359" xlink:href="#DejaVuSans-32"/>
     <use x="536.230469" xlink:href="#DejaVuSans-104"/>
     <use x="599.609375" xlink:href="#DejaVuSans-118"/>
     <use x="658.757812" xlink:href="#DejaVuSans-45"/>
     <use x="694.841797" xlink:href="#DejaVuSans-104"/>
     <use x="758.220703" xlink:href="#DejaVuSans-97"/>
     <use x="819.5" xlink:href="#DejaVuSans-115"/>
     <use x="871.599609" xlink:href="#DejaVuSans-104"/>
     <use x="934.978516" xlink:href="#DejaVuSans-61"/>
     <use x="1018.767578" xlink:href="#DejaVuSans-57"/>
     <use x="1082.390625" xlink:href="#DejaVuSans-99"/>
     <use x="1137.371094" xlink:href="#DejaVuSans-54"/>
     <use x="1200.994141" xlink:href="#DejaVuSans-50"/>
     <use x="1264.617188" xlink:href="#DejaVuSans-102"/>
     <use x="1299.822266" xlink:href="#DejaVuSans-54"/>
     <use x="1363.445312" xlink:href="#DejaVuSans-49"/>
     <use x="1427.068359" xlink:href="#DejaVuSans-55"/>
     <use x="1490.691406" xlink:href="#DejaVuSans-100"/>
     <use x="1554.167969" xlink:href="#DejaVuSans-97"/>
     <use x="1615.447266" xlink:href="#DejaVuSans-100"/>
     <use x="1678.923828" xlink:href="#DejaVuSans-99"/>
     <use x="1733.904297" xlink:href="#DejaVuSans-98"/>
     <use x="1797.380859" xlink:href="#DejaVuSans-49"/>
     <use x="1861.003906" xlink:href="#DejaVuSans-53"/>
     <use x="1924.626953" xlink:href="#DejaVuSans-52"/>
    </g>
   </g>
   <g id="text_19">
    <!-- 28 Rosenbrock/Rosenbrock -->
    <defs>
     <path d="M 44.390625 34.1875 
Q 47.5625 33.109375 50.5625 29.59375 
Q 53.5625 26.078125 56.59375 19.921875 
L 66.609375 0 
L 56 0 
L 46.6875 18.703125 
Q 43.0625 26.03125 39.671875 28.421875 
Q 36.28125 30.8125 30.421875 30.8125 
L 19.671875 30.8125 
L 19.671875 0 
L 9.8125 0 
L 9.8125 72.90625 
L 32.078125 72.90625 
Q 44.578125 72.90625 50.734375 67.671875 
Q 56.890625 62.453125 56.890625 51.90625 
Q 56.890625 45.015625 53.6875 40.46875 
Q 50.484375 35.9375 44.390625 34.1875 
z
M 19.671875 64.796875 
L 19.671875 38.921875 
L 32.078125 38.921875 
Q 39.203125 38.921875 42.84375 42.21875 
Q 46.484375 45.515625 46.484375 51.90625 
Q 46.484375 58.296875 42.84375 61.546875 
Q 39.203125 64.796875 32.078125 64.796875 
z
" id="DejaVuSans-82"/>
     <path d="M 9.078125 75.984375 
L 18.109375 75.984375 
L 18.109375 31.109375 
L 44.921875 54.6875 
L 56.390625 54.6875 
L 27.390625 29.109375 
L 57.625 0 
L 45.90625 0 
L 18.109375 26.703125 
L 18.109375 0 
L 9.078125 0 
z
" id="DejaVuSans-107"/>
    </defs>
    <g transform="translate(61.622125 35.472)scale(0.2 -0.2)">
     <use xlink:href="#DejaVuSans-50"/>
     <use x="63.623047" xlink:href="#DejaVuSans-56"/>
     <use x="127.246094" xlink:href="#DejaVuSans-32"/>
     <use x="159.033203" xlink:href="#DejaVuSans-82"/>
     <use x="228.453125" xlink:href="#DejaVuSans-111"/>
     <use x="289.634766" xlink:href="#DejaVuSans-115"/>
     <use x="341.734375" xlink:href="#DejaVuSans-101"/>
     <use x="403.257812" xlink:href="#DejaVuSans-110"/>
     <use x="466.636719" xlink:href="#DejaVuSans-98"/>
     <use x="530.113281" xlink:href="#DejaVuSans-114"/>
     <use x="571.195312" xlink:href="#DejaVuSans-111"/>
     <use x="632.376953" xlink:href="#DejaVuSans-99"/>
     <use x="687.357422" xlink:href="#DejaVuSans-107"/>
     <use x="745.267578" xlink:href="#DejaVuSans-47"/>
     <use x="778.958984" xlink:href="#DejaVuSans-82"/>
     <use x="848.378906" xlink:href="#DejaVuSans-111"/>
     <use x="909.560547" xlink:href="#DejaVuSans-115"/>
     <use x="961.660156" xlink:href="#DejaVuSans-101"/>
     <use x="1023.183594" xlink:href="#DejaVuSans-110"/>
     <use x="1086.5625" xlink:href="#DejaVuSans-98"/>
     <use x="1150.039062" xlink:href="#DejaVuSans-114"/>
     <use x="1191.121094" xlink:href="#DejaVuSans-111"/>
     <use x="1252.302734" xlink:href="#DejaVuSans-99"/>
     <use x="1307.283203" xlink:href="#DejaVuSans-107"/>
    </g>
   </g>
  </g>
 </g>
 <defs>
  <clipPath id="pa9028c4cd5">
   <rect height="257.472" width="281.088" x="57.6" y="41.472"/>
  </clipPath>
 </defs>
</svg>
