<?xml version="1.0" encoding="utf-8" standalone="no"?>
<!DOCTYPE svg PUBLIC "-//W3C//DTD SVG 1.1//EN"
  "http://www.w3.org/Graphics/SVG/1.1/DTD/svg11.dtd">
<!-- Created with matplotlib (https://matplotlib.org/) -->
<svg height="345.6pt" version="1.1" viewBox="0 0 460.8 345.6" width="460.8pt" xmlns="http://www.w3.org/2000/svg" xmlns:xlink="http://www.w3.org/1999/xlink">
 <defs>
  <style type="text/css">
*{stroke-linecap:butt;stroke-linejoin:round;}
  </style>
 </defs>
 <g id="figure_1">
  <g id="patch_1">
   <path d="M 0 345.6 
L 460.8 345.6 
L 460.8 0 
L 0 0 
z
" style="fill:#ffffff;"/>
  </g>
  <g id="axes_1">
   <g id="patch_2">
    <path d="M 57.6 298.944 
L 338.688 298.944 
L 338.688 41.472 
L 57.6 41.472 
z
" style="fill:#ffffff;"/>
   </g>
   <g id="line2d_1">
    <path d="M 12.427603 298.944 
L 12.427603 294.54878 
L 69.687988 294.54878 
L 69.687988 285.758339 
L 118.430642 285.758339 
L 118.430642 276.967899 
L 142.456092 276.967899 
L 142.456092 272.572679 
L 146.442037 272.572679 
L 146.442037 259.387018 
L 153.279836 259.387018 
L 153.279836 250.596578 
L 204.551379 250.596578 
L 204.551379 246.201357 
L 226.008016 246.201357 
L 226.008016 237.410917 
L 237.532826 237.410917 
L 237.532826 224.225256 
L 252.358729 224.225256 
L 252.358729 215.434816 
L 260.224524 215.434816 
L 260.224524 206.644376 
L 286.140504 206.644376 
L 286.140504 197.853935 
L 338.688 197.853935 
" style="fill:none;stroke:#f5deb3;stroke-linecap:square;stroke-width:4;"/>
   </g>
   <g id="line2d_2">
    <defs>
     <path d="M 0 7.778175 
L 7.778175 0 
L 0 -7.778175 
L -7.778175 0 
z
" id="m2f259447db" style="stroke:#f5deb3;stroke-linejoin:miter;stroke-width:1.5;"/>
    </defs>
    <g>
     <use style="fill:#f5deb3;stroke:#f5deb3;stroke-linejoin:miter;stroke-width:1.5;" x="142.456092" xlink:href="#m2f259447db" y="272.572679"/>
     <use style="fill:#f5deb3;stroke:#f5deb3;stroke-linejoin:miter;stroke-width:1.5;" x="153.279836" xlink:href="#m2f259447db" y="250.596578"/>
     <use style="fill:#f5deb3;stroke:#f5deb3;stroke-linejoin:miter;stroke-width:1.5;" x="260.224524" xlink:href="#m2f259447db" y="215.434816"/>
     <use style="fill:#f5deb3;stroke:#f5deb3;stroke-linejoin:miter;stroke-width:1.5;" x="286.140504" xlink:href="#m2f259447db" y="197.853935"/>
     <use style="fill:#f5deb3;stroke:#f5deb3;stroke-linejoin:miter;stroke-width:1.5;" x="286.140504" xlink:href="#m2f259447db" y="197.853935"/>
     <use style="fill:#f5deb3;stroke:#f5deb3;stroke-linejoin:miter;stroke-width:1.5;" x="338.688" xlink:href="#m2f259447db" y="197.853935"/>
    </g>
   </g>
   <g id="line2d_3">
    <path style="fill:none;stroke:#f5deb3;stroke-linecap:square;stroke-width:4;"/>
    <g/>
   </g>
   <g id="line2d_4">
    <path d="M 338.688 197.853935 
L 369.60768 212.270257 
" style="fill:none;stroke:#f5deb3;stroke-linecap:square;stroke-width:4;"/>
    <g>
     <use style="fill:#f5deb3;stroke:#f5deb3;stroke-linejoin:miter;stroke-width:1.5;" x="338.688" xlink:href="#m2f259447db" y="197.853935"/>
     <use style="fill:#f5deb3;stroke:#f5deb3;stroke-linejoin:miter;stroke-width:1.5;" x="369.60768" xlink:href="#m2f259447db" y="212.270257"/>
    </g>
   </g>
   <g id="matplotlib.axis_1">
    <g id="xtick_1">
     <g id="line2d_5">
      <path clip-path="url(#pe31187749f)" d="M 57.6 298.944 
L 57.6 41.472 
" style="fill:none;stroke:#b0b0b0;stroke-linecap:square;stroke-width:0.8;"/>
     </g>
     <g id="line2d_6">
      <defs>
       <path d="M 0 0 
L 0 3.5 
" id="md810fa06f7" style="stroke:#000000;stroke-width:0.8;"/>
      </defs>
      <g>
       <use style="stroke:#000000;stroke-width:0.8;" x="57.6" xlink:href="#md810fa06f7" y="298.944"/>
      </g>
     </g>
     <g id="text_1">
      <!-- 0 -->
      <defs>
       <path d="M 31.78125 66.40625 
Q 24.171875 66.40625 20.328125 58.90625 
Q 16.5 51.421875 16.5 36.375 
Q 16.5 21.390625 20.328125 13.890625 
Q 24.171875 6.390625 31.78125 6.390625 
Q 39.453125 6.390625 43.28125 13.890625 
Q 47.125 21.390625 47.125 36.375 
Q 47.125 51.421875 43.28125 58.90625 
Q 39.453125 66.40625 31.78125 66.40625 
z
M 31.78125 74.21875 
Q 44.046875 74.21875 50.515625 64.515625 
Q 56.984375 54.828125 56.984375 36.375 
Q 56.984375 17.96875 50.515625 8.265625 
Q 44.046875 -1.421875 31.78125 -1.421875 
Q 19.53125 -1.421875 13.0625 8.265625 
Q 6.59375 17.96875 6.59375 36.375 
Q 6.59375 54.828125 13.0625 64.515625 
Q 19.53125 74.21875 31.78125 74.21875 
z
" id="DejaVuSans-48"/>
      </defs>
      <g transform="translate(51.2375 321.140875)scale(0.2 -0.2)">
       <use xlink:href="#DejaVuSans-48"/>
      </g>
     </g>
    </g>
    <g id="xtick_2">
     <g id="line2d_7">
      <path clip-path="url(#pe31187749f)" d="M 137.910857 298.944 
L 137.910857 41.472 
" style="fill:none;stroke:#b0b0b0;stroke-linecap:square;stroke-width:0.8;"/>
     </g>
     <g id="line2d_8">
      <g>
       <use style="stroke:#000000;stroke-width:0.8;" x="137.910857" xlink:href="#md810fa06f7" y="298.944"/>
      </g>
     </g>
     <g id="text_2">
      <!-- 2 -->
      <defs>
       <path d="M 19.1875 8.296875 
L 53.609375 8.296875 
L 53.609375 0 
L 7.328125 0 
L 7.328125 8.296875 
Q 12.9375 14.109375 22.625 23.890625 
Q 32.328125 33.6875 34.8125 36.53125 
Q 39.546875 41.84375 41.421875 45.53125 
Q 43.3125 49.21875 43.3125 52.78125 
Q 43.3125 58.59375 39.234375 62.25 
Q 35.15625 65.921875 28.609375 65.921875 
Q 23.96875 65.921875 18.8125 64.3125 
Q 13.671875 62.703125 7.8125 59.421875 
L 7.8125 69.390625 
Q 13.765625 71.78125 18.9375 73 
Q 24.125 74.21875 28.421875 74.21875 
Q 39.75 74.21875 46.484375 68.546875 
Q 53.21875 62.890625 53.21875 53.421875 
Q 53.21875 48.921875 51.53125 44.890625 
Q 49.859375 40.875 45.40625 35.40625 
Q 44.1875 33.984375 37.640625 27.21875 
Q 31.109375 20.453125 19.1875 8.296875 
z
" id="DejaVuSans-50"/>
      </defs>
      <g transform="translate(131.548357 321.140875)scale(0.2 -0.2)">
       <use xlink:href="#DejaVuSans-50"/>
      </g>
     </g>
    </g>
    <g id="xtick_3">
     <g id="line2d_9">
      <path clip-path="url(#pe31187749f)" d="M 218.221714 298.944 
L 218.221714 41.472 
" style="fill:none;stroke:#b0b0b0;stroke-linecap:square;stroke-width:0.8;"/>
     </g>
     <g id="line2d_10">
      <g>
       <use style="stroke:#000000;stroke-width:0.8;" x="218.221714" xlink:href="#md810fa06f7" y="298.944"/>
      </g>
     </g>
     <g id="text_3">
      <!-- 4 -->
      <defs>
       <path d="M 37.796875 64.3125 
L 12.890625 25.390625 
L 37.796875 25.390625 
z
M 35.203125 72.90625 
L 47.609375 72.90625 
L 47.609375 25.390625 
L 58.015625 25.390625 
L 58.015625 17.1875 
L 47.609375 17.1875 
L 47.609375 0 
L 37.796875 0 
L 37.796875 17.1875 
L 4.890625 17.1875 
L 4.890625 26.703125 
z
" id="DejaVuSans-52"/>
      </defs>
      <g transform="translate(211.859214 321.140875)scale(0.2 -0.2)">
       <use xlink:href="#DejaVuSans-52"/>
      </g>
     </g>
    </g>
    <g id="xtick_4">
     <g id="line2d_11">
      <path clip-path="url(#pe31187749f)" d="M 298.532571 298.944 
L 298.532571 41.472 
" style="fill:none;stroke:#b0b0b0;stroke-linecap:square;stroke-width:0.8;"/>
     </g>
     <g id="line2d_12">
      <g>
       <use style="stroke:#000000;stroke-width:0.8;" x="298.532571" xlink:href="#md810fa06f7" y="298.944"/>
      </g>
     </g>
     <g id="text_4">
      <!-- 6 -->
      <defs>
       <path d="M 33.015625 40.375 
Q 26.375 40.375 22.484375 35.828125 
Q 18.609375 31.296875 18.609375 23.390625 
Q 18.609375 15.53125 22.484375 10.953125 
Q 26.375 6.390625 33.015625 6.390625 
Q 39.65625 6.390625 43.53125 10.953125 
Q 47.40625 15.53125 47.40625 23.390625 
Q 47.40625 31.296875 43.53125 35.828125 
Q 39.65625 40.375 33.015625 40.375 
z
M 52.59375 71.296875 
L 52.59375 62.3125 
Q 48.875 64.0625 45.09375 64.984375 
Q 41.3125 65.921875 37.59375 65.921875 
Q 27.828125 65.921875 22.671875 59.328125 
Q 17.53125 52.734375 16.796875 39.40625 
Q 19.671875 43.65625 24.015625 45.921875 
Q 28.375 48.1875 33.59375 48.1875 
Q 44.578125 48.1875 50.953125 41.515625 
Q 57.328125 34.859375 57.328125 23.390625 
Q 57.328125 12.15625 50.6875 5.359375 
Q 44.046875 -1.421875 33.015625 -1.421875 
Q 20.359375 -1.421875 13.671875 8.265625 
Q 6.984375 17.96875 6.984375 36.375 
Q 6.984375 53.65625 15.1875 63.9375 
Q 23.390625 74.21875 37.203125 74.21875 
Q 40.921875 74.21875 44.703125 73.484375 
Q 48.484375 72.75 52.59375 71.296875 
z
" id="DejaVuSans-54"/>
      </defs>
      <g transform="translate(292.170071 321.140875)scale(0.2 -0.2)">
       <use xlink:href="#DejaVuSans-54"/>
      </g>
     </g>
    </g>
    <g id="xtick_5">
     <g id="line2d_13">
      <path clip-path="url(#pe31187749f)" d="M 57.6 298.944 
L 57.6 41.472 
" style="fill:none;stroke:#b0b0b0;stroke-linecap:square;stroke-width:0.8;"/>
     </g>
     <g id="line2d_14">
      <defs>
       <path d="M 0 0 
L 0 2 
" id="m2fbd8c7ab8" style="stroke:#000000;stroke-width:0.6;"/>
      </defs>
      <g>
       <use style="stroke:#000000;stroke-width:0.6;" x="57.6" xlink:href="#m2fbd8c7ab8" y="298.944"/>
      </g>
     </g>
    </g>
    <g id="xtick_6">
     <g id="line2d_15">
      <path clip-path="url(#pe31187749f)" d="M 97.755429 298.944 
L 97.755429 41.472 
" style="fill:none;stroke:#b0b0b0;stroke-linecap:square;stroke-width:0.8;"/>
     </g>
     <g id="line2d_16">
      <g>
       <use style="stroke:#000000;stroke-width:0.6;" x="97.755429" xlink:href="#m2fbd8c7ab8" y="298.944"/>
      </g>
     </g>
    </g>
    <g id="xtick_7">
     <g id="line2d_17">
      <path clip-path="url(#pe31187749f)" d="M 137.910857 298.944 
L 137.910857 41.472 
" style="fill:none;stroke:#b0b0b0;stroke-linecap:square;stroke-width:0.8;"/>
     </g>
     <g id="line2d_18">
      <g>
       <use style="stroke:#000000;stroke-width:0.6;" x="137.910857" xlink:href="#m2fbd8c7ab8" y="298.944"/>
      </g>
     </g>
    </g>
    <g id="xtick_8">
     <g id="line2d_19">
      <path clip-path="url(#pe31187749f)" d="M 178.066286 298.944 
L 178.066286 41.472 
" style="fill:none;stroke:#b0b0b0;stroke-linecap:square;stroke-width:0.8;"/>
     </g>
     <g id="line2d_20">
      <g>
       <use style="stroke:#000000;stroke-width:0.6;" x="178.066286" xlink:href="#m2fbd8c7ab8" y="298.944"/>
      </g>
     </g>
    </g>
    <g id="xtick_9">
     <g id="line2d_21">
      <path clip-path="url(#pe31187749f)" d="M 218.221714 298.944 
L 218.221714 41.472 
" style="fill:none;stroke:#b0b0b0;stroke-linecap:square;stroke-width:0.8;"/>
     </g>
     <g id="line2d_22">
      <g>
       <use style="stroke:#000000;stroke-width:0.6;" x="218.221714" xlink:href="#m2fbd8c7ab8" y="298.944"/>
      </g>
     </g>
    </g>
    <g id="xtick_10">
     <g id="line2d_23">
      <path clip-path="url(#pe31187749f)" d="M 258.377143 298.944 
L 258.377143 41.472 
" style="fill:none;stroke:#b0b0b0;stroke-linecap:square;stroke-width:0.8;"/>
     </g>
     <g id="line2d_24">
      <g>
       <use style="stroke:#000000;stroke-width:0.6;" x="258.377143" xlink:href="#m2fbd8c7ab8" y="298.944"/>
      </g>
     </g>
    </g>
    <g id="xtick_11">
     <g id="line2d_25">
      <path clip-path="url(#pe31187749f)" d="M 298.532571 298.944 
L 298.532571 41.472 
" style="fill:none;stroke:#b0b0b0;stroke-linecap:square;stroke-width:0.8;"/>
     </g>
     <g id="line2d_26">
      <g>
       <use style="stroke:#000000;stroke-width:0.6;" x="298.532571" xlink:href="#m2fbd8c7ab8" y="298.944"/>
      </g>
     </g>
    </g>
    <g id="xtick_12">
     <g id="line2d_27">
      <path clip-path="url(#pe31187749f)" d="M 338.688 298.944 
L 338.688 41.472 
" style="fill:none;stroke:#b0b0b0;stroke-linecap:square;stroke-width:0.8;"/>
     </g>
     <g id="line2d_28">
      <g>
       <use style="stroke:#000000;stroke-width:0.6;" x="338.688" xlink:href="#m2fbd8c7ab8" y="298.944"/>
      </g>
     </g>
    </g>
    <g id="text_5">
     <!-- log10(# f-evals / dimension) -->
     <defs>
      <path d="M 9.421875 75.984375 
L 18.40625 75.984375 
L 18.40625 0 
L 9.421875 0 
z
" id="DejaVuSans-108"/>
      <path d="M 30.609375 48.390625 
Q 23.390625 48.390625 19.1875 42.75 
Q 14.984375 37.109375 14.984375 27.296875 
Q 14.984375 17.484375 19.15625 11.84375 
Q 23.34375 6.203125 30.609375 6.203125 
Q 37.796875 6.203125 41.984375 11.859375 
Q 46.1875 17.53125 46.1875 27.296875 
Q 46.1875 37.015625 41.984375 42.703125 
Q 37.796875 48.390625 30.609375 48.390625 
z
M 30.609375 56 
Q 42.328125 56 49.015625 48.375 
Q 55.71875 40.765625 55.71875 27.296875 
Q 55.71875 13.875 49.015625 6.21875 
Q 42.328125 -1.421875 30.609375 -1.421875 
Q 18.84375 -1.421875 12.171875 6.21875 
Q 5.515625 13.875 5.515625 27.296875 
Q 5.515625 40.765625 12.171875 48.375 
Q 18.84375 56 30.609375 56 
z
" id="DejaVuSans-111"/>
      <path d="M 45.40625 27.984375 
Q 45.40625 37.75 41.375 43.109375 
Q 37.359375 48.484375 30.078125 48.484375 
Q 22.859375 48.484375 18.828125 43.109375 
Q 14.796875 37.75 14.796875 27.984375 
Q 14.796875 18.265625 18.828125 12.890625 
Q 22.859375 7.515625 30.078125 7.515625 
Q 37.359375 7.515625 41.375 12.890625 
Q 45.40625 18.265625 45.40625 27.984375 
z
M 54.390625 6.78125 
Q 54.390625 -7.171875 48.1875 -13.984375 
Q 42 -20.796875 29.203125 -20.796875 
Q 24.46875 -20.796875 20.265625 -20.09375 
Q 16.0625 -19.390625 12.109375 -17.921875 
L 12.109375 -9.1875 
Q 16.0625 -11.328125 19.921875 -12.34375 
Q 23.78125 -13.375 27.78125 -13.375 
Q 36.625 -13.375 41.015625 -8.765625 
Q 45.40625 -4.15625 45.40625 5.171875 
L 45.40625 9.625 
Q 42.625 4.78125 38.28125 2.390625 
Q 33.9375 0 27.875 0 
Q 17.828125 0 11.671875 7.65625 
Q 5.515625 15.328125 5.515625 27.984375 
Q 5.515625 40.671875 11.671875 48.328125 
Q 17.828125 56 27.875 56 
Q 33.9375 56 38.28125 53.609375 
Q 42.625 51.21875 45.40625 46.390625 
L 45.40625 54.6875 
L 54.390625 54.6875 
z
" id="DejaVuSans-103"/>
      <path d="M 12.40625 8.296875 
L 28.515625 8.296875 
L 28.515625 63.921875 
L 10.984375 60.40625 
L 10.984375 69.390625 
L 28.421875 72.90625 
L 38.28125 72.90625 
L 38.28125 8.296875 
L 54.390625 8.296875 
L 54.390625 0 
L 12.40625 0 
z
" id="DejaVuSans-49"/>
      <path d="M 31 75.875 
Q 24.46875 64.65625 21.28125 53.65625 
Q 18.109375 42.671875 18.109375 31.390625 
Q 18.109375 20.125 21.3125 9.0625 
Q 24.515625 -2 31 -13.1875 
L 23.1875 -13.1875 
Q 15.875 -1.703125 12.234375 9.375 
Q 8.59375 20.453125 8.59375 31.390625 
Q 8.59375 42.28125 12.203125 53.3125 
Q 15.828125 64.359375 23.1875 75.875 
z
" id="DejaVuSans-40"/>
      <path d="M 51.125 44 
L 36.921875 44 
L 32.8125 27.6875 
L 47.125 27.6875 
z
M 43.796875 71.78125 
L 38.71875 51.515625 
L 52.984375 51.515625 
L 58.109375 71.78125 
L 65.921875 71.78125 
L 60.890625 51.515625 
L 76.125 51.515625 
L 76.125 44 
L 58.984375 44 
L 54.984375 27.6875 
L 70.515625 27.6875 
L 70.515625 20.21875 
L 53.078125 20.21875 
L 48 0 
L 40.1875 0 
L 45.21875 20.21875 
L 30.90625 20.21875 
L 25.875 0 
L 18.015625 0 
L 23.09375 20.21875 
L 7.71875 20.21875 
L 7.71875 27.6875 
L 24.90625 27.6875 
L 29 44 
L 13.28125 44 
L 13.28125 51.515625 
L 30.90625 51.515625 
L 35.890625 71.78125 
z
" id="DejaVuSans-35"/>
      <path id="DejaVuSans-32"/>
      <path d="M 37.109375 75.984375 
L 37.109375 68.5 
L 28.515625 68.5 
Q 23.6875 68.5 21.796875 66.546875 
Q 19.921875 64.59375 19.921875 59.515625 
L 19.921875 54.6875 
L 34.71875 54.6875 
L 34.71875 47.703125 
L 19.921875 47.703125 
L 19.921875 0 
L 10.890625 0 
L 10.890625 47.703125 
L 2.296875 47.703125 
L 2.296875 54.6875 
L 10.890625 54.6875 
L 10.890625 58.5 
Q 10.890625 67.625 15.140625 71.796875 
Q 19.390625 75.984375 28.609375 75.984375 
z
" id="DejaVuSans-102"/>
      <path d="M 4.890625 31.390625 
L 31.203125 31.390625 
L 31.203125 23.390625 
L 4.890625 23.390625 
z
" id="DejaVuSans-45"/>
      <path d="M 56.203125 29.59375 
L 56.203125 25.203125 
L 14.890625 25.203125 
Q 15.484375 15.921875 20.484375 11.0625 
Q 25.484375 6.203125 34.421875 6.203125 
Q 39.59375 6.203125 44.453125 7.46875 
Q 49.3125 8.734375 54.109375 11.28125 
L 54.109375 2.78125 
Q 49.265625 0.734375 44.1875 -0.34375 
Q 39.109375 -1.421875 33.890625 -1.421875 
Q 20.796875 -1.421875 13.15625 6.1875 
Q 5.515625 13.8125 5.515625 26.8125 
Q 5.515625 40.234375 12.765625 48.109375 
Q 20.015625 56 32.328125 56 
Q 43.359375 56 49.78125 48.890625 
Q 56.203125 41.796875 56.203125 29.59375 
z
M 47.21875 32.234375 
Q 47.125 39.59375 43.09375 43.984375 
Q 39.0625 48.390625 32.421875 48.390625 
Q 24.90625 48.390625 20.390625 44.140625 
Q 15.875 39.890625 15.1875 32.171875 
z
" id="DejaVuSans-101"/>
      <path d="M 2.984375 54.6875 
L 12.5 54.6875 
L 29.59375 8.796875 
L 46.6875 54.6875 
L 56.203125 54.6875 
L 35.6875 0 
L 23.484375 0 
z
" id="DejaVuSans-118"/>
      <path d="M 34.28125 27.484375 
Q 23.390625 27.484375 19.1875 25 
Q 14.984375 22.515625 14.984375 16.5 
Q 14.984375 11.71875 18.140625 8.90625 
Q 21.296875 6.109375 26.703125 6.109375 
Q 34.1875 6.109375 38.703125 11.40625 
Q 43.21875 16.703125 43.21875 25.484375 
L 43.21875 27.484375 
z
M 52.203125 31.203125 
L 52.203125 0 
L 43.21875 0 
L 43.21875 8.296875 
Q 40.140625 3.328125 35.546875 0.953125 
Q 30.953125 -1.421875 24.3125 -1.421875 
Q 15.921875 -1.421875 10.953125 3.296875 
Q 6 8.015625 6 15.921875 
Q 6 25.140625 12.171875 29.828125 
Q 18.359375 34.515625 30.609375 34.515625 
L 43.21875 34.515625 
L 43.21875 35.40625 
Q 43.21875 41.609375 39.140625 45 
Q 35.0625 48.390625 27.6875 48.390625 
Q 23 48.390625 18.546875 47.265625 
Q 14.109375 46.140625 10.015625 43.890625 
L 10.015625 52.203125 
Q 14.9375 54.109375 19.578125 55.046875 
Q 24.21875 56 28.609375 56 
Q 40.484375 56 46.34375 49.84375 
Q 52.203125 43.703125 52.203125 31.203125 
z
" id="DejaVuSans-97"/>
      <path d="M 44.28125 53.078125 
L 44.28125 44.578125 
Q 40.484375 46.53125 36.375 47.5 
Q 32.28125 48.484375 27.875 48.484375 
Q 21.1875 48.484375 17.84375 46.4375 
Q 14.5 44.390625 14.5 40.28125 
Q 14.5 37.15625 16.890625 35.375 
Q 19.28125 33.59375 26.515625 31.984375 
L 29.59375 31.296875 
Q 39.15625 29.25 43.1875 25.515625 
Q 47.21875 21.78125 47.21875 15.09375 
Q 47.21875 7.46875 41.1875 3.015625 
Q 35.15625 -1.421875 24.609375 -1.421875 
Q 20.21875 -1.421875 15.453125 -0.5625 
Q 10.6875 0.296875 5.421875 2 
L 5.421875 11.28125 
Q 10.40625 8.6875 15.234375 7.390625 
Q 20.0625 6.109375 24.8125 6.109375 
Q 31.15625 6.109375 34.5625 8.28125 
Q 37.984375 10.453125 37.984375 14.40625 
Q 37.984375 18.0625 35.515625 20.015625 
Q 33.0625 21.96875 24.703125 23.78125 
L 21.578125 24.515625 
Q 13.234375 26.265625 9.515625 29.90625 
Q 5.8125 33.546875 5.8125 39.890625 
Q 5.8125 47.609375 11.28125 51.796875 
Q 16.75 56 26.8125 56 
Q 31.78125 56 36.171875 55.265625 
Q 40.578125 54.546875 44.28125 53.078125 
z
" id="DejaVuSans-115"/>
      <path d="M 25.390625 72.90625 
L 33.6875 72.90625 
L 8.296875 -9.28125 
L 0 -9.28125 
z
" id="DejaVuSans-47"/>
      <path d="M 45.40625 46.390625 
L 45.40625 75.984375 
L 54.390625 75.984375 
L 54.390625 0 
L 45.40625 0 
L 45.40625 8.203125 
Q 42.578125 3.328125 38.25 0.953125 
Q 33.9375 -1.421875 27.875 -1.421875 
Q 17.96875 -1.421875 11.734375 6.484375 
Q 5.515625 14.40625 5.515625 27.296875 
Q 5.515625 40.1875 11.734375 48.09375 
Q 17.96875 56 27.875 56 
Q 33.9375 56 38.25 53.625 
Q 42.578125 51.265625 45.40625 46.390625 
z
M 14.796875 27.296875 
Q 14.796875 17.390625 18.875 11.75 
Q 22.953125 6.109375 30.078125 6.109375 
Q 37.203125 6.109375 41.296875 11.75 
Q 45.40625 17.390625 45.40625 27.296875 
Q 45.40625 37.203125 41.296875 42.84375 
Q 37.203125 48.484375 30.078125 48.484375 
Q 22.953125 48.484375 18.875 42.84375 
Q 14.796875 37.203125 14.796875 27.296875 
z
" id="DejaVuSans-100"/>
      <path d="M 9.421875 54.6875 
L 18.40625 54.6875 
L 18.40625 0 
L 9.421875 0 
z
M 9.421875 75.984375 
L 18.40625 75.984375 
L 18.40625 64.59375 
L 9.421875 64.59375 
z
" id="DejaVuSans-105"/>
      <path d="M 52 44.1875 
Q 55.375 50.25 60.0625 53.125 
Q 64.75 56 71.09375 56 
Q 79.640625 56 84.28125 50.015625 
Q 88.921875 44.046875 88.921875 33.015625 
L 88.921875 0 
L 79.890625 0 
L 79.890625 32.71875 
Q 79.890625 40.578125 77.09375 44.375 
Q 74.3125 48.1875 68.609375 48.1875 
Q 61.625 48.1875 57.5625 43.546875 
Q 53.515625 38.921875 53.515625 30.90625 
L 53.515625 0 
L 44.484375 0 
L 44.484375 32.71875 
Q 44.484375 40.625 41.703125 44.40625 
Q 38.921875 48.1875 33.109375 48.1875 
Q 26.21875 48.1875 22.15625 43.53125 
Q 18.109375 38.875 18.109375 30.90625 
L 18.109375 0 
L 9.078125 0 
L 9.078125 54.6875 
L 18.109375 54.6875 
L 18.109375 46.1875 
Q 21.1875 51.21875 25.484375 53.609375 
Q 29.78125 56 35.6875 56 
Q 41.65625 56 45.828125 52.96875 
Q 50 49.953125 52 44.1875 
z
" id="DejaVuSans-109"/>
      <path d="M 54.890625 33.015625 
L 54.890625 0 
L 45.90625 0 
L 45.90625 32.71875 
Q 45.90625 40.484375 42.875 44.328125 
Q 39.84375 48.1875 33.796875 48.1875 
Q 26.515625 48.1875 22.3125 43.546875 
Q 18.109375 38.921875 18.109375 30.90625 
L 18.109375 0 
L 9.078125 0 
L 9.078125 54.6875 
L 18.109375 54.6875 
L 18.109375 46.1875 
Q 21.34375 51.125 25.703125 53.5625 
Q 30.078125 56 35.796875 56 
Q 45.21875 56 50.046875 50.171875 
Q 54.890625 44.34375 54.890625 33.015625 
z
" id="DejaVuSans-110"/>
      <path d="M 8.015625 75.875 
L 15.828125 75.875 
Q 23.140625 64.359375 26.78125 53.3125 
Q 30.421875 42.28125 30.421875 31.390625 
Q 30.421875 20.453125 26.78125 9.375 
Q 23.140625 -1.703125 15.828125 -13.1875 
L 8.015625 -13.1875 
Q 14.5 -2 17.703125 9.0625 
Q 20.90625 20.125 20.90625 31.390625 
Q 20.90625 42.671875 17.703125 53.65625 
Q 14.5 64.65625 8.015625 75.875 
z
" id="DejaVuSans-41"/>
     </defs>
     <g transform="translate(77.303219 342.217594)scale(0.17 -0.17)">
      <use xlink:href="#DejaVuSans-108"/>
      <use x="27.783203" xlink:href="#DejaVuSans-111"/>
      <use x="88.964844" xlink:href="#DejaVuSans-103"/>
      <use x="152.441406" xlink:href="#DejaVuSans-49"/>
      <use x="216.064453" xlink:href="#DejaVuSans-48"/>
      <use x="279.6875" xlink:href="#DejaVuSans-40"/>
      <use x="318.701172" xlink:href="#DejaVuSans-35"/>
      <use x="402.490234" xlink:href="#DejaVuSans-32"/>
      <use x="434.277344" xlink:href="#DejaVuSans-102"/>
      <use x="469.404297" xlink:href="#DejaVuSans-45"/>
      <use x="505.488281" xlink:href="#DejaVuSans-101"/>
      <use x="567.011719" xlink:href="#DejaVuSans-118"/>
      <use x="626.191406" xlink:href="#DejaVuSans-97"/>
      <use x="687.470703" xlink:href="#DejaVuSans-108"/>
      <use x="715.253906" xlink:href="#DejaVuSans-115"/>
      <use x="767.353516" xlink:href="#DejaVuSans-32"/>
      <use x="799.140625" xlink:href="#DejaVuSans-47"/>
      <use x="832.832031" xlink:href="#DejaVuSans-32"/>
      <use x="864.619141" xlink:href="#DejaVuSans-100"/>
      <use x="928.095703" xlink:href="#DejaVuSans-105"/>
      <use x="955.878906" xlink:href="#DejaVuSans-109"/>
      <use x="1053.291016" xlink:href="#DejaVuSans-101"/>
      <use x="1114.814453" xlink:href="#DejaVuSans-110"/>
      <use x="1178.193359" xlink:href="#DejaVuSans-115"/>
      <use x="1230.292969" xlink:href="#DejaVuSans-105"/>
      <use x="1258.076172" xlink:href="#DejaVuSans-111"/>
      <use x="1319.257812" xlink:href="#DejaVuSans-110"/>
      <use x="1382.636719" xlink:href="#DejaVuSans-41"/>
     </g>
    </g>
   </g>
   <g id="matplotlib.axis_2">
    <g id="ytick_1">
     <g id="line2d_29">
      <path clip-path="url(#pe31187749f)" d="M 57.6 298.944 
L 338.688 298.944 
" style="fill:none;stroke:#b0b0b0;stroke-linecap:square;stroke-width:0.8;"/>
     </g>
     <g id="line2d_30">
      <defs>
       <path d="M 0 0 
L -3.5 0 
" id="m8e8f60f556" style="stroke:#000000;stroke-width:0.8;"/>
      </defs>
      <g>
       <use style="stroke:#000000;stroke-width:0.8;" x="57.6" xlink:href="#m8e8f60f556" y="298.944"/>
      </g>
     </g>
     <g id="text_6">
      <!-- 0.0 -->
      <defs>
       <path d="M 10.6875 12.40625 
L 21 12.40625 
L 21 0 
L 10.6875 0 
z
" id="DejaVuSans-46"/>
      </defs>
      <g transform="translate(25.155 305.02275)scale(0.16 -0.16)">
       <use xlink:href="#DejaVuSans-48"/>
       <use x="63.623047" xlink:href="#DejaVuSans-46"/>
       <use x="95.410156" xlink:href="#DejaVuSans-48"/>
      </g>
     </g>
    </g>
    <g id="ytick_2">
     <g id="line2d_31">
      <path clip-path="url(#pe31187749f)" d="M 57.6 247.959446 
L 338.688 247.959446 
" style="fill:none;stroke:#b0b0b0;stroke-linecap:square;stroke-width:0.8;"/>
     </g>
     <g id="line2d_32">
      <g>
       <use style="stroke:#000000;stroke-width:0.8;" x="57.6" xlink:href="#m8e8f60f556" y="247.959446"/>
      </g>
     </g>
     <g id="text_7">
      <!-- 0.2 -->
      <g transform="translate(25.155 254.038196)scale(0.16 -0.16)">
       <use xlink:href="#DejaVuSans-48"/>
       <use x="63.623047" xlink:href="#DejaVuSans-46"/>
       <use x="95.410156" xlink:href="#DejaVuSans-50"/>
      </g>
     </g>
    </g>
    <g id="ytick_3">
     <g id="line2d_33">
      <path clip-path="url(#pe31187749f)" d="M 57.6 196.974891 
L 338.688 196.974891 
" style="fill:none;stroke:#b0b0b0;stroke-linecap:square;stroke-width:0.8;"/>
     </g>
     <g id="line2d_34">
      <g>
       <use style="stroke:#000000;stroke-width:0.8;" x="57.6" xlink:href="#m8e8f60f556" y="196.974891"/>
      </g>
     </g>
     <g id="text_8">
      <!-- 0.4 -->
      <g transform="translate(25.155 203.053641)scale(0.16 -0.16)">
       <use xlink:href="#DejaVuSans-48"/>
       <use x="63.623047" xlink:href="#DejaVuSans-46"/>
       <use x="95.410156" xlink:href="#DejaVuSans-52"/>
      </g>
     </g>
    </g>
    <g id="ytick_4">
     <g id="line2d_35">
      <path clip-path="url(#pe31187749f)" d="M 57.6 145.990337 
L 338.688 145.990337 
" style="fill:none;stroke:#b0b0b0;stroke-linecap:square;stroke-width:0.8;"/>
     </g>
     <g id="line2d_36">
      <g>
       <use style="stroke:#000000;stroke-width:0.8;" x="57.6" xlink:href="#m8e8f60f556" y="145.990337"/>
      </g>
     </g>
     <g id="text_9">
      <!-- 0.6 -->
      <g transform="translate(25.155 152.069087)scale(0.16 -0.16)">
       <use xlink:href="#DejaVuSans-48"/>
       <use x="63.623047" xlink:href="#DejaVuSans-46"/>
       <use x="95.410156" xlink:href="#DejaVuSans-54"/>
      </g>
     </g>
    </g>
    <g id="ytick_5">
     <g id="line2d_37">
      <path clip-path="url(#pe31187749f)" d="M 57.6 95.005782 
L 338.688 95.005782 
" style="fill:none;stroke:#b0b0b0;stroke-linecap:square;stroke-width:0.8;"/>
     </g>
     <g id="line2d_38">
      <g>
       <use style="stroke:#000000;stroke-width:0.8;" x="57.6" xlink:href="#m8e8f60f556" y="95.005782"/>
      </g>
     </g>
     <g id="text_10">
      <!-- 0.8 -->
      <defs>
       <path d="M 31.78125 34.625 
Q 24.75 34.625 20.71875 30.859375 
Q 16.703125 27.09375 16.703125 20.515625 
Q 16.703125 13.921875 20.71875 10.15625 
Q 24.75 6.390625 31.78125 6.390625 
Q 38.8125 6.390625 42.859375 10.171875 
Q 46.921875 13.96875 46.921875 20.515625 
Q 46.921875 27.09375 42.890625 30.859375 
Q 38.875 34.625 31.78125 34.625 
z
M 21.921875 38.8125 
Q 15.578125 40.375 12.03125 44.71875 
Q 8.5 49.078125 8.5 55.328125 
Q 8.5 64.0625 14.71875 69.140625 
Q 20.953125 74.21875 31.78125 74.21875 
Q 42.671875 74.21875 48.875 69.140625 
Q 55.078125 64.0625 55.078125 55.328125 
Q 55.078125 49.078125 51.53125 44.71875 
Q 48 40.375 41.703125 38.8125 
Q 48.828125 37.15625 52.796875 32.3125 
Q 56.78125 27.484375 56.78125 20.515625 
Q 56.78125 9.90625 50.3125 4.234375 
Q 43.84375 -1.421875 31.78125 -1.421875 
Q 19.734375 -1.421875 13.25 4.234375 
Q 6.78125 9.90625 6.78125 20.515625 
Q 6.78125 27.484375 10.78125 32.3125 
Q 14.796875 37.15625 21.921875 38.8125 
z
M 18.3125 54.390625 
Q 18.3125 48.734375 21.84375 45.5625 
Q 25.390625 42.390625 31.78125 42.390625 
Q 38.140625 42.390625 41.71875 45.5625 
Q 45.3125 48.734375 45.3125 54.390625 
Q 45.3125 60.0625 41.71875 63.234375 
Q 38.140625 66.40625 31.78125 66.40625 
Q 25.390625 66.40625 21.84375 63.234375 
Q 18.3125 60.0625 18.3125 54.390625 
z
" id="DejaVuSans-56"/>
      </defs>
      <g transform="translate(25.155 101.084532)scale(0.16 -0.16)">
       <use xlink:href="#DejaVuSans-48"/>
       <use x="63.623047" xlink:href="#DejaVuSans-46"/>
       <use x="95.410156" xlink:href="#DejaVuSans-56"/>
      </g>
     </g>
    </g>
    <g id="ytick_6">
     <g id="line2d_39">
      <path clip-path="url(#pe31187749f)" d="M 57.6 44.021228 
L 338.688 44.021228 
" style="fill:none;stroke:#b0b0b0;stroke-linecap:square;stroke-width:0.8;"/>
     </g>
     <g id="line2d_40">
      <g>
       <use style="stroke:#000000;stroke-width:0.8;" x="57.6" xlink:href="#m8e8f60f556" y="44.021228"/>
      </g>
     </g>
     <g id="text_11">
      <!-- 1.0 -->
      <g transform="translate(25.155 50.099978)scale(0.16 -0.16)">
       <use xlink:href="#DejaVuSans-49"/>
       <use x="63.623047" xlink:href="#DejaVuSans-46"/>
       <use x="95.410156" xlink:href="#DejaVuSans-48"/>
      </g>
     </g>
    </g>
    <g id="text_12">
     <!-- Fraction of function,target pairs -->
     <defs>
      <path d="M 9.8125 72.90625 
L 51.703125 72.90625 
L 51.703125 64.59375 
L 19.671875 64.59375 
L 19.671875 43.109375 
L 48.578125 43.109375 
L 48.578125 34.8125 
L 19.671875 34.8125 
L 19.671875 0 
L 9.8125 0 
z
" id="DejaVuSans-70"/>
      <path d="M 41.109375 46.296875 
Q 39.59375 47.171875 37.8125 47.578125 
Q 36.03125 48 33.890625 48 
Q 26.265625 48 22.1875 43.046875 
Q 18.109375 38.09375 18.109375 28.8125 
L 18.109375 0 
L 9.078125 0 
L 9.078125 54.6875 
L 18.109375 54.6875 
L 18.109375 46.1875 
Q 20.953125 51.171875 25.484375 53.578125 
Q 30.03125 56 36.53125 56 
Q 37.453125 56 38.578125 55.875 
Q 39.703125 55.765625 41.0625 55.515625 
z
" id="DejaVuSans-114"/>
      <path d="M 48.78125 52.59375 
L 48.78125 44.1875 
Q 44.96875 46.296875 41.140625 47.34375 
Q 37.3125 48.390625 33.40625 48.390625 
Q 24.65625 48.390625 19.8125 42.84375 
Q 14.984375 37.3125 14.984375 27.296875 
Q 14.984375 17.28125 19.8125 11.734375 
Q 24.65625 6.203125 33.40625 6.203125 
Q 37.3125 6.203125 41.140625 7.25 
Q 44.96875 8.296875 48.78125 10.40625 
L 48.78125 2.09375 
Q 45.015625 0.34375 40.984375 -0.53125 
Q 36.96875 -1.421875 32.421875 -1.421875 
Q 20.0625 -1.421875 12.78125 6.34375 
Q 5.515625 14.109375 5.515625 27.296875 
Q 5.515625 40.671875 12.859375 48.328125 
Q 20.21875 56 33.015625 56 
Q 37.15625 56 41.109375 55.140625 
Q 45.0625 54.296875 48.78125 52.59375 
z
" id="DejaVuSans-99"/>
      <path d="M 18.3125 70.21875 
L 18.3125 54.6875 
L 36.8125 54.6875 
L 36.8125 47.703125 
L 18.3125 47.703125 
L 18.3125 18.015625 
Q 18.3125 11.328125 20.140625 9.421875 
Q 21.96875 7.515625 27.59375 7.515625 
L 36.8125 7.515625 
L 36.8125 0 
L 27.59375 0 
Q 17.1875 0 13.234375 3.875 
Q 9.28125 7.765625 9.28125 18.015625 
L 9.28125 47.703125 
L 2.6875 47.703125 
L 2.6875 54.6875 
L 9.28125 54.6875 
L 9.28125 70.21875 
z
" id="DejaVuSans-116"/>
      <path d="M 8.5 21.578125 
L 8.5 54.6875 
L 17.484375 54.6875 
L 17.484375 21.921875 
Q 17.484375 14.15625 20.5 10.265625 
Q 23.53125 6.390625 29.59375 6.390625 
Q 36.859375 6.390625 41.078125 11.03125 
Q 45.3125 15.671875 45.3125 23.6875 
L 45.3125 54.6875 
L 54.296875 54.6875 
L 54.296875 0 
L 45.3125 0 
L 45.3125 8.40625 
Q 42.046875 3.421875 37.71875 1 
Q 33.40625 -1.421875 27.6875 -1.421875 
Q 18.265625 -1.421875 13.375 4.4375 
Q 8.5 10.296875 8.5 21.578125 
z
M 31.109375 56 
z
" id="DejaVuSans-117"/>
      <path d="M 11.71875 12.40625 
L 22.015625 12.40625 
L 22.015625 4 
L 14.015625 -11.625 
L 7.71875 -11.625 
L 11.71875 4 
z
" id="DejaVuSans-44"/>
      <path d="M 18.109375 8.203125 
L 18.109375 -20.796875 
L 9.078125 -20.796875 
L 9.078125 54.6875 
L 18.109375 54.6875 
L 18.109375 46.390625 
Q 20.953125 51.265625 25.265625 53.625 
Q 29.59375 56 35.59375 56 
Q 45.5625 56 51.78125 48.09375 
Q 58.015625 40.1875 58.015625 27.296875 
Q 58.015625 14.40625 51.78125 6.484375 
Q 45.5625 -1.421875 35.59375 -1.421875 
Q 29.59375 -1.421875 25.265625 0.953125 
Q 20.953125 3.328125 18.109375 8.203125 
z
M 48.6875 27.296875 
Q 48.6875 37.203125 44.609375 42.84375 
Q 40.53125 48.484375 33.40625 48.484375 
Q 26.265625 48.484375 22.1875 42.84375 
Q 18.109375 37.203125 18.109375 27.296875 
Q 18.109375 17.390625 22.1875 11.75 
Q 26.265625 6.109375 33.40625 6.109375 
Q 40.53125 6.109375 44.609375 11.75 
Q 48.6875 17.390625 48.6875 27.296875 
z
" id="DejaVuSans-112"/>
     </defs>
     <g transform="translate(17.619531 305.347375)rotate(-90)scale(0.17 -0.17)">
      <use xlink:href="#DejaVuSans-70"/>
      <use x="57.410156" xlink:href="#DejaVuSans-114"/>
      <use x="98.523438" xlink:href="#DejaVuSans-97"/>
      <use x="159.802734" xlink:href="#DejaVuSans-99"/>
      <use x="214.783203" xlink:href="#DejaVuSans-116"/>
      <use x="253.992188" xlink:href="#DejaVuSans-105"/>
      <use x="281.775391" xlink:href="#DejaVuSans-111"/>
      <use x="342.957031" xlink:href="#DejaVuSans-110"/>
      <use x="406.335938" xlink:href="#DejaVuSans-32"/>
      <use x="438.123047" xlink:href="#DejaVuSans-111"/>
      <use x="499.304688" xlink:href="#DejaVuSans-102"/>
      <use x="534.509766" xlink:href="#DejaVuSans-32"/>
      <use x="566.296875" xlink:href="#DejaVuSans-102"/>
      <use x="601.501953" xlink:href="#DejaVuSans-117"/>
      <use x="664.880859" xlink:href="#DejaVuSans-110"/>
      <use x="728.259766" xlink:href="#DejaVuSans-99"/>
      <use x="783.240234" xlink:href="#DejaVuSans-116"/>
      <use x="822.449219" xlink:href="#DejaVuSans-105"/>
      <use x="850.232422" xlink:href="#DejaVuSans-111"/>
      <use x="911.414062" xlink:href="#DejaVuSans-110"/>
      <use x="974.792969" xlink:href="#DejaVuSans-44"/>
      <use x="1006.580078" xlink:href="#DejaVuSans-116"/>
      <use x="1045.789062" xlink:href="#DejaVuSans-97"/>
      <use x="1107.068359" xlink:href="#DejaVuSans-114"/>
      <use x="1148.166016" xlink:href="#DejaVuSans-103"/>
      <use x="1211.642578" xlink:href="#DejaVuSans-101"/>
      <use x="1273.166016" xlink:href="#DejaVuSans-116"/>
      <use x="1312.375" xlink:href="#DejaVuSans-32"/>
      <use x="1344.162109" xlink:href="#DejaVuSans-112"/>
      <use x="1407.638672" xlink:href="#DejaVuSans-97"/>
      <use x="1468.917969" xlink:href="#DejaVuSans-105"/>
      <use x="1496.701172" xlink:href="#DejaVuSans-114"/>
      <use x="1537.814453" xlink:href="#DejaVuSans-115"/>
     </g>
    </g>
   </g>
   <g id="line2d_41">
    <defs>
     <path d="M 0 1.5 
C 0.397805 1.5 0.77937 1.341951 1.06066 1.06066 
C 1.341951 0.77937 1.5 0.397805 1.5 0 
C 1.5 -0.397805 1.341951 -0.77937 1.06066 -1.06066 
C 0.77937 -1.341951 0.397805 -1.5 0 -1.5 
C -0.397805 -1.5 -0.77937 -1.341951 -1.06066 -1.06066 
C -1.341951 -0.77937 -1.5 -0.397805 -1.5 0 
C -1.5 0.397805 -1.341951 0.77937 -1.06066 1.06066 
C -0.77937 1.341951 -0.397805 1.5 0 1.5 
z
" id="mdd7a90c288" style="stroke:#f5deb3;"/>
    </defs>
    <g>
     <use style="fill:#f5deb3;stroke:#f5deb3;" x="286.140504" xlink:href="#mdd7a90c288" y="197.853935"/>
     <use style="fill:#f5deb3;stroke:#f5deb3;" x="286.140504" xlink:href="#mdd7a90c288" y="197.853935"/>
    </g>
   </g>
   <g id="line2d_42">
    <defs>
     <path d="M 0 1.5 
C 0.397805 1.5 0.77937 1.341951 1.06066 1.06066 
C 1.341951 0.77937 1.5 0.397805 1.5 0 
C 1.5 -0.397805 1.341951 -0.77937 1.06066 -1.06066 
C 0.77937 -1.341951 0.397805 -1.5 0 -1.5 
C -0.397805 -1.5 -0.77937 -1.341951 -1.06066 -1.06066 
C -1.341951 -0.77937 -1.5 -0.397805 -1.5 0 
C -1.5 0.397805 -1.341951 0.77937 -1.06066 1.06066 
C -0.77937 1.341951 -0.397805 1.5 0 1.5 
z
" id="m2fe0842d1b" style="stroke:#00bfbf;"/>
    </defs>
    <g>
     <use style="fill:#00bfbf;stroke:#00bfbf;" x="257.51718" xlink:href="#m2fe0842d1b" y="140.27655"/>
     <use style="fill:#00bfbf;stroke:#00bfbf;" x="257.51718" xlink:href="#m2fe0842d1b" y="140.27655"/>
    </g>
   </g>
   <g id="line2d_43">
    <path d="M -1 290.15356 
L 31.586611 290.15356 
L 31.586611 289.714038 
L 39.291857 289.714038 
L 39.291857 289.274516 
L 45.512012 289.274516 
L 45.512012 288.834994 
L 58.030621 288.834994 
L 58.030621 288.395471 
L 61.491463 288.395471 
L 61.491463 287.516427 
L 63.467834 287.516427 
L 63.467834 286.637383 
L 77.330839 286.637383 
L 77.330839 286.197861 
L 86.098061 286.197861 
L 86.098061 285.758339 
L 92.911987 285.758339 
L 92.911987 284.879295 
L 93.140702 284.879295 
L 93.140702 284.439773 
L 93.253944 284.439773 
L 93.253944 284.000251 
L 98.100772 284.000251 
L 98.18605 283.121207 
L 98.31319 283.121207 
L 98.31319 282.681685 
L 102.761494 282.681685 
L 102.761494 282.242163 
L 104.884483 282.242163 
L 104.942325 281.363119 
L 105.114708 281.363119 
L 105.114708 280.923597 
L 107.614095 280.923597 
L 107.614095 280.484075 
L 107.762095 280.484075 
L 107.762095 280.044553 
L 108.054381 280.044553 
L 108.054381 279.605031 
L 109.71213 279.605031 
L 109.71213 279.165509 
L 109.886961 279.165509 
L 109.952073 278.286465 
L 110.103064 278.286465 
L 110.103064 277.407421 
L 112.931907 277.407421 
L 112.931907 276.967899 
L 113.27546 276.967899 
L 113.27546 276.528377 
L 113.908407 276.528377 
L 113.908407 276.088855 
L 114.165502 276.088855 
L 114.165502 275.649333 
L 115.476111 275.649333 
L 115.523393 274.770289 
L 117.030313 274.770289 
L 117.030313 274.330767 
L 117.145424 274.330767 
L 117.145424 273.891245 
L 118.296904 273.891245 
L 118.296904 273.012201 
L 119.288484 273.012201 
L 119.288484 272.572679 
L 119.62761 272.572679 
L 119.62761 272.133157 
L 120.417953 272.133157 
L 120.417953 271.254113 
L 120.898662 271.254113 
L 120.990934 269.935547 
L 121.036887 269.935547 
L 121.117015 268.616981 
L 122.126502 268.616981 
L 122.137277 267.737936 
L 122.678156 267.737936 
L 122.678156 267.298414 
L 123.800397 267.298414 
L 123.800397 266.858892 
L 124.425528 266.858892 
L 124.463275 265.100804 
L 124.937527 265.100804 
L 124.965026 263.782238 
L 125.875108 263.782238 
L 125.875108 262.903194 
L 126.048118 262.903194 
L 126.048118 262.02415 
L 126.640485 262.02415 
L 126.72349 260.705584 
L 126.945649 260.705584 
L 126.945649 260.266062 
L 127.075976 260.266062 
L 127.075976 259.82654 
L 127.556207 259.82654 
L 127.556207 259.387018 
L 128.046609 259.387018 
L 128.046609 258.947496 
L 128.207059 258.947496 
L 128.207059 258.507974 
L 128.45625 258.507974 
L 128.501178 256.749886 
L 128.768338 256.749886 
L 128.768338 256.310364 
L 129.161557 256.310364 
L 129.161557 255.43132 
L 129.658437 255.43132 
L 129.658437 254.991798 
L 130.256885 254.991798 
L 130.304155 254.112754 
L 130.45189 254.112754 
L 130.45189 253.673232 
L 130.907284 253.673232 
L 131.011205 252.794188 
L 131.165936 252.794188 
L 131.165936 252.354666 
L 131.363785 252.354666 
L 131.363785 251.915144 
L 132.499996 251.915144 
L 132.499996 251.475622 
L 132.992432 251.475622 
L 133.032848 250.596578 
L 133.136345 250.596578 
L 133.233532 249.278012 
L 133.488207 249.278012 
L 133.488207 248.83849 
L 134.338003 248.83849 
L 134.338003 248.398968 
L 134.906553 248.398968 
L 134.906553 247.519924 
L 135.331236 247.519924 
L 135.331236 247.080402 
L 135.932394 247.080402 
L 135.981161 245.761835 
L 136.49934 245.761835 
L 136.49934 245.322313 
L 136.813232 245.322313 
L 136.813232 244.443269 
L 136.974986 244.443269 
L 136.974986 244.003747 
L 137.275986 244.003747 
L 137.275986 243.124703 
L 137.854087 243.124703 
L 137.854087 242.245659 
L 138.20912 242.245659 
L 138.311679 240.487571 
L 139.357646 240.487571 
L 139.357646 240.048049 
L 140.826843 240.048049 
L 140.826843 239.169005 
L 141.364373 239.169005 
L 141.364373 238.289961 
L 141.861513 238.289961 
L 141.972393 236.531873 
L 142.32796 236.531873 
L 142.32796 235.652829 
L 142.593291 235.652829 
L 142.593291 234.773785 
L 143.024563 234.773785 
L 143.024563 233.894741 
L 144.351527 233.894741 
L 144.351527 233.015697 
L 144.777223 233.015697 
L 144.777223 232.136653 
L 144.906143 232.136653 
L 144.906143 231.697131 
L 145.267277 231.697131 
L 145.31867 230.378565 
L 145.550895 230.378565 
L 145.550895 229.939043 
L 145.940367 229.939043 
L 145.96511 228.620477 
L 146.060998 228.620477 
L 146.060998 228.180955 
L 146.625512 228.180955 
L 146.625512 227.301911 
L 147.251611 227.301911 
L 147.251611 226.862389 
L 148.115353 226.862389 
L 148.115353 226.422867 
L 148.852401 226.422867 
L 148.852401 225.983344 
L 149.33456 225.983344 
L 149.33456 225.1043 
L 149.963932 225.1043 
L 149.963932 224.664778 
L 150.693304 224.664778 
L 150.693304 223.785734 
L 151.905007 223.785734 
L 151.905007 222.90669 
L 152.247515 222.90669 
L 152.255178 221.588124 
L 152.870513 221.588124 
L 152.870513 220.70908 
L 154.402406 220.70908 
L 154.402406 219.830036 
L 154.832284 219.830036 
L 154.911412 218.071948 
L 156.51169 218.071948 
L 156.51169 217.192904 
L 156.96199 217.192904 
L 156.96199 216.31386 
L 157.120656 216.31386 
L 157.120656 215.434816 
L 157.890255 215.434816 
L 157.890255 214.555772 
L 158.295902 214.555772 
L 158.295902 213.676728 
L 159.375289 213.676728 
L 159.375289 213.237206 
L 160.10715 213.237206 
L 160.10715 212.358162 
L 160.678862 212.358162 
L 160.678862 211.479118 
L 160.960166 211.479118 
L 160.960166 210.600074 
L 161.308952 210.600074 
L 161.308952 210.160552 
L 161.827689 210.160552 
L 161.827689 209.281508 
L 162.204154 209.281508 
L 162.204154 208.841986 
L 163.628666 208.841986 
L 163.628666 208.402464 
L 163.919558 208.402464 
L 163.995926 206.644376 
L 164.511856 206.644376 
L 164.511856 206.204854 
L 165.140594 206.204854 
L 165.140594 205.325809 
L 165.305404 205.325809 
L 165.35337 204.007243 
L 166.284273 204.007243 
L 166.284273 203.567721 
L 167.187528 203.567721 
L 167.187528 203.128199 
L 168.109685 203.128199 
L 168.109685 202.688677 
L 168.337372 202.688677 
L 168.337372 202.249155 
L 168.642392 202.249155 
L 168.642392 201.809633 
L 169.437534 201.809633 
L 169.444684 200.930589 
L 169.758492 200.930589 
L 169.758492 200.491067 
L 170.254725 200.491067 
L 170.254725 200.051545 
L 171.895887 200.051545 
L 171.895887 199.612023 
L 172.09043 199.612023 
L 172.09043 199.172501 
L 173.360433 199.172501 
L 173.360433 198.732979 
L 174.375846 198.732979 
L 174.375846 198.293457 
L 174.621918 198.293457 
L 174.621918 197.853935 
L 174.853563 197.853935 
L 174.853563 196.974891 
L 176.359661 196.974891 
L 176.359661 196.535369 
L 176.788512 196.535369 
L 176.788512 196.095847 
L 178.674645 196.095847 
L 178.674645 195.656325 
L 179.856766 195.656325 
L 179.856766 195.216803 
L 180.38342 195.216803 
L 180.38342 194.777281 
L 182.307879 194.777281 
L 182.307879 194.337759 
L 182.718027 194.337759 
L 182.77603 193.019193 
L 184.100553 193.019193 
L 184.100553 192.579671 
L 185.339874 192.579671 
L 185.339874 191.700627 
L 186.687051 191.700627 
L 186.687051 190.821583 
L 189.057578 190.821583 
L 189.057578 190.382061 
L 189.812405 190.382061 
L 189.812405 189.503017 
L 190.965857 189.503017 
L 190.965857 189.063495 
L 191.406164 189.063495 
L 191.406164 188.623973 
L 191.549222 188.623973 
L 191.549222 188.184451 
L 193.756475 188.184451 
L 193.777385 186.865885 
L 193.993341 186.865885 
L 193.993341 185.986841 
L 194.129593 185.986841 
L 194.220818 185.107797 
L 194.357024 185.107797 
L 194.357024 184.668274 
L 194.625611 184.668274 
L 194.625611 184.228752 
L 196.60112 184.228752 
L 196.60112 183.78923 
L 198.094143 183.78923 
L 198.094143 183.349708 
L 199.066063 183.349708 
L 199.066063 182.910186 
L 199.663779 182.910186 
L 199.663779 182.470664 
L 202.5782 182.470664 
L 202.5782 182.031142 
L 204.360913 182.031142 
L 204.360913 181.152098 
L 205.003383 181.152098 
L 205.003383 180.273054 
L 205.835685 180.273054 
L 205.835685 179.833532 
L 206.889162 179.833532 
L 206.959327 178.514966 
L 208.100051 178.514966 
L 208.100051 178.075444 
L 208.223781 178.075444 
L 208.223781 177.1964 
L 208.36936 177.1964 
L 208.36936 176.756878 
L 209.018183 176.756878 
L 209.018183 175.877834 
L 209.614331 175.877834 
L 209.614331 174.99879 
L 209.781719 174.99879 
L 209.781719 174.559268 
L 210.00795 174.559268 
L 210.104184 173.680224 
L 210.475603 173.680224 
L 210.475603 172.80118 
L 210.657043 172.80118 
L 210.741269 171.043092 
L 210.799352 171.043092 
L 210.799352 170.60357 
L 210.912091 170.60357 
L 210.912091 170.164048 
L 211.075347 170.164048 
L 211.075347 169.724526 
L 211.234094 169.724526 
L 211.326142 168.845482 
L 211.389668 168.845482 
L 211.389668 168.40596 
L 211.617242 168.40596 
L 211.617242 167.526916 
L 211.821381 167.526916 
L 211.821381 167.087394 
L 213.11663 167.087394 
L 213.11663 166.647872 
L 214.467913 166.647872 
L 214.467913 166.20835 
L 215.131271 166.20835 
L 215.131271 165.768828 
L 216.713824 165.768828 
L 216.713824 164.889784 
L 220.553921 164.889784 
L 220.553921 164.01074 
L 222.448875 164.01074 
L 222.448875 163.571217 
L 224.696253 163.571217 
L 224.696253 163.131695 
L 225.051663 163.131695 
L 225.051663 162.692173 
L 227.09622 162.692173 
L 227.09622 162.252651 
L 227.793758 162.252651 
L 227.793758 161.813129 
L 228.085953 161.813129 
L 228.085953 161.373607 
L 229.530749 161.373607 
L 229.530749 160.934085 
L 230.302093 160.934085 
L 230.302093 160.494563 
L 233.220911 160.494563 
L 233.220911 160.055041 
L 233.501644 160.055041 
L 233.501644 159.615519 
L 234.517214 159.615519 
L 234.517214 159.175997 
L 236.766999 159.175997 
L 236.766999 158.296953 
L 237.194042 158.296953 
L 237.194042 157.857431 
L 240.635952 157.857431 
L 240.635952 157.417909 
L 241.395821 157.417909 
L 241.395821 156.978387 
L 242.967282 156.978387 
L 242.967282 156.538865 
L 244.72263 156.538865 
L 244.72263 156.099343 
L 246.120198 156.099343 
L 246.159589 154.341255 
L 246.895627 154.341255 
L 246.933475 153.022689 
L 247.035119 153.022689 
L 247.035119 152.143645 
L 247.38255 152.143645 
L 247.38255 151.704123 
L 248.178986 151.704123 
L 248.178986 150.825079 
L 248.359607 150.825079 
L 248.359607 150.385557 
L 248.481473 150.385557 
L 248.481473 149.946035 
L 248.657732 149.946035 
L 248.657732 149.066991 
L 248.975142 149.066991 
L 248.975837 148.187947 
L 249.418523 148.187947 
L 249.418523 147.308903 
L 249.531575 147.308903 
L 249.531575 146.869381 
L 250.476932 146.869381 
L 250.476932 146.429859 
L 250.906784 146.429859 
L 250.906784 145.990337 
L 251.042727 145.990337 
L 251.042727 145.550815 
L 251.15593 145.550815 
L 251.15593 145.111293 
L 251.481635 145.111293 
L 251.481635 144.671771 
L 251.809275 144.671771 
L 251.809275 144.232249 
L 252.712035 144.232249 
L 252.712035 143.792727 
L 254.150534 143.792727 
L 254.150534 143.353205 
L 254.632363 143.353205 
L 254.632363 142.913682 
L 255.459025 142.913682 
L 255.459025 142.47416 
L 256.119042 142.47416 
L 256.119042 142.034638 
L 256.23934 142.034638 
L 256.23934 141.595116 
L 257.105659 141.595116 
L 257.105659 140.716072 
L 257.51718 140.716072 
L 257.51718 140.27655 
L 338.688 140.27655 
L 338.688 140.27655 
" style="fill:none;stroke:#00bfbf;stroke-linecap:square;stroke-width:1.5;"/>
   </g>
   <g id="line2d_44">
    <defs>
     <path d="M 0 -6 
L -5.706339 -1.854102 
L -3.526712 4.854102 
L 3.526712 4.854102 
L 5.706339 -1.854102 
z
" id="mc7961381f3" style="stroke:#00bfbf;stroke-linejoin:miter;stroke-width:1.5;"/>
    </defs>
    <g>
     <use style="fill-opacity:0;stroke:#00bfbf;stroke-linejoin:miter;stroke-width:1.5;" x="128.207059" xlink:href="#mc7961381f3" y="258.947496"/>
     <use style="fill-opacity:0;stroke:#00bfbf;stroke-linejoin:miter;stroke-width:1.5;" x="170.254725" xlink:href="#mc7961381f3" y="200.491067"/>
     <use style="fill-opacity:0;stroke:#00bfbf;stroke-linejoin:miter;stroke-width:1.5;" x="247.035119" xlink:href="#mc7961381f3" y="153.022689"/>
     <use style="fill-opacity:0;stroke:#00bfbf;stroke-linejoin:miter;stroke-width:1.5;" x="257.51718" xlink:href="#mc7961381f3" y="140.27655"/>
     <use style="fill-opacity:0;stroke:#00bfbf;stroke-linejoin:miter;stroke-width:1.5;" x="257.51718" xlink:href="#mc7961381f3" y="140.27655"/>
     <use style="fill-opacity:0;stroke:#00bfbf;stroke-linejoin:miter;stroke-width:1.5;" x="338.688" xlink:href="#mc7961381f3" y="140.27655"/>
    </g>
   </g>
   <g id="line2d_45">
    <path style="fill:none;stroke:#00bfbf;stroke-linecap:square;stroke-width:1.5;"/>
    <g/>
   </g>
   <g id="line2d_46">
    <path clip-path="url(#pe31187749f)" d="M 258.377147 140.27655 
" style="fill:none;stroke:#00bfbf;stroke-linecap:square;stroke-width:1.5;"/>
    <defs>
     <path d="M -12 12 
L 12 -12 
M -12 -12 
L 12 12 
" id="me4b1937144" style="stroke:#00bfbf;"/>
    </defs>
    <g clip-path="url(#pe31187749f)">
     <use style="fill:#00bfbf;stroke:#00bfbf;" x="258.377147" xlink:href="#me4b1937144" y="140.27655"/>
    </g>
   </g>
   <g id="line2d_47">
    <defs>
     <path d="M 0 1.5 
C 0.397805 1.5 0.77937 1.341951 1.06066 1.06066 
C 1.341951 0.77937 1.5 0.397805 1.5 0 
C 1.5 -0.397805 1.341951 -0.77937 1.06066 -1.06066 
C 0.77937 -1.341951 0.397805 -1.5 0 -1.5 
C -0.397805 -1.5 -0.77937 -1.341951 -1.06066 -1.06066 
C -1.341951 -0.77937 -1.5 -0.397805 -1.5 0 
C -1.5 0.397805 -1.341951 0.77937 -1.06066 1.06066 
C -0.77937 1.341951 -0.397805 1.5 0 1.5 
z
" id="m1fc3255482" style="stroke:#000080;"/>
    </defs>
    <g>
     <use style="fill:#000080;stroke:#000080;" x="218.220842" xlink:href="#m1fc3255482" y="100.280046"/>
     <use style="fill:#000080;stroke:#000080;" x="218.220842" xlink:href="#m1fc3255482" y="100.280046"/>
    </g>
   </g>
   <g id="line2d_48">
    <path d="M -1 290.15356 
L 29.53256 290.15356 
L 29.53256 289.714038 
L 37.999467 289.714038 
L 37.999467 288.834994 
L 55.271309 288.834994 
L 55.271309 288.395471 
L 63.467834 288.395471 
L 63.467834 287.955949 
L 68.79347 287.955949 
L 68.79347 287.516427 
L 69.468624 287.516427 
L 69.468624 287.076905 
L 71.74204 287.076905 
L 71.74204 286.637383 
L 80.059253 286.637383 
L 80.059253 286.197861 
L 94.347675 286.197861 
L 94.347675 285.758339 
L 95.772081 285.758339 
L 95.772081 285.318817 
L 96.110718 285.318817 
L 96.110718 284.879295 
L 97.624141 284.879295 
L 97.624141 284.439773 
L 98.355365 284.439773 
L 98.355365 284.000251 
L 98.647767 284.000251 
L 98.647767 283.560729 
L 100.306142 283.560729 
L 100.306142 283.121207 
L 102.464508 283.121207 
L 102.464508 282.681685 
L 104.739033 282.681685 
L 104.797359 281.802641 
L 104.999975 281.802641 
L 104.999975 281.363119 
L 105.842616 281.363119 
L 105.842616 280.923597 
L 105.979182 280.923597 
L 105.979182 280.484075 
L 106.48859 280.484075 
L 106.48859 280.044553 
L 106.620207 280.044553 
L 106.620207 279.605031 
L 108.318072 279.605031 
L 108.318072 279.165509 
L 109.491096 279.165509 
L 109.491096 278.725987 
L 109.930396 278.725987 
L 109.930396 277.846943 
L 110.880138 277.846943 
L 110.880138 277.407421 
L 112.242812 277.407421 
L 112.242812 276.967899 
L 112.450537 276.967899 
L 112.450537 276.528377 
L 114.182507 276.528377 
L 114.267288 275.649333 
L 114.301085 275.649333 
L 114.301085 275.209811 
L 115.444518 275.209811 
L 115.444518 274.330767 
L 116.050487 274.330767 
L 116.050487 273.891245 
L 116.502698 273.891245 
L 116.502698 273.451723 
L 116.665614 273.451723 
L 116.665614 273.012201 
L 118.457267 273.012201 
L 118.470564 272.133157 
L 120.093994 272.133157 
L 120.093994 271.693635 
L 120.759333 271.693635 
L 120.840744 270.375069 
L 121.185405 270.375069 
L 121.185405 269.935547 
L 122.029227 269.935547 
L 122.029227 269.496025 
L 123.712047 269.496025 
L 123.712047 269.056503 
L 125.434921 269.056503 
L 125.434921 268.177459 
L 125.621155 268.177459 
L 125.621155 267.737936 
L 125.901169 267.737936 
L 125.901169 267.298414 
L 126.099688 267.298414 
L 126.099688 266.858892 
L 126.888323 266.858892 
L 126.994636 265.979848 
L 127.181154 265.979848 
L 127.181154 265.540326 
L 127.516689 265.540326 
L 127.516689 265.100804 
L 128.000494 265.100804 
L 128.000494 264.22176 
L 128.944197 264.22176 
L 128.944197 263.782238 
L 130.08018 263.782238 
L 130.100661 262.903194 
L 130.743656 262.903194 
L 130.743656 262.02415 
L 131.037089 262.02415 
L 131.082294 260.705584 
L 131.839545 260.705584 
L 131.950349 259.387018 
L 131.968748 259.387018 
L 131.968748 258.507974 
L 132.753813 258.507974 
L 132.753813 258.068452 
L 133.700407 258.068452 
L 133.700407 257.62893 
L 134.797444 257.62893 
L 134.83389 256.749886 
L 135.004687 256.749886 
L 135.004687 256.310364 
L 135.411927 256.310364 
L 135.411927 255.870842 
L 135.849174 255.870842 
L 135.868791 254.552276 
L 137.189866 254.552276 
L 137.294062 253.673232 
L 137.361683 253.673232 
L 137.361683 253.23371 
L 137.585209 253.23371 
L 137.585209 252.794188 
L 138.170504 252.794188 
L 138.196257 251.915144 
L 138.345732 251.915144 
L 138.345732 251.475622 
L 138.561269 251.475622 
L 138.561269 251.0361 
L 138.910565 251.0361 
L 138.910565 250.157056 
L 139.192344 250.157056 
L 139.196394 248.83849 
L 140.682395 248.83849 
L 140.682395 248.398968 
L 140.882083 248.398968 
L 140.882083 247.959446 
L 141.559982 247.959446 
L 141.669275 246.640879 
L 142.003452 246.640879 
L 142.003452 246.201357 
L 142.709564 246.201357 
L 142.709564 245.761835 
L 142.972457 245.761835 
L 142.972457 245.322313 
L 145.295847 245.322313 
L 145.295847 244.443269 
L 145.598655 244.443269 
L 145.598655 244.003747 
L 145.921099 244.003747 
L 145.921099 243.124703 
L 146.224161 243.124703 
L 146.248504 241.366615 
L 146.609634 241.366615 
L 146.609634 240.487571 
L 147.131261 240.487571 
L 147.131261 239.608527 
L 147.61026 239.608527 
L 147.61026 239.169005 
L 147.875718 239.169005 
L 147.875718 238.729483 
L 148.480637 238.729483 
L 148.480637 237.850439 
L 148.884963 237.850439 
L 148.884963 236.971395 
L 149.216404 236.971395 
L 149.216404 236.531873 
L 150.984138 236.531873 
L 150.984138 235.652829 
L 151.172651 235.652829 
L 151.172651 234.773785 
L 151.288432 234.773785 
L 151.288432 233.894741 
L 151.924538 233.894741 
L 151.924538 233.015697 
L 152.605966 233.015697 
L 152.637849 231.697131 
L 153.229193 231.697131 
L 153.229193 231.257609 
L 155.017994 231.257609 
L 155.017994 230.378565 
L 155.397985 230.378565 
L 155.397985 229.939043 
L 155.601528 229.939043 
L 155.634696 228.180955 
L 156.015522 228.180955 
L 156.015522 227.301911 
L 156.129394 227.301911 
L 156.129394 226.422867 
L 156.382164 226.422867 
L 156.391232 225.1043 
L 156.65515 225.1043 
L 156.65515 224.225256 
L 156.918066 224.225256 
L 157.018927 222.90669 
L 158.465753 222.90669 
L 158.465753 222.027646 
L 159.451521 222.027646 
L 159.451521 221.588124 
L 159.580355 221.588124 
L 159.600479 220.269558 
L 159.730716 220.269558 
L 159.730716 219.830036 
L 160.988048 219.830036 
L 160.988048 218.950992 
L 161.351069 218.950992 
L 161.351069 218.071948 
L 162.410793 218.071948 
L 162.410793 217.192904 
L 163.816224 217.192904 
L 163.816224 216.31386 
L 163.977355 216.31386 
L 163.977355 215.434816 
L 164.09529 215.434816 
L 164.09529 214.555772 
L 164.334545 214.555772 
L 164.334545 213.676728 
L 164.86302 213.676728 
L 164.86302 213.237206 
L 165.003742 213.237206 
L 165.003742 212.358162 
L 165.140594 212.358162 
L 165.140594 211.479118 
L 165.279102 211.479118 
L 165.279102 210.600074 
L 166.579076 210.600074 
L 166.579076 209.72103 
L 166.806726 209.72103 
L 166.806726 209.281508 
L 166.995288 209.281508 
L 166.995288 208.402464 
L 167.645986 208.402464 
L 167.645986 207.962942 
L 168.155922 207.962942 
L 168.155922 207.52342 
L 168.274805 207.52342 
L 168.274805 207.083898 
L 168.595927 207.083898 
L 168.595927 206.644376 
L 169.526691 206.644376 
L 169.526691 206.204854 
L 169.677571 206.204854 
L 169.677571 205.765332 
L 169.926868 205.765332 
L 169.926868 205.325809 
L 170.876054 205.325809 
L 170.876054 204.886287 
L 171.065318 204.886287 
L 171.065318 204.446765 
L 171.49381 204.446765 
L 171.573073 203.567721 
L 171.934969 203.567721 
L 171.934969 202.688677 
L 172.876395 202.688677 
L 172.876395 202.249155 
L 173.392951 202.249155 
L 173.392951 201.809633 
L 173.760665 201.809633 
L 173.760665 200.930589 
L 174.637316 200.930589 
L 174.637316 200.051545 
L 174.811578 200.051545 
L 174.811578 199.612023 
L 175.224377 199.612023 
L 175.224377 199.172501 
L 176.400962 199.172501 
L 176.400962 198.293457 
L 176.806798 198.293457 
L 176.909128 197.414413 
L 177.044641 197.414413 
L 177.044641 196.974891 
L 177.997702 196.974891 
L 177.997702 196.535369 
L 178.444084 196.535369 
L 178.541512 195.216803 
L 178.691899 195.216803 
L 178.723416 194.337759 
L 179.016108 194.337759 
L 179.105471 193.019193 
L 180.046549 193.019193 
L 180.046549 192.140149 
L 180.161368 192.140149 
L 180.161368 191.261105 
L 180.472139 191.261105 
L 180.522579 190.382061 
L 180.740107 190.382061 
L 180.807299 189.503017 
L 181.178864 189.503017 
L 181.178864 189.063495 
L 182.248981 189.063495 
L 182.248981 188.623973 
L 182.92251 188.623973 
L 182.92251 188.184451 
L 183.12495 188.184451 
L 183.12495 187.744929 
L 183.388159 187.744929 
L 183.407748 186.426363 
L 183.510792 186.426363 
L 183.510792 185.986841 
L 183.760107 185.986841 
L 183.760107 185.547319 
L 183.876725 185.547319 
L 183.876725 184.668274 
L 184.242788 184.668274 
L 184.242788 184.228752 
L 184.758272 184.228752 
L 184.758272 183.349708 
L 186.110096 183.349708 
L 186.178134 182.470664 
L 186.296839 182.470664 
L 186.313964 181.59162 
L 186.518699 181.59162 
L 186.518699 181.152098 
L 186.697154 181.152098 
L 186.697154 180.712576 
L 187.292855 180.712576 
L 187.292855 179.833532 
L 187.418265 179.833532 
L 187.430501 178.954488 
L 187.551133 178.954488 
L 187.592084 178.075444 
L 187.820101 178.075444 
L 187.820101 177.1964 
L 188.012178 177.1964 
L 188.012178 176.756878 
L 188.179717 176.756878 
L 188.179717 176.317356 
L 188.845276 176.317356 
L 188.845276 175.877834 
L 189.127081 175.877834 
L 189.134479 174.99879 
L 189.39917 174.99879 
L 189.39917 174.119746 
L 189.773458 174.119746 
L 189.775686 173.240702 
L 189.915251 173.240702 
L 189.966228 171.482614 
L 190.207818 171.482614 
L 190.227149 170.164048 
L 190.386409 170.164048 
L 190.493205 169.285004 
L 190.615282 169.285004 
L 190.669758 167.526916 
L 190.78199 167.526916 
L 190.816233 165.768828 
L 191.066691 165.768828 
L 191.08778 162.692173 
L 191.195308 162.692173 
L 191.195308 161.813129 
L 191.458229 161.813129 
L 191.503079 160.055041 
L 191.744926 160.055041 
L 191.744926 159.615519 
L 192.039122 159.615519 
L 192.138818 158.736475 
L 192.629114 158.736475 
L 192.629114 158.296953 
L 192.781094 158.296953 
L 192.822297 156.978387 
L 192.978359 156.978387 
L 192.978359 156.099343 
L 193.10453 156.099343 
L 193.112259 154.780777 
L 193.253352 154.780777 
L 193.253352 154.341255 
L 193.380093 154.341255 
L 193.444654 152.583167 
L 193.537009 152.583167 
L 193.621912 150.385557 
L 193.687721 150.385557 
L 193.73554 149.506513 
L 193.809764 149.506513 
L 193.895287 148.187947 
L 193.977241 148.187947 
L 193.977241 147.748425 
L 194.200779 147.748425 
L 194.200779 147.308903 
L 194.374146 147.308903 
L 194.374146 146.869381 
L 194.815696 146.869381 
L 194.815696 146.429859 
L 195.142826 146.429859 
L 195.142826 145.990337 
L 195.432554 145.990337 
L 195.534529 145.111293 
L 196.21012 145.111293 
L 196.213971 143.792727 
L 196.84121 143.792727 
L 196.84121 143.353205 
L 196.967624 143.353205 
L 196.967624 142.913682 
L 197.464454 142.913682 
L 197.570638 142.034638 
L 198.123707 142.034638 
L 198.123707 141.595116 
L 198.256537 141.595116 
L 198.256537 141.155594 
L 198.515691 141.155594 
L 198.593256 139.837028 
L 198.884661 139.837028 
L 198.884661 138.957984 
L 199.077436 138.957984 
L 199.172055 137.639418 
L 199.202962 137.639418 
L 199.250515 136.320852 
L 199.343173 136.320852 
L 199.416639 133.68372 
L 199.477923 133.68372 
L 199.560615 132.365154 
L 199.632919 132.365154 
L 199.656954 131.48611 
L 199.775003 131.48611 
L 199.775003 131.046588 
L 200.010587 131.046588 
L 200.010587 130.607066 
L 200.179476 130.607066 
L 200.250608 128.848978 
L 200.422524 128.848978 
L 200.422524 128.409456 
L 201.099542 128.409456 
L 201.205356 127.530412 
L 201.750808 127.530412 
L 201.750808 127.09089 
L 201.958319 127.09089 
L 202.022567 125.772324 
L 202.66097 125.772324 
L 202.66097 124.89328 
L 202.867034 124.89328 
L 202.939863 124.014236 
L 202.98588 124.014236 
L 202.98588 123.574714 
L 203.135119 123.574714 
L 203.135119 123.135192 
L 203.377507 123.135192 
L 203.474359 120.937581 
L 203.494051 120.937581 
L 203.494051 120.058537 
L 203.659935 120.058537 
L 203.659935 119.619015 
L 203.787088 119.619015 
L 203.840674 117.860927 
L 203.952691 117.860927 
L 203.962372 116.981883 
L 204.069099 116.981883 
L 204.153211 115.663317 
L 204.195164 115.663317 
L 204.278478 112.586663 
L 204.391004 112.586663 
L 204.463796 111.707619 
L 204.517738 111.707619 
L 204.565599 110.828575 
L 204.654571 110.828575 
L 204.654571 110.389053 
L 205.007569 110.389053 
L 205.101723 108.191443 
L 205.438615 108.191443 
L 205.438615 107.751921 
L 206.074156 107.751921 
L 206.074156 107.312399 
L 206.344078 107.312399 
L 206.344078 106.872877 
L 207.837196 106.872877 
L 207.837196 106.433355 
L 208.185684 106.433355 
L 208.185684 105.993833 
L 209.730288 105.993833 
L 209.730288 105.554311 
L 209.924869 105.554311 
L 209.924869 104.675267 
L 211.720148 104.675267 
L 211.720148 104.235745 
L 212.326619 104.235745 
L 212.326619 103.796223 
L 212.705113 103.796223 
L 212.705113 102.917179 
L 214.073761 102.917179 
L 214.115301 102.038135 
L 215.221761 102.038135 
L 215.221761 101.15909 
L 216.210011 101.15909 
L 216.210011 100.719568 
L 218.220842 100.719568 
L 218.220842 100.280046 
L 338.688 100.280046 
L 338.688 100.280046 
" style="fill:none;stroke:#000080;stroke-linecap:square;stroke-width:1.5;"/>
   </g>
   <g id="line2d_49">
    <defs>
     <path d="M -0 6 
L 6 -6 
L -6 -6 
z
" id="m606d916a9f" style="stroke:#000080;stroke-linejoin:miter;stroke-width:1.5;"/>
    </defs>
    <g>
     <use style="fill-opacity:0;stroke:#000080;stroke-linejoin:miter;stroke-width:1.5;" x="104.999975" xlink:href="#m606d916a9f" y="281.802641"/>
     <use style="fill-opacity:0;stroke:#000080;stroke-linejoin:miter;stroke-width:1.5;" x="186.178134" xlink:href="#m606d916a9f" y="182.470664"/>
     <use style="fill-opacity:0;stroke:#000080;stroke-linejoin:miter;stroke-width:1.5;" x="218.220842" xlink:href="#m606d916a9f" y="100.719568"/>
     <use style="fill-opacity:0;stroke:#000080;stroke-linejoin:miter;stroke-width:1.5;" x="218.220842" xlink:href="#m606d916a9f" y="100.280046"/>
     <use style="fill-opacity:0;stroke:#000080;stroke-linejoin:miter;stroke-width:1.5;" x="218.220842" xlink:href="#m606d916a9f" y="100.280046"/>
     <use style="fill-opacity:0;stroke:#000080;stroke-linejoin:miter;stroke-width:1.5;" x="338.688" xlink:href="#m606d916a9f" y="100.280046"/>
    </g>
   </g>
   <g id="line2d_50">
    <path style="fill:none;stroke:#000080;stroke-linecap:square;stroke-width:1.5;"/>
    <g/>
   </g>
   <g id="line2d_51">
    <path clip-path="url(#pe31187749f)" d="M 218.226117 100.280046 
" style="fill:none;stroke:#000080;stroke-linecap:square;stroke-width:1.5;"/>
    <defs>
     <path d="M -12 12 
L 12 -12 
M -12 -12 
L 12 12 
" id="m23990bda97" style="stroke:#000080;"/>
    </defs>
    <g clip-path="url(#pe31187749f)">
     <use style="fill:#000080;stroke:#000080;" x="218.226117" xlink:href="#m23990bda97" y="100.280046"/>
    </g>
   </g>
   <g id="line2d_52">
    <defs>
     <path d="M 0 1.5 
C 0.397805 1.5 0.77937 1.341951 1.06066 1.06066 
C 1.341951 0.77937 1.5 0.397805 1.5 0 
C 1.5 -0.397805 1.341951 -0.77937 1.06066 -1.06066 
C 0.77937 -1.341951 0.397805 -1.5 0 -1.5 
C -0.397805 -1.5 -0.77937 -1.341951 -1.06066 -1.06066 
C -1.341951 -0.77937 -1.5 -0.397805 -1.5 0 
C -1.5 0.397805 -1.341951 0.77937 -1.06066 1.06066 
C -0.77937 1.341951 -0.397805 1.5 0 1.5 
z
" id="mcc021bfe0e" style="stroke:#6495ed;"/>
    </defs>
    <g>
     <use style="fill:#6495ed;stroke:#6495ed;" x="175.689695" xlink:href="#mcc021bfe0e" y="222.027646"/>
     <use style="fill:#6495ed;stroke:#6495ed;" x="175.689695" xlink:href="#mcc021bfe0e" y="222.027646"/>
    </g>
   </g>
   <g id="line2d_53">
    <path d="M -1 290.15356 
L 5.356583 290.15356 
L 5.356583 289.274516 
L 24.515591 289.274516 
L 24.515591 288.834994 
L 47.949359 288.834994 
L 47.949359 288.395471 
L 50.74562 288.395471 
L 50.74562 287.516427 
L 52.583031 287.516427 
L 52.583031 287.076905 
L 53.154862 287.076905 
L 53.154862 286.637383 
L 87.090136 286.637383 
L 87.090136 286.197861 
L 93.140702 286.197861 
L 93.140702 285.758339 
L 94.766656 285.758339 
L 94.766656 285.318817 
L 95.57558 285.318817 
L 95.57558 284.879295 
L 98.730417 284.879295 
L 98.730417 284.439773 
L 100.898616 284.439773 
L 101.007498 283.560729 
L 108.365591 283.560729 
L 108.365591 283.121207 
L 109.401893 283.121207 
L 109.401893 282.681685 
L 110.252758 282.681685 
L 110.252758 282.242163 
L 110.569269 282.242163 
L 110.569269 281.802641 
L 110.756455 281.802641 
L 110.756455 281.363119 
L 111.955503 281.363119 
L 111.955503 280.923597 
L 112.968391 280.923597 
L 112.968391 280.484075 
L 116.323218 280.484075 
L 116.323218 280.044553 
L 118.202674 280.044553 
L 118.202674 279.605031 
L 118.629344 279.605031 
L 118.629344 279.165509 
L 118.838828 279.165509 
L 118.838828 278.725987 
L 119.135619 278.725987 
L 119.148409 277.846943 
L 119.577783 277.846943 
L 119.640044 276.967899 
L 120.921776 276.967899 
L 121.013926 275.649333 
L 122.018385 275.649333 
L 122.018385 275.209811 
L 122.885768 275.209811 
L 122.885768 274.770289 
L 123.404258 274.770289 
L 123.404258 274.330767 
L 124.072436 274.330767 
L 124.072436 273.451723 
L 124.434973 273.451723 
L 124.434973 273.012201 
L 124.762349 273.012201 
L 124.762349 272.572679 
L 125.814147 272.572679 
L 125.814147 272.133157 
L 126.338353 272.133157 
L 126.338353 271.693635 
L 126.598834 271.693635 
L 126.598834 271.254113 
L 126.847261 271.254113 
L 126.847261 270.814591 
L 127.532507 270.814591 
L 127.532507 269.935547 
L 128.305651 269.935547 
L 128.396166 267.737936 
L 128.508654 267.737936 
L 128.553447 266.858892 
L 129.567223 266.858892 
L 129.567223 266.41937 
L 130.61164 266.41937 
L 130.61164 265.540326 
L 130.835477 265.540326 
L 130.835477 265.100804 
L 130.991767 265.100804 
L 130.991767 264.22176 
L 131.344736 264.22176 
L 131.376473 262.903194 
L 131.653293 262.903194 
L 131.653293 262.463672 
L 132.224318 262.463672 
L 132.224318 262.02415 
L 132.476197 262.02415 
L 132.476197 261.584628 
L 132.882259 261.584628 
L 132.975083 260.266062 
L 133.766885 260.266062 
L 133.766885 259.82654 
L 133.959343 259.82654 
L 133.959343 259.387018 
L 134.305866 259.387018 
L 134.305866 258.507974 
L 134.677155 258.507974 
L 134.677155 258.068452 
L 134.807865 258.068452 
L 134.844289 257.189408 
L 135.416958 257.189408 
L 135.416958 256.749886 
L 135.626952 256.749886 
L 135.626952 256.310364 
L 136.13148 256.310364 
L 136.13148 255.870842 
L 136.261355 255.870842 
L 136.323544 254.991798 
L 137.057594 254.991798 
L 137.153477 254.112754 
L 137.580766 254.112754 
L 137.580766 253.23371 
L 137.810292 253.23371 
L 137.810292 252.354666 
L 138.661784 252.354666 
L 138.661784 251.915144 
L 139.058148 251.915144 
L 139.058148 251.475622 
L 139.196394 251.475622 
L 139.196394 251.0361 
L 139.596763 251.0361 
L 139.596763 250.596578 
L 139.933878 250.596578 
L 139.933878 250.157056 
L 140.686113 250.157056 
L 140.775127 249.278012 
L 141.152069 249.278012 
L 141.152069 248.83849 
L 141.669275 248.83849 
L 141.669275 248.398968 
L 141.819751 248.398968 
L 141.819751 247.959446 
L 142.818488 247.959446 
L 142.818488 247.080402 
L 143.053804 247.080402 
L 143.053804 246.640879 
L 143.385011 246.640879 
L 143.385011 245.761835 
L 144.260886 245.761835 
L 144.260886 245.322313 
L 144.623624 245.322313 
L 144.623624 244.882791 
L 145.31867 244.882791 
L 145.31867 244.003747 
L 146.107383 244.003747 
L 146.107383 243.564225 
L 146.580487 243.564225 
L 146.580487 242.685181 
L 147.266916 242.685181 
L 147.266916 241.806137 
L 147.870793 241.806137 
L 147.870793 240.927093 
L 148.049659 240.927093 
L 148.049659 240.048049 
L 151.168574 240.048049 
L 151.168574 239.169005 
L 151.8247 239.169005 
L 151.8247 238.289961 
L 152.679024 238.289961 
L 152.679024 237.410917 
L 155.710272 237.410917 
L 155.710272 236.531873 
L 156.529687 236.531873 
L 156.529687 235.652829 
L 156.884316 235.652829 
L 156.884316 235.213307 
L 157.527405 235.213307 
L 157.527405 234.334263 
L 159.196108 234.334263 
L 159.196108 233.455219 
L 159.679489 233.455219 
L 159.679489 233.015697 
L 161.188874 233.015697 
L 161.188874 232.136653 
L 163.050482 232.136653 
L 163.050482 231.697131 
L 163.966594 231.697131 
L 163.966594 230.818087 
L 164.841627 230.818087 
L 164.841627 229.939043 
L 167.274361 229.939043 
L 167.274361 229.059999 
L 167.931296 229.059999 
L 167.931296 228.620477 
L 168.082656 228.620477 
L 168.082656 227.741433 
L 169.502485 227.741433 
L 169.502485 226.862389 
L 170.343204 226.862389 
L 170.343204 226.422867 
L 170.5638 226.422867 
L 170.5638 225.543822 
L 171.250617 225.543822 
L 171.250617 225.1043 
L 172.301648 225.1043 
L 172.301648 224.225256 
L 173.528644 224.225256 
L 173.638017 223.346212 
L 175.666196 223.346212 
L 175.689695 222.027646 
L 338.688 222.027646 
L 338.688 222.027646 
" style="fill:none;stroke:#6495ed;stroke-linecap:square;stroke-width:1.5;"/>
   </g>
   <g id="line2d_54">
    <defs>
     <path d="M 0 -6 
L -6 6 
L 6 6 
z
" id="md7e8011f55" style="stroke:#6495ed;stroke-linejoin:miter;stroke-width:1.5;"/>
    </defs>
    <g>
     <use style="fill-opacity:0;stroke:#6495ed;stroke-linejoin:miter;stroke-width:1.5;" x="87.090136" xlink:href="#md7e8011f55" y="286.637383"/>
     <use style="fill-opacity:0;stroke:#6495ed;stroke-linejoin:miter;stroke-width:1.5;" x="132.476197" xlink:href="#md7e8011f55" y="261.584628"/>
     <use style="fill-opacity:0;stroke:#6495ed;stroke-linejoin:miter;stroke-width:1.5;" x="175.689695" xlink:href="#md7e8011f55" y="222.467168"/>
     <use style="fill-opacity:0;stroke:#6495ed;stroke-linejoin:miter;stroke-width:1.5;" x="175.689695" xlink:href="#md7e8011f55" y="222.027646"/>
     <use style="fill-opacity:0;stroke:#6495ed;stroke-linejoin:miter;stroke-width:1.5;" x="175.689695" xlink:href="#md7e8011f55" y="222.027646"/>
     <use style="fill-opacity:0;stroke:#6495ed;stroke-linejoin:miter;stroke-width:1.5;" x="338.688" xlink:href="#md7e8011f55" y="222.027646"/>
    </g>
   </g>
   <g id="line2d_55">
    <path style="fill:none;stroke:#6495ed;stroke-linecap:square;stroke-width:1.5;"/>
    <g/>
   </g>
   <g id="line2d_56">
    <path clip-path="url(#pe31187749f)" d="M 178.066722 222.027646 
" style="fill:none;stroke:#6495ed;stroke-linecap:square;stroke-width:1.5;"/>
    <defs>
     <path d="M -12 12 
L 12 -12 
M -12 -12 
L 12 12 
" id="mf09f140d2e" style="stroke:#6495ed;"/>
    </defs>
    <g clip-path="url(#pe31187749f)">
     <use style="fill:#6495ed;stroke:#6495ed;" x="178.066722" xlink:href="#mf09f140d2e" y="222.027646"/>
    </g>
   </g>
   <g id="line2d_57">
    <path d="M 338.688 222.027646 
L 369.60768 293.845545 
" style="fill:none;stroke:#6495ed;stroke-linecap:square;stroke-width:1.5;"/>
    <g>
     <use style="fill-opacity:0;stroke:#6495ed;stroke-linejoin:miter;stroke-width:1.5;" x="338.688" xlink:href="#md7e8011f55" y="222.027646"/>
     <use style="fill-opacity:0;stroke:#6495ed;stroke-linejoin:miter;stroke-width:1.5;" x="369.60768" xlink:href="#md7e8011f55" y="293.845545"/>
    </g>
   </g>
   <g id="line2d_58">
    <path d="M 338.688 140.27655 
L 369.60768 130.69497 
" style="fill:none;stroke:#00bfbf;stroke-linecap:square;stroke-width:1.5;"/>
    <g>
     <use style="fill-opacity:0;stroke:#00bfbf;stroke-linejoin:miter;stroke-width:1.5;" x="338.688" xlink:href="#mc7961381f3" y="140.27655"/>
     <use style="fill-opacity:0;stroke:#00bfbf;stroke-linejoin:miter;stroke-width:1.5;" x="369.60768" xlink:href="#mc7961381f3" y="130.69497"/>
    </g>
   </g>
   <g id="line2d_59">
    <path d="M 338.688 100.280046 
L 369.60768 49.119683 
" style="fill:none;stroke:#000080;stroke-linecap:square;stroke-width:1.5;"/>
    <g>
     <use style="fill-opacity:0;stroke:#000080;stroke-linejoin:miter;stroke-width:1.5;" x="338.688" xlink:href="#m606d916a9f" y="100.280046"/>
     <use style="fill-opacity:0;stroke:#000080;stroke-linejoin:miter;stroke-width:1.5;" x="369.60768" xlink:href="#m606d916a9f" y="49.119683"/>
    </g>
   </g>
   <g id="line2d_60">
    <path d="M 338.688 298.944 
L 338.688 44.021228 
" style="fill:none;stroke:#000000;stroke-linecap:square;stroke-width:1.5;"/>
   </g>
   <g id="patch_3">
    <path d="M 57.6 298.944 
L 57.6 41.472 
" style="fill:none;stroke:#000000;stroke-linecap:square;stroke-linejoin:miter;stroke-width:0.8;"/>
   </g>
   <g id="patch_4">
    <path d="M 338.688 298.944 
L 338.688 41.472 
" style="fill:none;stroke:#000000;stroke-linecap:square;stroke-linejoin:miter;stroke-width:0.8;"/>
   </g>
   <g id="patch_5">
    <path d="M 57.6 298.944 
L 338.688 298.944 
" style="fill:none;stroke:#000000;stroke-linecap:square;stroke-linejoin:miter;stroke-width:0.8;"/>
   </g>
   <g id="patch_6">
    <path d="M 57.6 41.472 
L 338.688 41.472 
" style="fill:none;stroke:#000000;stroke-linecap:square;stroke-linejoin:miter;stroke-width:0.8;"/>
   </g>
   <g id="text_13">
    <!-- SPEA2-pla -->
    <defs>
     <path d="M 53.515625 70.515625 
L 53.515625 60.890625 
Q 47.90625 63.578125 42.921875 64.890625 
Q 37.9375 66.21875 33.296875 66.21875 
Q 25.25 66.21875 20.875 63.09375 
Q 16.5 59.96875 16.5 54.203125 
Q 16.5 49.359375 19.40625 46.890625 
Q 22.3125 44.4375 30.421875 42.921875 
L 36.375 41.703125 
Q 47.40625 39.59375 52.65625 34.296875 
Q 57.90625 29 57.90625 20.125 
Q 57.90625 9.515625 50.796875 4.046875 
Q 43.703125 -1.421875 29.984375 -1.421875 
Q 24.8125 -1.421875 18.96875 -0.25 
Q 13.140625 0.921875 6.890625 3.21875 
L 6.890625 13.375 
Q 12.890625 10.015625 18.65625 8.296875 
Q 24.421875 6.59375 29.984375 6.59375 
Q 38.421875 6.59375 43.015625 9.90625 
Q 47.609375 13.234375 47.609375 19.390625 
Q 47.609375 24.75 44.3125 27.78125 
Q 41.015625 30.8125 33.5 32.328125 
L 27.484375 33.5 
Q 16.453125 35.6875 11.515625 40.375 
Q 6.59375 45.0625 6.59375 53.421875 
Q 6.59375 63.09375 13.40625 68.65625 
Q 20.21875 74.21875 32.171875 74.21875 
Q 37.3125 74.21875 42.625 73.28125 
Q 47.953125 72.359375 53.515625 70.515625 
z
" id="DejaVuSans-83"/>
     <path d="M 19.671875 64.796875 
L 19.671875 37.40625 
L 32.078125 37.40625 
Q 38.96875 37.40625 42.71875 40.96875 
Q 46.484375 44.53125 46.484375 51.125 
Q 46.484375 57.671875 42.71875 61.234375 
Q 38.96875 64.796875 32.078125 64.796875 
z
M 9.8125 72.90625 
L 32.078125 72.90625 
Q 44.34375 72.90625 50.609375 67.359375 
Q 56.890625 61.8125 56.890625 51.125 
Q 56.890625 40.328125 50.609375 34.8125 
Q 44.34375 29.296875 32.078125 29.296875 
L 19.671875 29.296875 
L 19.671875 0 
L 9.8125 0 
z
" id="DejaVuSans-80"/>
     <path d="M 9.8125 72.90625 
L 55.90625 72.90625 
L 55.90625 64.59375 
L 19.671875 64.59375 
L 19.671875 43.015625 
L 54.390625 43.015625 
L 54.390625 34.71875 
L 19.671875 34.71875 
L 19.671875 8.296875 
L 56.78125 8.296875 
L 56.78125 0 
L 9.8125 0 
z
" id="DejaVuSans-69"/>
     <path d="M 34.1875 63.1875 
L 20.796875 26.90625 
L 47.609375 26.90625 
z
M 28.609375 72.90625 
L 39.796875 72.90625 
L 67.578125 0 
L 57.328125 0 
L 50.6875 18.703125 
L 17.828125 18.703125 
L 11.1875 0 
L 0.78125 0 
z
" id="DejaVuSans-65"/>
    </defs>
    <g transform="translate(375.22944 298.536482)scale(0.17 -0.17)">
     <use xlink:href="#DejaVuSans-83"/>
     <use x="63.476562" xlink:href="#DejaVuSans-80"/>
     <use x="123.779297" xlink:href="#DejaVuSans-69"/>
     <use x="186.962891" xlink:href="#DejaVuSans-65"/>
     <use x="255.371094" xlink:href="#DejaVuSans-50"/>
     <use x="318.994141" xlink:href="#DejaVuSans-45"/>
     <use x="355.078125" xlink:href="#DejaVuSans-112"/>
     <use x="418.554688" xlink:href="#DejaVuSans-108"/>
     <use x="446.337891" xlink:href="#DejaVuSans-97"/>
    </g>
   </g>
   <g id="text_14">
    <!-- best 2016 -->
    <defs>
     <path d="M 48.6875 27.296875 
Q 48.6875 37.203125 44.609375 42.84375 
Q 40.53125 48.484375 33.40625 48.484375 
Q 26.265625 48.484375 22.1875 42.84375 
Q 18.109375 37.203125 18.109375 27.296875 
Q 18.109375 17.390625 22.1875 11.75 
Q 26.265625 6.109375 33.40625 6.109375 
Q 40.53125 6.109375 44.609375 11.75 
Q 48.6875 17.390625 48.6875 27.296875 
z
M 18.109375 46.390625 
Q 20.953125 51.265625 25.265625 53.625 
Q 29.59375 56 35.59375 56 
Q 45.5625 56 51.78125 48.09375 
Q 58.015625 40.1875 58.015625 27.296875 
Q 58.015625 14.40625 51.78125 6.484375 
Q 45.5625 -1.421875 35.59375 -1.421875 
Q 29.59375 -1.421875 25.265625 0.953125 
Q 20.953125 3.328125 18.109375 8.203125 
L 18.109375 0 
L 9.078125 0 
L 9.078125 75.984375 
L 18.109375 75.984375 
z
" id="DejaVuSans-98"/>
    </defs>
    <g transform="translate(375.22944 216.961195)scale(0.17 -0.17)">
     <use xlink:href="#DejaVuSans-98"/>
     <use x="63.476562" xlink:href="#DejaVuSans-101"/>
     <use x="125" xlink:href="#DejaVuSans-115"/>
     <use x="177.099609" xlink:href="#DejaVuSans-116"/>
     <use x="216.308594" xlink:href="#DejaVuSans-32"/>
     <use x="248.095703" xlink:href="#DejaVuSans-50"/>
     <use x="311.71875" xlink:href="#DejaVuSans-48"/>
     <use x="375.341797" xlink:href="#DejaVuSans-49"/>
     <use x="438.964844" xlink:href="#DejaVuSans-54"/>
    </g>
   </g>
   <g id="text_15">
    <!-- GDE3-plat -->
    <defs>
     <path d="M 59.515625 10.40625 
L 59.515625 29.984375 
L 43.40625 29.984375 
L 43.40625 38.09375 
L 69.28125 38.09375 
L 69.28125 6.78125 
Q 63.578125 2.734375 56.6875 0.65625 
Q 49.8125 -1.421875 42 -1.421875 
Q 24.90625 -1.421875 15.25 8.5625 
Q 5.609375 18.5625 5.609375 36.375 
Q 5.609375 54.25 15.25 64.234375 
Q 24.90625 74.21875 42 74.21875 
Q 49.125 74.21875 55.546875 72.453125 
Q 61.96875 70.703125 67.390625 67.28125 
L 67.390625 56.78125 
Q 61.921875 61.421875 55.765625 63.765625 
Q 49.609375 66.109375 42.828125 66.109375 
Q 29.4375 66.109375 22.71875 58.640625 
Q 16.015625 51.171875 16.015625 36.375 
Q 16.015625 21.625 22.71875 14.15625 
Q 29.4375 6.6875 42.828125 6.6875 
Q 48.046875 6.6875 52.140625 7.59375 
Q 56.25 8.5 59.515625 10.40625 
z
" id="DejaVuSans-71"/>
     <path d="M 19.671875 64.796875 
L 19.671875 8.109375 
L 31.59375 8.109375 
Q 46.6875 8.109375 53.6875 14.9375 
Q 60.6875 21.78125 60.6875 36.53125 
Q 60.6875 51.171875 53.6875 57.984375 
Q 46.6875 64.796875 31.59375 64.796875 
z
M 9.8125 72.90625 
L 30.078125 72.90625 
Q 51.265625 72.90625 61.171875 64.09375 
Q 71.09375 55.28125 71.09375 36.53125 
Q 71.09375 17.671875 61.125 8.828125 
Q 51.171875 0 30.078125 0 
L 9.8125 0 
z
" id="DejaVuSans-68"/>
     <path d="M 40.578125 39.3125 
Q 47.65625 37.796875 51.625 33 
Q 55.609375 28.21875 55.609375 21.1875 
Q 55.609375 10.40625 48.1875 4.484375 
Q 40.765625 -1.421875 27.09375 -1.421875 
Q 22.515625 -1.421875 17.65625 -0.515625 
Q 12.796875 0.390625 7.625 2.203125 
L 7.625 11.71875 
Q 11.71875 9.328125 16.59375 8.109375 
Q 21.484375 6.890625 26.8125 6.890625 
Q 36.078125 6.890625 40.9375 10.546875 
Q 45.796875 14.203125 45.796875 21.1875 
Q 45.796875 27.640625 41.28125 31.265625 
Q 36.765625 34.90625 28.71875 34.90625 
L 20.21875 34.90625 
L 20.21875 43.015625 
L 29.109375 43.015625 
Q 36.375 43.015625 40.234375 45.921875 
Q 44.09375 48.828125 44.09375 54.296875 
Q 44.09375 59.90625 40.109375 62.90625 
Q 36.140625 65.921875 28.71875 65.921875 
Q 24.65625 65.921875 20.015625 65.03125 
Q 15.375 64.15625 9.8125 62.3125 
L 9.8125 71.09375 
Q 15.4375 72.65625 20.34375 73.4375 
Q 25.25 74.21875 29.59375 74.21875 
Q 40.828125 74.21875 47.359375 69.109375 
Q 53.90625 64.015625 53.90625 55.328125 
Q 53.90625 49.265625 50.4375 45.09375 
Q 46.96875 40.921875 40.578125 39.3125 
z
" id="DejaVuSans-51"/>
    </defs>
    <g transform="translate(375.22944 135.385908)scale(0.17 -0.17)">
     <use xlink:href="#DejaVuSans-71"/>
     <use x="77.490234" xlink:href="#DejaVuSans-68"/>
     <use x="154.492188" xlink:href="#DejaVuSans-69"/>
     <use x="217.675781" xlink:href="#DejaVuSans-51"/>
     <use x="281.298828" xlink:href="#DejaVuSans-45"/>
     <use x="317.382812" xlink:href="#DejaVuSans-112"/>
     <use x="380.859375" xlink:href="#DejaVuSans-108"/>
     <use x="408.642578" xlink:href="#DejaVuSans-97"/>
     <use x="469.921875" xlink:href="#DejaVuSans-116"/>
    </g>
   </g>
   <g id="text_16">
    <!-- MOEAD-pla -->
    <defs>
     <path d="M 9.8125 72.90625 
L 24.515625 72.90625 
L 43.109375 23.296875 
L 61.8125 72.90625 
L 76.515625 72.90625 
L 76.515625 0 
L 66.890625 0 
L 66.890625 64.015625 
L 48.09375 14.015625 
L 38.1875 14.015625 
L 19.390625 64.015625 
L 19.390625 0 
L 9.8125 0 
z
" id="DejaVuSans-77"/>
     <path d="M 39.40625 66.21875 
Q 28.65625 66.21875 22.328125 58.203125 
Q 16.015625 50.203125 16.015625 36.375 
Q 16.015625 22.609375 22.328125 14.59375 
Q 28.65625 6.59375 39.40625 6.59375 
Q 50.140625 6.59375 56.421875 14.59375 
Q 62.703125 22.609375 62.703125 36.375 
Q 62.703125 50.203125 56.421875 58.203125 
Q 50.140625 66.21875 39.40625 66.21875 
z
M 39.40625 74.21875 
Q 54.734375 74.21875 63.90625 63.9375 
Q 73.09375 53.65625 73.09375 36.375 
Q 73.09375 19.140625 63.90625 8.859375 
Q 54.734375 -1.421875 39.40625 -1.421875 
Q 24.03125 -1.421875 14.8125 8.828125 
Q 5.609375 19.09375 5.609375 36.375 
Q 5.609375 53.65625 14.8125 63.9375 
Q 24.03125 74.21875 39.40625 74.21875 
z
" id="DejaVuSans-79"/>
    </defs>
    <g transform="translate(375.22944 53.810621)scale(0.17 -0.17)">
     <use xlink:href="#DejaVuSans-77"/>
     <use x="86.279297" xlink:href="#DejaVuSans-79"/>
     <use x="164.990234" xlink:href="#DejaVuSans-69"/>
     <use x="228.173828" xlink:href="#DejaVuSans-65"/>
     <use x="296.582031" xlink:href="#DejaVuSans-68"/>
     <use x="373.583984" xlink:href="#DejaVuSans-45"/>
     <use x="409.667969" xlink:href="#DejaVuSans-112"/>
     <use x="473.144531" xlink:href="#DejaVuSans-108"/>
     <use x="500.927734" xlink:href="#DejaVuSans-97"/>
    </g>
   </g>
   <g id="text_17">
    <!-- bbob-biobj f11, 40-D -->
    <defs>
     <path d="M 9.421875 54.6875 
L 18.40625 54.6875 
L 18.40625 -0.984375 
Q 18.40625 -11.421875 14.421875 -16.109375 
Q 10.453125 -20.796875 1.609375 -20.796875 
L -1.8125 -20.796875 
L -1.8125 -13.1875 
L 0.59375 -13.1875 
Q 5.71875 -13.1875 7.5625 -10.8125 
Q 9.421875 -8.453125 9.421875 -0.984375 
z
M 9.421875 75.984375 
L 18.40625 75.984375 
L 18.40625 64.59375 
L 9.421875 64.59375 
z
" id="DejaVuSans-106"/>
    </defs>
    <g transform="translate(60.41088 51.797126)scale(0.102 -0.102)">
     <use xlink:href="#DejaVuSans-98"/>
     <use x="63.476562" xlink:href="#DejaVuSans-98"/>
     <use x="126.953125" xlink:href="#DejaVuSans-111"/>
     <use x="188.134766" xlink:href="#DejaVuSans-98"/>
     <use x="251.611328" xlink:href="#DejaVuSans-45"/>
     <use x="287.695312" xlink:href="#DejaVuSans-98"/>
     <use x="351.171875" xlink:href="#DejaVuSans-105"/>
     <use x="378.955078" xlink:href="#DejaVuSans-111"/>
     <use x="440.136719" xlink:href="#DejaVuSans-98"/>
     <use x="503.613281" xlink:href="#DejaVuSans-106"/>
     <use x="531.396484" xlink:href="#DejaVuSans-32"/>
     <use x="563.183594" xlink:href="#DejaVuSans-102"/>
     <use x="598.388672" xlink:href="#DejaVuSans-49"/>
     <use x="662.011719" xlink:href="#DejaVuSans-49"/>
     <use x="725.634766" xlink:href="#DejaVuSans-44"/>
     <use x="757.421875" xlink:href="#DejaVuSans-32"/>
     <use x="789.208984" xlink:href="#DejaVuSans-52"/>
     <use x="852.832031" xlink:href="#DejaVuSans-48"/>
     <use x="916.455078" xlink:href="#DejaVuSans-45"/>
     <use x="952.539062" xlink:href="#DejaVuSans-68"/>
    </g>
    <!-- 58 targets: 1..-1.0e-4 -->
    <defs>
     <path d="M 10.796875 72.90625 
L 49.515625 72.90625 
L 49.515625 64.59375 
L 19.828125 64.59375 
L 19.828125 46.734375 
Q 21.96875 47.46875 24.109375 47.828125 
Q 26.265625 48.1875 28.421875 48.1875 
Q 40.625 48.1875 47.75 41.5 
Q 54.890625 34.8125 54.890625 23.390625 
Q 54.890625 11.625 47.5625 5.09375 
Q 40.234375 -1.421875 26.90625 -1.421875 
Q 22.3125 -1.421875 17.546875 -0.640625 
Q 12.796875 0.140625 7.71875 1.703125 
L 7.71875 11.625 
Q 12.109375 9.234375 16.796875 8.0625 
Q 21.484375 6.890625 26.703125 6.890625 
Q 35.15625 6.890625 40.078125 11.328125 
Q 45.015625 15.765625 45.015625 23.390625 
Q 45.015625 31 40.078125 35.4375 
Q 35.15625 39.890625 26.703125 39.890625 
Q 22.75 39.890625 18.8125 39.015625 
Q 14.890625 38.140625 10.796875 36.28125 
z
" id="DejaVuSans-53"/>
     <path d="M 11.71875 12.40625 
L 22.015625 12.40625 
L 22.015625 0 
L 11.71875 0 
z
M 11.71875 51.703125 
L 22.015625 51.703125 
L 22.015625 39.3125 
L 11.71875 39.3125 
z
" id="DejaVuSans-58"/>
    </defs>
    <g transform="translate(60.41088 63.218895)scale(0.102 -0.102)">
     <use xlink:href="#DejaVuSans-53"/>
     <use x="63.623047" xlink:href="#DejaVuSans-56"/>
     <use x="127.246094" xlink:href="#DejaVuSans-32"/>
     <use x="159.033203" xlink:href="#DejaVuSans-116"/>
     <use x="198.242188" xlink:href="#DejaVuSans-97"/>
     <use x="259.521484" xlink:href="#DejaVuSans-114"/>
     <use x="300.619141" xlink:href="#DejaVuSans-103"/>
     <use x="364.095703" xlink:href="#DejaVuSans-101"/>
     <use x="425.619141" xlink:href="#DejaVuSans-116"/>
     <use x="464.828125" xlink:href="#DejaVuSans-115"/>
     <use x="516.927734" xlink:href="#DejaVuSans-58"/>
     <use x="550.619141" xlink:href="#DejaVuSans-32"/>
     <use x="582.40625" xlink:href="#DejaVuSans-49"/>
     <use x="646.029297" xlink:href="#DejaVuSans-46"/>
     <use x="677.816406" xlink:href="#DejaVuSans-46"/>
     <use x="709.603516" xlink:href="#DejaVuSans-45"/>
     <use x="745.6875" xlink:href="#DejaVuSans-49"/>
     <use x="809.310547" xlink:href="#DejaVuSans-46"/>
     <use x="841.097656" xlink:href="#DejaVuSans-48"/>
     <use x="904.720703" xlink:href="#DejaVuSans-101"/>
     <use x="966.244141" xlink:href="#DejaVuSans-45"/>
     <use x="1002.328125" xlink:href="#DejaVuSans-52"/>
    </g>
    <!-- 10 instances -->
    <g transform="translate(60.41088 74.640664)scale(0.102 -0.102)">
     <use xlink:href="#DejaVuSans-49"/>
     <use x="63.623047" xlink:href="#DejaVuSans-48"/>
     <use x="127.246094" xlink:href="#DejaVuSans-32"/>
     <use x="159.033203" xlink:href="#DejaVuSans-105"/>
     <use x="186.816406" xlink:href="#DejaVuSans-110"/>
     <use x="250.195312" xlink:href="#DejaVuSans-115"/>
     <use x="302.294922" xlink:href="#DejaVuSans-116"/>
     <use x="341.503906" xlink:href="#DejaVuSans-97"/>
     <use x="402.783203" xlink:href="#DejaVuSans-110"/>
     <use x="466.162109" xlink:href="#DejaVuSans-99"/>
     <use x="521.142578" xlink:href="#DejaVuSans-101"/>
     <use x="582.666016" xlink:href="#DejaVuSans-115"/>
    </g>
   </g>
   <g id="text_18">
    <!-- v2.3.1.31, hv-hash=9c62f617dadcb154 -->
    <defs>
     <path d="M 54.890625 33.015625 
L 54.890625 0 
L 45.90625 0 
L 45.90625 32.71875 
Q 45.90625 40.484375 42.875 44.328125 
Q 39.84375 48.1875 33.796875 48.1875 
Q 26.515625 48.1875 22.3125 43.546875 
Q 18.109375 38.921875 18.109375 30.90625 
L 18.109375 0 
L 9.078125 0 
L 9.078125 75.984375 
L 18.109375 75.984375 
L 18.109375 46.1875 
Q 21.34375 51.125 25.703125 53.5625 
Q 30.078125 56 35.796875 56 
Q 45.21875 56 50.046875 50.171875 
Q 54.890625 44.34375 54.890625 33.015625 
z
" id="DejaVuSans-104"/>
     <path d="M 10.59375 45.40625 
L 73.1875 45.40625 
L 73.1875 37.203125 
L 10.59375 37.203125 
z
M 10.59375 25.484375 
L 73.1875 25.484375 
L 73.1875 17.1875 
L 10.59375 17.1875 
z
" id="DejaVuSans-61"/>
     <path d="M 10.984375 1.515625 
L 10.984375 10.5 
Q 14.703125 8.734375 18.5 7.8125 
Q 22.3125 6.890625 25.984375 6.890625 
Q 35.75 6.890625 40.890625 13.453125 
Q 46.046875 20.015625 46.78125 33.40625 
Q 43.953125 29.203125 39.59375 26.953125 
Q 35.25 24.703125 29.984375 24.703125 
Q 19.046875 24.703125 12.671875 31.3125 
Q 6.296875 37.9375 6.296875 49.421875 
Q 6.296875 60.640625 12.9375 67.421875 
Q 19.578125 74.21875 30.609375 74.21875 
Q 43.265625 74.21875 49.921875 64.515625 
Q 56.59375 54.828125 56.59375 36.375 
Q 56.59375 19.140625 48.40625 8.859375 
Q 40.234375 -1.421875 26.421875 -1.421875 
Q 22.703125 -1.421875 18.890625 -0.6875 
Q 15.09375 0.046875 10.984375 1.515625 
z
M 30.609375 32.421875 
Q 37.25 32.421875 41.125 36.953125 
Q 45.015625 41.5 45.015625 49.421875 
Q 45.015625 57.28125 41.125 61.84375 
Q 37.25 66.40625 30.609375 66.40625 
Q 23.96875 66.40625 20.09375 61.84375 
Q 16.21875 57.28125 16.21875 49.421875 
Q 16.21875 41.5 20.09375 36.953125 
Q 23.96875 32.421875 30.609375 32.421875 
z
" id="DejaVuSans-57"/>
     <path d="M 8.203125 72.90625 
L 55.078125 72.90625 
L 55.078125 68.703125 
L 28.609375 0 
L 18.3125 0 
L 43.21875 64.59375 
L 8.203125 64.59375 
z
" id="DejaVuSans-55"/>
    </defs>
    <g style="fill:#808080;" transform="translate(98.729937 294.289592)scale(0.1 -0.1)">
     <use xlink:href="#DejaVuSans-118"/>
     <use x="59.179688" xlink:href="#DejaVuSans-50"/>
     <use x="122.802734" xlink:href="#DejaVuSans-46"/>
     <use x="154.589844" xlink:href="#DejaVuSans-51"/>
     <use x="218.212891" xlink:href="#DejaVuSans-46"/>
     <use x="250" xlink:href="#DejaVuSans-49"/>
     <use x="313.623047" xlink:href="#DejaVuSans-46"/>
     <use x="345.410156" xlink:href="#DejaVuSans-51"/>
     <use x="409.033203" xlink:href="#DejaVuSans-49"/>
     <use x="472.65625" xlink:href="#DejaVuSans-44"/>
     <use x="504.443359" xlink:href="#DejaVuSans-32"/>
     <use x="536.230469" xlink:href="#DejaVuSans-104"/>
     <use x="599.609375" xlink:href="#DejaVuSans-118"/>
     <use x="658.757812" xlink:href="#DejaVuSans-45"/>
     <use x="694.841797" xlink:href="#DejaVuSans-104"/>
     <use x="758.220703" xlink:href="#DejaVuSans-97"/>
     <use x="819.5" xlink:href="#DejaVuSans-115"/>
     <use x="871.599609" xlink:href="#DejaVuSans-104"/>
     <use x="934.978516" xlink:href="#DejaVuSans-61"/>
     <use x="1018.767578" xlink:href="#DejaVuSans-57"/>
     <use x="1082.390625" xlink:href="#DejaVuSans-99"/>
     <use x="1137.371094" xlink:href="#DejaVuSans-54"/>
     <use x="1200.994141" xlink:href="#DejaVuSans-50"/>
     <use x="1264.617188" xlink:href="#DejaVuSans-102"/>
     <use x="1299.822266" xlink:href="#DejaVuSans-54"/>
     <use x="1363.445312" xlink:href="#DejaVuSans-49"/>
     <use x="1427.068359" xlink:href="#DejaVuSans-55"/>
     <use x="1490.691406" xlink:href="#DejaVuSans-100"/>
     <use x="1554.167969" xlink:href="#DejaVuSans-97"/>
     <use x="1615.447266" xlink:href="#DejaVuSans-100"/>
     <use x="1678.923828" xlink:href="#DejaVuSans-99"/>
     <use x="1733.904297" xlink:href="#DejaVuSans-98"/>
     <use x="1797.380859" xlink:href="#DejaVuSans-49"/>
     <use x="1861.003906" xlink:href="#DejaVuSans-53"/>
     <use x="1924.626953" xlink:href="#DejaVuSans-52"/>
    </g>
   </g>
   <g id="text_19">
    <!-- 11 sep. Ellipsoid/sep. Elli. -->
    <g transform="translate(71.45025 35.472)scale(0.2 -0.2)">
     <use xlink:href="#DejaVuSans-49"/>
     <use x="63.623047" xlink:href="#DejaVuSans-49"/>
     <use x="127.246094" xlink:href="#DejaVuSans-32"/>
     <use x="159.033203" xlink:href="#DejaVuSans-115"/>
     <use x="211.132812" xlink:href="#DejaVuSans-101"/>
     <use x="272.65625" xlink:href="#DejaVuSans-112"/>
     <use x="336.132812" xlink:href="#DejaVuSans-46"/>
     <use x="367.919922" xlink:href="#DejaVuSans-32"/>
     <use x="399.707031" xlink:href="#DejaVuSans-69"/>
     <use x="462.890625" xlink:href="#DejaVuSans-108"/>
     <use x="490.673828" xlink:href="#DejaVuSans-108"/>
     <use x="518.457031" xlink:href="#DejaVuSans-105"/>
     <use x="546.240234" xlink:href="#DejaVuSans-112"/>
     <use x="609.716797" xlink:href="#DejaVuSans-115"/>
     <use x="661.816406" xlink:href="#DejaVuSans-111"/>
     <use x="722.998047" xlink:href="#DejaVuSans-105"/>
     <use x="750.78125" xlink:href="#DejaVuSans-100"/>
     <use x="814.257812" xlink:href="#DejaVuSans-47"/>
     <use x="847.949219" xlink:href="#DejaVuSans-115"/>
     <use x="900.048828" xlink:href="#DejaVuSans-101"/>
     <use x="961.572266" xlink:href="#DejaVuSans-112"/>
     <use x="1025.048828" xlink:href="#DejaVuSans-46"/>
     <use x="1056.835938" xlink:href="#DejaVuSans-32"/>
     <use x="1088.623047" xlink:href="#DejaVuSans-69"/>
     <use x="1151.806641" xlink:href="#DejaVuSans-108"/>
     <use x="1179.589844" xlink:href="#DejaVuSans-108"/>
     <use x="1207.373047" xlink:href="#DejaVuSans-105"/>
     <use x="1235.15625" xlink:href="#DejaVuSans-46"/>
    </g>
   </g>
  </g>
 </g>
 <defs>
  <clipPath id="pe31187749f">
   <rect height="257.472" width="281.088" x="57.6" y="41.472"/>
  </clipPath>
 </defs>
</svg>
