<?xml version="1.0" encoding="utf-8" standalone="no"?>
<!DOCTYPE svg PUBLIC "-//W3C//DTD SVG 1.1//EN"
  "http://www.w3.org/Graphics/SVG/1.1/DTD/svg11.dtd">
<!-- Created with matplotlib (http://matplotlib.org/) -->
<svg height="345pt" version="1.1" viewBox="0 0 460 345" width="460pt" xmlns="http://www.w3.org/2000/svg" xmlns:xlink="http://www.w3.org/1999/xlink">
 <defs>
  <style type="text/css">
*{stroke-linecap:butt;stroke-linejoin:round;}
  </style>
 </defs>
 <g id="figure_1">
  <g id="patch_1">
   <path d="M 0 345.6 
L 460.8 345.6 
L 460.8 0 
L 0 0 
z
" style="fill:#ffffff;"/>
  </g>
  <g id="axes_1">
   <g id="patch_2">
    <path d="M 56.66 294.16 
L 399.984 294.16 
L 399.984 24.84 
L 56.66 24.84 
z
" style="fill:#ffffff;"/>
   </g>
   <g id="line2d_1">
    <path d="M 146.79936 294.16 
L 146.79936 288.931501 
L 162.23519 288.931501 
L 162.23519 283.703001 
L 168.89206 283.703001 
L 168.89206 278.474502 
L 185.797863 278.474502 
L 185.797863 273.246003 
L 191.382577 273.246003 
L 191.382577 268.017503 
L 201.898953 268.017503 
L 201.898953 262.789004 
L 212.470492 262.789004 
L 212.470492 257.560505 
L 219.698257 257.560505 
L 219.698257 252.332005 
L 224.1012 252.332005 
L 224.1012 247.103506 
L 226.281026 247.103506 
L 226.281026 241.875007 
L 226.496004 241.875007 
L 226.496004 236.646507 
L 231.230492 236.646507 
L 231.230492 231.418008 
L 231.28012 231.418008 
L 231.28012 226.189509 
L 231.324513 226.189509 
L 231.324513 220.96101 
L 231.37875 220.96101 
L 231.37875 215.73251 
L 231.429361 215.73251 
L 231.429361 210.504011 
L 231.476278 210.504011 
L 231.476278 205.275512 
L 231.526261 205.275512 
L 231.526261 200.047012 
L 231.568869 200.047012 
L 231.568869 194.818513 
L 231.620965 194.818513 
L 231.620965 189.590014 
L 231.6709 189.590014 
L 231.6709 184.361514 
L 231.711879 184.361514 
L 231.711879 179.133015 
L 231.767623 179.133015 
L 231.767623 173.904516 
L 231.815662 173.904516 
L 231.815662 168.676016 
L 231.858134 168.676016 
L 231.858134 163.447517 
L 231.909744 163.447517 
L 231.909744 158.219018 
L 231.952064 158.219018 
L 231.952064 152.990518 
L 232.002061 152.990518 
L 232.002061 147.762019 
L 232.045467 147.762019 
L 232.045467 142.53352 
L 232.101039 142.53352 
L 232.101039 137.30502 
L 232.14462 137.30502 
L 232.14462 132.076521 
L 232.185332 132.076521 
L 232.185332 126.848022 
L 232.238235 126.848022 
L 232.238235 121.619522 
L 232.288826 121.619522 
L 232.288826 116.391023 
L 232.332462 116.391023 
L 232.332462 111.162524 
L 232.371987 111.162524 
L 232.371987 105.934024 
L 232.414917 105.934024 
L 232.414917 100.705525 
L 232.464852 100.705525 
L 232.464852 95.477026 
L 232.508813 95.477026 
L 232.508813 90.248526 
L 232.557955 90.248526 
L 232.557955 85.020027 
L 232.605916 85.020027 
L 232.605916 79.791528 
L 232.649777 79.791528 
L 232.649777 74.563029 
L 232.693436 74.563029 
L 232.693436 69.334529 
L 232.741522 69.334529 
L 232.741522 64.10603 
L 232.784872 64.10603 
L 232.784872 58.877531 
L 232.828007 58.877531 
L 232.828007 53.649031 
L 232.872676 53.649031 
L 232.872676 48.420532 
L 232.912467 48.420532 
L 232.912467 43.192033 
L 232.957801 43.192033 
L 232.957801 37.963533 
L 233.001821 37.963533 
L 233.001821 32.735034 
L 233.043715 32.735034 
L 233.043715 27.506535 
L 333.534194 27.506535 
" style="fill:none;stroke:#f5deb3;stroke-linecap:square;stroke-width:6;"/>
   </g>
   <g id="line2d_2">
    <path d="M 0 0 
" style="fill:none;stroke:#f5deb3;stroke-linecap:square;stroke-width:6;"/>
    <defs>
     <path d="M -0 7.778175 
L 7.778175 0 
L 0 -7.778175 
L -7.778175 -0 
z
" id="mb8ad00fd2f" style="stroke:#f5deb3;stroke-linejoin:miter;stroke-width:1.5;"/>
    </defs>
    <g>
     <use style="fill:#f5deb3;stroke:#f5deb3;stroke-linejoin:miter;stroke-width:1.5;" x="0" xlink:href="#mb8ad00fd2f" y="0"/>
    </g>
   </g>
   <g id="line2d_3">
    <path d="M 333.534194 27.506535 
L 363.990355 288.826931 
" style="fill:none;stroke:#f5deb3;stroke-linecap:square;stroke-width:6;"/>
    <g>
     <use style="fill:#f5deb3;stroke:#f5deb3;stroke-linejoin:miter;stroke-width:1.5;" x="333.534194" xlink:href="#mb8ad00fd2f" y="27.506535"/>
     <use style="fill:#f5deb3;stroke:#f5deb3;stroke-linejoin:miter;stroke-width:1.5;" x="363.990355" xlink:href="#mb8ad00fd2f" y="288.826931"/>
    </g>
   </g>
   <g id="matplotlib.axis_1">
    <g id="xtick_1">
     <g id="line2d_4">
      <path clip-path="url(#p01670c73e7)" d="M 56.66 294.16 
L 56.66 24.84 
" style="fill:none;stroke:#b0b0b0;stroke-linecap:square;stroke-width:0.8;"/>
     </g>
     <g id="line2d_5">
      <defs>
       <path d="M 0 0 
L 0 3.5 
" id="med5c373f60" style="stroke:#000000;stroke-width:0.8;"/>
      </defs>
      <g>
       <use style="stroke:#000000;stroke-width:0.8;" x="56.66" xlink:href="#med5c373f60" y="294.16"/>
      </g>
     </g>
     <g id="text_1">
      <!-- 0 -->
      <defs>
       <path d="M 31.78125 66.40625 
Q 24.171875 66.40625 20.328125 58.90625 
Q 16.5 51.421875 16.5 36.375 
Q 16.5 21.390625 20.328125 13.890625 
Q 24.171875 6.390625 31.78125 6.390625 
Q 39.453125 6.390625 43.28125 13.890625 
Q 47.125 21.390625 47.125 36.375 
Q 47.125 51.421875 43.28125 58.90625 
Q 39.453125 66.40625 31.78125 66.40625 
z
M 31.78125 74.21875 
Q 44.046875 74.21875 50.515625 64.515625 
Q 56.984375 54.828125 56.984375 36.375 
Q 56.984375 17.96875 50.515625 8.265625 
Q 44.046875 -1.421875 31.78125 -1.421875 
Q 19.53125 -1.421875 13.0625 8.265625 
Q 6.59375 17.96875 6.59375 36.375 
Q 6.59375 54.828125 13.0625 64.515625 
Q 19.53125 74.21875 31.78125 74.21875 
z
" id="DejaVuSans-30"/>
      </defs>
      <g transform="translate(50.2975 316.356875)scale(0.2 -0.2)">
       <use xlink:href="#DejaVuSans-30"/>
      </g>
     </g>
    </g>
    <g id="xtick_2">
     <g id="line2d_6">
      <path clip-path="url(#p01670c73e7)" d="M 135.766912 294.16 
L 135.766912 24.84 
" style="fill:none;stroke:#b0b0b0;stroke-linecap:square;stroke-width:0.8;"/>
     </g>
     <g id="line2d_7">
      <g>
       <use style="stroke:#000000;stroke-width:0.8;" x="135.766912" xlink:href="#med5c373f60" y="294.16"/>
      </g>
     </g>
     <g id="text_2">
      <!-- 2 -->
      <defs>
       <path d="M 19.1875 8.296875 
L 53.609375 8.296875 
L 53.609375 0 
L 7.328125 0 
L 7.328125 8.296875 
Q 12.9375 14.109375 22.625 23.890625 
Q 32.328125 33.6875 34.8125 36.53125 
Q 39.546875 41.84375 41.421875 45.53125 
Q 43.3125 49.21875 43.3125 52.78125 
Q 43.3125 58.59375 39.234375 62.25 
Q 35.15625 65.921875 28.609375 65.921875 
Q 23.96875 65.921875 18.8125 64.3125 
Q 13.671875 62.703125 7.8125 59.421875 
L 7.8125 69.390625 
Q 13.765625 71.78125 18.9375 73 
Q 24.125 74.21875 28.421875 74.21875 
Q 39.75 74.21875 46.484375 68.546875 
Q 53.21875 62.890625 53.21875 53.421875 
Q 53.21875 48.921875 51.53125 44.890625 
Q 49.859375 40.875 45.40625 35.40625 
Q 44.1875 33.984375 37.640625 27.21875 
Q 31.109375 20.453125 19.1875 8.296875 
z
" id="DejaVuSans-32"/>
      </defs>
      <g transform="translate(129.404412 316.356875)scale(0.2 -0.2)">
       <use xlink:href="#DejaVuSans-32"/>
      </g>
     </g>
    </g>
    <g id="xtick_3">
     <g id="line2d_8">
      <path clip-path="url(#p01670c73e7)" d="M 214.873825 294.16 
L 214.873825 24.84 
" style="fill:none;stroke:#b0b0b0;stroke-linecap:square;stroke-width:0.8;"/>
     </g>
     <g id="line2d_9">
      <g>
       <use style="stroke:#000000;stroke-width:0.8;" x="214.873825" xlink:href="#med5c373f60" y="294.16"/>
      </g>
     </g>
     <g id="text_3">
      <!-- 4 -->
      <defs>
       <path d="M 37.796875 64.3125 
L 12.890625 25.390625 
L 37.796875 25.390625 
z
M 35.203125 72.90625 
L 47.609375 72.90625 
L 47.609375 25.390625 
L 58.015625 25.390625 
L 58.015625 17.1875 
L 47.609375 17.1875 
L 47.609375 0 
L 37.796875 0 
L 37.796875 17.1875 
L 4.890625 17.1875 
L 4.890625 26.703125 
z
" id="DejaVuSans-34"/>
      </defs>
      <g transform="translate(208.511325 316.356875)scale(0.2 -0.2)">
       <use xlink:href="#DejaVuSans-34"/>
      </g>
     </g>
    </g>
    <g id="xtick_4">
     <g id="line2d_10">
      <path clip-path="url(#p01670c73e7)" d="M 293.980737 294.16 
L 293.980737 24.84 
" style="fill:none;stroke:#b0b0b0;stroke-linecap:square;stroke-width:0.8;"/>
     </g>
     <g id="line2d_11">
      <g>
       <use style="stroke:#000000;stroke-width:0.8;" x="293.980737" xlink:href="#med5c373f60" y="294.16"/>
      </g>
     </g>
     <g id="text_4">
      <!-- 6 -->
      <defs>
       <path d="M 33.015625 40.375 
Q 26.375 40.375 22.484375 35.828125 
Q 18.609375 31.296875 18.609375 23.390625 
Q 18.609375 15.53125 22.484375 10.953125 
Q 26.375 6.390625 33.015625 6.390625 
Q 39.65625 6.390625 43.53125 10.953125 
Q 47.40625 15.53125 47.40625 23.390625 
Q 47.40625 31.296875 43.53125 35.828125 
Q 39.65625 40.375 33.015625 40.375 
z
M 52.59375 71.296875 
L 52.59375 62.3125 
Q 48.875 64.0625 45.09375 64.984375 
Q 41.3125 65.921875 37.59375 65.921875 
Q 27.828125 65.921875 22.671875 59.328125 
Q 17.53125 52.734375 16.796875 39.40625 
Q 19.671875 43.65625 24.015625 45.921875 
Q 28.375 48.1875 33.59375 48.1875 
Q 44.578125 48.1875 50.953125 41.515625 
Q 57.328125 34.859375 57.328125 23.390625 
Q 57.328125 12.15625 50.6875 5.359375 
Q 44.046875 -1.421875 33.015625 -1.421875 
Q 20.359375 -1.421875 13.671875 8.265625 
Q 6.984375 17.96875 6.984375 36.375 
Q 6.984375 53.65625 15.1875 63.9375 
Q 23.390625 74.21875 37.203125 74.21875 
Q 40.921875 74.21875 44.703125 73.484375 
Q 48.484375 72.75 52.59375 71.296875 
z
" id="DejaVuSans-36"/>
      </defs>
      <g transform="translate(287.618237 316.356875)scale(0.2 -0.2)">
       <use xlink:href="#DejaVuSans-36"/>
      </g>
     </g>
    </g>
    <g id="xtick_5">
     <g id="line2d_12">
      <path clip-path="url(#p01670c73e7)" d="M 373.08765 294.16 
L 373.08765 24.84 
" style="fill:none;stroke:#b0b0b0;stroke-linecap:square;stroke-width:0.8;"/>
     </g>
     <g id="line2d_13">
      <g>
       <use style="stroke:#000000;stroke-width:0.8;" x="373.08765" xlink:href="#med5c373f60" y="294.16"/>
      </g>
     </g>
     <g id="text_5">
      <!-- 8 -->
      <defs>
       <path d="M 31.78125 34.625 
Q 24.75 34.625 20.71875 30.859375 
Q 16.703125 27.09375 16.703125 20.515625 
Q 16.703125 13.921875 20.71875 10.15625 
Q 24.75 6.390625 31.78125 6.390625 
Q 38.8125 6.390625 42.859375 10.171875 
Q 46.921875 13.96875 46.921875 20.515625 
Q 46.921875 27.09375 42.890625 30.859375 
Q 38.875 34.625 31.78125 34.625 
z
M 21.921875 38.8125 
Q 15.578125 40.375 12.03125 44.71875 
Q 8.5 49.078125 8.5 55.328125 
Q 8.5 64.0625 14.71875 69.140625 
Q 20.953125 74.21875 31.78125 74.21875 
Q 42.671875 74.21875 48.875 69.140625 
Q 55.078125 64.0625 55.078125 55.328125 
Q 55.078125 49.078125 51.53125 44.71875 
Q 48 40.375 41.703125 38.8125 
Q 48.828125 37.15625 52.796875 32.3125 
Q 56.78125 27.484375 56.78125 20.515625 
Q 56.78125 9.90625 50.3125 4.234375 
Q 43.84375 -1.421875 31.78125 -1.421875 
Q 19.734375 -1.421875 13.25 4.234375 
Q 6.78125 9.90625 6.78125 20.515625 
Q 6.78125 27.484375 10.78125 32.3125 
Q 14.796875 37.15625 21.921875 38.8125 
z
M 18.3125 54.390625 
Q 18.3125 48.734375 21.84375 45.5625 
Q 25.390625 42.390625 31.78125 42.390625 
Q 38.140625 42.390625 41.71875 45.5625 
Q 45.3125 48.734375 45.3125 54.390625 
Q 45.3125 60.0625 41.71875 63.234375 
Q 38.140625 66.40625 31.78125 66.40625 
Q 25.390625 66.40625 21.84375 63.234375 
Q 18.3125 60.0625 18.3125 54.390625 
z
" id="DejaVuSans-38"/>
      </defs>
      <g transform="translate(366.72515 316.356875)scale(0.2 -0.2)">
       <use xlink:href="#DejaVuSans-38"/>
      </g>
     </g>
    </g>
    <g id="text_6">
     <!-- log10(# f-evals / dimension) -->
     <defs>
      <path d="M 9.421875 75.984375 
L 18.40625 75.984375 
L 18.40625 0 
L 9.421875 0 
z
" id="DejaVuSans-6c"/>
      <path d="M 30.609375 48.390625 
Q 23.390625 48.390625 19.1875 42.75 
Q 14.984375 37.109375 14.984375 27.296875 
Q 14.984375 17.484375 19.15625 11.84375 
Q 23.34375 6.203125 30.609375 6.203125 
Q 37.796875 6.203125 41.984375 11.859375 
Q 46.1875 17.53125 46.1875 27.296875 
Q 46.1875 37.015625 41.984375 42.703125 
Q 37.796875 48.390625 30.609375 48.390625 
z
M 30.609375 56 
Q 42.328125 56 49.015625 48.375 
Q 55.71875 40.765625 55.71875 27.296875 
Q 55.71875 13.875 49.015625 6.21875 
Q 42.328125 -1.421875 30.609375 -1.421875 
Q 18.84375 -1.421875 12.171875 6.21875 
Q 5.515625 13.875 5.515625 27.296875 
Q 5.515625 40.765625 12.171875 48.375 
Q 18.84375 56 30.609375 56 
z
" id="DejaVuSans-6f"/>
      <path d="M 45.40625 27.984375 
Q 45.40625 37.75 41.375 43.109375 
Q 37.359375 48.484375 30.078125 48.484375 
Q 22.859375 48.484375 18.828125 43.109375 
Q 14.796875 37.75 14.796875 27.984375 
Q 14.796875 18.265625 18.828125 12.890625 
Q 22.859375 7.515625 30.078125 7.515625 
Q 37.359375 7.515625 41.375 12.890625 
Q 45.40625 18.265625 45.40625 27.984375 
z
M 54.390625 6.78125 
Q 54.390625 -7.171875 48.1875 -13.984375 
Q 42 -20.796875 29.203125 -20.796875 
Q 24.46875 -20.796875 20.265625 -20.09375 
Q 16.0625 -19.390625 12.109375 -17.921875 
L 12.109375 -9.1875 
Q 16.0625 -11.328125 19.921875 -12.34375 
Q 23.78125 -13.375 27.78125 -13.375 
Q 36.625 -13.375 41.015625 -8.765625 
Q 45.40625 -4.15625 45.40625 5.171875 
L 45.40625 9.625 
Q 42.625 4.78125 38.28125 2.390625 
Q 33.9375 0 27.875 0 
Q 17.828125 0 11.671875 7.65625 
Q 5.515625 15.328125 5.515625 27.984375 
Q 5.515625 40.671875 11.671875 48.328125 
Q 17.828125 56 27.875 56 
Q 33.9375 56 38.28125 53.609375 
Q 42.625 51.21875 45.40625 46.390625 
L 45.40625 54.6875 
L 54.390625 54.6875 
z
" id="DejaVuSans-67"/>
      <path d="M 12.40625 8.296875 
L 28.515625 8.296875 
L 28.515625 63.921875 
L 10.984375 60.40625 
L 10.984375 69.390625 
L 28.421875 72.90625 
L 38.28125 72.90625 
L 38.28125 8.296875 
L 54.390625 8.296875 
L 54.390625 0 
L 12.40625 0 
z
" id="DejaVuSans-31"/>
      <path d="M 31 75.875 
Q 24.46875 64.65625 21.28125 53.65625 
Q 18.109375 42.671875 18.109375 31.390625 
Q 18.109375 20.125 21.3125 9.0625 
Q 24.515625 -2 31 -13.1875 
L 23.1875 -13.1875 
Q 15.875 -1.703125 12.234375 9.375 
Q 8.59375 20.453125 8.59375 31.390625 
Q 8.59375 42.28125 12.203125 53.3125 
Q 15.828125 64.359375 23.1875 75.875 
z
" id="DejaVuSans-28"/>
      <path d="M 51.125 44 
L 36.921875 44 
L 32.8125 27.6875 
L 47.125 27.6875 
z
M 43.796875 71.78125 
L 38.71875 51.515625 
L 52.984375 51.515625 
L 58.109375 71.78125 
L 65.921875 71.78125 
L 60.890625 51.515625 
L 76.125 51.515625 
L 76.125 44 
L 58.984375 44 
L 54.984375 27.6875 
L 70.515625 27.6875 
L 70.515625 20.21875 
L 53.078125 20.21875 
L 48 0 
L 40.1875 0 
L 45.21875 20.21875 
L 30.90625 20.21875 
L 25.875 0 
L 18.015625 0 
L 23.09375 20.21875 
L 7.71875 20.21875 
L 7.71875 27.6875 
L 24.90625 27.6875 
L 29 44 
L 13.28125 44 
L 13.28125 51.515625 
L 30.90625 51.515625 
L 35.890625 71.78125 
z
" id="DejaVuSans-23"/>
      <path id="DejaVuSans-20"/>
      <path d="M 37.109375 75.984375 
L 37.109375 68.5 
L 28.515625 68.5 
Q 23.6875 68.5 21.796875 66.546875 
Q 19.921875 64.59375 19.921875 59.515625 
L 19.921875 54.6875 
L 34.71875 54.6875 
L 34.71875 47.703125 
L 19.921875 47.703125 
L 19.921875 0 
L 10.890625 0 
L 10.890625 47.703125 
L 2.296875 47.703125 
L 2.296875 54.6875 
L 10.890625 54.6875 
L 10.890625 58.5 
Q 10.890625 67.625 15.140625 71.796875 
Q 19.390625 75.984375 28.609375 75.984375 
z
" id="DejaVuSans-66"/>
      <path d="M 4.890625 31.390625 
L 31.203125 31.390625 
L 31.203125 23.390625 
L 4.890625 23.390625 
z
" id="DejaVuSans-2d"/>
      <path d="M 56.203125 29.59375 
L 56.203125 25.203125 
L 14.890625 25.203125 
Q 15.484375 15.921875 20.484375 11.0625 
Q 25.484375 6.203125 34.421875 6.203125 
Q 39.59375 6.203125 44.453125 7.46875 
Q 49.3125 8.734375 54.109375 11.28125 
L 54.109375 2.78125 
Q 49.265625 0.734375 44.1875 -0.34375 
Q 39.109375 -1.421875 33.890625 -1.421875 
Q 20.796875 -1.421875 13.15625 6.1875 
Q 5.515625 13.8125 5.515625 26.8125 
Q 5.515625 40.234375 12.765625 48.109375 
Q 20.015625 56 32.328125 56 
Q 43.359375 56 49.78125 48.890625 
Q 56.203125 41.796875 56.203125 29.59375 
z
M 47.21875 32.234375 
Q 47.125 39.59375 43.09375 43.984375 
Q 39.0625 48.390625 32.421875 48.390625 
Q 24.90625 48.390625 20.390625 44.140625 
Q 15.875 39.890625 15.1875 32.171875 
z
" id="DejaVuSans-65"/>
      <path d="M 2.984375 54.6875 
L 12.5 54.6875 
L 29.59375 8.796875 
L 46.6875 54.6875 
L 56.203125 54.6875 
L 35.6875 0 
L 23.484375 0 
z
" id="DejaVuSans-76"/>
      <path d="M 34.28125 27.484375 
Q 23.390625 27.484375 19.1875 25 
Q 14.984375 22.515625 14.984375 16.5 
Q 14.984375 11.71875 18.140625 8.90625 
Q 21.296875 6.109375 26.703125 6.109375 
Q 34.1875 6.109375 38.703125 11.40625 
Q 43.21875 16.703125 43.21875 25.484375 
L 43.21875 27.484375 
z
M 52.203125 31.203125 
L 52.203125 0 
L 43.21875 0 
L 43.21875 8.296875 
Q 40.140625 3.328125 35.546875 0.953125 
Q 30.953125 -1.421875 24.3125 -1.421875 
Q 15.921875 -1.421875 10.953125 3.296875 
Q 6 8.015625 6 15.921875 
Q 6 25.140625 12.171875 29.828125 
Q 18.359375 34.515625 30.609375 34.515625 
L 43.21875 34.515625 
L 43.21875 35.40625 
Q 43.21875 41.609375 39.140625 45 
Q 35.0625 48.390625 27.6875 48.390625 
Q 23 48.390625 18.546875 47.265625 
Q 14.109375 46.140625 10.015625 43.890625 
L 10.015625 52.203125 
Q 14.9375 54.109375 19.578125 55.046875 
Q 24.21875 56 28.609375 56 
Q 40.484375 56 46.34375 49.84375 
Q 52.203125 43.703125 52.203125 31.203125 
z
" id="DejaVuSans-61"/>
      <path d="M 44.28125 53.078125 
L 44.28125 44.578125 
Q 40.484375 46.53125 36.375 47.5 
Q 32.28125 48.484375 27.875 48.484375 
Q 21.1875 48.484375 17.84375 46.4375 
Q 14.5 44.390625 14.5 40.28125 
Q 14.5 37.15625 16.890625 35.375 
Q 19.28125 33.59375 26.515625 31.984375 
L 29.59375 31.296875 
Q 39.15625 29.25 43.1875 25.515625 
Q 47.21875 21.78125 47.21875 15.09375 
Q 47.21875 7.46875 41.1875 3.015625 
Q 35.15625 -1.421875 24.609375 -1.421875 
Q 20.21875 -1.421875 15.453125 -0.5625 
Q 10.6875 0.296875 5.421875 2 
L 5.421875 11.28125 
Q 10.40625 8.6875 15.234375 7.390625 
Q 20.0625 6.109375 24.8125 6.109375 
Q 31.15625 6.109375 34.5625 8.28125 
Q 37.984375 10.453125 37.984375 14.40625 
Q 37.984375 18.0625 35.515625 20.015625 
Q 33.0625 21.96875 24.703125 23.78125 
L 21.578125 24.515625 
Q 13.234375 26.265625 9.515625 29.90625 
Q 5.8125 33.546875 5.8125 39.890625 
Q 5.8125 47.609375 11.28125 51.796875 
Q 16.75 56 26.8125 56 
Q 31.78125 56 36.171875 55.265625 
Q 40.578125 54.546875 44.28125 53.078125 
z
" id="DejaVuSans-73"/>
      <path d="M 25.390625 72.90625 
L 33.6875 72.90625 
L 8.296875 -9.28125 
L 0 -9.28125 
z
" id="DejaVuSans-2f"/>
      <path d="M 45.40625 46.390625 
L 45.40625 75.984375 
L 54.390625 75.984375 
L 54.390625 0 
L 45.40625 0 
L 45.40625 8.203125 
Q 42.578125 3.328125 38.25 0.953125 
Q 33.9375 -1.421875 27.875 -1.421875 
Q 17.96875 -1.421875 11.734375 6.484375 
Q 5.515625 14.40625 5.515625 27.296875 
Q 5.515625 40.1875 11.734375 48.09375 
Q 17.96875 56 27.875 56 
Q 33.9375 56 38.25 53.625 
Q 42.578125 51.265625 45.40625 46.390625 
z
M 14.796875 27.296875 
Q 14.796875 17.390625 18.875 11.75 
Q 22.953125 6.109375 30.078125 6.109375 
Q 37.203125 6.109375 41.296875 11.75 
Q 45.40625 17.390625 45.40625 27.296875 
Q 45.40625 37.203125 41.296875 42.84375 
Q 37.203125 48.484375 30.078125 48.484375 
Q 22.953125 48.484375 18.875 42.84375 
Q 14.796875 37.203125 14.796875 27.296875 
z
" id="DejaVuSans-64"/>
      <path d="M 9.421875 54.6875 
L 18.40625 54.6875 
L 18.40625 0 
L 9.421875 0 
z
M 9.421875 75.984375 
L 18.40625 75.984375 
L 18.40625 64.59375 
L 9.421875 64.59375 
z
" id="DejaVuSans-69"/>
      <path d="M 52 44.1875 
Q 55.375 50.25 60.0625 53.125 
Q 64.75 56 71.09375 56 
Q 79.640625 56 84.28125 50.015625 
Q 88.921875 44.046875 88.921875 33.015625 
L 88.921875 0 
L 79.890625 0 
L 79.890625 32.71875 
Q 79.890625 40.578125 77.09375 44.375 
Q 74.3125 48.1875 68.609375 48.1875 
Q 61.625 48.1875 57.5625 43.546875 
Q 53.515625 38.921875 53.515625 30.90625 
L 53.515625 0 
L 44.484375 0 
L 44.484375 32.71875 
Q 44.484375 40.625 41.703125 44.40625 
Q 38.921875 48.1875 33.109375 48.1875 
Q 26.21875 48.1875 22.15625 43.53125 
Q 18.109375 38.875 18.109375 30.90625 
L 18.109375 0 
L 9.078125 0 
L 9.078125 54.6875 
L 18.109375 54.6875 
L 18.109375 46.1875 
Q 21.1875 51.21875 25.484375 53.609375 
Q 29.78125 56 35.6875 56 
Q 41.65625 56 45.828125 52.96875 
Q 50 49.953125 52 44.1875 
z
" id="DejaVuSans-6d"/>
      <path d="M 54.890625 33.015625 
L 54.890625 0 
L 45.90625 0 
L 45.90625 32.71875 
Q 45.90625 40.484375 42.875 44.328125 
Q 39.84375 48.1875 33.796875 48.1875 
Q 26.515625 48.1875 22.3125 43.546875 
Q 18.109375 38.921875 18.109375 30.90625 
L 18.109375 0 
L 9.078125 0 
L 9.078125 54.6875 
L 18.109375 54.6875 
L 18.109375 46.1875 
Q 21.34375 51.125 25.703125 53.5625 
Q 30.078125 56 35.796875 56 
Q 45.21875 56 50.046875 50.171875 
Q 54.890625 44.34375 54.890625 33.015625 
z
" id="DejaVuSans-6e"/>
      <path d="M 8.015625 75.875 
L 15.828125 75.875 
Q 23.140625 64.359375 26.78125 53.3125 
Q 30.421875 42.28125 30.421875 31.390625 
Q 30.421875 20.453125 26.78125 9.375 
Q 23.140625 -1.703125 15.828125 -13.1875 
L 8.015625 -13.1875 
Q 14.5 -2 17.703125 9.0625 
Q 20.90625 20.125 20.90625 31.390625 
Q 20.90625 42.671875 17.703125 53.65625 
Q 14.5 64.65625 8.015625 75.875 
z
" id="DejaVuSans-29"/>
     </defs>
     <g transform="translate(107.481219 337.433594)scale(0.17 -0.17)">
      <use xlink:href="#DejaVuSans-6c"/>
      <use x="27.783203" xlink:href="#DejaVuSans-6f"/>
      <use x="88.964844" xlink:href="#DejaVuSans-67"/>
      <use x="152.441406" xlink:href="#DejaVuSans-31"/>
      <use x="216.064453" xlink:href="#DejaVuSans-30"/>
      <use x="279.6875" xlink:href="#DejaVuSans-28"/>
      <use x="318.701172" xlink:href="#DejaVuSans-23"/>
      <use x="402.490234" xlink:href="#DejaVuSans-20"/>
      <use x="434.277344" xlink:href="#DejaVuSans-66"/>
      <use x="469.404297" xlink:href="#DejaVuSans-2d"/>
      <use x="505.488281" xlink:href="#DejaVuSans-65"/>
      <use x="567.011719" xlink:href="#DejaVuSans-76"/>
      <use x="626.191406" xlink:href="#DejaVuSans-61"/>
      <use x="687.470703" xlink:href="#DejaVuSans-6c"/>
      <use x="715.253906" xlink:href="#DejaVuSans-73"/>
      <use x="767.353516" xlink:href="#DejaVuSans-20"/>
      <use x="799.140625" xlink:href="#DejaVuSans-2f"/>
      <use x="832.832031" xlink:href="#DejaVuSans-20"/>
      <use x="864.619141" xlink:href="#DejaVuSans-64"/>
      <use x="928.095703" xlink:href="#DejaVuSans-69"/>
      <use x="955.878906" xlink:href="#DejaVuSans-6d"/>
      <use x="1053.291016" xlink:href="#DejaVuSans-65"/>
      <use x="1114.814453" xlink:href="#DejaVuSans-6e"/>
      <use x="1178.193359" xlink:href="#DejaVuSans-73"/>
      <use x="1230.292969" xlink:href="#DejaVuSans-69"/>
      <use x="1258.076172" xlink:href="#DejaVuSans-6f"/>
      <use x="1319.257812" xlink:href="#DejaVuSans-6e"/>
      <use x="1382.636719" xlink:href="#DejaVuSans-29"/>
     </g>
    </g>
   </g>
   <g id="matplotlib.axis_2">
    <g id="ytick_1">
     <g id="line2d_14">
      <path clip-path="url(#p01670c73e7)" d="M 56.66 294.16 
L 399.984 294.16 
" style="fill:none;stroke:#b0b0b0;stroke-linecap:square;stroke-width:0.8;"/>
     </g>
     <g id="line2d_15">
      <defs>
       <path d="M 0 0 
L -3.5 0 
" id="mf24c751a47" style="stroke:#000000;stroke-width:0.8;"/>
      </defs>
      <g>
       <use style="stroke:#000000;stroke-width:0.8;" x="56.66" xlink:href="#mf24c751a47" y="294.16"/>
      </g>
     </g>
     <g id="text_7">
      <!-- 0.0 -->
      <defs>
       <path d="M 10.6875 12.40625 
L 21 12.40625 
L 21 0 
L 10.6875 0 
z
" id="DejaVuSans-2e"/>
      </defs>
      <g transform="translate(24.215 300.23875)scale(0.16 -0.16)">
       <use xlink:href="#DejaVuSans-30"/>
       <use x="63.623047" xlink:href="#DejaVuSans-2e"/>
       <use x="95.410156" xlink:href="#DejaVuSans-30"/>
      </g>
     </g>
    </g>
    <g id="ytick_2">
     <g id="line2d_16">
      <path clip-path="url(#p01670c73e7)" d="M 56.66 240.829307 
L 399.984 240.829307 
" style="fill:none;stroke:#b0b0b0;stroke-linecap:square;stroke-width:0.8;"/>
     </g>
     <g id="line2d_17">
      <g>
       <use style="stroke:#000000;stroke-width:0.8;" x="56.66" xlink:href="#mf24c751a47" y="240.829307"/>
      </g>
     </g>
     <g id="text_8">
      <!-- 0.2 -->
      <g transform="translate(24.215 246.908057)scale(0.16 -0.16)">
       <use xlink:href="#DejaVuSans-30"/>
       <use x="63.623047" xlink:href="#DejaVuSans-2e"/>
       <use x="95.410156" xlink:href="#DejaVuSans-32"/>
      </g>
     </g>
    </g>
    <g id="ytick_3">
     <g id="line2d_18">
      <path clip-path="url(#p01670c73e7)" d="M 56.66 187.498614 
L 399.984 187.498614 
" style="fill:none;stroke:#b0b0b0;stroke-linecap:square;stroke-width:0.8;"/>
     </g>
     <g id="line2d_19">
      <g>
       <use style="stroke:#000000;stroke-width:0.8;" x="56.66" xlink:href="#mf24c751a47" y="187.498614"/>
      </g>
     </g>
     <g id="text_9">
      <!-- 0.4 -->
      <g transform="translate(24.215 193.577364)scale(0.16 -0.16)">
       <use xlink:href="#DejaVuSans-30"/>
       <use x="63.623047" xlink:href="#DejaVuSans-2e"/>
       <use x="95.410156" xlink:href="#DejaVuSans-34"/>
      </g>
     </g>
    </g>
    <g id="ytick_4">
     <g id="line2d_20">
      <path clip-path="url(#p01670c73e7)" d="M 56.66 134.167921 
L 399.984 134.167921 
" style="fill:none;stroke:#b0b0b0;stroke-linecap:square;stroke-width:0.8;"/>
     </g>
     <g id="line2d_21">
      <g>
       <use style="stroke:#000000;stroke-width:0.8;" x="56.66" xlink:href="#mf24c751a47" y="134.167921"/>
      </g>
     </g>
     <g id="text_10">
      <!-- 0.6 -->
      <g transform="translate(24.215 140.246671)scale(0.16 -0.16)">
       <use xlink:href="#DejaVuSans-30"/>
       <use x="63.623047" xlink:href="#DejaVuSans-2e"/>
       <use x="95.410156" xlink:href="#DejaVuSans-36"/>
      </g>
     </g>
    </g>
    <g id="ytick_5">
     <g id="line2d_22">
      <path clip-path="url(#p01670c73e7)" d="M 56.66 80.837228 
L 399.984 80.837228 
" style="fill:none;stroke:#b0b0b0;stroke-linecap:square;stroke-width:0.8;"/>
     </g>
     <g id="line2d_23">
      <g>
       <use style="stroke:#000000;stroke-width:0.8;" x="56.66" xlink:href="#mf24c751a47" y="80.837228"/>
      </g>
     </g>
     <g id="text_11">
      <!-- 0.8 -->
      <g transform="translate(24.215 86.915978)scale(0.16 -0.16)">
       <use xlink:href="#DejaVuSans-30"/>
       <use x="63.623047" xlink:href="#DejaVuSans-2e"/>
       <use x="95.410156" xlink:href="#DejaVuSans-38"/>
      </g>
     </g>
    </g>
    <g id="ytick_6">
     <g id="line2d_24">
      <path clip-path="url(#p01670c73e7)" d="M 56.66 27.506535 
L 399.984 27.506535 
" style="fill:none;stroke:#b0b0b0;stroke-linecap:square;stroke-width:0.8;"/>
     </g>
     <g id="line2d_25">
      <g>
       <use style="stroke:#000000;stroke-width:0.8;" x="56.66" xlink:href="#mf24c751a47" y="27.506535"/>
      </g>
     </g>
     <g id="text_12">
      <!-- 1.0 -->
      <g transform="translate(24.215 33.585285)scale(0.16 -0.16)">
       <use xlink:href="#DejaVuSans-31"/>
       <use x="63.623047" xlink:href="#DejaVuSans-2e"/>
       <use x="95.410156" xlink:href="#DejaVuSans-30"/>
      </g>
     </g>
    </g>
    <g id="text_13">
     <!-- Fraction of function,target pairs -->
     <defs>
      <path d="M 9.8125 72.90625 
L 51.703125 72.90625 
L 51.703125 64.59375 
L 19.671875 64.59375 
L 19.671875 43.109375 
L 48.578125 43.109375 
L 48.578125 34.8125 
L 19.671875 34.8125 
L 19.671875 0 
L 9.8125 0 
z
" id="DejaVuSans-46"/>
      <path d="M 41.109375 46.296875 
Q 39.59375 47.171875 37.8125 47.578125 
Q 36.03125 48 33.890625 48 
Q 26.265625 48 22.1875 43.046875 
Q 18.109375 38.09375 18.109375 28.8125 
L 18.109375 0 
L 9.078125 0 
L 9.078125 54.6875 
L 18.109375 54.6875 
L 18.109375 46.1875 
Q 20.953125 51.171875 25.484375 53.578125 
Q 30.03125 56 36.53125 56 
Q 37.453125 56 38.578125 55.875 
Q 39.703125 55.765625 41.0625 55.515625 
z
" id="DejaVuSans-72"/>
      <path d="M 48.78125 52.59375 
L 48.78125 44.1875 
Q 44.96875 46.296875 41.140625 47.34375 
Q 37.3125 48.390625 33.40625 48.390625 
Q 24.65625 48.390625 19.8125 42.84375 
Q 14.984375 37.3125 14.984375 27.296875 
Q 14.984375 17.28125 19.8125 11.734375 
Q 24.65625 6.203125 33.40625 6.203125 
Q 37.3125 6.203125 41.140625 7.25 
Q 44.96875 8.296875 48.78125 10.40625 
L 48.78125 2.09375 
Q 45.015625 0.34375 40.984375 -0.53125 
Q 36.96875 -1.421875 32.421875 -1.421875 
Q 20.0625 -1.421875 12.78125 6.34375 
Q 5.515625 14.109375 5.515625 27.296875 
Q 5.515625 40.671875 12.859375 48.328125 
Q 20.21875 56 33.015625 56 
Q 37.15625 56 41.109375 55.140625 
Q 45.0625 54.296875 48.78125 52.59375 
z
" id="DejaVuSans-63"/>
      <path d="M 18.3125 70.21875 
L 18.3125 54.6875 
L 36.8125 54.6875 
L 36.8125 47.703125 
L 18.3125 47.703125 
L 18.3125 18.015625 
Q 18.3125 11.328125 20.140625 9.421875 
Q 21.96875 7.515625 27.59375 7.515625 
L 36.8125 7.515625 
L 36.8125 0 
L 27.59375 0 
Q 17.1875 0 13.234375 3.875 
Q 9.28125 7.765625 9.28125 18.015625 
L 9.28125 47.703125 
L 2.6875 47.703125 
L 2.6875 54.6875 
L 9.28125 54.6875 
L 9.28125 70.21875 
z
" id="DejaVuSans-74"/>
      <path d="M 8.5 21.578125 
L 8.5 54.6875 
L 17.484375 54.6875 
L 17.484375 21.921875 
Q 17.484375 14.15625 20.5 10.265625 
Q 23.53125 6.390625 29.59375 6.390625 
Q 36.859375 6.390625 41.078125 11.03125 
Q 45.3125 15.671875 45.3125 23.6875 
L 45.3125 54.6875 
L 54.296875 54.6875 
L 54.296875 0 
L 45.3125 0 
L 45.3125 8.40625 
Q 42.046875 3.421875 37.71875 1 
Q 33.40625 -1.421875 27.6875 -1.421875 
Q 18.265625 -1.421875 13.375 4.4375 
Q 8.5 10.296875 8.5 21.578125 
z
M 31.109375 56 
z
" id="DejaVuSans-75"/>
      <path d="M 11.71875 12.40625 
L 22.015625 12.40625 
L 22.015625 4 
L 14.015625 -11.625 
L 7.71875 -11.625 
L 11.71875 4 
z
" id="DejaVuSans-2c"/>
      <path d="M 18.109375 8.203125 
L 18.109375 -20.796875 
L 9.078125 -20.796875 
L 9.078125 54.6875 
L 18.109375 54.6875 
L 18.109375 46.390625 
Q 20.953125 51.265625 25.265625 53.625 
Q 29.59375 56 35.59375 56 
Q 45.5625 56 51.78125 48.09375 
Q 58.015625 40.1875 58.015625 27.296875 
Q 58.015625 14.40625 51.78125 6.484375 
Q 45.5625 -1.421875 35.59375 -1.421875 
Q 29.59375 -1.421875 25.265625 0.953125 
Q 20.953125 3.328125 18.109375 8.203125 
z
M 48.6875 27.296875 
Q 48.6875 37.203125 44.609375 42.84375 
Q 40.53125 48.484375 33.40625 48.484375 
Q 26.265625 48.484375 22.1875 42.84375 
Q 18.109375 37.203125 18.109375 27.296875 
Q 18.109375 17.390625 22.1875 11.75 
Q 26.265625 6.109375 33.40625 6.109375 
Q 40.53125 6.109375 44.609375 11.75 
Q 48.6875 17.390625 48.6875 27.296875 
z
" id="DejaVuSans-70"/>
     </defs>
     <g transform="translate(16.679531 294.639375)rotate(-90)scale(0.17 -0.17)">
      <use xlink:href="#DejaVuSans-46"/>
      <use x="57.410156" xlink:href="#DejaVuSans-72"/>
      <use x="98.523438" xlink:href="#DejaVuSans-61"/>
      <use x="159.802734" xlink:href="#DejaVuSans-63"/>
      <use x="214.783203" xlink:href="#DejaVuSans-74"/>
      <use x="253.992188" xlink:href="#DejaVuSans-69"/>
      <use x="281.775391" xlink:href="#DejaVuSans-6f"/>
      <use x="342.957031" xlink:href="#DejaVuSans-6e"/>
      <use x="406.335938" xlink:href="#DejaVuSans-20"/>
      <use x="438.123047" xlink:href="#DejaVuSans-6f"/>
      <use x="499.304688" xlink:href="#DejaVuSans-66"/>
      <use x="534.509766" xlink:href="#DejaVuSans-20"/>
      <use x="566.296875" xlink:href="#DejaVuSans-66"/>
      <use x="601.501953" xlink:href="#DejaVuSans-75"/>
      <use x="664.880859" xlink:href="#DejaVuSans-6e"/>
      <use x="728.259766" xlink:href="#DejaVuSans-63"/>
      <use x="783.240234" xlink:href="#DejaVuSans-74"/>
      <use x="822.449219" xlink:href="#DejaVuSans-69"/>
      <use x="850.232422" xlink:href="#DejaVuSans-6f"/>
      <use x="911.414062" xlink:href="#DejaVuSans-6e"/>
      <use x="974.792969" xlink:href="#DejaVuSans-2c"/>
      <use x="1006.580078" xlink:href="#DejaVuSans-74"/>
      <use x="1045.789062" xlink:href="#DejaVuSans-61"/>
      <use x="1107.068359" xlink:href="#DejaVuSans-72"/>
      <use x="1148.166016" xlink:href="#DejaVuSans-67"/>
      <use x="1211.642578" xlink:href="#DejaVuSans-65"/>
      <use x="1273.166016" xlink:href="#DejaVuSans-74"/>
      <use x="1312.375" xlink:href="#DejaVuSans-20"/>
      <use x="1344.162109" xlink:href="#DejaVuSans-70"/>
      <use x="1407.638672" xlink:href="#DejaVuSans-61"/>
      <use x="1468.917969" xlink:href="#DejaVuSans-69"/>
      <use x="1496.701172" xlink:href="#DejaVuSans-72"/>
      <use x="1537.814453" xlink:href="#DejaVuSans-73"/>
     </g>
    </g>
   </g>
   <g id="line2d_26">
    <defs>
     <path d="M 0 1.5 
C 0.397805 1.5 0.77937 1.341951 1.06066 1.06066 
C 1.341951 0.77937 1.5 0.397805 1.5 0 
C 1.5 -0.397805 1.341951 -0.77937 1.06066 -1.06066 
C 0.77937 -1.341951 0.397805 -1.5 0 -1.5 
C -0.397805 -1.5 -0.77937 -1.341951 -1.06066 -1.06066 
C -1.341951 -0.77937 -1.5 -0.397805 -1.5 0 
C -1.5 0.397805 -1.341951 0.77937 -1.06066 1.06066 
C -0.77937 1.341951 -0.397805 1.5 0 1.5 
z
" id="mef833e1952" style="stroke:#f5deb3;"/>
    </defs>
    <g>
     <use style="fill:#f5deb3;stroke:#f5deb3;" x="233.043715" xlink:href="#mef833e1952" y="27.506535"/>
     <use style="fill:#f5deb3;stroke:#f5deb3;" x="233.043715" xlink:href="#mef833e1952" y="27.506535"/>
    </g>
   </g>
   <g id="line2d_27">
    <g>
     <use style="fill:#f5deb3;stroke:#f5deb3;stroke-linejoin:miter;stroke-width:1.5;" x="212.470492" xlink:href="#mb8ad00fd2f" y="262.789004"/>
     <use style="fill:#f5deb3;stroke:#f5deb3;stroke-linejoin:miter;stroke-width:1.5;" x="232.002061" xlink:href="#mb8ad00fd2f" y="147.762019"/>
     <use style="fill:#f5deb3;stroke:#f5deb3;stroke-linejoin:miter;stroke-width:1.5;" x="233.043715" xlink:href="#mb8ad00fd2f" y="32.735034"/>
     <use style="fill:#f5deb3;stroke:#f5deb3;stroke-linejoin:miter;stroke-width:1.5;" x="233.043715" xlink:href="#mb8ad00fd2f" y="27.506535"/>
     <use style="fill:#f5deb3;stroke:#f5deb3;stroke-linejoin:miter;stroke-width:1.5;" x="333.534194" xlink:href="#mb8ad00fd2f" y="27.506535"/>
    </g>
   </g>
   <g id="line2d_28">
    <defs>
     <path d="M 0 1.5 
C 0.397805 1.5 0.77937 1.341951 1.06066 1.06066 
C 1.341951 0.77937 1.5 0.397805 1.5 0 
C 1.5 -0.397805 1.341951 -0.77937 1.06066 -1.06066 
C 0.77937 -1.341951 0.397805 -1.5 0 -1.5 
C -0.397805 -1.5 -0.77937 -1.341951 -1.06066 -1.06066 
C -1.341951 -0.77937 -1.5 -0.397805 -1.5 0 
C -1.5 0.397805 -1.341951 0.77937 -1.06066 1.06066 
C -0.77937 1.341951 -0.397805 1.5 0 1.5 
z
" id="m46d03711b9" style="stroke:#e6e6e6;"/>
    </defs>
    <g>
     <use style="fill:#e6e6e6;stroke:#e6e6e6;" x="291.908024" xlink:href="#m46d03711b9" y="288.931501"/>
     <use style="fill:#e6e6e6;stroke:#e6e6e6;" x="291.908024" xlink:href="#m46d03711b9" y="288.931501"/>
    </g>
   </g>
   <g id="line2d_29">
    <path d="M 224.988238 294.16 
L 224.988238 293.63715 
L 243.929938 293.63715 
L 243.929938 293.1143 
L 256.639986 293.1143 
L 256.639986 291.54575 
L 256.975274 291.54575 
L 256.975274 291.0229 
L 264.454908 291.0229 
L 264.454908 290.50005 
L 270.928787 290.50005 
L 270.928787 289.977201 
L 283.844202 289.977201 
L 283.844202 289.454351 
L 291.908024 289.454351 
L 291.908024 288.931501 
L 333.534194 288.931501 
" style="fill:none;stroke:#e6e6e6;stroke-linecap:square;stroke-width:1.5;"/>
   </g>
   <g id="line2d_30"/>
   <g id="line2d_31">
    <path d="M 0 0 
" style="fill:none;stroke:#e6e6e6;stroke-linecap:square;stroke-width:1.5;"/>
   </g>
   <g id="line2d_32">
    <path clip-path="url(#p01670c73e7)" d="M 258.260407 291.0229 
" style="fill:none;stroke:#e6e6e6;stroke-linecap:square;stroke-width:1.5;"/>
    <defs>
     <path d="M -12 12 
L 12 -12 
M -12 -12 
L 12 12 
" id="mad0e207e32" style="stroke:#e6e6e6;stroke-width:3;"/>
    </defs>
    <g clip-path="url(#p01670c73e7)">
     <use style="fill:#e6e6e6;stroke:#e6e6e6;stroke-width:3;" x="258.260407" xlink:href="#mad0e207e32" y="291.0229"/>
    </g>
   </g>
   <g id="line2d_33">
    <g>
     <use style="fill:#e6e6e6;stroke:#e6e6e6;" x="255.892244" xlink:href="#m46d03711b9" y="27.506535"/>
     <use style="fill:#e6e6e6;stroke:#e6e6e6;" x="255.892244" xlink:href="#m46d03711b9" y="27.506535"/>
    </g>
   </g>
   <g id="line2d_34">
    <path d="M 181.026152 294.16 
L 181.026152 293.63715 
L 183.474352 293.63715 
L 183.474352 293.1143 
L 184.273746 293.1143 
L 184.273746 292.59145 
L 184.611097 292.59145 
L 184.611097 292.0686 
L 184.739638 292.0686 
L 184.739638 291.0229 
L 185.422527 291.0229 
L 185.52312 289.454351 
L 185.863078 289.454351 
L 185.863078 288.931501 
L 186.065293 288.931501 
L 186.065293 288.408651 
L 186.463618 288.408651 
L 186.463618 287.885801 
L 186.664474 287.885801 
L 186.664474 286.840101 
L 187.20566 286.840101 
L 187.20566 286.317251 
L 187.37999 286.317251 
L 187.37999 285.794401 
L 187.507 285.794401 
L 187.518826 283.703001 
L 187.826592 283.703001 
L 187.826592 283.180151 
L 188.147471 283.180151 
L 188.156424 282.134452 
L 188.499593 282.134452 
L 188.521513 280.565902 
L 188.76963 280.565902 
L 188.78611 277.428802 
L 189.011119 277.428802 
L 189.053838 275.860252 
L 189.123969 275.860252 
L 189.209511 274.291703 
L 189.268336 274.291703 
L 189.268336 273.768853 
L 189.712515 273.768853 
L 189.712515 273.246003 
L 190.09324 273.246003 
L 190.180429 272.200303 
L 190.335043 272.200303 
L 190.335043 271.677453 
L 190.546254 271.677453 
L 190.546254 271.154603 
L 191.432574 271.154603 
L 191.437616 269.586053 
L 191.733173 269.586053 
L 191.822468 268.017503 
L 192.171695 268.017503 
L 192.193419 266.971804 
L 192.538097 266.971804 
L 192.627548 265.926104 
L 193.393281 265.926104 
L 193.393281 264.357554 
L 193.632302 264.357554 
L 193.632302 263.834704 
L 193.918441 263.834704 
L 193.918441 263.311854 
L 195.675925 263.311854 
L 195.675925 262.789004 
L 196.642195 262.789004 
L 196.642195 262.266154 
L 225.087907 262.266154 
L 225.193667 261.220454 
L 225.284028 261.220454 
L 225.348495 259.651904 
L 225.43338 259.651904 
L 225.43338 259.129055 
L 225.648591 259.129055 
L 225.680853 257.560505 
L 225.814842 257.560505 
L 225.90494 255.991955 
L 225.953631 255.991955 
L 226.015975 252.854855 
L 226.142661 252.854855 
L 226.142661 252.332005 
L 226.304817 252.332005 
L 226.391684 250.763456 
L 226.418416 250.763456 
L 226.469458 249.717756 
L 226.540677 249.717756 
L 226.615288 248.672056 
L 226.825227 248.672056 
L 226.928061 246.580656 
L 226.989922 246.580656 
L 227.08064 244.489256 
L 227.12321 244.489256 
L 227.23405 241.875007 
L 227.259816 241.875007 
L 227.37059 239.783607 
L 227.409302 239.783607 
L 227.47886 237.169357 
L 227.581145 237.169357 
L 227.668047 233.509408 
L 227.743756 233.509408 
L 227.850373 229.849458 
L 227.85707 229.849458 
L 227.952722 227.758059 
L 227.988605 227.758059 
L 228.058532 221.483859 
L 228.104615 221.483859 
L 228.177596 217.30106 
L 228.257245 217.30106 
L 228.299123 216.25536 
L 228.375903 216.25536 
L 228.449146 212.595411 
L 228.566549 212.595411 
L 228.66704 209.981161 
L 228.699101 209.981161 
L 228.770828 207.366911 
L 228.81281 207.366911 
L 228.901534 204.752662 
L 228.949123 204.752662 
L 229.023717 200.569862 
L 229.060386 200.569862 
L 229.165757 197.432763 
L 229.180608 197.432763 
L 229.250246 193.772813 
L 229.323065 193.772813 
L 229.414542 190.112864 
L 229.436834 190.112864 
L 229.505608 186.452914 
L 229.584032 186.452914 
L 229.662771 184.361514 
L 229.719432 184.361514 
L 229.749608 182.792964 
L 229.887227 182.792964 
L 229.97622 181.747265 
L 230.090522 181.747265 
L 230.169217 177.564465 
L 230.227011 177.564465 
L 230.324313 173.904516 
L 230.374395 173.904516 
L 230.374395 173.381666 
L 230.515499 173.381666 
L 230.615428 171.290266 
L 230.644448 171.290266 
L 230.741365 167.107467 
L 230.806018 167.107467 
L 230.909224 163.447517 
L 230.93374 163.447517 
L 231.022284 160.833267 
L 231.057289 160.833267 
L 231.168085 156.650468 
L 231.185839 156.650468 
L 231.296141 154.036218 
L 231.326919 154.036218 
L 231.349563 152.990518 
L 231.453441 152.990518 
L 231.453441 152.467668 
L 231.637043 152.467668 
L 231.715085 150.899119 
L 232.060143 150.899119 
L 232.07916 149.853419 
L 232.213964 149.853419 
L 232.213964 149.330569 
L 232.373367 149.330569 
L 232.39983 148.284869 
L 232.487479 148.284869 
L 232.560348 147.239169 
L 232.622612 147.239169 
L 232.622612 146.716319 
L 233.013252 146.716319 
L 233.049932 145.670619 
L 233.171318 145.670619 
L 233.2172 144.10207 
L 235.915295 144.10207 
L 235.915295 143.57922 
L 236.068529 143.57922 
L 236.068529 142.53352 
L 236.209634 142.53352 
L 236.306135 138.87357 
L 236.335646 138.87357 
L 236.42662 137.30502 
L 236.588522 137.30502 
L 236.692959 136.259321 
L 237.244112 136.259321 
L 237.350024 135.213621 
L 237.421515 135.213621 
L 237.448665 133.645071 
L 237.538227 133.645071 
L 237.619306 132.599371 
L 237.653524 132.599371 
L 237.731315 131.030821 
L 237.819115 131.030821 
L 237.819115 130.507971 
L 238.046686 130.507971 
L 238.157712 128.939421 
L 240.085323 128.939421 
L 240.085323 128.416572 
L 240.825895 128.416572 
L 240.890924 126.325172 
L 240.978798 126.325172 
L 241.069805 124.756622 
L 241.097596 124.756622 
L 241.181107 123.188072 
L 241.268178 123.188072 
L 241.353891 122.142372 
L 241.647377 122.142372 
L 241.676866 120.573823 
L 241.75933 120.573823 
L 241.864794 117.436723 
L 241.944879 117.436723 
L 242.031098 114.299623 
L 242.062918 114.299623 
L 242.062918 113.776773 
L 242.223069 113.776773 
L 242.328521 110.116824 
L 242.437386 110.116824 
L 242.489445 108.548274 
L 242.569597 108.548274 
L 242.668139 105.411175 
L 242.70876 105.411175 
L 242.767744 104.365475 
L 242.828795 104.365475 
L 242.887125 101.228375 
L 242.971095 101.228375 
L 243.066951 98.091275 
L 243.121178 98.091275 
L 243.179872 97.045576 
L 243.241011 97.045576 
L 243.351439 94.431326 
L 243.396878 94.431326 
L 243.50684 91.294226 
L 243.528276 91.294226 
L 243.626799 87.111427 
L 243.657238 87.111427 
L 243.722711 83.451477 
L 243.772251 83.451477 
L 243.844009 79.268678 
L 243.903189 79.268678 
L 243.939018 78.222978 
L 244.038169 78.222978 
L 244.145856 74.563029 
L 244.166338 74.563029 
L 244.238974 70.903079 
L 245.00334 70.903079 
L 245.00334 70.380229 
L 245.144234 70.380229 
L 245.214804 68.811679 
L 245.281714 68.811679 
L 245.281714 68.288829 
L 245.463681 68.288829 
L 245.463681 67.765979 
L 245.682138 67.765979 
L 245.723473 66.19743 
L 245.810483 66.19743 
L 245.810483 65.67458 
L 246.050343 65.67458 
L 246.159298 63.58318 
L 246.24448 63.58318 
L 246.293864 62.53748 
L 246.541874 62.53748 
L 246.541874 62.01463 
L 246.987187 62.01463 
L 246.987187 61.49178 
L 247.121321 61.49178 
L 247.121321 60.96893 
L 247.325208 60.96893 
L 247.325208 60.44608 
L 254.025642 60.44608 
L 254.115324 57.308981 
L 254.333639 57.308981 
L 254.405546 55.217581 
L 254.509097 55.217581 
L 254.509097 54.694731 
L 254.69372 54.694731 
L 254.784428 51.557632 
L 254.814509 51.557632 
L 254.923147 44.760582 
L 254.949995 44.760582 
L 255.057782 39.009233 
L 255.078328 39.009233 
L 255.175426 36.394983 
L 255.312737 36.394983 
L 255.397491 34.303584 
L 255.425554 34.303584 
L 255.535408 32.212184 
L 255.563588 32.212184 
L 255.665379 30.120784 
L 255.745266 30.120784 
L 255.794188 29.075084 
L 255.868342 29.075084 
L 255.892244 27.506535 
L 333.534194 27.506535 
L 333.534194 27.506535 
" style="fill:none;stroke:#e6e6e6;stroke-linecap:square;stroke-width:1.5;"/>
   </g>
   <g id="line2d_35"/>
   <g id="line2d_36">
    <path d="M 0 0 
" style="fill:none;stroke:#e6e6e6;stroke-linecap:square;stroke-width:1.5;"/>
   </g>
   <g id="line2d_37">
    <path clip-path="url(#p01670c73e7)" d="M 56.66 294.16 
L 56.66 294.16 
L 56.66 294.16 
L 56.66 294.16 
L 399.984 294.16 
" style="fill:none;stroke:#e6e6e6;stroke-linecap:square;stroke-width:1.5;"/>
   </g>
   <g id="line2d_38"/>
   <g id="line2d_39">
    <path clip-path="url(#p01670c73e7)" d="M 0 0 
" style="fill:none;stroke:#e6e6e6;stroke-linecap:square;stroke-width:1.5;"/>
   </g>
   <g id="line2d_40">
    <path clip-path="url(#p01670c73e7)" d="M 56.66 294.16 
L 56.66 294.16 
L 56.66 294.16 
L 56.66 294.16 
L 399.984 294.16 
" style="fill:none;stroke:#e6e6e6;stroke-linecap:square;stroke-width:1.5;"/>
   </g>
   <g id="line2d_41"/>
   <g id="line2d_42">
    <path clip-path="url(#p01670c73e7)" d="M 0 0 
" style="fill:none;stroke:#e6e6e6;stroke-linecap:square;stroke-width:1.5;"/>
   </g>
   <g id="line2d_43">
    <g>
     <use style="fill:#e6e6e6;stroke:#e6e6e6;" x="242.559848" xlink:href="#m46d03711b9" y="27.506535"/>
     <use style="fill:#e6e6e6;stroke:#e6e6e6;" x="242.559848" xlink:href="#m46d03711b9" y="27.506535"/>
    </g>
   </g>
   <g id="line2d_44">
    <path d="M 134.165724 294.16 
L 134.165724 293.63715 
L 136.378589 293.63715 
L 136.378589 293.1143 
L 137.215712 293.1143 
L 137.215712 291.54575 
L 137.919472 291.54575 
L 137.919472 290.50005 
L 139.382222 290.50005 
L 139.382222 289.454351 
L 139.675455 289.454351 
L 139.675455 288.931501 
L 142.877325 288.931501 
L 142.877325 287.885801 
L 143.556402 287.885801 
L 143.556402 287.362951 
L 166.58052 287.362951 
L 166.58052 286.840101 
L 167.090031 286.840101 
L 167.090031 285.794401 
L 167.75981 285.794401 
L 167.75981 285.271551 
L 168.005463 285.271551 
L 168.005463 284.748701 
L 168.187912 284.748701 
L 168.281974 283.703001 
L 168.553467 283.703001 
L 168.553467 282.657301 
L 169.21063 282.657301 
L 169.21063 281.611602 
L 169.588274 281.611602 
L 169.588274 281.088752 
L 178.385208 281.088752 
L 178.385208 280.565902 
L 180.246875 280.565902 
L 180.246875 280.043052 
L 180.451964 280.043052 
L 180.451964 279.520202 
L 180.765089 279.520202 
L 180.765089 278.997352 
L 181.755668 278.997352 
L 181.755668 278.474502 
L 182.531266 278.474502 
L 182.531266 277.951652 
L 182.798146 277.951652 
L 182.798146 276.905952 
L 183.072159 276.905952 
L 183.072159 275.337402 
L 186.325456 275.337402 
L 186.325456 274.814553 
L 194.613815 274.814553 
L 194.613815 274.291703 
L 195.111336 274.291703 
L 195.195798 272.723153 
L 195.409291 272.723153 
L 195.409291 272.200303 
L 196.194924 272.200303 
L 196.194924 270.631753 
L 196.366305 270.631753 
L 196.366305 269.586053 
L 196.560329 269.586053 
L 196.560329 269.063203 
L 196.908592 269.063203 
L 196.908592 268.540353 
L 197.763112 268.540353 
L 197.763112 268.017503 
L 199.070246 268.017503 
L 199.070246 267.494653 
L 199.621863 267.494653 
L 199.621863 266.448954 
L 208.493151 266.448954 
L 208.520276 264.357554 
L 208.965519 264.357554 
L 208.965519 263.834704 
L 209.377823 263.834704 
L 209.377823 262.789004 
L 210.087904 262.789004 
L 210.087904 262.266154 
L 210.790832 262.266154 
L 210.790832 260.697604 
L 211.404479 260.697604 
L 211.514546 258.606205 
L 211.699348 258.606205 
L 211.699348 257.560505 
L 211.839244 257.560505 
L 211.853535 256.514805 
L 212.014214 256.514805 
L 212.087656 255.469105 
L 212.183302 255.469105 
L 212.183302 254.946255 
L 212.840874 254.946255 
L 212.840874 254.423405 
L 216.470007 254.423405 
L 216.470007 253.900555 
L 222.329246 253.900555 
L 222.422592 251.809156 
L 222.45353 251.809156 
L 222.527814 249.717756 
L 222.599834 249.717756 
L 222.679325 248.149206 
L 222.716825 248.149206 
L 222.80858 245.012106 
L 222.873344 245.012106 
L 222.978127 242.397857 
L 223.001528 242.397857 
L 223.009954 241.352157 
L 223.118481 241.352157 
L 223.228676 237.169357 
L 223.253716 237.169357 
L 223.340452 233.509408 
L 223.402199 233.509408 
L 223.508881 227.758059 
L 223.524279 227.758059 
L 223.621952 223.575259 
L 223.663476 223.575259 
L 223.739153 218.86961 
L 223.789675 218.86961 
L 223.897236 214.16396 
L 223.902289 214.16396 
L 224.003269 211.549711 
L 224.025592 211.549711 
L 224.123948 206.321211 
L 224.151446 206.321211 
L 224.247965 202.661262 
L 224.278147 202.661262 
L 224.365015 197.955613 
L 224.406633 197.955613 
L 224.502297 192.204263 
L 224.518594 192.204263 
L 224.622795 184.361514 
L 224.636934 184.361514 
L 224.707772 182.270115 
L 224.763644 182.270115 
L 224.857826 175.995915 
L 224.875948 175.995915 
L 224.984448 169.721716 
L 225.017171 169.721716 
L 225.124384 165.538917 
L 225.145628 165.538917 
L 225.2508 162.401817 
L 225.281193 162.401817 
L 225.387055 157.696168 
L 225.398206 157.696168 
L 225.468018 154.559068 
L 225.511514 154.559068 
L 225.598612 151.944818 
L 225.64304 151.944818 
L 225.744147 148.807719 
L 225.781853 148.807719 
L 225.88708 147.239169 
L 225.978263 147.239169 
L 226.026747 145.147769 
L 226.111077 145.147769 
L 226.216954 142.01067 
L 226.275852 142.01067 
L 226.375731 138.87357 
L 226.42712 138.87357 
L 226.490523 134.690771 
L 226.552148 134.690771 
L 226.643644 133.122221 
L 226.668646 133.122221 
L 226.668646 132.599371 
L 226.854736 132.599371 
L 226.854736 132.076521 
L 227.006184 132.076521 
L 227.006184 131.030821 
L 231.282615 131.030821 
L 231.282615 129.985121 
L 234.555253 129.985121 
L 234.649832 126.848022 
L 234.771762 126.848022 
L 234.882693 124.756622 
L 234.916155 124.756622 
L 234.916155 124.233772 
L 235.03356 124.233772 
L 235.111831 122.665222 
L 235.147582 122.665222 
L 235.239108 120.050973 
L 235.26135 120.050973 
L 235.351256 117.436723 
L 235.427694 117.436723 
L 235.46295 115.345323 
L 235.594667 115.345323 
L 235.66216 112.731074 
L 235.705995 112.731074 
L 235.762019 110.639674 
L 235.854655 110.639674 
L 235.939917 105.934024 
L 236.01149 105.934024 
L 236.079204 102.274075 
L 236.126489 102.274075 
L 236.227 99.136975 
L 236.255646 99.136975 
L 236.346748 95.477026 
L 236.381175 95.477026 
L 236.484338 90.248526 
L 236.520707 90.248526 
L 236.608031 88.679977 
L 236.646969 88.679977 
L 236.681537 86.065727 
L 236.784032 86.065727 
L 236.893334 80.837228 
L 236.955351 80.837228 
L 237.023143 78.222978 
L 237.072927 78.222978 
L 237.129093 76.131578 
L 237.206213 76.131578 
L 237.299501 72.994479 
L 237.323125 72.994479 
L 237.401695 69.857379 
L 237.457559 69.857379 
L 237.553521 66.19743 
L 237.588225 66.19743 
L 237.677577 62.53748 
L 237.700675 62.53748 
L 237.795938 59.92323 
L 237.897387 59.92323 
L 237.920585 58.354681 
L 238.013857 58.354681 
L 238.110701 56.786131 
L 238.183823 56.786131 
L 238.254488 55.217581 
L 238.341413 55.217581 
L 238.341413 54.171881 
L 239.3696 54.171881 
L 239.405768 52.080481 
L 239.482541 52.080481 
L 239.539327 51.034782 
L 239.81736 51.034782 
L 239.871899 49.989082 
L 240.015953 49.989082 
L 240.120876 46.329132 
L 240.163037 46.329132 
L 240.224101 45.283432 
L 240.581981 45.283432 
L 240.692075 44.237732 
L 240.780286 44.237732 
L 240.780286 42.669183 
L 241.029815 42.669183 
L 241.029815 42.146333 
L 241.170779 42.146333 
L 241.170779 41.100633 
L 241.51729 41.100633 
L 241.626336 39.009233 
L 241.6435 39.009233 
L 241.6435 38.486383 
L 241.786449 38.486383 
L 241.869246 36.394983 
L 241.907776 36.394983 
L 241.96195 35.349284 
L 242.025053 35.349284 
L 242.098508 32.735034 
L 242.240163 32.735034 
L 242.338446 30.120784 
L 242.365984 30.120784 
L 242.446912 28.552235 
L 242.483747 28.552235 
L 242.559848 27.506535 
L 333.534194 27.506535 
L 333.534194 27.506535 
" style="fill:none;stroke:#e6e6e6;stroke-linecap:square;stroke-width:1.5;"/>
   </g>
   <g id="line2d_45"/>
   <g id="line2d_46">
    <path d="M 0 0 
" style="fill:none;stroke:#e6e6e6;stroke-linecap:square;stroke-width:1.5;"/>
   </g>
   <g id="line2d_47">
    <path clip-path="url(#p01670c73e7)" d="M 56.66 294.16 
L 56.66 294.16 
L 56.66 294.16 
L 56.66 294.16 
L 399.984 294.16 
" style="fill:none;stroke:#e6e6e6;stroke-linecap:square;stroke-width:1.5;"/>
   </g>
   <g id="line2d_48"/>
   <g id="line2d_49">
    <path clip-path="url(#p01670c73e7)" d="M 0 0 
" style="fill:none;stroke:#e6e6e6;stroke-linecap:square;stroke-width:1.5;"/>
   </g>
   <g id="line2d_50">
    <path clip-path="url(#p01670c73e7)" d="M 56.66 294.16 
L 56.66 294.16 
L 56.66 294.16 
L 56.66 294.16 
L 399.984 294.16 
" style="fill:none;stroke:#e6e6e6;stroke-linecap:square;stroke-width:1.5;"/>
   </g>
   <g id="line2d_51"/>
   <g id="line2d_52">
    <path clip-path="url(#p01670c73e7)" d="M 0 0 
" style="fill:none;stroke:#e6e6e6;stroke-linecap:square;stroke-width:1.5;"/>
   </g>
   <g id="line2d_53">
    <path clip-path="url(#p01670c73e7)" d="M 56.66 294.16 
L 56.66 294.16 
L 56.66 294.16 
L 56.66 294.16 
L 399.984 294.16 
" style="fill:none;stroke:#e6e6e6;stroke-linecap:square;stroke-width:1.5;"/>
   </g>
   <g id="line2d_54"/>
   <g id="line2d_55">
    <path clip-path="url(#p01670c73e7)" d="M 0 0 
" style="fill:none;stroke:#e6e6e6;stroke-linecap:square;stroke-width:1.5;"/>
   </g>
   <g id="line2d_56">
    <path clip-path="url(#p01670c73e7)" d="M 56.66 294.16 
L 56.66 294.16 
L 56.66 294.16 
L 56.66 294.16 
L 399.984 294.16 
" style="fill:none;stroke:#e6e6e6;stroke-linecap:square;stroke-width:1.5;"/>
   </g>
   <g id="line2d_57"/>
   <g id="line2d_58">
    <path clip-path="url(#p01670c73e7)" d="M 0 0 
" style="fill:none;stroke:#e6e6e6;stroke-linecap:square;stroke-width:1.5;"/>
   </g>
   <g id="line2d_59">
    <path clip-path="url(#p01670c73e7)" d="M 56.66 294.16 
L 56.66 294.16 
L 56.66 294.16 
L 56.66 294.16 
L 399.984 294.16 
" style="fill:none;stroke:#e6e6e6;stroke-linecap:square;stroke-width:1.5;"/>
   </g>
   <g id="line2d_60"/>
   <g id="line2d_61">
    <path clip-path="url(#p01670c73e7)" d="M 0 0 
" style="fill:none;stroke:#e6e6e6;stroke-linecap:square;stroke-width:1.5;"/>
   </g>
   <g id="line2d_62">
    <path clip-path="url(#p01670c73e7)" d="M 56.66 294.16 
L 56.66 294.16 
L 56.66 294.16 
L 56.66 294.16 
L 399.984 294.16 
" style="fill:none;stroke:#e6e6e6;stroke-linecap:square;stroke-width:1.5;"/>
   </g>
   <g id="line2d_63"/>
   <g id="line2d_64">
    <path clip-path="url(#p01670c73e7)" d="M 0 0 
" style="fill:none;stroke:#e6e6e6;stroke-linecap:square;stroke-width:1.5;"/>
   </g>
   <g id="line2d_65">
    <g>
     <use style="fill:#e6e6e6;stroke:#e6e6e6;" x="297.251702" xlink:href="#m46d03711b9" y="288.931501"/>
     <use style="fill:#e6e6e6;stroke:#e6e6e6;" x="297.251702" xlink:href="#m46d03711b9" y="288.931501"/>
    </g>
   </g>
   <g id="line2d_66">
    <path d="M 214.447242 294.16 
L 214.447242 293.63715 
L 256.904448 293.63715 
L 256.904448 293.1143 
L 261.671708 293.1143 
L 261.671708 292.59145 
L 274.165102 292.59145 
L 274.165102 292.0686 
L 289.095225 292.0686 
L 289.095225 291.54575 
L 290.477509 291.54575 
L 290.477509 291.0229 
L 291.238651 291.0229 
L 291.238651 290.50005 
L 292.356052 290.50005 
L 292.356052 289.977201 
L 292.464424 289.977201 
L 292.464424 289.454351 
L 297.251702 289.454351 
L 297.251702 288.931501 
L 333.534194 288.931501 
" style="fill:none;stroke:#e6e6e6;stroke-linecap:square;stroke-width:1.5;"/>
   </g>
   <g id="line2d_67"/>
   <g id="line2d_68">
    <path d="M 0 0 
" style="fill:none;stroke:#e6e6e6;stroke-linecap:square;stroke-width:1.5;"/>
   </g>
   <g id="line2d_69">
    <path clip-path="url(#p01670c73e7)" d="M 254.427281 293.63715 
" style="fill:none;stroke:#e6e6e6;stroke-linecap:square;stroke-width:1.5;"/>
    <g clip-path="url(#p01670c73e7)">
     <use style="fill:#e6e6e6;stroke:#e6e6e6;stroke-width:3;" x="254.427281" xlink:href="#mad0e207e32" y="293.63715"/>
    </g>
   </g>
   <g id="line2d_70">
    <g>
     <use style="fill:#e6e6e6;stroke:#e6e6e6;" x="265.136427" xlink:href="#m46d03711b9" y="236.646507"/>
     <use style="fill:#e6e6e6;stroke:#e6e6e6;" x="265.136427" xlink:href="#m46d03711b9" y="236.646507"/>
    </g>
   </g>
   <g id="line2d_71">
    <path d="M 135.177151 294.16 
L 135.177151 293.63715 
L 136.735405 293.63715 
L 136.735405 292.59145 
L 140.141118 292.59145 
L 140.141118 291.54575 
L 141.001407 291.54575 
L 141.001407 291.0229 
L 142.379048 291.0229 
L 142.379048 290.50005 
L 167.736453 290.50005 
L 167.736453 289.977201 
L 169.810464 289.977201 
L 169.810464 288.408651 
L 171.703286 288.408651 
L 171.703286 287.362951 
L 171.816354 287.362951 
L 171.816354 286.317251 
L 176.319277 286.317251 
L 176.319277 285.794401 
L 177.315739 285.794401 
L 177.315739 285.271551 
L 177.531175 285.271551 
L 177.531175 284.748701 
L 178.289014 284.748701 
L 178.289014 284.225851 
L 178.739014 284.225851 
L 178.739014 283.703001 
L 179.650908 283.703001 
L 179.650908 283.180151 
L 180.146973 283.180151 
L 180.176778 282.134452 
L 180.334658 282.134452 
L 180.420079 281.088752 
L 185.354417 281.088752 
L 185.354417 280.565902 
L 185.672093 280.565902 
L 185.672093 279.520202 
L 186.443403 279.520202 
L 186.443403 278.474502 
L 187.200499 278.474502 
L 187.200499 277.951652 
L 187.481419 277.951652 
L 187.481419 277.428802 
L 187.610413 277.428802 
L 187.610413 276.905952 
L 187.980384 276.905952 
L 187.980384 276.383102 
L 188.127922 276.383102 
L 188.15032 274.291703 
L 188.408229 274.291703 
L 188.408229 273.768853 
L 188.612675 273.768853 
L 188.612675 273.246003 
L 188.888947 273.246003 
L 188.888947 272.723153 
L 194.567099 272.723153 
L 194.567099 272.200303 
L 194.6792 272.200303 
L 194.6792 271.677453 
L 194.863 271.677453 
L 194.863 270.631753 
L 195.087438 270.631753 
L 195.087438 270.108903 
L 195.773729 270.108903 
L 195.773729 269.586053 
L 196.309705 269.586053 
L 196.309705 268.540353 
L 196.656835 268.540353 
L 196.656835 268.017503 
L 196.914702 268.017503 
L 196.914702 267.494653 
L 197.364447 267.494653 
L 197.364447 266.971804 
L 197.763693 266.971804 
L 197.763693 265.926104 
L 197.885351 265.926104 
L 197.885351 265.403254 
L 198.149209 265.403254 
L 198.149209 264.880404 
L 204.333313 264.880404 
L 204.333313 263.834704 
L 204.60068 263.834704 
L 204.60068 263.311854 
L 204.884472 263.311854 
L 204.884472 262.266154 
L 205.433382 262.266154 
L 205.487461 260.697604 
L 205.835251 260.697604 
L 205.835251 260.174754 
L 206.037922 260.174754 
L 206.037922 259.651904 
L 206.2761 259.651904 
L 206.2761 259.129055 
L 206.529459 259.129055 
L 206.529459 258.606205 
L 206.748356 258.606205 
L 206.748356 258.083355 
L 206.889062 258.083355 
L 206.969671 257.037655 
L 207.305662 257.037655 
L 207.305662 256.514805 
L 207.483083 256.514805 
L 207.483083 255.991955 
L 214.886875 255.991955 
L 214.890737 254.946255 
L 222.871753 254.946255 
L 222.936414 252.854855 
L 223.045111 252.854855 
L 223.135984 250.763456 
L 223.410092 250.763456 
L 223.410092 250.240606 
L 226.792043 250.240606 
L 226.798479 249.194906 
L 231.249904 249.194906 
L 231.354582 247.103506 
L 231.384582 247.103506 
L 231.451429 245.534956 
L 231.634211 245.534956 
L 231.634211 245.012106 
L 236.927315 245.012106 
L 236.951681 243.966407 
L 241.060765 243.966407 
L 241.125202 242.920707 
L 242.533683 242.920707 
L 242.533683 242.397857 
L 244.407242 242.397857 
L 244.49543 241.352157 
L 244.612231 241.352157 
L 244.612231 240.829307 
L 247.317135 240.829307 
L 247.317135 240.306457 
L 249.818861 240.306457 
L 249.82004 239.260757 
L 250.605355 239.260757 
L 250.605355 238.737907 
L 255.507464 238.737907 
L 255.507464 238.215057 
L 258.47708 238.215057 
L 258.47708 237.692207 
L 260.997663 237.692207 
L 260.997663 237.169357 
L 265.136427 237.169357 
L 265.136427 236.646507 
L 333.534194 236.646507 
L 333.534194 236.646507 
" style="fill:none;stroke:#e6e6e6;stroke-linecap:square;stroke-width:1.5;"/>
   </g>
   <g id="line2d_72"/>
   <g id="line2d_73">
    <path d="M 0 0 
" style="fill:none;stroke:#e6e6e6;stroke-linecap:square;stroke-width:1.5;"/>
   </g>
   <g id="line2d_74">
    <path clip-path="url(#p01670c73e7)" d="M 214.886875 255.469105 
" style="fill:none;stroke:#e6e6e6;stroke-linecap:square;stroke-width:1.5;"/>
    <g clip-path="url(#p01670c73e7)">
     <use style="fill:#e6e6e6;stroke:#e6e6e6;stroke-width:3;" x="214.886875" xlink:href="#mad0e207e32" y="255.469105"/>
    </g>
   </g>
   <g id="line2d_75">
    <path clip-path="url(#p01670c73e7)" d="M 56.66 294.16 
L 56.66 294.16 
L 56.66 294.16 
L 56.66 294.16 
L 399.984 294.16 
" style="fill:none;stroke:#e6e6e6;stroke-linecap:square;stroke-width:1.5;"/>
   </g>
   <g id="line2d_76"/>
   <g id="line2d_77">
    <path clip-path="url(#p01670c73e7)" d="M 0 0 
" style="fill:none;stroke:#e6e6e6;stroke-linecap:square;stroke-width:1.5;"/>
   </g>
   <g id="line2d_78">
    <path clip-path="url(#p01670c73e7)" d="M 56.66 294.16 
L 56.66 294.16 
L 56.66 294.16 
L 56.66 294.16 
L 399.984 294.16 
" style="fill:none;stroke:#e6e6e6;stroke-linecap:square;stroke-width:1.5;"/>
   </g>
   <g id="line2d_79"/>
   <g id="line2d_80">
    <path clip-path="url(#p01670c73e7)" d="M 0 0 
" style="fill:none;stroke:#e6e6e6;stroke-linecap:square;stroke-width:1.5;"/>
   </g>
   <g id="line2d_81">
    <path clip-path="url(#p01670c73e7)" d="M 56.66 294.16 
L 56.66 294.16 
L 56.66 294.16 
L 56.66 294.16 
L 399.984 294.16 
" style="fill:none;stroke:#e6e6e6;stroke-linecap:square;stroke-width:1.5;"/>
   </g>
   <g id="line2d_82"/>
   <g id="line2d_83">
    <path clip-path="url(#p01670c73e7)" d="M 0 0 
" style="fill:none;stroke:#e6e6e6;stroke-linecap:square;stroke-width:1.5;"/>
   </g>
   <g id="line2d_84">
    <path clip-path="url(#p01670c73e7)" d="M 56.66 294.16 
L 56.66 294.16 
L 56.66 294.16 
L 56.66 294.16 
L 399.984 294.16 
" style="fill:none;stroke:#e6e6e6;stroke-linecap:square;stroke-width:1.5;"/>
   </g>
   <g id="line2d_85"/>
   <g id="line2d_86">
    <path clip-path="url(#p01670c73e7)" d="M 0 0 
" style="fill:none;stroke:#e6e6e6;stroke-linecap:square;stroke-width:1.5;"/>
   </g>
   <g id="line2d_87">
    <path clip-path="url(#p01670c73e7)" d="M 56.66 294.16 
L 56.66 294.16 
L 56.66 294.16 
L 56.66 294.16 
L 399.984 294.16 
" style="fill:none;stroke:#e6e6e6;stroke-linecap:square;stroke-width:1.5;"/>
   </g>
   <g id="line2d_88"/>
   <g id="line2d_89">
    <path clip-path="url(#p01670c73e7)" d="M 0 0 
" style="fill:none;stroke:#e6e6e6;stroke-linecap:square;stroke-width:1.5;"/>
   </g>
   <g id="line2d_90">
    <path clip-path="url(#p01670c73e7)" d="M 56.66 294.16 
L 56.66 294.16 
L 56.66 294.16 
L 56.66 294.16 
L 399.984 294.16 
" style="fill:none;stroke:#e6e6e6;stroke-linecap:square;stroke-width:1.5;"/>
   </g>
   <g id="line2d_91"/>
   <g id="line2d_92">
    <path clip-path="url(#p01670c73e7)" d="M 0 0 
" style="fill:none;stroke:#e6e6e6;stroke-linecap:square;stroke-width:1.5;"/>
   </g>
   <g id="line2d_93">
    <path clip-path="url(#p01670c73e7)" d="M 56.66 294.16 
L 56.66 294.16 
L 56.66 294.16 
L 56.66 294.16 
L 399.984 294.16 
" style="fill:none;stroke:#e6e6e6;stroke-linecap:square;stroke-width:1.5;"/>
   </g>
   <g id="line2d_94"/>
   <g id="line2d_95">
    <path clip-path="url(#p01670c73e7)" d="M 0 0 
" style="fill:none;stroke:#e6e6e6;stroke-linecap:square;stroke-width:1.5;"/>
   </g>
   <g id="line2d_96">
    <g>
     <use style="fill:#e6e6e6;stroke:#e6e6e6;" x="276.64345" xlink:href="#m46d03711b9" y="27.506535"/>
     <use style="fill:#e6e6e6;stroke:#e6e6e6;" x="276.64345" xlink:href="#m46d03711b9" y="27.506535"/>
    </g>
   </g>
   <g id="line2d_97">
    <path d="M 162.534292 294.16 
L 162.534292 293.63715 
L 164.828413 293.63715 
L 164.828413 292.59145 
L 164.988237 292.59145 
L 164.988237 292.0686 
L 165.532779 292.0686 
L 165.593408 288.408651 
L 165.723792 288.408651 
L 165.75155 286.840101 
L 166.065004 286.840101 
L 166.065004 286.317251 
L 166.72916 286.317251 
L 166.837868 284.225851 
L 167.322819 284.225851 
L 167.322819 282.657301 
L 168.328489 282.657301 
L 168.400598 281.088752 
L 168.779307 281.088752 
L 168.779307 280.043052 
L 169.748207 280.043052 
L 169.857157 278.997352 
L 171.837406 278.997352 
L 171.837406 277.951652 
L 172.925678 277.951652 
L 172.925678 276.905952 
L 173.70692 276.905952 
L 173.70692 276.383102 
L 202.102477 276.383102 
L 202.102477 275.860252 
L 202.923275 275.860252 
L 202.923275 274.814553 
L 204.39855 274.814553 
L 204.39855 273.768853 
L 205.194611 273.768853 
L 205.194611 273.246003 
L 205.541297 273.246003 
L 205.541297 272.723153 
L 206.91536 272.723153 
L 206.91536 271.677453 
L 207.285101 271.677453 
L 207.285101 270.631753 
L 217.540577 270.631753 
L 217.540577 270.108903 
L 219.770034 270.108903 
L 219.770034 269.586053 
L 230.944107 269.586053 
L 230.944107 269.063203 
L 231.548693 269.063203 
L 231.548693 268.540353 
L 232.480592 268.540353 
L 232.480592 268.017503 
L 234.180089 268.017503 
L 234.180089 267.494653 
L 235.681955 267.494653 
L 235.681955 266.971804 
L 238.470867 266.971804 
L 238.470867 265.926104 
L 244.504905 265.926104 
L 244.504905 264.880404 
L 250.938253 264.880404 
L 250.938253 263.834704 
L 253.207186 263.834704 
L 253.207186 263.311854 
L 253.887908 263.311854 
L 253.887908 262.789004 
L 254.046836 262.789004 
L 254.142997 259.129055 
L 254.203767 259.129055 
L 254.203767 258.606205 
L 258.246419 258.606205 
L 258.246419 258.083355 
L 258.607767 258.083355 
L 258.607767 257.037655 
L 259.014902 257.037655 
L 259.014902 256.514805 
L 259.291697 256.514805 
L 259.291697 255.991955 
L 259.428078 255.991955 
L 259.428078 255.469105 
L 260.509129 255.469105 
L 260.509129 254.946255 
L 261.305354 254.946255 
L 261.305354 254.423405 
L 262.312025 254.423405 
L 262.404285 248.672056 
L 262.426978 248.672056 
L 262.531623 242.920707 
L 262.540227 242.920707 
L 262.58861 239.783607 
L 262.687449 239.783607 
L 262.687449 239.260757 
L 263.310573 239.260757 
L 263.310573 238.215057 
L 268.149696 238.215057 
L 268.257756 228.803758 
L 268.26386 228.803758 
L 268.373495 218.34676 
L 268.389154 218.34676 
L 268.499403 197.955613 
L 268.519638 197.955613 
L 268.619563 192.727113 
L 268.655012 192.727113 
L 268.719608 189.590014 
L 272.533736 189.590014 
L 272.626019 185.407214 
L 272.662579 185.407214 
L 272.770415 161.878967 
L 272.781989 161.878967 
L 272.889606 136.259321 
L 272.896673 136.259321 
L 273.005107 119.528123 
L 273.021436 119.528123 
L 273.131675 110.116824 
L 273.159613 110.116824 
L 273.257466 101.228375 
L 273.273695 101.228375 
L 273.382866 93.385626 
L 273.387829 93.385626 
L 273.387829 92.862776 
L 275.204164 92.862776 
L 275.314291 88.679977 
L 275.315434 88.679977 
L 275.422192 72.471629 
L 275.434068 72.471629 
L 275.501524 64.62888 
L 275.563118 64.62888 
L 275.661417 60.96893 
L 275.678849 60.96893 
L 275.781803 52.080481 
L 276.335465 52.080481 
L 276.442634 47.374832 
L 276.451733 47.374832 
L 276.560238 38.486383 
L 276.566924 38.486383 
L 276.64345 27.506535 
L 333.534194 27.506535 
L 333.534194 27.506535 
" style="fill:none;stroke:#e6e6e6;stroke-linecap:square;stroke-width:1.5;"/>
   </g>
   <g id="line2d_98"/>
   <g id="line2d_99">
    <path d="M 0 0 
" style="fill:none;stroke:#e6e6e6;stroke-linecap:square;stroke-width:1.5;"/>
   </g>
   <g id="line2d_100">
    <path d="M 333.534194 294.16 
L 333.534194 27.506535 
" style="fill:none;stroke:#000000;stroke-linecap:square;stroke-width:1.5;"/>
   </g>
   <g id="patch_3">
    <path d="M 56.66 294.16 
L 56.66 24.84 
" style="fill:none;stroke:#000000;stroke-linecap:square;stroke-linejoin:miter;stroke-width:0.8;"/>
   </g>
   <g id="patch_4">
    <path d="M 399.984 294.16 
L 399.984 24.84 
" style="fill:none;stroke:#000000;stroke-linecap:square;stroke-linejoin:miter;stroke-width:0.8;"/>
   </g>
   <g id="patch_5">
    <path d="M 56.66 294.16 
L 399.984 294.16 
" style="fill:none;stroke:#000000;stroke-linecap:square;stroke-linejoin:miter;stroke-width:0.8;"/>
   </g>
   <g id="patch_6">
    <path d="M 56.66 24.84 
L 399.984 24.84 
" style="fill:none;stroke:#000000;stroke-linecap:square;stroke-linejoin:miter;stroke-width:0.8;"/>
   </g>
   <g id="text_14">
    <!-- best 2009 -->
    <defs>
     <path d="M 48.6875 27.296875 
Q 48.6875 37.203125 44.609375 42.84375 
Q 40.53125 48.484375 33.40625 48.484375 
Q 26.265625 48.484375 22.1875 42.84375 
Q 18.109375 37.203125 18.109375 27.296875 
Q 18.109375 17.390625 22.1875 11.75 
Q 26.265625 6.109375 33.40625 6.109375 
Q 40.53125 6.109375 44.609375 11.75 
Q 48.6875 17.390625 48.6875 27.296875 
z
M 18.109375 46.390625 
Q 20.953125 51.265625 25.265625 53.625 
Q 29.59375 56 35.59375 56 
Q 45.5625 56 51.78125 48.09375 
Q 58.015625 40.1875 58.015625 27.296875 
Q 58.015625 14.40625 51.78125 6.484375 
Q 45.5625 -1.421875 35.59375 -1.421875 
Q 29.59375 -1.421875 25.265625 0.953125 
Q 20.953125 3.328125 18.109375 8.203125 
L 18.109375 0 
L 9.078125 0 
L 9.078125 75.984375 
L 18.109375 75.984375 
z
" id="DejaVuSans-62"/>
     <path d="M 10.984375 1.515625 
L 10.984375 10.5 
Q 14.703125 8.734375 18.5 7.8125 
Q 22.3125 6.890625 25.984375 6.890625 
Q 35.75 6.890625 40.890625 13.453125 
Q 46.046875 20.015625 46.78125 33.40625 
Q 43.953125 29.203125 39.59375 26.953125 
Q 35.25 24.703125 29.984375 24.703125 
Q 19.046875 24.703125 12.671875 31.3125 
Q 6.296875 37.9375 6.296875 49.421875 
Q 6.296875 60.640625 12.9375 67.421875 
Q 19.578125 74.21875 30.609375 74.21875 
Q 43.265625 74.21875 49.921875 64.515625 
Q 56.59375 54.828125 56.59375 36.375 
Q 56.59375 19.140625 48.40625 8.859375 
Q 40.234375 -1.421875 26.421875 -1.421875 
Q 22.703125 -1.421875 18.890625 -0.6875 
Q 15.09375 0.046875 10.984375 1.515625 
z
M 30.609375 32.421875 
Q 37.25 32.421875 41.125 36.953125 
Q 45.015625 41.5 45.015625 49.421875 
Q 45.015625 57.28125 41.125 61.84375 
Q 37.25 66.40625 30.609375 66.40625 
Q 23.96875 66.40625 20.09375 61.84375 
Q 16.21875 57.28125 16.21875 49.421875 
Q 16.21875 41.5 20.09375 36.953125 
Q 23.96875 32.421875 30.609375 32.421875 
z
" id="DejaVuSans-39"/>
    </defs>
    <g transform="translate(369.527839 293.517868)scale(0.17 -0.17)">
     <use xlink:href="#DejaVuSans-62"/>
     <use x="63.476562" xlink:href="#DejaVuSans-65"/>
     <use x="125" xlink:href="#DejaVuSans-73"/>
     <use x="177.099609" xlink:href="#DejaVuSans-74"/>
     <use x="216.308594" xlink:href="#DejaVuSans-20"/>
     <use x="248.095703" xlink:href="#DejaVuSans-32"/>
     <use x="311.71875" xlink:href="#DejaVuSans-30"/>
     <use x="375.341797" xlink:href="#DejaVuSans-30"/>
     <use x="438.964844" xlink:href="#DejaVuSans-39"/>
    </g>
   </g>
   <g id="text_15">
    <!-- bbob f15, 40-D -->
    <defs>
     <path d="M 10.796875 72.90625 
L 49.515625 72.90625 
L 49.515625 64.59375 
L 19.828125 64.59375 
L 19.828125 46.734375 
Q 21.96875 47.46875 24.109375 47.828125 
Q 26.265625 48.1875 28.421875 48.1875 
Q 40.625 48.1875 47.75 41.5 
Q 54.890625 34.8125 54.890625 23.390625 
Q 54.890625 11.625 47.5625 5.09375 
Q 40.234375 -1.421875 26.90625 -1.421875 
Q 22.3125 -1.421875 17.546875 -0.640625 
Q 12.796875 0.140625 7.71875 1.703125 
L 7.71875 11.625 
Q 12.109375 9.234375 16.796875 8.0625 
Q 21.484375 6.890625 26.703125 6.890625 
Q 35.15625 6.890625 40.078125 11.328125 
Q 45.015625 15.765625 45.015625 23.390625 
Q 45.015625 31 40.078125 35.4375 
Q 35.15625 39.890625 26.703125 39.890625 
Q 22.75 39.890625 18.8125 39.015625 
Q 14.890625 38.140625 10.796875 36.28125 
z
" id="DejaVuSans-35"/>
     <path d="M 19.671875 64.796875 
L 19.671875 8.109375 
L 31.59375 8.109375 
Q 46.6875 8.109375 53.6875 14.9375 
Q 60.6875 21.78125 60.6875 36.53125 
Q 60.6875 51.171875 53.6875 57.984375 
Q 46.6875 64.796875 31.59375 64.796875 
z
M 9.8125 72.90625 
L 30.078125 72.90625 
Q 51.265625 72.90625 61.171875 64.09375 
Q 71.09375 55.28125 71.09375 36.53125 
Q 71.09375 17.671875 61.125 8.828125 
Q 51.171875 0 30.078125 0 
L 9.8125 0 
z
" id="DejaVuSans-44"/>
    </defs>
    <g transform="translate(60.09324 35.283606)scale(0.102 -0.102)">
     <use xlink:href="#DejaVuSans-62"/>
     <use x="63.476562" xlink:href="#DejaVuSans-62"/>
     <use x="126.953125" xlink:href="#DejaVuSans-6f"/>
     <use x="188.134766" xlink:href="#DejaVuSans-62"/>
     <use x="251.611328" xlink:href="#DejaVuSans-20"/>
     <use x="283.398438" xlink:href="#DejaVuSans-66"/>
     <use x="318.603516" xlink:href="#DejaVuSans-31"/>
     <use x="382.226562" xlink:href="#DejaVuSans-35"/>
     <use x="445.849609" xlink:href="#DejaVuSans-2c"/>
     <use x="477.636719" xlink:href="#DejaVuSans-20"/>
     <use x="509.423828" xlink:href="#DejaVuSans-34"/>
     <use x="573.046875" xlink:href="#DejaVuSans-30"/>
     <use x="636.669922" xlink:href="#DejaVuSans-2d"/>
     <use x="672.753906" xlink:href="#DejaVuSans-44"/>
    </g>
    <!-- 51 targets: 100..1e-08 -->
    <defs>
     <path d="M 11.71875 12.40625 
L 22.015625 12.40625 
L 22.015625 0 
L 11.71875 0 
z
M 11.71875 51.703125 
L 22.015625 51.703125 
L 22.015625 39.3125 
L 11.71875 39.3125 
z
" id="DejaVuSans-3a"/>
    </defs>
    <g transform="translate(60.09324 46.705375)scale(0.102 -0.102)">
     <use xlink:href="#DejaVuSans-35"/>
     <use x="63.623047" xlink:href="#DejaVuSans-31"/>
     <use x="127.246094" xlink:href="#DejaVuSans-20"/>
     <use x="159.033203" xlink:href="#DejaVuSans-74"/>
     <use x="198.242188" xlink:href="#DejaVuSans-61"/>
     <use x="259.521484" xlink:href="#DejaVuSans-72"/>
     <use x="300.619141" xlink:href="#DejaVuSans-67"/>
     <use x="364.095703" xlink:href="#DejaVuSans-65"/>
     <use x="425.619141" xlink:href="#DejaVuSans-74"/>
     <use x="464.828125" xlink:href="#DejaVuSans-73"/>
     <use x="516.927734" xlink:href="#DejaVuSans-3a"/>
     <use x="550.619141" xlink:href="#DejaVuSans-20"/>
     <use x="582.40625" xlink:href="#DejaVuSans-31"/>
     <use x="646.029297" xlink:href="#DejaVuSans-30"/>
     <use x="709.652344" xlink:href="#DejaVuSans-30"/>
     <use x="773.275391" xlink:href="#DejaVuSans-2e"/>
     <use x="805.0625" xlink:href="#DejaVuSans-2e"/>
     <use x="836.849609" xlink:href="#DejaVuSans-31"/>
     <use x="900.472656" xlink:href="#DejaVuSans-65"/>
     <use x="961.996094" xlink:href="#DejaVuSans-2d"/>
     <use x="998.080078" xlink:href="#DejaVuSans-30"/>
     <use x="1061.703125" xlink:href="#DejaVuSans-38"/>
    </g>
    <!-- 5, 15 instances -->
    <g transform="translate(60.09324 58.127144)scale(0.102 -0.102)">
     <use xlink:href="#DejaVuSans-35"/>
     <use x="63.623047" xlink:href="#DejaVuSans-2c"/>
     <use x="95.410156" xlink:href="#DejaVuSans-20"/>
     <use x="127.197266" xlink:href="#DejaVuSans-31"/>
     <use x="190.820312" xlink:href="#DejaVuSans-35"/>
     <use x="254.443359" xlink:href="#DejaVuSans-20"/>
     <use x="286.230469" xlink:href="#DejaVuSans-69"/>
     <use x="314.013672" xlink:href="#DejaVuSans-6e"/>
     <use x="377.392578" xlink:href="#DejaVuSans-73"/>
     <use x="429.492188" xlink:href="#DejaVuSans-74"/>
     <use x="468.701172" xlink:href="#DejaVuSans-61"/>
     <use x="529.980469" xlink:href="#DejaVuSans-6e"/>
     <use x="593.359375" xlink:href="#DejaVuSans-63"/>
     <use x="648.339844" xlink:href="#DejaVuSans-65"/>
     <use x="709.863281" xlink:href="#DejaVuSans-73"/>
    </g>
   </g>
   <g id="text_16">
    <!-- v2.0.760 -->
    <defs>
     <path d="M 8.203125 72.90625 
L 55.078125 72.90625 
L 55.078125 68.703125 
L 28.609375 0 
L 18.3125 0 
L 43.21875 64.59375 
L 8.203125 64.59375 
z
" id="DejaVuSans-37"/>
    </defs>
    <g style="fill:#808080;" transform="translate(206.27825 289.387113)scale(0.1 -0.1)">
     <use xlink:href="#DejaVuSans-76"/>
     <use x="59.179688" xlink:href="#DejaVuSans-32"/>
     <use x="122.802734" xlink:href="#DejaVuSans-2e"/>
     <use x="154.589844" xlink:href="#DejaVuSans-30"/>
     <use x="218.212891" xlink:href="#DejaVuSans-2e"/>
     <use x="250" xlink:href="#DejaVuSans-37"/>
     <use x="313.623047" xlink:href="#DejaVuSans-36"/>
     <use x="377.246094" xlink:href="#DejaVuSans-30"/>
    </g>
   </g>
   <g id="text_17">
    <!-- 15 Rastrigin -->
    <defs>
     <path d="M 44.390625 34.1875 
Q 47.5625 33.109375 50.5625 29.59375 
Q 53.5625 26.078125 56.59375 19.921875 
L 66.609375 0 
L 56 0 
L 46.6875 18.703125 
Q 43.0625 26.03125 39.671875 28.421875 
Q 36.28125 30.8125 30.421875 30.8125 
L 19.671875 30.8125 
L 19.671875 0 
L 9.8125 0 
L 9.8125 72.90625 
L 32.078125 72.90625 
Q 44.578125 72.90625 50.734375 67.671875 
Q 56.890625 62.453125 56.890625 51.90625 
Q 56.890625 45.015625 53.6875 40.46875 
Q 50.484375 35.9375 44.390625 34.1875 
z
M 19.671875 64.796875 
L 19.671875 38.921875 
L 32.078125 38.921875 
Q 39.203125 38.921875 42.84375 42.21875 
Q 46.484375 45.515625 46.484375 51.90625 
Q 46.484375 58.296875 42.84375 61.546875 
Q 39.203125 64.796875 32.078125 64.796875 
z
" id="DejaVuSans-52"/>
    </defs>
    <g transform="translate(167.862625 18.84)scale(0.2 -0.2)">
     <use xlink:href="#DejaVuSans-31"/>
     <use x="63.623047" xlink:href="#DejaVuSans-35"/>
     <use x="127.246094" xlink:href="#DejaVuSans-20"/>
     <use x="159.033203" xlink:href="#DejaVuSans-52"/>
     <use x="228.484375" xlink:href="#DejaVuSans-61"/>
     <use x="289.763672" xlink:href="#DejaVuSans-73"/>
     <use x="341.863281" xlink:href="#DejaVuSans-74"/>
     <use x="381.072266" xlink:href="#DejaVuSans-72"/>
     <use x="422.185547" xlink:href="#DejaVuSans-69"/>
     <use x="449.96875" xlink:href="#DejaVuSans-67"/>
     <use x="513.445312" xlink:href="#DejaVuSans-69"/>
     <use x="541.228516" xlink:href="#DejaVuSans-6e"/>
    </g>
   </g>
  </g>
 </g>
 <defs>
  <clipPath id="p01670c73e7">
   <rect height="269.32" width="343.324" x="56.66" y="24.84"/>
  </clipPath>
 </defs>
</svg>
