<?xml version="1.0" encoding="utf-8" standalone="no"?>
<!DOCTYPE svg PUBLIC "-//W3C//DTD SVG 1.1//EN"
  "http://www.w3.org/Graphics/SVG/1.1/DTD/svg11.dtd">
<svg xmlns:xlink="http://www.w3.org/1999/xlink" width="460.8pt" height="345.6pt" viewBox="0 0 460.8 345.6" xmlns="http://www.w3.org/2000/svg" version="1.1">
 <metadata>
  <rdf:RDF xmlns:dc="http://purl.org/dc/elements/1.1/" xmlns:cc="http://creativecommons.org/ns#" xmlns:rdf="http://www.w3.org/1999/02/22-rdf-syntax-ns#">
   <cc:Work>
    <dc:type rdf:resource="http://purl.org/dc/dcmitype/StillImage"/>
    <dc:date>2023-06-02T15:28:14.857368</dc:date>
    <dc:format>image/svg+xml</dc:format>
    <dc:creator>
     <cc:Agent>
      <dc:title>Matplotlib v3.5.2, https://matplotlib.org/</dc:title>
     </cc:Agent>
    </dc:creator>
   </cc:Work>
  </rdf:RDF>
 </metadata>
 <defs>
  <style type="text/css">*{stroke-linejoin: round; stroke-linecap: butt}</style>
 </defs>
 <g id="figure_1">
  <g id="patch_1">
   <path d="M 0 345.6 
L 460.8 345.6 
L 460.8 0 
L 0 0 
z
" style="fill: #ffffff"/>
  </g>
  <g id="axes_1">
   <g id="patch_2">
    <path d="M 34.16 291.28 
L 453.192 291.28 
L 453.192 3 
L 34.16 3 
z
" style="fill: #ffffff"/>
   </g>
   <g id="matplotlib.axis_1">
    <g id="xtick_1">
     <g id="line2d_1">
      <path d="M 106.330463 291.28 
L 106.330463 3 
" clip-path="url(#p5c516e33c6)" style="fill: none; stroke: #b0b0b0; stroke-width: 0.8; stroke-linecap: square"/>
     </g>
     <g id="line2d_2">
      <defs>
       <path id="m9167af9e65" d="M 0 0 
L 0 3.5 
" style="stroke: #000000; stroke-width: 0.8"/>
      </defs>
      <g>
       <use xlink:href="#m9167af9e65" x="106.330463" y="291.28" style="stroke: #000000; stroke-width: 0.8"/>
      </g>
     </g>
     <g id="text_1">
      <!-- -3 -->
      <g transform="translate(96.360151 313.476875)scale(0.2 -0.2)">
       <defs>
        <path id="DejaVuSans-2d" d="M 313 2009 
L 1997 2009 
L 1997 1497 
L 313 1497 
L 313 2009 
z
" transform="scale(0.015625)"/>
        <path id="DejaVuSans-33" d="M 2597 2516 
Q 3050 2419 3304 2112 
Q 3559 1806 3559 1356 
Q 3559 666 3084 287 
Q 2609 -91 1734 -91 
Q 1441 -91 1130 -33 
Q 819 25 488 141 
L 488 750 
Q 750 597 1062 519 
Q 1375 441 1716 441 
Q 2309 441 2620 675 
Q 2931 909 2931 1356 
Q 2931 1769 2642 2001 
Q 2353 2234 1838 2234 
L 1294 2234 
L 1294 2753 
L 1863 2753 
Q 2328 2753 2575 2939 
Q 2822 3125 2822 3475 
Q 2822 3834 2567 4026 
Q 2313 4219 1838 4219 
Q 1578 4219 1281 4162 
Q 984 4106 628 3988 
L 628 4550 
Q 988 4650 1302 4700 
Q 1616 4750 1894 4750 
Q 2613 4750 3031 4423 
Q 3450 4097 3450 3541 
Q 3450 3153 3228 2886 
Q 3006 2619 2597 2516 
z
" transform="scale(0.015625)"/>
       </defs>
       <use xlink:href="#DejaVuSans-2d"/>
       <use xlink:href="#DejaVuSans-33" x="36.083984"/>
      </g>
     </g>
    </g>
    <g id="xtick_2">
     <g id="line2d_3">
      <path d="M 197.894154 291.28 
L 197.894154 3 
" clip-path="url(#p5c516e33c6)" style="fill: none; stroke: #b0b0b0; stroke-width: 0.8; stroke-linecap: square"/>
     </g>
     <g id="line2d_4">
      <g>
       <use xlink:href="#m9167af9e65" x="197.894154" y="291.28" style="stroke: #000000; stroke-width: 0.8"/>
      </g>
     </g>
     <g id="text_2">
      <!-- -1 -->
      <g transform="translate(187.923842 313.476875)scale(0.2 -0.2)">
       <defs>
        <path id="DejaVuSans-31" d="M 794 531 
L 1825 531 
L 1825 4091 
L 703 3866 
L 703 4441 
L 1819 4666 
L 2450 4666 
L 2450 531 
L 3481 531 
L 3481 0 
L 794 0 
L 794 531 
z
" transform="scale(0.015625)"/>
       </defs>
       <use xlink:href="#DejaVuSans-2d"/>
       <use xlink:href="#DejaVuSans-31" x="36.083984"/>
      </g>
     </g>
    </g>
    <g id="xtick_3">
     <g id="line2d_5">
      <path d="M 289.457846 291.28 
L 289.457846 3 
" clip-path="url(#p5c516e33c6)" style="fill: none; stroke: #b0b0b0; stroke-width: 0.8; stroke-linecap: square"/>
     </g>
     <g id="line2d_6">
      <g>
       <use xlink:href="#m9167af9e65" x="289.457846" y="291.28" style="stroke: #000000; stroke-width: 0.8"/>
      </g>
     </g>
     <g id="text_3">
      <!-- 1 -->
      <g transform="translate(283.095346 313.476875)scale(0.2 -0.2)">
       <use xlink:href="#DejaVuSans-31"/>
      </g>
     </g>
    </g>
    <g id="xtick_4">
     <g id="line2d_7">
      <path d="M 381.021537 291.28 
L 381.021537 3 
" clip-path="url(#p5c516e33c6)" style="fill: none; stroke: #b0b0b0; stroke-width: 0.8; stroke-linecap: square"/>
     </g>
     <g id="line2d_8">
      <g>
       <use xlink:href="#m9167af9e65" x="381.021537" y="291.28" style="stroke: #000000; stroke-width: 0.8"/>
      </g>
     </g>
     <g id="text_4">
      <!-- 3 -->
      <g transform="translate(374.659037 313.476875)scale(0.2 -0.2)">
       <use xlink:href="#DejaVuSans-33"/>
      </g>
     </g>
    </g>
    <g id="text_5">
     <!-- log10 of FEvals ratio -->
     <g transform="translate(141.371312 336.833125)scale(0.2 -0.2)">
      <defs>
       <path id="DejaVuSans-6c" d="M 603 4863 
L 1178 4863 
L 1178 0 
L 603 0 
L 603 4863 
z
" transform="scale(0.015625)"/>
       <path id="DejaVuSans-6f" d="M 1959 3097 
Q 1497 3097 1228 2736 
Q 959 2375 959 1747 
Q 959 1119 1226 758 
Q 1494 397 1959 397 
Q 2419 397 2687 759 
Q 2956 1122 2956 1747 
Q 2956 2369 2687 2733 
Q 2419 3097 1959 3097 
z
M 1959 3584 
Q 2709 3584 3137 3096 
Q 3566 2609 3566 1747 
Q 3566 888 3137 398 
Q 2709 -91 1959 -91 
Q 1206 -91 779 398 
Q 353 888 353 1747 
Q 353 2609 779 3096 
Q 1206 3584 1959 3584 
z
" transform="scale(0.015625)"/>
       <path id="DejaVuSans-67" d="M 2906 1791 
Q 2906 2416 2648 2759 
Q 2391 3103 1925 3103 
Q 1463 3103 1205 2759 
Q 947 2416 947 1791 
Q 947 1169 1205 825 
Q 1463 481 1925 481 
Q 2391 481 2648 825 
Q 2906 1169 2906 1791 
z
M 3481 434 
Q 3481 -459 3084 -895 
Q 2688 -1331 1869 -1331 
Q 1566 -1331 1297 -1286 
Q 1028 -1241 775 -1147 
L 775 -588 
Q 1028 -725 1275 -790 
Q 1522 -856 1778 -856 
Q 2344 -856 2625 -561 
Q 2906 -266 2906 331 
L 2906 616 
Q 2728 306 2450 153 
Q 2172 0 1784 0 
Q 1141 0 747 490 
Q 353 981 353 1791 
Q 353 2603 747 3093 
Q 1141 3584 1784 3584 
Q 2172 3584 2450 3431 
Q 2728 3278 2906 2969 
L 2906 3500 
L 3481 3500 
L 3481 434 
z
" transform="scale(0.015625)"/>
       <path id="DejaVuSans-30" d="M 2034 4250 
Q 1547 4250 1301 3770 
Q 1056 3291 1056 2328 
Q 1056 1369 1301 889 
Q 1547 409 2034 409 
Q 2525 409 2770 889 
Q 3016 1369 3016 2328 
Q 3016 3291 2770 3770 
Q 2525 4250 2034 4250 
z
M 2034 4750 
Q 2819 4750 3233 4129 
Q 3647 3509 3647 2328 
Q 3647 1150 3233 529 
Q 2819 -91 2034 -91 
Q 1250 -91 836 529 
Q 422 1150 422 2328 
Q 422 3509 836 4129 
Q 1250 4750 2034 4750 
z
" transform="scale(0.015625)"/>
       <path id="DejaVuSans-20" transform="scale(0.015625)"/>
       <path id="DejaVuSans-66" d="M 2375 4863 
L 2375 4384 
L 1825 4384 
Q 1516 4384 1395 4259 
Q 1275 4134 1275 3809 
L 1275 3500 
L 2222 3500 
L 2222 3053 
L 1275 3053 
L 1275 0 
L 697 0 
L 697 3053 
L 147 3053 
L 147 3500 
L 697 3500 
L 697 3744 
Q 697 4328 969 4595 
Q 1241 4863 1831 4863 
L 2375 4863 
z
" transform="scale(0.015625)"/>
       <path id="DejaVuSans-46" d="M 628 4666 
L 3309 4666 
L 3309 4134 
L 1259 4134 
L 1259 2759 
L 3109 2759 
L 3109 2228 
L 1259 2228 
L 1259 0 
L 628 0 
L 628 4666 
z
" transform="scale(0.015625)"/>
       <path id="DejaVuSans-45" d="M 628 4666 
L 3578 4666 
L 3578 4134 
L 1259 4134 
L 1259 2753 
L 3481 2753 
L 3481 2222 
L 1259 2222 
L 1259 531 
L 3634 531 
L 3634 0 
L 628 0 
L 628 4666 
z
" transform="scale(0.015625)"/>
       <path id="DejaVuSans-76" d="M 191 3500 
L 800 3500 
L 1894 563 
L 2988 3500 
L 3597 3500 
L 2284 0 
L 1503 0 
L 191 3500 
z
" transform="scale(0.015625)"/>
       <path id="DejaVuSans-61" d="M 2194 1759 
Q 1497 1759 1228 1600 
Q 959 1441 959 1056 
Q 959 750 1161 570 
Q 1363 391 1709 391 
Q 2188 391 2477 730 
Q 2766 1069 2766 1631 
L 2766 1759 
L 2194 1759 
z
M 3341 1997 
L 3341 0 
L 2766 0 
L 2766 531 
Q 2569 213 2275 61 
Q 1981 -91 1556 -91 
Q 1019 -91 701 211 
Q 384 513 384 1019 
Q 384 1609 779 1909 
Q 1175 2209 1959 2209 
L 2766 2209 
L 2766 2266 
Q 2766 2663 2505 2880 
Q 2244 3097 1772 3097 
Q 1472 3097 1187 3025 
Q 903 2953 641 2809 
L 641 3341 
Q 956 3463 1253 3523 
Q 1550 3584 1831 3584 
Q 2591 3584 2966 3190 
Q 3341 2797 3341 1997 
z
" transform="scale(0.015625)"/>
       <path id="DejaVuSans-73" d="M 2834 3397 
L 2834 2853 
Q 2591 2978 2328 3040 
Q 2066 3103 1784 3103 
Q 1356 3103 1142 2972 
Q 928 2841 928 2578 
Q 928 2378 1081 2264 
Q 1234 2150 1697 2047 
L 1894 2003 
Q 2506 1872 2764 1633 
Q 3022 1394 3022 966 
Q 3022 478 2636 193 
Q 2250 -91 1575 -91 
Q 1294 -91 989 -36 
Q 684 19 347 128 
L 347 722 
Q 666 556 975 473 
Q 1284 391 1588 391 
Q 1994 391 2212 530 
Q 2431 669 2431 922 
Q 2431 1156 2273 1281 
Q 2116 1406 1581 1522 
L 1381 1569 
Q 847 1681 609 1914 
Q 372 2147 372 2553 
Q 372 3047 722 3315 
Q 1072 3584 1716 3584 
Q 2034 3584 2315 3537 
Q 2597 3491 2834 3397 
z
" transform="scale(0.015625)"/>
       <path id="DejaVuSans-72" d="M 2631 2963 
Q 2534 3019 2420 3045 
Q 2306 3072 2169 3072 
Q 1681 3072 1420 2755 
Q 1159 2438 1159 1844 
L 1159 0 
L 581 0 
L 581 3500 
L 1159 3500 
L 1159 2956 
Q 1341 3275 1631 3429 
Q 1922 3584 2338 3584 
Q 2397 3584 2469 3576 
Q 2541 3569 2628 3553 
L 2631 2963 
z
" transform="scale(0.015625)"/>
       <path id="DejaVuSans-74" d="M 1172 4494 
L 1172 3500 
L 2356 3500 
L 2356 3053 
L 1172 3053 
L 1172 1153 
Q 1172 725 1289 603 
Q 1406 481 1766 481 
L 2356 481 
L 2356 0 
L 1766 0 
Q 1100 0 847 248 
Q 594 497 594 1153 
L 594 3053 
L 172 3053 
L 172 3500 
L 594 3500 
L 594 4494 
L 1172 4494 
z
" transform="scale(0.015625)"/>
       <path id="DejaVuSans-69" d="M 603 3500 
L 1178 3500 
L 1178 0 
L 603 0 
L 603 3500 
z
M 603 4863 
L 1178 4863 
L 1178 4134 
L 603 4134 
L 603 4863 
z
" transform="scale(0.015625)"/>
      </defs>
      <use xlink:href="#DejaVuSans-6c"/>
      <use xlink:href="#DejaVuSans-6f" x="27.783203"/>
      <use xlink:href="#DejaVuSans-67" x="88.964844"/>
      <use xlink:href="#DejaVuSans-31" x="152.441406"/>
      <use xlink:href="#DejaVuSans-30" x="216.064453"/>
      <use xlink:href="#DejaVuSans-20" x="279.6875"/>
      <use xlink:href="#DejaVuSans-6f" x="311.474609"/>
      <use xlink:href="#DejaVuSans-66" x="372.65625"/>
      <use xlink:href="#DejaVuSans-20" x="407.861328"/>
      <use xlink:href="#DejaVuSans-46" x="439.648438"/>
      <use xlink:href="#DejaVuSans-45" x="497.167969"/>
      <use xlink:href="#DejaVuSans-76" x="560.351562"/>
      <use xlink:href="#DejaVuSans-61" x="619.53125"/>
      <use xlink:href="#DejaVuSans-6c" x="680.810547"/>
      <use xlink:href="#DejaVuSans-73" x="708.59375"/>
      <use xlink:href="#DejaVuSans-20" x="760.693359"/>
      <use xlink:href="#DejaVuSans-72" x="792.480469"/>
      <use xlink:href="#DejaVuSans-61" x="833.59375"/>
      <use xlink:href="#DejaVuSans-74" x="894.873047"/>
      <use xlink:href="#DejaVuSans-69" x="934.082031"/>
      <use xlink:href="#DejaVuSans-6f" x="961.865234"/>
     </g>
    </g>
   </g>
   <g id="matplotlib.axis_2">
    <g id="ytick_1">
     <g id="line2d_9">
      <path d="M 34.16 288.453725 
L 453.192 288.453725 
" clip-path="url(#p5c516e33c6)" style="fill: none; stroke: #b0b0b0; stroke-width: 0.8; stroke-linecap: square"/>
     </g>
     <g id="line2d_10">
      <defs>
       <path id="m40716cd4da" d="M 0 0 
L -3.5 0 
" style="stroke: #000000; stroke-width: 0.8"/>
      </defs>
      <g>
       <use xlink:href="#m40716cd4da" x="34.16" y="288.453725" style="stroke: #000000; stroke-width: 0.8"/>
      </g>
     </g>
    </g>
    <g id="ytick_2">
     <g id="line2d_11">
      <path d="M 34.16 217.796863 
L 453.192 217.796863 
" clip-path="url(#p5c516e33c6)" style="fill: none; stroke: #b0b0b0; stroke-width: 0.8; stroke-linecap: square"/>
     </g>
     <g id="line2d_12">
      <g>
       <use xlink:href="#m40716cd4da" x="34.16" y="217.796863" style="stroke: #000000; stroke-width: 0.8"/>
      </g>
     </g>
    </g>
    <g id="ytick_3">
     <g id="line2d_13">
      <path d="M 34.16 147.14 
L 453.192 147.14 
" clip-path="url(#p5c516e33c6)" style="fill: none; stroke: #b0b0b0; stroke-width: 0.8; stroke-linecap: square"/>
     </g>
     <g id="line2d_14">
      <g>
       <use xlink:href="#m40716cd4da" x="34.16" y="147.14" style="stroke: #000000; stroke-width: 0.8"/>
      </g>
     </g>
    </g>
    <g id="ytick_4">
     <g id="line2d_15">
      <path d="M 34.16 76.483137 
L 453.192 76.483137 
" clip-path="url(#p5c516e33c6)" style="fill: none; stroke: #b0b0b0; stroke-width: 0.8; stroke-linecap: square"/>
     </g>
     <g id="line2d_16">
      <g>
       <use xlink:href="#m40716cd4da" x="34.16" y="76.483137" style="stroke: #000000; stroke-width: 0.8"/>
      </g>
     </g>
    </g>
    <g id="ytick_5">
     <g id="line2d_17">
      <path d="M 34.16 5.826275 
L 453.192 5.826275 
" clip-path="url(#p5c516e33c6)" style="fill: none; stroke: #b0b0b0; stroke-width: 0.8; stroke-linecap: square"/>
     </g>
     <g id="line2d_18">
      <g>
       <use xlink:href="#m40716cd4da" x="34.16" y="5.826275" style="stroke: #000000; stroke-width: 0.8"/>
      </g>
     </g>
    </g>
    <g id="text_6">
     <!-- proportion of trials -->
     <g transform="translate(19.000625 240.14625)rotate(-90)scale(0.2 -0.2)">
      <defs>
       <path id="DejaVuSans-70" d="M 1159 525 
L 1159 -1331 
L 581 -1331 
L 581 3500 
L 1159 3500 
L 1159 2969 
Q 1341 3281 1617 3432 
Q 1894 3584 2278 3584 
Q 2916 3584 3314 3078 
Q 3713 2572 3713 1747 
Q 3713 922 3314 415 
Q 2916 -91 2278 -91 
Q 1894 -91 1617 61 
Q 1341 213 1159 525 
z
M 3116 1747 
Q 3116 2381 2855 2742 
Q 2594 3103 2138 3103 
Q 1681 3103 1420 2742 
Q 1159 2381 1159 1747 
Q 1159 1113 1420 752 
Q 1681 391 2138 391 
Q 2594 391 2855 752 
Q 3116 1113 3116 1747 
z
" transform="scale(0.015625)"/>
       <path id="DejaVuSans-6e" d="M 3513 2113 
L 3513 0 
L 2938 0 
L 2938 2094 
Q 2938 2591 2744 2837 
Q 2550 3084 2163 3084 
Q 1697 3084 1428 2787 
Q 1159 2491 1159 1978 
L 1159 0 
L 581 0 
L 581 3500 
L 1159 3500 
L 1159 2956 
Q 1366 3272 1645 3428 
Q 1925 3584 2291 3584 
Q 2894 3584 3203 3211 
Q 3513 2838 3513 2113 
z
" transform="scale(0.015625)"/>
      </defs>
      <use xlink:href="#DejaVuSans-70"/>
      <use xlink:href="#DejaVuSans-72" x="63.476562"/>
      <use xlink:href="#DejaVuSans-6f" x="102.339844"/>
      <use xlink:href="#DejaVuSans-70" x="163.521484"/>
      <use xlink:href="#DejaVuSans-6f" x="226.998047"/>
      <use xlink:href="#DejaVuSans-72" x="288.179688"/>
      <use xlink:href="#DejaVuSans-74" x="329.292969"/>
      <use xlink:href="#DejaVuSans-69" x="368.501953"/>
      <use xlink:href="#DejaVuSans-6f" x="396.285156"/>
      <use xlink:href="#DejaVuSans-6e" x="457.466797"/>
      <use xlink:href="#DejaVuSans-20" x="520.845703"/>
      <use xlink:href="#DejaVuSans-6f" x="552.632812"/>
      <use xlink:href="#DejaVuSans-66" x="613.814453"/>
      <use xlink:href="#DejaVuSans-20" x="649.019531"/>
      <use xlink:href="#DejaVuSans-74" x="680.806641"/>
      <use xlink:href="#DejaVuSans-72" x="720.015625"/>
      <use xlink:href="#DejaVuSans-69" x="761.128906"/>
      <use xlink:href="#DejaVuSans-61" x="788.912109"/>
      <use xlink:href="#DejaVuSans-6c" x="850.191406"/>
      <use xlink:href="#DejaVuSans-73" x="877.974609"/>
     </g>
    </g>
   </g>
   <g id="line2d_19">
    <path d="M 34.16 288.453725 
L 51.067402 288.453725 
L 51.067402 287.511634 
L 98.833341 287.511634 
L 98.833341 286.569542 
L 117.823407 286.569542 
L 117.823407 285.627451 
L 118.545185 285.627451 
L 118.545185 284.685359 
L 120.595179 284.685359 
L 120.595179 283.743268 
L 127.547673 283.743268 
L 127.547673 282.801176 
L 135.253307 282.801176 
L 135.253307 281.859085 
L 145.708386 281.859085 
L 145.708386 280.916993 
L 155.578943 280.916993 
L 155.578943 279.974902 
L 160.202869 279.974902 
L 160.202869 279.03281 
L 163.31471 279.03281 
L 163.31471 278.090719 
L 167.765475 278.090719 
L 167.765475 277.148627 
L 171.493244 277.148627 
L 171.493244 276.206536 
L 173.485401 276.206536 
L 173.485401 275.264444 
L 181.006316 275.264444 
L 181.006316 274.322353 
L 181.207299 274.322353 
L 181.207299 273.380261 
L 181.333586 273.380261 
L 181.333586 272.43817 
L 183.019247 272.43817 
L 183.019247 271.496078 
L 193.14547 271.496078 
L 193.14547 270.553987 
L 196.606833 270.553987 
L 196.606833 269.611895 
L 198.456913 269.611895 
L 198.456913 268.669804 
L 198.600127 268.669804 
L 198.600127 267.727712 
L 201.733064 267.727712 
L 201.733064 266.785621 
L 202.009312 266.785621 
L 202.009312 265.843529 
L 202.680727 265.843529 
L 202.73109 263.959346 
L 204.781084 263.959346 
L 204.781084 263.017255 
L 207.968809 263.017255 
L 207.968809 262.075163 
L 208.917118 262.075163 
L 208.917118 261.133072 
L 209.160088 261.133072 
L 209.160088 260.19098 
L 211.02391 260.19098 
L 211.08065 258.306797 
L 211.733578 258.306797 
L 211.733578 257.364706 
L 213.706484 257.364706 
L 213.706484 256.422614 
L 215.531415 256.422614 
L 215.531415 255.480523 
L 218.392402 255.480523 
L 218.392402 254.538431 
L 218.767561 254.538431 
L 218.767561 253.59634 
L 219.085692 253.59634 
L 219.085692 251.712157 
L 219.259184 251.712157 
L 219.259184 250.770065 
L 220.063983 250.770065 
L 220.063983 249.827974 
L 220.778868 249.827974 
L 220.778868 248.885882 
L 221.074977 248.885882 
L 221.074977 247.943791 
L 221.251341 247.943791 
L 221.251341 247.001699 
L 221.768267 247.001699 
L 221.768267 246.059608 
L 223.187773 246.059608 
L 223.187773 245.117516 
L 224.079004 245.117516 
L 224.079004 244.175425 
L 224.222218 244.175425 
L 224.295381 242.291242 
L 224.582848 242.291242 
L 224.582848 241.34915 
L 225.107205 241.34915 
L 225.107205 240.407059 
L 226.294866 240.407059 
L 226.294866 239.464967 
L 226.454185 239.464967 
L 226.454185 237.580784 
L 226.829344 237.580784 
L 226.829344 236.638693 
L 226.958874 236.638693 
L 226.999647 234.75451 
L 227.147475 234.75451 
L 227.147475 233.812418 
L 227.355155 233.812418 
L 227.355155 232.870327 
L 227.680652 232.870327 
L 227.789779 230.986144 
L 228.147361 230.986144 
L 228.147361 230.044052 
L 228.302818 230.044052 
L 228.302818 229.101961 
L 228.772256 229.101961 
L 228.840651 227.217778 
L 228.973239 227.217778 
L 228.973239 226.275686 
L 229.136759 226.275686 
L 229.136759 225.333595 
L 229.511918 225.333595 
L 229.606824 223.449412 
L 229.730646 223.449412 
L 229.750038 221.565229 
L 229.894291 221.565229 
L 230.005059 218.738954 
L 230.037505 218.738954 
L 230.070715 216.854771 
L 230.468564 216.854771 
L 230.468564 215.91268 
L 230.792493 215.91268 
L 230.792493 214.970588 
L 231.384767 214.970588 
L 231.384767 214.028497 
L 231.536122 214.028497 
L 231.536122 213.086405 
L 231.963482 213.086405 
L 232.040398 211.202222 
L 232.54927 211.202222 
L 232.54927 210.260131 
L 232.687633 210.260131 
L 232.687633 209.318039 
L 232.842487 209.318039 
L 232.882975 207.433856 
L 233.014138 207.433856 
L 233.014138 206.491765 
L 233.168988 206.491765 
L 233.170442 204.607582 
L 233.663359 204.607582 
L 233.663359 203.66549 
L 233.830638 203.66549 
L 233.830638 202.723399 
L 234.067341 202.723399 
L 234.118105 200.839216 
L 234.356649 200.839216 
L 234.36814 198.955033 
L 234.515968 198.955033 
L 234.539209 196.128758 
L 234.782179 196.128758 
L 234.891126 193.302484 
L 234.975915 193.302484 
L 235.06143 191.418301 
L 235.144414 191.418301 
L 235.243259 189.534118 
L 235.559519 189.534118 
L 235.559519 188.592026 
L 235.780007 188.592026 
L 235.780007 187.649935 
L 235.923221 187.649935 
L 235.923221 186.707843 
L 236.209144 186.707843 
L 236.209144 185.765752 
L 236.584302 185.765752 
L 236.68314 183.881569 
L 236.847565 183.881569 
L 236.847565 182.939477 
L 236.990779 182.939477 
L 236.990779 181.997386 
L 237.293253 181.997386 
L 237.293253 181.055294 
L 237.860713 181.055294 
L 237.860713 180.113203 
L 238.003927 180.113203 
L 238.066842 178.22902 
L 238.24925 178.22902 
L 238.24925 177.286928 
L 238.971028 177.286928 
L 239.056158 175.402745 
L 239.331975 175.402745 
L 239.408891 173.518562 
L 239.446549 173.518562 
L 239.446549 172.576471 
L 239.760018 172.576471 
L 239.794981 169.750196 
L 240.003821 169.750196 
L 240.102181 165.98183 
L 240.123716 165.98183 
L 240.123716 165.039739 
L 240.241406 165.039739 
L 240.309999 162.213464 
L 240.354497 162.213464 
L 240.455857 157.503007 
L 240.597467 157.503007 
L 240.599071 155.618824 
L 240.870962 155.618824 
L 240.963185 153.734641 
L 241.014176 153.734641 
L 241.082943 149.024183 
L 241.136864 149.024183 
L 241.187406 146.197908 
L 241.725142 146.197908 
L 241.725142 145.255817 
L 242.084527 145.255817 
L 242.1003 143.371634 
L 242.429923 143.371634 
L 242.429923 142.429542 
L 242.805081 142.429542 
L 242.805081 141.487451 
L 243.013179 141.487451 
L 243.013179 140.545359 
L 243.563509 140.545359 
L 243.563509 139.603268 
L 243.676 139.603268 
L 243.732008 137.719085 
L 243.86998 137.719085 
L 243.86998 136.776993 
L 244.147113 136.776993 
L 244.245747 134.89281 
L 244.372773 134.89281 
L 244.372773 133.950719 
L 244.511172 133.950719 
L 244.511172 133.008627 
L 244.679671 133.008627 
L 244.679671 132.066536 
L 245.094776 132.066536 
L 245.094776 131.124444 
L 245.276016 131.124444 
L 245.276016 130.182353 
L 245.686074 130.182353 
L 245.686074 129.240261 
L 245.980797 129.240261 
L 246.046777 127.356078 
L 246.123693 127.356078 
L 246.123693 126.413987 
L 246.240212 126.413987 
L 246.240212 125.471895 
L 246.483182 125.471895 
L 246.483182 124.529804 
L 246.655723 124.529804 
L 246.655723 123.587712 
L 247.097434 123.587712 
L 247.097434 122.645621 
L 247.307771 122.645621 
L 247.393757 119.819346 
L 247.470674 119.819346 
L 247.550741 117.935163 
L 247.762321 117.935163 
L 247.845832 115.108889 
L 247.963304 115.108889 
L 247.973516 113.224706 
L 248.320918 113.224706 
L 248.320918 112.282614 
L 248.444414 112.282614 
L 248.484099 110.398431 
L 248.563888 110.398431 
L 248.563888 109.45634 
L 248.685082 109.45634 
L 248.685082 108.514248 
L 248.809864 108.514248 
L 248.819572 106.630065 
L 249.249189 106.630065 
L 249.249189 105.687974 
L 249.965673 105.687974 
L 249.965673 104.745882 
L 250.534093 104.745882 
L 250.534093 103.803791 
L 250.735076 103.803791 
L 250.767698 100.977516 
L 250.916062 100.977516 
L 251.021548 96.267059 
L 251.159033 96.267059 
L 251.213894 94.382876 
L 251.331167 94.382876 
L 251.331167 93.440784 
L 251.501361 93.440784 
L 251.574137 91.556601 
L 251.995288 91.556601 
L 251.995288 90.61451 
L 252.324339 90.61451 
L 252.401255 88.730327 
L 252.588738 88.730327 
L 252.588738 87.788235 
L 253.374995 87.788235 
L 253.450272 85.904052 
L 254.337684 85.904052 
L 254.337684 84.961961 
L 254.625151 84.961961 
L 254.625151 84.019869 
L 254.843853 84.019869 
L 254.843853 83.077778 
L 256.458363 83.077778 
L 256.458363 82.135686 
L 257.163143 82.135686 
L 257.163143 81.193595 
L 257.387077 81.193595 
L 257.486587 79.309412 
L 257.68757 79.309412 
L 257.68757 78.36732 
L 257.955694 78.36732 
L 257.955694 77.425229 
L 258.454635 77.425229 
L 258.454635 76.483137 
L 258.82948 76.483137 
L 258.82948 75.541046 
L 259.467783 75.541046 
L 259.467783 74.598954 
L 259.957231 74.598954 
L 259.957231 73.656863 
L 260.510867 73.656863 
L 260.522656 71.77268 
L 260.65052 71.77268 
L 260.65052 70.830588 
L 261.578425 70.830588 
L 261.578425 69.888497 
L 261.894428 69.888497 
L 261.894428 68.946405 
L 262.062927 68.946405 
L 262.126978 67.062222 
L 262.203894 67.062222 
L 262.203894 66.120131 
L 262.40646 66.120131 
L 262.478032 64.235948 
L 262.591573 64.235948 
L 262.591573 63.293856 
L 262.720539 63.293856 
L 262.720539 62.351765 
L 263.177635 62.351765 
L 263.177635 61.409673 
L 263.362838 61.409673 
L 263.362838 60.467582 
L 264.084617 60.467582 
L 264.084617 59.52549 
L 264.71441 59.52549 
L 264.71441 58.583399 
L 265.018218 58.583399 
L 265.018218 57.641307 
L 265.186717 57.641307 
L 265.186717 56.699216 
L 265.519492 56.699216 
L 265.601822 54.815033 
L 266.038654 54.815033 
L 266.134611 51.988758 
L 266.672033 51.988758 
L 266.743435 50.104575 
L 267.826251 50.104575 
L 267.826251 49.162484 
L 268.019013 49.162484 
L 268.126386 47.278301 
L 268.394172 47.278301 
L 268.394172 46.336209 
L 271.569887 46.336209 
L 271.569887 45.394118 
L 271.70727 45.394118 
L 271.784186 43.509935 
L 272.277017 43.509935 
L 272.277017 42.567843 
L 272.757926 42.567843 
L 272.757926 41.625752 
L 272.949595 41.625752 
L 272.949595 40.68366 
L 273.087105 40.68366 
L 273.087105 39.741569 
L 275.6473 39.741569 
L 275.6473 38.799477 
L 275.848283 38.799477 
L 275.848283 37.857386 
L 276.004786 37.857386 
L 276.004786 36.915294 
L 277.996943 36.915294 
L 277.996943 35.973203 
L 282.752234 35.973203 
L 282.752234 35.031111 
L 285.517857 35.031111 
L 285.517857 34.08902 
L 285.71884 34.08902 
L 285.71884 33.146928 
L 288.34263 33.146928 
L 288.34263 32.204837 
L 290.469053 32.204837 
L 290.469053 31.262745 
L 291.247818 31.262745 
L 291.247818 30.320654 
L 292.332526 30.320654 
L 292.332526 29.378562 
L 293.580895 29.378562 
L 293.580895 28.436471 
L 293.87045 28.436471 
L 293.87045 27.494379 
L 294.157917 27.494379 
L 294.157917 26.552288 
L 298.03166 26.552288 
L 298.03166 25.610196 
L 300.043633 25.610196 
L 300.043633 24.668105 
L 301.111191 24.668105 
L 301.118375 22.783922 
L 301.759429 22.783922 
L 301.759429 21.84183 
L 302.124339 21.84183 
L 302.124339 20.899739 
L 303.751586 20.899739 
L 303.751586 19.957647 
L 304.550984 19.957647 
L 304.550984 19.015556 
L 304.719483 19.015556 
L 304.719483 18.073464 
L 305.134588 18.073464 
L 305.134588 17.131373 
L 311.272501 17.131373 
L 311.272501 16.189281 
L 311.473484 16.189281 
L 311.473484 15.24719 
L 326.873018 15.24719 
L 326.873018 14.305098 
L 327.861905 14.305098 
L 327.861905 13.363007 
L 352.811467 13.363007 
L 352.811467 12.420915 
L 355.923308 12.420915 
L 355.923308 11.478824 
L 360.374074 11.478824 
L 360.374074 10.536732 
L 364.101843 10.536732 
L 364.101843 9.594641 
L 366.094 9.594641 
L 366.094 8.652549 
L 373.614914 8.652549 
L 373.614914 7.710458 
L 373.815897 7.710458 
L 373.815897 6.768366 
L 389.215432 6.768366 
L 389.215432 5.826275 
L 453.192 5.826275 
L 453.192 5.826275 
" clip-path="url(#p5c516e33c6)" style="fill: none; stroke: #000000; stroke-width: 3; stroke-linecap: square"/>
   </g>
   <g id="line2d_20">
    <path clip-path="url(#p5c516e33c6)" style="fill: none; stroke: #000000; stroke-width: 3; stroke-linecap: square"/>
   </g>
   <g id="line2d_21">
    <path d="M 34.16 253.244245 
L 126.940487 253.244245 
L 126.940487 252.292637 
L 128.907691 252.292637 
L 128.907691 251.34103 
L 129.670877 251.34103 
L 129.670877 250.389422 
L 132.242489 250.389422 
L 132.242489 249.437815 
L 133.788928 249.437815 
L 133.788928 248.486207 
L 134.190615 248.486207 
L 134.190615 247.5346 
L 135.034057 247.5346 
L 135.034057 246.582992 
L 137.741901 246.582992 
L 137.741901 245.631384 
L 148.879188 245.631384 
L 148.879188 244.679777 
L 165.107471 244.679777 
L 165.107471 243.728169 
L 167.074675 243.728169 
L 167.074675 242.776562 
L 167.837861 242.776562 
L 167.837861 241.824954 
L 170.409473 241.824954 
L 170.409473 240.873347 
L 171.012537 240.873347 
L 171.012537 239.921739 
L 171.955912 239.921739 
L 171.955912 238.970131 
L 172.357599 238.970131 
L 172.357599 238.018524 
L 173.201041 238.018524 
L 173.201041 237.066916 
L 175.128819 237.066916 
L 175.128819 236.115309 
L 175.908885 236.115309 
L 175.908885 235.163701 
L 186.148371 235.163701 
L 186.148371 234.212093 
L 187.046172 234.212093 
L 187.046172 233.260486 
L 187.246551 233.260486 
L 187.246551 232.308878 
L 188.435657 232.308878 
L 188.435657 231.357271 
L 189.595998 231.357271 
L 189.595998 230.405663 
L 193.017346 230.405663 
L 193.017346 229.454056 
L 195.070213 229.454056 
L 195.070213 228.502448 
L 195.188017 228.502448 
L 195.188017 227.55084 
L 196.08538 227.55084 
L 196.08538 226.599233 
L 199.819243 226.599233 
L 199.819243 225.647625 
L 200.841008 225.647625 
L 200.841008 224.696018 
L 203.909043 224.696018 
L 203.909043 223.74441 
L 205.468681 223.74441 
L 205.468681 222.792803 
L 205.795093 222.792803 
L 205.795093 221.841195 
L 206.370982 221.841195 
L 206.370982 220.889587 
L 208.691576 220.889587 
L 208.691576 219.93798 
L 209.179521 219.93798 
L 209.179521 218.986372 
L 209.953955 218.986372 
L 210.030756 217.083157 
L 210.838795 217.083157 
L 210.838795 216.131549 
L 211.006583 216.131549 
L 211.006583 215.179942 
L 213.12608 215.179942 
L 213.12608 214.228334 
L 214.286422 214.228334 
L 214.286422 213.276727 
L 214.462371 213.276727 
L 214.462371 212.325119 
L 216.61573 212.325119 
L 216.61573 211.373512 
L 216.777377 211.373512 
L 216.814644 209.470296 
L 217.390534 209.470296 
L 217.390534 208.518689 
L 217.522432 208.518689 
L 217.530406 206.615474 
L 218.899945 206.615474 
L 218.899945 205.663866 
L 219.080303 205.663866 
L 219.10193 203.760651 
L 219.67782 203.760651 
L 219.67782 202.809043 
L 219.845412 202.809043 
L 219.878441 200.905828 
L 220.262271 200.905828 
L 220.262271 199.954221 
L 220.838161 199.954221 
L 220.838161 199.002613 
L 220.973506 199.002613 
L 220.973506 198.051005 
L 223.260792 198.051005 
L 223.260792 197.099398 
L 224.421133 197.099398 
L 224.421133 196.14779 
L 224.851098 196.14779 
L 224.851098 195.196183 
L 225.346094 195.196183 
L 225.346094 194.244575 
L 225.817995 194.244575 
L 225.85429 192.34136 
L 226.021055 192.34136 
L 226.021055 191.389752 
L 226.43018 191.389752 
L 226.43018 190.438145 
L 227.635282 190.438145 
L 227.635282 189.486537 
L 227.919133 189.486537 
L 227.924086 187.583322 
L 228.616056 187.583322 
L 228.616056 186.631715 
L 228.886254 186.631715 
L 228.886254 185.680107 
L 229.919497 185.680107 
L 230.013153 182.825284 
L 230.159105 182.825284 
L 230.159105 181.873677 
L 230.583259 181.873677 
L 230.583259 180.922069 
L 230.740496 180.922069 
L 230.740496 179.970461 
L 231.082909 179.970461 
L 231.082909 179.018854 
L 231.346446 179.018854 
L 231.346446 178.067246 
L 231.58879 178.067246 
L 231.58879 177.115639 
L 231.79185 177.115639 
L 231.79185 176.164031 
L 232.206782 176.164031 
L 232.206782 175.212424 
L 233.367124 175.212424 
L 233.367124 174.260816 
L 233.918058 174.260816 
L 233.918058 173.309208 
L 234.242445 173.309208 
L 234.242445 172.357601 
L 234.656825 172.357601 
L 234.72118 170.454386 
L 234.859885 170.454386 
L 234.859885 169.502778 
L 235.455788 169.502778 
L 235.464497 167.599563 
L 235.747749 167.599563 
L 235.747749 166.647955 
L 235.866183 166.647955 
L 235.866183 165.696348 
L 236.134954 165.696348 
L 236.134954 164.74474 
L 236.674928 164.74474 
L 236.710844 161.889917 
L 236.827559 161.889917 
L 236.827559 160.93831 
L 237.422991 160.93831 
L 237.422991 159.986702 
L 237.905205 159.986702 
L 237.905205 159.035095 
L 238.186177 159.035095 
L 238.186177 158.083487 
L 238.564158 158.083487 
L 238.564158 157.13188 
L 238.794763 157.13188 
L 238.794763 156.180272 
L 238.959143 156.180272 
L 238.967457 154.277057 
L 239.385454 154.277057 
L 239.41747 151.422234 
L 239.557949 151.422234 
L 239.557949 150.470627 
L 239.905806 150.470627 
L 239.905806 149.519019 
L 240.293817 149.519019 
L 240.293817 148.567411 
L 240.69703 148.567411 
L 240.779919 145.712589 
L 241.272919 145.712589 
L 241.282463 143.809373 
L 242.066108 143.809373 
L 242.129561 140.954551 
L 242.193091 140.954551 
L 242.193091 140.002943 
L 242.304228 140.002943 
L 242.304228 139.051336 
L 242.705915 139.051336 
L 242.747123 137.14812 
L 243.353433 137.14812 
L 243.353433 136.196513 
L 243.510309 136.196513 
L 243.549358 133.34169 
L 243.676 133.34169 
L 243.676 131.438475 
L 244.077686 131.438475 
L 244.077686 130.486867 
L 244.855892 130.486867 
L 244.921129 128.583652 
L 245.025061 128.583652 
L 245.09327 126.680437 
L 245.484774 126.680437 
L 245.484774 125.728829 
L 246.081921 125.728829 
L 246.081921 124.777222 
L 246.24796 124.777222 
L 246.257202 122.874007 
L 246.744035 122.874007 
L 246.791604 120.970792 
L 246.955592 120.970792 
L 247.060474 118.115969 
L 247.62836 118.115969 
L 247.628973 116.212754 
L 247.755451 116.212754 
L 247.838572 113.357931 
L 247.993779 113.357931 
L 248.030046 111.454716 
L 248.819572 111.454716 
L 248.873489 109.551501 
L 248.945452 109.551501 
L 248.945452 108.599893 
L 249.239807 108.599893 
L 249.239807 107.648285 
L 249.356184 107.648285 
L 249.369112 105.74507 
L 249.960982 105.74507 
L 249.960982 104.793463 
L 250.327063 104.793463 
L 250.405006 100.987032 
L 250.554757 100.987032 
L 250.554757 100.035425 
L 250.724169 100.035425 
L 250.767698 98.13221 
L 250.906607 98.13221 
L 250.906607 97.180602 
L 251.517667 97.180602 
L 251.61114 94.325779 
L 251.684118 94.325779 
L 251.684118 93.374172 
L 251.873502 93.374172 
L 251.941711 91.470957 
L 252.185521 91.470957 
L 252.275189 89.567741 
L 252.343397 89.567741 
L 252.343397 88.616134 
L 252.692292 88.616134 
L 252.692292 87.664526 
L 253.118631 87.664526 
L 253.18684 85.761311 
L 253.295781 85.761311 
L 253.295781 84.809704 
L 253.801882 84.809704 
L 253.852633 82.906488 
L 254.318984 82.906488 
L 254.318984 81.954881 
L 254.500527 81.954881 
L 254.500527 81.003273 
L 254.84222 81.003273 
L 254.84222 80.051666 
L 255.243906 80.051666 
L 255.243906 79.100058 
L 255.687471 79.100058 
L 255.687471 78.148451 
L 255.826475 78.148451 
L 255.894684 76.245235 
L 256.087349 76.245235 
L 256.093876 74.34202 
L 256.296936 74.34202 
L 256.296936 73.390413 
L 257.394488 73.390413 
L 257.394488 72.438805 
L 258.002477 72.438805 
L 258.002477 71.487197 
L 258.76626 71.487197 
L 258.795193 69.583982 
L 259.226116 69.583982 
L 259.260759 67.680767 
L 259.444652 67.680767 
L 259.444652 66.72916 
L 259.757839 66.72916 
L 259.757839 65.777552 
L 262.574248 65.777552 
L 262.574248 64.825944 
L 262.71862 64.825944 
L 262.71862 63.874337 
L 263.788191 63.874337 
L 263.788191 62.922729 
L 264.082064 62.922729 
L 264.082064 61.971122 
L 265.456271 61.971122 
L 265.456271 61.019514 
L 266.076198 61.019514 
L 266.076198 60.067907 
L 266.495531 60.067907 
L 266.495531 59.116299 
L 266.698591 59.116299 
L 266.698591 58.164691 
L 266.963762 58.164691 
L 267.031971 56.261476 
L 268.181086 56.261476 
L 268.181086 55.309869 
L 269.31194 55.309869 
L 269.31194 54.358261 
L 269.515 54.358261 
L 269.515 53.406653 
L 269.725316 53.406653 
L 269.725316 52.455046 
L 269.93248 52.455046 
L 269.93248 51.503438 
L 270.057913 51.503438 
L 270.057913 50.551831 
L 270.280311 50.551831 
L 270.280311 49.600223 
L 270.633803 49.600223 
L 270.633803 48.648616 
L 271.482028 48.648616 
L 271.482028 47.697008 
L 272.343658 47.697008 
L 272.343658 46.7454 
L 272.567597 46.7454 
L 272.567597 45.793793 
L 272.688105 45.793793 
L 272.688105 44.842185 
L 272.81389 44.842185 
L 272.81389 43.890578 
L 273.01695 43.890578 
L 273.01695 42.93897 
L 273.727938 42.93897 
L 273.727938 41.987363 
L 274.216776 41.987363 
L 274.287391 40.084147 
L 277.457878 40.084147 
L 277.457878 39.13254 
L 278.033767 39.13254 
L 278.033767 38.180932 
L 278.582741 38.180932 
L 278.582741 37.229325 
L 279.319957 37.229325 
L 279.319957 36.277717 
L 279.527837 36.277717 
L 279.527837 35.326109 
L 280.878551 35.326109 
L 280.899609 33.422894 
L 281.39915 33.422894 
L 281.39915 32.471287 
L 281.61674 32.471287 
L 281.61674 31.519679 
L 282.745313 31.519679 
L 282.745313 30.568072 
L 283.162766 30.568072 
L 283.162766 29.616464 
L 284.851969 29.616464 
L 284.9011 27.713249 
L 285.561722 27.713249 
L 285.561722 26.761641 
L 287.58962 26.761641 
L 287.58962 25.810034 
L 288.278515 25.810034 
L 288.278515 24.858426 
L 289.063672 24.858426 
L 289.16532 22.003603 
L 289.600621 22.003603 
L 289.600621 21.051996 
L 290.56273 21.051996 
L 290.56273 20.100388 
L 292.065828 20.100388 
L 292.065828 19.148781 
L 293.149075 19.148781 
L 293.149075 18.197173 
L 294.162697 18.197173 
L 294.162697 17.245565 
L 300.549039 17.245565 
L 300.549039 16.293958 
L 303.648275 16.293958 
L 303.648275 15.34235 
L 311.048239 15.34235 
L 311.048239 14.390743 
L 323.52358 14.390743 
L 323.52358 13.439135 
L 330.923545 13.439135 
L 330.923545 12.487528 
L 453.192 12.487528 
L 453.192 12.487528 
" clip-path="url(#p5c516e33c6)" style="fill: none; stroke: #00bfbf; stroke-width: 3; stroke-linecap: square"/>
   </g>
   <g id="line2d_22">
    <path clip-path="url(#p5c516e33c6)" style="fill: none; stroke: #00bfbf; stroke-width: 3; stroke-linecap: square"/>
   </g>
   <g id="line2d_23">
    <path d="M 34.16 187.242544 
L 163.299597 187.242544 
L 163.299597 186.287721 
L 163.456888 186.287721 
L 163.456888 185.332899 
L 167.303613 185.332899 
L 167.303613 184.378076 
L 168.407079 184.378076 
L 168.407079 183.423254 
L 176.65352 183.423254 
L 176.65352 182.468431 
L 176.860552 182.468431 
L 176.860552 181.513609 
L 180.500245 181.513609 
L 180.500245 180.558786 
L 181.05984 180.558786 
L 181.05984 179.603964 
L 181.35474 179.603964 
L 181.35474 178.649141 
L 184.823229 178.649141 
L 184.823229 177.694319 
L 186.898332 177.694319 
L 186.898332 176.739497 
L 187.625719 176.739497 
L 187.625719 175.784674 
L 190.057183 175.784674 
L 190.057183 174.829852 
L 195.429479 174.829852 
L 195.429479 173.875029 
L 199.516522 173.875029 
L 199.516522 172.920207 
L 200.314628 172.920207 
L 200.314628 171.965384 
L 200.735282 171.965384 
L 200.82235 170.055739 
L 202.33363 170.055739 
L 202.33363 169.100917 
L 202.517873 169.100917 
L 202.517873 168.146094 
L 204.161353 168.146094 
L 204.161353 167.191272 
L 204.337235 167.191272 
L 204.337235 166.236449 
L 205.185732 166.236449 
L 205.185732 165.281627 
L 206.840173 165.281627 
L 206.840173 164.326804 
L 207.92389 164.326804 
L 207.92389 163.371982 
L 209.232772 163.371982 
L 209.232772 162.41716 
L 209.345029 162.41716 
L 209.345029 161.462337 
L 211.701263 161.462337 
L 211.701263 160.507515 
L 213.526045 160.507515 
L 213.526045 159.552692 
L 213.718291 159.552692 
L 213.718291 158.59787 
L 214.586907 158.59787 
L 214.592042 156.688225 
L 216.409671 156.688225 
L 216.409671 155.733402 
L 217.276766 155.733402 
L 217.276766 154.77858 
L 217.571666 154.77858 
L 217.571666 153.823757 
L 218.495525 153.823757 
L 218.495525 152.868935 
L 218.790425 152.868935 
L 218.790425 151.914112 
L 221.040155 151.914112 
L 221.040155 150.95929 
L 221.223511 150.95929 
L 221.223511 150.004467 
L 222.258915 150.004467 
L 222.258915 149.049645 
L 222.945976 149.049645 
L 222.945976 148.094822 
L 223.115258 148.094822 
L 223.115258 147.14 
L 223.240876 147.14 
L 223.240876 146.185178 
L 224.334017 146.185178 
L 224.334017 145.230355 
L 224.483458 145.230355 
L 224.483458 144.275533 
L 226.709365 144.275533 
L 226.709365 143.32071 
L 226.827451 143.32071 
L 226.827451 142.365888 
L 228.784468 142.365888 
L 228.784468 141.411065 
L 229.35603 141.411065 
L 229.461507 139.50142 
L 229.756407 139.50142 
L 229.756407 138.546598 
L 231.359634 138.546598 
L 231.359634 137.591775 
L 232.379319 137.591775 
L 232.379319 136.636953 
L 233.224896 136.636953 
L 233.224896 135.68213 
L 234.420142 135.68213 
L 234.420142 134.727308 
L 235.299999 134.727308 
L 235.299999 133.772485 
L 235.612895 133.772485 
L 235.612895 132.817663 
L 236.226044 132.817663 
L 236.285201 130.908018 
L 236.444423 130.908018 
L 236.444423 129.953196 
L 237.929554 129.953196 
L 237.929554 128.998373 
L 238.448028 128.998373 
L 238.448028 128.043551 
L 240.012756 128.043551 
L 240.024082 126.133906 
L 240.131926 126.133906 
L 240.131926 125.179083 
L 240.548445 125.179083 
L 240.548445 124.224261 
L 241.215289 124.224261 
L 241.215289 123.269438 
L 241.850441 123.269438 
L 241.850441 122.314616 
L 242.149101 122.314616 
L 242.149101 121.359793 
L 243.057098 121.359793 
L 243.057098 120.404971 
L 243.432071 120.404971 
L 243.432071 119.450148 
L 243.854046 119.450148 
L 243.854046 118.495326 
L 244.275858 118.495326 
L 244.275858 117.540503 
L 245.449698 117.540503 
L 245.449698 116.585681 
L 245.561955 116.585681 
L 245.561955 115.630859 
L 245.782982 115.630859 
L 245.782982 114.676036 
L 245.995826 114.676036 
L 245.995826 113.721214 
L 246.668457 113.721214 
L 246.694069 111.811569 
L 246.780715 111.811569 
L 246.780715 110.856746 
L 247.636838 110.856746 
L 247.636838 109.901924 
L 248.424251 109.901924 
L 248.513458 107.992279 
L 248.726308 107.992279 
L 248.726308 107.037456 
L 249.046782 107.037456 
L 249.046782 106.082634 
L 249.688864 106.082634 
L 249.688864 105.127811 
L 249.972041 105.127811 
L 249.972041 104.172989 
L 250.517062 104.172989 
L 250.520464 102.263344 
L 250.808968 102.263344 
L 250.808968 101.308521 
L 251.118908 101.308521 
L 251.126186 99.398877 
L 251.231165 99.398877 
L 251.231165 98.444054 
L 252.027727 98.444054 
L 252.027727 97.489232 
L 253.042856 97.489232 
L 253.042856 96.534409 
L 253.373139 96.534409 
L 253.373139 95.579587 
L 253.668038 95.579587 
L 253.668038 94.624764 
L 255.241839 94.624764 
L 255.241839 93.669942 
L 255.552764 93.669942 
L 255.552764 92.715119 
L 255.926482 92.715119 
L 255.926482 91.760297 
L 256.478178 91.760297 
L 256.54815 89.850652 
L 257.136528 89.850652 
L 257.136528 88.895829 
L 257.634439 88.895829 
L 257.634439 87.941007 
L 257.746696 87.941007 
L 257.746696 86.986184 
L 258.08125 86.986184 
L 258.08125 86.031362 
L 259.211631 86.031362 
L 259.211631 85.076539 
L 259.705873 85.076539 
L 259.705873 84.121717 
L 260.454031 84.121717 
L 260.454031 83.166895 
L 261.620883 83.166895 
L 261.620883 82.212072 
L 261.866684 82.212072 
L 261.866684 81.25725 
L 262.477058 81.25725 
L 262.477058 80.302427 
L 262.589499 80.302427 
L 262.589499 79.347605 
L 262.993709 79.347605 
L 262.993709 78.392782 
L 263.168672 78.392782 
L 263.168672 77.43796 
L 263.68519 77.43796 
L 263.68519 76.483137 
L 264.454312 76.483137 
L 264.454312 75.528315 
L 264.749212 75.528315 
L 264.749212 74.573492 
L 266.317932 74.573492 
L 266.317932 73.61867 
L 268.217702 73.61867 
L 268.217702 72.663847 
L 270.292804 72.663847 
L 270.292804 71.709025 
L 273.287062 71.709025 
L 273.287062 70.754202 
L 273.939307 70.754202 
L 273.939307 69.79938 
L 274.787294 69.79938 
L 274.787294 68.844557 
L 275.141839 68.844557 
L 275.141839 67.889735 
L 275.942912 67.889735 
L 275.942912 66.934913 
L 276.225775 66.934913 
L 276.225775 65.98009 
L 277.145444 65.98009 
L 277.145444 65.025268 
L 279.153471 65.025268 
L 279.153471 64.070445 
L 279.626927 64.070445 
L 279.626927 63.115623 
L 279.921827 63.115623 
L 279.921827 62.1608 
L 281.546071 62.1608 
L 281.546071 61.205978 
L 281.658328 61.205978 
L 281.658328 60.251155 
L 282.973333 60.251155 
L 282.973333 59.296333 
L 283.390316 59.296333 
L 283.390316 58.34151 
L 284.976938 58.34151 
L 284.976938 57.386688 
L 285.131722 57.386688 
L 285.131722 56.431865 
L 285.281991 56.431865 
L 285.281991 55.477043 
L 285.465419 55.477043 
L 285.465419 54.52222 
L 286.334255 54.52222 
L 286.334255 53.567398 
L 286.82978 53.567398 
L 286.905341 51.657753 
L 288.015348 51.657753 
L 288.015348 50.702931 
L 289.217881 50.702931 
L 289.217881 49.748108 
L 290.145942 49.748108 
L 290.234645 47.838463 
L 292.627245 47.838463 
L 292.627245 46.883641 
L 292.739502 46.883641 
L 292.739502 45.928818 
L 294.051823 45.928818 
L 294.051823 44.973996 
L 294.165748 44.973996 
L 294.165748 44.019173 
L 295.749881 44.019173 
L 295.749881 43.064351 
L 297.049374 43.064351 
L 297.049374 42.109528 
L 297.986514 42.109528 
L 297.986514 41.154706 
L 298.693983 41.154706 
L 298.693983 40.199883 
L 299.655763 40.199883 
L 299.655763 39.245061 
L 299.912743 39.245061 
L 299.915724 37.335416 
L 304.363193 37.335416 
L 304.363193 36.380594 
L 305.407259 36.380594 
L 305.407259 35.425771 
L 305.519663 35.425771 
L 305.519663 34.470949 
L 306.851985 34.470949 
L 306.851985 33.516126 
L 307.213612 33.516126 
L 307.213612 32.561304 
L 307.799859 32.561304 
L 307.799859 31.606481 
L 307.912116 31.606481 
L 307.912116 30.651659 
L 309.217217 30.651659 
L 309.217217 29.696836 
L 310.152325 29.696836 
L 310.152325 28.742014 
L 310.757867 28.742014 
L 310.757867 27.787191 
L 310.878724 27.787191 
L 310.878724 26.832369 
L 312.15593 26.832369 
L 312.15593 25.877546 
L 313.159129 25.877546 
L 313.159129 24.922724 
L 316.621767 24.922724 
L 316.621767 23.967901 
L 317.346682 23.967901 
L 317.346682 23.013079 
L 318.406027 23.013079 
L 318.406027 22.058256 
L 318.894471 22.058256 
L 318.894471 21.103434 
L 321.252564 21.103434 
L 321.34474 18.238967 
L 322.800353 18.238967 
L 322.800353 17.284144 
L 324.228367 17.284144 
L 324.228367 16.329322 
L 327.116464 16.329322 
L 327.116464 15.374499 
L 328.664253 15.374499 
L 328.664253 14.419677 
L 334.790356 14.419677 
L 334.790356 13.464854 
L 345.87153 13.464854 
L 345.87153 12.510032 
L 361.044144 12.510032 
L 361.044144 11.555209 
L 453.192 11.555209 
L 453.192 11.555209 
" clip-path="url(#p5c516e33c6)" style="fill: none; stroke: #bf00bf; stroke-width: 3; stroke-linecap: square"/>
   </g>
   <g id="line2d_24">
    <path clip-path="url(#p5c516e33c6)" style="fill: none; stroke: #bf00bf; stroke-width: 3; stroke-linecap: square"/>
   </g>
   <g id="line2d_25">
    <path d="M 34.16 200.741758 
L 238.144869 200.741758 
L 238.144869 198.305314 
L 240.09764 198.305314 
L 240.09764 195.868871 
L 240.521582 195.868871 
L 240.521582 193.432427 
L 246.733833 193.432427 
L 246.733833 190.995984 
L 248.429389 190.995984 
L 248.429389 188.55954 
L 250.382161 188.55954 
L 250.382161 186.123097 
L 250.806103 186.123097 
L 250.806103 183.686653 
L 257.018354 183.686653 
L 257.018354 181.25021 
L 259.286358 181.25021 
L 259.286358 178.813766 
L 260.719578 178.813766 
L 260.719578 176.377323 
L 261.239129 176.377323 
L 261.239129 173.940879 
L 261.663071 173.940879 
L 261.663071 171.504435 
L 262.870765 171.504435 
L 262.870765 169.067992 
L 267.875323 169.067992 
L 267.875323 166.631548 
L 270.567562 166.631548 
L 270.567562 164.195105 
L 271.004099 164.195105 
L 271.004099 161.758661 
L 272.24563 161.758661 
L 272.24563 159.322218 
L 272.520333 159.322218 
L 272.520333 156.885774 
L 272.944275 156.885774 
L 272.944275 154.449331 
L 273.155286 154.449331 
L 273.155286 152.012887 
L 277.058106 152.012887 
L 277.058106 149.576444 
L 279.156526 149.576444 
L 279.156526 147.14 
L 281.861067 147.14 
L 281.861067 144.703556 
L 284.012254 144.703556 
L 284.012254 142.267113 
L 290.614337 142.267113 
L 290.614337 139.830669 
L 292.567108 139.830669 
L 292.567108 137.394226 
L 292.99105 137.394226 
L 292.99105 134.957782 
L 293.142271 134.957782 
L 293.142271 132.521339 
L 295.293458 132.521339 
L 295.293458 130.084895 
L 299.203302 130.084895 
L 299.203302 127.648452 
L 306.589327 127.648452 
L 306.589327 125.212008 
L 311.401804 125.212008 
L 311.401804 122.775565 
L 313.189046 122.775565 
L 313.189046 120.339121 
L 315.340233 120.339121 
L 315.340233 117.902677 
L 453.192 117.902677 
" clip-path="url(#p5c516e33c6)" style="fill: none; stroke: #ff0000; stroke-width: 3; stroke-linecap: square"/>
   </g>
   <g id="line2d_26">
    <path clip-path="url(#p5c516e33c6)" style="fill: none; stroke: #ff0000; stroke-width: 3; stroke-linecap: square"/>
   </g>
   <g id="line2d_27"/>
   <g id="line2d_28">
    <path d="M 243.676 291.28 
L 243.676 3 
" clip-path="url(#p5c516e33c6)" style="fill: none; stroke: #000000; stroke-width: 1.5; stroke-linecap: square"/>
   </g>
   <g id="line2d_29">
    <path d="M 34.16 147.14 
L 453.192 147.14 
" clip-path="url(#p5c516e33c6)" style="fill: none; stroke-dasharray: 2,3.3; stroke-dashoffset: 0; stroke: #000000; stroke-width: 2"/>
   </g>
   <g id="patch_3">
    <path d="M 34.16 291.28 
L 34.16 3 
" style="fill: none; stroke: #000000; stroke-width: 0.8; stroke-linejoin: miter; stroke-linecap: square"/>
   </g>
   <g id="patch_4">
    <path d="M 453.192 291.28 
L 453.192 3 
" style="fill: none; stroke: #000000; stroke-width: 0.8; stroke-linejoin: miter; stroke-linecap: square"/>
   </g>
   <g id="patch_5">
    <path d="M 34.16 291.28 
L 453.192 291.28 
" style="fill: none; stroke: #000000; stroke-width: 0.8; stroke-linejoin: miter; stroke-linecap: square"/>
   </g>
   <g id="patch_6">
    <path d="M 34.16 3 
L 453.192 3 
" style="fill: none; stroke: #000000; stroke-width: 0.8; stroke-linejoin: miter; stroke-linecap: square"/>
   </g>
   <g id="text_7">
    <!-- f20, f21, f28,5-D -->
    <g transform="translate(280.21761 285.5144)scale(0.2 -0.2)">
     <defs>
      <path id="DejaVuSans-32" d="M 1228 531 
L 3431 531 
L 3431 0 
L 469 0 
L 469 531 
Q 828 903 1448 1529 
Q 2069 2156 2228 2338 
Q 2531 2678 2651 2914 
Q 2772 3150 2772 3378 
Q 2772 3750 2511 3984 
Q 2250 4219 1831 4219 
Q 1534 4219 1204 4116 
Q 875 4013 500 3803 
L 500 4441 
Q 881 4594 1212 4672 
Q 1544 4750 1819 4750 
Q 2544 4750 2975 4387 
Q 3406 4025 3406 3419 
Q 3406 3131 3298 2873 
Q 3191 2616 2906 2266 
Q 2828 2175 2409 1742 
Q 1991 1309 1228 531 
z
" transform="scale(0.015625)"/>
      <path id="DejaVuSans-2c" d="M 750 794 
L 1409 794 
L 1409 256 
L 897 -744 
L 494 -744 
L 750 256 
L 750 794 
z
" transform="scale(0.015625)"/>
      <path id="DejaVuSans-38" d="M 2034 2216 
Q 1584 2216 1326 1975 
Q 1069 1734 1069 1313 
Q 1069 891 1326 650 
Q 1584 409 2034 409 
Q 2484 409 2743 651 
Q 3003 894 3003 1313 
Q 3003 1734 2745 1975 
Q 2488 2216 2034 2216 
z
M 1403 2484 
Q 997 2584 770 2862 
Q 544 3141 544 3541 
Q 544 4100 942 4425 
Q 1341 4750 2034 4750 
Q 2731 4750 3128 4425 
Q 3525 4100 3525 3541 
Q 3525 3141 3298 2862 
Q 3072 2584 2669 2484 
Q 3125 2378 3379 2068 
Q 3634 1759 3634 1313 
Q 3634 634 3220 271 
Q 2806 -91 2034 -91 
Q 1263 -91 848 271 
Q 434 634 434 1313 
Q 434 1759 690 2068 
Q 947 2378 1403 2484 
z
M 1172 3481 
Q 1172 3119 1398 2916 
Q 1625 2713 2034 2713 
Q 2441 2713 2670 2916 
Q 2900 3119 2900 3481 
Q 2900 3844 2670 4047 
Q 2441 4250 2034 4250 
Q 1625 4250 1398 4047 
Q 1172 3844 1172 3481 
z
" transform="scale(0.015625)"/>
      <path id="DejaVuSans-35" d="M 691 4666 
L 3169 4666 
L 3169 4134 
L 1269 4134 
L 1269 2991 
Q 1406 3038 1543 3061 
Q 1681 3084 1819 3084 
Q 2600 3084 3056 2656 
Q 3513 2228 3513 1497 
Q 3513 744 3044 326 
Q 2575 -91 1722 -91 
Q 1428 -91 1123 -41 
Q 819 9 494 109 
L 494 744 
Q 775 591 1075 516 
Q 1375 441 1709 441 
Q 2250 441 2565 725 
Q 2881 1009 2881 1497 
Q 2881 1984 2565 2268 
Q 2250 2553 1709 2553 
Q 1456 2553 1204 2497 
Q 953 2441 691 2322 
L 691 4666 
z
" transform="scale(0.015625)"/>
      <path id="DejaVuSans-44" d="M 1259 4147 
L 1259 519 
L 2022 519 
Q 2988 519 3436 956 
Q 3884 1394 3884 2338 
Q 3884 3275 3436 3711 
Q 2988 4147 2022 4147 
L 1259 4147 
z
M 628 4666 
L 1925 4666 
Q 3281 4666 3915 4102 
Q 4550 3538 4550 2338 
Q 4550 1131 3912 565 
Q 3275 0 1925 0 
L 628 0 
L 628 4666 
z
" transform="scale(0.015625)"/>
     </defs>
     <use xlink:href="#DejaVuSans-66"/>
     <use xlink:href="#DejaVuSans-32" x="35.205078"/>
     <use xlink:href="#DejaVuSans-30" x="98.828125"/>
     <use xlink:href="#DejaVuSans-2c" x="162.451172"/>
     <use xlink:href="#DejaVuSans-20" x="194.238281"/>
     <use xlink:href="#DejaVuSans-66" x="226.025391"/>
     <use xlink:href="#DejaVuSans-32" x="261.230469"/>
     <use xlink:href="#DejaVuSans-31" x="324.853516"/>
     <use xlink:href="#DejaVuSans-2c" x="388.476562"/>
     <use xlink:href="#DejaVuSans-20" x="420.263672"/>
     <use xlink:href="#DejaVuSans-66" x="452.050781"/>
     <use xlink:href="#DejaVuSans-32" x="487.255859"/>
     <use xlink:href="#DejaVuSans-38" x="550.878906"/>
     <use xlink:href="#DejaVuSans-2c" x="614.501953"/>
     <use xlink:href="#DejaVuSans-35" x="646.289062"/>
     <use xlink:href="#DejaVuSans-2d" x="709.912109"/>
     <use xlink:href="#DejaVuSans-44" x="745.996094"/>
    </g>
   </g>
   <g id="text_8">
    <!-- v2.6.3.13, hv-hash=ff0e71e8cd978373 -->
    <g style="fill: #808080" transform="translate(145.458812 286.317512)scale(0.1 -0.1)">
     <defs>
      <path id="DejaVuSans-2e" d="M 684 794 
L 1344 794 
L 1344 0 
L 684 0 
L 684 794 
z
" transform="scale(0.015625)"/>
      <path id="DejaVuSans-36" d="M 2113 2584 
Q 1688 2584 1439 2293 
Q 1191 2003 1191 1497 
Q 1191 994 1439 701 
Q 1688 409 2113 409 
Q 2538 409 2786 701 
Q 3034 994 3034 1497 
Q 3034 2003 2786 2293 
Q 2538 2584 2113 2584 
z
M 3366 4563 
L 3366 3988 
Q 3128 4100 2886 4159 
Q 2644 4219 2406 4219 
Q 1781 4219 1451 3797 
Q 1122 3375 1075 2522 
Q 1259 2794 1537 2939 
Q 1816 3084 2150 3084 
Q 2853 3084 3261 2657 
Q 3669 2231 3669 1497 
Q 3669 778 3244 343 
Q 2819 -91 2113 -91 
Q 1303 -91 875 529 
Q 447 1150 447 2328 
Q 447 3434 972 4092 
Q 1497 4750 2381 4750 
Q 2619 4750 2861 4703 
Q 3103 4656 3366 4563 
z
" transform="scale(0.015625)"/>
      <path id="DejaVuSans-68" d="M 3513 2113 
L 3513 0 
L 2938 0 
L 2938 2094 
Q 2938 2591 2744 2837 
Q 2550 3084 2163 3084 
Q 1697 3084 1428 2787 
Q 1159 2491 1159 1978 
L 1159 0 
L 581 0 
L 581 4863 
L 1159 4863 
L 1159 2956 
Q 1366 3272 1645 3428 
Q 1925 3584 2291 3584 
Q 2894 3584 3203 3211 
Q 3513 2838 3513 2113 
z
" transform="scale(0.015625)"/>
      <path id="DejaVuSans-3d" d="M 678 2906 
L 4684 2906 
L 4684 2381 
L 678 2381 
L 678 2906 
z
M 678 1631 
L 4684 1631 
L 4684 1100 
L 678 1100 
L 678 1631 
z
" transform="scale(0.015625)"/>
      <path id="DejaVuSans-65" d="M 3597 1894 
L 3597 1613 
L 953 1613 
Q 991 1019 1311 708 
Q 1631 397 2203 397 
Q 2534 397 2845 478 
Q 3156 559 3463 722 
L 3463 178 
Q 3153 47 2828 -22 
Q 2503 -91 2169 -91 
Q 1331 -91 842 396 
Q 353 884 353 1716 
Q 353 2575 817 3079 
Q 1281 3584 2069 3584 
Q 2775 3584 3186 3129 
Q 3597 2675 3597 1894 
z
M 3022 2063 
Q 3016 2534 2758 2815 
Q 2500 3097 2075 3097 
Q 1594 3097 1305 2825 
Q 1016 2553 972 2059 
L 3022 2063 
z
" transform="scale(0.015625)"/>
      <path id="DejaVuSans-37" d="M 525 4666 
L 3525 4666 
L 3525 4397 
L 1831 0 
L 1172 0 
L 2766 4134 
L 525 4134 
L 525 4666 
z
" transform="scale(0.015625)"/>
      <path id="DejaVuSans-63" d="M 3122 3366 
L 3122 2828 
Q 2878 2963 2633 3030 
Q 2388 3097 2138 3097 
Q 1578 3097 1268 2742 
Q 959 2388 959 1747 
Q 959 1106 1268 751 
Q 1578 397 2138 397 
Q 2388 397 2633 464 
Q 2878 531 3122 666 
L 3122 134 
Q 2881 22 2623 -34 
Q 2366 -91 2075 -91 
Q 1284 -91 818 406 
Q 353 903 353 1747 
Q 353 2603 823 3093 
Q 1294 3584 2113 3584 
Q 2378 3584 2631 3529 
Q 2884 3475 3122 3366 
z
" transform="scale(0.015625)"/>
      <path id="DejaVuSans-64" d="M 2906 2969 
L 2906 4863 
L 3481 4863 
L 3481 0 
L 2906 0 
L 2906 525 
Q 2725 213 2448 61 
Q 2172 -91 1784 -91 
Q 1150 -91 751 415 
Q 353 922 353 1747 
Q 353 2572 751 3078 
Q 1150 3584 1784 3584 
Q 2172 3584 2448 3432 
Q 2725 3281 2906 2969 
z
M 947 1747 
Q 947 1113 1208 752 
Q 1469 391 1925 391 
Q 2381 391 2643 752 
Q 2906 1113 2906 1747 
Q 2906 2381 2643 2742 
Q 2381 3103 1925 3103 
Q 1469 3103 1208 2742 
Q 947 2381 947 1747 
z
" transform="scale(0.015625)"/>
      <path id="DejaVuSans-39" d="M 703 97 
L 703 672 
Q 941 559 1184 500 
Q 1428 441 1663 441 
Q 2288 441 2617 861 
Q 2947 1281 2994 2138 
Q 2813 1869 2534 1725 
Q 2256 1581 1919 1581 
Q 1219 1581 811 2004 
Q 403 2428 403 3163 
Q 403 3881 828 4315 
Q 1253 4750 1959 4750 
Q 2769 4750 3195 4129 
Q 3622 3509 3622 2328 
Q 3622 1225 3098 567 
Q 2575 -91 1691 -91 
Q 1453 -91 1209 -44 
Q 966 3 703 97 
z
M 1959 2075 
Q 2384 2075 2632 2365 
Q 2881 2656 2881 3163 
Q 2881 3666 2632 3958 
Q 2384 4250 1959 4250 
Q 1534 4250 1286 3958 
Q 1038 3666 1038 3163 
Q 1038 2656 1286 2365 
Q 1534 2075 1959 2075 
z
" transform="scale(0.015625)"/>
     </defs>
     <use xlink:href="#DejaVuSans-76"/>
     <use xlink:href="#DejaVuSans-32" x="59.179688"/>
     <use xlink:href="#DejaVuSans-2e" x="122.802734"/>
     <use xlink:href="#DejaVuSans-36" x="154.589844"/>
     <use xlink:href="#DejaVuSans-2e" x="218.212891"/>
     <use xlink:href="#DejaVuSans-33" x="250"/>
     <use xlink:href="#DejaVuSans-2e" x="313.623047"/>
     <use xlink:href="#DejaVuSans-31" x="345.410156"/>
     <use xlink:href="#DejaVuSans-33" x="409.033203"/>
     <use xlink:href="#DejaVuSans-2c" x="472.65625"/>
     <use xlink:href="#DejaVuSans-20" x="504.443359"/>
     <use xlink:href="#DejaVuSans-68" x="536.230469"/>
     <use xlink:href="#DejaVuSans-76" x="599.609375"/>
     <use xlink:href="#DejaVuSans-2d" x="656.164062"/>
     <use xlink:href="#DejaVuSans-68" x="692.248047"/>
     <use xlink:href="#DejaVuSans-61" x="755.626953"/>
     <use xlink:href="#DejaVuSans-73" x="816.90625"/>
     <use xlink:href="#DejaVuSans-68" x="869.005859"/>
     <use xlink:href="#DejaVuSans-3d" x="932.384766"/>
     <use xlink:href="#DejaVuSans-66" x="1016.173828"/>
     <use xlink:href="#DejaVuSans-66" x="1051.378906"/>
     <use xlink:href="#DejaVuSans-30" x="1086.583984"/>
     <use xlink:href="#DejaVuSans-65" x="1150.207031"/>
     <use xlink:href="#DejaVuSans-37" x="1211.730469"/>
     <use xlink:href="#DejaVuSans-31" x="1275.353516"/>
     <use xlink:href="#DejaVuSans-65" x="1338.976562"/>
     <use xlink:href="#DejaVuSans-38" x="1400.5"/>
     <use xlink:href="#DejaVuSans-63" x="1464.123047"/>
     <use xlink:href="#DejaVuSans-64" x="1519.103516"/>
     <use xlink:href="#DejaVuSans-39" x="1582.580078"/>
     <use xlink:href="#DejaVuSans-37" x="1646.203125"/>
     <use xlink:href="#DejaVuSans-38" x="1709.826172"/>
     <use xlink:href="#DejaVuSans-33" x="1773.449219"/>
     <use xlink:href="#DejaVuSans-37" x="1837.072266"/>
     <use xlink:href="#DejaVuSans-33" x="1900.695312"/>
    </g>
   </g>
   <g id="legend_1">
    <g id="patch_7">
     <path d="M 48.16 165.78125 
L 177.381875 165.78125 
Q 181.381875 165.78125 181.381875 161.78125 
L 181.381875 17 
Q 181.381875 13 177.381875 13 
L 48.16 13 
Q 44.16 13 44.16 17 
L 44.16 161.78125 
Q 44.16 165.78125 48.16 165.78125 
z
" style="fill: #ffffff; opacity: 0.2; stroke: #cccccc; stroke-linejoin: miter"/>
    </g>
    <g id="line2d_30">
     <path d="M 52.16 29.196875 
L 72.16 29.196875 
L 92.16 29.196875 
" style="fill: none; stroke: #000000; stroke-width: 3; stroke-linecap: square"/>
    </g>
    <g id="text_9">
     <!-- -1: 3/3 -->
     <g transform="translate(108.16 36.196875)scale(0.2 -0.2)">
      <defs>
       <path id="DejaVuSans-3a" d="M 750 794 
L 1409 794 
L 1409 0 
L 750 0 
L 750 794 
z
M 750 3309 
L 1409 3309 
L 1409 2516 
L 750 2516 
L 750 3309 
z
" transform="scale(0.015625)"/>
       <path id="DejaVuSans-2f" d="M 1625 4666 
L 2156 4666 
L 531 -594 
L 0 -594 
L 1625 4666 
z
" transform="scale(0.015625)"/>
      </defs>
      <use xlink:href="#DejaVuSans-2d"/>
      <use xlink:href="#DejaVuSans-31" x="36.083984"/>
      <use xlink:href="#DejaVuSans-3a" x="99.707031"/>
      <use xlink:href="#DejaVuSans-20" x="133.398438"/>
      <use xlink:href="#DejaVuSans-33" x="165.185547"/>
      <use xlink:href="#DejaVuSans-2f" x="228.808594"/>
      <use xlink:href="#DejaVuSans-33" x="262.5"/>
     </g>
    </g>
    <g id="line2d_31">
     <path d="M 52.16 58.553125 
L 72.16 58.553125 
L 92.16 58.553125 
" style="fill: none; stroke: #00bfbf; stroke-width: 3; stroke-linecap: square"/>
    </g>
    <g id="text_10">
     <!-- -2: 3/3 -->
     <g transform="translate(108.16 65.553125)scale(0.2 -0.2)">
      <use xlink:href="#DejaVuSans-2d"/>
      <use xlink:href="#DejaVuSans-32" x="36.083984"/>
      <use xlink:href="#DejaVuSans-3a" x="99.707031"/>
      <use xlink:href="#DejaVuSans-20" x="133.398438"/>
      <use xlink:href="#DejaVuSans-33" x="165.185547"/>
      <use xlink:href="#DejaVuSans-2f" x="228.808594"/>
      <use xlink:href="#DejaVuSans-33" x="262.5"/>
     </g>
    </g>
    <g id="line2d_32">
     <path d="M 52.16 87.909375 
L 72.16 87.909375 
L 92.16 87.909375 
" style="fill: none; stroke: #bf00bf; stroke-width: 3; stroke-linecap: square"/>
    </g>
    <g id="text_11">
     <!-- -3: 3/3 -->
     <g transform="translate(108.16 94.909375)scale(0.2 -0.2)">
      <use xlink:href="#DejaVuSans-2d"/>
      <use xlink:href="#DejaVuSans-33" x="36.083984"/>
      <use xlink:href="#DejaVuSans-3a" x="99.707031"/>
      <use xlink:href="#DejaVuSans-20" x="133.398438"/>
      <use xlink:href="#DejaVuSans-33" x="165.185547"/>
      <use xlink:href="#DejaVuSans-2f" x="228.808594"/>
      <use xlink:href="#DejaVuSans-33" x="262.5"/>
     </g>
    </g>
    <g id="line2d_33">
     <path d="M 52.16 117.265625 
L 72.16 117.265625 
L 92.16 117.265625 
" style="fill: none; stroke: #ff0000; stroke-width: 3; stroke-linecap: square"/>
    </g>
    <g id="text_12">
     <!-- -4: 2/2 -->
     <g transform="translate(108.16 124.265625)scale(0.2 -0.2)">
      <defs>
       <path id="DejaVuSans-34" d="M 2419 4116 
L 825 1625 
L 2419 1625 
L 2419 4116 
z
M 2253 4666 
L 3047 4666 
L 3047 1625 
L 3713 1625 
L 3713 1100 
L 3047 1100 
L 3047 0 
L 2419 0 
L 2419 1100 
L 313 1100 
L 313 1709 
L 2253 4666 
z
" transform="scale(0.015625)"/>
      </defs>
      <use xlink:href="#DejaVuSans-2d"/>
      <use xlink:href="#DejaVuSans-34" x="36.083984"/>
      <use xlink:href="#DejaVuSans-3a" x="99.707031"/>
      <use xlink:href="#DejaVuSans-20" x="133.398438"/>
      <use xlink:href="#DejaVuSans-32" x="165.185547"/>
      <use xlink:href="#DejaVuSans-2f" x="228.808594"/>
      <use xlink:href="#DejaVuSans-32" x="262.5"/>
     </g>
    </g>
    <g id="line2d_34">
     <path d="M 52.16 146.621875 
L 72.16 146.621875 
L 92.16 146.621875 
" style="fill: none; stroke: #0000ff; stroke-width: 3; stroke-linecap: square"/>
    </g>
    <g id="text_13">
     <!-- -5: 0/0 -->
     <g transform="translate(108.16 153.621875)scale(0.2 -0.2)">
      <use xlink:href="#DejaVuSans-2d"/>
      <use xlink:href="#DejaVuSans-35" x="36.083984"/>
      <use xlink:href="#DejaVuSans-3a" x="99.707031"/>
      <use xlink:href="#DejaVuSans-20" x="133.398438"/>
      <use xlink:href="#DejaVuSans-30" x="165.185547"/>
      <use xlink:href="#DejaVuSans-2f" x="228.808594"/>
      <use xlink:href="#DejaVuSans-30" x="262.5"/>
     </g>
    </g>
   </g>
  </g>
 </g>
 <defs>
  <clipPath id="p5c516e33c6">
   <rect x="34.16" y="3" width="419.032" height="288.28"/>
  </clipPath>
 </defs>
</svg>
