<?xml version="1.0" encoding="utf-8" standalone="no"?>
<!DOCTYPE svg PUBLIC "-//W3C//DTD SVG 1.1//EN"
  "http://www.w3.org/Graphics/SVG/1.1/DTD/svg11.dtd">
<svg xmlns:xlink="http://www.w3.org/1999/xlink" width="460.8pt" height="345.6pt" viewBox="0 0 460.8 345.6" xmlns="http://www.w3.org/2000/svg" version="1.1">
 <metadata>
  <rdf:RDF xmlns:dc="http://purl.org/dc/elements/1.1/" xmlns:cc="http://creativecommons.org/ns#" xmlns:rdf="http://www.w3.org/1999/02/22-rdf-syntax-ns#">
   <cc:Work>
    <dc:type rdf:resource="http://purl.org/dc/dcmitype/StillImage"/>
    <dc:date>2023-06-02T15:28:13.896520</dc:date>
    <dc:format>image/svg+xml</dc:format>
    <dc:creator>
     <cc:Agent>
      <dc:title>Matplotlib v3.5.2, https://matplotlib.org/</dc:title>
     </cc:Agent>
    </dc:creator>
   </cc:Work>
  </rdf:RDF>
 </metadata>
 <defs>
  <style type="text/css">*{stroke-linejoin: round; stroke-linecap: butt}</style>
 </defs>
 <g id="figure_1">
  <g id="patch_1">
   <path d="M 0 345.6 
L 460.8 345.6 
L 460.8 0 
L 0 0 
z
" style="fill: #ffffff"/>
  </g>
  <g id="axes_1">
   <g id="patch_2">
    <path d="M 34.16 291.28 
L 453.192 291.28 
L 453.192 3 
L 34.16 3 
z
" style="fill: #ffffff"/>
   </g>
   <g id="matplotlib.axis_1">
    <g id="xtick_1">
     <g id="line2d_1">
      <path d="M 121.014813 291.28 
L 121.014813 3 
" clip-path="url(#p7ce8fac9f4)" style="fill: none; stroke: #b0b0b0; stroke-width: 0.8; stroke-linecap: square"/>
     </g>
     <g id="line2d_2">
      <defs>
       <path id="m0d0dc9bd25" d="M 0 0 
L 0 3.5 
" style="stroke: #000000; stroke-width: 0.8"/>
      </defs>
      <g>
       <use xlink:href="#m0d0dc9bd25" x="121.014813" y="291.28" style="stroke: #000000; stroke-width: 0.8"/>
      </g>
     </g>
     <g id="text_1">
      <!-- -3 -->
      <g transform="translate(111.0445 313.476875)scale(0.2 -0.2)">
       <defs>
        <path id="DejaVuSans-2d" d="M 313 2009 
L 1997 2009 
L 1997 1497 
L 313 1497 
L 313 2009 
z
" transform="scale(0.015625)"/>
        <path id="DejaVuSans-33" d="M 2597 2516 
Q 3050 2419 3304 2112 
Q 3559 1806 3559 1356 
Q 3559 666 3084 287 
Q 2609 -91 1734 -91 
Q 1441 -91 1130 -33 
Q 819 25 488 141 
L 488 750 
Q 750 597 1062 519 
Q 1375 441 1716 441 
Q 2309 441 2620 675 
Q 2931 909 2931 1356 
Q 2931 1769 2642 2001 
Q 2353 2234 1838 2234 
L 1294 2234 
L 1294 2753 
L 1863 2753 
Q 2328 2753 2575 2939 
Q 2822 3125 2822 3475 
Q 2822 3834 2567 4026 
Q 2313 4219 1838 4219 
Q 1578 4219 1281 4162 
Q 984 4106 628 3988 
L 628 4550 
Q 988 4650 1302 4700 
Q 1616 4750 1894 4750 
Q 2613 4750 3031 4423 
Q 3450 4097 3450 3541 
Q 3450 3153 3228 2886 
Q 3006 2619 2597 2516 
z
" transform="scale(0.015625)"/>
       </defs>
       <use xlink:href="#DejaVuSans-2d"/>
       <use xlink:href="#DejaVuSans-33" x="36.083984"/>
      </g>
     </g>
    </g>
    <g id="xtick_2">
     <g id="line2d_3">
      <path d="M 243.676 291.28 
L 243.676 3 
" clip-path="url(#p7ce8fac9f4)" style="fill: none; stroke: #b0b0b0; stroke-width: 0.8; stroke-linecap: square"/>
     </g>
     <g id="line2d_4">
      <g>
       <use xlink:href="#m0d0dc9bd25" x="243.676" y="291.28" style="stroke: #000000; stroke-width: 0.8"/>
      </g>
     </g>
     <g id="text_2">
      <!-- 0 -->
      <g transform="translate(237.3135 313.476875)scale(0.2 -0.2)">
       <defs>
        <path id="DejaVuSans-30" d="M 2034 4250 
Q 1547 4250 1301 3770 
Q 1056 3291 1056 2328 
Q 1056 1369 1301 889 
Q 1547 409 2034 409 
Q 2525 409 2770 889 
Q 3016 1369 3016 2328 
Q 3016 3291 2770 3770 
Q 2525 4250 2034 4250 
z
M 2034 4750 
Q 2819 4750 3233 4129 
Q 3647 3509 3647 2328 
Q 3647 1150 3233 529 
Q 2819 -91 2034 -91 
Q 1250 -91 836 529 
Q 422 1150 422 2328 
Q 422 3509 836 4129 
Q 1250 4750 2034 4750 
z
" transform="scale(0.015625)"/>
       </defs>
       <use xlink:href="#DejaVuSans-30"/>
      </g>
     </g>
    </g>
    <g id="xtick_3">
     <g id="line2d_5">
      <path d="M 366.337187 291.28 
L 366.337187 3 
" clip-path="url(#p7ce8fac9f4)" style="fill: none; stroke: #b0b0b0; stroke-width: 0.8; stroke-linecap: square"/>
     </g>
     <g id="line2d_6">
      <g>
       <use xlink:href="#m0d0dc9bd25" x="366.337187" y="291.28" style="stroke: #000000; stroke-width: 0.8"/>
      </g>
     </g>
     <g id="text_3">
      <!-- 3 -->
      <g transform="translate(359.974687 313.476875)scale(0.2 -0.2)">
       <use xlink:href="#DejaVuSans-33"/>
      </g>
     </g>
    </g>
    <g id="text_4">
     <!-- log10 of FEvals ratio -->
     <g transform="translate(141.371312 336.833125)scale(0.2 -0.2)">
      <defs>
       <path id="DejaVuSans-6c" d="M 603 4863 
L 1178 4863 
L 1178 0 
L 603 0 
L 603 4863 
z
" transform="scale(0.015625)"/>
       <path id="DejaVuSans-6f" d="M 1959 3097 
Q 1497 3097 1228 2736 
Q 959 2375 959 1747 
Q 959 1119 1226 758 
Q 1494 397 1959 397 
Q 2419 397 2687 759 
Q 2956 1122 2956 1747 
Q 2956 2369 2687 2733 
Q 2419 3097 1959 3097 
z
M 1959 3584 
Q 2709 3584 3137 3096 
Q 3566 2609 3566 1747 
Q 3566 888 3137 398 
Q 2709 -91 1959 -91 
Q 1206 -91 779 398 
Q 353 888 353 1747 
Q 353 2609 779 3096 
Q 1206 3584 1959 3584 
z
" transform="scale(0.015625)"/>
       <path id="DejaVuSans-67" d="M 2906 1791 
Q 2906 2416 2648 2759 
Q 2391 3103 1925 3103 
Q 1463 3103 1205 2759 
Q 947 2416 947 1791 
Q 947 1169 1205 825 
Q 1463 481 1925 481 
Q 2391 481 2648 825 
Q 2906 1169 2906 1791 
z
M 3481 434 
Q 3481 -459 3084 -895 
Q 2688 -1331 1869 -1331 
Q 1566 -1331 1297 -1286 
Q 1028 -1241 775 -1147 
L 775 -588 
Q 1028 -725 1275 -790 
Q 1522 -856 1778 -856 
Q 2344 -856 2625 -561 
Q 2906 -266 2906 331 
L 2906 616 
Q 2728 306 2450 153 
Q 2172 0 1784 0 
Q 1141 0 747 490 
Q 353 981 353 1791 
Q 353 2603 747 3093 
Q 1141 3584 1784 3584 
Q 2172 3584 2450 3431 
Q 2728 3278 2906 2969 
L 2906 3500 
L 3481 3500 
L 3481 434 
z
" transform="scale(0.015625)"/>
       <path id="DejaVuSans-31" d="M 794 531 
L 1825 531 
L 1825 4091 
L 703 3866 
L 703 4441 
L 1819 4666 
L 2450 4666 
L 2450 531 
L 3481 531 
L 3481 0 
L 794 0 
L 794 531 
z
" transform="scale(0.015625)"/>
       <path id="DejaVuSans-20" transform="scale(0.015625)"/>
       <path id="DejaVuSans-66" d="M 2375 4863 
L 2375 4384 
L 1825 4384 
Q 1516 4384 1395 4259 
Q 1275 4134 1275 3809 
L 1275 3500 
L 2222 3500 
L 2222 3053 
L 1275 3053 
L 1275 0 
L 697 0 
L 697 3053 
L 147 3053 
L 147 3500 
L 697 3500 
L 697 3744 
Q 697 4328 969 4595 
Q 1241 4863 1831 4863 
L 2375 4863 
z
" transform="scale(0.015625)"/>
       <path id="DejaVuSans-46" d="M 628 4666 
L 3309 4666 
L 3309 4134 
L 1259 4134 
L 1259 2759 
L 3109 2759 
L 3109 2228 
L 1259 2228 
L 1259 0 
L 628 0 
L 628 4666 
z
" transform="scale(0.015625)"/>
       <path id="DejaVuSans-45" d="M 628 4666 
L 3578 4666 
L 3578 4134 
L 1259 4134 
L 1259 2753 
L 3481 2753 
L 3481 2222 
L 1259 2222 
L 1259 531 
L 3634 531 
L 3634 0 
L 628 0 
L 628 4666 
z
" transform="scale(0.015625)"/>
       <path id="DejaVuSans-76" d="M 191 3500 
L 800 3500 
L 1894 563 
L 2988 3500 
L 3597 3500 
L 2284 0 
L 1503 0 
L 191 3500 
z
" transform="scale(0.015625)"/>
       <path id="DejaVuSans-61" d="M 2194 1759 
Q 1497 1759 1228 1600 
Q 959 1441 959 1056 
Q 959 750 1161 570 
Q 1363 391 1709 391 
Q 2188 391 2477 730 
Q 2766 1069 2766 1631 
L 2766 1759 
L 2194 1759 
z
M 3341 1997 
L 3341 0 
L 2766 0 
L 2766 531 
Q 2569 213 2275 61 
Q 1981 -91 1556 -91 
Q 1019 -91 701 211 
Q 384 513 384 1019 
Q 384 1609 779 1909 
Q 1175 2209 1959 2209 
L 2766 2209 
L 2766 2266 
Q 2766 2663 2505 2880 
Q 2244 3097 1772 3097 
Q 1472 3097 1187 3025 
Q 903 2953 641 2809 
L 641 3341 
Q 956 3463 1253 3523 
Q 1550 3584 1831 3584 
Q 2591 3584 2966 3190 
Q 3341 2797 3341 1997 
z
" transform="scale(0.015625)"/>
       <path id="DejaVuSans-73" d="M 2834 3397 
L 2834 2853 
Q 2591 2978 2328 3040 
Q 2066 3103 1784 3103 
Q 1356 3103 1142 2972 
Q 928 2841 928 2578 
Q 928 2378 1081 2264 
Q 1234 2150 1697 2047 
L 1894 2003 
Q 2506 1872 2764 1633 
Q 3022 1394 3022 966 
Q 3022 478 2636 193 
Q 2250 -91 1575 -91 
Q 1294 -91 989 -36 
Q 684 19 347 128 
L 347 722 
Q 666 556 975 473 
Q 1284 391 1588 391 
Q 1994 391 2212 530 
Q 2431 669 2431 922 
Q 2431 1156 2273 1281 
Q 2116 1406 1581 1522 
L 1381 1569 
Q 847 1681 609 1914 
Q 372 2147 372 2553 
Q 372 3047 722 3315 
Q 1072 3584 1716 3584 
Q 2034 3584 2315 3537 
Q 2597 3491 2834 3397 
z
" transform="scale(0.015625)"/>
       <path id="DejaVuSans-72" d="M 2631 2963 
Q 2534 3019 2420 3045 
Q 2306 3072 2169 3072 
Q 1681 3072 1420 2755 
Q 1159 2438 1159 1844 
L 1159 0 
L 581 0 
L 581 3500 
L 1159 3500 
L 1159 2956 
Q 1341 3275 1631 3429 
Q 1922 3584 2338 3584 
Q 2397 3584 2469 3576 
Q 2541 3569 2628 3553 
L 2631 2963 
z
" transform="scale(0.015625)"/>
       <path id="DejaVuSans-74" d="M 1172 4494 
L 1172 3500 
L 2356 3500 
L 2356 3053 
L 1172 3053 
L 1172 1153 
Q 1172 725 1289 603 
Q 1406 481 1766 481 
L 2356 481 
L 2356 0 
L 1766 0 
Q 1100 0 847 248 
Q 594 497 594 1153 
L 594 3053 
L 172 3053 
L 172 3500 
L 594 3500 
L 594 4494 
L 1172 4494 
z
" transform="scale(0.015625)"/>
       <path id="DejaVuSans-69" d="M 603 3500 
L 1178 3500 
L 1178 0 
L 603 0 
L 603 3500 
z
M 603 4863 
L 1178 4863 
L 1178 4134 
L 603 4134 
L 603 4863 
z
" transform="scale(0.015625)"/>
      </defs>
      <use xlink:href="#DejaVuSans-6c"/>
      <use xlink:href="#DejaVuSans-6f" x="27.783203"/>
      <use xlink:href="#DejaVuSans-67" x="88.964844"/>
      <use xlink:href="#DejaVuSans-31" x="152.441406"/>
      <use xlink:href="#DejaVuSans-30" x="216.064453"/>
      <use xlink:href="#DejaVuSans-20" x="279.6875"/>
      <use xlink:href="#DejaVuSans-6f" x="311.474609"/>
      <use xlink:href="#DejaVuSans-66" x="372.65625"/>
      <use xlink:href="#DejaVuSans-20" x="407.861328"/>
      <use xlink:href="#DejaVuSans-46" x="439.648438"/>
      <use xlink:href="#DejaVuSans-45" x="497.167969"/>
      <use xlink:href="#DejaVuSans-76" x="560.351562"/>
      <use xlink:href="#DejaVuSans-61" x="619.53125"/>
      <use xlink:href="#DejaVuSans-6c" x="680.810547"/>
      <use xlink:href="#DejaVuSans-73" x="708.59375"/>
      <use xlink:href="#DejaVuSans-20" x="760.693359"/>
      <use xlink:href="#DejaVuSans-72" x="792.480469"/>
      <use xlink:href="#DejaVuSans-61" x="833.59375"/>
      <use xlink:href="#DejaVuSans-74" x="894.873047"/>
      <use xlink:href="#DejaVuSans-69" x="934.082031"/>
      <use xlink:href="#DejaVuSans-6f" x="961.865234"/>
     </g>
    </g>
   </g>
   <g id="matplotlib.axis_2">
    <g id="ytick_1">
     <g id="line2d_7">
      <path d="M 34.16 288.453725 
L 453.192 288.453725 
" clip-path="url(#p7ce8fac9f4)" style="fill: none; stroke: #b0b0b0; stroke-width: 0.8; stroke-linecap: square"/>
     </g>
     <g id="line2d_8">
      <defs>
       <path id="mb84a0ddd18" d="M 0 0 
L -3.5 0 
" style="stroke: #000000; stroke-width: 0.8"/>
      </defs>
      <g>
       <use xlink:href="#mb84a0ddd18" x="34.16" y="288.453725" style="stroke: #000000; stroke-width: 0.8"/>
      </g>
     </g>
    </g>
    <g id="ytick_2">
     <g id="line2d_9">
      <path d="M 34.16 217.796863 
L 453.192 217.796863 
" clip-path="url(#p7ce8fac9f4)" style="fill: none; stroke: #b0b0b0; stroke-width: 0.8; stroke-linecap: square"/>
     </g>
     <g id="line2d_10">
      <g>
       <use xlink:href="#mb84a0ddd18" x="34.16" y="217.796863" style="stroke: #000000; stroke-width: 0.8"/>
      </g>
     </g>
    </g>
    <g id="ytick_3">
     <g id="line2d_11">
      <path d="M 34.16 147.14 
L 453.192 147.14 
" clip-path="url(#p7ce8fac9f4)" style="fill: none; stroke: #b0b0b0; stroke-width: 0.8; stroke-linecap: square"/>
     </g>
     <g id="line2d_12">
      <g>
       <use xlink:href="#mb84a0ddd18" x="34.16" y="147.14" style="stroke: #000000; stroke-width: 0.8"/>
      </g>
     </g>
    </g>
    <g id="ytick_4">
     <g id="line2d_13">
      <path d="M 34.16 76.483137 
L 453.192 76.483137 
" clip-path="url(#p7ce8fac9f4)" style="fill: none; stroke: #b0b0b0; stroke-width: 0.8; stroke-linecap: square"/>
     </g>
     <g id="line2d_14">
      <g>
       <use xlink:href="#mb84a0ddd18" x="34.16" y="76.483137" style="stroke: #000000; stroke-width: 0.8"/>
      </g>
     </g>
    </g>
    <g id="ytick_5">
     <g id="line2d_15">
      <path d="M 34.16 5.826275 
L 453.192 5.826275 
" clip-path="url(#p7ce8fac9f4)" style="fill: none; stroke: #b0b0b0; stroke-width: 0.8; stroke-linecap: square"/>
     </g>
     <g id="line2d_16">
      <g>
       <use xlink:href="#mb84a0ddd18" x="34.16" y="5.826275" style="stroke: #000000; stroke-width: 0.8"/>
      </g>
     </g>
    </g>
    <g id="text_5">
     <!-- proportion of trials -->
     <g transform="translate(19.000625 240.14625)rotate(-90)scale(0.2 -0.2)">
      <defs>
       <path id="DejaVuSans-70" d="M 1159 525 
L 1159 -1331 
L 581 -1331 
L 581 3500 
L 1159 3500 
L 1159 2969 
Q 1341 3281 1617 3432 
Q 1894 3584 2278 3584 
Q 2916 3584 3314 3078 
Q 3713 2572 3713 1747 
Q 3713 922 3314 415 
Q 2916 -91 2278 -91 
Q 1894 -91 1617 61 
Q 1341 213 1159 525 
z
M 3116 1747 
Q 3116 2381 2855 2742 
Q 2594 3103 2138 3103 
Q 1681 3103 1420 2742 
Q 1159 2381 1159 1747 
Q 1159 1113 1420 752 
Q 1681 391 2138 391 
Q 2594 391 2855 752 
Q 3116 1113 3116 1747 
z
" transform="scale(0.015625)"/>
       <path id="DejaVuSans-6e" d="M 3513 2113 
L 3513 0 
L 2938 0 
L 2938 2094 
Q 2938 2591 2744 2837 
Q 2550 3084 2163 3084 
Q 1697 3084 1428 2787 
Q 1159 2491 1159 1978 
L 1159 0 
L 581 0 
L 581 3500 
L 1159 3500 
L 1159 2956 
Q 1366 3272 1645 3428 
Q 1925 3584 2291 3584 
Q 2894 3584 3203 3211 
Q 3513 2838 3513 2113 
z
" transform="scale(0.015625)"/>
      </defs>
      <use xlink:href="#DejaVuSans-70"/>
      <use xlink:href="#DejaVuSans-72" x="63.476562"/>
      <use xlink:href="#DejaVuSans-6f" x="102.339844"/>
      <use xlink:href="#DejaVuSans-70" x="163.521484"/>
      <use xlink:href="#DejaVuSans-6f" x="226.998047"/>
      <use xlink:href="#DejaVuSans-72" x="288.179688"/>
      <use xlink:href="#DejaVuSans-74" x="329.292969"/>
      <use xlink:href="#DejaVuSans-69" x="368.501953"/>
      <use xlink:href="#DejaVuSans-6f" x="396.285156"/>
      <use xlink:href="#DejaVuSans-6e" x="457.466797"/>
      <use xlink:href="#DejaVuSans-20" x="520.845703"/>
      <use xlink:href="#DejaVuSans-6f" x="552.632812"/>
      <use xlink:href="#DejaVuSans-66" x="613.814453"/>
      <use xlink:href="#DejaVuSans-20" x="649.019531"/>
      <use xlink:href="#DejaVuSans-74" x="680.806641"/>
      <use xlink:href="#DejaVuSans-72" x="720.015625"/>
      <use xlink:href="#DejaVuSans-69" x="761.128906"/>
      <use xlink:href="#DejaVuSans-61" x="788.912109"/>
      <use xlink:href="#DejaVuSans-6c" x="850.191406"/>
      <use xlink:href="#DejaVuSans-73" x="877.974609"/>
     </g>
    </g>
   </g>
   <g id="line2d_17">
    <path d="M 34.16 274.322353 
L 123.424922 274.322353 
L 123.424922 273.615784 
L 128.0032 273.615784 
L 128.0032 272.909216 
L 134.34173 272.909216 
L 134.34173 272.202647 
L 134.72587 272.202647 
L 134.72587 271.496078 
L 140.437102 271.496078 
L 140.437102 270.78951 
L 148.540257 270.78951 
L 148.540257 270.082941 
L 152.301544 270.082941 
L 152.301544 269.376373 
L 159.342517 269.376373 
L 159.342517 268.669804 
L 162.324655 268.669804 
L 162.324655 267.963235 
L 163.920795 267.963235 
L 163.920795 267.256667 
L 170.259325 267.256667 
L 170.259325 266.550098 
L 170.643464 266.550098 
L 170.643464 265.843529 
L 174.573591 265.843529 
L 174.573591 265.136961 
L 176.354696 265.136961 
L 176.354696 264.430392 
L 176.509654 264.430392 
L 176.509654 263.723824 
L 181.523782 263.723824 
L 181.523782 263.017255 
L 183.459844 263.017255 
L 183.459844 262.310686 
L 184.457852 262.310686 
L 184.457852 261.604118 
L 185.896066 261.604118 
L 185.896066 260.897549 
L 188.219138 260.897549 
L 188.219138 260.19098 
L 189.391852 260.19098 
L 189.391852 259.484412 
L 191.326274 259.484412 
L 191.327914 258.071275 
L 192.358236 258.071275 
L 192.358236 257.364706 
L 194.294298 257.364706 
L 194.294298 256.658137 
L 198.24225 256.658137 
L 198.24225 255.951569 
L 200.678877 255.951569 
L 200.678877 255.245 
L 203.872092 255.245 
L 203.872092 254.538431 
L 204.321661 254.538431 
L 204.321661 253.831863 
L 204.717952 253.831863 
L 204.717952 253.125294 
L 205.004066 253.125294 
L 205.004066 252.418725 
L 205.702155 252.418725 
L 205.808154 251.005588 
L 206.257723 251.005588 
L 206.257723 250.29902 
L 206.513438 250.29902 
L 206.582546 248.885882 
L 207.629068 248.885882 
L 207.724238 247.472745 
L 208.4495 247.472745 
L 208.518608 246.059608 
L 208.996039 246.059608 
L 208.996039 245.353039 
L 209.29623 245.353039 
L 209.29623 244.646471 
L 209.582344 244.646471 
L 209.582344 243.939902 
L 210.691242 243.939902 
L 210.691242 243.233333 
L 211.017743 243.233333 
L 211.017743 242.526765 
L 211.317964 242.526765 
L 211.317964 241.820196 
L 211.733296 241.820196 
L 211.733296 241.113627 
L 212.652346 241.113627 
L 212.652346 240.407059 
L 213.000137 240.407059 
L 213.000137 239.70049 
L 214.377748 239.70049 
L 214.377748 238.993922 
L 215.26952 238.993922 
L 215.26952 238.287353 
L 215.497138 238.287353 
L 215.497138 237.580784 
L 215.63476 237.580784 
L 215.63476 236.874216 
L 215.920874 236.874216 
L 216.018899 235.461078 
L 216.143589 235.461078 
L 216.143589 234.75451 
L 216.305013 234.75451 
L 216.31381 233.341373 
L 217.57005 233.341373 
L 217.57005 232.634804 
L 217.775336 232.634804 
L 217.844295 231.221667 
L 218.268155 231.221667 
L 218.268155 230.515098 
L 218.449113 230.515098 
L 218.463522 229.101961 
L 219.948114 229.101961 
L 219.948114 228.395392 
L 220.237004 228.395392 
L 220.307308 226.982255 
L 220.512593 226.982255 
L 220.581553 224.862549 
L 221.178779 224.862549 
L 221.178779 224.15598 
L 221.60805 224.15598 
L 221.60805 223.449412 
L 221.730131 223.449412 
L 221.813661 222.036275 
L 221.941549 222.036275 
L 222.016245 219.21 
L 222.539821 219.21 
L 222.539821 218.503431 
L 222.725591 218.503431 
L 222.725591 217.796863 
L 223.4868 217.796863 
L 223.4868 217.090294 
L 223.916037 217.090294 
L 223.916037 216.383725 
L 225.182877 216.383725 
L 225.182877 215.677157 
L 225.967258 215.677157 
L 225.967258 214.970588 
L 226.136225 214.970588 
L 226.136225 214.26402 
L 226.519827 214.26402 
L 226.519827 213.557451 
L 226.865321 213.557451 
L 226.865321 212.850882 
L 227.243869 212.850882 
L 227.243869 212.144314 
L 227.693865 212.144314 
L 227.703422 210.731176 
L 228.054556 210.731176 
L 228.054556 210.024608 
L 228.504125 210.024608 
L 228.504125 209.318039 
L 228.757801 209.318039 
L 228.811015 207.904902 
L 228.920206 207.904902 
L 229.016301 205.785196 
L 229.08526 205.785196 
L 229.102609 204.372059 
L 229.260763 204.372059 
L 229.260763 203.66549 
L 229.568836 203.66549 
L 229.568836 202.958922 
L 229.833287 202.958922 
L 229.833287 202.252353 
L 229.977378 202.252353 
L 229.977378 201.545784 
L 230.119401 201.545784 
L 230.119401 200.839216 
L 230.426947 200.839216 
L 230.426947 200.132647 
L 230.594613 200.132647 
L 230.594613 199.426078 
L 230.987369 199.426078 
L 230.987369 198.71951 
L 231.241383 198.71951 
L 231.299603 196.599804 
L 231.443599 196.599804 
L 231.504888 194.480098 
L 231.573848 194.480098 
L 231.659214 193.066961 
L 231.752412 193.066961 
L 231.752412 192.360392 
L 232.419744 192.360392 
L 232.419744 191.653824 
L 232.618724 191.653824 
L 232.687832 190.240686 
L 232.858357 190.240686 
L 232.858357 189.534118 
L 232.969763 189.534118 
L 232.969763 188.827549 
L 233.242496 188.827549 
L 233.242496 188.12098 
L 233.463908 188.12098 
L 233.463908 187.414412 
L 233.594573 187.414412 
L 233.594573 186.707843 
L 233.738888 186.707843 
L 233.738888 186.001275 
L 233.880687 186.001275 
L 233.944454 184.588137 
L 234.147114 184.588137 
L 234.147114 183.881569 
L 234.386609 183.881569 
L 234.386609 183.175 
L 234.538058 183.175 
L 234.538058 182.468431 
L 234.689613 182.468431 
L 234.689613 181.761863 
L 234.908332 181.761863 
L 235.000656 180.348725 
L 235.450225 180.348725 
L 235.450225 179.642157 
L 235.806577 179.642157 
L 235.806577 178.935588 
L 236.094259 178.935588 
L 236.113216 177.522451 
L 236.476146 177.522451 
L 236.503904 176.109314 
L 236.692133 176.109314 
L 236.788276 174.696176 
L 237.237958 174.696176 
L 237.237958 173.989608 
L 237.544803 173.989608 
L 237.642002 172.576471 
L 237.71111 172.576471 
L 237.782129 171.163333 
L 237.831563 171.163333 
L 237.831563 170.456765 
L 237.983117 170.456765 
L 238.090198 169.043627 
L 238.166268 169.043627 
L 238.191134 167.63049 
L 238.317166 167.63049 
L 238.418739 166.217353 
L 238.509611 166.217353 
L 238.509611 165.510784 
L 238.953728 165.510784 
L 238.953728 164.804216 
L 239.220352 164.804216 
L 239.220352 164.097647 
L 239.567864 164.097647 
L 239.567864 163.391078 
L 239.74509 163.391078 
L 239.813957 161.271373 
L 239.91774 161.271373 
L 239.998767 159.151667 
L 240.10846 159.151667 
L 240.10846 158.445098 
L 240.233226 158.445098 
L 240.256119 157.031961 
L 240.438511 157.031961 
L 240.507471 154.205686 
L 240.616465 154.205686 
L 240.616465 153.499118 
L 240.782841 153.499118 
L 240.869783 152.08598 
L 241.023099 152.08598 
L 241.066033 150.672843 
L 241.383703 150.672843 
L 241.383703 149.966275 
L 242.037919 149.966275 
L 242.037919 149.259706 
L 242.233678 149.259706 
L 242.312164 147.14 
L 242.363805 147.14 
L 242.363805 146.433431 
L 242.487354 146.433431 
L 242.509448 145.020294 
L 242.744707 145.020294 
L 242.744707 144.313725 
L 242.95741 144.313725 
L 242.95741 143.607157 
L 243.108964 143.607157 
L 243.108964 142.900588 
L 243.257811 142.900588 
L 243.366096 140.780882 
L 243.425897 140.780882 
L 243.425897 140.074314 
L 243.617685 140.074314 
L 243.717929 137.954608 
L 243.841955 137.954608 
L 243.903799 135.834902 
L 244.316603 135.834902 
L 244.316603 135.128333 
L 244.655696 135.128333 
L 244.669328 133.008627 
L 244.873557 133.008627 
L 244.942516 131.59549 
L 245.039836 131.59549 
L 245.050157 130.182353 
L 245.152503 130.182353 
L 245.262933 127.356078 
L 245.324402 127.356078 
L 245.414488 125.236373 
L 245.459802 125.236373 
L 245.506312 123.823235 
L 245.646648 123.823235 
L 245.646648 123.116667 
L 246.168329 123.116667 
L 246.168329 122.410098 
L 246.297576 122.410098 
L 246.298997 120.996961 
L 246.509549 120.996961 
L 246.581015 118.877255 
L 246.761934 118.877255 
L 246.761934 118.170686 
L 246.913489 118.170686 
L 246.969504 116.757549 
L 247.056884 116.757549 
L 247.058651 115.344412 
L 247.958321 115.344412 
L 248.024183 113.931275 
L 248.277 113.931275 
L 248.379257 112.518137 
L 248.658886 112.518137 
L 248.760037 111.105 
L 248.815073 111.105 
L 248.815073 110.398431 
L 248.951898 110.398431 
L 248.951898 109.691863 
L 249.353641 109.691863 
L 249.44245 108.278725 
L 249.505196 108.278725 
L 249.590975 106.865588 
L 250.314074 106.865588 
L 250.314074 106.15902 
L 250.751068 106.15902 
L 250.81817 104.745882 
L 251.122121 104.745882 
L 251.167301 103.332745 
L 251.268515 103.332745 
L 251.268515 102.626176 
L 251.403092 102.626176 
L 251.420977 101.213039 
L 251.605992 101.213039 
L 251.67833 99.799902 
L 251.718084 99.799902 
L 251.747974 98.386765 
L 251.980656 98.386765 
L 251.996697 96.973627 
L 252.095351 96.973627 
L 252.148252 95.56049 
L 252.29194 95.56049 
L 252.29194 94.853922 
L 252.497226 94.853922 
L 252.566186 93.440784 
L 252.905781 93.440784 
L 252.971994 92.027647 
L 253.22567 92.027647 
L 253.327872 89.907941 
L 253.483023 89.907941 
L 253.495645 88.494804 
L 253.909861 88.494804 
L 253.97897 87.081667 
L 254.274771 87.081667 
L 254.274771 86.375098 
L 254.400875 86.375098 
L 254.400875 85.668529 
L 254.684171 85.668529 
L 254.746924 84.255392 
L 254.868376 84.255392 
L 254.926721 82.135686 
L 255.019931 82.135686 
L 255.019931 81.429118 
L 255.548837 81.429118 
L 255.602346 80.01598 
L 255.741942 80.01598 
L 255.838682 78.602843 
L 255.856022 78.602843 
L 255.90067 76.483137 
L 255.984232 76.483137 
L 255.984232 75.776569 
L 256.113375 75.776569 
L 256.113375 75.07 
L 256.237908 75.07 
L 256.294256 73.656863 
L 256.462029 73.656863 
L 256.495261 71.537157 
L 256.88189 71.537157 
L 256.88189 70.830588 
L 257.893105 70.830588 
L 257.893105 70.12402 
L 258.420516 70.12402 
L 258.491583 67.297745 
L 258.854223 67.297745 
L 258.950616 65.884608 
L 259.893113 65.884608 
L 259.893113 65.178039 
L 260.025343 65.178039 
L 260.025343 64.471471 
L 260.342682 64.471471 
L 260.342682 63.764902 
L 260.841282 63.764902 
L 260.841282 63.058333 
L 261.134639 63.058333 
L 261.134639 62.351765 
L 261.353417 62.351765 
L 261.363715 60.938627 
L 261.774171 60.938627 
L 261.774171 60.232059 
L 262.330867 60.232059 
L 262.330867 59.52549 
L 262.534459 59.52549 
L 262.61551 57.405784 
L 262.724119 57.405784 
L 262.724119 56.699216 
L 263.226016 56.699216 
L 263.317724 55.286078 
L 263.469279 55.286078 
L 263.479692 53.872941 
L 263.737045 53.872941 
L 263.829868 52.459804 
L 264.006318 52.459804 
L 264.006318 51.753235 
L 264.330099 51.753235 
L 264.330099 51.046667 
L 265.765054 51.046667 
L 265.765054 50.340098 
L 266.421575 50.340098 
L 266.421575 49.633529 
L 266.869864 49.633529 
L 266.869864 48.926961 
L 267.189095 48.926961 
L 267.189095 48.220392 
L 267.475209 48.220392 
L 267.475209 47.513824 
L 267.808112 47.513824 
L 267.884239 46.100686 
L 268.257681 46.100686 
L 268.257681 45.394118 
L 268.468569 45.394118 
L 268.468569 44.687549 
L 269.064631 44.687549 
L 269.064631 43.98098 
L 269.40696 43.98098 
L 269.40696 43.274412 
L 269.688932 43.274412 
L 269.688932 42.567843 
L 269.802765 42.567843 
L 269.856529 41.154706 
L 270.398769 41.154706 
L 270.449458 39.741569 
L 270.518566 39.741569 
L 270.518566 39.035 
L 271.93631 39.035 
L 271.93631 38.328431 
L 272.048306 38.328431 
L 272.117415 36.915294 
L 272.319284 36.915294 
L 272.319284 36.208725 
L 272.455666 36.208725 
L 272.455666 35.502157 
L 272.619304 35.502157 
L 272.70117 33.382451 
L 272.905418 33.382451 
L 272.905418 32.675882 
L 273.162386 32.675882 
L 273.162386 31.969314 
L 275.15383 31.969314 
L 275.15383 31.262745 
L 275.843954 31.262745 
L 275.843954 30.556176 
L 276.293523 30.556176 
L 276.293523 29.849608 
L 277.089892 29.849608 
L 277.089892 29.143039 
L 278.313768 29.143039 
L 278.313768 28.436471 
L 278.4853 28.436471 
L 278.592595 26.316765 
L 279.912617 26.316765 
L 279.942954 24.903627 
L 280.385658 24.903627 
L 280.385658 24.197059 
L 284.412693 24.197059 
L 284.412693 23.49049 
L 286.349611 23.49049 
L 286.349611 22.783922 
L 289.336464 22.783922 
L 289.336464 22.077353 
L 289.842901 22.077353 
L 289.842901 21.370784 
L 292.039979 21.370784 
L 292.039979 20.664216 
L 294.766673 20.664216 
L 294.766673 19.957647 
L 296.210032 19.957647 
L 296.210032 19.251078 
L 297.470188 19.251078 
L 297.470188 18.54451 
L 301.259116 18.54451 
L 301.259116 17.837941 
L 301.64024 17.837941 
L 301.64024 17.131373 
L 306.282394 17.131373 
L 306.282394 16.424804 
L 311.898203 16.424804 
L 311.898203 15.718235 
L 322.550253 15.718235 
L 322.550253 15.011667 
L 331.174851 15.011667 
L 331.174851 14.305098 
L 339.08985 14.305098 
L 339.08985 13.598529 
L 340.688699 13.598529 
L 340.688699 12.891961 
L 347.125693 12.891961 
L 347.125693 12.185392 
L 401.263781 12.185392 
L 401.263781 11.478824 
L 409.837793 11.478824 
L 409.837793 10.772255 
L 410.043078 10.772255 
L 410.112038 9.359118 
L 413.446522 9.359118 
L 413.446522 8.652549 
L 420.771868 8.652549 
L 420.771868 7.94598 
L 421.025544 7.94598 
L 421.025544 7.239412 
L 421.282897 7.239412 
L 421.282897 6.532843 
L 437.488806 6.532843 
L 437.488806 5.826275 
L 453.192 5.826275 
L 453.192 5.826275 
" clip-path="url(#p7ce8fac9f4)" style="fill: none; stroke: #000000; stroke-width: 3; stroke-linecap: square"/>
   </g>
   <g id="line2d_18">
    <path clip-path="url(#p7ce8fac9f4)" style="fill: none; stroke: #000000; stroke-width: 3; stroke-linecap: square"/>
   </g>
   <g id="line2d_19">
    <path d="M 34.16 148.264512 
L 174.281278 148.264512 
L 174.281278 147.514837 
L 175.565478 147.514837 
L 175.565478 146.765163 
L 176.714919 146.765163 
L 176.714919 146.015488 
L 179.52387 146.015488 
L 179.610243 144.516138 
L 188.350986 144.516138 
L 188.350986 143.766463 
L 188.631593 143.766463 
L 188.631593 143.016788 
L 190.816253 143.016788 
L 190.816253 142.267113 
L 191.565606 142.267113 
L 191.565606 141.517438 
L 193.052923 141.517438 
L 193.052923 140.767763 
L 194.349439 140.767763 
L 194.349439 140.018088 
L 195.599109 140.018088 
L 195.599109 139.268413 
L 197.15839 139.268413 
L 197.15839 138.518738 
L 205.985506 138.518738 
L 205.985506 137.769063 
L 214.598849 137.769063 
L 214.598849 137.019388 
L 215.149218 137.019388 
L 215.149218 136.269713 
L 215.411771 136.269713 
L 215.421968 134.770364 
L 216.706168 134.770364 
L 216.796255 133.271014 
L 218.080455 133.271014 
L 218.080455 132.521339 
L 219.841311 132.521339 
L 219.841311 131.771664 
L 220.103864 131.771664 
L 220.103864 131.021989 
L 220.750933 131.021989 
L 220.750933 130.272314 
L 221.717569 130.272314 
L 221.717569 129.522639 
L 221.970883 129.522639 
L 221.970883 128.772964 
L 222.12522 128.772964 
L 222.125831 127.273614 
L 223.410031 127.273614 
L 223.410031 126.523939 
L 223.657409 126.523939 
L 223.657409 125.774264 
L 224.941609 125.774264 
L 224.941609 125.024589 
L 226.409662 125.024589 
L 226.432293 123.52524 
L 226.662976 123.52524 
L 226.694846 122.02589 
L 227.44985 122.02589 
L 227.454796 120.52654 
L 228.220399 120.52654 
L 228.220399 119.776865 
L 228.482952 119.776865 
L 228.482952 119.02719 
L 228.73405 119.02719 
L 228.73405 118.277515 
L 228.986374 118.277515 
L 228.986374 117.52784 
L 229.772283 117.52784 
L 229.772283 116.778165 
L 230.838721 116.778165 
L 230.838721 116.02849 
L 231.101274 116.02849 
L 231.14657 114.52914 
L 231.956944 114.52914 
L 232.049503 113.02979 
L 232.312056 113.02979 
L 232.312056 112.280115 
L 232.588223 112.280115 
L 232.588223 111.530441 
L 232.706297 111.530441 
L 232.810756 109.281416 
L 233.000644 109.281416 
L 233.000644 108.531741 
L 233.253958 108.531741 
L 233.331231 107.032391 
L 234.080583 107.032391 
L 234.080583 106.282716 
L 234.193613 106.282716 
L 234.218837 104.783366 
L 234.48139 104.783366 
L 234.48139 104.033691 
L 234.78875 104.033691 
L 234.78875 103.284016 
L 235.042064 103.284016 
L 235.042064 102.534341 
L 235.5679 102.534341 
L 235.5679 101.784666 
L 235.824178 101.784666 
L 235.858132 100.285316 
L 236.476146 100.285316 
L 236.476146 99.535642 
L 236.739799 99.535642 
L 236.739799 98.785967 
L 237.142331 98.785967 
L 237.142331 98.036292 
L 237.407072 98.036292 
L 237.502849 96.536942 
L 237.660386 96.536942 
L 237.660386 95.787267 
L 238.007724 95.787267 
L 238.114086 94.287917 
L 238.617854 94.287917 
L 238.660806 92.788567 
L 238.871168 92.788567 
L 238.871168 92.038892 
L 239.410159 92.038892 
L 239.410159 91.289217 
L 239.661738 91.289217 
L 239.661738 90.539542 
L 240.192385 90.539542 
L 240.192385 89.789867 
L 240.438511 89.789867 
L 240.516271 87.540843 
L 240.787188 87.540843 
L 240.897476 86.041493 
L 240.941738 86.041493 
L 241.040502 84.542143 
L 241.187096 84.542143 
L 241.187096 83.792468 
L 241.769014 83.792468 
L 241.800165 82.293118 
L 242.429054 82.293118 
L 242.429054 81.543443 
L 243.443662 81.543443 
L 243.443662 80.793768 
L 243.620596 80.793768 
L 243.620596 80.044093 
L 243.984826 80.044093 
L 244.093832 78.544743 
L 244.353831 78.544743 
L 244.353831 77.795068 
L 244.734178 77.795068 
L 244.734178 77.045393 
L 244.904796 77.045393 
L 244.97524 75.546044 
L 245.130604 75.546044 
L 245.130604 74.796369 
L 245.813779 74.796369 
L 245.881938 73.297019 
L 246.221495 73.297019 
L 246.221495 72.547344 
L 247.107254 72.547344 
L 247.107254 71.797669 
L 248.500259 71.797669 
L 248.500259 71.047994 
L 248.767681 71.047994 
L 248.767681 70.298319 
L 248.89536 70.298319 
L 248.949561 68.798969 
L 249.466113 68.798969 
L 249.466113 68.049294 
L 249.711042 68.049294 
L 249.728667 66.549944 
L 250.208446 66.549944 
L 250.222743 65.050594 
L 250.944814 65.050594 
L 250.944814 64.30092 
L 251.513682 64.30092 
L 251.513682 63.551245 
L 251.721587 63.551245 
L 251.721587 62.80157 
L 251.880375 62.80157 
L 251.880375 62.051895 
L 252.393107 62.051895 
L 252.393107 61.30222 
L 252.724464 61.30222 
L 252.73292 59.80287 
L 253.14246 59.80287 
L 253.14246 59.053195 
L 253.509693 59.053195 
L 253.509693 58.30352 
L 254.629777 58.30352 
L 254.629777 57.553845 
L 254.835129 57.553845 
L 254.893798 56.054495 
L 255.351241 56.054495 
L 255.351241 55.30482 
L 255.739539 55.30482 
L 255.739539 54.555145 
L 255.885369 54.555145 
L 255.885369 53.80547 
L 256.034464 53.80547 
L 256.128015 52.306121 
L 256.287778 52.306121 
L 256.287778 51.556446 
L 256.562024 51.556446 
L 256.562024 50.806771 
L 257.019789 50.806771 
L 257.113826 49.307421 
L 257.175963 49.307421 
L 257.175963 48.557746 
L 257.338797 48.557746 
L 257.338797 47.808071 
L 257.769142 47.808071 
L 257.769142 47.058396 
L 257.970911 47.058396 
L 257.970911 46.308721 
L 258.731358 46.308721 
L 258.731358 45.559046 
L 259.256459 45.559046 
L 259.256459 44.809371 
L 259.508131 44.809371 
L 259.508131 44.059696 
L 260.155571 44.059696 
L 260.155571 43.310021 
L 260.904924 43.310021 
L 260.904924 42.560346 
L 261.802645 42.560346 
L 261.802645 41.810671 
L 262.392241 41.810671 
L 262.443402 40.311322 
L 263.97498 40.311322 
L 263.97498 39.561647 
L 264.938427 39.561647 
L 264.938427 38.811972 
L 267.127652 38.811972 
L 267.127652 38.062297 
L 267.767421 38.062297 
L 267.767421 37.312622 
L 270.141074 37.312622 
L 270.141074 36.562947 
L 270.507773 36.562947 
L 270.507773 35.813272 
L 273.519889 35.813272 
L 273.519889 35.063597 
L 273.978634 35.063597 
L 273.978634 34.313922 
L 274.755407 34.313922 
L 274.755407 33.564247 
L 276.175702 33.564247 
L 276.175702 32.814572 
L 280.802385 32.814572 
L 280.802385 32.064897 
L 283.938167 32.064897 
L 283.938167 31.315222 
L 287.20597 31.315222 
L 287.20597 30.565547 
L 288.142293 30.565547 
L 288.142293 29.815872 
L 295.016583 29.815872 
L 295.016583 29.066198 
L 296.471166 29.066198 
L 296.471166 28.316523 
L 299.583947 28.316523 
L 299.583947 27.566848 
L 304.84049 27.566848 
L 304.84049 26.817173 
L 312.651103 26.817173 
L 312.651103 26.067498 
L 314.105686 26.067498 
L 314.105686 25.317823 
L 317.218467 25.317823 
L 317.218467 24.568148 
L 392.555854 24.568148 
L 392.555854 23.818473 
L 392.818408 23.818473 
L 392.818408 23.068798 
L 399.124205 23.068798 
L 399.124205 22.319123 
L 399.37752 22.319123 
L 399.37752 21.569448 
L 410.217393 21.569448 
L 410.217393 20.819773 
L 413.230815 20.819773 
L 413.230815 20.070098 
L 417.068375 20.070098 
L 417.068375 19.320423 
L 417.845148 19.320423 
L 417.845148 18.570748 
L 453.192 18.570748 
L 453.192 18.570748 
" clip-path="url(#p7ce8fac9f4)" style="fill: none; stroke: #00bfbf; stroke-width: 3; stroke-linecap: square"/>
   </g>
   <g id="line2d_20">
    <path clip-path="url(#p7ce8fac9f4)" style="fill: none; stroke: #00bfbf; stroke-width: 3; stroke-linecap: square"/>
   </g>
   <g id="line2d_21">
    <path d="M 34.16 157.233838 
L 153.965537 157.233838 
L 153.965537 156.224454 
L 156.189795 156.224454 
L 156.189795 155.21507 
L 165.536636 155.21507 
L 165.536636 154.205686 
L 169.541012 154.205686 
L 169.541012 153.196303 
L 173.793059 153.196303 
L 173.80664 151.177535 
L 174.969386 151.177535 
L 174.969386 150.168151 
L 185.123272 150.168151 
L 185.123272 149.158768 
L 185.234651 149.158768 
L 185.234651 148.149384 
L 187.003991 148.149384 
L 187.003991 147.14 
L 188.064497 147.14 
L 188.064497 146.130616 
L 188.564727 146.130616 
L 188.564727 145.121232 
L 190.544861 145.121232 
L 190.544861 144.111849 
L 193.583242 144.111849 
L 193.583242 143.102465 
L 194.581491 143.102465 
L 194.581491 142.093081 
L 195.77144 142.093081 
L 195.77144 141.083697 
L 197.135341 141.083697 
L 197.135341 140.074314 
L 200.600905 140.074314 
L 200.698747 138.055546 
L 201.574088 138.055546 
L 201.574088 137.046162 
L 202.212594 137.046162 
L 202.212594 136.036779 
L 202.579466 136.036779 
L 202.579466 135.027395 
L 202.837915 135.027395 
L 202.930083 131.999244 
L 204.252108 131.999244 
L 204.252108 130.98986 
L 204.753639 130.98986 
L 204.753639 129.980476 
L 209.068347 129.980476 
L 209.068347 128.971092 
L 209.947745 128.971092 
L 209.947745 127.961709 
L 211.186506 127.961709 
L 211.200087 125.942941 
L 211.346915 125.942941 
L 211.346915 124.933557 
L 211.559435 124.933557 
L 211.559435 123.924174 
L 214.10048 123.924174 
L 214.10048 122.91479 
L 215.597526 122.91479 
L 215.597526 121.905406 
L 217.609583 121.905406 
L 217.609583 120.896022 
L 218.204169 120.896022 
L 218.21775 118.877255 
L 218.532387 118.877255 
L 218.532387 117.867871 
L 219.067447 117.867871 
L 219.067447 116.858487 
L 219.222232 116.858487 
L 219.222232 115.849104 
L 219.815858 115.849104 
L 219.829439 113.830336 
L 221.102952 113.830336 
L 221.102952 112.820952 
L 222.356904 112.820952 
L 222.370485 110.802185 
L 222.577937 110.802185 
L 222.577937 109.792801 
L 225.255957 109.792801 
L 225.255957 108.783417 
L 225.958174 108.783417 
L 225.958174 107.774034 
L 226.180197 107.774034 
L 226.180197 106.76465 
L 229.8704 106.76465 
L 229.8704 105.755266 
L 231.957791 105.755266 
L 231.957791 104.745882 
L 232.731822 104.745882 
L 232.731822 103.736499 
L 232.975837 103.736499 
L 232.975837 102.727115 
L 234.459407 102.727115 
L 234.528788 100.708347 
L 234.587526 100.708347 
L 234.642923 97.680196 
L 235.307266 97.680196 
L 235.409843 95.661429 
L 237.128571 95.661429 
L 237.128571 94.652045 
L 237.290562 94.652045 
L 237.290562 93.642661 
L 239.310274 93.642661 
L 239.310274 92.633277 
L 239.536236 92.633277 
L 239.536236 91.623894 
L 241.546451 91.623894 
L 241.546451 90.61451 
L 243.15814 90.61451 
L 243.15814 89.605126 
L 243.37999 89.605126 
L 243.37999 88.595742 
L 243.806248 88.595742 
L 243.806248 87.586359 
L 244.642382 87.586359 
L 244.654106 85.567591 
L 245.346382 85.567591 
L 245.346382 84.558207 
L 245.699185 84.558207 
L 245.699185 83.548824 
L 246.058011 83.548824 
L 246.058011 82.53944 
L 247.533267 82.53944 
L 247.533267 81.530056 
L 249.690121 81.530056 
L 249.690121 80.520672 
L 251.570841 80.520672 
L 251.570841 79.511289 
L 252.062672 79.511289 
L 252.076252 77.492521 
L 252.91053 77.492521 
L 252.990973 74.46437 
L 253.166408 74.46437 
L 253.166408 73.454986 
L 260.008636 73.454986 
L 260.008636 72.445602 
L 260.314123 72.445602 
L 260.338289 70.426835 
L 260.921857 70.426835 
L 260.921857 69.417451 
L 261.620325 69.417451 
L 261.620325 68.408067 
L 264.161371 68.408067 
L 264.161371 67.398683 
L 266.056752 67.398683 
L 266.056752 66.3893 
L 266.675998 66.3893 
L 266.675998 65.379916 
L 266.834339 65.379916 
L 266.834339 64.370532 
L 267.682197 64.370532 
L 267.682197 63.361148 
L 269.354019 63.361148 
L 269.354019 62.351765 
L 270.468008 62.351765 
L 270.468008 61.342381 
L 272.348728 61.342381 
L 272.348728 60.332997 
L 275.404953 60.332997 
L 275.404953 59.323613 
L 276.252811 59.323613 
L 276.252811 58.31423 
L 279.445342 58.31423 
L 279.445342 57.304846 
L 279.566342 57.304846 
L 279.566342 56.295462 
L 281.116176 56.295462 
L 281.116176 55.286078 
L 282.244363 55.286078 
L 282.244363 54.276695 
L 283.634297 54.276695 
L 283.634297 53.267311 
L 292.954933 53.267311 
L 292.954933 52.257927 
L 293.867138 52.257927 
L 293.867138 51.248543 
L 294.714997 51.248543 
L 294.714997 50.23916 
L 295.203418 50.23916 
L 295.203418 49.229776 
L 295.632953 49.229776 
L 295.632953 48.220392 
L 296.524641 48.220392 
L 296.524641 47.211008 
L 304.412184 47.211008 
L 304.412184 46.201625 
L 309.913232 46.201625 
L 309.913232 45.192241 
L 317.302528 45.192241 
L 317.302528 44.182857 
L 324.248273 44.182857 
L 324.248273 43.173473 
L 330.691118 43.173473 
L 330.691118 42.16409 
L 332.596865 42.16409 
L 332.596865 41.154706 
L 339.614527 41.154706 
L 339.614527 40.145322 
L 341.226217 40.145322 
L 341.226217 39.135938 
L 343.767262 39.135938 
L 343.767262 38.126555 
L 373.47303 38.126555 
L 373.47303 37.117171 
L 374.320888 37.117171 
L 374.320888 36.107787 
L 453.192 36.107787 
L 453.192 36.107787 
" clip-path="url(#p7ce8fac9f4)" style="fill: none; stroke: #bf00bf; stroke-width: 3; stroke-linecap: square"/>
   </g>
   <g id="line2d_22">
    <path clip-path="url(#p7ce8fac9f4)" style="fill: none; stroke: #bf00bf; stroke-width: 3; stroke-linecap: square"/>
   </g>
   <g id="line2d_23">
    <path d="M 34.16 123.587712 
L 159.940194 123.587712 
L 159.940194 121.232484 
L 185.56973 121.232484 
L 185.56973 118.877255 
L 189.862174 118.877255 
L 189.862174 116.522026 
L 195.199905 116.522026 
L 195.199905 114.166797 
L 203.134888 114.166797 
L 203.134888 111.811569 
L 215.491709 111.811569 
L 215.491709 109.45634 
L 219.855728 109.45634 
L 219.855728 107.101111 
L 224.441518 107.101111 
L 224.441518 104.745882 
L 224.586518 104.745882 
L 224.586518 102.390654 
L 245.485263 102.390654 
L 245.485263 100.035425 
L 250.071053 100.035425 
L 250.071053 97.680196 
L 254.508497 97.680196 
L 254.508497 95.324967 
L 265.378734 95.324967 
L 265.378734 92.969739 
L 273.313717 92.969739 
L 273.313717 90.61451 
L 274.804493 90.61451 
L 274.804493 88.259281 
L 279.165077 88.259281 
L 279.165077 85.904052 
L 282.739476 85.904052 
L 282.739476 83.548824 
L 284.502051 83.548824 
L 284.502051 81.193595 
L 287.10006 81.193595 
L 287.10006 78.838366 
L 289.087841 78.838366 
L 289.087841 76.483137 
L 453.192 76.483137 
" clip-path="url(#p7ce8fac9f4)" style="fill: none; stroke: #ff0000; stroke-width: 3; stroke-linecap: square"/>
   </g>
   <g id="line2d_24">
    <path clip-path="url(#p7ce8fac9f4)" style="fill: none; stroke: #ff0000; stroke-width: 3; stroke-linecap: square"/>
   </g>
   <g id="line2d_25"/>
   <g id="line2d_26">
    <path d="M 243.676 291.28 
L 243.676 3 
" clip-path="url(#p7ce8fac9f4)" style="fill: none; stroke: #000000; stroke-width: 1.5; stroke-linecap: square"/>
   </g>
   <g id="line2d_27">
    <path d="M 34.16 147.14 
L 453.192 147.14 
" clip-path="url(#p7ce8fac9f4)" style="fill: none; stroke-dasharray: 2,3.3; stroke-dashoffset: 0; stroke: #000000; stroke-width: 2"/>
   </g>
   <g id="patch_3">
    <path d="M 34.16 291.28 
L 34.16 3 
" style="fill: none; stroke: #000000; stroke-width: 0.8; stroke-linejoin: miter; stroke-linecap: square"/>
   </g>
   <g id="patch_4">
    <path d="M 453.192 291.28 
L 453.192 3 
" style="fill: none; stroke: #000000; stroke-width: 0.8; stroke-linejoin: miter; stroke-linecap: square"/>
   </g>
   <g id="patch_5">
    <path d="M 34.16 291.28 
L 453.192 291.28 
" style="fill: none; stroke: #000000; stroke-width: 0.8; stroke-linejoin: miter; stroke-linecap: square"/>
   </g>
   <g id="patch_6">
    <path d="M 34.16 3 
L 453.192 3 
" style="fill: none; stroke: #000000; stroke-width: 0.8; stroke-linejoin: miter; stroke-linecap: square"/>
   </g>
   <g id="text_6">
    <!-- f26, f27, f33, f34,5-D -->
    <g transform="translate(235.014485 285.5144)scale(0.2 -0.2)">
     <defs>
      <path id="DejaVuSans-32" d="M 1228 531 
L 3431 531 
L 3431 0 
L 469 0 
L 469 531 
Q 828 903 1448 1529 
Q 2069 2156 2228 2338 
Q 2531 2678 2651 2914 
Q 2772 3150 2772 3378 
Q 2772 3750 2511 3984 
Q 2250 4219 1831 4219 
Q 1534 4219 1204 4116 
Q 875 4013 500 3803 
L 500 4441 
Q 881 4594 1212 4672 
Q 1544 4750 1819 4750 
Q 2544 4750 2975 4387 
Q 3406 4025 3406 3419 
Q 3406 3131 3298 2873 
Q 3191 2616 2906 2266 
Q 2828 2175 2409 1742 
Q 1991 1309 1228 531 
z
" transform="scale(0.015625)"/>
      <path id="DejaVuSans-36" d="M 2113 2584 
Q 1688 2584 1439 2293 
Q 1191 2003 1191 1497 
Q 1191 994 1439 701 
Q 1688 409 2113 409 
Q 2538 409 2786 701 
Q 3034 994 3034 1497 
Q 3034 2003 2786 2293 
Q 2538 2584 2113 2584 
z
M 3366 4563 
L 3366 3988 
Q 3128 4100 2886 4159 
Q 2644 4219 2406 4219 
Q 1781 4219 1451 3797 
Q 1122 3375 1075 2522 
Q 1259 2794 1537 2939 
Q 1816 3084 2150 3084 
Q 2853 3084 3261 2657 
Q 3669 2231 3669 1497 
Q 3669 778 3244 343 
Q 2819 -91 2113 -91 
Q 1303 -91 875 529 
Q 447 1150 447 2328 
Q 447 3434 972 4092 
Q 1497 4750 2381 4750 
Q 2619 4750 2861 4703 
Q 3103 4656 3366 4563 
z
" transform="scale(0.015625)"/>
      <path id="DejaVuSans-2c" d="M 750 794 
L 1409 794 
L 1409 256 
L 897 -744 
L 494 -744 
L 750 256 
L 750 794 
z
" transform="scale(0.015625)"/>
      <path id="DejaVuSans-37" d="M 525 4666 
L 3525 4666 
L 3525 4397 
L 1831 0 
L 1172 0 
L 2766 4134 
L 525 4134 
L 525 4666 
z
" transform="scale(0.015625)"/>
      <path id="DejaVuSans-34" d="M 2419 4116 
L 825 1625 
L 2419 1625 
L 2419 4116 
z
M 2253 4666 
L 3047 4666 
L 3047 1625 
L 3713 1625 
L 3713 1100 
L 3047 1100 
L 3047 0 
L 2419 0 
L 2419 1100 
L 313 1100 
L 313 1709 
L 2253 4666 
z
" transform="scale(0.015625)"/>
      <path id="DejaVuSans-35" d="M 691 4666 
L 3169 4666 
L 3169 4134 
L 1269 4134 
L 1269 2991 
Q 1406 3038 1543 3061 
Q 1681 3084 1819 3084 
Q 2600 3084 3056 2656 
Q 3513 2228 3513 1497 
Q 3513 744 3044 326 
Q 2575 -91 1722 -91 
Q 1428 -91 1123 -41 
Q 819 9 494 109 
L 494 744 
Q 775 591 1075 516 
Q 1375 441 1709 441 
Q 2250 441 2565 725 
Q 2881 1009 2881 1497 
Q 2881 1984 2565 2268 
Q 2250 2553 1709 2553 
Q 1456 2553 1204 2497 
Q 953 2441 691 2322 
L 691 4666 
z
" transform="scale(0.015625)"/>
      <path id="DejaVuSans-44" d="M 1259 4147 
L 1259 519 
L 2022 519 
Q 2988 519 3436 956 
Q 3884 1394 3884 2338 
Q 3884 3275 3436 3711 
Q 2988 4147 2022 4147 
L 1259 4147 
z
M 628 4666 
L 1925 4666 
Q 3281 4666 3915 4102 
Q 4550 3538 4550 2338 
Q 4550 1131 3912 565 
Q 3275 0 1925 0 
L 628 0 
L 628 4666 
z
" transform="scale(0.015625)"/>
     </defs>
     <use xlink:href="#DejaVuSans-66"/>
     <use xlink:href="#DejaVuSans-32" x="35.205078"/>
     <use xlink:href="#DejaVuSans-36" x="98.828125"/>
     <use xlink:href="#DejaVuSans-2c" x="162.451172"/>
     <use xlink:href="#DejaVuSans-20" x="194.238281"/>
     <use xlink:href="#DejaVuSans-66" x="226.025391"/>
     <use xlink:href="#DejaVuSans-32" x="261.230469"/>
     <use xlink:href="#DejaVuSans-37" x="324.853516"/>
     <use xlink:href="#DejaVuSans-2c" x="388.476562"/>
     <use xlink:href="#DejaVuSans-20" x="420.263672"/>
     <use xlink:href="#DejaVuSans-66" x="452.050781"/>
     <use xlink:href="#DejaVuSans-33" x="487.255859"/>
     <use xlink:href="#DejaVuSans-33" x="550.878906"/>
     <use xlink:href="#DejaVuSans-2c" x="614.501953"/>
     <use xlink:href="#DejaVuSans-20" x="646.289062"/>
     <use xlink:href="#DejaVuSans-66" x="678.076172"/>
     <use xlink:href="#DejaVuSans-33" x="713.28125"/>
     <use xlink:href="#DejaVuSans-34" x="776.904297"/>
     <use xlink:href="#DejaVuSans-2c" x="840.527344"/>
     <use xlink:href="#DejaVuSans-35" x="872.314453"/>
     <use xlink:href="#DejaVuSans-2d" x="935.9375"/>
     <use xlink:href="#DejaVuSans-44" x="972.021484"/>
    </g>
   </g>
   <g id="text_7">
    <!-- v2.6.3.13, hv-hash=ff0e71e8cd978373 -->
    <g style="fill: #808080" transform="translate(145.458812 286.317512)scale(0.1 -0.1)">
     <defs>
      <path id="DejaVuSans-2e" d="M 684 794 
L 1344 794 
L 1344 0 
L 684 0 
L 684 794 
z
" transform="scale(0.015625)"/>
      <path id="DejaVuSans-68" d="M 3513 2113 
L 3513 0 
L 2938 0 
L 2938 2094 
Q 2938 2591 2744 2837 
Q 2550 3084 2163 3084 
Q 1697 3084 1428 2787 
Q 1159 2491 1159 1978 
L 1159 0 
L 581 0 
L 581 4863 
L 1159 4863 
L 1159 2956 
Q 1366 3272 1645 3428 
Q 1925 3584 2291 3584 
Q 2894 3584 3203 3211 
Q 3513 2838 3513 2113 
z
" transform="scale(0.015625)"/>
      <path id="DejaVuSans-3d" d="M 678 2906 
L 4684 2906 
L 4684 2381 
L 678 2381 
L 678 2906 
z
M 678 1631 
L 4684 1631 
L 4684 1100 
L 678 1100 
L 678 1631 
z
" transform="scale(0.015625)"/>
      <path id="DejaVuSans-65" d="M 3597 1894 
L 3597 1613 
L 953 1613 
Q 991 1019 1311 708 
Q 1631 397 2203 397 
Q 2534 397 2845 478 
Q 3156 559 3463 722 
L 3463 178 
Q 3153 47 2828 -22 
Q 2503 -91 2169 -91 
Q 1331 -91 842 396 
Q 353 884 353 1716 
Q 353 2575 817 3079 
Q 1281 3584 2069 3584 
Q 2775 3584 3186 3129 
Q 3597 2675 3597 1894 
z
M 3022 2063 
Q 3016 2534 2758 2815 
Q 2500 3097 2075 3097 
Q 1594 3097 1305 2825 
Q 1016 2553 972 2059 
L 3022 2063 
z
" transform="scale(0.015625)"/>
      <path id="DejaVuSans-38" d="M 2034 2216 
Q 1584 2216 1326 1975 
Q 1069 1734 1069 1313 
Q 1069 891 1326 650 
Q 1584 409 2034 409 
Q 2484 409 2743 651 
Q 3003 894 3003 1313 
Q 3003 1734 2745 1975 
Q 2488 2216 2034 2216 
z
M 1403 2484 
Q 997 2584 770 2862 
Q 544 3141 544 3541 
Q 544 4100 942 4425 
Q 1341 4750 2034 4750 
Q 2731 4750 3128 4425 
Q 3525 4100 3525 3541 
Q 3525 3141 3298 2862 
Q 3072 2584 2669 2484 
Q 3125 2378 3379 2068 
Q 3634 1759 3634 1313 
Q 3634 634 3220 271 
Q 2806 -91 2034 -91 
Q 1263 -91 848 271 
Q 434 634 434 1313 
Q 434 1759 690 2068 
Q 947 2378 1403 2484 
z
M 1172 3481 
Q 1172 3119 1398 2916 
Q 1625 2713 2034 2713 
Q 2441 2713 2670 2916 
Q 2900 3119 2900 3481 
Q 2900 3844 2670 4047 
Q 2441 4250 2034 4250 
Q 1625 4250 1398 4047 
Q 1172 3844 1172 3481 
z
" transform="scale(0.015625)"/>
      <path id="DejaVuSans-63" d="M 3122 3366 
L 3122 2828 
Q 2878 2963 2633 3030 
Q 2388 3097 2138 3097 
Q 1578 3097 1268 2742 
Q 959 2388 959 1747 
Q 959 1106 1268 751 
Q 1578 397 2138 397 
Q 2388 397 2633 464 
Q 2878 531 3122 666 
L 3122 134 
Q 2881 22 2623 -34 
Q 2366 -91 2075 -91 
Q 1284 -91 818 406 
Q 353 903 353 1747 
Q 353 2603 823 3093 
Q 1294 3584 2113 3584 
Q 2378 3584 2631 3529 
Q 2884 3475 3122 3366 
z
" transform="scale(0.015625)"/>
      <path id="DejaVuSans-64" d="M 2906 2969 
L 2906 4863 
L 3481 4863 
L 3481 0 
L 2906 0 
L 2906 525 
Q 2725 213 2448 61 
Q 2172 -91 1784 -91 
Q 1150 -91 751 415 
Q 353 922 353 1747 
Q 353 2572 751 3078 
Q 1150 3584 1784 3584 
Q 2172 3584 2448 3432 
Q 2725 3281 2906 2969 
z
M 947 1747 
Q 947 1113 1208 752 
Q 1469 391 1925 391 
Q 2381 391 2643 752 
Q 2906 1113 2906 1747 
Q 2906 2381 2643 2742 
Q 2381 3103 1925 3103 
Q 1469 3103 1208 2742 
Q 947 2381 947 1747 
z
" transform="scale(0.015625)"/>
      <path id="DejaVuSans-39" d="M 703 97 
L 703 672 
Q 941 559 1184 500 
Q 1428 441 1663 441 
Q 2288 441 2617 861 
Q 2947 1281 2994 2138 
Q 2813 1869 2534 1725 
Q 2256 1581 1919 1581 
Q 1219 1581 811 2004 
Q 403 2428 403 3163 
Q 403 3881 828 4315 
Q 1253 4750 1959 4750 
Q 2769 4750 3195 4129 
Q 3622 3509 3622 2328 
Q 3622 1225 3098 567 
Q 2575 -91 1691 -91 
Q 1453 -91 1209 -44 
Q 966 3 703 97 
z
M 1959 2075 
Q 2384 2075 2632 2365 
Q 2881 2656 2881 3163 
Q 2881 3666 2632 3958 
Q 2384 4250 1959 4250 
Q 1534 4250 1286 3958 
Q 1038 3666 1038 3163 
Q 1038 2656 1286 2365 
Q 1534 2075 1959 2075 
z
" transform="scale(0.015625)"/>
     </defs>
     <use xlink:href="#DejaVuSans-76"/>
     <use xlink:href="#DejaVuSans-32" x="59.179688"/>
     <use xlink:href="#DejaVuSans-2e" x="122.802734"/>
     <use xlink:href="#DejaVuSans-36" x="154.589844"/>
     <use xlink:href="#DejaVuSans-2e" x="218.212891"/>
     <use xlink:href="#DejaVuSans-33" x="250"/>
     <use xlink:href="#DejaVuSans-2e" x="313.623047"/>
     <use xlink:href="#DejaVuSans-31" x="345.410156"/>
     <use xlink:href="#DejaVuSans-33" x="409.033203"/>
     <use xlink:href="#DejaVuSans-2c" x="472.65625"/>
     <use xlink:href="#DejaVuSans-20" x="504.443359"/>
     <use xlink:href="#DejaVuSans-68" x="536.230469"/>
     <use xlink:href="#DejaVuSans-76" x="599.609375"/>
     <use xlink:href="#DejaVuSans-2d" x="656.164062"/>
     <use xlink:href="#DejaVuSans-68" x="692.248047"/>
     <use xlink:href="#DejaVuSans-61" x="755.626953"/>
     <use xlink:href="#DejaVuSans-73" x="816.90625"/>
     <use xlink:href="#DejaVuSans-68" x="869.005859"/>
     <use xlink:href="#DejaVuSans-3d" x="932.384766"/>
     <use xlink:href="#DejaVuSans-66" x="1016.173828"/>
     <use xlink:href="#DejaVuSans-66" x="1051.378906"/>
     <use xlink:href="#DejaVuSans-30" x="1086.583984"/>
     <use xlink:href="#DejaVuSans-65" x="1150.207031"/>
     <use xlink:href="#DejaVuSans-37" x="1211.730469"/>
     <use xlink:href="#DejaVuSans-31" x="1275.353516"/>
     <use xlink:href="#DejaVuSans-65" x="1338.976562"/>
     <use xlink:href="#DejaVuSans-38" x="1400.5"/>
     <use xlink:href="#DejaVuSans-63" x="1464.123047"/>
     <use xlink:href="#DejaVuSans-64" x="1519.103516"/>
     <use xlink:href="#DejaVuSans-39" x="1582.580078"/>
     <use xlink:href="#DejaVuSans-37" x="1646.203125"/>
     <use xlink:href="#DejaVuSans-38" x="1709.826172"/>
     <use xlink:href="#DejaVuSans-33" x="1773.449219"/>
     <use xlink:href="#DejaVuSans-37" x="1837.072266"/>
     <use xlink:href="#DejaVuSans-33" x="1900.695312"/>
    </g>
   </g>
   <g id="legend_1">
    <g id="patch_7">
     <path d="M 309.970125 281.28 
L 439.192 281.28 
Q 443.192 281.28 443.192 277.28 
L 443.192 132.49875 
Q 443.192 128.49875 439.192 128.49875 
L 309.970125 128.49875 
Q 305.970125 128.49875 305.970125 132.49875 
L 305.970125 277.28 
Q 305.970125 281.28 309.970125 281.28 
z
" style="fill: #ffffff; opacity: 0.2; stroke: #cccccc; stroke-linejoin: miter"/>
    </g>
    <g id="line2d_28">
     <path d="M 313.970125 144.695625 
L 333.970125 144.695625 
L 353.970125 144.695625 
" style="fill: none; stroke: #000000; stroke-width: 3; stroke-linecap: square"/>
    </g>
    <g id="text_8">
     <!-- -1: 4/4 -->
     <g transform="translate(369.970125 151.695625)scale(0.2 -0.2)">
      <defs>
       <path id="DejaVuSans-3a" d="M 750 794 
L 1409 794 
L 1409 0 
L 750 0 
L 750 794 
z
M 750 3309 
L 1409 3309 
L 1409 2516 
L 750 2516 
L 750 3309 
z
" transform="scale(0.015625)"/>
       <path id="DejaVuSans-2f" d="M 1625 4666 
L 2156 4666 
L 531 -594 
L 0 -594 
L 1625 4666 
z
" transform="scale(0.015625)"/>
      </defs>
      <use xlink:href="#DejaVuSans-2d"/>
      <use xlink:href="#DejaVuSans-31" x="36.083984"/>
      <use xlink:href="#DejaVuSans-3a" x="99.707031"/>
      <use xlink:href="#DejaVuSans-20" x="133.398438"/>
      <use xlink:href="#DejaVuSans-34" x="165.185547"/>
      <use xlink:href="#DejaVuSans-2f" x="228.808594"/>
      <use xlink:href="#DejaVuSans-34" x="262.5"/>
     </g>
    </g>
    <g id="line2d_29">
     <path d="M 313.970125 174.051875 
L 333.970125 174.051875 
L 353.970125 174.051875 
" style="fill: none; stroke: #00bfbf; stroke-width: 3; stroke-linecap: square"/>
    </g>
    <g id="text_9">
     <!-- -2: 4/3 -->
     <g transform="translate(369.970125 181.051875)scale(0.2 -0.2)">
      <use xlink:href="#DejaVuSans-2d"/>
      <use xlink:href="#DejaVuSans-32" x="36.083984"/>
      <use xlink:href="#DejaVuSans-3a" x="99.707031"/>
      <use xlink:href="#DejaVuSans-20" x="133.398438"/>
      <use xlink:href="#DejaVuSans-34" x="165.185547"/>
      <use xlink:href="#DejaVuSans-2f" x="228.808594"/>
      <use xlink:href="#DejaVuSans-33" x="262.5"/>
     </g>
    </g>
    <g id="line2d_30">
     <path d="M 313.970125 203.408125 
L 333.970125 203.408125 
L 353.970125 203.408125 
" style="fill: none; stroke: #bf00bf; stroke-width: 3; stroke-linecap: square"/>
    </g>
    <g id="text_10">
     <!-- -3: 4/2 -->
     <g transform="translate(369.970125 210.408125)scale(0.2 -0.2)">
      <use xlink:href="#DejaVuSans-2d"/>
      <use xlink:href="#DejaVuSans-33" x="36.083984"/>
      <use xlink:href="#DejaVuSans-3a" x="99.707031"/>
      <use xlink:href="#DejaVuSans-20" x="133.398438"/>
      <use xlink:href="#DejaVuSans-34" x="165.185547"/>
      <use xlink:href="#DejaVuSans-2f" x="228.808594"/>
      <use xlink:href="#DejaVuSans-32" x="262.5"/>
     </g>
    </g>
    <g id="line2d_31">
     <path d="M 313.970125 232.764375 
L 333.970125 232.764375 
L 353.970125 232.764375 
" style="fill: none; stroke: #ff0000; stroke-width: 3; stroke-linecap: square"/>
    </g>
    <g id="text_11">
     <!-- -4: 3/2 -->
     <g transform="translate(369.970125 239.764375)scale(0.2 -0.2)">
      <use xlink:href="#DejaVuSans-2d"/>
      <use xlink:href="#DejaVuSans-34" x="36.083984"/>
      <use xlink:href="#DejaVuSans-3a" x="99.707031"/>
      <use xlink:href="#DejaVuSans-20" x="133.398438"/>
      <use xlink:href="#DejaVuSans-33" x="165.185547"/>
      <use xlink:href="#DejaVuSans-2f" x="228.808594"/>
      <use xlink:href="#DejaVuSans-32" x="262.5"/>
     </g>
    </g>
    <g id="line2d_32">
     <path d="M 313.970125 262.120625 
L 333.970125 262.120625 
L 353.970125 262.120625 
" style="fill: none; stroke: #0000ff; stroke-width: 3; stroke-linecap: square"/>
    </g>
    <g id="text_12">
     <!-- -5: 0/0 -->
     <g transform="translate(369.970125 269.120625)scale(0.2 -0.2)">
      <use xlink:href="#DejaVuSans-2d"/>
      <use xlink:href="#DejaVuSans-35" x="36.083984"/>
      <use xlink:href="#DejaVuSans-3a" x="99.707031"/>
      <use xlink:href="#DejaVuSans-20" x="133.398438"/>
      <use xlink:href="#DejaVuSans-30" x="165.185547"/>
      <use xlink:href="#DejaVuSans-2f" x="228.808594"/>
      <use xlink:href="#DejaVuSans-30" x="262.5"/>
     </g>
    </g>
   </g>
  </g>
 </g>
 <defs>
  <clipPath id="p7ce8fac9f4">
   <rect x="34.16" y="3" width="419.032" height="288.28"/>
  </clipPath>
 </defs>
</svg>
