<?xml version="1.0" encoding="utf-8" standalone="no"?>
<!DOCTYPE svg PUBLIC "-//W3C//DTD SVG 1.1//EN"
  "http://www.w3.org/Graphics/SVG/1.1/DTD/svg11.dtd">
<svg xmlns:xlink="http://www.w3.org/1999/xlink" width="460.8pt" height="345.6pt" viewBox="0 0 460.8 345.6" xmlns="http://www.w3.org/2000/svg" version="1.1">
 <metadata>
  <rdf:RDF xmlns:dc="http://purl.org/dc/elements/1.1/" xmlns:cc="http://creativecommons.org/ns#" xmlns:rdf="http://www.w3.org/1999/02/22-rdf-syntax-ns#">
   <cc:Work>
    <dc:type rdf:resource="http://purl.org/dc/dcmitype/StillImage"/>
    <dc:date>2023-06-02T15:28:15.994567</dc:date>
    <dc:format>image/svg+xml</dc:format>
    <dc:creator>
     <cc:Agent>
      <dc:title>Matplotlib v3.5.2, https://matplotlib.org/</dc:title>
     </cc:Agent>
    </dc:creator>
   </cc:Work>
  </rdf:RDF>
 </metadata>
 <defs>
  <style type="text/css">*{stroke-linejoin: round; stroke-linecap: butt}</style>
 </defs>
 <g id="figure_1">
  <g id="patch_1">
   <path d="M 0 345.6 
L 460.8 345.6 
L 460.8 0 
L 0 0 
z
" style="fill: #ffffff"/>
  </g>
  <g id="axes_1">
   <g id="patch_2">
    <path d="M 34.16 291.28 
L 453.192 291.28 
L 453.192 3 
L 34.16 3 
z
" style="fill: #ffffff"/>
   </g>
   <g id="matplotlib.axis_1">
    <g id="xtick_1">
     <g id="line2d_1">
      <path d="M 165.381197 291.28 
L 165.381197 3 
" clip-path="url(#pd60ec154cd)" style="fill: none; stroke: #b0b0b0; stroke-width: 0.8; stroke-linecap: square"/>
     </g>
     <g id="line2d_2">
      <defs>
       <path id="m8ecee45299" d="M 0 0 
L 0 3.5 
" style="stroke: #000000; stroke-width: 0.8"/>
      </defs>
      <g>
       <use xlink:href="#m8ecee45299" x="165.381197" y="291.28" style="stroke: #000000; stroke-width: 0.8"/>
      </g>
     </g>
     <g id="text_1">
      <!-- -1 -->
      <g transform="translate(155.410884 313.476875)scale(0.2 -0.2)">
       <defs>
        <path id="DejaVuSans-2d" d="M 313 2009 
L 1997 2009 
L 1997 1497 
L 313 1497 
L 313 2009 
z
" transform="scale(0.015625)"/>
        <path id="DejaVuSans-31" d="M 794 531 
L 1825 531 
L 1825 4091 
L 703 3866 
L 703 4441 
L 1819 4666 
L 2450 4666 
L 2450 531 
L 3481 531 
L 3481 0 
L 794 0 
L 794 531 
z
" transform="scale(0.015625)"/>
       </defs>
       <use xlink:href="#DejaVuSans-2d"/>
       <use xlink:href="#DejaVuSans-31" x="36.083984"/>
      </g>
     </g>
    </g>
    <g id="xtick_2">
     <g id="line2d_3">
      <path d="M 321.970803 291.28 
L 321.970803 3 
" clip-path="url(#pd60ec154cd)" style="fill: none; stroke: #b0b0b0; stroke-width: 0.8; stroke-linecap: square"/>
     </g>
     <g id="line2d_4">
      <g>
       <use xlink:href="#m8ecee45299" x="321.970803" y="291.28" style="stroke: #000000; stroke-width: 0.8"/>
      </g>
     </g>
     <g id="text_2">
      <!-- 1 -->
      <g transform="translate(315.608303 313.476875)scale(0.2 -0.2)">
       <use xlink:href="#DejaVuSans-31"/>
      </g>
     </g>
    </g>
    <g id="xtick_3">
     <g id="line2d_5">
      <defs>
       <path id="mc7275a9e97" d="M 0 0 
L 0 2 
" style="stroke: #000000; stroke-width: 0.6"/>
      </defs>
      <g>
       <use xlink:href="#mc7275a9e97" x="46.147705" y="291.28" style="stroke: #000000; stroke-width: 0.6"/>
      </g>
     </g>
    </g>
    <g id="xtick_4">
     <g id="line2d_6">
      <g>
       <use xlink:href="#mc7275a9e97" x="55.929759" y="291.28" style="stroke: #000000; stroke-width: 0.6"/>
      </g>
     </g>
    </g>
    <g id="xtick_5">
     <g id="line2d_7">
      <g>
       <use xlink:href="#mc7275a9e97" x="63.51731" y="291.28" style="stroke: #000000; stroke-width: 0.6"/>
      </g>
     </g>
    </g>
    <g id="xtick_6">
     <g id="line2d_8">
      <g>
       <use xlink:href="#mc7275a9e97" x="69.71679" y="291.28" style="stroke: #000000; stroke-width: 0.6"/>
      </g>
     </g>
    </g>
    <g id="xtick_7">
     <g id="line2d_9">
      <g>
       <use xlink:href="#mc7275a9e97" x="74.958375" y="291.28" style="stroke: #000000; stroke-width: 0.6"/>
      </g>
     </g>
    </g>
    <g id="xtick_8">
     <g id="line2d_10">
      <g>
       <use xlink:href="#mc7275a9e97" x="79.498843" y="291.28" style="stroke: #000000; stroke-width: 0.6"/>
      </g>
     </g>
    </g>
    <g id="xtick_9">
     <g id="line2d_11">
      <g>
       <use xlink:href="#mc7275a9e97" x="83.50382" y="291.28" style="stroke: #000000; stroke-width: 0.6"/>
      </g>
     </g>
    </g>
    <g id="xtick_10">
     <g id="line2d_12">
      <g>
       <use xlink:href="#mc7275a9e97" x="110.655478" y="291.28" style="stroke: #000000; stroke-width: 0.6"/>
      </g>
     </g>
    </g>
    <g id="xtick_11">
     <g id="line2d_13">
      <g>
       <use xlink:href="#mc7275a9e97" x="124.442509" y="291.28" style="stroke: #000000; stroke-width: 0.6"/>
      </g>
     </g>
    </g>
    <g id="xtick_12">
     <g id="line2d_14">
      <g>
       <use xlink:href="#mc7275a9e97" x="134.224562" y="291.28" style="stroke: #000000; stroke-width: 0.6"/>
      </g>
     </g>
    </g>
    <g id="xtick_13">
     <g id="line2d_15">
      <g>
       <use xlink:href="#mc7275a9e97" x="141.812113" y="291.28" style="stroke: #000000; stroke-width: 0.6"/>
      </g>
     </g>
    </g>
    <g id="xtick_14">
     <g id="line2d_16">
      <g>
       <use xlink:href="#mc7275a9e97" x="148.011593" y="291.28" style="stroke: #000000; stroke-width: 0.6"/>
      </g>
     </g>
    </g>
    <g id="xtick_15">
     <g id="line2d_17">
      <g>
       <use xlink:href="#mc7275a9e97" x="153.253178" y="291.28" style="stroke: #000000; stroke-width: 0.6"/>
      </g>
     </g>
    </g>
    <g id="xtick_16">
     <g id="line2d_18">
      <g>
       <use xlink:href="#mc7275a9e97" x="157.793647" y="291.28" style="stroke: #000000; stroke-width: 0.6"/>
      </g>
     </g>
    </g>
    <g id="xtick_17">
     <g id="line2d_19">
      <g>
       <use xlink:href="#mc7275a9e97" x="161.798623" y="291.28" style="stroke: #000000; stroke-width: 0.6"/>
      </g>
     </g>
    </g>
    <g id="xtick_18">
     <g id="line2d_20">
      <g>
       <use xlink:href="#mc7275a9e97" x="188.950281" y="291.28" style="stroke: #000000; stroke-width: 0.6"/>
      </g>
     </g>
    </g>
    <g id="xtick_19">
     <g id="line2d_21">
      <g>
       <use xlink:href="#mc7275a9e97" x="202.737312" y="291.28" style="stroke: #000000; stroke-width: 0.6"/>
      </g>
     </g>
    </g>
    <g id="xtick_20">
     <g id="line2d_22">
      <g>
       <use xlink:href="#mc7275a9e97" x="212.519365" y="291.28" style="stroke: #000000; stroke-width: 0.6"/>
      </g>
     </g>
    </g>
    <g id="xtick_21">
     <g id="line2d_23">
      <g>
       <use xlink:href="#mc7275a9e97" x="220.106916" y="291.28" style="stroke: #000000; stroke-width: 0.6"/>
      </g>
     </g>
    </g>
    <g id="xtick_22">
     <g id="line2d_24">
      <g>
       <use xlink:href="#mc7275a9e97" x="226.306396" y="291.28" style="stroke: #000000; stroke-width: 0.6"/>
      </g>
     </g>
    </g>
    <g id="xtick_23">
     <g id="line2d_25">
      <g>
       <use xlink:href="#mc7275a9e97" x="231.547982" y="291.28" style="stroke: #000000; stroke-width: 0.6"/>
      </g>
     </g>
    </g>
    <g id="xtick_24">
     <g id="line2d_26">
      <g>
       <use xlink:href="#mc7275a9e97" x="236.08845" y="291.28" style="stroke: #000000; stroke-width: 0.6"/>
      </g>
     </g>
    </g>
    <g id="xtick_25">
     <g id="line2d_27">
      <g>
       <use xlink:href="#mc7275a9e97" x="240.093426" y="291.28" style="stroke: #000000; stroke-width: 0.6"/>
      </g>
     </g>
    </g>
    <g id="xtick_26">
     <g id="line2d_28">
      <g>
       <use xlink:href="#mc7275a9e97" x="267.245084" y="291.28" style="stroke: #000000; stroke-width: 0.6"/>
      </g>
     </g>
    </g>
    <g id="xtick_27">
     <g id="line2d_29">
      <g>
       <use xlink:href="#mc7275a9e97" x="281.032115" y="291.28" style="stroke: #000000; stroke-width: 0.6"/>
      </g>
     </g>
    </g>
    <g id="xtick_28">
     <g id="line2d_30">
      <g>
       <use xlink:href="#mc7275a9e97" x="290.814168" y="291.28" style="stroke: #000000; stroke-width: 0.6"/>
      </g>
     </g>
    </g>
    <g id="xtick_29">
     <g id="line2d_31">
      <g>
       <use xlink:href="#mc7275a9e97" x="298.401719" y="291.28" style="stroke: #000000; stroke-width: 0.6"/>
      </g>
     </g>
    </g>
    <g id="xtick_30">
     <g id="line2d_32">
      <g>
       <use xlink:href="#mc7275a9e97" x="304.601199" y="291.28" style="stroke: #000000; stroke-width: 0.6"/>
      </g>
     </g>
    </g>
    <g id="xtick_31">
     <g id="line2d_33">
      <g>
       <use xlink:href="#mc7275a9e97" x="309.842785" y="291.28" style="stroke: #000000; stroke-width: 0.6"/>
      </g>
     </g>
    </g>
    <g id="xtick_32">
     <g id="line2d_34">
      <g>
       <use xlink:href="#mc7275a9e97" x="314.383253" y="291.28" style="stroke: #000000; stroke-width: 0.6"/>
      </g>
     </g>
    </g>
    <g id="xtick_33">
     <g id="line2d_35">
      <g>
       <use xlink:href="#mc7275a9e97" x="318.388229" y="291.28" style="stroke: #000000; stroke-width: 0.6"/>
      </g>
     </g>
    </g>
    <g id="xtick_34">
     <g id="line2d_36">
      <g>
       <use xlink:href="#mc7275a9e97" x="345.539887" y="291.28" style="stroke: #000000; stroke-width: 0.6"/>
      </g>
     </g>
    </g>
    <g id="xtick_35">
     <g id="line2d_37">
      <g>
       <use xlink:href="#mc7275a9e97" x="359.326918" y="291.28" style="stroke: #000000; stroke-width: 0.6"/>
      </g>
     </g>
    </g>
    <g id="xtick_36">
     <g id="line2d_38">
      <g>
       <use xlink:href="#mc7275a9e97" x="369.108972" y="291.28" style="stroke: #000000; stroke-width: 0.6"/>
      </g>
     </g>
    </g>
    <g id="xtick_37">
     <g id="line2d_39">
      <g>
       <use xlink:href="#mc7275a9e97" x="376.696522" y="291.28" style="stroke: #000000; stroke-width: 0.6"/>
      </g>
     </g>
    </g>
    <g id="xtick_38">
     <g id="line2d_40">
      <g>
       <use xlink:href="#mc7275a9e97" x="382.896002" y="291.28" style="stroke: #000000; stroke-width: 0.6"/>
      </g>
     </g>
    </g>
    <g id="xtick_39">
     <g id="line2d_41">
      <g>
       <use xlink:href="#mc7275a9e97" x="388.137588" y="291.28" style="stroke: #000000; stroke-width: 0.6"/>
      </g>
     </g>
    </g>
    <g id="xtick_40">
     <g id="line2d_42">
      <g>
       <use xlink:href="#mc7275a9e97" x="392.678056" y="291.28" style="stroke: #000000; stroke-width: 0.6"/>
      </g>
     </g>
    </g>
    <g id="xtick_41">
     <g id="line2d_43">
      <g>
       <use xlink:href="#mc7275a9e97" x="396.683032" y="291.28" style="stroke: #000000; stroke-width: 0.6"/>
      </g>
     </g>
    </g>
    <g id="xtick_42">
     <g id="line2d_44">
      <g>
       <use xlink:href="#mc7275a9e97" x="423.83469" y="291.28" style="stroke: #000000; stroke-width: 0.6"/>
      </g>
     </g>
    </g>
    <g id="xtick_43">
     <g id="line2d_45">
      <g>
       <use xlink:href="#mc7275a9e97" x="437.621721" y="291.28" style="stroke: #000000; stroke-width: 0.6"/>
      </g>
     </g>
    </g>
    <g id="xtick_44">
     <g id="line2d_46">
      <g>
       <use xlink:href="#mc7275a9e97" x="447.403775" y="291.28" style="stroke: #000000; stroke-width: 0.6"/>
      </g>
     </g>
    </g>
    <g id="text_3">
     <!-- log10 of FEvals ratio -->
     <g transform="translate(141.371312 336.833125)scale(0.2 -0.2)">
      <defs>
       <path id="DejaVuSans-6c" d="M 603 4863 
L 1178 4863 
L 1178 0 
L 603 0 
L 603 4863 
z
" transform="scale(0.015625)"/>
       <path id="DejaVuSans-6f" d="M 1959 3097 
Q 1497 3097 1228 2736 
Q 959 2375 959 1747 
Q 959 1119 1226 758 
Q 1494 397 1959 397 
Q 2419 397 2687 759 
Q 2956 1122 2956 1747 
Q 2956 2369 2687 2733 
Q 2419 3097 1959 3097 
z
M 1959 3584 
Q 2709 3584 3137 3096 
Q 3566 2609 3566 1747 
Q 3566 888 3137 398 
Q 2709 -91 1959 -91 
Q 1206 -91 779 398 
Q 353 888 353 1747 
Q 353 2609 779 3096 
Q 1206 3584 1959 3584 
z
" transform="scale(0.015625)"/>
       <path id="DejaVuSans-67" d="M 2906 1791 
Q 2906 2416 2648 2759 
Q 2391 3103 1925 3103 
Q 1463 3103 1205 2759 
Q 947 2416 947 1791 
Q 947 1169 1205 825 
Q 1463 481 1925 481 
Q 2391 481 2648 825 
Q 2906 1169 2906 1791 
z
M 3481 434 
Q 3481 -459 3084 -895 
Q 2688 -1331 1869 -1331 
Q 1566 -1331 1297 -1286 
Q 1028 -1241 775 -1147 
L 775 -588 
Q 1028 -725 1275 -790 
Q 1522 -856 1778 -856 
Q 2344 -856 2625 -561 
Q 2906 -266 2906 331 
L 2906 616 
Q 2728 306 2450 153 
Q 2172 0 1784 0 
Q 1141 0 747 490 
Q 353 981 353 1791 
Q 353 2603 747 3093 
Q 1141 3584 1784 3584 
Q 2172 3584 2450 3431 
Q 2728 3278 2906 2969 
L 2906 3500 
L 3481 3500 
L 3481 434 
z
" transform="scale(0.015625)"/>
       <path id="DejaVuSans-30" d="M 2034 4250 
Q 1547 4250 1301 3770 
Q 1056 3291 1056 2328 
Q 1056 1369 1301 889 
Q 1547 409 2034 409 
Q 2525 409 2770 889 
Q 3016 1369 3016 2328 
Q 3016 3291 2770 3770 
Q 2525 4250 2034 4250 
z
M 2034 4750 
Q 2819 4750 3233 4129 
Q 3647 3509 3647 2328 
Q 3647 1150 3233 529 
Q 2819 -91 2034 -91 
Q 1250 -91 836 529 
Q 422 1150 422 2328 
Q 422 3509 836 4129 
Q 1250 4750 2034 4750 
z
" transform="scale(0.015625)"/>
       <path id="DejaVuSans-20" transform="scale(0.015625)"/>
       <path id="DejaVuSans-66" d="M 2375 4863 
L 2375 4384 
L 1825 4384 
Q 1516 4384 1395 4259 
Q 1275 4134 1275 3809 
L 1275 3500 
L 2222 3500 
L 2222 3053 
L 1275 3053 
L 1275 0 
L 697 0 
L 697 3053 
L 147 3053 
L 147 3500 
L 697 3500 
L 697 3744 
Q 697 4328 969 4595 
Q 1241 4863 1831 4863 
L 2375 4863 
z
" transform="scale(0.015625)"/>
       <path id="DejaVuSans-46" d="M 628 4666 
L 3309 4666 
L 3309 4134 
L 1259 4134 
L 1259 2759 
L 3109 2759 
L 3109 2228 
L 1259 2228 
L 1259 0 
L 628 0 
L 628 4666 
z
" transform="scale(0.015625)"/>
       <path id="DejaVuSans-45" d="M 628 4666 
L 3578 4666 
L 3578 4134 
L 1259 4134 
L 1259 2753 
L 3481 2753 
L 3481 2222 
L 1259 2222 
L 1259 531 
L 3634 531 
L 3634 0 
L 628 0 
L 628 4666 
z
" transform="scale(0.015625)"/>
       <path id="DejaVuSans-76" d="M 191 3500 
L 800 3500 
L 1894 563 
L 2988 3500 
L 3597 3500 
L 2284 0 
L 1503 0 
L 191 3500 
z
" transform="scale(0.015625)"/>
       <path id="DejaVuSans-61" d="M 2194 1759 
Q 1497 1759 1228 1600 
Q 959 1441 959 1056 
Q 959 750 1161 570 
Q 1363 391 1709 391 
Q 2188 391 2477 730 
Q 2766 1069 2766 1631 
L 2766 1759 
L 2194 1759 
z
M 3341 1997 
L 3341 0 
L 2766 0 
L 2766 531 
Q 2569 213 2275 61 
Q 1981 -91 1556 -91 
Q 1019 -91 701 211 
Q 384 513 384 1019 
Q 384 1609 779 1909 
Q 1175 2209 1959 2209 
L 2766 2209 
L 2766 2266 
Q 2766 2663 2505 2880 
Q 2244 3097 1772 3097 
Q 1472 3097 1187 3025 
Q 903 2953 641 2809 
L 641 3341 
Q 956 3463 1253 3523 
Q 1550 3584 1831 3584 
Q 2591 3584 2966 3190 
Q 3341 2797 3341 1997 
z
" transform="scale(0.015625)"/>
       <path id="DejaVuSans-73" d="M 2834 3397 
L 2834 2853 
Q 2591 2978 2328 3040 
Q 2066 3103 1784 3103 
Q 1356 3103 1142 2972 
Q 928 2841 928 2578 
Q 928 2378 1081 2264 
Q 1234 2150 1697 2047 
L 1894 2003 
Q 2506 1872 2764 1633 
Q 3022 1394 3022 966 
Q 3022 478 2636 193 
Q 2250 -91 1575 -91 
Q 1294 -91 989 -36 
Q 684 19 347 128 
L 347 722 
Q 666 556 975 473 
Q 1284 391 1588 391 
Q 1994 391 2212 530 
Q 2431 669 2431 922 
Q 2431 1156 2273 1281 
Q 2116 1406 1581 1522 
L 1381 1569 
Q 847 1681 609 1914 
Q 372 2147 372 2553 
Q 372 3047 722 3315 
Q 1072 3584 1716 3584 
Q 2034 3584 2315 3537 
Q 2597 3491 2834 3397 
z
" transform="scale(0.015625)"/>
       <path id="DejaVuSans-72" d="M 2631 2963 
Q 2534 3019 2420 3045 
Q 2306 3072 2169 3072 
Q 1681 3072 1420 2755 
Q 1159 2438 1159 1844 
L 1159 0 
L 581 0 
L 581 3500 
L 1159 3500 
L 1159 2956 
Q 1341 3275 1631 3429 
Q 1922 3584 2338 3584 
Q 2397 3584 2469 3576 
Q 2541 3569 2628 3553 
L 2631 2963 
z
" transform="scale(0.015625)"/>
       <path id="DejaVuSans-74" d="M 1172 4494 
L 1172 3500 
L 2356 3500 
L 2356 3053 
L 1172 3053 
L 1172 1153 
Q 1172 725 1289 603 
Q 1406 481 1766 481 
L 2356 481 
L 2356 0 
L 1766 0 
Q 1100 0 847 248 
Q 594 497 594 1153 
L 594 3053 
L 172 3053 
L 172 3500 
L 594 3500 
L 594 4494 
L 1172 4494 
z
" transform="scale(0.015625)"/>
       <path id="DejaVuSans-69" d="M 603 3500 
L 1178 3500 
L 1178 0 
L 603 0 
L 603 3500 
z
M 603 4863 
L 1178 4863 
L 1178 4134 
L 603 4134 
L 603 4863 
z
" transform="scale(0.015625)"/>
      </defs>
      <use xlink:href="#DejaVuSans-6c"/>
      <use xlink:href="#DejaVuSans-6f" x="27.783203"/>
      <use xlink:href="#DejaVuSans-67" x="88.964844"/>
      <use xlink:href="#DejaVuSans-31" x="152.441406"/>
      <use xlink:href="#DejaVuSans-30" x="216.064453"/>
      <use xlink:href="#DejaVuSans-20" x="279.6875"/>
      <use xlink:href="#DejaVuSans-6f" x="311.474609"/>
      <use xlink:href="#DejaVuSans-66" x="372.65625"/>
      <use xlink:href="#DejaVuSans-20" x="407.861328"/>
      <use xlink:href="#DejaVuSans-46" x="439.648438"/>
      <use xlink:href="#DejaVuSans-45" x="497.167969"/>
      <use xlink:href="#DejaVuSans-76" x="560.351562"/>
      <use xlink:href="#DejaVuSans-61" x="619.53125"/>
      <use xlink:href="#DejaVuSans-6c" x="680.810547"/>
      <use xlink:href="#DejaVuSans-73" x="708.59375"/>
      <use xlink:href="#DejaVuSans-20" x="760.693359"/>
      <use xlink:href="#DejaVuSans-72" x="792.480469"/>
      <use xlink:href="#DejaVuSans-61" x="833.59375"/>
      <use xlink:href="#DejaVuSans-74" x="894.873047"/>
      <use xlink:href="#DejaVuSans-69" x="934.082031"/>
      <use xlink:href="#DejaVuSans-6f" x="961.865234"/>
     </g>
    </g>
   </g>
   <g id="matplotlib.axis_2">
    <g id="ytick_1">
     <g id="line2d_47">
      <path d="M 34.16 288.453725 
L 453.192 288.453725 
" clip-path="url(#pd60ec154cd)" style="fill: none; stroke: #b0b0b0; stroke-width: 0.8; stroke-linecap: square"/>
     </g>
     <g id="line2d_48">
      <defs>
       <path id="mc4e72bd6ed" d="M 0 0 
L -3.5 0 
" style="stroke: #000000; stroke-width: 0.8"/>
      </defs>
      <g>
       <use xlink:href="#mc4e72bd6ed" x="34.16" y="288.453725" style="stroke: #000000; stroke-width: 0.8"/>
      </g>
     </g>
    </g>
    <g id="ytick_2">
     <g id="line2d_49">
      <path d="M 34.16 217.796863 
L 453.192 217.796863 
" clip-path="url(#pd60ec154cd)" style="fill: none; stroke: #b0b0b0; stroke-width: 0.8; stroke-linecap: square"/>
     </g>
     <g id="line2d_50">
      <g>
       <use xlink:href="#mc4e72bd6ed" x="34.16" y="217.796863" style="stroke: #000000; stroke-width: 0.8"/>
      </g>
     </g>
    </g>
    <g id="ytick_3">
     <g id="line2d_51">
      <path d="M 34.16 147.14 
L 453.192 147.14 
" clip-path="url(#pd60ec154cd)" style="fill: none; stroke: #b0b0b0; stroke-width: 0.8; stroke-linecap: square"/>
     </g>
     <g id="line2d_52">
      <g>
       <use xlink:href="#mc4e72bd6ed" x="34.16" y="147.14" style="stroke: #000000; stroke-width: 0.8"/>
      </g>
     </g>
    </g>
    <g id="ytick_4">
     <g id="line2d_53">
      <path d="M 34.16 76.483137 
L 453.192 76.483137 
" clip-path="url(#pd60ec154cd)" style="fill: none; stroke: #b0b0b0; stroke-width: 0.8; stroke-linecap: square"/>
     </g>
     <g id="line2d_54">
      <g>
       <use xlink:href="#mc4e72bd6ed" x="34.16" y="76.483137" style="stroke: #000000; stroke-width: 0.8"/>
      </g>
     </g>
    </g>
    <g id="ytick_5">
     <g id="line2d_55">
      <path d="M 34.16 5.826275 
L 453.192 5.826275 
" clip-path="url(#pd60ec154cd)" style="fill: none; stroke: #b0b0b0; stroke-width: 0.8; stroke-linecap: square"/>
     </g>
     <g id="line2d_56">
      <g>
       <use xlink:href="#mc4e72bd6ed" x="34.16" y="5.826275" style="stroke: #000000; stroke-width: 0.8"/>
      </g>
     </g>
    </g>
    <g id="text_4">
     <!-- proportion of trials -->
     <g transform="translate(19.000625 240.14625)rotate(-90)scale(0.2 -0.2)">
      <defs>
       <path id="DejaVuSans-70" d="M 1159 525 
L 1159 -1331 
L 581 -1331 
L 581 3500 
L 1159 3500 
L 1159 2969 
Q 1341 3281 1617 3432 
Q 1894 3584 2278 3584 
Q 2916 3584 3314 3078 
Q 3713 2572 3713 1747 
Q 3713 922 3314 415 
Q 2916 -91 2278 -91 
Q 1894 -91 1617 61 
Q 1341 213 1159 525 
z
M 3116 1747 
Q 3116 2381 2855 2742 
Q 2594 3103 2138 3103 
Q 1681 3103 1420 2742 
Q 1159 2381 1159 1747 
Q 1159 1113 1420 752 
Q 1681 391 2138 391 
Q 2594 391 2855 752 
Q 3116 1113 3116 1747 
z
" transform="scale(0.015625)"/>
       <path id="DejaVuSans-6e" d="M 3513 2113 
L 3513 0 
L 2938 0 
L 2938 2094 
Q 2938 2591 2744 2837 
Q 2550 3084 2163 3084 
Q 1697 3084 1428 2787 
Q 1159 2491 1159 1978 
L 1159 0 
L 581 0 
L 581 3500 
L 1159 3500 
L 1159 2956 
Q 1366 3272 1645 3428 
Q 1925 3584 2291 3584 
Q 2894 3584 3203 3211 
Q 3513 2838 3513 2113 
z
" transform="scale(0.015625)"/>
      </defs>
      <use xlink:href="#DejaVuSans-70"/>
      <use xlink:href="#DejaVuSans-72" x="63.476562"/>
      <use xlink:href="#DejaVuSans-6f" x="102.339844"/>
      <use xlink:href="#DejaVuSans-70" x="163.521484"/>
      <use xlink:href="#DejaVuSans-6f" x="226.998047"/>
      <use xlink:href="#DejaVuSans-72" x="288.179688"/>
      <use xlink:href="#DejaVuSans-74" x="329.292969"/>
      <use xlink:href="#DejaVuSans-69" x="368.501953"/>
      <use xlink:href="#DejaVuSans-6f" x="396.285156"/>
      <use xlink:href="#DejaVuSans-6e" x="457.466797"/>
      <use xlink:href="#DejaVuSans-20" x="520.845703"/>
      <use xlink:href="#DejaVuSans-6f" x="552.632812"/>
      <use xlink:href="#DejaVuSans-66" x="613.814453"/>
      <use xlink:href="#DejaVuSans-20" x="649.019531"/>
      <use xlink:href="#DejaVuSans-74" x="680.806641"/>
      <use xlink:href="#DejaVuSans-72" x="720.015625"/>
      <use xlink:href="#DejaVuSans-69" x="761.128906"/>
      <use xlink:href="#DejaVuSans-61" x="788.912109"/>
      <use xlink:href="#DejaVuSans-6c" x="850.191406"/>
      <use xlink:href="#DejaVuSans-73" x="877.974609"/>
     </g>
    </g>
   </g>
   <g id="line2d_57">
    <path d="M 34.16 288.453725 
L 170.907328 288.453725 
L 170.907328 287.511634 
L 173.815339 287.511634 
L 173.815339 286.569542 
L 183.46668 286.569542 
L 183.46668 285.627451 
L 186.374691 285.627451 
L 186.374691 284.685359 
L 188.708266 284.685359 
L 188.708266 283.743268 
L 191.616276 283.743268 
L 191.616276 282.801176 
L 194.191867 282.801176 
L 194.191867 281.859085 
L 195.515699 281.859085 
L 195.515699 280.916993 
L 196.458106 280.916993 
L 196.458106 279.974902 
L 197.099877 279.974902 
L 197.099877 279.03281 
L 198.732335 279.03281 
L 198.732335 278.090719 
L 199.80463 278.090719 
L 199.80463 277.148627 
L 199.934669 277.148627 
L 199.934669 276.206536 
L 201.640345 276.206536 
L 201.640345 275.264444 
L 202.468262 275.264444 
L 202.468262 274.322353 
L 203.021857 274.322353 
L 203.021857 273.380261 
L 203.198898 273.380261 
L 203.198898 272.43817 
L 204.141305 272.43817 
L 204.141305 271.496078 
L 205.427091 271.496078 
L 205.427091 270.553987 
L 206.933952 270.553987 
L 206.933952 269.611895 
L 207.28686 269.611895 
L 207.28686 268.669804 
L 207.617867 268.669804 
L 207.617867 267.727712 
L 207.876358 267.727712 
L 207.876358 266.785621 
L 210.484127 266.785621 
L 210.484127 265.843529 
L 210.724432 265.843529 
L 210.724432 264.901438 
L 210.966447 264.901438 
L 210.966447 263.959346 
L 211.088104 263.959346 
L 211.088104 263.017255 
L 211.352921 263.017255 
L 211.41732 261.133072 
L 212.359727 261.133072 
L 212.363982 259.248889 
L 212.902862 259.248889 
L 212.902862 258.306797 
L 213.11029 258.306797 
L 213.11029 257.364706 
L 213.880964 257.364706 
L 213.880964 256.422614 
L 214.263491 256.422614 
L 214.263491 255.480523 
L 214.738983 255.480523 
L 214.738983 254.538431 
L 215.179158 254.538431 
L 215.179158 253.59634 
L 215.581209 253.59634 
L 215.581209 252.654248 
L 215.836289 252.654248 
L 215.907383 250.770065 
L 216.845344 250.770065 
L 216.845344 249.827974 
L 217.171502 249.827974 
L 217.274884 247.943791 
L 217.478767 247.943791 
L 217.478767 247.001699 
L 217.605568 247.001699 
L 217.605568 246.059608 
L 218.195237 246.059608 
L 218.195237 245.117516 
L 219.137643 245.117516 
L 219.137643 244.175425 
L 219.486493 244.175425 
L 219.557582 242.291242 
L 219.997757 242.291242 
L 220.106916 240.407059 
L 220.386777 240.407059 
L 220.386777 239.464967 
L 220.670292 239.464967 
L 220.670292 238.522876 
L 220.822795 238.522876 
L 220.822795 237.580784 
L 221.328712 237.580784 
L 221.328712 236.638693 
L 221.843295 236.638693 
L 221.843295 235.696601 
L 222.407513 235.696601 
L 222.407513 234.75451 
L 222.614206 234.75451 
L 222.614206 233.812418 
L 222.754849 233.812418 
L 222.785702 231.928235 
L 222.995154 231.928235 
L 223.089169 229.101961 
L 223.195023 229.101961 
L 223.237169 226.275686 
L 223.358826 226.275686 
L 223.443217 223.449412 
L 223.590582 223.449412 
L 223.677343 221.565229 
L 223.799 221.565229 
L 223.799 220.623137 
L 224.305092 220.623137 
L 224.305092 219.681046 
L 224.958083 219.681046 
L 224.958083 218.738954 
L 225.173584 218.738954 
L 225.173584 217.796863 
L 225.314705 217.796863 
L 225.314705 216.854771 
L 225.613758 216.854771 
L 225.633047 214.970588 
L 226.151686 214.970588 
L 226.262265 213.086405 
L 226.306396 213.086405 
L 226.306396 212.144314 
L 226.59186 212.144314 
L 226.59186 211.202222 
L 227.325636 211.202222 
L 227.325636 210.260131 
L 227.502358 210.260131 
L 227.502358 209.318039 
L 227.629637 209.318039 
L 227.629637 208.375948 
L 227.742663 208.375948 
L 227.742663 207.433856 
L 227.984678 207.433856 
L 228.041439 205.549673 
L 228.106335 205.549673 
L 228.106629 203.66549 
L 228.353491 203.66549 
L 228.353491 202.723399 
L 228.56619 202.723399 
L 228.56619 201.781307 
L 228.693136 201.781307 
L 228.7633 199.897124 
L 229.508596 199.897124 
L 229.508596 198.955033 
L 229.921093 198.955033 
L 229.921093 198.012941 
L 230.133304 198.012941 
L 230.133304 197.07085 
L 230.37129 197.07085 
L 230.479407 194.244575 
L 230.708359 194.244575 
L 230.708359 193.302484 
L 230.846864 193.302484 
L 230.899195 191.418301 
L 231.238705 191.418301 
L 231.238705 190.476209 
L 231.47901 190.476209 
L 231.47901 189.534118 
L 231.721025 189.534118 
L 231.809004 186.707843 
L 231.842682 186.707843 
L 231.842682 185.765752 
L 232.088545 185.765752 
L 232.088545 184.82366 
L 232.723249 184.82366 
L 232.723249 183.881569 
L 232.985159 183.881569 
L 232.985159 182.939477 
L 233.176505 182.939477 
L 233.176505 181.997386 
L 233.33057 181.997386 
L 233.33057 181.055294 
L 233.570875 181.055294 
L 233.65744 178.22902 
L 233.81289 178.22902 
L 233.81289 177.286928 
L 233.934547 177.286928 
L 233.934547 176.344837 
L 234.635542 176.344837 
L 234.74255 173.518562 
L 234.934064 173.518562 
L 234.934064 172.576471 
L 235.118409 172.576471 
L 235.118409 171.634379 
L 235.713939 171.634379 
L 235.749305 169.750196 
L 236.154114 169.750196 
L 236.154114 168.808105 
L 236.46143 168.808105 
L 236.571913 166.923922 
L 236.727407 166.923922 
L 236.727407 165.98183 
L 237.541848 165.98183 
L 237.541848 165.039739 
L 237.749714 165.039739 
L 237.749714 164.097647 
L 238.054489 164.097647 
L 238.162606 162.213464 
L 238.192399 162.213464 
L 238.192399 161.271373 
L 238.477582 161.271373 
L 238.586921 159.38719 
L 239.425744 159.38719 
L 239.425744 158.445098 
L 239.718283 158.445098 
L 239.752663 156.560915 
L 239.954421 156.560915 
L 239.954421 155.618824 
L 240.461449 155.618824 
L 240.512535 153.734641 
L 240.739114 153.734641 
L 240.739114 152.792549 
L 240.979419 152.792549 
L 240.979419 151.850458 
L 241.221434 151.850458 
L 241.322652 149.966275 
L 241.343091 149.966275 
L 241.343091 149.024183 
L 241.454942 149.024183 
L 241.454942 148.082092 
L 241.789542 148.082092 
L 241.89766 145.255817 
L 242.234979 145.255817 
L 242.234979 144.313725 
L 242.425749 144.313725 
L 242.425749 143.371634 
L 242.568312 143.371634 
L 242.568312 142.429542 
L 242.829409 142.429542 
L 242.829409 141.487451 
L 242.944724 141.487451 
L 242.94993 139.603268 
L 243.157849 139.603268 
L 243.190235 135.834902 
L 243.34983 135.834902 
L 243.433985 133.008627 
L 243.553907 133.008627 
L 243.60248 131.124444 
L 244.135951 131.124444 
L 244.197795 129.240261 
L 244.536881 129.240261 
L 244.536881 128.29817 
L 244.931505 128.29817 
L 244.931505 127.356078 
L 245.253956 127.356078 
L 245.253956 126.413987 
L 245.368665 126.413987 
L 245.368665 125.471895 
L 245.765579 125.471895 
L 245.765579 124.529804 
L 246.005884 124.529804 
L 246.005884 123.587712 
L 246.160803 123.587712 
L 246.247899 121.703529 
L 246.27291 121.703529 
L 246.381028 114.166797 
L 246.485499 114.166797 
L 246.564238 112.282614 
L 246.997888 112.282614 
L 246.997888 111.340523 
L 247.734148 111.340523 
L 247.734148 110.398431 
L 247.974453 110.398431 
L 247.974453 109.45634 
L 248.184314 109.45634 
L 248.216468 106.630065 
L 248.338125 106.630065 
L 248.338125 105.687974 
L 248.917586 105.687974 
L 249.020782 100.977516 
L 249.162416 100.977516 
L 249.162416 100.035425 
L 249.593296 100.035425 
L 249.593296 99.093333 
L 250.152883 99.093333 
L 250.152883 98.151242 
L 250.325374 98.151242 
L 250.423927 96.267059 
L 250.644171 96.267059 
L 250.644171 95.324967 
L 251.130985 95.324967 
L 251.130985 94.382876 
L 251.798394 94.382876 
L 251.825596 92.498693 
L 252.047839 92.498693 
L 252.047839 91.556601 
L 252.221445 91.556601 
L 252.221445 90.61451 
L 252.6625 90.61451 
L 252.6625 89.672418 
L 253.050827 89.672418 
L 253.158945 87.788235 
L 253.458054 87.788235 
L 253.458054 86.846144 
L 253.669911 86.846144 
L 253.720783 84.019869 
L 254.262367 84.019869 
L 254.262367 83.077778 
L 254.873316 83.077778 
L 254.873316 82.135686 
L 255.90902 82.135686 
L 255.90902 81.193595 
L 256.588307 81.193595 
L 256.698886 79.309412 
L 256.807004 79.309412 
L 256.807004 78.36732 
L 257.422088 78.36732 
L 257.422088 77.425229 
L 257.688965 77.425229 
L 257.688965 76.483137 
L 258.210379 76.483137 
L 258.210379 75.541046 
L 258.724669 75.541046 
L 258.724669 74.598954 
L 259.044851 74.598954 
L 259.044851 73.656863 
L 259.60566 73.656863 
L 259.657534 71.77268 
L 259.745968 71.77268 
L 259.745968 70.830588 
L 260.693238 70.830588 
L 260.693238 69.888497 
L 260.904219 69.888497 
L 260.904219 68.946405 
L 261.070146 68.946405 
L 261.070146 68.004314 
L 262.27172 68.004314 
L 262.278686 66.120131 
L 262.822888 66.120131 
L 262.822888 65.178039 
L 263.42178 65.178039 
L 263.529898 63.293856 
L 263.646186 63.293856 
L 263.646186 62.351765 
L 264.286436 62.351765 
L 264.286436 60.467582 
L 265.667128 60.467582 
L 265.667128 59.52549 
L 267.041595 59.52549 
L 267.041595 58.583399 
L 267.793041 58.583399 
L 267.793041 57.641307 
L 268.98921 57.641307 
L 268.98921 56.699216 
L 269.770037 56.699216 
L 269.770037 55.757124 
L 272.119463 55.757124 
L 272.204486 53.872941 
L 273.741536 53.872941 
L 273.741536 52.93085 
L 274.310505 52.93085 
L 274.310505 51.988758 
L 274.832635 51.988758 
L 274.832635 51.046667 
L 275.334739 51.046667 
L 275.368126 49.162484 
L 275.476244 49.162484 
L 275.476244 48.220392 
L 276.742592 48.220392 
L 276.85071 46.336209 
L 276.956811 46.336209 
L 276.956811 45.394118 
L 277.814888 45.394118 
L 277.814888 44.452026 
L 277.962888 44.452026 
L 277.962888 43.509935 
L 279.58496 43.509935 
L 279.58496 42.567843 
L 279.739386 42.567843 
L 279.817593 40.68366 
L 281.032115 40.68366 
L 281.113853 38.799477 
L 283.032868 38.799477 
L 283.032868 37.857386 
L 285.434077 37.857386 
L 285.434077 36.915294 
L 285.661017 36.915294 
L 285.661017 35.973203 
L 288.564331 35.973203 
L 288.564331 35.031111 
L 289.841662 35.031111 
L 289.841662 34.08902 
L 290.186403 34.08902 
L 290.186403 33.146928 
L 293.056937 33.146928 
L 293.056937 32.204837 
L 295.685086 32.204837 
L 295.685086 31.262745 
L 296.26246 31.262745 
L 296.26246 30.320654 
L 299.886934 30.320654 
L 299.886934 29.378562 
L 300.829341 29.378562 
L 300.829341 28.436471 
L 303.643305 28.436471 
L 303.643305 27.494379 
L 304.305904 27.494379 
L 304.305904 26.552288 
L 306.286529 26.552288 
L 306.286529 25.610196 
L 306.773558 25.610196 
L 306.773558 24.668105 
L 308.39563 24.668105 
L 308.39563 23.726013 
L 309.798327 23.726013 
L 309.798327 22.783922 
L 314.471687 22.783922 
L 314.471687 21.84183 
L 318.021143 21.84183 
L 318.021143 20.899739 
L 320.278618 20.899739 
L 320.278618 19.957647 
L 321.646119 19.957647 
L 321.646119 19.015556 
L 324.495756 19.015556 
L 324.495756 18.073464 
L 325.041527 18.073464 
L 325.041527 17.131373 
L 330.580495 17.131373 
L 330.580495 16.189281 
L 334.742525 16.189281 
L 334.850643 14.305098 
L 335.822081 14.305098 
L 335.822081 13.363007 
L 339.113785 13.363007 
L 339.113785 12.420915 
L 341.305682 12.420915 
L 341.305682 11.478824 
L 345.84615 11.478824 
L 345.84615 10.536732 
L 361.377306 10.536732 
L 361.377306 9.594641 
L 364.592582 9.594641 
L 364.592582 8.652549 
L 367.220731 8.652549 
L 367.220731 7.710458 
L 377.822174 7.710458 
L 377.822174 6.768366 
L 396.031401 6.768366 
L 396.031401 5.826275 
L 453.192 5.826275 
L 453.192 5.826275 
" clip-path="url(#pd60ec154cd)" style="fill: none; stroke: #000000; stroke-width: 3; stroke-linecap: square"/>
   </g>
   <g id="line2d_58">
    <path clip-path="url(#pd60ec154cd)" style="fill: none; stroke: #000000; stroke-width: 3; stroke-linecap: square"/>
   </g>
   <g id="line2d_59">
    <path d="M 34.16 288.453725 
L 135.914363 288.453725 
L 135.914363 287.511634 
L 137.593865 287.511634 
L 137.593865 286.569542 
L 138.463451 286.569542 
L 138.463451 285.627451 
L 139.311352 285.627451 
L 139.311352 284.685359 
L 141.613625 284.685359 
L 141.613625 283.743268 
L 143.293127 283.743268 
L 143.293127 282.801176 
L 143.742097 282.801176 
L 143.742097 281.859085 
L 144.162713 281.859085 
L 144.162713 280.916993 
L 144.967714 280.916993 
L 145.010614 279.03281 
L 147.093094 279.03281 
L 147.093094 278.090719 
L 147.783145 278.090719 
L 147.783145 277.148627 
L 149.441359 277.148627 
L 149.441359 276.206536 
L 150.666976 276.206536 
L 150.666976 275.264444 
L 151.855521 275.264444 
L 151.855521 274.322353 
L 152.310328 274.322353 
L 152.310328 273.380261 
L 152.792356 273.380261 
L 152.792356 272.43817 
L 153.482407 272.43817 
L 153.482407 271.496078 
L 157.554783 271.496078 
L 157.554783 270.553987 
L 158.00959 270.553987 
L 158.00959 269.611895 
L 159.477254 269.611895 
L 159.477254 268.669804 
L 169.705921 268.669804 
L 169.705921 267.727712 
L 170.75445 267.727712 
L 170.75445 266.785621 
L 172.156597 266.785621 
L 172.156597 265.843529 
L 173.001712 265.843529 
L 173.001712 264.901438 
L 175.824634 264.901438 
L 175.824634 263.959346 
L 177.197063 263.959346 
L 177.197063 263.017255 
L 178.876564 263.017255 
L 178.876564 262.075163 
L 179.391031 262.075163 
L 179.500073 260.19098 
L 179.644921 260.19098 
L 179.74615 258.306797 
L 180.286654 258.306797 
L 180.286654 257.364706 
L 180.594051 257.364706 
L 180.594051 256.422614 
L 181.110455 256.422614 
L 181.110455 255.480523 
L 182.958421 255.480523 
L 182.958421 254.538431 
L 183.429246 254.538431 
L 183.429246 253.59634 
L 184.253047 253.59634 
L 184.253047 252.654248 
L 185.024797 252.654248 
L 185.024797 251.712157 
L 186.101013 251.712157 
L 186.101013 250.770065 
L 186.250414 250.770065 
L 186.250414 249.827974 
L 187.691236 249.827974 
L 187.691236 248.885882 
L 187.818569 248.885882 
L 187.869095 247.001699 
L 188.375794 247.001699 
L 188.375794 246.059608 
L 189.065845 246.059608 
L 189.065845 245.117516 
L 189.370738 245.117516 
L 189.370738 244.175425 
L 190.240324 244.175425 
L 190.240324 243.233333 
L 190.728559 243.233333 
L 190.728559 242.291242 
L 190.96116 242.291242 
L 190.96116 241.34915 
L 191.088225 241.34915 
L 191.088225 240.407059 
L 191.55236 240.407059 
L 191.55236 239.464967 
L 191.971707 239.464967 
L 191.971707 238.522876 
L 193.138221 238.522876 
L 193.138221 237.580784 
L 193.400325 237.580784 
L 193.400325 236.638693 
L 193.593028 236.638693 
L 193.593028 235.696601 
L 194.645786 235.696601 
L 194.645786 234.75451 
L 195.114298 234.75451 
L 195.114298 233.812418 
L 195.469587 233.812418 
L 195.51897 231.928235 
L 195.642868 231.928235 
L 195.642868 230.986144 
L 196.744588 230.986144 
L 196.744588 230.044052 
L 197.317552 230.044052 
L 197.423872 228.159869 
L 198.097762 228.159869 
L 198.097762 227.217778 
L 198.260473 227.217778 
L 198.260473 226.275686 
L 198.78546 226.275686 
L 198.869968 224.391503 
L 199.009474 224.391503 
L 199.009474 223.449412 
L 199.146291 223.449412 
L 199.146291 222.50732 
L 199.560018 222.50732 
L 199.560018 221.565229 
L 200.548438 221.565229 
L 200.548438 220.623137 
L 201.393553 220.623137 
L 201.393553 219.681046 
L 201.680029 219.681046 
L 201.786229 217.796863 
L 202.152066 217.796863 
L 202.1777 215.91268 
L 202.413611 215.91268 
L 202.413611 214.970588 
L 203.35953 214.970588 
L 203.35953 214.028497 
L 203.529903 214.028497 
L 203.632395 212.144314 
L 204.087201 212.144314 
L 204.087201 211.202222 
L 204.216475 211.202222 
L 204.229116 209.318039 
L 205.077017 209.318039 
L 205.077017 208.375948 
L 206.083976 208.375948 
L 206.084773 206.491765 
L 206.330838 206.491765 
L 206.330838 205.549673 
L 206.672495 205.549673 
L 206.672495 204.607582 
L 207.069293 204.607582 
L 207.069293 203.66549 
L 207.243364 203.66549 
L 207.243364 202.723399 
L 207.652539 202.723399 
L 207.763478 200.839216 
L 207.782872 200.839216 
L 207.893094 198.012941 
L 208.036762 198.012941 
L 208.036762 197.07085 
L 208.443682 197.07085 
L 208.443682 196.128758 
L 208.633064 196.128758 
L 208.701068 194.244575 
L 208.922866 194.244575 
L 208.922866 193.302484 
L 209.262372 193.302484 
L 209.262372 192.360392 
L 209.451379 192.360392 
L 209.507763 189.534118 
L 209.74106 189.534118 
L 209.792452 187.649935 
L 210.002 187.649935 
L 210.103215 185.765752 
L 210.123184 185.765752 
L 210.123184 184.82366 
L 210.599793 184.82366 
L 210.640352 182.939477 
L 210.73338 182.939477 
L 210.73338 181.997386 
L 210.94833 181.997386 
L 210.99277 180.113203 
L 211.840671 180.113203 
L 211.840671 179.171111 
L 211.98619 179.171111 
L 212.014896 177.286928 
L 212.404963 177.286928 
L 212.404963 176.344837 
L 212.809991 176.344837 
L 212.85876 174.460654 
L 213.063425 174.460654 
L 213.063425 173.518562 
L 213.368606 173.518562 
L 213.368606 172.576471 
L 213.548811 172.576471 
L 213.548811 171.634379 
L 213.771252 171.634379 
L 213.771252 170.692288 
L 213.91171 170.692288 
L 213.971808 168.808105 
L 214.38562 168.808105 
L 214.465572 165.98183 
L 214.601207 165.98183 
L 214.657957 164.097647 
L 215.071098 164.097647 
L 215.137327 162.213464 
L 215.209421 162.213464 
L 215.310687 159.38719 
L 215.956937 159.38719 
L 215.956937 158.445098 
L 216.271417 158.445098 
L 216.296715 156.560915 
L 216.525977 156.560915 
L 216.525977 155.618824 
L 217.057386 155.618824 
L 217.09656 153.734641 
L 217.262707 153.734641 
L 217.337649 151.850458 
L 217.446692 151.850458 
L 217.497034 149.966275 
L 217.591539 149.966275 
L 217.621187 148.082092 
L 217.889035 148.082092 
L 217.952758 146.197908 
L 218.075994 146.197908 
L 218.133609 144.313725 
L 218.422095 144.313725 
L 218.422095 143.371634 
L 218.754345 143.371634 
L 218.754345 142.429542 
L 219.112146 142.429542 
L 219.112146 141.487451 
L 219.518105 141.487451 
L 219.622414 139.603268 
L 219.704276 139.603268 
L 219.704276 138.661176 
L 219.90308 138.661176 
L 219.90308 137.719085 
L 220.312465 137.719085 
L 220.312465 136.776993 
L 220.800542 136.776993 
L 220.828459 134.89281 
L 221.582581 134.89281 
L 221.582581 133.950719 
L 221.700006 133.950719 
L 221.809049 132.066536 
L 221.876988 132.066536 
L 221.956708 128.29817 
L 222.025134 128.29817 
L 222.025134 127.356078 
L 222.425507 127.356078 
L 222.479941 124.529804 
L 223.184522 124.529804 
L 223.279136 122.645621 
L 223.300068 122.645621 
L 223.300068 121.703529 
L 223.621503 121.703529 
L 223.671243 118.877255 
L 224.12425 118.877255 
L 224.12425 117.935163 
L 224.384841 117.935163 
L 224.384841 116.993072 
L 224.687115 116.993072 
L 224.687115 116.05098 
L 224.839648 116.05098 
L 224.839648 115.108889 
L 225.117935 115.108889 
L 225.117935 114.166797 
L 225.510915 114.166797 
L 225.510915 113.224706 
L 225.792113 113.224706 
L 225.792113 112.282614 
L 226.070672 112.282614 
L 226.109846 110.398431 
L 226.185604 110.398431 
L 226.185604 109.45634 
L 226.754644 109.45634 
L 226.797437 107.572157 
L 226.947172 107.572157 
L 226.947172 106.630065 
L 227.234132 106.630065 
L 227.342404 104.745882 
L 227.358881 104.745882 
L 227.358881 103.803791 
L 227.57208 103.803791 
L 227.667023 101.919608 
L 227.730814 101.919608 
L 227.803172 100.035425 
L 228.514924 100.035425 
L 228.514924 99.093333 
L 228.63628 99.093333 
L 228.63628 98.151242 
L 228.956431 98.151242 
L 228.956431 97.20915 
L 229.20532 97.20915 
L 229.20532 96.267059 
L 229.428841 96.267059 
L 229.481394 94.382876 
L 229.741834 94.382876 
L 229.781008 92.498693 
L 230.050435 92.498693 
L 230.050435 91.556601 
L 230.252641 91.556601 
L 230.312542 89.672418 
L 230.51357 89.672418 
L 230.622612 87.788235 
L 230.70901 87.788235 
L 230.76746 85.904052 
L 231.029208 85.904052 
L 231.081811 84.019869 
L 231.771862 84.019869 
L 231.771862 83.077778 
L 232.077737 83.077778 
L 232.100607 81.193595 
L 232.219029 81.193595 
L 232.304316 79.309412 
L 232.873356 79.309412 
L 232.945669 77.425229 
L 233.10844 77.425229 
L 233.147614 75.541046 
L 233.479884 75.541046 
L 233.479884 74.598954 
L 234.171287 74.598954 
L 234.171287 73.656863 
L 234.324999 73.656863 
L 234.324999 72.714771 
L 235.229439 72.714771 
L 235.229439 71.77268 
L 235.844238 71.77268 
L 235.870714 69.888497 
L 235.979756 69.888497 
L 236.04501 68.004314 
L 236.124604 68.004314 
L 236.124604 67.062222 
L 236.296667 67.062222 
L 236.372167 64.235948 
L 236.439754 64.235948 
L 236.548796 62.351765 
L 236.693644 62.351765 
L 236.693644 61.409673 
L 236.960755 61.409673 
L 236.986718 59.52549 
L 237.147921 59.52549 
L 237.147921 58.583399 
L 237.628869 58.583399 
L 237.668043 56.699216 
L 237.800746 56.699216 
L 237.800746 55.757124 
L 238.849275 55.757124 
L 238.895256 53.872941 
L 240.043329 53.872941 
L 240.043329 52.93085 
L 240.251423 52.93085 
L 240.251423 51.988758 
L 240.714318 51.988758 
L 240.823361 50.104575 
L 240.961908 50.104575 
L 241.059094 47.278301 
L 241.096537 47.278301 
L 241.113893 45.394118 
L 241.513901 45.394118 
L 241.513901 44.452026 
L 243.361337 44.452026 
L 243.409934 41.625752 
L 243.919459 41.625752 
L 243.919459 40.68366 
L 244.785055 40.68366 
L 244.785055 39.741569 
L 247.485856 39.741569 
L 247.594899 37.857386 
L 247.739747 37.857386 
L 247.739747 36.915294 
L 247.930363 36.915294 
L 247.930363 35.973203 
L 248.15166 35.973203 
L 248.15166 35.031111 
L 249.123923 35.031111 
L 249.123923 34.08902 
L 250.172451 34.08902 
L 250.172451 33.146928 
L 251.574599 33.146928 
L 251.574599 32.204837 
L 252.419714 32.204837 
L 252.419714 31.262745 
L 252.672089 31.262745 
L 252.672089 30.320654 
L 253.662832 30.320654 
L 253.662832 29.378562 
L 255.242635 29.378562 
L 255.242635 28.436471 
L 258.404558 28.436471 
L 258.404558 27.494379 
L 258.809033 27.494379 
L 258.918075 25.610196 
L 259.062923 25.610196 
L 259.062923 24.668105 
L 358.081635 24.668105 
L 358.081635 23.726013 
L 386.473476 23.726013 
L 386.473476 22.783922 
L 396.028253 22.783922 
L 396.028253 21.84183 
L 400.39061 21.84183 
L 400.39061 20.899739 
L 409.204173 20.899739 
L 409.204173 19.957647 
L 414.561317 19.957647 
L 414.561317 19.015556 
L 415.130358 19.015556 
L 415.130358 18.073464 
L 419.404922 18.073464 
L 419.404922 17.131373 
L 426.17646 17.131373 
L 426.17646 16.189281 
L 437.499637 16.189281 
L 437.499637 15.24719 
L 453.192 15.24719 
L 453.192 15.24719 
" clip-path="url(#pd60ec154cd)" style="fill: none; stroke: #00bfbf; stroke-width: 3; stroke-linecap: square"/>
   </g>
   <g id="line2d_60">
    <path clip-path="url(#pd60ec154cd)" style="fill: none; stroke: #00bfbf; stroke-width: 3; stroke-linecap: square"/>
   </g>
   <g id="line2d_61">
    <path d="M 34.16 288.453725 
L 123.652367 288.453725 
L 123.652367 287.511634 
L 126.79597 287.511634 
L 126.79597 286.569542 
L 129.817722 286.569542 
L 129.817722 285.627451 
L 130.82685 285.627451 
L 130.82685 284.685359 
L 131.872237 284.685359 
L 131.872237 283.743268 
L 132.790994 283.743268 
L 132.790994 282.801176 
L 141.81961 282.801176 
L 141.81961 281.859085 
L 142.099829 281.859085 
L 142.099829 280.916993 
L 143.205134 280.916993 
L 143.205134 279.974902 
L 143.965587 279.974902 
L 143.965587 279.03281 
L 145.243432 279.03281 
L 145.243432 278.090719 
L 146.993559 278.090719 
L 146.993559 277.148627 
L 148.265185 277.148627 
L 148.265185 276.206536 
L 149.274312 276.206536 
L 149.274312 275.264444 
L 149.723488 275.264444 
L 149.723488 274.322353 
L 149.854601 274.322353 
L 149.854601 273.380261 
L 150.319699 273.380261 
L 150.319699 272.43817 
L 151.650024 272.43817 
L 151.650024 271.496078 
L 152.152979 271.496078 
L 152.152979 270.553987 
L 154.379952 270.553987 
L 154.379952 269.611895 
L 154.558745 269.611895 
L 154.558745 268.669804 
L 154.817954 268.669804 
L 154.817954 267.727712 
L 155.296583 267.727712 
L 155.296583 266.785621 
L 155.682594 266.785621 
L 155.682594 265.843529 
L 157.702348 265.843529 
L 157.702348 264.901438 
L 157.871222 264.901438 
L 157.871222 263.959346 
L 158.317746 263.959346 
L 158.353823 261.133072 
L 159.327462 261.133072 
L 159.42009 259.248889 
L 160.267072 259.248889 
L 160.37285 256.422614 
L 160.601151 256.422614 
L 160.691865 254.538431 
L 160.7241 254.538431 
L 160.7241 253.59634 
L 161.181986 253.59634 
L 161.181986 252.654248 
L 161.733228 252.654248 
L 161.733228 251.712157 
L 161.907159 251.712157 
L 161.907159 250.770065 
L 162.413049 250.770065 
L 162.413049 249.827974 
L 162.778615 249.827974 
L 162.778615 248.885882 
L 164.076554 248.885882 
L 164.076554 247.943791 
L 165.00422 247.943791 
L 165.080044 246.059608 
L 166.062263 246.059608 
L 166.062263 245.117516 
L 166.228755 245.117516 
L 166.228755 244.175425 
L 166.563624 244.175425 
L 166.563624 243.233333 
L 168.223647 243.233333 
L 168.223647 242.291242 
L 168.731886 242.291242 
L 168.767963 240.407059 
L 169.906927 240.407059 
L 169.906927 239.464967 
L 170.297753 239.464967 
L 170.329013 236.638693 
L 170.581423 236.638693 
L 170.581423 235.696601 
L 170.88522 235.696601 
L 170.88522 234.75451 
L 171.208686 234.75451 
L 171.245399 232.870327 
L 171.551783 232.870327 
L 171.596126 230.986144 
L 172.254527 230.986144 
L 172.254527 230.044052 
L 172.4662 230.044052 
L 172.4662 229.101961 
L 172.621195 229.101961 
L 172.725988 226.275686 
L 172.784822 226.275686 
L 172.791553 224.391503 
L 173.254903 224.391503 
L 173.299914 221.565229 
L 173.800821 221.565229 
L 173.800821 220.623137 
L 173.974516 220.623137 
L 173.974516 219.681046 
L 174.695386 219.681046 
L 174.695386 218.738954 
L 174.871965 218.738954 
L 174.871965 217.796863 
L 175.106594 217.796863 
L 175.106594 216.854771 
L 175.381353 216.854771 
L 175.41743 214.970588 
L 175.521481 214.970588 
L 175.521481 214.028497 
L 175.764798 214.028497 
L 175.865151 212.144314 
L 176.260742 212.144314 
L 176.260742 211.202222 
L 176.694802 211.202222 
L 176.694802 210.260131 
L 177.106418 210.260131 
L 177.106418 209.318039 
L 177.717139 209.318039 
L 177.717139 208.375948 
L 178.134342 208.375948 
L 178.134342 207.433856 
L 178.245593 207.433856 
L 178.250198 205.549673 
L 178.457285 205.549673 
L 178.457285 204.607582 
L 178.726266 204.607582 
L 178.78655 202.723399 
L 178.99297 202.723399 
L 178.99297 201.781307 
L 179.546567 201.781307 
L 179.546567 200.839216 
L 179.771653 200.839216 
L 179.795678 198.955033 
L 180.400573 198.955033 
L 180.400573 198.012941 
L 180.743153 198.012941 
L 180.841065 195.186667 
L 181.209346 195.186667 
L 181.277946 191.418301 
L 181.722898 191.418301 
L 181.722898 190.476209 
L 182.079298 190.476209 
L 182.086349 188.592026 
L 182.276495 188.592026 
L 182.333458 185.765752 
L 182.661817 185.765752 
L 182.745132 183.881569 
L 183.247287 183.881569 
L 183.326465 181.055294 
L 183.451682 181.055294 
L 183.544177 179.171111 
L 183.669043 179.171111 
L 183.669043 178.22902 
L 184.073586 178.22902 
L 184.073586 177.286928 
L 184.299698 177.286928 
L 184.388656 175.402745 
L 184.509725 175.402745 
L 184.509725 174.460654 
L 184.678484 174.460654 
L 184.678484 173.518562 
L 184.809226 173.518562 
L 184.820527 171.634379 
L 185.218083 171.634379 
L 185.308825 169.750196 
L 185.393264 169.750196 
L 185.393264 168.808105 
L 185.724332 168.808105 
L 185.803151 166.923922 
L 185.839228 166.923922 
L 185.839228 165.98183 
L 186.218617 165.98183 
L 186.254694 164.097647 
L 186.354213 164.097647 
L 186.354213 163.155556 
L 186.565929 163.155556 
L 186.565929 162.213464 
L 187.108941 162.213464 
L 187.108941 161.271373 
L 187.392619 161.271373 
L 187.401597 159.38719 
L 187.575056 159.38719 
L 187.575056 158.445098 
L 187.705153 158.445098 
L 187.705153 157.503007 
L 188.193622 157.503007 
L 188.300418 155.618824 
L 188.620443 155.618824 
L 188.667391 153.734641 
L 189.082857 153.734641 
L 189.142123 151.850458 
L 189.719026 151.850458 
L 189.719026 150.908366 
L 190.31851 150.908366 
L 190.31851 149.966275 
L 190.788437 149.966275 
L 190.788437 149.024183 
L 190.923551 149.024183 
L 191.030346 147.14 
L 191.038123 147.14 
L 191.038123 146.197908 
L 191.171825 146.197908 
L 191.171825 145.255817 
L 191.4195 145.255817 
L 191.4195 144.313725 
L 191.865003 144.313725 
L 191.973098 142.429542 
L 192.026749 142.429542 
L 192.026749 141.487451 
L 192.934415 141.487451 
L 192.934415 140.545359 
L 193.075956 140.545359 
L 193.075956 139.603268 
L 193.220613 139.603268 
L 193.273837 137.719085 
L 193.504832 137.719085 
L 193.504832 136.776993 
L 193.622795 136.776993 
L 193.622795 135.834902 
L 193.758408 135.834902 
L 193.758408 134.89281 
L 193.90657 134.89281 
L 193.90657 133.950719 
L 194.122054 133.950719 
L 194.122054 133.008627 
L 194.460167 133.008627 
L 194.562876 130.182353 
L 195.419814 130.182353 
L 195.419814 129.240261 
L 195.910598 129.240261 
L 195.910598 128.29817 
L 196.108175 128.29817 
L 196.213183 124.529804 
L 196.245631 124.529804 
L 196.301585 122.645621 
L 196.714189 122.645621 
L 196.714189 121.703529 
L 196.866116 121.703529 
L 196.968641 119.819346 
L 196.992897 119.819346 
L 197.00668 117.935163 
L 197.814418 117.935163 
L 197.821292 116.05098 
L 198.228166 116.05098 
L 198.229884 114.166797 
L 198.447563 114.166797 
L 198.447563 113.224706 
L 198.567816 113.224706 
L 198.567816 112.282614 
L 198.781763 112.282614 
L 198.781763 111.340523 
L 198.972415 111.340523 
L 198.972415 110.398431 
L 199.586401 110.398431 
L 199.598814 108.514248 
L 199.725423 108.514248 
L 199.725423 107.572157 
L 200.620153 107.572157 
L 200.726948 104.745882 
L 200.740308 104.745882 
L 200.740308 103.803791 
L 200.869648 103.803791 
L 200.869648 102.861699 
L 201.155774 102.861699 
L 201.155774 101.919608 
L 201.314493 101.919608 
L 201.314493 100.977516 
L 201.459921 100.977516 
L 201.459921 100.035425 
L 201.787494 100.035425 
L 201.875387 97.20915 
L 202.71737 97.20915 
L 202.71737 96.267059 
L 203.107222 96.267059 
L 203.214018 93.440784 
L 203.649285 93.440784 
L 203.649285 92.498693 
L 203.761694 92.498693 
L 203.786781 90.61451 
L 204.180206 90.61451 
L 204.180206 89.672418 
L 204.595672 89.672418 
L 204.651734 87.788235 
L 205.553416 87.788235 
L 205.6585 85.904052 
L 205.800231 85.904052 
L 205.800231 84.961961 
L 206.272181 84.961961 
L 206.353829 82.135686 
L 206.431897 82.135686 
L 206.431897 81.193595 
L 207.090846 81.193595 
L 207.090846 80.251503 
L 207.428818 80.251503 
L 207.535614 77.425229 
L 208.119442 77.425229 
L 208.119442 76.483137 
L 208.24309 76.483137 
L 208.24309 75.541046 
L 208.543126 75.541046 
L 208.543126 74.598954 
L 208.658556 74.598954 
L 208.658556 73.656863 
L 208.886559 73.656863 
L 208.886559 72.714771 
L 209.299929 72.714771 
L 209.299929 71.77268 
L 210.147221 71.77268 
L 210.147221 70.830588 
L 210.562687 70.830588 
L 210.562687 69.888497 
L 211.045332 69.888497 
L 211.045332 68.946405 
L 211.56616 68.946405 
L 211.56616 68.004314 
L 211.764945 68.004314 
L 211.764945 67.062222 
L 212.408749 67.062222 
L 212.515545 65.178039 
L 212.903636 65.178039 
L 212.903636 64.235948 
L 213.798761 64.235948 
L 213.798761 63.293856 
L 213.961679 63.293856 
L 213.973047 61.409673 
L 214.48523 61.409673 
L 214.48523 60.467582 
L 214.744543 60.467582 
L 214.744543 59.52549 
L 215.000884 59.52549 
L 215.107679 56.699216 
L 215.29814 56.699216 
L 215.29814 55.757124 
L 216.458447 55.757124 
L 216.458447 54.815033 
L 216.724651 54.815033 
L 216.724651 53.872941 
L 217.444264 53.872941 
L 217.516491 51.988758 
L 217.83087 51.988758 
L 217.83087 51.046667 
L 218.548115 51.046667 
L 218.548115 50.104575 
L 219.126551 50.104575 
L 219.126551 49.162484 
L 219.486195 49.162484 
L 219.486195 48.220392 
L 220.164549 48.220392 
L 220.164549 47.278301 
L 220.452245 47.278301 
L 220.544239 45.394118 
L 221.752426 45.394118 
L 221.752426 44.452026 
L 222.011177 44.452026 
L 222.011177 43.509935 
L 222.810469 43.509935 
L 222.810469 42.567843 
L 223.945195 42.567843 
L 224.051991 40.68366 
L 224.227433 40.68366 
L 224.227433 39.741569 
L 226.131564 39.741569 
L 226.131564 38.799477 
L 228.212594 38.799477 
L 228.212594 37.857386 
L 228.766191 37.857386 
L 228.766191 36.915294 
L 231.298921 36.915294 
L 231.298921 35.973203 
L 237.413246 35.973203 
L 237.520042 34.08902 
L 250.576156 34.08902 
L 250.576156 33.146928 
L 276.102908 33.146928 
L 276.138985 31.262745 
L 278.967148 31.262745 
L 278.967148 30.320654 
L 288.114174 30.320654 
L 288.114174 29.378562 
L 291.040065 29.378562 
L 291.040065 28.436471 
L 291.759678 28.436471 
L 291.759678 27.494379 
L 294.479963 27.494379 
L 294.479963 26.552288 
L 298.542847 26.552288 
L 298.542847 25.610196 
L 300.446978 25.610196 
L 300.446978 24.668105 
L 453.192 24.668105 
L 453.192 24.668105 
" clip-path="url(#pd60ec154cd)" style="fill: none; stroke: #bf00bf; stroke-width: 3; stroke-linecap: square"/>
   </g>
   <g id="line2d_62">
    <path clip-path="url(#pd60ec154cd)" style="fill: none; stroke: #bf00bf; stroke-width: 3; stroke-linecap: square"/>
   </g>
   <g id="line2d_63">
    <path d="M 34.16 239.654741 
L 176.242753 239.654741 
L 176.242753 238.638096 
L 178.736616 238.638096 
L 178.736616 237.62145 
L 180.642192 237.62145 
L 180.642192 236.604805 
L 181.82864 236.604805 
L 181.9145 234.571514 
L 183.136054 234.571514 
L 183.136054 233.554868 
L 183.282893 233.554868 
L 183.282893 232.538223 
L 184.322503 232.538223 
L 184.322503 231.521577 
L 185.965776 231.521577 
L 185.965776 230.504932 
L 186.313938 230.504932 
L 186.313938 229.488286 
L 187.500387 229.488286 
L 187.500387 228.471641 
L 187.682332 228.471641 
L 187.682332 227.454995 
L 188.86878 227.454995 
L 188.86878 226.43835 
L 189.965478 226.43835 
L 189.965478 225.421704 
L 190.365215 225.421704 
L 190.365215 224.405059 
L 191.551664 224.405059 
L 191.551664 223.388413 
L 192.105078 223.388413 
L 192.125985 220.338477 
L 192.45934 220.338477 
L 192.45934 219.321831 
L 193.470534 219.321831 
L 193.470534 218.305185 
L 194.556147 218.305185 
L 194.618567 216.271894 
L 195.637224 216.271894 
L 195.637224 215.255249 
L 195.964396 215.255249 
L 195.964396 214.238603 
L 196.100087 214.238603 
L 196.100087 213.221958 
L 196.504516 213.221958 
L 196.525424 211.188667 
L 197.005618 211.188667 
L 197.005618 210.172021 
L 197.690965 210.172021 
L 197.796451 207.122085 
L 198.063719 207.122085 
L 198.063719 206.105439 
L 198.593949 206.105439 
L 198.593949 205.088794 
L 198.955585 205.088794 
L 198.955585 204.072148 
L 199.14228 204.072148 
L 199.164844 202.038857 
L 199.688501 202.038857 
L 199.688501 201.022212 
L 200.142034 201.022212 
L 200.142034 200.005566 
L 200.510674 200.005566 
L 200.510674 198.988921 
L 200.861415 198.988921 
L 200.861415 197.972275 
L 201.771833 197.972275 
L 201.847728 195.938984 
L 202.463157 195.938984 
L 202.463157 194.922339 
L 203.140227 194.922339 
L 203.193557 192.889048 
L 203.355277 192.889048 
L 203.355277 191.872402 
L 203.603384 191.872402 
L 203.649606 189.839111 
L 205.82311 189.839111 
L 205.848709 186.789175 
L 206.533161 186.789175 
L 206.533161 185.772529 
L 207.772948 185.772529 
L 207.772948 184.755884 
L 207.901555 184.755884 
L 208.007936 180.689302 
L 208.278871 180.689302 
L 208.278871 179.672656 
L 209.189272 179.672656 
L 209.189272 178.656011 
L 209.332858 178.656011 
L 209.353765 176.62272 
L 210.266811 176.62272 
L 210.266811 175.606074 
L 210.438098 175.606074 
L 210.438098 174.589429 
L 210.584438 174.589429 
L 210.584438 173.572783 
L 211.783927 173.572783 
L 211.786443 171.539492 
L 211.962411 171.539492 
L 211.983319 169.506201 
L 213.444695 169.506201 
L 213.444695 168.489556 
L 213.94567 168.489556 
L 213.94567 167.47291 
L 214.41348 167.47291 
L 214.41348 166.456265 
L 214.813088 166.456265 
L 214.813088 165.439619 
L 215.291499 165.439619 
L 215.291499 164.422974 
L 216.723739 164.422974 
L 216.744647 162.389683 
L 217.326109 162.389683 
L 217.326109 161.373037 
L 217.495971 161.373037 
L 217.495971 160.356392 
L 217.921052 160.356392 
L 217.921052 159.339746 
L 219.174808 159.339746 
L 219.174808 158.323101 
L 219.485336 158.323101 
L 219.485336 157.306455 
L 220.831165 157.306455 
L 220.831165 156.28981 
L 222.68238 156.28981 
L 222.68238 155.273164 
L 223.460718 155.273164 
L 223.460718 154.256519 
L 223.635273 154.256519 
L 223.65618 152.223228 
L 226.086342 152.223228 
L 226.086342 151.206582 
L 228.222046 151.206582 
L 228.222046 150.189937 
L 229.593914 150.189937 
L 229.593914 149.173291 
L 235.13358 149.173291 
L 235.13358 148.156646 
L 245.8301 148.156646 
L 245.8301 147.14 
L 249.412116 147.14 
L 249.412116 146.123354 
L 252.194 146.123354 
L 252.270269 144.090063 
L 252.904796 144.090063 
L 252.904796 143.073418 
L 253.219548 143.073418 
L 253.219548 142.056772 
L 257.715691 142.056772 
L 257.715691 141.040127 
L 265.521611 141.040127 
L 265.521611 140.023481 
L 271.600116 140.023481 
L 271.600116 139.006836 
L 272.788313 139.006836 
L 272.788313 137.99019 
L 273.22136 137.99019 
L 273.22136 136.973545 
L 273.983895 136.973545 
L 274.052167 134.940254 
L 274.382 134.940254 
L 274.382 133.923608 
L 275.092796 133.923608 
L 275.092796 132.906963 
L 275.560972 132.906963 
L 275.570197 130.873672 
L 276.280993 130.873672 
L 276.280993 129.857026 
L 276.948239 129.857026 
L 277.042441 127.823735 
L 277.357973 127.823735 
L 277.357973 126.80709 
L 278.342856 126.80709 
L 278.342856 125.790444 
L 279.053652 125.790444 
L 279.053652 124.773799 
L 279.730123 124.773799 
L 279.730123 123.757153 
L 280.139857 123.757153 
L 280.139857 122.740508 
L 280.417723 122.740508 
L 280.440919 120.707217 
L 280.850653 120.707217 
L 280.850653 119.690571 
L 283.199607 119.690571 
L 283.199607 118.673926 
L 283.910403 118.673926 
L 283.910403 117.65728 
L 284.086138 117.65728 
L 284.086138 116.640635 
L 286.868022 116.640635 
L 286.868022 115.623989 
L 287.578818 115.623989 
L 287.578818 114.607344 
L 288.309685 114.607344 
L 288.309685 113.590698 
L 292.072118 113.590698 
L 292.072118 112.574053 
L 296.171894 112.574053 
L 296.240167 110.540762 
L 297.273126 110.540762 
L 297.360092 108.507471 
L 297.428364 108.507471 
L 297.428364 107.490825 
L 299.230441 107.490825 
L 299.230441 106.47418 
L 300.132751 106.47418 
L 300.201023 104.440889 
L 300.418638 104.440889 
L 300.418638 103.424243 
L 301.520018 103.424243 
L 301.588291 101.390952 
L 301.929752 101.390952 
L 301.998025 99.357661 
L 303.191298 99.357661 
L 303.191298 98.341016 
L 303.713296 98.341016 
L 303.713296 97.32437 
L 304.578565 97.32437 
L 304.662574 95.291079 
L 304.988299 95.291079 
L 305.057774 92.241143 
L 308.048048 92.241143 
L 308.048048 91.224497 
L 308.657917 91.224497 
L 308.726189 89.191206 
L 309.158717 89.191206 
L 309.158717 88.174561 
L 310.497684 88.174561 
L 310.497684 87.157915 
L 311.685882 87.157915 
L 311.716463 85.124624 
L 314.260118 85.124624 
L 314.260118 84.107979 
L 314.458541 84.107979 
L 314.458541 83.091333 
L 315.448315 83.091333 
L 315.448315 82.074688 
L 315.845808 82.074688 
L 315.845808 81.058042 
L 316.255542 81.058042 
L 316.255542 80.041397 
L 316.964637 80.041397 
L 316.964637 79.024751 
L 317.406288 79.024751 
L 317.406288 78.008106 
L 318.220974 78.008106 
L 318.220974 76.99146 
L 319.315291 76.99146 
L 319.315291 75.974815 
L 319.608242 75.974815 
L 319.608242 74.958169 
L 320.017976 74.958169 
L 320.017976 73.941523 
L 322.983707 73.941523 
L 323.077725 71.908232 
L 323.846458 71.908232 
L 323.846458 70.891587 
L 324.664386 70.891587 
L 324.664386 69.874941 
L 324.795737 69.874941 
L 324.795737 68.858296 
L 326.74614 68.858296 
L 326.74614 67.84165 
L 329.149099 67.84165 
L 329.149099 66.825005 
L 329.29188 66.825005 
L 329.29188 65.808359 
L 336.141189 65.808359 
L 336.141189 64.791714 
L 337.097799 64.791714 
L 337.097799 63.775068 
L 340.642804 63.775068 
L 340.642804 62.758423 
L 342.581359 62.758423 
L 342.581359 61.741777 
L 343.530637 61.741777 
L 343.530637 60.725132 
L 344.797549 60.725132 
L 344.797549 59.708486 
L 347.082974 59.708486 
L 347.082974 58.691841 
L 348.026781 58.691841 
L 348.032253 56.65855 
L 351.337099 56.65855 
L 351.337099 55.641904 
L 352.525296 55.641904 
L 352.528396 53.608613 
L 355.297955 53.608613 
L 355.297955 52.591968 
L 355.8327 52.591968 
L 355.8327 51.575322 
L 356.685222 51.575322 
L 356.685222 50.558677 
L 357.094957 50.558677 
L 357.094957 49.542031 
L 360.154706 49.542031 
L 360.154706 48.525386 
L 360.334316 48.525386 
L 360.334316 47.50874 
L 363.53245 47.50874 
L 363.53245 46.492095 
L 363.823121 46.492095 
L 363.823121 45.475449 
L 368.034065 45.475449 
L 368.034065 44.458804 
L 453.192 44.458804 
L 453.192 44.458804 
" clip-path="url(#pd60ec154cd)" style="fill: none; stroke: #ff0000; stroke-width: 3; stroke-linecap: square"/>
   </g>
   <g id="line2d_64">
    <path clip-path="url(#pd60ec154cd)" style="fill: none; stroke: #ff0000; stroke-width: 3; stroke-linecap: square"/>
   </g>
   <g id="line2d_65">
    <path d="M 35.043606 5.826275 
L 34.16 5.826275 
L 453.192 5.826275 
L 461.8 5.826275 
" clip-path="url(#pd60ec154cd)" style="fill: none; stroke: #0000ff; stroke-width: 3; stroke-linecap: square"/>
   </g>
   <g id="line2d_66">
    <path d="M 243.676 291.28 
L 243.676 3 
" clip-path="url(#pd60ec154cd)" style="fill: none; stroke: #000000; stroke-width: 1.5; stroke-linecap: square"/>
   </g>
   <g id="line2d_67">
    <path d="M 34.16 147.14 
L 453.192 147.14 
" clip-path="url(#pd60ec154cd)" style="fill: none; stroke-dasharray: 2,3.3; stroke-dashoffset: 0; stroke: #000000; stroke-width: 2"/>
   </g>
   <g id="patch_3">
    <path d="M 34.16 291.28 
L 34.16 3 
" style="fill: none; stroke: #000000; stroke-width: 0.8; stroke-linejoin: miter; stroke-linecap: square"/>
   </g>
   <g id="patch_4">
    <path d="M 453.192 291.28 
L 453.192 3 
" style="fill: none; stroke: #000000; stroke-width: 0.8; stroke-linejoin: miter; stroke-linecap: square"/>
   </g>
   <g id="patch_5">
    <path d="M 34.16 291.28 
L 453.192 291.28 
" style="fill: none; stroke: #000000; stroke-width: 0.8; stroke-linejoin: miter; stroke-linecap: square"/>
   </g>
   <g id="patch_6">
    <path d="M 34.16 3 
L 453.192 3 
" style="fill: none; stroke: #000000; stroke-width: 0.8; stroke-linejoin: miter; stroke-linecap: square"/>
   </g>
   <g id="text_5">
    <!-- f1, f2, f11,5-D -->
    <g transform="translate(305.66761 285.5144)scale(0.2 -0.2)">
     <defs>
      <path id="DejaVuSans-2c" d="M 750 794 
L 1409 794 
L 1409 256 
L 897 -744 
L 494 -744 
L 750 256 
L 750 794 
z
" transform="scale(0.015625)"/>
      <path id="DejaVuSans-32" d="M 1228 531 
L 3431 531 
L 3431 0 
L 469 0 
L 469 531 
Q 828 903 1448 1529 
Q 2069 2156 2228 2338 
Q 2531 2678 2651 2914 
Q 2772 3150 2772 3378 
Q 2772 3750 2511 3984 
Q 2250 4219 1831 4219 
Q 1534 4219 1204 4116 
Q 875 4013 500 3803 
L 500 4441 
Q 881 4594 1212 4672 
Q 1544 4750 1819 4750 
Q 2544 4750 2975 4387 
Q 3406 4025 3406 3419 
Q 3406 3131 3298 2873 
Q 3191 2616 2906 2266 
Q 2828 2175 2409 1742 
Q 1991 1309 1228 531 
z
" transform="scale(0.015625)"/>
      <path id="DejaVuSans-35" d="M 691 4666 
L 3169 4666 
L 3169 4134 
L 1269 4134 
L 1269 2991 
Q 1406 3038 1543 3061 
Q 1681 3084 1819 3084 
Q 2600 3084 3056 2656 
Q 3513 2228 3513 1497 
Q 3513 744 3044 326 
Q 2575 -91 1722 -91 
Q 1428 -91 1123 -41 
Q 819 9 494 109 
L 494 744 
Q 775 591 1075 516 
Q 1375 441 1709 441 
Q 2250 441 2565 725 
Q 2881 1009 2881 1497 
Q 2881 1984 2565 2268 
Q 2250 2553 1709 2553 
Q 1456 2553 1204 2497 
Q 953 2441 691 2322 
L 691 4666 
z
" transform="scale(0.015625)"/>
      <path id="DejaVuSans-44" d="M 1259 4147 
L 1259 519 
L 2022 519 
Q 2988 519 3436 956 
Q 3884 1394 3884 2338 
Q 3884 3275 3436 3711 
Q 2988 4147 2022 4147 
L 1259 4147 
z
M 628 4666 
L 1925 4666 
Q 3281 4666 3915 4102 
Q 4550 3538 4550 2338 
Q 4550 1131 3912 565 
Q 3275 0 1925 0 
L 628 0 
L 628 4666 
z
" transform="scale(0.015625)"/>
     </defs>
     <use xlink:href="#DejaVuSans-66"/>
     <use xlink:href="#DejaVuSans-31" x="35.205078"/>
     <use xlink:href="#DejaVuSans-2c" x="98.828125"/>
     <use xlink:href="#DejaVuSans-20" x="130.615234"/>
     <use xlink:href="#DejaVuSans-66" x="162.402344"/>
     <use xlink:href="#DejaVuSans-32" x="197.607422"/>
     <use xlink:href="#DejaVuSans-2c" x="261.230469"/>
     <use xlink:href="#DejaVuSans-20" x="293.017578"/>
     <use xlink:href="#DejaVuSans-66" x="324.804688"/>
     <use xlink:href="#DejaVuSans-31" x="360.009766"/>
     <use xlink:href="#DejaVuSans-31" x="423.632812"/>
     <use xlink:href="#DejaVuSans-2c" x="487.255859"/>
     <use xlink:href="#DejaVuSans-35" x="519.042969"/>
     <use xlink:href="#DejaVuSans-2d" x="582.666016"/>
     <use xlink:href="#DejaVuSans-44" x="618.75"/>
    </g>
   </g>
   <g id="text_6">
    <!-- v2.6.3.13, hv-hash=ff0e71e8cd978373 -->
    <g style="fill: #808080" transform="translate(145.458812 286.317512)scale(0.1 -0.1)">
     <defs>
      <path id="DejaVuSans-2e" d="M 684 794 
L 1344 794 
L 1344 0 
L 684 0 
L 684 794 
z
" transform="scale(0.015625)"/>
      <path id="DejaVuSans-36" d="M 2113 2584 
Q 1688 2584 1439 2293 
Q 1191 2003 1191 1497 
Q 1191 994 1439 701 
Q 1688 409 2113 409 
Q 2538 409 2786 701 
Q 3034 994 3034 1497 
Q 3034 2003 2786 2293 
Q 2538 2584 2113 2584 
z
M 3366 4563 
L 3366 3988 
Q 3128 4100 2886 4159 
Q 2644 4219 2406 4219 
Q 1781 4219 1451 3797 
Q 1122 3375 1075 2522 
Q 1259 2794 1537 2939 
Q 1816 3084 2150 3084 
Q 2853 3084 3261 2657 
Q 3669 2231 3669 1497 
Q 3669 778 3244 343 
Q 2819 -91 2113 -91 
Q 1303 -91 875 529 
Q 447 1150 447 2328 
Q 447 3434 972 4092 
Q 1497 4750 2381 4750 
Q 2619 4750 2861 4703 
Q 3103 4656 3366 4563 
z
" transform="scale(0.015625)"/>
      <path id="DejaVuSans-33" d="M 2597 2516 
Q 3050 2419 3304 2112 
Q 3559 1806 3559 1356 
Q 3559 666 3084 287 
Q 2609 -91 1734 -91 
Q 1441 -91 1130 -33 
Q 819 25 488 141 
L 488 750 
Q 750 597 1062 519 
Q 1375 441 1716 441 
Q 2309 441 2620 675 
Q 2931 909 2931 1356 
Q 2931 1769 2642 2001 
Q 2353 2234 1838 2234 
L 1294 2234 
L 1294 2753 
L 1863 2753 
Q 2328 2753 2575 2939 
Q 2822 3125 2822 3475 
Q 2822 3834 2567 4026 
Q 2313 4219 1838 4219 
Q 1578 4219 1281 4162 
Q 984 4106 628 3988 
L 628 4550 
Q 988 4650 1302 4700 
Q 1616 4750 1894 4750 
Q 2613 4750 3031 4423 
Q 3450 4097 3450 3541 
Q 3450 3153 3228 2886 
Q 3006 2619 2597 2516 
z
" transform="scale(0.015625)"/>
      <path id="DejaVuSans-68" d="M 3513 2113 
L 3513 0 
L 2938 0 
L 2938 2094 
Q 2938 2591 2744 2837 
Q 2550 3084 2163 3084 
Q 1697 3084 1428 2787 
Q 1159 2491 1159 1978 
L 1159 0 
L 581 0 
L 581 4863 
L 1159 4863 
L 1159 2956 
Q 1366 3272 1645 3428 
Q 1925 3584 2291 3584 
Q 2894 3584 3203 3211 
Q 3513 2838 3513 2113 
z
" transform="scale(0.015625)"/>
      <path id="DejaVuSans-3d" d="M 678 2906 
L 4684 2906 
L 4684 2381 
L 678 2381 
L 678 2906 
z
M 678 1631 
L 4684 1631 
L 4684 1100 
L 678 1100 
L 678 1631 
z
" transform="scale(0.015625)"/>
      <path id="DejaVuSans-65" d="M 3597 1894 
L 3597 1613 
L 953 1613 
Q 991 1019 1311 708 
Q 1631 397 2203 397 
Q 2534 397 2845 478 
Q 3156 559 3463 722 
L 3463 178 
Q 3153 47 2828 -22 
Q 2503 -91 2169 -91 
Q 1331 -91 842 396 
Q 353 884 353 1716 
Q 353 2575 817 3079 
Q 1281 3584 2069 3584 
Q 2775 3584 3186 3129 
Q 3597 2675 3597 1894 
z
M 3022 2063 
Q 3016 2534 2758 2815 
Q 2500 3097 2075 3097 
Q 1594 3097 1305 2825 
Q 1016 2553 972 2059 
L 3022 2063 
z
" transform="scale(0.015625)"/>
      <path id="DejaVuSans-37" d="M 525 4666 
L 3525 4666 
L 3525 4397 
L 1831 0 
L 1172 0 
L 2766 4134 
L 525 4134 
L 525 4666 
z
" transform="scale(0.015625)"/>
      <path id="DejaVuSans-38" d="M 2034 2216 
Q 1584 2216 1326 1975 
Q 1069 1734 1069 1313 
Q 1069 891 1326 650 
Q 1584 409 2034 409 
Q 2484 409 2743 651 
Q 3003 894 3003 1313 
Q 3003 1734 2745 1975 
Q 2488 2216 2034 2216 
z
M 1403 2484 
Q 997 2584 770 2862 
Q 544 3141 544 3541 
Q 544 4100 942 4425 
Q 1341 4750 2034 4750 
Q 2731 4750 3128 4425 
Q 3525 4100 3525 3541 
Q 3525 3141 3298 2862 
Q 3072 2584 2669 2484 
Q 3125 2378 3379 2068 
Q 3634 1759 3634 1313 
Q 3634 634 3220 271 
Q 2806 -91 2034 -91 
Q 1263 -91 848 271 
Q 434 634 434 1313 
Q 434 1759 690 2068 
Q 947 2378 1403 2484 
z
M 1172 3481 
Q 1172 3119 1398 2916 
Q 1625 2713 2034 2713 
Q 2441 2713 2670 2916 
Q 2900 3119 2900 3481 
Q 2900 3844 2670 4047 
Q 2441 4250 2034 4250 
Q 1625 4250 1398 4047 
Q 1172 3844 1172 3481 
z
" transform="scale(0.015625)"/>
      <path id="DejaVuSans-63" d="M 3122 3366 
L 3122 2828 
Q 2878 2963 2633 3030 
Q 2388 3097 2138 3097 
Q 1578 3097 1268 2742 
Q 959 2388 959 1747 
Q 959 1106 1268 751 
Q 1578 397 2138 397 
Q 2388 397 2633 464 
Q 2878 531 3122 666 
L 3122 134 
Q 2881 22 2623 -34 
Q 2366 -91 2075 -91 
Q 1284 -91 818 406 
Q 353 903 353 1747 
Q 353 2603 823 3093 
Q 1294 3584 2113 3584 
Q 2378 3584 2631 3529 
Q 2884 3475 3122 3366 
z
" transform="scale(0.015625)"/>
      <path id="DejaVuSans-64" d="M 2906 2969 
L 2906 4863 
L 3481 4863 
L 3481 0 
L 2906 0 
L 2906 525 
Q 2725 213 2448 61 
Q 2172 -91 1784 -91 
Q 1150 -91 751 415 
Q 353 922 353 1747 
Q 353 2572 751 3078 
Q 1150 3584 1784 3584 
Q 2172 3584 2448 3432 
Q 2725 3281 2906 2969 
z
M 947 1747 
Q 947 1113 1208 752 
Q 1469 391 1925 391 
Q 2381 391 2643 752 
Q 2906 1113 2906 1747 
Q 2906 2381 2643 2742 
Q 2381 3103 1925 3103 
Q 1469 3103 1208 2742 
Q 947 2381 947 1747 
z
" transform="scale(0.015625)"/>
      <path id="DejaVuSans-39" d="M 703 97 
L 703 672 
Q 941 559 1184 500 
Q 1428 441 1663 441 
Q 2288 441 2617 861 
Q 2947 1281 2994 2138 
Q 2813 1869 2534 1725 
Q 2256 1581 1919 1581 
Q 1219 1581 811 2004 
Q 403 2428 403 3163 
Q 403 3881 828 4315 
Q 1253 4750 1959 4750 
Q 2769 4750 3195 4129 
Q 3622 3509 3622 2328 
Q 3622 1225 3098 567 
Q 2575 -91 1691 -91 
Q 1453 -91 1209 -44 
Q 966 3 703 97 
z
M 1959 2075 
Q 2384 2075 2632 2365 
Q 2881 2656 2881 3163 
Q 2881 3666 2632 3958 
Q 2384 4250 1959 4250 
Q 1534 4250 1286 3958 
Q 1038 3666 1038 3163 
Q 1038 2656 1286 2365 
Q 1534 2075 1959 2075 
z
" transform="scale(0.015625)"/>
     </defs>
     <use xlink:href="#DejaVuSans-76"/>
     <use xlink:href="#DejaVuSans-32" x="59.179688"/>
     <use xlink:href="#DejaVuSans-2e" x="122.802734"/>
     <use xlink:href="#DejaVuSans-36" x="154.589844"/>
     <use xlink:href="#DejaVuSans-2e" x="218.212891"/>
     <use xlink:href="#DejaVuSans-33" x="250"/>
     <use xlink:href="#DejaVuSans-2e" x="313.623047"/>
     <use xlink:href="#DejaVuSans-31" x="345.410156"/>
     <use xlink:href="#DejaVuSans-33" x="409.033203"/>
     <use xlink:href="#DejaVuSans-2c" x="472.65625"/>
     <use xlink:href="#DejaVuSans-20" x="504.443359"/>
     <use xlink:href="#DejaVuSans-68" x="536.230469"/>
     <use xlink:href="#DejaVuSans-76" x="599.609375"/>
     <use xlink:href="#DejaVuSans-2d" x="656.164062"/>
     <use xlink:href="#DejaVuSans-68" x="692.248047"/>
     <use xlink:href="#DejaVuSans-61" x="755.626953"/>
     <use xlink:href="#DejaVuSans-73" x="816.90625"/>
     <use xlink:href="#DejaVuSans-68" x="869.005859"/>
     <use xlink:href="#DejaVuSans-3d" x="932.384766"/>
     <use xlink:href="#DejaVuSans-66" x="1016.173828"/>
     <use xlink:href="#DejaVuSans-66" x="1051.378906"/>
     <use xlink:href="#DejaVuSans-30" x="1086.583984"/>
     <use xlink:href="#DejaVuSans-65" x="1150.207031"/>
     <use xlink:href="#DejaVuSans-37" x="1211.730469"/>
     <use xlink:href="#DejaVuSans-31" x="1275.353516"/>
     <use xlink:href="#DejaVuSans-65" x="1338.976562"/>
     <use xlink:href="#DejaVuSans-38" x="1400.5"/>
     <use xlink:href="#DejaVuSans-63" x="1464.123047"/>
     <use xlink:href="#DejaVuSans-64" x="1519.103516"/>
     <use xlink:href="#DejaVuSans-39" x="1582.580078"/>
     <use xlink:href="#DejaVuSans-37" x="1646.203125"/>
     <use xlink:href="#DejaVuSans-38" x="1709.826172"/>
     <use xlink:href="#DejaVuSans-33" x="1773.449219"/>
     <use xlink:href="#DejaVuSans-37" x="1837.072266"/>
     <use xlink:href="#DejaVuSans-33" x="1900.695312"/>
    </g>
   </g>
   <g id="legend_1">
    <g id="patch_7">
     <path d="M 48.16 165.78125 
L 177.381875 165.78125 
Q 181.381875 165.78125 181.381875 161.78125 
L 181.381875 17 
Q 181.381875 13 177.381875 13 
L 48.16 13 
Q 44.16 13 44.16 17 
L 44.16 161.78125 
Q 44.16 165.78125 48.16 165.78125 
z
" style="fill: #ffffff; opacity: 0.2; stroke: #cccccc; stroke-linejoin: miter"/>
    </g>
    <g id="line2d_68">
     <path d="M 52.16 29.196875 
L 72.16 29.196875 
L 92.16 29.196875 
" style="fill: none; stroke: #000000; stroke-width: 3; stroke-linecap: square"/>
    </g>
    <g id="text_7">
     <!-- -1: 3/3 -->
     <g transform="translate(108.16 36.196875)scale(0.2 -0.2)">
      <defs>
       <path id="DejaVuSans-3a" d="M 750 794 
L 1409 794 
L 1409 0 
L 750 0 
L 750 794 
z
M 750 3309 
L 1409 3309 
L 1409 2516 
L 750 2516 
L 750 3309 
z
" transform="scale(0.015625)"/>
       <path id="DejaVuSans-2f" d="M 1625 4666 
L 2156 4666 
L 531 -594 
L 0 -594 
L 1625 4666 
z
" transform="scale(0.015625)"/>
      </defs>
      <use xlink:href="#DejaVuSans-2d"/>
      <use xlink:href="#DejaVuSans-31" x="36.083984"/>
      <use xlink:href="#DejaVuSans-3a" x="99.707031"/>
      <use xlink:href="#DejaVuSans-20" x="133.398438"/>
      <use xlink:href="#DejaVuSans-33" x="165.185547"/>
      <use xlink:href="#DejaVuSans-2f" x="228.808594"/>
      <use xlink:href="#DejaVuSans-33" x="262.5"/>
     </g>
    </g>
    <g id="line2d_69">
     <path d="M 52.16 58.553125 
L 72.16 58.553125 
L 92.16 58.553125 
" style="fill: none; stroke: #00bfbf; stroke-width: 3; stroke-linecap: square"/>
    </g>
    <g id="text_8">
     <!-- -2: 3/3 -->
     <g transform="translate(108.16 65.553125)scale(0.2 -0.2)">
      <use xlink:href="#DejaVuSans-2d"/>
      <use xlink:href="#DejaVuSans-32" x="36.083984"/>
      <use xlink:href="#DejaVuSans-3a" x="99.707031"/>
      <use xlink:href="#DejaVuSans-20" x="133.398438"/>
      <use xlink:href="#DejaVuSans-33" x="165.185547"/>
      <use xlink:href="#DejaVuSans-2f" x="228.808594"/>
      <use xlink:href="#DejaVuSans-33" x="262.5"/>
     </g>
    </g>
    <g id="line2d_70">
     <path d="M 52.16 87.909375 
L 72.16 87.909375 
L 92.16 87.909375 
" style="fill: none; stroke: #bf00bf; stroke-width: 3; stroke-linecap: square"/>
    </g>
    <g id="text_9">
     <!-- -3: 3/3 -->
     <g transform="translate(108.16 94.909375)scale(0.2 -0.2)">
      <use xlink:href="#DejaVuSans-2d"/>
      <use xlink:href="#DejaVuSans-33" x="36.083984"/>
      <use xlink:href="#DejaVuSans-3a" x="99.707031"/>
      <use xlink:href="#DejaVuSans-20" x="133.398438"/>
      <use xlink:href="#DejaVuSans-33" x="165.185547"/>
      <use xlink:href="#DejaVuSans-2f" x="228.808594"/>
      <use xlink:href="#DejaVuSans-33" x="262.5"/>
     </g>
    </g>
    <g id="line2d_71">
     <path d="M 52.16 117.265625 
L 72.16 117.265625 
L 92.16 117.265625 
" style="fill: none; stroke: #ff0000; stroke-width: 3; stroke-linecap: square"/>
    </g>
    <g id="text_10">
     <!-- -4: 3/3 -->
     <g transform="translate(108.16 124.265625)scale(0.2 -0.2)">
      <defs>
       <path id="DejaVuSans-34" d="M 2419 4116 
L 825 1625 
L 2419 1625 
L 2419 4116 
z
M 2253 4666 
L 3047 4666 
L 3047 1625 
L 3713 1625 
L 3713 1100 
L 3047 1100 
L 3047 0 
L 2419 0 
L 2419 1100 
L 313 1100 
L 313 1709 
L 2253 4666 
z
" transform="scale(0.015625)"/>
      </defs>
      <use xlink:href="#DejaVuSans-2d"/>
      <use xlink:href="#DejaVuSans-34" x="36.083984"/>
      <use xlink:href="#DejaVuSans-3a" x="99.707031"/>
      <use xlink:href="#DejaVuSans-20" x="133.398438"/>
      <use xlink:href="#DejaVuSans-33" x="165.185547"/>
      <use xlink:href="#DejaVuSans-2f" x="228.808594"/>
      <use xlink:href="#DejaVuSans-33" x="262.5"/>
     </g>
    </g>
    <g id="line2d_72">
     <path d="M 52.16 146.621875 
L 72.16 146.621875 
L 92.16 146.621875 
" style="fill: none; stroke: #0000ff; stroke-width: 3; stroke-linecap: square"/>
    </g>
    <g id="text_11">
     <!-- -5: 1/0 -->
     <g transform="translate(108.16 153.621875)scale(0.2 -0.2)">
      <use xlink:href="#DejaVuSans-2d"/>
      <use xlink:href="#DejaVuSans-35" x="36.083984"/>
      <use xlink:href="#DejaVuSans-3a" x="99.707031"/>
      <use xlink:href="#DejaVuSans-20" x="133.398438"/>
      <use xlink:href="#DejaVuSans-31" x="165.185547"/>
      <use xlink:href="#DejaVuSans-2f" x="228.808594"/>
      <use xlink:href="#DejaVuSans-30" x="262.5"/>
     </g>
    </g>
   </g>
  </g>
 </g>
 <defs>
  <clipPath id="pd60ec154cd">
   <rect x="34.16" y="3" width="419.032" height="288.28"/>
  </clipPath>
 </defs>
</svg>
