<?xml version="1.0" encoding="utf-8" standalone="no"?>
<!DOCTYPE svg PUBLIC "-//W3C//DTD SVG 1.1//EN"
  "http://www.w3.org/Graphics/SVG/1.1/DTD/svg11.dtd">
<svg xmlns:xlink="http://www.w3.org/1999/xlink" width="460.8pt" height="345.6pt" viewBox="0 0 460.8 345.6" xmlns="http://www.w3.org/2000/svg" version="1.1">
 <metadata>
  <rdf:RDF xmlns:dc="http://purl.org/dc/elements/1.1/" xmlns:cc="http://creativecommons.org/ns#" xmlns:rdf="http://www.w3.org/1999/02/22-rdf-syntax-ns#">
   <cc:Work>
    <dc:type rdf:resource="http://purl.org/dc/dcmitype/StillImage"/>
    <dc:date>2023-06-02T15:28:13.703413</dc:date>
    <dc:format>image/svg+xml</dc:format>
    <dc:creator>
     <cc:Agent>
      <dc:title>Matplotlib v3.5.2, https://matplotlib.org/</dc:title>
     </cc:Agent>
    </dc:creator>
   </cc:Work>
  </rdf:RDF>
 </metadata>
 <defs>
  <style type="text/css">*{stroke-linejoin: round; stroke-linecap: butt}</style>
 </defs>
 <g id="figure_1">
  <g id="patch_1">
   <path d="M 0 345.6 
L 460.8 345.6 
L 460.8 0 
L 0 0 
z
" style="fill: #ffffff"/>
  </g>
  <g id="axes_1">
   <g id="patch_2">
    <path d="M 34.16 291.28 
L 453.192 291.28 
L 453.192 3 
L 34.16 3 
z
" style="fill: #ffffff"/>
   </g>
   <g id="matplotlib.axis_1">
    <g id="xtick_1">
     <g id="line2d_1">
      <path d="M 134.061116 291.28 
L 134.061116 3 
" clip-path="url(#pdab6883d90)" style="fill: none; stroke: #b0b0b0; stroke-width: 0.8; stroke-linecap: square"/>
     </g>
     <g id="line2d_2">
      <defs>
       <path id="mb43da0288a" d="M 0 0 
L 0 3.5 
" style="stroke: #000000; stroke-width: 0.8"/>
      </defs>
      <g>
       <use xlink:href="#mb43da0288a" x="134.061116" y="291.28" style="stroke: #000000; stroke-width: 0.8"/>
      </g>
     </g>
     <g id="text_1">
      <!-- -2 -->
      <g transform="translate(124.090803 313.476875)scale(0.2 -0.2)">
       <defs>
        <path id="DejaVuSans-2d" d="M 313 2009 
L 1997 2009 
L 1997 1497 
L 313 1497 
L 313 2009 
z
" transform="scale(0.015625)"/>
        <path id="DejaVuSans-32" d="M 1228 531 
L 3431 531 
L 3431 0 
L 469 0 
L 469 531 
Q 828 903 1448 1529 
Q 2069 2156 2228 2338 
Q 2531 2678 2651 2914 
Q 2772 3150 2772 3378 
Q 2772 3750 2511 3984 
Q 2250 4219 1831 4219 
Q 1534 4219 1204 4116 
Q 875 4013 500 3803 
L 500 4441 
Q 881 4594 1212 4672 
Q 1544 4750 1819 4750 
Q 2544 4750 2975 4387 
Q 3406 4025 3406 3419 
Q 3406 3131 3298 2873 
Q 3191 2616 2906 2266 
Q 2828 2175 2409 1742 
Q 1991 1309 1228 531 
z
" transform="scale(0.015625)"/>
       </defs>
       <use xlink:href="#DejaVuSans-2d"/>
       <use xlink:href="#DejaVuSans-32" x="36.083984"/>
      </g>
     </g>
    </g>
    <g id="xtick_2">
     <g id="line2d_3">
      <path d="M 243.676 291.28 
L 243.676 3 
" clip-path="url(#pdab6883d90)" style="fill: none; stroke: #b0b0b0; stroke-width: 0.8; stroke-linecap: square"/>
     </g>
     <g id="line2d_4">
      <g>
       <use xlink:href="#mb43da0288a" x="243.676" y="291.28" style="stroke: #000000; stroke-width: 0.8"/>
      </g>
     </g>
     <g id="text_2">
      <!-- 0 -->
      <g transform="translate(237.3135 313.476875)scale(0.2 -0.2)">
       <defs>
        <path id="DejaVuSans-30" d="M 2034 4250 
Q 1547 4250 1301 3770 
Q 1056 3291 1056 2328 
Q 1056 1369 1301 889 
Q 1547 409 2034 409 
Q 2525 409 2770 889 
Q 3016 1369 3016 2328 
Q 3016 3291 2770 3770 
Q 2525 4250 2034 4250 
z
M 2034 4750 
Q 2819 4750 3233 4129 
Q 3647 3509 3647 2328 
Q 3647 1150 3233 529 
Q 2819 -91 2034 -91 
Q 1250 -91 836 529 
Q 422 1150 422 2328 
Q 422 3509 836 4129 
Q 1250 4750 2034 4750 
z
" transform="scale(0.015625)"/>
       </defs>
       <use xlink:href="#DejaVuSans-30"/>
      </g>
     </g>
    </g>
    <g id="xtick_3">
     <g id="line2d_5">
      <path d="M 353.290884 291.28 
L 353.290884 3 
" clip-path="url(#pdab6883d90)" style="fill: none; stroke: #b0b0b0; stroke-width: 0.8; stroke-linecap: square"/>
     </g>
     <g id="line2d_6">
      <g>
       <use xlink:href="#mb43da0288a" x="353.290884" y="291.28" style="stroke: #000000; stroke-width: 0.8"/>
      </g>
     </g>
     <g id="text_3">
      <!-- 2 -->
      <g transform="translate(346.928384 313.476875)scale(0.2 -0.2)">
       <use xlink:href="#DejaVuSans-32"/>
      </g>
     </g>
    </g>
    <g id="text_4">
     <!-- log10 of FEvals ratio -->
     <g transform="translate(141.371312 336.833125)scale(0.2 -0.2)">
      <defs>
       <path id="DejaVuSans-6c" d="M 603 4863 
L 1178 4863 
L 1178 0 
L 603 0 
L 603 4863 
z
" transform="scale(0.015625)"/>
       <path id="DejaVuSans-6f" d="M 1959 3097 
Q 1497 3097 1228 2736 
Q 959 2375 959 1747 
Q 959 1119 1226 758 
Q 1494 397 1959 397 
Q 2419 397 2687 759 
Q 2956 1122 2956 1747 
Q 2956 2369 2687 2733 
Q 2419 3097 1959 3097 
z
M 1959 3584 
Q 2709 3584 3137 3096 
Q 3566 2609 3566 1747 
Q 3566 888 3137 398 
Q 2709 -91 1959 -91 
Q 1206 -91 779 398 
Q 353 888 353 1747 
Q 353 2609 779 3096 
Q 1206 3584 1959 3584 
z
" transform="scale(0.015625)"/>
       <path id="DejaVuSans-67" d="M 2906 1791 
Q 2906 2416 2648 2759 
Q 2391 3103 1925 3103 
Q 1463 3103 1205 2759 
Q 947 2416 947 1791 
Q 947 1169 1205 825 
Q 1463 481 1925 481 
Q 2391 481 2648 825 
Q 2906 1169 2906 1791 
z
M 3481 434 
Q 3481 -459 3084 -895 
Q 2688 -1331 1869 -1331 
Q 1566 -1331 1297 -1286 
Q 1028 -1241 775 -1147 
L 775 -588 
Q 1028 -725 1275 -790 
Q 1522 -856 1778 -856 
Q 2344 -856 2625 -561 
Q 2906 -266 2906 331 
L 2906 616 
Q 2728 306 2450 153 
Q 2172 0 1784 0 
Q 1141 0 747 490 
Q 353 981 353 1791 
Q 353 2603 747 3093 
Q 1141 3584 1784 3584 
Q 2172 3584 2450 3431 
Q 2728 3278 2906 2969 
L 2906 3500 
L 3481 3500 
L 3481 434 
z
" transform="scale(0.015625)"/>
       <path id="DejaVuSans-31" d="M 794 531 
L 1825 531 
L 1825 4091 
L 703 3866 
L 703 4441 
L 1819 4666 
L 2450 4666 
L 2450 531 
L 3481 531 
L 3481 0 
L 794 0 
L 794 531 
z
" transform="scale(0.015625)"/>
       <path id="DejaVuSans-20" transform="scale(0.015625)"/>
       <path id="DejaVuSans-66" d="M 2375 4863 
L 2375 4384 
L 1825 4384 
Q 1516 4384 1395 4259 
Q 1275 4134 1275 3809 
L 1275 3500 
L 2222 3500 
L 2222 3053 
L 1275 3053 
L 1275 0 
L 697 0 
L 697 3053 
L 147 3053 
L 147 3500 
L 697 3500 
L 697 3744 
Q 697 4328 969 4595 
Q 1241 4863 1831 4863 
L 2375 4863 
z
" transform="scale(0.015625)"/>
       <path id="DejaVuSans-46" d="M 628 4666 
L 3309 4666 
L 3309 4134 
L 1259 4134 
L 1259 2759 
L 3109 2759 
L 3109 2228 
L 1259 2228 
L 1259 0 
L 628 0 
L 628 4666 
z
" transform="scale(0.015625)"/>
       <path id="DejaVuSans-45" d="M 628 4666 
L 3578 4666 
L 3578 4134 
L 1259 4134 
L 1259 2753 
L 3481 2753 
L 3481 2222 
L 1259 2222 
L 1259 531 
L 3634 531 
L 3634 0 
L 628 0 
L 628 4666 
z
" transform="scale(0.015625)"/>
       <path id="DejaVuSans-76" d="M 191 3500 
L 800 3500 
L 1894 563 
L 2988 3500 
L 3597 3500 
L 2284 0 
L 1503 0 
L 191 3500 
z
" transform="scale(0.015625)"/>
       <path id="DejaVuSans-61" d="M 2194 1759 
Q 1497 1759 1228 1600 
Q 959 1441 959 1056 
Q 959 750 1161 570 
Q 1363 391 1709 391 
Q 2188 391 2477 730 
Q 2766 1069 2766 1631 
L 2766 1759 
L 2194 1759 
z
M 3341 1997 
L 3341 0 
L 2766 0 
L 2766 531 
Q 2569 213 2275 61 
Q 1981 -91 1556 -91 
Q 1019 -91 701 211 
Q 384 513 384 1019 
Q 384 1609 779 1909 
Q 1175 2209 1959 2209 
L 2766 2209 
L 2766 2266 
Q 2766 2663 2505 2880 
Q 2244 3097 1772 3097 
Q 1472 3097 1187 3025 
Q 903 2953 641 2809 
L 641 3341 
Q 956 3463 1253 3523 
Q 1550 3584 1831 3584 
Q 2591 3584 2966 3190 
Q 3341 2797 3341 1997 
z
" transform="scale(0.015625)"/>
       <path id="DejaVuSans-73" d="M 2834 3397 
L 2834 2853 
Q 2591 2978 2328 3040 
Q 2066 3103 1784 3103 
Q 1356 3103 1142 2972 
Q 928 2841 928 2578 
Q 928 2378 1081 2264 
Q 1234 2150 1697 2047 
L 1894 2003 
Q 2506 1872 2764 1633 
Q 3022 1394 3022 966 
Q 3022 478 2636 193 
Q 2250 -91 1575 -91 
Q 1294 -91 989 -36 
Q 684 19 347 128 
L 347 722 
Q 666 556 975 473 
Q 1284 391 1588 391 
Q 1994 391 2212 530 
Q 2431 669 2431 922 
Q 2431 1156 2273 1281 
Q 2116 1406 1581 1522 
L 1381 1569 
Q 847 1681 609 1914 
Q 372 2147 372 2553 
Q 372 3047 722 3315 
Q 1072 3584 1716 3584 
Q 2034 3584 2315 3537 
Q 2597 3491 2834 3397 
z
" transform="scale(0.015625)"/>
       <path id="DejaVuSans-72" d="M 2631 2963 
Q 2534 3019 2420 3045 
Q 2306 3072 2169 3072 
Q 1681 3072 1420 2755 
Q 1159 2438 1159 1844 
L 1159 0 
L 581 0 
L 581 3500 
L 1159 3500 
L 1159 2956 
Q 1341 3275 1631 3429 
Q 1922 3584 2338 3584 
Q 2397 3584 2469 3576 
Q 2541 3569 2628 3553 
L 2631 2963 
z
" transform="scale(0.015625)"/>
       <path id="DejaVuSans-74" d="M 1172 4494 
L 1172 3500 
L 2356 3500 
L 2356 3053 
L 1172 3053 
L 1172 1153 
Q 1172 725 1289 603 
Q 1406 481 1766 481 
L 2356 481 
L 2356 0 
L 1766 0 
Q 1100 0 847 248 
Q 594 497 594 1153 
L 594 3053 
L 172 3053 
L 172 3500 
L 594 3500 
L 594 4494 
L 1172 4494 
z
" transform="scale(0.015625)"/>
       <path id="DejaVuSans-69" d="M 603 3500 
L 1178 3500 
L 1178 0 
L 603 0 
L 603 3500 
z
M 603 4863 
L 1178 4863 
L 1178 4134 
L 603 4134 
L 603 4863 
z
" transform="scale(0.015625)"/>
      </defs>
      <use xlink:href="#DejaVuSans-6c"/>
      <use xlink:href="#DejaVuSans-6f" x="27.783203"/>
      <use xlink:href="#DejaVuSans-67" x="88.964844"/>
      <use xlink:href="#DejaVuSans-31" x="152.441406"/>
      <use xlink:href="#DejaVuSans-30" x="216.064453"/>
      <use xlink:href="#DejaVuSans-20" x="279.6875"/>
      <use xlink:href="#DejaVuSans-6f" x="311.474609"/>
      <use xlink:href="#DejaVuSans-66" x="372.65625"/>
      <use xlink:href="#DejaVuSans-20" x="407.861328"/>
      <use xlink:href="#DejaVuSans-46" x="439.648438"/>
      <use xlink:href="#DejaVuSans-45" x="497.167969"/>
      <use xlink:href="#DejaVuSans-76" x="560.351562"/>
      <use xlink:href="#DejaVuSans-61" x="619.53125"/>
      <use xlink:href="#DejaVuSans-6c" x="680.810547"/>
      <use xlink:href="#DejaVuSans-73" x="708.59375"/>
      <use xlink:href="#DejaVuSans-20" x="760.693359"/>
      <use xlink:href="#DejaVuSans-72" x="792.480469"/>
      <use xlink:href="#DejaVuSans-61" x="833.59375"/>
      <use xlink:href="#DejaVuSans-74" x="894.873047"/>
      <use xlink:href="#DejaVuSans-69" x="934.082031"/>
      <use xlink:href="#DejaVuSans-6f" x="961.865234"/>
     </g>
    </g>
   </g>
   <g id="matplotlib.axis_2">
    <g id="ytick_1">
     <g id="line2d_7">
      <path d="M 34.16 288.453725 
L 453.192 288.453725 
" clip-path="url(#pdab6883d90)" style="fill: none; stroke: #b0b0b0; stroke-width: 0.8; stroke-linecap: square"/>
     </g>
     <g id="line2d_8">
      <defs>
       <path id="mf72fd2eb5c" d="M 0 0 
L -3.5 0 
" style="stroke: #000000; stroke-width: 0.8"/>
      </defs>
      <g>
       <use xlink:href="#mf72fd2eb5c" x="34.16" y="288.453725" style="stroke: #000000; stroke-width: 0.8"/>
      </g>
     </g>
    </g>
    <g id="ytick_2">
     <g id="line2d_9">
      <path d="M 34.16 217.796863 
L 453.192 217.796863 
" clip-path="url(#pdab6883d90)" style="fill: none; stroke: #b0b0b0; stroke-width: 0.8; stroke-linecap: square"/>
     </g>
     <g id="line2d_10">
      <g>
       <use xlink:href="#mf72fd2eb5c" x="34.16" y="217.796863" style="stroke: #000000; stroke-width: 0.8"/>
      </g>
     </g>
    </g>
    <g id="ytick_3">
     <g id="line2d_11">
      <path d="M 34.16 147.14 
L 453.192 147.14 
" clip-path="url(#pdab6883d90)" style="fill: none; stroke: #b0b0b0; stroke-width: 0.8; stroke-linecap: square"/>
     </g>
     <g id="line2d_12">
      <g>
       <use xlink:href="#mf72fd2eb5c" x="34.16" y="147.14" style="stroke: #000000; stroke-width: 0.8"/>
      </g>
     </g>
    </g>
    <g id="ytick_4">
     <g id="line2d_13">
      <path d="M 34.16 76.483137 
L 453.192 76.483137 
" clip-path="url(#pdab6883d90)" style="fill: none; stroke: #b0b0b0; stroke-width: 0.8; stroke-linecap: square"/>
     </g>
     <g id="line2d_14">
      <g>
       <use xlink:href="#mf72fd2eb5c" x="34.16" y="76.483137" style="stroke: #000000; stroke-width: 0.8"/>
      </g>
     </g>
    </g>
    <g id="ytick_5">
     <g id="line2d_15">
      <path d="M 34.16 5.826275 
L 453.192 5.826275 
" clip-path="url(#pdab6883d90)" style="fill: none; stroke: #b0b0b0; stroke-width: 0.8; stroke-linecap: square"/>
     </g>
     <g id="line2d_16">
      <g>
       <use xlink:href="#mf72fd2eb5c" x="34.16" y="5.826275" style="stroke: #000000; stroke-width: 0.8"/>
      </g>
     </g>
    </g>
    <g id="text_5">
     <!-- proportion of trials -->
     <g transform="translate(19.000625 240.14625)rotate(-90)scale(0.2 -0.2)">
      <defs>
       <path id="DejaVuSans-70" d="M 1159 525 
L 1159 -1331 
L 581 -1331 
L 581 3500 
L 1159 3500 
L 1159 2969 
Q 1341 3281 1617 3432 
Q 1894 3584 2278 3584 
Q 2916 3584 3314 3078 
Q 3713 2572 3713 1747 
Q 3713 922 3314 415 
Q 2916 -91 2278 -91 
Q 1894 -91 1617 61 
Q 1341 213 1159 525 
z
M 3116 1747 
Q 3116 2381 2855 2742 
Q 2594 3103 2138 3103 
Q 1681 3103 1420 2742 
Q 1159 2381 1159 1747 
Q 1159 1113 1420 752 
Q 1681 391 2138 391 
Q 2594 391 2855 752 
Q 3116 1113 3116 1747 
z
" transform="scale(0.015625)"/>
       <path id="DejaVuSans-6e" d="M 3513 2113 
L 3513 0 
L 2938 0 
L 2938 2094 
Q 2938 2591 2744 2837 
Q 2550 3084 2163 3084 
Q 1697 3084 1428 2787 
Q 1159 2491 1159 1978 
L 1159 0 
L 581 0 
L 581 3500 
L 1159 3500 
L 1159 2956 
Q 1366 3272 1645 3428 
Q 1925 3584 2291 3584 
Q 2894 3584 3203 3211 
Q 3513 2838 3513 2113 
z
" transform="scale(0.015625)"/>
      </defs>
      <use xlink:href="#DejaVuSans-70"/>
      <use xlink:href="#DejaVuSans-72" x="63.476562"/>
      <use xlink:href="#DejaVuSans-6f" x="102.339844"/>
      <use xlink:href="#DejaVuSans-70" x="163.521484"/>
      <use xlink:href="#DejaVuSans-6f" x="226.998047"/>
      <use xlink:href="#DejaVuSans-72" x="288.179688"/>
      <use xlink:href="#DejaVuSans-74" x="329.292969"/>
      <use xlink:href="#DejaVuSans-69" x="368.501953"/>
      <use xlink:href="#DejaVuSans-6f" x="396.285156"/>
      <use xlink:href="#DejaVuSans-6e" x="457.466797"/>
      <use xlink:href="#DejaVuSans-20" x="520.845703"/>
      <use xlink:href="#DejaVuSans-6f" x="552.632812"/>
      <use xlink:href="#DejaVuSans-66" x="613.814453"/>
      <use xlink:href="#DejaVuSans-20" x="649.019531"/>
      <use xlink:href="#DejaVuSans-74" x="680.806641"/>
      <use xlink:href="#DejaVuSans-72" x="720.015625"/>
      <use xlink:href="#DejaVuSans-69" x="761.128906"/>
      <use xlink:href="#DejaVuSans-61" x="788.912109"/>
      <use xlink:href="#DejaVuSans-6c" x="850.191406"/>
      <use xlink:href="#DejaVuSans-73" x="877.974609"/>
     </g>
    </g>
   </g>
   <g id="line2d_17">
    <path d="M 34.16 247.266811 
L 100.060169 247.266811 
L 100.060169 246.556691 
L 100.192406 246.556691 
L 100.192406 245.846572 
L 102.274487 245.846572 
L 102.274487 245.136453 
L 108.433507 245.136453 
L 108.433507 244.426334 
L 111.985935 244.426334 
L 111.985935 243.716214 
L 112.32498 243.716214 
L 112.32498 243.006095 
L 117.691753 243.006095 
L 117.691753 242.295976 
L 135.583147 242.295976 
L 135.583147 241.585857 
L 137.060615 241.585857 
L 137.060615 240.875738 
L 139.374331 240.875738 
L 139.374331 240.165618 
L 140.984607 240.165618 
L 140.984607 239.455499 
L 144.759827 239.455499 
L 144.759827 238.74538 
L 145.667901 238.74538 
L 145.667901 238.035261 
L 146.075426 238.035261 
L 146.075426 237.325141 
L 148.551011 237.325141 
L 148.551011 236.615022 
L 148.736574 236.615022 
L 148.846291 235.194784 
L 152.193425 235.194784 
L 152.193425 234.484664 
L 152.977147 234.484664 
L 152.977147 233.774545 
L 153.933678 233.774545 
L 153.933678 233.064426 
L 154.844581 233.064426 
L 154.844581 232.354307 
L 155.252106 232.354307 
L 155.252106 231.644188 
L 155.629076 231.644188 
L 155.629076 230.934068 
L 157.929559 230.934068 
L 158.022971 229.51383 
L 161.561082 229.51383 
L 161.561082 228.803711 
L 162.864616 228.803711 
L 162.864616 228.093591 
L 169.104135 228.093591 
L 169.104135 227.383472 
L 170.737762 227.383472 
L 170.737762 226.673353 
L 171.777355 226.673353 
L 171.777355 225.963234 
L 180.332152 225.963234 
L 180.332152 225.253115 
L 181.44804 225.253115 
L 181.44804 224.542995 
L 182.081131 224.542995 
L 182.081131 223.832876 
L 182.219464 223.832876 
L 182.219464 223.122757 
L 183.205486 223.122757 
L 183.205486 222.412638 
L 186.541519 222.412638 
L 186.541519 221.702518 
L 186.691986 221.702518 
L 186.691986 220.992399 
L 188.984952 220.992399 
L 188.984952 220.28228 
L 190.62472 220.28228 
L 190.62472 219.572161 
L 192.320544 219.572161 
L 192.320544 218.862042 
L 192.45853 218.862042 
L 192.45853 218.151922 
L 194.972474 218.151922 
L 194.972474 217.441803 
L 195.11046 217.441803 
L 195.11046 216.731684 
L 199.595429 216.731684 
L 199.595429 216.021565 
L 203.167683 216.021565 
L 203.167683 215.311445 
L 206.109783 215.311445 
L 206.109783 214.601326 
L 206.28518 214.601326 
L 206.28518 213.891207 
L 206.76757 213.891207 
L 206.810264 212.470969 
L 206.936173 212.470969 
L 206.936173 211.760849 
L 208.230926 211.760849 
L 208.230926 211.05073 
L 208.364787 211.05073 
L 208.364787 210.340611 
L 208.761713 210.340611 
L 208.761713 209.630492 
L 210.727358 209.630492 
L 210.727358 208.920372 
L 211.654728 208.920372 
L 211.654728 208.210253 
L 212.080422 208.210253 
L 212.080422 207.500134 
L 212.360668 207.500134 
L 212.360668 206.790015 
L 214.306658 206.790015 
L 214.306658 206.079896 
L 215.46186 206.079896 
L 215.46186 205.369776 
L 215.996238 205.369776 
L 215.996238 204.659657 
L 216.128475 204.659657 
L 216.128475 203.949538 
L 216.604979 203.949538 
L 216.604979 203.239419 
L 216.737216 203.239419 
L 216.737216 202.529299 
L 216.911911 202.529299 
L 217.021537 200.398942 
L 217.277527 200.398942 
L 217.277527 199.688823 
L 217.428452 199.688823 
L 217.428452 198.978703 
L 217.972376 198.978703 
L 217.972376 198.268584 
L 218.104613 198.268584 
L 218.210556 196.848346 
L 218.810741 196.848346 
L 218.819297 195.428107 
L 219.36338 195.428107 
L 219.36338 194.717988 
L 219.495617 194.717988 
L 219.495617 194.007869 
L 219.673467 194.007869 
L 219.673467 193.29775 
L 220.186694 193.29775 
L 220.199318 191.877511 
L 221.273407 191.877511 
L 221.273407 191.167392 
L 221.424528 191.167392 
L 221.424528 190.457273 
L 221.562514 190.457273 
L 221.577698 189.037034 
L 222.522531 189.037034 
L 222.548883 187.616796 
L 222.686869 187.616796 
L 222.686869 186.906677 
L 223.535244 186.906677 
L 223.535244 186.196557 
L 224.278832 186.196557 
L 224.278832 185.486438 
L 225.884917 185.486438 
L 225.884917 184.776319 
L 226.022903 184.776319 
L 226.022903 184.0662 
L 226.53949 184.0662 
L 226.53949 183.35608 
L 226.671727 183.35608 
L 226.671727 182.645961 
L 226.995053 182.645961 
L 226.995053 181.935842 
L 227.719636 181.935842 
L 227.719636 181.225723 
L 227.922004 181.225723 
L 227.987421 179.805484 
L 228.070017 179.805484 
L 228.070017 179.095365 
L 228.261049 179.095365 
L 228.328349 177.675127 
L 228.466336 177.675127 
L 228.530745 176.254888 
L 228.753808 176.254888 
L 228.753808 175.544769 
L 228.86979 175.544769 
L 228.954452 174.12453 
L 229.497003 174.12453 
L 229.497003 173.414411 
L 229.898142 173.414411 
L 229.898142 172.704292 
L 230.237187 172.704292 
L 230.237187 171.994173 
L 231.289145 171.994173 
L 231.289145 171.284054 
L 231.62819 171.284054 
L 231.715517 169.863815 
L 232.148933 169.863815 
L 232.192157 168.443577 
L 232.447983 168.443577 
L 232.531555 167.023338 
L 232.745637 167.023338 
L 232.745637 166.313219 
L 232.914108 166.313219 
L 232.914108 165.6031 
L 233.294174 165.6031 
L 233.294174 164.892981 
L 233.627822 164.892981 
L 233.627822 164.182861 
L 234.236562 164.182861 
L 234.236562 163.472742 
L 234.363587 163.472742 
L 234.363587 162.762623 
L 234.763261 162.762623 
L 234.771112 161.342384 
L 235.213768 161.342384 
L 235.213768 160.632265 
L 235.603959 160.632265 
L 235.603959 159.922146 
L 236.188038 159.922146 
L 236.188038 159.212027 
L 236.322739 159.212027 
L 236.338123 157.791788 
L 236.994963 157.791788 
L 237.085358 156.37155 
L 237.541977 156.37155 
L 237.541977 155.661431 
L 238.457615 155.661431 
L 238.465255 154.241192 
L 238.589852 154.241192 
L 238.589852 153.531073 
L 238.804301 153.531073 
L 238.804301 152.820954 
L 239.039207 152.820954 
L 239.118469 151.400715 
L 239.446731 151.400715 
L 239.446731 150.690596 
L 239.674156 150.690596 
L 239.674156 149.980477 
L 239.898496 149.980477 
L 239.898496 149.270358 
L 240.671933 149.270358 
L 240.758712 147.850119 
L 241.883067 147.850119 
L 241.963605 146.429881 
L 242.117589 146.429881 
L 242.217597 145.009642 
L 242.616309 145.009642 
L 242.616309 144.299523 
L 242.890092 144.299523 
L 242.909654 142.879285 
L 243.023834 142.879285 
L 243.023834 142.169165 
L 243.378928 142.169165 
L 243.448766 140.748927 
L 243.676 140.748927 
L 243.786453 139.328689 
L 243.846628 139.328689 
L 243.846628 138.618569 
L 244.171073 138.618569 
L 244.171073 137.90845 
L 245.095601 137.90845 
L 245.095601 137.198331 
L 245.219101 137.198331 
L 245.219101 136.488212 
L 245.640212 136.488212 
L 245.640212 135.778092 
L 245.7947 135.778092 
L 245.7947 135.067973 
L 246.125522 135.067973 
L 246.125522 134.357854 
L 246.498558 134.357854 
L 246.557318 132.937616 
L 246.977843 132.937616 
L 247.070637 131.517377 
L 247.11008 131.517377 
L 247.11008 130.807258 
L 247.239951 130.807258 
L 247.249877 129.387019 
L 247.362614 129.387019 
L 247.362614 128.6769 
L 247.544368 128.6769 
L 247.574324 127.256662 
L 247.662534 127.256662 
L 247.71231 125.836423 
L 249.091481 125.836423 
L 249.192161 124.416185 
L 249.203224 124.416185 
L 249.203224 123.706066 
L 249.610749 123.706066 
L 249.610749 122.995946 
L 250.196298 122.995946 
L 250.256768 121.575708 
L 250.38338 121.575708 
L 250.38338 120.865589 
L 250.58591 120.865589 
L 250.58591 120.15547 
L 250.722426 120.15547 
L 250.722426 119.44535 
L 252.267742 119.44535 
L 252.267742 118.735231 
L 252.381614 118.735231 
L 252.381614 118.025112 
L 252.801066 118.025112 
L 252.801066 117.314993 
L 252.996684 117.314993 
L 253.029343 115.894754 
L 253.504905 115.894754 
L 253.605425 113.764396 
L 253.941045 113.764396 
L 253.941045 113.054277 
L 254.118109 113.054277 
L 254.118109 112.344158 
L 254.932387 112.344158 
L 254.972822 110.92392 
L 256.089198 110.92392 
L 256.089198 110.2138 
L 256.263622 110.2138 
L 256.363825 108.793562 
L 256.711911 108.793562 
L 256.711911 108.083443 
L 256.920676 108.083443 
L 256.920676 107.373323 
L 257.529417 107.373323 
L 257.529417 106.663204 
L 258.50949 106.663204 
L 258.600988 104.532847 
L 258.896814 104.532847 
L 258.903608 103.112608 
L 259.242654 103.112608 
L 259.272109 101.69237 
L 259.725343 101.69237 
L 259.725343 100.98225 
L 260.266057 100.98225 
L 260.287817 99.562012 
L 261.241373 99.562012 
L 261.241373 98.851893 
L 261.363563 98.851893 
L 261.363563 98.141774 
L 263.061376 98.141774 
L 263.061376 97.431654 
L 263.539935 97.431654 
L 263.539935 96.721535 
L 264.609426 96.721535 
L 264.609426 96.011416 
L 265.096405 96.011416 
L 265.096405 95.301297 
L 265.504809 95.301297 
L 265.504809 94.591177 
L 266.908508 94.591177 
L 266.908508 93.881058 
L 267.438198 93.881058 
L 267.463927 92.46082 
L 268.129494 92.46082 
L 268.129494 91.750701 
L 268.738235 91.750701 
L 268.738235 91.040581 
L 269.426701 91.040581 
L 269.426701 90.330462 
L 270.105631 90.330462 
L 270.154112 88.200104 
L 271.34302 88.200104 
L 271.34302 87.489985 
L 271.494074 87.489985 
L 271.496635 86.069747 
L 272.275317 86.069747 
L 272.275317 85.359628 
L 272.950613 85.359628 
L 272.950613 84.649508 
L 274.035825 84.649508 
L 274.074968 83.22927 
L 274.819345 83.22927 
L 274.819345 82.519151 
L 275.45806 82.519151 
L 275.45806 81.809031 
L 276.648352 81.809031 
L 276.648352 81.098912 
L 277.411001 81.098912 
L 277.411001 80.388793 
L 277.638207 80.388793 
L 277.638207 79.678674 
L 277.772707 79.678674 
L 277.772707 78.968555 
L 278.396448 78.968555 
L 278.396448 78.258435 
L 278.666215 78.258435 
L 278.672745 76.838197 
L 279.125968 76.838197 
L 279.159067 75.417958 
L 279.382052 75.417958 
L 279.382052 74.707839 
L 279.854434 74.707839 
L 279.854434 73.99772 
L 280.255759 73.99772 
L 280.255759 73.287601 
L 280.596221 73.287601 
L 280.596221 72.577482 
L 281.108741 72.577482 
L 281.108741 71.867362 
L 281.776804 71.867362 
L 281.776804 71.157243 
L 282.266672 71.157243 
L 282.266672 70.447124 
L 283.212505 70.447124 
L 283.212505 69.737005 
L 283.552174 69.737005 
L 283.552174 69.026885 
L 283.978288 69.026885 
L 283.978288 68.316766 
L 284.750783 68.316766 
L 284.750783 67.606647 
L 284.983363 67.606647 
L 285.068743 65.476289 
L 285.121596 65.476289 
L 285.121596 64.76617 
L 287.463777 64.76617 
L 287.463777 64.056051 
L 287.90228 64.056051 
L 287.90228 63.345932 
L 289.313659 63.345932 
L 289.313659 62.635812 
L 290.163768 62.635812 
L 290.163768 61.925693 
L 290.59087 61.925693 
L 290.697868 60.505455 
L 291.459657 60.505455 
L 291.459657 59.795336 
L 294.980866 59.795336 
L 294.980866 59.085216 
L 295.17039 59.085216 
L 295.17039 58.375097 
L 297.972186 58.375097 
L 297.972186 57.664978 
L 298.772849 57.664978 
L 298.772849 56.954859 
L 299.100408 56.954859 
L 299.111098 55.53462 
L 299.656486 55.53462 
L 299.656486 54.824501 
L 302.634233 54.824501 
L 302.634233 54.114382 
L 302.798148 54.114382 
L 302.798148 53.404262 
L 303.233588 53.404262 
L 303.233588 52.694143 
L 303.996207 52.694143 
L 303.996207 51.984024 
L 304.317794 51.984024 
L 304.317794 51.273905 
L 305.144327 51.273905 
L 305.144327 50.563786 
L 307.506427 50.563786 
L 307.506427 49.853666 
L 308.073833 49.853666 
L 308.073833 49.143547 
L 309.684603 49.143547 
L 309.684603 48.433428 
L 309.820503 48.433428 
L 309.820503 47.723309 
L 312.182047 47.723309 
L 312.182047 47.013189 
L 313.86225 47.013189 
L 313.86225 46.30307 
L 314.1508 46.30307 
L 314.1508 45.592951 
L 315.245974 45.592951 
L 315.245974 44.882832 
L 315.759149 44.882832 
L 315.759149 44.172713 
L 316.521768 44.172713 
L 316.521768 43.462593 
L 318.469365 43.462593 
L 318.469365 42.752474 
L 318.607351 42.752474 
L 318.607351 42.042355 
L 322.079871 42.042355 
L 322.160069 40.622116 
L 322.346064 40.622116 
L 322.346064 39.911997 
L 326.676361 39.911997 
L 326.676361 39.201878 
L 327.276976 39.201878 
L 327.276976 38.491759 
L 331.272856 38.491759 
L 331.272856 37.78164 
L 332.258604 37.78164 
L 332.258604 37.07152 
L 336.509694 37.07152 
L 336.509694 36.361401 
L 337.803549 36.361401 
L 337.803549 35.651282 
L 340.207434 35.651282 
L 340.207434 34.941163 
L 340.340362 34.941163 
L 340.340362 34.231043 
L 341.808977 34.231043 
L 341.808977 33.520924 
L 342.447432 33.520924 
L 342.447432 32.810805 
L 343.170358 32.810805 
L 343.170358 32.100686 
L 345.388852 32.100686 
L 345.388852 31.390567 
L 350.442009 31.390567 
L 350.442009 30.680447 
L 353.675449 30.680447 
L 353.675449 29.970328 
L 355.645824 29.970328 
L 355.645824 29.260209 
L 362.731511 29.260209 
L 362.731511 28.55009 
L 367.407131 28.55009 
L 367.407131 27.83997 
L 369.440974 27.83997 
L 369.440974 27.129851 
L 369.995449 27.129851 
L 370.049715 25.709613 
L 370.984233 25.709613 
L 370.984233 24.999494 
L 371.417112 24.999494 
L 371.417112 24.289374 
L 371.746852 24.289374 
L 371.746852 23.579255 
L 372.808115 23.579255 
L 372.808115 22.869136 
L 373.693189 22.869136 
L 373.693189 22.159017 
L 377.571148 22.159017 
L 377.571148 21.448897 
L 379.984225 21.448897 
L 379.984225 20.738778 
L 380.153561 20.738778 
L 380.153561 20.028659 
L 381.152374 20.028659 
L 381.152374 19.31854 
L 381.290361 19.31854 
L 381.290361 18.608421 
L 381.901444 18.608421 
L 381.901444 17.898301 
L 390.255208 17.898301 
L 390.255208 17.188182 
L 391.90235 17.188182 
L 391.90235 16.478063 
L 394.941614 16.478063 
L 394.941614 15.767944 
L 400.422578 15.767944 
L 400.486559 14.347705 
L 405.853368 14.347705 
L 405.853368 13.637586 
L 418.328834 13.637586 
L 418.328834 12.927467 
L 432.678459 12.927467 
L 432.678459 12.217348 
L 436.376199 12.217348 
L 436.376199 11.507228 
L 453.192 11.507228 
L 453.192 11.507228 
" clip-path="url(#pdab6883d90)" style="fill: none; stroke: #000000; stroke-width: 3; stroke-linecap: square"/>
   </g>
   <g id="line2d_18">
    <path clip-path="url(#pdab6883d90)" style="fill: none; stroke: #000000; stroke-width: 3; stroke-linecap: square"/>
   </g>
   <g id="line2d_19">
    <path d="M 34.16 34.963125 
L 203.60222 34.963125 
L 203.60222 33.506283 
L 219.553478 33.506283 
L 219.553478 32.04944 
L 276.997879 32.04944 
L 276.997879 30.592598 
L 303.716096 30.592598 
L 303.716096 29.135755 
L 324.896612 29.135755 
L 324.896612 27.678912 
L 358.6549 27.678912 
L 358.6549 26.22207 
L 453.192 26.22207 
" clip-path="url(#pdab6883d90)" style="fill: none; stroke: #00bfbf; stroke-width: 3; stroke-linecap: square"/>
   </g>
   <g id="line2d_20">
    <path clip-path="url(#pdab6883d90)" style="fill: none; stroke: #00bfbf; stroke-width: 3; stroke-linecap: square"/>
   </g>
   <g id="line2d_21">
    <path d="M 34.22302 5.826275 
L 34.16 5.826275 
L 453.192 5.826275 
L 461.8 5.826275 
" clip-path="url(#pdab6883d90)" style="fill: none; stroke: #bf00bf; stroke-width: 3; stroke-linecap: square"/>
   </g>
   <g id="line2d_22"/>
   <g id="line2d_23"/>
   <g id="line2d_24">
    <path d="M 243.676 291.28 
L 243.676 3 
" clip-path="url(#pdab6883d90)" style="fill: none; stroke: #000000; stroke-width: 1.5; stroke-linecap: square"/>
   </g>
   <g id="line2d_25">
    <path d="M 34.16 147.14 
L 453.192 147.14 
" clip-path="url(#pdab6883d90)" style="fill: none; stroke-dasharray: 2,3.3; stroke-dashoffset: 0; stroke: #000000; stroke-width: 2"/>
   </g>
   <g id="patch_3">
    <path d="M 34.16 291.28 
L 34.16 3 
" style="fill: none; stroke: #000000; stroke-width: 0.8; stroke-linejoin: miter; stroke-linecap: square"/>
   </g>
   <g id="patch_4">
    <path d="M 453.192 291.28 
L 453.192 3 
" style="fill: none; stroke: #000000; stroke-width: 0.8; stroke-linejoin: miter; stroke-linecap: square"/>
   </g>
   <g id="patch_5">
    <path d="M 34.16 291.28 
L 453.192 291.28 
" style="fill: none; stroke: #000000; stroke-width: 0.8; stroke-linejoin: miter; stroke-linecap: square"/>
   </g>
   <g id="patch_6">
    <path d="M 34.16 3 
L 453.192 3 
" style="fill: none; stroke: #000000; stroke-width: 0.8; stroke-linejoin: miter; stroke-linecap: square"/>
   </g>
   <g id="text_6">
    <!-- f7, f8, f16, f17,5-D -->
    <g transform="translate(260.464485 285.5144)scale(0.2 -0.2)">
     <defs>
      <path id="DejaVuSans-37" d="M 525 4666 
L 3525 4666 
L 3525 4397 
L 1831 0 
L 1172 0 
L 2766 4134 
L 525 4134 
L 525 4666 
z
" transform="scale(0.015625)"/>
      <path id="DejaVuSans-2c" d="M 750 794 
L 1409 794 
L 1409 256 
L 897 -744 
L 494 -744 
L 750 256 
L 750 794 
z
" transform="scale(0.015625)"/>
      <path id="DejaVuSans-38" d="M 2034 2216 
Q 1584 2216 1326 1975 
Q 1069 1734 1069 1313 
Q 1069 891 1326 650 
Q 1584 409 2034 409 
Q 2484 409 2743 651 
Q 3003 894 3003 1313 
Q 3003 1734 2745 1975 
Q 2488 2216 2034 2216 
z
M 1403 2484 
Q 997 2584 770 2862 
Q 544 3141 544 3541 
Q 544 4100 942 4425 
Q 1341 4750 2034 4750 
Q 2731 4750 3128 4425 
Q 3525 4100 3525 3541 
Q 3525 3141 3298 2862 
Q 3072 2584 2669 2484 
Q 3125 2378 3379 2068 
Q 3634 1759 3634 1313 
Q 3634 634 3220 271 
Q 2806 -91 2034 -91 
Q 1263 -91 848 271 
Q 434 634 434 1313 
Q 434 1759 690 2068 
Q 947 2378 1403 2484 
z
M 1172 3481 
Q 1172 3119 1398 2916 
Q 1625 2713 2034 2713 
Q 2441 2713 2670 2916 
Q 2900 3119 2900 3481 
Q 2900 3844 2670 4047 
Q 2441 4250 2034 4250 
Q 1625 4250 1398 4047 
Q 1172 3844 1172 3481 
z
" transform="scale(0.015625)"/>
      <path id="DejaVuSans-36" d="M 2113 2584 
Q 1688 2584 1439 2293 
Q 1191 2003 1191 1497 
Q 1191 994 1439 701 
Q 1688 409 2113 409 
Q 2538 409 2786 701 
Q 3034 994 3034 1497 
Q 3034 2003 2786 2293 
Q 2538 2584 2113 2584 
z
M 3366 4563 
L 3366 3988 
Q 3128 4100 2886 4159 
Q 2644 4219 2406 4219 
Q 1781 4219 1451 3797 
Q 1122 3375 1075 2522 
Q 1259 2794 1537 2939 
Q 1816 3084 2150 3084 
Q 2853 3084 3261 2657 
Q 3669 2231 3669 1497 
Q 3669 778 3244 343 
Q 2819 -91 2113 -91 
Q 1303 -91 875 529 
Q 447 1150 447 2328 
Q 447 3434 972 4092 
Q 1497 4750 2381 4750 
Q 2619 4750 2861 4703 
Q 3103 4656 3366 4563 
z
" transform="scale(0.015625)"/>
      <path id="DejaVuSans-35" d="M 691 4666 
L 3169 4666 
L 3169 4134 
L 1269 4134 
L 1269 2991 
Q 1406 3038 1543 3061 
Q 1681 3084 1819 3084 
Q 2600 3084 3056 2656 
Q 3513 2228 3513 1497 
Q 3513 744 3044 326 
Q 2575 -91 1722 -91 
Q 1428 -91 1123 -41 
Q 819 9 494 109 
L 494 744 
Q 775 591 1075 516 
Q 1375 441 1709 441 
Q 2250 441 2565 725 
Q 2881 1009 2881 1497 
Q 2881 1984 2565 2268 
Q 2250 2553 1709 2553 
Q 1456 2553 1204 2497 
Q 953 2441 691 2322 
L 691 4666 
z
" transform="scale(0.015625)"/>
      <path id="DejaVuSans-44" d="M 1259 4147 
L 1259 519 
L 2022 519 
Q 2988 519 3436 956 
Q 3884 1394 3884 2338 
Q 3884 3275 3436 3711 
Q 2988 4147 2022 4147 
L 1259 4147 
z
M 628 4666 
L 1925 4666 
Q 3281 4666 3915 4102 
Q 4550 3538 4550 2338 
Q 4550 1131 3912 565 
Q 3275 0 1925 0 
L 628 0 
L 628 4666 
z
" transform="scale(0.015625)"/>
     </defs>
     <use xlink:href="#DejaVuSans-66"/>
     <use xlink:href="#DejaVuSans-37" x="35.205078"/>
     <use xlink:href="#DejaVuSans-2c" x="98.828125"/>
     <use xlink:href="#DejaVuSans-20" x="130.615234"/>
     <use xlink:href="#DejaVuSans-66" x="162.402344"/>
     <use xlink:href="#DejaVuSans-38" x="197.607422"/>
     <use xlink:href="#DejaVuSans-2c" x="261.230469"/>
     <use xlink:href="#DejaVuSans-20" x="293.017578"/>
     <use xlink:href="#DejaVuSans-66" x="324.804688"/>
     <use xlink:href="#DejaVuSans-31" x="360.009766"/>
     <use xlink:href="#DejaVuSans-36" x="423.632812"/>
     <use xlink:href="#DejaVuSans-2c" x="487.255859"/>
     <use xlink:href="#DejaVuSans-20" x="519.042969"/>
     <use xlink:href="#DejaVuSans-66" x="550.830078"/>
     <use xlink:href="#DejaVuSans-31" x="586.035156"/>
     <use xlink:href="#DejaVuSans-37" x="649.658203"/>
     <use xlink:href="#DejaVuSans-2c" x="713.28125"/>
     <use xlink:href="#DejaVuSans-35" x="745.068359"/>
     <use xlink:href="#DejaVuSans-2d" x="808.691406"/>
     <use xlink:href="#DejaVuSans-44" x="844.775391"/>
    </g>
   </g>
   <g id="text_7">
    <!-- v2.6.3.13, hv-hash=ff0e71e8cd978373 -->
    <g style="fill: #808080" transform="translate(145.458812 286.317512)scale(0.1 -0.1)">
     <defs>
      <path id="DejaVuSans-2e" d="M 684 794 
L 1344 794 
L 1344 0 
L 684 0 
L 684 794 
z
" transform="scale(0.015625)"/>
      <path id="DejaVuSans-33" d="M 2597 2516 
Q 3050 2419 3304 2112 
Q 3559 1806 3559 1356 
Q 3559 666 3084 287 
Q 2609 -91 1734 -91 
Q 1441 -91 1130 -33 
Q 819 25 488 141 
L 488 750 
Q 750 597 1062 519 
Q 1375 441 1716 441 
Q 2309 441 2620 675 
Q 2931 909 2931 1356 
Q 2931 1769 2642 2001 
Q 2353 2234 1838 2234 
L 1294 2234 
L 1294 2753 
L 1863 2753 
Q 2328 2753 2575 2939 
Q 2822 3125 2822 3475 
Q 2822 3834 2567 4026 
Q 2313 4219 1838 4219 
Q 1578 4219 1281 4162 
Q 984 4106 628 3988 
L 628 4550 
Q 988 4650 1302 4700 
Q 1616 4750 1894 4750 
Q 2613 4750 3031 4423 
Q 3450 4097 3450 3541 
Q 3450 3153 3228 2886 
Q 3006 2619 2597 2516 
z
" transform="scale(0.015625)"/>
      <path id="DejaVuSans-68" d="M 3513 2113 
L 3513 0 
L 2938 0 
L 2938 2094 
Q 2938 2591 2744 2837 
Q 2550 3084 2163 3084 
Q 1697 3084 1428 2787 
Q 1159 2491 1159 1978 
L 1159 0 
L 581 0 
L 581 4863 
L 1159 4863 
L 1159 2956 
Q 1366 3272 1645 3428 
Q 1925 3584 2291 3584 
Q 2894 3584 3203 3211 
Q 3513 2838 3513 2113 
z
" transform="scale(0.015625)"/>
      <path id="DejaVuSans-3d" d="M 678 2906 
L 4684 2906 
L 4684 2381 
L 678 2381 
L 678 2906 
z
M 678 1631 
L 4684 1631 
L 4684 1100 
L 678 1100 
L 678 1631 
z
" transform="scale(0.015625)"/>
      <path id="DejaVuSans-65" d="M 3597 1894 
L 3597 1613 
L 953 1613 
Q 991 1019 1311 708 
Q 1631 397 2203 397 
Q 2534 397 2845 478 
Q 3156 559 3463 722 
L 3463 178 
Q 3153 47 2828 -22 
Q 2503 -91 2169 -91 
Q 1331 -91 842 396 
Q 353 884 353 1716 
Q 353 2575 817 3079 
Q 1281 3584 2069 3584 
Q 2775 3584 3186 3129 
Q 3597 2675 3597 1894 
z
M 3022 2063 
Q 3016 2534 2758 2815 
Q 2500 3097 2075 3097 
Q 1594 3097 1305 2825 
Q 1016 2553 972 2059 
L 3022 2063 
z
" transform="scale(0.015625)"/>
      <path id="DejaVuSans-63" d="M 3122 3366 
L 3122 2828 
Q 2878 2963 2633 3030 
Q 2388 3097 2138 3097 
Q 1578 3097 1268 2742 
Q 959 2388 959 1747 
Q 959 1106 1268 751 
Q 1578 397 2138 397 
Q 2388 397 2633 464 
Q 2878 531 3122 666 
L 3122 134 
Q 2881 22 2623 -34 
Q 2366 -91 2075 -91 
Q 1284 -91 818 406 
Q 353 903 353 1747 
Q 353 2603 823 3093 
Q 1294 3584 2113 3584 
Q 2378 3584 2631 3529 
Q 2884 3475 3122 3366 
z
" transform="scale(0.015625)"/>
      <path id="DejaVuSans-64" d="M 2906 2969 
L 2906 4863 
L 3481 4863 
L 3481 0 
L 2906 0 
L 2906 525 
Q 2725 213 2448 61 
Q 2172 -91 1784 -91 
Q 1150 -91 751 415 
Q 353 922 353 1747 
Q 353 2572 751 3078 
Q 1150 3584 1784 3584 
Q 2172 3584 2448 3432 
Q 2725 3281 2906 2969 
z
M 947 1747 
Q 947 1113 1208 752 
Q 1469 391 1925 391 
Q 2381 391 2643 752 
Q 2906 1113 2906 1747 
Q 2906 2381 2643 2742 
Q 2381 3103 1925 3103 
Q 1469 3103 1208 2742 
Q 947 2381 947 1747 
z
" transform="scale(0.015625)"/>
      <path id="DejaVuSans-39" d="M 703 97 
L 703 672 
Q 941 559 1184 500 
Q 1428 441 1663 441 
Q 2288 441 2617 861 
Q 2947 1281 2994 2138 
Q 2813 1869 2534 1725 
Q 2256 1581 1919 1581 
Q 1219 1581 811 2004 
Q 403 2428 403 3163 
Q 403 3881 828 4315 
Q 1253 4750 1959 4750 
Q 2769 4750 3195 4129 
Q 3622 3509 3622 2328 
Q 3622 1225 3098 567 
Q 2575 -91 1691 -91 
Q 1453 -91 1209 -44 
Q 966 3 703 97 
z
M 1959 2075 
Q 2384 2075 2632 2365 
Q 2881 2656 2881 3163 
Q 2881 3666 2632 3958 
Q 2384 4250 1959 4250 
Q 1534 4250 1286 3958 
Q 1038 3666 1038 3163 
Q 1038 2656 1286 2365 
Q 1534 2075 1959 2075 
z
" transform="scale(0.015625)"/>
     </defs>
     <use xlink:href="#DejaVuSans-76"/>
     <use xlink:href="#DejaVuSans-32" x="59.179688"/>
     <use xlink:href="#DejaVuSans-2e" x="122.802734"/>
     <use xlink:href="#DejaVuSans-36" x="154.589844"/>
     <use xlink:href="#DejaVuSans-2e" x="218.212891"/>
     <use xlink:href="#DejaVuSans-33" x="250"/>
     <use xlink:href="#DejaVuSans-2e" x="313.623047"/>
     <use xlink:href="#DejaVuSans-31" x="345.410156"/>
     <use xlink:href="#DejaVuSans-33" x="409.033203"/>
     <use xlink:href="#DejaVuSans-2c" x="472.65625"/>
     <use xlink:href="#DejaVuSans-20" x="504.443359"/>
     <use xlink:href="#DejaVuSans-68" x="536.230469"/>
     <use xlink:href="#DejaVuSans-76" x="599.609375"/>
     <use xlink:href="#DejaVuSans-2d" x="656.164062"/>
     <use xlink:href="#DejaVuSans-68" x="692.248047"/>
     <use xlink:href="#DejaVuSans-61" x="755.626953"/>
     <use xlink:href="#DejaVuSans-73" x="816.90625"/>
     <use xlink:href="#DejaVuSans-68" x="869.005859"/>
     <use xlink:href="#DejaVuSans-3d" x="932.384766"/>
     <use xlink:href="#DejaVuSans-66" x="1016.173828"/>
     <use xlink:href="#DejaVuSans-66" x="1051.378906"/>
     <use xlink:href="#DejaVuSans-30" x="1086.583984"/>
     <use xlink:href="#DejaVuSans-65" x="1150.207031"/>
     <use xlink:href="#DejaVuSans-37" x="1211.730469"/>
     <use xlink:href="#DejaVuSans-31" x="1275.353516"/>
     <use xlink:href="#DejaVuSans-65" x="1338.976562"/>
     <use xlink:href="#DejaVuSans-38" x="1400.5"/>
     <use xlink:href="#DejaVuSans-63" x="1464.123047"/>
     <use xlink:href="#DejaVuSans-64" x="1519.103516"/>
     <use xlink:href="#DejaVuSans-39" x="1582.580078"/>
     <use xlink:href="#DejaVuSans-37" x="1646.203125"/>
     <use xlink:href="#DejaVuSans-38" x="1709.826172"/>
     <use xlink:href="#DejaVuSans-33" x="1773.449219"/>
     <use xlink:href="#DejaVuSans-37" x="1837.072266"/>
     <use xlink:href="#DejaVuSans-33" x="1900.695312"/>
    </g>
   </g>
   <g id="legend_1">
    <g id="patch_7">
     <path d="M 309.970125 281.28 
L 439.192 281.28 
Q 443.192 281.28 443.192 277.28 
L 443.192 132.49875 
Q 443.192 128.49875 439.192 128.49875 
L 309.970125 128.49875 
Q 305.970125 128.49875 305.970125 132.49875 
L 305.970125 277.28 
Q 305.970125 281.28 309.970125 281.28 
z
" style="fill: #ffffff; opacity: 0.2; stroke: #cccccc; stroke-linejoin: miter"/>
    </g>
    <g id="line2d_26">
     <path d="M 313.970125 144.695625 
L 333.970125 144.695625 
L 353.970125 144.695625 
" style="fill: none; stroke: #000000; stroke-width: 3; stroke-linecap: square"/>
    </g>
    <g id="text_8">
     <!-- -1: 4/4 -->
     <g transform="translate(369.970125 151.695625)scale(0.2 -0.2)">
      <defs>
       <path id="DejaVuSans-3a" d="M 750 794 
L 1409 794 
L 1409 0 
L 750 0 
L 750 794 
z
M 750 3309 
L 1409 3309 
L 1409 2516 
L 750 2516 
L 750 3309 
z
" transform="scale(0.015625)"/>
       <path id="DejaVuSans-34" d="M 2419 4116 
L 825 1625 
L 2419 1625 
L 2419 4116 
z
M 2253 4666 
L 3047 4666 
L 3047 1625 
L 3713 1625 
L 3713 1100 
L 3047 1100 
L 3047 0 
L 2419 0 
L 2419 1100 
L 313 1100 
L 313 1709 
L 2253 4666 
z
" transform="scale(0.015625)"/>
       <path id="DejaVuSans-2f" d="M 1625 4666 
L 2156 4666 
L 531 -594 
L 0 -594 
L 1625 4666 
z
" transform="scale(0.015625)"/>
      </defs>
      <use xlink:href="#DejaVuSans-2d"/>
      <use xlink:href="#DejaVuSans-31" x="36.083984"/>
      <use xlink:href="#DejaVuSans-3a" x="99.707031"/>
      <use xlink:href="#DejaVuSans-20" x="133.398438"/>
      <use xlink:href="#DejaVuSans-34" x="165.185547"/>
      <use xlink:href="#DejaVuSans-2f" x="228.808594"/>
      <use xlink:href="#DejaVuSans-34" x="262.5"/>
     </g>
    </g>
    <g id="line2d_27">
     <path d="M 313.970125 174.051875 
L 333.970125 174.051875 
L 353.970125 174.051875 
" style="fill: none; stroke: #00bfbf; stroke-width: 3; stroke-linecap: square"/>
    </g>
    <g id="text_9">
     <!-- -2: 3/2 -->
     <g transform="translate(369.970125 181.051875)scale(0.2 -0.2)">
      <use xlink:href="#DejaVuSans-2d"/>
      <use xlink:href="#DejaVuSans-32" x="36.083984"/>
      <use xlink:href="#DejaVuSans-3a" x="99.707031"/>
      <use xlink:href="#DejaVuSans-20" x="133.398438"/>
      <use xlink:href="#DejaVuSans-33" x="165.185547"/>
      <use xlink:href="#DejaVuSans-2f" x="228.808594"/>
      <use xlink:href="#DejaVuSans-32" x="262.5"/>
     </g>
    </g>
    <g id="line2d_28">
     <path d="M 313.970125 203.408125 
L 333.970125 203.408125 
L 353.970125 203.408125 
" style="fill: none; stroke: #bf00bf; stroke-width: 3; stroke-linecap: square"/>
    </g>
    <g id="text_10">
     <!-- -3: 1/0 -->
     <g transform="translate(369.970125 210.408125)scale(0.2 -0.2)">
      <use xlink:href="#DejaVuSans-2d"/>
      <use xlink:href="#DejaVuSans-33" x="36.083984"/>
      <use xlink:href="#DejaVuSans-3a" x="99.707031"/>
      <use xlink:href="#DejaVuSans-20" x="133.398438"/>
      <use xlink:href="#DejaVuSans-31" x="165.185547"/>
      <use xlink:href="#DejaVuSans-2f" x="228.808594"/>
      <use xlink:href="#DejaVuSans-30" x="262.5"/>
     </g>
    </g>
    <g id="line2d_29">
     <path d="M 313.970125 232.764375 
L 333.970125 232.764375 
L 353.970125 232.764375 
" style="fill: none; stroke: #ff0000; stroke-width: 3; stroke-linecap: square"/>
    </g>
    <g id="text_11">
     <!-- -4: 0/0 -->
     <g transform="translate(369.970125 239.764375)scale(0.2 -0.2)">
      <use xlink:href="#DejaVuSans-2d"/>
      <use xlink:href="#DejaVuSans-34" x="36.083984"/>
      <use xlink:href="#DejaVuSans-3a" x="99.707031"/>
      <use xlink:href="#DejaVuSans-20" x="133.398438"/>
      <use xlink:href="#DejaVuSans-30" x="165.185547"/>
      <use xlink:href="#DejaVuSans-2f" x="228.808594"/>
      <use xlink:href="#DejaVuSans-30" x="262.5"/>
     </g>
    </g>
    <g id="line2d_30">
     <path d="M 313.970125 262.120625 
L 333.970125 262.120625 
L 353.970125 262.120625 
" style="fill: none; stroke: #0000ff; stroke-width: 3; stroke-linecap: square"/>
    </g>
    <g id="text_12">
     <!-- -5: 0/0 -->
     <g transform="translate(369.970125 269.120625)scale(0.2 -0.2)">
      <use xlink:href="#DejaVuSans-2d"/>
      <use xlink:href="#DejaVuSans-35" x="36.083984"/>
      <use xlink:href="#DejaVuSans-3a" x="99.707031"/>
      <use xlink:href="#DejaVuSans-20" x="133.398438"/>
      <use xlink:href="#DejaVuSans-30" x="165.185547"/>
      <use xlink:href="#DejaVuSans-2f" x="228.808594"/>
      <use xlink:href="#DejaVuSans-30" x="262.5"/>
     </g>
    </g>
   </g>
  </g>
 </g>
 <defs>
  <clipPath id="pdab6883d90">
   <rect x="34.16" y="3" width="419.032" height="288.28"/>
  </clipPath>
 </defs>
</svg>
