<?xml version="1.0" encoding="utf-8" standalone="no"?>
<!DOCTYPE svg PUBLIC "-//W3C//DTD SVG 1.1//EN"
  "http://www.w3.org/Graphics/SVG/1.1/DTD/svg11.dtd">
<svg xmlns:xlink="http://www.w3.org/1999/xlink" width="460.8pt" height="345.6pt" viewBox="0 0 460.8 345.6" xmlns="http://www.w3.org/2000/svg" version="1.1">
 <metadata>
  <rdf:RDF xmlns:dc="http://purl.org/dc/elements/1.1/" xmlns:cc="http://creativecommons.org/ns#" xmlns:rdf="http://www.w3.org/1999/02/22-rdf-syntax-ns#">
   <cc:Work>
    <dc:type rdf:resource="http://purl.org/dc/dcmitype/StillImage"/>
    <dc:date>2023-06-02T15:28:25.548628</dc:date>
    <dc:format>image/svg+xml</dc:format>
    <dc:creator>
     <cc:Agent>
      <dc:title>Matplotlib v3.5.2, https://matplotlib.org/</dc:title>
     </cc:Agent>
    </dc:creator>
   </cc:Work>
  </rdf:RDF>
 </metadata>
 <defs>
  <style type="text/css">*{stroke-linejoin: round; stroke-linecap: butt}</style>
 </defs>
 <g id="figure_1">
  <g id="patch_1">
   <path d="M 0 345.6 
L 460.8 345.6 
L 460.8 0 
L 0 0 
z
" style="fill: #ffffff"/>
  </g>
  <g id="axes_1">
   <g id="patch_2">
    <path d="M 62.208 293.76 
L 460.8 293.76 
L 460.8 3.456 
L 62.208 3.456 
z
" style="fill: #ffffff"/>
   </g>
   <g id="matplotlib.axis_1">
    <g id="xtick_1">
     <g id="line2d_1">
      <path d="M 62.208 293.76 
L 62.208 3.456 
" clip-path="url(#p6dc53618fe)" style="fill: none; stroke: #b0b0b0; stroke-width: 0.8; stroke-linecap: square"/>
     </g>
     <g id="line2d_2">
      <defs>
       <path id="mac9ef2b911" d="M 0 0 
L 0 3.5 
" style="stroke: #000000; stroke-width: 0.8"/>
      </defs>
      <g>
       <use xlink:href="#mac9ef2b911" x="62.208" y="293.76" style="stroke: #000000; stroke-width: 0.8"/>
      </g>
     </g>
     <g id="text_1">
      <!-- 0 -->
      <g transform="translate(55.8455 315.956875)scale(0.2 -0.2)">
       <defs>
        <path id="DejaVuSans-30" d="M 2034 4250 
Q 1547 4250 1301 3770 
Q 1056 3291 1056 2328 
Q 1056 1369 1301 889 
Q 1547 409 2034 409 
Q 2525 409 2770 889 
Q 3016 1369 3016 2328 
Q 3016 3291 2770 3770 
Q 2525 4250 2034 4250 
z
M 2034 4750 
Q 2819 4750 3233 4129 
Q 3647 3509 3647 2328 
Q 3647 1150 3233 529 
Q 2819 -91 2034 -91 
Q 1250 -91 836 529 
Q 422 1150 422 2328 
Q 422 3509 836 4129 
Q 1250 4750 2034 4750 
z
" transform="scale(0.015625)"/>
       </defs>
       <use xlink:href="#DejaVuSans-30"/>
      </g>
     </g>
    </g>
    <g id="xtick_2">
     <g id="line2d_3">
      <path d="M 188.744623 293.76 
L 188.744623 3.456 
" clip-path="url(#p6dc53618fe)" style="fill: none; stroke: #b0b0b0; stroke-width: 0.8; stroke-linecap: square"/>
     </g>
     <g id="line2d_4">
      <g>
       <use xlink:href="#mac9ef2b911" x="188.744623" y="293.76" style="stroke: #000000; stroke-width: 0.8"/>
      </g>
     </g>
     <g id="text_2">
      <!-- 2 -->
      <g transform="translate(182.382123 315.956875)scale(0.2 -0.2)">
       <defs>
        <path id="DejaVuSans-32" d="M 1228 531 
L 3431 531 
L 3431 0 
L 469 0 
L 469 531 
Q 828 903 1448 1529 
Q 2069 2156 2228 2338 
Q 2531 2678 2651 2914 
Q 2772 3150 2772 3378 
Q 2772 3750 2511 3984 
Q 2250 4219 1831 4219 
Q 1534 4219 1204 4116 
Q 875 4013 500 3803 
L 500 4441 
Q 881 4594 1212 4672 
Q 1544 4750 1819 4750 
Q 2544 4750 2975 4387 
Q 3406 4025 3406 3419 
Q 3406 3131 3298 2873 
Q 3191 2616 2906 2266 
Q 2828 2175 2409 1742 
Q 1991 1309 1228 531 
z
" transform="scale(0.015625)"/>
       </defs>
       <use xlink:href="#DejaVuSans-32"/>
      </g>
     </g>
    </g>
    <g id="xtick_3">
     <g id="line2d_5">
      <path d="M 315.281245 293.76 
L 315.281245 3.456 
" clip-path="url(#p6dc53618fe)" style="fill: none; stroke: #b0b0b0; stroke-width: 0.8; stroke-linecap: square"/>
     </g>
     <g id="line2d_6">
      <g>
       <use xlink:href="#mac9ef2b911" x="315.281245" y="293.76" style="stroke: #000000; stroke-width: 0.8"/>
      </g>
     </g>
     <g id="text_3">
      <!-- 4 -->
      <g transform="translate(308.918745 315.956875)scale(0.2 -0.2)">
       <defs>
        <path id="DejaVuSans-34" d="M 2419 4116 
L 825 1625 
L 2419 1625 
L 2419 4116 
z
M 2253 4666 
L 3047 4666 
L 3047 1625 
L 3713 1625 
L 3713 1100 
L 3047 1100 
L 3047 0 
L 2419 0 
L 2419 1100 
L 313 1100 
L 313 1709 
L 2253 4666 
z
" transform="scale(0.015625)"/>
       </defs>
       <use xlink:href="#DejaVuSans-34"/>
      </g>
     </g>
    </g>
    <g id="xtick_4">
     <g id="line2d_7">
      <path d="M 441.817868 293.76 
L 441.817868 3.456 
" clip-path="url(#p6dc53618fe)" style="fill: none; stroke: #b0b0b0; stroke-width: 0.8; stroke-linecap: square"/>
     </g>
     <g id="line2d_8">
      <g>
       <use xlink:href="#mac9ef2b911" x="441.817868" y="293.76" style="stroke: #000000; stroke-width: 0.8"/>
      </g>
     </g>
     <g id="text_4">
      <!-- 6 -->
      <g transform="translate(435.455368 315.956875)scale(0.2 -0.2)">
       <defs>
        <path id="DejaVuSans-36" d="M 2113 2584 
Q 1688 2584 1439 2293 
Q 1191 2003 1191 1497 
Q 1191 994 1439 701 
Q 1688 409 2113 409 
Q 2538 409 2786 701 
Q 3034 994 3034 1497 
Q 3034 2003 2786 2293 
Q 2538 2584 2113 2584 
z
M 3366 4563 
L 3366 3988 
Q 3128 4100 2886 4159 
Q 2644 4219 2406 4219 
Q 1781 4219 1451 3797 
Q 1122 3375 1075 2522 
Q 1259 2794 1537 2939 
Q 1816 3084 2150 3084 
Q 2853 3084 3261 2657 
Q 3669 2231 3669 1497 
Q 3669 778 3244 343 
Q 2819 -91 2113 -91 
Q 1303 -91 875 529 
Q 447 1150 447 2328 
Q 447 3434 972 4092 
Q 1497 4750 2381 4750 
Q 2619 4750 2861 4703 
Q 3103 4656 3366 4563 
z
" transform="scale(0.015625)"/>
       </defs>
       <use xlink:href="#DejaVuSans-36"/>
      </g>
     </g>
    </g>
    <g id="text_5">
     <!-- log10 of FEvals / DIM -->
     <g transform="translate(156.430563 339.313125)scale(0.2 -0.2)">
      <defs>
       <path id="DejaVuSans-6c" d="M 603 4863 
L 1178 4863 
L 1178 0 
L 603 0 
L 603 4863 
z
" transform="scale(0.015625)"/>
       <path id="DejaVuSans-6f" d="M 1959 3097 
Q 1497 3097 1228 2736 
Q 959 2375 959 1747 
Q 959 1119 1226 758 
Q 1494 397 1959 397 
Q 2419 397 2687 759 
Q 2956 1122 2956 1747 
Q 2956 2369 2687 2733 
Q 2419 3097 1959 3097 
z
M 1959 3584 
Q 2709 3584 3137 3096 
Q 3566 2609 3566 1747 
Q 3566 888 3137 398 
Q 2709 -91 1959 -91 
Q 1206 -91 779 398 
Q 353 888 353 1747 
Q 353 2609 779 3096 
Q 1206 3584 1959 3584 
z
" transform="scale(0.015625)"/>
       <path id="DejaVuSans-67" d="M 2906 1791 
Q 2906 2416 2648 2759 
Q 2391 3103 1925 3103 
Q 1463 3103 1205 2759 
Q 947 2416 947 1791 
Q 947 1169 1205 825 
Q 1463 481 1925 481 
Q 2391 481 2648 825 
Q 2906 1169 2906 1791 
z
M 3481 434 
Q 3481 -459 3084 -895 
Q 2688 -1331 1869 -1331 
Q 1566 -1331 1297 -1286 
Q 1028 -1241 775 -1147 
L 775 -588 
Q 1028 -725 1275 -790 
Q 1522 -856 1778 -856 
Q 2344 -856 2625 -561 
Q 2906 -266 2906 331 
L 2906 616 
Q 2728 306 2450 153 
Q 2172 0 1784 0 
Q 1141 0 747 490 
Q 353 981 353 1791 
Q 353 2603 747 3093 
Q 1141 3584 1784 3584 
Q 2172 3584 2450 3431 
Q 2728 3278 2906 2969 
L 2906 3500 
L 3481 3500 
L 3481 434 
z
" transform="scale(0.015625)"/>
       <path id="DejaVuSans-31" d="M 794 531 
L 1825 531 
L 1825 4091 
L 703 3866 
L 703 4441 
L 1819 4666 
L 2450 4666 
L 2450 531 
L 3481 531 
L 3481 0 
L 794 0 
L 794 531 
z
" transform="scale(0.015625)"/>
       <path id="DejaVuSans-20" transform="scale(0.015625)"/>
       <path id="DejaVuSans-66" d="M 2375 4863 
L 2375 4384 
L 1825 4384 
Q 1516 4384 1395 4259 
Q 1275 4134 1275 3809 
L 1275 3500 
L 2222 3500 
L 2222 3053 
L 1275 3053 
L 1275 0 
L 697 0 
L 697 3053 
L 147 3053 
L 147 3500 
L 697 3500 
L 697 3744 
Q 697 4328 969 4595 
Q 1241 4863 1831 4863 
L 2375 4863 
z
" transform="scale(0.015625)"/>
       <path id="DejaVuSans-46" d="M 628 4666 
L 3309 4666 
L 3309 4134 
L 1259 4134 
L 1259 2759 
L 3109 2759 
L 3109 2228 
L 1259 2228 
L 1259 0 
L 628 0 
L 628 4666 
z
" transform="scale(0.015625)"/>
       <path id="DejaVuSans-45" d="M 628 4666 
L 3578 4666 
L 3578 4134 
L 1259 4134 
L 1259 2753 
L 3481 2753 
L 3481 2222 
L 1259 2222 
L 1259 531 
L 3634 531 
L 3634 0 
L 628 0 
L 628 4666 
z
" transform="scale(0.015625)"/>
       <path id="DejaVuSans-76" d="M 191 3500 
L 800 3500 
L 1894 563 
L 2988 3500 
L 3597 3500 
L 2284 0 
L 1503 0 
L 191 3500 
z
" transform="scale(0.015625)"/>
       <path id="DejaVuSans-61" d="M 2194 1759 
Q 1497 1759 1228 1600 
Q 959 1441 959 1056 
Q 959 750 1161 570 
Q 1363 391 1709 391 
Q 2188 391 2477 730 
Q 2766 1069 2766 1631 
L 2766 1759 
L 2194 1759 
z
M 3341 1997 
L 3341 0 
L 2766 0 
L 2766 531 
Q 2569 213 2275 61 
Q 1981 -91 1556 -91 
Q 1019 -91 701 211 
Q 384 513 384 1019 
Q 384 1609 779 1909 
Q 1175 2209 1959 2209 
L 2766 2209 
L 2766 2266 
Q 2766 2663 2505 2880 
Q 2244 3097 1772 3097 
Q 1472 3097 1187 3025 
Q 903 2953 641 2809 
L 641 3341 
Q 956 3463 1253 3523 
Q 1550 3584 1831 3584 
Q 2591 3584 2966 3190 
Q 3341 2797 3341 1997 
z
" transform="scale(0.015625)"/>
       <path id="DejaVuSans-73" d="M 2834 3397 
L 2834 2853 
Q 2591 2978 2328 3040 
Q 2066 3103 1784 3103 
Q 1356 3103 1142 2972 
Q 928 2841 928 2578 
Q 928 2378 1081 2264 
Q 1234 2150 1697 2047 
L 1894 2003 
Q 2506 1872 2764 1633 
Q 3022 1394 3022 966 
Q 3022 478 2636 193 
Q 2250 -91 1575 -91 
Q 1294 -91 989 -36 
Q 684 19 347 128 
L 347 722 
Q 666 556 975 473 
Q 1284 391 1588 391 
Q 1994 391 2212 530 
Q 2431 669 2431 922 
Q 2431 1156 2273 1281 
Q 2116 1406 1581 1522 
L 1381 1569 
Q 847 1681 609 1914 
Q 372 2147 372 2553 
Q 372 3047 722 3315 
Q 1072 3584 1716 3584 
Q 2034 3584 2315 3537 
Q 2597 3491 2834 3397 
z
" transform="scale(0.015625)"/>
       <path id="DejaVuSans-2f" d="M 1625 4666 
L 2156 4666 
L 531 -594 
L 0 -594 
L 1625 4666 
z
" transform="scale(0.015625)"/>
       <path id="DejaVuSans-44" d="M 1259 4147 
L 1259 519 
L 2022 519 
Q 2988 519 3436 956 
Q 3884 1394 3884 2338 
Q 3884 3275 3436 3711 
Q 2988 4147 2022 4147 
L 1259 4147 
z
M 628 4666 
L 1925 4666 
Q 3281 4666 3915 4102 
Q 4550 3538 4550 2338 
Q 4550 1131 3912 565 
Q 3275 0 1925 0 
L 628 0 
L 628 4666 
z
" transform="scale(0.015625)"/>
       <path id="DejaVuSans-49" d="M 628 4666 
L 1259 4666 
L 1259 0 
L 628 0 
L 628 4666 
z
" transform="scale(0.015625)"/>
       <path id="DejaVuSans-4d" d="M 628 4666 
L 1569 4666 
L 2759 1491 
L 3956 4666 
L 4897 4666 
L 4897 0 
L 4281 0 
L 4281 4097 
L 3078 897 
L 2444 897 
L 1241 4097 
L 1241 0 
L 628 0 
L 628 4666 
z
" transform="scale(0.015625)"/>
      </defs>
      <use xlink:href="#DejaVuSans-6c"/>
      <use xlink:href="#DejaVuSans-6f" x="27.783203"/>
      <use xlink:href="#DejaVuSans-67" x="88.964844"/>
      <use xlink:href="#DejaVuSans-31" x="152.441406"/>
      <use xlink:href="#DejaVuSans-30" x="216.064453"/>
      <use xlink:href="#DejaVuSans-20" x="279.6875"/>
      <use xlink:href="#DejaVuSans-6f" x="311.474609"/>
      <use xlink:href="#DejaVuSans-66" x="372.65625"/>
      <use xlink:href="#DejaVuSans-20" x="407.861328"/>
      <use xlink:href="#DejaVuSans-46" x="439.648438"/>
      <use xlink:href="#DejaVuSans-45" x="497.167969"/>
      <use xlink:href="#DejaVuSans-76" x="560.351562"/>
      <use xlink:href="#DejaVuSans-61" x="619.53125"/>
      <use xlink:href="#DejaVuSans-6c" x="680.810547"/>
      <use xlink:href="#DejaVuSans-73" x="708.59375"/>
      <use xlink:href="#DejaVuSans-20" x="760.693359"/>
      <use xlink:href="#DejaVuSans-2f" x="792.480469"/>
      <use xlink:href="#DejaVuSans-20" x="826.171875"/>
      <use xlink:href="#DejaVuSans-44" x="857.958984"/>
      <use xlink:href="#DejaVuSans-49" x="934.960938"/>
      <use xlink:href="#DejaVuSans-4d" x="964.453125"/>
     </g>
    </g>
   </g>
   <g id="matplotlib.axis_2">
    <g id="ytick_1">
     <g id="line2d_9">
      <path d="M 62.208 293.76 
L 460.8 293.76 
" clip-path="url(#p6dc53618fe)" style="fill: none; stroke: #b0b0b0; stroke-width: 0.8; stroke-linecap: square"/>
     </g>
     <g id="line2d_10">
      <defs>
       <path id="mb184b133ae" d="M 0 0 
L -3.5 0 
" style="stroke: #000000; stroke-width: 0.8"/>
      </defs>
      <g>
       <use xlink:href="#mb184b133ae" x="62.208" y="293.76" style="stroke: #000000; stroke-width: 0.8"/>
      </g>
     </g>
     <g id="text_6">
      <!-- 0.0 -->
      <g transform="translate(29.763 299.83875)scale(0.16 -0.16)">
       <defs>
        <path id="DejaVuSans-2e" d="M 684 794 
L 1344 794 
L 1344 0 
L 684 0 
L 684 794 
z
" transform="scale(0.015625)"/>
       </defs>
       <use xlink:href="#DejaVuSans-30"/>
       <use xlink:href="#DejaVuSans-2e" x="63.623047"/>
       <use xlink:href="#DejaVuSans-30" x="95.410156"/>
      </g>
     </g>
    </g>
    <g id="ytick_2">
     <g id="line2d_11">
      <path d="M 62.208 236.274059 
L 460.8 236.274059 
" clip-path="url(#p6dc53618fe)" style="fill: none; stroke: #b0b0b0; stroke-width: 0.8; stroke-linecap: square"/>
     </g>
     <g id="line2d_12">
      <g>
       <use xlink:href="#mb184b133ae" x="62.208" y="236.274059" style="stroke: #000000; stroke-width: 0.8"/>
      </g>
     </g>
     <g id="text_7">
      <!-- 0.2 -->
      <g transform="translate(29.763 242.352809)scale(0.16 -0.16)">
       <use xlink:href="#DejaVuSans-30"/>
       <use xlink:href="#DejaVuSans-2e" x="63.623047"/>
       <use xlink:href="#DejaVuSans-32" x="95.410156"/>
      </g>
     </g>
    </g>
    <g id="ytick_3">
     <g id="line2d_13">
      <path d="M 62.208 178.788119 
L 460.8 178.788119 
" clip-path="url(#p6dc53618fe)" style="fill: none; stroke: #b0b0b0; stroke-width: 0.8; stroke-linecap: square"/>
     </g>
     <g id="line2d_14">
      <g>
       <use xlink:href="#mb184b133ae" x="62.208" y="178.788119" style="stroke: #000000; stroke-width: 0.8"/>
      </g>
     </g>
     <g id="text_8">
      <!-- 0.4 -->
      <g transform="translate(29.763 184.866869)scale(0.16 -0.16)">
       <use xlink:href="#DejaVuSans-30"/>
       <use xlink:href="#DejaVuSans-2e" x="63.623047"/>
       <use xlink:href="#DejaVuSans-34" x="95.410156"/>
      </g>
     </g>
    </g>
    <g id="ytick_4">
     <g id="line2d_15">
      <path d="M 62.208 121.302178 
L 460.8 121.302178 
" clip-path="url(#p6dc53618fe)" style="fill: none; stroke: #b0b0b0; stroke-width: 0.8; stroke-linecap: square"/>
     </g>
     <g id="line2d_16">
      <g>
       <use xlink:href="#mb184b133ae" x="62.208" y="121.302178" style="stroke: #000000; stroke-width: 0.8"/>
      </g>
     </g>
     <g id="text_9">
      <!-- 0.6 -->
      <g transform="translate(29.763 127.380928)scale(0.16 -0.16)">
       <use xlink:href="#DejaVuSans-30"/>
       <use xlink:href="#DejaVuSans-2e" x="63.623047"/>
       <use xlink:href="#DejaVuSans-36" x="95.410156"/>
      </g>
     </g>
    </g>
    <g id="ytick_5">
     <g id="line2d_17">
      <path d="M 62.208 63.816238 
L 460.8 63.816238 
" clip-path="url(#p6dc53618fe)" style="fill: none; stroke: #b0b0b0; stroke-width: 0.8; stroke-linecap: square"/>
     </g>
     <g id="line2d_18">
      <g>
       <use xlink:href="#mb184b133ae" x="62.208" y="63.816238" style="stroke: #000000; stroke-width: 0.8"/>
      </g>
     </g>
     <g id="text_10">
      <!-- 0.8 -->
      <g transform="translate(29.763 69.894988)scale(0.16 -0.16)">
       <defs>
        <path id="DejaVuSans-38" d="M 2034 2216 
Q 1584 2216 1326 1975 
Q 1069 1734 1069 1313 
Q 1069 891 1326 650 
Q 1584 409 2034 409 
Q 2484 409 2743 651 
Q 3003 894 3003 1313 
Q 3003 1734 2745 1975 
Q 2488 2216 2034 2216 
z
M 1403 2484 
Q 997 2584 770 2862 
Q 544 3141 544 3541 
Q 544 4100 942 4425 
Q 1341 4750 2034 4750 
Q 2731 4750 3128 4425 
Q 3525 4100 3525 3541 
Q 3525 3141 3298 2862 
Q 3072 2584 2669 2484 
Q 3125 2378 3379 2068 
Q 3634 1759 3634 1313 
Q 3634 634 3220 271 
Q 2806 -91 2034 -91 
Q 1263 -91 848 271 
Q 434 634 434 1313 
Q 434 1759 690 2068 
Q 947 2378 1403 2484 
z
M 1172 3481 
Q 1172 3119 1398 2916 
Q 1625 2713 2034 2713 
Q 2441 2713 2670 2916 
Q 2900 3119 2900 3481 
Q 2900 3844 2670 4047 
Q 2441 4250 2034 4250 
Q 1625 4250 1398 4047 
Q 1172 3844 1172 3481 
z
" transform="scale(0.015625)"/>
       </defs>
       <use xlink:href="#DejaVuSans-30"/>
       <use xlink:href="#DejaVuSans-2e" x="63.623047"/>
       <use xlink:href="#DejaVuSans-38" x="95.410156"/>
      </g>
     </g>
    </g>
    <g id="ytick_6">
     <g id="line2d_19">
      <path d="M 62.208 6.330297 
L 460.8 6.330297 
" clip-path="url(#p6dc53618fe)" style="fill: none; stroke: #b0b0b0; stroke-width: 0.8; stroke-linecap: square"/>
     </g>
     <g id="line2d_20">
      <g>
       <use xlink:href="#mb184b133ae" x="62.208" y="6.330297" style="stroke: #000000; stroke-width: 0.8"/>
      </g>
     </g>
     <g id="text_11">
      <!-- 1.0 -->
      <g transform="translate(29.763 12.409047)scale(0.16 -0.16)">
       <use xlink:href="#DejaVuSans-31"/>
       <use xlink:href="#DejaVuSans-2e" x="63.623047"/>
       <use xlink:href="#DejaVuSans-30" x="95.410156"/>
      </g>
     </g>
    </g>
    <g id="text_12">
     <!-- proportion of trials -->
     <g transform="translate(21.603625 241.61425)rotate(-90)scale(0.2 -0.2)">
      <defs>
       <path id="DejaVuSans-70" d="M 1159 525 
L 1159 -1331 
L 581 -1331 
L 581 3500 
L 1159 3500 
L 1159 2969 
Q 1341 3281 1617 3432 
Q 1894 3584 2278 3584 
Q 2916 3584 3314 3078 
Q 3713 2572 3713 1747 
Q 3713 922 3314 415 
Q 2916 -91 2278 -91 
Q 1894 -91 1617 61 
Q 1341 213 1159 525 
z
M 3116 1747 
Q 3116 2381 2855 2742 
Q 2594 3103 2138 3103 
Q 1681 3103 1420 2742 
Q 1159 2381 1159 1747 
Q 1159 1113 1420 752 
Q 1681 391 2138 391 
Q 2594 391 2855 752 
Q 3116 1113 3116 1747 
z
" transform="scale(0.015625)"/>
       <path id="DejaVuSans-72" d="M 2631 2963 
Q 2534 3019 2420 3045 
Q 2306 3072 2169 3072 
Q 1681 3072 1420 2755 
Q 1159 2438 1159 1844 
L 1159 0 
L 581 0 
L 581 3500 
L 1159 3500 
L 1159 2956 
Q 1341 3275 1631 3429 
Q 1922 3584 2338 3584 
Q 2397 3584 2469 3576 
Q 2541 3569 2628 3553 
L 2631 2963 
z
" transform="scale(0.015625)"/>
       <path id="DejaVuSans-74" d="M 1172 4494 
L 1172 3500 
L 2356 3500 
L 2356 3053 
L 1172 3053 
L 1172 1153 
Q 1172 725 1289 603 
Q 1406 481 1766 481 
L 2356 481 
L 2356 0 
L 1766 0 
Q 1100 0 847 248 
Q 594 497 594 1153 
L 594 3053 
L 172 3053 
L 172 3500 
L 594 3500 
L 594 4494 
L 1172 4494 
z
" transform="scale(0.015625)"/>
       <path id="DejaVuSans-69" d="M 603 3500 
L 1178 3500 
L 1178 0 
L 603 0 
L 603 3500 
z
M 603 4863 
L 1178 4863 
L 1178 4134 
L 603 4134 
L 603 4863 
z
" transform="scale(0.015625)"/>
       <path id="DejaVuSans-6e" d="M 3513 2113 
L 3513 0 
L 2938 0 
L 2938 2094 
Q 2938 2591 2744 2837 
Q 2550 3084 2163 3084 
Q 1697 3084 1428 2787 
Q 1159 2491 1159 1978 
L 1159 0 
L 581 0 
L 581 3500 
L 1159 3500 
L 1159 2956 
Q 1366 3272 1645 3428 
Q 1925 3584 2291 3584 
Q 2894 3584 3203 3211 
Q 3513 2838 3513 2113 
z
" transform="scale(0.015625)"/>
      </defs>
      <use xlink:href="#DejaVuSans-70"/>
      <use xlink:href="#DejaVuSans-72" x="63.476562"/>
      <use xlink:href="#DejaVuSans-6f" x="102.339844"/>
      <use xlink:href="#DejaVuSans-70" x="163.521484"/>
      <use xlink:href="#DejaVuSans-6f" x="226.998047"/>
      <use xlink:href="#DejaVuSans-72" x="288.179688"/>
      <use xlink:href="#DejaVuSans-74" x="329.292969"/>
      <use xlink:href="#DejaVuSans-69" x="368.501953"/>
      <use xlink:href="#DejaVuSans-6f" x="396.285156"/>
      <use xlink:href="#DejaVuSans-6e" x="457.466797"/>
      <use xlink:href="#DejaVuSans-20" x="520.845703"/>
      <use xlink:href="#DejaVuSans-6f" x="552.632812"/>
      <use xlink:href="#DejaVuSans-66" x="613.814453"/>
      <use xlink:href="#DejaVuSans-20" x="649.019531"/>
      <use xlink:href="#DejaVuSans-74" x="680.806641"/>
      <use xlink:href="#DejaVuSans-72" x="720.015625"/>
      <use xlink:href="#DejaVuSans-69" x="761.128906"/>
      <use xlink:href="#DejaVuSans-61" x="788.912109"/>
      <use xlink:href="#DejaVuSans-6c" x="850.191406"/>
      <use xlink:href="#DejaVuSans-73" x="877.974609"/>
     </g>
    </g>
   </g>
   <g id="line2d_21">
    <path d="M 128.095157 293.76 
L 128.095157 286.574257 
L 152.767968 286.574257 
L 152.767968 279.388515 
L 153.17205 279.388515 
L 153.17205 272.202772 
L 153.570276 272.202772 
L 153.570276 265.01703 
L 153.962812 265.01703 
L 153.962812 257.831287 
L 165.038774 257.831287 
L 165.038774 250.645545 
L 165.297994 250.645545 
L 165.297994 243.459802 
L 169.143852 243.459802 
L 169.143852 236.274059 
L 170.457747 236.274059 
L 170.457747 229.088317 
L 170.564455 229.088317 
L 170.564455 221.902574 
L 170.882112 221.902574 
L 170.882112 214.716832 
L 173.682199 214.716832 
L 173.682199 207.531089 
L 176.907967 207.531089 
L 176.907967 200.345347 
L 178.944237 200.345347 
L 178.944237 193.159604 
L 179.178751 193.159604 
L 179.178751 185.973861 
L 180.097291 185.973861 
L 180.097291 178.788119 
L 184.149468 178.788119 
L 184.149468 171.602376 
L 186.86852 171.602376 
L 186.86852 164.416634 
L 187.393018 164.416634 
L 187.393018 157.230891 
L 189.342565 157.230891 
L 189.342565 150.045149 
L 189.769402 150.045149 
L 189.769402 142.859406 
L 192.441139 142.859406 
L 192.441139 135.673663 
L 193.845724 135.673663 
L 193.845724 128.487921 
L 198.029122 128.487921 
L 198.029122 121.302178 
L 201.590171 121.302178 
L 201.590171 114.116436 
L 205.648127 114.116436 
L 205.648127 106.930693 
L 214.935804 106.930693 
L 214.935804 99.74495 
L 220.670241 99.74495 
L 220.670241 92.559208 
L 223.05676 92.559208 
L 223.05676 85.373465 
L 231.418701 85.373465 
L 231.418701 78.187723 
L 231.857052 78.187723 
L 231.857052 71.00198 
L 232.299782 71.00198 
L 232.299782 63.816238 
L 240.108559 63.816238 
L 240.108559 56.630495 
L 247.881539 56.630495 
L 247.881539 49.444752 
L 285.280801 49.444752 
L 285.280801 42.25901 
L 288.276648 42.25901 
L 288.276648 35.073267 
L 302.513365 35.073267 
L 302.513365 27.887525 
L 358.091962 27.887525 
L 358.091962 20.701782 
L 358.091962 20.701782 
L 358.091962 20.701782 
L 460.8 20.701782 
" clip-path="url(#p6dc53618fe)" style="fill: none; stroke: #000000; stroke-width: 1.5; stroke-linecap: square"/>
   </g>
   <g id="line2d_22">
    <defs>
     <path id="m9343843f25" d="M 0 14.142136 
L 8.485281 0 
L 0 -14.142136 
L -8.485281 0 
z
" style="stroke: #000000; stroke-width: 1.5; stroke-linejoin: miter"/>
    </defs>
    <g clip-path="url(#p6dc53618fe)">
     <use xlink:href="#m9343843f25" x="173.682199" y="214.716832" style="fill-opacity: 0; stroke: #000000; stroke-width: 1.5; stroke-linejoin: miter"/>
     <use xlink:href="#m9343843f25" x="198.029122" y="128.487921" style="fill-opacity: 0; stroke: #000000; stroke-width: 1.5; stroke-linejoin: miter"/>
     <use xlink:href="#m9343843f25" x="231.418701" y="85.373465" style="fill-opacity: 0; stroke: #000000; stroke-width: 1.5; stroke-linejoin: miter"/>
     <use xlink:href="#m9343843f25" x="285.280801" y="49.444752" style="fill-opacity: 0; stroke: #000000; stroke-width: 1.5; stroke-linejoin: miter"/>
     <use xlink:href="#m9343843f25" x="358.091962" y="27.887525" style="fill-opacity: 0; stroke: #000000; stroke-width: 1.5; stroke-linejoin: miter"/>
     <use xlink:href="#m9343843f25" x="358.091962" y="20.701782" style="fill-opacity: 0; stroke: #000000; stroke-width: 1.5; stroke-linejoin: miter"/>
    </g>
   </g>
   <g id="line2d_23">
    <path clip-path="url(#p6dc53618fe)" style="fill: none; stroke: #000000; stroke-width: 1.5; stroke-linecap: square"/>
    <g clip-path="url(#p6dc53618fe)">
     <use xlink:href="#m9343843f25" x="-1" y="581.189703" style="fill-opacity: 0; stroke: #000000; stroke-width: 1.5; stroke-linejoin: miter"/>
     <use xlink:href="#m9343843f25" x="460.8" y="581.189703" style="fill-opacity: 0; stroke: #000000; stroke-width: 1.5; stroke-linejoin: miter"/>
    </g>
   </g>
   <g id="line2d_24">
    <path d="M 130.485975 293.76 
L 130.485975 286.574257 
L 134.721585 286.574257 
L 134.721585 279.388515 
L 147.880154 279.388515 
L 147.880154 272.202772 
L 151.730974 272.202772 
L 151.730974 265.01703 
L 165.038774 265.01703 
L 165.038774 257.831287 
L 165.554791 257.831287 
L 165.554791 250.645545 
L 168.347359 250.645545 
L 168.347359 243.459802 
L 170.135116 243.459802 
L 170.135116 236.274059 
L 172.016412 236.274059 
L 172.016412 229.088317 
L 172.417544 229.088317 
L 172.417544 221.902574 
L 173.008472 221.902574 
L 173.008472 214.716832 
L 173.202657 214.716832 
L 173.202657 207.531089 
L 178.06681 207.531089 
L 178.06681 200.345347 
L 179.100802 200.345347 
L 179.100802 193.159604 
L 181.348137 193.159604 
L 181.348137 185.973861 
L 181.634359 185.973861 
L 181.634359 178.788119 
L 183.953901 178.788119 
L 183.953901 171.602376 
L 184.214349 171.602376 
L 184.214349 164.416634 
L 187.964288 164.416634 
L 187.964288 157.230891 
L 188.908992 157.230891 
L 188.908992 150.045149 
L 189.503407 150.045149 
L 189.503407 142.859406 
L 192.054131 142.859406 
L 192.054131 135.673663 
L 192.102806 135.673663 
L 192.102806 128.487921 
L 196.497744 128.487921 
L 196.497744 121.302178 
L 198.340922 121.302178 
L 198.340922 114.116436 
L 204.277795 114.116436 
L 204.277795 106.930693 
L 208.867953 106.930693 
L 208.867953 99.74495 
L 209.572197 99.74495 
L 209.572197 92.559208 
L 210.879679 92.559208 
L 210.879679 85.373465 
L 216.699864 85.373465 
L 216.699864 78.187723 
L 226.684401 78.187723 
L 226.684401 71.00198 
L 227.38006 71.00198 
L 227.38006 63.816238 
L 230.771598 63.816238 
L 230.771598 56.630495 
L 230.878536 56.630495 
L 230.878536 49.444752 
L 232.209545 49.444752 
L 232.209545 42.25901 
L 242.940769 42.25901 
L 242.940769 35.073267 
L 268.683757 35.073267 
L 268.683757 27.887525 
L 277.086418 27.887525 
L 277.086418 20.701782 
L 336.985189 20.701782 
L 336.985189 13.51604 
L 427.999533 13.51604 
L 427.999533 6.330297 
L 427.999533 6.330297 
L 427.999533 6.330297 
L 460.8 6.330297 
" clip-path="url(#p6dc53618fe)" style="fill: none; stroke: #000000; stroke-width: 1.5; stroke-linecap: square"/>
   </g>
   <g id="line2d_25">
    <defs>
     <path id="mb6bec6e5d4" d="M 0 7.5 
C 1.989023 7.5 3.896849 6.709753 5.303301 5.303301 
C 6.709753 3.896849 7.5 1.989023 7.5 0 
C 7.5 -1.989023 6.709753 -3.896849 5.303301 -5.303301 
C 3.896849 -6.709753 1.989023 -7.5 0 -7.5 
C -1.989023 -7.5 -3.896849 -6.709753 -5.303301 -5.303301 
C -6.709753 -3.896849 -7.5 -1.989023 -7.5 0 
C -7.5 1.989023 -6.709753 3.896849 -5.303301 5.303301 
C -3.896849 6.709753 -1.989023 7.5 0 7.5 
z
" style="stroke: #000000; stroke-width: 1.5"/>
    </defs>
    <g clip-path="url(#p6dc53618fe)">
     <use xlink:href="#mb6bec6e5d4" x="165.554791" y="257.831287" style="fill-opacity: 0; stroke: #000000; stroke-width: 1.5"/>
     <use xlink:href="#mb6bec6e5d4" x="189.503407" y="150.045149" style="fill-opacity: 0; stroke: #000000; stroke-width: 1.5"/>
     <use xlink:href="#mb6bec6e5d4" x="226.684401" y="78.187723" style="fill-opacity: 0; stroke: #000000; stroke-width: 1.5"/>
     <use xlink:href="#mb6bec6e5d4" x="242.940769" y="42.25901" style="fill-opacity: 0; stroke: #000000; stroke-width: 1.5"/>
     <use xlink:href="#mb6bec6e5d4" x="277.086418" y="27.887525" style="fill-opacity: 0; stroke: #000000; stroke-width: 1.5"/>
     <use xlink:href="#mb6bec6e5d4" x="336.985189" y="20.701782" style="fill-opacity: 0; stroke: #000000; stroke-width: 1.5"/>
     <use xlink:href="#mb6bec6e5d4" x="427.999533" y="6.330297" style="fill-opacity: 0; stroke: #000000; stroke-width: 1.5"/>
    </g>
   </g>
   <g id="line2d_26">
    <path clip-path="url(#p6dc53618fe)" style="fill: none; stroke: #000000; stroke-width: 1.5; stroke-linecap: square"/>
   </g>
   <g id="line2d_27">
    <path d="M 169.255775 293.76 
L 169.255775 286.574257 
L 170.457747 286.574257 
L 170.457747 279.388515 
L 176.395957 279.388515 
L 176.395957 272.202772 
L 176.567689 272.202772 
L 176.567689 265.01703 
L 181.058902 265.01703 
L 181.058902 257.831287 
L 181.419972 257.831287 
L 181.419972 250.645545 
L 188.579264 250.645545 
L 188.579264 243.459802 
L 197.832434 243.459802 
L 197.832434 236.274059 
L 198.224411 236.274059 
L 198.224411 229.088317 
L 201.590171 229.088317 
L 201.590171 221.902574 
L 207.458563 221.902574 
L 207.458563 214.716832 
L 207.981952 214.716832 
L 207.981952 207.531089 
L 208.388224 207.531089 
L 208.388224 200.345347 
L 209.828515 200.345347 
L 209.828515 193.159604 
L 218.075458 193.159604 
L 218.075458 185.973861 
L 220.202018 185.973861 
L 220.202018 178.788119 
L 283.862791 178.788119 
L 283.862791 171.602376 
L 311.602142 171.602376 
L 311.602142 164.416634 
L 338.889657 164.416634 
L 338.889657 157.230891 
L 338.889657 157.230891 
L 338.889657 157.230891 
L 460.8 157.230891 
" clip-path="url(#p6dc53618fe)" style="fill: none; stroke: #00bfbf; stroke-width: 1.5; stroke-linecap: square"/>
   </g>
   <g id="line2d_28">
    <defs>
     <path id="m7e38947a41" d="M 0 14.142136 
L 8.485281 0 
L 0 -14.142136 
L -8.485281 0 
z
" style="stroke: #00bfbf; stroke-width: 1.5; stroke-linejoin: miter"/>
    </defs>
    <g clip-path="url(#p6dc53618fe)">
     <use xlink:href="#m7e38947a41" x="181.419972" y="257.831287" style="fill-opacity: 0; stroke: #00bfbf; stroke-width: 1.5; stroke-linejoin: miter"/>
     <use xlink:href="#m7e38947a41" x="218.075458" y="193.159604" style="fill-opacity: 0; stroke: #00bfbf; stroke-width: 1.5; stroke-linejoin: miter"/>
     <use xlink:href="#m7e38947a41" x="220.202018" y="185.973861" style="fill-opacity: 0; stroke: #00bfbf; stroke-width: 1.5; stroke-linejoin: miter"/>
     <use xlink:href="#m7e38947a41" x="311.602142" y="171.602376" style="fill-opacity: 0; stroke: #00bfbf; stroke-width: 1.5; stroke-linejoin: miter"/>
     <use xlink:href="#m7e38947a41" x="338.889657" y="157.230891" style="fill-opacity: 0; stroke: #00bfbf; stroke-width: 1.5; stroke-linejoin: miter"/>
    </g>
   </g>
   <g id="line2d_29">
    <path clip-path="url(#p6dc53618fe)" style="fill: none; stroke: #00bfbf; stroke-width: 1.5; stroke-linecap: square"/>
    <g clip-path="url(#p6dc53618fe)">
     <use xlink:href="#m7e38947a41" x="-1" y="581.189703" style="fill-opacity: 0; stroke: #00bfbf; stroke-width: 1.5; stroke-linejoin: miter"/>
     <use xlink:href="#m7e38947a41" x="460.8" y="581.189703" style="fill-opacity: 0; stroke: #00bfbf; stroke-width: 1.5; stroke-linejoin: miter"/>
    </g>
   </g>
   <g id="line2d_30">
    <path d="M 164.246111 293.76 
L 164.246111 286.574257 
L 171.506618 286.574257 
L 171.506618 279.388515 
L 176.481957 279.388515 
L 176.481957 272.202772 
L 178.469117 272.202772 
L 178.469117 265.01703 
L 181.705451 265.01703 
L 181.705451 257.831287 
L 184.472352 257.831287 
L 184.472352 250.645545 
L 184.727954 250.645545 
L 184.727954 243.459802 
L 188.523922 243.459802 
L 188.523922 236.274059 
L 190.397477 236.274059 
L 190.397477 229.088317 
L 193.754286 229.088317 
L 193.754286 221.902574 
L 198.687519 221.902574 
L 198.687519 214.716832 
L 202.068045 214.716832 
L 202.068045 207.531089 
L 203.227587 207.531089 
L 203.227587 200.345347 
L 205.529049 200.345347 
L 205.529049 193.159604 
L 209.468997 193.159604 
L 209.468997 185.973861 
L 217.347799 185.973861 
L 217.347799 178.788119 
L 221.181299 178.788119 
L 221.181299 171.602376 
L 235.274619 171.602376 
L 235.274619 164.416634 
L 238.869042 164.416634 
L 238.869042 157.230891 
L 239.621167 157.230891 
L 239.621167 150.045149 
L 253.280175 150.045149 
L 253.280175 142.859406 
L 310.44338 142.859406 
L 310.44338 135.673663 
L 311.083984 135.673663 
L 311.083984 128.487921 
L 321.73252 128.487921 
L 321.73252 121.302178 
L 357.782336 121.302178 
L 357.782336 114.116436 
L 369.284437 114.116436 
L 369.284437 106.930693 
L 380.408927 106.930693 
L 380.408927 99.74495 
L 390.989123 99.74495 
L 390.989123 92.559208 
L 406.247582 92.559208 
L 406.247582 85.373465 
L 412.6944 85.373465 
L 412.6944 78.187723 
L 418.333661 78.187723 
L 418.333661 71.00198 
L 420.022684 71.00198 
L 420.022684 63.816238 
L 420.584472 63.816238 
L 420.584472 56.630495 
L 425.401163 56.630495 
L 425.401163 49.444752 
L 434.665224 49.444752 
L 434.665224 42.25901 
L 438.763713 42.25901 
L 438.763713 35.073267 
L 438.763713 35.073267 
L 438.763713 35.073267 
L 460.8 35.073267 
" clip-path="url(#p6dc53618fe)" style="fill: none; stroke: #00bfbf; stroke-width: 1.5; stroke-linecap: square"/>
   </g>
   <g id="line2d_31">
    <defs>
     <path id="md6b6904f2f" d="M 0 7.5 
C 1.989023 7.5 3.896849 6.709753 5.303301 5.303301 
C 6.709753 3.896849 7.5 1.989023 7.5 0 
C 7.5 -1.989023 6.709753 -3.896849 5.303301 -5.303301 
C 3.896849 -6.709753 1.989023 -7.5 0 -7.5 
C -1.989023 -7.5 -3.896849 -6.709753 -5.303301 -5.303301 
C -6.709753 -3.896849 -7.5 -1.989023 -7.5 0 
C -7.5 1.989023 -6.709753 3.896849 -5.303301 5.303301 
C -3.896849 6.709753 -1.989023 7.5 0 7.5 
z
" style="stroke: #00bfbf; stroke-width: 1.5"/>
    </defs>
    <g clip-path="url(#p6dc53618fe)">
     <use xlink:href="#md6b6904f2f" x="184.472352" y="257.831287" style="fill-opacity: 0; stroke: #00bfbf; stroke-width: 1.5"/>
     <use xlink:href="#md6b6904f2f" x="205.529049" y="200.345347" style="fill-opacity: 0; stroke: #00bfbf; stroke-width: 1.5"/>
     <use xlink:href="#md6b6904f2f" x="239.621167" y="157.230891" style="fill-opacity: 0; stroke: #00bfbf; stroke-width: 1.5"/>
     <use xlink:href="#md6b6904f2f" x="311.083984" y="135.673663" style="fill-opacity: 0; stroke: #00bfbf; stroke-width: 1.5"/>
     <use xlink:href="#md6b6904f2f" x="369.284437" y="114.116436" style="fill-opacity: 0; stroke: #00bfbf; stroke-width: 1.5"/>
     <use xlink:href="#md6b6904f2f" x="418.333661" y="78.187723" style="fill-opacity: 0; stroke: #00bfbf; stroke-width: 1.5"/>
     <use xlink:href="#md6b6904f2f" x="438.763713" y="35.073267" style="fill-opacity: 0; stroke: #00bfbf; stroke-width: 1.5"/>
    </g>
   </g>
   <g id="line2d_32">
    <path clip-path="url(#p6dc53618fe)" style="fill: none; stroke: #00bfbf; stroke-width: 1.5; stroke-linecap: square"/>
   </g>
   <g id="line2d_33">
    <path d="M 197.152967 293.76 
L 197.152967 286.574257 
L 200.857405 286.574257 
L 200.857405 279.388515 
L 202.169374 279.388515 
L 202.169374 272.202772 
L 229.304502 272.202772 
L 229.304502 265.01703 
L 248.13584 265.01703 
L 248.13584 257.831287 
L 251.40169 257.831287 
L 251.40169 250.645545 
L 252.067833 250.645545 
L 252.067833 243.459802 
L 254.561748 243.459802 
L 254.561748 236.274059 
L 255.545637 236.274059 
L 255.545637 229.088317 
L 265.420823 229.088317 
L 265.420823 221.902574 
L 276.450268 221.902574 
L 276.450268 214.716832 
L 278.339366 214.716832 
L 278.339366 207.531089 
L 305.113361 207.531089 
L 305.113361 200.345347 
L 323.283142 200.345347 
L 323.283142 193.159604 
L 329.214725 193.159604 
L 329.214725 185.973861 
L 329.214725 185.973861 
L 329.214725 185.973861 
L 460.8 185.973861 
" clip-path="url(#p6dc53618fe)" style="fill: none; stroke: #bf00bf; stroke-width: 1.5; stroke-linecap: square"/>
   </g>
   <g id="line2d_34">
    <defs>
     <path id="m3e23fb50a6" d="M 0 14.142136 
L 8.485281 0 
L 0 -14.142136 
L -8.485281 0 
z
" style="stroke: #bf00bf; stroke-width: 1.5; stroke-linejoin: miter"/>
    </defs>
    <g clip-path="url(#p6dc53618fe)">
     <use xlink:href="#m3e23fb50a6" x="248.13584" y="265.01703" style="fill-opacity: 0; stroke: #bf00bf; stroke-width: 1.5; stroke-linejoin: miter"/>
     <use xlink:href="#m3e23fb50a6" x="265.420823" y="229.088317" style="fill-opacity: 0; stroke: #bf00bf; stroke-width: 1.5; stroke-linejoin: miter"/>
     <use xlink:href="#m3e23fb50a6" x="278.339366" y="214.716832" style="fill-opacity: 0; stroke: #bf00bf; stroke-width: 1.5; stroke-linejoin: miter"/>
     <use xlink:href="#m3e23fb50a6" x="329.214725" y="193.159604" style="fill-opacity: 0; stroke: #bf00bf; stroke-width: 1.5; stroke-linejoin: miter"/>
     <use xlink:href="#m3e23fb50a6" x="329.214725" y="185.973861" style="fill-opacity: 0; stroke: #bf00bf; stroke-width: 1.5; stroke-linejoin: miter"/>
    </g>
   </g>
   <g id="line2d_35">
    <path clip-path="url(#p6dc53618fe)" style="fill: none; stroke: #bf00bf; stroke-width: 1.5; stroke-linecap: square"/>
    <g clip-path="url(#p6dc53618fe)">
     <use xlink:href="#m3e23fb50a6" x="-1" y="581.189703" style="fill-opacity: 0; stroke: #bf00bf; stroke-width: 1.5; stroke-linejoin: miter"/>
     <use xlink:href="#m3e23fb50a6" x="460.8" y="581.189703" style="fill-opacity: 0; stroke: #bf00bf; stroke-width: 1.5; stroke-linejoin: miter"/>
    </g>
   </g>
   <g id="line2d_36">
    <path d="M 187.907693 293.76 
L 187.907693 286.574257 
L 190.397477 286.574257 
L 190.397477 279.388515 
L 202.370918 279.388515 
L 202.370918 272.202772 
L 215.146842 272.202772 
L 215.146842 265.01703 
L 215.167857 265.01703 
L 215.167857 257.831287 
L 222.898664 257.831287 
L 222.898664 250.645545 
L 238.004402 250.645545 
L 238.004402 243.459802 
L 238.610705 243.459802 
L 238.610705 236.274059 
L 241.520915 236.274059 
L 241.520915 229.088317 
L 251.266501 229.088317 
L 251.266501 221.902574 
L 255.087594 221.902574 
L 255.087594 214.716832 
L 279.834738 214.716832 
L 279.834738 207.531089 
L 291.135649 207.531089 
L 291.135649 200.345347 
L 293.768325 200.345347 
L 293.768325 193.159604 
L 311.082064 193.159604 
L 311.082064 185.973861 
L 331.799461 185.973861 
L 331.799461 178.788119 
L 373.387291 178.788119 
L 373.387291 171.602376 
L 373.673589 171.602376 
L 373.673589 164.416634 
L 374.149942 164.416634 
L 374.149942 157.230891 
L 403.016254 157.230891 
L 403.016254 150.045149 
L 416.759471 150.045149 
L 416.759471 142.859406 
L 422.285659 142.859406 
L 422.285659 135.673663 
L 425.47884 135.673663 
L 425.47884 128.487921 
L 425.768394 128.487921 
L 425.768394 121.302178 
L 432.691973 121.302178 
L 432.691973 114.116436 
L 432.691973 114.116436 
L 432.691973 114.116436 
L 460.8 114.116436 
" clip-path="url(#p6dc53618fe)" style="fill: none; stroke: #bf00bf; stroke-width: 1.5; stroke-linecap: square"/>
   </g>
   <g id="line2d_37">
    <defs>
     <path id="mef7d8ed72a" d="M 0 7.5 
C 1.989023 7.5 3.896849 6.709753 5.303301 5.303301 
C 6.709753 3.896849 7.5 1.989023 7.5 0 
C 7.5 -1.989023 6.709753 -3.896849 5.303301 -5.303301 
C 3.896849 -6.709753 1.989023 -7.5 0 -7.5 
C -1.989023 -7.5 -3.896849 -6.709753 -5.303301 -5.303301 
C -6.709753 -3.896849 -7.5 -1.989023 -7.5 0 
C -7.5 1.989023 -6.709753 3.896849 -5.303301 5.303301 
C -3.896849 6.709753 -1.989023 7.5 0 7.5 
z
" style="stroke: #bf00bf; stroke-width: 1.5"/>
    </defs>
    <g clip-path="url(#p6dc53618fe)">
     <use xlink:href="#mef7d8ed72a" x="238.610705" y="243.459802" style="fill-opacity: 0; stroke: #bf00bf; stroke-width: 1.5"/>
     <use xlink:href="#mef7d8ed72a" x="291.135649" y="207.531089" style="fill-opacity: 0; stroke: #bf00bf; stroke-width: 1.5"/>
     <use xlink:href="#mef7d8ed72a" x="311.082064" y="193.159604" style="fill-opacity: 0; stroke: #bf00bf; stroke-width: 1.5"/>
     <use xlink:href="#mef7d8ed72a" x="374.149942" y="164.416634" style="fill-opacity: 0; stroke: #bf00bf; stroke-width: 1.5"/>
     <use xlink:href="#mef7d8ed72a" x="432.691973" y="121.302178" style="fill-opacity: 0; stroke: #bf00bf; stroke-width: 1.5"/>
     <use xlink:href="#mef7d8ed72a" x="432.691973" y="114.116436" style="fill-opacity: 0; stroke: #bf00bf; stroke-width: 1.5"/>
    </g>
   </g>
   <g id="line2d_38">
    <path clip-path="url(#p6dc53618fe)" style="fill: none; stroke: #bf00bf; stroke-width: 1.5; stroke-linecap: square"/>
   </g>
   <g id="line2d_39">
    <path d="M 258.855968 293.76 
L 258.855968 286.574257 
L 319.230232 286.574257 
L 319.230232 279.388515 
L 348.085747 279.388515 
L 348.085747 272.202772 
L 358.889169 272.202772 
L 358.889169 265.01703 
L 360.364276 265.01703 
L 360.364276 257.831287 
L 360.364276 257.831287 
L 360.364276 257.831287 
L 460.8 257.831287 
" clip-path="url(#p6dc53618fe)" style="fill: none; stroke: #ff0000; stroke-width: 3; stroke-linecap: square"/>
   </g>
   <g id="line2d_40">
    <defs>
     <path id="m66c133fc1d" d="M 0 14.142136 
L 8.485281 0 
L 0 -14.142136 
L -8.485281 0 
z
" style="stroke: #ff0000; stroke-width: 3; stroke-linejoin: miter"/>
    </defs>
    <g clip-path="url(#p6dc53618fe)">
     <use xlink:href="#m66c133fc1d" x="258.855968" y="293.76" style="fill-opacity: 0; stroke: #ff0000; stroke-width: 3; stroke-linejoin: miter"/>
     <use xlink:href="#m66c133fc1d" x="319.230232" y="286.574257" style="fill-opacity: 0; stroke: #ff0000; stroke-width: 3; stroke-linejoin: miter"/>
     <use xlink:href="#m66c133fc1d" x="360.364276" y="265.01703" style="fill-opacity: 0; stroke: #ff0000; stroke-width: 3; stroke-linejoin: miter"/>
     <use xlink:href="#m66c133fc1d" x="360.364276" y="257.831287" style="fill-opacity: 0; stroke: #ff0000; stroke-width: 3; stroke-linejoin: miter"/>
    </g>
   </g>
   <g id="line2d_41">
    <path clip-path="url(#p6dc53618fe)" style="fill: none; stroke: #ff0000; stroke-width: 3; stroke-linecap: square"/>
    <g clip-path="url(#p6dc53618fe)">
     <use xlink:href="#m66c133fc1d" x="-1" y="581.189703" style="fill-opacity: 0; stroke: #ff0000; stroke-width: 3; stroke-linejoin: miter"/>
     <use xlink:href="#m66c133fc1d" x="460.8" y="581.189703" style="fill-opacity: 0; stroke: #ff0000; stroke-width: 3; stroke-linejoin: miter"/>
    </g>
   </g>
   <g id="line2d_42">
    <path d="M 229.317057 293.76 
L 229.317057 286.574257 
L 275.618087 286.574257 
L 275.618087 279.388515 
L 285.352756 279.388515 
L 285.352756 272.202772 
L 322.029871 272.202772 
L 322.029871 265.01703 
L 329.125885 265.01703 
L 329.125885 257.831287 
L 376.61532 257.831287 
L 376.61532 250.645545 
L 393.946913 250.645545 
L 393.946913 243.459802 
L 408.532255 243.459802 
L 408.532255 236.274059 
L 415.279788 236.274059 
L 415.279788 229.088317 
L 415.279788 229.088317 
L 415.279788 229.088317 
L 460.8 229.088317 
" clip-path="url(#p6dc53618fe)" style="fill: none; stroke: #ff0000; stroke-width: 3; stroke-linecap: square"/>
   </g>
   <g id="line2d_43">
    <defs>
     <path id="md6a2f3066a" d="M 0 7.5 
C 1.989023 7.5 3.896849 6.709753 5.303301 5.303301 
C 6.709753 3.896849 7.5 1.989023 7.5 0 
C 7.5 -1.989023 6.709753 -3.896849 5.303301 -5.303301 
C 3.896849 -6.709753 1.989023 -7.5 0 -7.5 
C -1.989023 -7.5 -3.896849 -6.709753 -5.303301 -5.303301 
C -6.709753 -3.896849 -7.5 -1.989023 -7.5 0 
C -7.5 1.989023 -6.709753 3.896849 -5.303301 5.303301 
C -3.896849 6.709753 -1.989023 7.5 0 7.5 
z
" style="stroke: #ff0000; stroke-width: 3"/>
    </defs>
    <g clip-path="url(#p6dc53618fe)">
     <use xlink:href="#md6a2f3066a" x="275.618087" y="286.574257" style="fill-opacity: 0; stroke: #ff0000; stroke-width: 3"/>
     <use xlink:href="#md6a2f3066a" x="322.029871" y="272.202772" style="fill-opacity: 0; stroke: #ff0000; stroke-width: 3"/>
     <use xlink:href="#md6a2f3066a" x="329.125885" y="265.01703" style="fill-opacity: 0; stroke: #ff0000; stroke-width: 3"/>
     <use xlink:href="#md6a2f3066a" x="393.946913" y="250.645545" style="fill-opacity: 0; stroke: #ff0000; stroke-width: 3"/>
     <use xlink:href="#md6a2f3066a" x="415.279788" y="229.088317" style="fill-opacity: 0; stroke: #ff0000; stroke-width: 3"/>
    </g>
   </g>
   <g id="line2d_44">
    <path clip-path="url(#p6dc53618fe)" style="fill: none; stroke: #ff0000; stroke-width: 3; stroke-linecap: square"/>
   </g>
   <g id="line2d_45"/>
   <g id="line2d_46"/>
   <g id="line2d_47">
    <path d="M 364.774813 293.76 
L 364.774813 3.456 
" clip-path="url(#p6dc53618fe)" style="fill: none; stroke: #000000; stroke-width: 1.5; stroke-linecap: square"/>
    <defs>
     <path id="m6b7ff101bd" d="M -10 0 
L 10 0 
M 0 10 
L 0 -10 
" style="stroke: #000000; stroke-width: 1.5"/>
    </defs>
    <g clip-path="url(#p6dc53618fe)">
     <use xlink:href="#m6b7ff101bd" x="364.774813" y="293.76" style="stroke: #000000; stroke-width: 1.5"/>
     <use xlink:href="#m6b7ff101bd" x="364.774813" y="3.456" style="stroke: #000000; stroke-width: 1.5"/>
    </g>
   </g>
   <g id="line2d_48">
    <path d="M 441.818577 293.76 
L 441.818577 3.456 
" clip-path="url(#p6dc53618fe)" style="fill: none; stroke: #000000; stroke-width: 1.5; stroke-linecap: square"/>
    <g clip-path="url(#p6dc53618fe)">
     <use xlink:href="#mb6bec6e5d4" x="441.818577" y="293.76" style="fill-opacity: 0; stroke: #000000; stroke-width: 1.5"/>
     <use xlink:href="#mb6bec6e5d4" x="441.818577" y="3.456" style="fill-opacity: 0; stroke: #000000; stroke-width: 1.5"/>
    </g>
   </g>
   <g id="patch_3">
    <path d="M 62.208 293.76 
L 62.208 3.456 
" style="fill: none; stroke: #000000; stroke-width: 0.8; stroke-linejoin: miter; stroke-linecap: square"/>
   </g>
   <g id="patch_4">
    <path d="M 460.8 293.76 
L 460.8 3.456 
" style="fill: none; stroke: #000000; stroke-width: 0.8; stroke-linejoin: miter; stroke-linecap: square"/>
   </g>
   <g id="patch_5">
    <path d="M 62.208 293.76 
L 460.8 293.76 
" style="fill: none; stroke: #000000; stroke-width: 0.8; stroke-linejoin: miter; stroke-linecap: square"/>
   </g>
   <g id="patch_6">
    <path d="M 62.208 3.456 
L 460.8 3.456 
" style="fill: none; stroke: #000000; stroke-width: 0.8; stroke-linejoin: miter; stroke-linecap: square"/>
   </g>
   <g id="text_13">
    <!-- f26, f27, f33, f34 -->
    <g transform="translate(177.454 24.458955)scale(0.2 -0.2)">
     <defs>
      <path id="DejaVuSans-2c" d="M 750 794 
L 1409 794 
L 1409 256 
L 897 -744 
L 494 -744 
L 750 256 
L 750 794 
z
" transform="scale(0.015625)"/>
      <path id="DejaVuSans-37" d="M 525 4666 
L 3525 4666 
L 3525 4397 
L 1831 0 
L 1172 0 
L 2766 4134 
L 525 4134 
L 525 4666 
z
" transform="scale(0.015625)"/>
      <path id="DejaVuSans-33" d="M 2597 2516 
Q 3050 2419 3304 2112 
Q 3559 1806 3559 1356 
Q 3559 666 3084 287 
Q 2609 -91 1734 -91 
Q 1441 -91 1130 -33 
Q 819 25 488 141 
L 488 750 
Q 750 597 1062 519 
Q 1375 441 1716 441 
Q 2309 441 2620 675 
Q 2931 909 2931 1356 
Q 2931 1769 2642 2001 
Q 2353 2234 1838 2234 
L 1294 2234 
L 1294 2753 
L 1863 2753 
Q 2328 2753 2575 2939 
Q 2822 3125 2822 3475 
Q 2822 3834 2567 4026 
Q 2313 4219 1838 4219 
Q 1578 4219 1281 4162 
Q 984 4106 628 3988 
L 628 4550 
Q 988 4650 1302 4700 
Q 1616 4750 1894 4750 
Q 2613 4750 3031 4423 
Q 3450 4097 3450 3541 
Q 3450 3153 3228 2886 
Q 3006 2619 2597 2516 
z
" transform="scale(0.015625)"/>
     </defs>
     <use xlink:href="#DejaVuSans-66"/>
     <use xlink:href="#DejaVuSans-32" x="35.205078"/>
     <use xlink:href="#DejaVuSans-36" x="98.828125"/>
     <use xlink:href="#DejaVuSans-2c" x="162.451172"/>
     <use xlink:href="#DejaVuSans-20" x="194.238281"/>
     <use xlink:href="#DejaVuSans-66" x="226.025391"/>
     <use xlink:href="#DejaVuSans-32" x="261.230469"/>
     <use xlink:href="#DejaVuSans-37" x="324.853516"/>
     <use xlink:href="#DejaVuSans-2c" x="388.476562"/>
     <use xlink:href="#DejaVuSans-20" x="420.263672"/>
     <use xlink:href="#DejaVuSans-66" x="452.050781"/>
     <use xlink:href="#DejaVuSans-33" x="487.255859"/>
     <use xlink:href="#DejaVuSans-33" x="550.878906"/>
     <use xlink:href="#DejaVuSans-2c" x="614.501953"/>
     <use xlink:href="#DejaVuSans-20" x="646.289062"/>
     <use xlink:href="#DejaVuSans-66" x="678.076172"/>
     <use xlink:href="#DejaVuSans-33" x="713.28125"/>
     <use xlink:href="#DejaVuSans-34" x="776.904297"/>
    </g>
   </g>
   <g id="text_14">
    <!-- absolute targets -->
    <g transform="translate(62.208 609.932673)scale(0.14 -0.14)">
     <defs>
      <path id="DejaVuSans-62" d="M 3116 1747 
Q 3116 2381 2855 2742 
Q 2594 3103 2138 3103 
Q 1681 3103 1420 2742 
Q 1159 2381 1159 1747 
Q 1159 1113 1420 752 
Q 1681 391 2138 391 
Q 2594 391 2855 752 
Q 3116 1113 3116 1747 
z
M 1159 2969 
Q 1341 3281 1617 3432 
Q 1894 3584 2278 3584 
Q 2916 3584 3314 3078 
Q 3713 2572 3713 1747 
Q 3713 922 3314 415 
Q 2916 -91 2278 -91 
Q 1894 -91 1617 61 
Q 1341 213 1159 525 
L 1159 0 
L 581 0 
L 581 4863 
L 1159 4863 
L 1159 2969 
z
" transform="scale(0.015625)"/>
      <path id="DejaVuSans-75" d="M 544 1381 
L 544 3500 
L 1119 3500 
L 1119 1403 
Q 1119 906 1312 657 
Q 1506 409 1894 409 
Q 2359 409 2629 706 
Q 2900 1003 2900 1516 
L 2900 3500 
L 3475 3500 
L 3475 0 
L 2900 0 
L 2900 538 
Q 2691 219 2414 64 
Q 2138 -91 1772 -91 
Q 1169 -91 856 284 
Q 544 659 544 1381 
z
M 1991 3584 
L 1991 3584 
z
" transform="scale(0.015625)"/>
      <path id="DejaVuSans-65" d="M 3597 1894 
L 3597 1613 
L 953 1613 
Q 991 1019 1311 708 
Q 1631 397 2203 397 
Q 2534 397 2845 478 
Q 3156 559 3463 722 
L 3463 178 
Q 3153 47 2828 -22 
Q 2503 -91 2169 -91 
Q 1331 -91 842 396 
Q 353 884 353 1716 
Q 353 2575 817 3079 
Q 1281 3584 2069 3584 
Q 2775 3584 3186 3129 
Q 3597 2675 3597 1894 
z
M 3022 2063 
Q 3016 2534 2758 2815 
Q 2500 3097 2075 3097 
Q 1594 3097 1305 2825 
Q 1016 2553 972 2059 
L 3022 2063 
z
" transform="scale(0.015625)"/>
     </defs>
     <use xlink:href="#DejaVuSans-61"/>
     <use xlink:href="#DejaVuSans-62" x="61.279297"/>
     <use xlink:href="#DejaVuSans-73" x="124.755859"/>
     <use xlink:href="#DejaVuSans-6f" x="176.855469"/>
     <use xlink:href="#DejaVuSans-6c" x="238.037109"/>
     <use xlink:href="#DejaVuSans-75" x="265.820312"/>
     <use xlink:href="#DejaVuSans-74" x="329.199219"/>
     <use xlink:href="#DejaVuSans-65" x="368.408203"/>
     <use xlink:href="#DejaVuSans-20" x="429.931641"/>
     <use xlink:href="#DejaVuSans-74" x="461.71875"/>
     <use xlink:href="#DejaVuSans-61" x="500.927734"/>
     <use xlink:href="#DejaVuSans-72" x="562.207031"/>
     <use xlink:href="#DejaVuSans-67" x="601.570312"/>
     <use xlink:href="#DejaVuSans-65" x="665.046875"/>
     <use xlink:href="#DejaVuSans-74" x="726.570312"/>
     <use xlink:href="#DejaVuSans-73" x="765.779297"/>
    </g>
   </g>
   <g id="text_15">
    <!-- v2.6.3.13, hv-hash=ff0e71e8cd978373 -->
    <g style="fill: #808080" transform="translate(163.286812 288.777272)scale(0.1 -0.1)">
     <defs>
      <path id="DejaVuSans-68" d="M 3513 2113 
L 3513 0 
L 2938 0 
L 2938 2094 
Q 2938 2591 2744 2837 
Q 2550 3084 2163 3084 
Q 1697 3084 1428 2787 
Q 1159 2491 1159 1978 
L 1159 0 
L 581 0 
L 581 4863 
L 1159 4863 
L 1159 2956 
Q 1366 3272 1645 3428 
Q 1925 3584 2291 3584 
Q 2894 3584 3203 3211 
Q 3513 2838 3513 2113 
z
" transform="scale(0.015625)"/>
      <path id="DejaVuSans-2d" d="M 313 2009 
L 1997 2009 
L 1997 1497 
L 313 1497 
L 313 2009 
z
" transform="scale(0.015625)"/>
      <path id="DejaVuSans-3d" d="M 678 2906 
L 4684 2906 
L 4684 2381 
L 678 2381 
L 678 2906 
z
M 678 1631 
L 4684 1631 
L 4684 1100 
L 678 1100 
L 678 1631 
z
" transform="scale(0.015625)"/>
      <path id="DejaVuSans-63" d="M 3122 3366 
L 3122 2828 
Q 2878 2963 2633 3030 
Q 2388 3097 2138 3097 
Q 1578 3097 1268 2742 
Q 959 2388 959 1747 
Q 959 1106 1268 751 
Q 1578 397 2138 397 
Q 2388 397 2633 464 
Q 2878 531 3122 666 
L 3122 134 
Q 2881 22 2623 -34 
Q 2366 -91 2075 -91 
Q 1284 -91 818 406 
Q 353 903 353 1747 
Q 353 2603 823 3093 
Q 1294 3584 2113 3584 
Q 2378 3584 2631 3529 
Q 2884 3475 3122 3366 
z
" transform="scale(0.015625)"/>
      <path id="DejaVuSans-64" d="M 2906 2969 
L 2906 4863 
L 3481 4863 
L 3481 0 
L 2906 0 
L 2906 525 
Q 2725 213 2448 61 
Q 2172 -91 1784 -91 
Q 1150 -91 751 415 
Q 353 922 353 1747 
Q 353 2572 751 3078 
Q 1150 3584 1784 3584 
Q 2172 3584 2448 3432 
Q 2725 3281 2906 2969 
z
M 947 1747 
Q 947 1113 1208 752 
Q 1469 391 1925 391 
Q 2381 391 2643 752 
Q 2906 1113 2906 1747 
Q 2906 2381 2643 2742 
Q 2381 3103 1925 3103 
Q 1469 3103 1208 2742 
Q 947 2381 947 1747 
z
" transform="scale(0.015625)"/>
      <path id="DejaVuSans-39" d="M 703 97 
L 703 672 
Q 941 559 1184 500 
Q 1428 441 1663 441 
Q 2288 441 2617 861 
Q 2947 1281 2994 2138 
Q 2813 1869 2534 1725 
Q 2256 1581 1919 1581 
Q 1219 1581 811 2004 
Q 403 2428 403 3163 
Q 403 3881 828 4315 
Q 1253 4750 1959 4750 
Q 2769 4750 3195 4129 
Q 3622 3509 3622 2328 
Q 3622 1225 3098 567 
Q 2575 -91 1691 -91 
Q 1453 -91 1209 -44 
Q 966 3 703 97 
z
M 1959 2075 
Q 2384 2075 2632 2365 
Q 2881 2656 2881 3163 
Q 2881 3666 2632 3958 
Q 2384 4250 1959 4250 
Q 1534 4250 1286 3958 
Q 1038 3666 1038 3163 
Q 1038 2656 1286 2365 
Q 1534 2075 1959 2075 
z
" transform="scale(0.015625)"/>
     </defs>
     <use xlink:href="#DejaVuSans-76"/>
     <use xlink:href="#DejaVuSans-32" x="59.179688"/>
     <use xlink:href="#DejaVuSans-2e" x="122.802734"/>
     <use xlink:href="#DejaVuSans-36" x="154.589844"/>
     <use xlink:href="#DejaVuSans-2e" x="218.212891"/>
     <use xlink:href="#DejaVuSans-33" x="250"/>
     <use xlink:href="#DejaVuSans-2e" x="313.623047"/>
     <use xlink:href="#DejaVuSans-31" x="345.410156"/>
     <use xlink:href="#DejaVuSans-33" x="409.033203"/>
     <use xlink:href="#DejaVuSans-2c" x="472.65625"/>
     <use xlink:href="#DejaVuSans-20" x="504.443359"/>
     <use xlink:href="#DejaVuSans-68" x="536.230469"/>
     <use xlink:href="#DejaVuSans-76" x="599.609375"/>
     <use xlink:href="#DejaVuSans-2d" x="656.164062"/>
     <use xlink:href="#DejaVuSans-68" x="692.248047"/>
     <use xlink:href="#DejaVuSans-61" x="755.626953"/>
     <use xlink:href="#DejaVuSans-73" x="816.90625"/>
     <use xlink:href="#DejaVuSans-68" x="869.005859"/>
     <use xlink:href="#DejaVuSans-3d" x="932.384766"/>
     <use xlink:href="#DejaVuSans-66" x="1016.173828"/>
     <use xlink:href="#DejaVuSans-66" x="1051.378906"/>
     <use xlink:href="#DejaVuSans-30" x="1086.583984"/>
     <use xlink:href="#DejaVuSans-65" x="1150.207031"/>
     <use xlink:href="#DejaVuSans-37" x="1211.730469"/>
     <use xlink:href="#DejaVuSans-31" x="1275.353516"/>
     <use xlink:href="#DejaVuSans-65" x="1338.976562"/>
     <use xlink:href="#DejaVuSans-38" x="1400.5"/>
     <use xlink:href="#DejaVuSans-63" x="1464.123047"/>
     <use xlink:href="#DejaVuSans-64" x="1519.103516"/>
     <use xlink:href="#DejaVuSans-39" x="1582.580078"/>
     <use xlink:href="#DejaVuSans-37" x="1646.203125"/>
     <use xlink:href="#DejaVuSans-38" x="1709.826172"/>
     <use xlink:href="#DejaVuSans-33" x="1773.449219"/>
     <use xlink:href="#DejaVuSans-37" x="1837.072266"/>
     <use xlink:href="#DejaVuSans-33" x="1900.695312"/>
    </g>
   </g>
   <g id="legend_1">
    <g id="patch_7">
     <path d="M 76.208 166.23725 
L 160.148625 166.23725 
Q 164.148625 166.23725 164.148625 162.23725 
L 164.148625 17.456 
Q 164.148625 13.456 160.148625 13.456 
L 76.208 13.456 
Q 72.208 13.456 72.208 17.456 
L 72.208 162.23725 
Q 72.208 166.23725 76.208 166.23725 
z
" style="fill: #ffffff; opacity: 0.2; stroke: #cccccc; stroke-linejoin: miter"/>
    </g>
    <g id="line2d_49">
     <path d="M 80.208 29.652875 
L 80.208 29.652875 
L 100.208 29.652875 
L 100.208 29.652875 
L 120.208 29.652875 
" style="fill: none; stroke: #000000; stroke-width: 1.5; stroke-linecap: square"/>
    </g>
    <g id="text_16">
     <!-- -1 -->
     <g transform="translate(136.208 36.652875)scale(0.2 -0.2)">
      <use xlink:href="#DejaVuSans-2d"/>
      <use xlink:href="#DejaVuSans-31" x="36.083984"/>
     </g>
    </g>
    <g id="line2d_50">
     <path d="M 80.208 59.009125 
L 80.208 59.009125 
L 100.208 59.009125 
L 100.208 59.009125 
L 120.208 59.009125 
" style="fill: none; stroke: #00bfbf; stroke-width: 1.5; stroke-linecap: square"/>
    </g>
    <g id="text_17">
     <!-- -2 -->
     <g transform="translate(136.208 66.009125)scale(0.2 -0.2)">
      <use xlink:href="#DejaVuSans-2d"/>
      <use xlink:href="#DejaVuSans-32" x="36.083984"/>
     </g>
    </g>
    <g id="line2d_51">
     <path d="M 80.208 88.365375 
L 80.208 88.365375 
L 100.208 88.365375 
L 100.208 88.365375 
L 120.208 88.365375 
" style="fill: none; stroke: #bf00bf; stroke-width: 1.5; stroke-linecap: square"/>
    </g>
    <g id="text_18">
     <!-- -3 -->
     <g transform="translate(136.208 95.365375)scale(0.2 -0.2)">
      <use xlink:href="#DejaVuSans-2d"/>
      <use xlink:href="#DejaVuSans-33" x="36.083984"/>
     </g>
    </g>
    <g id="line2d_52">
     <path d="M 80.208 117.721625 
L 80.208 117.721625 
L 100.208 117.721625 
L 100.208 117.721625 
L 120.208 117.721625 
" style="fill: none; stroke: #ff0000; stroke-width: 3; stroke-linecap: square"/>
    </g>
    <g id="text_19">
     <!-- -4 -->
     <g transform="translate(136.208 124.721625)scale(0.2 -0.2)">
      <use xlink:href="#DejaVuSans-2d"/>
      <use xlink:href="#DejaVuSans-34" x="36.083984"/>
     </g>
    </g>
    <g id="line2d_53">
     <path d="M 80.208 147.077875 
L 100.208 147.077875 
L 120.208 147.077875 
" style="fill: none; stroke: #000000; stroke-width: 1.5; stroke-linecap: square"/>
    </g>
    <g id="text_20">
     <!-- -5 -->
     <g transform="translate(136.208 154.077875)scale(0.2 -0.2)">
      <defs>
       <path id="DejaVuSans-35" d="M 691 4666 
L 3169 4666 
L 3169 4134 
L 1269 4134 
L 1269 2991 
Q 1406 3038 1543 3061 
Q 1681 3084 1819 3084 
Q 2600 3084 3056 2656 
Q 3513 2228 3513 1497 
Q 3513 744 3044 326 
Q 2575 -91 1722 -91 
Q 1428 -91 1123 -41 
Q 819 9 494 109 
L 494 744 
Q 775 591 1075 516 
Q 1375 441 1709 441 
Q 2250 441 2565 725 
Q 2881 1009 2881 1497 
Q 2881 1984 2565 2268 
Q 2250 2553 1709 2553 
Q 1456 2553 1204 2497 
Q 953 2441 691 2322 
L 691 4666 
z
" transform="scale(0.015625)"/>
      </defs>
      <use xlink:href="#DejaVuSans-2d"/>
      <use xlink:href="#DejaVuSans-35" x="36.083984"/>
     </g>
    </g>
   </g>
  </g>
 </g>
 <defs>
  <clipPath id="p6dc53618fe">
   <rect x="62.208" y="3.456" width="398.592" height="290.304"/>
  </clipPath>
 </defs>
</svg>
