<?xml version="1.0" encoding="utf-8" standalone="no"?>
<!DOCTYPE svg PUBLIC "-//W3C//DTD SVG 1.1//EN"
  "http://www.w3.org/Graphics/SVG/1.1/DTD/svg11.dtd">
<!-- Created with matplotlib (http://matplotlib.org/) -->
<svg height="345pt" version="1.1" viewBox="0 0 460 345" width="460pt" xmlns="http://www.w3.org/2000/svg" xmlns:xlink="http://www.w3.org/1999/xlink">
 <defs>
  <style type="text/css">
*{stroke-linecap:butt;stroke-linejoin:round;}
  </style>
 </defs>
 <g id="figure_1">
  <g id="patch_1">
   <path d="M 0 345.6 
L 460.8 345.6 
L 460.8 0 
L 0 0 
z
" style="fill:#ffffff;"/>
  </g>
  <g id="axes_1">
   <g id="patch_2">
    <path d="M 56.12 294.88 
L 399.984 294.88 
L 399.984 24.84 
L 56.12 24.84 
z
" style="fill:#ffffff;"/>
   </g>
   <g id="line2d_1">
    <path d="M 20.343487 294.88 
L 20.343487 290.270236 
L 150.338222 290.270236 
L 150.338222 281.050707 
L 216.813701 281.050707 
L 216.813701 271.831178 
L 239.745147 271.831178 
L 239.745147 267.221413 
L 247.307498 267.221413 
L 247.307498 253.39212 
L 254.263458 253.39212 
L 254.263458 244.172591 
L 261.221642 244.172591 
L 261.221642 239.562827 
L 261.234603 239.562827 
L 261.234603 230.343298 
L 261.437247 230.343298 
L 261.437247 216.514005 
L 278.079879 216.514005 
L 278.079879 207.294476 
L 278.130064 207.294476 
L 278.130064 198.074947 
L 292.254646 198.074947 
L 292.254646 188.855418 
L 292.651552 188.855418 
L 292.651552 184.245654 
L 293.690344 184.245654 
L 293.690344 170.416361 
L 333.429677 170.416361 
" style="fill:none;stroke:#f5deb3;stroke-linecap:square;stroke-width:6;"/>
   </g>
   <g id="line2d_2">
    <path d="M 0 0 
" style="fill:none;stroke:#f5deb3;stroke-linecap:square;stroke-width:6;"/>
    <defs>
     <path d="M -0 7.778175 
L 7.778175 0 
L 0 -7.778175 
L -7.778175 -0 
z
" id="m74d8b6b947" style="stroke:#f5deb3;stroke-linejoin:miter;stroke-width:1.5;"/>
    </defs>
    <g>
     <use style="fill:#f5deb3;stroke:#f5deb3;stroke-linejoin:miter;stroke-width:1.5;" x="0" xlink:href="#m74d8b6b947" y="0"/>
    </g>
   </g>
   <g id="line2d_3">
    <path d="M 333.429677 170.416361 
L 363.933742 289.532673 
" style="fill:none;stroke:#f5deb3;stroke-linecap:square;stroke-width:6;"/>
    <g>
     <use style="fill:#f5deb3;stroke:#f5deb3;stroke-linejoin:miter;stroke-width:1.5;" x="333.429677" xlink:href="#m74d8b6b947" y="170.416361"/>
     <use style="fill:#f5deb3;stroke:#f5deb3;stroke-linejoin:miter;stroke-width:1.5;" x="363.933742" xlink:href="#m74d8b6b947" y="289.532673"/>
    </g>
   </g>
   <g id="matplotlib.axis_1">
    <g id="xtick_1">
     <g id="line2d_4">
      <path clip-path="url(#pe9a85c4386)" d="M 56.12 294.88 
L 56.12 24.84 
" style="fill:none;stroke:#b0b0b0;stroke-linecap:square;stroke-width:0.8;"/>
     </g>
     <g id="line2d_5">
      <defs>
       <path d="M 0 0 
L 0 3.5 
" id="m7ab82037e1" style="stroke:#000000;stroke-width:0.8;"/>
      </defs>
      <g>
       <use style="stroke:#000000;stroke-width:0.8;" x="56.12" xlink:href="#m7ab82037e1" y="294.88"/>
      </g>
     </g>
     <g id="text_1">
      <!-- 0 -->
      <defs>
       <path d="M 31.78125 66.40625 
Q 24.171875 66.40625 20.328125 58.90625 
Q 16.5 51.421875 16.5 36.375 
Q 16.5 21.390625 20.328125 13.890625 
Q 24.171875 6.390625 31.78125 6.390625 
Q 39.453125 6.390625 43.28125 13.890625 
Q 47.125 21.390625 47.125 36.375 
Q 47.125 51.421875 43.28125 58.90625 
Q 39.453125 66.40625 31.78125 66.40625 
z
M 31.78125 74.21875 
Q 44.046875 74.21875 50.515625 64.515625 
Q 56.984375 54.828125 56.984375 36.375 
Q 56.984375 17.96875 50.515625 8.265625 
Q 44.046875 -1.421875 31.78125 -1.421875 
Q 19.53125 -1.421875 13.0625 8.265625 
Q 6.59375 17.96875 6.59375 36.375 
Q 6.59375 54.828125 13.0625 64.515625 
Q 19.53125 74.21875 31.78125 74.21875 
z
" id="DejaVuSans-30"/>
      </defs>
      <g transform="translate(49.7575 317.076875)scale(0.2 -0.2)">
       <use xlink:href="#DejaVuSans-30"/>
      </g>
     </g>
    </g>
    <g id="xtick_2">
     <g id="line2d_6">
      <path clip-path="url(#pe9a85c4386)" d="M 135.351336 294.88 
L 135.351336 24.84 
" style="fill:none;stroke:#b0b0b0;stroke-linecap:square;stroke-width:0.8;"/>
     </g>
     <g id="line2d_7">
      <g>
       <use style="stroke:#000000;stroke-width:0.8;" x="135.351336" xlink:href="#m7ab82037e1" y="294.88"/>
      </g>
     </g>
     <g id="text_2">
      <!-- 2 -->
      <defs>
       <path d="M 19.1875 8.296875 
L 53.609375 8.296875 
L 53.609375 0 
L 7.328125 0 
L 7.328125 8.296875 
Q 12.9375 14.109375 22.625 23.890625 
Q 32.328125 33.6875 34.8125 36.53125 
Q 39.546875 41.84375 41.421875 45.53125 
Q 43.3125 49.21875 43.3125 52.78125 
Q 43.3125 58.59375 39.234375 62.25 
Q 35.15625 65.921875 28.609375 65.921875 
Q 23.96875 65.921875 18.8125 64.3125 
Q 13.671875 62.703125 7.8125 59.421875 
L 7.8125 69.390625 
Q 13.765625 71.78125 18.9375 73 
Q 24.125 74.21875 28.421875 74.21875 
Q 39.75 74.21875 46.484375 68.546875 
Q 53.21875 62.890625 53.21875 53.421875 
Q 53.21875 48.921875 51.53125 44.890625 
Q 49.859375 40.875 45.40625 35.40625 
Q 44.1875 33.984375 37.640625 27.21875 
Q 31.109375 20.453125 19.1875 8.296875 
z
" id="DejaVuSans-32"/>
      </defs>
      <g transform="translate(128.988836 317.076875)scale(0.2 -0.2)">
       <use xlink:href="#DejaVuSans-32"/>
      </g>
     </g>
    </g>
    <g id="xtick_3">
     <g id="line2d_8">
      <path clip-path="url(#pe9a85c4386)" d="M 214.582673 294.88 
L 214.582673 24.84 
" style="fill:none;stroke:#b0b0b0;stroke-linecap:square;stroke-width:0.8;"/>
     </g>
     <g id="line2d_9">
      <g>
       <use style="stroke:#000000;stroke-width:0.8;" x="214.582673" xlink:href="#m7ab82037e1" y="294.88"/>
      </g>
     </g>
     <g id="text_3">
      <!-- 4 -->
      <defs>
       <path d="M 37.796875 64.3125 
L 12.890625 25.390625 
L 37.796875 25.390625 
z
M 35.203125 72.90625 
L 47.609375 72.90625 
L 47.609375 25.390625 
L 58.015625 25.390625 
L 58.015625 17.1875 
L 47.609375 17.1875 
L 47.609375 0 
L 37.796875 0 
L 37.796875 17.1875 
L 4.890625 17.1875 
L 4.890625 26.703125 
z
" id="DejaVuSans-34"/>
      </defs>
      <g transform="translate(208.220173 317.076875)scale(0.2 -0.2)">
       <use xlink:href="#DejaVuSans-34"/>
      </g>
     </g>
    </g>
    <g id="xtick_4">
     <g id="line2d_10">
      <path clip-path="url(#pe9a85c4386)" d="M 293.814009 294.88 
L 293.814009 24.84 
" style="fill:none;stroke:#b0b0b0;stroke-linecap:square;stroke-width:0.8;"/>
     </g>
     <g id="line2d_11">
      <g>
       <use style="stroke:#000000;stroke-width:0.8;" x="293.814009" xlink:href="#m7ab82037e1" y="294.88"/>
      </g>
     </g>
     <g id="text_4">
      <!-- 6 -->
      <defs>
       <path d="M 33.015625 40.375 
Q 26.375 40.375 22.484375 35.828125 
Q 18.609375 31.296875 18.609375 23.390625 
Q 18.609375 15.53125 22.484375 10.953125 
Q 26.375 6.390625 33.015625 6.390625 
Q 39.65625 6.390625 43.53125 10.953125 
Q 47.40625 15.53125 47.40625 23.390625 
Q 47.40625 31.296875 43.53125 35.828125 
Q 39.65625 40.375 33.015625 40.375 
z
M 52.59375 71.296875 
L 52.59375 62.3125 
Q 48.875 64.0625 45.09375 64.984375 
Q 41.3125 65.921875 37.59375 65.921875 
Q 27.828125 65.921875 22.671875 59.328125 
Q 17.53125 52.734375 16.796875 39.40625 
Q 19.671875 43.65625 24.015625 45.921875 
Q 28.375 48.1875 33.59375 48.1875 
Q 44.578125 48.1875 50.953125 41.515625 
Q 57.328125 34.859375 57.328125 23.390625 
Q 57.328125 12.15625 50.6875 5.359375 
Q 44.046875 -1.421875 33.015625 -1.421875 
Q 20.359375 -1.421875 13.671875 8.265625 
Q 6.984375 17.96875 6.984375 36.375 
Q 6.984375 53.65625 15.1875 63.9375 
Q 23.390625 74.21875 37.203125 74.21875 
Q 40.921875 74.21875 44.703125 73.484375 
Q 48.484375 72.75 52.59375 71.296875 
z
" id="DejaVuSans-36"/>
      </defs>
      <g transform="translate(287.451509 317.076875)scale(0.2 -0.2)">
       <use xlink:href="#DejaVuSans-36"/>
      </g>
     </g>
    </g>
    <g id="xtick_5">
     <g id="line2d_12">
      <path clip-path="url(#pe9a85c4386)" d="M 373.045346 294.88 
L 373.045346 24.84 
" style="fill:none;stroke:#b0b0b0;stroke-linecap:square;stroke-width:0.8;"/>
     </g>
     <g id="line2d_13">
      <g>
       <use style="stroke:#000000;stroke-width:0.8;" x="373.045346" xlink:href="#m7ab82037e1" y="294.88"/>
      </g>
     </g>
     <g id="text_5">
      <!-- 8 -->
      <defs>
       <path d="M 31.78125 34.625 
Q 24.75 34.625 20.71875 30.859375 
Q 16.703125 27.09375 16.703125 20.515625 
Q 16.703125 13.921875 20.71875 10.15625 
Q 24.75 6.390625 31.78125 6.390625 
Q 38.8125 6.390625 42.859375 10.171875 
Q 46.921875 13.96875 46.921875 20.515625 
Q 46.921875 27.09375 42.890625 30.859375 
Q 38.875 34.625 31.78125 34.625 
z
M 21.921875 38.8125 
Q 15.578125 40.375 12.03125 44.71875 
Q 8.5 49.078125 8.5 55.328125 
Q 8.5 64.0625 14.71875 69.140625 
Q 20.953125 74.21875 31.78125 74.21875 
Q 42.671875 74.21875 48.875 69.140625 
Q 55.078125 64.0625 55.078125 55.328125 
Q 55.078125 49.078125 51.53125 44.71875 
Q 48 40.375 41.703125 38.8125 
Q 48.828125 37.15625 52.796875 32.3125 
Q 56.78125 27.484375 56.78125 20.515625 
Q 56.78125 9.90625 50.3125 4.234375 
Q 43.84375 -1.421875 31.78125 -1.421875 
Q 19.734375 -1.421875 13.25 4.234375 
Q 6.78125 9.90625 6.78125 20.515625 
Q 6.78125 27.484375 10.78125 32.3125 
Q 14.796875 37.15625 21.921875 38.8125 
z
M 18.3125 54.390625 
Q 18.3125 48.734375 21.84375 45.5625 
Q 25.390625 42.390625 31.78125 42.390625 
Q 38.140625 42.390625 41.71875 45.5625 
Q 45.3125 48.734375 45.3125 54.390625 
Q 45.3125 60.0625 41.71875 63.234375 
Q 38.140625 66.40625 31.78125 66.40625 
Q 25.390625 66.40625 21.84375 63.234375 
Q 18.3125 60.0625 18.3125 54.390625 
z
" id="DejaVuSans-38"/>
      </defs>
      <g transform="translate(366.682846 317.076875)scale(0.2 -0.2)">
       <use xlink:href="#DejaVuSans-38"/>
      </g>
     </g>
    </g>
    <g id="text_6">
     <!-- log10(# f-evals / dimension) -->
     <defs>
      <path d="M 9.421875 75.984375 
L 18.40625 75.984375 
L 18.40625 0 
L 9.421875 0 
z
" id="DejaVuSans-6c"/>
      <path d="M 30.609375 48.390625 
Q 23.390625 48.390625 19.1875 42.75 
Q 14.984375 37.109375 14.984375 27.296875 
Q 14.984375 17.484375 19.15625 11.84375 
Q 23.34375 6.203125 30.609375 6.203125 
Q 37.796875 6.203125 41.984375 11.859375 
Q 46.1875 17.53125 46.1875 27.296875 
Q 46.1875 37.015625 41.984375 42.703125 
Q 37.796875 48.390625 30.609375 48.390625 
z
M 30.609375 56 
Q 42.328125 56 49.015625 48.375 
Q 55.71875 40.765625 55.71875 27.296875 
Q 55.71875 13.875 49.015625 6.21875 
Q 42.328125 -1.421875 30.609375 -1.421875 
Q 18.84375 -1.421875 12.171875 6.21875 
Q 5.515625 13.875 5.515625 27.296875 
Q 5.515625 40.765625 12.171875 48.375 
Q 18.84375 56 30.609375 56 
z
" id="DejaVuSans-6f"/>
      <path d="M 45.40625 27.984375 
Q 45.40625 37.75 41.375 43.109375 
Q 37.359375 48.484375 30.078125 48.484375 
Q 22.859375 48.484375 18.828125 43.109375 
Q 14.796875 37.75 14.796875 27.984375 
Q 14.796875 18.265625 18.828125 12.890625 
Q 22.859375 7.515625 30.078125 7.515625 
Q 37.359375 7.515625 41.375 12.890625 
Q 45.40625 18.265625 45.40625 27.984375 
z
M 54.390625 6.78125 
Q 54.390625 -7.171875 48.1875 -13.984375 
Q 42 -20.796875 29.203125 -20.796875 
Q 24.46875 -20.796875 20.265625 -20.09375 
Q 16.0625 -19.390625 12.109375 -17.921875 
L 12.109375 -9.1875 
Q 16.0625 -11.328125 19.921875 -12.34375 
Q 23.78125 -13.375 27.78125 -13.375 
Q 36.625 -13.375 41.015625 -8.765625 
Q 45.40625 -4.15625 45.40625 5.171875 
L 45.40625 9.625 
Q 42.625 4.78125 38.28125 2.390625 
Q 33.9375 0 27.875 0 
Q 17.828125 0 11.671875 7.65625 
Q 5.515625 15.328125 5.515625 27.984375 
Q 5.515625 40.671875 11.671875 48.328125 
Q 17.828125 56 27.875 56 
Q 33.9375 56 38.28125 53.609375 
Q 42.625 51.21875 45.40625 46.390625 
L 45.40625 54.6875 
L 54.390625 54.6875 
z
" id="DejaVuSans-67"/>
      <path d="M 12.40625 8.296875 
L 28.515625 8.296875 
L 28.515625 63.921875 
L 10.984375 60.40625 
L 10.984375 69.390625 
L 28.421875 72.90625 
L 38.28125 72.90625 
L 38.28125 8.296875 
L 54.390625 8.296875 
L 54.390625 0 
L 12.40625 0 
z
" id="DejaVuSans-31"/>
      <path d="M 31 75.875 
Q 24.46875 64.65625 21.28125 53.65625 
Q 18.109375 42.671875 18.109375 31.390625 
Q 18.109375 20.125 21.3125 9.0625 
Q 24.515625 -2 31 -13.1875 
L 23.1875 -13.1875 
Q 15.875 -1.703125 12.234375 9.375 
Q 8.59375 20.453125 8.59375 31.390625 
Q 8.59375 42.28125 12.203125 53.3125 
Q 15.828125 64.359375 23.1875 75.875 
z
" id="DejaVuSans-28"/>
      <path d="M 51.125 44 
L 36.921875 44 
L 32.8125 27.6875 
L 47.125 27.6875 
z
M 43.796875 71.78125 
L 38.71875 51.515625 
L 52.984375 51.515625 
L 58.109375 71.78125 
L 65.921875 71.78125 
L 60.890625 51.515625 
L 76.125 51.515625 
L 76.125 44 
L 58.984375 44 
L 54.984375 27.6875 
L 70.515625 27.6875 
L 70.515625 20.21875 
L 53.078125 20.21875 
L 48 0 
L 40.1875 0 
L 45.21875 20.21875 
L 30.90625 20.21875 
L 25.875 0 
L 18.015625 0 
L 23.09375 20.21875 
L 7.71875 20.21875 
L 7.71875 27.6875 
L 24.90625 27.6875 
L 29 44 
L 13.28125 44 
L 13.28125 51.515625 
L 30.90625 51.515625 
L 35.890625 71.78125 
z
" id="DejaVuSans-23"/>
      <path id="DejaVuSans-20"/>
      <path d="M 37.109375 75.984375 
L 37.109375 68.5 
L 28.515625 68.5 
Q 23.6875 68.5 21.796875 66.546875 
Q 19.921875 64.59375 19.921875 59.515625 
L 19.921875 54.6875 
L 34.71875 54.6875 
L 34.71875 47.703125 
L 19.921875 47.703125 
L 19.921875 0 
L 10.890625 0 
L 10.890625 47.703125 
L 2.296875 47.703125 
L 2.296875 54.6875 
L 10.890625 54.6875 
L 10.890625 58.5 
Q 10.890625 67.625 15.140625 71.796875 
Q 19.390625 75.984375 28.609375 75.984375 
z
" id="DejaVuSans-66"/>
      <path d="M 4.890625 31.390625 
L 31.203125 31.390625 
L 31.203125 23.390625 
L 4.890625 23.390625 
z
" id="DejaVuSans-2d"/>
      <path d="M 56.203125 29.59375 
L 56.203125 25.203125 
L 14.890625 25.203125 
Q 15.484375 15.921875 20.484375 11.0625 
Q 25.484375 6.203125 34.421875 6.203125 
Q 39.59375 6.203125 44.453125 7.46875 
Q 49.3125 8.734375 54.109375 11.28125 
L 54.109375 2.78125 
Q 49.265625 0.734375 44.1875 -0.34375 
Q 39.109375 -1.421875 33.890625 -1.421875 
Q 20.796875 -1.421875 13.15625 6.1875 
Q 5.515625 13.8125 5.515625 26.8125 
Q 5.515625 40.234375 12.765625 48.109375 
Q 20.015625 56 32.328125 56 
Q 43.359375 56 49.78125 48.890625 
Q 56.203125 41.796875 56.203125 29.59375 
z
M 47.21875 32.234375 
Q 47.125 39.59375 43.09375 43.984375 
Q 39.0625 48.390625 32.421875 48.390625 
Q 24.90625 48.390625 20.390625 44.140625 
Q 15.875 39.890625 15.1875 32.171875 
z
" id="DejaVuSans-65"/>
      <path d="M 2.984375 54.6875 
L 12.5 54.6875 
L 29.59375 8.796875 
L 46.6875 54.6875 
L 56.203125 54.6875 
L 35.6875 0 
L 23.484375 0 
z
" id="DejaVuSans-76"/>
      <path d="M 34.28125 27.484375 
Q 23.390625 27.484375 19.1875 25 
Q 14.984375 22.515625 14.984375 16.5 
Q 14.984375 11.71875 18.140625 8.90625 
Q 21.296875 6.109375 26.703125 6.109375 
Q 34.1875 6.109375 38.703125 11.40625 
Q 43.21875 16.703125 43.21875 25.484375 
L 43.21875 27.484375 
z
M 52.203125 31.203125 
L 52.203125 0 
L 43.21875 0 
L 43.21875 8.296875 
Q 40.140625 3.328125 35.546875 0.953125 
Q 30.953125 -1.421875 24.3125 -1.421875 
Q 15.921875 -1.421875 10.953125 3.296875 
Q 6 8.015625 6 15.921875 
Q 6 25.140625 12.171875 29.828125 
Q 18.359375 34.515625 30.609375 34.515625 
L 43.21875 34.515625 
L 43.21875 35.40625 
Q 43.21875 41.609375 39.140625 45 
Q 35.0625 48.390625 27.6875 48.390625 
Q 23 48.390625 18.546875 47.265625 
Q 14.109375 46.140625 10.015625 43.890625 
L 10.015625 52.203125 
Q 14.9375 54.109375 19.578125 55.046875 
Q 24.21875 56 28.609375 56 
Q 40.484375 56 46.34375 49.84375 
Q 52.203125 43.703125 52.203125 31.203125 
z
" id="DejaVuSans-61"/>
      <path d="M 44.28125 53.078125 
L 44.28125 44.578125 
Q 40.484375 46.53125 36.375 47.5 
Q 32.28125 48.484375 27.875 48.484375 
Q 21.1875 48.484375 17.84375 46.4375 
Q 14.5 44.390625 14.5 40.28125 
Q 14.5 37.15625 16.890625 35.375 
Q 19.28125 33.59375 26.515625 31.984375 
L 29.59375 31.296875 
Q 39.15625 29.25 43.1875 25.515625 
Q 47.21875 21.78125 47.21875 15.09375 
Q 47.21875 7.46875 41.1875 3.015625 
Q 35.15625 -1.421875 24.609375 -1.421875 
Q 20.21875 -1.421875 15.453125 -0.5625 
Q 10.6875 0.296875 5.421875 2 
L 5.421875 11.28125 
Q 10.40625 8.6875 15.234375 7.390625 
Q 20.0625 6.109375 24.8125 6.109375 
Q 31.15625 6.109375 34.5625 8.28125 
Q 37.984375 10.453125 37.984375 14.40625 
Q 37.984375 18.0625 35.515625 20.015625 
Q 33.0625 21.96875 24.703125 23.78125 
L 21.578125 24.515625 
Q 13.234375 26.265625 9.515625 29.90625 
Q 5.8125 33.546875 5.8125 39.890625 
Q 5.8125 47.609375 11.28125 51.796875 
Q 16.75 56 26.8125 56 
Q 31.78125 56 36.171875 55.265625 
Q 40.578125 54.546875 44.28125 53.078125 
z
" id="DejaVuSans-73"/>
      <path d="M 25.390625 72.90625 
L 33.6875 72.90625 
L 8.296875 -9.28125 
L 0 -9.28125 
z
" id="DejaVuSans-2f"/>
      <path d="M 45.40625 46.390625 
L 45.40625 75.984375 
L 54.390625 75.984375 
L 54.390625 0 
L 45.40625 0 
L 45.40625 8.203125 
Q 42.578125 3.328125 38.25 0.953125 
Q 33.9375 -1.421875 27.875 -1.421875 
Q 17.96875 -1.421875 11.734375 6.484375 
Q 5.515625 14.40625 5.515625 27.296875 
Q 5.515625 40.1875 11.734375 48.09375 
Q 17.96875 56 27.875 56 
Q 33.9375 56 38.25 53.625 
Q 42.578125 51.265625 45.40625 46.390625 
z
M 14.796875 27.296875 
Q 14.796875 17.390625 18.875 11.75 
Q 22.953125 6.109375 30.078125 6.109375 
Q 37.203125 6.109375 41.296875 11.75 
Q 45.40625 17.390625 45.40625 27.296875 
Q 45.40625 37.203125 41.296875 42.84375 
Q 37.203125 48.484375 30.078125 48.484375 
Q 22.953125 48.484375 18.875 42.84375 
Q 14.796875 37.203125 14.796875 27.296875 
z
" id="DejaVuSans-64"/>
      <path d="M 9.421875 54.6875 
L 18.40625 54.6875 
L 18.40625 0 
L 9.421875 0 
z
M 9.421875 75.984375 
L 18.40625 75.984375 
L 18.40625 64.59375 
L 9.421875 64.59375 
z
" id="DejaVuSans-69"/>
      <path d="M 52 44.1875 
Q 55.375 50.25 60.0625 53.125 
Q 64.75 56 71.09375 56 
Q 79.640625 56 84.28125 50.015625 
Q 88.921875 44.046875 88.921875 33.015625 
L 88.921875 0 
L 79.890625 0 
L 79.890625 32.71875 
Q 79.890625 40.578125 77.09375 44.375 
Q 74.3125 48.1875 68.609375 48.1875 
Q 61.625 48.1875 57.5625 43.546875 
Q 53.515625 38.921875 53.515625 30.90625 
L 53.515625 0 
L 44.484375 0 
L 44.484375 32.71875 
Q 44.484375 40.625 41.703125 44.40625 
Q 38.921875 48.1875 33.109375 48.1875 
Q 26.21875 48.1875 22.15625 43.53125 
Q 18.109375 38.875 18.109375 30.90625 
L 18.109375 0 
L 9.078125 0 
L 9.078125 54.6875 
L 18.109375 54.6875 
L 18.109375 46.1875 
Q 21.1875 51.21875 25.484375 53.609375 
Q 29.78125 56 35.6875 56 
Q 41.65625 56 45.828125 52.96875 
Q 50 49.953125 52 44.1875 
z
" id="DejaVuSans-6d"/>
      <path d="M 54.890625 33.015625 
L 54.890625 0 
L 45.90625 0 
L 45.90625 32.71875 
Q 45.90625 40.484375 42.875 44.328125 
Q 39.84375 48.1875 33.796875 48.1875 
Q 26.515625 48.1875 22.3125 43.546875 
Q 18.109375 38.921875 18.109375 30.90625 
L 18.109375 0 
L 9.078125 0 
L 9.078125 54.6875 
L 18.109375 54.6875 
L 18.109375 46.1875 
Q 21.34375 51.125 25.703125 53.5625 
Q 30.078125 56 35.796875 56 
Q 45.21875 56 50.046875 50.171875 
Q 54.890625 44.34375 54.890625 33.015625 
z
" id="DejaVuSans-6e"/>
      <path d="M 8.015625 75.875 
L 15.828125 75.875 
Q 23.140625 64.359375 26.78125 53.3125 
Q 30.421875 42.28125 30.421875 31.390625 
Q 30.421875 20.453125 26.78125 9.375 
Q 23.140625 -1.703125 15.828125 -13.1875 
L 8.015625 -13.1875 
Q 14.5 -2 17.703125 9.0625 
Q 20.90625 20.125 20.90625 31.390625 
Q 20.90625 42.671875 17.703125 53.65625 
Q 14.5 64.65625 8.015625 75.875 
z
" id="DejaVuSans-29"/>
     </defs>
     <g transform="translate(107.211219 338.153594)scale(0.17 -0.17)">
      <use xlink:href="#DejaVuSans-6c"/>
      <use x="27.783203" xlink:href="#DejaVuSans-6f"/>
      <use x="88.964844" xlink:href="#DejaVuSans-67"/>
      <use x="152.441406" xlink:href="#DejaVuSans-31"/>
      <use x="216.064453" xlink:href="#DejaVuSans-30"/>
      <use x="279.6875" xlink:href="#DejaVuSans-28"/>
      <use x="318.701172" xlink:href="#DejaVuSans-23"/>
      <use x="402.490234" xlink:href="#DejaVuSans-20"/>
      <use x="434.277344" xlink:href="#DejaVuSans-66"/>
      <use x="469.404297" xlink:href="#DejaVuSans-2d"/>
      <use x="505.488281" xlink:href="#DejaVuSans-65"/>
      <use x="567.011719" xlink:href="#DejaVuSans-76"/>
      <use x="626.191406" xlink:href="#DejaVuSans-61"/>
      <use x="687.470703" xlink:href="#DejaVuSans-6c"/>
      <use x="715.253906" xlink:href="#DejaVuSans-73"/>
      <use x="767.353516" xlink:href="#DejaVuSans-20"/>
      <use x="799.140625" xlink:href="#DejaVuSans-2f"/>
      <use x="832.832031" xlink:href="#DejaVuSans-20"/>
      <use x="864.619141" xlink:href="#DejaVuSans-64"/>
      <use x="928.095703" xlink:href="#DejaVuSans-69"/>
      <use x="955.878906" xlink:href="#DejaVuSans-6d"/>
      <use x="1053.291016" xlink:href="#DejaVuSans-65"/>
      <use x="1114.814453" xlink:href="#DejaVuSans-6e"/>
      <use x="1178.193359" xlink:href="#DejaVuSans-73"/>
      <use x="1230.292969" xlink:href="#DejaVuSans-69"/>
      <use x="1258.076172" xlink:href="#DejaVuSans-6f"/>
      <use x="1319.257812" xlink:href="#DejaVuSans-6e"/>
      <use x="1382.636719" xlink:href="#DejaVuSans-29"/>
     </g>
    </g>
   </g>
   <g id="matplotlib.axis_2">
    <g id="ytick_1">
     <g id="line2d_14">
      <path clip-path="url(#pe9a85c4386)" d="M 56.12 294.88 
L 399.984 294.88 
" style="fill:none;stroke:#b0b0b0;stroke-linecap:square;stroke-width:0.8;"/>
     </g>
     <g id="line2d_15">
      <defs>
       <path d="M 0 0 
L -3.5 0 
" id="m5809675d8e" style="stroke:#000000;stroke-width:0.8;"/>
      </defs>
      <g>
       <use style="stroke:#000000;stroke-width:0.8;" x="56.12" xlink:href="#m5809675d8e" y="294.88"/>
      </g>
     </g>
     <g id="text_7">
      <!-- 0.0 -->
      <defs>
       <path d="M 10.6875 12.40625 
L 21 12.40625 
L 21 0 
L 10.6875 0 
z
" id="DejaVuSans-2e"/>
      </defs>
      <g transform="translate(23.675 300.95875)scale(0.16 -0.16)">
       <use xlink:href="#DejaVuSans-30"/>
       <use x="63.623047" xlink:href="#DejaVuSans-2e"/>
       <use x="95.410156" xlink:href="#DejaVuSans-30"/>
      </g>
     </g>
    </g>
    <g id="ytick_2">
     <g id="line2d_16">
      <path clip-path="url(#pe9a85c4386)" d="M 56.12 241.406733 
L 399.984 241.406733 
" style="fill:none;stroke:#b0b0b0;stroke-linecap:square;stroke-width:0.8;"/>
     </g>
     <g id="line2d_17">
      <g>
       <use style="stroke:#000000;stroke-width:0.8;" x="56.12" xlink:href="#m5809675d8e" y="241.406733"/>
      </g>
     </g>
     <g id="text_8">
      <!-- 0.2 -->
      <g transform="translate(23.675 247.485483)scale(0.16 -0.16)">
       <use xlink:href="#DejaVuSans-30"/>
       <use x="63.623047" xlink:href="#DejaVuSans-2e"/>
       <use x="95.410156" xlink:href="#DejaVuSans-32"/>
      </g>
     </g>
    </g>
    <g id="ytick_3">
     <g id="line2d_18">
      <path clip-path="url(#pe9a85c4386)" d="M 56.12 187.933465 
L 399.984 187.933465 
" style="fill:none;stroke:#b0b0b0;stroke-linecap:square;stroke-width:0.8;"/>
     </g>
     <g id="line2d_19">
      <g>
       <use style="stroke:#000000;stroke-width:0.8;" x="56.12" xlink:href="#m5809675d8e" y="187.933465"/>
      </g>
     </g>
     <g id="text_9">
      <!-- 0.4 -->
      <g transform="translate(23.675 194.012215)scale(0.16 -0.16)">
       <use xlink:href="#DejaVuSans-30"/>
       <use x="63.623047" xlink:href="#DejaVuSans-2e"/>
       <use x="95.410156" xlink:href="#DejaVuSans-34"/>
      </g>
     </g>
    </g>
    <g id="ytick_4">
     <g id="line2d_20">
      <path clip-path="url(#pe9a85c4386)" d="M 56.12 134.460198 
L 399.984 134.460198 
" style="fill:none;stroke:#b0b0b0;stroke-linecap:square;stroke-width:0.8;"/>
     </g>
     <g id="line2d_21">
      <g>
       <use style="stroke:#000000;stroke-width:0.8;" x="56.12" xlink:href="#m5809675d8e" y="134.460198"/>
      </g>
     </g>
     <g id="text_10">
      <!-- 0.6 -->
      <g transform="translate(23.675 140.538948)scale(0.16 -0.16)">
       <use xlink:href="#DejaVuSans-30"/>
       <use x="63.623047" xlink:href="#DejaVuSans-2e"/>
       <use x="95.410156" xlink:href="#DejaVuSans-36"/>
      </g>
     </g>
    </g>
    <g id="ytick_5">
     <g id="line2d_22">
      <path clip-path="url(#pe9a85c4386)" d="M 56.12 80.986931 
L 399.984 80.986931 
" style="fill:none;stroke:#b0b0b0;stroke-linecap:square;stroke-width:0.8;"/>
     </g>
     <g id="line2d_23">
      <g>
       <use style="stroke:#000000;stroke-width:0.8;" x="56.12" xlink:href="#m5809675d8e" y="80.986931"/>
      </g>
     </g>
     <g id="text_11">
      <!-- 0.8 -->
      <g transform="translate(23.675 87.065681)scale(0.16 -0.16)">
       <use xlink:href="#DejaVuSans-30"/>
       <use x="63.623047" xlink:href="#DejaVuSans-2e"/>
       <use x="95.410156" xlink:href="#DejaVuSans-38"/>
      </g>
     </g>
    </g>
    <g id="ytick_6">
     <g id="line2d_24">
      <path clip-path="url(#pe9a85c4386)" d="M 56.12 27.513663 
L 399.984 27.513663 
" style="fill:none;stroke:#b0b0b0;stroke-linecap:square;stroke-width:0.8;"/>
     </g>
     <g id="line2d_25">
      <g>
       <use style="stroke:#000000;stroke-width:0.8;" x="56.12" xlink:href="#m5809675d8e" y="27.513663"/>
      </g>
     </g>
     <g id="text_12">
      <!-- 1.0 -->
      <g transform="translate(23.675 33.592413)scale(0.16 -0.16)">
       <use xlink:href="#DejaVuSans-31"/>
       <use x="63.623047" xlink:href="#DejaVuSans-2e"/>
       <use x="95.410156" xlink:href="#DejaVuSans-30"/>
      </g>
     </g>
    </g>
    <g id="text_13">
     <!-- Fraction of function,target pairs -->
     <defs>
      <path d="M 9.8125 72.90625 
L 51.703125 72.90625 
L 51.703125 64.59375 
L 19.671875 64.59375 
L 19.671875 43.109375 
L 48.578125 43.109375 
L 48.578125 34.8125 
L 19.671875 34.8125 
L 19.671875 0 
L 9.8125 0 
z
" id="DejaVuSans-46"/>
      <path d="M 41.109375 46.296875 
Q 39.59375 47.171875 37.8125 47.578125 
Q 36.03125 48 33.890625 48 
Q 26.265625 48 22.1875 43.046875 
Q 18.109375 38.09375 18.109375 28.8125 
L 18.109375 0 
L 9.078125 0 
L 9.078125 54.6875 
L 18.109375 54.6875 
L 18.109375 46.1875 
Q 20.953125 51.171875 25.484375 53.578125 
Q 30.03125 56 36.53125 56 
Q 37.453125 56 38.578125 55.875 
Q 39.703125 55.765625 41.0625 55.515625 
z
" id="DejaVuSans-72"/>
      <path d="M 48.78125 52.59375 
L 48.78125 44.1875 
Q 44.96875 46.296875 41.140625 47.34375 
Q 37.3125 48.390625 33.40625 48.390625 
Q 24.65625 48.390625 19.8125 42.84375 
Q 14.984375 37.3125 14.984375 27.296875 
Q 14.984375 17.28125 19.8125 11.734375 
Q 24.65625 6.203125 33.40625 6.203125 
Q 37.3125 6.203125 41.140625 7.25 
Q 44.96875 8.296875 48.78125 10.40625 
L 48.78125 2.09375 
Q 45.015625 0.34375 40.984375 -0.53125 
Q 36.96875 -1.421875 32.421875 -1.421875 
Q 20.0625 -1.421875 12.78125 6.34375 
Q 5.515625 14.109375 5.515625 27.296875 
Q 5.515625 40.671875 12.859375 48.328125 
Q 20.21875 56 33.015625 56 
Q 37.15625 56 41.109375 55.140625 
Q 45.0625 54.296875 48.78125 52.59375 
z
" id="DejaVuSans-63"/>
      <path d="M 18.3125 70.21875 
L 18.3125 54.6875 
L 36.8125 54.6875 
L 36.8125 47.703125 
L 18.3125 47.703125 
L 18.3125 18.015625 
Q 18.3125 11.328125 20.140625 9.421875 
Q 21.96875 7.515625 27.59375 7.515625 
L 36.8125 7.515625 
L 36.8125 0 
L 27.59375 0 
Q 17.1875 0 13.234375 3.875 
Q 9.28125 7.765625 9.28125 18.015625 
L 9.28125 47.703125 
L 2.6875 47.703125 
L 2.6875 54.6875 
L 9.28125 54.6875 
L 9.28125 70.21875 
z
" id="DejaVuSans-74"/>
      <path d="M 8.5 21.578125 
L 8.5 54.6875 
L 17.484375 54.6875 
L 17.484375 21.921875 
Q 17.484375 14.15625 20.5 10.265625 
Q 23.53125 6.390625 29.59375 6.390625 
Q 36.859375 6.390625 41.078125 11.03125 
Q 45.3125 15.671875 45.3125 23.6875 
L 45.3125 54.6875 
L 54.296875 54.6875 
L 54.296875 0 
L 45.3125 0 
L 45.3125 8.40625 
Q 42.046875 3.421875 37.71875 1 
Q 33.40625 -1.421875 27.6875 -1.421875 
Q 18.265625 -1.421875 13.375 4.4375 
Q 8.5 10.296875 8.5 21.578125 
z
M 31.109375 56 
z
" id="DejaVuSans-75"/>
      <path d="M 11.71875 12.40625 
L 22.015625 12.40625 
L 22.015625 4 
L 14.015625 -11.625 
L 7.71875 -11.625 
L 11.71875 4 
z
" id="DejaVuSans-2c"/>
      <path d="M 18.109375 8.203125 
L 18.109375 -20.796875 
L 9.078125 -20.796875 
L 9.078125 54.6875 
L 18.109375 54.6875 
L 18.109375 46.390625 
Q 20.953125 51.265625 25.265625 53.625 
Q 29.59375 56 35.59375 56 
Q 45.5625 56 51.78125 48.09375 
Q 58.015625 40.1875 58.015625 27.296875 
Q 58.015625 14.40625 51.78125 6.484375 
Q 45.5625 -1.421875 35.59375 -1.421875 
Q 29.59375 -1.421875 25.265625 0.953125 
Q 20.953125 3.328125 18.109375 8.203125 
z
M 48.6875 27.296875 
Q 48.6875 37.203125 44.609375 42.84375 
Q 40.53125 48.484375 33.40625 48.484375 
Q 26.265625 48.484375 22.1875 42.84375 
Q 18.109375 37.203125 18.109375 27.296875 
Q 18.109375 17.390625 22.1875 11.75 
Q 26.265625 6.109375 33.40625 6.109375 
Q 40.53125 6.109375 44.609375 11.75 
Q 48.6875 17.390625 48.6875 27.296875 
z
" id="DejaVuSans-70"/>
     </defs>
     <g transform="translate(16.139531 294.999375)rotate(-90)scale(0.17 -0.17)">
      <use xlink:href="#DejaVuSans-46"/>
      <use x="57.410156" xlink:href="#DejaVuSans-72"/>
      <use x="98.523438" xlink:href="#DejaVuSans-61"/>
      <use x="159.802734" xlink:href="#DejaVuSans-63"/>
      <use x="214.783203" xlink:href="#DejaVuSans-74"/>
      <use x="253.992188" xlink:href="#DejaVuSans-69"/>
      <use x="281.775391" xlink:href="#DejaVuSans-6f"/>
      <use x="342.957031" xlink:href="#DejaVuSans-6e"/>
      <use x="406.335938" xlink:href="#DejaVuSans-20"/>
      <use x="438.123047" xlink:href="#DejaVuSans-6f"/>
      <use x="499.304688" xlink:href="#DejaVuSans-66"/>
      <use x="534.509766" xlink:href="#DejaVuSans-20"/>
      <use x="566.296875" xlink:href="#DejaVuSans-66"/>
      <use x="601.501953" xlink:href="#DejaVuSans-75"/>
      <use x="664.880859" xlink:href="#DejaVuSans-6e"/>
      <use x="728.259766" xlink:href="#DejaVuSans-63"/>
      <use x="783.240234" xlink:href="#DejaVuSans-74"/>
      <use x="822.449219" xlink:href="#DejaVuSans-69"/>
      <use x="850.232422" xlink:href="#DejaVuSans-6f"/>
      <use x="911.414062" xlink:href="#DejaVuSans-6e"/>
      <use x="974.792969" xlink:href="#DejaVuSans-2c"/>
      <use x="1006.580078" xlink:href="#DejaVuSans-74"/>
      <use x="1045.789062" xlink:href="#DejaVuSans-61"/>
      <use x="1107.068359" xlink:href="#DejaVuSans-72"/>
      <use x="1148.166016" xlink:href="#DejaVuSans-67"/>
      <use x="1211.642578" xlink:href="#DejaVuSans-65"/>
      <use x="1273.166016" xlink:href="#DejaVuSans-74"/>
      <use x="1312.375" xlink:href="#DejaVuSans-20"/>
      <use x="1344.162109" xlink:href="#DejaVuSans-70"/>
      <use x="1407.638672" xlink:href="#DejaVuSans-61"/>
      <use x="1468.917969" xlink:href="#DejaVuSans-69"/>
      <use x="1496.701172" xlink:href="#DejaVuSans-72"/>
      <use x="1537.814453" xlink:href="#DejaVuSans-73"/>
     </g>
    </g>
   </g>
   <g id="line2d_26">
    <defs>
     <path d="M 0 1.5 
C 0.397805 1.5 0.77937 1.341951 1.06066 1.06066 
C 1.341951 0.77937 1.5 0.397805 1.5 0 
C 1.5 -0.397805 1.341951 -0.77937 1.06066 -1.06066 
C 0.77937 -1.341951 0.397805 -1.5 0 -1.5 
C -0.397805 -1.5 -0.77937 -1.341951 -1.06066 -1.06066 
C -1.341951 -0.77937 -1.5 -0.397805 -1.5 0 
C -1.5 0.397805 -1.341951 0.77937 -1.06066 1.06066 
C -0.77937 1.341951 -0.397805 1.5 0 1.5 
z
" id="m15bbb5c280" style="stroke:#f5deb3;"/>
    </defs>
    <g>
     <use style="fill:#f5deb3;stroke:#f5deb3;" x="293.690344" xlink:href="#m15bbb5c280" y="170.416361"/>
     <use style="fill:#f5deb3;stroke:#f5deb3;" x="293.690344" xlink:href="#m15bbb5c280" y="170.416361"/>
    </g>
   </g>
   <g id="line2d_27">
    <g>
     <use style="fill:#f5deb3;stroke:#f5deb3;stroke-linejoin:miter;stroke-width:1.5;" x="150.338222" xlink:href="#m74d8b6b947" y="290.270236"/>
     <use style="fill:#f5deb3;stroke:#f5deb3;stroke-linejoin:miter;stroke-width:1.5;" x="254.263458" xlink:href="#m74d8b6b947" y="253.39212"/>
     <use style="fill:#f5deb3;stroke:#f5deb3;stroke-linejoin:miter;stroke-width:1.5;" x="278.130064" xlink:href="#m74d8b6b947" y="198.074947"/>
     <use style="fill:#f5deb3;stroke:#f5deb3;stroke-linejoin:miter;stroke-width:1.5;" x="293.690344" xlink:href="#m74d8b6b947" y="170.416361"/>
     <use style="fill:#f5deb3;stroke:#f5deb3;stroke-linejoin:miter;stroke-width:1.5;" x="293.690344" xlink:href="#m74d8b6b947" y="170.416361"/>
     <use style="fill:#f5deb3;stroke:#f5deb3;stroke-linejoin:miter;stroke-width:1.5;" x="333.429677" xlink:href="#m74d8b6b947" y="170.416361"/>
    </g>
   </g>
   <g id="line2d_28">
    <defs>
     <path d="M 0 1.5 
C 0.397805 1.5 0.77937 1.341951 1.06066 1.06066 
C 1.341951 0.77937 1.5 0.397805 1.5 0 
C 1.5 -0.397805 1.341951 -0.77937 1.06066 -1.06066 
C 0.77937 -1.341951 0.397805 -1.5 0 -1.5 
C -0.397805 -1.5 -0.77937 -1.341951 -1.06066 -1.06066 
C -1.341951 -0.77937 -1.5 -0.397805 -1.5 0 
C -1.5 0.397805 -1.341951 0.77937 -1.06066 1.06066 
C -0.77937 1.341951 -0.397805 1.5 0 1.5 
z
" id="m5d696da0e2" style="stroke:#999999;"/>
    </defs>
    <g>
     <use style="fill:#999999;stroke:#999999;" x="314.167569" xlink:href="#m5d696da0e2" y="248.782356"/>
     <use style="fill:#999999;stroke:#999999;" x="314.167569" xlink:href="#m5d696da0e2" y="248.782356"/>
    </g>
   </g>
   <g id="line2d_29">
    <path d="M -1 290.731212 
L 111.551865 290.731212 
L 111.551865 290.270236 
L 132.836286 290.270236 
L 132.836286 289.809259 
L 151.174393 289.809259 
L 151.174393 288.887306 
L 157.413511 288.887306 
L 157.413511 288.42633 
L 163.300199 288.42633 
L 163.361949 286.582424 
L 176.522135 286.582424 
L 176.522135 286.121448 
L 178.623162 286.121448 
L 178.623162 285.660471 
L 178.831947 285.660471 
L 178.831947 285.199495 
L 189.66674 285.199495 
L 189.66674 284.738518 
L 195.281302 284.738518 
L 195.281302 284.277542 
L 197.947287 284.277542 
L 197.947287 283.355589 
L 200.613998 283.355589 
L 200.613998 282.433636 
L 201.314083 282.433636 
L 201.314083 281.97266 
L 207.277846 281.97266 
L 207.277846 281.511683 
L 220.728712 281.511683 
L 220.728712 281.050707 
L 221.024811 281.050707 
L 221.024811 279.667777 
L 221.30601 279.667777 
L 221.30601 278.745825 
L 224.136227 278.745825 
L 224.136227 278.284848 
L 226.622147 278.284848 
L 226.622147 277.823872 
L 230.336713 277.823872 
L 230.336713 277.362895 
L 230.597114 277.362895 
L 230.597114 276.901919 
L 245.194567 276.901919 
L 245.194567 276.440942 
L 246.50838 276.440942 
L 246.542047 273.675084 
L 250.407839 273.675084 
L 250.407839 272.292154 
L 254.598524 272.292154 
L 254.598524 271.831178 
L 256.497403 271.831178 
L 256.534713 270.909225 
L 258.035858 270.909225 
L 258.035858 270.448249 
L 260.042547 270.448249 
L 260.042547 269.987272 
L 262.728342 269.987272 
L 262.728342 269.526296 
L 266.231757 269.526296 
L 266.325385 268.604343 
L 267.312026 268.604343 
L 267.312034 267.68239 
L 268.149629 267.68239 
L 268.149629 267.221413 
L 269.293141 267.221413 
L 269.293141 266.760437 
L 270.912384 266.760437 
L 270.912384 266.299461 
L 273.901176 266.299461 
L 273.901176 265.838484 
L 274.217883 265.838484 
L 274.217883 265.377508 
L 275.078029 265.377508 
L 275.078029 264.916531 
L 278.150694 264.916531 
L 278.150694 264.455555 
L 278.653965 264.455555 
L 278.664279 263.072625 
L 278.894775 263.072625 
L 278.894775 262.611649 
L 281.932113 262.611649 
L 281.932113 262.150673 
L 282.382283 262.150673 
L 282.382316 261.22872 
L 283.966657 261.22872 
L 283.966657 260.767743 
L 285.437877 260.767743 
L 285.437877 260.306767 
L 285.727773 260.306767 
L 285.72779 259.384814 
L 286.774155 259.384814 
L 286.774155 258.923837 
L 288.03176 258.923837 
L 288.031778 257.540908 
L 290.285341 257.540908 
L 290.285341 257.079932 
L 290.504502 257.079932 
L 290.504502 256.618955 
L 294.062951 256.618955 
L 294.062951 256.157979 
L 297.155105 256.157979 
L 297.158634 254.77505 
L 298.519894 254.77505 
L 298.519894 254.314073 
L 299.157543 254.314073 
L 299.157543 253.853097 
L 299.778293 253.853097 
L 299.778293 253.39212 
L 300.956539 253.39212 
L 300.956539 252.931144 
L 304.164523 252.931144 
L 304.164523 252.470167 
L 305.082346 252.470167 
L 305.082346 252.009191 
L 305.953681 252.009191 
L 305.953681 251.548214 
L 306.698247 251.548214 
L 306.698247 251.087238 
L 307.491296 251.087238 
L 307.491296 250.626262 
L 308.251262 250.626262 
L 308.251262 250.165285 
L 308.980829 250.165285 
L 308.980829 249.704309 
L 309.750315 249.704309 
L 309.750315 249.243332 
L 314.167569 249.243332 
L 314.167569 248.782356 
L 333.429677 248.782356 
L 333.429677 248.782356 
" style="fill:none;stroke:#999999;stroke-linecap:square;stroke-width:1.5;"/>
   </g>
   <g id="line2d_30"/>
   <g id="line2d_31">
    <path d="M 0 0 
" style="fill:none;stroke:#999999;stroke-linecap:square;stroke-width:1.5;"/>
   </g>
   <g id="line2d_32">
    <path clip-path="url(#pe9a85c4386)" d="M 254.198909 272.292154 
" style="fill:none;stroke:#999999;stroke-linecap:square;stroke-width:1.5;"/>
    <defs>
     <path d="M -12 12 
L 12 -12 
M -12 -12 
L 12 12 
" id="m5012221d36" style="stroke:#999999;stroke-width:3;"/>
    </defs>
    <g clip-path="url(#pe9a85c4386)">
     <use style="fill:#999999;stroke:#999999;stroke-width:3;" x="254.198909" xlink:href="#m5012221d36" y="272.292154"/>
    </g>
   </g>
   <g id="line2d_33">
    <path clip-path="url(#pe9a85c4386)" d="M 56.12 294.88 
L 56.12 294.88 
L 56.12 294.88 
L 56.12 294.88 
L 399.984 294.88 
" style="fill:none;stroke:#999999;stroke-linecap:square;stroke-width:1.5;"/>
   </g>
   <g id="line2d_34"/>
   <g id="line2d_35">
    <path clip-path="url(#pe9a85c4386)" d="M 0 0 
" style="fill:none;stroke:#999999;stroke-linecap:square;stroke-width:1.5;"/>
   </g>
   <g id="line2d_36">
    <g>
     <use style="fill:#999999;stroke:#999999;" x="301.91823" xlink:href="#m5d696da0e2" y="285.660471"/>
     <use style="fill:#999999;stroke:#999999;" x="301.91823" xlink:href="#m5d696da0e2" y="285.660471"/>
    </g>
   </g>
   <g id="line2d_37">
    <path d="M -1 293.497071 
L 4.578827 293.497071 
L 4.578827 293.036094 
L 11.5548 293.036094 
L 11.5548 292.114141 
L 16.504332 292.114141 
L 16.504332 290.270236 
L 249.812543 290.270236 
L 249.812543 289.348283 
L 254.482071 289.348283 
L 254.482071 288.42633 
L 261.755183 288.42633 
L 261.755183 287.965353 
L 270.31387 287.965353 
L 270.31387 287.0434 
L 273.194916 287.0434 
L 273.194916 286.582424 
L 294.737629 286.582424 
L 294.737629 286.121448 
L 301.91823 286.121448 
L 301.91823 285.660471 
L 333.429677 285.660471 
" style="fill:none;stroke:#999999;stroke-linecap:square;stroke-width:1.5;"/>
   </g>
   <g id="line2d_38"/>
   <g id="line2d_39">
    <path d="M 0 0 
" style="fill:none;stroke:#999999;stroke-linecap:square;stroke-width:1.5;"/>
   </g>
   <g id="line2d_40">
    <path clip-path="url(#pe9a85c4386)" d="M 254.198341 289.348283 
" style="fill:none;stroke:#999999;stroke-linecap:square;stroke-width:1.5;"/>
    <g clip-path="url(#pe9a85c4386)">
     <use style="fill:#999999;stroke:#999999;stroke-width:3;" x="254.198341" xlink:href="#m5012221d36" y="289.348283"/>
    </g>
   </g>
   <g id="line2d_41">
    <g>
     <use style="fill:#999999;stroke:#999999;" x="336.609999" xlink:href="#m5d696da0e2" y="285.660471"/>
     <use style="fill:#999999;stroke:#999999;" x="336.609999" xlink:href="#m5d696da0e2" y="285.660471"/>
    </g>
   </g>
   <g id="line2d_42">
    <path d="M -1 293.497071 
L 20.343487 293.497071 
L 20.343487 292.114141 
L 28.429836 292.114141 
L 28.429836 290.731212 
L 79.424777 290.731212 
L 79.424777 290.270236 
L 265.478783 290.270236 
L 265.478783 289.809259 
L 293.767578 289.809259 
L 293.767578 288.887306 
L 305.716314 288.887306 
L 305.716314 288.42633 
L 307.32166 288.42633 
L 307.32166 287.965353 
L 318.474271 287.965353 
L 318.474271 287.504377 
L 324.633261 287.504377 
L 324.633261 286.582424 
L 327.367643 286.582424 
L 327.367643 286.121448 
L 333.429677 286.121448 
" style="fill:none;stroke:#999999;stroke-linecap:square;stroke-width:1.5;"/>
   </g>
   <g id="line2d_43"/>
   <g id="line2d_44">
    <path d="M 0 0 
" style="fill:none;stroke:#999999;stroke-linecap:square;stroke-width:1.5;"/>
   </g>
   <g id="line2d_45">
    <path clip-path="url(#pe9a85c4386)" d="M 293.814009 288.887306 
" style="fill:none;stroke:#999999;stroke-linecap:square;stroke-width:1.5;"/>
    <g clip-path="url(#pe9a85c4386)">
     <use style="fill:#999999;stroke:#999999;stroke-width:3;" x="293.814009" xlink:href="#m5012221d36" y="288.887306"/>
    </g>
   </g>
   <g id="line2d_46">
    <g>
     <use style="fill:#999999;stroke:#999999;" x="320.220091" xlink:href="#m5d696da0e2" y="170.416361"/>
     <use style="fill:#999999;stroke:#999999;" x="320.220091" xlink:href="#m5d696da0e2" y="170.416361"/>
    </g>
   </g>
   <g id="line2d_47">
    <path d="M 137.785817 294.88 
L 137.785817 294.419024 
L 139.645511 294.419024 
L 139.645511 293.497071 
L 139.898333 293.497071 
L 139.898333 293.036094 
L 140.864666 293.036094 
L 140.864666 292.575118 
L 141.72623 292.575118 
L 141.72623 292.114141 
L 142.682061 292.114141 
L 142.682061 290.270236 
L 145.480846 290.270236 
L 145.480846 289.809259 
L 145.909929 289.809259 
L 145.909929 289.348283 
L 146.810343 289.348283 
L 146.810343 288.887306 
L 147.418199 288.887306 
L 147.433123 287.0434 
L 147.583774 287.0434 
L 147.583774 286.582424 
L 148.077309 286.582424 
L 148.175565 285.199495 
L 148.475033 285.199495 
L 148.475033 283.816565 
L 148.612889 283.816565 
L 148.612889 283.355589 
L 148.771351 283.355589 
L 148.771351 281.97266 
L 149.521729 281.97266 
L 149.521729 280.58973 
L 149.735574 280.58973 
L 149.735574 280.128754 
L 150.202686 280.128754 
L 150.237123 278.745825 
L 150.34722 278.745825 
L 150.453042 277.823872 
L 150.848979 277.823872 
L 150.848979 277.362895 
L 151.015917 277.362895 
L 151.015917 276.901919 
L 151.241135 276.901919 
L 151.241135 276.440942 
L 151.355193 276.440942 
L 151.355193 275.979966 
L 151.622881 275.979966 
L 151.622881 275.518989 
L 151.736104 275.518989 
L 151.736104 274.13606 
L 151.960339 274.13606 
L 152.015944 272.753131 
L 153.139378 272.753131 
L 153.139378 271.831178 
L 153.288629 271.831178 
L 153.288629 271.370201 
L 153.444112 271.370201 
L 153.444112 270.448249 
L 153.624989 270.448249 
L 153.624989 269.987272 
L 153.821635 269.987272 
L 153.922776 268.604343 
L 154.55693 268.604343 
L 154.55693 267.221413 
L 154.694424 267.221413 
L 154.694424 266.760437 
L 154.901388 266.760437 
L 154.996393 263.994578 
L 155.788023 263.994578 
L 155.788023 262.611649 
L 156.124353 262.611649 
L 156.124353 262.150673 
L 156.713411 262.150673 
L 156.807596 260.767743 
L 156.998101 260.767743 
L 156.998101 258.923837 
L 157.192563 258.923837 
L 157.192563 258.462861 
L 158.55034 258.462861 
L 158.55034 257.540908 
L 158.741371 257.540908 
L 158.741371 256.618955 
L 159.962737 256.618955 
L 160.02538 254.314073 
L 160.314066 254.314073 
L 160.314066 252.931144 
L 161.126208 252.931144 
L 161.126208 252.470167 
L 161.608801 252.470167 
L 161.622819 250.165285 
L 162.68777 250.165285 
L 162.68777 248.782356 
L 164.915097 248.782356 
L 164.915097 247.860403 
L 165.713293 247.860403 
L 165.713293 247.399426 
L 165.952462 247.399426 
L 165.952462 246.477474 
L 171.193319 246.477474 
L 171.193319 246.016497 
L 171.733223 246.016497 
L 171.733223 244.172591 
L 178.261171 244.172591 
L 178.261171 243.711615 
L 193.63071 243.711615 
L 193.63071 243.250638 
L 205.171811 243.250638 
L 205.171811 242.328686 
L 219.555018 242.328686 
L 219.555018 241.867709 
L 238.609836 241.867709 
L 238.609836 241.406733 
L 254.243457 241.406733 
L 254.340322 226.19451 
L 254.405445 226.19451 
L 254.502317 225.272557 
L 254.700017 225.272557 
L 254.700017 224.350604 
L 259.319036 224.350604 
L 259.319036 222.967675 
L 260.037815 222.967675 
L 260.037815 220.201816 
L 265.496433 220.201816 
L 265.496433 219.279863 
L 266.14871 219.279863 
L 266.227709 209.599358 
L 266.276505 209.599358 
L 266.376512 208.677405 
L 269.290148 208.677405 
L 269.290148 208.216429 
L 273.122137 208.216429 
L 273.145811 204.989594 
L 273.428534 204.989594 
L 273.530078 204.067641 
L 273.848945 204.067641 
L 273.848945 203.606664 
L 275.274051 203.606664 
L 275.274051 203.145688 
L 278.063087 203.145688 
L 278.10136 197.613971 
L 278.176147 197.613971 
L 278.176147 197.152994 
L 278.614231 197.152994 
L 278.614231 196.692018 
L 279.479321 196.692018 
L 279.479321 196.231041 
L 279.705238 196.231041 
L 279.705238 195.770065 
L 281.908869 195.770065 
L 281.990017 193.465183 
L 282.086487 193.465183 
L 282.086487 192.54323 
L 283.041832 192.54323 
L 283.041832 192.082253 
L 283.22572 192.082253 
L 283.22572 191.621277 
L 285.034911 191.621277 
L 285.109958 189.777371 
L 285.403963 189.777371 
L 285.403963 189.316395 
L 285.991718 189.316395 
L 285.991718 188.855418 
L 287.687949 188.855418 
L 287.697191 187.933465 
L 288.002521 187.933465 
L 288.002521 187.472489 
L 289.987585 187.472489 
L 289.992116 186.550536 
L 290.259613 186.550536 
L 290.259613 185.628583 
L 292.017129 185.628583 
L 292.111567 184.70663 
L 292.651552 184.70663 
L 292.756984 183.323701 
L 293.82826 183.323701 
L 293.82826 182.862724 
L 295.341422 182.862724 
L 295.341422 181.479795 
L 296.847834 181.479795 
L 296.847834 181.018819 
L 296.962704 181.018819 
L 296.962704 180.557842 
L 297.141189 180.557842 
L 297.141189 180.096866 
L 297.440809 180.096866 
L 297.520682 179.174913 
L 298.338576 179.174913 
L 298.338915 178.25296 
L 298.854635 178.25296 
L 298.854635 177.331007 
L 299.613149 177.331007 
L 299.613149 176.870031 
L 300.707637 176.870031 
L 300.707637 175.948078 
L 302.951523 175.948078 
L 302.961428 175.026125 
L 303.29071 175.026125 
L 303.29071 174.565149 
L 304.255 174.565149 
L 304.255 174.104172 
L 305.677792 174.104172 
L 305.677792 173.643196 
L 305.853983 173.643196 
L 305.853983 173.182219 
L 306.083687 173.182219 
L 306.083687 172.721243 
L 309.854556 172.721243 
L 309.854556 172.260266 
L 311.610315 172.260266 
L 311.610315 171.79929 
L 314.041777 171.79929 
L 314.041777 171.338313 
L 316.290365 171.338313 
L 316.290365 170.877337 
L 320.220091 170.877337 
L 320.220091 170.416361 
L 333.429677 170.416361 
L 333.429677 170.416361 
" style="fill:none;stroke:#999999;stroke-linecap:square;stroke-width:1.5;"/>
   </g>
   <g id="line2d_48"/>
   <g id="line2d_49">
    <path d="M 0 0 
" style="fill:none;stroke:#999999;stroke-linecap:square;stroke-width:1.5;"/>
   </g>
   <g id="line2d_50">
    <path clip-path="url(#pe9a85c4386)" d="M 254.198341 241.406733 
" style="fill:none;stroke:#999999;stroke-linecap:square;stroke-width:1.5;"/>
    <g clip-path="url(#pe9a85c4386)">
     <use style="fill:#999999;stroke:#999999;stroke-width:3;" x="254.198341" xlink:href="#m5012221d36" y="241.406733"/>
    </g>
   </g>
   <g id="line2d_51">
    <g>
     <use style="fill:#999999;stroke:#999999;" x="315.988327" xlink:href="#m5d696da0e2" y="267.221413"/>
     <use style="fill:#999999;stroke:#999999;" x="315.988327" xlink:href="#m5d696da0e2" y="267.221413"/>
    </g>
   </g>
   <g id="line2d_52">
    <path d="M 152.625484 294.88 
L 152.625484 294.419024 
L 155.394078 294.419024 
L 155.394078 293.036094 
L 155.592841 293.036094 
L 155.592841 292.114141 
L 156.518453 292.114141 
L 156.518453 291.653165 
L 158.36168 291.653165 
L 158.36168 291.192188 
L 161.681572 291.192188 
L 161.681572 290.731212 
L 165.711084 290.731212 
L 165.711084 290.270236 
L 167.918835 290.270236 
L 167.918835 288.887306 
L 170.239695 288.887306 
L 170.239695 287.504377 
L 172.005639 287.504377 
L 172.005639 287.0434 
L 199.823362 287.0434 
L 199.823362 286.582424 
L 216.833525 286.582424 
L 216.833525 286.121448 
L 229.795363 286.121448 
L 229.795363 285.199495 
L 232.551371 285.199495 
L 232.551371 284.277542 
L 232.590529 284.277542 
L 232.590529 283.355589 
L 254.353507 283.355589 
L 254.353507 281.97266 
L 254.368892 281.97266 
L 254.368892 281.511683 
L 254.372827 281.511683 
L 254.372827 281.050707 
L 258.406188 281.050707 
L 258.406188 279.667777 
L 258.501475 279.667777 
L 258.501475 278.745825 
L 258.522486 278.745825 
L 258.522486 277.823872 
L 266.196119 277.823872 
L 266.196119 276.901919 
L 266.201605 276.901919 
L 266.201605 276.440942 
L 266.209334 276.440942 
L 266.209334 275.979966 
L 266.211312 275.979966 
L 266.211312 275.518989 
L 268.356092 275.518989 
L 268.356092 275.058013 
L 279.232759 275.058013 
L 279.232759 274.597037 
L 282.841656 274.597037 
L 282.841656 274.13606 
L 282.844656 274.13606 
L 282.844656 273.675084 
L 285.051285 273.675084 
L 285.051285 273.214107 
L 287.702503 273.214107 
L 287.702503 272.753131 
L 288.362104 272.753131 
L 288.362104 272.292154 
L 288.36581 272.292154 
L 288.36581 271.831178 
L 290.576734 271.831178 
L 290.576734 271.370201 
L 290.578648 271.370201 
L 290.578648 270.909225 
L 293.828492 270.909225 
L 293.828492 270.448249 
L 295.893617 270.448249 
L 295.893617 269.987272 
L 298.702019 269.987272 
L 298.702019 269.526296 
L 299.950586 269.526296 
L 299.950586 269.065319 
L 303.230179 269.065319 
L 303.230179 268.604343 
L 306.811467 268.604343 
L 306.811467 268.143366 
L 312.300368 268.143366 
L 312.300368 267.68239 
L 315.988327 267.68239 
L 315.988327 267.221413 
L 333.429677 267.221413 
" style="fill:none;stroke:#999999;stroke-linecap:square;stroke-width:1.5;"/>
   </g>
   <g id="line2d_53"/>
   <g id="line2d_54">
    <path d="M 0 0 
" style="fill:none;stroke:#999999;stroke-linecap:square;stroke-width:1.5;"/>
   </g>
   <g id="line2d_55">
    <path clip-path="url(#pe9a85c4386)" d="M 254.198345 283.355589 
" style="fill:none;stroke:#999999;stroke-linecap:square;stroke-width:1.5;"/>
    <g clip-path="url(#pe9a85c4386)">
     <use style="fill:#999999;stroke:#999999;stroke-width:3;" x="254.198345" xlink:href="#m5012221d36" y="283.355589"/>
    </g>
   </g>
   <g id="line2d_56">
    <g>
     <use style="fill:#999999;stroke:#999999;" x="285.037633" xlink:href="#m5d696da0e2" y="267.221413"/>
     <use style="fill:#999999;stroke:#999999;" x="285.037633" xlink:href="#m5d696da0e2" y="267.221413"/>
    </g>
   </g>
   <g id="line2d_57">
    <path d="M 139.527819 294.88 
L 139.527819 294.419024 
L 140.729897 294.419024 
L 140.729897 293.958047 
L 140.911431 293.958047 
L 140.911431 293.497071 
L 140.945644 293.497071 
L 140.945644 293.036094 
L 141.287138 293.036094 
L 141.287138 292.114141 
L 142.099274 292.114141 
L 142.099274 291.192188 
L 142.438779 291.192188 
L 142.438779 290.731212 
L 142.849779 290.731212 
L 142.849779 290.270236 
L 147.051711 290.270236 
L 147.051711 289.348283 
L 149.00634 289.348283 
L 149.00634 288.42633 
L 150.124495 288.42633 
L 150.124495 287.504377 
L 151.241135 287.504377 
L 151.241135 287.0434 
L 151.997974 287.0434 
L 151.997974 286.582424 
L 152.361863 286.582424 
L 152.361863 286.121448 
L 152.971839 286.121448 
L 152.971839 285.199495 
L 153.541514 285.199495 
L 153.541514 284.738518 
L 153.784843 284.738518 
L 153.784843 284.277542 
L 155.18756 284.277542 
L 155.18756 282.894612 
L 155.337633 282.894612 
L 155.337633 281.511683 
L 156.792759 281.511683 
L 156.792759 280.128754 
L 158.078199 280.128754 
L 158.078199 278.745825 
L 159.154967 278.745825 
L 159.154967 278.284848 
L 159.807718 278.284848 
L 159.807718 277.823872 
L 160.418582 277.823872 
L 160.418582 277.362895 
L 161.002688 277.362895 
L 161.002688 276.901919 
L 162.052733 276.901919 
L 162.052733 276.440942 
L 162.131819 276.440942 
L 162.131819 275.518989 
L 162.171679 275.518989 
L 162.171679 275.058013 
L 254.253592 275.058013 
L 254.253592 274.597037 
L 254.258277 274.597037 
L 254.258277 273.214107 
L 254.258543 273.214107 
L 254.258543 272.292154 
L 254.272048 272.292154 
L 254.272048 271.831178 
L 266.1535 271.831178 
L 266.1535 271.370201 
L 266.153975 271.370201 
L 266.153975 270.909225 
L 266.158762 270.909225 
L 266.158762 270.448249 
L 266.164412 270.448249 
L 266.164412 269.987272 
L 266.173106 269.987272 
L 266.173106 269.526296 
L 273.127062 269.526296 
L 273.127062 269.065319 
L 273.132675 269.065319 
L 273.132675 268.143366 
L 278.074 268.143366 
L 278.074 267.68239 
L 285.037633 267.68239 
L 285.037633 267.221413 
L 333.429677 267.221413 
" style="fill:none;stroke:#999999;stroke-linecap:square;stroke-width:1.5;"/>
   </g>
   <g id="line2d_58"/>
   <g id="line2d_59">
    <path d="M 0 0 
" style="fill:none;stroke:#999999;stroke-linecap:square;stroke-width:1.5;"/>
   </g>
   <g id="line2d_60">
    <path clip-path="url(#pe9a85c4386)" d="M 254.198345 275.058013 
" style="fill:none;stroke:#999999;stroke-linecap:square;stroke-width:1.5;"/>
    <g clip-path="url(#pe9a85c4386)">
     <use style="fill:#999999;stroke:#999999;stroke-width:3;" x="254.198345" xlink:href="#m5012221d36" y="275.058013"/>
    </g>
   </g>
   <g id="line2d_61">
    <path d="M 333.429677 294.88 
L 333.429677 27.513663 
" style="fill:none;stroke:#000000;stroke-linecap:square;stroke-width:1.5;"/>
   </g>
   <g id="patch_3">
    <path d="M 56.12 294.88 
L 56.12 24.84 
" style="fill:none;stroke:#000000;stroke-linecap:square;stroke-linejoin:miter;stroke-width:0.8;"/>
   </g>
   <g id="patch_4">
    <path d="M 399.984 294.88 
L 399.984 24.84 
" style="fill:none;stroke:#000000;stroke-linecap:square;stroke-linejoin:miter;stroke-width:0.8;"/>
   </g>
   <g id="patch_5">
    <path d="M 56.12 294.88 
L 399.984 294.88 
" style="fill:none;stroke:#000000;stroke-linecap:square;stroke-linejoin:miter;stroke-width:0.8;"/>
   </g>
   <g id="patch_6">
    <path d="M 56.12 24.84 
L 399.984 24.84 
" style="fill:none;stroke:#000000;stroke-linecap:square;stroke-linejoin:miter;stroke-width:0.8;"/>
   </g>
   <g id="text_14">
    <!-- best 2016 -->
    <defs>
     <path d="M 48.6875 27.296875 
Q 48.6875 37.203125 44.609375 42.84375 
Q 40.53125 48.484375 33.40625 48.484375 
Q 26.265625 48.484375 22.1875 42.84375 
Q 18.109375 37.203125 18.109375 27.296875 
Q 18.109375 17.390625 22.1875 11.75 
Q 26.265625 6.109375 33.40625 6.109375 
Q 40.53125 6.109375 44.609375 11.75 
Q 48.6875 17.390625 48.6875 27.296875 
z
M 18.109375 46.390625 
Q 20.953125 51.265625 25.265625 53.625 
Q 29.59375 56 35.59375 56 
Q 45.5625 56 51.78125 48.09375 
Q 58.015625 40.1875 58.015625 27.296875 
Q 58.015625 14.40625 51.78125 6.484375 
Q 45.5625 -1.421875 35.59375 -1.421875 
Q 29.59375 -1.421875 25.265625 0.953125 
Q 20.953125 3.328125 18.109375 8.203125 
L 18.109375 0 
L 9.078125 0 
L 9.078125 75.984375 
L 18.109375 75.984375 
z
" id="DejaVuSans-62"/>
    </defs>
    <g transform="translate(369.479935 294.223611)scale(0.17 -0.17)">
     <use xlink:href="#DejaVuSans-62"/>
     <use x="63.476562" xlink:href="#DejaVuSans-65"/>
     <use x="125" xlink:href="#DejaVuSans-73"/>
     <use x="177.099609" xlink:href="#DejaVuSans-74"/>
     <use x="216.308594" xlink:href="#DejaVuSans-20"/>
     <use x="248.095703" xlink:href="#DejaVuSans-32"/>
     <use x="311.71875" xlink:href="#DejaVuSans-30"/>
     <use x="375.341797" xlink:href="#DejaVuSans-31"/>
     <use x="438.964844" xlink:href="#DejaVuSans-36"/>
    </g>
   </g>
   <g id="text_15">
    <!-- bbob-biobj f19, 40-D -->
    <defs>
     <path d="M 9.421875 54.6875 
L 18.40625 54.6875 
L 18.40625 -0.984375 
Q 18.40625 -11.421875 14.421875 -16.109375 
Q 10.453125 -20.796875 1.609375 -20.796875 
L -1.8125 -20.796875 
L -1.8125 -13.1875 
L 0.59375 -13.1875 
Q 5.71875 -13.1875 7.5625 -10.8125 
Q 9.421875 -8.453125 9.421875 -0.984375 
z
M 9.421875 75.984375 
L 18.40625 75.984375 
L 18.40625 64.59375 
L 9.421875 64.59375 
z
" id="DejaVuSans-6a"/>
     <path d="M 10.984375 1.515625 
L 10.984375 10.5 
Q 14.703125 8.734375 18.5 7.8125 
Q 22.3125 6.890625 25.984375 6.890625 
Q 35.75 6.890625 40.890625 13.453125 
Q 46.046875 20.015625 46.78125 33.40625 
Q 43.953125 29.203125 39.59375 26.953125 
Q 35.25 24.703125 29.984375 24.703125 
Q 19.046875 24.703125 12.671875 31.3125 
Q 6.296875 37.9375 6.296875 49.421875 
Q 6.296875 60.640625 12.9375 67.421875 
Q 19.578125 74.21875 30.609375 74.21875 
Q 43.265625 74.21875 49.921875 64.515625 
Q 56.59375 54.828125 56.59375 36.375 
Q 56.59375 19.140625 48.40625 8.859375 
Q 40.234375 -1.421875 26.421875 -1.421875 
Q 22.703125 -1.421875 18.890625 -0.6875 
Q 15.09375 0.046875 10.984375 1.515625 
z
M 30.609375 32.421875 
Q 37.25 32.421875 41.125 36.953125 
Q 45.015625 41.5 45.015625 49.421875 
Q 45.015625 57.28125 41.125 61.84375 
Q 37.25 66.40625 30.609375 66.40625 
Q 23.96875 66.40625 20.09375 61.84375 
Q 16.21875 57.28125 16.21875 49.421875 
Q 16.21875 41.5 20.09375 36.953125 
Q 23.96875 32.421875 30.609375 32.421875 
z
" id="DejaVuSans-39"/>
     <path d="M 19.671875 64.796875 
L 19.671875 8.109375 
L 31.59375 8.109375 
Q 46.6875 8.109375 53.6875 14.9375 
Q 60.6875 21.78125 60.6875 36.53125 
Q 60.6875 51.171875 53.6875 57.984375 
Q 46.6875 64.796875 31.59375 64.796875 
z
M 9.8125 72.90625 
L 30.078125 72.90625 
Q 51.265625 72.90625 61.171875 64.09375 
Q 71.09375 55.28125 71.09375 36.53125 
Q 71.09375 17.671875 61.125 8.828125 
Q 51.171875 0 30.078125 0 
L 9.8125 0 
z
" id="DejaVuSans-44"/>
    </defs>
    <g transform="translate(59.55864 35.290806)scale(0.102 -0.102)">
     <use xlink:href="#DejaVuSans-62"/>
     <use x="63.476562" xlink:href="#DejaVuSans-62"/>
     <use x="126.953125" xlink:href="#DejaVuSans-6f"/>
     <use x="188.134766" xlink:href="#DejaVuSans-62"/>
     <use x="251.611328" xlink:href="#DejaVuSans-2d"/>
     <use x="287.695312" xlink:href="#DejaVuSans-62"/>
     <use x="351.171875" xlink:href="#DejaVuSans-69"/>
     <use x="378.955078" xlink:href="#DejaVuSans-6f"/>
     <use x="440.136719" xlink:href="#DejaVuSans-62"/>
     <use x="503.613281" xlink:href="#DejaVuSans-6a"/>
     <use x="531.396484" xlink:href="#DejaVuSans-20"/>
     <use x="563.183594" xlink:href="#DejaVuSans-66"/>
     <use x="598.388672" xlink:href="#DejaVuSans-31"/>
     <use x="662.011719" xlink:href="#DejaVuSans-39"/>
     <use x="725.634766" xlink:href="#DejaVuSans-2c"/>
     <use x="757.421875" xlink:href="#DejaVuSans-20"/>
     <use x="789.208984" xlink:href="#DejaVuSans-34"/>
     <use x="852.832031" xlink:href="#DejaVuSans-30"/>
     <use x="916.455078" xlink:href="#DejaVuSans-2d"/>
     <use x="952.539062" xlink:href="#DejaVuSans-44"/>
    </g>
    <!-- 58 targets: 1..-1.0e-4 -->
    <defs>
     <path d="M 10.796875 72.90625 
L 49.515625 72.90625 
L 49.515625 64.59375 
L 19.828125 64.59375 
L 19.828125 46.734375 
Q 21.96875 47.46875 24.109375 47.828125 
Q 26.265625 48.1875 28.421875 48.1875 
Q 40.625 48.1875 47.75 41.5 
Q 54.890625 34.8125 54.890625 23.390625 
Q 54.890625 11.625 47.5625 5.09375 
Q 40.234375 -1.421875 26.90625 -1.421875 
Q 22.3125 -1.421875 17.546875 -0.640625 
Q 12.796875 0.140625 7.71875 1.703125 
L 7.71875 11.625 
Q 12.109375 9.234375 16.796875 8.0625 
Q 21.484375 6.890625 26.703125 6.890625 
Q 35.15625 6.890625 40.078125 11.328125 
Q 45.015625 15.765625 45.015625 23.390625 
Q 45.015625 31 40.078125 35.4375 
Q 35.15625 39.890625 26.703125 39.890625 
Q 22.75 39.890625 18.8125 39.015625 
Q 14.890625 38.140625 10.796875 36.28125 
z
" id="DejaVuSans-35"/>
     <path d="M 11.71875 12.40625 
L 22.015625 12.40625 
L 22.015625 0 
L 11.71875 0 
z
M 11.71875 51.703125 
L 22.015625 51.703125 
L 22.015625 39.3125 
L 11.71875 39.3125 
z
" id="DejaVuSans-3a"/>
    </defs>
    <g transform="translate(59.55864 46.712575)scale(0.102 -0.102)">
     <use xlink:href="#DejaVuSans-35"/>
     <use x="63.623047" xlink:href="#DejaVuSans-38"/>
     <use x="127.246094" xlink:href="#DejaVuSans-20"/>
     <use x="159.033203" xlink:href="#DejaVuSans-74"/>
     <use x="198.242188" xlink:href="#DejaVuSans-61"/>
     <use x="259.521484" xlink:href="#DejaVuSans-72"/>
     <use x="300.619141" xlink:href="#DejaVuSans-67"/>
     <use x="364.095703" xlink:href="#DejaVuSans-65"/>
     <use x="425.619141" xlink:href="#DejaVuSans-74"/>
     <use x="464.828125" xlink:href="#DejaVuSans-73"/>
     <use x="516.927734" xlink:href="#DejaVuSans-3a"/>
     <use x="550.619141" xlink:href="#DejaVuSans-20"/>
     <use x="582.40625" xlink:href="#DejaVuSans-31"/>
     <use x="646.029297" xlink:href="#DejaVuSans-2e"/>
     <use x="677.816406" xlink:href="#DejaVuSans-2e"/>
     <use x="709.603516" xlink:href="#DejaVuSans-2d"/>
     <use x="745.6875" xlink:href="#DejaVuSans-31"/>
     <use x="809.310547" xlink:href="#DejaVuSans-2e"/>
     <use x="841.097656" xlink:href="#DejaVuSans-30"/>
     <use x="904.720703" xlink:href="#DejaVuSans-65"/>
     <use x="966.244141" xlink:href="#DejaVuSans-2d"/>
     <use x="1002.328125" xlink:href="#DejaVuSans-34"/>
    </g>
    <!-- 10 instances -->
    <g transform="translate(59.55864 58.134344)scale(0.102 -0.102)">
     <use xlink:href="#DejaVuSans-31"/>
     <use x="63.623047" xlink:href="#DejaVuSans-30"/>
     <use x="127.246094" xlink:href="#DejaVuSans-20"/>
     <use x="159.033203" xlink:href="#DejaVuSans-69"/>
     <use x="186.816406" xlink:href="#DejaVuSans-6e"/>
     <use x="250.195312" xlink:href="#DejaVuSans-73"/>
     <use x="302.294922" xlink:href="#DejaVuSans-74"/>
     <use x="341.503906" xlink:href="#DejaVuSans-61"/>
     <use x="402.783203" xlink:href="#DejaVuSans-6e"/>
     <use x="466.162109" xlink:href="#DejaVuSans-63"/>
     <use x="521.142578" xlink:href="#DejaVuSans-65"/>
     <use x="582.666016" xlink:href="#DejaVuSans-73"/>
    </g>
   </g>
   <g id="text_16">
    <!-- v2.0.778, hv-hash=ff0e71e8cd978373 -->
    <defs>
     <path d="M 8.203125 72.90625 
L 55.078125 72.90625 
L 55.078125 68.703125 
L 28.609375 0 
L 18.3125 0 
L 43.21875 64.59375 
L 8.203125 64.59375 
z
" id="DejaVuSans-37"/>
     <path d="M 54.890625 33.015625 
L 54.890625 0 
L 45.90625 0 
L 45.90625 32.71875 
Q 45.90625 40.484375 42.875 44.328125 
Q 39.84375 48.1875 33.796875 48.1875 
Q 26.515625 48.1875 22.3125 43.546875 
Q 18.109375 38.921875 18.109375 30.90625 
L 18.109375 0 
L 9.078125 0 
L 9.078125 75.984375 
L 18.109375 75.984375 
L 18.109375 46.1875 
Q 21.34375 51.125 25.703125 53.5625 
Q 30.078125 56 35.796875 56 
Q 45.21875 56 50.046875 50.171875 
Q 54.890625 44.34375 54.890625 33.015625 
z
" id="DejaVuSans-68"/>
     <path d="M 10.59375 45.40625 
L 73.1875 45.40625 
L 73.1875 37.203125 
L 10.59375 37.203125 
z
M 10.59375 25.484375 
L 73.1875 25.484375 
L 73.1875 17.1875 
L 10.59375 17.1875 
z
" id="DejaVuSans-3d"/>
     <path d="M 40.578125 39.3125 
Q 47.65625 37.796875 51.625 33 
Q 55.609375 28.21875 55.609375 21.1875 
Q 55.609375 10.40625 48.1875 4.484375 
Q 40.765625 -1.421875 27.09375 -1.421875 
Q 22.515625 -1.421875 17.65625 -0.515625 
Q 12.796875 0.390625 7.625 2.203125 
L 7.625 11.71875 
Q 11.71875 9.328125 16.59375 8.109375 
Q 21.484375 6.890625 26.8125 6.890625 
Q 36.078125 6.890625 40.9375 10.546875 
Q 45.796875 14.203125 45.796875 21.1875 
Q 45.796875 27.640625 41.28125 31.265625 
Q 36.765625 34.90625 28.71875 34.90625 
L 20.21875 34.90625 
L 20.21875 43.015625 
L 29.109375 43.015625 
Q 36.375 43.015625 40.234375 45.921875 
Q 44.09375 48.828125 44.09375 54.296875 
Q 44.09375 59.90625 40.109375 62.90625 
Q 36.140625 65.921875 28.71875 65.921875 
Q 24.65625 65.921875 20.015625 65.03125 
Q 15.375 64.15625 9.8125 62.3125 
L 9.8125 71.09375 
Q 15.4375 72.65625 20.34375 73.4375 
Q 25.25 74.21875 29.59375 74.21875 
Q 40.828125 74.21875 47.359375 69.109375 
Q 53.90625 64.015625 53.90625 55.328125 
Q 53.90625 49.265625 50.4375 45.09375 
Q 46.96875 40.921875 40.578125 39.3125 
z
" id="DejaVuSans-33"/>
    </defs>
    <g style="fill:#808080;" transform="translate(131.294188 290.099912)scale(0.1 -0.1)">
     <use xlink:href="#DejaVuSans-76"/>
     <use x="59.179688" xlink:href="#DejaVuSans-32"/>
     <use x="122.802734" xlink:href="#DejaVuSans-2e"/>
     <use x="154.589844" xlink:href="#DejaVuSans-30"/>
     <use x="218.212891" xlink:href="#DejaVuSans-2e"/>
     <use x="250" xlink:href="#DejaVuSans-37"/>
     <use x="313.623047" xlink:href="#DejaVuSans-37"/>
     <use x="377.246094" xlink:href="#DejaVuSans-38"/>
     <use x="440.869141" xlink:href="#DejaVuSans-2c"/>
     <use x="472.65625" xlink:href="#DejaVuSans-20"/>
     <use x="504.443359" xlink:href="#DejaVuSans-68"/>
     <use x="567.822266" xlink:href="#DejaVuSans-76"/>
     <use x="626.970703" xlink:href="#DejaVuSans-2d"/>
     <use x="663.054688" xlink:href="#DejaVuSans-68"/>
     <use x="726.433594" xlink:href="#DejaVuSans-61"/>
     <use x="787.712891" xlink:href="#DejaVuSans-73"/>
     <use x="839.8125" xlink:href="#DejaVuSans-68"/>
     <use x="903.191406" xlink:href="#DejaVuSans-3d"/>
     <use x="986.980469" xlink:href="#DejaVuSans-66"/>
     <use x="1022.185547" xlink:href="#DejaVuSans-66"/>
     <use x="1057.390625" xlink:href="#DejaVuSans-30"/>
     <use x="1121.013672" xlink:href="#DejaVuSans-65"/>
     <use x="1182.537109" xlink:href="#DejaVuSans-37"/>
     <use x="1246.160156" xlink:href="#DejaVuSans-31"/>
     <use x="1309.783203" xlink:href="#DejaVuSans-65"/>
     <use x="1371.306641" xlink:href="#DejaVuSans-38"/>
     <use x="1434.929688" xlink:href="#DejaVuSans-63"/>
     <use x="1489.910156" xlink:href="#DejaVuSans-64"/>
     <use x="1553.386719" xlink:href="#DejaVuSans-39"/>
     <use x="1617.009766" xlink:href="#DejaVuSans-37"/>
     <use x="1680.632812" xlink:href="#DejaVuSans-38"/>
     <use x="1744.255859" xlink:href="#DejaVuSans-33"/>
     <use x="1807.878906" xlink:href="#DejaVuSans-37"/>
     <use x="1871.501953" xlink:href="#DejaVuSans-33"/>
    </g>
   </g>
   <g id="text_17">
    <!-- 19 sep. Ellipsoid/Gallagher 101 -->
    <defs>
     <path d="M 9.8125 72.90625 
L 55.90625 72.90625 
L 55.90625 64.59375 
L 19.671875 64.59375 
L 19.671875 43.015625 
L 54.390625 43.015625 
L 54.390625 34.71875 
L 19.671875 34.71875 
L 19.671875 8.296875 
L 56.78125 8.296875 
L 56.78125 0 
L 9.8125 0 
z
" id="DejaVuSans-45"/>
     <path d="M 59.515625 10.40625 
L 59.515625 29.984375 
L 43.40625 29.984375 
L 43.40625 38.09375 
L 69.28125 38.09375 
L 69.28125 6.78125 
Q 63.578125 2.734375 56.6875 0.65625 
Q 49.8125 -1.421875 42 -1.421875 
Q 24.90625 -1.421875 15.25 8.5625 
Q 5.609375 18.5625 5.609375 36.375 
Q 5.609375 54.25 15.25 64.234375 
Q 24.90625 74.21875 42 74.21875 
Q 49.125 74.21875 55.546875 72.453125 
Q 61.96875 70.703125 67.390625 67.28125 
L 67.390625 56.78125 
Q 61.921875 61.421875 55.765625 63.765625 
Q 49.609375 66.109375 42.828125 66.109375 
Q 29.4375 66.109375 22.71875 58.640625 
Q 16.015625 51.171875 16.015625 36.375 
Q 16.015625 21.625 22.71875 14.15625 
Q 29.4375 6.6875 42.828125 6.6875 
Q 48.046875 6.6875 52.140625 7.59375 
Q 56.25 8.5 59.515625 10.40625 
z
" id="DejaVuSans-47"/>
    </defs>
    <g transform="translate(72.480125 18.84)scale(0.2 -0.2)">
     <use xlink:href="#DejaVuSans-31"/>
     <use x="63.623047" xlink:href="#DejaVuSans-39"/>
     <use x="127.246094" xlink:href="#DejaVuSans-20"/>
     <use x="159.033203" xlink:href="#DejaVuSans-73"/>
     <use x="211.132812" xlink:href="#DejaVuSans-65"/>
     <use x="272.65625" xlink:href="#DejaVuSans-70"/>
     <use x="336.132812" xlink:href="#DejaVuSans-2e"/>
     <use x="367.919922" xlink:href="#DejaVuSans-20"/>
     <use x="399.707031" xlink:href="#DejaVuSans-45"/>
     <use x="462.890625" xlink:href="#DejaVuSans-6c"/>
     <use x="490.673828" xlink:href="#DejaVuSans-6c"/>
     <use x="518.457031" xlink:href="#DejaVuSans-69"/>
     <use x="546.240234" xlink:href="#DejaVuSans-70"/>
     <use x="609.716797" xlink:href="#DejaVuSans-73"/>
     <use x="661.816406" xlink:href="#DejaVuSans-6f"/>
     <use x="722.998047" xlink:href="#DejaVuSans-69"/>
     <use x="750.78125" xlink:href="#DejaVuSans-64"/>
     <use x="814.257812" xlink:href="#DejaVuSans-2f"/>
     <use x="847.949219" xlink:href="#DejaVuSans-47"/>
     <use x="925.439453" xlink:href="#DejaVuSans-61"/>
     <use x="986.71875" xlink:href="#DejaVuSans-6c"/>
     <use x="1014.501953" xlink:href="#DejaVuSans-6c"/>
     <use x="1042.285156" xlink:href="#DejaVuSans-61"/>
     <use x="1103.564453" xlink:href="#DejaVuSans-67"/>
     <use x="1167.041016" xlink:href="#DejaVuSans-68"/>
     <use x="1230.419922" xlink:href="#DejaVuSans-65"/>
     <use x="1291.943359" xlink:href="#DejaVuSans-72"/>
     <use x="1333.056641" xlink:href="#DejaVuSans-20"/>
     <use x="1364.84375" xlink:href="#DejaVuSans-31"/>
     <use x="1428.466797" xlink:href="#DejaVuSans-30"/>
     <use x="1492.089844" xlink:href="#DejaVuSans-31"/>
    </g>
   </g>
  </g>
 </g>
 <defs>
  <clipPath id="pe9a85c4386">
   <rect height="270.04" width="343.864" x="56.12" y="24.84"/>
  </clipPath>
 </defs>
</svg>
