<?xml version="1.0" encoding="utf-8" standalone="no"?>
<!DOCTYPE svg PUBLIC "-//W3C//DTD SVG 1.1//EN"
  "http://www.w3.org/Graphics/SVG/1.1/DTD/svg11.dtd">
<!-- Created with matplotlib (http://matplotlib.org/) -->
<svg height="345pt" version="1.1" viewBox="0 0 460 345" width="460pt" xmlns="http://www.w3.org/2000/svg" xmlns:xlink="http://www.w3.org/1999/xlink">
 <defs>
  <style type="text/css">
*{stroke-linecap:butt;stroke-linejoin:round;}
  </style>
 </defs>
 <g id="figure_1">
  <g id="patch_1">
   <path d="M 0 345.6 
L 460.8 345.6 
L 460.8 0 
L 0 0 
z
" style="fill:#ffffff;"/>
  </g>
  <g id="axes_1">
   <g id="patch_2">
    <path d="M 56.12 294.88 
L 399.984 294.88 
L 399.984 24.84 
L 56.12 24.84 
z
" style="fill:#ffffff;"/>
   </g>
   <g id="line2d_1">
    <path d="M 4.578827 294.88 
L 4.578827 290.270236 
L 133.860572 290.270236 
L 133.860572 281.050707 
L 144.16667 281.050707 
L 144.16667 271.831178 
L 147.010261 271.831178 
L 147.010261 267.221413 
L 150.322014 267.221413 
L 150.322014 253.39212 
L 153.321957 253.39212 
L 153.321957 244.172591 
L 157.858702 244.172591 
L 157.858702 239.562827 
L 164.052934 239.562827 
L 164.052934 230.343298 
L 172.612005 230.343298 
L 172.612005 216.514005 
L 182.821959 216.514005 
L 182.821959 207.294476 
L 205.461902 207.294476 
L 205.461902 198.074947 
L 225.310062 198.074947 
L 225.310062 188.855418 
L 253.968452 188.855418 
L 253.968452 184.245654 
L 292.685471 184.245654 
L 292.685471 170.416361 
L 333.429677 170.416361 
" style="fill:none;stroke:#f5deb3;stroke-linecap:square;stroke-width:6;"/>
   </g>
   <g id="line2d_2">
    <path d="M 0 0 
" style="fill:none;stroke:#f5deb3;stroke-linecap:square;stroke-width:6;"/>
    <defs>
     <path d="M -0 7.778175 
L 7.778175 0 
L 0 -7.778175 
L -7.778175 -0 
z
" id="me8fb0e4f3f" style="stroke:#f5deb3;stroke-linejoin:miter;stroke-width:1.5;"/>
    </defs>
    <g>
     <use style="fill:#f5deb3;stroke:#f5deb3;stroke-linejoin:miter;stroke-width:1.5;" x="0" xlink:href="#me8fb0e4f3f" y="0"/>
    </g>
   </g>
   <g id="line2d_3">
    <path d="M 333.429677 170.416361 
L 363.933742 289.532673 
" style="fill:none;stroke:#f5deb3;stroke-linecap:square;stroke-width:6;"/>
    <g>
     <use style="fill:#f5deb3;stroke:#f5deb3;stroke-linejoin:miter;stroke-width:1.5;" x="333.429677" xlink:href="#me8fb0e4f3f" y="170.416361"/>
     <use style="fill:#f5deb3;stroke:#f5deb3;stroke-linejoin:miter;stroke-width:1.5;" x="363.933742" xlink:href="#me8fb0e4f3f" y="289.532673"/>
    </g>
   </g>
   <g id="matplotlib.axis_1">
    <g id="xtick_1">
     <g id="line2d_4">
      <path clip-path="url(#p4520f95e33)" d="M 56.12 294.88 
L 56.12 24.84 
" style="fill:none;stroke:#b0b0b0;stroke-linecap:square;stroke-width:0.8;"/>
     </g>
     <g id="line2d_5">
      <defs>
       <path d="M 0 0 
L 0 3.5 
" id="mb0c4ecc2a5" style="stroke:#000000;stroke-width:0.8;"/>
      </defs>
      <g>
       <use style="stroke:#000000;stroke-width:0.8;" x="56.12" xlink:href="#mb0c4ecc2a5" y="294.88"/>
      </g>
     </g>
     <g id="text_1">
      <!-- 0 -->
      <defs>
       <path d="M 31.78125 66.40625 
Q 24.171875 66.40625 20.328125 58.90625 
Q 16.5 51.421875 16.5 36.375 
Q 16.5 21.390625 20.328125 13.890625 
Q 24.171875 6.390625 31.78125 6.390625 
Q 39.453125 6.390625 43.28125 13.890625 
Q 47.125 21.390625 47.125 36.375 
Q 47.125 51.421875 43.28125 58.90625 
Q 39.453125 66.40625 31.78125 66.40625 
z
M 31.78125 74.21875 
Q 44.046875 74.21875 50.515625 64.515625 
Q 56.984375 54.828125 56.984375 36.375 
Q 56.984375 17.96875 50.515625 8.265625 
Q 44.046875 -1.421875 31.78125 -1.421875 
Q 19.53125 -1.421875 13.0625 8.265625 
Q 6.59375 17.96875 6.59375 36.375 
Q 6.59375 54.828125 13.0625 64.515625 
Q 19.53125 74.21875 31.78125 74.21875 
z
" id="DejaVuSans-30"/>
      </defs>
      <g transform="translate(49.7575 317.076875)scale(0.2 -0.2)">
       <use xlink:href="#DejaVuSans-30"/>
      </g>
     </g>
    </g>
    <g id="xtick_2">
     <g id="line2d_6">
      <path clip-path="url(#p4520f95e33)" d="M 135.351336 294.88 
L 135.351336 24.84 
" style="fill:none;stroke:#b0b0b0;stroke-linecap:square;stroke-width:0.8;"/>
     </g>
     <g id="line2d_7">
      <g>
       <use style="stroke:#000000;stroke-width:0.8;" x="135.351336" xlink:href="#mb0c4ecc2a5" y="294.88"/>
      </g>
     </g>
     <g id="text_2">
      <!-- 2 -->
      <defs>
       <path d="M 19.1875 8.296875 
L 53.609375 8.296875 
L 53.609375 0 
L 7.328125 0 
L 7.328125 8.296875 
Q 12.9375 14.109375 22.625 23.890625 
Q 32.328125 33.6875 34.8125 36.53125 
Q 39.546875 41.84375 41.421875 45.53125 
Q 43.3125 49.21875 43.3125 52.78125 
Q 43.3125 58.59375 39.234375 62.25 
Q 35.15625 65.921875 28.609375 65.921875 
Q 23.96875 65.921875 18.8125 64.3125 
Q 13.671875 62.703125 7.8125 59.421875 
L 7.8125 69.390625 
Q 13.765625 71.78125 18.9375 73 
Q 24.125 74.21875 28.421875 74.21875 
Q 39.75 74.21875 46.484375 68.546875 
Q 53.21875 62.890625 53.21875 53.421875 
Q 53.21875 48.921875 51.53125 44.890625 
Q 49.859375 40.875 45.40625 35.40625 
Q 44.1875 33.984375 37.640625 27.21875 
Q 31.109375 20.453125 19.1875 8.296875 
z
" id="DejaVuSans-32"/>
      </defs>
      <g transform="translate(128.988836 317.076875)scale(0.2 -0.2)">
       <use xlink:href="#DejaVuSans-32"/>
      </g>
     </g>
    </g>
    <g id="xtick_3">
     <g id="line2d_8">
      <path clip-path="url(#p4520f95e33)" d="M 214.582673 294.88 
L 214.582673 24.84 
" style="fill:none;stroke:#b0b0b0;stroke-linecap:square;stroke-width:0.8;"/>
     </g>
     <g id="line2d_9">
      <g>
       <use style="stroke:#000000;stroke-width:0.8;" x="214.582673" xlink:href="#mb0c4ecc2a5" y="294.88"/>
      </g>
     </g>
     <g id="text_3">
      <!-- 4 -->
      <defs>
       <path d="M 37.796875 64.3125 
L 12.890625 25.390625 
L 37.796875 25.390625 
z
M 35.203125 72.90625 
L 47.609375 72.90625 
L 47.609375 25.390625 
L 58.015625 25.390625 
L 58.015625 17.1875 
L 47.609375 17.1875 
L 47.609375 0 
L 37.796875 0 
L 37.796875 17.1875 
L 4.890625 17.1875 
L 4.890625 26.703125 
z
" id="DejaVuSans-34"/>
      </defs>
      <g transform="translate(208.220173 317.076875)scale(0.2 -0.2)">
       <use xlink:href="#DejaVuSans-34"/>
      </g>
     </g>
    </g>
    <g id="xtick_4">
     <g id="line2d_10">
      <path clip-path="url(#p4520f95e33)" d="M 293.814009 294.88 
L 293.814009 24.84 
" style="fill:none;stroke:#b0b0b0;stroke-linecap:square;stroke-width:0.8;"/>
     </g>
     <g id="line2d_11">
      <g>
       <use style="stroke:#000000;stroke-width:0.8;" x="293.814009" xlink:href="#mb0c4ecc2a5" y="294.88"/>
      </g>
     </g>
     <g id="text_4">
      <!-- 6 -->
      <defs>
       <path d="M 33.015625 40.375 
Q 26.375 40.375 22.484375 35.828125 
Q 18.609375 31.296875 18.609375 23.390625 
Q 18.609375 15.53125 22.484375 10.953125 
Q 26.375 6.390625 33.015625 6.390625 
Q 39.65625 6.390625 43.53125 10.953125 
Q 47.40625 15.53125 47.40625 23.390625 
Q 47.40625 31.296875 43.53125 35.828125 
Q 39.65625 40.375 33.015625 40.375 
z
M 52.59375 71.296875 
L 52.59375 62.3125 
Q 48.875 64.0625 45.09375 64.984375 
Q 41.3125 65.921875 37.59375 65.921875 
Q 27.828125 65.921875 22.671875 59.328125 
Q 17.53125 52.734375 16.796875 39.40625 
Q 19.671875 43.65625 24.015625 45.921875 
Q 28.375 48.1875 33.59375 48.1875 
Q 44.578125 48.1875 50.953125 41.515625 
Q 57.328125 34.859375 57.328125 23.390625 
Q 57.328125 12.15625 50.6875 5.359375 
Q 44.046875 -1.421875 33.015625 -1.421875 
Q 20.359375 -1.421875 13.671875 8.265625 
Q 6.984375 17.96875 6.984375 36.375 
Q 6.984375 53.65625 15.1875 63.9375 
Q 23.390625 74.21875 37.203125 74.21875 
Q 40.921875 74.21875 44.703125 73.484375 
Q 48.484375 72.75 52.59375 71.296875 
z
" id="DejaVuSans-36"/>
      </defs>
      <g transform="translate(287.451509 317.076875)scale(0.2 -0.2)">
       <use xlink:href="#DejaVuSans-36"/>
      </g>
     </g>
    </g>
    <g id="xtick_5">
     <g id="line2d_12">
      <path clip-path="url(#p4520f95e33)" d="M 373.045346 294.88 
L 373.045346 24.84 
" style="fill:none;stroke:#b0b0b0;stroke-linecap:square;stroke-width:0.8;"/>
     </g>
     <g id="line2d_13">
      <g>
       <use style="stroke:#000000;stroke-width:0.8;" x="373.045346" xlink:href="#mb0c4ecc2a5" y="294.88"/>
      </g>
     </g>
     <g id="text_5">
      <!-- 8 -->
      <defs>
       <path d="M 31.78125 34.625 
Q 24.75 34.625 20.71875 30.859375 
Q 16.703125 27.09375 16.703125 20.515625 
Q 16.703125 13.921875 20.71875 10.15625 
Q 24.75 6.390625 31.78125 6.390625 
Q 38.8125 6.390625 42.859375 10.171875 
Q 46.921875 13.96875 46.921875 20.515625 
Q 46.921875 27.09375 42.890625 30.859375 
Q 38.875 34.625 31.78125 34.625 
z
M 21.921875 38.8125 
Q 15.578125 40.375 12.03125 44.71875 
Q 8.5 49.078125 8.5 55.328125 
Q 8.5 64.0625 14.71875 69.140625 
Q 20.953125 74.21875 31.78125 74.21875 
Q 42.671875 74.21875 48.875 69.140625 
Q 55.078125 64.0625 55.078125 55.328125 
Q 55.078125 49.078125 51.53125 44.71875 
Q 48 40.375 41.703125 38.8125 
Q 48.828125 37.15625 52.796875 32.3125 
Q 56.78125 27.484375 56.78125 20.515625 
Q 56.78125 9.90625 50.3125 4.234375 
Q 43.84375 -1.421875 31.78125 -1.421875 
Q 19.734375 -1.421875 13.25 4.234375 
Q 6.78125 9.90625 6.78125 20.515625 
Q 6.78125 27.484375 10.78125 32.3125 
Q 14.796875 37.15625 21.921875 38.8125 
z
M 18.3125 54.390625 
Q 18.3125 48.734375 21.84375 45.5625 
Q 25.390625 42.390625 31.78125 42.390625 
Q 38.140625 42.390625 41.71875 45.5625 
Q 45.3125 48.734375 45.3125 54.390625 
Q 45.3125 60.0625 41.71875 63.234375 
Q 38.140625 66.40625 31.78125 66.40625 
Q 25.390625 66.40625 21.84375 63.234375 
Q 18.3125 60.0625 18.3125 54.390625 
z
" id="DejaVuSans-38"/>
      </defs>
      <g transform="translate(366.682846 317.076875)scale(0.2 -0.2)">
       <use xlink:href="#DejaVuSans-38"/>
      </g>
     </g>
    </g>
    <g id="text_6">
     <!-- log10(# f-evals / dimension) -->
     <defs>
      <path d="M 9.421875 75.984375 
L 18.40625 75.984375 
L 18.40625 0 
L 9.421875 0 
z
" id="DejaVuSans-6c"/>
      <path d="M 30.609375 48.390625 
Q 23.390625 48.390625 19.1875 42.75 
Q 14.984375 37.109375 14.984375 27.296875 
Q 14.984375 17.484375 19.15625 11.84375 
Q 23.34375 6.203125 30.609375 6.203125 
Q 37.796875 6.203125 41.984375 11.859375 
Q 46.1875 17.53125 46.1875 27.296875 
Q 46.1875 37.015625 41.984375 42.703125 
Q 37.796875 48.390625 30.609375 48.390625 
z
M 30.609375 56 
Q 42.328125 56 49.015625 48.375 
Q 55.71875 40.765625 55.71875 27.296875 
Q 55.71875 13.875 49.015625 6.21875 
Q 42.328125 -1.421875 30.609375 -1.421875 
Q 18.84375 -1.421875 12.171875 6.21875 
Q 5.515625 13.875 5.515625 27.296875 
Q 5.515625 40.765625 12.171875 48.375 
Q 18.84375 56 30.609375 56 
z
" id="DejaVuSans-6f"/>
      <path d="M 45.40625 27.984375 
Q 45.40625 37.75 41.375 43.109375 
Q 37.359375 48.484375 30.078125 48.484375 
Q 22.859375 48.484375 18.828125 43.109375 
Q 14.796875 37.75 14.796875 27.984375 
Q 14.796875 18.265625 18.828125 12.890625 
Q 22.859375 7.515625 30.078125 7.515625 
Q 37.359375 7.515625 41.375 12.890625 
Q 45.40625 18.265625 45.40625 27.984375 
z
M 54.390625 6.78125 
Q 54.390625 -7.171875 48.1875 -13.984375 
Q 42 -20.796875 29.203125 -20.796875 
Q 24.46875 -20.796875 20.265625 -20.09375 
Q 16.0625 -19.390625 12.109375 -17.921875 
L 12.109375 -9.1875 
Q 16.0625 -11.328125 19.921875 -12.34375 
Q 23.78125 -13.375 27.78125 -13.375 
Q 36.625 -13.375 41.015625 -8.765625 
Q 45.40625 -4.15625 45.40625 5.171875 
L 45.40625 9.625 
Q 42.625 4.78125 38.28125 2.390625 
Q 33.9375 0 27.875 0 
Q 17.828125 0 11.671875 7.65625 
Q 5.515625 15.328125 5.515625 27.984375 
Q 5.515625 40.671875 11.671875 48.328125 
Q 17.828125 56 27.875 56 
Q 33.9375 56 38.28125 53.609375 
Q 42.625 51.21875 45.40625 46.390625 
L 45.40625 54.6875 
L 54.390625 54.6875 
z
" id="DejaVuSans-67"/>
      <path d="M 12.40625 8.296875 
L 28.515625 8.296875 
L 28.515625 63.921875 
L 10.984375 60.40625 
L 10.984375 69.390625 
L 28.421875 72.90625 
L 38.28125 72.90625 
L 38.28125 8.296875 
L 54.390625 8.296875 
L 54.390625 0 
L 12.40625 0 
z
" id="DejaVuSans-31"/>
      <path d="M 31 75.875 
Q 24.46875 64.65625 21.28125 53.65625 
Q 18.109375 42.671875 18.109375 31.390625 
Q 18.109375 20.125 21.3125 9.0625 
Q 24.515625 -2 31 -13.1875 
L 23.1875 -13.1875 
Q 15.875 -1.703125 12.234375 9.375 
Q 8.59375 20.453125 8.59375 31.390625 
Q 8.59375 42.28125 12.203125 53.3125 
Q 15.828125 64.359375 23.1875 75.875 
z
" id="DejaVuSans-28"/>
      <path d="M 51.125 44 
L 36.921875 44 
L 32.8125 27.6875 
L 47.125 27.6875 
z
M 43.796875 71.78125 
L 38.71875 51.515625 
L 52.984375 51.515625 
L 58.109375 71.78125 
L 65.921875 71.78125 
L 60.890625 51.515625 
L 76.125 51.515625 
L 76.125 44 
L 58.984375 44 
L 54.984375 27.6875 
L 70.515625 27.6875 
L 70.515625 20.21875 
L 53.078125 20.21875 
L 48 0 
L 40.1875 0 
L 45.21875 20.21875 
L 30.90625 20.21875 
L 25.875 0 
L 18.015625 0 
L 23.09375 20.21875 
L 7.71875 20.21875 
L 7.71875 27.6875 
L 24.90625 27.6875 
L 29 44 
L 13.28125 44 
L 13.28125 51.515625 
L 30.90625 51.515625 
L 35.890625 71.78125 
z
" id="DejaVuSans-23"/>
      <path id="DejaVuSans-20"/>
      <path d="M 37.109375 75.984375 
L 37.109375 68.5 
L 28.515625 68.5 
Q 23.6875 68.5 21.796875 66.546875 
Q 19.921875 64.59375 19.921875 59.515625 
L 19.921875 54.6875 
L 34.71875 54.6875 
L 34.71875 47.703125 
L 19.921875 47.703125 
L 19.921875 0 
L 10.890625 0 
L 10.890625 47.703125 
L 2.296875 47.703125 
L 2.296875 54.6875 
L 10.890625 54.6875 
L 10.890625 58.5 
Q 10.890625 67.625 15.140625 71.796875 
Q 19.390625 75.984375 28.609375 75.984375 
z
" id="DejaVuSans-66"/>
      <path d="M 4.890625 31.390625 
L 31.203125 31.390625 
L 31.203125 23.390625 
L 4.890625 23.390625 
z
" id="DejaVuSans-2d"/>
      <path d="M 56.203125 29.59375 
L 56.203125 25.203125 
L 14.890625 25.203125 
Q 15.484375 15.921875 20.484375 11.0625 
Q 25.484375 6.203125 34.421875 6.203125 
Q 39.59375 6.203125 44.453125 7.46875 
Q 49.3125 8.734375 54.109375 11.28125 
L 54.109375 2.78125 
Q 49.265625 0.734375 44.1875 -0.34375 
Q 39.109375 -1.421875 33.890625 -1.421875 
Q 20.796875 -1.421875 13.15625 6.1875 
Q 5.515625 13.8125 5.515625 26.8125 
Q 5.515625 40.234375 12.765625 48.109375 
Q 20.015625 56 32.328125 56 
Q 43.359375 56 49.78125 48.890625 
Q 56.203125 41.796875 56.203125 29.59375 
z
M 47.21875 32.234375 
Q 47.125 39.59375 43.09375 43.984375 
Q 39.0625 48.390625 32.421875 48.390625 
Q 24.90625 48.390625 20.390625 44.140625 
Q 15.875 39.890625 15.1875 32.171875 
z
" id="DejaVuSans-65"/>
      <path d="M 2.984375 54.6875 
L 12.5 54.6875 
L 29.59375 8.796875 
L 46.6875 54.6875 
L 56.203125 54.6875 
L 35.6875 0 
L 23.484375 0 
z
" id="DejaVuSans-76"/>
      <path d="M 34.28125 27.484375 
Q 23.390625 27.484375 19.1875 25 
Q 14.984375 22.515625 14.984375 16.5 
Q 14.984375 11.71875 18.140625 8.90625 
Q 21.296875 6.109375 26.703125 6.109375 
Q 34.1875 6.109375 38.703125 11.40625 
Q 43.21875 16.703125 43.21875 25.484375 
L 43.21875 27.484375 
z
M 52.203125 31.203125 
L 52.203125 0 
L 43.21875 0 
L 43.21875 8.296875 
Q 40.140625 3.328125 35.546875 0.953125 
Q 30.953125 -1.421875 24.3125 -1.421875 
Q 15.921875 -1.421875 10.953125 3.296875 
Q 6 8.015625 6 15.921875 
Q 6 25.140625 12.171875 29.828125 
Q 18.359375 34.515625 30.609375 34.515625 
L 43.21875 34.515625 
L 43.21875 35.40625 
Q 43.21875 41.609375 39.140625 45 
Q 35.0625 48.390625 27.6875 48.390625 
Q 23 48.390625 18.546875 47.265625 
Q 14.109375 46.140625 10.015625 43.890625 
L 10.015625 52.203125 
Q 14.9375 54.109375 19.578125 55.046875 
Q 24.21875 56 28.609375 56 
Q 40.484375 56 46.34375 49.84375 
Q 52.203125 43.703125 52.203125 31.203125 
z
" id="DejaVuSans-61"/>
      <path d="M 44.28125 53.078125 
L 44.28125 44.578125 
Q 40.484375 46.53125 36.375 47.5 
Q 32.28125 48.484375 27.875 48.484375 
Q 21.1875 48.484375 17.84375 46.4375 
Q 14.5 44.390625 14.5 40.28125 
Q 14.5 37.15625 16.890625 35.375 
Q 19.28125 33.59375 26.515625 31.984375 
L 29.59375 31.296875 
Q 39.15625 29.25 43.1875 25.515625 
Q 47.21875 21.78125 47.21875 15.09375 
Q 47.21875 7.46875 41.1875 3.015625 
Q 35.15625 -1.421875 24.609375 -1.421875 
Q 20.21875 -1.421875 15.453125 -0.5625 
Q 10.6875 0.296875 5.421875 2 
L 5.421875 11.28125 
Q 10.40625 8.6875 15.234375 7.390625 
Q 20.0625 6.109375 24.8125 6.109375 
Q 31.15625 6.109375 34.5625 8.28125 
Q 37.984375 10.453125 37.984375 14.40625 
Q 37.984375 18.0625 35.515625 20.015625 
Q 33.0625 21.96875 24.703125 23.78125 
L 21.578125 24.515625 
Q 13.234375 26.265625 9.515625 29.90625 
Q 5.8125 33.546875 5.8125 39.890625 
Q 5.8125 47.609375 11.28125 51.796875 
Q 16.75 56 26.8125 56 
Q 31.78125 56 36.171875 55.265625 
Q 40.578125 54.546875 44.28125 53.078125 
z
" id="DejaVuSans-73"/>
      <path d="M 25.390625 72.90625 
L 33.6875 72.90625 
L 8.296875 -9.28125 
L 0 -9.28125 
z
" id="DejaVuSans-2f"/>
      <path d="M 45.40625 46.390625 
L 45.40625 75.984375 
L 54.390625 75.984375 
L 54.390625 0 
L 45.40625 0 
L 45.40625 8.203125 
Q 42.578125 3.328125 38.25 0.953125 
Q 33.9375 -1.421875 27.875 -1.421875 
Q 17.96875 -1.421875 11.734375 6.484375 
Q 5.515625 14.40625 5.515625 27.296875 
Q 5.515625 40.1875 11.734375 48.09375 
Q 17.96875 56 27.875 56 
Q 33.9375 56 38.25 53.625 
Q 42.578125 51.265625 45.40625 46.390625 
z
M 14.796875 27.296875 
Q 14.796875 17.390625 18.875 11.75 
Q 22.953125 6.109375 30.078125 6.109375 
Q 37.203125 6.109375 41.296875 11.75 
Q 45.40625 17.390625 45.40625 27.296875 
Q 45.40625 37.203125 41.296875 42.84375 
Q 37.203125 48.484375 30.078125 48.484375 
Q 22.953125 48.484375 18.875 42.84375 
Q 14.796875 37.203125 14.796875 27.296875 
z
" id="DejaVuSans-64"/>
      <path d="M 9.421875 54.6875 
L 18.40625 54.6875 
L 18.40625 0 
L 9.421875 0 
z
M 9.421875 75.984375 
L 18.40625 75.984375 
L 18.40625 64.59375 
L 9.421875 64.59375 
z
" id="DejaVuSans-69"/>
      <path d="M 52 44.1875 
Q 55.375 50.25 60.0625 53.125 
Q 64.75 56 71.09375 56 
Q 79.640625 56 84.28125 50.015625 
Q 88.921875 44.046875 88.921875 33.015625 
L 88.921875 0 
L 79.890625 0 
L 79.890625 32.71875 
Q 79.890625 40.578125 77.09375 44.375 
Q 74.3125 48.1875 68.609375 48.1875 
Q 61.625 48.1875 57.5625 43.546875 
Q 53.515625 38.921875 53.515625 30.90625 
L 53.515625 0 
L 44.484375 0 
L 44.484375 32.71875 
Q 44.484375 40.625 41.703125 44.40625 
Q 38.921875 48.1875 33.109375 48.1875 
Q 26.21875 48.1875 22.15625 43.53125 
Q 18.109375 38.875 18.109375 30.90625 
L 18.109375 0 
L 9.078125 0 
L 9.078125 54.6875 
L 18.109375 54.6875 
L 18.109375 46.1875 
Q 21.1875 51.21875 25.484375 53.609375 
Q 29.78125 56 35.6875 56 
Q 41.65625 56 45.828125 52.96875 
Q 50 49.953125 52 44.1875 
z
" id="DejaVuSans-6d"/>
      <path d="M 54.890625 33.015625 
L 54.890625 0 
L 45.90625 0 
L 45.90625 32.71875 
Q 45.90625 40.484375 42.875 44.328125 
Q 39.84375 48.1875 33.796875 48.1875 
Q 26.515625 48.1875 22.3125 43.546875 
Q 18.109375 38.921875 18.109375 30.90625 
L 18.109375 0 
L 9.078125 0 
L 9.078125 54.6875 
L 18.109375 54.6875 
L 18.109375 46.1875 
Q 21.34375 51.125 25.703125 53.5625 
Q 30.078125 56 35.796875 56 
Q 45.21875 56 50.046875 50.171875 
Q 54.890625 44.34375 54.890625 33.015625 
z
" id="DejaVuSans-6e"/>
      <path d="M 8.015625 75.875 
L 15.828125 75.875 
Q 23.140625 64.359375 26.78125 53.3125 
Q 30.421875 42.28125 30.421875 31.390625 
Q 30.421875 20.453125 26.78125 9.375 
Q 23.140625 -1.703125 15.828125 -13.1875 
L 8.015625 -13.1875 
Q 14.5 -2 17.703125 9.0625 
Q 20.90625 20.125 20.90625 31.390625 
Q 20.90625 42.671875 17.703125 53.65625 
Q 14.5 64.65625 8.015625 75.875 
z
" id="DejaVuSans-29"/>
     </defs>
     <g transform="translate(107.211219 338.153594)scale(0.17 -0.17)">
      <use xlink:href="#DejaVuSans-6c"/>
      <use x="27.783203" xlink:href="#DejaVuSans-6f"/>
      <use x="88.964844" xlink:href="#DejaVuSans-67"/>
      <use x="152.441406" xlink:href="#DejaVuSans-31"/>
      <use x="216.064453" xlink:href="#DejaVuSans-30"/>
      <use x="279.6875" xlink:href="#DejaVuSans-28"/>
      <use x="318.701172" xlink:href="#DejaVuSans-23"/>
      <use x="402.490234" xlink:href="#DejaVuSans-20"/>
      <use x="434.277344" xlink:href="#DejaVuSans-66"/>
      <use x="469.404297" xlink:href="#DejaVuSans-2d"/>
      <use x="505.488281" xlink:href="#DejaVuSans-65"/>
      <use x="567.011719" xlink:href="#DejaVuSans-76"/>
      <use x="626.191406" xlink:href="#DejaVuSans-61"/>
      <use x="687.470703" xlink:href="#DejaVuSans-6c"/>
      <use x="715.253906" xlink:href="#DejaVuSans-73"/>
      <use x="767.353516" xlink:href="#DejaVuSans-20"/>
      <use x="799.140625" xlink:href="#DejaVuSans-2f"/>
      <use x="832.832031" xlink:href="#DejaVuSans-20"/>
      <use x="864.619141" xlink:href="#DejaVuSans-64"/>
      <use x="928.095703" xlink:href="#DejaVuSans-69"/>
      <use x="955.878906" xlink:href="#DejaVuSans-6d"/>
      <use x="1053.291016" xlink:href="#DejaVuSans-65"/>
      <use x="1114.814453" xlink:href="#DejaVuSans-6e"/>
      <use x="1178.193359" xlink:href="#DejaVuSans-73"/>
      <use x="1230.292969" xlink:href="#DejaVuSans-69"/>
      <use x="1258.076172" xlink:href="#DejaVuSans-6f"/>
      <use x="1319.257812" xlink:href="#DejaVuSans-6e"/>
      <use x="1382.636719" xlink:href="#DejaVuSans-29"/>
     </g>
    </g>
   </g>
   <g id="matplotlib.axis_2">
    <g id="ytick_1">
     <g id="line2d_14">
      <path clip-path="url(#p4520f95e33)" d="M 56.12 294.88 
L 399.984 294.88 
" style="fill:none;stroke:#b0b0b0;stroke-linecap:square;stroke-width:0.8;"/>
     </g>
     <g id="line2d_15">
      <defs>
       <path d="M 0 0 
L -3.5 0 
" id="m2655af2a95" style="stroke:#000000;stroke-width:0.8;"/>
      </defs>
      <g>
       <use style="stroke:#000000;stroke-width:0.8;" x="56.12" xlink:href="#m2655af2a95" y="294.88"/>
      </g>
     </g>
     <g id="text_7">
      <!-- 0.0 -->
      <defs>
       <path d="M 10.6875 12.40625 
L 21 12.40625 
L 21 0 
L 10.6875 0 
z
" id="DejaVuSans-2e"/>
      </defs>
      <g transform="translate(23.675 300.95875)scale(0.16 -0.16)">
       <use xlink:href="#DejaVuSans-30"/>
       <use x="63.623047" xlink:href="#DejaVuSans-2e"/>
       <use x="95.410156" xlink:href="#DejaVuSans-30"/>
      </g>
     </g>
    </g>
    <g id="ytick_2">
     <g id="line2d_16">
      <path clip-path="url(#p4520f95e33)" d="M 56.12 241.406733 
L 399.984 241.406733 
" style="fill:none;stroke:#b0b0b0;stroke-linecap:square;stroke-width:0.8;"/>
     </g>
     <g id="line2d_17">
      <g>
       <use style="stroke:#000000;stroke-width:0.8;" x="56.12" xlink:href="#m2655af2a95" y="241.406733"/>
      </g>
     </g>
     <g id="text_8">
      <!-- 0.2 -->
      <g transform="translate(23.675 247.485483)scale(0.16 -0.16)">
       <use xlink:href="#DejaVuSans-30"/>
       <use x="63.623047" xlink:href="#DejaVuSans-2e"/>
       <use x="95.410156" xlink:href="#DejaVuSans-32"/>
      </g>
     </g>
    </g>
    <g id="ytick_3">
     <g id="line2d_18">
      <path clip-path="url(#p4520f95e33)" d="M 56.12 187.933465 
L 399.984 187.933465 
" style="fill:none;stroke:#b0b0b0;stroke-linecap:square;stroke-width:0.8;"/>
     </g>
     <g id="line2d_19">
      <g>
       <use style="stroke:#000000;stroke-width:0.8;" x="56.12" xlink:href="#m2655af2a95" y="187.933465"/>
      </g>
     </g>
     <g id="text_9">
      <!-- 0.4 -->
      <g transform="translate(23.675 194.012215)scale(0.16 -0.16)">
       <use xlink:href="#DejaVuSans-30"/>
       <use x="63.623047" xlink:href="#DejaVuSans-2e"/>
       <use x="95.410156" xlink:href="#DejaVuSans-34"/>
      </g>
     </g>
    </g>
    <g id="ytick_4">
     <g id="line2d_20">
      <path clip-path="url(#p4520f95e33)" d="M 56.12 134.460198 
L 399.984 134.460198 
" style="fill:none;stroke:#b0b0b0;stroke-linecap:square;stroke-width:0.8;"/>
     </g>
     <g id="line2d_21">
      <g>
       <use style="stroke:#000000;stroke-width:0.8;" x="56.12" xlink:href="#m2655af2a95" y="134.460198"/>
      </g>
     </g>
     <g id="text_10">
      <!-- 0.6 -->
      <g transform="translate(23.675 140.538948)scale(0.16 -0.16)">
       <use xlink:href="#DejaVuSans-30"/>
       <use x="63.623047" xlink:href="#DejaVuSans-2e"/>
       <use x="95.410156" xlink:href="#DejaVuSans-36"/>
      </g>
     </g>
    </g>
    <g id="ytick_5">
     <g id="line2d_22">
      <path clip-path="url(#p4520f95e33)" d="M 56.12 80.986931 
L 399.984 80.986931 
" style="fill:none;stroke:#b0b0b0;stroke-linecap:square;stroke-width:0.8;"/>
     </g>
     <g id="line2d_23">
      <g>
       <use style="stroke:#000000;stroke-width:0.8;" x="56.12" xlink:href="#m2655af2a95" y="80.986931"/>
      </g>
     </g>
     <g id="text_11">
      <!-- 0.8 -->
      <g transform="translate(23.675 87.065681)scale(0.16 -0.16)">
       <use xlink:href="#DejaVuSans-30"/>
       <use x="63.623047" xlink:href="#DejaVuSans-2e"/>
       <use x="95.410156" xlink:href="#DejaVuSans-38"/>
      </g>
     </g>
    </g>
    <g id="ytick_6">
     <g id="line2d_24">
      <path clip-path="url(#p4520f95e33)" d="M 56.12 27.513663 
L 399.984 27.513663 
" style="fill:none;stroke:#b0b0b0;stroke-linecap:square;stroke-width:0.8;"/>
     </g>
     <g id="line2d_25">
      <g>
       <use style="stroke:#000000;stroke-width:0.8;" x="56.12" xlink:href="#m2655af2a95" y="27.513663"/>
      </g>
     </g>
     <g id="text_12">
      <!-- 1.0 -->
      <g transform="translate(23.675 33.592413)scale(0.16 -0.16)">
       <use xlink:href="#DejaVuSans-31"/>
       <use x="63.623047" xlink:href="#DejaVuSans-2e"/>
       <use x="95.410156" xlink:href="#DejaVuSans-30"/>
      </g>
     </g>
    </g>
    <g id="text_13">
     <!-- Fraction of function,target pairs -->
     <defs>
      <path d="M 9.8125 72.90625 
L 51.703125 72.90625 
L 51.703125 64.59375 
L 19.671875 64.59375 
L 19.671875 43.109375 
L 48.578125 43.109375 
L 48.578125 34.8125 
L 19.671875 34.8125 
L 19.671875 0 
L 9.8125 0 
z
" id="DejaVuSans-46"/>
      <path d="M 41.109375 46.296875 
Q 39.59375 47.171875 37.8125 47.578125 
Q 36.03125 48 33.890625 48 
Q 26.265625 48 22.1875 43.046875 
Q 18.109375 38.09375 18.109375 28.8125 
L 18.109375 0 
L 9.078125 0 
L 9.078125 54.6875 
L 18.109375 54.6875 
L 18.109375 46.1875 
Q 20.953125 51.171875 25.484375 53.578125 
Q 30.03125 56 36.53125 56 
Q 37.453125 56 38.578125 55.875 
Q 39.703125 55.765625 41.0625 55.515625 
z
" id="DejaVuSans-72"/>
      <path d="M 48.78125 52.59375 
L 48.78125 44.1875 
Q 44.96875 46.296875 41.140625 47.34375 
Q 37.3125 48.390625 33.40625 48.390625 
Q 24.65625 48.390625 19.8125 42.84375 
Q 14.984375 37.3125 14.984375 27.296875 
Q 14.984375 17.28125 19.8125 11.734375 
Q 24.65625 6.203125 33.40625 6.203125 
Q 37.3125 6.203125 41.140625 7.25 
Q 44.96875 8.296875 48.78125 10.40625 
L 48.78125 2.09375 
Q 45.015625 0.34375 40.984375 -0.53125 
Q 36.96875 -1.421875 32.421875 -1.421875 
Q 20.0625 -1.421875 12.78125 6.34375 
Q 5.515625 14.109375 5.515625 27.296875 
Q 5.515625 40.671875 12.859375 48.328125 
Q 20.21875 56 33.015625 56 
Q 37.15625 56 41.109375 55.140625 
Q 45.0625 54.296875 48.78125 52.59375 
z
" id="DejaVuSans-63"/>
      <path d="M 18.3125 70.21875 
L 18.3125 54.6875 
L 36.8125 54.6875 
L 36.8125 47.703125 
L 18.3125 47.703125 
L 18.3125 18.015625 
Q 18.3125 11.328125 20.140625 9.421875 
Q 21.96875 7.515625 27.59375 7.515625 
L 36.8125 7.515625 
L 36.8125 0 
L 27.59375 0 
Q 17.1875 0 13.234375 3.875 
Q 9.28125 7.765625 9.28125 18.015625 
L 9.28125 47.703125 
L 2.6875 47.703125 
L 2.6875 54.6875 
L 9.28125 54.6875 
L 9.28125 70.21875 
z
" id="DejaVuSans-74"/>
      <path d="M 8.5 21.578125 
L 8.5 54.6875 
L 17.484375 54.6875 
L 17.484375 21.921875 
Q 17.484375 14.15625 20.5 10.265625 
Q 23.53125 6.390625 29.59375 6.390625 
Q 36.859375 6.390625 41.078125 11.03125 
Q 45.3125 15.671875 45.3125 23.6875 
L 45.3125 54.6875 
L 54.296875 54.6875 
L 54.296875 0 
L 45.3125 0 
L 45.3125 8.40625 
Q 42.046875 3.421875 37.71875 1 
Q 33.40625 -1.421875 27.6875 -1.421875 
Q 18.265625 -1.421875 13.375 4.4375 
Q 8.5 10.296875 8.5 21.578125 
z
M 31.109375 56 
z
" id="DejaVuSans-75"/>
      <path d="M 11.71875 12.40625 
L 22.015625 12.40625 
L 22.015625 4 
L 14.015625 -11.625 
L 7.71875 -11.625 
L 11.71875 4 
z
" id="DejaVuSans-2c"/>
      <path d="M 18.109375 8.203125 
L 18.109375 -20.796875 
L 9.078125 -20.796875 
L 9.078125 54.6875 
L 18.109375 54.6875 
L 18.109375 46.390625 
Q 20.953125 51.265625 25.265625 53.625 
Q 29.59375 56 35.59375 56 
Q 45.5625 56 51.78125 48.09375 
Q 58.015625 40.1875 58.015625 27.296875 
Q 58.015625 14.40625 51.78125 6.484375 
Q 45.5625 -1.421875 35.59375 -1.421875 
Q 29.59375 -1.421875 25.265625 0.953125 
Q 20.953125 3.328125 18.109375 8.203125 
z
M 48.6875 27.296875 
Q 48.6875 37.203125 44.609375 42.84375 
Q 40.53125 48.484375 33.40625 48.484375 
Q 26.265625 48.484375 22.1875 42.84375 
Q 18.109375 37.203125 18.109375 27.296875 
Q 18.109375 17.390625 22.1875 11.75 
Q 26.265625 6.109375 33.40625 6.109375 
Q 40.53125 6.109375 44.609375 11.75 
Q 48.6875 17.390625 48.6875 27.296875 
z
" id="DejaVuSans-70"/>
     </defs>
     <g transform="translate(16.139531 294.999375)rotate(-90)scale(0.17 -0.17)">
      <use xlink:href="#DejaVuSans-46"/>
      <use x="57.410156" xlink:href="#DejaVuSans-72"/>
      <use x="98.523438" xlink:href="#DejaVuSans-61"/>
      <use x="159.802734" xlink:href="#DejaVuSans-63"/>
      <use x="214.783203" xlink:href="#DejaVuSans-74"/>
      <use x="253.992188" xlink:href="#DejaVuSans-69"/>
      <use x="281.775391" xlink:href="#DejaVuSans-6f"/>
      <use x="342.957031" xlink:href="#DejaVuSans-6e"/>
      <use x="406.335938" xlink:href="#DejaVuSans-20"/>
      <use x="438.123047" xlink:href="#DejaVuSans-6f"/>
      <use x="499.304688" xlink:href="#DejaVuSans-66"/>
      <use x="534.509766" xlink:href="#DejaVuSans-20"/>
      <use x="566.296875" xlink:href="#DejaVuSans-66"/>
      <use x="601.501953" xlink:href="#DejaVuSans-75"/>
      <use x="664.880859" xlink:href="#DejaVuSans-6e"/>
      <use x="728.259766" xlink:href="#DejaVuSans-63"/>
      <use x="783.240234" xlink:href="#DejaVuSans-74"/>
      <use x="822.449219" xlink:href="#DejaVuSans-69"/>
      <use x="850.232422" xlink:href="#DejaVuSans-6f"/>
      <use x="911.414062" xlink:href="#DejaVuSans-6e"/>
      <use x="974.792969" xlink:href="#DejaVuSans-2c"/>
      <use x="1006.580078" xlink:href="#DejaVuSans-74"/>
      <use x="1045.789062" xlink:href="#DejaVuSans-61"/>
      <use x="1107.068359" xlink:href="#DejaVuSans-72"/>
      <use x="1148.166016" xlink:href="#DejaVuSans-67"/>
      <use x="1211.642578" xlink:href="#DejaVuSans-65"/>
      <use x="1273.166016" xlink:href="#DejaVuSans-74"/>
      <use x="1312.375" xlink:href="#DejaVuSans-20"/>
      <use x="1344.162109" xlink:href="#DejaVuSans-70"/>
      <use x="1407.638672" xlink:href="#DejaVuSans-61"/>
      <use x="1468.917969" xlink:href="#DejaVuSans-69"/>
      <use x="1496.701172" xlink:href="#DejaVuSans-72"/>
      <use x="1537.814453" xlink:href="#DejaVuSans-73"/>
     </g>
    </g>
   </g>
   <g id="line2d_26">
    <defs>
     <path d="M 0 1.5 
C 0.397805 1.5 0.77937 1.341951 1.06066 1.06066 
C 1.341951 0.77937 1.5 0.397805 1.5 0 
C 1.5 -0.397805 1.341951 -0.77937 1.06066 -1.06066 
C 0.77937 -1.341951 0.397805 -1.5 0 -1.5 
C -0.397805 -1.5 -0.77937 -1.341951 -1.06066 -1.06066 
C -1.341951 -0.77937 -1.5 -0.397805 -1.5 0 
C -1.5 0.397805 -1.341951 0.77937 -1.06066 1.06066 
C -0.77937 1.341951 -0.397805 1.5 0 1.5 
z
" id="mc4b90e51d6" style="stroke:#f5deb3;"/>
    </defs>
    <g>
     <use style="fill:#f5deb3;stroke:#f5deb3;" x="292.685471" xlink:href="#mc4b90e51d6" y="170.416361"/>
     <use style="fill:#f5deb3;stroke:#f5deb3;" x="292.685471" xlink:href="#mc4b90e51d6" y="170.416361"/>
    </g>
   </g>
   <g id="line2d_27">
    <g>
     <use style="fill:#f5deb3;stroke:#f5deb3;stroke-linejoin:miter;stroke-width:1.5;" x="150.322014" xlink:href="#me8fb0e4f3f" y="267.221413"/>
     <use style="fill:#f5deb3;stroke:#f5deb3;stroke-linejoin:miter;stroke-width:1.5;" x="182.821959" xlink:href="#me8fb0e4f3f" y="216.514005"/>
     <use style="fill:#f5deb3;stroke:#f5deb3;stroke-linejoin:miter;stroke-width:1.5;" x="253.968452" xlink:href="#me8fb0e4f3f" y="184.245654"/>
     <use style="fill:#f5deb3;stroke:#f5deb3;stroke-linejoin:miter;stroke-width:1.5;" x="292.685471" xlink:href="#me8fb0e4f3f" y="170.416361"/>
     <use style="fill:#f5deb3;stroke:#f5deb3;stroke-linejoin:miter;stroke-width:1.5;" x="333.429677" xlink:href="#me8fb0e4f3f" y="170.416361"/>
    </g>
   </g>
   <g id="line2d_28">
    <defs>
     <path d="M 0 1.5 
C 0.397805 1.5 0.77937 1.341951 1.06066 1.06066 
C 1.341951 0.77937 1.5 0.397805 1.5 0 
C 1.5 -0.397805 1.341951 -0.77937 1.06066 -1.06066 
C 0.77937 -1.341951 0.397805 -1.5 0 -1.5 
C -0.397805 -1.5 -0.77937 -1.341951 -1.06066 -1.06066 
C -1.341951 -0.77937 -1.5 -0.397805 -1.5 0 
C -1.5 0.397805 -1.341951 0.77937 -1.06066 1.06066 
C -0.77937 1.341951 -0.397805 1.5 0 1.5 
z
" id="m47a0c2312b" style="stroke:#999999;"/>
    </defs>
    <g>
     <use style="fill:#999999;stroke:#999999;" x="306.94219" xlink:href="#m47a0c2312b" y="262.611649"/>
     <use style="fill:#999999;stroke:#999999;" x="306.94219" xlink:href="#m47a0c2312b" y="262.611649"/>
    </g>
   </g>
   <g id="line2d_29">
    <path d="M -1 286.121448 
L 95.122707 286.121448 
L 95.122707 285.660471 
L 95.167222 285.660471 
L 95.167222 285.199495 
L 113.342265 285.199495 
L 113.342265 284.738518 
L 114.737216 284.738518 
L 114.737216 284.277542 
L 115.03398 284.277542 
L 115.03398 283.355589 
L 118.783234 283.355589 
L 118.783234 281.97266 
L 120.220057 281.97266 
L 120.220057 281.511683 
L 121.925684 281.511683 
L 121.925684 280.58973 
L 123.37414 280.58973 
L 123.37414 279.667777 
L 139.601891 279.667777 
L 139.601891 279.206801 
L 141.390398 279.206801 
L 141.390398 278.745825 
L 153.31893 278.745825 
L 153.31893 278.284848 
L 154.808631 278.284848 
L 154.808631 277.362895 
L 155.970639 277.362895 
L 155.970639 276.440942 
L 161.309841 276.440942 
L 161.309841 275.979966 
L 172.513078 275.979966 
L 172.513078 274.13606 
L 174.48459 274.13606 
L 174.48459 273.675084 
L 181.298192 273.675084 
L 181.298192 273.214107 
L 188.801365 273.214107 
L 188.801365 271.831178 
L 200.404453 271.831178 
L 200.404453 271.370201 
L 204.444374 271.370201 
L 204.444374 270.909225 
L 215.1416 270.909225 
L 215.1416 270.448249 
L 221.647451 270.448249 
L 221.647451 269.987272 
L 223.742623 269.987272 
L 223.742623 269.065319 
L 226.661071 269.065319 
L 226.661071 267.68239 
L 230.949258 267.68239 
L 230.949258 267.221413 
L 260.561139 267.221413 
L 260.561139 266.760437 
L 275.492163 266.760437 
L 275.492163 266.299461 
L 279.874169 266.299461 
L 279.874169 265.838484 
L 283.363643 265.838484 
L 283.363643 265.377508 
L 297.581194 265.377508 
L 297.581194 264.916531 
L 298.910679 264.916531 
L 298.910679 264.455555 
L 298.910698 264.455555 
L 298.910698 263.994578 
L 304.349785 263.994578 
L 304.349785 263.533602 
L 305.258038 263.533602 
L 305.258038 263.072625 
L 306.94219 263.072625 
L 306.94219 262.611649 
L 333.429677 262.611649 
" style="fill:none;stroke:#999999;stroke-linecap:square;stroke-width:1.5;"/>
   </g>
   <g id="line2d_30"/>
   <g id="line2d_31">
    <path d="M 0 0 
" style="fill:none;stroke:#999999;stroke-linecap:square;stroke-width:1.5;"/>
   </g>
   <g id="line2d_32">
    <path clip-path="url(#p4520f95e33)" d="M 254.198892 267.221413 
" style="fill:none;stroke:#999999;stroke-linecap:square;stroke-width:1.5;"/>
    <defs>
     <path d="M -12 12 
L 12 -12 
M -12 -12 
L 12 12 
" id="mf29b904faf" style="stroke:#999999;stroke-width:3;"/>
    </defs>
    <g clip-path="url(#p4520f95e33)">
     <use style="fill:#999999;stroke:#999999;stroke-width:3;" x="254.198892" xlink:href="#mf29b904faf" y="267.221413"/>
    </g>
   </g>
   <g id="line2d_33">
    <path clip-path="url(#p4520f95e33)" d="M 56.12 294.88 
L 56.12 294.88 
L 56.12 294.88 
L 56.12 294.88 
L 399.984 294.88 
" style="fill:none;stroke:#999999;stroke-linecap:square;stroke-width:1.5;"/>
   </g>
   <g id="line2d_34"/>
   <g id="line2d_35">
    <path clip-path="url(#p4520f95e33)" d="M 0 0 
" style="fill:none;stroke:#999999;stroke-linecap:square;stroke-width:1.5;"/>
   </g>
   <g id="line2d_36">
    <g>
     <use style="fill:#999999;stroke:#999999;" x="310.364345" xlink:href="#m47a0c2312b" y="271.831178"/>
     <use style="fill:#999999;stroke:#999999;" x="310.364345" xlink:href="#m47a0c2312b" y="271.831178"/>
    </g>
   </g>
   <g id="line2d_37">
    <path d="M -1 291.192188 
L 11.5548 291.192188 
L 11.5548 289.809259 
L 16.504332 289.809259 
L 16.504332 289.348283 
L 23.480305 289.348283 
L 23.480305 288.887306 
L 40.355341 288.887306 
L 40.355341 288.42633 
L 44.194496 288.42633 
L 44.194496 287.504377 
L 45.033924 287.504377 
L 45.033924 287.0434 
L 49.983455 287.0434 
L 49.983455 286.582424 
L 60.299856 286.582424 
L 60.299856 286.121448 
L 71.884659 286.121448 
L 71.884659 285.660471 
L 107.466521 285.660471 
L 107.466521 285.199495 
L 109.163567 285.199495 
L 109.163567 284.738518 
L 132.12482 284.738518 
L 132.12482 284.277542 
L 132.80639 284.277542 
L 132.80639 283.355589 
L 141.287138 283.355589 
L 141.287138 282.433636 
L 142.589115 282.433636 
L 142.589115 281.97266 
L 149.203588 281.97266 
L 149.203588 281.050707 
L 152.254308 281.050707 
L 152.254308 280.128754 
L 188.68394 280.128754 
L 188.68394 278.745825 
L 200.485552 278.745825 
L 200.485552 278.284848 
L 220.898552 278.284848 
L 220.898552 277.823872 
L 229.011482 277.823872 
L 229.011482 276.901919 
L 231.687137 276.901919 
L 231.687137 276.440942 
L 256.871854 276.440942 
L 256.871854 275.979966 
L 267.51248 275.979966 
L 267.51248 275.058013 
L 274.037914 275.058013 
L 274.037914 274.597037 
L 285.500764 274.597037 
L 285.500764 274.13606 
L 288.085784 274.13606 
L 288.085784 273.675084 
L 290.332661 273.675084 
L 290.332661 273.214107 
L 292.319712 273.214107 
L 292.319712 272.292154 
L 310.364345 272.292154 
L 310.364345 271.831178 
L 333.429677 271.831178 
" style="fill:none;stroke:#999999;stroke-linecap:square;stroke-width:1.5;"/>
   </g>
   <g id="line2d_38"/>
   <g id="line2d_39">
    <path d="M 0 0 
" style="fill:none;stroke:#999999;stroke-linecap:square;stroke-width:1.5;"/>
   </g>
   <g id="line2d_40">
    <path clip-path="url(#p4520f95e33)" d="M 254.198341 276.440942 
" style="fill:none;stroke:#999999;stroke-linecap:square;stroke-width:1.5;"/>
    <g clip-path="url(#p4520f95e33)">
     <use style="fill:#999999;stroke:#999999;stroke-width:3;" x="254.198341" xlink:href="#mf29b904faf" y="276.440942"/>
    </g>
   </g>
   <g id="line2d_41">
    <g>
     <use style="fill:#999999;stroke:#999999;" x="306.60954" xlink:href="#m47a0c2312b" y="276.440942"/>
     <use style="fill:#999999;stroke:#999999;" x="306.60954" xlink:href="#m47a0c2312b" y="276.440942"/>
    </g>
   </g>
   <g id="line2d_42">
    <path d="M -1 294.419024 
L 16.504332 294.419024 
L 16.504332 291.653165 
L 23.480305 291.653165 
L 23.480305 290.731212 
L 50.587197 290.731212 
L 50.587197 290.270236 
L 70.071946 290.270236 
L 70.071946 287.965353 
L 71.182322 287.965353 
L 71.182322 286.582424 
L 73.834464 286.582424 
L 73.834464 286.121448 
L 83.462579 286.121448 
L 83.462579 285.660471 
L 133.944796 285.660471 
L 133.944796 284.738518 
L 172.623838 284.738518 
L 172.623838 284.277542 
L 174.091753 284.277542 
L 174.091753 283.355589 
L 190.933493 283.355589 
L 190.933493 282.894612 
L 197.102044 282.894612 
L 197.102044 282.433636 
L 198.225989 282.433636 
L 198.225989 281.511683 
L 198.503424 281.511683 
L 198.503424 281.050707 
L 236.576297 281.050707 
L 236.576297 280.58973 
L 242.260014 280.58973 
L 242.260014 280.128754 
L 254.829743 280.128754 
L 254.829743 279.667777 
L 267.586102 279.667777 
L 267.586102 279.206801 
L 273.598247 279.206801 
L 273.598247 278.745825 
L 273.653622 278.745825 
L 273.653622 277.823872 
L 294.420946 277.823872 
L 294.420946 277.362895 
L 296.288098 277.362895 
L 296.288098 276.901919 
L 306.60954 276.901919 
L 306.60954 276.440942 
L 333.429677 276.440942 
" style="fill:none;stroke:#999999;stroke-linecap:square;stroke-width:1.5;"/>
   </g>
   <g id="line2d_43"/>
   <g id="line2d_44">
    <path d="M 0 0 
" style="fill:none;stroke:#999999;stroke-linecap:square;stroke-width:1.5;"/>
   </g>
   <g id="line2d_45">
    <path clip-path="url(#p4520f95e33)" d="M 293.814009 277.823872 
" style="fill:none;stroke:#999999;stroke-linecap:square;stroke-width:1.5;"/>
    <g clip-path="url(#p4520f95e33)">
     <use style="fill:#999999;stroke:#999999;stroke-width:3;" x="293.814009" xlink:href="#mf29b904faf" y="277.823872"/>
    </g>
   </g>
   <g id="line2d_46">
    <g>
     <use style="fill:#999999;stroke:#999999;" x="310.493377" xlink:href="#m47a0c2312b" y="170.416361"/>
     <use style="fill:#999999;stroke:#999999;" x="310.493377" xlink:href="#m47a0c2312b" y="170.416361"/>
    </g>
   </g>
   <g id="line2d_47">
    <path d="M 135.449981 294.88 
L 135.449981 293.958047 
L 136.394375 293.958047 
L 136.394375 293.497071 
L 136.754909 293.497071 
L 136.754909 293.036094 
L 137.658401 293.036094 
L 137.658401 292.575118 
L 137.782083 292.575118 
L 137.782083 292.114141 
L 137.927116 292.114141 
L 137.934521 290.731212 
L 138.228126 290.731212 
L 138.228126 289.809259 
L 138.951411 289.809259 
L 138.951411 289.348283 
L 139.100793 289.348283 
L 139.111166 288.42633 
L 139.443257 288.42633 
L 139.443257 287.504377 
L 140.140982 287.504377 
L 140.140982 286.582424 
L 140.319138 286.582424 
L 140.319138 286.121448 
L 140.555965 286.121448 
L 140.555965 285.660471 
L 140.874029 285.660471 
L 140.874029 285.199495 
L 141.2597 285.199495 
L 141.2597 283.816565 
L 141.471959 283.816565 
L 141.471959 282.894612 
L 141.86523 282.894612 
L 141.86523 282.433636 
L 142.041061 282.433636 
L 142.041061 281.511683 
L 142.165976 281.511683 
L 142.165976 280.128754 
L 142.315836 280.128754 
L 142.350234 278.284848 
L 142.461556 278.284848 
L 142.467245 277.362895 
L 142.75494 277.362895 
L 142.75494 276.901919 
L 143.300035 276.901919 
L 143.300035 276.440942 
L 143.443062 276.440942 
L 143.534192 275.518989 
L 143.574244 275.518989 
L 143.574244 275.058013 
L 143.754651 275.058013 
L 143.754651 274.597037 
L 144.02696 274.597037 
L 144.02696 274.13606 
L 144.38431 274.13606 
L 144.38431 273.675084 
L 144.621831 273.675084 
L 144.624341 272.753131 
L 144.903089 272.753131 
L 144.937617 270.448249 
L 145.305689 270.448249 
L 145.305689 269.987272 
L 145.832918 269.987272 
L 145.832918 269.526296 
L 145.9634 269.526296 
L 146.049072 267.68239 
L 146.17793 267.68239 
L 146.20084 266.760437 
L 147.225149 266.760437 
L 147.225149 266.299461 
L 147.621759 266.299461 
L 147.651244 263.533602 
L 148.460986 263.533602 
L 148.460986 263.072625 
L 148.779236 263.072625 
L 148.842185 261.689696 
L 149.064589 261.689696 
L 149.064589 260.306767 
L 149.408103 260.306767 
L 149.489611 258.001885 
L 149.655225 258.001885 
L 149.655225 257.540908 
L 150.240744 257.540908 
L 150.240744 257.079932 
L 150.395728 257.079932 
L 150.413659 256.157979 
L 150.664518 256.157979 
L 150.664518 254.314073 
L 150.789465 254.314073 
L 150.890866 252.009191 
L 151.084999 252.009191 
L 151.084999 251.548214 
L 151.84199 251.548214 
L 151.84199 251.087238 
L 152.199469 251.087238 
L 152.249476 250.165285 
L 152.530665 250.165285 
L 152.530665 249.243332 
L 152.689978 249.243332 
L 152.689978 248.321379 
L 152.894438 248.321379 
L 152.894438 247.860403 
L 153.180628 247.860403 
L 153.185205 246.477474 
L 153.773053 246.477474 
L 153.773053 244.633568 
L 153.91108 244.633568 
L 153.91108 242.789662 
L 154.360009 242.789662 
L 154.360009 242.328686 
L 154.524501 242.328686 
L 154.524501 241.867709 
L 155.391394 241.867709 
L 155.391394 240.945756 
L 155.767029 240.945756 
L 155.767029 240.48478 
L 156.593698 240.48478 
L 156.593698 239.10185 
L 156.871743 239.10185 
L 156.871743 238.179898 
L 157.500389 238.179898 
L 157.565557 236.335992 
L 158.298331 236.335992 
L 158.298331 235.875015 
L 158.836097 235.875015 
L 158.836097 234.03111 
L 159.015305 234.03111 
L 159.015305 233.109157 
L 161.065524 233.109157 
L 161.15119 231.726227 
L 162.714093 231.726227 
L 162.714093 231.265251 
L 163.259476 231.265251 
L 163.259476 230.343298 
L 165.041158 230.343298 
L 165.041158 229.882322 
L 165.217924 229.882322 
L 165.217924 229.421345 
L 166.060348 229.421345 
L 166.060348 228.038416 
L 166.441536 228.038416 
L 166.441536 226.655487 
L 167.718117 226.655487 
L 167.785501 223.428651 
L 168.00479 223.428651 
L 168.066567 219.74084 
L 171.603488 219.74084 
L 171.603488 218.818887 
L 172.618909 218.818887 
L 172.618909 218.357911 
L 173.035359 218.357911 
L 173.035359 217.896934 
L 174.166265 217.896934 
L 174.166265 216.974981 
L 175.025831 216.974981 
L 175.025831 216.514005 
L 175.760903 216.514005 
L 175.827721 214.209123 
L 180.280625 214.209123 
L 180.280625 213.748146 
L 180.438762 213.748146 
L 180.438762 212.826193 
L 181.300872 212.826193 
L 181.300872 210.060335 
L 182.395205 210.060335 
L 182.459604 209.138382 
L 182.938451 209.138382 
L 182.938451 207.755452 
L 187.220133 207.755452 
L 187.220133 206.372523 
L 187.804495 206.372523 
L 187.804495 204.989594 
L 188.21263 204.989594 
L 188.21263 203.606664 
L 189.422122 203.606664 
L 189.422122 203.145688 
L 190.614618 203.145688 
L 190.614618 201.762759 
L 191.62704 201.762759 
L 191.62704 199.457876 
L 191.983452 199.457876 
L 191.983452 198.535924 
L 192.56587 198.535924 
L 192.56587 198.074947 
L 192.788359 198.074947 
L 192.788359 197.613971 
L 192.939593 197.613971 
L 192.939593 196.692018 
L 197.619091 196.692018 
L 197.619091 195.770065 
L 197.869743 195.770065 
L 197.869743 194.848112 
L 198.314684 194.848112 
L 198.314684 194.387136 
L 199.389198 194.387136 
L 199.389198 193.465183 
L 202.895348 193.465183 
L 202.895348 193.004206 
L 204.162953 193.004206 
L 204.162953 192.54323 
L 209.565738 192.54323 
L 209.565738 192.082253 
L 210.296731 192.082253 
L 210.296731 191.621277 
L 212.726989 191.621277 
L 212.726989 191.1603 
L 213.15675 191.1603 
L 213.15675 190.238348 
L 216.047424 190.238348 
L 216.047424 189.777371 
L 223.161388 189.777371 
L 223.161388 189.316395 
L 226.865801 189.316395 
L 226.865801 188.855418 
L 229.521502 188.855418 
L 229.521502 188.394442 
L 233.114416 188.394442 
L 233.114416 187.933465 
L 236.313569 187.933465 
L 236.313569 187.011512 
L 236.863406 187.011512 
L 236.863406 186.08956 
L 238.636138 186.08956 
L 238.636138 184.245654 
L 246.518391 184.245654 
L 246.518391 183.784677 
L 246.947919 183.784677 
L 246.947919 182.862724 
L 254.837606 182.862724 
L 254.946563 181.940772 
L 255.713285 181.940772 
L 255.713285 181.479795 
L 256.820643 181.479795 
L 256.820643 180.096866 
L 260.045389 180.096866 
L 260.045389 179.174913 
L 262.708884 179.174913 
L 262.708884 178.713936 
L 267.484909 178.713936 
L 267.484909 178.25296 
L 269.008703 178.25296 
L 269.008703 177.791984 
L 269.294572 177.791984 
L 269.294572 176.870031 
L 274.01905 176.870031 
L 274.01905 176.409054 
L 279.552173 176.409054 
L 279.552173 175.948078 
L 279.707653 175.948078 
L 279.707653 175.026125 
L 283.101082 175.026125 
L 283.101082 174.565149 
L 283.227688 174.565149 
L 283.227688 174.104172 
L 286.148423 174.104172 
L 286.148423 173.643196 
L 288.644541 173.643196 
L 288.644541 173.182219 
L 295.709418 173.182219 
L 295.709418 172.721243 
L 296.015594 172.721243 
L 296.015594 172.260266 
L 300.045907 172.260266 
L 300.045907 171.79929 
L 301.203743 171.79929 
L 301.203743 171.338313 
L 302.288549 171.338313 
L 302.288549 170.877337 
L 310.493377 170.877337 
L 310.493377 170.416361 
L 333.429677 170.416361 
L 333.429677 170.416361 
" style="fill:none;stroke:#999999;stroke-linecap:square;stroke-width:1.5;"/>
   </g>
   <g id="line2d_48"/>
   <g id="line2d_49">
    <path d="M 0 0 
" style="fill:none;stroke:#999999;stroke-linecap:square;stroke-width:1.5;"/>
   </g>
   <g id="line2d_50">
    <path clip-path="url(#p4520f95e33)" d="M 254.198341 182.862724 
" style="fill:none;stroke:#999999;stroke-linecap:square;stroke-width:1.5;"/>
    <g clip-path="url(#p4520f95e33)">
     <use style="fill:#999999;stroke:#999999;stroke-width:3;" x="254.198341" xlink:href="#mf29b904faf" y="182.862724"/>
    </g>
   </g>
   <g id="line2d_51">
    <g>
     <use style="fill:#999999;stroke:#999999;" x="308.970689" xlink:href="#m47a0c2312b" y="216.514005"/>
     <use style="fill:#999999;stroke:#999999;" x="308.970689" xlink:href="#m47a0c2312b" y="216.514005"/>
    </g>
   </g>
   <g id="line2d_52">
    <path d="M 149.664587 294.88 
L 149.664587 294.419024 
L 151.764293 294.419024 
L 151.764293 293.958047 
L 156.393574 293.958047 
L 156.393574 293.497071 
L 159.675368 293.497071 
L 159.675368 293.036094 
L 162.260126 293.036094 
L 162.260126 292.575118 
L 162.511245 292.575118 
L 162.511245 292.114141 
L 164.056989 292.114141 
L 164.056989 290.731212 
L 164.383915 290.731212 
L 164.383915 289.809259 
L 164.723477 289.809259 
L 164.723477 288.887306 
L 165.800716 288.887306 
L 165.800716 288.42633 
L 166.65692 288.42633 
L 166.710521 287.0434 
L 168.184994 287.0434 
L 168.184994 286.582424 
L 168.358279 286.582424 
L 168.358279 285.660471 
L 169.29242 285.660471 
L 169.29242 283.355589 
L 169.853825 283.355589 
L 169.853825 282.894612 
L 170.901086 282.894612 
L 170.901086 282.433636 
L 171.556354 282.433636 
L 171.556354 281.97266 
L 171.900582 281.97266 
L 171.900582 281.511683 
L 172.150635 281.511683 
L 172.150635 281.050707 
L 172.404596 281.050707 
L 172.404596 280.128754 
L 174.412335 280.128754 
L 174.412335 279.206801 
L 175.029688 279.206801 
L 175.029688 278.745825 
L 176.549227 278.745825 
L 176.549227 278.284848 
L 176.934082 278.284848 
L 176.934082 277.823872 
L 177.36336 277.823872 
L 177.36336 276.901919 
L 177.550189 276.901919 
L 177.564249 275.979966 
L 178.890942 275.979966 
L 178.890942 274.597037 
L 179.479954 274.597037 
L 179.570707 273.675084 
L 180.999706 273.675084 
L 180.999706 272.753131 
L 181.148996 272.753131 
L 181.148996 271.831178 
L 181.640394 271.831178 
L 181.640394 270.909225 
L 181.845206 270.909225 
L 181.899337 269.526296 
L 182.782679 269.526296 
L 182.782679 268.143366 
L 182.942781 268.143366 
L 182.942781 267.68239 
L 183.417233 267.68239 
L 183.417233 265.838484 
L 183.988779 265.838484 
L 183.988779 265.377508 
L 184.111314 265.377508 
L 184.111314 264.916531 
L 184.447261 264.916531 
L 184.447261 264.455555 
L 184.859749 264.455555 
L 184.859749 263.994578 
L 185.585567 263.994578 
L 185.585567 263.072625 
L 185.83001 263.072625 
L 185.880948 262.150673 
L 186.418497 262.150673 
L 186.418497 261.689696 
L 186.775982 261.689696 
L 186.843621 260.767743 
L 186.941044 260.767743 
L 186.941044 260.306767 
L 187.515728 260.306767 
L 187.58693 257.540908 
L 188.531526 257.540908 
L 188.531526 257.079932 
L 189.019781 257.079932 
L 189.038016 255.236026 
L 189.247653 255.236026 
L 189.247653 254.77505 
L 189.444943 254.77505 
L 189.444943 254.314073 
L 190.067458 254.314073 
L 190.067458 253.853097 
L 190.37161 253.853097 
L 190.443666 252.009191 
L 190.979174 252.009191 
L 190.979174 251.548214 
L 191.220497 251.548214 
L 191.319213 249.704309 
L 192.448867 249.704309 
L 192.533673 247.860403 
L 192.738213 247.860403 
L 192.83699 246.477474 
L 193.980521 246.477474 
L 193.980521 245.094544 
L 195.574107 245.094544 
L 195.574107 244.633568 
L 195.836455 244.633568 
L 195.903078 243.250638 
L 196.013166 243.250638 
L 196.013166 242.328686 
L 197.167265 242.328686 
L 197.167265 241.406733 
L 197.663536 241.406733 
L 197.663536 240.945756 
L 198.38915 240.945756 
L 198.38915 240.023803 
L 198.642492 240.023803 
L 198.642492 239.10185 
L 199.234872 239.10185 
L 199.234872 238.640874 
L 200.747645 238.640874 
L 200.747645 237.718921 
L 202.346762 237.718921 
L 202.384472 235.414039 
L 202.731847 235.414039 
L 202.731847 234.953062 
L 203.573845 234.953062 
L 203.573845 234.03111 
L 204.965662 234.03111 
L 204.965662 233.570133 
L 208.567973 233.570133 
L 208.567973 232.64818 
L 219.356683 232.64818 
L 219.356683 232.187204 
L 254.53809 232.187204 
L 254.629258 228.960369 
L 254.667166 228.960369 
L 254.773299 226.655487 
L 254.830133 226.655487 
L 254.919234 225.733534 
L 255.370401 225.733534 
L 255.370401 224.811581 
L 256.331203 224.811581 
L 256.331203 223.889628 
L 266.359857 223.889628 
L 266.413728 222.967675 
L 266.541178 222.967675 
L 266.541178 222.506699 
L 273.343491 222.506699 
L 273.379163 221.584746 
L 273.499445 221.584746 
L 273.499445 221.123769 
L 273.840545 221.123769 
L 273.840545 220.201816 
L 278.146426 220.201816 
L 278.146426 219.74084 
L 278.349938 219.74084 
L 278.349938 219.279863 
L 282.129395 219.279863 
L 282.129395 218.818887 
L 285.399674 218.818887 
L 285.399674 218.357911 
L 287.998834 218.357911 
L 287.998834 217.896934 
L 294.039598 217.896934 
L 294.039598 217.435958 
L 298.501744 217.435958 
L 298.501744 216.974981 
L 308.970689 216.974981 
L 308.970689 216.514005 
L 333.429677 216.514005 
L 333.429677 216.514005 
" style="fill:none;stroke:#999999;stroke-linecap:square;stroke-width:1.5;"/>
   </g>
   <g id="line2d_53"/>
   <g id="line2d_54">
    <path d="M 0 0 
" style="fill:none;stroke:#999999;stroke-linecap:square;stroke-width:1.5;"/>
   </g>
   <g id="line2d_55">
    <path clip-path="url(#p4520f95e33)" d="M 254.198345 232.187204 
" style="fill:none;stroke:#999999;stroke-linecap:square;stroke-width:1.5;"/>
    <g clip-path="url(#p4520f95e33)">
     <use style="fill:#999999;stroke:#999999;stroke-width:3;" x="254.198345" xlink:href="#mf29b904faf" y="232.187204"/>
    </g>
   </g>
   <g id="line2d_56">
    <g>
     <use style="fill:#999999;stroke:#999999;" x="297.66012" xlink:href="#m47a0c2312b" y="230.343298"/>
     <use style="fill:#999999;stroke:#999999;" x="297.66012" xlink:href="#m47a0c2312b" y="230.343298"/>
    </g>
   </g>
   <g id="line2d_57">
    <path d="M 139.169833 294.88 
L 139.169833 294.419024 
L 140.773891 294.419024 
L 140.773891 293.036094 
L 142.315836 293.036094 
L 142.315836 292.575118 
L 142.740949 292.575118 
L 142.740949 292.114141 
L 142.858122 292.114141 
L 142.858122 291.653165 
L 144.485784 291.653165 
L 144.485784 291.192188 
L 144.967158 291.192188 
L 145.070152 289.809259 
L 145.140908 289.809259 
L 145.140908 289.348283 
L 145.317743 289.348283 
L 145.317743 288.887306 
L 145.82356 288.887306 
L 145.82356 287.965353 
L 146.232861 287.965353 
L 146.232861 286.582424 
L 146.766092 286.582424 
L 146.766092 285.660471 
L 147.203564 285.660471 
L 147.203564 284.738518 
L 147.332666 284.738518 
L 147.332666 283.816565 
L 148.380495 283.816565 
L 148.380495 283.355589 
L 148.8304 283.355589 
L 148.8304 282.894612 
L 149.083962 282.894612 
L 149.083962 282.433636 
L 150.237123 282.433636 
L 150.237123 281.97266 
L 150.352617 281.97266 
L 150.352617 281.050707 
L 150.584853 281.050707 
L 150.584853 280.58973 
L 152.276838 280.58973 
L 152.276838 280.128754 
L 152.62706 280.128754 
L 152.62706 278.745825 
L 153.426069 278.745825 
L 153.426069 278.284848 
L 153.671025 278.284848 
L 153.671025 277.362895 
L 154.732113 277.362895 
L 154.732113 276.440942 
L 155.756522 276.440942 
L 155.801132 274.13606 
L 156.209018 274.13606 
L 156.24098 272.753131 
L 156.5511 272.753131 
L 156.5511 272.292154 
L 156.925834 272.292154 
L 156.925834 270.909225 
L 157.891226 270.909225 
L 157.891226 269.526296 
L 159.691053 269.526296 
L 159.691053 269.065319 
L 160.97846 269.065319 
L 160.97846 268.143366 
L 163.396533 268.143366 
L 163.396533 267.221413 
L 167.494455 267.221413 
L 167.494455 266.760437 
L 168.174146 266.760437 
L 168.174146 265.838484 
L 176.721769 265.838484 
L 176.721769 265.377508 
L 177.316521 265.377508 
L 177.316521 264.916531 
L 179.605889 264.916531 
L 179.605889 264.455555 
L 181.083709 264.455555 
L 181.083709 261.689696 
L 181.559658 261.689696 
L 181.559658 260.767743 
L 183.177906 260.767743 
L 183.177906 260.306767 
L 184.51209 260.306767 
L 184.51209 259.84579 
L 186.24028 259.84579 
L 186.24028 258.923837 
L 189.739616 258.923837 
L 189.739616 258.001885 
L 190.191824 258.001885 
L 190.191824 256.618955 
L 193.134454 256.618955 
L 193.134454 256.157979 
L 194.761489 256.157979 
L 194.761489 255.236026 
L 197.579847 255.236026 
L 197.579847 254.77505 
L 198.350079 254.77505 
L 198.350079 253.853097 
L 200.421703 253.853097 
L 200.421703 252.009191 
L 200.771754 252.009191 
L 200.771754 251.087238 
L 204.1598 251.087238 
L 204.1598 250.165285 
L 204.838822 250.165285 
L 204.838822 249.243332 
L 205.017938 249.243332 
L 205.017938 248.782356 
L 206.389598 248.782356 
L 206.491368 246.93845 
L 208.377171 246.93845 
L 208.377171 246.477474 
L 210.608089 246.477474 
L 210.608089 246.016497 
L 211.445889 246.016497 
L 211.445889 245.094544 
L 212.869649 245.094544 
L 212.965032 243.711615 
L 216.22556 243.711615 
L 216.22556 243.250638 
L 217.383314 243.250638 
L 217.383314 242.328686 
L 219.304492 242.328686 
L 219.304492 241.867709 
L 220.901114 241.867709 
L 220.901114 241.406733 
L 225.205852 241.406733 
L 225.205852 240.945756 
L 225.612117 240.945756 
L 225.612117 240.48478 
L 226.472462 240.48478 
L 226.472462 240.023803 
L 235.745792 240.023803 
L 235.745792 239.562827 
L 242.492001 239.562827 
L 242.492001 238.179898 
L 251.739324 238.179898 
L 251.739324 235.875015 
L 261.23216 235.875015 
L 261.247682 234.953062 
L 264.938234 234.953062 
L 264.938234 234.03111 
L 269.997733 234.03111 
L 269.997733 233.570133 
L 277.466757 233.570133 
L 277.466757 233.109157 
L 280.095098 233.109157 
L 280.095098 232.187204 
L 286.415816 232.187204 
L 286.419409 231.265251 
L 289.686026 231.265251 
L 289.686026 230.804274 
L 297.66012 230.804274 
L 297.66012 230.343298 
L 333.429677 230.343298 
L 333.429677 230.343298 
" style="fill:none;stroke:#999999;stroke-linecap:square;stroke-width:1.5;"/>
   </g>
   <g id="line2d_58"/>
   <g id="line2d_59">
    <path d="M 0 0 
" style="fill:none;stroke:#999999;stroke-linecap:square;stroke-width:1.5;"/>
   </g>
   <g id="line2d_60">
    <path clip-path="url(#p4520f95e33)" d="M 254.198345 235.875015 
" style="fill:none;stroke:#999999;stroke-linecap:square;stroke-width:1.5;"/>
    <g clip-path="url(#p4520f95e33)">
     <use style="fill:#999999;stroke:#999999;stroke-width:3;" x="254.198345" xlink:href="#mf29b904faf" y="235.875015"/>
    </g>
   </g>
   <g id="line2d_61">
    <path d="M 333.429677 294.88 
L 333.429677 27.513663 
" style="fill:none;stroke:#000000;stroke-linecap:square;stroke-width:1.5;"/>
   </g>
   <g id="patch_3">
    <path d="M 56.12 294.88 
L 56.12 24.84 
" style="fill:none;stroke:#000000;stroke-linecap:square;stroke-linejoin:miter;stroke-width:0.8;"/>
   </g>
   <g id="patch_4">
    <path d="M 399.984 294.88 
L 399.984 24.84 
" style="fill:none;stroke:#000000;stroke-linecap:square;stroke-linejoin:miter;stroke-width:0.8;"/>
   </g>
   <g id="patch_5">
    <path d="M 56.12 294.88 
L 399.984 294.88 
" style="fill:none;stroke:#000000;stroke-linecap:square;stroke-linejoin:miter;stroke-width:0.8;"/>
   </g>
   <g id="patch_6">
    <path d="M 56.12 24.84 
L 399.984 24.84 
" style="fill:none;stroke:#000000;stroke-linecap:square;stroke-linejoin:miter;stroke-width:0.8;"/>
   </g>
   <g id="text_14">
    <!-- best 2016 -->
    <defs>
     <path d="M 48.6875 27.296875 
Q 48.6875 37.203125 44.609375 42.84375 
Q 40.53125 48.484375 33.40625 48.484375 
Q 26.265625 48.484375 22.1875 42.84375 
Q 18.109375 37.203125 18.109375 27.296875 
Q 18.109375 17.390625 22.1875 11.75 
Q 26.265625 6.109375 33.40625 6.109375 
Q 40.53125 6.109375 44.609375 11.75 
Q 48.6875 17.390625 48.6875 27.296875 
z
M 18.109375 46.390625 
Q 20.953125 51.265625 25.265625 53.625 
Q 29.59375 56 35.59375 56 
Q 45.5625 56 51.78125 48.09375 
Q 58.015625 40.1875 58.015625 27.296875 
Q 58.015625 14.40625 51.78125 6.484375 
Q 45.5625 -1.421875 35.59375 -1.421875 
Q 29.59375 -1.421875 25.265625 0.953125 
Q 20.953125 3.328125 18.109375 8.203125 
L 18.109375 0 
L 9.078125 0 
L 9.078125 75.984375 
L 18.109375 75.984375 
z
" id="DejaVuSans-62"/>
    </defs>
    <g transform="translate(369.479935 294.223611)scale(0.17 -0.17)">
     <use xlink:href="#DejaVuSans-62"/>
     <use x="63.476562" xlink:href="#DejaVuSans-65"/>
     <use x="125" xlink:href="#DejaVuSans-73"/>
     <use x="177.099609" xlink:href="#DejaVuSans-74"/>
     <use x="216.308594" xlink:href="#DejaVuSans-20"/>
     <use x="248.095703" xlink:href="#DejaVuSans-32"/>
     <use x="311.71875" xlink:href="#DejaVuSans-30"/>
     <use x="375.341797" xlink:href="#DejaVuSans-31"/>
     <use x="438.964844" xlink:href="#DejaVuSans-36"/>
    </g>
   </g>
   <g id="text_15">
    <!-- bbob-biobj f36, 40-D -->
    <defs>
     <path d="M 9.421875 54.6875 
L 18.40625 54.6875 
L 18.40625 -0.984375 
Q 18.40625 -11.421875 14.421875 -16.109375 
Q 10.453125 -20.796875 1.609375 -20.796875 
L -1.8125 -20.796875 
L -1.8125 -13.1875 
L 0.59375 -13.1875 
Q 5.71875 -13.1875 7.5625 -10.8125 
Q 9.421875 -8.453125 9.421875 -0.984375 
z
M 9.421875 75.984375 
L 18.40625 75.984375 
L 18.40625 64.59375 
L 9.421875 64.59375 
z
" id="DejaVuSans-6a"/>
     <path d="M 40.578125 39.3125 
Q 47.65625 37.796875 51.625 33 
Q 55.609375 28.21875 55.609375 21.1875 
Q 55.609375 10.40625 48.1875 4.484375 
Q 40.765625 -1.421875 27.09375 -1.421875 
Q 22.515625 -1.421875 17.65625 -0.515625 
Q 12.796875 0.390625 7.625 2.203125 
L 7.625 11.71875 
Q 11.71875 9.328125 16.59375 8.109375 
Q 21.484375 6.890625 26.8125 6.890625 
Q 36.078125 6.890625 40.9375 10.546875 
Q 45.796875 14.203125 45.796875 21.1875 
Q 45.796875 27.640625 41.28125 31.265625 
Q 36.765625 34.90625 28.71875 34.90625 
L 20.21875 34.90625 
L 20.21875 43.015625 
L 29.109375 43.015625 
Q 36.375 43.015625 40.234375 45.921875 
Q 44.09375 48.828125 44.09375 54.296875 
Q 44.09375 59.90625 40.109375 62.90625 
Q 36.140625 65.921875 28.71875 65.921875 
Q 24.65625 65.921875 20.015625 65.03125 
Q 15.375 64.15625 9.8125 62.3125 
L 9.8125 71.09375 
Q 15.4375 72.65625 20.34375 73.4375 
Q 25.25 74.21875 29.59375 74.21875 
Q 40.828125 74.21875 47.359375 69.109375 
Q 53.90625 64.015625 53.90625 55.328125 
Q 53.90625 49.265625 50.4375 45.09375 
Q 46.96875 40.921875 40.578125 39.3125 
z
" id="DejaVuSans-33"/>
     <path d="M 19.671875 64.796875 
L 19.671875 8.109375 
L 31.59375 8.109375 
Q 46.6875 8.109375 53.6875 14.9375 
Q 60.6875 21.78125 60.6875 36.53125 
Q 60.6875 51.171875 53.6875 57.984375 
Q 46.6875 64.796875 31.59375 64.796875 
z
M 9.8125 72.90625 
L 30.078125 72.90625 
Q 51.265625 72.90625 61.171875 64.09375 
Q 71.09375 55.28125 71.09375 36.53125 
Q 71.09375 17.671875 61.125 8.828125 
Q 51.171875 0 30.078125 0 
L 9.8125 0 
z
" id="DejaVuSans-44"/>
    </defs>
    <g transform="translate(59.55864 35.290806)scale(0.102 -0.102)">
     <use xlink:href="#DejaVuSans-62"/>
     <use x="63.476562" xlink:href="#DejaVuSans-62"/>
     <use x="126.953125" xlink:href="#DejaVuSans-6f"/>
     <use x="188.134766" xlink:href="#DejaVuSans-62"/>
     <use x="251.611328" xlink:href="#DejaVuSans-2d"/>
     <use x="287.695312" xlink:href="#DejaVuSans-62"/>
     <use x="351.171875" xlink:href="#DejaVuSans-69"/>
     <use x="378.955078" xlink:href="#DejaVuSans-6f"/>
     <use x="440.136719" xlink:href="#DejaVuSans-62"/>
     <use x="503.613281" xlink:href="#DejaVuSans-6a"/>
     <use x="531.396484" xlink:href="#DejaVuSans-20"/>
     <use x="563.183594" xlink:href="#DejaVuSans-66"/>
     <use x="598.388672" xlink:href="#DejaVuSans-33"/>
     <use x="662.011719" xlink:href="#DejaVuSans-36"/>
     <use x="725.634766" xlink:href="#DejaVuSans-2c"/>
     <use x="757.421875" xlink:href="#DejaVuSans-20"/>
     <use x="789.208984" xlink:href="#DejaVuSans-34"/>
     <use x="852.832031" xlink:href="#DejaVuSans-30"/>
     <use x="916.455078" xlink:href="#DejaVuSans-2d"/>
     <use x="952.539062" xlink:href="#DejaVuSans-44"/>
    </g>
    <!-- 58 targets: 1..-1.0e-4 -->
    <defs>
     <path d="M 10.796875 72.90625 
L 49.515625 72.90625 
L 49.515625 64.59375 
L 19.828125 64.59375 
L 19.828125 46.734375 
Q 21.96875 47.46875 24.109375 47.828125 
Q 26.265625 48.1875 28.421875 48.1875 
Q 40.625 48.1875 47.75 41.5 
Q 54.890625 34.8125 54.890625 23.390625 
Q 54.890625 11.625 47.5625 5.09375 
Q 40.234375 -1.421875 26.90625 -1.421875 
Q 22.3125 -1.421875 17.546875 -0.640625 
Q 12.796875 0.140625 7.71875 1.703125 
L 7.71875 11.625 
Q 12.109375 9.234375 16.796875 8.0625 
Q 21.484375 6.890625 26.703125 6.890625 
Q 35.15625 6.890625 40.078125 11.328125 
Q 45.015625 15.765625 45.015625 23.390625 
Q 45.015625 31 40.078125 35.4375 
Q 35.15625 39.890625 26.703125 39.890625 
Q 22.75 39.890625 18.8125 39.015625 
Q 14.890625 38.140625 10.796875 36.28125 
z
" id="DejaVuSans-35"/>
     <path d="M 11.71875 12.40625 
L 22.015625 12.40625 
L 22.015625 0 
L 11.71875 0 
z
M 11.71875 51.703125 
L 22.015625 51.703125 
L 22.015625 39.3125 
L 11.71875 39.3125 
z
" id="DejaVuSans-3a"/>
    </defs>
    <g transform="translate(59.55864 46.712575)scale(0.102 -0.102)">
     <use xlink:href="#DejaVuSans-35"/>
     <use x="63.623047" xlink:href="#DejaVuSans-38"/>
     <use x="127.246094" xlink:href="#DejaVuSans-20"/>
     <use x="159.033203" xlink:href="#DejaVuSans-74"/>
     <use x="198.242188" xlink:href="#DejaVuSans-61"/>
     <use x="259.521484" xlink:href="#DejaVuSans-72"/>
     <use x="300.619141" xlink:href="#DejaVuSans-67"/>
     <use x="364.095703" xlink:href="#DejaVuSans-65"/>
     <use x="425.619141" xlink:href="#DejaVuSans-74"/>
     <use x="464.828125" xlink:href="#DejaVuSans-73"/>
     <use x="516.927734" xlink:href="#DejaVuSans-3a"/>
     <use x="550.619141" xlink:href="#DejaVuSans-20"/>
     <use x="582.40625" xlink:href="#DejaVuSans-31"/>
     <use x="646.029297" xlink:href="#DejaVuSans-2e"/>
     <use x="677.816406" xlink:href="#DejaVuSans-2e"/>
     <use x="709.603516" xlink:href="#DejaVuSans-2d"/>
     <use x="745.6875" xlink:href="#DejaVuSans-31"/>
     <use x="809.310547" xlink:href="#DejaVuSans-2e"/>
     <use x="841.097656" xlink:href="#DejaVuSans-30"/>
     <use x="904.720703" xlink:href="#DejaVuSans-65"/>
     <use x="966.244141" xlink:href="#DejaVuSans-2d"/>
     <use x="1002.328125" xlink:href="#DejaVuSans-34"/>
    </g>
    <!-- 10 instances -->
    <g transform="translate(59.55864 58.134344)scale(0.102 -0.102)">
     <use xlink:href="#DejaVuSans-31"/>
     <use x="63.623047" xlink:href="#DejaVuSans-30"/>
     <use x="127.246094" xlink:href="#DejaVuSans-20"/>
     <use x="159.033203" xlink:href="#DejaVuSans-69"/>
     <use x="186.816406" xlink:href="#DejaVuSans-6e"/>
     <use x="250.195312" xlink:href="#DejaVuSans-73"/>
     <use x="302.294922" xlink:href="#DejaVuSans-74"/>
     <use x="341.503906" xlink:href="#DejaVuSans-61"/>
     <use x="402.783203" xlink:href="#DejaVuSans-6e"/>
     <use x="466.162109" xlink:href="#DejaVuSans-63"/>
     <use x="521.142578" xlink:href="#DejaVuSans-65"/>
     <use x="582.666016" xlink:href="#DejaVuSans-73"/>
    </g>
   </g>
   <g id="text_16">
    <!-- v2.0.778, hv-hash=ff0e71e8cd978373 -->
    <defs>
     <path d="M 8.203125 72.90625 
L 55.078125 72.90625 
L 55.078125 68.703125 
L 28.609375 0 
L 18.3125 0 
L 43.21875 64.59375 
L 8.203125 64.59375 
z
" id="DejaVuSans-37"/>
     <path d="M 54.890625 33.015625 
L 54.890625 0 
L 45.90625 0 
L 45.90625 32.71875 
Q 45.90625 40.484375 42.875 44.328125 
Q 39.84375 48.1875 33.796875 48.1875 
Q 26.515625 48.1875 22.3125 43.546875 
Q 18.109375 38.921875 18.109375 30.90625 
L 18.109375 0 
L 9.078125 0 
L 9.078125 75.984375 
L 18.109375 75.984375 
L 18.109375 46.1875 
Q 21.34375 51.125 25.703125 53.5625 
Q 30.078125 56 35.796875 56 
Q 45.21875 56 50.046875 50.171875 
Q 54.890625 44.34375 54.890625 33.015625 
z
" id="DejaVuSans-68"/>
     <path d="M 10.59375 45.40625 
L 73.1875 45.40625 
L 73.1875 37.203125 
L 10.59375 37.203125 
z
M 10.59375 25.484375 
L 73.1875 25.484375 
L 73.1875 17.1875 
L 10.59375 17.1875 
z
" id="DejaVuSans-3d"/>
     <path d="M 10.984375 1.515625 
L 10.984375 10.5 
Q 14.703125 8.734375 18.5 7.8125 
Q 22.3125 6.890625 25.984375 6.890625 
Q 35.75 6.890625 40.890625 13.453125 
Q 46.046875 20.015625 46.78125 33.40625 
Q 43.953125 29.203125 39.59375 26.953125 
Q 35.25 24.703125 29.984375 24.703125 
Q 19.046875 24.703125 12.671875 31.3125 
Q 6.296875 37.9375 6.296875 49.421875 
Q 6.296875 60.640625 12.9375 67.421875 
Q 19.578125 74.21875 30.609375 74.21875 
Q 43.265625 74.21875 49.921875 64.515625 
Q 56.59375 54.828125 56.59375 36.375 
Q 56.59375 19.140625 48.40625 8.859375 
Q 40.234375 -1.421875 26.421875 -1.421875 
Q 22.703125 -1.421875 18.890625 -0.6875 
Q 15.09375 0.046875 10.984375 1.515625 
z
M 30.609375 32.421875 
Q 37.25 32.421875 41.125 36.953125 
Q 45.015625 41.5 45.015625 49.421875 
Q 45.015625 57.28125 41.125 61.84375 
Q 37.25 66.40625 30.609375 66.40625 
Q 23.96875 66.40625 20.09375 61.84375 
Q 16.21875 57.28125 16.21875 49.421875 
Q 16.21875 41.5 20.09375 36.953125 
Q 23.96875 32.421875 30.609375 32.421875 
z
" id="DejaVuSans-39"/>
    </defs>
    <g style="fill:#808080;" transform="translate(131.294188 290.099912)scale(0.1 -0.1)">
     <use xlink:href="#DejaVuSans-76"/>
     <use x="59.179688" xlink:href="#DejaVuSans-32"/>
     <use x="122.802734" xlink:href="#DejaVuSans-2e"/>
     <use x="154.589844" xlink:href="#DejaVuSans-30"/>
     <use x="218.212891" xlink:href="#DejaVuSans-2e"/>
     <use x="250" xlink:href="#DejaVuSans-37"/>
     <use x="313.623047" xlink:href="#DejaVuSans-37"/>
     <use x="377.246094" xlink:href="#DejaVuSans-38"/>
     <use x="440.869141" xlink:href="#DejaVuSans-2c"/>
     <use x="472.65625" xlink:href="#DejaVuSans-20"/>
     <use x="504.443359" xlink:href="#DejaVuSans-68"/>
     <use x="567.822266" xlink:href="#DejaVuSans-76"/>
     <use x="626.970703" xlink:href="#DejaVuSans-2d"/>
     <use x="663.054688" xlink:href="#DejaVuSans-68"/>
     <use x="726.433594" xlink:href="#DejaVuSans-61"/>
     <use x="787.712891" xlink:href="#DejaVuSans-73"/>
     <use x="839.8125" xlink:href="#DejaVuSans-68"/>
     <use x="903.191406" xlink:href="#DejaVuSans-3d"/>
     <use x="986.980469" xlink:href="#DejaVuSans-66"/>
     <use x="1022.185547" xlink:href="#DejaVuSans-66"/>
     <use x="1057.390625" xlink:href="#DejaVuSans-30"/>
     <use x="1121.013672" xlink:href="#DejaVuSans-65"/>
     <use x="1182.537109" xlink:href="#DejaVuSans-37"/>
     <use x="1246.160156" xlink:href="#DejaVuSans-31"/>
     <use x="1309.783203" xlink:href="#DejaVuSans-65"/>
     <use x="1371.306641" xlink:href="#DejaVuSans-38"/>
     <use x="1434.929688" xlink:href="#DejaVuSans-63"/>
     <use x="1489.910156" xlink:href="#DejaVuSans-64"/>
     <use x="1553.386719" xlink:href="#DejaVuSans-39"/>
     <use x="1617.009766" xlink:href="#DejaVuSans-37"/>
     <use x="1680.632812" xlink:href="#DejaVuSans-38"/>
     <use x="1744.255859" xlink:href="#DejaVuSans-33"/>
     <use x="1807.878906" xlink:href="#DejaVuSans-37"/>
     <use x="1871.501953" xlink:href="#DejaVuSans-33"/>
    </g>
   </g>
   <g id="text_17">
    <!-- 36 Sharp ridge/Different Powers -->
    <defs>
     <path d="M 53.515625 70.515625 
L 53.515625 60.890625 
Q 47.90625 63.578125 42.921875 64.890625 
Q 37.9375 66.21875 33.296875 66.21875 
Q 25.25 66.21875 20.875 63.09375 
Q 16.5 59.96875 16.5 54.203125 
Q 16.5 49.359375 19.40625 46.890625 
Q 22.3125 44.4375 30.421875 42.921875 
L 36.375 41.703125 
Q 47.40625 39.59375 52.65625 34.296875 
Q 57.90625 29 57.90625 20.125 
Q 57.90625 9.515625 50.796875 4.046875 
Q 43.703125 -1.421875 29.984375 -1.421875 
Q 24.8125 -1.421875 18.96875 -0.25 
Q 13.140625 0.921875 6.890625 3.21875 
L 6.890625 13.375 
Q 12.890625 10.015625 18.65625 8.296875 
Q 24.421875 6.59375 29.984375 6.59375 
Q 38.421875 6.59375 43.015625 9.90625 
Q 47.609375 13.234375 47.609375 19.390625 
Q 47.609375 24.75 44.3125 27.78125 
Q 41.015625 30.8125 33.5 32.328125 
L 27.484375 33.5 
Q 16.453125 35.6875 11.515625 40.375 
Q 6.59375 45.0625 6.59375 53.421875 
Q 6.59375 63.09375 13.40625 68.65625 
Q 20.21875 74.21875 32.171875 74.21875 
Q 37.3125 74.21875 42.625 73.28125 
Q 47.953125 72.359375 53.515625 70.515625 
z
" id="DejaVuSans-53"/>
     <path d="M 19.671875 64.796875 
L 19.671875 37.40625 
L 32.078125 37.40625 
Q 38.96875 37.40625 42.71875 40.96875 
Q 46.484375 44.53125 46.484375 51.125 
Q 46.484375 57.671875 42.71875 61.234375 
Q 38.96875 64.796875 32.078125 64.796875 
z
M 9.8125 72.90625 
L 32.078125 72.90625 
Q 44.34375 72.90625 50.609375 67.359375 
Q 56.890625 61.8125 56.890625 51.125 
Q 56.890625 40.328125 50.609375 34.8125 
Q 44.34375 29.296875 32.078125 29.296875 
L 19.671875 29.296875 
L 19.671875 0 
L 9.8125 0 
z
" id="DejaVuSans-50"/>
     <path d="M 4.203125 54.6875 
L 13.1875 54.6875 
L 24.421875 12.015625 
L 35.59375 54.6875 
L 46.1875 54.6875 
L 57.421875 12.015625 
L 68.609375 54.6875 
L 77.59375 54.6875 
L 63.28125 0 
L 52.6875 0 
L 40.921875 44.828125 
L 29.109375 0 
L 18.5 0 
z
" id="DejaVuSans-77"/>
    </defs>
    <g transform="translate(67.425438 18.84)scale(0.2 -0.2)">
     <use xlink:href="#DejaVuSans-33"/>
     <use x="63.623047" xlink:href="#DejaVuSans-36"/>
     <use x="127.246094" xlink:href="#DejaVuSans-20"/>
     <use x="159.033203" xlink:href="#DejaVuSans-53"/>
     <use x="222.509766" xlink:href="#DejaVuSans-68"/>
     <use x="285.888672" xlink:href="#DejaVuSans-61"/>
     <use x="347.167969" xlink:href="#DejaVuSans-72"/>
     <use x="388.28125" xlink:href="#DejaVuSans-70"/>
     <use x="451.757812" xlink:href="#DejaVuSans-20"/>
     <use x="483.544922" xlink:href="#DejaVuSans-72"/>
     <use x="524.658203" xlink:href="#DejaVuSans-69"/>
     <use x="552.441406" xlink:href="#DejaVuSans-64"/>
     <use x="615.917969" xlink:href="#DejaVuSans-67"/>
     <use x="679.394531" xlink:href="#DejaVuSans-65"/>
     <use x="740.917969" xlink:href="#DejaVuSans-2f"/>
     <use x="774.609375" xlink:href="#DejaVuSans-44"/>
     <use x="851.611328" xlink:href="#DejaVuSans-69"/>
     <use x="879.394531" xlink:href="#DejaVuSans-66"/>
     <use x="914.599609" xlink:href="#DejaVuSans-66"/>
     <use x="949.804688" xlink:href="#DejaVuSans-65"/>
     <use x="1011.328125" xlink:href="#DejaVuSans-72"/>
     <use x="1052.410156" xlink:href="#DejaVuSans-65"/>
     <use x="1113.933594" xlink:href="#DejaVuSans-6e"/>
     <use x="1177.3125" xlink:href="#DejaVuSans-74"/>
     <use x="1216.521484" xlink:href="#DejaVuSans-20"/>
     <use x="1248.308594" xlink:href="#DejaVuSans-50"/>
     <use x="1308.564453" xlink:href="#DejaVuSans-6f"/>
     <use x="1369.746094" xlink:href="#DejaVuSans-77"/>
     <use x="1451.533203" xlink:href="#DejaVuSans-65"/>
     <use x="1513.056641" xlink:href="#DejaVuSans-72"/>
     <use x="1554.169922" xlink:href="#DejaVuSans-73"/>
    </g>
   </g>
  </g>
 </g>
 <defs>
  <clipPath id="p4520f95e33">
   <rect height="270.04" width="343.864" x="56.12" y="24.84"/>
  </clipPath>
 </defs>
</svg>
