<?xml version="1.0" encoding="utf-8" standalone="no"?>
<!DOCTYPE svg PUBLIC "-//W3C//DTD SVG 1.1//EN"
  "http://www.w3.org/Graphics/SVG/1.1/DTD/svg11.dtd">
<!-- Created with matplotlib (http://matplotlib.org/) -->
<svg height="345pt" version="1.1" viewBox="0 0 460 345" width="460pt" xmlns="http://www.w3.org/2000/svg" xmlns:xlink="http://www.w3.org/1999/xlink">
 <defs>
  <style type="text/css">
*{stroke-linecap:butt;stroke-linejoin:round;}
  </style>
 </defs>
 <g id="figure_1">
  <g id="patch_1">
   <path d="M 0 345.6 
L 460.8 345.6 
L 460.8 0 
L 0 0 
z
" style="fill:#ffffff;"/>
  </g>
  <g id="axes_1">
   <g id="patch_2">
    <path d="M 56.12 294.88 
L 399.984 294.88 
L 399.984 24.84 
L 56.12 24.84 
z
" style="fill:#ffffff;"/>
   </g>
   <g id="line2d_1">
    <path d="M -1 290.270236 
L 142.614514 290.270236 
L 142.614514 281.050707 
L 145.291213 281.050707 
L 145.291213 271.831178 
L 147.509675 271.831178 
L 147.509675 267.221413 
L 150.676877 267.221413 
L 150.676877 253.39212 
L 230.528812 253.39212 
L 230.528812 244.172591 
L 239.773829 244.172591 
L 239.773829 239.562827 
L 254.253665 239.562827 
L 254.253665 230.343298 
L 261.215302 230.343298 
L 261.215302 216.514005 
L 261.222557 216.514005 
L 261.222557 207.294476 
L 261.229216 207.294476 
L 261.229216 198.074947 
L 261.241391 198.074947 
L 261.241391 188.855418 
L 261.348049 188.855418 
L 261.348049 184.245654 
L 268.866025 184.245654 
L 268.866025 170.416361 
L 269.056968 170.416361 
L 269.056968 165.806596 
L 269.808284 165.806596 
L 269.808284 151.977303 
L 333.429677 151.977303 
" style="fill:none;stroke:#f5deb3;stroke-linecap:square;stroke-width:6;"/>
   </g>
   <g id="line2d_2">
    <path d="M 0 0 
" style="fill:none;stroke:#f5deb3;stroke-linecap:square;stroke-width:6;"/>
    <defs>
     <path d="M -0 7.778175 
L 7.778175 0 
L 0 -7.778175 
L -7.778175 -0 
z
" id="md503b121cf" style="stroke:#f5deb3;stroke-linejoin:miter;stroke-width:1.5;"/>
    </defs>
    <g>
     <use style="fill:#f5deb3;stroke:#f5deb3;stroke-linejoin:miter;stroke-width:1.5;" x="0" xlink:href="#md503b121cf" y="0"/>
    </g>
   </g>
   <g id="line2d_3">
    <path d="M 333.429677 151.977303 
L 363.933742 289.532673 
" style="fill:none;stroke:#f5deb3;stroke-linecap:square;stroke-width:6;"/>
    <g>
     <use style="fill:#f5deb3;stroke:#f5deb3;stroke-linejoin:miter;stroke-width:1.5;" x="333.429677" xlink:href="#md503b121cf" y="151.977303"/>
     <use style="fill:#f5deb3;stroke:#f5deb3;stroke-linejoin:miter;stroke-width:1.5;" x="363.933742" xlink:href="#md503b121cf" y="289.532673"/>
    </g>
   </g>
   <g id="matplotlib.axis_1">
    <g id="xtick_1">
     <g id="line2d_4">
      <path clip-path="url(#pa6fbe9b59d)" d="M 56.12 294.88 
L 56.12 24.84 
" style="fill:none;stroke:#b0b0b0;stroke-linecap:square;stroke-width:0.8;"/>
     </g>
     <g id="line2d_5">
      <defs>
       <path d="M 0 0 
L 0 3.5 
" id="m7f8a9daa6a" style="stroke:#000000;stroke-width:0.8;"/>
      </defs>
      <g>
       <use style="stroke:#000000;stroke-width:0.8;" x="56.12" xlink:href="#m7f8a9daa6a" y="294.88"/>
      </g>
     </g>
     <g id="text_1">
      <!-- 0 -->
      <defs>
       <path d="M 31.78125 66.40625 
Q 24.171875 66.40625 20.328125 58.90625 
Q 16.5 51.421875 16.5 36.375 
Q 16.5 21.390625 20.328125 13.890625 
Q 24.171875 6.390625 31.78125 6.390625 
Q 39.453125 6.390625 43.28125 13.890625 
Q 47.125 21.390625 47.125 36.375 
Q 47.125 51.421875 43.28125 58.90625 
Q 39.453125 66.40625 31.78125 66.40625 
z
M 31.78125 74.21875 
Q 44.046875 74.21875 50.515625 64.515625 
Q 56.984375 54.828125 56.984375 36.375 
Q 56.984375 17.96875 50.515625 8.265625 
Q 44.046875 -1.421875 31.78125 -1.421875 
Q 19.53125 -1.421875 13.0625 8.265625 
Q 6.59375 17.96875 6.59375 36.375 
Q 6.59375 54.828125 13.0625 64.515625 
Q 19.53125 74.21875 31.78125 74.21875 
z
" id="DejaVuSans-30"/>
      </defs>
      <g transform="translate(49.7575 317.076875)scale(0.2 -0.2)">
       <use xlink:href="#DejaVuSans-30"/>
      </g>
     </g>
    </g>
    <g id="xtick_2">
     <g id="line2d_6">
      <path clip-path="url(#pa6fbe9b59d)" d="M 135.351336 294.88 
L 135.351336 24.84 
" style="fill:none;stroke:#b0b0b0;stroke-linecap:square;stroke-width:0.8;"/>
     </g>
     <g id="line2d_7">
      <g>
       <use style="stroke:#000000;stroke-width:0.8;" x="135.351336" xlink:href="#m7f8a9daa6a" y="294.88"/>
      </g>
     </g>
     <g id="text_2">
      <!-- 2 -->
      <defs>
       <path d="M 19.1875 8.296875 
L 53.609375 8.296875 
L 53.609375 0 
L 7.328125 0 
L 7.328125 8.296875 
Q 12.9375 14.109375 22.625 23.890625 
Q 32.328125 33.6875 34.8125 36.53125 
Q 39.546875 41.84375 41.421875 45.53125 
Q 43.3125 49.21875 43.3125 52.78125 
Q 43.3125 58.59375 39.234375 62.25 
Q 35.15625 65.921875 28.609375 65.921875 
Q 23.96875 65.921875 18.8125 64.3125 
Q 13.671875 62.703125 7.8125 59.421875 
L 7.8125 69.390625 
Q 13.765625 71.78125 18.9375 73 
Q 24.125 74.21875 28.421875 74.21875 
Q 39.75 74.21875 46.484375 68.546875 
Q 53.21875 62.890625 53.21875 53.421875 
Q 53.21875 48.921875 51.53125 44.890625 
Q 49.859375 40.875 45.40625 35.40625 
Q 44.1875 33.984375 37.640625 27.21875 
Q 31.109375 20.453125 19.1875 8.296875 
z
" id="DejaVuSans-32"/>
      </defs>
      <g transform="translate(128.988836 317.076875)scale(0.2 -0.2)">
       <use xlink:href="#DejaVuSans-32"/>
      </g>
     </g>
    </g>
    <g id="xtick_3">
     <g id="line2d_8">
      <path clip-path="url(#pa6fbe9b59d)" d="M 214.582673 294.88 
L 214.582673 24.84 
" style="fill:none;stroke:#b0b0b0;stroke-linecap:square;stroke-width:0.8;"/>
     </g>
     <g id="line2d_9">
      <g>
       <use style="stroke:#000000;stroke-width:0.8;" x="214.582673" xlink:href="#m7f8a9daa6a" y="294.88"/>
      </g>
     </g>
     <g id="text_3">
      <!-- 4 -->
      <defs>
       <path d="M 37.796875 64.3125 
L 12.890625 25.390625 
L 37.796875 25.390625 
z
M 35.203125 72.90625 
L 47.609375 72.90625 
L 47.609375 25.390625 
L 58.015625 25.390625 
L 58.015625 17.1875 
L 47.609375 17.1875 
L 47.609375 0 
L 37.796875 0 
L 37.796875 17.1875 
L 4.890625 17.1875 
L 4.890625 26.703125 
z
" id="DejaVuSans-34"/>
      </defs>
      <g transform="translate(208.220173 317.076875)scale(0.2 -0.2)">
       <use xlink:href="#DejaVuSans-34"/>
      </g>
     </g>
    </g>
    <g id="xtick_4">
     <g id="line2d_10">
      <path clip-path="url(#pa6fbe9b59d)" d="M 293.814009 294.88 
L 293.814009 24.84 
" style="fill:none;stroke:#b0b0b0;stroke-linecap:square;stroke-width:0.8;"/>
     </g>
     <g id="line2d_11">
      <g>
       <use style="stroke:#000000;stroke-width:0.8;" x="293.814009" xlink:href="#m7f8a9daa6a" y="294.88"/>
      </g>
     </g>
     <g id="text_4">
      <!-- 6 -->
      <defs>
       <path d="M 33.015625 40.375 
Q 26.375 40.375 22.484375 35.828125 
Q 18.609375 31.296875 18.609375 23.390625 
Q 18.609375 15.53125 22.484375 10.953125 
Q 26.375 6.390625 33.015625 6.390625 
Q 39.65625 6.390625 43.53125 10.953125 
Q 47.40625 15.53125 47.40625 23.390625 
Q 47.40625 31.296875 43.53125 35.828125 
Q 39.65625 40.375 33.015625 40.375 
z
M 52.59375 71.296875 
L 52.59375 62.3125 
Q 48.875 64.0625 45.09375 64.984375 
Q 41.3125 65.921875 37.59375 65.921875 
Q 27.828125 65.921875 22.671875 59.328125 
Q 17.53125 52.734375 16.796875 39.40625 
Q 19.671875 43.65625 24.015625 45.921875 
Q 28.375 48.1875 33.59375 48.1875 
Q 44.578125 48.1875 50.953125 41.515625 
Q 57.328125 34.859375 57.328125 23.390625 
Q 57.328125 12.15625 50.6875 5.359375 
Q 44.046875 -1.421875 33.015625 -1.421875 
Q 20.359375 -1.421875 13.671875 8.265625 
Q 6.984375 17.96875 6.984375 36.375 
Q 6.984375 53.65625 15.1875 63.9375 
Q 23.390625 74.21875 37.203125 74.21875 
Q 40.921875 74.21875 44.703125 73.484375 
Q 48.484375 72.75 52.59375 71.296875 
z
" id="DejaVuSans-36"/>
      </defs>
      <g transform="translate(287.451509 317.076875)scale(0.2 -0.2)">
       <use xlink:href="#DejaVuSans-36"/>
      </g>
     </g>
    </g>
    <g id="xtick_5">
     <g id="line2d_12">
      <path clip-path="url(#pa6fbe9b59d)" d="M 373.045346 294.88 
L 373.045346 24.84 
" style="fill:none;stroke:#b0b0b0;stroke-linecap:square;stroke-width:0.8;"/>
     </g>
     <g id="line2d_13">
      <g>
       <use style="stroke:#000000;stroke-width:0.8;" x="373.045346" xlink:href="#m7f8a9daa6a" y="294.88"/>
      </g>
     </g>
     <g id="text_5">
      <!-- 8 -->
      <defs>
       <path d="M 31.78125 34.625 
Q 24.75 34.625 20.71875 30.859375 
Q 16.703125 27.09375 16.703125 20.515625 
Q 16.703125 13.921875 20.71875 10.15625 
Q 24.75 6.390625 31.78125 6.390625 
Q 38.8125 6.390625 42.859375 10.171875 
Q 46.921875 13.96875 46.921875 20.515625 
Q 46.921875 27.09375 42.890625 30.859375 
Q 38.875 34.625 31.78125 34.625 
z
M 21.921875 38.8125 
Q 15.578125 40.375 12.03125 44.71875 
Q 8.5 49.078125 8.5 55.328125 
Q 8.5 64.0625 14.71875 69.140625 
Q 20.953125 74.21875 31.78125 74.21875 
Q 42.671875 74.21875 48.875 69.140625 
Q 55.078125 64.0625 55.078125 55.328125 
Q 55.078125 49.078125 51.53125 44.71875 
Q 48 40.375 41.703125 38.8125 
Q 48.828125 37.15625 52.796875 32.3125 
Q 56.78125 27.484375 56.78125 20.515625 
Q 56.78125 9.90625 50.3125 4.234375 
Q 43.84375 -1.421875 31.78125 -1.421875 
Q 19.734375 -1.421875 13.25 4.234375 
Q 6.78125 9.90625 6.78125 20.515625 
Q 6.78125 27.484375 10.78125 32.3125 
Q 14.796875 37.15625 21.921875 38.8125 
z
M 18.3125 54.390625 
Q 18.3125 48.734375 21.84375 45.5625 
Q 25.390625 42.390625 31.78125 42.390625 
Q 38.140625 42.390625 41.71875 45.5625 
Q 45.3125 48.734375 45.3125 54.390625 
Q 45.3125 60.0625 41.71875 63.234375 
Q 38.140625 66.40625 31.78125 66.40625 
Q 25.390625 66.40625 21.84375 63.234375 
Q 18.3125 60.0625 18.3125 54.390625 
z
" id="DejaVuSans-38"/>
      </defs>
      <g transform="translate(366.682846 317.076875)scale(0.2 -0.2)">
       <use xlink:href="#DejaVuSans-38"/>
      </g>
     </g>
    </g>
    <g id="text_6">
     <!-- log10(# f-evals / dimension) -->
     <defs>
      <path d="M 9.421875 75.984375 
L 18.40625 75.984375 
L 18.40625 0 
L 9.421875 0 
z
" id="DejaVuSans-6c"/>
      <path d="M 30.609375 48.390625 
Q 23.390625 48.390625 19.1875 42.75 
Q 14.984375 37.109375 14.984375 27.296875 
Q 14.984375 17.484375 19.15625 11.84375 
Q 23.34375 6.203125 30.609375 6.203125 
Q 37.796875 6.203125 41.984375 11.859375 
Q 46.1875 17.53125 46.1875 27.296875 
Q 46.1875 37.015625 41.984375 42.703125 
Q 37.796875 48.390625 30.609375 48.390625 
z
M 30.609375 56 
Q 42.328125 56 49.015625 48.375 
Q 55.71875 40.765625 55.71875 27.296875 
Q 55.71875 13.875 49.015625 6.21875 
Q 42.328125 -1.421875 30.609375 -1.421875 
Q 18.84375 -1.421875 12.171875 6.21875 
Q 5.515625 13.875 5.515625 27.296875 
Q 5.515625 40.765625 12.171875 48.375 
Q 18.84375 56 30.609375 56 
z
" id="DejaVuSans-6f"/>
      <path d="M 45.40625 27.984375 
Q 45.40625 37.75 41.375 43.109375 
Q 37.359375 48.484375 30.078125 48.484375 
Q 22.859375 48.484375 18.828125 43.109375 
Q 14.796875 37.75 14.796875 27.984375 
Q 14.796875 18.265625 18.828125 12.890625 
Q 22.859375 7.515625 30.078125 7.515625 
Q 37.359375 7.515625 41.375 12.890625 
Q 45.40625 18.265625 45.40625 27.984375 
z
M 54.390625 6.78125 
Q 54.390625 -7.171875 48.1875 -13.984375 
Q 42 -20.796875 29.203125 -20.796875 
Q 24.46875 -20.796875 20.265625 -20.09375 
Q 16.0625 -19.390625 12.109375 -17.921875 
L 12.109375 -9.1875 
Q 16.0625 -11.328125 19.921875 -12.34375 
Q 23.78125 -13.375 27.78125 -13.375 
Q 36.625 -13.375 41.015625 -8.765625 
Q 45.40625 -4.15625 45.40625 5.171875 
L 45.40625 9.625 
Q 42.625 4.78125 38.28125 2.390625 
Q 33.9375 0 27.875 0 
Q 17.828125 0 11.671875 7.65625 
Q 5.515625 15.328125 5.515625 27.984375 
Q 5.515625 40.671875 11.671875 48.328125 
Q 17.828125 56 27.875 56 
Q 33.9375 56 38.28125 53.609375 
Q 42.625 51.21875 45.40625 46.390625 
L 45.40625 54.6875 
L 54.390625 54.6875 
z
" id="DejaVuSans-67"/>
      <path d="M 12.40625 8.296875 
L 28.515625 8.296875 
L 28.515625 63.921875 
L 10.984375 60.40625 
L 10.984375 69.390625 
L 28.421875 72.90625 
L 38.28125 72.90625 
L 38.28125 8.296875 
L 54.390625 8.296875 
L 54.390625 0 
L 12.40625 0 
z
" id="DejaVuSans-31"/>
      <path d="M 31 75.875 
Q 24.46875 64.65625 21.28125 53.65625 
Q 18.109375 42.671875 18.109375 31.390625 
Q 18.109375 20.125 21.3125 9.0625 
Q 24.515625 -2 31 -13.1875 
L 23.1875 -13.1875 
Q 15.875 -1.703125 12.234375 9.375 
Q 8.59375 20.453125 8.59375 31.390625 
Q 8.59375 42.28125 12.203125 53.3125 
Q 15.828125 64.359375 23.1875 75.875 
z
" id="DejaVuSans-28"/>
      <path d="M 51.125 44 
L 36.921875 44 
L 32.8125 27.6875 
L 47.125 27.6875 
z
M 43.796875 71.78125 
L 38.71875 51.515625 
L 52.984375 51.515625 
L 58.109375 71.78125 
L 65.921875 71.78125 
L 60.890625 51.515625 
L 76.125 51.515625 
L 76.125 44 
L 58.984375 44 
L 54.984375 27.6875 
L 70.515625 27.6875 
L 70.515625 20.21875 
L 53.078125 20.21875 
L 48 0 
L 40.1875 0 
L 45.21875 20.21875 
L 30.90625 20.21875 
L 25.875 0 
L 18.015625 0 
L 23.09375 20.21875 
L 7.71875 20.21875 
L 7.71875 27.6875 
L 24.90625 27.6875 
L 29 44 
L 13.28125 44 
L 13.28125 51.515625 
L 30.90625 51.515625 
L 35.890625 71.78125 
z
" id="DejaVuSans-23"/>
      <path id="DejaVuSans-20"/>
      <path d="M 37.109375 75.984375 
L 37.109375 68.5 
L 28.515625 68.5 
Q 23.6875 68.5 21.796875 66.546875 
Q 19.921875 64.59375 19.921875 59.515625 
L 19.921875 54.6875 
L 34.71875 54.6875 
L 34.71875 47.703125 
L 19.921875 47.703125 
L 19.921875 0 
L 10.890625 0 
L 10.890625 47.703125 
L 2.296875 47.703125 
L 2.296875 54.6875 
L 10.890625 54.6875 
L 10.890625 58.5 
Q 10.890625 67.625 15.140625 71.796875 
Q 19.390625 75.984375 28.609375 75.984375 
z
" id="DejaVuSans-66"/>
      <path d="M 4.890625 31.390625 
L 31.203125 31.390625 
L 31.203125 23.390625 
L 4.890625 23.390625 
z
" id="DejaVuSans-2d"/>
      <path d="M 56.203125 29.59375 
L 56.203125 25.203125 
L 14.890625 25.203125 
Q 15.484375 15.921875 20.484375 11.0625 
Q 25.484375 6.203125 34.421875 6.203125 
Q 39.59375 6.203125 44.453125 7.46875 
Q 49.3125 8.734375 54.109375 11.28125 
L 54.109375 2.78125 
Q 49.265625 0.734375 44.1875 -0.34375 
Q 39.109375 -1.421875 33.890625 -1.421875 
Q 20.796875 -1.421875 13.15625 6.1875 
Q 5.515625 13.8125 5.515625 26.8125 
Q 5.515625 40.234375 12.765625 48.109375 
Q 20.015625 56 32.328125 56 
Q 43.359375 56 49.78125 48.890625 
Q 56.203125 41.796875 56.203125 29.59375 
z
M 47.21875 32.234375 
Q 47.125 39.59375 43.09375 43.984375 
Q 39.0625 48.390625 32.421875 48.390625 
Q 24.90625 48.390625 20.390625 44.140625 
Q 15.875 39.890625 15.1875 32.171875 
z
" id="DejaVuSans-65"/>
      <path d="M 2.984375 54.6875 
L 12.5 54.6875 
L 29.59375 8.796875 
L 46.6875 54.6875 
L 56.203125 54.6875 
L 35.6875 0 
L 23.484375 0 
z
" id="DejaVuSans-76"/>
      <path d="M 34.28125 27.484375 
Q 23.390625 27.484375 19.1875 25 
Q 14.984375 22.515625 14.984375 16.5 
Q 14.984375 11.71875 18.140625 8.90625 
Q 21.296875 6.109375 26.703125 6.109375 
Q 34.1875 6.109375 38.703125 11.40625 
Q 43.21875 16.703125 43.21875 25.484375 
L 43.21875 27.484375 
z
M 52.203125 31.203125 
L 52.203125 0 
L 43.21875 0 
L 43.21875 8.296875 
Q 40.140625 3.328125 35.546875 0.953125 
Q 30.953125 -1.421875 24.3125 -1.421875 
Q 15.921875 -1.421875 10.953125 3.296875 
Q 6 8.015625 6 15.921875 
Q 6 25.140625 12.171875 29.828125 
Q 18.359375 34.515625 30.609375 34.515625 
L 43.21875 34.515625 
L 43.21875 35.40625 
Q 43.21875 41.609375 39.140625 45 
Q 35.0625 48.390625 27.6875 48.390625 
Q 23 48.390625 18.546875 47.265625 
Q 14.109375 46.140625 10.015625 43.890625 
L 10.015625 52.203125 
Q 14.9375 54.109375 19.578125 55.046875 
Q 24.21875 56 28.609375 56 
Q 40.484375 56 46.34375 49.84375 
Q 52.203125 43.703125 52.203125 31.203125 
z
" id="DejaVuSans-61"/>
      <path d="M 44.28125 53.078125 
L 44.28125 44.578125 
Q 40.484375 46.53125 36.375 47.5 
Q 32.28125 48.484375 27.875 48.484375 
Q 21.1875 48.484375 17.84375 46.4375 
Q 14.5 44.390625 14.5 40.28125 
Q 14.5 37.15625 16.890625 35.375 
Q 19.28125 33.59375 26.515625 31.984375 
L 29.59375 31.296875 
Q 39.15625 29.25 43.1875 25.515625 
Q 47.21875 21.78125 47.21875 15.09375 
Q 47.21875 7.46875 41.1875 3.015625 
Q 35.15625 -1.421875 24.609375 -1.421875 
Q 20.21875 -1.421875 15.453125 -0.5625 
Q 10.6875 0.296875 5.421875 2 
L 5.421875 11.28125 
Q 10.40625 8.6875 15.234375 7.390625 
Q 20.0625 6.109375 24.8125 6.109375 
Q 31.15625 6.109375 34.5625 8.28125 
Q 37.984375 10.453125 37.984375 14.40625 
Q 37.984375 18.0625 35.515625 20.015625 
Q 33.0625 21.96875 24.703125 23.78125 
L 21.578125 24.515625 
Q 13.234375 26.265625 9.515625 29.90625 
Q 5.8125 33.546875 5.8125 39.890625 
Q 5.8125 47.609375 11.28125 51.796875 
Q 16.75 56 26.8125 56 
Q 31.78125 56 36.171875 55.265625 
Q 40.578125 54.546875 44.28125 53.078125 
z
" id="DejaVuSans-73"/>
      <path d="M 25.390625 72.90625 
L 33.6875 72.90625 
L 8.296875 -9.28125 
L 0 -9.28125 
z
" id="DejaVuSans-2f"/>
      <path d="M 45.40625 46.390625 
L 45.40625 75.984375 
L 54.390625 75.984375 
L 54.390625 0 
L 45.40625 0 
L 45.40625 8.203125 
Q 42.578125 3.328125 38.25 0.953125 
Q 33.9375 -1.421875 27.875 -1.421875 
Q 17.96875 -1.421875 11.734375 6.484375 
Q 5.515625 14.40625 5.515625 27.296875 
Q 5.515625 40.1875 11.734375 48.09375 
Q 17.96875 56 27.875 56 
Q 33.9375 56 38.25 53.625 
Q 42.578125 51.265625 45.40625 46.390625 
z
M 14.796875 27.296875 
Q 14.796875 17.390625 18.875 11.75 
Q 22.953125 6.109375 30.078125 6.109375 
Q 37.203125 6.109375 41.296875 11.75 
Q 45.40625 17.390625 45.40625 27.296875 
Q 45.40625 37.203125 41.296875 42.84375 
Q 37.203125 48.484375 30.078125 48.484375 
Q 22.953125 48.484375 18.875 42.84375 
Q 14.796875 37.203125 14.796875 27.296875 
z
" id="DejaVuSans-64"/>
      <path d="M 9.421875 54.6875 
L 18.40625 54.6875 
L 18.40625 0 
L 9.421875 0 
z
M 9.421875 75.984375 
L 18.40625 75.984375 
L 18.40625 64.59375 
L 9.421875 64.59375 
z
" id="DejaVuSans-69"/>
      <path d="M 52 44.1875 
Q 55.375 50.25 60.0625 53.125 
Q 64.75 56 71.09375 56 
Q 79.640625 56 84.28125 50.015625 
Q 88.921875 44.046875 88.921875 33.015625 
L 88.921875 0 
L 79.890625 0 
L 79.890625 32.71875 
Q 79.890625 40.578125 77.09375 44.375 
Q 74.3125 48.1875 68.609375 48.1875 
Q 61.625 48.1875 57.5625 43.546875 
Q 53.515625 38.921875 53.515625 30.90625 
L 53.515625 0 
L 44.484375 0 
L 44.484375 32.71875 
Q 44.484375 40.625 41.703125 44.40625 
Q 38.921875 48.1875 33.109375 48.1875 
Q 26.21875 48.1875 22.15625 43.53125 
Q 18.109375 38.875 18.109375 30.90625 
L 18.109375 0 
L 9.078125 0 
L 9.078125 54.6875 
L 18.109375 54.6875 
L 18.109375 46.1875 
Q 21.1875 51.21875 25.484375 53.609375 
Q 29.78125 56 35.6875 56 
Q 41.65625 56 45.828125 52.96875 
Q 50 49.953125 52 44.1875 
z
" id="DejaVuSans-6d"/>
      <path d="M 54.890625 33.015625 
L 54.890625 0 
L 45.90625 0 
L 45.90625 32.71875 
Q 45.90625 40.484375 42.875 44.328125 
Q 39.84375 48.1875 33.796875 48.1875 
Q 26.515625 48.1875 22.3125 43.546875 
Q 18.109375 38.921875 18.109375 30.90625 
L 18.109375 0 
L 9.078125 0 
L 9.078125 54.6875 
L 18.109375 54.6875 
L 18.109375 46.1875 
Q 21.34375 51.125 25.703125 53.5625 
Q 30.078125 56 35.796875 56 
Q 45.21875 56 50.046875 50.171875 
Q 54.890625 44.34375 54.890625 33.015625 
z
" id="DejaVuSans-6e"/>
      <path d="M 8.015625 75.875 
L 15.828125 75.875 
Q 23.140625 64.359375 26.78125 53.3125 
Q 30.421875 42.28125 30.421875 31.390625 
Q 30.421875 20.453125 26.78125 9.375 
Q 23.140625 -1.703125 15.828125 -13.1875 
L 8.015625 -13.1875 
Q 14.5 -2 17.703125 9.0625 
Q 20.90625 20.125 20.90625 31.390625 
Q 20.90625 42.671875 17.703125 53.65625 
Q 14.5 64.65625 8.015625 75.875 
z
" id="DejaVuSans-29"/>
     </defs>
     <g transform="translate(107.211219 338.153594)scale(0.17 -0.17)">
      <use xlink:href="#DejaVuSans-6c"/>
      <use x="27.783203" xlink:href="#DejaVuSans-6f"/>
      <use x="88.964844" xlink:href="#DejaVuSans-67"/>
      <use x="152.441406" xlink:href="#DejaVuSans-31"/>
      <use x="216.064453" xlink:href="#DejaVuSans-30"/>
      <use x="279.6875" xlink:href="#DejaVuSans-28"/>
      <use x="318.701172" xlink:href="#DejaVuSans-23"/>
      <use x="402.490234" xlink:href="#DejaVuSans-20"/>
      <use x="434.277344" xlink:href="#DejaVuSans-66"/>
      <use x="469.404297" xlink:href="#DejaVuSans-2d"/>
      <use x="505.488281" xlink:href="#DejaVuSans-65"/>
      <use x="567.011719" xlink:href="#DejaVuSans-76"/>
      <use x="626.191406" xlink:href="#DejaVuSans-61"/>
      <use x="687.470703" xlink:href="#DejaVuSans-6c"/>
      <use x="715.253906" xlink:href="#DejaVuSans-73"/>
      <use x="767.353516" xlink:href="#DejaVuSans-20"/>
      <use x="799.140625" xlink:href="#DejaVuSans-2f"/>
      <use x="832.832031" xlink:href="#DejaVuSans-20"/>
      <use x="864.619141" xlink:href="#DejaVuSans-64"/>
      <use x="928.095703" xlink:href="#DejaVuSans-69"/>
      <use x="955.878906" xlink:href="#DejaVuSans-6d"/>
      <use x="1053.291016" xlink:href="#DejaVuSans-65"/>
      <use x="1114.814453" xlink:href="#DejaVuSans-6e"/>
      <use x="1178.193359" xlink:href="#DejaVuSans-73"/>
      <use x="1230.292969" xlink:href="#DejaVuSans-69"/>
      <use x="1258.076172" xlink:href="#DejaVuSans-6f"/>
      <use x="1319.257812" xlink:href="#DejaVuSans-6e"/>
      <use x="1382.636719" xlink:href="#DejaVuSans-29"/>
     </g>
    </g>
   </g>
   <g id="matplotlib.axis_2">
    <g id="ytick_1">
     <g id="line2d_14">
      <path clip-path="url(#pa6fbe9b59d)" d="M 56.12 294.88 
L 399.984 294.88 
" style="fill:none;stroke:#b0b0b0;stroke-linecap:square;stroke-width:0.8;"/>
     </g>
     <g id="line2d_15">
      <defs>
       <path d="M 0 0 
L -3.5 0 
" id="ma5045dc043" style="stroke:#000000;stroke-width:0.8;"/>
      </defs>
      <g>
       <use style="stroke:#000000;stroke-width:0.8;" x="56.12" xlink:href="#ma5045dc043" y="294.88"/>
      </g>
     </g>
     <g id="text_7">
      <!-- 0.0 -->
      <defs>
       <path d="M 10.6875 12.40625 
L 21 12.40625 
L 21 0 
L 10.6875 0 
z
" id="DejaVuSans-2e"/>
      </defs>
      <g transform="translate(23.675 300.95875)scale(0.16 -0.16)">
       <use xlink:href="#DejaVuSans-30"/>
       <use x="63.623047" xlink:href="#DejaVuSans-2e"/>
       <use x="95.410156" xlink:href="#DejaVuSans-30"/>
      </g>
     </g>
    </g>
    <g id="ytick_2">
     <g id="line2d_16">
      <path clip-path="url(#pa6fbe9b59d)" d="M 56.12 241.406733 
L 399.984 241.406733 
" style="fill:none;stroke:#b0b0b0;stroke-linecap:square;stroke-width:0.8;"/>
     </g>
     <g id="line2d_17">
      <g>
       <use style="stroke:#000000;stroke-width:0.8;" x="56.12" xlink:href="#ma5045dc043" y="241.406733"/>
      </g>
     </g>
     <g id="text_8">
      <!-- 0.2 -->
      <g transform="translate(23.675 247.485483)scale(0.16 -0.16)">
       <use xlink:href="#DejaVuSans-30"/>
       <use x="63.623047" xlink:href="#DejaVuSans-2e"/>
       <use x="95.410156" xlink:href="#DejaVuSans-32"/>
      </g>
     </g>
    </g>
    <g id="ytick_3">
     <g id="line2d_18">
      <path clip-path="url(#pa6fbe9b59d)" d="M 56.12 187.933465 
L 399.984 187.933465 
" style="fill:none;stroke:#b0b0b0;stroke-linecap:square;stroke-width:0.8;"/>
     </g>
     <g id="line2d_19">
      <g>
       <use style="stroke:#000000;stroke-width:0.8;" x="56.12" xlink:href="#ma5045dc043" y="187.933465"/>
      </g>
     </g>
     <g id="text_9">
      <!-- 0.4 -->
      <g transform="translate(23.675 194.012215)scale(0.16 -0.16)">
       <use xlink:href="#DejaVuSans-30"/>
       <use x="63.623047" xlink:href="#DejaVuSans-2e"/>
       <use x="95.410156" xlink:href="#DejaVuSans-34"/>
      </g>
     </g>
    </g>
    <g id="ytick_4">
     <g id="line2d_20">
      <path clip-path="url(#pa6fbe9b59d)" d="M 56.12 134.460198 
L 399.984 134.460198 
" style="fill:none;stroke:#b0b0b0;stroke-linecap:square;stroke-width:0.8;"/>
     </g>
     <g id="line2d_21">
      <g>
       <use style="stroke:#000000;stroke-width:0.8;" x="56.12" xlink:href="#ma5045dc043" y="134.460198"/>
      </g>
     </g>
     <g id="text_10">
      <!-- 0.6 -->
      <g transform="translate(23.675 140.538948)scale(0.16 -0.16)">
       <use xlink:href="#DejaVuSans-30"/>
       <use x="63.623047" xlink:href="#DejaVuSans-2e"/>
       <use x="95.410156" xlink:href="#DejaVuSans-36"/>
      </g>
     </g>
    </g>
    <g id="ytick_5">
     <g id="line2d_22">
      <path clip-path="url(#pa6fbe9b59d)" d="M 56.12 80.986931 
L 399.984 80.986931 
" style="fill:none;stroke:#b0b0b0;stroke-linecap:square;stroke-width:0.8;"/>
     </g>
     <g id="line2d_23">
      <g>
       <use style="stroke:#000000;stroke-width:0.8;" x="56.12" xlink:href="#ma5045dc043" y="80.986931"/>
      </g>
     </g>
     <g id="text_11">
      <!-- 0.8 -->
      <g transform="translate(23.675 87.065681)scale(0.16 -0.16)">
       <use xlink:href="#DejaVuSans-30"/>
       <use x="63.623047" xlink:href="#DejaVuSans-2e"/>
       <use x="95.410156" xlink:href="#DejaVuSans-38"/>
      </g>
     </g>
    </g>
    <g id="ytick_6">
     <g id="line2d_24">
      <path clip-path="url(#pa6fbe9b59d)" d="M 56.12 27.513663 
L 399.984 27.513663 
" style="fill:none;stroke:#b0b0b0;stroke-linecap:square;stroke-width:0.8;"/>
     </g>
     <g id="line2d_25">
      <g>
       <use style="stroke:#000000;stroke-width:0.8;" x="56.12" xlink:href="#ma5045dc043" y="27.513663"/>
      </g>
     </g>
     <g id="text_12">
      <!-- 1.0 -->
      <g transform="translate(23.675 33.592413)scale(0.16 -0.16)">
       <use xlink:href="#DejaVuSans-31"/>
       <use x="63.623047" xlink:href="#DejaVuSans-2e"/>
       <use x="95.410156" xlink:href="#DejaVuSans-30"/>
      </g>
     </g>
    </g>
    <g id="text_13">
     <!-- Fraction of function,target pairs -->
     <defs>
      <path d="M 9.8125 72.90625 
L 51.703125 72.90625 
L 51.703125 64.59375 
L 19.671875 64.59375 
L 19.671875 43.109375 
L 48.578125 43.109375 
L 48.578125 34.8125 
L 19.671875 34.8125 
L 19.671875 0 
L 9.8125 0 
z
" id="DejaVuSans-46"/>
      <path d="M 41.109375 46.296875 
Q 39.59375 47.171875 37.8125 47.578125 
Q 36.03125 48 33.890625 48 
Q 26.265625 48 22.1875 43.046875 
Q 18.109375 38.09375 18.109375 28.8125 
L 18.109375 0 
L 9.078125 0 
L 9.078125 54.6875 
L 18.109375 54.6875 
L 18.109375 46.1875 
Q 20.953125 51.171875 25.484375 53.578125 
Q 30.03125 56 36.53125 56 
Q 37.453125 56 38.578125 55.875 
Q 39.703125 55.765625 41.0625 55.515625 
z
" id="DejaVuSans-72"/>
      <path d="M 48.78125 52.59375 
L 48.78125 44.1875 
Q 44.96875 46.296875 41.140625 47.34375 
Q 37.3125 48.390625 33.40625 48.390625 
Q 24.65625 48.390625 19.8125 42.84375 
Q 14.984375 37.3125 14.984375 27.296875 
Q 14.984375 17.28125 19.8125 11.734375 
Q 24.65625 6.203125 33.40625 6.203125 
Q 37.3125 6.203125 41.140625 7.25 
Q 44.96875 8.296875 48.78125 10.40625 
L 48.78125 2.09375 
Q 45.015625 0.34375 40.984375 -0.53125 
Q 36.96875 -1.421875 32.421875 -1.421875 
Q 20.0625 -1.421875 12.78125 6.34375 
Q 5.515625 14.109375 5.515625 27.296875 
Q 5.515625 40.671875 12.859375 48.328125 
Q 20.21875 56 33.015625 56 
Q 37.15625 56 41.109375 55.140625 
Q 45.0625 54.296875 48.78125 52.59375 
z
" id="DejaVuSans-63"/>
      <path d="M 18.3125 70.21875 
L 18.3125 54.6875 
L 36.8125 54.6875 
L 36.8125 47.703125 
L 18.3125 47.703125 
L 18.3125 18.015625 
Q 18.3125 11.328125 20.140625 9.421875 
Q 21.96875 7.515625 27.59375 7.515625 
L 36.8125 7.515625 
L 36.8125 0 
L 27.59375 0 
Q 17.1875 0 13.234375 3.875 
Q 9.28125 7.765625 9.28125 18.015625 
L 9.28125 47.703125 
L 2.6875 47.703125 
L 2.6875 54.6875 
L 9.28125 54.6875 
L 9.28125 70.21875 
z
" id="DejaVuSans-74"/>
      <path d="M 8.5 21.578125 
L 8.5 54.6875 
L 17.484375 54.6875 
L 17.484375 21.921875 
Q 17.484375 14.15625 20.5 10.265625 
Q 23.53125 6.390625 29.59375 6.390625 
Q 36.859375 6.390625 41.078125 11.03125 
Q 45.3125 15.671875 45.3125 23.6875 
L 45.3125 54.6875 
L 54.296875 54.6875 
L 54.296875 0 
L 45.3125 0 
L 45.3125 8.40625 
Q 42.046875 3.421875 37.71875 1 
Q 33.40625 -1.421875 27.6875 -1.421875 
Q 18.265625 -1.421875 13.375 4.4375 
Q 8.5 10.296875 8.5 21.578125 
z
M 31.109375 56 
z
" id="DejaVuSans-75"/>
      <path d="M 11.71875 12.40625 
L 22.015625 12.40625 
L 22.015625 4 
L 14.015625 -11.625 
L 7.71875 -11.625 
L 11.71875 4 
z
" id="DejaVuSans-2c"/>
      <path d="M 18.109375 8.203125 
L 18.109375 -20.796875 
L 9.078125 -20.796875 
L 9.078125 54.6875 
L 18.109375 54.6875 
L 18.109375 46.390625 
Q 20.953125 51.265625 25.265625 53.625 
Q 29.59375 56 35.59375 56 
Q 45.5625 56 51.78125 48.09375 
Q 58.015625 40.1875 58.015625 27.296875 
Q 58.015625 14.40625 51.78125 6.484375 
Q 45.5625 -1.421875 35.59375 -1.421875 
Q 29.59375 -1.421875 25.265625 0.953125 
Q 20.953125 3.328125 18.109375 8.203125 
z
M 48.6875 27.296875 
Q 48.6875 37.203125 44.609375 42.84375 
Q 40.53125 48.484375 33.40625 48.484375 
Q 26.265625 48.484375 22.1875 42.84375 
Q 18.109375 37.203125 18.109375 27.296875 
Q 18.109375 17.390625 22.1875 11.75 
Q 26.265625 6.109375 33.40625 6.109375 
Q 40.53125 6.109375 44.609375 11.75 
Q 48.6875 17.390625 48.6875 27.296875 
z
" id="DejaVuSans-70"/>
     </defs>
     <g transform="translate(16.139531 294.999375)rotate(-90)scale(0.17 -0.17)">
      <use xlink:href="#DejaVuSans-46"/>
      <use x="57.410156" xlink:href="#DejaVuSans-72"/>
      <use x="98.523438" xlink:href="#DejaVuSans-61"/>
      <use x="159.802734" xlink:href="#DejaVuSans-63"/>
      <use x="214.783203" xlink:href="#DejaVuSans-74"/>
      <use x="253.992188" xlink:href="#DejaVuSans-69"/>
      <use x="281.775391" xlink:href="#DejaVuSans-6f"/>
      <use x="342.957031" xlink:href="#DejaVuSans-6e"/>
      <use x="406.335938" xlink:href="#DejaVuSans-20"/>
      <use x="438.123047" xlink:href="#DejaVuSans-6f"/>
      <use x="499.304688" xlink:href="#DejaVuSans-66"/>
      <use x="534.509766" xlink:href="#DejaVuSans-20"/>
      <use x="566.296875" xlink:href="#DejaVuSans-66"/>
      <use x="601.501953" xlink:href="#DejaVuSans-75"/>
      <use x="664.880859" xlink:href="#DejaVuSans-6e"/>
      <use x="728.259766" xlink:href="#DejaVuSans-63"/>
      <use x="783.240234" xlink:href="#DejaVuSans-74"/>
      <use x="822.449219" xlink:href="#DejaVuSans-69"/>
      <use x="850.232422" xlink:href="#DejaVuSans-6f"/>
      <use x="911.414062" xlink:href="#DejaVuSans-6e"/>
      <use x="974.792969" xlink:href="#DejaVuSans-2c"/>
      <use x="1006.580078" xlink:href="#DejaVuSans-74"/>
      <use x="1045.789062" xlink:href="#DejaVuSans-61"/>
      <use x="1107.068359" xlink:href="#DejaVuSans-72"/>
      <use x="1148.166016" xlink:href="#DejaVuSans-67"/>
      <use x="1211.642578" xlink:href="#DejaVuSans-65"/>
      <use x="1273.166016" xlink:href="#DejaVuSans-74"/>
      <use x="1312.375" xlink:href="#DejaVuSans-20"/>
      <use x="1344.162109" xlink:href="#DejaVuSans-70"/>
      <use x="1407.638672" xlink:href="#DejaVuSans-61"/>
      <use x="1468.917969" xlink:href="#DejaVuSans-69"/>
      <use x="1496.701172" xlink:href="#DejaVuSans-72"/>
      <use x="1537.814453" xlink:href="#DejaVuSans-73"/>
     </g>
    </g>
   </g>
   <g id="line2d_26">
    <defs>
     <path d="M 0 1.5 
C 0.397805 1.5 0.77937 1.341951 1.06066 1.06066 
C 1.341951 0.77937 1.5 0.397805 1.5 0 
C 1.5 -0.397805 1.341951 -0.77937 1.06066 -1.06066 
C 0.77937 -1.341951 0.397805 -1.5 0 -1.5 
C -0.397805 -1.5 -0.77937 -1.341951 -1.06066 -1.06066 
C -1.341951 -0.77937 -1.5 -0.397805 -1.5 0 
C -1.5 0.397805 -1.341951 0.77937 -1.06066 1.06066 
C -0.77937 1.341951 -0.397805 1.5 0 1.5 
z
" id="md3def55254" style="stroke:#f5deb3;"/>
    </defs>
    <g>
     <use style="fill:#f5deb3;stroke:#f5deb3;" x="269.808284" xlink:href="#md3def55254" y="151.977303"/>
     <use style="fill:#f5deb3;stroke:#f5deb3;" x="269.808284" xlink:href="#md3def55254" y="151.977303"/>
    </g>
   </g>
   <g id="line2d_27">
    <g>
     <use style="fill:#f5deb3;stroke:#f5deb3;stroke-linejoin:miter;stroke-width:1.5;" x="230.528812" xlink:href="#md503b121cf" y="253.39212"/>
     <use style="fill:#f5deb3;stroke:#f5deb3;stroke-linejoin:miter;stroke-width:1.5;" x="261.229216" xlink:href="#md503b121cf" y="198.074947"/>
     <use style="fill:#f5deb3;stroke:#f5deb3;stroke-linejoin:miter;stroke-width:1.5;" x="269.808284" xlink:href="#md503b121cf" y="151.977303"/>
     <use style="fill:#f5deb3;stroke:#f5deb3;stroke-linejoin:miter;stroke-width:1.5;" x="269.808284" xlink:href="#md503b121cf" y="151.977303"/>
     <use style="fill:#f5deb3;stroke:#f5deb3;stroke-linejoin:miter;stroke-width:1.5;" x="333.429677" xlink:href="#md503b121cf" y="151.977303"/>
    </g>
   </g>
   <g id="line2d_28">
    <defs>
     <path d="M 0 1.5 
C 0.397805 1.5 0.77937 1.341951 1.06066 1.06066 
C 1.341951 0.77937 1.5 0.397805 1.5 0 
C 1.5 -0.397805 1.341951 -0.77937 1.06066 -1.06066 
C 0.77937 -1.341951 0.397805 -1.5 0 -1.5 
C -0.397805 -1.5 -0.77937 -1.341951 -1.06066 -1.06066 
C -1.341951 -0.77937 -1.5 -0.397805 -1.5 0 
C -1.5 0.397805 -1.341951 0.77937 -1.06066 1.06066 
C -0.77937 1.341951 -0.397805 1.5 0 1.5 
z
" id="m2a75b6f3bb" style="stroke:#999999;"/>
    </defs>
    <g>
     <use style="fill:#999999;stroke:#999999;" x="315.980537" xlink:href="#m2a75b6f3bb" y="253.39212"/>
     <use style="fill:#999999;stroke:#999999;" x="315.980537" xlink:href="#m2a75b6f3bb" y="253.39212"/>
    </g>
   </g>
   <g id="line2d_29">
    <path d="M -1 290.270236 
L 136.762836 290.270236 
L 136.762836 289.809259 
L 171.77884 289.809259 
L 171.77884 289.348283 
L 177.688073 289.348283 
L 177.688073 288.887306 
L 184.371484 288.887306 
L 184.371484 287.504377 
L 186.553481 287.504377 
L 186.553481 286.582424 
L 191.002223 286.582424 
L 191.002223 285.660471 
L 195.903078 285.660471 
L 195.903078 285.199495 
L 198.336925 285.199495 
L 198.336925 284.738518 
L 204.137871 284.738518 
L 204.137871 284.277542 
L 205.329919 284.277542 
L 205.329919 283.816565 
L 210.763937 283.816565 
L 210.763937 283.355589 
L 220.302027 283.355589 
L 220.302027 282.433636 
L 220.469911 282.433636 
L 220.469911 281.050707 
L 230.089697 281.050707 
L 230.089697 280.58973 
L 230.873434 280.58973 
L 230.873434 279.206801 
L 231.299256 279.206801 
L 231.299256 278.284848 
L 231.575347 278.284848 
L 231.676613 276.901919 
L 239.762435 276.901919 
L 239.762435 275.979966 
L 241.783723 275.979966 
L 241.783723 275.518989 
L 242.806621 275.518989 
L 242.806621 274.13606 
L 256.444623 274.13606 
L 256.46533 273.214107 
L 258.273731 273.214107 
L 258.273731 272.753131 
L 266.419046 272.753131 
L 266.494457 270.909225 
L 267.294754 270.909225 
L 267.294882 269.526296 
L 268.29148 269.526296 
L 268.303709 268.604343 
L 273.297353 268.604343 
L 273.347612 267.221413 
L 273.8819 267.221413 
L 273.88951 265.838484 
L 278.227629 265.838484 
L 278.235763 264.916531 
L 278.639258 264.916531 
L 278.639258 264.455555 
L 279.173961 264.455555 
L 279.173961 263.994578 
L 282.36678 263.994578 
L 282.36678 263.533602 
L 285.421045 263.533602 
L 285.424888 262.150673 
L 285.783326 262.150673 
L 285.783326 261.689696 
L 288.017287 261.689696 
L 288.017287 261.22872 
L 288.325429 261.22872 
L 288.329227 260.306767 
L 290.068564 260.306767 
L 290.068564 259.84579 
L 290.275425 259.84579 
L 290.275425 259.384814 
L 293.885829 259.384814 
L 293.885829 258.923837 
L 294.055054 258.923837 
L 294.055054 258.462861 
L 295.86911 258.462861 
L 295.86911 258.001885 
L 304.061327 258.001885 
L 304.061327 257.540908 
L 304.984503 257.540908 
L 304.984503 257.079932 
L 305.860638 257.079932 
L 305.860638 256.618955 
L 306.694407 256.618955 
L 306.694407 256.157979 
L 307.489543 256.157979 
L 307.489543 255.697002 
L 309.674925 255.697002 
L 309.674925 255.236026 
L 311.614376 255.236026 
L 311.614376 254.77505 
L 313.357341 254.77505 
L 313.357341 254.314073 
L 314.94044 254.314073 
L 314.94044 253.853097 
L 315.980537 253.853097 
L 315.980537 253.39212 
L 333.429677 253.39212 
L 333.429677 253.39212 
" style="fill:none;stroke:#999999;stroke-linecap:square;stroke-width:1.5;"/>
   </g>
   <g id="line2d_30"/>
   <g id="line2d_31">
    <path d="M 0 0 
" style="fill:none;stroke:#999999;stroke-linecap:square;stroke-width:1.5;"/>
   </g>
   <g id="line2d_32">
    <path clip-path="url(#pa6fbe9b59d)" d="M 254.1989 274.13606 
" style="fill:none;stroke:#999999;stroke-linecap:square;stroke-width:1.5;"/>
    <defs>
     <path d="M -12 12 
L 12 -12 
M -12 -12 
L 12 12 
" id="mb559533fe3" style="stroke:#999999;stroke-width:3;"/>
    </defs>
    <g clip-path="url(#pa6fbe9b59d)">
     <use style="fill:#999999;stroke:#999999;stroke-width:3;" x="254.1989" xlink:href="#mb559533fe3" y="274.13606"/>
    </g>
   </g>
   <g id="line2d_33">
    <path clip-path="url(#pa6fbe9b59d)" d="M 56.12 294.88 
L 56.12 294.88 
L 56.12 294.88 
L 56.12 294.88 
L 399.984 294.88 
" style="fill:none;stroke:#999999;stroke-linecap:square;stroke-width:1.5;"/>
   </g>
   <g id="line2d_34"/>
   <g id="line2d_35">
    <path clip-path="url(#pa6fbe9b59d)" d="M 0 0 
" style="fill:none;stroke:#999999;stroke-linecap:square;stroke-width:1.5;"/>
   </g>
   <g id="line2d_36">
    <g>
     <use style="fill:#999999;stroke:#999999;" x="282.159649" xlink:href="#m2a75b6f3bb" y="285.660471"/>
     <use style="fill:#999999;stroke:#999999;" x="282.159649" xlink:href="#m2a75b6f3bb" y="285.660471"/>
    </g>
   </g>
   <g id="line2d_37">
    <path d="M -1 291.653165 
L 4.578827 291.653165 
L 4.578827 290.270236 
L 210.618978 290.270236 
L 210.618978 289.809259 
L 218.358742 289.809259 
L 218.358742 288.887306 
L 249.327548 288.887306 
L 249.327548 287.965353 
L 254.198556 287.965353 
L 254.198556 287.0434 
L 255.513251 287.0434 
L 255.513251 286.582424 
L 273.09989 286.582424 
L 273.09989 286.121448 
L 282.159649 286.121448 
L 282.159649 285.660471 
L 333.429677 285.660471 
" style="fill:none;stroke:#999999;stroke-linecap:square;stroke-width:1.5;"/>
   </g>
   <g id="line2d_38"/>
   <g id="line2d_39">
    <path d="M 0 0 
" style="fill:none;stroke:#999999;stroke-linecap:square;stroke-width:1.5;"/>
   </g>
   <g id="line2d_40">
    <path clip-path="url(#pa6fbe9b59d)" d="M 254.198341 287.965353 
" style="fill:none;stroke:#999999;stroke-linecap:square;stroke-width:1.5;"/>
    <g clip-path="url(#pa6fbe9b59d)">
     <use style="fill:#999999;stroke:#999999;stroke-width:3;" x="254.198341" xlink:href="#mb559533fe3" y="287.965353"/>
    </g>
   </g>
   <g id="line2d_41">
    <g>
     <use style="fill:#999999;stroke:#999999;" x="339.218659" xlink:href="#m2a75b6f3bb" y="285.660471"/>
     <use style="fill:#999999;stroke:#999999;" x="339.218659" xlink:href="#m2a75b6f3bb" y="285.660471"/>
    </g>
   </g>
   <g id="line2d_42">
    <path d="M -1 293.958047 
L 4.578827 293.958047 
L 4.578827 293.497071 
L 11.5548 293.497071 
L 11.5548 292.575118 
L 16.504332 292.575118 
L 16.504332 291.653165 
L 20.343487 291.653165 
L 20.343487 291.192188 
L 43.312001 291.192188 
L 43.312001 290.731212 
L 47.331314 290.731212 
L 47.331314 290.270236 
L 290.57669 290.270236 
L 290.57669 289.809259 
L 293.814319 289.809259 
L 293.814319 288.42633 
L 304.196885 288.42633 
L 304.196885 287.504377 
L 305.739668 287.504377 
L 305.739668 287.0434 
L 312.71559 287.0434 
L 312.71559 286.582424 
L 316.910987 286.582424 
L 316.910987 286.121448 
L 333.429677 286.121448 
" style="fill:none;stroke:#999999;stroke-linecap:square;stroke-width:1.5;"/>
   </g>
   <g id="line2d_43"/>
   <g id="line2d_44">
    <path d="M 0 0 
" style="fill:none;stroke:#999999;stroke-linecap:square;stroke-width:1.5;"/>
   </g>
   <g id="line2d_45">
    <path clip-path="url(#pa6fbe9b59d)" d="M 293.814009 289.809259 
" style="fill:none;stroke:#999999;stroke-linecap:square;stroke-width:1.5;"/>
    <g clip-path="url(#pa6fbe9b59d)">
     <use style="fill:#999999;stroke:#999999;stroke-width:3;" x="293.814009" xlink:href="#mb559533fe3" y="289.809259"/>
    </g>
   </g>
   <g id="line2d_46">
    <g>
     <use style="fill:#999999;stroke:#999999;" x="293.82388" xlink:href="#m2a75b6f3bb" y="147.367538"/>
     <use style="fill:#999999;stroke:#999999;" x="293.82388" xlink:href="#m2a75b6f3bb" y="147.367538"/>
    </g>
   </g>
   <g id="line2d_47">
    <path d="M 133.667178 294.88 
L 133.667178 294.419024 
L 133.823007 294.419024 
L 133.823007 292.575118 
L 134.711611 292.575118 
L 134.711611 292.114141 
L 134.928976 292.114141 
L 134.928976 290.731212 
L 135.269419 290.731212 
L 135.269419 290.270236 
L 137.088614 290.270236 
L 137.088614 289.348283 
L 140.549607 289.348283 
L 140.594064 287.965353 
L 140.748765 287.965353 
L 140.748765 287.0434 
L 141.15872 287.0434 
L 141.15872 286.121448 
L 141.314532 286.121448 
L 141.314532 285.199495 
L 141.556135 285.199495 
L 141.556135 284.738518 
L 141.684608 284.738518 
L 141.758863 283.355589 
L 142.128307 283.355589 
L 142.128307 282.894612 
L 142.729748 282.894612 
L 142.729748 282.433636 
L 143.297325 282.433636 
L 143.327113 280.58973 
L 143.47528 280.58973 
L 143.47528 279.667777 
L 143.638133 279.667777 
L 143.736167 278.284848 
L 143.831018 278.284848 
L 143.831018 277.362895 
L 143.993156 277.362895 
L 144.039944 275.518989 
L 144.158938 275.518989 
L 144.158938 275.058013 
L 144.371583 275.058013 
L 144.480724 273.214107 
L 144.945007 273.214107 
L 145.055476 271.831178 
L 145.126293 271.831178 
L 145.126293 270.909225 
L 145.554692 270.909225 
L 145.625855 269.987272 
L 145.708509 269.987272 
L 145.781386 268.143366 
L 146.175638 268.143366 
L 146.175638 267.221413 
L 146.299003 267.221413 
L 146.344471 266.299461 
L 146.46889 266.299461 
L 146.576744 263.994578 
L 146.759444 263.994578 
L 146.759444 263.533602 
L 147.034271 263.533602 
L 147.034271 262.611649 
L 147.175464 262.611649 
L 147.175464 261.689696 
L 147.403261 261.689696 
L 147.403261 260.767743 
L 147.5224 260.767743 
L 147.5224 259.84579 
L 147.895704 259.84579 
L 147.966097 258.923837 
L 148.064988 258.923837 
L 148.064988 258.001885 
L 149.349101 258.001885 
L 149.349101 256.618955 
L 150.000113 256.618955 
L 150.066074 253.853097 
L 150.285942 253.853097 
L 150.285942 253.39212 
L 150.554661 253.39212 
L 150.597269 251.548214 
L 151.198382 251.548214 
L 151.198382 250.165285 
L 151.576042 250.165285 
L 151.596131 248.321379 
L 151.812276 248.321379 
L 151.812276 247.399426 
L 151.961977 247.399426 
L 151.961977 246.93845 
L 152.150936 246.93845 
L 152.150936 246.477474 
L 152.360263 246.477474 
L 152.360263 245.555521 
L 152.804213 245.555521 
L 152.804213 244.172591 
L 153.087293 244.172591 
L 153.148553 241.867709 
L 153.465137 241.867709 
L 153.465137 240.945756 
L 153.97531 240.945756 
L 153.97531 240.023803 
L 154.140617 240.023803 
L 154.140617 239.10185 
L 154.300062 239.10185 
L 154.300062 238.640874 
L 154.541428 238.640874 
L 154.541428 237.718921 
L 155.001884 237.718921 
L 155.001884 237.257945 
L 155.25938 237.257945 
L 155.25938 236.796968 
L 156.5674 236.796968 
L 156.652412 234.953062 
L 156.734523 234.953062 
L 156.842166 233.570133 
L 157.636369 233.570133 
L 157.636369 233.109157 
L 158.198309 233.109157 
L 158.198309 232.64818 
L 158.404535 232.64818 
L 158.404535 232.187204 
L 158.975036 232.187204 
L 159.008781 231.265251 
L 159.318088 231.265251 
L 159.318088 229.882322 
L 159.703591 229.882322 
L 159.703591 228.499392 
L 160.173378 228.499392 
L 160.173378 228.038416 
L 160.511508 228.038416 
L 160.511508 225.733534 
L 161.875059 225.733534 
L 161.875059 224.811581 
L 162.159006 224.811581 
L 162.159006 222.967675 
L 163.141855 222.967675 
L 163.141855 222.506699 
L 163.306977 222.506699 
L 163.306977 222.045722 
L 164.201538 222.045722 
L 164.201538 220.662793 
L 164.751539 220.662793 
L 164.751539 220.201816 
L 165.218682 220.201816 
L 165.218682 219.74084 
L 165.412391 219.74084 
L 165.412391 218.818887 
L 166.908848 218.818887 
L 167.016381 216.974981 
L 170.321026 216.974981 
L 170.321026 215.131075 
L 172.139993 215.131075 
L 172.139993 213.748146 
L 174.185181 213.748146 
L 174.185181 213.28717 
L 179.77032 213.28717 
L 179.77032 211.443264 
L 181.173602 211.443264 
L 181.173602 210.521311 
L 197.058862 210.521311 
L 197.058862 209.599358 
L 198.898045 209.599358 
L 198.898045 209.138382 
L 237.659564 209.138382 
L 237.659564 207.755452 
L 237.893609 207.755452 
L 237.893609 206.372523 
L 254.23688 206.372523 
L 254.343704 187.011512 
L 254.443374 187.011512 
L 254.443374 186.550536 
L 254.629069 186.550536 
L 254.629069 186.08956 
L 254.808692 186.08956 
L 254.876213 183.784677 
L 255.005098 183.784677 
L 255.005098 183.323701 
L 257.168984 183.323701 
L 257.168984 181.940772 
L 259.769656 181.940772 
L 259.769656 181.479795 
L 266.143126 181.479795 
L 266.246798 171.79929 
L 266.266756 171.79929 
L 266.340557 170.416361 
L 266.431727 170.416361 
L 266.531952 169.494408 
L 269.134039 169.494408 
L 269.134039 169.033431 
L 273.114555 169.033431 
L 273.167117 162.118785 
L 273.244596 162.118785 
L 273.328756 161.196832 
L 274.148067 161.196832 
L 274.148067 160.735855 
L 275.163948 160.735855 
L 275.163948 159.813902 
L 278.069434 159.813902 
L 278.158047 156.126091 
L 281.89866 156.126091 
L 281.904574 155.204138 
L 282.012319 155.204138 
L 282.012319 154.743161 
L 285.033389 154.743161 
L 285.128563 151.977303 
L 286.088324 151.977303 
L 286.088324 151.516326 
L 287.687164 151.516326 
L 287.775954 149.211444 
L 289.989934 149.211444 
L 290.061063 148.289491 
L 292.033156 148.289491 
L 292.033156 147.828515 
L 293.82388 147.828515 
L 293.82388 147.367538 
L 333.429677 147.367538 
L 333.429677 147.367538 
" style="fill:none;stroke:#999999;stroke-linecap:square;stroke-width:1.5;"/>
   </g>
   <g id="line2d_48"/>
   <g id="line2d_49">
    <path d="M 0 0 
" style="fill:none;stroke:#999999;stroke-linecap:square;stroke-width:1.5;"/>
   </g>
   <g id="line2d_50">
    <path clip-path="url(#pa6fbe9b59d)" d="M 254.198341 206.372523 
" style="fill:none;stroke:#999999;stroke-linecap:square;stroke-width:1.5;"/>
    <g clip-path="url(#pa6fbe9b59d)">
     <use style="fill:#999999;stroke:#999999;stroke-width:3;" x="254.198341" xlink:href="#mb559533fe3" y="206.372523"/>
    </g>
   </g>
   <g id="line2d_51">
    <g>
     <use style="fill:#999999;stroke:#999999;" x="320.091375" xlink:href="#m2a75b6f3bb" y="230.343298"/>
     <use style="fill:#999999;stroke:#999999;" x="320.091375" xlink:href="#m2a75b6f3bb" y="230.343298"/>
    </g>
   </g>
   <g id="line2d_52">
    <path d="M 150.472699 294.88 
L 150.472699 293.497071 
L 151.241135 293.497071 
L 151.241135 293.036094 
L 155.293153 293.036094 
L 155.293153 292.575118 
L 159.068488 292.575118 
L 159.068488 291.192188 
L 159.755733 291.192188 
L 159.755733 290.270236 
L 160.473599 290.270236 
L 160.473599 289.809259 
L 161.183804 289.809259 
L 161.183804 289.348283 
L 161.52163 289.348283 
L 161.52163 288.887306 
L 161.673191 288.887306 
L 161.673191 288.42633 
L 162.17982 288.42633 
L 162.17982 287.965353 
L 163.949611 287.965353 
L 163.949611 287.504377 
L 166.567446 287.504377 
L 166.567446 286.582424 
L 167.269867 286.582424 
L 167.269867 286.121448 
L 167.680056 286.121448 
L 167.680056 285.660471 
L 168.256932 285.660471 
L 168.256932 285.199495 
L 168.58228 285.199495 
L 168.58228 284.738518 
L 168.7954 284.738518 
L 168.7954 284.277542 
L 169.762684 284.277542 
L 169.762684 283.816565 
L 171.549535 283.816565 
L 171.549535 283.355589 
L 172.271294 283.355589 
L 172.271294 282.433636 
L 173.682786 282.433636 
L 173.682786 281.050707 
L 174.291529 281.050707 
L 174.291529 280.58973 
L 175.385122 280.58973 
L 175.385122 280.128754 
L 178.882723 280.128754 
L 178.882723 279.667777 
L 179.927393 279.667777 
L 179.927393 278.745825 
L 193.885105 278.745825 
L 193.885105 277.823872 
L 196.001137 277.823872 
L 196.001137 276.901919 
L 197.292152 276.901919 
L 197.292152 275.979966 
L 198.531437 275.979966 
L 198.531437 274.597037 
L 198.766753 274.597037 
L 198.766753 274.13606 
L 204.334854 274.13606 
L 204.334854 273.214107 
L 204.684374 273.214107 
L 204.684374 272.753131 
L 205.280505 272.753131 
L 205.280505 271.370201 
L 208.19346 271.370201 
L 208.19346 270.448249 
L 209.468972 270.448249 
L 209.468972 268.143366 
L 213.459399 268.143366 
L 213.459399 267.68239 
L 254.288794 267.68239 
L 254.373729 264.916531 
L 254.871164 264.916531 
L 254.871164 264.455555 
L 255.121484 264.455555 
L 255.172194 259.84579 
L 266.595703 259.84579 
L 266.617664 256.618955 
L 273.415825 256.618955 
L 273.430602 252.931144 
L 278.286898 252.931144 
L 278.298033 250.165285 
L 282.078806 250.165285 
L 282.087739 248.321379 
L 285.184054 248.321379 
L 285.191512 246.477474 
L 287.81361 246.477474 
L 287.815176 245.094544 
L 290.094041 245.094544 
L 290.095036 243.711615 
L 293.909947 243.711615 
L 293.913917 242.789662 
L 295.541297 242.789662 
L 295.541297 242.328686 
L 297.030813 242.328686 
L 297.031043 240.945756 
L 298.402242 240.945756 
L 298.404856 240.023803 
L 299.67058 240.023803 
L 299.671551 239.10185 
L 300.853653 239.10185 
L 300.854185 237.718921 
L 301.960057 237.718921 
L 301.960384 236.796968 
L 302.999097 236.796968 
L 302.999897 235.414039 
L 304.907306 235.414039 
L 304.907306 234.953062 
L 305.787841 234.953062 
L 305.787841 234.492086 
L 308.187611 234.492086 
L 308.187611 234.03111 
L 309.616565 234.03111 
L 309.616565 233.570133 
L 310.938585 233.570133 
L 310.938585 233.109157 
L 312.166734 233.109157 
L 312.166734 232.64818 
L 315.395262 232.64818 
L 315.395262 232.187204 
L 316.349544 232.187204 
L 316.349544 231.726227 
L 316.807467 231.726227 
L 316.807467 231.265251 
L 319.713715 231.265251 
L 319.713715 230.804274 
L 320.091375 230.804274 
L 320.091375 230.343298 
L 333.429677 230.343298 
L 333.429677 230.343298 
" style="fill:none;stroke:#999999;stroke-linecap:square;stroke-width:1.5;"/>
   </g>
   <g id="line2d_53"/>
   <g id="line2d_54">
    <path d="M 0 0 
" style="fill:none;stroke:#999999;stroke-linecap:square;stroke-width:1.5;"/>
   </g>
   <g id="line2d_55">
    <path clip-path="url(#pa6fbe9b59d)" d="M 254.198345 267.68239 
" style="fill:none;stroke:#999999;stroke-linecap:square;stroke-width:1.5;"/>
    <g clip-path="url(#pa6fbe9b59d)">
     <use style="fill:#999999;stroke:#999999;stroke-width:3;" x="254.198345" xlink:href="#mb559533fe3" y="267.68239"/>
    </g>
   </g>
   <g id="line2d_56">
    <g>
     <use style="fill:#999999;stroke:#999999;" x="307.386267" xlink:href="#m2a75b6f3bb" y="248.782356"/>
     <use style="fill:#999999;stroke:#999999;" x="307.386267" xlink:href="#m2a75b6f3bb" y="248.782356"/>
    </g>
   </g>
   <g id="line2d_57">
    <path d="M 133.399467 294.88 
L 133.399467 294.419024 
L 135.191451 294.419024 
L 135.191451 293.958047 
L 136.877364 293.958047 
L 136.877364 293.497071 
L 137.722227 293.497071 
L 137.793283 292.114141 
L 138.509647 292.114141 
L 138.509647 290.270236 
L 138.99671 290.270236 
L 138.99671 289.809259 
L 139.759075 289.809259 
L 139.759075 289.348283 
L 144.414815 289.348283 
L 144.414815 288.887306 
L 144.651919 288.887306 
L 144.651919 288.42633 
L 145.104346 288.42633 
L 145.104346 287.965353 
L 146.657193 287.965353 
L 146.657193 287.0434 
L 147.132143 287.0434 
L 147.132143 286.582424 
L 148.737799 286.582424 
L 148.737799 286.121448 
L 149.066527 286.121448 
L 149.066527 285.660471 
L 149.752344 285.660471 
L 149.752344 284.738518 
L 150.375982 284.738518 
L 150.375982 283.816565 
L 150.488766 283.816565 
L 150.488766 282.894612 
L 151.115996 282.894612 
L 151.115996 282.433636 
L 151.271852 282.433636 
L 151.271852 281.97266 
L 151.402636 281.97266 
L 151.416168 280.58973 
L 153.162307 280.58973 
L 153.267387 277.823872 
L 153.274976 277.823872 
L 153.274976 277.362895 
L 153.572864 277.362895 
L 153.572864 276.440942 
L 153.831923 276.440942 
L 153.831923 275.979966 
L 154.663653 275.979966 
L 154.663653 275.058013 
L 155.768342 275.058013 
L 155.768342 274.597037 
L 158.322115 274.597037 
L 158.322115 273.675084 
L 160.212968 273.675084 
L 160.212968 273.214107 
L 160.328172 273.214107 
L 160.328172 272.753131 
L 161.360188 272.753131 
L 161.360188 272.292154 
L 162.953531 272.292154 
L 162.953531 270.909225 
L 164.031831 270.909225 
L 164.031831 270.448249 
L 168.310847 270.448249 
L 168.310847 269.526296 
L 172.940294 269.526296 
L 172.940294 269.065319 
L 177.139638 269.065319 
L 177.139638 268.143366 
L 254.239768 268.143366 
L 254.350599 263.533602 
L 254.392453 263.533602 
L 254.392453 262.611649 
L 266.148974 262.611649 
L 266.221177 259.84579 
L 273.125808 259.84579 
L 273.150724 258.923837 
L 278.098087 258.923837 
L 278.098087 258.462861 
L 281.900963 258.462861 
L 281.919068 257.079932 
L 285.038325 257.079932 
L 285.057831 255.697002 
L 287.68861 255.697002 
L 287.705333 254.77505 
L 289.982644 254.77505 
L 289.993964 252.931144 
L 292.009966 252.931144 
L 292.009966 252.009191 
L 295.460903 252.009191 
L 295.467709 251.087238 
L 296.956022 251.087238 
L 296.957332 250.165285 
L 302.947066 250.165285 
L 302.95488 249.243332 
L 307.386267 249.243332 
L 307.386267 248.782356 
L 333.429677 248.782356 
L 333.429677 248.782356 
" style="fill:none;stroke:#999999;stroke-linecap:square;stroke-width:1.5;"/>
   </g>
   <g id="line2d_58"/>
   <g id="line2d_59">
    <path d="M 0 0 
" style="fill:none;stroke:#999999;stroke-linecap:square;stroke-width:1.5;"/>
   </g>
   <g id="line2d_60">
    <path clip-path="url(#pa6fbe9b59d)" d="M 254.198345 268.143366 
" style="fill:none;stroke:#999999;stroke-linecap:square;stroke-width:1.5;"/>
    <g clip-path="url(#pa6fbe9b59d)">
     <use style="fill:#999999;stroke:#999999;stroke-width:3;" x="254.198345" xlink:href="#mb559533fe3" y="268.143366"/>
    </g>
   </g>
   <g id="line2d_61">
    <path d="M 333.429677 294.88 
L 333.429677 27.513663 
" style="fill:none;stroke:#000000;stroke-linecap:square;stroke-width:1.5;"/>
   </g>
   <g id="patch_3">
    <path d="M 56.12 294.88 
L 56.12 24.84 
" style="fill:none;stroke:#000000;stroke-linecap:square;stroke-linejoin:miter;stroke-width:0.8;"/>
   </g>
   <g id="patch_4">
    <path d="M 399.984 294.88 
L 399.984 24.84 
" style="fill:none;stroke:#000000;stroke-linecap:square;stroke-linejoin:miter;stroke-width:0.8;"/>
   </g>
   <g id="patch_5">
    <path d="M 56.12 294.88 
L 399.984 294.88 
" style="fill:none;stroke:#000000;stroke-linecap:square;stroke-linejoin:miter;stroke-width:0.8;"/>
   </g>
   <g id="patch_6">
    <path d="M 56.12 24.84 
L 399.984 24.84 
" style="fill:none;stroke:#000000;stroke-linecap:square;stroke-linejoin:miter;stroke-width:0.8;"/>
   </g>
   <g id="text_14">
    <!-- best 2016 -->
    <defs>
     <path d="M 48.6875 27.296875 
Q 48.6875 37.203125 44.609375 42.84375 
Q 40.53125 48.484375 33.40625 48.484375 
Q 26.265625 48.484375 22.1875 42.84375 
Q 18.109375 37.203125 18.109375 27.296875 
Q 18.109375 17.390625 22.1875 11.75 
Q 26.265625 6.109375 33.40625 6.109375 
Q 40.53125 6.109375 44.609375 11.75 
Q 48.6875 17.390625 48.6875 27.296875 
z
M 18.109375 46.390625 
Q 20.953125 51.265625 25.265625 53.625 
Q 29.59375 56 35.59375 56 
Q 45.5625 56 51.78125 48.09375 
Q 58.015625 40.1875 58.015625 27.296875 
Q 58.015625 14.40625 51.78125 6.484375 
Q 45.5625 -1.421875 35.59375 -1.421875 
Q 29.59375 -1.421875 25.265625 0.953125 
Q 20.953125 3.328125 18.109375 8.203125 
L 18.109375 0 
L 9.078125 0 
L 9.078125 75.984375 
L 18.109375 75.984375 
z
" id="DejaVuSans-62"/>
    </defs>
    <g transform="translate(369.479935 294.223611)scale(0.17 -0.17)">
     <use xlink:href="#DejaVuSans-62"/>
     <use x="63.476562" xlink:href="#DejaVuSans-65"/>
     <use x="125" xlink:href="#DejaVuSans-73"/>
     <use x="177.099609" xlink:href="#DejaVuSans-74"/>
     <use x="216.308594" xlink:href="#DejaVuSans-20"/>
     <use x="248.095703" xlink:href="#DejaVuSans-32"/>
     <use x="311.71875" xlink:href="#DejaVuSans-30"/>
     <use x="375.341797" xlink:href="#DejaVuSans-31"/>
     <use x="438.964844" xlink:href="#DejaVuSans-36"/>
    </g>
   </g>
   <g id="text_15">
    <!-- bbob-biobj f54, 40-D -->
    <defs>
     <path d="M 9.421875 54.6875 
L 18.40625 54.6875 
L 18.40625 -0.984375 
Q 18.40625 -11.421875 14.421875 -16.109375 
Q 10.453125 -20.796875 1.609375 -20.796875 
L -1.8125 -20.796875 
L -1.8125 -13.1875 
L 0.59375 -13.1875 
Q 5.71875 -13.1875 7.5625 -10.8125 
Q 9.421875 -8.453125 9.421875 -0.984375 
z
M 9.421875 75.984375 
L 18.40625 75.984375 
L 18.40625 64.59375 
L 9.421875 64.59375 
z
" id="DejaVuSans-6a"/>
     <path d="M 10.796875 72.90625 
L 49.515625 72.90625 
L 49.515625 64.59375 
L 19.828125 64.59375 
L 19.828125 46.734375 
Q 21.96875 47.46875 24.109375 47.828125 
Q 26.265625 48.1875 28.421875 48.1875 
Q 40.625 48.1875 47.75 41.5 
Q 54.890625 34.8125 54.890625 23.390625 
Q 54.890625 11.625 47.5625 5.09375 
Q 40.234375 -1.421875 26.90625 -1.421875 
Q 22.3125 -1.421875 17.546875 -0.640625 
Q 12.796875 0.140625 7.71875 1.703125 
L 7.71875 11.625 
Q 12.109375 9.234375 16.796875 8.0625 
Q 21.484375 6.890625 26.703125 6.890625 
Q 35.15625 6.890625 40.078125 11.328125 
Q 45.015625 15.765625 45.015625 23.390625 
Q 45.015625 31 40.078125 35.4375 
Q 35.15625 39.890625 26.703125 39.890625 
Q 22.75 39.890625 18.8125 39.015625 
Q 14.890625 38.140625 10.796875 36.28125 
z
" id="DejaVuSans-35"/>
     <path d="M 19.671875 64.796875 
L 19.671875 8.109375 
L 31.59375 8.109375 
Q 46.6875 8.109375 53.6875 14.9375 
Q 60.6875 21.78125 60.6875 36.53125 
Q 60.6875 51.171875 53.6875 57.984375 
Q 46.6875 64.796875 31.59375 64.796875 
z
M 9.8125 72.90625 
L 30.078125 72.90625 
Q 51.265625 72.90625 61.171875 64.09375 
Q 71.09375 55.28125 71.09375 36.53125 
Q 71.09375 17.671875 61.125 8.828125 
Q 51.171875 0 30.078125 0 
L 9.8125 0 
z
" id="DejaVuSans-44"/>
    </defs>
    <g transform="translate(59.55864 35.290806)scale(0.102 -0.102)">
     <use xlink:href="#DejaVuSans-62"/>
     <use x="63.476562" xlink:href="#DejaVuSans-62"/>
     <use x="126.953125" xlink:href="#DejaVuSans-6f"/>
     <use x="188.134766" xlink:href="#DejaVuSans-62"/>
     <use x="251.611328" xlink:href="#DejaVuSans-2d"/>
     <use x="287.695312" xlink:href="#DejaVuSans-62"/>
     <use x="351.171875" xlink:href="#DejaVuSans-69"/>
     <use x="378.955078" xlink:href="#DejaVuSans-6f"/>
     <use x="440.136719" xlink:href="#DejaVuSans-62"/>
     <use x="503.613281" xlink:href="#DejaVuSans-6a"/>
     <use x="531.396484" xlink:href="#DejaVuSans-20"/>
     <use x="563.183594" xlink:href="#DejaVuSans-66"/>
     <use x="598.388672" xlink:href="#DejaVuSans-35"/>
     <use x="662.011719" xlink:href="#DejaVuSans-34"/>
     <use x="725.634766" xlink:href="#DejaVuSans-2c"/>
     <use x="757.421875" xlink:href="#DejaVuSans-20"/>
     <use x="789.208984" xlink:href="#DejaVuSans-34"/>
     <use x="852.832031" xlink:href="#DejaVuSans-30"/>
     <use x="916.455078" xlink:href="#DejaVuSans-2d"/>
     <use x="952.539062" xlink:href="#DejaVuSans-44"/>
    </g>
    <!-- 58 targets: 1..-1.0e-4 -->
    <defs>
     <path d="M 11.71875 12.40625 
L 22.015625 12.40625 
L 22.015625 0 
L 11.71875 0 
z
M 11.71875 51.703125 
L 22.015625 51.703125 
L 22.015625 39.3125 
L 11.71875 39.3125 
z
" id="DejaVuSans-3a"/>
    </defs>
    <g transform="translate(59.55864 46.712575)scale(0.102 -0.102)">
     <use xlink:href="#DejaVuSans-35"/>
     <use x="63.623047" xlink:href="#DejaVuSans-38"/>
     <use x="127.246094" xlink:href="#DejaVuSans-20"/>
     <use x="159.033203" xlink:href="#DejaVuSans-74"/>
     <use x="198.242188" xlink:href="#DejaVuSans-61"/>
     <use x="259.521484" xlink:href="#DejaVuSans-72"/>
     <use x="300.619141" xlink:href="#DejaVuSans-67"/>
     <use x="364.095703" xlink:href="#DejaVuSans-65"/>
     <use x="425.619141" xlink:href="#DejaVuSans-74"/>
     <use x="464.828125" xlink:href="#DejaVuSans-73"/>
     <use x="516.927734" xlink:href="#DejaVuSans-3a"/>
     <use x="550.619141" xlink:href="#DejaVuSans-20"/>
     <use x="582.40625" xlink:href="#DejaVuSans-31"/>
     <use x="646.029297" xlink:href="#DejaVuSans-2e"/>
     <use x="677.816406" xlink:href="#DejaVuSans-2e"/>
     <use x="709.603516" xlink:href="#DejaVuSans-2d"/>
     <use x="745.6875" xlink:href="#DejaVuSans-31"/>
     <use x="809.310547" xlink:href="#DejaVuSans-2e"/>
     <use x="841.097656" xlink:href="#DejaVuSans-30"/>
     <use x="904.720703" xlink:href="#DejaVuSans-65"/>
     <use x="966.244141" xlink:href="#DejaVuSans-2d"/>
     <use x="1002.328125" xlink:href="#DejaVuSans-34"/>
    </g>
    <!-- 10 instances -->
    <g transform="translate(59.55864 58.134344)scale(0.102 -0.102)">
     <use xlink:href="#DejaVuSans-31"/>
     <use x="63.623047" xlink:href="#DejaVuSans-30"/>
     <use x="127.246094" xlink:href="#DejaVuSans-20"/>
     <use x="159.033203" xlink:href="#DejaVuSans-69"/>
     <use x="186.816406" xlink:href="#DejaVuSans-6e"/>
     <use x="250.195312" xlink:href="#DejaVuSans-73"/>
     <use x="302.294922" xlink:href="#DejaVuSans-74"/>
     <use x="341.503906" xlink:href="#DejaVuSans-61"/>
     <use x="402.783203" xlink:href="#DejaVuSans-6e"/>
     <use x="466.162109" xlink:href="#DejaVuSans-63"/>
     <use x="521.142578" xlink:href="#DejaVuSans-65"/>
     <use x="582.666016" xlink:href="#DejaVuSans-73"/>
    </g>
   </g>
   <g id="text_16">
    <!-- v2.0.778, hv-hash=ff0e71e8cd978373 -->
    <defs>
     <path d="M 8.203125 72.90625 
L 55.078125 72.90625 
L 55.078125 68.703125 
L 28.609375 0 
L 18.3125 0 
L 43.21875 64.59375 
L 8.203125 64.59375 
z
" id="DejaVuSans-37"/>
     <path d="M 54.890625 33.015625 
L 54.890625 0 
L 45.90625 0 
L 45.90625 32.71875 
Q 45.90625 40.484375 42.875 44.328125 
Q 39.84375 48.1875 33.796875 48.1875 
Q 26.515625 48.1875 22.3125 43.546875 
Q 18.109375 38.921875 18.109375 30.90625 
L 18.109375 0 
L 9.078125 0 
L 9.078125 75.984375 
L 18.109375 75.984375 
L 18.109375 46.1875 
Q 21.34375 51.125 25.703125 53.5625 
Q 30.078125 56 35.796875 56 
Q 45.21875 56 50.046875 50.171875 
Q 54.890625 44.34375 54.890625 33.015625 
z
" id="DejaVuSans-68"/>
     <path d="M 10.59375 45.40625 
L 73.1875 45.40625 
L 73.1875 37.203125 
L 10.59375 37.203125 
z
M 10.59375 25.484375 
L 73.1875 25.484375 
L 73.1875 17.1875 
L 10.59375 17.1875 
z
" id="DejaVuSans-3d"/>
     <path d="M 10.984375 1.515625 
L 10.984375 10.5 
Q 14.703125 8.734375 18.5 7.8125 
Q 22.3125 6.890625 25.984375 6.890625 
Q 35.75 6.890625 40.890625 13.453125 
Q 46.046875 20.015625 46.78125 33.40625 
Q 43.953125 29.203125 39.59375 26.953125 
Q 35.25 24.703125 29.984375 24.703125 
Q 19.046875 24.703125 12.671875 31.3125 
Q 6.296875 37.9375 6.296875 49.421875 
Q 6.296875 60.640625 12.9375 67.421875 
Q 19.578125 74.21875 30.609375 74.21875 
Q 43.265625 74.21875 49.921875 64.515625 
Q 56.59375 54.828125 56.59375 36.375 
Q 56.59375 19.140625 48.40625 8.859375 
Q 40.234375 -1.421875 26.421875 -1.421875 
Q 22.703125 -1.421875 18.890625 -0.6875 
Q 15.09375 0.046875 10.984375 1.515625 
z
M 30.609375 32.421875 
Q 37.25 32.421875 41.125 36.953125 
Q 45.015625 41.5 45.015625 49.421875 
Q 45.015625 57.28125 41.125 61.84375 
Q 37.25 66.40625 30.609375 66.40625 
Q 23.96875 66.40625 20.09375 61.84375 
Q 16.21875 57.28125 16.21875 49.421875 
Q 16.21875 41.5 20.09375 36.953125 
Q 23.96875 32.421875 30.609375 32.421875 
z
" id="DejaVuSans-39"/>
     <path d="M 40.578125 39.3125 
Q 47.65625 37.796875 51.625 33 
Q 55.609375 28.21875 55.609375 21.1875 
Q 55.609375 10.40625 48.1875 4.484375 
Q 40.765625 -1.421875 27.09375 -1.421875 
Q 22.515625 -1.421875 17.65625 -0.515625 
Q 12.796875 0.390625 7.625 2.203125 
L 7.625 11.71875 
Q 11.71875 9.328125 16.59375 8.109375 
Q 21.484375 6.890625 26.8125 6.890625 
Q 36.078125 6.890625 40.9375 10.546875 
Q 45.796875 14.203125 45.796875 21.1875 
Q 45.796875 27.640625 41.28125 31.265625 
Q 36.765625 34.90625 28.71875 34.90625 
L 20.21875 34.90625 
L 20.21875 43.015625 
L 29.109375 43.015625 
Q 36.375 43.015625 40.234375 45.921875 
Q 44.09375 48.828125 44.09375 54.296875 
Q 44.09375 59.90625 40.109375 62.90625 
Q 36.140625 65.921875 28.71875 65.921875 
Q 24.65625 65.921875 20.015625 65.03125 
Q 15.375 64.15625 9.8125 62.3125 
L 9.8125 71.09375 
Q 15.4375 72.65625 20.34375 73.4375 
Q 25.25 74.21875 29.59375 74.21875 
Q 40.828125 74.21875 47.359375 69.109375 
Q 53.90625 64.015625 53.90625 55.328125 
Q 53.90625 49.265625 50.4375 45.09375 
Q 46.96875 40.921875 40.578125 39.3125 
z
" id="DejaVuSans-33"/>
    </defs>
    <g style="fill:#808080;" transform="translate(131.294188 290.099912)scale(0.1 -0.1)">
     <use xlink:href="#DejaVuSans-76"/>
     <use x="59.179688" xlink:href="#DejaVuSans-32"/>
     <use x="122.802734" xlink:href="#DejaVuSans-2e"/>
     <use x="154.589844" xlink:href="#DejaVuSans-30"/>
     <use x="218.212891" xlink:href="#DejaVuSans-2e"/>
     <use x="250" xlink:href="#DejaVuSans-37"/>
     <use x="313.623047" xlink:href="#DejaVuSans-37"/>
     <use x="377.246094" xlink:href="#DejaVuSans-38"/>
     <use x="440.869141" xlink:href="#DejaVuSans-2c"/>
     <use x="472.65625" xlink:href="#DejaVuSans-20"/>
     <use x="504.443359" xlink:href="#DejaVuSans-68"/>
     <use x="567.822266" xlink:href="#DejaVuSans-76"/>
     <use x="626.970703" xlink:href="#DejaVuSans-2d"/>
     <use x="663.054688" xlink:href="#DejaVuSans-68"/>
     <use x="726.433594" xlink:href="#DejaVuSans-61"/>
     <use x="787.712891" xlink:href="#DejaVuSans-73"/>
     <use x="839.8125" xlink:href="#DejaVuSans-68"/>
     <use x="903.191406" xlink:href="#DejaVuSans-3d"/>
     <use x="986.980469" xlink:href="#DejaVuSans-66"/>
     <use x="1022.185547" xlink:href="#DejaVuSans-66"/>
     <use x="1057.390625" xlink:href="#DejaVuSans-30"/>
     <use x="1121.013672" xlink:href="#DejaVuSans-65"/>
     <use x="1182.537109" xlink:href="#DejaVuSans-37"/>
     <use x="1246.160156" xlink:href="#DejaVuSans-31"/>
     <use x="1309.783203" xlink:href="#DejaVuSans-65"/>
     <use x="1371.306641" xlink:href="#DejaVuSans-38"/>
     <use x="1434.929688" xlink:href="#DejaVuSans-63"/>
     <use x="1489.910156" xlink:href="#DejaVuSans-64"/>
     <use x="1553.386719" xlink:href="#DejaVuSans-39"/>
     <use x="1617.009766" xlink:href="#DejaVuSans-37"/>
     <use x="1680.632812" xlink:href="#DejaVuSans-38"/>
     <use x="1744.255859" xlink:href="#DejaVuSans-33"/>
     <use x="1807.878906" xlink:href="#DejaVuSans-37"/>
     <use x="1871.501953" xlink:href="#DejaVuSans-33"/>
    </g>
   </g>
   <g id="text_17">
    <!-- 54 Schwefel/Gallagher 101 -->
    <defs>
     <path d="M 53.515625 70.515625 
L 53.515625 60.890625 
Q 47.90625 63.578125 42.921875 64.890625 
Q 37.9375 66.21875 33.296875 66.21875 
Q 25.25 66.21875 20.875 63.09375 
Q 16.5 59.96875 16.5 54.203125 
Q 16.5 49.359375 19.40625 46.890625 
Q 22.3125 44.4375 30.421875 42.921875 
L 36.375 41.703125 
Q 47.40625 39.59375 52.65625 34.296875 
Q 57.90625 29 57.90625 20.125 
Q 57.90625 9.515625 50.796875 4.046875 
Q 43.703125 -1.421875 29.984375 -1.421875 
Q 24.8125 -1.421875 18.96875 -0.25 
Q 13.140625 0.921875 6.890625 3.21875 
L 6.890625 13.375 
Q 12.890625 10.015625 18.65625 8.296875 
Q 24.421875 6.59375 29.984375 6.59375 
Q 38.421875 6.59375 43.015625 9.90625 
Q 47.609375 13.234375 47.609375 19.390625 
Q 47.609375 24.75 44.3125 27.78125 
Q 41.015625 30.8125 33.5 32.328125 
L 27.484375 33.5 
Q 16.453125 35.6875 11.515625 40.375 
Q 6.59375 45.0625 6.59375 53.421875 
Q 6.59375 63.09375 13.40625 68.65625 
Q 20.21875 74.21875 32.171875 74.21875 
Q 37.3125 74.21875 42.625 73.28125 
Q 47.953125 72.359375 53.515625 70.515625 
z
" id="DejaVuSans-53"/>
     <path d="M 4.203125 54.6875 
L 13.1875 54.6875 
L 24.421875 12.015625 
L 35.59375 54.6875 
L 46.1875 54.6875 
L 57.421875 12.015625 
L 68.609375 54.6875 
L 77.59375 54.6875 
L 63.28125 0 
L 52.6875 0 
L 40.921875 44.828125 
L 29.109375 0 
L 18.5 0 
z
" id="DejaVuSans-77"/>
     <path d="M 59.515625 10.40625 
L 59.515625 29.984375 
L 43.40625 29.984375 
L 43.40625 38.09375 
L 69.28125 38.09375 
L 69.28125 6.78125 
Q 63.578125 2.734375 56.6875 0.65625 
Q 49.8125 -1.421875 42 -1.421875 
Q 24.90625 -1.421875 15.25 8.5625 
Q 5.609375 18.5625 5.609375 36.375 
Q 5.609375 54.25 15.25 64.234375 
Q 24.90625 74.21875 42 74.21875 
Q 49.125 74.21875 55.546875 72.453125 
Q 61.96875 70.703125 67.390625 67.28125 
L 67.390625 56.78125 
Q 61.921875 61.421875 55.765625 63.765625 
Q 49.609375 66.109375 42.828125 66.109375 
Q 29.4375 66.109375 22.71875 58.640625 
Q 16.015625 51.171875 16.015625 36.375 
Q 16.015625 21.625 22.71875 14.15625 
Q 29.4375 6.6875 42.828125 6.6875 
Q 48.046875 6.6875 52.140625 7.59375 
Q 56.25 8.5 59.515625 10.40625 
z
" id="DejaVuSans-47"/>
    </defs>
    <g transform="translate(93.036375 18.84)scale(0.2 -0.2)">
     <use xlink:href="#DejaVuSans-35"/>
     <use x="63.623047" xlink:href="#DejaVuSans-34"/>
     <use x="127.246094" xlink:href="#DejaVuSans-20"/>
     <use x="159.033203" xlink:href="#DejaVuSans-53"/>
     <use x="222.509766" xlink:href="#DejaVuSans-63"/>
     <use x="277.490234" xlink:href="#DejaVuSans-68"/>
     <use x="340.869141" xlink:href="#DejaVuSans-77"/>
     <use x="422.65625" xlink:href="#DejaVuSans-65"/>
     <use x="484.179688" xlink:href="#DejaVuSans-66"/>
     <use x="519.384766" xlink:href="#DejaVuSans-65"/>
     <use x="580.908203" xlink:href="#DejaVuSans-6c"/>
     <use x="608.691406" xlink:href="#DejaVuSans-2f"/>
     <use x="642.382812" xlink:href="#DejaVuSans-47"/>
     <use x="719.873047" xlink:href="#DejaVuSans-61"/>
     <use x="781.152344" xlink:href="#DejaVuSans-6c"/>
     <use x="808.935547" xlink:href="#DejaVuSans-6c"/>
     <use x="836.71875" xlink:href="#DejaVuSans-61"/>
     <use x="897.998047" xlink:href="#DejaVuSans-67"/>
     <use x="961.474609" xlink:href="#DejaVuSans-68"/>
     <use x="1024.853516" xlink:href="#DejaVuSans-65"/>
     <use x="1086.376953" xlink:href="#DejaVuSans-72"/>
     <use x="1127.490234" xlink:href="#DejaVuSans-20"/>
     <use x="1159.277344" xlink:href="#DejaVuSans-31"/>
     <use x="1222.900391" xlink:href="#DejaVuSans-30"/>
     <use x="1286.523438" xlink:href="#DejaVuSans-31"/>
    </g>
   </g>
  </g>
 </g>
 <defs>
  <clipPath id="pa6fbe9b59d">
   <rect height="270.04" width="343.864" x="56.12" y="24.84"/>
  </clipPath>
 </defs>
</svg>
