<?xml version="1.0" encoding="utf-8" standalone="no"?>
<!DOCTYPE svg PUBLIC "-//W3C//DTD SVG 1.1//EN"
  "http://www.w3.org/Graphics/SVG/1.1/DTD/svg11.dtd">
<!-- Created with matplotlib (http://matplotlib.org/) -->
<svg height="345pt" version="1.1" viewBox="0 0 460 345" width="460pt" xmlns="http://www.w3.org/2000/svg" xmlns:xlink="http://www.w3.org/1999/xlink">
 <defs>
  <style type="text/css">
*{stroke-linecap:butt;stroke-linejoin:round;}
  </style>
 </defs>
 <g id="figure_1">
  <g id="patch_1">
   <path d="M 0 345.6 
L 460.8 345.6 
L 460.8 0 
L 0 0 
z
" style="fill:#ffffff;"/>
  </g>
  <g id="axes_1">
   <g id="patch_2">
    <path d="M 56.12 294.88 
L 399.984 294.88 
L 399.984 24.84 
L 56.12 24.84 
z
" style="fill:#ffffff;"/>
   </g>
   <g id="line2d_1">
    <path d="M -1 290.270236 
L 108.086006 290.270236 
L 108.086006 281.050707 
L 138.523961 281.050707 
L 138.523961 271.831178 
L 140.808379 271.831178 
L 140.808379 267.221413 
L 143.098328 267.221413 
L 143.098328 253.39212 
L 145.123856 253.39212 
L 145.123856 244.172591 
L 147.238086 244.172591 
L 147.238086 239.562827 
L 149.802555 239.562827 
L 149.802555 230.343298 
L 152.498942 230.343298 
L 152.498942 216.514005 
L 156.344129 216.514005 
L 156.344129 207.294476 
L 161.538537 207.294476 
L 161.538537 198.074947 
L 168.345643 198.074947 
L 168.345643 188.855418 
L 178.752051 188.855418 
L 178.752051 184.245654 
L 201.806971 184.245654 
L 201.806971 170.416361 
L 234.226205 170.416361 
L 234.226205 165.806596 
L 258.226339 165.806596 
L 258.226339 151.977303 
L 272.848191 151.977303 
L 272.848191 142.757774 
L 333.429677 142.757774 
" style="fill:none;stroke:#f5deb3;stroke-linecap:square;stroke-width:6;"/>
   </g>
   <g id="line2d_2">
    <path d="M 0 0 
" style="fill:none;stroke:#f5deb3;stroke-linecap:square;stroke-width:6;"/>
    <defs>
     <path d="M -0 7.778175 
L 7.778175 0 
L 0 -7.778175 
L -7.778175 -0 
z
" id="m1612e8b11a" style="stroke:#f5deb3;stroke-linejoin:miter;stroke-width:1.5;"/>
    </defs>
    <g>
     <use style="fill:#f5deb3;stroke:#f5deb3;stroke-linejoin:miter;stroke-width:1.5;" x="0" xlink:href="#m1612e8b11a" y="0"/>
    </g>
   </g>
   <g id="line2d_3">
    <path d="M 333.429677 142.757774 
L 363.933742 289.532673 
" style="fill:none;stroke:#f5deb3;stroke-linecap:square;stroke-width:6;"/>
    <g>
     <use style="fill:#f5deb3;stroke:#f5deb3;stroke-linejoin:miter;stroke-width:1.5;" x="333.429677" xlink:href="#m1612e8b11a" y="142.757774"/>
     <use style="fill:#f5deb3;stroke:#f5deb3;stroke-linejoin:miter;stroke-width:1.5;" x="363.933742" xlink:href="#m1612e8b11a" y="289.532673"/>
    </g>
   </g>
   <g id="matplotlib.axis_1">
    <g id="xtick_1">
     <g id="line2d_4">
      <path clip-path="url(#p632fa8d576)" d="M 56.12 294.88 
L 56.12 24.84 
" style="fill:none;stroke:#b0b0b0;stroke-linecap:square;stroke-width:0.8;"/>
     </g>
     <g id="line2d_5">
      <defs>
       <path d="M 0 0 
L 0 3.5 
" id="m3c14d73c3f" style="stroke:#000000;stroke-width:0.8;"/>
      </defs>
      <g>
       <use style="stroke:#000000;stroke-width:0.8;" x="56.12" xlink:href="#m3c14d73c3f" y="294.88"/>
      </g>
     </g>
     <g id="text_1">
      <!-- 0 -->
      <defs>
       <path d="M 31.78125 66.40625 
Q 24.171875 66.40625 20.328125 58.90625 
Q 16.5 51.421875 16.5 36.375 
Q 16.5 21.390625 20.328125 13.890625 
Q 24.171875 6.390625 31.78125 6.390625 
Q 39.453125 6.390625 43.28125 13.890625 
Q 47.125 21.390625 47.125 36.375 
Q 47.125 51.421875 43.28125 58.90625 
Q 39.453125 66.40625 31.78125 66.40625 
z
M 31.78125 74.21875 
Q 44.046875 74.21875 50.515625 64.515625 
Q 56.984375 54.828125 56.984375 36.375 
Q 56.984375 17.96875 50.515625 8.265625 
Q 44.046875 -1.421875 31.78125 -1.421875 
Q 19.53125 -1.421875 13.0625 8.265625 
Q 6.59375 17.96875 6.59375 36.375 
Q 6.59375 54.828125 13.0625 64.515625 
Q 19.53125 74.21875 31.78125 74.21875 
z
" id="DejaVuSans-30"/>
      </defs>
      <g transform="translate(49.7575 317.076875)scale(0.2 -0.2)">
       <use xlink:href="#DejaVuSans-30"/>
      </g>
     </g>
    </g>
    <g id="xtick_2">
     <g id="line2d_6">
      <path clip-path="url(#p632fa8d576)" d="M 135.351336 294.88 
L 135.351336 24.84 
" style="fill:none;stroke:#b0b0b0;stroke-linecap:square;stroke-width:0.8;"/>
     </g>
     <g id="line2d_7">
      <g>
       <use style="stroke:#000000;stroke-width:0.8;" x="135.351336" xlink:href="#m3c14d73c3f" y="294.88"/>
      </g>
     </g>
     <g id="text_2">
      <!-- 2 -->
      <defs>
       <path d="M 19.1875 8.296875 
L 53.609375 8.296875 
L 53.609375 0 
L 7.328125 0 
L 7.328125 8.296875 
Q 12.9375 14.109375 22.625 23.890625 
Q 32.328125 33.6875 34.8125 36.53125 
Q 39.546875 41.84375 41.421875 45.53125 
Q 43.3125 49.21875 43.3125 52.78125 
Q 43.3125 58.59375 39.234375 62.25 
Q 35.15625 65.921875 28.609375 65.921875 
Q 23.96875 65.921875 18.8125 64.3125 
Q 13.671875 62.703125 7.8125 59.421875 
L 7.8125 69.390625 
Q 13.765625 71.78125 18.9375 73 
Q 24.125 74.21875 28.421875 74.21875 
Q 39.75 74.21875 46.484375 68.546875 
Q 53.21875 62.890625 53.21875 53.421875 
Q 53.21875 48.921875 51.53125 44.890625 
Q 49.859375 40.875 45.40625 35.40625 
Q 44.1875 33.984375 37.640625 27.21875 
Q 31.109375 20.453125 19.1875 8.296875 
z
" id="DejaVuSans-32"/>
      </defs>
      <g transform="translate(128.988836 317.076875)scale(0.2 -0.2)">
       <use xlink:href="#DejaVuSans-32"/>
      </g>
     </g>
    </g>
    <g id="xtick_3">
     <g id="line2d_8">
      <path clip-path="url(#p632fa8d576)" d="M 214.582673 294.88 
L 214.582673 24.84 
" style="fill:none;stroke:#b0b0b0;stroke-linecap:square;stroke-width:0.8;"/>
     </g>
     <g id="line2d_9">
      <g>
       <use style="stroke:#000000;stroke-width:0.8;" x="214.582673" xlink:href="#m3c14d73c3f" y="294.88"/>
      </g>
     </g>
     <g id="text_3">
      <!-- 4 -->
      <defs>
       <path d="M 37.796875 64.3125 
L 12.890625 25.390625 
L 37.796875 25.390625 
z
M 35.203125 72.90625 
L 47.609375 72.90625 
L 47.609375 25.390625 
L 58.015625 25.390625 
L 58.015625 17.1875 
L 47.609375 17.1875 
L 47.609375 0 
L 37.796875 0 
L 37.796875 17.1875 
L 4.890625 17.1875 
L 4.890625 26.703125 
z
" id="DejaVuSans-34"/>
      </defs>
      <g transform="translate(208.220173 317.076875)scale(0.2 -0.2)">
       <use xlink:href="#DejaVuSans-34"/>
      </g>
     </g>
    </g>
    <g id="xtick_4">
     <g id="line2d_10">
      <path clip-path="url(#p632fa8d576)" d="M 293.814009 294.88 
L 293.814009 24.84 
" style="fill:none;stroke:#b0b0b0;stroke-linecap:square;stroke-width:0.8;"/>
     </g>
     <g id="line2d_11">
      <g>
       <use style="stroke:#000000;stroke-width:0.8;" x="293.814009" xlink:href="#m3c14d73c3f" y="294.88"/>
      </g>
     </g>
     <g id="text_4">
      <!-- 6 -->
      <defs>
       <path d="M 33.015625 40.375 
Q 26.375 40.375 22.484375 35.828125 
Q 18.609375 31.296875 18.609375 23.390625 
Q 18.609375 15.53125 22.484375 10.953125 
Q 26.375 6.390625 33.015625 6.390625 
Q 39.65625 6.390625 43.53125 10.953125 
Q 47.40625 15.53125 47.40625 23.390625 
Q 47.40625 31.296875 43.53125 35.828125 
Q 39.65625 40.375 33.015625 40.375 
z
M 52.59375 71.296875 
L 52.59375 62.3125 
Q 48.875 64.0625 45.09375 64.984375 
Q 41.3125 65.921875 37.59375 65.921875 
Q 27.828125 65.921875 22.671875 59.328125 
Q 17.53125 52.734375 16.796875 39.40625 
Q 19.671875 43.65625 24.015625 45.921875 
Q 28.375 48.1875 33.59375 48.1875 
Q 44.578125 48.1875 50.953125 41.515625 
Q 57.328125 34.859375 57.328125 23.390625 
Q 57.328125 12.15625 50.6875 5.359375 
Q 44.046875 -1.421875 33.015625 -1.421875 
Q 20.359375 -1.421875 13.671875 8.265625 
Q 6.984375 17.96875 6.984375 36.375 
Q 6.984375 53.65625 15.1875 63.9375 
Q 23.390625 74.21875 37.203125 74.21875 
Q 40.921875 74.21875 44.703125 73.484375 
Q 48.484375 72.75 52.59375 71.296875 
z
" id="DejaVuSans-36"/>
      </defs>
      <g transform="translate(287.451509 317.076875)scale(0.2 -0.2)">
       <use xlink:href="#DejaVuSans-36"/>
      </g>
     </g>
    </g>
    <g id="xtick_5">
     <g id="line2d_12">
      <path clip-path="url(#p632fa8d576)" d="M 373.045346 294.88 
L 373.045346 24.84 
" style="fill:none;stroke:#b0b0b0;stroke-linecap:square;stroke-width:0.8;"/>
     </g>
     <g id="line2d_13">
      <g>
       <use style="stroke:#000000;stroke-width:0.8;" x="373.045346" xlink:href="#m3c14d73c3f" y="294.88"/>
      </g>
     </g>
     <g id="text_5">
      <!-- 8 -->
      <defs>
       <path d="M 31.78125 34.625 
Q 24.75 34.625 20.71875 30.859375 
Q 16.703125 27.09375 16.703125 20.515625 
Q 16.703125 13.921875 20.71875 10.15625 
Q 24.75 6.390625 31.78125 6.390625 
Q 38.8125 6.390625 42.859375 10.171875 
Q 46.921875 13.96875 46.921875 20.515625 
Q 46.921875 27.09375 42.890625 30.859375 
Q 38.875 34.625 31.78125 34.625 
z
M 21.921875 38.8125 
Q 15.578125 40.375 12.03125 44.71875 
Q 8.5 49.078125 8.5 55.328125 
Q 8.5 64.0625 14.71875 69.140625 
Q 20.953125 74.21875 31.78125 74.21875 
Q 42.671875 74.21875 48.875 69.140625 
Q 55.078125 64.0625 55.078125 55.328125 
Q 55.078125 49.078125 51.53125 44.71875 
Q 48 40.375 41.703125 38.8125 
Q 48.828125 37.15625 52.796875 32.3125 
Q 56.78125 27.484375 56.78125 20.515625 
Q 56.78125 9.90625 50.3125 4.234375 
Q 43.84375 -1.421875 31.78125 -1.421875 
Q 19.734375 -1.421875 13.25 4.234375 
Q 6.78125 9.90625 6.78125 20.515625 
Q 6.78125 27.484375 10.78125 32.3125 
Q 14.796875 37.15625 21.921875 38.8125 
z
M 18.3125 54.390625 
Q 18.3125 48.734375 21.84375 45.5625 
Q 25.390625 42.390625 31.78125 42.390625 
Q 38.140625 42.390625 41.71875 45.5625 
Q 45.3125 48.734375 45.3125 54.390625 
Q 45.3125 60.0625 41.71875 63.234375 
Q 38.140625 66.40625 31.78125 66.40625 
Q 25.390625 66.40625 21.84375 63.234375 
Q 18.3125 60.0625 18.3125 54.390625 
z
" id="DejaVuSans-38"/>
      </defs>
      <g transform="translate(366.682846 317.076875)scale(0.2 -0.2)">
       <use xlink:href="#DejaVuSans-38"/>
      </g>
     </g>
    </g>
    <g id="text_6">
     <!-- log10(# f-evals / dimension) -->
     <defs>
      <path d="M 9.421875 75.984375 
L 18.40625 75.984375 
L 18.40625 0 
L 9.421875 0 
z
" id="DejaVuSans-6c"/>
      <path d="M 30.609375 48.390625 
Q 23.390625 48.390625 19.1875 42.75 
Q 14.984375 37.109375 14.984375 27.296875 
Q 14.984375 17.484375 19.15625 11.84375 
Q 23.34375 6.203125 30.609375 6.203125 
Q 37.796875 6.203125 41.984375 11.859375 
Q 46.1875 17.53125 46.1875 27.296875 
Q 46.1875 37.015625 41.984375 42.703125 
Q 37.796875 48.390625 30.609375 48.390625 
z
M 30.609375 56 
Q 42.328125 56 49.015625 48.375 
Q 55.71875 40.765625 55.71875 27.296875 
Q 55.71875 13.875 49.015625 6.21875 
Q 42.328125 -1.421875 30.609375 -1.421875 
Q 18.84375 -1.421875 12.171875 6.21875 
Q 5.515625 13.875 5.515625 27.296875 
Q 5.515625 40.765625 12.171875 48.375 
Q 18.84375 56 30.609375 56 
z
" id="DejaVuSans-6f"/>
      <path d="M 45.40625 27.984375 
Q 45.40625 37.75 41.375 43.109375 
Q 37.359375 48.484375 30.078125 48.484375 
Q 22.859375 48.484375 18.828125 43.109375 
Q 14.796875 37.75 14.796875 27.984375 
Q 14.796875 18.265625 18.828125 12.890625 
Q 22.859375 7.515625 30.078125 7.515625 
Q 37.359375 7.515625 41.375 12.890625 
Q 45.40625 18.265625 45.40625 27.984375 
z
M 54.390625 6.78125 
Q 54.390625 -7.171875 48.1875 -13.984375 
Q 42 -20.796875 29.203125 -20.796875 
Q 24.46875 -20.796875 20.265625 -20.09375 
Q 16.0625 -19.390625 12.109375 -17.921875 
L 12.109375 -9.1875 
Q 16.0625 -11.328125 19.921875 -12.34375 
Q 23.78125 -13.375 27.78125 -13.375 
Q 36.625 -13.375 41.015625 -8.765625 
Q 45.40625 -4.15625 45.40625 5.171875 
L 45.40625 9.625 
Q 42.625 4.78125 38.28125 2.390625 
Q 33.9375 0 27.875 0 
Q 17.828125 0 11.671875 7.65625 
Q 5.515625 15.328125 5.515625 27.984375 
Q 5.515625 40.671875 11.671875 48.328125 
Q 17.828125 56 27.875 56 
Q 33.9375 56 38.28125 53.609375 
Q 42.625 51.21875 45.40625 46.390625 
L 45.40625 54.6875 
L 54.390625 54.6875 
z
" id="DejaVuSans-67"/>
      <path d="M 12.40625 8.296875 
L 28.515625 8.296875 
L 28.515625 63.921875 
L 10.984375 60.40625 
L 10.984375 69.390625 
L 28.421875 72.90625 
L 38.28125 72.90625 
L 38.28125 8.296875 
L 54.390625 8.296875 
L 54.390625 0 
L 12.40625 0 
z
" id="DejaVuSans-31"/>
      <path d="M 31 75.875 
Q 24.46875 64.65625 21.28125 53.65625 
Q 18.109375 42.671875 18.109375 31.390625 
Q 18.109375 20.125 21.3125 9.0625 
Q 24.515625 -2 31 -13.1875 
L 23.1875 -13.1875 
Q 15.875 -1.703125 12.234375 9.375 
Q 8.59375 20.453125 8.59375 31.390625 
Q 8.59375 42.28125 12.203125 53.3125 
Q 15.828125 64.359375 23.1875 75.875 
z
" id="DejaVuSans-28"/>
      <path d="M 51.125 44 
L 36.921875 44 
L 32.8125 27.6875 
L 47.125 27.6875 
z
M 43.796875 71.78125 
L 38.71875 51.515625 
L 52.984375 51.515625 
L 58.109375 71.78125 
L 65.921875 71.78125 
L 60.890625 51.515625 
L 76.125 51.515625 
L 76.125 44 
L 58.984375 44 
L 54.984375 27.6875 
L 70.515625 27.6875 
L 70.515625 20.21875 
L 53.078125 20.21875 
L 48 0 
L 40.1875 0 
L 45.21875 20.21875 
L 30.90625 20.21875 
L 25.875 0 
L 18.015625 0 
L 23.09375 20.21875 
L 7.71875 20.21875 
L 7.71875 27.6875 
L 24.90625 27.6875 
L 29 44 
L 13.28125 44 
L 13.28125 51.515625 
L 30.90625 51.515625 
L 35.890625 71.78125 
z
" id="DejaVuSans-23"/>
      <path id="DejaVuSans-20"/>
      <path d="M 37.109375 75.984375 
L 37.109375 68.5 
L 28.515625 68.5 
Q 23.6875 68.5 21.796875 66.546875 
Q 19.921875 64.59375 19.921875 59.515625 
L 19.921875 54.6875 
L 34.71875 54.6875 
L 34.71875 47.703125 
L 19.921875 47.703125 
L 19.921875 0 
L 10.890625 0 
L 10.890625 47.703125 
L 2.296875 47.703125 
L 2.296875 54.6875 
L 10.890625 54.6875 
L 10.890625 58.5 
Q 10.890625 67.625 15.140625 71.796875 
Q 19.390625 75.984375 28.609375 75.984375 
z
" id="DejaVuSans-66"/>
      <path d="M 4.890625 31.390625 
L 31.203125 31.390625 
L 31.203125 23.390625 
L 4.890625 23.390625 
z
" id="DejaVuSans-2d"/>
      <path d="M 56.203125 29.59375 
L 56.203125 25.203125 
L 14.890625 25.203125 
Q 15.484375 15.921875 20.484375 11.0625 
Q 25.484375 6.203125 34.421875 6.203125 
Q 39.59375 6.203125 44.453125 7.46875 
Q 49.3125 8.734375 54.109375 11.28125 
L 54.109375 2.78125 
Q 49.265625 0.734375 44.1875 -0.34375 
Q 39.109375 -1.421875 33.890625 -1.421875 
Q 20.796875 -1.421875 13.15625 6.1875 
Q 5.515625 13.8125 5.515625 26.8125 
Q 5.515625 40.234375 12.765625 48.109375 
Q 20.015625 56 32.328125 56 
Q 43.359375 56 49.78125 48.890625 
Q 56.203125 41.796875 56.203125 29.59375 
z
M 47.21875 32.234375 
Q 47.125 39.59375 43.09375 43.984375 
Q 39.0625 48.390625 32.421875 48.390625 
Q 24.90625 48.390625 20.390625 44.140625 
Q 15.875 39.890625 15.1875 32.171875 
z
" id="DejaVuSans-65"/>
      <path d="M 2.984375 54.6875 
L 12.5 54.6875 
L 29.59375 8.796875 
L 46.6875 54.6875 
L 56.203125 54.6875 
L 35.6875 0 
L 23.484375 0 
z
" id="DejaVuSans-76"/>
      <path d="M 34.28125 27.484375 
Q 23.390625 27.484375 19.1875 25 
Q 14.984375 22.515625 14.984375 16.5 
Q 14.984375 11.71875 18.140625 8.90625 
Q 21.296875 6.109375 26.703125 6.109375 
Q 34.1875 6.109375 38.703125 11.40625 
Q 43.21875 16.703125 43.21875 25.484375 
L 43.21875 27.484375 
z
M 52.203125 31.203125 
L 52.203125 0 
L 43.21875 0 
L 43.21875 8.296875 
Q 40.140625 3.328125 35.546875 0.953125 
Q 30.953125 -1.421875 24.3125 -1.421875 
Q 15.921875 -1.421875 10.953125 3.296875 
Q 6 8.015625 6 15.921875 
Q 6 25.140625 12.171875 29.828125 
Q 18.359375 34.515625 30.609375 34.515625 
L 43.21875 34.515625 
L 43.21875 35.40625 
Q 43.21875 41.609375 39.140625 45 
Q 35.0625 48.390625 27.6875 48.390625 
Q 23 48.390625 18.546875 47.265625 
Q 14.109375 46.140625 10.015625 43.890625 
L 10.015625 52.203125 
Q 14.9375 54.109375 19.578125 55.046875 
Q 24.21875 56 28.609375 56 
Q 40.484375 56 46.34375 49.84375 
Q 52.203125 43.703125 52.203125 31.203125 
z
" id="DejaVuSans-61"/>
      <path d="M 44.28125 53.078125 
L 44.28125 44.578125 
Q 40.484375 46.53125 36.375 47.5 
Q 32.28125 48.484375 27.875 48.484375 
Q 21.1875 48.484375 17.84375 46.4375 
Q 14.5 44.390625 14.5 40.28125 
Q 14.5 37.15625 16.890625 35.375 
Q 19.28125 33.59375 26.515625 31.984375 
L 29.59375 31.296875 
Q 39.15625 29.25 43.1875 25.515625 
Q 47.21875 21.78125 47.21875 15.09375 
Q 47.21875 7.46875 41.1875 3.015625 
Q 35.15625 -1.421875 24.609375 -1.421875 
Q 20.21875 -1.421875 15.453125 -0.5625 
Q 10.6875 0.296875 5.421875 2 
L 5.421875 11.28125 
Q 10.40625 8.6875 15.234375 7.390625 
Q 20.0625 6.109375 24.8125 6.109375 
Q 31.15625 6.109375 34.5625 8.28125 
Q 37.984375 10.453125 37.984375 14.40625 
Q 37.984375 18.0625 35.515625 20.015625 
Q 33.0625 21.96875 24.703125 23.78125 
L 21.578125 24.515625 
Q 13.234375 26.265625 9.515625 29.90625 
Q 5.8125 33.546875 5.8125 39.890625 
Q 5.8125 47.609375 11.28125 51.796875 
Q 16.75 56 26.8125 56 
Q 31.78125 56 36.171875 55.265625 
Q 40.578125 54.546875 44.28125 53.078125 
z
" id="DejaVuSans-73"/>
      <path d="M 25.390625 72.90625 
L 33.6875 72.90625 
L 8.296875 -9.28125 
L 0 -9.28125 
z
" id="DejaVuSans-2f"/>
      <path d="M 45.40625 46.390625 
L 45.40625 75.984375 
L 54.390625 75.984375 
L 54.390625 0 
L 45.40625 0 
L 45.40625 8.203125 
Q 42.578125 3.328125 38.25 0.953125 
Q 33.9375 -1.421875 27.875 -1.421875 
Q 17.96875 -1.421875 11.734375 6.484375 
Q 5.515625 14.40625 5.515625 27.296875 
Q 5.515625 40.1875 11.734375 48.09375 
Q 17.96875 56 27.875 56 
Q 33.9375 56 38.25 53.625 
Q 42.578125 51.265625 45.40625 46.390625 
z
M 14.796875 27.296875 
Q 14.796875 17.390625 18.875 11.75 
Q 22.953125 6.109375 30.078125 6.109375 
Q 37.203125 6.109375 41.296875 11.75 
Q 45.40625 17.390625 45.40625 27.296875 
Q 45.40625 37.203125 41.296875 42.84375 
Q 37.203125 48.484375 30.078125 48.484375 
Q 22.953125 48.484375 18.875 42.84375 
Q 14.796875 37.203125 14.796875 27.296875 
z
" id="DejaVuSans-64"/>
      <path d="M 9.421875 54.6875 
L 18.40625 54.6875 
L 18.40625 0 
L 9.421875 0 
z
M 9.421875 75.984375 
L 18.40625 75.984375 
L 18.40625 64.59375 
L 9.421875 64.59375 
z
" id="DejaVuSans-69"/>
      <path d="M 52 44.1875 
Q 55.375 50.25 60.0625 53.125 
Q 64.75 56 71.09375 56 
Q 79.640625 56 84.28125 50.015625 
Q 88.921875 44.046875 88.921875 33.015625 
L 88.921875 0 
L 79.890625 0 
L 79.890625 32.71875 
Q 79.890625 40.578125 77.09375 44.375 
Q 74.3125 48.1875 68.609375 48.1875 
Q 61.625 48.1875 57.5625 43.546875 
Q 53.515625 38.921875 53.515625 30.90625 
L 53.515625 0 
L 44.484375 0 
L 44.484375 32.71875 
Q 44.484375 40.625 41.703125 44.40625 
Q 38.921875 48.1875 33.109375 48.1875 
Q 26.21875 48.1875 22.15625 43.53125 
Q 18.109375 38.875 18.109375 30.90625 
L 18.109375 0 
L 9.078125 0 
L 9.078125 54.6875 
L 18.109375 54.6875 
L 18.109375 46.1875 
Q 21.1875 51.21875 25.484375 53.609375 
Q 29.78125 56 35.6875 56 
Q 41.65625 56 45.828125 52.96875 
Q 50 49.953125 52 44.1875 
z
" id="DejaVuSans-6d"/>
      <path d="M 54.890625 33.015625 
L 54.890625 0 
L 45.90625 0 
L 45.90625 32.71875 
Q 45.90625 40.484375 42.875 44.328125 
Q 39.84375 48.1875 33.796875 48.1875 
Q 26.515625 48.1875 22.3125 43.546875 
Q 18.109375 38.921875 18.109375 30.90625 
L 18.109375 0 
L 9.078125 0 
L 9.078125 54.6875 
L 18.109375 54.6875 
L 18.109375 46.1875 
Q 21.34375 51.125 25.703125 53.5625 
Q 30.078125 56 35.796875 56 
Q 45.21875 56 50.046875 50.171875 
Q 54.890625 44.34375 54.890625 33.015625 
z
" id="DejaVuSans-6e"/>
      <path d="M 8.015625 75.875 
L 15.828125 75.875 
Q 23.140625 64.359375 26.78125 53.3125 
Q 30.421875 42.28125 30.421875 31.390625 
Q 30.421875 20.453125 26.78125 9.375 
Q 23.140625 -1.703125 15.828125 -13.1875 
L 8.015625 -13.1875 
Q 14.5 -2 17.703125 9.0625 
Q 20.90625 20.125 20.90625 31.390625 
Q 20.90625 42.671875 17.703125 53.65625 
Q 14.5 64.65625 8.015625 75.875 
z
" id="DejaVuSans-29"/>
     </defs>
     <g transform="translate(107.211219 338.153594)scale(0.17 -0.17)">
      <use xlink:href="#DejaVuSans-6c"/>
      <use x="27.783203" xlink:href="#DejaVuSans-6f"/>
      <use x="88.964844" xlink:href="#DejaVuSans-67"/>
      <use x="152.441406" xlink:href="#DejaVuSans-31"/>
      <use x="216.064453" xlink:href="#DejaVuSans-30"/>
      <use x="279.6875" xlink:href="#DejaVuSans-28"/>
      <use x="318.701172" xlink:href="#DejaVuSans-23"/>
      <use x="402.490234" xlink:href="#DejaVuSans-20"/>
      <use x="434.277344" xlink:href="#DejaVuSans-66"/>
      <use x="469.404297" xlink:href="#DejaVuSans-2d"/>
      <use x="505.488281" xlink:href="#DejaVuSans-65"/>
      <use x="567.011719" xlink:href="#DejaVuSans-76"/>
      <use x="626.191406" xlink:href="#DejaVuSans-61"/>
      <use x="687.470703" xlink:href="#DejaVuSans-6c"/>
      <use x="715.253906" xlink:href="#DejaVuSans-73"/>
      <use x="767.353516" xlink:href="#DejaVuSans-20"/>
      <use x="799.140625" xlink:href="#DejaVuSans-2f"/>
      <use x="832.832031" xlink:href="#DejaVuSans-20"/>
      <use x="864.619141" xlink:href="#DejaVuSans-64"/>
      <use x="928.095703" xlink:href="#DejaVuSans-69"/>
      <use x="955.878906" xlink:href="#DejaVuSans-6d"/>
      <use x="1053.291016" xlink:href="#DejaVuSans-65"/>
      <use x="1114.814453" xlink:href="#DejaVuSans-6e"/>
      <use x="1178.193359" xlink:href="#DejaVuSans-73"/>
      <use x="1230.292969" xlink:href="#DejaVuSans-69"/>
      <use x="1258.076172" xlink:href="#DejaVuSans-6f"/>
      <use x="1319.257812" xlink:href="#DejaVuSans-6e"/>
      <use x="1382.636719" xlink:href="#DejaVuSans-29"/>
     </g>
    </g>
   </g>
   <g id="matplotlib.axis_2">
    <g id="ytick_1">
     <g id="line2d_14">
      <path clip-path="url(#p632fa8d576)" d="M 56.12 294.88 
L 399.984 294.88 
" style="fill:none;stroke:#b0b0b0;stroke-linecap:square;stroke-width:0.8;"/>
     </g>
     <g id="line2d_15">
      <defs>
       <path d="M 0 0 
L -3.5 0 
" id="mb94a97845b" style="stroke:#000000;stroke-width:0.8;"/>
      </defs>
      <g>
       <use style="stroke:#000000;stroke-width:0.8;" x="56.12" xlink:href="#mb94a97845b" y="294.88"/>
      </g>
     </g>
     <g id="text_7">
      <!-- 0.0 -->
      <defs>
       <path d="M 10.6875 12.40625 
L 21 12.40625 
L 21 0 
L 10.6875 0 
z
" id="DejaVuSans-2e"/>
      </defs>
      <g transform="translate(23.675 300.95875)scale(0.16 -0.16)">
       <use xlink:href="#DejaVuSans-30"/>
       <use x="63.623047" xlink:href="#DejaVuSans-2e"/>
       <use x="95.410156" xlink:href="#DejaVuSans-30"/>
      </g>
     </g>
    </g>
    <g id="ytick_2">
     <g id="line2d_16">
      <path clip-path="url(#p632fa8d576)" d="M 56.12 241.406733 
L 399.984 241.406733 
" style="fill:none;stroke:#b0b0b0;stroke-linecap:square;stroke-width:0.8;"/>
     </g>
     <g id="line2d_17">
      <g>
       <use style="stroke:#000000;stroke-width:0.8;" x="56.12" xlink:href="#mb94a97845b" y="241.406733"/>
      </g>
     </g>
     <g id="text_8">
      <!-- 0.2 -->
      <g transform="translate(23.675 247.485483)scale(0.16 -0.16)">
       <use xlink:href="#DejaVuSans-30"/>
       <use x="63.623047" xlink:href="#DejaVuSans-2e"/>
       <use x="95.410156" xlink:href="#DejaVuSans-32"/>
      </g>
     </g>
    </g>
    <g id="ytick_3">
     <g id="line2d_18">
      <path clip-path="url(#p632fa8d576)" d="M 56.12 187.933465 
L 399.984 187.933465 
" style="fill:none;stroke:#b0b0b0;stroke-linecap:square;stroke-width:0.8;"/>
     </g>
     <g id="line2d_19">
      <g>
       <use style="stroke:#000000;stroke-width:0.8;" x="56.12" xlink:href="#mb94a97845b" y="187.933465"/>
      </g>
     </g>
     <g id="text_9">
      <!-- 0.4 -->
      <g transform="translate(23.675 194.012215)scale(0.16 -0.16)">
       <use xlink:href="#DejaVuSans-30"/>
       <use x="63.623047" xlink:href="#DejaVuSans-2e"/>
       <use x="95.410156" xlink:href="#DejaVuSans-34"/>
      </g>
     </g>
    </g>
    <g id="ytick_4">
     <g id="line2d_20">
      <path clip-path="url(#p632fa8d576)" d="M 56.12 134.460198 
L 399.984 134.460198 
" style="fill:none;stroke:#b0b0b0;stroke-linecap:square;stroke-width:0.8;"/>
     </g>
     <g id="line2d_21">
      <g>
       <use style="stroke:#000000;stroke-width:0.8;" x="56.12" xlink:href="#mb94a97845b" y="134.460198"/>
      </g>
     </g>
     <g id="text_10">
      <!-- 0.6 -->
      <g transform="translate(23.675 140.538948)scale(0.16 -0.16)">
       <use xlink:href="#DejaVuSans-30"/>
       <use x="63.623047" xlink:href="#DejaVuSans-2e"/>
       <use x="95.410156" xlink:href="#DejaVuSans-36"/>
      </g>
     </g>
    </g>
    <g id="ytick_5">
     <g id="line2d_22">
      <path clip-path="url(#p632fa8d576)" d="M 56.12 80.986931 
L 399.984 80.986931 
" style="fill:none;stroke:#b0b0b0;stroke-linecap:square;stroke-width:0.8;"/>
     </g>
     <g id="line2d_23">
      <g>
       <use style="stroke:#000000;stroke-width:0.8;" x="56.12" xlink:href="#mb94a97845b" y="80.986931"/>
      </g>
     </g>
     <g id="text_11">
      <!-- 0.8 -->
      <g transform="translate(23.675 87.065681)scale(0.16 -0.16)">
       <use xlink:href="#DejaVuSans-30"/>
       <use x="63.623047" xlink:href="#DejaVuSans-2e"/>
       <use x="95.410156" xlink:href="#DejaVuSans-38"/>
      </g>
     </g>
    </g>
    <g id="ytick_6">
     <g id="line2d_24">
      <path clip-path="url(#p632fa8d576)" d="M 56.12 27.513663 
L 399.984 27.513663 
" style="fill:none;stroke:#b0b0b0;stroke-linecap:square;stroke-width:0.8;"/>
     </g>
     <g id="line2d_25">
      <g>
       <use style="stroke:#000000;stroke-width:0.8;" x="56.12" xlink:href="#mb94a97845b" y="27.513663"/>
      </g>
     </g>
     <g id="text_12">
      <!-- 1.0 -->
      <g transform="translate(23.675 33.592413)scale(0.16 -0.16)">
       <use xlink:href="#DejaVuSans-31"/>
       <use x="63.623047" xlink:href="#DejaVuSans-2e"/>
       <use x="95.410156" xlink:href="#DejaVuSans-30"/>
      </g>
     </g>
    </g>
    <g id="text_13">
     <!-- Fraction of function,target pairs -->
     <defs>
      <path d="M 9.8125 72.90625 
L 51.703125 72.90625 
L 51.703125 64.59375 
L 19.671875 64.59375 
L 19.671875 43.109375 
L 48.578125 43.109375 
L 48.578125 34.8125 
L 19.671875 34.8125 
L 19.671875 0 
L 9.8125 0 
z
" id="DejaVuSans-46"/>
      <path d="M 41.109375 46.296875 
Q 39.59375 47.171875 37.8125 47.578125 
Q 36.03125 48 33.890625 48 
Q 26.265625 48 22.1875 43.046875 
Q 18.109375 38.09375 18.109375 28.8125 
L 18.109375 0 
L 9.078125 0 
L 9.078125 54.6875 
L 18.109375 54.6875 
L 18.109375 46.1875 
Q 20.953125 51.171875 25.484375 53.578125 
Q 30.03125 56 36.53125 56 
Q 37.453125 56 38.578125 55.875 
Q 39.703125 55.765625 41.0625 55.515625 
z
" id="DejaVuSans-72"/>
      <path d="M 48.78125 52.59375 
L 48.78125 44.1875 
Q 44.96875 46.296875 41.140625 47.34375 
Q 37.3125 48.390625 33.40625 48.390625 
Q 24.65625 48.390625 19.8125 42.84375 
Q 14.984375 37.3125 14.984375 27.296875 
Q 14.984375 17.28125 19.8125 11.734375 
Q 24.65625 6.203125 33.40625 6.203125 
Q 37.3125 6.203125 41.140625 7.25 
Q 44.96875 8.296875 48.78125 10.40625 
L 48.78125 2.09375 
Q 45.015625 0.34375 40.984375 -0.53125 
Q 36.96875 -1.421875 32.421875 -1.421875 
Q 20.0625 -1.421875 12.78125 6.34375 
Q 5.515625 14.109375 5.515625 27.296875 
Q 5.515625 40.671875 12.859375 48.328125 
Q 20.21875 56 33.015625 56 
Q 37.15625 56 41.109375 55.140625 
Q 45.0625 54.296875 48.78125 52.59375 
z
" id="DejaVuSans-63"/>
      <path d="M 18.3125 70.21875 
L 18.3125 54.6875 
L 36.8125 54.6875 
L 36.8125 47.703125 
L 18.3125 47.703125 
L 18.3125 18.015625 
Q 18.3125 11.328125 20.140625 9.421875 
Q 21.96875 7.515625 27.59375 7.515625 
L 36.8125 7.515625 
L 36.8125 0 
L 27.59375 0 
Q 17.1875 0 13.234375 3.875 
Q 9.28125 7.765625 9.28125 18.015625 
L 9.28125 47.703125 
L 2.6875 47.703125 
L 2.6875 54.6875 
L 9.28125 54.6875 
L 9.28125 70.21875 
z
" id="DejaVuSans-74"/>
      <path d="M 8.5 21.578125 
L 8.5 54.6875 
L 17.484375 54.6875 
L 17.484375 21.921875 
Q 17.484375 14.15625 20.5 10.265625 
Q 23.53125 6.390625 29.59375 6.390625 
Q 36.859375 6.390625 41.078125 11.03125 
Q 45.3125 15.671875 45.3125 23.6875 
L 45.3125 54.6875 
L 54.296875 54.6875 
L 54.296875 0 
L 45.3125 0 
L 45.3125 8.40625 
Q 42.046875 3.421875 37.71875 1 
Q 33.40625 -1.421875 27.6875 -1.421875 
Q 18.265625 -1.421875 13.375 4.4375 
Q 8.5 10.296875 8.5 21.578125 
z
M 31.109375 56 
z
" id="DejaVuSans-75"/>
      <path d="M 11.71875 12.40625 
L 22.015625 12.40625 
L 22.015625 4 
L 14.015625 -11.625 
L 7.71875 -11.625 
L 11.71875 4 
z
" id="DejaVuSans-2c"/>
      <path d="M 18.109375 8.203125 
L 18.109375 -20.796875 
L 9.078125 -20.796875 
L 9.078125 54.6875 
L 18.109375 54.6875 
L 18.109375 46.390625 
Q 20.953125 51.265625 25.265625 53.625 
Q 29.59375 56 35.59375 56 
Q 45.5625 56 51.78125 48.09375 
Q 58.015625 40.1875 58.015625 27.296875 
Q 58.015625 14.40625 51.78125 6.484375 
Q 45.5625 -1.421875 35.59375 -1.421875 
Q 29.59375 -1.421875 25.265625 0.953125 
Q 20.953125 3.328125 18.109375 8.203125 
z
M 48.6875 27.296875 
Q 48.6875 37.203125 44.609375 42.84375 
Q 40.53125 48.484375 33.40625 48.484375 
Q 26.265625 48.484375 22.1875 42.84375 
Q 18.109375 37.203125 18.109375 27.296875 
Q 18.109375 17.390625 22.1875 11.75 
Q 26.265625 6.109375 33.40625 6.109375 
Q 40.53125 6.109375 44.609375 11.75 
Q 48.6875 17.390625 48.6875 27.296875 
z
" id="DejaVuSans-70"/>
     </defs>
     <g transform="translate(16.139531 294.999375)rotate(-90)scale(0.17 -0.17)">
      <use xlink:href="#DejaVuSans-46"/>
      <use x="57.410156" xlink:href="#DejaVuSans-72"/>
      <use x="98.523438" xlink:href="#DejaVuSans-61"/>
      <use x="159.802734" xlink:href="#DejaVuSans-63"/>
      <use x="214.783203" xlink:href="#DejaVuSans-74"/>
      <use x="253.992188" xlink:href="#DejaVuSans-69"/>
      <use x="281.775391" xlink:href="#DejaVuSans-6f"/>
      <use x="342.957031" xlink:href="#DejaVuSans-6e"/>
      <use x="406.335938" xlink:href="#DejaVuSans-20"/>
      <use x="438.123047" xlink:href="#DejaVuSans-6f"/>
      <use x="499.304688" xlink:href="#DejaVuSans-66"/>
      <use x="534.509766" xlink:href="#DejaVuSans-20"/>
      <use x="566.296875" xlink:href="#DejaVuSans-66"/>
      <use x="601.501953" xlink:href="#DejaVuSans-75"/>
      <use x="664.880859" xlink:href="#DejaVuSans-6e"/>
      <use x="728.259766" xlink:href="#DejaVuSans-63"/>
      <use x="783.240234" xlink:href="#DejaVuSans-74"/>
      <use x="822.449219" xlink:href="#DejaVuSans-69"/>
      <use x="850.232422" xlink:href="#DejaVuSans-6f"/>
      <use x="911.414062" xlink:href="#DejaVuSans-6e"/>
      <use x="974.792969" xlink:href="#DejaVuSans-2c"/>
      <use x="1006.580078" xlink:href="#DejaVuSans-74"/>
      <use x="1045.789062" xlink:href="#DejaVuSans-61"/>
      <use x="1107.068359" xlink:href="#DejaVuSans-72"/>
      <use x="1148.166016" xlink:href="#DejaVuSans-67"/>
      <use x="1211.642578" xlink:href="#DejaVuSans-65"/>
      <use x="1273.166016" xlink:href="#DejaVuSans-74"/>
      <use x="1312.375" xlink:href="#DejaVuSans-20"/>
      <use x="1344.162109" xlink:href="#DejaVuSans-70"/>
      <use x="1407.638672" xlink:href="#DejaVuSans-61"/>
      <use x="1468.917969" xlink:href="#DejaVuSans-69"/>
      <use x="1496.701172" xlink:href="#DejaVuSans-72"/>
      <use x="1537.814453" xlink:href="#DejaVuSans-73"/>
     </g>
    </g>
   </g>
   <g id="line2d_26">
    <defs>
     <path d="M 0 1.5 
C 0.397805 1.5 0.77937 1.341951 1.06066 1.06066 
C 1.341951 0.77937 1.5 0.397805 1.5 0 
C 1.5 -0.397805 1.341951 -0.77937 1.06066 -1.06066 
C 0.77937 -1.341951 0.397805 -1.5 0 -1.5 
C -0.397805 -1.5 -0.77937 -1.341951 -1.06066 -1.06066 
C -1.341951 -0.77937 -1.5 -0.397805 -1.5 0 
C -1.5 0.397805 -1.341951 0.77937 -1.06066 1.06066 
C -0.77937 1.341951 -0.397805 1.5 0 1.5 
z
" id="maacbc48694" style="stroke:#f5deb3;"/>
    </defs>
    <g>
     <use style="fill:#f5deb3;stroke:#f5deb3;" x="272.848191" xlink:href="#maacbc48694" y="142.757774"/>
     <use style="fill:#f5deb3;stroke:#f5deb3;" x="272.848191" xlink:href="#maacbc48694" y="142.757774"/>
    </g>
   </g>
   <g id="line2d_27">
    <g>
     <use style="fill:#f5deb3;stroke:#f5deb3;stroke-linejoin:miter;stroke-width:1.5;" x="143.098328" xlink:href="#m1612e8b11a" y="267.221413"/>
     <use style="fill:#f5deb3;stroke:#f5deb3;stroke-linejoin:miter;stroke-width:1.5;" x="168.345643" xlink:href="#m1612e8b11a" y="188.855418"/>
     <use style="fill:#f5deb3;stroke:#f5deb3;stroke-linejoin:miter;stroke-width:1.5;" x="258.226339" xlink:href="#m1612e8b11a" y="165.806596"/>
     <use style="fill:#f5deb3;stroke:#f5deb3;stroke-linejoin:miter;stroke-width:1.5;" x="272.848191" xlink:href="#m1612e8b11a" y="142.757774"/>
     <use style="fill:#f5deb3;stroke:#f5deb3;stroke-linejoin:miter;stroke-width:1.5;" x="333.429677" xlink:href="#m1612e8b11a" y="142.757774"/>
    </g>
   </g>
   <g id="line2d_28">
    <defs>
     <path d="M 0 1.5 
C 0.397805 1.5 0.77937 1.341951 1.06066 1.06066 
C 1.341951 0.77937 1.5 0.397805 1.5 0 
C 1.5 -0.397805 1.341951 -0.77937 1.06066 -1.06066 
C 0.77937 -1.341951 0.397805 -1.5 0 -1.5 
C -0.397805 -1.5 -0.77937 -1.341951 -1.06066 -1.06066 
C -1.341951 -0.77937 -1.5 -0.397805 -1.5 0 
C -1.5 0.397805 -1.341951 0.77937 -1.06066 1.06066 
C -0.77937 1.341951 -0.397805 1.5 0 1.5 
z
" id="md938b5ffce" style="stroke:#999999;"/>
    </defs>
    <g>
     <use style="fill:#999999;stroke:#999999;" x="270.132065" xlink:href="#md938b5ffce" y="262.611649"/>
     <use style="fill:#999999;stroke:#999999;" x="270.132065" xlink:href="#md938b5ffce" y="262.611649"/>
    </g>
   </g>
   <g id="line2d_29">
    <path d="M -1 283.355589 
L 113.249265 283.355589 
L 113.249265 282.894612 
L 117.399536 282.894612 
L 117.399536 282.433636 
L 121.059485 282.433636 
L 121.059485 281.511683 
L 123.356875 281.511683 
L 123.356875 281.050707 
L 125.390991 281.050707 
L 125.390991 280.58973 
L 128.569964 280.58973 
L 128.569964 280.128754 
L 131.517557 280.128754 
L 131.517557 279.206801 
L 132.540033 279.206801 
L 132.540033 278.745825 
L 154.428266 278.745825 
L 154.428266 278.284848 
L 154.593515 278.284848 
L 154.593515 276.901919 
L 155.744694 276.901919 
L 155.744694 276.440942 
L 159.513503 276.440942 
L 159.513503 275.979966 
L 160.772598 275.979966 
L 160.772598 274.597037 
L 168.657545 274.597037 
L 168.657545 273.214107 
L 170.875462 273.214107 
L 170.875462 272.753131 
L 180.934762 272.753131 
L 180.934762 271.831178 
L 194.959492 271.831178 
L 194.959492 271.370201 
L 199.931649 271.370201 
L 199.931649 270.448249 
L 200.738318 270.448249 
L 200.738318 269.526296 
L 202.224402 269.526296 
L 202.224402 269.065319 
L 204.000856 269.065319 
L 204.000856 268.604343 
L 204.939691 268.604343 
L 204.939691 268.143366 
L 211.508795 268.143366 
L 211.508795 267.221413 
L 237.88665 267.221413 
L 237.88665 266.299461 
L 242.141658 266.299461 
L 242.141658 265.377508 
L 243.099783 265.377508 
L 243.099783 264.916531 
L 247.013298 264.916531 
L 247.013298 263.994578 
L 259.833176 263.994578 
L 259.833176 263.533602 
L 270.13206 263.533602 
L 270.13206 263.072625 
L 270.132065 263.072625 
L 270.132065 262.611649 
L 333.429677 262.611649 
" style="fill:none;stroke:#999999;stroke-linecap:square;stroke-width:1.5;"/>
   </g>
   <g id="line2d_30"/>
   <g id="line2d_31">
    <path d="M 0 0 
" style="fill:none;stroke:#999999;stroke-linecap:square;stroke-width:1.5;"/>
   </g>
   <g id="line2d_32">
    <path clip-path="url(#p632fa8d576)" d="M 254.198913 263.994578 
" style="fill:none;stroke:#999999;stroke-linecap:square;stroke-width:1.5;"/>
    <defs>
     <path d="M -12 12 
L 12 -12 
M -12 -12 
L 12 12 
" id="md926b4b07b" style="stroke:#999999;stroke-width:3;"/>
    </defs>
    <g clip-path="url(#p632fa8d576)">
     <use style="fill:#999999;stroke:#999999;stroke-width:3;" x="254.198913" xlink:href="#md926b4b07b" y="263.994578"/>
    </g>
   </g>
   <g id="line2d_33">
    <path clip-path="url(#p632fa8d576)" d="M 56.12 294.88 
L 56.12 294.88 
L 56.12 294.88 
L 56.12 294.88 
L 399.984 294.88 
" style="fill:none;stroke:#999999;stroke-linecap:square;stroke-width:1.5;"/>
   </g>
   <g id="line2d_34"/>
   <g id="line2d_35">
    <path clip-path="url(#p632fa8d576)" d="M 0 0 
" style="fill:none;stroke:#999999;stroke-linecap:square;stroke-width:1.5;"/>
   </g>
   <g id="line2d_36">
    <g>
     <use style="fill:#999999;stroke:#999999;" x="293.927613" xlink:href="#md938b5ffce" y="271.831178"/>
     <use style="fill:#999999;stroke:#999999;" x="293.927613" xlink:href="#md938b5ffce" y="271.831178"/>
    </g>
   </g>
   <g id="line2d_37">
    <path d="M -1 287.504377 
L 4.578827 287.504377 
L 4.578827 287.0434 
L 16.504332 287.0434 
L 16.504332 286.582424 
L 28.429836 286.582424 
L 28.429836 285.660471 
L 45.033924 285.660471 
L 45.033924 284.738518 
L 53.323884 284.738518 
L 53.323884 284.277542 
L 58.524586 284.277542 
L 58.524586 283.816565 
L 79.535419 283.816565 
L 79.535419 283.355589 
L 98.836605 283.355589 
L 98.836605 282.894612 
L 99.050777 282.894612 
L 99.050777 282.433636 
L 131.957983 282.433636 
L 131.957983 281.97266 
L 135.972274 281.97266 
L 135.972274 281.511683 
L 140.811511 281.511683 
L 140.811511 281.050707 
L 157.973421 281.050707 
L 157.973421 279.206801 
L 168.161374 279.206801 
L 168.161374 278.284848 
L 207.498443 278.284848 
L 207.498443 276.901919 
L 233.370741 276.901919 
L 233.370741 276.440942 
L 250.261297 276.440942 
L 250.261297 275.518989 
L 254.219073 275.518989 
L 254.219073 275.058013 
L 254.262297 275.058013 
L 254.262297 274.597037 
L 255.301971 274.597037 
L 255.301971 274.13606 
L 258.686178 274.13606 
L 258.686178 273.675084 
L 266.684508 273.675084 
L 266.684508 273.214107 
L 269.283235 273.214107 
L 269.283235 272.753131 
L 285.859367 272.753131 
L 285.859367 272.292154 
L 293.927613 272.292154 
L 293.927613 271.831178 
L 333.429677 271.831178 
" style="fill:none;stroke:#999999;stroke-linecap:square;stroke-width:1.5;"/>
   </g>
   <g id="line2d_38"/>
   <g id="line2d_39">
    <path d="M 0 0 
" style="fill:none;stroke:#999999;stroke-linecap:square;stroke-width:1.5;"/>
   </g>
   <g id="line2d_40">
    <path clip-path="url(#p632fa8d576)" d="M 254.198341 275.518989 
" style="fill:none;stroke:#999999;stroke-linecap:square;stroke-width:1.5;"/>
    <g clip-path="url(#p632fa8d576)">
     <use style="fill:#999999;stroke:#999999;stroke-width:3;" x="254.198341" xlink:href="#md926b4b07b" y="275.518989"/>
    </g>
   </g>
   <g id="line2d_41">
    <g>
     <use style="fill:#999999;stroke:#999999;" x="305.820573" xlink:href="#md938b5ffce" y="276.440942"/>
     <use style="fill:#999999;stroke:#999999;" x="305.820573" xlink:href="#md938b5ffce" y="276.440942"/>
    </g>
   </g>
   <g id="line2d_42">
    <path d="M -1 294.419024 
L 11.5548 294.419024 
L 11.5548 293.497071 
L 16.504332 293.497071 
L 16.504332 293.036094 
L 20.343487 293.036094 
L 20.343487 289.348283 
L 26.132446 289.348283 
L 26.132446 287.965353 
L 32.268991 287.965353 
L 32.268991 286.582424 
L 36.782933 286.582424 
L 36.782933 285.660471 
L 117.893029 285.660471 
L 117.893029 284.277542 
L 127.666305 284.277542 
L 127.666305 283.355589 
L 162.767493 283.355589 
L 162.767493 281.97266 
L 218.970859 281.97266 
L 218.970859 281.511683 
L 230.160665 281.511683 
L 230.160665 281.050707 
L 275.353975 281.050707 
L 275.353975 280.58973 
L 279.17649 280.58973 
L 279.17649 279.667777 
L 287.651779 279.667777 
L 287.651779 278.745825 
L 289.44965 278.745825 
L 289.44965 278.284848 
L 291.364238 278.284848 
L 291.364238 277.362895 
L 298.874968 277.362895 
L 298.874968 276.901919 
L 305.820573 276.901919 
L 305.820573 276.440942 
L 333.429677 276.440942 
" style="fill:none;stroke:#999999;stroke-linecap:square;stroke-width:1.5;"/>
   </g>
   <g id="line2d_43"/>
   <g id="line2d_44">
    <path d="M 0 0 
" style="fill:none;stroke:#999999;stroke-linecap:square;stroke-width:1.5;"/>
   </g>
   <g id="line2d_45">
    <path clip-path="url(#p632fa8d576)" d="M 293.814009 277.362895 
" style="fill:none;stroke:#999999;stroke-linecap:square;stroke-width:1.5;"/>
    <g clip-path="url(#p632fa8d576)">
     <use style="fill:#999999;stroke:#999999;stroke-width:3;" x="293.814009" xlink:href="#md926b4b07b" y="277.362895"/>
    </g>
   </g>
   <g id="line2d_46">
    <g>
     <use style="fill:#999999;stroke:#999999;" x="283.71161" xlink:href="#md938b5ffce" y="142.757774"/>
     <use style="fill:#999999;stroke:#999999;" x="283.71161" xlink:href="#md938b5ffce" y="142.757774"/>
    </g>
   </g>
   <g id="line2d_47">
    <path d="M 131.672726 294.88 
L 131.672726 294.419024 
L 132.046817 294.419024 
L 132.145561 293.497071 
L 132.701345 293.497071 
L 132.741438 291.192188 
L 132.851214 291.192188 
L 132.861159 288.887306 
L 133.024427 288.887306 
L 133.024427 287.965353 
L 133.557729 287.965353 
L 133.557729 287.504377 
L 133.724007 287.504377 
L 133.724007 287.0434 
L 134.070362 287.0434 
L 134.070362 286.582424 
L 134.577163 286.582424 
L 134.662436 283.816565 
L 135.368533 283.816565 
L 135.368533 283.355589 
L 136.223505 283.355589 
L 136.223505 282.433636 
L 136.406515 282.433636 
L 136.406515 281.97266 
L 136.599604 281.97266 
L 136.599604 281.050707 
L 136.948069 281.050707 
L 137.045791 279.206801 
L 137.469293 279.206801 
L 137.469293 278.745825 
L 137.841732 278.745825 
L 137.941922 275.979966 
L 138.008393 275.979966 
L 138.008393 275.518989 
L 138.188051 275.518989 
L 138.188051 275.058013 
L 138.322479 275.058013 
L 138.409117 273.675084 
L 138.616709 273.675084 
L 138.616709 273.214107 
L 139.003668 273.214107 
L 139.069634 270.909225 
L 139.252318 270.909225 
L 139.293412 269.526296 
L 139.89503 269.526296 
L 139.89503 269.065319 
L 140.095337 269.065319 
L 140.095337 268.143366 
L 141.253597 268.143366 
L 141.350989 266.299461 
L 141.487021 266.299461 
L 141.595077 264.916531 
L 141.882895 264.916531 
L 141.882895 263.994578 
L 142.284243 263.994578 
L 142.292865 261.689696 
L 142.589115 261.689696 
L 142.676443 259.384814 
L 142.760533 259.384814 
L 142.760533 258.001885 
L 143.114771 258.001885 
L 143.114771 257.540908 
L 143.38114 257.540908 
L 143.38114 256.157979 
L 143.54221 256.157979 
L 143.600893 254.314073 
L 144.076247 254.314073 
L 144.076247 252.931144 
L 144.197563 252.931144 
L 144.287352 250.165285 
L 144.338451 250.165285 
L 144.338451 248.782356 
L 144.511059 248.782356 
L 144.511059 248.321379 
L 144.689454 248.321379 
L 144.744358 246.016497 
L 145.746161 246.016497 
L 145.8259 243.711615 
L 145.891291 243.711615 
L 145.98196 241.867709 
L 146.028272 241.867709 
L 146.067539 240.48478 
L 146.171052 240.48478 
L 146.171052 240.023803 
L 147.48632 240.023803 
L 147.48632 239.562827 
L 147.710064 239.562827 
L 147.812518 236.796968 
L 148.009432 236.796968 
L 148.009432 235.875015 
L 148.444918 235.875015 
L 148.448937 234.03111 
L 148.575039 234.03111 
L 148.672483 232.64818 
L 150.027627 232.64818 
L 150.027627 232.187204 
L 150.169998 232.187204 
L 150.206314 229.882322 
L 150.31841 229.882322 
L 150.424408 226.19451 
L 150.438731 226.19451 
L 150.438731 225.272557 
L 150.729744 225.272557 
L 150.729744 224.811581 
L 151.059126 224.811581 
L 151.059126 224.350604 
L 151.368762 224.350604 
L 151.368762 223.889628 
L 152.017577 223.889628 
L 152.017577 222.045722 
L 152.398631 222.045722 
L 152.398631 221.584746 
L 152.797973 221.584746 
L 152.797973 221.123769 
L 153.483139 221.123769 
L 153.483139 219.74084 
L 153.930082 219.74084 
L 153.973853 217.435958 
L 154.432523 217.435958 
L 154.432523 216.514005 
L 154.694424 216.514005 
L 154.694424 215.592052 
L 154.864068 215.592052 
L 154.864068 214.209123 
L 155.003257 214.209123 
L 155.003257 213.748146 
L 155.876965 213.748146 
L 155.876965 212.826193 
L 156.963843 212.826193 
L 157.016425 210.060335 
L 158.433795 210.060335 
L 158.433795 207.294476 
L 159.242086 207.294476 
L 159.318088 204.989594 
L 159.430935 204.989594 
L 159.430935 202.684712 
L 159.565171 202.684712 
L 159.565171 200.379829 
L 161.827122 200.379829 
L 161.827122 198.535924 
L 161.994321 198.535924 
L 161.994321 196.692018 
L 162.110038 196.692018 
L 162.110038 196.231041 
L 162.68777 196.231041 
L 162.68777 195.770065 
L 163.132445 195.770065 
L 163.132445 194.848112 
L 163.751818 194.848112 
L 163.751818 193.926159 
L 165.60172 193.926159 
L 165.60172 193.465183 
L 165.824149 193.465183 
L 165.894256 192.082253 
L 166.547811 192.082253 
L 166.547811 191.621277 
L 166.96578 191.621277 
L 166.96578 191.1603 
L 167.174063 191.1603 
L 167.174063 190.699324 
L 168.734336 190.699324 
L 168.734336 190.238348 
L 170.36492 190.238348 
L 170.36492 189.777371 
L 171.114403 189.777371 
L 171.216334 188.855418 
L 171.82382 188.855418 
L 171.82382 188.394442 
L 173.672587 188.394442 
L 173.672587 187.933465 
L 174.92092 187.933465 
L 174.92092 187.472489 
L 176.290312 187.472489 
L 176.290312 187.011512 
L 176.565305 187.011512 
L 176.565305 185.167607 
L 178.993699 185.167607 
L 178.993699 183.784677 
L 179.640999 183.784677 
L 179.640999 183.323701 
L 180.570011 183.323701 
L 180.570011 182.401748 
L 180.759036 182.401748 
L 180.759036 181.479795 
L 181.052332 181.479795 
L 181.114127 180.096866 
L 181.626964 180.096866 
L 181.626964 179.635889 
L 182.298853 179.635889 
L 182.298853 178.713936 
L 185.723997 178.713936 
L 185.79612 177.791984 
L 187.516973 177.791984 
L 187.516973 176.870031 
L 188.559658 176.870031 
L 188.559658 176.409054 
L 189.063815 176.409054 
L 189.063815 175.026125 
L 190.646461 175.026125 
L 190.646461 174.104172 
L 191.104047 174.104172 
L 191.104047 173.643196 
L 191.78215 173.643196 
L 191.78215 173.182219 
L 196.730224 173.182219 
L 196.730224 171.338313 
L 197.130653 171.338313 
L 197.130653 170.877337 
L 199.424009 170.877337 
L 199.424009 168.572455 
L 199.955721 168.572455 
L 199.955721 168.111478 
L 204.399111 168.111478 
L 204.399111 167.650502 
L 207.896851 167.650502 
L 207.896851 167.189525 
L 209.85055 167.189525 
L 209.85055 166.728549 
L 215.94465 166.728549 
L 215.94465 166.267573 
L 217.320221 166.267573 
L 217.320221 165.34562 
L 218.81632 165.34562 
L 218.81632 164.884643 
L 223.836748 164.884643 
L 223.836748 164.423667 
L 224.397841 164.423667 
L 224.45602 162.579761 
L 232.138755 162.579761 
L 232.138755 161.196832 
L 233.129132 161.196832 
L 233.129132 160.274879 
L 235.832629 160.274879 
L 235.832629 159.352926 
L 237.495578 159.352926 
L 237.495578 158.430973 
L 238.052169 158.430973 
L 238.052169 157.048044 
L 240.063057 157.048044 
L 240.063057 156.587067 
L 242.72381 156.587067 
L 242.72381 155.665114 
L 244.18919 155.665114 
L 244.18919 154.282185 
L 245.468802 154.282185 
L 245.468802 153.821209 
L 248.265842 153.821209 
L 248.265842 152.899256 
L 250.876884 152.899256 
L 250.876884 152.438279 
L 255.457866 152.438279 
L 255.457866 151.977303 
L 256.105807 151.977303 
L 256.105807 151.516326 
L 256.917743 151.516326 
L 256.917743 151.05535 
L 258.411014 151.05535 
L 258.411014 150.594374 
L 258.631004 150.594374 
L 258.631004 150.133397 
L 259.72445 150.133397 
L 259.72445 149.672421 
L 259.879158 149.672421 
L 259.879158 149.211444 
L 261.325955 149.211444 
L 261.325955 148.289491 
L 262.306895 148.289491 
L 262.306895 147.828515 
L 264.232393 147.828515 
L 264.232393 147.367538 
L 268.482538 147.367538 
L 268.482538 146.445586 
L 269.197663 146.445586 
L 269.197663 145.984609 
L 271.340238 145.984609 
L 271.340238 145.523633 
L 274.054848 145.523633 
L 274.130477 144.60168 
L 274.621564 144.60168 
L 274.621564 144.140703 
L 280.461662 144.140703 
L 280.461662 143.679727 
L 282.46786 143.679727 
L 282.46786 143.21875 
L 283.71161 143.21875 
L 283.71161 142.757774 
L 333.429677 142.757774 
L 333.429677 142.757774 
" style="fill:none;stroke:#999999;stroke-linecap:square;stroke-width:1.5;"/>
   </g>
   <g id="line2d_48"/>
   <g id="line2d_49">
    <path d="M 0 0 
" style="fill:none;stroke:#999999;stroke-linecap:square;stroke-width:1.5;"/>
   </g>
   <g id="line2d_50">
    <path clip-path="url(#p632fa8d576)" d="M 254.198341 152.438279 
" style="fill:none;stroke:#999999;stroke-linecap:square;stroke-width:1.5;"/>
    <g clip-path="url(#p632fa8d576)">
     <use style="fill:#999999;stroke:#999999;stroke-width:3;" x="254.198341" xlink:href="#md926b4b07b" y="152.438279"/>
    </g>
   </g>
   <g id="line2d_51">
    <g>
     <use style="fill:#999999;stroke:#999999;" x="314.891051" xlink:href="#md938b5ffce" y="207.294476"/>
     <use style="fill:#999999;stroke:#999999;" x="314.891051" xlink:href="#md938b5ffce" y="207.294476"/>
    </g>
   </g>
   <g id="line2d_52">
    <path d="M 145.673134 294.88 
L 145.673134 293.497071 
L 146.42827 293.497071 
L 146.42827 292.575118 
L 146.964332 292.575118 
L 146.964332 292.114141 
L 147.982618 292.114141 
L 147.982618 291.653165 
L 149.029663 291.653165 
L 149.087834 290.731212 
L 149.352913 290.731212 
L 149.352913 290.270236 
L 151.071205 290.270236 
L 151.071205 289.809259 
L 151.594458 289.809259 
L 151.594458 289.348283 
L 152.448064 289.348283 
L 152.448064 288.887306 
L 153.92716 288.887306 
L 153.92716 288.42633 
L 154.206873 288.42633 
L 154.206873 287.504377 
L 154.730718 287.504377 
L 154.730718 287.0434 
L 154.906909 287.0434 
L 154.906909 286.121448 
L 155.043015 286.121448 
L 155.12907 284.738518 
L 155.23773 284.738518 
L 155.23773 284.277542 
L 156.057353 284.277542 
L 156.093463 283.355589 
L 157.010319 283.355589 
L 157.010319 282.894612 
L 157.552543 282.894612 
L 157.552543 281.97266 
L 158.327772 281.97266 
L 158.327772 281.511683 
L 158.533579 281.511683 
L 158.533579 280.128754 
L 160.21905 280.128754 
L 160.21905 279.206801 
L 161.168464 279.206801 
L 161.168464 278.745825 
L 161.3184 278.745825 
L 161.3184 277.362895 
L 161.501885 277.362895 
L 161.501885 276.901919 
L 161.767012 276.901919 
L 161.767012 275.979966 
L 162.597968 275.979966 
L 162.597968 275.518989 
L 163.679854 275.518989 
L 163.679854 274.597037 
L 164.485461 274.597037 
L 164.485461 274.13606 
L 164.727378 274.13606 
L 164.744528 272.292154 
L 166.82344 272.292154 
L 166.893038 271.370201 
L 167.332324 271.370201 
L 167.392551 269.987272 
L 167.538229 269.987272 
L 167.538229 269.526296 
L 167.753478 269.526296 
L 167.753478 268.604343 
L 168.534212 268.604343 
L 168.534212 268.143366 
L 169.163931 268.143366 
L 169.163931 267.221413 
L 169.65818 267.221413 
L 169.713139 264.916531 
L 170.161959 264.916531 
L 170.161959 263.994578 
L 170.663009 263.994578 
L 170.702734 263.072625 
L 171.015112 263.072625 
L 171.089095 260.306767 
L 171.218474 260.306767 
L 171.218474 258.923837 
L 171.797466 258.923837 
L 171.797466 258.462861 
L 173.291856 258.462861 
L 173.40197 257.079932 
L 173.417038 257.079932 
L 173.417038 256.618955 
L 173.692516 256.618955 
L 173.692516 255.236026 
L 174.346019 255.236026 
L 174.346019 254.77505 
L 174.618103 254.77505 
L 174.618103 254.314073 
L 175.133514 254.314073 
L 175.208747 253.39212 
L 175.805614 253.39212 
L 175.805614 252.470167 
L 176.172818 252.470167 
L 176.172818 251.548214 
L 176.379297 251.548214 
L 176.379297 250.626262 
L 176.550404 250.626262 
L 176.550404 248.321379 
L 176.784965 248.321379 
L 176.784965 247.399426 
L 177.342392 247.399426 
L 177.342392 246.93845 
L 177.758432 246.93845 
L 177.758432 246.016497 
L 179.896093 246.016497 
L 179.896093 245.555521 
L 180.236351 245.555521 
L 180.236351 244.172591 
L 181.154701 244.172591 
L 181.154701 242.789662 
L 182.031926 242.789662 
L 182.031926 242.328686 
L 182.459326 242.328686 
L 182.459326 241.406733 
L 182.69891 241.406733 
L 182.69891 240.48478 
L 183.761712 240.48478 
L 183.761712 239.562827 
L 184.169358 239.562827 
L 184.169358 239.10185 
L 184.67408 239.10185 
L 184.67408 237.718921 
L 186.610852 237.718921 
L 186.610852 237.257945 
L 187.19416 237.257945 
L 187.19416 236.796968 
L 188.567464 236.796968 
L 188.567464 235.414039 
L 191.598762 235.414039 
L 191.598762 233.109157 
L 197.935519 233.109157 
L 197.935519 232.64818 
L 199.050211 232.64818 
L 199.050211 231.265251 
L 200.376189 231.265251 
L 200.376189 230.804274 
L 205.008111 230.804274 
L 205.008111 229.882322 
L 208.076773 229.882322 
L 208.076773 228.960369 
L 209.03325 228.960369 
L 209.03325 228.499392 
L 210.277186 228.499392 
L 210.277186 228.038416 
L 211.237869 228.038416 
L 211.237869 226.19451 
L 212.025604 226.19451 
L 212.025604 225.733534 
L 213.00845 225.733534 
L 213.00845 224.350604 
L 254.498187 224.350604 
L 254.533568 222.045722 
L 254.882121 222.045722 
L 254.935746 220.662793 
L 266.259194 220.662793 
L 266.259194 220.201816 
L 266.469134 220.201816 
L 266.469134 219.74084 
L 278.124806 219.74084 
L 278.124806 219.279863 
L 278.236688 219.279863 
L 278.236688 216.974981 
L 278.853282 216.974981 
L 278.853282 216.514005 
L 282.038539 216.514005 
L 282.038539 216.053028 
L 282.534629 216.053028 
L 282.534629 215.592052 
L 285.07056 215.592052 
L 285.07056 215.131075 
L 287.784767 215.131075 
L 287.784767 214.670099 
L 290.381518 214.670099 
L 290.381518 214.209123 
L 292.084812 214.209123 
L 292.084812 212.365217 
L 293.889192 212.365217 
L 293.889192 211.90424 
L 294.140106 211.90424 
L 294.140106 210.982287 
L 295.4785 210.982287 
L 295.4785 210.521311 
L 295.750514 210.521311 
L 295.750514 210.060335 
L 298.385814 210.060335 
L 298.385814 208.677405 
L 298.579343 208.677405 
L 298.579343 208.216429 
L 303.968611 208.216429 
L 303.968611 207.755452 
L 314.891051 207.755452 
L 314.891051 207.294476 
L 333.429677 207.294476 
L 333.429677 207.294476 
" style="fill:none;stroke:#999999;stroke-linecap:square;stroke-width:1.5;"/>
   </g>
   <g id="line2d_53"/>
   <g id="line2d_54">
    <path d="M 0 0 
" style="fill:none;stroke:#999999;stroke-linecap:square;stroke-width:1.5;"/>
   </g>
   <g id="line2d_55">
    <path clip-path="url(#p632fa8d576)" d="M 254.198345 224.350604 
" style="fill:none;stroke:#999999;stroke-linecap:square;stroke-width:1.5;"/>
    <g clip-path="url(#p632fa8d576)">
     <use style="fill:#999999;stroke:#999999;stroke-width:3;" x="254.198345" xlink:href="#md926b4b07b" y="224.350604"/>
    </g>
   </g>
   <g id="line2d_56">
    <g>
     <use style="fill:#999999;stroke:#999999;" x="310.374633" xlink:href="#md938b5ffce" y="230.343298"/>
     <use style="fill:#999999;stroke:#999999;" x="310.374633" xlink:href="#md938b5ffce" y="230.343298"/>
    </g>
   </g>
   <g id="line2d_57">
    <path d="M 132.207635 294.88 
L 132.207635 294.419024 
L 134.061092 294.419024 
L 134.093515 293.036094 
L 134.626583 293.036094 
L 134.626583 292.575118 
L 135.082573 292.575118 
L 135.082573 292.114141 
L 135.424302 292.114141 
L 135.48416 289.809259 
L 136.104525 289.809259 
L 136.129209 288.42633 
L 136.687384 288.42633 
L 136.687384 287.965353 
L 136.849789 287.965353 
L 136.849789 287.0434 
L 137.247292 287.0434 
L 137.247292 286.121448 
L 137.511076 286.121448 
L 137.586785 285.199495 
L 137.767139 285.199495 
L 137.767139 284.738518 
L 138.129594 284.738518 
L 138.129594 284.277542 
L 138.947921 284.277542 
L 138.947921 283.816565 
L 139.443257 283.816565 
L 139.443257 283.355589 
L 139.980692 283.355589 
L 139.980692 282.433636 
L 140.167011 282.433636 
L 140.167011 281.97266 
L 140.283654 281.97266 
L 140.283654 281.511683 
L 140.729897 281.511683 
L 140.751908 279.206801 
L 141.274949 279.206801 
L 141.274949 278.745825 
L 141.426695 278.745825 
L 141.426695 278.284848 
L 142.611694 278.284848 
L 142.611694 277.823872 
L 142.849779 277.823872 
L 142.849779 276.440942 
L 143.477963 276.440942 
L 143.477963 275.979966 
L 143.854649 275.979966 
L 143.854649 275.518989 
L 144.037348 275.518989 
L 144.037348 275.058013 
L 144.942544 275.058013 
L 144.942544 274.597037 
L 145.109226 274.597037 
L 145.109226 273.675084 
L 146.414709 273.675084 
L 146.414709 272.753131 
L 146.924866 272.753131 
L 146.924866 272.292154 
L 147.201404 272.292154 
L 147.201404 271.370201 
L 147.770774 271.370201 
L 147.770774 270.448249 
L 148.806804 270.448249 
L 148.806804 269.526296 
L 150.30038 269.526296 
L 150.30038 269.065319 
L 154.247078 269.065319 
L 154.247078 268.604343 
L 155.053966 268.604343 
L 155.053966 266.760437 
L 158.760137 266.760437 
L 158.760137 266.299461 
L 159.604083 266.299461 
L 159.604083 265.377508 
L 160.970699 265.377508 
L 161.006562 263.533602 
L 162.585606 263.533602 
L 162.585606 261.689696 
L 163.499871 261.689696 
L 163.499871 260.767743 
L 169.390243 260.767743 
L 169.390243 260.306767 
L 172.607072 260.306767 
L 172.607072 258.001885 
L 173.073814 258.001885 
L 173.073814 257.540908 
L 175.974788 257.540908 
L 175.974788 257.079932 
L 178.745837 257.079932 
L 178.745837 256.157979 
L 180.959979 256.157979 
L 180.959979 255.697002 
L 181.123452 255.697002 
L 181.123452 254.77505 
L 183.438276 254.77505 
L 183.438276 254.314073 
L 185.46425 254.314073 
L 185.46425 253.39212 
L 187.1039 253.39212 
L 187.1039 252.931144 
L 190.352097 252.931144 
L 190.352097 252.470167 
L 191.513318 252.470167 
L 191.513318 251.087238 
L 193.125923 251.087238 
L 193.125923 250.165285 
L 193.71988 250.165285 
L 193.71988 249.243332 
L 196.145178 249.243332 
L 196.145178 248.782356 
L 197.056242 248.782356 
L 197.056242 247.399426 
L 198.846271 247.399426 
L 198.846271 246.93845 
L 201.943089 246.93845 
L 201.943089 246.477474 
L 206.432685 246.477474 
L 206.432685 246.016497 
L 209.291875 246.016497 
L 209.348467 245.094544 
L 210.755665 245.094544 
L 210.755665 244.172591 
L 213.274431 244.172591 
L 213.274431 243.250638 
L 213.962088 243.250638 
L 213.962088 242.328686 
L 215.472291 242.328686 
L 215.472291 241.406733 
L 223.68892 241.406733 
L 223.68892 240.48478 
L 229.520149 240.48478 
L 229.520149 240.023803 
L 239.646401 240.023803 
L 239.646401 239.10185 
L 255.723239 239.10185 
L 255.723239 238.640874 
L 260.342605 238.640874 
L 260.342605 237.718921 
L 267.636198 237.718921 
L 267.636198 236.796968 
L 269.468816 236.796968 
L 269.468816 236.335992 
L 274.122678 236.335992 
L 274.122678 235.875015 
L 275.400427 235.875015 
L 275.400427 235.414039 
L 279.803001 235.414039 
L 279.803001 234.492086 
L 285.544355 234.492086 
L 285.544355 234.03111 
L 286.214055 234.03111 
L 286.214055 233.570133 
L 288.701325 233.570133 
L 288.701325 233.109157 
L 290.874015 233.109157 
L 290.874015 232.187204 
L 297.212303 232.187204 
L 297.212303 231.726227 
L 297.55546 231.726227 
L 297.55546 231.265251 
L 300.122516 231.265251 
L 300.122516 230.804274 
L 310.374633 230.804274 
L 310.374633 230.343298 
L 333.429677 230.343298 
L 333.429677 230.343298 
" style="fill:none;stroke:#999999;stroke-linecap:square;stroke-width:1.5;"/>
   </g>
   <g id="line2d_58"/>
   <g id="line2d_59">
    <path d="M 0 0 
" style="fill:none;stroke:#999999;stroke-linecap:square;stroke-width:1.5;"/>
   </g>
   <g id="line2d_60">
    <path clip-path="url(#p632fa8d576)" d="M 254.198345 239.10185 
" style="fill:none;stroke:#999999;stroke-linecap:square;stroke-width:1.5;"/>
    <g clip-path="url(#p632fa8d576)">
     <use style="fill:#999999;stroke:#999999;stroke-width:3;" x="254.198345" xlink:href="#md926b4b07b" y="239.10185"/>
    </g>
   </g>
   <g id="line2d_61">
    <path d="M 333.429677 294.88 
L 333.429677 27.513663 
" style="fill:none;stroke:#000000;stroke-linecap:square;stroke-width:1.5;"/>
   </g>
   <g id="patch_3">
    <path d="M 56.12 294.88 
L 56.12 24.84 
" style="fill:none;stroke:#000000;stroke-linecap:square;stroke-linejoin:miter;stroke-width:0.8;"/>
   </g>
   <g id="patch_4">
    <path d="M 399.984 294.88 
L 399.984 24.84 
" style="fill:none;stroke:#000000;stroke-linecap:square;stroke-linejoin:miter;stroke-width:0.8;"/>
   </g>
   <g id="patch_5">
    <path d="M 56.12 294.88 
L 399.984 294.88 
" style="fill:none;stroke:#000000;stroke-linecap:square;stroke-linejoin:miter;stroke-width:0.8;"/>
   </g>
   <g id="patch_6">
    <path d="M 56.12 24.84 
L 399.984 24.84 
" style="fill:none;stroke:#000000;stroke-linecap:square;stroke-linejoin:miter;stroke-width:0.8;"/>
   </g>
   <g id="text_14">
    <!-- best 2016 -->
    <defs>
     <path d="M 48.6875 27.296875 
Q 48.6875 37.203125 44.609375 42.84375 
Q 40.53125 48.484375 33.40625 48.484375 
Q 26.265625 48.484375 22.1875 42.84375 
Q 18.109375 37.203125 18.109375 27.296875 
Q 18.109375 17.390625 22.1875 11.75 
Q 26.265625 6.109375 33.40625 6.109375 
Q 40.53125 6.109375 44.609375 11.75 
Q 48.6875 17.390625 48.6875 27.296875 
z
M 18.109375 46.390625 
Q 20.953125 51.265625 25.265625 53.625 
Q 29.59375 56 35.59375 56 
Q 45.5625 56 51.78125 48.09375 
Q 58.015625 40.1875 58.015625 27.296875 
Q 58.015625 14.40625 51.78125 6.484375 
Q 45.5625 -1.421875 35.59375 -1.421875 
Q 29.59375 -1.421875 25.265625 0.953125 
Q 20.953125 3.328125 18.109375 8.203125 
L 18.109375 0 
L 9.078125 0 
L 9.078125 75.984375 
L 18.109375 75.984375 
z
" id="DejaVuSans-62"/>
    </defs>
    <g transform="translate(369.479935 294.223611)scale(0.17 -0.17)">
     <use xlink:href="#DejaVuSans-62"/>
     <use x="63.476562" xlink:href="#DejaVuSans-65"/>
     <use x="125" xlink:href="#DejaVuSans-73"/>
     <use x="177.099609" xlink:href="#DejaVuSans-74"/>
     <use x="216.308594" xlink:href="#DejaVuSans-20"/>
     <use x="248.095703" xlink:href="#DejaVuSans-32"/>
     <use x="311.71875" xlink:href="#DejaVuSans-30"/>
     <use x="375.341797" xlink:href="#DejaVuSans-31"/>
     <use x="438.964844" xlink:href="#DejaVuSans-36"/>
    </g>
   </g>
   <g id="text_15">
    <!-- bbob-biobj f5, 40-D -->
    <defs>
     <path d="M 9.421875 54.6875 
L 18.40625 54.6875 
L 18.40625 -0.984375 
Q 18.40625 -11.421875 14.421875 -16.109375 
Q 10.453125 -20.796875 1.609375 -20.796875 
L -1.8125 -20.796875 
L -1.8125 -13.1875 
L 0.59375 -13.1875 
Q 5.71875 -13.1875 7.5625 -10.8125 
Q 9.421875 -8.453125 9.421875 -0.984375 
z
M 9.421875 75.984375 
L 18.40625 75.984375 
L 18.40625 64.59375 
L 9.421875 64.59375 
z
" id="DejaVuSans-6a"/>
     <path d="M 10.796875 72.90625 
L 49.515625 72.90625 
L 49.515625 64.59375 
L 19.828125 64.59375 
L 19.828125 46.734375 
Q 21.96875 47.46875 24.109375 47.828125 
Q 26.265625 48.1875 28.421875 48.1875 
Q 40.625 48.1875 47.75 41.5 
Q 54.890625 34.8125 54.890625 23.390625 
Q 54.890625 11.625 47.5625 5.09375 
Q 40.234375 -1.421875 26.90625 -1.421875 
Q 22.3125 -1.421875 17.546875 -0.640625 
Q 12.796875 0.140625 7.71875 1.703125 
L 7.71875 11.625 
Q 12.109375 9.234375 16.796875 8.0625 
Q 21.484375 6.890625 26.703125 6.890625 
Q 35.15625 6.890625 40.078125 11.328125 
Q 45.015625 15.765625 45.015625 23.390625 
Q 45.015625 31 40.078125 35.4375 
Q 35.15625 39.890625 26.703125 39.890625 
Q 22.75 39.890625 18.8125 39.015625 
Q 14.890625 38.140625 10.796875 36.28125 
z
" id="DejaVuSans-35"/>
     <path d="M 19.671875 64.796875 
L 19.671875 8.109375 
L 31.59375 8.109375 
Q 46.6875 8.109375 53.6875 14.9375 
Q 60.6875 21.78125 60.6875 36.53125 
Q 60.6875 51.171875 53.6875 57.984375 
Q 46.6875 64.796875 31.59375 64.796875 
z
M 9.8125 72.90625 
L 30.078125 72.90625 
Q 51.265625 72.90625 61.171875 64.09375 
Q 71.09375 55.28125 71.09375 36.53125 
Q 71.09375 17.671875 61.125 8.828125 
Q 51.171875 0 30.078125 0 
L 9.8125 0 
z
" id="DejaVuSans-44"/>
    </defs>
    <g transform="translate(59.55864 35.290806)scale(0.102 -0.102)">
     <use xlink:href="#DejaVuSans-62"/>
     <use x="63.476562" xlink:href="#DejaVuSans-62"/>
     <use x="126.953125" xlink:href="#DejaVuSans-6f"/>
     <use x="188.134766" xlink:href="#DejaVuSans-62"/>
     <use x="251.611328" xlink:href="#DejaVuSans-2d"/>
     <use x="287.695312" xlink:href="#DejaVuSans-62"/>
     <use x="351.171875" xlink:href="#DejaVuSans-69"/>
     <use x="378.955078" xlink:href="#DejaVuSans-6f"/>
     <use x="440.136719" xlink:href="#DejaVuSans-62"/>
     <use x="503.613281" xlink:href="#DejaVuSans-6a"/>
     <use x="531.396484" xlink:href="#DejaVuSans-20"/>
     <use x="563.183594" xlink:href="#DejaVuSans-66"/>
     <use x="598.388672" xlink:href="#DejaVuSans-35"/>
     <use x="662.011719" xlink:href="#DejaVuSans-2c"/>
     <use x="693.798828" xlink:href="#DejaVuSans-20"/>
     <use x="725.585938" xlink:href="#DejaVuSans-34"/>
     <use x="789.208984" xlink:href="#DejaVuSans-30"/>
     <use x="852.832031" xlink:href="#DejaVuSans-2d"/>
     <use x="888.916016" xlink:href="#DejaVuSans-44"/>
    </g>
    <!-- 58 targets: 1..-1.0e-4 -->
    <defs>
     <path d="M 11.71875 12.40625 
L 22.015625 12.40625 
L 22.015625 0 
L 11.71875 0 
z
M 11.71875 51.703125 
L 22.015625 51.703125 
L 22.015625 39.3125 
L 11.71875 39.3125 
z
" id="DejaVuSans-3a"/>
    </defs>
    <g transform="translate(59.55864 46.712575)scale(0.102 -0.102)">
     <use xlink:href="#DejaVuSans-35"/>
     <use x="63.623047" xlink:href="#DejaVuSans-38"/>
     <use x="127.246094" xlink:href="#DejaVuSans-20"/>
     <use x="159.033203" xlink:href="#DejaVuSans-74"/>
     <use x="198.242188" xlink:href="#DejaVuSans-61"/>
     <use x="259.521484" xlink:href="#DejaVuSans-72"/>
     <use x="300.619141" xlink:href="#DejaVuSans-67"/>
     <use x="364.095703" xlink:href="#DejaVuSans-65"/>
     <use x="425.619141" xlink:href="#DejaVuSans-74"/>
     <use x="464.828125" xlink:href="#DejaVuSans-73"/>
     <use x="516.927734" xlink:href="#DejaVuSans-3a"/>
     <use x="550.619141" xlink:href="#DejaVuSans-20"/>
     <use x="582.40625" xlink:href="#DejaVuSans-31"/>
     <use x="646.029297" xlink:href="#DejaVuSans-2e"/>
     <use x="677.816406" xlink:href="#DejaVuSans-2e"/>
     <use x="709.603516" xlink:href="#DejaVuSans-2d"/>
     <use x="745.6875" xlink:href="#DejaVuSans-31"/>
     <use x="809.310547" xlink:href="#DejaVuSans-2e"/>
     <use x="841.097656" xlink:href="#DejaVuSans-30"/>
     <use x="904.720703" xlink:href="#DejaVuSans-65"/>
     <use x="966.244141" xlink:href="#DejaVuSans-2d"/>
     <use x="1002.328125" xlink:href="#DejaVuSans-34"/>
    </g>
    <!-- 10 instances -->
    <g transform="translate(59.55864 58.134344)scale(0.102 -0.102)">
     <use xlink:href="#DejaVuSans-31"/>
     <use x="63.623047" xlink:href="#DejaVuSans-30"/>
     <use x="127.246094" xlink:href="#DejaVuSans-20"/>
     <use x="159.033203" xlink:href="#DejaVuSans-69"/>
     <use x="186.816406" xlink:href="#DejaVuSans-6e"/>
     <use x="250.195312" xlink:href="#DejaVuSans-73"/>
     <use x="302.294922" xlink:href="#DejaVuSans-74"/>
     <use x="341.503906" xlink:href="#DejaVuSans-61"/>
     <use x="402.783203" xlink:href="#DejaVuSans-6e"/>
     <use x="466.162109" xlink:href="#DejaVuSans-63"/>
     <use x="521.142578" xlink:href="#DejaVuSans-65"/>
     <use x="582.666016" xlink:href="#DejaVuSans-73"/>
    </g>
   </g>
   <g id="text_16">
    <!-- v2.0.778, hv-hash=ff0e71e8cd978373 -->
    <defs>
     <path d="M 8.203125 72.90625 
L 55.078125 72.90625 
L 55.078125 68.703125 
L 28.609375 0 
L 18.3125 0 
L 43.21875 64.59375 
L 8.203125 64.59375 
z
" id="DejaVuSans-37"/>
     <path d="M 54.890625 33.015625 
L 54.890625 0 
L 45.90625 0 
L 45.90625 32.71875 
Q 45.90625 40.484375 42.875 44.328125 
Q 39.84375 48.1875 33.796875 48.1875 
Q 26.515625 48.1875 22.3125 43.546875 
Q 18.109375 38.921875 18.109375 30.90625 
L 18.109375 0 
L 9.078125 0 
L 9.078125 75.984375 
L 18.109375 75.984375 
L 18.109375 46.1875 
Q 21.34375 51.125 25.703125 53.5625 
Q 30.078125 56 35.796875 56 
Q 45.21875 56 50.046875 50.171875 
Q 54.890625 44.34375 54.890625 33.015625 
z
" id="DejaVuSans-68"/>
     <path d="M 10.59375 45.40625 
L 73.1875 45.40625 
L 73.1875 37.203125 
L 10.59375 37.203125 
z
M 10.59375 25.484375 
L 73.1875 25.484375 
L 73.1875 17.1875 
L 10.59375 17.1875 
z
" id="DejaVuSans-3d"/>
     <path d="M 10.984375 1.515625 
L 10.984375 10.5 
Q 14.703125 8.734375 18.5 7.8125 
Q 22.3125 6.890625 25.984375 6.890625 
Q 35.75 6.890625 40.890625 13.453125 
Q 46.046875 20.015625 46.78125 33.40625 
Q 43.953125 29.203125 39.59375 26.953125 
Q 35.25 24.703125 29.984375 24.703125 
Q 19.046875 24.703125 12.671875 31.3125 
Q 6.296875 37.9375 6.296875 49.421875 
Q 6.296875 60.640625 12.9375 67.421875 
Q 19.578125 74.21875 30.609375 74.21875 
Q 43.265625 74.21875 49.921875 64.515625 
Q 56.59375 54.828125 56.59375 36.375 
Q 56.59375 19.140625 48.40625 8.859375 
Q 40.234375 -1.421875 26.421875 -1.421875 
Q 22.703125 -1.421875 18.890625 -0.6875 
Q 15.09375 0.046875 10.984375 1.515625 
z
M 30.609375 32.421875 
Q 37.25 32.421875 41.125 36.953125 
Q 45.015625 41.5 45.015625 49.421875 
Q 45.015625 57.28125 41.125 61.84375 
Q 37.25 66.40625 30.609375 66.40625 
Q 23.96875 66.40625 20.09375 61.84375 
Q 16.21875 57.28125 16.21875 49.421875 
Q 16.21875 41.5 20.09375 36.953125 
Q 23.96875 32.421875 30.609375 32.421875 
z
" id="DejaVuSans-39"/>
     <path d="M 40.578125 39.3125 
Q 47.65625 37.796875 51.625 33 
Q 55.609375 28.21875 55.609375 21.1875 
Q 55.609375 10.40625 48.1875 4.484375 
Q 40.765625 -1.421875 27.09375 -1.421875 
Q 22.515625 -1.421875 17.65625 -0.515625 
Q 12.796875 0.390625 7.625 2.203125 
L 7.625 11.71875 
Q 11.71875 9.328125 16.59375 8.109375 
Q 21.484375 6.890625 26.8125 6.890625 
Q 36.078125 6.890625 40.9375 10.546875 
Q 45.796875 14.203125 45.796875 21.1875 
Q 45.796875 27.640625 41.28125 31.265625 
Q 36.765625 34.90625 28.71875 34.90625 
L 20.21875 34.90625 
L 20.21875 43.015625 
L 29.109375 43.015625 
Q 36.375 43.015625 40.234375 45.921875 
Q 44.09375 48.828125 44.09375 54.296875 
Q 44.09375 59.90625 40.109375 62.90625 
Q 36.140625 65.921875 28.71875 65.921875 
Q 24.65625 65.921875 20.015625 65.03125 
Q 15.375 64.15625 9.8125 62.3125 
L 9.8125 71.09375 
Q 15.4375 72.65625 20.34375 73.4375 
Q 25.25 74.21875 29.59375 74.21875 
Q 40.828125 74.21875 47.359375 69.109375 
Q 53.90625 64.015625 53.90625 55.328125 
Q 53.90625 49.265625 50.4375 45.09375 
Q 46.96875 40.921875 40.578125 39.3125 
z
" id="DejaVuSans-33"/>
    </defs>
    <g style="fill:#808080;" transform="translate(131.294188 290.099912)scale(0.1 -0.1)">
     <use xlink:href="#DejaVuSans-76"/>
     <use x="59.179688" xlink:href="#DejaVuSans-32"/>
     <use x="122.802734" xlink:href="#DejaVuSans-2e"/>
     <use x="154.589844" xlink:href="#DejaVuSans-30"/>
     <use x="218.212891" xlink:href="#DejaVuSans-2e"/>
     <use x="250" xlink:href="#DejaVuSans-37"/>
     <use x="313.623047" xlink:href="#DejaVuSans-37"/>
     <use x="377.246094" xlink:href="#DejaVuSans-38"/>
     <use x="440.869141" xlink:href="#DejaVuSans-2c"/>
     <use x="472.65625" xlink:href="#DejaVuSans-20"/>
     <use x="504.443359" xlink:href="#DejaVuSans-68"/>
     <use x="567.822266" xlink:href="#DejaVuSans-76"/>
     <use x="626.970703" xlink:href="#DejaVuSans-2d"/>
     <use x="663.054688" xlink:href="#DejaVuSans-68"/>
     <use x="726.433594" xlink:href="#DejaVuSans-61"/>
     <use x="787.712891" xlink:href="#DejaVuSans-73"/>
     <use x="839.8125" xlink:href="#DejaVuSans-68"/>
     <use x="903.191406" xlink:href="#DejaVuSans-3d"/>
     <use x="986.980469" xlink:href="#DejaVuSans-66"/>
     <use x="1022.185547" xlink:href="#DejaVuSans-66"/>
     <use x="1057.390625" xlink:href="#DejaVuSans-30"/>
     <use x="1121.013672" xlink:href="#DejaVuSans-65"/>
     <use x="1182.537109" xlink:href="#DejaVuSans-37"/>
     <use x="1246.160156" xlink:href="#DejaVuSans-31"/>
     <use x="1309.783203" xlink:href="#DejaVuSans-65"/>
     <use x="1371.306641" xlink:href="#DejaVuSans-38"/>
     <use x="1434.929688" xlink:href="#DejaVuSans-63"/>
     <use x="1489.910156" xlink:href="#DejaVuSans-64"/>
     <use x="1553.386719" xlink:href="#DejaVuSans-39"/>
     <use x="1617.009766" xlink:href="#DejaVuSans-37"/>
     <use x="1680.632812" xlink:href="#DejaVuSans-38"/>
     <use x="1744.255859" xlink:href="#DejaVuSans-33"/>
     <use x="1807.878906" xlink:href="#DejaVuSans-37"/>
     <use x="1871.501953" xlink:href="#DejaVuSans-33"/>
    </g>
   </g>
   <g id="text_17">
    <!-- 5 Sphere/Sharp ridge -->
    <defs>
     <path d="M 53.515625 70.515625 
L 53.515625 60.890625 
Q 47.90625 63.578125 42.921875 64.890625 
Q 37.9375 66.21875 33.296875 66.21875 
Q 25.25 66.21875 20.875 63.09375 
Q 16.5 59.96875 16.5 54.203125 
Q 16.5 49.359375 19.40625 46.890625 
Q 22.3125 44.4375 30.421875 42.921875 
L 36.375 41.703125 
Q 47.40625 39.59375 52.65625 34.296875 
Q 57.90625 29 57.90625 20.125 
Q 57.90625 9.515625 50.796875 4.046875 
Q 43.703125 -1.421875 29.984375 -1.421875 
Q 24.8125 -1.421875 18.96875 -0.25 
Q 13.140625 0.921875 6.890625 3.21875 
L 6.890625 13.375 
Q 12.890625 10.015625 18.65625 8.296875 
Q 24.421875 6.59375 29.984375 6.59375 
Q 38.421875 6.59375 43.015625 9.90625 
Q 47.609375 13.234375 47.609375 19.390625 
Q 47.609375 24.75 44.3125 27.78125 
Q 41.015625 30.8125 33.5 32.328125 
L 27.484375 33.5 
Q 16.453125 35.6875 11.515625 40.375 
Q 6.59375 45.0625 6.59375 53.421875 
Q 6.59375 63.09375 13.40625 68.65625 
Q 20.21875 74.21875 32.171875 74.21875 
Q 37.3125 74.21875 42.625 73.28125 
Q 47.953125 72.359375 53.515625 70.515625 
z
" id="DejaVuSans-53"/>
    </defs>
    <g transform="translate(121.503563 18.84)scale(0.2 -0.2)">
     <use xlink:href="#DejaVuSans-35"/>
     <use x="63.623047" xlink:href="#DejaVuSans-20"/>
     <use x="95.410156" xlink:href="#DejaVuSans-53"/>
     <use x="158.886719" xlink:href="#DejaVuSans-70"/>
     <use x="222.363281" xlink:href="#DejaVuSans-68"/>
     <use x="285.742188" xlink:href="#DejaVuSans-65"/>
     <use x="347.265625" xlink:href="#DejaVuSans-72"/>
     <use x="388.347656" xlink:href="#DejaVuSans-65"/>
     <use x="449.871094" xlink:href="#DejaVuSans-2f"/>
     <use x="483.5625" xlink:href="#DejaVuSans-53"/>
     <use x="547.039062" xlink:href="#DejaVuSans-68"/>
     <use x="610.417969" xlink:href="#DejaVuSans-61"/>
     <use x="671.697266" xlink:href="#DejaVuSans-72"/>
     <use x="712.810547" xlink:href="#DejaVuSans-70"/>
     <use x="776.287109" xlink:href="#DejaVuSans-20"/>
     <use x="808.074219" xlink:href="#DejaVuSans-72"/>
     <use x="849.1875" xlink:href="#DejaVuSans-69"/>
     <use x="876.970703" xlink:href="#DejaVuSans-64"/>
     <use x="940.447266" xlink:href="#DejaVuSans-67"/>
     <use x="1003.923828" xlink:href="#DejaVuSans-65"/>
    </g>
   </g>
  </g>
 </g>
 <defs>
  <clipPath id="p632fa8d576">
   <rect height="270.04" width="343.864" x="56.12" y="24.84"/>
  </clipPath>
 </defs>
</svg>
