<?xml version="1.0" encoding="utf-8" standalone="no"?>
<!DOCTYPE svg PUBLIC "-//W3C//DTD SVG 1.1//EN"
  "http://www.w3.org/Graphics/SVG/1.1/DTD/svg11.dtd">
<!-- Created with matplotlib (http://matplotlib.org/) -->
<svg height="345pt" version="1.1" viewBox="0 0 460 345" width="460pt" xmlns="http://www.w3.org/2000/svg" xmlns:xlink="http://www.w3.org/1999/xlink">
 <defs>
  <style type="text/css">
*{stroke-linecap:butt;stroke-linejoin:round;}
  </style>
 </defs>
 <g id="figure_1">
  <g id="patch_1">
   <path d="M 0 345.6 
L 460.8 345.6 
L 460.8 0 
L 0 0 
z
" style="fill:#ffffff;"/>
  </g>
  <g id="axes_1">
   <g id="patch_2">
    <path d="M 56.12 294.88 
L 399.984 294.88 
L 399.984 24.84 
L 56.12 24.84 
z
" style="fill:#ffffff;"/>
   </g>
   <g id="line2d_1">
    <path d="M 87.231366 294.88 
L 87.231366 290.270236 
L 138.275367 290.270236 
L 138.275367 281.050707 
L 139.40252 281.050707 
L 139.40252 271.831178 
L 140.877149 271.831178 
L 140.877149 267.221413 
L 143.202203 267.221413 
L 143.202203 253.39212 
L 146.498167 253.39212 
L 146.498167 244.172591 
L 151.234302 244.172591 
L 151.234302 239.562827 
L 155.805062 239.562827 
L 155.805062 230.343298 
L 158.972857 230.343298 
L 158.972857 216.514005 
L 164.968247 216.514005 
L 164.968247 207.294476 
L 181.803629 207.294476 
L 181.803629 198.074947 
L 183.22375 198.074947 
L 183.22375 188.855418 
L 184.669186 188.855418 
L 184.669186 184.245654 
L 186.755184 184.245654 
L 186.755184 170.416361 
L 220.707394 170.416361 
L 220.707394 165.806596 
L 225.829637 165.806596 
L 225.829637 151.977303 
L 241.714648 151.977303 
L 241.714648 142.757774 
L 255.336037 142.757774 
L 255.336037 138.14801 
L 278.138109 138.14801 
L 278.138109 124.318716 
L 278.728047 124.318716 
L 278.728047 119.708952 
L 293.140673 119.708952 
L 293.140673 105.879659 
L 333.429677 105.879659 
" style="fill:none;stroke:#f5deb3;stroke-linecap:square;stroke-width:6;"/>
   </g>
   <g id="line2d_2">
    <path d="M 0 0 
" style="fill:none;stroke:#f5deb3;stroke-linecap:square;stroke-width:6;"/>
    <defs>
     <path d="M -0 7.778175 
L 7.778175 0 
L 0 -7.778175 
L -7.778175 -0 
z
" id="mc47d375a8b" style="stroke:#f5deb3;stroke-linejoin:miter;stroke-width:1.5;"/>
    </defs>
    <g>
     <use style="fill:#f5deb3;stroke:#f5deb3;stroke-linejoin:miter;stroke-width:1.5;" x="0" xlink:href="#mc47d375a8b" y="0"/>
    </g>
   </g>
   <g id="line2d_3">
    <path d="M 333.429677 105.879659 
L 363.933742 289.532673 
" style="fill:none;stroke:#f5deb3;stroke-linecap:square;stroke-width:6;"/>
    <g>
     <use style="fill:#f5deb3;stroke:#f5deb3;stroke-linejoin:miter;stroke-width:1.5;" x="333.429677" xlink:href="#mc47d375a8b" y="105.879659"/>
     <use style="fill:#f5deb3;stroke:#f5deb3;stroke-linejoin:miter;stroke-width:1.5;" x="363.933742" xlink:href="#mc47d375a8b" y="289.532673"/>
    </g>
   </g>
   <g id="matplotlib.axis_1">
    <g id="xtick_1">
     <g id="line2d_4">
      <path clip-path="url(#pd78fae3d72)" d="M 56.12 294.88 
L 56.12 24.84 
" style="fill:none;stroke:#b0b0b0;stroke-linecap:square;stroke-width:0.8;"/>
     </g>
     <g id="line2d_5">
      <defs>
       <path d="M 0 0 
L 0 3.5 
" id="m024f99e748" style="stroke:#000000;stroke-width:0.8;"/>
      </defs>
      <g>
       <use style="stroke:#000000;stroke-width:0.8;" x="56.12" xlink:href="#m024f99e748" y="294.88"/>
      </g>
     </g>
     <g id="text_1">
      <!-- 0 -->
      <defs>
       <path d="M 31.78125 66.40625 
Q 24.171875 66.40625 20.328125 58.90625 
Q 16.5 51.421875 16.5 36.375 
Q 16.5 21.390625 20.328125 13.890625 
Q 24.171875 6.390625 31.78125 6.390625 
Q 39.453125 6.390625 43.28125 13.890625 
Q 47.125 21.390625 47.125 36.375 
Q 47.125 51.421875 43.28125 58.90625 
Q 39.453125 66.40625 31.78125 66.40625 
z
M 31.78125 74.21875 
Q 44.046875 74.21875 50.515625 64.515625 
Q 56.984375 54.828125 56.984375 36.375 
Q 56.984375 17.96875 50.515625 8.265625 
Q 44.046875 -1.421875 31.78125 -1.421875 
Q 19.53125 -1.421875 13.0625 8.265625 
Q 6.59375 17.96875 6.59375 36.375 
Q 6.59375 54.828125 13.0625 64.515625 
Q 19.53125 74.21875 31.78125 74.21875 
z
" id="DejaVuSans-30"/>
      </defs>
      <g transform="translate(49.7575 317.076875)scale(0.2 -0.2)">
       <use xlink:href="#DejaVuSans-30"/>
      </g>
     </g>
    </g>
    <g id="xtick_2">
     <g id="line2d_6">
      <path clip-path="url(#pd78fae3d72)" d="M 135.351336 294.88 
L 135.351336 24.84 
" style="fill:none;stroke:#b0b0b0;stroke-linecap:square;stroke-width:0.8;"/>
     </g>
     <g id="line2d_7">
      <g>
       <use style="stroke:#000000;stroke-width:0.8;" x="135.351336" xlink:href="#m024f99e748" y="294.88"/>
      </g>
     </g>
     <g id="text_2">
      <!-- 2 -->
      <defs>
       <path d="M 19.1875 8.296875 
L 53.609375 8.296875 
L 53.609375 0 
L 7.328125 0 
L 7.328125 8.296875 
Q 12.9375 14.109375 22.625 23.890625 
Q 32.328125 33.6875 34.8125 36.53125 
Q 39.546875 41.84375 41.421875 45.53125 
Q 43.3125 49.21875 43.3125 52.78125 
Q 43.3125 58.59375 39.234375 62.25 
Q 35.15625 65.921875 28.609375 65.921875 
Q 23.96875 65.921875 18.8125 64.3125 
Q 13.671875 62.703125 7.8125 59.421875 
L 7.8125 69.390625 
Q 13.765625 71.78125 18.9375 73 
Q 24.125 74.21875 28.421875 74.21875 
Q 39.75 74.21875 46.484375 68.546875 
Q 53.21875 62.890625 53.21875 53.421875 
Q 53.21875 48.921875 51.53125 44.890625 
Q 49.859375 40.875 45.40625 35.40625 
Q 44.1875 33.984375 37.640625 27.21875 
Q 31.109375 20.453125 19.1875 8.296875 
z
" id="DejaVuSans-32"/>
      </defs>
      <g transform="translate(128.988836 317.076875)scale(0.2 -0.2)">
       <use xlink:href="#DejaVuSans-32"/>
      </g>
     </g>
    </g>
    <g id="xtick_3">
     <g id="line2d_8">
      <path clip-path="url(#pd78fae3d72)" d="M 214.582673 294.88 
L 214.582673 24.84 
" style="fill:none;stroke:#b0b0b0;stroke-linecap:square;stroke-width:0.8;"/>
     </g>
     <g id="line2d_9">
      <g>
       <use style="stroke:#000000;stroke-width:0.8;" x="214.582673" xlink:href="#m024f99e748" y="294.88"/>
      </g>
     </g>
     <g id="text_3">
      <!-- 4 -->
      <defs>
       <path d="M 37.796875 64.3125 
L 12.890625 25.390625 
L 37.796875 25.390625 
z
M 35.203125 72.90625 
L 47.609375 72.90625 
L 47.609375 25.390625 
L 58.015625 25.390625 
L 58.015625 17.1875 
L 47.609375 17.1875 
L 47.609375 0 
L 37.796875 0 
L 37.796875 17.1875 
L 4.890625 17.1875 
L 4.890625 26.703125 
z
" id="DejaVuSans-34"/>
      </defs>
      <g transform="translate(208.220173 317.076875)scale(0.2 -0.2)">
       <use xlink:href="#DejaVuSans-34"/>
      </g>
     </g>
    </g>
    <g id="xtick_4">
     <g id="line2d_10">
      <path clip-path="url(#pd78fae3d72)" d="M 293.814009 294.88 
L 293.814009 24.84 
" style="fill:none;stroke:#b0b0b0;stroke-linecap:square;stroke-width:0.8;"/>
     </g>
     <g id="line2d_11">
      <g>
       <use style="stroke:#000000;stroke-width:0.8;" x="293.814009" xlink:href="#m024f99e748" y="294.88"/>
      </g>
     </g>
     <g id="text_4">
      <!-- 6 -->
      <defs>
       <path d="M 33.015625 40.375 
Q 26.375 40.375 22.484375 35.828125 
Q 18.609375 31.296875 18.609375 23.390625 
Q 18.609375 15.53125 22.484375 10.953125 
Q 26.375 6.390625 33.015625 6.390625 
Q 39.65625 6.390625 43.53125 10.953125 
Q 47.40625 15.53125 47.40625 23.390625 
Q 47.40625 31.296875 43.53125 35.828125 
Q 39.65625 40.375 33.015625 40.375 
z
M 52.59375 71.296875 
L 52.59375 62.3125 
Q 48.875 64.0625 45.09375 64.984375 
Q 41.3125 65.921875 37.59375 65.921875 
Q 27.828125 65.921875 22.671875 59.328125 
Q 17.53125 52.734375 16.796875 39.40625 
Q 19.671875 43.65625 24.015625 45.921875 
Q 28.375 48.1875 33.59375 48.1875 
Q 44.578125 48.1875 50.953125 41.515625 
Q 57.328125 34.859375 57.328125 23.390625 
Q 57.328125 12.15625 50.6875 5.359375 
Q 44.046875 -1.421875 33.015625 -1.421875 
Q 20.359375 -1.421875 13.671875 8.265625 
Q 6.984375 17.96875 6.984375 36.375 
Q 6.984375 53.65625 15.1875 63.9375 
Q 23.390625 74.21875 37.203125 74.21875 
Q 40.921875 74.21875 44.703125 73.484375 
Q 48.484375 72.75 52.59375 71.296875 
z
" id="DejaVuSans-36"/>
      </defs>
      <g transform="translate(287.451509 317.076875)scale(0.2 -0.2)">
       <use xlink:href="#DejaVuSans-36"/>
      </g>
     </g>
    </g>
    <g id="xtick_5">
     <g id="line2d_12">
      <path clip-path="url(#pd78fae3d72)" d="M 373.045346 294.88 
L 373.045346 24.84 
" style="fill:none;stroke:#b0b0b0;stroke-linecap:square;stroke-width:0.8;"/>
     </g>
     <g id="line2d_13">
      <g>
       <use style="stroke:#000000;stroke-width:0.8;" x="373.045346" xlink:href="#m024f99e748" y="294.88"/>
      </g>
     </g>
     <g id="text_5">
      <!-- 8 -->
      <defs>
       <path d="M 31.78125 34.625 
Q 24.75 34.625 20.71875 30.859375 
Q 16.703125 27.09375 16.703125 20.515625 
Q 16.703125 13.921875 20.71875 10.15625 
Q 24.75 6.390625 31.78125 6.390625 
Q 38.8125 6.390625 42.859375 10.171875 
Q 46.921875 13.96875 46.921875 20.515625 
Q 46.921875 27.09375 42.890625 30.859375 
Q 38.875 34.625 31.78125 34.625 
z
M 21.921875 38.8125 
Q 15.578125 40.375 12.03125 44.71875 
Q 8.5 49.078125 8.5 55.328125 
Q 8.5 64.0625 14.71875 69.140625 
Q 20.953125 74.21875 31.78125 74.21875 
Q 42.671875 74.21875 48.875 69.140625 
Q 55.078125 64.0625 55.078125 55.328125 
Q 55.078125 49.078125 51.53125 44.71875 
Q 48 40.375 41.703125 38.8125 
Q 48.828125 37.15625 52.796875 32.3125 
Q 56.78125 27.484375 56.78125 20.515625 
Q 56.78125 9.90625 50.3125 4.234375 
Q 43.84375 -1.421875 31.78125 -1.421875 
Q 19.734375 -1.421875 13.25 4.234375 
Q 6.78125 9.90625 6.78125 20.515625 
Q 6.78125 27.484375 10.78125 32.3125 
Q 14.796875 37.15625 21.921875 38.8125 
z
M 18.3125 54.390625 
Q 18.3125 48.734375 21.84375 45.5625 
Q 25.390625 42.390625 31.78125 42.390625 
Q 38.140625 42.390625 41.71875 45.5625 
Q 45.3125 48.734375 45.3125 54.390625 
Q 45.3125 60.0625 41.71875 63.234375 
Q 38.140625 66.40625 31.78125 66.40625 
Q 25.390625 66.40625 21.84375 63.234375 
Q 18.3125 60.0625 18.3125 54.390625 
z
" id="DejaVuSans-38"/>
      </defs>
      <g transform="translate(366.682846 317.076875)scale(0.2 -0.2)">
       <use xlink:href="#DejaVuSans-38"/>
      </g>
     </g>
    </g>
    <g id="text_6">
     <!-- log10(# f-evals / dimension) -->
     <defs>
      <path d="M 9.421875 75.984375 
L 18.40625 75.984375 
L 18.40625 0 
L 9.421875 0 
z
" id="DejaVuSans-6c"/>
      <path d="M 30.609375 48.390625 
Q 23.390625 48.390625 19.1875 42.75 
Q 14.984375 37.109375 14.984375 27.296875 
Q 14.984375 17.484375 19.15625 11.84375 
Q 23.34375 6.203125 30.609375 6.203125 
Q 37.796875 6.203125 41.984375 11.859375 
Q 46.1875 17.53125 46.1875 27.296875 
Q 46.1875 37.015625 41.984375 42.703125 
Q 37.796875 48.390625 30.609375 48.390625 
z
M 30.609375 56 
Q 42.328125 56 49.015625 48.375 
Q 55.71875 40.765625 55.71875 27.296875 
Q 55.71875 13.875 49.015625 6.21875 
Q 42.328125 -1.421875 30.609375 -1.421875 
Q 18.84375 -1.421875 12.171875 6.21875 
Q 5.515625 13.875 5.515625 27.296875 
Q 5.515625 40.765625 12.171875 48.375 
Q 18.84375 56 30.609375 56 
z
" id="DejaVuSans-6f"/>
      <path d="M 45.40625 27.984375 
Q 45.40625 37.75 41.375 43.109375 
Q 37.359375 48.484375 30.078125 48.484375 
Q 22.859375 48.484375 18.828125 43.109375 
Q 14.796875 37.75 14.796875 27.984375 
Q 14.796875 18.265625 18.828125 12.890625 
Q 22.859375 7.515625 30.078125 7.515625 
Q 37.359375 7.515625 41.375 12.890625 
Q 45.40625 18.265625 45.40625 27.984375 
z
M 54.390625 6.78125 
Q 54.390625 -7.171875 48.1875 -13.984375 
Q 42 -20.796875 29.203125 -20.796875 
Q 24.46875 -20.796875 20.265625 -20.09375 
Q 16.0625 -19.390625 12.109375 -17.921875 
L 12.109375 -9.1875 
Q 16.0625 -11.328125 19.921875 -12.34375 
Q 23.78125 -13.375 27.78125 -13.375 
Q 36.625 -13.375 41.015625 -8.765625 
Q 45.40625 -4.15625 45.40625 5.171875 
L 45.40625 9.625 
Q 42.625 4.78125 38.28125 2.390625 
Q 33.9375 0 27.875 0 
Q 17.828125 0 11.671875 7.65625 
Q 5.515625 15.328125 5.515625 27.984375 
Q 5.515625 40.671875 11.671875 48.328125 
Q 17.828125 56 27.875 56 
Q 33.9375 56 38.28125 53.609375 
Q 42.625 51.21875 45.40625 46.390625 
L 45.40625 54.6875 
L 54.390625 54.6875 
z
" id="DejaVuSans-67"/>
      <path d="M 12.40625 8.296875 
L 28.515625 8.296875 
L 28.515625 63.921875 
L 10.984375 60.40625 
L 10.984375 69.390625 
L 28.421875 72.90625 
L 38.28125 72.90625 
L 38.28125 8.296875 
L 54.390625 8.296875 
L 54.390625 0 
L 12.40625 0 
z
" id="DejaVuSans-31"/>
      <path d="M 31 75.875 
Q 24.46875 64.65625 21.28125 53.65625 
Q 18.109375 42.671875 18.109375 31.390625 
Q 18.109375 20.125 21.3125 9.0625 
Q 24.515625 -2 31 -13.1875 
L 23.1875 -13.1875 
Q 15.875 -1.703125 12.234375 9.375 
Q 8.59375 20.453125 8.59375 31.390625 
Q 8.59375 42.28125 12.203125 53.3125 
Q 15.828125 64.359375 23.1875 75.875 
z
" id="DejaVuSans-28"/>
      <path d="M 51.125 44 
L 36.921875 44 
L 32.8125 27.6875 
L 47.125 27.6875 
z
M 43.796875 71.78125 
L 38.71875 51.515625 
L 52.984375 51.515625 
L 58.109375 71.78125 
L 65.921875 71.78125 
L 60.890625 51.515625 
L 76.125 51.515625 
L 76.125 44 
L 58.984375 44 
L 54.984375 27.6875 
L 70.515625 27.6875 
L 70.515625 20.21875 
L 53.078125 20.21875 
L 48 0 
L 40.1875 0 
L 45.21875 20.21875 
L 30.90625 20.21875 
L 25.875 0 
L 18.015625 0 
L 23.09375 20.21875 
L 7.71875 20.21875 
L 7.71875 27.6875 
L 24.90625 27.6875 
L 29 44 
L 13.28125 44 
L 13.28125 51.515625 
L 30.90625 51.515625 
L 35.890625 71.78125 
z
" id="DejaVuSans-23"/>
      <path id="DejaVuSans-20"/>
      <path d="M 37.109375 75.984375 
L 37.109375 68.5 
L 28.515625 68.5 
Q 23.6875 68.5 21.796875 66.546875 
Q 19.921875 64.59375 19.921875 59.515625 
L 19.921875 54.6875 
L 34.71875 54.6875 
L 34.71875 47.703125 
L 19.921875 47.703125 
L 19.921875 0 
L 10.890625 0 
L 10.890625 47.703125 
L 2.296875 47.703125 
L 2.296875 54.6875 
L 10.890625 54.6875 
L 10.890625 58.5 
Q 10.890625 67.625 15.140625 71.796875 
Q 19.390625 75.984375 28.609375 75.984375 
z
" id="DejaVuSans-66"/>
      <path d="M 4.890625 31.390625 
L 31.203125 31.390625 
L 31.203125 23.390625 
L 4.890625 23.390625 
z
" id="DejaVuSans-2d"/>
      <path d="M 56.203125 29.59375 
L 56.203125 25.203125 
L 14.890625 25.203125 
Q 15.484375 15.921875 20.484375 11.0625 
Q 25.484375 6.203125 34.421875 6.203125 
Q 39.59375 6.203125 44.453125 7.46875 
Q 49.3125 8.734375 54.109375 11.28125 
L 54.109375 2.78125 
Q 49.265625 0.734375 44.1875 -0.34375 
Q 39.109375 -1.421875 33.890625 -1.421875 
Q 20.796875 -1.421875 13.15625 6.1875 
Q 5.515625 13.8125 5.515625 26.8125 
Q 5.515625 40.234375 12.765625 48.109375 
Q 20.015625 56 32.328125 56 
Q 43.359375 56 49.78125 48.890625 
Q 56.203125 41.796875 56.203125 29.59375 
z
M 47.21875 32.234375 
Q 47.125 39.59375 43.09375 43.984375 
Q 39.0625 48.390625 32.421875 48.390625 
Q 24.90625 48.390625 20.390625 44.140625 
Q 15.875 39.890625 15.1875 32.171875 
z
" id="DejaVuSans-65"/>
      <path d="M 2.984375 54.6875 
L 12.5 54.6875 
L 29.59375 8.796875 
L 46.6875 54.6875 
L 56.203125 54.6875 
L 35.6875 0 
L 23.484375 0 
z
" id="DejaVuSans-76"/>
      <path d="M 34.28125 27.484375 
Q 23.390625 27.484375 19.1875 25 
Q 14.984375 22.515625 14.984375 16.5 
Q 14.984375 11.71875 18.140625 8.90625 
Q 21.296875 6.109375 26.703125 6.109375 
Q 34.1875 6.109375 38.703125 11.40625 
Q 43.21875 16.703125 43.21875 25.484375 
L 43.21875 27.484375 
z
M 52.203125 31.203125 
L 52.203125 0 
L 43.21875 0 
L 43.21875 8.296875 
Q 40.140625 3.328125 35.546875 0.953125 
Q 30.953125 -1.421875 24.3125 -1.421875 
Q 15.921875 -1.421875 10.953125 3.296875 
Q 6 8.015625 6 15.921875 
Q 6 25.140625 12.171875 29.828125 
Q 18.359375 34.515625 30.609375 34.515625 
L 43.21875 34.515625 
L 43.21875 35.40625 
Q 43.21875 41.609375 39.140625 45 
Q 35.0625 48.390625 27.6875 48.390625 
Q 23 48.390625 18.546875 47.265625 
Q 14.109375 46.140625 10.015625 43.890625 
L 10.015625 52.203125 
Q 14.9375 54.109375 19.578125 55.046875 
Q 24.21875 56 28.609375 56 
Q 40.484375 56 46.34375 49.84375 
Q 52.203125 43.703125 52.203125 31.203125 
z
" id="DejaVuSans-61"/>
      <path d="M 44.28125 53.078125 
L 44.28125 44.578125 
Q 40.484375 46.53125 36.375 47.5 
Q 32.28125 48.484375 27.875 48.484375 
Q 21.1875 48.484375 17.84375 46.4375 
Q 14.5 44.390625 14.5 40.28125 
Q 14.5 37.15625 16.890625 35.375 
Q 19.28125 33.59375 26.515625 31.984375 
L 29.59375 31.296875 
Q 39.15625 29.25 43.1875 25.515625 
Q 47.21875 21.78125 47.21875 15.09375 
Q 47.21875 7.46875 41.1875 3.015625 
Q 35.15625 -1.421875 24.609375 -1.421875 
Q 20.21875 -1.421875 15.453125 -0.5625 
Q 10.6875 0.296875 5.421875 2 
L 5.421875 11.28125 
Q 10.40625 8.6875 15.234375 7.390625 
Q 20.0625 6.109375 24.8125 6.109375 
Q 31.15625 6.109375 34.5625 8.28125 
Q 37.984375 10.453125 37.984375 14.40625 
Q 37.984375 18.0625 35.515625 20.015625 
Q 33.0625 21.96875 24.703125 23.78125 
L 21.578125 24.515625 
Q 13.234375 26.265625 9.515625 29.90625 
Q 5.8125 33.546875 5.8125 39.890625 
Q 5.8125 47.609375 11.28125 51.796875 
Q 16.75 56 26.8125 56 
Q 31.78125 56 36.171875 55.265625 
Q 40.578125 54.546875 44.28125 53.078125 
z
" id="DejaVuSans-73"/>
      <path d="M 25.390625 72.90625 
L 33.6875 72.90625 
L 8.296875 -9.28125 
L 0 -9.28125 
z
" id="DejaVuSans-2f"/>
      <path d="M 45.40625 46.390625 
L 45.40625 75.984375 
L 54.390625 75.984375 
L 54.390625 0 
L 45.40625 0 
L 45.40625 8.203125 
Q 42.578125 3.328125 38.25 0.953125 
Q 33.9375 -1.421875 27.875 -1.421875 
Q 17.96875 -1.421875 11.734375 6.484375 
Q 5.515625 14.40625 5.515625 27.296875 
Q 5.515625 40.1875 11.734375 48.09375 
Q 17.96875 56 27.875 56 
Q 33.9375 56 38.25 53.625 
Q 42.578125 51.265625 45.40625 46.390625 
z
M 14.796875 27.296875 
Q 14.796875 17.390625 18.875 11.75 
Q 22.953125 6.109375 30.078125 6.109375 
Q 37.203125 6.109375 41.296875 11.75 
Q 45.40625 17.390625 45.40625 27.296875 
Q 45.40625 37.203125 41.296875 42.84375 
Q 37.203125 48.484375 30.078125 48.484375 
Q 22.953125 48.484375 18.875 42.84375 
Q 14.796875 37.203125 14.796875 27.296875 
z
" id="DejaVuSans-64"/>
      <path d="M 9.421875 54.6875 
L 18.40625 54.6875 
L 18.40625 0 
L 9.421875 0 
z
M 9.421875 75.984375 
L 18.40625 75.984375 
L 18.40625 64.59375 
L 9.421875 64.59375 
z
" id="DejaVuSans-69"/>
      <path d="M 52 44.1875 
Q 55.375 50.25 60.0625 53.125 
Q 64.75 56 71.09375 56 
Q 79.640625 56 84.28125 50.015625 
Q 88.921875 44.046875 88.921875 33.015625 
L 88.921875 0 
L 79.890625 0 
L 79.890625 32.71875 
Q 79.890625 40.578125 77.09375 44.375 
Q 74.3125 48.1875 68.609375 48.1875 
Q 61.625 48.1875 57.5625 43.546875 
Q 53.515625 38.921875 53.515625 30.90625 
L 53.515625 0 
L 44.484375 0 
L 44.484375 32.71875 
Q 44.484375 40.625 41.703125 44.40625 
Q 38.921875 48.1875 33.109375 48.1875 
Q 26.21875 48.1875 22.15625 43.53125 
Q 18.109375 38.875 18.109375 30.90625 
L 18.109375 0 
L 9.078125 0 
L 9.078125 54.6875 
L 18.109375 54.6875 
L 18.109375 46.1875 
Q 21.1875 51.21875 25.484375 53.609375 
Q 29.78125 56 35.6875 56 
Q 41.65625 56 45.828125 52.96875 
Q 50 49.953125 52 44.1875 
z
" id="DejaVuSans-6d"/>
      <path d="M 54.890625 33.015625 
L 54.890625 0 
L 45.90625 0 
L 45.90625 32.71875 
Q 45.90625 40.484375 42.875 44.328125 
Q 39.84375 48.1875 33.796875 48.1875 
Q 26.515625 48.1875 22.3125 43.546875 
Q 18.109375 38.921875 18.109375 30.90625 
L 18.109375 0 
L 9.078125 0 
L 9.078125 54.6875 
L 18.109375 54.6875 
L 18.109375 46.1875 
Q 21.34375 51.125 25.703125 53.5625 
Q 30.078125 56 35.796875 56 
Q 45.21875 56 50.046875 50.171875 
Q 54.890625 44.34375 54.890625 33.015625 
z
" id="DejaVuSans-6e"/>
      <path d="M 8.015625 75.875 
L 15.828125 75.875 
Q 23.140625 64.359375 26.78125 53.3125 
Q 30.421875 42.28125 30.421875 31.390625 
Q 30.421875 20.453125 26.78125 9.375 
Q 23.140625 -1.703125 15.828125 -13.1875 
L 8.015625 -13.1875 
Q 14.5 -2 17.703125 9.0625 
Q 20.90625 20.125 20.90625 31.390625 
Q 20.90625 42.671875 17.703125 53.65625 
Q 14.5 64.65625 8.015625 75.875 
z
" id="DejaVuSans-29"/>
     </defs>
     <g transform="translate(107.211219 338.153594)scale(0.17 -0.17)">
      <use xlink:href="#DejaVuSans-6c"/>
      <use x="27.783203" xlink:href="#DejaVuSans-6f"/>
      <use x="88.964844" xlink:href="#DejaVuSans-67"/>
      <use x="152.441406" xlink:href="#DejaVuSans-31"/>
      <use x="216.064453" xlink:href="#DejaVuSans-30"/>
      <use x="279.6875" xlink:href="#DejaVuSans-28"/>
      <use x="318.701172" xlink:href="#DejaVuSans-23"/>
      <use x="402.490234" xlink:href="#DejaVuSans-20"/>
      <use x="434.277344" xlink:href="#DejaVuSans-66"/>
      <use x="469.404297" xlink:href="#DejaVuSans-2d"/>
      <use x="505.488281" xlink:href="#DejaVuSans-65"/>
      <use x="567.011719" xlink:href="#DejaVuSans-76"/>
      <use x="626.191406" xlink:href="#DejaVuSans-61"/>
      <use x="687.470703" xlink:href="#DejaVuSans-6c"/>
      <use x="715.253906" xlink:href="#DejaVuSans-73"/>
      <use x="767.353516" xlink:href="#DejaVuSans-20"/>
      <use x="799.140625" xlink:href="#DejaVuSans-2f"/>
      <use x="832.832031" xlink:href="#DejaVuSans-20"/>
      <use x="864.619141" xlink:href="#DejaVuSans-64"/>
      <use x="928.095703" xlink:href="#DejaVuSans-69"/>
      <use x="955.878906" xlink:href="#DejaVuSans-6d"/>
      <use x="1053.291016" xlink:href="#DejaVuSans-65"/>
      <use x="1114.814453" xlink:href="#DejaVuSans-6e"/>
      <use x="1178.193359" xlink:href="#DejaVuSans-73"/>
      <use x="1230.292969" xlink:href="#DejaVuSans-69"/>
      <use x="1258.076172" xlink:href="#DejaVuSans-6f"/>
      <use x="1319.257812" xlink:href="#DejaVuSans-6e"/>
      <use x="1382.636719" xlink:href="#DejaVuSans-29"/>
     </g>
    </g>
   </g>
   <g id="matplotlib.axis_2">
    <g id="ytick_1">
     <g id="line2d_14">
      <path clip-path="url(#pd78fae3d72)" d="M 56.12 294.88 
L 399.984 294.88 
" style="fill:none;stroke:#b0b0b0;stroke-linecap:square;stroke-width:0.8;"/>
     </g>
     <g id="line2d_15">
      <defs>
       <path d="M 0 0 
L -3.5 0 
" id="m7c3cd13c3d" style="stroke:#000000;stroke-width:0.8;"/>
      </defs>
      <g>
       <use style="stroke:#000000;stroke-width:0.8;" x="56.12" xlink:href="#m7c3cd13c3d" y="294.88"/>
      </g>
     </g>
     <g id="text_7">
      <!-- 0.0 -->
      <defs>
       <path d="M 10.6875 12.40625 
L 21 12.40625 
L 21 0 
L 10.6875 0 
z
" id="DejaVuSans-2e"/>
      </defs>
      <g transform="translate(23.675 300.95875)scale(0.16 -0.16)">
       <use xlink:href="#DejaVuSans-30"/>
       <use x="63.623047" xlink:href="#DejaVuSans-2e"/>
       <use x="95.410156" xlink:href="#DejaVuSans-30"/>
      </g>
     </g>
    </g>
    <g id="ytick_2">
     <g id="line2d_16">
      <path clip-path="url(#pd78fae3d72)" d="M 56.12 241.406733 
L 399.984 241.406733 
" style="fill:none;stroke:#b0b0b0;stroke-linecap:square;stroke-width:0.8;"/>
     </g>
     <g id="line2d_17">
      <g>
       <use style="stroke:#000000;stroke-width:0.8;" x="56.12" xlink:href="#m7c3cd13c3d" y="241.406733"/>
      </g>
     </g>
     <g id="text_8">
      <!-- 0.2 -->
      <g transform="translate(23.675 247.485483)scale(0.16 -0.16)">
       <use xlink:href="#DejaVuSans-30"/>
       <use x="63.623047" xlink:href="#DejaVuSans-2e"/>
       <use x="95.410156" xlink:href="#DejaVuSans-32"/>
      </g>
     </g>
    </g>
    <g id="ytick_3">
     <g id="line2d_18">
      <path clip-path="url(#pd78fae3d72)" d="M 56.12 187.933465 
L 399.984 187.933465 
" style="fill:none;stroke:#b0b0b0;stroke-linecap:square;stroke-width:0.8;"/>
     </g>
     <g id="line2d_19">
      <g>
       <use style="stroke:#000000;stroke-width:0.8;" x="56.12" xlink:href="#m7c3cd13c3d" y="187.933465"/>
      </g>
     </g>
     <g id="text_9">
      <!-- 0.4 -->
      <g transform="translate(23.675 194.012215)scale(0.16 -0.16)">
       <use xlink:href="#DejaVuSans-30"/>
       <use x="63.623047" xlink:href="#DejaVuSans-2e"/>
       <use x="95.410156" xlink:href="#DejaVuSans-34"/>
      </g>
     </g>
    </g>
    <g id="ytick_4">
     <g id="line2d_20">
      <path clip-path="url(#pd78fae3d72)" d="M 56.12 134.460198 
L 399.984 134.460198 
" style="fill:none;stroke:#b0b0b0;stroke-linecap:square;stroke-width:0.8;"/>
     </g>
     <g id="line2d_21">
      <g>
       <use style="stroke:#000000;stroke-width:0.8;" x="56.12" xlink:href="#m7c3cd13c3d" y="134.460198"/>
      </g>
     </g>
     <g id="text_10">
      <!-- 0.6 -->
      <g transform="translate(23.675 140.538948)scale(0.16 -0.16)">
       <use xlink:href="#DejaVuSans-30"/>
       <use x="63.623047" xlink:href="#DejaVuSans-2e"/>
       <use x="95.410156" xlink:href="#DejaVuSans-36"/>
      </g>
     </g>
    </g>
    <g id="ytick_5">
     <g id="line2d_22">
      <path clip-path="url(#pd78fae3d72)" d="M 56.12 80.986931 
L 399.984 80.986931 
" style="fill:none;stroke:#b0b0b0;stroke-linecap:square;stroke-width:0.8;"/>
     </g>
     <g id="line2d_23">
      <g>
       <use style="stroke:#000000;stroke-width:0.8;" x="56.12" xlink:href="#m7c3cd13c3d" y="80.986931"/>
      </g>
     </g>
     <g id="text_11">
      <!-- 0.8 -->
      <g transform="translate(23.675 87.065681)scale(0.16 -0.16)">
       <use xlink:href="#DejaVuSans-30"/>
       <use x="63.623047" xlink:href="#DejaVuSans-2e"/>
       <use x="95.410156" xlink:href="#DejaVuSans-38"/>
      </g>
     </g>
    </g>
    <g id="ytick_6">
     <g id="line2d_24">
      <path clip-path="url(#pd78fae3d72)" d="M 56.12 27.513663 
L 399.984 27.513663 
" style="fill:none;stroke:#b0b0b0;stroke-linecap:square;stroke-width:0.8;"/>
     </g>
     <g id="line2d_25">
      <g>
       <use style="stroke:#000000;stroke-width:0.8;" x="56.12" xlink:href="#m7c3cd13c3d" y="27.513663"/>
      </g>
     </g>
     <g id="text_12">
      <!-- 1.0 -->
      <g transform="translate(23.675 33.592413)scale(0.16 -0.16)">
       <use xlink:href="#DejaVuSans-31"/>
       <use x="63.623047" xlink:href="#DejaVuSans-2e"/>
       <use x="95.410156" xlink:href="#DejaVuSans-30"/>
      </g>
     </g>
    </g>
    <g id="text_13">
     <!-- Fraction of function,target pairs -->
     <defs>
      <path d="M 9.8125 72.90625 
L 51.703125 72.90625 
L 51.703125 64.59375 
L 19.671875 64.59375 
L 19.671875 43.109375 
L 48.578125 43.109375 
L 48.578125 34.8125 
L 19.671875 34.8125 
L 19.671875 0 
L 9.8125 0 
z
" id="DejaVuSans-46"/>
      <path d="M 41.109375 46.296875 
Q 39.59375 47.171875 37.8125 47.578125 
Q 36.03125 48 33.890625 48 
Q 26.265625 48 22.1875 43.046875 
Q 18.109375 38.09375 18.109375 28.8125 
L 18.109375 0 
L 9.078125 0 
L 9.078125 54.6875 
L 18.109375 54.6875 
L 18.109375 46.1875 
Q 20.953125 51.171875 25.484375 53.578125 
Q 30.03125 56 36.53125 56 
Q 37.453125 56 38.578125 55.875 
Q 39.703125 55.765625 41.0625 55.515625 
z
" id="DejaVuSans-72"/>
      <path d="M 48.78125 52.59375 
L 48.78125 44.1875 
Q 44.96875 46.296875 41.140625 47.34375 
Q 37.3125 48.390625 33.40625 48.390625 
Q 24.65625 48.390625 19.8125 42.84375 
Q 14.984375 37.3125 14.984375 27.296875 
Q 14.984375 17.28125 19.8125 11.734375 
Q 24.65625 6.203125 33.40625 6.203125 
Q 37.3125 6.203125 41.140625 7.25 
Q 44.96875 8.296875 48.78125 10.40625 
L 48.78125 2.09375 
Q 45.015625 0.34375 40.984375 -0.53125 
Q 36.96875 -1.421875 32.421875 -1.421875 
Q 20.0625 -1.421875 12.78125 6.34375 
Q 5.515625 14.109375 5.515625 27.296875 
Q 5.515625 40.671875 12.859375 48.328125 
Q 20.21875 56 33.015625 56 
Q 37.15625 56 41.109375 55.140625 
Q 45.0625 54.296875 48.78125 52.59375 
z
" id="DejaVuSans-63"/>
      <path d="M 18.3125 70.21875 
L 18.3125 54.6875 
L 36.8125 54.6875 
L 36.8125 47.703125 
L 18.3125 47.703125 
L 18.3125 18.015625 
Q 18.3125 11.328125 20.140625 9.421875 
Q 21.96875 7.515625 27.59375 7.515625 
L 36.8125 7.515625 
L 36.8125 0 
L 27.59375 0 
Q 17.1875 0 13.234375 3.875 
Q 9.28125 7.765625 9.28125 18.015625 
L 9.28125 47.703125 
L 2.6875 47.703125 
L 2.6875 54.6875 
L 9.28125 54.6875 
L 9.28125 70.21875 
z
" id="DejaVuSans-74"/>
      <path d="M 8.5 21.578125 
L 8.5 54.6875 
L 17.484375 54.6875 
L 17.484375 21.921875 
Q 17.484375 14.15625 20.5 10.265625 
Q 23.53125 6.390625 29.59375 6.390625 
Q 36.859375 6.390625 41.078125 11.03125 
Q 45.3125 15.671875 45.3125 23.6875 
L 45.3125 54.6875 
L 54.296875 54.6875 
L 54.296875 0 
L 45.3125 0 
L 45.3125 8.40625 
Q 42.046875 3.421875 37.71875 1 
Q 33.40625 -1.421875 27.6875 -1.421875 
Q 18.265625 -1.421875 13.375 4.4375 
Q 8.5 10.296875 8.5 21.578125 
z
M 31.109375 56 
z
" id="DejaVuSans-75"/>
      <path d="M 11.71875 12.40625 
L 22.015625 12.40625 
L 22.015625 4 
L 14.015625 -11.625 
L 7.71875 -11.625 
L 11.71875 4 
z
" id="DejaVuSans-2c"/>
      <path d="M 18.109375 8.203125 
L 18.109375 -20.796875 
L 9.078125 -20.796875 
L 9.078125 54.6875 
L 18.109375 54.6875 
L 18.109375 46.390625 
Q 20.953125 51.265625 25.265625 53.625 
Q 29.59375 56 35.59375 56 
Q 45.5625 56 51.78125 48.09375 
Q 58.015625 40.1875 58.015625 27.296875 
Q 58.015625 14.40625 51.78125 6.484375 
Q 45.5625 -1.421875 35.59375 -1.421875 
Q 29.59375 -1.421875 25.265625 0.953125 
Q 20.953125 3.328125 18.109375 8.203125 
z
M 48.6875 27.296875 
Q 48.6875 37.203125 44.609375 42.84375 
Q 40.53125 48.484375 33.40625 48.484375 
Q 26.265625 48.484375 22.1875 42.84375 
Q 18.109375 37.203125 18.109375 27.296875 
Q 18.109375 17.390625 22.1875 11.75 
Q 26.265625 6.109375 33.40625 6.109375 
Q 40.53125 6.109375 44.609375 11.75 
Q 48.6875 17.390625 48.6875 27.296875 
z
" id="DejaVuSans-70"/>
     </defs>
     <g transform="translate(16.139531 294.999375)rotate(-90)scale(0.17 -0.17)">
      <use xlink:href="#DejaVuSans-46"/>
      <use x="57.410156" xlink:href="#DejaVuSans-72"/>
      <use x="98.523438" xlink:href="#DejaVuSans-61"/>
      <use x="159.802734" xlink:href="#DejaVuSans-63"/>
      <use x="214.783203" xlink:href="#DejaVuSans-74"/>
      <use x="253.992188" xlink:href="#DejaVuSans-69"/>
      <use x="281.775391" xlink:href="#DejaVuSans-6f"/>
      <use x="342.957031" xlink:href="#DejaVuSans-6e"/>
      <use x="406.335938" xlink:href="#DejaVuSans-20"/>
      <use x="438.123047" xlink:href="#DejaVuSans-6f"/>
      <use x="499.304688" xlink:href="#DejaVuSans-66"/>
      <use x="534.509766" xlink:href="#DejaVuSans-20"/>
      <use x="566.296875" xlink:href="#DejaVuSans-66"/>
      <use x="601.501953" xlink:href="#DejaVuSans-75"/>
      <use x="664.880859" xlink:href="#DejaVuSans-6e"/>
      <use x="728.259766" xlink:href="#DejaVuSans-63"/>
      <use x="783.240234" xlink:href="#DejaVuSans-74"/>
      <use x="822.449219" xlink:href="#DejaVuSans-69"/>
      <use x="850.232422" xlink:href="#DejaVuSans-6f"/>
      <use x="911.414062" xlink:href="#DejaVuSans-6e"/>
      <use x="974.792969" xlink:href="#DejaVuSans-2c"/>
      <use x="1006.580078" xlink:href="#DejaVuSans-74"/>
      <use x="1045.789062" xlink:href="#DejaVuSans-61"/>
      <use x="1107.068359" xlink:href="#DejaVuSans-72"/>
      <use x="1148.166016" xlink:href="#DejaVuSans-67"/>
      <use x="1211.642578" xlink:href="#DejaVuSans-65"/>
      <use x="1273.166016" xlink:href="#DejaVuSans-74"/>
      <use x="1312.375" xlink:href="#DejaVuSans-20"/>
      <use x="1344.162109" xlink:href="#DejaVuSans-70"/>
      <use x="1407.638672" xlink:href="#DejaVuSans-61"/>
      <use x="1468.917969" xlink:href="#DejaVuSans-69"/>
      <use x="1496.701172" xlink:href="#DejaVuSans-72"/>
      <use x="1537.814453" xlink:href="#DejaVuSans-73"/>
     </g>
    </g>
   </g>
   <g id="line2d_26">
    <defs>
     <path d="M 0 1.5 
C 0.397805 1.5 0.77937 1.341951 1.06066 1.06066 
C 1.341951 0.77937 1.5 0.397805 1.5 0 
C 1.5 -0.397805 1.341951 -0.77937 1.06066 -1.06066 
C 0.77937 -1.341951 0.397805 -1.5 0 -1.5 
C -0.397805 -1.5 -0.77937 -1.341951 -1.06066 -1.06066 
C -1.341951 -0.77937 -1.5 -0.397805 -1.5 0 
C -1.5 0.397805 -1.341951 0.77937 -1.06066 1.06066 
C -0.77937 1.341951 -0.397805 1.5 0 1.5 
z
" id="m9e446e964a" style="stroke:#f5deb3;"/>
    </defs>
    <g>
     <use style="fill:#f5deb3;stroke:#f5deb3;" x="293.140673" xlink:href="#m9e446e964a" y="105.879659"/>
     <use style="fill:#f5deb3;stroke:#f5deb3;" x="293.140673" xlink:href="#m9e446e964a" y="105.879659"/>
    </g>
   </g>
   <g id="line2d_27">
    <g>
     <use style="fill:#f5deb3;stroke:#f5deb3;stroke-linejoin:miter;stroke-width:1.5;" x="139.40252" xlink:href="#mc47d375a8b" y="281.050707"/>
     <use style="fill:#f5deb3;stroke:#f5deb3;stroke-linejoin:miter;stroke-width:1.5;" x="186.755184" xlink:href="#mc47d375a8b" y="184.245654"/>
     <use style="fill:#f5deb3;stroke:#f5deb3;stroke-linejoin:miter;stroke-width:1.5;" x="241.714648" xlink:href="#mc47d375a8b" y="142.757774"/>
     <use style="fill:#f5deb3;stroke:#f5deb3;stroke-linejoin:miter;stroke-width:1.5;" x="293.140673" xlink:href="#mc47d375a8b" y="105.879659"/>
     <use style="fill:#f5deb3;stroke:#f5deb3;stroke-linejoin:miter;stroke-width:1.5;" x="333.429677" xlink:href="#mc47d375a8b" y="105.879659"/>
    </g>
   </g>
   <g id="line2d_28">
    <defs>
     <path d="M 0 1.5 
C 0.397805 1.5 0.77937 1.341951 1.06066 1.06066 
C 1.341951 0.77937 1.5 0.397805 1.5 0 
C 1.5 -0.397805 1.341951 -0.77937 1.06066 -1.06066 
C 0.77937 -1.341951 0.397805 -1.5 0 -1.5 
C -0.397805 -1.5 -0.77937 -1.341951 -1.06066 -1.06066 
C -1.341951 -0.77937 -1.5 -0.397805 -1.5 0 
C -1.5 0.397805 -1.341951 0.77937 -1.06066 1.06066 
C -0.77937 1.341951 -0.397805 1.5 0 1.5 
z
" id="mece7fda803" style="stroke:#999999;"/>
    </defs>
    <g>
     <use style="fill:#999999;stroke:#999999;" x="280.685257" xlink:href="#mece7fda803" y="239.562827"/>
     <use style="fill:#999999;stroke:#999999;" x="280.685257" xlink:href="#mece7fda803" y="239.562827"/>
    </g>
   </g>
   <g id="line2d_29">
    <path d="M -1 288.42633 
L 114.024185 288.42633 
L 114.024185 287.504377 
L 114.794138 287.504377 
L 114.794138 287.0434 
L 118.88434 287.0434 
L 118.88434 286.582424 
L 119.768514 286.582424 
L 119.768514 285.660471 
L 119.990516 285.660471 
L 119.990516 284.277542 
L 120.66005 284.277542 
L 120.66005 282.894612 
L 124.338838 282.894612 
L 124.338838 282.433636 
L 144.32569 282.433636 
L 144.32569 281.97266 
L 151.458384 281.97266 
L 151.458384 281.050707 
L 151.958701 281.050707 
L 151.958701 280.58973 
L 153.85248 280.58973 
L 153.85248 279.667777 
L 155.32686 279.667777 
L 155.32686 279.206801 
L 163.805389 279.206801 
L 163.805389 277.823872 
L 165.467018 277.823872 
L 165.467018 277.362895 
L 166.545706 277.362895 
L 166.545706 276.901919 
L 166.79234 276.901919 
L 166.79234 275.979966 
L 169.491653 275.979966 
L 169.601283 273.214107 
L 173.290908 273.214107 
L 173.290908 272.292154 
L 174.61942 272.292154 
L 174.61942 271.370201 
L 176.248841 271.370201 
L 176.248841 270.909225 
L 176.444155 270.909225 
L 176.444155 269.987272 
L 177.661982 269.987272 
L 177.661982 268.604343 
L 179.750463 268.604343 
L 179.750463 267.68239 
L 181.759922 267.68239 
L 181.769194 266.299461 
L 184.200319 266.299461 
L 184.200319 265.377508 
L 184.419225 265.377508 
L 184.419225 264.916531 
L 189.2409 264.916531 
L 189.2409 263.072625 
L 190.54258 263.072625 
L 190.54258 262.150673 
L 195.498763 262.150673 
L 195.498763 260.767743 
L 201.318547 260.767743 
L 201.318547 259.384814 
L 202.117151 259.384814 
L 202.117151 258.923837 
L 205.297705 258.923837 
L 205.297705 258.462861 
L 207.891712 258.462861 
L 207.891712 256.618955 
L 208.961483 256.618955 
L 208.961483 256.157979 
L 210.165344 256.157979 
L 210.165344 254.77505 
L 215.852209 254.77505 
L 215.852209 254.314073 
L 219.819754 254.314073 
L 219.819754 253.39212 
L 228.340914 253.39212 
L 228.340914 252.931144 
L 230.044597 252.931144 
L 230.044597 251.087238 
L 230.918579 251.087238 
L 230.918579 250.626262 
L 231.170908 250.626262 
L 231.170908 250.165285 
L 232.058352 250.165285 
L 232.058352 249.243332 
L 233.940148 249.243332 
L 233.940148 248.782356 
L 241.319057 248.782356 
L 241.319057 247.399426 
L 244.053621 247.399426 
L 244.053621 246.93845 
L 245.067211 246.93845 
L 245.067211 246.477474 
L 247.035938 246.477474 
L 247.035938 246.016497 
L 254.424325 246.016497 
L 254.4944 244.633568 
L 255.41717 244.633568 
L 255.41717 244.172591 
L 258.205647 244.172591 
L 258.205647 243.711615 
L 261.789002 243.711615 
L 261.789002 243.250638 
L 262.940836 243.250638 
L 262.940836 242.789662 
L 267.938849 242.789662 
L 267.938975 241.867709 
L 271.027318 241.867709 
L 271.044732 240.48478 
L 279.075063 240.48478 
L 279.075063 240.023803 
L 280.685257 240.023803 
L 280.685257 239.562827 
L 333.429677 239.562827 
L 333.429677 239.562827 
" style="fill:none;stroke:#999999;stroke-linecap:square;stroke-width:1.5;"/>
   </g>
   <g id="line2d_30"/>
   <g id="line2d_31">
    <path d="M 0 0 
" style="fill:none;stroke:#999999;stroke-linecap:square;stroke-width:1.5;"/>
   </g>
   <g id="line2d_32">
    <path clip-path="url(#pd78fae3d72)" d="M 254.198698 246.016497 
" style="fill:none;stroke:#999999;stroke-linecap:square;stroke-width:1.5;"/>
    <defs>
     <path d="M -12 12 
L 12 -12 
M -12 -12 
L 12 12 
" id="mee13a66e96" style="stroke:#999999;stroke-width:3;"/>
    </defs>
    <g clip-path="url(#pd78fae3d72)">
     <use style="fill:#999999;stroke:#999999;stroke-width:3;" x="254.198698" xlink:href="#mee13a66e96" y="246.016497"/>
    </g>
   </g>
   <g id="line2d_33">
    <path clip-path="url(#pd78fae3d72)" d="M 56.12 294.88 
L 56.12 294.88 
L 56.12 294.88 
L 56.12 294.88 
L 399.984 294.88 
" style="fill:none;stroke:#999999;stroke-linecap:square;stroke-width:1.5;"/>
   </g>
   <g id="line2d_34"/>
   <g id="line2d_35">
    <path clip-path="url(#pd78fae3d72)" d="M 0 0 
" style="fill:none;stroke:#999999;stroke-linecap:square;stroke-width:1.5;"/>
   </g>
   <g id="line2d_36">
    <g>
     <use style="fill:#999999;stroke:#999999;" x="302.726916" xlink:href="#mece7fda803" y="267.221413"/>
     <use style="fill:#999999;stroke:#999999;" x="302.726916" xlink:href="#mece7fda803" y="267.221413"/>
    </g>
   </g>
   <g id="line2d_37">
    <path d="M 32.268991 294.88 
L 32.268991 293.497071 
L 67.609915 293.497071 
L 67.609915 293.036094 
L 79.088515 293.036094 
L 79.088515 292.575118 
L 85.37158 292.575118 
L 85.37158 291.653165 
L 92.838048 291.653165 
L 92.838048 291.192188 
L 107.853647 291.192188 
L 107.853647 290.270236 
L 118.487767 290.270236 
L 118.487767 289.809259 
L 124.789716 289.809259 
L 124.789716 289.348283 
L 134.162787 289.348283 
L 134.162787 288.42633 
L 135.984716 288.42633 
L 135.984716 287.504377 
L 143.270201 287.504377 
L 143.270201 286.582424 
L 149.406203 286.582424 
L 149.406203 286.121448 
L 164.124973 286.121448 
L 164.124973 285.660471 
L 166.757025 285.660471 
L 166.757025 285.199495 
L 167.39923 285.199495 
L 167.39923 284.738518 
L 175.522267 284.738518 
L 175.522267 283.816565 
L 176.142716 283.816565 
L 176.142716 282.894612 
L 195.728187 282.894612 
L 195.728187 282.433636 
L 200.695275 282.433636 
L 200.695275 281.050707 
L 202.847175 281.050707 
L 202.847175 280.58973 
L 208.515851 280.58973 
L 208.515851 280.128754 
L 209.40435 280.128754 
L 209.40435 279.206801 
L 212.708102 279.206801 
L 212.708102 278.745825 
L 222.433321 278.745825 
L 222.433321 277.823872 
L 250.08685 277.823872 
L 250.08685 276.901919 
L 254.23724 276.901919 
L 254.23724 275.979966 
L 254.289714 275.979966 
L 254.289714 275.518989 
L 254.304772 275.518989 
L 254.304772 275.058013 
L 255.366969 275.058013 
L 255.366969 274.597037 
L 257.191954 274.597037 
L 257.191954 273.675084 
L 261.352882 273.675084 
L 261.352882 272.753131 
L 264.190626 272.753131 
L 264.190626 272.292154 
L 266.71808 272.292154 
L 266.71808 271.370201 
L 271.835434 271.370201 
L 271.835434 270.909225 
L 273.24068 270.909225 
L 273.24068 270.448249 
L 277.109879 270.448249 
L 277.109879 269.987272 
L 278.43081 269.987272 
L 278.43081 269.526296 
L 280.13552 269.526296 
L 280.13552 269.065319 
L 282.128667 269.065319 
L 282.128667 268.604343 
L 287.896476 268.604343 
L 287.896476 268.143366 
L 293.444354 268.143366 
L 293.444354 267.68239 
L 302.726916 267.68239 
L 302.726916 267.221413 
L 333.429677 267.221413 
" style="fill:none;stroke:#999999;stroke-linecap:square;stroke-width:1.5;"/>
   </g>
   <g id="line2d_38"/>
   <g id="line2d_39">
    <path d="M 0 0 
" style="fill:none;stroke:#999999;stroke-linecap:square;stroke-width:1.5;"/>
   </g>
   <g id="line2d_40">
    <path clip-path="url(#pd78fae3d72)" d="M 254.198341 276.901919 
" style="fill:none;stroke:#999999;stroke-linecap:square;stroke-width:1.5;"/>
    <g clip-path="url(#pd78fae3d72)">
     <use style="fill:#999999;stroke:#999999;stroke-width:3;" x="254.198341" xlink:href="#mee13a66e96" y="276.901919"/>
    </g>
   </g>
   <g id="line2d_41">
    <g>
     <use style="fill:#999999;stroke:#999999;" x="349.162735" xlink:href="#mece7fda803" y="271.831178"/>
     <use style="fill:#999999;stroke:#999999;" x="349.162735" xlink:href="#mece7fda803" y="271.831178"/>
    </g>
   </g>
   <g id="line2d_42">
    <path d="M 87.371815 294.88 
L 87.371815 294.419024 
L 108.001874 294.419024 
L 108.001874 293.958047 
L 117.738083 293.958047 
L 117.738083 293.497071 
L 142.194897 293.497071 
L 142.194897 293.036094 
L 147.240242 293.036094 
L 147.240242 292.575118 
L 165.118335 292.575118 
L 165.118335 291.192188 
L 169.312149 291.192188 
L 169.312149 289.809259 
L 206.885871 289.809259 
L 206.885871 289.348283 
L 210.354737 289.348283 
L 210.354737 288.42633 
L 226.730251 288.42633 
L 226.730251 287.965353 
L 235.092365 287.965353 
L 235.092365 287.0434 
L 246.858038 287.0434 
L 246.858038 286.582424 
L 247.015499 286.582424 
L 247.015499 284.738518 
L 261.320108 284.738518 
L 261.320108 284.277542 
L 264.119955 284.277542 
L 264.119955 283.355589 
L 272.700653 283.355589 
L 272.700653 282.894612 
L 273.28725 282.894612 
L 273.28725 281.97266 
L 294.065273 281.97266 
L 294.065273 281.050707 
L 294.371595 281.050707 
L 294.371595 280.58973 
L 294.90184 280.58973 
L 294.90184 280.128754 
L 296.632637 280.128754 
L 296.632637 279.667777 
L 298.046895 279.667777 
L 298.046895 279.206801 
L 298.371386 279.206801 
L 298.371386 278.284848 
L 306.993993 278.284848 
L 306.993993 277.823872 
L 308.168663 277.823872 
L 308.168663 277.362895 
L 312.450345 277.362895 
L 312.450345 276.901919 
L 317.466546 276.901919 
L 317.466546 275.518989 
L 321.345579 275.518989 
L 321.345579 275.058013 
L 327.998898 275.058013 
L 327.998898 274.597037 
L 328.022864 274.597037 
L 328.022864 274.13606 
L 331.529036 274.13606 
L 331.529036 273.214107 
L 333.429677 273.214107 
" style="fill:none;stroke:#999999;stroke-linecap:square;stroke-width:1.5;"/>
   </g>
   <g id="line2d_43"/>
   <g id="line2d_44">
    <path d="M 0 0 
" style="fill:none;stroke:#999999;stroke-linecap:square;stroke-width:1.5;"/>
   </g>
   <g id="line2d_45">
    <path clip-path="url(#pd78fae3d72)" d="M 293.814009 281.97266 
" style="fill:none;stroke:#999999;stroke-linecap:square;stroke-width:1.5;"/>
    <g clip-path="url(#pd78fae3d72)">
     <use style="fill:#999999;stroke:#999999;stroke-width:3;" x="293.814009" xlink:href="#mee13a66e96" y="281.97266"/>
    </g>
   </g>
   <g id="line2d_46">
    <g>
     <use style="fill:#999999;stroke:#999999;" x="311.902995" xlink:href="#mece7fda803" y="105.879659"/>
     <use style="fill:#999999;stroke:#999999;" x="311.902995" xlink:href="#mece7fda803" y="105.879659"/>
    </g>
   </g>
   <g id="line2d_47">
    <path d="M 135.801329 294.88 
L 135.801329 294.419024 
L 136.129209 294.419024 
L 136.129209 293.958047 
L 136.252101 293.958047 
L 136.296943 291.653165 
L 137.002862 291.653165 
L 137.045791 288.42633 
L 137.537612 288.42633 
L 137.60566 287.0434 
L 137.778348 287.0434 
L 137.83801 284.277542 
L 137.90859 284.277542 
L 137.986265 281.511683 
L 138.08195 281.511683 
L 138.191698 280.58973 
L 138.516805 280.58973 
L 138.609593 277.362895 
L 138.961875 277.362895 
L 139.003668 274.13606 
L 139.252318 274.13606 
L 139.296832 270.448249 
L 139.625393 270.448249 
L 139.675645 268.143366 
L 139.908237 268.143366 
L 139.908237 267.221413 
L 140.212466 267.221413 
L 140.261036 265.377508 
L 140.328803 265.377508 
L 140.351333 264.455555 
L 140.606745 264.455555 
L 140.651055 262.611649 
L 140.751908 262.611649 
L 140.764473 261.22872 
L 140.895856 261.22872 
L 140.945644 258.001885 
L 141.216933 258.001885 
L 141.250545 256.618955 
L 141.335808 256.618955 
L 141.335808 256.157979 
L 141.496051 256.157979 
L 141.499061 253.853097 
L 141.633931 253.853097 
L 141.633931 253.39212 
L 141.776637 253.39212 
L 141.859338 251.548214 
L 141.932845 251.548214 
L 141.95923 248.321379 
L 142.364546 248.321379 
L 142.395991 246.477474 
L 142.51553 246.477474 
L 142.51553 245.094544 
L 143.215824 245.094544 
L 143.215824 244.633568 
L 143.375745 244.633568 
L 143.477963 241.406733 
L 143.592903 241.406733 
L 143.680595 240.48478 
L 143.880868 240.48478 
L 143.990553 238.179898 
L 144.238668 238.179898 
L 144.238668 237.718921 
L 144.490842 237.718921 
L 144.574085 236.335992 
L 144.724413 236.335992 
L 144.821426 231.726227 
L 145.038338 231.726227 
L 145.140908 230.804274 
L 145.305689 230.804274 
L 145.305689 227.577439 
L 145.842271 227.577439 
L 145.842271 226.655487 
L 146.251133 226.655487 
L 146.312656 224.811581 
L 146.578984 224.811581 
L 146.578984 223.428651 
L 146.940225 223.428651 
L 146.940225 222.506699 
L 147.24886 222.506699 
L 147.24886 220.662793 
L 147.467188 220.662793 
L 147.571094 218.357911 
L 147.581662 218.357911 
L 147.581662 217.435958 
L 147.70587 217.435958 
L 147.70587 215.592052 
L 148.153097 215.592052 
L 148.153097 215.131075 
L 148.321903 215.131075 
L 148.321903 214.670099 
L 148.6705 214.670099 
L 148.6705 214.209123 
L 148.965448 214.209123 
L 148.965448 213.28717 
L 149.280327 213.28717 
L 149.280327 210.982287 
L 149.453644 210.982287 
L 149.453644 210.521311 
L 149.610216 210.521311 
L 149.692643 209.138382 
L 149.835948 209.138382 
L 149.835948 207.755452 
L 150.356213 207.755452 
L 150.44231 205.911547 
L 150.701568 205.911547 
L 150.745573 203.145688 
L 151.09706 203.145688 
L 151.09706 201.762759 
L 151.220627 201.762759 
L 151.220627 201.301782 
L 151.414477 201.301782 
L 151.414477 200.840806 
L 151.779199 200.840806 
L 151.779199 200.379829 
L 152.074625 200.379829 
L 152.163891 198.535924 
L 153.033511 198.535924 
L 153.140908 197.152994 
L 153.513099 197.152994 
L 153.513099 196.692018 
L 154.053811 196.692018 
L 154.053811 195.770065 
L 154.778065 195.770065 
L 154.778065 195.309088 
L 155.218764 195.309088 
L 155.218764 194.848112 
L 155.982313 194.848112 
L 155.982313 194.387136 
L 156.632447 194.387136 
L 156.632447 193.926159 
L 156.979757 193.926159 
L 157.073716 191.1603 
L 157.400381 191.1603 
L 157.400381 190.238348 
L 157.914419 190.238348 
L 157.973421 188.394442 
L 158.618332 188.394442 
L 158.618332 187.933465 
L 159.269956 187.933465 
L 159.269956 187.011512 
L 159.772386 187.011512 
L 159.772386 186.08956 
L 159.929783 186.08956 
L 159.929783 184.70663 
L 162.838146 184.70663 
L 162.847718 183.323701 
L 163.600094 183.323701 
L 163.600094 182.862724 
L 163.856332 182.862724 
L 163.856332 182.401748 
L 164.85017 182.401748 
L 164.85017 180.557842 
L 165.666092 180.557842 
L 165.666092 179.635889 
L 168.073632 179.635889 
L 168.073632 179.174913 
L 168.64637 179.174913 
L 168.64637 178.25296 
L 170.702734 178.25296 
L 170.740169 176.870031 
L 171.661442 176.870031 
L 171.661442 176.409054 
L 172.120719 176.409054 
L 172.120719 175.026125 
L 172.433026 175.026125 
L 172.433026 174.104172 
L 173.628476 174.104172 
L 173.628476 173.182219 
L 173.869011 173.182219 
L 173.869011 171.79929 
L 176.197262 171.79929 
L 176.197262 171.338313 
L 177.279711 171.338313 
L 177.279711 170.416361 
L 179.112417 170.416361 
L 179.112417 169.955384 
L 179.287299 169.955384 
L 179.287299 169.033431 
L 180.493441 169.033431 
L 180.493441 167.650502 
L 181.746586 167.650502 
L 181.746586 166.728549 
L 182.510174 166.728549 
L 182.523487 164.423667 
L 183.682847 164.423667 
L 183.682847 163.501714 
L 185.87342 163.501714 
L 185.87342 162.118785 
L 186.47676 162.118785 
L 186.47676 161.657808 
L 186.991581 161.657808 
L 186.991581 160.274879 
L 189.706413 160.274879 
L 189.706413 159.813902 
L 190.709972 159.813902 
L 190.709972 159.352926 
L 190.951168 159.352926 
L 190.951168 157.50902 
L 192.529799 157.50902 
L 192.529799 157.048044 
L 193.912871 157.048044 
L 193.912871 156.587067 
L 195.158302 156.587067 
L 195.158302 155.665114 
L 195.379546 155.665114 
L 195.379546 154.743161 
L 195.730889 154.743161 
L 195.730889 153.821209 
L 197.306951 153.821209 
L 197.306951 153.360232 
L 199.084655 153.360232 
L 199.084655 152.438279 
L 199.451393 152.438279 
L 199.451393 151.977303 
L 203.560709 151.977303 
L 203.560709 151.516326 
L 203.712024 151.516326 
L 203.712024 151.05535 
L 208.177177 151.05535 
L 208.177177 150.594374 
L 209.228933 150.594374 
L 209.228933 149.211444 
L 213.585612 149.211444 
L 213.585612 148.289491 
L 214.539564 148.289491 
L 214.539564 146.906562 
L 215.228651 146.906562 
L 215.228651 146.445586 
L 215.683181 146.445586 
L 215.683181 145.984609 
L 216.522567 145.984609 
L 216.522567 145.523633 
L 216.817177 145.523633 
L 216.817177 144.60168 
L 217.198252 144.60168 
L 217.198252 143.21875 
L 217.620061 143.21875 
L 217.620061 142.757774 
L 217.852706 142.757774 
L 217.852706 140.913868 
L 222.171561 140.913868 
L 222.171561 140.452892 
L 222.540393 140.452892 
L 222.540393 139.991915 
L 227.530132 139.991915 
L 227.530132 139.530939 
L 228.922615 139.530939 
L 228.922615 139.069962 
L 231.028388 139.069962 
L 231.028388 138.14801 
L 231.432178 138.14801 
L 231.432178 137.687033 
L 235.316926 137.687033 
L 235.316926 137.226057 
L 237.653804 137.226057 
L 237.653804 136.76508 
L 245.867907 136.76508 
L 245.867907 134.921174 
L 246.556881 134.921174 
L 246.556881 134.460198 
L 254.25751 134.460198 
L 254.33239 133.538245 
L 254.394026 133.538245 
L 254.431179 131.694339 
L 254.57032 131.694339 
L 254.57032 131.233363 
L 254.764091 131.233363 
L 254.764091 130.772386 
L 254.897925 130.772386 
L 254.897925 130.31141 
L 255.089494 130.31141 
L 255.089494 129.850434 
L 255.749848 129.850434 
L 255.749848 129.389457 
L 255.921249 129.389457 
L 255.927864 128.467504 
L 256.053702 128.467504 
L 256.162468 127.545551 
L 258.175881 127.545551 
L 258.175881 127.084575 
L 262.457969 127.084575 
L 262.457969 126.623598 
L 266.190855 126.623598 
L 266.240658 125.240669 
L 266.31084 125.240669 
L 266.31084 124.779693 
L 266.57129 124.779693 
L 266.57129 124.318716 
L 267.997687 124.318716 
L 267.997687 123.85774 
L 268.227305 123.85774 
L 268.227305 123.396763 
L 269.133114 123.396763 
L 269.133114 122.935787 
L 270.744626 122.935787 
L 270.744626 122.013834 
L 273.165294 122.013834 
L 273.224707 120.169928 
L 273.286643 120.169928 
L 273.336188 119.247975 
L 274.371441 119.247975 
L 274.371441 118.786999 
L 275.163297 118.786999 
L 275.163297 118.326023 
L 276.313864 118.326023 
L 276.313864 117.40407 
L 278.107855 117.40407 
L 278.143101 116.02114 
L 280.514404 116.02114 
L 280.514404 115.099187 
L 282.000843 115.099187 
L 282.000843 114.638211 
L 283.887996 114.638211 
L 283.887996 114.177235 
L 285.08788 114.177235 
L 285.143913 112.794305 
L 285.67288 112.794305 
L 285.67288 112.333329 
L 286.087979 112.333329 
L 286.087979 111.872352 
L 286.707289 111.872352 
L 286.707289 111.411376 
L 287.757781 111.411376 
L 287.779164 110.489423 
L 290.016788 110.489423 
L 290.016788 110.028447 
L 292.435697 110.028447 
L 292.435697 109.56747 
L 294.459446 109.56747 
L 294.459446 109.106494 
L 296.39156 109.106494 
L 296.39156 108.645517 
L 297.812356 108.645517 
L 297.812356 107.723564 
L 304.505919 107.723564 
L 304.505919 107.262588 
L 305.40614 107.262588 
L 305.40614 106.801611 
L 311.29101 106.801611 
L 311.29101 106.340635 
L 311.902995 106.340635 
L 311.902995 105.879659 
L 333.429677 105.879659 
L 333.429677 105.879659 
" style="fill:none;stroke:#999999;stroke-linecap:square;stroke-width:1.5;"/>
   </g>
   <g id="line2d_48"/>
   <g id="line2d_49">
    <path d="M 0 0 
" style="fill:none;stroke:#999999;stroke-linecap:square;stroke-width:1.5;"/>
   </g>
   <g id="line2d_50">
    <path clip-path="url(#pd78fae3d72)" d="M 254.198341 134.460198 
" style="fill:none;stroke:#999999;stroke-linecap:square;stroke-width:1.5;"/>
    <g clip-path="url(#pd78fae3d72)">
     <use style="fill:#999999;stroke:#999999;stroke-width:3;" x="254.198341" xlink:href="#mee13a66e96" y="134.460198"/>
    </g>
   </g>
   <g id="line2d_51">
    <g>
     <use style="fill:#999999;stroke:#999999;" x="316.3288" xlink:href="#mece7fda803" y="216.514005"/>
     <use style="fill:#999999;stroke:#999999;" x="316.3288" xlink:href="#mece7fda803" y="216.514005"/>
    </g>
   </g>
   <g id="line2d_52">
    <path d="M 170.150581 294.88 
L 170.150581 293.958047 
L 171.926265 293.958047 
L 171.926265 293.036094 
L 172.492231 293.036094 
L 172.492231 292.114141 
L 172.806706 292.114141 
L 172.806706 291.653165 
L 173.194866 291.653165 
L 173.194866 291.192188 
L 174.204525 291.192188 
L 174.204525 290.731212 
L 174.538031 290.731212 
L 174.538031 289.809259 
L 175.193472 289.809259 
L 175.193472 289.348283 
L 175.906503 289.348283 
L 175.906503 288.887306 
L 176.544126 288.887306 
L 176.544126 287.965353 
L 177.654258 287.965353 
L 177.654258 287.504377 
L 254.349427 287.504377 
L 254.403226 283.816565 
L 266.178258 283.816565 
L 266.226595 278.745825 
L 273.143114 278.745825 
L 273.168388 271.831178 
L 278.087249 271.831178 
L 278.113502 269.065319 
L 281.910293 269.065319 
L 281.939847 265.377508 
L 285.051176 265.377508 
L 285.068119 263.072625 
L 287.696036 263.072625 
L 287.714154 258.923837 
L 289.991106 258.923837 
L 290.006962 254.314073 
L 292.013406 254.314073 
L 292.023634 250.626262 
L 293.824909 250.626262 
L 293.839701 246.93845 
L 295.463718 246.93845 
L 295.470946 244.172591 
L 296.959911 244.172591 
L 296.972241 241.867709 
L 298.336337 241.867709 
L 298.347719 239.562827 
L 299.614726 239.562827 
L 299.617689 237.257945 
L 300.799917 237.257945 
L 300.802553 234.953062 
L 301.910061 234.953062 
L 301.91324 231.726227 
L 302.951049 231.726227 
L 302.955521 229.882322 
L 303.93508 229.882322 
L 303.936896 227.577439 
L 304.867606 227.577439 
L 304.867868 226.655487 
L 305.744967 226.655487 
L 305.749572 225.733534 
L 306.588758 225.733534 
L 306.588758 225.272557 
L 307.386213 225.272557 
L 307.388457 223.428651 
L 308.882802 223.428651 
L 308.887044 221.584746 
L 310.910409 221.584746 
L 310.910409 221.123769 
L 311.53447 221.123769 
L 311.53447 220.662793 
L 312.137356 220.662793 
L 312.137356 220.201816 
L 312.721301 220.201816 
L 312.721301 219.74084 
L 313.285258 219.74084 
L 313.285717 218.818887 
L 313.832152 218.818887 
L 313.832152 218.357911 
L 314.359887 218.357911 
L 314.359887 217.896934 
L 314.874821 217.896934 
L 314.874821 217.435958 
L 315.857895 217.435958 
L 315.857895 216.974981 
L 316.3288 216.974981 
L 316.3288 216.514005 
L 333.429677 216.514005 
L 333.429677 216.514005 
" style="fill:none;stroke:#999999;stroke-linecap:square;stroke-width:1.5;"/>
   </g>
   <g id="line2d_53"/>
   <g id="line2d_54">
    <path d="M 0 0 
" style="fill:none;stroke:#999999;stroke-linecap:square;stroke-width:1.5;"/>
   </g>
   <g id="line2d_55">
    <path clip-path="url(#pd78fae3d72)" d="M 254.198345 287.504377 
" style="fill:none;stroke:#999999;stroke-linecap:square;stroke-width:1.5;"/>
    <g clip-path="url(#pd78fae3d72)">
     <use style="fill:#999999;stroke:#999999;stroke-width:3;" x="254.198345" xlink:href="#mee13a66e96" y="287.504377"/>
    </g>
   </g>
   <g id="line2d_56">
    <g>
     <use style="fill:#999999;stroke:#999999;" x="306.003981" xlink:href="#mece7fda803" y="216.514005"/>
     <use style="fill:#999999;stroke:#999999;" x="306.003981" xlink:href="#mece7fda803" y="216.514005"/>
    </g>
   </g>
   <g id="line2d_57">
    <path d="M 142.373128 294.88 
L 142.373128 294.419024 
L 142.830296 294.419024 
L 142.830296 293.497071 
L 143.286481 293.497071 
L 143.286481 292.575118 
L 143.820505 292.575118 
L 143.820505 292.114141 
L 144.140883 292.114141 
L 144.140883 291.192188 
L 144.45287 291.192188 
L 144.45287 290.731212 
L 144.853643 290.731212 
L 144.893211 289.809259 
L 145.109226 289.809259 
L 145.109226 288.42633 
L 145.312922 288.42633 
L 145.409079 285.660471 
L 145.566573 285.660471 
L 145.566573 285.199495 
L 145.937848 285.199495 
L 145.937848 283.816565 
L 146.145806 283.816565 
L 146.145806 283.355589 
L 146.271665 283.355589 
L 146.362624 281.97266 
L 146.410186 281.97266 
L 146.412447 280.128754 
L 146.852277 280.128754 
L 146.93145 277.823872 
L 147.040813 277.823872 
L 147.040813 277.362895 
L 147.218676 277.362895 
L 147.218676 275.979966 
L 147.528759 275.979966 
L 147.535116 274.597037 
L 147.822939 274.597037 
L 147.822939 274.13606 
L 148.034145 274.13606 
L 148.067042 272.753131 
L 148.75557 272.753131 
L 148.75557 271.831178 
L 149.054895 271.831178 
L 149.054895 271.370201 
L 149.299458 271.370201 
L 149.299458 270.909225 
L 149.713189 270.909225 
L 149.776538 269.526296 
L 150.088005 269.526296 
L 150.088005 268.143366 
L 150.222632 268.143366 
L 150.222632 267.68239 
L 150.593723 267.68239 
L 150.600815 266.760437 
L 150.740298 266.760437 
L 150.740298 266.299461 
L 150.979538 266.299461 
L 151.003799 263.072625 
L 151.254794 263.072625 
L 151.254794 262.611649 
L 151.45501 262.611649 
L 151.45501 261.22872 
L 151.7195 261.22872 
L 151.7195 260.767743 
L 152.419378 260.767743 
L 152.491002 259.84579 
L 152.592357 259.84579 
L 152.592357 258.923837 
L 152.70724 258.923837 
L 152.70724 257.540908 
L 153.268905 257.540908 
L 153.312874 255.236026 
L 153.53703 255.236026 
L 153.53703 254.314073 
L 154.062512 254.314073 
L 154.062512 253.853097 
L 154.44387 253.853097 
L 154.44387 253.39212 
L 155.233668 253.39212 
L 155.233668 252.009191 
L 156.001751 252.009191 
L 156.001751 251.548214 
L 156.31363 251.548214 
L 156.31363 251.087238 
L 156.950366 251.087238 
L 156.950366 250.626262 
L 157.140517 250.626262 
L 157.149 247.399426 
L 157.262516 247.399426 
L 157.262516 246.93845 
L 157.799305 246.93845 
L 157.799305 245.555521 
L 158.412417 245.555521 
L 158.412417 244.633568 
L 159.372475 244.633568 
L 159.372475 244.172591 
L 159.900897 244.172591 
L 159.900897 242.789662 
L 160.529436 242.789662 
L 160.529436 242.328686 
L 161.46327 242.328686 
L 161.46327 241.867709 
L 162.096411 241.867709 
L 162.096411 241.406733 
L 162.495268 241.406733 
L 162.495268 240.023803 
L 163.075017 240.023803 
L 163.075017 239.562827 
L 163.860434 239.562827 
L 163.860434 238.179898 
L 164.603702 238.179898 
L 164.603702 237.257945 
L 165.365859 237.257945 
L 165.365859 236.796968 
L 168.494157 236.796968 
L 168.494157 236.335992 
L 171.620216 236.335992 
L 171.620216 235.875015 
L 173.071893 235.875015 
L 173.071893 235.414039 
L 173.401499 235.414039 
L 173.401499 234.03111 
L 174.406114 234.03111 
L 174.406114 233.109157 
L 180.309343 233.109157 
L 180.309343 232.64818 
L 184.601017 232.64818 
L 184.601017 230.804274 
L 191.830316 230.804274 
L 191.830316 230.343298 
L 201.655914 230.343298 
L 201.655914 228.960369 
L 246.359359 228.960369 
L 246.359359 228.499392 
L 254.991393 228.499392 
L 254.991393 227.577439 
L 258.841538 227.577439 
L 258.841538 226.655487 
L 262.647003 226.655487 
L 262.647003 226.19451 
L 266.524943 226.19451 
L 266.524943 225.733534 
L 270.861652 225.733534 
L 270.861652 225.272557 
L 273.368254 225.272557 
L 273.368254 224.811581 
L 274.790654 224.811581 
L 274.790654 223.889628 
L 276.398609 223.889628 
L 276.398609 223.428651 
L 280.580827 223.428651 
L 280.580827 222.506699 
L 282.922811 222.506699 
L 282.922811 221.584746 
L 283.942611 221.584746 
L 283.942611 221.123769 
L 286.753661 221.123769 
L 286.753661 220.662793 
L 290.628546 220.662793 
L 290.628546 220.201816 
L 293.894984 220.201816 
L 293.894984 219.74084 
L 294.871702 219.74084 
L 294.871702 219.279863 
L 295.527437 219.279863 
L 295.527437 218.818887 
L 295.931671 218.818887 
L 295.931671 218.357911 
L 297.836692 218.357911 
L 297.836692 217.896934 
L 298.733155 217.896934 
L 298.733155 217.435958 
L 304.899687 217.435958 
L 304.899687 216.974981 
L 306.003981 216.974981 
L 306.003981 216.514005 
L 333.429677 216.514005 
L 333.429677 216.514005 
" style="fill:none;stroke:#999999;stroke-linecap:square;stroke-width:1.5;"/>
   </g>
   <g id="line2d_58"/>
   <g id="line2d_59">
    <path d="M 0 0 
" style="fill:none;stroke:#999999;stroke-linecap:square;stroke-width:1.5;"/>
   </g>
   <g id="line2d_60">
    <path clip-path="url(#pd78fae3d72)" d="M 254.198345 228.499392 
" style="fill:none;stroke:#999999;stroke-linecap:square;stroke-width:1.5;"/>
    <g clip-path="url(#pd78fae3d72)">
     <use style="fill:#999999;stroke:#999999;stroke-width:3;" x="254.198345" xlink:href="#mee13a66e96" y="228.499392"/>
    </g>
   </g>
   <g id="line2d_61">
    <path d="M 333.429677 294.88 
L 333.429677 27.513663 
" style="fill:none;stroke:#000000;stroke-linecap:square;stroke-width:1.5;"/>
   </g>
   <g id="patch_3">
    <path d="M 56.12 294.88 
L 56.12 24.84 
" style="fill:none;stroke:#000000;stroke-linecap:square;stroke-linejoin:miter;stroke-width:0.8;"/>
   </g>
   <g id="patch_4">
    <path d="M 399.984 294.88 
L 399.984 24.84 
" style="fill:none;stroke:#000000;stroke-linecap:square;stroke-linejoin:miter;stroke-width:0.8;"/>
   </g>
   <g id="patch_5">
    <path d="M 56.12 294.88 
L 399.984 294.88 
" style="fill:none;stroke:#000000;stroke-linecap:square;stroke-linejoin:miter;stroke-width:0.8;"/>
   </g>
   <g id="patch_6">
    <path d="M 56.12 24.84 
L 399.984 24.84 
" style="fill:none;stroke:#000000;stroke-linecap:square;stroke-linejoin:miter;stroke-width:0.8;"/>
   </g>
   <g id="text_14">
    <!-- best 2016 -->
    <defs>
     <path d="M 48.6875 27.296875 
Q 48.6875 37.203125 44.609375 42.84375 
Q 40.53125 48.484375 33.40625 48.484375 
Q 26.265625 48.484375 22.1875 42.84375 
Q 18.109375 37.203125 18.109375 27.296875 
Q 18.109375 17.390625 22.1875 11.75 
Q 26.265625 6.109375 33.40625 6.109375 
Q 40.53125 6.109375 44.609375 11.75 
Q 48.6875 17.390625 48.6875 27.296875 
z
M 18.109375 46.390625 
Q 20.953125 51.265625 25.265625 53.625 
Q 29.59375 56 35.59375 56 
Q 45.5625 56 51.78125 48.09375 
Q 58.015625 40.1875 58.015625 27.296875 
Q 58.015625 14.40625 51.78125 6.484375 
Q 45.5625 -1.421875 35.59375 -1.421875 
Q 29.59375 -1.421875 25.265625 0.953125 
Q 20.953125 3.328125 18.109375 8.203125 
L 18.109375 0 
L 9.078125 0 
L 9.078125 75.984375 
L 18.109375 75.984375 
z
" id="DejaVuSans-62"/>
    </defs>
    <g transform="translate(369.479935 294.223611)scale(0.17 -0.17)">
     <use xlink:href="#DejaVuSans-62"/>
     <use x="63.476562" xlink:href="#DejaVuSans-65"/>
     <use x="125" xlink:href="#DejaVuSans-73"/>
     <use x="177.099609" xlink:href="#DejaVuSans-74"/>
     <use x="216.308594" xlink:href="#DejaVuSans-20"/>
     <use x="248.095703" xlink:href="#DejaVuSans-32"/>
     <use x="311.71875" xlink:href="#DejaVuSans-30"/>
     <use x="375.341797" xlink:href="#DejaVuSans-31"/>
     <use x="438.964844" xlink:href="#DejaVuSans-36"/>
    </g>
   </g>
   <g id="text_15">
    <!-- bbob-biobj f28, 40-D -->
    <defs>
     <path d="M 9.421875 54.6875 
L 18.40625 54.6875 
L 18.40625 -0.984375 
Q 18.40625 -11.421875 14.421875 -16.109375 
Q 10.453125 -20.796875 1.609375 -20.796875 
L -1.8125 -20.796875 
L -1.8125 -13.1875 
L 0.59375 -13.1875 
Q 5.71875 -13.1875 7.5625 -10.8125 
Q 9.421875 -8.453125 9.421875 -0.984375 
z
M 9.421875 75.984375 
L 18.40625 75.984375 
L 18.40625 64.59375 
L 9.421875 64.59375 
z
" id="DejaVuSans-6a"/>
     <path d="M 19.671875 64.796875 
L 19.671875 8.109375 
L 31.59375 8.109375 
Q 46.6875 8.109375 53.6875 14.9375 
Q 60.6875 21.78125 60.6875 36.53125 
Q 60.6875 51.171875 53.6875 57.984375 
Q 46.6875 64.796875 31.59375 64.796875 
z
M 9.8125 72.90625 
L 30.078125 72.90625 
Q 51.265625 72.90625 61.171875 64.09375 
Q 71.09375 55.28125 71.09375 36.53125 
Q 71.09375 17.671875 61.125 8.828125 
Q 51.171875 0 30.078125 0 
L 9.8125 0 
z
" id="DejaVuSans-44"/>
    </defs>
    <g transform="translate(59.55864 35.290806)scale(0.102 -0.102)">
     <use xlink:href="#DejaVuSans-62"/>
     <use x="63.476562" xlink:href="#DejaVuSans-62"/>
     <use x="126.953125" xlink:href="#DejaVuSans-6f"/>
     <use x="188.134766" xlink:href="#DejaVuSans-62"/>
     <use x="251.611328" xlink:href="#DejaVuSans-2d"/>
     <use x="287.695312" xlink:href="#DejaVuSans-62"/>
     <use x="351.171875" xlink:href="#DejaVuSans-69"/>
     <use x="378.955078" xlink:href="#DejaVuSans-6f"/>
     <use x="440.136719" xlink:href="#DejaVuSans-62"/>
     <use x="503.613281" xlink:href="#DejaVuSans-6a"/>
     <use x="531.396484" xlink:href="#DejaVuSans-20"/>
     <use x="563.183594" xlink:href="#DejaVuSans-66"/>
     <use x="598.388672" xlink:href="#DejaVuSans-32"/>
     <use x="662.011719" xlink:href="#DejaVuSans-38"/>
     <use x="725.634766" xlink:href="#DejaVuSans-2c"/>
     <use x="757.421875" xlink:href="#DejaVuSans-20"/>
     <use x="789.208984" xlink:href="#DejaVuSans-34"/>
     <use x="852.832031" xlink:href="#DejaVuSans-30"/>
     <use x="916.455078" xlink:href="#DejaVuSans-2d"/>
     <use x="952.539062" xlink:href="#DejaVuSans-44"/>
    </g>
    <!-- 58 targets: 1..-1.0e-4 -->
    <defs>
     <path d="M 10.796875 72.90625 
L 49.515625 72.90625 
L 49.515625 64.59375 
L 19.828125 64.59375 
L 19.828125 46.734375 
Q 21.96875 47.46875 24.109375 47.828125 
Q 26.265625 48.1875 28.421875 48.1875 
Q 40.625 48.1875 47.75 41.5 
Q 54.890625 34.8125 54.890625 23.390625 
Q 54.890625 11.625 47.5625 5.09375 
Q 40.234375 -1.421875 26.90625 -1.421875 
Q 22.3125 -1.421875 17.546875 -0.640625 
Q 12.796875 0.140625 7.71875 1.703125 
L 7.71875 11.625 
Q 12.109375 9.234375 16.796875 8.0625 
Q 21.484375 6.890625 26.703125 6.890625 
Q 35.15625 6.890625 40.078125 11.328125 
Q 45.015625 15.765625 45.015625 23.390625 
Q 45.015625 31 40.078125 35.4375 
Q 35.15625 39.890625 26.703125 39.890625 
Q 22.75 39.890625 18.8125 39.015625 
Q 14.890625 38.140625 10.796875 36.28125 
z
" id="DejaVuSans-35"/>
     <path d="M 11.71875 12.40625 
L 22.015625 12.40625 
L 22.015625 0 
L 11.71875 0 
z
M 11.71875 51.703125 
L 22.015625 51.703125 
L 22.015625 39.3125 
L 11.71875 39.3125 
z
" id="DejaVuSans-3a"/>
    </defs>
    <g transform="translate(59.55864 46.712575)scale(0.102 -0.102)">
     <use xlink:href="#DejaVuSans-35"/>
     <use x="63.623047" xlink:href="#DejaVuSans-38"/>
     <use x="127.246094" xlink:href="#DejaVuSans-20"/>
     <use x="159.033203" xlink:href="#DejaVuSans-74"/>
     <use x="198.242188" xlink:href="#DejaVuSans-61"/>
     <use x="259.521484" xlink:href="#DejaVuSans-72"/>
     <use x="300.619141" xlink:href="#DejaVuSans-67"/>
     <use x="364.095703" xlink:href="#DejaVuSans-65"/>
     <use x="425.619141" xlink:href="#DejaVuSans-74"/>
     <use x="464.828125" xlink:href="#DejaVuSans-73"/>
     <use x="516.927734" xlink:href="#DejaVuSans-3a"/>
     <use x="550.619141" xlink:href="#DejaVuSans-20"/>
     <use x="582.40625" xlink:href="#DejaVuSans-31"/>
     <use x="646.029297" xlink:href="#DejaVuSans-2e"/>
     <use x="677.816406" xlink:href="#DejaVuSans-2e"/>
     <use x="709.603516" xlink:href="#DejaVuSans-2d"/>
     <use x="745.6875" xlink:href="#DejaVuSans-31"/>
     <use x="809.310547" xlink:href="#DejaVuSans-2e"/>
     <use x="841.097656" xlink:href="#DejaVuSans-30"/>
     <use x="904.720703" xlink:href="#DejaVuSans-65"/>
     <use x="966.244141" xlink:href="#DejaVuSans-2d"/>
     <use x="1002.328125" xlink:href="#DejaVuSans-34"/>
    </g>
    <!-- 10 instances -->
    <g transform="translate(59.55864 58.134344)scale(0.102 -0.102)">
     <use xlink:href="#DejaVuSans-31"/>
     <use x="63.623047" xlink:href="#DejaVuSans-30"/>
     <use x="127.246094" xlink:href="#DejaVuSans-20"/>
     <use x="159.033203" xlink:href="#DejaVuSans-69"/>
     <use x="186.816406" xlink:href="#DejaVuSans-6e"/>
     <use x="250.195312" xlink:href="#DejaVuSans-73"/>
     <use x="302.294922" xlink:href="#DejaVuSans-74"/>
     <use x="341.503906" xlink:href="#DejaVuSans-61"/>
     <use x="402.783203" xlink:href="#DejaVuSans-6e"/>
     <use x="466.162109" xlink:href="#DejaVuSans-63"/>
     <use x="521.142578" xlink:href="#DejaVuSans-65"/>
     <use x="582.666016" xlink:href="#DejaVuSans-73"/>
    </g>
   </g>
   <g id="text_16">
    <!-- v2.0.778, hv-hash=ff0e71e8cd978373 -->
    <defs>
     <path d="M 8.203125 72.90625 
L 55.078125 72.90625 
L 55.078125 68.703125 
L 28.609375 0 
L 18.3125 0 
L 43.21875 64.59375 
L 8.203125 64.59375 
z
" id="DejaVuSans-37"/>
     <path d="M 54.890625 33.015625 
L 54.890625 0 
L 45.90625 0 
L 45.90625 32.71875 
Q 45.90625 40.484375 42.875 44.328125 
Q 39.84375 48.1875 33.796875 48.1875 
Q 26.515625 48.1875 22.3125 43.546875 
Q 18.109375 38.921875 18.109375 30.90625 
L 18.109375 0 
L 9.078125 0 
L 9.078125 75.984375 
L 18.109375 75.984375 
L 18.109375 46.1875 
Q 21.34375 51.125 25.703125 53.5625 
Q 30.078125 56 35.796875 56 
Q 45.21875 56 50.046875 50.171875 
Q 54.890625 44.34375 54.890625 33.015625 
z
" id="DejaVuSans-68"/>
     <path d="M 10.59375 45.40625 
L 73.1875 45.40625 
L 73.1875 37.203125 
L 10.59375 37.203125 
z
M 10.59375 25.484375 
L 73.1875 25.484375 
L 73.1875 17.1875 
L 10.59375 17.1875 
z
" id="DejaVuSans-3d"/>
     <path d="M 10.984375 1.515625 
L 10.984375 10.5 
Q 14.703125 8.734375 18.5 7.8125 
Q 22.3125 6.890625 25.984375 6.890625 
Q 35.75 6.890625 40.890625 13.453125 
Q 46.046875 20.015625 46.78125 33.40625 
Q 43.953125 29.203125 39.59375 26.953125 
Q 35.25 24.703125 29.984375 24.703125 
Q 19.046875 24.703125 12.671875 31.3125 
Q 6.296875 37.9375 6.296875 49.421875 
Q 6.296875 60.640625 12.9375 67.421875 
Q 19.578125 74.21875 30.609375 74.21875 
Q 43.265625 74.21875 49.921875 64.515625 
Q 56.59375 54.828125 56.59375 36.375 
Q 56.59375 19.140625 48.40625 8.859375 
Q 40.234375 -1.421875 26.421875 -1.421875 
Q 22.703125 -1.421875 18.890625 -0.6875 
Q 15.09375 0.046875 10.984375 1.515625 
z
M 30.609375 32.421875 
Q 37.25 32.421875 41.125 36.953125 
Q 45.015625 41.5 45.015625 49.421875 
Q 45.015625 57.28125 41.125 61.84375 
Q 37.25 66.40625 30.609375 66.40625 
Q 23.96875 66.40625 20.09375 61.84375 
Q 16.21875 57.28125 16.21875 49.421875 
Q 16.21875 41.5 20.09375 36.953125 
Q 23.96875 32.421875 30.609375 32.421875 
z
" id="DejaVuSans-39"/>
     <path d="M 40.578125 39.3125 
Q 47.65625 37.796875 51.625 33 
Q 55.609375 28.21875 55.609375 21.1875 
Q 55.609375 10.40625 48.1875 4.484375 
Q 40.765625 -1.421875 27.09375 -1.421875 
Q 22.515625 -1.421875 17.65625 -0.515625 
Q 12.796875 0.390625 7.625 2.203125 
L 7.625 11.71875 
Q 11.71875 9.328125 16.59375 8.109375 
Q 21.484375 6.890625 26.8125 6.890625 
Q 36.078125 6.890625 40.9375 10.546875 
Q 45.796875 14.203125 45.796875 21.1875 
Q 45.796875 27.640625 41.28125 31.265625 
Q 36.765625 34.90625 28.71875 34.90625 
L 20.21875 34.90625 
L 20.21875 43.015625 
L 29.109375 43.015625 
Q 36.375 43.015625 40.234375 45.921875 
Q 44.09375 48.828125 44.09375 54.296875 
Q 44.09375 59.90625 40.109375 62.90625 
Q 36.140625 65.921875 28.71875 65.921875 
Q 24.65625 65.921875 20.015625 65.03125 
Q 15.375 64.15625 9.8125 62.3125 
L 9.8125 71.09375 
Q 15.4375 72.65625 20.34375 73.4375 
Q 25.25 74.21875 29.59375 74.21875 
Q 40.828125 74.21875 47.359375 69.109375 
Q 53.90625 64.015625 53.90625 55.328125 
Q 53.90625 49.265625 50.4375 45.09375 
Q 46.96875 40.921875 40.578125 39.3125 
z
" id="DejaVuSans-33"/>
    </defs>
    <g style="fill:#808080;" transform="translate(131.294188 290.099912)scale(0.1 -0.1)">
     <use xlink:href="#DejaVuSans-76"/>
     <use x="59.179688" xlink:href="#DejaVuSans-32"/>
     <use x="122.802734" xlink:href="#DejaVuSans-2e"/>
     <use x="154.589844" xlink:href="#DejaVuSans-30"/>
     <use x="218.212891" xlink:href="#DejaVuSans-2e"/>
     <use x="250" xlink:href="#DejaVuSans-37"/>
     <use x="313.623047" xlink:href="#DejaVuSans-37"/>
     <use x="377.246094" xlink:href="#DejaVuSans-38"/>
     <use x="440.869141" xlink:href="#DejaVuSans-2c"/>
     <use x="472.65625" xlink:href="#DejaVuSans-20"/>
     <use x="504.443359" xlink:href="#DejaVuSans-68"/>
     <use x="567.822266" xlink:href="#DejaVuSans-76"/>
     <use x="626.970703" xlink:href="#DejaVuSans-2d"/>
     <use x="663.054688" xlink:href="#DejaVuSans-68"/>
     <use x="726.433594" xlink:href="#DejaVuSans-61"/>
     <use x="787.712891" xlink:href="#DejaVuSans-73"/>
     <use x="839.8125" xlink:href="#DejaVuSans-68"/>
     <use x="903.191406" xlink:href="#DejaVuSans-3d"/>
     <use x="986.980469" xlink:href="#DejaVuSans-66"/>
     <use x="1022.185547" xlink:href="#DejaVuSans-66"/>
     <use x="1057.390625" xlink:href="#DejaVuSans-30"/>
     <use x="1121.013672" xlink:href="#DejaVuSans-65"/>
     <use x="1182.537109" xlink:href="#DejaVuSans-37"/>
     <use x="1246.160156" xlink:href="#DejaVuSans-31"/>
     <use x="1309.783203" xlink:href="#DejaVuSans-65"/>
     <use x="1371.306641" xlink:href="#DejaVuSans-38"/>
     <use x="1434.929688" xlink:href="#DejaVuSans-63"/>
     <use x="1489.910156" xlink:href="#DejaVuSans-64"/>
     <use x="1553.386719" xlink:href="#DejaVuSans-39"/>
     <use x="1617.009766" xlink:href="#DejaVuSans-37"/>
     <use x="1680.632812" xlink:href="#DejaVuSans-38"/>
     <use x="1744.255859" xlink:href="#DejaVuSans-33"/>
     <use x="1807.878906" xlink:href="#DejaVuSans-37"/>
     <use x="1871.501953" xlink:href="#DejaVuSans-33"/>
    </g>
   </g>
   <g id="text_17">
    <!-- 28 Rosenbrock/Rosenbrock -->
    <defs>
     <path d="M 44.390625 34.1875 
Q 47.5625 33.109375 50.5625 29.59375 
Q 53.5625 26.078125 56.59375 19.921875 
L 66.609375 0 
L 56 0 
L 46.6875 18.703125 
Q 43.0625 26.03125 39.671875 28.421875 
Q 36.28125 30.8125 30.421875 30.8125 
L 19.671875 30.8125 
L 19.671875 0 
L 9.8125 0 
L 9.8125 72.90625 
L 32.078125 72.90625 
Q 44.578125 72.90625 50.734375 67.671875 
Q 56.890625 62.453125 56.890625 51.90625 
Q 56.890625 45.015625 53.6875 40.46875 
Q 50.484375 35.9375 44.390625 34.1875 
z
M 19.671875 64.796875 
L 19.671875 38.921875 
L 32.078125 38.921875 
Q 39.203125 38.921875 42.84375 42.21875 
Q 46.484375 45.515625 46.484375 51.90625 
Q 46.484375 58.296875 42.84375 61.546875 
Q 39.203125 64.796875 32.078125 64.796875 
z
" id="DejaVuSans-52"/>
     <path d="M 9.078125 75.984375 
L 18.109375 75.984375 
L 18.109375 31.109375 
L 44.921875 54.6875 
L 56.390625 54.6875 
L 27.390625 29.109375 
L 57.625 0 
L 45.90625 0 
L 18.109375 26.703125 
L 18.109375 0 
L 9.078125 0 
z
" id="DejaVuSans-6b"/>
    </defs>
    <g transform="translate(91.530125 18.84)scale(0.2 -0.2)">
     <use xlink:href="#DejaVuSans-32"/>
     <use x="63.623047" xlink:href="#DejaVuSans-38"/>
     <use x="127.246094" xlink:href="#DejaVuSans-20"/>
     <use x="159.033203" xlink:href="#DejaVuSans-52"/>
     <use x="228.453125" xlink:href="#DejaVuSans-6f"/>
     <use x="289.634766" xlink:href="#DejaVuSans-73"/>
     <use x="341.734375" xlink:href="#DejaVuSans-65"/>
     <use x="403.257812" xlink:href="#DejaVuSans-6e"/>
     <use x="466.636719" xlink:href="#DejaVuSans-62"/>
     <use x="530.113281" xlink:href="#DejaVuSans-72"/>
     <use x="571.195312" xlink:href="#DejaVuSans-6f"/>
     <use x="632.376953" xlink:href="#DejaVuSans-63"/>
     <use x="687.357422" xlink:href="#DejaVuSans-6b"/>
     <use x="745.267578" xlink:href="#DejaVuSans-2f"/>
     <use x="778.958984" xlink:href="#DejaVuSans-52"/>
     <use x="848.378906" xlink:href="#DejaVuSans-6f"/>
     <use x="909.560547" xlink:href="#DejaVuSans-73"/>
     <use x="961.660156" xlink:href="#DejaVuSans-65"/>
     <use x="1023.183594" xlink:href="#DejaVuSans-6e"/>
     <use x="1086.5625" xlink:href="#DejaVuSans-62"/>
     <use x="1150.039062" xlink:href="#DejaVuSans-72"/>
     <use x="1191.121094" xlink:href="#DejaVuSans-6f"/>
     <use x="1252.302734" xlink:href="#DejaVuSans-63"/>
     <use x="1307.283203" xlink:href="#DejaVuSans-6b"/>
    </g>
   </g>
  </g>
 </g>
 <defs>
  <clipPath id="pd78fae3d72">
   <rect height="270.04" width="343.864" x="56.12" y="24.84"/>
  </clipPath>
 </defs>
</svg>
