<?xml version="1.0" encoding="utf-8" standalone="no"?>
<!DOCTYPE svg PUBLIC "-//W3C//DTD SVG 1.1//EN"
  "http://www.w3.org/Graphics/SVG/1.1/DTD/svg11.dtd">
<!-- Created with matplotlib (http://matplotlib.org/) -->
<svg height="345pt" version="1.1" viewBox="0 0 460 345" width="460pt" xmlns="http://www.w3.org/2000/svg" xmlns:xlink="http://www.w3.org/1999/xlink">
 <defs>
  <style type="text/css">
*{stroke-linecap:butt;stroke-linejoin:round;}
  </style>
 </defs>
 <g id="figure_1">
  <g id="patch_1">
   <path d="M 0 345.6 
L 460.8 345.6 
L 460.8 0 
L 0 0 
z
" style="fill:#ffffff;"/>
  </g>
  <g id="axes_1">
   <g id="patch_2">
    <path d="M 56.12 294.88 
L 399.984 294.88 
L 399.984 24.84 
L 56.12 24.84 
z
" style="fill:#ffffff;"/>
   </g>
   <g id="line2d_1">
    <path d="M 157.51107 294.88 
L 157.51107 289.637523 
L 164.055367 289.637523 
L 164.055367 284.395046 
L 167.174063 284.395046 
L 167.174063 279.152568 
L 169.879281 279.152568 
L 169.879281 273.910091 
L 172.552717 273.910091 
L 172.552717 268.667614 
L 174.611957 268.667614 
L 174.611957 263.425137 
L 175.201536 263.425137 
L 175.201536 258.18266 
L 175.962614 258.18266 
L 175.962614 252.940182 
L 176.651322 252.940182 
L 176.651322 247.697705 
L 177.305261 247.697705 
L 177.305261 242.455228 
L 178.063631 242.455228 
L 178.063631 237.212751 
L 178.976332 237.212751 
L 178.976332 231.970274 
L 180.066104 231.970274 
L 180.066104 226.727797 
L 183.854079 226.727797 
L 183.854079 221.485319 
L 186.761903 221.485319 
L 186.761903 216.242842 
L 187.282898 216.242842 
L 187.282898 211.000365 
L 187.898264 211.000365 
L 187.898264 205.757888 
L 188.380906 205.757888 
L 188.380906 200.515411 
L 188.786153 200.515411 
L 188.786153 195.272933 
L 189.389788 195.272933 
L 189.389788 190.030456 
L 190.073894 190.030456 
L 190.073894 184.787979 
L 191.026086 184.787979 
L 191.026086 179.545502 
L 191.388741 179.545502 
L 191.388741 174.303025 
L 191.823697 174.303025 
L 191.823697 169.060547 
L 191.979772 169.060547 
L 191.979772 163.81807 
L 192.161698 163.81807 
L 192.161698 158.575593 
L 192.337959 158.575593 
L 192.337959 153.333116 
L 192.597699 153.333116 
L 192.597699 148.090639 
L 192.928239 148.090639 
L 192.928239 142.848162 
L 193.16958 142.848162 
L 193.16958 137.605684 
L 193.389753 137.605684 
L 193.389753 132.363207 
L 193.677455 132.363207 
L 193.677455 127.12073 
L 193.910725 127.12073 
L 193.910725 121.878253 
L 194.121531 121.878253 
L 194.121531 116.635776 
L 194.31093 116.635776 
L 194.31093 111.393298 
L 194.502414 111.393298 
L 194.502414 106.150821 
L 194.661969 106.150821 
L 194.661969 100.908344 
L 194.795894 100.908344 
L 194.795894 95.665867 
L 194.93431 95.665867 
L 194.93431 90.42339 
L 195.041649 90.42339 
L 195.041649 85.180912 
L 195.146858 85.180912 
L 195.146858 79.938435 
L 195.220972 79.938435 
L 195.220972 74.695958 
L 195.284604 74.695958 
L 195.284604 69.453481 
L 195.343001 69.453481 
L 195.343001 64.211004 
L 195.394641 64.211004 
L 195.394641 58.968526 
L 195.452666 58.968526 
L 195.452666 53.726049 
L 195.545128 53.726049 
L 195.545128 48.483572 
L 195.634378 48.483572 
L 195.634378 43.241095 
L 195.682443 43.241095 
L 195.682443 37.998618 
L 195.728187 37.998618 
L 195.728187 32.756141 
L 195.855243 32.756141 
L 195.855243 27.513663 
L 333.429677 27.513663 
" style="fill:none;stroke:#f5deb3;stroke-linecap:square;stroke-width:6;"/>
   </g>
   <g id="line2d_2">
    <path d="M 0 0 
" style="fill:none;stroke:#f5deb3;stroke-linecap:square;stroke-width:6;"/>
    <defs>
     <path d="M -0 7.778175 
L 7.778175 0 
L 0 -7.778175 
L -7.778175 -0 
z
" id="meb7e442a6b" style="stroke:#f5deb3;stroke-linejoin:miter;stroke-width:1.5;"/>
    </defs>
    <g>
     <use style="fill:#f5deb3;stroke:#f5deb3;stroke-linejoin:miter;stroke-width:1.5;" x="0" xlink:href="#meb7e442a6b" y="0"/>
    </g>
   </g>
   <g id="line2d_3">
    <path d="M 333.429677 27.513663 
L 363.933742 289.532673 
" style="fill:none;stroke:#f5deb3;stroke-linecap:square;stroke-width:6;"/>
    <g>
     <use style="fill:#f5deb3;stroke:#f5deb3;stroke-linejoin:miter;stroke-width:1.5;" x="333.429677" xlink:href="#meb7e442a6b" y="27.513663"/>
     <use style="fill:#f5deb3;stroke:#f5deb3;stroke-linejoin:miter;stroke-width:1.5;" x="363.933742" xlink:href="#meb7e442a6b" y="289.532673"/>
    </g>
   </g>
   <g id="matplotlib.axis_1">
    <g id="xtick_1">
     <g id="line2d_4">
      <path clip-path="url(#p4c77b3096d)" d="M 56.12 294.88 
L 56.12 24.84 
" style="fill:none;stroke:#b0b0b0;stroke-linecap:square;stroke-width:0.8;"/>
     </g>
     <g id="line2d_5">
      <defs>
       <path d="M 0 0 
L 0 3.5 
" id="mf470c6e55d" style="stroke:#000000;stroke-width:0.8;"/>
      </defs>
      <g>
       <use style="stroke:#000000;stroke-width:0.8;" x="56.12" xlink:href="#mf470c6e55d" y="294.88"/>
      </g>
     </g>
     <g id="text_1">
      <!-- 0 -->
      <defs>
       <path d="M 31.78125 66.40625 
Q 24.171875 66.40625 20.328125 58.90625 
Q 16.5 51.421875 16.5 36.375 
Q 16.5 21.390625 20.328125 13.890625 
Q 24.171875 6.390625 31.78125 6.390625 
Q 39.453125 6.390625 43.28125 13.890625 
Q 47.125 21.390625 47.125 36.375 
Q 47.125 51.421875 43.28125 58.90625 
Q 39.453125 66.40625 31.78125 66.40625 
z
M 31.78125 74.21875 
Q 44.046875 74.21875 50.515625 64.515625 
Q 56.984375 54.828125 56.984375 36.375 
Q 56.984375 17.96875 50.515625 8.265625 
Q 44.046875 -1.421875 31.78125 -1.421875 
Q 19.53125 -1.421875 13.0625 8.265625 
Q 6.59375 17.96875 6.59375 36.375 
Q 6.59375 54.828125 13.0625 64.515625 
Q 19.53125 74.21875 31.78125 74.21875 
z
" id="DejaVuSans-30"/>
      </defs>
      <g transform="translate(49.7575 317.076875)scale(0.2 -0.2)">
       <use xlink:href="#DejaVuSans-30"/>
      </g>
     </g>
    </g>
    <g id="xtick_2">
     <g id="line2d_6">
      <path clip-path="url(#p4c77b3096d)" d="M 135.351336 294.88 
L 135.351336 24.84 
" style="fill:none;stroke:#b0b0b0;stroke-linecap:square;stroke-width:0.8;"/>
     </g>
     <g id="line2d_7">
      <g>
       <use style="stroke:#000000;stroke-width:0.8;" x="135.351336" xlink:href="#mf470c6e55d" y="294.88"/>
      </g>
     </g>
     <g id="text_2">
      <!-- 2 -->
      <defs>
       <path d="M 19.1875 8.296875 
L 53.609375 8.296875 
L 53.609375 0 
L 7.328125 0 
L 7.328125 8.296875 
Q 12.9375 14.109375 22.625 23.890625 
Q 32.328125 33.6875 34.8125 36.53125 
Q 39.546875 41.84375 41.421875 45.53125 
Q 43.3125 49.21875 43.3125 52.78125 
Q 43.3125 58.59375 39.234375 62.25 
Q 35.15625 65.921875 28.609375 65.921875 
Q 23.96875 65.921875 18.8125 64.3125 
Q 13.671875 62.703125 7.8125 59.421875 
L 7.8125 69.390625 
Q 13.765625 71.78125 18.9375 73 
Q 24.125 74.21875 28.421875 74.21875 
Q 39.75 74.21875 46.484375 68.546875 
Q 53.21875 62.890625 53.21875 53.421875 
Q 53.21875 48.921875 51.53125 44.890625 
Q 49.859375 40.875 45.40625 35.40625 
Q 44.1875 33.984375 37.640625 27.21875 
Q 31.109375 20.453125 19.1875 8.296875 
z
" id="DejaVuSans-32"/>
      </defs>
      <g transform="translate(128.988836 317.076875)scale(0.2 -0.2)">
       <use xlink:href="#DejaVuSans-32"/>
      </g>
     </g>
    </g>
    <g id="xtick_3">
     <g id="line2d_8">
      <path clip-path="url(#p4c77b3096d)" d="M 214.582673 294.88 
L 214.582673 24.84 
" style="fill:none;stroke:#b0b0b0;stroke-linecap:square;stroke-width:0.8;"/>
     </g>
     <g id="line2d_9">
      <g>
       <use style="stroke:#000000;stroke-width:0.8;" x="214.582673" xlink:href="#mf470c6e55d" y="294.88"/>
      </g>
     </g>
     <g id="text_3">
      <!-- 4 -->
      <defs>
       <path d="M 37.796875 64.3125 
L 12.890625 25.390625 
L 37.796875 25.390625 
z
M 35.203125 72.90625 
L 47.609375 72.90625 
L 47.609375 25.390625 
L 58.015625 25.390625 
L 58.015625 17.1875 
L 47.609375 17.1875 
L 47.609375 0 
L 37.796875 0 
L 37.796875 17.1875 
L 4.890625 17.1875 
L 4.890625 26.703125 
z
" id="DejaVuSans-34"/>
      </defs>
      <g transform="translate(208.220173 317.076875)scale(0.2 -0.2)">
       <use xlink:href="#DejaVuSans-34"/>
      </g>
     </g>
    </g>
    <g id="xtick_4">
     <g id="line2d_10">
      <path clip-path="url(#p4c77b3096d)" d="M 293.814009 294.88 
L 293.814009 24.84 
" style="fill:none;stroke:#b0b0b0;stroke-linecap:square;stroke-width:0.8;"/>
     </g>
     <g id="line2d_11">
      <g>
       <use style="stroke:#000000;stroke-width:0.8;" x="293.814009" xlink:href="#mf470c6e55d" y="294.88"/>
      </g>
     </g>
     <g id="text_4">
      <!-- 6 -->
      <defs>
       <path d="M 33.015625 40.375 
Q 26.375 40.375 22.484375 35.828125 
Q 18.609375 31.296875 18.609375 23.390625 
Q 18.609375 15.53125 22.484375 10.953125 
Q 26.375 6.390625 33.015625 6.390625 
Q 39.65625 6.390625 43.53125 10.953125 
Q 47.40625 15.53125 47.40625 23.390625 
Q 47.40625 31.296875 43.53125 35.828125 
Q 39.65625 40.375 33.015625 40.375 
z
M 52.59375 71.296875 
L 52.59375 62.3125 
Q 48.875 64.0625 45.09375 64.984375 
Q 41.3125 65.921875 37.59375 65.921875 
Q 27.828125 65.921875 22.671875 59.328125 
Q 17.53125 52.734375 16.796875 39.40625 
Q 19.671875 43.65625 24.015625 45.921875 
Q 28.375 48.1875 33.59375 48.1875 
Q 44.578125 48.1875 50.953125 41.515625 
Q 57.328125 34.859375 57.328125 23.390625 
Q 57.328125 12.15625 50.6875 5.359375 
Q 44.046875 -1.421875 33.015625 -1.421875 
Q 20.359375 -1.421875 13.671875 8.265625 
Q 6.984375 17.96875 6.984375 36.375 
Q 6.984375 53.65625 15.1875 63.9375 
Q 23.390625 74.21875 37.203125 74.21875 
Q 40.921875 74.21875 44.703125 73.484375 
Q 48.484375 72.75 52.59375 71.296875 
z
" id="DejaVuSans-36"/>
      </defs>
      <g transform="translate(287.451509 317.076875)scale(0.2 -0.2)">
       <use xlink:href="#DejaVuSans-36"/>
      </g>
     </g>
    </g>
    <g id="xtick_5">
     <g id="line2d_12">
      <path clip-path="url(#p4c77b3096d)" d="M 373.045346 294.88 
L 373.045346 24.84 
" style="fill:none;stroke:#b0b0b0;stroke-linecap:square;stroke-width:0.8;"/>
     </g>
     <g id="line2d_13">
      <g>
       <use style="stroke:#000000;stroke-width:0.8;" x="373.045346" xlink:href="#mf470c6e55d" y="294.88"/>
      </g>
     </g>
     <g id="text_5">
      <!-- 8 -->
      <defs>
       <path d="M 31.78125 34.625 
Q 24.75 34.625 20.71875 30.859375 
Q 16.703125 27.09375 16.703125 20.515625 
Q 16.703125 13.921875 20.71875 10.15625 
Q 24.75 6.390625 31.78125 6.390625 
Q 38.8125 6.390625 42.859375 10.171875 
Q 46.921875 13.96875 46.921875 20.515625 
Q 46.921875 27.09375 42.890625 30.859375 
Q 38.875 34.625 31.78125 34.625 
z
M 21.921875 38.8125 
Q 15.578125 40.375 12.03125 44.71875 
Q 8.5 49.078125 8.5 55.328125 
Q 8.5 64.0625 14.71875 69.140625 
Q 20.953125 74.21875 31.78125 74.21875 
Q 42.671875 74.21875 48.875 69.140625 
Q 55.078125 64.0625 55.078125 55.328125 
Q 55.078125 49.078125 51.53125 44.71875 
Q 48 40.375 41.703125 38.8125 
Q 48.828125 37.15625 52.796875 32.3125 
Q 56.78125 27.484375 56.78125 20.515625 
Q 56.78125 9.90625 50.3125 4.234375 
Q 43.84375 -1.421875 31.78125 -1.421875 
Q 19.734375 -1.421875 13.25 4.234375 
Q 6.78125 9.90625 6.78125 20.515625 
Q 6.78125 27.484375 10.78125 32.3125 
Q 14.796875 37.15625 21.921875 38.8125 
z
M 18.3125 54.390625 
Q 18.3125 48.734375 21.84375 45.5625 
Q 25.390625 42.390625 31.78125 42.390625 
Q 38.140625 42.390625 41.71875 45.5625 
Q 45.3125 48.734375 45.3125 54.390625 
Q 45.3125 60.0625 41.71875 63.234375 
Q 38.140625 66.40625 31.78125 66.40625 
Q 25.390625 66.40625 21.84375 63.234375 
Q 18.3125 60.0625 18.3125 54.390625 
z
" id="DejaVuSans-38"/>
      </defs>
      <g transform="translate(366.682846 317.076875)scale(0.2 -0.2)">
       <use xlink:href="#DejaVuSans-38"/>
      </g>
     </g>
    </g>
    <g id="text_6">
     <!-- log10(# f-evals / dimension) -->
     <defs>
      <path d="M 9.421875 75.984375 
L 18.40625 75.984375 
L 18.40625 0 
L 9.421875 0 
z
" id="DejaVuSans-6c"/>
      <path d="M 30.609375 48.390625 
Q 23.390625 48.390625 19.1875 42.75 
Q 14.984375 37.109375 14.984375 27.296875 
Q 14.984375 17.484375 19.15625 11.84375 
Q 23.34375 6.203125 30.609375 6.203125 
Q 37.796875 6.203125 41.984375 11.859375 
Q 46.1875 17.53125 46.1875 27.296875 
Q 46.1875 37.015625 41.984375 42.703125 
Q 37.796875 48.390625 30.609375 48.390625 
z
M 30.609375 56 
Q 42.328125 56 49.015625 48.375 
Q 55.71875 40.765625 55.71875 27.296875 
Q 55.71875 13.875 49.015625 6.21875 
Q 42.328125 -1.421875 30.609375 -1.421875 
Q 18.84375 -1.421875 12.171875 6.21875 
Q 5.515625 13.875 5.515625 27.296875 
Q 5.515625 40.765625 12.171875 48.375 
Q 18.84375 56 30.609375 56 
z
" id="DejaVuSans-6f"/>
      <path d="M 45.40625 27.984375 
Q 45.40625 37.75 41.375 43.109375 
Q 37.359375 48.484375 30.078125 48.484375 
Q 22.859375 48.484375 18.828125 43.109375 
Q 14.796875 37.75 14.796875 27.984375 
Q 14.796875 18.265625 18.828125 12.890625 
Q 22.859375 7.515625 30.078125 7.515625 
Q 37.359375 7.515625 41.375 12.890625 
Q 45.40625 18.265625 45.40625 27.984375 
z
M 54.390625 6.78125 
Q 54.390625 -7.171875 48.1875 -13.984375 
Q 42 -20.796875 29.203125 -20.796875 
Q 24.46875 -20.796875 20.265625 -20.09375 
Q 16.0625 -19.390625 12.109375 -17.921875 
L 12.109375 -9.1875 
Q 16.0625 -11.328125 19.921875 -12.34375 
Q 23.78125 -13.375 27.78125 -13.375 
Q 36.625 -13.375 41.015625 -8.765625 
Q 45.40625 -4.15625 45.40625 5.171875 
L 45.40625 9.625 
Q 42.625 4.78125 38.28125 2.390625 
Q 33.9375 0 27.875 0 
Q 17.828125 0 11.671875 7.65625 
Q 5.515625 15.328125 5.515625 27.984375 
Q 5.515625 40.671875 11.671875 48.328125 
Q 17.828125 56 27.875 56 
Q 33.9375 56 38.28125 53.609375 
Q 42.625 51.21875 45.40625 46.390625 
L 45.40625 54.6875 
L 54.390625 54.6875 
z
" id="DejaVuSans-67"/>
      <path d="M 12.40625 8.296875 
L 28.515625 8.296875 
L 28.515625 63.921875 
L 10.984375 60.40625 
L 10.984375 69.390625 
L 28.421875 72.90625 
L 38.28125 72.90625 
L 38.28125 8.296875 
L 54.390625 8.296875 
L 54.390625 0 
L 12.40625 0 
z
" id="DejaVuSans-31"/>
      <path d="M 31 75.875 
Q 24.46875 64.65625 21.28125 53.65625 
Q 18.109375 42.671875 18.109375 31.390625 
Q 18.109375 20.125 21.3125 9.0625 
Q 24.515625 -2 31 -13.1875 
L 23.1875 -13.1875 
Q 15.875 -1.703125 12.234375 9.375 
Q 8.59375 20.453125 8.59375 31.390625 
Q 8.59375 42.28125 12.203125 53.3125 
Q 15.828125 64.359375 23.1875 75.875 
z
" id="DejaVuSans-28"/>
      <path d="M 51.125 44 
L 36.921875 44 
L 32.8125 27.6875 
L 47.125 27.6875 
z
M 43.796875 71.78125 
L 38.71875 51.515625 
L 52.984375 51.515625 
L 58.109375 71.78125 
L 65.921875 71.78125 
L 60.890625 51.515625 
L 76.125 51.515625 
L 76.125 44 
L 58.984375 44 
L 54.984375 27.6875 
L 70.515625 27.6875 
L 70.515625 20.21875 
L 53.078125 20.21875 
L 48 0 
L 40.1875 0 
L 45.21875 20.21875 
L 30.90625 20.21875 
L 25.875 0 
L 18.015625 0 
L 23.09375 20.21875 
L 7.71875 20.21875 
L 7.71875 27.6875 
L 24.90625 27.6875 
L 29 44 
L 13.28125 44 
L 13.28125 51.515625 
L 30.90625 51.515625 
L 35.890625 71.78125 
z
" id="DejaVuSans-23"/>
      <path id="DejaVuSans-20"/>
      <path d="M 37.109375 75.984375 
L 37.109375 68.5 
L 28.515625 68.5 
Q 23.6875 68.5 21.796875 66.546875 
Q 19.921875 64.59375 19.921875 59.515625 
L 19.921875 54.6875 
L 34.71875 54.6875 
L 34.71875 47.703125 
L 19.921875 47.703125 
L 19.921875 0 
L 10.890625 0 
L 10.890625 47.703125 
L 2.296875 47.703125 
L 2.296875 54.6875 
L 10.890625 54.6875 
L 10.890625 58.5 
Q 10.890625 67.625 15.140625 71.796875 
Q 19.390625 75.984375 28.609375 75.984375 
z
" id="DejaVuSans-66"/>
      <path d="M 4.890625 31.390625 
L 31.203125 31.390625 
L 31.203125 23.390625 
L 4.890625 23.390625 
z
" id="DejaVuSans-2d"/>
      <path d="M 56.203125 29.59375 
L 56.203125 25.203125 
L 14.890625 25.203125 
Q 15.484375 15.921875 20.484375 11.0625 
Q 25.484375 6.203125 34.421875 6.203125 
Q 39.59375 6.203125 44.453125 7.46875 
Q 49.3125 8.734375 54.109375 11.28125 
L 54.109375 2.78125 
Q 49.265625 0.734375 44.1875 -0.34375 
Q 39.109375 -1.421875 33.890625 -1.421875 
Q 20.796875 -1.421875 13.15625 6.1875 
Q 5.515625 13.8125 5.515625 26.8125 
Q 5.515625 40.234375 12.765625 48.109375 
Q 20.015625 56 32.328125 56 
Q 43.359375 56 49.78125 48.890625 
Q 56.203125 41.796875 56.203125 29.59375 
z
M 47.21875 32.234375 
Q 47.125 39.59375 43.09375 43.984375 
Q 39.0625 48.390625 32.421875 48.390625 
Q 24.90625 48.390625 20.390625 44.140625 
Q 15.875 39.890625 15.1875 32.171875 
z
" id="DejaVuSans-65"/>
      <path d="M 2.984375 54.6875 
L 12.5 54.6875 
L 29.59375 8.796875 
L 46.6875 54.6875 
L 56.203125 54.6875 
L 35.6875 0 
L 23.484375 0 
z
" id="DejaVuSans-76"/>
      <path d="M 34.28125 27.484375 
Q 23.390625 27.484375 19.1875 25 
Q 14.984375 22.515625 14.984375 16.5 
Q 14.984375 11.71875 18.140625 8.90625 
Q 21.296875 6.109375 26.703125 6.109375 
Q 34.1875 6.109375 38.703125 11.40625 
Q 43.21875 16.703125 43.21875 25.484375 
L 43.21875 27.484375 
z
M 52.203125 31.203125 
L 52.203125 0 
L 43.21875 0 
L 43.21875 8.296875 
Q 40.140625 3.328125 35.546875 0.953125 
Q 30.953125 -1.421875 24.3125 -1.421875 
Q 15.921875 -1.421875 10.953125 3.296875 
Q 6 8.015625 6 15.921875 
Q 6 25.140625 12.171875 29.828125 
Q 18.359375 34.515625 30.609375 34.515625 
L 43.21875 34.515625 
L 43.21875 35.40625 
Q 43.21875 41.609375 39.140625 45 
Q 35.0625 48.390625 27.6875 48.390625 
Q 23 48.390625 18.546875 47.265625 
Q 14.109375 46.140625 10.015625 43.890625 
L 10.015625 52.203125 
Q 14.9375 54.109375 19.578125 55.046875 
Q 24.21875 56 28.609375 56 
Q 40.484375 56 46.34375 49.84375 
Q 52.203125 43.703125 52.203125 31.203125 
z
" id="DejaVuSans-61"/>
      <path d="M 44.28125 53.078125 
L 44.28125 44.578125 
Q 40.484375 46.53125 36.375 47.5 
Q 32.28125 48.484375 27.875 48.484375 
Q 21.1875 48.484375 17.84375 46.4375 
Q 14.5 44.390625 14.5 40.28125 
Q 14.5 37.15625 16.890625 35.375 
Q 19.28125 33.59375 26.515625 31.984375 
L 29.59375 31.296875 
Q 39.15625 29.25 43.1875 25.515625 
Q 47.21875 21.78125 47.21875 15.09375 
Q 47.21875 7.46875 41.1875 3.015625 
Q 35.15625 -1.421875 24.609375 -1.421875 
Q 20.21875 -1.421875 15.453125 -0.5625 
Q 10.6875 0.296875 5.421875 2 
L 5.421875 11.28125 
Q 10.40625 8.6875 15.234375 7.390625 
Q 20.0625 6.109375 24.8125 6.109375 
Q 31.15625 6.109375 34.5625 8.28125 
Q 37.984375 10.453125 37.984375 14.40625 
Q 37.984375 18.0625 35.515625 20.015625 
Q 33.0625 21.96875 24.703125 23.78125 
L 21.578125 24.515625 
Q 13.234375 26.265625 9.515625 29.90625 
Q 5.8125 33.546875 5.8125 39.890625 
Q 5.8125 47.609375 11.28125 51.796875 
Q 16.75 56 26.8125 56 
Q 31.78125 56 36.171875 55.265625 
Q 40.578125 54.546875 44.28125 53.078125 
z
" id="DejaVuSans-73"/>
      <path d="M 25.390625 72.90625 
L 33.6875 72.90625 
L 8.296875 -9.28125 
L 0 -9.28125 
z
" id="DejaVuSans-2f"/>
      <path d="M 45.40625 46.390625 
L 45.40625 75.984375 
L 54.390625 75.984375 
L 54.390625 0 
L 45.40625 0 
L 45.40625 8.203125 
Q 42.578125 3.328125 38.25 0.953125 
Q 33.9375 -1.421875 27.875 -1.421875 
Q 17.96875 -1.421875 11.734375 6.484375 
Q 5.515625 14.40625 5.515625 27.296875 
Q 5.515625 40.1875 11.734375 48.09375 
Q 17.96875 56 27.875 56 
Q 33.9375 56 38.25 53.625 
Q 42.578125 51.265625 45.40625 46.390625 
z
M 14.796875 27.296875 
Q 14.796875 17.390625 18.875 11.75 
Q 22.953125 6.109375 30.078125 6.109375 
Q 37.203125 6.109375 41.296875 11.75 
Q 45.40625 17.390625 45.40625 27.296875 
Q 45.40625 37.203125 41.296875 42.84375 
Q 37.203125 48.484375 30.078125 48.484375 
Q 22.953125 48.484375 18.875 42.84375 
Q 14.796875 37.203125 14.796875 27.296875 
z
" id="DejaVuSans-64"/>
      <path d="M 9.421875 54.6875 
L 18.40625 54.6875 
L 18.40625 0 
L 9.421875 0 
z
M 9.421875 75.984375 
L 18.40625 75.984375 
L 18.40625 64.59375 
L 9.421875 64.59375 
z
" id="DejaVuSans-69"/>
      <path d="M 52 44.1875 
Q 55.375 50.25 60.0625 53.125 
Q 64.75 56 71.09375 56 
Q 79.640625 56 84.28125 50.015625 
Q 88.921875 44.046875 88.921875 33.015625 
L 88.921875 0 
L 79.890625 0 
L 79.890625 32.71875 
Q 79.890625 40.578125 77.09375 44.375 
Q 74.3125 48.1875 68.609375 48.1875 
Q 61.625 48.1875 57.5625 43.546875 
Q 53.515625 38.921875 53.515625 30.90625 
L 53.515625 0 
L 44.484375 0 
L 44.484375 32.71875 
Q 44.484375 40.625 41.703125 44.40625 
Q 38.921875 48.1875 33.109375 48.1875 
Q 26.21875 48.1875 22.15625 43.53125 
Q 18.109375 38.875 18.109375 30.90625 
L 18.109375 0 
L 9.078125 0 
L 9.078125 54.6875 
L 18.109375 54.6875 
L 18.109375 46.1875 
Q 21.1875 51.21875 25.484375 53.609375 
Q 29.78125 56 35.6875 56 
Q 41.65625 56 45.828125 52.96875 
Q 50 49.953125 52 44.1875 
z
" id="DejaVuSans-6d"/>
      <path d="M 54.890625 33.015625 
L 54.890625 0 
L 45.90625 0 
L 45.90625 32.71875 
Q 45.90625 40.484375 42.875 44.328125 
Q 39.84375 48.1875 33.796875 48.1875 
Q 26.515625 48.1875 22.3125 43.546875 
Q 18.109375 38.921875 18.109375 30.90625 
L 18.109375 0 
L 9.078125 0 
L 9.078125 54.6875 
L 18.109375 54.6875 
L 18.109375 46.1875 
Q 21.34375 51.125 25.703125 53.5625 
Q 30.078125 56 35.796875 56 
Q 45.21875 56 50.046875 50.171875 
Q 54.890625 44.34375 54.890625 33.015625 
z
" id="DejaVuSans-6e"/>
      <path d="M 8.015625 75.875 
L 15.828125 75.875 
Q 23.140625 64.359375 26.78125 53.3125 
Q 30.421875 42.28125 30.421875 31.390625 
Q 30.421875 20.453125 26.78125 9.375 
Q 23.140625 -1.703125 15.828125 -13.1875 
L 8.015625 -13.1875 
Q 14.5 -2 17.703125 9.0625 
Q 20.90625 20.125 20.90625 31.390625 
Q 20.90625 42.671875 17.703125 53.65625 
Q 14.5 64.65625 8.015625 75.875 
z
" id="DejaVuSans-29"/>
     </defs>
     <g transform="translate(107.211219 338.153594)scale(0.17 -0.17)">
      <use xlink:href="#DejaVuSans-6c"/>
      <use x="27.783203" xlink:href="#DejaVuSans-6f"/>
      <use x="88.964844" xlink:href="#DejaVuSans-67"/>
      <use x="152.441406" xlink:href="#DejaVuSans-31"/>
      <use x="216.064453" xlink:href="#DejaVuSans-30"/>
      <use x="279.6875" xlink:href="#DejaVuSans-28"/>
      <use x="318.701172" xlink:href="#DejaVuSans-23"/>
      <use x="402.490234" xlink:href="#DejaVuSans-20"/>
      <use x="434.277344" xlink:href="#DejaVuSans-66"/>
      <use x="469.404297" xlink:href="#DejaVuSans-2d"/>
      <use x="505.488281" xlink:href="#DejaVuSans-65"/>
      <use x="567.011719" xlink:href="#DejaVuSans-76"/>
      <use x="626.191406" xlink:href="#DejaVuSans-61"/>
      <use x="687.470703" xlink:href="#DejaVuSans-6c"/>
      <use x="715.253906" xlink:href="#DejaVuSans-73"/>
      <use x="767.353516" xlink:href="#DejaVuSans-20"/>
      <use x="799.140625" xlink:href="#DejaVuSans-2f"/>
      <use x="832.832031" xlink:href="#DejaVuSans-20"/>
      <use x="864.619141" xlink:href="#DejaVuSans-64"/>
      <use x="928.095703" xlink:href="#DejaVuSans-69"/>
      <use x="955.878906" xlink:href="#DejaVuSans-6d"/>
      <use x="1053.291016" xlink:href="#DejaVuSans-65"/>
      <use x="1114.814453" xlink:href="#DejaVuSans-6e"/>
      <use x="1178.193359" xlink:href="#DejaVuSans-73"/>
      <use x="1230.292969" xlink:href="#DejaVuSans-69"/>
      <use x="1258.076172" xlink:href="#DejaVuSans-6f"/>
      <use x="1319.257812" xlink:href="#DejaVuSans-6e"/>
      <use x="1382.636719" xlink:href="#DejaVuSans-29"/>
     </g>
    </g>
   </g>
   <g id="matplotlib.axis_2">
    <g id="ytick_1">
     <g id="line2d_14">
      <path clip-path="url(#p4c77b3096d)" d="M 56.12 294.88 
L 399.984 294.88 
" style="fill:none;stroke:#b0b0b0;stroke-linecap:square;stroke-width:0.8;"/>
     </g>
     <g id="line2d_15">
      <defs>
       <path d="M 0 0 
L -3.5 0 
" id="m377e825448" style="stroke:#000000;stroke-width:0.8;"/>
      </defs>
      <g>
       <use style="stroke:#000000;stroke-width:0.8;" x="56.12" xlink:href="#m377e825448" y="294.88"/>
      </g>
     </g>
     <g id="text_7">
      <!-- 0.0 -->
      <defs>
       <path d="M 10.6875 12.40625 
L 21 12.40625 
L 21 0 
L 10.6875 0 
z
" id="DejaVuSans-2e"/>
      </defs>
      <g transform="translate(23.675 300.95875)scale(0.16 -0.16)">
       <use xlink:href="#DejaVuSans-30"/>
       <use x="63.623047" xlink:href="#DejaVuSans-2e"/>
       <use x="95.410156" xlink:href="#DejaVuSans-30"/>
      </g>
     </g>
    </g>
    <g id="ytick_2">
     <g id="line2d_16">
      <path clip-path="url(#p4c77b3096d)" d="M 56.12 241.406733 
L 399.984 241.406733 
" style="fill:none;stroke:#b0b0b0;stroke-linecap:square;stroke-width:0.8;"/>
     </g>
     <g id="line2d_17">
      <g>
       <use style="stroke:#000000;stroke-width:0.8;" x="56.12" xlink:href="#m377e825448" y="241.406733"/>
      </g>
     </g>
     <g id="text_8">
      <!-- 0.2 -->
      <g transform="translate(23.675 247.485483)scale(0.16 -0.16)">
       <use xlink:href="#DejaVuSans-30"/>
       <use x="63.623047" xlink:href="#DejaVuSans-2e"/>
       <use x="95.410156" xlink:href="#DejaVuSans-32"/>
      </g>
     </g>
    </g>
    <g id="ytick_3">
     <g id="line2d_18">
      <path clip-path="url(#p4c77b3096d)" d="M 56.12 187.933465 
L 399.984 187.933465 
" style="fill:none;stroke:#b0b0b0;stroke-linecap:square;stroke-width:0.8;"/>
     </g>
     <g id="line2d_19">
      <g>
       <use style="stroke:#000000;stroke-width:0.8;" x="56.12" xlink:href="#m377e825448" y="187.933465"/>
      </g>
     </g>
     <g id="text_9">
      <!-- 0.4 -->
      <g transform="translate(23.675 194.012215)scale(0.16 -0.16)">
       <use xlink:href="#DejaVuSans-30"/>
       <use x="63.623047" xlink:href="#DejaVuSans-2e"/>
       <use x="95.410156" xlink:href="#DejaVuSans-34"/>
      </g>
     </g>
    </g>
    <g id="ytick_4">
     <g id="line2d_20">
      <path clip-path="url(#p4c77b3096d)" d="M 56.12 134.460198 
L 399.984 134.460198 
" style="fill:none;stroke:#b0b0b0;stroke-linecap:square;stroke-width:0.8;"/>
     </g>
     <g id="line2d_21">
      <g>
       <use style="stroke:#000000;stroke-width:0.8;" x="56.12" xlink:href="#m377e825448" y="134.460198"/>
      </g>
     </g>
     <g id="text_10">
      <!-- 0.6 -->
      <g transform="translate(23.675 140.538948)scale(0.16 -0.16)">
       <use xlink:href="#DejaVuSans-30"/>
       <use x="63.623047" xlink:href="#DejaVuSans-2e"/>
       <use x="95.410156" xlink:href="#DejaVuSans-36"/>
      </g>
     </g>
    </g>
    <g id="ytick_5">
     <g id="line2d_22">
      <path clip-path="url(#p4c77b3096d)" d="M 56.12 80.986931 
L 399.984 80.986931 
" style="fill:none;stroke:#b0b0b0;stroke-linecap:square;stroke-width:0.8;"/>
     </g>
     <g id="line2d_23">
      <g>
       <use style="stroke:#000000;stroke-width:0.8;" x="56.12" xlink:href="#m377e825448" y="80.986931"/>
      </g>
     </g>
     <g id="text_11">
      <!-- 0.8 -->
      <g transform="translate(23.675 87.065681)scale(0.16 -0.16)">
       <use xlink:href="#DejaVuSans-30"/>
       <use x="63.623047" xlink:href="#DejaVuSans-2e"/>
       <use x="95.410156" xlink:href="#DejaVuSans-38"/>
      </g>
     </g>
    </g>
    <g id="ytick_6">
     <g id="line2d_24">
      <path clip-path="url(#p4c77b3096d)" d="M 56.12 27.513663 
L 399.984 27.513663 
" style="fill:none;stroke:#b0b0b0;stroke-linecap:square;stroke-width:0.8;"/>
     </g>
     <g id="line2d_25">
      <g>
       <use style="stroke:#000000;stroke-width:0.8;" x="56.12" xlink:href="#m377e825448" y="27.513663"/>
      </g>
     </g>
     <g id="text_12">
      <!-- 1.0 -->
      <g transform="translate(23.675 33.592413)scale(0.16 -0.16)">
       <use xlink:href="#DejaVuSans-31"/>
       <use x="63.623047" xlink:href="#DejaVuSans-2e"/>
       <use x="95.410156" xlink:href="#DejaVuSans-30"/>
      </g>
     </g>
    </g>
    <g id="text_13">
     <!-- Fraction of function,target pairs -->
     <defs>
      <path d="M 9.8125 72.90625 
L 51.703125 72.90625 
L 51.703125 64.59375 
L 19.671875 64.59375 
L 19.671875 43.109375 
L 48.578125 43.109375 
L 48.578125 34.8125 
L 19.671875 34.8125 
L 19.671875 0 
L 9.8125 0 
z
" id="DejaVuSans-46"/>
      <path d="M 41.109375 46.296875 
Q 39.59375 47.171875 37.8125 47.578125 
Q 36.03125 48 33.890625 48 
Q 26.265625 48 22.1875 43.046875 
Q 18.109375 38.09375 18.109375 28.8125 
L 18.109375 0 
L 9.078125 0 
L 9.078125 54.6875 
L 18.109375 54.6875 
L 18.109375 46.1875 
Q 20.953125 51.171875 25.484375 53.578125 
Q 30.03125 56 36.53125 56 
Q 37.453125 56 38.578125 55.875 
Q 39.703125 55.765625 41.0625 55.515625 
z
" id="DejaVuSans-72"/>
      <path d="M 48.78125 52.59375 
L 48.78125 44.1875 
Q 44.96875 46.296875 41.140625 47.34375 
Q 37.3125 48.390625 33.40625 48.390625 
Q 24.65625 48.390625 19.8125 42.84375 
Q 14.984375 37.3125 14.984375 27.296875 
Q 14.984375 17.28125 19.8125 11.734375 
Q 24.65625 6.203125 33.40625 6.203125 
Q 37.3125 6.203125 41.140625 7.25 
Q 44.96875 8.296875 48.78125 10.40625 
L 48.78125 2.09375 
Q 45.015625 0.34375 40.984375 -0.53125 
Q 36.96875 -1.421875 32.421875 -1.421875 
Q 20.0625 -1.421875 12.78125 6.34375 
Q 5.515625 14.109375 5.515625 27.296875 
Q 5.515625 40.671875 12.859375 48.328125 
Q 20.21875 56 33.015625 56 
Q 37.15625 56 41.109375 55.140625 
Q 45.0625 54.296875 48.78125 52.59375 
z
" id="DejaVuSans-63"/>
      <path d="M 18.3125 70.21875 
L 18.3125 54.6875 
L 36.8125 54.6875 
L 36.8125 47.703125 
L 18.3125 47.703125 
L 18.3125 18.015625 
Q 18.3125 11.328125 20.140625 9.421875 
Q 21.96875 7.515625 27.59375 7.515625 
L 36.8125 7.515625 
L 36.8125 0 
L 27.59375 0 
Q 17.1875 0 13.234375 3.875 
Q 9.28125 7.765625 9.28125 18.015625 
L 9.28125 47.703125 
L 2.6875 47.703125 
L 2.6875 54.6875 
L 9.28125 54.6875 
L 9.28125 70.21875 
z
" id="DejaVuSans-74"/>
      <path d="M 8.5 21.578125 
L 8.5 54.6875 
L 17.484375 54.6875 
L 17.484375 21.921875 
Q 17.484375 14.15625 20.5 10.265625 
Q 23.53125 6.390625 29.59375 6.390625 
Q 36.859375 6.390625 41.078125 11.03125 
Q 45.3125 15.671875 45.3125 23.6875 
L 45.3125 54.6875 
L 54.296875 54.6875 
L 54.296875 0 
L 45.3125 0 
L 45.3125 8.40625 
Q 42.046875 3.421875 37.71875 1 
Q 33.40625 -1.421875 27.6875 -1.421875 
Q 18.265625 -1.421875 13.375 4.4375 
Q 8.5 10.296875 8.5 21.578125 
z
M 31.109375 56 
z
" id="DejaVuSans-75"/>
      <path d="M 11.71875 12.40625 
L 22.015625 12.40625 
L 22.015625 4 
L 14.015625 -11.625 
L 7.71875 -11.625 
L 11.71875 4 
z
" id="DejaVuSans-2c"/>
      <path d="M 18.109375 8.203125 
L 18.109375 -20.796875 
L 9.078125 -20.796875 
L 9.078125 54.6875 
L 18.109375 54.6875 
L 18.109375 46.390625 
Q 20.953125 51.265625 25.265625 53.625 
Q 29.59375 56 35.59375 56 
Q 45.5625 56 51.78125 48.09375 
Q 58.015625 40.1875 58.015625 27.296875 
Q 58.015625 14.40625 51.78125 6.484375 
Q 45.5625 -1.421875 35.59375 -1.421875 
Q 29.59375 -1.421875 25.265625 0.953125 
Q 20.953125 3.328125 18.109375 8.203125 
z
M 48.6875 27.296875 
Q 48.6875 37.203125 44.609375 42.84375 
Q 40.53125 48.484375 33.40625 48.484375 
Q 26.265625 48.484375 22.1875 42.84375 
Q 18.109375 37.203125 18.109375 27.296875 
Q 18.109375 17.390625 22.1875 11.75 
Q 26.265625 6.109375 33.40625 6.109375 
Q 40.53125 6.109375 44.609375 11.75 
Q 48.6875 17.390625 48.6875 27.296875 
z
" id="DejaVuSans-70"/>
     </defs>
     <g transform="translate(16.139531 294.999375)rotate(-90)scale(0.17 -0.17)">
      <use xlink:href="#DejaVuSans-46"/>
      <use x="57.410156" xlink:href="#DejaVuSans-72"/>
      <use x="98.523438" xlink:href="#DejaVuSans-61"/>
      <use x="159.802734" xlink:href="#DejaVuSans-63"/>
      <use x="214.783203" xlink:href="#DejaVuSans-74"/>
      <use x="253.992188" xlink:href="#DejaVuSans-69"/>
      <use x="281.775391" xlink:href="#DejaVuSans-6f"/>
      <use x="342.957031" xlink:href="#DejaVuSans-6e"/>
      <use x="406.335938" xlink:href="#DejaVuSans-20"/>
      <use x="438.123047" xlink:href="#DejaVuSans-6f"/>
      <use x="499.304688" xlink:href="#DejaVuSans-66"/>
      <use x="534.509766" xlink:href="#DejaVuSans-20"/>
      <use x="566.296875" xlink:href="#DejaVuSans-66"/>
      <use x="601.501953" xlink:href="#DejaVuSans-75"/>
      <use x="664.880859" xlink:href="#DejaVuSans-6e"/>
      <use x="728.259766" xlink:href="#DejaVuSans-63"/>
      <use x="783.240234" xlink:href="#DejaVuSans-74"/>
      <use x="822.449219" xlink:href="#DejaVuSans-69"/>
      <use x="850.232422" xlink:href="#DejaVuSans-6f"/>
      <use x="911.414062" xlink:href="#DejaVuSans-6e"/>
      <use x="974.792969" xlink:href="#DejaVuSans-2c"/>
      <use x="1006.580078" xlink:href="#DejaVuSans-74"/>
      <use x="1045.789062" xlink:href="#DejaVuSans-61"/>
      <use x="1107.068359" xlink:href="#DejaVuSans-72"/>
      <use x="1148.166016" xlink:href="#DejaVuSans-67"/>
      <use x="1211.642578" xlink:href="#DejaVuSans-65"/>
      <use x="1273.166016" xlink:href="#DejaVuSans-74"/>
      <use x="1312.375" xlink:href="#DejaVuSans-20"/>
      <use x="1344.162109" xlink:href="#DejaVuSans-70"/>
      <use x="1407.638672" xlink:href="#DejaVuSans-61"/>
      <use x="1468.917969" xlink:href="#DejaVuSans-69"/>
      <use x="1496.701172" xlink:href="#DejaVuSans-72"/>
      <use x="1537.814453" xlink:href="#DejaVuSans-73"/>
     </g>
    </g>
   </g>
   <g id="line2d_26">
    <defs>
     <path d="M 0 1.5 
C 0.397805 1.5 0.77937 1.341951 1.06066 1.06066 
C 1.341951 0.77937 1.5 0.397805 1.5 0 
C 1.5 -0.397805 1.341951 -0.77937 1.06066 -1.06066 
C 0.77937 -1.341951 0.397805 -1.5 0 -1.5 
C -0.397805 -1.5 -0.77937 -1.341951 -1.06066 -1.06066 
C -1.341951 -0.77937 -1.5 -0.397805 -1.5 0 
C -1.5 0.397805 -1.341951 0.77937 -1.06066 1.06066 
C -0.77937 1.341951 -0.397805 1.5 0 1.5 
z
" id="m9523f40bb1" style="stroke:#f5deb3;"/>
    </defs>
    <g>
     <use style="fill:#f5deb3;stroke:#f5deb3;" x="195.855243" xlink:href="#m9523f40bb1" y="27.513663"/>
     <use style="fill:#f5deb3;stroke:#f5deb3;" x="195.855243" xlink:href="#m9523f40bb1" y="27.513663"/>
    </g>
   </g>
   <g id="line2d_27">
    <g>
     <use style="fill:#f5deb3;stroke:#f5deb3;stroke-linejoin:miter;stroke-width:1.5;" x="188.380906" xlink:href="#meb7e442a6b" y="205.757888"/>
     <use style="fill:#f5deb3;stroke:#f5deb3;stroke-linejoin:miter;stroke-width:1.5;" x="195.284604" xlink:href="#meb7e442a6b" y="74.695958"/>
     <use style="fill:#f5deb3;stroke:#f5deb3;stroke-linejoin:miter;stroke-width:1.5;" x="195.855243" xlink:href="#meb7e442a6b" y="27.513663"/>
     <use style="fill:#f5deb3;stroke:#f5deb3;stroke-linejoin:miter;stroke-width:1.5;" x="333.429677" xlink:href="#meb7e442a6b" y="27.513663"/>
    </g>
   </g>
   <g id="line2d_28">
    <path clip-path="url(#p4c77b3096d)" d="M 56.12 294.88 
L 56.12 294.88 
L 56.12 294.88 
L 56.12 294.88 
L 399.984 294.88 
" style="fill:none;stroke:#999999;stroke-linecap:square;stroke-width:1.5;"/>
   </g>
   <g id="line2d_29"/>
   <g id="line2d_30">
    <path clip-path="url(#p4c77b3096d)" d="M 0 0 
" style="fill:none;stroke:#999999;stroke-linecap:square;stroke-width:1.5;"/>
   </g>
   <g id="line2d_31">
    <defs>
     <path d="M 0 1.5 
C 0.397805 1.5 0.77937 1.341951 1.06066 1.06066 
C 1.341951 0.77937 1.5 0.397805 1.5 0 
C 1.5 -0.397805 1.341951 -0.77937 1.06066 -1.06066 
C 0.77937 -1.341951 0.397805 -1.5 0 -1.5 
C -0.397805 -1.5 -0.77937 -1.341951 -1.06066 -1.06066 
C -1.341951 -0.77937 -1.5 -0.397805 -1.5 0 
C -1.5 0.397805 -1.341951 0.77937 -1.06066 1.06066 
C -0.77937 1.341951 -0.397805 1.5 0 1.5 
z
" id="me914201434" style="stroke:#999999;"/>
    </defs>
    <g>
     <use style="fill:#999999;stroke:#999999;" x="256.545426" xlink:href="#me914201434" y="27.513663"/>
     <use style="fill:#999999;stroke:#999999;" x="256.545426" xlink:href="#me914201434" y="27.513663"/>
    </g>
   </g>
   <g id="line2d_32">
    <path d="M 167.682027 294.88 
L 167.682027 294.355752 
L 168.267729 294.355752 
L 168.330468 291.734514 
L 169.19464 291.734514 
L 169.19464 291.210266 
L 169.686266 291.210266 
L 169.752786 289.637523 
L 170.150581 289.637523 
L 170.150581 288.589027 
L 170.356488 288.589027 
L 170.356488 287.540532 
L 170.620977 287.540532 
L 170.620977 286.492036 
L 170.753911 286.492036 
L 170.804387 284.919293 
L 170.986947 284.919293 
L 171.070764 283.34655 
L 171.449565 283.34655 
L 171.532739 281.773807 
L 171.782463 281.773807 
L 171.814006 280.725312 
L 172.031165 280.725312 
L 172.031165 280.201064 
L 172.59029 280.201064 
L 172.615457 276.007082 
L 172.80378 276.007082 
L 172.80378 275.482834 
L 173.205352 275.482834 
L 173.205352 274.958587 
L 173.350545 274.958587 
L 173.350545 274.434339 
L 173.725834 274.434339 
L 173.754473 272.861596 
L 174.407892 272.861596 
L 174.459357 269.191862 
L 174.741875 269.191862 
L 174.76278 267.094871 
L 174.882061 267.094871 
L 174.882061 266.570623 
L 175.077192 266.570623 
L 175.140754 263.949385 
L 175.224856 263.949385 
L 175.224856 263.425137 
L 175.402745 263.425137 
L 175.455086 261.328146 
L 175.726367 261.328146 
L 175.795369 256.609917 
L 175.916682 256.609917 
L 175.916682 255.561421 
L 176.077112 255.561421 
L 176.11578 253.988678 
L 176.367009 253.988678 
L 176.440207 251.367439 
L 176.662629 251.367439 
L 176.682884 250.318944 
L 176.933699 250.318944 
L 176.986563 246.64921 
L 177.193008 246.64921 
L 177.193008 246.124962 
L 177.340893 246.124962 
L 177.340893 245.076467 
L 177.643585 245.076467 
L 177.695049 242.979476 
L 177.806637 242.979476 
L 177.916782 239.83399 
L 178.040262 239.83399 
L 178.105256 238.261246 
L 178.254421 238.261246 
L 178.347262 237.212751 
L 178.421668 237.212751 
L 178.4926 236.164255 
L 178.662069 236.164255 
L 178.662069 235.640008 
L 178.938471 235.640008 
L 179.033816 233.018769 
L 179.179216 233.018769 
L 179.259169 230.397531 
L 179.437217 230.397531 
L 179.472673 229.349035 
L 179.692714 229.349035 
L 179.708394 227.776292 
L 179.849198 227.776292 
L 179.849198 226.727797 
L 179.965715 226.727797 
L 179.985647 225.679301 
L 180.443143 225.679301 
L 180.443143 225.155053 
L 180.55603 225.155053 
L 180.55603 224.630806 
L 180.667563 224.630806 
L 180.700574 222.533815 
L 180.917422 222.533815 
L 180.991526 220.436824 
L 181.146594 220.436824 
L 181.146594 219.912576 
L 181.386679 219.912576 
L 181.386679 219.388328 
L 181.50327 219.388328 
L 181.533543 217.815585 
L 181.661685 217.815585 
L 181.661685 217.291338 
L 181.831647 217.291338 
L 181.939249 215.718594 
L 182.066693 215.718594 
L 182.066693 215.194347 
L 182.594036 215.194347 
L 182.594036 214.145851 
L 182.710432 214.145851 
L 182.779401 212.573108 
L 183.345757 212.573108 
L 183.361608 209.427622 
L 183.54781 209.427622 
L 183.549899 208.379126 
L 183.946464 208.379126 
L 183.946464 207.854879 
L 184.125212 207.854879 
L 184.148434 205.757888 
L 184.330849 205.757888 
L 184.341827 204.185145 
L 184.539236 204.185145 
L 184.539236 203.660897 
L 184.893842 203.660897 
L 184.894567 202.088154 
L 185.263997 202.088154 
L 185.264234 200.515411 
L 185.450224 200.515411 
L 185.450224 199.466915 
L 185.62242 199.466915 
L 185.62242 198.942667 
L 185.800704 198.942667 
L 185.800704 198.41842 
L 185.942876 198.41842 
L 185.998466 196.321429 
L 186.33073 196.321429 
L 186.348053 193.175943 
L 186.500318 193.175943 
L 186.500318 192.651695 
L 186.675875 192.651695 
L 186.685673 190.554704 
L 187.002269 190.554704 
L 187.002697 189.506209 
L 187.164761 189.506209 
L 187.164973 188.457713 
L 187.497674 188.457713 
L 187.497674 187.933465 
L 187.973155 187.933465 
L 187.973155 187.409218 
L 188.579361 187.409218 
L 188.579361 186.88497 
L 188.74507 186.88497 
L 188.74507 186.360722 
L 188.897144 186.360722 
L 188.897144 185.836474 
L 189.035737 185.836474 
L 189.035737 185.312227 
L 190.572994 185.312227 
L 190.572994 184.787979 
L 191.102027 184.787979 
L 191.102027 184.263731 
L 191.231698 184.263731 
L 191.244729 183.215236 
L 192.126354 183.215236 
L 192.126354 181.118245 
L 192.720903 181.118245 
L 192.720903 180.593997 
L 192.955324 180.593997 
L 192.955324 179.545502 
L 193.754553 179.545502 
L 193.754553 179.021254 
L 203.977608 179.021254 
L 203.977608 178.497006 
L 204.702945 178.497006 
L 204.702945 177.448511 
L 204.823128 177.448511 
L 204.823128 176.924263 
L 205.397541 176.924263 
L 205.397541 176.400016 
L 207.021307 176.400016 
L 207.126253 174.827272 
L 207.630899 174.827272 
L 207.680051 173.778777 
L 208.073382 173.778777 
L 208.073382 173.254529 
L 208.266633 173.254529 
L 208.266633 172.730281 
L 208.460255 172.730281 
L 208.460255 171.157538 
L 208.695382 171.157538 
L 208.695382 170.633291 
L 209.563953 170.633291 
L 209.563953 170.109043 
L 212.581445 170.109043 
L 212.581445 169.584795 
L 216.06077 169.584795 
L 216.153043 167.487804 
L 216.330211 167.487804 
L 216.405392 164.866566 
L 216.75686 164.866566 
L 216.75686 164.342318 
L 216.994662 164.342318 
L 216.994662 163.81807 
L 217.166412 163.81807 
L 217.277503 162.245327 
L 217.460554 162.245327 
L 217.460554 161.721079 
L 217.591412 161.721079 
L 217.591412 161.196832 
L 217.905477 161.196832 
L 218.002183 159.624089 
L 218.298544 159.624089 
L 218.298544 159.099841 
L 218.6344 159.099841 
L 218.743323 158.051345 
L 218.868904 158.051345 
L 218.972925 157.00285 
L 219.074499 157.00285 
L 219.074499 156.478602 
L 219.260994 156.478602 
L 219.260994 155.954354 
L 219.448731 155.954354 
L 219.448731 155.430107 
L 222.143618 155.430107 
L 222.143618 154.381611 
L 223.164105 154.381611 
L 223.164105 153.333116 
L 225.786138 153.333116 
L 225.786138 152.808868 
L 227.111764 152.808868 
L 227.1989 151.760373 
L 227.291948 151.760373 
L 227.373373 150.711877 
L 227.441606 150.711877 
L 227.531165 149.663382 
L 227.591024 149.663382 
L 227.591024 148.614886 
L 227.832023 148.614886 
L 227.902927 146.517896 
L 228.015065 146.517896 
L 228.114942 144.945152 
L 228.245921 144.945152 
L 228.354906 143.896657 
L 228.462148 143.896657 
L 228.550497 142.848162 
L 230.146641 142.848162 
L 230.146641 142.323914 
L 231.600608 142.323914 
L 231.701248 141.275418 
L 231.897668 141.275418 
L 231.897668 140.751171 
L 232.022583 140.751171 
L 232.022583 140.226923 
L 232.232019 140.226923 
L 232.232019 139.702675 
L 232.349149 139.702675 
L 232.404882 138.65418 
L 232.660504 138.65418 
L 232.660504 138.129932 
L 232.816964 138.129932 
L 232.864829 137.081437 
L 234.035303 137.081437 
L 234.035303 136.557189 
L 234.244445 136.557189 
L 234.244445 135.508693 
L 234.459952 135.508693 
L 234.479705 134.460198 
L 234.59962 134.460198 
L 234.709468 132.363207 
L 234.837422 132.363207 
L 234.93134 130.790464 
L 235.072087 130.790464 
L 235.072087 130.266216 
L 235.342272 130.266216 
L 235.342272 129.741969 
L 235.537143 129.741969 
L 235.624454 128.169225 
L 235.765631 128.169225 
L 235.835768 126.596482 
L 236.029079 126.596482 
L 236.121096 123.975244 
L 236.165098 123.975244 
L 236.273298 120.829757 
L 236.334987 120.829757 
L 236.442525 114.538785 
L 236.454835 114.538785 
L 236.56465 112.441794 
L 236.595165 112.441794 
L 236.655439 108.77206 
L 236.999463 108.77206 
L 237.012023 107.199317 
L 237.226733 107.199317 
L 237.309995 106.150821 
L 237.357921 106.150821 
L 237.444664 104.05383 
L 237.515428 104.05383 
L 237.515428 103.005335 
L 237.753464 103.005335 
L 237.862668 101.432592 
L 237.875968 101.432592 
L 237.875968 100.908344 
L 238.012633 100.908344 
L 238.065764 99.859849 
L 238.145837 99.859849 
L 238.239943 97.762858 
L 238.299499 97.762858 
L 238.398397 95.141619 
L 238.468669 95.141619 
L 238.517619 94.093124 
L 238.640547 94.093124 
L 238.700217 91.996133 
L 238.763574 91.996133 
L 238.839526 90.42339 
L 238.967691 90.42339 
L 239.007903 89.374894 
L 239.113431 89.374894 
L 239.216548 87.802151 
L 240.006103 87.802151 
L 240.006103 87.277903 
L 241.169157 87.277903 
L 241.193538 86.229408 
L 241.288342 86.229408 
L 241.301126 84.656665 
L 241.425983 84.656665 
L 241.491679 83.608169 
L 241.577138 83.608169 
L 241.61049 82.035426 
L 242.633287 82.035426 
L 242.710631 79.938435 
L 242.755649 79.938435 
L 242.863936 78.365692 
L 242.891102 78.365692 
L 242.891102 77.841444 
L 243.092607 77.841444 
L 243.175128 76.792949 
L 243.238055 76.792949 
L 243.335093 75.220206 
L 243.740408 75.220206 
L 243.740408 74.695958 
L 246.16368 74.695958 
L 246.263407 73.123215 
L 246.299592 73.123215 
L 246.368229 71.550472 
L 246.425508 71.550472 
L 246.517262 68.929233 
L 246.564914 68.929233 
L 246.618288 67.35649 
L 246.731396 67.35649 
L 246.731396 65.783747 
L 246.87484 65.783747 
L 246.87484 65.259499 
L 247.8437 65.259499 
L 247.8437 64.735251 
L 249.762592 64.735251 
L 249.813259 63.162508 
L 249.898836 63.162508 
L 249.898836 61.589765 
L 250.018529 61.589765 
L 250.126968 58.444279 
L 250.14928 58.444279 
L 250.257604 54.250297 
L 250.28416 54.250297 
L 250.361509 51.629058 
L 250.517818 51.629058 
L 250.615253 49.00782 
L 254.279913 49.00782 
L 254.3681 45.862334 
L 254.408891 45.862334 
L 254.51088 41.668352 
L 254.533847 41.668352 
L 254.644105 39.571361 
L 254.690811 39.571361 
L 254.792631 37.47437 
L 256.212027 37.47437 
L 256.294832 33.804636 
L 256.352647 33.804636 
L 256.460458 29.086407 
L 256.532178 29.086407 
L 256.545426 27.513663 
L 333.429677 27.513663 
L 333.429677 27.513663 
" style="fill:none;stroke:#999999;stroke-linecap:square;stroke-width:1.5;"/>
   </g>
   <g id="line2d_33"/>
   <g id="line2d_34">
    <path d="M 0 0 
" style="fill:none;stroke:#999999;stroke-linecap:square;stroke-width:1.5;"/>
   </g>
   <g id="line2d_35">
    <path clip-path="url(#p4c77b3096d)" d="M 56.12 294.88 
L 56.12 294.88 
L 56.12 294.88 
L 56.12 294.88 
L 399.984 294.88 
" style="fill:none;stroke:#999999;stroke-linecap:square;stroke-width:1.5;"/>
   </g>
   <g id="line2d_36"/>
   <g id="line2d_37">
    <path clip-path="url(#p4c77b3096d)" d="M 0 0 
" style="fill:none;stroke:#999999;stroke-linecap:square;stroke-width:1.5;"/>
   </g>
   <g id="line2d_38">
    <path clip-path="url(#p4c77b3096d)" d="M 56.12 294.88 
L 56.12 294.88 
L 56.12 294.88 
L 56.12 294.88 
L 399.984 294.88 
" style="fill:none;stroke:#999999;stroke-linecap:square;stroke-width:1.5;"/>
   </g>
   <g id="line2d_39"/>
   <g id="line2d_40">
    <path clip-path="url(#p4c77b3096d)" d="M 0 0 
" style="fill:none;stroke:#999999;stroke-linecap:square;stroke-width:1.5;"/>
   </g>
   <g id="line2d_41">
    <g>
     <use style="fill:#999999;stroke:#999999;" x="202.744433" xlink:href="#me914201434" y="27.513663"/>
     <use style="fill:#999999;stroke:#999999;" x="202.744433" xlink:href="#me914201434" y="27.513663"/>
    </g>
   </g>
   <g id="line2d_42">
    <path d="M 158.257484 294.88 
L 158.257484 294.355752 
L 159.648147 294.355752 
L 159.648147 293.307257 
L 160.001787 293.307257 
L 160.033579 291.734514 
L 161.236432 291.734514 
L 161.236432 291.210266 
L 161.696462 291.210266 
L 161.696462 290.161771 
L 162.391058 290.161771 
L 162.392845 289.113275 
L 163.262873 289.113275 
L 163.262873 288.589027 
L 164.087777 288.589027 
L 164.17498 287.540532 
L 164.306561 287.540532 
L 164.306561 286.492036 
L 164.986696 286.492036 
L 165.0266 284.919293 
L 166.45565 284.919293 
L 166.45565 284.395046 
L 166.794415 284.395046 
L 166.794415 283.34655 
L 167.618192 283.34655 
L 167.626102 281.249559 
L 168.185632 281.249559 
L 168.185632 280.725312 
L 168.345643 280.725312 
L 168.345643 280.201064 
L 168.715789 280.201064 
L 168.715789 279.676816 
L 168.831689 279.676816 
L 168.831689 279.152568 
L 169.114441 279.152568 
L 169.114441 278.628321 
L 170.746216 278.628321 
L 170.746216 277.055578 
L 170.928847 277.055578 
L 170.928847 276.53133 
L 171.135913 276.53133 
L 171.135913 276.007082 
L 171.262274 276.007082 
L 171.262274 274.434339 
L 171.538514 274.434339 
L 171.538514 273.385844 
L 172.023001 273.385844 
L 172.023001 272.861596 
L 172.477822 272.861596 
L 172.477822 272.337348 
L 173.170532 272.337348 
L 173.178647 271.288853 
L 173.314599 271.288853 
L 173.314599 270.764605 
L 173.736001 270.764605 
L 173.836888 269.716109 
L 174.051427 269.716109 
L 174.051427 268.667614 
L 174.218906 268.667614 
L 174.305391 267.619119 
L 174.499623 267.619119 
L 174.499623 267.094871 
L 175.655021 267.094871 
L 175.760081 266.046375 
L 175.780606 266.046375 
L 175.802746 264.99788 
L 176.252035 264.99788 
L 176.252035 264.473632 
L 176.405823 264.473632 
L 176.428358 262.376641 
L 176.568833 262.376641 
L 176.568833 260.803898 
L 177.063271 260.803898 
L 177.063271 260.279651 
L 177.337146 260.279651 
L 177.337146 259.755403 
L 177.476741 259.755403 
L 177.476741 259.231155 
L 177.661247 259.231155 
L 177.661247 258.18266 
L 177.804084 258.18266 
L 177.867068 255.561421 
L 178.046377 255.561421 
L 178.046377 255.037173 
L 178.275372 255.037173 
L 178.275372 254.512926 
L 178.449443 254.512926 
L 178.449443 253.988678 
L 179.038569 253.988678 
L 179.067739 252.940182 
L 179.312042 252.940182 
L 179.312042 251.891687 
L 179.725038 251.891687 
L 179.725038 251.367439 
L 179.977612 251.367439 
L 179.977612 250.843192 
L 180.354058 250.843192 
L 180.457529 249.794696 
L 180.875674 249.794696 
L 180.875674 249.270448 
L 181.088833 249.270448 
L 181.117136 248.221953 
L 181.288068 248.221953 
L 181.288068 247.173458 
L 181.851261 247.173458 
L 181.851261 246.64921 
L 182.115591 246.64921 
L 182.115591 245.600714 
L 182.276649 245.600714 
L 182.276649 244.552219 
L 182.406653 244.552219 
L 182.406653 243.503724 
L 182.543159 243.503724 
L 182.543159 242.455228 
L 182.72907 242.455228 
L 182.72907 241.93098 
L 182.850816 241.93098 
L 182.867944 240.882485 
L 183.209903 240.882485 
L 183.316925 237.212751 
L 183.793157 237.212751 
L 183.793157 236.688503 
L 183.95922 236.688503 
L 183.95922 235.640008 
L 184.104993 235.640008 
L 184.192521 233.543017 
L 184.549589 233.543017 
L 184.549589 233.018769 
L 185.084096 233.018769 
L 185.195063 231.970274 
L 185.24815 231.970274 
L 185.24815 230.921778 
L 185.482 230.921778 
L 185.482 230.397531 
L 185.723076 230.397531 
L 185.723076 229.873283 
L 185.955371 229.873283 
L 185.955371 228.824787 
L 186.153842 228.824787 
L 186.153842 228.30054 
L 186.437277 228.30054 
L 186.492836 226.727797 
L 186.868836 226.727797 
L 186.974895 224.106558 
L 187.119613 224.106558 
L 187.119613 223.58231 
L 187.389159 223.58231 
L 187.389159 223.058063 
L 187.602827 223.058063 
L 187.686407 218.864081 
L 187.798171 218.864081 
L 187.888524 217.815585 
L 187.979415 217.815585 
L 188.053552 216.242842 
L 188.291721 216.242842 
L 188.291721 215.718594 
L 188.483361 215.718594 
L 188.56961 213.097356 
L 188.619285 213.097356 
L 188.619285 212.573108 
L 189.011036 212.573108 
L 189.066848 211.000365 
L 189.132301 211.000365 
L 189.132301 210.476117 
L 189.413209 210.476117 
L 189.429176 208.903374 
L 189.643295 208.903374 
L 189.669302 206.806383 
L 189.778212 206.806383 
L 189.834132 205.757888 
L 189.977635 205.757888 
L 189.977635 205.23364 
L 190.103185 205.23364 
L 190.123873 204.185145 
L 190.32499 204.185145 
L 190.32499 203.660897 
L 190.481415 203.660897 
L 190.540318 201.039658 
L 190.627778 201.039658 
L 190.711522 199.466915 
L 190.740264 199.466915 
L 190.775309 198.41842 
L 190.870121 198.41842 
L 190.925499 196.321429 
L 191.154818 196.321429 
L 191.231698 193.70019 
L 191.32686 193.70019 
L 191.416705 190.554704 
L 191.540424 190.554704 
L 191.540424 188.981961 
L 191.661141 188.981961 
L 191.661141 187.933465 
L 191.981692 187.933465 
L 192.049554 185.312227 
L 192.123499 185.312227 
L 192.123499 184.787979 
L 192.258164 184.787979 
L 192.357067 183.739484 
L 192.387722 183.739484 
L 192.439522 182.690988 
L 192.529799 182.690988 
L 192.630085 181.642493 
L 192.680701 181.642493 
L 192.680701 180.593997 
L 193.092958 180.593997 
L 193.092958 180.06975 
L 193.308184 180.06975 
L 193.370135 179.021254 
L 193.495129 179.021254 
L 193.495129 178.497006 
L 193.726098 178.497006 
L 193.830302 177.448511 
L 193.984652 177.448511 
L 194.040528 175.875768 
L 194.164567 175.875768 
L 194.275121 174.303025 
L 194.292476 174.303025 
L 194.399572 170.633291 
L 194.534582 170.633291 
L 194.601897 168.5363 
L 194.857324 168.5363 
L 194.952897 165.915061 
L 195.051155 165.915061 
L 195.051155 165.390813 
L 195.225478 165.390813 
L 195.269147 161.721079 
L 195.511278 161.721079 
L 195.612238 158.051345 
L 195.69547 158.051345 
L 195.803943 153.333116 
L 195.838245 153.333116 
L 195.838245 152.28462 
L 195.973504 152.28462 
L 196.047432 148.090639 
L 196.08579 148.090639 
L 196.173917 145.993648 
L 196.421287 145.993648 
L 196.528487 141.799666 
L 196.555612 141.799666 
L 196.650033 138.129932 
L 196.786343 138.129932 
L 196.791424 136.557189 
L 196.920981 136.557189 
L 197.014497 134.984446 
L 197.103469 134.984446 
L 197.192811 131.314712 
L 197.233182 131.314712 
L 197.31857 128.169225 
L 197.378651 128.169225 
L 197.392792 126.596482 
L 197.49575 126.596482 
L 197.604789 121.354005 
L 197.745675 121.354005 
L 197.757916 120.30551 
L 197.86463 120.30551 
L 197.970911 116.635776 
L 198.03844 116.635776 
L 198.143768 115.58728 
L 198.182529 115.58728 
L 198.240896 113.490289 
L 198.366094 113.490289 
L 198.403917 111.917546 
L 198.499481 111.917546 
L 198.572171 109.820555 
L 198.691199 109.820555 
L 198.708631 107.723564 
L 198.822314 107.723564 
L 198.908531 105.626573 
L 198.93397 105.626573 
L 199.004425 102.481087 
L 199.059332 102.481087 
L 199.111738 98.811353 
L 199.170624 98.811353 
L 199.170729 97.23861 
L 199.303795 97.23861 
L 199.359735 95.141619 
L 199.512951 95.141619 
L 199.619098 92.520381 
L 199.686706 92.520381 
L 199.789046 89.374894 
L 199.800932 89.374894 
L 199.906231 87.802151 
L 199.912387 87.802151 
L 200.012294 85.70516 
L 200.036554 85.70516 
L 200.14391 79.938435 
L 200.166395 79.938435 
L 200.2597 76.792949 
L 200.281738 76.792949 
L 200.322477 74.695958 
L 200.444904 74.695958 
L 200.53253 72.074719 
L 200.627167 72.074719 
L 200.728891 69.977729 
L 200.759944 69.977729 
L 200.860601 65.259499 
L 200.906186 65.259499 
L 200.994627 60.017022 
L 201.024164 60.017022 
L 201.100329 57.920031 
L 201.246986 57.920031 
L 201.304315 55.82304 
L 201.385274 55.82304 
L 201.493029 52.153306 
L 201.523561 52.153306 
L 201.580984 49.00782 
L 201.640863 49.00782 
L 201.749664 44.28959 
L 201.813206 44.28959 
L 201.886054 42.192599 
L 201.944882 42.192599 
L 202.044832 35.377379 
L 202.070307 35.377379 
L 202.155722 32.231893 
L 202.289294 32.231893 
L 202.395044 29.610654 
L 202.629188 29.610654 
L 202.629188 28.562159 
L 202.744433 28.562159 
L 202.744433 27.513663 
L 333.429677 27.513663 
L 333.429677 27.513663 
" style="fill:none;stroke:#999999;stroke-linecap:square;stroke-width:1.5;"/>
   </g>
   <g id="line2d_43"/>
   <g id="line2d_44">
    <path d="M 0 0 
" style="fill:none;stroke:#999999;stroke-linecap:square;stroke-width:1.5;"/>
   </g>
   <g id="line2d_45">
    <path clip-path="url(#p4c77b3096d)" d="M 56.12 294.88 
L 56.12 294.88 
L 56.12 294.88 
L 56.12 294.88 
L 399.984 294.88 
" style="fill:none;stroke:#999999;stroke-linecap:square;stroke-width:1.5;"/>
   </g>
   <g id="line2d_46"/>
   <g id="line2d_47">
    <path clip-path="url(#p4c77b3096d)" d="M 0 0 
" style="fill:none;stroke:#999999;stroke-linecap:square;stroke-width:1.5;"/>
   </g>
   <g id="line2d_48">
    <path clip-path="url(#p4c77b3096d)" d="M 56.12 294.88 
L 56.12 294.88 
L 56.12 294.88 
L 56.12 294.88 
L 399.984 294.88 
" style="fill:none;stroke:#999999;stroke-linecap:square;stroke-width:1.5;"/>
   </g>
   <g id="line2d_49"/>
   <g id="line2d_50">
    <path clip-path="url(#p4c77b3096d)" d="M 0 0 
" style="fill:none;stroke:#999999;stroke-linecap:square;stroke-width:1.5;"/>
   </g>
   <g id="line2d_51">
    <path clip-path="url(#p4c77b3096d)" d="M 56.12 294.88 
L 56.12 294.88 
L 56.12 294.88 
L 56.12 294.88 
L 399.984 294.88 
" style="fill:none;stroke:#999999;stroke-linecap:square;stroke-width:1.5;"/>
   </g>
   <g id="line2d_52"/>
   <g id="line2d_53">
    <path clip-path="url(#p4c77b3096d)" d="M 0 0 
" style="fill:none;stroke:#999999;stroke-linecap:square;stroke-width:1.5;"/>
   </g>
   <g id="line2d_54">
    <g>
     <use style="fill:#999999;stroke:#999999;" x="198.709388" xlink:href="#me914201434" y="27.513663"/>
     <use style="fill:#999999;stroke:#999999;" x="198.709388" xlink:href="#me914201434" y="27.513663"/>
    </g>
   </g>
   <g id="line2d_55">
    <path d="M 161.115628 294.88 
L 161.115628 293.831505 
L 162.126376 293.831505 
L 162.126376 293.307257 
L 162.237606 293.307257 
L 162.237606 291.734514 
L 162.79893 291.734514 
L 162.79893 291.210266 
L 163.183711 291.210266 
L 163.183711 290.686018 
L 163.310365 290.686018 
L 163.310365 290.161771 
L 163.510757 290.161771 
L 163.510757 288.589027 
L 164.712552 288.589027 
L 164.712552 288.06478 
L 165.036562 288.06478 
L 165.036562 287.016284 
L 165.686021 287.016284 
L 165.686021 286.492036 
L 165.891341 286.492036 
L 165.891341 285.967789 
L 166.971258 285.967789 
L 166.971258 285.443541 
L 167.215958 285.443541 
L 167.215958 284.919293 
L 168.360174 284.919293 
L 168.360174 283.870798 
L 170.171624 283.870798 
L 170.206261 282.298055 
L 170.446222 282.298055 
L 170.446222 281.773807 
L 170.802744 281.773807 
L 170.802744 280.725312 
L 170.931023 280.725312 
L 170.931023 280.201064 
L 171.330423 280.201064 
L 171.334673 279.152568 
L 171.691127 279.152568 
L 171.691127 278.104073 
L 171.956522 278.104073 
L 171.961132 276.53133 
L 172.333563 276.53133 
L 172.333563 275.482834 
L 172.520021 275.482834 
L 172.520021 273.910091 
L 172.77449 273.910091 
L 172.802317 272.337348 
L 173.619641 272.337348 
L 173.624292 271.288853 
L 173.847909 271.288853 
L 173.847909 270.764605 
L 174.145525 270.764605 
L 174.145525 269.191862 
L 174.623369 269.191862 
L 174.623369 268.667614 
L 174.781051 268.667614 
L 174.781051 268.143366 
L 174.910998 268.143366 
L 174.910998 267.619119 
L 175.04725 267.619119 
L 175.095987 266.046375 
L 175.79127 266.046375 
L 175.79127 264.473632 
L 176.196461 264.473632 
L 176.267197 262.900889 
L 176.850242 262.900889 
L 176.90221 261.852394 
L 177.212271 261.852394 
L 177.212271 260.803898 
L 177.83251 260.803898 
L 177.843067 259.755403 
L 178.021545 259.755403 
L 178.035945 258.706907 
L 178.459277 258.706907 
L 178.486641 255.561421 
L 178.816479 255.561421 
L 178.880324 253.46443 
L 179.109374 253.46443 
L 179.186959 252.415935 
L 179.255482 252.415935 
L 179.255482 251.367439 
L 179.508717 251.367439 
L 179.508717 250.843192 
L 179.655416 250.843192 
L 179.655416 250.318944 
L 179.87541 250.318944 
L 179.87541 249.794696 
L 180.016143 249.794696 
L 180.016143 249.270448 
L 180.26451 249.270448 
L 180.364433 247.173458 
L 180.958765 247.173458 
L 180.958765 246.64921 
L 181.224802 246.64921 
L 181.224802 246.124962 
L 181.407694 246.124962 
L 181.423365 245.076467 
L 181.592466 245.076467 
L 181.599196 244.027971 
L 182.008518 244.027971 
L 182.081491 241.93098 
L 182.150757 241.93098 
L 182.150757 241.406733 
L 182.348217 241.406733 
L 182.348217 240.882485 
L 182.572211 240.882485 
L 182.572211 240.358237 
L 182.72496 240.358237 
L 182.72496 239.309742 
L 182.854352 239.309742 
L 182.854352 238.785494 
L 183.303683 238.785494 
L 183.404858 235.640008 
L 183.904044 235.640008 
L 183.968654 234.591512 
L 184.039117 234.591512 
L 184.119149 232.494521 
L 184.213392 232.494521 
L 184.239507 231.446026 
L 184.352798 231.446026 
L 184.429403 229.873283 
L 184.50122 229.873283 
L 184.597823 227.776292 
L 184.803263 227.776292 
L 184.886835 226.727797 
L 185.048464 226.727797 
L 185.086007 225.155053 
L 185.352189 225.155053 
L 185.374753 223.058063 
L 185.61501 223.058063 
L 185.670744 221.485319 
L 185.860408 221.485319 
L 185.860408 220.961072 
L 186.011599 220.961072 
L 186.011599 220.436824 
L 186.13812 220.436824 
L 186.195772 218.864081 
L 186.263272 218.864081 
L 186.263272 218.339833 
L 186.46133 218.339833 
L 186.56291 216.76709 
L 186.885626 216.76709 
L 186.885626 216.242842 
L 187.152267 216.242842 
L 187.236584 214.670099 
L 187.364277 214.670099 
L 187.376618 213.621604 
L 187.509298 213.621604 
L 187.577426 212.04886 
L 187.768561 212.04886 
L 187.870248 209.95187 
L 187.931296 209.95187 
L 187.959213 207.854879 
L 188.287755 207.854879 
L 188.364922 204.709392 
L 188.554582 204.709392 
L 188.653487 201.563906 
L 188.686072 201.563906 
L 188.703115 199.991163 
L 188.822525 199.991163 
L 188.856134 198.41842 
L 188.988394 198.41842 
L 189.040863 196.845677 
L 189.118134 196.845677 
L 189.167006 193.70019 
L 189.231892 193.70019 
L 189.231892 192.651695 
L 189.374157 192.651695 
L 189.387556 191.603199 
L 189.489754 191.603199 
L 189.581969 189.506209 
L 189.603844 189.506209 
L 189.682108 187.409218 
L 189.739069 187.409218 
L 189.829237 185.312227 
L 189.853335 185.312227 
L 189.929753 183.739484 
L 189.9868 183.739484 
L 190.083723 181.642493 
L 190.103185 181.642493 
L 190.111213 179.545502 
L 190.31988 179.545502 
L 190.409166 176.924263 
L 190.444716 176.924263 
L 190.55197 173.254529 
L 190.575077 173.254529 
L 190.684285 170.109043 
L 190.718411 170.109043 
L 190.802745 168.5363 
L 190.839544 168.5363 
L 190.898258 166.439309 
L 190.964752 166.439309 
L 191.020673 164.342318 
L 191.112127 164.342318 
L 191.194557 161.721079 
L 191.232534 161.721079 
L 191.30341 159.099841 
L 191.403804 159.099841 
L 191.50197 155.430107 
L 191.538946 155.430107 
L 191.603669 153.333116 
L 191.660326 153.333116 
L 191.76709 150.711877 
L 191.791858 150.711877 
L 191.823535 149.663382 
L 191.904081 149.663382 
L 191.993847 147.042143 
L 192.019728 147.042143 
L 192.115563 144.945152 
L 192.142371 144.945152 
L 192.217812 142.323914 
L 192.27972 142.323914 
L 192.368491 139.178427 
L 192.394439 139.178427 
L 192.501725 136.557189 
L 192.546218 136.557189 
L 192.632704 133.93595 
L 192.683005 133.93595 
L 192.708024 132.887455 
L 192.863306 132.887455 
L 192.962277 129.741969 
L 193.009214 129.741969 
L 193.117389 127.644978 
L 193.204038 127.644978 
L 193.313664 124.499491 
L 193.389753 124.499491 
L 193.430245 121.354005 
L 193.559623 121.354005 
L 193.609618 119.781262 
L 193.694119 119.781262 
L 193.794485 115.58728 
L 193.882527 115.58728 
L 193.934736 113.490289 
L 194.010124 113.490289 
L 194.102447 109.820555 
L 194.156392 109.820555 
L 194.248216 107.723564 
L 194.336483 107.723564 
L 194.441088 103.529583 
L 194.448021 103.529583 
L 194.543958 99.335601 
L 194.564349 99.335601 
L 194.674013 94.617371 
L 194.679075 94.617371 
L 194.782575 87.802151 
L 194.857189 87.802151 
L 194.96447 84.656665 
L 194.969447 84.656665 
L 195.053698 78.88994 
L 195.101809 78.88994 
L 195.177712 75.220206 
L 195.236075 75.220206 
L 195.346422 71.550472 
L 195.366409 71.550472 
L 195.438538 68.404985 
L 195.478146 68.404985 
L 195.569562 66.307995 
L 195.679862 66.307995 
L 195.679862 65.259499 
L 195.821487 65.259499 
L 195.821487 64.735251 
L 195.943284 64.735251 
L 196.014811 63.162508 
L 196.064729 63.162508 
L 196.17191 60.54127 
L 196.224001 60.54127 
L 196.280671 58.968526 
L 196.350067 58.968526 
L 196.392339 57.395783 
L 196.461534 57.395783 
L 196.533523 54.250297 
L 196.588327 54.250297 
L 196.659787 50.580563 
L 196.714556 50.580563 
L 196.823935 45.862334 
L 196.855903 45.862334 
L 196.930703 41.668352 
L 197.04206 41.668352 
L 197.146658 39.571361 
L 197.155543 39.571361 
L 197.233536 38.522865 
L 197.632344 38.522865 
L 197.632344 37.47437 
L 197.792648 37.47437 
L 197.89858 35.901627 
L 197.925103 35.901627 
L 197.998225 34.328884 
L 198.070589 34.328884 
L 198.144998 33.280388 
L 198.22354 33.280388 
L 198.279217 31.707645 
L 198.395984 31.707645 
L 198.493236 29.610654 
L 198.5943 29.610654 
L 198.672123 28.037911 
L 198.709388 28.037911 
L 198.709388 27.513663 
L 333.429677 27.513663 
L 333.429677 27.513663 
" style="fill:none;stroke:#999999;stroke-linecap:square;stroke-width:1.5;"/>
   </g>
   <g id="line2d_56"/>
   <g id="line2d_57">
    <path d="M 0 0 
" style="fill:none;stroke:#999999;stroke-linecap:square;stroke-width:1.5;"/>
   </g>
   <g id="line2d_58">
    <path clip-path="url(#p4c77b3096d)" d="M 56.12 294.88 
L 56.12 294.88 
L 56.12 294.88 
L 56.12 294.88 
L 399.984 294.88 
" style="fill:none;stroke:#999999;stroke-linecap:square;stroke-width:1.5;"/>
   </g>
   <g id="line2d_59"/>
   <g id="line2d_60">
    <path clip-path="url(#p4c77b3096d)" d="M 0 0 
" style="fill:none;stroke:#999999;stroke-linecap:square;stroke-width:1.5;"/>
   </g>
   <g id="line2d_61">
    <path clip-path="url(#p4c77b3096d)" d="M 56.12 294.88 
L 56.12 294.88 
L 56.12 294.88 
L 56.12 294.88 
L 399.984 294.88 
" style="fill:none;stroke:#999999;stroke-linecap:square;stroke-width:1.5;"/>
   </g>
   <g id="line2d_62"/>
   <g id="line2d_63">
    <path clip-path="url(#p4c77b3096d)" d="M 0 0 
" style="fill:none;stroke:#999999;stroke-linecap:square;stroke-width:1.5;"/>
   </g>
   <g id="line2d_64">
    <g>
     <use style="fill:#999999;stroke:#999999;" x="269.058452" xlink:href="#me914201434" y="27.513663"/>
     <use style="fill:#999999;stroke:#999999;" x="269.058452" xlink:href="#me914201434" y="27.513663"/>
    </g>
   </g>
   <g id="line2d_65">
    <path d="M 155.955062 294.88 
L 155.955062 294.355752 
L 156.24098 294.355752 
L 156.24098 293.831505 
L 156.517196 293.831505 
L 156.517196 293.307257 
L 156.870511 293.307257 
L 156.895121 292.258761 
L 157.396799 292.258761 
L 157.396799 291.734514 
L 157.534781 291.734514 
L 157.53715 290.686018 
L 157.681066 290.686018 
L 157.765438 289.113275 
L 157.823787 289.113275 
L 157.823787 288.589027 
L 158.020708 288.589027 
L 158.020708 288.06478 
L 158.307396 288.06478 
L 158.307396 287.540532 
L 158.51904 287.540532 
L 158.51904 287.016284 
L 159.087984 287.016284 
L 159.107457 285.967789 
L 159.465916 285.967789 
L 159.465916 285.443541 
L 159.597779 285.443541 
L 159.597779 284.395046 
L 160.075536 284.395046 
L 160.075536 283.870798 
L 160.757869 283.870798 
L 160.757869 283.34655 
L 161.166545 283.34655 
L 161.166545 282.822302 
L 161.356393 282.822302 
L 161.356393 281.773807 
L 161.476466 281.773807 
L 161.476466 280.725312 
L 161.671328 280.725312 
L 161.671328 280.201064 
L 161.8953 280.201064 
L 161.954964 278.628321 
L 162.193381 278.628321 
L 162.193381 278.104073 
L 162.657008 278.104073 
L 162.657008 277.579825 
L 163.678196 277.579825 
L 163.678196 277.055578 
L 163.847305 277.055578 
L 163.847305 276.007082 
L 164.191885 276.007082 
L 164.191885 274.958587 
L 164.348869 274.958587 
L 164.348869 273.910091 
L 164.808302 273.910091 
L 164.808302 273.385844 
L 165.367362 273.385844 
L 165.367362 272.861596 
L 177.427974 272.861596 
L 177.427974 272.337348 
L 177.643585 272.337348 
L 177.643585 271.8131 
L 178.155717 271.8131 
L 178.155717 271.288853 
L 178.423427 271.288853 
L 178.423427 270.764605 
L 178.67837 270.764605 
L 178.706081 269.716109 
L 179.126608 269.716109 
L 179.126608 269.191862 
L 179.500126 269.191862 
L 179.506074 267.619119 
L 179.83008 267.619119 
L 179.83008 267.094871 
L 180.514329 267.094871 
L 180.514329 266.046375 
L 180.813627 266.046375 
L 180.831377 263.949385 
L 181.691099 263.949385 
L 181.691099 263.425137 
L 182.755348 263.425137 
L 182.755348 262.376641 
L 183.355534 262.376641 
L 183.355534 261.328146 
L 183.692174 261.328146 
L 183.692174 260.803898 
L 183.904555 260.803898 
L 183.983687 259.231155 
L 184.22319 259.231155 
L 184.290618 257.134164 
L 184.681418 257.134164 
L 184.681418 256.085669 
L 184.934857 256.085669 
L 184.934857 255.561421 
L 185.264706 255.561421 
L 185.264706 255.037173 
L 185.707877 255.037173 
L 185.707877 253.988678 
L 186.08884 253.988678 
L 186.08884 253.46443 
L 186.371123 253.46443 
L 186.371123 252.415935 
L 186.490634 252.415935 
L 186.490634 251.891687 
L 186.967402 251.891687 
L 187.064342 250.318944 
L 187.285 250.318944 
L 187.285 249.794696 
L 189.042951 249.794696 
L 189.042951 249.270448 
L 191.041639 249.270448 
L 191.041639 248.746201 
L 191.445614 248.746201 
L 191.445614 248.221953 
L 194.28632 248.221953 
L 194.28632 247.697705 
L 197.385314 247.697705 
L 197.385314 247.173458 
L 198.253346 247.173458 
L 198.253346 246.64921 
L 200.280651 246.64921 
L 200.280651 245.600714 
L 200.776553 245.600714 
L 200.776553 245.076467 
L 202.619448 245.076467 
L 202.619448 244.552219 
L 203.795158 244.552219 
L 203.795158 243.503724 
L 203.950819 243.503724 
L 203.950819 242.979476 
L 204.147577 242.979476 
L 204.147577 242.455228 
L 207.40822 242.455228 
L 207.40822 241.406733 
L 208.065217 241.406733 
L 208.065217 240.882485 
L 210.973965 240.882485 
L 211.046648 238.785494 
L 211.118868 238.785494 
L 211.175064 236.688503 
L 211.309241 236.688503 
L 211.309241 236.164255 
L 211.432309 236.164255 
L 211.500565 235.11576 
L 211.646527 235.11576 
L 211.646527 234.067265 
L 211.790756 234.067265 
L 211.800922 232.494521 
L 211.9126 232.494521 
L 211.9126 231.970274 
L 212.037677 231.970274 
L 212.037677 230.921778 
L 212.436121 230.921778 
L 212.436121 230.397531 
L 212.571247 230.397531 
L 212.571247 229.873283 
L 212.755329 229.873283 
L 212.755329 229.349035 
L 213.023008 229.349035 
L 213.023008 228.30054 
L 213.484817 228.30054 
L 213.484817 227.776292 
L 213.652028 227.776292 
L 213.652028 227.252044 
L 213.788241 227.252044 
L 213.788241 226.727797 
L 213.93031 226.727797 
L 213.93031 226.203549 
L 214.124217 226.203549 
L 214.187005 224.630806 
L 214.442659 224.630806 
L 214.442659 224.106558 
L 214.969992 224.106558 
L 215.065318 222.533815 
L 215.767742 222.533815 
L 215.862434 221.485319 
L 217.112063 221.485319 
L 217.112063 220.436824 
L 218.188224 220.436824 
L 218.188224 218.864081 
L 218.751089 218.864081 
L 218.751089 218.339833 
L 219.154155 218.339833 
L 219.154155 217.815585 
L 220.143857 217.815585 
L 220.2344 216.242842 
L 220.445577 216.242842 
L 220.445577 215.718594 
L 221.295561 215.718594 
L 221.295561 215.194347 
L 221.794789 215.194347 
L 221.794789 214.670099 
L 221.922412 214.670099 
L 221.922412 214.145851 
L 222.231475 214.145851 
L 222.231475 213.621604 
L 222.359415 213.621604 
L 222.359415 213.097356 
L 222.640368 213.097356 
L 222.702968 212.04886 
L 223.062039 212.04886 
L 223.081183 211.000365 
L 223.178256 211.000365 
L 223.178256 210.476117 
L 223.354172 210.476117 
L 223.450569 208.903374 
L 223.730319 208.903374 
L 223.730319 208.379126 
L 223.900531 208.379126 
L 223.928837 206.806383 
L 224.282162 206.806383 
L 224.282162 205.757888 
L 224.63869 205.757888 
L 224.63869 205.23364 
L 225.989296 205.23364 
L 225.989296 204.709392 
L 228.418515 204.709392 
L 228.418515 204.185145 
L 228.707194 204.185145 
L 228.707194 203.660897 
L 229.154302 203.660897 
L 229.225867 201.039658 
L 229.268107 201.039658 
L 229.334695 198.41842 
L 229.479501 198.41842 
L 229.584906 194.224438 
L 229.698962 194.224438 
L 229.698962 193.70019 
L 229.853926 193.70019 
L 229.90207 192.651695 
L 229.995147 192.651695 
L 230.016645 191.078952 
L 230.214879 191.078952 
L 230.214879 190.554704 
L 230.533765 190.554704 
L 230.533765 190.030456 
L 230.780992 190.030456 
L 230.877856 188.457713 
L 230.928512 188.457713 
L 230.928512 187.933465 
L 231.82273 187.933465 
L 231.82273 187.409218 
L 232.159518 187.409218 
L 232.176666 186.360722 
L 232.361932 186.360722 
L 232.450359 184.787979 
L 232.566788 184.787979 
L 232.566788 184.263731 
L 233.144595 184.263731 
L 233.144595 183.739484 
L 233.730218 183.739484 
L 233.730218 183.215236 
L 234.432959 183.215236 
L 234.432959 182.690988 
L 234.664307 182.690988 
L 234.664307 182.16674 
L 235.066399 182.16674 
L 235.066399 181.642493 
L 245.537676 181.642493 
L 245.634197 178.497006 
L 245.663056 178.497006 
L 245.772867 175.35152 
L 245.816056 175.35152 
L 245.90737 171.681786 
L 245.92864 171.681786 
L 246.025807 169.060547 
L 246.045224 169.060547 
L 246.149128 163.81807 
L 246.169676 163.81807 
L 246.28018 159.099841 
L 246.295371 159.099841 
L 246.405189 153.857364 
L 246.423677 153.857364 
L 246.514452 147.042143 
L 246.541242 147.042143 
L 246.608061 139.178427 
L 246.662609 139.178427 
L 246.756644 136.557189 
L 246.784899 136.557189 
L 246.85643 133.411703 
L 246.90768 133.411703 
L 246.98346 130.266216 
L 247.088856 130.266216 
L 247.154913 127.644978 
L 247.650969 127.644978 
L 247.719139 125.023739 
L 247.779202 125.023739 
L 247.875073 122.926748 
L 247.927388 122.926748 
L 248.023978 119.781262 
L 248.049749 119.781262 
L 248.151354 115.58728 
L 248.165267 115.58728 
L 248.253013 112.966042 
L 248.298867 112.966042 
L 248.375416 111.393298 
L 248.957079 111.393298 
L 249.036754 107.199317 
L 249.073247 107.199317 
L 249.137242 104.05383 
L 249.196565 104.05383 
L 249.299969 100.384096 
L 249.354837 100.384096 
L 249.453444 96.714362 
L 249.488669 96.714362 
L 249.494414 95.665867 
L 249.638991 95.665867 
L 249.736796 93.568876 
L 249.758846 93.568876 
L 249.842737 88.326399 
L 249.871622 88.326399 
L 249.965471 82.559674 
L 249.983906 82.559674 
L 250.066705 77.841444 
L 250.121785 77.841444 
L 250.232415 73.123215 
L 250.244754 73.123215 
L 250.315441 69.977729 
L 250.367937 69.977729 
L 250.461097 66.832242 
L 250.493199 66.832242 
L 250.54147 65.783747 
L 250.782692 65.783747 
L 250.782692 65.259499 
L 251.541088 65.259499 
L 251.648028 63.162508 
L 251.672609 63.162508 
L 251.767104 60.017022 
L 251.891314 60.017022 
L 251.985157 56.871536 
L 252.080082 56.871536 
L 252.190434 53.201802 
L 252.194257 53.201802 
L 252.301016 46.386581 
L 252.314871 46.386581 
L 252.417026 39.571361 
L 252.435902 39.571361 
L 252.507422 35.901627 
L 253.922411 35.901627 
L 254.028137 30.65915 
L 254.054043 30.65915 
L 254.134789 29.086407 
L 254.189401 29.086407 
L 254.189401 28.562159 
L 269.058452 28.562159 
L 269.058452 27.513663 
L 333.429677 27.513663 
L 333.429677 27.513663 
" style="fill:none;stroke:#999999;stroke-linecap:square;stroke-width:1.5;"/>
   </g>
   <g id="line2d_66"/>
   <g id="line2d_67">
    <path d="M 0 0 
" style="fill:none;stroke:#999999;stroke-linecap:square;stroke-width:1.5;"/>
   </g>
   <g id="line2d_68">
    <path d="M 333.429677 294.88 
L 333.429677 27.513663 
" style="fill:none;stroke:#000000;stroke-linecap:square;stroke-width:1.5;"/>
   </g>
   <g id="patch_3">
    <path d="M 56.12 294.88 
L 56.12 24.84 
" style="fill:none;stroke:#000000;stroke-linecap:square;stroke-linejoin:miter;stroke-width:0.8;"/>
   </g>
   <g id="patch_4">
    <path d="M 399.984 294.88 
L 399.984 24.84 
" style="fill:none;stroke:#000000;stroke-linecap:square;stroke-linejoin:miter;stroke-width:0.8;"/>
   </g>
   <g id="patch_5">
    <path d="M 56.12 294.88 
L 399.984 294.88 
" style="fill:none;stroke:#000000;stroke-linecap:square;stroke-linejoin:miter;stroke-width:0.8;"/>
   </g>
   <g id="patch_6">
    <path d="M 56.12 24.84 
L 399.984 24.84 
" style="fill:none;stroke:#000000;stroke-linecap:square;stroke-linejoin:miter;stroke-width:0.8;"/>
   </g>
   <g id="text_14">
    <!-- best 2009 -->
    <defs>
     <path d="M 48.6875 27.296875 
Q 48.6875 37.203125 44.609375 42.84375 
Q 40.53125 48.484375 33.40625 48.484375 
Q 26.265625 48.484375 22.1875 42.84375 
Q 18.109375 37.203125 18.109375 27.296875 
Q 18.109375 17.390625 22.1875 11.75 
Q 26.265625 6.109375 33.40625 6.109375 
Q 40.53125 6.109375 44.609375 11.75 
Q 48.6875 17.390625 48.6875 27.296875 
z
M 18.109375 46.390625 
Q 20.953125 51.265625 25.265625 53.625 
Q 29.59375 56 35.59375 56 
Q 45.5625 56 51.78125 48.09375 
Q 58.015625 40.1875 58.015625 27.296875 
Q 58.015625 14.40625 51.78125 6.484375 
Q 45.5625 -1.421875 35.59375 -1.421875 
Q 29.59375 -1.421875 25.265625 0.953125 
Q 20.953125 3.328125 18.109375 8.203125 
L 18.109375 0 
L 9.078125 0 
L 9.078125 75.984375 
L 18.109375 75.984375 
z
" id="DejaVuSans-62"/>
     <path d="M 10.984375 1.515625 
L 10.984375 10.5 
Q 14.703125 8.734375 18.5 7.8125 
Q 22.3125 6.890625 25.984375 6.890625 
Q 35.75 6.890625 40.890625 13.453125 
Q 46.046875 20.015625 46.78125 33.40625 
Q 43.953125 29.203125 39.59375 26.953125 
Q 35.25 24.703125 29.984375 24.703125 
Q 19.046875 24.703125 12.671875 31.3125 
Q 6.296875 37.9375 6.296875 49.421875 
Q 6.296875 60.640625 12.9375 67.421875 
Q 19.578125 74.21875 30.609375 74.21875 
Q 43.265625 74.21875 49.921875 64.515625 
Q 56.59375 54.828125 56.59375 36.375 
Q 56.59375 19.140625 48.40625 8.859375 
Q 40.234375 -1.421875 26.421875 -1.421875 
Q 22.703125 -1.421875 18.890625 -0.6875 
Q 15.09375 0.046875 10.984375 1.515625 
z
M 30.609375 32.421875 
Q 37.25 32.421875 41.125 36.953125 
Q 45.015625 41.5 45.015625 49.421875 
Q 45.015625 57.28125 41.125 61.84375 
Q 37.25 66.40625 30.609375 66.40625 
Q 23.96875 66.40625 20.09375 61.84375 
Q 16.21875 57.28125 16.21875 49.421875 
Q 16.21875 41.5 20.09375 36.953125 
Q 23.96875 32.421875 30.609375 32.421875 
z
" id="DejaVuSans-39"/>
    </defs>
    <g transform="translate(369.479935 294.223611)scale(0.17 -0.17)">
     <use xlink:href="#DejaVuSans-62"/>
     <use x="63.476562" xlink:href="#DejaVuSans-65"/>
     <use x="125" xlink:href="#DejaVuSans-73"/>
     <use x="177.099609" xlink:href="#DejaVuSans-74"/>
     <use x="216.308594" xlink:href="#DejaVuSans-20"/>
     <use x="248.095703" xlink:href="#DejaVuSans-32"/>
     <use x="311.71875" xlink:href="#DejaVuSans-30"/>
     <use x="375.341797" xlink:href="#DejaVuSans-30"/>
     <use x="438.964844" xlink:href="#DejaVuSans-39"/>
    </g>
   </g>
   <g id="text_15">
    <!-- bbob f118, 40-D -->
    <defs>
     <path d="M 19.671875 64.796875 
L 19.671875 8.109375 
L 31.59375 8.109375 
Q 46.6875 8.109375 53.6875 14.9375 
Q 60.6875 21.78125 60.6875 36.53125 
Q 60.6875 51.171875 53.6875 57.984375 
Q 46.6875 64.796875 31.59375 64.796875 
z
M 9.8125 72.90625 
L 30.078125 72.90625 
Q 51.265625 72.90625 61.171875 64.09375 
Q 71.09375 55.28125 71.09375 36.53125 
Q 71.09375 17.671875 61.125 8.828125 
Q 51.171875 0 30.078125 0 
L 9.8125 0 
z
" id="DejaVuSans-44"/>
    </defs>
    <g transform="translate(59.55864 35.290806)scale(0.102 -0.102)">
     <use xlink:href="#DejaVuSans-62"/>
     <use x="63.476562" xlink:href="#DejaVuSans-62"/>
     <use x="126.953125" xlink:href="#DejaVuSans-6f"/>
     <use x="188.134766" xlink:href="#DejaVuSans-62"/>
     <use x="251.611328" xlink:href="#DejaVuSans-20"/>
     <use x="283.398438" xlink:href="#DejaVuSans-66"/>
     <use x="318.603516" xlink:href="#DejaVuSans-31"/>
     <use x="382.226562" xlink:href="#DejaVuSans-31"/>
     <use x="445.849609" xlink:href="#DejaVuSans-38"/>
     <use x="509.472656" xlink:href="#DejaVuSans-2c"/>
     <use x="541.259766" xlink:href="#DejaVuSans-20"/>
     <use x="573.046875" xlink:href="#DejaVuSans-34"/>
     <use x="636.669922" xlink:href="#DejaVuSans-30"/>
     <use x="700.292969" xlink:href="#DejaVuSans-2d"/>
     <use x="736.376953" xlink:href="#DejaVuSans-44"/>
    </g>
    <!-- 51 targets: 100..1e-08 -->
    <defs>
     <path d="M 10.796875 72.90625 
L 49.515625 72.90625 
L 49.515625 64.59375 
L 19.828125 64.59375 
L 19.828125 46.734375 
Q 21.96875 47.46875 24.109375 47.828125 
Q 26.265625 48.1875 28.421875 48.1875 
Q 40.625 48.1875 47.75 41.5 
Q 54.890625 34.8125 54.890625 23.390625 
Q 54.890625 11.625 47.5625 5.09375 
Q 40.234375 -1.421875 26.90625 -1.421875 
Q 22.3125 -1.421875 17.546875 -0.640625 
Q 12.796875 0.140625 7.71875 1.703125 
L 7.71875 11.625 
Q 12.109375 9.234375 16.796875 8.0625 
Q 21.484375 6.890625 26.703125 6.890625 
Q 35.15625 6.890625 40.078125 11.328125 
Q 45.015625 15.765625 45.015625 23.390625 
Q 45.015625 31 40.078125 35.4375 
Q 35.15625 39.890625 26.703125 39.890625 
Q 22.75 39.890625 18.8125 39.015625 
Q 14.890625 38.140625 10.796875 36.28125 
z
" id="DejaVuSans-35"/>
     <path d="M 11.71875 12.40625 
L 22.015625 12.40625 
L 22.015625 0 
L 11.71875 0 
z
M 11.71875 51.703125 
L 22.015625 51.703125 
L 22.015625 39.3125 
L 11.71875 39.3125 
z
" id="DejaVuSans-3a"/>
    </defs>
    <g transform="translate(59.55864 46.712575)scale(0.102 -0.102)">
     <use xlink:href="#DejaVuSans-35"/>
     <use x="63.623047" xlink:href="#DejaVuSans-31"/>
     <use x="127.246094" xlink:href="#DejaVuSans-20"/>
     <use x="159.033203" xlink:href="#DejaVuSans-74"/>
     <use x="198.242188" xlink:href="#DejaVuSans-61"/>
     <use x="259.521484" xlink:href="#DejaVuSans-72"/>
     <use x="300.619141" xlink:href="#DejaVuSans-67"/>
     <use x="364.095703" xlink:href="#DejaVuSans-65"/>
     <use x="425.619141" xlink:href="#DejaVuSans-74"/>
     <use x="464.828125" xlink:href="#DejaVuSans-73"/>
     <use x="516.927734" xlink:href="#DejaVuSans-3a"/>
     <use x="550.619141" xlink:href="#DejaVuSans-20"/>
     <use x="582.40625" xlink:href="#DejaVuSans-31"/>
     <use x="646.029297" xlink:href="#DejaVuSans-30"/>
     <use x="709.652344" xlink:href="#DejaVuSans-30"/>
     <use x="773.275391" xlink:href="#DejaVuSans-2e"/>
     <use x="805.0625" xlink:href="#DejaVuSans-2e"/>
     <use x="836.849609" xlink:href="#DejaVuSans-31"/>
     <use x="900.472656" xlink:href="#DejaVuSans-65"/>
     <use x="961.996094" xlink:href="#DejaVuSans-2d"/>
     <use x="998.080078" xlink:href="#DejaVuSans-30"/>
     <use x="1061.703125" xlink:href="#DejaVuSans-38"/>
    </g>
    <!-- 15 instances -->
    <g transform="translate(59.55864 58.134344)scale(0.102 -0.102)">
     <use xlink:href="#DejaVuSans-31"/>
     <use x="63.623047" xlink:href="#DejaVuSans-35"/>
     <use x="127.246094" xlink:href="#DejaVuSans-20"/>
     <use x="159.033203" xlink:href="#DejaVuSans-69"/>
     <use x="186.816406" xlink:href="#DejaVuSans-6e"/>
     <use x="250.195312" xlink:href="#DejaVuSans-73"/>
     <use x="302.294922" xlink:href="#DejaVuSans-74"/>
     <use x="341.503906" xlink:href="#DejaVuSans-61"/>
     <use x="402.783203" xlink:href="#DejaVuSans-6e"/>
     <use x="466.162109" xlink:href="#DejaVuSans-63"/>
     <use x="521.142578" xlink:href="#DejaVuSans-65"/>
     <use x="582.666016" xlink:href="#DejaVuSans-73"/>
    </g>
   </g>
   <g id="text_16">
    <!-- v2.0.778 -->
    <defs>
     <path d="M 8.203125 72.90625 
L 55.078125 72.90625 
L 55.078125 68.703125 
L 28.609375 0 
L 18.3125 0 
L 43.21875 64.59375 
L 8.203125 64.59375 
z
" id="DejaVuSans-37"/>
    </defs>
    <g style="fill:#808080;" transform="translate(206.00825 290.099912)scale(0.1 -0.1)">
     <use xlink:href="#DejaVuSans-76"/>
     <use x="59.179688" xlink:href="#DejaVuSans-32"/>
     <use x="122.802734" xlink:href="#DejaVuSans-2e"/>
     <use x="154.589844" xlink:href="#DejaVuSans-30"/>
     <use x="218.212891" xlink:href="#DejaVuSans-2e"/>
     <use x="250" xlink:href="#DejaVuSans-37"/>
     <use x="313.623047" xlink:href="#DejaVuSans-37"/>
     <use x="377.246094" xlink:href="#DejaVuSans-38"/>
    </g>
   </g>
   <g id="text_17">
    <!-- 118 Ellipsoid Cauchy -->
    <defs>
     <path d="M 9.8125 72.90625 
L 55.90625 72.90625 
L 55.90625 64.59375 
L 19.671875 64.59375 
L 19.671875 43.015625 
L 54.390625 43.015625 
L 54.390625 34.71875 
L 19.671875 34.71875 
L 19.671875 8.296875 
L 56.78125 8.296875 
L 56.78125 0 
L 9.8125 0 
z
" id="DejaVuSans-45"/>
     <path d="M 64.40625 67.28125 
L 64.40625 56.890625 
Q 59.421875 61.53125 53.78125 63.8125 
Q 48.140625 66.109375 41.796875 66.109375 
Q 29.296875 66.109375 22.65625 58.46875 
Q 16.015625 50.828125 16.015625 36.375 
Q 16.015625 21.96875 22.65625 14.328125 
Q 29.296875 6.6875 41.796875 6.6875 
Q 48.140625 6.6875 53.78125 8.984375 
Q 59.421875 11.28125 64.40625 15.921875 
L 64.40625 5.609375 
Q 59.234375 2.09375 53.4375 0.328125 
Q 47.65625 -1.421875 41.21875 -1.421875 
Q 24.65625 -1.421875 15.125 8.703125 
Q 5.609375 18.84375 5.609375 36.375 
Q 5.609375 53.953125 15.125 64.078125 
Q 24.65625 74.21875 41.21875 74.21875 
Q 47.75 74.21875 53.53125 72.484375 
Q 59.328125 70.75 64.40625 67.28125 
z
" id="DejaVuSans-43"/>
     <path d="M 54.890625 33.015625 
L 54.890625 0 
L 45.90625 0 
L 45.90625 32.71875 
Q 45.90625 40.484375 42.875 44.328125 
Q 39.84375 48.1875 33.796875 48.1875 
Q 26.515625 48.1875 22.3125 43.546875 
Q 18.109375 38.921875 18.109375 30.90625 
L 18.109375 0 
L 9.078125 0 
L 9.078125 75.984375 
L 18.109375 75.984375 
L 18.109375 46.1875 
Q 21.34375 51.125 25.703125 53.5625 
Q 30.078125 56 35.796875 56 
Q 45.21875 56 50.046875 50.171875 
Q 54.890625 44.34375 54.890625 33.015625 
z
" id="DejaVuSans-68"/>
     <path d="M 32.171875 -5.078125 
Q 28.375 -14.84375 24.75 -17.8125 
Q 21.140625 -20.796875 15.09375 -20.796875 
L 7.90625 -20.796875 
L 7.90625 -13.28125 
L 13.1875 -13.28125 
Q 16.890625 -13.28125 18.9375 -11.515625 
Q 21 -9.765625 23.484375 -3.21875 
L 25.09375 0.875 
L 2.984375 54.6875 
L 12.5 54.6875 
L 29.59375 11.921875 
L 46.6875 54.6875 
L 56.203125 54.6875 
z
" id="DejaVuSans-79"/>
    </defs>
    <g transform="translate(123.948875 18.84)scale(0.2 -0.2)">
     <use xlink:href="#DejaVuSans-31"/>
     <use x="63.623047" xlink:href="#DejaVuSans-31"/>
     <use x="127.246094" xlink:href="#DejaVuSans-38"/>
     <use x="190.869141" xlink:href="#DejaVuSans-20"/>
     <use x="222.65625" xlink:href="#DejaVuSans-45"/>
     <use x="285.839844" xlink:href="#DejaVuSans-6c"/>
     <use x="313.623047" xlink:href="#DejaVuSans-6c"/>
     <use x="341.40625" xlink:href="#DejaVuSans-69"/>
     <use x="369.189453" xlink:href="#DejaVuSans-70"/>
     <use x="432.666016" xlink:href="#DejaVuSans-73"/>
     <use x="484.765625" xlink:href="#DejaVuSans-6f"/>
     <use x="545.947266" xlink:href="#DejaVuSans-69"/>
     <use x="573.730469" xlink:href="#DejaVuSans-64"/>
     <use x="637.207031" xlink:href="#DejaVuSans-20"/>
     <use x="668.994141" xlink:href="#DejaVuSans-43"/>
     <use x="738.818359" xlink:href="#DejaVuSans-61"/>
     <use x="800.097656" xlink:href="#DejaVuSans-75"/>
     <use x="863.476562" xlink:href="#DejaVuSans-63"/>
     <use x="918.457031" xlink:href="#DejaVuSans-68"/>
     <use x="981.835938" xlink:href="#DejaVuSans-79"/>
    </g>
   </g>
  </g>
 </g>
 <defs>
  <clipPath id="p4c77b3096d">
   <rect height="270.04" width="343.864" x="56.12" y="24.84"/>
  </clipPath>
 </defs>
</svg>
