<?xml version="1.0" encoding="utf-8" standalone="no"?>
<!DOCTYPE svg PUBLIC "-//W3C//DTD SVG 1.1//EN"
  "http://www.w3.org/Graphics/SVG/1.1/DTD/svg11.dtd">
<!-- Created with matplotlib (http://matplotlib.org/) -->
<svg height="345pt" version="1.1" viewBox="0 0 460 345" width="460pt" xmlns="http://www.w3.org/2000/svg" xmlns:xlink="http://www.w3.org/1999/xlink">
 <defs>
  <style type="text/css">
*{stroke-linecap:butt;stroke-linejoin:round;}
  </style>
 </defs>
 <g id="figure_1">
  <g id="patch_1">
   <path d="M 0 345.6 
L 460.8 345.6 
L 460.8 0 
L 0 0 
z
" style="fill:#ffffff;"/>
  </g>
  <g id="axes_1">
   <g id="patch_2">
    <path d="M 56.12 294.88 
L 399.984 294.88 
L 399.984 24.84 
L 56.12 24.84 
z
" style="fill:#ffffff;"/>
   </g>
   <g id="line2d_1">
    <path d="M 186.467504 294.88 
L 186.467504 289.637523 
L 193.80931 289.637523 
L 193.80931 284.395046 
L 197.574531 284.395046 
L 197.574531 279.152568 
L 201.240543 279.152568 
L 201.240543 273.910091 
L 202.992471 273.910091 
L 202.992471 268.667614 
L 211.361759 268.667614 
L 211.361759 263.425137 
L 321.765365 263.425137 
L 321.765365 258.18266 
L 333.429677 258.18266 
" style="fill:none;stroke:#f5deb3;stroke-linecap:square;stroke-width:6;"/>
   </g>
   <g id="line2d_2">
    <path d="M 0 0 
" style="fill:none;stroke:#f5deb3;stroke-linecap:square;stroke-width:6;"/>
    <defs>
     <path d="M -0 7.778175 
L 7.778175 0 
L 0 -7.778175 
L -7.778175 -0 
z
" id="mdfbdd96abf" style="stroke:#f5deb3;stroke-linejoin:miter;stroke-width:1.5;"/>
    </defs>
    <g>
     <use style="fill:#f5deb3;stroke:#f5deb3;stroke-linejoin:miter;stroke-width:1.5;" x="0" xlink:href="#mdfbdd96abf" y="0"/>
    </g>
   </g>
   <g id="line2d_3">
    <path d="M 333.429677 258.18266 
L 363.933742 32.86099 
" style="fill:none;stroke:#f5deb3;stroke-linecap:square;stroke-width:6;"/>
    <g>
     <use style="fill:#f5deb3;stroke:#f5deb3;stroke-linejoin:miter;stroke-width:1.5;" x="333.429677" xlink:href="#mdfbdd96abf" y="258.18266"/>
     <use style="fill:#f5deb3;stroke:#f5deb3;stroke-linejoin:miter;stroke-width:1.5;" x="363.933742" xlink:href="#mdfbdd96abf" y="32.86099"/>
    </g>
   </g>
   <g id="matplotlib.axis_1">
    <g id="xtick_1">
     <g id="line2d_4">
      <path clip-path="url(#p66bca8480d)" d="M 56.12 294.88 
L 56.12 24.84 
" style="fill:none;stroke:#b0b0b0;stroke-linecap:square;stroke-width:0.8;"/>
     </g>
     <g id="line2d_5">
      <defs>
       <path d="M 0 0 
L 0 3.5 
" id="m85efcf7d78" style="stroke:#000000;stroke-width:0.8;"/>
      </defs>
      <g>
       <use style="stroke:#000000;stroke-width:0.8;" x="56.12" xlink:href="#m85efcf7d78" y="294.88"/>
      </g>
     </g>
     <g id="text_1">
      <!-- 0 -->
      <defs>
       <path d="M 31.78125 66.40625 
Q 24.171875 66.40625 20.328125 58.90625 
Q 16.5 51.421875 16.5 36.375 
Q 16.5 21.390625 20.328125 13.890625 
Q 24.171875 6.390625 31.78125 6.390625 
Q 39.453125 6.390625 43.28125 13.890625 
Q 47.125 21.390625 47.125 36.375 
Q 47.125 51.421875 43.28125 58.90625 
Q 39.453125 66.40625 31.78125 66.40625 
z
M 31.78125 74.21875 
Q 44.046875 74.21875 50.515625 64.515625 
Q 56.984375 54.828125 56.984375 36.375 
Q 56.984375 17.96875 50.515625 8.265625 
Q 44.046875 -1.421875 31.78125 -1.421875 
Q 19.53125 -1.421875 13.0625 8.265625 
Q 6.59375 17.96875 6.59375 36.375 
Q 6.59375 54.828125 13.0625 64.515625 
Q 19.53125 74.21875 31.78125 74.21875 
z
" id="DejaVuSans-30"/>
      </defs>
      <g transform="translate(49.7575 317.076875)scale(0.2 -0.2)">
       <use xlink:href="#DejaVuSans-30"/>
      </g>
     </g>
    </g>
    <g id="xtick_2">
     <g id="line2d_6">
      <path clip-path="url(#p66bca8480d)" d="M 135.351336 294.88 
L 135.351336 24.84 
" style="fill:none;stroke:#b0b0b0;stroke-linecap:square;stroke-width:0.8;"/>
     </g>
     <g id="line2d_7">
      <g>
       <use style="stroke:#000000;stroke-width:0.8;" x="135.351336" xlink:href="#m85efcf7d78" y="294.88"/>
      </g>
     </g>
     <g id="text_2">
      <!-- 2 -->
      <defs>
       <path d="M 19.1875 8.296875 
L 53.609375 8.296875 
L 53.609375 0 
L 7.328125 0 
L 7.328125 8.296875 
Q 12.9375 14.109375 22.625 23.890625 
Q 32.328125 33.6875 34.8125 36.53125 
Q 39.546875 41.84375 41.421875 45.53125 
Q 43.3125 49.21875 43.3125 52.78125 
Q 43.3125 58.59375 39.234375 62.25 
Q 35.15625 65.921875 28.609375 65.921875 
Q 23.96875 65.921875 18.8125 64.3125 
Q 13.671875 62.703125 7.8125 59.421875 
L 7.8125 69.390625 
Q 13.765625 71.78125 18.9375 73 
Q 24.125 74.21875 28.421875 74.21875 
Q 39.75 74.21875 46.484375 68.546875 
Q 53.21875 62.890625 53.21875 53.421875 
Q 53.21875 48.921875 51.53125 44.890625 
Q 49.859375 40.875 45.40625 35.40625 
Q 44.1875 33.984375 37.640625 27.21875 
Q 31.109375 20.453125 19.1875 8.296875 
z
" id="DejaVuSans-32"/>
      </defs>
      <g transform="translate(128.988836 317.076875)scale(0.2 -0.2)">
       <use xlink:href="#DejaVuSans-32"/>
      </g>
     </g>
    </g>
    <g id="xtick_3">
     <g id="line2d_8">
      <path clip-path="url(#p66bca8480d)" d="M 214.582673 294.88 
L 214.582673 24.84 
" style="fill:none;stroke:#b0b0b0;stroke-linecap:square;stroke-width:0.8;"/>
     </g>
     <g id="line2d_9">
      <g>
       <use style="stroke:#000000;stroke-width:0.8;" x="214.582673" xlink:href="#m85efcf7d78" y="294.88"/>
      </g>
     </g>
     <g id="text_3">
      <!-- 4 -->
      <defs>
       <path d="M 37.796875 64.3125 
L 12.890625 25.390625 
L 37.796875 25.390625 
z
M 35.203125 72.90625 
L 47.609375 72.90625 
L 47.609375 25.390625 
L 58.015625 25.390625 
L 58.015625 17.1875 
L 47.609375 17.1875 
L 47.609375 0 
L 37.796875 0 
L 37.796875 17.1875 
L 4.890625 17.1875 
L 4.890625 26.703125 
z
" id="DejaVuSans-34"/>
      </defs>
      <g transform="translate(208.220173 317.076875)scale(0.2 -0.2)">
       <use xlink:href="#DejaVuSans-34"/>
      </g>
     </g>
    </g>
    <g id="xtick_4">
     <g id="line2d_10">
      <path clip-path="url(#p66bca8480d)" d="M 293.814009 294.88 
L 293.814009 24.84 
" style="fill:none;stroke:#b0b0b0;stroke-linecap:square;stroke-width:0.8;"/>
     </g>
     <g id="line2d_11">
      <g>
       <use style="stroke:#000000;stroke-width:0.8;" x="293.814009" xlink:href="#m85efcf7d78" y="294.88"/>
      </g>
     </g>
     <g id="text_4">
      <!-- 6 -->
      <defs>
       <path d="M 33.015625 40.375 
Q 26.375 40.375 22.484375 35.828125 
Q 18.609375 31.296875 18.609375 23.390625 
Q 18.609375 15.53125 22.484375 10.953125 
Q 26.375 6.390625 33.015625 6.390625 
Q 39.65625 6.390625 43.53125 10.953125 
Q 47.40625 15.53125 47.40625 23.390625 
Q 47.40625 31.296875 43.53125 35.828125 
Q 39.65625 40.375 33.015625 40.375 
z
M 52.59375 71.296875 
L 52.59375 62.3125 
Q 48.875 64.0625 45.09375 64.984375 
Q 41.3125 65.921875 37.59375 65.921875 
Q 27.828125 65.921875 22.671875 59.328125 
Q 17.53125 52.734375 16.796875 39.40625 
Q 19.671875 43.65625 24.015625 45.921875 
Q 28.375 48.1875 33.59375 48.1875 
Q 44.578125 48.1875 50.953125 41.515625 
Q 57.328125 34.859375 57.328125 23.390625 
Q 57.328125 12.15625 50.6875 5.359375 
Q 44.046875 -1.421875 33.015625 -1.421875 
Q 20.359375 -1.421875 13.671875 8.265625 
Q 6.984375 17.96875 6.984375 36.375 
Q 6.984375 53.65625 15.1875 63.9375 
Q 23.390625 74.21875 37.203125 74.21875 
Q 40.921875 74.21875 44.703125 73.484375 
Q 48.484375 72.75 52.59375 71.296875 
z
" id="DejaVuSans-36"/>
      </defs>
      <g transform="translate(287.451509 317.076875)scale(0.2 -0.2)">
       <use xlink:href="#DejaVuSans-36"/>
      </g>
     </g>
    </g>
    <g id="xtick_5">
     <g id="line2d_12">
      <path clip-path="url(#p66bca8480d)" d="M 373.045346 294.88 
L 373.045346 24.84 
" style="fill:none;stroke:#b0b0b0;stroke-linecap:square;stroke-width:0.8;"/>
     </g>
     <g id="line2d_13">
      <g>
       <use style="stroke:#000000;stroke-width:0.8;" x="373.045346" xlink:href="#m85efcf7d78" y="294.88"/>
      </g>
     </g>
     <g id="text_5">
      <!-- 8 -->
      <defs>
       <path d="M 31.78125 34.625 
Q 24.75 34.625 20.71875 30.859375 
Q 16.703125 27.09375 16.703125 20.515625 
Q 16.703125 13.921875 20.71875 10.15625 
Q 24.75 6.390625 31.78125 6.390625 
Q 38.8125 6.390625 42.859375 10.171875 
Q 46.921875 13.96875 46.921875 20.515625 
Q 46.921875 27.09375 42.890625 30.859375 
Q 38.875 34.625 31.78125 34.625 
z
M 21.921875 38.8125 
Q 15.578125 40.375 12.03125 44.71875 
Q 8.5 49.078125 8.5 55.328125 
Q 8.5 64.0625 14.71875 69.140625 
Q 20.953125 74.21875 31.78125 74.21875 
Q 42.671875 74.21875 48.875 69.140625 
Q 55.078125 64.0625 55.078125 55.328125 
Q 55.078125 49.078125 51.53125 44.71875 
Q 48 40.375 41.703125 38.8125 
Q 48.828125 37.15625 52.796875 32.3125 
Q 56.78125 27.484375 56.78125 20.515625 
Q 56.78125 9.90625 50.3125 4.234375 
Q 43.84375 -1.421875 31.78125 -1.421875 
Q 19.734375 -1.421875 13.25 4.234375 
Q 6.78125 9.90625 6.78125 20.515625 
Q 6.78125 27.484375 10.78125 32.3125 
Q 14.796875 37.15625 21.921875 38.8125 
z
M 18.3125 54.390625 
Q 18.3125 48.734375 21.84375 45.5625 
Q 25.390625 42.390625 31.78125 42.390625 
Q 38.140625 42.390625 41.71875 45.5625 
Q 45.3125 48.734375 45.3125 54.390625 
Q 45.3125 60.0625 41.71875 63.234375 
Q 38.140625 66.40625 31.78125 66.40625 
Q 25.390625 66.40625 21.84375 63.234375 
Q 18.3125 60.0625 18.3125 54.390625 
z
" id="DejaVuSans-38"/>
      </defs>
      <g transform="translate(366.682846 317.076875)scale(0.2 -0.2)">
       <use xlink:href="#DejaVuSans-38"/>
      </g>
     </g>
    </g>
    <g id="text_6">
     <!-- log10(# f-evals / dimension) -->
     <defs>
      <path d="M 9.421875 75.984375 
L 18.40625 75.984375 
L 18.40625 0 
L 9.421875 0 
z
" id="DejaVuSans-6c"/>
      <path d="M 30.609375 48.390625 
Q 23.390625 48.390625 19.1875 42.75 
Q 14.984375 37.109375 14.984375 27.296875 
Q 14.984375 17.484375 19.15625 11.84375 
Q 23.34375 6.203125 30.609375 6.203125 
Q 37.796875 6.203125 41.984375 11.859375 
Q 46.1875 17.53125 46.1875 27.296875 
Q 46.1875 37.015625 41.984375 42.703125 
Q 37.796875 48.390625 30.609375 48.390625 
z
M 30.609375 56 
Q 42.328125 56 49.015625 48.375 
Q 55.71875 40.765625 55.71875 27.296875 
Q 55.71875 13.875 49.015625 6.21875 
Q 42.328125 -1.421875 30.609375 -1.421875 
Q 18.84375 -1.421875 12.171875 6.21875 
Q 5.515625 13.875 5.515625 27.296875 
Q 5.515625 40.765625 12.171875 48.375 
Q 18.84375 56 30.609375 56 
z
" id="DejaVuSans-6f"/>
      <path d="M 45.40625 27.984375 
Q 45.40625 37.75 41.375 43.109375 
Q 37.359375 48.484375 30.078125 48.484375 
Q 22.859375 48.484375 18.828125 43.109375 
Q 14.796875 37.75 14.796875 27.984375 
Q 14.796875 18.265625 18.828125 12.890625 
Q 22.859375 7.515625 30.078125 7.515625 
Q 37.359375 7.515625 41.375 12.890625 
Q 45.40625 18.265625 45.40625 27.984375 
z
M 54.390625 6.78125 
Q 54.390625 -7.171875 48.1875 -13.984375 
Q 42 -20.796875 29.203125 -20.796875 
Q 24.46875 -20.796875 20.265625 -20.09375 
Q 16.0625 -19.390625 12.109375 -17.921875 
L 12.109375 -9.1875 
Q 16.0625 -11.328125 19.921875 -12.34375 
Q 23.78125 -13.375 27.78125 -13.375 
Q 36.625 -13.375 41.015625 -8.765625 
Q 45.40625 -4.15625 45.40625 5.171875 
L 45.40625 9.625 
Q 42.625 4.78125 38.28125 2.390625 
Q 33.9375 0 27.875 0 
Q 17.828125 0 11.671875 7.65625 
Q 5.515625 15.328125 5.515625 27.984375 
Q 5.515625 40.671875 11.671875 48.328125 
Q 17.828125 56 27.875 56 
Q 33.9375 56 38.28125 53.609375 
Q 42.625 51.21875 45.40625 46.390625 
L 45.40625 54.6875 
L 54.390625 54.6875 
z
" id="DejaVuSans-67"/>
      <path d="M 12.40625 8.296875 
L 28.515625 8.296875 
L 28.515625 63.921875 
L 10.984375 60.40625 
L 10.984375 69.390625 
L 28.421875 72.90625 
L 38.28125 72.90625 
L 38.28125 8.296875 
L 54.390625 8.296875 
L 54.390625 0 
L 12.40625 0 
z
" id="DejaVuSans-31"/>
      <path d="M 31 75.875 
Q 24.46875 64.65625 21.28125 53.65625 
Q 18.109375 42.671875 18.109375 31.390625 
Q 18.109375 20.125 21.3125 9.0625 
Q 24.515625 -2 31 -13.1875 
L 23.1875 -13.1875 
Q 15.875 -1.703125 12.234375 9.375 
Q 8.59375 20.453125 8.59375 31.390625 
Q 8.59375 42.28125 12.203125 53.3125 
Q 15.828125 64.359375 23.1875 75.875 
z
" id="DejaVuSans-28"/>
      <path d="M 51.125 44 
L 36.921875 44 
L 32.8125 27.6875 
L 47.125 27.6875 
z
M 43.796875 71.78125 
L 38.71875 51.515625 
L 52.984375 51.515625 
L 58.109375 71.78125 
L 65.921875 71.78125 
L 60.890625 51.515625 
L 76.125 51.515625 
L 76.125 44 
L 58.984375 44 
L 54.984375 27.6875 
L 70.515625 27.6875 
L 70.515625 20.21875 
L 53.078125 20.21875 
L 48 0 
L 40.1875 0 
L 45.21875 20.21875 
L 30.90625 20.21875 
L 25.875 0 
L 18.015625 0 
L 23.09375 20.21875 
L 7.71875 20.21875 
L 7.71875 27.6875 
L 24.90625 27.6875 
L 29 44 
L 13.28125 44 
L 13.28125 51.515625 
L 30.90625 51.515625 
L 35.890625 71.78125 
z
" id="DejaVuSans-23"/>
      <path id="DejaVuSans-20"/>
      <path d="M 37.109375 75.984375 
L 37.109375 68.5 
L 28.515625 68.5 
Q 23.6875 68.5 21.796875 66.546875 
Q 19.921875 64.59375 19.921875 59.515625 
L 19.921875 54.6875 
L 34.71875 54.6875 
L 34.71875 47.703125 
L 19.921875 47.703125 
L 19.921875 0 
L 10.890625 0 
L 10.890625 47.703125 
L 2.296875 47.703125 
L 2.296875 54.6875 
L 10.890625 54.6875 
L 10.890625 58.5 
Q 10.890625 67.625 15.140625 71.796875 
Q 19.390625 75.984375 28.609375 75.984375 
z
" id="DejaVuSans-66"/>
      <path d="M 4.890625 31.390625 
L 31.203125 31.390625 
L 31.203125 23.390625 
L 4.890625 23.390625 
z
" id="DejaVuSans-2d"/>
      <path d="M 56.203125 29.59375 
L 56.203125 25.203125 
L 14.890625 25.203125 
Q 15.484375 15.921875 20.484375 11.0625 
Q 25.484375 6.203125 34.421875 6.203125 
Q 39.59375 6.203125 44.453125 7.46875 
Q 49.3125 8.734375 54.109375 11.28125 
L 54.109375 2.78125 
Q 49.265625 0.734375 44.1875 -0.34375 
Q 39.109375 -1.421875 33.890625 -1.421875 
Q 20.796875 -1.421875 13.15625 6.1875 
Q 5.515625 13.8125 5.515625 26.8125 
Q 5.515625 40.234375 12.765625 48.109375 
Q 20.015625 56 32.328125 56 
Q 43.359375 56 49.78125 48.890625 
Q 56.203125 41.796875 56.203125 29.59375 
z
M 47.21875 32.234375 
Q 47.125 39.59375 43.09375 43.984375 
Q 39.0625 48.390625 32.421875 48.390625 
Q 24.90625 48.390625 20.390625 44.140625 
Q 15.875 39.890625 15.1875 32.171875 
z
" id="DejaVuSans-65"/>
      <path d="M 2.984375 54.6875 
L 12.5 54.6875 
L 29.59375 8.796875 
L 46.6875 54.6875 
L 56.203125 54.6875 
L 35.6875 0 
L 23.484375 0 
z
" id="DejaVuSans-76"/>
      <path d="M 34.28125 27.484375 
Q 23.390625 27.484375 19.1875 25 
Q 14.984375 22.515625 14.984375 16.5 
Q 14.984375 11.71875 18.140625 8.90625 
Q 21.296875 6.109375 26.703125 6.109375 
Q 34.1875 6.109375 38.703125 11.40625 
Q 43.21875 16.703125 43.21875 25.484375 
L 43.21875 27.484375 
z
M 52.203125 31.203125 
L 52.203125 0 
L 43.21875 0 
L 43.21875 8.296875 
Q 40.140625 3.328125 35.546875 0.953125 
Q 30.953125 -1.421875 24.3125 -1.421875 
Q 15.921875 -1.421875 10.953125 3.296875 
Q 6 8.015625 6 15.921875 
Q 6 25.140625 12.171875 29.828125 
Q 18.359375 34.515625 30.609375 34.515625 
L 43.21875 34.515625 
L 43.21875 35.40625 
Q 43.21875 41.609375 39.140625 45 
Q 35.0625 48.390625 27.6875 48.390625 
Q 23 48.390625 18.546875 47.265625 
Q 14.109375 46.140625 10.015625 43.890625 
L 10.015625 52.203125 
Q 14.9375 54.109375 19.578125 55.046875 
Q 24.21875 56 28.609375 56 
Q 40.484375 56 46.34375 49.84375 
Q 52.203125 43.703125 52.203125 31.203125 
z
" id="DejaVuSans-61"/>
      <path d="M 44.28125 53.078125 
L 44.28125 44.578125 
Q 40.484375 46.53125 36.375 47.5 
Q 32.28125 48.484375 27.875 48.484375 
Q 21.1875 48.484375 17.84375 46.4375 
Q 14.5 44.390625 14.5 40.28125 
Q 14.5 37.15625 16.890625 35.375 
Q 19.28125 33.59375 26.515625 31.984375 
L 29.59375 31.296875 
Q 39.15625 29.25 43.1875 25.515625 
Q 47.21875 21.78125 47.21875 15.09375 
Q 47.21875 7.46875 41.1875 3.015625 
Q 35.15625 -1.421875 24.609375 -1.421875 
Q 20.21875 -1.421875 15.453125 -0.5625 
Q 10.6875 0.296875 5.421875 2 
L 5.421875 11.28125 
Q 10.40625 8.6875 15.234375 7.390625 
Q 20.0625 6.109375 24.8125 6.109375 
Q 31.15625 6.109375 34.5625 8.28125 
Q 37.984375 10.453125 37.984375 14.40625 
Q 37.984375 18.0625 35.515625 20.015625 
Q 33.0625 21.96875 24.703125 23.78125 
L 21.578125 24.515625 
Q 13.234375 26.265625 9.515625 29.90625 
Q 5.8125 33.546875 5.8125 39.890625 
Q 5.8125 47.609375 11.28125 51.796875 
Q 16.75 56 26.8125 56 
Q 31.78125 56 36.171875 55.265625 
Q 40.578125 54.546875 44.28125 53.078125 
z
" id="DejaVuSans-73"/>
      <path d="M 25.390625 72.90625 
L 33.6875 72.90625 
L 8.296875 -9.28125 
L 0 -9.28125 
z
" id="DejaVuSans-2f"/>
      <path d="M 45.40625 46.390625 
L 45.40625 75.984375 
L 54.390625 75.984375 
L 54.390625 0 
L 45.40625 0 
L 45.40625 8.203125 
Q 42.578125 3.328125 38.25 0.953125 
Q 33.9375 -1.421875 27.875 -1.421875 
Q 17.96875 -1.421875 11.734375 6.484375 
Q 5.515625 14.40625 5.515625 27.296875 
Q 5.515625 40.1875 11.734375 48.09375 
Q 17.96875 56 27.875 56 
Q 33.9375 56 38.25 53.625 
Q 42.578125 51.265625 45.40625 46.390625 
z
M 14.796875 27.296875 
Q 14.796875 17.390625 18.875 11.75 
Q 22.953125 6.109375 30.078125 6.109375 
Q 37.203125 6.109375 41.296875 11.75 
Q 45.40625 17.390625 45.40625 27.296875 
Q 45.40625 37.203125 41.296875 42.84375 
Q 37.203125 48.484375 30.078125 48.484375 
Q 22.953125 48.484375 18.875 42.84375 
Q 14.796875 37.203125 14.796875 27.296875 
z
" id="DejaVuSans-64"/>
      <path d="M 9.421875 54.6875 
L 18.40625 54.6875 
L 18.40625 0 
L 9.421875 0 
z
M 9.421875 75.984375 
L 18.40625 75.984375 
L 18.40625 64.59375 
L 9.421875 64.59375 
z
" id="DejaVuSans-69"/>
      <path d="M 52 44.1875 
Q 55.375 50.25 60.0625 53.125 
Q 64.75 56 71.09375 56 
Q 79.640625 56 84.28125 50.015625 
Q 88.921875 44.046875 88.921875 33.015625 
L 88.921875 0 
L 79.890625 0 
L 79.890625 32.71875 
Q 79.890625 40.578125 77.09375 44.375 
Q 74.3125 48.1875 68.609375 48.1875 
Q 61.625 48.1875 57.5625 43.546875 
Q 53.515625 38.921875 53.515625 30.90625 
L 53.515625 0 
L 44.484375 0 
L 44.484375 32.71875 
Q 44.484375 40.625 41.703125 44.40625 
Q 38.921875 48.1875 33.109375 48.1875 
Q 26.21875 48.1875 22.15625 43.53125 
Q 18.109375 38.875 18.109375 30.90625 
L 18.109375 0 
L 9.078125 0 
L 9.078125 54.6875 
L 18.109375 54.6875 
L 18.109375 46.1875 
Q 21.1875 51.21875 25.484375 53.609375 
Q 29.78125 56 35.6875 56 
Q 41.65625 56 45.828125 52.96875 
Q 50 49.953125 52 44.1875 
z
" id="DejaVuSans-6d"/>
      <path d="M 54.890625 33.015625 
L 54.890625 0 
L 45.90625 0 
L 45.90625 32.71875 
Q 45.90625 40.484375 42.875 44.328125 
Q 39.84375 48.1875 33.796875 48.1875 
Q 26.515625 48.1875 22.3125 43.546875 
Q 18.109375 38.921875 18.109375 30.90625 
L 18.109375 0 
L 9.078125 0 
L 9.078125 54.6875 
L 18.109375 54.6875 
L 18.109375 46.1875 
Q 21.34375 51.125 25.703125 53.5625 
Q 30.078125 56 35.796875 56 
Q 45.21875 56 50.046875 50.171875 
Q 54.890625 44.34375 54.890625 33.015625 
z
" id="DejaVuSans-6e"/>
      <path d="M 8.015625 75.875 
L 15.828125 75.875 
Q 23.140625 64.359375 26.78125 53.3125 
Q 30.421875 42.28125 30.421875 31.390625 
Q 30.421875 20.453125 26.78125 9.375 
Q 23.140625 -1.703125 15.828125 -13.1875 
L 8.015625 -13.1875 
Q 14.5 -2 17.703125 9.0625 
Q 20.90625 20.125 20.90625 31.390625 
Q 20.90625 42.671875 17.703125 53.65625 
Q 14.5 64.65625 8.015625 75.875 
z
" id="DejaVuSans-29"/>
     </defs>
     <g transform="translate(107.211219 338.153594)scale(0.17 -0.17)">
      <use xlink:href="#DejaVuSans-6c"/>
      <use x="27.783203" xlink:href="#DejaVuSans-6f"/>
      <use x="88.964844" xlink:href="#DejaVuSans-67"/>
      <use x="152.441406" xlink:href="#DejaVuSans-31"/>
      <use x="216.064453" xlink:href="#DejaVuSans-30"/>
      <use x="279.6875" xlink:href="#DejaVuSans-28"/>
      <use x="318.701172" xlink:href="#DejaVuSans-23"/>
      <use x="402.490234" xlink:href="#DejaVuSans-20"/>
      <use x="434.277344" xlink:href="#DejaVuSans-66"/>
      <use x="469.404297" xlink:href="#DejaVuSans-2d"/>
      <use x="505.488281" xlink:href="#DejaVuSans-65"/>
      <use x="567.011719" xlink:href="#DejaVuSans-76"/>
      <use x="626.191406" xlink:href="#DejaVuSans-61"/>
      <use x="687.470703" xlink:href="#DejaVuSans-6c"/>
      <use x="715.253906" xlink:href="#DejaVuSans-73"/>
      <use x="767.353516" xlink:href="#DejaVuSans-20"/>
      <use x="799.140625" xlink:href="#DejaVuSans-2f"/>
      <use x="832.832031" xlink:href="#DejaVuSans-20"/>
      <use x="864.619141" xlink:href="#DejaVuSans-64"/>
      <use x="928.095703" xlink:href="#DejaVuSans-69"/>
      <use x="955.878906" xlink:href="#DejaVuSans-6d"/>
      <use x="1053.291016" xlink:href="#DejaVuSans-65"/>
      <use x="1114.814453" xlink:href="#DejaVuSans-6e"/>
      <use x="1178.193359" xlink:href="#DejaVuSans-73"/>
      <use x="1230.292969" xlink:href="#DejaVuSans-69"/>
      <use x="1258.076172" xlink:href="#DejaVuSans-6f"/>
      <use x="1319.257812" xlink:href="#DejaVuSans-6e"/>
      <use x="1382.636719" xlink:href="#DejaVuSans-29"/>
     </g>
    </g>
   </g>
   <g id="matplotlib.axis_2">
    <g id="ytick_1">
     <g id="line2d_14">
      <path clip-path="url(#p66bca8480d)" d="M 56.12 294.88 
L 399.984 294.88 
" style="fill:none;stroke:#b0b0b0;stroke-linecap:square;stroke-width:0.8;"/>
     </g>
     <g id="line2d_15">
      <defs>
       <path d="M 0 0 
L -3.5 0 
" id="m416bb771fa" style="stroke:#000000;stroke-width:0.8;"/>
      </defs>
      <g>
       <use style="stroke:#000000;stroke-width:0.8;" x="56.12" xlink:href="#m416bb771fa" y="294.88"/>
      </g>
     </g>
     <g id="text_7">
      <!-- 0.0 -->
      <defs>
       <path d="M 10.6875 12.40625 
L 21 12.40625 
L 21 0 
L 10.6875 0 
z
" id="DejaVuSans-2e"/>
      </defs>
      <g transform="translate(23.675 300.95875)scale(0.16 -0.16)">
       <use xlink:href="#DejaVuSans-30"/>
       <use x="63.623047" xlink:href="#DejaVuSans-2e"/>
       <use x="95.410156" xlink:href="#DejaVuSans-30"/>
      </g>
     </g>
    </g>
    <g id="ytick_2">
     <g id="line2d_16">
      <path clip-path="url(#p66bca8480d)" d="M 56.12 241.406733 
L 399.984 241.406733 
" style="fill:none;stroke:#b0b0b0;stroke-linecap:square;stroke-width:0.8;"/>
     </g>
     <g id="line2d_17">
      <g>
       <use style="stroke:#000000;stroke-width:0.8;" x="56.12" xlink:href="#m416bb771fa" y="241.406733"/>
      </g>
     </g>
     <g id="text_8">
      <!-- 0.2 -->
      <g transform="translate(23.675 247.485483)scale(0.16 -0.16)">
       <use xlink:href="#DejaVuSans-30"/>
       <use x="63.623047" xlink:href="#DejaVuSans-2e"/>
       <use x="95.410156" xlink:href="#DejaVuSans-32"/>
      </g>
     </g>
    </g>
    <g id="ytick_3">
     <g id="line2d_18">
      <path clip-path="url(#p66bca8480d)" d="M 56.12 187.933465 
L 399.984 187.933465 
" style="fill:none;stroke:#b0b0b0;stroke-linecap:square;stroke-width:0.8;"/>
     </g>
     <g id="line2d_19">
      <g>
       <use style="stroke:#000000;stroke-width:0.8;" x="56.12" xlink:href="#m416bb771fa" y="187.933465"/>
      </g>
     </g>
     <g id="text_9">
      <!-- 0.4 -->
      <g transform="translate(23.675 194.012215)scale(0.16 -0.16)">
       <use xlink:href="#DejaVuSans-30"/>
       <use x="63.623047" xlink:href="#DejaVuSans-2e"/>
       <use x="95.410156" xlink:href="#DejaVuSans-34"/>
      </g>
     </g>
    </g>
    <g id="ytick_4">
     <g id="line2d_20">
      <path clip-path="url(#p66bca8480d)" d="M 56.12 134.460198 
L 399.984 134.460198 
" style="fill:none;stroke:#b0b0b0;stroke-linecap:square;stroke-width:0.8;"/>
     </g>
     <g id="line2d_21">
      <g>
       <use style="stroke:#000000;stroke-width:0.8;" x="56.12" xlink:href="#m416bb771fa" y="134.460198"/>
      </g>
     </g>
     <g id="text_10">
      <!-- 0.6 -->
      <g transform="translate(23.675 140.538948)scale(0.16 -0.16)">
       <use xlink:href="#DejaVuSans-30"/>
       <use x="63.623047" xlink:href="#DejaVuSans-2e"/>
       <use x="95.410156" xlink:href="#DejaVuSans-36"/>
      </g>
     </g>
    </g>
    <g id="ytick_5">
     <g id="line2d_22">
      <path clip-path="url(#p66bca8480d)" d="M 56.12 80.986931 
L 399.984 80.986931 
" style="fill:none;stroke:#b0b0b0;stroke-linecap:square;stroke-width:0.8;"/>
     </g>
     <g id="line2d_23">
      <g>
       <use style="stroke:#000000;stroke-width:0.8;" x="56.12" xlink:href="#m416bb771fa" y="80.986931"/>
      </g>
     </g>
     <g id="text_11">
      <!-- 0.8 -->
      <g transform="translate(23.675 87.065681)scale(0.16 -0.16)">
       <use xlink:href="#DejaVuSans-30"/>
       <use x="63.623047" xlink:href="#DejaVuSans-2e"/>
       <use x="95.410156" xlink:href="#DejaVuSans-38"/>
      </g>
     </g>
    </g>
    <g id="ytick_6">
     <g id="line2d_24">
      <path clip-path="url(#p66bca8480d)" d="M 56.12 27.513663 
L 399.984 27.513663 
" style="fill:none;stroke:#b0b0b0;stroke-linecap:square;stroke-width:0.8;"/>
     </g>
     <g id="line2d_25">
      <g>
       <use style="stroke:#000000;stroke-width:0.8;" x="56.12" xlink:href="#m416bb771fa" y="27.513663"/>
      </g>
     </g>
     <g id="text_12">
      <!-- 1.0 -->
      <g transform="translate(23.675 33.592413)scale(0.16 -0.16)">
       <use xlink:href="#DejaVuSans-31"/>
       <use x="63.623047" xlink:href="#DejaVuSans-2e"/>
       <use x="95.410156" xlink:href="#DejaVuSans-30"/>
      </g>
     </g>
    </g>
    <g id="text_13">
     <!-- Fraction of function,target pairs -->
     <defs>
      <path d="M 9.8125 72.90625 
L 51.703125 72.90625 
L 51.703125 64.59375 
L 19.671875 64.59375 
L 19.671875 43.109375 
L 48.578125 43.109375 
L 48.578125 34.8125 
L 19.671875 34.8125 
L 19.671875 0 
L 9.8125 0 
z
" id="DejaVuSans-46"/>
      <path d="M 41.109375 46.296875 
Q 39.59375 47.171875 37.8125 47.578125 
Q 36.03125 48 33.890625 48 
Q 26.265625 48 22.1875 43.046875 
Q 18.109375 38.09375 18.109375 28.8125 
L 18.109375 0 
L 9.078125 0 
L 9.078125 54.6875 
L 18.109375 54.6875 
L 18.109375 46.1875 
Q 20.953125 51.171875 25.484375 53.578125 
Q 30.03125 56 36.53125 56 
Q 37.453125 56 38.578125 55.875 
Q 39.703125 55.765625 41.0625 55.515625 
z
" id="DejaVuSans-72"/>
      <path d="M 48.78125 52.59375 
L 48.78125 44.1875 
Q 44.96875 46.296875 41.140625 47.34375 
Q 37.3125 48.390625 33.40625 48.390625 
Q 24.65625 48.390625 19.8125 42.84375 
Q 14.984375 37.3125 14.984375 27.296875 
Q 14.984375 17.28125 19.8125 11.734375 
Q 24.65625 6.203125 33.40625 6.203125 
Q 37.3125 6.203125 41.140625 7.25 
Q 44.96875 8.296875 48.78125 10.40625 
L 48.78125 2.09375 
Q 45.015625 0.34375 40.984375 -0.53125 
Q 36.96875 -1.421875 32.421875 -1.421875 
Q 20.0625 -1.421875 12.78125 6.34375 
Q 5.515625 14.109375 5.515625 27.296875 
Q 5.515625 40.671875 12.859375 48.328125 
Q 20.21875 56 33.015625 56 
Q 37.15625 56 41.109375 55.140625 
Q 45.0625 54.296875 48.78125 52.59375 
z
" id="DejaVuSans-63"/>
      <path d="M 18.3125 70.21875 
L 18.3125 54.6875 
L 36.8125 54.6875 
L 36.8125 47.703125 
L 18.3125 47.703125 
L 18.3125 18.015625 
Q 18.3125 11.328125 20.140625 9.421875 
Q 21.96875 7.515625 27.59375 7.515625 
L 36.8125 7.515625 
L 36.8125 0 
L 27.59375 0 
Q 17.1875 0 13.234375 3.875 
Q 9.28125 7.765625 9.28125 18.015625 
L 9.28125 47.703125 
L 2.6875 47.703125 
L 2.6875 54.6875 
L 9.28125 54.6875 
L 9.28125 70.21875 
z
" id="DejaVuSans-74"/>
      <path d="M 8.5 21.578125 
L 8.5 54.6875 
L 17.484375 54.6875 
L 17.484375 21.921875 
Q 17.484375 14.15625 20.5 10.265625 
Q 23.53125 6.390625 29.59375 6.390625 
Q 36.859375 6.390625 41.078125 11.03125 
Q 45.3125 15.671875 45.3125 23.6875 
L 45.3125 54.6875 
L 54.296875 54.6875 
L 54.296875 0 
L 45.3125 0 
L 45.3125 8.40625 
Q 42.046875 3.421875 37.71875 1 
Q 33.40625 -1.421875 27.6875 -1.421875 
Q 18.265625 -1.421875 13.375 4.4375 
Q 8.5 10.296875 8.5 21.578125 
z
M 31.109375 56 
z
" id="DejaVuSans-75"/>
      <path d="M 11.71875 12.40625 
L 22.015625 12.40625 
L 22.015625 4 
L 14.015625 -11.625 
L 7.71875 -11.625 
L 11.71875 4 
z
" id="DejaVuSans-2c"/>
      <path d="M 18.109375 8.203125 
L 18.109375 -20.796875 
L 9.078125 -20.796875 
L 9.078125 54.6875 
L 18.109375 54.6875 
L 18.109375 46.390625 
Q 20.953125 51.265625 25.265625 53.625 
Q 29.59375 56 35.59375 56 
Q 45.5625 56 51.78125 48.09375 
Q 58.015625 40.1875 58.015625 27.296875 
Q 58.015625 14.40625 51.78125 6.484375 
Q 45.5625 -1.421875 35.59375 -1.421875 
Q 29.59375 -1.421875 25.265625 0.953125 
Q 20.953125 3.328125 18.109375 8.203125 
z
M 48.6875 27.296875 
Q 48.6875 37.203125 44.609375 42.84375 
Q 40.53125 48.484375 33.40625 48.484375 
Q 26.265625 48.484375 22.1875 42.84375 
Q 18.109375 37.203125 18.109375 27.296875 
Q 18.109375 17.390625 22.1875 11.75 
Q 26.265625 6.109375 33.40625 6.109375 
Q 40.53125 6.109375 44.609375 11.75 
Q 48.6875 17.390625 48.6875 27.296875 
z
" id="DejaVuSans-70"/>
     </defs>
     <g transform="translate(16.139531 294.999375)rotate(-90)scale(0.17 -0.17)">
      <use xlink:href="#DejaVuSans-46"/>
      <use x="57.410156" xlink:href="#DejaVuSans-72"/>
      <use x="98.523438" xlink:href="#DejaVuSans-61"/>
      <use x="159.802734" xlink:href="#DejaVuSans-63"/>
      <use x="214.783203" xlink:href="#DejaVuSans-74"/>
      <use x="253.992188" xlink:href="#DejaVuSans-69"/>
      <use x="281.775391" xlink:href="#DejaVuSans-6f"/>
      <use x="342.957031" xlink:href="#DejaVuSans-6e"/>
      <use x="406.335938" xlink:href="#DejaVuSans-20"/>
      <use x="438.123047" xlink:href="#DejaVuSans-6f"/>
      <use x="499.304688" xlink:href="#DejaVuSans-66"/>
      <use x="534.509766" xlink:href="#DejaVuSans-20"/>
      <use x="566.296875" xlink:href="#DejaVuSans-66"/>
      <use x="601.501953" xlink:href="#DejaVuSans-75"/>
      <use x="664.880859" xlink:href="#DejaVuSans-6e"/>
      <use x="728.259766" xlink:href="#DejaVuSans-63"/>
      <use x="783.240234" xlink:href="#DejaVuSans-74"/>
      <use x="822.449219" xlink:href="#DejaVuSans-69"/>
      <use x="850.232422" xlink:href="#DejaVuSans-6f"/>
      <use x="911.414062" xlink:href="#DejaVuSans-6e"/>
      <use x="974.792969" xlink:href="#DejaVuSans-2c"/>
      <use x="1006.580078" xlink:href="#DejaVuSans-74"/>
      <use x="1045.789062" xlink:href="#DejaVuSans-61"/>
      <use x="1107.068359" xlink:href="#DejaVuSans-72"/>
      <use x="1148.166016" xlink:href="#DejaVuSans-67"/>
      <use x="1211.642578" xlink:href="#DejaVuSans-65"/>
      <use x="1273.166016" xlink:href="#DejaVuSans-74"/>
      <use x="1312.375" xlink:href="#DejaVuSans-20"/>
      <use x="1344.162109" xlink:href="#DejaVuSans-70"/>
      <use x="1407.638672" xlink:href="#DejaVuSans-61"/>
      <use x="1468.917969" xlink:href="#DejaVuSans-69"/>
      <use x="1496.701172" xlink:href="#DejaVuSans-72"/>
      <use x="1537.814453" xlink:href="#DejaVuSans-73"/>
     </g>
    </g>
   </g>
   <g id="line2d_26">
    <defs>
     <path d="M 0 1.5 
C 0.397805 1.5 0.77937 1.341951 1.06066 1.06066 
C 1.341951 0.77937 1.5 0.397805 1.5 0 
C 1.5 -0.397805 1.341951 -0.77937 1.06066 -1.06066 
C 0.77937 -1.341951 0.397805 -1.5 0 -1.5 
C -0.397805 -1.5 -0.77937 -1.341951 -1.06066 -1.06066 
C -1.341951 -0.77937 -1.5 -0.397805 -1.5 0 
C -1.5 0.397805 -1.341951 0.77937 -1.06066 1.06066 
C -0.77937 1.341951 -0.397805 1.5 0 1.5 
z
" id="m6eaa618017" style="stroke:#f5deb3;"/>
    </defs>
    <g>
     <use style="fill:#f5deb3;stroke:#f5deb3;" x="321.765365" xlink:href="#m6eaa618017" y="258.18266"/>
     <use style="fill:#f5deb3;stroke:#f5deb3;" x="321.765365" xlink:href="#m6eaa618017" y="258.18266"/>
    </g>
   </g>
   <g id="line2d_27">
    <g>
     <use style="fill:#f5deb3;stroke:#f5deb3;stroke-linejoin:miter;stroke-width:1.5;" x="202.992471" xlink:href="#mdfbdd96abf" y="268.667614"/>
     <use style="fill:#f5deb3;stroke:#f5deb3;stroke-linejoin:miter;stroke-width:1.5;" x="321.765365" xlink:href="#mdfbdd96abf" y="263.425137"/>
     <use style="fill:#f5deb3;stroke:#f5deb3;stroke-linejoin:miter;stroke-width:1.5;" x="321.765365" xlink:href="#mdfbdd96abf" y="258.18266"/>
     <use style="fill:#f5deb3;stroke:#f5deb3;stroke-linejoin:miter;stroke-width:1.5;" x="333.429677" xlink:href="#mdfbdd96abf" y="258.18266"/>
    </g>
   </g>
   <g id="line2d_28">
    <defs>
     <path d="M 0 1.5 
C 0.397805 1.5 0.77937 1.341951 1.06066 1.06066 
C 1.341951 0.77937 1.5 0.397805 1.5 0 
C 1.5 -0.397805 1.341951 -0.77937 1.06066 -1.06066 
C 0.77937 -1.341951 0.397805 -1.5 0 -1.5 
C -0.397805 -1.5 -0.77937 -1.341951 -1.06066 -1.06066 
C -1.341951 -0.77937 -1.5 -0.397805 -1.5 0 
C -1.5 0.397805 -1.341951 0.77937 -1.06066 1.06066 
C -0.77937 1.341951 -0.397805 1.5 0 1.5 
z
" id="md81719a8d6" style="stroke:#999999;"/>
    </defs>
    <g>
     <use style="fill:#999999;stroke:#999999;" x="318.855008" xlink:href="#md81719a8d6" y="273.910091"/>
     <use style="fill:#999999;stroke:#999999;" x="318.855008" xlink:href="#md81719a8d6" y="273.910091"/>
    </g>
   </g>
   <g id="line2d_29">
    <path d="M 184.507397 294.88 
L 184.507397 293.831505 
L 186.217034 293.831505 
L 186.217034 293.307257 
L 186.524723 293.307257 
L 186.524723 292.783009 
L 189.328483 292.783009 
L 189.328483 292.258761 
L 192.38147 292.258761 
L 192.38147 291.734514 
L 195.623117 291.734514 
L 195.623117 291.210266 
L 206.097258 291.210266 
L 206.097258 290.686018 
L 207.315028 290.686018 
L 207.315028 289.113275 
L 208.824139 289.113275 
L 208.824139 288.06478 
L 218.191258 288.06478 
L 218.191258 287.540532 
L 222.007744 287.540532 
L 222.007744 286.492036 
L 222.18716 286.492036 
L 222.18716 285.967789 
L 224.088148 285.967789 
L 224.088148 285.443541 
L 229.391952 285.443541 
L 229.391952 284.919293 
L 232.700916 284.919293 
L 232.700916 283.870798 
L 233.017299 283.870798 
L 233.017299 283.34655 
L 234.537549 283.34655 
L 234.537549 281.773807 
L 239.26512 281.773807 
L 239.26512 281.249559 
L 239.757826 281.249559 
L 239.757826 280.725312 
L 241.515931 280.725312 
L 241.515931 280.201064 
L 243.485803 280.201064 
L 243.485803 279.152568 
L 247.631323 279.152568 
L 247.631323 278.628321 
L 255.401107 278.628321 
L 255.401107 278.104073 
L 256.986023 278.104073 
L 256.986023 277.055578 
L 264.381747 277.055578 
L 264.381747 276.53133 
L 264.672119 276.53133 
L 264.672119 276.007082 
L 264.996173 276.007082 
L 264.996173 275.482834 
L 289.681078 275.482834 
L 289.681078 274.958587 
L 302.210252 274.958587 
L 302.210252 274.434339 
L 318.855008 274.434339 
L 318.855008 273.910091 
L 333.429677 273.910091 
" style="fill:none;stroke:#999999;stroke-linecap:square;stroke-width:1.5;"/>
   </g>
   <g id="line2d_30"/>
   <g id="line2d_31">
    <path d="M 0 0 
" style="fill:none;stroke:#999999;stroke-linecap:square;stroke-width:1.5;"/>
   </g>
   <g id="line2d_32">
    <path clip-path="url(#p66bca8480d)" d="M 281.888505 275.482834 
" style="fill:none;stroke:#999999;stroke-linecap:square;stroke-width:1.5;"/>
    <defs>
     <path d="M -12 12 
L 12 -12 
M -12 -12 
L 12 12 
" id="mbf21a2c5a3" style="stroke:#999999;stroke-width:3;"/>
    </defs>
    <g clip-path="url(#p66bca8480d)">
     <use style="fill:#999999;stroke:#999999;stroke-width:3;" x="281.888505" xlink:href="#mbf21a2c5a3" y="275.482834"/>
    </g>
   </g>
   <g id="line2d_33">
    <g>
     <use style="fill:#999999;stroke:#999999;" x="360.249697" xlink:href="#md81719a8d6" y="258.18266"/>
     <use style="fill:#999999;stroke:#999999;" x="360.249697" xlink:href="#md81719a8d6" y="258.18266"/>
    </g>
   </g>
   <g id="line2d_34">
    <path d="M 200.929123 294.88 
L 200.929123 294.355752 
L 201.002774 294.355752 
L 201.002774 293.307257 
L 201.354124 293.307257 
L 201.354124 292.783009 
L 201.682791 292.783009 
L 201.682791 291.210266 
L 202.784357 291.210266 
L 202.784357 290.686018 
L 203.021805 290.686018 
L 203.021805 290.161771 
L 203.537512 290.161771 
L 203.537512 289.637523 
L 203.542742 289.637523 
L 203.542742 289.113275 
L 203.663897 289.113275 
L 203.663897 288.589027 
L 204.376862 288.589027 
L 204.376862 288.06478 
L 205.338386 288.06478 
L 205.338386 287.540532 
L 206.518331 287.540532 
L 206.518331 287.016284 
L 209.38359 287.016284 
L 209.38359 286.492036 
L 209.887038 286.492036 
L 209.887038 285.967789 
L 209.928578 285.967789 
L 209.928578 285.443541 
L 210.391982 285.443541 
L 210.391982 284.919293 
L 210.840666 284.919293 
L 210.840666 284.395046 
L 216.510958 284.395046 
L 216.510958 283.34655 
L 220.169273 283.34655 
L 220.169273 282.822302 
L 221.701425 282.822302 
L 221.701425 282.298055 
L 222.339094 282.298055 
L 222.339094 281.773807 
L 222.559856 281.773807 
L 222.559856 281.249559 
L 224.640032 281.249559 
L 224.640032 280.201064 
L 225.249615 280.201064 
L 225.249615 278.628321 
L 230.124503 278.628321 
L 230.124503 278.104073 
L 230.75974 278.104073 
L 230.75974 277.579825 
L 233.23006 277.579825 
L 233.23006 275.482834 
L 235.237283 275.482834 
L 235.237283 274.958587 
L 235.481561 274.958587 
L 235.481561 274.434339 
L 235.670223 274.434339 
L 235.670223 273.910091 
L 235.682845 273.910091 
L 235.682845 273.385844 
L 235.938085 273.385844 
L 235.938085 272.861596 
L 235.955133 272.861596 
L 235.955133 271.8131 
L 238.269411 271.8131 
L 238.269411 271.288853 
L 240.737361 271.288853 
L 240.737361 270.764605 
L 242.071293 270.764605 
L 242.071293 270.240357 
L 243.927238 270.240357 
L 243.927238 269.716109 
L 244.239592 269.716109 
L 244.239592 269.191862 
L 244.306159 269.191862 
L 244.306159 268.143366 
L 245.481707 268.143366 
L 245.481707 267.094871 
L 261.075089 267.094871 
L 261.075089 266.570623 
L 261.168911 266.570623 
L 261.168911 265.522128 
L 261.507075 265.522128 
L 261.507075 264.473632 
L 264.239314 264.473632 
L 264.239314 263.949385 
L 273.485694 263.949385 
L 273.485694 263.425137 
L 300.878279 263.425137 
L 300.878279 262.900889 
L 300.878743 262.900889 
L 300.878743 262.376641 
L 319.727542 262.376641 
L 319.727542 261.852394 
L 323.169924 261.852394 
L 323.169924 261.328146 
L 326.046442 261.328146 
L 326.046442 260.803898 
L 333.429677 260.803898 
" style="fill:none;stroke:#999999;stroke-linecap:square;stroke-width:1.5;"/>
   </g>
   <g id="line2d_35"/>
   <g id="line2d_36">
    <path d="M 0 0 
" style="fill:none;stroke:#999999;stroke-linecap:square;stroke-width:1.5;"/>
   </g>
   <g id="line2d_37">
    <path clip-path="url(#p66bca8480d)" d="M 293.817937 263.425137 
" style="fill:none;stroke:#999999;stroke-linecap:square;stroke-width:1.5;"/>
    <g clip-path="url(#p66bca8480d)">
     <use style="fill:#999999;stroke:#999999;stroke-width:3;" x="293.817937" xlink:href="#mbf21a2c5a3" y="263.425137"/>
    </g>
   </g>
   <g id="line2d_38">
    <g>
     <use style="fill:#999999;stroke:#999999;" x="248.054741" xlink:href="#md81719a8d6" y="289.637523"/>
     <use style="fill:#999999;stroke:#999999;" x="248.054741" xlink:href="#md81719a8d6" y="289.637523"/>
    </g>
   </g>
   <g id="line2d_39">
    <path d="M 205.711492 294.88 
L 205.711492 294.355752 
L 210.681684 294.355752 
L 210.681684 293.831505 
L 217.678293 293.831505 
L 217.678293 293.307257 
L 224.66801 293.307257 
L 224.66801 291.734514 
L 226.483471 291.734514 
L 226.483471 291.210266 
L 233.467683 291.210266 
L 233.467683 290.686018 
L 247.04197 290.686018 
L 247.04197 290.161771 
L 248.054741 290.161771 
L 248.054741 289.637523 
L 333.429677 289.637523 
" style="fill:none;stroke:#999999;stroke-linecap:square;stroke-width:1.5;"/>
   </g>
   <g id="line2d_40"/>
   <g id="line2d_41">
    <path d="M 0 0 
" style="fill:none;stroke:#999999;stroke-linecap:square;stroke-width:1.5;"/>
   </g>
   <g id="line2d_42">
    <path clip-path="url(#p66bca8480d)" d="M 186.892509 294.88 
" style="fill:none;stroke:#999999;stroke-linecap:square;stroke-width:1.5;"/>
    <g clip-path="url(#p66bca8480d)">
     <use style="fill:#999999;stroke:#999999;stroke-width:3;" x="186.892509" xlink:href="#mbf21a2c5a3" y="294.88"/>
    </g>
   </g>
   <g id="line2d_43">
    <path clip-path="url(#p66bca8480d)" d="M 56.12 294.88 
L 56.12 294.88 
L 56.12 294.88 
L 56.12 294.88 
L 399.984 294.88 
" style="fill:none;stroke:#999999;stroke-linecap:square;stroke-width:1.5;"/>
   </g>
   <g id="line2d_44"/>
   <g id="line2d_45">
    <path clip-path="url(#p66bca8480d)" d="M 0 0 
" style="fill:none;stroke:#999999;stroke-linecap:square;stroke-width:1.5;"/>
   </g>
   <g id="line2d_46">
    <g>
     <use style="fill:#999999;stroke:#999999;" x="331.595184" xlink:href="#md81719a8d6" y="258.18266"/>
     <use style="fill:#999999;stroke:#999999;" x="331.595184" xlink:href="#md81719a8d6" y="258.18266"/>
    </g>
   </g>
   <g id="line2d_47">
    <path d="M 166.586358 294.88 
L 166.586358 294.355752 
L 168.409989 294.355752 
L 168.409989 293.831505 
L 169.17598 293.831505 
L 169.17598 292.258761 
L 169.623008 292.258761 
L 169.623008 291.210266 
L 169.779555 291.210266 
L 169.779555 290.686018 
L 170.637028 290.686018 
L 170.637028 289.637523 
L 174.14778 289.637523 
L 174.14778 289.113275 
L 174.462458 289.113275 
L 174.462458 287.540532 
L 177.713758 287.540532 
L 177.713758 287.016284 
L 177.773785 287.016284 
L 177.773785 286.492036 
L 178.075124 286.492036 
L 178.075124 285.967789 
L 178.277856 285.967789 
L 178.277856 284.919293 
L 178.58591 284.919293 
L 178.58591 284.395046 
L 179.011389 284.395046 
L 179.011389 282.822302 
L 181.303848 282.822302 
L 181.303848 282.298055 
L 183.943911 282.298055 
L 183.943911 281.773807 
L 183.971458 281.773807 
L 183.971458 281.249559 
L 184.941603 281.249559 
L 184.941603 280.725312 
L 186.652556 280.725312 
L 186.652556 280.201064 
L 187.763042 280.201064 
L 187.763042 279.676816 
L 195.357996 279.676816 
L 195.357996 278.628321 
L 195.729473 278.628321 
L 195.729473 277.579825 
L 197.756658 277.579825 
L 197.756658 277.055578 
L 198.951264 277.055578 
L 198.951264 276.53133 
L 199.687319 276.53133 
L 199.687319 276.007082 
L 201.703171 276.007082 
L 201.703171 275.482834 
L 202.03208 275.482834 
L 202.03208 274.958587 
L 202.138442 274.958587 
L 202.138442 273.910091 
L 202.504748 273.910091 
L 202.504748 273.385844 
L 202.610307 273.385844 
L 202.610307 272.861596 
L 204.132582 272.861596 
L 204.132582 272.337348 
L 204.381221 272.337348 
L 204.381221 271.8131 
L 204.461966 271.8131 
L 204.461966 271.288853 
L 204.932306 271.288853 
L 204.932306 269.716109 
L 206.808394 269.716109 
L 206.808394 268.667614 
L 209.279469 268.667614 
L 209.279469 267.619119 
L 214.868975 267.619119 
L 214.868975 267.094871 
L 221.011052 267.094871 
L 221.011052 266.570623 
L 221.099041 266.570623 
L 221.099041 266.046375 
L 221.182479 266.046375 
L 221.182479 264.99788 
L 221.269831 264.99788 
L 221.269831 264.473632 
L 222.512609 264.473632 
L 222.512609 263.949385 
L 222.880095 263.949385 
L 222.880095 263.425137 
L 288.097448 263.425137 
L 288.097448 262.376641 
L 298.007468 262.376641 
L 298.007468 261.852394 
L 298.823026 261.852394 
L 298.823026 261.328146 
L 304.394815 261.328146 
L 304.394815 260.803898 
L 313.197419 260.803898 
L 313.197419 259.755403 
L 316.360695 259.755403 
L 316.360695 259.231155 
L 330.984195 259.231155 
L 330.984195 258.706907 
L 331.595184 258.706907 
L 331.595184 258.18266 
L 333.429677 258.18266 
" style="fill:none;stroke:#999999;stroke-linecap:square;stroke-width:1.5;"/>
   </g>
   <g id="line2d_48"/>
   <g id="line2d_49">
    <path d="M 0 0 
" style="fill:none;stroke:#999999;stroke-linecap:square;stroke-width:1.5;"/>
   </g>
   <g id="line2d_50">
    <path clip-path="url(#p66bca8480d)" d="M 297.336428 262.376641 
" style="fill:none;stroke:#999999;stroke-linecap:square;stroke-width:1.5;"/>
    <g clip-path="url(#p66bca8480d)">
     <use style="fill:#999999;stroke:#999999;stroke-width:3;" x="297.336428" xlink:href="#mbf21a2c5a3" y="262.376641"/>
    </g>
   </g>
   <g id="line2d_51">
    <path clip-path="url(#p66bca8480d)" d="M 56.12 294.88 
L 56.12 294.88 
L 56.12 294.88 
L 56.12 294.88 
L 399.984 294.88 
" style="fill:none;stroke:#999999;stroke-linecap:square;stroke-width:1.5;"/>
   </g>
   <g id="line2d_52"/>
   <g id="line2d_53">
    <path clip-path="url(#p66bca8480d)" d="M 0 0 
" style="fill:none;stroke:#999999;stroke-linecap:square;stroke-width:1.5;"/>
   </g>
   <g id="line2d_54">
    <path clip-path="url(#p66bca8480d)" d="M 56.12 294.88 
L 56.12 294.88 
L 56.12 294.88 
L 56.12 294.88 
L 399.984 294.88 
" style="fill:none;stroke:#999999;stroke-linecap:square;stroke-width:1.5;"/>
   </g>
   <g id="line2d_55"/>
   <g id="line2d_56">
    <path clip-path="url(#p66bca8480d)" d="M 0 0 
" style="fill:none;stroke:#999999;stroke-linecap:square;stroke-width:1.5;"/>
   </g>
   <g id="line2d_57">
    <path clip-path="url(#p66bca8480d)" d="M 56.12 294.88 
L 56.12 294.88 
L 56.12 294.88 
L 56.12 294.88 
L 399.984 294.88 
" style="fill:none;stroke:#999999;stroke-linecap:square;stroke-width:1.5;"/>
   </g>
   <g id="line2d_58"/>
   <g id="line2d_59">
    <path clip-path="url(#p66bca8480d)" d="M 0 0 
" style="fill:none;stroke:#999999;stroke-linecap:square;stroke-width:1.5;"/>
   </g>
   <g id="line2d_60">
    <g>
     <use style="fill:#999999;stroke:#999999;" x="319.655185" xlink:href="#md81719a8d6" y="279.152568"/>
     <use style="fill:#999999;stroke:#999999;" x="319.655185" xlink:href="#md81719a8d6" y="279.152568"/>
    </g>
   </g>
   <g id="line2d_61">
    <path d="M 205.997516 294.88 
L 205.997516 293.831505 
L 219.290594 293.831505 
L 219.290594 292.783009 
L 239.578474 292.783009 
L 239.578474 292.258761 
L 248.011214 292.258761 
L 248.011214 291.734514 
L 252.485184 291.734514 
L 252.485184 291.210266 
L 254.675297 291.210266 
L 254.675297 290.686018 
L 255.953587 290.686018 
L 255.953587 290.161771 
L 257.511278 290.161771 
L 257.511278 289.637523 
L 260.32223 289.637523 
L 260.32223 289.113275 
L 263.306919 289.113275 
L 263.306919 288.589027 
L 265.288582 288.589027 
L 265.288582 286.492036 
L 266.363976 286.492036 
L 266.363976 285.967789 
L 267.21922 285.967789 
L 267.21922 285.443541 
L 267.24732 285.443541 
L 267.24732 284.919293 
L 273.260277 284.919293 
L 273.260277 284.395046 
L 277.636786 284.395046 
L 277.636786 283.34655 
L 281.559249 283.34655 
L 281.559249 282.822302 
L 285.408024 282.822302 
L 285.408024 282.298055 
L 289.769809 282.298055 
L 289.769809 281.773807 
L 291.41396 281.773807 
L 291.41396 281.249559 
L 296.814402 281.249559 
L 296.814402 280.725312 
L 300.680929 280.725312 
L 300.680929 280.201064 
L 312.661046 280.201064 
L 312.661046 279.676816 
L 319.655185 279.676816 
L 319.655185 279.152568 
L 333.429677 279.152568 
" style="fill:none;stroke:#999999;stroke-linecap:square;stroke-width:1.5;"/>
   </g>
   <g id="line2d_62"/>
   <g id="line2d_63">
    <path d="M 0 0 
" style="fill:none;stroke:#999999;stroke-linecap:square;stroke-width:1.5;"/>
   </g>
   <g id="line2d_64">
    <path clip-path="url(#p66bca8480d)" d="M 254.198341 291.210266 
" style="fill:none;stroke:#999999;stroke-linecap:square;stroke-width:1.5;"/>
    <g clip-path="url(#p66bca8480d)">
     <use style="fill:#999999;stroke:#999999;stroke-width:3;" x="254.198341" xlink:href="#mbf21a2c5a3" y="291.210266"/>
    </g>
   </g>
   <g id="line2d_65">
    <path clip-path="url(#p66bca8480d)" d="M 56.12 294.88 
L 56.12 294.88 
L 56.12 294.88 
L 56.12 294.88 
L 399.984 294.88 
" style="fill:none;stroke:#999999;stroke-linecap:square;stroke-width:1.5;"/>
   </g>
   <g id="line2d_66"/>
   <g id="line2d_67">
    <path clip-path="url(#p66bca8480d)" d="M 0 0 
" style="fill:none;stroke:#999999;stroke-linecap:square;stroke-width:1.5;"/>
   </g>
   <g id="line2d_68">
    <path clip-path="url(#p66bca8480d)" d="M 56.12 294.88 
L 56.12 294.88 
L 56.12 294.88 
L 56.12 294.88 
L 399.984 294.88 
" style="fill:none;stroke:#999999;stroke-linecap:square;stroke-width:1.5;"/>
   </g>
   <g id="line2d_69"/>
   <g id="line2d_70">
    <path clip-path="url(#p66bca8480d)" d="M 0 0 
" style="fill:none;stroke:#999999;stroke-linecap:square;stroke-width:1.5;"/>
   </g>
   <g id="line2d_71">
    <g>
     <use style="fill:#999999;stroke:#999999;" x="271.734527" xlink:href="#md81719a8d6" y="273.910091"/>
     <use style="fill:#999999;stroke:#999999;" x="271.734527" xlink:href="#md81719a8d6" y="273.910091"/>
    </g>
   </g>
   <g id="line2d_72">
    <path d="M 206.833786 294.88 
L 206.833786 292.783009 
L 206.838914 292.783009 
L 206.838914 291.734514 
L 206.858602 291.734514 
L 206.858602 291.210266 
L 207.084338 291.210266 
L 207.084338 290.161771 
L 207.266399 290.161771 
L 207.266399 289.637523 
L 207.339684 289.637523 
L 207.339684 289.113275 
L 208.683871 289.113275 
L 208.683871 288.06478 
L 223.05426 288.06478 
L 223.05426 287.016284 
L 223.23667 287.016284 
L 223.23667 285.967789 
L 223.810957 285.967789 
L 223.810957 285.443541 
L 231.260599 285.443541 
L 231.260599 284.919293 
L 231.268494 284.919293 
L 231.268494 284.395046 
L 231.269733 284.395046 
L 231.269733 283.870798 
L 231.53896 283.870798 
L 231.53896 282.822302 
L 231.734152 282.822302 
L 231.734152 282.298055 
L 236.793818 282.298055 
L 236.793818 281.773807 
L 236.800441 281.773807 
L 236.800441 281.249559 
L 236.980963 281.249559 
L 236.980963 280.725312 
L 237.006825 280.725312 
L 237.006825 280.201064 
L 240.976694 280.201064 
L 240.976694 279.676816 
L 244.334325 279.676816 
L 244.334325 279.152568 
L 247.334094 279.152568 
L 247.334094 278.628321 
L 253.565472 278.628321 
L 253.565472 278.104073 
L 253.692518 278.104073 
L 253.692518 277.579825 
L 255.379017 277.579825 
L 255.379017 276.53133 
L 256.809575 276.53133 
L 256.809575 276.007082 
L 256.869884 276.007082 
L 256.869884 275.482834 
L 259.557244 275.482834 
L 259.557244 274.958587 
L 271.734527 274.958587 
L 271.734527 273.910091 
L 333.429677 273.910091 
" style="fill:none;stroke:#999999;stroke-linecap:square;stroke-width:1.5;"/>
   </g>
   <g id="line2d_73"/>
   <g id="line2d_74">
    <path d="M 0 0 
" style="fill:none;stroke:#999999;stroke-linecap:square;stroke-width:1.5;"/>
   </g>
   <g id="line2d_75">
    <path clip-path="url(#p66bca8480d)" d="M 214.583705 288.06478 
" style="fill:none;stroke:#999999;stroke-linecap:square;stroke-width:1.5;"/>
    <g clip-path="url(#p66bca8480d)">
     <use style="fill:#999999;stroke:#999999;stroke-width:3;" x="214.583705" xlink:href="#mbf21a2c5a3" y="288.06478"/>
    </g>
   </g>
   <g id="line2d_76">
    <g>
     <use style="fill:#999999;stroke:#999999;" x="294.972402" xlink:href="#md81719a8d6" y="273.910091"/>
     <use style="fill:#999999;stroke:#999999;" x="294.972402" xlink:href="#md81719a8d6" y="273.910091"/>
    </g>
   </g>
   <g id="line2d_77">
    <path d="M 195.878603 294.88 
L 195.878603 293.831505 
L 198.823604 293.831505 
L 198.823604 292.258761 
L 200.82571 292.258761 
L 200.82571 291.734514 
L 204.257507 291.734514 
L 204.257507 291.210266 
L 204.762342 291.210266 
L 204.762342 290.161771 
L 205.387195 290.161771 
L 205.387195 289.113275 
L 220.641465 289.113275 
L 220.641465 288.589027 
L 223.740173 288.589027 
L 223.740173 288.06478 
L 224.687146 288.06478 
L 224.687146 287.540532 
L 224.781559 287.540532 
L 224.781559 287.016284 
L 225.687419 287.016284 
L 225.687419 286.492036 
L 226.117966 286.492036 
L 226.117966 285.967789 
L 226.202413 285.967789 
L 226.202413 285.443541 
L 227.372494 285.443541 
L 227.372494 284.919293 
L 227.929421 284.919293 
L 227.929421 284.395046 
L 232.354861 284.395046 
L 232.354861 282.822302 
L 232.721071 282.822302 
L 232.721071 282.298055 
L 247.315315 282.298055 
L 247.315315 281.773807 
L 247.585902 281.773807 
L 247.585902 281.249559 
L 247.974988 281.249559 
L 247.974988 280.201064 
L 248.313206 280.201064 
L 248.313206 279.676816 
L 250.076983 279.676816 
L 250.076983 279.152568 
L 252.929169 279.152568 
L 252.929169 278.104073 
L 257.284574 278.104073 
L 257.284574 277.579825 
L 263.292037 277.579825 
L 263.292037 277.055578 
L 264.186279 277.055578 
L 264.186279 276.53133 
L 265.50096 276.53133 
L 265.50096 276.007082 
L 271.832647 276.007082 
L 271.832647 275.482834 
L 274.191243 275.482834 
L 274.191243 274.958587 
L 277.107828 274.958587 
L 277.107828 274.434339 
L 294.972402 274.434339 
L 294.972402 273.910091 
L 333.429677 273.910091 
" style="fill:none;stroke:#999999;stroke-linecap:square;stroke-width:1.5;"/>
   </g>
   <g id="line2d_78"/>
   <g id="line2d_79">
    <path d="M 0 0 
" style="fill:none;stroke:#999999;stroke-linecap:square;stroke-width:1.5;"/>
   </g>
   <g id="line2d_80">
    <path clip-path="url(#p66bca8480d)" d="M 242.272837 282.298055 
" style="fill:none;stroke:#999999;stroke-linecap:square;stroke-width:1.5;"/>
    <g clip-path="url(#p66bca8480d)">
     <use style="fill:#999999;stroke:#999999;stroke-width:3;" x="242.272837" xlink:href="#mbf21a2c5a3" y="282.298055"/>
    </g>
   </g>
   <g id="line2d_81">
    <path clip-path="url(#p66bca8480d)" d="M 56.12 294.88 
L 56.12 294.88 
L 56.12 294.88 
L 56.12 294.88 
L 399.984 294.88 
" style="fill:none;stroke:#999999;stroke-linecap:square;stroke-width:1.5;"/>
   </g>
   <g id="line2d_82"/>
   <g id="line2d_83">
    <path clip-path="url(#p66bca8480d)" d="M 0 0 
" style="fill:none;stroke:#999999;stroke-linecap:square;stroke-width:1.5;"/>
   </g>
   <g id="line2d_84">
    <path clip-path="url(#p66bca8480d)" d="M 56.12 294.88 
L 56.12 294.88 
L 56.12 294.88 
L 56.12 294.88 
L 399.984 294.88 
" style="fill:none;stroke:#999999;stroke-linecap:square;stroke-width:1.5;"/>
   </g>
   <g id="line2d_85"/>
   <g id="line2d_86">
    <path clip-path="url(#p66bca8480d)" d="M 0 0 
" style="fill:none;stroke:#999999;stroke-linecap:square;stroke-width:1.5;"/>
   </g>
   <g id="line2d_87">
    <path clip-path="url(#p66bca8480d)" d="M 56.12 294.88 
L 56.12 294.88 
L 56.12 294.88 
L 56.12 294.88 
L 399.984 294.88 
" style="fill:none;stroke:#999999;stroke-linecap:square;stroke-width:1.5;"/>
   </g>
   <g id="line2d_88"/>
   <g id="line2d_89">
    <path clip-path="url(#p66bca8480d)" d="M 0 0 
" style="fill:none;stroke:#999999;stroke-linecap:square;stroke-width:1.5;"/>
   </g>
   <g id="line2d_90">
    <g>
     <use style="fill:#999999;stroke:#999999;" x="321.24919" xlink:href="#md81719a8d6" y="289.637523"/>
     <use style="fill:#999999;stroke:#999999;" x="321.24919" xlink:href="#md81719a8d6" y="289.637523"/>
    </g>
   </g>
   <g id="line2d_91">
    <path d="M 231.31364 294.88 
L 231.31364 293.831505 
L 258.235148 293.831505 
L 258.235148 293.307257 
L 282.775199 293.307257 
L 282.775199 292.783009 
L 285.767372 292.783009 
L 285.767372 292.258761 
L 302.182391 292.258761 
L 302.182391 291.734514 
L 304.177723 291.734514 
L 304.177723 291.210266 
L 305.094827 291.210266 
L 305.094827 290.686018 
L 308.340784 290.686018 
L 308.340784 290.161771 
L 321.24919 290.161771 
L 321.24919 289.637523 
L 333.429677 289.637523 
" style="fill:none;stroke:#999999;stroke-linecap:square;stroke-width:1.5;"/>
   </g>
   <g id="line2d_92"/>
   <g id="line2d_93">
    <path d="M 0 0 
" style="fill:none;stroke:#999999;stroke-linecap:square;stroke-width:1.5;"/>
   </g>
   <g id="line2d_94">
    <path clip-path="url(#p66bca8480d)" d="M 254.198341 293.831505 
" style="fill:none;stroke:#999999;stroke-linecap:square;stroke-width:1.5;"/>
    <g clip-path="url(#p66bca8480d)">
     <use style="fill:#999999;stroke:#999999;stroke-width:3;" x="254.198341" xlink:href="#mbf21a2c5a3" y="293.831505"/>
    </g>
   </g>
   <g id="line2d_95">
    <path clip-path="url(#p66bca8480d)" d="M 56.12 294.88 
L 56.12 294.88 
L 56.12 294.88 
L 56.12 294.88 
L 399.984 294.88 
" style="fill:none;stroke:#999999;stroke-linecap:square;stroke-width:1.5;"/>
   </g>
   <g id="line2d_96"/>
   <g id="line2d_97">
    <path clip-path="url(#p66bca8480d)" d="M 0 0 
" style="fill:none;stroke:#999999;stroke-linecap:square;stroke-width:1.5;"/>
   </g>
   <g id="line2d_98">
    <path clip-path="url(#p66bca8480d)" d="M 56.12 294.88 
L 56.12 294.88 
L 56.12 294.88 
L 56.12 294.88 
L 399.984 294.88 
" style="fill:none;stroke:#999999;stroke-linecap:square;stroke-width:1.5;"/>
   </g>
   <g id="line2d_99"/>
   <g id="line2d_100">
    <path clip-path="url(#p66bca8480d)" d="M 0 0 
" style="fill:none;stroke:#999999;stroke-linecap:square;stroke-width:1.5;"/>
   </g>
   <g id="line2d_101">
    <g>
     <use style="fill:#999999;stroke:#999999;" x="333.603955" xlink:href="#md81719a8d6" y="273.910091"/>
     <use style="fill:#999999;stroke:#999999;" x="333.603955" xlink:href="#md81719a8d6" y="273.910091"/>
    </g>
   </g>
   <g id="line2d_102">
    <path d="M 228.483923 294.88 
L 228.483923 294.355752 
L 229.791543 294.355752 
L 229.791543 293.307257 
L 242.218659 293.307257 
L 242.218659 292.783009 
L 242.80703 292.783009 
L 242.80703 292.258761 
L 242.849675 292.258761 
L 242.849675 291.734514 
L 247.295077 291.734514 
L 247.295077 291.210266 
L 260.780166 291.210266 
L 260.780166 290.161771 
L 262.287389 290.161771 
L 262.287389 289.637523 
L 268.626481 289.637523 
L 268.626481 289.113275 
L 270.515777 289.113275 
L 270.515777 288.589027 
L 282.342885 288.589027 
L 282.342885 288.06478 
L 283.837999 288.06478 
L 283.837999 287.016284 
L 285.61387 287.016284 
L 285.61387 286.492036 
L 285.614166 286.492036 
L 285.614166 285.443541 
L 287.060609 285.443541 
L 287.060609 284.395046 
L 291.80402 284.395046 
L 291.80402 283.34655 
L 295.766533 283.34655 
L 295.766533 282.822302 
L 295.767159 282.822302 
L 295.767159 282.298055 
L 296.714965 282.298055 
L 296.714965 281.773807 
L 296.71726 281.773807 
L 296.71726 281.249559 
L 302.078979 281.249559 
L 302.078979 280.201064 
L 303.209439 280.201064 
L 303.209439 279.152568 
L 307.890328 279.152568 
L 307.890328 278.628321 
L 310.253408 278.628321 
L 310.253408 277.579825 
L 313.196496 277.579825 
L 313.196496 277.055578 
L 314.172964 277.055578 
L 314.172964 276.53133 
L 319.336572 276.53133 
L 319.336572 276.007082 
L 319.540121 276.007082 
L 319.540121 275.482834 
L 320.060035 275.482834 
L 320.060035 274.958587 
L 323.82692 274.958587 
L 323.82692 274.434339 
L 333.429677 274.434339 
" style="fill:none;stroke:#999999;stroke-linecap:square;stroke-width:1.5;"/>
   </g>
   <g id="line2d_103"/>
   <g id="line2d_104">
    <path d="M 0 0 
" style="fill:none;stroke:#999999;stroke-linecap:square;stroke-width:1.5;"/>
   </g>
   <g id="line2d_105">
    <path clip-path="url(#p66bca8480d)" d="M 323.576927 274.958587 
" style="fill:none;stroke:#999999;stroke-linecap:square;stroke-width:1.5;"/>
    <g clip-path="url(#p66bca8480d)">
     <use style="fill:#999999;stroke:#999999;stroke-width:3;" x="323.576927" xlink:href="#mbf21a2c5a3" y="274.958587"/>
    </g>
   </g>
   <g id="line2d_106">
    <g>
     <use style="fill:#999999;stroke:#999999;" x="284.062306" xlink:href="#md81719a8d6" y="263.425137"/>
     <use style="fill:#999999;stroke:#999999;" x="284.062306" xlink:href="#md81719a8d6" y="263.425137"/>
    </g>
   </g>
   <g id="line2d_107">
    <path d="M 186.055231 294.88 
L 186.055231 292.783009 
L 202.473823 292.783009 
L 202.473823 292.258761 
L 215.269532 292.258761 
L 215.269532 291.734514 
L 215.654672 291.734514 
L 215.654672 290.161771 
L 216.32135 290.161771 
L 216.32135 289.637523 
L 221.56266 289.637523 
L 221.56266 289.113275 
L 222.51109 289.113275 
L 222.51109 288.589027 
L 224.570563 288.589027 
L 224.570563 288.06478 
L 225.189258 288.06478 
L 225.189258 287.540532 
L 233.185944 287.540532 
L 233.185944 287.016284 
L 233.239544 287.016284 
L 233.239544 285.967789 
L 235.32248 285.967789 
L 235.32248 285.443541 
L 235.329024 285.443541 
L 235.329024 284.919293 
L 235.357696 284.919293 
L 235.357696 284.395046 
L 236.308362 284.395046 
L 236.308362 283.34655 
L 236.342687 283.34655 
L 236.342687 282.822302 
L 236.411665 282.822302 
L 236.411665 282.298055 
L 236.572248 282.298055 
L 236.572248 281.773807 
L 237.140841 281.773807 
L 237.140841 281.249559 
L 238.302252 281.249559 
L 238.302252 280.725312 
L 238.638784 280.725312 
L 238.638784 278.104073 
L 238.762867 278.104073 
L 238.762867 277.579825 
L 238.810694 277.579825 
L 238.810694 276.53133 
L 244.062012 276.53133 
L 244.062012 276.007082 
L 251.667891 276.007082 
L 251.667891 275.482834 
L 252.332094 275.482834 
L 252.332094 274.434339 
L 252.53741 274.434339 
L 252.53741 273.910091 
L 253.247762 273.910091 
L 253.247762 273.385844 
L 253.415995 273.385844 
L 253.415995 272.861596 
L 253.775646 272.861596 
L 253.775646 272.337348 
L 254.499121 272.337348 
L 254.499121 271.8131 
L 256.80202 271.8131 
L 256.80202 271.288853 
L 256.874523 271.288853 
L 256.874523 270.240357 
L 258.260696 270.240357 
L 258.260696 268.667614 
L 260.626483 268.667614 
L 260.626483 268.143366 
L 268.635285 268.143366 
L 268.635285 267.619119 
L 268.778211 267.619119 
L 268.778211 267.094871 
L 269.155702 267.094871 
L 269.155702 266.570623 
L 269.472862 266.570623 
L 269.472862 265.522128 
L 269.485362 265.522128 
L 269.485362 264.99788 
L 270.090722 264.99788 
L 270.090722 264.473632 
L 270.854593 264.473632 
L 270.854593 263.949385 
L 284.062306 263.949385 
L 284.062306 263.425137 
L 333.429677 263.425137 
" style="fill:none;stroke:#999999;stroke-linecap:square;stroke-width:1.5;"/>
   </g>
   <g id="line2d_108"/>
   <g id="line2d_109">
    <path d="M 0 0 
" style="fill:none;stroke:#999999;stroke-linecap:square;stroke-width:1.5;"/>
   </g>
   <g id="line2d_110">
    <path clip-path="url(#p66bca8480d)" d="M 293.827647 263.425137 
" style="fill:none;stroke:#999999;stroke-linecap:square;stroke-width:1.5;"/>
    <g clip-path="url(#p66bca8480d)">
     <use style="fill:#999999;stroke:#999999;stroke-width:3;" x="293.827647" xlink:href="#mbf21a2c5a3" y="263.425137"/>
    </g>
   </g>
   <g id="line2d_111">
    <defs>
     <path d="M 0 1.5 
C 0.397805 1.5 0.77937 1.341951 1.06066 1.06066 
C 1.341951 0.77937 1.5 0.397805 1.5 0 
C 1.5 -0.397805 1.341951 -0.77937 1.06066 -1.06066 
C 0.77937 -1.341951 0.397805 -1.5 0 -1.5 
C -0.397805 -1.5 -0.77937 -1.341951 -1.06066 -1.06066 
C -1.341951 -0.77937 -1.5 -0.397805 -1.5 0 
C -1.5 0.397805 -1.341951 0.77937 -1.06066 1.06066 
C -0.77937 1.341951 -0.397805 1.5 0 1.5 
z
" id="m0c951adc21" style="stroke:#000080;"/>
    </defs>
    <g>
     <use style="fill:#000080;stroke:#000080;" x="227.970953" xlink:href="#m0c951adc21" y="263.425137"/>
     <use style="fill:#000080;stroke:#000080;" x="227.970953" xlink:href="#m0c951adc21" y="263.425137"/>
    </g>
   </g>
   <g id="line2d_112">
    <path d="M 167.296758 294.88 
L 167.296758 294.355752 
L 170.202289 294.355752 
L 170.202289 292.783009 
L 175.68475 292.783009 
L 175.68475 291.734514 
L 176.09404 291.734514 
L 176.09404 291.210266 
L 176.706614 291.210266 
L 176.706614 290.686018 
L 179.022266 290.686018 
L 179.022266 290.161771 
L 179.99721 290.161771 
L 179.99721 289.637523 
L 180.165911 289.637523 
L 180.165911 288.589027 
L 180.393325 288.589027 
L 180.393325 287.540532 
L 181.004855 287.540532 
L 181.004855 286.492036 
L 187.234054 286.492036 
L 187.234054 285.443541 
L 189.417109 285.443541 
L 189.417109 284.919293 
L 190.257917 284.919293 
L 190.257917 283.870798 
L 190.885815 283.870798 
L 190.885815 282.822302 
L 191.352768 282.822302 
L 191.352768 282.298055 
L 191.760771 282.298055 
L 191.760771 281.773807 
L 193.488681 281.773807 
L 193.488681 281.249559 
L 194.1365 281.249559 
L 194.1365 280.201064 
L 195.321668 280.201064 
L 195.321668 278.628321 
L 196.293502 278.628321 
L 196.293502 277.579825 
L 197.855648 277.579825 
L 197.855648 276.53133 
L 198.649877 276.53133 
L 198.649877 276.007082 
L 200.314101 276.007082 
L 200.314101 275.482834 
L 201.116801 275.482834 
L 201.116801 274.958587 
L 201.157021 274.958587 
L 201.157021 274.434339 
L 205.139672 274.434339 
L 205.139672 273.910091 
L 207.293228 273.910091 
L 207.293228 273.385844 
L 208.09453 273.385844 
L 208.09453 271.8131 
L 208.637022 271.8131 
L 208.637022 271.288853 
L 208.854408 271.288853 
L 208.854408 270.764605 
L 209.738342 270.764605 
L 209.738342 270.240357 
L 209.97834 270.240357 
L 209.97834 269.716109 
L 210.492876 269.716109 
L 210.492876 269.191862 
L 210.879756 269.191862 
L 210.879756 268.667614 
L 211.009207 268.667614 
L 211.009207 267.619119 
L 213.407576 267.619119 
L 213.407576 267.094871 
L 223.034164 267.094871 
L 223.034164 266.570623 
L 226.302995 266.570623 
L 226.302995 266.046375 
L 227.298953 266.046375 
L 227.298953 264.99788 
L 227.727379 264.99788 
L 227.727379 264.473632 
L 227.970953 264.473632 
L 227.970953 263.425137 
L 333.429677 263.425137 
" style="fill:none;stroke:#000080;stroke-linecap:square;stroke-width:1.5;"/>
   </g>
   <g id="line2d_113">
    <defs>
     <path d="M 0 6 
C 1.591219 6 3.117479 5.367802 4.242641 4.242641 
C 5.367802 3.117479 6 1.591219 6 0 
C 6 -1.591219 5.367802 -3.117479 4.242641 -4.242641 
C 3.117479 -5.367802 1.591219 -6 0 -6 
C -1.591219 -6 -3.117479 -5.367802 -4.242641 -4.242641 
C -5.367802 -3.117479 -6 -1.591219 -6 0 
C -6 1.591219 -5.367802 3.117479 -4.242641 4.242641 
C -3.117479 5.367802 -1.591219 6 0 6 
z
" id="m954145247d" style="stroke:#000080;stroke-width:1.5;"/>
    </defs>
    <g>
     <use style="fill:none;stroke:#000080;stroke-width:1.5;" x="205.139672" xlink:href="#m954145247d" y="273.910091"/>
     <use style="fill:none;stroke:#000080;stroke-width:1.5;" x="227.970953" xlink:href="#m954145247d" y="264.473632"/>
     <use style="fill:none;stroke:#000080;stroke-width:1.5;" x="227.970953" xlink:href="#m954145247d" y="263.425137"/>
     <use style="fill:none;stroke:#000080;stroke-width:1.5;" x="333.429677" xlink:href="#m954145247d" y="263.425137"/>
    </g>
   </g>
   <g id="line2d_114">
    <path d="M 0 0 
" style="fill:none;stroke:#000080;stroke-linecap:square;stroke-width:1.5;"/>
    <g>
     <use style="fill:none;stroke:#000080;stroke-width:1.5;" x="0" xlink:href="#m954145247d" y="0"/>
    </g>
   </g>
   <g id="line2d_115">
    <path clip-path="url(#p66bca8480d)" d="M 254.249003 263.425137 
" style="fill:none;stroke:#000080;stroke-linecap:square;stroke-width:1.5;"/>
    <defs>
     <path d="M -12 12 
L 12 -12 
M -12 -12 
L 12 12 
" id="ma028a465fe" style="stroke:#000080;stroke-width:3;"/>
    </defs>
    <g clip-path="url(#p66bca8480d)">
     <use style="fill:#000080;stroke:#000080;stroke-width:3;" x="254.249003" xlink:href="#ma028a465fe" y="263.425137"/>
    </g>
   </g>
   <g id="line2d_116">
    <defs>
     <path d="M 0 1.5 
C 0.397805 1.5 0.77937 1.341951 1.06066 1.06066 
C 1.341951 0.77937 1.5 0.397805 1.5 0 
C 1.5 -0.397805 1.341951 -0.77937 1.06066 -1.06066 
C 0.77937 -1.341951 0.397805 -1.5 0 -1.5 
C -0.397805 -1.5 -0.77937 -1.341951 -1.06066 -1.06066 
C -1.341951 -0.77937 -1.5 -0.397805 -1.5 0 
C -1.5 0.397805 -1.341951 0.77937 -1.06066 1.06066 
C -0.77937 1.341951 -0.397805 1.5 0 1.5 
z
" id="m504df77e39" style="stroke:#ff00ff;"/>
    </defs>
    <g>
     <use style="fill:#ff00ff;stroke:#ff00ff;" x="254.912852" xlink:href="#m504df77e39" y="263.425137"/>
     <use style="fill:#ff00ff;stroke:#ff00ff;" x="254.912852" xlink:href="#m504df77e39" y="263.425137"/>
    </g>
   </g>
   <g id="line2d_117">
    <path d="M 158.784393 294.88 
L 158.784393 293.831505 
L 159.690008 293.831505 
L 159.690008 293.307257 
L 173.707332 293.307257 
L 173.707332 292.258761 
L 176.071466 292.258761 
L 176.071466 291.210266 
L 178.464192 291.210266 
L 178.464192 289.113275 
L 179.184603 289.113275 
L 179.184603 288.589027 
L 179.863118 288.589027 
L 179.863118 287.540532 
L 181.833667 287.540532 
L 181.833667 286.492036 
L 182.582436 286.492036 
L 182.582436 285.967789 
L 182.585751 285.967789 
L 182.585751 284.919293 
L 183.96024 284.919293 
L 183.96024 284.395046 
L 186.5537 284.395046 
L 186.5537 283.34655 
L 187.579699 283.34655 
L 187.579699 282.298055 
L 190.216129 282.298055 
L 190.216129 281.773807 
L 193.524408 281.773807 
L 193.524408 281.249559 
L 194.242885 281.249559 
L 194.242885 279.676816 
L 194.718285 279.676816 
L 194.718285 279.152568 
L 198.01412 279.152568 
L 198.01412 278.628321 
L 200.019415 278.628321 
L 200.019415 278.104073 
L 201.669312 278.104073 
L 201.669312 277.579825 
L 201.778658 277.579825 
L 201.778658 276.007082 
L 202.922815 276.007082 
L 202.922815 275.482834 
L 204.23994 275.482834 
L 204.23994 274.958587 
L 209.260023 274.958587 
L 209.260023 274.434339 
L 210.702823 274.434339 
L 210.702823 272.861596 
L 211.862293 272.861596 
L 211.862293 272.337348 
L 213.00086 272.337348 
L 213.00086 271.8131 
L 213.215109 271.8131 
L 213.215109 271.288853 
L 213.865992 271.288853 
L 213.865992 270.764605 
L 215.564718 270.764605 
L 215.564718 270.240357 
L 220.544652 270.240357 
L 220.544652 269.716109 
L 222.248205 269.716109 
L 222.248205 268.667614 
L 222.6903 268.667614 
L 222.6903 268.143366 
L 223.484675 268.143366 
L 223.484675 267.094871 
L 223.66382 267.094871 
L 223.66382 266.570623 
L 224.673274 266.570623 
L 224.673274 265.522128 
L 226.372586 265.522128 
L 226.372586 264.99788 
L 232.665226 264.99788 
L 232.665226 264.473632 
L 254.488501 264.473632 
L 254.488501 263.949385 
L 254.912852 263.949385 
L 254.912852 263.425137 
L 333.429677 263.425137 
" style="fill:none;stroke:#ff00ff;stroke-linecap:square;stroke-width:1.5;"/>
   </g>
   <g id="line2d_118">
    <defs>
     <path d="M -0 8.485281 
L 5.091169 0 
L 0 -8.485281 
L -5.091169 -0 
z
" id="mdc834b7d26" style="stroke:#ff00ff;stroke-linejoin:miter;stroke-width:1.5;"/>
    </defs>
    <g>
     <use style="fill:none;stroke:#ff00ff;stroke-linejoin:miter;stroke-width:1.5;" x="202.922815" xlink:href="#mdc834b7d26" y="276.007082"/>
     <use style="fill:none;stroke:#ff00ff;stroke-linejoin:miter;stroke-width:1.5;" x="254.912852" xlink:href="#mdc834b7d26" y="263.949385"/>
     <use style="fill:none;stroke:#ff00ff;stroke-linejoin:miter;stroke-width:1.5;" x="254.912852" xlink:href="#mdc834b7d26" y="263.425137"/>
     <use style="fill:none;stroke:#ff00ff;stroke-linejoin:miter;stroke-width:1.5;" x="333.429677" xlink:href="#mdc834b7d26" y="263.425137"/>
    </g>
   </g>
   <g id="line2d_119">
    <path d="M 0 0 
" style="fill:none;stroke:#ff00ff;stroke-linecap:square;stroke-width:1.5;"/>
    <g>
     <use style="fill:none;stroke:#ff00ff;stroke-linejoin:miter;stroke-width:1.5;" x="0" xlink:href="#mdc834b7d26" y="0"/>
    </g>
   </g>
   <g id="line2d_120">
    <path clip-path="url(#p66bca8480d)" d="M 254.251268 264.473632 
" style="fill:none;stroke:#ff00ff;stroke-linecap:square;stroke-width:1.5;"/>
    <defs>
     <path d="M -12 12 
L 12 -12 
M -12 -12 
L 12 12 
" id="m2e48fbadd5" style="stroke:#ff00ff;stroke-width:3;"/>
    </defs>
    <g clip-path="url(#p66bca8480d)">
     <use style="fill:#ff00ff;stroke:#ff00ff;stroke-width:3;" x="254.251268" xlink:href="#m2e48fbadd5" y="264.473632"/>
    </g>
   </g>
   <g id="line2d_121">
    <defs>
     <path d="M 0 1.5 
C 0.397805 1.5 0.77937 1.341951 1.06066 1.06066 
C 1.341951 0.77937 1.5 0.397805 1.5 0 
C 1.5 -0.397805 1.341951 -0.77937 1.06066 -1.06066 
C 0.77937 -1.341951 0.397805 -1.5 0 -1.5 
C -0.397805 -1.5 -0.77937 -1.341951 -1.06066 -1.06066 
C -1.341951 -0.77937 -1.5 -0.397805 -1.5 0 
C -1.5 0.397805 -1.341951 0.77937 -1.06066 1.06066 
C -0.77937 1.341951 -0.397805 1.5 0 1.5 
z
" id="m4bdd340d64" style="stroke:#ffa500;"/>
    </defs>
    <g>
     <use style="fill:#ffa500;stroke:#ffa500;" x="218.173813" xlink:href="#m4bdd340d64" y="263.425137"/>
     <use style="fill:#ffa500;stroke:#ffa500;" x="218.173813" xlink:href="#m4bdd340d64" y="263.425137"/>
    </g>
   </g>
   <g id="line2d_122">
    <path d="M 156.274157 294.88 
L 156.274157 294.355752 
L 159.568329 294.355752 
L 159.568329 293.831505 
L 164.473592 293.831505 
L 164.473592 293.307257 
L 168.058857 293.307257 
L 168.058857 292.783009 
L 170.138627 292.783009 
L 170.138627 291.734514 
L 172.47981 291.734514 
L 172.47981 291.210266 
L 172.663715 291.210266 
L 172.663715 290.686018 
L 173.472488 290.686018 
L 173.472488 290.161771 
L 175.46052 290.161771 
L 175.46052 289.637523 
L 176.509556 289.637523 
L 176.509556 288.589027 
L 176.740791 288.589027 
L 176.740791 288.06478 
L 176.985798 288.06478 
L 176.985798 287.540532 
L 178.228108 287.540532 
L 178.228108 287.016284 
L 180.048506 287.016284 
L 180.048506 286.492036 
L 180.369462 286.492036 
L 180.369462 285.443541 
L 180.694408 285.443541 
L 180.694408 284.919293 
L 182.208172 284.919293 
L 182.208172 283.870798 
L 183.125249 283.870798 
L 183.125249 283.34655 
L 183.699166 283.34655 
L 183.699166 282.822302 
L 184.466835 282.822302 
L 184.466835 281.773807 
L 184.645186 281.773807 
L 184.645186 280.725312 
L 187.018502 280.725312 
L 187.018502 280.201064 
L 187.190145 280.201064 
L 187.190145 279.676816 
L 188.067819 279.676816 
L 188.067819 279.152568 
L 190.232431 279.152568 
L 190.232431 278.104073 
L 191.038597 278.104073 
L 191.038597 277.579825 
L 192.175783 277.579825 
L 192.175783 276.53133 
L 195.793178 276.53133 
L 195.793178 276.007082 
L 195.87452 276.007082 
L 195.87452 274.958587 
L 196.233126 274.958587 
L 196.233126 274.434339 
L 196.554999 274.434339 
L 196.554999 273.910091 
L 197.116295 273.910091 
L 197.116295 273.385844 
L 198.619881 273.385844 
L 198.619881 272.337348 
L 199.184419 272.337348 
L 199.184419 271.288853 
L 200.036254 271.288853 
L 200.036254 270.764605 
L 200.529221 270.764605 
L 200.529221 270.240357 
L 200.736298 270.240357 
L 200.736298 269.191862 
L 205.383671 269.191862 
L 205.383671 268.667614 
L 208.620729 268.667614 
L 208.620729 268.143366 
L 209.868493 268.143366 
L 209.868493 267.094871 
L 209.967769 267.094871 
L 209.967769 266.046375 
L 211.37897 266.046375 
L 211.37897 265.522128 
L 211.780078 265.522128 
L 211.780078 264.99788 
L 213.648486 264.99788 
L 213.648486 263.949385 
L 218.173813 263.949385 
L 218.173813 263.425137 
L 333.429677 263.425137 
" style="fill:none;stroke:#ffa500;stroke-linecap:square;stroke-width:1.5;"/>
   </g>
   <g id="line2d_123">
    <defs>
     <path d="M 0 -6 
L -1.347084 -1.854102 
L -5.706339 -1.854102 
L -2.179628 0.708204 
L -3.526712 4.854102 
L -0 2.291796 
L 3.526712 4.854102 
L 2.179628 0.708204 
L 5.706339 -1.854102 
L 1.347084 -1.854102 
z
" id="m0cfa11ea80" style="stroke:#ffa500;stroke-linejoin:bevel;stroke-width:1.5;"/>
    </defs>
    <g>
     <use style="fill:none;stroke:#ffa500;stroke-linejoin:bevel;stroke-width:1.5;" x="205.383671" xlink:href="#m0cfa11ea80" y="268.667614"/>
     <use style="fill:none;stroke:#ffa500;stroke-linejoin:bevel;stroke-width:1.5;" x="218.173813" xlink:href="#m0cfa11ea80" y="263.425137"/>
     <use style="fill:none;stroke:#ffa500;stroke-linejoin:bevel;stroke-width:1.5;" x="218.173813" xlink:href="#m0cfa11ea80" y="263.425137"/>
     <use style="fill:none;stroke:#ffa500;stroke-linejoin:bevel;stroke-width:1.5;" x="333.429677" xlink:href="#m0cfa11ea80" y="263.425137"/>
    </g>
   </g>
   <g id="line2d_124">
    <path d="M 0 0 
" style="fill:none;stroke:#ffa500;stroke-linecap:square;stroke-width:1.5;"/>
    <g>
     <use style="fill:none;stroke:#ffa500;stroke-linejoin:bevel;stroke-width:1.5;" x="0" xlink:href="#m0cfa11ea80" y="0"/>
    </g>
   </g>
   <g id="line2d_125">
    <path clip-path="url(#p66bca8480d)" d="M 254.261573 263.425137 
" style="fill:none;stroke:#ffa500;stroke-linecap:square;stroke-width:1.5;"/>
    <defs>
     <path d="M -12 12 
L 12 -12 
M -12 -12 
L 12 12 
" id="m0486ce06c0" style="stroke:#ffa500;stroke-width:3;"/>
    </defs>
    <g clip-path="url(#p66bca8480d)">
     <use style="fill:#ffa500;stroke:#ffa500;stroke-width:3;" x="254.261573" xlink:href="#m0486ce06c0" y="263.425137"/>
    </g>
   </g>
   <g id="line2d_126">
    <defs>
     <path d="M 0 1.5 
C 0.397805 1.5 0.77937 1.341951 1.06066 1.06066 
C 1.341951 0.77937 1.5 0.397805 1.5 0 
C 1.5 -0.397805 1.341951 -0.77937 1.06066 -1.06066 
C 0.77937 -1.341951 0.397805 -1.5 0 -1.5 
C -0.397805 -1.5 -0.77937 -1.341951 -1.06066 -1.06066 
C -1.341951 -0.77937 -1.5 -0.397805 -1.5 0 
C -1.5 0.397805 -1.341951 0.77937 -1.06066 1.06066 
C -0.77937 1.341951 -0.397805 1.5 0 1.5 
z
" id="mc43c2becc6" style="stroke:#6495ed;"/>
    </defs>
    <g>
     <use style="fill:#6495ed;stroke:#6495ed;" x="256.168012" xlink:href="#mc43c2becc6" y="263.425137"/>
     <use style="fill:#6495ed;stroke:#6495ed;" x="256.168012" xlink:href="#mc43c2becc6" y="263.425137"/>
    </g>
   </g>
   <g id="line2d_127">
    <path d="M 162.972543 294.88 
L 162.972543 294.355752 
L 163.188829 294.355752 
L 163.188829 293.307257 
L 165.851203 293.307257 
L 165.851203 292.783009 
L 165.889154 292.783009 
L 165.889154 291.734514 
L 169.236099 291.734514 
L 169.236099 290.161771 
L 170.245355 290.161771 
L 170.245355 289.637523 
L 170.490357 289.637523 
L 170.490357 288.589027 
L 174.936008 288.589027 
L 174.936008 287.540532 
L 176.49382 287.540532 
L 176.49382 287.016284 
L 177.452189 287.016284 
L 177.452189 285.967789 
L 177.69615 285.967789 
L 177.69615 285.443541 
L 178.507661 285.443541 
L 178.507661 284.919293 
L 179.397367 284.919293 
L 179.397367 282.298055 
L 180.731368 282.298055 
L 180.731368 281.773807 
L 184.132788 281.773807 
L 184.132788 281.249559 
L 187.026186 281.249559 
L 187.026186 280.201064 
L 187.775304 280.201064 
L 187.775304 279.676816 
L 188.104737 279.676816 
L 188.104737 279.152568 
L 189.202583 279.152568 
L 189.202583 278.628321 
L 189.828149 278.628321 
L 189.828149 277.579825 
L 191.288259 277.579825 
L 191.288259 276.007082 
L 192.305018 276.007082 
L 192.305018 274.434339 
L 192.556898 274.434339 
L 192.556898 273.385844 
L 193.102705 273.385844 
L 193.102705 272.861596 
L 195.867884 272.861596 
L 195.867884 272.337348 
L 197.193993 272.337348 
L 197.193993 271.8131 
L 202.669551 271.8131 
L 202.669551 271.288853 
L 204.977769 271.288853 
L 204.977769 270.764605 
L 205.79456 270.764605 
L 205.79456 268.667614 
L 207.014497 268.667614 
L 207.014497 267.619119 
L 210.075422 267.619119 
L 210.075422 267.094871 
L 210.693336 267.094871 
L 210.693336 266.570623 
L 211.661825 266.570623 
L 211.661825 266.046375 
L 213.645216 266.046375 
L 213.645216 265.522128 
L 232.590484 265.522128 
L 232.590484 264.99788 
L 254.667346 264.99788 
L 254.667346 264.473632 
L 255.782211 264.473632 
L 255.782211 263.949385 
L 256.168012 263.949385 
L 256.168012 263.425137 
L 333.429677 263.425137 
" style="fill:none;stroke:#6495ed;stroke-linecap:square;stroke-width:1.5;"/>
   </g>
   <g id="line2d_128">
    <defs>
     <path d="M -0 6 
L 6 -6 
L -6 -6 
z
" id="mda1fc40723" style="stroke:#6495ed;stroke-linejoin:miter;stroke-width:1.5;"/>
    </defs>
    <g>
     <use style="fill:none;stroke:#6495ed;stroke-linejoin:miter;stroke-width:1.5;" x="179.397367" xlink:href="#mda1fc40723" y="284.919293"/>
     <use style="fill:none;stroke:#6495ed;stroke-linejoin:miter;stroke-width:1.5;" x="210.693336" xlink:href="#mda1fc40723" y="267.094871"/>
     <use style="fill:none;stroke:#6495ed;stroke-linejoin:miter;stroke-width:1.5;" x="256.168012" xlink:href="#mda1fc40723" y="263.425137"/>
     <use style="fill:none;stroke:#6495ed;stroke-linejoin:miter;stroke-width:1.5;" x="333.429677" xlink:href="#mda1fc40723" y="263.425137"/>
    </g>
   </g>
   <g id="line2d_129">
    <path d="M 0 0 
" style="fill:none;stroke:#6495ed;stroke-linecap:square;stroke-width:1.5;"/>
    <g>
     <use style="fill:none;stroke:#6495ed;stroke-linejoin:miter;stroke-width:1.5;" x="0" xlink:href="#mda1fc40723" y="0"/>
    </g>
   </g>
   <g id="line2d_130">
    <path clip-path="url(#p66bca8480d)" d="M 254.256104 264.99788 
" style="fill:none;stroke:#6495ed;stroke-linecap:square;stroke-width:1.5;"/>
    <defs>
     <path d="M -12 12 
L 12 -12 
M -12 -12 
L 12 12 
" id="mfbad4727ed" style="stroke:#6495ed;stroke-width:3;"/>
    </defs>
    <g clip-path="url(#p66bca8480d)">
     <use style="fill:#6495ed;stroke:#6495ed;stroke-width:3;" x="254.256104" xlink:href="#mfbad4727ed" y="264.99788"/>
    </g>
   </g>
   <g id="line2d_131">
    <path d="M 333.429677 263.425137 
L 363.933742 289.532673 
" style="fill:none;stroke:#6495ed;stroke-linecap:square;stroke-width:1.5;"/>
    <g>
     <use style="fill:none;stroke:#6495ed;stroke-linejoin:miter;stroke-width:1.5;" x="333.429677" xlink:href="#mda1fc40723" y="263.425137"/>
     <use style="fill:none;stroke:#6495ed;stroke-linejoin:miter;stroke-width:1.5;" x="363.933742" xlink:href="#mda1fc40723" y="289.532673"/>
    </g>
   </g>
   <g id="line2d_132">
    <path d="M 333.429677 263.425137 
L 363.933742 225.364752 
" style="fill:none;stroke:#ff00ff;stroke-linecap:square;stroke-width:1.5;"/>
    <g>
     <use style="fill:none;stroke:#ff00ff;stroke-linejoin:miter;stroke-width:1.5;" x="333.429677" xlink:href="#mdc834b7d26" y="263.425137"/>
     <use style="fill:none;stroke:#ff00ff;stroke-linejoin:miter;stroke-width:1.5;" x="363.933742" xlink:href="#mdc834b7d26" y="225.364752"/>
    </g>
   </g>
   <g id="line2d_133">
    <path d="M 333.429677 263.425137 
L 363.933742 161.196832 
" style="fill:none;stroke:#000080;stroke-linecap:square;stroke-width:1.5;"/>
    <g>
     <use style="fill:none;stroke:#000080;stroke-width:1.5;" x="333.429677" xlink:href="#m954145247d" y="263.425137"/>
     <use style="fill:none;stroke:#000080;stroke-width:1.5;" x="363.933742" xlink:href="#m954145247d" y="161.196832"/>
    </g>
   </g>
   <g id="line2d_134">
    <path d="M 333.429677 263.425137 
L 363.933742 97.028911 
" style="fill:none;stroke:#ffa500;stroke-linecap:square;stroke-width:1.5;"/>
    <g>
     <use style="fill:none;stroke:#ffa500;stroke-linejoin:bevel;stroke-width:1.5;" x="333.429677" xlink:href="#m0cfa11ea80" y="263.425137"/>
     <use style="fill:none;stroke:#ffa500;stroke-linejoin:bevel;stroke-width:1.5;" x="363.933742" xlink:href="#m0cfa11ea80" y="97.028911"/>
    </g>
   </g>
   <g id="line2d_135">
    <path d="M 333.429677 294.88 
L 333.429677 27.513663 
" style="fill:none;stroke:#000000;stroke-linecap:square;stroke-width:1.5;"/>
   </g>
   <g id="patch_3">
    <path d="M 56.12 294.88 
L 56.12 24.84 
" style="fill:none;stroke:#000000;stroke-linecap:square;stroke-linejoin:miter;stroke-width:0.8;"/>
   </g>
   <g id="patch_4">
    <path d="M 399.984 294.88 
L 399.984 24.84 
" style="fill:none;stroke:#000000;stroke-linecap:square;stroke-linejoin:miter;stroke-width:0.8;"/>
   </g>
   <g id="patch_5">
    <path d="M 56.12 294.88 
L 399.984 294.88 
" style="fill:none;stroke:#000000;stroke-linecap:square;stroke-linejoin:miter;stroke-width:0.8;"/>
   </g>
   <g id="patch_6">
    <path d="M 56.12 24.84 
L 399.984 24.84 
" style="fill:none;stroke:#000000;stroke-linecap:square;stroke-linejoin:miter;stroke-width:0.8;"/>
   </g>
   <g id="text_14">
    <!-- PSAaSmD-C -->
    <defs>
     <path d="M 19.671875 64.796875 
L 19.671875 37.40625 
L 32.078125 37.40625 
Q 38.96875 37.40625 42.71875 40.96875 
Q 46.484375 44.53125 46.484375 51.125 
Q 46.484375 57.671875 42.71875 61.234375 
Q 38.96875 64.796875 32.078125 64.796875 
z
M 9.8125 72.90625 
L 32.078125 72.90625 
Q 44.34375 72.90625 50.609375 67.359375 
Q 56.890625 61.8125 56.890625 51.125 
Q 56.890625 40.328125 50.609375 34.8125 
Q 44.34375 29.296875 32.078125 29.296875 
L 19.671875 29.296875 
L 19.671875 0 
L 9.8125 0 
z
" id="DejaVuSans-50"/>
     <path d="M 53.515625 70.515625 
L 53.515625 60.890625 
Q 47.90625 63.578125 42.921875 64.890625 
Q 37.9375 66.21875 33.296875 66.21875 
Q 25.25 66.21875 20.875 63.09375 
Q 16.5 59.96875 16.5 54.203125 
Q 16.5 49.359375 19.40625 46.890625 
Q 22.3125 44.4375 30.421875 42.921875 
L 36.375 41.703125 
Q 47.40625 39.59375 52.65625 34.296875 
Q 57.90625 29 57.90625 20.125 
Q 57.90625 9.515625 50.796875 4.046875 
Q 43.703125 -1.421875 29.984375 -1.421875 
Q 24.8125 -1.421875 18.96875 -0.25 
Q 13.140625 0.921875 6.890625 3.21875 
L 6.890625 13.375 
Q 12.890625 10.015625 18.65625 8.296875 
Q 24.421875 6.59375 29.984375 6.59375 
Q 38.421875 6.59375 43.015625 9.90625 
Q 47.609375 13.234375 47.609375 19.390625 
Q 47.609375 24.75 44.3125 27.78125 
Q 41.015625 30.8125 33.5 32.328125 
L 27.484375 33.5 
Q 16.453125 35.6875 11.515625 40.375 
Q 6.59375 45.0625 6.59375 53.421875 
Q 6.59375 63.09375 13.40625 68.65625 
Q 20.21875 74.21875 32.171875 74.21875 
Q 37.3125 74.21875 42.625 73.28125 
Q 47.953125 72.359375 53.515625 70.515625 
z
" id="DejaVuSans-53"/>
     <path d="M 34.1875 63.1875 
L 20.796875 26.90625 
L 47.609375 26.90625 
z
M 28.609375 72.90625 
L 39.796875 72.90625 
L 67.578125 0 
L 57.328125 0 
L 50.6875 18.703125 
L 17.828125 18.703125 
L 11.1875 0 
L 0.78125 0 
z
" id="DejaVuSans-41"/>
     <path d="M 19.671875 64.796875 
L 19.671875 8.109375 
L 31.59375 8.109375 
Q 46.6875 8.109375 53.6875 14.9375 
Q 60.6875 21.78125 60.6875 36.53125 
Q 60.6875 51.171875 53.6875 57.984375 
Q 46.6875 64.796875 31.59375 64.796875 
z
M 9.8125 72.90625 
L 30.078125 72.90625 
Q 51.265625 72.90625 61.171875 64.09375 
Q 71.09375 55.28125 71.09375 36.53125 
Q 71.09375 17.671875 61.125 8.828125 
Q 51.171875 0 30.078125 0 
L 9.8125 0 
z
" id="DejaVuSans-44"/>
     <path d="M 64.40625 67.28125 
L 64.40625 56.890625 
Q 59.421875 61.53125 53.78125 63.8125 
Q 48.140625 66.109375 41.796875 66.109375 
Q 29.296875 66.109375 22.65625 58.46875 
Q 16.015625 50.828125 16.015625 36.375 
Q 16.015625 21.96875 22.65625 14.328125 
Q 29.296875 6.6875 41.796875 6.6875 
Q 48.140625 6.6875 53.78125 8.984375 
Q 59.421875 11.28125 64.40625 15.921875 
L 64.40625 5.609375 
Q 59.234375 2.09375 53.4375 0.328125 
Q 47.65625 -1.421875 41.21875 -1.421875 
Q 24.65625 -1.421875 15.125 8.703125 
Q 5.609375 18.84375 5.609375 36.375 
Q 5.609375 53.953125 15.125 64.078125 
Q 24.65625 74.21875 41.21875 74.21875 
Q 47.75 74.21875 53.53125 72.484375 
Q 59.328125 70.75 64.40625 67.28125 
z
" id="DejaVuSans-43"/>
    </defs>
    <g transform="translate(369.479935 294.223611)scale(0.17 -0.17)">
     <use xlink:href="#DejaVuSans-50"/>
     <use x="60.302734" xlink:href="#DejaVuSans-53"/>
     <use x="123.794922" xlink:href="#DejaVuSans-41"/>
     <use x="192.203125" xlink:href="#DejaVuSans-61"/>
     <use x="253.482422" xlink:href="#DejaVuSans-53"/>
     <use x="316.958984" xlink:href="#DejaVuSans-6d"/>
     <use x="414.371094" xlink:href="#DejaVuSans-44"/>
     <use x="491.373047" xlink:href="#DejaVuSans-2d"/>
     <use x="527.457031" xlink:href="#DejaVuSans-43"/>
    </g>
   </g>
   <g id="text_15">
    <!-- PSAaLmD-C -->
    <defs>
     <path d="M 9.8125 72.90625 
L 19.671875 72.90625 
L 19.671875 8.296875 
L 55.171875 8.296875 
L 55.171875 0 
L 9.8125 0 
z
" id="DejaVuSans-4c"/>
    </defs>
    <g transform="translate(369.479935 230.05569)scale(0.17 -0.17)">
     <use xlink:href="#DejaVuSans-50"/>
     <use x="60.302734" xlink:href="#DejaVuSans-53"/>
     <use x="123.794922" xlink:href="#DejaVuSans-41"/>
     <use x="192.203125" xlink:href="#DejaVuSans-61"/>
     <use x="253.482422" xlink:href="#DejaVuSans-4c"/>
     <use x="309.195312" xlink:href="#DejaVuSans-6d"/>
     <use x="406.607422" xlink:href="#DejaVuSans-44"/>
     <use x="483.609375" xlink:href="#DejaVuSans-2d"/>
     <use x="519.693359" xlink:href="#DejaVuSans-43"/>
    </g>
   </g>
   <g id="text_16">
    <!-- PSAaLmC-C -->
    <g transform="translate(369.479935 165.887769)scale(0.17 -0.17)">
     <use xlink:href="#DejaVuSans-50"/>
     <use x="60.302734" xlink:href="#DejaVuSans-53"/>
     <use x="123.794922" xlink:href="#DejaVuSans-41"/>
     <use x="192.203125" xlink:href="#DejaVuSans-61"/>
     <use x="253.482422" xlink:href="#DejaVuSans-4c"/>
     <use x="309.195312" xlink:href="#DejaVuSans-6d"/>
     <use x="406.607422" xlink:href="#DejaVuSans-43"/>
     <use x="476.431641" xlink:href="#DejaVuSans-2d"/>
     <use x="512.515625" xlink:href="#DejaVuSans-43"/>
    </g>
   </g>
   <g id="text_17">
    <!-- PSAaSmC-C -->
    <g transform="translate(369.479935 101.719848)scale(0.17 -0.17)">
     <use xlink:href="#DejaVuSans-50"/>
     <use x="60.302734" xlink:href="#DejaVuSans-53"/>
     <use x="123.794922" xlink:href="#DejaVuSans-41"/>
     <use x="192.203125" xlink:href="#DejaVuSans-61"/>
     <use x="253.482422" xlink:href="#DejaVuSans-53"/>
     <use x="316.958984" xlink:href="#DejaVuSans-6d"/>
     <use x="414.371094" xlink:href="#DejaVuSans-43"/>
     <use x="484.195312" xlink:href="#DejaVuSans-2d"/>
     <use x="520.279297" xlink:href="#DejaVuSans-43"/>
    </g>
   </g>
   <g id="text_18">
    <!-- best 2009 -->
    <defs>
     <path d="M 48.6875 27.296875 
Q 48.6875 37.203125 44.609375 42.84375 
Q 40.53125 48.484375 33.40625 48.484375 
Q 26.265625 48.484375 22.1875 42.84375 
Q 18.109375 37.203125 18.109375 27.296875 
Q 18.109375 17.390625 22.1875 11.75 
Q 26.265625 6.109375 33.40625 6.109375 
Q 40.53125 6.109375 44.609375 11.75 
Q 48.6875 17.390625 48.6875 27.296875 
z
M 18.109375 46.390625 
Q 20.953125 51.265625 25.265625 53.625 
Q 29.59375 56 35.59375 56 
Q 45.5625 56 51.78125 48.09375 
Q 58.015625 40.1875 58.015625 27.296875 
Q 58.015625 14.40625 51.78125 6.484375 
Q 45.5625 -1.421875 35.59375 -1.421875 
Q 29.59375 -1.421875 25.265625 0.953125 
Q 20.953125 3.328125 18.109375 8.203125 
L 18.109375 0 
L 9.078125 0 
L 9.078125 75.984375 
L 18.109375 75.984375 
z
" id="DejaVuSans-62"/>
     <path d="M 10.984375 1.515625 
L 10.984375 10.5 
Q 14.703125 8.734375 18.5 7.8125 
Q 22.3125 6.890625 25.984375 6.890625 
Q 35.75 6.890625 40.890625 13.453125 
Q 46.046875 20.015625 46.78125 33.40625 
Q 43.953125 29.203125 39.59375 26.953125 
Q 35.25 24.703125 29.984375 24.703125 
Q 19.046875 24.703125 12.671875 31.3125 
Q 6.296875 37.9375 6.296875 49.421875 
Q 6.296875 60.640625 12.9375 67.421875 
Q 19.578125 74.21875 30.609375 74.21875 
Q 43.265625 74.21875 49.921875 64.515625 
Q 56.59375 54.828125 56.59375 36.375 
Q 56.59375 19.140625 48.40625 8.859375 
Q 40.234375 -1.421875 26.421875 -1.421875 
Q 22.703125 -1.421875 18.890625 -0.6875 
Q 15.09375 0.046875 10.984375 1.515625 
z
M 30.609375 32.421875 
Q 37.25 32.421875 41.125 36.953125 
Q 45.015625 41.5 45.015625 49.421875 
Q 45.015625 57.28125 41.125 61.84375 
Q 37.25 66.40625 30.609375 66.40625 
Q 23.96875 66.40625 20.09375 61.84375 
Q 16.21875 57.28125 16.21875 49.421875 
Q 16.21875 41.5 20.09375 36.953125 
Q 23.96875 32.421875 30.609375 32.421875 
z
" id="DejaVuSans-39"/>
    </defs>
    <g transform="translate(369.479935 37.551928)scale(0.17 -0.17)">
     <use xlink:href="#DejaVuSans-62"/>
     <use x="63.476562" xlink:href="#DejaVuSans-65"/>
     <use x="125" xlink:href="#DejaVuSans-73"/>
     <use x="177.099609" xlink:href="#DejaVuSans-74"/>
     <use x="216.308594" xlink:href="#DejaVuSans-20"/>
     <use x="248.095703" xlink:href="#DejaVuSans-32"/>
     <use x="311.71875" xlink:href="#DejaVuSans-30"/>
     <use x="375.341797" xlink:href="#DejaVuSans-30"/>
     <use x="438.964844" xlink:href="#DejaVuSans-39"/>
    </g>
   </g>
   <g id="text_19">
    <!-- bbob f111, 10-D -->
    <g transform="translate(59.55864 35.290806)scale(0.102 -0.102)">
     <use xlink:href="#DejaVuSans-62"/>
     <use x="63.476562" xlink:href="#DejaVuSans-62"/>
     <use x="126.953125" xlink:href="#DejaVuSans-6f"/>
     <use x="188.134766" xlink:href="#DejaVuSans-62"/>
     <use x="251.611328" xlink:href="#DejaVuSans-20"/>
     <use x="283.398438" xlink:href="#DejaVuSans-66"/>
     <use x="318.603516" xlink:href="#DejaVuSans-31"/>
     <use x="382.226562" xlink:href="#DejaVuSans-31"/>
     <use x="445.849609" xlink:href="#DejaVuSans-31"/>
     <use x="509.472656" xlink:href="#DejaVuSans-2c"/>
     <use x="541.259766" xlink:href="#DejaVuSans-20"/>
     <use x="573.046875" xlink:href="#DejaVuSans-31"/>
     <use x="636.669922" xlink:href="#DejaVuSans-30"/>
     <use x="700.292969" xlink:href="#DejaVuSans-2d"/>
     <use x="736.376953" xlink:href="#DejaVuSans-44"/>
    </g>
    <!-- 51 targets: 100..1e-08 -->
    <defs>
     <path d="M 10.796875 72.90625 
L 49.515625 72.90625 
L 49.515625 64.59375 
L 19.828125 64.59375 
L 19.828125 46.734375 
Q 21.96875 47.46875 24.109375 47.828125 
Q 26.265625 48.1875 28.421875 48.1875 
Q 40.625 48.1875 47.75 41.5 
Q 54.890625 34.8125 54.890625 23.390625 
Q 54.890625 11.625 47.5625 5.09375 
Q 40.234375 -1.421875 26.90625 -1.421875 
Q 22.3125 -1.421875 17.546875 -0.640625 
Q 12.796875 0.140625 7.71875 1.703125 
L 7.71875 11.625 
Q 12.109375 9.234375 16.796875 8.0625 
Q 21.484375 6.890625 26.703125 6.890625 
Q 35.15625 6.890625 40.078125 11.328125 
Q 45.015625 15.765625 45.015625 23.390625 
Q 45.015625 31 40.078125 35.4375 
Q 35.15625 39.890625 26.703125 39.890625 
Q 22.75 39.890625 18.8125 39.015625 
Q 14.890625 38.140625 10.796875 36.28125 
z
" id="DejaVuSans-35"/>
     <path d="M 11.71875 12.40625 
L 22.015625 12.40625 
L 22.015625 0 
L 11.71875 0 
z
M 11.71875 51.703125 
L 22.015625 51.703125 
L 22.015625 39.3125 
L 11.71875 39.3125 
z
" id="DejaVuSans-3a"/>
    </defs>
    <g transform="translate(59.55864 46.712575)scale(0.102 -0.102)">
     <use xlink:href="#DejaVuSans-35"/>
     <use x="63.623047" xlink:href="#DejaVuSans-31"/>
     <use x="127.246094" xlink:href="#DejaVuSans-20"/>
     <use x="159.033203" xlink:href="#DejaVuSans-74"/>
     <use x="198.242188" xlink:href="#DejaVuSans-61"/>
     <use x="259.521484" xlink:href="#DejaVuSans-72"/>
     <use x="300.619141" xlink:href="#DejaVuSans-67"/>
     <use x="364.095703" xlink:href="#DejaVuSans-65"/>
     <use x="425.619141" xlink:href="#DejaVuSans-74"/>
     <use x="464.828125" xlink:href="#DejaVuSans-73"/>
     <use x="516.927734" xlink:href="#DejaVuSans-3a"/>
     <use x="550.619141" xlink:href="#DejaVuSans-20"/>
     <use x="582.40625" xlink:href="#DejaVuSans-31"/>
     <use x="646.029297" xlink:href="#DejaVuSans-30"/>
     <use x="709.652344" xlink:href="#DejaVuSans-30"/>
     <use x="773.275391" xlink:href="#DejaVuSans-2e"/>
     <use x="805.0625" xlink:href="#DejaVuSans-2e"/>
     <use x="836.849609" xlink:href="#DejaVuSans-31"/>
     <use x="900.472656" xlink:href="#DejaVuSans-65"/>
     <use x="961.996094" xlink:href="#DejaVuSans-2d"/>
     <use x="998.080078" xlink:href="#DejaVuSans-30"/>
     <use x="1061.703125" xlink:href="#DejaVuSans-38"/>
    </g>
    <!-- 15 instances -->
    <g transform="translate(59.55864 58.134344)scale(0.102 -0.102)">
     <use xlink:href="#DejaVuSans-31"/>
     <use x="63.623047" xlink:href="#DejaVuSans-35"/>
     <use x="127.246094" xlink:href="#DejaVuSans-20"/>
     <use x="159.033203" xlink:href="#DejaVuSans-69"/>
     <use x="186.816406" xlink:href="#DejaVuSans-6e"/>
     <use x="250.195312" xlink:href="#DejaVuSans-73"/>
     <use x="302.294922" xlink:href="#DejaVuSans-74"/>
     <use x="341.503906" xlink:href="#DejaVuSans-61"/>
     <use x="402.783203" xlink:href="#DejaVuSans-6e"/>
     <use x="466.162109" xlink:href="#DejaVuSans-63"/>
     <use x="521.142578" xlink:href="#DejaVuSans-65"/>
     <use x="582.666016" xlink:href="#DejaVuSans-73"/>
    </g>
   </g>
   <g id="text_20">
    <!-- v2.0.778 -->
    <defs>
     <path d="M 8.203125 72.90625 
L 55.078125 72.90625 
L 55.078125 68.703125 
L 28.609375 0 
L 18.3125 0 
L 43.21875 64.59375 
L 8.203125 64.59375 
z
" id="DejaVuSans-37"/>
    </defs>
    <g style="fill:#808080;" transform="translate(206.00825 290.099912)scale(0.1 -0.1)">
     <use xlink:href="#DejaVuSans-76"/>
     <use x="59.179688" xlink:href="#DejaVuSans-32"/>
     <use x="122.802734" xlink:href="#DejaVuSans-2e"/>
     <use x="154.589844" xlink:href="#DejaVuSans-30"/>
     <use x="218.212891" xlink:href="#DejaVuSans-2e"/>
     <use x="250" xlink:href="#DejaVuSans-37"/>
     <use x="313.623047" xlink:href="#DejaVuSans-37"/>
     <use x="377.246094" xlink:href="#DejaVuSans-38"/>
    </g>
   </g>
   <g id="text_21">
    <!-- 111 Rosenbrock unif -->
    <defs>
     <path d="M 44.390625 34.1875 
Q 47.5625 33.109375 50.5625 29.59375 
Q 53.5625 26.078125 56.59375 19.921875 
L 66.609375 0 
L 56 0 
L 46.6875 18.703125 
Q 43.0625 26.03125 39.671875 28.421875 
Q 36.28125 30.8125 30.421875 30.8125 
L 19.671875 30.8125 
L 19.671875 0 
L 9.8125 0 
L 9.8125 72.90625 
L 32.078125 72.90625 
Q 44.578125 72.90625 50.734375 67.671875 
Q 56.890625 62.453125 56.890625 51.90625 
Q 56.890625 45.015625 53.6875 40.46875 
Q 50.484375 35.9375 44.390625 34.1875 
z
M 19.671875 64.796875 
L 19.671875 38.921875 
L 32.078125 38.921875 
Q 39.203125 38.921875 42.84375 42.21875 
Q 46.484375 45.515625 46.484375 51.90625 
Q 46.484375 58.296875 42.84375 61.546875 
Q 39.203125 64.796875 32.078125 64.796875 
z
" id="DejaVuSans-52"/>
     <path d="M 9.078125 75.984375 
L 18.109375 75.984375 
L 18.109375 31.109375 
L 44.921875 54.6875 
L 56.390625 54.6875 
L 27.390625 29.109375 
L 57.625 0 
L 45.90625 0 
L 18.109375 26.703125 
L 18.109375 0 
L 9.078125 0 
z
" id="DejaVuSans-6b"/>
    </defs>
    <g transform="translate(125.009813 18.84)scale(0.2 -0.2)">
     <use xlink:href="#DejaVuSans-31"/>
     <use x="63.623047" xlink:href="#DejaVuSans-31"/>
     <use x="127.246094" xlink:href="#DejaVuSans-31"/>
     <use x="190.869141" xlink:href="#DejaVuSans-20"/>
     <use x="222.65625" xlink:href="#DejaVuSans-52"/>
     <use x="292.076172" xlink:href="#DejaVuSans-6f"/>
     <use x="353.257812" xlink:href="#DejaVuSans-73"/>
     <use x="405.357422" xlink:href="#DejaVuSans-65"/>
     <use x="466.880859" xlink:href="#DejaVuSans-6e"/>
     <use x="530.259766" xlink:href="#DejaVuSans-62"/>
     <use x="593.736328" xlink:href="#DejaVuSans-72"/>
     <use x="634.818359" xlink:href="#DejaVuSans-6f"/>
     <use x="696" xlink:href="#DejaVuSans-63"/>
     <use x="750.980469" xlink:href="#DejaVuSans-6b"/>
     <use x="808.890625" xlink:href="#DejaVuSans-20"/>
     <use x="840.677734" xlink:href="#DejaVuSans-75"/>
     <use x="904.056641" xlink:href="#DejaVuSans-6e"/>
     <use x="967.435547" xlink:href="#DejaVuSans-69"/>
     <use x="995.21875" xlink:href="#DejaVuSans-66"/>
    </g>
   </g>
  </g>
 </g>
 <defs>
  <clipPath id="p66bca8480d">
   <rect height="270.04" width="343.864" x="56.12" y="24.84"/>
  </clipPath>
 </defs>
</svg>
