<?xml version="1.0" encoding="utf-8" standalone="no"?>
<!DOCTYPE svg PUBLIC "-//W3C//DTD SVG 1.1//EN"
  "http://www.w3.org/Graphics/SVG/1.1/DTD/svg11.dtd">
<!-- Created with matplotlib (http://matplotlib.org/) -->
<svg height="345pt" version="1.1" viewBox="0 0 460 345" width="460pt" xmlns="http://www.w3.org/2000/svg" xmlns:xlink="http://www.w3.org/1999/xlink">
 <defs>
  <style type="text/css">
*{stroke-linecap:butt;stroke-linejoin:round;}
  </style>
 </defs>
 <g id="figure_1">
  <g id="patch_1">
   <path d="M 0 345.6 
L 460.8 345.6 
L 460.8 0 
L 0 0 
z
" style="fill:#ffffff;"/>
  </g>
  <g id="axes_1">
   <g id="patch_2">
    <path d="M 56.12 294.88 
L 399.984 294.88 
L 399.984 24.84 
L 56.12 24.84 
z
" style="fill:#ffffff;"/>
   </g>
   <g id="line2d_1">
    <path d="M 112.648299 294.88 
L 112.648299 289.637523 
L 116.612534 289.637523 
L 116.612534 284.395046 
L 122.103104 284.395046 
L 122.103104 279.152568 
L 135.675162 279.152568 
L 135.675162 273.910091 
L 153.151611 273.910091 
L 153.151611 268.667614 
L 163.500709 268.667614 
L 163.500709 263.425137 
L 167.847419 263.425137 
L 167.847419 258.18266 
L 170.28662 258.18266 
L 170.28662 252.940182 
L 194.24541 252.940182 
L 194.24541 247.697705 
L 197.285453 247.697705 
L 197.285453 242.455228 
L 202.160061 242.455228 
L 202.160061 237.212751 
L 207.338111 237.212751 
L 207.338111 231.970274 
L 207.647835 231.970274 
L 207.647835 226.727797 
L 209.489456 226.727797 
L 209.489456 221.485319 
L 210.954059 221.485319 
L 210.954059 216.242842 
L 213.363124 216.242842 
L 213.363124 211.000365 
L 213.695786 211.000365 
L 213.695786 205.757888 
L 215.040918 205.757888 
L 215.040918 200.515411 
L 215.167853 200.515411 
L 215.167853 195.272933 
L 215.275978 195.272933 
L 215.275978 190.030456 
L 215.349195 190.030456 
L 215.349195 74.695958 
L 215.34973 74.695958 
L 215.34973 69.453481 
L 215.375421 69.453481 
L 215.375421 64.211004 
L 215.385563 64.211004 
L 215.385563 58.968526 
L 215.41034 58.968526 
L 215.41034 53.726049 
L 215.424764 53.726049 
L 215.424764 48.483572 
L 215.46555 48.483572 
L 215.46555 43.241095 
L 215.485152 43.241095 
L 215.485152 37.998618 
L 215.507911 37.998618 
L 215.507911 32.756141 
L 215.562362 32.756141 
L 215.562362 27.513663 
L 333.429677 27.513663 
" style="fill:none;stroke:#f5deb3;stroke-linecap:square;stroke-width:6;"/>
   </g>
   <g id="line2d_2">
    <path d="M 0 0 
" style="fill:none;stroke:#f5deb3;stroke-linecap:square;stroke-width:6;"/>
    <defs>
     <path d="M -0 7.778175 
L 7.778175 0 
L 0 -7.778175 
L -7.778175 -0 
z
" id="mfffa8c3e91" style="stroke:#f5deb3;stroke-linejoin:miter;stroke-width:1.5;"/>
    </defs>
    <g>
     <use style="fill:#f5deb3;stroke:#f5deb3;stroke-linejoin:miter;stroke-width:1.5;" x="0" xlink:href="#mfffa8c3e91" y="0"/>
    </g>
   </g>
   <g id="line2d_3">
    <path d="M 333.429677 27.513663 
L 363.933742 289.532673 
" style="fill:none;stroke:#f5deb3;stroke-linecap:square;stroke-width:6;"/>
    <g>
     <use style="fill:#f5deb3;stroke:#f5deb3;stroke-linejoin:miter;stroke-width:1.5;" x="333.429677" xlink:href="#mfffa8c3e91" y="27.513663"/>
     <use style="fill:#f5deb3;stroke:#f5deb3;stroke-linejoin:miter;stroke-width:1.5;" x="363.933742" xlink:href="#mfffa8c3e91" y="289.532673"/>
    </g>
   </g>
   <g id="matplotlib.axis_1">
    <g id="xtick_1">
     <g id="line2d_4">
      <path clip-path="url(#pd17c28e351)" d="M 56.12 294.88 
L 56.12 24.84 
" style="fill:none;stroke:#b0b0b0;stroke-linecap:square;stroke-width:0.8;"/>
     </g>
     <g id="line2d_5">
      <defs>
       <path d="M 0 0 
L 0 3.5 
" id="m9aa79cac6e" style="stroke:#000000;stroke-width:0.8;"/>
      </defs>
      <g>
       <use style="stroke:#000000;stroke-width:0.8;" x="56.12" xlink:href="#m9aa79cac6e" y="294.88"/>
      </g>
     </g>
     <g id="text_1">
      <!-- 0 -->
      <defs>
       <path d="M 31.78125 66.40625 
Q 24.171875 66.40625 20.328125 58.90625 
Q 16.5 51.421875 16.5 36.375 
Q 16.5 21.390625 20.328125 13.890625 
Q 24.171875 6.390625 31.78125 6.390625 
Q 39.453125 6.390625 43.28125 13.890625 
Q 47.125 21.390625 47.125 36.375 
Q 47.125 51.421875 43.28125 58.90625 
Q 39.453125 66.40625 31.78125 66.40625 
z
M 31.78125 74.21875 
Q 44.046875 74.21875 50.515625 64.515625 
Q 56.984375 54.828125 56.984375 36.375 
Q 56.984375 17.96875 50.515625 8.265625 
Q 44.046875 -1.421875 31.78125 -1.421875 
Q 19.53125 -1.421875 13.0625 8.265625 
Q 6.59375 17.96875 6.59375 36.375 
Q 6.59375 54.828125 13.0625 64.515625 
Q 19.53125 74.21875 31.78125 74.21875 
z
" id="DejaVuSans-30"/>
      </defs>
      <g transform="translate(49.7575 317.076875)scale(0.2 -0.2)">
       <use xlink:href="#DejaVuSans-30"/>
      </g>
     </g>
    </g>
    <g id="xtick_2">
     <g id="line2d_6">
      <path clip-path="url(#pd17c28e351)" d="M 135.351336 294.88 
L 135.351336 24.84 
" style="fill:none;stroke:#b0b0b0;stroke-linecap:square;stroke-width:0.8;"/>
     </g>
     <g id="line2d_7">
      <g>
       <use style="stroke:#000000;stroke-width:0.8;" x="135.351336" xlink:href="#m9aa79cac6e" y="294.88"/>
      </g>
     </g>
     <g id="text_2">
      <!-- 2 -->
      <defs>
       <path d="M 19.1875 8.296875 
L 53.609375 8.296875 
L 53.609375 0 
L 7.328125 0 
L 7.328125 8.296875 
Q 12.9375 14.109375 22.625 23.890625 
Q 32.328125 33.6875 34.8125 36.53125 
Q 39.546875 41.84375 41.421875 45.53125 
Q 43.3125 49.21875 43.3125 52.78125 
Q 43.3125 58.59375 39.234375 62.25 
Q 35.15625 65.921875 28.609375 65.921875 
Q 23.96875 65.921875 18.8125 64.3125 
Q 13.671875 62.703125 7.8125 59.421875 
L 7.8125 69.390625 
Q 13.765625 71.78125 18.9375 73 
Q 24.125 74.21875 28.421875 74.21875 
Q 39.75 74.21875 46.484375 68.546875 
Q 53.21875 62.890625 53.21875 53.421875 
Q 53.21875 48.921875 51.53125 44.890625 
Q 49.859375 40.875 45.40625 35.40625 
Q 44.1875 33.984375 37.640625 27.21875 
Q 31.109375 20.453125 19.1875 8.296875 
z
" id="DejaVuSans-32"/>
      </defs>
      <g transform="translate(128.988836 317.076875)scale(0.2 -0.2)">
       <use xlink:href="#DejaVuSans-32"/>
      </g>
     </g>
    </g>
    <g id="xtick_3">
     <g id="line2d_8">
      <path clip-path="url(#pd17c28e351)" d="M 214.582673 294.88 
L 214.582673 24.84 
" style="fill:none;stroke:#b0b0b0;stroke-linecap:square;stroke-width:0.8;"/>
     </g>
     <g id="line2d_9">
      <g>
       <use style="stroke:#000000;stroke-width:0.8;" x="214.582673" xlink:href="#m9aa79cac6e" y="294.88"/>
      </g>
     </g>
     <g id="text_3">
      <!-- 4 -->
      <defs>
       <path d="M 37.796875 64.3125 
L 12.890625 25.390625 
L 37.796875 25.390625 
z
M 35.203125 72.90625 
L 47.609375 72.90625 
L 47.609375 25.390625 
L 58.015625 25.390625 
L 58.015625 17.1875 
L 47.609375 17.1875 
L 47.609375 0 
L 37.796875 0 
L 37.796875 17.1875 
L 4.890625 17.1875 
L 4.890625 26.703125 
z
" id="DejaVuSans-34"/>
      </defs>
      <g transform="translate(208.220173 317.076875)scale(0.2 -0.2)">
       <use xlink:href="#DejaVuSans-34"/>
      </g>
     </g>
    </g>
    <g id="xtick_4">
     <g id="line2d_10">
      <path clip-path="url(#pd17c28e351)" d="M 293.814009 294.88 
L 293.814009 24.84 
" style="fill:none;stroke:#b0b0b0;stroke-linecap:square;stroke-width:0.8;"/>
     </g>
     <g id="line2d_11">
      <g>
       <use style="stroke:#000000;stroke-width:0.8;" x="293.814009" xlink:href="#m9aa79cac6e" y="294.88"/>
      </g>
     </g>
     <g id="text_4">
      <!-- 6 -->
      <defs>
       <path d="M 33.015625 40.375 
Q 26.375 40.375 22.484375 35.828125 
Q 18.609375 31.296875 18.609375 23.390625 
Q 18.609375 15.53125 22.484375 10.953125 
Q 26.375 6.390625 33.015625 6.390625 
Q 39.65625 6.390625 43.53125 10.953125 
Q 47.40625 15.53125 47.40625 23.390625 
Q 47.40625 31.296875 43.53125 35.828125 
Q 39.65625 40.375 33.015625 40.375 
z
M 52.59375 71.296875 
L 52.59375 62.3125 
Q 48.875 64.0625 45.09375 64.984375 
Q 41.3125 65.921875 37.59375 65.921875 
Q 27.828125 65.921875 22.671875 59.328125 
Q 17.53125 52.734375 16.796875 39.40625 
Q 19.671875 43.65625 24.015625 45.921875 
Q 28.375 48.1875 33.59375 48.1875 
Q 44.578125 48.1875 50.953125 41.515625 
Q 57.328125 34.859375 57.328125 23.390625 
Q 57.328125 12.15625 50.6875 5.359375 
Q 44.046875 -1.421875 33.015625 -1.421875 
Q 20.359375 -1.421875 13.671875 8.265625 
Q 6.984375 17.96875 6.984375 36.375 
Q 6.984375 53.65625 15.1875 63.9375 
Q 23.390625 74.21875 37.203125 74.21875 
Q 40.921875 74.21875 44.703125 73.484375 
Q 48.484375 72.75 52.59375 71.296875 
z
" id="DejaVuSans-36"/>
      </defs>
      <g transform="translate(287.451509 317.076875)scale(0.2 -0.2)">
       <use xlink:href="#DejaVuSans-36"/>
      </g>
     </g>
    </g>
    <g id="xtick_5">
     <g id="line2d_12">
      <path clip-path="url(#pd17c28e351)" d="M 373.045346 294.88 
L 373.045346 24.84 
" style="fill:none;stroke:#b0b0b0;stroke-linecap:square;stroke-width:0.8;"/>
     </g>
     <g id="line2d_13">
      <g>
       <use style="stroke:#000000;stroke-width:0.8;" x="373.045346" xlink:href="#m9aa79cac6e" y="294.88"/>
      </g>
     </g>
     <g id="text_5">
      <!-- 8 -->
      <defs>
       <path d="M 31.78125 34.625 
Q 24.75 34.625 20.71875 30.859375 
Q 16.703125 27.09375 16.703125 20.515625 
Q 16.703125 13.921875 20.71875 10.15625 
Q 24.75 6.390625 31.78125 6.390625 
Q 38.8125 6.390625 42.859375 10.171875 
Q 46.921875 13.96875 46.921875 20.515625 
Q 46.921875 27.09375 42.890625 30.859375 
Q 38.875 34.625 31.78125 34.625 
z
M 21.921875 38.8125 
Q 15.578125 40.375 12.03125 44.71875 
Q 8.5 49.078125 8.5 55.328125 
Q 8.5 64.0625 14.71875 69.140625 
Q 20.953125 74.21875 31.78125 74.21875 
Q 42.671875 74.21875 48.875 69.140625 
Q 55.078125 64.0625 55.078125 55.328125 
Q 55.078125 49.078125 51.53125 44.71875 
Q 48 40.375 41.703125 38.8125 
Q 48.828125 37.15625 52.796875 32.3125 
Q 56.78125 27.484375 56.78125 20.515625 
Q 56.78125 9.90625 50.3125 4.234375 
Q 43.84375 -1.421875 31.78125 -1.421875 
Q 19.734375 -1.421875 13.25 4.234375 
Q 6.78125 9.90625 6.78125 20.515625 
Q 6.78125 27.484375 10.78125 32.3125 
Q 14.796875 37.15625 21.921875 38.8125 
z
M 18.3125 54.390625 
Q 18.3125 48.734375 21.84375 45.5625 
Q 25.390625 42.390625 31.78125 42.390625 
Q 38.140625 42.390625 41.71875 45.5625 
Q 45.3125 48.734375 45.3125 54.390625 
Q 45.3125 60.0625 41.71875 63.234375 
Q 38.140625 66.40625 31.78125 66.40625 
Q 25.390625 66.40625 21.84375 63.234375 
Q 18.3125 60.0625 18.3125 54.390625 
z
" id="DejaVuSans-38"/>
      </defs>
      <g transform="translate(366.682846 317.076875)scale(0.2 -0.2)">
       <use xlink:href="#DejaVuSans-38"/>
      </g>
     </g>
    </g>
    <g id="text_6">
     <!-- log10(# f-evals / dimension) -->
     <defs>
      <path d="M 9.421875 75.984375 
L 18.40625 75.984375 
L 18.40625 0 
L 9.421875 0 
z
" id="DejaVuSans-6c"/>
      <path d="M 30.609375 48.390625 
Q 23.390625 48.390625 19.1875 42.75 
Q 14.984375 37.109375 14.984375 27.296875 
Q 14.984375 17.484375 19.15625 11.84375 
Q 23.34375 6.203125 30.609375 6.203125 
Q 37.796875 6.203125 41.984375 11.859375 
Q 46.1875 17.53125 46.1875 27.296875 
Q 46.1875 37.015625 41.984375 42.703125 
Q 37.796875 48.390625 30.609375 48.390625 
z
M 30.609375 56 
Q 42.328125 56 49.015625 48.375 
Q 55.71875 40.765625 55.71875 27.296875 
Q 55.71875 13.875 49.015625 6.21875 
Q 42.328125 -1.421875 30.609375 -1.421875 
Q 18.84375 -1.421875 12.171875 6.21875 
Q 5.515625 13.875 5.515625 27.296875 
Q 5.515625 40.765625 12.171875 48.375 
Q 18.84375 56 30.609375 56 
z
" id="DejaVuSans-6f"/>
      <path d="M 45.40625 27.984375 
Q 45.40625 37.75 41.375 43.109375 
Q 37.359375 48.484375 30.078125 48.484375 
Q 22.859375 48.484375 18.828125 43.109375 
Q 14.796875 37.75 14.796875 27.984375 
Q 14.796875 18.265625 18.828125 12.890625 
Q 22.859375 7.515625 30.078125 7.515625 
Q 37.359375 7.515625 41.375 12.890625 
Q 45.40625 18.265625 45.40625 27.984375 
z
M 54.390625 6.78125 
Q 54.390625 -7.171875 48.1875 -13.984375 
Q 42 -20.796875 29.203125 -20.796875 
Q 24.46875 -20.796875 20.265625 -20.09375 
Q 16.0625 -19.390625 12.109375 -17.921875 
L 12.109375 -9.1875 
Q 16.0625 -11.328125 19.921875 -12.34375 
Q 23.78125 -13.375 27.78125 -13.375 
Q 36.625 -13.375 41.015625 -8.765625 
Q 45.40625 -4.15625 45.40625 5.171875 
L 45.40625 9.625 
Q 42.625 4.78125 38.28125 2.390625 
Q 33.9375 0 27.875 0 
Q 17.828125 0 11.671875 7.65625 
Q 5.515625 15.328125 5.515625 27.984375 
Q 5.515625 40.671875 11.671875 48.328125 
Q 17.828125 56 27.875 56 
Q 33.9375 56 38.28125 53.609375 
Q 42.625 51.21875 45.40625 46.390625 
L 45.40625 54.6875 
L 54.390625 54.6875 
z
" id="DejaVuSans-67"/>
      <path d="M 12.40625 8.296875 
L 28.515625 8.296875 
L 28.515625 63.921875 
L 10.984375 60.40625 
L 10.984375 69.390625 
L 28.421875 72.90625 
L 38.28125 72.90625 
L 38.28125 8.296875 
L 54.390625 8.296875 
L 54.390625 0 
L 12.40625 0 
z
" id="DejaVuSans-31"/>
      <path d="M 31 75.875 
Q 24.46875 64.65625 21.28125 53.65625 
Q 18.109375 42.671875 18.109375 31.390625 
Q 18.109375 20.125 21.3125 9.0625 
Q 24.515625 -2 31 -13.1875 
L 23.1875 -13.1875 
Q 15.875 -1.703125 12.234375 9.375 
Q 8.59375 20.453125 8.59375 31.390625 
Q 8.59375 42.28125 12.203125 53.3125 
Q 15.828125 64.359375 23.1875 75.875 
z
" id="DejaVuSans-28"/>
      <path d="M 51.125 44 
L 36.921875 44 
L 32.8125 27.6875 
L 47.125 27.6875 
z
M 43.796875 71.78125 
L 38.71875 51.515625 
L 52.984375 51.515625 
L 58.109375 71.78125 
L 65.921875 71.78125 
L 60.890625 51.515625 
L 76.125 51.515625 
L 76.125 44 
L 58.984375 44 
L 54.984375 27.6875 
L 70.515625 27.6875 
L 70.515625 20.21875 
L 53.078125 20.21875 
L 48 0 
L 40.1875 0 
L 45.21875 20.21875 
L 30.90625 20.21875 
L 25.875 0 
L 18.015625 0 
L 23.09375 20.21875 
L 7.71875 20.21875 
L 7.71875 27.6875 
L 24.90625 27.6875 
L 29 44 
L 13.28125 44 
L 13.28125 51.515625 
L 30.90625 51.515625 
L 35.890625 71.78125 
z
" id="DejaVuSans-23"/>
      <path id="DejaVuSans-20"/>
      <path d="M 37.109375 75.984375 
L 37.109375 68.5 
L 28.515625 68.5 
Q 23.6875 68.5 21.796875 66.546875 
Q 19.921875 64.59375 19.921875 59.515625 
L 19.921875 54.6875 
L 34.71875 54.6875 
L 34.71875 47.703125 
L 19.921875 47.703125 
L 19.921875 0 
L 10.890625 0 
L 10.890625 47.703125 
L 2.296875 47.703125 
L 2.296875 54.6875 
L 10.890625 54.6875 
L 10.890625 58.5 
Q 10.890625 67.625 15.140625 71.796875 
Q 19.390625 75.984375 28.609375 75.984375 
z
" id="DejaVuSans-66"/>
      <path d="M 4.890625 31.390625 
L 31.203125 31.390625 
L 31.203125 23.390625 
L 4.890625 23.390625 
z
" id="DejaVuSans-2d"/>
      <path d="M 56.203125 29.59375 
L 56.203125 25.203125 
L 14.890625 25.203125 
Q 15.484375 15.921875 20.484375 11.0625 
Q 25.484375 6.203125 34.421875 6.203125 
Q 39.59375 6.203125 44.453125 7.46875 
Q 49.3125 8.734375 54.109375 11.28125 
L 54.109375 2.78125 
Q 49.265625 0.734375 44.1875 -0.34375 
Q 39.109375 -1.421875 33.890625 -1.421875 
Q 20.796875 -1.421875 13.15625 6.1875 
Q 5.515625 13.8125 5.515625 26.8125 
Q 5.515625 40.234375 12.765625 48.109375 
Q 20.015625 56 32.328125 56 
Q 43.359375 56 49.78125 48.890625 
Q 56.203125 41.796875 56.203125 29.59375 
z
M 47.21875 32.234375 
Q 47.125 39.59375 43.09375 43.984375 
Q 39.0625 48.390625 32.421875 48.390625 
Q 24.90625 48.390625 20.390625 44.140625 
Q 15.875 39.890625 15.1875 32.171875 
z
" id="DejaVuSans-65"/>
      <path d="M 2.984375 54.6875 
L 12.5 54.6875 
L 29.59375 8.796875 
L 46.6875 54.6875 
L 56.203125 54.6875 
L 35.6875 0 
L 23.484375 0 
z
" id="DejaVuSans-76"/>
      <path d="M 34.28125 27.484375 
Q 23.390625 27.484375 19.1875 25 
Q 14.984375 22.515625 14.984375 16.5 
Q 14.984375 11.71875 18.140625 8.90625 
Q 21.296875 6.109375 26.703125 6.109375 
Q 34.1875 6.109375 38.703125 11.40625 
Q 43.21875 16.703125 43.21875 25.484375 
L 43.21875 27.484375 
z
M 52.203125 31.203125 
L 52.203125 0 
L 43.21875 0 
L 43.21875 8.296875 
Q 40.140625 3.328125 35.546875 0.953125 
Q 30.953125 -1.421875 24.3125 -1.421875 
Q 15.921875 -1.421875 10.953125 3.296875 
Q 6 8.015625 6 15.921875 
Q 6 25.140625 12.171875 29.828125 
Q 18.359375 34.515625 30.609375 34.515625 
L 43.21875 34.515625 
L 43.21875 35.40625 
Q 43.21875 41.609375 39.140625 45 
Q 35.0625 48.390625 27.6875 48.390625 
Q 23 48.390625 18.546875 47.265625 
Q 14.109375 46.140625 10.015625 43.890625 
L 10.015625 52.203125 
Q 14.9375 54.109375 19.578125 55.046875 
Q 24.21875 56 28.609375 56 
Q 40.484375 56 46.34375 49.84375 
Q 52.203125 43.703125 52.203125 31.203125 
z
" id="DejaVuSans-61"/>
      <path d="M 44.28125 53.078125 
L 44.28125 44.578125 
Q 40.484375 46.53125 36.375 47.5 
Q 32.28125 48.484375 27.875 48.484375 
Q 21.1875 48.484375 17.84375 46.4375 
Q 14.5 44.390625 14.5 40.28125 
Q 14.5 37.15625 16.890625 35.375 
Q 19.28125 33.59375 26.515625 31.984375 
L 29.59375 31.296875 
Q 39.15625 29.25 43.1875 25.515625 
Q 47.21875 21.78125 47.21875 15.09375 
Q 47.21875 7.46875 41.1875 3.015625 
Q 35.15625 -1.421875 24.609375 -1.421875 
Q 20.21875 -1.421875 15.453125 -0.5625 
Q 10.6875 0.296875 5.421875 2 
L 5.421875 11.28125 
Q 10.40625 8.6875 15.234375 7.390625 
Q 20.0625 6.109375 24.8125 6.109375 
Q 31.15625 6.109375 34.5625 8.28125 
Q 37.984375 10.453125 37.984375 14.40625 
Q 37.984375 18.0625 35.515625 20.015625 
Q 33.0625 21.96875 24.703125 23.78125 
L 21.578125 24.515625 
Q 13.234375 26.265625 9.515625 29.90625 
Q 5.8125 33.546875 5.8125 39.890625 
Q 5.8125 47.609375 11.28125 51.796875 
Q 16.75 56 26.8125 56 
Q 31.78125 56 36.171875 55.265625 
Q 40.578125 54.546875 44.28125 53.078125 
z
" id="DejaVuSans-73"/>
      <path d="M 25.390625 72.90625 
L 33.6875 72.90625 
L 8.296875 -9.28125 
L 0 -9.28125 
z
" id="DejaVuSans-2f"/>
      <path d="M 45.40625 46.390625 
L 45.40625 75.984375 
L 54.390625 75.984375 
L 54.390625 0 
L 45.40625 0 
L 45.40625 8.203125 
Q 42.578125 3.328125 38.25 0.953125 
Q 33.9375 -1.421875 27.875 -1.421875 
Q 17.96875 -1.421875 11.734375 6.484375 
Q 5.515625 14.40625 5.515625 27.296875 
Q 5.515625 40.1875 11.734375 48.09375 
Q 17.96875 56 27.875 56 
Q 33.9375 56 38.25 53.625 
Q 42.578125 51.265625 45.40625 46.390625 
z
M 14.796875 27.296875 
Q 14.796875 17.390625 18.875 11.75 
Q 22.953125 6.109375 30.078125 6.109375 
Q 37.203125 6.109375 41.296875 11.75 
Q 45.40625 17.390625 45.40625 27.296875 
Q 45.40625 37.203125 41.296875 42.84375 
Q 37.203125 48.484375 30.078125 48.484375 
Q 22.953125 48.484375 18.875 42.84375 
Q 14.796875 37.203125 14.796875 27.296875 
z
" id="DejaVuSans-64"/>
      <path d="M 9.421875 54.6875 
L 18.40625 54.6875 
L 18.40625 0 
L 9.421875 0 
z
M 9.421875 75.984375 
L 18.40625 75.984375 
L 18.40625 64.59375 
L 9.421875 64.59375 
z
" id="DejaVuSans-69"/>
      <path d="M 52 44.1875 
Q 55.375 50.25 60.0625 53.125 
Q 64.75 56 71.09375 56 
Q 79.640625 56 84.28125 50.015625 
Q 88.921875 44.046875 88.921875 33.015625 
L 88.921875 0 
L 79.890625 0 
L 79.890625 32.71875 
Q 79.890625 40.578125 77.09375 44.375 
Q 74.3125 48.1875 68.609375 48.1875 
Q 61.625 48.1875 57.5625 43.546875 
Q 53.515625 38.921875 53.515625 30.90625 
L 53.515625 0 
L 44.484375 0 
L 44.484375 32.71875 
Q 44.484375 40.625 41.703125 44.40625 
Q 38.921875 48.1875 33.109375 48.1875 
Q 26.21875 48.1875 22.15625 43.53125 
Q 18.109375 38.875 18.109375 30.90625 
L 18.109375 0 
L 9.078125 0 
L 9.078125 54.6875 
L 18.109375 54.6875 
L 18.109375 46.1875 
Q 21.1875 51.21875 25.484375 53.609375 
Q 29.78125 56 35.6875 56 
Q 41.65625 56 45.828125 52.96875 
Q 50 49.953125 52 44.1875 
z
" id="DejaVuSans-6d"/>
      <path d="M 54.890625 33.015625 
L 54.890625 0 
L 45.90625 0 
L 45.90625 32.71875 
Q 45.90625 40.484375 42.875 44.328125 
Q 39.84375 48.1875 33.796875 48.1875 
Q 26.515625 48.1875 22.3125 43.546875 
Q 18.109375 38.921875 18.109375 30.90625 
L 18.109375 0 
L 9.078125 0 
L 9.078125 54.6875 
L 18.109375 54.6875 
L 18.109375 46.1875 
Q 21.34375 51.125 25.703125 53.5625 
Q 30.078125 56 35.796875 56 
Q 45.21875 56 50.046875 50.171875 
Q 54.890625 44.34375 54.890625 33.015625 
z
" id="DejaVuSans-6e"/>
      <path d="M 8.015625 75.875 
L 15.828125 75.875 
Q 23.140625 64.359375 26.78125 53.3125 
Q 30.421875 42.28125 30.421875 31.390625 
Q 30.421875 20.453125 26.78125 9.375 
Q 23.140625 -1.703125 15.828125 -13.1875 
L 8.015625 -13.1875 
Q 14.5 -2 17.703125 9.0625 
Q 20.90625 20.125 20.90625 31.390625 
Q 20.90625 42.671875 17.703125 53.65625 
Q 14.5 64.65625 8.015625 75.875 
z
" id="DejaVuSans-29"/>
     </defs>
     <g transform="translate(107.211219 338.153594)scale(0.17 -0.17)">
      <use xlink:href="#DejaVuSans-6c"/>
      <use x="27.783203" xlink:href="#DejaVuSans-6f"/>
      <use x="88.964844" xlink:href="#DejaVuSans-67"/>
      <use x="152.441406" xlink:href="#DejaVuSans-31"/>
      <use x="216.064453" xlink:href="#DejaVuSans-30"/>
      <use x="279.6875" xlink:href="#DejaVuSans-28"/>
      <use x="318.701172" xlink:href="#DejaVuSans-23"/>
      <use x="402.490234" xlink:href="#DejaVuSans-20"/>
      <use x="434.277344" xlink:href="#DejaVuSans-66"/>
      <use x="469.404297" xlink:href="#DejaVuSans-2d"/>
      <use x="505.488281" xlink:href="#DejaVuSans-65"/>
      <use x="567.011719" xlink:href="#DejaVuSans-76"/>
      <use x="626.191406" xlink:href="#DejaVuSans-61"/>
      <use x="687.470703" xlink:href="#DejaVuSans-6c"/>
      <use x="715.253906" xlink:href="#DejaVuSans-73"/>
      <use x="767.353516" xlink:href="#DejaVuSans-20"/>
      <use x="799.140625" xlink:href="#DejaVuSans-2f"/>
      <use x="832.832031" xlink:href="#DejaVuSans-20"/>
      <use x="864.619141" xlink:href="#DejaVuSans-64"/>
      <use x="928.095703" xlink:href="#DejaVuSans-69"/>
      <use x="955.878906" xlink:href="#DejaVuSans-6d"/>
      <use x="1053.291016" xlink:href="#DejaVuSans-65"/>
      <use x="1114.814453" xlink:href="#DejaVuSans-6e"/>
      <use x="1178.193359" xlink:href="#DejaVuSans-73"/>
      <use x="1230.292969" xlink:href="#DejaVuSans-69"/>
      <use x="1258.076172" xlink:href="#DejaVuSans-6f"/>
      <use x="1319.257812" xlink:href="#DejaVuSans-6e"/>
      <use x="1382.636719" xlink:href="#DejaVuSans-29"/>
     </g>
    </g>
   </g>
   <g id="matplotlib.axis_2">
    <g id="ytick_1">
     <g id="line2d_14">
      <path clip-path="url(#pd17c28e351)" d="M 56.12 294.88 
L 399.984 294.88 
" style="fill:none;stroke:#b0b0b0;stroke-linecap:square;stroke-width:0.8;"/>
     </g>
     <g id="line2d_15">
      <defs>
       <path d="M 0 0 
L -3.5 0 
" id="ma7da3c286b" style="stroke:#000000;stroke-width:0.8;"/>
      </defs>
      <g>
       <use style="stroke:#000000;stroke-width:0.8;" x="56.12" xlink:href="#ma7da3c286b" y="294.88"/>
      </g>
     </g>
     <g id="text_7">
      <!-- 0.0 -->
      <defs>
       <path d="M 10.6875 12.40625 
L 21 12.40625 
L 21 0 
L 10.6875 0 
z
" id="DejaVuSans-2e"/>
      </defs>
      <g transform="translate(23.675 300.95875)scale(0.16 -0.16)">
       <use xlink:href="#DejaVuSans-30"/>
       <use x="63.623047" xlink:href="#DejaVuSans-2e"/>
       <use x="95.410156" xlink:href="#DejaVuSans-30"/>
      </g>
     </g>
    </g>
    <g id="ytick_2">
     <g id="line2d_16">
      <path clip-path="url(#pd17c28e351)" d="M 56.12 241.406733 
L 399.984 241.406733 
" style="fill:none;stroke:#b0b0b0;stroke-linecap:square;stroke-width:0.8;"/>
     </g>
     <g id="line2d_17">
      <g>
       <use style="stroke:#000000;stroke-width:0.8;" x="56.12" xlink:href="#ma7da3c286b" y="241.406733"/>
      </g>
     </g>
     <g id="text_8">
      <!-- 0.2 -->
      <g transform="translate(23.675 247.485483)scale(0.16 -0.16)">
       <use xlink:href="#DejaVuSans-30"/>
       <use x="63.623047" xlink:href="#DejaVuSans-2e"/>
       <use x="95.410156" xlink:href="#DejaVuSans-32"/>
      </g>
     </g>
    </g>
    <g id="ytick_3">
     <g id="line2d_18">
      <path clip-path="url(#pd17c28e351)" d="M 56.12 187.933465 
L 399.984 187.933465 
" style="fill:none;stroke:#b0b0b0;stroke-linecap:square;stroke-width:0.8;"/>
     </g>
     <g id="line2d_19">
      <g>
       <use style="stroke:#000000;stroke-width:0.8;" x="56.12" xlink:href="#ma7da3c286b" y="187.933465"/>
      </g>
     </g>
     <g id="text_9">
      <!-- 0.4 -->
      <g transform="translate(23.675 194.012215)scale(0.16 -0.16)">
       <use xlink:href="#DejaVuSans-30"/>
       <use x="63.623047" xlink:href="#DejaVuSans-2e"/>
       <use x="95.410156" xlink:href="#DejaVuSans-34"/>
      </g>
     </g>
    </g>
    <g id="ytick_4">
     <g id="line2d_20">
      <path clip-path="url(#pd17c28e351)" d="M 56.12 134.460198 
L 399.984 134.460198 
" style="fill:none;stroke:#b0b0b0;stroke-linecap:square;stroke-width:0.8;"/>
     </g>
     <g id="line2d_21">
      <g>
       <use style="stroke:#000000;stroke-width:0.8;" x="56.12" xlink:href="#ma7da3c286b" y="134.460198"/>
      </g>
     </g>
     <g id="text_10">
      <!-- 0.6 -->
      <g transform="translate(23.675 140.538948)scale(0.16 -0.16)">
       <use xlink:href="#DejaVuSans-30"/>
       <use x="63.623047" xlink:href="#DejaVuSans-2e"/>
       <use x="95.410156" xlink:href="#DejaVuSans-36"/>
      </g>
     </g>
    </g>
    <g id="ytick_5">
     <g id="line2d_22">
      <path clip-path="url(#pd17c28e351)" d="M 56.12 80.986931 
L 399.984 80.986931 
" style="fill:none;stroke:#b0b0b0;stroke-linecap:square;stroke-width:0.8;"/>
     </g>
     <g id="line2d_23">
      <g>
       <use style="stroke:#000000;stroke-width:0.8;" x="56.12" xlink:href="#ma7da3c286b" y="80.986931"/>
      </g>
     </g>
     <g id="text_11">
      <!-- 0.8 -->
      <g transform="translate(23.675 87.065681)scale(0.16 -0.16)">
       <use xlink:href="#DejaVuSans-30"/>
       <use x="63.623047" xlink:href="#DejaVuSans-2e"/>
       <use x="95.410156" xlink:href="#DejaVuSans-38"/>
      </g>
     </g>
    </g>
    <g id="ytick_6">
     <g id="line2d_24">
      <path clip-path="url(#pd17c28e351)" d="M 56.12 27.513663 
L 399.984 27.513663 
" style="fill:none;stroke:#b0b0b0;stroke-linecap:square;stroke-width:0.8;"/>
     </g>
     <g id="line2d_25">
      <g>
       <use style="stroke:#000000;stroke-width:0.8;" x="56.12" xlink:href="#ma7da3c286b" y="27.513663"/>
      </g>
     </g>
     <g id="text_12">
      <!-- 1.0 -->
      <g transform="translate(23.675 33.592413)scale(0.16 -0.16)">
       <use xlink:href="#DejaVuSans-31"/>
       <use x="63.623047" xlink:href="#DejaVuSans-2e"/>
       <use x="95.410156" xlink:href="#DejaVuSans-30"/>
      </g>
     </g>
    </g>
    <g id="text_13">
     <!-- Fraction of function,target pairs -->
     <defs>
      <path d="M 9.8125 72.90625 
L 51.703125 72.90625 
L 51.703125 64.59375 
L 19.671875 64.59375 
L 19.671875 43.109375 
L 48.578125 43.109375 
L 48.578125 34.8125 
L 19.671875 34.8125 
L 19.671875 0 
L 9.8125 0 
z
" id="DejaVuSans-46"/>
      <path d="M 41.109375 46.296875 
Q 39.59375 47.171875 37.8125 47.578125 
Q 36.03125 48 33.890625 48 
Q 26.265625 48 22.1875 43.046875 
Q 18.109375 38.09375 18.109375 28.8125 
L 18.109375 0 
L 9.078125 0 
L 9.078125 54.6875 
L 18.109375 54.6875 
L 18.109375 46.1875 
Q 20.953125 51.171875 25.484375 53.578125 
Q 30.03125 56 36.53125 56 
Q 37.453125 56 38.578125 55.875 
Q 39.703125 55.765625 41.0625 55.515625 
z
" id="DejaVuSans-72"/>
      <path d="M 48.78125 52.59375 
L 48.78125 44.1875 
Q 44.96875 46.296875 41.140625 47.34375 
Q 37.3125 48.390625 33.40625 48.390625 
Q 24.65625 48.390625 19.8125 42.84375 
Q 14.984375 37.3125 14.984375 27.296875 
Q 14.984375 17.28125 19.8125 11.734375 
Q 24.65625 6.203125 33.40625 6.203125 
Q 37.3125 6.203125 41.140625 7.25 
Q 44.96875 8.296875 48.78125 10.40625 
L 48.78125 2.09375 
Q 45.015625 0.34375 40.984375 -0.53125 
Q 36.96875 -1.421875 32.421875 -1.421875 
Q 20.0625 -1.421875 12.78125 6.34375 
Q 5.515625 14.109375 5.515625 27.296875 
Q 5.515625 40.671875 12.859375 48.328125 
Q 20.21875 56 33.015625 56 
Q 37.15625 56 41.109375 55.140625 
Q 45.0625 54.296875 48.78125 52.59375 
z
" id="DejaVuSans-63"/>
      <path d="M 18.3125 70.21875 
L 18.3125 54.6875 
L 36.8125 54.6875 
L 36.8125 47.703125 
L 18.3125 47.703125 
L 18.3125 18.015625 
Q 18.3125 11.328125 20.140625 9.421875 
Q 21.96875 7.515625 27.59375 7.515625 
L 36.8125 7.515625 
L 36.8125 0 
L 27.59375 0 
Q 17.1875 0 13.234375 3.875 
Q 9.28125 7.765625 9.28125 18.015625 
L 9.28125 47.703125 
L 2.6875 47.703125 
L 2.6875 54.6875 
L 9.28125 54.6875 
L 9.28125 70.21875 
z
" id="DejaVuSans-74"/>
      <path d="M 8.5 21.578125 
L 8.5 54.6875 
L 17.484375 54.6875 
L 17.484375 21.921875 
Q 17.484375 14.15625 20.5 10.265625 
Q 23.53125 6.390625 29.59375 6.390625 
Q 36.859375 6.390625 41.078125 11.03125 
Q 45.3125 15.671875 45.3125 23.6875 
L 45.3125 54.6875 
L 54.296875 54.6875 
L 54.296875 0 
L 45.3125 0 
L 45.3125 8.40625 
Q 42.046875 3.421875 37.71875 1 
Q 33.40625 -1.421875 27.6875 -1.421875 
Q 18.265625 -1.421875 13.375 4.4375 
Q 8.5 10.296875 8.5 21.578125 
z
M 31.109375 56 
z
" id="DejaVuSans-75"/>
      <path d="M 11.71875 12.40625 
L 22.015625 12.40625 
L 22.015625 4 
L 14.015625 -11.625 
L 7.71875 -11.625 
L 11.71875 4 
z
" id="DejaVuSans-2c"/>
      <path d="M 18.109375 8.203125 
L 18.109375 -20.796875 
L 9.078125 -20.796875 
L 9.078125 54.6875 
L 18.109375 54.6875 
L 18.109375 46.390625 
Q 20.953125 51.265625 25.265625 53.625 
Q 29.59375 56 35.59375 56 
Q 45.5625 56 51.78125 48.09375 
Q 58.015625 40.1875 58.015625 27.296875 
Q 58.015625 14.40625 51.78125 6.484375 
Q 45.5625 -1.421875 35.59375 -1.421875 
Q 29.59375 -1.421875 25.265625 0.953125 
Q 20.953125 3.328125 18.109375 8.203125 
z
M 48.6875 27.296875 
Q 48.6875 37.203125 44.609375 42.84375 
Q 40.53125 48.484375 33.40625 48.484375 
Q 26.265625 48.484375 22.1875 42.84375 
Q 18.109375 37.203125 18.109375 27.296875 
Q 18.109375 17.390625 22.1875 11.75 
Q 26.265625 6.109375 33.40625 6.109375 
Q 40.53125 6.109375 44.609375 11.75 
Q 48.6875 17.390625 48.6875 27.296875 
z
" id="DejaVuSans-70"/>
     </defs>
     <g transform="translate(16.139531 294.999375)rotate(-90)scale(0.17 -0.17)">
      <use xlink:href="#DejaVuSans-46"/>
      <use x="57.410156" xlink:href="#DejaVuSans-72"/>
      <use x="98.523438" xlink:href="#DejaVuSans-61"/>
      <use x="159.802734" xlink:href="#DejaVuSans-63"/>
      <use x="214.783203" xlink:href="#DejaVuSans-74"/>
      <use x="253.992188" xlink:href="#DejaVuSans-69"/>
      <use x="281.775391" xlink:href="#DejaVuSans-6f"/>
      <use x="342.957031" xlink:href="#DejaVuSans-6e"/>
      <use x="406.335938" xlink:href="#DejaVuSans-20"/>
      <use x="438.123047" xlink:href="#DejaVuSans-6f"/>
      <use x="499.304688" xlink:href="#DejaVuSans-66"/>
      <use x="534.509766" xlink:href="#DejaVuSans-20"/>
      <use x="566.296875" xlink:href="#DejaVuSans-66"/>
      <use x="601.501953" xlink:href="#DejaVuSans-75"/>
      <use x="664.880859" xlink:href="#DejaVuSans-6e"/>
      <use x="728.259766" xlink:href="#DejaVuSans-63"/>
      <use x="783.240234" xlink:href="#DejaVuSans-74"/>
      <use x="822.449219" xlink:href="#DejaVuSans-69"/>
      <use x="850.232422" xlink:href="#DejaVuSans-6f"/>
      <use x="911.414062" xlink:href="#DejaVuSans-6e"/>
      <use x="974.792969" xlink:href="#DejaVuSans-2c"/>
      <use x="1006.580078" xlink:href="#DejaVuSans-74"/>
      <use x="1045.789062" xlink:href="#DejaVuSans-61"/>
      <use x="1107.068359" xlink:href="#DejaVuSans-72"/>
      <use x="1148.166016" xlink:href="#DejaVuSans-67"/>
      <use x="1211.642578" xlink:href="#DejaVuSans-65"/>
      <use x="1273.166016" xlink:href="#DejaVuSans-74"/>
      <use x="1312.375" xlink:href="#DejaVuSans-20"/>
      <use x="1344.162109" xlink:href="#DejaVuSans-70"/>
      <use x="1407.638672" xlink:href="#DejaVuSans-61"/>
      <use x="1468.917969" xlink:href="#DejaVuSans-69"/>
      <use x="1496.701172" xlink:href="#DejaVuSans-72"/>
      <use x="1537.814453" xlink:href="#DejaVuSans-73"/>
     </g>
    </g>
   </g>
   <g id="line2d_26">
    <defs>
     <path d="M 0 1.5 
C 0.397805 1.5 0.77937 1.341951 1.06066 1.06066 
C 1.341951 0.77937 1.5 0.397805 1.5 0 
C 1.5 -0.397805 1.341951 -0.77937 1.06066 -1.06066 
C 0.77937 -1.341951 0.397805 -1.5 0 -1.5 
C -0.397805 -1.5 -0.77937 -1.341951 -1.06066 -1.06066 
C -1.341951 -0.77937 -1.5 -0.397805 -1.5 0 
C -1.5 0.397805 -1.341951 0.77937 -1.06066 1.06066 
C -0.77937 1.341951 -0.397805 1.5 0 1.5 
z
" id="m83c30fc6bf" style="stroke:#f5deb3;"/>
    </defs>
    <g>
     <use style="fill:#f5deb3;stroke:#f5deb3;" x="215.562362" xlink:href="#m83c30fc6bf" y="27.513663"/>
     <use style="fill:#f5deb3;stroke:#f5deb3;" x="215.562362" xlink:href="#m83c30fc6bf" y="27.513663"/>
    </g>
   </g>
   <g id="line2d_27">
    <g>
     <use style="fill:#f5deb3;stroke:#f5deb3;stroke-linejoin:miter;stroke-width:1.5;" x="194.24541" xlink:href="#mfffa8c3e91" y="252.940182"/>
     <use style="fill:#f5deb3;stroke:#f5deb3;stroke-linejoin:miter;stroke-width:1.5;" x="215.275978" xlink:href="#mfffa8c3e91" y="190.030456"/>
     <use style="fill:#f5deb3;stroke:#f5deb3;stroke-linejoin:miter;stroke-width:1.5;" x="215.562362" xlink:href="#mfffa8c3e91" y="32.756141"/>
     <use style="fill:#f5deb3;stroke:#f5deb3;stroke-linejoin:miter;stroke-width:1.5;" x="215.562362" xlink:href="#mfffa8c3e91" y="27.513663"/>
     <use style="fill:#f5deb3;stroke:#f5deb3;stroke-linejoin:miter;stroke-width:1.5;" x="333.429677" xlink:href="#mfffa8c3e91" y="27.513663"/>
    </g>
   </g>
   <g id="line2d_28">
    <defs>
     <path d="M 0 1.5 
C 0.397805 1.5 0.77937 1.341951 1.06066 1.06066 
C 1.341951 0.77937 1.5 0.397805 1.5 0 
C 1.5 -0.397805 1.341951 -0.77937 1.06066 -1.06066 
C 0.77937 -1.341951 0.397805 -1.5 0 -1.5 
C -0.397805 -1.5 -0.77937 -1.341951 -1.06066 -1.06066 
C -1.341951 -0.77937 -1.5 -0.397805 -1.5 0 
C -1.5 0.397805 -1.341951 0.77937 -1.06066 1.06066 
C -0.77937 1.341951 -0.397805 1.5 0 1.5 
z
" id="ma69c954a0f" style="stroke:#999999;"/>
    </defs>
    <g>
     <use style="fill:#999999;stroke:#999999;" x="287.609721" xlink:href="#ma69c954a0f" y="279.152568"/>
     <use style="fill:#999999;stroke:#999999;" x="287.609721" xlink:href="#ma69c954a0f" y="279.152568"/>
    </g>
   </g>
   <g id="line2d_29">
    <path d="M 155.10862 294.88 
L 155.10862 294.355752 
L 157.310595 294.355752 
L 157.310595 293.831505 
L 158.012644 293.831505 
L 158.012644 292.783009 
L 159.741149 292.783009 
L 159.741149 292.258761 
L 160.073491 292.258761 
L 160.073491 291.734514 
L 160.300957 291.734514 
L 160.300957 290.686018 
L 161.682503 290.686018 
L 161.682503 290.161771 
L 161.980602 290.161771 
L 161.980602 289.637523 
L 163.00447 289.637523 
L 163.00447 289.113275 
L 164.136278 289.113275 
L 164.136278 288.06478 
L 175.871034 288.06478 
L 175.871034 287.016284 
L 180.489073 287.016284 
L 180.489073 286.492036 
L 185.913533 286.492036 
L 185.913533 285.443541 
L 202.978799 285.443541 
L 202.978799 284.919293 
L 218.193142 284.919293 
L 218.193142 284.395046 
L 234.714822 284.395046 
L 234.714822 283.870798 
L 237.337522 283.870798 
L 237.337522 283.34655 
L 247.576638 283.34655 
L 247.576638 282.822302 
L 251.690458 282.822302 
L 251.690458 280.725312 
L 257.098873 280.725312 
L 257.098873 280.201064 
L 265.885567 280.201064 
L 265.885567 279.676816 
L 287.609721 279.676816 
L 287.609721 279.152568 
L 333.429677 279.152568 
" style="fill:none;stroke:#999999;stroke-linecap:square;stroke-width:1.5;"/>
   </g>
   <g id="line2d_30"/>
   <g id="line2d_31">
    <path d="M 0 0 
" style="fill:none;stroke:#999999;stroke-linecap:square;stroke-width:1.5;"/>
   </g>
   <g id="line2d_32">
    <path clip-path="url(#pd17c28e351)" d="M 258.037496 280.201064 
" style="fill:none;stroke:#999999;stroke-linecap:square;stroke-width:1.5;"/>
    <defs>
     <path d="M -12 12 
L 12 -12 
M -12 -12 
L 12 12 
" id="med132d09df" style="stroke:#999999;stroke-width:3;"/>
    </defs>
    <g clip-path="url(#pd17c28e351)">
     <use style="fill:#999999;stroke:#999999;stroke-width:3;" x="258.037496" xlink:href="#med132d09df" y="280.201064"/>
    </g>
   </g>
   <g id="line2d_33">
    <g>
     <use style="fill:#999999;stroke:#999999;" x="216.894439" xlink:href="#ma69c954a0f" y="27.513663"/>
     <use style="fill:#999999;stroke:#999999;" x="216.894439" xlink:href="#ma69c954a0f" y="27.513663"/>
    </g>
   </g>
   <g id="line2d_34">
    <path d="M 148.579027 294.88 
L 148.579027 294.355752 
L 149.867427 294.355752 
L 149.867427 293.831505 
L 150.062416 293.831505 
L 150.062416 292.783009 
L 152.557583 292.783009 
L 152.557583 292.258761 
L 153.058118 292.258761 
L 153.058118 291.734514 
L 154.030589 291.734514 
L 154.030589 291.210266 
L 154.828055 291.210266 
L 154.828055 290.686018 
L 154.975784 290.686018 
L 154.975784 290.161771 
L 155.890006 290.161771 
L 155.890006 289.637523 
L 156.853263 289.637523 
L 156.938104 288.06478 
L 157.77946 288.06478 
L 157.838926 287.016284 
L 157.994197 287.016284 
L 157.994197 286.492036 
L 158.923749 286.492036 
L 159.010956 284.919293 
L 159.217393 284.919293 
L 159.287085 283.870798 
L 159.715076 283.870798 
L 159.715076 283.34655 
L 159.97919 283.34655 
L 160.065312 280.725312 
L 160.340255 280.725312 
L 160.340255 279.676816 
L 160.941566 279.676816 
L 160.941566 279.152568 
L 161.175177 279.152568 
L 161.175177 278.628321 
L 161.649889 278.628321 
L 161.649889 278.104073 
L 161.773495 278.104073 
L 161.773495 277.579825 
L 161.892541 277.579825 
L 161.892541 277.055578 
L 162.55997 277.055578 
L 162.570582 276.007082 
L 162.712339 276.007082 
L 162.712339 275.482834 
L 162.936229 275.482834 
L 162.936229 274.958587 
L 163.255228 274.958587 
L 163.272212 273.385844 
L 163.80868 273.385844 
L 163.824305 270.764605 
L 163.949611 270.764605 
L 163.949611 270.240357 
L 164.210381 270.240357 
L 164.236082 269.191862 
L 164.520229 269.191862 
L 164.617837 268.143366 
L 165.061058 268.143366 
L 165.064883 267.094871 
L 165.622463 267.094871 
L 165.694871 264.99788 
L 165.873108 264.99788 
L 165.873108 264.473632 
L 166.195514 264.473632 
L 166.249856 263.425137 
L 166.699397 263.425137 
L 166.699397 262.900889 
L 167.149689 262.900889 
L 167.149689 262.376641 
L 167.471197 262.376641 
L 167.471197 261.852394 
L 167.665597 261.852394 
L 167.748898 260.803898 
L 168.048572 260.803898 
L 168.048572 260.279651 
L 168.319711 260.279651 
L 168.319711 259.755403 
L 168.541087 259.755403 
L 168.541087 259.231155 
L 168.78801 259.231155 
L 168.789858 257.658412 
L 168.927272 257.658412 
L 168.927272 257.134164 
L 169.370009 257.134164 
L 169.370009 256.609917 
L 169.488696 256.609917 
L 169.488696 256.085669 
L 169.709052 256.085669 
L 169.762102 254.512926 
L 170.701632 254.512926 
L 170.706041 253.46443 
L 170.921775 253.46443 
L 171.022687 251.367439 
L 171.472768 251.367439 
L 171.473295 249.794696 
L 171.602965 249.794696 
L 171.602965 248.746201 
L 171.90418 248.746201 
L 171.976492 246.64921 
L 172.015854 246.64921 
L 172.015854 246.124962 
L 172.292913 246.124962 
L 172.292913 245.600714 
L 172.596709 245.600714 
L 172.596709 245.076467 
L 172.788165 245.076467 
L 172.799877 244.027971 
L 172.986686 244.027971 
L 173.023324 242.979476 
L 174.418552 242.979476 
L 174.418552 242.455228 
L 175.731305 242.455228 
L 175.731305 241.93098 
L 176.578627 241.93098 
L 176.578627 240.882485 
L 176.700782 240.882485 
L 176.700782 240.358237 
L 176.944821 240.358237 
L 176.944821 239.83399 
L 177.565359 239.83399 
L 177.565359 239.309742 
L 178.16322 239.309742 
L 178.16322 238.785494 
L 178.787224 238.785494 
L 178.787224 238.261246 
L 178.939837 238.261246 
L 178.939837 237.736999 
L 179.440866 237.736999 
L 179.440866 237.212751 
L 183.308451 237.212751 
L 183.308451 236.688503 
L 185.096276 236.688503 
L 185.096276 235.640008 
L 211.704689 235.640008 
L 211.704689 234.591512 
L 211.879615 234.591512 
L 211.945822 233.543017 
L 212.190445 233.543017 
L 212.190445 232.494521 
L 212.54696 232.494521 
L 212.54696 231.446026 
L 213.082807 231.446026 
L 213.083699 228.824787 
L 213.226189 228.824787 
L 213.312955 226.727797 
L 213.38933 226.727797 
L 213.497374 221.485319 
L 213.543263 221.485319 
L 213.623219 220.436824 
L 213.7795 220.436824 
L 213.829048 219.388328 
L 213.911805 219.388328 
L 213.977689 216.242842 
L 214.033821 216.242842 
L 214.054679 215.194347 
L 214.155066 215.194347 
L 214.223541 203.660897 
L 214.279754 203.660897 
L 214.33766 202.612401 
L 214.413147 202.612401 
L 214.518595 191.603199 
L 214.567483 191.603199 
L 214.67627 188.981961 
L 214.69645 188.981961 
L 214.782121 173.778777 
L 214.839762 173.778777 
L 214.928223 170.633291 
L 214.962168 170.633291 
L 215.045943 150.711877 
L 215.081746 150.711877 
L 215.183477 127.12073 
L 215.208754 127.12073 
L 215.313161 95.141619 
L 215.338948 95.141619 
L 215.442407 92.520381 
L 215.471106 92.520381 
L 215.54907 58.968526 
L 215.600716 58.968526 
L 215.600716 57.920031 
L 215.949696 57.920031 
L 215.984779 56.871536 
L 216.093619 56.871536 
L 216.199738 47.435077 
L 216.372631 47.435077 
L 216.449557 42.192599 
L 216.502266 42.192599 
L 216.515918 40.095609 
L 216.68503 40.095609 
L 216.794006 30.65915 
L 216.803573 30.65915 
L 216.894439 27.513663 
L 333.429677 27.513663 
L 333.429677 27.513663 
" style="fill:none;stroke:#999999;stroke-linecap:square;stroke-width:1.5;"/>
   </g>
   <g id="line2d_35"/>
   <g id="line2d_36">
    <path d="M 0 0 
" style="fill:none;stroke:#999999;stroke-linecap:square;stroke-width:1.5;"/>
   </g>
   <g id="line2d_37">
    <g>
     <use style="fill:#999999;stroke:#999999;" x="209.617994" xlink:href="#ma69c954a0f" y="273.910091"/>
     <use style="fill:#999999;stroke:#999999;" x="209.617994" xlink:href="#ma69c954a0f" y="273.910091"/>
    </g>
   </g>
   <g id="line2d_38">
    <path d="M 162.792822 294.88 
L 162.792822 294.355752 
L 166.16541 294.355752 
L 166.16541 293.831505 
L 166.528856 293.831505 
L 166.528856 293.307257 
L 166.911596 293.307257 
L 166.911596 292.783009 
L 168.184356 292.783009 
L 168.184356 292.258761 
L 168.564817 292.258761 
L 168.564817 291.734514 
L 169.163931 291.734514 
L 169.163931 291.210266 
L 169.702628 291.210266 
L 169.702628 290.161771 
L 171.145046 290.161771 
L 171.145046 289.637523 
L 171.182067 289.637523 
L 171.182067 288.589027 
L 172.228983 288.589027 
L 172.228983 287.540532 
L 172.389613 287.540532 
L 172.389613 287.016284 
L 172.509109 287.016284 
L 172.509109 285.967789 
L 172.672073 285.967789 
L 172.672073 285.443541 
L 173.439616 285.443541 
L 173.439616 284.919293 
L 174.110298 284.919293 
L 174.110298 284.395046 
L 176.108134 284.395046 
L 176.108134 283.870798 
L 177.021333 283.870798 
L 177.021333 282.822302 
L 177.4235 282.822302 
L 177.4235 281.773807 
L 179.738407 281.773807 
L 179.738407 281.249559 
L 180.337697 281.249559 
L 180.337697 280.725312 
L 180.457216 280.725312 
L 180.457216 280.201064 
L 181.867109 280.201064 
L 181.867109 279.676816 
L 182.173406 279.676816 
L 182.173406 279.152568 
L 184.374222 279.152568 
L 184.374222 278.104073 
L 184.864347 278.104073 
L 184.864347 277.579825 
L 195.899511 277.579825 
L 195.899511 276.53133 
L 198.264232 276.53133 
L 198.264232 276.007082 
L 203.960152 276.007082 
L 203.960152 275.482834 
L 204.486657 275.482834 
L 204.486657 274.958587 
L 205.426786 274.958587 
L 205.426786 274.434339 
L 209.617994 274.434339 
L 209.617994 273.910091 
L 333.429677 273.910091 
" style="fill:none;stroke:#999999;stroke-linecap:square;stroke-width:1.5;"/>
   </g>
   <g id="line2d_39"/>
   <g id="line2d_40">
    <path d="M 0 0 
" style="fill:none;stroke:#999999;stroke-linecap:square;stroke-width:1.5;"/>
   </g>
   <g id="line2d_41">
    <path clip-path="url(#pd17c28e351)" d="M 186.892509 277.579825 
" style="fill:none;stroke:#999999;stroke-linecap:square;stroke-width:1.5;"/>
    <g clip-path="url(#pd17c28e351)">
     <use style="fill:#999999;stroke:#999999;stroke-width:3;" x="186.892509" xlink:href="#med132d09df" y="277.579825"/>
    </g>
   </g>
   <g id="line2d_42">
    <path clip-path="url(#pd17c28e351)" d="M 56.12 294.88 
L 56.12 294.88 
L 56.12 294.88 
L 56.12 294.88 
L 399.984 294.88 
" style="fill:none;stroke:#999999;stroke-linecap:square;stroke-width:1.5;"/>
   </g>
   <g id="line2d_43"/>
   <g id="line2d_44">
    <path clip-path="url(#pd17c28e351)" d="M 0 0 
" style="fill:none;stroke:#999999;stroke-linecap:square;stroke-width:1.5;"/>
   </g>
   <g id="line2d_45">
    <g>
     <use style="fill:#999999;stroke:#999999;" x="246.207208" xlink:href="#ma69c954a0f" y="27.513663"/>
     <use style="fill:#999999;stroke:#999999;" x="246.207208" xlink:href="#ma69c954a0f" y="27.513663"/>
    </g>
   </g>
   <g id="line2d_46">
    <path d="M 106.132843 294.88 
L 106.132843 293.831505 
L 110.94077 293.831505 
L 110.94077 292.783009 
L 113.66386 292.783009 
L 113.66386 292.258761 
L 114.493171 292.258761 
L 114.493171 291.734514 
L 115.734076 291.734514 
L 115.734076 291.210266 
L 116.509971 291.210266 
L 116.509971 290.686018 
L 117.215394 290.686018 
L 117.215394 288.589027 
L 117.666096 288.589027 
L 117.666096 288.06478 
L 117.845502 288.06478 
L 117.845502 287.540532 
L 118.817002 287.540532 
L 118.817002 286.492036 
L 120.168156 286.492036 
L 120.168156 285.967789 
L 120.518028 285.967789 
L 120.518028 285.443541 
L 120.66005 285.443541 
L 120.750735 282.822302 
L 121.603557 282.822302 
L 121.603557 282.298055 
L 123.562923 282.298055 
L 123.656544 281.249559 
L 123.959425 281.249559 
L 124.034319 280.201064 
L 124.306175 280.201064 
L 124.306175 279.676816 
L 124.718046 279.676816 
L 124.805603 278.628321 
L 125.498092 278.628321 
L 125.498092 278.104073 
L 125.830417 278.104073 
L 125.830417 277.055578 
L 126.490813 277.055578 
L 126.490813 276.53133 
L 127.497396 276.53133 
L 127.497396 276.007082 
L 127.953003 276.007082 
L 127.953003 275.482834 
L 128.09786 275.482834 
L 128.09786 274.958587 
L 128.917294 274.958587 
L 128.917294 274.434339 
L 129.71738 274.434339 
L 129.776954 273.385844 
L 130.776208 273.385844 
L 130.776208 272.861596 
L 134.915747 272.861596 
L 134.915747 272.337348 
L 141.84165 272.337348 
L 141.84165 271.288853 
L 160.888028 271.288853 
L 160.888028 270.240357 
L 161.251711 270.240357 
L 161.251711 269.716109 
L 161.415116 269.716109 
L 161.415116 269.191862 
L 163.222061 269.191862 
L 163.222061 268.667614 
L 163.801274 268.667614 
L 163.801274 268.143366 
L 164.061854 268.143366 
L 164.061854 267.619119 
L 164.674259 267.619119 
L 164.674259 267.094871 
L 164.981317 267.094871 
L 164.981317 265.522128 
L 165.098501 265.522128 
L 165.098501 264.99788 
L 175.208323 264.99788 
L 175.261258 263.425137 
L 176.829797 263.425137 
L 176.829797 262.900889 
L 177.328899 262.900889 
L 177.328899 262.376641 
L 178.107407 262.376641 
L 178.107407 261.328146 
L 190.620506 261.328146 
L 190.620506 260.803898 
L 190.829111 260.803898 
L 190.829111 260.279651 
L 195.175187 260.279651 
L 195.175187 259.755403 
L 195.580857 259.755403 
L 195.580857 258.706907 
L 196.583185 258.706907 
L 196.583185 258.18266 
L 208.593092 258.18266 
L 208.593092 257.134164 
L 211.182298 257.134164 
L 211.182298 256.609917 
L 213.044845 256.609917 
L 213.044845 256.085669 
L 213.173471 256.085669 
L 213.173471 255.037173 
L 214.230479 255.037173 
L 214.230479 254.512926 
L 214.874516 254.512926 
L 214.874516 253.988678 
L 224.602738 253.988678 
L 224.713304 250.843192 
L 224.792944 250.843192 
L 224.792944 250.318944 
L 225.193738 250.318944 
L 225.193738 249.270448 
L 225.467648 249.270448 
L 225.496137 247.697705 
L 225.786743 247.697705 
L 225.884382 245.600714 
L 226.069124 245.600714 
L 226.137271 242.979476 
L 226.335675 242.979476 
L 226.335675 242.455228 
L 226.512521 242.455228 
L 226.531882 240.358237 
L 226.732628 240.358237 
L 226.732628 239.83399 
L 226.880687 239.83399 
L 226.961291 238.261246 
L 227.0014 238.261246 
L 227.0014 237.212751 
L 227.137473 237.212751 
L 227.137473 236.688503 
L 227.281506 236.688503 
L 227.349695 234.591512 
L 227.591368 234.591512 
L 227.627436 224.630806 
L 227.72241 224.630806 
L 227.797977 221.485319 
L 227.902451 221.485319 
L 227.902451 220.961072 
L 228.113924 220.961072 
L 228.215587 217.291338 
L 228.270611 217.291338 
L 228.345244 216.242842 
L 228.435424 216.242842 
L 228.435424 207.854879 
L 228.686818 207.854879 
L 228.710355 206.806383 
L 228.832273 206.806383 
L 228.889352 193.70019 
L 229.023675 193.70019 
L 229.11851 190.554704 
L 229.155206 190.554704 
L 229.26294 170.109043 
L 229.284586 170.109043 
L 229.338307 167.487804 
L 229.624373 167.487804 
L 229.665682 165.915061 
L 229.87118 165.915061 
L 229.87118 164.866566 
L 230.406947 164.866566 
L 230.431995 152.28462 
L 230.53785 152.28462 
L 230.53785 151.760373 
L 231.050467 151.760373 
L 231.050467 150.711877 
L 231.20813 150.711877 
L 231.20813 149.663382 
L 232.376388 149.663382 
L 232.376388 140.226923 
L 232.762148 140.226923 
L 232.762148 139.178427 
L 240.108383 139.178427 
L 240.108383 138.129932 
L 240.986709 138.129932 
L 241.019947 136.032941 
L 241.316939 136.032941 
L 241.358729 134.460198 
L 241.454442 134.460198 
L 241.454442 133.93595 
L 241.615121 133.93595 
L 241.684124 132.363207 
L 241.963516 132.363207 
L 242.071119 130.790464 
L 242.398266 130.790464 
L 242.425453 129.741969 
L 242.547256 129.741969 
L 242.606495 128.693473 
L 242.678415 128.693473 
L 242.752621 118.208519 
L 242.830431 118.208519 
L 242.830431 109.296308 
L 242.966002 109.296308 
L 242.966002 108.247812 
L 243.13487 108.247812 
L 243.157201 104.05383 
L 243.351689 104.05383 
L 243.351689 103.529583 
L 243.494098 103.529583 
L 243.583427 101.956839 
L 243.628677 101.956839 
L 243.659569 91.471885 
L 243.740527 91.471885 
L 243.811872 87.802151 
L 243.927503 87.802151 
L 243.930386 86.229408 
L 244.268496 86.229408 
L 244.268496 85.180912 
L 244.484911 85.180912 
L 244.488277 84.132417 
L 244.687413 84.132417 
L 244.780112 82.035426 
L 244.899363 82.035426 
L 244.903402 70.501976 
L 245.04963 70.501976 
L 245.128989 61.065517 
L 245.325633 61.065517 
L 245.37674 60.017022 
L 245.437905 60.017022 
L 245.496777 57.920031 
L 245.607494 57.920031 
L 245.702625 46.910829 
L 245.89377 46.910829 
L 245.991598 34.853131 
L 246.012778 34.853131 
L 246.07343 29.610654 
L 246.207208 29.610654 
L 246.207208 27.513663 
L 333.429677 27.513663 
L 333.429677 27.513663 
" style="fill:none;stroke:#999999;stroke-linecap:square;stroke-width:1.5;"/>
   </g>
   <g id="line2d_47"/>
   <g id="line2d_48">
    <path d="M 0 0 
" style="fill:none;stroke:#999999;stroke-linecap:square;stroke-width:1.5;"/>
   </g>
   <g id="line2d_49">
    <g>
     <use style="fill:#999999;stroke:#999999;" x="236.313776" xlink:href="#ma69c954a0f" y="289.637523"/>
     <use style="fill:#999999;stroke:#999999;" x="236.313776" xlink:href="#ma69c954a0f" y="289.637523"/>
    </g>
   </g>
   <g id="line2d_50">
    <path d="M 203.862501 294.88 
L 203.862501 293.831505 
L 206.141504 293.831505 
L 206.141504 292.783009 
L 216.637154 292.783009 
L 216.637154 292.258761 
L 221.673334 292.258761 
L 221.673334 291.734514 
L 222.800192 291.734514 
L 222.800192 290.686018 
L 234.724523 290.686018 
L 234.724523 290.161771 
L 236.313776 290.161771 
L 236.313776 289.637523 
L 333.429677 289.637523 
" style="fill:none;stroke:#999999;stroke-linecap:square;stroke-width:1.5;"/>
   </g>
   <g id="line2d_51"/>
   <g id="line2d_52">
    <path d="M 0 0 
" style="fill:none;stroke:#999999;stroke-linecap:square;stroke-width:1.5;"/>
   </g>
   <g id="line2d_53">
    <path clip-path="url(#pd17c28e351)" d="M 214.582716 292.783009 
" style="fill:none;stroke:#999999;stroke-linecap:square;stroke-width:1.5;"/>
    <g clip-path="url(#pd17c28e351)">
     <use style="fill:#999999;stroke:#999999;stroke-width:3;" x="214.582716" xlink:href="#med132d09df" y="292.783009"/>
    </g>
   </g>
   <g id="line2d_54">
    <path clip-path="url(#pd17c28e351)" d="M 56.12 294.88 
L 56.12 294.88 
L 56.12 294.88 
L 56.12 294.88 
L 399.984 294.88 
" style="fill:none;stroke:#999999;stroke-linecap:square;stroke-width:1.5;"/>
   </g>
   <g id="line2d_55"/>
   <g id="line2d_56">
    <path clip-path="url(#pd17c28e351)" d="M 0 0 
" style="fill:none;stroke:#999999;stroke-linecap:square;stroke-width:1.5;"/>
   </g>
   <g id="line2d_57">
    <g>
     <use style="fill:#999999;stroke:#999999;" x="247.557079" xlink:href="#ma69c954a0f" y="279.152568"/>
     <use style="fill:#999999;stroke:#999999;" x="247.557079" xlink:href="#ma69c954a0f" y="279.152568"/>
    </g>
   </g>
   <g id="line2d_58">
    <path d="M 140.68579 294.88 
L 140.68579 293.831505 
L 151.124596 293.831505 
L 151.124596 293.307257 
L 158.101142 293.307257 
L 158.101142 292.258761 
L 164.208774 292.258761 
L 164.208774 291.734514 
L 168.611555 291.734514 
L 168.611555 290.686018 
L 170.587167 290.686018 
L 170.587167 289.637523 
L 177.301506 289.637523 
L 177.301506 289.113275 
L 181.666639 289.113275 
L 181.666639 288.06478 
L 182.129496 288.06478 
L 182.129496 287.016284 
L 185.184854 287.016284 
L 185.184854 286.492036 
L 186.397925 286.492036 
L 186.397925 285.443541 
L 190.663743 285.443541 
L 190.663743 283.870798 
L 196.6057 283.870798 
L 196.6057 283.34655 
L 214.491807 283.34655 
L 214.491807 282.822302 
L 217.645242 282.822302 
L 217.645242 282.298055 
L 222.615523 282.298055 
L 222.615523 281.773807 
L 224.648876 281.773807 
L 224.648876 281.249559 
L 226.467116 281.249559 
L 226.467116 280.725312 
L 233.459659 280.725312 
L 233.459659 280.201064 
L 239.25808 280.201064 
L 239.25808 279.676816 
L 247.557079 279.676816 
L 247.557079 279.152568 
L 333.429677 279.152568 
" style="fill:none;stroke:#999999;stroke-linecap:square;stroke-width:1.5;"/>
   </g>
   <g id="line2d_59"/>
   <g id="line2d_60">
    <path d="M 0 0 
" style="fill:none;stroke:#999999;stroke-linecap:square;stroke-width:1.5;"/>
   </g>
   <g id="line2d_61">
    <path clip-path="url(#pd17c28e351)" d="M 186.901109 285.443541 
" style="fill:none;stroke:#999999;stroke-linecap:square;stroke-width:1.5;"/>
    <g clip-path="url(#pd17c28e351)">
     <use style="fill:#999999;stroke:#999999;stroke-width:3;" x="186.901109" xlink:href="#med132d09df" y="285.443541"/>
    </g>
   </g>
   <g id="line2d_62">
    <g>
     <use style="fill:#999999;stroke:#999999;" x="285.64182" xlink:href="#ma69c954a0f" y="205.757888"/>
     <use style="fill:#999999;stroke:#999999;" x="285.64182" xlink:href="#ma69c954a0f" y="205.757888"/>
    </g>
   </g>
   <g id="line2d_63">
    <path d="M 110.065758 294.88 
L 110.065758 293.831505 
L 111.135178 293.831505 
L 111.135178 293.307257 
L 111.465883 293.307257 
L 111.465883 292.258761 
L 112.075568 292.258761 
L 112.075568 291.210266 
L 112.551461 291.210266 
L 112.551461 290.161771 
L 113.202576 290.161771 
L 113.202576 289.637523 
L 113.557328 289.637523 
L 113.557328 289.113275 
L 114.765701 289.113275 
L 114.765701 288.589027 
L 114.977847 288.589027 
L 114.977847 287.016284 
L 115.20129 287.016284 
L 115.20129 286.492036 
L 115.449243 286.492036 
L 115.449243 285.967789 
L 116.752567 285.967789 
L 116.752567 285.443541 
L 117.472645 285.443541 
L 117.472645 284.919293 
L 119.424621 284.919293 
L 119.424621 284.395046 
L 119.661784 284.395046 
L 119.661784 283.870798 
L 121.167723 283.870798 
L 121.167723 283.34655 
L 121.294769 283.34655 
L 121.294769 282.822302 
L 121.641769 282.822302 
L 121.641769 281.773807 
L 123.007879 281.773807 
L 123.007879 281.249559 
L 123.218125 281.249559 
L 123.218125 280.201064 
L 123.875825 280.201064 
L 123.875825 279.152568 
L 124.330678 279.152568 
L 124.330678 278.628321 
L 124.541584 278.628321 
L 124.541584 277.579825 
L 124.726024 277.579825 
L 124.726024 276.007082 
L 125.459918 276.007082 
L 125.459918 275.482834 
L 126.818807 275.482834 
L 126.818807 274.958587 
L 128.221989 274.958587 
L 128.221989 273.910091 
L 130.555956 273.910091 
L 130.555956 273.385844 
L 144.846213 273.385844 
L 144.846213 272.861596 
L 146.17793 272.861596 
L 146.17793 272.337348 
L 147.872868 272.337348 
L 147.872868 271.8131 
L 149.337658 271.8131 
L 149.337658 271.288853 
L 149.497174 271.288853 
L 149.497174 270.764605 
L 149.996441 270.764605 
L 149.996441 269.716109 
L 153.182154 269.716109 
L 153.182154 269.191862 
L 153.424565 269.191862 
L 153.424565 268.667614 
L 157.032291 268.667614 
L 157.032291 267.619119 
L 158.578238 267.619119 
L 158.578238 267.094871 
L 158.899689 267.094871 
L 158.899689 266.570623 
L 161.700182 266.570623 
L 161.700182 266.046375 
L 162.167154 266.046375 
L 162.167154 265.522128 
L 163.760071 265.522128 
L 163.760071 263.425137 
L 168.739279 263.425137 
L 168.739279 262.376641 
L 169.131356 262.376641 
L 169.131356 261.328146 
L 170.109559 261.328146 
L 170.109559 260.803898 
L 170.223269 260.803898 
L 170.223269 260.279651 
L 170.88528 260.279651 
L 170.926671 258.18266 
L 183.388784 258.18266 
L 183.388784 257.658412 
L 183.582255 257.658412 
L 183.582255 256.609917 
L 184.797677 256.609917 
L 184.797677 256.085669 
L 185.162039 256.085669 
L 185.233947 255.037173 
L 185.580693 255.037173 
L 185.580693 254.512926 
L 185.983508 254.512926 
L 185.983508 253.988678 
L 186.162595 253.988678 
L 186.162595 253.46443 
L 186.281554 253.46443 
L 186.36181 251.891687 
L 186.759519 251.891687 
L 186.804972 249.794696 
L 187.416508 249.794696 
L 187.416508 249.270448 
L 188.351294 249.270448 
L 188.351294 248.746201 
L 188.91245 248.746201 
L 188.91245 247.697705 
L 193.147018 247.697705 
L 193.147018 247.173458 
L 217.433388 247.173458 
L 217.510949 244.552219 
L 217.60051 244.552219 
L 217.699012 242.455228 
L 218.075682 242.455228 
L 218.076209 241.406733 
L 218.906179 241.406733 
L 218.906179 240.882485 
L 228.069064 240.882485 
L 228.069358 239.83399 
L 228.198032 239.83399 
L 228.198032 239.309742 
L 228.406925 239.309742 
L 228.407214 238.261246 
L 228.806231 238.261246 
L 228.806231 237.736999 
L 234.493353 237.736999 
L 234.494367 236.688503 
L 234.729764 236.688503 
L 234.729764 236.164255 
L 239.240738 236.164255 
L 239.268183 234.591512 
L 242.901216 234.591512 
L 242.93012 231.970274 
L 248.501544 231.970274 
L 248.528673 230.921778 
L 248.751442 230.921778 
L 248.751442 230.397531 
L 250.744812 230.397531 
L 250.768313 228.824787 
L 252.723194 228.824787 
L 252.81261 226.727797 
L 254.509077 226.727797 
L 254.526987 225.679301 
L 256.119738 225.679301 
L 256.14843 223.58231 
L 257.600943 223.58231 
L 257.612826 222.533815 
L 258.951298 222.533815 
L 258.969385 220.961072 
L 260.210144 220.961072 
L 260.221507 218.864081 
L 261.432324 218.864081 
L 261.432324 218.339833 
L 262.479382 218.339833 
L 262.527204 216.76709 
L 263.51202 216.76709 
L 263.51202 216.242842 
L 264.493709 216.242842 
L 264.497733 215.194347 
L 266.296187 215.194347 
L 266.318448 214.145851 
L 267.910173 214.145851 
L 267.910173 213.621604 
L 270.089199 213.621604 
L 270.096954 212.573108 
L 270.759272 212.573108 
L 270.759272 212.04886 
L 271.43194 212.04886 
L 271.43194 211.524613 
L 272.036792 211.524613 
L 272.036792 211.000365 
L 272.633711 211.000365 
L 272.633711 210.476117 
L 273.215609 210.476117 
L 273.215609 209.95187 
L 274.311949 209.95187 
L 274.311949 209.427622 
L 275.851605 209.427622 
L 275.851605 208.903374 
L 276.327275 208.903374 
L 276.327275 208.379126 
L 281.25707 208.379126 
L 281.25707 207.854879 
L 281.956705 207.854879 
L 281.956705 207.330631 
L 285.366783 207.330631 
L 285.367921 206.282136 
L 285.64182 206.282136 
L 285.64182 205.757888 
L 333.429677 205.757888 
L 333.429677 205.757888 
" style="fill:none;stroke:#999999;stroke-linecap:square;stroke-width:1.5;"/>
   </g>
   <g id="line2d_64"/>
   <g id="line2d_65">
    <path d="M 0 0 
" style="fill:none;stroke:#999999;stroke-linecap:square;stroke-width:1.5;"/>
   </g>
   <g id="line2d_66">
    <path clip-path="url(#pd17c28e351)" d="M 214.584608 247.173458 
" style="fill:none;stroke:#999999;stroke-linecap:square;stroke-width:1.5;"/>
    <g clip-path="url(#pd17c28e351)">
     <use style="fill:#999999;stroke:#999999;stroke-width:3;" x="214.584608" xlink:href="#med132d09df" y="247.173458"/>
    </g>
   </g>
   <g id="line2d_67">
    <g>
     <use style="fill:#999999;stroke:#999999;" x="343.350061" xlink:href="#ma69c954a0f" y="289.637523"/>
     <use style="fill:#999999;stroke:#999999;" x="343.350061" xlink:href="#ma69c954a0f" y="289.637523"/>
    </g>
   </g>
   <g id="line2d_68">
    <path d="M 264.246348 294.88 
L 264.246348 294.355752 
L 289.971028 294.355752 
L 289.971028 293.831505 
L 303.9251 293.831505 
L 303.9251 293.307257 
L 311.52738 293.307257 
L 311.52738 292.783009 
L 313.714335 292.783009 
L 313.714335 291.734514 
L 316.781718 291.734514 
L 316.781718 291.210266 
L 320.801198 291.210266 
L 320.801198 290.686018 
L 333.429677 290.686018 
" style="fill:none;stroke:#999999;stroke-linecap:square;stroke-width:1.5;"/>
   </g>
   <g id="line2d_69"/>
   <g id="line2d_70">
    <path d="M 0 0 
" style="fill:none;stroke:#999999;stroke-linecap:square;stroke-width:1.5;"/>
   </g>
   <g id="line2d_71">
    <path clip-path="url(#pd17c28e351)" d="M 293.814009 293.831505 
" style="fill:none;stroke:#999999;stroke-linecap:square;stroke-width:1.5;"/>
    <g clip-path="url(#pd17c28e351)">
     <use style="fill:#999999;stroke:#999999;stroke-width:3;" x="293.814009" xlink:href="#med132d09df" y="293.831505"/>
    </g>
   </g>
   <g id="line2d_72">
    <path clip-path="url(#pd17c28e351)" d="M 56.12 294.88 
L 56.12 294.88 
L 56.12 294.88 
L 56.12 294.88 
L 399.984 294.88 
" style="fill:none;stroke:#999999;stroke-linecap:square;stroke-width:1.5;"/>
   </g>
   <g id="line2d_73"/>
   <g id="line2d_74">
    <path clip-path="url(#pd17c28e351)" d="M 0 0 
" style="fill:none;stroke:#999999;stroke-linecap:square;stroke-width:1.5;"/>
   </g>
   <g id="line2d_75">
    <g>
     <use style="fill:#999999;stroke:#999999;" x="256.288281" xlink:href="#ma69c954a0f" y="27.513663"/>
     <use style="fill:#999999;stroke:#999999;" x="256.288281" xlink:href="#ma69c954a0f" y="27.513663"/>
    </g>
   </g>
   <g id="line2d_76">
    <path d="M 137.916003 294.88 
L 137.916003 294.355752 
L 138.726645 294.355752 
L 138.726645 293.831505 
L 139.034947 293.831505 
L 139.034947 292.783009 
L 139.534566 292.783009 
L 139.534566 292.258761 
L 139.838789 292.258761 
L 139.838789 291.734514 
L 140.290112 291.734514 
L 140.303018 290.686018 
L 140.75505 290.686018 
L 140.783304 289.637523 
L 141.71732 289.637523 
L 141.71732 288.589027 
L 141.844599 288.589027 
L 141.926976 287.016284 
L 142.450171 287.016284 
L 142.450171 286.492036 
L 142.653949 286.492036 
L 142.653949 285.967789 
L 143.329818 285.967789 
L 143.329818 285.443541 
L 143.544882 285.443541 
L 143.544882 284.395046 
L 144.508533 284.395046 
L 144.508533 283.870798 
L 144.922828 283.870798 
L 145.016279 281.773807 
L 145.189537 281.773807 
L 145.189537 281.249559 
L 146.060616 281.249559 
L 146.060616 280.201064 
L 146.216858 280.201064 
L 146.216858 279.152568 
L 147.724738 279.152568 
L 147.724738 278.628321 
L 148.313806 278.628321 
L 148.313806 278.104073 
L 148.48105 278.104073 
L 148.48105 277.579825 
L 148.747674 277.579825 
L 148.747674 276.007082 
L 149.337658 276.007082 
L 149.337658 275.482834 
L 149.698249 275.482834 
L 149.770957 274.434339 
L 150.14271 274.434339 
L 150.14271 273.385844 
L 150.285942 273.385844 
L 150.285942 272.861596 
L 150.636235 272.861596 
L 150.636235 272.337348 
L 152.323413 272.337348 
L 152.323413 271.8131 
L 152.494179 271.8131 
L 152.554419 269.716109 
L 153.633909 269.716109 
L 153.633909 269.191862 
L 153.935924 269.191862 
L 153.972396 268.143366 
L 154.422588 268.143366 
L 154.422588 267.619119 
L 155.666955 267.619119 
L 155.666955 266.570623 
L 157.223957 266.570623 
L 157.223957 266.046375 
L 157.828447 266.046375 
L 157.828447 265.522128 
L 158.521277 265.522128 
L 158.521277 264.99788 
L 170.256671 264.99788 
L 170.256671 264.473632 
L 170.737969 264.473632 
L 170.737969 263.425137 
L 171.125161 263.425137 
L 171.125161 262.900889 
L 171.331485 262.900889 
L 171.331485 261.852394 
L 171.841882 261.852394 
L 171.841882 261.328146 
L 172.40809 261.328146 
L 172.40809 259.755403 
L 173.261487 259.755403 
L 173.344402 258.18266 
L 174.207672 258.18266 
L 174.207672 257.658412 
L 174.42388 257.658412 
L 174.488128 256.609917 
L 176.261213 256.609917 
L 176.261213 256.085669 
L 180.901283 256.085669 
L 180.901283 255.561421 
L 181.684987 255.561421 
L 181.684987 255.037173 
L 182.312891 255.037173 
L 182.406932 253.988678 
L 183.226677 253.988678 
L 183.226677 252.940182 
L 183.638731 252.940182 
L 183.638731 252.415935 
L 190.224282 252.415935 
L 190.224282 251.891687 
L 192.6213 251.891687 
L 192.6213 250.843192 
L 193.704833 250.843192 
L 193.704833 250.318944 
L 195.004512 250.318944 
L 195.025571 248.746201 
L 195.550589 248.746201 
L 195.550589 248.221953 
L 195.928536 248.221953 
L 195.991509 247.173458 
L 196.152335 247.173458 
L 196.152335 246.64921 
L 196.472999 246.64921 
L 196.518412 244.552219 
L 196.802792 244.552219 
L 196.862651 242.979476 
L 198.164779 242.979476 
L 198.164779 242.455228 
L 203.822191 242.455228 
L 203.822191 240.882485 
L 211.480488 240.882485 
L 211.480488 240.358237 
L 212.053129 240.358237 
L 212.053129 239.83399 
L 212.255074 239.83399 
L 212.255074 239.309742 
L 213.017497 239.309742 
L 213.017497 238.785494 
L 215.093024 238.785494 
L 215.093024 238.261246 
L 216.037822 238.261246 
L 216.037822 237.212751 
L 216.774705 237.212751 
L 216.774705 236.164255 
L 217.438599 236.164255 
L 217.438599 235.640008 
L 223.786941 235.640008 
L 223.786941 235.11576 
L 224.397403 235.11576 
L 224.397403 234.591512 
L 225.604549 234.591512 
L 225.604549 233.543017 
L 230.92768 233.543017 
L 230.92768 233.018769 
L 231.420479 233.018769 
L 231.420479 231.446026 
L 231.711805 231.446026 
L 231.711805 230.921778 
L 232.024675 230.921778 
L 232.024675 229.873283 
L 232.642898 229.873283 
L 232.642898 229.349035 
L 233.588995 229.349035 
L 233.588995 228.824787 
L 238.652984 228.824787 
L 238.698396 226.727797 
L 238.838203 226.727797 
L 238.838203 226.203549 
L 238.970891 226.203549 
L 239.012936 215.718594 
L 239.328496 215.718594 
L 239.425779 213.621604 
L 239.448451 213.621604 
L 239.448451 212.04886 
L 239.608771 212.04886 
L 239.632717 195.272933 
L 239.746332 195.272933 
L 239.843566 193.175943 
L 239.877484 193.175943 
L 239.977148 190.030456 
L 239.989421 190.030456 
L 240.083879 180.593997 
L 240.153843 180.593997 
L 240.234364 172.730281 
L 240.290886 172.730281 
L 240.396357 162.769575 
L 240.41652 162.769575 
L 240.512242 158.051345 
L 240.549642 158.051345 
L 240.635216 144.945152 
L 240.66676 144.945152 
L 240.777654 133.411703 
L 240.781097 133.411703 
L 240.876645 124.499491 
L 240.897326 124.499491 
L 240.897326 123.975244 
L 241.072918 123.975244 
L 241.171661 111.917546 
L 241.235291 111.917546 
L 241.255326 100.908344 
L 241.887773 100.908344 
L 241.961362 88.326399 
L 255.296359 88.326399 
L 255.313065 76.792949 
L 255.430529 76.792949 
L 255.486541 60.54127 
L 255.959455 60.54127 
L 255.978412 47.435077 
L 256.1851 47.435077 
L 256.288281 27.513663 
L 333.429677 27.513663 
L 333.429677 27.513663 
" style="fill:none;stroke:#999999;stroke-linecap:square;stroke-width:1.5;"/>
   </g>
   <g id="line2d_77"/>
   <g id="line2d_78">
    <path d="M 0 0 
" style="fill:none;stroke:#999999;stroke-linecap:square;stroke-width:1.5;"/>
   </g>
   <g id="line2d_79">
    <path d="M 333.429677 294.88 
L 333.429677 27.513663 
" style="fill:none;stroke:#000000;stroke-linecap:square;stroke-width:1.5;"/>
   </g>
   <g id="patch_3">
    <path d="M 56.12 294.88 
L 56.12 24.84 
" style="fill:none;stroke:#000000;stroke-linecap:square;stroke-linejoin:miter;stroke-width:0.8;"/>
   </g>
   <g id="patch_4">
    <path d="M 399.984 294.88 
L 399.984 24.84 
" style="fill:none;stroke:#000000;stroke-linecap:square;stroke-linejoin:miter;stroke-width:0.8;"/>
   </g>
   <g id="patch_5">
    <path d="M 56.12 294.88 
L 399.984 294.88 
" style="fill:none;stroke:#000000;stroke-linecap:square;stroke-linejoin:miter;stroke-width:0.8;"/>
   </g>
   <g id="patch_6">
    <path d="M 56.12 24.84 
L 399.984 24.84 
" style="fill:none;stroke:#000000;stroke-linecap:square;stroke-linejoin:miter;stroke-width:0.8;"/>
   </g>
   <g id="text_14">
    <!-- best 2009 -->
    <defs>
     <path d="M 48.6875 27.296875 
Q 48.6875 37.203125 44.609375 42.84375 
Q 40.53125 48.484375 33.40625 48.484375 
Q 26.265625 48.484375 22.1875 42.84375 
Q 18.109375 37.203125 18.109375 27.296875 
Q 18.109375 17.390625 22.1875 11.75 
Q 26.265625 6.109375 33.40625 6.109375 
Q 40.53125 6.109375 44.609375 11.75 
Q 48.6875 17.390625 48.6875 27.296875 
z
M 18.109375 46.390625 
Q 20.953125 51.265625 25.265625 53.625 
Q 29.59375 56 35.59375 56 
Q 45.5625 56 51.78125 48.09375 
Q 58.015625 40.1875 58.015625 27.296875 
Q 58.015625 14.40625 51.78125 6.484375 
Q 45.5625 -1.421875 35.59375 -1.421875 
Q 29.59375 -1.421875 25.265625 0.953125 
Q 20.953125 3.328125 18.109375 8.203125 
L 18.109375 0 
L 9.078125 0 
L 9.078125 75.984375 
L 18.109375 75.984375 
z
" id="DejaVuSans-62"/>
     <path d="M 10.984375 1.515625 
L 10.984375 10.5 
Q 14.703125 8.734375 18.5 7.8125 
Q 22.3125 6.890625 25.984375 6.890625 
Q 35.75 6.890625 40.890625 13.453125 
Q 46.046875 20.015625 46.78125 33.40625 
Q 43.953125 29.203125 39.59375 26.953125 
Q 35.25 24.703125 29.984375 24.703125 
Q 19.046875 24.703125 12.671875 31.3125 
Q 6.296875 37.9375 6.296875 49.421875 
Q 6.296875 60.640625 12.9375 67.421875 
Q 19.578125 74.21875 30.609375 74.21875 
Q 43.265625 74.21875 49.921875 64.515625 
Q 56.59375 54.828125 56.59375 36.375 
Q 56.59375 19.140625 48.40625 8.859375 
Q 40.234375 -1.421875 26.421875 -1.421875 
Q 22.703125 -1.421875 18.890625 -0.6875 
Q 15.09375 0.046875 10.984375 1.515625 
z
M 30.609375 32.421875 
Q 37.25 32.421875 41.125 36.953125 
Q 45.015625 41.5 45.015625 49.421875 
Q 45.015625 57.28125 41.125 61.84375 
Q 37.25 66.40625 30.609375 66.40625 
Q 23.96875 66.40625 20.09375 61.84375 
Q 16.21875 57.28125 16.21875 49.421875 
Q 16.21875 41.5 20.09375 36.953125 
Q 23.96875 32.421875 30.609375 32.421875 
z
" id="DejaVuSans-39"/>
    </defs>
    <g transform="translate(369.479935 294.223611)scale(0.17 -0.17)">
     <use xlink:href="#DejaVuSans-62"/>
     <use x="63.476562" xlink:href="#DejaVuSans-65"/>
     <use x="125" xlink:href="#DejaVuSans-73"/>
     <use x="177.099609" xlink:href="#DejaVuSans-74"/>
     <use x="216.308594" xlink:href="#DejaVuSans-20"/>
     <use x="248.095703" xlink:href="#DejaVuSans-32"/>
     <use x="311.71875" xlink:href="#DejaVuSans-30"/>
     <use x="375.341797" xlink:href="#DejaVuSans-30"/>
     <use x="438.964844" xlink:href="#DejaVuSans-39"/>
    </g>
   </g>
   <g id="text_15">
    <!-- bbob f115, 40-D -->
    <defs>
     <path d="M 10.796875 72.90625 
L 49.515625 72.90625 
L 49.515625 64.59375 
L 19.828125 64.59375 
L 19.828125 46.734375 
Q 21.96875 47.46875 24.109375 47.828125 
Q 26.265625 48.1875 28.421875 48.1875 
Q 40.625 48.1875 47.75 41.5 
Q 54.890625 34.8125 54.890625 23.390625 
Q 54.890625 11.625 47.5625 5.09375 
Q 40.234375 -1.421875 26.90625 -1.421875 
Q 22.3125 -1.421875 17.546875 -0.640625 
Q 12.796875 0.140625 7.71875 1.703125 
L 7.71875 11.625 
Q 12.109375 9.234375 16.796875 8.0625 
Q 21.484375 6.890625 26.703125 6.890625 
Q 35.15625 6.890625 40.078125 11.328125 
Q 45.015625 15.765625 45.015625 23.390625 
Q 45.015625 31 40.078125 35.4375 
Q 35.15625 39.890625 26.703125 39.890625 
Q 22.75 39.890625 18.8125 39.015625 
Q 14.890625 38.140625 10.796875 36.28125 
z
" id="DejaVuSans-35"/>
     <path d="M 19.671875 64.796875 
L 19.671875 8.109375 
L 31.59375 8.109375 
Q 46.6875 8.109375 53.6875 14.9375 
Q 60.6875 21.78125 60.6875 36.53125 
Q 60.6875 51.171875 53.6875 57.984375 
Q 46.6875 64.796875 31.59375 64.796875 
z
M 9.8125 72.90625 
L 30.078125 72.90625 
Q 51.265625 72.90625 61.171875 64.09375 
Q 71.09375 55.28125 71.09375 36.53125 
Q 71.09375 17.671875 61.125 8.828125 
Q 51.171875 0 30.078125 0 
L 9.8125 0 
z
" id="DejaVuSans-44"/>
    </defs>
    <g transform="translate(59.55864 35.290806)scale(0.102 -0.102)">
     <use xlink:href="#DejaVuSans-62"/>
     <use x="63.476562" xlink:href="#DejaVuSans-62"/>
     <use x="126.953125" xlink:href="#DejaVuSans-6f"/>
     <use x="188.134766" xlink:href="#DejaVuSans-62"/>
     <use x="251.611328" xlink:href="#DejaVuSans-20"/>
     <use x="283.398438" xlink:href="#DejaVuSans-66"/>
     <use x="318.603516" xlink:href="#DejaVuSans-31"/>
     <use x="382.226562" xlink:href="#DejaVuSans-31"/>
     <use x="445.849609" xlink:href="#DejaVuSans-35"/>
     <use x="509.472656" xlink:href="#DejaVuSans-2c"/>
     <use x="541.259766" xlink:href="#DejaVuSans-20"/>
     <use x="573.046875" xlink:href="#DejaVuSans-34"/>
     <use x="636.669922" xlink:href="#DejaVuSans-30"/>
     <use x="700.292969" xlink:href="#DejaVuSans-2d"/>
     <use x="736.376953" xlink:href="#DejaVuSans-44"/>
    </g>
    <!-- 51 targets: 100..1e-08 -->
    <defs>
     <path d="M 11.71875 12.40625 
L 22.015625 12.40625 
L 22.015625 0 
L 11.71875 0 
z
M 11.71875 51.703125 
L 22.015625 51.703125 
L 22.015625 39.3125 
L 11.71875 39.3125 
z
" id="DejaVuSans-3a"/>
    </defs>
    <g transform="translate(59.55864 46.712575)scale(0.102 -0.102)">
     <use xlink:href="#DejaVuSans-35"/>
     <use x="63.623047" xlink:href="#DejaVuSans-31"/>
     <use x="127.246094" xlink:href="#DejaVuSans-20"/>
     <use x="159.033203" xlink:href="#DejaVuSans-74"/>
     <use x="198.242188" xlink:href="#DejaVuSans-61"/>
     <use x="259.521484" xlink:href="#DejaVuSans-72"/>
     <use x="300.619141" xlink:href="#DejaVuSans-67"/>
     <use x="364.095703" xlink:href="#DejaVuSans-65"/>
     <use x="425.619141" xlink:href="#DejaVuSans-74"/>
     <use x="464.828125" xlink:href="#DejaVuSans-73"/>
     <use x="516.927734" xlink:href="#DejaVuSans-3a"/>
     <use x="550.619141" xlink:href="#DejaVuSans-20"/>
     <use x="582.40625" xlink:href="#DejaVuSans-31"/>
     <use x="646.029297" xlink:href="#DejaVuSans-30"/>
     <use x="709.652344" xlink:href="#DejaVuSans-30"/>
     <use x="773.275391" xlink:href="#DejaVuSans-2e"/>
     <use x="805.0625" xlink:href="#DejaVuSans-2e"/>
     <use x="836.849609" xlink:href="#DejaVuSans-31"/>
     <use x="900.472656" xlink:href="#DejaVuSans-65"/>
     <use x="961.996094" xlink:href="#DejaVuSans-2d"/>
     <use x="998.080078" xlink:href="#DejaVuSans-30"/>
     <use x="1061.703125" xlink:href="#DejaVuSans-38"/>
    </g>
    <!-- 15 instances -->
    <g transform="translate(59.55864 58.134344)scale(0.102 -0.102)">
     <use xlink:href="#DejaVuSans-31"/>
     <use x="63.623047" xlink:href="#DejaVuSans-35"/>
     <use x="127.246094" xlink:href="#DejaVuSans-20"/>
     <use x="159.033203" xlink:href="#DejaVuSans-69"/>
     <use x="186.816406" xlink:href="#DejaVuSans-6e"/>
     <use x="250.195312" xlink:href="#DejaVuSans-73"/>
     <use x="302.294922" xlink:href="#DejaVuSans-74"/>
     <use x="341.503906" xlink:href="#DejaVuSans-61"/>
     <use x="402.783203" xlink:href="#DejaVuSans-6e"/>
     <use x="466.162109" xlink:href="#DejaVuSans-63"/>
     <use x="521.142578" xlink:href="#DejaVuSans-65"/>
     <use x="582.666016" xlink:href="#DejaVuSans-73"/>
    </g>
   </g>
   <g id="text_16">
    <!-- v2.0.778 -->
    <defs>
     <path d="M 8.203125 72.90625 
L 55.078125 72.90625 
L 55.078125 68.703125 
L 28.609375 0 
L 18.3125 0 
L 43.21875 64.59375 
L 8.203125 64.59375 
z
" id="DejaVuSans-37"/>
    </defs>
    <g style="fill:#808080;" transform="translate(206.00825 290.099912)scale(0.1 -0.1)">
     <use xlink:href="#DejaVuSans-76"/>
     <use x="59.179688" xlink:href="#DejaVuSans-32"/>
     <use x="122.802734" xlink:href="#DejaVuSans-2e"/>
     <use x="154.589844" xlink:href="#DejaVuSans-30"/>
     <use x="218.212891" xlink:href="#DejaVuSans-2e"/>
     <use x="250" xlink:href="#DejaVuSans-37"/>
     <use x="313.623047" xlink:href="#DejaVuSans-37"/>
     <use x="377.246094" xlink:href="#DejaVuSans-38"/>
    </g>
   </g>
   <g id="text_17">
    <!-- 115 Step-ellipsoid Cauchy -->
    <defs>
     <path d="M 53.515625 70.515625 
L 53.515625 60.890625 
Q 47.90625 63.578125 42.921875 64.890625 
Q 37.9375 66.21875 33.296875 66.21875 
Q 25.25 66.21875 20.875 63.09375 
Q 16.5 59.96875 16.5 54.203125 
Q 16.5 49.359375 19.40625 46.890625 
Q 22.3125 44.4375 30.421875 42.921875 
L 36.375 41.703125 
Q 47.40625 39.59375 52.65625 34.296875 
Q 57.90625 29 57.90625 20.125 
Q 57.90625 9.515625 50.796875 4.046875 
Q 43.703125 -1.421875 29.984375 -1.421875 
Q 24.8125 -1.421875 18.96875 -0.25 
Q 13.140625 0.921875 6.890625 3.21875 
L 6.890625 13.375 
Q 12.890625 10.015625 18.65625 8.296875 
Q 24.421875 6.59375 29.984375 6.59375 
Q 38.421875 6.59375 43.015625 9.90625 
Q 47.609375 13.234375 47.609375 19.390625 
Q 47.609375 24.75 44.3125 27.78125 
Q 41.015625 30.8125 33.5 32.328125 
L 27.484375 33.5 
Q 16.453125 35.6875 11.515625 40.375 
Q 6.59375 45.0625 6.59375 53.421875 
Q 6.59375 63.09375 13.40625 68.65625 
Q 20.21875 74.21875 32.171875 74.21875 
Q 37.3125 74.21875 42.625 73.28125 
Q 47.953125 72.359375 53.515625 70.515625 
z
" id="DejaVuSans-53"/>
     <path d="M 64.40625 67.28125 
L 64.40625 56.890625 
Q 59.421875 61.53125 53.78125 63.8125 
Q 48.140625 66.109375 41.796875 66.109375 
Q 29.296875 66.109375 22.65625 58.46875 
Q 16.015625 50.828125 16.015625 36.375 
Q 16.015625 21.96875 22.65625 14.328125 
Q 29.296875 6.6875 41.796875 6.6875 
Q 48.140625 6.6875 53.78125 8.984375 
Q 59.421875 11.28125 64.40625 15.921875 
L 64.40625 5.609375 
Q 59.234375 2.09375 53.4375 0.328125 
Q 47.65625 -1.421875 41.21875 -1.421875 
Q 24.65625 -1.421875 15.125 8.703125 
Q 5.609375 18.84375 5.609375 36.375 
Q 5.609375 53.953125 15.125 64.078125 
Q 24.65625 74.21875 41.21875 74.21875 
Q 47.75 74.21875 53.53125 72.484375 
Q 59.328125 70.75 64.40625 67.28125 
z
" id="DejaVuSans-43"/>
     <path d="M 54.890625 33.015625 
L 54.890625 0 
L 45.90625 0 
L 45.90625 32.71875 
Q 45.90625 40.484375 42.875 44.328125 
Q 39.84375 48.1875 33.796875 48.1875 
Q 26.515625 48.1875 22.3125 43.546875 
Q 18.109375 38.921875 18.109375 30.90625 
L 18.109375 0 
L 9.078125 0 
L 9.078125 75.984375 
L 18.109375 75.984375 
L 18.109375 46.1875 
Q 21.34375 51.125 25.703125 53.5625 
Q 30.078125 56 35.796875 56 
Q 45.21875 56 50.046875 50.171875 
Q 54.890625 44.34375 54.890625 33.015625 
z
" id="DejaVuSans-68"/>
     <path d="M 32.171875 -5.078125 
Q 28.375 -14.84375 24.75 -17.8125 
Q 21.140625 -20.796875 15.09375 -20.796875 
L 7.90625 -20.796875 
L 7.90625 -13.28125 
L 13.1875 -13.28125 
Q 16.890625 -13.28125 18.9375 -11.515625 
Q 21 -9.765625 23.484375 -3.21875 
L 25.09375 0.875 
L 2.984375 54.6875 
L 12.5 54.6875 
L 29.59375 11.921875 
L 46.6875 54.6875 
L 56.203125 54.6875 
z
" id="DejaVuSans-79"/>
    </defs>
    <g transform="translate(97.736375 18.84)scale(0.2 -0.2)">
     <use xlink:href="#DejaVuSans-31"/>
     <use x="63.623047" xlink:href="#DejaVuSans-31"/>
     <use x="127.246094" xlink:href="#DejaVuSans-35"/>
     <use x="190.869141" xlink:href="#DejaVuSans-20"/>
     <use x="222.65625" xlink:href="#DejaVuSans-53"/>
     <use x="286.132812" xlink:href="#DejaVuSans-74"/>
     <use x="325.341797" xlink:href="#DejaVuSans-65"/>
     <use x="386.865234" xlink:href="#DejaVuSans-70"/>
     <use x="450.341797" xlink:href="#DejaVuSans-2d"/>
     <use x="486.425781" xlink:href="#DejaVuSans-65"/>
     <use x="547.949219" xlink:href="#DejaVuSans-6c"/>
     <use x="575.732422" xlink:href="#DejaVuSans-6c"/>
     <use x="603.515625" xlink:href="#DejaVuSans-69"/>
     <use x="631.298828" xlink:href="#DejaVuSans-70"/>
     <use x="694.775391" xlink:href="#DejaVuSans-73"/>
     <use x="746.875" xlink:href="#DejaVuSans-6f"/>
     <use x="808.056641" xlink:href="#DejaVuSans-69"/>
     <use x="835.839844" xlink:href="#DejaVuSans-64"/>
     <use x="899.316406" xlink:href="#DejaVuSans-20"/>
     <use x="931.103516" xlink:href="#DejaVuSans-43"/>
     <use x="1000.927734" xlink:href="#DejaVuSans-61"/>
     <use x="1062.207031" xlink:href="#DejaVuSans-75"/>
     <use x="1125.585938" xlink:href="#DejaVuSans-63"/>
     <use x="1180.566406" xlink:href="#DejaVuSans-68"/>
     <use x="1243.945312" xlink:href="#DejaVuSans-79"/>
    </g>
   </g>
  </g>
 </g>
 <defs>
  <clipPath id="pd17c28e351">
   <rect height="270.04" width="343.864" x="56.12" y="24.84"/>
  </clipPath>
 </defs>
</svg>
