<?xml version="1.0" encoding="utf-8" standalone="no"?>
<!DOCTYPE svg PUBLIC "-//W3C//DTD SVG 1.1//EN"
  "http://www.w3.org/Graphics/SVG/1.1/DTD/svg11.dtd">
<!-- Created with matplotlib (http://matplotlib.org/) -->
<svg height="345pt" version="1.1" viewBox="0 0 460 345" width="460pt" xmlns="http://www.w3.org/2000/svg" xmlns:xlink="http://www.w3.org/1999/xlink">
 <defs>
  <style type="text/css">
*{stroke-linecap:butt;stroke-linejoin:round;}
  </style>
 </defs>
 <g id="figure_1">
  <g id="patch_1">
   <path d="M 0 345.6 
L 460.8 345.6 
L 460.8 0 
L 0 0 
z
" style="fill:#ffffff;"/>
  </g>
  <g id="axes_1">
   <g id="patch_2">
    <path d="M 56.12 294.88 
L 399.984 294.88 
L 399.984 24.84 
L 56.12 24.84 
z
" style="fill:#ffffff;"/>
   </g>
   <g id="line2d_1">
    <path d="M -1 290.270236 
L 133.968118 290.270236 
L 133.968118 281.050707 
L 140.780167 281.050707 
L 140.780167 271.831178 
L 230.478261 271.831178 
L 230.478261 267.221413 
L 239.763341 267.221413 
L 239.763341 253.39212 
L 247.322039 253.39212 
L 247.322039 244.172591 
L 247.340394 244.172591 
L 247.340394 239.562827 
L 254.390675 239.562827 
L 254.390675 230.343298 
L 268.835464 230.343298 
L 268.835464 216.514005 
L 268.911835 216.514005 
L 268.911835 207.294476 
L 278.097173 207.294476 
L 278.097173 198.074947 
L 292.072125 198.074947 
L 292.072125 188.855418 
L 292.178667 188.855418 
L 292.178667 184.245654 
L 333.429677 184.245654 
" style="fill:none;stroke:#f5deb3;stroke-linecap:square;stroke-width:6;"/>
   </g>
   <g id="line2d_2">
    <path d="M 0 0 
" style="fill:none;stroke:#f5deb3;stroke-linecap:square;stroke-width:6;"/>
    <defs>
     <path d="M -0 7.778175 
L 7.778175 0 
L 0 -7.778175 
L -7.778175 -0 
z
" id="m98e1e0d3da" style="stroke:#f5deb3;stroke-linejoin:miter;stroke-width:1.5;"/>
    </defs>
    <g>
     <use style="fill:#f5deb3;stroke:#f5deb3;stroke-linejoin:miter;stroke-width:1.5;" x="0" xlink:href="#m98e1e0d3da" y="0"/>
    </g>
   </g>
   <g id="line2d_3">
    <path d="M 333.429677 184.245654 
L 363.933742 69.528373 
" style="fill:none;stroke:#f5deb3;stroke-linecap:square;stroke-width:6;"/>
    <g>
     <use style="fill:#f5deb3;stroke:#f5deb3;stroke-linejoin:miter;stroke-width:1.5;" x="333.429677" xlink:href="#m98e1e0d3da" y="184.245654"/>
     <use style="fill:#f5deb3;stroke:#f5deb3;stroke-linejoin:miter;stroke-width:1.5;" x="363.933742" xlink:href="#m98e1e0d3da" y="69.528373"/>
    </g>
   </g>
   <g id="matplotlib.axis_1">
    <g id="xtick_1">
     <g id="line2d_4">
      <path clip-path="url(#p6c11e868eb)" d="M 56.12 294.88 
L 56.12 24.84 
" style="fill:none;stroke:#b0b0b0;stroke-linecap:square;stroke-width:0.8;"/>
     </g>
     <g id="line2d_5">
      <defs>
       <path d="M 0 0 
L 0 3.5 
" id="me692aa707a" style="stroke:#000000;stroke-width:0.8;"/>
      </defs>
      <g>
       <use style="stroke:#000000;stroke-width:0.8;" x="56.12" xlink:href="#me692aa707a" y="294.88"/>
      </g>
     </g>
     <g id="text_1">
      <!-- 0 -->
      <defs>
       <path d="M 31.78125 66.40625 
Q 24.171875 66.40625 20.328125 58.90625 
Q 16.5 51.421875 16.5 36.375 
Q 16.5 21.390625 20.328125 13.890625 
Q 24.171875 6.390625 31.78125 6.390625 
Q 39.453125 6.390625 43.28125 13.890625 
Q 47.125 21.390625 47.125 36.375 
Q 47.125 51.421875 43.28125 58.90625 
Q 39.453125 66.40625 31.78125 66.40625 
z
M 31.78125 74.21875 
Q 44.046875 74.21875 50.515625 64.515625 
Q 56.984375 54.828125 56.984375 36.375 
Q 56.984375 17.96875 50.515625 8.265625 
Q 44.046875 -1.421875 31.78125 -1.421875 
Q 19.53125 -1.421875 13.0625 8.265625 
Q 6.59375 17.96875 6.59375 36.375 
Q 6.59375 54.828125 13.0625 64.515625 
Q 19.53125 74.21875 31.78125 74.21875 
z
" id="DejaVuSans-30"/>
      </defs>
      <g transform="translate(49.7575 317.076875)scale(0.2 -0.2)">
       <use xlink:href="#DejaVuSans-30"/>
      </g>
     </g>
    </g>
    <g id="xtick_2">
     <g id="line2d_6">
      <path clip-path="url(#p6c11e868eb)" d="M 135.351336 294.88 
L 135.351336 24.84 
" style="fill:none;stroke:#b0b0b0;stroke-linecap:square;stroke-width:0.8;"/>
     </g>
     <g id="line2d_7">
      <g>
       <use style="stroke:#000000;stroke-width:0.8;" x="135.351336" xlink:href="#me692aa707a" y="294.88"/>
      </g>
     </g>
     <g id="text_2">
      <!-- 2 -->
      <defs>
       <path d="M 19.1875 8.296875 
L 53.609375 8.296875 
L 53.609375 0 
L 7.328125 0 
L 7.328125 8.296875 
Q 12.9375 14.109375 22.625 23.890625 
Q 32.328125 33.6875 34.8125 36.53125 
Q 39.546875 41.84375 41.421875 45.53125 
Q 43.3125 49.21875 43.3125 52.78125 
Q 43.3125 58.59375 39.234375 62.25 
Q 35.15625 65.921875 28.609375 65.921875 
Q 23.96875 65.921875 18.8125 64.3125 
Q 13.671875 62.703125 7.8125 59.421875 
L 7.8125 69.390625 
Q 13.765625 71.78125 18.9375 73 
Q 24.125 74.21875 28.421875 74.21875 
Q 39.75 74.21875 46.484375 68.546875 
Q 53.21875 62.890625 53.21875 53.421875 
Q 53.21875 48.921875 51.53125 44.890625 
Q 49.859375 40.875 45.40625 35.40625 
Q 44.1875 33.984375 37.640625 27.21875 
Q 31.109375 20.453125 19.1875 8.296875 
z
" id="DejaVuSans-32"/>
      </defs>
      <g transform="translate(128.988836 317.076875)scale(0.2 -0.2)">
       <use xlink:href="#DejaVuSans-32"/>
      </g>
     </g>
    </g>
    <g id="xtick_3">
     <g id="line2d_8">
      <path clip-path="url(#p6c11e868eb)" d="M 214.582673 294.88 
L 214.582673 24.84 
" style="fill:none;stroke:#b0b0b0;stroke-linecap:square;stroke-width:0.8;"/>
     </g>
     <g id="line2d_9">
      <g>
       <use style="stroke:#000000;stroke-width:0.8;" x="214.582673" xlink:href="#me692aa707a" y="294.88"/>
      </g>
     </g>
     <g id="text_3">
      <!-- 4 -->
      <defs>
       <path d="M 37.796875 64.3125 
L 12.890625 25.390625 
L 37.796875 25.390625 
z
M 35.203125 72.90625 
L 47.609375 72.90625 
L 47.609375 25.390625 
L 58.015625 25.390625 
L 58.015625 17.1875 
L 47.609375 17.1875 
L 47.609375 0 
L 37.796875 0 
L 37.796875 17.1875 
L 4.890625 17.1875 
L 4.890625 26.703125 
z
" id="DejaVuSans-34"/>
      </defs>
      <g transform="translate(208.220173 317.076875)scale(0.2 -0.2)">
       <use xlink:href="#DejaVuSans-34"/>
      </g>
     </g>
    </g>
    <g id="xtick_4">
     <g id="line2d_10">
      <path clip-path="url(#p6c11e868eb)" d="M 293.814009 294.88 
L 293.814009 24.84 
" style="fill:none;stroke:#b0b0b0;stroke-linecap:square;stroke-width:0.8;"/>
     </g>
     <g id="line2d_11">
      <g>
       <use style="stroke:#000000;stroke-width:0.8;" x="293.814009" xlink:href="#me692aa707a" y="294.88"/>
      </g>
     </g>
     <g id="text_4">
      <!-- 6 -->
      <defs>
       <path d="M 33.015625 40.375 
Q 26.375 40.375 22.484375 35.828125 
Q 18.609375 31.296875 18.609375 23.390625 
Q 18.609375 15.53125 22.484375 10.953125 
Q 26.375 6.390625 33.015625 6.390625 
Q 39.65625 6.390625 43.53125 10.953125 
Q 47.40625 15.53125 47.40625 23.390625 
Q 47.40625 31.296875 43.53125 35.828125 
Q 39.65625 40.375 33.015625 40.375 
z
M 52.59375 71.296875 
L 52.59375 62.3125 
Q 48.875 64.0625 45.09375 64.984375 
Q 41.3125 65.921875 37.59375 65.921875 
Q 27.828125 65.921875 22.671875 59.328125 
Q 17.53125 52.734375 16.796875 39.40625 
Q 19.671875 43.65625 24.015625 45.921875 
Q 28.375 48.1875 33.59375 48.1875 
Q 44.578125 48.1875 50.953125 41.515625 
Q 57.328125 34.859375 57.328125 23.390625 
Q 57.328125 12.15625 50.6875 5.359375 
Q 44.046875 -1.421875 33.015625 -1.421875 
Q 20.359375 -1.421875 13.671875 8.265625 
Q 6.984375 17.96875 6.984375 36.375 
Q 6.984375 53.65625 15.1875 63.9375 
Q 23.390625 74.21875 37.203125 74.21875 
Q 40.921875 74.21875 44.703125 73.484375 
Q 48.484375 72.75 52.59375 71.296875 
z
" id="DejaVuSans-36"/>
      </defs>
      <g transform="translate(287.451509 317.076875)scale(0.2 -0.2)">
       <use xlink:href="#DejaVuSans-36"/>
      </g>
     </g>
    </g>
    <g id="xtick_5">
     <g id="line2d_12">
      <path clip-path="url(#p6c11e868eb)" d="M 373.045346 294.88 
L 373.045346 24.84 
" style="fill:none;stroke:#b0b0b0;stroke-linecap:square;stroke-width:0.8;"/>
     </g>
     <g id="line2d_13">
      <g>
       <use style="stroke:#000000;stroke-width:0.8;" x="373.045346" xlink:href="#me692aa707a" y="294.88"/>
      </g>
     </g>
     <g id="text_5">
      <!-- 8 -->
      <defs>
       <path d="M 31.78125 34.625 
Q 24.75 34.625 20.71875 30.859375 
Q 16.703125 27.09375 16.703125 20.515625 
Q 16.703125 13.921875 20.71875 10.15625 
Q 24.75 6.390625 31.78125 6.390625 
Q 38.8125 6.390625 42.859375 10.171875 
Q 46.921875 13.96875 46.921875 20.515625 
Q 46.921875 27.09375 42.890625 30.859375 
Q 38.875 34.625 31.78125 34.625 
z
M 21.921875 38.8125 
Q 15.578125 40.375 12.03125 44.71875 
Q 8.5 49.078125 8.5 55.328125 
Q 8.5 64.0625 14.71875 69.140625 
Q 20.953125 74.21875 31.78125 74.21875 
Q 42.671875 74.21875 48.875 69.140625 
Q 55.078125 64.0625 55.078125 55.328125 
Q 55.078125 49.078125 51.53125 44.71875 
Q 48 40.375 41.703125 38.8125 
Q 48.828125 37.15625 52.796875 32.3125 
Q 56.78125 27.484375 56.78125 20.515625 
Q 56.78125 9.90625 50.3125 4.234375 
Q 43.84375 -1.421875 31.78125 -1.421875 
Q 19.734375 -1.421875 13.25 4.234375 
Q 6.78125 9.90625 6.78125 20.515625 
Q 6.78125 27.484375 10.78125 32.3125 
Q 14.796875 37.15625 21.921875 38.8125 
z
M 18.3125 54.390625 
Q 18.3125 48.734375 21.84375 45.5625 
Q 25.390625 42.390625 31.78125 42.390625 
Q 38.140625 42.390625 41.71875 45.5625 
Q 45.3125 48.734375 45.3125 54.390625 
Q 45.3125 60.0625 41.71875 63.234375 
Q 38.140625 66.40625 31.78125 66.40625 
Q 25.390625 66.40625 21.84375 63.234375 
Q 18.3125 60.0625 18.3125 54.390625 
z
" id="DejaVuSans-38"/>
      </defs>
      <g transform="translate(366.682846 317.076875)scale(0.2 -0.2)">
       <use xlink:href="#DejaVuSans-38"/>
      </g>
     </g>
    </g>
    <g id="text_6">
     <!-- log10(# f-evals / dimension) -->
     <defs>
      <path d="M 9.421875 75.984375 
L 18.40625 75.984375 
L 18.40625 0 
L 9.421875 0 
z
" id="DejaVuSans-6c"/>
      <path d="M 30.609375 48.390625 
Q 23.390625 48.390625 19.1875 42.75 
Q 14.984375 37.109375 14.984375 27.296875 
Q 14.984375 17.484375 19.15625 11.84375 
Q 23.34375 6.203125 30.609375 6.203125 
Q 37.796875 6.203125 41.984375 11.859375 
Q 46.1875 17.53125 46.1875 27.296875 
Q 46.1875 37.015625 41.984375 42.703125 
Q 37.796875 48.390625 30.609375 48.390625 
z
M 30.609375 56 
Q 42.328125 56 49.015625 48.375 
Q 55.71875 40.765625 55.71875 27.296875 
Q 55.71875 13.875 49.015625 6.21875 
Q 42.328125 -1.421875 30.609375 -1.421875 
Q 18.84375 -1.421875 12.171875 6.21875 
Q 5.515625 13.875 5.515625 27.296875 
Q 5.515625 40.765625 12.171875 48.375 
Q 18.84375 56 30.609375 56 
z
" id="DejaVuSans-6f"/>
      <path d="M 45.40625 27.984375 
Q 45.40625 37.75 41.375 43.109375 
Q 37.359375 48.484375 30.078125 48.484375 
Q 22.859375 48.484375 18.828125 43.109375 
Q 14.796875 37.75 14.796875 27.984375 
Q 14.796875 18.265625 18.828125 12.890625 
Q 22.859375 7.515625 30.078125 7.515625 
Q 37.359375 7.515625 41.375 12.890625 
Q 45.40625 18.265625 45.40625 27.984375 
z
M 54.390625 6.78125 
Q 54.390625 -7.171875 48.1875 -13.984375 
Q 42 -20.796875 29.203125 -20.796875 
Q 24.46875 -20.796875 20.265625 -20.09375 
Q 16.0625 -19.390625 12.109375 -17.921875 
L 12.109375 -9.1875 
Q 16.0625 -11.328125 19.921875 -12.34375 
Q 23.78125 -13.375 27.78125 -13.375 
Q 36.625 -13.375 41.015625 -8.765625 
Q 45.40625 -4.15625 45.40625 5.171875 
L 45.40625 9.625 
Q 42.625 4.78125 38.28125 2.390625 
Q 33.9375 0 27.875 0 
Q 17.828125 0 11.671875 7.65625 
Q 5.515625 15.328125 5.515625 27.984375 
Q 5.515625 40.671875 11.671875 48.328125 
Q 17.828125 56 27.875 56 
Q 33.9375 56 38.28125 53.609375 
Q 42.625 51.21875 45.40625 46.390625 
L 45.40625 54.6875 
L 54.390625 54.6875 
z
" id="DejaVuSans-67"/>
      <path d="M 12.40625 8.296875 
L 28.515625 8.296875 
L 28.515625 63.921875 
L 10.984375 60.40625 
L 10.984375 69.390625 
L 28.421875 72.90625 
L 38.28125 72.90625 
L 38.28125 8.296875 
L 54.390625 8.296875 
L 54.390625 0 
L 12.40625 0 
z
" id="DejaVuSans-31"/>
      <path d="M 31 75.875 
Q 24.46875 64.65625 21.28125 53.65625 
Q 18.109375 42.671875 18.109375 31.390625 
Q 18.109375 20.125 21.3125 9.0625 
Q 24.515625 -2 31 -13.1875 
L 23.1875 -13.1875 
Q 15.875 -1.703125 12.234375 9.375 
Q 8.59375 20.453125 8.59375 31.390625 
Q 8.59375 42.28125 12.203125 53.3125 
Q 15.828125 64.359375 23.1875 75.875 
z
" id="DejaVuSans-28"/>
      <path d="M 51.125 44 
L 36.921875 44 
L 32.8125 27.6875 
L 47.125 27.6875 
z
M 43.796875 71.78125 
L 38.71875 51.515625 
L 52.984375 51.515625 
L 58.109375 71.78125 
L 65.921875 71.78125 
L 60.890625 51.515625 
L 76.125 51.515625 
L 76.125 44 
L 58.984375 44 
L 54.984375 27.6875 
L 70.515625 27.6875 
L 70.515625 20.21875 
L 53.078125 20.21875 
L 48 0 
L 40.1875 0 
L 45.21875 20.21875 
L 30.90625 20.21875 
L 25.875 0 
L 18.015625 0 
L 23.09375 20.21875 
L 7.71875 20.21875 
L 7.71875 27.6875 
L 24.90625 27.6875 
L 29 44 
L 13.28125 44 
L 13.28125 51.515625 
L 30.90625 51.515625 
L 35.890625 71.78125 
z
" id="DejaVuSans-23"/>
      <path id="DejaVuSans-20"/>
      <path d="M 37.109375 75.984375 
L 37.109375 68.5 
L 28.515625 68.5 
Q 23.6875 68.5 21.796875 66.546875 
Q 19.921875 64.59375 19.921875 59.515625 
L 19.921875 54.6875 
L 34.71875 54.6875 
L 34.71875 47.703125 
L 19.921875 47.703125 
L 19.921875 0 
L 10.890625 0 
L 10.890625 47.703125 
L 2.296875 47.703125 
L 2.296875 54.6875 
L 10.890625 54.6875 
L 10.890625 58.5 
Q 10.890625 67.625 15.140625 71.796875 
Q 19.390625 75.984375 28.609375 75.984375 
z
" id="DejaVuSans-66"/>
      <path d="M 4.890625 31.390625 
L 31.203125 31.390625 
L 31.203125 23.390625 
L 4.890625 23.390625 
z
" id="DejaVuSans-2d"/>
      <path d="M 56.203125 29.59375 
L 56.203125 25.203125 
L 14.890625 25.203125 
Q 15.484375 15.921875 20.484375 11.0625 
Q 25.484375 6.203125 34.421875 6.203125 
Q 39.59375 6.203125 44.453125 7.46875 
Q 49.3125 8.734375 54.109375 11.28125 
L 54.109375 2.78125 
Q 49.265625 0.734375 44.1875 -0.34375 
Q 39.109375 -1.421875 33.890625 -1.421875 
Q 20.796875 -1.421875 13.15625 6.1875 
Q 5.515625 13.8125 5.515625 26.8125 
Q 5.515625 40.234375 12.765625 48.109375 
Q 20.015625 56 32.328125 56 
Q 43.359375 56 49.78125 48.890625 
Q 56.203125 41.796875 56.203125 29.59375 
z
M 47.21875 32.234375 
Q 47.125 39.59375 43.09375 43.984375 
Q 39.0625 48.390625 32.421875 48.390625 
Q 24.90625 48.390625 20.390625 44.140625 
Q 15.875 39.890625 15.1875 32.171875 
z
" id="DejaVuSans-65"/>
      <path d="M 2.984375 54.6875 
L 12.5 54.6875 
L 29.59375 8.796875 
L 46.6875 54.6875 
L 56.203125 54.6875 
L 35.6875 0 
L 23.484375 0 
z
" id="DejaVuSans-76"/>
      <path d="M 34.28125 27.484375 
Q 23.390625 27.484375 19.1875 25 
Q 14.984375 22.515625 14.984375 16.5 
Q 14.984375 11.71875 18.140625 8.90625 
Q 21.296875 6.109375 26.703125 6.109375 
Q 34.1875 6.109375 38.703125 11.40625 
Q 43.21875 16.703125 43.21875 25.484375 
L 43.21875 27.484375 
z
M 52.203125 31.203125 
L 52.203125 0 
L 43.21875 0 
L 43.21875 8.296875 
Q 40.140625 3.328125 35.546875 0.953125 
Q 30.953125 -1.421875 24.3125 -1.421875 
Q 15.921875 -1.421875 10.953125 3.296875 
Q 6 8.015625 6 15.921875 
Q 6 25.140625 12.171875 29.828125 
Q 18.359375 34.515625 30.609375 34.515625 
L 43.21875 34.515625 
L 43.21875 35.40625 
Q 43.21875 41.609375 39.140625 45 
Q 35.0625 48.390625 27.6875 48.390625 
Q 23 48.390625 18.546875 47.265625 
Q 14.109375 46.140625 10.015625 43.890625 
L 10.015625 52.203125 
Q 14.9375 54.109375 19.578125 55.046875 
Q 24.21875 56 28.609375 56 
Q 40.484375 56 46.34375 49.84375 
Q 52.203125 43.703125 52.203125 31.203125 
z
" id="DejaVuSans-61"/>
      <path d="M 44.28125 53.078125 
L 44.28125 44.578125 
Q 40.484375 46.53125 36.375 47.5 
Q 32.28125 48.484375 27.875 48.484375 
Q 21.1875 48.484375 17.84375 46.4375 
Q 14.5 44.390625 14.5 40.28125 
Q 14.5 37.15625 16.890625 35.375 
Q 19.28125 33.59375 26.515625 31.984375 
L 29.59375 31.296875 
Q 39.15625 29.25 43.1875 25.515625 
Q 47.21875 21.78125 47.21875 15.09375 
Q 47.21875 7.46875 41.1875 3.015625 
Q 35.15625 -1.421875 24.609375 -1.421875 
Q 20.21875 -1.421875 15.453125 -0.5625 
Q 10.6875 0.296875 5.421875 2 
L 5.421875 11.28125 
Q 10.40625 8.6875 15.234375 7.390625 
Q 20.0625 6.109375 24.8125 6.109375 
Q 31.15625 6.109375 34.5625 8.28125 
Q 37.984375 10.453125 37.984375 14.40625 
Q 37.984375 18.0625 35.515625 20.015625 
Q 33.0625 21.96875 24.703125 23.78125 
L 21.578125 24.515625 
Q 13.234375 26.265625 9.515625 29.90625 
Q 5.8125 33.546875 5.8125 39.890625 
Q 5.8125 47.609375 11.28125 51.796875 
Q 16.75 56 26.8125 56 
Q 31.78125 56 36.171875 55.265625 
Q 40.578125 54.546875 44.28125 53.078125 
z
" id="DejaVuSans-73"/>
      <path d="M 25.390625 72.90625 
L 33.6875 72.90625 
L 8.296875 -9.28125 
L 0 -9.28125 
z
" id="DejaVuSans-2f"/>
      <path d="M 45.40625 46.390625 
L 45.40625 75.984375 
L 54.390625 75.984375 
L 54.390625 0 
L 45.40625 0 
L 45.40625 8.203125 
Q 42.578125 3.328125 38.25 0.953125 
Q 33.9375 -1.421875 27.875 -1.421875 
Q 17.96875 -1.421875 11.734375 6.484375 
Q 5.515625 14.40625 5.515625 27.296875 
Q 5.515625 40.1875 11.734375 48.09375 
Q 17.96875 56 27.875 56 
Q 33.9375 56 38.25 53.625 
Q 42.578125 51.265625 45.40625 46.390625 
z
M 14.796875 27.296875 
Q 14.796875 17.390625 18.875 11.75 
Q 22.953125 6.109375 30.078125 6.109375 
Q 37.203125 6.109375 41.296875 11.75 
Q 45.40625 17.390625 45.40625 27.296875 
Q 45.40625 37.203125 41.296875 42.84375 
Q 37.203125 48.484375 30.078125 48.484375 
Q 22.953125 48.484375 18.875 42.84375 
Q 14.796875 37.203125 14.796875 27.296875 
z
" id="DejaVuSans-64"/>
      <path d="M 9.421875 54.6875 
L 18.40625 54.6875 
L 18.40625 0 
L 9.421875 0 
z
M 9.421875 75.984375 
L 18.40625 75.984375 
L 18.40625 64.59375 
L 9.421875 64.59375 
z
" id="DejaVuSans-69"/>
      <path d="M 52 44.1875 
Q 55.375 50.25 60.0625 53.125 
Q 64.75 56 71.09375 56 
Q 79.640625 56 84.28125 50.015625 
Q 88.921875 44.046875 88.921875 33.015625 
L 88.921875 0 
L 79.890625 0 
L 79.890625 32.71875 
Q 79.890625 40.578125 77.09375 44.375 
Q 74.3125 48.1875 68.609375 48.1875 
Q 61.625 48.1875 57.5625 43.546875 
Q 53.515625 38.921875 53.515625 30.90625 
L 53.515625 0 
L 44.484375 0 
L 44.484375 32.71875 
Q 44.484375 40.625 41.703125 44.40625 
Q 38.921875 48.1875 33.109375 48.1875 
Q 26.21875 48.1875 22.15625 43.53125 
Q 18.109375 38.875 18.109375 30.90625 
L 18.109375 0 
L 9.078125 0 
L 9.078125 54.6875 
L 18.109375 54.6875 
L 18.109375 46.1875 
Q 21.1875 51.21875 25.484375 53.609375 
Q 29.78125 56 35.6875 56 
Q 41.65625 56 45.828125 52.96875 
Q 50 49.953125 52 44.1875 
z
" id="DejaVuSans-6d"/>
      <path d="M 54.890625 33.015625 
L 54.890625 0 
L 45.90625 0 
L 45.90625 32.71875 
Q 45.90625 40.484375 42.875 44.328125 
Q 39.84375 48.1875 33.796875 48.1875 
Q 26.515625 48.1875 22.3125 43.546875 
Q 18.109375 38.921875 18.109375 30.90625 
L 18.109375 0 
L 9.078125 0 
L 9.078125 54.6875 
L 18.109375 54.6875 
L 18.109375 46.1875 
Q 21.34375 51.125 25.703125 53.5625 
Q 30.078125 56 35.796875 56 
Q 45.21875 56 50.046875 50.171875 
Q 54.890625 44.34375 54.890625 33.015625 
z
" id="DejaVuSans-6e"/>
      <path d="M 8.015625 75.875 
L 15.828125 75.875 
Q 23.140625 64.359375 26.78125 53.3125 
Q 30.421875 42.28125 30.421875 31.390625 
Q 30.421875 20.453125 26.78125 9.375 
Q 23.140625 -1.703125 15.828125 -13.1875 
L 8.015625 -13.1875 
Q 14.5 -2 17.703125 9.0625 
Q 20.90625 20.125 20.90625 31.390625 
Q 20.90625 42.671875 17.703125 53.65625 
Q 14.5 64.65625 8.015625 75.875 
z
" id="DejaVuSans-29"/>
     </defs>
     <g transform="translate(107.211219 338.153594)scale(0.17 -0.17)">
      <use xlink:href="#DejaVuSans-6c"/>
      <use x="27.783203" xlink:href="#DejaVuSans-6f"/>
      <use x="88.964844" xlink:href="#DejaVuSans-67"/>
      <use x="152.441406" xlink:href="#DejaVuSans-31"/>
      <use x="216.064453" xlink:href="#DejaVuSans-30"/>
      <use x="279.6875" xlink:href="#DejaVuSans-28"/>
      <use x="318.701172" xlink:href="#DejaVuSans-23"/>
      <use x="402.490234" xlink:href="#DejaVuSans-20"/>
      <use x="434.277344" xlink:href="#DejaVuSans-66"/>
      <use x="469.404297" xlink:href="#DejaVuSans-2d"/>
      <use x="505.488281" xlink:href="#DejaVuSans-65"/>
      <use x="567.011719" xlink:href="#DejaVuSans-76"/>
      <use x="626.191406" xlink:href="#DejaVuSans-61"/>
      <use x="687.470703" xlink:href="#DejaVuSans-6c"/>
      <use x="715.253906" xlink:href="#DejaVuSans-73"/>
      <use x="767.353516" xlink:href="#DejaVuSans-20"/>
      <use x="799.140625" xlink:href="#DejaVuSans-2f"/>
      <use x="832.832031" xlink:href="#DejaVuSans-20"/>
      <use x="864.619141" xlink:href="#DejaVuSans-64"/>
      <use x="928.095703" xlink:href="#DejaVuSans-69"/>
      <use x="955.878906" xlink:href="#DejaVuSans-6d"/>
      <use x="1053.291016" xlink:href="#DejaVuSans-65"/>
      <use x="1114.814453" xlink:href="#DejaVuSans-6e"/>
      <use x="1178.193359" xlink:href="#DejaVuSans-73"/>
      <use x="1230.292969" xlink:href="#DejaVuSans-69"/>
      <use x="1258.076172" xlink:href="#DejaVuSans-6f"/>
      <use x="1319.257812" xlink:href="#DejaVuSans-6e"/>
      <use x="1382.636719" xlink:href="#DejaVuSans-29"/>
     </g>
    </g>
   </g>
   <g id="matplotlib.axis_2">
    <g id="ytick_1">
     <g id="line2d_14">
      <path clip-path="url(#p6c11e868eb)" d="M 56.12 294.88 
L 399.984 294.88 
" style="fill:none;stroke:#b0b0b0;stroke-linecap:square;stroke-width:0.8;"/>
     </g>
     <g id="line2d_15">
      <defs>
       <path d="M 0 0 
L -3.5 0 
" id="m986bd54ef7" style="stroke:#000000;stroke-width:0.8;"/>
      </defs>
      <g>
       <use style="stroke:#000000;stroke-width:0.8;" x="56.12" xlink:href="#m986bd54ef7" y="294.88"/>
      </g>
     </g>
     <g id="text_7">
      <!-- 0.0 -->
      <defs>
       <path d="M 10.6875 12.40625 
L 21 12.40625 
L 21 0 
L 10.6875 0 
z
" id="DejaVuSans-2e"/>
      </defs>
      <g transform="translate(23.675 300.95875)scale(0.16 -0.16)">
       <use xlink:href="#DejaVuSans-30"/>
       <use x="63.623047" xlink:href="#DejaVuSans-2e"/>
       <use x="95.410156" xlink:href="#DejaVuSans-30"/>
      </g>
     </g>
    </g>
    <g id="ytick_2">
     <g id="line2d_16">
      <path clip-path="url(#p6c11e868eb)" d="M 56.12 241.406733 
L 399.984 241.406733 
" style="fill:none;stroke:#b0b0b0;stroke-linecap:square;stroke-width:0.8;"/>
     </g>
     <g id="line2d_17">
      <g>
       <use style="stroke:#000000;stroke-width:0.8;" x="56.12" xlink:href="#m986bd54ef7" y="241.406733"/>
      </g>
     </g>
     <g id="text_8">
      <!-- 0.2 -->
      <g transform="translate(23.675 247.485483)scale(0.16 -0.16)">
       <use xlink:href="#DejaVuSans-30"/>
       <use x="63.623047" xlink:href="#DejaVuSans-2e"/>
       <use x="95.410156" xlink:href="#DejaVuSans-32"/>
      </g>
     </g>
    </g>
    <g id="ytick_3">
     <g id="line2d_18">
      <path clip-path="url(#p6c11e868eb)" d="M 56.12 187.933465 
L 399.984 187.933465 
" style="fill:none;stroke:#b0b0b0;stroke-linecap:square;stroke-width:0.8;"/>
     </g>
     <g id="line2d_19">
      <g>
       <use style="stroke:#000000;stroke-width:0.8;" x="56.12" xlink:href="#m986bd54ef7" y="187.933465"/>
      </g>
     </g>
     <g id="text_9">
      <!-- 0.4 -->
      <g transform="translate(23.675 194.012215)scale(0.16 -0.16)">
       <use xlink:href="#DejaVuSans-30"/>
       <use x="63.623047" xlink:href="#DejaVuSans-2e"/>
       <use x="95.410156" xlink:href="#DejaVuSans-34"/>
      </g>
     </g>
    </g>
    <g id="ytick_4">
     <g id="line2d_20">
      <path clip-path="url(#p6c11e868eb)" d="M 56.12 134.460198 
L 399.984 134.460198 
" style="fill:none;stroke:#b0b0b0;stroke-linecap:square;stroke-width:0.8;"/>
     </g>
     <g id="line2d_21">
      <g>
       <use style="stroke:#000000;stroke-width:0.8;" x="56.12" xlink:href="#m986bd54ef7" y="134.460198"/>
      </g>
     </g>
     <g id="text_10">
      <!-- 0.6 -->
      <g transform="translate(23.675 140.538948)scale(0.16 -0.16)">
       <use xlink:href="#DejaVuSans-30"/>
       <use x="63.623047" xlink:href="#DejaVuSans-2e"/>
       <use x="95.410156" xlink:href="#DejaVuSans-36"/>
      </g>
     </g>
    </g>
    <g id="ytick_5">
     <g id="line2d_22">
      <path clip-path="url(#p6c11e868eb)" d="M 56.12 80.986931 
L 399.984 80.986931 
" style="fill:none;stroke:#b0b0b0;stroke-linecap:square;stroke-width:0.8;"/>
     </g>
     <g id="line2d_23">
      <g>
       <use style="stroke:#000000;stroke-width:0.8;" x="56.12" xlink:href="#m986bd54ef7" y="80.986931"/>
      </g>
     </g>
     <g id="text_11">
      <!-- 0.8 -->
      <g transform="translate(23.675 87.065681)scale(0.16 -0.16)">
       <use xlink:href="#DejaVuSans-30"/>
       <use x="63.623047" xlink:href="#DejaVuSans-2e"/>
       <use x="95.410156" xlink:href="#DejaVuSans-38"/>
      </g>
     </g>
    </g>
    <g id="ytick_6">
     <g id="line2d_24">
      <path clip-path="url(#p6c11e868eb)" d="M 56.12 27.513663 
L 399.984 27.513663 
" style="fill:none;stroke:#b0b0b0;stroke-linecap:square;stroke-width:0.8;"/>
     </g>
     <g id="line2d_25">
      <g>
       <use style="stroke:#000000;stroke-width:0.8;" x="56.12" xlink:href="#m986bd54ef7" y="27.513663"/>
      </g>
     </g>
     <g id="text_12">
      <!-- 1.0 -->
      <g transform="translate(23.675 33.592413)scale(0.16 -0.16)">
       <use xlink:href="#DejaVuSans-31"/>
       <use x="63.623047" xlink:href="#DejaVuSans-2e"/>
       <use x="95.410156" xlink:href="#DejaVuSans-30"/>
      </g>
     </g>
    </g>
    <g id="text_13">
     <!-- Fraction of function,target pairs -->
     <defs>
      <path d="M 9.8125 72.90625 
L 51.703125 72.90625 
L 51.703125 64.59375 
L 19.671875 64.59375 
L 19.671875 43.109375 
L 48.578125 43.109375 
L 48.578125 34.8125 
L 19.671875 34.8125 
L 19.671875 0 
L 9.8125 0 
z
" id="DejaVuSans-46"/>
      <path d="M 41.109375 46.296875 
Q 39.59375 47.171875 37.8125 47.578125 
Q 36.03125 48 33.890625 48 
Q 26.265625 48 22.1875 43.046875 
Q 18.109375 38.09375 18.109375 28.8125 
L 18.109375 0 
L 9.078125 0 
L 9.078125 54.6875 
L 18.109375 54.6875 
L 18.109375 46.1875 
Q 20.953125 51.171875 25.484375 53.578125 
Q 30.03125 56 36.53125 56 
Q 37.453125 56 38.578125 55.875 
Q 39.703125 55.765625 41.0625 55.515625 
z
" id="DejaVuSans-72"/>
      <path d="M 48.78125 52.59375 
L 48.78125 44.1875 
Q 44.96875 46.296875 41.140625 47.34375 
Q 37.3125 48.390625 33.40625 48.390625 
Q 24.65625 48.390625 19.8125 42.84375 
Q 14.984375 37.3125 14.984375 27.296875 
Q 14.984375 17.28125 19.8125 11.734375 
Q 24.65625 6.203125 33.40625 6.203125 
Q 37.3125 6.203125 41.140625 7.25 
Q 44.96875 8.296875 48.78125 10.40625 
L 48.78125 2.09375 
Q 45.015625 0.34375 40.984375 -0.53125 
Q 36.96875 -1.421875 32.421875 -1.421875 
Q 20.0625 -1.421875 12.78125 6.34375 
Q 5.515625 14.109375 5.515625 27.296875 
Q 5.515625 40.671875 12.859375 48.328125 
Q 20.21875 56 33.015625 56 
Q 37.15625 56 41.109375 55.140625 
Q 45.0625 54.296875 48.78125 52.59375 
z
" id="DejaVuSans-63"/>
      <path d="M 18.3125 70.21875 
L 18.3125 54.6875 
L 36.8125 54.6875 
L 36.8125 47.703125 
L 18.3125 47.703125 
L 18.3125 18.015625 
Q 18.3125 11.328125 20.140625 9.421875 
Q 21.96875 7.515625 27.59375 7.515625 
L 36.8125 7.515625 
L 36.8125 0 
L 27.59375 0 
Q 17.1875 0 13.234375 3.875 
Q 9.28125 7.765625 9.28125 18.015625 
L 9.28125 47.703125 
L 2.6875 47.703125 
L 2.6875 54.6875 
L 9.28125 54.6875 
L 9.28125 70.21875 
z
" id="DejaVuSans-74"/>
      <path d="M 8.5 21.578125 
L 8.5 54.6875 
L 17.484375 54.6875 
L 17.484375 21.921875 
Q 17.484375 14.15625 20.5 10.265625 
Q 23.53125 6.390625 29.59375 6.390625 
Q 36.859375 6.390625 41.078125 11.03125 
Q 45.3125 15.671875 45.3125 23.6875 
L 45.3125 54.6875 
L 54.296875 54.6875 
L 54.296875 0 
L 45.3125 0 
L 45.3125 8.40625 
Q 42.046875 3.421875 37.71875 1 
Q 33.40625 -1.421875 27.6875 -1.421875 
Q 18.265625 -1.421875 13.375 4.4375 
Q 8.5 10.296875 8.5 21.578125 
z
M 31.109375 56 
z
" id="DejaVuSans-75"/>
      <path d="M 11.71875 12.40625 
L 22.015625 12.40625 
L 22.015625 4 
L 14.015625 -11.625 
L 7.71875 -11.625 
L 11.71875 4 
z
" id="DejaVuSans-2c"/>
      <path d="M 18.109375 8.203125 
L 18.109375 -20.796875 
L 9.078125 -20.796875 
L 9.078125 54.6875 
L 18.109375 54.6875 
L 18.109375 46.390625 
Q 20.953125 51.265625 25.265625 53.625 
Q 29.59375 56 35.59375 56 
Q 45.5625 56 51.78125 48.09375 
Q 58.015625 40.1875 58.015625 27.296875 
Q 58.015625 14.40625 51.78125 6.484375 
Q 45.5625 -1.421875 35.59375 -1.421875 
Q 29.59375 -1.421875 25.265625 0.953125 
Q 20.953125 3.328125 18.109375 8.203125 
z
M 48.6875 27.296875 
Q 48.6875 37.203125 44.609375 42.84375 
Q 40.53125 48.484375 33.40625 48.484375 
Q 26.265625 48.484375 22.1875 42.84375 
Q 18.109375 37.203125 18.109375 27.296875 
Q 18.109375 17.390625 22.1875 11.75 
Q 26.265625 6.109375 33.40625 6.109375 
Q 40.53125 6.109375 44.609375 11.75 
Q 48.6875 17.390625 48.6875 27.296875 
z
" id="DejaVuSans-70"/>
     </defs>
     <g transform="translate(16.139531 294.999375)rotate(-90)scale(0.17 -0.17)">
      <use xlink:href="#DejaVuSans-46"/>
      <use x="57.410156" xlink:href="#DejaVuSans-72"/>
      <use x="98.523438" xlink:href="#DejaVuSans-61"/>
      <use x="159.802734" xlink:href="#DejaVuSans-63"/>
      <use x="214.783203" xlink:href="#DejaVuSans-74"/>
      <use x="253.992188" xlink:href="#DejaVuSans-69"/>
      <use x="281.775391" xlink:href="#DejaVuSans-6f"/>
      <use x="342.957031" xlink:href="#DejaVuSans-6e"/>
      <use x="406.335938" xlink:href="#DejaVuSans-20"/>
      <use x="438.123047" xlink:href="#DejaVuSans-6f"/>
      <use x="499.304688" xlink:href="#DejaVuSans-66"/>
      <use x="534.509766" xlink:href="#DejaVuSans-20"/>
      <use x="566.296875" xlink:href="#DejaVuSans-66"/>
      <use x="601.501953" xlink:href="#DejaVuSans-75"/>
      <use x="664.880859" xlink:href="#DejaVuSans-6e"/>
      <use x="728.259766" xlink:href="#DejaVuSans-63"/>
      <use x="783.240234" xlink:href="#DejaVuSans-74"/>
      <use x="822.449219" xlink:href="#DejaVuSans-69"/>
      <use x="850.232422" xlink:href="#DejaVuSans-6f"/>
      <use x="911.414062" xlink:href="#DejaVuSans-6e"/>
      <use x="974.792969" xlink:href="#DejaVuSans-2c"/>
      <use x="1006.580078" xlink:href="#DejaVuSans-74"/>
      <use x="1045.789062" xlink:href="#DejaVuSans-61"/>
      <use x="1107.068359" xlink:href="#DejaVuSans-72"/>
      <use x="1148.166016" xlink:href="#DejaVuSans-67"/>
      <use x="1211.642578" xlink:href="#DejaVuSans-65"/>
      <use x="1273.166016" xlink:href="#DejaVuSans-74"/>
      <use x="1312.375" xlink:href="#DejaVuSans-20"/>
      <use x="1344.162109" xlink:href="#DejaVuSans-70"/>
      <use x="1407.638672" xlink:href="#DejaVuSans-61"/>
      <use x="1468.917969" xlink:href="#DejaVuSans-69"/>
      <use x="1496.701172" xlink:href="#DejaVuSans-72"/>
      <use x="1537.814453" xlink:href="#DejaVuSans-73"/>
     </g>
    </g>
   </g>
   <g id="line2d_26">
    <defs>
     <path d="M 0 1.5 
C 0.397805 1.5 0.77937 1.341951 1.06066 1.06066 
C 1.341951 0.77937 1.5 0.397805 1.5 0 
C 1.5 -0.397805 1.341951 -0.77937 1.06066 -1.06066 
C 0.77937 -1.341951 0.397805 -1.5 0 -1.5 
C -0.397805 -1.5 -0.77937 -1.341951 -1.06066 -1.06066 
C -1.341951 -0.77937 -1.5 -0.397805 -1.5 0 
C -1.5 0.397805 -1.341951 0.77937 -1.06066 1.06066 
C -0.77937 1.341951 -0.397805 1.5 0 1.5 
z
" id="m6e749a468e" style="stroke:#f5deb3;"/>
    </defs>
    <g>
     <use style="fill:#f5deb3;stroke:#f5deb3;" x="292.178667" xlink:href="#m6e749a468e" y="184.245654"/>
     <use style="fill:#f5deb3;stroke:#f5deb3;" x="292.178667" xlink:href="#m6e749a468e" y="184.245654"/>
    </g>
   </g>
   <g id="line2d_27">
    <g>
     <use style="fill:#f5deb3;stroke:#f5deb3;stroke-linejoin:miter;stroke-width:1.5;" x="133.968118" xlink:href="#m98e1e0d3da" y="281.050707"/>
     <use style="fill:#f5deb3;stroke:#f5deb3;stroke-linejoin:miter;stroke-width:1.5;" x="230.478261" xlink:href="#m98e1e0d3da" y="271.831178"/>
     <use style="fill:#f5deb3;stroke:#f5deb3;stroke-linejoin:miter;stroke-width:1.5;" x="254.390675" xlink:href="#m98e1e0d3da" y="230.343298"/>
     <use style="fill:#f5deb3;stroke:#f5deb3;stroke-linejoin:miter;stroke-width:1.5;" x="292.178667" xlink:href="#m98e1e0d3da" y="188.855418"/>
     <use style="fill:#f5deb3;stroke:#f5deb3;stroke-linejoin:miter;stroke-width:1.5;" x="292.178667" xlink:href="#m98e1e0d3da" y="184.245654"/>
     <use style="fill:#f5deb3;stroke:#f5deb3;stroke-linejoin:miter;stroke-width:1.5;" x="333.429677" xlink:href="#m98e1e0d3da" y="184.245654"/>
    </g>
   </g>
   <g id="line2d_28">
    <defs>
     <path d="M 0 1.5 
C 0.397805 1.5 0.77937 1.341951 1.06066 1.06066 
C 1.341951 0.77937 1.5 0.397805 1.5 0 
C 1.5 -0.397805 1.341951 -0.77937 1.06066 -1.06066 
C 0.77937 -1.341951 0.397805 -1.5 0 -1.5 
C -0.397805 -1.5 -0.77937 -1.341951 -1.06066 -1.06066 
C -1.341951 -0.77937 -1.5 -0.397805 -1.5 0 
C -1.5 0.397805 -1.341951 0.77937 -1.06066 1.06066 
C -0.77937 1.341951 -0.397805 1.5 0 1.5 
z
" id="m58f7a643cd" style="stroke:#adff2f;"/>
    </defs>
    <g>
     <use style="fill:#adff2f;stroke:#adff2f;" x="312.257323" xlink:href="#m58f7a643cd" y="262.611649"/>
     <use style="fill:#adff2f;stroke:#adff2f;" x="312.257323" xlink:href="#m58f7a643cd" y="262.611649"/>
    </g>
   </g>
   <g id="line2d_29">
    <path d="M -1 275.058013 
L 118.25698 275.058013 
L 118.25698 274.597037 
L 121.613118 274.597037 
L 121.613118 274.13606 
L 129.159401 274.13606 
L 129.159401 273.675084 
L 199.879967 273.675084 
L 199.879967 273.214107 
L 200.226838 273.214107 
L 200.226838 272.753131 
L 202.796052 272.753131 
L 202.796052 272.292154 
L 212.120559 272.292154 
L 212.120559 271.831178 
L 216.241504 271.831178 
L 216.241504 271.370201 
L 227.39996 271.370201 
L 227.39996 270.448249 
L 254.198978 270.448249 
L 254.198978 268.143366 
L 255.628897 268.143366 
L 255.628897 267.68239 
L 255.996286 267.68239 
L 255.996286 267.221413 
L 266.12448 267.221413 
L 266.12448 266.760437 
L 266.854276 266.760437 
L 266.854276 266.299461 
L 267.847215 266.299461 
L 267.847215 265.838484 
L 285.619441 265.838484 
L 285.619441 265.377508 
L 288.188105 265.377508 
L 288.188105 264.916531 
L 292.399892 264.916531 
L 292.399892 264.455555 
L 299.860482 264.455555 
L 299.860482 263.994578 
L 301.030443 263.994578 
L 301.030443 263.533602 
L 302.125891 263.533602 
L 302.125891 263.072625 
L 312.257323 263.072625 
L 312.257323 262.611649 
L 333.429677 262.611649 
" style="fill:none;stroke:#adff2f;stroke-linecap:square;stroke-width:1.5;"/>
   </g>
   <g id="line2d_30">
    <defs>
     <path d="M 0 0 
L -6 -0 
M 0 0 
L 3 4.8 
M 0 0 
L 3 -4.8 
" id="mf9918e76f8" style="stroke:#adff2f;stroke-width:1.5;"/>
    </defs>
    <g>
     <use style="fill:none;stroke:#adff2f;stroke-width:1.5;" x="129.159401" xlink:href="#mf9918e76f8" y="274.13606"/>
     <use style="fill:none;stroke:#adff2f;stroke-width:1.5;" x="266.854276" xlink:href="#mf9918e76f8" y="266.760437"/>
     <use style="fill:none;stroke:#adff2f;stroke-width:1.5;" x="312.257323" xlink:href="#mf9918e76f8" y="262.611649"/>
     <use style="fill:none;stroke:#adff2f;stroke-width:1.5;" x="312.257323" xlink:href="#mf9918e76f8" y="262.611649"/>
     <use style="fill:none;stroke:#adff2f;stroke-width:1.5;" x="333.429677" xlink:href="#mf9918e76f8" y="262.611649"/>
    </g>
   </g>
   <g id="line2d_31">
    <path d="M 0 0 
" style="fill:none;stroke:#adff2f;stroke-linecap:square;stroke-width:1.5;"/>
    <g>
     <use style="fill:none;stroke:#adff2f;stroke-width:1.5;" x="0" xlink:href="#mf9918e76f8" y="0"/>
    </g>
   </g>
   <g id="line2d_32">
    <path clip-path="url(#p6c11e868eb)" d="M 254.19896 270.448249 
" style="fill:none;stroke:#adff2f;stroke-linecap:square;stroke-width:1.5;"/>
    <defs>
     <path d="M -12 12 
L 12 -12 
M -12 -12 
L 12 12 
" id="ma581963898" style="stroke:#adff2f;stroke-width:3;"/>
    </defs>
    <g clip-path="url(#p6c11e868eb)">
     <use style="fill:#adff2f;stroke:#adff2f;stroke-width:3;" x="254.19896" xlink:href="#ma581963898" y="270.448249"/>
    </g>
   </g>
   <g id="line2d_33">
    <path clip-path="url(#p6c11e868eb)" d="M 56.12 294.88 
L 56.12 294.88 
L 56.12 294.88 
L 56.12 294.88 
L 399.984 294.88 
" style="fill:none;stroke:#228b22;stroke-linecap:square;stroke-width:1.5;"/>
   </g>
   <g id="line2d_34">
    <defs>
     <path d="M 0 0 
L 0 6 
M 0 0 
L 4.8 -3 
M 0 0 
L -4.8 -3 
" id="m6aefb0bc0d" style="stroke:#228b22;stroke-width:1.5;"/>
    </defs>
    <g clip-path="url(#p6c11e868eb)">
     <use style="fill:none;stroke:#228b22;stroke-width:1.5;" x="56.12" xlink:href="#m6aefb0bc0d" y="294.88"/>
     <use style="fill:none;stroke:#228b22;stroke-width:1.5;" x="56.12" xlink:href="#m6aefb0bc0d" y="294.88"/>
     <use style="fill:none;stroke:#228b22;stroke-width:1.5;" x="56.12" xlink:href="#m6aefb0bc0d" y="294.88"/>
     <use style="fill:none;stroke:#228b22;stroke-width:1.5;" x="56.12" xlink:href="#m6aefb0bc0d" y="294.88"/>
     <use style="fill:none;stroke:#228b22;stroke-width:1.5;" x="95.735668" xlink:href="#m6aefb0bc0d" y="294.88"/>
     <use style="fill:none;stroke:#228b22;stroke-width:1.5;" x="95.735668" xlink:href="#m6aefb0bc0d" y="294.88"/>
     <use style="fill:none;stroke:#228b22;stroke-width:1.5;" x="135.351336" xlink:href="#m6aefb0bc0d" y="294.88"/>
     <use style="fill:none;stroke:#228b22;stroke-width:1.5;" x="135.351336" xlink:href="#m6aefb0bc0d" y="294.88"/>
     <use style="fill:none;stroke:#228b22;stroke-width:1.5;" x="174.967005" xlink:href="#m6aefb0bc0d" y="294.88"/>
     <use style="fill:none;stroke:#228b22;stroke-width:1.5;" x="174.967005" xlink:href="#m6aefb0bc0d" y="294.88"/>
     <use style="fill:none;stroke:#228b22;stroke-width:1.5;" x="214.582673" xlink:href="#m6aefb0bc0d" y="294.88"/>
     <use style="fill:none;stroke:#228b22;stroke-width:1.5;" x="214.582673" xlink:href="#m6aefb0bc0d" y="294.88"/>
     <use style="fill:none;stroke:#228b22;stroke-width:1.5;" x="254.198341" xlink:href="#m6aefb0bc0d" y="294.88"/>
     <use style="fill:none;stroke:#228b22;stroke-width:1.5;" x="254.198341" xlink:href="#m6aefb0bc0d" y="294.88"/>
     <use style="fill:none;stroke:#228b22;stroke-width:1.5;" x="293.814009" xlink:href="#m6aefb0bc0d" y="294.88"/>
     <use style="fill:none;stroke:#228b22;stroke-width:1.5;" x="293.814009" xlink:href="#m6aefb0bc0d" y="294.88"/>
     <use style="fill:none;stroke:#228b22;stroke-width:1.5;" x="333.429677" xlink:href="#m6aefb0bc0d" y="294.88"/>
     <use style="fill:none;stroke:#228b22;stroke-width:1.5;" x="333.429677" xlink:href="#m6aefb0bc0d" y="294.88"/>
     <use style="fill:none;stroke:#228b22;stroke-width:1.5;" x="373.045346" xlink:href="#m6aefb0bc0d" y="294.88"/>
    </g>
   </g>
   <g id="line2d_35">
    <path clip-path="url(#p6c11e868eb)" d="M 0 0 
" style="fill:none;stroke:#228b22;stroke-linecap:square;stroke-width:1.5;"/>
    <g clip-path="url(#p6c11e868eb)">
     <use style="fill:none;stroke:#228b22;stroke-width:1.5;" x="0" xlink:href="#m6aefb0bc0d" y="0"/>
    </g>
   </g>
   <g id="line2d_36">
    <defs>
     <path d="M 0 1.5 
C 0.397805 1.5 0.77937 1.341951 1.06066 1.06066 
C 1.341951 0.77937 1.5 0.397805 1.5 0 
C 1.5 -0.397805 1.341951 -0.77937 1.06066 -1.06066 
C 0.77937 -1.341951 0.397805 -1.5 0 -1.5 
C -0.397805 -1.5 -0.77937 -1.341951 -1.06066 -1.06066 
C -1.341951 -0.77937 -1.5 -0.397805 -1.5 0 
C -1.5 0.397805 -1.341951 0.77937 -1.06066 1.06066 
C -0.77937 1.341951 -0.397805 1.5 0 1.5 
z
" id="m96e5e39280" style="stroke:#ffc0cb;"/>
    </defs>
    <g>
     <use style="fill:#ffc0cb;stroke:#ffc0cb;" x="278.049351" xlink:href="#m96e5e39280" y="267.221413"/>
     <use style="fill:#ffc0cb;stroke:#ffc0cb;" x="278.049351" xlink:href="#m96e5e39280" y="267.221413"/>
    </g>
   </g>
   <g id="line2d_37">
    <path d="M -1 277.823872 
L 4.578827 277.823872 
L 4.578827 277.362895 
L 20.343487 277.362895 
L 20.343487 276.901919 
L 61.598954 276.901919 
L 61.598954 276.440942 
L 63.935401 276.440942 
L 63.935401 275.518989 
L 125.627252 275.518989 
L 125.627252 275.058013 
L 254.198345 275.058013 
L 254.198345 273.214107 
L 254.19835 273.214107 
L 254.19835 272.753131 
L 254.208115 272.753131 
L 254.208115 272.292154 
L 266.123848 272.292154 
L 266.123848 270.909225 
L 266.12385 270.909225 
L 266.12385 270.448249 
L 266.123964 270.448249 
L 266.123964 269.987272 
L 266.128733 269.987272 
L 266.128733 269.526296 
L 266.140511 269.526296 
L 266.140511 269.065319 
L 273.09982 269.065319 
L 273.09982 268.604343 
L 278.049351 268.604343 
L 278.049351 267.221413 
L 333.429677 267.221413 
" style="fill:none;stroke:#ffc0cb;stroke-linecap:square;stroke-width:1.5;"/>
   </g>
   <g id="line2d_38">
    <defs>
     <path d="M -0 8.485281 
L 8.485281 0 
L 0 -8.485281 
L -8.485281 -0 
z
" id="m29ef049efd" style="stroke:#ffc0cb;stroke-linejoin:miter;stroke-width:1.5;"/>
    </defs>
    <g>
     <use style="fill:none;stroke:#ffc0cb;stroke-linejoin:miter;stroke-width:1.5;" x="63.935401" xlink:href="#m29ef049efd" y="276.440942"/>
     <use style="fill:none;stroke:#ffc0cb;stroke-linejoin:miter;stroke-width:1.5;" x="125.627252" xlink:href="#m29ef049efd" y="275.518989"/>
     <use style="fill:none;stroke:#ffc0cb;stroke-linejoin:miter;stroke-width:1.5;" x="266.123848" xlink:href="#m29ef049efd" y="272.292154"/>
     <use style="fill:none;stroke:#ffc0cb;stroke-linejoin:miter;stroke-width:1.5;" x="278.049351" xlink:href="#m29ef049efd" y="267.221413"/>
     <use style="fill:none;stroke:#ffc0cb;stroke-linejoin:miter;stroke-width:1.5;" x="333.429677" xlink:href="#m29ef049efd" y="267.221413"/>
    </g>
   </g>
   <g id="line2d_39">
    <path d="M 0 0 
" style="fill:none;stroke:#ffc0cb;stroke-linecap:square;stroke-width:1.5;"/>
    <g>
     <use style="fill:none;stroke:#ffc0cb;stroke-linejoin:miter;stroke-width:1.5;" x="0" xlink:href="#m29ef049efd" y="0"/>
    </g>
   </g>
   <g id="line2d_40">
    <path clip-path="url(#p6c11e868eb)" d="M 254.198341 275.058013 
" style="fill:none;stroke:#ffc0cb;stroke-linecap:square;stroke-width:1.5;"/>
    <defs>
     <path d="M -12 12 
L 12 -12 
M -12 -12 
L 12 12 
" id="meadd94ad6b" style="stroke:#ffc0cb;stroke-width:3;"/>
    </defs>
    <g clip-path="url(#p6c11e868eb)">
     <use style="fill:#ffc0cb;stroke:#ffc0cb;stroke-width:3;" x="254.198341" xlink:href="#meadd94ad6b" y="275.058013"/>
    </g>
   </g>
   <g id="line2d_41">
    <defs>
     <path d="M 0 1.5 
C 0.397805 1.5 0.77937 1.341951 1.06066 1.06066 
C 1.341951 0.77937 1.5 0.397805 1.5 0 
C 1.5 -0.397805 1.341951 -0.77937 1.06066 -1.06066 
C 0.77937 -1.341951 0.397805 -1.5 0 -1.5 
C -0.397805 -1.5 -0.77937 -1.341951 -1.06066 -1.06066 
C -1.341951 -0.77937 -1.5 -0.397805 -1.5 0 
C -1.5 0.397805 -1.341951 0.77937 -1.06066 1.06066 
C -0.77937 1.341951 -0.397805 1.5 0 1.5 
z
" id="mfdeb591e88" style="stroke:#87ceeb;"/>
    </defs>
    <g>
     <use style="fill:#87ceeb;stroke:#87ceeb;" x="336.566495" xlink:href="#mfdeb591e88" y="267.221413"/>
     <use style="fill:#87ceeb;stroke:#87ceeb;" x="336.566495" xlink:href="#mfdeb591e88" y="267.221413"/>
    </g>
   </g>
   <g id="line2d_42">
    <path d="M -1 278.284848 
L 45.834294 278.284848 
L 45.834294 277.362895 
L 71.884659 277.362895 
L 71.884659 276.901919 
L 229.07666 276.901919 
L 229.07666 276.440942 
L 293.81401 276.440942 
L 293.81401 274.597037 
L 305.739514 274.597037 
L 305.739514 271.831178 
L 305.783005 271.831178 
L 305.783005 271.370201 
L 305.938113 271.370201 
L 305.938113 270.909225 
L 312.715487 270.909225 
L 312.715487 269.526296 
L 312.744493 269.526296 
L 312.744493 268.604343 
L 321.583888 268.604343 
L 321.583888 268.143366 
L 327.30557 268.143366 
L 327.30557 267.68239 
L 333.429677 267.68239 
" style="fill:none;stroke:#87ceeb;stroke-linecap:square;stroke-width:1.5;"/>
   </g>
   <g id="line2d_43">
    <defs>
     <path d="M -6 -0 
L 6 6 
L 6 -6 
z
" id="mb63102347f" style="stroke:#87ceeb;stroke-linejoin:miter;stroke-width:1.5;"/>
    </defs>
    <g>
     <use style="fill:none;stroke:#87ceeb;stroke-linejoin:miter;stroke-width:1.5;" x="71.884659" xlink:href="#mb63102347f" y="277.362895"/>
     <use style="fill:none;stroke:#87ceeb;stroke-linejoin:miter;stroke-width:1.5;" x="229.07666" xlink:href="#mb63102347f" y="276.901919"/>
     <use style="fill:none;stroke:#87ceeb;stroke-linejoin:miter;stroke-width:1.5;" x="312.744493" xlink:href="#mb63102347f" y="269.526296"/>
     <use style="fill:none;stroke:#87ceeb;stroke-linejoin:miter;stroke-width:1.5;" x="327.30557" xlink:href="#mb63102347f" y="267.68239"/>
     <use style="fill:none;stroke:#87ceeb;stroke-linejoin:miter;stroke-width:1.5;" x="333.429677" xlink:href="#mb63102347f" y="267.68239"/>
    </g>
   </g>
   <g id="line2d_44">
    <path d="M 0 0 
" style="fill:none;stroke:#87ceeb;stroke-linecap:square;stroke-width:1.5;"/>
    <g>
     <use style="fill:none;stroke:#87ceeb;stroke-linejoin:miter;stroke-width:1.5;" x="0" xlink:href="#mb63102347f" y="0"/>
    </g>
   </g>
   <g id="line2d_45">
    <path clip-path="url(#p6c11e868eb)" d="M 293.814009 276.440942 
" style="fill:none;stroke:#87ceeb;stroke-linecap:square;stroke-width:1.5;"/>
    <defs>
     <path d="M -12 12 
L 12 -12 
M -12 -12 
L 12 12 
" id="mb01149ab01" style="stroke:#87ceeb;stroke-width:3;"/>
    </defs>
    <g clip-path="url(#p6c11e868eb)">
     <use style="fill:#87ceeb;stroke:#87ceeb;stroke-width:3;" x="293.814009" xlink:href="#mb01149ab01" y="276.440942"/>
    </g>
   </g>
   <g id="line2d_46">
    <defs>
     <path d="M 0 1.5 
C 0.397805 1.5 0.77937 1.341951 1.06066 1.06066 
C 1.341951 0.77937 1.5 0.397805 1.5 0 
C 1.5 -0.397805 1.341951 -0.77937 1.06066 -1.06066 
C 0.77937 -1.341951 0.397805 -1.5 0 -1.5 
C -0.397805 -1.5 -0.77937 -1.341951 -1.06066 -1.06066 
C -1.341951 -0.77937 -1.5 -0.397805 -1.5 0 
C -1.5 0.397805 -1.341951 0.77937 -1.06066 1.06066 
C -0.77937 1.341951 -0.397805 1.5 0 1.5 
z
" id="mca80620f9a" style="stroke:#000080;"/>
    </defs>
    <g>
     <use style="fill:#000080;stroke:#000080;" x="318.990183" xlink:href="#mca80620f9a" y="175.026125"/>
     <use style="fill:#000080;stroke:#000080;" x="318.990183" xlink:href="#mca80620f9a" y="175.026125"/>
    </g>
   </g>
   <g id="line2d_47">
    <path d="M 129.889579 294.88 
L 129.889579 294.419024 
L 131.115149 294.419024 
L 131.202958 291.653165 
L 131.279424 291.653165 
L 131.279424 290.270236 
L 131.404314 290.270236 
L 131.404314 289.809259 
L 131.662069 289.809259 
L 131.736526 288.887306 
L 131.778929 288.887306 
L 131.831786 287.0434 
L 131.926521 287.0434 
L 131.926521 285.199495 
L 132.12482 285.199495 
L 132.207635 283.355589 
L 132.504543 283.355589 
L 132.504543 281.97266 
L 132.716391 281.97266 
L 132.741438 280.58973 
L 132.910798 280.58973 
L 132.950407 279.206801 
L 133.818306 279.206801 
L 133.818306 278.745825 
L 133.949463 278.745825 
L 133.949463 278.284848 
L 134.093515 278.284848 
L 134.093515 277.362895 
L 134.509542 277.362895 
L 134.509542 276.440942 
L 136.301013 276.440942 
L 136.301013 275.979966 
L 137.419783 275.979966 
L 137.419783 275.518989 
L 138.912987 275.518989 
L 138.912987 275.058013 
L 139.689021 275.058013 
L 139.689021 274.597037 
L 141.426695 274.597037 
L 141.426695 274.13606 
L 141.806219 274.13606 
L 141.806219 273.214107 
L 142.777302 273.214107 
L 142.777302 272.292154 
L 142.899777 272.292154 
L 142.996581 271.370201 
L 143.956678 271.370201 
L 143.964501 269.987272 
L 144.98928 269.987272 
L 144.98928 269.526296 
L 145.109226 269.526296 
L 145.109226 268.143366 
L 145.25255 268.143366 
L 145.25255 267.68239 
L 146.081377 267.68239 
L 146.081377 266.760437 
L 146.205418 266.760437 
L 146.205418 265.838484 
L 146.358088 265.838484 
L 146.358088 265.377508 
L 146.621484 265.377508 
L 146.703948 264.455555 
L 146.88531 264.455555 
L 146.992779 263.072625 
L 147.129974 263.072625 
L 147.129974 262.611649 
L 147.606997 262.611649 
L 147.606997 262.150673 
L 147.939216 262.150673 
L 147.939216 261.689696 
L 148.265142 261.689696 
L 148.265142 259.84579 
L 148.938132 259.84579 
L 148.973244 258.462861 
L 149.305194 258.462861 
L 149.305194 258.001885 
L 149.763514 258.001885 
L 149.763514 256.157979 
L 149.933898 256.157979 
L 149.933898 255.697002 
L 150.182718 255.697002 
L 150.182718 255.236026 
L 151.280375 255.236026 
L 151.280375 253.853097 
L 152.552836 253.853097 
L 152.552836 252.931144 
L 153.262831 252.931144 
L 153.262831 252.470167 
L 153.54749 252.470167 
L 153.54749 251.548214 
L 153.859816 251.548214 
L 153.859816 251.087238 
L 155.077215 251.087238 
L 155.077215 250.626262 
L 156.451711 250.626262 
L 156.542316 248.782356 
L 158.365067 248.782356 
L 158.365067 248.321379 
L 160.456612 248.321379 
L 160.525454 245.555521 
L 164.36879 245.555521 
L 164.36879 244.172591 
L 165.036562 244.172591 
L 165.036562 242.789662 
L 166.094239 242.789662 
L 166.094239 240.48478 
L 166.482435 240.48478 
L 166.482435 240.023803 
L 175.438354 240.023803 
L 175.438354 239.10185 
L 176.530778 239.10185 
L 176.530778 237.257945 
L 176.745834 237.257945 
L 176.745834 236.335992 
L 176.884135 236.335992 
L 176.884135 235.875015 
L 177.144944 235.875015 
L 177.144944 235.414039 
L 177.55241 235.414039 
L 177.55241 234.953062 
L 179.616068 234.953062 
L 179.616068 234.03111 
L 182.163784 234.03111 
L 182.163784 233.570133 
L 185.820399 233.570133 
L 185.820399 233.109157 
L 197.535881 233.109157 
L 197.535881 232.187204 
L 201.136077 232.187204 
L 201.136077 230.804274 
L 213.127052 230.804274 
L 213.127052 229.882322 
L 226.735727 229.882322 
L 226.735727 228.960369 
L 254.228651 228.960369 
L 254.300762 218.357911 
L 254.38808 218.357911 
L 254.493161 215.592052 
L 254.825542 215.592052 
L 254.825542 215.131075 
L 255.710784 215.131075 
L 255.710784 214.209123 
L 266.13636 214.209123 
L 266.236191 206.833499 
L 266.254055 206.833499 
L 266.284745 204.989594 
L 266.440304 204.989594 
L 266.513135 203.145688 
L 266.907998 203.145688 
L 266.907998 202.684712 
L 267.784455 202.684712 
L 267.784455 202.223735 
L 273.112446 202.223735 
L 273.207252 197.613971 
L 273.311436 197.613971 
L 273.311436 197.152994 
L 273.61888 197.152994 
L 273.61888 196.692018 
L 274.224505 196.692018 
L 274.224505 195.309088 
L 278.096981 195.309088 
L 278.097365 193.465183 
L 278.208307 193.465183 
L 278.208307 193.004206 
L 278.445893 193.004206 
L 278.445893 192.54323 
L 278.899682 192.54323 
L 278.899682 192.082253 
L 281.900293 192.082253 
L 281.940707 191.1603 
L 282.015788 191.1603 
L 282.015788 190.699324 
L 282.206467 190.699324 
L 282.206467 189.777371 
L 282.5721 189.777371 
L 282.5721 187.933465 
L 285.057348 187.933465 
L 285.131457 186.08956 
L 285.290698 186.08956 
L 285.290698 185.628583 
L 285.596855 185.628583 
L 285.596855 185.167607 
L 287.72359 185.167607 
L 287.72359 184.70663 
L 288.168502 184.70663 
L 288.168502 183.784677 
L 290.174268 183.784677 
L 290.174268 183.323701 
L 292.007311 183.323701 
L 292.022652 182.401748 
L 292.384419 182.401748 
L 292.384419 181.940772 
L 293.84013 181.940772 
L 293.84013 181.479795 
L 293.973725 181.479795 
L 293.973725 181.018819 
L 295.599065 181.018819 
L 295.599065 180.557842 
L 296.955339 180.557842 
L 296.966847 179.635889 
L 299.648535 179.635889 
L 299.648535 179.174913 
L 300.802697 179.174913 
L 300.802697 178.713936 
L 301.020878 178.713936 
L 301.020878 178.25296 
L 302.116914 178.25296 
L 302.116914 177.791984 
L 305.771423 177.791984 
L 305.771423 177.331007 
L 306.744183 177.331007 
L 306.744183 176.409054 
L 308.94306 176.409054 
L 308.94306 175.948078 
L 310.31506 175.948078 
L 310.31506 175.487101 
L 318.990183 175.487101 
L 318.990183 175.026125 
L 333.429677 175.026125 
L 333.429677 175.026125 
" style="fill:none;stroke:#000080;stroke-linecap:square;stroke-width:1.5;"/>
   </g>
   <g id="line2d_48">
    <defs>
     <path d="M -0 6 
L 6 -6 
L -6 -6 
z
" id="m2c25dc77f8" style="stroke:#000080;stroke-linejoin:miter;stroke-width:1.5;"/>
    </defs>
    <g>
     <use style="fill:none;stroke:#000080;stroke-linejoin:miter;stroke-width:1.5;" x="149.763514" xlink:href="#m2c25dc77f8" y="258.001885"/>
     <use style="fill:none;stroke:#000080;stroke-linejoin:miter;stroke-width:1.5;" x="226.735727" xlink:href="#m2c25dc77f8" y="228.960369"/>
     <use style="fill:none;stroke:#000080;stroke-linejoin:miter;stroke-width:1.5;" x="290.174268" xlink:href="#m2c25dc77f8" y="183.323701"/>
     <use style="fill:none;stroke:#000080;stroke-linejoin:miter;stroke-width:1.5;" x="318.990183" xlink:href="#m2c25dc77f8" y="175.026125"/>
     <use style="fill:none;stroke:#000080;stroke-linejoin:miter;stroke-width:1.5;" x="333.429677" xlink:href="#m2c25dc77f8" y="175.026125"/>
    </g>
   </g>
   <g id="line2d_49">
    <path d="M 0 0 
" style="fill:none;stroke:#000080;stroke-linecap:square;stroke-width:1.5;"/>
    <g>
     <use style="fill:none;stroke:#000080;stroke-linejoin:miter;stroke-width:1.5;" x="0" xlink:href="#m2c25dc77f8" y="0"/>
    </g>
   </g>
   <g id="line2d_50">
    <path clip-path="url(#p6c11e868eb)" d="M 254.198341 228.960369 
" style="fill:none;stroke:#000080;stroke-linecap:square;stroke-width:1.5;"/>
    <defs>
     <path d="M -12 12 
L 12 -12 
M -12 -12 
L 12 12 
" id="m2766e1feef" style="stroke:#000080;stroke-width:3;"/>
    </defs>
    <g clip-path="url(#p6c11e868eb)">
     <use style="fill:#000080;stroke:#000080;stroke-width:3;" x="254.198341" xlink:href="#m2766e1feef" y="228.960369"/>
    </g>
   </g>
   <g id="line2d_51">
    <defs>
     <path d="M 0 1.5 
C 0.397805 1.5 0.77937 1.341951 1.06066 1.06066 
C 1.341951 0.77937 1.5 0.397805 1.5 0 
C 1.5 -0.397805 1.341951 -0.77937 1.06066 -1.06066 
C 0.77937 -1.341951 0.397805 -1.5 0 -1.5 
C -0.397805 -1.5 -0.77937 -1.341951 -1.06066 -1.06066 
C -1.341951 -0.77937 -1.5 -0.397805 -1.5 0 
C -1.5 0.397805 -1.341951 0.77937 -1.06066 1.06066 
C -0.77937 1.341951 -0.397805 1.5 0 1.5 
z
" id="ma6c901fb41" style="stroke:#ff0000;"/>
    </defs>
    <g>
     <use style="fill:#ff0000;stroke:#ff0000;" x="305.871623" xlink:href="#ma6c901fb41" y="207.294476"/>
     <use style="fill:#ff0000;stroke:#ff0000;" x="305.871623" xlink:href="#ma6c901fb41" y="207.294476"/>
    </g>
   </g>
   <g id="line2d_52">
    <path d="M 143.584909 294.88 
L 143.662031 293.497071 
L 143.749372 293.497071 
L 143.749372 292.575118 
L 144.000963 292.575118 
L 144.000963 292.114141 
L 144.402111 292.114141 
L 144.402111 290.731212 
L 144.669445 290.731212 
L 144.776719 288.887306 
L 144.799087 288.887306 
L 144.799087 288.42633 
L 145.094583 288.42633 
L 145.194393 287.0434 
L 145.221072 287.0434 
L 145.221072 286.582424 
L 145.392291 286.582424 
L 145.392291 284.738518 
L 145.703796 284.738518 
L 145.703796 284.277542 
L 146.125123 284.277542 
L 146.125123 283.355589 
L 146.439563 283.355589 
L 146.475651 281.97266 
L 146.805923 281.97266 
L 146.805923 281.050707 
L 148.08757 281.050707 
L 148.118317 279.667777 
L 148.824504 279.667777 
L 148.824504 279.206801 
L 149.111047 279.206801 
L 149.111047 278.745825 
L 151.800706 278.745825 
L 151.800706 277.823872 
L 152.24142 277.823872 
L 152.24142 277.362895 
L 154.384215 277.362895 
L 154.384215 276.440942 
L 156.300907 276.440942 
L 156.300907 275.979966 
L 166.136689 275.979966 
L 166.136689 275.518989 
L 167.982857 275.518989 
L 167.982857 275.058013 
L 168.85318 275.058013 
L 168.85318 274.597037 
L 177.948639 274.597037 
L 177.948639 274.13606 
L 179.239048 274.13606 
L 179.239048 273.675084 
L 180.808727 273.675084 
L 180.808727 273.214107 
L 182.64614 273.214107 
L 182.64614 272.753131 
L 183.308451 272.753131 
L 183.308451 271.831178 
L 184.407551 271.831178 
L 184.407551 271.370201 
L 186.095374 271.370201 
L 186.095374 270.909225 
L 186.799567 270.909225 
L 186.799567 269.987272 
L 187.412127 269.987272 
L 187.412127 269.526296 
L 188.206654 269.526296 
L 188.206654 268.604343 
L 188.491006 268.604343 
L 188.491006 267.221413 
L 191.553879 267.221413 
L 191.553879 266.760437 
L 192.90733 266.760437 
L 192.90733 266.299461 
L 193.532012 266.299461 
L 193.532012 265.838484 
L 194.987324 265.838484 
L 194.987324 262.611649 
L 196.283288 262.611649 
L 196.283288 262.150673 
L 197.237191 262.150673 
L 197.237191 260.767743 
L 198.663011 260.767743 
L 198.663011 259.84579 
L 200.525813 259.84579 
L 200.525813 258.923837 
L 200.739088 258.923837 
L 200.739088 258.462861 
L 200.888176 258.462861 
L 200.888176 257.540908 
L 201.212965 257.540908 
L 201.212965 257.079932 
L 201.813567 257.079932 
L 201.813567 256.618955 
L 202.698754 256.618955 
L 202.698754 255.236026 
L 203.495695 255.236026 
L 203.495695 254.314073 
L 208.250855 254.314073 
L 208.250855 252.931144 
L 208.682841 252.931144 
L 208.682841 251.087238 
L 218.948914 251.087238 
L 218.948914 250.626262 
L 222.029102 250.626262 
L 222.029102 250.165285 
L 223.697608 250.165285 
L 223.697608 249.704309 
L 228.165192 249.704309 
L 228.165192 248.782356 
L 228.522533 248.782356 
L 228.522533 248.321379 
L 254.250277 248.321379 
L 254.250277 247.860403 
L 254.438272 247.860403 
L 254.458298 246.93845 
L 254.643707 246.93845 
L 254.697193 244.633568 
L 254.786298 244.633568 
L 254.786298 244.172591 
L 254.915814 244.172591 
L 254.998526 240.945756 
L 255.039756 240.945756 
L 255.039756 239.562827 
L 255.349696 239.562827 
L 255.377989 237.718921 
L 256.284155 237.718921 
L 256.284155 237.257945 
L 256.665029 237.257945 
L 256.665029 236.796968 
L 256.897474 236.796968 
L 256.897474 236.335992 
L 257.622653 236.335992 
L 257.687695 233.570133 
L 266.140979 233.570133 
L 266.140979 233.109157 
L 266.366186 233.109157 
L 266.397082 232.187204 
L 266.528592 232.187204 
L 266.528592 231.265251 
L 267.198344 231.265251 
L 267.198344 229.882322 
L 267.40136 229.882322 
L 267.40136 228.960369 
L 267.52629 228.960369 
L 267.52629 228.499392 
L 273.256761 228.499392 
L 273.361483 227.577439 
L 273.370706 227.577439 
L 273.398288 225.272557 
L 273.502091 225.272557 
L 273.502091 223.889628 
L 273.823556 223.889628 
L 273.823556 223.428651 
L 274.047368 223.428651 
L 274.054028 221.584746 
L 274.332768 221.584746 
L 274.332768 221.123769 
L 278.351934 221.123769 
L 278.351934 220.201816 
L 278.594988 220.201816 
L 278.699964 218.818887 
L 278.990245 218.818887 
L 278.990245 217.896934 
L 282.068209 217.896934 
L 282.130997 216.974981 
L 282.463275 216.974981 
L 282.463275 216.514005 
L 282.645293 216.514005 
L 282.645293 216.053028 
L 285.156655 216.053028 
L 285.227637 215.131075 
L 287.800219 215.131075 
L 287.800219 214.670099 
L 287.991375 214.670099 
L 288.052253 213.28717 
L 290.07694 213.28717 
L 290.07694 212.365217 
L 293.900031 212.365217 
L 293.900031 211.443264 
L 295.528114 211.443264 
L 295.564458 210.060335 
L 298.421625 210.060335 
L 298.421625 209.599358 
L 299.689969 209.599358 
L 299.689969 209.138382 
L 303.015077 209.138382 
L 303.015077 208.216429 
L 304.921168 208.216429 
L 304.921168 207.755452 
L 305.871623 207.755452 
L 305.871623 207.294476 
L 333.429677 207.294476 
L 333.429677 207.294476 
" style="fill:none;stroke:#ff0000;stroke-linecap:square;stroke-width:1.5;"/>
   </g>
   <g id="line2d_53">
    <defs>
     <path d="M 0 -6 
L -1.347084 -1.854102 
L -5.706339 -1.854102 
L -2.179628 0.708204 
L -3.526712 4.854102 
L -0 2.291796 
L 3.526712 4.854102 
L 2.179628 0.708204 
L 5.706339 -1.854102 
L 1.347084 -1.854102 
z
" id="m4231d4089b" style="stroke:#ff0000;stroke-linejoin:bevel;stroke-width:1.5;"/>
    </defs>
    <g>
     <use style="fill:none;stroke:#ff0000;stroke-linejoin:bevel;stroke-width:1.5;" x="166.136689" xlink:href="#m4231d4089b" y="275.518989"/>
     <use style="fill:none;stroke:#ff0000;stroke-linejoin:bevel;stroke-width:1.5;" x="228.522533" xlink:href="#m4231d4089b" y="248.782356"/>
     <use style="fill:none;stroke:#ff0000;stroke-linejoin:bevel;stroke-width:1.5;" x="267.52629" xlink:href="#m4231d4089b" y="228.960369"/>
     <use style="fill:none;stroke:#ff0000;stroke-linejoin:bevel;stroke-width:1.5;" x="305.871623" xlink:href="#m4231d4089b" y="207.294476"/>
     <use style="fill:none;stroke:#ff0000;stroke-linejoin:bevel;stroke-width:1.5;" x="333.429677" xlink:href="#m4231d4089b" y="207.294476"/>
    </g>
   </g>
   <g id="line2d_54">
    <path d="M 0 0 
" style="fill:none;stroke:#ff0000;stroke-linecap:square;stroke-width:1.5;"/>
    <g>
     <use style="fill:none;stroke:#ff0000;stroke-linejoin:bevel;stroke-width:1.5;" x="0" xlink:href="#m4231d4089b" y="0"/>
    </g>
   </g>
   <g id="line2d_55">
    <path clip-path="url(#p6c11e868eb)" d="M 254.198345 248.321379 
" style="fill:none;stroke:#ff0000;stroke-linecap:square;stroke-width:1.5;"/>
    <defs>
     <path d="M -12 12 
L 12 -12 
M -12 -12 
L 12 12 
" id="m5c5e337ec1" style="stroke:#ff0000;stroke-width:3;"/>
    </defs>
    <g clip-path="url(#p6c11e868eb)">
     <use style="fill:#ff0000;stroke:#ff0000;stroke-width:3;" x="254.198345" xlink:href="#m5c5e337ec1" y="248.321379"/>
    </g>
   </g>
   <g id="line2d_56">
    <defs>
     <path d="M 0 1.5 
C 0.397805 1.5 0.77937 1.341951 1.06066 1.06066 
C 1.341951 0.77937 1.5 0.397805 1.5 0 
C 1.5 -0.397805 1.341951 -0.77937 1.06066 -1.06066 
C 0.77937 -1.341951 0.397805 -1.5 0 -1.5 
C -0.397805 -1.5 -0.77937 -1.341951 -1.06066 -1.06066 
C -1.341951 -0.77937 -1.5 -0.397805 -1.5 0 
C -1.5 0.397805 -1.341951 0.77937 -1.06066 1.06066 
C -0.77937 1.341951 -0.397805 1.5 0 1.5 
z
" id="mb13d7e7eea" style="stroke:#ffd700;"/>
    </defs>
    <g>
     <use style="fill:#ffd700;stroke:#ffd700;" x="326.575529" xlink:href="#mb13d7e7eea" y="216.514005"/>
     <use style="fill:#ffd700;stroke:#ffd700;" x="326.575529" xlink:href="#mb13d7e7eea" y="216.514005"/>
    </g>
   </g>
   <g id="line2d_57">
    <path d="M 134.019316 294.88 
L 134.019316 293.497071 
L 134.702681 293.497071 
L 134.702681 291.192188 
L 135.152334 291.192188 
L 135.187109 287.0434 
L 135.338428 287.0434 
L 135.338428 286.582424 
L 135.548063 286.582424 
L 135.548063 286.121448 
L 136.112757 286.121448 
L 136.112757 285.199495 
L 136.357902 285.199495 
L 136.390326 284.277542 
L 136.559556 284.277542 
L 136.559556 283.816565 
L 136.794506 283.816565 
L 136.794506 283.355589 
L 136.979401 283.355589 
L 136.979401 282.894612 
L 137.354823 282.894612 
L 137.461686 281.050707 
L 138.217206 281.050707 
L 138.217206 280.128754 
L 138.423515 280.128754 
L 138.423515 278.745825 
L 139.166388 278.745825 
L 139.166388 278.284848 
L 140.020085 278.284848 
L 140.020085 276.901919 
L 143.065395 276.901919 
L 143.065395 276.440942 
L 143.291904 276.440942 
L 143.291904 275.979966 
L 144.386854 275.979966 
L 144.386854 275.518989 
L 144.851166 275.518989 
L 144.851166 274.597037 
L 153.188256 274.597037 
L 153.188256 273.675084 
L 154.061062 273.675084 
L 154.114621 272.753131 
L 160.668242 272.753131 
L 160.679101 270.909225 
L 161.382938 270.909225 
L 161.382938 270.448249 
L 163.691455 270.448249 
L 163.691455 269.526296 
L 176.122619 269.526296 
L 176.122619 268.604343 
L 181.724819 268.604343 
L 181.724819 267.68239 
L 185.516747 267.68239 
L 185.516747 267.221413 
L 192.841252 267.221413 
L 192.841252 266.299461 
L 198.371723 266.299461 
L 198.371723 265.838484 
L 204.614806 265.838484 
L 204.614806 264.916531 
L 206.62399 264.916531 
L 206.62399 263.533602 
L 211.263762 263.533602 
L 211.263762 262.150673 
L 220.418054 262.150673 
L 220.418054 261.689696 
L 220.725101 261.689696 
L 220.725101 261.22872 
L 254.246795 261.22872 
L 254.28745 258.923837 
L 254.370791 258.923837 
L 254.451298 258.001885 
L 254.513102 258.001885 
L 254.513102 257.540908 
L 255.136222 257.540908 
L 255.136222 257.079932 
L 255.24892 257.079932 
L 255.24892 256.157979 
L 255.56153 256.157979 
L 255.56153 255.236026 
L 256.458376 255.236026 
L 256.49647 253.39212 
L 259.010865 253.39212 
L 259.010865 252.931144 
L 266.134378 252.931144 
L 266.210289 249.704309 
L 266.250791 249.704309 
L 266.250791 249.243332 
L 266.455911 249.243332 
L 266.455911 248.782356 
L 266.599178 248.782356 
L 266.599178 247.399426 
L 267.290948 247.399426 
L 267.290948 246.477474 
L 268.697833 246.477474 
L 268.697833 246.016497 
L 269.649961 246.016497 
L 269.649961 245.555521 
L 273.109781 245.555521 
L 273.129576 243.250638 
L 273.418163 243.250638 
L 273.418163 242.328686 
L 273.886618 242.328686 
L 273.886618 241.867709 
L 274.857862 241.867709 
L 274.857862 241.406733 
L 278.216186 241.406733 
L 278.28866 240.023803 
L 278.642798 240.023803 
L 278.642798 239.562827 
L 279.384437 239.562827 
L 279.384437 239.10185 
L 279.902586 239.10185 
L 279.902586 238.640874 
L 281.923137 238.640874 
L 281.939398 237.257945 
L 282.36489 237.257945 
L 282.36489 236.335992 
L 285.067745 236.335992 
L 285.067745 235.875015 
L 285.423222 235.875015 
L 285.430303 233.570133 
L 285.926792 233.570133 
L 285.926792 233.109157 
L 287.814622 233.109157 
L 287.814622 232.187204 
L 290.094928 232.187204 
L 290.094928 231.726227 
L 292.020546 231.726227 
L 292.108069 230.343298 
L 292.267583 230.343298 
L 292.267583 229.882322 
L 292.607494 229.882322 
L 292.607494 229.421345 
L 293.831336 229.421345 
L 293.839477 228.499392 
L 294.053853 228.499392 
L 294.053853 227.577439 
L 294.579422 227.577439 
L 294.579422 227.116463 
L 295.671986 227.116463 
L 295.671986 226.655487 
L 295.951366 226.655487 
L 295.951366 226.19451 
L 296.151029 226.19451 
L 296.151029 225.733534 
L 296.965268 225.733534 
L 297.03097 224.350604 
L 297.150929 224.350604 
L 297.150929 223.889628 
L 297.591014 223.889628 
L 297.591014 223.428651 
L 298.401943 223.428651 
L 298.401943 222.967675 
L 299.995113 222.967675 
L 299.995113 222.506699 
L 300.801537 222.506699 
L 300.806966 221.584746 
L 301.960502 221.584746 
L 301.960502 221.123769 
L 302.953593 221.123769 
L 302.953593 220.662793 
L 303.266986 220.662793 
L 303.266986 220.201816 
L 304.060461 220.201816 
L 304.060461 219.74084 
L 305.146832 219.74084 
L 305.146832 219.279863 
L 308.883556 219.279863 
L 308.916452 218.357911 
L 309.617186 218.357911 
L 309.617186 217.896934 
L 310.260125 217.896934 
L 310.260125 217.435958 
L 310.991997 217.435958 
L 310.991997 216.974981 
L 326.575529 216.974981 
L 326.575529 216.514005 
L 333.429677 216.514005 
L 333.429677 216.514005 
" style="fill:none;stroke:#ffd700;stroke-linecap:square;stroke-width:1.5;"/>
   </g>
   <g id="line2d_58">
    <defs>
     <path d="M -6 6 
L 6 6 
L 6 -6 
L -6 -6 
z
" id="m5e2ec70215" style="stroke:#ffd700;stroke-linejoin:miter;stroke-width:1.5;"/>
    </defs>
    <g>
     <use style="fill:none;stroke:#ffd700;stroke-linejoin:miter;stroke-width:1.5;" x="211.263762" xlink:href="#m5e2ec70215" y="263.533602"/>
     <use style="fill:none;stroke:#ffd700;stroke-linejoin:miter;stroke-width:1.5;" x="266.599178" xlink:href="#m5e2ec70215" y="247.399426"/>
     <use style="fill:none;stroke:#ffd700;stroke-linejoin:miter;stroke-width:1.5;" x="326.575529" xlink:href="#m5e2ec70215" y="216.514005"/>
     <use style="fill:none;stroke:#ffd700;stroke-linejoin:miter;stroke-width:1.5;" x="326.575529" xlink:href="#m5e2ec70215" y="216.514005"/>
     <use style="fill:none;stroke:#ffd700;stroke-linejoin:miter;stroke-width:1.5;" x="333.429677" xlink:href="#m5e2ec70215" y="216.514005"/>
    </g>
   </g>
   <g id="line2d_59">
    <path d="M 0 0 
" style="fill:none;stroke:#ffd700;stroke-linecap:square;stroke-width:1.5;"/>
    <g>
     <use style="fill:none;stroke:#ffd700;stroke-linejoin:miter;stroke-width:1.5;" x="0" xlink:href="#m5e2ec70215" y="0"/>
    </g>
   </g>
   <g id="line2d_60">
    <path clip-path="url(#p6c11e868eb)" d="M 254.198345 261.22872 
" style="fill:none;stroke:#ffd700;stroke-linecap:square;stroke-width:1.5;"/>
    <defs>
     <path d="M -12 12 
L 12 -12 
M -12 -12 
L 12 12 
" id="m246c2eceb5" style="stroke:#ffd700;stroke-width:3;"/>
    </defs>
    <g clip-path="url(#p6c11e868eb)">
     <use style="fill:#ffd700;stroke:#ffd700;stroke-width:3;" x="254.198345" xlink:href="#m246c2eceb5" y="261.22872"/>
    </g>
   </g>
   <g id="line2d_61">
    <path d="M 333.429677 294.88 
L 363.933742 289.532673 
" style="fill:none;stroke:#228b22;stroke-linecap:square;stroke-width:1.5;"/>
    <g>
     <use style="fill:none;stroke:#228b22;stroke-width:1.5;" x="333.429677" xlink:href="#m6aefb0bc0d" y="294.88"/>
     <use style="fill:none;stroke:#228b22;stroke-width:1.5;" x="363.933742" xlink:href="#m6aefb0bc0d" y="289.532673"/>
    </g>
   </g>
   <g id="line2d_62">
    <path d="M 333.429677 267.68239 
L 363.933742 252.86529 
" style="fill:none;stroke:#87ceeb;stroke-linecap:square;stroke-width:1.5;"/>
    <g>
     <use style="fill:none;stroke:#87ceeb;stroke-linejoin:miter;stroke-width:1.5;" x="333.429677" xlink:href="#mb63102347f" y="267.68239"/>
     <use style="fill:none;stroke:#87ceeb;stroke-linejoin:miter;stroke-width:1.5;" x="363.933742" xlink:href="#mb63102347f" y="252.86529"/>
    </g>
   </g>
   <g id="line2d_63">
    <path d="M 333.429677 267.221413 
L 363.933742 216.197907 
" style="fill:none;stroke:#ffc0cb;stroke-linecap:square;stroke-width:1.5;"/>
    <g>
     <use style="fill:none;stroke:#ffc0cb;stroke-linejoin:miter;stroke-width:1.5;" x="333.429677" xlink:href="#m29ef049efd" y="267.221413"/>
     <use style="fill:none;stroke:#ffc0cb;stroke-linejoin:miter;stroke-width:1.5;" x="363.933742" xlink:href="#m29ef049efd" y="216.197907"/>
    </g>
   </g>
   <g id="line2d_64">
    <path d="M 333.429677 262.611649 
L 363.933742 179.530523 
" style="fill:none;stroke:#adff2f;stroke-linecap:square;stroke-width:1.5;"/>
    <g>
     <use style="fill:none;stroke:#adff2f;stroke-width:1.5;" x="333.429677" xlink:href="#mf9918e76f8" y="262.611649"/>
     <use style="fill:none;stroke:#adff2f;stroke-width:1.5;" x="363.933742" xlink:href="#mf9918e76f8" y="179.530523"/>
    </g>
   </g>
   <g id="line2d_65">
    <path d="M 333.429677 216.514005 
L 363.933742 142.86314 
" style="fill:none;stroke:#ffd700;stroke-linecap:square;stroke-width:1.5;"/>
    <g>
     <use style="fill:none;stroke:#ffd700;stroke-linejoin:miter;stroke-width:1.5;" x="333.429677" xlink:href="#m5e2ec70215" y="216.514005"/>
     <use style="fill:none;stroke:#ffd700;stroke-linejoin:miter;stroke-width:1.5;" x="363.933742" xlink:href="#m5e2ec70215" y="142.86314"/>
    </g>
   </g>
   <g id="line2d_66">
    <path d="M 333.429677 207.294476 
L 363.933742 106.195757 
" style="fill:none;stroke:#ff0000;stroke-linecap:square;stroke-width:1.5;"/>
    <g>
     <use style="fill:none;stroke:#ff0000;stroke-linejoin:bevel;stroke-width:1.5;" x="333.429677" xlink:href="#m4231d4089b" y="207.294476"/>
     <use style="fill:none;stroke:#ff0000;stroke-linejoin:bevel;stroke-width:1.5;" x="363.933742" xlink:href="#m4231d4089b" y="106.195757"/>
    </g>
   </g>
   <g id="line2d_67">
    <path d="M 333.429677 175.026125 
L 363.933742 32.86099 
" style="fill:none;stroke:#000080;stroke-linecap:square;stroke-width:1.5;"/>
    <g>
     <use style="fill:none;stroke:#000080;stroke-linejoin:miter;stroke-width:1.5;" x="333.429677" xlink:href="#m2c25dc77f8" y="175.026125"/>
     <use style="fill:none;stroke:#000080;stroke-linejoin:miter;stroke-width:1.5;" x="363.933742" xlink:href="#m2c25dc77f8" y="32.86099"/>
    </g>
   </g>
   <g id="line2d_68">
    <path d="M 333.429677 294.88 
L 333.429677 27.513663 
" style="fill:none;stroke:#000000;stroke-linecap:square;stroke-width:1.5;"/>
   </g>
   <g id="patch_3">
    <path d="M 56.12 294.88 
L 56.12 24.84 
" style="fill:none;stroke:#000000;stroke-linecap:square;stroke-linejoin:miter;stroke-width:0.8;"/>
   </g>
   <g id="patch_4">
    <path d="M 399.984 294.88 
L 399.984 24.84 
" style="fill:none;stroke:#000000;stroke-linecap:square;stroke-linejoin:miter;stroke-width:0.8;"/>
   </g>
   <g id="patch_5">
    <path d="M 56.12 294.88 
L 399.984 294.88 
" style="fill:none;stroke:#000000;stroke-linecap:square;stroke-linejoin:miter;stroke-width:0.8;"/>
   </g>
   <g id="patch_6">
    <path d="M 56.12 24.84 
L 399.984 24.84 
" style="fill:none;stroke:#000000;stroke-linecap:square;stroke-linejoin:miter;stroke-width:0.8;"/>
   </g>
   <g id="text_14">
    <!-- RANDOMSEARCH-100 -->
    <defs>
     <path d="M 44.390625 34.1875 
Q 47.5625 33.109375 50.5625 29.59375 
Q 53.5625 26.078125 56.59375 19.921875 
L 66.609375 0 
L 56 0 
L 46.6875 18.703125 
Q 43.0625 26.03125 39.671875 28.421875 
Q 36.28125 30.8125 30.421875 30.8125 
L 19.671875 30.8125 
L 19.671875 0 
L 9.8125 0 
L 9.8125 72.90625 
L 32.078125 72.90625 
Q 44.578125 72.90625 50.734375 67.671875 
Q 56.890625 62.453125 56.890625 51.90625 
Q 56.890625 45.015625 53.6875 40.46875 
Q 50.484375 35.9375 44.390625 34.1875 
z
M 19.671875 64.796875 
L 19.671875 38.921875 
L 32.078125 38.921875 
Q 39.203125 38.921875 42.84375 42.21875 
Q 46.484375 45.515625 46.484375 51.90625 
Q 46.484375 58.296875 42.84375 61.546875 
Q 39.203125 64.796875 32.078125 64.796875 
z
" id="DejaVuSans-52"/>
     <path d="M 34.1875 63.1875 
L 20.796875 26.90625 
L 47.609375 26.90625 
z
M 28.609375 72.90625 
L 39.796875 72.90625 
L 67.578125 0 
L 57.328125 0 
L 50.6875 18.703125 
L 17.828125 18.703125 
L 11.1875 0 
L 0.78125 0 
z
" id="DejaVuSans-41"/>
     <path d="M 9.8125 72.90625 
L 23.09375 72.90625 
L 55.421875 11.921875 
L 55.421875 72.90625 
L 64.984375 72.90625 
L 64.984375 0 
L 51.703125 0 
L 19.390625 60.984375 
L 19.390625 0 
L 9.8125 0 
z
" id="DejaVuSans-4e"/>
     <path d="M 19.671875 64.796875 
L 19.671875 8.109375 
L 31.59375 8.109375 
Q 46.6875 8.109375 53.6875 14.9375 
Q 60.6875 21.78125 60.6875 36.53125 
Q 60.6875 51.171875 53.6875 57.984375 
Q 46.6875 64.796875 31.59375 64.796875 
z
M 9.8125 72.90625 
L 30.078125 72.90625 
Q 51.265625 72.90625 61.171875 64.09375 
Q 71.09375 55.28125 71.09375 36.53125 
Q 71.09375 17.671875 61.125 8.828125 
Q 51.171875 0 30.078125 0 
L 9.8125 0 
z
" id="DejaVuSans-44"/>
     <path d="M 39.40625 66.21875 
Q 28.65625 66.21875 22.328125 58.203125 
Q 16.015625 50.203125 16.015625 36.375 
Q 16.015625 22.609375 22.328125 14.59375 
Q 28.65625 6.59375 39.40625 6.59375 
Q 50.140625 6.59375 56.421875 14.59375 
Q 62.703125 22.609375 62.703125 36.375 
Q 62.703125 50.203125 56.421875 58.203125 
Q 50.140625 66.21875 39.40625 66.21875 
z
M 39.40625 74.21875 
Q 54.734375 74.21875 63.90625 63.9375 
Q 73.09375 53.65625 73.09375 36.375 
Q 73.09375 19.140625 63.90625 8.859375 
Q 54.734375 -1.421875 39.40625 -1.421875 
Q 24.03125 -1.421875 14.8125 8.828125 
Q 5.609375 19.09375 5.609375 36.375 
Q 5.609375 53.65625 14.8125 63.9375 
Q 24.03125 74.21875 39.40625 74.21875 
z
" id="DejaVuSans-4f"/>
     <path d="M 9.8125 72.90625 
L 24.515625 72.90625 
L 43.109375 23.296875 
L 61.8125 72.90625 
L 76.515625 72.90625 
L 76.515625 0 
L 66.890625 0 
L 66.890625 64.015625 
L 48.09375 14.015625 
L 38.1875 14.015625 
L 19.390625 64.015625 
L 19.390625 0 
L 9.8125 0 
z
" id="DejaVuSans-4d"/>
     <path d="M 53.515625 70.515625 
L 53.515625 60.890625 
Q 47.90625 63.578125 42.921875 64.890625 
Q 37.9375 66.21875 33.296875 66.21875 
Q 25.25 66.21875 20.875 63.09375 
Q 16.5 59.96875 16.5 54.203125 
Q 16.5 49.359375 19.40625 46.890625 
Q 22.3125 44.4375 30.421875 42.921875 
L 36.375 41.703125 
Q 47.40625 39.59375 52.65625 34.296875 
Q 57.90625 29 57.90625 20.125 
Q 57.90625 9.515625 50.796875 4.046875 
Q 43.703125 -1.421875 29.984375 -1.421875 
Q 24.8125 -1.421875 18.96875 -0.25 
Q 13.140625 0.921875 6.890625 3.21875 
L 6.890625 13.375 
Q 12.890625 10.015625 18.65625 8.296875 
Q 24.421875 6.59375 29.984375 6.59375 
Q 38.421875 6.59375 43.015625 9.90625 
Q 47.609375 13.234375 47.609375 19.390625 
Q 47.609375 24.75 44.3125 27.78125 
Q 41.015625 30.8125 33.5 32.328125 
L 27.484375 33.5 
Q 16.453125 35.6875 11.515625 40.375 
Q 6.59375 45.0625 6.59375 53.421875 
Q 6.59375 63.09375 13.40625 68.65625 
Q 20.21875 74.21875 32.171875 74.21875 
Q 37.3125 74.21875 42.625 73.28125 
Q 47.953125 72.359375 53.515625 70.515625 
z
" id="DejaVuSans-53"/>
     <path d="M 9.8125 72.90625 
L 55.90625 72.90625 
L 55.90625 64.59375 
L 19.671875 64.59375 
L 19.671875 43.015625 
L 54.390625 43.015625 
L 54.390625 34.71875 
L 19.671875 34.71875 
L 19.671875 8.296875 
L 56.78125 8.296875 
L 56.78125 0 
L 9.8125 0 
z
" id="DejaVuSans-45"/>
     <path d="M 64.40625 67.28125 
L 64.40625 56.890625 
Q 59.421875 61.53125 53.78125 63.8125 
Q 48.140625 66.109375 41.796875 66.109375 
Q 29.296875 66.109375 22.65625 58.46875 
Q 16.015625 50.828125 16.015625 36.375 
Q 16.015625 21.96875 22.65625 14.328125 
Q 29.296875 6.6875 41.796875 6.6875 
Q 48.140625 6.6875 53.78125 8.984375 
Q 59.421875 11.28125 64.40625 15.921875 
L 64.40625 5.609375 
Q 59.234375 2.09375 53.4375 0.328125 
Q 47.65625 -1.421875 41.21875 -1.421875 
Q 24.65625 -1.421875 15.125 8.703125 
Q 5.609375 18.84375 5.609375 36.375 
Q 5.609375 53.953125 15.125 64.078125 
Q 24.65625 74.21875 41.21875 74.21875 
Q 47.75 74.21875 53.53125 72.484375 
Q 59.328125 70.75 64.40625 67.28125 
z
" id="DejaVuSans-43"/>
     <path d="M 9.8125 72.90625 
L 19.671875 72.90625 
L 19.671875 43.015625 
L 55.515625 43.015625 
L 55.515625 72.90625 
L 65.375 72.90625 
L 65.375 0 
L 55.515625 0 
L 55.515625 34.71875 
L 19.671875 34.71875 
L 19.671875 0 
L 9.8125 0 
z
" id="DejaVuSans-48"/>
    </defs>
    <g transform="translate(369.479935 294.223611)scale(0.17 -0.17)">
     <use xlink:href="#DejaVuSans-52"/>
     <use x="69.419922" xlink:href="#DejaVuSans-41"/>
     <use x="137.828125" xlink:href="#DejaVuSans-4e"/>
     <use x="212.632812" xlink:href="#DejaVuSans-44"/>
     <use x="289.634766" xlink:href="#DejaVuSans-4f"/>
     <use x="368.345703" xlink:href="#DejaVuSans-4d"/>
     <use x="454.625" xlink:href="#DejaVuSans-53"/>
     <use x="518.101562" xlink:href="#DejaVuSans-45"/>
     <use x="581.285156" xlink:href="#DejaVuSans-41"/>
     <use x="649.693359" xlink:href="#DejaVuSans-52"/>
     <use x="719.097656" xlink:href="#DejaVuSans-43"/>
     <use x="788.921875" xlink:href="#DejaVuSans-48"/>
     <use x="864.117188" xlink:href="#DejaVuSans-2d"/>
     <use x="900.201172" xlink:href="#DejaVuSans-31"/>
     <use x="963.824219" xlink:href="#DejaVuSans-30"/>
     <use x="1027.447266" xlink:href="#DejaVuSans-30"/>
    </g>
   </g>
   <g id="text_15">
    <!-- RANDOMSEARCH-5 A -->
    <defs>
     <path d="M 10.796875 72.90625 
L 49.515625 72.90625 
L 49.515625 64.59375 
L 19.828125 64.59375 
L 19.828125 46.734375 
Q 21.96875 47.46875 24.109375 47.828125 
Q 26.265625 48.1875 28.421875 48.1875 
Q 40.625 48.1875 47.75 41.5 
Q 54.890625 34.8125 54.890625 23.390625 
Q 54.890625 11.625 47.5625 5.09375 
Q 40.234375 -1.421875 26.90625 -1.421875 
Q 22.3125 -1.421875 17.546875 -0.640625 
Q 12.796875 0.140625 7.71875 1.703125 
L 7.71875 11.625 
Q 12.109375 9.234375 16.796875 8.0625 
Q 21.484375 6.890625 26.703125 6.890625 
Q 35.15625 6.890625 40.078125 11.328125 
Q 45.015625 15.765625 45.015625 23.390625 
Q 45.015625 31 40.078125 35.4375 
Q 35.15625 39.890625 26.703125 39.890625 
Q 22.75 39.890625 18.8125 39.015625 
Q 14.890625 38.140625 10.796875 36.28125 
z
" id="DejaVuSans-35"/>
    </defs>
    <g transform="translate(369.479935 257.556227)scale(0.17 -0.17)">
     <use xlink:href="#DejaVuSans-52"/>
     <use x="69.419922" xlink:href="#DejaVuSans-41"/>
     <use x="137.828125" xlink:href="#DejaVuSans-4e"/>
     <use x="212.632812" xlink:href="#DejaVuSans-44"/>
     <use x="289.634766" xlink:href="#DejaVuSans-4f"/>
     <use x="368.345703" xlink:href="#DejaVuSans-4d"/>
     <use x="454.625" xlink:href="#DejaVuSans-53"/>
     <use x="518.101562" xlink:href="#DejaVuSans-45"/>
     <use x="581.285156" xlink:href="#DejaVuSans-41"/>
     <use x="649.693359" xlink:href="#DejaVuSans-52"/>
     <use x="719.097656" xlink:href="#DejaVuSans-43"/>
     <use x="788.921875" xlink:href="#DejaVuSans-48"/>
     <use x="864.117188" xlink:href="#DejaVuSans-2d"/>
     <use x="900.201172" xlink:href="#DejaVuSans-35"/>
     <use x="963.824219" xlink:href="#DejaVuSans-20"/>
     <use x="995.611328" xlink:href="#DejaVuSans-41"/>
    </g>
   </g>
   <g id="text_16">
    <!-- RANDOMSEARCH-4 A -->
    <g transform="translate(369.479935 220.888844)scale(0.17 -0.17)">
     <use xlink:href="#DejaVuSans-52"/>
     <use x="69.419922" xlink:href="#DejaVuSans-41"/>
     <use x="137.828125" xlink:href="#DejaVuSans-4e"/>
     <use x="212.632812" xlink:href="#DejaVuSans-44"/>
     <use x="289.634766" xlink:href="#DejaVuSans-4f"/>
     <use x="368.345703" xlink:href="#DejaVuSans-4d"/>
     <use x="454.625" xlink:href="#DejaVuSans-53"/>
     <use x="518.101562" xlink:href="#DejaVuSans-45"/>
     <use x="581.285156" xlink:href="#DejaVuSans-41"/>
     <use x="649.693359" xlink:href="#DejaVuSans-52"/>
     <use x="719.097656" xlink:href="#DejaVuSans-43"/>
     <use x="788.921875" xlink:href="#DejaVuSans-48"/>
     <use x="864.117188" xlink:href="#DejaVuSans-2d"/>
     <use x="900.201172" xlink:href="#DejaVuSans-34"/>
     <use x="963.824219" xlink:href="#DejaVuSans-20"/>
     <use x="995.611328" xlink:href="#DejaVuSans-41"/>
    </g>
   </g>
   <g id="text_17">
    <!-- NSGA-II-MATLAB A -->
    <defs>
     <path d="M 59.515625 10.40625 
L 59.515625 29.984375 
L 43.40625 29.984375 
L 43.40625 38.09375 
L 69.28125 38.09375 
L 69.28125 6.78125 
Q 63.578125 2.734375 56.6875 0.65625 
Q 49.8125 -1.421875 42 -1.421875 
Q 24.90625 -1.421875 15.25 8.5625 
Q 5.609375 18.5625 5.609375 36.375 
Q 5.609375 54.25 15.25 64.234375 
Q 24.90625 74.21875 42 74.21875 
Q 49.125 74.21875 55.546875 72.453125 
Q 61.96875 70.703125 67.390625 67.28125 
L 67.390625 56.78125 
Q 61.921875 61.421875 55.765625 63.765625 
Q 49.609375 66.109375 42.828125 66.109375 
Q 29.4375 66.109375 22.71875 58.640625 
Q 16.015625 51.171875 16.015625 36.375 
Q 16.015625 21.625 22.71875 14.15625 
Q 29.4375 6.6875 42.828125 6.6875 
Q 48.046875 6.6875 52.140625 7.59375 
Q 56.25 8.5 59.515625 10.40625 
z
" id="DejaVuSans-47"/>
     <path d="M 9.8125 72.90625 
L 19.671875 72.90625 
L 19.671875 0 
L 9.8125 0 
z
" id="DejaVuSans-49"/>
     <path d="M -0.296875 72.90625 
L 61.375 72.90625 
L 61.375 64.59375 
L 35.5 64.59375 
L 35.5 0 
L 25.59375 0 
L 25.59375 64.59375 
L -0.296875 64.59375 
z
" id="DejaVuSans-54"/>
     <path d="M 9.8125 72.90625 
L 19.671875 72.90625 
L 19.671875 8.296875 
L 55.171875 8.296875 
L 55.171875 0 
L 9.8125 0 
z
" id="DejaVuSans-4c"/>
     <path d="M 19.671875 34.8125 
L 19.671875 8.109375 
L 35.5 8.109375 
Q 43.453125 8.109375 47.28125 11.40625 
Q 51.125 14.703125 51.125 21.484375 
Q 51.125 28.328125 47.28125 31.5625 
Q 43.453125 34.8125 35.5 34.8125 
z
M 19.671875 64.796875 
L 19.671875 42.828125 
L 34.28125 42.828125 
Q 41.5 42.828125 45.03125 45.53125 
Q 48.578125 48.25 48.578125 53.8125 
Q 48.578125 59.328125 45.03125 62.0625 
Q 41.5 64.796875 34.28125 64.796875 
z
M 9.8125 72.90625 
L 35.015625 72.90625 
Q 46.296875 72.90625 52.390625 68.21875 
Q 58.5 63.53125 58.5 54.890625 
Q 58.5 48.1875 55.375 44.234375 
Q 52.25 40.28125 46.1875 39.3125 
Q 53.46875 37.75 57.5 32.78125 
Q 61.53125 27.828125 61.53125 20.40625 
Q 61.53125 10.640625 54.890625 5.3125 
Q 48.25 0 35.984375 0 
L 9.8125 0 
z
" id="DejaVuSans-42"/>
    </defs>
    <g transform="translate(369.479935 184.221461)scale(0.17 -0.17)">
     <use xlink:href="#DejaVuSans-4e"/>
     <use x="74.804688" xlink:href="#DejaVuSans-53"/>
     <use x="138.28125" xlink:href="#DejaVuSans-47"/>
     <use x="215.771484" xlink:href="#DejaVuSans-41"/>
     <use x="284.148438" xlink:href="#DejaVuSans-2d"/>
     <use x="320.232422" xlink:href="#DejaVuSans-49"/>
     <use x="349.724609" xlink:href="#DejaVuSans-49"/>
     <use x="379.216797" xlink:href="#DejaVuSans-2d"/>
     <use x="415.300781" xlink:href="#DejaVuSans-4d"/>
     <use x="501.580078" xlink:href="#DejaVuSans-41"/>
     <use x="569.878906" xlink:href="#DejaVuSans-54"/>
     <use x="630.962891" xlink:href="#DejaVuSans-4c"/>
     <use x="686.707031" xlink:href="#DejaVuSans-41"/>
     <use x="755.115234" xlink:href="#DejaVuSans-42"/>
     <use x="823.71875" xlink:href="#DejaVuSans-20"/>
     <use x="855.505859" xlink:href="#DejaVuSans-41"/>
    </g>
   </g>
   <g id="text_18">
    <!-- SMS-EMOA-PM Auge -->
    <defs>
     <path d="M 19.671875 64.796875 
L 19.671875 37.40625 
L 32.078125 37.40625 
Q 38.96875 37.40625 42.71875 40.96875 
Q 46.484375 44.53125 46.484375 51.125 
Q 46.484375 57.671875 42.71875 61.234375 
Q 38.96875 64.796875 32.078125 64.796875 
z
M 9.8125 72.90625 
L 32.078125 72.90625 
Q 44.34375 72.90625 50.609375 67.359375 
Q 56.890625 61.8125 56.890625 51.125 
Q 56.890625 40.328125 50.609375 34.8125 
Q 44.34375 29.296875 32.078125 29.296875 
L 19.671875 29.296875 
L 19.671875 0 
L 9.8125 0 
z
" id="DejaVuSans-50"/>
    </defs>
    <g transform="translate(369.479935 147.554078)scale(0.17 -0.17)">
     <use xlink:href="#DejaVuSans-53"/>
     <use x="63.476562" xlink:href="#DejaVuSans-4d"/>
     <use x="149.755859" xlink:href="#DejaVuSans-53"/>
     <use x="213.232422" xlink:href="#DejaVuSans-2d"/>
     <use x="249.316406" xlink:href="#DejaVuSans-45"/>
     <use x="312.5" xlink:href="#DejaVuSans-4d"/>
     <use x="398.779297" xlink:href="#DejaVuSans-4f"/>
     <use x="477.474609" xlink:href="#DejaVuSans-41"/>
     <use x="545.851562" xlink:href="#DejaVuSans-2d"/>
     <use x="581.935547" xlink:href="#DejaVuSans-50"/>
     <use x="642.238281" xlink:href="#DejaVuSans-4d"/>
     <use x="728.517578" xlink:href="#DejaVuSans-20"/>
     <use x="760.304688" xlink:href="#DejaVuSans-41"/>
     <use x="828.712891" xlink:href="#DejaVuSans-75"/>
     <use x="892.091797" xlink:href="#DejaVuSans-67"/>
     <use x="955.568359" xlink:href="#DejaVuSans-65"/>
    </g>
   </g>
   <g id="text_19">
    <!-- SMS-EMOA-DE Auge -->
    <g transform="translate(369.479935 110.886694)scale(0.17 -0.17)">
     <use xlink:href="#DejaVuSans-53"/>
     <use x="63.476562" xlink:href="#DejaVuSans-4d"/>
     <use x="149.755859" xlink:href="#DejaVuSans-53"/>
     <use x="213.232422" xlink:href="#DejaVuSans-2d"/>
     <use x="249.316406" xlink:href="#DejaVuSans-45"/>
     <use x="312.5" xlink:href="#DejaVuSans-4d"/>
     <use x="398.779297" xlink:href="#DejaVuSans-4f"/>
     <use x="477.474609" xlink:href="#DejaVuSans-41"/>
     <use x="545.851562" xlink:href="#DejaVuSans-2d"/>
     <use x="581.935547" xlink:href="#DejaVuSans-44"/>
     <use x="658.9375" xlink:href="#DejaVuSans-45"/>
     <use x="722.121094" xlink:href="#DejaVuSans-20"/>
     <use x="753.908203" xlink:href="#DejaVuSans-41"/>
     <use x="822.316406" xlink:href="#DejaVuSans-75"/>
     <use x="885.695312" xlink:href="#DejaVuSans-67"/>
     <use x="949.171875" xlink:href="#DejaVuSans-65"/>
    </g>
   </g>
   <g id="text_20">
    <!-- best 2016 -->
    <defs>
     <path d="M 48.6875 27.296875 
Q 48.6875 37.203125 44.609375 42.84375 
Q 40.53125 48.484375 33.40625 48.484375 
Q 26.265625 48.484375 22.1875 42.84375 
Q 18.109375 37.203125 18.109375 27.296875 
Q 18.109375 17.390625 22.1875 11.75 
Q 26.265625 6.109375 33.40625 6.109375 
Q 40.53125 6.109375 44.609375 11.75 
Q 48.6875 17.390625 48.6875 27.296875 
z
M 18.109375 46.390625 
Q 20.953125 51.265625 25.265625 53.625 
Q 29.59375 56 35.59375 56 
Q 45.5625 56 51.78125 48.09375 
Q 58.015625 40.1875 58.015625 27.296875 
Q 58.015625 14.40625 51.78125 6.484375 
Q 45.5625 -1.421875 35.59375 -1.421875 
Q 29.59375 -1.421875 25.265625 0.953125 
Q 20.953125 3.328125 18.109375 8.203125 
L 18.109375 0 
L 9.078125 0 
L 9.078125 75.984375 
L 18.109375 75.984375 
z
" id="DejaVuSans-62"/>
    </defs>
    <g transform="translate(369.479935 74.219311)scale(0.17 -0.17)">
     <use xlink:href="#DejaVuSans-62"/>
     <use x="63.476562" xlink:href="#DejaVuSans-65"/>
     <use x="125" xlink:href="#DejaVuSans-73"/>
     <use x="177.099609" xlink:href="#DejaVuSans-74"/>
     <use x="216.308594" xlink:href="#DejaVuSans-20"/>
     <use x="248.095703" xlink:href="#DejaVuSans-32"/>
     <use x="311.71875" xlink:href="#DejaVuSans-30"/>
     <use x="375.341797" xlink:href="#DejaVuSans-31"/>
     <use x="438.964844" xlink:href="#DejaVuSans-36"/>
    </g>
   </g>
   <g id="text_21">
    <!-- RM-MEDA Auger bb -->
    <g transform="translate(369.479935 37.551928)scale(0.17 -0.17)">
     <use xlink:href="#DejaVuSans-52"/>
     <use x="69.482422" xlink:href="#DejaVuSans-4d"/>
     <use x="155.761719" xlink:href="#DejaVuSans-2d"/>
     <use x="191.845703" xlink:href="#DejaVuSans-4d"/>
     <use x="278.125" xlink:href="#DejaVuSans-45"/>
     <use x="341.308594" xlink:href="#DejaVuSans-44"/>
     <use x="418.294922" xlink:href="#DejaVuSans-41"/>
     <use x="486.703125" xlink:href="#DejaVuSans-20"/>
     <use x="518.490234" xlink:href="#DejaVuSans-41"/>
     <use x="586.898438" xlink:href="#DejaVuSans-75"/>
     <use x="650.277344" xlink:href="#DejaVuSans-67"/>
     <use x="713.753906" xlink:href="#DejaVuSans-65"/>
     <use x="775.277344" xlink:href="#DejaVuSans-72"/>
     <use x="816.390625" xlink:href="#DejaVuSans-20"/>
     <use x="848.177734" xlink:href="#DejaVuSans-62"/>
     <use x="911.654297" xlink:href="#DejaVuSans-62"/>
    </g>
   </g>
   <g id="text_22">
    <!-- bbob-biobj f55, 40-D -->
    <defs>
     <path d="M 9.421875 54.6875 
L 18.40625 54.6875 
L 18.40625 -0.984375 
Q 18.40625 -11.421875 14.421875 -16.109375 
Q 10.453125 -20.796875 1.609375 -20.796875 
L -1.8125 -20.796875 
L -1.8125 -13.1875 
L 0.59375 -13.1875 
Q 5.71875 -13.1875 7.5625 -10.8125 
Q 9.421875 -8.453125 9.421875 -0.984375 
z
M 9.421875 75.984375 
L 18.40625 75.984375 
L 18.40625 64.59375 
L 9.421875 64.59375 
z
" id="DejaVuSans-6a"/>
    </defs>
    <g transform="translate(59.55864 35.290806)scale(0.102 -0.102)">
     <use xlink:href="#DejaVuSans-62"/>
     <use x="63.476562" xlink:href="#DejaVuSans-62"/>
     <use x="126.953125" xlink:href="#DejaVuSans-6f"/>
     <use x="188.134766" xlink:href="#DejaVuSans-62"/>
     <use x="251.611328" xlink:href="#DejaVuSans-2d"/>
     <use x="287.695312" xlink:href="#DejaVuSans-62"/>
     <use x="351.171875" xlink:href="#DejaVuSans-69"/>
     <use x="378.955078" xlink:href="#DejaVuSans-6f"/>
     <use x="440.136719" xlink:href="#DejaVuSans-62"/>
     <use x="503.613281" xlink:href="#DejaVuSans-6a"/>
     <use x="531.396484" xlink:href="#DejaVuSans-20"/>
     <use x="563.183594" xlink:href="#DejaVuSans-66"/>
     <use x="598.388672" xlink:href="#DejaVuSans-35"/>
     <use x="662.011719" xlink:href="#DejaVuSans-35"/>
     <use x="725.634766" xlink:href="#DejaVuSans-2c"/>
     <use x="757.421875" xlink:href="#DejaVuSans-20"/>
     <use x="789.208984" xlink:href="#DejaVuSans-34"/>
     <use x="852.832031" xlink:href="#DejaVuSans-30"/>
     <use x="916.455078" xlink:href="#DejaVuSans-2d"/>
     <use x="952.539062" xlink:href="#DejaVuSans-44"/>
    </g>
    <!-- 58 targets: 1..-1.0e-4 -->
    <defs>
     <path d="M 11.71875 12.40625 
L 22.015625 12.40625 
L 22.015625 0 
L 11.71875 0 
z
M 11.71875 51.703125 
L 22.015625 51.703125 
L 22.015625 39.3125 
L 11.71875 39.3125 
z
" id="DejaVuSans-3a"/>
    </defs>
    <g transform="translate(59.55864 46.712575)scale(0.102 -0.102)">
     <use xlink:href="#DejaVuSans-35"/>
     <use x="63.623047" xlink:href="#DejaVuSans-38"/>
     <use x="127.246094" xlink:href="#DejaVuSans-20"/>
     <use x="159.033203" xlink:href="#DejaVuSans-74"/>
     <use x="198.242188" xlink:href="#DejaVuSans-61"/>
     <use x="259.521484" xlink:href="#DejaVuSans-72"/>
     <use x="300.619141" xlink:href="#DejaVuSans-67"/>
     <use x="364.095703" xlink:href="#DejaVuSans-65"/>
     <use x="425.619141" xlink:href="#DejaVuSans-74"/>
     <use x="464.828125" xlink:href="#DejaVuSans-73"/>
     <use x="516.927734" xlink:href="#DejaVuSans-3a"/>
     <use x="550.619141" xlink:href="#DejaVuSans-20"/>
     <use x="582.40625" xlink:href="#DejaVuSans-31"/>
     <use x="646.029297" xlink:href="#DejaVuSans-2e"/>
     <use x="677.816406" xlink:href="#DejaVuSans-2e"/>
     <use x="709.603516" xlink:href="#DejaVuSans-2d"/>
     <use x="745.6875" xlink:href="#DejaVuSans-31"/>
     <use x="809.310547" xlink:href="#DejaVuSans-2e"/>
     <use x="841.097656" xlink:href="#DejaVuSans-30"/>
     <use x="904.720703" xlink:href="#DejaVuSans-65"/>
     <use x="966.244141" xlink:href="#DejaVuSans-2d"/>
     <use x="1002.328125" xlink:href="#DejaVuSans-34"/>
    </g>
    <!-- 10 instances -->
    <g transform="translate(59.55864 58.134344)scale(0.102 -0.102)">
     <use xlink:href="#DejaVuSans-31"/>
     <use x="63.623047" xlink:href="#DejaVuSans-30"/>
     <use x="127.246094" xlink:href="#DejaVuSans-20"/>
     <use x="159.033203" xlink:href="#DejaVuSans-69"/>
     <use x="186.816406" xlink:href="#DejaVuSans-6e"/>
     <use x="250.195312" xlink:href="#DejaVuSans-73"/>
     <use x="302.294922" xlink:href="#DejaVuSans-74"/>
     <use x="341.503906" xlink:href="#DejaVuSans-61"/>
     <use x="402.783203" xlink:href="#DejaVuSans-6e"/>
     <use x="466.162109" xlink:href="#DejaVuSans-63"/>
     <use x="521.142578" xlink:href="#DejaVuSans-65"/>
     <use x="582.666016" xlink:href="#DejaVuSans-73"/>
    </g>
   </g>
   <g id="text_23">
    <!-- v2.0.778, hv-hash=ff0e71e8cd978373 -->
    <defs>
     <path d="M 8.203125 72.90625 
L 55.078125 72.90625 
L 55.078125 68.703125 
L 28.609375 0 
L 18.3125 0 
L 43.21875 64.59375 
L 8.203125 64.59375 
z
" id="DejaVuSans-37"/>
     <path d="M 54.890625 33.015625 
L 54.890625 0 
L 45.90625 0 
L 45.90625 32.71875 
Q 45.90625 40.484375 42.875 44.328125 
Q 39.84375 48.1875 33.796875 48.1875 
Q 26.515625 48.1875 22.3125 43.546875 
Q 18.109375 38.921875 18.109375 30.90625 
L 18.109375 0 
L 9.078125 0 
L 9.078125 75.984375 
L 18.109375 75.984375 
L 18.109375 46.1875 
Q 21.34375 51.125 25.703125 53.5625 
Q 30.078125 56 35.796875 56 
Q 45.21875 56 50.046875 50.171875 
Q 54.890625 44.34375 54.890625 33.015625 
z
" id="DejaVuSans-68"/>
     <path d="M 10.59375 45.40625 
L 73.1875 45.40625 
L 73.1875 37.203125 
L 10.59375 37.203125 
z
M 10.59375 25.484375 
L 73.1875 25.484375 
L 73.1875 17.1875 
L 10.59375 17.1875 
z
" id="DejaVuSans-3d"/>
     <path d="M 10.984375 1.515625 
L 10.984375 10.5 
Q 14.703125 8.734375 18.5 7.8125 
Q 22.3125 6.890625 25.984375 6.890625 
Q 35.75 6.890625 40.890625 13.453125 
Q 46.046875 20.015625 46.78125 33.40625 
Q 43.953125 29.203125 39.59375 26.953125 
Q 35.25 24.703125 29.984375 24.703125 
Q 19.046875 24.703125 12.671875 31.3125 
Q 6.296875 37.9375 6.296875 49.421875 
Q 6.296875 60.640625 12.9375 67.421875 
Q 19.578125 74.21875 30.609375 74.21875 
Q 43.265625 74.21875 49.921875 64.515625 
Q 56.59375 54.828125 56.59375 36.375 
Q 56.59375 19.140625 48.40625 8.859375 
Q 40.234375 -1.421875 26.421875 -1.421875 
Q 22.703125 -1.421875 18.890625 -0.6875 
Q 15.09375 0.046875 10.984375 1.515625 
z
M 30.609375 32.421875 
Q 37.25 32.421875 41.125 36.953125 
Q 45.015625 41.5 45.015625 49.421875 
Q 45.015625 57.28125 41.125 61.84375 
Q 37.25 66.40625 30.609375 66.40625 
Q 23.96875 66.40625 20.09375 61.84375 
Q 16.21875 57.28125 16.21875 49.421875 
Q 16.21875 41.5 20.09375 36.953125 
Q 23.96875 32.421875 30.609375 32.421875 
z
" id="DejaVuSans-39"/>
     <path d="M 40.578125 39.3125 
Q 47.65625 37.796875 51.625 33 
Q 55.609375 28.21875 55.609375 21.1875 
Q 55.609375 10.40625 48.1875 4.484375 
Q 40.765625 -1.421875 27.09375 -1.421875 
Q 22.515625 -1.421875 17.65625 -0.515625 
Q 12.796875 0.390625 7.625 2.203125 
L 7.625 11.71875 
Q 11.71875 9.328125 16.59375 8.109375 
Q 21.484375 6.890625 26.8125 6.890625 
Q 36.078125 6.890625 40.9375 10.546875 
Q 45.796875 14.203125 45.796875 21.1875 
Q 45.796875 27.640625 41.28125 31.265625 
Q 36.765625 34.90625 28.71875 34.90625 
L 20.21875 34.90625 
L 20.21875 43.015625 
L 29.109375 43.015625 
Q 36.375 43.015625 40.234375 45.921875 
Q 44.09375 48.828125 44.09375 54.296875 
Q 44.09375 59.90625 40.109375 62.90625 
Q 36.140625 65.921875 28.71875 65.921875 
Q 24.65625 65.921875 20.015625 65.03125 
Q 15.375 64.15625 9.8125 62.3125 
L 9.8125 71.09375 
Q 15.4375 72.65625 20.34375 73.4375 
Q 25.25 74.21875 29.59375 74.21875 
Q 40.828125 74.21875 47.359375 69.109375 
Q 53.90625 64.015625 53.90625 55.328125 
Q 53.90625 49.265625 50.4375 45.09375 
Q 46.96875 40.921875 40.578125 39.3125 
z
" id="DejaVuSans-33"/>
    </defs>
    <g style="fill:#808080;" transform="translate(131.294188 290.099912)scale(0.1 -0.1)">
     <use xlink:href="#DejaVuSans-76"/>
     <use x="59.179688" xlink:href="#DejaVuSans-32"/>
     <use x="122.802734" xlink:href="#DejaVuSans-2e"/>
     <use x="154.589844" xlink:href="#DejaVuSans-30"/>
     <use x="218.212891" xlink:href="#DejaVuSans-2e"/>
     <use x="250" xlink:href="#DejaVuSans-37"/>
     <use x="313.623047" xlink:href="#DejaVuSans-37"/>
     <use x="377.246094" xlink:href="#DejaVuSans-38"/>
     <use x="440.869141" xlink:href="#DejaVuSans-2c"/>
     <use x="472.65625" xlink:href="#DejaVuSans-20"/>
     <use x="504.443359" xlink:href="#DejaVuSans-68"/>
     <use x="567.822266" xlink:href="#DejaVuSans-76"/>
     <use x="626.970703" xlink:href="#DejaVuSans-2d"/>
     <use x="663.054688" xlink:href="#DejaVuSans-68"/>
     <use x="726.433594" xlink:href="#DejaVuSans-61"/>
     <use x="787.712891" xlink:href="#DejaVuSans-73"/>
     <use x="839.8125" xlink:href="#DejaVuSans-68"/>
     <use x="903.191406" xlink:href="#DejaVuSans-3d"/>
     <use x="986.980469" xlink:href="#DejaVuSans-66"/>
     <use x="1022.185547" xlink:href="#DejaVuSans-66"/>
     <use x="1057.390625" xlink:href="#DejaVuSans-30"/>
     <use x="1121.013672" xlink:href="#DejaVuSans-65"/>
     <use x="1182.537109" xlink:href="#DejaVuSans-37"/>
     <use x="1246.160156" xlink:href="#DejaVuSans-31"/>
     <use x="1309.783203" xlink:href="#DejaVuSans-65"/>
     <use x="1371.306641" xlink:href="#DejaVuSans-38"/>
     <use x="1434.929688" xlink:href="#DejaVuSans-63"/>
     <use x="1489.910156" xlink:href="#DejaVuSans-64"/>
     <use x="1553.386719" xlink:href="#DejaVuSans-39"/>
     <use x="1617.009766" xlink:href="#DejaVuSans-37"/>
     <use x="1680.632812" xlink:href="#DejaVuSans-38"/>
     <use x="1744.255859" xlink:href="#DejaVuSans-33"/>
     <use x="1807.878906" xlink:href="#DejaVuSans-37"/>
     <use x="1871.501953" xlink:href="#DejaVuSans-33"/>
    </g>
   </g>
   <g id="text_24">
    <!-- 55 Gallagher 101/Gallagher 101 -->
    <g transform="translate(67.227 18.84)scale(0.2 -0.2)">
     <use xlink:href="#DejaVuSans-35"/>
     <use x="63.623047" xlink:href="#DejaVuSans-35"/>
     <use x="127.246094" xlink:href="#DejaVuSans-20"/>
     <use x="159.033203" xlink:href="#DejaVuSans-47"/>
     <use x="236.523438" xlink:href="#DejaVuSans-61"/>
     <use x="297.802734" xlink:href="#DejaVuSans-6c"/>
     <use x="325.585938" xlink:href="#DejaVuSans-6c"/>
     <use x="353.369141" xlink:href="#DejaVuSans-61"/>
     <use x="414.648438" xlink:href="#DejaVuSans-67"/>
     <use x="478.125" xlink:href="#DejaVuSans-68"/>
     <use x="541.503906" xlink:href="#DejaVuSans-65"/>
     <use x="603.027344" xlink:href="#DejaVuSans-72"/>
     <use x="644.140625" xlink:href="#DejaVuSans-20"/>
     <use x="675.927734" xlink:href="#DejaVuSans-31"/>
     <use x="739.550781" xlink:href="#DejaVuSans-30"/>
     <use x="803.173828" xlink:href="#DejaVuSans-31"/>
     <use x="866.796875" xlink:href="#DejaVuSans-2f"/>
     <use x="900.488281" xlink:href="#DejaVuSans-47"/>
     <use x="977.978516" xlink:href="#DejaVuSans-61"/>
     <use x="1039.257812" xlink:href="#DejaVuSans-6c"/>
     <use x="1067.041016" xlink:href="#DejaVuSans-6c"/>
     <use x="1094.824219" xlink:href="#DejaVuSans-61"/>
     <use x="1156.103516" xlink:href="#DejaVuSans-67"/>
     <use x="1219.580078" xlink:href="#DejaVuSans-68"/>
     <use x="1282.958984" xlink:href="#DejaVuSans-65"/>
     <use x="1344.482422" xlink:href="#DejaVuSans-72"/>
     <use x="1385.595703" xlink:href="#DejaVuSans-20"/>
     <use x="1417.382812" xlink:href="#DejaVuSans-31"/>
     <use x="1481.005859" xlink:href="#DejaVuSans-30"/>
     <use x="1544.628906" xlink:href="#DejaVuSans-31"/>
    </g>
   </g>
  </g>
 </g>
 <defs>
  <clipPath id="p6c11e868eb">
   <rect height="270.04" width="343.864" x="56.12" y="24.84"/>
  </clipPath>
 </defs>
</svg>
