<?xml version="1.0" encoding="utf-8" standalone="no"?>
<!DOCTYPE svg PUBLIC "-//W3C//DTD SVG 1.1//EN"
  "http://www.w3.org/Graphics/SVG/1.1/DTD/svg11.dtd">
<!-- Created with matplotlib (http://matplotlib.org/) -->
<svg height="345pt" version="1.1" viewBox="0 0 460 345" width="460pt" xmlns="http://www.w3.org/2000/svg" xmlns:xlink="http://www.w3.org/1999/xlink">
 <defs>
  <style type="text/css">
*{stroke-linecap:butt;stroke-linejoin:round;}
  </style>
 </defs>
 <g id="figure_1">
  <g id="patch_1">
   <path d="M 0 345.6 
L 460.8 345.6 
L 460.8 0 
L 0 0 
z
" style="fill:#ffffff;"/>
  </g>
  <g id="axes_1">
   <g id="patch_2">
    <path d="M 22.69 315.44 
L 450.672 315.44 
L 450.672 25.56 
L 22.69 25.56 
z
" style="fill:#ffffff;"/>
   </g>
   <g id="line2d_1">
    <path clip-path="url(#p45b3d64d10)" d="M 36.698743 163.165238 
L 90.609418 128.25026 
L 158.528836 80.948689 
L 250.689743 64.47503 
L 342.85065 80.735423 
L 435.011558 64.405361 
" style="fill:none;stroke:#f5deb3;stroke-linecap:square;stroke-width:10;"/>
    <defs>
     <path d="M -0 17.67767 
L 10.606602 0 
L 0 -17.67767 
L -10.606602 -0 
z
" id="m8888a86cf1" style="stroke:#f5deb3;stroke-linejoin:miter;"/>
    </defs>
    <g clip-path="url(#p45b3d64d10)">
     <use style="fill:#f5deb3;stroke:#f5deb3;stroke-linejoin:miter;" x="36.698743" xlink:href="#m8888a86cf1" y="163.165238"/>
     <use style="fill:#f5deb3;stroke:#f5deb3;stroke-linejoin:miter;" x="90.609418" xlink:href="#m8888a86cf1" y="128.25026"/>
     <use style="fill:#f5deb3;stroke:#f5deb3;stroke-linejoin:miter;" x="158.528836" xlink:href="#m8888a86cf1" y="80.948689"/>
     <use style="fill:#f5deb3;stroke:#f5deb3;stroke-linejoin:miter;" x="250.689743" xlink:href="#m8888a86cf1" y="64.47503"/>
     <use style="fill:#f5deb3;stroke:#f5deb3;stroke-linejoin:miter;" x="342.85065" xlink:href="#m8888a86cf1" y="80.735423"/>
     <use style="fill:#f5deb3;stroke:#f5deb3;stroke-linejoin:miter;" x="435.011558" xlink:href="#m8888a86cf1" y="64.405361"/>
    </g>
   </g>
   <g id="matplotlib.axis_1">
    <g id="xtick_1">
     <g id="line2d_2">
      <defs>
       <path d="M 0 0 
L 0 3.5 
" id="m2cbb67287a" style="stroke:#000000;stroke-width:0.8;"/>
      </defs>
      <g>
       <use style="stroke:#000000;stroke-width:0.8;" x="36.698743" xlink:href="#m2cbb67287a" y="315.44"/>
      </g>
     </g>
     <g id="text_1">
      <!-- 2 -->
      <defs>
       <path d="M 19.1875 8.296875 
L 53.609375 8.296875 
L 53.609375 0 
L 7.328125 0 
L 7.328125 8.296875 
Q 12.9375 14.109375 22.625 23.890625 
Q 32.328125 33.6875 34.8125 36.53125 
Q 39.546875 41.84375 41.421875 45.53125 
Q 43.3125 49.21875 43.3125 52.78125 
Q 43.3125 58.59375 39.234375 62.25 
Q 35.15625 65.921875 28.609375 65.921875 
Q 23.96875 65.921875 18.8125 64.3125 
Q 13.671875 62.703125 7.8125 59.421875 
L 7.8125 69.390625 
Q 13.765625 71.78125 18.9375 73 
Q 24.125 74.21875 28.421875 74.21875 
Q 39.75 74.21875 46.484375 68.546875 
Q 53.21875 62.890625 53.21875 53.421875 
Q 53.21875 48.921875 51.53125 44.890625 
Q 49.859375 40.875 45.40625 35.40625 
Q 44.1875 33.984375 37.640625 27.21875 
Q 31.109375 20.453125 19.1875 8.296875 
z
" id="DejaVuSans-32"/>
      </defs>
      <g transform="translate(30.336243 337.636875)scale(0.2 -0.2)">
       <use xlink:href="#DejaVuSans-32"/>
      </g>
     </g>
    </g>
    <g id="xtick_2">
     <g id="line2d_3">
      <g>
       <use style="stroke:#000000;stroke-width:0.8;" x="90.609418" xlink:href="#m2cbb67287a" y="315.44"/>
      </g>
     </g>
     <g id="text_2">
      <!-- 3 -->
      <defs>
       <path d="M 40.578125 39.3125 
Q 47.65625 37.796875 51.625 33 
Q 55.609375 28.21875 55.609375 21.1875 
Q 55.609375 10.40625 48.1875 4.484375 
Q 40.765625 -1.421875 27.09375 -1.421875 
Q 22.515625 -1.421875 17.65625 -0.515625 
Q 12.796875 0.390625 7.625 2.203125 
L 7.625 11.71875 
Q 11.71875 9.328125 16.59375 8.109375 
Q 21.484375 6.890625 26.8125 6.890625 
Q 36.078125 6.890625 40.9375 10.546875 
Q 45.796875 14.203125 45.796875 21.1875 
Q 45.796875 27.640625 41.28125 31.265625 
Q 36.765625 34.90625 28.71875 34.90625 
L 20.21875 34.90625 
L 20.21875 43.015625 
L 29.109375 43.015625 
Q 36.375 43.015625 40.234375 45.921875 
Q 44.09375 48.828125 44.09375 54.296875 
Q 44.09375 59.90625 40.109375 62.90625 
Q 36.140625 65.921875 28.71875 65.921875 
Q 24.65625 65.921875 20.015625 65.03125 
Q 15.375 64.15625 9.8125 62.3125 
L 9.8125 71.09375 
Q 15.4375 72.65625 20.34375 73.4375 
Q 25.25 74.21875 29.59375 74.21875 
Q 40.828125 74.21875 47.359375 69.109375 
Q 53.90625 64.015625 53.90625 55.328125 
Q 53.90625 49.265625 50.4375 45.09375 
Q 46.96875 40.921875 40.578125 39.3125 
z
" id="DejaVuSans-33"/>
      </defs>
      <g transform="translate(84.246918 337.636875)scale(0.2 -0.2)">
       <use xlink:href="#DejaVuSans-33"/>
      </g>
     </g>
    </g>
    <g id="xtick_3">
     <g id="line2d_4">
      <g>
       <use style="stroke:#000000;stroke-width:0.8;" x="158.528836" xlink:href="#m2cbb67287a" y="315.44"/>
      </g>
     </g>
     <g id="text_3">
      <!-- 5 -->
      <defs>
       <path d="M 10.796875 72.90625 
L 49.515625 72.90625 
L 49.515625 64.59375 
L 19.828125 64.59375 
L 19.828125 46.734375 
Q 21.96875 47.46875 24.109375 47.828125 
Q 26.265625 48.1875 28.421875 48.1875 
Q 40.625 48.1875 47.75 41.5 
Q 54.890625 34.8125 54.890625 23.390625 
Q 54.890625 11.625 47.5625 5.09375 
Q 40.234375 -1.421875 26.90625 -1.421875 
Q 22.3125 -1.421875 17.546875 -0.640625 
Q 12.796875 0.140625 7.71875 1.703125 
L 7.71875 11.625 
Q 12.109375 9.234375 16.796875 8.0625 
Q 21.484375 6.890625 26.703125 6.890625 
Q 35.15625 6.890625 40.078125 11.328125 
Q 45.015625 15.765625 45.015625 23.390625 
Q 45.015625 31 40.078125 35.4375 
Q 35.15625 39.890625 26.703125 39.890625 
Q 22.75 39.890625 18.8125 39.015625 
Q 14.890625 38.140625 10.796875 36.28125 
z
" id="DejaVuSans-35"/>
      </defs>
      <g transform="translate(152.166336 337.636875)scale(0.2 -0.2)">
       <use xlink:href="#DejaVuSans-35"/>
      </g>
     </g>
    </g>
    <g id="xtick_4">
     <g id="line2d_5">
      <g>
       <use style="stroke:#000000;stroke-width:0.8;" x="250.689743" xlink:href="#m2cbb67287a" y="315.44"/>
      </g>
     </g>
     <g id="text_4">
      <!-- 10 -->
      <defs>
       <path d="M 12.40625 8.296875 
L 28.515625 8.296875 
L 28.515625 63.921875 
L 10.984375 60.40625 
L 10.984375 69.390625 
L 28.421875 72.90625 
L 38.28125 72.90625 
L 38.28125 8.296875 
L 54.390625 8.296875 
L 54.390625 0 
L 12.40625 0 
z
" id="DejaVuSans-31"/>
       <path d="M 31.78125 66.40625 
Q 24.171875 66.40625 20.328125 58.90625 
Q 16.5 51.421875 16.5 36.375 
Q 16.5 21.390625 20.328125 13.890625 
Q 24.171875 6.390625 31.78125 6.390625 
Q 39.453125 6.390625 43.28125 13.890625 
Q 47.125 21.390625 47.125 36.375 
Q 47.125 51.421875 43.28125 58.90625 
Q 39.453125 66.40625 31.78125 66.40625 
z
M 31.78125 74.21875 
Q 44.046875 74.21875 50.515625 64.515625 
Q 56.984375 54.828125 56.984375 36.375 
Q 56.984375 17.96875 50.515625 8.265625 
Q 44.046875 -1.421875 31.78125 -1.421875 
Q 19.53125 -1.421875 13.0625 8.265625 
Q 6.59375 17.96875 6.59375 36.375 
Q 6.59375 54.828125 13.0625 64.515625 
Q 19.53125 74.21875 31.78125 74.21875 
z
" id="DejaVuSans-30"/>
      </defs>
      <g transform="translate(237.964743 337.636875)scale(0.2 -0.2)">
       <use xlink:href="#DejaVuSans-31"/>
       <use x="63.623047" xlink:href="#DejaVuSans-30"/>
      </g>
     </g>
    </g>
    <g id="xtick_5">
     <g id="line2d_6">
      <g>
       <use style="stroke:#000000;stroke-width:0.8;" x="342.85065" xlink:href="#m2cbb67287a" y="315.44"/>
      </g>
     </g>
     <g id="text_5">
      <!-- 20 -->
      <g transform="translate(330.12565 337.636875)scale(0.2 -0.2)">
       <use xlink:href="#DejaVuSans-32"/>
       <use x="63.623047" xlink:href="#DejaVuSans-30"/>
      </g>
     </g>
    </g>
    <g id="xtick_6">
     <g id="line2d_7">
      <g>
       <use style="stroke:#000000;stroke-width:0.8;" x="435.011558" xlink:href="#m2cbb67287a" y="315.44"/>
      </g>
     </g>
     <g id="text_6">
      <!-- 40 -->
      <defs>
       <path d="M 37.796875 64.3125 
L 12.890625 25.390625 
L 37.796875 25.390625 
z
M 35.203125 72.90625 
L 47.609375 72.90625 
L 47.609375 25.390625 
L 58.015625 25.390625 
L 58.015625 17.1875 
L 47.609375 17.1875 
L 47.609375 0 
L 37.796875 0 
L 37.796875 17.1875 
L 4.890625 17.1875 
L 4.890625 26.703125 
z
" id="DejaVuSans-34"/>
      </defs>
      <g transform="translate(422.286558 337.636875)scale(0.2 -0.2)">
       <use xlink:href="#DejaVuSans-34"/>
       <use x="63.623047" xlink:href="#DejaVuSans-30"/>
      </g>
     </g>
    </g>
    <g id="xtick_7">
     <g id="line2d_8">
      <defs>
       <path d="M 0 0 
L 0 2 
" id="m346b3e177b" style="stroke:#000000;stroke-width:0.6;"/>
      </defs>
      <g>
       <use style="stroke:#000000;stroke-width:0.6;" x="36.698743" xlink:href="#m346b3e177b" y="315.44"/>
      </g>
     </g>
    </g>
    <g id="xtick_8">
     <g id="line2d_9">
      <g>
       <use style="stroke:#000000;stroke-width:0.6;" x="90.609418" xlink:href="#m346b3e177b" y="315.44"/>
      </g>
     </g>
    </g>
    <g id="xtick_9">
     <g id="line2d_10">
      <g>
       <use style="stroke:#000000;stroke-width:0.6;" x="128.85965" xlink:href="#m346b3e177b" y="315.44"/>
      </g>
     </g>
    </g>
    <g id="xtick_10">
     <g id="line2d_11">
      <g>
       <use style="stroke:#000000;stroke-width:0.6;" x="158.528836" xlink:href="#m346b3e177b" y="315.44"/>
      </g>
     </g>
    </g>
    <g id="xtick_11">
     <g id="line2d_12">
      <g>
       <use style="stroke:#000000;stroke-width:0.6;" x="182.770325" xlink:href="#m346b3e177b" y="315.44"/>
      </g>
     </g>
    </g>
    <g id="xtick_12">
     <g id="line2d_13">
      <g>
       <use style="stroke:#000000;stroke-width:0.6;" x="203.266213" xlink:href="#m346b3e177b" y="315.44"/>
      </g>
     </g>
    </g>
    <g id="xtick_13">
     <g id="line2d_14">
      <g>
       <use style="stroke:#000000;stroke-width:0.6;" x="221.020558" xlink:href="#m346b3e177b" y="315.44"/>
      </g>
     </g>
    </g>
    <g id="xtick_14">
     <g id="line2d_15">
      <g>
       <use style="stroke:#000000;stroke-width:0.6;" x="236.681" xlink:href="#m346b3e177b" y="315.44"/>
      </g>
     </g>
    </g>
    <g id="xtick_15">
     <g id="line2d_16">
      <g>
       <use style="stroke:#000000;stroke-width:0.6;" x="342.85065" xlink:href="#m346b3e177b" y="315.44"/>
      </g>
     </g>
    </g>
    <g id="xtick_16">
     <g id="line2d_17">
      <g>
       <use style="stroke:#000000;stroke-width:0.6;" x="396.761325" xlink:href="#m346b3e177b" y="315.44"/>
      </g>
     </g>
    </g>
    <g id="xtick_17">
     <g id="line2d_18">
      <g>
       <use style="stroke:#000000;stroke-width:0.6;" x="435.011558" xlink:href="#m346b3e177b" y="315.44"/>
      </g>
     </g>
    </g>
   </g>
   <g id="matplotlib.axis_2">
    <g id="ytick_1">
     <g id="line2d_19">
      <path clip-path="url(#p45b3d64d10)" d="M 22.69 272.866215 
L 450.672 272.866215 
" style="fill:none;stroke:#b0b0b0;stroke-linecap:square;stroke-width:0.8;"/>
     </g>
     <g id="line2d_20">
      <defs>
       <path d="M 0 0 
L -3.5 0 
" id="md2493446d6" style="stroke:#000000;stroke-width:0.8;"/>
      </defs>
      <g>
       <use style="stroke:#000000;stroke-width:0.8;" x="22.69" xlink:href="#md2493446d6" y="272.866215"/>
      </g>
     </g>
     <g id="text_7">
      <!-- 1 -->
      <g transform="translate(2.965 280.464653)scale(0.2 -0.2)">
       <use xlink:href="#DejaVuSans-31"/>
      </g>
     </g>
    </g>
    <g id="ytick_2">
     <g id="line2d_21">
      <path clip-path="url(#p45b3d64d10)" d="M 22.69 201.909907 
L 450.672 201.909907 
" style="fill:none;stroke:#b0b0b0;stroke-linecap:square;stroke-width:0.8;"/>
     </g>
     <g id="line2d_22">
      <g>
       <use style="stroke:#000000;stroke-width:0.8;" x="22.69" xlink:href="#md2493446d6" y="201.909907"/>
      </g>
     </g>
     <g id="text_8">
      <!-- 3 -->
      <g transform="translate(2.965 209.508345)scale(0.2 -0.2)">
       <use xlink:href="#DejaVuSans-33"/>
      </g>
     </g>
    </g>
    <g id="ytick_3">
     <g id="line2d_23">
      <path clip-path="url(#p45b3d64d10)" d="M 22.69 130.9536 
L 450.672 130.9536 
" style="fill:none;stroke:#b0b0b0;stroke-linecap:square;stroke-width:0.8;"/>
     </g>
     <g id="line2d_24">
      <g>
       <use style="stroke:#000000;stroke-width:0.8;" x="22.69" xlink:href="#md2493446d6" y="130.9536"/>
      </g>
     </g>
     <g id="text_9">
      <!-- 5 -->
      <g transform="translate(2.965 138.552037)scale(0.2 -0.2)">
       <use xlink:href="#DejaVuSans-35"/>
      </g>
     </g>
    </g>
    <g id="ytick_4">
     <g id="line2d_25">
      <path clip-path="url(#p45b3d64d10)" d="M 22.69 59.997292 
L 450.672 59.997292 
" style="fill:none;stroke:#b0b0b0;stroke-linecap:square;stroke-width:0.8;"/>
     </g>
     <g id="line2d_26">
      <g>
       <use style="stroke:#000000;stroke-width:0.8;" x="22.69" xlink:href="#md2493446d6" y="59.997292"/>
      </g>
     </g>
     <g id="text_10">
      <!-- 7 -->
      <defs>
       <path d="M 8.203125 72.90625 
L 55.078125 72.90625 
L 55.078125 68.703125 
L 28.609375 0 
L 18.3125 0 
L 43.21875 64.59375 
L 8.203125 64.59375 
z
" id="DejaVuSans-37"/>
      </defs>
      <g transform="translate(2.965 67.595729)scale(0.2 -0.2)">
       <use xlink:href="#DejaVuSans-37"/>
      </g>
     </g>
    </g>
   </g>
   <g id="line2d_27">
    <path clip-path="url(#p45b3d64d10)" d="M 36.698743 144.79994 
L 90.609418 106.567417 
" style="fill:none;stroke:#e6e6e6;stroke-linecap:square;stroke-width:1.5;"/>
   </g>
   <g id="line2d_28">
    <path clip-path="url(#p45b3d64d10)" d="M 90.609418 106.567417 
" style="fill:none;stroke:#e6e6e6;stroke-linecap:square;stroke-width:1.5;"/>
   </g>
   <g id="line2d_29"/>
   <g id="line2d_30"/>
   <g id="line2d_31">
    <path clip-path="url(#p45b3d64d10)" d="M 36.698743 133.925605 
L 90.609418 103.131419 
" style="fill:none;stroke:#e6e6e6;stroke-linecap:square;stroke-width:1.5;"/>
   </g>
   <g id="line2d_32">
    <path clip-path="url(#p45b3d64d10)" d="M 90.609418 103.131419 
L 158.528836 54.349615 
" style="fill:none;stroke:#e6e6e6;stroke-linecap:square;stroke-width:1.5;"/>
   </g>
   <g id="line2d_33">
    <path clip-path="url(#p45b3d64d10)" d="M 158.528836 54.349615 
" style="fill:none;stroke:#e6e6e6;stroke-linecap:square;stroke-width:1.5;"/>
   </g>
   <g id="line2d_34"/>
   <g id="line2d_35"/>
   <g id="line2d_36"/>
   <g id="line2d_37"/>
   <g id="line2d_38"/>
   <g id="line2d_39"/>
   <g id="line2d_40">
    <path clip-path="url(#p45b3d64d10)" d="M 36.698743 115.528515 
L 90.609418 103.764136 
" style="fill:none;stroke:#e6e6e6;stroke-linecap:square;stroke-width:1.5;"/>
   </g>
   <g id="line2d_41">
    <path clip-path="url(#p45b3d64d10)" d="M 90.609418 103.764136 
L 158.528836 80.948689 
" style="fill:none;stroke:#e6e6e6;stroke-linecap:square;stroke-width:1.5;"/>
   </g>
   <g id="line2d_42">
    <path clip-path="url(#p45b3d64d10)" d="M 158.528836 80.948689 
L 250.689743 64.47503 
" style="fill:none;stroke:#e6e6e6;stroke-linecap:square;stroke-width:1.5;"/>
   </g>
   <g id="line2d_43">
    <path clip-path="url(#p45b3d64d10)" d="M 250.689743 64.47503 
L 342.85065 80.735423 
" style="fill:none;stroke:#e6e6e6;stroke-linecap:square;stroke-width:1.5;"/>
   </g>
   <g id="line2d_44">
    <path clip-path="url(#p45b3d64d10)" d="M 342.85065 80.735423 
L 435.011558 64.405361 
" style="fill:none;stroke:#e6e6e6;stroke-linecap:square;stroke-width:1.5;"/>
   </g>
   <g id="line2d_45">
    <path clip-path="url(#p45b3d64d10)" d="M 435.011558 64.405361 
" style="fill:none;stroke:#e6e6e6;stroke-linecap:square;stroke-width:1.5;"/>
   </g>
   <g id="line2d_46"/>
   <g id="line2d_47"/>
   <g id="line2d_48">
    <path clip-path="url(#p45b3d64d10)" d="M 36.698743 143.280966 
" style="fill:none;stroke:#e6e6e6;stroke-linecap:square;stroke-width:1.5;"/>
   </g>
   <g id="line2d_49"/>
   <g id="line2d_50"/>
   <g id="line2d_51"/>
   <g id="line2d_52"/>
   <g id="line2d_53">
    <path clip-path="url(#p45b3d64d10)" d="M 36.698743 100.57053 
" style="fill:none;stroke:#e6e6e6;stroke-linecap:square;stroke-width:1.5;"/>
   </g>
   <g id="line2d_54"/>
   <g id="line2d_55"/>
   <g id="line2d_56"/>
   <g id="line2d_57"/>
   <g id="line2d_58">
    <path clip-path="url(#p45b3d64d10)" d="M 36.698743 139.129029 
" style="fill:none;stroke:#e6e6e6;stroke-linecap:square;stroke-width:1.5;"/>
   </g>
   <g id="line2d_59"/>
   <g id="line2d_60"/>
   <g id="line2d_61">
    <path clip-path="url(#p45b3d64d10)" d="M 36.698743 129.393284 
" style="fill:none;stroke:#e6e6e6;stroke-linecap:square;stroke-width:1.5;"/>
   </g>
   <g id="line2d_62"/>
   <g id="line2d_63"/>
   <g id="line2d_64">
    <path clip-path="url(#p45b3d64d10)" d="M 36.698743 163.165238 
" style="fill:none;stroke:#e6e6e6;stroke-linecap:square;stroke-width:1.5;"/>
   </g>
   <g id="line2d_65"/>
   <g id="line2d_66"/>
   <g id="line2d_67"/>
   <g id="line2d_68"/>
   <g id="line2d_69"/>
   <g id="line2d_70"/>
   <g id="line2d_71"/>
   <g id="line2d_72"/>
   <g id="line2d_73">
    <path clip-path="url(#p45b3d64d10)" d="M 36.698743 143.50695 
" style="fill:none;stroke:#e6e6e6;stroke-linecap:square;stroke-width:1.5;"/>
   </g>
   <g id="line2d_74"/>
   <g id="line2d_75"/>
   <g id="line2d_76"/>
   <g id="line2d_77"/>
   <g id="line2d_78"/>
   <g id="line2d_79"/>
   <g id="line2d_80"/>
   <g id="line2d_81"/>
   <g id="line2d_82">
    <path clip-path="url(#p45b3d64d10)" d="M 36.698743 148.470472 
L 90.609418 128.25026 
" style="fill:none;stroke:#e6e6e6;stroke-linecap:square;stroke-width:1.5;"/>
   </g>
   <g id="line2d_83">
    <path clip-path="url(#p45b3d64d10)" d="M 90.609418 128.25026 
" style="fill:none;stroke:#e6e6e6;stroke-linecap:square;stroke-width:1.5;"/>
   </g>
   <g id="line2d_84"/>
   <g id="line2d_85"/>
   <g id="line2d_86">
    <path clip-path="url(#p45b3d64d10)" d="M 36.698743 146.138806 
L 90.609418 115.019421 
" style="fill:none;stroke:#e6e6e6;stroke-linecap:square;stroke-width:1.5;"/>
   </g>
   <g id="line2d_87">
    <path clip-path="url(#p45b3d64d10)" d="M 90.609418 115.019421 
" style="fill:none;stroke:#e6e6e6;stroke-linecap:square;stroke-width:1.5;"/>
   </g>
   <g id="line2d_88"/>
   <g id="line2d_89"/>
   <g id="line2d_90">
    <path clip-path="url(#p45b3d64d10)" d="M 36.698743 134.985022 
L 90.609418 99.997847 
" style="fill:none;stroke:#e6e6e6;stroke-linecap:square;stroke-width:1.5;"/>
   </g>
   <g id="line2d_91">
    <path clip-path="url(#p45b3d64d10)" d="M 90.609418 99.997847 
" style="fill:none;stroke:#e6e6e6;stroke-linecap:square;stroke-width:1.5;"/>
   </g>
   <g id="line2d_92"/>
   <g id="line2d_93"/>
   <g id="line2d_94">
    <path clip-path="url(#p45b3d64d10)" d="M 36.698743 153.339901 
" style="fill:none;stroke:#e6e6e6;stroke-linecap:square;stroke-width:1.5;"/>
   </g>
   <g id="line2d_95"/>
   <g id="line2d_96"/>
   <g id="line2d_97">
    <path clip-path="url(#p45b3d64d10)" d="M 36.698743 117.44428 
L 90.609418 54.009196 
" style="fill:none;stroke:#e6e6e6;stroke-linecap:square;stroke-width:1.5;"/>
   </g>
   <g id="line2d_98">
    <path clip-path="url(#p45b3d64d10)" d="M 90.609418 54.009196 
" style="fill:none;stroke:#e6e6e6;stroke-linecap:square;stroke-width:1.5;"/>
   </g>
   <g id="line2d_99"/>
   <g id="line2d_100"/>
   <g id="line2d_101">
    <path clip-path="url(#p45b3d64d10)" d="M 90.609418 89.398864 
" style="fill:none;stroke:#e6e6e6;stroke-linecap:square;stroke-width:1.5;"/>
   </g>
   <g id="line2d_102"/>
   <g id="line2d_103"/>
   <g id="line2d_104">
    <path clip-path="url(#p45b3d64d10)" d="M 36.698743 101.760972 
L 90.609418 89.739218 
" style="fill:none;stroke:#e6e6e6;stroke-linecap:square;stroke-width:1.5;"/>
   </g>
   <g id="line2d_105">
    <path clip-path="url(#p45b3d64d10)" d="M 90.609418 89.739218 
" style="fill:none;stroke:#e6e6e6;stroke-linecap:square;stroke-width:1.5;"/>
   </g>
   <g id="line2d_106"/>
   <g id="line2d_107"/>
   <g id="line2d_108">
    <path clip-path="url(#p45b3d64d10)" d="M 36.698743 119.31998 
" style="fill:none;stroke:#e6e6e6;stroke-linecap:square;stroke-width:1.5;"/>
   </g>
   <g id="line2d_109"/>
   <g id="line2d_110"/>
   <g id="line2d_111"/>
   <g id="line2d_112"/>
   <g id="line2d_113">
    <path clip-path="url(#p45b3d64d10)" d="M 36.698743 126.472238 
" style="fill:none;stroke:#e6e6e6;stroke-linecap:square;stroke-width:1.5;"/>
   </g>
   <g id="line2d_114"/>
   <g id="line2d_115"/>
   <g id="line2d_116">
    <path clip-path="url(#p45b3d64d10)" d="M 36.698743 136.693112 
L 90.609418 47.751306 
" style="fill:none;stroke:#e6e6e6;stroke-linecap:square;stroke-width:1.5;"/>
   </g>
   <g id="line2d_117">
    <path clip-path="url(#p45b3d64d10)" d="M 90.609418 47.751306 
" style="fill:none;stroke:#e6e6e6;stroke-linecap:square;stroke-width:1.5;"/>
   </g>
   <g id="line2d_118"/>
   <g id="line2d_119"/>
   <g id="line2d_120">
    <path clip-path="url(#p45b3d64d10)" d="M 36.698743 137.363896 
L 90.609418 94.751111 
" style="fill:none;stroke:#e6e6e6;stroke-linecap:square;stroke-width:1.5;"/>
   </g>
   <g id="line2d_121">
    <path clip-path="url(#p45b3d64d10)" d="M 90.609418 94.751111 
L 158.528836 54.377213 
" style="fill:none;stroke:#e6e6e6;stroke-linecap:square;stroke-width:1.5;"/>
   </g>
   <g id="line2d_122">
    <path clip-path="url(#p45b3d64d10)" d="M 158.528836 54.377213 
" style="fill:none;stroke:#e6e6e6;stroke-linecap:square;stroke-width:1.5;"/>
   </g>
   <g id="line2d_123"/>
   <g id="line2d_124"/>
   <g id="line2d_125"/>
   <g id="line2d_126">
    <defs>
     <path d="M 0 10 
C 2.652031 10 5.195799 8.946337 7.071068 7.071068 
C 8.946337 5.195799 10 2.652031 10 0 
C 10 -2.652031 8.946337 -5.195799 7.071068 -7.071068 
C 5.195799 -8.946337 2.652031 -10 0 -10 
C -2.652031 -10 -5.195799 -8.946337 -7.071068 -7.071068 
C -8.946337 -5.195799 -10 -2.652031 -10 0 
C -10 2.652031 -8.946337 5.195799 -7.071068 7.071068 
C -5.195799 8.946337 -2.652031 10 0 10 
z
" id="m1e5d42fbf2" style="stroke:#000080;"/>
    </defs>
    <g clip-path="url(#p45b3d64d10)">
     <use style="fill:none;stroke:#000080;" x="36.698743" xlink:href="#m1e5d42fbf2" y="242.237114"/>
     <use style="fill:none;stroke:#000080;" x="90.609418" xlink:href="#m1e5d42fbf2" y="244.02555"/>
     <use style="fill:none;stroke:#000080;" x="158.528836" xlink:href="#m1e5d42fbf2" y="242.321773"/>
     <use style="fill:none;stroke:#000080;" x="250.689743" xlink:href="#m1e5d42fbf2" y="248.06805"/>
     <use style="fill:none;stroke:#000080;" x="342.85065" xlink:href="#m1e5d42fbf2" y="244.654534"/>
    </g>
   </g>
   <g id="line2d_127"/>
   <g id="line2d_128">
    <defs>
     <path d="M -0 14.142136 
L 8.485281 0 
L -0 -14.142136 
L -8.485281 -0 
z
" id="mdbf2fe728c" style="stroke:#ff00ff;stroke-linejoin:miter;"/>
    </defs>
    <g clip-path="url(#p45b3d64d10)">
     <use style="fill:none;stroke:#ff00ff;stroke-linejoin:miter;" x="36.698743" xlink:href="#mdbf2fe728c" y="237.388061"/>
     <use style="fill:none;stroke:#ff00ff;stroke-linejoin:miter;" x="90.609418" xlink:href="#mdbf2fe728c" y="237.388061"/>
     <use style="fill:none;stroke:#ff00ff;stroke-linejoin:miter;" x="158.528836" xlink:href="#mdbf2fe728c" y="237.388061"/>
     <use style="fill:none;stroke:#ff00ff;stroke-linejoin:miter;" x="250.689743" xlink:href="#mdbf2fe728c" y="237.388061"/>
     <use style="fill:none;stroke:#ff00ff;stroke-linejoin:miter;" x="342.85065" xlink:href="#mdbf2fe728c" y="237.388061"/>
    </g>
   </g>
   <g id="line2d_129">
    <path clip-path="url(#p45b3d64d10)" d="M 36.698743 128.272758 
" style="fill:none;stroke:#ffa500;stroke-linecap:square;stroke-width:3.333333;"/>
    <defs>
     <path d="M 0 -8 
L -1.796112 -2.472136 
L -7.608452 -2.472136 
L -2.90617 0.944272 
L -4.702282 6.472136 
L -0 3.055728 
L 4.702282 6.472136 
L 2.90617 0.944272 
L 7.608452 -2.472136 
L 1.796112 -2.472136 
z
" id="m417446dfa7" style="stroke:#ffa500;stroke-linejoin:bevel;stroke-width:2;"/>
    </defs>
    <g clip-path="url(#p45b3d64d10)">
     <use style="fill:none;stroke:#ffa500;stroke-linejoin:bevel;stroke-width:2;" x="36.698743" xlink:href="#m417446dfa7" y="128.272758"/>
    </g>
   </g>
   <g id="line2d_130"/>
   <g id="line2d_131">
    <defs>
     <path d="M 0 -10 
L -2.24514 -3.09017 
L -9.510565 -3.09017 
L -3.632713 1.18034 
L -5.877853 8.09017 
L -0 3.81966 
L 5.877853 8.09017 
L 3.632713 1.18034 
L 9.510565 -3.09017 
L 2.24514 -3.09017 
z
" id="m5745265eea" style="stroke:#ffa500;stroke-linejoin:bevel;"/>
    </defs>
    <g clip-path="url(#p45b3d64d10)">
     <use style="fill:none;stroke:#ffa500;stroke-linejoin:bevel;" x="36.698743" xlink:href="#m5745265eea" y="130.9536"/>
     <use style="fill:none;stroke:#ffa500;stroke-linejoin:bevel;" x="90.609418" xlink:href="#m5745265eea" y="130.9536"/>
     <use style="fill:none;stroke:#ffa500;stroke-linejoin:bevel;" x="158.528836" xlink:href="#m5745265eea" y="130.9536"/>
     <use style="fill:none;stroke:#ffa500;stroke-linejoin:bevel;" x="250.689743" xlink:href="#m5745265eea" y="130.9536"/>
     <use style="fill:none;stroke:#ffa500;stroke-linejoin:bevel;" x="342.85065" xlink:href="#m5745265eea" y="130.9536"/>
    </g>
   </g>
   <g id="line2d_132"/>
   <g id="line2d_133">
    <defs>
     <path d="M -0 10 
L 10 -10 
L -10 -10 
z
" id="m43a37bccf0" style="stroke:#6495ed;stroke-linejoin:miter;"/>
    </defs>
    <g clip-path="url(#p45b3d64d10)">
     <use style="fill:none;stroke:#6495ed;stroke-linejoin:miter;" x="36.698743" xlink:href="#m43a37bccf0" y="237.388061"/>
     <use style="fill:none;stroke:#6495ed;stroke-linejoin:miter;" x="90.609418" xlink:href="#m43a37bccf0" y="237.388061"/>
     <use style="fill:none;stroke:#6495ed;stroke-linejoin:miter;" x="158.528836" xlink:href="#m43a37bccf0" y="237.388061"/>
     <use style="fill:none;stroke:#6495ed;stroke-linejoin:miter;" x="250.689743" xlink:href="#m43a37bccf0" y="237.388061"/>
     <use style="fill:none;stroke:#6495ed;stroke-linejoin:miter;" x="342.85065" xlink:href="#m43a37bccf0" y="237.388061"/>
    </g>
   </g>
   <g id="line2d_134">
    <path clip-path="url(#p45b3d64d10)" d="M 36.698743 157.379066 
L 90.609418 107.899632 
" style="fill:none;stroke:#ff0000;stroke-linecap:square;stroke-width:2.666667;"/>
    <defs>
     <path d="M 0 -7.5 
L -6.495191 -3.75 
L -6.495191 3.75 
L -0 7.5 
L 6.495191 3.75 
L 6.495191 -3.75 
z
" id="ma8014460f8" style="stroke:#ff0000;stroke-linejoin:miter;"/>
    </defs>
    <g clip-path="url(#p45b3d64d10)">
     <use style="fill:none;stroke:#ff0000;stroke-linejoin:miter;" x="36.698743" xlink:href="#ma8014460f8" y="157.379066"/>
     <use style="fill:none;stroke:#ff0000;stroke-linejoin:miter;" x="90.609418" xlink:href="#ma8014460f8" y="107.899632"/>
    </g>
   </g>
   <g id="line2d_135">
    <path clip-path="url(#p45b3d64d10)" d="M 90.609418 107.899632 
" style="fill:none;stroke:#ff0000;stroke-linecap:square;stroke-width:2.666667;"/>
    <g clip-path="url(#p45b3d64d10)">
     <use style="fill:none;stroke:#ff0000;stroke-linejoin:miter;" x="90.609418" xlink:href="#ma8014460f8" y="107.899632"/>
    </g>
   </g>
   <g id="line2d_136"/>
   <g id="line2d_137">
    <defs>
     <path d="M 0 -10 
L -8.660254 -5 
L -8.660254 5 
L -0 10 
L 8.660254 5 
L 8.660254 -5 
z
" id="madd6505059" style="stroke:#ff0000;stroke-linejoin:miter;"/>
    </defs>
    <g clip-path="url(#p45b3d64d10)">
     <use style="fill:none;stroke:#ff0000;stroke-linejoin:miter;" x="36.698743" xlink:href="#madd6505059" y="142.673588"/>
     <use style="fill:none;stroke:#ff0000;stroke-linejoin:miter;" x="90.609418" xlink:href="#madd6505059" y="130.9536"/>
     <use style="fill:none;stroke:#ff0000;stroke-linejoin:miter;" x="158.528836" xlink:href="#madd6505059" y="130.9536"/>
     <use style="fill:none;stroke:#ff0000;stroke-linejoin:miter;" x="250.689743" xlink:href="#madd6505059" y="130.9536"/>
     <use style="fill:none;stroke:#ff0000;stroke-linejoin:miter;" x="342.85065" xlink:href="#madd6505059" y="130.9536"/>
    </g>
   </g>
   <g id="line2d_138"/>
   <g id="line2d_139">
    <defs>
     <path d="M 0 -10 
L -10 10 
L 10 10 
z
" id="m6150952ffe" style="stroke:#9acd32;stroke-linejoin:miter;"/>
    </defs>
    <g clip-path="url(#p45b3d64d10)">
     <use style="fill:none;stroke:#9acd32;stroke-linejoin:miter;" x="36.698743" xlink:href="#m6150952ffe" y="237.388061"/>
     <use style="fill:none;stroke:#9acd32;stroke-linejoin:miter;" x="90.609418" xlink:href="#m6150952ffe" y="237.388061"/>
     <use style="fill:none;stroke:#9acd32;stroke-linejoin:miter;" x="158.528836" xlink:href="#m6150952ffe" y="237.388061"/>
     <use style="fill:none;stroke:#9acd32;stroke-linejoin:miter;" x="250.689743" xlink:href="#m6150952ffe" y="237.388061"/>
     <use style="fill:none;stroke:#9acd32;stroke-linejoin:miter;" x="342.85065" xlink:href="#m6150952ffe" y="237.388061"/>
    </g>
   </g>
   <g id="line2d_140">
    <path clip-path="url(#p45b3d64d10)" d="M 36.698743 152.856432 
L 90.609418 131.29881 
" style="fill:none;stroke:#00bfbf;stroke-linecap:square;stroke-width:2;"/>
    <defs>
     <path d="M 0 -6 
L -5.706339 -1.854102 
L -3.526712 4.854102 
L 3.526712 4.854102 
L 5.706339 -1.854102 
z
" id="mfd7368af81" style="stroke:#00bfbf;stroke-linejoin:miter;"/>
    </defs>
    <g clip-path="url(#p45b3d64d10)">
     <use style="fill:none;stroke:#00bfbf;stroke-linejoin:miter;" x="36.698743" xlink:href="#mfd7368af81" y="152.856432"/>
     <use style="fill:none;stroke:#00bfbf;stroke-linejoin:miter;" x="90.609418" xlink:href="#mfd7368af81" y="131.29881"/>
    </g>
   </g>
   <g id="line2d_141">
    <path clip-path="url(#p45b3d64d10)" d="M 90.609418 131.29881 
" style="fill:none;stroke:#00bfbf;stroke-linecap:square;stroke-width:2;"/>
    <g clip-path="url(#p45b3d64d10)">
     <use style="fill:none;stroke:#00bfbf;stroke-linejoin:miter;" x="90.609418" xlink:href="#mfd7368af81" y="131.29881"/>
    </g>
   </g>
   <g id="line2d_142"/>
   <g id="line2d_143">
    <defs>
     <path d="M 0 -10 
L -9.510565 -3.09017 
L -5.877853 8.09017 
L 5.877853 8.09017 
L 9.510565 -3.09017 
z
" id="m98bfd0c9ea" style="stroke:#00bfbf;stroke-linejoin:miter;"/>
    </defs>
    <g clip-path="url(#p45b3d64d10)">
     <use style="fill:none;stroke:#00bfbf;stroke-linejoin:miter;" x="36.698743" xlink:href="#m98bfd0c9ea" y="133.921862"/>
     <use style="fill:none;stroke:#00bfbf;stroke-linejoin:miter;" x="90.609418" xlink:href="#m98bfd0c9ea" y="130.9536"/>
     <use style="fill:none;stroke:#00bfbf;stroke-linejoin:miter;" x="158.528836" xlink:href="#m98bfd0c9ea" y="130.9536"/>
     <use style="fill:none;stroke:#00bfbf;stroke-linejoin:miter;" x="250.689743" xlink:href="#m98bfd0c9ea" y="130.9536"/>
     <use style="fill:none;stroke:#00bfbf;stroke-linejoin:miter;" x="342.85065" xlink:href="#m98bfd0c9ea" y="130.9536"/>
    </g>
   </g>
   <g id="line2d_144">
    <path clip-path="url(#p45b3d64d10)" d="M 36.698743 101.948411 
L 90.609418 101.395497 
" style="fill:none;stroke:#adff2f;stroke-linecap:square;stroke-width:2;"/>
    <defs>
     <path d="M 0 0 
L -5.5 -0 
M 0 0 
L 2.75 4.4 
M 0 0 
L 2.75 -4.4 
" id="m010fcb8da8" style="stroke:#adff2f;"/>
    </defs>
    <g clip-path="url(#p45b3d64d10)">
     <use style="fill:none;stroke:#adff2f;" x="36.698743" xlink:href="#m010fcb8da8" y="101.948411"/>
     <use style="fill:none;stroke:#adff2f;" x="90.609418" xlink:href="#m010fcb8da8" y="101.395497"/>
    </g>
   </g>
   <g id="line2d_145">
    <path clip-path="url(#p45b3d64d10)" d="M 90.609418 101.395497 
" style="fill:none;stroke:#adff2f;stroke-linecap:square;stroke-width:2;"/>
    <g clip-path="url(#p45b3d64d10)">
     <use style="fill:none;stroke:#adff2f;" x="90.609418" xlink:href="#m010fcb8da8" y="101.395497"/>
    </g>
   </g>
   <g id="line2d_146"/>
   <g id="line2d_147">
    <defs>
     <path d="M 0 0 
L -10 -0 
M 0 0 
L 5 8 
M 0 0 
L 5 -8 
" id="md26adab721" style="stroke:#adff2f;"/>
    </defs>
    <g clip-path="url(#p45b3d64d10)">
     <use style="fill:none;stroke:#adff2f;" x="36.698743" xlink:href="#md26adab721" y="130.945513"/>
     <use style="fill:none;stroke:#adff2f;" x="90.609418" xlink:href="#md26adab721" y="130.947694"/>
     <use style="fill:none;stroke:#adff2f;" x="158.528836" xlink:href="#md26adab721" y="130.946421"/>
     <use style="fill:none;stroke:#adff2f;" x="250.689743" xlink:href="#md26adab721" y="130.945821"/>
     <use style="fill:none;stroke:#adff2f;" x="342.85065" xlink:href="#md26adab721" y="130.949094"/>
    </g>
   </g>
   <g id="line2d_148"/>
   <g id="line2d_149">
    <path clip-path="url(#p45b3d64d10)" d="M 12.73104 346.6 
L 461.8 294.560025 
" style="fill:none;stroke:#000000;stroke-dasharray:0.5,0.825;stroke-dashoffset:0;stroke-width:0.5;"/>
   </g>
   <g id="line2d_150">
    <path clip-path="url(#p45b3d64d10)" d="M -1 277.234902 
L 461.8 223.603717 
" style="fill:none;stroke:#000000;stroke-dasharray:0.5,0.825;stroke-dashoffset:0;stroke-width:0.5;"/>
   </g>
   <g id="line2d_151">
    <path clip-path="url(#p45b3d64d10)" d="M -1 206.278594 
L 461.8 152.647409 
" style="fill:none;stroke:#000000;stroke-dasharray:0.5,0.825;stroke-dashoffset:0;stroke-width:0.5;"/>
   </g>
   <g id="line2d_152">
    <path clip-path="url(#p45b3d64d10)" d="M -1 135.322287 
L 461.8 81.691101 
" style="fill:none;stroke:#000000;stroke-dasharray:0.5,0.825;stroke-dashoffset:0;stroke-width:0.5;"/>
   </g>
   <g id="line2d_153">
    <path clip-path="url(#p45b3d64d10)" d="M -1 64.365979 
L 461.8 10.734794 
" style="fill:none;stroke:#000000;stroke-dasharray:0.5,0.825;stroke-dashoffset:0;stroke-width:0.5;"/>
   </g>
   <g id="patch_3">
    <path d="M 22.69 315.44 
L 22.69 25.56 
" style="fill:none;stroke:#000000;stroke-linecap:square;stroke-linejoin:miter;stroke-width:0.8;"/>
   </g>
   <g id="patch_4">
    <path d="M 450.672 315.44 
L 450.672 25.56 
" style="fill:none;stroke:#000000;stroke-linecap:square;stroke-linejoin:miter;stroke-width:0.8;"/>
   </g>
   <g id="patch_5">
    <path d="M 22.69 315.44 
L 450.672 315.44 
" style="fill:none;stroke:#000000;stroke-linecap:square;stroke-linejoin:miter;stroke-width:0.8;"/>
   </g>
   <g id="patch_6">
    <path d="M 22.69 25.56 
L 450.672 25.56 
" style="fill:none;stroke:#000000;stroke-linecap:square;stroke-linejoin:miter;stroke-width:0.8;"/>
   </g>
   <g id="text_11">
    <!-- 15, 15, 15, 15, 15, 15, 15, 15, 15, 15, 15, 15, 15, 15, 15, 15, 15, 5, 15, 15, 15, 15, 15, 15, 15, 15, 15, 15, 15, 15, 15, 15, 15, 15, 15, 15, 15, 15, 15 instances -->
    <defs>
     <path d="M 11.71875 12.40625 
L 22.015625 12.40625 
L 22.015625 4 
L 14.015625 -11.625 
L 7.71875 -11.625 
L 11.71875 4 
z
" id="DejaVuSans-2c"/>
     <path id="DejaVuSans-20"/>
     <path d="M 9.421875 54.6875 
L 18.40625 54.6875 
L 18.40625 0 
L 9.421875 0 
z
M 9.421875 75.984375 
L 18.40625 75.984375 
L 18.40625 64.59375 
L 9.421875 64.59375 
z
" id="DejaVuSans-69"/>
     <path d="M 54.890625 33.015625 
L 54.890625 0 
L 45.90625 0 
L 45.90625 32.71875 
Q 45.90625 40.484375 42.875 44.328125 
Q 39.84375 48.1875 33.796875 48.1875 
Q 26.515625 48.1875 22.3125 43.546875 
Q 18.109375 38.921875 18.109375 30.90625 
L 18.109375 0 
L 9.078125 0 
L 9.078125 54.6875 
L 18.109375 54.6875 
L 18.109375 46.1875 
Q 21.34375 51.125 25.703125 53.5625 
Q 30.078125 56 35.796875 56 
Q 45.21875 56 50.046875 50.171875 
Q 54.890625 44.34375 54.890625 33.015625 
z
" id="DejaVuSans-6e"/>
     <path d="M 44.28125 53.078125 
L 44.28125 44.578125 
Q 40.484375 46.53125 36.375 47.5 
Q 32.28125 48.484375 27.875 48.484375 
Q 21.1875 48.484375 17.84375 46.4375 
Q 14.5 44.390625 14.5 40.28125 
Q 14.5 37.15625 16.890625 35.375 
Q 19.28125 33.59375 26.515625 31.984375 
L 29.59375 31.296875 
Q 39.15625 29.25 43.1875 25.515625 
Q 47.21875 21.78125 47.21875 15.09375 
Q 47.21875 7.46875 41.1875 3.015625 
Q 35.15625 -1.421875 24.609375 -1.421875 
Q 20.21875 -1.421875 15.453125 -0.5625 
Q 10.6875 0.296875 5.421875 2 
L 5.421875 11.28125 
Q 10.40625 8.6875 15.234375 7.390625 
Q 20.0625 6.109375 24.8125 6.109375 
Q 31.15625 6.109375 34.5625 8.28125 
Q 37.984375 10.453125 37.984375 14.40625 
Q 37.984375 18.0625 35.515625 20.015625 
Q 33.0625 21.96875 24.703125 23.78125 
L 21.578125 24.515625 
Q 13.234375 26.265625 9.515625 29.90625 
Q 5.8125 33.546875 5.8125 39.890625 
Q 5.8125 47.609375 11.28125 51.796875 
Q 16.75 56 26.8125 56 
Q 31.78125 56 36.171875 55.265625 
Q 40.578125 54.546875 44.28125 53.078125 
z
" id="DejaVuSans-73"/>
     <path d="M 18.3125 70.21875 
L 18.3125 54.6875 
L 36.8125 54.6875 
L 36.8125 47.703125 
L 18.3125 47.703125 
L 18.3125 18.015625 
Q 18.3125 11.328125 20.140625 9.421875 
Q 21.96875 7.515625 27.59375 7.515625 
L 36.8125 7.515625 
L 36.8125 0 
L 27.59375 0 
Q 17.1875 0 13.234375 3.875 
Q 9.28125 7.765625 9.28125 18.015625 
L 9.28125 47.703125 
L 2.6875 47.703125 
L 2.6875 54.6875 
L 9.28125 54.6875 
L 9.28125 70.21875 
z
" id="DejaVuSans-74"/>
     <path d="M 34.28125 27.484375 
Q 23.390625 27.484375 19.1875 25 
Q 14.984375 22.515625 14.984375 16.5 
Q 14.984375 11.71875 18.140625 8.90625 
Q 21.296875 6.109375 26.703125 6.109375 
Q 34.1875 6.109375 38.703125 11.40625 
Q 43.21875 16.703125 43.21875 25.484375 
L 43.21875 27.484375 
z
M 52.203125 31.203125 
L 52.203125 0 
L 43.21875 0 
L 43.21875 8.296875 
Q 40.140625 3.328125 35.546875 0.953125 
Q 30.953125 -1.421875 24.3125 -1.421875 
Q 15.921875 -1.421875 10.953125 3.296875 
Q 6 8.015625 6 15.921875 
Q 6 25.140625 12.171875 29.828125 
Q 18.359375 34.515625 30.609375 34.515625 
L 43.21875 34.515625 
L 43.21875 35.40625 
Q 43.21875 41.609375 39.140625 45 
Q 35.0625 48.390625 27.6875 48.390625 
Q 23 48.390625 18.546875 47.265625 
Q 14.109375 46.140625 10.015625 43.890625 
L 10.015625 52.203125 
Q 14.9375 54.109375 19.578125 55.046875 
Q 24.21875 56 28.609375 56 
Q 40.484375 56 46.34375 49.84375 
Q 52.203125 43.703125 52.203125 31.203125 
z
" id="DejaVuSans-61"/>
     <path d="M 48.78125 52.59375 
L 48.78125 44.1875 
Q 44.96875 46.296875 41.140625 47.34375 
Q 37.3125 48.390625 33.40625 48.390625 
Q 24.65625 48.390625 19.8125 42.84375 
Q 14.984375 37.3125 14.984375 27.296875 
Q 14.984375 17.28125 19.8125 11.734375 
Q 24.65625 6.203125 33.40625 6.203125 
Q 37.3125 6.203125 41.140625 7.25 
Q 44.96875 8.296875 48.78125 10.40625 
L 48.78125 2.09375 
Q 45.015625 0.34375 40.984375 -0.53125 
Q 36.96875 -1.421875 32.421875 -1.421875 
Q 20.0625 -1.421875 12.78125 6.34375 
Q 5.515625 14.109375 5.515625 27.296875 
Q 5.515625 40.671875 12.859375 48.328125 
Q 20.21875 56 33.015625 56 
Q 37.15625 56 41.109375 55.140625 
Q 45.0625 54.296875 48.78125 52.59375 
z
" id="DejaVuSans-63"/>
     <path d="M 56.203125 29.59375 
L 56.203125 25.203125 
L 14.890625 25.203125 
Q 15.484375 15.921875 20.484375 11.0625 
Q 25.484375 6.203125 34.421875 6.203125 
Q 39.59375 6.203125 44.453125 7.46875 
Q 49.3125 8.734375 54.109375 11.28125 
L 54.109375 2.78125 
Q 49.265625 0.734375 44.1875 -0.34375 
Q 39.109375 -1.421875 33.890625 -1.421875 
Q 20.796875 -1.421875 13.15625 6.1875 
Q 5.515625 13.8125 5.515625 26.8125 
Q 5.515625 40.234375 12.765625 48.109375 
Q 20.015625 56 32.328125 56 
Q 43.359375 56 49.78125 48.890625 
Q 56.203125 41.796875 56.203125 29.59375 
z
M 47.21875 32.234375 
Q 47.125 39.59375 43.09375 43.984375 
Q 39.0625 48.390625 32.421875 48.390625 
Q 24.90625 48.390625 20.390625 44.140625 
Q 15.875 39.890625 15.1875 32.171875 
z
" id="DejaVuSans-65"/>
    </defs>
    <g transform="translate(22.69 296.8515)scale(0.14 -0.14)">
     <use xlink:href="#DejaVuSans-31"/>
     <use x="63.623047" xlink:href="#DejaVuSans-35"/>
     <use x="127.246094" xlink:href="#DejaVuSans-2c"/>
     <use x="159.033203" xlink:href="#DejaVuSans-20"/>
     <use x="190.820312" xlink:href="#DejaVuSans-31"/>
     <use x="254.443359" xlink:href="#DejaVuSans-35"/>
     <use x="318.066406" xlink:href="#DejaVuSans-2c"/>
     <use x="349.853516" xlink:href="#DejaVuSans-20"/>
     <use x="381.640625" xlink:href="#DejaVuSans-31"/>
     <use x="445.263672" xlink:href="#DejaVuSans-35"/>
     <use x="508.886719" xlink:href="#DejaVuSans-2c"/>
     <use x="540.673828" xlink:href="#DejaVuSans-20"/>
     <use x="572.460938" xlink:href="#DejaVuSans-31"/>
     <use x="636.083984" xlink:href="#DejaVuSans-35"/>
     <use x="699.707031" xlink:href="#DejaVuSans-2c"/>
     <use x="731.494141" xlink:href="#DejaVuSans-20"/>
     <use x="763.28125" xlink:href="#DejaVuSans-31"/>
     <use x="826.904297" xlink:href="#DejaVuSans-35"/>
     <use x="890.527344" xlink:href="#DejaVuSans-2c"/>
     <use x="922.314453" xlink:href="#DejaVuSans-20"/>
     <use x="954.101562" xlink:href="#DejaVuSans-31"/>
     <use x="1017.724609" xlink:href="#DejaVuSans-35"/>
     <use x="1081.347656" xlink:href="#DejaVuSans-2c"/>
     <use x="1113.134766" xlink:href="#DejaVuSans-20"/>
     <use x="1144.921875" xlink:href="#DejaVuSans-31"/>
     <use x="1208.544922" xlink:href="#DejaVuSans-35"/>
     <use x="1272.167969" xlink:href="#DejaVuSans-2c"/>
     <use x="1303.955078" xlink:href="#DejaVuSans-20"/>
     <use x="1335.742188" xlink:href="#DejaVuSans-31"/>
     <use x="1399.365234" xlink:href="#DejaVuSans-35"/>
     <use x="1462.988281" xlink:href="#DejaVuSans-2c"/>
     <use x="1494.775391" xlink:href="#DejaVuSans-20"/>
     <use x="1526.5625" xlink:href="#DejaVuSans-31"/>
     <use x="1590.185547" xlink:href="#DejaVuSans-35"/>
     <use x="1653.808594" xlink:href="#DejaVuSans-2c"/>
     <use x="1685.595703" xlink:href="#DejaVuSans-20"/>
     <use x="1717.382812" xlink:href="#DejaVuSans-31"/>
     <use x="1781.005859" xlink:href="#DejaVuSans-35"/>
     <use x="1844.628906" xlink:href="#DejaVuSans-2c"/>
     <use x="1876.416016" xlink:href="#DejaVuSans-20"/>
     <use x="1908.203125" xlink:href="#DejaVuSans-31"/>
     <use x="1971.826172" xlink:href="#DejaVuSans-35"/>
     <use x="2035.449219" xlink:href="#DejaVuSans-2c"/>
     <use x="2067.236328" xlink:href="#DejaVuSans-20"/>
     <use x="2099.023438" xlink:href="#DejaVuSans-31"/>
     <use x="2162.646484" xlink:href="#DejaVuSans-35"/>
     <use x="2226.269531" xlink:href="#DejaVuSans-2c"/>
     <use x="2258.056641" xlink:href="#DejaVuSans-20"/>
     <use x="2289.84375" xlink:href="#DejaVuSans-31"/>
     <use x="2353.466797" xlink:href="#DejaVuSans-35"/>
     <use x="2417.089844" xlink:href="#DejaVuSans-2c"/>
     <use x="2448.876953" xlink:href="#DejaVuSans-20"/>
     <use x="2480.664062" xlink:href="#DejaVuSans-31"/>
     <use x="2544.287109" xlink:href="#DejaVuSans-35"/>
     <use x="2607.910156" xlink:href="#DejaVuSans-2c"/>
     <use x="2639.697266" xlink:href="#DejaVuSans-20"/>
     <use x="2671.484375" xlink:href="#DejaVuSans-31"/>
     <use x="2735.107422" xlink:href="#DejaVuSans-35"/>
     <use x="2798.730469" xlink:href="#DejaVuSans-2c"/>
     <use x="2830.517578" xlink:href="#DejaVuSans-20"/>
     <use x="2862.304688" xlink:href="#DejaVuSans-31"/>
     <use x="2925.927734" xlink:href="#DejaVuSans-35"/>
     <use x="2989.550781" xlink:href="#DejaVuSans-2c"/>
     <use x="3021.337891" xlink:href="#DejaVuSans-20"/>
     <use x="3053.125" xlink:href="#DejaVuSans-31"/>
     <use x="3116.748047" xlink:href="#DejaVuSans-35"/>
     <use x="3180.371094" xlink:href="#DejaVuSans-2c"/>
     <use x="3212.158203" xlink:href="#DejaVuSans-20"/>
     <use x="3243.945312" xlink:href="#DejaVuSans-35"/>
     <use x="3307.568359" xlink:href="#DejaVuSans-2c"/>
     <use x="3339.355469" xlink:href="#DejaVuSans-20"/>
     <use x="3371.142578" xlink:href="#DejaVuSans-31"/>
     <use x="3434.765625" xlink:href="#DejaVuSans-35"/>
     <use x="3498.388672" xlink:href="#DejaVuSans-2c"/>
     <use x="3530.175781" xlink:href="#DejaVuSans-20"/>
     <use x="3561.962891" xlink:href="#DejaVuSans-31"/>
     <use x="3625.585938" xlink:href="#DejaVuSans-35"/>
     <use x="3689.208984" xlink:href="#DejaVuSans-2c"/>
     <use x="3720.996094" xlink:href="#DejaVuSans-20"/>
     <use x="3752.783203" xlink:href="#DejaVuSans-31"/>
     <use x="3816.40625" xlink:href="#DejaVuSans-35"/>
     <use x="3880.029297" xlink:href="#DejaVuSans-2c"/>
     <use x="3911.816406" xlink:href="#DejaVuSans-20"/>
     <use x="3943.603516" xlink:href="#DejaVuSans-31"/>
     <use x="4007.226562" xlink:href="#DejaVuSans-35"/>
     <use x="4070.849609" xlink:href="#DejaVuSans-2c"/>
     <use x="4102.636719" xlink:href="#DejaVuSans-20"/>
     <use x="4134.423828" xlink:href="#DejaVuSans-31"/>
     <use x="4198.046875" xlink:href="#DejaVuSans-35"/>
     <use x="4261.669922" xlink:href="#DejaVuSans-2c"/>
     <use x="4293.457031" xlink:href="#DejaVuSans-20"/>
     <use x="4325.244141" xlink:href="#DejaVuSans-31"/>
     <use x="4388.867188" xlink:href="#DejaVuSans-35"/>
     <use x="4452.490234" xlink:href="#DejaVuSans-2c"/>
     <use x="4484.277344" xlink:href="#DejaVuSans-20"/>
     <use x="4516.064453" xlink:href="#DejaVuSans-31"/>
     <use x="4579.6875" xlink:href="#DejaVuSans-35"/>
     <use x="4643.310547" xlink:href="#DejaVuSans-2c"/>
     <use x="4675.097656" xlink:href="#DejaVuSans-20"/>
     <use x="4706.884766" xlink:href="#DejaVuSans-31"/>
     <use x="4770.507812" xlink:href="#DejaVuSans-35"/>
     <use x="4834.130859" xlink:href="#DejaVuSans-2c"/>
     <use x="4865.917969" xlink:href="#DejaVuSans-20"/>
     <use x="4897.705078" xlink:href="#DejaVuSans-31"/>
     <use x="4961.328125" xlink:href="#DejaVuSans-35"/>
     <use x="5024.951172" xlink:href="#DejaVuSans-2c"/>
     <use x="5056.738281" xlink:href="#DejaVuSans-20"/>
     <use x="5088.525391" xlink:href="#DejaVuSans-31"/>
     <use x="5152.148438" xlink:href="#DejaVuSans-35"/>
     <use x="5215.771484" xlink:href="#DejaVuSans-2c"/>
     <use x="5247.558594" xlink:href="#DejaVuSans-20"/>
     <use x="5279.345703" xlink:href="#DejaVuSans-31"/>
     <use x="5342.96875" xlink:href="#DejaVuSans-35"/>
     <use x="5406.591797" xlink:href="#DejaVuSans-2c"/>
     <use x="5438.378906" xlink:href="#DejaVuSans-20"/>
     <use x="5470.166016" xlink:href="#DejaVuSans-31"/>
     <use x="5533.789062" xlink:href="#DejaVuSans-35"/>
     <use x="5597.412109" xlink:href="#DejaVuSans-2c"/>
     <use x="5629.199219" xlink:href="#DejaVuSans-20"/>
     <use x="5660.986328" xlink:href="#DejaVuSans-31"/>
     <use x="5724.609375" xlink:href="#DejaVuSans-35"/>
     <use x="5788.232422" xlink:href="#DejaVuSans-2c"/>
     <use x="5820.019531" xlink:href="#DejaVuSans-20"/>
     <use x="5851.806641" xlink:href="#DejaVuSans-31"/>
     <use x="5915.429688" xlink:href="#DejaVuSans-35"/>
     <use x="5979.052734" xlink:href="#DejaVuSans-2c"/>
     <use x="6010.839844" xlink:href="#DejaVuSans-20"/>
     <use x="6042.626953" xlink:href="#DejaVuSans-31"/>
     <use x="6106.25" xlink:href="#DejaVuSans-35"/>
     <use x="6169.873047" xlink:href="#DejaVuSans-2c"/>
     <use x="6201.660156" xlink:href="#DejaVuSans-20"/>
     <use x="6233.447266" xlink:href="#DejaVuSans-31"/>
     <use x="6297.070312" xlink:href="#DejaVuSans-35"/>
     <use x="6360.693359" xlink:href="#DejaVuSans-2c"/>
     <use x="6392.480469" xlink:href="#DejaVuSans-20"/>
     <use x="6424.267578" xlink:href="#DejaVuSans-31"/>
     <use x="6487.890625" xlink:href="#DejaVuSans-35"/>
     <use x="6551.513672" xlink:href="#DejaVuSans-2c"/>
     <use x="6583.300781" xlink:href="#DejaVuSans-20"/>
     <use x="6615.087891" xlink:href="#DejaVuSans-31"/>
     <use x="6678.710938" xlink:href="#DejaVuSans-35"/>
     <use x="6742.333984" xlink:href="#DejaVuSans-2c"/>
     <use x="6774.121094" xlink:href="#DejaVuSans-20"/>
     <use x="6805.908203" xlink:href="#DejaVuSans-31"/>
     <use x="6869.53125" xlink:href="#DejaVuSans-35"/>
     <use x="6933.154297" xlink:href="#DejaVuSans-2c"/>
     <use x="6964.941406" xlink:href="#DejaVuSans-20"/>
     <use x="6996.728516" xlink:href="#DejaVuSans-31"/>
     <use x="7060.351562" xlink:href="#DejaVuSans-35"/>
     <use x="7123.974609" xlink:href="#DejaVuSans-2c"/>
     <use x="7155.761719" xlink:href="#DejaVuSans-20"/>
     <use x="7187.548828" xlink:href="#DejaVuSans-31"/>
     <use x="7251.171875" xlink:href="#DejaVuSans-35"/>
     <use x="7314.794922" xlink:href="#DejaVuSans-20"/>
     <use x="7346.582031" xlink:href="#DejaVuSans-69"/>
     <use x="7374.365234" xlink:href="#DejaVuSans-6e"/>
     <use x="7437.744141" xlink:href="#DejaVuSans-73"/>
     <use x="7489.84375" xlink:href="#DejaVuSans-74"/>
     <use x="7529.052734" xlink:href="#DejaVuSans-61"/>
     <use x="7590.332031" xlink:href="#DejaVuSans-6e"/>
     <use x="7653.710938" xlink:href="#DejaVuSans-63"/>
     <use x="7708.691406" xlink:href="#DejaVuSans-65"/>
     <use x="7770.214844" xlink:href="#DejaVuSans-73"/>
    </g>
    <!-- target Df: 1e-8 -->
    <defs>
     <path d="M 41.109375 46.296875 
Q 39.59375 47.171875 37.8125 47.578125 
Q 36.03125 48 33.890625 48 
Q 26.265625 48 22.1875 43.046875 
Q 18.109375 38.09375 18.109375 28.8125 
L 18.109375 0 
L 9.078125 0 
L 9.078125 54.6875 
L 18.109375 54.6875 
L 18.109375 46.1875 
Q 20.953125 51.171875 25.484375 53.578125 
Q 30.03125 56 36.53125 56 
Q 37.453125 56 38.578125 55.875 
Q 39.703125 55.765625 41.0625 55.515625 
z
" id="DejaVuSans-72"/>
     <path d="M 45.40625 27.984375 
Q 45.40625 37.75 41.375 43.109375 
Q 37.359375 48.484375 30.078125 48.484375 
Q 22.859375 48.484375 18.828125 43.109375 
Q 14.796875 37.75 14.796875 27.984375 
Q 14.796875 18.265625 18.828125 12.890625 
Q 22.859375 7.515625 30.078125 7.515625 
Q 37.359375 7.515625 41.375 12.890625 
Q 45.40625 18.265625 45.40625 27.984375 
z
M 54.390625 6.78125 
Q 54.390625 -7.171875 48.1875 -13.984375 
Q 42 -20.796875 29.203125 -20.796875 
Q 24.46875 -20.796875 20.265625 -20.09375 
Q 16.0625 -19.390625 12.109375 -17.921875 
L 12.109375 -9.1875 
Q 16.0625 -11.328125 19.921875 -12.34375 
Q 23.78125 -13.375 27.78125 -13.375 
Q 36.625 -13.375 41.015625 -8.765625 
Q 45.40625 -4.15625 45.40625 5.171875 
L 45.40625 9.625 
Q 42.625 4.78125 38.28125 2.390625 
Q 33.9375 0 27.875 0 
Q 17.828125 0 11.671875 7.65625 
Q 5.515625 15.328125 5.515625 27.984375 
Q 5.515625 40.671875 11.671875 48.328125 
Q 17.828125 56 27.875 56 
Q 33.9375 56 38.28125 53.609375 
Q 42.625 51.21875 45.40625 46.390625 
L 45.40625 54.6875 
L 54.390625 54.6875 
z
" id="DejaVuSans-67"/>
     <path d="M 19.671875 64.796875 
L 19.671875 8.109375 
L 31.59375 8.109375 
Q 46.6875 8.109375 53.6875 14.9375 
Q 60.6875 21.78125 60.6875 36.53125 
Q 60.6875 51.171875 53.6875 57.984375 
Q 46.6875 64.796875 31.59375 64.796875 
z
M 9.8125 72.90625 
L 30.078125 72.90625 
Q 51.265625 72.90625 61.171875 64.09375 
Q 71.09375 55.28125 71.09375 36.53125 
Q 71.09375 17.671875 61.125 8.828125 
Q 51.171875 0 30.078125 0 
L 9.8125 0 
z
" id="DejaVuSans-44"/>
     <path d="M 37.109375 75.984375 
L 37.109375 68.5 
L 28.515625 68.5 
Q 23.6875 68.5 21.796875 66.546875 
Q 19.921875 64.59375 19.921875 59.515625 
L 19.921875 54.6875 
L 34.71875 54.6875 
L 34.71875 47.703125 
L 19.921875 47.703125 
L 19.921875 0 
L 10.890625 0 
L 10.890625 47.703125 
L 2.296875 47.703125 
L 2.296875 54.6875 
L 10.890625 54.6875 
L 10.890625 58.5 
Q 10.890625 67.625 15.140625 71.796875 
Q 19.390625 75.984375 28.609375 75.984375 
z
" id="DejaVuSans-66"/>
     <path d="M 11.71875 12.40625 
L 22.015625 12.40625 
L 22.015625 0 
L 11.71875 0 
z
M 11.71875 51.703125 
L 22.015625 51.703125 
L 22.015625 39.3125 
L 11.71875 39.3125 
z
" id="DejaVuSans-3a"/>
     <path d="M 4.890625 31.390625 
L 31.203125 31.390625 
L 31.203125 23.390625 
L 4.890625 23.390625 
z
" id="DejaVuSans-2d"/>
     <path d="M 31.78125 34.625 
Q 24.75 34.625 20.71875 30.859375 
Q 16.703125 27.09375 16.703125 20.515625 
Q 16.703125 13.921875 20.71875 10.15625 
Q 24.75 6.390625 31.78125 6.390625 
Q 38.8125 6.390625 42.859375 10.171875 
Q 46.921875 13.96875 46.921875 20.515625 
Q 46.921875 27.09375 42.890625 30.859375 
Q 38.875 34.625 31.78125 34.625 
z
M 21.921875 38.8125 
Q 15.578125 40.375 12.03125 44.71875 
Q 8.5 49.078125 8.5 55.328125 
Q 8.5 64.0625 14.71875 69.140625 
Q 20.953125 74.21875 31.78125 74.21875 
Q 42.671875 74.21875 48.875 69.140625 
Q 55.078125 64.0625 55.078125 55.328125 
Q 55.078125 49.078125 51.53125 44.71875 
Q 48 40.375 41.703125 38.8125 
Q 48.828125 37.15625 52.796875 32.3125 
Q 56.78125 27.484375 56.78125 20.515625 
Q 56.78125 9.90625 50.3125 4.234375 
Q 43.84375 -1.421875 31.78125 -1.421875 
Q 19.734375 -1.421875 13.25 4.234375 
Q 6.78125 9.90625 6.78125 20.515625 
Q 6.78125 27.484375 10.78125 32.3125 
Q 14.796875 37.15625 21.921875 38.8125 
z
M 18.3125 54.390625 
Q 18.3125 48.734375 21.84375 45.5625 
Q 25.390625 42.390625 31.78125 42.390625 
Q 38.140625 42.390625 41.71875 45.5625 
Q 45.3125 48.734375 45.3125 54.390625 
Q 45.3125 60.0625 41.71875 63.234375 
Q 38.140625 66.40625 31.78125 66.40625 
Q 25.390625 66.40625 21.84375 63.234375 
Q 18.3125 60.0625 18.3125 54.390625 
z
" id="DejaVuSans-38"/>
    </defs>
    <g transform="translate(22.69 312.528437)scale(0.14 -0.14)">
     <use xlink:href="#DejaVuSans-74"/>
     <use x="39.208984" xlink:href="#DejaVuSans-61"/>
     <use x="100.488281" xlink:href="#DejaVuSans-72"/>
     <use x="141.585938" xlink:href="#DejaVuSans-67"/>
     <use x="205.0625" xlink:href="#DejaVuSans-65"/>
     <use x="266.585938" xlink:href="#DejaVuSans-74"/>
     <use x="305.794922" xlink:href="#DejaVuSans-20"/>
     <use x="337.582031" xlink:href="#DejaVuSans-44"/>
     <use x="414.583984" xlink:href="#DejaVuSans-66"/>
     <use x="449.742188" xlink:href="#DejaVuSans-3a"/>
     <use x="483.433594" xlink:href="#DejaVuSans-20"/>
     <use x="515.220703" xlink:href="#DejaVuSans-31"/>
     <use x="578.84375" xlink:href="#DejaVuSans-65"/>
     <use x="640.367188" xlink:href="#DejaVuSans-2d"/>
     <use x="676.451172" xlink:href="#DejaVuSans-38"/>
    </g>
   </g>
   <g id="text_12">
    <!-- v2.0.760 -->
    <defs>
     <path d="M 2.984375 54.6875 
L 12.5 54.6875 
L 29.59375 8.796875 
L 46.6875 54.6875 
L 56.203125 54.6875 
L 35.6875 0 
L 23.484375 0 
z
" id="DejaVuSans-76"/>
     <path d="M 10.6875 12.40625 
L 21 12.40625 
L 21 0 
L 10.6875 0 
z
" id="DejaVuSans-2e"/>
     <path d="M 33.015625 40.375 
Q 26.375 40.375 22.484375 35.828125 
Q 18.609375 31.296875 18.609375 23.390625 
Q 18.609375 15.53125 22.484375 10.953125 
Q 26.375 6.390625 33.015625 6.390625 
Q 39.65625 6.390625 43.53125 10.953125 
Q 47.40625 15.53125 47.40625 23.390625 
Q 47.40625 31.296875 43.53125 35.828125 
Q 39.65625 40.375 33.015625 40.375 
z
M 52.59375 71.296875 
L 52.59375 62.3125 
Q 48.875 64.0625 45.09375 64.984375 
Q 41.3125 65.921875 37.59375 65.921875 
Q 27.828125 65.921875 22.671875 59.328125 
Q 17.53125 52.734375 16.796875 39.40625 
Q 19.671875 43.65625 24.015625 45.921875 
Q 28.375 48.1875 33.59375 48.1875 
Q 44.578125 48.1875 50.953125 41.515625 
Q 57.328125 34.859375 57.328125 23.390625 
Q 57.328125 12.15625 50.6875 5.359375 
Q 44.046875 -1.421875 33.015625 -1.421875 
Q 20.359375 -1.421875 13.671875 8.265625 
Q 6.984375 17.96875 6.984375 36.375 
Q 6.984375 53.65625 15.1875 63.9375 
Q 23.390625 74.21875 37.203125 74.21875 
Q 40.921875 74.21875 44.703125 73.484375 
Q 48.484375 72.75 52.59375 71.296875 
z
" id="DejaVuSans-36"/>
    </defs>
    <g style="fill:#808080;" transform="translate(214.63725 310.461512)scale(0.1 -0.1)">
     <use xlink:href="#DejaVuSans-76"/>
     <use x="59.179688" xlink:href="#DejaVuSans-32"/>
     <use x="122.802734" xlink:href="#DejaVuSans-2e"/>
     <use x="154.589844" xlink:href="#DejaVuSans-30"/>
     <use x="218.212891" xlink:href="#DejaVuSans-2e"/>
     <use x="250" xlink:href="#DejaVuSans-37"/>
     <use x="313.623047" xlink:href="#DejaVuSans-36"/>
     <use x="377.246094" xlink:href="#DejaVuSans-30"/>
    </g>
   </g>
   <g id="text_13">
    <!-- 24 Lunacek bi-Rastrigin -->
    <defs>
     <path d="M 9.8125 72.90625 
L 19.671875 72.90625 
L 19.671875 8.296875 
L 55.171875 8.296875 
L 55.171875 0 
L 9.8125 0 
z
" id="DejaVuSans-4c"/>
     <path d="M 8.5 21.578125 
L 8.5 54.6875 
L 17.484375 54.6875 
L 17.484375 21.921875 
Q 17.484375 14.15625 20.5 10.265625 
Q 23.53125 6.390625 29.59375 6.390625 
Q 36.859375 6.390625 41.078125 11.03125 
Q 45.3125 15.671875 45.3125 23.6875 
L 45.3125 54.6875 
L 54.296875 54.6875 
L 54.296875 0 
L 45.3125 0 
L 45.3125 8.40625 
Q 42.046875 3.421875 37.71875 1 
Q 33.40625 -1.421875 27.6875 -1.421875 
Q 18.265625 -1.421875 13.375 4.4375 
Q 8.5 10.296875 8.5 21.578125 
z
M 31.109375 56 
z
" id="DejaVuSans-75"/>
     <path d="M 9.078125 75.984375 
L 18.109375 75.984375 
L 18.109375 31.109375 
L 44.921875 54.6875 
L 56.390625 54.6875 
L 27.390625 29.109375 
L 57.625 0 
L 45.90625 0 
L 18.109375 26.703125 
L 18.109375 0 
L 9.078125 0 
z
" id="DejaVuSans-6b"/>
     <path d="M 48.6875 27.296875 
Q 48.6875 37.203125 44.609375 42.84375 
Q 40.53125 48.484375 33.40625 48.484375 
Q 26.265625 48.484375 22.1875 42.84375 
Q 18.109375 37.203125 18.109375 27.296875 
Q 18.109375 17.390625 22.1875 11.75 
Q 26.265625 6.109375 33.40625 6.109375 
Q 40.53125 6.109375 44.609375 11.75 
Q 48.6875 17.390625 48.6875 27.296875 
z
M 18.109375 46.390625 
Q 20.953125 51.265625 25.265625 53.625 
Q 29.59375 56 35.59375 56 
Q 45.5625 56 51.78125 48.09375 
Q 58.015625 40.1875 58.015625 27.296875 
Q 58.015625 14.40625 51.78125 6.484375 
Q 45.5625 -1.421875 35.59375 -1.421875 
Q 29.59375 -1.421875 25.265625 0.953125 
Q 20.953125 3.328125 18.109375 8.203125 
L 18.109375 0 
L 9.078125 0 
L 9.078125 75.984375 
L 18.109375 75.984375 
z
" id="DejaVuSans-62"/>
     <path d="M 44.390625 34.1875 
Q 47.5625 33.109375 50.5625 29.59375 
Q 53.5625 26.078125 56.59375 19.921875 
L 66.609375 0 
L 56 0 
L 46.6875 18.703125 
Q 43.0625 26.03125 39.671875 28.421875 
Q 36.28125 30.8125 30.421875 30.8125 
L 19.671875 30.8125 
L 19.671875 0 
L 9.8125 0 
L 9.8125 72.90625 
L 32.078125 72.90625 
Q 44.578125 72.90625 50.734375 67.671875 
Q 56.890625 62.453125 56.890625 51.90625 
Q 56.890625 45.015625 53.6875 40.46875 
Q 50.484375 35.9375 44.390625 34.1875 
z
M 19.671875 64.796875 
L 19.671875 38.921875 
L 32.078125 38.921875 
Q 39.203125 38.921875 42.84375 42.21875 
Q 46.484375 45.515625 46.484375 51.90625 
Q 46.484375 58.296875 42.84375 61.546875 
Q 39.203125 64.796875 32.078125 64.796875 
z
" id="DejaVuSans-52"/>
    </defs>
    <g transform="translate(109.0385 19.56)scale(0.216 -0.216)">
     <use xlink:href="#DejaVuSans-32"/>
     <use x="63.623047" xlink:href="#DejaVuSans-34"/>
     <use x="127.246094" xlink:href="#DejaVuSans-20"/>
     <use x="159.033203" xlink:href="#DejaVuSans-4c"/>
     <use x="214.730469" xlink:href="#DejaVuSans-75"/>
     <use x="278.109375" xlink:href="#DejaVuSans-6e"/>
     <use x="341.488281" xlink:href="#DejaVuSans-61"/>
     <use x="402.767578" xlink:href="#DejaVuSans-63"/>
     <use x="457.748047" xlink:href="#DejaVuSans-65"/>
     <use x="519.271484" xlink:href="#DejaVuSans-6b"/>
     <use x="577.181641" xlink:href="#DejaVuSans-20"/>
     <use x="608.96875" xlink:href="#DejaVuSans-62"/>
     <use x="672.445312" xlink:href="#DejaVuSans-69"/>
     <use x="700.228516" xlink:href="#DejaVuSans-2d"/>
     <use x="736.3125" xlink:href="#DejaVuSans-52"/>
     <use x="805.763672" xlink:href="#DejaVuSans-61"/>
     <use x="867.042969" xlink:href="#DejaVuSans-73"/>
     <use x="919.142578" xlink:href="#DejaVuSans-74"/>
     <use x="958.351562" xlink:href="#DejaVuSans-72"/>
     <use x="999.464844" xlink:href="#DejaVuSans-69"/>
     <use x="1027.248047" xlink:href="#DejaVuSans-67"/>
     <use x="1090.724609" xlink:href="#DejaVuSans-69"/>
     <use x="1118.507812" xlink:href="#DejaVuSans-6e"/>
    </g>
   </g>
   <g id="legend_1">
    <g id="patch_7">
     <path d="M 164.92402 309.648695 
L 308.43798 309.648695 
Q 310.754502 309.648695 310.754502 307.332173 
L 310.754502 172.481643 
Q 310.754502 170.165121 308.43798 170.165121 
L 164.92402 170.165121 
Q 162.607498 170.165121 162.607498 172.481643 
L 162.607498 307.332173 
Q 162.607498 309.648695 164.92402 309.648695 
z
" style="fill:#ffffff;opacity:0.2;stroke:#cccccc;stroke-linejoin:miter;"/>
    </g>
    <g id="line2d_154">
     <path d="M 167.240542 179.545225 
L 190.40576 179.545225 
" style="fill:none;stroke:#000080;stroke-linecap:square;stroke-width:4;"/>
    </g>
    <g id="line2d_155">
     <defs>
      <path d="M 0 6 
C 1.591219 6 3.117479 5.367802 4.242641 4.242641 
C 5.367802 3.117479 6 1.591219 6 0 
C 6 -1.591219 5.367802 -3.117479 4.242641 -4.242641 
C 3.117479 -5.367802 1.591219 -6 0 -6 
C -1.591219 -6 -3.117479 -5.367802 -4.242641 -4.242641 
C -5.367802 -3.117479 -6 -1.591219 -6 0 
C -6 1.591219 -5.367802 3.117479 -4.242641 4.242641 
C -3.117479 5.367802 -1.591219 6 0 6 
z
" id="m74eaeec91d" style="stroke:#000080;stroke-width:3;"/>
     </defs>
     <g>
      <use style="fill:none;stroke:#000080;stroke-width:3;" x="178.823151" xlink:href="#m74eaeec91d" y="179.545225"/>
     </g>
    </g>
    <g id="text_14">
     <!-- MATSUMOTO-Broc -->
     <defs>
      <path d="M 9.8125 72.90625 
L 24.515625 72.90625 
L 43.109375 23.296875 
L 61.8125 72.90625 
L 76.515625 72.90625 
L 76.515625 0 
L 66.890625 0 
L 66.890625 64.015625 
L 48.09375 14.015625 
L 38.1875 14.015625 
L 19.390625 64.015625 
L 19.390625 0 
L 9.8125 0 
z
" id="DejaVuSans-4d"/>
      <path d="M 34.1875 63.1875 
L 20.796875 26.90625 
L 47.609375 26.90625 
z
M 28.609375 72.90625 
L 39.796875 72.90625 
L 67.578125 0 
L 57.328125 0 
L 50.6875 18.703125 
L 17.828125 18.703125 
L 11.1875 0 
L 0.78125 0 
z
" id="DejaVuSans-41"/>
      <path d="M -0.296875 72.90625 
L 61.375 72.90625 
L 61.375 64.59375 
L 35.5 64.59375 
L 35.5 0 
L 25.59375 0 
L 25.59375 64.59375 
L -0.296875 64.59375 
z
" id="DejaVuSans-54"/>
      <path d="M 53.515625 70.515625 
L 53.515625 60.890625 
Q 47.90625 63.578125 42.921875 64.890625 
Q 37.9375 66.21875 33.296875 66.21875 
Q 25.25 66.21875 20.875 63.09375 
Q 16.5 59.96875 16.5 54.203125 
Q 16.5 49.359375 19.40625 46.890625 
Q 22.3125 44.4375 30.421875 42.921875 
L 36.375 41.703125 
Q 47.40625 39.59375 52.65625 34.296875 
Q 57.90625 29 57.90625 20.125 
Q 57.90625 9.515625 50.796875 4.046875 
Q 43.703125 -1.421875 29.984375 -1.421875 
Q 24.8125 -1.421875 18.96875 -0.25 
Q 13.140625 0.921875 6.890625 3.21875 
L 6.890625 13.375 
Q 12.890625 10.015625 18.65625 8.296875 
Q 24.421875 6.59375 29.984375 6.59375 
Q 38.421875 6.59375 43.015625 9.90625 
Q 47.609375 13.234375 47.609375 19.390625 
Q 47.609375 24.75 44.3125 27.78125 
Q 41.015625 30.8125 33.5 32.328125 
L 27.484375 33.5 
Q 16.453125 35.6875 11.515625 40.375 
Q 6.59375 45.0625 6.59375 53.421875 
Q 6.59375 63.09375 13.40625 68.65625 
Q 20.21875 74.21875 32.171875 74.21875 
Q 37.3125 74.21875 42.625 73.28125 
Q 47.953125 72.359375 53.515625 70.515625 
z
" id="DejaVuSans-53"/>
      <path d="M 8.6875 72.90625 
L 18.609375 72.90625 
L 18.609375 28.609375 
Q 18.609375 16.890625 22.84375 11.734375 
Q 27.09375 6.59375 36.625 6.59375 
Q 46.09375 6.59375 50.34375 11.734375 
Q 54.59375 16.890625 54.59375 28.609375 
L 54.59375 72.90625 
L 64.5 72.90625 
L 64.5 27.390625 
Q 64.5 13.140625 57.4375 5.859375 
Q 50.390625 -1.421875 36.625 -1.421875 
Q 22.796875 -1.421875 15.734375 5.859375 
Q 8.6875 13.140625 8.6875 27.390625 
z
" id="DejaVuSans-55"/>
      <path d="M 39.40625 66.21875 
Q 28.65625 66.21875 22.328125 58.203125 
Q 16.015625 50.203125 16.015625 36.375 
Q 16.015625 22.609375 22.328125 14.59375 
Q 28.65625 6.59375 39.40625 6.59375 
Q 50.140625 6.59375 56.421875 14.59375 
Q 62.703125 22.609375 62.703125 36.375 
Q 62.703125 50.203125 56.421875 58.203125 
Q 50.140625 66.21875 39.40625 66.21875 
z
M 39.40625 74.21875 
Q 54.734375 74.21875 63.90625 63.9375 
Q 73.09375 53.65625 73.09375 36.375 
Q 73.09375 19.140625 63.90625 8.859375 
Q 54.734375 -1.421875 39.40625 -1.421875 
Q 24.03125 -1.421875 14.8125 8.828125 
Q 5.609375 19.09375 5.609375 36.375 
Q 5.609375 53.65625 14.8125 63.9375 
Q 24.03125 74.21875 39.40625 74.21875 
z
" id="DejaVuSans-4f"/>
      <path d="M 19.671875 34.8125 
L 19.671875 8.109375 
L 35.5 8.109375 
Q 43.453125 8.109375 47.28125 11.40625 
Q 51.125 14.703125 51.125 21.484375 
Q 51.125 28.328125 47.28125 31.5625 
Q 43.453125 34.8125 35.5 34.8125 
z
M 19.671875 64.796875 
L 19.671875 42.828125 
L 34.28125 42.828125 
Q 41.5 42.828125 45.03125 45.53125 
Q 48.578125 48.25 48.578125 53.8125 
Q 48.578125 59.328125 45.03125 62.0625 
Q 41.5 64.796875 34.28125 64.796875 
z
M 9.8125 72.90625 
L 35.015625 72.90625 
Q 46.296875 72.90625 52.390625 68.21875 
Q 58.5 63.53125 58.5 54.890625 
Q 58.5 48.1875 55.375 44.234375 
Q 52.25 40.28125 46.1875 39.3125 
Q 53.46875 37.75 57.5 32.78125 
Q 61.53125 27.828125 61.53125 20.40625 
Q 61.53125 10.640625 54.890625 5.3125 
Q 48.25 0 35.984375 0 
L 9.8125 0 
z
" id="DejaVuSans-42"/>
      <path d="M 30.609375 48.390625 
Q 23.390625 48.390625 19.1875 42.75 
Q 14.984375 37.109375 14.984375 27.296875 
Q 14.984375 17.484375 19.15625 11.84375 
Q 23.34375 6.203125 30.609375 6.203125 
Q 37.796875 6.203125 41.984375 11.859375 
Q 46.1875 17.53125 46.1875 27.296875 
Q 46.1875 37.015625 41.984375 42.703125 
Q 37.796875 48.390625 30.609375 48.390625 
z
M 30.609375 56 
Q 42.328125 56 49.015625 48.375 
Q 55.71875 40.765625 55.71875 27.296875 
Q 55.71875 13.875 49.015625 6.21875 
Q 42.328125 -1.421875 30.609375 -1.421875 
Q 18.84375 -1.421875 12.171875 6.21875 
Q 5.515625 13.875 5.515625 27.296875 
Q 5.515625 40.765625 12.171875 48.375 
Q 18.84375 56 30.609375 56 
z
" id="DejaVuSans-6f"/>
     </defs>
     <g transform="translate(199.671848 183.599138)scale(0.115826 -0.115826)">
      <use xlink:href="#DejaVuSans-4d"/>
      <use x="86.279297" xlink:href="#DejaVuSans-41"/>
      <use x="154.578125" xlink:href="#DejaVuSans-54"/>
      <use x="215.662109" xlink:href="#DejaVuSans-53"/>
      <use x="279.138672" xlink:href="#DejaVuSans-55"/>
      <use x="352.332031" xlink:href="#DejaVuSans-4d"/>
      <use x="438.611328" xlink:href="#DejaVuSans-4f"/>
      <use x="517.322266" xlink:href="#DejaVuSans-54"/>
      <use x="578.40625" xlink:href="#DejaVuSans-4f"/>
      <use x="657.148438" xlink:href="#DejaVuSans-2d"/>
      <use x="693.185547" xlink:href="#DejaVuSans-42"/>
      <use x="761.789062" xlink:href="#DejaVuSans-72"/>
      <use x="802.871094" xlink:href="#DejaVuSans-6f"/>
      <use x="864.052734" xlink:href="#DejaVuSans-63"/>
     </g>
    </g>
    <g id="line2d_156">
     <path d="M 167.240542 196.546324 
L 190.40576 196.546324 
" style="fill:none;stroke:#ff00ff;stroke-linecap:square;stroke-width:3.666667;"/>
    </g>
    <g id="line2d_157">
     <defs>
      <path d="M -0 8.485281 
L 5.091169 0 
L 0 -8.485281 
L -5.091169 -0 
z
" id="m1ffbfa353f" style="stroke:#ff00ff;stroke-linejoin:miter;stroke-width:2.5;"/>
     </defs>
     <g>
      <use style="fill:none;stroke:#ff00ff;stroke-linejoin:miter;stroke-width:2.5;" x="178.823151" xlink:href="#m1ffbfa353f" y="196.546324"/>
     </g>
    </g>
    <g id="text_15">
     <!-- R-DE-10e2-Tana -->
     <defs>
      <path d="M 9.8125 72.90625 
L 55.90625 72.90625 
L 55.90625 64.59375 
L 19.671875 64.59375 
L 19.671875 43.015625 
L 54.390625 43.015625 
L 54.390625 34.71875 
L 19.671875 34.71875 
L 19.671875 8.296875 
L 56.78125 8.296875 
L 56.78125 0 
L 9.8125 0 
z
" id="DejaVuSans-45"/>
     </defs>
     <g transform="translate(199.671848 200.600237)scale(0.115826 -0.115826)">
      <use xlink:href="#DejaVuSans-52"/>
      <use x="69.419922" xlink:href="#DejaVuSans-2d"/>
      <use x="105.503906" xlink:href="#DejaVuSans-44"/>
      <use x="182.505859" xlink:href="#DejaVuSans-45"/>
      <use x="245.689453" xlink:href="#DejaVuSans-2d"/>
      <use x="281.773438" xlink:href="#DejaVuSans-31"/>
      <use x="345.396484" xlink:href="#DejaVuSans-30"/>
      <use x="409.019531" xlink:href="#DejaVuSans-65"/>
      <use x="470.542969" xlink:href="#DejaVuSans-32"/>
      <use x="534.166016" xlink:href="#DejaVuSans-2d"/>
      <use x="570.109375" xlink:href="#DejaVuSans-54"/>
      <use x="630.943359" xlink:href="#DejaVuSans-61"/>
      <use x="692.222656" xlink:href="#DejaVuSans-6e"/>
      <use x="755.601562" xlink:href="#DejaVuSans-61"/>
     </g>
    </g>
    <g id="line2d_158">
     <path d="M 167.240542 213.547423 
L 190.40576 213.547423 
" style="fill:none;stroke:#ffa500;stroke-linecap:square;stroke-width:3.333333;"/>
    </g>
    <g id="line2d_159">
     <defs>
      <path d="M 0 -6 
L -1.347084 -1.854102 
L -5.706339 -1.854102 
L -2.179628 0.708204 
L -3.526712 4.854102 
L -0 2.291796 
L 3.526712 4.854102 
L 2.179628 0.708204 
L 5.706339 -1.854102 
L 1.347084 -1.854102 
z
" id="mcd3be40bf4" style="stroke:#ffa500;stroke-linejoin:bevel;stroke-width:2;"/>
     </defs>
     <g>
      <use style="fill:none;stroke:#ffa500;stroke-linejoin:bevel;stroke-width:2;" x="178.823151" xlink:href="#mcd3be40bf4" y="213.547423"/>
     </g>
    </g>
    <g id="text_16">
     <!-- R-DE-10e5-Tana -->
     <g transform="translate(199.671848 217.601336)scale(0.115826 -0.115826)">
      <use xlink:href="#DejaVuSans-52"/>
      <use x="69.419922" xlink:href="#DejaVuSans-2d"/>
      <use x="105.503906" xlink:href="#DejaVuSans-44"/>
      <use x="182.505859" xlink:href="#DejaVuSans-45"/>
      <use x="245.689453" xlink:href="#DejaVuSans-2d"/>
      <use x="281.773438" xlink:href="#DejaVuSans-31"/>
      <use x="345.396484" xlink:href="#DejaVuSans-30"/>
      <use x="409.019531" xlink:href="#DejaVuSans-65"/>
      <use x="470.542969" xlink:href="#DejaVuSans-35"/>
      <use x="534.166016" xlink:href="#DejaVuSans-2d"/>
      <use x="570.109375" xlink:href="#DejaVuSans-54"/>
      <use x="630.943359" xlink:href="#DejaVuSans-61"/>
      <use x="692.222656" xlink:href="#DejaVuSans-6e"/>
      <use x="755.601562" xlink:href="#DejaVuSans-61"/>
     </g>
    </g>
    <g id="line2d_160">
     <path d="M 167.240542 230.548522 
L 190.40576 230.548522 
" style="fill:none;stroke:#6495ed;stroke-linecap:square;stroke-width:3;"/>
    </g>
    <g id="line2d_161">
     <defs>
      <path d="M -0 6 
L 6 -6 
L -6 -6 
z
" id="m683f7a8e07" style="stroke:#6495ed;stroke-linejoin:miter;stroke-width:1.5;"/>
     </defs>
     <g>
      <use style="fill:none;stroke:#6495ed;stroke-linejoin:miter;stroke-width:1.5;" x="178.823151" xlink:href="#m683f7a8e07" y="230.548522"/>
     </g>
    </g>
    <g id="text_17">
     <!-- R-SHADE-10e2-T -->
     <defs>
      <path d="M 9.8125 72.90625 
L 19.671875 72.90625 
L 19.671875 43.015625 
L 55.515625 43.015625 
L 55.515625 72.90625 
L 65.375 72.90625 
L 65.375 0 
L 55.515625 0 
L 55.515625 34.71875 
L 19.671875 34.71875 
L 19.671875 0 
L 9.8125 0 
z
" id="DejaVuSans-48"/>
     </defs>
     <g transform="translate(199.671848 234.602435)scale(0.115826 -0.115826)">
      <use xlink:href="#DejaVuSans-52"/>
      <use x="69.419922" xlink:href="#DejaVuSans-2d"/>
      <use x="105.503906" xlink:href="#DejaVuSans-53"/>
      <use x="168.980469" xlink:href="#DejaVuSans-48"/>
      <use x="244.175781" xlink:href="#DejaVuSans-41"/>
      <use x="312.583984" xlink:href="#DejaVuSans-44"/>
      <use x="389.585938" xlink:href="#DejaVuSans-45"/>
      <use x="452.769531" xlink:href="#DejaVuSans-2d"/>
      <use x="488.853516" xlink:href="#DejaVuSans-31"/>
      <use x="552.476562" xlink:href="#DejaVuSans-30"/>
      <use x="616.099609" xlink:href="#DejaVuSans-65"/>
      <use x="677.623047" xlink:href="#DejaVuSans-32"/>
      <use x="741.246094" xlink:href="#DejaVuSans-2d"/>
      <use x="777.189453" xlink:href="#DejaVuSans-54"/>
     </g>
    </g>
    <g id="line2d_162">
     <path d="M 167.240542 247.54962 
L 190.40576 247.54962 
" style="fill:none;stroke:#ff0000;stroke-linecap:square;stroke-width:2.666667;"/>
    </g>
    <g id="line2d_163">
     <defs>
      <path d="M 0 -6 
L -5.196152 -3 
L -5.196152 3 
L -0 6 
L 5.196152 3 
L 5.196152 -3 
z
" id="m9826ee3b54" style="stroke:#ff0000;stroke-linejoin:miter;"/>
     </defs>
     <g>
      <use style="fill:none;stroke:#ff0000;stroke-linejoin:miter;" x="178.823151" xlink:href="#m9826ee3b54" y="247.54962"/>
     </g>
    </g>
    <g id="text_18">
     <!-- R-SHADE-10e5-T -->
     <g transform="translate(199.671848 251.603534)scale(0.115826 -0.115826)">
      <use xlink:href="#DejaVuSans-52"/>
      <use x="69.419922" xlink:href="#DejaVuSans-2d"/>
      <use x="105.503906" xlink:href="#DejaVuSans-53"/>
      <use x="168.980469" xlink:href="#DejaVuSans-48"/>
      <use x="244.175781" xlink:href="#DejaVuSans-41"/>
      <use x="312.583984" xlink:href="#DejaVuSans-44"/>
      <use x="389.585938" xlink:href="#DejaVuSans-45"/>
      <use x="452.769531" xlink:href="#DejaVuSans-2d"/>
      <use x="488.853516" xlink:href="#DejaVuSans-31"/>
      <use x="552.476562" xlink:href="#DejaVuSans-30"/>
      <use x="616.099609" xlink:href="#DejaVuSans-65"/>
      <use x="677.623047" xlink:href="#DejaVuSans-35"/>
      <use x="741.246094" xlink:href="#DejaVuSans-2d"/>
      <use x="777.189453" xlink:href="#DejaVuSans-54"/>
     </g>
    </g>
    <g id="line2d_164">
     <path d="M 167.240542 264.550719 
L 190.40576 264.550719 
" style="fill:none;stroke:#9acd32;stroke-linecap:square;stroke-width:2.333333;"/>
    </g>
    <g id="line2d_165">
     <defs>
      <path d="M 0 -6 
L -6 6 
L 6 6 
z
" id="m8da9f746ee" style="stroke:#9acd32;stroke-linejoin:miter;"/>
     </defs>
     <g>
      <use style="fill:none;stroke:#9acd32;stroke-linejoin:miter;" x="178.823151" xlink:href="#m8da9f746ee" y="264.550719"/>
     </g>
    </g>
    <g id="text_19">
     <!-- RL-SHADE-10e2- -->
     <g transform="translate(199.671848 268.604633)scale(0.115826 -0.115826)">
      <use xlink:href="#DejaVuSans-52"/>
      <use x="69.482422" xlink:href="#DejaVuSans-4c"/>
      <use x="125.179688" xlink:href="#DejaVuSans-2d"/>
      <use x="161.263672" xlink:href="#DejaVuSans-53"/>
      <use x="224.740234" xlink:href="#DejaVuSans-48"/>
      <use x="299.935547" xlink:href="#DejaVuSans-41"/>
      <use x="368.34375" xlink:href="#DejaVuSans-44"/>
      <use x="445.345703" xlink:href="#DejaVuSans-45"/>
      <use x="508.529297" xlink:href="#DejaVuSans-2d"/>
      <use x="544.613281" xlink:href="#DejaVuSans-31"/>
      <use x="608.236328" xlink:href="#DejaVuSans-30"/>
      <use x="671.859375" xlink:href="#DejaVuSans-65"/>
      <use x="733.382812" xlink:href="#DejaVuSans-32"/>
      <use x="797.005859" xlink:href="#DejaVuSans-2d"/>
     </g>
    </g>
    <g id="line2d_166">
     <path d="M 167.240542 281.551818 
L 190.40576 281.551818 
" style="fill:none;stroke:#00bfbf;stroke-linecap:square;stroke-width:2;"/>
    </g>
    <g id="line2d_167">
     <g>
      <use style="fill:none;stroke:#00bfbf;stroke-linejoin:miter;" x="178.823151" xlink:href="#mfd7368af81" y="281.551818"/>
     </g>
    </g>
    <g id="text_20">
     <!-- RL-SHADE-10e5- -->
     <g transform="translate(199.671848 285.605732)scale(0.115826 -0.115826)">
      <use xlink:href="#DejaVuSans-52"/>
      <use x="69.482422" xlink:href="#DejaVuSans-4c"/>
      <use x="125.179688" xlink:href="#DejaVuSans-2d"/>
      <use x="161.263672" xlink:href="#DejaVuSans-53"/>
      <use x="224.740234" xlink:href="#DejaVuSans-48"/>
      <use x="299.935547" xlink:href="#DejaVuSans-41"/>
      <use x="368.34375" xlink:href="#DejaVuSans-44"/>
      <use x="445.345703" xlink:href="#DejaVuSans-45"/>
      <use x="508.529297" xlink:href="#DejaVuSans-2d"/>
      <use x="544.613281" xlink:href="#DejaVuSans-31"/>
      <use x="608.236328" xlink:href="#DejaVuSans-30"/>
      <use x="671.859375" xlink:href="#DejaVuSans-65"/>
      <use x="733.382812" xlink:href="#DejaVuSans-35"/>
      <use x="797.005859" xlink:href="#DejaVuSans-2d"/>
     </g>
    </g>
    <g id="line2d_168">
     <path d="M 167.240542 298.552917 
L 190.40576 298.552917 
" style="fill:none;stroke:#adff2f;stroke-linecap:square;stroke-width:2;"/>
    </g>
    <g id="line2d_169">
     <defs>
      <path d="M 0 0 
L -6 -0 
M 0 0 
L 3 4.8 
M 0 0 
L 3 -4.8 
" id="m55f22553c0" style="stroke:#adff2f;"/>
     </defs>
     <g>
      <use style="fill:none;stroke:#adff2f;" x="178.823151" xlink:href="#m55f22553c0" y="298.552917"/>
     </g>
    </g>
    <g id="text_21">
     <!-- SOO-Derbel-noi -->
     <defs>
      <path d="M 9.421875 75.984375 
L 18.40625 75.984375 
L 18.40625 0 
L 9.421875 0 
z
" id="DejaVuSans-6c"/>
     </defs>
     <g transform="translate(199.671848 302.606831)scale(0.115826 -0.115826)">
      <use xlink:href="#DejaVuSans-53"/>
      <use x="63.476562" xlink:href="#DejaVuSans-4f"/>
      <use x="142.1875" xlink:href="#DejaVuSans-4f"/>
      <use x="220.929688" xlink:href="#DejaVuSans-2d"/>
      <use x="257.013672" xlink:href="#DejaVuSans-44"/>
      <use x="334.015625" xlink:href="#DejaVuSans-65"/>
      <use x="395.539062" xlink:href="#DejaVuSans-72"/>
      <use x="436.652344" xlink:href="#DejaVuSans-62"/>
      <use x="500.128906" xlink:href="#DejaVuSans-65"/>
      <use x="561.652344" xlink:href="#DejaVuSans-6c"/>
      <use x="589.435547" xlink:href="#DejaVuSans-2d"/>
      <use x="625.519531" xlink:href="#DejaVuSans-6e"/>
      <use x="688.898438" xlink:href="#DejaVuSans-6f"/>
      <use x="750.080078" xlink:href="#DejaVuSans-69"/>
     </g>
    </g>
   </g>
  </g>
 </g>
 <defs>
  <clipPath id="p45b3d64d10">
   <rect height="289.88" width="427.982" x="22.69" y="25.56"/>
  </clipPath>
 </defs>
</svg>
