<?xml version="1.0" encoding="utf-8" standalone="no"?>
<!DOCTYPE svg PUBLIC "-//W3C//DTD SVG 1.1//EN"
  "http://www.w3.org/Graphics/SVG/1.1/DTD/svg11.dtd">
<!-- Created with matplotlib (http://matplotlib.org/) -->
<svg height="345pt" version="1.1" viewBox="0 0 460 345" width="460pt" xmlns="http://www.w3.org/2000/svg" xmlns:xlink="http://www.w3.org/1999/xlink">
 <defs>
  <style type="text/css">
*{stroke-linecap:butt;stroke-linejoin:round;}
  </style>
 </defs>
 <g id="figure_1">
  <g id="patch_1">
   <path d="M 0 345.6 
L 460.8 345.6 
L 460.8 0 
L 0 0 
z
" style="fill:#ffffff;"/>
  </g>
  <g id="axes_1">
   <g id="patch_2">
    <path d="M 56.66 294.16 
L 399.984 294.16 
L 399.984 24.84 
L 56.66 24.84 
z
" style="fill:#ffffff;"/>
   </g>
   <g id="line2d_1">
    <path d="M 115.397326 294.16 
L 115.397326 288.931501 
L 118.803474 288.931501 
L 118.803474 283.703001 
L 122.427819 283.703001 
L 122.427819 278.474502 
L 130.750555 278.474502 
L 130.750555 273.246003 
L 144.52719 273.246003 
L 144.52719 268.017503 
L 152.665834 268.017503 
L 152.665834 262.789004 
L 154.995706 262.789004 
L 154.995706 257.560505 
L 157.009616 257.560505 
L 157.009616 252.332005 
L 158.366151 252.332005 
L 158.366151 247.103506 
L 159.524547 247.103506 
L 159.524547 241.875007 
L 161.449387 241.875007 
L 161.449387 236.646507 
L 171.902503 236.646507 
L 171.902503 231.418008 
L 173.912774 231.418008 
L 173.912774 226.189509 
L 174.441068 226.189509 
L 174.441068 220.96101 
L 175.031513 220.96101 
L 175.031513 215.73251 
L 175.76003 215.73251 
L 175.76003 210.504011 
L 176.579053 210.504011 
L 176.579053 205.275512 
L 183.028346 205.275512 
L 183.028346 200.047012 
L 183.401801 200.047012 
L 183.401801 194.818513 
L 183.731291 194.818513 
L 183.731291 189.590014 
L 183.99896 189.590014 
L 183.99896 69.334529 
L 184.255631 69.334529 
L 184.255631 64.10603 
L 184.405079 64.10603 
L 184.405079 58.877531 
L 184.47201 58.877531 
L 184.47201 53.649031 
L 184.730949 53.649031 
L 184.730949 48.420532 
L 184.871412 48.420532 
L 184.871412 43.192033 
L 184.970624 43.192033 
L 184.970624 37.963533 
L 185.106232 37.963533 
L 185.106232 32.735034 
L 185.128326 32.735034 
L 185.128326 27.506535 
L 333.534194 27.506535 
" style="fill:none;stroke:#f5deb3;stroke-linecap:square;stroke-width:6;"/>
   </g>
   <g id="line2d_2">
    <path d="M 0 0 
" style="fill:none;stroke:#f5deb3;stroke-linecap:square;stroke-width:6;"/>
    <defs>
     <path d="M -0 7.778175 
L 7.778175 0 
L 0 -7.778175 
L -7.778175 -0 
z
" id="ma27474b9b9" style="stroke:#f5deb3;stroke-linejoin:miter;stroke-width:1.5;"/>
    </defs>
    <g>
     <use style="fill:#f5deb3;stroke:#f5deb3;stroke-linejoin:miter;stroke-width:1.5;" x="0" xlink:href="#ma27474b9b9" y="0"/>
    </g>
   </g>
   <g id="line2d_3">
    <path d="M 333.534194 27.506535 
L 363.990355 288.826931 
" style="fill:none;stroke:#f5deb3;stroke-linecap:square;stroke-width:6;"/>
    <g>
     <use style="fill:#f5deb3;stroke:#f5deb3;stroke-linejoin:miter;stroke-width:1.5;" x="333.534194" xlink:href="#ma27474b9b9" y="27.506535"/>
     <use style="fill:#f5deb3;stroke:#f5deb3;stroke-linejoin:miter;stroke-width:1.5;" x="363.990355" xlink:href="#ma27474b9b9" y="288.826931"/>
    </g>
   </g>
   <g id="matplotlib.axis_1">
    <g id="xtick_1">
     <g id="line2d_4">
      <path clip-path="url(#p669ba41094)" d="M 56.66 294.16 
L 56.66 24.84 
" style="fill:none;stroke:#b0b0b0;stroke-linecap:square;stroke-width:0.8;"/>
     </g>
     <g id="line2d_5">
      <defs>
       <path d="M 0 0 
L 0 3.5 
" id="m04ab4cd05e" style="stroke:#000000;stroke-width:0.8;"/>
      </defs>
      <g>
       <use style="stroke:#000000;stroke-width:0.8;" x="56.66" xlink:href="#m04ab4cd05e" y="294.16"/>
      </g>
     </g>
     <g id="text_1">
      <!-- 0 -->
      <defs>
       <path d="M 31.78125 66.40625 
Q 24.171875 66.40625 20.328125 58.90625 
Q 16.5 51.421875 16.5 36.375 
Q 16.5 21.390625 20.328125 13.890625 
Q 24.171875 6.390625 31.78125 6.390625 
Q 39.453125 6.390625 43.28125 13.890625 
Q 47.125 21.390625 47.125 36.375 
Q 47.125 51.421875 43.28125 58.90625 
Q 39.453125 66.40625 31.78125 66.40625 
z
M 31.78125 74.21875 
Q 44.046875 74.21875 50.515625 64.515625 
Q 56.984375 54.828125 56.984375 36.375 
Q 56.984375 17.96875 50.515625 8.265625 
Q 44.046875 -1.421875 31.78125 -1.421875 
Q 19.53125 -1.421875 13.0625 8.265625 
Q 6.59375 17.96875 6.59375 36.375 
Q 6.59375 54.828125 13.0625 64.515625 
Q 19.53125 74.21875 31.78125 74.21875 
z
" id="DejaVuSans-30"/>
      </defs>
      <g transform="translate(50.2975 316.356875)scale(0.2 -0.2)">
       <use xlink:href="#DejaVuSans-30"/>
      </g>
     </g>
    </g>
    <g id="xtick_2">
     <g id="line2d_6">
      <path clip-path="url(#p669ba41094)" d="M 135.766912 294.16 
L 135.766912 24.84 
" style="fill:none;stroke:#b0b0b0;stroke-linecap:square;stroke-width:0.8;"/>
     </g>
     <g id="line2d_7">
      <g>
       <use style="stroke:#000000;stroke-width:0.8;" x="135.766912" xlink:href="#m04ab4cd05e" y="294.16"/>
      </g>
     </g>
     <g id="text_2">
      <!-- 2 -->
      <defs>
       <path d="M 19.1875 8.296875 
L 53.609375 8.296875 
L 53.609375 0 
L 7.328125 0 
L 7.328125 8.296875 
Q 12.9375 14.109375 22.625 23.890625 
Q 32.328125 33.6875 34.8125 36.53125 
Q 39.546875 41.84375 41.421875 45.53125 
Q 43.3125 49.21875 43.3125 52.78125 
Q 43.3125 58.59375 39.234375 62.25 
Q 35.15625 65.921875 28.609375 65.921875 
Q 23.96875 65.921875 18.8125 64.3125 
Q 13.671875 62.703125 7.8125 59.421875 
L 7.8125 69.390625 
Q 13.765625 71.78125 18.9375 73 
Q 24.125 74.21875 28.421875 74.21875 
Q 39.75 74.21875 46.484375 68.546875 
Q 53.21875 62.890625 53.21875 53.421875 
Q 53.21875 48.921875 51.53125 44.890625 
Q 49.859375 40.875 45.40625 35.40625 
Q 44.1875 33.984375 37.640625 27.21875 
Q 31.109375 20.453125 19.1875 8.296875 
z
" id="DejaVuSans-32"/>
      </defs>
      <g transform="translate(129.404412 316.356875)scale(0.2 -0.2)">
       <use xlink:href="#DejaVuSans-32"/>
      </g>
     </g>
    </g>
    <g id="xtick_3">
     <g id="line2d_8">
      <path clip-path="url(#p669ba41094)" d="M 214.873825 294.16 
L 214.873825 24.84 
" style="fill:none;stroke:#b0b0b0;stroke-linecap:square;stroke-width:0.8;"/>
     </g>
     <g id="line2d_9">
      <g>
       <use style="stroke:#000000;stroke-width:0.8;" x="214.873825" xlink:href="#m04ab4cd05e" y="294.16"/>
      </g>
     </g>
     <g id="text_3">
      <!-- 4 -->
      <defs>
       <path d="M 37.796875 64.3125 
L 12.890625 25.390625 
L 37.796875 25.390625 
z
M 35.203125 72.90625 
L 47.609375 72.90625 
L 47.609375 25.390625 
L 58.015625 25.390625 
L 58.015625 17.1875 
L 47.609375 17.1875 
L 47.609375 0 
L 37.796875 0 
L 37.796875 17.1875 
L 4.890625 17.1875 
L 4.890625 26.703125 
z
" id="DejaVuSans-34"/>
      </defs>
      <g transform="translate(208.511325 316.356875)scale(0.2 -0.2)">
       <use xlink:href="#DejaVuSans-34"/>
      </g>
     </g>
    </g>
    <g id="xtick_4">
     <g id="line2d_10">
      <path clip-path="url(#p669ba41094)" d="M 293.980737 294.16 
L 293.980737 24.84 
" style="fill:none;stroke:#b0b0b0;stroke-linecap:square;stroke-width:0.8;"/>
     </g>
     <g id="line2d_11">
      <g>
       <use style="stroke:#000000;stroke-width:0.8;" x="293.980737" xlink:href="#m04ab4cd05e" y="294.16"/>
      </g>
     </g>
     <g id="text_4">
      <!-- 6 -->
      <defs>
       <path d="M 33.015625 40.375 
Q 26.375 40.375 22.484375 35.828125 
Q 18.609375 31.296875 18.609375 23.390625 
Q 18.609375 15.53125 22.484375 10.953125 
Q 26.375 6.390625 33.015625 6.390625 
Q 39.65625 6.390625 43.53125 10.953125 
Q 47.40625 15.53125 47.40625 23.390625 
Q 47.40625 31.296875 43.53125 35.828125 
Q 39.65625 40.375 33.015625 40.375 
z
M 52.59375 71.296875 
L 52.59375 62.3125 
Q 48.875 64.0625 45.09375 64.984375 
Q 41.3125 65.921875 37.59375 65.921875 
Q 27.828125 65.921875 22.671875 59.328125 
Q 17.53125 52.734375 16.796875 39.40625 
Q 19.671875 43.65625 24.015625 45.921875 
Q 28.375 48.1875 33.59375 48.1875 
Q 44.578125 48.1875 50.953125 41.515625 
Q 57.328125 34.859375 57.328125 23.390625 
Q 57.328125 12.15625 50.6875 5.359375 
Q 44.046875 -1.421875 33.015625 -1.421875 
Q 20.359375 -1.421875 13.671875 8.265625 
Q 6.984375 17.96875 6.984375 36.375 
Q 6.984375 53.65625 15.1875 63.9375 
Q 23.390625 74.21875 37.203125 74.21875 
Q 40.921875 74.21875 44.703125 73.484375 
Q 48.484375 72.75 52.59375 71.296875 
z
" id="DejaVuSans-36"/>
      </defs>
      <g transform="translate(287.618237 316.356875)scale(0.2 -0.2)">
       <use xlink:href="#DejaVuSans-36"/>
      </g>
     </g>
    </g>
    <g id="xtick_5">
     <g id="line2d_12">
      <path clip-path="url(#p669ba41094)" d="M 373.08765 294.16 
L 373.08765 24.84 
" style="fill:none;stroke:#b0b0b0;stroke-linecap:square;stroke-width:0.8;"/>
     </g>
     <g id="line2d_13">
      <g>
       <use style="stroke:#000000;stroke-width:0.8;" x="373.08765" xlink:href="#m04ab4cd05e" y="294.16"/>
      </g>
     </g>
     <g id="text_5">
      <!-- 8 -->
      <defs>
       <path d="M 31.78125 34.625 
Q 24.75 34.625 20.71875 30.859375 
Q 16.703125 27.09375 16.703125 20.515625 
Q 16.703125 13.921875 20.71875 10.15625 
Q 24.75 6.390625 31.78125 6.390625 
Q 38.8125 6.390625 42.859375 10.171875 
Q 46.921875 13.96875 46.921875 20.515625 
Q 46.921875 27.09375 42.890625 30.859375 
Q 38.875 34.625 31.78125 34.625 
z
M 21.921875 38.8125 
Q 15.578125 40.375 12.03125 44.71875 
Q 8.5 49.078125 8.5 55.328125 
Q 8.5 64.0625 14.71875 69.140625 
Q 20.953125 74.21875 31.78125 74.21875 
Q 42.671875 74.21875 48.875 69.140625 
Q 55.078125 64.0625 55.078125 55.328125 
Q 55.078125 49.078125 51.53125 44.71875 
Q 48 40.375 41.703125 38.8125 
Q 48.828125 37.15625 52.796875 32.3125 
Q 56.78125 27.484375 56.78125 20.515625 
Q 56.78125 9.90625 50.3125 4.234375 
Q 43.84375 -1.421875 31.78125 -1.421875 
Q 19.734375 -1.421875 13.25 4.234375 
Q 6.78125 9.90625 6.78125 20.515625 
Q 6.78125 27.484375 10.78125 32.3125 
Q 14.796875 37.15625 21.921875 38.8125 
z
M 18.3125 54.390625 
Q 18.3125 48.734375 21.84375 45.5625 
Q 25.390625 42.390625 31.78125 42.390625 
Q 38.140625 42.390625 41.71875 45.5625 
Q 45.3125 48.734375 45.3125 54.390625 
Q 45.3125 60.0625 41.71875 63.234375 
Q 38.140625 66.40625 31.78125 66.40625 
Q 25.390625 66.40625 21.84375 63.234375 
Q 18.3125 60.0625 18.3125 54.390625 
z
" id="DejaVuSans-38"/>
      </defs>
      <g transform="translate(366.72515 316.356875)scale(0.2 -0.2)">
       <use xlink:href="#DejaVuSans-38"/>
      </g>
     </g>
    </g>
    <g id="text_6">
     <!-- log10(# f-evals / dimension) -->
     <defs>
      <path d="M 9.421875 75.984375 
L 18.40625 75.984375 
L 18.40625 0 
L 9.421875 0 
z
" id="DejaVuSans-6c"/>
      <path d="M 30.609375 48.390625 
Q 23.390625 48.390625 19.1875 42.75 
Q 14.984375 37.109375 14.984375 27.296875 
Q 14.984375 17.484375 19.15625 11.84375 
Q 23.34375 6.203125 30.609375 6.203125 
Q 37.796875 6.203125 41.984375 11.859375 
Q 46.1875 17.53125 46.1875 27.296875 
Q 46.1875 37.015625 41.984375 42.703125 
Q 37.796875 48.390625 30.609375 48.390625 
z
M 30.609375 56 
Q 42.328125 56 49.015625 48.375 
Q 55.71875 40.765625 55.71875 27.296875 
Q 55.71875 13.875 49.015625 6.21875 
Q 42.328125 -1.421875 30.609375 -1.421875 
Q 18.84375 -1.421875 12.171875 6.21875 
Q 5.515625 13.875 5.515625 27.296875 
Q 5.515625 40.765625 12.171875 48.375 
Q 18.84375 56 30.609375 56 
z
" id="DejaVuSans-6f"/>
      <path d="M 45.40625 27.984375 
Q 45.40625 37.75 41.375 43.109375 
Q 37.359375 48.484375 30.078125 48.484375 
Q 22.859375 48.484375 18.828125 43.109375 
Q 14.796875 37.75 14.796875 27.984375 
Q 14.796875 18.265625 18.828125 12.890625 
Q 22.859375 7.515625 30.078125 7.515625 
Q 37.359375 7.515625 41.375 12.890625 
Q 45.40625 18.265625 45.40625 27.984375 
z
M 54.390625 6.78125 
Q 54.390625 -7.171875 48.1875 -13.984375 
Q 42 -20.796875 29.203125 -20.796875 
Q 24.46875 -20.796875 20.265625 -20.09375 
Q 16.0625 -19.390625 12.109375 -17.921875 
L 12.109375 -9.1875 
Q 16.0625 -11.328125 19.921875 -12.34375 
Q 23.78125 -13.375 27.78125 -13.375 
Q 36.625 -13.375 41.015625 -8.765625 
Q 45.40625 -4.15625 45.40625 5.171875 
L 45.40625 9.625 
Q 42.625 4.78125 38.28125 2.390625 
Q 33.9375 0 27.875 0 
Q 17.828125 0 11.671875 7.65625 
Q 5.515625 15.328125 5.515625 27.984375 
Q 5.515625 40.671875 11.671875 48.328125 
Q 17.828125 56 27.875 56 
Q 33.9375 56 38.28125 53.609375 
Q 42.625 51.21875 45.40625 46.390625 
L 45.40625 54.6875 
L 54.390625 54.6875 
z
" id="DejaVuSans-67"/>
      <path d="M 12.40625 8.296875 
L 28.515625 8.296875 
L 28.515625 63.921875 
L 10.984375 60.40625 
L 10.984375 69.390625 
L 28.421875 72.90625 
L 38.28125 72.90625 
L 38.28125 8.296875 
L 54.390625 8.296875 
L 54.390625 0 
L 12.40625 0 
z
" id="DejaVuSans-31"/>
      <path d="M 31 75.875 
Q 24.46875 64.65625 21.28125 53.65625 
Q 18.109375 42.671875 18.109375 31.390625 
Q 18.109375 20.125 21.3125 9.0625 
Q 24.515625 -2 31 -13.1875 
L 23.1875 -13.1875 
Q 15.875 -1.703125 12.234375 9.375 
Q 8.59375 20.453125 8.59375 31.390625 
Q 8.59375 42.28125 12.203125 53.3125 
Q 15.828125 64.359375 23.1875 75.875 
z
" id="DejaVuSans-28"/>
      <path d="M 51.125 44 
L 36.921875 44 
L 32.8125 27.6875 
L 47.125 27.6875 
z
M 43.796875 71.78125 
L 38.71875 51.515625 
L 52.984375 51.515625 
L 58.109375 71.78125 
L 65.921875 71.78125 
L 60.890625 51.515625 
L 76.125 51.515625 
L 76.125 44 
L 58.984375 44 
L 54.984375 27.6875 
L 70.515625 27.6875 
L 70.515625 20.21875 
L 53.078125 20.21875 
L 48 0 
L 40.1875 0 
L 45.21875 20.21875 
L 30.90625 20.21875 
L 25.875 0 
L 18.015625 0 
L 23.09375 20.21875 
L 7.71875 20.21875 
L 7.71875 27.6875 
L 24.90625 27.6875 
L 29 44 
L 13.28125 44 
L 13.28125 51.515625 
L 30.90625 51.515625 
L 35.890625 71.78125 
z
" id="DejaVuSans-23"/>
      <path id="DejaVuSans-20"/>
      <path d="M 37.109375 75.984375 
L 37.109375 68.5 
L 28.515625 68.5 
Q 23.6875 68.5 21.796875 66.546875 
Q 19.921875 64.59375 19.921875 59.515625 
L 19.921875 54.6875 
L 34.71875 54.6875 
L 34.71875 47.703125 
L 19.921875 47.703125 
L 19.921875 0 
L 10.890625 0 
L 10.890625 47.703125 
L 2.296875 47.703125 
L 2.296875 54.6875 
L 10.890625 54.6875 
L 10.890625 58.5 
Q 10.890625 67.625 15.140625 71.796875 
Q 19.390625 75.984375 28.609375 75.984375 
z
" id="DejaVuSans-66"/>
      <path d="M 4.890625 31.390625 
L 31.203125 31.390625 
L 31.203125 23.390625 
L 4.890625 23.390625 
z
" id="DejaVuSans-2d"/>
      <path d="M 56.203125 29.59375 
L 56.203125 25.203125 
L 14.890625 25.203125 
Q 15.484375 15.921875 20.484375 11.0625 
Q 25.484375 6.203125 34.421875 6.203125 
Q 39.59375 6.203125 44.453125 7.46875 
Q 49.3125 8.734375 54.109375 11.28125 
L 54.109375 2.78125 
Q 49.265625 0.734375 44.1875 -0.34375 
Q 39.109375 -1.421875 33.890625 -1.421875 
Q 20.796875 -1.421875 13.15625 6.1875 
Q 5.515625 13.8125 5.515625 26.8125 
Q 5.515625 40.234375 12.765625 48.109375 
Q 20.015625 56 32.328125 56 
Q 43.359375 56 49.78125 48.890625 
Q 56.203125 41.796875 56.203125 29.59375 
z
M 47.21875 32.234375 
Q 47.125 39.59375 43.09375 43.984375 
Q 39.0625 48.390625 32.421875 48.390625 
Q 24.90625 48.390625 20.390625 44.140625 
Q 15.875 39.890625 15.1875 32.171875 
z
" id="DejaVuSans-65"/>
      <path d="M 2.984375 54.6875 
L 12.5 54.6875 
L 29.59375 8.796875 
L 46.6875 54.6875 
L 56.203125 54.6875 
L 35.6875 0 
L 23.484375 0 
z
" id="DejaVuSans-76"/>
      <path d="M 34.28125 27.484375 
Q 23.390625 27.484375 19.1875 25 
Q 14.984375 22.515625 14.984375 16.5 
Q 14.984375 11.71875 18.140625 8.90625 
Q 21.296875 6.109375 26.703125 6.109375 
Q 34.1875 6.109375 38.703125 11.40625 
Q 43.21875 16.703125 43.21875 25.484375 
L 43.21875 27.484375 
z
M 52.203125 31.203125 
L 52.203125 0 
L 43.21875 0 
L 43.21875 8.296875 
Q 40.140625 3.328125 35.546875 0.953125 
Q 30.953125 -1.421875 24.3125 -1.421875 
Q 15.921875 -1.421875 10.953125 3.296875 
Q 6 8.015625 6 15.921875 
Q 6 25.140625 12.171875 29.828125 
Q 18.359375 34.515625 30.609375 34.515625 
L 43.21875 34.515625 
L 43.21875 35.40625 
Q 43.21875 41.609375 39.140625 45 
Q 35.0625 48.390625 27.6875 48.390625 
Q 23 48.390625 18.546875 47.265625 
Q 14.109375 46.140625 10.015625 43.890625 
L 10.015625 52.203125 
Q 14.9375 54.109375 19.578125 55.046875 
Q 24.21875 56 28.609375 56 
Q 40.484375 56 46.34375 49.84375 
Q 52.203125 43.703125 52.203125 31.203125 
z
" id="DejaVuSans-61"/>
      <path d="M 44.28125 53.078125 
L 44.28125 44.578125 
Q 40.484375 46.53125 36.375 47.5 
Q 32.28125 48.484375 27.875 48.484375 
Q 21.1875 48.484375 17.84375 46.4375 
Q 14.5 44.390625 14.5 40.28125 
Q 14.5 37.15625 16.890625 35.375 
Q 19.28125 33.59375 26.515625 31.984375 
L 29.59375 31.296875 
Q 39.15625 29.25 43.1875 25.515625 
Q 47.21875 21.78125 47.21875 15.09375 
Q 47.21875 7.46875 41.1875 3.015625 
Q 35.15625 -1.421875 24.609375 -1.421875 
Q 20.21875 -1.421875 15.453125 -0.5625 
Q 10.6875 0.296875 5.421875 2 
L 5.421875 11.28125 
Q 10.40625 8.6875 15.234375 7.390625 
Q 20.0625 6.109375 24.8125 6.109375 
Q 31.15625 6.109375 34.5625 8.28125 
Q 37.984375 10.453125 37.984375 14.40625 
Q 37.984375 18.0625 35.515625 20.015625 
Q 33.0625 21.96875 24.703125 23.78125 
L 21.578125 24.515625 
Q 13.234375 26.265625 9.515625 29.90625 
Q 5.8125 33.546875 5.8125 39.890625 
Q 5.8125 47.609375 11.28125 51.796875 
Q 16.75 56 26.8125 56 
Q 31.78125 56 36.171875 55.265625 
Q 40.578125 54.546875 44.28125 53.078125 
z
" id="DejaVuSans-73"/>
      <path d="M 25.390625 72.90625 
L 33.6875 72.90625 
L 8.296875 -9.28125 
L 0 -9.28125 
z
" id="DejaVuSans-2f"/>
      <path d="M 45.40625 46.390625 
L 45.40625 75.984375 
L 54.390625 75.984375 
L 54.390625 0 
L 45.40625 0 
L 45.40625 8.203125 
Q 42.578125 3.328125 38.25 0.953125 
Q 33.9375 -1.421875 27.875 -1.421875 
Q 17.96875 -1.421875 11.734375 6.484375 
Q 5.515625 14.40625 5.515625 27.296875 
Q 5.515625 40.1875 11.734375 48.09375 
Q 17.96875 56 27.875 56 
Q 33.9375 56 38.25 53.625 
Q 42.578125 51.265625 45.40625 46.390625 
z
M 14.796875 27.296875 
Q 14.796875 17.390625 18.875 11.75 
Q 22.953125 6.109375 30.078125 6.109375 
Q 37.203125 6.109375 41.296875 11.75 
Q 45.40625 17.390625 45.40625 27.296875 
Q 45.40625 37.203125 41.296875 42.84375 
Q 37.203125 48.484375 30.078125 48.484375 
Q 22.953125 48.484375 18.875 42.84375 
Q 14.796875 37.203125 14.796875 27.296875 
z
" id="DejaVuSans-64"/>
      <path d="M 9.421875 54.6875 
L 18.40625 54.6875 
L 18.40625 0 
L 9.421875 0 
z
M 9.421875 75.984375 
L 18.40625 75.984375 
L 18.40625 64.59375 
L 9.421875 64.59375 
z
" id="DejaVuSans-69"/>
      <path d="M 52 44.1875 
Q 55.375 50.25 60.0625 53.125 
Q 64.75 56 71.09375 56 
Q 79.640625 56 84.28125 50.015625 
Q 88.921875 44.046875 88.921875 33.015625 
L 88.921875 0 
L 79.890625 0 
L 79.890625 32.71875 
Q 79.890625 40.578125 77.09375 44.375 
Q 74.3125 48.1875 68.609375 48.1875 
Q 61.625 48.1875 57.5625 43.546875 
Q 53.515625 38.921875 53.515625 30.90625 
L 53.515625 0 
L 44.484375 0 
L 44.484375 32.71875 
Q 44.484375 40.625 41.703125 44.40625 
Q 38.921875 48.1875 33.109375 48.1875 
Q 26.21875 48.1875 22.15625 43.53125 
Q 18.109375 38.875 18.109375 30.90625 
L 18.109375 0 
L 9.078125 0 
L 9.078125 54.6875 
L 18.109375 54.6875 
L 18.109375 46.1875 
Q 21.1875 51.21875 25.484375 53.609375 
Q 29.78125 56 35.6875 56 
Q 41.65625 56 45.828125 52.96875 
Q 50 49.953125 52 44.1875 
z
" id="DejaVuSans-6d"/>
      <path d="M 54.890625 33.015625 
L 54.890625 0 
L 45.90625 0 
L 45.90625 32.71875 
Q 45.90625 40.484375 42.875 44.328125 
Q 39.84375 48.1875 33.796875 48.1875 
Q 26.515625 48.1875 22.3125 43.546875 
Q 18.109375 38.921875 18.109375 30.90625 
L 18.109375 0 
L 9.078125 0 
L 9.078125 54.6875 
L 18.109375 54.6875 
L 18.109375 46.1875 
Q 21.34375 51.125 25.703125 53.5625 
Q 30.078125 56 35.796875 56 
Q 45.21875 56 50.046875 50.171875 
Q 54.890625 44.34375 54.890625 33.015625 
z
" id="DejaVuSans-6e"/>
      <path d="M 8.015625 75.875 
L 15.828125 75.875 
Q 23.140625 64.359375 26.78125 53.3125 
Q 30.421875 42.28125 30.421875 31.390625 
Q 30.421875 20.453125 26.78125 9.375 
Q 23.140625 -1.703125 15.828125 -13.1875 
L 8.015625 -13.1875 
Q 14.5 -2 17.703125 9.0625 
Q 20.90625 20.125 20.90625 31.390625 
Q 20.90625 42.671875 17.703125 53.65625 
Q 14.5 64.65625 8.015625 75.875 
z
" id="DejaVuSans-29"/>
     </defs>
     <g transform="translate(107.481219 337.433594)scale(0.17 -0.17)">
      <use xlink:href="#DejaVuSans-6c"/>
      <use x="27.783203" xlink:href="#DejaVuSans-6f"/>
      <use x="88.964844" xlink:href="#DejaVuSans-67"/>
      <use x="152.441406" xlink:href="#DejaVuSans-31"/>
      <use x="216.064453" xlink:href="#DejaVuSans-30"/>
      <use x="279.6875" xlink:href="#DejaVuSans-28"/>
      <use x="318.701172" xlink:href="#DejaVuSans-23"/>
      <use x="402.490234" xlink:href="#DejaVuSans-20"/>
      <use x="434.277344" xlink:href="#DejaVuSans-66"/>
      <use x="469.404297" xlink:href="#DejaVuSans-2d"/>
      <use x="505.488281" xlink:href="#DejaVuSans-65"/>
      <use x="567.011719" xlink:href="#DejaVuSans-76"/>
      <use x="626.191406" xlink:href="#DejaVuSans-61"/>
      <use x="687.470703" xlink:href="#DejaVuSans-6c"/>
      <use x="715.253906" xlink:href="#DejaVuSans-73"/>
      <use x="767.353516" xlink:href="#DejaVuSans-20"/>
      <use x="799.140625" xlink:href="#DejaVuSans-2f"/>
      <use x="832.832031" xlink:href="#DejaVuSans-20"/>
      <use x="864.619141" xlink:href="#DejaVuSans-64"/>
      <use x="928.095703" xlink:href="#DejaVuSans-69"/>
      <use x="955.878906" xlink:href="#DejaVuSans-6d"/>
      <use x="1053.291016" xlink:href="#DejaVuSans-65"/>
      <use x="1114.814453" xlink:href="#DejaVuSans-6e"/>
      <use x="1178.193359" xlink:href="#DejaVuSans-73"/>
      <use x="1230.292969" xlink:href="#DejaVuSans-69"/>
      <use x="1258.076172" xlink:href="#DejaVuSans-6f"/>
      <use x="1319.257812" xlink:href="#DejaVuSans-6e"/>
      <use x="1382.636719" xlink:href="#DejaVuSans-29"/>
     </g>
    </g>
   </g>
   <g id="matplotlib.axis_2">
    <g id="ytick_1">
     <g id="line2d_14">
      <path clip-path="url(#p669ba41094)" d="M 56.66 294.16 
L 399.984 294.16 
" style="fill:none;stroke:#b0b0b0;stroke-linecap:square;stroke-width:0.8;"/>
     </g>
     <g id="line2d_15">
      <defs>
       <path d="M 0 0 
L -3.5 0 
" id="ma19eb4b573" style="stroke:#000000;stroke-width:0.8;"/>
      </defs>
      <g>
       <use style="stroke:#000000;stroke-width:0.8;" x="56.66" xlink:href="#ma19eb4b573" y="294.16"/>
      </g>
     </g>
     <g id="text_7">
      <!-- 0.0 -->
      <defs>
       <path d="M 10.6875 12.40625 
L 21 12.40625 
L 21 0 
L 10.6875 0 
z
" id="DejaVuSans-2e"/>
      </defs>
      <g transform="translate(24.215 300.23875)scale(0.16 -0.16)">
       <use xlink:href="#DejaVuSans-30"/>
       <use x="63.623047" xlink:href="#DejaVuSans-2e"/>
       <use x="95.410156" xlink:href="#DejaVuSans-30"/>
      </g>
     </g>
    </g>
    <g id="ytick_2">
     <g id="line2d_16">
      <path clip-path="url(#p669ba41094)" d="M 56.66 240.829307 
L 399.984 240.829307 
" style="fill:none;stroke:#b0b0b0;stroke-linecap:square;stroke-width:0.8;"/>
     </g>
     <g id="line2d_17">
      <g>
       <use style="stroke:#000000;stroke-width:0.8;" x="56.66" xlink:href="#ma19eb4b573" y="240.829307"/>
      </g>
     </g>
     <g id="text_8">
      <!-- 0.2 -->
      <g transform="translate(24.215 246.908057)scale(0.16 -0.16)">
       <use xlink:href="#DejaVuSans-30"/>
       <use x="63.623047" xlink:href="#DejaVuSans-2e"/>
       <use x="95.410156" xlink:href="#DejaVuSans-32"/>
      </g>
     </g>
    </g>
    <g id="ytick_3">
     <g id="line2d_18">
      <path clip-path="url(#p669ba41094)" d="M 56.66 187.498614 
L 399.984 187.498614 
" style="fill:none;stroke:#b0b0b0;stroke-linecap:square;stroke-width:0.8;"/>
     </g>
     <g id="line2d_19">
      <g>
       <use style="stroke:#000000;stroke-width:0.8;" x="56.66" xlink:href="#ma19eb4b573" y="187.498614"/>
      </g>
     </g>
     <g id="text_9">
      <!-- 0.4 -->
      <g transform="translate(24.215 193.577364)scale(0.16 -0.16)">
       <use xlink:href="#DejaVuSans-30"/>
       <use x="63.623047" xlink:href="#DejaVuSans-2e"/>
       <use x="95.410156" xlink:href="#DejaVuSans-34"/>
      </g>
     </g>
    </g>
    <g id="ytick_4">
     <g id="line2d_20">
      <path clip-path="url(#p669ba41094)" d="M 56.66 134.167921 
L 399.984 134.167921 
" style="fill:none;stroke:#b0b0b0;stroke-linecap:square;stroke-width:0.8;"/>
     </g>
     <g id="line2d_21">
      <g>
       <use style="stroke:#000000;stroke-width:0.8;" x="56.66" xlink:href="#ma19eb4b573" y="134.167921"/>
      </g>
     </g>
     <g id="text_10">
      <!-- 0.6 -->
      <g transform="translate(24.215 140.246671)scale(0.16 -0.16)">
       <use xlink:href="#DejaVuSans-30"/>
       <use x="63.623047" xlink:href="#DejaVuSans-2e"/>
       <use x="95.410156" xlink:href="#DejaVuSans-36"/>
      </g>
     </g>
    </g>
    <g id="ytick_5">
     <g id="line2d_22">
      <path clip-path="url(#p669ba41094)" d="M 56.66 80.837228 
L 399.984 80.837228 
" style="fill:none;stroke:#b0b0b0;stroke-linecap:square;stroke-width:0.8;"/>
     </g>
     <g id="line2d_23">
      <g>
       <use style="stroke:#000000;stroke-width:0.8;" x="56.66" xlink:href="#ma19eb4b573" y="80.837228"/>
      </g>
     </g>
     <g id="text_11">
      <!-- 0.8 -->
      <g transform="translate(24.215 86.915978)scale(0.16 -0.16)">
       <use xlink:href="#DejaVuSans-30"/>
       <use x="63.623047" xlink:href="#DejaVuSans-2e"/>
       <use x="95.410156" xlink:href="#DejaVuSans-38"/>
      </g>
     </g>
    </g>
    <g id="ytick_6">
     <g id="line2d_24">
      <path clip-path="url(#p669ba41094)" d="M 56.66 27.506535 
L 399.984 27.506535 
" style="fill:none;stroke:#b0b0b0;stroke-linecap:square;stroke-width:0.8;"/>
     </g>
     <g id="line2d_25">
      <g>
       <use style="stroke:#000000;stroke-width:0.8;" x="56.66" xlink:href="#ma19eb4b573" y="27.506535"/>
      </g>
     </g>
     <g id="text_12">
      <!-- 1.0 -->
      <g transform="translate(24.215 33.585285)scale(0.16 -0.16)">
       <use xlink:href="#DejaVuSans-31"/>
       <use x="63.623047" xlink:href="#DejaVuSans-2e"/>
       <use x="95.410156" xlink:href="#DejaVuSans-30"/>
      </g>
     </g>
    </g>
    <g id="text_13">
     <!-- Fraction of function,target pairs -->
     <defs>
      <path d="M 9.8125 72.90625 
L 51.703125 72.90625 
L 51.703125 64.59375 
L 19.671875 64.59375 
L 19.671875 43.109375 
L 48.578125 43.109375 
L 48.578125 34.8125 
L 19.671875 34.8125 
L 19.671875 0 
L 9.8125 0 
z
" id="DejaVuSans-46"/>
      <path d="M 41.109375 46.296875 
Q 39.59375 47.171875 37.8125 47.578125 
Q 36.03125 48 33.890625 48 
Q 26.265625 48 22.1875 43.046875 
Q 18.109375 38.09375 18.109375 28.8125 
L 18.109375 0 
L 9.078125 0 
L 9.078125 54.6875 
L 18.109375 54.6875 
L 18.109375 46.1875 
Q 20.953125 51.171875 25.484375 53.578125 
Q 30.03125 56 36.53125 56 
Q 37.453125 56 38.578125 55.875 
Q 39.703125 55.765625 41.0625 55.515625 
z
" id="DejaVuSans-72"/>
      <path d="M 48.78125 52.59375 
L 48.78125 44.1875 
Q 44.96875 46.296875 41.140625 47.34375 
Q 37.3125 48.390625 33.40625 48.390625 
Q 24.65625 48.390625 19.8125 42.84375 
Q 14.984375 37.3125 14.984375 27.296875 
Q 14.984375 17.28125 19.8125 11.734375 
Q 24.65625 6.203125 33.40625 6.203125 
Q 37.3125 6.203125 41.140625 7.25 
Q 44.96875 8.296875 48.78125 10.40625 
L 48.78125 2.09375 
Q 45.015625 0.34375 40.984375 -0.53125 
Q 36.96875 -1.421875 32.421875 -1.421875 
Q 20.0625 -1.421875 12.78125 6.34375 
Q 5.515625 14.109375 5.515625 27.296875 
Q 5.515625 40.671875 12.859375 48.328125 
Q 20.21875 56 33.015625 56 
Q 37.15625 56 41.109375 55.140625 
Q 45.0625 54.296875 48.78125 52.59375 
z
" id="DejaVuSans-63"/>
      <path d="M 18.3125 70.21875 
L 18.3125 54.6875 
L 36.8125 54.6875 
L 36.8125 47.703125 
L 18.3125 47.703125 
L 18.3125 18.015625 
Q 18.3125 11.328125 20.140625 9.421875 
Q 21.96875 7.515625 27.59375 7.515625 
L 36.8125 7.515625 
L 36.8125 0 
L 27.59375 0 
Q 17.1875 0 13.234375 3.875 
Q 9.28125 7.765625 9.28125 18.015625 
L 9.28125 47.703125 
L 2.6875 47.703125 
L 2.6875 54.6875 
L 9.28125 54.6875 
L 9.28125 70.21875 
z
" id="DejaVuSans-74"/>
      <path d="M 8.5 21.578125 
L 8.5 54.6875 
L 17.484375 54.6875 
L 17.484375 21.921875 
Q 17.484375 14.15625 20.5 10.265625 
Q 23.53125 6.390625 29.59375 6.390625 
Q 36.859375 6.390625 41.078125 11.03125 
Q 45.3125 15.671875 45.3125 23.6875 
L 45.3125 54.6875 
L 54.296875 54.6875 
L 54.296875 0 
L 45.3125 0 
L 45.3125 8.40625 
Q 42.046875 3.421875 37.71875 1 
Q 33.40625 -1.421875 27.6875 -1.421875 
Q 18.265625 -1.421875 13.375 4.4375 
Q 8.5 10.296875 8.5 21.578125 
z
M 31.109375 56 
z
" id="DejaVuSans-75"/>
      <path d="M 11.71875 12.40625 
L 22.015625 12.40625 
L 22.015625 4 
L 14.015625 -11.625 
L 7.71875 -11.625 
L 11.71875 4 
z
" id="DejaVuSans-2c"/>
      <path d="M 18.109375 8.203125 
L 18.109375 -20.796875 
L 9.078125 -20.796875 
L 9.078125 54.6875 
L 18.109375 54.6875 
L 18.109375 46.390625 
Q 20.953125 51.265625 25.265625 53.625 
Q 29.59375 56 35.59375 56 
Q 45.5625 56 51.78125 48.09375 
Q 58.015625 40.1875 58.015625 27.296875 
Q 58.015625 14.40625 51.78125 6.484375 
Q 45.5625 -1.421875 35.59375 -1.421875 
Q 29.59375 -1.421875 25.265625 0.953125 
Q 20.953125 3.328125 18.109375 8.203125 
z
M 48.6875 27.296875 
Q 48.6875 37.203125 44.609375 42.84375 
Q 40.53125 48.484375 33.40625 48.484375 
Q 26.265625 48.484375 22.1875 42.84375 
Q 18.109375 37.203125 18.109375 27.296875 
Q 18.109375 17.390625 22.1875 11.75 
Q 26.265625 6.109375 33.40625 6.109375 
Q 40.53125 6.109375 44.609375 11.75 
Q 48.6875 17.390625 48.6875 27.296875 
z
" id="DejaVuSans-70"/>
     </defs>
     <g transform="translate(16.679531 294.639375)rotate(-90)scale(0.17 -0.17)">
      <use xlink:href="#DejaVuSans-46"/>
      <use x="57.410156" xlink:href="#DejaVuSans-72"/>
      <use x="98.523438" xlink:href="#DejaVuSans-61"/>
      <use x="159.802734" xlink:href="#DejaVuSans-63"/>
      <use x="214.783203" xlink:href="#DejaVuSans-74"/>
      <use x="253.992188" xlink:href="#DejaVuSans-69"/>
      <use x="281.775391" xlink:href="#DejaVuSans-6f"/>
      <use x="342.957031" xlink:href="#DejaVuSans-6e"/>
      <use x="406.335938" xlink:href="#DejaVuSans-20"/>
      <use x="438.123047" xlink:href="#DejaVuSans-6f"/>
      <use x="499.304688" xlink:href="#DejaVuSans-66"/>
      <use x="534.509766" xlink:href="#DejaVuSans-20"/>
      <use x="566.296875" xlink:href="#DejaVuSans-66"/>
      <use x="601.501953" xlink:href="#DejaVuSans-75"/>
      <use x="664.880859" xlink:href="#DejaVuSans-6e"/>
      <use x="728.259766" xlink:href="#DejaVuSans-63"/>
      <use x="783.240234" xlink:href="#DejaVuSans-74"/>
      <use x="822.449219" xlink:href="#DejaVuSans-69"/>
      <use x="850.232422" xlink:href="#DejaVuSans-6f"/>
      <use x="911.414062" xlink:href="#DejaVuSans-6e"/>
      <use x="974.792969" xlink:href="#DejaVuSans-2c"/>
      <use x="1006.580078" xlink:href="#DejaVuSans-74"/>
      <use x="1045.789062" xlink:href="#DejaVuSans-61"/>
      <use x="1107.068359" xlink:href="#DejaVuSans-72"/>
      <use x="1148.166016" xlink:href="#DejaVuSans-67"/>
      <use x="1211.642578" xlink:href="#DejaVuSans-65"/>
      <use x="1273.166016" xlink:href="#DejaVuSans-74"/>
      <use x="1312.375" xlink:href="#DejaVuSans-20"/>
      <use x="1344.162109" xlink:href="#DejaVuSans-70"/>
      <use x="1407.638672" xlink:href="#DejaVuSans-61"/>
      <use x="1468.917969" xlink:href="#DejaVuSans-69"/>
      <use x="1496.701172" xlink:href="#DejaVuSans-72"/>
      <use x="1537.814453" xlink:href="#DejaVuSans-73"/>
     </g>
    </g>
   </g>
   <g id="line2d_26">
    <defs>
     <path d="M 0 1.5 
C 0.397805 1.5 0.77937 1.341951 1.06066 1.06066 
C 1.341951 0.77937 1.5 0.397805 1.5 0 
C 1.5 -0.397805 1.341951 -0.77937 1.06066 -1.06066 
C 0.77937 -1.341951 0.397805 -1.5 0 -1.5 
C -0.397805 -1.5 -0.77937 -1.341951 -1.06066 -1.06066 
C -1.341951 -0.77937 -1.5 -0.397805 -1.5 0 
C -1.5 0.397805 -1.341951 0.77937 -1.06066 1.06066 
C -0.77937 1.341951 -0.397805 1.5 0 1.5 
z
" id="m378eacc448" style="stroke:#f5deb3;"/>
    </defs>
    <g>
     <use style="fill:#f5deb3;stroke:#f5deb3;" x="185.128326" xlink:href="#m378eacc448" y="27.506535"/>
     <use style="fill:#f5deb3;stroke:#f5deb3;" x="185.128326" xlink:href="#m378eacc448" y="27.506535"/>
    </g>
   </g>
   <g id="line2d_27">
    <g>
     <use style="fill:#f5deb3;stroke:#f5deb3;stroke-linejoin:miter;stroke-width:1.5;" x="183.731291" xlink:href="#ma27474b9b9" y="189.590014"/>
     <use style="fill:#f5deb3;stroke:#f5deb3;stroke-linejoin:miter;stroke-width:1.5;" x="185.128326" xlink:href="#ma27474b9b9" y="32.735034"/>
     <use style="fill:#f5deb3;stroke:#f5deb3;stroke-linejoin:miter;stroke-width:1.5;" x="185.128326" xlink:href="#ma27474b9b9" y="27.506535"/>
     <use style="fill:#f5deb3;stroke:#f5deb3;stroke-linejoin:miter;stroke-width:1.5;" x="185.128326" xlink:href="#ma27474b9b9" y="27.506535"/>
     <use style="fill:#f5deb3;stroke:#f5deb3;stroke-linejoin:miter;stroke-width:1.5;" x="333.534194" xlink:href="#ma27474b9b9" y="27.506535"/>
    </g>
   </g>
   <g id="line2d_28">
    <defs>
     <path d="M 0 1.5 
C 0.397805 1.5 0.77937 1.341951 1.06066 1.06066 
C 1.341951 0.77937 1.5 0.397805 1.5 0 
C 1.5 -0.397805 1.341951 -0.77937 1.06066 -1.06066 
C 0.77937 -1.341951 0.397805 -1.5 0 -1.5 
C -0.397805 -1.5 -0.77937 -1.341951 -1.06066 -1.06066 
C -1.341951 -0.77937 -1.5 -0.397805 -1.5 0 
C -1.5 0.397805 -1.341951 0.77937 -1.06066 1.06066 
C -0.77937 1.341951 -0.397805 1.5 0 1.5 
z
" id="m1a7d401b5d" style="stroke:#e6e6e6;"/>
    </defs>
    <g>
     <use style="fill:#e6e6e6;stroke:#e6e6e6;" x="324.465539" xlink:href="#m1a7d401b5d" y="257.560505"/>
     <use style="fill:#e6e6e6;stroke:#e6e6e6;" x="324.465539" xlink:href="#m1a7d401b5d" y="257.560505"/>
    </g>
   </g>
   <g id="line2d_29">
    <path d="M 156.370668 294.16 
L 156.370668 293.63715 
L 157.597956 293.63715 
L 157.597956 292.59145 
L 158.786157 292.59145 
L 158.786157 292.0686 
L 159.026223 292.0686 
L 159.026223 290.50005 
L 160.821781 290.50005 
L 160.821781 289.454351 
L 161.120792 289.454351 
L 161.120792 288.931501 
L 162.327848 288.931501 
L 162.327848 288.408651 
L 163.787408 288.408651 
L 163.787408 287.362951 
L 164.042665 287.362951 
L 164.042665 286.840101 
L 164.260697 286.840101 
L 164.260697 286.317251 
L 165.013296 286.317251 
L 165.013296 285.794401 
L 165.494776 285.794401 
L 165.494776 284.225851 
L 172.222284 284.225851 
L 172.222284 283.180151 
L 173.71588 283.180151 
L 173.71588 282.134452 
L 175.233832 282.134452 
L 175.233832 281.611602 
L 175.513814 281.611602 
L 175.513814 281.088752 
L 175.933702 281.088752 
L 175.933702 280.565902 
L 176.36379 280.565902 
L 176.36379 278.997352 
L 177.218731 278.997352 
L 177.218731 278.474502 
L 184.010357 278.474502 
L 184.010357 277.951652 
L 185.836323 277.951652 
L 185.836323 277.428802 
L 186.691742 277.428802 
L 186.691742 276.905952 
L 193.602402 276.905952 
L 193.602402 276.383102 
L 200.942748 276.383102 
L 200.942748 275.860252 
L 207.834395 275.860252 
L 207.834395 274.291703 
L 209.829149 274.291703 
L 209.829149 273.768853 
L 213.76565 273.768853 
L 213.76565 273.246003 
L 220.726637 273.246003 
L 220.726637 272.200303 
L 226.058285 272.200303 
L 226.058285 271.677453 
L 226.497161 271.677453 
L 226.497161 271.154603 
L 234.450866 271.154603 
L 234.450866 270.631753 
L 242.312045 270.631753 
L 242.312045 270.108903 
L 249.685767 270.108903 
L 249.685767 269.586053 
L 249.9241 269.586053 
L 249.9241 268.540353 
L 258.042156 268.540353 
L 258.042156 268.017503 
L 259.406289 268.017503 
L 259.406289 267.494653 
L 261.192155 267.494653 
L 261.192155 266.971804 
L 263.84959 266.971804 
L 263.84959 266.448954 
L 264.712295 266.448954 
L 264.712295 265.926104 
L 270.749678 265.926104 
L 270.749678 265.403254 
L 273.1881 265.403254 
L 273.1881 264.880404 
L 278.166054 264.880404 
L 278.166054 264.357554 
L 282.736872 264.357554 
L 282.736872 263.311854 
L 282.855124 263.311854 
L 282.855124 262.266154 
L 283.650741 262.266154 
L 283.650741 261.743304 
L 286.534833 261.743304 
L 286.534833 261.220454 
L 294.375759 261.220454 
L 294.375759 260.174754 
L 296.355573 260.174754 
L 296.355573 259.651904 
L 299.695116 259.651904 
L 299.695116 259.129055 
L 304.857698 259.129055 
L 304.857698 258.606205 
L 304.990689 258.606205 
L 304.990689 258.083355 
L 324.465539 258.083355 
L 324.465539 257.560505 
L 333.534194 257.560505 
" style="fill:none;stroke:#e6e6e6;stroke-linecap:square;stroke-width:1.5;"/>
   </g>
   <g id="line2d_30"/>
   <g id="line2d_31">
    <path d="M 0 0 
" style="fill:none;stroke:#e6e6e6;stroke-linecap:square;stroke-width:1.5;"/>
   </g>
   <g id="line2d_32">
    <path clip-path="url(#p669ba41094)" d="M 258.260407 268.017503 
" style="fill:none;stroke:#e6e6e6;stroke-linecap:square;stroke-width:1.5;"/>
    <defs>
     <path d="M -12 12 
L 12 -12 
M -12 -12 
L 12 12 
" id="m0a5a19ea35" style="stroke:#e6e6e6;stroke-width:3;"/>
    </defs>
    <g clip-path="url(#p669ba41094)">
     <use style="fill:#e6e6e6;stroke:#e6e6e6;stroke-width:3;" x="258.260407" xlink:href="#m0a5a19ea35" y="268.017503"/>
    </g>
   </g>
   <g id="line2d_33">
    <g>
     <use style="fill:#e6e6e6;stroke:#e6e6e6;" x="187.751363" xlink:href="#m1a7d401b5d" y="27.506535"/>
     <use style="fill:#e6e6e6;stroke:#e6e6e6;" x="187.751363" xlink:href="#m1a7d401b5d" y="27.506535"/>
    </g>
   </g>
   <g id="line2d_34">
    <path d="M 151.910859 294.16 
L 151.910859 293.63715 
L 154.096288 293.63715 
L 154.096288 293.1143 
L 154.21701 293.1143 
L 154.258039 291.54575 
L 155.787553 291.54575 
L 155.787553 291.0229 
L 156.248581 291.0229 
L 156.248581 289.977201 
L 157.306305 289.977201 
L 157.349147 287.885801 
L 159.037308 287.885801 
L 159.037308 287.362951 
L 159.444655 287.362951 
L 159.444655 286.317251 
L 159.707753 286.317251 
L 159.707753 285.271551 
L 160.034981 285.271551 
L 160.034981 284.748701 
L 160.305732 284.748701 
L 160.365324 282.657301 
L 161.88203 282.657301 
L 161.88203 281.611602 
L 162.779328 281.611602 
L 162.855801 279.520202 
L 162.996296 279.520202 
L 162.996296 278.474502 
L 163.345605 278.474502 
L 163.345605 277.951652 
L 163.474465 277.951652 
L 163.527446 276.905952 
L 163.647331 276.905952 
L 163.647331 275.860252 
L 163.854509 275.860252 
L 163.854509 275.337402 
L 163.998724 275.337402 
L 163.998724 274.814553 
L 164.590264 274.814553 
L 164.626318 273.768853 
L 164.799913 273.768853 
L 164.90418 272.723153 
L 165.206272 272.723153 
L 165.206272 271.154603 
L 165.39787 271.154603 
L 165.39787 270.631753 
L 166.008973 270.631753 
L 166.068684 269.586053 
L 166.364886 269.586053 
L 166.364886 268.540353 
L 166.807584 268.540353 
L 166.916498 265.926104 
L 167.114283 265.926104 
L 167.114283 264.880404 
L 167.234345 264.880404 
L 167.259081 263.311854 
L 167.775142 263.311854 
L 167.775142 262.789004 
L 168.139709 262.789004 
L 168.234683 261.220454 
L 169.354665 261.220454 
L 169.354665 260.697604 
L 169.553464 260.697604 
L 169.553464 259.129055 
L 170.10096 259.129055 
L 170.10096 258.606205 
L 170.74514 258.606205 
L 170.805569 257.560505 
L 170.940206 257.560505 
L 171.024235 255.991955 
L 171.435093 255.991955 
L 171.533346 254.946255 
L 171.922403 254.946255 
L 171.922403 254.423405 
L 172.05431 254.423405 
L 172.05431 253.900555 
L 172.173869 253.900555 
L 172.284404 252.332005 
L 172.35651 252.332005 
L 172.35651 251.286306 
L 172.653987 251.286306 
L 172.732552 249.194906 
L 173.130322 249.194906 
L 173.130322 248.672056 
L 173.384067 248.672056 
L 173.384067 247.626356 
L 173.784111 247.626356 
L 173.784111 247.103506 
L 174.141047 247.103506 
L 174.141047 246.057806 
L 174.252913 246.057806 
L 174.322234 245.012106 
L 174.442876 245.012106 
L 174.457784 243.966407 
L 174.650866 243.966407 
L 174.650866 242.920707 
L 175.216559 242.920707 
L 175.294583 241.352157 
L 175.431237 241.352157 
L 175.540122 239.260757 
L 175.762122 239.260757 
L 175.786381 237.692207 
L 175.912971 237.692207 
L 175.994509 236.646507 
L 176.095377 236.646507 
L 176.191575 234.555108 
L 176.436381 234.555108 
L 176.536296 232.986558 
L 176.571868 232.986558 
L 176.571868 231.940858 
L 176.701539 231.940858 
L 176.74784 230.372308 
L 176.905981 230.372308 
L 177.014497 228.280909 
L 177.074317 228.280909 
L 177.074317 227.758059 
L 177.305795 227.758059 
L 177.393942 226.712359 
L 177.644078 226.712359 
L 177.644078 226.189509 
L 177.890624 226.189509 
L 177.946 225.143809 
L 178.332314 225.143809 
L 178.332314 224.098109 
L 178.535087 224.098109 
L 178.535087 223.575259 
L 179.001661 223.575259 
L 179.026944 222.006709 
L 179.24498 222.006709 
L 179.24498 220.96101 
L 179.37028 220.96101 
L 179.37028 220.43816 
L 179.495008 220.43816 
L 179.589388 216.77821 
L 179.781905 216.77821 
L 179.781905 216.25536 
L 179.923741 216.25536 
L 179.923741 215.73251 
L 180.093713 215.73251 
L 180.148594 214.68681 
L 180.289054 214.68681 
L 180.289054 213.64111 
L 180.41593 213.64111 
L 180.41593 213.118261 
L 180.581441 213.118261 
L 180.617129 206.321211 
L 180.975553 206.321211 
L 181.024611 204.752662 
L 181.095636 204.752662 
L 181.095636 204.229812 
L 181.268429 204.229812 
L 181.268429 202.661262 
L 181.590414 202.661262 
L 181.644883 186.452914 
L 181.718721 186.452914 
L 181.742081 181.224415 
L 182.040003 181.224415 
L 182.083221 178.087315 
L 182.198419 178.087315 
L 182.214238 175.995915 
L 182.319708 175.995915 
L 182.367358 166.061767 
L 182.582273 166.061767 
L 182.664524 152.990518 
L 182.921358 152.990518 
L 183.01957 148.284869 
L 183.067236 148.284869 
L 183.086647 145.670619 
L 183.180117 145.670619 
L 183.237094 144.624919 
L 183.433697 144.624919 
L 183.480229 142.01067 
L 183.601048 142.01067 
L 183.679365 140.96497 
L 183.718127 140.96497 
L 183.805874 127.893722 
L 183.976402 127.893722 
L 183.976402 115.868173 
L 184.127775 115.868173 
L 184.167591 114.822473 
L 184.281139 114.822473 
L 184.380768 113.776773 
L 184.541945 113.776773 
L 184.541945 106.979724 
L 184.72176 106.979724 
L 184.75353 99.659825 
L 184.905365 99.659825 
L 184.905365 88.679977 
L 185.094081 88.679977 
L 185.176783 87.634277 
L 185.242948 87.634277 
L 185.254272 85.020027 
L 185.49773 85.020027 
L 185.550604 78.222978 
L 185.690183 78.222978 
L 185.690183 77.700128 
L 185.986077 77.700128 
L 185.986077 77.177278 
L 186.138427 77.177278 
L 186.138427 75.085878 
L 186.443178 75.085878 
L 186.443178 62.01463 
L 186.593104 62.01463 
L 186.656484 49.466232 
L 186.899158 49.466232 
L 186.899158 48.420532 
L 187.174673 48.420532 
L 187.261895 35.349284 
L 187.322219 35.349284 
L 187.365725 30.643634 
L 187.494531 30.643634 
L 187.586248 29.597934 
L 187.688141 29.597934 
L 187.751363 27.506535 
L 333.534194 27.506535 
L 333.534194 27.506535 
" style="fill:none;stroke:#e6e6e6;stroke-linecap:square;stroke-width:1.5;"/>
   </g>
   <g id="line2d_35"/>
   <g id="line2d_36">
    <path d="M 0 0 
" style="fill:none;stroke:#e6e6e6;stroke-linecap:square;stroke-width:1.5;"/>
   </g>
   <g id="line2d_37">
    <g>
     <use style="fill:#e6e6e6;stroke:#e6e6e6;" x="220.527527" xlink:href="#m1a7d401b5d" y="273.246003"/>
     <use style="fill:#e6e6e6;stroke:#e6e6e6;" x="220.527527" xlink:href="#m1a7d401b5d" y="273.246003"/>
    </g>
   </g>
   <g id="line2d_38">
    <path d="M 166.982214 294.16 
L 166.982214 293.63715 
L 167.298859 293.63715 
L 167.298859 293.1143 
L 167.634646 293.1143 
L 167.634646 292.59145 
L 167.696338 292.59145 
L 167.696338 292.0686 
L 168.141666 292.0686 
L 168.141666 291.54575 
L 168.736518 291.54575 
L 168.736518 290.50005 
L 170.277536 290.50005 
L 170.277536 289.977201 
L 171.222172 289.977201 
L 171.222172 289.454351 
L 171.591603 289.454351 
L 171.591603 288.931501 
L 171.929206 288.931501 
L 171.929206 288.408651 
L 173.131785 288.408651 
L 173.131785 287.885801 
L 173.657789 287.885801 
L 173.657789 286.840101 
L 173.979764 286.840101 
L 173.979764 286.317251 
L 175.355547 286.317251 
L 175.355547 285.794401 
L 176.087987 285.794401 
L 176.087987 284.748701 
L 176.357323 284.748701 
L 176.357323 283.703001 
L 177.189483 283.703001 
L 177.189483 282.657301 
L 179.925712 282.657301 
L 179.925712 281.611602 
L 180.947723 281.611602 
L 180.947723 281.088752 
L 181.191406 281.088752 
L 181.191406 280.565902 
L 182.151451 280.565902 
L 182.151451 279.520202 
L 182.919151 279.520202 
L 182.919151 278.997352 
L 184.829739 278.997352 
L 184.829739 278.474502 
L 186.323872 278.474502 
L 186.323872 277.951652 
L 196.27956 277.951652 
L 196.27956 277.428802 
L 196.948509 277.428802 
L 196.948509 276.905952 
L 197.114622 276.905952 
L 197.114622 276.383102 
L 197.977009 276.383102 
L 197.977009 275.860252 
L 198.688222 275.860252 
L 198.688222 275.337402 
L 209.718773 275.337402 
L 209.718773 274.814553 
L 214.337093 274.814553 
L 214.337093 273.768853 
L 220.527527 273.768853 
L 220.527527 273.246003 
L 333.534194 273.246003 
" style="fill:none;stroke:#e6e6e6;stroke-linecap:square;stroke-width:1.5;"/>
   </g>
   <g id="line2d_39"/>
   <g id="line2d_40">
    <path d="M 0 0 
" style="fill:none;stroke:#e6e6e6;stroke-linecap:square;stroke-width:1.5;"/>
   </g>
   <g id="line2d_41">
    <path clip-path="url(#p669ba41094)" d="M 187.227145 277.951652 
" style="fill:none;stroke:#e6e6e6;stroke-linecap:square;stroke-width:1.5;"/>
    <g clip-path="url(#p669ba41094)">
     <use style="fill:#e6e6e6;stroke:#e6e6e6;stroke-width:3;" x="187.227145" xlink:href="#m0a5a19ea35" y="277.951652"/>
    </g>
   </g>
   <g id="line2d_42">
    <path clip-path="url(#p669ba41094)" d="M 56.66 294.16 
L 56.66 294.16 
L 56.66 294.16 
L 56.66 294.16 
L 399.984 294.16 
" style="fill:none;stroke:#e6e6e6;stroke-linecap:square;stroke-width:1.5;"/>
   </g>
   <g id="line2d_43"/>
   <g id="line2d_44">
    <path clip-path="url(#p669ba41094)" d="M 0 0 
" style="fill:none;stroke:#e6e6e6;stroke-linecap:square;stroke-width:1.5;"/>
   </g>
   <g id="line2d_45">
    <g>
     <use style="fill:#e6e6e6;stroke:#e6e6e6;" x="210.85482" xlink:href="#m1a7d401b5d" y="27.506535"/>
     <use style="fill:#e6e6e6;stroke:#e6e6e6;" x="210.85482" xlink:href="#m1a7d401b5d" y="27.506535"/>
    </g>
   </g>
   <g id="line2d_46">
    <path d="M 110.762074 294.16 
L 110.762074 293.1143 
L 111.234222 293.1143 
L 111.234222 292.0686 
L 114.428693 292.0686 
L 114.428693 291.54575 
L 115.326896 291.54575 
L 115.326896 291.0229 
L 115.662357 291.0229 
L 115.717636 289.977201 
L 116.045624 289.977201 
L 116.045624 289.454351 
L 117.964788 289.454351 
L 118.049319 287.362951 
L 118.699401 287.362951 
L 118.699401 285.794401 
L 118.883987 285.794401 
L 118.883987 285.271551 
L 119.832664 285.271551 
L 119.832664 284.225851 
L 120.219182 284.225851 
L 120.219182 283.703001 
L 120.680078 283.703001 
L 120.680078 282.134452 
L 121.644702 282.134452 
L 121.644702 281.611602 
L 121.887263 281.611602 
L 121.95457 280.043052 
L 122.511636 280.043052 
L 122.511636 279.520202 
L 123.158902 279.520202 
L 123.158902 278.474502 
L 124.132806 278.474502 
L 124.132806 277.951652 
L 125.174206 277.951652 
L 125.174206 276.905952 
L 126.020271 276.905952 
L 126.020271 275.860252 
L 126.775951 275.860252 
L 126.826613 274.814553 
L 127.020634 274.814553 
L 127.020634 274.291703 
L 127.332194 274.291703 
L 127.332194 273.246003 
L 128.970694 273.246003 
L 128.970694 272.723153 
L 131.625048 272.723153 
L 131.625048 272.200303 
L 132.822945 272.200303 
L 132.822945 271.677453 
L 133.502553 271.677453 
L 133.502553 271.154603 
L 139.030709 271.154603 
L 139.030709 270.631753 
L 150.575003 270.631753 
L 150.575003 270.108903 
L 151.008366 270.108903 
L 151.008366 269.586053 
L 151.180797 269.586053 
L 151.180797 268.540353 
L 151.494786 268.540353 
L 151.494786 267.494653 
L 151.699836 267.494653 
L 151.804827 265.926104 
L 152.702726 265.926104 
L 152.702726 265.403254 
L 152.916098 265.403254 
L 152.968241 264.357554 
L 153.172125 264.357554 
L 153.172125 263.834704 
L 153.710823 263.834704 
L 153.710823 263.311854 
L 153.962804 263.311854 
L 153.962804 262.266154 
L 154.942346 262.266154 
L 154.942346 261.743304 
L 155.996482 261.743304 
L 156.00706 260.697604 
L 166.858965 260.697604 
L 166.905988 259.129055 
L 167.261141 259.129055 
L 167.261141 258.606205 
L 167.962677 258.606205 
L 167.962677 258.083355 
L 168.875194 258.083355 
L 168.875194 257.560505 
L 176.015555 257.560505 
L 176.015555 256.514805 
L 183.208901 256.514805 
L 183.208901 255.991955 
L 184.167335 255.991955 
L 184.167335 255.469105 
L 184.758489 255.469105 
L 184.796872 254.423405 
L 185.171217 254.423405 
L 185.171217 253.900555 
L 185.651865 253.900555 
L 185.651865 252.332005 
L 186.144374 252.332005 
L 186.172481 251.286306 
L 186.415512 251.286306 
L 186.433736 249.194906 
L 186.587534 249.194906 
L 186.587534 248.672056 
L 186.753657 248.672056 
L 186.753657 247.626356 
L 196.379795 247.626356 
L 196.47243 246.580656 
L 196.517749 246.580656 
L 196.610639 244.489256 
L 196.675923 244.489256 
L 196.747499 241.352157 
L 196.848482 241.352157 
L 196.957285 239.260757 
L 196.98736 239.260757 
L 197.020053 238.215057 
L 197.15346 238.215057 
L 197.255685 235.600808 
L 197.306391 235.600808 
L 197.373252 234.555108 
L 197.431557 234.555108 
L 197.530613 231.940858 
L 197.563818 231.940858 
L 197.649245 229.849458 
L 197.686311 229.849458 
L 197.796452 227.758059 
L 197.804806 227.758059 
L 197.914652 213.64111 
L 197.933774 213.64111 
L 198.044518 203.706962 
L 198.143182 203.706962 
L 198.245127 197.432763 
L 198.278223 197.432763 
L 198.377016 180.178715 
L 198.448003 180.178715 
L 198.540716 160.833267 
L 198.567367 160.833267 
L 198.668819 155.604768 
L 198.685026 155.604768 
L 198.725754 142.53352 
L 198.853471 142.53352 
L 198.961387 139.91927 
L 199.068845 139.91927 
L 199.144118 127.893722 
L 199.18206 127.893722 
L 199.224511 123.188072 
L 199.328748 123.188072 
L 199.412509 99.659825 
L 199.442272 99.659825 
L 199.498596 95.999876 
L 199.587496 95.999876 
L 199.669175 89.725677 
L 199.744873 89.725677 
L 199.759372 80.314378 
L 199.868243 80.314378 
L 199.949113 65.67458 
L 200.077942 65.67458 
L 200.077942 64.10603 
L 200.474626 64.10603 
L 200.557244 63.06033 
L 200.646546 63.06033 
L 200.646546 61.49178 
L 200.827273 61.49178 
L 200.890197 51.557632 
L 200.965923 51.557632 
L 201.071077 48.943382 
L 201.389696 48.943382 
L 201.410209 36.917833 
L 209.865171 36.917833 
L 209.865171 36.394983 
L 210.008623 36.394983 
L 210.008623 35.872134 
L 210.540924 35.872134 
L 210.540924 35.349284 
L 210.822611 35.349284 
L 210.85482 27.506535 
L 333.534194 27.506535 
L 333.534194 27.506535 
" style="fill:none;stroke:#e6e6e6;stroke-linecap:square;stroke-width:1.5;"/>
   </g>
   <g id="line2d_47"/>
   <g id="line2d_48">
    <path d="M 0 0 
" style="fill:none;stroke:#e6e6e6;stroke-linecap:square;stroke-width:1.5;"/>
   </g>
   <g id="line2d_49">
    <g>
     <use style="fill:#e6e6e6;stroke:#e6e6e6;" x="255.577165" xlink:href="#m1a7d401b5d" y="262.789004"/>
     <use style="fill:#e6e6e6;stroke:#e6e6e6;" x="255.577165" xlink:href="#m1a7d401b5d" y="262.789004"/>
    </g>
   </g>
   <g id="line2d_50">
    <path d="M 175.384665 294.16 
L 175.384665 293.63715 
L 178.822574 293.63715 
L 178.822574 293.1143 
L 178.915138 293.1143 
L 178.915138 292.59145 
L 179.356025 292.59145 
L 179.356025 292.0686 
L 185.030023 292.0686 
L 185.030023 291.54575 
L 185.596233 291.54575 
L 185.596233 291.0229 
L 186.550051 291.0229 
L 186.550051 290.50005 
L 186.749462 290.50005 
L 186.749462 289.977201 
L 187.064476 289.977201 
L 187.064476 289.454351 
L 187.59865 289.454351 
L 187.59865 288.931501 
L 188.269961 288.931501 
L 188.269961 288.408651 
L 190.599624 288.408651 
L 190.599624 287.362951 
L 193.577643 287.362951 
L 193.577643 286.317251 
L 194.247473 286.317251 
L 194.247473 285.794401 
L 194.262163 285.794401 
L 194.262163 285.271551 
L 195.532999 285.271551 
L 195.532999 284.748701 
L 195.665549 284.748701 
L 195.665549 284.225851 
L 195.828606 284.225851 
L 195.828606 283.703001 
L 196.823814 283.703001 
L 196.823814 283.180151 
L 196.825901 283.180151 
L 196.825901 282.657301 
L 197.062861 282.657301 
L 197.062861 282.134452 
L 197.1396 282.134452 
L 197.1396 281.611602 
L 197.885698 281.611602 
L 197.885698 281.088752 
L 200.615156 281.088752 
L 200.615156 280.565902 
L 200.91596 280.565902 
L 200.91596 280.043052 
L 201.03488 280.043052 
L 201.03488 278.997352 
L 201.467663 278.997352 
L 201.467663 277.428802 
L 202.660889 277.428802 
L 202.660889 276.383102 
L 202.777913 276.383102 
L 202.777913 275.337402 
L 203.273921 275.337402 
L 203.273921 274.814553 
L 203.558737 274.814553 
L 203.558737 274.291703 
L 205.309953 274.291703 
L 205.309953 273.768853 
L 206.183476 273.768853 
L 206.183476 273.246003 
L 206.542089 273.246003 
L 206.542089 272.723153 
L 206.746151 272.723153 
L 206.746151 272.200303 
L 206.896512 272.200303 
L 206.896512 271.154603 
L 207.131446 271.154603 
L 207.131446 270.631753 
L 207.248456 270.631753 
L 207.248456 270.108903 
L 208.556604 270.108903 
L 208.556604 269.586053 
L 209.110044 269.586053 
L 209.110044 269.063203 
L 210.278855 269.063203 
L 210.278855 268.017503 
L 210.53031 268.017503 
L 210.53031 267.494653 
L 210.980956 267.494653 
L 210.980956 266.971804 
L 212.725924 266.971804 
L 212.725924 266.448954 
L 221.941773 266.448954 
L 221.941773 265.403254 
L 223.910792 265.403254 
L 223.910792 264.357554 
L 225.740224 264.357554 
L 225.740224 263.834704 
L 231.474857 263.834704 
L 231.474857 263.311854 
L 255.577165 263.311854 
L 255.577165 262.789004 
L 333.534194 262.789004 
" style="fill:none;stroke:#e6e6e6;stroke-linecap:square;stroke-width:1.5;"/>
   </g>
   <g id="line2d_51"/>
   <g id="line2d_52">
    <path d="M 0 0 
" style="fill:none;stroke:#e6e6e6;stroke-linecap:square;stroke-width:1.5;"/>
   </g>
   <g id="line2d_53">
    <path clip-path="url(#p669ba41094)" d="M 214.873868 266.448954 
" style="fill:none;stroke:#e6e6e6;stroke-linecap:square;stroke-width:1.5;"/>
    <g clip-path="url(#p669ba41094)">
     <use style="fill:#e6e6e6;stroke:#e6e6e6;stroke-width:3;" x="214.873868" xlink:href="#m0a5a19ea35" y="266.448954"/>
    </g>
   </g>
   <g id="line2d_54">
    <path clip-path="url(#p669ba41094)" d="M 56.66 294.16 
L 56.66 294.16 
L 56.66 294.16 
L 56.66 294.16 
L 399.984 294.16 
" style="fill:none;stroke:#e6e6e6;stroke-linecap:square;stroke-width:1.5;"/>
   </g>
   <g id="line2d_55"/>
   <g id="line2d_56">
    <path clip-path="url(#p669ba41094)" d="M 0 0 
" style="fill:none;stroke:#e6e6e6;stroke-linecap:square;stroke-width:1.5;"/>
   </g>
   <g id="line2d_57">
    <g>
     <use style="fill:#e6e6e6;stroke:#e6e6e6;" x="326.06233" xlink:href="#m1a7d401b5d" y="283.703001"/>
     <use style="fill:#e6e6e6;stroke:#e6e6e6;" x="326.06233" xlink:href="#m1a7d401b5d" y="283.703001"/>
    </g>
   </g>
   <g id="line2d_58">
    <path d="M 176.673778 294.16 
L 176.673778 293.63715 
L 241.119807 293.63715 
L 241.119807 292.59145 
L 246.939082 292.59145 
L 246.939082 292.0686 
L 247.416352 292.0686 
L 247.416352 290.50005 
L 256.631078 290.50005 
L 256.631078 289.977201 
L 269.092693 289.977201 
L 269.092693 288.931501 
L 271.473567 288.931501 
L 271.473567 288.408651 
L 276.771076 288.408651 
L 276.771076 287.885801 
L 281.38644 287.885801 
L 281.38644 287.362951 
L 288.177542 287.362951 
L 288.177542 286.840101 
L 305.117765 286.840101 
L 305.117765 286.317251 
L 309.030967 286.317251 
L 309.030967 285.794401 
L 315.997783 285.794401 
L 315.997783 285.271551 
L 320.049286 285.271551 
L 320.049286 284.748701 
L 323.38187 284.748701 
L 323.38187 284.225851 
L 326.06233 284.225851 
L 326.06233 283.703001 
L 333.534194 283.703001 
" style="fill:none;stroke:#e6e6e6;stroke-linecap:square;stroke-width:1.5;"/>
   </g>
   <g id="line2d_59"/>
   <g id="line2d_60">
    <path d="M 0 0 
" style="fill:none;stroke:#e6e6e6;stroke-linecap:square;stroke-width:1.5;"/>
   </g>
   <g id="line2d_61">
    <path clip-path="url(#p669ba41094)" d="M 269.41899 288.931501 
" style="fill:none;stroke:#e6e6e6;stroke-linecap:square;stroke-width:1.5;"/>
    <g clip-path="url(#p669ba41094)">
     <use style="fill:#e6e6e6;stroke:#e6e6e6;stroke-width:3;" x="269.41899" xlink:href="#m0a5a19ea35" y="288.931501"/>
    </g>
   </g>
   <g id="line2d_62">
    <g>
     <use style="fill:#e6e6e6;stroke:#e6e6e6;" x="245.50319" xlink:href="#m1a7d401b5d" y="268.017503"/>
     <use style="fill:#e6e6e6;stroke:#e6e6e6;" x="245.50319" xlink:href="#m1a7d401b5d" y="268.017503"/>
    </g>
   </g>
   <g id="line2d_63">
    <path d="M 134.975977 294.16 
L 134.975977 293.63715 
L 140.184341 293.63715 
L 140.184341 292.59145 
L 144.485878 292.59145 
L 144.485878 292.0686 
L 145.521652 292.0686 
L 145.521652 291.54575 
L 152.514231 291.54575 
L 152.514231 289.977201 
L 155.378376 289.977201 
L 155.378376 289.454351 
L 155.916936 289.454351 
L 155.916936 287.885801 
L 157.007122 287.885801 
L 157.007122 287.362951 
L 160.048568 287.362951 
L 160.048568 286.840101 
L 161.036171 286.840101 
L 161.036171 285.794401 
L 161.25766 285.794401 
L 161.25766 284.748701 
L 161.336353 284.748701 
L 161.336353 284.225851 
L 161.61708 284.225851 
L 161.61708 283.703001 
L 164.067487 283.703001 
L 164.067487 283.180151 
L 164.121146 283.180151 
L 164.121146 282.657301 
L 171.009891 282.657301 
L 171.009891 282.134452 
L 172.088037 282.134452 
L 172.088037 281.611602 
L 176.898148 281.611602 
L 176.898148 281.088752 
L 177.724912 281.088752 
L 177.724912 279.520202 
L 179.765337 279.520202 
L 179.765337 278.474502 
L 181.727891 278.474502 
L 181.727891 277.951652 
L 183.448687 277.951652 
L 183.448687 277.428802 
L 184.23673 277.428802 
L 184.23673 276.905952 
L 186.697058 276.905952 
L 186.697058 276.383102 
L 194.943895 276.383102 
L 194.943895 275.337402 
L 195.1036 275.337402 
L 195.1036 274.814553 
L 195.810247 274.814553 
L 195.810247 274.291703 
L 197.353138 274.291703 
L 197.353138 273.768853 
L 198.168072 273.768853 
L 198.168072 273.246003 
L 204.460313 273.246003 
L 204.460313 272.723153 
L 206.020027 272.723153 
L 206.020027 272.200303 
L 213.913153 272.200303 
L 213.913153 271.677453 
L 219.975578 271.677453 
L 219.975578 271.154603 
L 222.356714 271.154603 
L 222.356714 270.631753 
L 224.447609 270.631753 
L 224.447609 270.108903 
L 227.992607 270.108903 
L 227.992607 269.586053 
L 230.929693 269.586053 
L 230.929693 269.063203 
L 235.624796 269.063203 
L 235.624796 268.540353 
L 245.50319 268.540353 
L 245.50319 268.017503 
L 333.534194 268.017503 
" style="fill:none;stroke:#e6e6e6;stroke-linecap:square;stroke-width:1.5;"/>
   </g>
   <g id="line2d_64"/>
   <g id="line2d_65">
    <path d="M 0 0 
" style="fill:none;stroke:#e6e6e6;stroke-linecap:square;stroke-width:1.5;"/>
   </g>
   <g id="line2d_66">
    <path clip-path="url(#p669ba41094)" d="M 187.235732 276.383102 
" style="fill:none;stroke:#e6e6e6;stroke-linecap:square;stroke-width:1.5;"/>
    <g clip-path="url(#p669ba41094)">
     <use style="fill:#e6e6e6;stroke:#e6e6e6;stroke-width:3;" x="187.235732" xlink:href="#m0a5a19ea35" y="276.383102"/>
    </g>
   </g>
   <g id="line2d_67">
    <g>
     <use style="fill:#e6e6e6;stroke:#e6e6e6;" x="230.275556" xlink:href="#m1a7d401b5d" y="278.474502"/>
     <use style="fill:#e6e6e6;stroke:#e6e6e6;" x="230.275556" xlink:href="#m1a7d401b5d" y="278.474502"/>
    </g>
   </g>
   <g id="line2d_68">
    <path d="M 146.243706 294.16 
L 146.243706 293.63715 
L 156.428808 293.63715 
L 156.428808 292.0686 
L 161.571247 292.0686 
L 161.571247 289.977201 
L 162.977806 289.977201 
L 162.977806 289.454351 
L 164.382085 289.454351 
L 164.382085 288.408651 
L 172.134626 288.408651 
L 172.134626 286.840101 
L 176.104406 286.840101 
L 176.104406 285.271551 
L 179.457583 285.271551 
L 179.457583 283.703001 
L 190.717439 283.703001 
L 190.717439 282.134452 
L 203.330019 282.134452 
L 203.330019 281.611602 
L 215.714757 281.611602 
L 215.714757 281.088752 
L 216.187378 281.088752 
L 216.187378 280.565902 
L 219.091722 280.565902 
L 219.091722 280.043052 
L 227.540107 280.043052 
L 227.540107 279.520202 
L 229.896131 279.520202 
L 229.896131 278.997352 
L 230.275556 278.997352 
L 230.275556 278.474502 
L 333.534194 278.474502 
" style="fill:none;stroke:#e6e6e6;stroke-linecap:square;stroke-width:1.5;"/>
   </g>
   <g id="line2d_69"/>
   <g id="line2d_70">
    <path d="M 0 0 
" style="fill:none;stroke:#e6e6e6;stroke-linecap:square;stroke-width:1.5;"/>
   </g>
   <g id="line2d_71">
    <path clip-path="url(#p669ba41094)" d="M 192.101187 282.134452 
" style="fill:none;stroke:#e6e6e6;stroke-linecap:square;stroke-width:1.5;"/>
    <g clip-path="url(#p669ba41094)">
     <use style="fill:#e6e6e6;stroke:#e6e6e6;stroke-width:3;" x="192.101187" xlink:href="#m0a5a19ea35" y="282.134452"/>
    </g>
   </g>
   <g id="line2d_72">
    <g>
     <use style="fill:#e6e6e6;stroke:#e6e6e6;" x="250.892521" xlink:href="#m1a7d401b5d" y="278.474502"/>
     <use style="fill:#e6e6e6;stroke:#e6e6e6;" x="250.892521" xlink:href="#m1a7d401b5d" y="278.474502"/>
    </g>
   </g>
   <g id="line2d_73">
    <path d="M 120.037743 294.16 
L 120.037743 293.63715 
L 121.448157 293.63715 
L 121.448157 292.0686 
L 121.732419 292.0686 
L 121.732419 291.54575 
L 152.644947 291.54575 
L 152.644947 290.50005 
L 152.939819 290.50005 
L 152.939819 289.977201 
L 154.908559 289.977201 
L 154.908559 289.454351 
L 166.190409 289.454351 
L 166.190409 288.931501 
L 169.064759 288.931501 
L 169.064759 288.408651 
L 175.801838 288.408651 
L 175.801838 287.885801 
L 178.920362 287.885801 
L 178.920362 287.362951 
L 185.105504 287.362951 
L 185.105504 285.794401 
L 189.237039 285.794401 
L 189.237039 284.748701 
L 189.656871 284.748701 
L 189.656871 283.180151 
L 193.002566 283.180151 
L 193.002566 282.657301 
L 200.813258 282.657301 
L 200.813258 281.611602 
L 202.258208 281.611602 
L 202.258208 281.088752 
L 219.233343 281.088752 
L 219.233343 280.565902 
L 220.489507 280.565902 
L 220.489507 280.043052 
L 238.085824 280.043052 
L 238.085824 279.520202 
L 240.389589 279.520202 
L 240.389589 278.997352 
L 250.892521 278.997352 
L 250.892521 278.474502 
L 333.534194 278.474502 
" style="fill:none;stroke:#e6e6e6;stroke-linecap:square;stroke-width:1.5;"/>
   </g>
   <g id="line2d_74"/>
   <g id="line2d_75">
    <path d="M 0 0 
" style="fill:none;stroke:#e6e6e6;stroke-linecap:square;stroke-width:1.5;"/>
   </g>
   <g id="line2d_76">
    <path clip-path="url(#p669ba41094)" d="M 217.543775 281.088752 
" style="fill:none;stroke:#e6e6e6;stroke-linecap:square;stroke-width:1.5;"/>
    <g clip-path="url(#p669ba41094)">
     <use style="fill:#e6e6e6;stroke:#e6e6e6;stroke-width:3;" x="217.543775" xlink:href="#m0a5a19ea35" y="281.088752"/>
    </g>
   </g>
   <g id="line2d_77">
    <g>
     <use style="fill:#e6e6e6;stroke:#e6e6e6;" x="299.834717" xlink:href="#m1a7d401b5d" y="268.017503"/>
     <use style="fill:#e6e6e6;stroke:#e6e6e6;" x="299.834717" xlink:href="#m1a7d401b5d" y="268.017503"/>
    </g>
   </g>
   <g id="line2d_78">
    <path d="M 192.986296 294.16 
L 192.986296 293.63715 
L 193.32446 293.63715 
L 193.32446 293.1143 
L 194.226628 293.1143 
L 194.226628 292.59145 
L 194.835307 292.59145 
L 194.835307 292.0686 
L 195.884735 292.0686 
L 195.884735 291.0229 
L 196.581019 291.0229 
L 196.581019 290.50005 
L 196.909081 290.50005 
L 196.909081 289.977201 
L 197.167792 289.977201 
L 197.167792 289.454351 
L 199.15967 289.454351 
L 199.15967 288.931501 
L 200.322821 288.931501 
L 200.322821 287.885801 
L 201.308536 287.885801 
L 201.308536 286.840101 
L 202.101032 286.840101 
L 202.101032 286.317251 
L 202.176742 286.317251 
L 202.176742 285.794401 
L 203.045201 285.794401 
L 203.045201 284.748701 
L 203.526261 284.748701 
L 203.526261 284.225851 
L 203.854086 284.225851 
L 203.854086 283.703001 
L 204.142999 283.703001 
L 204.142999 283.180151 
L 205.360088 283.180151 
L 205.360088 282.657301 
L 206.250295 282.657301 
L 206.250295 282.134452 
L 206.367312 282.134452 
L 206.367312 281.088752 
L 207.04191 281.088752 
L 207.04191 280.565902 
L 207.286303 280.565902 
L 207.286303 279.520202 
L 211.153007 279.520202 
L 211.153007 278.474502 
L 211.216991 278.474502 
L 211.216991 277.951652 
L 211.454073 277.951652 
L 211.454073 276.905952 
L 213.856974 276.905952 
L 213.856974 276.383102 
L 214.707601 276.383102 
L 214.707601 275.860252 
L 218.707432 275.860252 
L 218.707432 275.337402 
L 255.436819 275.337402 
L 255.436819 274.814553 
L 255.497661 274.814553 
L 255.497661 274.291703 
L 255.78027 274.291703 
L 255.78027 273.768853 
L 266.849691 273.768853 
L 266.849691 273.246003 
L 266.877584 273.246003 
L 266.877584 272.723153 
L 267.135159 272.723153 
L 267.135159 272.200303 
L 267.225912 272.200303 
L 267.225912 271.677453 
L 273.837272 271.677453 
L 273.837272 271.154603 
L 278.589203 271.154603 
L 278.589203 270.631753 
L 290.322679 270.631753 
L 290.322679 270.108903 
L 290.374953 270.108903 
L 290.374953 269.586053 
L 295.718072 269.586053 
L 295.718072 269.063203 
L 295.783598 269.063203 
L 295.783598 268.540353 
L 299.834717 268.540353 
L 299.834717 268.017503 
L 333.534194 268.017503 
" style="fill:none;stroke:#e6e6e6;stroke-linecap:square;stroke-width:1.5;"/>
   </g>
   <g id="line2d_79"/>
   <g id="line2d_80">
    <path d="M 0 0 
" style="fill:none;stroke:#e6e6e6;stroke-linecap:square;stroke-width:1.5;"/>
   </g>
   <g id="line2d_81">
    <path clip-path="url(#p669ba41094)" d="M 254.427281 275.337402 
" style="fill:none;stroke:#e6e6e6;stroke-linecap:square;stroke-width:1.5;"/>
    <g clip-path="url(#p669ba41094)">
     <use style="fill:#e6e6e6;stroke:#e6e6e6;stroke-width:3;" x="254.427281" xlink:href="#m0a5a19ea35" y="275.337402"/>
    </g>
   </g>
   <g id="line2d_82">
    <g>
     <use style="fill:#e6e6e6;stroke:#e6e6e6;" x="194.502833" xlink:href="#m1a7d401b5d" y="27.506535"/>
     <use style="fill:#e6e6e6;stroke:#e6e6e6;" x="194.502833" xlink:href="#m1a7d401b5d" y="27.506535"/>
    </g>
   </g>
   <g id="line2d_83">
    <path d="M 112.873074 294.16 
L 112.873074 293.1143 
L 113.946052 293.1143 
L 113.946052 292.0686 
L 114.854672 292.0686 
L 114.854672 291.54575 
L 115.027896 291.54575 
L 115.027896 291.0229 
L 116.565598 291.0229 
L 116.578726 289.977201 
L 116.903705 289.977201 
L 116.903705 289.454351 
L 117.448676 289.454351 
L 117.448676 288.931501 
L 117.818903 288.931501 
L 117.818903 288.408651 
L 117.952678 288.408651 
L 117.952678 287.885801 
L 118.217143 287.885801 
L 118.217143 287.362951 
L 118.536245 287.362951 
L 118.536245 286.840101 
L 119.984011 286.840101 
L 119.984011 286.317251 
L 120.834418 286.317251 
L 120.895767 284.225851 
L 121.634928 284.225851 
L 121.634928 283.180151 
L 122.173885 283.180151 
L 122.173885 282.134452 
L 122.769816 282.134452 
L 122.769816 281.611602 
L 123.265929 281.611602 
L 123.265929 280.565902 
L 123.381128 280.565902 
L 123.381128 280.043052 
L 123.574337 280.043052 
L 123.574337 279.520202 
L 124.681878 279.520202 
L 124.681878 278.997352 
L 125.142351 278.997352 
L 125.142351 277.951652 
L 125.387697 277.951652 
L 125.387697 277.428802 
L 126.012695 277.428802 
L 126.012695 276.905952 
L 128.053626 276.905952 
L 128.053626 275.860252 
L 128.446089 275.860252 
L 128.446089 275.337402 
L 128.823353 275.337402 
L 128.823353 274.814553 
L 144.972665 274.814553 
L 144.972665 274.291703 
L 148.372175 274.291703 
L 148.372175 273.246003 
L 148.698915 273.246003 
L 148.698915 272.723153 
L 150.741043 272.723153 
L 150.741043 272.200303 
L 155.946146 272.200303 
L 155.946146 271.677453 
L 156.861843 271.677453 
L 156.861843 271.154603 
L 157.706061 271.154603 
L 157.706061 270.631753 
L 158.428261 270.631753 
L 158.428261 270.108903 
L 159.178563 270.108903 
L 159.178563 269.063203 
L 159.874257 269.063203 
L 159.874257 268.540353 
L 161.169798 268.540353 
L 161.169798 266.971804 
L 161.55977 266.971804 
L 161.55977 266.448954 
L 162.336994 266.448954 
L 162.336994 264.880404 
L 167.719082 264.880404 
L 167.719082 263.834704 
L 168.557287 263.834704 
L 168.557287 263.311854 
L 168.739038 263.311854 
L 168.739038 262.789004 
L 169.019578 262.789004 
L 169.019578 261.743304 
L 169.206339 261.743304 
L 169.29012 259.129055 
L 169.648125 259.129055 
L 169.648125 258.606205 
L 170.039165 258.606205 
L 170.039165 258.083355 
L 170.351677 258.083355 
L 170.351677 257.560505 
L 170.823433 257.560505 
L 170.823433 257.037655 
L 178.543632 257.037655 
L 178.543632 256.514805 
L 179.208718 256.514805 
L 179.208718 255.991955 
L 179.374011 255.991955 
L 179.374011 254.946255 
L 179.570956 254.946255 
L 179.570956 254.423405 
L 180.097616 254.423405 
L 180.097616 253.900555 
L 180.283586 253.900555 
L 180.283586 253.377705 
L 180.639514 253.377705 
L 180.639514 252.854855 
L 180.775095 252.854855 
L 180.775095 251.809156 
L 181.1737 251.809156 
L 181.1737 251.286306 
L 181.437096 251.286306 
L 181.437096 250.763456 
L 181.873956 250.763456 
L 181.873956 250.240606 
L 182.06844 250.240606 
L 182.06844 249.717756 
L 182.646311 249.717756 
L 182.646311 248.672056 
L 183.014358 248.672056 
L 183.014358 247.626356 
L 183.324631 247.626356 
L 183.324631 247.103506 
L 184.263542 247.103506 
L 184.263542 246.580656 
L 188.755885 246.580656 
L 188.755885 246.057806 
L 188.914463 246.057806 
L 188.914463 245.534956 
L 189.147219 245.534956 
L 189.147219 245.012106 
L 189.726259 245.012106 
L 189.753899 243.443557 
L 189.858304 243.443557 
L 189.937341 241.875007 
L 189.975076 241.875007 
L 190.057403 240.306457 
L 190.110495 240.306457 
L 190.217093 236.123658 
L 190.247557 236.123658 
L 190.247557 234.555108 
L 190.36029 234.555108 
L 190.36029 233.509408 
L 190.537756 233.509408 
L 190.642799 229.326608 
L 190.761193 229.326608 
L 190.85063 225.143809 
L 190.890231 225.143809 
L 190.936316 222.529559 
L 191.00194 222.529559 
L 191.069545 219.91531 
L 191.140134 219.91531 
L 191.213499 218.86961 
L 191.258388 218.86961 
L 191.326177 200.047012 
L 191.381228 200.047012 
L 191.462973 194.818513 
L 191.511565 194.818513 
L 191.595191 192.727113 
L 191.628129 192.727113 
L 191.698285 183.838664 
L 191.743576 183.838664 
L 191.844145 172.335966 
L 191.859073 172.335966 
L 191.946738 169.721716 
L 191.985359 169.721716 
L 192.075947 154.036218 
L 192.096659 154.036218 
L 192.185055 138.87357 
L 192.215918 138.87357 
L 192.320632 127.370872 
L 192.352528 127.370872 
L 192.437241 92.339926 
L 192.516648 92.339926 
L 192.622216 86.065727 
L 192.786278 86.065727 
L 192.893913 75.085878 
L 192.906722 75.085878 
L 192.9952 74.040179 
L 193.053118 74.040179 
L 193.053118 72.994479 
L 193.201461 72.994479 
L 193.201461 67.765979 
L 193.34673 67.765979 
L 193.433425 56.263281 
L 193.494209 56.263281 
L 193.576159 54.694731 
L 193.622834 54.694731 
L 193.663921 52.603331 
L 193.756817 52.603331 
L 193.756817 52.080481 
L 194.033251 52.080481 
L 194.107785 43.192033 
L 194.271143 43.192033 
L 194.271143 42.146333 
L 194.400324 42.146333 
L 194.502833 27.506535 
L 333.534194 27.506535 
L 333.534194 27.506535 
" style="fill:none;stroke:#e6e6e6;stroke-linecap:square;stroke-width:1.5;"/>
   </g>
   <g id="line2d_84"/>
   <g id="line2d_85">
    <path d="M 0 0 
" style="fill:none;stroke:#e6e6e6;stroke-linecap:square;stroke-width:1.5;"/>
   </g>
   <g id="line2d_86">
    <g>
     <use style="fill:#e6e6e6;stroke:#e6e6e6;" x="264.362875" xlink:href="#m1a7d401b5d" y="283.703001"/>
     <use style="fill:#e6e6e6;stroke:#e6e6e6;" x="264.362875" xlink:href="#m1a7d401b5d" y="283.703001"/>
    </g>
   </g>
   <g id="line2d_87">
    <path d="M 173.676702 294.16 
L 173.676702 293.63715 
L 189.87322 293.63715 
L 189.87322 293.1143 
L 190.871137 293.1143 
L 190.871137 292.59145 
L 197.232315 292.59145 
L 197.232315 292.0686 
L 205.108238 292.0686 
L 205.108238 291.54575 
L 205.654195 291.54575 
L 205.654195 291.0229 
L 211.709367 291.0229 
L 211.709367 290.50005 
L 213.129395 290.50005 
L 213.129395 289.977201 
L 218.66929 289.977201 
L 218.66929 289.454351 
L 239.661178 289.454351 
L 239.661178 288.931501 
L 239.692293 288.931501 
L 239.692293 288.408651 
L 241.932538 288.408651 
L 241.932538 287.362951 
L 245.163833 287.362951 
L 245.163833 286.840101 
L 247.882461 286.840101 
L 247.882461 286.317251 
L 252.293254 286.317251 
L 252.293254 285.271551 
L 254.135814 285.271551 
L 254.135814 284.748701 
L 255.79974 284.748701 
L 255.79974 284.225851 
L 264.362875 284.225851 
L 264.362875 283.703001 
L 333.534194 283.703001 
" style="fill:none;stroke:#e6e6e6;stroke-linecap:square;stroke-width:1.5;"/>
   </g>
   <g id="line2d_88"/>
   <g id="line2d_89">
    <path d="M 0 0 
" style="fill:none;stroke:#e6e6e6;stroke-linecap:square;stroke-width:1.5;"/>
   </g>
   <g id="line2d_90">
    <path clip-path="url(#p669ba41094)" d="M 214.873825 289.977201 
" style="fill:none;stroke:#e6e6e6;stroke-linecap:square;stroke-width:1.5;"/>
    <g clip-path="url(#p669ba41094)">
     <use style="fill:#e6e6e6;stroke:#e6e6e6;stroke-width:3;" x="214.873825" xlink:href="#m0a5a19ea35" y="289.977201"/>
    </g>
   </g>
   <g id="line2d_91">
    <g>
     <use style="fill:#e6e6e6;stroke:#e6e6e6;" x="253.047207" xlink:href="#m1a7d401b5d" y="288.931501"/>
     <use style="fill:#e6e6e6;stroke:#e6e6e6;" x="253.047207" xlink:href="#m1a7d401b5d" y="288.931501"/>
    </g>
   </g>
   <g id="line2d_92">
    <path d="M 210.38442 294.16 
L 210.38442 293.63715 
L 213.291718 293.63715 
L 213.291718 293.1143 
L 233.234272 293.1143 
L 233.234272 292.59145 
L 235.004025 292.59145 
L 235.004025 292.0686 
L 237.670174 292.0686 
L 237.670174 291.54575 
L 238.305302 291.54575 
L 238.305302 291.0229 
L 244.980996 291.0229 
L 244.980996 290.50005 
L 248.083085 290.50005 
L 248.083085 289.454351 
L 253.047207 289.454351 
L 253.047207 288.931501 
L 333.534194 288.931501 
" style="fill:none;stroke:#e6e6e6;stroke-linecap:square;stroke-width:1.5;"/>
   </g>
   <g id="line2d_93"/>
   <g id="line2d_94">
    <path d="M 0 0 
" style="fill:none;stroke:#e6e6e6;stroke-linecap:square;stroke-width:1.5;"/>
   </g>
   <g id="line2d_95">
    <path clip-path="url(#p669ba41094)" d="M 214.873825 293.1143 
" style="fill:none;stroke:#e6e6e6;stroke-linecap:square;stroke-width:1.5;"/>
    <g clip-path="url(#p669ba41094)">
     <use style="fill:#e6e6e6;stroke:#e6e6e6;stroke-width:3;" x="214.873825" xlink:href="#m0a5a19ea35" y="293.1143"/>
    </g>
   </g>
   <g id="line2d_96">
    <g>
     <use style="fill:#e6e6e6;stroke:#e6e6e6;" x="258.237525" xlink:href="#m1a7d401b5d" y="283.703001"/>
     <use style="fill:#e6e6e6;stroke:#e6e6e6;" x="258.237525" xlink:href="#m1a7d401b5d" y="283.703001"/>
    </g>
   </g>
   <g id="line2d_97">
    <path d="M 102.947896 294.16 
L 102.947896 292.59145 
L 109.282463 292.59145 
L 109.282463 292.0686 
L 122.613527 292.0686 
L 122.613527 291.0229 
L 175.824372 291.0229 
L 175.824372 290.50005 
L 188.946936 290.50005 
L 188.946936 289.977201 
L 189.465305 289.977201 
L 189.465305 289.454351 
L 194.701588 289.454351 
L 194.701588 288.931501 
L 206.018086 288.931501 
L 206.018086 287.885801 
L 209.882408 287.885801 
L 209.882408 287.362951 
L 227.668537 287.362951 
L 227.668537 286.840101 
L 234.355969 286.840101 
L 234.355969 286.317251 
L 237.175207 286.317251 
L 237.175207 285.794401 
L 240.810247 285.794401 
L 240.810247 285.271551 
L 243.514283 285.271551 
L 243.514283 284.748701 
L 247.354759 284.748701 
L 247.354759 284.225851 
L 258.237525 284.225851 
L 258.237525 283.703001 
L 333.534194 283.703001 
" style="fill:none;stroke:#e6e6e6;stroke-linecap:square;stroke-width:1.5;"/>
   </g>
   <g id="line2d_98"/>
   <g id="line2d_99">
    <path d="M 0 0 
" style="fill:none;stroke:#e6e6e6;stroke-linecap:square;stroke-width:1.5;"/>
   </g>
   <g id="line2d_100">
    <path clip-path="url(#p669ba41094)" d="M 214.926737 287.362951 
" style="fill:none;stroke:#e6e6e6;stroke-linecap:square;stroke-width:1.5;"/>
    <g clip-path="url(#p669ba41094)">
     <use style="fill:#e6e6e6;stroke:#e6e6e6;stroke-width:3;" x="214.926737" xlink:href="#m0a5a19ea35" y="287.362951"/>
    </g>
   </g>
   <g id="line2d_101">
    <g>
     <use style="fill:#e6e6e6;stroke:#e6e6e6;" x="319.435255" xlink:href="#m1a7d401b5d" y="283.703001"/>
     <use style="fill:#e6e6e6;stroke:#e6e6e6;" x="319.435255" xlink:href="#m1a7d401b5d" y="283.703001"/>
    </g>
   </g>
   <g id="line2d_102">
    <path d="M 198.2148 294.16 
L 198.2148 293.63715 
L 204.244799 293.63715 
L 204.244799 292.0686 
L 223.376066 292.0686 
L 223.376066 291.54575 
L 226.244689 291.54575 
L 226.244689 291.0229 
L 233.21537 291.0229 
L 233.21537 290.50005 
L 239.314371 290.50005 
L 239.314371 289.977201 
L 242.039253 289.977201 
L 242.039253 289.454351 
L 245.408189 289.454351 
L 245.408189 288.931501 
L 261.073816 288.931501 
L 261.073816 288.408651 
L 278.242446 288.408651 
L 278.242446 287.885801 
L 282.513328 287.885801 
L 282.513328 287.362951 
L 288.30477 287.362951 
L 288.30477 286.840101 
L 289.812456 286.840101 
L 289.812456 286.317251 
L 300.777036 286.317251 
L 300.777036 285.794401 
L 301.146832 285.794401 
L 301.146832 285.271551 
L 301.812397 285.271551 
L 301.812397 284.748701 
L 306.720904 284.748701 
L 306.720904 284.225851 
L 319.435255 284.225851 
L 319.435255 283.703001 
L 333.534194 283.703001 
" style="fill:none;stroke:#e6e6e6;stroke-linecap:square;stroke-width:1.5;"/>
   </g>
   <g id="line2d_103"/>
   <g id="line2d_104">
    <path d="M 0 0 
" style="fill:none;stroke:#e6e6e6;stroke-linecap:square;stroke-width:1.5;"/>
   </g>
   <g id="line2d_105">
    <path clip-path="url(#p669ba41094)" d="M 244.975324 289.454351 
" style="fill:none;stroke:#e6e6e6;stroke-linecap:square;stroke-width:1.5;"/>
    <g clip-path="url(#p669ba41094)">
     <use style="fill:#e6e6e6;stroke:#e6e6e6;stroke-width:3;" x="244.975324" xlink:href="#m0a5a19ea35" y="289.454351"/>
    </g>
   </g>
   <g id="line2d_106">
    <path clip-path="url(#p669ba41094)" d="M 56.66 294.16 
L 56.66 294.16 
L 56.66 294.16 
L 56.66 294.16 
L 399.984 294.16 
" style="fill:none;stroke:#e6e6e6;stroke-linecap:square;stroke-width:1.5;"/>
   </g>
   <g id="line2d_107"/>
   <g id="line2d_108">
    <path clip-path="url(#p669ba41094)" d="M 0 0 
" style="fill:none;stroke:#e6e6e6;stroke-linecap:square;stroke-width:1.5;"/>
   </g>
   <g id="line2d_109">
    <path clip-path="url(#p669ba41094)" d="M 56.66 294.16 
L 56.66 294.16 
L 56.66 294.16 
L 56.66 294.16 
L 399.984 294.16 
" style="fill:none;stroke:#e6e6e6;stroke-linecap:square;stroke-width:1.5;"/>
   </g>
   <g id="line2d_110"/>
   <g id="line2d_111">
    <path clip-path="url(#p669ba41094)" d="M 0 0 
" style="fill:none;stroke:#e6e6e6;stroke-linecap:square;stroke-width:1.5;"/>
   </g>
   <g id="line2d_112">
    <path clip-path="url(#p669ba41094)" d="M 56.66 294.16 
L 56.66 294.16 
L 56.66 294.16 
L 56.66 294.16 
L 399.984 294.16 
" style="fill:none;stroke:#e6e6e6;stroke-linecap:square;stroke-width:1.5;"/>
   </g>
   <g id="line2d_113"/>
   <g id="line2d_114">
    <path clip-path="url(#p669ba41094)" d="M 0 0 
" style="fill:none;stroke:#e6e6e6;stroke-linecap:square;stroke-width:1.5;"/>
   </g>
   <g id="line2d_115">
    <g>
     <use style="fill:#e6e6e6;stroke:#e6e6e6;" x="219.614222" xlink:href="#m1a7d401b5d" y="27.506535"/>
     <use style="fill:#e6e6e6;stroke:#e6e6e6;" x="219.614222" xlink:href="#m1a7d401b5d" y="27.506535"/>
    </g>
   </g>
   <g id="line2d_116">
    <path d="M 136.981239 294.16 
L 136.981239 293.1143 
L 138.697218 293.1143 
L 138.697218 292.59145 
L 138.834266 292.59145 
L 138.834266 291.54575 
L 139.658344 291.54575 
L 139.658344 291.0229 
L 141.051995 291.0229 
L 141.051995 289.977201 
L 141.36174 289.977201 
L 141.36174 288.931501 
L 142.131795 288.931501 
L 142.131795 287.885801 
L 142.945323 287.885801 
L 142.945323 287.362951 
L 143.063674 287.362951 
L 143.122546 284.748701 
L 143.870062 284.748701 
L 143.872742 283.180151 
L 144.214904 283.180151 
L 144.214904 282.657301 
L 144.671003 282.657301 
L 144.671003 282.134452 
L 144.965125 282.134452 
L 145.06539 280.043052 
L 145.13025 280.043052 
L 145.184941 277.951652 
L 145.659822 277.951652 
L 145.659822 277.428802 
L 147.088372 277.428802 
L 147.088372 276.905952 
L 147.265191 276.905952 
L 147.265191 276.383102 
L 147.714438 276.383102 
L 147.767908 275.337402 
L 148.235562 275.337402 
L 148.241796 274.291703 
L 148.483146 274.291703 
L 148.483146 273.768853 
L 148.791714 273.768853 
L 148.791714 272.723153 
L 148.929979 272.723153 
L 148.929979 272.200303 
L 149.666383 272.200303 
L 149.672118 270.108903 
L 150.844902 270.108903 
L 150.844902 269.063203 
L 151.32723 269.063203 
L 151.32723 268.540353 
L 151.791316 268.540353 
L 151.894072 266.448954 
L 152.127606 266.448954 
L 152.220138 265.403254 
L 152.473684 265.403254 
L 152.473684 264.357554 
L 153.551438 264.357554 
L 153.551438 262.789004 
L 153.789213 262.789004 
L 153.789213 262.266154 
L 154.566983 262.266154 
L 154.566983 261.743304 
L 154.731503 261.743304 
L 154.762797 259.651904 
L 155.153411 259.651904 
L 155.153411 259.129055 
L 155.411253 259.129055 
L 155.519028 258.083355 
L 155.936857 258.083355 
L 155.936857 257.560505 
L 156.245974 257.560505 
L 156.245974 257.037655 
L 156.484181 257.037655 
L 156.523991 255.991955 
L 157.142523 255.991955 
L 157.148709 254.423405 
L 157.325903 254.423405 
L 157.40651 252.854855 
L 157.51219 252.854855 
L 157.51219 252.332005 
L 157.654496 252.332005 
L 157.654496 251.809156 
L 157.883553 251.809156 
L 157.917886 250.240606 
L 158.094385 250.240606 
L 158.094385 249.717756 
L 158.279514 249.717756 
L 158.279514 249.194906 
L 158.445473 249.194906 
L 158.445473 248.672056 
L 158.578007 248.672056 
L 158.578007 248.149206 
L 158.819857 248.149206 
L 158.876995 245.534956 
L 158.936173 245.534956 
L 158.951771 243.443557 
L 159.090415 243.443557 
L 159.156568 241.875007 
L 159.318666 241.875007 
L 159.318666 241.352157 
L 159.639414 241.352157 
L 159.639414 240.829307 
L 160.026614 240.829307 
L 160.026614 239.783607 
L 160.157918 239.783607 
L 160.250064 238.737907 
L 160.683394 238.737907 
L 160.76175 237.692207 
L 160.951132 237.692207 
L 160.951132 237.169357 
L 161.560727 237.169357 
L 161.560727 236.123658 
L 161.891417 236.123658 
L 161.891417 235.600808 
L 162.179908 235.600808 
L 162.179908 235.077958 
L 162.383568 235.077958 
L 162.493563 232.986558 
L 162.62985 232.986558 
L 162.62985 232.463708 
L 162.808713 232.463708 
L 162.808713 231.418008 
L 163.258291 231.418008 
L 163.281676 230.372308 
L 163.580265 230.372308 
L 163.580265 229.849458 
L 163.729322 229.849458 
L 163.729322 229.326608 
L 164.13927 229.326608 
L 164.13927 228.803758 
L 164.302343 228.803758 
L 164.302343 228.280909 
L 164.450142 228.280909 
L 164.450142 227.758059 
L 164.633519 227.758059 
L 164.633519 227.235209 
L 164.746747 227.235209 
L 164.803082 225.666659 
L 165.342688 225.666659 
L 165.342688 224.620959 
L 165.961647 224.620959 
L 166.030375 222.529559 
L 166.276415 222.529559 
L 166.276415 222.006709 
L 166.582662 222.006709 
L 166.582662 221.483859 
L 166.787835 221.483859 
L 166.833645 220.43816 
L 167.034468 220.43816 
L 167.034468 219.39246 
L 167.43872 219.39246 
L 167.482151 207.366911 
L 167.756476 207.366911 
L 167.867509 199.524162 
L 167.919124 199.524162 
L 167.973878 190.112864 
L 168.05601 190.112864 
L 168.058632 188.544314 
L 168.187912 188.544314 
L 168.294907 185.930064 
L 168.449357 185.930064 
L 168.52989 159.264718 
L 168.633515 159.264718 
L 168.633515 158.219018 
L 168.781193 158.219018 
L 168.781193 157.696168 
L 168.918886 157.696168 
L 169.002837 155.604768 
L 169.070939 155.604768 
L 169.109822 152.990518 
L 169.460091 152.990518 
L 169.460091 151.944818 
L 183.04835 151.944818 
L 183.105764 149.330569 
L 183.213241 149.330569 
L 183.213241 148.284869 
L 183.562287 148.284869 
L 183.57982 147.239169 
L 183.830227 147.239169 
L 183.830227 146.716319 
L 183.943419 146.716319 
L 183.947578 145.670619 
L 184.059486 145.670619 
L 184.148337 144.624919 
L 184.173235 144.624919 
L 184.173235 144.10207 
L 184.309409 144.10207 
L 184.310427 142.53352 
L 184.422279 142.53352 
L 184.422279 142.01067 
L 184.636333 142.01067 
L 184.636333 141.48782 
L 184.872397 141.48782 
L 184.872397 140.96497 
L 185.029535 140.96497 
L 185.029535 140.44212 
L 185.161049 140.44212 
L 185.245599 138.87357 
L 185.424196 138.87357 
L 185.51814 126.848022 
L 185.609922 126.848022 
L 185.681493 125.279472 
L 185.751362 125.279472 
L 185.843539 98.614125 
L 185.86517 98.614125 
L 185.915767 95.477026 
L 186.013522 95.477026 
L 186.013522 94.431326 
L 186.227645 94.431326 
L 186.227645 93.908476 
L 186.524122 93.908476 
L 186.53575 87.634277 
L 186.775715 87.634277 
L 186.863227 74.040179 
L 199.87719 74.040179 
L 199.87719 73.517329 
L 200.052111 73.517329 
L 200.052111 66.72028 
L 200.177849 66.72028 
L 200.177849 65.15173 
L 200.29846 65.15173 
L 200.383125 53.649031 
L 200.628841 53.649031 
L 200.702395 52.080481 
L 200.849925 52.080481 
L 200.849925 51.034782 
L 210.487842 51.034782 
L 210.555121 49.989082 
L 210.634729 49.989082 
L 210.684948 38.486383 
L 219.418725 38.486383 
L 219.418725 30.120784 
L 219.538647 30.120784 
L 219.614222 27.506535 
L 333.534194 27.506535 
L 333.534194 27.506535 
" style="fill:none;stroke:#e6e6e6;stroke-linecap:square;stroke-width:1.5;"/>
   </g>
   <g id="line2d_117"/>
   <g id="line2d_118">
    <path d="M 0 0 
" style="fill:none;stroke:#e6e6e6;stroke-linecap:square;stroke-width:1.5;"/>
   </g>
   <g id="line2d_119">
    <path d="M 333.534194 294.16 
L 333.534194 27.506535 
" style="fill:none;stroke:#000000;stroke-linecap:square;stroke-width:1.5;"/>
   </g>
   <g id="patch_3">
    <path d="M 56.66 294.16 
L 56.66 24.84 
" style="fill:none;stroke:#000000;stroke-linecap:square;stroke-linejoin:miter;stroke-width:0.8;"/>
   </g>
   <g id="patch_4">
    <path d="M 399.984 294.16 
L 399.984 24.84 
" style="fill:none;stroke:#000000;stroke-linecap:square;stroke-linejoin:miter;stroke-width:0.8;"/>
   </g>
   <g id="patch_5">
    <path d="M 56.66 294.16 
L 399.984 294.16 
" style="fill:none;stroke:#000000;stroke-linecap:square;stroke-linejoin:miter;stroke-width:0.8;"/>
   </g>
   <g id="patch_6">
    <path d="M 56.66 24.84 
L 399.984 24.84 
" style="fill:none;stroke:#000000;stroke-linecap:square;stroke-linejoin:miter;stroke-width:0.8;"/>
   </g>
   <g id="text_14">
    <!-- best 2009 -->
    <defs>
     <path d="M 48.6875 27.296875 
Q 48.6875 37.203125 44.609375 42.84375 
Q 40.53125 48.484375 33.40625 48.484375 
Q 26.265625 48.484375 22.1875 42.84375 
Q 18.109375 37.203125 18.109375 27.296875 
Q 18.109375 17.390625 22.1875 11.75 
Q 26.265625 6.109375 33.40625 6.109375 
Q 40.53125 6.109375 44.609375 11.75 
Q 48.6875 17.390625 48.6875 27.296875 
z
M 18.109375 46.390625 
Q 20.953125 51.265625 25.265625 53.625 
Q 29.59375 56 35.59375 56 
Q 45.5625 56 51.78125 48.09375 
Q 58.015625 40.1875 58.015625 27.296875 
Q 58.015625 14.40625 51.78125 6.484375 
Q 45.5625 -1.421875 35.59375 -1.421875 
Q 29.59375 -1.421875 25.265625 0.953125 
Q 20.953125 3.328125 18.109375 8.203125 
L 18.109375 0 
L 9.078125 0 
L 9.078125 75.984375 
L 18.109375 75.984375 
z
" id="DejaVuSans-62"/>
     <path d="M 10.984375 1.515625 
L 10.984375 10.5 
Q 14.703125 8.734375 18.5 7.8125 
Q 22.3125 6.890625 25.984375 6.890625 
Q 35.75 6.890625 40.890625 13.453125 
Q 46.046875 20.015625 46.78125 33.40625 
Q 43.953125 29.203125 39.59375 26.953125 
Q 35.25 24.703125 29.984375 24.703125 
Q 19.046875 24.703125 12.671875 31.3125 
Q 6.296875 37.9375 6.296875 49.421875 
Q 6.296875 60.640625 12.9375 67.421875 
Q 19.578125 74.21875 30.609375 74.21875 
Q 43.265625 74.21875 49.921875 64.515625 
Q 56.59375 54.828125 56.59375 36.375 
Q 56.59375 19.140625 48.40625 8.859375 
Q 40.234375 -1.421875 26.421875 -1.421875 
Q 22.703125 -1.421875 18.890625 -0.6875 
Q 15.09375 0.046875 10.984375 1.515625 
z
M 30.609375 32.421875 
Q 37.25 32.421875 41.125 36.953125 
Q 45.015625 41.5 45.015625 49.421875 
Q 45.015625 57.28125 41.125 61.84375 
Q 37.25 66.40625 30.609375 66.40625 
Q 23.96875 66.40625 20.09375 61.84375 
Q 16.21875 57.28125 16.21875 49.421875 
Q 16.21875 41.5 20.09375 36.953125 
Q 23.96875 32.421875 30.609375 32.421875 
z
" id="DejaVuSans-39"/>
    </defs>
    <g transform="translate(369.527839 293.517868)scale(0.17 -0.17)">
     <use xlink:href="#DejaVuSans-62"/>
     <use x="63.476562" xlink:href="#DejaVuSans-65"/>
     <use x="125" xlink:href="#DejaVuSans-73"/>
     <use x="177.099609" xlink:href="#DejaVuSans-74"/>
     <use x="216.308594" xlink:href="#DejaVuSans-20"/>
     <use x="248.095703" xlink:href="#DejaVuSans-32"/>
     <use x="311.71875" xlink:href="#DejaVuSans-30"/>
     <use x="375.341797" xlink:href="#DejaVuSans-30"/>
     <use x="438.964844" xlink:href="#DejaVuSans-39"/>
    </g>
   </g>
   <g id="text_15">
    <!-- bbob f7, 40-D -->
    <defs>
     <path d="M 8.203125 72.90625 
L 55.078125 72.90625 
L 55.078125 68.703125 
L 28.609375 0 
L 18.3125 0 
L 43.21875 64.59375 
L 8.203125 64.59375 
z
" id="DejaVuSans-37"/>
     <path d="M 19.671875 64.796875 
L 19.671875 8.109375 
L 31.59375 8.109375 
Q 46.6875 8.109375 53.6875 14.9375 
Q 60.6875 21.78125 60.6875 36.53125 
Q 60.6875 51.171875 53.6875 57.984375 
Q 46.6875 64.796875 31.59375 64.796875 
z
M 9.8125 72.90625 
L 30.078125 72.90625 
Q 51.265625 72.90625 61.171875 64.09375 
Q 71.09375 55.28125 71.09375 36.53125 
Q 71.09375 17.671875 61.125 8.828125 
Q 51.171875 0 30.078125 0 
L 9.8125 0 
z
" id="DejaVuSans-44"/>
    </defs>
    <g transform="translate(60.09324 35.283606)scale(0.102 -0.102)">
     <use xlink:href="#DejaVuSans-62"/>
     <use x="63.476562" xlink:href="#DejaVuSans-62"/>
     <use x="126.953125" xlink:href="#DejaVuSans-6f"/>
     <use x="188.134766" xlink:href="#DejaVuSans-62"/>
     <use x="251.611328" xlink:href="#DejaVuSans-20"/>
     <use x="283.398438" xlink:href="#DejaVuSans-66"/>
     <use x="318.603516" xlink:href="#DejaVuSans-37"/>
     <use x="382.226562" xlink:href="#DejaVuSans-2c"/>
     <use x="414.013672" xlink:href="#DejaVuSans-20"/>
     <use x="445.800781" xlink:href="#DejaVuSans-34"/>
     <use x="509.423828" xlink:href="#DejaVuSans-30"/>
     <use x="573.046875" xlink:href="#DejaVuSans-2d"/>
     <use x="609.130859" xlink:href="#DejaVuSans-44"/>
    </g>
    <!-- 51 targets: 100..1e-08 -->
    <defs>
     <path d="M 10.796875 72.90625 
L 49.515625 72.90625 
L 49.515625 64.59375 
L 19.828125 64.59375 
L 19.828125 46.734375 
Q 21.96875 47.46875 24.109375 47.828125 
Q 26.265625 48.1875 28.421875 48.1875 
Q 40.625 48.1875 47.75 41.5 
Q 54.890625 34.8125 54.890625 23.390625 
Q 54.890625 11.625 47.5625 5.09375 
Q 40.234375 -1.421875 26.90625 -1.421875 
Q 22.3125 -1.421875 17.546875 -0.640625 
Q 12.796875 0.140625 7.71875 1.703125 
L 7.71875 11.625 
Q 12.109375 9.234375 16.796875 8.0625 
Q 21.484375 6.890625 26.703125 6.890625 
Q 35.15625 6.890625 40.078125 11.328125 
Q 45.015625 15.765625 45.015625 23.390625 
Q 45.015625 31 40.078125 35.4375 
Q 35.15625 39.890625 26.703125 39.890625 
Q 22.75 39.890625 18.8125 39.015625 
Q 14.890625 38.140625 10.796875 36.28125 
z
" id="DejaVuSans-35"/>
     <path d="M 11.71875 12.40625 
L 22.015625 12.40625 
L 22.015625 0 
L 11.71875 0 
z
M 11.71875 51.703125 
L 22.015625 51.703125 
L 22.015625 39.3125 
L 11.71875 39.3125 
z
" id="DejaVuSans-3a"/>
    </defs>
    <g transform="translate(60.09324 46.705375)scale(0.102 -0.102)">
     <use xlink:href="#DejaVuSans-35"/>
     <use x="63.623047" xlink:href="#DejaVuSans-31"/>
     <use x="127.246094" xlink:href="#DejaVuSans-20"/>
     <use x="159.033203" xlink:href="#DejaVuSans-74"/>
     <use x="198.242188" xlink:href="#DejaVuSans-61"/>
     <use x="259.521484" xlink:href="#DejaVuSans-72"/>
     <use x="300.619141" xlink:href="#DejaVuSans-67"/>
     <use x="364.095703" xlink:href="#DejaVuSans-65"/>
     <use x="425.619141" xlink:href="#DejaVuSans-74"/>
     <use x="464.828125" xlink:href="#DejaVuSans-73"/>
     <use x="516.927734" xlink:href="#DejaVuSans-3a"/>
     <use x="550.619141" xlink:href="#DejaVuSans-20"/>
     <use x="582.40625" xlink:href="#DejaVuSans-31"/>
     <use x="646.029297" xlink:href="#DejaVuSans-30"/>
     <use x="709.652344" xlink:href="#DejaVuSans-30"/>
     <use x="773.275391" xlink:href="#DejaVuSans-2e"/>
     <use x="805.0625" xlink:href="#DejaVuSans-2e"/>
     <use x="836.849609" xlink:href="#DejaVuSans-31"/>
     <use x="900.472656" xlink:href="#DejaVuSans-65"/>
     <use x="961.996094" xlink:href="#DejaVuSans-2d"/>
     <use x="998.080078" xlink:href="#DejaVuSans-30"/>
     <use x="1061.703125" xlink:href="#DejaVuSans-38"/>
    </g>
    <!-- 5, 15 instances -->
    <g transform="translate(60.09324 58.127144)scale(0.102 -0.102)">
     <use xlink:href="#DejaVuSans-35"/>
     <use x="63.623047" xlink:href="#DejaVuSans-2c"/>
     <use x="95.410156" xlink:href="#DejaVuSans-20"/>
     <use x="127.197266" xlink:href="#DejaVuSans-31"/>
     <use x="190.820312" xlink:href="#DejaVuSans-35"/>
     <use x="254.443359" xlink:href="#DejaVuSans-20"/>
     <use x="286.230469" xlink:href="#DejaVuSans-69"/>
     <use x="314.013672" xlink:href="#DejaVuSans-6e"/>
     <use x="377.392578" xlink:href="#DejaVuSans-73"/>
     <use x="429.492188" xlink:href="#DejaVuSans-74"/>
     <use x="468.701172" xlink:href="#DejaVuSans-61"/>
     <use x="529.980469" xlink:href="#DejaVuSans-6e"/>
     <use x="593.359375" xlink:href="#DejaVuSans-63"/>
     <use x="648.339844" xlink:href="#DejaVuSans-65"/>
     <use x="709.863281" xlink:href="#DejaVuSans-73"/>
    </g>
   </g>
   <g id="text_16">
    <!-- v2.0.760 -->
    <g style="fill:#808080;" transform="translate(206.27825 289.387113)scale(0.1 -0.1)">
     <use xlink:href="#DejaVuSans-76"/>
     <use x="59.179688" xlink:href="#DejaVuSans-32"/>
     <use x="122.802734" xlink:href="#DejaVuSans-2e"/>
     <use x="154.589844" xlink:href="#DejaVuSans-30"/>
     <use x="218.212891" xlink:href="#DejaVuSans-2e"/>
     <use x="250" xlink:href="#DejaVuSans-37"/>
     <use x="313.623047" xlink:href="#DejaVuSans-36"/>
     <use x="377.246094" xlink:href="#DejaVuSans-30"/>
    </g>
   </g>
   <g id="text_17">
    <!-- 7 Step-ellipsoid -->
    <defs>
     <path d="M 53.515625 70.515625 
L 53.515625 60.890625 
Q 47.90625 63.578125 42.921875 64.890625 
Q 37.9375 66.21875 33.296875 66.21875 
Q 25.25 66.21875 20.875 63.09375 
Q 16.5 59.96875 16.5 54.203125 
Q 16.5 49.359375 19.40625 46.890625 
Q 22.3125 44.4375 30.421875 42.921875 
L 36.375 41.703125 
Q 47.40625 39.59375 52.65625 34.296875 
Q 57.90625 29 57.90625 20.125 
Q 57.90625 9.515625 50.796875 4.046875 
Q 43.703125 -1.421875 29.984375 -1.421875 
Q 24.8125 -1.421875 18.96875 -0.25 
Q 13.140625 0.921875 6.890625 3.21875 
L 6.890625 13.375 
Q 12.890625 10.015625 18.65625 8.296875 
Q 24.421875 6.59375 29.984375 6.59375 
Q 38.421875 6.59375 43.015625 9.90625 
Q 47.609375 13.234375 47.609375 19.390625 
Q 47.609375 24.75 44.3125 27.78125 
Q 41.015625 30.8125 33.5 32.328125 
L 27.484375 33.5 
Q 16.453125 35.6875 11.515625 40.375 
Q 6.59375 45.0625 6.59375 53.421875 
Q 6.59375 63.09375 13.40625 68.65625 
Q 20.21875 74.21875 32.171875 74.21875 
Q 37.3125 74.21875 42.625 73.28125 
Q 47.953125 72.359375 53.515625 70.515625 
z
" id="DejaVuSans-53"/>
    </defs>
    <g transform="translate(151.112625 18.84)scale(0.2 -0.2)">
     <use xlink:href="#DejaVuSans-37"/>
     <use x="63.623047" xlink:href="#DejaVuSans-20"/>
     <use x="95.410156" xlink:href="#DejaVuSans-53"/>
     <use x="158.886719" xlink:href="#DejaVuSans-74"/>
     <use x="198.095703" xlink:href="#DejaVuSans-65"/>
     <use x="259.619141" xlink:href="#DejaVuSans-70"/>
     <use x="323.095703" xlink:href="#DejaVuSans-2d"/>
     <use x="359.179688" xlink:href="#DejaVuSans-65"/>
     <use x="420.703125" xlink:href="#DejaVuSans-6c"/>
     <use x="448.486328" xlink:href="#DejaVuSans-6c"/>
     <use x="476.269531" xlink:href="#DejaVuSans-69"/>
     <use x="504.052734" xlink:href="#DejaVuSans-70"/>
     <use x="567.529297" xlink:href="#DejaVuSans-73"/>
     <use x="619.628906" xlink:href="#DejaVuSans-6f"/>
     <use x="680.810547" xlink:href="#DejaVuSans-69"/>
     <use x="708.59375" xlink:href="#DejaVuSans-64"/>
    </g>
   </g>
  </g>
 </g>
 <defs>
  <clipPath id="p669ba41094">
   <rect height="269.32" width="343.324" x="56.66" y="24.84"/>
  </clipPath>
 </defs>
</svg>
