<?xml version="1.0" encoding="utf-8" standalone="no"?>
<!DOCTYPE svg PUBLIC "-//W3C//DTD SVG 1.1//EN"
  "http://www.w3.org/Graphics/SVG/1.1/DTD/svg11.dtd">
<!-- Created with matplotlib (https://matplotlib.org/) -->
<svg height="345.6pt" version="1.1" viewBox="0 0 460.8 345.6" width="460.8pt" xmlns="http://www.w3.org/2000/svg" xmlns:xlink="http://www.w3.org/1999/xlink">
 <defs>
  <style type="text/css">
*{stroke-linecap:butt;stroke-linejoin:round;}
  </style>
 </defs>
 <g id="figure_1">
  <g id="patch_1">
   <path d="M 0 345.6 
L 460.8 345.6 
L 460.8 0 
L 0 0 
z
" style="fill:#ffffff;"/>
  </g>
  <g id="axes_1">
   <g id="patch_2">
    <path d="M 57.6 298.944 
L 338.688 298.944 
L 338.688 41.472 
L 57.6 41.472 
z
" style="fill:#ffffff;"/>
   </g>
   <g id="line2d_1">
    <path d="M -1 294.54878 
L 103.623262 294.54878 
L 103.623262 285.758339 
L 135.255248 285.758339 
L 135.255248 276.967899 
L 141.823235 276.967899 
L 141.823235 272.572679 
L 142.536534 272.572679 
L 142.536534 259.387018 
L 143.49614 259.387018 
L 143.49614 250.596578 
L 144.378627 250.596578 
L 144.378627 246.201357 
L 145.209996 246.201357 
L 145.209996 237.410917 
L 146.172658 237.410917 
L 146.172658 224.225256 
L 147.128691 224.225256 
L 147.128691 215.434816 
L 148.146895 215.434816 
L 148.146895 206.644376 
L 149.650973 206.644376 
L 149.650973 197.853935 
L 151.268175 197.853935 
L 151.268175 193.458715 
L 153.118352 193.458715 
L 153.118352 180.273054 
L 155.60627 180.273054 
L 155.60627 175.877834 
L 159.391834 175.877834 
L 159.391834 162.692173 
L 165.818873 162.692173 
L 165.818873 153.901733 
L 189.046432 153.901733 
L 189.046432 149.506513 
L 229.258123 149.506513 
L 229.258123 136.320852 
L 259.32177 136.320852 
L 259.32177 131.925632 
L 268.69657 131.925632 
L 268.69657 118.739971 
L 297.861974 118.739971 
L 297.861974 109.949531 
L 338.688 109.949531 
" style="fill:none;stroke:#f5deb3;stroke-linecap:square;stroke-width:4;"/>
   </g>
   <g id="line2d_2">
    <defs>
     <path d="M 0 7.778175 
L 7.778175 0 
L 0 -7.778175 
L -7.778175 0 
z
" id="m7b7efdb9a7" style="stroke:#f5deb3;stroke-linejoin:miter;stroke-width:1.5;"/>
    </defs>
    <g>
     <use style="fill:#f5deb3;stroke:#f5deb3;stroke-linejoin:miter;stroke-width:1.5;" x="142.536534" xlink:href="#m7b7efdb9a7" y="272.572679"/>
     <use style="fill:#f5deb3;stroke:#f5deb3;stroke-linejoin:miter;stroke-width:1.5;" x="153.118352" xlink:href="#m7b7efdb9a7" y="193.458715"/>
     <use style="fill:#f5deb3;stroke:#f5deb3;stroke-linejoin:miter;stroke-width:1.5;" x="189.046432" xlink:href="#m7b7efdb9a7" y="149.506513"/>
     <use style="fill:#f5deb3;stroke:#f5deb3;stroke-linejoin:miter;stroke-width:1.5;" x="297.861974" xlink:href="#m7b7efdb9a7" y="109.949531"/>
     <use style="fill:#f5deb3;stroke:#f5deb3;stroke-linejoin:miter;stroke-width:1.5;" x="297.861974" xlink:href="#m7b7efdb9a7" y="109.949531"/>
     <use style="fill:#f5deb3;stroke:#f5deb3;stroke-linejoin:miter;stroke-width:1.5;" x="338.688" xlink:href="#m7b7efdb9a7" y="109.949531"/>
    </g>
   </g>
   <g id="line2d_3">
    <path style="fill:none;stroke:#f5deb3;stroke-linecap:square;stroke-width:4;"/>
    <g/>
   </g>
   <g id="line2d_4">
    <path d="M 338.688 109.949531 
L 369.60768 49.119683 
" style="fill:none;stroke:#f5deb3;stroke-linecap:square;stroke-width:4;"/>
    <g>
     <use style="fill:#f5deb3;stroke:#f5deb3;stroke-linejoin:miter;stroke-width:1.5;" x="338.688" xlink:href="#m7b7efdb9a7" y="109.949531"/>
     <use style="fill:#f5deb3;stroke:#f5deb3;stroke-linejoin:miter;stroke-width:1.5;" x="369.60768" xlink:href="#m7b7efdb9a7" y="49.119683"/>
    </g>
   </g>
   <g id="matplotlib.axis_1">
    <g id="xtick_1">
     <g id="line2d_5">
      <path clip-path="url(#pb5d41ea98a)" d="M 57.6 298.944 
L 57.6 41.472 
" style="fill:none;stroke:#b0b0b0;stroke-linecap:square;stroke-width:0.8;"/>
     </g>
     <g id="line2d_6">
      <defs>
       <path d="M 0 0 
L 0 3.5 
" id="m4d4a88830b" style="stroke:#000000;stroke-width:0.8;"/>
      </defs>
      <g>
       <use style="stroke:#000000;stroke-width:0.8;" x="57.6" xlink:href="#m4d4a88830b" y="298.944"/>
      </g>
     </g>
     <g id="text_1">
      <!-- 0 -->
      <defs>
       <path d="M 31.78125 66.40625 
Q 24.171875 66.40625 20.328125 58.90625 
Q 16.5 51.421875 16.5 36.375 
Q 16.5 21.390625 20.328125 13.890625 
Q 24.171875 6.390625 31.78125 6.390625 
Q 39.453125 6.390625 43.28125 13.890625 
Q 47.125 21.390625 47.125 36.375 
Q 47.125 51.421875 43.28125 58.90625 
Q 39.453125 66.40625 31.78125 66.40625 
z
M 31.78125 74.21875 
Q 44.046875 74.21875 50.515625 64.515625 
Q 56.984375 54.828125 56.984375 36.375 
Q 56.984375 17.96875 50.515625 8.265625 
Q 44.046875 -1.421875 31.78125 -1.421875 
Q 19.53125 -1.421875 13.0625 8.265625 
Q 6.59375 17.96875 6.59375 36.375 
Q 6.59375 54.828125 13.0625 64.515625 
Q 19.53125 74.21875 31.78125 74.21875 
z
" id="DejaVuSans-48"/>
      </defs>
      <g transform="translate(51.2375 321.140875)scale(0.2 -0.2)">
       <use xlink:href="#DejaVuSans-48"/>
      </g>
     </g>
    </g>
    <g id="xtick_2">
     <g id="line2d_7">
      <path clip-path="url(#pb5d41ea98a)" d="M 137.910857 298.944 
L 137.910857 41.472 
" style="fill:none;stroke:#b0b0b0;stroke-linecap:square;stroke-width:0.8;"/>
     </g>
     <g id="line2d_8">
      <g>
       <use style="stroke:#000000;stroke-width:0.8;" x="137.910857" xlink:href="#m4d4a88830b" y="298.944"/>
      </g>
     </g>
     <g id="text_2">
      <!-- 2 -->
      <defs>
       <path d="M 19.1875 8.296875 
L 53.609375 8.296875 
L 53.609375 0 
L 7.328125 0 
L 7.328125 8.296875 
Q 12.9375 14.109375 22.625 23.890625 
Q 32.328125 33.6875 34.8125 36.53125 
Q 39.546875 41.84375 41.421875 45.53125 
Q 43.3125 49.21875 43.3125 52.78125 
Q 43.3125 58.59375 39.234375 62.25 
Q 35.15625 65.921875 28.609375 65.921875 
Q 23.96875 65.921875 18.8125 64.3125 
Q 13.671875 62.703125 7.8125 59.421875 
L 7.8125 69.390625 
Q 13.765625 71.78125 18.9375 73 
Q 24.125 74.21875 28.421875 74.21875 
Q 39.75 74.21875 46.484375 68.546875 
Q 53.21875 62.890625 53.21875 53.421875 
Q 53.21875 48.921875 51.53125 44.890625 
Q 49.859375 40.875 45.40625 35.40625 
Q 44.1875 33.984375 37.640625 27.21875 
Q 31.109375 20.453125 19.1875 8.296875 
z
" id="DejaVuSans-50"/>
      </defs>
      <g transform="translate(131.548357 321.140875)scale(0.2 -0.2)">
       <use xlink:href="#DejaVuSans-50"/>
      </g>
     </g>
    </g>
    <g id="xtick_3">
     <g id="line2d_9">
      <path clip-path="url(#pb5d41ea98a)" d="M 218.221714 298.944 
L 218.221714 41.472 
" style="fill:none;stroke:#b0b0b0;stroke-linecap:square;stroke-width:0.8;"/>
     </g>
     <g id="line2d_10">
      <g>
       <use style="stroke:#000000;stroke-width:0.8;" x="218.221714" xlink:href="#m4d4a88830b" y="298.944"/>
      </g>
     </g>
     <g id="text_3">
      <!-- 4 -->
      <defs>
       <path d="M 37.796875 64.3125 
L 12.890625 25.390625 
L 37.796875 25.390625 
z
M 35.203125 72.90625 
L 47.609375 72.90625 
L 47.609375 25.390625 
L 58.015625 25.390625 
L 58.015625 17.1875 
L 47.609375 17.1875 
L 47.609375 0 
L 37.796875 0 
L 37.796875 17.1875 
L 4.890625 17.1875 
L 4.890625 26.703125 
z
" id="DejaVuSans-52"/>
      </defs>
      <g transform="translate(211.859214 321.140875)scale(0.2 -0.2)">
       <use xlink:href="#DejaVuSans-52"/>
      </g>
     </g>
    </g>
    <g id="xtick_4">
     <g id="line2d_11">
      <path clip-path="url(#pb5d41ea98a)" d="M 298.532571 298.944 
L 298.532571 41.472 
" style="fill:none;stroke:#b0b0b0;stroke-linecap:square;stroke-width:0.8;"/>
     </g>
     <g id="line2d_12">
      <g>
       <use style="stroke:#000000;stroke-width:0.8;" x="298.532571" xlink:href="#m4d4a88830b" y="298.944"/>
      </g>
     </g>
     <g id="text_4">
      <!-- 6 -->
      <defs>
       <path d="M 33.015625 40.375 
Q 26.375 40.375 22.484375 35.828125 
Q 18.609375 31.296875 18.609375 23.390625 
Q 18.609375 15.53125 22.484375 10.953125 
Q 26.375 6.390625 33.015625 6.390625 
Q 39.65625 6.390625 43.53125 10.953125 
Q 47.40625 15.53125 47.40625 23.390625 
Q 47.40625 31.296875 43.53125 35.828125 
Q 39.65625 40.375 33.015625 40.375 
z
M 52.59375 71.296875 
L 52.59375 62.3125 
Q 48.875 64.0625 45.09375 64.984375 
Q 41.3125 65.921875 37.59375 65.921875 
Q 27.828125 65.921875 22.671875 59.328125 
Q 17.53125 52.734375 16.796875 39.40625 
Q 19.671875 43.65625 24.015625 45.921875 
Q 28.375 48.1875 33.59375 48.1875 
Q 44.578125 48.1875 50.953125 41.515625 
Q 57.328125 34.859375 57.328125 23.390625 
Q 57.328125 12.15625 50.6875 5.359375 
Q 44.046875 -1.421875 33.015625 -1.421875 
Q 20.359375 -1.421875 13.671875 8.265625 
Q 6.984375 17.96875 6.984375 36.375 
Q 6.984375 53.65625 15.1875 63.9375 
Q 23.390625 74.21875 37.203125 74.21875 
Q 40.921875 74.21875 44.703125 73.484375 
Q 48.484375 72.75 52.59375 71.296875 
z
" id="DejaVuSans-54"/>
      </defs>
      <g transform="translate(292.170071 321.140875)scale(0.2 -0.2)">
       <use xlink:href="#DejaVuSans-54"/>
      </g>
     </g>
    </g>
    <g id="xtick_5">
     <g id="line2d_13">
      <path clip-path="url(#pb5d41ea98a)" d="M 57.6 298.944 
L 57.6 41.472 
" style="fill:none;stroke:#b0b0b0;stroke-linecap:square;stroke-width:0.8;"/>
     </g>
     <g id="line2d_14">
      <defs>
       <path d="M 0 0 
L 0 2 
" id="m39d8acaf96" style="stroke:#000000;stroke-width:0.6;"/>
      </defs>
      <g>
       <use style="stroke:#000000;stroke-width:0.6;" x="57.6" xlink:href="#m39d8acaf96" y="298.944"/>
      </g>
     </g>
    </g>
    <g id="xtick_6">
     <g id="line2d_15">
      <path clip-path="url(#pb5d41ea98a)" d="M 97.755429 298.944 
L 97.755429 41.472 
" style="fill:none;stroke:#b0b0b0;stroke-linecap:square;stroke-width:0.8;"/>
     </g>
     <g id="line2d_16">
      <g>
       <use style="stroke:#000000;stroke-width:0.6;" x="97.755429" xlink:href="#m39d8acaf96" y="298.944"/>
      </g>
     </g>
    </g>
    <g id="xtick_7">
     <g id="line2d_17">
      <path clip-path="url(#pb5d41ea98a)" d="M 137.910857 298.944 
L 137.910857 41.472 
" style="fill:none;stroke:#b0b0b0;stroke-linecap:square;stroke-width:0.8;"/>
     </g>
     <g id="line2d_18">
      <g>
       <use style="stroke:#000000;stroke-width:0.6;" x="137.910857" xlink:href="#m39d8acaf96" y="298.944"/>
      </g>
     </g>
    </g>
    <g id="xtick_8">
     <g id="line2d_19">
      <path clip-path="url(#pb5d41ea98a)" d="M 178.066286 298.944 
L 178.066286 41.472 
" style="fill:none;stroke:#b0b0b0;stroke-linecap:square;stroke-width:0.8;"/>
     </g>
     <g id="line2d_20">
      <g>
       <use style="stroke:#000000;stroke-width:0.6;" x="178.066286" xlink:href="#m39d8acaf96" y="298.944"/>
      </g>
     </g>
    </g>
    <g id="xtick_9">
     <g id="line2d_21">
      <path clip-path="url(#pb5d41ea98a)" d="M 218.221714 298.944 
L 218.221714 41.472 
" style="fill:none;stroke:#b0b0b0;stroke-linecap:square;stroke-width:0.8;"/>
     </g>
     <g id="line2d_22">
      <g>
       <use style="stroke:#000000;stroke-width:0.6;" x="218.221714" xlink:href="#m39d8acaf96" y="298.944"/>
      </g>
     </g>
    </g>
    <g id="xtick_10">
     <g id="line2d_23">
      <path clip-path="url(#pb5d41ea98a)" d="M 258.377143 298.944 
L 258.377143 41.472 
" style="fill:none;stroke:#b0b0b0;stroke-linecap:square;stroke-width:0.8;"/>
     </g>
     <g id="line2d_24">
      <g>
       <use style="stroke:#000000;stroke-width:0.6;" x="258.377143" xlink:href="#m39d8acaf96" y="298.944"/>
      </g>
     </g>
    </g>
    <g id="xtick_11">
     <g id="line2d_25">
      <path clip-path="url(#pb5d41ea98a)" d="M 298.532571 298.944 
L 298.532571 41.472 
" style="fill:none;stroke:#b0b0b0;stroke-linecap:square;stroke-width:0.8;"/>
     </g>
     <g id="line2d_26">
      <g>
       <use style="stroke:#000000;stroke-width:0.6;" x="298.532571" xlink:href="#m39d8acaf96" y="298.944"/>
      </g>
     </g>
    </g>
    <g id="xtick_12">
     <g id="line2d_27">
      <path clip-path="url(#pb5d41ea98a)" d="M 338.688 298.944 
L 338.688 41.472 
" style="fill:none;stroke:#b0b0b0;stroke-linecap:square;stroke-width:0.8;"/>
     </g>
     <g id="line2d_28">
      <g>
       <use style="stroke:#000000;stroke-width:0.6;" x="338.688" xlink:href="#m39d8acaf96" y="298.944"/>
      </g>
     </g>
    </g>
    <g id="text_5">
     <!-- log10(# f-evals / dimension) -->
     <defs>
      <path d="M 9.421875 75.984375 
L 18.40625 75.984375 
L 18.40625 0 
L 9.421875 0 
z
" id="DejaVuSans-108"/>
      <path d="M 30.609375 48.390625 
Q 23.390625 48.390625 19.1875 42.75 
Q 14.984375 37.109375 14.984375 27.296875 
Q 14.984375 17.484375 19.15625 11.84375 
Q 23.34375 6.203125 30.609375 6.203125 
Q 37.796875 6.203125 41.984375 11.859375 
Q 46.1875 17.53125 46.1875 27.296875 
Q 46.1875 37.015625 41.984375 42.703125 
Q 37.796875 48.390625 30.609375 48.390625 
z
M 30.609375 56 
Q 42.328125 56 49.015625 48.375 
Q 55.71875 40.765625 55.71875 27.296875 
Q 55.71875 13.875 49.015625 6.21875 
Q 42.328125 -1.421875 30.609375 -1.421875 
Q 18.84375 -1.421875 12.171875 6.21875 
Q 5.515625 13.875 5.515625 27.296875 
Q 5.515625 40.765625 12.171875 48.375 
Q 18.84375 56 30.609375 56 
z
" id="DejaVuSans-111"/>
      <path d="M 45.40625 27.984375 
Q 45.40625 37.75 41.375 43.109375 
Q 37.359375 48.484375 30.078125 48.484375 
Q 22.859375 48.484375 18.828125 43.109375 
Q 14.796875 37.75 14.796875 27.984375 
Q 14.796875 18.265625 18.828125 12.890625 
Q 22.859375 7.515625 30.078125 7.515625 
Q 37.359375 7.515625 41.375 12.890625 
Q 45.40625 18.265625 45.40625 27.984375 
z
M 54.390625 6.78125 
Q 54.390625 -7.171875 48.1875 -13.984375 
Q 42 -20.796875 29.203125 -20.796875 
Q 24.46875 -20.796875 20.265625 -20.09375 
Q 16.0625 -19.390625 12.109375 -17.921875 
L 12.109375 -9.1875 
Q 16.0625 -11.328125 19.921875 -12.34375 
Q 23.78125 -13.375 27.78125 -13.375 
Q 36.625 -13.375 41.015625 -8.765625 
Q 45.40625 -4.15625 45.40625 5.171875 
L 45.40625 9.625 
Q 42.625 4.78125 38.28125 2.390625 
Q 33.9375 0 27.875 0 
Q 17.828125 0 11.671875 7.65625 
Q 5.515625 15.328125 5.515625 27.984375 
Q 5.515625 40.671875 11.671875 48.328125 
Q 17.828125 56 27.875 56 
Q 33.9375 56 38.28125 53.609375 
Q 42.625 51.21875 45.40625 46.390625 
L 45.40625 54.6875 
L 54.390625 54.6875 
z
" id="DejaVuSans-103"/>
      <path d="M 12.40625 8.296875 
L 28.515625 8.296875 
L 28.515625 63.921875 
L 10.984375 60.40625 
L 10.984375 69.390625 
L 28.421875 72.90625 
L 38.28125 72.90625 
L 38.28125 8.296875 
L 54.390625 8.296875 
L 54.390625 0 
L 12.40625 0 
z
" id="DejaVuSans-49"/>
      <path d="M 31 75.875 
Q 24.46875 64.65625 21.28125 53.65625 
Q 18.109375 42.671875 18.109375 31.390625 
Q 18.109375 20.125 21.3125 9.0625 
Q 24.515625 -2 31 -13.1875 
L 23.1875 -13.1875 
Q 15.875 -1.703125 12.234375 9.375 
Q 8.59375 20.453125 8.59375 31.390625 
Q 8.59375 42.28125 12.203125 53.3125 
Q 15.828125 64.359375 23.1875 75.875 
z
" id="DejaVuSans-40"/>
      <path d="M 51.125 44 
L 36.921875 44 
L 32.8125 27.6875 
L 47.125 27.6875 
z
M 43.796875 71.78125 
L 38.71875 51.515625 
L 52.984375 51.515625 
L 58.109375 71.78125 
L 65.921875 71.78125 
L 60.890625 51.515625 
L 76.125 51.515625 
L 76.125 44 
L 58.984375 44 
L 54.984375 27.6875 
L 70.515625 27.6875 
L 70.515625 20.21875 
L 53.078125 20.21875 
L 48 0 
L 40.1875 0 
L 45.21875 20.21875 
L 30.90625 20.21875 
L 25.875 0 
L 18.015625 0 
L 23.09375 20.21875 
L 7.71875 20.21875 
L 7.71875 27.6875 
L 24.90625 27.6875 
L 29 44 
L 13.28125 44 
L 13.28125 51.515625 
L 30.90625 51.515625 
L 35.890625 71.78125 
z
" id="DejaVuSans-35"/>
      <path id="DejaVuSans-32"/>
      <path d="M 37.109375 75.984375 
L 37.109375 68.5 
L 28.515625 68.5 
Q 23.6875 68.5 21.796875 66.546875 
Q 19.921875 64.59375 19.921875 59.515625 
L 19.921875 54.6875 
L 34.71875 54.6875 
L 34.71875 47.703125 
L 19.921875 47.703125 
L 19.921875 0 
L 10.890625 0 
L 10.890625 47.703125 
L 2.296875 47.703125 
L 2.296875 54.6875 
L 10.890625 54.6875 
L 10.890625 58.5 
Q 10.890625 67.625 15.140625 71.796875 
Q 19.390625 75.984375 28.609375 75.984375 
z
" id="DejaVuSans-102"/>
      <path d="M 4.890625 31.390625 
L 31.203125 31.390625 
L 31.203125 23.390625 
L 4.890625 23.390625 
z
" id="DejaVuSans-45"/>
      <path d="M 56.203125 29.59375 
L 56.203125 25.203125 
L 14.890625 25.203125 
Q 15.484375 15.921875 20.484375 11.0625 
Q 25.484375 6.203125 34.421875 6.203125 
Q 39.59375 6.203125 44.453125 7.46875 
Q 49.3125 8.734375 54.109375 11.28125 
L 54.109375 2.78125 
Q 49.265625 0.734375 44.1875 -0.34375 
Q 39.109375 -1.421875 33.890625 -1.421875 
Q 20.796875 -1.421875 13.15625 6.1875 
Q 5.515625 13.8125 5.515625 26.8125 
Q 5.515625 40.234375 12.765625 48.109375 
Q 20.015625 56 32.328125 56 
Q 43.359375 56 49.78125 48.890625 
Q 56.203125 41.796875 56.203125 29.59375 
z
M 47.21875 32.234375 
Q 47.125 39.59375 43.09375 43.984375 
Q 39.0625 48.390625 32.421875 48.390625 
Q 24.90625 48.390625 20.390625 44.140625 
Q 15.875 39.890625 15.1875 32.171875 
z
" id="DejaVuSans-101"/>
      <path d="M 2.984375 54.6875 
L 12.5 54.6875 
L 29.59375 8.796875 
L 46.6875 54.6875 
L 56.203125 54.6875 
L 35.6875 0 
L 23.484375 0 
z
" id="DejaVuSans-118"/>
      <path d="M 34.28125 27.484375 
Q 23.390625 27.484375 19.1875 25 
Q 14.984375 22.515625 14.984375 16.5 
Q 14.984375 11.71875 18.140625 8.90625 
Q 21.296875 6.109375 26.703125 6.109375 
Q 34.1875 6.109375 38.703125 11.40625 
Q 43.21875 16.703125 43.21875 25.484375 
L 43.21875 27.484375 
z
M 52.203125 31.203125 
L 52.203125 0 
L 43.21875 0 
L 43.21875 8.296875 
Q 40.140625 3.328125 35.546875 0.953125 
Q 30.953125 -1.421875 24.3125 -1.421875 
Q 15.921875 -1.421875 10.953125 3.296875 
Q 6 8.015625 6 15.921875 
Q 6 25.140625 12.171875 29.828125 
Q 18.359375 34.515625 30.609375 34.515625 
L 43.21875 34.515625 
L 43.21875 35.40625 
Q 43.21875 41.609375 39.140625 45 
Q 35.0625 48.390625 27.6875 48.390625 
Q 23 48.390625 18.546875 47.265625 
Q 14.109375 46.140625 10.015625 43.890625 
L 10.015625 52.203125 
Q 14.9375 54.109375 19.578125 55.046875 
Q 24.21875 56 28.609375 56 
Q 40.484375 56 46.34375 49.84375 
Q 52.203125 43.703125 52.203125 31.203125 
z
" id="DejaVuSans-97"/>
      <path d="M 44.28125 53.078125 
L 44.28125 44.578125 
Q 40.484375 46.53125 36.375 47.5 
Q 32.28125 48.484375 27.875 48.484375 
Q 21.1875 48.484375 17.84375 46.4375 
Q 14.5 44.390625 14.5 40.28125 
Q 14.5 37.15625 16.890625 35.375 
Q 19.28125 33.59375 26.515625 31.984375 
L 29.59375 31.296875 
Q 39.15625 29.25 43.1875 25.515625 
Q 47.21875 21.78125 47.21875 15.09375 
Q 47.21875 7.46875 41.1875 3.015625 
Q 35.15625 -1.421875 24.609375 -1.421875 
Q 20.21875 -1.421875 15.453125 -0.5625 
Q 10.6875 0.296875 5.421875 2 
L 5.421875 11.28125 
Q 10.40625 8.6875 15.234375 7.390625 
Q 20.0625 6.109375 24.8125 6.109375 
Q 31.15625 6.109375 34.5625 8.28125 
Q 37.984375 10.453125 37.984375 14.40625 
Q 37.984375 18.0625 35.515625 20.015625 
Q 33.0625 21.96875 24.703125 23.78125 
L 21.578125 24.515625 
Q 13.234375 26.265625 9.515625 29.90625 
Q 5.8125 33.546875 5.8125 39.890625 
Q 5.8125 47.609375 11.28125 51.796875 
Q 16.75 56 26.8125 56 
Q 31.78125 56 36.171875 55.265625 
Q 40.578125 54.546875 44.28125 53.078125 
z
" id="DejaVuSans-115"/>
      <path d="M 25.390625 72.90625 
L 33.6875 72.90625 
L 8.296875 -9.28125 
L 0 -9.28125 
z
" id="DejaVuSans-47"/>
      <path d="M 45.40625 46.390625 
L 45.40625 75.984375 
L 54.390625 75.984375 
L 54.390625 0 
L 45.40625 0 
L 45.40625 8.203125 
Q 42.578125 3.328125 38.25 0.953125 
Q 33.9375 -1.421875 27.875 -1.421875 
Q 17.96875 -1.421875 11.734375 6.484375 
Q 5.515625 14.40625 5.515625 27.296875 
Q 5.515625 40.1875 11.734375 48.09375 
Q 17.96875 56 27.875 56 
Q 33.9375 56 38.25 53.625 
Q 42.578125 51.265625 45.40625 46.390625 
z
M 14.796875 27.296875 
Q 14.796875 17.390625 18.875 11.75 
Q 22.953125 6.109375 30.078125 6.109375 
Q 37.203125 6.109375 41.296875 11.75 
Q 45.40625 17.390625 45.40625 27.296875 
Q 45.40625 37.203125 41.296875 42.84375 
Q 37.203125 48.484375 30.078125 48.484375 
Q 22.953125 48.484375 18.875 42.84375 
Q 14.796875 37.203125 14.796875 27.296875 
z
" id="DejaVuSans-100"/>
      <path d="M 9.421875 54.6875 
L 18.40625 54.6875 
L 18.40625 0 
L 9.421875 0 
z
M 9.421875 75.984375 
L 18.40625 75.984375 
L 18.40625 64.59375 
L 9.421875 64.59375 
z
" id="DejaVuSans-105"/>
      <path d="M 52 44.1875 
Q 55.375 50.25 60.0625 53.125 
Q 64.75 56 71.09375 56 
Q 79.640625 56 84.28125 50.015625 
Q 88.921875 44.046875 88.921875 33.015625 
L 88.921875 0 
L 79.890625 0 
L 79.890625 32.71875 
Q 79.890625 40.578125 77.09375 44.375 
Q 74.3125 48.1875 68.609375 48.1875 
Q 61.625 48.1875 57.5625 43.546875 
Q 53.515625 38.921875 53.515625 30.90625 
L 53.515625 0 
L 44.484375 0 
L 44.484375 32.71875 
Q 44.484375 40.625 41.703125 44.40625 
Q 38.921875 48.1875 33.109375 48.1875 
Q 26.21875 48.1875 22.15625 43.53125 
Q 18.109375 38.875 18.109375 30.90625 
L 18.109375 0 
L 9.078125 0 
L 9.078125 54.6875 
L 18.109375 54.6875 
L 18.109375 46.1875 
Q 21.1875 51.21875 25.484375 53.609375 
Q 29.78125 56 35.6875 56 
Q 41.65625 56 45.828125 52.96875 
Q 50 49.953125 52 44.1875 
z
" id="DejaVuSans-109"/>
      <path d="M 54.890625 33.015625 
L 54.890625 0 
L 45.90625 0 
L 45.90625 32.71875 
Q 45.90625 40.484375 42.875 44.328125 
Q 39.84375 48.1875 33.796875 48.1875 
Q 26.515625 48.1875 22.3125 43.546875 
Q 18.109375 38.921875 18.109375 30.90625 
L 18.109375 0 
L 9.078125 0 
L 9.078125 54.6875 
L 18.109375 54.6875 
L 18.109375 46.1875 
Q 21.34375 51.125 25.703125 53.5625 
Q 30.078125 56 35.796875 56 
Q 45.21875 56 50.046875 50.171875 
Q 54.890625 44.34375 54.890625 33.015625 
z
" id="DejaVuSans-110"/>
      <path d="M 8.015625 75.875 
L 15.828125 75.875 
Q 23.140625 64.359375 26.78125 53.3125 
Q 30.421875 42.28125 30.421875 31.390625 
Q 30.421875 20.453125 26.78125 9.375 
Q 23.140625 -1.703125 15.828125 -13.1875 
L 8.015625 -13.1875 
Q 14.5 -2 17.703125 9.0625 
Q 20.90625 20.125 20.90625 31.390625 
Q 20.90625 42.671875 17.703125 53.65625 
Q 14.5 64.65625 8.015625 75.875 
z
" id="DejaVuSans-41"/>
     </defs>
     <g transform="translate(77.303219 342.217594)scale(0.17 -0.17)">
      <use xlink:href="#DejaVuSans-108"/>
      <use x="27.783203" xlink:href="#DejaVuSans-111"/>
      <use x="88.964844" xlink:href="#DejaVuSans-103"/>
      <use x="152.441406" xlink:href="#DejaVuSans-49"/>
      <use x="216.064453" xlink:href="#DejaVuSans-48"/>
      <use x="279.6875" xlink:href="#DejaVuSans-40"/>
      <use x="318.701172" xlink:href="#DejaVuSans-35"/>
      <use x="402.490234" xlink:href="#DejaVuSans-32"/>
      <use x="434.277344" xlink:href="#DejaVuSans-102"/>
      <use x="469.404297" xlink:href="#DejaVuSans-45"/>
      <use x="505.488281" xlink:href="#DejaVuSans-101"/>
      <use x="567.011719" xlink:href="#DejaVuSans-118"/>
      <use x="626.191406" xlink:href="#DejaVuSans-97"/>
      <use x="687.470703" xlink:href="#DejaVuSans-108"/>
      <use x="715.253906" xlink:href="#DejaVuSans-115"/>
      <use x="767.353516" xlink:href="#DejaVuSans-32"/>
      <use x="799.140625" xlink:href="#DejaVuSans-47"/>
      <use x="832.832031" xlink:href="#DejaVuSans-32"/>
      <use x="864.619141" xlink:href="#DejaVuSans-100"/>
      <use x="928.095703" xlink:href="#DejaVuSans-105"/>
      <use x="955.878906" xlink:href="#DejaVuSans-109"/>
      <use x="1053.291016" xlink:href="#DejaVuSans-101"/>
      <use x="1114.814453" xlink:href="#DejaVuSans-110"/>
      <use x="1178.193359" xlink:href="#DejaVuSans-115"/>
      <use x="1230.292969" xlink:href="#DejaVuSans-105"/>
      <use x="1258.076172" xlink:href="#DejaVuSans-111"/>
      <use x="1319.257812" xlink:href="#DejaVuSans-110"/>
      <use x="1382.636719" xlink:href="#DejaVuSans-41"/>
     </g>
    </g>
   </g>
   <g id="matplotlib.axis_2">
    <g id="ytick_1">
     <g id="line2d_29">
      <path clip-path="url(#pb5d41ea98a)" d="M 57.6 298.944 
L 338.688 298.944 
" style="fill:none;stroke:#b0b0b0;stroke-linecap:square;stroke-width:0.8;"/>
     </g>
     <g id="line2d_30">
      <defs>
       <path d="M 0 0 
L -3.5 0 
" id="mbcd7c81902" style="stroke:#000000;stroke-width:0.8;"/>
      </defs>
      <g>
       <use style="stroke:#000000;stroke-width:0.8;" x="57.6" xlink:href="#mbcd7c81902" y="298.944"/>
      </g>
     </g>
     <g id="text_6">
      <!-- 0.0 -->
      <defs>
       <path d="M 10.6875 12.40625 
L 21 12.40625 
L 21 0 
L 10.6875 0 
z
" id="DejaVuSans-46"/>
      </defs>
      <g transform="translate(25.155 305.02275)scale(0.16 -0.16)">
       <use xlink:href="#DejaVuSans-48"/>
       <use x="63.623047" xlink:href="#DejaVuSans-46"/>
       <use x="95.410156" xlink:href="#DejaVuSans-48"/>
      </g>
     </g>
    </g>
    <g id="ytick_2">
     <g id="line2d_31">
      <path clip-path="url(#pb5d41ea98a)" d="M 57.6 247.959446 
L 338.688 247.959446 
" style="fill:none;stroke:#b0b0b0;stroke-linecap:square;stroke-width:0.8;"/>
     </g>
     <g id="line2d_32">
      <g>
       <use style="stroke:#000000;stroke-width:0.8;" x="57.6" xlink:href="#mbcd7c81902" y="247.959446"/>
      </g>
     </g>
     <g id="text_7">
      <!-- 0.2 -->
      <g transform="translate(25.155 254.038196)scale(0.16 -0.16)">
       <use xlink:href="#DejaVuSans-48"/>
       <use x="63.623047" xlink:href="#DejaVuSans-46"/>
       <use x="95.410156" xlink:href="#DejaVuSans-50"/>
      </g>
     </g>
    </g>
    <g id="ytick_3">
     <g id="line2d_33">
      <path clip-path="url(#pb5d41ea98a)" d="M 57.6 196.974891 
L 338.688 196.974891 
" style="fill:none;stroke:#b0b0b0;stroke-linecap:square;stroke-width:0.8;"/>
     </g>
     <g id="line2d_34">
      <g>
       <use style="stroke:#000000;stroke-width:0.8;" x="57.6" xlink:href="#mbcd7c81902" y="196.974891"/>
      </g>
     </g>
     <g id="text_8">
      <!-- 0.4 -->
      <g transform="translate(25.155 203.053641)scale(0.16 -0.16)">
       <use xlink:href="#DejaVuSans-48"/>
       <use x="63.623047" xlink:href="#DejaVuSans-46"/>
       <use x="95.410156" xlink:href="#DejaVuSans-52"/>
      </g>
     </g>
    </g>
    <g id="ytick_4">
     <g id="line2d_35">
      <path clip-path="url(#pb5d41ea98a)" d="M 57.6 145.990337 
L 338.688 145.990337 
" style="fill:none;stroke:#b0b0b0;stroke-linecap:square;stroke-width:0.8;"/>
     </g>
     <g id="line2d_36">
      <g>
       <use style="stroke:#000000;stroke-width:0.8;" x="57.6" xlink:href="#mbcd7c81902" y="145.990337"/>
      </g>
     </g>
     <g id="text_9">
      <!-- 0.6 -->
      <g transform="translate(25.155 152.069087)scale(0.16 -0.16)">
       <use xlink:href="#DejaVuSans-48"/>
       <use x="63.623047" xlink:href="#DejaVuSans-46"/>
       <use x="95.410156" xlink:href="#DejaVuSans-54"/>
      </g>
     </g>
    </g>
    <g id="ytick_5">
     <g id="line2d_37">
      <path clip-path="url(#pb5d41ea98a)" d="M 57.6 95.005782 
L 338.688 95.005782 
" style="fill:none;stroke:#b0b0b0;stroke-linecap:square;stroke-width:0.8;"/>
     </g>
     <g id="line2d_38">
      <g>
       <use style="stroke:#000000;stroke-width:0.8;" x="57.6" xlink:href="#mbcd7c81902" y="95.005782"/>
      </g>
     </g>
     <g id="text_10">
      <!-- 0.8 -->
      <defs>
       <path d="M 31.78125 34.625 
Q 24.75 34.625 20.71875 30.859375 
Q 16.703125 27.09375 16.703125 20.515625 
Q 16.703125 13.921875 20.71875 10.15625 
Q 24.75 6.390625 31.78125 6.390625 
Q 38.8125 6.390625 42.859375 10.171875 
Q 46.921875 13.96875 46.921875 20.515625 
Q 46.921875 27.09375 42.890625 30.859375 
Q 38.875 34.625 31.78125 34.625 
z
M 21.921875 38.8125 
Q 15.578125 40.375 12.03125 44.71875 
Q 8.5 49.078125 8.5 55.328125 
Q 8.5 64.0625 14.71875 69.140625 
Q 20.953125 74.21875 31.78125 74.21875 
Q 42.671875 74.21875 48.875 69.140625 
Q 55.078125 64.0625 55.078125 55.328125 
Q 55.078125 49.078125 51.53125 44.71875 
Q 48 40.375 41.703125 38.8125 
Q 48.828125 37.15625 52.796875 32.3125 
Q 56.78125 27.484375 56.78125 20.515625 
Q 56.78125 9.90625 50.3125 4.234375 
Q 43.84375 -1.421875 31.78125 -1.421875 
Q 19.734375 -1.421875 13.25 4.234375 
Q 6.78125 9.90625 6.78125 20.515625 
Q 6.78125 27.484375 10.78125 32.3125 
Q 14.796875 37.15625 21.921875 38.8125 
z
M 18.3125 54.390625 
Q 18.3125 48.734375 21.84375 45.5625 
Q 25.390625 42.390625 31.78125 42.390625 
Q 38.140625 42.390625 41.71875 45.5625 
Q 45.3125 48.734375 45.3125 54.390625 
Q 45.3125 60.0625 41.71875 63.234375 
Q 38.140625 66.40625 31.78125 66.40625 
Q 25.390625 66.40625 21.84375 63.234375 
Q 18.3125 60.0625 18.3125 54.390625 
z
" id="DejaVuSans-56"/>
      </defs>
      <g transform="translate(25.155 101.084532)scale(0.16 -0.16)">
       <use xlink:href="#DejaVuSans-48"/>
       <use x="63.623047" xlink:href="#DejaVuSans-46"/>
       <use x="95.410156" xlink:href="#DejaVuSans-56"/>
      </g>
     </g>
    </g>
    <g id="ytick_6">
     <g id="line2d_39">
      <path clip-path="url(#pb5d41ea98a)" d="M 57.6 44.021228 
L 338.688 44.021228 
" style="fill:none;stroke:#b0b0b0;stroke-linecap:square;stroke-width:0.8;"/>
     </g>
     <g id="line2d_40">
      <g>
       <use style="stroke:#000000;stroke-width:0.8;" x="57.6" xlink:href="#mbcd7c81902" y="44.021228"/>
      </g>
     </g>
     <g id="text_11">
      <!-- 1.0 -->
      <g transform="translate(25.155 50.099978)scale(0.16 -0.16)">
       <use xlink:href="#DejaVuSans-49"/>
       <use x="63.623047" xlink:href="#DejaVuSans-46"/>
       <use x="95.410156" xlink:href="#DejaVuSans-48"/>
      </g>
     </g>
    </g>
    <g id="text_12">
     <!-- Fraction of function,target pairs -->
     <defs>
      <path d="M 9.8125 72.90625 
L 51.703125 72.90625 
L 51.703125 64.59375 
L 19.671875 64.59375 
L 19.671875 43.109375 
L 48.578125 43.109375 
L 48.578125 34.8125 
L 19.671875 34.8125 
L 19.671875 0 
L 9.8125 0 
z
" id="DejaVuSans-70"/>
      <path d="M 41.109375 46.296875 
Q 39.59375 47.171875 37.8125 47.578125 
Q 36.03125 48 33.890625 48 
Q 26.265625 48 22.1875 43.046875 
Q 18.109375 38.09375 18.109375 28.8125 
L 18.109375 0 
L 9.078125 0 
L 9.078125 54.6875 
L 18.109375 54.6875 
L 18.109375 46.1875 
Q 20.953125 51.171875 25.484375 53.578125 
Q 30.03125 56 36.53125 56 
Q 37.453125 56 38.578125 55.875 
Q 39.703125 55.765625 41.0625 55.515625 
z
" id="DejaVuSans-114"/>
      <path d="M 48.78125 52.59375 
L 48.78125 44.1875 
Q 44.96875 46.296875 41.140625 47.34375 
Q 37.3125 48.390625 33.40625 48.390625 
Q 24.65625 48.390625 19.8125 42.84375 
Q 14.984375 37.3125 14.984375 27.296875 
Q 14.984375 17.28125 19.8125 11.734375 
Q 24.65625 6.203125 33.40625 6.203125 
Q 37.3125 6.203125 41.140625 7.25 
Q 44.96875 8.296875 48.78125 10.40625 
L 48.78125 2.09375 
Q 45.015625 0.34375 40.984375 -0.53125 
Q 36.96875 -1.421875 32.421875 -1.421875 
Q 20.0625 -1.421875 12.78125 6.34375 
Q 5.515625 14.109375 5.515625 27.296875 
Q 5.515625 40.671875 12.859375 48.328125 
Q 20.21875 56 33.015625 56 
Q 37.15625 56 41.109375 55.140625 
Q 45.0625 54.296875 48.78125 52.59375 
z
" id="DejaVuSans-99"/>
      <path d="M 18.3125 70.21875 
L 18.3125 54.6875 
L 36.8125 54.6875 
L 36.8125 47.703125 
L 18.3125 47.703125 
L 18.3125 18.015625 
Q 18.3125 11.328125 20.140625 9.421875 
Q 21.96875 7.515625 27.59375 7.515625 
L 36.8125 7.515625 
L 36.8125 0 
L 27.59375 0 
Q 17.1875 0 13.234375 3.875 
Q 9.28125 7.765625 9.28125 18.015625 
L 9.28125 47.703125 
L 2.6875 47.703125 
L 2.6875 54.6875 
L 9.28125 54.6875 
L 9.28125 70.21875 
z
" id="DejaVuSans-116"/>
      <path d="M 8.5 21.578125 
L 8.5 54.6875 
L 17.484375 54.6875 
L 17.484375 21.921875 
Q 17.484375 14.15625 20.5 10.265625 
Q 23.53125 6.390625 29.59375 6.390625 
Q 36.859375 6.390625 41.078125 11.03125 
Q 45.3125 15.671875 45.3125 23.6875 
L 45.3125 54.6875 
L 54.296875 54.6875 
L 54.296875 0 
L 45.3125 0 
L 45.3125 8.40625 
Q 42.046875 3.421875 37.71875 1 
Q 33.40625 -1.421875 27.6875 -1.421875 
Q 18.265625 -1.421875 13.375 4.4375 
Q 8.5 10.296875 8.5 21.578125 
z
M 31.109375 56 
z
" id="DejaVuSans-117"/>
      <path d="M 11.71875 12.40625 
L 22.015625 12.40625 
L 22.015625 4 
L 14.015625 -11.625 
L 7.71875 -11.625 
L 11.71875 4 
z
" id="DejaVuSans-44"/>
      <path d="M 18.109375 8.203125 
L 18.109375 -20.796875 
L 9.078125 -20.796875 
L 9.078125 54.6875 
L 18.109375 54.6875 
L 18.109375 46.390625 
Q 20.953125 51.265625 25.265625 53.625 
Q 29.59375 56 35.59375 56 
Q 45.5625 56 51.78125 48.09375 
Q 58.015625 40.1875 58.015625 27.296875 
Q 58.015625 14.40625 51.78125 6.484375 
Q 45.5625 -1.421875 35.59375 -1.421875 
Q 29.59375 -1.421875 25.265625 0.953125 
Q 20.953125 3.328125 18.109375 8.203125 
z
M 48.6875 27.296875 
Q 48.6875 37.203125 44.609375 42.84375 
Q 40.53125 48.484375 33.40625 48.484375 
Q 26.265625 48.484375 22.1875 42.84375 
Q 18.109375 37.203125 18.109375 27.296875 
Q 18.109375 17.390625 22.1875 11.75 
Q 26.265625 6.109375 33.40625 6.109375 
Q 40.53125 6.109375 44.609375 11.75 
Q 48.6875 17.390625 48.6875 27.296875 
z
" id="DejaVuSans-112"/>
     </defs>
     <g transform="translate(17.619531 305.347375)rotate(-90)scale(0.17 -0.17)">
      <use xlink:href="#DejaVuSans-70"/>
      <use x="57.410156" xlink:href="#DejaVuSans-114"/>
      <use x="98.523438" xlink:href="#DejaVuSans-97"/>
      <use x="159.802734" xlink:href="#DejaVuSans-99"/>
      <use x="214.783203" xlink:href="#DejaVuSans-116"/>
      <use x="253.992188" xlink:href="#DejaVuSans-105"/>
      <use x="281.775391" xlink:href="#DejaVuSans-111"/>
      <use x="342.957031" xlink:href="#DejaVuSans-110"/>
      <use x="406.335938" xlink:href="#DejaVuSans-32"/>
      <use x="438.123047" xlink:href="#DejaVuSans-111"/>
      <use x="499.304688" xlink:href="#DejaVuSans-102"/>
      <use x="534.509766" xlink:href="#DejaVuSans-32"/>
      <use x="566.296875" xlink:href="#DejaVuSans-102"/>
      <use x="601.501953" xlink:href="#DejaVuSans-117"/>
      <use x="664.880859" xlink:href="#DejaVuSans-110"/>
      <use x="728.259766" xlink:href="#DejaVuSans-99"/>
      <use x="783.240234" xlink:href="#DejaVuSans-116"/>
      <use x="822.449219" xlink:href="#DejaVuSans-105"/>
      <use x="850.232422" xlink:href="#DejaVuSans-111"/>
      <use x="911.414062" xlink:href="#DejaVuSans-110"/>
      <use x="974.792969" xlink:href="#DejaVuSans-44"/>
      <use x="1006.580078" xlink:href="#DejaVuSans-116"/>
      <use x="1045.789062" xlink:href="#DejaVuSans-97"/>
      <use x="1107.068359" xlink:href="#DejaVuSans-114"/>
      <use x="1148.166016" xlink:href="#DejaVuSans-103"/>
      <use x="1211.642578" xlink:href="#DejaVuSans-101"/>
      <use x="1273.166016" xlink:href="#DejaVuSans-116"/>
      <use x="1312.375" xlink:href="#DejaVuSans-32"/>
      <use x="1344.162109" xlink:href="#DejaVuSans-112"/>
      <use x="1407.638672" xlink:href="#DejaVuSans-97"/>
      <use x="1468.917969" xlink:href="#DejaVuSans-105"/>
      <use x="1496.701172" xlink:href="#DejaVuSans-114"/>
      <use x="1537.814453" xlink:href="#DejaVuSans-115"/>
     </g>
    </g>
   </g>
   <g id="line2d_41">
    <defs>
     <path d="M 0 1.5 
C 0.397805 1.5 0.77937 1.341951 1.06066 1.06066 
C 1.341951 0.77937 1.5 0.397805 1.5 0 
C 1.5 -0.397805 1.341951 -0.77937 1.06066 -1.06066 
C 0.77937 -1.341951 0.397805 -1.5 0 -1.5 
C -0.397805 -1.5 -0.77937 -1.341951 -1.06066 -1.06066 
C -1.341951 -0.77937 -1.5 -0.397805 -1.5 0 
C -1.5 0.397805 -1.341951 0.77937 -1.06066 1.06066 
C -0.77937 1.341951 -0.397805 1.5 0 1.5 
z
" id="m546a7432c2" style="stroke:#f5deb3;"/>
    </defs>
    <g>
     <use style="fill:#f5deb3;stroke:#f5deb3;" x="297.861974" xlink:href="#m546a7432c2" y="109.949531"/>
     <use style="fill:#f5deb3;stroke:#f5deb3;" x="297.861974" xlink:href="#m546a7432c2" y="109.949531"/>
    </g>
   </g>
   <g id="line2d_42">
    <defs>
     <path d="M 0 1.5 
C 0.397805 1.5 0.77937 1.341951 1.06066 1.06066 
C 1.341951 0.77937 1.5 0.397805 1.5 0 
C 1.5 -0.397805 1.341951 -0.77937 1.06066 -1.06066 
C 0.77937 -1.341951 0.397805 -1.5 0 -1.5 
C -0.397805 -1.5 -0.77937 -1.341951 -1.06066 -1.06066 
C -1.341951 -0.77937 -1.5 -0.397805 -1.5 0 
C -1.5 0.397805 -1.341951 0.77937 -1.06066 1.06066 
C -0.77937 1.341951 -0.397805 1.5 0 1.5 
z
" id="m2001bc3eea" style="stroke:#00bfbf;"/>
    </defs>
    <g>
     <use style="fill:#00bfbf;stroke:#00bfbf;" x="256.954991" xlink:href="#m2001bc3eea" y="124.453758"/>
     <use style="fill:#00bfbf;stroke:#00bfbf;" x="256.954991" xlink:href="#m2001bc3eea" y="124.453758"/>
    </g>
   </g>
   <g id="line2d_43">
    <path d="M -1 275.209811 
L 125.010763 275.209811 
L 125.010763 274.770289 
L 127.571989 274.770289 
L 127.571989 274.330767 
L 128.313212 274.330767 
L 128.313212 273.891245 
L 129.78395 273.891245 
L 129.78395 273.451723 
L 130.571839 273.451723 
L 130.571839 273.012201 
L 131.082294 273.012201 
L 131.088742 272.133157 
L 131.703155 272.133157 
L 131.703155 271.254113 
L 132.320701 271.254113 
L 132.356708 270.375069 
L 132.946128 270.375069 
L 132.998212 269.496025 
L 133.119138 269.496025 
L 133.119138 269.056503 
L 133.46572 269.056503 
L 133.510666 267.298414 
L 134.236034 267.298414 
L 134.236034 266.41937 
L 134.348701 266.41937 
L 134.348701 265.540326 
L 134.587709 265.540326 
L 134.587709 265.100804 
L 135.22476 265.100804 
L 135.22476 264.661282 
L 135.597107 264.661282 
L 135.686489 263.782238 
L 136.083131 263.782238 
L 136.13148 261.145106 
L 136.213366 261.145106 
L 136.227776 259.82654 
L 136.456742 259.82654 
L 136.456742 259.387018 
L 136.598334 259.387018 
L 136.598334 258.947496 
L 137.030101 258.947496 
L 137.043853 257.62893 
L 137.576323 257.62893 
L 137.576323 257.189408 
L 137.792743 257.189408 
L 137.792743 256.749886 
L 137.932643 256.749886 
L 137.950051 255.870842 
L 138.049816 255.870842 
L 138.049816 255.43132 
L 138.183385 255.43132 
L 138.183385 254.991798 
L 138.362733 254.991798 
L 138.396686 253.23371 
L 138.840437 253.23371 
L 138.885846 252.354666 
L 139.580923 252.354666 
L 139.612588 251.475622 
L 139.976531 251.475622 
L 140.01908 250.596578 
L 140.27983 250.596578 
L 140.378508 249.717534 
L 140.577945 249.717534 
L 140.577945 249.278012 
L 141.104941 249.278012 
L 141.104941 248.398968 
L 141.267537 248.398968 
L 141.267537 247.959446 
L 141.506851 247.959446 
L 141.51749 246.201357 
L 141.725418 246.201357 
L 141.830201 245.322313 
L 141.927433 245.322313 
L 141.927433 244.882791 
L 142.174998 244.882791 
L 142.174998 244.443269 
L 142.506412 244.443269 
L 142.506412 243.564225 
L 142.805321 243.564225 
L 142.805321 242.685181 
L 143.521442 242.685181 
L 143.540394 240.927093 
L 144.114873 240.927093 
L 144.148442 237.850439 
L 144.399676 237.850439 
L 144.432703 236.092351 
L 144.794859 236.092351 
L 144.794859 235.213307 
L 145.232931 235.213307 
L 145.232931 234.334263 
L 145.926606 234.334263 
L 145.926606 233.455219 
L 146.178086 233.455219 
L 146.205204 232.136653 
L 146.40993 232.136653 
L 146.439364 230.818087 
L 146.654584 230.818087 
L 146.654584 229.939043 
L 147.072061 229.939043 
L 147.159502 227.741433 
L 147.279659 227.741433 
L 147.279659 227.301911 
L 147.509976 227.301911 
L 147.509976 226.862389 
L 147.791804 226.862389 
L 147.791804 226.422867 
L 148.047221 226.422867 
L 148.047221 225.543822 
L 148.532879 225.543822 
L 148.532879 224.664778 
L 148.770728 224.664778 
L 148.770728 223.785734 
L 149.102033 223.785734 
L 149.102033 223.346212 
L 149.803746 223.346212 
L 149.803746 222.467168 
L 150.048912 222.467168 
L 150.048912 221.588124 
L 150.215485 221.588124 
L 150.215485 220.70908 
L 150.57138 220.70908 
L 150.57138 219.830036 
L 150.953209 219.830036 
L 151.049939 217.632426 
L 151.121626 217.632426 
L 151.121626 216.753382 
L 151.523708 216.753382 
L 151.559624 214.995294 
L 151.660987 214.995294 
L 151.660987 214.555772 
L 152.803824 214.555772 
L 152.803824 213.676728 
L 153.034298 213.676728 
L 153.059922 212.797684 
L 153.644434 212.797684 
L 153.644434 211.91864 
L 154.022346 211.91864 
L 154.022346 211.039596 
L 154.230522 211.039596 
L 154.230522 210.600074 
L 154.34983 210.600074 
L 154.34983 210.160552 
L 154.8587 210.160552 
L 154.863648 208.402464 
L 155.003275 208.402464 
L 155.003275 207.962942 
L 155.127178 207.962942 
L 155.127178 207.52342 
L 155.612591 207.52342 
L 155.612591 207.083898 
L 155.844867 207.083898 
L 155.844867 206.644376 
L 156.158512 206.644376 
L 156.158512 205.765332 
L 156.528188 205.765332 
L 156.528188 205.325809 
L 156.909268 205.325809 
L 156.909268 204.446765 
L 157.068412 204.446765 
L 157.068412 204.007243 
L 157.203057 204.007243 
L 157.287941 202.249155 
L 158.720112 202.249155 
L 158.720112 201.809633 
L 159.488247 201.809633 
L 159.488247 201.370111 
L 159.648178 201.370111 
L 159.648178 200.491067 
L 159.979703 200.491067 
L 160.023925 199.612023 
L 161.195758 199.612023 
L 161.195758 198.732979 
L 162.080293 198.732979 
L 162.080293 198.293457 
L 162.193324 198.293457 
L 162.292706 197.414413 
L 162.396879 197.414413 
L 162.396879 196.974891 
L 162.529149 196.974891 
L 162.529149 196.535369 
L 163.058731 196.535369 
L 163.058731 195.656325 
L 163.401709 195.656325 
L 163.429989 194.337759 
L 163.847782 194.337759 
L 163.847782 193.898237 
L 164.041782 193.898237 
L 164.044705 192.140149 
L 164.392894 192.140149 
L 164.429145 190.821583 
L 165.088368 190.821583 
L 165.088368 189.942539 
L 165.530511 189.942539 
L 165.530511 189.503017 
L 165.977425 189.503017 
L 165.977425 189.063495 
L 166.151824 189.063495 
L 166.151824 188.184451 
L 167.069981 188.184451 
L 167.069981 187.305407 
L 167.398582 187.305407 
L 167.481174 186.426363 
L 167.698999 186.426363 
L 167.698999 185.986841 
L 168.262571 185.986841 
L 168.262571 185.547319 
L 168.547833 185.547319 
L 168.547833 185.107797 
L 169.29393 185.107797 
L 169.371623 184.228752 
L 169.583512 184.228752 
L 169.583512 183.78923 
L 169.990025 183.78923 
L 169.990025 183.349708 
L 170.14658 183.349708 
L 170.14658 182.910186 
L 170.284041 182.910186 
L 170.284041 182.470664 
L 170.687376 182.470664 
L 170.687376 181.59162 
L 171.340609 181.59162 
L 171.348301 180.273054 
L 171.589514 180.273054 
L 171.589514 179.833532 
L 171.908924 179.833532 
L 171.908924 178.954488 
L 172.032603 178.954488 
L 172.032603 178.514966 
L 172.241474 178.514966 
L 172.241474 178.075444 
L 173.845287 178.075444 
L 173.845287 177.635922 
L 174.207491 177.635922 
L 174.283479 176.756878 
L 174.390386 176.756878 
L 174.390386 176.317356 
L 175.48717 176.317356 
L 175.48717 175.877834 
L 175.633145 175.877834 
L 175.633145 175.438312 
L 175.932814 175.438312 
L 175.98349 174.559268 
L 176.131719 174.559268 
L 176.131719 174.119746 
L 176.892815 174.119746 
L 176.892815 173.240702 
L 177.126274 173.240702 
L 177.126274 172.361658 
L 177.889694 172.361658 
L 177.889694 171.922136 
L 178.496907 171.922136 
L 178.496907 171.043092 
L 178.623625 171.043092 
L 178.623625 170.60357 
L 179.122304 170.60357 
L 179.122304 169.724526 
L 179.445933 169.724526 
L 179.445933 169.285004 
L 180.120337 169.285004 
L 180.120337 168.40596 
L 180.465681 168.40596 
L 180.465681 167.966438 
L 180.633564 167.966438 
L 180.653496 167.087394 
L 180.841914 167.087394 
L 180.841914 166.647872 
L 181.91934 166.647872 
L 181.91934 166.20835 
L 182.6749 166.20835 
L 182.6749 165.329306 
L 182.808282 165.329306 
L 182.808282 164.450262 
L 183.245878 164.450262 
L 183.332159 162.692173 
L 183.549993 162.692173 
L 183.549993 162.252651 
L 184.636058 162.252651 
L 184.636058 161.813129 
L 185.193312 161.813129 
L 185.193312 161.373607 
L 185.808706 161.373607 
L 185.808706 160.934085 
L 186.032681 160.934085 
L 186.032681 160.494563 
L 186.177861 160.494563 
L 186.177861 159.615519 
L 187.67571 159.615519 
L 187.67571 159.175997 
L 187.844507 159.175997 
L 187.844507 158.736475 
L 188.771098 158.736475 
L 188.771098 158.296953 
L 188.904391 158.296953 
L 188.934809 157.417909 
L 189.057346 157.417909 
L 189.057346 156.978387 
L 189.81974 156.978387 
L 189.81974 156.538865 
L 190.939619 156.538865 
L 190.939619 156.099343 
L 191.067312 156.099343 
L 191.067312 155.659821 
L 193.0507 155.659821 
L 193.0507 154.780777 
L 193.550471 154.780777 
L 193.550471 153.901733 
L 196.107073 153.901733 
L 196.107073 153.462211 
L 197.055894 153.462211 
L 197.055894 153.022689 
L 197.556384 153.022689 
L 197.556384 152.583167 
L 197.813853 152.583167 
L 197.813853 152.143645 
L 197.930502 152.143645 
L 197.930502 151.264601 
L 198.798559 151.264601 
L 198.798559 150.825079 
L 199.523076 150.825079 
L 199.523076 150.385557 
L 203.227555 150.385557 
L 203.227555 149.506513 
L 203.37148 149.506513 
L 203.37148 149.066991 
L 203.961483 149.066991 
L 204.018475 148.187947 
L 204.149889 148.187947 
L 204.149889 147.308903 
L 205.814473 147.308903 
L 205.814473 146.869381 
L 207.231961 146.869381 
L 207.231961 146.429859 
L 210.565443 146.429859 
L 210.565443 145.990337 
L 211.598066 145.990337 
L 211.598066 145.550815 
L 211.712994 145.550815 
L 211.712994 145.111293 
L 213.538687 145.111293 
L 213.538687 144.671771 
L 214.147988 144.671771 
L 214.182483 143.792727 
L 217.07024 143.792727 
L 217.07024 142.913682 
L 218.176095 142.913682 
L 218.176095 142.47416 
L 220.531976 142.47416 
L 220.531976 141.595116 
L 220.969209 141.595116 
L 220.969209 141.155594 
L 221.883602 141.155594 
L 221.883602 140.27655 
L 222.760229 140.27655 
L 222.760229 139.837028 
L 223.088595 139.837028 
L 223.088595 139.397506 
L 224.527369 139.397506 
L 224.527369 138.957984 
L 224.746469 138.957984 
L 224.746469 138.07894 
L 225.341351 138.07894 
L 225.341351 137.199896 
L 225.751576 137.199896 
L 225.751576 136.760374 
L 226.171121 136.760374 
L 226.171121 136.320852 
L 226.379886 136.320852 
L 226.379886 135.88133 
L 228.256899 135.88133 
L 228.256899 135.441808 
L 228.553823 135.441808 
L 228.553823 135.002286 
L 230.5453 135.002286 
L 230.5453 134.123242 
L 233.159187 134.123242 
L 233.159187 133.244198 
L 234.42206 133.244198 
L 234.42206 132.365154 
L 236.938736 132.365154 
L 236.938736 131.48611 
L 238.226896 131.48611 
L 238.226896 130.607066 
L 238.528014 130.607066 
L 238.528014 130.167544 
L 238.843368 130.167544 
L 238.843368 129.728022 
L 241.613289 129.728022 
L 241.613289 128.848978 
L 241.898219 128.848978 
L 241.898219 128.409456 
L 242.296106 128.409456 
L 242.296106 127.969934 
L 244.939409 127.969934 
L 244.939409 127.530412 
L 245.37162 127.530412 
L 245.37162 127.09089 
L 246.287306 127.09089 
L 246.287306 126.651368 
L 246.509411 126.651368 
L 246.509411 126.211846 
L 249.523073 126.211846 
L 249.523073 125.772324 
L 253.333559 125.772324 
L 253.333559 125.332802 
L 256.954991 125.332802 
L 256.954991 124.453758 
L 338.688 124.453758 
L 338.688 124.453758 
" style="fill:none;stroke:#00bfbf;stroke-linecap:square;stroke-width:1.5;"/>
   </g>
   <g id="line2d_44">
    <defs>
     <path d="M 0 -6 
L -5.706339 -1.854102 
L -3.526712 4.854102 
L 3.526712 4.854102 
L 5.706339 -1.854102 
z
" id="mc8df010f93" style="stroke:#00bfbf;stroke-linejoin:miter;stroke-width:1.5;"/>
    </defs>
    <g>
     <use style="fill-opacity:0;stroke:#00bfbf;stroke-linejoin:miter;stroke-width:1.5;" x="164.429145" xlink:href="#mc8df010f93" y="191.700627"/>
     <use style="fill-opacity:0;stroke:#00bfbf;stroke-linejoin:miter;stroke-width:1.5;" x="249.523073" xlink:href="#mc8df010f93" y="125.772324"/>
     <use style="fill-opacity:0;stroke:#00bfbf;stroke-linejoin:miter;stroke-width:1.5;" x="256.954991" xlink:href="#mc8df010f93" y="124.453758"/>
     <use style="fill-opacity:0;stroke:#00bfbf;stroke-linejoin:miter;stroke-width:1.5;" x="338.688" xlink:href="#mc8df010f93" y="124.453758"/>
    </g>
   </g>
   <g id="line2d_45">
    <path style="fill:none;stroke:#00bfbf;stroke-linecap:square;stroke-width:1.5;"/>
    <g/>
   </g>
   <g id="line2d_46">
    <path clip-path="url(#pb5d41ea98a)" d="M 258.377147 124.453758 
" style="fill:none;stroke:#00bfbf;stroke-linecap:square;stroke-width:1.5;"/>
    <defs>
     <path d="M -12 12 
L 12 -12 
M -12 -12 
L 12 12 
" id="m5b20255118" style="stroke:#00bfbf;"/>
    </defs>
    <g clip-path="url(#pb5d41ea98a)">
     <use style="fill:#00bfbf;stroke:#00bfbf;" x="258.377147" xlink:href="#m5b20255118" y="124.453758"/>
    </g>
   </g>
   <g id="line2d_47">
    <defs>
     <path d="M 0 1.5 
C 0.397805 1.5 0.77937 1.341951 1.06066 1.06066 
C 1.341951 0.77937 1.5 0.397805 1.5 0 
C 1.5 -0.397805 1.341951 -0.77937 1.06066 -1.06066 
C 0.77937 -1.341951 0.397805 -1.5 0 -1.5 
C -0.397805 -1.5 -0.77937 -1.341951 -1.06066 -1.06066 
C -1.341951 -0.77937 -1.5 -0.397805 -1.5 0 
C -1.5 0.397805 -1.341951 0.77937 -1.06066 1.06066 
C -0.77937 1.341951 -0.397805 1.5 0 1.5 
z
" id="m230306a869" style="stroke:#000080;"/>
    </defs>
    <g>
     <use style="fill:#000080;stroke:#000080;" x="216.013336" xlink:href="#m230306a869" y="143.792727"/>
     <use style="fill:#000080;stroke:#000080;" x="216.013336" xlink:href="#m230306a869" y="143.792727"/>
    </g>
   </g>
   <g id="line2d_48">
    <path d="M -1 275.209811 
L 118.629344 275.209811 
L 118.629344 274.770289 
L 127.666383 274.770289 
L 127.666383 274.330767 
L 128.45625 274.330767 
L 128.45625 273.891245 
L 128.812469 273.891245 
L 128.812469 273.451723 
L 130.978796 273.451723 
L 130.985283 272.572679 
L 132.266551 272.572679 
L 132.266551 272.133157 
L 133.443203 272.133157 
L 133.443203 271.693635 
L 134.257551 271.693635 
L 134.257551 271.254113 
L 134.661403 271.254113 
L 134.661403 270.375069 
L 135.265399 270.375069 
L 135.300881 269.056503 
L 135.651784 269.056503 
L 135.651784 268.616981 
L 136.184509 268.616981 
L 136.184509 267.737936 
L 136.827156 267.737936 
L 136.827156 267.298414 
L 137.473804 267.298414 
L 137.473804 266.858892 
L 138.413638 266.858892 
L 138.413638 266.41937 
L 138.578062 266.41937 
L 138.59903 265.540326 
L 138.745106 265.540326 
L 138.745106 264.661282 
L 139.277207 264.661282 
L 139.301378 263.342716 
L 139.401731 263.342716 
L 139.477614 262.463672 
L 140.057671 262.463672 
L 140.09233 261.145106 
L 140.253168 261.145106 
L 140.253168 260.266062 
L 140.555481 260.266062 
L 140.555481 259.82654 
L 140.826843 259.82654 
L 140.826843 258.947496 
L 141.324986 258.947496 
L 141.324986 258.068452 
L 141.521035 258.068452 
L 141.521035 257.189408 
L 142.147664 257.189408 
L 142.147664 256.749886 
L 142.311031 256.749886 
L 142.419098 254.991798 
L 143.218586 254.991798 
L 143.218586 254.552276 
L 143.470802 254.552276 
L 143.562479 253.673232 
L 144.068992 253.673232 
L 144.093477 252.794188 
L 144.342484 252.794188 
L 144.342484 252.354666 
L 144.62659 252.354666 
L 144.715355 251.0361 
L 145.091978 251.0361 
L 145.129485 250.157056 
L 145.735587 250.157056 
L 145.832743 248.83849 
L 146.197073 248.83849 
L 146.197073 248.398968 
L 146.318639 248.398968 
L 146.318639 247.959446 
L 146.514062 247.959446 
L 146.514062 247.519924 
L 146.94267 247.519924 
L 146.94267 247.080402 
L 147.144103 247.080402 
L 147.144103 246.640879 
L 147.56019 246.640879 
L 147.667663 244.882791 
L 148.525764 244.882791 
L 148.525764 244.443269 
L 148.959162 244.443269 
L 149.065275 242.245659 
L 149.449671 242.245659 
L 149.449671 241.806137 
L 149.867558 241.806137 
L 149.867558 240.927093 
L 150.007563 240.927093 
L 150.007563 240.048049 
L 150.152936 240.048049 
L 150.152936 239.169005 
L 150.83725 239.169005 
L 150.920156 237.410917 
L 151.135928 237.410917 
L 151.135928 236.531873 
L 151.912822 236.531873 
L 151.912822 236.092351 
L 152.049021 236.092351 
L 152.049021 235.652829 
L 152.451351 235.652829 
L 152.451351 234.773785 
L 152.589063 234.773785 
L 152.589063 233.894741 
L 152.720102 233.894741 
L 152.720102 233.455219 
L 152.859416 233.455219 
L 152.859416 232.576175 
L 153.014138 232.576175 
L 153.014138 231.697131 
L 153.577094 231.697131 
L 153.605479 230.378565 
L 154.475074 230.378565 
L 154.485189 228.620477 
L 154.634552 228.620477 
L 154.634552 227.741433 
L 154.794242 227.741433 
L 154.883428 226.862389 
L 155.066967 226.862389 
L 155.107673 225.543822 
L 155.393186 225.543822 
L 155.393186 225.1043 
L 156.034038 225.1043 
L 156.034038 224.225256 
L 156.34433 224.225256 
L 156.34433 223.785734 
L 156.492172 223.785734 
L 156.492172 222.90669 
L 156.93272 222.90669 
L 156.93272 222.027646 
L 157.15106 222.027646 
L 157.249147 219.830036 
L 157.329512 219.830036 
L 157.329512 218.950992 
L 157.450792 218.950992 
L 157.450792 218.071948 
L 157.762229 218.071948 
L 157.762229 217.192904 
L 158.370247 217.192904 
L 158.370247 216.753382 
L 158.554067 216.753382 
L 158.554067 215.874338 
L 159.421068 215.874338 
L 159.421068 215.434816 
L 159.543823 215.434816 
L 159.543823 214.555772 
L 159.761879 214.555772 
L 159.824038 212.797684 
L 160.065587 212.797684 
L 160.065587 211.91864 
L 160.379729 211.91864 
L 160.379729 211.039596 
L 160.664677 211.039596 
L 160.664677 210.160552 
L 160.824769 210.160552 
L 160.824769 209.281508 
L 161.049465 209.281508 
L 161.049465 208.841986 
L 161.738962 208.841986 
L 161.738962 207.962942 
L 162.131465 207.962942 
L 162.171644 207.083898 
L 162.788623 207.083898 
L 162.856543 206.204854 
L 162.965704 206.204854 
L 162.965704 205.325809 
L 163.381481 205.325809 
L 163.479367 204.007243 
L 163.747984 204.007243 
L 163.794496 203.128199 
L 163.89501 203.128199 
L 163.89501 202.688677 
L 164.390984 202.688677 
L 164.390984 201.809633 
L 164.592289 201.809633 
L 164.620589 200.930589 
L 165.219096 200.930589 
L 165.219096 200.491067 
L 166.086087 200.491067 
L 166.086087 200.051545 
L 166.221614 200.051545 
L 166.221614 199.612023 
L 166.470909 199.612023 
L 166.470909 199.172501 
L 166.991174 199.172501 
L 167.073257 198.293457 
L 167.238706 198.293457 
L 167.238706 197.414413 
L 167.442734 197.414413 
L 167.498765 196.095847 
L 167.890711 196.095847 
L 167.890711 195.216803 
L 168.577156 195.216803 
L 168.577156 194.777281 
L 168.688733 194.777281 
L 168.696196 192.579671 
L 168.812205 192.579671 
L 168.812205 192.140149 
L 169.067518 192.140149 
L 169.10983 190.821583 
L 169.512456 190.821583 
L 169.512456 189.942539 
L 169.818763 189.942539 
L 169.862085 189.063495 
L 170.406903 189.063495 
L 170.406903 188.184451 
L 170.662064 188.184451 
L 170.662064 187.744929 
L 170.988943 187.744929 
L 170.988943 187.305407 
L 171.384793 187.305407 
L 171.413548 186.426363 
L 172.502542 186.426363 
L 172.502542 185.986841 
L 173.064425 185.986841 
L 173.064425 185.547319 
L 173.247575 185.547319 
L 173.247575 185.107797 
L 173.364429 185.107797 
L 173.471997 184.228752 
L 173.891322 184.228752 
L 173.930053 183.349708 
L 174.081929 183.349708 
L 174.081929 182.910186 
L 174.443058 182.910186 
L 174.456469 181.59162 
L 174.856183 181.59162 
L 174.856183 181.152098 
L 176.156545 181.152098 
L 176.156545 180.712576 
L 176.46942 180.712576 
L 176.574218 179.39401 
L 177.389767 179.39401 
L 177.389767 178.954488 
L 177.595224 178.954488 
L 177.595224 178.075444 
L 177.880002 178.075444 
L 177.884849 176.756878 
L 178.912998 176.756878 
L 178.912998 176.317356 
L 179.089444 176.317356 
L 179.089444 175.877834 
L 179.517087 175.877834 
L 179.517087 175.438312 
L 179.634637 175.438312 
L 179.634637 174.99879 
L 180.220037 174.99879 
L 180.220037 174.559268 
L 180.844516 174.559268 
L 180.844516 173.680224 
L 181.089645 173.680224 
L 181.135043 172.80118 
L 181.455663 172.80118 
L 181.455663 172.361658 
L 181.603293 172.361658 
L 181.603293 171.922136 
L 181.795861 171.922136 
L 181.835245 170.164048 
L 181.973437 170.164048 
L 182.038827 169.285004 
L 182.641394 169.285004 
L 182.684605 167.966438 
L 183.268863 167.966438 
L 183.268863 167.526916 
L 183.952795 167.526916 
L 183.952795 167.087394 
L 184.172276 167.087394 
L 184.172276 166.647872 
L 185.260976 166.647872 
L 185.260976 166.20835 
L 185.506285 166.20835 
L 185.506285 165.329306 
L 185.623135 165.329306 
L 185.623135 164.889784 
L 185.919664 164.889784 
L 185.919664 164.450262 
L 186.045929 164.450262 
L 186.045929 163.571217 
L 186.323742 163.571217 
L 186.409338 162.692173 
L 187.311852 162.692173 
L 187.311852 162.252651 
L 187.658363 162.252651 
L 187.658363 161.813129 
L 188.927326 161.813129 
L 188.927326 161.373607 
L 189.432828 161.373607 
L 189.432828 160.934085 
L 189.621739 160.934085 
L 189.621739 160.055041 
L 189.955427 160.055041 
L 189.955427 159.615519 
L 190.315062 159.615519 
L 190.315062 159.175997 
L 190.717735 159.175997 
L 190.717735 158.296953 
L 191.430697 158.296953 
L 191.430697 157.417909 
L 191.713059 157.417909 
L 191.713059 156.978387 
L 191.91463 156.978387 
L 191.91463 156.538865 
L 194.437865 156.538865 
L 194.437865 156.099343 
L 195.954087 156.099343 
L 195.954087 155.659821 
L 197.5789 155.659821 
L 197.5789 155.220299 
L 198.020709 155.220299 
L 198.020709 154.780777 
L 199.341242 154.780777 
L 199.341242 154.341255 
L 200.444891 154.341255 
L 200.444891 153.462211 
L 201.564384 153.462211 
L 201.675307 152.583167 
L 203.771718 152.583167 
L 203.771718 152.143645 
L 204.189316 152.143645 
L 204.189316 151.264601 
L 205.034429 151.264601 
L 205.034429 150.385557 
L 206.009729 150.385557 
L 206.009729 149.946035 
L 207.075867 149.946035 
L 207.075867 149.506513 
L 207.319755 149.506513 
L 207.319755 149.066991 
L 207.502172 149.066991 
L 207.502172 148.627469 
L 209.175624 148.627469 
L 209.175624 148.187947 
L 209.393753 148.187947 
L 209.393753 147.748425 
L 210.789941 147.748425 
L 210.815493 145.990337 
L 211.946789 145.990337 
L 211.946789 145.550815 
L 212.439532 145.550815 
L 212.439532 144.671771 
L 213.636785 144.671771 
L 213.636785 144.232249 
L 216.013336 144.232249 
L 216.013336 143.792727 
L 338.688 143.792727 
L 338.688 143.792727 
" style="fill:none;stroke:#000080;stroke-linecap:square;stroke-width:1.5;"/>
   </g>
   <g id="line2d_49">
    <defs>
     <path d="M -0 6 
L 6 -6 
L -6 -6 
z
" id="m40a8389e3e" style="stroke:#000080;stroke-linejoin:miter;stroke-width:1.5;"/>
    </defs>
    <g>
     <use style="fill-opacity:0;stroke:#000080;stroke-linejoin:miter;stroke-width:1.5;" x="155.107673" xlink:href="#m40a8389e3e" y="226.422867"/>
     <use style="fill-opacity:0;stroke:#000080;stroke-linejoin:miter;stroke-width:1.5;" x="207.502172" xlink:href="#m40a8389e3e" y="148.627469"/>
     <use style="fill-opacity:0;stroke:#000080;stroke-linejoin:miter;stroke-width:1.5;" x="216.013336" xlink:href="#m40a8389e3e" y="143.792727"/>
     <use style="fill-opacity:0;stroke:#000080;stroke-linejoin:miter;stroke-width:1.5;" x="216.013336" xlink:href="#m40a8389e3e" y="143.792727"/>
     <use style="fill-opacity:0;stroke:#000080;stroke-linejoin:miter;stroke-width:1.5;" x="338.688" xlink:href="#m40a8389e3e" y="143.792727"/>
    </g>
   </g>
   <g id="line2d_50">
    <path style="fill:none;stroke:#000080;stroke-linecap:square;stroke-width:1.5;"/>
    <g/>
   </g>
   <g id="line2d_51">
    <path clip-path="url(#pb5d41ea98a)" d="M 218.226117 143.792727 
" style="fill:none;stroke:#000080;stroke-linecap:square;stroke-width:1.5;"/>
    <defs>
     <path d="M -12 12 
L 12 -12 
M -12 -12 
L 12 12 
" id="mbdb75c3df6" style="stroke:#000080;"/>
    </defs>
    <g clip-path="url(#pb5d41ea98a)">
     <use style="fill:#000080;stroke:#000080;" x="218.226117" xlink:href="#mbdb75c3df6" y="143.792727"/>
    </g>
   </g>
   <g id="line2d_52">
    <defs>
     <path d="M 0 1.5 
C 0.397805 1.5 0.77937 1.341951 1.06066 1.06066 
C 1.341951 0.77937 1.5 0.397805 1.5 0 
C 1.5 -0.397805 1.341951 -0.77937 1.06066 -1.06066 
C 0.77937 -1.341951 0.397805 -1.5 0 -1.5 
C -0.397805 -1.5 -0.77937 -1.341951 -1.06066 -1.06066 
C -1.341951 -0.77937 -1.5 -0.397805 -1.5 0 
C -1.5 0.397805 -1.341951 0.77937 -1.06066 1.06066 
C -0.77937 1.341951 -0.397805 1.5 0 1.5 
z
" id="m5741e4449c" style="stroke:#6495ed;"/>
    </defs>
    <g>
     <use style="fill:#6495ed;stroke:#6495ed;" x="177.383421" xlink:href="#m5741e4449c" y="209.281508"/>
     <use style="fill:#6495ed;stroke:#6495ed;" x="177.383421" xlink:href="#m5741e4449c" y="209.281508"/>
    </g>
   </g>
   <g id="line2d_53">
    <path d="M -1 275.209811 
L 127.650686 275.209811 
L 127.650686 274.770289 
L 129.147151 274.770289 
L 129.147151 274.330767 
L 130.913797 274.330767 
L 130.913797 273.891245 
L 131.715598 273.891245 
L 131.715598 273.451723 
L 132.812315 273.451723 
L 132.812315 273.012201 
L 134.187524 273.012201 
L 134.187524 272.572679 
L 134.598256 272.572679 
L 134.598256 272.133157 
L 135.275544 272.133157 
L 135.275544 271.693635 
L 135.401861 271.693635 
L 135.401861 271.254113 
L 135.770486 271.254113 
L 135.770486 270.814591 
L 135.917737 270.814591 
L 135.917737 270.375069 
L 136.184509 270.375069 
L 136.184509 269.935547 
L 136.570107 269.935547 
L 136.570107 269.056503 
L 136.790002 269.056503 
L 136.790002 268.177459 
L 136.938146 268.177459 
L 136.938146 267.298414 
L 137.424559 267.298414 
L 137.424559 266.41937 
L 137.638431 266.41937 
L 137.638431 265.979848 
L 138.054141 265.979848 
L 138.054141 265.540326 
L 138.345732 265.540326 
L 138.443265 264.22176 
L 138.615786 264.22176 
L 138.69516 262.903194 
L 138.877599 262.903194 
L 138.935249 262.02415 
L 139.07039 262.02415 
L 139.07039 261.584628 
L 139.321494 261.584628 
L 139.321494 260.705584 
L 139.726893 260.705584 
L 139.7426 259.82654 
L 140.382292 259.82654 
L 140.39742 258.068452 
L 140.723258 258.068452 
L 140.815774 256.310364 
L 140.907802 256.310364 
L 141.0103 255.43132 
L 141.510398 255.43132 
L 141.510398 254.991798 
L 141.80232 254.991798 
L 141.80232 254.552276 
L 142.116861 254.552276 
L 142.22273 253.23371 
L 142.516459 253.23371 
L 142.516459 252.794188 
L 142.633244 252.794188 
L 142.633244 252.354666 
L 143.167057 252.354666 
L 143.186398 251.475622 
L 143.407294 251.475622 
L 143.407294 251.0361 
L 143.521442 251.0361 
L 143.521442 250.596578 
L 143.73816 250.596578 
L 143.750641 249.717534 
L 143.868769 249.717534 
L 143.868769 249.278012 
L 144.459677 249.278012 
L 144.459677 248.83849 
L 144.68286 248.83849 
L 144.68286 248.398968 
L 145.158281 248.398968 
L 145.158281 247.959446 
L 145.403989 247.959446 
L 145.403989 247.080402 
L 145.663063 247.080402 
L 145.663063 246.640879 
L 145.846578 246.640879 
L 145.893535 245.322313 
L 146.093753 245.322313 
L 146.093753 244.443269 
L 146.657225 244.443269 
L 146.765143 243.564225 
L 146.895853 243.564225 
L 146.895853 242.685181 
L 147.499916 242.685181 
L 147.499916 241.806137 
L 148.013055 241.806137 
L 148.013055 240.927093 
L 148.425853 240.927093 
L 148.425853 240.048049 
L 148.898899 240.048049 
L 148.898899 239.169005 
L 149.07677 239.169005 
L 149.07677 238.289961 
L 149.300559 238.289961 
L 149.300559 237.410917 
L 149.83018 237.410917 
L 149.83018 236.531873 
L 150.03804 236.531873 
L 150.03804 235.652829 
L 150.294965 235.652829 
L 150.294965 234.773785 
L 150.621935 234.773785 
L 150.659755 233.894741 
L 151.529699 233.894741 
L 151.593477 231.697131 
L 152.302996 231.697131 
L 152.302996 231.257609 
L 152.898225 231.257609 
L 152.898225 230.378565 
L 153.174769 230.378565 
L 153.174769 229.499521 
L 153.598387 229.499521 
L 153.598387 228.620477 
L 154.070741 228.620477 
L 154.070741 227.741433 
L 154.322631 227.741433 
L 154.322631 227.301911 
L 154.676279 227.301911 
L 154.717906 225.983344 
L 154.970522 225.983344 
L 154.970522 225.543822 
L 155.106047 225.543822 
L 155.106047 224.664778 
L 155.697699 224.664778 
L 155.697699 224.225256 
L 156.156981 224.225256 
L 156.230332 222.90669 
L 156.271457 222.90669 
L 156.271457 222.027646 
L 156.744217 222.027646 
L 156.744217 221.588124 
L 156.907802 221.588124 
L 156.907802 220.70908 
L 158.006333 220.70908 
L 158.006333 219.830036 
L 159.741941 219.830036 
L 159.741941 218.950992 
L 160.346039 218.950992 
L 160.346039 218.071948 
L 162.814777 218.071948 
L 162.8555 216.31386 
L 163.100945 216.31386 
L 163.100945 215.434816 
L 164.785696 215.434816 
L 164.785696 214.555772 
L 166.563062 214.555772 
L 166.563062 213.676728 
L 168.138983 213.676728 
L 168.138983 213.237206 
L 170.179505 213.237206 
L 170.179505 212.358162 
L 171.390547 212.358162 
L 171.390547 211.479118 
L 173.146705 211.479118 
L 173.146705 210.600074 
L 174.877658 210.600074 
L 174.877658 210.160552 
L 177.118911 210.160552 
L 177.118911 209.72103 
L 177.383421 209.72103 
L 177.383421 209.281508 
L 338.688 209.281508 
L 338.688 209.281508 
" style="fill:none;stroke:#6495ed;stroke-linecap:square;stroke-width:1.5;"/>
   </g>
   <g id="line2d_54">
    <defs>
     <path d="M 0 -6 
L -6 6 
L 6 6 
z
" id="mdd2775d610" style="stroke:#6495ed;stroke-linejoin:miter;stroke-width:1.5;"/>
    </defs>
    <g>
     <use style="fill-opacity:0;stroke:#6495ed;stroke-linejoin:miter;stroke-width:1.5;" x="154.322631" xlink:href="#mdd2775d610" y="227.301911"/>
     <use style="fill-opacity:0;stroke:#6495ed;stroke-linejoin:miter;stroke-width:1.5;" x="177.383421" xlink:href="#mdd2775d610" y="209.72103"/>
     <use style="fill-opacity:0;stroke:#6495ed;stroke-linejoin:miter;stroke-width:1.5;" x="177.383421" xlink:href="#mdd2775d610" y="209.281508"/>
     <use style="fill-opacity:0;stroke:#6495ed;stroke-linejoin:miter;stroke-width:1.5;" x="177.383421" xlink:href="#mdd2775d610" y="209.281508"/>
     <use style="fill-opacity:0;stroke:#6495ed;stroke-linejoin:miter;stroke-width:1.5;" x="338.688" xlink:href="#mdd2775d610" y="209.281508"/>
    </g>
   </g>
   <g id="line2d_55">
    <path style="fill:none;stroke:#6495ed;stroke-linecap:square;stroke-width:1.5;"/>
    <g/>
   </g>
   <g id="line2d_56">
    <path clip-path="url(#pb5d41ea98a)" d="M 178.066722 209.281508 
" style="fill:none;stroke:#6495ed;stroke-linecap:square;stroke-width:1.5;"/>
    <defs>
     <path d="M -12 12 
L 12 -12 
M -12 -12 
L 12 12 
" id="mbaa34c97ad" style="stroke:#6495ed;"/>
    </defs>
    <g clip-path="url(#pb5d41ea98a)">
     <use style="fill:#6495ed;stroke:#6495ed;" x="178.066722" xlink:href="#mbaa34c97ad" y="209.281508"/>
    </g>
   </g>
   <g id="line2d_57">
    <path d="M 338.688 209.281508 
L 369.60768 293.845545 
" style="fill:none;stroke:#6495ed;stroke-linecap:square;stroke-width:1.5;"/>
    <g>
     <use style="fill-opacity:0;stroke:#6495ed;stroke-linejoin:miter;stroke-width:1.5;" x="338.688" xlink:href="#mdd2775d610" y="209.281508"/>
     <use style="fill-opacity:0;stroke:#6495ed;stroke-linejoin:miter;stroke-width:1.5;" x="369.60768" xlink:href="#mdd2775d610" y="293.845545"/>
    </g>
   </g>
   <g id="line2d_58">
    <path d="M 338.688 143.792727 
L 369.60768 212.270257 
" style="fill:none;stroke:#000080;stroke-linecap:square;stroke-width:1.5;"/>
    <g>
     <use style="fill-opacity:0;stroke:#000080;stroke-linejoin:miter;stroke-width:1.5;" x="338.688" xlink:href="#m40a8389e3e" y="143.792727"/>
     <use style="fill-opacity:0;stroke:#000080;stroke-linejoin:miter;stroke-width:1.5;" x="369.60768" xlink:href="#m40a8389e3e" y="212.270257"/>
    </g>
   </g>
   <g id="line2d_59">
    <path d="M 338.688 124.453758 
L 369.60768 130.69497 
" style="fill:none;stroke:#00bfbf;stroke-linecap:square;stroke-width:1.5;"/>
    <g>
     <use style="fill-opacity:0;stroke:#00bfbf;stroke-linejoin:miter;stroke-width:1.5;" x="338.688" xlink:href="#mc8df010f93" y="124.453758"/>
     <use style="fill-opacity:0;stroke:#00bfbf;stroke-linejoin:miter;stroke-width:1.5;" x="369.60768" xlink:href="#mc8df010f93" y="130.69497"/>
    </g>
   </g>
   <g id="line2d_60">
    <path d="M 338.688 298.944 
L 338.688 44.021228 
" style="fill:none;stroke:#000000;stroke-linecap:square;stroke-width:1.5;"/>
   </g>
   <g id="patch_3">
    <path d="M 57.6 298.944 
L 57.6 41.472 
" style="fill:none;stroke:#000000;stroke-linecap:square;stroke-linejoin:miter;stroke-width:0.8;"/>
   </g>
   <g id="patch_4">
    <path d="M 338.688 298.944 
L 338.688 41.472 
" style="fill:none;stroke:#000000;stroke-linecap:square;stroke-linejoin:miter;stroke-width:0.8;"/>
   </g>
   <g id="patch_5">
    <path d="M 57.6 298.944 
L 338.688 298.944 
" style="fill:none;stroke:#000000;stroke-linecap:square;stroke-linejoin:miter;stroke-width:0.8;"/>
   </g>
   <g id="patch_6">
    <path d="M 57.6 41.472 
L 338.688 41.472 
" style="fill:none;stroke:#000000;stroke-linecap:square;stroke-linejoin:miter;stroke-width:0.8;"/>
   </g>
   <g id="text_13">
    <!-- SPEA2-pla -->
    <defs>
     <path d="M 53.515625 70.515625 
L 53.515625 60.890625 
Q 47.90625 63.578125 42.921875 64.890625 
Q 37.9375 66.21875 33.296875 66.21875 
Q 25.25 66.21875 20.875 63.09375 
Q 16.5 59.96875 16.5 54.203125 
Q 16.5 49.359375 19.40625 46.890625 
Q 22.3125 44.4375 30.421875 42.921875 
L 36.375 41.703125 
Q 47.40625 39.59375 52.65625 34.296875 
Q 57.90625 29 57.90625 20.125 
Q 57.90625 9.515625 50.796875 4.046875 
Q 43.703125 -1.421875 29.984375 -1.421875 
Q 24.8125 -1.421875 18.96875 -0.25 
Q 13.140625 0.921875 6.890625 3.21875 
L 6.890625 13.375 
Q 12.890625 10.015625 18.65625 8.296875 
Q 24.421875 6.59375 29.984375 6.59375 
Q 38.421875 6.59375 43.015625 9.90625 
Q 47.609375 13.234375 47.609375 19.390625 
Q 47.609375 24.75 44.3125 27.78125 
Q 41.015625 30.8125 33.5 32.328125 
L 27.484375 33.5 
Q 16.453125 35.6875 11.515625 40.375 
Q 6.59375 45.0625 6.59375 53.421875 
Q 6.59375 63.09375 13.40625 68.65625 
Q 20.21875 74.21875 32.171875 74.21875 
Q 37.3125 74.21875 42.625 73.28125 
Q 47.953125 72.359375 53.515625 70.515625 
z
" id="DejaVuSans-83"/>
     <path d="M 19.671875 64.796875 
L 19.671875 37.40625 
L 32.078125 37.40625 
Q 38.96875 37.40625 42.71875 40.96875 
Q 46.484375 44.53125 46.484375 51.125 
Q 46.484375 57.671875 42.71875 61.234375 
Q 38.96875 64.796875 32.078125 64.796875 
z
M 9.8125 72.90625 
L 32.078125 72.90625 
Q 44.34375 72.90625 50.609375 67.359375 
Q 56.890625 61.8125 56.890625 51.125 
Q 56.890625 40.328125 50.609375 34.8125 
Q 44.34375 29.296875 32.078125 29.296875 
L 19.671875 29.296875 
L 19.671875 0 
L 9.8125 0 
z
" id="DejaVuSans-80"/>
     <path d="M 9.8125 72.90625 
L 55.90625 72.90625 
L 55.90625 64.59375 
L 19.671875 64.59375 
L 19.671875 43.015625 
L 54.390625 43.015625 
L 54.390625 34.71875 
L 19.671875 34.71875 
L 19.671875 8.296875 
L 56.78125 8.296875 
L 56.78125 0 
L 9.8125 0 
z
" id="DejaVuSans-69"/>
     <path d="M 34.1875 63.1875 
L 20.796875 26.90625 
L 47.609375 26.90625 
z
M 28.609375 72.90625 
L 39.796875 72.90625 
L 67.578125 0 
L 57.328125 0 
L 50.6875 18.703125 
L 17.828125 18.703125 
L 11.1875 0 
L 0.78125 0 
z
" id="DejaVuSans-65"/>
    </defs>
    <g transform="translate(375.22944 298.536482)scale(0.17 -0.17)">
     <use xlink:href="#DejaVuSans-83"/>
     <use x="63.476562" xlink:href="#DejaVuSans-80"/>
     <use x="123.779297" xlink:href="#DejaVuSans-69"/>
     <use x="186.962891" xlink:href="#DejaVuSans-65"/>
     <use x="255.371094" xlink:href="#DejaVuSans-50"/>
     <use x="318.994141" xlink:href="#DejaVuSans-45"/>
     <use x="355.078125" xlink:href="#DejaVuSans-112"/>
     <use x="418.554688" xlink:href="#DejaVuSans-108"/>
     <use x="446.337891" xlink:href="#DejaVuSans-97"/>
    </g>
   </g>
   <g id="text_14">
    <!-- MOEAD-pla -->
    <defs>
     <path d="M 9.8125 72.90625 
L 24.515625 72.90625 
L 43.109375 23.296875 
L 61.8125 72.90625 
L 76.515625 72.90625 
L 76.515625 0 
L 66.890625 0 
L 66.890625 64.015625 
L 48.09375 14.015625 
L 38.1875 14.015625 
L 19.390625 64.015625 
L 19.390625 0 
L 9.8125 0 
z
" id="DejaVuSans-77"/>
     <path d="M 39.40625 66.21875 
Q 28.65625 66.21875 22.328125 58.203125 
Q 16.015625 50.203125 16.015625 36.375 
Q 16.015625 22.609375 22.328125 14.59375 
Q 28.65625 6.59375 39.40625 6.59375 
Q 50.140625 6.59375 56.421875 14.59375 
Q 62.703125 22.609375 62.703125 36.375 
Q 62.703125 50.203125 56.421875 58.203125 
Q 50.140625 66.21875 39.40625 66.21875 
z
M 39.40625 74.21875 
Q 54.734375 74.21875 63.90625 63.9375 
Q 73.09375 53.65625 73.09375 36.375 
Q 73.09375 19.140625 63.90625 8.859375 
Q 54.734375 -1.421875 39.40625 -1.421875 
Q 24.03125 -1.421875 14.8125 8.828125 
Q 5.609375 19.09375 5.609375 36.375 
Q 5.609375 53.65625 14.8125 63.9375 
Q 24.03125 74.21875 39.40625 74.21875 
z
" id="DejaVuSans-79"/>
     <path d="M 19.671875 64.796875 
L 19.671875 8.109375 
L 31.59375 8.109375 
Q 46.6875 8.109375 53.6875 14.9375 
Q 60.6875 21.78125 60.6875 36.53125 
Q 60.6875 51.171875 53.6875 57.984375 
Q 46.6875 64.796875 31.59375 64.796875 
z
M 9.8125 72.90625 
L 30.078125 72.90625 
Q 51.265625 72.90625 61.171875 64.09375 
Q 71.09375 55.28125 71.09375 36.53125 
Q 71.09375 17.671875 61.125 8.828125 
Q 51.171875 0 30.078125 0 
L 9.8125 0 
z
" id="DejaVuSans-68"/>
    </defs>
    <g transform="translate(375.22944 216.961195)scale(0.17 -0.17)">
     <use xlink:href="#DejaVuSans-77"/>
     <use x="86.279297" xlink:href="#DejaVuSans-79"/>
     <use x="164.990234" xlink:href="#DejaVuSans-69"/>
     <use x="228.173828" xlink:href="#DejaVuSans-65"/>
     <use x="296.582031" xlink:href="#DejaVuSans-68"/>
     <use x="373.583984" xlink:href="#DejaVuSans-45"/>
     <use x="409.667969" xlink:href="#DejaVuSans-112"/>
     <use x="473.144531" xlink:href="#DejaVuSans-108"/>
     <use x="500.927734" xlink:href="#DejaVuSans-97"/>
    </g>
   </g>
   <g id="text_15">
    <!-- GDE3-plat -->
    <defs>
     <path d="M 59.515625 10.40625 
L 59.515625 29.984375 
L 43.40625 29.984375 
L 43.40625 38.09375 
L 69.28125 38.09375 
L 69.28125 6.78125 
Q 63.578125 2.734375 56.6875 0.65625 
Q 49.8125 -1.421875 42 -1.421875 
Q 24.90625 -1.421875 15.25 8.5625 
Q 5.609375 18.5625 5.609375 36.375 
Q 5.609375 54.25 15.25 64.234375 
Q 24.90625 74.21875 42 74.21875 
Q 49.125 74.21875 55.546875 72.453125 
Q 61.96875 70.703125 67.390625 67.28125 
L 67.390625 56.78125 
Q 61.921875 61.421875 55.765625 63.765625 
Q 49.609375 66.109375 42.828125 66.109375 
Q 29.4375 66.109375 22.71875 58.640625 
Q 16.015625 51.171875 16.015625 36.375 
Q 16.015625 21.625 22.71875 14.15625 
Q 29.4375 6.6875 42.828125 6.6875 
Q 48.046875 6.6875 52.140625 7.59375 
Q 56.25 8.5 59.515625 10.40625 
z
" id="DejaVuSans-71"/>
     <path d="M 40.578125 39.3125 
Q 47.65625 37.796875 51.625 33 
Q 55.609375 28.21875 55.609375 21.1875 
Q 55.609375 10.40625 48.1875 4.484375 
Q 40.765625 -1.421875 27.09375 -1.421875 
Q 22.515625 -1.421875 17.65625 -0.515625 
Q 12.796875 0.390625 7.625 2.203125 
L 7.625 11.71875 
Q 11.71875 9.328125 16.59375 8.109375 
Q 21.484375 6.890625 26.8125 6.890625 
Q 36.078125 6.890625 40.9375 10.546875 
Q 45.796875 14.203125 45.796875 21.1875 
Q 45.796875 27.640625 41.28125 31.265625 
Q 36.765625 34.90625 28.71875 34.90625 
L 20.21875 34.90625 
L 20.21875 43.015625 
L 29.109375 43.015625 
Q 36.375 43.015625 40.234375 45.921875 
Q 44.09375 48.828125 44.09375 54.296875 
Q 44.09375 59.90625 40.109375 62.90625 
Q 36.140625 65.921875 28.71875 65.921875 
Q 24.65625 65.921875 20.015625 65.03125 
Q 15.375 64.15625 9.8125 62.3125 
L 9.8125 71.09375 
Q 15.4375 72.65625 20.34375 73.4375 
Q 25.25 74.21875 29.59375 74.21875 
Q 40.828125 74.21875 47.359375 69.109375 
Q 53.90625 64.015625 53.90625 55.328125 
Q 53.90625 49.265625 50.4375 45.09375 
Q 46.96875 40.921875 40.578125 39.3125 
z
" id="DejaVuSans-51"/>
    </defs>
    <g transform="translate(375.22944 135.385908)scale(0.17 -0.17)">
     <use xlink:href="#DejaVuSans-71"/>
     <use x="77.490234" xlink:href="#DejaVuSans-68"/>
     <use x="154.492188" xlink:href="#DejaVuSans-69"/>
     <use x="217.675781" xlink:href="#DejaVuSans-51"/>
     <use x="281.298828" xlink:href="#DejaVuSans-45"/>
     <use x="317.382812" xlink:href="#DejaVuSans-112"/>
     <use x="380.859375" xlink:href="#DejaVuSans-108"/>
     <use x="408.642578" xlink:href="#DejaVuSans-97"/>
     <use x="469.921875" xlink:href="#DejaVuSans-116"/>
    </g>
   </g>
   <g id="text_16">
    <!-- best 2016 -->
    <defs>
     <path d="M 48.6875 27.296875 
Q 48.6875 37.203125 44.609375 42.84375 
Q 40.53125 48.484375 33.40625 48.484375 
Q 26.265625 48.484375 22.1875 42.84375 
Q 18.109375 37.203125 18.109375 27.296875 
Q 18.109375 17.390625 22.1875 11.75 
Q 26.265625 6.109375 33.40625 6.109375 
Q 40.53125 6.109375 44.609375 11.75 
Q 48.6875 17.390625 48.6875 27.296875 
z
M 18.109375 46.390625 
Q 20.953125 51.265625 25.265625 53.625 
Q 29.59375 56 35.59375 56 
Q 45.5625 56 51.78125 48.09375 
Q 58.015625 40.1875 58.015625 27.296875 
Q 58.015625 14.40625 51.78125 6.484375 
Q 45.5625 -1.421875 35.59375 -1.421875 
Q 29.59375 -1.421875 25.265625 0.953125 
Q 20.953125 3.328125 18.109375 8.203125 
L 18.109375 0 
L 9.078125 0 
L 9.078125 75.984375 
L 18.109375 75.984375 
z
" id="DejaVuSans-98"/>
    </defs>
    <g transform="translate(375.22944 53.810621)scale(0.17 -0.17)">
     <use xlink:href="#DejaVuSans-98"/>
     <use x="63.476562" xlink:href="#DejaVuSans-101"/>
     <use x="125" xlink:href="#DejaVuSans-115"/>
     <use x="177.099609" xlink:href="#DejaVuSans-116"/>
     <use x="216.308594" xlink:href="#DejaVuSans-32"/>
     <use x="248.095703" xlink:href="#DejaVuSans-50"/>
     <use x="311.71875" xlink:href="#DejaVuSans-48"/>
     <use x="375.341797" xlink:href="#DejaVuSans-49"/>
     <use x="438.964844" xlink:href="#DejaVuSans-54"/>
    </g>
   </g>
   <g id="text_17">
    <!-- bbob-biobj f33, 40-D -->
    <defs>
     <path d="M 9.421875 54.6875 
L 18.40625 54.6875 
L 18.40625 -0.984375 
Q 18.40625 -11.421875 14.421875 -16.109375 
Q 10.453125 -20.796875 1.609375 -20.796875 
L -1.8125 -20.796875 
L -1.8125 -13.1875 
L 0.59375 -13.1875 
Q 5.71875 -13.1875 7.5625 -10.8125 
Q 9.421875 -8.453125 9.421875 -0.984375 
z
M 9.421875 75.984375 
L 18.40625 75.984375 
L 18.40625 64.59375 
L 9.421875 64.59375 
z
" id="DejaVuSans-106"/>
    </defs>
    <g transform="translate(60.41088 51.797126)scale(0.102 -0.102)">
     <use xlink:href="#DejaVuSans-98"/>
     <use x="63.476562" xlink:href="#DejaVuSans-98"/>
     <use x="126.953125" xlink:href="#DejaVuSans-111"/>
     <use x="188.134766" xlink:href="#DejaVuSans-98"/>
     <use x="251.611328" xlink:href="#DejaVuSans-45"/>
     <use x="287.695312" xlink:href="#DejaVuSans-98"/>
     <use x="351.171875" xlink:href="#DejaVuSans-105"/>
     <use x="378.955078" xlink:href="#DejaVuSans-111"/>
     <use x="440.136719" xlink:href="#DejaVuSans-98"/>
     <use x="503.613281" xlink:href="#DejaVuSans-106"/>
     <use x="531.396484" xlink:href="#DejaVuSans-32"/>
     <use x="563.183594" xlink:href="#DejaVuSans-102"/>
     <use x="598.388672" xlink:href="#DejaVuSans-51"/>
     <use x="662.011719" xlink:href="#DejaVuSans-51"/>
     <use x="725.634766" xlink:href="#DejaVuSans-44"/>
     <use x="757.421875" xlink:href="#DejaVuSans-32"/>
     <use x="789.208984" xlink:href="#DejaVuSans-52"/>
     <use x="852.832031" xlink:href="#DejaVuSans-48"/>
     <use x="916.455078" xlink:href="#DejaVuSans-45"/>
     <use x="952.539062" xlink:href="#DejaVuSans-68"/>
    </g>
    <!-- 58 targets: 1..-1.0e-4 -->
    <defs>
     <path d="M 10.796875 72.90625 
L 49.515625 72.90625 
L 49.515625 64.59375 
L 19.828125 64.59375 
L 19.828125 46.734375 
Q 21.96875 47.46875 24.109375 47.828125 
Q 26.265625 48.1875 28.421875 48.1875 
Q 40.625 48.1875 47.75 41.5 
Q 54.890625 34.8125 54.890625 23.390625 
Q 54.890625 11.625 47.5625 5.09375 
Q 40.234375 -1.421875 26.90625 -1.421875 
Q 22.3125 -1.421875 17.546875 -0.640625 
Q 12.796875 0.140625 7.71875 1.703125 
L 7.71875 11.625 
Q 12.109375 9.234375 16.796875 8.0625 
Q 21.484375 6.890625 26.703125 6.890625 
Q 35.15625 6.890625 40.078125 11.328125 
Q 45.015625 15.765625 45.015625 23.390625 
Q 45.015625 31 40.078125 35.4375 
Q 35.15625 39.890625 26.703125 39.890625 
Q 22.75 39.890625 18.8125 39.015625 
Q 14.890625 38.140625 10.796875 36.28125 
z
" id="DejaVuSans-53"/>
     <path d="M 11.71875 12.40625 
L 22.015625 12.40625 
L 22.015625 0 
L 11.71875 0 
z
M 11.71875 51.703125 
L 22.015625 51.703125 
L 22.015625 39.3125 
L 11.71875 39.3125 
z
" id="DejaVuSans-58"/>
    </defs>
    <g transform="translate(60.41088 63.218895)scale(0.102 -0.102)">
     <use xlink:href="#DejaVuSans-53"/>
     <use x="63.623047" xlink:href="#DejaVuSans-56"/>
     <use x="127.246094" xlink:href="#DejaVuSans-32"/>
     <use x="159.033203" xlink:href="#DejaVuSans-116"/>
     <use x="198.242188" xlink:href="#DejaVuSans-97"/>
     <use x="259.521484" xlink:href="#DejaVuSans-114"/>
     <use x="300.619141" xlink:href="#DejaVuSans-103"/>
     <use x="364.095703" xlink:href="#DejaVuSans-101"/>
     <use x="425.619141" xlink:href="#DejaVuSans-116"/>
     <use x="464.828125" xlink:href="#DejaVuSans-115"/>
     <use x="516.927734" xlink:href="#DejaVuSans-58"/>
     <use x="550.619141" xlink:href="#DejaVuSans-32"/>
     <use x="582.40625" xlink:href="#DejaVuSans-49"/>
     <use x="646.029297" xlink:href="#DejaVuSans-46"/>
     <use x="677.816406" xlink:href="#DejaVuSans-46"/>
     <use x="709.603516" xlink:href="#DejaVuSans-45"/>
     <use x="745.6875" xlink:href="#DejaVuSans-49"/>
     <use x="809.310547" xlink:href="#DejaVuSans-46"/>
     <use x="841.097656" xlink:href="#DejaVuSans-48"/>
     <use x="904.720703" xlink:href="#DejaVuSans-101"/>
     <use x="966.244141" xlink:href="#DejaVuSans-45"/>
     <use x="1002.328125" xlink:href="#DejaVuSans-52"/>
    </g>
    <!-- 10 instances -->
    <g transform="translate(60.41088 74.640664)scale(0.102 -0.102)">
     <use xlink:href="#DejaVuSans-49"/>
     <use x="63.623047" xlink:href="#DejaVuSans-48"/>
     <use x="127.246094" xlink:href="#DejaVuSans-32"/>
     <use x="159.033203" xlink:href="#DejaVuSans-105"/>
     <use x="186.816406" xlink:href="#DejaVuSans-110"/>
     <use x="250.195312" xlink:href="#DejaVuSans-115"/>
     <use x="302.294922" xlink:href="#DejaVuSans-116"/>
     <use x="341.503906" xlink:href="#DejaVuSans-97"/>
     <use x="402.783203" xlink:href="#DejaVuSans-110"/>
     <use x="466.162109" xlink:href="#DejaVuSans-99"/>
     <use x="521.142578" xlink:href="#DejaVuSans-101"/>
     <use x="582.666016" xlink:href="#DejaVuSans-115"/>
    </g>
   </g>
   <g id="text_18">
    <!-- v2.3.1.31, hv-hash=9c62f617dadcb154 -->
    <defs>
     <path d="M 54.890625 33.015625 
L 54.890625 0 
L 45.90625 0 
L 45.90625 32.71875 
Q 45.90625 40.484375 42.875 44.328125 
Q 39.84375 48.1875 33.796875 48.1875 
Q 26.515625 48.1875 22.3125 43.546875 
Q 18.109375 38.921875 18.109375 30.90625 
L 18.109375 0 
L 9.078125 0 
L 9.078125 75.984375 
L 18.109375 75.984375 
L 18.109375 46.1875 
Q 21.34375 51.125 25.703125 53.5625 
Q 30.078125 56 35.796875 56 
Q 45.21875 56 50.046875 50.171875 
Q 54.890625 44.34375 54.890625 33.015625 
z
" id="DejaVuSans-104"/>
     <path d="M 10.59375 45.40625 
L 73.1875 45.40625 
L 73.1875 37.203125 
L 10.59375 37.203125 
z
M 10.59375 25.484375 
L 73.1875 25.484375 
L 73.1875 17.1875 
L 10.59375 17.1875 
z
" id="DejaVuSans-61"/>
     <path d="M 10.984375 1.515625 
L 10.984375 10.5 
Q 14.703125 8.734375 18.5 7.8125 
Q 22.3125 6.890625 25.984375 6.890625 
Q 35.75 6.890625 40.890625 13.453125 
Q 46.046875 20.015625 46.78125 33.40625 
Q 43.953125 29.203125 39.59375 26.953125 
Q 35.25 24.703125 29.984375 24.703125 
Q 19.046875 24.703125 12.671875 31.3125 
Q 6.296875 37.9375 6.296875 49.421875 
Q 6.296875 60.640625 12.9375 67.421875 
Q 19.578125 74.21875 30.609375 74.21875 
Q 43.265625 74.21875 49.921875 64.515625 
Q 56.59375 54.828125 56.59375 36.375 
Q 56.59375 19.140625 48.40625 8.859375 
Q 40.234375 -1.421875 26.421875 -1.421875 
Q 22.703125 -1.421875 18.890625 -0.6875 
Q 15.09375 0.046875 10.984375 1.515625 
z
M 30.609375 32.421875 
Q 37.25 32.421875 41.125 36.953125 
Q 45.015625 41.5 45.015625 49.421875 
Q 45.015625 57.28125 41.125 61.84375 
Q 37.25 66.40625 30.609375 66.40625 
Q 23.96875 66.40625 20.09375 61.84375 
Q 16.21875 57.28125 16.21875 49.421875 
Q 16.21875 41.5 20.09375 36.953125 
Q 23.96875 32.421875 30.609375 32.421875 
z
" id="DejaVuSans-57"/>
     <path d="M 8.203125 72.90625 
L 55.078125 72.90625 
L 55.078125 68.703125 
L 28.609375 0 
L 18.3125 0 
L 43.21875 64.59375 
L 8.203125 64.59375 
z
" id="DejaVuSans-55"/>
    </defs>
    <g style="fill:#808080;" transform="translate(98.729937 294.289592)scale(0.1 -0.1)">
     <use xlink:href="#DejaVuSans-118"/>
     <use x="59.179688" xlink:href="#DejaVuSans-50"/>
     <use x="122.802734" xlink:href="#DejaVuSans-46"/>
     <use x="154.589844" xlink:href="#DejaVuSans-51"/>
     <use x="218.212891" xlink:href="#DejaVuSans-46"/>
     <use x="250" xlink:href="#DejaVuSans-49"/>
     <use x="313.623047" xlink:href="#DejaVuSans-46"/>
     <use x="345.410156" xlink:href="#DejaVuSans-51"/>
     <use x="409.033203" xlink:href="#DejaVuSans-49"/>
     <use x="472.65625" xlink:href="#DejaVuSans-44"/>
     <use x="504.443359" xlink:href="#DejaVuSans-32"/>
     <use x="536.230469" xlink:href="#DejaVuSans-104"/>
     <use x="599.609375" xlink:href="#DejaVuSans-118"/>
     <use x="658.757812" xlink:href="#DejaVuSans-45"/>
     <use x="694.841797" xlink:href="#DejaVuSans-104"/>
     <use x="758.220703" xlink:href="#DejaVuSans-97"/>
     <use x="819.5" xlink:href="#DejaVuSans-115"/>
     <use x="871.599609" xlink:href="#DejaVuSans-104"/>
     <use x="934.978516" xlink:href="#DejaVuSans-61"/>
     <use x="1018.767578" xlink:href="#DejaVuSans-57"/>
     <use x="1082.390625" xlink:href="#DejaVuSans-99"/>
     <use x="1137.371094" xlink:href="#DejaVuSans-54"/>
     <use x="1200.994141" xlink:href="#DejaVuSans-50"/>
     <use x="1264.617188" xlink:href="#DejaVuSans-102"/>
     <use x="1299.822266" xlink:href="#DejaVuSans-54"/>
     <use x="1363.445312" xlink:href="#DejaVuSans-49"/>
     <use x="1427.068359" xlink:href="#DejaVuSans-55"/>
     <use x="1490.691406" xlink:href="#DejaVuSans-100"/>
     <use x="1554.167969" xlink:href="#DejaVuSans-97"/>
     <use x="1615.447266" xlink:href="#DejaVuSans-100"/>
     <use x="1678.923828" xlink:href="#DejaVuSans-99"/>
     <use x="1733.904297" xlink:href="#DejaVuSans-98"/>
     <use x="1797.380859" xlink:href="#DejaVuSans-49"/>
     <use x="1861.003906" xlink:href="#DejaVuSans-53"/>
     <use x="1924.626953" xlink:href="#DejaVuSans-52"/>
    </g>
   </g>
   <g id="text_19">
    <!-- 33 Rosenbrock/Schwefel -->
    <defs>
     <path d="M 44.390625 34.1875 
Q 47.5625 33.109375 50.5625 29.59375 
Q 53.5625 26.078125 56.59375 19.921875 
L 66.609375 0 
L 56 0 
L 46.6875 18.703125 
Q 43.0625 26.03125 39.671875 28.421875 
Q 36.28125 30.8125 30.421875 30.8125 
L 19.671875 30.8125 
L 19.671875 0 
L 9.8125 0 
L 9.8125 72.90625 
L 32.078125 72.90625 
Q 44.578125 72.90625 50.734375 67.671875 
Q 56.890625 62.453125 56.890625 51.90625 
Q 56.890625 45.015625 53.6875 40.46875 
Q 50.484375 35.9375 44.390625 34.1875 
z
M 19.671875 64.796875 
L 19.671875 38.921875 
L 32.078125 38.921875 
Q 39.203125 38.921875 42.84375 42.21875 
Q 46.484375 45.515625 46.484375 51.90625 
Q 46.484375 58.296875 42.84375 61.546875 
Q 39.203125 64.796875 32.078125 64.796875 
z
" id="DejaVuSans-82"/>
     <path d="M 9.078125 75.984375 
L 18.109375 75.984375 
L 18.109375 31.109375 
L 44.921875 54.6875 
L 56.390625 54.6875 
L 27.390625 29.109375 
L 57.625 0 
L 45.90625 0 
L 18.109375 26.703125 
L 18.109375 0 
L 9.078125 0 
z
" id="DejaVuSans-107"/>
     <path d="M 4.203125 54.6875 
L 13.1875 54.6875 
L 24.421875 12.015625 
L 35.59375 54.6875 
L 46.1875 54.6875 
L 57.421875 12.015625 
L 68.609375 54.6875 
L 77.59375 54.6875 
L 63.28125 0 
L 52.6875 0 
L 40.921875 44.828125 
L 29.109375 0 
L 18.5 0 
z
" id="DejaVuSans-119"/>
    </defs>
    <g transform="translate(75.279937 35.472)scale(0.2 -0.2)">
     <use xlink:href="#DejaVuSans-51"/>
     <use x="63.623047" xlink:href="#DejaVuSans-51"/>
     <use x="127.246094" xlink:href="#DejaVuSans-32"/>
     <use x="159.033203" xlink:href="#DejaVuSans-82"/>
     <use x="228.453125" xlink:href="#DejaVuSans-111"/>
     <use x="289.634766" xlink:href="#DejaVuSans-115"/>
     <use x="341.734375" xlink:href="#DejaVuSans-101"/>
     <use x="403.257812" xlink:href="#DejaVuSans-110"/>
     <use x="466.636719" xlink:href="#DejaVuSans-98"/>
     <use x="530.113281" xlink:href="#DejaVuSans-114"/>
     <use x="571.195312" xlink:href="#DejaVuSans-111"/>
     <use x="632.376953" xlink:href="#DejaVuSans-99"/>
     <use x="687.357422" xlink:href="#DejaVuSans-107"/>
     <use x="745.267578" xlink:href="#DejaVuSans-47"/>
     <use x="778.958984" xlink:href="#DejaVuSans-83"/>
     <use x="842.435547" xlink:href="#DejaVuSans-99"/>
     <use x="897.416016" xlink:href="#DejaVuSans-104"/>
     <use x="960.794922" xlink:href="#DejaVuSans-119"/>
     <use x="1042.582031" xlink:href="#DejaVuSans-101"/>
     <use x="1104.105469" xlink:href="#DejaVuSans-102"/>
     <use x="1139.310547" xlink:href="#DejaVuSans-101"/>
     <use x="1200.833984" xlink:href="#DejaVuSans-108"/>
    </g>
   </g>
  </g>
 </g>
 <defs>
  <clipPath id="pb5d41ea98a">
   <rect height="257.472" width="281.088" x="57.6" y="41.472"/>
  </clipPath>
 </defs>
</svg>
