<?xml version="1.0" encoding="utf-8" standalone="no"?>
<!DOCTYPE svg PUBLIC "-//W3C//DTD SVG 1.1//EN"
  "http://www.w3.org/Graphics/SVG/1.1/DTD/svg11.dtd">
<!-- Created with matplotlib (https://matplotlib.org/) -->
<svg height="345.6pt" version="1.1" viewBox="0 0 460.8 345.6" width="460.8pt" xmlns="http://www.w3.org/2000/svg" xmlns:xlink="http://www.w3.org/1999/xlink">
 <defs>
  <style type="text/css">
*{stroke-linecap:butt;stroke-linejoin:round;}
  </style>
 </defs>
 <g id="figure_1">
  <g id="patch_1">
   <path d="M 0 345.6 
L 460.8 345.6 
L 460.8 0 
L 0 0 
z
" style="fill:#ffffff;"/>
  </g>
  <g id="axes_1">
   <g id="patch_2">
    <path d="M 57.6 298.944 
L 338.688 298.944 
L 338.688 41.472 
L 57.6 41.472 
z
" style="fill:#ffffff;"/>
   </g>
   <g id="line2d_1">
    <path d="M -1 296.74639 
L 17.444571 296.74639 
L 17.444571 295.647585 
L 73.227131 295.647585 
L 73.227131 294.54878 
L 96.676366 294.54878 
L 96.676366 292.35117 
L 110.590167 292.35117 
L 110.590167 290.15356 
L 129.790896 290.15356 
L 129.790896 287.955949 
L 138.50658 287.955949 
L 138.50658 285.758339 
L 142.755858 285.758339 
L 142.755858 283.560729 
L 144.447694 283.560729 
L 144.447694 281.363119 
L 145.230066 281.363119 
L 145.230066 280.264314 
L 146.033655 280.264314 
L 146.033655 279.165509 
L 147.816526 279.165509 
L 147.816526 275.869094 
L 148.103206 275.869094 
L 148.103206 272.572679 
L 150.152936 272.572679 
L 150.152936 270.375069 
L 150.331361 270.375069 
L 150.331361 268.177459 
L 150.67444 268.177459 
L 150.67444 265.979848 
L 152.464604 265.979848 
L 152.464604 264.881043 
L 153.232815 264.881043 
L 153.232815 262.683433 
L 153.921671 262.683433 
L 153.921671 261.584628 
L 155.357952 261.584628 
L 155.357952 259.387018 
L 157.540141 259.387018 
L 157.540141 257.189408 
L 158.125748 257.189408 
L 158.125748 253.892993 
L 158.413356 253.892993 
L 158.413356 252.794188 
L 161.368114 252.794188 
L 161.368114 250.596578 
L 161.973109 250.596578 
L 161.973109 247.300163 
L 162.998837 247.300163 
L 162.998837 244.003747 
L 165.068168 244.003747 
L 165.068168 241.806137 
L 166.245674 241.806137 
L 166.245674 240.707332 
L 167.153325 240.707332 
L 167.16066 236.312112 
L 170.371016 236.312112 
L 170.371016 234.114502 
L 170.841121 234.114502 
L 170.841121 233.015697 
L 173.196348 233.015697 
L 173.196348 230.818087 
L 174.08686 230.818087 
L 174.08686 228.620477 
L 178.311322 228.620477 
L 178.311322 225.324061 
L 179.921171 225.324061 
L 179.921171 222.027646 
L 181.412893 222.027646 
L 181.412893 219.830036 
L 182.852407 219.830036 
L 182.852407 217.632426 
L 183.619256 217.632426 
L 183.619256 215.434816 
L 186.062476 215.434816 
L 186.062476 214.336011 
L 186.48833 214.336011 
L 186.48833 213.237206 
L 187.46894 213.237206 
L 187.46894 211.039596 
L 188.522255 211.039596 
L 188.522255 208.841986 
L 190.413921 208.841986 
L 190.413921 205.545571 
L 191.987195 205.545571 
L 191.987195 203.34796 
L 193.562129 203.34796 
L 193.627986 198.95274 
L 195.418697 198.95274 
L 195.418697 197.853935 
L 196.370505 197.853935 
L 196.370505 195.656325 
L 204.844314 195.656325 
L 204.844314 194.55752 
L 213.235412 194.55752 
L 213.235412 193.458715 
L 217.365246 193.458715 
L 217.365246 190.1623 
L 229.014704 190.1623 
L 229.014704 186.865885 
L 234.956485 186.865885 
L 234.956485 183.569469 
L 235.663662 183.569469 
L 235.663662 180.273054 
L 239.431764 180.273054 
L 239.431764 179.174249 
L 243.183078 179.174249 
L 243.183078 178.075444 
L 246.760697 178.075444 
L 246.760697 176.976639 
L 255.000688 176.976639 
L 255.000688 173.680224 
L 255.120644 173.680224 
L 255.120644 172.581419 
L 261.467955 172.581419 
L 261.467955 169.285004 
L 267.377228 169.285004 
L 267.377228 165.988589 
L 268.128493 165.988589 
L 268.128493 162.692173 
L 269.388545 162.692173 
L 269.388545 160.494563 
L 275.349128 160.494563 
L 275.349128 158.296953 
L 283.487839 158.296953 
L 283.487839 156.099343 
L 283.645201 156.099343 
L 283.645201 155.000538 
L 283.911847 155.000538 
L 283.911847 153.901733 
L 284.667662 153.901733 
L 284.667662 150.605318 
L 297.058859 150.605318 
L 297.148757 145.111293 
L 297.371208 145.111293 
L 297.371208 144.012488 
L 297.670526 144.012488 
L 297.670526 142.913682 
L 338.688 142.913682 
L 338.688 142.913682 
" style="fill:none;stroke:#f5deb3;stroke-linecap:square;stroke-width:4;"/>
   </g>
   <g id="line2d_2">
    <defs>
     <path d="M 0 7.778175 
L 7.778175 0 
L 0 -7.778175 
L -7.778175 0 
z
" id="mbf427444f4" style="stroke:#f5deb3;stroke-linejoin:miter;stroke-width:1.5;"/>
    </defs>
    <g>
     <use style="fill:#f5deb3;stroke:#f5deb3;stroke-linejoin:miter;stroke-width:1.5;" x="158.413356" xlink:href="#mbf427444f4" y="253.892993"/>
     <use style="fill:#f5deb3;stroke:#f5deb3;stroke-linejoin:miter;stroke-width:1.5;" x="193.627986" xlink:href="#mbf427444f4" y="201.15035"/>
     <use style="fill:#f5deb3;stroke:#f5deb3;stroke-linejoin:miter;stroke-width:1.5;" x="267.377228" xlink:href="#mbf427444f4" y="169.285004"/>
     <use style="fill:#f5deb3;stroke:#f5deb3;stroke-linejoin:miter;stroke-width:1.5;" x="297.670526" xlink:href="#mbf427444f4" y="142.913682"/>
     <use style="fill:#f5deb3;stroke:#f5deb3;stroke-linejoin:miter;stroke-width:1.5;" x="338.688" xlink:href="#mbf427444f4" y="142.913682"/>
    </g>
   </g>
   <g id="line2d_3">
    <path style="fill:none;stroke:#f5deb3;stroke-linecap:square;stroke-width:4;"/>
    <g/>
   </g>
   <g id="line2d_4">
    <path d="M 338.688 142.913682 
L 369.60768 49.119683 
" style="fill:none;stroke:#f5deb3;stroke-linecap:square;stroke-width:4;"/>
    <g>
     <use style="fill:#f5deb3;stroke:#f5deb3;stroke-linejoin:miter;stroke-width:1.5;" x="338.688" xlink:href="#mbf427444f4" y="142.913682"/>
     <use style="fill:#f5deb3;stroke:#f5deb3;stroke-linejoin:miter;stroke-width:1.5;" x="369.60768" xlink:href="#mbf427444f4" y="49.119683"/>
    </g>
   </g>
   <g id="matplotlib.axis_1">
    <g id="xtick_1">
     <g id="line2d_5">
      <path clip-path="url(#p9f4d23d67f)" d="M 57.6 298.944 
L 57.6 41.472 
" style="fill:none;stroke:#b0b0b0;stroke-linecap:square;stroke-width:0.8;"/>
     </g>
     <g id="line2d_6">
      <defs>
       <path d="M 0 0 
L 0 3.5 
" id="m9607f8bb35" style="stroke:#000000;stroke-width:0.8;"/>
      </defs>
      <g>
       <use style="stroke:#000000;stroke-width:0.8;" x="57.6" xlink:href="#m9607f8bb35" y="298.944"/>
      </g>
     </g>
     <g id="text_1">
      <!-- 0 -->
      <defs>
       <path d="M 31.78125 66.40625 
Q 24.171875 66.40625 20.328125 58.90625 
Q 16.5 51.421875 16.5 36.375 
Q 16.5 21.390625 20.328125 13.890625 
Q 24.171875 6.390625 31.78125 6.390625 
Q 39.453125 6.390625 43.28125 13.890625 
Q 47.125 21.390625 47.125 36.375 
Q 47.125 51.421875 43.28125 58.90625 
Q 39.453125 66.40625 31.78125 66.40625 
z
M 31.78125 74.21875 
Q 44.046875 74.21875 50.515625 64.515625 
Q 56.984375 54.828125 56.984375 36.375 
Q 56.984375 17.96875 50.515625 8.265625 
Q 44.046875 -1.421875 31.78125 -1.421875 
Q 19.53125 -1.421875 13.0625 8.265625 
Q 6.59375 17.96875 6.59375 36.375 
Q 6.59375 54.828125 13.0625 64.515625 
Q 19.53125 74.21875 31.78125 74.21875 
z
" id="DejaVuSans-48"/>
      </defs>
      <g transform="translate(51.2375 321.140875)scale(0.2 -0.2)">
       <use xlink:href="#DejaVuSans-48"/>
      </g>
     </g>
    </g>
    <g id="xtick_2">
     <g id="line2d_7">
      <path clip-path="url(#p9f4d23d67f)" d="M 137.910857 298.944 
L 137.910857 41.472 
" style="fill:none;stroke:#b0b0b0;stroke-linecap:square;stroke-width:0.8;"/>
     </g>
     <g id="line2d_8">
      <g>
       <use style="stroke:#000000;stroke-width:0.8;" x="137.910857" xlink:href="#m9607f8bb35" y="298.944"/>
      </g>
     </g>
     <g id="text_2">
      <!-- 2 -->
      <defs>
       <path d="M 19.1875 8.296875 
L 53.609375 8.296875 
L 53.609375 0 
L 7.328125 0 
L 7.328125 8.296875 
Q 12.9375 14.109375 22.625 23.890625 
Q 32.328125 33.6875 34.8125 36.53125 
Q 39.546875 41.84375 41.421875 45.53125 
Q 43.3125 49.21875 43.3125 52.78125 
Q 43.3125 58.59375 39.234375 62.25 
Q 35.15625 65.921875 28.609375 65.921875 
Q 23.96875 65.921875 18.8125 64.3125 
Q 13.671875 62.703125 7.8125 59.421875 
L 7.8125 69.390625 
Q 13.765625 71.78125 18.9375 73 
Q 24.125 74.21875 28.421875 74.21875 
Q 39.75 74.21875 46.484375 68.546875 
Q 53.21875 62.890625 53.21875 53.421875 
Q 53.21875 48.921875 51.53125 44.890625 
Q 49.859375 40.875 45.40625 35.40625 
Q 44.1875 33.984375 37.640625 27.21875 
Q 31.109375 20.453125 19.1875 8.296875 
z
" id="DejaVuSans-50"/>
      </defs>
      <g transform="translate(131.548357 321.140875)scale(0.2 -0.2)">
       <use xlink:href="#DejaVuSans-50"/>
      </g>
     </g>
    </g>
    <g id="xtick_3">
     <g id="line2d_9">
      <path clip-path="url(#p9f4d23d67f)" d="M 218.221714 298.944 
L 218.221714 41.472 
" style="fill:none;stroke:#b0b0b0;stroke-linecap:square;stroke-width:0.8;"/>
     </g>
     <g id="line2d_10">
      <g>
       <use style="stroke:#000000;stroke-width:0.8;" x="218.221714" xlink:href="#m9607f8bb35" y="298.944"/>
      </g>
     </g>
     <g id="text_3">
      <!-- 4 -->
      <defs>
       <path d="M 37.796875 64.3125 
L 12.890625 25.390625 
L 37.796875 25.390625 
z
M 35.203125 72.90625 
L 47.609375 72.90625 
L 47.609375 25.390625 
L 58.015625 25.390625 
L 58.015625 17.1875 
L 47.609375 17.1875 
L 47.609375 0 
L 37.796875 0 
L 37.796875 17.1875 
L 4.890625 17.1875 
L 4.890625 26.703125 
z
" id="DejaVuSans-52"/>
      </defs>
      <g transform="translate(211.859214 321.140875)scale(0.2 -0.2)">
       <use xlink:href="#DejaVuSans-52"/>
      </g>
     </g>
    </g>
    <g id="xtick_4">
     <g id="line2d_11">
      <path clip-path="url(#p9f4d23d67f)" d="M 298.532571 298.944 
L 298.532571 41.472 
" style="fill:none;stroke:#b0b0b0;stroke-linecap:square;stroke-width:0.8;"/>
     </g>
     <g id="line2d_12">
      <g>
       <use style="stroke:#000000;stroke-width:0.8;" x="298.532571" xlink:href="#m9607f8bb35" y="298.944"/>
      </g>
     </g>
     <g id="text_4">
      <!-- 6 -->
      <defs>
       <path d="M 33.015625 40.375 
Q 26.375 40.375 22.484375 35.828125 
Q 18.609375 31.296875 18.609375 23.390625 
Q 18.609375 15.53125 22.484375 10.953125 
Q 26.375 6.390625 33.015625 6.390625 
Q 39.65625 6.390625 43.53125 10.953125 
Q 47.40625 15.53125 47.40625 23.390625 
Q 47.40625 31.296875 43.53125 35.828125 
Q 39.65625 40.375 33.015625 40.375 
z
M 52.59375 71.296875 
L 52.59375 62.3125 
Q 48.875 64.0625 45.09375 64.984375 
Q 41.3125 65.921875 37.59375 65.921875 
Q 27.828125 65.921875 22.671875 59.328125 
Q 17.53125 52.734375 16.796875 39.40625 
Q 19.671875 43.65625 24.015625 45.921875 
Q 28.375 48.1875 33.59375 48.1875 
Q 44.578125 48.1875 50.953125 41.515625 
Q 57.328125 34.859375 57.328125 23.390625 
Q 57.328125 12.15625 50.6875 5.359375 
Q 44.046875 -1.421875 33.015625 -1.421875 
Q 20.359375 -1.421875 13.671875 8.265625 
Q 6.984375 17.96875 6.984375 36.375 
Q 6.984375 53.65625 15.1875 63.9375 
Q 23.390625 74.21875 37.203125 74.21875 
Q 40.921875 74.21875 44.703125 73.484375 
Q 48.484375 72.75 52.59375 71.296875 
z
" id="DejaVuSans-54"/>
      </defs>
      <g transform="translate(292.170071 321.140875)scale(0.2 -0.2)">
       <use xlink:href="#DejaVuSans-54"/>
      </g>
     </g>
    </g>
    <g id="xtick_5">
     <g id="line2d_13">
      <path clip-path="url(#p9f4d23d67f)" d="M 57.6 298.944 
L 57.6 41.472 
" style="fill:none;stroke:#b0b0b0;stroke-linecap:square;stroke-width:0.8;"/>
     </g>
     <g id="line2d_14">
      <defs>
       <path d="M 0 0 
L 0 2 
" id="m25d2556c6b" style="stroke:#000000;stroke-width:0.6;"/>
      </defs>
      <g>
       <use style="stroke:#000000;stroke-width:0.6;" x="57.6" xlink:href="#m25d2556c6b" y="298.944"/>
      </g>
     </g>
    </g>
    <g id="xtick_6">
     <g id="line2d_15">
      <path clip-path="url(#p9f4d23d67f)" d="M 97.755429 298.944 
L 97.755429 41.472 
" style="fill:none;stroke:#b0b0b0;stroke-linecap:square;stroke-width:0.8;"/>
     </g>
     <g id="line2d_16">
      <g>
       <use style="stroke:#000000;stroke-width:0.6;" x="97.755429" xlink:href="#m25d2556c6b" y="298.944"/>
      </g>
     </g>
    </g>
    <g id="xtick_7">
     <g id="line2d_17">
      <path clip-path="url(#p9f4d23d67f)" d="M 137.910857 298.944 
L 137.910857 41.472 
" style="fill:none;stroke:#b0b0b0;stroke-linecap:square;stroke-width:0.8;"/>
     </g>
     <g id="line2d_18">
      <g>
       <use style="stroke:#000000;stroke-width:0.6;" x="137.910857" xlink:href="#m25d2556c6b" y="298.944"/>
      </g>
     </g>
    </g>
    <g id="xtick_8">
     <g id="line2d_19">
      <path clip-path="url(#p9f4d23d67f)" d="M 178.066286 298.944 
L 178.066286 41.472 
" style="fill:none;stroke:#b0b0b0;stroke-linecap:square;stroke-width:0.8;"/>
     </g>
     <g id="line2d_20">
      <g>
       <use style="stroke:#000000;stroke-width:0.6;" x="178.066286" xlink:href="#m25d2556c6b" y="298.944"/>
      </g>
     </g>
    </g>
    <g id="xtick_9">
     <g id="line2d_21">
      <path clip-path="url(#p9f4d23d67f)" d="M 218.221714 298.944 
L 218.221714 41.472 
" style="fill:none;stroke:#b0b0b0;stroke-linecap:square;stroke-width:0.8;"/>
     </g>
     <g id="line2d_22">
      <g>
       <use style="stroke:#000000;stroke-width:0.6;" x="218.221714" xlink:href="#m25d2556c6b" y="298.944"/>
      </g>
     </g>
    </g>
    <g id="xtick_10">
     <g id="line2d_23">
      <path clip-path="url(#p9f4d23d67f)" d="M 258.377143 298.944 
L 258.377143 41.472 
" style="fill:none;stroke:#b0b0b0;stroke-linecap:square;stroke-width:0.8;"/>
     </g>
     <g id="line2d_24">
      <g>
       <use style="stroke:#000000;stroke-width:0.6;" x="258.377143" xlink:href="#m25d2556c6b" y="298.944"/>
      </g>
     </g>
    </g>
    <g id="xtick_11">
     <g id="line2d_25">
      <path clip-path="url(#p9f4d23d67f)" d="M 298.532571 298.944 
L 298.532571 41.472 
" style="fill:none;stroke:#b0b0b0;stroke-linecap:square;stroke-width:0.8;"/>
     </g>
     <g id="line2d_26">
      <g>
       <use style="stroke:#000000;stroke-width:0.6;" x="298.532571" xlink:href="#m25d2556c6b" y="298.944"/>
      </g>
     </g>
    </g>
    <g id="xtick_12">
     <g id="line2d_27">
      <path clip-path="url(#p9f4d23d67f)" d="M 338.688 298.944 
L 338.688 41.472 
" style="fill:none;stroke:#b0b0b0;stroke-linecap:square;stroke-width:0.8;"/>
     </g>
     <g id="line2d_28">
      <g>
       <use style="stroke:#000000;stroke-width:0.6;" x="338.688" xlink:href="#m25d2556c6b" y="298.944"/>
      </g>
     </g>
    </g>
    <g id="text_5">
     <!-- log10(# f-evals / dimension) -->
     <defs>
      <path d="M 9.421875 75.984375 
L 18.40625 75.984375 
L 18.40625 0 
L 9.421875 0 
z
" id="DejaVuSans-108"/>
      <path d="M 30.609375 48.390625 
Q 23.390625 48.390625 19.1875 42.75 
Q 14.984375 37.109375 14.984375 27.296875 
Q 14.984375 17.484375 19.15625 11.84375 
Q 23.34375 6.203125 30.609375 6.203125 
Q 37.796875 6.203125 41.984375 11.859375 
Q 46.1875 17.53125 46.1875 27.296875 
Q 46.1875 37.015625 41.984375 42.703125 
Q 37.796875 48.390625 30.609375 48.390625 
z
M 30.609375 56 
Q 42.328125 56 49.015625 48.375 
Q 55.71875 40.765625 55.71875 27.296875 
Q 55.71875 13.875 49.015625 6.21875 
Q 42.328125 -1.421875 30.609375 -1.421875 
Q 18.84375 -1.421875 12.171875 6.21875 
Q 5.515625 13.875 5.515625 27.296875 
Q 5.515625 40.765625 12.171875 48.375 
Q 18.84375 56 30.609375 56 
z
" id="DejaVuSans-111"/>
      <path d="M 45.40625 27.984375 
Q 45.40625 37.75 41.375 43.109375 
Q 37.359375 48.484375 30.078125 48.484375 
Q 22.859375 48.484375 18.828125 43.109375 
Q 14.796875 37.75 14.796875 27.984375 
Q 14.796875 18.265625 18.828125 12.890625 
Q 22.859375 7.515625 30.078125 7.515625 
Q 37.359375 7.515625 41.375 12.890625 
Q 45.40625 18.265625 45.40625 27.984375 
z
M 54.390625 6.78125 
Q 54.390625 -7.171875 48.1875 -13.984375 
Q 42 -20.796875 29.203125 -20.796875 
Q 24.46875 -20.796875 20.265625 -20.09375 
Q 16.0625 -19.390625 12.109375 -17.921875 
L 12.109375 -9.1875 
Q 16.0625 -11.328125 19.921875 -12.34375 
Q 23.78125 -13.375 27.78125 -13.375 
Q 36.625 -13.375 41.015625 -8.765625 
Q 45.40625 -4.15625 45.40625 5.171875 
L 45.40625 9.625 
Q 42.625 4.78125 38.28125 2.390625 
Q 33.9375 0 27.875 0 
Q 17.828125 0 11.671875 7.65625 
Q 5.515625 15.328125 5.515625 27.984375 
Q 5.515625 40.671875 11.671875 48.328125 
Q 17.828125 56 27.875 56 
Q 33.9375 56 38.28125 53.609375 
Q 42.625 51.21875 45.40625 46.390625 
L 45.40625 54.6875 
L 54.390625 54.6875 
z
" id="DejaVuSans-103"/>
      <path d="M 12.40625 8.296875 
L 28.515625 8.296875 
L 28.515625 63.921875 
L 10.984375 60.40625 
L 10.984375 69.390625 
L 28.421875 72.90625 
L 38.28125 72.90625 
L 38.28125 8.296875 
L 54.390625 8.296875 
L 54.390625 0 
L 12.40625 0 
z
" id="DejaVuSans-49"/>
      <path d="M 31 75.875 
Q 24.46875 64.65625 21.28125 53.65625 
Q 18.109375 42.671875 18.109375 31.390625 
Q 18.109375 20.125 21.3125 9.0625 
Q 24.515625 -2 31 -13.1875 
L 23.1875 -13.1875 
Q 15.875 -1.703125 12.234375 9.375 
Q 8.59375 20.453125 8.59375 31.390625 
Q 8.59375 42.28125 12.203125 53.3125 
Q 15.828125 64.359375 23.1875 75.875 
z
" id="DejaVuSans-40"/>
      <path d="M 51.125 44 
L 36.921875 44 
L 32.8125 27.6875 
L 47.125 27.6875 
z
M 43.796875 71.78125 
L 38.71875 51.515625 
L 52.984375 51.515625 
L 58.109375 71.78125 
L 65.921875 71.78125 
L 60.890625 51.515625 
L 76.125 51.515625 
L 76.125 44 
L 58.984375 44 
L 54.984375 27.6875 
L 70.515625 27.6875 
L 70.515625 20.21875 
L 53.078125 20.21875 
L 48 0 
L 40.1875 0 
L 45.21875 20.21875 
L 30.90625 20.21875 
L 25.875 0 
L 18.015625 0 
L 23.09375 20.21875 
L 7.71875 20.21875 
L 7.71875 27.6875 
L 24.90625 27.6875 
L 29 44 
L 13.28125 44 
L 13.28125 51.515625 
L 30.90625 51.515625 
L 35.890625 71.78125 
z
" id="DejaVuSans-35"/>
      <path id="DejaVuSans-32"/>
      <path d="M 37.109375 75.984375 
L 37.109375 68.5 
L 28.515625 68.5 
Q 23.6875 68.5 21.796875 66.546875 
Q 19.921875 64.59375 19.921875 59.515625 
L 19.921875 54.6875 
L 34.71875 54.6875 
L 34.71875 47.703125 
L 19.921875 47.703125 
L 19.921875 0 
L 10.890625 0 
L 10.890625 47.703125 
L 2.296875 47.703125 
L 2.296875 54.6875 
L 10.890625 54.6875 
L 10.890625 58.5 
Q 10.890625 67.625 15.140625 71.796875 
Q 19.390625 75.984375 28.609375 75.984375 
z
" id="DejaVuSans-102"/>
      <path d="M 4.890625 31.390625 
L 31.203125 31.390625 
L 31.203125 23.390625 
L 4.890625 23.390625 
z
" id="DejaVuSans-45"/>
      <path d="M 56.203125 29.59375 
L 56.203125 25.203125 
L 14.890625 25.203125 
Q 15.484375 15.921875 20.484375 11.0625 
Q 25.484375 6.203125 34.421875 6.203125 
Q 39.59375 6.203125 44.453125 7.46875 
Q 49.3125 8.734375 54.109375 11.28125 
L 54.109375 2.78125 
Q 49.265625 0.734375 44.1875 -0.34375 
Q 39.109375 -1.421875 33.890625 -1.421875 
Q 20.796875 -1.421875 13.15625 6.1875 
Q 5.515625 13.8125 5.515625 26.8125 
Q 5.515625 40.234375 12.765625 48.109375 
Q 20.015625 56 32.328125 56 
Q 43.359375 56 49.78125 48.890625 
Q 56.203125 41.796875 56.203125 29.59375 
z
M 47.21875 32.234375 
Q 47.125 39.59375 43.09375 43.984375 
Q 39.0625 48.390625 32.421875 48.390625 
Q 24.90625 48.390625 20.390625 44.140625 
Q 15.875 39.890625 15.1875 32.171875 
z
" id="DejaVuSans-101"/>
      <path d="M 2.984375 54.6875 
L 12.5 54.6875 
L 29.59375 8.796875 
L 46.6875 54.6875 
L 56.203125 54.6875 
L 35.6875 0 
L 23.484375 0 
z
" id="DejaVuSans-118"/>
      <path d="M 34.28125 27.484375 
Q 23.390625 27.484375 19.1875 25 
Q 14.984375 22.515625 14.984375 16.5 
Q 14.984375 11.71875 18.140625 8.90625 
Q 21.296875 6.109375 26.703125 6.109375 
Q 34.1875 6.109375 38.703125 11.40625 
Q 43.21875 16.703125 43.21875 25.484375 
L 43.21875 27.484375 
z
M 52.203125 31.203125 
L 52.203125 0 
L 43.21875 0 
L 43.21875 8.296875 
Q 40.140625 3.328125 35.546875 0.953125 
Q 30.953125 -1.421875 24.3125 -1.421875 
Q 15.921875 -1.421875 10.953125 3.296875 
Q 6 8.015625 6 15.921875 
Q 6 25.140625 12.171875 29.828125 
Q 18.359375 34.515625 30.609375 34.515625 
L 43.21875 34.515625 
L 43.21875 35.40625 
Q 43.21875 41.609375 39.140625 45 
Q 35.0625 48.390625 27.6875 48.390625 
Q 23 48.390625 18.546875 47.265625 
Q 14.109375 46.140625 10.015625 43.890625 
L 10.015625 52.203125 
Q 14.9375 54.109375 19.578125 55.046875 
Q 24.21875 56 28.609375 56 
Q 40.484375 56 46.34375 49.84375 
Q 52.203125 43.703125 52.203125 31.203125 
z
" id="DejaVuSans-97"/>
      <path d="M 44.28125 53.078125 
L 44.28125 44.578125 
Q 40.484375 46.53125 36.375 47.5 
Q 32.28125 48.484375 27.875 48.484375 
Q 21.1875 48.484375 17.84375 46.4375 
Q 14.5 44.390625 14.5 40.28125 
Q 14.5 37.15625 16.890625 35.375 
Q 19.28125 33.59375 26.515625 31.984375 
L 29.59375 31.296875 
Q 39.15625 29.25 43.1875 25.515625 
Q 47.21875 21.78125 47.21875 15.09375 
Q 47.21875 7.46875 41.1875 3.015625 
Q 35.15625 -1.421875 24.609375 -1.421875 
Q 20.21875 -1.421875 15.453125 -0.5625 
Q 10.6875 0.296875 5.421875 2 
L 5.421875 11.28125 
Q 10.40625 8.6875 15.234375 7.390625 
Q 20.0625 6.109375 24.8125 6.109375 
Q 31.15625 6.109375 34.5625 8.28125 
Q 37.984375 10.453125 37.984375 14.40625 
Q 37.984375 18.0625 35.515625 20.015625 
Q 33.0625 21.96875 24.703125 23.78125 
L 21.578125 24.515625 
Q 13.234375 26.265625 9.515625 29.90625 
Q 5.8125 33.546875 5.8125 39.890625 
Q 5.8125 47.609375 11.28125 51.796875 
Q 16.75 56 26.8125 56 
Q 31.78125 56 36.171875 55.265625 
Q 40.578125 54.546875 44.28125 53.078125 
z
" id="DejaVuSans-115"/>
      <path d="M 25.390625 72.90625 
L 33.6875 72.90625 
L 8.296875 -9.28125 
L 0 -9.28125 
z
" id="DejaVuSans-47"/>
      <path d="M 45.40625 46.390625 
L 45.40625 75.984375 
L 54.390625 75.984375 
L 54.390625 0 
L 45.40625 0 
L 45.40625 8.203125 
Q 42.578125 3.328125 38.25 0.953125 
Q 33.9375 -1.421875 27.875 -1.421875 
Q 17.96875 -1.421875 11.734375 6.484375 
Q 5.515625 14.40625 5.515625 27.296875 
Q 5.515625 40.1875 11.734375 48.09375 
Q 17.96875 56 27.875 56 
Q 33.9375 56 38.25 53.625 
Q 42.578125 51.265625 45.40625 46.390625 
z
M 14.796875 27.296875 
Q 14.796875 17.390625 18.875 11.75 
Q 22.953125 6.109375 30.078125 6.109375 
Q 37.203125 6.109375 41.296875 11.75 
Q 45.40625 17.390625 45.40625 27.296875 
Q 45.40625 37.203125 41.296875 42.84375 
Q 37.203125 48.484375 30.078125 48.484375 
Q 22.953125 48.484375 18.875 42.84375 
Q 14.796875 37.203125 14.796875 27.296875 
z
" id="DejaVuSans-100"/>
      <path d="M 9.421875 54.6875 
L 18.40625 54.6875 
L 18.40625 0 
L 9.421875 0 
z
M 9.421875 75.984375 
L 18.40625 75.984375 
L 18.40625 64.59375 
L 9.421875 64.59375 
z
" id="DejaVuSans-105"/>
      <path d="M 52 44.1875 
Q 55.375 50.25 60.0625 53.125 
Q 64.75 56 71.09375 56 
Q 79.640625 56 84.28125 50.015625 
Q 88.921875 44.046875 88.921875 33.015625 
L 88.921875 0 
L 79.890625 0 
L 79.890625 32.71875 
Q 79.890625 40.578125 77.09375 44.375 
Q 74.3125 48.1875 68.609375 48.1875 
Q 61.625 48.1875 57.5625 43.546875 
Q 53.515625 38.921875 53.515625 30.90625 
L 53.515625 0 
L 44.484375 0 
L 44.484375 32.71875 
Q 44.484375 40.625 41.703125 44.40625 
Q 38.921875 48.1875 33.109375 48.1875 
Q 26.21875 48.1875 22.15625 43.53125 
Q 18.109375 38.875 18.109375 30.90625 
L 18.109375 0 
L 9.078125 0 
L 9.078125 54.6875 
L 18.109375 54.6875 
L 18.109375 46.1875 
Q 21.1875 51.21875 25.484375 53.609375 
Q 29.78125 56 35.6875 56 
Q 41.65625 56 45.828125 52.96875 
Q 50 49.953125 52 44.1875 
z
" id="DejaVuSans-109"/>
      <path d="M 54.890625 33.015625 
L 54.890625 0 
L 45.90625 0 
L 45.90625 32.71875 
Q 45.90625 40.484375 42.875 44.328125 
Q 39.84375 48.1875 33.796875 48.1875 
Q 26.515625 48.1875 22.3125 43.546875 
Q 18.109375 38.921875 18.109375 30.90625 
L 18.109375 0 
L 9.078125 0 
L 9.078125 54.6875 
L 18.109375 54.6875 
L 18.109375 46.1875 
Q 21.34375 51.125 25.703125 53.5625 
Q 30.078125 56 35.796875 56 
Q 45.21875 56 50.046875 50.171875 
Q 54.890625 44.34375 54.890625 33.015625 
z
" id="DejaVuSans-110"/>
      <path d="M 8.015625 75.875 
L 15.828125 75.875 
Q 23.140625 64.359375 26.78125 53.3125 
Q 30.421875 42.28125 30.421875 31.390625 
Q 30.421875 20.453125 26.78125 9.375 
Q 23.140625 -1.703125 15.828125 -13.1875 
L 8.015625 -13.1875 
Q 14.5 -2 17.703125 9.0625 
Q 20.90625 20.125 20.90625 31.390625 
Q 20.90625 42.671875 17.703125 53.65625 
Q 14.5 64.65625 8.015625 75.875 
z
" id="DejaVuSans-41"/>
     </defs>
     <g transform="translate(77.303219 342.217594)scale(0.17 -0.17)">
      <use xlink:href="#DejaVuSans-108"/>
      <use x="27.783203" xlink:href="#DejaVuSans-111"/>
      <use x="88.964844" xlink:href="#DejaVuSans-103"/>
      <use x="152.441406" xlink:href="#DejaVuSans-49"/>
      <use x="216.064453" xlink:href="#DejaVuSans-48"/>
      <use x="279.6875" xlink:href="#DejaVuSans-40"/>
      <use x="318.701172" xlink:href="#DejaVuSans-35"/>
      <use x="402.490234" xlink:href="#DejaVuSans-32"/>
      <use x="434.277344" xlink:href="#DejaVuSans-102"/>
      <use x="469.404297" xlink:href="#DejaVuSans-45"/>
      <use x="505.488281" xlink:href="#DejaVuSans-101"/>
      <use x="567.011719" xlink:href="#DejaVuSans-118"/>
      <use x="626.191406" xlink:href="#DejaVuSans-97"/>
      <use x="687.470703" xlink:href="#DejaVuSans-108"/>
      <use x="715.253906" xlink:href="#DejaVuSans-115"/>
      <use x="767.353516" xlink:href="#DejaVuSans-32"/>
      <use x="799.140625" xlink:href="#DejaVuSans-47"/>
      <use x="832.832031" xlink:href="#DejaVuSans-32"/>
      <use x="864.619141" xlink:href="#DejaVuSans-100"/>
      <use x="928.095703" xlink:href="#DejaVuSans-105"/>
      <use x="955.878906" xlink:href="#DejaVuSans-109"/>
      <use x="1053.291016" xlink:href="#DejaVuSans-101"/>
      <use x="1114.814453" xlink:href="#DejaVuSans-110"/>
      <use x="1178.193359" xlink:href="#DejaVuSans-115"/>
      <use x="1230.292969" xlink:href="#DejaVuSans-105"/>
      <use x="1258.076172" xlink:href="#DejaVuSans-111"/>
      <use x="1319.257812" xlink:href="#DejaVuSans-110"/>
      <use x="1382.636719" xlink:href="#DejaVuSans-41"/>
     </g>
    </g>
   </g>
   <g id="matplotlib.axis_2">
    <g id="ytick_1">
     <g id="line2d_29">
      <path clip-path="url(#p9f4d23d67f)" d="M 57.6 298.944 
L 338.688 298.944 
" style="fill:none;stroke:#b0b0b0;stroke-linecap:square;stroke-width:0.8;"/>
     </g>
     <g id="line2d_30">
      <defs>
       <path d="M 0 0 
L -3.5 0 
" id="m77210515c7" style="stroke:#000000;stroke-width:0.8;"/>
      </defs>
      <g>
       <use style="stroke:#000000;stroke-width:0.8;" x="57.6" xlink:href="#m77210515c7" y="298.944"/>
      </g>
     </g>
     <g id="text_6">
      <!-- 0.0 -->
      <defs>
       <path d="M 10.6875 12.40625 
L 21 12.40625 
L 21 0 
L 10.6875 0 
z
" id="DejaVuSans-46"/>
      </defs>
      <g transform="translate(25.155 305.02275)scale(0.16 -0.16)">
       <use xlink:href="#DejaVuSans-48"/>
       <use x="63.623047" xlink:href="#DejaVuSans-46"/>
       <use x="95.410156" xlink:href="#DejaVuSans-48"/>
      </g>
     </g>
    </g>
    <g id="ytick_2">
     <g id="line2d_31">
      <path clip-path="url(#p9f4d23d67f)" d="M 57.6 247.959446 
L 338.688 247.959446 
" style="fill:none;stroke:#b0b0b0;stroke-linecap:square;stroke-width:0.8;"/>
     </g>
     <g id="line2d_32">
      <g>
       <use style="stroke:#000000;stroke-width:0.8;" x="57.6" xlink:href="#m77210515c7" y="247.959446"/>
      </g>
     </g>
     <g id="text_7">
      <!-- 0.2 -->
      <g transform="translate(25.155 254.038196)scale(0.16 -0.16)">
       <use xlink:href="#DejaVuSans-48"/>
       <use x="63.623047" xlink:href="#DejaVuSans-46"/>
       <use x="95.410156" xlink:href="#DejaVuSans-50"/>
      </g>
     </g>
    </g>
    <g id="ytick_3">
     <g id="line2d_33">
      <path clip-path="url(#p9f4d23d67f)" d="M 57.6 196.974891 
L 338.688 196.974891 
" style="fill:none;stroke:#b0b0b0;stroke-linecap:square;stroke-width:0.8;"/>
     </g>
     <g id="line2d_34">
      <g>
       <use style="stroke:#000000;stroke-width:0.8;" x="57.6" xlink:href="#m77210515c7" y="196.974891"/>
      </g>
     </g>
     <g id="text_8">
      <!-- 0.4 -->
      <g transform="translate(25.155 203.053641)scale(0.16 -0.16)">
       <use xlink:href="#DejaVuSans-48"/>
       <use x="63.623047" xlink:href="#DejaVuSans-46"/>
       <use x="95.410156" xlink:href="#DejaVuSans-52"/>
      </g>
     </g>
    </g>
    <g id="ytick_4">
     <g id="line2d_35">
      <path clip-path="url(#p9f4d23d67f)" d="M 57.6 145.990337 
L 338.688 145.990337 
" style="fill:none;stroke:#b0b0b0;stroke-linecap:square;stroke-width:0.8;"/>
     </g>
     <g id="line2d_36">
      <g>
       <use style="stroke:#000000;stroke-width:0.8;" x="57.6" xlink:href="#m77210515c7" y="145.990337"/>
      </g>
     </g>
     <g id="text_9">
      <!-- 0.6 -->
      <g transform="translate(25.155 152.069087)scale(0.16 -0.16)">
       <use xlink:href="#DejaVuSans-48"/>
       <use x="63.623047" xlink:href="#DejaVuSans-46"/>
       <use x="95.410156" xlink:href="#DejaVuSans-54"/>
      </g>
     </g>
    </g>
    <g id="ytick_5">
     <g id="line2d_37">
      <path clip-path="url(#p9f4d23d67f)" d="M 57.6 95.005782 
L 338.688 95.005782 
" style="fill:none;stroke:#b0b0b0;stroke-linecap:square;stroke-width:0.8;"/>
     </g>
     <g id="line2d_38">
      <g>
       <use style="stroke:#000000;stroke-width:0.8;" x="57.6" xlink:href="#m77210515c7" y="95.005782"/>
      </g>
     </g>
     <g id="text_10">
      <!-- 0.8 -->
      <defs>
       <path d="M 31.78125 34.625 
Q 24.75 34.625 20.71875 30.859375 
Q 16.703125 27.09375 16.703125 20.515625 
Q 16.703125 13.921875 20.71875 10.15625 
Q 24.75 6.390625 31.78125 6.390625 
Q 38.8125 6.390625 42.859375 10.171875 
Q 46.921875 13.96875 46.921875 20.515625 
Q 46.921875 27.09375 42.890625 30.859375 
Q 38.875 34.625 31.78125 34.625 
z
M 21.921875 38.8125 
Q 15.578125 40.375 12.03125 44.71875 
Q 8.5 49.078125 8.5 55.328125 
Q 8.5 64.0625 14.71875 69.140625 
Q 20.953125 74.21875 31.78125 74.21875 
Q 42.671875 74.21875 48.875 69.140625 
Q 55.078125 64.0625 55.078125 55.328125 
Q 55.078125 49.078125 51.53125 44.71875 
Q 48 40.375 41.703125 38.8125 
Q 48.828125 37.15625 52.796875 32.3125 
Q 56.78125 27.484375 56.78125 20.515625 
Q 56.78125 9.90625 50.3125 4.234375 
Q 43.84375 -1.421875 31.78125 -1.421875 
Q 19.734375 -1.421875 13.25 4.234375 
Q 6.78125 9.90625 6.78125 20.515625 
Q 6.78125 27.484375 10.78125 32.3125 
Q 14.796875 37.15625 21.921875 38.8125 
z
M 18.3125 54.390625 
Q 18.3125 48.734375 21.84375 45.5625 
Q 25.390625 42.390625 31.78125 42.390625 
Q 38.140625 42.390625 41.71875 45.5625 
Q 45.3125 48.734375 45.3125 54.390625 
Q 45.3125 60.0625 41.71875 63.234375 
Q 38.140625 66.40625 31.78125 66.40625 
Q 25.390625 66.40625 21.84375 63.234375 
Q 18.3125 60.0625 18.3125 54.390625 
z
" id="DejaVuSans-56"/>
      </defs>
      <g transform="translate(25.155 101.084532)scale(0.16 -0.16)">
       <use xlink:href="#DejaVuSans-48"/>
       <use x="63.623047" xlink:href="#DejaVuSans-46"/>
       <use x="95.410156" xlink:href="#DejaVuSans-56"/>
      </g>
     </g>
    </g>
    <g id="ytick_6">
     <g id="line2d_39">
      <path clip-path="url(#p9f4d23d67f)" d="M 57.6 44.021228 
L 338.688 44.021228 
" style="fill:none;stroke:#b0b0b0;stroke-linecap:square;stroke-width:0.8;"/>
     </g>
     <g id="line2d_40">
      <g>
       <use style="stroke:#000000;stroke-width:0.8;" x="57.6" xlink:href="#m77210515c7" y="44.021228"/>
      </g>
     </g>
     <g id="text_11">
      <!-- 1.0 -->
      <g transform="translate(25.155 50.099978)scale(0.16 -0.16)">
       <use xlink:href="#DejaVuSans-49"/>
       <use x="63.623047" xlink:href="#DejaVuSans-46"/>
       <use x="95.410156" xlink:href="#DejaVuSans-48"/>
      </g>
     </g>
    </g>
    <g id="text_12">
     <!-- Fraction of function,target pairs -->
     <defs>
      <path d="M 9.8125 72.90625 
L 51.703125 72.90625 
L 51.703125 64.59375 
L 19.671875 64.59375 
L 19.671875 43.109375 
L 48.578125 43.109375 
L 48.578125 34.8125 
L 19.671875 34.8125 
L 19.671875 0 
L 9.8125 0 
z
" id="DejaVuSans-70"/>
      <path d="M 41.109375 46.296875 
Q 39.59375 47.171875 37.8125 47.578125 
Q 36.03125 48 33.890625 48 
Q 26.265625 48 22.1875 43.046875 
Q 18.109375 38.09375 18.109375 28.8125 
L 18.109375 0 
L 9.078125 0 
L 9.078125 54.6875 
L 18.109375 54.6875 
L 18.109375 46.1875 
Q 20.953125 51.171875 25.484375 53.578125 
Q 30.03125 56 36.53125 56 
Q 37.453125 56 38.578125 55.875 
Q 39.703125 55.765625 41.0625 55.515625 
z
" id="DejaVuSans-114"/>
      <path d="M 48.78125 52.59375 
L 48.78125 44.1875 
Q 44.96875 46.296875 41.140625 47.34375 
Q 37.3125 48.390625 33.40625 48.390625 
Q 24.65625 48.390625 19.8125 42.84375 
Q 14.984375 37.3125 14.984375 27.296875 
Q 14.984375 17.28125 19.8125 11.734375 
Q 24.65625 6.203125 33.40625 6.203125 
Q 37.3125 6.203125 41.140625 7.25 
Q 44.96875 8.296875 48.78125 10.40625 
L 48.78125 2.09375 
Q 45.015625 0.34375 40.984375 -0.53125 
Q 36.96875 -1.421875 32.421875 -1.421875 
Q 20.0625 -1.421875 12.78125 6.34375 
Q 5.515625 14.109375 5.515625 27.296875 
Q 5.515625 40.671875 12.859375 48.328125 
Q 20.21875 56 33.015625 56 
Q 37.15625 56 41.109375 55.140625 
Q 45.0625 54.296875 48.78125 52.59375 
z
" id="DejaVuSans-99"/>
      <path d="M 18.3125 70.21875 
L 18.3125 54.6875 
L 36.8125 54.6875 
L 36.8125 47.703125 
L 18.3125 47.703125 
L 18.3125 18.015625 
Q 18.3125 11.328125 20.140625 9.421875 
Q 21.96875 7.515625 27.59375 7.515625 
L 36.8125 7.515625 
L 36.8125 0 
L 27.59375 0 
Q 17.1875 0 13.234375 3.875 
Q 9.28125 7.765625 9.28125 18.015625 
L 9.28125 47.703125 
L 2.6875 47.703125 
L 2.6875 54.6875 
L 9.28125 54.6875 
L 9.28125 70.21875 
z
" id="DejaVuSans-116"/>
      <path d="M 8.5 21.578125 
L 8.5 54.6875 
L 17.484375 54.6875 
L 17.484375 21.921875 
Q 17.484375 14.15625 20.5 10.265625 
Q 23.53125 6.390625 29.59375 6.390625 
Q 36.859375 6.390625 41.078125 11.03125 
Q 45.3125 15.671875 45.3125 23.6875 
L 45.3125 54.6875 
L 54.296875 54.6875 
L 54.296875 0 
L 45.3125 0 
L 45.3125 8.40625 
Q 42.046875 3.421875 37.71875 1 
Q 33.40625 -1.421875 27.6875 -1.421875 
Q 18.265625 -1.421875 13.375 4.4375 
Q 8.5 10.296875 8.5 21.578125 
z
M 31.109375 56 
z
" id="DejaVuSans-117"/>
      <path d="M 11.71875 12.40625 
L 22.015625 12.40625 
L 22.015625 4 
L 14.015625 -11.625 
L 7.71875 -11.625 
L 11.71875 4 
z
" id="DejaVuSans-44"/>
      <path d="M 18.109375 8.203125 
L 18.109375 -20.796875 
L 9.078125 -20.796875 
L 9.078125 54.6875 
L 18.109375 54.6875 
L 18.109375 46.390625 
Q 20.953125 51.265625 25.265625 53.625 
Q 29.59375 56 35.59375 56 
Q 45.5625 56 51.78125 48.09375 
Q 58.015625 40.1875 58.015625 27.296875 
Q 58.015625 14.40625 51.78125 6.484375 
Q 45.5625 -1.421875 35.59375 -1.421875 
Q 29.59375 -1.421875 25.265625 0.953125 
Q 20.953125 3.328125 18.109375 8.203125 
z
M 48.6875 27.296875 
Q 48.6875 37.203125 44.609375 42.84375 
Q 40.53125 48.484375 33.40625 48.484375 
Q 26.265625 48.484375 22.1875 42.84375 
Q 18.109375 37.203125 18.109375 27.296875 
Q 18.109375 17.390625 22.1875 11.75 
Q 26.265625 6.109375 33.40625 6.109375 
Q 40.53125 6.109375 44.609375 11.75 
Q 48.6875 17.390625 48.6875 27.296875 
z
" id="DejaVuSans-112"/>
     </defs>
     <g transform="translate(17.619531 305.347375)rotate(-90)scale(0.17 -0.17)">
      <use xlink:href="#DejaVuSans-70"/>
      <use x="57.410156" xlink:href="#DejaVuSans-114"/>
      <use x="98.523438" xlink:href="#DejaVuSans-97"/>
      <use x="159.802734" xlink:href="#DejaVuSans-99"/>
      <use x="214.783203" xlink:href="#DejaVuSans-116"/>
      <use x="253.992188" xlink:href="#DejaVuSans-105"/>
      <use x="281.775391" xlink:href="#DejaVuSans-111"/>
      <use x="342.957031" xlink:href="#DejaVuSans-110"/>
      <use x="406.335938" xlink:href="#DejaVuSans-32"/>
      <use x="438.123047" xlink:href="#DejaVuSans-111"/>
      <use x="499.304688" xlink:href="#DejaVuSans-102"/>
      <use x="534.509766" xlink:href="#DejaVuSans-32"/>
      <use x="566.296875" xlink:href="#DejaVuSans-102"/>
      <use x="601.501953" xlink:href="#DejaVuSans-117"/>
      <use x="664.880859" xlink:href="#DejaVuSans-110"/>
      <use x="728.259766" xlink:href="#DejaVuSans-99"/>
      <use x="783.240234" xlink:href="#DejaVuSans-116"/>
      <use x="822.449219" xlink:href="#DejaVuSans-105"/>
      <use x="850.232422" xlink:href="#DejaVuSans-111"/>
      <use x="911.414062" xlink:href="#DejaVuSans-110"/>
      <use x="974.792969" xlink:href="#DejaVuSans-44"/>
      <use x="1006.580078" xlink:href="#DejaVuSans-116"/>
      <use x="1045.789062" xlink:href="#DejaVuSans-97"/>
      <use x="1107.068359" xlink:href="#DejaVuSans-114"/>
      <use x="1148.166016" xlink:href="#DejaVuSans-103"/>
      <use x="1211.642578" xlink:href="#DejaVuSans-101"/>
      <use x="1273.166016" xlink:href="#DejaVuSans-116"/>
      <use x="1312.375" xlink:href="#DejaVuSans-32"/>
      <use x="1344.162109" xlink:href="#DejaVuSans-112"/>
      <use x="1407.638672" xlink:href="#DejaVuSans-97"/>
      <use x="1468.917969" xlink:href="#DejaVuSans-105"/>
      <use x="1496.701172" xlink:href="#DejaVuSans-114"/>
      <use x="1537.814453" xlink:href="#DejaVuSans-115"/>
     </g>
    </g>
   </g>
   <g id="line2d_41">
    <defs>
     <path d="M 0 1.5 
C 0.397805 1.5 0.77937 1.341951 1.06066 1.06066 
C 1.341951 0.77937 1.5 0.397805 1.5 0 
C 1.5 -0.397805 1.341951 -0.77937 1.06066 -1.06066 
C 0.77937 -1.341951 0.397805 -1.5 0 -1.5 
C -0.397805 -1.5 -0.77937 -1.341951 -1.06066 -1.06066 
C -1.341951 -0.77937 -1.5 -0.397805 -1.5 0 
C -1.5 0.397805 -1.341951 0.77937 -1.06066 1.06066 
C -0.77937 1.341951 -0.397805 1.5 0 1.5 
z
" id="m4c246acf6d" style="stroke:#f5deb3;"/>
    </defs>
    <g>
     <use style="fill:#f5deb3;stroke:#f5deb3;" x="297.670526" xlink:href="#m4c246acf6d" y="142.913682"/>
     <use style="fill:#f5deb3;stroke:#f5deb3;" x="297.670526" xlink:href="#m4c246acf6d" y="142.913682"/>
    </g>
   </g>
   <g id="line2d_42">
    <defs>
     <path d="M 0 1.5 
C 0.397805 1.5 0.77937 1.341951 1.06066 1.06066 
C 1.341951 0.77937 1.5 0.397805 1.5 0 
C 1.5 -0.397805 1.341951 -0.77937 1.06066 -1.06066 
C 0.77937 -1.341951 0.397805 -1.5 0 -1.5 
C -0.397805 -1.5 -0.77937 -1.341951 -1.06066 -1.06066 
C -1.341951 -0.77937 -1.5 -0.397805 -1.5 0 
C -1.5 0.397805 -1.341951 0.77937 -1.06066 1.06066 
C -0.77937 1.341951 -0.397805 1.5 0 1.5 
z
" id="ma800a907ba" style="stroke:#00bfbf;"/>
    </defs>
    <g>
     <use style="fill:#00bfbf;stroke:#00bfbf;" x="258.305937" xlink:href="#ma800a907ba" y="185.107797"/>
     <use style="fill:#00bfbf;stroke:#00bfbf;" x="258.305937" xlink:href="#ma800a907ba" y="185.107797"/>
    </g>
   </g>
   <g id="line2d_43">
    <path d="M -1 287.955949 
L 55.762588 287.846069 
L 55.762588 287.736188 
L 86.012784 287.626308 
L 86.012784 287.516427 
L 93.699701 287.406547 
L 93.699701 287.296666 
L 97.972068 287.186786 
L 97.972068 287.076905 
L 107.614095 286.967025 
L 107.638849 286.637383 
L 110.210119 286.527503 
L 110.210119 286.417622 
L 112.469299 286.307742 
L 112.469299 286.197861 
L 114.063118 286.087981 
L 114.063118 285.9781 
L 115.491886 285.86822 
L 115.539126 285.648459 
L 116.972471 285.538578 
L 116.972471 285.428698 
L 117.259781 285.318817 
L 117.259781 285.208937 
L 117.528409 285.099056 
L 117.598418 284.879295 
L 118.417314 284.769415 
L 118.443959 284.439773 
L 118.994305 284.329893 
L 118.994305 284.220012 
L 119.237678 284.110132 
L 119.237678 284.000251 
L 119.739201 283.890371 
L 119.78857 283.560729 
L 120.979427 283.450849 
L 121.08272 283.231088 
L 122.104932 283.121207 
L 122.104932 283.011327 
L 123.00916 282.901446 
L 123.111324 282.571805 
L 124.004823 282.461924 
L 124.043491 282.132283 
L 124.604105 282.022402 
L 124.604105 281.912522 
L 125.001625 281.802641 
L 125.092787 281.473 
L 125.849008 281.363119 
L 125.944518 280.813717 
L 126.598834 280.703836 
L 126.690335 280.484075 
L 126.740043 280.374195 
L 126.847261 280.044553 
L 126.855481 280.044553 
L 126.855481 279.824792 
L 127.508774 279.714912 
L 127.508774 279.605031 
L 128.290519 279.495151 
L 128.366047 279.165509 
L 128.545989 279.055629 
L 128.545989 278.945748 
L 129.045969 278.835868 
L 129.089405 278.616107 
L 129.397565 278.506226 
L 129.397565 278.396346 
L 129.616397 278.286465 
L 129.616397 278.176584 
L 129.867126 278.066704 
L 129.970542 277.846943 
L 130.491965 277.737062 
L 130.565197 277.407421 
L 131.140242 277.29754 
L 131.249178 276.967899 
L 131.357438 276.858018 
L 131.357438 276.748138 
L 131.950349 276.638257 
L 131.950349 276.528377 
L 132.338714 276.418496 
L 132.392641 276.198735 
L 132.488101 276.088855 
L 132.488101 275.978974 
L 132.905511 275.869094 
L 132.963507 275.209811 
L 133.205004 275.209811 
L 133.205004 274.99005 
L 133.505054 274.880169 
L 133.589045 274.220886 
L 133.816578 274.111006 
L 133.816578 274.001125 
L 134.138879 273.891245 
L 134.138879 273.781364 
L 134.412758 273.671484 
L 134.412758 273.451723 
L 134.650895 273.341842 
L 134.671906 272.90232 
L 135.143196 272.79244 
L 135.173827 272.462798 
L 135.641855 272.352918 
L 135.64682 272.133157 
L 136.198943 272.023276 
L 136.198943 271.913396 
L 136.607732 271.803515 
L 136.701442 271.363993 
L 137.071324 271.254113 
L 137.075898 270.814591 
L 137.491677 270.70471 
L 137.545185 270.155308 
L 137.919575 270.045427 
L 138.010846 269.386144 
L 138.349983 269.276264 
L 138.430574 269.056503 
L 138.774175 268.946622 
L 138.836303 268.5071 
L 139.656033 268.39722 
L 139.750449 267.847817 
L 139.976531 267.737936 
L 139.976531 267.518175 
L 140.107712 267.408295 
L 140.107712 267.298414 
L 140.782525 267.188534 
L 140.823154 266.639131 
L 141.10131 266.529251 
L 141.141205 266.199609 
L 141.46423 266.089729 
L 141.496206 265.540326 
L 142.161336 265.430446 
L 142.195471 265.100804 
L 142.519806 265.100804 
L 142.529845 264.771163 
L 142.834933 264.661282 
L 142.900555 264.22176 
L 142.992015 264.11188 
L 142.992015 264.001999 
L 143.241082 263.892119 
L 143.241082 263.782238 
L 143.784918 263.782238 
L 143.840863 263.342716 
L 144.157586 263.232836 
L 144.18499 262.903194 
L 144.82128 262.793314 
L 144.82128 262.683433 
L 145.135248 262.573553 
L 145.135248 262.463672 
L 145.46912 262.353792 
L 145.579005 262.02415 
L 146.150926 261.91427 
L 146.224161 261.474748 
L 146.337473 261.364867 
L 146.337473 261.254987 
L 146.783502 261.145106 
L 146.867181 260.925345 
L 147.061745 260.815465 
L 147.061745 260.705584 
L 147.277111 260.595704 
L 147.277111 260.485823 
L 147.421752 260.375943 
L 147.502431 260.046301 
L 147.804169 259.936421 
L 147.804169 259.71666 
L 148.120209 259.71666 
L 148.120209 259.496899 
L 148.399591 259.387018 
L 148.442544 259.057377 
L 148.76371 258.947496 
L 148.76371 258.837616 
L 149.483383 258.727735 
L 149.521512 258.398094 
L 149.876341 258.288213 
L 149.876341 258.178333 
L 150.016276 258.178333 
L 150.03804 257.62893 
L 150.267081 257.51905 
L 150.303536 256.969647 
L 150.51433 256.859766 
L 150.51433 256.749886 
L 150.657656 256.640005 
L 150.714239 256.310364 
L 150.797731 256.310364 
L 150.845558 255.870842 
L 150.992377 255.870842 
L 150.992377 255.651081 
L 151.278307 255.5412 
L 151.278307 255.43132 
L 151.463683 255.321439 
L 151.463683 255.211559 
L 151.577554 255.211559 
L 151.577554 254.991798 
L 151.992725 254.991798 
L 152.089675 254.552276 
L 152.245598 254.552276 
L 152.247515 254.112754 
L 152.386839 254.002873 
L 152.386839 253.783112 
L 152.811246 253.673232 
L 152.811246 253.563351 
L 153.094638 253.453471 
L 153.103763 253.123829 
L 153.263574 253.123829 
L 153.263574 252.904068 
L 153.375295 252.904068 
L 153.455937 252.464546 
L 154.155109 252.354666 
L 154.254449 252.025024 
L 154.302205 252.025024 
L 154.302205 251.805263 
L 154.575967 251.695383 
L 154.575967 251.585502 
L 154.707925 251.585502 
L 154.729544 251.14598 
L 155.359555 251.0361 
L 155.407579 250.706458 
L 155.471407 250.706458 
L 155.471407 250.486697 
L 155.88691 250.376817 
L 155.97843 250.047175 
L 156.040206 250.047175 
L 156.040206 249.827414 
L 156.698256 249.717534 
L 156.794487 249.058251 
L 156.840196 249.058251 
L 156.840196 248.83849 
L 156.994131 248.83849 
L 156.994131 248.618729 
L 157.358125 248.618729 
L 157.358125 248.398968 
L 157.533067 248.398968 
L 157.643103 247.849565 
L 157.781772 247.739685 
L 157.823576 247.519924 
L 158.600719 247.410043 
L 158.680405 247.080402 
L 159.330666 246.970521 
L 159.394378 246.311238 
L 159.503422 246.311238 
L 159.503422 246.091477 
L 159.876081 245.981596 
L 159.971091 245.761835 
L 160.46367 245.651955 
L 160.46367 245.432194 
L 160.838824 245.322313 
L 160.838824 245.212433 
L 160.961329 245.212433 
L 160.961329 244.882791 
L 161.077205 244.882791 
L 161.077205 244.55315 
L 161.306672 244.443269 
L 161.306672 244.333389 
L 161.7856 244.223508 
L 161.7856 244.003747 
L 162.087924 244.003747 
L 162.087924 243.783986 
L 162.48659 243.674106 
L 162.517456 243.344464 
L 162.703612 243.344464 
L 162.703612 243.124703 
L 162.83254 243.014823 
L 162.9377 242.685181 
L 163.039133 242.685181 
L 163.039133 242.46542 
L 163.527603 242.35554 
L 163.527603 242.135779 
L 163.640635 242.135779 
L 163.750957 241.696257 
L 163.841869 241.696257 
L 163.940152 241.036974 
L 164.056391 240.927093 
L 164.056391 240.817213 
L 164.298097 240.707332 
L 164.298097 240.597452 
L 164.552592 240.487571 
L 164.552592 240.377691 
L 164.807158 240.26781 
L 164.807158 240.048049 
L 165.534984 239.938169 
L 165.625977 239.388766 
L 165.79686 239.388766 
L 165.890882 239.059125 
L 166.151824 238.949244 
L 166.151824 238.839364 
L 166.654731 238.839364 
L 166.684064 238.509722 
L 166.829993 238.399842 
L 166.829993 238.180081 
L 167.560192 238.0702 
L 167.640438 237.850439 
L 167.887585 237.850439 
L 167.954668 237.520798 
L 168.188984 237.410917 
L 168.224283 237.191156 
L 168.46864 237.081276 
L 168.562877 236.861515 
L 168.731973 236.751634 
L 168.785502 236.531873 
L 169.126581 236.421992 
L 169.157854 236.092351 
L 169.543757 236.092351 
L 169.543757 235.87259 
L 170.192521 235.762709 
L 170.192521 235.652829 
L 170.41637 235.652829 
L 170.41637 235.433068 
L 170.590593 235.433068 
L 170.687376 234.993546 
L 170.817353 234.993546 
L 170.817353 234.773785 
L 171.147844 234.773785 
L 171.147844 234.554024 
L 171.340609 234.444143 
L 171.340609 234.334263 
L 171.658273 234.334263 
L 171.658273 234.114502 
L 172.154187 234.004621 
L 172.219541 233.345338 
L 172.573775 233.345338 
L 172.573775 233.125577 
L 173.107351 233.015697 
L 173.107351 232.795936 
L 173.279731 232.795936 
L 173.343293 232.356414 
L 173.394661 232.356414 
L 173.394661 232.136653 
L 173.557463 232.136653 
L 173.562544 231.697131 
L 173.72659 231.697131 
L 173.733857 231.367489 
L 173.890768 231.367489 
L 173.953802 230.927967 
L 174.337554 230.927967 
L 174.433395 230.488445 
L 174.498781 230.488445 
L 174.498781 230.268684 
L 175.078031 230.268684 
L 175.180705 229.829162 
L 175.385274 229.829162 
L 175.410677 229.38964 
L 175.687696 229.38964 
L 175.737594 228.950118 
L 175.983982 228.950118 
L 175.983982 228.510596 
L 176.277249 228.510596 
L 176.323082 227.631552 
L 176.414387 227.631552 
L 176.46942 227.19203 
L 176.704336 227.19203 
L 176.715645 226.752508 
L 177.719747 226.642628 
L 177.719747 226.422867 
L 178.064542 226.312986 
L 178.066286 225.873464 
L 178.355117 225.763583 
L 178.355117 225.543822 
L 178.79172 225.543822 
L 178.897209 225.214181 
L 179.16493 225.214181 
L 179.16493 224.99442 
L 179.36842 224.99442 
L 179.36842 224.774659 
L 179.846927 224.664778 
L 179.923131 224.225256 
L 179.964628 224.225256 
L 179.975182 223.785734 
L 180.119562 223.675854 
L 180.119562 223.456093 
L 180.298851 223.456093 
L 180.298851 223.236332 
L 180.541504 223.126451 
L 180.579292 222.79681 
L 180.654624 222.79681 
L 180.654624 222.577049 
L 180.878686 222.577049 
L 180.883138 222.137527 
L 181.07681 222.137527 
L 181.07681 221.917766 
L 181.282137 221.807885 
L 181.314013 221.368363 
L 181.591186 221.258483 
L 181.676464 220.818961 
L 181.887852 220.70908 
L 181.887852 220.489319 
L 182.439337 220.379439 
L 182.507063 220.049797 
L 182.6048 220.049797 
L 182.669543 219.610275 
L 183.005805 219.500395 
L 183.051726 218.950992 
L 183.491956 218.841112 
L 183.491956 218.731231 
L 183.68319 218.731231 
L 183.775513 218.291709 
L 183.90295 218.181829 
L 184.002497 217.852187 
L 184.067517 217.742307 
L 184.136298 217.302785 
L 184.224114 217.192904 
L 184.273356 216.973143 
L 184.486149 216.863263 
L 184.531047 216.533621 
L 184.836219 216.423741 
L 184.933239 215.984219 
L 185.282031 215.874338 
L 185.282031 215.654577 
L 185.596261 215.544696 
L 185.596261 215.324935 
L 186.180872 215.215055 
L 186.289222 214.995294 
L 186.640183 214.885413 
L 186.666828 214.665652 
L 187.033563 214.555772 
L 187.087706 214.22613 
L 187.447822 214.11625 
L 187.447822 214.006369 
L 187.61328 213.896489 
L 187.639488 213.676728 
L 187.997629 213.566847 
L 187.999109 213.237206 
L 188.194114 213.237206 
L 188.279765 212.907564 
L 188.457263 212.797684 
L 188.457263 212.687803 
L 189.213803 212.577923 
L 189.213803 212.358162 
L 189.801731 212.248281 
L 189.801731 212.02852 
L 190.297126 211.91864 
L 190.38856 211.369237 
L 190.588723 211.259357 
L 190.588723 211.149476 
L 191.2267 211.039596 
L 191.272148 210.819835 
L 191.666548 210.709954 
L 191.666548 210.490193 
L 192.082894 210.380313 
L 192.082894 210.160552 
L 192.389525 210.160552 
L 192.389525 209.940791 
L 192.568291 209.940791 
L 192.596739 209.281508 
L 193.044975 209.171627 
L 193.067678 208.841986 
L 193.245138 208.841986 
L 193.328926 208.512344 
L 193.663139 208.512344 
L 193.760198 208.182703 
L 194.288194 208.072822 
L 194.391081 207.6333 
L 194.40817 207.6333 
L 194.40817 207.413539 
L 194.644325 207.413539 
L 194.738268 206.864137 
L 195.001256 206.754256 
L 195.001256 206.644376 
L 195.498625 206.534495 
L 195.583298 206.094973 
L 195.956432 206.094973 
L 195.956432 205.875212 
L 196.185457 205.875212 
L 196.185457 205.655451 
L 196.437076 205.655451 
L 196.437076 205.43569 
L 197.230089 205.325809 
L 197.230089 205.215929 
L 197.378233 205.106048 
L 197.378233 204.886287 
L 197.513553 204.886287 
L 197.556384 204.446765 
L 197.665838 204.446765 
L 197.665838 204.227004 
L 198.241599 204.117124 
L 198.322847 203.677602 
L 198.704823 203.567721 
L 198.704823 203.457841 
L 198.821252 203.457841 
L 198.821252 203.23808 
L 199.110598 203.23808 
L 199.110598 203.018319 
L 199.686888 202.908438 
L 199.686888 202.798558 
L 200.539004 202.688677 
L 200.539004 202.578797 
L 201.010169 202.468916 
L 201.035183 202.249155 
L 201.244063 202.249155 
L 201.278769 201.809633 
L 201.393692 201.809633 
L 201.393692 201.589872 
L 202.480419 201.479992 
L 202.536775 201.04047 
L 202.831665 200.930589 
L 202.831665 200.820709 
L 202.999452 200.820709 
L 202.999452 200.600948 
L 204.440559 200.491067 
L 204.440559 200.271306 
L 204.594005 200.271306 
L 204.594005 200.051545 
L 205.303431 199.941665 
L 205.311751 199.502143 
L 205.674395 199.502143 
L 205.704896 199.172501 
L 206.105102 199.062621 
L 206.105102 198.95274 
L 206.272252 198.95274 
L 206.272252 198.732979 
L 206.803028 198.623099 
L 206.909691 198.403338 
L 207.715939 198.293457 
L 207.732336 198.073696 
L 208.080643 198.073696 
L 208.094441 197.634174 
L 208.295798 197.634174 
L 208.295798 197.414413 
L 209.612759 197.304533 
L 209.612759 197.084772 
L 210.24486 197.084772 
L 210.24486 196.865011 
L 210.397047 196.75513 
L 210.397047 196.64525 
L 210.520412 196.64525 
L 210.520412 196.425489 
L 211.964212 196.315608 
L 212.038765 196.095847 
L 212.721436 196.095847 
L 212.721436 195.876086 
L 213.105642 195.876086 
L 213.133448 195.546445 
L 213.363993 195.546445 
L 213.363993 195.326684 
L 214.4207 195.216803 
L 214.4207 195.106922 
L 215.111949 194.997042 
L 215.111949 194.887161 
L 215.36615 194.887161 
L 215.421116 194.55752 
L 216.135479 194.55752 
L 216.135479 194.337759 
L 217.039661 194.227878 
L 217.138013 194.008117 
L 217.716757 193.898237 
L 217.716757 193.788356 
L 218.260343 193.678476 
L 218.35016 193.458715 
L 219.336317 193.348834 
L 219.389771 193.019193 
L 220.571647 192.909312 
L 220.571647 192.799432 
L 221.540627 192.689551 
L 221.540627 192.579671 
L 222.015138 192.46979 
L 222.015138 192.35991 
L 222.540498 192.35991 
L 222.540498 192.140149 
L 223.801806 192.030268 
L 223.806997 191.700627 
L 224.133092 191.700627 
L 224.178386 191.261105 
L 226.459065 191.151224 
L 226.459065 190.931463 
L 226.7823 190.821583 
L 226.7823 190.711702 
L 227.305399 190.711702 
L 227.305399 190.491941 
L 229.390959 190.491941 
L 229.390959 190.27218 
L 229.95627 190.1623 
L 229.95627 190.052419 
L 230.395033 189.942539 
L 230.395033 189.722778 
L 231.112294 189.612897 
L 231.112294 189.503017 
L 231.98379 189.393136 
L 231.98379 189.283256 
L 232.502252 189.173375 
L 232.566131 188.953614 
L 233.596688 188.843734 
L 233.596688 188.733853 
L 235.375558 188.623973 
L 235.375558 188.514092 
L 236.912348 188.404212 
L 236.912348 188.294331 
L 237.953496 188.184451 
L 237.953496 188.07457 
L 238.694627 187.96469 
L 238.694627 187.854809 
L 239.330304 187.854809 
L 239.330304 187.635048 
L 239.539097 187.635048 
L 239.633849 187.305407 
L 244.006084 187.195526 
L 244.006084 187.085646 
L 244.234144 187.085646 
L 244.277715 186.756004 
L 246.207005 186.646124 
L 246.207005 186.536243 
L 247.142602 186.426363 
L 247.142602 186.316482 
L 253.240749 186.206602 
L 253.263415 185.986841 
L 254.700769 185.87696 
L 254.700769 185.657199 
L 256.705832 185.547319 
L 256.705832 185.437438 
L 258.092991 185.327558 
L 258.092991 185.217677 
L 338.688 185.107797 
L 338.688 185.107797 
" style="fill:none;stroke:#00bfbf;stroke-linecap:square;stroke-width:1.5;"/>
   </g>
   <g id="line2d_44">
    <defs>
     <path d="M 0 -6 
L -5.706339 -1.854102 
L -3.526712 4.854102 
L 3.526712 4.854102 
L 5.706339 -1.854102 
z
" id="md296002eef" style="stroke:#00bfbf;stroke-linejoin:miter;stroke-width:1.5;"/>
    </defs>
    <g>
     <use style="fill-opacity:0;stroke:#00bfbf;stroke-linejoin:miter;stroke-width:1.5;" x="86.012784" xlink:href="#md296002eef" y="287.626308"/>
     <use style="fill-opacity:0;stroke:#00bfbf;stroke-linejoin:miter;stroke-width:1.5;" x="146.94267" xlink:href="#md296002eef" y="260.925345"/>
     <use style="fill-opacity:0;stroke:#00bfbf;stroke-linejoin:miter;stroke-width:1.5;" x="195.956432" xlink:href="#md296002eef" y="205.875212"/>
     <use style="fill-opacity:0;stroke:#00bfbf;stroke-linejoin:miter;stroke-width:1.5;" x="258.305937" xlink:href="#md296002eef" y="185.107797"/>
     <use style="fill-opacity:0;stroke:#00bfbf;stroke-linejoin:miter;stroke-width:1.5;" x="258.305937" xlink:href="#md296002eef" y="185.107797"/>
     <use style="fill-opacity:0;stroke:#00bfbf;stroke-linejoin:miter;stroke-width:1.5;" x="338.688" xlink:href="#md296002eef" y="185.107797"/>
    </g>
   </g>
   <g id="line2d_45">
    <path style="fill:none;stroke:#00bfbf;stroke-linecap:square;stroke-width:1.5;"/>
    <g/>
   </g>
   <g id="line2d_46">
    <path clip-path="url(#p9f4d23d67f)" d="M 258.377147 185.107797 
" style="fill:none;stroke:#00bfbf;stroke-linecap:square;stroke-width:1.5;"/>
    <defs>
     <path d="M -12 12 
L 12 -12 
M -12 -12 
L 12 12 
" id="me71e85ab56" style="stroke:#00bfbf;"/>
    </defs>
    <g clip-path="url(#p9f4d23d67f)">
     <use style="fill:#00bfbf;stroke:#00bfbf;" x="258.377147" xlink:href="#me71e85ab56" y="185.107797"/>
    </g>
   </g>
   <g id="line2d_47">
    <defs>
     <path d="M 0 1.5 
C 0.397805 1.5 0.77937 1.341951 1.06066 1.06066 
C 1.341951 0.77937 1.5 0.397805 1.5 0 
C 1.5 -0.397805 1.341951 -0.77937 1.06066 -1.06066 
C 0.77937 -1.341951 0.397805 -1.5 0 -1.5 
C -0.397805 -1.5 -0.77937 -1.341951 -1.06066 -1.06066 
C -1.341951 -0.77937 -1.5 -0.397805 -1.5 0 
C -1.5 0.397805 -1.341951 0.77937 -1.06066 1.06066 
C -0.77937 1.341951 -0.397805 1.5 0 1.5 
z
" id="m10dcd83245" style="stroke:#000080;"/>
    </defs>
    <g>
     <use style="fill:#000080;stroke:#000080;" x="217.856754" xlink:href="#m10dcd83245" y="263.562477"/>
     <use style="fill:#000080;stroke:#000080;" x="217.856754" xlink:href="#m10dcd83245" y="263.562477"/>
    </g>
   </g>
   <g id="line2d_48">
    <path d="M -1 287.955949 
L 75.86449 287.846069 
L 75.86449 287.736188 
L 104.355088 287.626308 
L 104.355088 287.516427 
L 107.364602 287.406547 
L 107.364602 287.296666 
L 108.764355 287.186786 
L 108.764355 287.076905 
L 112.412953 286.967025 
L 112.412953 286.857144 
L 113.185706 286.747264 
L 113.185706 286.637383 
L 117.68206 286.527503 
L 117.68206 286.417622 
L 120.406061 286.307742 
L 120.512796 286.087981 
L 124.387699 285.9781 
L 124.387699 285.86822 
L 127.713389 285.758339 
L 127.713389 285.648459 
L 129.00969 285.538578 
L 129.00969 285.428698 
L 130.216266 285.318817 
L 130.216266 285.208937 
L 136.678061 285.099056 
L 136.678061 284.989176 
L 137.766386 284.879295 
L 137.766386 284.769415 
L 139.159906 284.659534 
L 139.159906 284.549654 
L 140.826843 284.439773 
L 140.826843 284.329893 
L 143.170282 284.220012 
L 143.170282 284.110132 
L 144.635487 284.000251 
L 144.635487 283.890371 
L 146.278211 283.78049 
L 146.278211 283.67061 
L 146.814928 283.560729 
L 146.814928 283.450849 
L 147.76209 283.340968 
L 147.76209 283.231088 
L 150.256345 283.121207 
L 150.256345 283.011327 
L 150.928425 282.901446 
L 150.928425 282.791566 
L 152.257093 282.681685 
L 152.297265 282.352044 
L 152.762943 282.242163 
L 152.762943 282.132283 
L 153.477379 282.022402 
L 153.477379 281.912522 
L 154.286869 281.802641 
L 154.286869 281.692761 
L 154.564226 281.58288 
L 154.564226 281.473 
L 157.507575 281.363119 
L 157.517493 281.143358 
L 157.638884 281.143358 
L 157.638884 280.923597 
L 158.578075 280.813717 
L 158.578075 280.703836 
L 159.244925 280.593956 
L 159.244925 280.484075 
L 159.904515 280.374195 
L 159.904515 280.264314 
L 160.472042 280.154434 
L 160.542446 279.824792 
L 160.600702 279.824792 
L 160.600702 279.605031 
L 160.967141 279.495151 
L 160.967141 279.38527 
L 161.837642 279.27539 
L 161.837642 279.165509 
L 162.318538 279.055629 
L 162.318538 278.945748 
L 163.671516 278.835868 
L 163.671516 278.725987 
L 163.940152 278.616107 
L 163.99788 278.286465 
L 164.78943 278.176584 
L 164.78943 278.066704 
L 165.613515 277.956823 
L 165.706757 277.737062 
L 166.421674 277.627182 
L 166.421674 277.517301 
L 166.888852 277.407421 
L 166.888852 277.29754 
L 168.148995 277.18766 
L 168.187448 276.858018 
L 168.817393 276.748138 
L 168.817393 276.638257 
L 170.163736 276.528377 
L 170.163736 276.418496 
L 171.343815 276.308616 
L 171.440343 276.088855 
L 171.91761 275.978974 
L 171.91761 275.869094 
L 172.190253 275.759213 
L 172.190253 275.649333 
L 172.922129 275.539452 
L 172.922129 275.429572 
L 173.473132 275.319691 
L 173.528078 274.99005 
L 174.763171 274.880169 
L 174.763171 274.770289 
L 175.292492 274.660408 
L 175.374084 274.440647 
L 176.309104 274.330767 
L 176.309104 274.220886 
L 177.19149 274.111006 
L 177.193324 273.891245 
L 177.721526 273.781364 
L 177.731751 273.561603 
L 178.5326 273.451723 
L 178.5326 273.341842 
L 180.590613 273.231962 
L 180.60871 273.012201 
L 181.9574 272.90232 
L 181.9574 272.79244 
L 182.736049 272.682559 
L 182.736049 272.572679 
L 183.380124 272.462798 
L 183.380124 272.352918 
L 184.415405 272.243037 
L 184.415405 272.133157 
L 186.152102 272.023276 
L 186.224621 271.803515 
L 187.46716 271.693635 
L 187.46716 271.583754 
L 188.94883 271.473874 
L 188.94883 271.254113 
L 189.924973 271.144232 
L 189.924973 271.034352 
L 191.010952 271.034352 
L 191.076412 270.70471 
L 191.526468 270.59483 
L 191.632335 270.265188 
L 193.366499 270.155308 
L 193.366499 269.935547 
L 193.813829 269.935547 
L 193.813829 269.715786 
L 195.841017 269.605905 
L 195.841017 269.496025 
L 196.342704 269.386144 
L 196.342704 269.276264 
L 197.859878 269.166383 
L 197.859878 268.946622 
L 198.281997 268.946622 
L 198.281997 268.726861 
L 200.240831 268.616981 
L 200.276614 268.287339 
L 200.879252 268.287339 
L 200.879252 268.067578 
L 201.365519 267.957698 
L 201.365519 267.847817 
L 202.279173 267.737936 
L 202.279173 267.628056 
L 203.443763 267.518175 
L 203.443763 267.408295 
L 204.033137 267.408295 
L 204.033137 267.188534 
L 204.907854 267.078653 
L 204.907854 266.968773 
L 205.383629 266.968773 
L 205.383629 266.749012 
L 206.825502 266.639131 
L 206.825502 266.529251 
L 207.480715 266.41937 
L 207.480715 266.30949 
L 208.762608 266.199609 
L 208.762608 265.979848 
L 209.763955 265.869968 
L 209.763955 265.760087 
L 210.236661 265.760087 
L 210.236661 265.540326 
L 211.89899 265.430446 
L 211.89899 265.210685 
L 212.01146 265.210685 
L 212.01146 264.990924 
L 214.279604 264.881043 
L 214.279604 264.771163 
L 215.315338 264.661282 
L 215.315338 264.551402 
L 215.78747 264.441521 
L 215.840326 264.001999 
L 215.978564 264.001999 
L 215.978564 263.782238 
L 217.856754 263.672358 
L 217.856754 263.562477 
L 338.688 263.562477 
L 338.688 263.562477 
" style="fill:none;stroke:#000080;stroke-linecap:square;stroke-width:1.5;"/>
   </g>
   <g id="line2d_49">
    <defs>
     <path d="M -0 6 
L 6 -6 
L -6 -6 
z
" id="m49c56bdf64" style="stroke:#000080;stroke-linejoin:miter;stroke-width:1.5;"/>
    </defs>
    <g>
     <use style="fill-opacity:0;stroke:#000080;stroke-linejoin:miter;stroke-width:1.5;" x="92.504372" xlink:href="#m49c56bdf64" y="287.736188"/>
     <use style="fill-opacity:0;stroke:#000080;stroke-linejoin:miter;stroke-width:1.5;" x="167.326093" xlink:href="#m49c56bdf64" y="277.18766"/>
     <use style="fill-opacity:0;stroke:#000080;stroke-linejoin:miter;stroke-width:1.5;" x="217.856754" xlink:href="#m49c56bdf64" y="263.672358"/>
     <use style="fill-opacity:0;stroke:#000080;stroke-linejoin:miter;stroke-width:1.5;" x="217.856754" xlink:href="#m49c56bdf64" y="263.562477"/>
     <use style="fill-opacity:0;stroke:#000080;stroke-linejoin:miter;stroke-width:1.5;" x="217.856754" xlink:href="#m49c56bdf64" y="263.562477"/>
     <use style="fill-opacity:0;stroke:#000080;stroke-linejoin:miter;stroke-width:1.5;" x="338.688" xlink:href="#m49c56bdf64" y="263.562477"/>
    </g>
   </g>
   <g id="line2d_50">
    <path style="fill:none;stroke:#000080;stroke-linecap:square;stroke-width:1.5;"/>
    <g/>
   </g>
   <g id="line2d_51">
    <path clip-path="url(#p9f4d23d67f)" d="M 218.226117 263.562477 
" style="fill:none;stroke:#000080;stroke-linecap:square;stroke-width:1.5;"/>
    <defs>
     <path d="M -12 12 
L 12 -12 
M -12 -12 
L 12 12 
" id="meedaa58094" style="stroke:#000080;"/>
    </defs>
    <g clip-path="url(#p9f4d23d67f)">
     <use style="fill:#000080;stroke:#000080;" x="218.226117" xlink:href="#meedaa58094" y="263.562477"/>
    </g>
   </g>
   <g id="line2d_52">
    <defs>
     <path d="M 0 1.5 
C 0.397805 1.5 0.77937 1.341951 1.06066 1.06066 
C 1.341951 0.77937 1.5 0.397805 1.5 0 
C 1.5 -0.397805 1.341951 -0.77937 1.06066 -1.06066 
C 0.77937 -1.341951 0.397805 -1.5 0 -1.5 
C -0.397805 -1.5 -0.77937 -1.341951 -1.06066 -1.06066 
C -1.341951 -0.77937 -1.5 -0.397805 -1.5 0 
C -1.5 0.397805 -1.341951 0.77937 -1.06066 1.06066 
C -0.77937 1.341951 -0.397805 1.5 0 1.5 
z
" id="mb253d1840e" style="stroke:#6495ed;"/>
    </defs>
    <g>
     <use style="fill:#6495ed;stroke:#6495ed;" x="177.39747" xlink:href="#mb253d1840e" y="251.365741"/>
     <use style="fill:#6495ed;stroke:#6495ed;" x="177.39747" xlink:href="#mb253d1840e" y="251.365741"/>
    </g>
   </g>
   <g id="line2d_53">
    <path d="M -1 287.955949 
L 61.139142 287.846069 
L 61.139142 287.736188 
L 108.318072 287.626308 
L 108.318072 287.516427 
L 110.548346 287.406547 
L 110.61104 287.186786 
L 111.366282 287.076905 
L 111.366282 286.967025 
L 117.528409 286.857144 
L 117.528409 286.747264 
L 118.270033 286.637383 
L 118.270033 286.527503 
L 119.224953 286.417622 
L 119.224953 286.307742 
L 119.726838 286.197861 
L 119.78857 285.9781 
L 119.948058 285.9781 
L 119.948058 285.758339 
L 121.634606 285.648459 
L 121.634606 285.538578 
L 122.126502 285.428698 
L 122.126502 285.318817 
L 123.303801 285.208937 
L 123.354102 284.989176 
L 123.741547 284.879295 
L 123.741547 284.769415 
L 124.283243 284.659534 
L 124.330801 284.439773 
L 124.444412 284.329893 
L 124.444412 284.220012 
L 124.836322 284.110132 
L 124.92835 283.890371 
L 125.13819 283.78049 
L 125.13819 283.67061 
L 125.506102 283.560729 
L 125.506102 283.450849 
L 125.97912 283.340968 
L 126.065325 283.121207 
L 126.582145 283.011327 
L 126.582145 282.901446 
L 126.880118 282.791566 
L 126.880118 282.681685 
L 127.44533 282.571805 
L 127.500856 282.352044 
L 127.611382 282.242163 
L 127.721211 281.912522 
L 128.298087 281.802641 
L 128.298087 281.692761 
L 129.082173 281.58288 
L 129.082173 281.473 
L 129.644435 281.363119 
L 129.672427 281.143358 
L 129.915463 281.033478 
L 129.915463 280.923597 
L 130.802739 280.813717 
L 130.802739 280.703836 
L 131.043554 280.593956 
L 131.127382 280.264314 
L 131.420807 280.154434 
L 131.515432 279.934673 
L 131.895035 279.824792 
L 131.895035 279.714912 
L 132.218276 279.605031 
L 132.296655 279.27539 
L 132.794785 279.165509 
L 132.905511 278.835868 
L 133.216421 278.725987 
L 133.216421 278.616107 
L 133.57787 278.506226 
L 133.57787 278.396346 
L 134.12805 278.286465 
L 134.12805 278.176584 
L 134.311226 278.066704 
L 134.311226 277.956823 
L 134.571876 277.846943 
L 134.614064 277.627182 
L 134.708614 277.627182 
L 134.802655 277.18766 
L 135.376671 277.077779 
L 135.376671 276.967899 
L 135.775414 276.858018 
L 135.809875 276.418496 
L 136.39027 276.308616 
L 136.39027 276.198735 
L 136.673382 276.088855 
L 136.743447 275.649333 
L 137.429042 275.539452 
L 137.429042 275.319691 
L 137.656136 275.209811 
L 137.76199 274.770289 
L 137.770782 274.770289 
L 137.823442 274.220886 
L 138.054141 274.111006 
L 138.054141 274.001125 
L 138.239095 273.891245 
L 138.239095 273.781364 
L 138.611599 273.671484 
L 138.674307 273.451723 
L 138.819757 273.341842 
L 138.819757 273.122081 
L 139.244927 273.012201 
L 139.277207 272.572679 
L 139.561104 272.462798 
L 139.667863 271.803515 
L 140.069232 271.693635 
L 140.12308 271.473874 
L 140.302652 271.363993 
L 140.370937 271.144232 
L 140.823154 271.034352 
L 140.826843 270.70471 
L 141.08678 270.59483 
L 141.08678 270.375069 
L 141.35364 270.265188 
L 141.35364 270.155308 
L 141.826718 270.045427 
L 141.826718 269.825666 
L 142.072273 269.715786 
L 142.123711 269.276264 
L 142.499711 269.276264 
L 142.51311 268.836742 
L 142.894004 268.726861 
L 142.933275 268.39722 
L 143.208936 268.39722 
L 143.228231 267.957698 
L 143.67562 267.847817 
L 143.778691 267.298414 
L 143.961465 267.188534 
L 144.035269 266.858892 
L 144.324384 266.749012 
L 144.324384 266.639131 
L 144.733054 266.529251 
L 144.791921 266.30949 
L 144.868152 266.199609 
L 144.868152 266.089729 
L 145.267277 265.979848 
L 145.267277 265.869968 
L 145.474772 265.760087 
L 145.576196 265.430446 
L 145.609873 265.320565 
L 145.704941 265.100804 
L 145.846578 264.990924 
L 145.885258 264.771163 
L 146.305173 264.661282 
L 146.340162 264.441521 
L 146.60169 264.331641 
L 146.60169 264.22176 
L 146.736255 264.22176 
L 146.77039 263.782238 
L 147.338159 263.672358 
L 147.434383 263.452597 
L 148.005725 263.342716 
L 148.049659 263.122955 
L 148.332562 263.013075 
L 148.332562 262.903194 
L 148.824442 262.793314 
L 148.829105 262.573553 
L 149.481138 262.463672 
L 149.528232 262.134031 
L 149.741913 262.134031 
L 149.741913 261.91427 
L 149.915812 261.804389 
L 149.915812 261.694509 
L 150.359143 261.584628 
L 150.435846 261.254987 
L 150.640855 261.145106 
L 150.642956 260.815465 
L 151.033512 260.815465 
L 151.033512 260.595704 
L 151.505722 260.485823 
L 151.505722 260.375943 
L 152.624728 260.266062 
L 152.667804 259.936421 
L 153.202002 259.82654 
L 153.27261 259.606779 
L 153.95819 259.496899 
L 153.979023 259.277138 
L 154.417641 259.277138 
L 154.439623 258.947496 
L 155.237298 258.837616 
L 155.319433 258.617855 
L 155.636274 258.507974 
L 155.636274 258.398094 
L 155.94746 258.398094 
L 156.034038 257.848691 
L 156.143193 257.848691 
L 156.143193 257.62893 
L 156.398785 257.62893 
L 156.398785 257.409169 
L 156.598505 257.409169 
L 156.598505 257.189408 
L 157.442259 257.189408 
L 157.442259 256.969647 
L 158.290482 256.859766 
L 158.348652 256.420244 
L 158.480503 256.420244 
L 158.560739 255.980722 
L 158.691003 255.980722 
L 158.691003 255.760961 
L 158.974724 255.651081 
L 158.974724 255.43132 
L 160.15105 255.321439 
L 160.15105 255.211559 
L 161.765627 255.101678 
L 161.850905 254.662156 
L 161.973109 254.662156 
L 162.012559 254.332515 
L 163.647613 254.222634 
L 163.647613 254.002873 
L 164.065151 254.002873 
L 164.099175 253.563351 
L 165.548395 253.453471 
L 165.548395 253.23371 
L 165.879486 253.23371 
L 165.879486 253.013949 
L 170.573182 252.904068 
L 170.573182 252.794188 
L 173.041759 252.684307 
L 173.041759 252.464546 
L 174.152464 252.354666 
L 174.152464 252.134905 
L 174.832583 252.134905 
L 174.832583 251.915144 
L 175.353722 251.915144 
L 175.353722 251.695383 
L 177.088964 251.695383 
L 177.088964 251.475622 
L 338.688 251.365741 
L 338.688 251.365741 
" style="fill:none;stroke:#6495ed;stroke-linecap:square;stroke-width:1.5;"/>
   </g>
   <g id="line2d_54">
    <defs>
     <path d="M 0 -6 
L -6 6 
L 6 6 
z
" id="mec7ac4c249" style="stroke:#6495ed;stroke-linejoin:miter;stroke-width:1.5;"/>
    </defs>
    <g>
     <use style="fill-opacity:0;stroke:#6495ed;stroke-linejoin:miter;stroke-width:1.5;" x="71.74204" xlink:href="#mec7ac4c249" y="287.626308"/>
     <use style="fill-opacity:0;stroke:#6495ed;stroke-linejoin:miter;stroke-width:1.5;" x="159.163917" xlink:href="#mec7ac4c249" y="255.43132"/>
     <use style="fill-opacity:0;stroke:#6495ed;stroke-linejoin:miter;stroke-width:1.5;" x="177.39747" xlink:href="#mec7ac4c249" y="251.475622"/>
     <use style="fill-opacity:0;stroke:#6495ed;stroke-linejoin:miter;stroke-width:1.5;" x="177.39747" xlink:href="#mec7ac4c249" y="251.365741"/>
     <use style="fill-opacity:0;stroke:#6495ed;stroke-linejoin:miter;stroke-width:1.5;" x="177.39747" xlink:href="#mec7ac4c249" y="251.365741"/>
     <use style="fill-opacity:0;stroke:#6495ed;stroke-linejoin:miter;stroke-width:1.5;" x="338.688" xlink:href="#mec7ac4c249" y="251.365741"/>
    </g>
   </g>
   <g id="line2d_55">
    <path style="fill:none;stroke:#6495ed;stroke-linecap:square;stroke-width:1.5;"/>
    <g/>
   </g>
   <g id="line2d_56">
    <path clip-path="url(#p9f4d23d67f)" d="M 178.066722 251.365741 
" style="fill:none;stroke:#6495ed;stroke-linecap:square;stroke-width:1.5;"/>
    <defs>
     <path d="M -12 12 
L 12 -12 
M -12 -12 
L 12 12 
" id="ma58ced3291" style="stroke:#6495ed;"/>
    </defs>
    <g clip-path="url(#p9f4d23d67f)">
     <use style="fill:#6495ed;stroke:#6495ed;" x="178.066722" xlink:href="#ma58ced3291" y="251.365741"/>
    </g>
   </g>
   <g id="line2d_57">
    <path d="M 338.688 263.562477 
L 369.60768 293.845545 
" style="fill:none;stroke:#000080;stroke-linecap:square;stroke-width:1.5;"/>
    <g>
     <use style="fill-opacity:0;stroke:#000080;stroke-linejoin:miter;stroke-width:1.5;" x="338.688" xlink:href="#m49c56bdf64" y="263.562477"/>
     <use style="fill-opacity:0;stroke:#000080;stroke-linejoin:miter;stroke-width:1.5;" x="369.60768" xlink:href="#m49c56bdf64" y="293.845545"/>
    </g>
   </g>
   <g id="line2d_58">
    <path d="M 338.688 251.365741 
L 369.60768 212.270257 
" style="fill:none;stroke:#6495ed;stroke-linecap:square;stroke-width:1.5;"/>
    <g>
     <use style="fill-opacity:0;stroke:#6495ed;stroke-linejoin:miter;stroke-width:1.5;" x="338.688" xlink:href="#mec7ac4c249" y="251.365741"/>
     <use style="fill-opacity:0;stroke:#6495ed;stroke-linejoin:miter;stroke-width:1.5;" x="369.60768" xlink:href="#mec7ac4c249" y="212.270257"/>
    </g>
   </g>
   <g id="line2d_59">
    <path d="M 338.688 185.107797 
L 369.60768 130.69497 
" style="fill:none;stroke:#00bfbf;stroke-linecap:square;stroke-width:1.5;"/>
    <g>
     <use style="fill-opacity:0;stroke:#00bfbf;stroke-linejoin:miter;stroke-width:1.5;" x="338.688" xlink:href="#md296002eef" y="185.107797"/>
     <use style="fill-opacity:0;stroke:#00bfbf;stroke-linejoin:miter;stroke-width:1.5;" x="369.60768" xlink:href="#md296002eef" y="130.69497"/>
    </g>
   </g>
   <g id="line2d_60">
    <path d="M 338.688 298.944 
L 338.688 44.021228 
" style="fill:none;stroke:#000000;stroke-linecap:square;stroke-width:1.5;"/>
   </g>
   <g id="patch_3">
    <path d="M 57.6 298.944 
L 57.6 41.472 
" style="fill:none;stroke:#000000;stroke-linecap:square;stroke-linejoin:miter;stroke-width:0.8;"/>
   </g>
   <g id="patch_4">
    <path d="M 338.688 298.944 
L 338.688 41.472 
" style="fill:none;stroke:#000000;stroke-linecap:square;stroke-linejoin:miter;stroke-width:0.8;"/>
   </g>
   <g id="patch_5">
    <path d="M 57.6 298.944 
L 338.688 298.944 
" style="fill:none;stroke:#000000;stroke-linecap:square;stroke-linejoin:miter;stroke-width:0.8;"/>
   </g>
   <g id="patch_6">
    <path d="M 57.6 41.472 
L 338.688 41.472 
" style="fill:none;stroke:#000000;stroke-linecap:square;stroke-linejoin:miter;stroke-width:0.8;"/>
   </g>
   <g id="text_13">
    <!-- MOEAD-pla -->
    <defs>
     <path d="M 9.8125 72.90625 
L 24.515625 72.90625 
L 43.109375 23.296875 
L 61.8125 72.90625 
L 76.515625 72.90625 
L 76.515625 0 
L 66.890625 0 
L 66.890625 64.015625 
L 48.09375 14.015625 
L 38.1875 14.015625 
L 19.390625 64.015625 
L 19.390625 0 
L 9.8125 0 
z
" id="DejaVuSans-77"/>
     <path d="M 39.40625 66.21875 
Q 28.65625 66.21875 22.328125 58.203125 
Q 16.015625 50.203125 16.015625 36.375 
Q 16.015625 22.609375 22.328125 14.59375 
Q 28.65625 6.59375 39.40625 6.59375 
Q 50.140625 6.59375 56.421875 14.59375 
Q 62.703125 22.609375 62.703125 36.375 
Q 62.703125 50.203125 56.421875 58.203125 
Q 50.140625 66.21875 39.40625 66.21875 
z
M 39.40625 74.21875 
Q 54.734375 74.21875 63.90625 63.9375 
Q 73.09375 53.65625 73.09375 36.375 
Q 73.09375 19.140625 63.90625 8.859375 
Q 54.734375 -1.421875 39.40625 -1.421875 
Q 24.03125 -1.421875 14.8125 8.828125 
Q 5.609375 19.09375 5.609375 36.375 
Q 5.609375 53.65625 14.8125 63.9375 
Q 24.03125 74.21875 39.40625 74.21875 
z
" id="DejaVuSans-79"/>
     <path d="M 9.8125 72.90625 
L 55.90625 72.90625 
L 55.90625 64.59375 
L 19.671875 64.59375 
L 19.671875 43.015625 
L 54.390625 43.015625 
L 54.390625 34.71875 
L 19.671875 34.71875 
L 19.671875 8.296875 
L 56.78125 8.296875 
L 56.78125 0 
L 9.8125 0 
z
" id="DejaVuSans-69"/>
     <path d="M 34.1875 63.1875 
L 20.796875 26.90625 
L 47.609375 26.90625 
z
M 28.609375 72.90625 
L 39.796875 72.90625 
L 67.578125 0 
L 57.328125 0 
L 50.6875 18.703125 
L 17.828125 18.703125 
L 11.1875 0 
L 0.78125 0 
z
" id="DejaVuSans-65"/>
     <path d="M 19.671875 64.796875 
L 19.671875 8.109375 
L 31.59375 8.109375 
Q 46.6875 8.109375 53.6875 14.9375 
Q 60.6875 21.78125 60.6875 36.53125 
Q 60.6875 51.171875 53.6875 57.984375 
Q 46.6875 64.796875 31.59375 64.796875 
z
M 9.8125 72.90625 
L 30.078125 72.90625 
Q 51.265625 72.90625 61.171875 64.09375 
Q 71.09375 55.28125 71.09375 36.53125 
Q 71.09375 17.671875 61.125 8.828125 
Q 51.171875 0 30.078125 0 
L 9.8125 0 
z
" id="DejaVuSans-68"/>
    </defs>
    <g transform="translate(375.22944 298.536482)scale(0.17 -0.17)">
     <use xlink:href="#DejaVuSans-77"/>
     <use x="86.279297" xlink:href="#DejaVuSans-79"/>
     <use x="164.990234" xlink:href="#DejaVuSans-69"/>
     <use x="228.173828" xlink:href="#DejaVuSans-65"/>
     <use x="296.582031" xlink:href="#DejaVuSans-68"/>
     <use x="373.583984" xlink:href="#DejaVuSans-45"/>
     <use x="409.667969" xlink:href="#DejaVuSans-112"/>
     <use x="473.144531" xlink:href="#DejaVuSans-108"/>
     <use x="500.927734" xlink:href="#DejaVuSans-97"/>
    </g>
   </g>
   <g id="text_14">
    <!-- SPEA2-pla -->
    <defs>
     <path d="M 53.515625 70.515625 
L 53.515625 60.890625 
Q 47.90625 63.578125 42.921875 64.890625 
Q 37.9375 66.21875 33.296875 66.21875 
Q 25.25 66.21875 20.875 63.09375 
Q 16.5 59.96875 16.5 54.203125 
Q 16.5 49.359375 19.40625 46.890625 
Q 22.3125 44.4375 30.421875 42.921875 
L 36.375 41.703125 
Q 47.40625 39.59375 52.65625 34.296875 
Q 57.90625 29 57.90625 20.125 
Q 57.90625 9.515625 50.796875 4.046875 
Q 43.703125 -1.421875 29.984375 -1.421875 
Q 24.8125 -1.421875 18.96875 -0.25 
Q 13.140625 0.921875 6.890625 3.21875 
L 6.890625 13.375 
Q 12.890625 10.015625 18.65625 8.296875 
Q 24.421875 6.59375 29.984375 6.59375 
Q 38.421875 6.59375 43.015625 9.90625 
Q 47.609375 13.234375 47.609375 19.390625 
Q 47.609375 24.75 44.3125 27.78125 
Q 41.015625 30.8125 33.5 32.328125 
L 27.484375 33.5 
Q 16.453125 35.6875 11.515625 40.375 
Q 6.59375 45.0625 6.59375 53.421875 
Q 6.59375 63.09375 13.40625 68.65625 
Q 20.21875 74.21875 32.171875 74.21875 
Q 37.3125 74.21875 42.625 73.28125 
Q 47.953125 72.359375 53.515625 70.515625 
z
" id="DejaVuSans-83"/>
     <path d="M 19.671875 64.796875 
L 19.671875 37.40625 
L 32.078125 37.40625 
Q 38.96875 37.40625 42.71875 40.96875 
Q 46.484375 44.53125 46.484375 51.125 
Q 46.484375 57.671875 42.71875 61.234375 
Q 38.96875 64.796875 32.078125 64.796875 
z
M 9.8125 72.90625 
L 32.078125 72.90625 
Q 44.34375 72.90625 50.609375 67.359375 
Q 56.890625 61.8125 56.890625 51.125 
Q 56.890625 40.328125 50.609375 34.8125 
Q 44.34375 29.296875 32.078125 29.296875 
L 19.671875 29.296875 
L 19.671875 0 
L 9.8125 0 
z
" id="DejaVuSans-80"/>
    </defs>
    <g transform="translate(375.22944 216.961195)scale(0.17 -0.17)">
     <use xlink:href="#DejaVuSans-83"/>
     <use x="63.476562" xlink:href="#DejaVuSans-80"/>
     <use x="123.779297" xlink:href="#DejaVuSans-69"/>
     <use x="186.962891" xlink:href="#DejaVuSans-65"/>
     <use x="255.371094" xlink:href="#DejaVuSans-50"/>
     <use x="318.994141" xlink:href="#DejaVuSans-45"/>
     <use x="355.078125" xlink:href="#DejaVuSans-112"/>
     <use x="418.554688" xlink:href="#DejaVuSans-108"/>
     <use x="446.337891" xlink:href="#DejaVuSans-97"/>
    </g>
   </g>
   <g id="text_15">
    <!-- GDE3-plat -->
    <defs>
     <path d="M 59.515625 10.40625 
L 59.515625 29.984375 
L 43.40625 29.984375 
L 43.40625 38.09375 
L 69.28125 38.09375 
L 69.28125 6.78125 
Q 63.578125 2.734375 56.6875 0.65625 
Q 49.8125 -1.421875 42 -1.421875 
Q 24.90625 -1.421875 15.25 8.5625 
Q 5.609375 18.5625 5.609375 36.375 
Q 5.609375 54.25 15.25 64.234375 
Q 24.90625 74.21875 42 74.21875 
Q 49.125 74.21875 55.546875 72.453125 
Q 61.96875 70.703125 67.390625 67.28125 
L 67.390625 56.78125 
Q 61.921875 61.421875 55.765625 63.765625 
Q 49.609375 66.109375 42.828125 66.109375 
Q 29.4375 66.109375 22.71875 58.640625 
Q 16.015625 51.171875 16.015625 36.375 
Q 16.015625 21.625 22.71875 14.15625 
Q 29.4375 6.6875 42.828125 6.6875 
Q 48.046875 6.6875 52.140625 7.59375 
Q 56.25 8.5 59.515625 10.40625 
z
" id="DejaVuSans-71"/>
     <path d="M 40.578125 39.3125 
Q 47.65625 37.796875 51.625 33 
Q 55.609375 28.21875 55.609375 21.1875 
Q 55.609375 10.40625 48.1875 4.484375 
Q 40.765625 -1.421875 27.09375 -1.421875 
Q 22.515625 -1.421875 17.65625 -0.515625 
Q 12.796875 0.390625 7.625 2.203125 
L 7.625 11.71875 
Q 11.71875 9.328125 16.59375 8.109375 
Q 21.484375 6.890625 26.8125 6.890625 
Q 36.078125 6.890625 40.9375 10.546875 
Q 45.796875 14.203125 45.796875 21.1875 
Q 45.796875 27.640625 41.28125 31.265625 
Q 36.765625 34.90625 28.71875 34.90625 
L 20.21875 34.90625 
L 20.21875 43.015625 
L 29.109375 43.015625 
Q 36.375 43.015625 40.234375 45.921875 
Q 44.09375 48.828125 44.09375 54.296875 
Q 44.09375 59.90625 40.109375 62.90625 
Q 36.140625 65.921875 28.71875 65.921875 
Q 24.65625 65.921875 20.015625 65.03125 
Q 15.375 64.15625 9.8125 62.3125 
L 9.8125 71.09375 
Q 15.4375 72.65625 20.34375 73.4375 
Q 25.25 74.21875 29.59375 74.21875 
Q 40.828125 74.21875 47.359375 69.109375 
Q 53.90625 64.015625 53.90625 55.328125 
Q 53.90625 49.265625 50.4375 45.09375 
Q 46.96875 40.921875 40.578125 39.3125 
z
" id="DejaVuSans-51"/>
    </defs>
    <g transform="translate(375.22944 135.385908)scale(0.17 -0.17)">
     <use xlink:href="#DejaVuSans-71"/>
     <use x="77.490234" xlink:href="#DejaVuSans-68"/>
     <use x="154.492188" xlink:href="#DejaVuSans-69"/>
     <use x="217.675781" xlink:href="#DejaVuSans-51"/>
     <use x="281.298828" xlink:href="#DejaVuSans-45"/>
     <use x="317.382812" xlink:href="#DejaVuSans-112"/>
     <use x="380.859375" xlink:href="#DejaVuSans-108"/>
     <use x="408.642578" xlink:href="#DejaVuSans-97"/>
     <use x="469.921875" xlink:href="#DejaVuSans-116"/>
    </g>
   </g>
   <g id="text_16">
    <!-- best 2016 -->
    <defs>
     <path d="M 48.6875 27.296875 
Q 48.6875 37.203125 44.609375 42.84375 
Q 40.53125 48.484375 33.40625 48.484375 
Q 26.265625 48.484375 22.1875 42.84375 
Q 18.109375 37.203125 18.109375 27.296875 
Q 18.109375 17.390625 22.1875 11.75 
Q 26.265625 6.109375 33.40625 6.109375 
Q 40.53125 6.109375 44.609375 11.75 
Q 48.6875 17.390625 48.6875 27.296875 
z
M 18.109375 46.390625 
Q 20.953125 51.265625 25.265625 53.625 
Q 29.59375 56 35.59375 56 
Q 45.5625 56 51.78125 48.09375 
Q 58.015625 40.1875 58.015625 27.296875 
Q 58.015625 14.40625 51.78125 6.484375 
Q 45.5625 -1.421875 35.59375 -1.421875 
Q 29.59375 -1.421875 25.265625 0.953125 
Q 20.953125 3.328125 18.109375 8.203125 
L 18.109375 0 
L 9.078125 0 
L 9.078125 75.984375 
L 18.109375 75.984375 
z
" id="DejaVuSans-98"/>
    </defs>
    <g transform="translate(375.22944 53.810621)scale(0.17 -0.17)">
     <use xlink:href="#DejaVuSans-98"/>
     <use x="63.476562" xlink:href="#DejaVuSans-101"/>
     <use x="125" xlink:href="#DejaVuSans-115"/>
     <use x="177.099609" xlink:href="#DejaVuSans-116"/>
     <use x="216.308594" xlink:href="#DejaVuSans-32"/>
     <use x="248.095703" xlink:href="#DejaVuSans-50"/>
     <use x="311.71875" xlink:href="#DejaVuSans-48"/>
     <use x="375.341797" xlink:href="#DejaVuSans-49"/>
     <use x="438.964844" xlink:href="#DejaVuSans-54"/>
    </g>
   </g>
   <g id="text_17">
    <!-- bbob-biobj f22, f23, f29, f30, 40-D -->
    <defs>
     <path d="M 9.421875 54.6875 
L 18.40625 54.6875 
L 18.40625 -0.984375 
Q 18.40625 -11.421875 14.421875 -16.109375 
Q 10.453125 -20.796875 1.609375 -20.796875 
L -1.8125 -20.796875 
L -1.8125 -13.1875 
L 0.59375 -13.1875 
Q 5.71875 -13.1875 7.5625 -10.8125 
Q 9.421875 -8.453125 9.421875 -0.984375 
z
M 9.421875 75.984375 
L 18.40625 75.984375 
L 18.40625 64.59375 
L 9.421875 64.59375 
z
" id="DejaVuSans-106"/>
     <path d="M 10.984375 1.515625 
L 10.984375 10.5 
Q 14.703125 8.734375 18.5 7.8125 
Q 22.3125 6.890625 25.984375 6.890625 
Q 35.75 6.890625 40.890625 13.453125 
Q 46.046875 20.015625 46.78125 33.40625 
Q 43.953125 29.203125 39.59375 26.953125 
Q 35.25 24.703125 29.984375 24.703125 
Q 19.046875 24.703125 12.671875 31.3125 
Q 6.296875 37.9375 6.296875 49.421875 
Q 6.296875 60.640625 12.9375 67.421875 
Q 19.578125 74.21875 30.609375 74.21875 
Q 43.265625 74.21875 49.921875 64.515625 
Q 56.59375 54.828125 56.59375 36.375 
Q 56.59375 19.140625 48.40625 8.859375 
Q 40.234375 -1.421875 26.421875 -1.421875 
Q 22.703125 -1.421875 18.890625 -0.6875 
Q 15.09375 0.046875 10.984375 1.515625 
z
M 30.609375 32.421875 
Q 37.25 32.421875 41.125 36.953125 
Q 45.015625 41.5 45.015625 49.421875 
Q 45.015625 57.28125 41.125 61.84375 
Q 37.25 66.40625 30.609375 66.40625 
Q 23.96875 66.40625 20.09375 61.84375 
Q 16.21875 57.28125 16.21875 49.421875 
Q 16.21875 41.5 20.09375 36.953125 
Q 23.96875 32.421875 30.609375 32.421875 
z
" id="DejaVuSans-57"/>
    </defs>
    <g transform="translate(60.41088 51.797126)scale(0.102 -0.102)">
     <use xlink:href="#DejaVuSans-98"/>
     <use x="63.476562" xlink:href="#DejaVuSans-98"/>
     <use x="126.953125" xlink:href="#DejaVuSans-111"/>
     <use x="188.134766" xlink:href="#DejaVuSans-98"/>
     <use x="251.611328" xlink:href="#DejaVuSans-45"/>
     <use x="287.695312" xlink:href="#DejaVuSans-98"/>
     <use x="351.171875" xlink:href="#DejaVuSans-105"/>
     <use x="378.955078" xlink:href="#DejaVuSans-111"/>
     <use x="440.136719" xlink:href="#DejaVuSans-98"/>
     <use x="503.613281" xlink:href="#DejaVuSans-106"/>
     <use x="531.396484" xlink:href="#DejaVuSans-32"/>
     <use x="563.183594" xlink:href="#DejaVuSans-102"/>
     <use x="598.388672" xlink:href="#DejaVuSans-50"/>
     <use x="662.011719" xlink:href="#DejaVuSans-50"/>
     <use x="725.634766" xlink:href="#DejaVuSans-44"/>
     <use x="757.421875" xlink:href="#DejaVuSans-32"/>
     <use x="789.208984" xlink:href="#DejaVuSans-102"/>
     <use x="824.414062" xlink:href="#DejaVuSans-50"/>
     <use x="888.037109" xlink:href="#DejaVuSans-51"/>
     <use x="951.660156" xlink:href="#DejaVuSans-44"/>
     <use x="983.447266" xlink:href="#DejaVuSans-32"/>
     <use x="1015.234375" xlink:href="#DejaVuSans-102"/>
     <use x="1050.439453" xlink:href="#DejaVuSans-50"/>
     <use x="1114.0625" xlink:href="#DejaVuSans-57"/>
     <use x="1177.685547" xlink:href="#DejaVuSans-44"/>
     <use x="1209.472656" xlink:href="#DejaVuSans-32"/>
     <use x="1241.259766" xlink:href="#DejaVuSans-102"/>
     <use x="1276.464844" xlink:href="#DejaVuSans-51"/>
     <use x="1340.087891" xlink:href="#DejaVuSans-48"/>
     <use x="1403.710938" xlink:href="#DejaVuSans-44"/>
     <use x="1435.498047" xlink:href="#DejaVuSans-32"/>
     <use x="1467.285156" xlink:href="#DejaVuSans-52"/>
     <use x="1530.908203" xlink:href="#DejaVuSans-48"/>
     <use x="1594.53125" xlink:href="#DejaVuSans-45"/>
     <use x="1630.615234" xlink:href="#DejaVuSans-68"/>
    </g>
    <!-- 58 targets: 1..-1.0e-4 -->
    <defs>
     <path d="M 10.796875 72.90625 
L 49.515625 72.90625 
L 49.515625 64.59375 
L 19.828125 64.59375 
L 19.828125 46.734375 
Q 21.96875 47.46875 24.109375 47.828125 
Q 26.265625 48.1875 28.421875 48.1875 
Q 40.625 48.1875 47.75 41.5 
Q 54.890625 34.8125 54.890625 23.390625 
Q 54.890625 11.625 47.5625 5.09375 
Q 40.234375 -1.421875 26.90625 -1.421875 
Q 22.3125 -1.421875 17.546875 -0.640625 
Q 12.796875 0.140625 7.71875 1.703125 
L 7.71875 11.625 
Q 12.109375 9.234375 16.796875 8.0625 
Q 21.484375 6.890625 26.703125 6.890625 
Q 35.15625 6.890625 40.078125 11.328125 
Q 45.015625 15.765625 45.015625 23.390625 
Q 45.015625 31 40.078125 35.4375 
Q 35.15625 39.890625 26.703125 39.890625 
Q 22.75 39.890625 18.8125 39.015625 
Q 14.890625 38.140625 10.796875 36.28125 
z
" id="DejaVuSans-53"/>
     <path d="M 11.71875 12.40625 
L 22.015625 12.40625 
L 22.015625 0 
L 11.71875 0 
z
M 11.71875 51.703125 
L 22.015625 51.703125 
L 22.015625 39.3125 
L 11.71875 39.3125 
z
" id="DejaVuSans-58"/>
    </defs>
    <g transform="translate(60.41088 63.218895)scale(0.102 -0.102)">
     <use xlink:href="#DejaVuSans-53"/>
     <use x="63.623047" xlink:href="#DejaVuSans-56"/>
     <use x="127.246094" xlink:href="#DejaVuSans-32"/>
     <use x="159.033203" xlink:href="#DejaVuSans-116"/>
     <use x="198.242188" xlink:href="#DejaVuSans-97"/>
     <use x="259.521484" xlink:href="#DejaVuSans-114"/>
     <use x="300.619141" xlink:href="#DejaVuSans-103"/>
     <use x="364.095703" xlink:href="#DejaVuSans-101"/>
     <use x="425.619141" xlink:href="#DejaVuSans-116"/>
     <use x="464.828125" xlink:href="#DejaVuSans-115"/>
     <use x="516.927734" xlink:href="#DejaVuSans-58"/>
     <use x="550.619141" xlink:href="#DejaVuSans-32"/>
     <use x="582.40625" xlink:href="#DejaVuSans-49"/>
     <use x="646.029297" xlink:href="#DejaVuSans-46"/>
     <use x="677.816406" xlink:href="#DejaVuSans-46"/>
     <use x="709.603516" xlink:href="#DejaVuSans-45"/>
     <use x="745.6875" xlink:href="#DejaVuSans-49"/>
     <use x="809.310547" xlink:href="#DejaVuSans-46"/>
     <use x="841.097656" xlink:href="#DejaVuSans-48"/>
     <use x="904.720703" xlink:href="#DejaVuSans-101"/>
     <use x="966.244141" xlink:href="#DejaVuSans-45"/>
     <use x="1002.328125" xlink:href="#DejaVuSans-52"/>
    </g>
    <!-- 10 instances -->
    <g transform="translate(60.41088 74.640664)scale(0.102 -0.102)">
     <use xlink:href="#DejaVuSans-49"/>
     <use x="63.623047" xlink:href="#DejaVuSans-48"/>
     <use x="127.246094" xlink:href="#DejaVuSans-32"/>
     <use x="159.033203" xlink:href="#DejaVuSans-105"/>
     <use x="186.816406" xlink:href="#DejaVuSans-110"/>
     <use x="250.195312" xlink:href="#DejaVuSans-115"/>
     <use x="302.294922" xlink:href="#DejaVuSans-116"/>
     <use x="341.503906" xlink:href="#DejaVuSans-97"/>
     <use x="402.783203" xlink:href="#DejaVuSans-110"/>
     <use x="466.162109" xlink:href="#DejaVuSans-99"/>
     <use x="521.142578" xlink:href="#DejaVuSans-101"/>
     <use x="582.666016" xlink:href="#DejaVuSans-115"/>
    </g>
   </g>
   <g id="text_18">
    <!-- v2.3.1.31, hv-hash=9c62f617dadcb154 -->
    <defs>
     <path d="M 54.890625 33.015625 
L 54.890625 0 
L 45.90625 0 
L 45.90625 32.71875 
Q 45.90625 40.484375 42.875 44.328125 
Q 39.84375 48.1875 33.796875 48.1875 
Q 26.515625 48.1875 22.3125 43.546875 
Q 18.109375 38.921875 18.109375 30.90625 
L 18.109375 0 
L 9.078125 0 
L 9.078125 75.984375 
L 18.109375 75.984375 
L 18.109375 46.1875 
Q 21.34375 51.125 25.703125 53.5625 
Q 30.078125 56 35.796875 56 
Q 45.21875 56 50.046875 50.171875 
Q 54.890625 44.34375 54.890625 33.015625 
z
" id="DejaVuSans-104"/>
     <path d="M 10.59375 45.40625 
L 73.1875 45.40625 
L 73.1875 37.203125 
L 10.59375 37.203125 
z
M 10.59375 25.484375 
L 73.1875 25.484375 
L 73.1875 17.1875 
L 10.59375 17.1875 
z
" id="DejaVuSans-61"/>
     <path d="M 8.203125 72.90625 
L 55.078125 72.90625 
L 55.078125 68.703125 
L 28.609375 0 
L 18.3125 0 
L 43.21875 64.59375 
L 8.203125 64.59375 
z
" id="DejaVuSans-55"/>
    </defs>
    <g style="fill:#808080;" transform="translate(98.729937 294.289592)scale(0.1 -0.1)">
     <use xlink:href="#DejaVuSans-118"/>
     <use x="59.179688" xlink:href="#DejaVuSans-50"/>
     <use x="122.802734" xlink:href="#DejaVuSans-46"/>
     <use x="154.589844" xlink:href="#DejaVuSans-51"/>
     <use x="218.212891" xlink:href="#DejaVuSans-46"/>
     <use x="250" xlink:href="#DejaVuSans-49"/>
     <use x="313.623047" xlink:href="#DejaVuSans-46"/>
     <use x="345.410156" xlink:href="#DejaVuSans-51"/>
     <use x="409.033203" xlink:href="#DejaVuSans-49"/>
     <use x="472.65625" xlink:href="#DejaVuSans-44"/>
     <use x="504.443359" xlink:href="#DejaVuSans-32"/>
     <use x="536.230469" xlink:href="#DejaVuSans-104"/>
     <use x="599.609375" xlink:href="#DejaVuSans-118"/>
     <use x="658.757812" xlink:href="#DejaVuSans-45"/>
     <use x="694.841797" xlink:href="#DejaVuSans-104"/>
     <use x="758.220703" xlink:href="#DejaVuSans-97"/>
     <use x="819.5" xlink:href="#DejaVuSans-115"/>
     <use x="871.599609" xlink:href="#DejaVuSans-104"/>
     <use x="934.978516" xlink:href="#DejaVuSans-61"/>
     <use x="1018.767578" xlink:href="#DejaVuSans-57"/>
     <use x="1082.390625" xlink:href="#DejaVuSans-99"/>
     <use x="1137.371094" xlink:href="#DejaVuSans-54"/>
     <use x="1200.994141" xlink:href="#DejaVuSans-50"/>
     <use x="1264.617188" xlink:href="#DejaVuSans-102"/>
     <use x="1299.822266" xlink:href="#DejaVuSans-54"/>
     <use x="1363.445312" xlink:href="#DejaVuSans-49"/>
     <use x="1427.068359" xlink:href="#DejaVuSans-55"/>
     <use x="1490.691406" xlink:href="#DejaVuSans-100"/>
     <use x="1554.167969" xlink:href="#DejaVuSans-97"/>
     <use x="1615.447266" xlink:href="#DejaVuSans-100"/>
     <use x="1678.923828" xlink:href="#DejaVuSans-99"/>
     <use x="1733.904297" xlink:href="#DejaVuSans-98"/>
     <use x="1797.380859" xlink:href="#DejaVuSans-49"/>
     <use x="1861.003906" xlink:href="#DejaVuSans-53"/>
     <use x="1924.626953" xlink:href="#DejaVuSans-52"/>
    </g>
   </g>
  </g>
 </g>
 <defs>
  <clipPath id="p9f4d23d67f">
   <rect height="257.472" width="281.088" x="57.6" y="41.472"/>
  </clipPath>
 </defs>
</svg>
