<?xml version="1.0" encoding="utf-8" standalone="no"?>
<!DOCTYPE svg PUBLIC "-//W3C//DTD SVG 1.1//EN"
  "http://www.w3.org/Graphics/SVG/1.1/DTD/svg11.dtd">
<!-- Created with matplotlib (https://matplotlib.org/) -->
<svg height="345.6pt" version="1.1" viewBox="0 0 460.8 345.6" width="460.8pt" xmlns="http://www.w3.org/2000/svg" xmlns:xlink="http://www.w3.org/1999/xlink">
 <defs>
  <style type="text/css">
*{stroke-linecap:butt;stroke-linejoin:round;}
  </style>
 </defs>
 <g id="figure_1">
  <g id="patch_1">
   <path d="M 0 345.6 
L 460.8 345.6 
L 460.8 0 
L 0 0 
z
" style="fill:#ffffff;"/>
  </g>
  <g id="axes_1">
   <g id="patch_2">
    <path d="M 57.6 298.944 
L 338.688 298.944 
L 338.688 41.472 
L 57.6 41.472 
z
" style="fill:#ffffff;"/>
   </g>
   <g id="line2d_1">
    <path d="M -1 294.54878 
L 100.971279 294.54878 
L 100.971279 291.618633 
L 121.456312 291.618633 
L 121.456312 288.688486 
L 135.755692 288.688486 
L 135.755692 287.223413 
L 136.508792 287.223413 
L 136.508792 284.293266 
L 143.413655 284.293266 
L 143.413655 281.363119 
L 145.034117 281.363119 
L 145.034117 276.967899 
L 145.272995 276.967899 
L 145.272995 274.037752 
L 145.932112 274.037752 
L 145.932112 271.107605 
L 146.828006 271.107605 
L 146.828006 269.642532 
L 147.692562 269.642532 
L 147.692562 266.712385 
L 147.986163 266.712385 
L 147.986163 263.782238 
L 148.554206 263.782238 
L 148.554206 259.387018 
L 149.314167 259.387018 
L 149.314167 256.456871 
L 150.234852 256.456871 
L 150.234852 254.991798 
L 150.27352 254.991798 
L 150.27352 252.061651 
L 151.288432 252.061651 
L 151.288432 249.131504 
L 152.207228 249.131504 
L 152.207228 247.666431 
L 153.324929 247.666431 
L 153.324929 243.271211 
L 153.445207 243.271211 
L 153.445207 238.87599 
L 154.986906 238.87599 
L 154.986906 237.410917 
L 157.201615 237.410917 
L 157.201615 233.015697 
L 160.818909 233.015697 
L 160.818909 230.08555 
L 164.643196 230.08555 
L 164.643196 228.620477 
L 170.598623 228.620477 
L 170.598623 224.225256 
L 178.663273 224.225256 
L 178.663273 222.760183 
L 189.87742 222.760183 
L 189.87742 218.364963 
L 215.800249 218.364963 
L 215.800249 215.434816 
L 234.333878 215.434816 
L 234.333878 213.969743 
L 234.385118 213.969743 
L 234.385118 211.039596 
L 243.745467 211.039596 
L 243.745467 206.644376 
L 243.756097 206.644376 
L 243.756097 205.179302 
L 245.693774 205.179302 
L 245.693774 202.249155 
L 248.319162 202.249155 
L 248.319162 200.784082 
L 251.407152 200.784082 
L 251.407152 197.853935 
L 251.425757 197.853935 
L 251.425757 196.388862 
L 258.43322 196.388862 
L 258.43322 193.458715 
L 258.572097 193.458715 
L 258.572097 190.528568 
L 264.225605 190.528568 
L 264.225605 187.598421 
L 265.489709 187.598421 
L 265.489709 183.203201 
L 265.497064 183.203201 
L 265.497064 180.273054 
L 265.503813 180.273054 
L 265.503813 177.342907 
L 265.516154 177.342907 
L 265.516154 174.412761 
L 265.624265 174.412761 
L 265.624265 172.947687 
L 273.213695 172.947687 
L 273.213695 168.552467 
L 273.244672 168.552467 
L 273.244672 164.157247 
L 273.291107 164.157247 
L 273.291107 161.2271 
L 273.438218 161.2271 
L 273.438218 159.762027 
L 274.19977 159.762027 
L 274.19977 155.366806 
L 282.601595 155.366806 
L 282.601595 152.43666 
L 285.714045 152.43666 
L 285.714045 148.041439 
L 296.766954 148.041439 
L 296.766954 145.111293 
L 296.874947 145.111293 
L 296.874947 143.646219 
L 338.688 143.646219 
" style="fill:none;stroke:#f5deb3;stroke-linecap:square;stroke-width:4;"/>
   </g>
   <g id="line2d_2">
    <defs>
     <path d="M 0 7.778175 
L 7.778175 0 
L 0 -7.778175 
L -7.778175 0 
z
" id="mc033285339" style="stroke:#f5deb3;stroke-linejoin:miter;stroke-width:1.5;"/>
    </defs>
    <g>
     <use style="fill:#f5deb3;stroke:#f5deb3;stroke-linejoin:miter;stroke-width:1.5;" x="145.932112" xlink:href="#mc033285339" y="274.037752"/>
     <use style="fill:#f5deb3;stroke:#f5deb3;stroke-linejoin:miter;stroke-width:1.5;" x="189.87742" xlink:href="#mc033285339" y="222.760183"/>
     <use style="fill:#f5deb3;stroke:#f5deb3;stroke-linejoin:miter;stroke-width:1.5;" x="265.489709" xlink:href="#mc033285339" y="187.598421"/>
     <use style="fill:#f5deb3;stroke:#f5deb3;stroke-linejoin:miter;stroke-width:1.5;" x="296.874947" xlink:href="#mc033285339" y="143.646219"/>
     <use style="fill:#f5deb3;stroke:#f5deb3;stroke-linejoin:miter;stroke-width:1.5;" x="338.688" xlink:href="#mc033285339" y="143.646219"/>
    </g>
   </g>
   <g id="line2d_3">
    <path style="fill:none;stroke:#f5deb3;stroke-linecap:square;stroke-width:4;"/>
    <g/>
   </g>
   <g id="line2d_4">
    <path d="M 338.688 143.646219 
L 369.60768 49.119683 
" style="fill:none;stroke:#f5deb3;stroke-linecap:square;stroke-width:4;"/>
    <g>
     <use style="fill:#f5deb3;stroke:#f5deb3;stroke-linejoin:miter;stroke-width:1.5;" x="338.688" xlink:href="#mc033285339" y="143.646219"/>
     <use style="fill:#f5deb3;stroke:#f5deb3;stroke-linejoin:miter;stroke-width:1.5;" x="369.60768" xlink:href="#mc033285339" y="49.119683"/>
    </g>
   </g>
   <g id="matplotlib.axis_1">
    <g id="xtick_1">
     <g id="line2d_5">
      <path clip-path="url(#p2e4b739f5c)" d="M 57.6 298.944 
L 57.6 41.472 
" style="fill:none;stroke:#b0b0b0;stroke-linecap:square;stroke-width:0.8;"/>
     </g>
     <g id="line2d_6">
      <defs>
       <path d="M 0 0 
L 0 3.5 
" id="m5b7a7d8d01" style="stroke:#000000;stroke-width:0.8;"/>
      </defs>
      <g>
       <use style="stroke:#000000;stroke-width:0.8;" x="57.6" xlink:href="#m5b7a7d8d01" y="298.944"/>
      </g>
     </g>
     <g id="text_1">
      <!-- 0 -->
      <defs>
       <path d="M 31.78125 66.40625 
Q 24.171875 66.40625 20.328125 58.90625 
Q 16.5 51.421875 16.5 36.375 
Q 16.5 21.390625 20.328125 13.890625 
Q 24.171875 6.390625 31.78125 6.390625 
Q 39.453125 6.390625 43.28125 13.890625 
Q 47.125 21.390625 47.125 36.375 
Q 47.125 51.421875 43.28125 58.90625 
Q 39.453125 66.40625 31.78125 66.40625 
z
M 31.78125 74.21875 
Q 44.046875 74.21875 50.515625 64.515625 
Q 56.984375 54.828125 56.984375 36.375 
Q 56.984375 17.96875 50.515625 8.265625 
Q 44.046875 -1.421875 31.78125 -1.421875 
Q 19.53125 -1.421875 13.0625 8.265625 
Q 6.59375 17.96875 6.59375 36.375 
Q 6.59375 54.828125 13.0625 64.515625 
Q 19.53125 74.21875 31.78125 74.21875 
z
" id="DejaVuSans-48"/>
      </defs>
      <g transform="translate(51.2375 321.140875)scale(0.2 -0.2)">
       <use xlink:href="#DejaVuSans-48"/>
      </g>
     </g>
    </g>
    <g id="xtick_2">
     <g id="line2d_7">
      <path clip-path="url(#p2e4b739f5c)" d="M 137.910857 298.944 
L 137.910857 41.472 
" style="fill:none;stroke:#b0b0b0;stroke-linecap:square;stroke-width:0.8;"/>
     </g>
     <g id="line2d_8">
      <g>
       <use style="stroke:#000000;stroke-width:0.8;" x="137.910857" xlink:href="#m5b7a7d8d01" y="298.944"/>
      </g>
     </g>
     <g id="text_2">
      <!-- 2 -->
      <defs>
       <path d="M 19.1875 8.296875 
L 53.609375 8.296875 
L 53.609375 0 
L 7.328125 0 
L 7.328125 8.296875 
Q 12.9375 14.109375 22.625 23.890625 
Q 32.328125 33.6875 34.8125 36.53125 
Q 39.546875 41.84375 41.421875 45.53125 
Q 43.3125 49.21875 43.3125 52.78125 
Q 43.3125 58.59375 39.234375 62.25 
Q 35.15625 65.921875 28.609375 65.921875 
Q 23.96875 65.921875 18.8125 64.3125 
Q 13.671875 62.703125 7.8125 59.421875 
L 7.8125 69.390625 
Q 13.765625 71.78125 18.9375 73 
Q 24.125 74.21875 28.421875 74.21875 
Q 39.75 74.21875 46.484375 68.546875 
Q 53.21875 62.890625 53.21875 53.421875 
Q 53.21875 48.921875 51.53125 44.890625 
Q 49.859375 40.875 45.40625 35.40625 
Q 44.1875 33.984375 37.640625 27.21875 
Q 31.109375 20.453125 19.1875 8.296875 
z
" id="DejaVuSans-50"/>
      </defs>
      <g transform="translate(131.548357 321.140875)scale(0.2 -0.2)">
       <use xlink:href="#DejaVuSans-50"/>
      </g>
     </g>
    </g>
    <g id="xtick_3">
     <g id="line2d_9">
      <path clip-path="url(#p2e4b739f5c)" d="M 218.221714 298.944 
L 218.221714 41.472 
" style="fill:none;stroke:#b0b0b0;stroke-linecap:square;stroke-width:0.8;"/>
     </g>
     <g id="line2d_10">
      <g>
       <use style="stroke:#000000;stroke-width:0.8;" x="218.221714" xlink:href="#m5b7a7d8d01" y="298.944"/>
      </g>
     </g>
     <g id="text_3">
      <!-- 4 -->
      <defs>
       <path d="M 37.796875 64.3125 
L 12.890625 25.390625 
L 37.796875 25.390625 
z
M 35.203125 72.90625 
L 47.609375 72.90625 
L 47.609375 25.390625 
L 58.015625 25.390625 
L 58.015625 17.1875 
L 47.609375 17.1875 
L 47.609375 0 
L 37.796875 0 
L 37.796875 17.1875 
L 4.890625 17.1875 
L 4.890625 26.703125 
z
" id="DejaVuSans-52"/>
      </defs>
      <g transform="translate(211.859214 321.140875)scale(0.2 -0.2)">
       <use xlink:href="#DejaVuSans-52"/>
      </g>
     </g>
    </g>
    <g id="xtick_4">
     <g id="line2d_11">
      <path clip-path="url(#p2e4b739f5c)" d="M 298.532571 298.944 
L 298.532571 41.472 
" style="fill:none;stroke:#b0b0b0;stroke-linecap:square;stroke-width:0.8;"/>
     </g>
     <g id="line2d_12">
      <g>
       <use style="stroke:#000000;stroke-width:0.8;" x="298.532571" xlink:href="#m5b7a7d8d01" y="298.944"/>
      </g>
     </g>
     <g id="text_4">
      <!-- 6 -->
      <defs>
       <path d="M 33.015625 40.375 
Q 26.375 40.375 22.484375 35.828125 
Q 18.609375 31.296875 18.609375 23.390625 
Q 18.609375 15.53125 22.484375 10.953125 
Q 26.375 6.390625 33.015625 6.390625 
Q 39.65625 6.390625 43.53125 10.953125 
Q 47.40625 15.53125 47.40625 23.390625 
Q 47.40625 31.296875 43.53125 35.828125 
Q 39.65625 40.375 33.015625 40.375 
z
M 52.59375 71.296875 
L 52.59375 62.3125 
Q 48.875 64.0625 45.09375 64.984375 
Q 41.3125 65.921875 37.59375 65.921875 
Q 27.828125 65.921875 22.671875 59.328125 
Q 17.53125 52.734375 16.796875 39.40625 
Q 19.671875 43.65625 24.015625 45.921875 
Q 28.375 48.1875 33.59375 48.1875 
Q 44.578125 48.1875 50.953125 41.515625 
Q 57.328125 34.859375 57.328125 23.390625 
Q 57.328125 12.15625 50.6875 5.359375 
Q 44.046875 -1.421875 33.015625 -1.421875 
Q 20.359375 -1.421875 13.671875 8.265625 
Q 6.984375 17.96875 6.984375 36.375 
Q 6.984375 53.65625 15.1875 63.9375 
Q 23.390625 74.21875 37.203125 74.21875 
Q 40.921875 74.21875 44.703125 73.484375 
Q 48.484375 72.75 52.59375 71.296875 
z
" id="DejaVuSans-54"/>
      </defs>
      <g transform="translate(292.170071 321.140875)scale(0.2 -0.2)">
       <use xlink:href="#DejaVuSans-54"/>
      </g>
     </g>
    </g>
    <g id="xtick_5">
     <g id="line2d_13">
      <path clip-path="url(#p2e4b739f5c)" d="M 57.6 298.944 
L 57.6 41.472 
" style="fill:none;stroke:#b0b0b0;stroke-linecap:square;stroke-width:0.8;"/>
     </g>
     <g id="line2d_14">
      <defs>
       <path d="M 0 0 
L 0 2 
" id="m351fb4518b" style="stroke:#000000;stroke-width:0.6;"/>
      </defs>
      <g>
       <use style="stroke:#000000;stroke-width:0.6;" x="57.6" xlink:href="#m351fb4518b" y="298.944"/>
      </g>
     </g>
    </g>
    <g id="xtick_6">
     <g id="line2d_15">
      <path clip-path="url(#p2e4b739f5c)" d="M 97.755429 298.944 
L 97.755429 41.472 
" style="fill:none;stroke:#b0b0b0;stroke-linecap:square;stroke-width:0.8;"/>
     </g>
     <g id="line2d_16">
      <g>
       <use style="stroke:#000000;stroke-width:0.6;" x="97.755429" xlink:href="#m351fb4518b" y="298.944"/>
      </g>
     </g>
    </g>
    <g id="xtick_7">
     <g id="line2d_17">
      <path clip-path="url(#p2e4b739f5c)" d="M 137.910857 298.944 
L 137.910857 41.472 
" style="fill:none;stroke:#b0b0b0;stroke-linecap:square;stroke-width:0.8;"/>
     </g>
     <g id="line2d_18">
      <g>
       <use style="stroke:#000000;stroke-width:0.6;" x="137.910857" xlink:href="#m351fb4518b" y="298.944"/>
      </g>
     </g>
    </g>
    <g id="xtick_8">
     <g id="line2d_19">
      <path clip-path="url(#p2e4b739f5c)" d="M 178.066286 298.944 
L 178.066286 41.472 
" style="fill:none;stroke:#b0b0b0;stroke-linecap:square;stroke-width:0.8;"/>
     </g>
     <g id="line2d_20">
      <g>
       <use style="stroke:#000000;stroke-width:0.6;" x="178.066286" xlink:href="#m351fb4518b" y="298.944"/>
      </g>
     </g>
    </g>
    <g id="xtick_9">
     <g id="line2d_21">
      <path clip-path="url(#p2e4b739f5c)" d="M 218.221714 298.944 
L 218.221714 41.472 
" style="fill:none;stroke:#b0b0b0;stroke-linecap:square;stroke-width:0.8;"/>
     </g>
     <g id="line2d_22">
      <g>
       <use style="stroke:#000000;stroke-width:0.6;" x="218.221714" xlink:href="#m351fb4518b" y="298.944"/>
      </g>
     </g>
    </g>
    <g id="xtick_10">
     <g id="line2d_23">
      <path clip-path="url(#p2e4b739f5c)" d="M 258.377143 298.944 
L 258.377143 41.472 
" style="fill:none;stroke:#b0b0b0;stroke-linecap:square;stroke-width:0.8;"/>
     </g>
     <g id="line2d_24">
      <g>
       <use style="stroke:#000000;stroke-width:0.6;" x="258.377143" xlink:href="#m351fb4518b" y="298.944"/>
      </g>
     </g>
    </g>
    <g id="xtick_11">
     <g id="line2d_25">
      <path clip-path="url(#p2e4b739f5c)" d="M 298.532571 298.944 
L 298.532571 41.472 
" style="fill:none;stroke:#b0b0b0;stroke-linecap:square;stroke-width:0.8;"/>
     </g>
     <g id="line2d_26">
      <g>
       <use style="stroke:#000000;stroke-width:0.6;" x="298.532571" xlink:href="#m351fb4518b" y="298.944"/>
      </g>
     </g>
    </g>
    <g id="xtick_12">
     <g id="line2d_27">
      <path clip-path="url(#p2e4b739f5c)" d="M 338.688 298.944 
L 338.688 41.472 
" style="fill:none;stroke:#b0b0b0;stroke-linecap:square;stroke-width:0.8;"/>
     </g>
     <g id="line2d_28">
      <g>
       <use style="stroke:#000000;stroke-width:0.6;" x="338.688" xlink:href="#m351fb4518b" y="298.944"/>
      </g>
     </g>
    </g>
    <g id="text_5">
     <!-- log10(# f-evals / dimension) -->
     <defs>
      <path d="M 9.421875 75.984375 
L 18.40625 75.984375 
L 18.40625 0 
L 9.421875 0 
z
" id="DejaVuSans-108"/>
      <path d="M 30.609375 48.390625 
Q 23.390625 48.390625 19.1875 42.75 
Q 14.984375 37.109375 14.984375 27.296875 
Q 14.984375 17.484375 19.15625 11.84375 
Q 23.34375 6.203125 30.609375 6.203125 
Q 37.796875 6.203125 41.984375 11.859375 
Q 46.1875 17.53125 46.1875 27.296875 
Q 46.1875 37.015625 41.984375 42.703125 
Q 37.796875 48.390625 30.609375 48.390625 
z
M 30.609375 56 
Q 42.328125 56 49.015625 48.375 
Q 55.71875 40.765625 55.71875 27.296875 
Q 55.71875 13.875 49.015625 6.21875 
Q 42.328125 -1.421875 30.609375 -1.421875 
Q 18.84375 -1.421875 12.171875 6.21875 
Q 5.515625 13.875 5.515625 27.296875 
Q 5.515625 40.765625 12.171875 48.375 
Q 18.84375 56 30.609375 56 
z
" id="DejaVuSans-111"/>
      <path d="M 45.40625 27.984375 
Q 45.40625 37.75 41.375 43.109375 
Q 37.359375 48.484375 30.078125 48.484375 
Q 22.859375 48.484375 18.828125 43.109375 
Q 14.796875 37.75 14.796875 27.984375 
Q 14.796875 18.265625 18.828125 12.890625 
Q 22.859375 7.515625 30.078125 7.515625 
Q 37.359375 7.515625 41.375 12.890625 
Q 45.40625 18.265625 45.40625 27.984375 
z
M 54.390625 6.78125 
Q 54.390625 -7.171875 48.1875 -13.984375 
Q 42 -20.796875 29.203125 -20.796875 
Q 24.46875 -20.796875 20.265625 -20.09375 
Q 16.0625 -19.390625 12.109375 -17.921875 
L 12.109375 -9.1875 
Q 16.0625 -11.328125 19.921875 -12.34375 
Q 23.78125 -13.375 27.78125 -13.375 
Q 36.625 -13.375 41.015625 -8.765625 
Q 45.40625 -4.15625 45.40625 5.171875 
L 45.40625 9.625 
Q 42.625 4.78125 38.28125 2.390625 
Q 33.9375 0 27.875 0 
Q 17.828125 0 11.671875 7.65625 
Q 5.515625 15.328125 5.515625 27.984375 
Q 5.515625 40.671875 11.671875 48.328125 
Q 17.828125 56 27.875 56 
Q 33.9375 56 38.28125 53.609375 
Q 42.625 51.21875 45.40625 46.390625 
L 45.40625 54.6875 
L 54.390625 54.6875 
z
" id="DejaVuSans-103"/>
      <path d="M 12.40625 8.296875 
L 28.515625 8.296875 
L 28.515625 63.921875 
L 10.984375 60.40625 
L 10.984375 69.390625 
L 28.421875 72.90625 
L 38.28125 72.90625 
L 38.28125 8.296875 
L 54.390625 8.296875 
L 54.390625 0 
L 12.40625 0 
z
" id="DejaVuSans-49"/>
      <path d="M 31 75.875 
Q 24.46875 64.65625 21.28125 53.65625 
Q 18.109375 42.671875 18.109375 31.390625 
Q 18.109375 20.125 21.3125 9.0625 
Q 24.515625 -2 31 -13.1875 
L 23.1875 -13.1875 
Q 15.875 -1.703125 12.234375 9.375 
Q 8.59375 20.453125 8.59375 31.390625 
Q 8.59375 42.28125 12.203125 53.3125 
Q 15.828125 64.359375 23.1875 75.875 
z
" id="DejaVuSans-40"/>
      <path d="M 51.125 44 
L 36.921875 44 
L 32.8125 27.6875 
L 47.125 27.6875 
z
M 43.796875 71.78125 
L 38.71875 51.515625 
L 52.984375 51.515625 
L 58.109375 71.78125 
L 65.921875 71.78125 
L 60.890625 51.515625 
L 76.125 51.515625 
L 76.125 44 
L 58.984375 44 
L 54.984375 27.6875 
L 70.515625 27.6875 
L 70.515625 20.21875 
L 53.078125 20.21875 
L 48 0 
L 40.1875 0 
L 45.21875 20.21875 
L 30.90625 20.21875 
L 25.875 0 
L 18.015625 0 
L 23.09375 20.21875 
L 7.71875 20.21875 
L 7.71875 27.6875 
L 24.90625 27.6875 
L 29 44 
L 13.28125 44 
L 13.28125 51.515625 
L 30.90625 51.515625 
L 35.890625 71.78125 
z
" id="DejaVuSans-35"/>
      <path id="DejaVuSans-32"/>
      <path d="M 37.109375 75.984375 
L 37.109375 68.5 
L 28.515625 68.5 
Q 23.6875 68.5 21.796875 66.546875 
Q 19.921875 64.59375 19.921875 59.515625 
L 19.921875 54.6875 
L 34.71875 54.6875 
L 34.71875 47.703125 
L 19.921875 47.703125 
L 19.921875 0 
L 10.890625 0 
L 10.890625 47.703125 
L 2.296875 47.703125 
L 2.296875 54.6875 
L 10.890625 54.6875 
L 10.890625 58.5 
Q 10.890625 67.625 15.140625 71.796875 
Q 19.390625 75.984375 28.609375 75.984375 
z
" id="DejaVuSans-102"/>
      <path d="M 4.890625 31.390625 
L 31.203125 31.390625 
L 31.203125 23.390625 
L 4.890625 23.390625 
z
" id="DejaVuSans-45"/>
      <path d="M 56.203125 29.59375 
L 56.203125 25.203125 
L 14.890625 25.203125 
Q 15.484375 15.921875 20.484375 11.0625 
Q 25.484375 6.203125 34.421875 6.203125 
Q 39.59375 6.203125 44.453125 7.46875 
Q 49.3125 8.734375 54.109375 11.28125 
L 54.109375 2.78125 
Q 49.265625 0.734375 44.1875 -0.34375 
Q 39.109375 -1.421875 33.890625 -1.421875 
Q 20.796875 -1.421875 13.15625 6.1875 
Q 5.515625 13.8125 5.515625 26.8125 
Q 5.515625 40.234375 12.765625 48.109375 
Q 20.015625 56 32.328125 56 
Q 43.359375 56 49.78125 48.890625 
Q 56.203125 41.796875 56.203125 29.59375 
z
M 47.21875 32.234375 
Q 47.125 39.59375 43.09375 43.984375 
Q 39.0625 48.390625 32.421875 48.390625 
Q 24.90625 48.390625 20.390625 44.140625 
Q 15.875 39.890625 15.1875 32.171875 
z
" id="DejaVuSans-101"/>
      <path d="M 2.984375 54.6875 
L 12.5 54.6875 
L 29.59375 8.796875 
L 46.6875 54.6875 
L 56.203125 54.6875 
L 35.6875 0 
L 23.484375 0 
z
" id="DejaVuSans-118"/>
      <path d="M 34.28125 27.484375 
Q 23.390625 27.484375 19.1875 25 
Q 14.984375 22.515625 14.984375 16.5 
Q 14.984375 11.71875 18.140625 8.90625 
Q 21.296875 6.109375 26.703125 6.109375 
Q 34.1875 6.109375 38.703125 11.40625 
Q 43.21875 16.703125 43.21875 25.484375 
L 43.21875 27.484375 
z
M 52.203125 31.203125 
L 52.203125 0 
L 43.21875 0 
L 43.21875 8.296875 
Q 40.140625 3.328125 35.546875 0.953125 
Q 30.953125 -1.421875 24.3125 -1.421875 
Q 15.921875 -1.421875 10.953125 3.296875 
Q 6 8.015625 6 15.921875 
Q 6 25.140625 12.171875 29.828125 
Q 18.359375 34.515625 30.609375 34.515625 
L 43.21875 34.515625 
L 43.21875 35.40625 
Q 43.21875 41.609375 39.140625 45 
Q 35.0625 48.390625 27.6875 48.390625 
Q 23 48.390625 18.546875 47.265625 
Q 14.109375 46.140625 10.015625 43.890625 
L 10.015625 52.203125 
Q 14.9375 54.109375 19.578125 55.046875 
Q 24.21875 56 28.609375 56 
Q 40.484375 56 46.34375 49.84375 
Q 52.203125 43.703125 52.203125 31.203125 
z
" id="DejaVuSans-97"/>
      <path d="M 44.28125 53.078125 
L 44.28125 44.578125 
Q 40.484375 46.53125 36.375 47.5 
Q 32.28125 48.484375 27.875 48.484375 
Q 21.1875 48.484375 17.84375 46.4375 
Q 14.5 44.390625 14.5 40.28125 
Q 14.5 37.15625 16.890625 35.375 
Q 19.28125 33.59375 26.515625 31.984375 
L 29.59375 31.296875 
Q 39.15625 29.25 43.1875 25.515625 
Q 47.21875 21.78125 47.21875 15.09375 
Q 47.21875 7.46875 41.1875 3.015625 
Q 35.15625 -1.421875 24.609375 -1.421875 
Q 20.21875 -1.421875 15.453125 -0.5625 
Q 10.6875 0.296875 5.421875 2 
L 5.421875 11.28125 
Q 10.40625 8.6875 15.234375 7.390625 
Q 20.0625 6.109375 24.8125 6.109375 
Q 31.15625 6.109375 34.5625 8.28125 
Q 37.984375 10.453125 37.984375 14.40625 
Q 37.984375 18.0625 35.515625 20.015625 
Q 33.0625 21.96875 24.703125 23.78125 
L 21.578125 24.515625 
Q 13.234375 26.265625 9.515625 29.90625 
Q 5.8125 33.546875 5.8125 39.890625 
Q 5.8125 47.609375 11.28125 51.796875 
Q 16.75 56 26.8125 56 
Q 31.78125 56 36.171875 55.265625 
Q 40.578125 54.546875 44.28125 53.078125 
z
" id="DejaVuSans-115"/>
      <path d="M 25.390625 72.90625 
L 33.6875 72.90625 
L 8.296875 -9.28125 
L 0 -9.28125 
z
" id="DejaVuSans-47"/>
      <path d="M 45.40625 46.390625 
L 45.40625 75.984375 
L 54.390625 75.984375 
L 54.390625 0 
L 45.40625 0 
L 45.40625 8.203125 
Q 42.578125 3.328125 38.25 0.953125 
Q 33.9375 -1.421875 27.875 -1.421875 
Q 17.96875 -1.421875 11.734375 6.484375 
Q 5.515625 14.40625 5.515625 27.296875 
Q 5.515625 40.1875 11.734375 48.09375 
Q 17.96875 56 27.875 56 
Q 33.9375 56 38.25 53.625 
Q 42.578125 51.265625 45.40625 46.390625 
z
M 14.796875 27.296875 
Q 14.796875 17.390625 18.875 11.75 
Q 22.953125 6.109375 30.078125 6.109375 
Q 37.203125 6.109375 41.296875 11.75 
Q 45.40625 17.390625 45.40625 27.296875 
Q 45.40625 37.203125 41.296875 42.84375 
Q 37.203125 48.484375 30.078125 48.484375 
Q 22.953125 48.484375 18.875 42.84375 
Q 14.796875 37.203125 14.796875 27.296875 
z
" id="DejaVuSans-100"/>
      <path d="M 9.421875 54.6875 
L 18.40625 54.6875 
L 18.40625 0 
L 9.421875 0 
z
M 9.421875 75.984375 
L 18.40625 75.984375 
L 18.40625 64.59375 
L 9.421875 64.59375 
z
" id="DejaVuSans-105"/>
      <path d="M 52 44.1875 
Q 55.375 50.25 60.0625 53.125 
Q 64.75 56 71.09375 56 
Q 79.640625 56 84.28125 50.015625 
Q 88.921875 44.046875 88.921875 33.015625 
L 88.921875 0 
L 79.890625 0 
L 79.890625 32.71875 
Q 79.890625 40.578125 77.09375 44.375 
Q 74.3125 48.1875 68.609375 48.1875 
Q 61.625 48.1875 57.5625 43.546875 
Q 53.515625 38.921875 53.515625 30.90625 
L 53.515625 0 
L 44.484375 0 
L 44.484375 32.71875 
Q 44.484375 40.625 41.703125 44.40625 
Q 38.921875 48.1875 33.109375 48.1875 
Q 26.21875 48.1875 22.15625 43.53125 
Q 18.109375 38.875 18.109375 30.90625 
L 18.109375 0 
L 9.078125 0 
L 9.078125 54.6875 
L 18.109375 54.6875 
L 18.109375 46.1875 
Q 21.1875 51.21875 25.484375 53.609375 
Q 29.78125 56 35.6875 56 
Q 41.65625 56 45.828125 52.96875 
Q 50 49.953125 52 44.1875 
z
" id="DejaVuSans-109"/>
      <path d="M 54.890625 33.015625 
L 54.890625 0 
L 45.90625 0 
L 45.90625 32.71875 
Q 45.90625 40.484375 42.875 44.328125 
Q 39.84375 48.1875 33.796875 48.1875 
Q 26.515625 48.1875 22.3125 43.546875 
Q 18.109375 38.921875 18.109375 30.90625 
L 18.109375 0 
L 9.078125 0 
L 9.078125 54.6875 
L 18.109375 54.6875 
L 18.109375 46.1875 
Q 21.34375 51.125 25.703125 53.5625 
Q 30.078125 56 35.796875 56 
Q 45.21875 56 50.046875 50.171875 
Q 54.890625 44.34375 54.890625 33.015625 
z
" id="DejaVuSans-110"/>
      <path d="M 8.015625 75.875 
L 15.828125 75.875 
Q 23.140625 64.359375 26.78125 53.3125 
Q 30.421875 42.28125 30.421875 31.390625 
Q 30.421875 20.453125 26.78125 9.375 
Q 23.140625 -1.703125 15.828125 -13.1875 
L 8.015625 -13.1875 
Q 14.5 -2 17.703125 9.0625 
Q 20.90625 20.125 20.90625 31.390625 
Q 20.90625 42.671875 17.703125 53.65625 
Q 14.5 64.65625 8.015625 75.875 
z
" id="DejaVuSans-41"/>
     </defs>
     <g transform="translate(77.303219 342.217594)scale(0.17 -0.17)">
      <use xlink:href="#DejaVuSans-108"/>
      <use x="27.783203" xlink:href="#DejaVuSans-111"/>
      <use x="88.964844" xlink:href="#DejaVuSans-103"/>
      <use x="152.441406" xlink:href="#DejaVuSans-49"/>
      <use x="216.064453" xlink:href="#DejaVuSans-48"/>
      <use x="279.6875" xlink:href="#DejaVuSans-40"/>
      <use x="318.701172" xlink:href="#DejaVuSans-35"/>
      <use x="402.490234" xlink:href="#DejaVuSans-32"/>
      <use x="434.277344" xlink:href="#DejaVuSans-102"/>
      <use x="469.404297" xlink:href="#DejaVuSans-45"/>
      <use x="505.488281" xlink:href="#DejaVuSans-101"/>
      <use x="567.011719" xlink:href="#DejaVuSans-118"/>
      <use x="626.191406" xlink:href="#DejaVuSans-97"/>
      <use x="687.470703" xlink:href="#DejaVuSans-108"/>
      <use x="715.253906" xlink:href="#DejaVuSans-115"/>
      <use x="767.353516" xlink:href="#DejaVuSans-32"/>
      <use x="799.140625" xlink:href="#DejaVuSans-47"/>
      <use x="832.832031" xlink:href="#DejaVuSans-32"/>
      <use x="864.619141" xlink:href="#DejaVuSans-100"/>
      <use x="928.095703" xlink:href="#DejaVuSans-105"/>
      <use x="955.878906" xlink:href="#DejaVuSans-109"/>
      <use x="1053.291016" xlink:href="#DejaVuSans-101"/>
      <use x="1114.814453" xlink:href="#DejaVuSans-110"/>
      <use x="1178.193359" xlink:href="#DejaVuSans-115"/>
      <use x="1230.292969" xlink:href="#DejaVuSans-105"/>
      <use x="1258.076172" xlink:href="#DejaVuSans-111"/>
      <use x="1319.257812" xlink:href="#DejaVuSans-110"/>
      <use x="1382.636719" xlink:href="#DejaVuSans-41"/>
     </g>
    </g>
   </g>
   <g id="matplotlib.axis_2">
    <g id="ytick_1">
     <g id="line2d_29">
      <path clip-path="url(#p2e4b739f5c)" d="M 57.6 298.944 
L 338.688 298.944 
" style="fill:none;stroke:#b0b0b0;stroke-linecap:square;stroke-width:0.8;"/>
     </g>
     <g id="line2d_30">
      <defs>
       <path d="M 0 0 
L -3.5 0 
" id="md93f86e8b4" style="stroke:#000000;stroke-width:0.8;"/>
      </defs>
      <g>
       <use style="stroke:#000000;stroke-width:0.8;" x="57.6" xlink:href="#md93f86e8b4" y="298.944"/>
      </g>
     </g>
     <g id="text_6">
      <!-- 0.0 -->
      <defs>
       <path d="M 10.6875 12.40625 
L 21 12.40625 
L 21 0 
L 10.6875 0 
z
" id="DejaVuSans-46"/>
      </defs>
      <g transform="translate(25.155 305.02275)scale(0.16 -0.16)">
       <use xlink:href="#DejaVuSans-48"/>
       <use x="63.623047" xlink:href="#DejaVuSans-46"/>
       <use x="95.410156" xlink:href="#DejaVuSans-48"/>
      </g>
     </g>
    </g>
    <g id="ytick_2">
     <g id="line2d_31">
      <path clip-path="url(#p2e4b739f5c)" d="M 57.6 247.959446 
L 338.688 247.959446 
" style="fill:none;stroke:#b0b0b0;stroke-linecap:square;stroke-width:0.8;"/>
     </g>
     <g id="line2d_32">
      <g>
       <use style="stroke:#000000;stroke-width:0.8;" x="57.6" xlink:href="#md93f86e8b4" y="247.959446"/>
      </g>
     </g>
     <g id="text_7">
      <!-- 0.2 -->
      <g transform="translate(25.155 254.038196)scale(0.16 -0.16)">
       <use xlink:href="#DejaVuSans-48"/>
       <use x="63.623047" xlink:href="#DejaVuSans-46"/>
       <use x="95.410156" xlink:href="#DejaVuSans-50"/>
      </g>
     </g>
    </g>
    <g id="ytick_3">
     <g id="line2d_33">
      <path clip-path="url(#p2e4b739f5c)" d="M 57.6 196.974891 
L 338.688 196.974891 
" style="fill:none;stroke:#b0b0b0;stroke-linecap:square;stroke-width:0.8;"/>
     </g>
     <g id="line2d_34">
      <g>
       <use style="stroke:#000000;stroke-width:0.8;" x="57.6" xlink:href="#md93f86e8b4" y="196.974891"/>
      </g>
     </g>
     <g id="text_8">
      <!-- 0.4 -->
      <g transform="translate(25.155 203.053641)scale(0.16 -0.16)">
       <use xlink:href="#DejaVuSans-48"/>
       <use x="63.623047" xlink:href="#DejaVuSans-46"/>
       <use x="95.410156" xlink:href="#DejaVuSans-52"/>
      </g>
     </g>
    </g>
    <g id="ytick_4">
     <g id="line2d_35">
      <path clip-path="url(#p2e4b739f5c)" d="M 57.6 145.990337 
L 338.688 145.990337 
" style="fill:none;stroke:#b0b0b0;stroke-linecap:square;stroke-width:0.8;"/>
     </g>
     <g id="line2d_36">
      <g>
       <use style="stroke:#000000;stroke-width:0.8;" x="57.6" xlink:href="#md93f86e8b4" y="145.990337"/>
      </g>
     </g>
     <g id="text_9">
      <!-- 0.6 -->
      <g transform="translate(25.155 152.069087)scale(0.16 -0.16)">
       <use xlink:href="#DejaVuSans-48"/>
       <use x="63.623047" xlink:href="#DejaVuSans-46"/>
       <use x="95.410156" xlink:href="#DejaVuSans-54"/>
      </g>
     </g>
    </g>
    <g id="ytick_5">
     <g id="line2d_37">
      <path clip-path="url(#p2e4b739f5c)" d="M 57.6 95.005782 
L 338.688 95.005782 
" style="fill:none;stroke:#b0b0b0;stroke-linecap:square;stroke-width:0.8;"/>
     </g>
     <g id="line2d_38">
      <g>
       <use style="stroke:#000000;stroke-width:0.8;" x="57.6" xlink:href="#md93f86e8b4" y="95.005782"/>
      </g>
     </g>
     <g id="text_10">
      <!-- 0.8 -->
      <defs>
       <path d="M 31.78125 34.625 
Q 24.75 34.625 20.71875 30.859375 
Q 16.703125 27.09375 16.703125 20.515625 
Q 16.703125 13.921875 20.71875 10.15625 
Q 24.75 6.390625 31.78125 6.390625 
Q 38.8125 6.390625 42.859375 10.171875 
Q 46.921875 13.96875 46.921875 20.515625 
Q 46.921875 27.09375 42.890625 30.859375 
Q 38.875 34.625 31.78125 34.625 
z
M 21.921875 38.8125 
Q 15.578125 40.375 12.03125 44.71875 
Q 8.5 49.078125 8.5 55.328125 
Q 8.5 64.0625 14.71875 69.140625 
Q 20.953125 74.21875 31.78125 74.21875 
Q 42.671875 74.21875 48.875 69.140625 
Q 55.078125 64.0625 55.078125 55.328125 
Q 55.078125 49.078125 51.53125 44.71875 
Q 48 40.375 41.703125 38.8125 
Q 48.828125 37.15625 52.796875 32.3125 
Q 56.78125 27.484375 56.78125 20.515625 
Q 56.78125 9.90625 50.3125 4.234375 
Q 43.84375 -1.421875 31.78125 -1.421875 
Q 19.734375 -1.421875 13.25 4.234375 
Q 6.78125 9.90625 6.78125 20.515625 
Q 6.78125 27.484375 10.78125 32.3125 
Q 14.796875 37.15625 21.921875 38.8125 
z
M 18.3125 54.390625 
Q 18.3125 48.734375 21.84375 45.5625 
Q 25.390625 42.390625 31.78125 42.390625 
Q 38.140625 42.390625 41.71875 45.5625 
Q 45.3125 48.734375 45.3125 54.390625 
Q 45.3125 60.0625 41.71875 63.234375 
Q 38.140625 66.40625 31.78125 66.40625 
Q 25.390625 66.40625 21.84375 63.234375 
Q 18.3125 60.0625 18.3125 54.390625 
z
" id="DejaVuSans-56"/>
      </defs>
      <g transform="translate(25.155 101.084532)scale(0.16 -0.16)">
       <use xlink:href="#DejaVuSans-48"/>
       <use x="63.623047" xlink:href="#DejaVuSans-46"/>
       <use x="95.410156" xlink:href="#DejaVuSans-56"/>
      </g>
     </g>
    </g>
    <g id="ytick_6">
     <g id="line2d_39">
      <path clip-path="url(#p2e4b739f5c)" d="M 57.6 44.021228 
L 338.688 44.021228 
" style="fill:none;stroke:#b0b0b0;stroke-linecap:square;stroke-width:0.8;"/>
     </g>
     <g id="line2d_40">
      <g>
       <use style="stroke:#000000;stroke-width:0.8;" x="57.6" xlink:href="#md93f86e8b4" y="44.021228"/>
      </g>
     </g>
     <g id="text_11">
      <!-- 1.0 -->
      <g transform="translate(25.155 50.099978)scale(0.16 -0.16)">
       <use xlink:href="#DejaVuSans-49"/>
       <use x="63.623047" xlink:href="#DejaVuSans-46"/>
       <use x="95.410156" xlink:href="#DejaVuSans-48"/>
      </g>
     </g>
    </g>
    <g id="text_12">
     <!-- Fraction of function,target pairs -->
     <defs>
      <path d="M 9.8125 72.90625 
L 51.703125 72.90625 
L 51.703125 64.59375 
L 19.671875 64.59375 
L 19.671875 43.109375 
L 48.578125 43.109375 
L 48.578125 34.8125 
L 19.671875 34.8125 
L 19.671875 0 
L 9.8125 0 
z
" id="DejaVuSans-70"/>
      <path d="M 41.109375 46.296875 
Q 39.59375 47.171875 37.8125 47.578125 
Q 36.03125 48 33.890625 48 
Q 26.265625 48 22.1875 43.046875 
Q 18.109375 38.09375 18.109375 28.8125 
L 18.109375 0 
L 9.078125 0 
L 9.078125 54.6875 
L 18.109375 54.6875 
L 18.109375 46.1875 
Q 20.953125 51.171875 25.484375 53.578125 
Q 30.03125 56 36.53125 56 
Q 37.453125 56 38.578125 55.875 
Q 39.703125 55.765625 41.0625 55.515625 
z
" id="DejaVuSans-114"/>
      <path d="M 48.78125 52.59375 
L 48.78125 44.1875 
Q 44.96875 46.296875 41.140625 47.34375 
Q 37.3125 48.390625 33.40625 48.390625 
Q 24.65625 48.390625 19.8125 42.84375 
Q 14.984375 37.3125 14.984375 27.296875 
Q 14.984375 17.28125 19.8125 11.734375 
Q 24.65625 6.203125 33.40625 6.203125 
Q 37.3125 6.203125 41.140625 7.25 
Q 44.96875 8.296875 48.78125 10.40625 
L 48.78125 2.09375 
Q 45.015625 0.34375 40.984375 -0.53125 
Q 36.96875 -1.421875 32.421875 -1.421875 
Q 20.0625 -1.421875 12.78125 6.34375 
Q 5.515625 14.109375 5.515625 27.296875 
Q 5.515625 40.671875 12.859375 48.328125 
Q 20.21875 56 33.015625 56 
Q 37.15625 56 41.109375 55.140625 
Q 45.0625 54.296875 48.78125 52.59375 
z
" id="DejaVuSans-99"/>
      <path d="M 18.3125 70.21875 
L 18.3125 54.6875 
L 36.8125 54.6875 
L 36.8125 47.703125 
L 18.3125 47.703125 
L 18.3125 18.015625 
Q 18.3125 11.328125 20.140625 9.421875 
Q 21.96875 7.515625 27.59375 7.515625 
L 36.8125 7.515625 
L 36.8125 0 
L 27.59375 0 
Q 17.1875 0 13.234375 3.875 
Q 9.28125 7.765625 9.28125 18.015625 
L 9.28125 47.703125 
L 2.6875 47.703125 
L 2.6875 54.6875 
L 9.28125 54.6875 
L 9.28125 70.21875 
z
" id="DejaVuSans-116"/>
      <path d="M 8.5 21.578125 
L 8.5 54.6875 
L 17.484375 54.6875 
L 17.484375 21.921875 
Q 17.484375 14.15625 20.5 10.265625 
Q 23.53125 6.390625 29.59375 6.390625 
Q 36.859375 6.390625 41.078125 11.03125 
Q 45.3125 15.671875 45.3125 23.6875 
L 45.3125 54.6875 
L 54.296875 54.6875 
L 54.296875 0 
L 45.3125 0 
L 45.3125 8.40625 
Q 42.046875 3.421875 37.71875 1 
Q 33.40625 -1.421875 27.6875 -1.421875 
Q 18.265625 -1.421875 13.375 4.4375 
Q 8.5 10.296875 8.5 21.578125 
z
M 31.109375 56 
z
" id="DejaVuSans-117"/>
      <path d="M 11.71875 12.40625 
L 22.015625 12.40625 
L 22.015625 4 
L 14.015625 -11.625 
L 7.71875 -11.625 
L 11.71875 4 
z
" id="DejaVuSans-44"/>
      <path d="M 18.109375 8.203125 
L 18.109375 -20.796875 
L 9.078125 -20.796875 
L 9.078125 54.6875 
L 18.109375 54.6875 
L 18.109375 46.390625 
Q 20.953125 51.265625 25.265625 53.625 
Q 29.59375 56 35.59375 56 
Q 45.5625 56 51.78125 48.09375 
Q 58.015625 40.1875 58.015625 27.296875 
Q 58.015625 14.40625 51.78125 6.484375 
Q 45.5625 -1.421875 35.59375 -1.421875 
Q 29.59375 -1.421875 25.265625 0.953125 
Q 20.953125 3.328125 18.109375 8.203125 
z
M 48.6875 27.296875 
Q 48.6875 37.203125 44.609375 42.84375 
Q 40.53125 48.484375 33.40625 48.484375 
Q 26.265625 48.484375 22.1875 42.84375 
Q 18.109375 37.203125 18.109375 27.296875 
Q 18.109375 17.390625 22.1875 11.75 
Q 26.265625 6.109375 33.40625 6.109375 
Q 40.53125 6.109375 44.609375 11.75 
Q 48.6875 17.390625 48.6875 27.296875 
z
" id="DejaVuSans-112"/>
     </defs>
     <g transform="translate(17.619531 305.347375)rotate(-90)scale(0.17 -0.17)">
      <use xlink:href="#DejaVuSans-70"/>
      <use x="57.410156" xlink:href="#DejaVuSans-114"/>
      <use x="98.523438" xlink:href="#DejaVuSans-97"/>
      <use x="159.802734" xlink:href="#DejaVuSans-99"/>
      <use x="214.783203" xlink:href="#DejaVuSans-116"/>
      <use x="253.992188" xlink:href="#DejaVuSans-105"/>
      <use x="281.775391" xlink:href="#DejaVuSans-111"/>
      <use x="342.957031" xlink:href="#DejaVuSans-110"/>
      <use x="406.335938" xlink:href="#DejaVuSans-32"/>
      <use x="438.123047" xlink:href="#DejaVuSans-111"/>
      <use x="499.304688" xlink:href="#DejaVuSans-102"/>
      <use x="534.509766" xlink:href="#DejaVuSans-32"/>
      <use x="566.296875" xlink:href="#DejaVuSans-102"/>
      <use x="601.501953" xlink:href="#DejaVuSans-117"/>
      <use x="664.880859" xlink:href="#DejaVuSans-110"/>
      <use x="728.259766" xlink:href="#DejaVuSans-99"/>
      <use x="783.240234" xlink:href="#DejaVuSans-116"/>
      <use x="822.449219" xlink:href="#DejaVuSans-105"/>
      <use x="850.232422" xlink:href="#DejaVuSans-111"/>
      <use x="911.414062" xlink:href="#DejaVuSans-110"/>
      <use x="974.792969" xlink:href="#DejaVuSans-44"/>
      <use x="1006.580078" xlink:href="#DejaVuSans-116"/>
      <use x="1045.789062" xlink:href="#DejaVuSans-97"/>
      <use x="1107.068359" xlink:href="#DejaVuSans-114"/>
      <use x="1148.166016" xlink:href="#DejaVuSans-103"/>
      <use x="1211.642578" xlink:href="#DejaVuSans-101"/>
      <use x="1273.166016" xlink:href="#DejaVuSans-116"/>
      <use x="1312.375" xlink:href="#DejaVuSans-32"/>
      <use x="1344.162109" xlink:href="#DejaVuSans-112"/>
      <use x="1407.638672" xlink:href="#DejaVuSans-97"/>
      <use x="1468.917969" xlink:href="#DejaVuSans-105"/>
      <use x="1496.701172" xlink:href="#DejaVuSans-114"/>
      <use x="1537.814453" xlink:href="#DejaVuSans-115"/>
     </g>
    </g>
   </g>
   <g id="line2d_41">
    <defs>
     <path d="M 0 1.5 
C 0.397805 1.5 0.77937 1.341951 1.06066 1.06066 
C 1.341951 0.77937 1.5 0.397805 1.5 0 
C 1.5 -0.397805 1.341951 -0.77937 1.06066 -1.06066 
C 0.77937 -1.341951 0.397805 -1.5 0 -1.5 
C -0.397805 -1.5 -0.77937 -1.341951 -1.06066 -1.06066 
C -1.341951 -0.77937 -1.5 -0.397805 -1.5 0 
C -1.5 0.397805 -1.341951 0.77937 -1.06066 1.06066 
C -0.77937 1.341951 -0.397805 1.5 0 1.5 
z
" id="mc0ff5d1e6c" style="stroke:#f5deb3;"/>
    </defs>
    <g>
     <use style="fill:#f5deb3;stroke:#f5deb3;" x="296.874947" xlink:href="#mc0ff5d1e6c" y="143.646219"/>
     <use style="fill:#f5deb3;stroke:#f5deb3;" x="296.874947" xlink:href="#mc0ff5d1e6c" y="143.646219"/>
    </g>
   </g>
   <g id="line2d_42">
    <defs>
     <path d="M 0 1.5 
C 0.397805 1.5 0.77937 1.341951 1.06066 1.06066 
C 1.341951 0.77937 1.5 0.397805 1.5 0 
C 1.5 -0.397805 1.341951 -0.77937 1.06066 -1.06066 
C 0.77937 -1.341951 0.397805 -1.5 0 -1.5 
C -0.397805 -1.5 -0.77937 -1.341951 -1.06066 -1.06066 
C -1.341951 -0.77937 -1.5 -0.397805 -1.5 0 
C -1.5 0.397805 -1.341951 0.77937 -1.06066 1.06066 
C -0.77937 1.341951 -0.397805 1.5 0 1.5 
z
" id="m0c70d030ad" style="stroke:#00bfbf;"/>
    </defs>
    <g>
     <use style="fill:#00bfbf;stroke:#00bfbf;" x="257.66995" xlink:href="#m0c70d030ad" y="170.750077"/>
     <use style="fill:#00bfbf;stroke:#00bfbf;" x="257.66995" xlink:href="#m0c70d030ad" y="170.750077"/>
    </g>
   </g>
   <g id="line2d_43">
    <path d="M -1 283.560729 
L 61.139142 283.560729 
L 61.139142 283.414222 
L 123.07053 283.414222 
L 123.080737 283.121207 
L 125.029024 283.121207 
L 125.065488 282.828193 
L 126.25349 282.828193 
L 126.346817 282.535178 
L 127.54831 282.535178 
L 127.54831 282.388671 
L 128.282949 282.388671 
L 128.298087 281.949149 
L 129.88095 281.949149 
L 129.88095 281.802641 
L 130.411722 281.802641 
L 130.511968 281.070104 
L 131.095188 281.070104 
L 131.095188 280.77709 
L 131.715598 280.77709 
L 131.715598 280.484075 
L 131.968748 280.484075 
L 132.036046 279.898046 
L 132.314693 279.898046 
L 132.398622 279.165509 
L 132.446401 279.165509 
L 132.446401 278.872494 
L 132.92293 278.872494 
L 132.92293 278.725987 
L 133.061659 278.725987 
L 133.061659 278.57948 
L 133.493825 278.57948 
L 133.589045 277.700436 
L 134.052062 277.700436 
L 134.052062 277.553928 
L 134.219879 277.553928 
L 134.225266 277.260914 
L 134.518998 277.260914 
L 134.518998 276.967899 
L 134.65615 276.967899 
L 134.65615 276.821392 
L 134.802655 276.821392 
L 134.802655 276.528377 
L 135.148305 276.528377 
L 135.148305 276.38187 
L 135.316065 276.38187 
L 135.326181 275.942348 
L 135.621981 275.942348 
L 135.666666 275.649333 
L 136.107322 275.649333 
L 136.194133 275.209811 
L 136.222974 275.209811 
L 136.299652 274.770289 
L 136.342635 274.770289 
L 136.342635 274.623781 
L 136.593632 274.623781 
L 136.687417 274.330767 
L 137.496142 274.330767 
L 137.562985 273.59823 
L 137.607405 273.59823 
L 137.717962 273.158708 
L 137.967443 273.158708 
L 138.00651 272.719186 
L 138.153314 272.719186 
L 138.153314 272.572679 
L 138.349983 272.572679 
L 138.354234 272.133157 
L 138.477062 272.133157 
L 138.477062 271.986649 
L 138.811478 271.986649 
L 138.811478 271.840142 
L 139.009092 271.840142 
L 139.009092 271.693635 
L 139.180187 271.693635 
L 139.281238 271.107605 
L 139.608633 271.107605 
L 139.620495 270.375069 
L 139.972658 270.375069 
L 139.988145 270.082054 
L 140.333034 270.082054 
L 140.374723 269.496025 
L 140.446497 269.496025 
L 140.446497 269.20301 
L 140.745506 269.20301 
L 140.786222 268.763488 
L 141.090414 268.763488 
L 141.195459 268.177459 
L 141.460673 268.177459 
L 141.538749 267.444922 
L 141.975847 267.444922 
L 141.975847 267.298414 
L 142.164753 267.298414 
L 142.249947 266.272863 
L 142.479593 266.272863 
L 142.479593 265.979848 
L 142.972457 265.979848 
L 142.998529 265.540326 
L 143.141236 265.540326 
L 143.196061 264.661282 
L 143.260342 264.661282 
L 143.295595 264.22176 
L 143.47714 264.22176 
L 143.518281 263.196209 
L 143.65995 263.196209 
L 143.65995 263.049702 
L 143.853271 263.049702 
L 143.884252 262.756687 
L 144.10265 262.756687 
L 144.157586 262.317165 
L 144.399676 262.317165 
L 144.411693 261.877643 
L 144.783103 261.877643 
L 144.885696 261.584628 
L 144.917816 261.584628 
L 145.002211 260.998599 
L 145.034117 260.998599 
L 145.117953 260.412569 
L 145.290137 260.412569 
L 145.401152 259.680033 
L 145.449323 259.680033 
L 145.449323 259.387018 
L 145.607069 259.387018 
L 145.702152 258.947496 
L 145.841045 258.947496 
L 145.932112 258.507974 
L 146.148208 258.507974 
L 146.148208 258.361467 
L 146.396535 258.361467 
L 146.396535 258.214959 
L 146.530027 258.214959 
L 146.530027 257.921945 
L 146.786123 257.921945 
L 146.786123 257.62893 
L 146.98418 257.62893 
L 146.98418 257.335915 
L 147.100399 257.335915 
L 147.100399 257.042901 
L 147.259265 257.042901 
L 147.259265 256.896393 
L 147.424279 256.896393 
L 147.48985 255.724335 
L 147.582739 255.724335 
L 147.645223 255.284813 
L 147.791804 255.284813 
L 147.791804 255.138305 
L 147.927346 255.138305 
L 148.003281 254.552276 
L 148.064279 254.552276 
L 148.103206 254.259261 
L 148.207394 254.259261 
L 148.313364 253.087202 
L 148.444928 253.087202 
L 148.444928 252.940695 
L 148.643965 252.940695 
L 148.712156 252.354666 
L 148.836097 252.354666 
L 148.931374 251.915144 
L 148.96379 251.915144 
L 148.96379 251.768636 
L 149.320967 251.768636 
L 149.363974 251.329114 
L 149.492362 251.329114 
L 149.557321 251.0361 
L 149.650973 251.0361 
L 149.719776 250.596578 
L 149.770648 250.596578 
L 149.803746 250.303563 
L 149.953007 250.303563 
L 149.953007 250.157056 
L 150.068464 250.157056 
L 150.114 249.424519 
L 150.290678 249.424519 
L 150.290678 249.278012 
L 150.452846 249.278012 
L 150.452846 249.131504 
L 150.573489 249.131504 
L 150.651357 248.398968 
L 150.764382 248.398968 
L 150.849711 247.959446 
L 150.893255 247.959446 
L 150.980018 247.519924 
L 151.012957 247.519924 
L 151.054044 247.226909 
L 151.274255 247.226909 
L 151.353097 246.347865 
L 151.463683 246.347865 
L 151.501723 246.05485 
L 151.66495 246.05485 
L 151.761763 245.615328 
L 151.858043 245.615328 
L 151.92649 244.882791 
L 151.975216 244.882791 
L 151.975216 244.736284 
L 152.15722 244.736284 
L 152.241765 243.710733 
L 152.453245 243.710733 
L 152.55709 243.417718 
L 152.664063 243.417718 
L 152.736878 242.831689 
L 152.785253 242.831689 
L 152.809391 242.538674 
L 153.274417 242.538674 
L 153.274417 242.392167 
L 153.649739 242.392167 
L 153.649739 242.245659 
L 153.892053 242.245659 
L 153.979023 241.65963 
L 154.062109 241.65963 
L 154.129325 240.780586 
L 154.227102 240.780586 
L 154.227102 240.487571 
L 154.356623 240.487571 
L 154.407486 239.755034 
L 154.56087 239.755034 
L 154.622851 239.169005 
L 154.972161 239.169005 
L 155.052289 238.87599 
L 155.237298 238.87599 
L 155.290488 238.436468 
L 155.372374 238.436468 
L 155.476185 238.143454 
L 155.554035 238.143454 
L 155.554035 237.850439 
L 155.694554 237.850439 
L 155.710272 237.557424 
L 155.827709 237.557424 
L 155.910223 236.971395 
L 156.043289 236.971395 
L 156.097155 236.531873 
L 156.155449 236.531873 
L 156.155449 236.385366 
L 156.315521 236.385366 
L 156.327657 236.092351 
L 156.483156 236.092351 
L 156.495176 235.799336 
L 156.736812 235.799336 
L 156.776762 235.359814 
L 156.98245 235.359814 
L 157.071319 234.773785 
L 157.358125 234.773785 
L 157.359554 234.48077 
L 157.621996 234.48077 
L 157.731474 234.187756 
L 157.790141 234.187756 
L 157.826359 233.748234 
L 157.971867 233.748234 
L 158.059965 233.308712 
L 158.158546 233.308712 
L 158.222599 232.869189 
L 158.465753 232.869189 
L 158.504613 232.136653 
L 158.745213 232.136653 
L 158.834754 231.697131 
L 158.861002 231.697131 
L 158.964298 231.111101 
L 158.977329 231.111101 
L 158.983842 230.671579 
L 159.380382 230.671579 
L 159.404551 230.378565 
L 159.550127 230.378565 
L 159.604249 229.939043 
L 159.758143 229.939043 
L 159.758143 229.792535 
L 159.881029 229.792535 
L 159.991998 229.353013 
L 159.996914 229.353013 
L 159.996914 229.059999 
L 160.333991 229.059999 
L 160.344835 228.766984 
L 160.599515 228.766984 
L 160.599515 228.620477 
L 160.749615 228.620477 
L 160.830627 228.180955 
L 161.191169 228.180955 
L 161.192316 227.741433 
L 161.386278 227.741433 
L 161.420284 227.301911 
L 161.530909 227.301911 
L 161.570249 227.008896 
L 161.756743 227.008896 
L 161.756743 226.862389 
L 161.895041 226.862389 
L 161.96872 226.422867 
L 162.02022 226.422867 
L 162.02022 226.276359 
L 162.303474 226.276359 
L 162.303474 225.983344 
L 162.459939 225.983344 
L 162.521708 225.543822 
L 162.658313 225.543822 
L 162.658313 225.250808 
L 162.821048 225.250808 
L 162.821048 224.957793 
L 162.938738 224.957793 
L 162.968813 224.664778 
L 163.09786 224.664778 
L 163.194278 224.225256 
L 163.340956 224.225256 
L 163.348054 223.785734 
L 163.601707 223.785734 
L 163.700355 223.346212 
L 163.803388 223.346212 
L 163.803388 223.053198 
L 163.916614 223.053198 
L 164.019357 222.320661 
L 164.042756 222.320661 
L 164.042756 222.174154 
L 164.333587 222.174154 
L 164.333587 221.881139 
L 164.621532 221.881139 
L 164.712717 221.441617 
L 164.815548 221.441617 
L 164.815548 221.29511 
L 164.991751 221.29511 
L 164.991751 221.002095 
L 165.161623 221.002095 
L 165.262757 220.70908 
L 165.400303 220.70908 
L 165.400303 220.562573 
L 165.700557 220.562573 
L 165.700557 220.416066 
L 166.295407 220.416066 
L 166.295407 220.269558 
L 166.407217 220.269558 
L 166.407217 220.123051 
L 166.534369 220.123051 
L 166.534369 219.976544 
L 166.764268 219.976544 
L 166.764268 219.683529 
L 166.876434 219.683529 
L 166.933486 218.804485 
L 167.093718 218.804485 
L 167.145172 218.51147 
L 167.319635 218.51147 
L 167.319635 218.218455 
L 167.559395 218.218455 
L 167.598375 217.778933 
L 167.784115 217.778933 
L 167.833575 217.485919 
L 167.933635 217.485919 
L 168.032349 216.753382 
L 168.172846 216.753382 
L 168.261041 216.31386 
L 168.399715 216.31386 
L 168.399715 216.020845 
L 168.566635 216.020845 
L 168.566635 215.727831 
L 168.705893 215.727831 
L 168.705893 215.434816 
L 168.847006 215.434816 
L 168.929657 214.848787 
L 168.996523 214.848787 
L 169.07701 214.11625 
L 169.133131 214.11625 
L 169.178188 209.574522 
L 169.447543 209.574522 
L 169.4654 209.135 
L 169.777437 209.135 
L 169.777437 208.988493 
L 170.066064 208.988493 
L 170.14658 208.548971 
L 170.28336 208.548971 
L 170.28336 208.109449 
L 170.520844 208.109449 
L 170.621355 207.376912 
L 170.641388 207.376912 
L 170.696027 206.93739 
L 170.883296 206.93739 
L 170.941776 206.497868 
L 171.064015 206.497868 
L 171.064015 206.351361 
L 171.421846 206.351361 
L 171.483639 206.058346 
L 171.657014 206.058346 
L 171.716099 205.472317 
L 171.839902 205.472317 
L 171.909545 204.300258 
L 171.956025 204.300258 
L 172.011639 201.809633 
L 172.294365 201.809633 
L 172.294365 201.663126 
L 172.457497 201.663126 
L 172.458099 201.370111 
L 172.577957 201.370111 
L 172.577957 201.223604 
L 172.689877 201.223604 
L 172.689877 201.077097 
L 172.988173 201.077097 
L 173.083581 200.491067 
L 173.367854 200.491067 
L 173.367854 200.198053 
L 173.677313 200.198053 
L 173.677313 199.905038 
L 173.979172 199.905038 
L 173.987437 199.319009 
L 174.66807 199.319009 
L 174.66807 199.172501 
L 174.781076 199.172501 
L 174.882892 198.732979 
L 175.471494 198.732979 
L 175.471494 198.586472 
L 175.940696 198.586472 
L 175.940696 198.293457 
L 176.131232 198.293457 
L 176.131232 198.14695 
L 176.847522 198.14695 
L 176.847522 198.000442 
L 177.310271 198.000442 
L 177.310271 197.707428 
L 177.45491 197.707428 
L 177.45491 197.56092 
L 177.761059 197.56092 
L 177.800059 197.267906 
L 177.941586 197.267906 
L 178.018262 196.535369 
L 178.196592 196.535369 
L 178.239812 196.095847 
L 178.368833 196.095847 
L 178.368833 195.94934 
L 178.489249 195.94934 
L 178.489249 195.802832 
L 178.941632 195.802832 
L 178.941632 195.509818 
L 179.064347 195.509818 
L 179.064347 195.216803 
L 179.529118 195.216803 
L 179.529118 195.070296 
L 179.651365 195.070296 
L 179.651365 194.777281 
L 179.886249 194.777281 
L 179.886249 194.484266 
L 180.145896 194.484266 
L 180.145896 194.337759 
L 181.666891 194.337759 
L 181.666891 194.191252 
L 181.817674 194.191252 
L 181.923185 193.75173 
L 182.705668 193.75173 
L 182.705668 193.605222 
L 183.492595 193.605222 
L 183.555086 193.1657 
L 183.646821 193.1657 
L 183.646821 193.019193 
L 183.990085 193.019193 
L 184.01397 192.726178 
L 184.603122 192.726178 
L 184.603122 192.433164 
L 185.164896 192.433164 
L 185.205476 191.993642 
L 185.339586 191.993642 
L 185.441853 191.261105 
L 186.262811 191.261105 
L 186.262811 190.821583 
L 186.54553 190.821583 
L 186.54553 190.528568 
L 187.030695 190.528568 
L 187.127425 189.942539 
L 187.750682 189.942539 
L 187.750682 189.796031 
L 188.192407 189.796031 
L 188.192407 189.649524 
L 188.604169 189.649524 
L 188.675736 189.210002 
L 189.188477 189.210002 
L 189.188477 189.063495 
L 189.622413 189.063495 
L 189.622413 188.916987 
L 190.029135 188.916987 
L 190.029135 188.77048 
L 190.197818 188.77048 
L 190.197818 188.477465 
L 190.423154 188.477465 
L 190.423154 188.184451 
L 190.679703 188.184451 
L 190.679703 188.037943 
L 190.796283 188.037943 
L 190.810355 187.451914 
L 191.150894 187.451914 
L 191.150894 187.305407 
L 191.875766 187.305407 
L 191.875766 187.158899 
L 192.054181 187.158899 
L 192.054181 186.865885 
L 193.025017 186.865885 
L 193.025017 186.719377 
L 193.764452 186.719377 
L 193.764452 186.57287 
L 194.26031 186.57287 
L 194.26031 186.426363 
L 194.831374 186.426363 
L 194.846871 186.133348 
L 195.094778 186.133348 
L 195.196457 185.693826 
L 195.288779 185.693826 
L 195.288779 185.547319 
L 195.519952 185.547319 
L 195.519952 185.254304 
L 196.053999 185.254304 
L 196.053999 184.961289 
L 196.274697 184.961289 
L 196.330776 184.668274 
L 197.013874 184.668274 
L 197.013874 184.37526 
L 197.351273 184.37526 
L 197.351273 184.228752 
L 197.488663 184.228752 
L 197.582317 183.935738 
L 198.540506 183.935738 
L 198.540506 183.78923 
L 199.136666 183.78923 
L 199.136666 183.642723 
L 200.163888 183.642723 
L 200.163888 183.349708 
L 200.305504 183.349708 
L 200.305504 183.056694 
L 201.361507 183.056694 
L 201.451497 182.763679 
L 201.878371 182.763679 
L 201.878371 182.617172 
L 202.801924 182.617172 
L 202.801924 182.470664 
L 203.349502 182.470664 
L 203.349502 182.324157 
L 204.298736 182.324157 
L 204.298736 182.031142 
L 205.241319 182.031142 
L 205.241319 181.738128 
L 205.876616 181.738128 
L 205.876616 181.59162 
L 206.772877 181.59162 
L 206.772877 181.445113 
L 207.141254 181.445113 
L 207.141254 181.152098 
L 207.27285 181.152098 
L 207.27285 180.859084 
L 208.151 180.859084 
L 208.151 180.712576 
L 208.613105 180.712576 
L 208.613105 180.566069 
L 209.318368 180.566069 
L 209.318368 180.419562 
L 209.779314 180.419562 
L 209.8428 179.833532 
L 210.297683 179.833532 
L 210.297683 179.540518 
L 211.441841 179.540518 
L 211.441841 179.247503 
L 211.957969 179.247503 
L 212.057587 178.807981 
L 212.125745 178.807981 
L 212.125745 178.661474 
L 212.951441 178.661474 
L 212.951441 178.514966 
L 213.412657 178.514966 
L 213.430455 178.075444 
L 215.284459 178.075444 
L 215.284459 177.928937 
L 216.409571 177.928937 
L 216.409571 177.782429 
L 218.212731 177.782429 
L 218.212731 177.635922 
L 218.366512 177.635922 
L 218.366512 177.342907 
L 219.043157 177.342907 
L 219.043157 177.049893 
L 219.204988 177.049893 
L 219.204988 176.903385 
L 222.517441 176.903385 
L 222.517441 176.756878 
L 223.785969 176.756878 
L 223.785969 176.610371 
L 223.920945 176.610371 
L 223.920945 176.463863 
L 225.036214 176.463863 
L 225.036214 176.170849 
L 225.746309 176.170849 
L 225.850524 175.731327 
L 226.223306 175.731327 
L 226.223306 175.584819 
L 226.492064 175.584819 
L 226.492064 175.438312 
L 228.301008 175.438312 
L 228.301008 175.291805 
L 228.644067 175.291805 
L 228.644067 174.99879 
L 230.805472 174.99879 
L 230.805472 174.705775 
L 231.597265 174.705775 
L 231.597265 174.559268 
L 232.270652 174.559268 
L 232.270652 174.412761 
L 233.02068 174.412761 
L 233.02068 174.266253 
L 236.295552 174.266253 
L 236.295552 173.973239 
L 236.499493 173.973239 
L 236.499493 173.680224 
L 237.155087 173.680224 
L 237.155087 173.387209 
L 237.437309 173.387209 
L 237.437309 173.094195 
L 239.996614 173.094195 
L 239.996614 172.80118 
L 241.492041 172.80118 
L 241.492041 172.654673 
L 244.458494 172.654673 
L 244.51751 172.215151 
L 246.125568 172.215151 
L 246.125568 172.068643 
L 246.827557 172.068643 
L 246.8288 171.629121 
L 251.410682 171.629121 
L 251.410682 171.482614 
L 254.026825 171.482614 
L 254.026825 171.336107 
L 254.201072 171.336107 
L 254.201072 171.189599 
L 257.39496 171.189599 
L 257.39496 171.043092 
L 257.66995 171.043092 
L 257.66995 170.750077 
L 338.688 170.750077 
L 338.688 170.750077 
" style="fill:none;stroke:#00bfbf;stroke-linecap:square;stroke-width:1.5;"/>
   </g>
   <g id="line2d_44">
    <defs>
     <path d="M 0 -6 
L -5.706339 -1.854102 
L -3.526712 4.854102 
L 3.526712 4.854102 
L 5.706339 -1.854102 
z
" id="m74cd8f3ae7" style="stroke:#00bfbf;stroke-linejoin:miter;stroke-width:1.5;"/>
    </defs>
    <g>
     <use style="fill-opacity:0;stroke:#00bfbf;stroke-linejoin:miter;stroke-width:1.5;" x="137.620709" xlink:href="#m74cd8f3ae7" y="273.305215"/>
     <use style="fill-opacity:0;stroke:#00bfbf;stroke-linejoin:miter;stroke-width:1.5;" x="171.906441" xlink:href="#m74cd8f3ae7" y="204.593273"/>
     <use style="fill-opacity:0;stroke:#00bfbf;stroke-linejoin:miter;stroke-width:1.5;" x="257.66995" xlink:href="#m74cd8f3ae7" y="171.043092"/>
     <use style="fill-opacity:0;stroke:#00bfbf;stroke-linejoin:miter;stroke-width:1.5;" x="257.66995" xlink:href="#m74cd8f3ae7" y="170.750077"/>
     <use style="fill-opacity:0;stroke:#00bfbf;stroke-linejoin:miter;stroke-width:1.5;" x="338.688" xlink:href="#m74cd8f3ae7" y="170.750077"/>
    </g>
   </g>
   <g id="line2d_45">
    <path style="fill:none;stroke:#00bfbf;stroke-linecap:square;stroke-width:1.5;"/>
    <g/>
   </g>
   <g id="line2d_46">
    <path clip-path="url(#p2e4b739f5c)" d="M 258.377147 170.750077 
" style="fill:none;stroke:#00bfbf;stroke-linecap:square;stroke-width:1.5;"/>
    <defs>
     <path d="M -12 12 
L 12 -12 
M -12 -12 
L 12 12 
" id="ma224910c87" style="stroke:#00bfbf;"/>
    </defs>
    <g clip-path="url(#p2e4b739f5c)">
     <use style="fill:#00bfbf;stroke:#00bfbf;" x="258.377147" xlink:href="#ma224910c87" y="170.750077"/>
    </g>
   </g>
   <g id="line2d_47">
    <defs>
     <path d="M 0 1.5 
C 0.397805 1.5 0.77937 1.341951 1.06066 1.06066 
C 1.341951 0.77937 1.5 0.397805 1.5 0 
C 1.5 -0.397805 1.341951 -0.77937 1.06066 -1.06066 
C 0.77937 -1.341951 0.397805 -1.5 0 -1.5 
C -0.397805 -1.5 -0.77937 -1.341951 -1.06066 -1.06066 
C -1.341951 -0.77937 -1.5 -0.397805 -1.5 0 
C -1.5 0.397805 -1.341951 0.77937 -1.06066 1.06066 
C -0.77937 1.341951 -0.397805 1.5 0 1.5 
z
" id="m605010ae75" style="stroke:#000080;"/>
    </defs>
    <g>
     <use style="fill:#000080;stroke:#000080;" x="217.168096" xlink:href="#m605010ae75" y="206.93739"/>
     <use style="fill:#000080;stroke:#000080;" x="217.168096" xlink:href="#m605010ae75" y="206.93739"/>
    </g>
   </g>
   <g id="line2d_48">
    <path d="M -1 283.560729 
L 115.491886 283.560729 
L 115.491886 283.414222 
L 118.283474 283.414222 
L 118.283474 283.267715 
L 121.53454 283.267715 
L 121.53454 283.121207 
L 122.436305 283.121207 
L 122.436305 282.9747 
L 123.484209 282.9747 
L 123.484209 282.828193 
L 124.641468 282.828193 
L 124.641468 282.681685 
L 125.399222 282.681685 
L 125.399222 282.535178 
L 127.051614 282.535178 
L 127.051614 282.388671 
L 128.350967 282.388671 
L 128.350967 282.095656 
L 128.790417 282.095656 
L 128.790417 281.949149 
L 129.489668 281.949149 
L 129.489668 281.656134 
L 129.818655 281.656134 
L 129.818655 281.363119 
L 130.161959 281.363119 
L 130.209487 281.070104 
L 131.458719 281.070104 
L 131.458719 280.923597 
L 132.090915 280.923597 
L 132.090915 280.77709 
L 132.290639 280.77709 
L 132.290639 280.630582 
L 132.422528 280.630582 
L 132.422528 280.484075 
L 132.653908 280.484075 
L 132.653908 280.337568 
L 133.084673 280.337568 
L 133.084673 280.19106 
L 133.30181 280.19106 
L 133.30181 280.044553 
L 133.611375 280.044553 
L 133.611375 279.898046 
L 133.992124 279.898046 
L 133.992124 279.605031 
L 134.311226 279.605031 
L 134.311226 279.312016 
L 134.645638 279.312016 
L 134.740018 278.725987 
L 135.371629 278.725987 
L 135.437067 278.432972 
L 135.621981 278.432972 
L 135.621981 278.286465 
L 135.804956 278.286465 
L 135.804956 278.139958 
L 136.121821 278.139958 
L 136.121821 277.99345 
L 136.337864 277.99345 
L 136.337864 277.846943 
L 136.475687 277.846943 
L 136.508792 277.553928 
L 137.020928 277.553928 
L 137.066748 277.260914 
L 137.352682 277.260914 
L 137.352682 277.114406 
L 137.549637 277.114406 
L 137.549637 276.967899 
L 137.836582 276.967899 
L 137.836582 276.821392 
L 138.075748 276.821392 
L 138.075748 276.674884 
L 138.213405 276.674884 
L 138.213405 276.528377 
L 138.464395 276.528377 
L 138.536049 276.088855 
L 139.082624 276.088855 
L 139.119274 275.502826 
L 139.297352 275.502826 
L 139.297352 275.356318 
L 139.55317 275.356318 
L 139.55317 275.209811 
L 139.738675 275.209811 
L 139.738675 275.063304 
L 140.161442 275.063304 
L 140.188245 274.477274 
L 140.54049 274.477274 
L 140.54049 274.184259 
L 140.812083 274.184259 
L 140.89311 273.891245 
L 140.984732 273.891245 
L 140.984732 273.59823 
L 141.10857 273.59823 
L 141.10857 273.451723 
L 141.570589 273.451723 
L 141.602371 273.158708 
L 141.858037 273.158708 
L 141.927433 272.719186 
L 142.456092 272.719186 
L 142.456092 272.572679 
L 143.285988 272.572679 
L 143.34036 271.986649 
L 143.416835 271.986649 
L 143.499305 271.547127 
L 143.800477 271.547127 
L 143.809805 270.814591 
L 144.309286 270.814591 
L 144.309286 270.521576 
L 144.617689 270.521576 
L 144.691729 270.082054 
L 145.039911 270.082054 
L 145.097753 269.789039 
L 145.401152 269.789039 
L 145.401152 269.642532 
L 145.623886 269.642532 
L 145.623886 269.496025 
L 145.777292 269.496025 
L 145.777292 269.349517 
L 146.583139 269.349517 
L 146.651943 268.470473 
L 146.976404 268.470473 
L 146.976404 268.177459 
L 147.256714 268.177459 
L 147.256714 267.884444 
L 147.421752 267.884444 
L 147.421752 267.737936 
L 147.572721 267.737936 
L 147.572721 267.444922 
L 148.100776 267.444922 
L 148.100776 267.298414 
L 148.226709 267.298414 
L 148.284527 267.0054 
L 148.592055 267.0054 
L 148.592055 266.712385 
L 148.836097 266.712385 
L 148.836097 266.41937 
L 149.019218 266.41937 
L 149.019218 266.272863 
L 149.325499 266.272863 
L 149.366235 265.686834 
L 149.572965 265.686834 
L 149.572965 265.393819 
L 149.854375 265.393819 
L 149.854375 265.100804 
L 150.252048 265.100804 
L 150.252048 264.80779 
L 150.647157 264.80779 
L 150.647157 264.514775 
L 150.91602 264.514775 
L 150.91602 264.22176 
L 151.074551 264.22176 
L 151.074551 263.928746 
L 151.282358 263.928746 
L 151.357131 263.489224 
L 151.451653 263.489224 
L 151.487718 263.196209 
L 151.60541 263.196209 
L 151.68673 262.463672 
L 151.744022 262.463672 
L 151.836475 262.02415 
L 151.92649 262.02415 
L 151.92649 261.731136 
L 152.665934 261.731136 
L 152.714506 261.145106 
L 153.081856 261.145106 
L 153.114706 260.559077 
L 153.268996 260.559077 
L 153.346532 260.119555 
L 153.635588 260.119555 
L 153.635588 259.973047 
L 153.899026 259.973047 
L 153.918189 259.240511 
L 154.09144 259.240511 
L 154.192857 258.361467 
L 154.32093 258.361467 
L 154.32093 258.068452 
L 154.5944 258.068452 
L 154.694607 257.335915 
L 154.840544 257.335915 
L 154.840544 257.042901 
L 155.039232 257.042901 
L 155.102793 256.749886 
L 155.362761 256.749886 
L 155.362761 256.603379 
L 155.492101 256.603379 
L 155.561959 256.310364 
L 155.648891 256.310364 
L 155.648891 256.163857 
L 155.844867 256.163857 
L 155.94591 255.870842 
L 156.121723 255.870842 
L 156.135528 255.577827 
L 156.315521 255.577827 
L 156.348874 254.991798 
L 156.495176 254.991798 
L 156.495176 254.845291 
L 156.640261 254.845291 
L 156.640261 254.698783 
L 156.832832 254.698783 
L 156.832832 254.552276 
L 156.964915 254.552276 
L 156.964915 254.405769 
L 157.096005 254.405769 
L 157.203057 253.966247 
L 157.433721 253.966247 
L 157.51466 253.673232 
L 157.669802 253.673232 
L 157.756641 252.940695 
L 157.799899 252.940695 
L 157.894414 252.64768 
L 158.006333 252.64768 
L 158.006333 252.501173 
L 158.236197 252.501173 
L 158.304027 252.208158 
L 158.46307 252.208158 
L 158.563407 251.475622 
L 158.716146 251.475622 
L 158.716146 251.329114 
L 159.268002 251.329114 
L 159.370195 250.596578 
L 159.678237 250.596578 
L 159.730716 250.303563 
L 160.082713 250.303563 
L 160.171742 249.571026 
L 160.295382 249.571026 
L 160.364095 249.131504 
L 160.43853 249.131504 
L 160.540064 248.545475 
L 160.586453 248.545475 
L 160.586453 248.398968 
L 160.780185 248.398968 
L 160.79545 247.959446 
L 160.932239 247.959446 
L 160.932239 247.812938 
L 161.253018 247.812938 
L 161.253018 247.519924 
L 161.649781 247.519924 
L 161.74452 247.080402 
L 161.783382 247.080402 
L 161.783382 246.787387 
L 162.030064 246.787387 
L 162.134726 246.494372 
L 162.167305 246.494372 
L 162.167305 246.347865 
L 162.382953 246.347865 
L 162.382953 246.201357 
L 162.928355 246.201357 
L 162.936661 245.615328 
L 163.10917 245.615328 
L 163.14511 245.322313 
L 163.468294 245.322313 
L 163.550669 244.882791 
L 163.610698 244.882791 
L 163.699361 244.589777 
L 163.782632 244.589777 
L 163.782632 244.443269 
L 163.966594 244.443269 
L 164.044705 243.85724 
L 164.078769 243.85724 
L 164.189261 240.048049 
L 164.192159 240.048049 
L 164.276961 238.436468 
L 164.474827 238.436468 
L 164.474827 238.143454 
L 164.630954 238.143454 
L 164.672353 237.850439 
L 165.474058 237.850439 
L 165.474058 237.410917 
L 166.084354 237.410917 
L 166.084354 237.117902 
L 166.327915 237.117902 
L 166.431023 236.092351 
L 166.629549 236.092351 
L 166.681551 235.0668 
L 166.760933 235.0668 
L 166.802568 234.773785 
L 166.928532 234.773785 
L 166.928532 234.627278 
L 167.15251 234.627278 
L 167.233839 234.334263 
L 167.334162 234.334263 
L 167.334162 234.187756 
L 167.937532 234.187756 
L 168.023821 233.894741 
L 168.057134 233.894741 
L 168.057134 233.601726 
L 168.169001 233.601726 
L 168.169001 233.455219 
L 168.285503 233.455219 
L 168.285503 233.308712 
L 168.562877 233.308712 
L 168.66483 232.722682 
L 169.061673 232.722682 
L 169.135314 231.990145 
L 169.264344 231.990145 
L 169.275895 231.697131 
L 169.416069 231.697131 
L 169.440395 231.404116 
L 169.586349 231.404116 
L 169.664871 231.111101 
L 170.206211 231.111101 
L 170.206211 230.818087 
L 170.343883 230.818087 
L 170.343883 230.671579 
L 170.876054 230.671579 
L 170.912889 230.232057 
L 171.112802 230.232057 
L 171.112802 230.08555 
L 171.286026 230.08555 
L 171.384153 229.499521 
L 171.533804 229.499521 
L 171.533804 229.353013 
L 171.920091 229.353013 
L 171.967781 229.059999 
L 172.165198 229.059999 
L 172.253038 228.620477 
L 172.409924 228.620477 
L 172.490541 228.180955 
L 172.62567 228.180955 
L 172.62567 227.88794 
L 172.795776 227.88794 
L 172.795776 227.741433 
L 173.298079 227.741433 
L 173.298079 227.448418 
L 173.533168 227.448418 
L 173.533168 227.301911 
L 173.709247 227.301911 
L 173.709247 227.155403 
L 174.243898 227.155403 
L 174.243898 227.008896 
L 174.418892 227.008896 
L 174.526042 226.715881 
L 174.773179 226.715881 
L 174.773179 226.569374 
L 175.480598 226.569374 
L 175.529578 226.276359 
L 175.610573 226.276359 
L 175.610573 226.129852 
L 176.101979 226.129852 
L 176.191533 225.69033 
L 176.229358 225.69033 
L 176.229358 225.543822 
L 176.462729 225.543822 
L 176.568993 225.250808 
L 176.626381 225.250808 
L 176.626381 225.1043 
L 176.933338 225.1043 
L 176.933338 224.957793 
L 177.17865 224.957793 
L 177.222177 224.518271 
L 177.336659 224.518271 
L 177.336659 224.371764 
L 177.831903 224.371764 
L 177.831903 224.225256 
L 178.086329 224.225256 
L 178.086329 224.078749 
L 179.742689 224.078749 
L 179.742689 223.785734 
L 180.127699 223.785734 
L 180.127699 223.639227 
L 180.759545 223.639227 
L 180.759545 223.49272 
L 181.114189 223.49272 
L 181.114189 223.199705 
L 181.331014 223.199705 
L 181.331014 223.053198 
L 181.711874 223.053198 
L 181.791988 222.613676 
L 181.927029 222.613676 
L 181.992593 222.320661 
L 182.04681 222.320661 
L 182.04681 222.174154 
L 182.786344 222.174154 
L 182.882202 221.881139 
L 182.979181 221.881139 
L 182.979181 221.588124 
L 183.194943 221.588124 
L 183.194943 221.441617 
L 183.407106 221.441617 
L 183.407106 221.148602 
L 184.229933 221.148602 
L 184.229933 220.855588 
L 185.056024 220.855588 
L 185.147185 220.269558 
L 185.376896 220.269558 
L 185.433282 219.976544 
L 186.148811 219.976544 
L 186.206315 219.390514 
L 186.367134 219.390514 
L 186.367134 219.244007 
L 187.047114 219.244007 
L 187.047635 218.804485 
L 188.207525 218.804485 
L 188.207525 218.657977 
L 189.488403 218.657977 
L 189.488403 218.51147 
L 190.037257 218.51147 
L 190.037257 218.218455 
L 190.869877 218.218455 
L 190.869877 218.071948 
L 191.418131 218.071948 
L 191.418131 217.925441 
L 191.673143 217.925441 
L 191.673143 217.778933 
L 191.98111 217.778933 
L 191.98111 217.632426 
L 192.778469 217.632426 
L 192.815749 217.339411 
L 192.898827 217.339411 
L 192.898827 217.192904 
L 193.065095 217.192904 
L 193.065095 217.046397 
L 193.222665 217.046397 
L 193.258826 216.753382 
L 193.436168 216.753382 
L 193.436168 216.460367 
L 194.748992 216.460367 
L 194.748992 216.31386 
L 195.055981 216.31386 
L 195.055981 216.020845 
L 195.868843 216.020845 
L 195.868843 215.874338 
L 196.77885 215.874338 
L 196.77885 215.727831 
L 196.980009 215.727831 
L 196.980009 215.434816 
L 197.146932 215.434816 
L 197.187322 214.995294 
L 197.702217 214.995294 
L 197.702217 214.702279 
L 197.934829 214.702279 
L 197.934829 214.555772 
L 198.910144 214.555772 
L 198.910144 214.409265 
L 199.40138 214.409265 
L 199.40138 214.11625 
L 200.336048 214.11625 
L 200.336048 213.969743 
L 200.900335 213.969743 
L 200.900335 213.823235 
L 201.096516 213.823235 
L 201.096516 213.676728 
L 202.302433 213.676728 
L 202.302433 213.530221 
L 202.884797 213.530221 
L 202.970206 213.090699 
L 204.520129 213.090699 
L 204.540682 212.651177 
L 204.781578 212.651177 
L 204.889416 212.065147 
L 204.995194 212.065147 
L 204.995194 211.772132 
L 205.195187 211.772132 
L 205.195187 211.625625 
L 205.580591 211.625625 
L 205.585451 211.186103 
L 205.754692 211.186103 
L 205.754692 211.039596 
L 206.159256 211.039596 
L 206.159256 210.893088 
L 207.0389 210.893088 
L 207.0389 210.453566 
L 208.718756 210.453566 
L 208.79288 210.160552 
L 209.735466 210.160552 
L 209.735466 210.014044 
L 209.931042 210.014044 
L 209.931042 209.867537 
L 210.521903 209.867537 
L 210.521903 209.574522 
L 210.876984 209.574522 
L 210.876984 209.428015 
L 211.46151 209.428015 
L 211.46151 209.135 
L 211.995517 209.135 
L 211.995517 208.841986 
L 213.00609 208.841986 
L 213.00609 208.695478 
L 213.602897 208.695478 
L 213.656735 208.255956 
L 214.642865 208.255956 
L 214.642865 207.962942 
L 216.328845 207.962942 
L 216.328845 207.669927 
L 216.760205 207.669927 
L 216.760205 207.376912 
L 217.00641 207.376912 
L 217.00641 207.083898 
L 217.168096 207.083898 
L 217.168096 206.93739 
L 338.688 206.93739 
L 338.688 206.93739 
" style="fill:none;stroke:#000080;stroke-linecap:square;stroke-width:1.5;"/>
   </g>
   <g id="line2d_49">
    <defs>
     <path d="M -0 6 
L 6 -6 
L -6 -6 
z
" id="m94fdf76057" style="stroke:#000080;stroke-linejoin:miter;stroke-width:1.5;"/>
    </defs>
    <g>
     <use style="fill-opacity:0;stroke:#000080;stroke-linejoin:miter;stroke-width:1.5;" x="139.119274" xlink:href="#m94fdf76057" y="275.79584"/>
     <use style="fill-opacity:0;stroke:#000080;stroke-linejoin:miter;stroke-width:1.5;" x="195.868843" xlink:href="#m94fdf76057" y="215.874338"/>
     <use style="fill-opacity:0;stroke:#000080;stroke-linejoin:miter;stroke-width:1.5;" x="217.168096" xlink:href="#m94fdf76057" y="207.083898"/>
     <use style="fill-opacity:0;stroke:#000080;stroke-linejoin:miter;stroke-width:1.5;" x="217.168096" xlink:href="#m94fdf76057" y="206.93739"/>
     <use style="fill-opacity:0;stroke:#000080;stroke-linejoin:miter;stroke-width:1.5;" x="338.688" xlink:href="#m94fdf76057" y="206.93739"/>
    </g>
   </g>
   <g id="line2d_50">
    <path style="fill:none;stroke:#000080;stroke-linecap:square;stroke-width:1.5;"/>
    <g/>
   </g>
   <g id="line2d_51">
    <path clip-path="url(#p2e4b739f5c)" d="M 218.226117 206.93739 
" style="fill:none;stroke:#000080;stroke-linecap:square;stroke-width:1.5;"/>
    <defs>
     <path d="M -12 12 
L 12 -12 
M -12 -12 
L 12 12 
" id="m9874ab2071" style="stroke:#000080;"/>
    </defs>
    <g clip-path="url(#p2e4b739f5c)">
     <use style="fill:#000080;stroke:#000080;" x="218.226117" xlink:href="#m9874ab2071" y="206.93739"/>
    </g>
   </g>
   <g id="line2d_52">
    <defs>
     <path d="M 0 1.5 
C 0.397805 1.5 0.77937 1.341951 1.06066 1.06066 
C 1.341951 0.77937 1.5 0.397805 1.5 0 
C 1.5 -0.397805 1.341951 -0.77937 1.06066 -1.06066 
C 0.77937 -1.341951 0.397805 -1.5 0 -1.5 
C -0.397805 -1.5 -0.77937 -1.341951 -1.06066 -1.06066 
C -1.341951 -0.77937 -1.5 -0.397805 -1.5 0 
C -1.5 0.397805 -1.341951 0.77937 -1.06066 1.06066 
C -0.77937 1.341951 -0.397805 1.5 0 1.5 
z
" id="mf421812afb" style="stroke:#6495ed;"/>
    </defs>
    <g>
     <use style="fill:#6495ed;stroke:#6495ed;" x="177.979309" xlink:href="#mf421812afb" y="229.939043"/>
     <use style="fill:#6495ed;stroke:#6495ed;" x="177.979309" xlink:href="#mf421812afb" y="229.939043"/>
    </g>
   </g>
   <g id="line2d_53">
    <path d="M -1 283.560729 
L 119.490242 283.560729 
L 119.490242 283.414222 
L 126.236468 283.414222 
L 126.236468 283.267715 
L 128.664928 283.267715 
L 128.664928 283.121207 
L 129.147151 283.121207 
L 129.240582 282.828193 
L 130.189133 282.828193 
L 130.189133 282.681685 
L 130.965816 282.681685 
L 130.965816 282.535178 
L 131.230004 282.535178 
L 131.230004 282.388671 
L 131.382813 282.388671 
L 131.382813 282.242163 
L 132.157744 282.242163 
L 132.157744 281.949149 
L 132.899701 281.949149 
L 132.911319 281.656134 
L 133.415016 281.656134 
L 133.415016 281.509626 
L 133.644815 281.509626 
L 133.672633 281.070104 
L 133.888106 281.070104 
L 133.888106 280.923597 
L 134.214491 280.923597 
L 134.214491 280.77709 
L 134.423411 280.77709 
L 134.492498 280.484075 
L 135.112511 280.484075 
L 135.122746 280.19106 
L 135.255248 280.19106 
L 135.255248 280.044553 
L 136.078289 280.044553 
L 136.078289 279.751538 
L 136.385513 279.751538 
L 136.46148 279.458524 
L 136.631207 279.458524 
L 136.631207 279.165509 
L 136.915081 279.165509 
L 136.915081 279.019002 
L 137.121574 279.019002 
L 137.194409 278.57948 
L 137.513992 278.57948 
L 137.620709 277.700436 
L 137.958749 277.700436 
L 137.958749 277.553928 
L 138.12319 277.553928 
L 138.12319 277.407421 
L 138.243373 277.407421 
L 138.264747 276.821392 
L 138.366981 276.821392 
L 138.430574 276.38187 
L 138.54446 276.38187 
L 138.619973 275.79584 
L 138.753416 275.79584 
L 138.753416 275.649333 
L 138.996807 275.649333 
L 139.066311 275.356318 
L 139.196394 275.356318 
L 139.232806 274.916796 
L 139.321494 274.916796 
L 139.321494 274.770289 
L 139.549201 274.770289 
L 139.640247 274.477274 
L 140.007486 274.477274 
L 140.007486 274.330767 
L 140.604116 274.330767 
L 140.604116 274.184259 
L 140.749212 274.184259 
L 140.845276 273.891245 
L 140.940814 273.891245 
L 141.043119 273.451723 
L 141.181008 273.451723 
L 141.285511 273.012201 
L 141.317815 273.012201 
L 141.317815 272.865693 
L 141.54229 272.865693 
L 141.584721 272.426171 
L 142.137402 272.426171 
L 142.232942 271.840142 
L 142.270332 271.840142 
L 142.324576 271.40062 
L 142.523153 271.40062 
L 142.536534 271.107605 
L 142.663148 271.107605 
L 142.663148 270.961098 
L 143.053804 270.961098 
L 143.105668 270.668083 
L 143.212153 270.668083 
L 143.212153 270.521576 
L 143.521442 270.521576 
L 143.521442 270.228561 
L 144.053672 270.228561 
L 144.10265 269.642532 
L 144.471653 269.642532 
L 144.471653 269.496025 
L 144.691729 269.496025 
L 144.697638 269.056503 
L 145.115068 269.056503 
L 145.117953 268.616981 
L 145.581813 268.616981 
L 145.682619 267.591429 
L 145.896294 267.591429 
L 145.954117 267.0054 
L 146.13461 267.0054 
L 146.140051 266.41937 
L 146.272814 266.41937 
L 146.364344 265.833341 
L 146.442037 265.833341 
L 146.522046 265.540326 
L 146.628157 265.540326 
L 146.69415 265.247312 
L 147.180013 265.247312 
L 147.274563 264.80779 
L 147.391401 264.80779 
L 147.391401 264.514775 
L 147.522543 264.514775 
L 147.522543 264.22176 
L 147.677627 264.22176 
L 147.774477 263.489224 
L 148.044783 263.489224 
L 148.06915 263.049702 
L 148.437777 263.049702 
L 148.471122 262.61018 
L 148.667509 262.61018 
L 148.667509 262.463672 
L 148.784757 262.463672 
L 148.831436 262.02415 
L 149.090554 262.02415 
L 149.195872 261.584628 
L 149.345879 261.584628 
L 149.436168 261.145106 
L 149.525992 261.145106 
L 149.577432 260.852091 
L 150.081486 260.852091 
L 150.152936 260.559077 
L 150.47195 260.559077 
L 150.579816 259.680033 
L 150.617727 259.680033 
L 150.617727 259.533525 
L 150.835172 259.533525 
L 150.835172 259.240511 
L 150.998554 259.240511 
L 150.998554 258.947496 
L 151.338972 258.947496 
L 151.375271 258.507974 
L 151.471698 258.507974 
L 151.519713 258.068452 
L 151.682772 258.068452 
L 151.771612 257.482423 
L 151.979109 257.482423 
L 151.979109 257.189408 
L 152.093541 257.189408 
L 152.109 256.749886 
L 152.26858 256.749886 
L 152.379233 256.310364 
L 152.403939 256.310364 
L 152.403939 256.163857 
L 152.547675 256.163857 
L 152.55709 255.870842 
L 152.723831 255.870842 
L 152.775961 255.577827 
L 152.905608 255.577827 
L 152.944315 255.138305 
L 153.172952 255.138305 
L 153.211071 254.698783 
L 153.416559 254.698783 
L 153.416559 254.552276 
L 153.575318 254.552276 
L 153.575318 254.405769 
L 153.725604 254.405769 
L 153.836163 253.966247 
L 153.911223 253.966247 
L 153.999832 253.526724 
L 154.392243 253.526724 
L 154.471701 253.087202 
L 154.59105 253.087202 
L 154.647916 252.501173 
L 154.787617 252.501173 
L 154.789273 252.061651 
L 154.993456 252.061651 
L 155.071857 251.622129 
L 155.219531 251.622129 
L 155.219531 251.475622 
L 155.442713 251.475622 
L 155.51277 251.0361 
L 155.557205 251.0361 
L 155.593621 250.743085 
L 155.703987 250.743085 
L 155.703987 250.596578 
L 156.049454 250.596578 
L 156.140127 250.303563 
L 156.196751 250.303563 
L 156.306413 249.571026 
L 156.350389 249.571026 
L 156.391232 249.131504 
L 156.514691 249.131504 
L 156.516191 248.83849 
L 156.64324 248.83849 
L 156.64324 248.691982 
L 156.879909 248.691982 
L 156.893127 248.398968 
L 157.345255 248.398968 
L 157.452214 248.105953 
L 157.494815 248.105953 
L 157.494815 247.959446 
L 157.613546 247.959446 
L 157.613546 247.812938 
L 158.025604 247.812938 
L 158.025604 247.519924 
L 158.187194 247.519924 
L 158.187194 247.373416 
L 158.437559 247.373416 
L 158.446962 246.933894 
L 158.627322 246.933894 
L 158.627322 246.787387 
L 158.855755 246.787387 
L 158.855755 246.640879 
L 159.225672 246.640879 
L 159.278248 246.201357 
L 159.424878 246.201357 
L 159.454056 245.761835 
L 159.660709 245.761835 
L 159.660709 245.468821 
L 160.006741 245.468821 
L 160.069258 245.029299 
L 160.120575 245.029299 
L 160.137647 244.736284 
L 160.378527 244.736284 
L 160.402553 244.443269 
L 160.588828 244.443269 
L 160.588828 244.150255 
L 160.734309 244.150255 
L 160.737843 243.85724 
L 161.085287 243.85724 
L 161.085287 243.564225 
L 161.320345 243.564225 
L 161.353343 243.271211 
L 161.518527 243.271211 
L 161.518527 242.978196 
L 161.984076 242.978196 
L 162.080293 242.538674 
L 162.327141 242.538674 
L 162.395808 242.099152 
L 162.505755 242.099152 
L 162.505755 241.806137 
L 162.704664 241.806137 
L 162.704664 241.65963 
L 162.880513 241.65963 
L 162.987455 241.220108 
L 163.083454 241.220108 
L 163.083454 241.073601 
L 163.27999 241.073601 
L 163.343998 240.341064 
L 163.45923 240.341064 
L 163.551671 239.608527 
L 163.571703 239.608527 
L 163.623677 235.652829 
L 163.779665 235.652829 
L 163.779665 235.506322 
L 163.903852 235.506322 
L 163.903852 235.359814 
L 164.071961 235.359814 
L 164.071961 235.213307 
L 164.338377 235.213307 
L 164.338377 235.0668 
L 164.890884 235.0668 
L 164.890884 234.920292 
L 165.684602 234.920292 
L 165.719152 234.48077 
L 166.218174 234.48077 
L 166.303112 234.041248 
L 166.514087 234.041248 
L 166.514087 233.894741 
L 167.235461 233.894741 
L 167.235461 233.748234 
L 167.363986 233.748234 
L 167.363986 233.601726 
L 168.751322 233.601726 
L 168.751322 233.455219 
L 169.106915 233.455219 
L 169.106915 233.162204 
L 169.265066 233.162204 
L 169.265066 233.015697 
L 170.152072 233.015697 
L 170.152072 232.869189 
L 170.560447 232.869189 
L 170.560447 232.722682 
L 171.093304 232.722682 
L 171.093304 232.576175 
L 171.703544 232.576175 
L 171.703544 232.429667 
L 171.920091 232.429667 
L 171.920091 232.28316 
L 172.227464 232.28316 
L 172.295579 231.990145 
L 173.865269 231.990145 
L 173.865269 231.843638 
L 174.066033 231.843638 
L 174.096169 231.404116 
L 174.294307 231.404116 
L 174.4033 231.111101 
L 174.618731 231.111101 
L 174.618731 230.964594 
L 175.401536 230.964594 
L 175.401536 230.818087 
L 175.564337 230.818087 
L 175.564337 230.671579 
L 176.309104 230.671579 
L 176.309104 230.378565 
L 177.26879 230.378565 
L 177.26879 230.232057 
L 177.62342 230.232057 
L 177.62342 230.08555 
L 177.979309 230.08555 
L 177.979309 229.939043 
L 338.688 229.939043 
L 338.688 229.939043 
" style="fill:none;stroke:#6495ed;stroke-linecap:square;stroke-width:1.5;"/>
   </g>
   <g id="line2d_54">
    <defs>
     <path d="M 0 -6 
L -6 6 
L 6 6 
z
" id="m28df80abae" style="stroke:#6495ed;stroke-linejoin:miter;stroke-width:1.5;"/>
    </defs>
    <g>
     <use style="fill-opacity:0;stroke:#6495ed;stroke-linejoin:miter;stroke-width:1.5;" x="174.618731" xlink:href="#m28df80abae" y="230.964594"/>
     <use style="fill-opacity:0;stroke:#6495ed;stroke-linejoin:miter;stroke-width:1.5;" x="177.979309" xlink:href="#m28df80abae" y="230.08555"/>
     <use style="fill-opacity:0;stroke:#6495ed;stroke-linejoin:miter;stroke-width:1.5;" x="177.979309" xlink:href="#m28df80abae" y="229.939043"/>
     <use style="fill-opacity:0;stroke:#6495ed;stroke-linejoin:miter;stroke-width:1.5;" x="177.979309" xlink:href="#m28df80abae" y="229.939043"/>
     <use style="fill-opacity:0;stroke:#6495ed;stroke-linejoin:miter;stroke-width:1.5;" x="338.688" xlink:href="#m28df80abae" y="229.939043"/>
    </g>
   </g>
   <g id="line2d_55">
    <path style="fill:none;stroke:#6495ed;stroke-linecap:square;stroke-width:1.5;"/>
    <g/>
   </g>
   <g id="line2d_56">
    <path clip-path="url(#p2e4b739f5c)" d="M 178.066722 229.939043 
" style="fill:none;stroke:#6495ed;stroke-linecap:square;stroke-width:1.5;"/>
    <defs>
     <path d="M -12 12 
L 12 -12 
M -12 -12 
L 12 12 
" id="m891be7da85" style="stroke:#6495ed;"/>
    </defs>
    <g clip-path="url(#p2e4b739f5c)">
     <use style="fill:#6495ed;stroke:#6495ed;" x="178.066722" xlink:href="#m891be7da85" y="229.939043"/>
    </g>
   </g>
   <g id="line2d_57">
    <path d="M 338.688 229.939043 
L 369.60768 293.845545 
" style="fill:none;stroke:#6495ed;stroke-linecap:square;stroke-width:1.5;"/>
    <g>
     <use style="fill-opacity:0;stroke:#6495ed;stroke-linejoin:miter;stroke-width:1.5;" x="338.688" xlink:href="#m28df80abae" y="229.939043"/>
     <use style="fill-opacity:0;stroke:#6495ed;stroke-linejoin:miter;stroke-width:1.5;" x="369.60768" xlink:href="#m28df80abae" y="293.845545"/>
    </g>
   </g>
   <g id="line2d_58">
    <path d="M 338.688 206.93739 
L 369.60768 212.270257 
" style="fill:none;stroke:#000080;stroke-linecap:square;stroke-width:1.5;"/>
    <g>
     <use style="fill-opacity:0;stroke:#000080;stroke-linejoin:miter;stroke-width:1.5;" x="338.688" xlink:href="#m94fdf76057" y="206.93739"/>
     <use style="fill-opacity:0;stroke:#000080;stroke-linejoin:miter;stroke-width:1.5;" x="369.60768" xlink:href="#m94fdf76057" y="212.270257"/>
    </g>
   </g>
   <g id="line2d_59">
    <path d="M 338.688 170.750077 
L 369.60768 130.69497 
" style="fill:none;stroke:#00bfbf;stroke-linecap:square;stroke-width:1.5;"/>
    <g>
     <use style="fill-opacity:0;stroke:#00bfbf;stroke-linejoin:miter;stroke-width:1.5;" x="338.688" xlink:href="#m74cd8f3ae7" y="170.750077"/>
     <use style="fill-opacity:0;stroke:#00bfbf;stroke-linejoin:miter;stroke-width:1.5;" x="369.60768" xlink:href="#m74cd8f3ae7" y="130.69497"/>
    </g>
   </g>
   <g id="line2d_60">
    <path d="M 338.688 298.944 
L 338.688 44.021228 
" style="fill:none;stroke:#000000;stroke-linecap:square;stroke-width:1.5;"/>
   </g>
   <g id="patch_3">
    <path d="M 57.6 298.944 
L 57.6 41.472 
" style="fill:none;stroke:#000000;stroke-linecap:square;stroke-linejoin:miter;stroke-width:0.8;"/>
   </g>
   <g id="patch_4">
    <path d="M 338.688 298.944 
L 338.688 41.472 
" style="fill:none;stroke:#000000;stroke-linecap:square;stroke-linejoin:miter;stroke-width:0.8;"/>
   </g>
   <g id="patch_5">
    <path d="M 57.6 298.944 
L 338.688 298.944 
" style="fill:none;stroke:#000000;stroke-linecap:square;stroke-linejoin:miter;stroke-width:0.8;"/>
   </g>
   <g id="patch_6">
    <path d="M 57.6 41.472 
L 338.688 41.472 
" style="fill:none;stroke:#000000;stroke-linecap:square;stroke-linejoin:miter;stroke-width:0.8;"/>
   </g>
   <g id="text_13">
    <!-- SPEA2-pla -->
    <defs>
     <path d="M 53.515625 70.515625 
L 53.515625 60.890625 
Q 47.90625 63.578125 42.921875 64.890625 
Q 37.9375 66.21875 33.296875 66.21875 
Q 25.25 66.21875 20.875 63.09375 
Q 16.5 59.96875 16.5 54.203125 
Q 16.5 49.359375 19.40625 46.890625 
Q 22.3125 44.4375 30.421875 42.921875 
L 36.375 41.703125 
Q 47.40625 39.59375 52.65625 34.296875 
Q 57.90625 29 57.90625 20.125 
Q 57.90625 9.515625 50.796875 4.046875 
Q 43.703125 -1.421875 29.984375 -1.421875 
Q 24.8125 -1.421875 18.96875 -0.25 
Q 13.140625 0.921875 6.890625 3.21875 
L 6.890625 13.375 
Q 12.890625 10.015625 18.65625 8.296875 
Q 24.421875 6.59375 29.984375 6.59375 
Q 38.421875 6.59375 43.015625 9.90625 
Q 47.609375 13.234375 47.609375 19.390625 
Q 47.609375 24.75 44.3125 27.78125 
Q 41.015625 30.8125 33.5 32.328125 
L 27.484375 33.5 
Q 16.453125 35.6875 11.515625 40.375 
Q 6.59375 45.0625 6.59375 53.421875 
Q 6.59375 63.09375 13.40625 68.65625 
Q 20.21875 74.21875 32.171875 74.21875 
Q 37.3125 74.21875 42.625 73.28125 
Q 47.953125 72.359375 53.515625 70.515625 
z
" id="DejaVuSans-83"/>
     <path d="M 19.671875 64.796875 
L 19.671875 37.40625 
L 32.078125 37.40625 
Q 38.96875 37.40625 42.71875 40.96875 
Q 46.484375 44.53125 46.484375 51.125 
Q 46.484375 57.671875 42.71875 61.234375 
Q 38.96875 64.796875 32.078125 64.796875 
z
M 9.8125 72.90625 
L 32.078125 72.90625 
Q 44.34375 72.90625 50.609375 67.359375 
Q 56.890625 61.8125 56.890625 51.125 
Q 56.890625 40.328125 50.609375 34.8125 
Q 44.34375 29.296875 32.078125 29.296875 
L 19.671875 29.296875 
L 19.671875 0 
L 9.8125 0 
z
" id="DejaVuSans-80"/>
     <path d="M 9.8125 72.90625 
L 55.90625 72.90625 
L 55.90625 64.59375 
L 19.671875 64.59375 
L 19.671875 43.015625 
L 54.390625 43.015625 
L 54.390625 34.71875 
L 19.671875 34.71875 
L 19.671875 8.296875 
L 56.78125 8.296875 
L 56.78125 0 
L 9.8125 0 
z
" id="DejaVuSans-69"/>
     <path d="M 34.1875 63.1875 
L 20.796875 26.90625 
L 47.609375 26.90625 
z
M 28.609375 72.90625 
L 39.796875 72.90625 
L 67.578125 0 
L 57.328125 0 
L 50.6875 18.703125 
L 17.828125 18.703125 
L 11.1875 0 
L 0.78125 0 
z
" id="DejaVuSans-65"/>
    </defs>
    <g transform="translate(375.22944 298.536482)scale(0.17 -0.17)">
     <use xlink:href="#DejaVuSans-83"/>
     <use x="63.476562" xlink:href="#DejaVuSans-80"/>
     <use x="123.779297" xlink:href="#DejaVuSans-69"/>
     <use x="186.962891" xlink:href="#DejaVuSans-65"/>
     <use x="255.371094" xlink:href="#DejaVuSans-50"/>
     <use x="318.994141" xlink:href="#DejaVuSans-45"/>
     <use x="355.078125" xlink:href="#DejaVuSans-112"/>
     <use x="418.554688" xlink:href="#DejaVuSans-108"/>
     <use x="446.337891" xlink:href="#DejaVuSans-97"/>
    </g>
   </g>
   <g id="text_14">
    <!-- MOEAD-pla -->
    <defs>
     <path d="M 9.8125 72.90625 
L 24.515625 72.90625 
L 43.109375 23.296875 
L 61.8125 72.90625 
L 76.515625 72.90625 
L 76.515625 0 
L 66.890625 0 
L 66.890625 64.015625 
L 48.09375 14.015625 
L 38.1875 14.015625 
L 19.390625 64.015625 
L 19.390625 0 
L 9.8125 0 
z
" id="DejaVuSans-77"/>
     <path d="M 39.40625 66.21875 
Q 28.65625 66.21875 22.328125 58.203125 
Q 16.015625 50.203125 16.015625 36.375 
Q 16.015625 22.609375 22.328125 14.59375 
Q 28.65625 6.59375 39.40625 6.59375 
Q 50.140625 6.59375 56.421875 14.59375 
Q 62.703125 22.609375 62.703125 36.375 
Q 62.703125 50.203125 56.421875 58.203125 
Q 50.140625 66.21875 39.40625 66.21875 
z
M 39.40625 74.21875 
Q 54.734375 74.21875 63.90625 63.9375 
Q 73.09375 53.65625 73.09375 36.375 
Q 73.09375 19.140625 63.90625 8.859375 
Q 54.734375 -1.421875 39.40625 -1.421875 
Q 24.03125 -1.421875 14.8125 8.828125 
Q 5.609375 19.09375 5.609375 36.375 
Q 5.609375 53.65625 14.8125 63.9375 
Q 24.03125 74.21875 39.40625 74.21875 
z
" id="DejaVuSans-79"/>
     <path d="M 19.671875 64.796875 
L 19.671875 8.109375 
L 31.59375 8.109375 
Q 46.6875 8.109375 53.6875 14.9375 
Q 60.6875 21.78125 60.6875 36.53125 
Q 60.6875 51.171875 53.6875 57.984375 
Q 46.6875 64.796875 31.59375 64.796875 
z
M 9.8125 72.90625 
L 30.078125 72.90625 
Q 51.265625 72.90625 61.171875 64.09375 
Q 71.09375 55.28125 71.09375 36.53125 
Q 71.09375 17.671875 61.125 8.828125 
Q 51.171875 0 30.078125 0 
L 9.8125 0 
z
" id="DejaVuSans-68"/>
    </defs>
    <g transform="translate(375.22944 216.961195)scale(0.17 -0.17)">
     <use xlink:href="#DejaVuSans-77"/>
     <use x="86.279297" xlink:href="#DejaVuSans-79"/>
     <use x="164.990234" xlink:href="#DejaVuSans-69"/>
     <use x="228.173828" xlink:href="#DejaVuSans-65"/>
     <use x="296.582031" xlink:href="#DejaVuSans-68"/>
     <use x="373.583984" xlink:href="#DejaVuSans-45"/>
     <use x="409.667969" xlink:href="#DejaVuSans-112"/>
     <use x="473.144531" xlink:href="#DejaVuSans-108"/>
     <use x="500.927734" xlink:href="#DejaVuSans-97"/>
    </g>
   </g>
   <g id="text_15">
    <!-- GDE3-plat -->
    <defs>
     <path d="M 59.515625 10.40625 
L 59.515625 29.984375 
L 43.40625 29.984375 
L 43.40625 38.09375 
L 69.28125 38.09375 
L 69.28125 6.78125 
Q 63.578125 2.734375 56.6875 0.65625 
Q 49.8125 -1.421875 42 -1.421875 
Q 24.90625 -1.421875 15.25 8.5625 
Q 5.609375 18.5625 5.609375 36.375 
Q 5.609375 54.25 15.25 64.234375 
Q 24.90625 74.21875 42 74.21875 
Q 49.125 74.21875 55.546875 72.453125 
Q 61.96875 70.703125 67.390625 67.28125 
L 67.390625 56.78125 
Q 61.921875 61.421875 55.765625 63.765625 
Q 49.609375 66.109375 42.828125 66.109375 
Q 29.4375 66.109375 22.71875 58.640625 
Q 16.015625 51.171875 16.015625 36.375 
Q 16.015625 21.625 22.71875 14.15625 
Q 29.4375 6.6875 42.828125 6.6875 
Q 48.046875 6.6875 52.140625 7.59375 
Q 56.25 8.5 59.515625 10.40625 
z
" id="DejaVuSans-71"/>
     <path d="M 40.578125 39.3125 
Q 47.65625 37.796875 51.625 33 
Q 55.609375 28.21875 55.609375 21.1875 
Q 55.609375 10.40625 48.1875 4.484375 
Q 40.765625 -1.421875 27.09375 -1.421875 
Q 22.515625 -1.421875 17.65625 -0.515625 
Q 12.796875 0.390625 7.625 2.203125 
L 7.625 11.71875 
Q 11.71875 9.328125 16.59375 8.109375 
Q 21.484375 6.890625 26.8125 6.890625 
Q 36.078125 6.890625 40.9375 10.546875 
Q 45.796875 14.203125 45.796875 21.1875 
Q 45.796875 27.640625 41.28125 31.265625 
Q 36.765625 34.90625 28.71875 34.90625 
L 20.21875 34.90625 
L 20.21875 43.015625 
L 29.109375 43.015625 
Q 36.375 43.015625 40.234375 45.921875 
Q 44.09375 48.828125 44.09375 54.296875 
Q 44.09375 59.90625 40.109375 62.90625 
Q 36.140625 65.921875 28.71875 65.921875 
Q 24.65625 65.921875 20.015625 65.03125 
Q 15.375 64.15625 9.8125 62.3125 
L 9.8125 71.09375 
Q 15.4375 72.65625 20.34375 73.4375 
Q 25.25 74.21875 29.59375 74.21875 
Q 40.828125 74.21875 47.359375 69.109375 
Q 53.90625 64.015625 53.90625 55.328125 
Q 53.90625 49.265625 50.4375 45.09375 
Q 46.96875 40.921875 40.578125 39.3125 
z
" id="DejaVuSans-51"/>
    </defs>
    <g transform="translate(375.22944 135.385908)scale(0.17 -0.17)">
     <use xlink:href="#DejaVuSans-71"/>
     <use x="77.490234" xlink:href="#DejaVuSans-68"/>
     <use x="154.492188" xlink:href="#DejaVuSans-69"/>
     <use x="217.675781" xlink:href="#DejaVuSans-51"/>
     <use x="281.298828" xlink:href="#DejaVuSans-45"/>
     <use x="317.382812" xlink:href="#DejaVuSans-112"/>
     <use x="380.859375" xlink:href="#DejaVuSans-108"/>
     <use x="408.642578" xlink:href="#DejaVuSans-97"/>
     <use x="469.921875" xlink:href="#DejaVuSans-116"/>
    </g>
   </g>
   <g id="text_16">
    <!-- best 2016 -->
    <defs>
     <path d="M 48.6875 27.296875 
Q 48.6875 37.203125 44.609375 42.84375 
Q 40.53125 48.484375 33.40625 48.484375 
Q 26.265625 48.484375 22.1875 42.84375 
Q 18.109375 37.203125 18.109375 27.296875 
Q 18.109375 17.390625 22.1875 11.75 
Q 26.265625 6.109375 33.40625 6.109375 
Q 40.53125 6.109375 44.609375 11.75 
Q 48.6875 17.390625 48.6875 27.296875 
z
M 18.109375 46.390625 
Q 20.953125 51.265625 25.265625 53.625 
Q 29.59375 56 35.59375 56 
Q 45.5625 56 51.78125 48.09375 
Q 58.015625 40.1875 58.015625 27.296875 
Q 58.015625 14.40625 51.78125 6.484375 
Q 45.5625 -1.421875 35.59375 -1.421875 
Q 29.59375 -1.421875 25.265625 0.953125 
Q 20.953125 3.328125 18.109375 8.203125 
L 18.109375 0 
L 9.078125 0 
L 9.078125 75.984375 
L 18.109375 75.984375 
z
" id="DejaVuSans-98"/>
    </defs>
    <g transform="translate(375.22944 53.810621)scale(0.17 -0.17)">
     <use xlink:href="#DejaVuSans-98"/>
     <use x="63.476562" xlink:href="#DejaVuSans-101"/>
     <use x="125" xlink:href="#DejaVuSans-115"/>
     <use x="177.099609" xlink:href="#DejaVuSans-116"/>
     <use x="216.308594" xlink:href="#DejaVuSans-32"/>
     <use x="248.095703" xlink:href="#DejaVuSans-50"/>
     <use x="311.71875" xlink:href="#DejaVuSans-48"/>
     <use x="375.341797" xlink:href="#DejaVuSans-49"/>
     <use x="438.964844" xlink:href="#DejaVuSans-54"/>
    </g>
   </g>
   <g id="text_17">
    <!-- bbob-biobj f53-f55, 40-D -->
    <defs>
     <path d="M 9.421875 54.6875 
L 18.40625 54.6875 
L 18.40625 -0.984375 
Q 18.40625 -11.421875 14.421875 -16.109375 
Q 10.453125 -20.796875 1.609375 -20.796875 
L -1.8125 -20.796875 
L -1.8125 -13.1875 
L 0.59375 -13.1875 
Q 5.71875 -13.1875 7.5625 -10.8125 
Q 9.421875 -8.453125 9.421875 -0.984375 
z
M 9.421875 75.984375 
L 18.40625 75.984375 
L 18.40625 64.59375 
L 9.421875 64.59375 
z
" id="DejaVuSans-106"/>
     <path d="M 10.796875 72.90625 
L 49.515625 72.90625 
L 49.515625 64.59375 
L 19.828125 64.59375 
L 19.828125 46.734375 
Q 21.96875 47.46875 24.109375 47.828125 
Q 26.265625 48.1875 28.421875 48.1875 
Q 40.625 48.1875 47.75 41.5 
Q 54.890625 34.8125 54.890625 23.390625 
Q 54.890625 11.625 47.5625 5.09375 
Q 40.234375 -1.421875 26.90625 -1.421875 
Q 22.3125 -1.421875 17.546875 -0.640625 
Q 12.796875 0.140625 7.71875 1.703125 
L 7.71875 11.625 
Q 12.109375 9.234375 16.796875 8.0625 
Q 21.484375 6.890625 26.703125 6.890625 
Q 35.15625 6.890625 40.078125 11.328125 
Q 45.015625 15.765625 45.015625 23.390625 
Q 45.015625 31 40.078125 35.4375 
Q 35.15625 39.890625 26.703125 39.890625 
Q 22.75 39.890625 18.8125 39.015625 
Q 14.890625 38.140625 10.796875 36.28125 
z
" id="DejaVuSans-53"/>
    </defs>
    <g transform="translate(60.41088 51.797126)scale(0.102 -0.102)">
     <use xlink:href="#DejaVuSans-98"/>
     <use x="63.476562" xlink:href="#DejaVuSans-98"/>
     <use x="126.953125" xlink:href="#DejaVuSans-111"/>
     <use x="188.134766" xlink:href="#DejaVuSans-98"/>
     <use x="251.611328" xlink:href="#DejaVuSans-45"/>
     <use x="287.695312" xlink:href="#DejaVuSans-98"/>
     <use x="351.171875" xlink:href="#DejaVuSans-105"/>
     <use x="378.955078" xlink:href="#DejaVuSans-111"/>
     <use x="440.136719" xlink:href="#DejaVuSans-98"/>
     <use x="503.613281" xlink:href="#DejaVuSans-106"/>
     <use x="531.396484" xlink:href="#DejaVuSans-32"/>
     <use x="563.183594" xlink:href="#DejaVuSans-102"/>
     <use x="598.388672" xlink:href="#DejaVuSans-53"/>
     <use x="662.011719" xlink:href="#DejaVuSans-51"/>
     <use x="725.634766" xlink:href="#DejaVuSans-45"/>
     <use x="761.71875" xlink:href="#DejaVuSans-102"/>
     <use x="796.923828" xlink:href="#DejaVuSans-53"/>
     <use x="860.546875" xlink:href="#DejaVuSans-53"/>
     <use x="924.169922" xlink:href="#DejaVuSans-44"/>
     <use x="955.957031" xlink:href="#DejaVuSans-32"/>
     <use x="987.744141" xlink:href="#DejaVuSans-52"/>
     <use x="1051.367188" xlink:href="#DejaVuSans-48"/>
     <use x="1114.990234" xlink:href="#DejaVuSans-45"/>
     <use x="1151.074219" xlink:href="#DejaVuSans-68"/>
    </g>
    <!-- 58 targets: 1..-1.0e-4 -->
    <defs>
     <path d="M 11.71875 12.40625 
L 22.015625 12.40625 
L 22.015625 0 
L 11.71875 0 
z
M 11.71875 51.703125 
L 22.015625 51.703125 
L 22.015625 39.3125 
L 11.71875 39.3125 
z
" id="DejaVuSans-58"/>
    </defs>
    <g transform="translate(60.41088 63.218895)scale(0.102 -0.102)">
     <use xlink:href="#DejaVuSans-53"/>
     <use x="63.623047" xlink:href="#DejaVuSans-56"/>
     <use x="127.246094" xlink:href="#DejaVuSans-32"/>
     <use x="159.033203" xlink:href="#DejaVuSans-116"/>
     <use x="198.242188" xlink:href="#DejaVuSans-97"/>
     <use x="259.521484" xlink:href="#DejaVuSans-114"/>
     <use x="300.619141" xlink:href="#DejaVuSans-103"/>
     <use x="364.095703" xlink:href="#DejaVuSans-101"/>
     <use x="425.619141" xlink:href="#DejaVuSans-116"/>
     <use x="464.828125" xlink:href="#DejaVuSans-115"/>
     <use x="516.927734" xlink:href="#DejaVuSans-58"/>
     <use x="550.619141" xlink:href="#DejaVuSans-32"/>
     <use x="582.40625" xlink:href="#DejaVuSans-49"/>
     <use x="646.029297" xlink:href="#DejaVuSans-46"/>
     <use x="677.816406" xlink:href="#DejaVuSans-46"/>
     <use x="709.603516" xlink:href="#DejaVuSans-45"/>
     <use x="745.6875" xlink:href="#DejaVuSans-49"/>
     <use x="809.310547" xlink:href="#DejaVuSans-46"/>
     <use x="841.097656" xlink:href="#DejaVuSans-48"/>
     <use x="904.720703" xlink:href="#DejaVuSans-101"/>
     <use x="966.244141" xlink:href="#DejaVuSans-45"/>
     <use x="1002.328125" xlink:href="#DejaVuSans-52"/>
    </g>
    <!-- 10 instances -->
    <g transform="translate(60.41088 74.640664)scale(0.102 -0.102)">
     <use xlink:href="#DejaVuSans-49"/>
     <use x="63.623047" xlink:href="#DejaVuSans-48"/>
     <use x="127.246094" xlink:href="#DejaVuSans-32"/>
     <use x="159.033203" xlink:href="#DejaVuSans-105"/>
     <use x="186.816406" xlink:href="#DejaVuSans-110"/>
     <use x="250.195312" xlink:href="#DejaVuSans-115"/>
     <use x="302.294922" xlink:href="#DejaVuSans-116"/>
     <use x="341.503906" xlink:href="#DejaVuSans-97"/>
     <use x="402.783203" xlink:href="#DejaVuSans-110"/>
     <use x="466.162109" xlink:href="#DejaVuSans-99"/>
     <use x="521.142578" xlink:href="#DejaVuSans-101"/>
     <use x="582.666016" xlink:href="#DejaVuSans-115"/>
    </g>
   </g>
   <g id="text_18">
    <!-- v2.3.1.31, hv-hash=9c62f617dadcb154 -->
    <defs>
     <path d="M 54.890625 33.015625 
L 54.890625 0 
L 45.90625 0 
L 45.90625 32.71875 
Q 45.90625 40.484375 42.875 44.328125 
Q 39.84375 48.1875 33.796875 48.1875 
Q 26.515625 48.1875 22.3125 43.546875 
Q 18.109375 38.921875 18.109375 30.90625 
L 18.109375 0 
L 9.078125 0 
L 9.078125 75.984375 
L 18.109375 75.984375 
L 18.109375 46.1875 
Q 21.34375 51.125 25.703125 53.5625 
Q 30.078125 56 35.796875 56 
Q 45.21875 56 50.046875 50.171875 
Q 54.890625 44.34375 54.890625 33.015625 
z
" id="DejaVuSans-104"/>
     <path d="M 10.59375 45.40625 
L 73.1875 45.40625 
L 73.1875 37.203125 
L 10.59375 37.203125 
z
M 10.59375 25.484375 
L 73.1875 25.484375 
L 73.1875 17.1875 
L 10.59375 17.1875 
z
" id="DejaVuSans-61"/>
     <path d="M 10.984375 1.515625 
L 10.984375 10.5 
Q 14.703125 8.734375 18.5 7.8125 
Q 22.3125 6.890625 25.984375 6.890625 
Q 35.75 6.890625 40.890625 13.453125 
Q 46.046875 20.015625 46.78125 33.40625 
Q 43.953125 29.203125 39.59375 26.953125 
Q 35.25 24.703125 29.984375 24.703125 
Q 19.046875 24.703125 12.671875 31.3125 
Q 6.296875 37.9375 6.296875 49.421875 
Q 6.296875 60.640625 12.9375 67.421875 
Q 19.578125 74.21875 30.609375 74.21875 
Q 43.265625 74.21875 49.921875 64.515625 
Q 56.59375 54.828125 56.59375 36.375 
Q 56.59375 19.140625 48.40625 8.859375 
Q 40.234375 -1.421875 26.421875 -1.421875 
Q 22.703125 -1.421875 18.890625 -0.6875 
Q 15.09375 0.046875 10.984375 1.515625 
z
M 30.609375 32.421875 
Q 37.25 32.421875 41.125 36.953125 
Q 45.015625 41.5 45.015625 49.421875 
Q 45.015625 57.28125 41.125 61.84375 
Q 37.25 66.40625 30.609375 66.40625 
Q 23.96875 66.40625 20.09375 61.84375 
Q 16.21875 57.28125 16.21875 49.421875 
Q 16.21875 41.5 20.09375 36.953125 
Q 23.96875 32.421875 30.609375 32.421875 
z
" id="DejaVuSans-57"/>
     <path d="M 8.203125 72.90625 
L 55.078125 72.90625 
L 55.078125 68.703125 
L 28.609375 0 
L 18.3125 0 
L 43.21875 64.59375 
L 8.203125 64.59375 
z
" id="DejaVuSans-55"/>
    </defs>
    <g style="fill:#808080;" transform="translate(98.729937 294.289592)scale(0.1 -0.1)">
     <use xlink:href="#DejaVuSans-118"/>
     <use x="59.179688" xlink:href="#DejaVuSans-50"/>
     <use x="122.802734" xlink:href="#DejaVuSans-46"/>
     <use x="154.589844" xlink:href="#DejaVuSans-51"/>
     <use x="218.212891" xlink:href="#DejaVuSans-46"/>
     <use x="250" xlink:href="#DejaVuSans-49"/>
     <use x="313.623047" xlink:href="#DejaVuSans-46"/>
     <use x="345.410156" xlink:href="#DejaVuSans-51"/>
     <use x="409.033203" xlink:href="#DejaVuSans-49"/>
     <use x="472.65625" xlink:href="#DejaVuSans-44"/>
     <use x="504.443359" xlink:href="#DejaVuSans-32"/>
     <use x="536.230469" xlink:href="#DejaVuSans-104"/>
     <use x="599.609375" xlink:href="#DejaVuSans-118"/>
     <use x="658.757812" xlink:href="#DejaVuSans-45"/>
     <use x="694.841797" xlink:href="#DejaVuSans-104"/>
     <use x="758.220703" xlink:href="#DejaVuSans-97"/>
     <use x="819.5" xlink:href="#DejaVuSans-115"/>
     <use x="871.599609" xlink:href="#DejaVuSans-104"/>
     <use x="934.978516" xlink:href="#DejaVuSans-61"/>
     <use x="1018.767578" xlink:href="#DejaVuSans-57"/>
     <use x="1082.390625" xlink:href="#DejaVuSans-99"/>
     <use x="1137.371094" xlink:href="#DejaVuSans-54"/>
     <use x="1200.994141" xlink:href="#DejaVuSans-50"/>
     <use x="1264.617188" xlink:href="#DejaVuSans-102"/>
     <use x="1299.822266" xlink:href="#DejaVuSans-54"/>
     <use x="1363.445312" xlink:href="#DejaVuSans-49"/>
     <use x="1427.068359" xlink:href="#DejaVuSans-55"/>
     <use x="1490.691406" xlink:href="#DejaVuSans-100"/>
     <use x="1554.167969" xlink:href="#DejaVuSans-97"/>
     <use x="1615.447266" xlink:href="#DejaVuSans-100"/>
     <use x="1678.923828" xlink:href="#DejaVuSans-99"/>
     <use x="1733.904297" xlink:href="#DejaVuSans-98"/>
     <use x="1797.380859" xlink:href="#DejaVuSans-49"/>
     <use x="1861.003906" xlink:href="#DejaVuSans-53"/>
     <use x="1924.626953" xlink:href="#DejaVuSans-52"/>
    </g>
   </g>
  </g>
 </g>
 <defs>
  <clipPath id="p2e4b739f5c">
   <rect height="257.472" width="281.088" x="57.6" y="41.472"/>
  </clipPath>
 </defs>
</svg>
